<?xml version="1.0" encoding="UTF-8" standalone="no"?>
<!DOCTYPE svg PUBLIC "-//W3C//DTD SVG 1.1//EN"
 "http://www.w3.org/Graphics/SVG/1.1/DTD/svg11.dtd">
<!-- Generated by graphviz version 7.1.0 (20230121.1956)
 -->
<!-- Pages: 1 -->
<svg width="1168pt" height="332pt"
 viewBox="0.00 0.00 1168.00 332.00" xmlns="http://www.w3.org/2000/svg" xmlns:xlink="http://www.w3.org/1999/xlink">
<g id="graph0" class="graph" transform="scale(1 1) rotate(0) translate(4 328)">
<polygon fill="white" stroke="none" points="-4,4 -4,-328 1164,-328 1164,4 -4,4"/>
<!-- AoiBirthdayConvo2 begins. -->
<g id="node1" class="node">
<title>AoiBirthdayConvo2 begins.</title>
<ellipse fill="none" stroke="orange" cx="550.5" cy="-306" rx="112.38" ry="18"/>
<text text-anchor="middle" x="550.5" y="-302.3" font-family="Times New Roman,serif" font-size="14.00">AoiBirthdayConvo2 begins.</text>
</g>
<!-- j553211705 -->
<g id="node2" class="node">
<title>j553211705</title>
<polygon fill="none" stroke="red" points="513,-252 0,-252 0,-216 513,-216 513,-252"/>
<text text-anchor="middle" x="256.5" y="-230.3" font-family="Times New Roman,serif" font-size="14.00">Alles Liebe zum Geburtstag, Aoi! Vielleicht können wir dir deinen eigenen Zeke klonen ...</text>
</g>
<!-- AoiBirthdayConvo2 begins.&#45;&gt;j553211705 -->
<g id="edge1" class="edge">
<title>AoiBirthdayConvo2 begins.&#45;&gt;j553211705</title>
<path fill="none" stroke="black" d="M489.58,-290.5C446.61,-280.26 388.48,-266.42 341.02,-255.12"/>
<polygon fill="black" stroke="black" points="341.83,-251.72 331.3,-252.81 340.21,-258.53 341.83,-251.72"/>
</g>
<!-- j1538570659 -->
<g id="node3" class="node">
<title>j1538570659</title>
<polygon fill="none" stroke="red" points="1160,-252 531,-252 531,-216 1160,-216 1160,-252"/>
<text text-anchor="middle" x="845.5" y="-230.3" font-family="Times New Roman,serif" font-size="14.00">We come alive, under the neon glow … it’s the party of your GEBURTSTAG! &lt;RETRO_EMOJI_HEART&gt;</text>
</g>
<!-- AoiBirthdayConvo2 begins.&#45;&gt;j1538570659 -->
<g id="edge2" class="edge">
<title>AoiBirthdayConvo2 begins.&#45;&gt;j1538570659</title>
<path fill="none" stroke="black" d="M611.62,-290.5C654.84,-280.24 713.32,-266.36 761,-255.05"/>
<polygon fill="black" stroke="black" points="761.53,-258.52 770.45,-252.81 759.92,-251.71 761.53,-258.52"/>
</g>
<!-- j3331809379 -->
<g id="node4" class="node">
<title>j3331809379</title>
<polygon fill="none" stroke="blue" points="526,-108 95,-108 95,-72 526,-72 526,-108"/>
<text text-anchor="middle" x="310.5" y="-86.3" font-family="Times New Roman,serif" font-size="14.00">&lt;RETRO_EMOJI_HORRIFIED&gt; warum machst du über sowas witze???</text>
</g>
<!-- j553211705&#45;&gt;j3331809379 -->
<g id="edge3" class="edge">
<title>j553211705&#45;&gt;j3331809379</title>
<path fill="none" stroke="black" d="M263.12,-215.59C272.32,-191.4 289.07,-147.36 299.98,-118.65"/>
<polygon fill="black" stroke="black" points="303.17,-120.12 303.46,-109.53 296.63,-117.63 303.17,-120.12"/>
</g>
<!-- j4067185643 -->
<g id="node5" class="node">
<title>j4067185643</title>
<ellipse fill="none" stroke="orange" cx="840.5" cy="-162" rx="64.19" ry="18"/>
<text text-anchor="middle" x="840.5" y="-158.3" font-family="Times New Roman,serif" font-size="14.00">+20 Chemistry</text>
</g>
<!-- j1538570659&#45;&gt;j4067185643 -->
<g id="edge4" class="edge">
<title>j1538570659&#45;&gt;j4067185643</title>
<path fill="none" stroke="black" d="M844.26,-215.7C843.74,-208.41 843.12,-199.73 842.54,-191.54"/>
<polygon fill="black" stroke="black" points="846.03,-191.34 841.83,-181.61 839.05,-191.84 846.03,-191.34"/>
</g>
<!-- Chat ends. -->
<g id="node6" class="node">
<title>Chat ends.</title>
<ellipse fill="none" stroke="orange" cx="568.5" cy="-18" rx="50.09" ry="18"/>
<text text-anchor="middle" x="568.5" y="-14.3" font-family="Times New Roman,serif" font-size="14.00">Chat ends.</text>
</g>
<!-- j3331809379&#45;&gt;Chat ends. -->
<g id="edge5" class="edge">
<title>j3331809379&#45;&gt;Chat ends.</title>
<path fill="none" stroke="black" d="M374.94,-71.52C419.28,-59.49 477.33,-43.74 518.25,-32.63"/>
<polygon fill="black" stroke="black" points="519.12,-36.03 527.85,-30.03 517.28,-29.27 519.12,-36.03"/>
</g>
<!-- j2585033865 -->
<g id="node7" class="node">
<title>j2585033865</title>
<polygon fill="none" stroke="blue" points="1120,-108 553,-108 553,-72 1120,-72 1120,-108"/>
<text text-anchor="middle" x="836.5" y="-86.3" font-family="Times New Roman,serif" font-size="14.00">ahahahaa bitte keine party aber dnk! rate mal was ich mir grade anhöre &lt;RETRO_EMOJI_WINK&gt;</text>
</g>
<!-- j4067185643&#45;&gt;j2585033865 -->
<g id="edge6" class="edge">
<title>j4067185643&#45;&gt;j2585033865</title>
<path fill="none" stroke="black" d="M839.51,-143.7C839.09,-136.41 838.6,-127.73 838.13,-119.54"/>
<polygon fill="black" stroke="black" points="841.63,-119.4 837.56,-109.62 834.64,-119.8 841.63,-119.4"/>
</g>
<!-- j2585033865&#45;&gt;Chat ends. -->
<g id="edge7" class="edge">
<title>j2585033865&#45;&gt;Chat ends.</title>
<path fill="none" stroke="black" d="M769.56,-71.52C722.88,-59.32 661.57,-43.31 618.98,-32.19"/>
<polygon fill="black" stroke="black" points="620.06,-28.85 609.5,-29.71 618.29,-35.62 620.06,-28.85"/>
</g>
</g>
</svg>
