<?xml version="1.0" encoding="UTF-8" standalone="no"?>
<!DOCTYPE svg PUBLIC "-//W3C//DTD SVG 1.1//EN"
 "http://www.w3.org/Graphics/SVG/1.1/DTD/svg11.dtd">
<!-- Generated by graphviz version 7.1.0 (20230121.1956)
 -->
<!-- Pages: 1 -->
<svg width="2889pt" height="1453pt"
 viewBox="0.00 0.00 2889.00 1453.00" xmlns="http://www.w3.org/2000/svg" xmlns:xlink="http://www.w3.org/1999/xlink">
<g id="graph0" class="graph" transform="scale(1 1) rotate(0) translate(4 1449)">
<polygon fill="white" stroke="none" points="-4,4 -4,-1449 2885,-1449 2885,4 -4,4"/>
<!-- AmirRank5Convo7 begins. -->
<g id="node1" class="node">
<title>AmirRank5Convo7 begins.</title>
<ellipse fill="none" stroke="orange" cx="2682" cy="-1427" rx="109.68" ry="18"/>
<text text-anchor="middle" x="2682" y="-1423.3" font-family="Times New Roman,serif" font-size="14.00">AmirRank5Convo7 begins.</text>
</g>
<!-- j2068497947 -->
<g id="node2" class="node">
<title>j2068497947</title>
<ellipse fill="none" stroke="orange" cx="2682" cy="-1354" rx="109.38" ry="18"/>
<text text-anchor="middle" x="2682" y="-1350.3" font-family="Times New Roman,serif" font-size="14.00">Check boolean AmirDating</text>
</g>
<!-- AmirRank5Convo7 begins.&#45;&gt;j2068497947 -->
<g id="edge1" class="edge">
<title>AmirRank5Convo7 begins.&#45;&gt;j2068497947</title>
<path fill="none" stroke="black" d="M2682,-1408.81C2682,-1401.23 2682,-1392.1 2682,-1383.54"/>
<polygon fill="black" stroke="black" points="2685.5,-1383.54 2682,-1373.54 2678.5,-1383.54 2685.5,-1383.54"/>
</g>
<!-- j1349713400 -->
<g id="node3" class="node">
<title>j1349713400</title>
<polygon fill="none" stroke="blue" points="2826.5,-1285 2191.5,-1285 2191.5,-1249 2826.5,-1249 2826.5,-1285"/>
<text text-anchor="middle" x="2509" y="-1263.3" font-family="Times New Roman,serif" font-size="14.00">เฮ้ที่รัก พอดีมีเรื่องอยากขอให้ช่วยหน่อย</text>
</g>
<!-- j2068497947&#45;&gt;j1349713400 -->
<g id="edge2" class="edge">
<title>j2068497947&#45;&gt;j1349713400</title>
<path fill="none" stroke="green" d="M2648.23,-1336.41C2621.49,-1323.27 2583.88,-1304.79 2554.49,-1290.35"/>
<polygon fill="green" stroke="green" points="2556.34,-1287.36 2545.82,-1286.09 2553.26,-1293.64 2556.34,-1287.36"/>
<text text-anchor="middle" x="2616" y="-1306.8" font-family="Times New Roman,serif" font-size="14.00">true</text>
</g>
<!-- Chat ends. -->
<g id="node4" class="node">
<title>Chat ends.</title>
<ellipse fill="none" stroke="orange" cx="2765" cy="-18" rx="50.09" ry="18"/>
<text text-anchor="middle" x="2765" y="-14.3" font-family="Times New Roman,serif" font-size="14.00">Chat ends.</text>
</g>
<!-- j2068497947&#45;&gt;Chat ends. -->
<g id="edge3" class="edge">
<title>j2068497947&#45;&gt;Chat ends.</title>
<path fill="none" stroke="brown" d="M2768.5,-1342.63C2811.75,-1332.08 2855,-1310.83 2855,-1268 2855,-1268 2855,-1268 2855,-90 2855,-64.8 2832.99,-47.16 2810.73,-35.77"/>
<polygon fill="brown" stroke="brown" points="2812.48,-32.72 2801.94,-31.61 2809.49,-39.05 2812.48,-32.72"/>
<text text-anchor="middle" x="2868" y="-668.3" font-family="Times New Roman,serif" font-size="14.00">false</text>
</g>
<!-- j2847136847 -->
<g id="node5" class="node">
<title>j2847136847</title>
<polygon fill="none" stroke="red" points="2482,-1212 2194,-1212 2194,-1176 2482,-1176 2482,-1212"/>
<text text-anchor="middle" x="2338" y="-1190.3" font-family="Times New Roman,serif" font-size="14.00">อ้อ ว่ามาเลยที่รัก</text>
</g>
<!-- j1349713400&#45;&gt;j2847136847 -->
<g id="edge4" class="edge">
<title>j1349713400&#45;&gt;j2847136847</title>
<path fill="none" stroke="black" d="M2467.17,-1248.63C2444.09,-1239.05 2415.2,-1227.05 2390.6,-1216.84"/>
<polygon fill="black" stroke="black" points="2391.97,-1213.62 2381.39,-1213.02 2389.28,-1220.08 2391.97,-1213.62"/>
</g>
<!-- j3250058794 -->
<g id="node6" class="node">
<title>j3250058794</title>
<polygon fill="none" stroke="red" points="2824,-1158 2330,-1158 2330,-1122 2824,-1122 2824,-1158"/>
<text text-anchor="middle" x="2577" y="-1136.3" font-family="Times New Roman,serif" font-size="14.00">เฮ้ ขอโทษทีนะ ตอนนี้คุยไม่ได้ [จบ]</text>
</g>
<!-- j1349713400&#45;&gt;j3250058794 -->
<g id="edge5" class="edge">
<title>j1349713400&#45;&gt;j3250058794</title>
<path fill="none" stroke="black" d="M2518.46,-1248.62C2529.77,-1227.82 2548.86,-1192.73 2562.15,-1168.3"/>
<polygon fill="black" stroke="black" points="2565.2,-1170.02 2566.9,-1159.56 2559.05,-1166.67 2565.2,-1170.02"/>
</g>
<!-- j1496864342 -->
<g id="node7" class="node">
<title>j1496864342</title>
<polygon fill="none" stroke="blue" points="2578.5,-1104 1861.5,-1104 1861.5,-1068 2578.5,-1068 2578.5,-1104"/>
<text text-anchor="middle" x="2220" y="-1082.3" font-family="Times New Roman,serif" font-size="14.00">คืออออ คิดว่าาาาาาจะแฮ็ก K.O.L. น่ะ ฮ่าฮ่าฮ่าฮ่าฮ่า</text>
</g>
<!-- j2847136847&#45;&gt;j1496864342 -->
<g id="edge6" class="edge">
<title>j2847136847&#45;&gt;j1496864342</title>
<path fill="none" stroke="black" d="M2318.78,-1175.73C2299.49,-1158.41 2269.59,-1131.55 2247.74,-1111.92"/>
<polygon fill="black" stroke="black" points="2250.12,-1109.35 2240.34,-1105.27 2245.44,-1114.56 2250.12,-1109.35"/>
</g>
<!-- j3250058794&#45;&gt;Chat ends. -->
<g id="edge7" class="edge">
<title>j3250058794&#45;&gt;Chat ends.</title>
<path fill="none" stroke="black" d="M2667.69,-1121.5C2732.76,-1106.26 2809,-1081.65 2809,-1050 2809,-1050 2809,-1050 2809,-90 2809,-72.96 2799.73,-56.61 2789.7,-43.9"/>
<polygon fill="black" stroke="black" points="2792.53,-41.82 2783.37,-36.49 2787.2,-46.36 2792.53,-41.82"/>
</g>
<!-- j2605255038 -->
<g id="node8" class="node">
<title>j2605255038</title>
<polygon fill="none" stroke="blue" points="2286.5,-1031 1395.5,-1031 1395.5,-995 2286.5,-995 2286.5,-1031"/>
<text text-anchor="middle" x="1841" y="-1009.3" font-family="Times New Roman,serif" font-size="14.00">แล้วจะเปลี่ยนชื่อผู้ใช้ของ arthur เพื่อทดสอบว่าทำถูกหรือเปล่า</text>
</g>
<!-- j1496864342&#45;&gt;j2605255038 -->
<g id="edge8" class="edge">
<title>j1496864342&#45;&gt;j2605255038</title>
<path fill="none" stroke="black" d="M2126.8,-1067.54C2071.84,-1057.24 2002.15,-1044.19 1945.35,-1033.55"/>
<polygon fill="black" stroke="black" points="1946.13,-1030.13 1935.66,-1031.73 1944.84,-1037.01 1946.13,-1030.13"/>
</g>
<!-- j3804610820 -->
<g id="node9" class="node">
<title>j3804610820</title>
<ellipse fill="none" stroke="orange" cx="1316" cy="-940" rx="131.08" ry="18"/>
<text text-anchor="middle" x="1316" y="-936.3" font-family="Times New Roman,serif" font-size="14.00">Check boolean AmirQuincyHack</text>
</g>
<!-- j2605255038&#45;&gt;j3804610820 -->
<g id="edge9" class="edge">
<title>j2605255038&#45;&gt;j3804610820</title>
<path fill="none" stroke="black" d="M1711.9,-994.54C1621.48,-982.31 1502.3,-966.2 1418.41,-954.85"/>
<polygon fill="black" stroke="black" points="1418.95,-951.39 1408.58,-953.52 1418.02,-958.33 1418.95,-951.39"/>
</g>
<!-- j90009342 -->
<g id="node10" class="node">
<title>j90009342</title>
<polygon fill="none" stroke="red" points="791,-871 301,-871 301,-835 791,-835 791,-871"/>
<text text-anchor="middle" x="546" y="-849.3" font-family="Times New Roman,serif" font-size="14.00">แต่เคยทำแบบนั้นกับ Quincy ไปแล้วนี่</text>
</g>
<!-- j3804610820&#45;&gt;j90009342 -->
<g id="edge10" class="edge">
<title>j3804610820&#45;&gt;j90009342</title>
<path fill="none" stroke="green" d="M1216.13,-927.97C1089.39,-913.98 868.87,-889.64 715.56,-872.72"/>
<polygon fill="green" stroke="green" points="716.01,-869.25 705.68,-871.63 715.24,-876.2 716.01,-869.25"/>
<text text-anchor="middle" x="989" y="-892.8" font-family="Times New Roman,serif" font-size="14.00">true</text>
</g>
<!-- j3610748375 -->
<g id="node11" class="node">
<title>j3610748375</title>
<polygon fill="none" stroke="red" points="1240,-871 822,-871 822,-835 1240,-835 1240,-871"/>
<text text-anchor="middle" x="1031" y="-849.3" font-family="Times New Roman,serif" font-size="14.00">ฮ่าๆๆๆๆๆ โอเค ร่วมด้วยก็ได้</text>
</g>
<!-- j3804610820&#45;&gt;j3610748375 -->
<g id="edge11" class="edge">
<title>j3804610820&#45;&gt;j3610748375</title>
<path fill="none" stroke="green" d="M1243.86,-924.63C1218.14,-918.95 1189.08,-911.88 1163,-904 1136.35,-895.95 1107.36,-885.19 1083.35,-875.73"/>
<polygon fill="green" stroke="green" points="1084.69,-872.49 1074.11,-872.04 1082.1,-878.99 1084.69,-872.49"/>
<text text-anchor="middle" x="1174" y="-892.8" font-family="Times New Roman,serif" font-size="14.00">true</text>
</g>
<!-- j3804610820&#45;&gt;j3610748375 -->
<g id="edge14" class="edge">
<title>j3804610820&#45;&gt;j3610748375</title>
<path fill="none" stroke="brown" d="M1276.95,-922.43C1251.16,-911.91 1216.45,-898.52 1185,-889 1167.01,-883.55 1147.62,-878.51 1128.86,-874.05"/>
<polygon fill="brown" stroke="brown" points="1129.91,-870.71 1119.37,-871.84 1128.32,-877.52 1129.91,-870.71"/>
<text text-anchor="middle" x="1242" y="-892.8" font-family="Times New Roman,serif" font-size="14.00">false</text>
</g>
<!-- j1804078848 -->
<g id="node12" class="node">
<title>j1804078848</title>
<polygon fill="none" stroke="red" points="1380,-871 1258,-871 1258,-835 1380,-835 1380,-871"/>
<text text-anchor="middle" x="1319" y="-849.3" font-family="Times New Roman,serif" font-size="14.00">โอ๊ะโอ...</text>
</g>
<!-- j3804610820&#45;&gt;j1804078848 -->
<g id="edge12" class="edge">
<title>j3804610820&#45;&gt;j1804078848</title>
<path fill="none" stroke="green" d="M1301.62,-921.76C1295.46,-912.28 1290.41,-900.2 1294,-889 1294.88,-886.26 1296.06,-883.56 1297.43,-880.93"/>
<polygon fill="green" stroke="green" points="1300.28,-882.97 1302.62,-872.63 1294.35,-879.26 1300.28,-882.97"/>
<text text-anchor="middle" x="1305" y="-892.8" font-family="Times New Roman,serif" font-size="14.00">true</text>
</g>
<!-- j3804610820&#45;&gt;j1804078848 -->
<g id="edge15" class="edge">
<title>j3804610820&#45;&gt;j1804078848</title>
<path fill="none" stroke="brown" d="M1316.61,-921.8C1317,-910.58 1317.53,-895.67 1317.99,-882.69"/>
<polygon fill="brown" stroke="brown" points="1321.48,-883.1 1318.33,-872.98 1314.48,-882.85 1321.48,-883.1"/>
<text text-anchor="middle" x="1330" y="-892.8" font-family="Times New Roman,serif" font-size="14.00">false</text>
</g>
<!-- j103773857 -->
<g id="node13" class="node">
<title>j103773857</title>
<polygon fill="none" stroke="red" points="1670,-871 1398,-871 1398,-835 1670,-835 1670,-871"/>
<text text-anchor="middle" x="1534" y="-849.3" font-family="Times New Roman,serif" font-size="14.00">ไม่ดีกว่า ขอตัวนะ</text>
</g>
<!-- j3804610820&#45;&gt;j103773857 -->
<g id="edge13" class="edge">
<title>j3804610820&#45;&gt;j103773857</title>
<path fill="none" stroke="green" d="M1358.29,-922.51C1392.55,-909.15 1441.1,-890.22 1478.48,-875.65"/>
<polygon fill="green" stroke="green" points="1479.75,-878.91 1487.79,-872.02 1477.2,-872.39 1479.75,-878.91"/>
<text text-anchor="middle" x="1449" y="-892.8" font-family="Times New Roman,serif" font-size="14.00">true</text>
</g>
<!-- j3804610820&#45;&gt;j103773857 -->
<g id="edge16" class="edge">
<title>j3804610820&#45;&gt;j103773857</title>
<path fill="none" stroke="brown" d="M1397.76,-925.62C1419.84,-920.42 1443.32,-913.39 1464,-904 1478.63,-897.36 1493.32,-887.47 1505.45,-878.23"/>
<polygon fill="brown" stroke="brown" points="1507.29,-881.24 1512.98,-872.3 1502.96,-875.74 1507.29,-881.24"/>
<text text-anchor="middle" x="1501" y="-892.8" font-family="Times New Roman,serif" font-size="14.00">false</text>
</g>
<!-- j945423312 -->
<g id="node14" class="node">
<title>j945423312</title>
<polygon fill="none" stroke="blue" points="1016,-636 0,-636 0,-600 1016,-600 1016,-636"/>
<text text-anchor="middle" x="508" y="-614.3" font-family="Times New Roman,serif" font-size="14.00">ไม่ มันต่างกัน อันนั้นแค่แฮ็กพาสเวิร์ดก็เข้าถึงบัญชีของเขาได้แล้ว</text>
</g>
<!-- j90009342&#45;&gt;j945423312 -->
<g id="edge17" class="edge">
<title>j90009342&#45;&gt;j945423312</title>
<path fill="none" stroke="black" d="M543.21,-834.87C536.74,-795.24 520.71,-696.91 512.7,-647.83"/>
<polygon fill="black" stroke="black" points="516.16,-647.27 511.09,-637.97 509.25,-648.4 516.16,-647.27"/>
</g>
<!-- j3095246381 -->
<g id="node15" class="node">
<title>j3095246381</title>
<polygon fill="none" stroke="blue" points="1126,-744 936,-744 936,-708 1126,-708 1126,-744"/>
<text text-anchor="middle" x="1031" y="-722.3" font-family="Times New Roman,serif" font-size="14.00">ดีมากกกกกกก</text>
</g>
<!-- j3610748375&#45;&gt;j3095246381 -->
<g id="edge18" class="edge">
<title>j3610748375&#45;&gt;j3095246381</title>
<path fill="none" stroke="black" d="M1031,-834.62C1031,-814.19 1031,-779.99 1031,-755.62"/>
<polygon fill="black" stroke="black" points="1034.5,-755.75 1031,-745.75 1027.5,-755.75 1034.5,-755.75"/>
</g>
<!-- j2836294771 -->
<g id="node16" class="node">
<title>j2836294771</title>
<polygon fill="none" stroke="blue" points="1476.5,-744 1141.5,-744 1141.5,-708 1476.5,-708 1476.5,-744"/>
<text text-anchor="middle" x="1309" y="-722.3" font-family="Times New Roman,serif" font-size="14.00">ไม่เป็นไรหรอก เชื่อดิ</text>
</g>
<!-- j1804078848&#45;&gt;j2836294771 -->
<g id="edge19" class="edge">
<title>j1804078848&#45;&gt;j2836294771</title>
<path fill="none" stroke="black" d="M1317.61,-834.62C1315.98,-814.19 1313.24,-779.99 1311.29,-755.62"/>
<polygon fill="black" stroke="black" points="1314.79,-755.43 1310.5,-745.74 1307.81,-755.99 1314.79,-755.43"/>
</g>
<!-- j2838304014 -->
<g id="node17" class="node">
<title>j2838304014</title>
<polygon fill="none" stroke="blue" points="2183.5,-798 1434.5,-798 1434.5,-762 2183.5,-762 2183.5,-798"/>
<text text-anchor="middle" x="1809" y="-776.3" font-family="Times New Roman,serif" font-size="14.00">โอ้ย ไม่เอาน่าาาาาาา อย่าทำตัวเป็นคนดีขนาดนั้นสิ</text>
</g>
<!-- j103773857&#45;&gt;j2838304014 -->
<g id="edge20" class="edge">
<title>j103773857&#45;&gt;j2838304014</title>
<path fill="none" stroke="black" d="M1601.62,-834.54C1640.67,-824.46 1689.94,-811.74 1730.67,-801.22"/>
<polygon fill="black" stroke="black" points="1731.36,-804.66 1740.17,-798.77 1729.61,-797.88 1731.36,-804.66"/>
</g>
<!-- j2931102688 -->
<g id="node18" class="node">
<title>j2931102688</title>
<polygon fill="none" stroke="blue" points="1875.5,-509 262.5,-509 262.5,-473 1875.5,-473 1875.5,-509"/>
<text text-anchor="middle" x="1069" y="-487.3" font-family="Times New Roman,serif" font-size="14.00">คือข้าคิดออกแล้วว่าจะโจมตีแบบ man&#45;in&#45;the&#45;middle ยังไงเพื่อส่งข้อมูลจากเราไปยัง K.O.L. และยุ่งกับคำขอของคนอื่น ๆ ได้ยังไง</text>
</g>
<!-- j945423312&#45;&gt;j2931102688 -->
<g id="edge21" class="edge">
<title>j945423312&#45;&gt;j2931102688</title>
<path fill="none" stroke="black" d="M586.3,-599.55C689.71,-576.51 871.39,-536.03 979.93,-511.85"/>
<polygon fill="black" stroke="black" points="980.37,-515.33 989.37,-509.74 978.85,-508.5 980.37,-515.33"/>
</g>
<!-- j3095246381&#45;&gt;j2931102688 -->
<g id="edge22" class="edge">
<title>j3095246381&#45;&gt;j2931102688</title>
<path fill="none" stroke="black" d="M1031.6,-707.51C1033.12,-672.64 1038.3,-592.25 1055,-527 1055.6,-524.67 1056.31,-522.29 1057.09,-519.92"/>
<polygon fill="black" stroke="black" points="1060.37,-521.16 1060.58,-510.57 1053.81,-518.71 1060.37,-521.16"/>
</g>
<!-- j2836294771&#45;&gt;j2931102688 -->
<g id="edge23" class="edge">
<title>j2836294771&#45;&gt;j2931102688</title>
<path fill="none" stroke="black" d="M1155.37,-707.52C1121.48,-702.24 1093.82,-696.19 1088,-690 1044.86,-644.13 1053.54,-563.14 1062.1,-520.34"/>
<polygon fill="black" stroke="black" points="1065.47,-521.34 1064.15,-510.82 1058.62,-519.86 1065.47,-521.34"/>
</g>
<!-- j1779283052 -->
<g id="node19" class="node">
<title>j1779283052</title>
<polygon fill="none" stroke="blue" points="2716.5,-690 1097.5,-690 1097.5,-654 2716.5,-654 2716.5,-690"/>
<text text-anchor="middle" x="1907" y="-668.3" font-family="Times New Roman,serif" font-size="14.00">มันไม่มีอะไรแย่กว่านี้หรอก ไม่ใช่ว่าพวกมันจะส่ง scaldra มาหาเราเพิ่มนี่ เพราะยังไงมันก็ส่งมาอยู่แล้ว ฮ่าฮ่าฮ่า</text>
</g>
<!-- j2838304014&#45;&gt;j1779283052 -->
<g id="edge24" class="edge">
<title>j2838304014&#45;&gt;j1779283052</title>
<path fill="none" stroke="black" d="M1824.75,-761.97C1840.58,-744.84 1865.19,-718.22 1883.37,-698.56"/>
<polygon fill="black" stroke="black" points="1885.72,-701.17 1889.94,-691.45 1880.58,-696.42 1885.72,-701.17"/>
</g>
<!-- j4244636687 -->
<g id="node20" class="node">
<title>j4244636687</title>
<polygon fill="none" stroke="blue" points="1984,-401 992,-401 992,-365 1984,-365 1984,-401"/>
<text text-anchor="middle" x="1488" y="-379.3" font-family="Times New Roman,serif" font-size="14.00">แต่อยากจะทดสอบมันนิด ๆ หน่อย ๆ ก่อนที่จะไปทำอะไรที่น่าสนใจกว่านี้</text>
</g>
<!-- j2931102688&#45;&gt;j4244636687 -->
<g id="edge25" class="edge">
<title>j2931102688&#45;&gt;j4244636687</title>
<path fill="none" stroke="black" d="M1137.72,-472.61C1211.89,-453.85 1329.88,-424 1408.13,-404.21"/>
<polygon fill="black" stroke="black" points="1408.59,-407.7 1417.43,-401.85 1406.87,-400.91 1408.59,-407.7"/>
</g>
<!-- j4074709904 -->
<g id="node21" class="node">
<title>j4074709904</title>
<polygon fill="none" stroke="red" points="1275,-582 1097,-582 1097,-546 1275,-546 1275,-582"/>
<text text-anchor="middle" x="1186" y="-560.3" font-family="Times New Roman,serif" font-size="14.00">ก็ได้ ก็ได้</text>
</g>
<!-- j1779283052&#45;&gt;j4074709904 -->
<g id="edge26" class="edge">
<title>j1779283052&#45;&gt;j4074709904</title>
<path fill="none" stroke="black" d="M1776.47,-653.51C1652.95,-636.69 1462.05,-610 1286.7,-582.41"/>
<polygon fill="black" stroke="black" points="1287.36,-578.97 1276.94,-580.86 1286.27,-585.88 1287.36,-578.97"/>
</g>
<!-- j3901622321 -->
<g id="node22" class="node">
<title>j3901622321</title>
<polygon fill="none" stroke="red" points="2781,-582 1293,-582 1293,-546 2781,-546 2781,-582"/>
<text text-anchor="middle" x="2037" y="-560.3" font-family="Times New Roman,serif" font-size="14.00">อย่าไปยุ่งกับบริษัทสื่อยักษ์ใหญ่เลย พวกเขามีบางอย่างที่แย่กว่า scaldra อีกนะ สิ่งที่เรียกว่า... ทนายความ</text>
</g>
<!-- j1779283052&#45;&gt;j3901622321 -->
<g id="edge27" class="edge">
<title>j1779283052&#45;&gt;j3901622321</title>
<path fill="none" stroke="black" d="M1928.18,-653.73C1949.61,-636.25 1982.95,-609.07 2007.08,-589.4"/>
<polygon fill="black" stroke="black" points="2009.12,-592.25 2014.66,-583.22 2004.7,-586.82 2009.12,-592.25"/>
</g>
<!-- j2216912421 -->
<g id="node23" class="node">
<title>j2216912421</title>
<polygon fill="none" stroke="blue" points="2669,-328 899,-328 899,-292 2669,-292 2669,-328"/>
<text text-anchor="middle" x="1784" y="-306.3" font-family="Times New Roman,serif" font-size="14.00">เพราะงั้นคุยกับ Arthur พรุ่งนี้นะแล้วดูว่าชื่อผู้ใช้ของเขาจะเปลี่ยนไปหรือเปล่า ระบบจะใช้เวลาประมาณ 24 ชั่วโมงในการอัปเดต</text>
</g>
<!-- j4244636687&#45;&gt;j2216912421 -->
<g id="edge28" class="edge">
<title>j4244636687&#45;&gt;j2216912421</title>
<path fill="none" stroke="black" d="M1560.79,-364.54C1603,-354.42 1656.33,-341.62 1700.28,-331.08"/>
<polygon fill="black" stroke="black" points="1700.86,-334.54 1709.76,-328.81 1699.22,-327.74 1700.86,-334.54"/>
</g>
<!-- j4074709904&#45;&gt;j2931102688 -->
<g id="edge29" class="edge">
<title>j4074709904&#45;&gt;j2931102688</title>
<path fill="none" stroke="black" d="M1157.38,-545.63C1142.36,-536.52 1123.76,-525.23 1107.5,-515.36"/>
<polygon fill="black" stroke="black" points="1109.39,-512.42 1099.03,-510.22 1105.76,-518.4 1109.39,-512.42"/>
</g>
<!-- j3277082834 -->
<g id="node24" class="node">
<title>j3277082834</title>
<polygon fill="none" stroke="blue" points="2628,-455 2438,-455 2438,-419 2628,-419 2628,-455"/>
<text text-anchor="middle" x="2533" y="-433.3" font-family="Times New Roman,serif" font-size="14.00">น่าเบื่อว่ะ</text>
</g>
<!-- j3901622321&#45;&gt;j3277082834 -->
<g id="edge30" class="edge">
<title>j3901622321&#45;&gt;j3277082834</title>
<path fill="none" stroke="black" d="M2106.23,-545.55C2197.2,-522.63 2356.66,-482.44 2452.79,-458.21"/>
<polygon fill="black" stroke="black" points="2453.59,-461.62 2462.43,-455.78 2451.88,-454.83 2453.59,-461.62"/>
</g>
<!-- j295707631 -->
<g id="node25" class="node">
<title>j295707631</title>
<ellipse fill="none" stroke="orange" cx="2089" cy="-237" rx="64.19" ry="18"/>
<text text-anchor="middle" x="2089" y="-233.3" font-family="Times New Roman,serif" font-size="14.00">+20 Chemistry</text>
</g>
<!-- j2216912421&#45;&gt;j295707631 -->
<g id="edge31" class="edge">
<title>j2216912421&#45;&gt;j295707631</title>
<path fill="none" stroke="black" d="M1859,-291.54C1911.69,-279.27 1981.19,-263.1 2029.95,-251.75"/>
<polygon fill="black" stroke="black" points="2030.53,-255.2 2039.48,-249.53 2028.94,-248.39 2030.53,-255.2"/>
</g>
<!-- j3277082834&#45;&gt;Chat ends. -->
<g id="edge32" class="edge">
<title>j3277082834&#45;&gt;Chat ends.</title>
<path fill="none" stroke="black" d="M2628.29,-431.78C2685,-423.53 2746,-401.91 2746,-347 2746,-347 2746,-347 2746,-90 2746,-75.39 2749.8,-59.65 2754,-46.71"/>
<polygon fill="black" stroke="black" points="2757.19,-48.19 2757.21,-37.59 2750.59,-45.87 2757.19,-48.19"/>
</g>
<!-- j2067895935 -->
<g id="node26" class="node">
<title>j2067895935</title>
<polygon fill="none" stroke="blue" points="2689.5,-182 1830.5,-182 1830.5,-146 2689.5,-146 2689.5,-182"/>
<text text-anchor="middle" x="2260" y="-160.3" font-family="Times New Roman,serif" font-size="14.00">แล้วก็รีบรายงานกลับมาเลยนะ สายลับที่รัก ฮ่าฮ่าฮ่าฮ่าฮ่า</text>
</g>
<!-- j295707631&#45;&gt;j2067895935 -->
<g id="edge33" class="edge">
<title>j295707631&#45;&gt;j2067895935</title>
<path fill="none" stroke="black" d="M2124.02,-221.46C2148.08,-211.47 2180.46,-198.02 2207.59,-186.76"/>
<polygon fill="black" stroke="black" points="2208.79,-190.05 2216.69,-182.98 2206.11,-183.59 2208.79,-190.05"/>
</g>
<!-- Initiate conversation ArthurAmirHack in ArthurDialogue_rom.dialogue -->
<g id="node27" class="node">
<title>Initiate conversation ArthurAmirHack in ArthurDialogue_rom.dialogue</title>
<ellipse fill="none" stroke="orange" cx="2412" cy="-91" rx="264.55" ry="18"/>
<text text-anchor="middle" x="2412" y="-87.3" font-family="Times New Roman,serif" font-size="14.00">Initiate conversation ArthurAmirHack in ArthurDialogue_rom.dialogue</text>
</g>
<!-- j2067895935&#45;&gt;Initiate conversation ArthurAmirHack in ArthurDialogue_rom.dialogue -->
<g id="edge34" class="edge">
<title>j2067895935&#45;&gt;Initiate conversation ArthurAmirHack in ArthurDialogue_rom.dialogue</title>
<path fill="none" stroke="black" d="M2297.18,-145.63C2317.5,-136.14 2342.88,-124.29 2364.6,-114.14"/>
<polygon fill="black" stroke="black" points="2365.99,-117.36 2373.57,-109.95 2363.02,-111.01 2365.99,-117.36"/>
</g>
<!-- Initiate conversation ArthurAmirHack in ArthurDialogue_rom.dialogue&#45;&gt;Chat ends. -->
<g id="edge35" class="edge">
<title>Initiate conversation ArthurAmirHack in ArthurDialogue_rom.dialogue&#45;&gt;Chat ends.</title>
<path fill="none" stroke="black" d="M2494.32,-73.44C2561.17,-60 2653.5,-41.43 2711.21,-29.82"/>
<polygon fill="black" stroke="black" points="2711.67,-33.3 2720.78,-27.89 2710.29,-26.43 2711.67,-33.3"/>
</g>
</g>
</svg>
