<?xml version="1.0" encoding="UTF-8" standalone="no"?>
<!DOCTYPE svg PUBLIC "-//W3C//DTD SVG 1.1//EN"
 "http://www.w3.org/Graphics/SVG/1.1/DTD/svg11.dtd">
<!-- Generated by graphviz version 7.1.0 (20230121.1956)
 -->
<!-- Pages: 1 -->
<svg width="1188pt" height="332pt"
 viewBox="0.00 0.00 1187.50 332.00" xmlns="http://www.w3.org/2000/svg" xmlns:xlink="http://www.w3.org/1999/xlink">
<g id="graph0" class="graph" transform="scale(1 1) rotate(0) translate(4 328)">
<polygon fill="white" stroke="none" points="-4,4 -4,-328 1183.5,-328 1183.5,4 -4,4"/>
<!-- EleanorBirthdayConvo2 begins. -->
<g id="node1" class="node">
<title>EleanorBirthdayConvo2 begins.</title>
<ellipse fill="none" stroke="orange" cx="738" cy="-306" rx="126.18" ry="18"/>
<text text-anchor="middle" x="738" y="-302.3" font-family="Times New Roman,serif" font-size="14.00">EleanorBirthdayConvo2 begins.</text>
</g>
<!-- j1440985183 -->
<g id="node2" class="node">
<title>j1440985183</title>
<polygon fill="none" stroke="red" points="726,-252 316,-252 316,-216 726,-216 726,-252"/>
<text text-anchor="middle" x="521" y="-230.3" font-family="Times New Roman,serif" font-size="14.00">Поздравляю с тем, что ты дожила до очередного дня рождения!</text>
</g>
<!-- EleanorBirthdayConvo2 begins.&#45;&gt;j1440985183 -->
<g id="edge1" class="edge">
<title>EleanorBirthdayConvo2 begins.&#45;&gt;j1440985183</title>
<path fill="none" stroke="black" d="M688.49,-289.03C658.14,-279.24 618.96,-266.6 586.12,-256.01"/>
<polygon fill="black" stroke="black" points="587.28,-252.7 576.69,-252.96 585.13,-259.36 587.28,-252.7"/>
</g>
<!-- j387336182 -->
<g id="node3" class="node">
<title>j387336182</title>
<polygon fill="none" stroke="red" points="1179.5,-252 758.5,-252 758.5,-216 1179.5,-216 1179.5,-252"/>
<text text-anchor="middle" x="969" y="-230.3" font-family="Times New Roman,serif" font-size="14.00">С днём рождения, Элеонора. Мне радостно, что ты все ещё здесь.</text>
</g>
<!-- EleanorBirthdayConvo2 begins.&#45;&gt;j387336182 -->
<g id="edge2" class="edge">
<title>EleanorBirthdayConvo2 begins.&#45;&gt;j387336182</title>
<path fill="none" stroke="black" d="M790.13,-289.2C822.81,-279.3 865.29,-266.43 900.66,-255.71"/>
<polygon fill="black" stroke="black" points="901.38,-259.15 909.94,-252.9 899.35,-252.45 901.38,-259.15"/>
</g>
<!-- j1804494918 -->
<g id="node4" class="node">
<title>j1804494918</title>
<polygon fill="none" stroke="blue" points="872,-108 0,-108 0,-72 872,-72 872,-108"/>
<text text-anchor="middle" x="436" y="-86.3" font-family="Times New Roman,serif" font-size="14.00">Сначала надо было проверить. Но, к счастью для тебя, я действительно жива. Потому что это могло бы быть чертовски неловко, не так ли?</text>
</g>
<!-- j1440985183&#45;&gt;j1804494918 -->
<g id="edge3" class="edge">
<title>j1440985183&#45;&gt;j1804494918</title>
<path fill="none" stroke="black" d="M510.58,-215.59C495.97,-191.18 469.27,-146.58 452.1,-117.89"/>
<polygon fill="black" stroke="black" points="455.16,-116.19 447.02,-109.41 449.15,-119.79 455.16,-116.19"/>
</g>
<!-- j524294447 -->
<g id="node5" class="node">
<title>j524294447</title>
<ellipse fill="none" stroke="orange" cx="976" cy="-162" rx="64.19" ry="18"/>
<text text-anchor="middle" x="976" y="-158.3" font-family="Times New Roman,serif" font-size="14.00">+20 Chemistry</text>
</g>
<!-- j387336182&#45;&gt;j524294447 -->
<g id="edge4" class="edge">
<title>j387336182&#45;&gt;j524294447</title>
<path fill="none" stroke="black" d="M970.73,-215.7C971.46,-208.41 972.33,-199.73 973.15,-191.54"/>
<polygon fill="black" stroke="black" points="976.63,-191.91 974.14,-181.61 969.66,-191.21 976.63,-191.91"/>
</g>
<!-- Chat ends. -->
<g id="node6" class="node">
<title>Chat ends.</title>
<ellipse fill="none" stroke="orange" cx="710" cy="-18" rx="50.09" ry="18"/>
<text text-anchor="middle" x="710" y="-14.3" font-family="Times New Roman,serif" font-size="14.00">Chat ends.</text>
</g>
<!-- j1804494918&#45;&gt;Chat ends. -->
<g id="edge5" class="edge">
<title>j1804494918&#45;&gt;Chat ends.</title>
<path fill="none" stroke="black" d="M504.43,-71.52C552.41,-59.26 615.5,-43.14 659.06,-32.01"/>
<polygon fill="black" stroke="black" points="659.69,-35.47 668.51,-29.6 657.95,-28.68 659.69,-35.47"/>
</g>
<!-- j3299810673 -->
<g id="node7" class="node">
<title>j3299810673</title>
<polygon fill="none" stroke="blue" points="1077.5,-108 890.5,-108 890.5,-72 1077.5,-72 1077.5,-108"/>
<text text-anchor="middle" x="984" y="-86.3" font-family="Times New Roman,serif" font-size="14.00">Спасибо, Скиталец. Я тоже.</text>
</g>
<!-- j524294447&#45;&gt;j3299810673 -->
<g id="edge6" class="edge">
<title>j524294447&#45;&gt;j3299810673</title>
<path fill="none" stroke="black" d="M977.98,-143.7C978.81,-136.41 979.8,-127.73 980.74,-119.54"/>
<polygon fill="black" stroke="black" points="984.22,-119.94 981.87,-109.61 977.26,-119.15 984.22,-119.94"/>
</g>
<!-- j3299810673&#45;&gt;Chat ends. -->
<g id="edge7" class="edge">
<title>j3299810673&#45;&gt;Chat ends.</title>
<path fill="none" stroke="black" d="M915.57,-71.52C867.59,-59.26 804.5,-43.14 760.94,-32.01"/>
<polygon fill="black" stroke="black" points="762.05,-28.68 751.49,-29.6 760.31,-35.47 762.05,-28.68"/>
</g>
</g>
</svg>
