<?xml version="1.0" encoding="UTF-8" standalone="no"?>
<!DOCTYPE svg PUBLIC "-//W3C//DTD SVG 1.1//EN"
 "http://www.w3.org/Graphics/SVG/1.1/DTD/svg11.dtd">
<!-- Generated by graphviz version 7.1.0 (20230121.1956)
 -->
<!-- Pages: 1 -->
<svg width="944pt" height="1967pt"
 viewBox="0.00 0.00 944.00 1967.00" xmlns="http://www.w3.org/2000/svg" xmlns:xlink="http://www.w3.org/1999/xlink">
<g id="graph0" class="graph" transform="scale(1 1) rotate(0) translate(4 1963)">
<polygon fill="white" stroke="none" points="-4,4 -4,-1963 940,-1963 940,4 -4,4"/>
<!-- ArthurRank4Convo1 begins. -->
<g id="node1" class="node">
<title>ArthurRank4Convo1 begins.</title>
<ellipse fill="none" stroke="orange" cx="430" cy="-1941" rx="115.08" ry="18"/>
<text text-anchor="middle" x="430" y="-1937.3" font-family="Times New Roman,serif" font-size="14.00">ArthurRank4Convo1 begins.</text>
</g>
<!-- j3524906377 -->
<g id="node2" class="node">
<title>j3524906377</title>
<polygon fill="none" stroke="blue" points="473,-1886 387,-1886 387,-1850 473,-1850 473,-1886"/>
<text text-anchor="middle" x="430" y="-1864.3" font-family="Times New Roman,serif" font-size="14.00">Hey, Drifter.</text>
</g>
<!-- ArthurRank4Convo1 begins.&#45;&gt;j3524906377 -->
<g id="edge1" class="edge">
<title>ArthurRank4Convo1 begins.&#45;&gt;j3524906377</title>
<path fill="none" stroke="black" d="M430,-1922.81C430,-1915.23 430,-1906.1 430,-1897.54"/>
<polygon fill="black" stroke="black" points="433.5,-1897.54 430,-1887.54 426.5,-1897.54 433.5,-1897.54"/>
</g>
<!-- j572398634 -->
<g id="node3" class="node">
<title>j572398634</title>
<polygon fill="none" stroke="blue" points="611,-1813 249,-1813 249,-1777 611,-1777 611,-1813"/>
<text text-anchor="middle" x="430" y="-1791.3" font-family="Times New Roman,serif" font-size="14.00">What do you do for hobbies out there in space? In the future?</text>
</g>
<!-- j3524906377&#45;&gt;j572398634 -->
<g id="edge2" class="edge">
<title>j3524906377&#45;&gt;j572398634</title>
<path fill="none" stroke="black" d="M430,-1849.81C430,-1842.23 430,-1833.1 430,-1824.54"/>
<polygon fill="black" stroke="black" points="433.5,-1824.54 430,-1814.54 426.5,-1824.54 433.5,-1824.54"/>
</g>
<!-- j3293909235 -->
<g id="node4" class="node">
<title>j3293909235</title>
<polygon fill="none" stroke="red" points="432.5,-1740 275.5,-1740 275.5,-1704 432.5,-1704 432.5,-1740"/>
<text text-anchor="middle" x="354" y="-1718.3" font-family="Times New Roman,serif" font-size="14.00">What do you do for fun?</text>
</g>
<!-- j572398634&#45;&gt;j3293909235 -->
<g id="edge3" class="edge">
<title>j572398634&#45;&gt;j3293909235</title>
<path fill="none" stroke="black" d="M411.6,-1776.81C402.34,-1768.16 390.93,-1757.5 380.72,-1747.96"/>
<polygon fill="black" stroke="black" points="383.29,-1745.58 373.6,-1741.31 378.52,-1750.69 383.29,-1745.58"/>
</g>
<!-- j354280885 -->
<g id="node5" class="node">
<title>j354280885</title>
<polygon fill="none" stroke="red" points="565.5,-1740 450.5,-1740 450.5,-1704 565.5,-1704 565.5,-1740"/>
<text text-anchor="middle" x="508" y="-1718.3" font-family="Times New Roman,serif" font-size="14.00">Me? Specifically?</text>
</g>
<!-- j572398634&#45;&gt;j354280885 -->
<g id="edge4" class="edge">
<title>j572398634&#45;&gt;j354280885</title>
<path fill="none" stroke="black" d="M448.88,-1776.81C458.39,-1768.16 470.1,-1757.5 480.58,-1747.96"/>
<polygon fill="black" stroke="black" points="482.86,-1750.61 487.9,-1741.29 478.15,-1745.44 482.86,-1750.61"/>
</g>
<!-- j3348529697 -->
<g id="node6" class="node">
<title>j3348529697</title>
<polygon fill="none" stroke="blue" points="420.5,-1667 289.5,-1667 289.5,-1631 420.5,-1631 420.5,-1667"/>
<text text-anchor="middle" x="355" y="-1645.3" font-family="Times New Roman,serif" font-size="14.00">I&#39;m asking you, first.</text>
</g>
<!-- j3293909235&#45;&gt;j3348529697 -->
<g id="edge5" class="edge">
<title>j3293909235&#45;&gt;j3348529697</title>
<path fill="none" stroke="black" d="M354.24,-1703.81C354.35,-1696.23 354.48,-1687.1 354.6,-1678.54"/>
<polygon fill="black" stroke="black" points="358.1,-1678.59 354.74,-1668.54 351.1,-1678.49 358.1,-1678.59"/>
</g>
<!-- j1783351722 -->
<g id="node7" class="node">
<title>j1783351722</title>
<polygon fill="none" stroke="blue" points="575.5,-1667 438.5,-1667 438.5,-1631 575.5,-1631 575.5,-1667"/>
<text text-anchor="middle" x="507" y="-1645.3" font-family="Times New Roman,serif" font-size="14.00">Yes you, specifically.</text>
</g>
<!-- j354280885&#45;&gt;j1783351722 -->
<g id="edge6" class="edge">
<title>j354280885&#45;&gt;j1783351722</title>
<path fill="none" stroke="black" d="M507.76,-1703.81C507.65,-1696.23 507.52,-1687.1 507.4,-1678.54"/>
<polygon fill="black" stroke="black" points="510.9,-1678.49 507.26,-1668.54 503.9,-1678.59 510.9,-1678.49"/>
</g>
<!-- j3261374099 -->
<g id="node8" class="node">
<title>j3261374099</title>
<polygon fill="none" stroke="red" points="512,-1594 402,-1594 402,-1558 512,-1558 512,-1594"/>
<text text-anchor="middle" x="457" y="-1572.3" font-family="Times New Roman,serif" font-size="14.00">I...um...not a lot.</text>
</g>
<!-- j3348529697&#45;&gt;j3261374099 -->
<g id="edge7" class="edge">
<title>j3348529697&#45;&gt;j3261374099</title>
<path fill="none" stroke="black" d="M379.95,-1630.63C392.79,-1621.69 408.65,-1610.66 422.63,-1600.92"/>
<polygon fill="black" stroke="black" points="424.5,-1603.89 430.71,-1595.3 420.5,-1598.14 424.5,-1603.89"/>
</g>
<!-- j3221377555 -->
<g id="node9" class="node">
<title>j3221377555</title>
<polygon fill="none" stroke="red" points="584,-1594 530,-1594 530,-1558 584,-1558 584,-1594"/>
<text text-anchor="middle" x="557" y="-1572.3" font-family="Times New Roman,serif" font-size="14.00">Why?</text>
</g>
<!-- j3348529697&#45;&gt;j3221377555 -->
<g id="edge8" class="edge">
<title>j3348529697&#45;&gt;j3221377555</title>
<path fill="none" stroke="black" d="M414.81,-1630.55C444.06,-1621.56 479.9,-1609.86 519.06,-1594.55"/>
<polygon fill="black" stroke="black" points="520.23,-1597.85 528.23,-1590.92 517.65,-1591.35 520.23,-1597.85"/>
</g>
<!-- j4172962412 -->
<g id="node10" class="node">
<title>j4172962412</title>
<polygon fill="none" stroke="red" points="383.5,-1594 132.5,-1594 132.5,-1558 383.5,-1558 383.5,-1594"/>
<text text-anchor="middle" x="258" y="-1572.3" font-family="Times New Roman,serif" font-size="14.00">Oops! There&#39;s a bee in here! BRB! [End.]</text>
</g>
<!-- j3348529697&#45;&gt;j4172962412 -->
<g id="edge9" class="edge">
<title>j3348529697&#45;&gt;j4172962412</title>
<path fill="none" stroke="black" d="M331.52,-1630.81C319.22,-1621.81 303.96,-1610.64 290.54,-1600.82"/>
<polygon fill="black" stroke="black" points="292.96,-1598.25 282.82,-1595.17 288.82,-1603.9 292.96,-1598.25"/>
</g>
<!-- j1783351722&#45;&gt;j3261374099 -->
<g id="edge10" class="edge">
<title>j1783351722&#45;&gt;j3261374099</title>
<path fill="none" stroke="black" d="M494.9,-1630.81C489.06,-1622.53 481.94,-1612.41 475.45,-1603.19"/>
<polygon fill="black" stroke="black" points="478.48,-1601.43 469.86,-1595.27 472.76,-1605.46 478.48,-1601.43"/>
</g>
<!-- j1783351722&#45;&gt;j3221377555 -->
<g id="edge11" class="edge">
<title>j1783351722&#45;&gt;j3221377555</title>
<path fill="none" stroke="black" d="M519.1,-1630.81C524.94,-1622.53 532.06,-1612.41 538.55,-1603.19"/>
<polygon fill="black" stroke="black" points="541.24,-1605.46 544.14,-1595.27 535.52,-1601.43 541.24,-1605.46"/>
</g>
<!-- j1783351722&#45;&gt;j4172962412 -->
<g id="edge12" class="edge">
<title>j1783351722&#45;&gt;j4172962412</title>
<path fill="none" stroke="black" d="M445.77,-1630.54C410.64,-1620.53 366.37,-1607.9 329.64,-1597.43"/>
<polygon fill="black" stroke="black" points="331.03,-1594.18 320.45,-1594.81 329.11,-1600.92 331.03,-1594.18"/>
</g>
<!-- j3887653561 -->
<g id="node11" class="node">
<title>j3887653561</title>
<ellipse fill="none" stroke="orange" cx="457" cy="-1503" rx="64.19" ry="18"/>
<text text-anchor="middle" x="457" y="-1499.3" font-family="Times New Roman,serif" font-size="14.00">+10 Chemistry</text>
</g>
<!-- j3261374099&#45;&gt;j3887653561 -->
<g id="edge13" class="edge">
<title>j3261374099&#45;&gt;j3887653561</title>
<path fill="none" stroke="black" d="M457,-1557.81C457,-1550.23 457,-1541.1 457,-1532.54"/>
<polygon fill="black" stroke="black" points="460.5,-1532.54 457,-1522.54 453.5,-1532.54 460.5,-1532.54"/>
</g>
<!-- j1836785081 -->
<g id="node12" class="node">
<title>j1836785081</title>
<ellipse fill="none" stroke="orange" cx="671" cy="-1503" rx="64.19" ry="18"/>
<text text-anchor="middle" x="671" y="-1499.3" font-family="Times New Roman,serif" font-size="14.00">+10 Chemistry</text>
</g>
<!-- j3221377555&#45;&gt;j1836785081 -->
<g id="edge14" class="edge">
<title>j3221377555&#45;&gt;j1836785081</title>
<path fill="none" stroke="black" d="M584.31,-1557.99C599.83,-1548.32 619.44,-1536.11 636.08,-1525.75"/>
<polygon fill="black" stroke="black" points="637.56,-1528.95 644.19,-1520.69 633.86,-1523.01 637.56,-1528.95"/>
</g>
<!-- Chat ends. -->
<g id="node13" class="node">
<title>Chat ends.</title>
<ellipse fill="none" stroke="orange" cx="202" cy="-18" rx="50.09" ry="18"/>
<text text-anchor="middle" x="202" y="-14.3" font-family="Times New Roman,serif" font-size="14.00">Chat ends.</text>
</g>
<!-- j4172962412&#45;&gt;Chat ends. -->
<g id="edge15" class="edge">
<title>j4172962412&#45;&gt;Chat ends.</title>
<path fill="none" stroke="black" d="M132.02,-1562.28C66.53,-1552.03 0,-1534.2 0,-1504 0,-1504 0,-1504 0,-90 0,-59.09 85.23,-38.38 144.96,-27.66"/>
<polygon fill="black" stroke="black" points="145.42,-31.13 154.67,-25.97 144.22,-24.24 145.42,-31.13"/>
</g>
<!-- j3267195348 -->
<g id="node14" class="node">
<title>j3267195348</title>
<polygon fill="none" stroke="blue" points="543.5,-1448 370.5,-1448 370.5,-1412 543.5,-1412 543.5,-1448"/>
<text text-anchor="middle" x="457" y="-1426.3" font-family="Times New Roman,serif" font-size="14.00">Everybody&#39;s got something.</text>
</g>
<!-- j3887653561&#45;&gt;j3267195348 -->
<g id="edge16" class="edge">
<title>j3887653561&#45;&gt;j3267195348</title>
<path fill="none" stroke="black" d="M457,-1484.81C457,-1477.23 457,-1468.1 457,-1459.54"/>
<polygon fill="black" stroke="black" points="460.5,-1459.54 457,-1449.54 453.5,-1459.54 460.5,-1459.54"/>
</g>
<!-- j471271364 -->
<g id="node15" class="node">
<title>j471271364</title>
<polygon fill="none" stroke="blue" points="914.5,-1448 561.5,-1448 561.5,-1412 914.5,-1412 914.5,-1448"/>
<text text-anchor="middle" x="738" y="-1426.3" font-family="Times New Roman,serif" font-size="14.00">So sue me for showing a little interest in *you* for a change.</text>
</g>
<!-- j1836785081&#45;&gt;j471271364 -->
<g id="edge17" class="edge">
<title>j1836785081&#45;&gt;j471271364</title>
<path fill="none" stroke="black" d="M686.88,-1485.17C694.88,-1476.7 704.75,-1466.23 713.68,-1456.77"/>
<polygon fill="black" stroke="black" points="716.18,-1459.22 720.5,-1449.55 711.09,-1454.42 716.18,-1459.22"/>
</g>
<!-- j1037340320 -->
<g id="node16" class="node">
<title>j1037340320</title>
<polygon fill="none" stroke="red" points="905.5,-1375 586.5,-1375 586.5,-1339 905.5,-1339 905.5,-1375"/>
<text text-anchor="middle" x="746" y="-1353.3" font-family="Times New Roman,serif" font-size="14.00">Nothing. I died a lot. Thanks for reminding me. [End.]</text>
</g>
<!-- j3267195348&#45;&gt;j1037340320 -->
<g id="edge18" class="edge">
<title>j3267195348&#45;&gt;j1037340320</title>
<path fill="none" stroke="black" d="M528.07,-1411.54C569.19,-1401.44 621.13,-1388.68 663.98,-1378.15"/>
<polygon fill="black" stroke="black" points="664.61,-1381.6 673.49,-1375.81 662.94,-1374.8 664.61,-1381.6"/>
</g>
<!-- j3730233319 -->
<g id="node17" class="node">
<title>j3730233319</title>
<polygon fill="none" stroke="red" points="568.5,-1375 345.5,-1375 345.5,-1339 568.5,-1339 568.5,-1375"/>
<text text-anchor="middle" x="457" y="-1353.3" font-family="Times New Roman,serif" font-size="14.00">Well... reading. I did a lot of reading.</text>
</g>
<!-- j3267195348&#45;&gt;j3730233319 -->
<g id="edge19" class="edge">
<title>j3267195348&#45;&gt;j3730233319</title>
<path fill="none" stroke="black" d="M457,-1411.81C457,-1404.23 457,-1395.1 457,-1386.54"/>
<polygon fill="black" stroke="black" points="460.5,-1386.54 457,-1376.54 453.5,-1386.54 460.5,-1386.54"/>
</g>
<!-- j471271364&#45;&gt;j1037340320 -->
<g id="edge20" class="edge">
<title>j471271364&#45;&gt;j1037340320</title>
<path fill="none" stroke="black" d="M739.94,-1411.81C740.8,-1404.14 741.84,-1394.89 742.82,-1386.24"/>
<polygon fill="black" stroke="black" points="746.27,-1386.86 743.91,-1376.53 739.31,-1386.08 746.27,-1386.86"/>
</g>
<!-- j471271364&#45;&gt;j3730233319 -->
<g id="edge21" class="edge">
<title>j471271364&#45;&gt;j3730233319</title>
<path fill="none" stroke="black" d="M668.9,-1411.54C628.92,-1401.44 578.44,-1388.68 536.78,-1378.16"/>
<polygon fill="black" stroke="black" points="537.85,-1374.82 527.3,-1375.76 536.14,-1381.61 537.85,-1374.82"/>
</g>
<!-- j1037340320&#45;&gt;Chat ends. -->
<g id="edge22" class="edge">
<title>j1037340320&#45;&gt;Chat ends.</title>
<path fill="none" stroke="black" d="M836.55,-1338.52C885.48,-1326.39 936,-1308.24 936,-1285 936,-1285 936,-1285 936,-90 936,-22.7 440.78,-18.06 263.88,-18.54"/>
<polygon fill="black" stroke="black" points="263.95,-15.04 253.96,-18.58 263.98,-22.04 263.95,-15.04"/>
</g>
<!-- j898359690 -->
<g id="node18" class="node">
<title>j898359690</title>
<polygon fill="none" stroke="red" points="696.5,-1302 217.5,-1302 217.5,-1266 696.5,-1266 696.5,-1302"/>
<text text-anchor="middle" x="457" y="-1280.3" font-family="Times New Roman,serif" font-size="14.00">The stories I kept in my head were the only things I was allowed to keep on Duviri.</text>
</g>
<!-- j3730233319&#45;&gt;j898359690 -->
<g id="edge23" class="edge">
<title>j3730233319&#45;&gt;j898359690</title>
<path fill="none" stroke="black" d="M457,-1338.81C457,-1331.23 457,-1322.1 457,-1313.54"/>
<polygon fill="black" stroke="black" points="460.5,-1313.54 457,-1303.54 453.5,-1313.54 460.5,-1313.54"/>
</g>
<!-- j4267927964 -->
<g id="node19" class="node">
<title>j4267927964</title>
<polygon fill="none" stroke="red" points="600.5,-1229 313.5,-1229 313.5,-1193 600.5,-1193 600.5,-1229"/>
<text text-anchor="middle" x="457" y="-1207.3" font-family="Times New Roman,serif" font-size="14.00">Everything else would disappear when it looped.</text>
</g>
<!-- j898359690&#45;&gt;j4267927964 -->
<g id="edge24" class="edge">
<title>j898359690&#45;&gt;j4267927964</title>
<path fill="none" stroke="black" d="M457,-1265.81C457,-1258.23 457,-1249.1 457,-1240.54"/>
<polygon fill="black" stroke="black" points="460.5,-1240.54 457,-1230.54 453.5,-1240.54 460.5,-1240.54"/>
</g>
<!-- j3704505019 -->
<g id="node20" class="node">
<title>j3704505019</title>
<polygon fill="none" stroke="red" points="715.5,-1156 198.5,-1156 198.5,-1120 715.5,-1120 715.5,-1156"/>
<text text-anchor="middle" x="457" y="-1134.3" font-family="Times New Roman,serif" font-size="14.00">And when I was alone on the Zariman, the people on the page were the only friends I had.</text>
</g>
<!-- j4267927964&#45;&gt;j3704505019 -->
<g id="edge25" class="edge">
<title>j4267927964&#45;&gt;j3704505019</title>
<path fill="none" stroke="black" d="M457,-1192.81C457,-1185.23 457,-1176.1 457,-1167.54"/>
<polygon fill="black" stroke="black" points="460.5,-1167.54 457,-1157.54 453.5,-1167.54 460.5,-1167.54"/>
</g>
<!-- j4281708647 -->
<g id="node21" class="node">
<title>j4281708647</title>
<polygon fill="none" stroke="red" points="675.5,-1083 238.5,-1083 238.5,-1047 675.5,-1047 675.5,-1083"/>
<text text-anchor="middle" x="457" y="-1061.3" font-family="Times New Roman,serif" font-size="14.00">Now? I play games with Ordis. And read. And... still keep to myself, really.</text>
</g>
<!-- j3704505019&#45;&gt;j4281708647 -->
<g id="edge26" class="edge">
<title>j3704505019&#45;&gt;j4281708647</title>
<path fill="none" stroke="black" d="M457,-1119.81C457,-1112.23 457,-1103.1 457,-1094.54"/>
<polygon fill="black" stroke="black" points="460.5,-1094.54 457,-1084.54 453.5,-1094.54 460.5,-1094.54"/>
</g>
<!-- j18416469 -->
<g id="node22" class="node">
<title>j18416469</title>
<polygon fill="none" stroke="blue" points="484,-1010 430,-1010 430,-974 484,-974 484,-1010"/>
<text text-anchor="middle" x="457" y="-988.3" font-family="Times New Roman,serif" font-size="14.00">Shit.</text>
</g>
<!-- j4281708647&#45;&gt;j18416469 -->
<g id="edge27" class="edge">
<title>j4281708647&#45;&gt;j18416469</title>
<path fill="none" stroke="black" d="M457,-1046.81C457,-1039.23 457,-1030.1 457,-1021.54"/>
<polygon fill="black" stroke="black" points="460.5,-1021.54 457,-1011.54 453.5,-1021.54 460.5,-1021.54"/>
</g>
<!-- j930981038 -->
<g id="node23" class="node">
<title>j930981038</title>
<polygon fill="none" stroke="blue" points="507.5,-937 406.5,-937 406.5,-901 507.5,-901 507.5,-937"/>
<text text-anchor="middle" x="457" y="-915.3" font-family="Times New Roman,serif" font-size="14.00">So, hey. Look.</text>
</g>
<!-- j18416469&#45;&gt;j930981038 -->
<g id="edge28" class="edge">
<title>j18416469&#45;&gt;j930981038</title>
<path fill="none" stroke="black" d="M457,-973.81C457,-966.23 457,-957.1 457,-948.54"/>
<polygon fill="black" stroke="black" points="460.5,-948.54 457,-938.54 453.5,-948.54 460.5,-948.54"/>
</g>
<!-- j1523374611 -->
<g id="node24" class="node">
<title>j1523374611</title>
<polygon fill="none" stroke="blue" points="535.5,-864 378.5,-864 378.5,-828 535.5,-828 535.5,-864"/>
<text text-anchor="middle" x="457" y="-842.3" font-family="Times New Roman,serif" font-size="14.00">I&#39;m a pretty decent cook.</text>
</g>
<!-- j930981038&#45;&gt;j1523374611 -->
<g id="edge29" class="edge">
<title>j930981038&#45;&gt;j1523374611</title>
<path fill="none" stroke="black" d="M457,-900.81C457,-893.23 457,-884.1 457,-875.54"/>
<polygon fill="black" stroke="black" points="460.5,-875.54 457,-865.54 453.5,-875.54 460.5,-875.54"/>
</g>
<!-- j1290806867 -->
<g id="node25" class="node">
<title>j1290806867</title>
<ellipse fill="none" stroke="orange" cx="457" cy="-773" rx="126.98" ry="18"/>
<text text-anchor="middle" x="457" y="-769.3" font-family="Times New Roman,serif" font-size="14.00">Check boolean SquareSpaghetti</text>
</g>
<!-- j1523374611&#45;&gt;j1290806867 -->
<g id="edge30" class="edge">
<title>j1523374611&#45;&gt;j1290806867</title>
<path fill="none" stroke="black" d="M457,-827.81C457,-820.23 457,-811.1 457,-802.54"/>
<polygon fill="black" stroke="black" points="460.5,-802.54 457,-792.54 453.5,-802.54 460.5,-802.54"/>
</g>
<!-- j2695015238 -->
<g id="node26" class="node">
<title>j2695015238</title>
<polygon fill="none" stroke="red" points="585.5,-704 328.5,-704 328.5,-668 585.5,-668 585.5,-704"/>
<text text-anchor="middle" x="457" y="-682.3" font-family="Times New Roman,serif" font-size="14.00">TWO WORDS. SQUARE. SPAGHETTI.</text>
</g>
<!-- j1290806867&#45;&gt;j2695015238 -->
<g id="edge31" class="edge">
<title>j1290806867&#45;&gt;j2695015238</title>
<path fill="none" stroke="green" d="M457,-754.8C457,-743.58 457,-728.67 457,-715.69"/>
<polygon fill="green" stroke="green" points="460.5,-715.98 457,-705.98 453.5,-715.98 460.5,-715.98"/>
<text text-anchor="middle" x="468" y="-725.8" font-family="Times New Roman,serif" font-size="14.00">true</text>
</g>
<!-- j2660936461 -->
<g id="node27" class="node">
<title>j2660936461</title>
<polygon fill="none" stroke="red" points="310,-704 28,-704 28,-668 310,-668 310,-704"/>
<text text-anchor="middle" x="169" y="-682.3" font-family="Times New Roman,serif" font-size="14.00">I ate the square spaghetti, Arthur. That is a LIE.</text>
</g>
<!-- j1290806867&#45;&gt;j2660936461 -->
<g id="edge32" class="edge">
<title>j1290806867&#45;&gt;j2660936461</title>
<path fill="none" stroke="green" d="M403.5,-756.21C357.13,-742.52 289.7,-722.62 239.03,-707.67"/>
<polygon fill="green" stroke="green" points="240.2,-704.36 229.62,-704.89 238.22,-711.08 240.2,-704.36"/>
<text text-anchor="middle" x="342" y="-725.8" font-family="Times New Roman,serif" font-size="14.00">true</text>
</g>
<!-- j225107490 -->
<g id="node28" class="node">
<title>j225107490</title>
<polygon fill="none" stroke="blue" points="516.5,-544 65.5,-544 65.5,-508 516.5,-508 516.5,-544"/>
<text text-anchor="middle" x="291" y="-522.3" font-family="Times New Roman,serif" font-size="14.00">What I&#39;m trying to say is &#45; would you like to learn to cook? It&#39;s a great hobby.</text>
</g>
<!-- j1290806867&#45;&gt;j225107490 -->
<g id="edge33" class="edge">
<title>j1290806867&#45;&gt;j225107490</title>
<path fill="none" stroke="brown" d="M511.1,-756.32C560.09,-739.16 620.91,-708.58 595,-668 552.72,-601.79 470.47,-566.2 402.18,-547.35"/>
<polygon fill="brown" stroke="brown" points="403.37,-544.04 392.8,-544.85 401.57,-550.81 403.37,-544.04"/>
<text text-anchor="middle" x="593" y="-638.8" font-family="Times New Roman,serif" font-size="14.00">false</text>
</g>
<!-- j3326986604 -->
<g id="node29" class="node">
<title>j3326986604</title>
<polygon fill="none" stroke="blue" points="373.5,-617 208.5,-617 208.5,-581 373.5,-581 373.5,-617"/>
<text text-anchor="middle" x="291" y="-595.3" font-family="Times New Roman,serif" font-size="14.00">LOOK. I said I was sorry!</text>
</g>
<!-- j2695015238&#45;&gt;j3326986604 -->
<g id="edge34" class="edge">
<title>j2695015238&#45;&gt;j3326986604</title>
<path fill="none" stroke="black" d="M423.01,-667.59C397.61,-654.59 362.66,-636.7 335.11,-622.59"/>
<polygon fill="black" stroke="black" points="336.79,-619.52 326.29,-618.07 333.6,-625.75 336.79,-619.52"/>
</g>
<!-- j2660936461&#45;&gt;j3326986604 -->
<g id="edge35" class="edge">
<title>j2660936461&#45;&gt;j3326986604</title>
<path fill="none" stroke="black" d="M193.98,-667.59C212.08,-654.99 236.75,-637.79 256.69,-623.9"/>
<polygon fill="black" stroke="black" points="258.6,-626.84 264.81,-618.25 254.6,-621.09 258.6,-626.84"/>
</g>
<!-- j2445322344 -->
<g id="node30" class="node">
<title>j2445322344</title>
<polygon fill="none" stroke="red" points="401,-471 181,-471 181,-435 401,-435 401,-471"/>
<text text-anchor="middle" x="291" y="-449.3" font-family="Times New Roman,serif" font-size="14.00">Are you offering to loan me a book?</text>
</g>
<!-- j225107490&#45;&gt;j2445322344 -->
<g id="edge36" class="edge">
<title>j225107490&#45;&gt;j2445322344</title>
<path fill="none" stroke="black" d="M291,-507.81C291,-500.23 291,-491.1 291,-482.54"/>
<polygon fill="black" stroke="black" points="294.5,-482.54 291,-472.54 287.5,-482.54 294.5,-482.54"/>
</g>
<!-- j3851935701 -->
<g id="node31" class="node">
<title>j3851935701</title>
<polygon fill="none" stroke="red" points="184,-417 50,-417 50,-381 184,-381 184,-417"/>
<text text-anchor="middle" x="117" y="-395.3" font-family="Times New Roman,serif" font-size="14.00">Pass. Thanks. [End.]</text>
</g>
<!-- j225107490&#45;&gt;j3851935701 -->
<g id="edge37" class="edge">
<title>j225107490&#45;&gt;j3851935701</title>
<path fill="none" stroke="black" d="M238.43,-507.56C216.53,-498.73 191.67,-486.55 172,-471 156.59,-458.82 143.04,-441.44 133.24,-426.93"/>
<polygon fill="black" stroke="black" points="136.28,-425.19 127.9,-418.71 130.41,-429 136.28,-425.19"/>
</g>
<!-- j3326986604&#45;&gt;j225107490 -->
<g id="edge38" class="edge">
<title>j3326986604&#45;&gt;j225107490</title>
<path fill="none" stroke="black" d="M291,-580.81C291,-573.23 291,-564.1 291,-555.54"/>
<polygon fill="black" stroke="black" points="294.5,-555.54 291,-545.54 287.5,-555.54 294.5,-555.54"/>
</g>
<!-- j4154606823 -->
<g id="node32" class="node">
<title>j4154606823</title>
<polygon fill="none" stroke="blue" points="401.5,-363 180.5,-363 180.5,-327 401.5,-327 401.5,-363"/>
<text text-anchor="middle" x="291" y="-341.3" font-family="Times New Roman,serif" font-size="14.00">No, daftie. I&#39;m offering to teach you.</text>
</g>
<!-- j2445322344&#45;&gt;j4154606823 -->
<g id="edge39" class="edge">
<title>j2445322344&#45;&gt;j4154606823</title>
<path fill="none" stroke="black" d="M291,-434.97C291,-418.76 291,-394.06 291,-374.79"/>
<polygon fill="black" stroke="black" points="294.5,-374.85 291,-364.85 287.5,-374.85 294.5,-374.85"/>
</g>
<!-- j3851935701&#45;&gt;Chat ends. -->
<g id="edge40" class="edge">
<title>j3851935701&#45;&gt;Chat ends.</title>
<path fill="none" stroke="black" d="M87.58,-380.8C65.12,-365.22 38,-339.99 38,-309 38,-309 38,-309 38,-90 38,-43.57 94.05,-27.16 140.62,-21.54"/>
<polygon fill="black" stroke="black" points="140.82,-25.04 150.4,-20.52 140.09,-18.08 140.82,-25.04"/>
</g>
<!-- j873584379 -->
<g id="node33" class="node">
<title>j873584379</title>
<polygon fill="none" stroke="red" points="368.5,-290 213.5,-290 213.5,-254 368.5,-254 368.5,-290"/>
<text text-anchor="middle" x="291" y="-268.3" font-family="Times New Roman,serif" font-size="14.00">Oh! Yeah! I&#39;d like that. :)</text>
</g>
<!-- j4154606823&#45;&gt;j873584379 -->
<g id="edge41" class="edge">
<title>j4154606823&#45;&gt;j873584379</title>
<path fill="none" stroke="black" d="M291,-326.81C291,-319.23 291,-310.1 291,-301.54"/>
<polygon fill="black" stroke="black" points="294.5,-301.54 291,-291.54 287.5,-301.54 294.5,-301.54"/>
</g>
<!-- j3621904912 -->
<g id="node34" class="node">
<title>j3621904912</title>
<polygon fill="none" stroke="red" points="195.5,-290 66.5,-290 66.5,-254 195.5,-254 195.5,-290"/>
<text text-anchor="middle" x="131" y="-268.3" font-family="Times New Roman,serif" font-size="14.00">Um. Nah. I&#39;m good.</text>
</g>
<!-- j4154606823&#45;&gt;j3621904912 -->
<g id="edge42" class="edge">
<title>j4154606823&#45;&gt;j3621904912</title>
<path fill="none" stroke="black" d="M251.86,-326.63C230.36,-317.09 203.47,-305.16 180.53,-294.98"/>
<polygon fill="black" stroke="black" points="182.23,-291.91 171.67,-291.05 179.4,-298.3 182.23,-291.91"/>
</g>
<!-- j297149175 -->
<g id="node35" class="node">
<title>j297149175</title>
<polygon fill="none" stroke="red" points="907.5,-290 386.5,-290 386.5,-254 907.5,-254 907.5,-290"/>
<text text-anchor="middle" x="647" y="-268.3" font-family="Times New Roman,serif" font-size="14.00">I&#39;d love that. But can you wear one of those cute aprons? And.... maybe only the apron? ;)</text>
</g>
<!-- j4154606823&#45;&gt;j297149175 -->
<g id="edge43" class="edge">
<title>j4154606823&#45;&gt;j297149175</title>
<path fill="none" stroke="black" d="M378.54,-326.54C429.96,-316.29 495.09,-303.3 548.32,-292.68"/>
<polygon fill="black" stroke="black" points="548.88,-296.14 558,-290.75 547.51,-289.27 548.88,-296.14"/>
</g>
<!-- j3401844023 -->
<g id="node36" class="node">
<title>j3401844023</title>
<ellipse fill="none" stroke="orange" cx="285" cy="-199" rx="64.19" ry="18"/>
<text text-anchor="middle" x="285" y="-195.3" font-family="Times New Roman,serif" font-size="14.00">+10 Chemistry</text>
</g>
<!-- j873584379&#45;&gt;j3401844023 -->
<g id="edge44" class="edge">
<title>j873584379&#45;&gt;j3401844023</title>
<path fill="none" stroke="black" d="M289.55,-253.81C288.9,-246.14 288.12,-236.89 287.39,-228.24"/>
<polygon fill="black" stroke="black" points="290.9,-228.21 286.57,-218.54 283.92,-228.8 290.9,-228.21"/>
</g>
<!-- j3132706642 -->
<g id="node37" class="node">
<title>j3132706642</title>
<polygon fill="none" stroke="blue" points="217.5,-163 126.5,-163 126.5,-127 217.5,-127 217.5,-163"/>
<text text-anchor="middle" x="172" y="-141.3" font-family="Times New Roman,serif" font-size="14.00">Suit yourself.</text>
</g>
<!-- j3621904912&#45;&gt;j3132706642 -->
<g id="edge45" class="edge">
<title>j3621904912&#45;&gt;j3132706642</title>
<path fill="none" stroke="black" d="M136.7,-253.62C143.46,-233 154.83,-198.36 162.83,-173.96"/>
<polygon fill="black" stroke="black" points="166.08,-175.26 165.88,-164.67 159.43,-173.08 166.08,-175.26"/>
</g>
<!-- j1331425870 -->
<g id="node38" class="node">
<title>j1331425870</title>
<ellipse fill="none" stroke="orange" cx="519" cy="-199" rx="64.19" ry="18"/>
<text text-anchor="middle" x="519" y="-195.3" font-family="Times New Roman,serif" font-size="14.00">+10 Chemistry</text>
</g>
<!-- j297149175&#45;&gt;j1331425870 -->
<g id="edge46" class="edge">
<title>j297149175&#45;&gt;j1331425870</title>
<path fill="none" stroke="black" d="M615.69,-253.63C597.95,-243.79 575.64,-231.42 556.92,-221.03"/>
<polygon fill="black" stroke="black" points="558.71,-218.02 548.26,-216.23 555.31,-224.14 558.71,-218.02"/>
</g>
<!-- j2100318001 -->
<g id="node39" class="node">
<title>j2100318001</title>
<polygon fill="none" stroke="blue" points="307.5,-109 202.5,-109 202.5,-73 307.5,-73 307.5,-109"/>
<text text-anchor="middle" x="255" y="-87.3" font-family="Times New Roman,serif" font-size="14.00">It&#39;s a plan, then.</text>
</g>
<!-- j3401844023&#45;&gt;j2100318001 -->
<g id="edge47" class="edge">
<title>j3401844023&#45;&gt;j2100318001</title>
<path fill="none" stroke="black" d="M280.18,-180.97C275.55,-164.61 268.47,-139.59 262.99,-120.24"/>
<polygon fill="black" stroke="black" points="266.41,-119.47 260.32,-110.8 259.68,-121.37 266.41,-119.47"/>
</g>
<!-- j3132706642&#45;&gt;Chat ends. -->
<g id="edge48" class="edge">
<title>j3132706642&#45;&gt;Chat ends.</title>
<path fill="none" stroke="black" d="M176.17,-126.62C181.1,-106.1 189.36,-71.67 195.21,-47.29"/>
<polygon fill="black" stroke="black" points="198.58,-48.25 197.51,-37.7 191.77,-46.61 198.58,-48.25"/>
</g>
<!-- j1337302369 -->
<g id="node40" class="node">
<title>j1337302369</title>
<polygon fill="none" stroke="blue" points="528,-109 360,-109 360,-73 528,-73 528,-109"/>
<text text-anchor="middle" x="444" y="-87.3" font-family="Times New Roman,serif" font-size="14.00">Heh. Don&#39;t push your luck.</text>
</g>
<!-- j1331425870&#45;&gt;j1337302369 -->
<g id="edge49" class="edge">
<title>j1331425870&#45;&gt;j1337302369</title>
<path fill="none" stroke="black" d="M506.95,-180.97C495.05,-164.15 476.67,-138.17 462.84,-118.62"/>
<polygon fill="black" stroke="black" points="465.78,-116.72 457.14,-110.58 460.06,-120.76 465.78,-116.72"/>
</g>
<!-- j2100318001&#45;&gt;Chat ends. -->
<g id="edge50" class="edge">
<title>j2100318001&#45;&gt;Chat ends.</title>
<path fill="none" stroke="black" d="M242.17,-72.81C235.83,-64.32 228.05,-53.9 221.03,-44.49"/>
<polygon fill="black" stroke="black" points="224.04,-42.67 215.25,-36.75 218.43,-46.86 224.04,-42.67"/>
</g>
<!-- j1337302369&#45;&gt;Chat ends. -->
<g id="edge51" class="edge">
<title>j1337302369&#45;&gt;Chat ends.</title>
<path fill="none" stroke="black" d="M384.49,-72.54C343.35,-60.47 289.29,-44.61 250.71,-33.29"/>
<polygon fill="black" stroke="black" points="251.8,-29.96 241.22,-30.51 249.83,-36.68 251.8,-29.96"/>
</g>
</g>
</svg>
