<?xml version="1.0" encoding="UTF-8" standalone="no"?>
<!DOCTYPE svg PUBLIC "-//W3C//DTD SVG 1.1//EN"
 "http://www.w3.org/Graphics/SVG/1.1/DTD/svg11.dtd">
<!-- Generated by graphviz version 14.1.1 (20251213.1925)
 -->
<!-- Pages: 1 -->
<svg width="3764pt" height="1556pt"
 viewBox="0.00 0.00 3764.00 1556.00" xmlns="http://www.w3.org/2000/svg" xmlns:xlink="http://www.w3.org/1999/xlink">
<g id="graph0" class="graph" transform="scale(1 1) rotate(0) translate(4 1552)">
<polygon fill="white" stroke="none" points="-4,4 -4,-1552 3760.25,-1552 3760.25,4 -4,4"/>
<!-- RoatheRank1Convo2 begins. -->
<g id="node1" class="node">
<title>RoatheRank1Convo2 begins.</title>
<ellipse fill="none" stroke="orange" cx="2823.25" cy="-1530" rx="119.42" ry="18"/>
<text xml:space="preserve" text-anchor="middle" x="2823.25" y="-1524.95" font-family="Times New Roman,serif" font-size="14.00">RoatheRank1Convo2 begins.</text>
</g>
<!-- j152584948 -->
<g id="node2" class="node">
<title>j152584948</title>
<polygon fill="none" stroke="blue" points="3040.12,-1476 2606.38,-1476 2606.38,-1440 3040.12,-1440 3040.12,-1476"/>
<text xml:space="preserve" text-anchor="middle" x="2823.25" y="-1453.33" font-family="Times New Roman,serif" font-size="14.00">你难道不明白你所谓的“虚空无情之物”并不是真正的“神”吗？</text>
</g>
<!-- RoatheRank1Convo2 begins.&#45;&gt;j152584948 -->
<g id="edge1" class="edge">
<title>RoatheRank1Convo2 begins.&#45;&gt;j152584948</title>
<path fill="none" stroke="black" d="M2823.25,-1511.7C2823.25,-1504.41 2823.25,-1495.73 2823.25,-1487.54"/>
<polygon fill="black" stroke="black" points="2826.75,-1487.62 2823.25,-1477.62 2819.75,-1487.62 2826.75,-1487.62"/>
</g>
<!-- j3348403616 -->
<g id="node3" class="node">
<title>j3348403616</title>
<polygon fill="none" stroke="red" points="2215,-1404 2041.5,-1404 2041.5,-1368 2215,-1368 2215,-1404"/>
<text xml:space="preserve" text-anchor="middle" x="2128.25" y="-1380.58" font-family="Times New Roman,serif" font-size="14.00">他已经很接近是神了。</text>
</g>
<!-- j152584948&#45;&gt;j3348403616 -->
<g id="edge2" class="edge">
<title>j152584948&#45;&gt;j3348403616</title>
<path fill="none" stroke="black" d="M2649.66,-1439.52C2516.08,-1426.06 2336.31,-1407.96 2226.54,-1396.9"/>
<polygon fill="black" stroke="black" points="2226.96,-1393.42 2216.66,-1395.9 2226.26,-1400.39 2226.96,-1393.42"/>
</g>
<!-- j2413349558 -->
<g id="node4" class="node">
<title>j2413349558</title>
<polygon fill="none" stroke="red" points="2902.12,-1404 2744.38,-1404 2744.38,-1368 2902.12,-1368 2902.12,-1404"/>
<text xml:space="preserve" text-anchor="middle" x="2823.25" y="-1380.58" font-family="Times New Roman,serif" font-size="14.00">你凭什么这么肯定？</text>
</g>
<!-- j152584948&#45;&gt;j2413349558 -->
<g id="edge3" class="edge">
<title>j152584948&#45;&gt;j2413349558</title>
<path fill="none" stroke="black" d="M2823.25,-1439.7C2823.25,-1432.41 2823.25,-1423.73 2823.25,-1415.54"/>
<polygon fill="black" stroke="black" points="2826.75,-1415.62 2823.25,-1405.62 2819.75,-1415.62 2826.75,-1415.62"/>
</g>
<!-- j2248365081 -->
<g id="node5" class="node">
<title>j2248365081</title>
<polygon fill="none" stroke="red" points="3703.38,-756 3631.12,-756 3631.12,-720 3703.38,-720 3703.38,-756"/>
<text xml:space="preserve" text-anchor="middle" x="3667.25" y="-733.33" font-family="Times New Roman,serif" font-size="14.00">[结束。]</text>
</g>
<!-- j152584948&#45;&gt;j2248365081 -->
<g id="edge4" class="edge">
<title>j152584948&#45;&gt;j2248365081</title>
<path fill="none" stroke="black" d="M3038.42,-1439.52C3275.38,-1417.3 3623.25,-1374.53 3623.25,-1315 3623.25,-1315 3623.25,-1315 3623.25,-881 3623.25,-839.76 3640.39,-794.68 3653.28,-766.62"/>
<polygon fill="black" stroke="black" points="3656.36,-768.3 3657.48,-757.76 3650.03,-765.29 3656.36,-768.3"/>
</g>
<!-- j3553503648 -->
<g id="node6" class="node">
<title>j3553503648</title>
<polygon fill="none" stroke="blue" points="2144,-1332 1076.5,-1332 1076.5,-1296 2144,-1296 2144,-1332"/>
<text xml:space="preserve" text-anchor="middle" x="1610.25" y="-1309.33" font-family="Times New Roman,serif" font-size="14.00">这个疯人院里和我交谈过的每个人都完全相信这个“墙中人”是个货真价实、滑稽可笑的神，一个真正的神。就连那两个狂热分子似乎也在考虑这个想法！</text>
</g>
<!-- j3348403616&#45;&gt;j3553503648 -->
<g id="edge5" class="edge">
<title>j3348403616&#45;&gt;j3553503648</title>
<path fill="none" stroke="black" d="M2041.26,-1373.24C1961.92,-1362.52 1843.29,-1346.49 1750.55,-1333.96"/>
<polygon fill="black" stroke="black" points="1751.26,-1330.52 1740.88,-1332.65 1750.32,-1337.46 1751.26,-1330.52"/>
</g>
<!-- j2265235214 -->
<g id="node7" class="node">
<title>j2265235214</title>
<polygon fill="none" stroke="blue" points="3477,-1332 2169.5,-1332 2169.5,-1296 3477,-1296 3477,-1332"/>
<text xml:space="preserve" text-anchor="middle" x="2823.25" y="-1308.58" font-family="Times New Roman,serif" font-size="14.00">好吧，先不说任何对神或众神的信仰都来自白痴的残酷现实，这些人执迷不悟是因为：第一，当一个人走向死亡时面对灵魂最终结局的残酷恐惧，他们迫切地需要紧紧抓住一个毛绒玩具，</text>
</g>
<!-- j2413349558&#45;&gt;j2265235214 -->
<g id="edge6" class="edge">
<title>j2413349558&#45;&gt;j2265235214</title>
<path fill="none" stroke="black" d="M2823.25,-1367.7C2823.25,-1360.41 2823.25,-1351.73 2823.25,-1343.54"/>
<polygon fill="black" stroke="black" points="2826.75,-1343.62 2823.25,-1333.62 2819.75,-1343.62 2826.75,-1343.62"/>
</g>
<!-- Chat ends. -->
<g id="node8" class="node">
<title>Chat ends.</title>
<ellipse fill="none" stroke="orange" cx="3409.25" cy="-18" rx="50.33" ry="18"/>
<text xml:space="preserve" text-anchor="middle" x="3409.25" y="-12.95" font-family="Times New Roman,serif" font-size="14.00">Chat ends.</text>
</g>
<!-- j2248365081&#45;&gt;Chat ends. -->
<g id="edge7" class="edge">
<title>j2248365081&#45;&gt;Chat ends.</title>
<path fill="none" stroke="black" d="M3687,-719.91C3713.22,-695.21 3756.25,-646.79 3756.25,-595 3756.25,-595 3756.25,-595 3756.25,-161 3756.25,-98.62 3561.75,-50.05 3463.99,-29.58"/>
<polygon fill="black" stroke="black" points="3464.83,-26.18 3454.33,-27.59 3463.41,-33.04 3464.83,-26.18"/>
</g>
<!-- j1408112401 -->
<g id="node9" class="node">
<title>j1408112401</title>
<polygon fill="none" stroke="red" points="1675.12,-1260 1517.38,-1260 1517.38,-1224 1675.12,-1224 1675.12,-1260"/>
<text xml:space="preserve" text-anchor="middle" x="1596.25" y="-1236.58" font-family="Times New Roman,serif" font-size="14.00">你觉得他不真实吗？</text>
</g>
<!-- j3553503648&#45;&gt;j1408112401 -->
<g id="edge8" class="edge">
<title>j3553503648&#45;&gt;j1408112401</title>
<path fill="none" stroke="black" d="M1606.79,-1295.7C1605.31,-1288.32 1603.55,-1279.52 1601.9,-1271.25"/>
<polygon fill="black" stroke="black" points="1605.36,-1270.71 1599.97,-1261.59 1598.5,-1272.08 1605.36,-1270.71"/>
</g>
<!-- j2689853269 -->
<g id="node10" class="node">
<title>j2689853269</title>
<polygon fill="none" stroke="red" points="2391.88,-1188 2076.62,-1188 2076.62,-1152 2391.88,-1152 2391.88,-1188"/>
<text xml:space="preserve" text-anchor="middle" x="2234.25" y="-1164.58" font-family="Times New Roman,serif" font-size="14.00">如果你觉得他不是神，那你觉得他是什么？</text>
</g>
<!-- j3553503648&#45;&gt;j2689853269 -->
<g id="edge9" class="edge">
<title>j3553503648&#45;&gt;j2689853269</title>
<path fill="none" stroke="black" d="M1687.08,-1295.52C1803.49,-1269.03 2023.94,-1218.86 2146.5,-1190.97"/>
<polygon fill="black" stroke="black" points="2147.24,-1194.39 2156.21,-1188.76 2145.68,-1187.57 2147.24,-1194.39"/>
</g>
<!-- j845079175 -->
<g id="node11" class="node">
<title>j845079175</title>
<polygon fill="none" stroke="red" points="1135.25,-1260 987.25,-1260 987.25,-1224 1135.25,-1224 1135.25,-1260"/>
<text xml:space="preserve" text-anchor="middle" x="1061.25" y="-1237.33" font-family="Times New Roman,serif" font-size="14.00">但你不这么觉得吗?</text>
</g>
<!-- j3553503648&#45;&gt;j845079175 -->
<g id="edge10" class="edge">
<title>j3553503648&#45;&gt;j845079175</title>
<path fill="none" stroke="black" d="M1473.13,-1295.52C1370.75,-1282.46 1234.01,-1265.03 1146.76,-1253.9"/>
<polygon fill="black" stroke="black" points="1147.45,-1250.46 1137.09,-1252.67 1146.56,-1257.41 1147.45,-1250.46"/>
</g>
<!-- j94075994 -->
<g id="node12" class="node">
<title>j94075994</title>
<polygon fill="none" stroke="blue" points="3317.62,-1260 2328.88,-1260 2328.88,-1224 3317.62,-1224 3317.62,-1260"/>
<text xml:space="preserve" text-anchor="middle" x="2823.25" y="-1237.33" font-family="Times New Roman,serif" font-size="14.00">第二，那种当你意识到并没有什么“更强大的力量”在我们前面安排我们的人生，因此我们只能为自己的行为负责时，所产生的焦虑，相关地，</text>
</g>
<!-- j2265235214&#45;&gt;j94075994 -->
<g id="edge11" class="edge">
<title>j2265235214&#45;&gt;j94075994</title>
<path fill="none" stroke="black" d="M2823.25,-1295.7C2823.25,-1288.41 2823.25,-1279.73 2823.25,-1271.54"/>
<polygon fill="black" stroke="black" points="2826.75,-1271.62 2823.25,-1261.62 2819.75,-1271.62 2826.75,-1271.62"/>
</g>
<!-- j4251185346 -->
<g id="node13" class="node">
<title>j4251185346</title>
<polygon fill="none" stroke="blue" points="2059,-1188 1117.5,-1188 1117.5,-1152 2059,-1152 2059,-1188"/>
<text xml:space="preserve" text-anchor="middle" x="1588.25" y="-1165.33" font-family="Times New Roman,serif" font-size="14.00">等等，我说过这种话吗？别急着歪曲我的意思，哦，短暂的篡位者。我并没有否认虚空无情之物是“真实存在的”。我否认的是它是神。</text>
</g>
<!-- j1408112401&#45;&gt;j4251185346 -->
<g id="edge12" class="edge">
<title>j1408112401&#45;&gt;j4251185346</title>
<path fill="none" stroke="black" d="M1594.27,-1223.7C1593.44,-1216.41 1592.45,-1207.73 1591.51,-1199.54"/>
<polygon fill="black" stroke="black" points="1594.99,-1199.15 1590.38,-1189.61 1588.03,-1199.94 1594.99,-1199.15"/>
</g>
<!-- j1732309790 -->
<g id="node14" class="node">
<title>j1732309790</title>
<polygon fill="none" stroke="blue" points="2544.62,-1044 1945.88,-1044 1945.88,-1008 2544.62,-1008 2544.62,-1044"/>
<text xml:space="preserve" text-anchor="middle" x="2245.25" y="-1020.58" font-family="Times New Roman,serif" font-size="14.00">只需两个你理应熟知且能深刻理解的词语，我就能为你揭穿这个虚假神明的真面目：</text>
</g>
<!-- j2689853269&#45;&gt;j1732309790 -->
<g id="edge13" class="edge">
<title>j2689853269&#45;&gt;j1732309790</title>
<path fill="none" stroke="black" d="M2235.6,-1151.59C2237.46,-1127.61 2240.82,-1084.14 2243.05,-1055.42"/>
<polygon fill="black" stroke="black" points="2246.52,-1055.86 2243.81,-1045.62 2239.55,-1055.32 2246.52,-1055.86"/>
</g>
<!-- j202475118 -->
<g id="node15" class="node">
<title>j202475118</title>
<polygon fill="none" stroke="blue" points="1076,-1188 272.5,-1188 272.5,-1152 1076,-1152 1076,-1188"/>
<text xml:space="preserve" text-anchor="middle" x="674.25" y="-1164.58" font-family="Times New Roman,serif" font-size="14.00">绝不！首先，根本没有神，这种想法太荒谬了。其次，想想阿尔布雷希特竟然释放了一个虚空之神？就更可笑了！</text>
</g>
<!-- j845079175&#45;&gt;j202475118 -->
<g id="edge14" class="edge">
<title>j845079175&#45;&gt;j202475118</title>
<path fill="none" stroke="black" d="M987.09,-1227.59C929,-1217.08 847.36,-1202.31 782.05,-1190.5"/>
<polygon fill="black" stroke="black" points="782.84,-1187.08 772.37,-1188.75 781.59,-1193.97 782.84,-1187.08"/>
</g>
<!-- j2734037154 -->
<g id="node16" class="node">
<title>j2734037154</title>
<polygon fill="none" stroke="blue" points="3237,-1188 2409.5,-1188 2409.5,-1152 3237,-1152 3237,-1188"/>
<text xml:space="preserve" text-anchor="middle" x="2823.25" y="-1165.33" font-family="Times New Roman,serif" font-size="14.00">第三，伴随着焦虑和恐惧而来的义愤，当所有这一切让你顿悟：并没有等候魔鬼的“地狱”，也没有守候天使的“天堂”。</text>
</g>
<!-- j94075994&#45;&gt;j2734037154 -->
<g id="edge15" class="edge">
<title>j94075994&#45;&gt;j2734037154</title>
<path fill="none" stroke="black" d="M2823.25,-1223.7C2823.25,-1216.41 2823.25,-1207.73 2823.25,-1199.54"/>
<polygon fill="black" stroke="black" points="2826.75,-1199.62 2823.25,-1189.62 2819.75,-1199.62 2826.75,-1199.62"/>
</g>
<!-- j2791830248 -->
<g id="node17" class="node">
<title>j2791830248</title>
<polygon fill="none" stroke="red" points="1719,-1116 1419.5,-1116 1419.5,-1080 1719,-1080 1719,-1116"/>
<text xml:space="preserve" text-anchor="middle" x="1569.25" y="-1092.58" font-family="Times New Roman,serif" font-size="14.00">那东西比我遇到过的任何对手都更强大。</text>
</g>
<!-- j4251185346&#45;&gt;j2791830248 -->
<g id="edge16" class="edge">
<title>j4251185346&#45;&gt;j2791830248</title>
<path fill="none" stroke="black" d="M1583.55,-1151.7C1581.53,-1144.24 1579.11,-1135.32 1576.84,-1126.97"/>
<polygon fill="black" stroke="black" points="1580.29,-1126.3 1574.29,-1117.57 1573.53,-1128.13 1580.29,-1126.3"/>
</g>
<!-- j2623635975 -->
<g id="node18" class="node">
<title>j2623635975</title>
<polygon fill="none" stroke="red" points="2050,-1116 1876.5,-1116 1876.5,-1080 2050,-1080 2050,-1116"/>
<text xml:space="preserve" text-anchor="middle" x="1963.25" y="-1092.58" font-family="Times New Roman,serif" font-size="14.00">那你觉得他是什么呢？</text>
</g>
<!-- j4251185346&#45;&gt;j2623635975 -->
<g id="edge17" class="edge">
<title>j4251185346&#45;&gt;j2623635975</title>
<path fill="none" stroke="black" d="M1681.91,-1151.52C1737.74,-1141.1 1808.52,-1127.88 1865.12,-1117.32"/>
<polygon fill="black" stroke="black" points="1865.57,-1120.79 1874.75,-1115.52 1864.28,-1113.91 1865.57,-1120.79"/>
</g>
<!-- j1803498860 -->
<g id="node19" class="node">
<title>j1803498860</title>
<polygon fill="none" stroke="blue" points="1909.62,-684 1814.88,-684 1814.88,-648 1909.62,-648 1909.62,-684"/>
<text xml:space="preserve" text-anchor="middle" x="1862.25" y="-660.58" font-family="Times New Roman,serif" font-size="14.00">概念成形。</text>
</g>
<!-- j1732309790&#45;&gt;j1803498860 -->
<g id="edge18" class="edge">
<title>j1732309790&#45;&gt;j1803498860</title>
<path fill="none" stroke="black" d="M2246.26,-1007.52C2247.72,-980.73 2250.25,-927.9 2250.25,-883 2250.25,-883 2250.25,-883 2250.25,-809 2250.25,-739.72 2029.35,-694.14 1920.9,-675.94"/>
<polygon fill="black" stroke="black" points="1921.76,-672.54 1911.32,-674.36 1920.62,-679.44 1921.76,-672.54"/>
</g>
<!-- j1616711514 -->
<g id="node20" class="node">
<title>j1616711514</title>
<polygon fill="none" stroke="blue" points="795.5,-1116 445,-1116 445,-1080 795.5,-1080 795.5,-1116"/>
<text xml:space="preserve" text-anchor="middle" x="620.25" y="-1093.33" font-family="Times New Roman,serif" font-size="14.00">虚空中空无一物。正因如此，它才被称为虚空！ </text>
</g>
<!-- j202475118&#45;&gt;j1616711514 -->
<g id="edge19" class="edge">
<title>j202475118&#45;&gt;j1616711514</title>
<path fill="none" stroke="black" d="M660.9,-1151.7C654.69,-1143.64 647.17,-1133.89 640.29,-1124.98"/>
<polygon fill="black" stroke="black" points="643.25,-1123.08 634.37,-1117.3 637.71,-1127.36 643.25,-1123.08"/>
</g>
<!-- j3998253560 -->
<g id="node21" class="node">
<title>j3998253560</title>
<polygon fill="none" stroke="blue" points="3254.75,-828 2281.75,-828 2281.75,-792 3254.75,-792 3254.75,-828"/>
<text xml:space="preserve" text-anchor="middle" x="2768.25" y="-805.33" font-family="Times New Roman,serif" font-size="14.00">我假设你并非那种沉溺于愤怒、恐惧或焦虑的狂热分子。在这个假设的基础上，我将继续阐述第二个论点，以揭穿“虚空无情之物”的神性：</text>
</g>
<!-- j2734037154&#45;&gt;j3998253560 -->
<g id="edge20" class="edge">
<title>j2734037154&#45;&gt;j3998253560</title>
<path fill="none" stroke="black" d="M2819.61,-1151.6C2814.35,-1124.92 2805.25,-1072.23 2805.25,-1027 2805.25,-1027 2805.25,-1027 2805.25,-953 2805.25,-912.25 2790.8,-866.98 2779.96,-838.75"/>
<polygon fill="black" stroke="black" points="2783.24,-837.52 2776.3,-829.52 2776.74,-840.11 2783.24,-837.52"/>
</g>
<!-- j3540842028 -->
<g id="node22" class="node">
<title>j3540842028</title>
<polygon fill="none" stroke="blue" points="1927.38,-1044 1171.12,-1044 1171.12,-1008 1927.38,-1008 1927.38,-1044"/>
<text xml:space="preserve" text-anchor="middle" x="1549.25" y="-1020.58" font-family="Times New Roman,serif" font-size="14.00">我什么时候否认过这一点？说真的，你们似乎都把自己卷入了一场毫无必要的歇斯底里和巨大的苦难之中。</text>
</g>
<!-- j2791830248&#45;&gt;j3540842028 -->
<g id="edge21" class="edge">
<title>j2791830248&#45;&gt;j3540842028</title>
<path fill="none" stroke="black" d="M1564.31,-1079.7C1562.17,-1072.24 1559.63,-1063.32 1557.24,-1054.97"/>
<polygon fill="black" stroke="black" points="1560.67,-1054.21 1554.55,-1045.56 1553.93,-1056.14 1560.67,-1054.21"/>
</g>
<!-- j2623635975&#45;&gt;j1732309790 -->
<g id="edge22" class="edge">
<title>j2623635975&#45;&gt;j1732309790</title>
<path fill="none" stroke="black" d="M2033.68,-1079.52C2073.28,-1069.69 2122.89,-1057.37 2164.11,-1047.14"/>
<polygon fill="black" stroke="black" points="2164.9,-1050.55 2173.76,-1044.75 2163.21,-1043.76 2164.9,-1050.55"/>
</g>
<!-- j1529642400 -->
<g id="node23" class="node">
<title>j1529642400</title>
<polygon fill="none" stroke="red" points="3728.62,-612 2313.88,-612 2313.88,-576 3728.62,-576 3728.62,-612"/>
<text xml:space="preserve" text-anchor="middle" x="3021.25" y="-589.33" font-family="Times New Roman,serif" font-size="14.00">虚空以及我们能利用它创造出来的东西既危险又强大——相信我，我深有体会。但它终究也有局限性。你真的以为它能够展现出这样的能力吗？能够创造完整的语言，拥有能够驱动飞船穿梭虚空的手指？</text>
</g>
<!-- j1803498860&#45;&gt;j1529642400 -->
<g id="edge23" class="edge">
<title>j1803498860&#45;&gt;j1529642400</title>
<path fill="none" stroke="black" d="M1909.84,-662.13C2045.09,-653.96 2440,-630.11 2720.52,-613.16"/>
<polygon fill="black" stroke="black" points="2720.42,-616.68 2730.19,-612.58 2719.99,-609.69 2720.42,-616.68"/>
</g>
<!-- j1248482236 -->
<g id="node24" class="node">
<title>j1248482236</title>
<polygon fill="none" stroke="red" points="1287.5,-612 223,-612 223,-576 1287.5,-576 1287.5,-612"/>
<text xml:space="preserve" text-anchor="middle" x="755.25" y="-589.33" font-family="Times New Roman,serif" font-size="14.00">罗瑟，说实话……把这当成床底下的怪物确实很诱人。但我亲眼见过那东西，面对“面”地见过，实在无法理解这种东西怎么可能只是我们脑子里的产物。</text>
</g>
<!-- j1803498860&#45;&gt;j1248482236 -->
<g id="edge24" class="edge">
<title>j1803498860&#45;&gt;j1248482236</title>
<path fill="none" stroke="black" d="M1814.68,-661.99C1683.67,-653.71 1309.64,-630.06 1043.2,-613.21"/>
<polygon fill="black" stroke="black" points="1043.49,-609.72 1033.29,-612.58 1043.05,-616.71 1043.49,-609.72"/>
</g>
<!-- j655678078 -->
<g id="node25" class="node">
<title>j655678078</title>
<polygon fill="none" stroke="red" points="2295.62,-612 1324.88,-612 1324.88,-576 2295.62,-576 2295.62,-612"/>
<text xml:space="preserve" text-anchor="middle" x="1810.25" y="-589.33" font-family="Times New Roman,serif" font-size="14.00">概念成形无法做到墙中人能做到的事。虽然英择谛可能显化了那东西——也对将它带到这里负责——但我认为他并不是那东西的最初来源。</text>
</g>
<!-- j1803498860&#45;&gt;j655678078 -->
<g id="edge25" class="edge">
<title>j1803498860&#45;&gt;j655678078</title>
<path fill="none" stroke="black" d="M1849.4,-647.7C1843.48,-639.73 1836.32,-630.1 1829.76,-621.26"/>
<polygon fill="black" stroke="black" points="1832.63,-619.26 1823.86,-613.32 1827.01,-623.43 1832.63,-619.26"/>
</g>
<!-- j374881005 -->
<g id="node26" class="node">
<title>j374881005</title>
<polygon fill="none" stroke="red" points="573.5,-1044 211,-1044 211,-1008 573.5,-1008 573.5,-1044"/>
<text xml:space="preserve" text-anchor="middle" x="392.25" y="-1020.58" font-family="Times New Roman,serif" font-size="14.00">不，我见过来自虚空的东西。天使。歌唱。鬼魂。</text>
</g>
<!-- j1616711514&#45;&gt;j374881005 -->
<g id="edge26" class="edge">
<title>j1616711514&#45;&gt;j374881005</title>
<path fill="none" stroke="black" d="M563.3,-1079.52C531.9,-1069.88 492.72,-1057.84 459.78,-1047.73"/>
<polygon fill="black" stroke="black" points="460.9,-1044.42 450.31,-1044.83 458.84,-1051.11 460.9,-1044.42"/>
</g>
<!-- j3479619252 -->
<g id="node27" class="node">
<title>j3479619252</title>
<polygon fill="none" stroke="red" points="649.25,-1044 591.25,-1044 591.25,-1008 649.25,-1008 649.25,-1044"/>
<text xml:space="preserve" text-anchor="middle" x="620.25" y="-1021.33" font-family="Times New Roman,serif" font-size="14.00">我...... </text>
</g>
<!-- j1616711514&#45;&gt;j3479619252 -->
<g id="edge27" class="edge">
<title>j1616711514&#45;&gt;j3479619252</title>
<path fill="none" stroke="black" d="M620.25,-1079.7C620.25,-1072.41 620.25,-1063.73 620.25,-1055.54"/>
<polygon fill="black" stroke="black" points="623.75,-1055.62 620.25,-1045.62 616.75,-1055.62 623.75,-1055.62"/>
</g>
<!-- j3998253560&#45;&gt;j1803498860 -->
<g id="edge28" class="edge">
<title>j3998253560&#45;&gt;j1803498860</title>
<path fill="none" stroke="black" d="M2676.48,-791.55C2575.62,-772.67 2408.71,-742.27 2264.25,-720 2142.57,-701.24 1999.51,-683.38 1921.09,-673.94"/>
<polygon fill="black" stroke="black" points="1921.84,-670.51 1911.5,-672.79 1921.01,-677.46 1921.84,-670.51"/>
</g>
<!-- j3514721329 -->
<g id="node28" class="node">
<title>j3514721329</title>
<polygon fill="none" stroke="red" points="1343.62,-972 1248.88,-972 1248.88,-936 1343.62,-936 1343.62,-972"/>
<text xml:space="preserve" text-anchor="middle" x="1296.25" y="-948.58" font-family="Times New Roman,serif" font-size="14.00">你说什么？</text>
</g>
<!-- j3540842028&#45;&gt;j3514721329 -->
<g id="edge29" class="edge">
<title>j3540842028&#45;&gt;j3514721329</title>
<path fill="none" stroke="black" d="M1486.06,-1007.52C1445.88,-996.4 1394.21,-982.1 1354.93,-971.24"/>
<polygon fill="black" stroke="black" points="1355.97,-967.89 1345.4,-968.6 1354.11,-974.64 1355.97,-967.89"/>
</g>
<!-- j339534213 -->
<g id="node29" class="node">
<title>j339534213</title>
<polygon fill="none" stroke="red" points="1975.5,-972 1487,-972 1487,-936 1975.5,-936 1975.5,-972"/>
<text xml:space="preserve" text-anchor="middle" x="1731.25" y="-948.58" font-family="Times New Roman,serif" font-size="14.00">等等。这怎么能怪我们呢？该怪阿尔布雷希特才对，是他放出来的。</text>
</g>
<!-- j3540842028&#45;&gt;j339534213 -->
<g id="edge30" class="edge">
<title>j3540842028&#45;&gt;j339534213</title>
<path fill="none" stroke="black" d="M1594.71,-1007.52C1619.23,-998.08 1649.7,-986.37 1675.63,-976.39"/>
<polygon fill="black" stroke="black" points="1676.57,-979.78 1684.64,-972.93 1674.05,-973.25 1676.57,-979.78"/>
</g>
<!-- j4130040900 -->
<g id="node30" class="node">
<title>j4130040900</title>
<polygon fill="none" stroke="blue" points="3690.38,-540 2430.12,-540 2430.12,-504 3690.38,-504 3690.38,-540"/>
<text xml:space="preserve" text-anchor="middle" x="3060.25" y="-516.58" font-family="Times New Roman,serif" font-size="14.00">人类在发明创造各种新式苦难方面，真是五花八门，花样翻新，不是吗？你自己亲眼目睹了许多残酷暴行，我相信在咱们那群狂热分子的年代，没有人能想象到这些暴行竟会发生。</text>
</g>
<!-- j1529642400&#45;&gt;j4130040900 -->
<g id="edge31" class="edge">
<title>j1529642400&#45;&gt;j4130040900</title>
<path fill="none" stroke="black" d="M3030.89,-575.7C3035.19,-567.98 3040.35,-558.71 3045.14,-550.11"/>
<polygon fill="black" stroke="black" points="3048.17,-551.87 3049.98,-541.43 3042.06,-548.46 3048.17,-551.87"/>
</g>
<!-- j3810409727 -->
<g id="node31" class="node">
<title>j3810409727</title>
<polygon fill="none" stroke="blue" points="1372.38,-540 100.12,-540 100.12,-504 1372.38,-504 1372.38,-540"/>
<text xml:space="preserve" text-anchor="middle" x="736.25" y="-517.33" font-family="Times New Roman,serif" font-size="14.00">啊，你离真相如此之近，却又如此轻易地否定它。你觉得相信它是自己脑海中的产物很“诱人”，因为这样更容易将其抛诸脑后？不，我认为面对自己创造的产物，远比面对神更危险。</text>
</g>
<!-- j1248482236&#45;&gt;j3810409727 -->
<g id="edge32" class="edge">
<title>j1248482236&#45;&gt;j3810409727</title>
<path fill="none" stroke="black" d="M750.55,-575.7C748.53,-568.24 746.11,-559.32 743.84,-550.97"/>
<polygon fill="black" stroke="black" points="747.29,-550.3 741.29,-541.57 740.53,-552.13 747.29,-550.3"/>
</g>
<!-- j4163235294 -->
<g id="node32" class="node">
<title>j4163235294</title>
<polygon fill="none" stroke="blue" points="2411.75,-540 1390.75,-540 1390.75,-504 2411.75,-504 2411.75,-540"/>
<text xml:space="preserve" text-anchor="middle" x="1901.25" y="-517.33" font-family="Times New Roman,serif" font-size="14.00">虽然我欣赏你的谦逊，但我挑战你对人类创造力的有限理解——尤其是如何创造出新的苦难形式这方面。难道你不是凭空捏造出你自己的宇宙吗？</text>
</g>
<!-- j655678078&#45;&gt;j4163235294 -->
<g id="edge33" class="edge">
<title>j655678078&#45;&gt;j4163235294</title>
<path fill="none" stroke="black" d="M1832.74,-575.7C1843.9,-567.11 1857.56,-556.61 1869.74,-547.24"/>
<polygon fill="black" stroke="black" points="1871.71,-550.14 1877.5,-541.27 1867.44,-544.59 1871.71,-550.14"/>
</g>
<!-- j15061212 -->
<g id="node33" class="node">
<title>j15061212</title>
<polygon fill="none" stroke="blue" points="761,-972 23.5,-972 23.5,-936 761,-936 761,-972"/>
<text xml:space="preserve" text-anchor="middle" x="392.25" y="-949.33" font-family="Times New Roman,serif" font-size="14.00">虚空中唯一存在的，是我们放入其中的，以及从中返回的。它能改变物质和能量——但它无法创造它们。</text>
</g>
<!-- j374881005&#45;&gt;j15061212 -->
<g id="edge34" class="edge">
<title>j374881005&#45;&gt;j15061212</title>
<path fill="none" stroke="black" d="M392.25,-1007.7C392.25,-1000.41 392.25,-991.73 392.25,-983.54"/>
<polygon fill="black" stroke="black" points="395.75,-983.62 392.25,-973.62 388.75,-983.62 395.75,-983.62"/>
</g>
<!-- j3479619252&#45;&gt;j15061212 -->
<g id="edge35" class="edge">
<title>j3479619252&#45;&gt;j15061212</title>
<path fill="none" stroke="black" d="M590.97,-1011.38C588.05,-1010.18 585.11,-1009.03 582.25,-1008 547.66,-995.52 508.66,-984.18 475.04,-975.23"/>
<polygon fill="black" stroke="black" points="476.34,-971.95 465.78,-972.79 474.56,-978.72 476.34,-971.95"/>
</g>
<!-- j2862442622 -->
<g id="node34" class="node">
<title>j2862442622</title>
<polygon fill="none" stroke="blue" points="1574,-900 770.5,-900 770.5,-864 1574,-864 1574,-900"/>
<text xml:space="preserve" text-anchor="middle" x="1172.25" y="-877.33" font-family="Times New Roman,serif" font-size="14.00">我​是​说：​没错，​阿尔布雷​希特​可能​是​第一​个​意识​到​自己​的​傲慢，​如同​一​张​狞笑​的​毁灭​之神​的​脸，​凝视​着​自己​的​人。​</text>
</g>
<!-- j3514721329&#45;&gt;j2862442622 -->
<g id="edge36" class="edge">
<title>j3514721329&#45;&gt;j2862442622</title>
<path fill="none" stroke="black" d="M1265.28,-935.52C1249.33,-926.51 1229.69,-915.42 1212.57,-905.76"/>
<polygon fill="black" stroke="black" points="1214.57,-902.87 1204.14,-901 1211.13,-908.97 1214.57,-902.87"/>
</g>
<!-- j3512359855 -->
<g id="node35" class="node">
<title>j3512359855</title>
<polygon fill="none" stroke="blue" points="2222.38,-900 1592.12,-900 1592.12,-864 2222.38,-864 2222.38,-900"/>
<text xml:space="preserve" text-anchor="middle" x="1907.25" y="-876.58" font-family="Times New Roman,serif" font-size="14.00">阿尔布雷希特或许正是最初目睹自己狂妄自大如毁灭之神般狞笑着凝视着他的人，没错。</text>
</g>
<!-- j339534213&#45;&gt;j3512359855 -->
<g id="edge37" class="edge">
<title>j339534213&#45;&gt;j3512359855</title>
<path fill="none" stroke="black" d="M1775.21,-935.52C1798.82,-926.13 1828.12,-914.47 1853.13,-904.53"/>
<polygon fill="black" stroke="black" points="1854.14,-907.89 1862.14,-900.94 1851.56,-901.38 1854.14,-907.89"/>
</g>
<!-- j4235711662 -->
<g id="node36" class="node">
<title>j4235711662</title>
<ellipse fill="none" stroke="orange" cx="2369.25" cy="-378" rx="67.22" ry="18"/>
<text xml:space="preserve" text-anchor="middle" x="2369.25" y="-372.95" font-family="Times New Roman,serif" font-size="14.00">+15 Chemistry</text>
</g>
<!-- j4130040900&#45;&gt;j4235711662 -->
<g id="edge38" class="edge">
<title>j4130040900&#45;&gt;j4235711662</title>
<path fill="none" stroke="black" d="M2975.17,-503.52C2834.72,-474.65 2557.49,-417.68 2432.73,-392.04"/>
<polygon fill="black" stroke="black" points="2433.48,-388.63 2422.98,-390.04 2432.07,-395.48 2433.48,-388.63"/>
</g>
<!-- j4082848820 -->
<g id="node37" class="node">
<title>j4082848820</title>
<polygon fill="none" stroke="blue" points="1480.75,-468 267.75,-468 267.75,-432 1480.75,-432 1480.75,-468"/>
<text xml:space="preserve" text-anchor="middle" x="874.25" y="-444.57" font-family="Times New Roman,serif" font-size="14.00">一个外部敌人可以被理解，被操纵，被击败。甚至必要时，还可以去和他谈判。他们有可以利用的弱点。但一个内部敌人呢？我们自己造出来的敌人呢？那可就阴险得多了。</text>
</g>
<!-- j3810409727&#45;&gt;j4082848820 -->
<g id="edge39" class="edge">
<title>j3810409727&#45;&gt;j4082848820</title>
<path fill="none" stroke="black" d="M770.72,-503.52C788.72,-494.39 810.94,-483.11 830.18,-473.35"/>
<polygon fill="black" stroke="black" points="831.54,-476.59 838.87,-468.95 828.37,-470.35 831.54,-476.59"/>
</g>
<!-- j2680977746 -->
<g id="node38" class="node">
<title>j2680977746</title>
<polygon fill="none" stroke="blue" points="2339.25,-468 1579.25,-468 1579.25,-432 2339.25,-432 2339.25,-468"/>
<text xml:space="preserve" text-anchor="middle" x="1959.25" y="-445.32" font-family="Times New Roman,serif" font-size="14.00">你自己亲眼目睹了许多残酷暴行，我相信在咱们亲爱的狂热分子年代，没有人能想象到这些暴行竟会发生。 </text>
</g>
<!-- j4163235294&#45;&gt;j2680977746 -->
<g id="edge40" class="edge">
<title>j4163235294&#45;&gt;j2680977746</title>
<path fill="none" stroke="black" d="M1915.59,-503.7C1922.33,-495.56 1930.51,-485.69 1937.95,-476.7"/>
<polygon fill="black" stroke="black" points="1940.43,-479.2 1944.11,-469.27 1935.04,-474.74 1940.43,-479.2"/>
</g>
<!-- j180965728 -->
<g id="node39" class="node">
<title>j180965728</title>
<polygon fill="none" stroke="blue" points="752.5,-900 0,-900 0,-864 752.5,-864 752.5,-900"/>
<text xml:space="preserve" text-anchor="middle" x="376.25" y="-877.33" font-family="Times New Roman,serif" font-size="14.00">想想吧，漂泊者。你说的这些“虚空天使”，这些幽灵，它们是不是从那些已经迷失在虚空里的人转化而来？</text>
</g>
<!-- j15061212&#45;&gt;j180965728 -->
<g id="edge41" class="edge">
<title>j15061212&#45;&gt;j180965728</title>
<path fill="none" stroke="black" d="M388.29,-935.7C386.61,-928.32 384.6,-919.52 382.71,-911.25"/>
<polygon fill="black" stroke="black" points="386.14,-910.55 380.5,-901.58 379.31,-912.11 386.14,-910.55"/>
</g>
<!-- j4247550145 -->
<g id="node40" class="node">
<title>j4247550145</title>
<polygon fill="none" stroke="blue" points="2013.5,-828 1273,-828 1273,-792 2013.5,-792 2013.5,-828"/>
<text xml:space="preserve" text-anchor="middle" x="1643.25" y="-804.58" font-family="Times New Roman,serif" font-size="14.00">可你们都难辞其咎，竟让这坨朱巴虫粪球一路从山坡往下滚了这么久，沿途每沾一丁点粪渣就越滚越大！</text>
</g>
<!-- j2862442622&#45;&gt;j4247550145 -->
<g id="edge42" class="edge">
<title>j2862442622&#45;&gt;j4247550145</title>
<path fill="none" stroke="black" d="M1289.89,-863.52C1358.3,-853.35 1444.59,-840.53 1514.77,-830.1"/>
<polygon fill="black" stroke="black" points="1515.01,-833.6 1524.39,-828.66 1513.98,-826.67 1515.01,-833.6"/>
</g>
<!-- j3512359855&#45;&gt;j4247550145 -->
<g id="edge43" class="edge">
<title>j3512359855&#45;&gt;j4247550145</title>
<path fill="none" stroke="black" d="M1841.31,-863.52C1804.32,-853.71 1758,-841.43 1719.45,-831.21"/>
<polygon fill="black" stroke="black" points="1720.83,-827.95 1710.27,-828.77 1719.04,-834.72 1720.83,-827.95"/>
</g>
<!-- j1350717331 -->
<g id="node41" class="node">
<title>j1350717331</title>
<polygon fill="none" stroke="blue" points="2727.75,-324 1892.75,-324 1892.75,-288 2727.75,-288 2727.75,-324"/>
<text xml:space="preserve" text-anchor="middle" x="2310.25" y="-300.57" font-family="Times New Roman,serif" font-size="14.00">作为一个物种，我们有一种惊人的能力，那就是不断给恐惧输送素材，从而让想象创造出比现实更糟的自我毁灭场景。</text>
</g>
<!-- j4235711662&#45;&gt;j1350717331 -->
<g id="edge44" class="edge">
<title>j4235711662&#45;&gt;j1350717331</title>
<path fill="none" stroke="black" d="M2354.97,-360.05C2348.11,-351.92 2339.75,-342 2332.12,-332.94"/>
<polygon fill="black" stroke="black" points="2334.91,-330.82 2325.79,-325.43 2329.55,-335.33 2334.91,-330.82"/>
</g>
<!-- j4046802353 -->
<g id="node42" class="node">
<title>j4046802353</title>
<ellipse fill="none" stroke="orange" cx="1371.25" cy="-378" rx="67.22" ry="18"/>
<text xml:space="preserve" text-anchor="middle" x="1371.25" y="-372.95" font-family="Times New Roman,serif" font-size="14.00">+20 Chemistry</text>
</g>
<!-- j4082848820&#45;&gt;j4046802353 -->
<g id="edge45" class="edge">
<title>j4082848820&#45;&gt;j4046802353</title>
<path fill="none" stroke="black" d="M998.38,-431.52C1094.16,-418.03 1223.14,-399.86 1301.58,-388.81"/>
<polygon fill="black" stroke="black" points="1301.87,-392.31 1311.28,-387.45 1300.89,-385.38 1301.87,-392.31"/>
</g>
<!-- j2358110311 -->
<g id="node43" class="node">
<title>j2358110311</title>
<ellipse fill="none" stroke="orange" cx="2076.25" cy="-378" rx="67.22" ry="18"/>
<text xml:space="preserve" text-anchor="middle" x="2076.25" y="-372.95" font-family="Times New Roman,serif" font-size="14.00">+10 Chemistry</text>
</g>
<!-- j2680977746&#45;&gt;j2358110311 -->
<g id="edge46" class="edge">
<title>j2680977746&#45;&gt;j2358110311</title>
<path fill="none" stroke="black" d="M1988.47,-431.52C2004.2,-422.11 2023.74,-410.42 2040.38,-400.46"/>
<polygon fill="black" stroke="black" points="2041.71,-403.74 2048.5,-395.6 2038.12,-397.74 2041.71,-403.74"/>
</g>
<!-- j1502640135 -->
<g id="node44" class="node">
<title>j1502640135</title>
<polygon fill="none" stroke="blue" points="969.5,-828 355,-828 355,-792 969.5,-792 969.5,-828"/>
<text xml:space="preserve" text-anchor="middle" x="662.25" y="-804.58" font-family="Times New Roman,serif" font-size="14.00">它们只不过是能量的回流，就像色彩斑斓的库塔克鸟通过反刍来喂养它的孩子们一样。</text>
</g>
<!-- j180965728&#45;&gt;j1502640135 -->
<g id="edge47" class="edge">
<title>j180965728&#45;&gt;j1502640135</title>
<path fill="none" stroke="black" d="M447.68,-863.52C487.93,-853.67 538.37,-841.32 580.23,-831.07"/>
<polygon fill="black" stroke="black" points="580.88,-834.52 589.76,-828.74 579.22,-827.72 580.88,-834.52"/>
</g>
<!-- j4041947403 -->
<g id="node45" class="node">
<title>j4041947403</title>
<polygon fill="none" stroke="blue" points="2052.88,-756 1233.62,-756 1233.62,-720 2052.88,-720 2052.88,-756"/>
<text xml:space="preserve" text-anchor="middle" x="1643.25" y="-732.58" font-family="Times New Roman,serif" font-size="14.00">让我用更简洁的方式解释一下。只需两个你理应熟知且能深刻理解的词语，我就能为你揭穿这个虚假神明的真面目：</text>
</g>
<!-- j4247550145&#45;&gt;j4041947403 -->
<g id="edge48" class="edge">
<title>j4247550145&#45;&gt;j4041947403</title>
<path fill="none" stroke="black" d="M1643.25,-791.7C1643.25,-784.41 1643.25,-775.73 1643.25,-767.54"/>
<polygon fill="black" stroke="black" points="1646.75,-767.62 1643.25,-757.62 1639.75,-767.62 1646.75,-767.62"/>
</g>
<!-- j1288363900 -->
<g id="node46" class="node">
<title>j1288363900</title>
<polygon fill="none" stroke="blue" points="2530.88,-252 2089.62,-252 2089.62,-216 2530.88,-216 2530.88,-252"/>
<text xml:space="preserve" text-anchor="middle" x="2310.25" y="-228.57" font-family="Times New Roman,serif" font-size="14.00">嗯。恐怕我得走了。正好让你有时间，可以好好想想我的话。</text>
</g>
<!-- j1350717331&#45;&gt;j1288363900 -->
<g id="edge49" class="edge">
<title>j1350717331&#45;&gt;j1288363900</title>
<path fill="none" stroke="black" d="M2310.25,-287.7C2310.25,-280.41 2310.25,-271.73 2310.25,-263.54"/>
<polygon fill="black" stroke="black" points="2313.75,-263.62 2310.25,-253.62 2306.75,-263.62 2313.75,-263.62"/>
</g>
<!-- j39151073 -->
<g id="node47" class="node">
<title>j39151073</title>
<polygon fill="none" stroke="blue" points="1809,-324 1197.5,-324 1197.5,-288 1809,-288 1809,-324"/>
<text xml:space="preserve" text-anchor="middle" x="1503.25" y="-301.32" font-family="Times New Roman,serif" font-size="14.00">因为那样我们就必须对抗自己的恶魔。而人类……从来都赢不了这样的战争，不是吗？</text>
</g>
<!-- j4046802353&#45;&gt;j39151073 -->
<g id="edge50" class="edge">
<title>j4046802353&#45;&gt;j39151073</title>
<path fill="none" stroke="black" d="M1400.55,-361.46C1418.14,-352.14 1440.83,-340.1 1460.41,-329.72"/>
<polygon fill="black" stroke="black" points="1461.79,-332.95 1468.99,-325.17 1458.51,-326.76 1461.79,-332.95"/>
</g>
<!-- j2358110311&#45;&gt;j1350717331 -->
<g id="edge51" class="edge">
<title>j2358110311&#45;&gt;j1350717331</title>
<path fill="none" stroke="black" d="M2119.99,-363.92C2154.09,-353.72 2202.08,-339.36 2241.33,-327.62"/>
<polygon fill="black" stroke="black" points="2242.12,-331.03 2250.7,-324.82 2240.11,-324.33 2242.12,-331.03"/>
</g>
<!-- j1502640135&#45;&gt;j4041947403 -->
<g id="edge52" class="edge">
<title>j1502640135&#45;&gt;j4041947403</title>
<path fill="none" stroke="black" d="M907.27,-791.52C1053.57,-781.08 1239.13,-767.84 1387.33,-757.26"/>
<polygon fill="black" stroke="black" points="1387.15,-760.78 1396.87,-756.58 1386.65,-753.8 1387.15,-760.78"/>
</g>
<!-- j4041947403&#45;&gt;j1803498860 -->
<g id="edge53" class="edge">
<title>j4041947403&#45;&gt;j1803498860</title>
<path fill="none" stroke="black" d="M1697.95,-719.52C1730.16,-709.22 1770.9,-696.2 1803.75,-685.7"/>
<polygon fill="black" stroke="black" points="1804.66,-689.08 1813.12,-682.7 1802.53,-682.41 1804.66,-689.08"/>
</g>
<!-- j346728943 -->
<g id="node48" class="node">
<title>j346728943</title>
<polygon fill="none" stroke="red" points="2754.38,-180 2628.12,-180 2628.12,-144 2754.38,-144 2754.38,-180"/>
<text xml:space="preserve" text-anchor="middle" x="2691.25" y="-156.57" font-family="Times New Roman,serif" font-size="14.00">我会的。谢谢。</text>
</g>
<!-- j1288363900&#45;&gt;j346728943 -->
<g id="edge54" class="edge">
<title>j1288363900&#45;&gt;j346728943</title>
<path fill="none" stroke="black" d="M2421.02,-215.54C2476.91,-206.35 2545.98,-194.41 2617.03,-180.18"/>
<polygon fill="black" stroke="black" points="2617.4,-183.68 2626.51,-178.27 2616.01,-176.82 2617.4,-183.68"/>
</g>
<!-- j2411974238 -->
<g id="node49" class="node">
<title>j2411974238</title>
<polygon fill="none" stroke="red" points="2609.62,-180 2010.88,-180 2010.88,-144 2609.62,-144 2609.62,-180"/>
<text xml:space="preserve" text-anchor="middle" x="2310.25" y="-156.57" font-family="Times New Roman,serif" font-size="14.00">仔细想想我的观点，当你真的要面对一个反神的人时，你最终可能会想要相信它们。</text>
</g>
<!-- j1288363900&#45;&gt;j2411974238 -->
<g id="edge55" class="edge">
<title>j1288363900&#45;&gt;j2411974238</title>
<path fill="none" stroke="black" d="M2310.25,-215.7C2310.25,-208.41 2310.25,-199.73 2310.25,-191.54"/>
<polygon fill="black" stroke="black" points="2313.75,-191.62 2310.25,-181.62 2306.75,-191.62 2313.75,-191.62"/>
</g>
<!-- j39151073&#45;&gt;j1288363900 -->
<g id="edge56" class="edge">
<title>j39151073&#45;&gt;j1288363900</title>
<path fill="none" stroke="black" d="M1704.81,-287.52C1824.44,-277.14 1975.98,-264 2097.52,-253.45"/>
<polygon fill="black" stroke="black" points="2097.65,-256.95 2107.31,-252.6 2097.04,-249.98 2097.65,-256.95"/>
</g>
<!-- j3819439049 -->
<g id="node50" class="node">
<title>j3819439049</title>
<ellipse fill="none" stroke="orange" cx="2691.25" cy="-90" rx="148.08" ry="18"/>
<text xml:space="preserve" text-anchor="middle" x="2691.25" y="-84.95" font-family="Times New Roman,serif" font-size="14.00">Boolean RoatheMITW1 is now true.</text>
</g>
<!-- j346728943&#45;&gt;j3819439049 -->
<g id="edge57" class="edge">
<title>j346728943&#45;&gt;j3819439049</title>
<path fill="none" stroke="black" d="M2691.25,-143.7C2691.25,-136.41 2691.25,-127.73 2691.25,-119.54"/>
<polygon fill="black" stroke="black" points="2694.75,-119.62 2691.25,-109.62 2687.75,-119.62 2694.75,-119.62"/>
</g>
<!-- j2411974238&#45;&gt;j3819439049 -->
<g id="edge58" class="edge">
<title>j2411974238&#45;&gt;j3819439049</title>
<path fill="none" stroke="black" d="M2405.41,-143.52C2465.15,-132.54 2541.74,-118.47 2600.6,-107.65"/>
<polygon fill="black" stroke="black" points="2601.06,-111.13 2610.26,-105.88 2599.79,-104.24 2601.06,-111.13"/>
</g>
<!-- j3819439049&#45;&gt;Chat ends. -->
<g id="edge59" class="edge">
<title>j3819439049&#45;&gt;Chat ends.</title>
<path fill="none" stroke="black" d="M2804.23,-77.99C2958.63,-62.93 3230.03,-36.47 3349.7,-24.81"/>
<polygon fill="black" stroke="black" points="3350.02,-28.29 3359.64,-23.84 3349.34,-21.32 3350.02,-28.29"/>
</g>
</g>
</svg>
