<?xml version="1.0" encoding="UTF-8" standalone="no"?>
<!DOCTYPE svg PUBLIC "-//W3C//DTD SVG 1.1//EN"
 "http://www.w3.org/Graphics/SVG/1.1/DTD/svg11.dtd">
<!-- Generated by graphviz version 7.1.0 (20230121.1956)
 -->
<!-- Pages: 1 -->
<svg width="1783pt" height="2347pt"
 viewBox="0.00 0.00 1782.50 2347.00" xmlns="http://www.w3.org/2000/svg" xmlns:xlink="http://www.w3.org/1999/xlink">
<g id="graph0" class="graph" transform="scale(1 1) rotate(0) translate(4 2343)">
<polygon fill="white" stroke="none" points="-4,4 -4,-2343 1778.5,-2343 1778.5,4 -4,4"/>
<!-- AmirRank3Convo5 begins. -->
<g id="node1" class="node">
<title>AmirRank3Convo5 begins.</title>
<ellipse fill="none" stroke="orange" cx="426" cy="-2321" rx="109.68" ry="18"/>
<text text-anchor="middle" x="426" y="-2317.3" font-family="Times New Roman,serif" font-size="14.00">AmirRank3Convo5 begins.</text>
</g>
<!-- j271998474 -->
<g id="node2" class="node">
<title>j271998474</title>
<ellipse fill="none" stroke="orange" cx="426" cy="-2248" rx="118.08" ry="18"/>
<text text-anchor="middle" x="426" y="-2244.3" font-family="Times New Roman,serif" font-size="14.00">Check boolean AmirShoulder</text>
</g>
<!-- AmirRank3Convo5 begins.&#45;&gt;j271998474 -->
<g id="edge1" class="edge">
<title>AmirRank3Convo5 begins.&#45;&gt;j271998474</title>
<path fill="none" stroke="black" d="M426,-2302.81C426,-2295.23 426,-2286.1 426,-2277.54"/>
<polygon fill="black" stroke="black" points="429.5,-2277.54 426,-2267.54 422.5,-2277.54 429.5,-2277.54"/>
</g>
<!-- j2568609035 -->
<g id="node3" class="node">
<title>j2568609035</title>
<polygon fill="none" stroke="blue" points="453,-2179 399,-2179 399,-2143 453,-2143 453,-2179"/>
<text text-anchor="middle" x="426" y="-2157.3" font-family="Times New Roman,serif" font-size="14.00">ey...</text>
</g>
<!-- j271998474&#45;&gt;j2568609035 -->
<g id="edge2" class="edge">
<title>j271998474&#45;&gt;j2568609035</title>
<path fill="none" stroke="green" d="M426,-2229.8C426,-2218.58 426,-2203.67 426,-2190.69"/>
<polygon fill="green" stroke="green" points="429.5,-2190.98 426,-2180.98 422.5,-2190.98 429.5,-2190.98"/>
<text text-anchor="middle" x="437" y="-2200.8" font-family="Times New Roman,serif" font-size="14.00">true</text>
</g>
<!-- j337804024 -->
<g id="node4" class="node">
<title>j337804024</title>
<polygon fill="none" stroke="red" points="783,-2125 621,-2125 621,-2089 783,-2089 783,-2125"/>
<text text-anchor="middle" x="702" y="-2103.3" font-family="Times New Roman,serif" font-size="14.00">Ey Amir, ¿estás por aquí?</text>
</g>
<!-- j271998474&#45;&gt;j337804024 -->
<g id="edge3" class="edge">
<title>j271998474&#45;&gt;j337804024</title>
<path fill="none" stroke="brown" d="M459.02,-2230.37C508.48,-2205.46 601.93,-2158.4 657.41,-2130.45"/>
<polygon fill="brown" stroke="brown" points="658.94,-2133.61 666.29,-2125.98 655.79,-2127.35 658.94,-2133.61"/>
<text text-anchor="middle" x="536" y="-2200.8" font-family="Times New Roman,serif" font-size="14.00">false</text>
</g>
<!-- j984287941 -->
<g id="node5" class="node">
<title>j984287941</title>
<polygon fill="none" stroke="red" points="370,-1925 304,-1925 304,-1889 370,-1889 370,-1925"/>
<text text-anchor="middle" x="337" y="-1903.3" font-family="Times New Roman,serif" font-size="14.00">[Ignorar]</text>
</g>
<!-- j271998474&#45;&gt;j984287941 -->
<g id="edge4" class="edge">
<title>j271998474&#45;&gt;j984287941</title>
<path fill="none" stroke="brown" d="M392.41,-2230.28C368.65,-2215.83 341,-2192.47 341,-2162 341,-2162 341,-2162 341,-1979 341,-1965.15 340.23,-1949.81 339.37,-1936.94"/>
<polygon fill="brown" stroke="brown" points="342.86,-1936.72 338.65,-1927 335.88,-1937.23 342.86,-1936.72"/>
<text text-anchor="middle" x="354" y="-2049.3" font-family="Times New Roman,serif" font-size="14.00">false</text>
</g>
<!-- j1086968389 -->
<g id="node6" class="node">
<title>j1086968389</title>
<polygon fill="none" stroke="blue" points="453,-2071 399,-2071 399,-2035 453,-2035 453,-2071"/>
<text text-anchor="middle" x="426" y="-2049.3" font-family="Times New Roman,serif" font-size="14.00">um...</text>
</g>
<!-- j2568609035&#45;&gt;j1086968389 -->
<g id="edge5" class="edge">
<title>j2568609035&#45;&gt;j1086968389</title>
<path fill="none" stroke="black" d="M426,-2142.97C426,-2126.76 426,-2102.06 426,-2082.79"/>
<polygon fill="black" stroke="black" points="429.5,-2082.85 426,-2072.85 422.5,-2082.85 429.5,-2082.85"/>
</g>
<!-- j3255632832 -->
<g id="node7" class="node">
<title>j3255632832</title>
<polygon fill="none" stroke="blue" points="975,-1452 813,-1452 813,-1416 975,-1416 975,-1452"/>
<text text-anchor="middle" x="894" y="-1430.3" font-family="Times New Roman,serif" font-size="14.00">no es un buen momento...</text>
</g>
<!-- j337804024&#45;&gt;j3255632832 -->
<g id="edge6" class="edge">
<title>j337804024&#45;&gt;j3255632832</title>
<path fill="none" stroke="black" d="M783.43,-2099.62C835.75,-2090.54 894,-2068.8 894,-2017 894,-2017 894,-2017 894,-1541 894,-1514.85 894,-1485.07 894,-1463.74"/>
<polygon fill="black" stroke="black" points="897.5,-1463.77 894,-1453.77 890.5,-1463.77 897.5,-1463.77"/>
</g>
<!-- Chat ends. -->
<g id="node8" class="node">
<title>Chat ends.</title>
<ellipse fill="none" stroke="orange" cx="1005" cy="-18" rx="50.09" ry="18"/>
<text text-anchor="middle" x="1005" y="-14.3" font-family="Times New Roman,serif" font-size="14.00">Chat ends.</text>
</g>
<!-- j984287941&#45;&gt;Chat ends. -->
<g id="edge7" class="edge">
<title>j984287941&#45;&gt;Chat ends.</title>
<path fill="none" stroke="black" d="M303.76,-1905.98C218.74,-1905.05 0,-1896.66 0,-1835 0,-1835 0,-1835 0,-90 0,-42.45 725.34,-24.45 943.6,-20.11"/>
<polygon fill="black" stroke="black" points="943.38,-23.61 953.3,-19.92 943.24,-16.62 943.38,-23.61"/>
</g>
<!-- j4209848596 -->
<g id="node9" class="node">
<title>j4209848596</title>
<polygon fill="none" stroke="blue" points="464.5,-1998 387.5,-1998 387.5,-1962 464.5,-1962 464.5,-1998"/>
<text text-anchor="middle" x="426" y="-1976.3" font-family="Times New Roman,serif" font-size="14.00">¿estás ahí?</text>
</g>
<!-- j1086968389&#45;&gt;j4209848596 -->
<g id="edge8" class="edge">
<title>j1086968389&#45;&gt;j4209848596</title>
<path fill="none" stroke="black" d="M426,-2034.81C426,-2027.23 426,-2018.1 426,-2009.54"/>
<polygon fill="black" stroke="black" points="429.5,-2009.54 426,-1999.54 422.5,-2009.54 429.5,-2009.54"/>
</g>
<!-- j2195773932 -->
<g id="node10" class="node">
<title>j2195773932</title>
<polygon fill="none" stroke="red" points="1187.5,-1344 1106.5,-1344 1106.5,-1308 1187.5,-1308 1187.5,-1344"/>
<text text-anchor="middle" x="1147" y="-1322.3" font-family="Times New Roman,serif" font-size="14.00">¿Qué pasa?</text>
</g>
<!-- j3255632832&#45;&gt;j2195773932 -->
<g id="edge9" class="edge">
<title>j3255632832&#45;&gt;j2195773932</title>
<path fill="none" stroke="black" d="M935.49,-1415.61C979.32,-1397.25 1048.49,-1368.27 1095.71,-1348.49"/>
<polygon fill="black" stroke="black" points="1097.05,-1351.72 1104.93,-1344.63 1094.35,-1345.26 1097.05,-1351.72"/>
</g>
<!-- j2557632475 -->
<g id="node11" class="node">
<title>j2557632475</title>
<polygon fill="none" stroke="red" points="988.5,-1290 785.5,-1290 785.5,-1254 988.5,-1254 988.5,-1290"/>
<text text-anchor="middle" x="887" y="-1268.3" font-family="Times New Roman,serif" font-size="14.00">Oh, perdón por molestarte. [Fin.]</text>
</g>
<!-- j3255632832&#45;&gt;j2557632475 -->
<g id="edge10" class="edge">
<title>j3255632832&#45;&gt;j2557632475</title>
<path fill="none" stroke="black" d="M893.24,-1415.57C892.04,-1388.16 889.7,-1334.69 888.25,-1301.59"/>
<polygon fill="black" stroke="black" points="891.76,-1301.76 887.83,-1291.92 884.77,-1302.06 891.76,-1301.76"/>
</g>
<!-- j4209848596&#45;&gt;j984287941 -->
<g id="edge12" class="edge">
<title>j4209848596&#45;&gt;j984287941</title>
<path fill="none" stroke="black" d="M404.46,-1961.81C393.39,-1952.98 379.71,-1942.07 367.57,-1932.39"/>
<polygon fill="black" stroke="black" points="369.84,-1929.72 359.84,-1926.22 365.47,-1935.19 369.84,-1929.72"/>
</g>
<!-- j1403343799 -->
<g id="node12" class="node">
<title>j1403343799</title>
<polygon fill="none" stroke="red" points="486,-1925 388,-1925 388,-1889 486,-1889 486,-1925"/>
<text text-anchor="middle" x="437" y="-1903.3" font-family="Times New Roman,serif" font-size="14.00">Sí, ¿qué pasa?</text>
</g>
<!-- j4209848596&#45;&gt;j1403343799 -->
<g id="edge11" class="edge">
<title>j4209848596&#45;&gt;j1403343799</title>
<path fill="none" stroke="black" d="M428.66,-1961.81C429.85,-1954.14 431.28,-1944.89 432.62,-1936.24"/>
<polygon fill="black" stroke="black" points="436.06,-1936.94 434.13,-1926.52 429.14,-1935.87 436.06,-1936.94"/>
</g>
<!-- j486091081 -->
<g id="node13" class="node">
<title>j486091081</title>
<polygon fill="none" stroke="blue" points="1469,-1236 1415,-1236 1415,-1200 1469,-1200 1469,-1236"/>
<text text-anchor="middle" x="1442" y="-1214.3" font-family="Times New Roman,serif" font-size="14.00">nada</text>
</g>
<!-- j2195773932&#45;&gt;j486091081 -->
<g id="edge13" class="edge">
<title>j2195773932&#45;&gt;j486091081</title>
<path fill="none" stroke="black" d="M1187.71,-1310.37C1244.94,-1289.81 1348.39,-1252.64 1404.07,-1232.63"/>
<polygon fill="black" stroke="black" points="1405.22,-1235.94 1413.44,-1229.26 1402.85,-1229.35 1405.22,-1235.94"/>
</g>
<!-- j2557632475&#45;&gt;Chat ends. -->
<g id="edge14" class="edge">
<title>j2557632475&#45;&gt;Chat ends.</title>
<path fill="none" stroke="black" d="M886.69,-1253.61C886.4,-1235.67 886,-1206.88 886,-1182 886,-1182 886,-1182 886,-1000 886,-878.93 785,-868.07 785,-747 785,-747 785,-747 785,-90 785,-56.02 881.26,-35.93 946.43,-26.22"/>
<polygon fill="black" stroke="black" points="946.91,-29.69 956.31,-24.8 945.91,-22.76 946.91,-29.69"/>
</g>
<!-- j3921511858 -->
<g id="node14" class="node">
<title>j3921511858</title>
<polygon fill="none" stroke="blue" points="538.5,-1852 335.5,-1852 335.5,-1816 538.5,-1816 538.5,-1852"/>
<text text-anchor="middle" x="437" y="-1830.3" font-family="Times New Roman,serif" font-size="14.00">hace un tiempo dijiste que si yo...</text>
</g>
<!-- j1403343799&#45;&gt;j3921511858 -->
<g id="edge15" class="edge">
<title>j1403343799&#45;&gt;j3921511858</title>
<path fill="none" stroke="black" d="M437,-1888.81C437,-1881.23 437,-1872.1 437,-1863.54"/>
<polygon fill="black" stroke="black" points="440.5,-1863.54 437,-1853.54 433.5,-1863.54 440.5,-1863.54"/>
</g>
<!-- j3343767058 -->
<g id="node15" class="node">
<title>j3343767058</title>
<polygon fill="none" stroke="red" points="1532,-1163 1352,-1163 1352,-1127 1532,-1127 1532,-1163"/>
<text text-anchor="middle" x="1442" y="-1141.3" font-family="Times New Roman,serif" font-size="14.00">Está claro que algo anda mal.</text>
</g>
<!-- j486091081&#45;&gt;j3343767058 -->
<g id="edge16" class="edge">
<title>j486091081&#45;&gt;j3343767058</title>
<path fill="none" stroke="black" d="M1442,-1199.81C1442,-1192.23 1442,-1183.1 1442,-1174.54"/>
<polygon fill="black" stroke="black" points="1445.5,-1174.54 1442,-1164.54 1438.5,-1174.54 1445.5,-1174.54"/>
</g>
<!-- j752508597 -->
<g id="node16" class="node">
<title>j752508597</title>
<polygon fill="none" stroke="red" points="1774.5,-1109 1573.5,-1109 1573.5,-1073 1774.5,-1073 1774.5,-1109"/>
<text text-anchor="middle" x="1674" y="-1087.3" font-family="Times New Roman,serif" font-size="14.00">Lo siento, te dejaré en paz. [Fin.]</text>
</g>
<!-- j486091081&#45;&gt;j752508597 -->
<g id="edge17" class="edge">
<title>j486091081&#45;&gt;j752508597</title>
<path fill="none" stroke="black" d="M1469.07,-1202.42C1509.05,-1180.88 1584.24,-1140.36 1631.59,-1114.85"/>
<polygon fill="black" stroke="black" points="1633.06,-1118.04 1640.2,-1110.21 1629.74,-1111.87 1633.06,-1118.04"/>
</g>
<!-- j3679264075 -->
<g id="node17" class="node">
<title>j3679264075</title>
<polygon fill="none" stroke="blue" points="645.5,-1779 228.5,-1779 228.5,-1743 645.5,-1743 645.5,-1779"/>
<text text-anchor="middle" x="437" y="-1757.3" font-family="Times New Roman,serif" font-size="14.00">si necesitaba hablar, podías escucharme &#45; um &#45; ¿sigue en pie esa oferta?</text>
</g>
<!-- j3921511858&#45;&gt;j3679264075 -->
<g id="edge18" class="edge">
<title>j3921511858&#45;&gt;j3679264075</title>
<path fill="none" stroke="black" d="M437,-1815.81C437,-1808.23 437,-1799.1 437,-1790.54"/>
<polygon fill="black" stroke="black" points="440.5,-1790.54 437,-1780.54 433.5,-1790.54 440.5,-1790.54"/>
</g>
<!-- j3920895359 -->
<g id="node18" class="node">
<title>j3920895359</title>
<polygon fill="none" stroke="blue" points="1513,-1055 1371,-1055 1371,-1019 1513,-1019 1513,-1055"/>
<text text-anchor="middle" x="1442" y="-1033.3" font-family="Times New Roman,serif" font-size="14.00">no importa una mierda</text>
</g>
<!-- j3343767058&#45;&gt;j3920895359 -->
<g id="edge19" class="edge">
<title>j3343767058&#45;&gt;j3920895359</title>
<path fill="none" stroke="black" d="M1442,-1126.97C1442,-1110.76 1442,-1086.06 1442,-1066.79"/>
<polygon fill="black" stroke="black" points="1445.5,-1066.85 1442,-1056.85 1438.5,-1066.85 1445.5,-1066.85"/>
</g>
<!-- j752508597&#45;&gt;Chat ends. -->
<g id="edge20" class="edge">
<title>j752508597&#45;&gt;Chat ends.</title>
<path fill="none" stroke="black" d="M1686.44,-1072.53C1697.53,-1055.23 1712,-1027.55 1712,-1001 1712,-1001 1712,-1001 1712,-90 1712,-25.41 1238.79,-18.98 1066.66,-18.78"/>
<polygon fill="black" stroke="black" points="1066.79,-15.28 1056.79,-18.78 1066.79,-22.28 1066.79,-15.28"/>
</g>
<!-- j1364483874 -->
<g id="node19" class="node">
<title>j1364483874</title>
<polygon fill="none" stroke="blue" points="790.5,-1706 83.5,-1706 83.5,-1670 790.5,-1670 790.5,-1706"/>
<text text-anchor="middle" x="437" y="-1684.3" font-family="Times New Roman,serif" font-size="14.00">entiendo totalmente si no es así jaja quién quiere perder el tiempo con el pobre bebé amir y sus sentimientos tristes ¡¡0h n0!!</text>
</g>
<!-- j3679264075&#45;&gt;j1364483874 -->
<g id="edge21" class="edge">
<title>j3679264075&#45;&gt;j1364483874</title>
<path fill="none" stroke="black" d="M437,-1742.81C437,-1735.23 437,-1726.1 437,-1717.54"/>
<polygon fill="black" stroke="black" points="440.5,-1717.54 437,-1707.54 433.5,-1717.54 440.5,-1717.54"/>
</g>
<!-- j969055069 -->
<g id="node20" class="node">
<title>j969055069</title>
<polygon fill="none" stroke="blue" points="1477,-982 1407,-982 1407,-946 1477,-946 1477,-982"/>
<text text-anchor="middle" x="1442" y="-960.3" font-family="Times New Roman,serif" font-size="14.00">déjalo así</text>
</g>
<!-- j3920895359&#45;&gt;j969055069 -->
<g id="edge22" class="edge">
<title>j3920895359&#45;&gt;j969055069</title>
<path fill="none" stroke="black" d="M1442,-1018.81C1442,-1011.23 1442,-1002.1 1442,-993.54"/>
<polygon fill="black" stroke="black" points="1445.5,-993.54 1442,-983.54 1438.5,-993.54 1445.5,-993.54"/>
</g>
<!-- j826598847 -->
<g id="node21" class="node">
<title>j826598847</title>
<polygon fill="none" stroke="red" points="303.5,-1633 28.5,-1633 28.5,-1597 303.5,-1597 303.5,-1633"/>
<text text-anchor="middle" x="166" y="-1611.3" font-family="Times New Roman,serif" font-size="14.00">Arregla tus propios problemas, hombre. [Fin.]</text>
</g>
<!-- j1364483874&#45;&gt;j826598847 -->
<g id="edge23" class="edge">
<title>j1364483874&#45;&gt;j826598847</title>
<path fill="none" stroke="black" d="M370.36,-1669.54C331.97,-1659.48 283.53,-1646.79 243.45,-1636.29"/>
<polygon fill="black" stroke="black" points="244.41,-1632.92 233.85,-1633.78 242.63,-1639.7 244.41,-1632.92"/>
</g>
<!-- j1883307657 -->
<g id="node22" class="node">
<title>j1883307657</title>
<polygon fill="none" stroke="red" points="552,-1633 322,-1633 322,-1597 552,-1597 552,-1633"/>
<text text-anchor="middle" x="437" y="-1611.3" font-family="Times New Roman,serif" font-size="14.00">*Por supuesto*, la oferta sigue en pie.</text>
</g>
<!-- j1364483874&#45;&gt;j1883307657 -->
<g id="edge24" class="edge">
<title>j1364483874&#45;&gt;j1883307657</title>
<path fill="none" stroke="black" d="M437,-1669.81C437,-1662.23 437,-1653.1 437,-1644.54"/>
<polygon fill="black" stroke="black" points="440.5,-1644.54 437,-1634.54 433.5,-1644.54 440.5,-1644.54"/>
</g>
<!-- j3710450533 -->
<g id="node23" class="node">
<title>j3710450533</title>
<polygon fill="none" stroke="red" points="725.5,-1633 570.5,-1633 570.5,-1597 725.5,-1597 725.5,-1633"/>
<text text-anchor="middle" x="648" y="-1611.3" font-family="Times New Roman,serif" font-size="14.00">Oye, oye, más despacio.</text>
</g>
<!-- j1364483874&#45;&gt;j3710450533 -->
<g id="edge25" class="edge">
<title>j1364483874&#45;&gt;j3710450533</title>
<path fill="none" stroke="black" d="M488.89,-1669.54C518.14,-1659.7 554.88,-1647.33 585.69,-1636.97"/>
<polygon fill="black" stroke="black" points="586.52,-1640.38 594.88,-1633.87 584.29,-1633.75 586.52,-1640.38"/>
</g>
<!-- j1059949662 -->
<g id="node24" class="node">
<title>j1059949662</title>
<polygon fill="none" stroke="red" points="1571,-909 1313,-909 1313,-873 1571,-873 1571,-909"/>
<text text-anchor="middle" x="1442" y="-887.3" font-family="Times New Roman,serif" font-size="14.00">Amir, puedes hablar conmigo. ¿Estás bien?</text>
</g>
<!-- j969055069&#45;&gt;j1059949662 -->
<g id="edge26" class="edge">
<title>j969055069&#45;&gt;j1059949662</title>
<path fill="none" stroke="black" d="M1442,-945.81C1442,-938.23 1442,-929.1 1442,-920.54"/>
<polygon fill="black" stroke="black" points="1445.5,-920.54 1442,-910.54 1438.5,-920.54 1445.5,-920.54"/>
</g>
<!-- j1629911140 -->
<g id="node25" class="node">
<title>j1629911140</title>
<polygon fill="none" stroke="red" points="1249,-909 1061,-909 1061,-873 1249,-873 1249,-909"/>
<text text-anchor="middle" x="1155" y="-887.3" font-family="Times New Roman,serif" font-size="14.00">Sólo estoy tratando de ayudar.</text>
</g>
<!-- j969055069&#45;&gt;j1629911140 -->
<g id="edge27" class="edge">
<title>j969055069&#45;&gt;j1629911140</title>
<path fill="none" stroke="black" d="M1406.52,-954.22C1364.34,-943.79 1292.6,-926.04 1236.51,-912.16"/>
<polygon fill="black" stroke="black" points="1237.53,-908.81 1226.98,-909.81 1235.85,-915.61 1237.53,-908.81"/>
</g>
<!-- j1591548888 -->
<g id="node26" class="node">
<title>j1591548888</title>
<polygon fill="none" stroke="red" points="1666,-855 1594,-855 1594,-819 1666,-819 1666,-855"/>
<text text-anchor="middle" x="1630" y="-833.3" font-family="Times New Roman,serif" font-size="14.00">Ok. [Fin.]</text>
</g>
<!-- j969055069&#45;&gt;j1591548888 -->
<g id="edge28" class="edge">
<title>j969055069&#45;&gt;j1591548888</title>
<path fill="none" stroke="black" d="M1477.47,-955.22C1507.19,-947.36 1549.53,-932.9 1580,-909 1595.04,-897.21 1607.44,-879.69 1616.13,-865"/>
<polygon fill="black" stroke="black" points="1618.94,-867.14 1620.8,-856.71 1612.84,-863.71 1618.94,-867.14"/>
</g>
<!-- j2435207761 -->
<g id="node27" class="node">
<title>j2435207761</title>
<polygon fill="none" stroke="blue" points="241,-1560 71,-1560 71,-1524 241,-1524 241,-1560"/>
<text text-anchor="middle" x="156" y="-1538.3" font-family="Times New Roman,serif" font-size="14.00">siempre cayendo en estafas</text>
</g>
<!-- j826598847&#45;&gt;j2435207761 -->
<g id="edge29" class="edge">
<title>j826598847&#45;&gt;j2435207761</title>
<path fill="none" stroke="black" d="M163.58,-1596.81C162.5,-1589.14 161.2,-1579.89 159.98,-1571.24"/>
<polygon fill="black" stroke="black" points="163.47,-1570.94 158.61,-1561.53 156.54,-1571.92 163.47,-1570.94"/>
</g>
<!-- j3970934611 -->
<g id="node28" class="node">
<title>j3970934611</title>
<polygon fill="none" stroke="red" points="552.5,-1506 349.5,-1506 349.5,-1470 552.5,-1470 552.5,-1506"/>
<text text-anchor="middle" x="451" y="-1484.3" font-family="Times New Roman,serif" font-size="14.00">¿Podrías explicarme qué sucede?</text>
</g>
<!-- j1883307657&#45;&gt;j3970934611 -->
<g id="edge30" class="edge">
<title>j1883307657&#45;&gt;j3970934611</title>
<path fill="none" stroke="black" d="M428.65,-1596.6C420.97,-1578.11 412.03,-1548.26 421,-1524 422.08,-1521.08 423.53,-1518.23 425.21,-1515.51"/>
<polygon fill="black" stroke="black" points="428.01,-1517.6 431.14,-1507.48 422.38,-1513.44 428.01,-1517.6"/>
</g>
<!-- j3397131143 -->
<g id="node29" class="node">
<title>j3397131143</title>
<polygon fill="none" stroke="blue" points="866,-1560 430,-1560 430,-1524 866,-1524 866,-1560"/>
<text text-anchor="middle" x="648" y="-1538.3" font-family="Times New Roman,serif" font-size="14.00">¿NOS CONOCEMOS? HOLA, SOY AMIR, UN GUSTO CONOCERTE</text>
</g>
<!-- j3710450533&#45;&gt;j3397131143 -->
<g id="edge31" class="edge">
<title>j3710450533&#45;&gt;j3397131143</title>
<path fill="none" stroke="black" d="M648,-1596.81C648,-1589.23 648,-1580.1 648,-1571.54"/>
<polygon fill="black" stroke="black" points="651.5,-1571.54 648,-1561.54 644.5,-1571.54 651.5,-1571.54"/>
</g>
<!-- j2921978197 -->
<g id="node30" class="node">
<title>j2921978197</title>
<polygon fill="none" stroke="blue" points="1645.5,-801 1238.5,-801 1238.5,-765 1645.5,-765 1645.5,-801"/>
<text text-anchor="middle" x="1442" y="-779.3" font-family="Times New Roman,serif" font-size="14.00">NO IMPORTA SI ESTOY BIEN O NO MIRA A TU ALREDEDOR</text>
</g>
<!-- j1059949662&#45;&gt;j2921978197 -->
<g id="edge32" class="edge">
<title>j1059949662&#45;&gt;j2921978197</title>
<path fill="none" stroke="black" d="M1442,-872.97C1442,-856.76 1442,-832.06 1442,-812.79"/>
<polygon fill="black" stroke="black" points="1445.5,-812.85 1442,-802.85 1438.5,-812.85 1445.5,-812.85"/>
</g>
<!-- j2842851689 -->
<g id="node31" class="node">
<title>j2842851689</title>
<polygon fill="none" stroke="blue" points="1220.5,-801 813.5,-801 813.5,-765 1220.5,-765 1220.5,-801"/>
<text text-anchor="middle" x="1017" y="-779.3" font-family="Times New Roman,serif" font-size="14.00">NO NECESITO QUE ME ARROJEN ESTA MIERDA A LA CARA</text>
</g>
<!-- j1629911140&#45;&gt;j2842851689 -->
<g id="edge33" class="edge">
<title>j1629911140&#45;&gt;j2842851689</title>
<path fill="none" stroke="black" d="M1132.52,-872.73C1109.67,-855.18 1074.06,-827.83 1048.42,-808.14"/>
<polygon fill="black" stroke="black" points="1050.73,-805.5 1040.67,-802.18 1046.47,-811.05 1050.73,-805.5"/>
</g>
<!-- j1591548888&#45;&gt;Chat ends. -->
<g id="edge34" class="edge">
<title>j1591548888&#45;&gt;Chat ends.</title>
<path fill="none" stroke="black" d="M1644.65,-818.51C1657.45,-801.4 1674,-774.06 1674,-747 1674,-747 1674,-747 1674,-90 1674,-29.26 1232.32,-20.35 1066.72,-19.15"/>
<polygon fill="black" stroke="black" points="1066.82,-15.65 1056.8,-19.08 1066.77,-22.65 1066.82,-15.65"/>
</g>
<!-- j2322051913 -->
<g id="node32" class="node">
<title>j2322051913</title>
<ellipse fill="none" stroke="orange" cx="151" cy="-1380" rx="133.78" ry="18"/>
<text text-anchor="middle" x="151" y="-1376.3" font-family="Times New Roman,serif" font-size="14.00">Boolean AmirNoDate is now true.</text>
</g>
<!-- j2435207761&#45;&gt;j2322051913 -->
<g id="edge35" class="edge">
<title>j2435207761&#45;&gt;j2322051913</title>
<path fill="none" stroke="black" d="M155.46,-1523.57C154.6,-1496.16 152.93,-1442.69 151.89,-1409.59"/>
<polygon fill="black" stroke="black" points="155.4,-1409.8 151.59,-1399.92 148.41,-1410.02 155.4,-1409.8"/>
</g>
<!-- j485599120 -->
<g id="node33" class="node">
<title>j485599120</title>
<polygon fill="none" stroke="blue" points="579.5,-1344 434.5,-1344 434.5,-1308 579.5,-1308 579.5,-1344"/>
<text text-anchor="middle" x="507" y="-1322.3" font-family="Times New Roman,serif" font-size="14.00">::respiración profunda::</text>
</g>
<!-- j3970934611&#45;&gt;j485599120 -->
<g id="edge36" class="edge">
<title>j3970934611&#45;&gt;j485599120</title>
<path fill="none" stroke="black" d="M456.03,-1469.68C460.3,-1455.24 466.72,-1434.17 473,-1416 480.13,-1395.35 488.96,-1372.32 495.83,-1354.86"/>
<polygon fill="black" stroke="black" points="499.03,-1356.27 499.46,-1345.68 492.53,-1353.69 499.03,-1356.27"/>
</g>
<!-- j171311235 -->
<g id="node34" class="node">
<title>j171311235</title>
<polygon fill="none" stroke="blue" points="628,-1452 482,-1452 482,-1416 628,-1416 628,-1452"/>
<text text-anchor="middle" x="555" y="-1430.3" font-family="Times New Roman,serif" font-size="14.00">pero, entiendo el punto</text>
</g>
<!-- j3397131143&#45;&gt;j171311235 -->
<g id="edge37" class="edge">
<title>j3397131143&#45;&gt;j171311235</title>
<path fill="none" stroke="black" d="M633.06,-1523.97C618.1,-1506.92 594.88,-1480.46 577.66,-1460.82"/>
<polygon fill="black" stroke="black" points="580.44,-1458.69 571.21,-1453.48 575.18,-1463.3 580.44,-1458.69"/>
</g>
<!-- j2843445171 -->
<g id="node35" class="node">
<title>j2843445171</title>
<polygon fill="none" stroke="blue" points="1422.5,-728 1197.5,-728 1197.5,-692 1422.5,-692 1422.5,-728"/>
<text text-anchor="middle" x="1310" y="-706.3" font-family="Times New Roman,serif" font-size="14.00">BUU BUU AMIR EL POBRE BEBÉ</text>
</g>
<!-- j2921978197&#45;&gt;j2843445171 -->
<g id="edge38" class="edge">
<title>j2921978197&#45;&gt;j2843445171</title>
<path fill="none" stroke="black" d="M1409.71,-764.63C1392.45,-755.35 1370.99,-743.8 1352.4,-733.81"/>
<polygon fill="black" stroke="black" points="1354.21,-730.81 1343.75,-729.15 1350.9,-736.97 1354.21,-730.81"/>
</g>
<!-- j2842851689&#45;&gt;j2843445171 -->
<g id="edge39" class="edge">
<title>j2842851689&#45;&gt;j2843445171</title>
<path fill="none" stroke="black" d="M1089.05,-764.54C1130.75,-754.44 1183.4,-741.68 1226.85,-731.15"/>
<polygon fill="black" stroke="black" points="1227.61,-734.57 1236.5,-728.81 1225.96,-727.76 1227.61,-734.57"/>
</g>
<!-- j2322051913&#45;&gt;Chat ends. -->
<g id="edge40" class="edge">
<title>j2322051913&#45;&gt;Chat ends.</title>
<path fill="none" stroke="black" d="M144.84,-1361.62C138.02,-1340.83 128,-1304.82 128,-1273 128,-1273 128,-1273 128,-90 128,-49.02 744.28,-26.85 943.61,-20.76"/>
<polygon fill="black" stroke="black" points="943.62,-24.26 953.5,-20.46 943.4,-17.26 943.62,-24.26"/>
</g>
<!-- j2348960023 -->
<g id="node36" class="node">
<title>j2348960023</title>
<polygon fill="none" stroke="blue" points="578,-1236 436,-1236 436,-1200 578,-1200 578,-1236"/>
<text text-anchor="middle" x="507" y="-1214.3" font-family="Times New Roman,serif" font-size="14.00">::exhalación profunda::</text>
</g>
<!-- j485599120&#45;&gt;j2348960023 -->
<g id="edge41" class="edge">
<title>j485599120&#45;&gt;j2348960023</title>
<path fill="none" stroke="black" d="M507,-1307.97C507,-1291.76 507,-1267.06 507,-1247.79"/>
<polygon fill="black" stroke="black" points="510.5,-1247.85 507,-1237.85 503.5,-1247.85 510.5,-1247.85"/>
</g>
<!-- j171311235&#45;&gt;j485599120 -->
<g id="edge42" class="edge">
<title>j171311235&#45;&gt;j485599120</title>
<path fill="none" stroke="black" d="M547.29,-1415.97C539.81,-1399.45 528.34,-1374.12 519.54,-1354.7"/>
<polygon fill="black" stroke="black" points="522.79,-1353.39 515.48,-1345.72 516.41,-1356.27 522.79,-1353.39"/>
</g>
<!-- j1935327696 -->
<g id="node37" class="node">
<title>j1935327696</title>
<polygon fill="none" stroke="blue" points="1529,-655 1091,-655 1091,-619 1529,-619 1529,-655"/>
<text text-anchor="middle" x="1310" y="-633.3" font-family="Times New Roman,serif" font-size="14.00">PERDIDO EN UNA ZONA DE GUERRA EN EL LADO EQUIVOCADO</text>
</g>
<!-- j2843445171&#45;&gt;j1935327696 -->
<g id="edge43" class="edge">
<title>j2843445171&#45;&gt;j1935327696</title>
<path fill="none" stroke="black" d="M1310,-691.81C1310,-684.23 1310,-675.1 1310,-666.54"/>
<polygon fill="black" stroke="black" points="1313.5,-666.54 1310,-656.54 1306.5,-666.54 1313.5,-666.54"/>
</g>
<!-- j2349312620 -->
<g id="node38" class="node">
<title>j2349312620</title>
<polygon fill="none" stroke="blue" points="578,-1163 436,-1163 436,-1127 578,-1127 578,-1163"/>
<text text-anchor="middle" x="507" y="-1141.3" font-family="Times New Roman,serif" font-size="14.00">yo no pertenezco aquí</text>
</g>
<!-- j2348960023&#45;&gt;j2349312620 -->
<g id="edge44" class="edge">
<title>j2348960023&#45;&gt;j2349312620</title>
<path fill="none" stroke="black" d="M507,-1199.81C507,-1192.23 507,-1183.1 507,-1174.54"/>
<polygon fill="black" stroke="black" points="510.5,-1174.54 507,-1164.54 503.5,-1174.54 510.5,-1174.54"/>
</g>
<!-- j3486560124 -->
<g id="node39" class="node">
<title>j3486560124</title>
<polygon fill="none" stroke="blue" points="1441.5,-582 1178.5,-582 1178.5,-546 1441.5,-546 1441.5,-582"/>
<text text-anchor="middle" x="1310" y="-560.3" font-family="Times New Roman,serif" font-size="14.00">NO NECESITO TU MALDITA LÁSTIMA</text>
</g>
<!-- j1935327696&#45;&gt;j3486560124 -->
<g id="edge45" class="edge">
<title>j1935327696&#45;&gt;j3486560124</title>
<path fill="none" stroke="black" d="M1310,-618.81C1310,-611.23 1310,-602.1 1310,-593.54"/>
<polygon fill="black" stroke="black" points="1313.5,-593.54 1310,-583.54 1306.5,-593.54 1313.5,-593.54"/>
</g>
<!-- j569085150 -->
<g id="node40" class="node">
<title>j569085150</title>
<polygon fill="none" stroke="blue" points="652.5,-1055 361.5,-1055 361.5,-1019 652.5,-1019 652.5,-1055"/>
<text text-anchor="middle" x="507" y="-1033.3" font-family="Times New Roman,serif" font-size="14.00">siento que todos los demás PERTENECEN aquí</text>
</g>
<!-- j2349312620&#45;&gt;j569085150 -->
<g id="edge46" class="edge">
<title>j2349312620&#45;&gt;j569085150</title>
<path fill="none" stroke="black" d="M507,-1126.97C507,-1110.76 507,-1086.06 507,-1066.79"/>
<polygon fill="black" stroke="black" points="510.5,-1066.85 507,-1056.85 503.5,-1066.85 510.5,-1066.85"/>
</g>
<!-- j2127084489 -->
<g id="node41" class="node">
<title>j2127084489</title>
<polygon fill="none" stroke="red" points="1419,-509 935,-509 935,-473 1419,-473 1419,-509"/>
<text text-anchor="middle" x="1177" y="-487.3" font-family="Times New Roman,serif" font-size="14.00">¿Quién ha hablado de lástima? Eres un hombre adulto capaz de cuidar de sí mismo.</text>
</g>
<!-- j3486560124&#45;&gt;j2127084489 -->
<g id="edge47" class="edge">
<title>j3486560124&#45;&gt;j2127084489</title>
<path fill="none" stroke="black" d="M1277.46,-545.63C1260.07,-536.35 1238.45,-524.8 1219.72,-514.81"/>
<polygon fill="black" stroke="black" points="1221.47,-511.77 1211,-510.15 1218.17,-517.95 1221.47,-511.77"/>
</g>
<!-- j2749140788 -->
<g id="node42" class="node">
<title>j2749140788</title>
<polygon fill="none" stroke="red" points="1576,-455 1366,-455 1366,-419 1576,-419 1576,-455"/>
<text text-anchor="middle" x="1471" y="-433.3" font-family="Times New Roman,serif" font-size="14.00">Mierda, está bien. Lo siento. [Fin.]</text>
</g>
<!-- j3486560124&#45;&gt;j2749140788 -->
<g id="edge48" class="edge">
<title>j3486560124&#45;&gt;j2749140788</title>
<path fill="none" stroke="black" d="M1365.4,-545.59C1386.65,-536.99 1410.08,-524.96 1428,-509 1441.29,-497.16 1451.77,-480.22 1459.05,-465.85"/>
<polygon fill="black" stroke="black" points="1462.19,-467.39 1463.34,-456.86 1455.87,-464.38 1462.19,-467.39"/>
</g>
<!-- j12350297 -->
<g id="node43" class="node">
<title>j12350297</title>
<polygon fill="none" stroke="blue" points="858,-982 156,-982 156,-946 858,-946 858,-982"/>
<text text-anchor="middle" x="507" y="-960.3" font-family="Times New Roman,serif" font-size="14.00">míralos. son rudos, soldados, luchadores, INCREÍBLEMENTE sexys, seguros de si mismos. SALVANDO EL MUNDO.</text>
</g>
<!-- j569085150&#45;&gt;j12350297 -->
<g id="edge49" class="edge">
<title>j569085150&#45;&gt;j12350297</title>
<path fill="none" stroke="black" d="M507,-1018.81C507,-1011.23 507,-1002.1 507,-993.54"/>
<polygon fill="black" stroke="black" points="510.5,-993.54 507,-983.54 503.5,-993.54 510.5,-993.54"/>
</g>
<!-- j3342440852 -->
<g id="node44" class="node">
<title>j3342440852</title>
<polygon fill="none" stroke="red" points="1453,-401 813,-401 813,-365 1453,-365 1453,-401"/>
<text text-anchor="middle" x="1133" y="-379.3" font-family="Times New Roman,serif" font-size="14.00">Pero también eres mi amigo y algo anda mal y estoy tratando de AYUDAR a mi maldito AMIGO, ¿de acuerdo?</text>
</g>
<!-- j2127084489&#45;&gt;j3342440852 -->
<g id="edge50" class="edge">
<title>j2127084489&#45;&gt;j3342440852</title>
<path fill="none" stroke="black" d="M1169.93,-472.97C1163.11,-456.53 1152.66,-431.35 1144.61,-411.97"/>
<polygon fill="black" stroke="black" points="1147.84,-410.63 1140.78,-402.74 1141.38,-413.32 1147.84,-410.63"/>
</g>
<!-- j2749140788&#45;&gt;Chat ends. -->
<g id="edge51" class="edge">
<title>j2749140788&#45;&gt;Chat ends.</title>
<path fill="none" stroke="black" d="M1474.11,-418.67C1477.04,-400.78 1481,-372.03 1481,-347 1481,-347 1481,-347 1481,-90 1481,-48.48 1194.09,-28.64 1065.77,-21.84"/>
<polygon fill="black" stroke="black" points="1066.27,-18.36 1056.1,-21.33 1065.91,-25.35 1066.27,-18.36"/>
</g>
<!-- j3393818018 -->
<g id="node45" class="node">
<title>j3393818018</title>
<polygon fill="none" stroke="blue" points="560.5,-909 467.5,-909 467.5,-873 560.5,-873 560.5,-909"/>
<text text-anchor="middle" x="514" y="-887.3" font-family="Times New Roman,serif" font-size="14.00">ahora mírame</text>
</g>
<!-- j12350297&#45;&gt;j3393818018 -->
<g id="edge52" class="edge">
<title>j12350297&#45;&gt;j3393818018</title>
<path fill="none" stroke="black" d="M508.69,-945.81C509.45,-938.14 510.36,-928.89 511.22,-920.24"/>
<polygon fill="black" stroke="black" points="514.67,-920.83 512.17,-910.54 507.71,-920.14 514.67,-920.83"/>
</g>
<!-- j4000706058 -->
<g id="node46" class="node">
<title>j4000706058</title>
<polygon fill="none" stroke="blue" points="1162.5,-328 1091.5,-328 1091.5,-292 1162.5,-292 1162.5,-328"/>
<text text-anchor="middle" x="1127" y="-306.3" font-family="Times New Roman,serif" font-size="14.00">como sea</text>
</g>
<!-- j3342440852&#45;&gt;j4000706058 -->
<g id="edge53" class="edge">
<title>j3342440852&#45;&gt;j4000706058</title>
<path fill="none" stroke="black" d="M1131.55,-364.81C1130.9,-357.14 1130.12,-347.89 1129.39,-339.24"/>
<polygon fill="black" stroke="black" points="1132.9,-339.21 1128.57,-329.54 1125.92,-339.8 1132.9,-339.21"/>
</g>
<!-- j3030115460 -->
<g id="node47" class="node">
<title>j3030115460</title>
<polygon fill="none" stroke="blue" points="717.5,-801 332.5,-801 332.5,-765 717.5,-765 717.5,-801"/>
<text text-anchor="middle" x="525" y="-779.3" font-family="Times New Roman,serif" font-size="14.00">solo un nerd que... que a veces se despierta a la mitad de la noche</text>
</g>
<!-- j3393818018&#45;&gt;j3030115460 -->
<g id="edge54" class="edge">
<title>j3393818018&#45;&gt;j3030115460</title>
<path fill="none" stroke="black" d="M515.77,-872.97C517.45,-856.76 520.01,-832.06 522.01,-812.79"/>
<polygon fill="black" stroke="black" points="525.49,-813.15 523.04,-802.85 518.53,-812.43 525.49,-813.15"/>
</g>
<!-- j263405508 -->
<g id="node48" class="node">
<title>j263405508</title>
<polygon fill="none" stroke="blue" points="1217.5,-255 988.5,-255 988.5,-219 1217.5,-219 1217.5,-255"/>
<text text-anchor="middle" x="1103" y="-233.3" font-family="Times New Roman,serif" font-size="14.00">estoydemasiadoalteradoparaestoahora</text>
</g>
<!-- j4000706058&#45;&gt;j263405508 -->
<g id="edge55" class="edge">
<title>j4000706058&#45;&gt;j263405508</title>
<path fill="none" stroke="black" d="M1121.19,-291.81C1118.54,-283.96 1115.33,-274.47 1112.35,-265.66"/>
<polygon fill="black" stroke="black" points="1115.76,-264.82 1109.24,-256.46 1109.13,-267.06 1115.76,-264.82"/>
</g>
<!-- j3197798413 -->
<g id="node49" class="node">
<title>j3197798413</title>
<polygon fill="none" stroke="blue" points="706.5,-728 383.5,-728 383.5,-692 706.5,-692 706.5,-728"/>
<text text-anchor="middle" x="545" y="-706.3" font-family="Times New Roman,serif" font-size="14.00">sudoroso y frío, temblando como si tuviera ocho años</text>
</g>
<!-- j3030115460&#45;&gt;j3197798413 -->
<g id="edge56" class="edge">
<title>j3030115460&#45;&gt;j3197798413</title>
<path fill="none" stroke="black" d="M529.84,-764.81C532.03,-757.05 534.67,-747.68 537.13,-738.95"/>
<polygon fill="black" stroke="black" points="540.45,-740.06 539.79,-729.49 533.71,-738.16 540.45,-740.06"/>
</g>
<!-- j1958041516 -->
<g id="node50" class="node">
<title>j1958041516</title>
<ellipse fill="none" stroke="orange" cx="1007" cy="-164" rx="124.28" ry="18"/>
<text text-anchor="middle" x="1007" y="-160.3" font-family="Times New Roman,serif" font-size="14.00">Boolean AmirFight is now true.</text>
</g>
<!-- j263405508&#45;&gt;j1958041516 -->
<g id="edge57" class="edge">
<title>j263405508&#45;&gt;j1958041516</title>
<path fill="none" stroke="black" d="M1079.76,-218.81C1067.5,-209.74 1052.26,-198.48 1038.91,-188.6"/>
<polygon fill="black" stroke="black" points="1041.36,-186.06 1031.24,-182.93 1037.2,-191.69 1041.36,-186.06"/>
</g>
<!-- j889743207 -->
<g id="node51" class="node">
<title>j889743207</title>
<polygon fill="none" stroke="blue" points="585.5,-655 506.5,-655 506.5,-619 585.5,-619 585.5,-655"/>
<text text-anchor="middle" x="546" y="-633.3" font-family="Times New Roman,serif" font-size="14.00">con pánico</text>
</g>
<!-- j3197798413&#45;&gt;j889743207 -->
<g id="edge58" class="edge">
<title>j3197798413&#45;&gt;j889743207</title>
<path fill="none" stroke="black" d="M545.24,-691.81C545.35,-684.23 545.48,-675.1 545.6,-666.54"/>
<polygon fill="black" stroke="black" points="549.1,-666.59 545.74,-656.54 542.1,-666.49 549.1,-666.59"/>
</g>
<!-- j2895199346 -->
<g id="node52" class="node">
<title>j2895199346</title>
<ellipse fill="none" stroke="orange" cx="1005" cy="-91" rx="64.19" ry="18"/>
<text text-anchor="middle" x="1005" y="-87.3" font-family="Times New Roman,serif" font-size="14.00">+20 Chemistry</text>
</g>
<!-- j1958041516&#45;&gt;j2895199346 -->
<g id="edge59" class="edge">
<title>j1958041516&#45;&gt;j2895199346</title>
<path fill="none" stroke="black" d="M1006.52,-145.81C1006.3,-138.14 1006.04,-128.89 1005.8,-120.24"/>
<polygon fill="black" stroke="black" points="1009.3,-120.44 1005.52,-110.54 1002.31,-120.64 1009.3,-120.44"/>
</g>
<!-- j2951756292 -->
<g id="node53" class="node">
<title>j2951756292</title>
<polygon fill="none" stroke="blue" points="642.5,-582 457.5,-582 457.5,-546 642.5,-546 642.5,-582"/>
<text text-anchor="middle" x="550" y="-560.3" font-family="Times New Roman,serif" font-size="14.00">porque todo lo que puedo ver</text>
</g>
<!-- j889743207&#45;&gt;j2951756292 -->
<g id="edge60" class="edge">
<title>j889743207&#45;&gt;j2951756292</title>
<path fill="none" stroke="black" d="M546.97,-618.81C547.4,-611.14 547.92,-601.89 548.41,-593.24"/>
<polygon fill="black" stroke="black" points="551.89,-593.72 548.96,-583.54 544.9,-593.33 551.89,-593.72"/>
</g>
<!-- j2895199346&#45;&gt;Chat ends. -->
<g id="edge61" class="edge">
<title>j2895199346&#45;&gt;Chat ends.</title>
<path fill="none" stroke="black" d="M1005,-72.81C1005,-65.23 1005,-56.1 1005,-47.54"/>
<polygon fill="black" stroke="black" points="1008.5,-47.54 1005,-37.54 1001.5,-47.54 1008.5,-47.54"/>
</g>
<!-- j1844753961 -->
<g id="node54" class="node">
<title>j1844753961</title>
<polygon fill="none" stroke="blue" points="601,-509 509,-509 509,-473 601,-473 601,-509"/>
<text text-anchor="middle" x="555" y="-487.3" font-family="Times New Roman,serif" font-size="14.00">son sus caras</text>
</g>
<!-- j2951756292&#45;&gt;j1844753961 -->
<g id="edge62" class="edge">
<title>j2951756292&#45;&gt;j1844753961</title>
<path fill="none" stroke="black" d="M551.21,-545.81C551.75,-538.14 552.4,-528.89 553.01,-520.24"/>
<polygon fill="black" stroke="black" points="556.48,-520.76 553.69,-510.54 549.5,-520.27 556.48,-520.76"/>
</g>
<!-- j1427439146 -->
<g id="node55" class="node">
<title>j1427439146</title>
<polygon fill="none" stroke="blue" points="652.5,-401 457.5,-401 457.5,-365 652.5,-365 652.5,-401"/>
<text text-anchor="middle" x="555" y="-379.3" font-family="Times New Roman,serif" font-size="14.00">las caras de las personas que he</text>
</g>
<!-- j1844753961&#45;&gt;j1427439146 -->
<g id="edge63" class="edge">
<title>j1844753961&#45;&gt;j1427439146</title>
<path fill="none" stroke="black" d="M555,-472.97C555,-456.76 555,-432.06 555,-412.79"/>
<polygon fill="black" stroke="black" points="558.5,-412.85 555,-402.85 551.5,-412.85 558.5,-412.85"/>
</g>
<!-- j308326260 -->
<g id="node56" class="node">
<title>j308326260</title>
<polygon fill="none" stroke="blue" points="615,-328 499,-328 499,-292 615,-292 615,-328"/>
<text text-anchor="middle" x="557" y="-306.3" font-family="Times New Roman,serif" font-size="14.00">que he tenido que</text>
</g>
<!-- j1427439146&#45;&gt;j308326260 -->
<g id="edge64" class="edge">
<title>j1427439146&#45;&gt;j308326260</title>
<path fill="none" stroke="black" d="M555.48,-364.81C555.7,-357.14 555.96,-347.89 556.2,-339.24"/>
<polygon fill="black" stroke="black" points="559.69,-339.64 556.48,-329.54 552.7,-339.44 559.69,-339.64"/>
</g>
<!-- j3171846026 -->
<g id="node57" class="node">
<title>j3171846026</title>
<polygon fill="none" stroke="blue" points="703.5,-255 428.5,-255 428.5,-219 703.5,-219 703.5,-255"/>
<text text-anchor="middle" x="566" y="-233.3" font-family="Times New Roman,serif" font-size="14.00">losientonopuedohacerestoahoramismolosiento</text>
</g>
<!-- j308326260&#45;&gt;j3171846026 -->
<g id="edge65" class="edge">
<title>j308326260&#45;&gt;j3171846026</title>
<path fill="none" stroke="black" d="M559.18,-291.81C560.15,-284.14 561.32,-274.89 562.42,-266.24"/>
<polygon fill="black" stroke="black" points="565.87,-266.89 563.65,-256.53 558.92,-266.01 565.87,-266.89"/>
</g>
<!-- j1396294820 -->
<g id="node58" class="node">
<title>j1396294820</title>
<ellipse fill="none" stroke="orange" cx="587" cy="-164" rx="147.57" ry="18"/>
<text text-anchor="middle" x="587" y="-160.3" font-family="Times New Roman,serif" font-size="14.00">Boolean AmirNightmare1 is now true.</text>
</g>
<!-- j3171846026&#45;&gt;j1396294820 -->
<g id="edge66" class="edge">
<title>j3171846026&#45;&gt;j1396294820</title>
<path fill="none" stroke="black" d="M571.08,-218.81C573.38,-211.05 576.15,-201.68 578.73,-192.95"/>
<polygon fill="black" stroke="black" points="582.05,-194.06 581.53,-183.48 575.34,-192.08 582.05,-194.06"/>
</g>
<!-- j1396294820&#45;&gt;j2895199346 -->
<g id="edge67" class="edge">
<title>j1396294820&#45;&gt;j2895199346</title>
<path fill="none" stroke="black" d="M670.83,-148.76C750.13,-135.29 867.47,-115.36 939.93,-103.05"/>
<polygon fill="black" stroke="black" points="940.4,-106.52 949.67,-101.4 939.23,-99.62 940.4,-106.52"/>
</g>
</g>
</svg>
