<?xml version="1.0" encoding="UTF-8" standalone="no"?>
<!DOCTYPE svg PUBLIC "-//W3C//DTD SVG 1.1//EN"
 "http://www.w3.org/Graphics/SVG/1.1/DTD/svg11.dtd">
<!-- Generated by graphviz version 7.1.0 (20230121.1956)
 -->
<!-- Pages: 1 -->
<svg width="1501pt" height="1453pt"
 viewBox="0.00 0.00 1500.84 1453.00" xmlns="http://www.w3.org/2000/svg" xmlns:xlink="http://www.w3.org/1999/xlink">
<g id="graph0" class="graph" transform="scale(1 1) rotate(0) translate(4 1449)">
<polygon fill="white" stroke="none" points="-4,4 -4,-1449 1496.84,-1449 1496.84,4 -4,4"/>
<!-- AmirRank5Convo7 begins. -->
<g id="node1" class="node">
<title>AmirRank5Convo7 begins.</title>
<ellipse fill="none" stroke="orange" cx="1383" cy="-1427" rx="109.68" ry="18"/>
<text text-anchor="middle" x="1383" y="-1423.3" font-family="Times New Roman,serif" font-size="14.00">AmirRank5Convo7 begins.</text>
</g>
<!-- j2068497947 -->
<g id="node2" class="node">
<title>j2068497947</title>
<ellipse fill="none" stroke="orange" cx="1383" cy="-1354" rx="109.38" ry="18"/>
<text text-anchor="middle" x="1383" y="-1350.3" font-family="Times New Roman,serif" font-size="14.00">Check boolean AmirDating</text>
</g>
<!-- AmirRank5Convo7 begins.&#45;&gt;j2068497947 -->
<g id="edge1" class="edge">
<title>AmirRank5Convo7 begins.&#45;&gt;j2068497947</title>
<path fill="none" stroke="black" d="M1383,-1408.81C1383,-1401.23 1383,-1392.1 1383,-1383.54"/>
<polygon fill="black" stroke="black" points="1386.5,-1383.54 1383,-1373.54 1379.5,-1383.54 1386.5,-1383.54"/>
</g>
<!-- j1975610895 -->
<g id="node3" class="node">
<title>j1975610895</title>
<polygon fill="none" stroke="blue" points="1425,-1285 1203,-1285 1203,-1249 1425,-1249 1425,-1285"/>
<text text-anchor="middle" x="1314" y="-1263.3" font-family="Times New Roman,serif" font-size="14.00">oye bebé, tengo que pedirte un favor</text>
</g>
<!-- j2068497947&#45;&gt;j1975610895 -->
<g id="edge2" class="edge">
<title>j2068497947&#45;&gt;j1975610895</title>
<path fill="none" stroke="green" d="M1369.04,-1335.8C1359.37,-1323.9 1346.33,-1307.83 1335.37,-1294.32"/>
<polygon fill="green" stroke="green" points="1338.15,-1292.2 1329.13,-1286.64 1332.72,-1296.61 1338.15,-1292.2"/>
<text text-anchor="middle" x="1363" y="-1306.8" font-family="Times New Roman,serif" font-size="14.00">true</text>
</g>
<!-- Chat ends. -->
<g id="node4" class="node">
<title>Chat ends.</title>
<ellipse fill="none" stroke="orange" cx="1387" cy="-18" rx="50.09" ry="18"/>
<text text-anchor="middle" x="1387" y="-14.3" font-family="Times New Roman,serif" font-size="14.00">Chat ends.</text>
</g>
<!-- j2068497947&#45;&gt;Chat ends. -->
<g id="edge3" class="edge">
<title>j2068497947&#45;&gt;Chat ends.</title>
<path fill="none" stroke="brown" d="M1409.07,-1336.1C1428.97,-1320.93 1453,-1296.68 1453,-1268 1453,-1268 1453,-1268 1453,-90 1453,-69.6 1438.2,-52.6 1422.62,-40.36"/>
<polygon fill="brown" stroke="brown" points="1424.84,-37.64 1414.69,-34.6 1420.72,-43.3 1424.84,-37.64"/>
<text text-anchor="middle" x="1466" y="-668.3" font-family="Times New Roman,serif" font-size="14.00">false</text>
</g>
<!-- j3950375455 -->
<g id="node5" class="node">
<title>j3950375455</title>
<polygon fill="none" stroke="red" points="1282.5,-1212 1165.5,-1212 1165.5,-1176 1282.5,-1176 1282.5,-1212"/>
<text text-anchor="middle" x="1224" y="-1190.3" font-family="Times New Roman,serif" font-size="14.00">¿Qué pasa, amor?</text>
</g>
<!-- j1975610895&#45;&gt;j3950375455 -->
<g id="edge4" class="edge">
<title>j1975610895&#45;&gt;j3950375455</title>
<path fill="none" stroke="black" d="M1292.21,-1248.81C1281.02,-1239.98 1267.19,-1229.07 1254.91,-1219.39"/>
<polygon fill="black" stroke="black" points="1257.1,-1216.66 1247.09,-1213.21 1252.77,-1222.15 1257.1,-1216.66"/>
</g>
<!-- j2049302189 -->
<g id="node6" class="node">
<title>j2049302189</title>
<polygon fill="none" stroke="red" points="1432.5,-1158 1229.5,-1158 1229.5,-1122 1432.5,-1122 1432.5,-1158"/>
<text text-anchor="middle" x="1331" y="-1136.3" font-family="Times New Roman,serif" font-size="14.00">Lo siento, ahora no puedo. [Fin.]</text>
</g>
<!-- j1975610895&#45;&gt;j2049302189 -->
<g id="edge5" class="edge">
<title>j1975610895&#45;&gt;j2049302189</title>
<path fill="none" stroke="black" d="M1316.36,-1248.62C1319.14,-1228.19 1323.79,-1193.99 1327.11,-1169.62"/>
<polygon fill="black" stroke="black" points="1330.57,-1170.11 1328.45,-1159.73 1323.64,-1169.17 1330.57,-1170.11"/>
</g>
<!-- j2911385947 -->
<g id="node7" class="node">
<title>j2911385947</title>
<polygon fill="none" stroke="blue" points="1343.5,-1104 978.5,-1104 978.5,-1068 1343.5,-1068 1343.5,-1104"/>
<text text-anchor="middle" x="1161" y="-1082.3" font-family="Times New Roman,serif" font-size="14.00">buenoooo CREO que descubrí cómo hackear K.O.L. lmaooo</text>
</g>
<!-- j3950375455&#45;&gt;j2911385947 -->
<g id="edge6" class="edge">
<title>j3950375455&#45;&gt;j2911385947</title>
<path fill="none" stroke="black" d="M1213.88,-1175.97C1203.97,-1159.3 1188.72,-1133.65 1177.14,-1114.16"/>
<polygon fill="black" stroke="black" points="1180.2,-1112.45 1172.08,-1105.64 1174.18,-1116.03 1180.2,-1112.45"/>
</g>
<!-- j2049302189&#45;&gt;Chat ends. -->
<g id="edge7" class="edge">
<title>j2049302189&#45;&gt;Chat ends.</title>
<path fill="none" stroke="black" d="M1359.3,-1121.54C1380.91,-1105.8 1407,-1080.48 1407,-1050 1407,-1050 1407,-1050 1407,-90 1407,-75.34 1403,-59.6 1398.58,-46.67"/>
<polygon fill="black" stroke="black" points="1401.96,-45.71 1395.2,-37.55 1395.39,-48.14 1401.96,-45.71"/>
</g>
<!-- j2860598339 -->
<g id="node8" class="node">
<title>j2860598339</title>
<polygon fill="none" stroke="blue" points="1128,-1031 770,-1031 770,-995 1128,-995 1128,-1031"/>
<text text-anchor="middle" x="949" y="-1009.3" font-family="Times New Roman,serif" font-size="14.00">y voy a cambiar el nombre de usuario de arthur como prueba</text>
</g>
<!-- j2911385947&#45;&gt;j2860598339 -->
<g id="edge8" class="edge">
<title>j2911385947&#45;&gt;j2860598339</title>
<path fill="none" stroke="black" d="M1108.87,-1067.54C1079.48,-1057.7 1042.56,-1045.33 1011.61,-1034.97"/>
<polygon fill="black" stroke="black" points="1012.96,-1031.73 1002.37,-1031.87 1010.74,-1038.37 1012.96,-1031.73"/>
</g>
<!-- j3804610820 -->
<g id="node9" class="node">
<title>j3804610820</title>
<ellipse fill="none" stroke="orange" cx="649" cy="-940" rx="131.08" ry="18"/>
<text text-anchor="middle" x="649" y="-936.3" font-family="Times New Roman,serif" font-size="14.00">Check boolean AmirQuincyHack</text>
</g>
<!-- j2860598339&#45;&gt;j3804610820 -->
<g id="edge9" class="edge">
<title>j2860598339&#45;&gt;j3804610820</title>
<path fill="none" stroke="black" d="M875.23,-994.54C829.23,-983.65 770.2,-969.68 723.98,-958.75"/>
<polygon fill="black" stroke="black" points="724.83,-955.35 714.29,-956.45 723.22,-962.16 724.83,-955.35"/>
</g>
<!-- j1572346334 -->
<g id="node10" class="node">
<title>j1572346334</title>
<polygon fill="none" stroke="red" points="406,-871 212,-871 212,-835 406,-835 406,-871"/>
<text text-anchor="middle" x="309" y="-849.3" font-family="Times New Roman,serif" font-size="14.00">Pero ya hiciste eso con Quincy.</text>
</g>
<!-- j3804610820&#45;&gt;j1572346334 -->
<g id="edge10" class="edge">
<title>j3804610820&#45;&gt;j1572346334</title>
<path fill="none" stroke="green" d="M586.32,-923.78C561.32,-917.68 532.29,-910.55 506,-904 467.21,-894.33 424.18,-883.43 388.25,-874.28"/>
<polygon fill="green" stroke="green" points="389.36,-870.95 378.81,-871.87 387.63,-877.73 389.36,-870.95"/>
<text text-anchor="middle" x="517" y="-892.8" font-family="Times New Roman,serif" font-size="14.00">true</text>
</g>
<!-- j1039971132 -->
<g id="node11" class="node">
<title>j1039971132</title>
<polygon fill="none" stroke="red" points="625.5,-871 442.5,-871 442.5,-835 625.5,-835 625.5,-871"/>
<text text-anchor="middle" x="534" y="-849.3" font-family="Times New Roman,serif" font-size="14.00">LOL. Está bien, estoy dentro.</text>
</g>
<!-- j3804610820&#45;&gt;j1039971132 -->
<g id="edge11" class="edge">
<title>j3804610820&#45;&gt;j1039971132</title>
<path fill="none" stroke="green" d="M566.99,-925.67C555.83,-920.56 545.62,-913.56 538,-904 533.3,-898.1 531.32,-890.47 530.76,-882.95"/>
<polygon fill="green" stroke="green" points="534.26,-883.04 530.85,-873.01 527.26,-882.98 534.26,-883.04"/>
<text text-anchor="middle" x="549" y="-892.8" font-family="Times New Roman,serif" font-size="14.00">true</text>
</g>
<!-- j3804610820&#45;&gt;j1039971132 -->
<g id="edge14" class="edge">
<title>j3804610820&#45;&gt;j1039971132</title>
<path fill="none" stroke="brown" d="M624.17,-921.95C616.09,-916.31 607.11,-909.96 599,-904 587.82,-895.79 575.73,-886.58 565.04,-878.33"/>
<polygon fill="brown" stroke="brown" points="567.32,-875.67 557.27,-872.3 563.03,-881.2 567.32,-875.67"/>
<text text-anchor="middle" x="612" y="-892.8" font-family="Times New Roman,serif" font-size="14.00">false</text>
</g>
<!-- j1253857124 -->
<g id="node12" class="node">
<title>j1253857124</title>
<polygon fill="none" stroke="red" points="706,-871 644,-871 644,-835 706,-835 706,-871"/>
<text text-anchor="middle" x="675" y="-849.3" font-family="Times New Roman,serif" font-size="14.00">Uh oh...</text>
</g>
<!-- j3804610820&#45;&gt;j1253857124 -->
<g id="edge12" class="edge">
<title>j3804610820&#45;&gt;j1253857124</title>
<path fill="none" stroke="green" d="M636.72,-921.95C631.21,-912.1 626.96,-899.6 632,-889 633.61,-885.61 635.73,-882.44 638.16,-879.5"/>
<polygon fill="green" stroke="green" points="640.59,-882.03 645.15,-872.47 635.62,-877.1 640.59,-882.03"/>
<text text-anchor="middle" x="643" y="-892.8" font-family="Times New Roman,serif" font-size="14.00">true</text>
</g>
<!-- j3804610820&#45;&gt;j1253857124 -->
<g id="edge15" class="edge">
<title>j3804610820&#45;&gt;j1253857124</title>
<path fill="none" stroke="brown" d="M654.26,-921.8C657.73,-910.47 662.35,-895.36 666.35,-882.29"/>
<polygon fill="brown" stroke="brown" points="669.64,-883.5 669.21,-872.91 662.94,-881.45 669.64,-883.5"/>
<text text-anchor="middle" x="676" y="-892.8" font-family="Times New Roman,serif" font-size="14.00">false</text>
</g>
<!-- j4034867669 -->
<g id="node13" class="node">
<title>j4034867669</title>
<polygon fill="none" stroke="red" points="834,-871 724,-871 724,-835 834,-835 834,-871"/>
<text text-anchor="middle" x="779" y="-849.3" font-family="Times New Roman,serif" font-size="14.00">Nooooop, paso.</text>
</g>
<!-- j3804610820&#45;&gt;j4034867669 -->
<g id="edge13" class="edge">
<title>j3804610820&#45;&gt;j4034867669</title>
<path fill="none" stroke="green" d="M674.99,-922C694.53,-909.23 721.52,-891.58 743.11,-877.47"/>
<polygon fill="green" stroke="green" points="744.88,-880.49 751.34,-872.09 741.05,-874.63 744.88,-880.49"/>
<text text-anchor="middle" x="732" y="-892.8" font-family="Times New Roman,serif" font-size="14.00">true</text>
</g>
<!-- j3804610820&#45;&gt;j4034867669 -->
<g id="edge16" class="edge">
<title>j3804610820&#45;&gt;j4034867669</title>
<path fill="none" stroke="brown" d="M711.31,-923.71C723.94,-918.76 736.54,-912.33 747,-904 754.6,-897.95 760.94,-889.58 765.92,-881.42"/>
<polygon fill="brown" stroke="brown" points="768.96,-883.15 770.75,-872.71 762.84,-879.75 768.96,-883.15"/>
<text text-anchor="middle" x="773" y="-892.8" font-family="Times New Roman,serif" font-size="14.00">false</text>
</g>
<!-- j3082012513 -->
<g id="node14" class="node">
<title>j3082012513</title>
<polygon fill="none" stroke="blue" points="512,-636 0,-636 0,-600 512,-600 512,-636"/>
<text text-anchor="middle" x="256" y="-614.3" font-family="Times New Roman,serif" font-size="14.00">nah eso fue totalmente diferente simplemente entré a su cuenta descifrando su contraseña</text>
</g>
<!-- j1572346334&#45;&gt;j3082012513 -->
<g id="edge17" class="edge">
<title>j1572346334&#45;&gt;j3082012513</title>
<path fill="none" stroke="black" d="M305.1,-834.87C296.07,-795.16 273.63,-696.49 262.49,-647.52"/>
<polygon fill="black" stroke="black" points="265.94,-646.93 260.31,-637.95 259.12,-648.48 265.94,-646.93"/>
</g>
<!-- j1419272660 -->
<g id="node15" class="node">
<title>j1419272660</title>
<polygon fill="none" stroke="blue" points="580.5,-744 473.5,-744 473.5,-708 580.5,-708 580.5,-744"/>
<text text-anchor="middle" x="527" y="-722.3" font-family="Times New Roman,serif" font-size="14.00">GENIAAAAAL</text>
</g>
<!-- j1039971132&#45;&gt;j1419272660 -->
<g id="edge18" class="edge">
<title>j1039971132&#45;&gt;j1419272660</title>
<path fill="none" stroke="black" d="M533.03,-834.62C531.88,-814.19 529.97,-779.99 528.6,-755.62"/>
<polygon fill="black" stroke="black" points="532.1,-755.53 528.05,-745.74 525.11,-755.92 532.1,-755.53"/>
</g>
<!-- j1840461152 -->
<g id="node16" class="node">
<title>j1840461152</title>
<polygon fill="none" stroke="blue" points="764,-744 586,-744 586,-708 764,-708 764,-744"/>
<text text-anchor="middle" x="675" y="-722.3" font-family="Times New Roman,serif" font-size="14.00">nah estará bien, confía en mí</text>
</g>
<!-- j1253857124&#45;&gt;j1840461152 -->
<g id="edge19" class="edge">
<title>j1253857124&#45;&gt;j1840461152</title>
<path fill="none" stroke="black" d="M675,-834.62C675,-814.19 675,-779.99 675,-755.62"/>
<polygon fill="black" stroke="black" points="678.5,-755.75 675,-745.75 671.5,-755.75 678.5,-755.75"/>
</g>
<!-- j149780410 -->
<g id="node17" class="node">
<title>j149780410</title>
<polygon fill="none" stroke="blue" points="960,-798 752,-798 752,-762 960,-762 960,-798"/>
<text text-anchor="middle" x="856" y="-776.3" font-family="Times New Roman,serif" font-size="14.00">ay vamoooooos, rebélate un poco</text>
</g>
<!-- j4034867669&#45;&gt;j149780410 -->
<g id="edge20" class="edge">
<title>j4034867669&#45;&gt;j149780410</title>
<path fill="none" stroke="black" d="M797.64,-834.81C807.03,-826.16 818.59,-815.5 828.93,-805.96"/>
<polygon fill="black" stroke="black" points="831.17,-808.65 836.15,-799.3 826.43,-803.51 831.17,-808.65"/>
</g>
<!-- j721977623 -->
<g id="node18" class="node">
<title>j721977623</title>
<polygon fill="none" stroke="blue" points="930.5,-509 199.5,-509 199.5,-473 930.5,-473 930.5,-509"/>
<text text-anchor="middle" x="565" y="-487.3" font-family="Times New Roman,serif" font-size="14.00">entonces descubrí cómo hacer de intermediario entre el tráfico de nosotros y el de K.O.L. y jugar con las solicitudes de la gente</text>
</g>
<!-- j3082012513&#45;&gt;j721977623 -->
<g id="edge21" class="edge">
<title>j3082012513&#45;&gt;j721977623</title>
<path fill="none" stroke="black" d="M298.97,-599.62C354.5,-577.15 451.2,-538.03 511.46,-513.66"/>
<polygon fill="black" stroke="black" points="512.54,-517 520.5,-510 509.92,-510.51 512.54,-517"/>
</g>
<!-- j1419272660&#45;&gt;j721977623 -->
<g id="edge22" class="edge">
<title>j1419272660&#45;&gt;j721977623</title>
<path fill="none" stroke="black" d="M527.6,-707.51C529.12,-672.64 534.3,-592.25 551,-527 551.6,-524.67 552.31,-522.29 553.09,-519.92"/>
<polygon fill="black" stroke="black" points="556.37,-521.16 556.58,-510.57 549.81,-518.71 556.37,-521.16"/>
</g>
<!-- j1840461152&#45;&gt;j721977623 -->
<g id="edge23" class="edge">
<title>j1840461152&#45;&gt;j721977623</title>
<path fill="none" stroke="black" d="M604.77,-707.61C596.77,-703.04 589.53,-697.28 584,-690 546.26,-640.32 552.33,-562.15 559.16,-520.44"/>
<polygon fill="black" stroke="black" points="562.59,-521.17 560.9,-510.71 555.7,-519.94 562.59,-521.17"/>
</g>
<!-- j2371096210 -->
<g id="node19" class="node">
<title>j2371096210</title>
<polygon fill="none" stroke="blue" points="1318.5,-690 593.5,-690 593.5,-654 1318.5,-654 1318.5,-690"/>
<text text-anchor="middle" x="956" y="-668.3" font-family="Times New Roman,serif" font-size="14.00">¿qué es lo PEOR que podría pasar? no es como si pudieran enviar a la Scaldra tras nosotros más de lo que ya lo han hecho lol</text>
</g>
<!-- j149780410&#45;&gt;j2371096210 -->
<g id="edge24" class="edge">
<title>j149780410&#45;&gt;j2371096210</title>
<path fill="none" stroke="black" d="M872.07,-761.97C888.23,-744.84 913.34,-718.22 931.89,-698.56"/>
<polygon fill="black" stroke="black" points="934.29,-701.12 938.6,-691.44 929.19,-696.31 934.29,-701.12"/>
</g>
<!-- j1139995915 -->
<g id="node20" class="node">
<title>j1139995915</title>
<polygon fill="none" stroke="blue" points="1049,-401 645,-401 645,-365 1049,-365 1049,-401"/>
<text text-anchor="middle" x="847" y="-379.3" font-family="Times New Roman,serif" font-size="14.00">pero quiero probarlo un poco antes de ir y hacer algo más interesante</text>
</g>
<!-- j721977623&#45;&gt;j1139995915 -->
<g id="edge25" class="edge">
<title>j721977623&#45;&gt;j1139995915</title>
<path fill="none" stroke="black" d="M611.25,-472.61C660.22,-454.21 737.58,-425.13 790.21,-405.35"/>
<polygon fill="black" stroke="black" points="791.18,-408.72 799.31,-401.93 788.72,-402.17 791.18,-408.72"/>
</g>
<!-- j926869841 -->
<g id="node21" class="node">
<title>j926869841</title>
<polygon fill="none" stroke="red" points="669,-582 593,-582 593,-546 669,-546 669,-582"/>
<text text-anchor="middle" x="631" y="-560.3" font-family="Times New Roman,serif" font-size="14.00">Bien, bien.</text>
</g>
<!-- j2371096210&#45;&gt;j926869841 -->
<g id="edge26" class="edge">
<title>j2371096210&#45;&gt;j926869841</title>
<path fill="none" stroke="black" d="M899.36,-653.54C845.35,-636.75 761.5,-610.27 679.89,-582.59"/>
<polygon fill="black" stroke="black" points="681.46,-579.43 670.87,-579.52 679.21,-586.06 681.46,-579.43"/>
</g>
<!-- j3533012215 -->
<g id="node22" class="node">
<title>j3533012215</title>
<polygon fill="none" stroke="red" points="1379,-582 687,-582 687,-546 1379,-546 1379,-582"/>
<text text-anchor="middle" x="1033" y="-560.3" font-family="Times New Roman,serif" font-size="14.00">Nunca te metas con un gran conglomerado de medios de comunicación. Tienen algo peor que la Scaldra. Los abogados.</text>
</g>
<!-- j2371096210&#45;&gt;j3533012215 -->
<g id="edge27" class="edge">
<title>j2371096210&#45;&gt;j3533012215</title>
<path fill="none" stroke="black" d="M968.37,-653.97C980.59,-637.15 999.46,-611.17 1013.66,-591.62"/>
<polygon fill="black" stroke="black" points="1016.47,-593.71 1019.51,-583.57 1010.81,-589.6 1016.47,-593.71"/>
</g>
<!-- j2883529300 -->
<g id="node23" class="node">
<title>j2883529300</title>
<polygon fill="none" stroke="blue" points="1316.5,-328 519.5,-328 519.5,-292 1316.5,-292 1316.5,-328"/>
<text text-anchor="middle" x="918" y="-306.3" font-family="Times New Roman,serif" font-size="14.00">así que habla con Arthur mañana y mira si su nombre de usuario cambió, tomará aproximadamente 24 horas para que el sistema se actualice</text>
</g>
<!-- j1139995915&#45;&gt;j2883529300 -->
<g id="edge28" class="edge">
<title>j1139995915&#45;&gt;j2883529300</title>
<path fill="none" stroke="black" d="M864.19,-364.81C872.82,-356.18 883.44,-345.56 892.97,-336.03"/>
<polygon fill="black" stroke="black" points="895.3,-338.65 899.9,-329.1 890.35,-333.7 895.3,-338.65"/>
</g>
<!-- j926869841&#45;&gt;j721977623 -->
<g id="edge29" class="edge">
<title>j926869841&#45;&gt;j721977623</title>
<path fill="none" stroke="black" d="M615.02,-545.81C607.08,-537.27 597.32,-526.77 588.54,-517.32"/>
<polygon fill="black" stroke="black" points="591.23,-515.08 581.86,-510.14 586.11,-519.84 591.23,-515.08"/>
</g>
<!-- j2609943571 -->
<g id="node24" class="node">
<title>j2609943571</title>
<polygon fill="none" stroke="blue" points="1310.5,-455 1237.5,-455 1237.5,-419 1310.5,-419 1310.5,-455"/>
<text text-anchor="middle" x="1274" y="-433.3" font-family="Times New Roman,serif" font-size="14.00">aburriiiido</text>
</g>
<!-- j3533012215&#45;&gt;j2609943571 -->
<g id="edge30" class="edge">
<title>j3533012215&#45;&gt;j2609943571</title>
<path fill="none" stroke="black" d="M1066.51,-545.62C1109.2,-523.48 1183.07,-485.16 1230.18,-460.73"/>
<polygon fill="black" stroke="black" points="1231.78,-463.84 1239.04,-456.13 1228.55,-457.63 1231.78,-463.84"/>
</g>
<!-- j3235619702 -->
<g id="node25" class="node">
<title>j3235619702</title>
<ellipse fill="none" stroke="orange" cx="999" cy="-237" rx="64.19" ry="18"/>
<text text-anchor="middle" x="999" y="-233.3" font-family="Times New Roman,serif" font-size="14.00">+20 Chemistry</text>
</g>
<!-- j2883529300&#45;&gt;j3235619702 -->
<g id="edge31" class="edge">
<title>j2883529300&#45;&gt;j3235619702</title>
<path fill="none" stroke="black" d="M937.61,-291.81C947.8,-282.88 960.43,-271.8 971.58,-262.03"/>
<polygon fill="black" stroke="black" points="973.78,-264.76 978.99,-255.54 969.17,-259.5 973.78,-264.76"/>
</g>
<!-- j2609943571&#45;&gt;Chat ends. -->
<g id="edge32" class="edge">
<title>j2609943571&#45;&gt;Chat ends.</title>
<path fill="none" stroke="black" d="M1310.88,-419.15C1337.22,-404.31 1368,-379.92 1368,-347 1368,-347 1368,-347 1368,-90 1368,-75.39 1371.8,-59.65 1376,-46.71"/>
<polygon fill="black" stroke="black" points="1379.19,-48.19 1379.21,-37.59 1372.59,-45.87 1379.19,-48.19"/>
</g>
<!-- j1704892225 -->
<g id="node26" class="node">
<title>j1704892225</title>
<polygon fill="none" stroke="blue" points="1274.5,-182 841.5,-182 841.5,-146 1274.5,-146 1274.5,-182"/>
<text text-anchor="middle" x="1058" y="-160.3" font-family="Times New Roman,serif" font-size="14.00">después vuelve con tu informe AGENTE SECRETO BEBÉ muajajajajajaja</text>
</g>
<!-- j3235619702&#45;&gt;j1704892225 -->
<g id="edge33" class="edge">
<title>j3235619702&#45;&gt;j1704892225</title>
<path fill="none" stroke="black" d="M1012.98,-219.17C1019.95,-210.78 1028.54,-200.45 1036.34,-191.06"/>
<polygon fill="black" stroke="black" points="1038.84,-193.54 1042.53,-183.61 1033.45,-189.06 1038.84,-193.54"/>
</g>
<!-- Initiate conversation ArthurAmirHack in ArthurDialogue_rom.dialogue -->
<g id="node27" class="node">
<title>Initiate conversation ArthurAmirHack in ArthurDialogue_rom.dialogue</title>
<ellipse fill="none" stroke="orange" cx="1073" cy="-91" rx="264.55" ry="18"/>
<text text-anchor="middle" x="1073" y="-87.3" font-family="Times New Roman,serif" font-size="14.00">Initiate conversation ArthurAmirHack in ArthurDialogue_rom.dialogue</text>
</g>
<!-- j1704892225&#45;&gt;Initiate conversation ArthurAmirHack in ArthurDialogue_rom.dialogue -->
<g id="edge34" class="edge">
<title>j1704892225&#45;&gt;Initiate conversation ArthurAmirHack in ArthurDialogue_rom.dialogue</title>
<path fill="none" stroke="black" d="M1061.63,-145.81C1063.25,-138.14 1065.21,-128.89 1067.03,-120.24"/>
<polygon fill="black" stroke="black" points="1070.45,-121.02 1069.09,-110.51 1063.6,-119.57 1070.45,-121.02"/>
</g>
<!-- Initiate conversation ArthurAmirHack in ArthurDialogue_rom.dialogue&#45;&gt;Chat ends. -->
<g id="edge35" class="edge">
<title>Initiate conversation ArthurAmirHack in ArthurDialogue_rom.dialogue&#45;&gt;Chat ends.</title>
<path fill="none" stroke="black" d="M1147.02,-73.26C1204.5,-60.27 1282.8,-42.56 1334.11,-30.96"/>
<polygon fill="black" stroke="black" points="1334.81,-34.39 1343.79,-28.77 1333.26,-27.56 1334.81,-34.39"/>
</g>
</g>
</svg>
