<?xml version="1.0" encoding="UTF-8" standalone="no"?>
<!DOCTYPE svg PUBLIC "-//W3C//DTD SVG 1.1//EN"
 "http://www.w3.org/Graphics/SVG/1.1/DTD/svg11.dtd">
<!-- Generated by graphviz version 7.1.0 (20230121.1956)
 -->
<!-- Pages: 1 -->
<svg width="1990pt" height="1634pt"
 viewBox="0.00 0.00 1989.79 1634.00" xmlns="http://www.w3.org/2000/svg" xmlns:xlink="http://www.w3.org/1999/xlink">
<g id="graph0" class="graph" transform="scale(1 1) rotate(0) translate(4 1630)">
<polygon fill="white" stroke="none" points="-4,4 -4,-1630 1985.79,-1630 1985.79,4 -4,4"/>
<!-- AmirQuincyWingman begins. -->
<g id="node1" class="node">
<title>AmirQuincyWingman begins.</title>
<ellipse fill="none" stroke="orange" cx="118.29" cy="-1608" rx="118.08" ry="18"/>
<text text-anchor="middle" x="118.29" y="-1604.3" font-family="Times New Roman,serif" font-size="14.00">AmirQuincyWingman begins.</text>
</g>
<!-- j2651217478 -->
<g id="node2" class="node">
<title>j2651217478</title>
<ellipse fill="none" stroke="orange" cx="118.29" cy="-1535" rx="98.28" ry="18"/>
<text text-anchor="middle" x="118.29" y="-1531.3" font-family="Times New Roman,serif" font-size="14.00">Check boolean IsDating</text>
</g>
<!-- AmirQuincyWingman begins.&#45;&gt;j2651217478 -->
<g id="edge1" class="edge">
<title>AmirQuincyWingman begins.&#45;&gt;j2651217478</title>
<path fill="none" stroke="black" d="M118.29,-1589.81C118.29,-1582.23 118.29,-1573.1 118.29,-1564.54"/>
<polygon fill="black" stroke="black" points="121.79,-1564.54 118.29,-1554.54 114.79,-1564.54 121.79,-1564.54"/>
</g>
<!-- Chat ends. -->
<g id="node3" class="node">
<title>Chat ends.</title>
<ellipse fill="none" stroke="orange" cx="1015.29" cy="-18" rx="50.09" ry="18"/>
<text text-anchor="middle" x="1015.29" y="-14.3" font-family="Times New Roman,serif" font-size="14.00">Chat ends.</text>
</g>
<!-- j2651217478&#45;&gt;Chat ends. -->
<g id="edge2" class="edge">
<title>j2651217478&#45;&gt;Chat ends.</title>
<path fill="none" stroke="green" d="M113.05,-1516.6C108.38,-1499.54 102.29,-1472.73 102.29,-1449 102.29,-1449 102.29,-1449 102.29,-90 102.29,-47.18 748.92,-26.15 953.8,-20.56"/>
<polygon fill="green" stroke="green" points="953.81,-24.06 963.72,-20.29 953.62,-17.06 953.81,-24.06"/>
<text text-anchor="middle" x="113.29" y="-706.3" font-family="Times New Roman,serif" font-size="14.00">true</text>
</g>
<!-- j1743694448 -->
<g id="node4" class="node">
<title>j1743694448</title>
<polygon fill="none" stroke="blue" points="834.29,-1466 134.29,-1466 134.29,-1430 834.29,-1430 834.29,-1466"/>
<text text-anchor="middle" x="484.29" y="-1444.3" font-family="Times New Roman,serif" font-size="14.00">ey. uhm... quincy habló conmigo ayer. dijo que tú y él habían estado hablando y que tú... ¿querías decirme algunas cosas?</text>
</g>
<!-- j2651217478&#45;&gt;j1743694448 -->
<g id="edge3" class="edge">
<title>j2651217478&#45;&gt;j1743694448</title>
<path fill="none" stroke="brown" d="M177.5,-1520.25C237.2,-1506.38 329.98,-1484.84 397.89,-1469.07"/>
<polygon fill="brown" stroke="brown" points="398.57,-1472.5 407.52,-1466.83 396.98,-1465.68 398.57,-1472.5"/>
<text text-anchor="middle" x="335.29" y="-1487.8" font-family="Times New Roman,serif" font-size="14.00">false</text>
</g>
<!-- j3947516618 -->
<g id="node5" class="node">
<title>j3947516618</title>
<ellipse fill="none" stroke="orange" cx="694.29" cy="-1375" rx="113.98" ry="18"/>
<text text-anchor="middle" x="694.29" y="-1371.3" font-family="Times New Roman,serif" font-size="14.00">Check boolean AmirNoDate</text>
</g>
<!-- j1743694448&#45;&gt;j3947516618 -->
<g id="edge4" class="edge">
<title>j1743694448&#45;&gt;j3947516618</title>
<path fill="none" stroke="black" d="M535.93,-1429.54C566.46,-1419.22 605.18,-1406.13 636.69,-1395.47"/>
<polygon fill="black" stroke="black" points="637.72,-1398.82 646.08,-1392.3 635.48,-1392.19 637.72,-1398.82"/>
</g>
<!-- j3366066519 -->
<g id="node6" class="node">
<title>j3366066519</title>
<polygon fill="none" stroke="red" points="423.79,-1252 180.79,-1252 180.79,-1216 423.79,-1216 423.79,-1252"/>
<text text-anchor="middle" x="302.29" y="-1230.3" font-family="Times New Roman,serif" font-size="14.00">Yo sólo... realmente quería disculparme.</text>
</g>
<!-- j3947516618&#45;&gt;j3366066519 -->
<g id="edge5" class="edge">
<title>j3947516618&#45;&gt;j3366066519</title>
<path fill="none" stroke="green" d="M637.2,-1359.13C590.48,-1346.47 522.95,-1327.03 465.29,-1306 425.25,-1291.4 380.99,-1271.9 348.71,-1257.03"/>
<polygon fill="green" stroke="green" points="350.59,-1254.04 340.04,-1253.01 347.64,-1260.39 350.59,-1254.04"/>
<text text-anchor="middle" x="573.29" y="-1327.8" font-family="Times New Roman,serif" font-size="14.00">true</text>
</g>
<!-- j381307748 -->
<g id="node7" class="node">
<title>j381307748</title>
<polygon fill="none" stroke="red" points="1385.29,-1306 933.29,-1306 933.29,-1270 1385.29,-1270 1385.29,-1306"/>
<text text-anchor="middle" x="1159.29" y="-1284.3" font-family="Times New Roman,serif" font-size="14.00">Creo que solo estaba bromeando contigo, no sé de qué estás hablando. [Fin.]</text>
</g>
<!-- j3947516618&#45;&gt;j381307748 -->
<g id="edge6" class="edge">
<title>j3947516618&#45;&gt;j381307748</title>
<path fill="none" stroke="green" d="M766.95,-1360.72C843.54,-1346.72 964.99,-1324.52 1052.48,-1308.52"/>
<polygon fill="green" stroke="green" points="1053.09,-1311.97 1062.3,-1306.73 1051.83,-1305.08 1053.09,-1311.97"/>
<text text-anchor="middle" x="965.29" y="-1327.8" font-family="Times New Roman,serif" font-size="14.00">true</text>
</g>
<!-- j3947516618&#45;&gt;j381307748 -->
<g id="edge8" class="edge">
<title>j3947516618&#45;&gt;j381307748</title>
<path fill="none" stroke="brown" d="M792.82,-1365.64C848.23,-1360.01 918.48,-1351.34 980.29,-1339 1018.55,-1331.36 1060.6,-1319.78 1094.32,-1309.69"/>
<polygon fill="brown" stroke="brown" points="1094.96,-1313.16 1103.52,-1306.91 1092.93,-1306.46 1094.96,-1313.16"/>
<text text-anchor="middle" x="1052.29" y="-1327.8" font-family="Times New Roman,serif" font-size="14.00">false</text>
</g>
<!-- j3842290071 -->
<g id="node8" class="node">
<title>j3842290071</title>
<polygon fill="none" stroke="red" points="914.79,-1306 473.79,-1306 473.79,-1270 914.79,-1270 914.79,-1306"/>
<text text-anchor="middle" x="694.29" y="-1284.3" font-family="Times New Roman,serif" font-size="14.00">Sí. Yo. No sé de qué otra manera decir esto, pero tengo sentimientos por ti.</text>
</g>
<!-- j3947516618&#45;&gt;j3842290071 -->
<g id="edge7" class="edge">
<title>j3947516618&#45;&gt;j3842290071</title>
<path fill="none" stroke="brown" d="M694.29,-1356.8C694.29,-1345.58 694.29,-1330.67 694.29,-1317.69"/>
<polygon fill="brown" stroke="brown" points="697.79,-1317.98 694.29,-1307.98 690.79,-1317.98 697.79,-1317.98"/>
<text text-anchor="middle" x="707.29" y="-1327.8" font-family="Times New Roman,serif" font-size="14.00">false</text>
</g>
<!-- j4067037509 -->
<g id="node9" class="node">
<title>j4067037509</title>
<polygon fill="none" stroke="blue" points="727.29,-1036 117.29,-1036 117.29,-1000 727.29,-1000 727.29,-1036"/>
<text text-anchor="middle" x="422.29" y="-1014.3" font-family="Times New Roman,serif" font-size="14.00">yo... ::suspiro:: bueno, quiero decir... vamos a estar atrapados aquí por un tiempo muy largo, y supongo...</text>
</g>
<!-- j3366066519&#45;&gt;j4067037509 -->
<g id="edge9" class="edge">
<title>j3366066519&#45;&gt;j4067037509</title>
<path fill="none" stroke="black" d="M278.63,-1215.65C235.63,-1182.07 153.07,-1106.84 198.29,-1054 202.94,-1048.56 210.8,-1043.96 220.85,-1040.07"/>
<polygon fill="black" stroke="black" points="221.82,-1043.44 230.16,-1036.9 219.57,-1036.81 221.82,-1043.44"/>
</g>
<!-- j1863376937 -->
<g id="node10" class="node">
<title>j1863376937</title>
<polygon fill="none" stroke="blue" points="1981.79,-1144 1256.79,-1144 1256.79,-1108 1981.79,-1108 1981.79,-1144"/>
<text text-anchor="middle" x="1619.29" y="-1122.3" font-family="Times New Roman,serif" font-size="14.00">sé que esto va a ser un shock viniendo de mí, pero eh... eso realmente no suena como algo que él haría. pero bueno, como sea</text>
</g>
<!-- j381307748&#45;&gt;j1863376937 -->
<g id="edge10" class="edge">
<title>j381307748&#45;&gt;j1863376937</title>
<path fill="none" stroke="black" d="M1209.39,-1269.57C1294.42,-1240 1466.66,-1180.09 1558.46,-1148.16"/>
<polygon fill="black" stroke="black" points="1559.52,-1151.49 1567.82,-1144.9 1557.22,-1144.88 1559.52,-1151.49"/>
</g>
<!-- j1238065800 -->
<g id="node11" class="node">
<title>j1238065800</title>
<ellipse fill="none" stroke="orange" cx="710.29" cy="-1180" rx="121.58" ry="18"/>
<text text-anchor="middle" x="710.29" y="-1176.3" font-family="Times New Roman,serif" font-size="14.00">Check boolean AmirHasDated</text>
</g>
<!-- j3842290071&#45;&gt;j1238065800 -->
<g id="edge11" class="edge">
<title>j3842290071&#45;&gt;j1238065800</title>
<path fill="none" stroke="black" d="M696.86,-1269.97C699.32,-1253.69 703.07,-1228.82 705.98,-1209.52"/>
<polygon fill="black" stroke="black" points="709.41,-1210.25 707.45,-1199.84 702.49,-1209.2 709.41,-1210.25"/>
</g>
<!-- j3867395083 -->
<g id="node12" class="node">
<title>j3867395083</title>
<polygon fill="none" stroke="blue" points="720.29,-928 194.29,-928 194.29,-892 720.29,-892 720.29,-928"/>
<text text-anchor="middle" x="457.29" y="-906.3" font-family="Times New Roman,serif" font-size="14.00">mentiría si dijera que no tengo sentimientos por ti, así que... um... je... sí... yo... te perdono</text>
</g>
<!-- j4067037509&#45;&gt;j3867395083 -->
<g id="edge12" class="edge">
<title>j4067037509&#45;&gt;j3867395083</title>
<path fill="none" stroke="black" d="M427.91,-999.97C433.32,-983.61 441.58,-958.59 447.96,-939.24"/>
<polygon fill="black" stroke="black" points="451.28,-940.37 451.09,-929.78 444.63,-938.18 451.28,-940.37"/>
</g>
<!-- j1863376937&#45;&gt;Chat ends. -->
<g id="edge13" class="edge">
<title>j1863376937&#45;&gt;Chat ends.</title>
<path fill="none" stroke="black" d="M1609.73,-1107.58C1599.36,-1087.03 1584.29,-1051.56 1584.29,-1019 1584.29,-1019 1584.29,-1019 1584.29,-90 1584.29,-39.3 1223.92,-24.33 1076.76,-20.33"/>
<polygon fill="black" stroke="black" points="1076.89,-16.83 1066.8,-20.07 1076.7,-23.83 1076.89,-16.83"/>
</g>
<!-- j4124725286 -->
<g id="node13" class="node">
<title>j4124725286</title>
<polygon fill="none" stroke="blue" points="1489.79,-801 928.79,-801 928.79,-765 1489.79,-765 1489.79,-801"/>
<text text-anchor="middle" x="1209.29" y="-779.3" font-family="Times New Roman,serif" font-size="14.00">yo... quiero decir... tuviste tu oportunidad... y... te alejaste. ¿de verdad quieres intentarlo otra vez?</text>
</g>
<!-- j1238065800&#45;&gt;j4124725286 -->
<g id="edge14" class="edge">
<title>j1238065800&#45;&gt;j4124725286</title>
<path fill="none" stroke="green" d="M831.78,-1178.69C988.52,-1174.94 1241.29,-1156.02 1241.29,-1073 1241.29,-1073 1241.29,-1073 1241.29,-855 1241.29,-839.53 1234.9,-823.71 1227.83,-810.94"/>
<polygon fill="green" stroke="green" points="1231.04,-809.49 1222.9,-802.71 1225.04,-813.09 1231.04,-809.49"/>
<text text-anchor="middle" x="1252.29" y="-960.3" font-family="Times New Roman,serif" font-size="14.00">true</text>
</g>
<!-- j853943855 -->
<g id="node14" class="node">
<title>j853943855</title>
<polygon fill="none" stroke="blue" points="1212.79,-1090 207.79,-1090 207.79,-1054 1212.79,-1054 1212.79,-1090"/>
<text text-anchor="middle" x="710.29" y="-1068.3" font-family="Times New Roman,serif" font-size="14.00">¿sabes que pudiste simplemente haber venido y haber hablado conmigo? ¿o que tuviste un montón de oportunidades diferentes de decirlo mientras estábamos hablando, verdad?</text>
</g>
<!-- j1238065800&#45;&gt;j853943855 -->
<g id="edge15" class="edge">
<title>j1238065800&#45;&gt;j853943855</title>
<path fill="none" stroke="brown" d="M710.29,-1161.97C710.29,-1145.76 710.29,-1121.06 710.29,-1101.79"/>
<polygon fill="brown" stroke="brown" points="713.79,-1101.85 710.29,-1091.85 706.79,-1101.85 713.79,-1101.85"/>
<text text-anchor="middle" x="723.29" y="-1122.3" font-family="Times New Roman,serif" font-size="14.00">false</text>
</g>
<!-- j606239105 -->
<g id="node15" class="node">
<title>j606239105</title>
<polygon fill="none" stroke="blue" points="647.79,-801 410.79,-801 410.79,-765 647.79,-765 647.79,-801"/>
<text text-anchor="middle" x="529.29" y="-779.3" font-family="Times New Roman,serif" font-size="14.00">¿de verdad quieres intentarlo de nuevo?</text>
</g>
<!-- j3867395083&#45;&gt;j606239105 -->
<g id="edge16" class="edge">
<title>j3867395083&#45;&gt;j606239105</title>
<path fill="none" stroke="black" d="M467.3,-891.62C479.34,-870.72 499.67,-835.42 513.75,-810.97"/>
<polygon fill="black" stroke="black" points="516.65,-812.96 518.61,-802.54 510.58,-809.46 516.65,-812.96"/>
</g>
<!-- j3016788185 -->
<g id="node16" class="node">
<title>j3016788185</title>
<polygon fill="none" stroke="red" points="892.29,-728 776.29,-728 776.29,-692 892.29,-692 892.29,-728"/>
<text text-anchor="middle" x="834.29" y="-706.3" font-family="Times New Roman,serif" font-size="14.00">Sí. :) me gustaría.</text>
</g>
<!-- j4124725286&#45;&gt;j3016788185 -->
<g id="edge17" class="edge">
<title>j4124725286&#45;&gt;j3016788185</title>
<path fill="none" stroke="black" d="M1117.07,-764.54C1051.17,-752.06 963.87,-735.53 903.79,-724.16"/>
<polygon fill="black" stroke="black" points="904.49,-720.73 894.02,-722.31 903.19,-727.61 904.49,-720.73"/>
</g>
<!-- j913555214 -->
<g id="node17" class="node">
<title>j913555214</title>
<polygon fill="none" stroke="red" points="750.79,-728 557.79,-728 557.79,-692 750.79,-692 750.79,-728"/>
<text text-anchor="middle" x="654.29" y="-706.3" font-family="Times New Roman,serif" font-size="14.00">En realidad, cambié de opinión.</text>
</g>
<!-- j4124725286&#45;&gt;j913555214 -->
<g id="edge18" class="edge">
<title>j4124725286&#45;&gt;j913555214</title>
<path fill="none" stroke="black" d="M1057.52,-764.51C972.17,-754.41 863.71,-741.14 767.29,-728 765.63,-727.77 763.96,-727.54 762.28,-727.31"/>
<polygon fill="black" stroke="black" points="762.93,-723.87 752.54,-725.95 761.96,-730.8 762.93,-723.87"/>
</g>
<!-- j1155968018 -->
<g id="node18" class="node">
<title>j1155968018</title>
<polygon fill="none" stroke="red" points="948.29,-982 840.29,-982 840.29,-946 948.29,-946 948.29,-982"/>
<text text-anchor="middle" x="894.29" y="-960.3" font-family="Times New Roman,serif" font-size="14.00">No tenía ni idea.</text>
</g>
<!-- j853943855&#45;&gt;j1155968018 -->
<g id="edge19" class="edge">
<title>j853943855&#45;&gt;j1155968018</title>
<path fill="none" stroke="black" d="M740.26,-1053.73C771.31,-1035.85 820,-1007.8 854.31,-988.03"/>
<polygon fill="black" stroke="black" points="855.79,-991.22 862.71,-983.19 852.3,-985.15 855.79,-991.22"/>
</g>
<!-- j2791966648 -->
<g id="node19" class="node">
<title>j2791966648</title>
<polygon fill="none" stroke="red" points="821.79,-982 612.79,-982 612.79,-946 821.79,-946 821.79,-982"/>
<text text-anchor="middle" x="717.29" y="-960.3" font-family="Times New Roman,serif" font-size="14.00">Ni siquiera me pasó por la cabeza.</text>
</g>
<!-- j853943855&#45;&gt;j2791966648 -->
<g id="edge20" class="edge">
<title>j853943855&#45;&gt;j2791966648</title>
<path fill="none" stroke="black" d="M721.17,-1053.83C724.07,-1048.35 726.81,-1042.11 728.29,-1036 732.05,-1020.45 730.72,-1015.81 728.29,-1000 727.95,-997.78 727.49,-995.51 726.96,-993.24"/>
<polygon fill="black" stroke="black" points="730.34,-992.33 724.25,-983.66 723.6,-994.23 730.34,-992.33"/>
</g>
<!-- j606239105&#45;&gt;j3016788185 -->
<g id="edge21" class="edge">
<title>j606239105&#45;&gt;j3016788185</title>
<path fill="none" stroke="black" d="M604.29,-764.54C653.28,-753.14 716.8,-738.35 764.67,-727.21"/>
<polygon fill="black" stroke="black" points="765.44,-730.62 774.39,-724.94 763.86,-723.8 765.44,-730.62"/>
</g>
<!-- j606239105&#45;&gt;j913555214 -->
<g id="edge22" class="edge">
<title>j606239105&#45;&gt;j913555214</title>
<path fill="none" stroke="black" d="M559.87,-764.63C576.06,-755.43 596.16,-744.02 613.65,-734.08"/>
<polygon fill="black" stroke="black" points="615.31,-737.17 622.28,-729.18 611.85,-731.08 615.31,-737.17"/>
</g>
<!-- j2525641380 -->
<g id="node20" class="node">
<title>j2525641380</title>
<polygon fill="none" stroke="blue" points="881.29,-655 819.29,-655 819.29,-619 881.29,-619 881.29,-655"/>
<text text-anchor="middle" x="850.29" y="-633.3" font-family="Times New Roman,serif" font-size="14.00">¡eeeeeh!</text>
</g>
<!-- j3016788185&#45;&gt;j2525641380 -->
<g id="edge23" class="edge">
<title>j3016788185&#45;&gt;j2525641380</title>
<path fill="none" stroke="black" d="M838.16,-691.81C839.89,-684.14 841.98,-674.89 843.92,-666.24"/>
<polygon fill="black" stroke="black" points="847.34,-667.03 846.12,-656.51 840.51,-665.49 847.34,-667.03"/>
</g>
<!-- j1808117946 -->
<g id="node21" class="node">
<title>j1808117946</title>
<polygon fill="none" stroke="blue" points="709.79,-655 596.79,-655 596.79,-619 709.79,-619 709.79,-655"/>
<text text-anchor="middle" x="653.29" y="-633.3" font-family="Times New Roman,serif" font-size="14.00">CARAJOOOOO</text>
</g>
<!-- j913555214&#45;&gt;j1808117946 -->
<g id="edge24" class="edge">
<title>j913555214&#45;&gt;j1808117946</title>
<path fill="none" stroke="black" d="M654.05,-691.81C653.94,-684.23 653.81,-675.1 653.69,-666.54"/>
<polygon fill="black" stroke="black" points="657.19,-666.49 653.55,-656.54 650.19,-666.59 657.19,-666.49"/>
</g>
<!-- j1328878247 -->
<g id="node22" class="node">
<title>j1328878247</title>
<polygon fill="none" stroke="blue" points="1009.79,-874 566.79,-874 566.79,-838 1009.79,-838 1009.79,-874"/>
<text text-anchor="middle" x="788.29" y="-852.3" font-family="Times New Roman,serif" font-size="14.00">...algo me dice que probablemente apestas en los juegos de rompecabezas...</text>
</g>
<!-- j1155968018&#45;&gt;j1328878247 -->
<g id="edge25" class="edge">
<title>j1155968018&#45;&gt;j1328878247</title>
<path fill="none" stroke="black" d="M877.26,-945.97C860.05,-928.76 833.27,-901.98 813.58,-882.29"/>
<polygon fill="black" stroke="black" points="816.25,-880.01 806.7,-875.41 811.3,-884.96 816.25,-880.01"/>
</g>
<!-- j2791966648&#45;&gt;j1328878247 -->
<g id="edge26" class="edge">
<title>j2791966648&#45;&gt;j1328878247</title>
<path fill="none" stroke="black" d="M728.7,-945.97C739.91,-929.22 757.2,-903.41 770.28,-883.89"/>
<polygon fill="black" stroke="black" points="773.18,-885.85 775.83,-875.6 767.36,-881.96 773.18,-885.85"/>
</g>
<!-- j82010720 -->
<g id="node23" class="node">
<title>j82010720</title>
<polygon fill="none" stroke="blue" points="937.79,-582 806.79,-582 806.79,-546 937.79,-546 937.79,-582"/>
<text text-anchor="middle" x="872.29" y="-560.3" font-family="Times New Roman,serif" font-size="14.00">okokokokokokokok</text>
</g>
<!-- j2525641380&#45;&gt;j82010720 -->
<g id="edge27" class="edge">
<title>j2525641380&#45;&gt;j82010720</title>
<path fill="none" stroke="black" d="M855.62,-618.81C858.02,-611.05 860.92,-601.68 863.63,-592.95"/>
<polygon fill="black" stroke="black" points="866.95,-594.06 866.56,-583.47 860.26,-591.99 866.95,-594.06"/>
</g>
<!-- j720486047 -->
<g id="node24" class="node">
<title>j720486047</title>
<polygon fill="none" stroke="blue" points="751.79,-582 548.79,-582 548.79,-546 751.79,-546 751.79,-582"/>
<text text-anchor="middle" x="650.29" y="-560.3" font-family="Times New Roman,serif" font-size="14.00">AAAAAAAAAAAGHHHHHHH</text>
</g>
<!-- j1808117946&#45;&gt;j720486047 -->
<g id="edge28" class="edge">
<title>j1808117946&#45;&gt;j720486047</title>
<path fill="none" stroke="black" d="M652.56,-618.81C652.24,-611.14 651.85,-601.89 651.48,-593.24"/>
<polygon fill="black" stroke="black" points="654.99,-593.38 651.07,-583.54 648,-593.68 654.99,-593.38"/>
</g>
<!-- j719802998 -->
<g id="node25" class="node">
<title>j719802998</title>
<polygon fill="none" stroke="blue" points="910.79,-801 665.79,-801 665.79,-765 910.79,-765 910.79,-801"/>
<text text-anchor="middle" x="788.29" y="-779.3" font-family="Times New Roman,serif" font-size="14.00">entonces, ¿quieres hacer esto? ¿en serio?</text>
</g>
<!-- j1328878247&#45;&gt;j719802998 -->
<g id="edge29" class="edge">
<title>j1328878247&#45;&gt;j719802998</title>
<path fill="none" stroke="black" d="M788.29,-837.81C788.29,-830.23 788.29,-821.1 788.29,-812.54"/>
<polygon fill="black" stroke="black" points="791.79,-812.54 788.29,-802.54 784.79,-812.54 791.79,-812.54"/>
</g>
<!-- j2684623316 -->
<g id="node26" class="node">
<title>j2684623316</title>
<ellipse fill="none" stroke="orange" cx="926.29" cy="-491" rx="64.19" ry="18"/>
<text text-anchor="middle" x="926.29" y="-487.3" font-family="Times New Roman,serif" font-size="14.00">+20 Chemistry</text>
</g>
<!-- j82010720&#45;&gt;j2684623316 -->
<g id="edge30" class="edge">
<title>j82010720&#45;&gt;j2684623316</title>
<path fill="none" stroke="black" d="M885.36,-545.81C891.73,-537.44 899.52,-527.2 906.59,-517.9"/>
<polygon fill="black" stroke="black" points="909.15,-520.31 912.42,-510.23 903.58,-516.07 909.15,-520.31"/>
</g>
<!-- j19193371 -->
<g id="node27" class="node">
<title>j19193371</title>
<polygon fill="none" stroke="blue" points="714.79,-509 579.79,-509 579.79,-473 714.79,-473 714.79,-509"/>
<text text-anchor="middle" x="647.29" y="-487.3" font-family="Times New Roman,serif" font-size="14.00">POR QUÉEEEEEEE</text>
</g>
<!-- j720486047&#45;&gt;j19193371 -->
<g id="edge31" class="edge">
<title>j720486047&#45;&gt;j19193371</title>
<path fill="none" stroke="black" d="M649.56,-545.81C649.24,-538.14 648.85,-528.89 648.48,-520.24"/>
<polygon fill="black" stroke="black" points="651.99,-520.38 648.07,-510.54 645,-520.68 651.99,-520.38"/>
</g>
<!-- j719802998&#45;&gt;j3016788185 -->
<g id="edge32" class="edge">
<title>j719802998&#45;&gt;j3016788185</title>
<path fill="none" stroke="black" d="M799.42,-764.81C804.74,-756.62 811.21,-746.62 817.13,-737.48"/>
<polygon fill="black" stroke="black" points="819.93,-739.59 822.43,-729.3 814.06,-735.79 819.93,-739.59"/>
</g>
<!-- j719802998&#45;&gt;j913555214 -->
<g id="edge33" class="edge">
<title>j719802998&#45;&gt;j913555214</title>
<path fill="none" stroke="black" d="M755.51,-764.63C737.99,-755.35 716.2,-743.8 697.33,-733.81"/>
<polygon fill="black" stroke="black" points="699.01,-730.73 688.53,-729.14 695.73,-736.92 699.01,-730.73"/>
</g>
<!-- j919192805 -->
<g id="node28" class="node">
<title>j919192805</title>
<polygon fill="none" stroke="blue" points="1342.79,-436 739.79,-436 739.79,-400 1342.79,-400 1342.79,-436"/>
<text text-anchor="middle" x="1041.29" y="-414.3" font-family="Times New Roman,serif" font-size="14.00">¡SÍ, hagámoslo!&lt;RETRO_EMOJI_HEART&gt;&lt;RETRO_EMOJI_HEART&gt;&lt;RETRO_EMOJI_HEART&gt;</text>
</g>
<!-- j2684623316&#45;&gt;j919192805 -->
<g id="edge34" class="edge">
<title>j2684623316&#45;&gt;j919192805</title>
<path fill="none" stroke="black" d="M952.1,-474.07C967.27,-464.7 986.71,-452.7 1003.57,-442.29"/>
<polygon fill="black" stroke="black" points="1005.19,-445.4 1011.86,-437.17 1001.52,-439.44 1005.19,-445.4"/>
</g>
<!-- j996173141 -->
<g id="node29" class="node">
<title>j996173141</title>
<polygon fill="none" stroke="blue" points="721.29,-436 551.29,-436 551.29,-400 721.29,-400 721.29,-436"/>
<text text-anchor="middle" x="636.29" y="-414.3" font-family="Times New Roman,serif" font-size="14.00">SIEMPRE ES LO MISMO</text>
</g>
<!-- j19193371&#45;&gt;j996173141 -->
<g id="edge35" class="edge">
<title>j19193371&#45;&gt;j996173141</title>
<path fill="none" stroke="black" d="M644.63,-472.81C643.44,-465.14 642.01,-455.89 640.67,-447.24"/>
<polygon fill="black" stroke="black" points="644.15,-446.87 639.16,-437.52 637.23,-447.94 644.15,-446.87"/>
</g>
<!-- j1639322704 -->
<g id="node30" class="node">
<title>j1639322704</title>
<ellipse fill="none" stroke="orange" cx="1040.29" cy="-345" rx="136.48" ry="18"/>
<text text-anchor="middle" x="1040.29" y="-341.3" font-family="Times New Roman,serif" font-size="14.00">Boolean AmirNoDate is now false.</text>
</g>
<!-- j919192805&#45;&gt;j1639322704 -->
<g id="edge36" class="edge">
<title>j919192805&#45;&gt;j1639322704</title>
<path fill="none" stroke="black" d="M1041.05,-399.81C1040.94,-392.23 1040.81,-383.1 1040.69,-374.54"/>
<polygon fill="black" stroke="black" points="1044.19,-374.49 1040.55,-364.54 1037.19,-374.59 1044.19,-374.49"/>
</g>
<!-- j2052614140 -->
<g id="node31" class="node">
<title>j2052614140</title>
<polygon fill="none" stroke="blue" points="769.29,-363 605.29,-363 605.29,-327 769.29,-327 769.29,-363"/>
<text text-anchor="middle" x="687.29" y="-341.3" font-family="Times New Roman,serif" font-size="14.00">CADA. MALDITA. VEZ.</text>
</g>
<!-- j996173141&#45;&gt;j2052614140 -->
<g id="edge37" class="edge">
<title>j996173141&#45;&gt;j2052614140</title>
<path fill="none" stroke="black" d="M648.64,-399.81C654.59,-391.53 661.85,-381.41 668.47,-372.19"/>
<polygon fill="black" stroke="black" points="671.18,-374.42 674.17,-364.26 665.5,-370.34 671.18,-374.42"/>
</g>
<!-- j3811959397 -->
<g id="node32" class="node">
<title>j3811959397</title>
<ellipse fill="none" stroke="orange" cx="1024.29" cy="-272" rx="118.08" ry="18"/>
<text text-anchor="middle" x="1024.29" y="-268.3" font-family="Times New Roman,serif" font-size="14.00">Boolean IsDating is now true.</text>
</g>
<!-- j1639322704&#45;&gt;j3811959397 -->
<g id="edge38" class="edge">
<title>j1639322704&#45;&gt;j3811959397</title>
<path fill="none" stroke="black" d="M1036.42,-326.81C1034.69,-319.14 1032.6,-309.89 1030.65,-301.24"/>
<polygon fill="black" stroke="black" points="1034.07,-300.49 1028.46,-291.51 1027.24,-302.03 1034.07,-300.49"/>
</g>
<!-- j2322051913 -->
<g id="node33" class="node">
<title>j2322051913</title>
<ellipse fill="none" stroke="orange" cx="813.29" cy="-218" rx="133.78" ry="18"/>
<text text-anchor="middle" x="813.29" y="-214.3" font-family="Times New Roman,serif" font-size="14.00">Boolean AmirNoDate is now true.</text>
</g>
<!-- j2052614140&#45;&gt;j2322051913 -->
<g id="edge39" class="edge">
<title>j2052614140&#45;&gt;j2322051913</title>
<path fill="none" stroke="black" d="M704.81,-326.62C726.44,-305.16 763.38,-268.52 788.06,-244.03"/>
<polygon fill="black" stroke="black" points="790.21,-246.83 794.84,-237.3 785.28,-241.86 790.21,-246.83"/>
</g>
<!-- j718834166 -->
<g id="node34" class="node">
<title>j718834166</title>
<ellipse fill="none" stroke="orange" cx="1018.29" cy="-164" rx="129.18" ry="18"/>
<text text-anchor="middle" x="1018.29" y="-160.3" font-family="Times New Roman,serif" font-size="14.00">Boolean AmirDating is now true.</text>
</g>
<!-- j3811959397&#45;&gt;j718834166 -->
<g id="edge40" class="edge">
<title>j3811959397&#45;&gt;j718834166</title>
<path fill="none" stroke="black" d="M1023.33,-253.97C1022.41,-237.76 1021.01,-213.06 1019.92,-193.79"/>
<polygon fill="black" stroke="black" points="1023.42,-193.64 1019.36,-183.85 1016.43,-194.03 1023.42,-193.64"/>
</g>
<!-- j2322051913&#45;&gt;Chat ends. -->
<g id="edge41" class="edge">
<title>j2322051913&#45;&gt;Chat ends.</title>
<path fill="none" stroke="black" d="M814.81,-199.87C818.34,-170.07 829.75,-108.5 865.29,-73 889.97,-48.35 926.7,-34.88 957.64,-27.56"/>
<polygon fill="black" stroke="black" points="958.24,-31.01 967.26,-25.46 956.74,-24.17 958.24,-31.01"/>
</g>
<!-- j413995954 -->
<g id="node35" class="node">
<title>j413995954</title>
<ellipse fill="none" stroke="orange" cx="1016.29" cy="-91" rx="141.88" ry="18"/>
<text text-anchor="middle" x="1016.29" y="-87.3" font-family="Times New Roman,serif" font-size="14.00">Boolean AmirHasDated is now true.</text>
</g>
<!-- j718834166&#45;&gt;j413995954 -->
<g id="edge42" class="edge">
<title>j718834166&#45;&gt;j413995954</title>
<path fill="none" stroke="black" d="M1017.81,-145.81C1017.59,-138.14 1017.33,-128.89 1017.09,-120.24"/>
<polygon fill="black" stroke="black" points="1020.59,-120.44 1016.81,-110.54 1013.59,-120.64 1020.59,-120.44"/>
</g>
<!-- j413995954&#45;&gt;Chat ends. -->
<g id="edge43" class="edge">
<title>j413995954&#45;&gt;Chat ends.</title>
<path fill="none" stroke="black" d="M1016.05,-72.81C1015.94,-65.23 1015.81,-56.1 1015.69,-47.54"/>
<polygon fill="black" stroke="black" points="1019.19,-47.49 1015.55,-37.54 1012.19,-47.59 1019.19,-47.49"/>
</g>
</g>
</svg>
