<?xml version="1.0" encoding="UTF-8" standalone="no"?>
<!DOCTYPE svg PUBLIC "-//W3C//DTD SVG 1.1//EN"
 "http://www.w3.org/Graphics/SVG/1.1/DTD/svg11.dtd">
<!-- Generated by graphviz version 7.1.0 (20230121.1956)
 -->
<!-- Pages: 1 -->
<svg width="1673pt" height="1564pt"
 viewBox="0.00 0.00 1672.50 1564.00" xmlns="http://www.w3.org/2000/svg" xmlns:xlink="http://www.w3.org/1999/xlink">
<g id="graph0" class="graph" transform="scale(1 1) rotate(0) translate(4 1560)">
<polygon fill="white" stroke="none" points="-4,4 -4,-1560 1668.5,-1560 1668.5,4 -4,4"/>
<!-- 3527 -->
<g id="node1" class="node">
<title>3527</title>
<ellipse fill="none" stroke="orange" cx="460" cy="-1538" rx="118.08" ry="18"/>
<text text-anchor="middle" x="460" y="-1534.3" font-family="Times New Roman,serif" font-size="14.00">AmirQuincyWingman begins.</text>
</g>
<!-- 3528 -->
<g id="node2" class="node">
<title>3528</title>
<ellipse fill="none" stroke="orange" cx="460" cy="-1465" rx="98.28" ry="18"/>
<text text-anchor="middle" x="460" y="-1461.3" font-family="Times New Roman,serif" font-size="14.00">Check boolean IsDating</text>
</g>
<!-- 3527&#45;&gt;3528 -->
<g id="edge1" class="edge">
<title>3527&#45;&gt;3528</title>
<path fill="none" stroke="black" d="M460,-1519.81C460,-1512.23 460,-1503.1 460,-1494.54"/>
<polygon fill="black" stroke="black" points="463.5,-1494.54 460,-1484.54 456.5,-1494.54 463.5,-1494.54"/>
</g>
<!-- 3529 -->
<g id="node3" class="node">
<title>3529</title>
<ellipse fill="none" stroke="orange" cx="438" cy="-1378" rx="50.09" ry="18"/>
<text text-anchor="middle" x="438" y="-1374.3" font-family="Times New Roman,serif" font-size="14.00">Chat ends.</text>
</g>
<!-- 3528&#45;&gt;3529 -->
<g id="edge2" class="edge">
<title>3528&#45;&gt;3529</title>
<path fill="none" stroke="green" d="M455.55,-1446.8C452.6,-1435.39 448.65,-1420.16 445.25,-1407.03"/>
<polygon fill="green" stroke="green" points="448.72,-1406.44 442.82,-1397.64 441.94,-1408.2 448.72,-1406.44"/>
<text text-anchor="middle" x="462" y="-1417.8" font-family="Times New Roman,serif" font-size="14.00">true</text>
</g>
<!-- 3530 -->
<g id="node4" class="node">
<title>3530</title>
<polygon fill="none" stroke="blue" points="1206,-1396 506,-1396 506,-1360 1206,-1360 1206,-1396"/>
<text text-anchor="middle" x="856" y="-1374.3" font-family="Times New Roman,serif" font-size="14.00">ey. uhm... quincy habló conmigo ayer. dijo que tú y él habían estado hablando y que tú... ¿querías decirme algunas cosas?</text>
</g>
<!-- 3528&#45;&gt;3530 -->
<g id="edge3" class="edge">
<title>3528&#45;&gt;3530</title>
<path fill="none" stroke="brown" d="M521.88,-1450.72C586.64,-1436.82 689.06,-1414.83 763.44,-1398.87"/>
<polygon fill="brown" stroke="brown" points="764.15,-1402.3 773.19,-1396.78 762.68,-1395.45 764.15,-1402.3"/>
<text text-anchor="middle" x="695" y="-1417.8" font-family="Times New Roman,serif" font-size="14.00">false</text>
</g>
<!-- 3531 -->
<g id="node5" class="node">
<title>3531</title>
<ellipse fill="none" stroke="orange" cx="856" cy="-1305" rx="113.98" ry="18"/>
<text text-anchor="middle" x="856" y="-1301.3" font-family="Times New Roman,serif" font-size="14.00">Check boolean AmirNoDate</text>
</g>
<!-- 3530&#45;&gt;3531 -->
<g id="edge4" class="edge">
<title>3530&#45;&gt;3531</title>
<path fill="none" stroke="black" d="M856,-1359.81C856,-1352.23 856,-1343.1 856,-1334.54"/>
<polygon fill="black" stroke="black" points="859.5,-1334.54 856,-1324.54 852.5,-1334.54 859.5,-1334.54"/>
</g>
<!-- 3532 -->
<g id="node6" class="node">
<title>3532</title>
<polygon fill="none" stroke="red" points="591.5,-1182 348.5,-1182 348.5,-1146 591.5,-1146 591.5,-1182"/>
<text text-anchor="middle" x="470" y="-1160.3" font-family="Times New Roman,serif" font-size="14.00">Yo sólo... realmente quería disculparme.</text>
</g>
<!-- 3531&#45;&gt;3532 -->
<g id="edge5" class="edge">
<title>3531&#45;&gt;3532</title>
<path fill="none" stroke="green" d="M763.02,-1294.29C701.79,-1285.21 621.19,-1268.02 556,-1236 532.62,-1224.52 510.06,-1205.49 493.92,-1190.02"/>
<polygon fill="green" stroke="green" points="496.75,-1187.9 487.17,-1183.38 491.84,-1192.89 496.75,-1187.9"/>
<text text-anchor="middle" x="652" y="-1257.8" font-family="Times New Roman,serif" font-size="14.00">true</text>
</g>
<!-- 3534 -->
<g id="node7" class="node">
<title>3534</title>
<polygon fill="none" stroke="red" points="1473,-1236 1025,-1236 1025,-1200 1473,-1200 1473,-1236"/>
<text text-anchor="middle" x="1249" y="-1214.3" font-family="Times New Roman,serif" font-size="14.00">Creo que solo estaba bromeando contigo, no sé de qué estás hablando. [Fin]</text>
</g>
<!-- 3531&#45;&gt;3534 -->
<g id="edge6" class="edge">
<title>3531&#45;&gt;3534</title>
<path fill="none" stroke="green" d="M921.34,-1289.87C985.8,-1275.93 1084.92,-1254.49 1157.26,-1238.84"/>
<polygon fill="green" stroke="green" points="1157.67,-1242.33 1166.71,-1236.8 1156.19,-1235.49 1157.67,-1242.33"/>
<text text-anchor="middle" x="1088" y="-1257.8" font-family="Times New Roman,serif" font-size="14.00">true</text>
</g>
<!-- 3531&#45;&gt;3534 -->
<g id="edge8" class="edge">
<title>3531&#45;&gt;3534</title>
<path fill="none" stroke="brown" d="M951.21,-1294.77C997.42,-1289.21 1053.51,-1280.87 1103,-1269 1133.94,-1261.58 1167.58,-1250.29 1194.77,-1240.31"/>
<polygon fill="brown" stroke="brown" points="1195.66,-1243.71 1203.82,-1236.95 1193.22,-1237.15 1195.66,-1243.71"/>
<text text-anchor="middle" x="1165" y="-1257.8" font-family="Times New Roman,serif" font-size="14.00">false</text>
</g>
<!-- 3533 -->
<g id="node8" class="node">
<title>3533</title>
<polygon fill="none" stroke="red" points="1006.5,-1236 565.5,-1236 565.5,-1200 1006.5,-1200 1006.5,-1236"/>
<text text-anchor="middle" x="786" y="-1214.3" font-family="Times New Roman,serif" font-size="14.00">Sí. Yo. No sé de qué otra manera decir esto, pero tengo sentimientos por ti.</text>
</g>
<!-- 3531&#45;&gt;3533 -->
<g id="edge7" class="edge">
<title>3531&#45;&gt;3533</title>
<path fill="none" stroke="brown" d="M841.83,-1286.8C832.03,-1274.9 818.8,-1258.83 807.68,-1245.32"/>
<polygon fill="brown" stroke="brown" points="810.41,-1243.13 801.35,-1237.64 805,-1247.58 810.41,-1243.13"/>
<text text-anchor="middle" x="839" y="-1257.8" font-family="Times New Roman,serif" font-size="14.00">false</text>
</g>
<!-- 3538 -->
<g id="node9" class="node">
<title>3538</title>
<polygon fill="none" stroke="blue" points="635,-1074 25,-1074 25,-1038 635,-1038 635,-1074"/>
<text text-anchor="middle" x="330" y="-1052.3" font-family="Times New Roman,serif" font-size="14.00">yo... ::suspiro:: bueno, quiero decir... vamos a estar atrapados aquí por un tiempo muy largo, y supongo...</text>
</g>
<!-- 3532&#45;&gt;3538 -->
<g id="edge9" class="edge">
<title>3532&#45;&gt;3538</title>
<path fill="none" stroke="black" d="M447.19,-1145.73C424.01,-1128.18 387.89,-1100.83 361.88,-1081.14"/>
<polygon fill="black" stroke="black" points="364.09,-1078.42 354,-1075.17 359.86,-1084 364.09,-1078.42"/>
</g>
<!-- 3535 -->
<g id="node10" class="node">
<title>3535</title>
<polygon fill="none" stroke="blue" points="1664.5,-1128 939.5,-1128 939.5,-1092 1664.5,-1092 1664.5,-1128"/>
<text text-anchor="middle" x="1302" y="-1106.3" font-family="Times New Roman,serif" font-size="14.00">sé que esto va a ser un shock viniendo de mí, pero eh... eso realmente no suena como algo que él haría. pero bueno, como sea</text>
</g>
<!-- 3534&#45;&gt;3535 -->
<g id="edge10" class="edge">
<title>3534&#45;&gt;3535</title>
<path fill="none" stroke="black" d="M1257.52,-1199.97C1265.81,-1183.38 1278.56,-1157.88 1288.28,-1138.43"/>
<polygon fill="black" stroke="black" points="1291.31,-1140.2 1292.65,-1129.69 1285.05,-1137.07 1291.31,-1140.2"/>
</g>
<!-- 3537 -->
<g id="node11" class="node">
<title>3537</title>
<ellipse fill="none" stroke="orange" cx="786" cy="-1110" rx="121.58" ry="18"/>
<text text-anchor="middle" x="786" y="-1106.3" font-family="Times New Roman,serif" font-size="14.00">Check boolean AmirHasDated</text>
</g>
<!-- 3533&#45;&gt;3537 -->
<g id="edge11" class="edge">
<title>3533&#45;&gt;3537</title>
<path fill="none" stroke="black" d="M786,-1199.97C786,-1183.76 786,-1159.06 786,-1139.79"/>
<polygon fill="black" stroke="black" points="789.5,-1139.85 786,-1129.85 782.5,-1139.85 789.5,-1139.85"/>
</g>
<!-- 3539 -->
<g id="node12" class="node">
<title>3539</title>
<polygon fill="none" stroke="blue" points="526,-966 0,-966 0,-930 526,-930 526,-966"/>
<text text-anchor="middle" x="263" y="-944.3" font-family="Times New Roman,serif" font-size="14.00">mentiría si dijera que no tengo sentimientos por ti, así que... um... je... sí... yo... te perdono</text>
</g>
<!-- 3538&#45;&gt;3539 -->
<g id="edge12" class="edge">
<title>3538&#45;&gt;3539</title>
<path fill="none" stroke="black" d="M228.89,-1037.6C212.67,-1032.82 199.41,-1026.98 194,-1020 184.2,-1007.35 185.63,-997.63 194,-984 196.49,-979.94 199.61,-976.34 203.15,-973.14"/>
<polygon fill="black" stroke="black" points="204.98,-976.14 210.83,-967.3 200.75,-970.57 204.98,-976.14"/>
</g>
<!-- 3536 -->
<g id="node13" class="node">
<title>3536</title>
<ellipse fill="none" stroke="orange" cx="1315" cy="-1002" rx="50.09" ry="18"/>
<text text-anchor="middle" x="1315" y="-998.3" font-family="Times New Roman,serif" font-size="14.00">Chat ends.</text>
</g>
<!-- 3535&#45;&gt;3536 -->
<g id="edge13" class="edge">
<title>3535&#45;&gt;3536</title>
<path fill="none" stroke="black" d="M1304.09,-1091.97C1306.09,-1075.69 1309.13,-1050.82 1311.5,-1031.52"/>
<polygon fill="black" stroke="black" points="1314.95,-1032.19 1312.69,-1021.84 1308,-1031.34 1314.95,-1032.19"/>
</g>
<!-- 3540 -->
<g id="node14" class="node">
<title>3540</title>
<polygon fill="none" stroke="blue" points="1489.5,-766 928.5,-766 928.5,-730 1489.5,-730 1489.5,-766"/>
<text text-anchor="middle" x="1209" y="-744.3" font-family="Times New Roman,serif" font-size="14.00">yo... quiero decir... tuviste tu oportunidad... y... te alejaste. ¿de verdad quieres intentarlo otra vez?</text>
</g>
<!-- 3537&#45;&gt;3540 -->
<g id="edge14" class="edge">
<title>3537&#45;&gt;3540</title>
<path fill="none" stroke="green" d="M874.03,-1097.19C1005.28,-1078.36 1237,-1039.9 1237,-1003 1237,-1003 1237,-1003 1237,-820 1237,-804.89 1231.44,-789.15 1225.28,-776.34"/>
<polygon fill="green" stroke="green" points="1228.49,-774.94 1220.77,-767.69 1222.29,-778.17 1228.49,-774.94"/>
<text text-anchor="middle" x="1248" y="-890.3" font-family="Times New Roman,serif" font-size="14.00">true</text>
</g>
<!-- 3541 -->
<g id="node15" class="node">
<title>3541</title>
<polygon fill="none" stroke="blue" points="1208.5,-1020 203.5,-1020 203.5,-984 1208.5,-984 1208.5,-1020"/>
<text text-anchor="middle" x="706" y="-998.3" font-family="Times New Roman,serif" font-size="14.00">¿sabes que pudiste simplemente haber venido y haber hablado conmigo? ¿o que tuviste un montón de oportunidades diferentes de decirlo mientras estábamos hablando, verdad?</text>
</g>
<!-- 3537&#45;&gt;3541 -->
<g id="edge15" class="edge">
<title>3537&#45;&gt;3541</title>
<path fill="none" stroke="brown" d="M773.15,-1091.97C760.39,-1075.07 740.67,-1048.94 725.89,-1029.36"/>
<polygon fill="brown" stroke="brown" points="728.82,-1027.42 720,-1021.55 723.23,-1031.64 728.82,-1027.42"/>
<text text-anchor="middle" x="771" y="-1052.3" font-family="Times New Roman,serif" font-size="14.00">false</text>
</g>
<!-- 3542 -->
<g id="node16" class="node">
<title>3542</title>
<polygon fill="none" stroke="blue" points="647.5,-766 410.5,-766 410.5,-730 647.5,-730 647.5,-766"/>
<text text-anchor="middle" x="529" y="-744.3" font-family="Times New Roman,serif" font-size="14.00">¿de verdad quieres intentarlo de nuevo?</text>
</g>
<!-- 3539&#45;&gt;3542 -->
<g id="edge16" class="edge">
<title>3539&#45;&gt;3542</title>
<path fill="none" stroke="black" d="M286.14,-929.78C333.6,-894.45 442.05,-813.72 496.52,-773.18"/>
<polygon fill="black" stroke="black" points="498.58,-776.01 504.51,-767.23 494.4,-770.39 498.58,-776.01"/>
</g>
<!-- 3547 -->
<g id="node17" class="node">
<title>3547</title>
<polygon fill="none" stroke="red" points="907,-693 791,-693 791,-657 907,-657 907,-693"/>
<text text-anchor="middle" x="849" y="-671.3" font-family="Times New Roman,serif" font-size="14.00">Sí. :) me gustaría.</text>
</g>
<!-- 3540&#45;&gt;3547 -->
<g id="edge17" class="edge">
<title>3540&#45;&gt;3547</title>
<path fill="none" stroke="black" d="M1140.06,-729.52C1114.39,-723.29 1084.94,-716.46 1058,-711 1011.69,-701.61 959.25,-692.84 918.48,-686.42"/>
<polygon fill="black" stroke="black" points="919.22,-682.99 908.8,-684.91 918.14,-689.91 919.22,-682.99"/>
</g>
<!-- 3548 -->
<g id="node18" class="node">
<title>3548</title>
<polygon fill="none" stroke="red" points="771.5,-693 578.5,-693 578.5,-657 771.5,-657 771.5,-693"/>
<text text-anchor="middle" x="675" y="-671.3" font-family="Times New Roman,serif" font-size="14.00">En realidad, cambié de opinión.</text>
</g>
<!-- 3540&#45;&gt;3548 -->
<g id="edge18" class="edge">
<title>3540&#45;&gt;3548</title>
<path fill="none" stroke="black" d="M1061.62,-729.53C982.25,-719.84 882.36,-707.19 782.97,-693.11"/>
<polygon fill="black" stroke="black" points="783.69,-689.68 773.29,-691.73 782.7,-696.61 783.69,-689.68"/>
</g>
<!-- 3543 -->
<g id="node19" class="node">
<title>3543</title>
<polygon fill="none" stroke="red" points="898,-912 790,-912 790,-876 898,-876 898,-912"/>
<text text-anchor="middle" x="844" y="-890.3" font-family="Times New Roman,serif" font-size="14.00">No tenía ni idea.</text>
</g>
<!-- 3541&#45;&gt;3543 -->
<g id="edge19" class="edge">
<title>3541&#45;&gt;3543</title>
<path fill="none" stroke="black" d="M728.48,-983.73C751.33,-966.18 786.94,-938.83 812.58,-919.14"/>
<polygon fill="black" stroke="black" points="814.53,-922.05 820.33,-913.18 810.27,-916.5 814.53,-922.05"/>
</g>
<!-- 3544 -->
<g id="node20" class="node">
<title>3544</title>
<polygon fill="none" stroke="red" points="771.5,-912 562.5,-912 562.5,-876 771.5,-876 771.5,-912"/>
<text text-anchor="middle" x="667" y="-890.3" font-family="Times New Roman,serif" font-size="14.00">Ni siquiera me pasó por la cabeza.</text>
</g>
<!-- 3541&#45;&gt;3544 -->
<g id="edge20" class="edge">
<title>3541&#45;&gt;3544</title>
<path fill="none" stroke="black" d="M699.73,-983.97C693.69,-967.53 684.42,-942.35 677.29,-922.97"/>
<polygon fill="black" stroke="black" points="680.64,-921.94 673.9,-913.76 674.07,-924.35 680.64,-921.94"/>
</g>
<!-- 3542&#45;&gt;3547 -->
<g id="edge21" class="edge">
<title>3542&#45;&gt;3547</title>
<path fill="none" stroke="black" d="M613.09,-729.56C659.14,-719.86 717.47,-707.32 779.47,-693.08"/>
<polygon fill="black" stroke="black" points="780.25,-696.49 789.2,-690.84 778.67,-689.67 780.25,-696.49"/>
</g>
<!-- 3542&#45;&gt;3548 -->
<g id="edge22" class="edge">
<title>3542&#45;&gt;3548</title>
<path fill="none" stroke="black" d="M564.72,-729.63C584.07,-720.22 608.2,-708.48 628.96,-698.39"/>
<polygon fill="black" stroke="black" points="630.32,-701.62 637.79,-694.1 627.26,-695.32 630.32,-701.62"/>
</g>
<!-- 3549 -->
<g id="node21" class="node">
<title>3549</title>
<polygon fill="none" stroke="blue" points="880,-620 818,-620 818,-584 880,-584 880,-620"/>
<text text-anchor="middle" x="849" y="-598.3" font-family="Times New Roman,serif" font-size="14.00">¡eeeeeh!</text>
</g>
<!-- 3547&#45;&gt;3549 -->
<g id="edge23" class="edge">
<title>3547&#45;&gt;3549</title>
<path fill="none" stroke="black" d="M849,-656.81C849,-649.23 849,-640.1 849,-631.54"/>
<polygon fill="black" stroke="black" points="852.5,-631.54 849,-621.54 845.5,-631.54 852.5,-631.54"/>
</g>
<!-- 3550 -->
<g id="node22" class="node">
<title>3550</title>
<polygon fill="none" stroke="blue" points="685.5,-620 572.5,-620 572.5,-584 685.5,-584 685.5,-620"/>
<text text-anchor="middle" x="629" y="-598.3" font-family="Times New Roman,serif" font-size="14.00">CARAJOOOOO</text>
</g>
<!-- 3548&#45;&gt;3550 -->
<g id="edge24" class="edge">
<title>3548&#45;&gt;3550</title>
<path fill="none" stroke="black" d="M663.86,-656.81C658.55,-648.62 652.08,-638.62 646.16,-629.48"/>
<polygon fill="black" stroke="black" points="649.23,-627.79 640.86,-621.3 643.36,-631.59 649.23,-627.79"/>
</g>
<!-- 3545 -->
<g id="node23" class="node">
<title>3545</title>
<polygon fill="none" stroke="blue" points="1009.5,-839 566.5,-839 566.5,-803 1009.5,-803 1009.5,-839"/>
<text text-anchor="middle" x="788" y="-817.3" font-family="Times New Roman,serif" font-size="14.00">...algo me dice que probablemente apestas en los juegos de rompecabezas...</text>
</g>
<!-- 3543&#45;&gt;3545 -->
<g id="edge25" class="edge">
<title>3543&#45;&gt;3545</title>
<path fill="none" stroke="black" d="M830.44,-875.81C823.84,-867.44 815.76,-857.2 808.43,-847.9"/>
<polygon fill="black" stroke="black" points="811.31,-845.9 802.37,-840.22 805.81,-850.24 811.31,-845.9"/>
</g>
<!-- 3544&#45;&gt;3545 -->
<g id="edge26" class="edge">
<title>3544&#45;&gt;3545</title>
<path fill="none" stroke="black" d="M696.6,-875.63C712.27,-866.43 731.73,-855.02 748.66,-845.08"/>
<polygon fill="black" stroke="black" points="750.13,-848.28 756.98,-840.2 746.58,-842.24 750.13,-848.28"/>
</g>
<!-- 3551 -->
<g id="node24" class="node">
<title>3551</title>
<polygon fill="none" stroke="blue" points="914.5,-547 783.5,-547 783.5,-511 914.5,-511 914.5,-547"/>
<text text-anchor="middle" x="849" y="-525.3" font-family="Times New Roman,serif" font-size="14.00">okokokokokokokok</text>
</g>
<!-- 3549&#45;&gt;3551 -->
<g id="edge27" class="edge">
<title>3549&#45;&gt;3551</title>
<path fill="none" stroke="black" d="M849,-583.81C849,-576.23 849,-567.1 849,-558.54"/>
<polygon fill="black" stroke="black" points="852.5,-558.54 849,-548.54 845.5,-558.54 852.5,-558.54"/>
</g>
<!-- 3553 -->
<g id="node25" class="node">
<title>3553</title>
<polygon fill="none" stroke="blue" points="718.5,-547 515.5,-547 515.5,-511 718.5,-511 718.5,-547"/>
<text text-anchor="middle" x="617" y="-525.3" font-family="Times New Roman,serif" font-size="14.00">AAAAAAAAAAAGHHHHHHH</text>
</g>
<!-- 3550&#45;&gt;3553 -->
<g id="edge28" class="edge">
<title>3550&#45;&gt;3553</title>
<path fill="none" stroke="black" d="M626.1,-583.81C624.8,-576.14 623.24,-566.89 621.77,-558.24"/>
<polygon fill="black" stroke="black" points="625.25,-557.8 620.13,-548.52 618.35,-558.96 625.25,-557.8"/>
</g>
<!-- 3546 -->
<g id="node26" class="node">
<title>3546</title>
<polygon fill="none" stroke="blue" points="910.5,-766 665.5,-766 665.5,-730 910.5,-730 910.5,-766"/>
<text text-anchor="middle" x="788" y="-744.3" font-family="Times New Roman,serif" font-size="14.00">entonces, ¿quieres hacer esto? ¿en serio?</text>
</g>
<!-- 3545&#45;&gt;3546 -->
<g id="edge29" class="edge">
<title>3545&#45;&gt;3546</title>
<path fill="none" stroke="black" d="M788,-802.81C788,-795.23 788,-786.1 788,-777.54"/>
<polygon fill="black" stroke="black" points="791.5,-777.54 788,-767.54 784.5,-777.54 791.5,-777.54"/>
</g>
<!-- 3559 -->
<g id="node27" class="node">
<title>3559</title>
<ellipse fill="none" stroke="orange" cx="849" cy="-456" rx="64.19" ry="18"/>
<text text-anchor="middle" x="849" y="-452.3" font-family="Times New Roman,serif" font-size="14.00">+20 Chemistry</text>
</g>
<!-- 3551&#45;&gt;3559 -->
<g id="edge30" class="edge">
<title>3551&#45;&gt;3559</title>
<path fill="none" stroke="black" d="M849,-510.81C849,-503.23 849,-494.1 849,-485.54"/>
<polygon fill="black" stroke="black" points="852.5,-485.54 849,-475.54 845.5,-485.54 852.5,-485.54"/>
</g>
<!-- 3554 -->
<g id="node28" class="node">
<title>3554</title>
<polygon fill="none" stroke="blue" points="681.5,-474 546.5,-474 546.5,-438 681.5,-438 681.5,-474"/>
<text text-anchor="middle" x="614" y="-452.3" font-family="Times New Roman,serif" font-size="14.00">POR QUÉEEEEEEE</text>
</g>
<!-- 3553&#45;&gt;3554 -->
<g id="edge31" class="edge">
<title>3553&#45;&gt;3554</title>
<path fill="none" stroke="black" d="M616.27,-510.81C615.95,-503.14 615.56,-493.89 615.19,-485.24"/>
<polygon fill="black" stroke="black" points="618.7,-485.38 614.78,-475.54 611.71,-485.68 618.7,-485.38"/>
</g>
<!-- 3546&#45;&gt;3547 -->
<g id="edge32" class="edge">
<title>3546&#45;&gt;3547</title>
<path fill="none" stroke="black" d="M802.77,-729.81C810.03,-721.35 818.94,-710.98 826.99,-701.61"/>
<polygon fill="black" stroke="black" points="829.52,-704.04 833.38,-694.18 824.21,-699.48 829.52,-704.04"/>
</g>
<!-- 3546&#45;&gt;3548 -->
<g id="edge33" class="edge">
<title>3546&#45;&gt;3548</title>
<path fill="none" stroke="black" d="M760.36,-729.63C745.86,-720.52 727.89,-709.23 712.18,-699.36"/>
<polygon fill="black" stroke="black" points="714.36,-696.6 704.03,-694.24 710.64,-702.52 714.36,-696.6"/>
</g>
<!-- 3552 -->
<g id="node29" class="node">
<title>3552</title>
<polygon fill="none" stroke="blue" points="924.5,-401 773.5,-401 773.5,-365 924.5,-365 924.5,-401"/>
<text text-anchor="middle" x="849" y="-379.3" font-family="Times New Roman,serif" font-size="14.00">¡SÍ, hagámoslo!&lt;3&lt;3&lt;3</text>
</g>
<!-- 3559&#45;&gt;3552 -->
<g id="edge34" class="edge">
<title>3559&#45;&gt;3552</title>
<path fill="none" stroke="black" d="M849,-437.81C849,-430.23 849,-421.1 849,-412.54"/>
<polygon fill="black" stroke="black" points="852.5,-412.54 849,-402.54 845.5,-412.54 852.5,-412.54"/>
</g>
<!-- 3555 -->
<g id="node30" class="node">
<title>3555</title>
<polygon fill="none" stroke="blue" points="699,-401 529,-401 529,-365 699,-365 699,-401"/>
<text text-anchor="middle" x="614" y="-379.3" font-family="Times New Roman,serif" font-size="14.00">SIEMPRE ES LO MISMO</text>
</g>
<!-- 3554&#45;&gt;3555 -->
<g id="edge35" class="edge">
<title>3554&#45;&gt;3555</title>
<path fill="none" stroke="black" d="M614,-437.81C614,-430.23 614,-421.1 614,-412.54"/>
<polygon fill="black" stroke="black" points="617.5,-412.54 614,-402.54 610.5,-412.54 617.5,-412.54"/>
</g>
<!-- 3560 -->
<g id="node31" class="node">
<title>3560</title>
<ellipse fill="none" stroke="orange" cx="849" cy="-310" rx="116.18" ry="18"/>
<text text-anchor="middle" x="849" y="-306.3" font-family="Times New Roman,serif" font-size="14.00">Update boolean AmirNoDate</text>
</g>
<!-- 3552&#45;&gt;3560 -->
<g id="edge36" class="edge">
<title>3552&#45;&gt;3560</title>
<path fill="none" stroke="black" d="M849,-364.81C849,-357.23 849,-348.1 849,-339.54"/>
<polygon fill="black" stroke="black" points="852.5,-339.54 849,-329.54 845.5,-339.54 852.5,-339.54"/>
</g>
<!-- 3556 -->
<g id="node32" class="node">
<title>3556</title>
<polygon fill="none" stroke="blue" points="696,-328 532,-328 532,-292 696,-292 696,-328"/>
<text text-anchor="middle" x="614" y="-306.3" font-family="Times New Roman,serif" font-size="14.00">CADA. MALDITA. VEZ.</text>
</g>
<!-- 3555&#45;&gt;3556 -->
<g id="edge37" class="edge">
<title>3555&#45;&gt;3556</title>
<path fill="none" stroke="black" d="M614,-364.81C614,-357.23 614,-348.1 614,-339.54"/>
<polygon fill="black" stroke="black" points="617.5,-339.54 614,-329.54 610.5,-339.54 617.5,-339.54"/>
</g>
<!-- 3561 -->
<g id="node33" class="node">
<title>3561</title>
<ellipse fill="none" stroke="orange" cx="849" cy="-237" rx="100.98" ry="18"/>
<text text-anchor="middle" x="849" y="-233.3" font-family="Times New Roman,serif" font-size="14.00">Update boolean IsDating</text>
</g>
<!-- 3560&#45;&gt;3561 -->
<g id="edge38" class="edge">
<title>3560&#45;&gt;3561</title>
<path fill="none" stroke="black" d="M849,-291.81C849,-284.23 849,-275.1 849,-266.54"/>
<polygon fill="black" stroke="black" points="852.5,-266.54 849,-256.54 845.5,-266.54 852.5,-266.54"/>
</g>
<!-- 3557 -->
<g id="node34" class="node">
<title>3557</title>
<ellipse fill="none" stroke="orange" cx="614" cy="-237" rx="116.18" ry="18"/>
<text text-anchor="middle" x="614" y="-233.3" font-family="Times New Roman,serif" font-size="14.00">Update boolean AmirNoDate</text>
</g>
<!-- 3556&#45;&gt;3557 -->
<g id="edge39" class="edge">
<title>3556&#45;&gt;3557</title>
<path fill="none" stroke="black" d="M614,-291.81C614,-284.23 614,-275.1 614,-266.54"/>
<polygon fill="black" stroke="black" points="617.5,-266.54 614,-256.54 610.5,-266.54 617.5,-266.54"/>
</g>
<!-- 3562 -->
<g id="node35" class="node">
<title>3562</title>
<ellipse fill="none" stroke="orange" cx="849" cy="-164" rx="112.38" ry="18"/>
<text text-anchor="middle" x="849" y="-160.3" font-family="Times New Roman,serif" font-size="14.00">Update boolean AmirDating</text>
</g>
<!-- 3561&#45;&gt;3562 -->
<g id="edge40" class="edge">
<title>3561&#45;&gt;3562</title>
<path fill="none" stroke="black" d="M849,-218.81C849,-211.23 849,-202.1 849,-193.54"/>
<polygon fill="black" stroke="black" points="852.5,-193.54 849,-183.54 845.5,-193.54 852.5,-193.54"/>
</g>
<!-- 3558 -->
<g id="node36" class="node">
<title>3558</title>
<ellipse fill="none" stroke="orange" cx="614" cy="-164" rx="50.09" ry="18"/>
<text text-anchor="middle" x="614" y="-160.3" font-family="Times New Roman,serif" font-size="14.00">Chat ends.</text>
</g>
<!-- 3557&#45;&gt;3558 -->
<g id="edge41" class="edge">
<title>3557&#45;&gt;3558</title>
<path fill="none" stroke="black" d="M614,-218.81C614,-211.23 614,-202.1 614,-193.54"/>
<polygon fill="black" stroke="black" points="617.5,-193.54 614,-183.54 610.5,-193.54 617.5,-193.54"/>
</g>
<!-- 3563 -->
<g id="node37" class="node">
<title>3563</title>
<ellipse fill="none" stroke="orange" cx="849" cy="-91" rx="124.28" ry="18"/>
<text text-anchor="middle" x="849" y="-87.3" font-family="Times New Roman,serif" font-size="14.00">Update boolean AmirHasDated</text>
</g>
<!-- 3562&#45;&gt;3563 -->
<g id="edge42" class="edge">
<title>3562&#45;&gt;3563</title>
<path fill="none" stroke="black" d="M849,-145.81C849,-138.23 849,-129.1 849,-120.54"/>
<polygon fill="black" stroke="black" points="852.5,-120.54 849,-110.54 845.5,-120.54 852.5,-120.54"/>
</g>
<!-- 2589 -->
<g id="node38" class="node">
<title>2589</title>
<ellipse fill="none" stroke="orange" cx="849" cy="-18" rx="50.09" ry="18"/>
<text text-anchor="middle" x="849" y="-14.3" font-family="Times New Roman,serif" font-size="14.00">Chat ends.</text>
</g>
<!-- 3563&#45;&gt;2589 -->
<g id="edge43" class="edge">
<title>3563&#45;&gt;2589</title>
<path fill="none" stroke="black" d="M849,-72.81C849,-65.23 849,-56.1 849,-47.54"/>
<polygon fill="black" stroke="black" points="852.5,-47.54 849,-37.54 845.5,-47.54 852.5,-47.54"/>
</g>
</g>
</svg>
