<?xml version="1.0" encoding="UTF-8" standalone="no"?>
<!DOCTYPE svg PUBLIC "-//W3C//DTD SVG 1.1//EN"
 "http://www.w3.org/Graphics/SVG/1.1/DTD/svg11.dtd">
<!-- Generated by graphviz version 7.1.0 (20230121.1956)
 -->
<!-- Pages: 1 -->
<svg width="2282pt" height="1700pt"
 viewBox="0.00 0.00 2281.50 1700.00" xmlns="http://www.w3.org/2000/svg" xmlns:xlink="http://www.w3.org/1999/xlink">
<g id="graph0" class="graph" transform="scale(1 1) rotate(0) translate(4 1696)">
<polygon fill="white" stroke="none" points="-4,4 -4,-1696 2277.5,-1696 2277.5,4 -4,4"/>
<!-- AmirRank3Convo4 begins. -->
<g id="node1" class="node">
<title>AmirRank3Convo4 begins.</title>
<ellipse fill="none" stroke="orange" cx="1061.5" cy="-1674" rx="109.68" ry="18"/>
<text text-anchor="middle" x="1061.5" y="-1670.3" font-family="Times New Roman,serif" font-size="14.00">AmirRank3Convo4 begins.</text>
</g>
<!-- j2327645925 -->
<g id="node2" class="node">
<title>j2327645925</title>
<polygon fill="none" stroke="red" points="1084,-1620 815,-1620 815,-1584 1084,-1584 1084,-1620"/>
<text text-anchor="middle" x="949.5" y="-1598.3" font-family="Times New Roman,serif" font-size="14.00">我直接问了吧，你现在是一个人吗？</text>
</g>
<!-- AmirRank3Convo4 begins.&#45;&gt;j2327645925 -->
<g id="edge1" class="edge">
<title>AmirRank3Convo4 begins.&#45;&gt;j2327645925</title>
<path fill="none" stroke="black" d="M1034.67,-1656.23C1020.31,-1647.26 1002.4,-1636.06 986.71,-1626.25"/>
<polygon fill="black" stroke="black" points="988.9,-1623.5 978.56,-1621.16 985.19,-1629.43 988.9,-1623.5"/>
</g>
<!-- j3527583350 -->
<g id="node3" class="node">
<title>j3527583350</title>
<polygon fill="none" stroke="red" points="1282,-1620 1139,-1620 1139,-1584 1282,-1584 1282,-1620"/>
<text text-anchor="middle" x="1210.5" y="-1598.3" font-family="Times New Roman,serif" font-size="14.00">你原本来自哪里？</text>
</g>
<!-- AmirRank3Convo4 begins.&#45;&gt;j3527583350 -->
<g id="edge2" class="edge">
<title>AmirRank3Convo4 begins.&#45;&gt;j3527583350</title>
<path fill="none" stroke="black" d="M1096.43,-1656.59C1116.32,-1647.25 1141.5,-1635.42 1163.14,-1625.25"/>
<polygon fill="black" stroke="black" points="1164.51,-1628.47 1172.07,-1621.05 1161.53,-1622.14 1164.51,-1628.47"/>
</g>
<!-- j1909803418 -->
<g id="node4" class="node">
<title>j1909803418</title>
<polygon fill="none" stroke="blue" points="1001,-1548 748,-1548 748,-1512 1001,-1512 1001,-1548"/>
<text text-anchor="middle" x="874.5" y="-1526.3" font-family="Times New Roman,serif" font-size="14.00">你的意思是我这个人只有一个吗？</text>
</g>
<!-- j2327645925&#45;&gt;j1909803418 -->
<g id="edge3" class="edge">
<title>j2327645925&#45;&gt;j1909803418</title>
<path fill="none" stroke="black" d="M930.96,-1583.7C922.04,-1575.37 911.17,-1565.22 901.36,-1556.07"/>
<polygon fill="black" stroke="black" points="903.89,-1553.64 894.19,-1549.38 899.11,-1558.76 903.89,-1553.64"/>
</g>
<!-- j3388738691 -->
<g id="node5" class="node">
<title>j3388738691</title>
<polygon fill="none" stroke="blue" points="1477.5,-1548 1019.5,-1548 1019.5,-1512 1477.5,-1512 1477.5,-1548"/>
<text text-anchor="middle" x="1248.5" y="-1526.3" font-family="Times New Roman,serif" font-size="14.00">自由国，土生土长的！美好的自由合众国！哟吼，合众国！哦耶</text>
</g>
<!-- j3527583350&#45;&gt;j3388738691 -->
<g id="edge4" class="edge">
<title>j3527583350&#45;&gt;j3388738691</title>
<path fill="none" stroke="black" d="M1219.89,-1583.7C1224.08,-1575.98 1229.11,-1566.71 1233.78,-1558.11"/>
<polygon fill="black" stroke="black" points="1236.8,-1559.89 1238.49,-1549.43 1230.65,-1556.55 1236.8,-1559.89"/>
</g>
<!-- j1293480560 -->
<g id="node6" class="node">
<title>j1293480560</title>
<polygon fill="none" stroke="blue" points="992,-1476 755,-1476 755,-1440 992,-1440 992,-1476"/>
<text text-anchor="middle" x="873.5" y="-1454.3" font-family="Times New Roman,serif" font-size="14.00">老实说，我最近也在想这个问题</text>
</g>
<!-- j1909803418&#45;&gt;j1293480560 -->
<g id="edge5" class="edge">
<title>j1909803418&#45;&gt;j1293480560</title>
<path fill="none" stroke="black" d="M874.25,-1511.7C874.15,-1504.41 874.02,-1495.73 873.91,-1487.54"/>
<polygon fill="black" stroke="black" points="877.41,-1487.57 873.77,-1477.62 870.41,-1487.67 877.41,-1487.57"/>
</g>
<!-- j4208883489 -->
<g id="node7" class="node">
<title>j4208883489</title>
<polygon fill="none" stroke="blue" points="1391,-1260 1110,-1260 1110,-1224 1391,-1224 1391,-1260"/>
<text text-anchor="middle" x="1250.5" y="-1238.3" font-family="Times New Roman,serif" font-size="14.00">……你完全不知道我在说什么，对吧？</text>
</g>
<!-- j3388738691&#45;&gt;j4208883489 -->
<g id="edge6" class="edge">
<title>j3388738691&#45;&gt;j4208883489</title>
<path fill="none" stroke="black" d="M1248.62,-1511.54C1248.96,-1463.76 1249.89,-1330.51 1250.3,-1271.61"/>
<polygon fill="black" stroke="black" points="1253.8,-1271.77 1250.37,-1261.75 1246.8,-1271.72 1253.8,-1271.77"/>
</g>
<!-- j3703522968 -->
<g id="node8" class="node">
<title>j3703522968</title>
<polygon fill="none" stroke="blue" points="1084.5,-1404 658.5,-1404 658.5,-1368 1084.5,-1368 1084.5,-1404"/>
<text text-anchor="middle" x="871.5" y="-1382.3" font-family="Times New Roman,serif" font-size="14.00">自从英择谛留下了一堆笔记和文件之后，我一直在研究它们</text>
</g>
<!-- j1293480560&#45;&gt;j3703522968 -->
<g id="edge7" class="edge">
<title>j1293480560&#45;&gt;j3703522968</title>
<path fill="none" stroke="black" d="M873.01,-1439.7C872.8,-1432.41 872.55,-1423.73 872.32,-1415.54"/>
<polygon fill="black" stroke="black" points="875.82,-1415.51 872.03,-1405.62 868.82,-1415.71 875.82,-1415.51"/>
</g>
<!-- j3298826570 -->
<g id="node9" class="node">
<title>j3298826570</title>
<polygon fill="none" stroke="red" points="1306,-1188 1195,-1188 1195,-1152 1306,-1152 1306,-1188"/>
<text text-anchor="middle" x="1250.5" y="-1166.3" font-family="Times New Roman,serif" font-size="14.00">完全没头绪。</text>
</g>
<!-- j4208883489&#45;&gt;j3298826570 -->
<g id="edge8" class="edge">
<title>j4208883489&#45;&gt;j3298826570</title>
<path fill="none" stroke="black" d="M1250.5,-1223.7C1250.5,-1216.41 1250.5,-1207.73 1250.5,-1199.54"/>
<polygon fill="black" stroke="black" points="1254,-1199.62 1250.5,-1189.62 1247,-1199.62 1254,-1199.62"/>
</g>
<!-- j2831191619 -->
<g id="node10" class="node">
<title>j2831191619</title>
<polygon fill="none" stroke="red" points="1404.5,-1188 1324.5,-1188 1324.5,-1152 1404.5,-1152 1404.5,-1188"/>
<text text-anchor="middle" x="1364.5" y="-1166.3" font-family="Times New Roman,serif" font-size="14.00">有点吧？</text>
</g>
<!-- j4208883489&#45;&gt;j2831191619 -->
<g id="edge9" class="edge">
<title>j4208883489&#45;&gt;j2831191619</title>
<path fill="none" stroke="black" d="M1278.97,-1223.52C1293.5,-1214.6 1311.36,-1203.63 1326.99,-1194.03"/>
<polygon fill="black" stroke="black" points="1328.41,-1197.27 1335.1,-1189.05 1324.75,-1191.3 1328.41,-1197.27"/>
</g>
<!-- j3619409717 -->
<g id="node11" class="node">
<title>j3619409717</title>
<polygon fill="none" stroke="blue" points="1018.5,-1332 718.5,-1332 718.5,-1296 1018.5,-1296 1018.5,-1332"/>
<text text-anchor="middle" x="868.5" y="-1310.3" font-family="Times New Roman,serif" font-size="14.00">你知道你可以复制出不止一个战甲吗？！</text>
</g>
<!-- j3703522968&#45;&gt;j3619409717 -->
<g id="edge10" class="edge">
<title>j3703522968&#45;&gt;j3619409717</title>
<path fill="none" stroke="black" d="M870.76,-1367.7C870.45,-1360.41 870.07,-1351.73 869.72,-1343.54"/>
<polygon fill="black" stroke="black" points="873.22,-1343.46 869.3,-1333.62 866.23,-1343.76 873.22,-1343.46"/>
</g>
<!-- j3027544325 -->
<g id="node12" class="node">
<title>j3027544325</title>
<polygon fill="none" stroke="blue" points="1475,-1116 1254,-1116 1254,-1080 1475,-1080 1475,-1116"/>
<text text-anchor="middle" x="1364.5" y="-1094.3" font-family="Times New Roman,serif" font-size="14.00">哈哈，国外的，另一个大陆的</text>
</g>
<!-- j3298826570&#45;&gt;j3027544325 -->
<g id="edge11" class="edge">
<title>j3298826570&#45;&gt;j3027544325</title>
<path fill="none" stroke="black" d="M1278.97,-1151.52C1293.5,-1142.6 1311.36,-1131.63 1326.99,-1122.03"/>
<polygon fill="black" stroke="black" points="1328.41,-1125.27 1335.1,-1117.05 1324.75,-1119.3 1328.41,-1125.27"/>
</g>
<!-- j2831191619&#45;&gt;j3027544325 -->
<g id="edge12" class="edge">
<title>j2831191619&#45;&gt;j3027544325</title>
<path fill="none" stroke="black" d="M1364.5,-1151.7C1364.5,-1144.41 1364.5,-1135.73 1364.5,-1127.54"/>
<polygon fill="black" stroke="black" points="1368,-1127.62 1364.5,-1117.62 1361,-1127.62 1368,-1127.62"/>
</g>
<!-- j2325816324 -->
<g id="node13" class="node">
<title>j2325816324</title>
<polygon fill="none" stroke="blue" points="1090.5,-1260 632.5,-1260 632.5,-1224 1090.5,-1224 1090.5,-1260"/>
<text text-anchor="middle" x="861.5" y="-1238.3" font-family="Times New Roman,serif" font-size="14.00">那么是不是有好几个 Volt 在四处跑？！我不知道我喜不喜欢这样</text>
</g>
<!-- j3619409717&#45;&gt;j2325816324 -->
<g id="edge13" class="edge">
<title>j3619409717&#45;&gt;j2325816324</title>
<path fill="none" stroke="black" d="M866.77,-1295.7C866.04,-1288.41 865.17,-1279.73 864.35,-1271.54"/>
<polygon fill="black" stroke="black" points="867.84,-1271.21 863.36,-1261.61 860.87,-1271.91 867.84,-1271.21"/>
</g>
<!-- j820475086 -->
<g id="node14" class="node">
<title>j820475086</title>
<polygon fill="none" stroke="blue" points="1507.5,-1044 1223.5,-1044 1223.5,-1008 1507.5,-1008 1507.5,-1044"/>
<text text-anchor="middle" x="1365.5" y="-1022.3" font-family="Times New Roman,serif" font-size="14.00">大大的国家，由许多像这样的小州组成</text>
</g>
<!-- j3027544325&#45;&gt;j820475086 -->
<g id="edge14" class="edge">
<title>j3027544325&#45;&gt;j820475086</title>
<path fill="none" stroke="black" d="M1364.75,-1079.7C1364.85,-1072.41 1364.98,-1063.73 1365.09,-1055.54"/>
<polygon fill="black" stroke="black" points="1368.59,-1055.67 1365.23,-1045.62 1361.59,-1055.57 1368.59,-1055.67"/>
</g>
<!-- j1606312353 -->
<g id="node15" class="node">
<title>j1606312353</title>
<polygon fill="none" stroke="blue" points="1127.5,-1188 591.5,-1188 591.5,-1152 1127.5,-1152 1127.5,-1188"/>
<text text-anchor="middle" x="859.5" y="-1166.3" font-family="Times New Roman,serif" font-size="14.00">那如果我现在也有一部分是战甲了，这是不是意味着也可以有多个阿米尔？</text>
</g>
<!-- j2325816324&#45;&gt;j1606312353 -->
<g id="edge15" class="edge">
<title>j2325816324&#45;&gt;j1606312353</title>
<path fill="none" stroke="black" d="M861.01,-1223.7C860.8,-1216.41 860.55,-1207.73 860.32,-1199.54"/>
<polygon fill="black" stroke="black" points="863.82,-1199.51 860.03,-1189.62 856.82,-1199.71 863.82,-1199.51"/>
</g>
<!-- j156528821 -->
<g id="node16" class="node">
<title>j156528821</title>
<polygon fill="none" stroke="blue" points="1630,-972 1109,-972 1109,-936 1630,-936 1630,-972"/>
<text text-anchor="middle" x="1369.5" y="-950.3" font-family="Times New Roman,serif" font-size="14.00">你在这个国家的两个不同地方长大，感觉就像是在两个不同的国家里长大</text>
</g>
<!-- j820475086&#45;&gt;j156528821 -->
<g id="edge16" class="edge">
<title>j820475086&#45;&gt;j156528821</title>
<path fill="none" stroke="black" d="M1366.49,-1007.7C1366.91,-1000.41 1367.4,-991.73 1367.87,-983.54"/>
<polygon fill="black" stroke="black" points="1371.36,-983.8 1368.44,-973.62 1364.37,-983.4 1371.36,-983.8"/>
</g>
<!-- j317532343 -->
<g id="node17" class="node">
<title>j317532343</title>
<polygon fill="none" stroke="blue" points="1083.5,-1116 625.5,-1116 625.5,-1080 1083.5,-1080 1083.5,-1116"/>
<text text-anchor="middle" x="854.5" y="-1094.3" font-family="Times New Roman,serif" font-size="14.00">他们会有我的声音吗？会有我的个性吗？他们会是一个人吗？！</text>
</g>
<!-- j1606312353&#45;&gt;j317532343 -->
<g id="edge17" class="edge">
<title>j1606312353&#45;&gt;j317532343</title>
<path fill="none" stroke="black" d="M858.26,-1151.7C857.74,-1144.41 857.12,-1135.73 856.54,-1127.54"/>
<polygon fill="black" stroke="black" points="860.03,-1127.34 855.83,-1117.61 853.05,-1127.84 860.03,-1127.34"/>
</g>
<!-- j3503444996 -->
<g id="node18" class="node">
<title>j3503444996</title>
<polygon fill="none" stroke="blue" points="1653.5,-900 1085.5,-900 1085.5,-864 1653.5,-864 1653.5,-900"/>
<text text-anchor="middle" x="1369.5" y="-878.3" font-family="Times New Roman,serif" font-size="14.00">我来自西海岸的熔炉平原，那里科技很发达，所有的电脑科技都是从那里起步的</text>
</g>
<!-- j156528821&#45;&gt;j3503444996 -->
<g id="edge18" class="edge">
<title>j156528821&#45;&gt;j3503444996</title>
<path fill="none" stroke="black" d="M1369.5,-935.7C1369.5,-928.41 1369.5,-919.73 1369.5,-911.54"/>
<polygon fill="black" stroke="black" points="1373,-911.62 1369.5,-901.62 1366,-911.62 1373,-911.62"/>
</g>
<!-- j343025928 -->
<g id="node19" class="node">
<title>j343025928</title>
<polygon fill="none" stroke="blue" points="1129.5,-1044 561.5,-1044 561.5,-1008 1129.5,-1008 1129.5,-1044"/>
<text text-anchor="middle" x="845.5" y="-1022.3" font-family="Times New Roman,serif" font-size="14.00">哪一个才是真正的阿米尔？！哪一个拥有灵魂？！灵魂这种东西真的存在吗？！</text>
</g>
<!-- j317532343&#45;&gt;j343025928 -->
<g id="edge19" class="edge">
<title>j317532343&#45;&gt;j343025928</title>
<path fill="none" stroke="black" d="M852.28,-1079.7C851.33,-1072.32 850.2,-1063.52 849.13,-1055.25"/>
<polygon fill="black" stroke="black" points="852.64,-1055.08 847.89,-1045.61 845.7,-1055.97 852.64,-1055.08"/>
</g>
<!-- j272226135 -->
<g id="node20" class="node">
<title>j272226135</title>
<polygon fill="none" stroke="blue" points="1631,-828 1110,-828 1110,-792 1631,-792 1631,-828"/>
<text text-anchor="middle" x="1370.5" y="-806.3" font-family="Times New Roman,serif" font-size="14.00">不过我是从一个叫琥珀石的边缘小镇来的，小时候在那里长大真的很美好</text>
</g>
<!-- j3503444996&#45;&gt;j272226135 -->
<g id="edge20" class="edge">
<title>j3503444996&#45;&gt;j272226135</title>
<path fill="none" stroke="black" d="M1369.75,-863.7C1369.85,-856.41 1369.98,-847.73 1370.09,-839.54"/>
<polygon fill="black" stroke="black" points="1373.59,-839.67 1370.23,-829.62 1366.59,-839.57 1373.59,-839.67"/>
</g>
<!-- j1375564000 -->
<g id="node21" class="node">
<title>j1375564000</title>
<polygon fill="none" stroke="blue" points="1088,-972 567,-972 567,-936 1088,-936 1088,-972"/>
<text text-anchor="middle" x="827.5" y="-950.3" font-family="Times New Roman,serif" font-size="14.00">啊啊啊啊啊啊啊啊啊啊啊啊啊啊啊啊啊啊啊啊啊啊啊啊啊啊啊啊啊啊啊啊</text>
</g>
<!-- j343025928&#45;&gt;j1375564000 -->
<g id="edge21" class="edge">
<title>j343025928&#45;&gt;j1375564000</title>
<path fill="none" stroke="black" d="M841.05,-1007.7C839.15,-1000.32 836.89,-991.52 834.76,-983.25"/>
<polygon fill="black" stroke="black" points="838.16,-982.38 832.28,-973.57 831.38,-984.13 838.16,-982.38"/>
</g>
<!-- j2251481557 -->
<g id="node22" class="node">
<title>j2251481557</title>
<polygon fill="none" stroke="blue" points="1577.5,-756 1167.5,-756 1167.5,-720 1577.5,-720 1577.5,-756"/>
<text text-anchor="middle" x="1372.5" y="-734.3" font-family="Times New Roman,serif" font-size="14.00">我爸经营一家餐馆，客人少的时候我就坐在后面摆弄东西</text>
</g>
<!-- j272226135&#45;&gt;j2251481557 -->
<g id="edge22" class="edge">
<title>j272226135&#45;&gt;j2251481557</title>
<path fill="none" stroke="black" d="M1370.99,-791.7C1371.2,-784.41 1371.45,-775.73 1371.68,-767.54"/>
<polygon fill="black" stroke="black" points="1375.18,-767.71 1371.97,-757.62 1368.18,-767.51 1375.18,-767.71"/>
</g>
<!-- j3728003033 -->
<g id="node23" class="node">
<title>j3728003033</title>
<polygon fill="none" stroke="blue" points="848.5,-900 794.5,-900 794.5,-864 848.5,-864 848.5,-900"/>
<text text-anchor="middle" x="821.5" y="-878.3" font-family="Times New Roman,serif" font-size="14.00">等等</text>
</g>
<!-- j1375564000&#45;&gt;j3728003033 -->
<g id="edge23" class="edge">
<title>j1375564000&#45;&gt;j3728003033</title>
<path fill="none" stroke="black" d="M826.02,-935.7C825.39,-928.41 824.65,-919.73 823.95,-911.54"/>
<polygon fill="black" stroke="black" points="827.44,-911.28 823.1,-901.61 820.46,-911.87 827.44,-911.28"/>
</g>
<!-- j1213885407 -->
<g id="node24" class="node">
<title>j1213885407</title>
<polygon fill="none" stroke="blue" points="1445,-684 1302,-684 1302,-648 1445,-648 1445,-684"/>
<text text-anchor="middle" x="1373.5" y="-662.3" font-family="Times New Roman,serif" font-size="14.00">你在哪里长大的？</text>
</g>
<!-- j2251481557&#45;&gt;j1213885407 -->
<g id="edge24" class="edge">
<title>j2251481557&#45;&gt;j1213885407</title>
<path fill="none" stroke="black" d="M1372.75,-719.7C1372.85,-712.41 1372.98,-703.73 1373.09,-695.54"/>
<polygon fill="black" stroke="black" points="1376.59,-695.67 1373.23,-685.62 1369.59,-695.57 1376.59,-695.67"/>
</g>
<!-- j1036674976 -->
<g id="node25" class="node">
<title>j1036674976</title>
<polygon fill="none" stroke="blue" points="845.5,-828 771.5,-828 771.5,-792 845.5,-792 845.5,-828"/>
<text text-anchor="middle" x="808.5" y="-806.3" font-family="Times New Roman,serif" font-size="14.00">…………</text>
</g>
<!-- j3728003033&#45;&gt;j1036674976 -->
<g id="edge25" class="edge">
<title>j3728003033&#45;&gt;j1036674976</title>
<path fill="none" stroke="black" d="M818.29,-863.7C816.92,-856.32 815.28,-847.52 813.75,-839.25"/>
<polygon fill="black" stroke="black" points="817.22,-838.79 811.95,-829.59 810.34,-840.06 817.22,-838.79"/>
</g>
<!-- j2366519891 -->
<g id="node26" class="node">
<title>j2366519891</title>
<polygon fill="none" stroke="red" points="1577,-612 1170,-612 1170,-576 1577,-576 1577,-612"/>
<text text-anchor="middle" x="1373.5" y="-590.3" font-family="Times New Roman,serif" font-size="14.00">嗯……没有那么美好和愉快。事实上，挺多创伤的地方。</text>
</g>
<!-- j1213885407&#45;&gt;j2366519891 -->
<g id="edge26" class="edge">
<title>j1213885407&#45;&gt;j2366519891</title>
<path fill="none" stroke="black" d="M1373.5,-647.7C1373.5,-640.41 1373.5,-631.73 1373.5,-623.54"/>
<polygon fill="black" stroke="black" points="1377,-623.62 1373.5,-613.62 1370,-623.62 1377,-623.62"/>
</g>
<!-- j1660240413 -->
<g id="node27" class="node">
<title>j1660240413</title>
<polygon fill="none" stroke="red" points="2273.5,-612 1595.5,-612 1595.5,-576 2273.5,-576 2273.5,-612"/>
<text text-anchor="middle" x="1934.5" y="-590.3" font-family="Times New Roman,serif" font-size="14.00">长话短说？未来的地球，然后是太空飞船扎里曼。然后是当一切都陷入混乱时出现的双衍王境。</text>
</g>
<!-- j1213885407&#45;&gt;j1660240413 -->
<g id="edge27" class="edge">
<title>j1213885407&#45;&gt;j1660240413</title>
<path fill="none" stroke="black" d="M1445.41,-656.03C1530.23,-645.44 1673.56,-627.56 1783.2,-613.88"/>
<polygon fill="black" stroke="black" points="1783.38,-617.38 1792.87,-612.67 1782.51,-610.44 1783.38,-617.38"/>
</g>
<!-- j221038406 -->
<g id="node28" class="node">
<title>j221038406</title>
<polygon fill="none" stroke="blue" points="877.5,-756 687.5,-756 687.5,-720 877.5,-720 877.5,-756"/>
<text text-anchor="middle" x="782.5" y="-734.3" font-family="Times New Roman,serif" font-size="14.00">这不是你想问我的，对吧</text>
</g>
<!-- j1036674976&#45;&gt;j221038406 -->
<g id="edge28" class="edge">
<title>j1036674976&#45;&gt;j221038406</title>
<path fill="none" stroke="black" d="M802.07,-791.7C799.27,-784.15 795.92,-775.12 792.78,-766.68"/>
<polygon fill="black" stroke="black" points="796.14,-765.68 789.38,-757.52 789.58,-768.12 796.14,-765.68"/>
</g>
<!-- j2470757388 -->
<g id="node29" class="node">
<title>j2470757388</title>
<polygon fill="none" stroke="blue" points="1520.5,-540 1226.5,-540 1226.5,-504 1520.5,-504 1520.5,-540"/>
<text text-anchor="middle" x="1373.5" y="-518.3" font-family="Times New Roman,serif" font-size="14.00">……听起来好像会有很多笑料，是吧……</text>
</g>
<!-- j2366519891&#45;&gt;j2470757388 -->
<g id="edge29" class="edge">
<title>j2366519891&#45;&gt;j2470757388</title>
<path fill="none" stroke="black" d="M1373.5,-575.7C1373.5,-568.41 1373.5,-559.73 1373.5,-551.54"/>
<polygon fill="black" stroke="black" points="1377,-551.62 1373.5,-541.62 1370,-551.62 1377,-551.62"/>
</g>
<!-- j1660240413&#45;&gt;j2470757388 -->
<g id="edge30" class="edge">
<title>j1660240413&#45;&gt;j2470757388</title>
<path fill="none" stroke="black" d="M1794.38,-575.52C1712.23,-565.27 1608.43,-552.31 1524.47,-541.84"/>
<polygon fill="black" stroke="black" points="1525.15,-538.39 1514.79,-540.63 1524.28,-545.34 1525.15,-538.39"/>
</g>
<!-- j3005534449 -->
<g id="node30" class="node">
<title>j3005534449</title>
<polygon fill="none" stroke="red" points="453,-684 232,-684 232,-648 453,-648 453,-684"/>
<text text-anchor="middle" x="342.5" y="-662.3" font-family="Times New Roman,serif" font-size="14.00">天啊，兄弟。不，不是。哈哈</text>
</g>
<!-- j221038406&#45;&gt;j3005534449 -->
<g id="edge31" class="edge">
<title>j221038406&#45;&gt;j3005534449</title>
<path fill="none" stroke="black" d="M687.03,-721.81C621.41,-711.37 533.76,-697.43 463.28,-686.22"/>
<polygon fill="black" stroke="black" points="464.05,-682.79 453.62,-684.68 462.95,-689.71 464.05,-682.79"/>
</g>
<!-- j1602062203 -->
<g id="node31" class="node">
<title>j1602062203</title>
<polygon fill="none" stroke="red" points="949,-684 616,-684 616,-648 949,-648 949,-684"/>
<text text-anchor="middle" x="782.5" y="-662.3" font-family="Times New Roman,serif" font-size="14.00">事实上——嗯——是的。完全是我想要问的。:)</text>
</g>
<!-- j221038406&#45;&gt;j1602062203 -->
<g id="edge32" class="edge">
<title>j221038406&#45;&gt;j1602062203</title>
<path fill="none" stroke="black" d="M782.5,-719.7C782.5,-712.41 782.5,-703.73 782.5,-695.54"/>
<polygon fill="black" stroke="black" points="786,-695.62 782.5,-685.62 779,-695.62 786,-695.62"/>
</g>
<!-- j1889338226 -->
<g id="node32" class="node">
<title>j1889338226</title>
<polygon fill="none" stroke="blue" points="1468.5,-468 1278.5,-468 1278.5,-432 1468.5,-432 1468.5,-468"/>
<text text-anchor="middle" x="1373.5" y="-446.3" font-family="Times New Roman,serif" font-size="14.00">也许改天再讲这个故事？</text>
</g>
<!-- j2470757388&#45;&gt;j1889338226 -->
<g id="edge33" class="edge">
<title>j2470757388&#45;&gt;j1889338226</title>
<path fill="none" stroke="black" d="M1373.5,-503.7C1373.5,-496.41 1373.5,-487.73 1373.5,-479.54"/>
<polygon fill="black" stroke="black" points="1377,-479.62 1373.5,-469.62 1370,-479.62 1377,-479.62"/>
</g>
<!-- j1445792383 -->
<g id="node33" class="node">
<title>j1445792383</title>
<polygon fill="none" stroke="blue" points="395,-612 0,-612 0,-576 395,-576 395,-612"/>
<text text-anchor="middle" x="197.5" y="-590.3" font-family="Times New Roman,serif" font-size="14.00">好吧，每次有人想和我调情，我又会开始变回老样子了</text>
</g>
<!-- j3005534449&#45;&gt;j1445792383 -->
<g id="edge34" class="edge">
<title>j3005534449&#45;&gt;j1445792383</title>
<path fill="none" stroke="black" d="M306.28,-647.52C287.36,-638.38 263.98,-627.09 243.75,-617.33"/>
<polygon fill="black" stroke="black" points="245.4,-614.24 234.87,-613.04 242.35,-620.54 245.4,-614.24"/>
</g>
<!-- j1990035795 -->
<g id="node34" class="node">
<title>j1990035795</title>
<polygon fill="none" stroke="blue" points="1151.5,-612 413.5,-612 413.5,-576 1151.5,-576 1151.5,-612"/>
<text text-anchor="middle" x="782.5" y="-590.3" font-family="Times New Roman,serif" font-size="14.00">呼，因为有一瞬间我以为你问我是不是“自己一个人”，比如没有和任何人约会，而我完全误解了这个问题</text>
</g>
<!-- j1602062203&#45;&gt;j1990035795 -->
<g id="edge35" class="edge">
<title>j1602062203&#45;&gt;j1990035795</title>
<path fill="none" stroke="black" d="M782.5,-647.7C782.5,-640.41 782.5,-631.73 782.5,-623.54"/>
<polygon fill="black" stroke="black" points="786,-623.62 782.5,-613.62 779,-623.62 786,-623.62"/>
</g>
<!-- j706877737 -->
<g id="node35" class="node">
<title>j706877737</title>
<polygon fill="none" stroke="red" points="1246,-396 1079,-396 1079,-360 1246,-360 1246,-396"/>
<text text-anchor="middle" x="1162.5" y="-374.3" font-family="Times New Roman,serif" font-size="14.00">听起来像是个约会。;)</text>
</g>
<!-- j1889338226&#45;&gt;j706877737 -->
<g id="edge36" class="edge">
<title>j1889338226&#45;&gt;j706877737</title>
<path fill="none" stroke="black" d="M1320.8,-431.52C1291.99,-421.96 1256.1,-410.05 1225.79,-400"/>
<polygon fill="black" stroke="black" points="1226.92,-396.69 1216.33,-396.86 1224.72,-403.33 1226.92,-396.69"/>
</g>
<!-- j1576975843 -->
<g id="node36" class="node">
<title>j1576975843</title>
<polygon fill="none" stroke="red" points="1429,-396 1318,-396 1318,-360 1429,-360 1429,-396"/>
<text text-anchor="middle" x="1373.5" y="-374.3" font-family="Times New Roman,serif" font-size="14.00">听起来不错。</text>
</g>
<!-- j1889338226&#45;&gt;j1576975843 -->
<g id="edge37" class="edge">
<title>j1889338226&#45;&gt;j1576975843</title>
<path fill="none" stroke="black" d="M1373.5,-431.7C1373.5,-424.41 1373.5,-415.73 1373.5,-407.54"/>
<polygon fill="black" stroke="black" points="1377,-407.62 1373.5,-397.62 1370,-407.62 1377,-407.62"/>
</g>
<!-- j1710462744 -->
<g id="node37" class="node">
<title>j1710462744</title>
<polygon fill="none" stroke="red" points="1641.5,-396 1483.5,-396 1483.5,-360 1641.5,-360 1641.5,-396"/>
<text text-anchor="middle" x="1562.5" y="-374.3" font-family="Times New Roman,serif" font-size="14.00">呃，不了。对不起。</text>
</g>
<!-- j1889338226&#45;&gt;j1710462744 -->
<g id="edge38" class="edge">
<title>j1889338226&#45;&gt;j1710462744</title>
<path fill="none" stroke="black" d="M1420.71,-431.52C1446.28,-422.04 1478.09,-410.26 1505.1,-400.26"/>
<polygon fill="black" stroke="black" points="1505.99,-403.66 1514.15,-396.91 1503.56,-397.1 1505.99,-403.66"/>
</g>
<!-- j1340575142 -->
<g id="node38" class="node">
<title>j1340575142</title>
<polygon fill="none" stroke="blue" points="893,-540 672,-540 672,-504 893,-504 893,-540"/>
<text text-anchor="middle" x="782.5" y="-518.3" font-family="Times New Roman,serif" font-size="14.00">我总能让人尴尬到抠脚哈哈哈</text>
</g>
<!-- j1445792383&#45;&gt;j1340575142 -->
<g id="edge39" class="edge">
<title>j1445792383&#45;&gt;j1340575142</title>
<path fill="none" stroke="black" d="M343.61,-575.52C441.24,-563.84 568.17,-548.65 660.4,-537.61"/>
<polygon fill="black" stroke="black" points="660.74,-541.09 670.26,-536.43 659.91,-534.14 660.74,-541.09"/>
</g>
<!-- j1990035795&#45;&gt;j1340575142 -->
<g id="edge40" class="edge">
<title>j1990035795&#45;&gt;j1340575142</title>
<path fill="none" stroke="black" d="M782.5,-575.7C782.5,-568.41 782.5,-559.73 782.5,-551.54"/>
<polygon fill="black" stroke="black" points="786,-551.62 782.5,-541.62 779,-551.62 786,-551.62"/>
</g>
<!-- j2140744551 -->
<g id="node39" class="node">
<title>j2140744551</title>
<ellipse fill="none" stroke="orange" cx="1134.5" cy="-306" rx="64.19" ry="18"/>
<text text-anchor="middle" x="1134.5" y="-302.3" font-family="Times New Roman,serif" font-size="14.00">+20 Chemistry</text>
</g>
<!-- j706877737&#45;&gt;j2140744551 -->
<g id="edge41" class="edge">
<title>j706877737&#45;&gt;j2140744551</title>
<path fill="none" stroke="black" d="M1155.58,-359.7C1152.56,-352.15 1148.95,-343.12 1145.57,-334.68"/>
<polygon fill="black" stroke="black" points="1148.87,-333.49 1141.9,-325.51 1142.37,-336.09 1148.87,-333.49"/>
</g>
<!-- j2715186549 -->
<g id="node40" class="node">
<title>j2715186549</title>
<ellipse fill="none" stroke="orange" cx="1373.5" cy="-306" rx="64.19" ry="18"/>
<text text-anchor="middle" x="1373.5" y="-302.3" font-family="Times New Roman,serif" font-size="14.00">+20 Chemistry</text>
</g>
<!-- j1576975843&#45;&gt;j2715186549 -->
<g id="edge42" class="edge">
<title>j1576975843&#45;&gt;j2715186549</title>
<path fill="none" stroke="black" d="M1373.5,-359.7C1373.5,-352.41 1373.5,-343.73 1373.5,-335.54"/>
<polygon fill="black" stroke="black" points="1377,-335.62 1373.5,-325.62 1370,-335.62 1377,-335.62"/>
</g>
<!-- j1049465017 -->
<g id="node41" class="node">
<title>j1049465017</title>
<ellipse fill="none" stroke="orange" cx="1580.5" cy="-306" rx="64.19" ry="18"/>
<text text-anchor="middle" x="1580.5" y="-302.3" font-family="Times New Roman,serif" font-size="14.00">+15 Chemistry</text>
</g>
<!-- j1710462744&#45;&gt;j1049465017 -->
<g id="edge43" class="edge">
<title>j1710462744&#45;&gt;j1049465017</title>
<path fill="none" stroke="black" d="M1566.95,-359.7C1568.85,-352.32 1571.11,-343.52 1573.24,-335.25"/>
<polygon fill="black" stroke="black" points="1576.62,-336.13 1575.72,-325.57 1569.84,-334.38 1576.62,-336.13"/>
</g>
<!-- j2970725701 -->
<g id="node42" class="node">
<title>j2970725701</title>
<polygon fill="none" stroke="blue" points="810.5,-468 756.5,-468 756.5,-432 810.5,-432 810.5,-468"/>
<text text-anchor="middle" x="783.5" y="-446.3" font-family="Times New Roman,serif" font-size="14.00">嗯</text>
</g>
<!-- j1340575142&#45;&gt;j2970725701 -->
<g id="edge44" class="edge">
<title>j1340575142&#45;&gt;j2970725701</title>
<path fill="none" stroke="black" d="M782.75,-503.7C782.85,-496.41 782.98,-487.73 783.09,-479.54"/>
<polygon fill="black" stroke="black" points="786.59,-479.67 783.23,-469.62 779.59,-479.57 786.59,-479.67"/>
</g>
<!-- j594949311 -->
<g id="node43" class="node">
<title>j594949311</title>
<polygon fill="none" stroke="blue" points="1344,-252 871,-252 871,-216 1344,-216 1344,-252"/>
<text text-anchor="middle" x="1107.5" y="-230.3" font-family="Times New Roman,serif" font-size="14.00">嗯，太好了，一边吃着一大盘意面，一边聊些伤心往事，多浪漫啊</text>
</g>
<!-- j2140744551&#45;&gt;j594949311 -->
<g id="edge45" class="edge">
<title>j2140744551&#45;&gt;j594949311</title>
<path fill="none" stroke="black" d="M1127.83,-287.7C1124.92,-280.15 1121.43,-271.12 1118.18,-262.68"/>
<polygon fill="black" stroke="black" points="1121.51,-261.59 1114.64,-253.52 1114.98,-264.11 1121.51,-261.59"/>
</g>
<!-- j2639448608 -->
<g id="node44" class="node">
<title>j2639448608</title>
<polygon fill="none" stroke="blue" points="1478.5,-180 1272.5,-180 1272.5,-144 1478.5,-144 1478.5,-180"/>
<text text-anchor="middle" x="1375.5" y="-158.3" font-family="Times New Roman,serif" font-size="14.00">好啦，等你准备好了告诉我</text>
</g>
<!-- j2715186549&#45;&gt;j2639448608 -->
<g id="edge46" class="edge">
<title>j2715186549&#45;&gt;j2639448608</title>
<path fill="none" stroke="black" d="M1373.75,-287.59C1374.08,-263.61 1374.7,-220.14 1375.1,-191.42"/>
<polygon fill="black" stroke="black" points="1378.6,-191.67 1375.24,-181.62 1371.6,-191.57 1378.6,-191.67"/>
</g>
<!-- j3726421371 -->
<g id="node45" class="node">
<title>j3726421371</title>
<polygon fill="none" stroke="blue" points="1797,-252 1402,-252 1402,-216 1797,-216 1797,-252"/>
<text text-anchor="middle" x="1599.5" y="-230.3" font-family="Times New Roman,serif" font-size="14.00">没关系，我们都有自己的事，月神知道我有，哈哈哈哈</text>
</g>
<!-- j1049465017&#45;&gt;j3726421371 -->
<g id="edge47" class="edge">
<title>j1049465017&#45;&gt;j3726421371</title>
<path fill="none" stroke="black" d="M1585.2,-287.7C1587.22,-280.24 1589.64,-271.32 1591.91,-262.97"/>
<polygon fill="black" stroke="black" points="1595.22,-264.13 1594.46,-253.57 1588.46,-262.3 1595.22,-264.13"/>
</g>
<!-- j801076627 -->
<g id="node46" class="node">
<title>j801076627</title>
<polygon fill="none" stroke="blue" points="874.5,-396 716.5,-396 716.5,-360 874.5,-360 874.5,-396"/>
<text text-anchor="middle" x="795.5" y="-374.3" font-family="Times New Roman,serif" font-size="14.00">不过我现在是一个人</text>
</g>
<!-- j2970725701&#45;&gt;j801076627 -->
<g id="edge48" class="edge">
<title>j2970725701&#45;&gt;j801076627</title>
<path fill="none" stroke="black" d="M786.47,-431.7C787.73,-424.32 789.24,-415.52 790.66,-407.25"/>
<polygon fill="black" stroke="black" points="794.07,-408.04 792.31,-397.6 787.17,-406.86 794.07,-408.04"/>
</g>
<!-- j3078659227 -->
<g id="node47" class="node">
<title>j3078659227</title>
<polygon fill="none" stroke="blue" points="1254.5,-180 954.5,-180 954.5,-144 1254.5,-144 1254.5,-180"/>
<text text-anchor="middle" x="1104.5" y="-158.3" font-family="Times New Roman,serif" font-size="14.00">说真的，这听起来比我大多数约会都要好</text>
</g>
<!-- j594949311&#45;&gt;j3078659227 -->
<g id="edge49" class="edge">
<title>j594949311&#45;&gt;j3078659227</title>
<path fill="none" stroke="black" d="M1106.76,-215.7C1106.45,-208.41 1106.07,-199.73 1105.72,-191.54"/>
<polygon fill="black" stroke="black" points="1109.22,-191.46 1105.3,-181.62 1102.23,-191.76 1109.22,-191.46"/>
</g>
<!-- j647457247 -->
<g id="node48" class="node">
<title>j647457247</title>
<ellipse fill="none" stroke="orange" cx="1170.5" cy="-90" rx="128.08" ry="18"/>
<text text-anchor="middle" x="1170.5" y="-86.3" font-family="Times New Roman,serif" font-size="14.00">Boolean AmirDuviri is now true.</text>
</g>
<!-- j2639448608&#45;&gt;j647457247 -->
<g id="edge50" class="edge">
<title>j2639448608&#45;&gt;j647457247</title>
<path fill="none" stroke="black" d="M1324.3,-143.52C1295.25,-133.6 1258.8,-121.15 1228.68,-110.87"/>
<polygon fill="black" stroke="black" points="1229.92,-107.59 1219.32,-107.67 1227.66,-114.21 1229.92,-107.59"/>
</g>
<!-- j222926028 -->
<g id="node49" class="node">
<title>j222926028</title>
<polygon fill="none" stroke="blue" points="1574.5,-108 1400.5,-108 1400.5,-72 1574.5,-72 1574.5,-108"/>
<text text-anchor="middle" x="1487.5" y="-86.3" font-family="Times New Roman,serif" font-size="14.00">有界限是好事，说真的</text>
</g>
<!-- j3726421371&#45;&gt;j222926028 -->
<g id="edge51" class="edge">
<title>j3726421371&#45;&gt;j222926028</title>
<path fill="none" stroke="black" d="M1585.77,-215.59C1566.35,-190.97 1530.72,-145.8 1508.12,-117.14"/>
<polygon fill="black" stroke="black" points="1510.87,-114.98 1501.93,-109.3 1505.38,-119.32 1510.87,-114.98"/>
</g>
<!-- j1661921193 -->
<g id="node50" class="node">
<title>j1661921193</title>
<polygon fill="none" stroke="blue" points="849,-324 754,-324 754,-288 849,-288 849,-324"/>
<text text-anchor="middle" x="801.5" y="-302.3" font-family="Times New Roman,serif" font-size="14.00">还有我要去</text>
</g>
<!-- j801076627&#45;&gt;j1661921193 -->
<g id="edge52" class="edge">
<title>j801076627&#45;&gt;j1661921193</title>
<path fill="none" stroke="black" d="M796.98,-359.7C797.61,-352.41 798.35,-343.73 799.05,-335.54"/>
<polygon fill="black" stroke="black" points="802.54,-335.87 799.9,-325.61 795.56,-335.28 802.54,-335.87"/>
</g>
<!-- j3078659227&#45;&gt;j647457247 -->
<g id="edge53" class="edge">
<title>j3078659227&#45;&gt;j647457247</title>
<path fill="none" stroke="black" d="M1120.81,-143.7C1128.57,-135.47 1137.99,-125.48 1146.53,-116.42"/>
<polygon fill="black" stroke="black" points="1149.02,-118.88 1153.33,-109.21 1143.93,-114.08 1149.02,-118.88"/>
</g>
<!-- Chat ends. -->
<g id="node51" class="node">
<title>Chat ends.</title>
<ellipse fill="none" stroke="orange" cx="1170.5" cy="-18" rx="50.09" ry="18"/>
<text text-anchor="middle" x="1170.5" y="-14.3" font-family="Times New Roman,serif" font-size="14.00">Chat ends.</text>
</g>
<!-- j647457247&#45;&gt;Chat ends. -->
<g id="edge54" class="edge">
<title>j647457247&#45;&gt;Chat ends.</title>
<path fill="none" stroke="black" d="M1170.5,-71.7C1170.5,-64.41 1170.5,-55.73 1170.5,-47.54"/>
<polygon fill="black" stroke="black" points="1174,-47.62 1170.5,-37.62 1167,-47.62 1174,-47.62"/>
</g>
<!-- j222926028&#45;&gt;Chat ends. -->
<g id="edge55" class="edge">
<title>j222926028&#45;&gt;Chat ends.</title>
<path fill="none" stroke="black" d="M1408.33,-71.52C1350.53,-58.75 1273.77,-41.8 1223.3,-30.66"/>
<polygon fill="black" stroke="black" points="1224.31,-27.3 1213.79,-28.56 1222.8,-34.13 1224.31,-27.3"/>
</g>
<!-- j3842493242 -->
<g id="node52" class="node">
<title>j3842493242</title>
<polygon fill="none" stroke="blue" points="852,-252 757,-252 757,-216 852,-216 852,-252"/>
<text text-anchor="middle" x="804.5" y="-230.3" font-family="Times New Roman,serif" font-size="14.00">羞死自己了</text>
</g>
<!-- j1661921193&#45;&gt;j3842493242 -->
<g id="edge56" class="edge">
<title>j1661921193&#45;&gt;j3842493242</title>
<path fill="none" stroke="black" d="M802.24,-287.7C802.55,-280.41 802.93,-271.73 803.28,-263.54"/>
<polygon fill="black" stroke="black" points="806.77,-263.76 803.7,-253.62 799.78,-263.46 806.77,-263.76"/>
</g>
<!-- j4170055823 -->
<g id="node53" class="node">
<title>j4170055823</title>
<ellipse fill="none" stroke="orange" cx="840.5" cy="-162" rx="64.19" ry="18"/>
<text text-anchor="middle" x="840.5" y="-158.3" font-family="Times New Roman,serif" font-size="14.00">+20 Chemistry</text>
</g>
<!-- j3842493242&#45;&gt;j4170055823 -->
<g id="edge57" class="edge">
<title>j3842493242&#45;&gt;j4170055823</title>
<path fill="none" stroke="black" d="M813.4,-215.7C817.37,-207.98 822.13,-198.71 826.56,-190.11"/>
<polygon fill="black" stroke="black" points="829.55,-191.94 831.01,-181.45 823.33,-188.74 829.55,-191.94"/>
</g>
<!-- j3805724760 -->
<g id="node54" class="node">
<title>j3805724760</title>
<polygon fill="none" stroke="blue" points="1001.5,-108 921.5,-108 921.5,-72 1001.5,-72 1001.5,-108"/>
<text text-anchor="middle" x="961.5" y="-86.3" font-family="Times New Roman,serif" font-size="14.00">马上回来</text>
</g>
<!-- j4170055823&#45;&gt;j3805724760 -->
<g id="edge58" class="edge">
<title>j4170055823&#45;&gt;j3805724760</title>
<path fill="none" stroke="black" d="M867.65,-145.29C883.65,-136.04 904.16,-124.17 921.92,-113.9"/>
<polygon fill="black" stroke="black" points="923.25,-117.17 930.15,-109.13 919.74,-111.11 923.25,-117.17"/>
</g>
<!-- j3805724760&#45;&gt;Chat ends. -->
<g id="edge59" class="edge">
<title>j3805724760&#45;&gt;Chat ends.</title>
<path fill="none" stroke="black" d="M1001.8,-75.5C1036.73,-63.8 1087.3,-46.87 1123.96,-34.59"/>
<polygon fill="black" stroke="black" points="1125.05,-37.91 1133.42,-31.42 1122.82,-31.28 1125.05,-37.91"/>
</g>
</g>
</svg>
