<?xml version="1.0" encoding="UTF-8" standalone="no"?>
<!DOCTYPE svg PUBLIC "-//W3C//DTD SVG 1.1//EN"
 "http://www.w3.org/Graphics/SVG/1.1/DTD/svg11.dtd">
<!-- Generated by graphviz version 7.1.0 (20230121.1956)
 -->
<!-- Pages: 1 -->
<svg width="1786pt" height="1634pt"
 viewBox="0.00 0.00 1786.29 1634.00" xmlns="http://www.w3.org/2000/svg" xmlns:xlink="http://www.w3.org/1999/xlink">
<g id="graph0" class="graph" transform="scale(1 1) rotate(0) translate(4 1630)">
<polygon fill="white" stroke="none" points="-4,4 -4,-1630 1782.29,-1630 1782.29,4 -4,4"/>
<!-- AmirQuincyWingman begins. -->
<g id="node1" class="node">
<title>AmirQuincyWingman begins.</title>
<ellipse fill="none" stroke="orange" cx="118.29" cy="-1608" rx="118.08" ry="18"/>
<text text-anchor="middle" x="118.29" y="-1604.3" font-family="Times New Roman,serif" font-size="14.00">AmirQuincyWingman begins.</text>
</g>
<!-- j2651217478 -->
<g id="node2" class="node">
<title>j2651217478</title>
<ellipse fill="none" stroke="orange" cx="118.29" cy="-1535" rx="98.28" ry="18"/>
<text text-anchor="middle" x="118.29" y="-1531.3" font-family="Times New Roman,serif" font-size="14.00">Check boolean IsDating</text>
</g>
<!-- AmirQuincyWingman begins.&#45;&gt;j2651217478 -->
<g id="edge1" class="edge">
<title>AmirQuincyWingman begins.&#45;&gt;j2651217478</title>
<path fill="none" stroke="black" d="M118.29,-1589.81C118.29,-1582.23 118.29,-1573.1 118.29,-1564.54"/>
<polygon fill="black" stroke="black" points="121.79,-1564.54 118.29,-1554.54 114.79,-1564.54 121.79,-1564.54"/>
</g>
<!-- Chat ends. -->
<g id="node3" class="node">
<title>Chat ends.</title>
<ellipse fill="none" stroke="orange" cx="716.29" cy="-18" rx="50.09" ry="18"/>
<text text-anchor="middle" x="716.29" y="-14.3" font-family="Times New Roman,serif" font-size="14.00">Chat ends.</text>
</g>
<!-- j2651217478&#45;&gt;Chat ends. -->
<g id="edge2" class="edge">
<title>j2651217478&#45;&gt;Chat ends.</title>
<path fill="none" stroke="green" d="M113.05,-1516.6C108.38,-1499.54 102.29,-1472.73 102.29,-1449 102.29,-1449 102.29,-1449 102.29,-90 102.29,-34.78 499.28,-22.46 654.83,-19.75"/>
<polygon fill="green" stroke="green" points="654.59,-23.25 664.53,-19.59 654.47,-16.25 654.59,-23.25"/>
<text text-anchor="middle" x="113.29" y="-706.3" font-family="Times New Roman,serif" font-size="14.00">true</text>
</g>
<!-- j415116850 -->
<g id="node4" class="node">
<title>j415116850</title>
<polygon fill="none" stroke="blue" points="806.79,-1466 241.79,-1466 241.79,-1430 806.79,-1430 806.79,-1466"/>
<text text-anchor="middle" x="524.29" y="-1444.3" font-family="Times New Roman,serif" font-size="14.00">嘿。嗯。昆西昨天和我谈了谈。他说你们一直在聊，而且你……想说些什么吗？</text>
</g>
<!-- j2651217478&#45;&gt;j415116850 -->
<g id="edge3" class="edge">
<title>j2651217478&#45;&gt;j415116850</title>
<path fill="none" stroke="brown" d="M181.28,-1520.81C247.73,-1506.9 353.2,-1484.82 429.65,-1468.81"/>
<polygon fill="brown" stroke="brown" points="430.16,-1472.28 439.23,-1466.81 428.73,-1465.43 430.16,-1472.28"/>
<text text-anchor="middle" x="359.29" y="-1487.8" font-family="Times New Roman,serif" font-size="14.00">false</text>
</g>
<!-- j3947516618 -->
<g id="node5" class="node">
<title>j3947516618</title>
<ellipse fill="none" stroke="orange" cx="726.29" cy="-1375" rx="113.98" ry="18"/>
<text text-anchor="middle" x="726.29" y="-1371.3" font-family="Times New Roman,serif" font-size="14.00">Check boolean AmirNoDate</text>
</g>
<!-- j415116850&#45;&gt;j3947516618 -->
<g id="edge4" class="edge">
<title>j415116850&#45;&gt;j3947516618</title>
<path fill="none" stroke="black" d="M573.96,-1429.54C603.09,-1419.3 639.98,-1406.34 670.16,-1395.73"/>
<polygon fill="black" stroke="black" points="671.25,-1399.06 679.52,-1392.44 668.93,-1392.45 671.25,-1399.06"/>
</g>
<!-- j1977076916 -->
<g id="node6" class="node">
<title>j1977076916</title>
<polygon fill="none" stroke="red" points="509.79,-1252 306.79,-1252 306.79,-1216 509.79,-1216 509.79,-1252"/>
<text text-anchor="middle" x="408.29" y="-1230.3" font-family="Times New Roman,serif" font-size="14.00">我只是……真的很想道歉。</text>
</g>
<!-- j3947516618&#45;&gt;j1977076916 -->
<g id="edge5" class="edge">
<title>j3947516618&#45;&gt;j1977076916</title>
<path fill="none" stroke="green" d="M669.19,-1359.07C627.26,-1347.15 569.45,-1328.71 521.29,-1306 492.99,-1292.66 463.11,-1273.64 441.19,-1258.64"/>
<polygon fill="green" stroke="green" points="443.47,-1255.96 433.25,-1253.14 439.48,-1261.72 443.47,-1255.96"/>
<text text-anchor="middle" x="614.29" y="-1327.8" font-family="Times New Roman,serif" font-size="14.00">true</text>
</g>
<!-- j2402889999 -->
<g id="node7" class="node">
<title>j2402889999</title>
<polygon fill="none" stroke="red" points="1359.79,-1306 940.79,-1306 940.79,-1270 1359.79,-1270 1359.79,-1306"/>
<text text-anchor="middle" x="1150.29" y="-1284.3" font-family="Times New Roman,serif" font-size="14.00">我觉得他只是在跟你开玩笑，我不知道你在说什么。[结束]</text>
</g>
<!-- j3947516618&#45;&gt;j2402889999 -->
<g id="edge6" class="edge">
<title>j3947516618&#45;&gt;j2402889999</title>
<path fill="none" stroke="green" d="M794.88,-1360.25C864.61,-1346.27 973.31,-1324.48 1052.14,-1308.68"/>
<polygon fill="green" stroke="green" points="1052.46,-1312.18 1061.57,-1306.79 1051.08,-1305.32 1052.46,-1312.18"/>
<text text-anchor="middle" x="974.29" y="-1327.8" font-family="Times New Roman,serif" font-size="14.00">true</text>
</g>
<!-- j3947516618&#45;&gt;j2402889999 -->
<g id="edge8" class="edge">
<title>j3947516618&#45;&gt;j2402889999</title>
<path fill="none" stroke="brown" d="M822.85,-1365.1C872.87,-1359.49 934.75,-1351.01 989.29,-1339 1023.4,-1331.49 1060.7,-1320.12 1090.8,-1310.11"/>
<polygon fill="brown" stroke="brown" points="1091.75,-1313.49 1100.11,-1306.98 1089.51,-1306.85 1091.75,-1313.49"/>
<text text-anchor="middle" x="1055.29" y="-1327.8" font-family="Times New Roman,serif" font-size="14.00">false</text>
</g>
<!-- j728104391 -->
<g id="node8" class="node">
<title>j728104391</title>
<polygon fill="none" stroke="red" points="922.29,-1306 530.29,-1306 530.29,-1270 922.29,-1270 922.29,-1306"/>
<text text-anchor="middle" x="726.29" y="-1284.3" font-family="Times New Roman,serif" font-size="14.00">是的。我。我不知道该怎么说，但是我——我喜欢你。</text>
</g>
<!-- j3947516618&#45;&gt;j728104391 -->
<g id="edge7" class="edge">
<title>j3947516618&#45;&gt;j728104391</title>
<path fill="none" stroke="brown" d="M726.29,-1356.8C726.29,-1345.58 726.29,-1330.67 726.29,-1317.69"/>
<polygon fill="brown" stroke="brown" points="729.79,-1317.98 726.29,-1307.98 722.79,-1317.98 729.79,-1317.98"/>
<text text-anchor="middle" x="739.29" y="-1327.8" font-family="Times New Roman,serif" font-size="14.00">false</text>
</g>
<!-- j637922034 -->
<g id="node9" class="node">
<title>j637922034</title>
<polygon fill="none" stroke="blue" points="667.79,-1036 124.79,-1036 124.79,-1000 667.79,-1000 667.79,-1036"/>
<text text-anchor="middle" x="396.29" y="-1014.3" font-family="Times New Roman,serif" font-size="14.00">我……（叹气）好吧，我的意思是……我们还要在这里待很长时间，我想……</text>
</g>
<!-- j1977076916&#45;&gt;j637922034 -->
<g id="edge9" class="edge">
<title>j1977076916&#45;&gt;j637922034</title>
<path fill="none" stroke="black" d="M404.74,-1215.74C398.61,-1183.84 387.06,-1113.47 391.29,-1054 391.44,-1051.93 391.63,-1049.8 391.86,-1047.66"/>
<polygon fill="black" stroke="black" points="395.31,-1048.26 393.12,-1037.9 388.37,-1047.37 395.31,-1048.26"/>
</g>
<!-- j3682463145 -->
<g id="node10" class="node">
<title>j3682463145</title>
<polygon fill="none" stroke="blue" points="1778.29,-1144 1134.29,-1144 1134.29,-1108 1778.29,-1108 1778.29,-1144"/>
<text text-anchor="middle" x="1456.29" y="-1122.3" font-family="Times New Roman,serif" font-size="14.00">我知道这对你来说可能有点意外，但是嗯……那真的不像是他会做的事。不过好吧。随便吧</text>
</g>
<!-- j2402889999&#45;&gt;j3682463145 -->
<g id="edge10" class="edge">
<title>j2402889999&#45;&gt;j3682463145</title>
<path fill="none" stroke="black" d="M1183.62,-1269.57C1239.26,-1240.48 1351.05,-1182.03 1412.81,-1149.74"/>
<polygon fill="black" stroke="black" points="1414.42,-1152.84 1421.66,-1145.11 1411.18,-1146.64 1414.42,-1152.84"/>
</g>
<!-- j1238065800 -->
<g id="node11" class="node">
<title>j1238065800</title>
<ellipse fill="none" stroke="orange" cx="745.29" cy="-1180" rx="121.58" ry="18"/>
<text text-anchor="middle" x="745.29" y="-1176.3" font-family="Times New Roman,serif" font-size="14.00">Check boolean AmirHasDated</text>
</g>
<!-- j728104391&#45;&gt;j1238065800 -->
<g id="edge11" class="edge">
<title>j728104391&#45;&gt;j1238065800</title>
<path fill="none" stroke="black" d="M729.34,-1269.97C732.26,-1253.69 736.72,-1228.82 740.18,-1209.52"/>
<polygon fill="black" stroke="black" points="743.59,-1210.29 741.91,-1199.83 736.7,-1209.06 743.59,-1210.29"/>
</g>
<!-- j2573405303 -->
<g id="node12" class="node">
<title>j2573405303</title>
<polygon fill="none" stroke="blue" points="717.29,-928 117.29,-928 117.29,-892 717.29,-892 717.29,-928"/>
<text text-anchor="middle" x="417.29" y="-906.3" font-family="Times New Roman,serif" font-size="14.00">如果我说我不喜欢你，那肯定是假的，所以……呃……哈……是的……我……我原谅你</text>
</g>
<!-- j637922034&#45;&gt;j2573405303 -->
<g id="edge12" class="edge">
<title>j637922034&#45;&gt;j2573405303</title>
<path fill="none" stroke="black" d="M399.66,-999.97C402.89,-983.69 407.81,-958.82 411.64,-939.52"/>
<polygon fill="black" stroke="black" points="415.05,-940.31 413.56,-929.83 408.18,-938.95 415.05,-940.31"/>
</g>
<!-- j3682463145&#45;&gt;Chat ends. -->
<g id="edge13" class="edge">
<title>j3682463145&#45;&gt;Chat ends.</title>
<path fill="none" stroke="black" d="M1456.55,-1107.74C1456.85,-1086.76 1457.29,-1050.29 1457.29,-1019 1457.29,-1019 1457.29,-1019 1457.29,-90 1457.29,-21.98 956.19,-17.82 778.14,-18.49"/>
<polygon fill="black" stroke="black" points="778.14,-14.99 768.15,-18.53 778.17,-21.99 778.14,-14.99"/>
</g>
<!-- j2406428641 -->
<g id="node13" class="node">
<title>j2406428641</title>
<polygon fill="none" stroke="blue" points="1428.79,-801 809.79,-801 809.79,-765 1428.79,-765 1428.79,-801"/>
<text text-anchor="middle" x="1119.29" y="-779.3" font-family="Times New Roman,serif" font-size="14.00">我……我是说，但是……你有过机会……而且……你选择了离开。你真的想再试一次吗？</text>
</g>
<!-- j1238065800&#45;&gt;j2406428641 -->
<g id="edge14" class="edge">
<title>j1238065800&#45;&gt;j2406428641</title>
<path fill="none" stroke="green" d="M847.98,-1170.08C958.7,-1157.54 1119.29,-1129.61 1119.29,-1073 1119.29,-1073 1119.29,-1073 1119.29,-855 1119.29,-841.08 1119.29,-825.63 1119.29,-812.7"/>
<polygon fill="green" stroke="green" points="1122.79,-812.73 1119.29,-802.73 1115.79,-812.73 1122.79,-812.73"/>
<text text-anchor="middle" x="1130.29" y="-960.3" font-family="Times New Roman,serif" font-size="14.00">true</text>
</g>
<!-- j2124595288 -->
<g id="node14" class="node">
<title>j2124595288</title>
<polygon fill="none" stroke="blue" points="1090.79,-1090 399.79,-1090 399.79,-1054 1090.79,-1054 1090.79,-1090"/>
<text text-anchor="middle" x="745.29" y="-1068.3" font-family="Times New Roman,serif" font-size="14.00">你知道你其实可以……直接过来和我说话的吧？或者在我们聊天的时候，你有好多次机会，对吧？</text>
</g>
<!-- j1238065800&#45;&gt;j2124595288 -->
<g id="edge15" class="edge">
<title>j1238065800&#45;&gt;j2124595288</title>
<path fill="none" stroke="brown" d="M745.29,-1161.97C745.29,-1145.76 745.29,-1121.06 745.29,-1101.79"/>
<polygon fill="brown" stroke="brown" points="748.79,-1101.85 745.29,-1091.85 741.79,-1101.85 748.79,-1101.85"/>
<text text-anchor="middle" x="758.29" y="-1122.3" font-family="Times New Roman,serif" font-size="14.00">false</text>
</g>
<!-- j1320100068 -->
<g id="node15" class="node">
<title>j1320100068</title>
<polygon fill="none" stroke="blue" points="504.29,-801 330.29,-801 330.29,-765 504.29,-765 504.29,-801"/>
<text text-anchor="middle" x="417.29" y="-779.3" font-family="Times New Roman,serif" font-size="14.00">你真的想再试试看吗？</text>
</g>
<!-- j2573405303&#45;&gt;j1320100068 -->
<g id="edge16" class="edge">
<title>j2573405303&#45;&gt;j1320100068</title>
<path fill="none" stroke="black" d="M417.29,-891.62C417.29,-871.19 417.29,-836.99 417.29,-812.62"/>
<polygon fill="black" stroke="black" points="420.79,-812.75 417.29,-802.75 413.79,-812.75 420.79,-812.75"/>
</g>
<!-- j2588473321 -->
<g id="node16" class="node">
<title>j2588473321</title>
<polygon fill="none" stroke="red" points="818.29,-728 680.29,-728 680.29,-692 818.29,-692 818.29,-728"/>
<text text-anchor="middle" x="749.29" y="-706.3" font-family="Times New Roman,serif" font-size="14.00">对。:) 我想试试。</text>
</g>
<!-- j2406428641&#45;&gt;j2588473321 -->
<g id="edge17" class="edge">
<title>j2406428641&#45;&gt;j2588473321</title>
<path fill="none" stroke="black" d="M1028.3,-764.54C967.5,-752.87 888.23,-737.66 829.73,-726.44"/>
<polygon fill="black" stroke="black" points="830.66,-723.05 820.18,-724.6 829.34,-729.93 830.66,-723.05"/>
</g>
<!-- j3111943540 -->
<g id="node17" class="node">
<title>j3111943540</title>
<polygon fill="none" stroke="red" points="642.29,-728 468.29,-728 468.29,-692 642.29,-692 642.29,-728"/>
<text text-anchor="middle" x="555.29" y="-706.3" font-family="Times New Roman,serif" font-size="14.00">其实，我改变主意了。</text>
</g>
<!-- j2406428641&#45;&gt;j3111943540 -->
<g id="edge18" class="edge">
<title>j2406428641&#45;&gt;j3111943540</title>
<path fill="none" stroke="black" d="M965.99,-764.5C879.41,-754.38 769.23,-741.08 671.29,-728 665.63,-727.24 659.83,-726.45 653.97,-725.64"/>
<polygon fill="black" stroke="black" points="654.55,-722.18 644.16,-724.26 653.58,-729.12 654.55,-722.18"/>
</g>
<!-- j2592810828 -->
<g id="node18" class="node">
<title>j2592810828</title>
<polygon fill="none" stroke="red" points="903.79,-982 760.79,-982 760.79,-946 903.79,-946 903.79,-982"/>
<text text-anchor="middle" x="832.29" y="-960.3" font-family="Times New Roman,serif" font-size="14.00">我根本没意识到。</text>
</g>
<!-- j2124595288&#45;&gt;j2592810828 -->
<g id="edge19" class="edge">
<title>j2124595288&#45;&gt;j2592810828</title>
<path fill="none" stroke="black" d="M759.27,-1053.97C773.2,-1036.99 794.78,-1010.7 810.88,-991.09"/>
<polygon fill="black" stroke="black" points="813.46,-993.46 817.1,-983.51 808.05,-989.02 813.46,-993.46"/>
</g>
<!-- j995349909 -->
<g id="node19" class="node">
<title>j995349909</title>
<polygon fill="none" stroke="red" points="742.79,-982 599.79,-982 599.79,-946 742.79,-946 742.79,-982"/>
<text text-anchor="middle" x="671.29" y="-960.3" font-family="Times New Roman,serif" font-size="14.00">完全没反应过来。</text>
</g>
<!-- j2124595288&#45;&gt;j995349909 -->
<g id="edge20" class="edge">
<title>j2124595288&#45;&gt;j995349909</title>
<path fill="none" stroke="black" d="M733.4,-1053.97C721.66,-1037.15 703.52,-1011.17 689.88,-991.62"/>
<polygon fill="black" stroke="black" points="692.86,-989.78 684.26,-983.58 687.12,-993.78 692.86,-989.78"/>
</g>
<!-- j1320100068&#45;&gt;j2588473321 -->
<g id="edge21" class="edge">
<title>j1320100068&#45;&gt;j2588473321</title>
<path fill="none" stroke="black" d="M498.93,-764.54C550.71,-753.47 617.41,-739.2 668.95,-728.18"/>
<polygon fill="black" stroke="black" points="669.51,-731.64 678.55,-726.13 668.04,-724.8 669.51,-731.64"/>
</g>
<!-- j1320100068&#45;&gt;j3111943540 -->
<g id="edge22" class="edge">
<title>j1320100068&#45;&gt;j3111943540</title>
<path fill="none" stroke="black" d="M451.05,-764.63C469.18,-755.31 491.74,-743.7 511.23,-733.67"/>
<polygon fill="black" stroke="black" points="512.76,-736.81 520.06,-729.13 509.56,-730.59 512.76,-736.81"/>
</g>
<!-- j4240207619 -->
<g id="node20" class="node">
<title>j4240207619</title>
<polygon fill="none" stroke="blue" points="817.29,-655 763.29,-655 763.29,-619 817.29,-619 817.29,-655"/>
<text text-anchor="middle" x="790.29" y="-633.3" font-family="Times New Roman,serif" font-size="14.00">耶！</text>
</g>
<!-- j2588473321&#45;&gt;j4240207619 -->
<g id="edge23" class="edge">
<title>j2588473321&#45;&gt;j4240207619</title>
<path fill="none" stroke="black" d="M759.21,-691.81C763.9,-683.7 769.6,-673.84 774.83,-664.78"/>
<polygon fill="black" stroke="black" points="777.73,-666.75 779.7,-656.34 771.67,-663.25 777.73,-666.75"/>
</g>
<!-- j3324301065 -->
<g id="node21" class="node">
<title>j3324301065</title>
<polygon fill="none" stroke="blue" points="596.29,-655 504.29,-655 504.29,-619 596.29,-619 596.29,-655"/>
<text text-anchor="middle" x="550.29" y="-633.3" font-family="Times New Roman,serif" font-size="14.00">哦，艹——</text>
</g>
<!-- j3111943540&#45;&gt;j3324301065 -->
<g id="edge24" class="edge">
<title>j3111943540&#45;&gt;j3324301065</title>
<path fill="none" stroke="black" d="M554.08,-691.81C553.54,-684.14 552.89,-674.89 552.28,-666.24"/>
<polygon fill="black" stroke="black" points="555.79,-666.27 551.6,-656.54 548.81,-666.76 555.79,-666.27"/>
</g>
<!-- j1913931319 -->
<g id="node22" class="node">
<title>j1913931319</title>
<polygon fill="none" stroke="blue" points="895.29,-874 569.29,-874 569.29,-838 895.29,-838 895.29,-874"/>
<text text-anchor="middle" x="732.29" y="-852.3" font-family="Times New Roman,serif" font-size="14.00">……我觉得你玩解谜游戏可能会挺吃力的……</text>
</g>
<!-- j2592810828&#45;&gt;j1913931319 -->
<g id="edge25" class="edge">
<title>j2592810828&#45;&gt;j1913931319</title>
<path fill="none" stroke="black" d="M816.22,-945.97C800.06,-928.84 774.95,-902.22 756.4,-882.56"/>
<polygon fill="black" stroke="black" points="759.1,-880.31 749.69,-875.44 754,-885.12 759.1,-880.31"/>
</g>
<!-- j995349909&#45;&gt;j1913931319 -->
<g id="edge26" class="edge">
<title>j995349909&#45;&gt;j1913931319</title>
<path fill="none" stroke="black" d="M701.72,-945.5C708.04,-940.58 714.06,-934.71 718.29,-928 726.22,-915.42 729.81,-899.3 731.38,-885.6"/>
<polygon fill="black" stroke="black" points="734.85,-886.1 732.17,-875.84 727.87,-885.53 734.85,-886.1"/>
</g>
<!-- j2953737782 -->
<g id="node23" class="node">
<title>j2953737782</title>
<polygon fill="none" stroke="blue" points="870.29,-582 712.29,-582 712.29,-546 870.29,-546 870.29,-582"/>
<text text-anchor="middle" x="791.29" y="-560.3" font-family="Times New Roman,serif" font-size="14.00">好好好好好好好好好</text>
</g>
<!-- j4240207619&#45;&gt;j2953737782 -->
<g id="edge27" class="edge">
<title>j4240207619&#45;&gt;j2953737782</title>
<path fill="none" stroke="black" d="M790.53,-618.81C790.64,-611.23 790.77,-602.1 790.89,-593.54"/>
<polygon fill="black" stroke="black" points="794.39,-593.59 791.03,-583.54 787.39,-593.49 794.39,-593.59"/>
</g>
<!-- j929904047 -->
<g id="node24" class="node">
<title>j929904047</title>
<polygon fill="none" stroke="blue" points="609.79,-582 482.79,-582 482.79,-546 609.79,-546 609.79,-582"/>
<text text-anchor="middle" x="546.29" y="-560.3" font-family="Times New Roman,serif" font-size="14.00">啊啊啊啊啊啊啊</text>
</g>
<!-- j3324301065&#45;&gt;j929904047 -->
<g id="edge28" class="edge">
<title>j3324301065&#45;&gt;j929904047</title>
<path fill="none" stroke="black" d="M549.32,-618.81C548.89,-611.14 548.37,-601.89 547.88,-593.24"/>
<polygon fill="black" stroke="black" points="551.39,-593.33 547.33,-583.54 544.4,-593.72 551.39,-593.33"/>
</g>
<!-- j3323540992 -->
<g id="node25" class="node">
<title>j3323540992</title>
<polygon fill="none" stroke="blue" points="791.79,-801 522.79,-801 522.79,-765 791.79,-765 791.79,-801"/>
<text text-anchor="middle" x="657.29" y="-779.3" font-family="Times New Roman,serif" font-size="14.00">所以。你真的想试试看吗？真的吗？</text>
</g>
<!-- j1913931319&#45;&gt;j3323540992 -->
<g id="edge29" class="edge">
<title>j1913931319&#45;&gt;j3323540992</title>
<path fill="none" stroke="black" d="M714.13,-837.81C704.99,-829.16 693.73,-818.5 683.65,-808.96"/>
<polygon fill="black" stroke="black" points="686.31,-806.65 676.64,-802.32 681.49,-811.73 686.31,-806.65"/>
</g>
<!-- j3391489505 -->
<g id="node26" class="node">
<title>j3391489505</title>
<ellipse fill="none" stroke="orange" cx="802.29" cy="-491" rx="64.19" ry="18"/>
<text text-anchor="middle" x="802.29" y="-487.3" font-family="Times New Roman,serif" font-size="14.00">+20 Chemistry</text>
</g>
<!-- j2953737782&#45;&gt;j3391489505 -->
<g id="edge30" class="edge">
<title>j2953737782&#45;&gt;j3391489505</title>
<path fill="none" stroke="black" d="M793.95,-545.81C795.14,-538.14 796.57,-528.89 797.91,-520.24"/>
<polygon fill="black" stroke="black" points="801.35,-520.94 799.42,-510.52 794.43,-519.87 801.35,-520.94"/>
</g>
<!-- j4730644 -->
<g id="node27" class="node">
<title>j4730644</title>
<polygon fill="none" stroke="blue" points="619.79,-509 470.79,-509 470.79,-473 619.79,-473 619.79,-509"/>
<text text-anchor="middle" x="545.29" y="-487.3" font-family="Times New Roman,serif" font-size="14.00">为——什——么——</text>
</g>
<!-- j929904047&#45;&gt;j4730644 -->
<g id="edge31" class="edge">
<title>j929904047&#45;&gt;j4730644</title>
<path fill="none" stroke="black" d="M546.05,-545.81C545.94,-538.23 545.81,-529.1 545.69,-520.54"/>
<polygon fill="black" stroke="black" points="549.19,-520.49 545.55,-510.54 542.19,-520.59 549.19,-520.49"/>
</g>
<!-- j3323540992&#45;&gt;j2588473321 -->
<g id="edge32" class="edge">
<title>j3323540992&#45;&gt;j2588473321</title>
<path fill="none" stroke="black" d="M679.56,-764.81C691.11,-755.9 705.42,-744.86 718.06,-735.1"/>
<polygon fill="black" stroke="black" points="719.93,-738.08 725.71,-729.2 715.65,-732.54 719.93,-738.08"/>
</g>
<!-- j3323540992&#45;&gt;j3111943540 -->
<g id="edge33" class="edge">
<title>j3323540992&#45;&gt;j3111943540</title>
<path fill="none" stroke="black" d="M632.34,-764.63C619.49,-755.69 603.64,-744.66 589.66,-734.92"/>
<polygon fill="black" stroke="black" points="591.79,-732.14 581.58,-729.3 587.79,-737.89 591.79,-732.14"/>
</g>
<!-- j3459429504 -->
<g id="node28" class="node">
<title>j3459429504</title>
<polygon fill="none" stroke="blue" points="951.29,-436 653.29,-436 653.29,-400 951.29,-400 951.29,-436"/>
<text text-anchor="middle" x="802.29" y="-414.3" font-family="Times New Roman,serif" font-size="14.00">太好了，让我们重新开始吧！！！&lt;3&lt;3&lt;3</text>
</g>
<!-- j3391489505&#45;&gt;j3459429504 -->
<g id="edge34" class="edge">
<title>j3391489505&#45;&gt;j3459429504</title>
<path fill="none" stroke="black" d="M802.29,-472.81C802.29,-465.23 802.29,-456.1 802.29,-447.54"/>
<polygon fill="black" stroke="black" points="805.79,-447.54 802.29,-437.54 798.79,-447.54 805.79,-447.54"/>
</g>
<!-- j3393098908 -->
<g id="node29" class="node">
<title>j3393098908</title>
<polygon fill="none" stroke="blue" points="592.79,-436 497.79,-436 497.79,-400 592.79,-400 592.79,-436"/>
<text text-anchor="middle" x="545.29" y="-414.3" font-family="Times New Roman,serif" font-size="14.00">又来这一套</text>
</g>
<!-- j4730644&#45;&gt;j3393098908 -->
<g id="edge35" class="edge">
<title>j4730644&#45;&gt;j3393098908</title>
<path fill="none" stroke="black" d="M545.29,-472.81C545.29,-465.23 545.29,-456.1 545.29,-447.54"/>
<polygon fill="black" stroke="black" points="548.79,-447.54 545.29,-437.54 541.79,-447.54 548.79,-447.54"/>
</g>
<!-- j1639322704 -->
<g id="node30" class="node">
<title>j1639322704</title>
<ellipse fill="none" stroke="orange" cx="802.29" cy="-345" rx="136.48" ry="18"/>
<text text-anchor="middle" x="802.29" y="-341.3" font-family="Times New Roman,serif" font-size="14.00">Boolean AmirNoDate is now false.</text>
</g>
<!-- j3459429504&#45;&gt;j1639322704 -->
<g id="edge36" class="edge">
<title>j3459429504&#45;&gt;j1639322704</title>
<path fill="none" stroke="black" d="M802.29,-399.81C802.29,-392.23 802.29,-383.1 802.29,-374.54"/>
<polygon fill="black" stroke="black" points="805.79,-374.54 802.29,-364.54 798.79,-374.54 805.79,-374.54"/>
</g>
<!-- j4108422008 -->
<g id="node31" class="node">
<title>j4108422008</title>
<polygon fill="none" stroke="blue" points="648.29,-363 442.29,-363 442.29,-327 648.29,-327 648.29,-363"/>
<text text-anchor="middle" x="545.29" y="-341.3" font-family="Times New Roman,serif" font-size="14.00">每。一。次。都。这。样。</text>
</g>
<!-- j3393098908&#45;&gt;j4108422008 -->
<g id="edge37" class="edge">
<title>j3393098908&#45;&gt;j4108422008</title>
<path fill="none" stroke="black" d="M545.29,-399.81C545.29,-392.23 545.29,-383.1 545.29,-374.54"/>
<polygon fill="black" stroke="black" points="548.79,-374.54 545.29,-364.54 541.79,-374.54 548.79,-374.54"/>
</g>
<!-- j3811959397 -->
<g id="node32" class="node">
<title>j3811959397</title>
<ellipse fill="none" stroke="orange" cx="798.29" cy="-272" rx="118.08" ry="18"/>
<text text-anchor="middle" x="798.29" y="-268.3" font-family="Times New Roman,serif" font-size="14.00">Boolean IsDating is now true.</text>
</g>
<!-- j1639322704&#45;&gt;j3811959397 -->
<g id="edge38" class="edge">
<title>j1639322704&#45;&gt;j3811959397</title>
<path fill="none" stroke="black" d="M801.32,-326.81C800.89,-319.14 800.37,-309.89 799.88,-301.24"/>
<polygon fill="black" stroke="black" points="803.39,-301.33 799.33,-291.54 796.4,-301.72 803.39,-301.33"/>
</g>
<!-- j2322051913 -->
<g id="node33" class="node">
<title>j2322051913</title>
<ellipse fill="none" stroke="orange" cx="588.29" cy="-218" rx="133.78" ry="18"/>
<text text-anchor="middle" x="588.29" y="-214.3" font-family="Times New Roman,serif" font-size="14.00">Boolean AmirNoDate is now true.</text>
</g>
<!-- j4108422008&#45;&gt;j2322051913 -->
<g id="edge39" class="edge">
<title>j4108422008&#45;&gt;j2322051913</title>
<path fill="none" stroke="black" d="M551.27,-326.62C558.36,-306 570.28,-271.36 578.67,-246.96"/>
<polygon fill="black" stroke="black" points="581.93,-248.26 581.87,-237.66 575.31,-245.98 581.93,-248.26"/>
</g>
<!-- j718834166 -->
<g id="node34" class="node">
<title>j718834166</title>
<ellipse fill="none" stroke="orange" cx="786.29" cy="-164" rx="129.18" ry="18"/>
<text text-anchor="middle" x="786.29" y="-160.3" font-family="Times New Roman,serif" font-size="14.00">Boolean AmirDating is now true.</text>
</g>
<!-- j3811959397&#45;&gt;j718834166 -->
<g id="edge40" class="edge">
<title>j3811959397&#45;&gt;j718834166</title>
<path fill="none" stroke="black" d="M796.36,-253.97C794.52,-237.69 791.7,-212.82 789.52,-193.52"/>
<polygon fill="black" stroke="black" points="793.03,-193.39 788.42,-183.84 786.07,-194.17 793.03,-193.39"/>
</g>
<!-- j2322051913&#45;&gt;Chat ends. -->
<g id="edge41" class="edge">
<title>j2322051913&#45;&gt;Chat ends.</title>
<path fill="none" stroke="black" d="M585.87,-199.61C582.78,-170.51 580.77,-111.34 608.29,-73 621.98,-53.93 644.36,-41.21 665.2,-32.94"/>
<polygon fill="black" stroke="black" points="666.31,-36.26 674.49,-29.52 663.9,-29.69 666.31,-36.26"/>
</g>
<!-- j413995954 -->
<g id="node35" class="node">
<title>j413995954</title>
<ellipse fill="none" stroke="orange" cx="759.29" cy="-91" rx="141.88" ry="18"/>
<text text-anchor="middle" x="759.29" y="-87.3" font-family="Times New Roman,serif" font-size="14.00">Boolean AmirHasDated is now true.</text>
</g>
<!-- j718834166&#45;&gt;j413995954 -->
<g id="edge42" class="edge">
<title>j718834166&#45;&gt;j413995954</title>
<path fill="none" stroke="black" d="M779.75,-145.81C776.77,-137.96 773.16,-128.47 769.81,-119.66"/>
<polygon fill="black" stroke="black" points="773.13,-118.55 766.3,-110.44 766.59,-121.03 773.13,-118.55"/>
</g>
<!-- j413995954&#45;&gt;Chat ends. -->
<g id="edge43" class="edge">
<title>j413995954&#45;&gt;Chat ends.</title>
<path fill="none" stroke="black" d="M748.88,-72.81C743.97,-64.7 737.99,-54.84 732.51,-45.78"/>
<polygon fill="black" stroke="black" points="735.56,-44.06 727.39,-37.32 729.57,-47.69 735.56,-44.06"/>
</g>
</g>
</svg>
