<?xml version="1.0" encoding="UTF-8" standalone="no"?>
<!DOCTYPE svg PUBLIC "-//W3C//DTD SVG 1.1//EN"
 "http://www.w3.org/Graphics/SVG/1.1/DTD/svg11.dtd">
<!-- Generated by graphviz version 7.1.0 (20230121.1956)
 -->
<!-- Pages: 1 -->
<svg width="1217pt" height="1453pt"
 viewBox="0.00 0.00 1216.84 1453.00" xmlns="http://www.w3.org/2000/svg" xmlns:xlink="http://www.w3.org/1999/xlink">
<g id="graph0" class="graph" transform="scale(1 1) rotate(0) translate(4 1449)">
<polygon fill="white" stroke="none" points="-4,4 -4,-1449 1212.84,-1449 1212.84,4 -4,4"/>
<!-- AmirRank5Convo7 begins. -->
<g id="node1" class="node">
<title>AmirRank5Convo7 begins.</title>
<ellipse fill="none" stroke="orange" cx="1099" cy="-1427" rx="109.68" ry="18"/>
<text text-anchor="middle" x="1099" y="-1423.3" font-family="Times New Roman,serif" font-size="14.00">AmirRank5Convo7 begins.</text>
</g>
<!-- j2068497947 -->
<g id="node2" class="node">
<title>j2068497947</title>
<ellipse fill="none" stroke="orange" cx="1099" cy="-1354" rx="109.38" ry="18"/>
<text text-anchor="middle" x="1099" y="-1350.3" font-family="Times New Roman,serif" font-size="14.00">Check boolean AmirDating</text>
</g>
<!-- AmirRank5Convo7 begins.&#45;&gt;j2068497947 -->
<g id="edge1" class="edge">
<title>AmirRank5Convo7 begins.&#45;&gt;j2068497947</title>
<path fill="none" stroke="black" d="M1099,-1408.81C1099,-1401.23 1099,-1392.1 1099,-1383.54"/>
<polygon fill="black" stroke="black" points="1102.5,-1383.54 1099,-1373.54 1095.5,-1383.54 1102.5,-1383.54"/>
</g>
<!-- j1972818052 -->
<g id="node3" class="node">
<title>j1972818052</title>
<polygon fill="none" stroke="blue" points="1137,-1285 931,-1285 931,-1249 1137,-1249 1137,-1285"/>
<text text-anchor="middle" x="1034" y="-1263.3" font-family="Times New Roman,serif" font-size="14.00">嘿宝贝我有个事想请你帮忙</text>
</g>
<!-- j2068497947&#45;&gt;j1972818052 -->
<g id="edge2" class="edge">
<title>j2068497947&#45;&gt;j1972818052</title>
<path fill="none" stroke="green" d="M1085.85,-1335.8C1076.74,-1323.9 1064.46,-1307.83 1054.13,-1294.32"/>
<polygon fill="green" stroke="green" points="1057.13,-1292.49 1048.28,-1286.67 1051.57,-1296.74 1057.13,-1292.49"/>
<text text-anchor="middle" x="1081" y="-1306.8" font-family="Times New Roman,serif" font-size="14.00">true</text>
</g>
<!-- Chat ends. -->
<g id="node4" class="node">
<title>Chat ends.</title>
<ellipse fill="none" stroke="orange" cx="1091" cy="-18" rx="50.09" ry="18"/>
<text text-anchor="middle" x="1091" y="-14.3" font-family="Times New Roman,serif" font-size="14.00">Chat ends.</text>
</g>
<!-- j2068497947&#45;&gt;Chat ends. -->
<g id="edge3" class="edge">
<title>j2068497947&#45;&gt;Chat ends.</title>
<path fill="none" stroke="brown" d="M1123.2,-1336.07C1142.04,-1320.72 1165,-1296.21 1165,-1268 1165,-1268 1165,-1268 1165,-90 1165,-68.02 1147.78,-50.72 1129.96,-38.71"/>
<polygon fill="brown" stroke="brown" points="1132.29,-36.04 1121.96,-33.71 1128.59,-41.97 1132.29,-36.04"/>
<text text-anchor="middle" x="1178" y="-668.3" font-family="Times New Roman,serif" font-size="14.00">false</text>
</g>
<!-- j80798872 -->
<g id="node5" class="node">
<title>j80798872</title>
<polygon fill="none" stroke="red" points="1008,-1212 834,-1212 834,-1176 1008,-1176 1008,-1212"/>
<text text-anchor="middle" x="921" y="-1190.3" font-family="Times New Roman,serif" font-size="14.00">好，亲爱的，怎么了？</text>
</g>
<!-- j1972818052&#45;&gt;j80798872 -->
<g id="edge4" class="edge">
<title>j1972818052&#45;&gt;j80798872</title>
<path fill="none" stroke="black" d="M1006.36,-1248.63C991.86,-1239.52 973.89,-1228.23 958.18,-1218.36"/>
<polygon fill="black" stroke="black" points="960.36,-1215.6 950.03,-1213.24 956.64,-1221.52 960.36,-1215.6"/>
</g>
<!-- j193183576 -->
<g id="node6" class="node">
<title>j193183576</title>
<polygon fill="none" stroke="red" points="1149.5,-1158 934.5,-1158 934.5,-1122 1149.5,-1122 1149.5,-1158"/>
<text text-anchor="middle" x="1042" y="-1136.3" font-family="Times New Roman,serif" font-size="14.00">嘿，抱歉，现在不行。[结束]</text>
</g>
<!-- j1972818052&#45;&gt;j193183576 -->
<g id="edge5" class="edge">
<title>j1972818052&#45;&gt;j193183576</title>
<path fill="none" stroke="black" d="M1035.11,-1248.62C1036.42,-1228.19 1038.61,-1193.99 1040.17,-1169.62"/>
<polygon fill="black" stroke="black" points="1043.65,-1169.95 1040.8,-1159.74 1036.67,-1169.5 1043.65,-1169.95"/>
</g>
<!-- j3246573963 -->
<g id="node7" class="node">
<title>j3246573963</title>
<polygon fill="none" stroke="blue" points="1042.5,-1104 695.5,-1104 695.5,-1068 1042.5,-1068 1042.5,-1104"/>
<text text-anchor="middle" x="869" y="-1082.3" font-family="Times New Roman,serif" font-size="14.00">那个，我想我已经知道怎么黑进即时网了哈哈哈</text>
</g>
<!-- j80798872&#45;&gt;j3246573963 -->
<g id="edge6" class="edge">
<title>j80798872&#45;&gt;j3246573963</title>
<path fill="none" stroke="black" d="M912.65,-1175.97C904.51,-1159.38 892,-1133.88 882.46,-1114.43"/>
<polygon fill="black" stroke="black" points="885.72,-1113.14 878.17,-1105.7 879.44,-1116.22 885.72,-1113.14"/>
</g>
<!-- j193183576&#45;&gt;Chat ends. -->
<g id="edge7" class="edge">
<title>j193183576&#45;&gt;Chat ends.</title>
<path fill="none" stroke="black" d="M1070.67,-1121.62C1092.56,-1105.94 1119,-1080.65 1119,-1050 1119,-1050 1119,-1050 1119,-90 1119,-74.78 1113.37,-58.93 1107.15,-46.07"/>
<polygon fill="black" stroke="black" points="1110.35,-44.64 1102.61,-37.4 1104.15,-47.88 1110.35,-44.64"/>
</g>
<!-- j1345984877 -->
<g id="node8" class="node">
<title>j1345984877</title>
<polygon fill="none" stroke="blue" points="1010,-1031 600,-1031 600,-995 1010,-995 1010,-1031"/>
<text text-anchor="middle" x="805" y="-1009.3" font-family="Times New Roman,serif" font-size="14.00">然后我打算换掉亚瑟的用户名来测试一下我的方法对不对</text>
</g>
<!-- j3246573963&#45;&gt;j1345984877 -->
<g id="edge8" class="edge">
<title>j3246573963&#45;&gt;j1345984877</title>
<path fill="none" stroke="black" d="M853.51,-1067.81C845.8,-1059.27 836.34,-1048.77 827.83,-1039.32"/>
<polygon fill="black" stroke="black" points="830.66,-1037.24 821.36,-1032.15 825.46,-1041.92 830.66,-1037.24"/>
</g>
<!-- j3804610820 -->
<g id="node9" class="node">
<title>j3804610820</title>
<ellipse fill="none" stroke="orange" cx="586" cy="-940" rx="131.08" ry="18"/>
<text text-anchor="middle" x="586" y="-936.3" font-family="Times New Roman,serif" font-size="14.00">Check boolean AmirQuincyHack</text>
</g>
<!-- j1345984877&#45;&gt;j3804610820 -->
<g id="edge9" class="edge">
<title>j1345984877&#45;&gt;j3804610820</title>
<path fill="none" stroke="black" d="M751.15,-994.54C719.4,-984.25 679.15,-971.2 646.34,-960.56"/>
<polygon fill="black" stroke="black" points="647.55,-957.28 636.96,-957.52 645.39,-963.94 647.55,-957.28"/>
</g>
<!-- j3318435676 -->
<g id="node10" class="node">
<title>j3318435676</title>
<polygon fill="none" stroke="red" points="339.5,-871 70.5,-871 70.5,-835 339.5,-835 339.5,-871"/>
<text text-anchor="middle" x="205" y="-849.3" font-family="Times New Roman,serif" font-size="14.00">但你已经对昆西做过同样的事情了。</text>
</g>
<!-- j3804610820&#45;&gt;j3318435676 -->
<g id="edge10" class="edge">
<title>j3804610820&#45;&gt;j3318435676</title>
<path fill="none" stroke="green" d="M519.2,-924.1C456.7,-910.15 362.92,-889.23 294.07,-873.87"/>
<polygon fill="green" stroke="green" points="295.25,-870.55 284.72,-871.79 293.72,-877.38 295.25,-870.55"/>
<text text-anchor="middle" x="430" y="-892.8" font-family="Times New Roman,serif" font-size="14.00">true</text>
</g>
<!-- j2575196529 -->
<g id="node11" class="node">
<title>j2575196529</title>
<polygon fill="none" stroke="red" points="548,-871 358,-871 358,-835 548,-835 548,-871"/>
<text text-anchor="middle" x="453" y="-849.3" font-family="Times New Roman,serif" font-size="14.00">笑死了。好，算我一个。</text>
</g>
<!-- j3804610820&#45;&gt;j2575196529 -->
<g id="edge11" class="edge">
<title>j3804610820&#45;&gt;j2575196529</title>
<path fill="none" stroke="green" d="M499.29,-926.18C486.48,-921.03 474.44,-913.88 465,-904 459.45,-898.19 456.32,-890.28 454.59,-882.47"/>
<polygon fill="green" stroke="green" points="458.09,-882.23 453.17,-872.85 451.17,-883.25 458.09,-882.23"/>
<text text-anchor="middle" x="476" y="-892.8" font-family="Times New Roman,serif" font-size="14.00">true</text>
</g>
<!-- j3804610820&#45;&gt;j2575196529 -->
<g id="edge14" class="edge">
<title>j3804610820&#45;&gt;j2575196529</title>
<path fill="none" stroke="brown" d="M559.41,-922C539.33,-909.17 511.56,-891.42 489.42,-877.28"/>
<polygon fill="brown" stroke="brown" points="491.59,-874.51 481.28,-872.07 487.82,-880.41 491.59,-874.51"/>
<text text-anchor="middle" x="541" y="-892.8" font-family="Times New Roman,serif" font-size="14.00">false</text>
</g>
<!-- j3910668028 -->
<g id="node12" class="node">
<title>j3910668028</title>
<polygon fill="none" stroke="red" points="643.5,-871 566.5,-871 566.5,-835 643.5,-835 643.5,-871"/>
<text text-anchor="middle" x="605" y="-849.3" font-family="Times New Roman,serif" font-size="14.00">完了……</text>
</g>
<!-- j3804610820&#45;&gt;j3910668028 -->
<g id="edge12" class="edge">
<title>j3804610820&#45;&gt;j3910668028</title>
<path fill="none" stroke="green" d="M571.46,-921.77C565.11,-912.08 560.1,-899.8 565,-889 566.53,-885.64 568.55,-882.47 570.88,-879.52"/>
<polygon fill="green" stroke="green" points="573.24,-882.12 577.56,-872.45 568.15,-877.32 573.24,-882.12"/>
<text text-anchor="middle" x="576" y="-892.8" font-family="Times New Roman,serif" font-size="14.00">true</text>
</g>
<!-- j3804610820&#45;&gt;j3910668028 -->
<g id="edge15" class="edge">
<title>j3804610820&#45;&gt;j3910668028</title>
<path fill="none" stroke="brown" d="M589.84,-921.8C592.35,-910.58 595.69,-895.67 598.59,-882.69"/>
<polygon fill="brown" stroke="brown" points="602,-883.47 600.77,-872.94 595.17,-881.94 602,-883.47"/>
<text text-anchor="middle" x="609" y="-892.8" font-family="Times New Roman,serif" font-size="14.00">false</text>
</g>
<!-- j3493974461 -->
<g id="node13" class="node">
<title>j3493974461</title>
<polygon fill="none" stroke="red" points="804.5,-871 661.5,-871 661.5,-835 804.5,-835 804.5,-871"/>
<text text-anchor="middle" x="733" y="-849.3" font-family="Times New Roman,serif" font-size="14.00">别，我可不参与。</text>
</g>
<!-- j3804610820&#45;&gt;j3493974461 -->
<g id="edge13" class="edge">
<title>j3804610820&#45;&gt;j3493974461</title>
<path fill="none" stroke="green" d="M615.04,-922.06C631.69,-912.36 653.01,-899.97 672,-889 678.68,-885.14 685.77,-881.06 692.67,-877.09"/>
<polygon fill="green" stroke="green" points="694.33,-880.18 701.26,-872.17 690.85,-874.11 694.33,-880.18"/>
<text text-anchor="middle" x="683" y="-892.8" font-family="Times New Roman,serif" font-size="14.00">true</text>
</g>
<!-- j3804610820&#45;&gt;j3493974461 -->
<g id="edge16" class="edge">
<title>j3804610820&#45;&gt;j3493974461</title>
<path fill="none" stroke="brown" d="M652.9,-924.17C667.23,-919.17 681.73,-912.59 694,-904 702.78,-897.85 710.52,-889.15 716.75,-880.72"/>
<polygon fill="brown" stroke="brown" points="719.46,-882.95 722.25,-872.73 713.7,-878.98 719.46,-882.95"/>
<text text-anchor="middle" x="722" y="-892.8" font-family="Times New Roman,serif" font-size="14.00">false</text>
</g>
<!-- j1726046594 -->
<g id="node14" class="node">
<title>j1726046594</title>
<polygon fill="none" stroke="blue" points="410,-636 0,-636 0,-600 410,-600 410,-636"/>
<text text-anchor="middle" x="205" y="-614.3" font-family="Times New Roman,serif" font-size="14.00">不，完全不同，那只是我通过破解他的密码进入他的账号</text>
</g>
<!-- j3318435676&#45;&gt;j1726046594 -->
<g id="edge17" class="edge">
<title>j3318435676&#45;&gt;j1726046594</title>
<path fill="none" stroke="black" d="M205,-834.87C205,-795.24 205,-696.91 205,-647.83"/>
<polygon fill="black" stroke="black" points="208.5,-647.99 205,-637.99 201.5,-647.99 208.5,-647.99"/>
</g>
<!-- j1546724426 -->
<g id="node15" class="node">
<title>j1546724426</title>
<polygon fill="none" stroke="blue" points="465,-744 411,-744 411,-708 465,-708 465,-744"/>
<text text-anchor="middle" x="438" y="-722.3" font-family="Times New Roman,serif" font-size="14.00">好嘞</text>
</g>
<!-- j2575196529&#45;&gt;j1546724426 -->
<g id="edge18" class="edge">
<title>j2575196529&#45;&gt;j1546724426</title>
<path fill="none" stroke="black" d="M450.91,-834.62C448.46,-814.19 444.36,-779.99 441.43,-755.62"/>
<polygon fill="black" stroke="black" points="444.91,-755.25 440.25,-745.74 437.96,-756.08 444.91,-755.25"/>
</g>
<!-- j2437886268 -->
<g id="node16" class="node">
<title>j2437886268</title>
<polygon fill="none" stroke="blue" points="686,-744 496,-744 496,-708 686,-708 686,-744"/>
<text text-anchor="middle" x="591" y="-722.3" font-family="Times New Roman,serif" font-size="14.00">不会的，没事的，相信我</text>
</g>
<!-- j3910668028&#45;&gt;j2437886268 -->
<g id="edge19" class="edge">
<title>j3910668028&#45;&gt;j2437886268</title>
<path fill="none" stroke="black" d="M603.05,-834.62C600.77,-814.19 596.93,-779.99 594.21,-755.62"/>
<polygon fill="black" stroke="black" points="597.69,-755.29 593.1,-745.74 590.73,-756.06 597.69,-755.29"/>
</g>
<!-- j2462976142 -->
<g id="node17" class="node">
<title>j2462976142</title>
<polygon fill="none" stroke="blue" points="814,-798 656,-798 656,-762 814,-762 814,-798"/>
<text text-anchor="middle" x="735" y="-776.3" font-family="Times New Roman,serif" font-size="14.00">哦，拜托，别那么乖</text>
</g>
<!-- j3493974461&#45;&gt;j2462976142 -->
<g id="edge20" class="edge">
<title>j3493974461&#45;&gt;j2462976142</title>
<path fill="none" stroke="black" d="M733.48,-834.81C733.7,-827.14 733.96,-817.89 734.2,-809.24"/>
<polygon fill="black" stroke="black" points="737.69,-809.64 734.48,-799.54 730.7,-809.44 737.69,-809.64"/>
</g>
<!-- j2053572168 -->
<g id="node18" class="node">
<title>j2053572168</title>
<polygon fill="none" stroke="blue" points="832,-509 94,-509 94,-473 832,-473 832,-509"/>
<text text-anchor="middle" x="463" y="-487.3" font-family="Times New Roman,serif" font-size="14.00">是这样的，我找到了一种方法，通过“中间人攻击”拦截从我们和即时网之间的流量，然后干扰大家的请求</text>
</g>
<!-- j1726046594&#45;&gt;j2053572168 -->
<g id="edge21" class="edge">
<title>j1726046594&#45;&gt;j2053572168</title>
<path fill="none" stroke="black" d="M240.87,-599.62C286.76,-577.39 366.32,-538.84 416.72,-514.42"/>
<polygon fill="black" stroke="black" points="418.18,-517.6 425.65,-510.09 415.13,-511.3 418.18,-517.6"/>
</g>
<!-- j1546724426&#45;&gt;j2053572168 -->
<g id="edge22" class="edge">
<title>j1546724426&#45;&gt;j2053572168</title>
<path fill="none" stroke="black" d="M437.09,-707.53C435.69,-672.71 434.52,-592.38 449,-527 449.51,-524.7 450.15,-522.36 450.88,-520.03"/>
<polygon fill="black" stroke="black" points="454.08,-521.47 454.21,-510.87 447.5,-519.07 454.08,-521.47"/>
</g>
<!-- j2437886268&#45;&gt;j2053572168 -->
<g id="edge23" class="edge">
<title>j2437886268&#45;&gt;j2053572168</title>
<path fill="none" stroke="black" d="M503.13,-707.51C495.08,-702.94 487.8,-697.2 482,-690 442.79,-641.3 449.54,-562.45 456.85,-520.45"/>
<polygon fill="black" stroke="black" points="460.24,-521.36 458.66,-510.89 453.36,-520.06 460.24,-521.36"/>
</g>
<!-- j2507688465 -->
<g id="node19" class="node">
<title>j2507688465</title>
<polygon fill="none" stroke="blue" points="980.5,-690 491.5,-690 491.5,-654 980.5,-654 980.5,-690"/>
<text text-anchor="middle" x="736" y="-668.3" font-family="Times New Roman,serif" font-size="14.00">最糟糕的情况会是什么？！他们不可能再派炽蛇军来追我们了，哈哈</text>
</g>
<!-- j2462976142&#45;&gt;j2507688465 -->
<g id="edge24" class="edge">
<title>j2462976142&#45;&gt;j2507688465</title>
<path fill="none" stroke="black" d="M735.16,-761.97C735.31,-745.76 735.55,-721.06 735.73,-701.79"/>
<polygon fill="black" stroke="black" points="739.23,-701.89 735.82,-691.85 732.23,-701.82 739.23,-701.89"/>
</g>
<!-- j638782554 -->
<g id="node20" class="node">
<title>j638782554</title>
<polygon fill="none" stroke="blue" points="805.5,-401 442.5,-401 442.5,-365 805.5,-365 805.5,-401"/>
<text text-anchor="middle" x="624" y="-379.3" font-family="Times New Roman,serif" font-size="14.00">但我想先在小事上测试一下，再去做更有趣的事情</text>
</g>
<!-- j2053572168&#45;&gt;j638782554 -->
<g id="edge25" class="edge">
<title>j2053572168&#45;&gt;j638782554</title>
<path fill="none" stroke="black" d="M489.23,-472.73C516.16,-455 558.27,-427.28 588.25,-407.54"/>
<polygon fill="black" stroke="black" points="589.83,-410.69 596.25,-402.27 585.98,-404.84 589.83,-410.69"/>
</g>
<!-- j2522602830 -->
<g id="node21" class="node">
<title>j2522602830</title>
<polygon fill="none" stroke="red" points="571,-582 491,-582 491,-546 571,-546 571,-582"/>
<text text-anchor="middle" x="531" y="-560.3" font-family="Times New Roman,serif" font-size="14.00">行，行。</text>
</g>
<!-- j2507688465&#45;&gt;j2522602830 -->
<g id="edge26" class="edge">
<title>j2507688465&#45;&gt;j2522602830</title>
<path fill="none" stroke="black" d="M702.61,-653.73C667.72,-635.69 612.83,-607.31 574.56,-587.52"/>
<polygon fill="black" stroke="black" points="576.55,-584.61 566.06,-583.13 573.34,-590.83 576.55,-584.61"/>
</g>
<!-- j3436021105 -->
<g id="node22" class="node">
<title>j3436021105</title>
<polygon fill="none" stroke="red" points="1091,-582 589,-582 589,-546 1091,-546 1091,-582"/>
<text text-anchor="middle" x="840" y="-560.3" font-family="Times New Roman,serif" font-size="14.00">千万不要和大型媒体集团作对。他们有比军队更可怕的角色——律师。</text>
</g>
<!-- j2507688465&#45;&gt;j3436021105 -->
<g id="edge27" class="edge">
<title>j2507688465&#45;&gt;j3436021105</title>
<path fill="none" stroke="black" d="M752.71,-653.97C769.52,-636.84 795.63,-610.22 814.92,-590.56"/>
<polygon fill="black" stroke="black" points="817.42,-593.01 821.93,-583.42 812.42,-588.11 817.42,-593.01"/>
</g>
<!-- j920511126 -->
<g id="node23" class="node">
<title>j920511126</title>
<polygon fill="none" stroke="blue" points="1024.5,-328 451.5,-328 451.5,-292 1024.5,-292 1024.5,-328"/>
<text text-anchor="middle" x="738" y="-306.3" font-family="Times New Roman,serif" font-size="14.00">所以明天去和亚瑟谈谈，看看他的用户名是否改变了，系统更新大概需要 24 小时</text>
</g>
<!-- j638782554&#45;&gt;j920511126 -->
<g id="edge28" class="edge">
<title>j638782554&#45;&gt;j920511126</title>
<path fill="none" stroke="black" d="M651.89,-364.63C666.52,-355.52 684.64,-344.23 700.49,-334.36"/>
<polygon fill="black" stroke="black" points="702.08,-337.49 708.72,-329.24 698.38,-331.55 702.08,-337.49"/>
</g>
<!-- j2522602830&#45;&gt;j2053572168 -->
<g id="edge29" class="edge">
<title>j2522602830&#45;&gt;j2053572168</title>
<path fill="none" stroke="black" d="M514.54,-545.81C506.35,-537.27 496.3,-526.77 487.25,-517.32"/>
<polygon fill="black" stroke="black" points="489.8,-514.92 480.36,-510.12 484.75,-519.76 489.8,-514.92"/>
</g>
<!-- j1148124450 -->
<g id="node24" class="node">
<title>j1148124450</title>
<polygon fill="none" stroke="blue" points="1053,-455 973,-455 973,-419 1053,-419 1053,-455"/>
<text text-anchor="middle" x="1013" y="-433.3" font-family="Times New Roman,serif" font-size="14.00">真没意思</text>
</g>
<!-- j3436021105&#45;&gt;j1148124450 -->
<g id="edge30" class="edge">
<title>j3436021105&#45;&gt;j1148124450</title>
<path fill="none" stroke="black" d="M864.05,-545.62C894.18,-523.85 945.95,-486.45 979.82,-461.97"/>
<polygon fill="black" stroke="black" points="981.59,-465.01 987.64,-456.32 977.49,-459.34 981.59,-465.01"/>
</g>
<!-- j3292480819 -->
<g id="node25" class="node">
<title>j3292480819</title>
<ellipse fill="none" stroke="orange" cx="769" cy="-237" rx="64.19" ry="18"/>
<text text-anchor="middle" x="769" y="-233.3" font-family="Times New Roman,serif" font-size="14.00">+20 Chemistry</text>
</g>
<!-- j920511126&#45;&gt;j3292480819 -->
<g id="edge31" class="edge">
<title>j920511126&#45;&gt;j3292480819</title>
<path fill="none" stroke="black" d="M745.5,-291.81C748.97,-283.88 753.17,-274.26 757.05,-265.36"/>
<polygon fill="black" stroke="black" points="760.17,-266.98 760.96,-256.42 753.75,-264.18 760.17,-266.98"/>
</g>
<!-- j1148124450&#45;&gt;Chat ends. -->
<g id="edge32" class="edge">
<title>j1148124450&#45;&gt;Chat ends.</title>
<path fill="none" stroke="black" d="M1033.3,-418.79C1050.37,-402.3 1072,-375.73 1072,-347 1072,-347 1072,-347 1072,-90 1072,-75.39 1075.8,-59.65 1080,-46.71"/>
<polygon fill="black" stroke="black" points="1083.19,-48.19 1083.21,-37.59 1076.59,-45.87 1083.19,-48.19"/>
</g>
<!-- j2116473629 -->
<g id="node26" class="node">
<title>j2116473629</title>
<polygon fill="none" stroke="blue" points="950.5,-182 603.5,-182 603.5,-146 950.5,-146 950.5,-182"/>
<text text-anchor="middle" x="777" y="-160.3" font-family="Times New Roman,serif" font-size="14.00">然后回来向我汇报，秘密特工宝贝，哈哈哈哈哈</text>
</g>
<!-- j3292480819&#45;&gt;j2116473629 -->
<g id="edge33" class="edge">
<title>j3292480819&#45;&gt;j2116473629</title>
<path fill="none" stroke="black" d="M770.94,-218.81C771.8,-211.14 772.84,-201.89 773.82,-193.24"/>
<polygon fill="black" stroke="black" points="777.27,-193.86 774.91,-183.53 770.31,-193.08 777.27,-193.86"/>
</g>
<!-- Initiate conversation ArthurAmirHack in ArthurDialogue_rom.dialogue -->
<g id="node27" class="node">
<title>Initiate conversation ArthurAmirHack in ArthurDialogue_rom.dialogue</title>
<ellipse fill="none" stroke="orange" cx="779" cy="-91" rx="264.55" ry="18"/>
<text text-anchor="middle" x="779" y="-87.3" font-family="Times New Roman,serif" font-size="14.00">Initiate conversation ArthurAmirHack in ArthurDialogue_rom.dialogue</text>
</g>
<!-- j2116473629&#45;&gt;Initiate conversation ArthurAmirHack in ArthurDialogue_rom.dialogue -->
<g id="edge34" class="edge">
<title>j2116473629&#45;&gt;Initiate conversation ArthurAmirHack in ArthurDialogue_rom.dialogue</title>
<path fill="none" stroke="black" d="M777.48,-145.81C777.7,-138.14 777.96,-128.89 778.2,-120.24"/>
<polygon fill="black" stroke="black" points="781.69,-120.64 778.48,-110.54 774.7,-120.44 781.69,-120.64"/>
</g>
<!-- Initiate conversation ArthurAmirHack in ArthurDialogue_rom.dialogue&#45;&gt;Chat ends. -->
<g id="edge35" class="edge">
<title>Initiate conversation ArthurAmirHack in ArthurDialogue_rom.dialogue&#45;&gt;Chat ends.</title>
<path fill="none" stroke="black" d="M852.54,-73.26C909.66,-60.27 987.47,-42.56 1038.44,-30.96"/>
<polygon fill="black" stroke="black" points="1039.08,-34.4 1048.05,-28.77 1037.53,-27.58 1039.08,-34.4"/>
</g>
</g>
</svg>
