<?xml version="1.0" encoding="UTF-8" standalone="no"?>
<!DOCTYPE svg PUBLIC "-//W3C//DTD SVG 1.1//EN"
 "http://www.w3.org/Graphics/SVG/1.1/DTD/svg11.dtd">
<!-- Generated by graphviz version 7.1.0 (20230121.1956)
 -->
<!-- Pages: 1 -->
<svg width="4302pt" height="1556pt"
 viewBox="0.00 0.00 4302.00 1556.00" xmlns="http://www.w3.org/2000/svg" xmlns:xlink="http://www.w3.org/1999/xlink">
<g id="graph0" class="graph" transform="scale(1 1) rotate(0) translate(4 1552)">
<polygon fill="white" stroke="none" points="-4,4 -4,-1552 4298,-1552 4298,4 -4,4"/>
<!-- EleanorRank4Convo1 begins. -->
<g id="node1" class="node">
<title>EleanorRank4Convo1 begins.</title>
<ellipse fill="none" stroke="orange" cx="2977.5" cy="-1530" rx="118.88" ry="18"/>
<text text-anchor="middle" x="2977.5" y="-1526.3" font-family="Times New Roman,serif" font-size="14.00">EleanorRank4Convo1 begins.</text>
</g>
<!-- j3774556845 -->
<g id="node2" class="node">
<title>j3774556845</title>
<polygon fill="none" stroke="blue" points="3517.5,-1476 2437.5,-1476 2437.5,-1440 3517.5,-1440 3517.5,-1476"/>
<text text-anchor="middle" x="2977.5" y="-1454.3" font-family="Times New Roman,serif" font-size="14.00">Sana bir şey sormak zorundayım ve bundan hoşlanacağını sanmıyorum. Sanırım durumum göz önüne alındığında, bu konuşmanın bir gün gerçekleşmesi gerektiğini içten içe biliyor olmalısın.</text>
</g>
<!-- EleanorRank4Convo1 begins.&#45;&gt;j3774556845 -->
<g id="edge1" class="edge">
<title>EleanorRank4Convo1 begins.&#45;&gt;j3774556845</title>
<path fill="none" stroke="black" d="M2977.5,-1511.7C2977.5,-1504.41 2977.5,-1495.73 2977.5,-1487.54"/>
<polygon fill="black" stroke="black" points="2981,-1487.62 2977.5,-1477.62 2974,-1487.62 2981,-1487.62"/>
</g>
<!-- j3689305980 -->
<g id="node3" class="node">
<title>j3689305980</title>
<polygon fill="none" stroke="blue" points="3232,-1404 2723,-1404 2723,-1368 3232,-1368 3232,-1404"/>
<text text-anchor="middle" x="2977.5" y="-1382.3" font-family="Times New Roman,serif" font-size="14.00">Sana güveniyorum ve senden hoşlanıyorum, bu yüzden bunu açıklayacağım, tamam mı?</text>
</g>
<!-- j3774556845&#45;&gt;j3689305980 -->
<g id="edge2" class="edge">
<title>j3774556845&#45;&gt;j3689305980</title>
<path fill="none" stroke="black" d="M2977.5,-1439.7C2977.5,-1432.41 2977.5,-1423.73 2977.5,-1415.54"/>
<polygon fill="black" stroke="black" points="2981,-1415.62 2977.5,-1405.62 2974,-1415.62 2981,-1415.62"/>
</g>
<!-- j3790704912 -->
<g id="node4" class="node">
<title>j3790704912</title>
<polygon fill="none" stroke="blue" points="3133,-1332 2822,-1332 2822,-1296 3133,-1296 3133,-1332"/>
<text text-anchor="middle" x="2977.5" y="-1310.3" font-family="Times New Roman,serif" font-size="14.00">Aslında sormaya hakkım yok ama bilmem gerekiyor.</text>
</g>
<!-- j3689305980&#45;&gt;j3790704912 -->
<g id="edge3" class="edge">
<title>j3689305980&#45;&gt;j3790704912</title>
<path fill="none" stroke="black" d="M2977.5,-1367.7C2977.5,-1360.41 2977.5,-1351.73 2977.5,-1343.54"/>
<polygon fill="black" stroke="black" points="2981,-1343.62 2977.5,-1333.62 2974,-1343.62 2981,-1343.62"/>
</g>
<!-- j640100952 -->
<g id="node5" class="node">
<title>j640100952</title>
<polygon fill="none" stroke="blue" points="3351,-1260 2604,-1260 2604,-1224 3351,-1224 3351,-1260"/>
<text text-anchor="middle" x="2977.5" y="-1238.3" font-family="Times New Roman,serif" font-size="14.00">Eğer tamamen dönüşseydim &#45; eğer Techrot beni ele geçirseydi ve artık senin tanıdığın Eleanor olmasaydım &#45; beni öldürür müydün?</text>
</g>
<!-- j3790704912&#45;&gt;j640100952 -->
<g id="edge4" class="edge">
<title>j3790704912&#45;&gt;j640100952</title>
<path fill="none" stroke="black" d="M2977.5,-1295.7C2977.5,-1288.41 2977.5,-1279.73 2977.5,-1271.54"/>
<polygon fill="black" stroke="black" points="2981,-1271.62 2977.5,-1261.62 2974,-1271.62 2981,-1271.62"/>
</g>
<!-- j2281273415 -->
<g id="node6" class="node">
<title>j2281273415</title>
<polygon fill="none" stroke="red" points="2654,-1188 2487,-1188 2487,-1152 2654,-1152 2654,-1188"/>
<text text-anchor="middle" x="2570.5" y="-1166.3" font-family="Times New Roman,serif" font-size="14.00">Bunu yapmamı ister misin?</text>
</g>
<!-- j640100952&#45;&gt;j2281273415 -->
<g id="edge5" class="edge">
<title>j640100952&#45;&gt;j2281273415</title>
<path fill="none" stroke="black" d="M2875.85,-1223.52C2811.43,-1212.44 2728.68,-1198.21 2665.57,-1187.35"/>
<polygon fill="black" stroke="black" points="2666.37,-1183.94 2655.92,-1185.69 2665.18,-1190.84 2666.37,-1183.94"/>
</g>
<!-- j1295342941 -->
<g id="node7" class="node">
<title>j1295342941</title>
<polygon fill="none" stroke="red" points="3066,-1188 3007,-1188 3007,-1152 3066,-1152 3066,-1188"/>
<text text-anchor="middle" x="3036.5" y="-1166.3" font-family="Times New Roman,serif" font-size="14.00">Elbette.</text>
</g>
<!-- j640100952&#45;&gt;j1295342941 -->
<g id="edge6" class="edge">
<title>j640100952&#45;&gt;j1295342941</title>
<path fill="none" stroke="black" d="M2992.08,-1223.7C2998.94,-1215.56 3007.26,-1205.69 3014.84,-1196.7"/>
<polygon fill="black" stroke="black" points="3017.34,-1199.16 3021.11,-1189.26 3011.99,-1194.65 3017.34,-1199.16"/>
</g>
<!-- j2537390238 -->
<g id="node8" class="node">
<title>j2537390238</title>
<polygon fill="none" stroke="red" points="2967.5,-1188 2913.5,-1188 2913.5,-1152 2967.5,-1152 2967.5,-1188"/>
<text text-anchor="middle" x="2940.5" y="-1166.3" font-family="Times New Roman,serif" font-size="14.00">Asla.</text>
</g>
<!-- j640100952&#45;&gt;j2537390238 -->
<g id="edge7" class="edge">
<title>j640100952&#45;&gt;j2537390238</title>
<path fill="none" stroke="black" d="M2968.35,-1223.7C2964.28,-1215.98 2959.38,-1206.71 2954.83,-1198.11"/>
<polygon fill="black" stroke="black" points="2958.02,-1196.65 2950.25,-1189.44 2951.83,-1199.92 2958.02,-1196.65"/>
</g>
<!-- j186312544 -->
<g id="node9" class="node">
<title>j186312544</title>
<polygon fill="none" stroke="red" points="3263,-1188 3094,-1188 3094,-1152 3263,-1152 3263,-1188"/>
<text text-anchor="middle" x="3178.5" y="-1166.3" font-family="Times New Roman,serif" font-size="14.00">Buna cevap vermeyeceğim.</text>
</g>
<!-- j640100952&#45;&gt;j186312544 -->
<g id="edge8" class="edge">
<title>j640100952&#45;&gt;j186312544</title>
<path fill="none" stroke="black" d="M3027.7,-1223.52C3055.03,-1214 3089.03,-1202.16 3117.83,-1192.13"/>
<polygon fill="black" stroke="black" points="3118.87,-1195.47 3127.16,-1188.88 3116.57,-1188.86 3118.87,-1195.47"/>
</g>
<!-- j618070675 -->
<g id="node10" class="node">
<title>j618070675</title>
<polygon fill="none" stroke="blue" points="2710.5,-1116 1626.5,-1116 1626.5,-1080 2710.5,-1080 2710.5,-1116"/>
<text text-anchor="middle" x="2168.5" y="-1094.3" font-family="Times New Roman,serif" font-size="14.00">Hmm. İyi başlangıç. Hayatımı kişisel ahlak kurallarını esnetmek için bir fırsat olarak görmek yerine benim ne istediğimle ilgilenmeye başladın. Bunun seninle ilgili olmadığını anlamamı sağladın.</text>
</g>
<!-- j2281273415&#45;&gt;j618070675 -->
<g id="edge9" class="edge">
<title>j2281273415&#45;&gt;j618070675</title>
<path fill="none" stroke="black" d="M2486.72,-1154.41C2426.79,-1143.98 2345.49,-1129.82 2280.07,-1118.43"/>
<polygon fill="black" stroke="black" points="2280.83,-1115.01 2270.38,-1116.74 2279.63,-1121.9 2280.83,-1115.01"/>
</g>
<!-- j2044336434 -->
<g id="node11" class="node">
<title>j2044336434</title>
<polygon fill="none" stroke="blue" points="3180,-1116 3065,-1116 3065,-1080 3180,-1080 3180,-1116"/>
<text text-anchor="middle" x="3122.5" y="-1094.3" font-family="Times New Roman,serif" font-size="14.00">Vay canına. Peki.</text>
</g>
<!-- j1295342941&#45;&gt;j2044336434 -->
<g id="edge10" class="edge">
<title>j1295342941&#45;&gt;j2044336434</title>
<path fill="none" stroke="black" d="M3057.76,-1151.7C3068.2,-1143.2 3080.96,-1132.81 3092.38,-1123.51"/>
<polygon fill="black" stroke="black" points="3094.47,-1126.33 3100.01,-1117.3 3090.05,-1120.9 3094.47,-1126.33"/>
</g>
<!-- j1379009839 -->
<g id="node12" class="node">
<title>j1379009839</title>
<polygon fill="none" stroke="blue" points="2906,-1116 2805,-1116 2805,-1080 2906,-1080 2906,-1116"/>
<text text-anchor="middle" x="2855.5" y="-1094.3" font-family="Times New Roman,serif" font-size="14.00">Tamam. Hmm.</text>
</g>
<!-- j2537390238&#45;&gt;j1379009839 -->
<g id="edge11" class="edge">
<title>j2537390238&#45;&gt;j1379009839</title>
<path fill="none" stroke="black" d="M2919.49,-1151.7C2909.17,-1143.2 2896.56,-1132.81 2885.27,-1123.51"/>
<polygon fill="black" stroke="black" points="2887.68,-1120.96 2877.73,-1117.31 2883.23,-1126.37 2887.68,-1120.96"/>
</g>
<!-- j796334252 -->
<g id="node13" class="node">
<title>j796334252</title>
<polygon fill="none" stroke="blue" points="3429,-1116 3334,-1116 3334,-1080 3429,-1080 3429,-1116"/>
<text text-anchor="middle" x="3381.5" y="-1094.3" font-family="Times New Roman,serif" font-size="14.00">Nasıl istersen.</text>
</g>
<!-- j186312544&#45;&gt;j796334252 -->
<g id="edge12" class="edge">
<title>j186312544&#45;&gt;j796334252</title>
<path fill="none" stroke="black" d="M3229.2,-1151.52C3257.65,-1141.71 3293.27,-1129.42 3322.91,-1119.2"/>
<polygon fill="black" stroke="black" points="3323.79,-1122.6 3332.11,-1116.03 3321.51,-1115.98 3323.79,-1122.6"/>
</g>
<!-- j1070987163 -->
<g id="node14" class="node">
<title>j1070987163</title>
<polygon fill="none" stroke="blue" points="2063,-1044 1970,-1044 1970,-1008 2063,-1008 2063,-1044"/>
<text text-anchor="middle" x="2016.5" y="-1022.3" font-family="Times New Roman,serif" font-size="14.00">Bu nadir olur.</text>
</g>
<!-- j618070675&#45;&gt;j1070987163 -->
<g id="edge13" class="edge">
<title>j618070675&#45;&gt;j1070987163</title>
<path fill="none" stroke="black" d="M2130.54,-1079.52C2110.6,-1070.34 2085.96,-1058.99 2064.7,-1049.2"/>
<polygon fill="black" stroke="black" points="2066.17,-1046.02 2055.62,-1045.01 2063.24,-1052.38 2066.17,-1046.02"/>
</g>
<!-- j2384034517 -->
<g id="node15" class="node">
<title>j2384034517</title>
<polygon fill="none" stroke="blue" points="3401.5,-1044 3081.5,-1044 3081.5,-1008 3401.5,-1008 3401.5,-1044"/>
<text text-anchor="middle" x="3241.5" y="-1022.3" font-family="Times New Roman,serif" font-size="14.00">Tereddüt etmeden, düşünmeden, sadece basit bir evet.</text>
</g>
<!-- j2044336434&#45;&gt;j2384034517 -->
<g id="edge14" class="edge">
<title>j2044336434&#45;&gt;j2384034517</title>
<path fill="none" stroke="black" d="M3152.22,-1079.52C3167.39,-1070.6 3186.03,-1059.63 3202.35,-1050.03"/>
<polygon fill="black" stroke="black" points="3204.01,-1053.11 3210.85,-1045.03 3200.46,-1047.08 3204.01,-1053.11"/>
</g>
<!-- j1461329944 -->
<g id="node16" class="node">
<title>j1461329944</title>
<polygon fill="none" stroke="blue" points="2967.5,-1044 2505.5,-1044 2505.5,-1008 2967.5,-1008 2967.5,-1044"/>
<text text-anchor="middle" x="2736.5" y="-1022.3" font-family="Times New Roman,serif" font-size="14.00">Üzgünüm. Aslında biraz bunaldım. Bu kadar açık sözlü olmanı beklemiyordum.</text>
</g>
<!-- j1379009839&#45;&gt;j1461329944 -->
<g id="edge15" class="edge">
<title>j1379009839&#45;&gt;j1461329944</title>
<path fill="none" stroke="black" d="M2825.78,-1079.52C2810.61,-1070.6 2791.97,-1059.63 2775.65,-1050.03"/>
<polygon fill="black" stroke="black" points="2777.54,-1047.08 2767.15,-1045.03 2773.99,-1053.11 2777.54,-1047.08"/>
</g>
<!-- j764889249 -->
<g id="node17" class="node">
<title>j764889249</title>
<polygon fill="none" stroke="blue" points="3862.5,-1044 3710.5,-1044 3710.5,-1008 3862.5,-1008 3862.5,-1044"/>
<text text-anchor="middle" x="3786.5" y="-1022.3" font-family="Times New Roman,serif" font-size="14.00">Bir daha sormayacağım.</text>
</g>
<!-- j796334252&#45;&gt;j764889249 -->
<g id="edge16" class="edge">
<title>j796334252&#45;&gt;j764889249</title>
<path fill="none" stroke="black" d="M3429.15,-1088.76C3495.32,-1077.33 3616.21,-1056.43 3698.9,-1042.14"/>
<polygon fill="black" stroke="black" points="3699.3,-1045.62 3708.56,-1040.47 3698.11,-1038.73 3699.3,-1045.62"/>
</g>
<!-- j1358845057 -->
<g id="node18" class="node">
<title>j1358845057</title>
<polygon fill="none" stroke="blue" points="2022.5,-972 1404.5,-972 1404.5,-936 2022.5,-936 2022.5,-972"/>
<text text-anchor="middle" x="1713.5" y="-950.3" font-family="Times New Roman,serif" font-size="14.00">Ne yazık ki bu bizi ikilemden kurtarmıyor, çünkü bu benim fikrimi asla değiştiremeyeceğim anlamına geliyor.</text>
</g>
<!-- j1070987163&#45;&gt;j1358845057 -->
<g id="edge17" class="edge">
<title>j1070987163&#45;&gt;j1358845057</title>
<path fill="none" stroke="black" d="M1969.82,-1014.22C1924.78,-1003.81 1855.5,-987.81 1800.32,-975.06"/>
<polygon fill="black" stroke="black" points="1801.13,-971.65 1790.6,-972.81 1799.56,-978.47 1801.13,-971.65"/>
</g>
<!-- j1891659464 -->
<g id="node19" class="node">
<title>j1891659464</title>
<polygon fill="none" stroke="blue" points="3749,-972 2832,-972 2832,-936 3749,-936 3749,-972"/>
<text text-anchor="middle" x="3290.5" y="-950.3" font-family="Times New Roman,serif" font-size="14.00">Teşekkür ederim. Birçok yönden benim için bir muammasın, ama şimdi kafama bir kurşun sıkmaya istekli olduğunu biliyorum ve bu tür şeyler işyerinde önemlidir.</text>
</g>
<!-- j2384034517&#45;&gt;j1891659464 -->
<g id="edge18" class="edge">
<title>j2384034517&#45;&gt;j1891659464</title>
<path fill="none" stroke="black" d="M3253.61,-1007.7C3259.19,-999.73 3265.93,-990.1 3272.12,-981.26"/>
<polygon fill="black" stroke="black" points="3274.79,-983.54 3277.66,-973.34 3269.06,-979.53 3274.79,-983.54"/>
</g>
<!-- j2007567868 -->
<g id="node20" class="node">
<title>j2007567868</title>
<polygon fill="none" stroke="blue" points="2813.5,-972 2563.5,-972 2563.5,-936 2813.5,-936 2813.5,-972"/>
<text text-anchor="middle" x="2688.5" y="-950.3" font-family="Times New Roman,serif" font-size="14.00">Canavarın yaşamasına izin mi vereceksin?</text>
</g>
<!-- j1461329944&#45;&gt;j2007567868 -->
<g id="edge19" class="edge">
<title>j1461329944&#45;&gt;j2007567868</title>
<path fill="none" stroke="black" d="M2724.63,-1007.7C2719.23,-999.81 2712.71,-990.3 2706.7,-981.55"/>
<polygon fill="black" stroke="black" points="2709.63,-979.62 2701.08,-973.35 2703.85,-983.58 2709.63,-979.62"/>
</g>
<!-- j3521533203 -->
<g id="node21" class="node">
<title>j3521533203</title>
<polygon fill="none" stroke="blue" points="4294,-972 3767,-972 3767,-936 4294,-936 4294,-972"/>
<text text-anchor="middle" x="4030.5" y="-950.3" font-family="Times New Roman,serif" font-size="14.00">Sanırım nasıl tepki vereceğini görmek için gerçekleşmesini beklememiz gerekecek, değil mi?</text>
</g>
<!-- j764889249&#45;&gt;j3521533203 -->
<g id="edge20" class="edge">
<title>j764889249&#45;&gt;j3521533203</title>
<path fill="none" stroke="black" d="M3847.44,-1007.52C3881.34,-997.79 3923.71,-985.64 3959.15,-975.47"/>
<polygon fill="black" stroke="black" points="3959.81,-978.92 3968.46,-972.8 3957.88,-972.19 3959.81,-978.92"/>
</g>
<!-- j997056888 -->
<g id="node22" class="node">
<title>j997056888</title>
<polygon fill="none" stroke="blue" points="1943,-900 998,-900 998,-864 1943,-864 1943,-900"/>
<text text-anchor="middle" x="1470.5" y="-878.3" font-family="Times New Roman,serif" font-size="14.00">Diyelim ki evet dedim, kudurmuş bir ucube olarak yaşamaya devam etmektense beni hızlı ve temiz bir şekilde öldürmeni isterim. Diyelim ki Eleanor&#39;un şu an istediği bu.</text>
</g>
<!-- j1358845057&#45;&gt;j997056888 -->
<g id="edge21" class="edge">
<title>j1358845057&#45;&gt;j997056888</title>
<path fill="none" stroke="black" d="M1652.81,-935.52C1619.05,-925.79 1576.85,-913.64 1541.55,-903.47"/>
<polygon fill="black" stroke="black" points="1542.87,-900.21 1532.29,-900.8 1540.93,-906.93 1542.87,-900.21"/>
</g>
<!-- j3254151402 -->
<g id="node23" class="node">
<title>j3254151402</title>
<polygon fill="none" stroke="blue" points="3829,-900 3434,-900 3434,-864 3829,-864 3829,-900"/>
<text text-anchor="middle" x="3631.5" y="-878.3" font-family="Times New Roman,serif" font-size="14.00">Ve hücrelerimdeki Techrot&#39;un kaygılı bir şekilde titrediğini hissettim.</text>
</g>
<!-- j1891659464&#45;&gt;j3254151402 -->
<g id="edge22" class="edge">
<title>j1891659464&#45;&gt;j3254151402</title>
<path fill="none" stroke="black" d="M3375.67,-935.52C3424.18,-925.56 3485.1,-913.05 3535.33,-902.74"/>
<polygon fill="black" stroke="black" points="3535.96,-906.19 3545.05,-900.75 3534.55,-899.33 3535.96,-906.19"/>
</g>
<!-- j1058122300 -->
<g id="node24" class="node">
<title>j1058122300</title>
<polygon fill="none" stroke="blue" points="3415.5,-900 1961.5,-900 1961.5,-864 3415.5,-864 3415.5,-900"/>
<text text-anchor="middle" x="2688.5" y="-878.3" font-family="Times New Roman,serif" font-size="14.00">Özür dilerim, özür dilerim, sadece Lettie&#39;nin kulağımda burada olmayı hak etmediğimden bahsederek ve Arthur&#39;un bana sanki kayıp bir vakaymışım gibi bakıp bunu yapması gereken günü sayarak her gün yaşadım ve bunu söylemeni beklemiyordum tamam mı</text>
</g>
<!-- j2007567868&#45;&gt;j1058122300 -->
<g id="edge23" class="edge">
<title>j2007567868&#45;&gt;j1058122300</title>
<path fill="none" stroke="black" d="M2688.5,-935.7C2688.5,-928.41 2688.5,-919.73 2688.5,-911.54"/>
<polygon fill="black" stroke="black" points="2692,-911.62 2688.5,-901.62 2685,-911.62 2692,-911.62"/>
</g>
<!-- j993784649 -->
<g id="node25" class="node">
<title>j993784649</title>
<polygon fill="none" stroke="blue" points="4134.5,-900 3926.5,-900 3926.5,-864 4134.5,-864 4134.5,-900"/>
<text text-anchor="middle" x="4030.5" y="-878.3" font-family="Times New Roman,serif" font-size="14.00">Sen ölümcül küçük bir bilmecesin.</text>
</g>
<!-- j3521533203&#45;&gt;j993784649 -->
<g id="edge24" class="edge">
<title>j3521533203&#45;&gt;j993784649</title>
<path fill="none" stroke="black" d="M4030.5,-935.7C4030.5,-928.41 4030.5,-919.73 4030.5,-911.54"/>
<polygon fill="black" stroke="black" points="4034,-911.62 4030.5,-901.62 4027,-911.62 4034,-911.62"/>
</g>
<!-- j2998059556 -->
<g id="node26" class="node">
<title>j2998059556</title>
<polygon fill="none" stroke="blue" points="1947,-828 1142,-828 1142,-792 1947,-792 1947,-828"/>
<text text-anchor="middle" x="1544.5" y="-806.3" font-family="Times New Roman,serif" font-size="14.00">Peki ya o açgözlü ucube bensem, hatta daha da fazlasıysam? Ya, insanlığım Techrot potasında yanıp kül olurken, ölmek İSTEMİYORSAM?</text>
</g>
<!-- j997056888&#45;&gt;j2998059556 -->
<g id="edge25" class="edge">
<title>j997056888&#45;&gt;j2998059556</title>
<path fill="none" stroke="black" d="M1488.79,-863.7C1497.6,-855.37 1508.32,-845.22 1518,-836.07"/>
<polygon fill="black" stroke="black" points="1520.2,-838.8 1525.06,-829.39 1515.39,-833.72 1520.2,-838.8"/>
</g>
<!-- j4123346700 -->
<g id="node27" class="node">
<title>j4123346700</title>
<polygon fill="none" stroke="blue" points="3958.5,-828 3174.5,-828 3174.5,-792 3958.5,-792 3958.5,-828"/>
<text text-anchor="middle" x="3566.5" y="-806.3" font-family="Times New Roman,serif" font-size="14.00">Sanırım bundan sonra biraz daha uslu duracak. Parazitin içine Sol korkusunu aşılamak için ev sahibini tehdit etmek gibisi yoktur, değil mi?</text>
</g>
<!-- j3254151402&#45;&gt;j4123346700 -->
<g id="edge26" class="edge">
<title>j3254151402&#45;&gt;j4123346700</title>
<path fill="none" stroke="black" d="M3615.43,-863.7C3607.8,-855.47 3598.52,-845.48 3590.1,-836.42"/>
<polygon fill="black" stroke="black" points="3592.78,-834.16 3583.41,-829.21 3587.65,-838.92 3592.78,-834.16"/>
</g>
<!-- j1887209284 -->
<g id="node28" class="node">
<title>j1887209284</title>
<ellipse fill="none" stroke="orange" cx="2688.5" cy="-810" rx="64.19" ry="18"/>
<text text-anchor="middle" x="2688.5" y="-806.3" font-family="Times New Roman,serif" font-size="14.00">+20 Chemistry</text>
</g>
<!-- j1058122300&#45;&gt;j1887209284 -->
<g id="edge27" class="edge">
<title>j1058122300&#45;&gt;j1887209284</title>
<path fill="none" stroke="black" d="M2688.5,-863.7C2688.5,-856.41 2688.5,-847.73 2688.5,-839.54"/>
<polygon fill="black" stroke="black" points="2692,-839.62 2688.5,-829.62 2685,-839.62 2692,-839.62"/>
</g>
<!-- j88478283 -->
<g id="node29" class="node">
<title>j88478283</title>
<polygon fill="none" stroke="blue" points="4084,-828 3977,-828 3977,-792 4084,-792 4084,-828"/>
<text text-anchor="middle" x="4030.5" y="-806.3" font-family="Times New Roman,serif" font-size="14.00">Ben de öyleyim.</text>
</g>
<!-- j993784649&#45;&gt;j88478283 -->
<g id="edge28" class="edge">
<title>j993784649&#45;&gt;j88478283</title>
<path fill="none" stroke="black" d="M4030.5,-863.7C4030.5,-856.41 4030.5,-847.73 4030.5,-839.54"/>
<polygon fill="black" stroke="black" points="4034,-839.62 4030.5,-829.62 4027,-839.62 4034,-839.62"/>
</g>
<!-- j2191057023 -->
<g id="node30" class="node">
<title>j2191057023</title>
<polygon fill="none" stroke="blue" points="1881,-756 1504,-756 1504,-720 1881,-720 1881,-756"/>
<text text-anchor="middle" x="1692.5" y="-734.3" font-family="Times New Roman,serif" font-size="14.00">Çünkü beni canlı hissettiriyor, Gezgin. Güçlü bir canlılık veriyor.</text>
</g>
<!-- j2998059556&#45;&gt;j2191057023 -->
<g id="edge29" class="edge">
<title>j2998059556&#45;&gt;j2191057023</title>
<path fill="none" stroke="black" d="M1581.46,-791.52C1600.87,-782.34 1624.86,-770.99 1645.57,-761.2"/>
<polygon fill="black" stroke="black" points="1646.84,-764.47 1654.38,-757.03 1643.85,-758.14 1646.84,-764.47"/>
</g>
<!-- j2864742878 -->
<g id="node31" class="node">
<title>j2864742878</title>
<ellipse fill="none" stroke="orange" cx="3566.5" cy="-738" rx="142.97" ry="18"/>
<text text-anchor="middle" x="3566.5" y="-734.3" font-family="Times New Roman,serif" font-size="14.00">Boolean EleanorNoDate is now true.</text>
</g>
<!-- j4123346700&#45;&gt;j2864742878 -->
<g id="edge30" class="edge">
<title>j4123346700&#45;&gt;j2864742878</title>
<path fill="none" stroke="black" d="M3566.5,-791.7C3566.5,-784.41 3566.5,-775.73 3566.5,-767.54"/>
<polygon fill="black" stroke="black" points="3570,-767.62 3566.5,-757.62 3563,-767.62 3570,-767.62"/>
</g>
<!-- j2048501637 -->
<g id="node32" class="node">
<title>j2048501637</title>
<polygon fill="none" stroke="blue" points="2865,-756 2512,-756 2512,-720 2865,-720 2865,-756"/>
<text text-anchor="middle" x="2688.5" y="-734.3" font-family="Times New Roman,serif" font-size="14.00">Ağlıyorum. Mutluluk gözyaşları. Yakında konuşuruz. Lütfen</text>
</g>
<!-- j1887209284&#45;&gt;j2048501637 -->
<g id="edge31" class="edge">
<title>j1887209284&#45;&gt;j2048501637</title>
<path fill="none" stroke="black" d="M2688.5,-791.7C2688.5,-784.41 2688.5,-775.73 2688.5,-767.54"/>
<polygon fill="black" stroke="black" points="2692,-767.62 2688.5,-757.62 2685,-767.62 2692,-767.62"/>
</g>
<!-- j88478283&#45;&gt;j2864742878 -->
<g id="edge32" class="edge">
<title>j88478283&#45;&gt;j2864742878</title>
<path fill="none" stroke="black" d="M3976.65,-793.97C3973.57,-793.26 3970.5,-792.6 3967.5,-792 3874.61,-773.41 3768.26,-759.7 3688.44,-750.88"/>
<polygon fill="black" stroke="black" points="3689.18,-747.44 3678.86,-749.83 3688.42,-754.4 3689.18,-747.44"/>
</g>
<!-- j425393222 -->
<g id="node33" class="node">
<title>j425393222</title>
<polygon fill="none" stroke="red" points="2064.5,-684 1944.5,-684 1944.5,-648 2064.5,-648 2064.5,-684"/>
<text text-anchor="middle" x="2004.5" y="-662.3" font-family="Times New Roman,serif" font-size="14.00">Yine de yapardım.</text>
</g>
<!-- j2191057023&#45;&gt;j425393222 -->
<g id="edge33" class="edge">
<title>j2191057023&#45;&gt;j425393222</title>
<path fill="none" stroke="black" d="M1770.43,-719.52C1820.33,-708.32 1884.59,-693.9 1933.15,-683.01"/>
<polygon fill="black" stroke="black" points="1933.73,-686.47 1942.72,-680.86 1932.2,-679.64 1933.73,-686.47"/>
</g>
<!-- j1105060039 -->
<g id="node34" class="node">
<title>j1105060039</title>
<polygon fill="none" stroke="red" points="2423.5,-684 2225.5,-684 2225.5,-648 2423.5,-648 2423.5,-684"/>
<text text-anchor="middle" x="2324.5" y="-662.3" font-family="Times New Roman,serif" font-size="14.00">Anladım. Ben bunu yapmazdım.</text>
</g>
<!-- j2191057023&#45;&gt;j1105060039 -->
<g id="edge34" class="edge">
<title>j2191057023&#45;&gt;j1105060039</title>
<path fill="none" stroke="black" d="M1850.35,-719.52C1963.53,-706.98 2113.19,-690.41 2213.83,-679.26"/>
<polygon fill="black" stroke="black" points="2214.19,-682.74 2223.74,-678.16 2213.41,-675.78 2214.19,-682.74"/>
</g>
<!-- j2351011746 -->
<g id="node35" class="node">
<title>j2351011746</title>
<polygon fill="none" stroke="red" points="1170,-684 899,-684 899,-648 1170,-648 1170,-684"/>
<text text-anchor="middle" x="1034.5" y="-662.3" font-family="Times New Roman,serif" font-size="14.00">Bu, kaç kişinin daha tehlikede olduğuna bağlı.</text>
</g>
<!-- j2191057023&#45;&gt;j2351011746 -->
<g id="edge35" class="edge">
<title>j2191057023&#45;&gt;j2351011746</title>
<path fill="none" stroke="black" d="M1528.16,-719.52C1421.85,-708.21 1284.63,-693.61 1181.86,-682.68"/>
<polygon fill="black" stroke="black" points="1182.27,-679.2 1171.96,-681.62 1181.53,-686.16 1182.27,-679.2"/>
</g>
<!-- j2848719272 -->
<g id="node36" class="node">
<title>j2848719272</title>
<polygon fill="none" stroke="red" points="1854.5,-684 1530.5,-684 1530.5,-648 1854.5,-648 1854.5,-684"/>
<text text-anchor="middle" x="1692.5" y="-662.3" font-family="Times New Roman,serif" font-size="14.00">Soruyu cevaplamadın. Benim cevaplamamı ister misin?</text>
</g>
<!-- j2191057023&#45;&gt;j2848719272 -->
<g id="edge36" class="edge">
<title>j2191057023&#45;&gt;j2848719272</title>
<path fill="none" stroke="black" d="M1692.5,-719.7C1692.5,-712.41 1692.5,-703.73 1692.5,-695.54"/>
<polygon fill="black" stroke="black" points="1696,-695.62 1692.5,-685.62 1689,-695.62 1696,-695.62"/>
</g>
<!-- Chat ends. -->
<g id="node37" class="node">
<title>Chat ends.</title>
<ellipse fill="none" stroke="orange" cx="2430.5" cy="-18" rx="50.09" ry="18"/>
<text text-anchor="middle" x="2430.5" y="-14.3" font-family="Times New Roman,serif" font-size="14.00">Chat ends.</text>
</g>
<!-- j2864742878&#45;&gt;Chat ends. -->
<g id="edge37" class="edge">
<title>j2864742878&#45;&gt;Chat ends.</title>
<path fill="none" stroke="black" d="M3556.14,-719.76C3541.49,-693.7 3516.5,-642.31 3516.5,-595 3516.5,-595 3516.5,-595 3516.5,-161 3516.5,-56.92 2722.15,-27 2492.18,-20.52"/>
<polygon fill="black" stroke="black" points="2492.31,-17.02 2482.21,-20.25 2492.11,-24.02 2492.31,-17.02"/>
</g>
<!-- Chat ends. Next chat will be EleanorMonster. -->
<g id="node38" class="node">
<title>Chat ends. Next chat will be EleanorMonster.</title>
<ellipse fill="none" stroke="orange" cx="2688.5" cy="-666" rx="174.67" ry="18"/>
<text text-anchor="middle" x="2688.5" y="-662.3" font-family="Times New Roman,serif" font-size="14.00">Chat ends. Next chat will be EleanorMonster.</text>
</g>
<!-- j2048501637&#45;&gt;Chat ends. Next chat will be EleanorMonster. -->
<g id="edge38" class="edge">
<title>j2048501637&#45;&gt;Chat ends. Next chat will be EleanorMonster.</title>
<path fill="none" stroke="black" d="M2688.5,-719.7C2688.5,-712.41 2688.5,-703.73 2688.5,-695.54"/>
<polygon fill="black" stroke="black" points="2692,-695.62 2688.5,-685.62 2685,-695.62 2692,-695.62"/>
</g>
<!-- j1889400377 -->
<g id="node39" class="node">
<title>j1889400377</title>
<polygon fill="none" stroke="blue" points="2539,-612 2044,-612 2044,-576 2539,-576 2539,-612"/>
<text text-anchor="middle" x="2291.5" y="-590.3" font-family="Times New Roman,serif" font-size="14.00">Tamam. O zaman, o mutlu ve güçlenmiş Eleanor&#39;u, eskisine kurban edeceğiz, öyle mi?</text>
</g>
<!-- j425393222&#45;&gt;j1889400377 -->
<g id="edge39" class="edge">
<title>j425393222&#45;&gt;j1889400377</title>
<path fill="none" stroke="black" d="M2064.66,-650.33C2106.5,-640.12 2162.79,-626.39 2208.84,-615.16"/>
<polygon fill="black" stroke="black" points="2209.65,-618.57 2218.53,-612.8 2207.99,-611.77 2209.65,-618.57"/>
</g>
<!-- j718081226 -->
<g id="node40" class="node">
<title>j718081226</title>
<polygon fill="none" stroke="blue" points="3110.5,-612 2640.5,-612 2640.5,-576 3110.5,-576 3110.5,-612"/>
<text text-anchor="middle" x="2875.5" y="-590.3" font-family="Times New Roman,serif" font-size="14.00">Yani sana kocaman güzel gözlerimi kırpmam yeterli olacak ve vaz mı geçeceksin?</text>
</g>
<!-- j1105060039&#45;&gt;j718081226 -->
<g id="edge40" class="edge">
<title>j1105060039&#45;&gt;j718081226</title>
<path fill="none" stroke="black" d="M2423.96,-652.36C2508.35,-641.64 2630.64,-626.11 2726.68,-613.91"/>
<polygon fill="black" stroke="black" points="2726.98,-617.4 2736.46,-612.66 2726.1,-610.45 2726.98,-617.4"/>
</g>
<!-- j983843302 -->
<g id="node41" class="node">
<title>j983843302</title>
<polygon fill="none" stroke="blue" points="1385,-612 0,-612 0,-576 1385,-576 1385,-612"/>
<text text-anchor="middle" x="692.5" y="-590.3" font-family="Times New Roman,serif" font-size="14.00">Ah. Doğru ya. Bu senaryoda, ben muhtemelen insanları istemeden katleden insanlık dışı bir canavarım. Beni kuduz köpekler, aç ayılar ve benzerleriyle birlikte &#39;yırtıcı hayvan&#39; kategorisine koyabilirsin, bu da ahlaki bir ikilem olmadığı anlamına gelir.</text>
</g>
<!-- j2351011746&#45;&gt;j983843302 -->
<g id="edge41" class="edge">
<title>j2351011746&#45;&gt;j983843302</title>
<path fill="none" stroke="black" d="M949.08,-647.52C900.43,-637.56 839.33,-625.05 788.95,-614.74"/>
<polygon fill="black" stroke="black" points="789.7,-611.32 779.2,-612.75 788.3,-618.18 789.7,-611.32"/>
</g>
<!-- j3757851954 -->
<g id="node42" class="node">
<title>j3757851954</title>
<polygon fill="none" stroke="blue" points="1981.5,-612 1403.5,-612 1403.5,-576 1981.5,-576 1981.5,-612"/>
<text text-anchor="middle" x="1692.5" y="-590.3" font-family="Times New Roman,serif" font-size="14.00">… Bilmiyorum. Bazı günler öyle düşünüyorum. Kendimi bir melodramın tiplemesi gibi hissediyorum.</text>
</g>
<!-- j2848719272&#45;&gt;j3757851954 -->
<g id="edge42" class="edge">
<title>j2848719272&#45;&gt;j3757851954</title>
<path fill="none" stroke="black" d="M1692.5,-647.7C1692.5,-640.41 1692.5,-631.73 1692.5,-623.54"/>
<polygon fill="black" stroke="black" points="1696,-623.62 1692.5,-613.62 1689,-623.62 1696,-623.62"/>
</g>
<!-- j3365170966 -->
<g id="node43" class="node">
<title>j3365170966</title>
<polygon fill="none" stroke="blue" points="2617,-540 2138,-540 2138,-504 2617,-504 2617,-540"/>
<text text-anchor="middle" x="2377.5" y="-518.3" font-family="Times New Roman,serif" font-size="14.00">Ben fikrimi değiştirip yaşamaya karar verebilirim ama sen fikrini değiştiremez misin?</text>
</g>
<!-- j1889400377&#45;&gt;j3365170966 -->
<g id="edge43" class="edge">
<title>j1889400377&#45;&gt;j3365170966</title>
<path fill="none" stroke="black" d="M2312.76,-575.7C2323.2,-567.2 2335.96,-556.81 2347.38,-547.51"/>
<polygon fill="black" stroke="black" points="2349.47,-550.33 2355.01,-541.3 2345.05,-544.9 2349.47,-550.33"/>
</g>
<!-- j1824903673 -->
<g id="node44" class="node">
<title>j1824903673</title>
<polygon fill="none" stroke="blue" points="3107,-540 2808,-540 2808,-504 3107,-504 3107,-540"/>
<text text-anchor="middle" x="2957.5" y="-518.3" font-family="Times New Roman,serif" font-size="14.00">Peki sen nasıl korkusuz bir vampir avcısı olurdun?</text>
</g>
<!-- j718081226&#45;&gt;j1824903673 -->
<g id="edge44" class="edge">
<title>j718081226&#45;&gt;j1824903673</title>
<path fill="none" stroke="black" d="M2895.77,-575.7C2905.63,-567.28 2917.65,-557.02 2928.46,-547.79"/>
<polygon fill="black" stroke="black" points="2930.69,-550.48 2936.03,-541.33 2926.15,-545.16 2930.69,-550.48"/>
</g>
<!-- j1499300106 -->
<g id="node45" class="node">
<title>j1499300106</title>
<polygon fill="none" stroke="blue" points="747.5,-540 637.5,-540 637.5,-504 747.5,-504 747.5,-540"/>
<text text-anchor="middle" x="692.5" y="-518.3" font-family="Times New Roman,serif" font-size="14.00">Hadi söyle bana.</text>
</g>
<!-- j983843302&#45;&gt;j1499300106 -->
<g id="edge45" class="edge">
<title>j983843302&#45;&gt;j1499300106</title>
<path fill="none" stroke="black" d="M692.5,-575.7C692.5,-568.41 692.5,-559.73 692.5,-551.54"/>
<polygon fill="black" stroke="black" points="696,-551.62 692.5,-541.62 689,-551.62 696,-551.62"/>
</g>
<!-- j3146012659 -->
<g id="node46" class="node">
<title>j3146012659</title>
<polygon fill="none" stroke="blue" points="1950.5,-540 1204.5,-540 1204.5,-504 1950.5,-504 1950.5,-540"/>
<text text-anchor="middle" x="1577.5" y="-518.3" font-family="Times New Roman,serif" font-size="14.00">“Olamaz, bir zamanlar sevdiğim bahtsız kız seksi bir vampire dönüştü. Onu öldürelim ki ölürken bir kez daha saf ve masum olsun.”</text>
</g>
<!-- j3757851954&#45;&gt;j3146012659 -->
<g id="edge46" class="edge">
<title>j3757851954&#45;&gt;j3146012659</title>
<path fill="none" stroke="black" d="M1663.78,-575.52C1649.12,-566.6 1631.11,-555.63 1615.34,-546.03"/>
<polygon fill="black" stroke="black" points="1617.51,-543.26 1607.15,-541.05 1613.87,-549.24 1617.51,-543.26"/>
</g>
<!-- j4105489184 -->
<g id="node47" class="node">
<title>j4105489184</title>
<polygon fill="none" stroke="blue" points="2587.5,-468 2253.5,-468 2253.5,-432 2587.5,-432 2587.5,-468"/>
<text text-anchor="middle" x="2420.5" y="-446.3" font-family="Times New Roman,serif" font-size="14.00">Şaşırmamalıyım. Hikayelerin sana hazırladığı son budur.</text>
</g>
<!-- j3365170966&#45;&gt;j4105489184 -->
<g id="edge47" class="edge">
<title>j3365170966&#45;&gt;j4105489184</title>
<path fill="none" stroke="black" d="M2388.13,-503.7C2392.92,-495.9 2398.69,-486.51 2404.02,-477.83"/>
<polygon fill="black" stroke="black" points="2406.95,-479.75 2409.2,-469.39 2400.98,-476.08 2406.95,-479.75"/>
</g>
<!-- j3520774627 -->
<g id="node48" class="node">
<title>j3520774627</title>
<polygon fill="none" stroke="blue" points="3438,-468 2805,-468 2805,-432 3438,-432 3438,-468"/>
<text text-anchor="middle" x="3121.5" y="-446.3" font-family="Times New Roman,serif" font-size="14.00">Sana söylüyorum. Yapılması gerekeni yapmaya cesaret edemedikleri için filmin yarısında ölenlerden olacaksın.</text>
</g>
<!-- j1824903673&#45;&gt;j3520774627 -->
<g id="edge48" class="edge">
<title>j1824903673&#45;&gt;j3520774627</title>
<path fill="none" stroke="black" d="M2998.46,-503.52C3020.26,-494.21 3047.28,-482.68 3070.44,-472.79"/>
<polygon fill="black" stroke="black" points="3071.56,-476.12 3079.39,-468.98 3068.81,-469.68 3071.56,-476.12"/>
</g>
<!-- j1264855813 -->
<g id="node49" class="node">
<title>j1264855813</title>
<polygon fill="none" stroke="blue" points="914,-468 471,-468 471,-432 914,-432 914,-468"/>
<text text-anchor="middle" x="692.5" y="-446.3" font-family="Times New Roman,serif" font-size="14.00">Kafatasıma bir kurşun sıkmadan önce ilk kurbanımı almamı mı bekliyorsun?</text>
</g>
<!-- j1499300106&#45;&gt;j1264855813 -->
<g id="edge49" class="edge">
<title>j1499300106&#45;&gt;j1264855813</title>
<path fill="none" stroke="black" d="M692.5,-503.7C692.5,-496.41 692.5,-487.73 692.5,-479.54"/>
<polygon fill="black" stroke="black" points="696,-479.62 692.5,-469.62 689,-479.62 696,-479.62"/>
</g>
<!-- j4201946285 -->
<g id="node50" class="node">
<title>j4201946285</title>
<ellipse fill="none" stroke="orange" cx="1519.5" cy="-450" rx="175.47" ry="18"/>
<text text-anchor="middle" x="1519.5" y="-446.3" font-family="Times New Roman,serif" font-size="14.00">Boolean EleanorArthurNightmare is now true.</text>
</g>
<!-- j3146012659&#45;&gt;j4201946285 -->
<g id="edge50" class="edge">
<title>j3146012659&#45;&gt;j4201946285</title>
<path fill="none" stroke="black" d="M1563.16,-503.7C1556.42,-495.56 1548.24,-485.69 1540.8,-476.7"/>
<polygon fill="black" stroke="black" points="1543.71,-474.74 1534.64,-469.27 1538.32,-479.2 1543.71,-474.74"/>
</g>
<!-- j1363341882 -->
<g id="node51" class="node">
<title>j1363341882</title>
<polygon fill="none" stroke="blue" points="2966.5,-396 2220.5,-396 2220.5,-360 2966.5,-360 2966.5,-396"/>
<text text-anchor="middle" x="2593.5" y="-374.3" font-family="Times New Roman,serif" font-size="14.00">“Olamaz, bir zamanlar sevdiğim bahtsız kız seksi bir vampire dönüştü. Onu öldürelim ki ölürken bir kez daha saf ve masum olsun.”</text>
</g>
<!-- j4105489184&#45;&gt;j1363341882 -->
<g id="edge51" class="edge">
<title>j4105489184&#45;&gt;j1363341882</title>
<path fill="none" stroke="black" d="M2463.71,-431.52C2486.81,-422.17 2515.47,-410.57 2539.97,-400.66"/>
<polygon fill="black" stroke="black" points="2541.18,-403.94 2549.14,-396.95 2538.56,-397.46 2541.18,-403.94"/>
</g>
<!-- j1737134970 -->
<g id="node52" class="node">
<title>j1737134970</title>
<polygon fill="none" stroke="blue" points="3271.5,-396 3075.5,-396 3075.5,-360 3271.5,-360 3271.5,-396"/>
<text text-anchor="middle" x="3173.5" y="-374.3" font-family="Times New Roman,serif" font-size="14.00">Diğerlerine ibret olacaksın, evet!</text>
</g>
<!-- j3520774627&#45;&gt;j1737134970 -->
<g id="edge52" class="edge">
<title>j3520774627&#45;&gt;j1737134970</title>
<path fill="none" stroke="black" d="M3134.35,-431.7C3140.27,-423.73 3147.43,-414.1 3153.99,-405.26"/>
<polygon fill="black" stroke="black" points="3156.74,-407.43 3159.89,-397.32 3151.12,-403.26 3156.74,-407.43"/>
</g>
<!-- j2176776139 -->
<g id="node53" class="node">
<title>j2176776139</title>
<polygon fill="none" stroke="blue" points="1070.5,-252 642.5,-252 642.5,-216 1070.5,-216 1070.5,-252"/>
<text text-anchor="middle" x="856.5" y="-230.3" font-family="Times New Roman,serif" font-size="14.00">Çünkü eğer yapmazsan, benim tehlikeli olduğumdan nasıl emin olabilirsin?</text>
</g>
<!-- j1264855813&#45;&gt;j2176776139 -->
<g id="edge53" class="edge">
<title>j1264855813&#45;&gt;j2176776139</title>
<path fill="none" stroke="black" d="M692.96,-431.76C694.16,-412.92 698.21,-382.43 711.5,-360 737.33,-316.41 783.81,-280.4 817.2,-258.41"/>
<polygon fill="black" stroke="black" points="818.88,-261.49 825.4,-253.13 815.09,-255.6 818.88,-261.49"/>
</g>
<!-- j4235993577 -->
<g id="node54" class="node">
<title>j4235993577</title>
<polygon fill="none" stroke="blue" points="2202.5,-396 720.5,-396 720.5,-360 2202.5,-360 2202.5,-396"/>
<text text-anchor="middle" x="1461.5" y="-374.3" font-family="Times New Roman,serif" font-size="14.00">Aslında buna takıntılıydım. Kabuslar görüyordum; kanepemde uyanıyordum ve Arthur, gözlerinde yaşlar ve elinde kılıçla, Eleanor&#39;un kız kardeşi olduğunu ama artık Eleanor&#39;un GİTTİĞİNİ ve onu öldürse bile bunu yapmak zorunda olduğunu söylüyordu, ühü ühü.</text>
</g>
<!-- j4201946285&#45;&gt;j4235993577 -->
<g id="edge54" class="edge">
<title>j4201946285&#45;&gt;j4235993577</title>
<path fill="none" stroke="black" d="M1505.16,-431.7C1498.42,-423.56 1490.24,-413.69 1482.8,-404.7"/>
<polygon fill="black" stroke="black" points="1485.71,-402.74 1476.64,-397.27 1480.32,-407.2 1485.71,-402.74"/>
</g>
<!-- j732875862 -->
<g id="node55" class="node">
<title>j732875862</title>
<ellipse fill="none" stroke="orange" cx="2511.5" cy="-306" rx="175.47" ry="18"/>
<text text-anchor="middle" x="2511.5" y="-302.3" font-family="Times New Roman,serif" font-size="14.00">Boolean EleanorArthurNightmare is now true.</text>
</g>
<!-- j1363341882&#45;&gt;j732875862 -->
<g id="edge55" class="edge">
<title>j1363341882&#45;&gt;j732875862</title>
<path fill="none" stroke="black" d="M2573.23,-359.7C2563.37,-351.28 2551.35,-341.02 2540.54,-331.79"/>
<polygon fill="black" stroke="black" points="2542.85,-329.16 2532.97,-325.33 2538.31,-334.48 2542.85,-329.16"/>
</g>
<!-- j1513506158 -->
<g id="node56" class="node">
<title>j1513506158</title>
<polygon fill="none" stroke="blue" points="3294,-180 2899,-180 2899,-144 3294,-144 3294,-180"/>
<text text-anchor="middle" x="3096.5" y="-158.3" font-family="Times New Roman,serif" font-size="14.00">Üzgünüm. Sana karşı pek adil davranmıyorum. Yakında konuşuruz.</text>
</g>
<!-- j1737134970&#45;&gt;j1513506158 -->
<g id="edge56" class="edge">
<title>j1737134970&#45;&gt;j1513506158</title>
<path fill="none" stroke="black" d="M3179.77,-359.7C3189.88,-328.69 3206.17,-262.55 3180.5,-216 3173.73,-203.73 3162.8,-193.91 3151.02,-186.22"/>
<polygon fill="black" stroke="black" points="3153.14,-183.4 3142.76,-181.28 3149.54,-189.41 3153.14,-183.4"/>
</g>
<!-- j2176776139&#45;&gt;Chat ends. -->
<g id="edge57" class="edge">
<title>j2176776139&#45;&gt;Chat ends.</title>
<path fill="none" stroke="black" d="M956.71,-215.54C1141.47,-183.77 1548.51,-115.77 1893.5,-72 2066.26,-50.08 2271.27,-32.05 2370.6,-23.82"/>
<polygon fill="black" stroke="black" points="2370.71,-27.32 2380.39,-23.01 2370.13,-20.34 2370.71,-27.32"/>
</g>
<!-- j2118956161 -->
<g id="node57" class="node">
<title>j2118956161</title>
<polygon fill="none" stroke="blue" points="1809,-324 1114,-324 1114,-288 1809,-288 1809,-324"/>
<text text-anchor="middle" x="1461.5" y="-302.3" font-family="Times New Roman,serif" font-size="14.00">Bıçağı kaburgalarımın arasına sokarken “Eleanor BURADA, seni aptal piç!” diye bağırıyorum ama artık beni duyamıyor.</text>
</g>
<!-- j4235993577&#45;&gt;j2118956161 -->
<g id="edge58" class="edge">
<title>j4235993577&#45;&gt;j2118956161</title>
<path fill="none" stroke="black" d="M1461.5,-359.7C1461.5,-352.41 1461.5,-343.73 1461.5,-335.54"/>
<polygon fill="black" stroke="black" points="1465,-335.62 1461.5,-325.62 1458,-335.62 1465,-335.62"/>
</g>
<!-- j4025370282 -->
<g id="node58" class="node">
<title>j4025370282</title>
<polygon fill="none" stroke="blue" points="3171.5,-252 1689.5,-252 1689.5,-216 3171.5,-216 3171.5,-252"/>
<text text-anchor="middle" x="2430.5" y="-230.3" font-family="Times New Roman,serif" font-size="14.00">Aslında buna takıntılıydım. Kabuslar görüyordum; kanepemde uyanıyordum ve Arthur, gözlerinde yaşlar ve elinde kılıçla, Eleanor&#39;un kız kardeşi olduğunu ama artık Eleanor&#39;un GİTTİĞİNİ ve onu öldürse bile bunu yapmak zorunda olduğunu söylüyordu, ühü ühü.</text>
</g>
<!-- j732875862&#45;&gt;j4025370282 -->
<g id="edge59" class="edge">
<title>j732875862&#45;&gt;j4025370282</title>
<path fill="none" stroke="black" d="M2491.48,-287.7C2481.74,-279.28 2469.86,-269.02 2459.19,-259.79"/>
<polygon fill="black" stroke="black" points="2461.57,-257.23 2451.72,-253.34 2457,-262.52 2461.57,-257.23"/>
</g>
<!-- j1513506158&#45;&gt;Chat ends. -->
<g id="edge60" class="edge">
<title>j1513506158&#45;&gt;Chat ends.</title>
<path fill="none" stroke="black" d="M3014.5,-143.52C2876.04,-113.99 2599.66,-55.07 2483.67,-30.34"/>
<polygon fill="black" stroke="black" points="2484.62,-26.96 2474.11,-28.3 2483.16,-33.81 2484.62,-26.96"/>
</g>
<!-- j155250412 -->
<g id="node59" class="node">
<title>j155250412</title>
<polygon fill="none" stroke="red" points="1671.5,-252 1251.5,-252 1251.5,-216 1671.5,-216 1671.5,-252"/>
<text text-anchor="middle" x="1461.5" y="-230.3" font-family="Times New Roman,serif" font-size="14.00">Yani anladığım kadarıyla bu soruya önceden karar vermek istemiyorsun.</text>
</g>
<!-- j2118956161&#45;&gt;j155250412 -->
<g id="edge61" class="edge">
<title>j2118956161&#45;&gt;j155250412</title>
<path fill="none" stroke="black" d="M1461.5,-287.7C1461.5,-280.41 1461.5,-271.73 1461.5,-263.54"/>
<polygon fill="black" stroke="black" points="1465,-263.62 1461.5,-253.62 1458,-263.62 1465,-263.62"/>
</g>
<!-- j3636238945 -->
<g id="node60" class="node">
<title>j3636238945</title>
<polygon fill="none" stroke="blue" points="2778,-180 2083,-180 2083,-144 2778,-144 2778,-180"/>
<text text-anchor="middle" x="2430.5" y="-158.3" font-family="Times New Roman,serif" font-size="14.00">Bıçağı kaburgalarımın arasına sokarken “Eleanor BURADA, seni aptal piç!” diye bağırıyorum ama artık beni duyamıyor.</text>
</g>
<!-- j4025370282&#45;&gt;j3636238945 -->
<g id="edge62" class="edge">
<title>j4025370282&#45;&gt;j3636238945</title>
<path fill="none" stroke="black" d="M2430.5,-215.7C2430.5,-208.41 2430.5,-199.73 2430.5,-191.54"/>
<polygon fill="black" stroke="black" points="2434,-191.62 2430.5,-181.62 2427,-191.62 2434,-191.62"/>
</g>
<!-- j1177014880 -->
<g id="node61" class="node">
<title>j1177014880</title>
<polygon fill="none" stroke="red" points="1836.5,-180 1570.5,-180 1570.5,-144 1836.5,-144 1836.5,-180"/>
<text text-anchor="middle" x="1703.5" y="-158.3" font-family="Times New Roman,serif" font-size="14.00">Bu durumda benden de bunu bekleyemezsin.</text>
</g>
<!-- j155250412&#45;&gt;j1177014880 -->
<g id="edge63" class="edge">
<title>j155250412&#45;&gt;j1177014880</title>
<path fill="none" stroke="black" d="M1521.94,-215.52C1555.56,-205.79 1597.59,-193.64 1632.74,-183.47"/>
<polygon fill="black" stroke="black" points="1633.32,-186.94 1641.96,-180.8 1631.38,-180.22 1633.32,-186.94"/>
</g>
<!-- j3870157724 -->
<g id="node62" class="node">
<title>j3870157724</title>
<polygon fill="none" stroke="blue" points="2550,-108 2311,-108 2311,-72 2550,-72 2550,-108"/>
<text text-anchor="middle" x="2430.5" y="-86.3" font-family="Times New Roman,serif" font-size="14.00">Belki bir sonraki rüyamda seni görürüm.</text>
</g>
<!-- j3636238945&#45;&gt;j3870157724 -->
<g id="edge64" class="edge">
<title>j3636238945&#45;&gt;j3870157724</title>
<path fill="none" stroke="black" d="M2430.5,-143.7C2430.5,-136.41 2430.5,-127.73 2430.5,-119.54"/>
<polygon fill="black" stroke="black" points="2434,-119.62 2430.5,-109.62 2427,-119.62 2434,-119.62"/>
</g>
<!-- j2895199346 -->
<g id="node63" class="node">
<title>j2895199346</title>
<ellipse fill="none" stroke="orange" cx="1966.5" cy="-90" rx="64.19" ry="18"/>
<text text-anchor="middle" x="1966.5" y="-86.3" font-family="Times New Roman,serif" font-size="14.00">+20 Chemistry</text>
</g>
<!-- j1177014880&#45;&gt;j2895199346 -->
<g id="edge65" class="edge">
<title>j1177014880&#45;&gt;j2895199346</title>
<path fill="none" stroke="black" d="M1769.19,-143.52C1812.53,-131.98 1868.73,-117.02 1910.05,-106.02"/>
<polygon fill="black" stroke="black" points="1910.8,-109.45 1919.56,-103.49 1909,-102.68 1910.8,-109.45"/>
</g>
<!-- j3870157724&#45;&gt;Chat ends. -->
<g id="edge66" class="edge">
<title>j3870157724&#45;&gt;Chat ends.</title>
<path fill="none" stroke="black" d="M2430.5,-71.7C2430.5,-64.41 2430.5,-55.73 2430.5,-47.54"/>
<polygon fill="black" stroke="black" points="2434,-47.62 2430.5,-37.62 2427,-47.62 2434,-47.62"/>
</g>
<!-- j2895199346&#45;&gt;Chat ends. -->
<g id="edge67" class="edge">
<title>j2895199346&#45;&gt;Chat ends.</title>
<path fill="none" stroke="black" d="M2022.01,-80.63C2110.85,-67.22 2284.06,-41.09 2373.7,-27.57"/>
<polygon fill="black" stroke="black" points="2374.13,-31.04 2383.5,-26.09 2373.09,-24.12 2374.13,-31.04"/>
</g>
</g>
</svg>
