<?xml version="1.0" encoding="UTF-8" standalone="no"?>
<!DOCTYPE svg PUBLIC "-//W3C//DTD SVG 1.1//EN"
 "http://www.w3.org/Graphics/SVG/1.1/DTD/svg11.dtd">
<!-- Generated by graphviz version 7.1.0 (20230121.1956)
 -->
<!-- Pages: 1 -->
<svg width="2483pt" height="2852pt"
 viewBox="0.00 0.00 2482.50 2852.00" xmlns="http://www.w3.org/2000/svg" xmlns:xlink="http://www.w3.org/1999/xlink">
<g id="graph0" class="graph" transform="scale(1 1) rotate(0) translate(4 2848)">
<polygon fill="white" stroke="none" points="-4,4 -4,-2848 2478.5,-2848 2478.5,4 -4,4"/>
<!-- 2541 -->
<g id="node1" class="node">
<title>2541</title>
<ellipse fill="none" stroke="orange" cx="1863.5" cy="-2826" rx="118.88" ry="18"/>
<text text-anchor="middle" x="1863.5" y="-2822.3" font-family="Times New Roman,serif" font-size="14.00">EleanorRank5Convo6 begins.</text>
</g>
<!-- 2542 -->
<g id="node2" class="node">
<title>2542</title>
<polygon fill="none" stroke="blue" points="2053.5,-2772 1673.5,-2772 1673.5,-2736 2053.5,-2736 2053.5,-2772"/>
<text text-anchor="middle" x="1863.5" y="-2750.3" font-family="Times New Roman,serif" font-size="14.00">Bu sabah AVM&#39;de biraz farklı bir hava olduğunu fark etmişsindir.</text>
</g>
<!-- 2541&#45;&gt;2542 -->
<g id="edge1" class="edge">
<title>2541&#45;&gt;2542</title>
<path fill="none" stroke="black" d="M1863.5,-2807.7C1863.5,-2800.41 1863.5,-2791.73 1863.5,-2783.54"/>
<polygon fill="black" stroke="black" points="1867,-2783.62 1863.5,-2773.62 1860,-2783.62 1867,-2783.62"/>
</g>
<!-- 2543 -->
<g id="node3" class="node">
<title>2543</title>
<polygon fill="none" stroke="blue" points="2234.5,-2700 1492.5,-2700 1492.5,-2664 2234.5,-2664 2234.5,-2700"/>
<text text-anchor="middle" x="1863.5" y="-2678.3" font-family="Times New Roman,serif" font-size="14.00">Büyük ve belirgin bir şey yok. Sadece birkaç yüzde birkaç gülümseme. Orada burada birkaç kahkaha. Havada bir mutluluk esintisi.</text>
</g>
<!-- 2542&#45;&gt;2543 -->
<g id="edge2" class="edge">
<title>2542&#45;&gt;2543</title>
<path fill="none" stroke="black" d="M1863.5,-2735.7C1863.5,-2728.41 1863.5,-2719.73 1863.5,-2711.54"/>
<polygon fill="black" stroke="black" points="1867,-2711.62 1863.5,-2701.62 1860,-2711.62 1867,-2711.62"/>
</g>
<!-- 2544 -->
<g id="node4" class="node">
<title>2544</title>
<polygon fill="none" stroke="red" points="1853.5,-2628 1695.5,-2628 1695.5,-2592 1853.5,-2592 1853.5,-2628"/>
<text text-anchor="middle" x="1774.5" y="-2606.3" font-family="Times New Roman,serif" font-size="14.00">Bu senin eserin, değil mi?</text>
</g>
<!-- 2543&#45;&gt;2544 -->
<g id="edge3" class="edge">
<title>2543&#45;&gt;2544</title>
<path fill="none" stroke="black" d="M1841.5,-2663.7C1830.59,-2655.11 1817.23,-2644.61 1805.32,-2635.24"/>
<polygon fill="black" stroke="black" points="1807.77,-2632.71 1797.75,-2629.28 1803.44,-2638.22 1807.77,-2632.71"/>
</g>
<!-- 2545 -->
<g id="node5" class="node">
<title>2545</title>
<polygon fill="none" stroke="red" points="2143,-2628 1980,-2628 1980,-2592 2143,-2592 2143,-2628"/>
<text text-anchor="middle" x="2061.5" y="-2606.3" font-family="Times New Roman,serif" font-size="14.00">Hemen döneceğim. [Son.]</text>
</g>
<!-- 2543&#45;&gt;2545 -->
<g id="edge4" class="edge">
<title>2543&#45;&gt;2545</title>
<path fill="none" stroke="black" d="M1912.95,-2663.52C1939.87,-2654 1973.37,-2642.16 2001.74,-2632.13"/>
<polygon fill="black" stroke="black" points="2002.65,-2635.52 2010.91,-2628.89 2000.31,-2628.92 2002.65,-2635.52"/>
</g>
<!-- 2547 -->
<g id="node6" class="node">
<title>2547</title>
<polygon fill="none" stroke="blue" points="2101,-2556 1016,-2556 1016,-2520 2101,-2520 2101,-2556"/>
<text text-anchor="middle" x="1558.5" y="-2534.3" font-family="Times New Roman,serif" font-size="14.00">Sadece geri ödeme şeklim. Bir telepat, bildiğin gibi, hem gönderebilir hem de alabilir. Bir kişiye hortumla su püskürtmek zorunda değilsin. Daha çok bir alana püskürtülen ince bir sis gibi olabilir.</text>
</g>
<!-- 2544&#45;&gt;2547 -->
<g id="edge5" class="edge">
<title>2544&#45;&gt;2547</title>
<path fill="none" stroke="black" d="M1720.55,-2591.52C1690.93,-2581.92 1654,-2569.95 1622.88,-2559.86"/>
<polygon fill="black" stroke="black" points="1624.17,-2556.6 1613.57,-2556.85 1622.01,-2563.26 1624.17,-2556.6"/>
</g>
<!-- 2546 -->
<g id="node7" class="node">
<title>2546</title>
<ellipse fill="none" stroke="orange" cx="2169.5" cy="-2538" rx="50.09" ry="18"/>
<text text-anchor="middle" x="2169.5" y="-2534.3" font-family="Times New Roman,serif" font-size="14.00">Chat ends.</text>
</g>
<!-- 2545&#45;&gt;2546 -->
<g id="edge6" class="edge">
<title>2545&#45;&gt;2546</title>
<path fill="none" stroke="black" d="M2088.47,-2591.52C2103.03,-2582.08 2121.11,-2570.36 2136.5,-2560.39"/>
<polygon fill="black" stroke="black" points="2138.41,-2563.32 2144.89,-2554.95 2134.6,-2557.45 2138.41,-2563.32"/>
</g>
<!-- 2548 -->
<g id="node8" class="node">
<title>2548</title>
<polygon fill="none" stroke="blue" points="1671,-2484 1446,-2484 1446,-2448 1671,-2448 1671,-2484"/>
<text text-anchor="middle" x="1558.5" y="-2462.3" font-family="Times New Roman,serif" font-size="14.00">Geldiğin yerde çim fıskiyeleri var mı?</text>
</g>
<!-- 2547&#45;&gt;2548 -->
<g id="edge7" class="edge">
<title>2547&#45;&gt;2548</title>
<path fill="none" stroke="black" d="M1558.5,-2519.7C1558.5,-2512.41 1558.5,-2503.73 1558.5,-2495.54"/>
<polygon fill="black" stroke="black" points="1562,-2495.62 1558.5,-2485.62 1555,-2495.62 1562,-2495.62"/>
</g>
<!-- 2549 -->
<g id="node9" class="node">
<title>2549</title>
<polygon fill="none" stroke="red" points="1677,-2412 1076,-2412 1076,-2376 1677,-2376 1677,-2412"/>
<text text-anchor="middle" x="1376.5" y="-2390.3" font-family="Times New Roman,serif" font-size="14.00">VERD&#45;IE ve onun gibi dronlara sahibiz. Zariman&#39;daki bitkilere bakıyorlardı. Kastettiğin bu tür bir şey mi?</text>
</g>
<!-- 2548&#45;&gt;2549 -->
<g id="edge8" class="edge">
<title>2548&#45;&gt;2549</title>
<path fill="none" stroke="black" d="M1513.04,-2447.52C1488.52,-2438.08 1458.05,-2426.37 1432.12,-2416.39"/>
<polygon fill="black" stroke="black" points="1433.7,-2413.25 1423.11,-2412.93 1431.18,-2419.78 1433.7,-2413.25"/>
</g>
<!-- 2550 -->
<g id="node10" class="node">
<title>2550</title>
<polygon fill="none" stroke="red" points="1843.5,-2412 1751.5,-2412 1751.5,-2376 1843.5,-2376 1843.5,-2412"/>
<text text-anchor="middle" x="1797.5" y="-2390.3" font-family="Times New Roman,serif" font-size="14.00">Fıskiye mi...?</text>
</g>
<!-- 2548&#45;&gt;2550 -->
<g id="edge9" class="edge">
<title>2548&#45;&gt;2550</title>
<path fill="none" stroke="black" d="M1618.19,-2447.52C1655.69,-2436.53 1703.78,-2422.45 1740.71,-2411.63"/>
<polygon fill="black" stroke="black" points="1741.24,-2415.12 1749.85,-2408.96 1739.27,-2408.41 1741.24,-2415.12"/>
</g>
<!-- 2551 -->
<g id="node11" class="node">
<title>2551</title>
<polygon fill="none" stroke="blue" points="1308.5,-2340 1222.5,-2340 1222.5,-2304 1308.5,-2304 1308.5,-2340"/>
<text text-anchor="middle" x="1265.5" y="-2318.3" font-family="Times New Roman,serif" font-size="14.00">Evet benzer.</text>
</g>
<!-- 2549&#45;&gt;2551 -->
<g id="edge10" class="edge">
<title>2549&#45;&gt;2551</title>
<path fill="none" stroke="black" d="M1348.78,-2375.52C1334.76,-2366.68 1317.57,-2355.84 1302.45,-2346.3"/>
<polygon fill="black" stroke="black" points="1304.48,-2343.44 1294.15,-2341.07 1300.74,-2349.36 1304.48,-2343.44"/>
</g>
<!-- 2552 -->
<g id="node12" class="node">
<title>2552</title>
<polygon fill="none" stroke="blue" points="2046,-2340 1605,-2340 1605,-2304 2046,-2304 2046,-2340"/>
<text text-anchor="middle" x="1825.5" y="-2318.3" font-family="Times New Roman,serif" font-size="14.00">Evet canım, fıskiyeler. Çimlerini güzel ve nemli tutmak için su püskürtücüler.</text>
</g>
<!-- 2550&#45;&gt;2552 -->
<g id="edge11" class="edge">
<title>2550&#45;&gt;2552</title>
<path fill="none" stroke="black" d="M1804.42,-2375.7C1807.44,-2368.15 1811.05,-2359.12 1814.43,-2350.68"/>
<polygon fill="black" stroke="black" points="1817.63,-2352.09 1818.1,-2341.51 1811.13,-2349.49 1817.63,-2352.09"/>
</g>
<!-- 2553 -->
<g id="node13" class="node">
<title>2553</title>
<polygon fill="none" stroke="blue" points="1616.5,-2268 468.5,-2268 468.5,-2232 1616.5,-2232 1616.5,-2268"/>
<text text-anchor="middle" x="1042.5" y="-2246.3" font-family="Times New Roman,serif" font-size="14.00">Küçük bir kızken çim fıskiyelerini çok severdim. Büyüleyiciydiler. Sıcak yaz günlerinde içlerinde gökkuşağını görebiliyordun. İçlerinde koşabilir ve vücudunun her yerinde harika bir serinlik hissedebilirdin.</text>
</g>
<!-- 2551&#45;&gt;2553 -->
<g id="edge12" class="edge">
<title>2551&#45;&gt;2553</title>
<path fill="none" stroke="black" d="M1222.24,-2307.42C1189.96,-2297.29 1145.29,-2283.26 1108.55,-2271.73"/>
<polygon fill="black" stroke="black" points="1109.96,-2268.51 1099.37,-2268.85 1107.86,-2275.19 1109.96,-2268.51"/>
</g>
<!-- 2554 -->
<g id="node14" class="node">
<title>2554</title>
<polygon fill="none" stroke="blue" points="2072.5,-2268 1634.5,-2268 1634.5,-2232 2072.5,-2232 2072.5,-2268"/>
<text text-anchor="middle" x="1853.5" y="-2246.3" font-family="Times New Roman,serif" font-size="14.00">Ayrıca çığlık atana kadar kardeşinin yüzüne tutmak için de mükemmellerdir.</text>
</g>
<!-- 2552&#45;&gt;2554 -->
<g id="edge13" class="edge">
<title>2552&#45;&gt;2554</title>
<path fill="none" stroke="black" d="M1832.42,-2303.7C1835.44,-2296.15 1839.05,-2287.12 1842.43,-2278.68"/>
<polygon fill="black" stroke="black" points="1845.63,-2280.09 1846.1,-2269.51 1839.13,-2277.49 1845.63,-2280.09"/>
</g>
<!-- 2555 -->
<g id="node15" class="node">
<title>2555</title>
<polygon fill="none" stroke="blue" points="1616.5,-2196 1278.5,-2196 1278.5,-2160 1616.5,-2160 1616.5,-2196"/>
<text text-anchor="middle" x="1447.5" y="-2174.3" font-family="Times New Roman,serif" font-size="14.00">&#39;Mutluluk bir çim fıskiyesidir.&#39; Bunu bir tebrik kartına yaz.</text>
</g>
<!-- 2553&#45;&gt;2555 -->
<g id="edge14" class="edge">
<title>2553&#45;&gt;2555</title>
<path fill="none" stroke="black" d="M1143.65,-2231.52C1201.99,-2221.43 1275.45,-2208.74 1335.53,-2198.35"/>
<polygon fill="black" stroke="black" points="1335.83,-2201.85 1345.09,-2196.7 1334.64,-2194.95 1335.83,-2201.85"/>
</g>
<!-- 2554&#45;&gt;2555 -->
<g id="edge15" class="edge">
<title>2554&#45;&gt;2555</title>
<path fill="none" stroke="black" d="M1752.1,-2231.52C1693.61,-2221.43 1619.97,-2208.74 1559.75,-2198.35"/>
<polygon fill="black" stroke="black" points="1560.61,-2194.95 1550.16,-2196.7 1559.42,-2201.85 1560.61,-2194.95"/>
</g>
<!-- 2556 -->
<g id="node16" class="node">
<title>2556</title>
<polygon fill="none" stroke="red" points="1624,-2124 1271,-2124 1271,-2088 1624,-2088 1624,-2124"/>
<text text-anchor="middle" x="1447.5" y="-2102.3" font-family="Times New Roman,serif" font-size="14.00">Bugün iyi bir ruh halinde gibisin. Bunu gördüğüme sevindim.</text>
</g>
<!-- 2555&#45;&gt;2556 -->
<g id="edge16" class="edge">
<title>2555&#45;&gt;2556</title>
<path fill="none" stroke="black" d="M1447.5,-2159.7C1447.5,-2152.41 1447.5,-2143.73 1447.5,-2135.54"/>
<polygon fill="black" stroke="black" points="1451,-2135.62 1447.5,-2125.62 1444,-2135.62 1451,-2135.62"/>
</g>
<!-- 2557 -->
<g id="node17" class="node">
<title>2557</title>
<polygon fill="none" stroke="blue" points="1816,-2052 1079,-2052 1079,-2016 1816,-2016 1816,-2052"/>
<text text-anchor="middle" x="1447.5" y="-2030.3" font-family="Times New Roman,serif" font-size="14.00">Öyleyim. Ve neden bunu kendime saklamam gerektiğini anlamıyorum. Bu yüzden tüm Alışveriş Merkezini bununla dolduruyorum.</text>
</g>
<!-- 2556&#45;&gt;2557 -->
<g id="edge17" class="edge">
<title>2556&#45;&gt;2557</title>
<path fill="none" stroke="black" d="M1447.5,-2087.7C1447.5,-2080.41 1447.5,-2071.73 1447.5,-2063.54"/>
<polygon fill="black" stroke="black" points="1451,-2063.62 1447.5,-2053.62 1444,-2063.62 1451,-2063.62"/>
</g>
<!-- 2558 -->
<g id="node18" class="node">
<title>2558</title>
<polygon fill="none" stroke="red" points="1133.5,-1980 833.5,-1980 833.5,-1944 1133.5,-1944 1133.5,-1980"/>
<text text-anchor="middle" x="983.5" y="-1958.3" font-family="Times New Roman,serif" font-size="14.00">Bu biraz da insanları uyuşturmaya benzemiyor mu?</text>
</g>
<!-- 2557&#45;&gt;2558 -->
<g id="edge18" class="edge">
<title>2557&#45;&gt;2558</title>
<path fill="none" stroke="black" d="M1331.61,-2015.52C1264.36,-2005.37 1179.56,-1992.58 1110.5,-1982.16"/>
<polygon fill="black" stroke="black" points="1111.02,-1978.7 1100.61,-1980.67 1109.98,-1985.62 1111.02,-1978.7"/>
</g>
<!-- 2559 -->
<g id="node19" class="node">
<title>2559</title>
<polygon fill="none" stroke="red" points="1711,-1980 1184,-1980 1184,-1944 1711,-1944 1711,-1980"/>
<text text-anchor="middle" x="1447.5" y="-1958.3" font-family="Times New Roman,serif" font-size="14.00">Pozitif bir ruh hali yaymak gibi mi? Neden olmasın? Müzik çalmaktan bir fark göremiyorum.</text>
</g>
<!-- 2557&#45;&gt;2559 -->
<g id="edge19" class="edge">
<title>2557&#45;&gt;2559</title>
<path fill="none" stroke="black" d="M1447.5,-2015.7C1447.5,-2008.41 1447.5,-1999.73 1447.5,-1991.54"/>
<polygon fill="black" stroke="black" points="1451,-1991.62 1447.5,-1981.62 1444,-1991.62 1451,-1991.62"/>
</g>
<!-- 2560 -->
<g id="node20" class="node">
<title>2560</title>
<polygon fill="none" stroke="red" points="2154,-1980 1807,-1980 1807,-1944 2154,-1944 2154,-1980"/>
<text text-anchor="middle" x="1980.5" y="-1958.3" font-family="Times New Roman,serif" font-size="14.00">Peki bugün Arthur&#39;un gülümsediğini görebileceğim gün mü?</text>
</g>
<!-- 2557&#45;&gt;2560 -->
<g id="edge20" class="edge">
<title>2557&#45;&gt;2560</title>
<path fill="none" stroke="black" d="M1580.62,-2015.52C1658.52,-2005.29 1756.89,-1992.37 1836.57,-1981.9"/>
<polygon fill="black" stroke="black" points="1836.73,-1985.41 1846.19,-1980.64 1835.82,-1978.47 1836.73,-1985.41"/>
</g>
<!-- 2561 -->
<g id="node21" class="node">
<title>2561</title>
<polygon fill="none" stroke="blue" points="1362,-1908 539,-1908 539,-1872 1362,-1872 1362,-1908"/>
<text text-anchor="middle" x="950.5" y="-1886.3" font-family="Times New Roman,serif" font-size="14.00">... harika. Burada neşe saçan gizli iyilik perisi olmaya çalışıyorum ve bunun yerine kötü bir uyuşturucu bağımlısı damgası yiyorum. Keyfim kaçtı.</text>
</g>
<!-- 2558&#45;&gt;2561 -->
<g id="edge21" class="edge">
<title>2558&#45;&gt;2561</title>
<path fill="none" stroke="black" d="M975.34,-1943.7C971.75,-1936.07 967.43,-1926.92 963.42,-1918.4"/>
<polygon fill="black" stroke="black" points="966.64,-1917.03 959.21,-1909.47 960.31,-1920.01 966.64,-1917.03"/>
</g>
<!-- 2562 -->
<g id="node22" class="node">
<title>2562</title>
<polygon fill="none" stroke="blue" points="1514.5,-1908 1380.5,-1908 1380.5,-1872 1514.5,-1872 1514.5,-1908"/>
<text text-anchor="middle" x="1447.5" y="-1886.3" font-family="Times New Roman,serif" font-size="14.00">Aa! Güzel benzetme!</text>
</g>
<!-- 2559&#45;&gt;2562 -->
<g id="edge22" class="edge">
<title>2559&#45;&gt;2562</title>
<path fill="none" stroke="black" d="M1447.5,-1943.7C1447.5,-1936.41 1447.5,-1927.73 1447.5,-1919.54"/>
<polygon fill="black" stroke="black" points="1451,-1919.62 1447.5,-1909.62 1444,-1919.62 1451,-1919.62"/>
</g>
<!-- 2563 -->
<g id="node23" class="node">
<title>2563</title>
<polygon fill="none" stroke="blue" points="2208,-1908 1831,-1908 1831,-1872 2208,-1872 2208,-1908"/>
<text text-anchor="middle" x="2019.5" y="-1886.3" font-family="Times New Roman,serif" font-size="14.00">Belki. Umarım görürüz. Çok fazla şeye katlanmak zorunda kaldı.</text>
</g>
<!-- 2560&#45;&gt;2563 -->
<g id="edge23" class="edge">
<title>2560&#45;&gt;2563</title>
<path fill="none" stroke="black" d="M1990.14,-1943.7C1994.44,-1935.98 1999.6,-1926.71 2004.39,-1918.11"/>
<polygon fill="black" stroke="black" points="2007.42,-1919.87 2009.23,-1909.43 2001.31,-1916.46 2007.42,-1919.87"/>
</g>
<!-- 2564 -->
<g id="node24" class="node">
<title>2564</title>
<polygon fill="none" stroke="blue" points="1008.5,-1836 892.5,-1836 892.5,-1800 1008.5,-1800 1008.5,-1836"/>
<text text-anchor="middle" x="950.5" y="-1814.3" font-family="Times New Roman,serif" font-size="14.00">Peki. Duruyorum.</text>
</g>
<!-- 2561&#45;&gt;2564 -->
<g id="edge24" class="edge">
<title>2561&#45;&gt;2564</title>
<path fill="none" stroke="black" d="M950.5,-1871.7C950.5,-1864.41 950.5,-1855.73 950.5,-1847.54"/>
<polygon fill="black" stroke="black" points="954,-1847.62 950.5,-1837.62 947,-1847.62 954,-1847.62"/>
</g>
<!-- 2566 -->
<g id="node25" class="node">
<title>2566</title>
<polygon fill="none" stroke="blue" points="1694.5,-1836 1084.5,-1836 1084.5,-1800 1694.5,-1800 1694.5,-1836"/>
<text text-anchor="middle" x="1389.5" y="-1814.3" font-family="Times New Roman,serif" font-size="14.00">Eğer Aoi müzik yoluyla ruh halini etkileyebiliyorsa, ben de titreşimler yoluyla aynısını yapabilirim, değil mi?</text>
</g>
<!-- 2562&#45;&gt;2566 -->
<g id="edge25" class="edge">
<title>2562&#45;&gt;2566</title>
<path fill="none" stroke="black" d="M1433.16,-1871.7C1426.42,-1863.56 1418.24,-1853.69 1410.8,-1844.7"/>
<polygon fill="black" stroke="black" points="1413.71,-1842.74 1404.64,-1837.27 1408.32,-1847.2 1413.71,-1842.74"/>
</g>
<!-- 2567 -->
<g id="node26" class="node">
<title>2567</title>
<polygon fill="none" stroke="blue" points="2404,-1836 1713,-1836 1713,-1800 2404,-1800 2404,-1836"/>
<text text-anchor="middle" x="2058.5" y="-1814.3" font-family="Times New Roman,serif" font-size="14.00">Sen geldiğinden beri çok şey değişti. Sadece seni ve beni kastetmiyorum. Her şeyi kastediyorum. Alışveriş merkezini bile.</text>
</g>
<!-- 2563&#45;&gt;2567 -->
<g id="edge26" class="edge">
<title>2563&#45;&gt;2567</title>
<path fill="none" stroke="black" d="M2029.14,-1871.7C2033.44,-1863.98 2038.6,-1854.71 2043.39,-1846.11"/>
<polygon fill="black" stroke="black" points="2046.42,-1847.87 2048.23,-1837.43 2040.31,-1844.46 2046.42,-1847.87"/>
</g>
<!-- 2565 -->
<g id="node27" class="node">
<title>2565</title>
<ellipse fill="none" stroke="orange" cx="950.5" cy="-1746" rx="50.09" ry="18"/>
<text text-anchor="middle" x="950.5" y="-1742.3" font-family="Times New Roman,serif" font-size="14.00">Chat ends.</text>
</g>
<!-- 2564&#45;&gt;2565 -->
<g id="edge27" class="edge">
<title>2564&#45;&gt;2565</title>
<path fill="none" stroke="black" d="M950.5,-1799.7C950.5,-1792.41 950.5,-1783.73 950.5,-1775.54"/>
<polygon fill="black" stroke="black" points="954,-1775.62 950.5,-1765.62 947,-1775.62 954,-1775.62"/>
</g>
<!-- 2568 -->
<g id="node28" class="node">
<title>2568</title>
<polygon fill="none" stroke="blue" points="1913,-1764 1534,-1764 1534,-1728 1913,-1728 1913,-1764"/>
<text text-anchor="middle" x="1723.5" y="-1742.3" font-family="Times New Roman,serif" font-size="14.00">Aoi&#39;nin beni kalmaya ikna etmesine sevindim. Tanrı onu korusun.</text>
</g>
<!-- 2566&#45;&gt;2568 -->
<g id="edge28" class="edge">
<title>2566&#45;&gt;2568</title>
<path fill="none" stroke="black" d="M1472.92,-1799.52C1520.43,-1789.56 1580.11,-1777.05 1629.3,-1766.74"/>
<polygon fill="black" stroke="black" points="1629.72,-1770.23 1638.79,-1764.75 1628.29,-1763.38 1629.72,-1770.23"/>
</g>
<!-- 2567&#45;&gt;2568 -->
<g id="edge29" class="edge">
<title>2567&#45;&gt;2568</title>
<path fill="none" stroke="black" d="M1974.83,-1799.52C1927.17,-1789.56 1867.32,-1777.05 1817.98,-1766.74"/>
<polygon fill="black" stroke="black" points="1818.96,-1763.37 1808.46,-1764.75 1817.53,-1770.22 1818.96,-1763.37"/>
</g>
<!-- 2569 -->
<g id="node29" class="node">
<title>2569</title>
<polygon fill="none" stroke="red" points="1688.5,-1692 1568.5,-1692 1568.5,-1656 1688.5,-1656 1688.5,-1692"/>
<text text-anchor="middle" x="1628.5" y="-1670.3" font-family="Times New Roman,serif" font-size="14.00">Bekle. O ne yaptı?</text>
</g>
<!-- 2568&#45;&gt;2569 -->
<g id="edge30" class="edge">
<title>2568&#45;&gt;2569</title>
<path fill="none" stroke="black" d="M1700.02,-1727.7C1688.26,-1719.03 1673.83,-1708.4 1661.02,-1698.96"/>
<polygon fill="black" stroke="black" points="1663.39,-1696.36 1653.26,-1693.24 1659.24,-1701.99 1663.39,-1696.36"/>
</g>
<!-- 2570 -->
<g id="node30" class="node">
<title>2570</title>
<polygon fill="none" stroke="red" points="1928,-1692 1707,-1692 1707,-1656 1928,-1656 1928,-1692"/>
<text text-anchor="middle" x="1817.5" y="-1670.3" font-family="Times New Roman,serif" font-size="14.00">Dur bir dakika. Bir şey mi kaçırdım?</text>
</g>
<!-- 2568&#45;&gt;2570 -->
<g id="edge31" class="edge">
<title>2568&#45;&gt;2570</title>
<path fill="none" stroke="black" d="M1746.74,-1727.7C1758.37,-1719.03 1772.65,-1708.4 1785.32,-1698.96"/>
<polygon fill="black" stroke="black" points="1787.06,-1702.03 1792.99,-1693.25 1782.88,-1696.42 1787.06,-1702.03"/>
</g>
<!-- 2571 -->
<g id="node31" class="node">
<title>2571</title>
<polygon fill="none" stroke="blue" points="1791,-1620 1654,-1620 1654,-1584 1791,-1584 1791,-1620"/>
<text text-anchor="middle" x="1722.5" y="-1598.3" font-family="Times New Roman,serif" font-size="14.00">Sana söylemedim mi?</text>
</g>
<!-- 2569&#45;&gt;2571 -->
<g id="edge32" class="edge">
<title>2569&#45;&gt;2571</title>
<path fill="none" stroke="black" d="M1651.74,-1655.7C1663.37,-1647.03 1677.65,-1636.4 1690.32,-1626.96"/>
<polygon fill="black" stroke="black" points="1692.06,-1630.03 1697.99,-1621.25 1687.88,-1624.42 1692.06,-1630.03"/>
</g>
<!-- 2570&#45;&gt;2571 -->
<g id="edge33" class="edge">
<title>2570&#45;&gt;2571</title>
<path fill="none" stroke="black" d="M1794.02,-1655.7C1782.26,-1647.03 1767.83,-1636.4 1755.02,-1626.96"/>
<polygon fill="black" stroke="black" points="1757.39,-1624.36 1747.26,-1621.24 1753.24,-1629.99 1757.39,-1624.36"/>
</g>
<!-- 2572 -->
<g id="node32" class="node">
<title>2572</title>
<polygon fill="none" stroke="blue" points="2419,-1548 1026,-1548 1026,-1512 2419,-1512 2419,-1548"/>
<text text-anchor="middle" x="1722.5" y="-1526.3" font-family="Times New Roman,serif" font-size="14.00">Ah. Bu sen gelmeden hemen önceydi. Bütün gün bir Techrot kovanını yok etmeye çalışıyorduk. Havada ölümcül bir gerginlik vardı. Verdiğimiz savaş genellikle stresimizi atar ve birbirimize saldıramayacak kadar yorgun oluruz. Ama o gün farklıydı.</text>
</g>
<!-- 2571&#45;&gt;2572 -->
<g id="edge34" class="edge">
<title>2571&#45;&gt;2572</title>
<path fill="none" stroke="black" d="M1722.5,-1583.7C1722.5,-1576.41 1722.5,-1567.73 1722.5,-1559.54"/>
<polygon fill="black" stroke="black" points="1726,-1559.62 1722.5,-1549.62 1719,-1559.62 1726,-1559.62"/>
</g>
<!-- 2573 -->
<g id="node33" class="node">
<title>2573</title>
<polygon fill="none" stroke="blue" points="2211,-1476 1234,-1476 1234,-1440 2211,-1440 2211,-1476"/>
<text text-anchor="middle" x="1722.5" y="-1454.3" font-family="Times New Roman,serif" font-size="14.00">Arthur&#39;un &quot;yarın yine aynısını yapacağız&quot; gibi bir şey söylediğini ve bunun hepimize balyoz gibi indiğini hatırlıyorum. Alışveriş merkezine dönerken kimse tek kelime etmedi.</text>
</g>
<!-- 2572&#45;&gt;2573 -->
<g id="edge35" class="edge">
<title>2572&#45;&gt;2573</title>
<path fill="none" stroke="black" d="M1722.5,-1511.7C1722.5,-1504.41 1722.5,-1495.73 1722.5,-1487.54"/>
<polygon fill="black" stroke="black" points="1726,-1487.62 1722.5,-1477.62 1719,-1487.62 1726,-1487.62"/>
</g>
<!-- 2574 -->
<g id="node34" class="node">
<title>2574</title>
<polygon fill="none" stroke="red" points="1694.5,-1332 1284.5,-1332 1284.5,-1296 1694.5,-1296 1694.5,-1332"/>
<text text-anchor="middle" x="1489.5" y="-1310.3" font-family="Times New Roman,serif" font-size="14.00">Vay canına. Bu, takımın moralini yükseltmek için harika bir yol Arthur.</text>
</g>
<!-- 2573&#45;&gt;2574 -->
<g id="edge36" class="edge">
<title>2573&#45;&gt;2574</title>
<path fill="none" stroke="black" d="M1693.93,-1439.59C1652.15,-1414.13 1574.32,-1366.69 1527.68,-1338.27"/>
<polygon fill="black" stroke="black" points="1529.59,-1335.34 1519.23,-1333.12 1525.95,-1341.31 1529.59,-1335.34"/>
</g>
<!-- 2575 -->
<g id="node35" class="node">
<title>2575</title>
<polygon fill="none" stroke="red" points="1819.5,-1260 1625.5,-1260 1625.5,-1224 1819.5,-1224 1819.5,-1260"/>
<text text-anchor="middle" x="1722.5" y="-1238.3" font-family="Times New Roman,serif" font-size="14.00">Bazen çok etkileyici olabiliyor...</text>
</g>
<!-- 2573&#45;&gt;2575 -->
<g id="edge37" class="edge">
<title>2573&#45;&gt;2575</title>
<path fill="none" stroke="black" d="M1722.5,-1439.85C1722.5,-1403.14 1722.5,-1316.66 1722.5,-1271.53"/>
<polygon fill="black" stroke="black" points="1726,-1271.75 1722.5,-1261.75 1719,-1271.75 1726,-1271.75"/>
</g>
<!-- 2576 -->
<g id="node36" class="node">
<title>2576</title>
<polygon fill="none" stroke="red" points="2152,-1404 1811,-1404 1811,-1368 2152,-1368 2152,-1404"/>
<text text-anchor="middle" x="1981.5" y="-1382.3" font-family="Times New Roman,serif" font-size="14.00">Omuzlarında ağır bir yük taşıyor. Bu da ona zarar veriyor.</text>
</g>
<!-- 2573&#45;&gt;2576 -->
<g id="edge38" class="edge">
<title>2573&#45;&gt;2576</title>
<path fill="none" stroke="black" d="M1787.19,-1439.52C1823.33,-1429.75 1868.54,-1417.53 1906.25,-1407.34"/>
<polygon fill="black" stroke="black" points="1906.99,-1410.76 1915.73,-1404.78 1905.16,-1404.01 1906.99,-1410.76"/>
</g>
<!-- 2579 -->
<g id="node37" class="node">
<title>2579</title>
<polygon fill="none" stroke="blue" points="2474.5,-1188 970.5,-1188 970.5,-1152 2474.5,-1152 2474.5,-1188"/>
<text text-anchor="middle" x="1722.5" y="-1166.3" font-family="Times New Roman,serif" font-size="14.00">Sanırım sadece işimize konsantre olmamızı istiyordu. Ama kendimi yıkılmış hissediyordum. Arthur ve Aoi tek kelime etmedi, Amir Quincy&#39;nin sinirlerini o kadar bozuyordu ki onun hayatından endişe etmeye başlamıştım ve Lettie her fırsatta bana yan gözle bakıyordu.</text>
</g>
<!-- 2574&#45;&gt;2579 -->
<g id="edge39" class="edge">
<title>2574&#45;&gt;2579</title>
<path fill="none" stroke="black" d="M1512.22,-1295.54C1537.12,-1276.77 1578.57,-1246.61 1616.5,-1224 1634.91,-1213.03 1655.88,-1202.22 1674.28,-1193.24"/>
<polygon fill="black" stroke="black" points="1675.64,-1196.47 1683.13,-1188.98 1672.6,-1190.17 1675.64,-1196.47"/>
</g>
<!-- 2575&#45;&gt;2579 -->
<g id="edge40" class="edge">
<title>2575&#45;&gt;2579</title>
<path fill="none" stroke="black" d="M1722.5,-1223.7C1722.5,-1216.41 1722.5,-1207.73 1722.5,-1199.54"/>
<polygon fill="black" stroke="black" points="1726,-1199.62 1722.5,-1189.62 1719,-1199.62 1726,-1199.62"/>
</g>
<!-- 2577 -->
<g id="node38" class="node">
<title>2577</title>
<polygon fill="none" stroke="blue" points="2334,-1332 1751,-1332 1751,-1296 2334,-1296 2334,-1332"/>
<text text-anchor="middle" x="2042.5" y="-1310.3" font-family="Times New Roman,serif" font-size="14.00">Evet. Sona yaklaştığında bile genelde bunu saklamayı başarır. Ama sanırım onun da sabrı tükenmişti.</text>
</g>
<!-- 2576&#45;&gt;2577 -->
<g id="edge41" class="edge">
<title>2576&#45;&gt;2577</title>
<path fill="none" stroke="black" d="M1996.58,-1367.7C2003.67,-1359.56 2012.27,-1349.69 2020.1,-1340.7"/>
<polygon fill="black" stroke="black" points="2022.67,-1343.08 2026.6,-1333.25 2017.39,-1338.49 2022.67,-1343.08"/>
</g>
<!-- 2580 -->
<g id="node39" class="node">
<title>2580</title>
<polygon fill="none" stroke="blue" points="2275.5,-1116 1169.5,-1116 1169.5,-1080 2275.5,-1080 2275.5,-1116"/>
<text text-anchor="middle" x="1722.5" y="-1094.3" font-family="Times New Roman,serif" font-size="14.00">O gün aynaya bakarak çok zaman geçirdim. Yansımamın beni boynumdan yakaladığını ve &#39;Sorun SENSİN. Eğer sen olmasaydın, bunların hiçbiri olmayacaktı.&#39; diye tısladığını hayal edip durdum.</text>
</g>
<!-- 2579&#45;&gt;2580 -->
<g id="edge42" class="edge">
<title>2579&#45;&gt;2580</title>
<path fill="none" stroke="black" d="M1722.5,-1151.7C1722.5,-1144.41 1722.5,-1135.73 1722.5,-1127.54"/>
<polygon fill="black" stroke="black" points="1726,-1127.62 1722.5,-1117.62 1719,-1127.62 1726,-1127.62"/>
</g>
<!-- 2578 -->
<g id="node40" class="node">
<title>2578</title>
<polygon fill="none" stroke="blue" points="2179.5,-1260 1859.5,-1260 1859.5,-1224 2179.5,-1224 2179.5,-1260"/>
<text text-anchor="middle" x="2019.5" y="-1238.3" font-family="Times New Roman,serif" font-size="14.00">Takımı bir arada tutmaya çalışırken kendini tüketmişti.</text>
</g>
<!-- 2577&#45;&gt;2578 -->
<g id="edge43" class="edge">
<title>2577&#45;&gt;2578</title>
<path fill="none" stroke="black" d="M2036.81,-1295.7C2034.36,-1288.24 2031.43,-1279.32 2028.69,-1270.97"/>
<polygon fill="black" stroke="black" points="2032.04,-1269.95 2025.59,-1261.54 2025.39,-1272.14 2032.04,-1269.95"/>
</g>
<!-- 2581 -->
<g id="node41" class="node">
<title>2581</title>
<polygon fill="none" stroke="red" points="1761.5,-1044 1281.5,-1044 1281.5,-1008 1761.5,-1008 1761.5,-1044"/>
<text text-anchor="middle" x="1521.5" y="-1022.3" font-family="Times New Roman,serif" font-size="14.00">Görünüşe göre diğer herkes bir değişiklik olsun diye SENİN kafana musallat olmuş.</text>
</g>
<!-- 2580&#45;&gt;2581 -->
<g id="edge44" class="edge">
<title>2580&#45;&gt;2581</title>
<path fill="none" stroke="black" d="M1672.3,-1079.52C1644.97,-1070 1610.97,-1058.16 1582.17,-1048.13"/>
<polygon fill="black" stroke="black" points="1583.43,-1044.86 1572.84,-1044.88 1581.13,-1051.47 1583.43,-1044.86"/>
</g>
<!-- 2582 -->
<g id="node42" class="node">
<title>2582</title>
<polygon fill="none" stroke="red" points="2125.5,-1044 1837.5,-1044 1837.5,-1008 2125.5,-1008 2125.5,-1044"/>
<text text-anchor="middle" x="1981.5" y="-1022.3" font-family="Times New Roman,serif" font-size="14.00">Bunlar Lettie&#39;nin söylediği saçmalıklara benziyor.</text>
</g>
<!-- 2580&#45;&gt;2582 -->
<g id="edge45" class="edge">
<title>2580&#45;&gt;2582</title>
<path fill="none" stroke="black" d="M1787.19,-1079.52C1823.33,-1069.75 1868.54,-1057.53 1906.25,-1047.34"/>
<polygon fill="black" stroke="black" points="1906.99,-1050.76 1915.73,-1044.78 1905.16,-1044.01 1906.99,-1050.76"/>
</g>
<!-- 2578&#45;&gt;2579 -->
<g id="edge46" class="edge">
<title>2578&#45;&gt;2579</title>
<path fill="none" stroke="black" d="M1945.32,-1223.52C1903.51,-1213.66 1851.12,-1201.31 1807.64,-1191.07"/>
<polygon fill="black" stroke="black" points="1808.51,-1187.68 1797.98,-1188.79 1806.91,-1194.49 1808.51,-1187.68"/>
</g>
<!-- 2583 -->
<g id="node43" class="node">
<title>2583</title>
<polygon fill="none" stroke="blue" points="1774.5,-972 1034.5,-972 1034.5,-936 1774.5,-936 1774.5,-972"/>
<text text-anchor="middle" x="1404.5" y="-950.3" font-family="Times New Roman,serif" font-size="14.00">Ah, bunu yapan onlar değildi. Bendim. O güne kadar içimde bastırdığım şüphelerim ve kendinden nefret duygusu ortaya çıkmıştı.</text>
</g>
<!-- 2581&#45;&gt;2583 -->
<g id="edge47" class="edge">
<title>2581&#45;&gt;2583</title>
<path fill="none" stroke="black" d="M1492.28,-1007.52C1477.37,-998.6 1459.04,-987.63 1442.99,-978.03"/>
<polygon fill="black" stroke="black" points="1445.03,-975.17 1434.65,-973.04 1441.43,-981.18 1445.03,-975.17"/>
</g>
<!-- 2584 -->
<g id="node44" class="node">
<title>2584</title>
<polygon fill="none" stroke="blue" points="2288.5,-972 1792.5,-972 1792.5,-936 2288.5,-936 2288.5,-972"/>
<text text-anchor="middle" x="2040.5" y="-950.3" font-family="Times New Roman,serif" font-size="14.00">Teşekkür ederim. Arkamda olduğunu biliyorum ve bu benim için çok şey ifade ediyor.</text>
</g>
<!-- 2582&#45;&gt;2584 -->
<g id="edge48" class="edge">
<title>2582&#45;&gt;2584</title>
<path fill="none" stroke="black" d="M1996.08,-1007.7C2002.94,-999.56 2011.26,-989.69 2018.84,-980.7"/>
<polygon fill="black" stroke="black" points="2021.34,-983.16 2025.11,-973.26 2015.99,-978.65 2021.34,-983.16"/>
</g>
<!-- 2585 -->
<g id="node45" class="node">
<title>2585</title>
<polygon fill="none" stroke="blue" points="1665.5,-900 1265.5,-900 1265.5,-864 1665.5,-864 1665.5,-900"/>
<text text-anchor="middle" x="1465.5" y="-878.3" font-family="Times New Roman,serif" font-size="14.00">Kendi kendime düşündüm: Bu grubun bir günah keçisine ihtiyacı var.</text>
</g>
<!-- 2583&#45;&gt;2585 -->
<g id="edge49" class="edge">
<title>2583&#45;&gt;2585</title>
<path fill="none" stroke="black" d="M1419.58,-935.7C1426.67,-927.56 1435.27,-917.69 1443.1,-908.7"/>
<polygon fill="black" stroke="black" points="1445.67,-911.08 1449.6,-901.25 1440.39,-906.49 1445.67,-911.08"/>
</g>
<!-- 2586 -->
<g id="node46" class="node">
<title>2586</title>
<polygon fill="none" stroke="blue" points="2436,-828 1613,-828 1613,-792 2436,-792 2436,-828"/>
<text text-anchor="middle" x="2024.5" y="-806.3" font-family="Times New Roman,serif" font-size="14.00">Lettie&#39;den o cümleyi o kadar çok duymuştum ki, kendi kendime şöyle düşündüm: belki de haklıdır. Burada kalarak herkesi tehlikeye atıyorumdur.</text>
</g>
<!-- 2584&#45;&gt;2586 -->
<g id="edge50" class="edge">
<title>2584&#45;&gt;2586</title>
<path fill="none" stroke="black" d="M2038.54,-935.59C2035.84,-911.61 2030.94,-868.14 2027.7,-839.42"/>
<polygon fill="black" stroke="black" points="2031.2,-839.16 2026.6,-829.61 2024.24,-839.94 2031.2,-839.16"/>
</g>
<!-- 2587 -->
<g id="node47" class="node">
<title>2587</title>
<polygon fill="none" stroke="blue" points="1579.5,-828 1411.5,-828 1411.5,-792 1579.5,-792 1579.5,-828"/>
<text text-anchor="middle" x="1495.5" y="-806.3" font-family="Times New Roman,serif" font-size="14.00">Suçlanabilecek bir canavar.</text>
</g>
<!-- 2585&#45;&gt;2587 -->
<g id="edge51" class="edge">
<title>2585&#45;&gt;2587</title>
<path fill="none" stroke="black" d="M1472.92,-863.7C1476.15,-856.15 1480.02,-847.12 1483.64,-838.68"/>
<polygon fill="black" stroke="black" points="1486.85,-840.07 1487.57,-829.5 1480.42,-837.31 1486.85,-840.07"/>
</g>
<!-- 2588 -->
<g id="node48" class="node">
<title>2588</title>
<polygon fill="none" stroke="blue" points="2340,-756 1165,-756 1165,-720 2340,-720 2340,-756"/>
<text text-anchor="middle" x="1752.5" y="-734.3" font-family="Times New Roman,serif" font-size="14.00">Aklıma bir plan geldi. Gecenin bir vakti kaçıp Arthur&#39;un beni asla bulamayacağı bir yerde, şehrin içinde saklanacaktım ve &#45;en gurur duyduğum kısım da burası&#45; onlara uzaktan yardım etmeye devam edecektim.</text>
</g>
<!-- 2586&#45;&gt;2588 -->
<g id="edge52" class="edge">
<title>2586&#45;&gt;2588</title>
<path fill="none" stroke="black" d="M1956.56,-791.52C1918.45,-781.71 1870.72,-769.43 1831.01,-759.21"/>
<polygon fill="black" stroke="black" points="1832.06,-755.86 1821.51,-756.76 1830.32,-762.64 1832.06,-755.86"/>
</g>
<!-- 2587&#45;&gt;2588 -->
<g id="edge53" class="edge">
<title>2587&#45;&gt;2588</title>
<path fill="none" stroke="black" d="M1559.69,-791.52C1595.55,-781.75 1640.41,-769.53 1677.83,-759.34"/>
<polygon fill="black" stroke="black" points="1678.5,-762.78 1687.22,-756.78 1676.66,-756.03 1678.5,-762.78"/>
</g>
<!-- 2589 -->
<g id="node49" class="node">
<title>2589</title>
<polygon fill="none" stroke="red" points="1711.5,-684 1479.5,-684 1479.5,-648 1711.5,-648 1711.5,-684"/>
<text text-anchor="middle" x="1595.5" y="-662.3" font-family="Times New Roman,serif" font-size="14.00">Bence seni bulurdu. O oldukça kararlı.</text>
</g>
<!-- 2588&#45;&gt;2589 -->
<g id="edge54" class="edge">
<title>2588&#45;&gt;2589</title>
<path fill="none" stroke="black" d="M1713.29,-719.52C1692.6,-710.29 1667.02,-698.89 1644.98,-689.06"/>
<polygon fill="black" stroke="black" points="1646.43,-685.87 1635.87,-685 1643.58,-692.27 1646.43,-685.87"/>
</g>
<!-- 2590 -->
<g id="node50" class="node">
<title>2590</title>
<polygon fill="none" stroke="red" points="2194,-684 1835,-684 1835,-648 2194,-648 2194,-684"/>
<text text-anchor="middle" x="2014.5" y="-662.3" font-family="Times New Roman,serif" font-size="14.00">Seni bulmaya çalışırken ölmesi daha olası bir senaryo olurdu.</text>
</g>
<!-- 2588&#45;&gt;2590 -->
<g id="edge55" class="edge">
<title>2588&#45;&gt;2590</title>
<path fill="none" stroke="black" d="M1817.94,-719.52C1854.49,-709.75 1900.23,-697.53 1938.38,-687.34"/>
<polygon fill="black" stroke="black" points="1939.22,-690.74 1947.98,-684.77 1937.42,-683.97 1939.22,-690.74"/>
</g>
<!-- 2591 -->
<g id="node51" class="node">
<title>2591</title>
<polygon fill="none" stroke="blue" points="1282.5,-612 1066.5,-612 1066.5,-576 1282.5,-576 1282.5,-612"/>
<text text-anchor="middle" x="1174.5" y="-590.3" font-family="Times New Roman,serif" font-size="14.00">Nasıl? Amir telepatiyi takip edemez.</text>
</g>
<!-- 2589&#45;&gt;2591 -->
<g id="edge56" class="edge">
<title>2589&#45;&gt;2591</title>
<path fill="none" stroke="black" d="M1490.35,-647.52C1429.58,-637.41 1353.03,-624.68 1290.51,-614.29"/>
<polygon fill="black" stroke="black" points="1291.34,-610.88 1280.9,-612.69 1290.19,-617.78 1291.34,-610.88"/>
</g>
<!-- 2592 -->
<g id="node52" class="node">
<title>2592</title>
<polygon fill="none" stroke="blue" points="2190.5,-612 1944.5,-612 1944.5,-576 2190.5,-576 2190.5,-612"/>
<text text-anchor="middle" x="2067.5" y="-590.3" font-family="Times New Roman,serif" font-size="14.00">Beni suçlu hissettirmeye mi çalışıyorsun?</text>
</g>
<!-- 2590&#45;&gt;2592 -->
<g id="edge57" class="edge">
<title>2590&#45;&gt;2592</title>
<path fill="none" stroke="black" d="M2027.6,-647.7C2033.63,-639.73 2040.92,-630.1 2047.61,-621.26"/>
<polygon fill="black" stroke="black" points="2050.39,-623.4 2053.64,-613.31 2044.81,-619.17 2050.39,-623.4"/>
</g>
<!-- 2593 -->
<g id="node53" class="node">
<title>2593</title>
<polygon fill="none" stroke="blue" points="1929,-540 0,-540 0,-504 1929,-504 1929,-540"/>
<text text-anchor="middle" x="964.5" y="-518.3" font-family="Times New Roman,serif" font-size="14.00">Asil bir sürgün istedim. Çatıların üzerinde, rüzgarın esintisinde kararlı görünecektim. Techrot&#39;un yayılması hakkında rapor verebilir, Hex&#39;e Scaldra&#39;nın nerede barikat kurduğunu söyleyebilir ve hatta acil durum iletişim görevi üstlenebilirdim. Lettie&#39;nin kıçını kurtardığım her seferde, bunu ona gerçekten hissettirebilirdim. Kindar olabilir, ama değer.</text>
</g>
<!-- 2591&#45;&gt;2593 -->
<g id="edge58" class="edge">
<title>2591&#45;&gt;2593</title>
<path fill="none" stroke="black" d="M1122.05,-575.52C1093.38,-565.96 1057.66,-554.05 1027.49,-544"/>
<polygon fill="black" stroke="black" points="1028.67,-540.7 1018.08,-540.86 1026.46,-547.34 1028.67,-540.7"/>
</g>
<!-- 2594 -->
<g id="node54" class="node">
<title>2594</title>
<polygon fill="none" stroke="blue" points="2294,-540 1947,-540 1947,-504 2294,-504 2294,-540"/>
<text text-anchor="middle" x="2120.5" y="-518.3" font-family="Times New Roman,serif" font-size="14.00">Zahmet etme. Zaten kendimi yeterince berbat hissediyorum.</text>
</g>
<!-- 2592&#45;&gt;2594 -->
<g id="edge59" class="edge">
<title>2592&#45;&gt;2594</title>
<path fill="none" stroke="black" d="M2080.6,-575.7C2086.63,-567.73 2093.92,-558.1 2100.61,-549.26"/>
<polygon fill="black" stroke="black" points="2103.39,-551.4 2106.64,-541.31 2097.81,-547.17 2103.39,-551.4"/>
</g>
<!-- 2595 -->
<g id="node55" class="node">
<title>2595</title>
<polygon fill="none" stroke="blue" points="1321.5,-468 607.5,-468 607.5,-432 1321.5,-432 1321.5,-468"/>
<text text-anchor="middle" x="964.5" y="-446.3" font-family="Times New Roman,serif" font-size="14.00">Doğru anı seçtim. Amir uyuyana kadar bekledim. Sonra uzun bir palto giydim ve olabildiğince sessiz bir şekilde garaja girdim.</text>
</g>
<!-- 2593&#45;&gt;2595 -->
<g id="edge60" class="edge">
<title>2593&#45;&gt;2595</title>
<path fill="none" stroke="black" d="M964.5,-503.7C964.5,-496.41 964.5,-487.73 964.5,-479.54"/>
<polygon fill="black" stroke="black" points="968,-479.62 964.5,-469.62 961,-479.62 968,-479.62"/>
</g>
<!-- 2598 -->
<g id="node56" class="node">
<title>2598</title>
<ellipse fill="none" stroke="orange" cx="2120.5" cy="-450" rx="50.09" ry="18"/>
<text text-anchor="middle" x="2120.5" y="-446.3" font-family="Times New Roman,serif" font-size="14.00">Chat ends.</text>
</g>
<!-- 2594&#45;&gt;2598 -->
<g id="edge61" class="edge">
<title>2594&#45;&gt;2598</title>
<path fill="none" stroke="black" d="M2120.5,-503.7C2120.5,-496.41 2120.5,-487.73 2120.5,-479.54"/>
<polygon fill="black" stroke="black" points="2124,-479.62 2120.5,-469.62 2117,-479.62 2124,-479.62"/>
</g>
<!-- 2596 -->
<g id="node57" class="node">
<title>2596</title>
<polygon fill="none" stroke="blue" points="1175.5,-396 753.5,-396 753.5,-360 1175.5,-360 1175.5,-396"/>
<text text-anchor="middle" x="964.5" y="-374.3" font-family="Times New Roman,serif" font-size="14.00">Güvenlik kapısı kendiliğinden açıldı. Arkamı döndüm ve Aoi&#39;yi gördüm.</text>
</g>
<!-- 2595&#45;&gt;2596 -->
<g id="edge62" class="edge">
<title>2595&#45;&gt;2596</title>
<path fill="none" stroke="black" d="M964.5,-431.7C964.5,-424.41 964.5,-415.73 964.5,-407.54"/>
<polygon fill="black" stroke="black" points="968,-407.62 964.5,-397.62 961,-407.62 968,-407.62"/>
</g>
<!-- 2597 -->
<g id="node58" class="node">
<title>2597</title>
<polygon fill="none" stroke="blue" points="1335.5,-324 593.5,-324 593.5,-288 1335.5,-288 1335.5,-324"/>
<text text-anchor="middle" x="964.5" y="-302.3" font-family="Times New Roman,serif" font-size="14.00">Bütün gece konuştuk ve birbirimizin kollarında ağladık. O da oldukça acı çekiyordu. Güneş doğduğunda kalmaya karar vermiştim.</text>
</g>
<!-- 2596&#45;&gt;2597 -->
<g id="edge63" class="edge">
<title>2596&#45;&gt;2597</title>
<path fill="none" stroke="black" d="M964.5,-359.7C964.5,-352.41 964.5,-343.73 964.5,-335.54"/>
<polygon fill="black" stroke="black" points="968,-335.62 964.5,-325.62 961,-335.62 968,-335.62"/>
</g>
<!-- 2599 -->
<g id="node59" class="node">
<title>2599</title>
<polygon fill="none" stroke="red" points="792,-252 549,-252 549,-216 792,-216 792,-252"/>
<text text-anchor="middle" x="670.5" y="-230.3" font-family="Times New Roman,serif" font-size="14.00">Fikrini değiştirmek için hala zamanın var.</text>
</g>
<!-- 2597&#45;&gt;2599 -->
<g id="edge64" class="edge">
<title>2597&#45;&gt;2599</title>
<path fill="none" stroke="black" d="M891.07,-287.52C849.69,-277.66 797.82,-265.31 754.78,-255.07"/>
<polygon fill="black" stroke="black" points="755.77,-251.7 745.23,-252.79 754.15,-258.51 755.77,-251.7"/>
</g>
<!-- 2600 -->
<g id="node60" class="node">
<title>2600</title>
<polygon fill="none" stroke="red" points="1119,-252 810,-252 810,-216 1119,-216 1119,-252"/>
<text text-anchor="middle" x="964.5" y="-230.3" font-family="Times New Roman,serif" font-size="14.00">Aoi harika biri. Senin yanında olduğu için mutluyum.</text>
</g>
<!-- 2597&#45;&gt;2600 -->
<g id="edge65" class="edge">
<title>2597&#45;&gt;2600</title>
<path fill="none" stroke="black" d="M964.5,-287.7C964.5,-280.41 964.5,-271.73 964.5,-263.54"/>
<polygon fill="black" stroke="black" points="968,-263.62 964.5,-253.62 961,-263.62 968,-263.62"/>
</g>
<!-- 2601 -->
<g id="node61" class="node">
<title>2601</title>
<polygon fill="none" stroke="red" points="1237.5,-252 1137.5,-252 1137.5,-216 1237.5,-216 1237.5,-252"/>
<text text-anchor="middle" x="1187.5" y="-230.3" font-family="Times New Roman,serif" font-size="14.00">Şanslıymışsın.</text>
</g>
<!-- 2597&#45;&gt;2601 -->
<g id="edge66" class="edge">
<title>2597&#45;&gt;2601</title>
<path fill="none" stroke="black" d="M1020.2,-287.52C1052.42,-277.4 1093.02,-264.66 1126.15,-254.26"/>
<polygon fill="black" stroke="black" points="1127.14,-257.62 1135.63,-251.28 1125.05,-250.94 1127.14,-257.62"/>
</g>
<!-- 2602 -->
<g id="node62" class="node">
<title>2602</title>
<polygon fill="none" stroke="blue" points="914.5,-180 426.5,-180 426.5,-144 914.5,-144 914.5,-180"/>
<text text-anchor="middle" x="670.5" y="-158.3" font-family="Times New Roman,serif" font-size="14.00">Seni bunu yazmaya iten tuhaf dürtü ne olursa olsun, umarım onun içinde boğulursun.</text>
</g>
<!-- 2599&#45;&gt;2602 -->
<g id="edge67" class="edge">
<title>2599&#45;&gt;2602</title>
<path fill="none" stroke="black" d="M670.5,-215.7C670.5,-208.41 670.5,-199.73 670.5,-191.54"/>
<polygon fill="black" stroke="black" points="674,-191.62 670.5,-181.62 667,-191.62 674,-191.62"/>
</g>
<!-- 2604 -->
<g id="node63" class="node">
<title>2604</title>
<ellipse fill="none" stroke="orange" cx="1139.5" cy="-162" rx="64.19" ry="18"/>
<text text-anchor="middle" x="1139.5" y="-158.3" font-family="Times New Roman,serif" font-size="14.00">+20 Chemistry</text>
</g>
<!-- 2600&#45;&gt;2604 -->
<g id="edge68" class="edge">
<title>2600&#45;&gt;2604</title>
<path fill="none" stroke="black" d="M1008.21,-215.52C1034.1,-205.16 1066.89,-192.05 1093.22,-181.51"/>
<polygon fill="black" stroke="black" points="1094.31,-184.85 1102.29,-177.88 1091.71,-178.35 1094.31,-184.85"/>
</g>
<!-- 2601&#45;&gt;2604 -->
<g id="edge69" class="edge">
<title>2601&#45;&gt;2604</title>
<path fill="none" stroke="black" d="M1175.63,-215.7C1170.23,-207.81 1163.71,-198.3 1157.7,-189.55"/>
<polygon fill="black" stroke="black" points="1160.63,-187.62 1152.08,-181.35 1154.85,-191.58 1160.63,-187.62"/>
</g>
<!-- 2603 -->
<g id="node64" class="node">
<title>2603</title>
<ellipse fill="none" stroke="orange" cx="670.5" cy="-90" rx="50.09" ry="18"/>
<text text-anchor="middle" x="670.5" y="-86.3" font-family="Times New Roman,serif" font-size="14.00">Chat ends.</text>
</g>
<!-- 2602&#45;&gt;2603 -->
<g id="edge70" class="edge">
<title>2602&#45;&gt;2603</title>
<path fill="none" stroke="black" d="M670.5,-143.7C670.5,-136.41 670.5,-127.73 670.5,-119.54"/>
<polygon fill="black" stroke="black" points="674,-119.62 670.5,-109.62 667,-119.62 674,-119.62"/>
</g>
<!-- 2605 -->
<g id="node65" class="node">
<title>2605</title>
<polygon fill="none" stroke="blue" points="1493,-108 786,-108 786,-72 1493,-72 1493,-108"/>
<text text-anchor="middle" x="1139.5" y="-86.3" font-family="Times New Roman,serif" font-size="14.00">Evet. Sanırım altımızın da yılbaşı gecesi burada olması gerekiyordu. Ve tabii ki senin de. Kapıdaki iyi şans getiren yabancı.</text>
</g>
<!-- 2604&#45;&gt;2605 -->
<g id="edge71" class="edge">
<title>2604&#45;&gt;2605</title>
<path fill="none" stroke="black" d="M1139.5,-143.7C1139.5,-136.41 1139.5,-127.73 1139.5,-119.54"/>
<polygon fill="black" stroke="black" points="1143,-119.62 1139.5,-109.62 1136,-119.62 1143,-119.62"/>
</g>
<!-- 2606 -->
<g id="node66" class="node">
<title>2606</title>
<ellipse fill="none" stroke="orange" cx="1139.5" cy="-18" rx="50.09" ry="18"/>
<text text-anchor="middle" x="1139.5" y="-14.3" font-family="Times New Roman,serif" font-size="14.00">Chat ends.</text>
</g>
<!-- 2605&#45;&gt;2606 -->
<g id="edge72" class="edge">
<title>2605&#45;&gt;2606</title>
<path fill="none" stroke="black" d="M1139.5,-71.7C1139.5,-64.41 1139.5,-55.73 1139.5,-47.54"/>
<polygon fill="black" stroke="black" points="1143,-47.62 1139.5,-37.62 1136,-47.62 1143,-47.62"/>
</g>
</g>
</svg>
