<?xml version="1.0" encoding="UTF-8" standalone="no"?>
<!DOCTYPE svg PUBLIC "-//W3C//DTD SVG 1.1//EN"
 "http://www.w3.org/Graphics/SVG/1.1/DTD/svg11.dtd">
<!-- Generated by graphviz version 7.1.0 (20230121.1956)
 -->
<!-- Pages: 1 -->
<svg width="916pt" height="332pt"
 viewBox="0.00 0.00 915.50 332.00" xmlns="http://www.w3.org/2000/svg" xmlns:xlink="http://www.w3.org/1999/xlink">
<g id="graph0" class="graph" transform="scale(1 1) rotate(0) translate(4 328)">
<polygon fill="white" stroke="none" points="-4,4 -4,-328 911.5,-328 911.5,4 -4,4"/>
<!-- EleanorBirthdayConvo2 begins. -->
<g id="node1" class="node">
<title>EleanorBirthdayConvo2 begins.</title>
<ellipse fill="none" stroke="orange" cx="560" cy="-306" rx="126.18" ry="18"/>
<text text-anchor="middle" x="560" y="-302.3" font-family="Times New Roman,serif" font-size="14.00">EleanorBirthdayConvo2 begins.</text>
</g>
<!-- j3526520627 -->
<g id="node2" class="node">
<title>j3526520627</title>
<polygon fill="none" stroke="red" points="527,-252 277,-252 277,-216 527,-216 527,-252"/>
<text text-anchor="middle" x="402" y="-230.3" font-family="Times New Roman,serif" font-size="14.00">Bir yıl daha hayatta kaldığın için tebrikler!</text>
</g>
<!-- EleanorBirthdayConvo2 begins.&#45;&gt;j3526520627 -->
<g id="edge1" class="edge">
<title>EleanorBirthdayConvo2 begins.&#45;&gt;j3526520627</title>
<path fill="none" stroke="black" d="M522.56,-288.41C501.35,-279.01 474.55,-267.14 451.61,-256.98"/>
<polygon fill="black" stroke="black" points="453.32,-253.91 442.76,-253.06 450.49,-260.31 453.32,-253.91"/>
</g>
<!-- j2812729888 -->
<g id="node3" class="node">
<title>j2812729888</title>
<polygon fill="none" stroke="red" points="907.5,-252 562.5,-252 562.5,-216 907.5,-216 907.5,-252"/>
<text text-anchor="middle" x="735" y="-230.3" font-family="Times New Roman,serif" font-size="14.00">İyi ki doğdun Eleanor. Hala burada olduğun için mutluyum.</text>
</g>
<!-- EleanorBirthdayConvo2 begins.&#45;&gt;j2812729888 -->
<g id="edge2" class="edge">
<title>EleanorBirthdayConvo2 begins.&#45;&gt;j2812729888</title>
<path fill="none" stroke="black" d="M601.03,-288.59C624.91,-279.03 655.31,-266.88 681.1,-256.56"/>
<polygon fill="black" stroke="black" points="682.09,-259.93 690.07,-252.97 679.49,-253.44 682.09,-259.93"/>
</g>
<!-- j2617299893 -->
<g id="node4" class="node">
<title>j2617299893</title>
<polygon fill="none" stroke="blue" points="600,-108 0,-108 0,-72 600,-72 600,-108"/>
<text text-anchor="middle" x="300" y="-86.3" font-family="Times New Roman,serif" font-size="14.00">Kontrol bile etmedin. Şanslısın ki gerçekten hâlâ hayattayım. Çünkü bu oldukça garip olabilirdi, değil mi?</text>
</g>
<!-- j3526520627&#45;&gt;j2617299893 -->
<g id="edge3" class="edge">
<title>j3526520627&#45;&gt;j2617299893</title>
<path fill="none" stroke="black" d="M389.49,-215.59C371.81,-190.97 339.36,-145.8 318.78,-117.14"/>
<polygon fill="black" stroke="black" points="321.85,-115.42 313.17,-109.34 316.17,-119.5 321.85,-115.42"/>
</g>
<!-- j1801974329 -->
<g id="node5" class="node">
<title>j1801974329</title>
<ellipse fill="none" stroke="orange" cx="743" cy="-162" rx="64.19" ry="18"/>
<text text-anchor="middle" x="743" y="-158.3" font-family="Times New Roman,serif" font-size="14.00">+20 Chemistry</text>
</g>
<!-- j2812729888&#45;&gt;j1801974329 -->
<g id="edge4" class="edge">
<title>j2812729888&#45;&gt;j1801974329</title>
<path fill="none" stroke="black" d="M736.98,-215.7C737.81,-208.41 738.8,-199.73 739.74,-191.54"/>
<polygon fill="black" stroke="black" points="743.22,-191.94 740.87,-181.61 736.26,-191.15 743.22,-191.94"/>
</g>
<!-- Chat ends. -->
<g id="node6" class="node">
<title>Chat ends.</title>
<ellipse fill="none" stroke="orange" cx="526" cy="-18" rx="50.09" ry="18"/>
<text text-anchor="middle" x="526" y="-14.3" font-family="Times New Roman,serif" font-size="14.00">Chat ends.</text>
</g>
<!-- j2617299893&#45;&gt;Chat ends. -->
<g id="edge5" class="edge">
<title>j2617299893&#45;&gt;Chat ends.</title>
<path fill="none" stroke="black" d="M356.45,-71.52C394.01,-59.88 442.8,-44.77 478.39,-33.75"/>
<polygon fill="black" stroke="black" points="479.02,-37.21 487.54,-30.91 476.95,-30.53 479.02,-37.21"/>
</g>
<!-- j3149291531 -->
<g id="node7" class="node">
<title>j3149291531</title>
<polygon fill="none" stroke="blue" points="886,-108 618,-108 618,-72 886,-72 886,-108"/>
<text text-anchor="middle" x="752" y="-86.3" font-family="Times New Roman,serif" font-size="14.00">Teşekkür ederim sevgili Gezgin. Ben de öyle.</text>
</g>
<!-- j1801974329&#45;&gt;j3149291531 -->
<g id="edge6" class="edge">
<title>j1801974329&#45;&gt;j3149291531</title>
<path fill="none" stroke="black" d="M745.22,-143.7C746.17,-136.32 747.3,-127.52 748.37,-119.25"/>
<polygon fill="black" stroke="black" points="751.8,-119.97 749.61,-109.61 744.86,-119.08 751.8,-119.97"/>
</g>
<!-- j3149291531&#45;&gt;Chat ends. -->
<g id="edge7" class="edge">
<title>j3149291531&#45;&gt;Chat ends.</title>
<path fill="none" stroke="black" d="M695.55,-71.52C657.99,-59.88 609.2,-44.77 573.61,-33.75"/>
<polygon fill="black" stroke="black" points="575.05,-30.53 564.46,-30.91 572.98,-37.21 575.05,-30.53"/>
</g>
</g>
</svg>
