<?xml version="1.0" encoding="UTF-8" standalone="no"?>
<!DOCTYPE svg PUBLIC "-//W3C//DTD SVG 1.1//EN"
 "http://www.w3.org/Graphics/SVG/1.1/DTD/svg11.dtd">
<!-- Generated by graphviz version 7.1.0 (20230121.1956)
 -->
<!-- Pages: 1 -->
<svg width="2853pt" height="1660pt"
 viewBox="0.00 0.00 2852.50 1660.00" xmlns="http://www.w3.org/2000/svg" xmlns:xlink="http://www.w3.org/1999/xlink">
<g id="graph0" class="graph" transform="scale(1 1) rotate(0) translate(4 1656)">
<polygon fill="white" stroke="none" points="-4,4 -4,-1656 2848.5,-1656 2848.5,4 -4,4"/>
<!-- HexRankUpTo1 begins. -->
<g id="node1" class="node">
<title>HexRankUpTo1 begins.</title>
<ellipse fill="none" stroke="orange" cx="1403" cy="-1634" rx="98.58" ry="18"/>
<text text-anchor="middle" x="1403" y="-1630.3" font-family="Times New Roman,serif" font-size="14.00">HexRankUpTo1 begins.</text>
</g>
<!-- j2794305056 -->
<g id="node2" class="node">
<title>j2794305056</title>
<polygon fill="none" stroke="blue" points="2315.5,-1580 490.5,-1580 490.5,-1544 2315.5,-1544 2315.5,-1580"/>
<text text-anchor="middle" x="1403" y="-1558.3" font-family="Times New Roman,serif" font-size="14.00">Broadsword: เราติดอยู่ที่นี่ เข้าใจไหม ทำความสะอาดหลังจากใช้งานเสร็จด้วย ศูนย์อาหารสกปรกกว่าถนนอีก ที่นี่ไม่ใช่สวนสัตว์นะโว้ย</text>
</g>
<!-- HexRankUpTo1 begins.&#45;&gt;j2794305056 -->
<g id="edge1" class="edge">
<title>HexRankUpTo1 begins.&#45;&gt;j2794305056</title>
<path fill="none" stroke="black" d="M1403,-1615.7C1403,-1608.41 1403,-1599.73 1403,-1591.54"/>
<polygon fill="black" stroke="black" points="1406.5,-1591.62 1403,-1581.62 1399.5,-1591.62 1406.5,-1591.62"/>
</g>
<!-- j652974014 -->
<g id="node3" class="node">
<title>j652974014</title>
<polygon fill="none" stroke="blue" points="1608.5,-1508 1197.5,-1508 1197.5,-1472 1608.5,-1472 1608.5,-1508"/>
<text text-anchor="middle" x="1403" y="-1486.3" font-family="Times New Roman,serif" font-size="14.00">Salem: Lettie อาจมองเห็นว่ามันเป็น&#45;</text>
</g>
<!-- j2794305056&#45;&gt;j652974014 -->
<g id="edge2" class="edge">
<title>j2794305056&#45;&gt;j652974014</title>
<path fill="none" stroke="black" d="M1403,-1543.7C1403,-1536.41 1403,-1527.73 1403,-1519.54"/>
<polygon fill="black" stroke="black" points="1406.5,-1519.62 1403,-1509.62 1399.5,-1519.62 1406.5,-1519.62"/>
</g>
<!-- j1630447126 -->
<g id="node4" class="node">
<title>j1630447126</title>
<polygon fill="none" stroke="blue" points="1508,-1436 1298,-1436 1298,-1400 1508,-1400 1508,-1436"/>
<text text-anchor="middle" x="1403" y="-1414.3" font-family="Times New Roman,serif" font-size="14.00">Belladonna ~{@: พอแล้ว</text>
</g>
<!-- j652974014&#45;&gt;j1630447126 -->
<g id="edge3" class="edge">
<title>j652974014&#45;&gt;j1630447126</title>
<path fill="none" stroke="black" d="M1403,-1471.7C1403,-1464.41 1403,-1455.73 1403,-1447.54"/>
<polygon fill="black" stroke="black" points="1406.5,-1447.62 1403,-1437.62 1399.5,-1447.62 1406.5,-1447.62"/>
</g>
<!-- j2475848131 -->
<g id="node5" class="node">
<title>j2475848131</title>
<polygon fill="none" stroke="blue" points="1570.5,-1364 1235.5,-1364 1235.5,-1328 1570.5,-1328 1570.5,-1364"/>
<text text-anchor="middle" x="1403" y="-1342.3" font-family="Times New Roman,serif" font-size="14.00">Soldja1Shot1kil: ฮ่า โดนกวนตีนละ</text>
</g>
<!-- j1630447126&#45;&gt;j2475848131 -->
<g id="edge4" class="edge">
<title>j1630447126&#45;&gt;j2475848131</title>
<path fill="none" stroke="black" d="M1403,-1399.7C1403,-1392.41 1403,-1383.73 1403,-1375.54"/>
<polygon fill="black" stroke="black" points="1406.5,-1375.62 1403,-1365.62 1399.5,-1375.62 1406.5,-1375.62"/>
</g>
<!-- j4018305850 -->
<g id="node6" class="node">
<title>j4018305850</title>
<polygon fill="none" stroke="blue" points="1956.5,-1292 849.5,-1292 849.5,-1256 1956.5,-1256 1956.5,-1292"/>
<text text-anchor="middle" x="1403" y="-1270.3" font-family="Times New Roman,serif" font-size="14.00">H16h V0l7463: โว้ว ในที่สุดพวกเอ็งก็ใช้แชตกลุ่มแล้วเหรอเนี่ย?! น่าตื่นเต้นจังเลย!!</text>
</g>
<!-- j2475848131&#45;&gt;j4018305850 -->
<g id="edge5" class="edge">
<title>j2475848131&#45;&gt;j4018305850</title>
<path fill="none" stroke="black" d="M1403,-1327.7C1403,-1320.41 1403,-1311.73 1403,-1303.54"/>
<polygon fill="black" stroke="black" points="1406.5,-1303.62 1403,-1293.62 1399.5,-1303.62 1406.5,-1303.62"/>
</g>
<!-- j1707164173 -->
<g id="node7" class="node">
<title>j1707164173</title>
<polygon fill="none" stroke="blue" points="1647,-1220 1159,-1220 1159,-1184 1647,-1184 1647,-1220"/>
<text text-anchor="middle" x="1403" y="-1198.3" font-family="Times New Roman,serif" font-size="14.00">xX GLIMMER Xx: :) &lt;RETRO_EMOJI_HEART&gt; บอกแล้วไง Amir!</text>
</g>
<!-- j4018305850&#45;&gt;j1707164173 -->
<g id="edge6" class="edge">
<title>j4018305850&#45;&gt;j1707164173</title>
<path fill="none" stroke="black" d="M1403,-1255.7C1403,-1248.41 1403,-1239.73 1403,-1231.54"/>
<polygon fill="black" stroke="black" points="1406.5,-1231.62 1403,-1221.62 1399.5,-1231.62 1406.5,-1231.62"/>
</g>
<!-- j1327388084 -->
<g id="node8" class="node">
<title>j1327388084</title>
<polygon fill="none" stroke="red" points="908,-1148 0,-1148 0,-1112 908,-1112 908,-1148"/>
<text text-anchor="middle" x="454" y="-1126.3" font-family="Times New Roman,serif" font-size="14.00">ข้ามีบางอย่างที่น่าจะช่วยทำความสะอาดได้นะ &#45; ขอแนะนำ โดรน Domestik</text>
</g>
<!-- j1707164173&#45;&gt;j1327388084 -->
<g id="edge7" class="edge">
<title>j1707164173&#45;&gt;j1327388084</title>
<path fill="none" stroke="black" d="M1165.98,-1183.52C1024.59,-1173.09 845.29,-1159.86 702,-1149.29"/>
<polygon fill="black" stroke="black" points="702.62,-1145.83 692.39,-1148.58 702.11,-1152.81 702.62,-1145.83"/>
</g>
<!-- j3607223168 -->
<g id="node9" class="node">
<title>j3607223168</title>
<polygon fill="none" stroke="red" points="1879.5,-1148 926.5,-1148 926.5,-1112 1879.5,-1112 1879.5,-1148"/>
<text text-anchor="middle" x="1403" y="-1126.3" font-family="Times New Roman,serif" font-size="14.00">ข้ามีบางอย่างที่น่าจะช่วยทำความสะอาดได้นะ &#45; ขอแนะนำ โดรน Domestik Badboi</text>
</g>
<!-- j1707164173&#45;&gt;j3607223168 -->
<g id="edge8" class="edge">
<title>j1707164173&#45;&gt;j3607223168</title>
<path fill="none" stroke="black" d="M1403,-1183.7C1403,-1176.41 1403,-1167.73 1403,-1159.54"/>
<polygon fill="black" stroke="black" points="1406.5,-1159.62 1403,-1149.62 1399.5,-1159.62 1406.5,-1159.62"/>
</g>
<!-- j2821353569 -->
<g id="node10" class="node">
<title>j2821353569</title>
<polygon fill="none" stroke="red" points="2844.5,-1148 1897.5,-1148 1897.5,-1112 2844.5,-1112 2844.5,-1148"/>
<text text-anchor="middle" x="2371" y="-1126.3" font-family="Times New Roman,serif" font-size="14.00">ข้ามีบางอย่างที่น่าจะช่วยทำความสะอาดได้นะ &#45; ขอแนะนำ โดรน Domestik Zoney</text>
</g>
<!-- j1707164173&#45;&gt;j2821353569 -->
<g id="edge9" class="edge">
<title>j1707164173&#45;&gt;j2821353569</title>
<path fill="none" stroke="black" d="M1644.77,-1183.52C1788.99,-1173.09 1971.87,-1159.86 2118.03,-1149.29"/>
<polygon fill="black" stroke="black" points="2118.15,-1152.79 2127.87,-1148.58 2117.64,-1145.81 2118.15,-1152.79"/>
</g>
<!-- j3904664702 -->
<g id="node11" class="node">
<title>j3904664702</title>
<ellipse fill="none" stroke="orange" cx="789" cy="-1058" rx="131.08" ry="18"/>
<text text-anchor="middle" x="789" y="-1054.3" font-family="Times New Roman,serif" font-size="14.00">Boolean HexDroneA is now true.</text>
</g>
<!-- j1327388084&#45;&gt;j3904664702 -->
<g id="edge10" class="edge">
<title>j1327388084&#45;&gt;j3904664702</title>
<path fill="none" stroke="black" d="M537.67,-1111.52C589.76,-1100.63 656.42,-1086.7 708,-1075.93"/>
<polygon fill="black" stroke="black" points="708.54,-1079.39 717.62,-1073.92 707.11,-1072.54 708.54,-1079.39"/>
</g>
<!-- j486939890 -->
<g id="node12" class="node">
<title>j486939890</title>
<ellipse fill="none" stroke="orange" cx="1403" cy="-1058" rx="130.78" ry="18"/>
<text text-anchor="middle" x="1403" y="-1054.3" font-family="Times New Roman,serif" font-size="14.00">Boolean HexDroneB is now true.</text>
</g>
<!-- j3607223168&#45;&gt;j486939890 -->
<g id="edge11" class="edge">
<title>j3607223168&#45;&gt;j486939890</title>
<path fill="none" stroke="black" d="M1403,-1111.7C1403,-1104.41 1403,-1095.73 1403,-1087.54"/>
<polygon fill="black" stroke="black" points="1406.5,-1087.62 1403,-1077.62 1399.5,-1087.62 1406.5,-1087.62"/>
</g>
<!-- j3398799042 -->
<g id="node13" class="node">
<title>j3398799042</title>
<ellipse fill="none" stroke="orange" cx="2027" cy="-1058" rx="131.08" ry="18"/>
<text text-anchor="middle" x="2027" y="-1054.3" font-family="Times New Roman,serif" font-size="14.00">Boolean HexDroneC is now true.</text>
</g>
<!-- j2821353569&#45;&gt;j3398799042 -->
<g id="edge12" class="edge">
<title>j2821353569&#45;&gt;j3398799042</title>
<path fill="none" stroke="black" d="M2285.08,-1111.52C2231.3,-1100.57 2162.38,-1086.55 2109.29,-1075.75"/>
<polygon fill="black" stroke="black" points="2110.2,-1072.36 2099.7,-1073.79 2108.8,-1079.22 2110.2,-1072.36"/>
</g>
<!-- j2772872457 -->
<g id="node14" class="node">
<title>j2772872457</title>
<polygon fill="none" stroke="blue" points="1884,-1004 922,-1004 922,-968 1884,-968 1884,-1004"/>
<text text-anchor="middle" x="1403" y="-982.3" font-family="Times New Roman,serif" font-size="14.00">H16h V0l7463: หมายความว่าไงนี่เอ็งมีหุ่นยนต์ทำความสะอาดเจ๋ง ๆ ด้วยเหรอ</text>
</g>
<!-- j3904664702&#45;&gt;j2772872457 -->
<g id="edge13" class="edge">
<title>j3904664702&#45;&gt;j2772872457</title>
<path fill="none" stroke="black" d="M887.31,-1045.79C981.72,-1035.03 1126.13,-1018.56 1238.15,-1005.79"/>
<polygon fill="black" stroke="black" points="1238.53,-1009.27 1248.07,-1004.66 1237.73,-1002.32 1238.53,-1009.27"/>
</g>
<!-- j486939890&#45;&gt;j2772872457 -->
<g id="edge14" class="edge">
<title>j486939890&#45;&gt;j2772872457</title>
<path fill="none" stroke="black" d="M1403,-1039.7C1403,-1032.41 1403,-1023.73 1403,-1015.54"/>
<polygon fill="black" stroke="black" points="1406.5,-1015.62 1403,-1005.62 1399.5,-1015.62 1406.5,-1015.62"/>
</g>
<!-- j3398799042&#45;&gt;j2772872457 -->
<g id="edge15" class="edge">
<title>j3398799042&#45;&gt;j2772872457</title>
<path fill="none" stroke="black" d="M1927.78,-1045.87C1831.77,-1035.1 1684.42,-1018.57 1570.27,-1005.76"/>
<polygon fill="black" stroke="black" points="1570.81,-1002.3 1560.48,-1004.67 1570.03,-1009.26 1570.81,-1002.3"/>
</g>
<!-- j2412798987 -->
<g id="node15" class="node">
<title>j2412798987</title>
<polygon fill="none" stroke="blue" points="1882.5,-932 923.5,-932 923.5,-896 1882.5,-896 1882.5,-932"/>
<text text-anchor="middle" x="1403" y="-910.3" font-family="Times New Roman,serif" font-size="14.00">Broadsword: ก็ดี แต่ถ้ามันกวนเวลานอน Aoi จะเปลี่ยนมันให้เป็นเศษเหล็กแน่</text>
</g>
<!-- j2772872457&#45;&gt;j2412798987 -->
<g id="edge16" class="edge">
<title>j2772872457&#45;&gt;j2412798987</title>
<path fill="none" stroke="black" d="M1403,-967.7C1403,-960.41 1403,-951.73 1403,-943.54"/>
<polygon fill="black" stroke="black" points="1406.5,-943.62 1403,-933.62 1399.5,-943.62 1406.5,-943.62"/>
</g>
<!-- j833136261 -->
<g id="node16" class="node">
<title>j833136261</title>
<polygon fill="none" stroke="blue" points="1779,-860 1027,-860 1027,-824 1779,-824 1779,-860"/>
<text text-anchor="middle" x="1403" y="-838.3" font-family="Times New Roman,serif" font-size="14.00">Soldja1Shot1kil: ม่ายอะ ได้เป็นเป้าฝึกยิงก่อนแน่ ๆ เลยเพื่อน</text>
</g>
<!-- j2412798987&#45;&gt;j833136261 -->
<g id="edge17" class="edge">
<title>j2412798987&#45;&gt;j833136261</title>
<path fill="none" stroke="black" d="M1403,-895.7C1403,-888.41 1403,-879.73 1403,-871.54"/>
<polygon fill="black" stroke="black" points="1406.5,-871.62 1403,-861.62 1399.5,-871.62 1406.5,-871.62"/>
</g>
<!-- j2818280976 -->
<g id="node17" class="node">
<title>j2818280976</title>
<polygon fill="none" stroke="blue" points="1836.5,-788 969.5,-788 969.5,-720 1836.5,-720 1836.5,-788"/>
<text text-anchor="middle" x="1403" y="-772.8" font-family="Times New Roman,serif" font-size="14.00">Belladonna ~{@: Arthur พูดสิ่งที่กำลังคิดอยู่เลย&#13;</text>
<text text-anchor="middle" x="1403" y="-757.8" font-family="Times New Roman,serif" font-size="14.00">เก็บกวาดหลังจากใช้เสร็จ&#13;</text>
<text text-anchor="middle" x="1403" y="-742.8" font-family="Times New Roman,serif" font-size="14.00">อาจจะมีสักวันที่เราต้องใช้ศูนย์อาหารนั้นเป็นห้องผ่าตัด&#13;</text>
<text text-anchor="middle" x="1403" y="-727.8" font-family="Times New Roman,serif" font-size="14.00">¿Entendieron?</text>
</g>
<!-- j833136261&#45;&gt;j2818280976 -->
<g id="edge18" class="edge">
<title>j833136261&#45;&gt;j2818280976</title>
<path fill="none" stroke="black" d="M1403,-823.6C1403,-816.65 1403,-808.29 1403,-799.84"/>
<polygon fill="black" stroke="black" points="1406.5,-799.9 1403,-789.9 1399.5,-799.9 1406.5,-799.9"/>
</g>
<!-- j4199566294 -->
<g id="node18" class="node">
<title>j4199566294</title>
<polygon fill="none" stroke="blue" points="1893.5,-684 912.5,-684 912.5,-648 1893.5,-648 1893.5,-684"/>
<text text-anchor="middle" x="1403" y="-662.3" font-family="Times New Roman,serif" font-size="14.00">Salem: แหม Lettie มองโลกในแง่ดีหน่อยสิ เรามีผู้เล่นคนใหม่เข้ามาในบอร์ดนะ</text>
</g>
<!-- j2818280976&#45;&gt;j4199566294 -->
<g id="edge19" class="edge">
<title>j2818280976&#45;&gt;j4199566294</title>
<path fill="none" stroke="black" d="M1403,-719.5C1403,-711.58 1403,-703.2 1403,-695.52"/>
<polygon fill="black" stroke="black" points="1406.5,-695.71 1403,-685.71 1399.5,-695.71 1406.5,-695.71"/>
</g>
<!-- j573976008 -->
<g id="node19" class="node">
<title>j573976008</title>
<polygon fill="none" stroke="blue" points="2250,-612 556,-612 556,-576 2250,-576 2250,-612"/>
<text text-anchor="middle" x="1403" y="-590.3" font-family="Times New Roman,serif" font-size="14.00">xX GLIMMER Xx: ใช่!? มองโลกในแง่ดี! ใช่แล้ว! เพราะงั้น ดริฟเตอร์ ในฐานะที่เพิ่งเข้ามาใหม่ คิดยังไงกับศูนย์อาหาร? &lt;RETRO_EMOJI_FOOD&gt;</text>
</g>
<!-- j4199566294&#45;&gt;j573976008 -->
<g id="edge20" class="edge">
<title>j4199566294&#45;&gt;j573976008</title>
<path fill="none" stroke="black" d="M1403,-647.7C1403,-640.41 1403,-631.73 1403,-623.54"/>
<polygon fill="black" stroke="black" points="1406.5,-623.62 1403,-613.62 1399.5,-623.62 1406.5,-623.62"/>
</g>
<!-- j4039519100 -->
<g id="node20" class="node">
<title>j4039519100</title>
<polygon fill="none" stroke="red" points="1270.5,-540 529.5,-540 529.5,-504 1270.5,-504 1270.5,-540"/>
<text text-anchor="middle" x="900" y="-518.3" font-family="Times New Roman,serif" font-size="14.00">ดูเหมือนว่าจะกว้างพอให้เราทุกคนกินอาหารที่นั่น</text>
</g>
<!-- j573976008&#45;&gt;j4039519100 -->
<g id="edge21" class="edge">
<title>j573976008&#45;&gt;j4039519100</title>
<path fill="none" stroke="black" d="M1277.37,-575.52C1204.01,-565.31 1111.4,-552.42 1036.29,-541.97"/>
<polygon fill="black" stroke="black" points="1037.22,-538.56 1026.84,-540.65 1036.26,-545.5 1037.22,-538.56"/>
</g>
<!-- j3128774995 -->
<g id="node21" class="node">
<title>j3128774995</title>
<polygon fill="none" stroke="red" points="2525,-540 1289,-540 1289,-504 2525,-504 2525,-540"/>
<text text-anchor="middle" x="1907" y="-518.3" font-family="Times New Roman,serif" font-size="14.00">ทำให้นึกถึงบางอย่าง คือหมายถึง เป็นที่สามารถให้เรา... เกือบจะนั่งกินและผ่อนคลายได้</text>
</g>
<!-- j573976008&#45;&gt;j3128774995 -->
<g id="edge22" class="edge">
<title>j573976008&#45;&gt;j3128774995</title>
<path fill="none" stroke="black" d="M1528.88,-575.52C1602.38,-565.31 1695.18,-552.42 1770.44,-541.97"/>
<polygon fill="black" stroke="black" points="1770.49,-545.49 1779.92,-540.65 1769.53,-538.56 1770.49,-545.49"/>
</g>
<!-- j362752289 -->
<g id="node22" class="node">
<title>j362752289</title>
<ellipse fill="none" stroke="orange" cx="1230" cy="-450" rx="153.27" ry="18"/>
<text text-anchor="middle" x="1230" y="-446.3" font-family="Times New Roman,serif" font-size="14.00">Boolean HexFoodCourtSit is now true.</text>
</g>
<!-- j4039519100&#45;&gt;j362752289 -->
<g id="edge23" class="edge">
<title>j4039519100&#45;&gt;j362752289</title>
<path fill="none" stroke="black" d="M982.42,-503.52C1032.56,-492.88 1096.41,-479.34 1146.7,-468.67"/>
<polygon fill="black" stroke="black" points="1147.33,-472.11 1156.39,-466.61 1145.88,-465.27 1147.33,-472.11"/>
</g>
<!-- j2517988076 -->
<g id="node23" class="node">
<title>j2517988076</title>
<ellipse fill="none" stroke="orange" cx="1741" cy="-450" rx="174.37" ry="18"/>
<text text-anchor="middle" x="1741" y="-446.3" font-family="Times New Roman,serif" font-size="14.00">Boolean HexFoodCourtMemory is now true.</text>
</g>
<!-- j3128774995&#45;&gt;j2517988076 -->
<g id="edge24" class="edge">
<title>j3128774995&#45;&gt;j2517988076</title>
<path fill="none" stroke="black" d="M1865.54,-503.52C1843.14,-494.07 1815.3,-482.33 1791.62,-472.35"/>
<polygon fill="black" stroke="black" points="1793.04,-469.15 1782.47,-468.49 1790.32,-475.6 1793.04,-469.15"/>
</g>
<!-- j492782133 -->
<g id="node24" class="node">
<title>j492782133</title>
<polygon fill="none" stroke="blue" points="2094,-396 712,-396 712,-360 2094,-360 2094,-396"/>
<text text-anchor="middle" x="1403" y="-374.3" font-family="Times New Roman,serif" font-size="14.00">H16h V0l7463: เอออออ โอเค แต่ถ้าเกิดเห็น Arthur อยู่นั่นให้หลีกไปไกล ๆ เลยนะ ขอเตือนว่า เขาชอบอยู่คนเดียว</text>
</g>
<!-- j362752289&#45;&gt;j492782133 -->
<g id="edge25" class="edge">
<title>j362752289&#45;&gt;j492782133</title>
<path fill="none" stroke="black" d="M1271.44,-432.23C1294.79,-422.78 1324.22,-410.87 1349.33,-400.72"/>
<polygon fill="black" stroke="black" points="1350.43,-404.05 1358.39,-397.05 1347.8,-397.56 1350.43,-404.05"/>
</g>
<!-- j2517988076&#45;&gt;j492782133 -->
<g id="edge26" class="edge">
<title>j2517988076&#45;&gt;j492782133</title>
<path fill="none" stroke="black" d="M1665.57,-433.38C1616.25,-423.16 1551.41,-409.74 1498.51,-398.78"/>
<polygon fill="black" stroke="black" points="1499.39,-395.39 1488.89,-396.79 1497.97,-402.24 1499.39,-395.39"/>
</g>
<!-- j3281761388 -->
<g id="node25" class="node">
<title>j3281761388</title>
<polygon fill="none" stroke="blue" points="1463.5,-324 1342.5,-324 1342.5,-288 1463.5,-288 1463.5,-324"/>
<text text-anchor="middle" x="1403" y="-302.3" font-family="Times New Roman,serif" font-size="14.00">Broadsword: Amir</text>
</g>
<!-- j492782133&#45;&gt;j3281761388 -->
<g id="edge27" class="edge">
<title>j492782133&#45;&gt;j3281761388</title>
<path fill="none" stroke="black" d="M1403,-359.7C1403,-352.41 1403,-343.73 1403,-335.54"/>
<polygon fill="black" stroke="black" points="1406.5,-335.62 1403,-325.62 1399.5,-335.62 1406.5,-335.62"/>
</g>
<!-- j3172278912 -->
<g id="node26" class="node">
<title>j3172278912</title>
<polygon fill="none" stroke="blue" points="1845,-252 961,-252 961,-216 1845,-216 1845,-252"/>
<text text-anchor="middle" x="1403" y="-230.3" font-family="Times New Roman,serif" font-size="14.00">xX GLIMMER Xx: ^_^ เป็นจุดที่ดีนะ ทุกที่ในห้างด้วย และมันเป็นของเรา</text>
</g>
<!-- j3281761388&#45;&gt;j3172278912 -->
<g id="edge28" class="edge">
<title>j3281761388&#45;&gt;j3172278912</title>
<path fill="none" stroke="black" d="M1403,-287.7C1403,-280.41 1403,-271.73 1403,-263.54"/>
<polygon fill="black" stroke="black" points="1406.5,-263.62 1403,-253.62 1399.5,-263.62 1406.5,-263.62"/>
</g>
<!-- j3781894647 -->
<g id="node27" class="node">
<title>j3781894647</title>
<polygon fill="none" stroke="blue" points="1564.5,-180 1241.5,-180 1241.5,-144 1564.5,-144 1564.5,-180"/>
<text text-anchor="middle" x="1403" y="-158.3" font-family="Times New Roman,serif" font-size="14.00">Soldja1Shot1kil: ไม่ มี ทางเลือก</text>
</g>
<!-- j3172278912&#45;&gt;j3781894647 -->
<g id="edge29" class="edge">
<title>j3172278912&#45;&gt;j3781894647</title>
<path fill="none" stroke="black" d="M1403,-215.7C1403,-208.41 1403,-199.73 1403,-191.54"/>
<polygon fill="black" stroke="black" points="1406.5,-191.62 1403,-181.62 1399.5,-191.62 1406.5,-191.62"/>
</g>
<!-- j4049880475 -->
<g id="node28" class="node">
<title>j4049880475</title>
<ellipse fill="none" stroke="orange" cx="1403" cy="-90" rx="198.47" ry="18"/>
<text text-anchor="middle" x="1403" y="-86.3" font-family="Times New Roman,serif" font-size="14.00">Invoke /Lotus/Scripts/1999/HexSyndicateDialog.lua</text>
</g>
<!-- j3781894647&#45;&gt;j4049880475 -->
<g id="edge30" class="edge">
<title>j3781894647&#45;&gt;j4049880475</title>
<path fill="none" stroke="black" d="M1403,-143.7C1403,-136.41 1403,-127.73 1403,-119.54"/>
<polygon fill="black" stroke="black" points="1406.5,-119.62 1403,-109.62 1399.5,-119.62 1406.5,-119.62"/>
</g>
<!-- Chat ends. -->
<g id="node29" class="node">
<title>Chat ends.</title>
<ellipse fill="none" stroke="orange" cx="1403" cy="-18" rx="50.09" ry="18"/>
<text text-anchor="middle" x="1403" y="-14.3" font-family="Times New Roman,serif" font-size="14.00">Chat ends.</text>
</g>
<!-- j4049880475&#45;&gt;Chat ends. -->
<g id="edge31" class="edge">
<title>j4049880475&#45;&gt;Chat ends.</title>
<path fill="none" stroke="black" d="M1403,-71.7C1403,-64.41 1403,-55.73 1403,-47.54"/>
<polygon fill="black" stroke="black" points="1406.5,-47.62 1403,-37.62 1399.5,-47.62 1406.5,-47.62"/>
</g>
</g>
</svg>
