<?xml version="1.0" encoding="UTF-8" standalone="no"?>
<!DOCTYPE svg PUBLIC "-//W3C//DTD SVG 1.1//EN"
 "http://www.w3.org/Graphics/SVG/1.1/DTD/svg11.dtd">
<!-- Generated by graphviz version 7.1.0 (20230121.1956)
 -->
<!-- Pages: 1 -->
<svg width="1812pt" height="2310pt"
 viewBox="0.00 0.00 1811.50 2310.00" xmlns="http://www.w3.org/2000/svg" xmlns:xlink="http://www.w3.org/1999/xlink">
<g id="graph0" class="graph" transform="scale(1 1) rotate(0) translate(4 2306)">
<polygon fill="white" stroke="none" points="-4,4 -4,-2306 1807.5,-2306 1807.5,4 -4,4"/>
<!-- LettieRank4Convo6 begins. -->
<g id="node1" class="node">
<title>LettieRank4Convo6 begins.</title>
<ellipse fill="none" stroke="orange" cx="949.5" cy="-2284" rx="111.58" ry="18"/>
<text text-anchor="middle" x="949.5" y="-2280.3" font-family="Times New Roman,serif" font-size="14.00">LettieRank4Convo6 begins.</text>
</g>
<!-- j2375264536 -->
<g id="node2" class="node">
<title>j2375264536</title>
<polygon fill="none" stroke="blue" points="1088,-2229 811,-2229 811,-2176 1088,-2176 1088,-2229"/>
<text text-anchor="middle" x="949.5" y="-2213.8" font-family="Times New Roman,serif" font-size="14.00">Эта кошка, этот жуткий мутант&#45;кот &#13;</text>
<text text-anchor="middle" x="949.5" y="-2198.8" font-family="Times New Roman,serif" font-size="14.00">Смотрит на моих &#160;panquecitos, как на обед &#13;</text>
<text text-anchor="middle" x="949.5" y="-2183.8" font-family="Times New Roman,serif" font-size="14.00">Мне это не нравится</text>
</g>
<!-- LettieRank4Convo6 begins.&#45;&gt;j2375264536 -->
<g id="edge1" class="edge">
<title>LettieRank4Convo6 begins.&#45;&gt;j2375264536</title>
<path fill="none" stroke="black" d="M949.5,-2265.75C949.5,-2258.38 949.5,-2249.48 949.5,-2240.74"/>
<polygon fill="black" stroke="black" points="953,-2241 949.5,-2231 946,-2241 953,-2241"/>
</g>
<!-- j3958367316 -->
<g id="node3" class="node">
<title>j3958367316</title>
<polygon fill="none" stroke="red" points="1031,-2139 462,-2139 462,-2103 1031,-2103 1031,-2139"/>
<text text-anchor="middle" x="746.5" y="-2117.3" font-family="Times New Roman,serif" font-size="14.00">Ты имеешь в виду Калимос? Я позабочусь о том, чтобы она оставила твоих крыс в покое.</text>
</g>
<!-- j2375264536&#45;&gt;j3958367316 -->
<g id="edge2" class="edge">
<title>j2375264536&#45;&gt;j3958367316</title>
<path fill="none" stroke="black" d="M883.31,-2175.58C856.89,-2165.23 826.82,-2153.45 801.61,-2143.58"/>
<polygon fill="black" stroke="black" points="803.13,-2140.42 792.54,-2140.03 800.57,-2146.94 803.13,-2140.42"/>
</g>
<!-- j1275738804 -->
<g id="node4" class="node">
<title>j1275738804</title>
<polygon fill="none" stroke="red" points="1257.5,-2139 1049.5,-2139 1049.5,-2103 1257.5,-2103 1257.5,-2139"/>
<text text-anchor="middle" x="1153.5" y="-2117.3" font-family="Times New Roman,serif" font-size="14.00">Калимос не тронет твоих крыс.</text>
</g>
<!-- j2375264536&#45;&gt;j1275738804 -->
<g id="edge3" class="edge">
<title>j2375264536&#45;&gt;j1275738804</title>
<path fill="none" stroke="black" d="M1016.01,-2175.58C1042.57,-2165.23 1072.79,-2153.45 1098.12,-2143.58"/>
<polygon fill="black" stroke="black" points="1099.19,-2146.92 1107.24,-2140.03 1096.65,-2140.4 1099.19,-2146.92"/>
</g>
<!-- j3594747913 -->
<g id="node5" class="node">
<title>j3594747913</title>
<polygon fill="none" stroke="blue" points="867.5,-2058.5 623.5,-2058.5 623.5,-1990.5 867.5,-1990.5 867.5,-2058.5"/>
<text text-anchor="middle" x="745.5" y="-2043.3" font-family="Times New Roman,serif" font-size="14.00">Нет &#13;</text>
<text text-anchor="middle" x="745.5" y="-2028.3" font-family="Times New Roman,serif" font-size="14.00">Это животное энтрати, а не твоё &#13;</text>
<text text-anchor="middle" x="745.5" y="-2013.3" font-family="Times New Roman,serif" font-size="14.00">Она выполняет его приказы &#13;</text>
<text text-anchor="middle" x="745.5" y="-1998.3" font-family="Times New Roman,serif" font-size="14.00">Она смотрит на меня так же, как и он</text>
</g>
<!-- j3958367316&#45;&gt;j3594747913 -->
<g id="edge4" class="edge">
<title>j3958367316&#45;&gt;j3594747913</title>
<path fill="none" stroke="black" d="M746.32,-2102.67C746.22,-2093.48 746.09,-2081.72 745.97,-2070.17"/>
<polygon fill="black" stroke="black" points="749.47,-2070.26 745.87,-2060.3 742.47,-2070.34 749.47,-2070.26"/>
</g>
<!-- j3378190295 -->
<g id="node6" class="node">
<title>j3378190295</title>
<polygon fill="none" stroke="blue" points="1276.5,-2066 1032.5,-2066 1032.5,-1983 1276.5,-1983 1276.5,-2066"/>
<text text-anchor="middle" x="1154.5" y="-2050.8" font-family="Times New Roman,serif" font-size="14.00">¿Sí? &#13;</text>
<text text-anchor="middle" x="1154.5" y="-2035.8" font-family="Times New Roman,serif" font-size="14.00">Как ты можешь быть так уверен? &#13;</text>
<text text-anchor="middle" x="1154.5" y="-2020.8" font-family="Times New Roman,serif" font-size="14.00">Это животное энтрати, а не твоё &#13;</text>
<text text-anchor="middle" x="1154.5" y="-2005.8" font-family="Times New Roman,serif" font-size="14.00">Она выполняет его приказы &#13;</text>
<text text-anchor="middle" x="1154.5" y="-1990.8" font-family="Times New Roman,serif" font-size="14.00">Она смотрит на меня так же, как и он</text>
</g>
<!-- j1275738804&#45;&gt;j3378190295 -->
<g id="edge5" class="edge">
<title>j1275738804&#45;&gt;j3378190295</title>
<path fill="none" stroke="black" d="M1153.68,-2102.67C1153.76,-2095.47 1153.85,-2086.71 1153.95,-2077.7"/>
<polygon fill="black" stroke="black" points="1157.45,-2077.81 1154.05,-2067.78 1150.45,-2077.74 1157.45,-2077.81"/>
</g>
<!-- j3206352818 -->
<g id="node7" class="node">
<title>j3206352818</title>
<polygon fill="none" stroke="red" points="831.5,-1946 649.5,-1946 649.5,-1910 831.5,-1910 831.5,-1946"/>
<text text-anchor="middle" x="740.5" y="-1924.3" font-family="Times New Roman,serif" font-size="14.00">И как она на тебя смотрит?</text>
</g>
<!-- j3594747913&#45;&gt;j3206352818 -->
<g id="edge6" class="edge">
<title>j3594747913&#45;&gt;j3206352818</title>
<path fill="none" stroke="black" d="M743.74,-1990.18C743.18,-1979.57 742.56,-1967.92 742.02,-1957.66"/>
<polygon fill="black" stroke="black" points="745.52,-1957.71 741.5,-1947.91 738.53,-1958.08 745.52,-1957.71"/>
</g>
<!-- j3546652905 -->
<g id="node8" class="node">
<title>j3546652905</title>
<polygon fill="none" stroke="red" points="1290.5,-1946 1024.5,-1946 1024.5,-1910 1290.5,-1910 1290.5,-1946"/>
<text text-anchor="middle" x="1157.5" y="-1924.3" font-family="Times New Roman,serif" font-size="14.00">Она всего лишь кават, Лэтти, не человек.</text>
</g>
<!-- j3378190295&#45;&gt;j3546652905 -->
<g id="edge7" class="edge">
<title>j3378190295&#45;&gt;j3546652905</title>
<path fill="none" stroke="black" d="M1155.8,-1982.6C1156.06,-1974.22 1156.34,-1965.57 1156.59,-1957.73"/>
<polygon fill="black" stroke="black" points="1160.09,-1957.84 1156.91,-1947.74 1153.09,-1957.62 1160.09,-1957.84"/>
</g>
<!-- j1915281518 -->
<g id="node9" class="node">
<title>j1915281518</title>
<ellipse fill="none" stroke="orange" cx="720.5" cy="-1855" rx="108.58" ry="18"/>
<text text-anchor="middle" x="720.5" y="-1851.3" font-family="Times New Roman,serif" font-size="14.00">Check boolean LettieCavia</text>
</g>
<!-- j3206352818&#45;&gt;j1915281518 -->
<g id="edge8" class="edge">
<title>j3206352818&#45;&gt;j1915281518</title>
<path fill="none" stroke="black" d="M735.66,-1909.81C733.47,-1902.05 730.83,-1892.68 728.37,-1883.95"/>
<polygon fill="black" stroke="black" points="731.79,-1883.16 725.71,-1874.49 725.05,-1885.06 731.79,-1883.16"/>
</g>
<!-- j3984872573 -->
<g id="node10" class="node">
<title>j3984872573</title>
<ellipse fill="none" stroke="orange" cx="1162.5" cy="-1855" rx="108.58" ry="18"/>
<text text-anchor="middle" x="1162.5" y="-1851.3" font-family="Times New Roman,serif" font-size="14.00">Check boolean LettieCavia</text>
</g>
<!-- j3546652905&#45;&gt;j3984872573 -->
<g id="edge9" class="edge">
<title>j3546652905&#45;&gt;j3984872573</title>
<path fill="none" stroke="black" d="M1158.71,-1909.81C1159.25,-1902.14 1159.9,-1892.89 1160.51,-1884.24"/>
<polygon fill="black" stroke="black" points="1163.98,-1884.76 1161.19,-1874.54 1157,-1884.27 1163.98,-1884.76"/>
</g>
<!-- j3969883464 -->
<g id="node11" class="node">
<title>j3969883464</title>
<polygon fill="none" stroke="blue" points="664,-1700 343,-1700 343,-1632 664,-1632 664,-1700"/>
<text text-anchor="middle" x="503.5" y="-1684.8" font-family="Times New Roman,serif" font-size="14.00">Как будто она пытается понять, как съесть МЕНЯ&#13;</text>
<text text-anchor="middle" x="503.5" y="-1669.8" font-family="Times New Roman,serif" font-size="14.00">Как человек &#13;</text>
<text text-anchor="middle" x="503.5" y="-1654.8" font-family="Times New Roman,serif" font-size="14.00">Как одна из тех кавия, о которых ты рассказывал&#13;</text>
<text text-anchor="middle" x="503.5" y="-1639.8" font-family="Times New Roman,serif" font-size="14.00">Слишком много ума за этими глазами</text>
</g>
<!-- j1915281518&#45;&gt;j3969883464 -->
<g id="edge10" class="edge">
<title>j1915281518&#45;&gt;j3969883464</title>
<path fill="none" stroke="green" d="M651.91,-1840.79C617.01,-1830.93 576.22,-1814.14 548.5,-1786 528.61,-1765.81 517.35,-1735.95 511.07,-1711.2"/>
<polygon fill="green" stroke="green" points="514.54,-1710.66 508.86,-1701.71 507.72,-1712.24 514.54,-1710.66"/>
<text text-anchor="middle" x="606.5" y="-1807.8" font-family="Times New Roman,serif" font-size="14.00">true</text>
</g>
<!-- j1400369523 -->
<g id="node12" class="node">
<title>j1400369523</title>
<polygon fill="none" stroke="blue" points="883,-1786 558,-1786 558,-1718 883,-1718 883,-1786"/>
<text text-anchor="middle" x="720.5" y="-1770.8" font-family="Times New Roman,serif" font-size="14.00">Как человек &#13;</text>
<text text-anchor="middle" x="720.5" y="-1755.8" font-family="Times New Roman,serif" font-size="14.00">Как будто она пытается понять, как съесть МЕНЯ &#13;</text>
<text text-anchor="middle" x="720.5" y="-1740.8" font-family="Times New Roman,serif" font-size="14.00">Слишком много ума за этими глазами &#13;</text>
<text text-anchor="middle" x="720.5" y="-1725.8" font-family="Times New Roman,serif" font-size="14.00">Есть ли в будущем умные животные?</text>
</g>
<!-- j1915281518&#45;&gt;j1400369523 -->
<g id="edge11" class="edge">
<title>j1915281518&#45;&gt;j1400369523</title>
<path fill="none" stroke="brown" d="M720.5,-1836.87C720.5,-1826.05 720.5,-1811.54 720.5,-1797.63"/>
<polygon fill="brown" stroke="brown" points="724,-1797.69 720.5,-1787.69 717,-1797.69 724,-1797.69"/>
<text text-anchor="middle" x="733.5" y="-1807.8" font-family="Times New Roman,serif" font-size="14.00">false</text>
</g>
<!-- j3880952737 -->
<g id="node13" class="node">
<title>j3880952737</title>
<polygon fill="none" stroke="blue" points="1713.5,-1560 1287.5,-1560 1287.5,-1507 1713.5,-1507 1713.5,-1560"/>
<text text-anchor="middle" x="1500.5" y="-1544.8" font-family="Times New Roman,serif" font-size="14.00">Ты так полагаешь&#13;</text>
<text text-anchor="middle" x="1500.5" y="-1529.8" font-family="Times New Roman,serif" font-size="14.00">Я слышала про кавий от тебя&#13;</text>
<text text-anchor="middle" x="1500.5" y="-1514.8" font-family="Times New Roman,serif" font-size="14.00">Этих бедных животных, которым этот cabrón дал разум и бросил?!</text>
</g>
<!-- j3984872573&#45;&gt;j3880952737 -->
<g id="edge12" class="edge">
<title>j3984872573&#45;&gt;j3880952737</title>
<path fill="none" stroke="green" d="M1230.15,-1840.54C1333.12,-1815.97 1525.65,-1752.99 1605.5,-1614 1613.47,-1600.13 1614.39,-1591.3 1605.5,-1578 1602.98,-1574.23 1600.07,-1570.79 1596.86,-1567.64"/>
<polygon fill="green" stroke="green" points="1599.36,-1565.17 1589.45,-1561.4 1594.84,-1570.52 1599.36,-1565.17"/>
<text text-anchor="middle" x="1517.5" y="-1748.3" font-family="Times New Roman,serif" font-size="14.00">true</text>
</g>
<!-- j958432647 -->
<g id="node14" class="node">
<title>j958432647</title>
<polygon fill="none" stroke="blue" points="1301.5,-1786 1023.5,-1786 1023.5,-1718 1301.5,-1718 1301.5,-1786"/>
<text text-anchor="middle" x="1162.5" y="-1770.8" font-family="Times New Roman,serif" font-size="14.00">Ты так полагаешь&#13;</text>
<text text-anchor="middle" x="1162.5" y="-1755.8" font-family="Times New Roman,serif" font-size="14.00">Esa gata кажется мне слишком умной &#13;</text>
<text text-anchor="middle" x="1162.5" y="-1740.8" font-family="Times New Roman,serif" font-size="14.00">Смотрит на меня с человеческим разумом &#13;</text>
<text text-anchor="middle" x="1162.5" y="-1725.8" font-family="Times New Roman,serif" font-size="14.00">Есть ли в будущем умные животные?</text>
</g>
<!-- j3984872573&#45;&gt;j958432647 -->
<g id="edge13" class="edge">
<title>j3984872573&#45;&gt;j958432647</title>
<path fill="none" stroke="brown" d="M1162.5,-1836.87C1162.5,-1826.05 1162.5,-1811.54 1162.5,-1797.63"/>
<polygon fill="brown" stroke="brown" points="1166,-1797.69 1162.5,-1787.69 1159,-1797.69 1166,-1797.69"/>
<text text-anchor="middle" x="1175.5" y="-1807.8" font-family="Times New Roman,serif" font-size="14.00">false</text>
</g>
<!-- j3095744443 -->
<g id="node15" class="node">
<title>j3095744443</title>
<polygon fill="none" stroke="blue" points="787.5,-890 357.5,-890 357.5,-852 787.5,-852 787.5,-890"/>
<text text-anchor="middle" x="572.5" y="-874.8" font-family="Times New Roman,serif" font-size="14.00">Этих бедных животных, которым этот cabrón дал разум и бросил?! &#13;</text>
<text text-anchor="middle" x="572.5" y="-859.8" font-family="Times New Roman,serif" font-size="14.00">Как ты знаешь, что она не одна из них?!</text>
</g>
<!-- j3969883464&#45;&gt;j3095744443 -->
<g id="edge14" class="edge">
<title>j3969883464&#45;&gt;j3095744443</title>
<path fill="none" stroke="black" d="M491.87,-1631.65C483.8,-1605.55 474.5,-1568.15 474.5,-1534.5 474.5,-1534.5 474.5,-1534.5 474.5,-944 474.5,-922.79 489.6,-907.13 507.94,-895.94"/>
<polygon fill="black" stroke="black" points="509.4,-899.14 516.45,-891.23 506,-893.02 509.4,-899.14"/>
</g>
<!-- j2444576340 -->
<g id="node16" class="node">
<title>j2444576340</title>
<polygon fill="none" stroke="red" points="1596.5,-1614 874.5,-1614 874.5,-1578 1596.5,-1578 1596.5,-1614"/>
<text text-anchor="middle" x="1235.5" y="-1592.3" font-family="Times New Roman,serif" font-size="14.00">Есть Кавии, это лабораторные животные, которых отправили в Бездну, и они вернулись с интеллектом. Ну, как бы.</text>
</g>
<!-- j1400369523&#45;&gt;j2444576340 -->
<g id="edge15" class="edge">
<title>j1400369523&#45;&gt;j2444576340</title>
<path fill="none" stroke="black" d="M832.25,-1717.58C933.85,-1687.2 1080.59,-1643.32 1166.2,-1617.72"/>
<polygon fill="black" stroke="black" points="1167.07,-1621.12 1175.64,-1614.9 1165.06,-1614.41 1167.07,-1621.12"/>
</g>
<!-- j168327691 -->
<g id="node17" class="node">
<title>j168327691</title>
<polygon fill="none" stroke="red" points="856.5,-1614 560.5,-1614 560.5,-1578 856.5,-1578 856.5,-1614"/>
<text text-anchor="middle" x="708.5" y="-1592.3" font-family="Times New Roman,serif" font-size="14.00">Да, но — ох, уже вижу, как это тебя разозлит.</text>
</g>
<!-- j1400369523&#45;&gt;j168327691 -->
<g id="edge16" class="edge">
<title>j1400369523&#45;&gt;j168327691</title>
<path fill="none" stroke="black" d="M717.9,-1717.58C715.75,-1690.09 712.75,-1651.55 710.72,-1625.5"/>
<polygon fill="black" stroke="black" points="714.22,-1625.36 709.95,-1615.66 707.24,-1625.9 714.22,-1625.36"/>
</g>
<!-- j72639194 -->
<g id="node18" class="node">
<title>j72639194</title>
<polygon fill="none" stroke="blue" points="1544,-889 1283,-889 1283,-853 1544,-853 1544,-889"/>
<text text-anchor="middle" x="1413.5" y="-867.3" font-family="Times New Roman,serif" font-size="14.00">Как ты знаешь, что она не одна из них?!</text>
</g>
<!-- j3880952737&#45;&gt;j72639194 -->
<g id="edge17" class="edge">
<title>j3880952737&#45;&gt;j72639194</title>
<path fill="none" stroke="black" d="M1490.03,-1506.6C1481.72,-1483.69 1471.5,-1449.17 1471.5,-1418 1471.5,-1418 1471.5,-1418 1471.5,-944 1471.5,-925.7 1459.99,-909.42 1447.23,-896.98"/>
<polygon fill="black" stroke="black" points="1449.68,-894.48 1439.9,-890.4 1445,-899.69 1449.68,-894.48"/>
</g>
<!-- j958432647&#45;&gt;j2444576340 -->
<g id="edge18" class="edge">
<title>j958432647&#45;&gt;j2444576340</title>
<path fill="none" stroke="black" d="M1178.34,-1717.58C1191.55,-1689.72 1210.14,-1650.5 1222.49,-1624.44"/>
<polygon fill="black" stroke="black" points="1225.6,-1626.06 1226.72,-1615.52 1219.27,-1623.06 1225.6,-1626.06"/>
</g>
<!-- j958432647&#45;&gt;j168327691 -->
<g id="edge19" class="edge">
<title>j958432647&#45;&gt;j168327691</title>
<path fill="none" stroke="black" d="M1063.99,-1717.58C974.88,-1687.36 846.38,-1643.77 770.75,-1618.12"/>
<polygon fill="black" stroke="black" points="772.02,-1614.85 761.42,-1614.95 769.77,-1621.48 772.02,-1614.85"/>
</g>
<!-- j3900853106 -->
<g id="node19" class="node">
<title>j3900853106</title>
<polygon fill="none" stroke="red" points="1007.5,-815 819.5,-815 819.5,-779 1007.5,-779 1007.5,-815"/>
<text text-anchor="middle" x="913.5" y="-793.3" font-family="Times New Roman,serif" font-size="14.00">Ну, она ничего не говорила.</text>
</g>
<!-- j3095744443&#45;&gt;j3900853106 -->
<g id="edge20" class="edge">
<title>j3095744443&#45;&gt;j3900853106</title>
<path fill="none" stroke="black" d="M659.87,-851.55C708.76,-841.23 769.73,-828.36 819.63,-817.82"/>
<polygon fill="black" stroke="black" points="820.21,-821.27 829.28,-815.78 818.77,-814.42 820.21,-821.27"/>
</g>
<!-- j1457719034 -->
<g id="node20" class="node">
<title>j1457719034</title>
<polygon fill="none" stroke="red" points="1256,-815 1029,-815 1029,-779 1256,-779 1256,-815"/>
<text text-anchor="middle" x="1142.5" y="-793.3" font-family="Times New Roman,serif" font-size="14.00">Полагаю, на самом деле я не знаю.</text>
</g>
<!-- j3095744443&#45;&gt;j1457719034 -->
<g id="edge21" class="edge">
<title>j3095744443&#45;&gt;j1457719034</title>
<path fill="none" stroke="black" d="M725.13,-851.51C810.8,-841.02 919.63,-827.53 1016.5,-815 1016.88,-814.95 1017.26,-814.9 1017.64,-814.85"/>
<polygon fill="black" stroke="black" points="1017.87,-818.35 1027.33,-813.59 1016.97,-811.41 1017.87,-818.35"/>
</g>
<!-- j2727313179 -->
<g id="node21" class="node">
<title>j2727313179</title>
<polygon fill="none" stroke="blue" points="1370,-1489 1139,-1489 1139,-1436 1370,-1436 1370,-1489"/>
<text text-anchor="middle" x="1254.5" y="-1473.8" font-family="Times New Roman,serif" font-size="14.00">ЛАБОРАТОРНЫЕ ЖИВОТНЫЕ?! &#13;</text>
<text text-anchor="middle" x="1254.5" y="-1458.8" font-family="Times New Roman,serif" font-size="14.00">И дай угадаю &#13;</text>
<text text-anchor="middle" x="1254.5" y="-1443.8" font-family="Times New Roman,serif" font-size="14.00">Энтрати — тот, кто их пытал</text>
</g>
<!-- j2444576340&#45;&gt;j2727313179 -->
<g id="edge22" class="edge">
<title>j2444576340&#45;&gt;j2727313179</title>
<path fill="none" stroke="black" d="M1238.02,-1577.54C1240.85,-1558 1245.5,-1525.77 1249.15,-1500.55"/>
<polygon fill="black" stroke="black" points="1252.61,-1501.07 1250.57,-1490.68 1245.68,-1500.07 1252.61,-1501.07"/>
</g>
<!-- j4259948799 -->
<g id="node22" class="node">
<title>j4259948799</title>
<polygon fill="none" stroke="blue" points="898,-1481.5 699,-1481.5 699,-1443.5 898,-1443.5 898,-1481.5"/>
<text text-anchor="middle" x="798.5" y="-1466.3" font-family="Times New Roman,serif" font-size="14.00">¿Ay, sí? &#13;</text>
<text text-anchor="middle" x="798.5" y="-1451.3" font-family="Times New Roman,serif" font-size="14.00">Это как&#45;то связано с энтрати?</text>
</g>
<!-- j168327691&#45;&gt;j4259948799 -->
<g id="edge23" class="edge">
<title>j168327691&#45;&gt;j4259948799</title>
<path fill="none" stroke="black" d="M720.45,-1577.54C735.55,-1555.48 761.7,-1517.28 779.53,-1491.22"/>
<polygon fill="black" stroke="black" points="782.3,-1493.36 785.06,-1483.13 776.53,-1489.41 782.3,-1493.36"/>
</g>
<!-- j72639194&#45;&gt;j3900853106 -->
<g id="edge24" class="edge">
<title>j72639194&#45;&gt;j3900853106</title>
<path fill="none" stroke="black" d="M1283.42,-852.52C1206.58,-842.02 1107.44,-828.19 1019.5,-815 1019.38,-814.98 1019.26,-814.96 1019.15,-814.95"/>
<polygon fill="black" stroke="black" points="1019.89,-811.52 1009.47,-813.48 1018.83,-818.44 1019.89,-811.52"/>
</g>
<!-- j72639194&#45;&gt;j1457719034 -->
<g id="edge25" class="edge">
<title>j72639194&#45;&gt;j1457719034</title>
<path fill="none" stroke="black" d="M1351.19,-852.53C1328.63,-846.27 1302.94,-839.23 1279.5,-833 1261.24,-828.15 1241.58,-823.05 1223.01,-818.29"/>
<polygon fill="black" stroke="black" points="1223.93,-814.92 1213.38,-815.83 1222.2,-821.7 1223.93,-814.92"/>
</g>
<!-- j447182268 -->
<g id="node23" class="node">
<title>j447182268</title>
<polygon fill="none" stroke="blue" points="1038.5,-742 740.5,-742 740.5,-674 1038.5,-674 1038.5,-742"/>
<text text-anchor="middle" x="889.5" y="-726.8" font-family="Times New Roman,serif" font-size="14.00">Так что? &#13;</text>
<text text-anchor="middle" x="889.5" y="-711.8" font-family="Times New Roman,serif" font-size="14.00">Умна достаточно, чтобы притворяться тупой &#13;</text>
<text text-anchor="middle" x="889.5" y="-696.8" font-family="Times New Roman,serif" font-size="14.00">Но она шпионит за нами для него, я знаю это &#13;</text>
<text text-anchor="middle" x="889.5" y="-681.8" font-family="Times New Roman,serif" font-size="14.00">Мы не должны ей доверять</text>
</g>
<!-- j3900853106&#45;&gt;j447182268 -->
<g id="edge26" class="edge">
<title>j3900853106&#45;&gt;j447182268</title>
<path fill="none" stroke="black" d="M908.76,-778.81C906.72,-771.42 904.23,-762.4 901.73,-753.33"/>
<polygon fill="black" stroke="black" points="905.14,-752.53 899.1,-743.82 898.39,-754.39 905.14,-752.53"/>
</g>
<!-- j579946032 -->
<g id="node24" class="node">
<title>j579946032</title>
<polygon fill="none" stroke="blue" points="1240.5,-742 1056.5,-742 1056.5,-674 1240.5,-674 1240.5,-742"/>
<text text-anchor="middle" x="1148.5" y="-726.8" font-family="Times New Roman,serif" font-size="14.00">Да &#13;</text>
<text text-anchor="middle" x="1148.5" y="-711.8" font-family="Times New Roman,serif" font-size="14.00">Она может быть шпионом &#13;</text>
<text text-anchor="middle" x="1148.5" y="-696.8" font-family="Times New Roman,serif" font-size="14.00">Работает на Энтрати &#13;</text>
<text text-anchor="middle" x="1148.5" y="-681.8" font-family="Times New Roman,serif" font-size="14.00">Мы не должны ей доверять</text>
</g>
<!-- j1457719034&#45;&gt;j579946032 -->
<g id="edge27" class="edge">
<title>j1457719034&#45;&gt;j579946032</title>
<path fill="none" stroke="black" d="M1143.69,-778.81C1144.19,-771.5 1144.8,-762.6 1145.42,-753.63"/>
<polygon fill="black" stroke="black" points="1148.9,-754.09 1146.1,-743.87 1141.92,-753.6 1148.9,-754.09"/>
</g>
<!-- j1168589737 -->
<g id="node25" class="node">
<title>j1168589737</title>
<polygon fill="none" stroke="red" points="1314.5,-1345 1260.5,-1345 1260.5,-1309 1314.5,-1309 1314.5,-1345"/>
<text text-anchor="middle" x="1287.5" y="-1323.3" font-family="Times New Roman,serif" font-size="14.00">Да.</text>
</g>
<!-- j2727313179&#45;&gt;j1168589737 -->
<g id="edge28" class="edge">
<title>j2727313179&#45;&gt;j1168589737</title>
<path fill="none" stroke="black" d="M1260.86,-1435.76C1266.5,-1412.94 1274.72,-1379.69 1280.54,-1356.17"/>
<polygon fill="black" stroke="black" points="1283.89,-1357.2 1282.89,-1346.65 1277.09,-1355.52 1283.89,-1357.2"/>
</g>
<!-- j2815947018 -->
<g id="node26" class="node">
<title>j2815947018</title>
<polygon fill="none" stroke="red" points="908.5,-1399 820.5,-1399 820.5,-1363 908.5,-1363 908.5,-1399"/>
<text text-anchor="middle" x="864.5" y="-1377.3" font-family="Times New Roman,serif" font-size="14.00">Ты угадала.</text>
</g>
<!-- j4259948799&#45;&gt;j2815947018 -->
<g id="edge29" class="edge">
<title>j4259948799&#45;&gt;j2815947018</title>
<path fill="none" stroke="black" d="M813.81,-1443.06C822.46,-1432.64 833.42,-1419.44 842.93,-1407.98"/>
<polygon fill="black" stroke="black" points="845.52,-1410.34 849.21,-1400.41 840.13,-1405.87 845.52,-1410.34"/>
</g>
<!-- j2592710346 -->
<g id="node27" class="node">
<title>j2592710346</title>
<polygon fill="none" stroke="red" points="957.5,-637 473.5,-637 473.5,-601 957.5,-601 957.5,-637"/>
<text text-anchor="middle" x="715.5" y="-615.3" font-family="Times New Roman,serif" font-size="14.00">Энтрати ушёл, а она осталась. Я не думаю, что она всё ещё работает на него.</text>
</g>
<!-- j447182268&#45;&gt;j2592710346 -->
<g id="edge30" class="edge">
<title>j447182268&#45;&gt;j2592710346</title>
<path fill="none" stroke="black" d="M822.72,-673.61C801.86,-663.18 779.36,-651.93 760.38,-642.44"/>
<polygon fill="black" stroke="black" points="762.09,-639.38 751.58,-638.04 758.96,-645.64 762.09,-639.38"/>
</g>
<!-- j2292394122 -->
<g id="node28" class="node">
<title>j2292394122</title>
<polygon fill="none" stroke="red" points="1437.5,-637 975.5,-637 975.5,-601 1437.5,-601 1437.5,-637"/>
<text text-anchor="middle" x="1206.5" y="-615.3" font-family="Times New Roman,serif" font-size="14.00">Ты действительно думаешь, что она шпионит за нами для него? Почему?</text>
</g>
<!-- j447182268&#45;&gt;j2292394122 -->
<g id="edge31" class="edge">
<title>j447182268&#45;&gt;j2292394122</title>
<path fill="none" stroke="black" d="M1011.15,-673.61C1051.82,-662.45 1095.91,-650.35 1131.9,-640.47"/>
<polygon fill="black" stroke="black" points="1132.61,-643.91 1141.33,-637.89 1130.76,-637.16 1132.61,-643.91"/>
</g>
<!-- j579946032&#45;&gt;j2592710346 -->
<g id="edge32" class="edge">
<title>j579946032&#45;&gt;j2592710346</title>
<path fill="none" stroke="black" d="M1056.2,-676.21C1053.27,-675.44 1050.37,-674.7 1047.5,-674 988.06,-659.55 921.68,-647.88 863.99,-639.14"/>
<polygon fill="black" stroke="black" points="864.85,-635.73 854.44,-637.71 863.81,-642.65 864.85,-635.73"/>
</g>
<!-- j579946032&#45;&gt;j2292394122 -->
<g id="edge33" class="edge">
<title>j579946032&#45;&gt;j2292394122</title>
<path fill="none" stroke="black" d="M1170.76,-673.61C1176.73,-664.66 1183.1,-655.1 1188.79,-646.57"/>
<polygon fill="black" stroke="black" points="1191.61,-648.64 1194.24,-638.38 1185.79,-644.76 1191.61,-648.64"/>
</g>
<!-- j3730946722 -->
<g id="node29" class="node">
<title>j3730946722</title>
<polygon fill="none" stroke="blue" points="1323,-1053 748,-1053 748,-1000 1323,-1000 1323,-1053"/>
<text text-anchor="middle" x="1035.5" y="-1037.8" font-family="Times New Roman,serif" font-size="14.00">Я СОБИРАЮСЬ заставить этого cabrón СТРАДАТЬ &#13;</text>
<text text-anchor="middle" x="1035.5" y="-1022.8" font-family="Times New Roman,serif" font-size="14.00">В следующий раз, когда я его увижу, я буду его пытать, как он пытал этих бедных angelitos &#13;</text>
<text text-anchor="middle" x="1035.5" y="-1007.8" font-family="Times New Roman,serif" font-size="14.00">И ему ЭТО НЕ понравится, ОБЕЩАЮ тебе ЭТО</text>
</g>
<!-- j1168589737&#45;&gt;j3730946722 -->
<g id="edge34" class="edge">
<title>j1168589737&#45;&gt;j3730946722</title>
<path fill="none" stroke="black" d="M1289.34,-1308.76C1291.41,-1287.81 1294.5,-1251.35 1294.5,-1220 1294.5,-1220 1294.5,-1220 1294.5,-1107 1294.5,-1085 1259.92,-1068.47 1216.04,-1056.34"/>
<polygon fill="black" stroke="black" points="1217.03,-1052.98 1206.47,-1053.81 1215.24,-1059.75 1217.03,-1052.98"/>
</g>
<!-- j2720953538 -->
<g id="node30" class="node">
<title>j2720953538</title>
<polygon fill="none" stroke="blue" points="968,-1291 785,-1291 785,-1238 968,-1238 968,-1291"/>
<text text-anchor="middle" x="876.5" y="-1275.8" font-family="Times New Roman,serif" font-size="14.00">Тогда правда твоя&#13;</text>
<text text-anchor="middle" x="876.5" y="-1260.8" font-family="Times New Roman,serif" font-size="14.00">Это меня разозлит &#13;</text>
<text text-anchor="middle" x="876.5" y="-1245.8" font-family="Times New Roman,serif" font-size="14.00">Но расскажи мне всё равно</text>
</g>
<!-- j2815947018&#45;&gt;j2720953538 -->
<g id="edge35" class="edge">
<title>j2815947018&#45;&gt;j2720953538</title>
<path fill="none" stroke="black" d="M866.32,-1362.61C867.99,-1346.71 870.51,-1322.67 872.62,-1302.49"/>
<polygon fill="black" stroke="black" points="876.09,-1302.96 873.65,-1292.65 869.13,-1302.23 876.09,-1302.96"/>
</g>
<!-- j3747817807 -->
<g id="node31" class="node">
<title>j3747817807</title>
<polygon fill="none" stroke="blue" points="869.5,-564 561.5,-564 561.5,-496 869.5,-496 869.5,-564"/>
<text text-anchor="middle" x="715.5" y="-548.8" font-family="Times New Roman,serif" font-size="14.00">Нет, видишь ли &#13;</text>
<text text-anchor="middle" x="715.5" y="-533.8" font-family="Times New Roman,serif" font-size="14.00">Именно поэтому я так думаю &#13;</text>
<text text-anchor="middle" x="715.5" y="-518.8" font-family="Times New Roman,serif" font-size="14.00">Он ушёл, и ему нужны глаза здесь, на нас, ¿no? &#13;</text>
<text text-anchor="middle" x="715.5" y="-503.8" font-family="Times New Roman,serif" font-size="14.00">Не знаю, почему, pero no me gusta</text>
</g>
<!-- j2592710346&#45;&gt;j3747817807 -->
<g id="edge36" class="edge">
<title>j2592710346&#45;&gt;j3747817807</title>
<path fill="none" stroke="black" d="M715.5,-600.81C715.5,-593.5 715.5,-584.6 715.5,-575.63"/>
<polygon fill="black" stroke="black" points="719,-575.87 715.5,-565.87 712,-575.87 719,-575.87"/>
</g>
<!-- j2651767209 -->
<g id="node32" class="node">
<title>j2651767209</title>
<polygon fill="none" stroke="blue" points="1408.5,-564 1004.5,-564 1004.5,-496 1408.5,-496 1408.5,-564"/>
<text text-anchor="middle" x="1206.5" y="-548.8" font-family="Times New Roman,serif" font-size="14.00">¡No sé! &#13;</text>
<text text-anchor="middle" x="1206.5" y="-533.8" font-family="Times New Roman,serif" font-size="14.00">Не моя работа — предсказывать поведение безумного &#160;pendejo &#13;</text>
<text text-anchor="middle" x="1206.5" y="-518.8" font-family="Times New Roman,serif" font-size="14.00">Может, чтобы следить за нами &#13;</text>
<text text-anchor="middle" x="1206.5" y="-503.8" font-family="Times New Roman,serif" font-size="14.00">Мне это не нравится</text>
</g>
<!-- j2292394122&#45;&gt;j2651767209 -->
<g id="edge37" class="edge">
<title>j2292394122&#45;&gt;j2651767209</title>
<path fill="none" stroke="black" d="M1206.5,-600.81C1206.5,-593.5 1206.5,-584.6 1206.5,-575.63"/>
<polygon fill="black" stroke="black" points="1210,-575.87 1206.5,-565.87 1203,-575.87 1210,-575.87"/>
</g>
<!-- j1179190264 -->
<g id="node33" class="node">
<title>j1179190264</title>
<ellipse fill="none" stroke="orange" cx="1035.5" cy="-945" rx="128.08" ry="18"/>
<text text-anchor="middle" x="1035.5" y="-941.3" font-family="Times New Roman,serif" font-size="14.00">Boolean LettieCavia is now true.</text>
</g>
<!-- j3730946722&#45;&gt;j1179190264 -->
<g id="edge38" class="edge">
<title>j3730946722&#45;&gt;j1179190264</title>
<path fill="none" stroke="black" d="M1035.5,-999.91C1035.5,-991.86 1035.5,-982.91 1035.5,-974.66"/>
<polygon fill="black" stroke="black" points="1039,-974.77 1035.5,-964.77 1032,-974.77 1039,-974.77"/>
</g>
<!-- j2636986774 -->
<g id="node34" class="node">
<title>j2636986774</title>
<polygon fill="none" stroke="red" points="1266.5,-1201 502.5,-1201 502.5,-1163 1266.5,-1163 1266.5,-1201"/>
<text text-anchor="middle" x="884.5" y="-1185.8" font-family="Times New Roman,serif" font-size="14.00">Он взял этих лабораторных животных и отправил их в Бездну Они вернулись с интеллектом людей — это почти убило их.&#13;</text>
<text text-anchor="middle" x="884.5" y="-1170.8" font-family="Times New Roman,serif" font-size="14.00">Их называют Кавии.</text>
</g>
<!-- j2720953538&#45;&gt;j2636986774 -->
<g id="edge39" class="edge">
<title>j2720953538&#45;&gt;j2636986774</title>
<path fill="none" stroke="black" d="M879.08,-1237.59C879.86,-1229.68 880.73,-1220.93 881.54,-1212.79"/>
<polygon fill="black" stroke="black" points="885.01,-1213.27 882.51,-1202.97 878.04,-1212.58 885.01,-1213.27"/>
</g>
<!-- j183934817 -->
<g id="node35" class="node">
<title>j183934817</title>
<polygon fill="none" stroke="red" points="801,-459 0,-459 0,-423 801,-423 801,-459"/>
<text text-anchor="middle" x="400.5" y="-437.3" font-family="Times New Roman,serif" font-size="14.00">В любом случае, она достаточно умна, чтобы понять: «Если ты тронешь крыс Лэтти, будешь спать на улице. Этого достаточно?</text>
</g>
<!-- j3747817807&#45;&gt;j183934817 -->
<g id="edge40" class="edge">
<title>j3747817807&#45;&gt;j183934817</title>
<path fill="none" stroke="black" d="M594.61,-495.61C554.2,-484.45 510.39,-472.35 474.63,-462.47"/>
<polygon fill="black" stroke="black" points="475.84,-459.18 465.27,-459.89 473.97,-465.92 475.84,-459.18"/>
</g>
<!-- j2136250923 -->
<g id="node36" class="node">
<title>j2136250923</title>
<polygon fill="none" stroke="red" points="1803.5,-459 819.5,-459 819.5,-423 1803.5,-423 1803.5,-459"/>
<text text-anchor="middle" x="1311.5" y="-437.3" font-family="Times New Roman,serif" font-size="14.00">Я не выгоняю её. Даже если она работает на Энтрати, это не её вина. Она животное, верное хозяину, который её любит. Я не могу проявить жестокость к ней.</text>
</g>
<!-- j3747817807&#45;&gt;j2136250923 -->
<g id="edge41" class="edge">
<title>j3747817807&#45;&gt;j2136250923</title>
<path fill="none" stroke="black" d="M869.76,-506.48C966.11,-492.42 1088.82,-474.51 1180.44,-461.13"/>
<polygon fill="black" stroke="black" points="1180.86,-464.61 1190.25,-459.7 1179.84,-457.68 1180.86,-464.61"/>
</g>
<!-- j2651767209&#45;&gt;j183934817 -->
<g id="edge42" class="edge">
<title>j2651767209&#45;&gt;j183934817</title>
<path fill="none" stroke="black" d="M1004.15,-507.16C871.53,-492.84 699.97,-474.33 573.67,-460.69"/>
<polygon fill="black" stroke="black" points="574.18,-457.23 563.86,-459.63 573.43,-464.19 574.18,-457.23"/>
</g>
<!-- j2651767209&#45;&gt;j2136250923 -->
<g id="edge43" class="edge">
<title>j2651767209&#45;&gt;j2136250923</title>
<path fill="none" stroke="black" d="M1246.8,-495.61C1258.45,-485.95 1270.96,-475.59 1281.84,-466.58"/>
<polygon fill="black" stroke="black" points="1283.91,-469.41 1289.38,-460.33 1279.44,-464.01 1283.91,-469.41"/>
</g>
<!-- j3265690458 -->
<g id="node37" class="node">
<title>j3265690458</title>
<polygon fill="none" stroke="blue" points="1265,-889 806,-889 806,-853 1265,-853 1265,-889"/>
<text text-anchor="middle" x="1035.5" y="-867.3" font-family="Times New Roman,serif" font-size="14.00">И как ты можешь быть уверен, что эта gata mutante не одна из этих кавий</text>
</g>
<!-- j1179190264&#45;&gt;j3265690458 -->
<g id="edge44" class="edge">
<title>j1179190264&#45;&gt;j3265690458</title>
<path fill="none" stroke="black" d="M1035.5,-926.57C1035.5,-918.79 1035.5,-909.41 1035.5,-900.64"/>
<polygon fill="black" stroke="black" points="1039,-900.78 1035.5,-890.78 1032,-900.78 1039,-900.78"/>
</g>
<!-- j2797040512 -->
<g id="node38" class="node">
<title>j2797040512</title>
<polygon fill="none" stroke="blue" points="1015,-1126 788,-1126 788,-1090 1015,-1090 1015,-1126"/>
<text text-anchor="middle" x="901.5" y="-1104.3" font-family="Times New Roman,serif" font-size="14.00">ЛАБОРАТОРНЫЕ ЖИВОТНЫЕ?!</text>
</g>
<!-- j2636986774&#45;&gt;j2797040512 -->
<g id="edge45" class="edge">
<title>j2636986774&#45;&gt;j2797040512</title>
<path fill="none" stroke="black" d="M888.79,-1162.83C890.6,-1155.16 892.76,-1146.03 894.77,-1137.5"/>
<polygon fill="black" stroke="black" points="898.15,-1138.43 897.04,-1127.89 891.34,-1136.82 898.15,-1138.43"/>
</g>
<!-- j819461446 -->
<g id="node39" class="node">
<title>j819461446</title>
<ellipse fill="none" stroke="orange" cx="919.5" cy="-368" rx="64.19" ry="18"/>
<text text-anchor="middle" x="919.5" y="-364.3" font-family="Times New Roman,serif" font-size="14.00">+15 Chemistry</text>
</g>
<!-- j183934817&#45;&gt;j819461446 -->
<g id="edge46" class="edge">
<title>j183934817&#45;&gt;j819461446</title>
<path fill="none" stroke="black" d="M528.13,-422.54C630.32,-408.56 769.67,-389.5 851.57,-378.29"/>
<polygon fill="black" stroke="black" points="851.8,-381.79 861.24,-376.97 850.85,-374.86 851.8,-381.79"/>
</g>
<!-- j1957902527 -->
<g id="node40" class="node">
<title>j1957902527</title>
<ellipse fill="none" stroke="orange" cx="1310.5" cy="-368" rx="64.19" ry="18"/>
<text text-anchor="middle" x="1310.5" y="-364.3" font-family="Times New Roman,serif" font-size="14.00">+20 Chemistry</text>
</g>
<!-- j2136250923&#45;&gt;j1957902527 -->
<g id="edge47" class="edge">
<title>j2136250923&#45;&gt;j1957902527</title>
<path fill="none" stroke="black" d="M1311.26,-422.81C1311.15,-415.23 1311.02,-406.1 1310.9,-397.54"/>
<polygon fill="black" stroke="black" points="1314.4,-397.49 1310.76,-387.54 1307.4,-397.59 1314.4,-397.49"/>
</g>
<!-- j3265690458&#45;&gt;j3900853106 -->
<g id="edge48" class="edge">
<title>j3265690458&#45;&gt;j3900853106</title>
<path fill="none" stroke="black" d="M1005.97,-852.57C989.93,-843.11 969.9,-831.29 952.59,-821.07"/>
<polygon fill="black" stroke="black" points="954.46,-818.11 944.06,-816.04 950.9,-824.13 954.46,-818.11"/>
</g>
<!-- j3265690458&#45;&gt;j1457719034 -->
<g id="edge49" class="edge">
<title>j3265690458&#45;&gt;j1457719034</title>
<path fill="none" stroke="black" d="M1061.4,-852.57C1075.2,-843.28 1092.38,-831.73 1107.36,-821.64"/>
<polygon fill="black" stroke="black" points="1109.24,-824.6 1115.58,-816.11 1105.33,-818.79 1109.24,-824.6"/>
</g>
<!-- j2797040512&#45;&gt;j3730946722 -->
<g id="edge50" class="edge">
<title>j2797040512&#45;&gt;j3730946722</title>
<path fill="none" stroke="black" d="M930.91,-1089.55C945.99,-1080.61 964.83,-1069.43 982.34,-1059.04"/>
<polygon fill="black" stroke="black" points="983.79,-1062.25 990.61,-1054.14 980.22,-1056.23 983.79,-1062.25"/>
</g>
<!-- j4286585948 -->
<g id="node41" class="node">
<title>j4286585948</title>
<polygon fill="none" stroke="blue" points="1196.5,-227 902.5,-227 902.5,-159 1196.5,-159 1196.5,-227"/>
<text text-anchor="middle" x="1049.5" y="-211.8" font-family="Times New Roman,serif" font-size="14.00">Ладно, sí &#13;</text>
<text text-anchor="middle" x="1049.5" y="-196.8" font-family="Times New Roman,serif" font-size="14.00">Этого будет достаточно &#13;</text>
<text text-anchor="middle" x="1049.5" y="-181.8" font-family="Times New Roman,serif" font-size="14.00">Но если она тронет одного из моих bebecitos &#13;</text>
<text text-anchor="middle" x="1049.5" y="-166.8" font-family="Times New Roman,serif" font-size="14.00">Это будет означать войну</text>
</g>
<!-- j819461446&#45;&gt;j4286585948 -->
<g id="edge51" class="edge">
<title>j819461446&#45;&gt;j4286585948</title>
<path fill="none" stroke="black" d="M932.2,-350.1C951.87,-323.92 990.31,-272.77 1017.82,-236.16"/>
<polygon fill="black" stroke="black" points="1020.44,-238.49 1023.65,-228.39 1014.85,-234.29 1020.44,-238.49"/>
</g>
<!-- j503792024 -->
<g id="node42" class="node">
<title>j503792024</title>
<polygon fill="none" stroke="blue" points="1399,-313 1210,-313 1210,-245 1399,-245 1399,-313"/>
<text text-anchor="middle" x="1304.5" y="-297.8" font-family="Times New Roman,serif" font-size="14.00">АГГГХХХХ.&#13;</text>
<text text-anchor="middle" x="1304.5" y="-282.8" font-family="Times New Roman,serif" font-size="14.00">Зачем ты так это преподнёс &#13;</text>
<text text-anchor="middle" x="1304.5" y="-267.8" font-family="Times New Roman,serif" font-size="14.00">Ааааааа babaaaas &#13;</text>
<text text-anchor="middle" x="1304.5" y="-252.8" font-family="Times New Roman,serif" font-size="14.00">Сражайся честно!</text>
</g>
<!-- j1957902527&#45;&gt;j503792024 -->
<g id="edge52" class="edge">
<title>j1957902527&#45;&gt;j503792024</title>
<path fill="none" stroke="black" d="M1309.31,-349.81C1308.81,-342.5 1308.2,-333.6 1307.58,-324.63"/>
<polygon fill="black" stroke="black" points="1311.08,-324.6 1306.9,-314.87 1304.1,-325.09 1311.08,-324.6"/>
</g>
<!-- Chat ends. -->
<g id="node43" class="node">
<title>Chat ends.</title>
<ellipse fill="none" stroke="orange" cx="1083.5" cy="-18" rx="50.09" ry="18"/>
<text text-anchor="middle" x="1083.5" y="-14.3" font-family="Times New Roman,serif" font-size="14.00">Chat ends.</text>
</g>
<!-- j4286585948&#45;&gt;Chat ends. -->
<g id="edge53" class="edge">
<title>j4286585948&#45;&gt;Chat ends.</title>
<path fill="none" stroke="black" d="M1056.06,-158.64C1062.39,-126.4 1071.89,-78.07 1077.89,-47.55"/>
<polygon fill="black" stroke="black" points="1081.29,-48.39 1079.78,-37.91 1074.42,-47.04 1081.29,-48.39"/>
</g>
<!-- j273204303 -->
<g id="node44" class="node">
<title>j273204303</title>
<polygon fill="none" stroke="blue" points="1490,-141 1111,-141 1111,-73 1490,-73 1490,-141"/>
<text text-anchor="middle" x="1300.5" y="-125.8" font-family="Times New Roman,serif" font-size="14.00">No me gusta cuando te pasas de listo, babas &#13;</text>
<text text-anchor="middle" x="1300.5" y="-110.8" font-family="Times New Roman,serif" font-size="14.00">Ладно, ЛАДНО &#13;</text>
<text text-anchor="middle" x="1300.5" y="-95.8" font-family="Times New Roman,serif" font-size="14.00">Она остаётся, но если она тронет одного из моих bebecitos &#13;</text>
<text text-anchor="middle" x="1300.5" y="-80.8" font-family="Times New Roman,serif" font-size="14.00">Это будет означать войну</text>
</g>
<!-- j503792024&#45;&gt;j273204303 -->
<g id="edge54" class="edge">
<title>j503792024&#45;&gt;j273204303</title>
<path fill="none" stroke="black" d="M1303.72,-244.82C1303.1,-218.58 1302.23,-181.68 1301.55,-152.81"/>
<polygon fill="black" stroke="black" points="1305.06,-152.82 1301.32,-142.9 1298.06,-152.98 1305.06,-152.82"/>
</g>
<!-- j273204303&#45;&gt;Chat ends. -->
<g id="edge55" class="edge">
<title>j273204303&#45;&gt;Chat ends.</title>
<path fill="none" stroke="black" d="M1217.22,-72.61C1186.37,-60.24 1152.64,-46.72 1126.77,-36.35"/>
<polygon fill="black" stroke="black" points="1128.19,-33.15 1117.6,-32.67 1125.58,-39.64 1128.19,-33.15"/>
</g>
</g>
</svg>
