<?xml version="1.0" encoding="UTF-8" standalone="no"?>
<!DOCTYPE svg PUBLIC "-//W3C//DTD SVG 1.1//EN"
 "http://www.w3.org/Graphics/SVG/1.1/DTD/svg11.dtd">
<!-- Generated by graphviz version 7.1.0 (20230121.1956)
 -->
<!-- Pages: 1 -->
<svg width="2914pt" height="1775pt"
 viewBox="0.00 0.00 2913.50 1775.00" xmlns="http://www.w3.org/2000/svg" xmlns:xlink="http://www.w3.org/1999/xlink">
<g id="graph0" class="graph" transform="scale(1 1) rotate(0) translate(4 1771)">
<polygon fill="white" stroke="none" points="-4,4 -4,-1771 2909.5,-1771 2909.5,4 -4,4"/>
<!-- LettieRank2Convo5 begins. -->
<g id="node1" class="node">
<title>LettieRank2Convo5 begins.</title>
<ellipse fill="none" stroke="orange" cx="579" cy="-1749" rx="111.58" ry="18"/>
<text text-anchor="middle" x="579" y="-1745.3" font-family="Times New Roman,serif" font-size="14.00">LettieRank2Convo5 begins.</text>
</g>
<!-- j224084598 -->
<g id="node2" class="node">
<title>j224084598</title>
<polygon fill="none" stroke="red" points="1072,-1694 774,-1694 774,-1658 1072,-1658 1072,-1694"/>
<text text-anchor="middle" x="923" y="-1672.3" font-family="Times New Roman,serif" font-size="14.00">Так... в чём твоя проблема с Элеонор, кстати?</text>
</g>
<!-- LettieRank2Convo5 begins.&#45;&gt;j224084598 -->
<g id="edge1" class="edge">
<title>LettieRank2Convo5 begins.&#45;&gt;j224084598</title>
<path fill="none" stroke="black" d="M645.73,-1734.23C697.41,-1723.56 769.67,-1708.65 827.47,-1696.72"/>
<polygon fill="black" stroke="black" points="827.89,-1700.2 836.97,-1694.76 826.47,-1693.35 827.89,-1700.2"/>
</g>
<!-- j2971065402 -->
<g id="node3" class="node">
<title>j2971065402</title>
<polygon fill="none" stroke="red" points="722.5,-1694 435.5,-1694 435.5,-1658 722.5,-1658 722.5,-1694"/>
<text text-anchor="middle" x="579" y="-1672.3" font-family="Times New Roman,serif" font-size="14.00">Думаю, тебе стоит быть к Элеонор помягче.</text>
</g>
<!-- LettieRank2Convo5 begins.&#45;&gt;j2971065402 -->
<g id="edge2" class="edge">
<title>LettieRank2Convo5 begins.&#45;&gt;j2971065402</title>
<path fill="none" stroke="black" d="M579,-1730.81C579,-1723.23 579,-1714.1 579,-1705.54"/>
<polygon fill="black" stroke="black" points="582.5,-1705.54 579,-1695.54 575.5,-1705.54 582.5,-1705.54"/>
</g>
<!-- j3456118237 -->
<g id="node4" class="node">
<title>j3456118237</title>
<polygon fill="none" stroke="red" points="117,-1640 5,-1640 5,-1604 117,-1604 117,-1640"/>
<text text-anchor="middle" x="61" y="-1618.3" font-family="Times New Roman,serif" font-size="14.00">[Игнорировать]</text>
</g>
<!-- LettieRank2Convo5 begins.&#45;&gt;j3456118237 -->
<g id="edge3" class="edge">
<title>LettieRank2Convo5 begins.&#45;&gt;j3456118237</title>
<path fill="none" stroke="black" d="M518.82,-1733.48C421.43,-1709.98 229.95,-1663.77 128.23,-1639.22"/>
<polygon fill="black" stroke="black" points="129.19,-1635.85 118.65,-1636.91 127.55,-1642.66 129.19,-1635.85"/>
</g>
<!-- j945046632 -->
<g id="node5" class="node">
<title>j945046632</title>
<polygon fill="none" stroke="blue" points="1088.5,-1515 791.5,-1515 791.5,-1447 1088.5,-1447 1088.5,-1515"/>
<text text-anchor="middle" x="940" y="-1499.8" font-family="Times New Roman,serif" font-size="14.00">Мы все стали монстрами &#13;</text>
<text text-anchor="middle" x="940" y="-1484.8" font-family="Times New Roman,serif" font-size="14.00">Но эта bruja наслаждается тем, кем мы стали &#13;</text>
<text text-anchor="middle" x="940" y="-1469.8" font-family="Times New Roman,serif" font-size="14.00">Её забавляет копаться у меня в голове &#13;</text>
<text text-anchor="middle" x="940" y="-1454.8" font-family="Times New Roman,serif" font-size="14.00">Видит слишком много и думает, что знает всё</text>
</g>
<!-- j224084598&#45;&gt;j945046632 -->
<g id="edge4" class="edge">
<title>j224084598&#45;&gt;j945046632</title>
<path fill="none" stroke="black" d="M924.54,-1657.53C927.12,-1628.19 932.41,-1568.12 936.08,-1526.48"/>
<polygon fill="black" stroke="black" points="939.55,-1527.04 936.94,-1516.77 932.57,-1526.43 939.55,-1527.04"/>
</g>
<!-- j800003792 -->
<g id="node6" class="node">
<title>j800003792</title>
<polygon fill="none" stroke="blue" points="706,-1586 452,-1586 452,-1533 706,-1533 706,-1586"/>
<text text-anchor="middle" x="579" y="-1570.8" font-family="Times New Roman,serif" font-size="14.00">¿Ay, sí? &#13;</text>
<text text-anchor="middle" x="579" y="-1555.8" font-family="Times New Roman,serif" font-size="14.00">И почему это? &#13;</text>
<text text-anchor="middle" x="579" y="-1540.8" font-family="Times New Roman,serif" font-size="14.00">Bruja послала тебя поговорить со мной</text>
</g>
<!-- j2971065402&#45;&gt;j800003792 -->
<g id="edge5" class="edge">
<title>j2971065402&#45;&gt;j800003792</title>
<path fill="none" stroke="black" d="M579,-1657.61C579,-1641.71 579,-1617.67 579,-1597.49"/>
<polygon fill="black" stroke="black" points="582.5,-1597.66 579,-1587.66 575.5,-1597.66 582.5,-1597.66"/>
</g>
<!-- Chat ends. -->
<g id="node7" class="node">
<title>Chat ends.</title>
<ellipse fill="none" stroke="orange" cx="235" cy="-18" rx="50.09" ry="18"/>
<text text-anchor="middle" x="235" y="-14.3" font-family="Times New Roman,serif" font-size="14.00">Chat ends.</text>
</g>
<!-- j3456118237&#45;&gt;Chat ends. -->
<g id="edge6" class="edge">
<title>j3456118237&#45;&gt;Chat ends.</title>
<path fill="none" stroke="black" d="M47.76,-1603.64C29.82,-1578.34 0,-1529.17 0,-1482 0,-1482 0,-1482 0,-98.5 0,-61.17 107.75,-37.94 177.33,-26.84"/>
<polygon fill="black" stroke="black" points="177.73,-30.32 187.08,-25.33 176.66,-23.4 177.73,-30.32"/>
</g>
<!-- j443530240 -->
<g id="node8" class="node">
<title>j443530240</title>
<polygon fill="none" stroke="blue" points="1162.5,-1348.5 859.5,-1348.5 859.5,-1295.5 1162.5,-1295.5 1162.5,-1348.5"/>
<text text-anchor="middle" x="1011" y="-1333.3" font-family="Times New Roman,serif" font-size="14.00">Даже если она никогда не скатится в техрот &#13;</text>
<text text-anchor="middle" x="1011" y="-1318.3" font-family="Times New Roman,serif" font-size="14.00">И останется такой, как сейчас, мне всё равно &#13;</text>
<text text-anchor="middle" x="1011" y="-1303.3" font-family="Times New Roman,serif" font-size="14.00">Эта bruja слишком наслаждается этим дерьмом</text>
</g>
<!-- j945046632&#45;&gt;j443530240 -->
<g id="edge7" class="edge">
<title>j945046632&#45;&gt;j443530240</title>
<path fill="none" stroke="black" d="M955.06,-1446.7C966.65,-1421.07 982.65,-1385.69 994.57,-1359.32"/>
<polygon fill="black" stroke="black" points="997.69,-1360.92 998.62,-1350.37 991.31,-1358.04 997.69,-1360.92"/>
</g>
<!-- j3313234189 -->
<g id="node9" class="node">
<title>j3313234189</title>
<polygon fill="none" stroke="red" points="841.5,-1340 508.5,-1340 508.5,-1304 841.5,-1304 841.5,-1340"/>
<text text-anchor="middle" x="675" y="-1318.3" font-family="Times New Roman,serif" font-size="14.00">Нет, она не посылала. Я здесь по собственной воле.</text>
</g>
<!-- j800003792&#45;&gt;j3313234189 -->
<g id="edge8" class="edge">
<title>j800003792&#45;&gt;j3313234189</title>
<path fill="none" stroke="black" d="M589.46,-1532.85C607.64,-1488.25 644.93,-1396.77 663.69,-1350.74"/>
<polygon fill="black" stroke="black" points="666.83,-1352.32 667.36,-1341.74 660.34,-1349.68 666.83,-1352.32"/>
</g>
<!-- j47290159 -->
<g id="node10" class="node">
<title>j47290159</title>
<polygon fill="none" stroke="red" points="610,-1429 32,-1429 32,-1393 610,-1393 610,-1429"/>
<text text-anchor="middle" x="321" y="-1407.3" font-family="Times New Roman,serif" font-size="14.00">Неважно, послала она меня или нет, я всё равно считаю, что тебе стоит быть к ней помягче.</text>
</g>
<!-- j800003792&#45;&gt;j47290159 -->
<g id="edge9" class="edge">
<title>j800003792&#45;&gt;j47290159</title>
<path fill="none" stroke="black" d="M533.47,-1532.65C484.68,-1504.94 407.98,-1461.39 361.31,-1434.89"/>
<polygon fill="black" stroke="black" points="363.28,-1431.98 352.86,-1430.09 359.82,-1438.07 363.28,-1431.98"/>
</g>
<!-- j3514869593 -->
<g id="node11" class="node">
<title>j3514869593</title>
<polygon fill="none" stroke="red" points="1235,-1251 729,-1251 729,-1215 1235,-1215 1235,-1251"/>
<text text-anchor="middle" x="982" y="-1229.3" font-family="Times New Roman,serif" font-size="14.00">То, что она принимает то, что с ней произошло, не делает её плохим человеком.</text>
</g>
<!-- j443530240&#45;&gt;j3514869593 -->
<g id="edge10" class="edge">
<title>j443530240&#45;&gt;j3514869593</title>
<path fill="none" stroke="black" d="M1002.46,-1295.37C999,-1284.99 994.99,-1272.96 991.44,-1262.33"/>
<polygon fill="black" stroke="black" points="994.78,-1261.28 988.3,-1252.9 988.14,-1263.5 994.78,-1261.28"/>
</g>
<!-- j1916234111 -->
<g id="node12" class="node">
<title>j1916234111</title>
<polygon fill="none" stroke="red" points="711,-1251 349,-1251 349,-1215 711,-1215 711,-1251"/>
<text text-anchor="middle" x="530" y="-1229.3" font-family="Times New Roman,serif" font-size="14.00">Просто мне кажется, что ты несправедлива к ней, Лэтти.</text>
</g>
<!-- j443530240&#45;&gt;j1916234111 -->
<g id="edge11" class="edge">
<title>j443530240&#45;&gt;j1916234111</title>
<path fill="none" stroke="black" d="M886.71,-1295.07C874.32,-1292.62 861.92,-1290.23 850,-1288 784.18,-1275.7 710.5,-1263.19 650.45,-1253.3"/>
<polygon fill="black" stroke="black" points="651.33,-1249.9 640.89,-1251.73 650.19,-1256.81 651.33,-1249.9"/>
</g>
<!-- j3313234189&#45;&gt;j3514869593 -->
<g id="edge13" class="edge">
<title>j3313234189&#45;&gt;j3514869593</title>
<path fill="none" stroke="black" d="M736.39,-1303.6C786.3,-1289.46 856.82,-1269.48 909.5,-1254.55"/>
<polygon fill="black" stroke="black" points="910.33,-1257.95 919,-1251.85 908.42,-1251.21 910.33,-1257.95"/>
</g>
<!-- j3313234189&#45;&gt;j1916234111 -->
<g id="edge12" class="edge">
<title>j3313234189&#45;&gt;j1916234111</title>
<path fill="none" stroke="black" d="M646.01,-1303.6C623.78,-1290.27 592.89,-1271.74 568.58,-1257.15"/>
<polygon fill="black" stroke="black" points="570.62,-1254.29 560.24,-1252.15 567.02,-1260.29 570.62,-1254.29"/>
</g>
<!-- j1417649350 -->
<g id="node13" class="node">
<title>j1417649350</title>
<polygon fill="none" stroke="blue" points="490,-1356 28,-1356 28,-1288 490,-1288 490,-1356"/>
<text text-anchor="middle" x="259" y="-1340.8" font-family="Times New Roman,serif" font-size="14.00">И почему я должна? &#13;</text>
<text text-anchor="middle" x="259" y="-1325.8" font-family="Times New Roman,serif" font-size="14.00">Она может сорваться в любой момент и скатиться в технорот &#13;</text>
<text text-anchor="middle" x="259" y="-1310.8" font-family="Times New Roman,serif" font-size="14.00">И даже если не сделает этого, эта bruja слишком наслаждается всем этим &#13;</text>
<text text-anchor="middle" x="259" y="-1295.8" font-family="Times New Roman,serif" font-size="14.00">Мы все теперь монстры, но разница в том, что ей ЭТО НРАВИТСЯ</text>
</g>
<!-- j47290159&#45;&gt;j1417649350 -->
<g id="edge14" class="edge">
<title>j47290159&#45;&gt;j1417649350</title>
<path fill="none" stroke="black" d="M308.75,-1392.81C303.13,-1384.93 296.2,-1375.2 289.32,-1365.54"/>
<polygon fill="black" stroke="black" points="292.3,-1363.7 283.65,-1357.59 286.6,-1367.77 292.3,-1363.7"/>
</g>
<!-- j3540795231 -->
<g id="node14" class="node">
<title>j3540795231</title>
<polygon fill="none" stroke="blue" points="1236.5,-1178 727.5,-1178 727.5,-1125 1236.5,-1125 1236.5,-1178"/>
<text text-anchor="middle" x="982" y="-1162.8" font-family="Times New Roman,serif" font-size="14.00">Одно дело — принять это &#13;</text>
<text text-anchor="middle" x="982" y="-1147.8" font-family="Times New Roman,serif" font-size="14.00">Наслаждаться этим &#45; совсем другое дело &#13;</text>
<text text-anchor="middle" x="982" y="-1132.8" font-family="Times New Roman,serif" font-size="14.00">Она может научиться не быть такой любопытной и перестать лезть мне в голову</text>
</g>
<!-- j3514869593&#45;&gt;j3540795231 -->
<g id="edge15" class="edge">
<title>j3514869593&#45;&gt;j3540795231</title>
<path fill="none" stroke="black" d="M982,-1214.75C982,-1207.38 982,-1198.48 982,-1189.74"/>
<polygon fill="black" stroke="black" points="985.5,-1190 982,-1180 978.5,-1190 985.5,-1190"/>
</g>
<!-- j959683799 -->
<g id="node15" class="node">
<title>j959683799</title>
<polygon fill="none" stroke="blue" points="587.5,-1170.5 472.5,-1170.5 472.5,-1132.5 587.5,-1132.5 587.5,-1170.5"/>
<text text-anchor="middle" x="530" y="-1155.3" font-family="Times New Roman,serif" font-size="14.00">¿Ay, sí, verdad? &#13;</text>
<text text-anchor="middle" x="530" y="-1140.3" font-family="Times New Roman,serif" font-size="14.00">Ну&#45;ка, расскажи</text>
</g>
<!-- j1916234111&#45;&gt;j959683799 -->
<g id="edge16" class="edge">
<title>j1916234111&#45;&gt;j959683799</title>
<path fill="none" stroke="black" d="M530,-1214.75C530,-1205.23 530,-1193.13 530,-1182.14"/>
<polygon fill="black" stroke="black" points="533.5,-1182.34 530,-1172.34 526.5,-1182.34 533.5,-1182.34"/>
</g>
<!-- j1417649350&#45;&gt;j3514869593 -->
<g id="edge18" class="edge">
<title>j1417649350&#45;&gt;j3514869593</title>
<path fill="none" stroke="black" d="M490.5,-1289.07C493.35,-1288.71 496.18,-1288.35 499,-1288 600.17,-1275.39 713.45,-1262.65 804.86,-1252.72"/>
<polygon fill="black" stroke="black" points="805.11,-1256.21 814.67,-1251.65 804.35,-1249.25 805.11,-1256.21"/>
</g>
<!-- j1417649350&#45;&gt;j1916234111 -->
<g id="edge17" class="edge">
<title>j1417649350&#45;&gt;j1916234111</title>
<path fill="none" stroke="black" d="M363,-1287.61C397.17,-1276.64 434.16,-1264.77 464.62,-1254.99"/>
<polygon fill="black" stroke="black" points="465.64,-1258.34 474.09,-1251.95 463.5,-1251.67 465.64,-1258.34"/>
</g>
<!-- j1352139815 -->
<g id="node16" class="node">
<title>j1352139815</title>
<polygon fill="none" stroke="red" points="1863.5,-1088 948.5,-1088 948.5,-1052 1863.5,-1052 1863.5,-1088"/>
<text text-anchor="middle" x="1406" y="-1066.3" font-family="Times New Roman,serif" font-size="14.00">Она одна из твоих товарищей, Лэтти. И хочешь ты этого или нет, ты застряла с ней. Тебе нужно поработать над тем, чтобы отпустить свои обиды.</text>
</g>
<!-- j3540795231&#45;&gt;j1352139815 -->
<g id="edge19" class="edge">
<title>j3540795231&#45;&gt;j1352139815</title>
<path fill="none" stroke="black" d="M1120.54,-1124.52C1179.53,-1113.46 1247.18,-1100.78 1301.81,-1090.53"/>
<polygon fill="black" stroke="black" points="1302.24,-1094.02 1311.43,-1088.73 1300.95,-1087.14 1302.24,-1094.02"/>
</g>
<!-- j4214720318 -->
<g id="node17" class="node">
<title>j4214720318</title>
<polygon fill="none" stroke="red" points="930.5,-1088 81.5,-1088 81.5,-1052 930.5,-1052 930.5,-1088"/>
<text text-anchor="middle" x="506" y="-1066.3" font-family="Times New Roman,serif" font-size="14.00">Она потеряла голос. Ей приходится слушать мысли всех вокруг всё время. Она получает странные обрывки, которых сама не понимает.</text>
</g>
<!-- j3540795231&#45;&gt;j4214720318 -->
<g id="edge20" class="edge">
<title>j3540795231&#45;&gt;j4214720318</title>
<path fill="none" stroke="black" d="M826.47,-1124.52C759.83,-1113.39 683.35,-1100.62 621.81,-1090.34"/>
<polygon fill="black" stroke="black" points="622.44,-1086.9 612,-1088.7 621.28,-1093.8 622.44,-1086.9"/>
</g>
<!-- j959683799&#45;&gt;j1352139815 -->
<g id="edge22" class="edge">
<title>j959683799&#45;&gt;j1352139815</title>
<path fill="none" stroke="black" d="M587.91,-1141.78C625.03,-1136.41 674.28,-1129.68 718,-1125 852.29,-1110.63 1001.71,-1098.45 1126.9,-1089.31"/>
<polygon fill="black" stroke="black" points="1126.94,-1092.82 1136.66,-1088.6 1126.43,-1085.84 1126.94,-1092.82"/>
</g>
<!-- j959683799&#45;&gt;j4214720318 -->
<g id="edge21" class="edge">
<title>j959683799&#45;&gt;j4214720318</title>
<path fill="none" stroke="black" d="M524.43,-1132.06C521.47,-1122.26 517.77,-1110 514.46,-1099.04"/>
<polygon fill="black" stroke="black" points="517.89,-1098.26 511.65,-1089.7 511.18,-1100.28 517.89,-1098.26"/>
</g>
<!-- j1432735401 -->
<g id="node18" class="node">
<title>j1432735401</title>
<polygon fill="none" stroke="blue" points="1561.5,-1015 1250.5,-1015 1250.5,-962 1561.5,-962 1561.5,-1015"/>
<text text-anchor="middle" x="1406" y="-999.8" font-family="Times New Roman,serif" font-size="14.00">Ну, конечно &#13;</text>
<text text-anchor="middle" x="1406" y="-984.8" font-family="Times New Roman,serif" font-size="14.00">Насколько хорошо это работает для тебя, babas &#13;</text>
<text text-anchor="middle" x="1406" y="-969.8" font-family="Times New Roman,serif" font-size="14.00">Как насчёт твоих обид</text>
</g>
<!-- j1352139815&#45;&gt;j1432735401 -->
<g id="edge23" class="edge">
<title>j1352139815&#45;&gt;j1432735401</title>
<path fill="none" stroke="black" d="M1406,-1051.75C1406,-1044.38 1406,-1035.48 1406,-1026.74"/>
<polygon fill="black" stroke="black" points="1409.5,-1027 1406,-1017 1402.5,-1027 1409.5,-1027"/>
</g>
<!-- j914826239 -->
<g id="node19" class="node">
<title>j914826239</title>
<polygon fill="none" stroke="red" points="937.5,-944 400.5,-944 400.5,-908 937.5,-908 937.5,-944"/>
<text text-anchor="middle" x="669" y="-922.3" font-family="Times New Roman,serif" font-size="14.00">И она — та, кто ближе всех к Техроту. Представь, каково это, слышать их всё время?</text>
</g>
<!-- j4214720318&#45;&gt;j914826239 -->
<g id="edge24" class="edge">
<title>j4214720318&#45;&gt;j914826239</title>
<path fill="none" stroke="black" d="M599.42,-1051.51C620.04,-1043.53 639.9,-1031.91 654,-1015 667.59,-998.69 670.93,-974.64 671.1,-955.8"/>
<polygon fill="black" stroke="black" points="674.6,-955.73 670.87,-945.82 667.6,-955.9 674.6,-955.73"/>
</g>
<!-- j2320500092 -->
<g id="node20" class="node">
<title>j2320500092</title>
<polygon fill="none" stroke="red" points="645.5,-1006.5 28.5,-1006.5 28.5,-970.5 645.5,-970.5 645.5,-1006.5"/>
<text text-anchor="middle" x="337" y="-984.8" font-family="Times New Roman,serif" font-size="14.00">И все ВЫ относитесь к ней, как будто она настоящий монстр. Представь, каково это чувствовать?</text>
</g>
<!-- j4214720318&#45;&gt;j2320500092 -->
<g id="edge25" class="edge">
<title>j4214720318&#45;&gt;j2320500092</title>
<path fill="none" stroke="black" d="M468.91,-1051.55C444.04,-1039.85 411.06,-1024.34 384.3,-1011.75"/>
<polygon fill="black" stroke="black" points="385.91,-1008.64 375.37,-1007.55 382.93,-1014.97 385.91,-1008.64"/>
</g>
<!-- j2551409099 -->
<g id="node21" class="node">
<title>j2551409099</title>
<ellipse fill="none" stroke="orange" cx="1406" cy="-872" rx="122.38" ry="18"/>
<text text-anchor="middle" x="1406" y="-868.3" font-family="Times New Roman,serif" font-size="14.00">Check boolean LettieReligion2</text>
</g>
<!-- j1432735401&#45;&gt;j2551409099 -->
<g id="edge26" class="edge">
<title>j1432735401&#45;&gt;j2551409099</title>
<path fill="none" stroke="black" d="M1406,-961.52C1406,-943.74 1406,-920.16 1406,-901.81"/>
<polygon fill="black" stroke="black" points="1409.5,-901.86 1406,-891.86 1402.5,-901.86 1409.5,-901.86"/>
</g>
<!-- j375077341 -->
<g id="node22" class="node">
<title>j375077341</title>
<polygon fill="none" stroke="blue" points="831.5,-430 532.5,-430 532.5,-392 831.5,-392 831.5,-430"/>
<text text-anchor="middle" x="682" y="-414.8" font-family="Times New Roman,serif" font-size="14.00">Именно в этом проблема &#13;</text>
<text text-anchor="middle" x="682" y="-399.8" font-family="Times New Roman,serif" font-size="14.00">Ты продолжаешь приводить аргументы, babas</text>
</g>
<!-- j914826239&#45;&gt;j375077341 -->
<g id="edge27" class="edge">
<title>j914826239&#45;&gt;j375077341</title>
<path fill="none" stroke="black" d="M665.58,-907.82C661.73,-886.92 656,-850.52 656,-819 656,-819 656,-819 656,-499 656,-478.83 662.5,-457.08 669,-440.38"/>
<polygon fill="black" stroke="black" points="672.04,-442.17 672.62,-431.6 665.57,-439.5 672.04,-442.17"/>
</g>
<!-- j2238378862 -->
<g id="node23" class="node">
<title>j2238378862</title>
<polygon fill="none" stroke="red" points="621.5,-836 52.5,-836 52.5,-800 621.5,-800 621.5,-836"/>
<text text-anchor="middle" x="337" y="-814.3" font-family="Times New Roman,serif" font-size="14.00">Ты можешь винить её за то, что она встречает это отвращение с вызовом, а не со стыдом?</text>
</g>
<!-- j2320500092&#45;&gt;j2238378862 -->
<g id="edge28" class="edge">
<title>j2320500092&#45;&gt;j2238378862</title>
<path fill="none" stroke="black" d="M337,-970.1C337,-941.07 337,-882.47 337,-847.39"/>
<polygon fill="black" stroke="black" points="340.5,-847.57 337,-837.57 333.5,-847.57 340.5,-847.57"/>
</g>
<!-- j2866810308 -->
<g id="node24" class="node">
<title>j2866810308</title>
<polygon fill="none" stroke="blue" points="2630.5,-608 2151.5,-608 2151.5,-555 2630.5,-555 2630.5,-608"/>
<text text-anchor="middle" x="2391" y="-592.8" font-family="Times New Roman,serif" font-size="14.00">Против твоего Xipe Totec и всех ужасов, которые творил твой бог пустоты &#13;</text>
<text text-anchor="middle" x="2391" y="-577.8" font-family="Times New Roman,serif" font-size="14.00">Ты говоришь, что у тебя нет обид &#13;</text>
<text text-anchor="middle" x="2391" y="-562.8" font-family="Times New Roman,serif" font-size="14.00">Pendejadas</text>
</g>
<!-- j2551409099&#45;&gt;j2866810308 -->
<g id="edge29" class="edge">
<title>j2551409099&#45;&gt;j2866810308</title>
<path fill="none" stroke="green" d="M1459.31,-855.39C1617.39,-809.08 2085.41,-672.01 2291.57,-611.62"/>
<polygon fill="green" stroke="green" points="2292.32,-615.05 2300.93,-608.88 2290.35,-608.33 2292.32,-615.05"/>
<text text-anchor="middle" x="1954" y="-716.8" font-family="Times New Roman,serif" font-size="14.00">true</text>
</g>
<!-- j757062835 -->
<g id="node25" class="node">
<title>j757062835</title>
<ellipse fill="none" stroke="orange" cx="1331" cy="-764" rx="111.28" ry="18"/>
<text text-anchor="middle" x="1331" y="-760.3" font-family="Times New Roman,serif" font-size="14.00">Check boolean LettieEntrati</text>
</g>
<!-- j2551409099&#45;&gt;j757062835 -->
<g id="edge30" class="edge">
<title>j2551409099&#45;&gt;j757062835</title>
<path fill="none" stroke="brown" d="M1393.95,-853.97C1382.05,-837.15 1363.67,-811.17 1349.84,-791.62"/>
<polygon fill="brown" stroke="brown" points="1352.78,-789.72 1344.14,-783.58 1347.06,-793.76 1352.78,-789.72"/>
<text text-anchor="middle" x="1392" y="-814.3" font-family="Times New Roman,serif" font-size="14.00">false</text>
</g>
<!-- j2749372787 -->
<g id="node26" class="node">
<title>j2749372787</title>
<ellipse fill="none" stroke="orange" cx="682" cy="-322" rx="122.38" ry="18"/>
<text text-anchor="middle" x="682" y="-318.3" font-family="Times New Roman,serif" font-size="14.00">Check boolean LettieReligion2</text>
</g>
<!-- j375077341&#45;&gt;j2749372787 -->
<g id="edge31" class="edge">
<title>j375077341&#45;&gt;j2749372787</title>
<path fill="none" stroke="black" d="M682,-391.55C682,-379.94 682,-364.72 682,-351.57"/>
<polygon fill="black" stroke="black" points="685.5,-351.75 682,-341.75 678.5,-351.75 685.5,-351.75"/>
</g>
<!-- j2217111082 -->
<g id="node27" class="node">
<title>j2217111082</title>
<polygon fill="none" stroke="blue" points="505.5,-445 168.5,-445 168.5,-377 505.5,-377 505.5,-445"/>
<text text-anchor="middle" x="337" y="-429.8" font-family="Times New Roman,serif" font-size="14.00">Mierda... &#13;</text>
<text text-anchor="middle" x="337" y="-414.8" font-family="Times New Roman,serif" font-size="14.00">Мне не нравится, когда она в моей голове, babas &#13;</text>
<text text-anchor="middle" x="337" y="-399.8" font-family="Times New Roman,serif" font-size="14.00">Но когда ты так это описываешь... нет, я её не виню &#13;</text>
<text text-anchor="middle" x="337" y="-384.8" font-family="Times New Roman,serif" font-size="14.00">Я бы поступила так же</text>
</g>
<!-- j2238378862&#45;&gt;j2217111082 -->
<g id="edge32" class="edge">
<title>j2238378862&#45;&gt;j2217111082</title>
<path fill="none" stroke="black" d="M337,-799.75C337,-780.62 337,-748.86 337,-721.5 337,-721.5 337,-721.5 337,-499 337,-485.33 337,-470.46 337,-456.93"/>
<polygon fill="black" stroke="black" points="340.5,-456.98 337,-446.98 333.5,-456.98 340.5,-456.98"/>
</g>
<!-- j644365851 -->
<g id="node28" class="node">
<title>j644365851</title>
<polygon fill="none" stroke="red" points="1840,-518 684,-518 684,-482 1840,-482 1840,-518"/>
<text text-anchor="middle" x="1262" y="-496.3" font-family="Times New Roman,serif" font-size="14.00">Ты права, я всё ещё держу обиды. Никто не идеален. Всё, что я говорю, это что ты относишься к ней, как к монстру. Ты можешь её винить за то, что она встречает отвращение вызовом?</text>
</g>
<!-- j2866810308&#45;&gt;j644365851 -->
<g id="edge33" class="edge">
<title>j2866810308&#45;&gt;j644365851</title>
<path fill="none" stroke="black" d="M2151.15,-555.76C2148.08,-555.5 2145.03,-555.25 2142,-555 1967.15,-540.69 1772.47,-528.37 1610.76,-519.12"/>
<polygon fill="black" stroke="black" points="1611.36,-515.65 1601.18,-518.58 1610.96,-522.64 1611.36,-515.65"/>
</g>
<!-- j4204025150 -->
<g id="node29" class="node">
<title>j4204025150</title>
<polygon fill="none" stroke="red" points="2905.5,-518 1858.5,-518 1858.5,-482 2905.5,-482 2905.5,-518"/>
<text text-anchor="middle" x="2382" y="-496.3" font-family="Times New Roman,serif" font-size="14.00">Ты права, я всё ещё держу обиду. Никто не идеален. Всё, что я говорю, это что она ближе всех к Технороту. Можешь представить, каково это — слышать их всё время?</text>
</g>
<!-- j2866810308&#45;&gt;j4204025150 -->
<g id="edge34" class="edge">
<title>j2866810308&#45;&gt;j4204025150</title>
<path fill="none" stroke="black" d="M2388.1,-554.91C2387.19,-546.86 2386.18,-537.91 2385.24,-529.66"/>
<polygon fill="black" stroke="black" points="2388.73,-529.3 2384.12,-519.76 2381.77,-530.09 2388.73,-529.3"/>
</g>
<!-- j626564565 -->
<g id="node30" class="node">
<title>j626564565</title>
<polygon fill="none" stroke="blue" points="1109,-608 729,-608 729,-555 1109,-555 1109,-608"/>
<text text-anchor="middle" x="919" y="-592.8" font-family="Times New Roman,serif" font-size="14.00">Против Энтрати и Орокин и того, что они с тобой сделали &#13;</text>
<text text-anchor="middle" x="919" y="-577.8" font-family="Times New Roman,serif" font-size="14.00">Ты говоришь, что у тебя нет обид? &#13;</text>
<text text-anchor="middle" x="919" y="-562.8" font-family="Times New Roman,serif" font-size="14.00">Pendejadas</text>
</g>
<!-- j757062835&#45;&gt;j626564565 -->
<g id="edge35" class="edge">
<title>j757062835&#45;&gt;j626564565</title>
<path fill="none" stroke="green" d="M1293.71,-746.66C1224.81,-716.48 1076.56,-651.53 988.6,-612.99"/>
<polygon fill="green" stroke="green" points="990.13,-609.84 979.56,-609.03 987.32,-616.25 990.13,-609.84"/>
<text text-anchor="middle" x="1184" y="-673.3" font-family="Times New Roman,serif" font-size="14.00">true</text>
</g>
<!-- j1666734191 -->
<g id="node31" class="node">
<title>j1666734191</title>
<ellipse fill="none" stroke="orange" cx="1331" cy="-677" rx="109.68" ry="18"/>
<text text-anchor="middle" x="1331" y="-673.3" font-family="Times New Roman,serif" font-size="14.00">Check boolean LettieDuviri</text>
</g>
<!-- j757062835&#45;&gt;j1666734191 -->
<g id="edge36" class="edge">
<title>j757062835&#45;&gt;j1666734191</title>
<path fill="none" stroke="brown" d="M1331,-745.8C1331,-734.58 1331,-719.67 1331,-706.69"/>
<polygon fill="brown" stroke="brown" points="1334.5,-706.98 1331,-696.98 1327.5,-706.98 1334.5,-706.98"/>
<text text-anchor="middle" x="1344" y="-716.8" font-family="Times New Roman,serif" font-size="14.00">false</text>
</g>
<!-- j592697899 -->
<g id="node32" class="node">
<title>j592697899</title>
<polygon fill="none" stroke="blue" points="1056,-253 548,-253 548,-215 1056,-215 1056,-253"/>
<text text-anchor="middle" x="802" y="-237.8" font-family="Times New Roman,serif" font-size="14.00">Однажды они наденут её кожу, как твой Xipe Totec надевает кожу того генерала &#13;</text>
<text text-anchor="middle" x="802" y="-222.8" font-family="Times New Roman,serif" font-size="14.00">И тебя не будет, чтобы её спасти</text>
</g>
<!-- j2749372787&#45;&gt;j592697899 -->
<g id="edge37" class="edge">
<title>j2749372787&#45;&gt;j592697899</title>
<path fill="none" stroke="green" d="M705.71,-304.01C723.2,-291.47 747.28,-274.21 766.99,-260.09"/>
<polygon fill="green" stroke="green" points="768.94,-263 775.03,-254.33 764.87,-257.31 768.94,-263"/>
<text text-anchor="middle" x="761" y="-274.8" font-family="Times New Roman,serif" font-size="14.00">true</text>
</g>
<!-- j872148052 -->
<g id="node33" class="node">
<title>j872148052</title>
<polygon fill="none" stroke="blue" points="529.5,-253 312.5,-253 312.5,-215 529.5,-215 529.5,-253"/>
<text text-anchor="middle" x="421" y="-237.8" font-family="Times New Roman,serif" font-size="14.00">Однажды они её поглотят &#13;</text>
<text text-anchor="middle" x="421" y="-222.8" font-family="Times New Roman,serif" font-size="14.00">И тебя не будет, чтобы её спасти</text>
</g>
<!-- j2749372787&#45;&gt;j872148052 -->
<g id="edge38" class="edge">
<title>j2749372787&#45;&gt;j872148052</title>
<path fill="none" stroke="brown" d="M633.52,-305.03C592.44,-291.49 533.12,-271.94 487.59,-256.94"/>
<polygon fill="brown" stroke="brown" points="488.95,-253.71 478.36,-253.9 486.76,-260.35 488.95,-253.71"/>
<text text-anchor="middle" x="588" y="-274.8" font-family="Times New Roman,serif" font-size="14.00">false</text>
</g>
<!-- j1276194400 -->
<g id="node34" class="node">
<title>j1276194400</title>
<ellipse fill="none" stroke="orange" cx="271" cy="-322" rx="64.19" ry="18"/>
<text text-anchor="middle" x="271" y="-318.3" font-family="Times New Roman,serif" font-size="14.00">+20 Chemistry</text>
</g>
<!-- j2217111082&#45;&gt;j1276194400 -->
<g id="edge39" class="edge">
<title>j2217111082&#45;&gt;j1276194400</title>
<path fill="none" stroke="black" d="M311.67,-376.61C304.62,-367.32 297.08,-357.38 290.43,-348.61"/>
<polygon fill="black" stroke="black" points="293.37,-346.7 284.54,-340.85 287.8,-350.93 293.37,-346.7"/>
</g>
<!-- j644365851&#45;&gt;j2217111082 -->
<g id="edge40" class="edge">
<title>j644365851&#45;&gt;j2217111082</title>
<path fill="none" stroke="black" d="M865.69,-481.51C754.43,-473.5 633.64,-461.86 523,-445 520.96,-444.69 518.91,-444.37 516.85,-444.05"/>
<polygon fill="black" stroke="black" points="517.65,-440.64 507.23,-442.54 516.57,-447.55 517.65,-440.64"/>
</g>
<!-- j4204025150&#45;&gt;j375077341 -->
<g id="edge41" class="edge">
<title>j4204025150&#45;&gt;j375077341</title>
<path fill="none" stroke="black" d="M2040.28,-481.51C1676.43,-462.89 1116.19,-434.22 842.96,-420.24"/>
<polygon fill="black" stroke="black" points="843.45,-416.76 833.28,-419.74 843.09,-423.75 843.45,-416.76"/>
</g>
<!-- j626564565&#45;&gt;j644365851 -->
<g id="edge42" class="edge">
<title>j626564565&#45;&gt;j644365851</title>
<path fill="none" stroke="black" d="M1030.84,-554.58C1077.77,-543.7 1131.53,-531.24 1175.38,-521.08"/>
<polygon fill="black" stroke="black" points="1176.17,-524.49 1185.12,-518.82 1174.59,-517.67 1176.17,-524.49"/>
</g>
<!-- j626564565&#45;&gt;j4204025150 -->
<g id="edge43" class="edge">
<title>j626564565&#45;&gt;j4204025150</title>
<path fill="none" stroke="black" d="M1109.35,-555.76C1112.25,-555.5 1115.14,-555.24 1118,-555 1258.65,-543.01 1576.7,-529.44 1858.56,-518.91"/>
<polygon fill="black" stroke="black" points="1858.46,-522.42 1868.32,-518.55 1858.2,-515.42 1858.46,-522.42"/>
</g>
<!-- j3504996397 -->
<g id="node35" class="node">
<title>j3504996397</title>
<polygon fill="none" stroke="blue" points="1525,-600.5 1127,-600.5 1127,-562.5 1525,-562.5 1525,-600.5"/>
<text text-anchor="middle" x="1326" y="-585.3" font-family="Times New Roman,serif" font-size="14.00">Против Дувири и места, что столько раз причиняло тебе боль &#13;</text>
<text text-anchor="middle" x="1326" y="-570.3" font-family="Times New Roman,serif" font-size="14.00">Ты говоришь мне, что у тебя нет обид</text>
</g>
<!-- j1666734191&#45;&gt;j3504996397 -->
<g id="edge44" class="edge">
<title>j1666734191&#45;&gt;j3504996397</title>
<path fill="none" stroke="green" d="M1330.08,-658.85C1329.38,-645.74 1328.4,-627.36 1327.57,-611.92"/>
<polygon fill="green" stroke="green" points="1331.09,-612.13 1327.06,-602.33 1324.1,-612.5 1331.09,-612.13"/>
<text text-anchor="middle" x="1341" y="-629.8" font-family="Times New Roman,serif" font-size="14.00">true</text>
</g>
<!-- j753218813 -->
<g id="node36" class="node">
<title>j753218813</title>
<polygon fill="none" stroke="blue" points="2133,-600.5 1543,-600.5 1543,-562.5 2133,-562.5 2133,-600.5"/>
<text text-anchor="middle" x="1838" y="-585.3" font-family="Times New Roman,serif" font-size="14.00">Твоя жизнь была ничем иным, как танцем с La Flaca, и ты говоришь мне, что у тебя нет обид &#13;</text>
<text text-anchor="middle" x="1838" y="-570.3" font-family="Times New Roman,serif" font-size="14.00">Pendejadas</text>
</g>
<!-- j1666734191&#45;&gt;j753218813 -->
<g id="edge45" class="edge">
<title>j1666734191&#45;&gt;j753218813</title>
<path fill="none" stroke="brown" d="M1402.03,-662.9C1486.26,-647.37 1627.68,-621.29 1726.54,-603.06"/>
<polygon fill="brown" stroke="brown" points="1727.09,-606.51 1736.29,-601.26 1725.82,-599.63 1727.09,-606.51"/>
<text text-anchor="middle" x="1612" y="-629.8" font-family="Times New Roman,serif" font-size="14.00">false</text>
</g>
<!-- j2654007516 -->
<g id="node37" class="node">
<title>j2654007516</title>
<polygon fill="none" stroke="blue" points="629,-126 283,-126 283,-73 629,-73 629,-126"/>
<text text-anchor="middle" x="456" y="-110.8" font-family="Times New Roman,serif" font-size="14.00">Уходи &#13;</text>
<text text-anchor="middle" x="456" y="-95.8" font-family="Times New Roman,serif" font-size="14.00">Проваливай &#13;</text>
<text text-anchor="middle" x="456" y="-80.8" font-family="Times New Roman,serif" font-size="14.00">Слишком много дел, чтобы тратить на это своё время</text>
</g>
<!-- j592697899&#45;&gt;j2654007516 -->
<g id="edge46" class="edge">
<title>j592697899&#45;&gt;j2654007516</title>
<path fill="none" stroke="black" d="M753.89,-214.58C697.05,-192.81 601.69,-156.29 534.19,-130.44"/>
<polygon fill="black" stroke="black" points="535.61,-127.24 525.02,-126.93 533.1,-133.78 535.61,-127.24"/>
</g>
<!-- j872148052&#45;&gt;j2654007516 -->
<g id="edge47" class="edge">
<title>j872148052&#45;&gt;j2654007516</title>
<path fill="none" stroke="black" d="M433.55,-214.6C436.76,-209.14 439.9,-203.01 442,-197 448.64,-177.99 452.13,-155.81 453.97,-137.52"/>
<polygon fill="black" stroke="black" points="457.45,-137.9 454.82,-127.63 450.47,-137.29 457.45,-137.9"/>
</g>
<!-- j566780834 -->
<g id="node38" class="node">
<title>j566780834</title>
<polygon fill="none" stroke="blue" points="440.5,-197 29.5,-197 29.5,-144 440.5,-144 440.5,-197"/>
<text text-anchor="middle" x="235" y="-181.8" font-family="Times New Roman,serif" font-size="14.00">Скажу тебе что &#13;</text>
<text text-anchor="middle" x="235" y="-166.8" font-family="Times New Roman,serif" font-size="14.00">Ты заставишь bruja metiche держаться подальше от моей головы &#13;</text>
<text text-anchor="middle" x="235" y="-151.8" font-family="Times New Roman,serif" font-size="14.00">А... я поработаю над тем, чтобы быть с ней помягче, ¿sí?</text>
</g>
<!-- j1276194400&#45;&gt;j566780834 -->
<g id="edge48" class="edge">
<title>j1276194400&#45;&gt;j566780834</title>
<path fill="none" stroke="black" d="M266.8,-303.56C261.21,-280.34 251.18,-238.67 243.87,-208.34"/>
<polygon fill="black" stroke="black" points="247.32,-207.7 241.57,-198.8 240.51,-209.34 247.32,-207.7"/>
</g>
<!-- j3504996397&#45;&gt;j644365851 -->
<g id="edge49" class="edge">
<title>j3504996397&#45;&gt;j644365851</title>
<path fill="none" stroke="black" d="M1311.16,-562.06C1302.76,-551.64 1292.14,-538.44 1282.91,-526.98"/>
<polygon fill="black" stroke="black" points="1285.83,-525.02 1276.84,-519.43 1280.38,-529.41 1285.83,-525.02"/>
</g>
<!-- j3504996397&#45;&gt;j4204025150 -->
<g id="edge50" class="edge">
<title>j3504996397&#45;&gt;j4204025150</title>
<path fill="none" stroke="black" d="M1467.7,-562C1489.87,-559.44 1512.54,-557 1534,-555 1694.59,-540.06 1872.67,-528.03 2024.02,-519.15"/>
<polygon fill="black" stroke="black" points="2024.04,-522.65 2033.82,-518.58 2023.63,-515.67 2024.04,-522.65"/>
</g>
<!-- j753218813&#45;&gt;j644365851 -->
<g id="edge51" class="edge">
<title>j753218813&#45;&gt;j644365851</title>
<path fill="none" stroke="black" d="M1704.04,-562.01C1612.79,-549.42 1492.29,-532.79 1400.16,-520.07"/>
<polygon fill="black" stroke="black" points="1400.67,-516.61 1390.28,-518.71 1399.71,-523.54 1400.67,-516.61"/>
</g>
<!-- j753218813&#45;&gt;j4204025150 -->
<g id="edge52" class="edge">
<title>j753218813&#45;&gt;j4204025150</title>
<path fill="none" stroke="black" d="M1964.51,-562.01C2050.52,-549.44 2164.04,-532.85 2250.98,-520.15"/>
<polygon fill="black" stroke="black" points="2251.37,-523.63 2260.76,-518.72 2250.36,-516.7 2251.37,-523.63"/>
</g>
<!-- j2654007516&#45;&gt;Chat ends. -->
<g id="edge53" class="edge">
<title>j2654007516&#45;&gt;Chat ends.</title>
<path fill="none" stroke="black" d="M383.94,-72.58C349.73,-60.27 309.89,-45.94 280.03,-35.2"/>
<polygon fill="black" stroke="black" points="281.53,-32.02 270.94,-31.93 279.16,-38.61 281.53,-32.02"/>
</g>
<!-- j566780834&#45;&gt;Chat ends. -->
<g id="edge54" class="edge">
<title>j566780834&#45;&gt;Chat ends.</title>
<path fill="none" stroke="black" d="M235,-143.63C235,-116.83 235,-75.08 235,-47.39"/>
<polygon fill="black" stroke="black" points="238.5,-47.63 235,-37.63 231.5,-47.63 238.5,-47.63"/>
</g>
</g>
</svg>
