<?xml version="1.0" encoding="UTF-8" standalone="no"?>
<!DOCTYPE svg PUBLIC "-//W3C//DTD SVG 1.1//EN"
 "http://www.w3.org/Graphics/SVG/1.1/DTD/svg11.dtd">
<!-- Generated by graphviz version 7.1.0 (20230121.1956)
 -->
<!-- Pages: 1 -->
<svg width="1454pt" height="2843pt"
 viewBox="0.00 0.00 1453.74 2843.00" xmlns="http://www.w3.org/2000/svg" xmlns:xlink="http://www.w3.org/1999/xlink">
<g id="graph0" class="graph" transform="scale(1 1) rotate(0) translate(4 2839)">
<polygon fill="white" stroke="none" points="-4,4 -4,-2839 1449.74,-2839 1449.74,4 -4,4"/>
<!-- LettieConfession begins. -->
<g id="node1" class="node">
<title>LettieConfession begins.</title>
<ellipse fill="none" stroke="orange" cx="100.74" cy="-2817" rx="100.98" ry="18"/>
<text text-anchor="middle" x="100.74" y="-2813.3" font-family="Times New Roman,serif" font-size="14.00">LettieConfession begins.</text>
</g>
<!-- j3507132931 -->
<g id="node2" class="node">
<title>j3507132931</title>
<ellipse fill="none" stroke="orange" cx="100.74" cy="-2744" rx="98.28" ry="18"/>
<text text-anchor="middle" x="100.74" y="-2740.3" font-family="Times New Roman,serif" font-size="14.00">Check boolean IsDating</text>
</g>
<!-- LettieConfession begins.&#45;&gt;j3507132931 -->
<g id="edge1" class="edge">
<title>LettieConfession begins.&#45;&gt;j3507132931</title>
<path fill="none" stroke="black" d="M100.74,-2798.81C100.74,-2791.23 100.74,-2782.1 100.74,-2773.54"/>
<polygon fill="black" stroke="black" points="104.24,-2773.54 100.74,-2763.54 97.24,-2773.54 104.24,-2773.54"/>
</g>
<!-- Chat ends. -->
<g id="node3" class="node">
<title>Chat ends.</title>
<ellipse fill="none" stroke="orange" cx="1135.74" cy="-18" rx="50.09" ry="18"/>
<text text-anchor="middle" x="1135.74" y="-14.3" font-family="Times New Roman,serif" font-size="14.00">Chat ends.</text>
</g>
<!-- j3507132931&#45;&gt;Chat ends. -->
<g id="edge2" class="edge">
<title>j3507132931&#45;&gt;Chat ends.</title>
<path fill="none" stroke="green" d="M95.59,-2725.72C90.91,-2708.47 84.74,-2681.15 84.74,-2657 84.74,-2657 84.74,-2657 84.74,-90 84.74,-40.09 849.18,-23.67 1074.16,-19.92"/>
<polygon fill="green" stroke="green" points="1073.95,-23.42 1083.89,-19.76 1073.83,-16.42 1073.95,-23.42"/>
<text text-anchor="middle" x="95.74" y="-1335.8" font-family="Times New Roman,serif" font-size="14.00">true</text>
</g>
<!-- j1167025123 -->
<g id="node4" class="node">
<title>j1167025123</title>
<polygon fill="none" stroke="blue" points="1186.74,-2675 1114.74,-2675 1114.74,-2637 1186.74,-2637 1186.74,-2675"/>
<text text-anchor="middle" x="1150.74" y="-2659.8" font-family="Times New Roman,serif" font-size="14.00">Solecito &#13;</text>
<text text-anchor="middle" x="1150.74" y="-2644.8" font-family="Times New Roman,serif" font-size="14.00">Ты здесь</text>
</g>
<!-- j3507132931&#45;&gt;j1167025123 -->
<g id="edge3" class="edge">
<title>j3507132931&#45;&gt;j1167025123</title>
<path fill="none" stroke="brown" d="M188.91,-2735.78C402.23,-2718.31 940.61,-2674.21 1103.4,-2660.88"/>
<polygon fill="brown" stroke="brown" points="1103.27,-2664.4 1112.95,-2660.1 1102.7,-2657.42 1103.27,-2664.4"/>
<text text-anchor="middle" x="700.74" y="-2696.8" font-family="Times New Roman,serif" font-size="14.00">false</text>
</g>
<!-- j1826406026 -->
<g id="node5" class="node">
<title>j1826406026</title>
<polygon fill="none" stroke="red" points="1177.74,-2600 1123.74,-2600 1123.74,-2564 1177.74,-2564 1177.74,-2600"/>
<text text-anchor="middle" x="1150.74" y="-2578.3" font-family="Times New Roman,serif" font-size="14.00">Да?..</text>
</g>
<!-- j1167025123&#45;&gt;j1826406026 -->
<g id="edge4" class="edge">
<title>j1167025123&#45;&gt;j1826406026</title>
<path fill="none" stroke="black" d="M1150.74,-2636.83C1150.74,-2629.24 1150.74,-2620.24 1150.74,-2611.79"/>
<polygon fill="black" stroke="black" points="1154.24,-2611.93 1150.74,-2601.93 1147.24,-2611.93 1154.24,-2611.93"/>
</g>
<!-- j3456118237 -->
<g id="node6" class="node">
<title>j3456118237</title>
<polygon fill="none" stroke="red" points="1445.74,-2546 1333.74,-2546 1333.74,-2510 1445.74,-2510 1445.74,-2546"/>
<text text-anchor="middle" x="1389.74" y="-2524.3" font-family="Times New Roman,serif" font-size="14.00">[Игнорировать]</text>
</g>
<!-- j1167025123&#45;&gt;j3456118237 -->
<g id="edge5" class="edge">
<title>j1167025123&#45;&gt;j3456118237</title>
<path fill="none" stroke="black" d="M1185.75,-2636.54C1228.42,-2614.05 1300.52,-2576.04 1346.58,-2551.75"/>
<polygon fill="black" stroke="black" points="1348.01,-2554.96 1355.23,-2547.2 1344.75,-2548.76 1348.01,-2554.96"/>
</g>
<!-- j4235048782 -->
<g id="node7" class="node">
<title>j4235048782</title>
<polygon fill="none" stroke="blue" points="1325.74,-2492 975.74,-2492 975.74,-2409 1325.74,-2409 1325.74,-2492"/>
<text text-anchor="middle" x="1150.74" y="-2476.8" font-family="Times New Roman,serif" font-size="14.00">Я... &#13;</text>
<text text-anchor="middle" x="1150.74" y="-2461.8" font-family="Times New Roman,serif" font-size="14.00">Хотела сказать &#13;</text>
<text text-anchor="middle" x="1150.74" y="-2446.8" font-family="Times New Roman,serif" font-size="14.00">Primero, lo siento &#13;</text>
<text text-anchor="middle" x="1150.74" y="-2431.8" font-family="Times New Roman,serif" font-size="14.00">Мне не стоило так реагировать &#13;</text>
<text text-anchor="middle" x="1150.74" y="-2416.8" font-family="Times New Roman,serif" font-size="14.00">Segundo, ты действительно веришь в сказанное тобой?</text>
</g>
<!-- j1826406026&#45;&gt;j4235048782 -->
<g id="edge6" class="edge">
<title>j1826406026&#45;&gt;j4235048782</title>
<path fill="none" stroke="black" d="M1150.74,-2563.54C1150.74,-2548.14 1150.74,-2524.92 1150.74,-2503.59"/>
<polygon fill="black" stroke="black" points="1154.24,-2503.85 1150.74,-2493.85 1147.24,-2503.85 1154.24,-2503.85"/>
</g>
<!-- j3456118237&#45;&gt;Chat ends. -->
<g id="edge7" class="edge">
<title>j3456118237&#45;&gt;Chat ends.</title>
<path fill="none" stroke="black" d="M1401.89,-2509.9C1418.36,-2484.99 1445.74,-2436.71 1445.74,-2391 1445.74,-2391 1445.74,-2391 1445.74,-90 1445.74,-39.55 1287.78,-24.95 1197.37,-20.72"/>
<polygon fill="black" stroke="black" points="1197.55,-17.23 1187.4,-20.29 1197.24,-24.22 1197.55,-17.23"/>
</g>
<!-- j4042626794 -->
<g id="node8" class="node">
<title>j4042626794</title>
<polygon fill="none" stroke="red" points="1150.74,-2372 954.74,-2372 954.74,-2336 1150.74,-2336 1150.74,-2372"/>
<text text-anchor="middle" x="1052.74" y="-2350.3" font-family="Times New Roman,serif" font-size="14.00">Я имею в виду каждое слово.</text>
</g>
<!-- j4235048782&#45;&gt;j4042626794 -->
<g id="edge8" class="edge">
<title>j4235048782&#45;&gt;j4042626794</title>
<path fill="none" stroke="black" d="M1108.33,-2408.6C1098.37,-2399 1088.04,-2389.04 1079.03,-2380.35"/>
<polygon fill="black" stroke="black" points="1081.57,-2377.94 1071.94,-2373.51 1076.71,-2382.97 1081.57,-2377.94"/>
</g>
<!-- j3057791246 -->
<g id="node9" class="node">
<title>j3057791246</title>
<polygon fill="none" stroke="red" points="1322.74,-2372 1170.74,-2372 1170.74,-2336 1322.74,-2336 1322.74,-2372"/>
<text text-anchor="middle" x="1246.74" y="-2350.3" font-family="Times New Roman,serif" font-size="14.00">Это всё мои выдумки.</text>
</g>
<!-- j4235048782&#45;&gt;j3057791246 -->
<g id="edge9" class="edge">
<title>j4235048782&#45;&gt;j3057791246</title>
<path fill="none" stroke="black" d="M1192.29,-2408.6C1202.12,-2398.92 1212.32,-2388.88 1221.2,-2380.15"/>
<polygon fill="black" stroke="black" points="1223.49,-2382.79 1228.17,-2373.28 1218.58,-2377.81 1223.49,-2382.79"/>
</g>
<!-- j3147729670 -->
<g id="node10" class="node">
<title>j3147729670</title>
<polygon fill="none" stroke="blue" points="1095.74,-2299 981.74,-2299 981.74,-2261 1095.74,-2261 1095.74,-2299"/>
<text text-anchor="middle" x="1038.74" y="-2283.8" font-family="Times New Roman,serif" font-size="14.00">Ааа, ну ладно... &#13;</text>
<text text-anchor="middle" x="1038.74" y="-2268.8" font-family="Times New Roman,serif" font-size="14.00">Mierda</text>
</g>
<!-- j4042626794&#45;&gt;j3147729670 -->
<g id="edge10" class="edge">
<title>j4042626794&#45;&gt;j3147729670</title>
<path fill="none" stroke="black" d="M1049.35,-2335.57C1047.88,-2328.02 1046.12,-2318.96 1044.46,-2310.42"/>
<polygon fill="black" stroke="black" points="1047.93,-2309.91 1042.58,-2300.76 1041.06,-2311.24 1047.93,-2309.91"/>
</g>
<!-- j4035375556 -->
<g id="node11" class="node">
<title>j4035375556</title>
<ellipse fill="none" stroke="orange" cx="1269.74" cy="-2280" rx="135.68" ry="18"/>
<text text-anchor="middle" x="1269.74" y="-2276.3" font-family="Times New Roman,serif" font-size="14.00">Boolean LettieNoDate is now true.</text>
</g>
<!-- j3057791246&#45;&gt;j4035375556 -->
<g id="edge11" class="edge">
<title>j3057791246&#45;&gt;j4035375556</title>
<path fill="none" stroke="black" d="M1252.31,-2335.57C1254.85,-2327.61 1257.93,-2317.98 1260.78,-2309.05"/>
<polygon fill="black" stroke="black" points="1264.06,-2310.3 1263.76,-2299.71 1257.39,-2308.17 1264.06,-2310.3"/>
</g>
<!-- j3224298303 -->
<g id="node12" class="node">
<title>j3224298303</title>
<polygon fill="none" stroke="red" points="983.24,-2170 650.24,-2170 650.24,-2134 983.24,-2134 983.24,-2170"/>
<text text-anchor="middle" x="816.74" y="-2148.3" font-family="Times New Roman,serif" font-size="14.00">Если это не взаимно, просто скажи мне, я выдержу.</text>
</g>
<!-- j3147729670&#45;&gt;j3224298303 -->
<g id="edge12" class="edge">
<title>j3147729670&#45;&gt;j3224298303</title>
<path fill="none" stroke="black" d="M981.48,-2271.95C924.62,-2263.68 843.07,-2247.99 822.74,-2224 813,-2212.5 811.17,-2195.85 811.93,-2181.57"/>
<polygon fill="black" stroke="black" points="815.4,-2182.1 812.91,-2171.8 808.43,-2181.4 815.4,-2182.1"/>
</g>
<!-- j765422719 -->
<g id="node13" class="node">
<title>j765422719</title>
<polygon fill="none" stroke="red" points="1246.24,-2224 831.24,-2224 831.24,-2188 1246.24,-2188 1246.24,-2224"/>
<text text-anchor="middle" x="1038.74" y="-2202.3" font-family="Times New Roman,serif" font-size="14.00">Я до сих пор не понимаю, хорошее ли это «mierda» или плохое…</text>
</g>
<!-- j3147729670&#45;&gt;j765422719 -->
<g id="edge13" class="edge">
<title>j3147729670&#45;&gt;j765422719</title>
<path fill="none" stroke="black" d="M1038.74,-2260.83C1038.74,-2253.24 1038.74,-2244.24 1038.74,-2235.79"/>
<polygon fill="black" stroke="black" points="1042.24,-2235.93 1038.74,-2225.93 1035.24,-2235.93 1042.24,-2235.93"/>
</g>
<!-- j2627987937 -->
<g id="node14" class="node">
<title>j2627987937</title>
<polygon fill="none" stroke="blue" points="1430.74,-2045 1118.74,-2045 1118.74,-1977 1430.74,-1977 1430.74,-2045"/>
<text text-anchor="middle" x="1274.74" y="-2029.8" font-family="Times New Roman,serif" font-size="14.00">Мм &#13;</text>
<text text-anchor="middle" x="1274.74" y="-2014.8" font-family="Times New Roman,serif" font-size="14.00">Стоило догадаться &#13;</text>
<text text-anchor="middle" x="1274.74" y="-1999.8" font-family="Times New Roman,serif" font-size="14.00">Иди играй с Куинси &#13;</text>
<text text-anchor="middle" x="1274.74" y="-1984.8" font-family="Times New Roman,serif" font-size="14.00">Un escuincle как он, кажется, больше твоего типа</text>
</g>
<!-- j4035375556&#45;&gt;j2627987937 -->
<g id="edge14" class="edge">
<title>j4035375556&#45;&gt;j2627987937</title>
<path fill="none" stroke="black" d="M1270.06,-2261.89C1270.83,-2221.1 1272.77,-2117.07 1273.9,-2056.87"/>
<polygon fill="black" stroke="black" points="1277.4,-2057.03 1274.09,-2046.96 1270.4,-2056.9 1277.4,-2057.03"/>
</g>
<!-- j2720179985 -->
<g id="node15" class="node">
<title>j2720179985</title>
<ellipse fill="none" stroke="orange" cx="888.74" cy="-1941" rx="111.58" ry="18"/>
<text text-anchor="middle" x="888.74" y="-1937.3" font-family="Times New Roman,serif" font-size="14.00">Check boolean LettieTrust1</text>
</g>
<!-- j3224298303&#45;&gt;j2720179985 -->
<g id="edge15" class="edge">
<title>j3224298303&#45;&gt;j2720179985</title>
<path fill="none" stroke="black" d="M822.76,-2133.54C835.23,-2097.34 864,-2013.82 879.1,-1970"/>
<polygon fill="black" stroke="black" points="882.35,-1971.29 882.3,-1960.69 875.73,-1969.01 882.35,-1971.29"/>
</g>
<!-- j2058406683 -->
<g id="node16" class="node">
<title>j2058406683</title>
<polygon fill="none" stroke="blue" points="1110.74,-2116 876.74,-2116 876.74,-2063 1110.74,-2063 1110.74,-2116"/>
<text text-anchor="middle" x="993.74" y="-2100.8" font-family="Times New Roman,serif" font-size="14.00">Jajaja, это значит «дерьмо»&#13;</text>
<text text-anchor="middle" x="993.74" y="-2085.8" font-family="Times New Roman,serif" font-size="14.00">Но нет, нет, это не плохой разговор&#13;</text>
<text text-anchor="middle" x="993.74" y="-2070.8" font-family="Times New Roman,serif" font-size="14.00">Просто —</text>
</g>
<!-- j765422719&#45;&gt;j2058406683 -->
<g id="edge16" class="edge">
<title>j765422719&#45;&gt;j2058406683</title>
<path fill="none" stroke="black" d="M1031.91,-2187.61C1025.57,-2171.49 1015.94,-2147 1007.95,-2126.64"/>
<polygon fill="black" stroke="black" points="1011.29,-2125.58 1004.37,-2117.55 1004.77,-2128.14 1011.29,-2125.58"/>
</g>
<!-- j2627987937&#45;&gt;Chat ends. -->
<g id="edge17" class="edge">
<title>j2627987937&#45;&gt;Chat ends.</title>
<path fill="none" stroke="black" d="M1352.49,-1976.61C1381.6,-1958.49 1407.74,-1932.7 1407.74,-1898.5 1407.74,-1898.5 1407.74,-1898.5 1407.74,-90 1407.74,-46.62 1276.6,-29.25 1196.43,-22.69"/>
<polygon fill="black" stroke="black" points="1196.75,-19.2 1186.51,-21.91 1196.2,-26.18 1196.75,-19.2"/>
</g>
<!-- j675720518 -->
<g id="node17" class="node">
<title>j675720518</title>
<ellipse fill="none" stroke="orange" cx="768.74" cy="-1838" rx="111.58" ry="18"/>
<text text-anchor="middle" x="768.74" y="-1834.3" font-family="Times New Roman,serif" font-size="14.00">Check boolean LettieTrust2</text>
</g>
<!-- j2720179985&#45;&gt;j675720518 -->
<g id="edge18" class="edge">
<title>j2720179985&#45;&gt;j675720518</title>
<path fill="none" stroke="green" d="M868.38,-1922.87C848.87,-1906.44 819.24,-1881.5 797.35,-1863.08"/>
<polygon fill="green" stroke="green" points="799.86,-1860.62 789.95,-1856.85 795.35,-1865.97 799.86,-1860.62"/>
<text text-anchor="middle" x="856.74" y="-1893.8" font-family="Times New Roman,serif" font-size="14.00">true</text>
</g>
<!-- j1208720996 -->
<g id="node18" class="node">
<title>j1208720996</title>
<polygon fill="none" stroke="blue" points="1365.24,-1872 898.24,-1872 898.24,-1804 1365.24,-1804 1365.24,-1872"/>
<text text-anchor="middle" x="1131.74" y="-1856.8" font-family="Times New Roman,serif" font-size="14.00">Слушай &#13;</text>
<text text-anchor="middle" x="1131.74" y="-1841.8" font-family="Times New Roman,serif" font-size="14.00">Доверие для меня — это очень сложная вещь &#13;</text>
<text text-anchor="middle" x="1131.74" y="-1826.8" font-family="Times New Roman,serif" font-size="14.00">Это самое важное в отношениях &#13;</text>
<text text-anchor="middle" x="1131.74" y="-1811.8" font-family="Times New Roman,serif" font-size="14.00">И если его предать, особенно в такой ситуации, это уже нельзя исправить</text>
</g>
<!-- j2720179985&#45;&gt;j1208720996 -->
<g id="edge19" class="edge">
<title>j2720179985&#45;&gt;j1208720996</title>
<path fill="none" stroke="brown" d="M927.78,-1923.77C958.26,-1911.1 1001.85,-1892.99 1040.92,-1876.75"/>
<polygon fill="brown" stroke="brown" points="1041.98,-1880.1 1049.87,-1873.03 1039.29,-1873.63 1041.98,-1880.1"/>
<text text-anchor="middle" x="1015.74" y="-1893.8" font-family="Times New Roman,serif" font-size="14.00">false</text>
</g>
<!-- j2058406683&#45;&gt;j2720179985 -->
<g id="edge20" class="edge">
<title>j2058406683&#45;&gt;j2720179985</title>
<path fill="none" stroke="black" d="M975.21,-2062.65C956.23,-2036.16 926.87,-1995.19 907.72,-1968.48"/>
<polygon fill="black" stroke="black" points="910.72,-1966.66 902.05,-1960.57 905.03,-1970.74 910.72,-1966.66"/>
</g>
<!-- j1042230360 -->
<g id="node19" class="node">
<title>j1042230360</title>
<polygon fill="none" stroke="blue" points="709.74,-1682 421.74,-1682 421.74,-1629 709.74,-1629 709.74,-1682"/>
<text text-anchor="middle" x="565.74" y="-1666.8" font-family="Times New Roman,serif" font-size="14.00">Ты знаешь, как трудно мне доверять людям &#13;</text>
<text text-anchor="middle" x="565.74" y="-1651.8" font-family="Times New Roman,serif" font-size="14.00">И как важно для меня доверие ¿no? &#13;</text>
<text text-anchor="middle" x="565.74" y="-1636.8" font-family="Times New Roman,serif" font-size="14.00">Ну... в отношениях это ещё важнее</text>
</g>
<!-- j675720518&#45;&gt;j1042230360 -->
<g id="edge21" class="edge">
<title>j675720518&#45;&gt;j1042230360</title>
<path fill="none" stroke="green" d="M688.13,-1825.23C644.43,-1814.3 593.93,-1793.3 566.74,-1753 555.12,-1735.78 554.52,-1712.61 556.99,-1693.29"/>
<polygon fill="green" stroke="green" points="560.42,-1694.06 558.56,-1683.63 553.51,-1692.94 560.42,-1694.06"/>
<text text-anchor="middle" x="608.74" y="-1774.8" font-family="Times New Roman,serif" font-size="14.00">true</text>
</g>
<!-- j2336550535 -->
<g id="node20" class="node">
<title>j2336550535</title>
<polygon fill="none" stroke="blue" points="981.74,-1753 575.74,-1753 575.74,-1700 981.74,-1700 981.74,-1753"/>
<text text-anchor="middle" x="778.74" y="-1737.8" font-family="Times New Roman,serif" font-size="14.00">Ты знаешь, что доверие — это очень сложная вещь для меня &#13;</text>
<text text-anchor="middle" x="778.74" y="-1722.8" font-family="Times New Roman,serif" font-size="14.00">И это самое важное в отношениях &#13;</text>
<text text-anchor="middle" x="778.74" y="-1707.8" font-family="Times New Roman,serif" font-size="14.00">Преданное доверие в такой ситуации невозможно восстановить</text>
</g>
<!-- j675720518&#45;&gt;j2336550535 -->
<g id="edge22" class="edge">
<title>j675720518&#45;&gt;j2336550535</title>
<path fill="none" stroke="brown" d="M770.3,-1819.89C771.64,-1805.22 773.62,-1783.55 775.33,-1764.88"/>
<polygon fill="brown" stroke="brown" points="778.81,-1765.23 776.23,-1754.96 771.84,-1764.6 778.81,-1765.23"/>
<text text-anchor="middle" x="786.74" y="-1774.8" font-family="Times New Roman,serif" font-size="14.00">false</text>
</g>
<!-- j416678767 -->
<g id="node21" class="node">
<title>j416678767</title>
<ellipse fill="none" stroke="orange" cx="1131.74" cy="-1726.5" rx="131.88" ry="18"/>
<text text-anchor="middle" x="1131.74" y="-1722.8" font-family="Times New Roman,serif" font-size="14.00">Boolean LettieTrust1 is now true.</text>
</g>
<!-- j1208720996&#45;&gt;j416678767 -->
<g id="edge23" class="edge">
<title>j1208720996&#45;&gt;j416678767</title>
<path fill="none" stroke="black" d="M1131.74,-1803.55C1131.74,-1788.42 1131.74,-1770.71 1131.74,-1756.19"/>
<polygon fill="black" stroke="black" points="1135.24,-1756.39 1131.74,-1746.39 1128.24,-1756.39 1135.24,-1756.39"/>
</g>
<!-- j4269887957 -->
<g id="node22" class="node">
<title>j4269887957</title>
<polygon fill="none" stroke="blue" points="1042.24,-1538 487.24,-1538 487.24,-1455 1042.24,-1455 1042.24,-1538"/>
<text text-anchor="middle" x="764.74" y="-1522.8" font-family="Times New Roman,serif" font-size="14.00">Потому что такие отношения, как я предпочитаю, часто бывают болезненными, solecito &#13;</text>
<text text-anchor="middle" x="764.74" y="-1507.8" font-family="Times New Roman,serif" font-size="14.00">Если ты понимаешь, о чём я &#13;</text>
<text text-anchor="middle" x="764.74" y="-1492.8" font-family="Times New Roman,serif" font-size="14.00">Только настолько, насколько мы этого хотим &#13;</text>
<text text-anchor="middle" x="764.74" y="-1477.8" font-family="Times New Roman,serif" font-size="14.00">И только до той степени, до которой ты готова зайти &#13;</text>
<text text-anchor="middle" x="764.74" y="-1462.8" font-family="Times New Roman,serif" font-size="14.00">Потому что такие вещи требуют доверия</text>
</g>
<!-- j1042230360&#45;&gt;j4269887957 -->
<g id="edge24" class="edge">
<title>j1042230360&#45;&gt;j4269887957</title>
<path fill="none" stroke="black" d="M585.81,-1628.75C599.41,-1612.26 618.38,-1591.03 637.74,-1575 650.8,-1564.19 665.51,-1553.83 680.16,-1544.4"/>
<polygon fill="black" stroke="black" points="681.9,-1547.45 688.49,-1539.15 678.16,-1541.53 681.9,-1547.45"/>
</g>
<!-- j170893038 -->
<g id="node23" class="node">
<title>j170893038</title>
<ellipse fill="none" stroke="orange" cx="778.74" cy="-1593" rx="131.88" ry="18"/>
<text text-anchor="middle" x="778.74" y="-1589.3" font-family="Times New Roman,serif" font-size="14.00">Boolean LettieTrust2 is now true.</text>
</g>
<!-- j2336550535&#45;&gt;j170893038 -->
<g id="edge25" class="edge">
<title>j2336550535&#45;&gt;j170893038</title>
<path fill="none" stroke="black" d="M778.74,-1699.52C778.74,-1677.31 778.74,-1645.41 778.74,-1622.51"/>
<polygon fill="black" stroke="black" points="782.24,-1622.65 778.74,-1612.65 775.24,-1622.65 782.24,-1622.65"/>
</g>
<!-- j416678767&#45;&gt;j170893038 -->
<g id="edge26" class="edge">
<title>j416678767&#45;&gt;j170893038</title>
<path fill="none" stroke="black" d="M1087.75,-1709.11C1023.23,-1685.08 903.05,-1640.31 833.1,-1614.25"/>
<polygon fill="black" stroke="black" points="834.74,-1611.13 824.15,-1610.92 832.3,-1617.69 834.74,-1611.13"/>
</g>
<!-- j1064378688 -->
<g id="node24" class="node">
<title>j1064378688</title>
<polygon fill="none" stroke="blue" points="879.24,-1418 650.24,-1418 650.24,-1365 879.24,-1365 879.24,-1418"/>
<text text-anchor="middle" x="764.74" y="-1402.8" font-family="Times New Roman,serif" font-size="14.00">А преданное доверие в таком деле &#13;</text>
<text text-anchor="middle" x="764.74" y="-1387.8" font-family="Times New Roman,serif" font-size="14.00">невозможно восстановить &#13;</text>
<text text-anchor="middle" x="764.74" y="-1372.8" font-family="Times New Roman,serif" font-size="14.00">¿Me explico?</text>
</g>
<!-- j4269887957&#45;&gt;j1064378688 -->
<g id="edge27" class="edge">
<title>j4269887957&#45;&gt;j1064378688</title>
<path fill="none" stroke="black" d="M764.74,-1454.79C764.74,-1446.56 764.74,-1437.93 764.74,-1429.82"/>
<polygon fill="black" stroke="black" points="768.24,-1429.92 764.74,-1419.92 761.24,-1429.92 768.24,-1429.92"/>
</g>
<!-- j170893038&#45;&gt;j4269887957 -->
<g id="edge28" class="edge">
<title>j170893038&#45;&gt;j4269887957</title>
<path fill="none" stroke="black" d="M776.17,-1574.67C775.1,-1567.39 773.78,-1558.51 772.43,-1549.4"/>
<polygon fill="black" stroke="black" points="775.93,-1549.14 771,-1539.76 769.01,-1550.16 775.93,-1549.14"/>
</g>
<!-- j201562768 -->
<g id="node25" class="node">
<title>j201562768</title>
<polygon fill="none" stroke="red" points="560.24,-1314 113.24,-1314 113.24,-1278 560.24,-1278 560.24,-1314"/>
<text text-anchor="middle" x="336.74" y="-1292.3" font-family="Times New Roman,serif" font-size="14.00">Я не говорю «нет», но можно спросить… почему тебе нравится боль?</text>
</g>
<!-- j1064378688&#45;&gt;j201562768 -->
<g id="edge29" class="edge">
<title>j1064378688&#45;&gt;j201562768</title>
<path fill="none" stroke="black" d="M649.76,-1365.38C580.13,-1350.17 492.55,-1331.04 427.75,-1316.88"/>
<polygon fill="black" stroke="black" points="428.74,-1313.51 418.22,-1314.8 427.24,-1320.35 428.74,-1313.51"/>
</g>
<!-- j600406697 -->
<g id="node26" class="node">
<title>j600406697</title>
<polygon fill="none" stroke="red" points="951.24,-1314 578.24,-1314 578.24,-1278 951.24,-1278 951.24,-1314"/>
<text text-anchor="middle" x="764.74" y="-1292.3" font-family="Times New Roman,serif" font-size="14.00">Только если мы сможем чередоваться время от времени...</text>
</g>
<!-- j1064378688&#45;&gt;j600406697 -->
<g id="edge30" class="edge">
<title>j1064378688&#45;&gt;j600406697</title>
<path fill="none" stroke="black" d="M764.74,-1364.95C764.74,-1352.74 764.74,-1338.08 764.74,-1325.51"/>
<polygon fill="black" stroke="black" points="768.24,-1325.76 764.74,-1315.76 761.24,-1325.76 768.24,-1325.76"/>
</g>
<!-- j14917845 -->
<g id="node27" class="node">
<title>j14917845</title>
<polygon fill="none" stroke="red" points="1379.74,-1314 969.74,-1314 969.74,-1278 1379.74,-1278 1379.74,-1314"/>
<text text-anchor="middle" x="1174.74" y="-1292.3" font-family="Times New Roman,serif" font-size="14.00">Мне не очень нравится смешивать боль и удовольствие, извини.</text>
</g>
<!-- j1064378688&#45;&gt;j14917845 -->
<g id="edge31" class="edge">
<title>j1064378688&#45;&gt;j14917845</title>
<path fill="none" stroke="black" d="M878.68,-1364.52C944.6,-1349.48 1026.29,-1330.86 1087.15,-1316.98"/>
<polygon fill="black" stroke="black" points="1087.81,-1320.41 1096.78,-1314.78 1086.26,-1313.59 1087.81,-1320.41"/>
</g>
<!-- j1241650836 -->
<g id="node28" class="node">
<title>j1241650836</title>
<polygon fill="none" stroke="blue" points="660.74,-1241 228.74,-1241 228.74,-1188 660.74,-1188 660.74,-1241"/>
<text text-anchor="middle" x="444.74" y="-1225.8" font-family="Times New Roman,serif" font-size="14.00">Ммм, не знаю &#13;</text>
<text text-anchor="middle" x="444.74" y="-1210.8" font-family="Times New Roman,serif" font-size="14.00">Может быть, потому что это боль, которую я могу контролировать &#13;</text>
<text text-anchor="middle" x="444.74" y="-1195.8" font-family="Times New Roman,serif" font-size="14.00">В отличие от всей той боли, которую я не могу</text>
</g>
<!-- j201562768&#45;&gt;j1241650836 -->
<g id="edge32" class="edge">
<title>j201562768&#45;&gt;j1241650836</title>
<path fill="none" stroke="black" d="M360.44,-1277.55C372.26,-1268.85 386.94,-1258.05 400.72,-1247.9"/>
<polygon fill="black" stroke="black" points="402.41,-1251.01 408.39,-1242.26 398.26,-1245.37 402.41,-1251.01"/>
</g>
<!-- j1815347909 -->
<g id="node29" class="node">
<title>j1815347909</title>
<polygon fill="none" stroke="blue" points="922.24,-968 587.24,-968 587.24,-900 922.24,-900 922.24,-968"/>
<text text-anchor="middle" x="754.74" y="-952.8" font-family="Times New Roman,serif" font-size="14.00">Jajaja, конечно &#13;</text>
<text text-anchor="middle" x="754.74" y="-937.8" font-family="Times New Roman,serif" font-size="14.00">Но как только ты это заслужишь &#13;</text>
<text text-anchor="middle" x="754.74" y="-922.8" font-family="Times New Roman,serif" font-size="14.00">Сначала мне нужно знать, что я могу тебе доверять &#13;</text>
<text text-anchor="middle" x="754.74" y="-907.8" font-family="Times New Roman,serif" font-size="14.00">Итак... что скажешь?</text>
</g>
<!-- j600406697&#45;&gt;j1815347909 -->
<g id="edge33" class="edge">
<title>j600406697&#45;&gt;j1815347909</title>
<path fill="none" stroke="black" d="M764.26,-1277.64C762.77,-1223.96 758.2,-1059.49 755.98,-979.55"/>
<polygon fill="black" stroke="black" points="759.49,-979.8 755.71,-969.9 752.49,-979.99 759.49,-979.8"/>
</g>
<!-- j253101613 -->
<g id="node30" class="node">
<title>j253101613</title>
<polygon fill="none" stroke="blue" points="1250.24,-1170 1101.24,-1170 1101.24,-1117 1250.24,-1117 1250.24,-1170"/>
<text text-anchor="middle" x="1175.74" y="-1154.8" font-family="Times New Roman,serif" font-size="14.00">Ay, sÍ &#13;</text>
<text text-anchor="middle" x="1175.74" y="-1139.8" font-family="Times New Roman,serif" font-size="14.00">Это не для всех.&#13;</text>
<text text-anchor="middle" x="1175.74" y="-1124.8" font-family="Times New Roman,serif" font-size="14.00">Entiendo, без проблем</text>
</g>
<!-- j14917845&#45;&gt;j253101613 -->
<g id="edge34" class="edge">
<title>j14917845&#45;&gt;j253101613</title>
<path fill="none" stroke="black" d="M1174.86,-1277.74C1175.01,-1254.39 1175.29,-1212.15 1175.5,-1181.47"/>
<polygon fill="black" stroke="black" points="1178.99,-1181.88 1175.56,-1171.86 1171.99,-1181.84 1178.99,-1181.88"/>
</g>
<!-- j61866115 -->
<g id="node31" class="node">
<title>j61866115</title>
<polygon fill="none" stroke="blue" points="692.74,-1099 346.74,-1099 346.74,-986 692.74,-986 692.74,-1099"/>
<text text-anchor="middle" x="519.74" y="-1083.8" font-family="Times New Roman,serif" font-size="14.00">Или, может быть, это что&#45;то интенсивное &#13;</text>
<text text-anchor="middle" x="519.74" y="-1068.8" font-family="Times New Roman,serif" font-size="14.00">Что&#45;то острое, что пронзает всю остальную чушь &#13;</text>
<text text-anchor="middle" x="519.74" y="-1053.8" font-family="Times New Roman,serif" font-size="14.00">С которой мне приходится разбираться каждый день &#13;</text>
<text text-anchor="middle" x="519.74" y="-1038.8" font-family="Times New Roman,serif" font-size="14.00">Это РЕАЛЬНО &#13;</text>
<text text-anchor="middle" x="519.74" y="-1023.8" font-family="Times New Roman,serif" font-size="14.00">Я могу углубиться в это &#13;</text>
<text text-anchor="middle" x="519.74" y="-1008.8" font-family="Times New Roman,serif" font-size="14.00">Заставить это звучать &#13;</text>
<text text-anchor="middle" x="519.74" y="-993.8" font-family="Times New Roman,serif" font-size="14.00">Чувствовать пульсацию</text>
</g>
<!-- j1241650836&#45;&gt;j61866115 -->
<g id="edge35" class="edge">
<title>j1241650836&#45;&gt;j61866115</title>
<path fill="none" stroke="black" d="M456.13,-1187.68C465.29,-1166.93 478.57,-1136.82 490.63,-1109.49"/>
<polygon fill="black" stroke="black" points="493.73,-1111.12 494.57,-1100.56 487.33,-1108.29 493.73,-1111.12"/>
</g>
<!-- j1101957280 -->
<g id="node32" class="node">
<title>j1101957280</title>
<polygon fill="none" stroke="blue" points="901.24,-792 600.24,-792 600.24,-756 901.24,-756 901.24,-792"/>
<text text-anchor="middle" x="750.74" y="-770.3" font-family="Times New Roman,serif" font-size="14.00">Хочешь совершить ужасную ошибку со мной?</text>
</g>
<!-- j1815347909&#45;&gt;j1101957280 -->
<g id="edge36" class="edge">
<title>j1815347909&#45;&gt;j1101957280</title>
<path fill="none" stroke="black" d="M753.9,-899.88C753.18,-871.47 752.16,-830.95 751.47,-803.85"/>
<polygon fill="black" stroke="black" points="754.97,-803.86 751.22,-793.95 747.98,-804.04 754.97,-803.86"/>
</g>
<!-- j2477665661 -->
<g id="node33" class="node">
<title>j2477665661</title>
<ellipse fill="none" stroke="orange" cx="1135.74" cy="-628" rx="64.19" ry="18"/>
<text text-anchor="middle" x="1135.74" y="-624.3" font-family="Times New Roman,serif" font-size="14.00">+10 Chemistry</text>
</g>
<!-- j253101613&#45;&gt;j2477665661 -->
<g id="edge37" class="edge">
<title>j253101613&#45;&gt;j2477665661</title>
<path fill="none" stroke="black" d="M1176.15,-1116.62C1176.74,-1077.36 1177.74,-1000.39 1177.74,-935 1177.74,-935 1177.74,-935 1177.74,-700 1177.74,-683.45 1169.18,-667.38 1159.8,-654.72"/>
<polygon fill="black" stroke="black" points="1162.53,-652.53 1153.53,-646.94 1157.07,-656.92 1162.53,-652.53"/>
</g>
<!-- j2912662015 -->
<g id="node34" class="node">
<title>j2912662015</title>
<polygon fill="none" stroke="blue" points="698.24,-882 479.24,-882 479.24,-829 698.24,-829 698.24,-882"/>
<text text-anchor="middle" x="588.74" y="-866.8" font-family="Times New Roman,serif" font-size="14.00">И это ТРЕБУЕТ доверия &#13;</text>
<text text-anchor="middle" x="588.74" y="-851.8" font-family="Times New Roman,serif" font-size="14.00">Без него это не работает, solecito &#13;</text>
<text text-anchor="middle" x="588.74" y="-836.8" font-family="Times New Roman,serif" font-size="14.00">Итак... что скажешь?</text>
</g>
<!-- j61866115&#45;&gt;j2912662015 -->
<g id="edge38" class="edge">
<title>j61866115&#45;&gt;j2912662015</title>
<path fill="none" stroke="black" d="M540.54,-985.74C551.79,-955.58 565.36,-919.2 575.23,-892.73"/>
<polygon fill="black" stroke="black" points="578.47,-894.05 578.69,-883.45 571.91,-891.6 578.47,-894.05"/>
</g>
<!-- j4235868226 -->
<g id="node35" class="node">
<title>j4235868226</title>
<polygon fill="none" stroke="red" points="905.74,-719 593.74,-719 593.74,-683 905.74,-683 905.74,-719"/>
<text text-anchor="middle" x="749.74" y="-697.3" font-family="Times New Roman,serif" font-size="14.00">Да. На самом деле хочу. :) [Встречаться с Лэтти]</text>
</g>
<!-- j1101957280&#45;&gt;j4235868226 -->
<g id="edge39" class="edge">
<title>j1101957280&#45;&gt;j4235868226</title>
<path fill="none" stroke="black" d="M750.5,-755.81C750.39,-748.23 750.26,-739.1 750.14,-730.54"/>
<polygon fill="black" stroke="black" points="753.64,-730.49 750,-720.54 746.64,-730.59 753.64,-730.49"/>
</g>
<!-- j2114327343 -->
<g id="node36" class="node">
<title>j2114327343</title>
<polygon fill="none" stroke="red" points="1149.24,-719 924.24,-719 924.24,-683 1149.24,-683 1149.24,-719"/>
<text text-anchor="middle" x="1036.74" y="-697.3" font-family="Times New Roman,serif" font-size="14.00">Мне нужно обдумать это. Извини.</text>
</g>
<!-- j1101957280&#45;&gt;j2114327343 -->
<g id="edge40" class="edge">
<title>j1101957280&#45;&gt;j2114327343</title>
<path fill="none" stroke="black" d="M821.07,-755.54C861.76,-745.44 913.14,-732.68 955.54,-722.16"/>
<polygon fill="black" stroke="black" points="956.35,-725.56 965.21,-719.76 954.67,-718.77 956.35,-725.56"/>
</g>
<!-- j1327158907 -->
<g id="node37" class="node">
<title>j1327158907</title>
<polygon fill="none" stroke="blue" points="1232.74,-549.5 1038.74,-549.5 1038.74,-513.5 1232.74,-513.5 1232.74,-549.5"/>
<text text-anchor="middle" x="1135.74" y="-527.8" font-family="Times New Roman,serif" font-size="14.00">Дай знать, если передумаешь</text>
</g>
<!-- j2477665661&#45;&gt;j1327158907 -->
<g id="edge41" class="edge">
<title>j2477665661&#45;&gt;j1327158907</title>
<path fill="none" stroke="black" d="M1135.74,-609.67C1135.74,-596.08 1135.74,-576.89 1135.74,-561.04"/>
<polygon fill="black" stroke="black" points="1139.24,-561.24 1135.74,-551.24 1132.24,-561.24 1139.24,-561.24"/>
</g>
<!-- j2912662015&#45;&gt;j1101957280 -->
<g id="edge42" class="edge">
<title>j2912662015&#45;&gt;j1101957280</title>
<path fill="none" stroke="black" d="M641.34,-828.69C661.86,-818.62 685.16,-807.18 704.97,-797.46"/>
<polygon fill="black" stroke="black" points="706.48,-800.62 713.92,-793.07 703.4,-794.33 706.48,-800.62"/>
</g>
<!-- j2356641165 -->
<g id="node38" class="node">
<title>j2356641165</title>
<ellipse fill="none" stroke="orange" cx="808.74" cy="-628" rx="64.19" ry="18"/>
<text text-anchor="middle" x="808.74" y="-624.3" font-family="Times New Roman,serif" font-size="14.00">+20 Chemistry</text>
</g>
<!-- j4235868226&#45;&gt;j2356641165 -->
<g id="edge43" class="edge">
<title>j4235868226&#45;&gt;j2356641165</title>
<path fill="none" stroke="black" d="M764.02,-682.81C771.05,-674.35 779.67,-663.98 787.46,-654.61"/>
<polygon fill="black" stroke="black" points="789.92,-657.12 793.62,-647.19 784.54,-652.65 789.92,-657.12"/>
</g>
<!-- j2114327343&#45;&gt;j2477665661 -->
<g id="edge44" class="edge">
<title>j2114327343&#45;&gt;j2477665661</title>
<path fill="none" stroke="black" d="M1060.96,-682.63C1073.89,-673.36 1089.97,-661.83 1103.89,-651.84"/>
<polygon fill="black" stroke="black" points="1105.81,-654.77 1111.9,-646.1 1101.73,-649.08 1105.81,-654.77"/>
</g>
<!-- j2129367046 -->
<g id="node39" class="node">
<title>j2129367046</title>
<ellipse fill="none" stroke="orange" cx="1135.74" cy="-364" rx="139.18" ry="18"/>
<text text-anchor="middle" x="1135.74" y="-360.3" font-family="Times New Roman,serif" font-size="14.00">Boolean LettieWillDate is now true.</text>
</g>
<!-- j1327158907&#45;&gt;j2129367046 -->
<g id="edge45" class="edge">
<title>j1327158907&#45;&gt;j2129367046</title>
<path fill="none" stroke="black" d="M1135.74,-513.1C1135.74,-484.67 1135.74,-427.97 1135.74,-393.57"/>
<polygon fill="black" stroke="black" points="1139.24,-393.93 1135.74,-383.93 1132.24,-393.93 1139.24,-393.93"/>
</g>
<!-- j3234884360 -->
<g id="node40" class="node">
<title>j3234884360</title>
<polygon fill="none" stroke="blue" points="996.24,-573 727.24,-573 727.24,-490 996.24,-490 996.24,-573"/>
<text text-anchor="middle" x="861.74" y="-557.8" font-family="Times New Roman,serif" font-size="14.00">Ладно &#13;</text>
<text text-anchor="middle" x="861.74" y="-542.8" font-family="Times New Roman,serif" font-size="14.00">Приготовься, solecito &#13;</text>
<text text-anchor="middle" x="861.74" y="-527.8" font-family="Times New Roman,serif" font-size="14.00">Я не буду жалеть тебя &#13;</text>
<text text-anchor="middle" x="861.74" y="-512.8" font-family="Times New Roman,serif" font-size="14.00">Потому что я видела, как ты сражаешься &#13;</text>
<text text-anchor="middle" x="861.74" y="-497.8" font-family="Times New Roman,serif" font-size="14.00">Я знаю, что ты справишься</text>
</g>
<!-- j2356641165&#45;&gt;j3234884360 -->
<g id="edge46" class="edge">
<title>j2356641165&#45;&gt;j3234884360</title>
<path fill="none" stroke="black" d="M818.22,-610.11C822.55,-602.38 827.93,-592.78 833.42,-582.99"/>
<polygon fill="black" stroke="black" points="836.33,-584.96 838.17,-574.52 830.23,-581.53 836.33,-584.96"/>
</g>
<!-- j2129367046&#45;&gt;Chat ends. -->
<g id="edge47" class="edge">
<title>j2129367046&#45;&gt;Chat ends.</title>
<path fill="none" stroke="black" d="M1135.74,-345.61C1135.74,-327.66 1135.74,-298.88 1135.74,-274 1135.74,-274 1135.74,-274 1135.74,-90 1135.74,-76.08 1135.74,-60.63 1135.74,-47.7"/>
<polygon fill="black" stroke="black" points="1139.24,-47.73 1135.74,-37.73 1132.24,-47.73 1139.24,-47.73"/>
</g>
<!-- j177304582 -->
<g id="node41" class="node">
<title>j177304582</title>
<polygon fill="none" stroke="blue" points="1072.74,-453 768.74,-453 768.74,-400 1072.74,-400 1072.74,-453"/>
<text text-anchor="middle" x="920.74" y="-437.8" font-family="Times New Roman,serif" font-size="14.00">Но не волнуйся &#13;</text>
<text text-anchor="middle" x="920.74" y="-422.8" font-family="Times New Roman,serif" font-size="14.00">Я поцелую тебя позже, чтобы все стало лучше &#13;</text>
<text text-anchor="middle" x="920.74" y="-407.8" font-family="Times New Roman,serif" font-size="14.00">Можешь на это рассчитывать</text>
</g>
<!-- j3234884360&#45;&gt;j177304582 -->
<g id="edge48" class="edge">
<title>j3234884360&#45;&gt;j177304582</title>
<path fill="none" stroke="black" d="M885.06,-489.79C890.11,-480.98 895.41,-471.73 900.33,-463.13"/>
<polygon fill="black" stroke="black" points="903.22,-465.13 905.15,-454.72 897.14,-461.65 903.22,-465.13"/>
</g>
<!-- j1300785588 -->
<g id="node42" class="node">
<title>j1300785588</title>
<ellipse fill="none" stroke="orange" cx="921.74" cy="-310" rx="139.18" ry="18"/>
<text text-anchor="middle" x="921.74" y="-306.3" font-family="Times New Roman,serif" font-size="14.00">Boolean LettieWillDate is now true.</text>
</g>
<!-- j177304582&#45;&gt;j1300785588 -->
<g id="edge49" class="edge">
<title>j177304582&#45;&gt;j1300785588</title>
<path fill="none" stroke="black" d="M920.97,-399.52C921.12,-381.74 921.33,-358.16 921.49,-339.81"/>
<polygon fill="black" stroke="black" points="924.99,-339.89 921.58,-329.86 917.99,-339.83 924.99,-339.89"/>
</g>
<!-- j702074970 -->
<g id="node43" class="node">
<title>j702074970</title>
<ellipse fill="none" stroke="orange" cx="923.74" cy="-237" rx="131.08" ry="18"/>
<text text-anchor="middle" x="923.74" y="-233.3" font-family="Times New Roman,serif" font-size="14.00">Boolean LettieDating is now true.</text>
</g>
<!-- j1300785588&#45;&gt;j702074970 -->
<g id="edge50" class="edge">
<title>j1300785588&#45;&gt;j702074970</title>
<path fill="none" stroke="black" d="M922.23,-291.81C922.44,-284.14 922.7,-274.89 922.95,-266.24"/>
<polygon fill="black" stroke="black" points="926.44,-266.64 923.22,-256.54 919.44,-266.44 926.44,-266.64"/>
</g>
<!-- j938814249 -->
<g id="node44" class="node">
<title>j938814249</title>
<ellipse fill="none" stroke="orange" cx="939.74" cy="-164" rx="118.08" ry="18"/>
<text text-anchor="middle" x="939.74" y="-160.3" font-family="Times New Roman,serif" font-size="14.00">Boolean IsDating is now true.</text>
</g>
<!-- j702074970&#45;&gt;j938814249 -->
<g id="edge51" class="edge">
<title>j702074970&#45;&gt;j938814249</title>
<path fill="none" stroke="black" d="M927.61,-218.81C929.34,-211.14 931.43,-201.89 933.38,-193.24"/>
<polygon fill="black" stroke="black" points="936.79,-194.03 935.57,-183.51 929.96,-192.49 936.79,-194.03"/>
</g>
<!-- j3003494003 -->
<g id="node45" class="node">
<title>j3003494003</title>
<ellipse fill="none" stroke="orange" cx="960.74" cy="-91" rx="143.77" ry="18"/>
<text text-anchor="middle" x="960.74" y="-87.3" font-family="Times New Roman,serif" font-size="14.00">Boolean LettieHasDated is now true.</text>
</g>
<!-- j938814249&#45;&gt;j3003494003 -->
<g id="edge52" class="edge">
<title>j938814249&#45;&gt;j3003494003</title>
<path fill="none" stroke="black" d="M944.82,-145.81C947.12,-138.05 949.89,-128.68 952.47,-119.95"/>
<polygon fill="black" stroke="black" points="955.79,-121.06 955.28,-110.48 949.08,-119.08 955.79,-121.06"/>
</g>
<!-- j3003494003&#45;&gt;Chat ends. -->
<g id="edge53" class="edge">
<title>j3003494003&#45;&gt;Chat ends.</title>
<path fill="none" stroke="black" d="M1001.77,-73.35C1029.15,-62.25 1065.08,-47.67 1092.84,-36.41"/>
<polygon fill="black" stroke="black" points="1094.07,-39.68 1102.02,-32.68 1091.44,-33.2 1094.07,-39.68"/>
</g>
</g>
</svg>
