<?xml version="1.0" encoding="UTF-8" standalone="no"?>
<!DOCTYPE svg PUBLIC "-//W3C//DTD SVG 1.1//EN"
 "http://www.w3.org/Graphics/SVG/1.1/DTD/svg11.dtd">
<!-- Generated by graphviz version 7.1.0 (20230121.1956)
 -->
<!-- Pages: 1 -->
<svg width="1802pt" height="3159pt"
 viewBox="0.00 0.00 1802.00 3159.00" xmlns="http://www.w3.org/2000/svg" xmlns:xlink="http://www.w3.org/1999/xlink">
<g id="graph0" class="graph" transform="scale(1 1) rotate(0) translate(4 3155)">
<polygon fill="white" stroke="none" points="-4,4 -4,-3155 1798,-3155 1798,4 -4,4"/>
<!-- HexRankUpTo2 begins. -->
<g id="node1" class="node">
<title>HexRankUpTo2 begins.</title>
<ellipse fill="none" stroke="orange" cx="897" cy="-3133" rx="98.58" ry="18"/>
<text text-anchor="middle" x="897" y="-3129.3" font-family="Times New Roman,serif" font-size="14.00">HexRankUpTo2 begins.</text>
</g>
<!-- j2726280906 -->
<g id="node2" class="node">
<title>j2726280906</title>
<polygon fill="none" stroke="blue" points="1120.5,-3079 673.5,-3079 673.5,-3043 1120.5,-3043 1120.5,-3079"/>
<text text-anchor="middle" x="897" y="-3057.3" font-family="Times New Roman,serif" font-size="14.00">xX GLIMMER Xx: &lt;RETRO_EMOJI_OHNO&gt; 我们需要……喂它吗？</text>
</g>
<!-- HexRankUpTo2 begins.&#45;&gt;j2726280906 -->
<g id="edge1" class="edge">
<title>HexRankUpTo2 begins.&#45;&gt;j2726280906</title>
<path fill="none" stroke="black" d="M897,-3114.7C897,-3107.41 897,-3098.73 897,-3090.54"/>
<polygon fill="black" stroke="black" points="900.5,-3090.62 897,-3080.62 893.5,-3090.62 900.5,-3090.62"/>
</g>
<!-- j392507672 -->
<g id="node3" class="node">
<title>j392507672</title>
<polygon fill="none" stroke="blue" points="1073.5,-3007 720.5,-3007 720.5,-2971 1073.5,-2971 1073.5,-3007"/>
<text text-anchor="middle" x="897" y="-2985.3" font-family="Times New Roman,serif" font-size="14.00">H16h V0l7463: 零食？！在哪儿。食物食物食物——</text>
</g>
<!-- j2726280906&#45;&gt;j392507672 -->
<g id="edge2" class="edge">
<title>j2726280906&#45;&gt;j392507672</title>
<path fill="none" stroke="black" d="M897,-3042.7C897,-3035.41 897,-3026.73 897,-3018.54"/>
<polygon fill="black" stroke="black" points="900.5,-3018.62 897,-3008.62 893.5,-3018.62 900.5,-3018.62"/>
</g>
<!-- j1383832499 -->
<g id="node4" class="node">
<title>j1383832499</title>
<polygon fill="none" stroke="blue" points="970.5,-2935 823.5,-2935 823.5,-2897 970.5,-2897 970.5,-2935"/>
<text text-anchor="middle" x="897" y="-2919.8" font-family="Times New Roman,serif" font-size="14.00">Belladonna ~{@: 它？&#13;</text>
<text text-anchor="middle" x="897" y="-2904.8" font-family="Times New Roman,serif" font-size="14.00">¿Qué?</text>
</g>
<!-- j392507672&#45;&gt;j1383832499 -->
<g id="edge3" class="edge">
<title>j392507672&#45;&gt;j1383832499</title>
<path fill="none" stroke="black" d="M897,-2970.81C897,-2963.59 897,-2954.97 897,-2946.77"/>
<polygon fill="black" stroke="black" points="900.5,-2946.78 897,-2936.78 893.5,-2946.78 900.5,-2946.78"/>
</g>
<!-- j1086808644 -->
<g id="node5" class="node">
<title>j1086808644</title>
<polygon fill="none" stroke="red" points="752.5,-2861 609.5,-2861 609.5,-2825 752.5,-2825 752.5,-2861"/>
<text text-anchor="middle" x="681" y="-2839.3" font-family="Times New Roman,serif" font-size="14.00">是那个无人机吗？</text>
</g>
<!-- j1383832499&#45;&gt;j1086808644 -->
<g id="edge4" class="edge">
<title>j1383832499&#45;&gt;j1086808644</title>
<path fill="none" stroke="black" d="M840.81,-2896.53C811.29,-2886.83 775.01,-2874.9 744.47,-2864.86"/>
<polygon fill="black" stroke="black" points="745.97,-2861.67 735.37,-2861.87 743.78,-2868.32 745.97,-2861.67"/>
</g>
<!-- j2456421936 -->
<g id="node6" class="node">
<title>j2456421936</title>
<polygon fill="none" stroke="red" points="937,-2861 857,-2861 857,-2825 937,-2825 937,-2861"/>
<text text-anchor="middle" x="897" y="-2839.3" font-family="Times New Roman,serif" font-size="14.00">喂什么？</text>
</g>
<!-- j1383832499&#45;&gt;j2456421936 -->
<g id="edge5" class="edge">
<title>j1383832499&#45;&gt;j2456421936</title>
<path fill="none" stroke="black" d="M897,-2896.72C897,-2889.43 897,-2880.86 897,-2872.78"/>
<polygon fill="black" stroke="black" points="900.5,-2873 897,-2863 893.5,-2873 900.5,-2873"/>
</g>
<!-- j854315751 -->
<g id="node7" class="node">
<title>j854315751</title>
<polygon fill="none" stroke="red" points="1151.5,-2861 1056.5,-2861 1056.5,-2825 1151.5,-2825 1151.5,-2861"/>
<text text-anchor="middle" x="1104" y="-2839.3" font-family="Times New Roman,serif" font-size="14.00">科腐者吗？</text>
</g>
<!-- j1383832499&#45;&gt;j854315751 -->
<g id="edge6" class="edge">
<title>j1383832499&#45;&gt;j854315751</title>
<path fill="none" stroke="black" d="M950.85,-2896.53C979.87,-2886.58 1015.71,-2874.28 1045.43,-2864.09"/>
<polygon fill="black" stroke="black" points="1046.32,-2867.49 1054.64,-2860.93 1044.04,-2860.86 1046.32,-2867.49"/>
</g>
<!-- j2249434868 -->
<g id="node8" class="node">
<title>j2249434868</title>
<ellipse fill="none" stroke="orange" cx="595" cy="-2771" rx="144.07" ry="18"/>
<text text-anchor="middle" x="595" y="-2767.3" font-family="Times New Roman,serif" font-size="14.00">Boolean HexWhatDrone is now true.</text>
</g>
<!-- j1086808644&#45;&gt;j2249434868 -->
<g id="edge7" class="edge">
<title>j1086808644&#45;&gt;j2249434868</title>
<path fill="none" stroke="black" d="M659.74,-2824.7C649.22,-2816.14 636.35,-2805.66 624.86,-2796.3"/>
<polygon fill="black" stroke="black" points="627.15,-2793.66 617.19,-2790.06 622.73,-2799.09 627.15,-2793.66"/>
</g>
<!-- j1894066471 -->
<g id="node9" class="node">
<title>j1894066471</title>
<ellipse fill="none" stroke="orange" cx="897" cy="-2771" rx="139.98" ry="18"/>
<text text-anchor="middle" x="897" y="-2767.3" font-family="Times New Roman,serif" font-size="14.00">Boolean HexFeedWhat is now true.</text>
</g>
<!-- j2456421936&#45;&gt;j1894066471 -->
<g id="edge8" class="edge">
<title>j2456421936&#45;&gt;j1894066471</title>
<path fill="none" stroke="black" d="M897,-2824.7C897,-2817.41 897,-2808.73 897,-2800.54"/>
<polygon fill="black" stroke="black" points="900.5,-2800.62 897,-2790.62 893.5,-2800.62 900.5,-2800.62"/>
</g>
<!-- j2223941460 -->
<g id="node10" class="node">
<title>j2223941460</title>
<ellipse fill="none" stroke="orange" cx="1206" cy="-2771" rx="150.57" ry="18"/>
<text text-anchor="middle" x="1206" y="-2767.3" font-family="Times New Roman,serif" font-size="14.00">Boolean HexWhatTechrot is now true.</text>
</g>
<!-- j854315751&#45;&gt;j2223941460 -->
<g id="edge9" class="edge">
<title>j854315751&#45;&gt;j2223941460</title>
<path fill="none" stroke="black" d="M1129.48,-2824.52C1142.32,-2815.7 1158.09,-2804.88 1171.96,-2795.36"/>
<polygon fill="black" stroke="black" points="1173.69,-2798.42 1179.95,-2789.88 1169.73,-2792.65 1173.69,-2798.42"/>
</g>
<!-- j2690657144 -->
<g id="node11" class="node">
<title>j2690657144</title>
<polygon fill="none" stroke="blue" points="1051.5,-2717 742.5,-2717 742.5,-2681 1051.5,-2681 1051.5,-2717"/>
<text text-anchor="middle" x="897" y="-2695.3" font-family="Times New Roman,serif" font-size="14.00">Salem: 碧指的是我们那个快乐的小无人机。</text>
</g>
<!-- j2249434868&#45;&gt;j2690657144 -->
<g id="edge10" class="edge">
<title>j2249434868&#45;&gt;j2690657144</title>
<path fill="none" stroke="black" d="M661.28,-2754.64C705.08,-2744.49 762.94,-2731.07 810.38,-2720.08"/>
<polygon fill="black" stroke="black" points="811.15,-2723.49 820.1,-2717.82 809.57,-2716.67 811.15,-2723.49"/>
</g>
<!-- j1894066471&#45;&gt;j2690657144 -->
<g id="edge11" class="edge">
<title>j1894066471&#45;&gt;j2690657144</title>
<path fill="none" stroke="black" d="M897,-2752.7C897,-2745.41 897,-2736.73 897,-2728.54"/>
<polygon fill="black" stroke="black" points="900.5,-2728.62 897,-2718.62 893.5,-2728.62 900.5,-2728.62"/>
</g>
<!-- j2223941460&#45;&gt;j2690657144 -->
<g id="edge12" class="edge">
<title>j2223941460&#45;&gt;j2690657144</title>
<path fill="none" stroke="black" d="M1137.81,-2754.55C1092.87,-2744.37 1033.61,-2730.95 985.11,-2719.96"/>
<polygon fill="black" stroke="black" points="985.99,-2716.57 975.46,-2717.77 984.44,-2723.4 985.99,-2716.57"/>
</g>
<!-- j2264639744 -->
<g id="node12" class="node">
<title>j2264639744</title>
<polygon fill="none" stroke="blue" points="1149.5,-2645 644.5,-2645 644.5,-2609 1149.5,-2609 1149.5,-2645"/>
<text text-anchor="middle" x="897" y="-2623.3" font-family="Times New Roman,serif" font-size="14.00">Soldja1Shot1kil: 你的意思是，未来人的无人机。不是我的，也不是我们的</text>
</g>
<!-- j2690657144&#45;&gt;j2264639744 -->
<g id="edge13" class="edge">
<title>j2690657144&#45;&gt;j2264639744</title>
<path fill="none" stroke="black" d="M897,-2680.7C897,-2673.41 897,-2664.73 897,-2656.54"/>
<polygon fill="black" stroke="black" points="900.5,-2656.62 897,-2646.62 893.5,-2656.62 900.5,-2656.62"/>
</g>
<!-- j2509428355 -->
<g id="node13" class="node">
<title>j2509428355</title>
<polygon fill="none" stroke="red" points="796.5,-2573 685.5,-2573 685.5,-2537 796.5,-2537 796.5,-2573"/>
<text text-anchor="middle" x="741" y="-2551.3" font-family="Times New Roman,serif" font-size="14.00">那是个礼物。</text>
</g>
<!-- j2264639744&#45;&gt;j2509428355 -->
<g id="edge14" class="edge">
<title>j2264639744&#45;&gt;j2509428355</title>
<path fill="none" stroke="black" d="M858.04,-2608.52C837.48,-2599.29 812.06,-2587.89 790.17,-2578.06"/>
<polygon fill="black" stroke="black" points="791.67,-2574.9 781.12,-2574 788.81,-2581.29 791.67,-2574.9"/>
</g>
<!-- j2219863307 -->
<g id="node14" class="node">
<title>j2219863307</title>
<polygon fill="none" stroke="red" points="968.5,-2573 825.5,-2573 825.5,-2537 968.5,-2537 968.5,-2573"/>
<text text-anchor="middle" x="897" y="-2551.3" font-family="Times New Roman,serif" font-size="14.00">现在属于商场了。</text>
</g>
<!-- j2264639744&#45;&gt;j2219863307 -->
<g id="edge15" class="edge">
<title>j2264639744&#45;&gt;j2219863307</title>
<path fill="none" stroke="black" d="M897,-2608.7C897,-2601.41 897,-2592.73 897,-2584.54"/>
<polygon fill="black" stroke="black" points="900.5,-2584.62 897,-2574.62 893.5,-2584.62 900.5,-2584.62"/>
</g>
<!-- j4212679135 -->
<g id="node15" class="node">
<title>j4212679135</title>
<polygon fill="none" stroke="red" points="1269.5,-2573 1000.5,-2573 1000.5,-2537 1269.5,-2537 1269.5,-2573"/>
<text text-anchor="middle" x="1135" y="-2551.3" font-family="Times New Roman,serif" font-size="14.00">如果你弄坏它，下一个就得收费了。</text>
</g>
<!-- j2264639744&#45;&gt;j4212679135 -->
<g id="edge16" class="edge">
<title>j2264639744&#45;&gt;j4212679135</title>
<path fill="none" stroke="black" d="M956.44,-2608.52C989.37,-2598.83 1030.48,-2586.74 1064.96,-2576.6"/>
<polygon fill="black" stroke="black" points="1065.84,-2579.99 1074.45,-2573.81 1063.87,-2573.27 1065.84,-2579.99"/>
</g>
<!-- j2268696063 -->
<g id="node16" class="node">
<title>j2268696063</title>
<ellipse fill="none" stroke="orange" cx="730" cy="-2411" rx="139.18" ry="18"/>
<text text-anchor="middle" x="730" y="-2407.3" font-family="Times New Roman,serif" font-size="14.00">Boolean HexDroneGift is now true.</text>
</g>
<!-- j2509428355&#45;&gt;j2268696063 -->
<g id="edge17" class="edge">
<title>j2509428355&#45;&gt;j2268696063</title>
<path fill="none" stroke="black" d="M739.65,-2536.59C737.79,-2512.61 734.43,-2469.14 732.2,-2440.42"/>
<polygon fill="black" stroke="black" points="735.7,-2440.32 731.44,-2430.62 728.73,-2440.86 735.7,-2440.32"/>
</g>
<!-- j2125569194 -->
<g id="node17" class="node">
<title>j2125569194</title>
<ellipse fill="none" stroke="orange" cx="897" cy="-2483" rx="140.28" ry="18"/>
<text text-anchor="middle" x="897" y="-2479.3" font-family="Times New Roman,serif" font-size="14.00">Boolean HexDroneMall is now true.</text>
</g>
<!-- j2219863307&#45;&gt;j2125569194 -->
<g id="edge18" class="edge">
<title>j2219863307&#45;&gt;j2125569194</title>
<path fill="none" stroke="black" d="M897,-2536.7C897,-2529.41 897,-2520.73 897,-2512.54"/>
<polygon fill="black" stroke="black" points="900.5,-2512.62 897,-2502.62 893.5,-2512.62 900.5,-2512.62"/>
</g>
<!-- j1265450144 -->
<g id="node18" class="node">
<title>j1265450144</title>
<polygon fill="none" stroke="blue" points="1245,-2501 1055,-2501 1055,-2465 1245,-2465 1245,-2501"/>
<text text-anchor="middle" x="1150" y="-2479.3" font-family="Times New Roman,serif" font-size="14.00">Soldja1Shot1kil: 哈哈，果然</text>
</g>
<!-- j4212679135&#45;&gt;j1265450144 -->
<g id="edge19" class="edge">
<title>j4212679135&#45;&gt;j1265450144</title>
<path fill="none" stroke="black" d="M1138.71,-2536.7C1140.29,-2529.32 1142.17,-2520.52 1143.95,-2512.25"/>
<polygon fill="black" stroke="black" points="1147.34,-2513.1 1146.02,-2502.58 1140.5,-2511.63 1147.34,-2513.1"/>
</g>
<!-- j4242736673 -->
<g id="node19" class="node">
<title>j4242736673</title>
<polygon fill="none" stroke="blue" points="1306,-2357 488,-2357 488,-2321 1306,-2321 1306,-2357"/>
<text text-anchor="middle" x="897" y="-2335.3" font-family="Times New Roman,serif" font-size="14.00">Broadsword: 我们已经有够多的装备要保养了。漂泊者，这是你的了。如果它坏了，你得负责修理费。或者处理掉它。</text>
</g>
<!-- j2268696063&#45;&gt;j4242736673 -->
<g id="edge20" class="edge">
<title>j2268696063&#45;&gt;j4242736673</title>
<path fill="none" stroke="black" d="M769.58,-2393.41C792.09,-2383.97 820.57,-2372.04 844.89,-2361.84"/>
<polygon fill="black" stroke="black" points="846.11,-2365.13 853.98,-2358.03 843.41,-2358.67 846.11,-2365.13"/>
</g>
<!-- j2125569194&#45;&gt;j4242736673 -->
<g id="edge21" class="edge">
<title>j2125569194&#45;&gt;j4242736673</title>
<path fill="none" stroke="black" d="M897,-2464.59C897,-2440.61 897,-2397.14 897,-2368.42"/>
<polygon fill="black" stroke="black" points="900.5,-2368.62 897,-2358.62 893.5,-2368.62 900.5,-2368.62"/>
</g>
<!-- j1101126409 -->
<g id="node20" class="node">
<title>j1101126409</title>
<ellipse fill="none" stroke="orange" cx="1108" cy="-2411" rx="141.07" ry="18"/>
<text text-anchor="middle" x="1108" y="-2407.3" font-family="Times New Roman,serif" font-size="14.00">Boolean HexDroneFree is now true.</text>
</g>
<!-- j1265450144&#45;&gt;j1101126409 -->
<g id="edge22" class="edge">
<title>j1265450144&#45;&gt;j1101126409</title>
<path fill="none" stroke="black" d="M1139.62,-2464.7C1134.94,-2456.9 1129.31,-2447.51 1124.1,-2438.83"/>
<polygon fill="black" stroke="black" points="1127.19,-2437.18 1119.04,-2430.4 1121.19,-2440.78 1127.19,-2437.18"/>
</g>
<!-- j296192077 -->
<g id="node21" class="node">
<title>j296192077</title>
<polygon fill="none" stroke="blue" points="1114,-2285 680,-2285 680,-2249 1114,-2249 1114,-2285"/>
<text text-anchor="middle" x="897" y="-2263.3" font-family="Times New Roman,serif" font-size="14.00">H16h V0l7463: 阿米尔的维修折扣马上就到，但请用硬币付款。</text>
</g>
<!-- j4242736673&#45;&gt;j296192077 -->
<g id="edge23" class="edge">
<title>j4242736673&#45;&gt;j296192077</title>
<path fill="none" stroke="black" d="M897,-2320.7C897,-2313.41 897,-2304.73 897,-2296.54"/>
<polygon fill="black" stroke="black" points="900.5,-2296.62 897,-2286.62 893.5,-2296.62 900.5,-2296.62"/>
</g>
<!-- j1101126409&#45;&gt;j4242736673 -->
<g id="edge24" class="edge">
<title>j1101126409&#45;&gt;j4242736673</title>
<path fill="none" stroke="black" d="M1058.8,-2393.68C1029.49,-2383.96 992,-2371.52 960.48,-2361.06"/>
<polygon fill="black" stroke="black" points="961.63,-2357.76 951.04,-2357.93 959.43,-2364.4 961.63,-2357.76"/>
</g>
<!-- j960975560 -->
<g id="node22" class="node">
<title>j960975560</title>
<polygon fill="none" stroke="blue" points="1210.5,-2213 583.5,-2213 583.5,-2177 1210.5,-2177 1210.5,-2213"/>
<text text-anchor="middle" x="897" y="-2191.3" font-family="Times New Roman,serif" font-size="14.00">xX GLIMMER Xx: 嘿？之前的问题？怎么喂它？我不太清楚未来的……东西是怎么用的……</text>
</g>
<!-- j296192077&#45;&gt;j960975560 -->
<g id="edge25" class="edge">
<title>j296192077&#45;&gt;j960975560</title>
<path fill="none" stroke="black" d="M897,-2248.7C897,-2241.41 897,-2232.73 897,-2224.54"/>
<polygon fill="black" stroke="black" points="900.5,-2224.62 897,-2214.62 893.5,-2224.62 900.5,-2224.62"/>
</g>
<!-- j3961395797 -->
<g id="node23" class="node">
<title>j3961395797</title>
<polygon fill="none" stroke="red" points="721,-2141 531,-2141 531,-2105 721,-2105 721,-2141"/>
<text text-anchor="middle" x="626" y="-2119.3" font-family="Times New Roman,serif" font-size="14.00">不用，假装它是魔法吧。</text>
</g>
<!-- j960975560&#45;&gt;j3961395797 -->
<g id="edge26" class="edge">
<title>j960975560&#45;&gt;j3961395797</title>
<path fill="none" stroke="black" d="M829.31,-2176.52C791.34,-2166.71 743.79,-2154.43 704.23,-2144.21"/>
<polygon fill="black" stroke="black" points="705.32,-2140.87 694.76,-2141.76 703.56,-2147.65 705.32,-2140.87"/>
</g>
<!-- j1853727169 -->
<g id="node24" class="node">
<title>j1853727169</title>
<polygon fill="none" stroke="red" points="1055,-2141 739,-2141 739,-2105 1055,-2105 1055,-2141"/>
<text text-anchor="middle" x="897" y="-2119.3" font-family="Times New Roman,serif" font-size="14.00">连面包渣都不要，但是它可能会吸到什么。</text>
</g>
<!-- j960975560&#45;&gt;j1853727169 -->
<g id="edge27" class="edge">
<title>j960975560&#45;&gt;j1853727169</title>
<path fill="none" stroke="black" d="M897,-2176.7C897,-2169.41 897,-2160.73 897,-2152.54"/>
<polygon fill="black" stroke="black" points="900.5,-2152.62 897,-2142.62 893.5,-2152.62 900.5,-2152.62"/>
</g>
<!-- j2261902168 -->
<g id="node25" class="node">
<title>j2261902168</title>
<polygon fill="none" stroke="red" points="1326.5,-2141 1073.5,-2141 1073.5,-2105 1326.5,-2105 1326.5,-2141"/>
<text text-anchor="middle" x="1200" y="-2119.3" font-family="Times New Roman,serif" font-size="14.00">不用，但阿米尔大概能让它更快。</text>
</g>
<!-- j960975560&#45;&gt;j2261902168 -->
<g id="edge28" class="edge">
<title>j960975560&#45;&gt;j2261902168</title>
<path fill="none" stroke="black" d="M972.68,-2176.52C1015.42,-2166.64 1069.01,-2154.26 1113.42,-2144"/>
<polygon fill="black" stroke="black" points="1114.07,-2147.44 1123.02,-2141.78 1112.49,-2140.62 1114.07,-2147.44"/>
</g>
<!-- j2298479992 -->
<g id="node26" class="node">
<title>j2298479992</title>
<ellipse fill="none" stroke="orange" cx="728" cy="-1979" rx="136.48" ry="18"/>
<text text-anchor="middle" x="728" y="-1975.3" font-family="Times New Roman,serif" font-size="14.00">Boolean HexFixMagic is now true.</text>
</g>
<!-- j3961395797&#45;&gt;j2298479992 -->
<g id="edge29" class="edge">
<title>j3961395797&#45;&gt;j2298479992</title>
<path fill="none" stroke="black" d="M638.51,-2104.59C656.19,-2079.97 688.64,-2034.8 709.22,-2006.14"/>
<polygon fill="black" stroke="black" points="711.83,-2008.5 714.83,-1998.34 706.15,-2004.42 711.83,-2008.5"/>
</g>
<!-- j3637032024 -->
<g id="node27" class="node">
<title>j3637032024</title>
<ellipse fill="none" stroke="orange" cx="897" cy="-2051" rx="146.47" ry="18"/>
<text text-anchor="middle" x="897" y="-2047.3" font-family="Times New Roman,serif" font-size="14.00">Boolean HexFixByProxy is now true.</text>
</g>
<!-- j1853727169&#45;&gt;j3637032024 -->
<g id="edge30" class="edge">
<title>j1853727169&#45;&gt;j3637032024</title>
<path fill="none" stroke="black" d="M897,-2104.7C897,-2097.41 897,-2088.73 897,-2080.54"/>
<polygon fill="black" stroke="black" points="900.5,-2080.62 897,-2070.62 893.5,-2080.62 900.5,-2080.62"/>
</g>
<!-- j3910670804 -->
<g id="node28" class="node">
<title>j3910670804</title>
<polygon fill="none" stroke="blue" points="1279,-2069 1081,-2069 1081,-2033 1279,-2033 1279,-2069"/>
<text text-anchor="middle" x="1180" y="-2047.3" font-family="Times New Roman,serif" font-size="14.00">H16h V0l7463: 用超频！！！</text>
</g>
<!-- j2261902168&#45;&gt;j3910670804 -->
<g id="edge31" class="edge">
<title>j2261902168&#45;&gt;j3910670804</title>
<path fill="none" stroke="black" d="M1195.06,-2104.7C1192.92,-2097.24 1190.38,-2088.32 1187.99,-2079.97"/>
<polygon fill="black" stroke="black" points="1191.42,-2079.21 1185.3,-2070.56 1184.68,-2081.14 1191.42,-2079.21"/>
</g>
<!-- j2426448067 -->
<g id="node29" class="node">
<title>j2426448067</title>
<polygon fill="none" stroke="blue" points="1055,-1925 739,-1925 739,-1872 1055,-1872 1055,-1925"/>
<text text-anchor="middle" x="897" y="-1909.8" font-family="Times New Roman,serif" font-size="14.00">Belladonna ~{@: 总算松了口气&#13;</text>
<text text-anchor="middle" x="897" y="-1894.8" font-family="Times New Roman,serif" font-size="14.00">不用多张嘴，光我们养活自己就够麻烦的了&#13;</text>
<text text-anchor="middle" x="897" y="-1879.8" font-family="Times New Roman,serif" font-size="14.00">否则它就只能被“退货”了</text>
</g>
<!-- j2298479992&#45;&gt;j2426448067 -->
<g id="edge32" class="edge">
<title>j2298479992&#45;&gt;j2426448067</title>
<path fill="none" stroke="black" d="M764.25,-1961.16C783.68,-1952.14 808.23,-1940.73 830.91,-1930.2"/>
<polygon fill="black" stroke="black" points="832.21,-1933.45 839.81,-1926.07 829.26,-1927.1 832.21,-1933.45"/>
</g>
<!-- j3637032024&#45;&gt;j2426448067 -->
<g id="edge33" class="edge">
<title>j3637032024&#45;&gt;j2426448067</title>
<path fill="none" stroke="black" d="M897,-2032.74C897,-2009.39 897,-1967.15 897,-1936.47"/>
<polygon fill="black" stroke="black" points="900.5,-1936.86 897,-1926.86 893.5,-1936.86 900.5,-1936.86"/>
</g>
<!-- j3119250076 -->
<g id="node30" class="node">
<title>j3119250076</title>
<ellipse fill="none" stroke="orange" cx="1110" cy="-1979" rx="136.48" ry="18"/>
<text text-anchor="middle" x="1110" y="-1975.3" font-family="Times New Roman,serif" font-size="14.00">Boolean HexFixFaster is now true.</text>
</g>
<!-- j3910670804&#45;&gt;j3119250076 -->
<g id="edge34" class="edge">
<title>j3910670804&#45;&gt;j3119250076</title>
<path fill="none" stroke="black" d="M1162.7,-2032.7C1154.39,-2024.39 1144.28,-2014.28 1135.14,-2005.14"/>
<polygon fill="black" stroke="black" points="1137.72,-2002.77 1128.17,-1998.17 1132.77,-2007.72 1137.72,-2002.77"/>
</g>
<!-- j3651916260 -->
<g id="node31" class="node">
<title>j3651916260</title>
<polygon fill="none" stroke="blue" points="1133.5,-1836 660.5,-1836 660.5,-1800 1133.5,-1800 1133.5,-1836"/>
<text text-anchor="middle" x="897" y="-1814.3" font-family="Times New Roman,serif" font-size="14.00">Soldja1Shot1kil: 可是你不是已经加了四张嘴了吗？你那些小鼠什么的</text>
</g>
<!-- j2426448067&#45;&gt;j3651916260 -->
<g id="edge35" class="edge">
<title>j2426448067&#45;&gt;j3651916260</title>
<path fill="none" stroke="black" d="M897,-1871.8C897,-1864.08 897,-1855.56 897,-1847.66"/>
<polygon fill="black" stroke="black" points="900.5,-1847.84 897,-1837.84 893.5,-1847.84 900.5,-1847.84"/>
</g>
<!-- j3119250076&#45;&gt;j2426448067 -->
<g id="edge36" class="edge">
<title>j3119250076&#45;&gt;j2426448067</title>
<path fill="none" stroke="black" d="M1065.35,-1961.54C1040.03,-1952.21 1007.58,-1940.26 977.94,-1929.33"/>
<polygon fill="black" stroke="black" points="979.18,-1926.06 968.59,-1925.88 976.76,-1932.63 979.18,-1926.06"/>
</g>
<!-- j3039883227 -->
<g id="node32" class="node">
<title>j3039883227</title>
<polygon fill="none" stroke="blue" points="1174.5,-1764 619.5,-1764 619.5,-1728 1174.5,-1728 1174.5,-1764"/>
<text text-anchor="middle" x="897" y="-1742.3" font-family="Times New Roman,serif" font-size="14.00">H16h V0l7463: 唔，*严格来说*应该是五个，因为还有一只想要吃小鼠的大猫……</text>
</g>
<!-- j3651916260&#45;&gt;j3039883227 -->
<g id="edge37" class="edge">
<title>j3651916260&#45;&gt;j3039883227</title>
<path fill="none" stroke="black" d="M897,-1799.7C897,-1792.41 897,-1783.73 897,-1775.54"/>
<polygon fill="black" stroke="black" points="900.5,-1775.62 897,-1765.62 893.5,-1775.62 900.5,-1775.62"/>
</g>
<!-- j2483870946 -->
<g id="node33" class="node">
<title>j2483870946</title>
<polygon fill="none" stroke="blue" points="1048,-1692 746,-1692 746,-1656 1048,-1656 1048,-1692"/>
<text text-anchor="middle" x="897" y="-1670.3" font-family="Times New Roman,serif" font-size="14.00">xX GLIMMER Xx: 阿米尔！谁都不会吃谁！</text>
</g>
<!-- j3039883227&#45;&gt;j2483870946 -->
<g id="edge38" class="edge">
<title>j3039883227&#45;&gt;j2483870946</title>
<path fill="none" stroke="black" d="M897,-1727.7C897,-1720.41 897,-1711.73 897,-1703.54"/>
<polygon fill="black" stroke="black" points="900.5,-1703.62 897,-1693.62 893.5,-1703.62 900.5,-1703.62"/>
</g>
<!-- j1131193131 -->
<g id="node34" class="node">
<title>j1131193131</title>
<polygon fill="none" stroke="blue" points="957,-1620 837,-1620 837,-1584 957,-1584 957,-1620"/>
<text text-anchor="middle" x="897" y="-1598.3" font-family="Times New Roman,serif" font-size="14.00">Salem: 真可惜。</text>
</g>
<!-- j2483870946&#45;&gt;j1131193131 -->
<g id="edge39" class="edge">
<title>j2483870946&#45;&gt;j1131193131</title>
<path fill="none" stroke="black" d="M897,-1655.7C897,-1648.41 897,-1639.73 897,-1631.54"/>
<polygon fill="black" stroke="black" points="900.5,-1631.62 897,-1621.62 893.5,-1631.62 900.5,-1631.62"/>
</g>
<!-- j3580379292 -->
<g id="node35" class="node">
<title>j3580379292</title>
<polygon fill="none" stroke="blue" points="1038,-1548 756,-1548 756,-1512 1038,-1512 1038,-1548"/>
<text text-anchor="middle" x="897" y="-1526.3" font-family="Times New Roman,serif" font-size="14.00">Broadsword: 该死的，我打字速度可不像</text>
</g>
<!-- j1131193131&#45;&gt;j3580379292 -->
<g id="edge40" class="edge">
<title>j1131193131&#45;&gt;j3580379292</title>
<path fill="none" stroke="black" d="M897,-1583.7C897,-1576.41 897,-1567.73 897,-1559.54"/>
<polygon fill="black" stroke="black" points="900.5,-1559.62 897,-1549.62 893.5,-1559.62 900.5,-1559.62"/>
</g>
<!-- j973595819 -->
<g id="node36" class="node">
<title>j973595819</title>
<polygon fill="none" stroke="blue" points="1051,-1476 743,-1476 743,-1440 1051,-1440 1051,-1476"/>
<text text-anchor="middle" x="897" y="-1454.3" font-family="Times New Roman,serif" font-size="14.00">H16h V0l7463: 像我我我我？我我我？我吗？</text>
</g>
<!-- j3580379292&#45;&gt;j973595819 -->
<g id="edge41" class="edge">
<title>j3580379292&#45;&gt;j973595819</title>
<path fill="none" stroke="black" d="M897,-1511.7C897,-1504.41 897,-1495.73 897,-1487.54"/>
<polygon fill="black" stroke="black" points="900.5,-1487.62 897,-1477.62 893.5,-1487.62 900.5,-1487.62"/>
</g>
<!-- j1984671326 -->
<g id="node37" class="node">
<title>j1984671326</title>
<polygon fill="none" stroke="blue" points="983,-1404 811,-1404 811,-1368 983,-1368 983,-1404"/>
<text text-anchor="middle" x="897" y="-1382.3" font-family="Times New Roman,serif" font-size="14.00">Broadsword: 停。够了！</text>
</g>
<!-- j973595819&#45;&gt;j1984671326 -->
<g id="edge42" class="edge">
<title>j973595819&#45;&gt;j1984671326</title>
<path fill="none" stroke="black" d="M897,-1439.7C897,-1432.41 897,-1423.73 897,-1415.54"/>
<polygon fill="black" stroke="black" points="900.5,-1415.62 897,-1405.62 893.5,-1415.62 900.5,-1415.62"/>
</g>
<!-- j2797974918 -->
<g id="node38" class="node">
<title>j2797974918</title>
<polygon fill="none" stroke="blue" points="1794,-1332 0,-1332 0,-1296 1794,-1296 1794,-1332"/>
<text text-anchor="middle" x="897" y="-1310.3" font-family="Times New Roman,serif" font-size="14.00">Broadsword: 我们的食物够多的。我数过了。而且我注意到午餐轮流情况：昆西第一个吃午餐，自己一个。然后是莱蒂，自己一个，小鼠不算。阿米尔，吃得很快，自己一个。碧和我总是在阿米尔之后吃饭，通常是她先吃。埃莉诺总是最后一个吃。自己一个。</text>
</g>
<!-- j1984671326&#45;&gt;j2797974918 -->
<g id="edge43" class="edge">
<title>j1984671326&#45;&gt;j2797974918</title>
<path fill="none" stroke="black" d="M897,-1367.7C897,-1360.41 897,-1351.73 897,-1343.54"/>
<polygon fill="black" stroke="black" points="900.5,-1343.62 897,-1333.62 893.5,-1343.62 900.5,-1343.62"/>
</g>
<!-- j2413641183 -->
<g id="node39" class="node">
<title>j2413641183</title>
<polygon fill="none" stroke="red" points="692,-1260 612,-1260 612,-1224 692,-1224 692,-1260"/>
<text text-anchor="middle" x="652" y="-1238.3" font-family="Times New Roman,serif" font-size="14.00">那我呢？</text>
</g>
<!-- j2797974918&#45;&gt;j2413641183 -->
<g id="edge44" class="edge">
<title>j2797974918&#45;&gt;j2413641183</title>
<path fill="none" stroke="black" d="M835.81,-1295.52C795.04,-1283.87 742.08,-1268.74 703.48,-1257.71"/>
<polygon fill="black" stroke="black" points="704.53,-1254.37 693.95,-1254.99 702.6,-1261.1 704.53,-1254.37"/>
</g>
<!-- j1231796966 -->
<g id="node40" class="node">
<title>j1231796966</title>
<polygon fill="none" stroke="red" points="1007.5,-1260 786.5,-1260 786.5,-1224 1007.5,-1224 1007.5,-1260"/>
<text text-anchor="middle" x="897" y="-1238.3" font-family="Times New Roman,serif" font-size="14.00">你有关注过我的时间安排吗？</text>
</g>
<!-- j2797974918&#45;&gt;j1231796966 -->
<g id="edge45" class="edge">
<title>j2797974918&#45;&gt;j1231796966</title>
<path fill="none" stroke="black" d="M897,-1295.7C897,-1288.41 897,-1279.73 897,-1271.54"/>
<polygon fill="black" stroke="black" points="900.5,-1271.62 897,-1261.62 893.5,-1271.62 900.5,-1271.62"/>
</g>
<!-- j3223044395 -->
<g id="node41" class="node">
<title>j3223044395</title>
<polygon fill="none" stroke="red" points="1274,-1260 1068,-1260 1068,-1224 1274,-1224 1274,-1260"/>
<text text-anchor="middle" x="1171" y="-1238.3" font-family="Times New Roman,serif" font-size="14.00">我每次都是自己一个人吃。</text>
</g>
<!-- j2797974918&#45;&gt;j3223044395 -->
<g id="edge46" class="edge">
<title>j2797974918&#45;&gt;j3223044395</title>
<path fill="none" stroke="black" d="M965.43,-1295.52C1003.83,-1285.71 1051.91,-1273.43 1091.91,-1263.21"/>
<polygon fill="black" stroke="black" points="1092.67,-1266.62 1101.5,-1260.76 1090.94,-1259.84 1092.67,-1266.62"/>
</g>
<!-- j1784557555 -->
<g id="node42" class="node">
<title>j1784557555</title>
<ellipse fill="none" stroke="orange" cx="576" cy="-1170" rx="147.57" ry="18"/>
<text text-anchor="middle" x="576" y="-1166.3" font-family="Times New Roman,serif" font-size="14.00">Boolean HexFoodNotMe is now true.</text>
</g>
<!-- j2413641183&#45;&gt;j1784557555 -->
<g id="edge47" class="edge">
<title>j2413641183&#45;&gt;j1784557555</title>
<path fill="none" stroke="black" d="M633.21,-1223.7C624.17,-1215.37 613.16,-1205.22 603.22,-1196.07"/>
<polygon fill="black" stroke="black" points="605.67,-1193.57 595.95,-1189.37 600.93,-1198.72 605.67,-1193.57"/>
</g>
<!-- j3589905970 -->
<g id="node43" class="node">
<title>j3589905970</title>
<ellipse fill="none" stroke="orange" cx="897" cy="-1170" rx="155.17" ry="18"/>
<text text-anchor="middle" x="897" y="-1166.3" font-family="Times New Roman,serif" font-size="14.00">Boolean HexFoodSchedule is now true.</text>
</g>
<!-- j1231796966&#45;&gt;j3589905970 -->
<g id="edge48" class="edge">
<title>j1231796966&#45;&gt;j3589905970</title>
<path fill="none" stroke="black" d="M897,-1223.7C897,-1216.41 897,-1207.73 897,-1199.54"/>
<polygon fill="black" stroke="black" points="900.5,-1199.62 897,-1189.62 893.5,-1199.62 900.5,-1199.62"/>
</g>
<!-- j4108111885 -->
<g id="node44" class="node">
<title>j4108111885</title>
<ellipse fill="none" stroke="orange" cx="1214" cy="-1170" rx="143.77" ry="18"/>
<text text-anchor="middle" x="1214" y="-1166.3" font-family="Times New Roman,serif" font-size="14.00">Boolean HexFoodAlone is now true.</text>
</g>
<!-- j3223044395&#45;&gt;j4108111885 -->
<g id="edge49" class="edge">
<title>j3223044395&#45;&gt;j4108111885</title>
<path fill="none" stroke="black" d="M1181.63,-1223.7C1186.42,-1215.9 1192.19,-1206.51 1197.52,-1197.83"/>
<polygon fill="black" stroke="black" points="1200.45,-1199.75 1202.7,-1189.39 1194.48,-1196.08 1200.45,-1199.75"/>
</g>
<!-- j1779456749 -->
<g id="node45" class="node">
<title>j1779456749</title>
<polygon fill="none" stroke="blue" points="1313,-1116 481,-1116 481,-1080 1313,-1080 1313,-1116"/>
<text text-anchor="middle" x="897" y="-1094.3" font-family="Times New Roman,serif" font-size="14.00">xX GLIMMER Xx: 或许下次你可以和我一起吃饭？大家都可以和我一起吃午餐……我以为大家都想要自己的独处时间……</text>
</g>
<!-- j1784557555&#45;&gt;j1779456749 -->
<g id="edge50" class="edge">
<title>j1784557555&#45;&gt;j1779456749</title>
<path fill="none" stroke="black" d="M646.05,-1153.72C692.97,-1143.49 755.2,-1129.92 805.95,-1118.86"/>
<polygon fill="black" stroke="black" points="806.42,-1122.33 815.45,-1116.78 804.93,-1115.5 806.42,-1122.33"/>
</g>
<!-- j3589905970&#45;&gt;j1779456749 -->
<g id="edge51" class="edge">
<title>j3589905970&#45;&gt;j1779456749</title>
<path fill="none" stroke="black" d="M897,-1151.7C897,-1144.41 897,-1135.73 897,-1127.54"/>
<polygon fill="black" stroke="black" points="900.5,-1127.62 897,-1117.62 893.5,-1127.62 900.5,-1127.62"/>
</g>
<!-- j4108111885&#45;&gt;j1779456749 -->
<g id="edge52" class="edge">
<title>j4108111885&#45;&gt;j1779456749</title>
<path fill="none" stroke="black" d="M1145.22,-1153.81C1098.91,-1143.59 1037.38,-1130 987.17,-1118.91"/>
<polygon fill="black" stroke="black" points="987.98,-1115.51 977.46,-1116.77 986.47,-1122.34 987.98,-1115.51"/>
</g>
<!-- j2365335797 -->
<g id="node46" class="node">
<title>j2365335797</title>
<polygon fill="none" stroke="blue" points="1176.5,-1044 617.5,-1044 617.5,-1008 1176.5,-1008 1176.5,-1044"/>
<text text-anchor="middle" x="897" y="-1022.3" font-family="Times New Roman,serif" font-size="14.00">H16h V0l7463: 我超喜欢吃，我会跟大家一起吃，给阿米尔来 6 片披萨！哈哈哈哈</text>
</g>
<!-- j1779456749&#45;&gt;j2365335797 -->
<g id="edge53" class="edge">
<title>j1779456749&#45;&gt;j2365335797</title>
<path fill="none" stroke="black" d="M897,-1079.7C897,-1072.41 897,-1063.73 897,-1055.54"/>
<polygon fill="black" stroke="black" points="900.5,-1055.62 897,-1045.62 893.5,-1055.62 900.5,-1055.62"/>
</g>
<!-- j1540051242 -->
<g id="node47" class="node">
<title>j1540051242</title>
<polygon fill="none" stroke="blue" points="1204.5,-972 589.5,-972 589.5,-936 1204.5,-936 1204.5,-972"/>
<text text-anchor="middle" x="897" y="-950.3" font-family="Times New Roman,serif" font-size="14.00">Soldja1Shot1kil: 好吧，既然亚瑟说我们的食物够了，那就得喂饱那个还在长身体的小男孩</text>
</g>
<!-- j2365335797&#45;&gt;j1540051242 -->
<g id="edge54" class="edge">
<title>j2365335797&#45;&gt;j1540051242</title>
<path fill="none" stroke="black" d="M897,-1007.7C897,-1000.41 897,-991.73 897,-983.54"/>
<polygon fill="black" stroke="black" points="900.5,-983.62 897,-973.62 893.5,-983.62 900.5,-983.62"/>
</g>
<!-- j3581589841 -->
<g id="node48" class="node">
<title>j3581589841</title>
<polygon fill="none" stroke="blue" points="1224.5,-900 569.5,-900 569.5,-864 1224.5,-864 1224.5,-900"/>
<text text-anchor="middle" x="897" y="-878.3" font-family="Times New Roman,serif" font-size="14.00">H16h V0l7463: 嘿，我真觉得我比你高，那你为什么这么说？这样我岂不是能长得更大吗！哈！</text>
</g>
<!-- j1540051242&#45;&gt;j3581589841 -->
<g id="edge55" class="edge">
<title>j1540051242&#45;&gt;j3581589841</title>
<path fill="none" stroke="black" d="M897,-935.7C897,-928.41 897,-919.73 897,-911.54"/>
<polygon fill="black" stroke="black" points="900.5,-911.62 897,-901.62 893.5,-911.62 900.5,-911.62"/>
</g>
<!-- j3748690367 -->
<g id="node49" class="node">
<title>j3748690367</title>
<polygon fill="none" stroke="red" points="762.5,-828 399.5,-828 399.5,-792 762.5,-792 762.5,-828"/>
<text text-anchor="middle" x="581" y="-806.3" font-family="Times New Roman,serif" font-size="14.00">如果我们大家一起吃，可能是个不错的团队时刻。</text>
</g>
<!-- j3581589841&#45;&gt;j3748690367 -->
<g id="edge56" class="edge">
<title>j3581589841&#45;&gt;j3748690367</title>
<path fill="none" stroke="black" d="M818.07,-863.52C773.31,-853.6 717.14,-841.16 670.71,-830.87"/>
<polygon fill="black" stroke="black" points="671.74,-827.52 661.22,-828.77 670.22,-834.35 671.74,-827.52"/>
</g>
<!-- j871648159 -->
<g id="node50" class="node">
<title>j871648159</title>
<polygon fill="none" stroke="red" points="992,-828 802,-828 802,-792 992,-792 992,-828"/>
<text text-anchor="middle" x="897" y="-806.3" font-family="Times New Roman,serif" font-size="14.00">我很想有一个团队午餐。</text>
</g>
<!-- j3581589841&#45;&gt;j871648159 -->
<g id="edge57" class="edge">
<title>j3581589841&#45;&gt;j871648159</title>
<path fill="none" stroke="black" d="M897,-863.7C897,-856.41 897,-847.73 897,-839.54"/>
<polygon fill="black" stroke="black" points="900.5,-839.62 897,-829.62 893.5,-839.62 900.5,-839.62"/>
</g>
<!-- j511213553 -->
<g id="node51" class="node">
<title>j511213553</title>
<polygon fill="none" stroke="red" points="1313.5,-828 1060.5,-828 1060.5,-792 1313.5,-792 1313.5,-828"/>
<text text-anchor="middle" x="1187" y="-806.3" font-family="Times New Roman,serif" font-size="14.00">谁愿意参加我的第一次团队午餐？</text>
</g>
<!-- j3581589841&#45;&gt;j511213553 -->
<g id="edge58" class="edge">
<title>j3581589841&#45;&gt;j511213553</title>
<path fill="none" stroke="black" d="M969.43,-863.52C1010.17,-853.68 1061.19,-841.37 1103.59,-831.13"/>
<polygon fill="black" stroke="black" points="1104.37,-834.55 1113.27,-828.8 1102.73,-827.74 1104.37,-834.55"/>
</g>
<!-- j2946959261 -->
<g id="node52" class="node">
<title>j2946959261</title>
<ellipse fill="none" stroke="orange" cx="559" cy="-738" rx="163.27" ry="18"/>
<text text-anchor="middle" x="559" y="-734.3" font-family="Times New Roman,serif" font-size="14.00">Boolean HexTeamEatSuggest is now true.</text>
</g>
<!-- j3748690367&#45;&gt;j2946959261 -->
<g id="edge59" class="edge">
<title>j3748690367&#45;&gt;j2946959261</title>
<path fill="none" stroke="black" d="M575.56,-791.7C573.22,-784.24 570.42,-775.32 567.79,-766.97"/>
<polygon fill="black" stroke="black" points="571.17,-766.04 564.83,-757.55 564.49,-768.14 571.17,-766.04"/>
</g>
<!-- j3660687905 -->
<g id="node53" class="node">
<title>j3660687905</title>
<ellipse fill="none" stroke="orange" cx="897" cy="-738" rx="157.07" ry="18"/>
<text text-anchor="middle" x="897" y="-734.3" font-family="Times New Roman,serif" font-size="14.00">Boolean HexTeamEatLunch is now true.</text>
</g>
<!-- j871648159&#45;&gt;j3660687905 -->
<g id="edge60" class="edge">
<title>j871648159&#45;&gt;j3660687905</title>
<path fill="none" stroke="black" d="M897,-791.7C897,-784.41 897,-775.73 897,-767.54"/>
<polygon fill="black" stroke="black" points="900.5,-767.62 897,-757.62 893.5,-767.62 900.5,-767.62"/>
</g>
<!-- j4081071421 -->
<g id="node54" class="node">
<title>j4081071421</title>
<ellipse fill="none" stroke="orange" cx="1237" cy="-738" rx="164.37" ry="18"/>
<text text-anchor="middle" x="1237" y="-734.3" font-family="Times New Roman,serif" font-size="14.00">Boolean HexTeamEatRequest is now true.</text>
</g>
<!-- j511213553&#45;&gt;j4081071421 -->
<g id="edge61" class="edge">
<title>j511213553&#45;&gt;j4081071421</title>
<path fill="none" stroke="black" d="M1199.36,-791.7C1205.05,-783.73 1211.93,-774.1 1218.24,-765.26"/>
<polygon fill="black" stroke="black" points="1220.94,-767.51 1223.9,-757.34 1215.24,-763.44 1220.94,-767.51"/>
</g>
<!-- j1070515462 -->
<g id="node55" class="node">
<title>j1070515462</title>
<polygon fill="none" stroke="blue" points="949,-684 845,-684 845,-648 949,-648 949,-684"/>
<text text-anchor="middle" x="897" y="-662.3" font-family="Times New Roman,serif" font-size="14.00">Salem: 团队？</text>
</g>
<!-- j2946959261&#45;&gt;j1070515462 -->
<g id="edge62" class="edge">
<title>j2946959261&#45;&gt;j1070515462</title>
<path fill="none" stroke="black" d="M633.59,-721.55C693.56,-709.13 776.87,-691.88 833.63,-680.12"/>
<polygon fill="black" stroke="black" points="834.05,-683.61 843.13,-678.16 832.63,-676.76 834.05,-683.61"/>
</g>
<!-- j3660687905&#45;&gt;j1070515462 -->
<g id="edge63" class="edge">
<title>j3660687905&#45;&gt;j1070515462</title>
<path fill="none" stroke="black" d="M897,-719.7C897,-712.41 897,-703.73 897,-695.54"/>
<polygon fill="black" stroke="black" points="900.5,-695.62 897,-685.62 893.5,-695.62 900.5,-695.62"/>
</g>
<!-- j4081071421&#45;&gt;j1070515462 -->
<g id="edge64" class="edge">
<title>j4081071421&#45;&gt;j1070515462</title>
<path fill="none" stroke="black" d="M1161.96,-721.55C1101.56,-709.11 1017.59,-691.83 960.48,-680.07"/>
<polygon fill="black" stroke="black" points="961.42,-676.69 950.92,-678.1 960.01,-683.55 961.42,-676.69"/>
</g>
<!-- j331529681 -->
<g id="node56" class="node">
<title>j331529681</title>
<polygon fill="none" stroke="blue" points="978.5,-612 815.5,-612 815.5,-576 978.5,-576 978.5,-612"/>
<text text-anchor="middle" x="897" y="-590.3" font-family="Times New Roman,serif" font-size="14.00">Belladonna ~{@: 团队？</text>
</g>
<!-- j1070515462&#45;&gt;j331529681 -->
<g id="edge65" class="edge">
<title>j1070515462&#45;&gt;j331529681</title>
<path fill="none" stroke="black" d="M897,-647.7C897,-640.41 897,-631.73 897,-623.54"/>
<polygon fill="black" stroke="black" points="900.5,-623.62 897,-613.62 893.5,-623.62 900.5,-623.62"/>
</g>
<!-- j121098405 -->
<g id="node57" class="node">
<title>j121098405</title>
<polygon fill="none" stroke="blue" points="1207,-540 587,-540 587,-504 1207,-504 1207,-540"/>
<text text-anchor="middle" x="897" y="-518.3" font-family="Times New Roman,serif" font-size="14.00">H16h V0l7463: 天哪，双胞胎？三胞胎？亚瑟！你从没说过莱蒂是第三个姓南丁格尔的……</text>
</g>
<!-- j331529681&#45;&gt;j121098405 -->
<g id="edge66" class="edge">
<title>j331529681&#45;&gt;j121098405</title>
<path fill="none" stroke="black" d="M897,-575.7C897,-568.41 897,-559.73 897,-551.54"/>
<polygon fill="black" stroke="black" points="900.5,-551.62 897,-541.62 893.5,-551.62 900.5,-551.62"/>
</g>
<!-- j3155922515 -->
<g id="node58" class="node">
<title>j3155922515</title>
<polygon fill="none" stroke="blue" points="1092,-468 702,-468 702,-432 1092,-432 1092,-468"/>
<text text-anchor="middle" x="897" y="-446.3" font-family="Times New Roman,serif" font-size="14.00">Broadsword: 阿米尔，我发誓，我知道你*现在*在哪里。</text>
</g>
<!-- j121098405&#45;&gt;j3155922515 -->
<g id="edge67" class="edge">
<title>j121098405&#45;&gt;j3155922515</title>
<path fill="none" stroke="black" d="M897,-503.7C897,-496.41 897,-487.73 897,-479.54"/>
<polygon fill="black" stroke="black" points="900.5,-479.62 897,-469.62 893.5,-479.62 900.5,-479.62"/>
</g>
<!-- j2049492158 -->
<g id="node59" class="node">
<title>j2049492158</title>
<polygon fill="none" stroke="blue" points="1072,-396 722,-396 722,-360 1072,-360 1072,-396"/>
<text text-anchor="middle" x="897" y="-374.3" font-family="Times New Roman,serif" font-size="14.00">xX GLIMMER Xx: 阿漂，算我一个！团队午餐！^.^</text>
</g>
<!-- j3155922515&#45;&gt;j2049492158 -->
<g id="edge68" class="edge">
<title>j3155922515&#45;&gt;j2049492158</title>
<path fill="none" stroke="black" d="M897,-431.7C897,-424.41 897,-415.73 897,-407.54"/>
<polygon fill="black" stroke="black" points="900.5,-407.62 897,-397.62 893.5,-407.62 900.5,-407.62"/>
</g>
<!-- j2491923389 -->
<g id="node60" class="node">
<title>j2491923389</title>
<polygon fill="none" stroke="blue" points="1078.5,-324 715.5,-324 715.5,-288 1078.5,-288 1078.5,-324"/>
<text text-anchor="middle" x="897" y="-302.3" font-family="Times New Roman,serif" font-size="14.00">Soldja1Shot1kil: 抱歉，最近很忙。还有别的地方要去</text>
</g>
<!-- j2049492158&#45;&gt;j2491923389 -->
<g id="edge69" class="edge">
<title>j2049492158&#45;&gt;j2491923389</title>
<path fill="none" stroke="black" d="M897,-359.7C897,-352.41 897,-343.73 897,-335.54"/>
<polygon fill="black" stroke="black" points="900.5,-335.62 897,-325.62 893.5,-335.62 900.5,-335.62"/>
</g>
<!-- j3812070897 -->
<g id="node61" class="node">
<title>j3812070897</title>
<polygon fill="none" stroke="blue" points="1085.5,-252 708.5,-252 708.5,-216 1085.5,-216 1085.5,-252"/>
<text text-anchor="middle" x="897" y="-230.3" font-family="Times New Roman,serif" font-size="14.00">Broadsword: 漂泊者，这个主意不错，但我们都很忙。</text>
</g>
<!-- j2491923389&#45;&gt;j3812070897 -->
<g id="edge70" class="edge">
<title>j2491923389&#45;&gt;j3812070897</title>
<path fill="none" stroke="black" d="M897,-287.7C897,-280.41 897,-271.73 897,-263.54"/>
<polygon fill="black" stroke="black" points="900.5,-263.62 897,-253.62 893.5,-263.62 900.5,-263.62"/>
</g>
<!-- j160457263 -->
<g id="node62" class="node">
<title>j160457263</title>
<polygon fill="none" stroke="blue" points="965,-180 829,-180 829,-144 965,-144 965,-180"/>
<text text-anchor="middle" x="897" y="-158.3" font-family="Times New Roman,serif" font-size="14.00">Salem: 我会去的。</text>
</g>
<!-- j3812070897&#45;&gt;j160457263 -->
<g id="edge71" class="edge">
<title>j3812070897&#45;&gt;j160457263</title>
<path fill="none" stroke="black" d="M897,-215.7C897,-208.41 897,-199.73 897,-191.54"/>
<polygon fill="black" stroke="black" points="900.5,-191.62 897,-181.62 893.5,-191.62 900.5,-191.62"/>
</g>
<!-- j3805107002 -->
<g id="node63" class="node">
<title>j3805107002</title>
<polygon fill="none" stroke="blue" points="978.5,-108 815.5,-108 815.5,-72 978.5,-72 978.5,-108"/>
<text text-anchor="middle" x="897" y="-86.3" font-family="Times New Roman,serif" font-size="14.00">Belladonna ~{@: 我不去</text>
</g>
<!-- j160457263&#45;&gt;j3805107002 -->
<g id="edge72" class="edge">
<title>j160457263&#45;&gt;j3805107002</title>
<path fill="none" stroke="black" d="M897,-143.7C897,-136.41 897,-127.73 897,-119.54"/>
<polygon fill="black" stroke="black" points="900.5,-119.62 897,-109.62 893.5,-119.62 900.5,-119.62"/>
</g>
<!-- Chat ends. -->
<g id="node64" class="node">
<title>Chat ends.</title>
<ellipse fill="none" stroke="orange" cx="897" cy="-18" rx="50.09" ry="18"/>
<text text-anchor="middle" x="897" y="-14.3" font-family="Times New Roman,serif" font-size="14.00">Chat ends.</text>
</g>
<!-- j3805107002&#45;&gt;Chat ends. -->
<g id="edge73" class="edge">
<title>j3805107002&#45;&gt;Chat ends.</title>
<path fill="none" stroke="black" d="M897,-71.7C897,-64.41 897,-55.73 897,-47.54"/>
<polygon fill="black" stroke="black" points="900.5,-47.62 897,-37.62 893.5,-47.62 900.5,-47.62"/>
</g>
</g>
</svg>
