<?xml version="1.0" encoding="UTF-8" standalone="no"?>
<!DOCTYPE svg PUBLIC "-//W3C//DTD SVG 1.1//EN"
 "http://www.w3.org/Graphics/SVG/1.1/DTD/svg11.dtd">
<!-- Generated by graphviz version 7.1.0 (20230121.1956)
 -->
<!-- Pages: 1 -->
<svg width="2060pt" height="1916pt"
 viewBox="0.00 0.00 2059.50 1916.00" xmlns="http://www.w3.org/2000/svg" xmlns:xlink="http://www.w3.org/1999/xlink">
<g id="graph0" class="graph" transform="scale(1 1) rotate(0) translate(4 1912)">
<polygon fill="white" stroke="none" points="-4,4 -4,-1912 2055.5,-1912 2055.5,4 -4,4"/>
<!-- EleanorRank3Convo6 begins. -->
<g id="node1" class="node">
<title>EleanorRank3Convo6 begins.</title>
<ellipse fill="none" stroke="orange" cx="1307.5" cy="-1890" rx="118.88" ry="18"/>
<text text-anchor="middle" x="1307.5" y="-1886.3" font-family="Times New Roman,serif" font-size="14.00">EleanorRank3Convo6 begins.</text>
</g>
<!-- j1460394976 -->
<g id="node2" class="node">
<title>j1460394976</title>
<polygon fill="none" stroke="blue" points="1520.5,-1836 1094.5,-1836 1094.5,-1800 1520.5,-1800 1520.5,-1836"/>
<text text-anchor="middle" x="1307.5" y="-1814.3" font-family="Times New Roman,serif" font-size="14.00">你知道在炽蛇军接管之前，霍瓦尼亚最棒的事情是什么吗？</text>
</g>
<!-- EleanorRank3Convo6 begins.&#45;&gt;j1460394976 -->
<g id="edge1" class="edge">
<title>EleanorRank3Convo6 begins.&#45;&gt;j1460394976</title>
<path fill="none" stroke="black" d="M1307.5,-1871.7C1307.5,-1864.41 1307.5,-1855.73 1307.5,-1847.54"/>
<polygon fill="black" stroke="black" points="1311,-1847.62 1307.5,-1837.62 1304,-1847.62 1311,-1847.62"/>
</g>
<!-- j2485358106 -->
<g id="node3" class="node">
<title>j2485358106</title>
<polygon fill="none" stroke="red" points="491.5,-1764 411.5,-1764 411.5,-1728 491.5,-1728 491.5,-1764"/>
<text text-anchor="middle" x="451.5" y="-1742.3" font-family="Times New Roman,serif" font-size="14.00">夜生活？</text>
</g>
<!-- j1460394976&#45;&gt;j2485358106 -->
<g id="edge2" class="edge">
<title>j1460394976&#45;&gt;j2485358106</title>
<path fill="none" stroke="black" d="M1094.25,-1799.56C896.78,-1783.41 616.97,-1760.53 502.9,-1751.2"/>
<polygon fill="black" stroke="black" points="503.51,-1747.74 493.25,-1750.41 502.94,-1754.72 503.51,-1747.74"/>
</g>
<!-- j3918882616 -->
<g id="node4" class="node">
<title>j3918882616</title>
<polygon fill="none" stroke="red" points="1050,-1764 923,-1764 923,-1728 1050,-1728 1050,-1764"/>
<text text-anchor="middle" x="986.5" y="-1742.3" font-family="Times New Roman,serif" font-size="14.00">地下对抗回廊？</text>
</g>
<!-- j1460394976&#45;&gt;j3918882616 -->
<g id="edge3" class="edge">
<title>j1460394976&#45;&gt;j3918882616</title>
<path fill="none" stroke="black" d="M1227.33,-1799.52C1176.48,-1788.43 1111.15,-1774.18 1061.36,-1763.33"/>
<polygon fill="black" stroke="black" points="1062.34,-1759.96 1051.83,-1761.25 1060.85,-1766.8 1062.34,-1759.96"/>
</g>
<!-- j2589883448 -->
<g id="node5" class="node">
<title>j2589883448</title>
<polygon fill="none" stroke="red" points="1339.5,-1764 1275.5,-1764 1275.5,-1728 1339.5,-1728 1339.5,-1764"/>
<text text-anchor="middle" x="1307.5" y="-1742.3" font-family="Times New Roman,serif" font-size="14.00">购物？</text>
</g>
<!-- j1460394976&#45;&gt;j2589883448 -->
<g id="edge4" class="edge">
<title>j1460394976&#45;&gt;j2589883448</title>
<path fill="none" stroke="black" d="M1307.5,-1799.7C1307.5,-1792.41 1307.5,-1783.73 1307.5,-1775.54"/>
<polygon fill="black" stroke="black" points="1311,-1775.62 1307.5,-1765.62 1304,-1775.62 1311,-1775.62"/>
</g>
<!-- j1655963212 -->
<g id="node6" class="node">
<title>j1655963212</title>
<polygon fill="none" stroke="red" points="1649.5,-1764 1569.5,-1764 1569.5,-1728 1649.5,-1728 1649.5,-1764"/>
<text text-anchor="middle" x="1609.5" y="-1742.3" font-family="Times New Roman,serif" font-size="14.00">不知道。</text>
</g>
<!-- j1460394976&#45;&gt;j1655963212 -->
<g id="edge5" class="edge">
<title>j1460394976&#45;&gt;j1655963212</title>
<path fill="none" stroke="black" d="M1382.93,-1799.52C1437.6,-1786.85 1510.07,-1770.05 1558.17,-1758.9"/>
<polygon fill="black" stroke="black" points="1558.82,-1762.34 1567.77,-1756.67 1557.24,-1755.52 1558.82,-1762.34"/>
</g>
<!-- j1963805095 -->
<g id="node7" class="node">
<title>j1963805095</title>
<polygon fill="none" stroke="red" points="1959.5,-1764 1807.5,-1764 1807.5,-1728 1959.5,-1728 1959.5,-1764"/>
<text text-anchor="middle" x="1883.5" y="-1742.3" font-family="Times New Roman,serif" font-size="14.00">不感兴趣。[结束。]</text>
</g>
<!-- j1460394976&#45;&gt;j1963805095 -->
<g id="edge6" class="edge">
<title>j1460394976&#45;&gt;j1963805095</title>
<path fill="none" stroke="black" d="M1451.36,-1799.52C1559.64,-1786.36 1704.54,-1768.75 1795.97,-1757.64"/>
<polygon fill="black" stroke="black" points="1796.11,-1761.15 1805.62,-1756.46 1795.27,-1754.2 1796.11,-1761.15"/>
</g>
<!-- j684155358 -->
<g id="node8" class="node">
<title>j684155358</title>
<polygon fill="none" stroke="blue" points="489,-1692 0,-1692 0,-1656 489,-1656 489,-1692"/>
<text text-anchor="middle" x="244.5" y="-1670.3" font-family="Times New Roman,serif" font-size="14.00">天哪。那些整过容的拥有完美脸蛋的美人吸食未经测试的毒品？不。</text>
</g>
<!-- j2485358106&#45;&gt;j684155358 -->
<g id="edge7" class="edge">
<title>j2485358106&#45;&gt;j684155358</title>
<path fill="none" stroke="black" d="M411.1,-1731.34C381.48,-1721.32 340.71,-1707.53 306.91,-1696.11"/>
<polygon fill="black" stroke="black" points="308.24,-1692.86 297.64,-1692.97 305.99,-1699.49 308.24,-1692.86"/>
</g>
<!-- j1575717850 -->
<g id="node9" class="node">
<title>j1575717850</title>
<polygon fill="none" stroke="blue" points="965.5,-1692 507.5,-1692 507.5,-1656 965.5,-1656 965.5,-1692"/>
<text text-anchor="middle" x="736.5" y="-1670.3" font-family="Times New Roman,serif" font-size="14.00">听着。我一点也不反对看两个大汗淋漓的家伙互相厮杀。但不。</text>
</g>
<!-- j3918882616&#45;&gt;j1575717850 -->
<g id="edge8" class="edge">
<title>j3918882616&#45;&gt;j1575717850</title>
<path fill="none" stroke="black" d="M924.06,-1727.52C889.33,-1717.79 845.91,-1705.64 809.6,-1695.47"/>
<polygon fill="black" stroke="black" points="810.61,-1692.12 800.04,-1692.79 808.72,-1698.86 810.61,-1692.12"/>
</g>
<!-- j2189463904 -->
<g id="node10" class="node">
<title>j2189463904</title>
<polygon fill="none" stroke="blue" points="1631,-1692 984,-1692 984,-1656 1631,-1656 1631,-1692"/>
<text text-anchor="middle" x="1307.5" y="-1670.3" font-family="Times New Roman,serif" font-size="14.00">猜得好。你可以买到任何东西，从布雷斯林手提包和手套套装到冷冻的人类眼球。但不是。</text>
</g>
<!-- j2589883448&#45;&gt;j2189463904 -->
<g id="edge9" class="edge">
<title>j2589883448&#45;&gt;j2189463904</title>
<path fill="none" stroke="black" d="M1307.5,-1727.7C1307.5,-1720.41 1307.5,-1711.73 1307.5,-1703.54"/>
<polygon fill="black" stroke="black" points="1311,-1703.62 1307.5,-1693.62 1304,-1703.62 1311,-1703.62"/>
</g>
<!-- j1734917224 -->
<g id="node11" class="node">
<title>j1734917224</title>
<polygon fill="none" stroke="blue" points="1996,-1692 1649,-1692 1649,-1656 1996,-1656 1996,-1692"/>
<text text-anchor="middle" x="1822.5" y="-1670.3" font-family="Times New Roman,serif" font-size="14.00">嗯，你当然不知道。你是一个初来乍到的新人。</text>
</g>
<!-- j1655963212&#45;&gt;j1734917224 -->
<g id="edge10" class="edge">
<title>j1655963212&#45;&gt;j1734917224</title>
<path fill="none" stroke="black" d="M1649.81,-1731.75C1680.53,-1721.66 1723.41,-1707.57 1758.75,-1695.95"/>
<polygon fill="black" stroke="black" points="1759.62,-1699.35 1768.02,-1692.9 1757.43,-1692.7 1759.62,-1699.35"/>
</g>
<!-- j2748149425 -->
<g id="node12" class="node">
<title>j2748149425</title>
<polygon fill="none" stroke="blue" points="2051.5,-1620 1997.5,-1620 1997.5,-1584 2051.5,-1584 2051.5,-1620"/>
<text text-anchor="middle" x="2024.5" y="-1598.3" font-family="Times New Roman,serif" font-size="14.00">嘘。</text>
</g>
<!-- j1963805095&#45;&gt;j2748149425 -->
<g id="edge11" class="edge">
<title>j1963805095&#45;&gt;j2748149425</title>
<path fill="none" stroke="black" d="M1953.63,-1727.6C1972.93,-1719.66 1992.19,-1708.27 2005.5,-1692 2019.27,-1675.17 2023.73,-1650.71 2024.9,-1631.69"/>
<polygon fill="black" stroke="black" points="2028.39,-1632.01 2025.22,-1621.9 2021.4,-1631.78 2028.39,-1632.01"/>
</g>
<!-- j3215290265 -->
<g id="node13" class="node">
<title>j3215290265</title>
<polygon fill="none" stroke="blue" points="1016.5,-1620 936.5,-1620 936.5,-1584 1016.5,-1584 1016.5,-1620"/>
<text text-anchor="middle" x="976.5" y="-1598.3" font-family="Times New Roman,serif" font-size="14.00">是澡堂！</text>
</g>
<!-- j684155358&#45;&gt;j3215290265 -->
<g id="edge12" class="edge">
<title>j684155358&#45;&gt;j3215290265</title>
<path fill="none" stroke="black" d="M427.33,-1655.52C592.06,-1639.76 823.49,-1617.63 925.17,-1607.91"/>
<polygon fill="black" stroke="black" points="925.21,-1611.42 934.83,-1606.98 924.54,-1604.45 925.21,-1611.42"/>
</g>
<!-- j1575717850&#45;&gt;j3215290265 -->
<g id="edge13" class="edge">
<title>j1575717850&#45;&gt;j3215290265</title>
<path fill="none" stroke="black" d="M796.44,-1655.52C836.12,-1643.94 887.6,-1628.93 925.35,-1617.92"/>
<polygon fill="black" stroke="black" points="926.03,-1621.37 934.65,-1615.21 924.07,-1614.65 926.03,-1621.37"/>
</g>
<!-- j2189463904&#45;&gt;j3215290265 -->
<g id="edge14" class="edge">
<title>j2189463904&#45;&gt;j3215290265</title>
<path fill="none" stroke="black" d="M1224.83,-1655.52C1163.1,-1642.46 1080.67,-1625.03 1028.07,-1613.91"/>
<polygon fill="black" stroke="black" points="1028.98,-1610.52 1018.47,-1611.88 1027.53,-1617.37 1028.98,-1610.52"/>
</g>
<!-- j1734917224&#45;&gt;j3215290265 -->
<g id="edge15" class="edge">
<title>j1734917224&#45;&gt;j3215290265</title>
<path fill="none" stroke="black" d="M1648.62,-1656.71C1645.9,-1656.47 1643.19,-1656.23 1640.5,-1656 1412.39,-1636.24 1139.94,-1615.34 1028.19,-1606.89"/>
<polygon fill="black" stroke="black" points="1028.68,-1603.41 1018.45,-1606.15 1028.15,-1610.39 1028.68,-1603.41"/>
</g>
<!-- Chat ends. -->
<g id="node14" class="node">
<title>Chat ends.</title>
<ellipse fill="none" stroke="orange" cx="1158.5" cy="-18" rx="50.09" ry="18"/>
<text text-anchor="middle" x="1158.5" y="-14.3" font-family="Times New Roman,serif" font-size="14.00">Chat ends.</text>
</g>
<!-- j2748149425&#45;&gt;Chat ends. -->
<g id="edge16" class="edge">
<title>j2748149425&#45;&gt;Chat ends.</title>
<path fill="none" stroke="black" d="M2024.5,-1583.51C2024.5,-1556.71 2024.5,-1503.87 2024.5,-1459 2024.5,-1459 2024.5,-1459 2024.5,-161 2024.5,-79.26 1415.95,-34.78 1219.12,-22.53"/>
<polygon fill="black" stroke="black" points="1219.56,-19.05 1209.37,-21.93 1219.13,-26.03 1219.56,-19.05"/>
</g>
<!-- j2389573891 -->
<g id="node15" class="node">
<title>j2389573891</title>
<polygon fill="none" stroke="blue" points="1622.5,-1548 330.5,-1548 330.5,-1512 1622.5,-1512 1622.5,-1548"/>
<text text-anchor="middle" x="976.5" y="-1526.3" font-family="Times New Roman,serif" font-size="14.00">我不知道你所在的地方有没有类似的。我想你会称它们为庙堂，通常有一套太阳房和一套月亮房。你可以在公共或者私人池里泡泡。一切散发着草药和蒸汽的味道，很有助于提神醒脑。</text>
</g>
<!-- j3215290265&#45;&gt;j2389573891 -->
<g id="edge17" class="edge">
<title>j3215290265&#45;&gt;j2389573891</title>
<path fill="none" stroke="black" d="M976.5,-1583.7C976.5,-1576.41 976.5,-1567.73 976.5,-1559.54"/>
<polygon fill="black" stroke="black" points="980,-1559.62 976.5,-1549.62 973,-1559.62 980,-1559.62"/>
</g>
<!-- j1075191970 -->
<g id="node16" class="node">
<title>j1075191970</title>
<polygon fill="none" stroke="blue" points="1307.5,-1476 645.5,-1476 645.5,-1440 1307.5,-1440 1307.5,-1476"/>
<text text-anchor="middle" x="976.5" y="-1454.3" font-family="Times New Roman,serif" font-size="14.00">霍瓦尼亚一直有非常重要的清洁仪式传统。我想这一切都要追溯到这座城市赖以建立的温泉。</text>
</g>
<!-- j2389573891&#45;&gt;j1075191970 -->
<g id="edge18" class="edge">
<title>j2389573891&#45;&gt;j1075191970</title>
<path fill="none" stroke="black" d="M976.5,-1511.7C976.5,-1504.41 976.5,-1495.73 976.5,-1487.54"/>
<polygon fill="black" stroke="black" points="980,-1487.62 976.5,-1477.62 973,-1487.62 980,-1487.62"/>
</g>
<!-- j3369397764 -->
<g id="node17" class="node">
<title>j3369397764</title>
<polygon fill="none" stroke="blue" points="1227.5,-1404 725.5,-1404 725.5,-1368 1227.5,-1368 1227.5,-1404"/>
<text text-anchor="middle" x="976.5" y="-1382.3" font-family="Times New Roman,serif" font-size="14.00">维克多说的那些“纯洁”的废话？他在唱老调。所有市民都懂他的想法。</text>
</g>
<!-- j1075191970&#45;&gt;j3369397764 -->
<g id="edge19" class="edge">
<title>j1075191970&#45;&gt;j3369397764</title>
<path fill="none" stroke="black" d="M976.5,-1439.7C976.5,-1432.41 976.5,-1423.73 976.5,-1415.54"/>
<polygon fill="black" stroke="black" points="980,-1415.62 976.5,-1405.62 973,-1415.62 980,-1415.62"/>
</g>
<!-- j959764816 -->
<g id="node18" class="node">
<title>j959764816</title>
<polygon fill="none" stroke="blue" points="1402,-1332 551,-1332 551,-1296 1402,-1296 1402,-1332"/>
<text text-anchor="middle" x="976.5" y="-1310.3" font-family="Times New Roman,serif" font-size="14.00">我曾经喜欢花额外的霍币，让一个肌肉发达的专业人士把我肌肉中所有的紧张都松解出来。你会喜欢的。我相信你会的。</text>
</g>
<!-- j3369397764&#45;&gt;j959764816 -->
<g id="edge20" class="edge">
<title>j3369397764&#45;&gt;j959764816</title>
<path fill="none" stroke="black" d="M976.5,-1367.7C976.5,-1360.41 976.5,-1351.73 976.5,-1343.54"/>
<polygon fill="black" stroke="black" points="980,-1343.62 976.5,-1333.62 973,-1343.62 980,-1343.62"/>
</g>
<!-- j3741785521 -->
<g id="node19" class="node">
<title>j3741785521</title>
<polygon fill="none" stroke="red" points="734,-1260 623,-1260 623,-1224 734,-1224 734,-1260"/>
<text text-anchor="middle" x="678.5" y="-1238.3" font-family="Times New Roman,serif" font-size="14.00">我不太确定。</text>
</g>
<!-- j959764816&#45;&gt;j3741785521 -->
<g id="edge21" class="edge">
<title>j959764816&#45;&gt;j3741785521</title>
<path fill="none" stroke="black" d="M902.07,-1295.52C853.97,-1284.22 791.91,-1269.64 745.38,-1258.71"/>
<polygon fill="black" stroke="black" points="746.21,-1255.31 735.68,-1256.43 744.61,-1262.13 746.21,-1255.31"/>
</g>
<!-- j2343256374 -->
<g id="node20" class="node">
<title>j2343256374</title>
<polygon fill="none" stroke="red" points="1071.5,-1260 881.5,-1260 881.5,-1224 1071.5,-1224 1071.5,-1260"/>
<text text-anchor="middle" x="976.5" y="-1238.3" font-family="Times New Roman,serif" font-size="14.00">听起来像是我会喜欢的。</text>
</g>
<!-- j959764816&#45;&gt;j2343256374 -->
<g id="edge22" class="edge">
<title>j959764816&#45;&gt;j2343256374</title>
<path fill="none" stroke="black" d="M976.5,-1295.7C976.5,-1288.41 976.5,-1279.73 976.5,-1271.54"/>
<polygon fill="black" stroke="black" points="980,-1271.62 976.5,-1261.62 973,-1271.62 980,-1271.62"/>
</g>
<!-- j1526851997 -->
<g id="node21" class="node">
<title>j1526851997</title>
<polygon fill="none" stroke="red" points="1254,-1260 1143,-1260 1143,-1224 1254,-1224 1254,-1260"/>
<text text-anchor="middle" x="1198.5" y="-1238.3" font-family="Times New Roman,serif" font-size="14.00">他们怎么了？</text>
</g>
<!-- j959764816&#45;&gt;j1526851997 -->
<g id="edge23" class="edge">
<title>j959764816&#45;&gt;j1526851997</title>
<path fill="none" stroke="black" d="M1031.95,-1295.52C1062.52,-1285.88 1100.68,-1273.84 1132.75,-1263.73"/>
<polygon fill="black" stroke="black" points="1133.45,-1267.18 1141.93,-1260.84 1131.34,-1260.51 1133.45,-1267.18"/>
</g>
<!-- j2703747296 -->
<g id="node22" class="node">
<title>j2703747296</title>
<polygon fill="none" stroke="blue" points="848,-1188 249,-1188 249,-1152 848,-1152 848,-1188"/>
<text text-anchor="middle" x="548.5" y="-1166.3" font-family="Times New Roman,serif" font-size="14.00">你会穿着一件由被感染的人体制成的衣服大摇大摆地走来走去，却不愿意接受按摩？</text>
</g>
<!-- j3741785521&#45;&gt;j2703747296 -->
<g id="edge24" class="edge">
<title>j3741785521&#45;&gt;j2703747296</title>
<path fill="none" stroke="black" d="M646.03,-1223.52C629.23,-1214.47 608.52,-1203.32 590.52,-1193.62"/>
<polygon fill="black" stroke="black" points="592.35,-1190.64 581.89,-1188.98 589.03,-1196.8 592.35,-1190.64"/>
</g>
<!-- j1051892742 -->
<g id="node23" class="node">
<title>j1051892742</title>
<polygon fill="none" stroke="blue" points="1087,-1188 866,-1188 866,-1152 1087,-1152 1087,-1188"/>
<text text-anchor="middle" x="976.5" y="-1166.3" font-family="Times New Roman,serif" font-size="14.00">我就知道你是我这类的队友。</text>
</g>
<!-- j2343256374&#45;&gt;j1051892742 -->
<g id="edge25" class="edge">
<title>j2343256374&#45;&gt;j1051892742</title>
<path fill="none" stroke="black" d="M976.5,-1223.7C976.5,-1216.41 976.5,-1207.73 976.5,-1199.54"/>
<polygon fill="black" stroke="black" points="980,-1199.62 976.5,-1189.62 973,-1199.62 980,-1199.62"/>
</g>
<!-- j474387979 -->
<g id="node24" class="node">
<title>j474387979</title>
<polygon fill="none" stroke="blue" points="1794.5,-1116 1226.5,-1116 1226.5,-1080 1794.5,-1080 1794.5,-1116"/>
<text text-anchor="middle" x="1510.5" y="-1094.3" font-family="Times New Roman,serif" font-size="14.00">我相信你能猜到。科腐者破坏了这么多。疫情爆发后，澡堂根本无法继续开放。</text>
</g>
<!-- j1526851997&#45;&gt;j474387979 -->
<g id="edge26" class="edge">
<title>j1526851997&#45;&gt;j474387979</title>
<path fill="none" stroke="black" d="M1236.76,-1223.59C1293.52,-1197.75 1400,-1149.29 1462.1,-1121.03"/>
<polygon fill="black" stroke="black" points="1463.39,-1124.29 1471.04,-1116.96 1460.49,-1117.92 1463.39,-1124.29"/>
</g>
<!-- j1046649398 -->
<g id="node25" class="node">
<title>j1046649398</title>
<polygon fill="none" stroke="blue" points="580.5,-1044 516.5,-1044 516.5,-1008 580.5,-1008 580.5,-1044"/>
<text text-anchor="middle" x="548.5" y="-1022.3" font-family="Times New Roman,serif" font-size="14.00">奇怪。</text>
</g>
<!-- j2703747296&#45;&gt;j1046649398 -->
<g id="edge27" class="edge">
<title>j2703747296&#45;&gt;j1046649398</title>
<path fill="none" stroke="black" d="M548.5,-1151.59C548.5,-1127.61 548.5,-1084.14 548.5,-1055.42"/>
<polygon fill="black" stroke="black" points="552,-1055.62 548.5,-1045.62 545,-1055.62 552,-1055.62"/>
</g>
<!-- j156068077 -->
<g id="node26" class="node">
<title>j156068077</title>
<polygon fill="none" stroke="blue" points="1208.5,-1116 640.5,-1116 640.5,-1080 1208.5,-1080 1208.5,-1116"/>
<text text-anchor="middle" x="924.5" y="-1094.3" font-family="Times New Roman,serif" font-size="14.00">我希望其他人也不那么拘谨。遗憾的是，疫情爆发后，澡堂根本无法继续开放。</text>
</g>
<!-- j1051892742&#45;&gt;j156068077 -->
<g id="edge28" class="edge">
<title>j1051892742&#45;&gt;j156068077</title>
<path fill="none" stroke="black" d="M963.65,-1151.7C957.73,-1143.73 950.57,-1134.1 944.01,-1125.26"/>
<polygon fill="black" stroke="black" points="946.88,-1123.26 938.11,-1117.32 941.26,-1127.43 946.88,-1123.26"/>
</g>
<!-- j746246435 -->
<g id="node27" class="node">
<title>j746246435</title>
<polygon fill="none" stroke="blue" points="1841.5,-1044 785.5,-1044 785.5,-1008 1841.5,-1008 1841.5,-1044"/>
<text text-anchor="middle" x="1313.5" y="-1022.3" font-family="Times New Roman,serif" font-size="14.00">据我所见，其中一些现在基本上就是产卵池了。说实话，这让我心碎。我记得，我在那蔓延的血肉之下，发现了有着千年历史的大理石和马赛克地板。</text>
</g>
<!-- j474387979&#45;&gt;j746246435 -->
<g id="edge29" class="edge">
<title>j474387979&#45;&gt;j746246435</title>
<path fill="none" stroke="black" d="M1461.3,-1079.52C1434.52,-1070 1401.19,-1058.16 1372.96,-1048.13"/>
<polygon fill="black" stroke="black" points="1374.44,-1044.94 1363.84,-1044.89 1372.09,-1051.53 1374.44,-1044.94"/>
</g>
<!-- j1046649398&#45;&gt;Chat ends. -->
<g id="edge30" class="edge">
<title>j1046649398&#45;&gt;Chat ends.</title>
<path fill="none" stroke="black" d="M548.5,-1007.51C548.5,-980.71 548.5,-927.87 548.5,-883 548.5,-883 548.5,-883 548.5,-161 548.5,-49.15 942.44,-25.37 1097.17,-20.34"/>
<polygon fill="black" stroke="black" points="1096.92,-23.85 1106.81,-20.04 1096.71,-16.85 1096.92,-23.85"/>
</g>
<!-- j156068077&#45;&gt;j746246435 -->
<g id="edge31" class="edge">
<title>j156068077&#45;&gt;j746246435</title>
<path fill="none" stroke="black" d="M1021.66,-1079.52C1077.58,-1069.45 1147.96,-1056.79 1205.59,-1046.42"/>
<polygon fill="black" stroke="black" points="1205.86,-1049.93 1215.08,-1044.71 1204.62,-1043.04 1205.86,-1049.93"/>
</g>
<!-- j2105347625 -->
<g id="node28" class="node">
<title>j2105347625</title>
<polygon fill="none" stroke="blue" points="1432,-972 1195,-972 1195,-936 1432,-936 1432,-972"/>
<text text-anchor="middle" x="1313.5" y="-950.3" font-family="Times New Roman,serif" font-size="14.00">你们那时候也有过这样的事吗？</text>
</g>
<!-- j746246435&#45;&gt;j2105347625 -->
<g id="edge32" class="edge">
<title>j746246435&#45;&gt;j2105347625</title>
<path fill="none" stroke="black" d="M1313.5,-1007.7C1313.5,-1000.41 1313.5,-991.73 1313.5,-983.54"/>
<polygon fill="black" stroke="black" points="1317,-983.62 1313.5,-973.62 1310,-983.62 1317,-983.62"/>
</g>
<!-- j1174300545 -->
<g id="node29" class="node">
<title>j1174300545</title>
<polygon fill="none" stroke="red" points="1448,-900 1179,-900 1179,-864 1448,-864 1448,-900"/>
<text text-anchor="middle" x="1313.5" y="-878.3" font-family="Times New Roman,serif" font-size="14.00">神圣的公共澡堂？没有，还真没有。</text>
</g>
<!-- j2105347625&#45;&gt;j1174300545 -->
<g id="edge33" class="edge">
<title>j2105347625&#45;&gt;j1174300545</title>
<path fill="none" stroke="black" d="M1313.5,-935.7C1313.5,-928.41 1313.5,-919.73 1313.5,-911.54"/>
<polygon fill="black" stroke="black" points="1317,-911.62 1313.5,-901.62 1310,-911.62 1317,-911.62"/>
</g>
<!-- j1802160876 -->
<g id="node30" class="node">
<title>j1802160876</title>
<polygon fill="none" stroke="blue" points="1400.5,-828 1226.5,-828 1226.5,-792 1400.5,-792 1400.5,-828"/>
<text text-anchor="middle" x="1313.5" y="-806.3" font-family="Times New Roman,serif" font-size="14.00">那么人们怎么放松呢？</text>
</g>
<!-- j1174300545&#45;&gt;j1802160876 -->
<g id="edge34" class="edge">
<title>j1174300545&#45;&gt;j1802160876</title>
<path fill="none" stroke="black" d="M1313.5,-863.7C1313.5,-856.41 1313.5,-847.73 1313.5,-839.54"/>
<polygon fill="black" stroke="black" points="1317,-839.62 1313.5,-829.62 1310,-839.62 1317,-839.62"/>
</g>
<!-- j2176101587 -->
<g id="node31" class="node">
<title>j2176101587</title>
<polygon fill="none" stroke="red" points="1108,-756 981,-756 981,-720 1108,-720 1108,-756"/>
<text text-anchor="middle" x="1044.5" y="-734.3" font-family="Times New Roman,serif" font-size="14.00">有死亡角斗场。</text>
</g>
<!-- j1802160876&#45;&gt;j2176101587 -->
<g id="edge35" class="edge">
<title>j1802160876&#45;&gt;j2176101587</title>
<path fill="none" stroke="black" d="M1246.31,-791.52C1207.62,-781.45 1158.92,-768.77 1119.05,-758.4"/>
<polygon fill="black" stroke="black" points="1120.08,-755.05 1109.52,-755.92 1118.32,-761.83 1120.08,-755.05"/>
</g>
<!-- j3140243954 -->
<g id="node32" class="node">
<title>j3140243954</title>
<polygon fill="none" stroke="red" points="1400.5,-756 1226.5,-756 1226.5,-720 1400.5,-720 1400.5,-756"/>
<text text-anchor="middle" x="1313.5" y="-734.3" font-family="Times New Roman,serif" font-size="14.00">有些人押注指数之场。</text>
</g>
<!-- j1802160876&#45;&gt;j3140243954 -->
<g id="edge36" class="edge">
<title>j1802160876&#45;&gt;j3140243954</title>
<path fill="none" stroke="black" d="M1313.5,-791.7C1313.5,-784.41 1313.5,-775.73 1313.5,-767.54"/>
<polygon fill="black" stroke="black" points="1317,-767.62 1313.5,-757.62 1310,-767.62 1317,-767.62"/>
</g>
<!-- j2647449549 -->
<g id="node33" class="node">
<title>j2647449549</title>
<polygon fill="none" stroke="red" points="1706.5,-756 1500.5,-756 1500.5,-720 1706.5,-720 1706.5,-756"/>
<text text-anchor="middle" x="1603.5" y="-734.3" font-family="Times New Roman,serif" font-size="14.00">围棋已经存在一段时间了。</text>
</g>
<!-- j1802160876&#45;&gt;j2647449549 -->
<g id="edge37" class="edge">
<title>j1802160876&#45;&gt;j2647449549</title>
<path fill="none" stroke="black" d="M1385.93,-791.52C1426.67,-781.68 1477.69,-769.37 1520.09,-759.13"/>
<polygon fill="black" stroke="black" points="1520.87,-762.55 1529.77,-756.8 1519.23,-755.74 1520.87,-762.55"/>
</g>
<!-- j112378996 -->
<g id="node34" class="node">
<title>j112378996</title>
<polygon fill="none" stroke="blue" points="1101,-684 788,-684 788,-648 1101,-648 1101,-684"/>
<text text-anchor="middle" x="944.5" y="-662.3" font-family="Times New Roman,serif" font-size="14.00">听起来像是阿米尔对自己发出音效噪音……</text>
</g>
<!-- j2176101587&#45;&gt;j112378996 -->
<g id="edge38" class="edge">
<title>j2176101587&#45;&gt;j112378996</title>
<path fill="none" stroke="black" d="M1019.52,-719.52C1007.14,-710.85 992,-700.25 978.57,-690.85"/>
<polygon fill="black" stroke="black" points="980.6,-688 970.4,-685.13 976.58,-693.73 980.6,-688"/>
</g>
<!-- j1288435872 -->
<g id="node35" class="node">
<title>j1288435872</title>
<polygon fill="none" stroke="blue" points="1353.5,-684 1273.5,-684 1273.5,-648 1353.5,-648 1353.5,-684"/>
<text text-anchor="middle" x="1313.5" y="-662.3" font-family="Times New Roman,serif" font-size="14.00">炒股的？</text>
</g>
<!-- j3140243954&#45;&gt;j1288435872 -->
<g id="edge39" class="edge">
<title>j3140243954&#45;&gt;j1288435872</title>
<path fill="none" stroke="black" d="M1313.5,-719.7C1313.5,-712.41 1313.5,-703.73 1313.5,-695.54"/>
<polygon fill="black" stroke="black" points="1317,-695.62 1313.5,-685.62 1310,-695.62 1317,-695.62"/>
</g>
<!-- j2324708026 -->
<g id="node36" class="node">
<title>j2324708026</title>
<polygon fill="none" stroke="blue" points="1889.5,-684 1479.5,-684 1479.5,-648 1889.5,-648 1889.5,-684"/>
<text text-anchor="middle" x="1684.5" y="-662.3" font-family="Times New Roman,serif" font-size="14.00">围棋？黑色和白色的棋子？太阳神和月亮神的婚礼之战？</text>
</g>
<!-- j2647449549&#45;&gt;j2324708026 -->
<g id="edge40" class="edge">
<title>j2647449549&#45;&gt;j2324708026</title>
<path fill="none" stroke="black" d="M1623.52,-719.7C1633.26,-711.28 1645.14,-701.02 1655.81,-691.79"/>
<polygon fill="black" stroke="black" points="1658,-694.52 1663.28,-685.34 1653.43,-689.23 1658,-694.52"/>
</g>
<!-- j1559018702 -->
<g id="node37" class="node">
<title>j1559018702</title>
<polygon fill="none" stroke="red" points="1004.5,-612 576.5,-612 576.5,-576 1004.5,-576 1004.5,-612"/>
<text text-anchor="middle" x="790.5" y="-590.3" font-family="Times New Roman,serif" font-size="14.00">这是 Grineer 的特色。是向整个星系广播的竞技场战斗仪式。</text>
</g>
<!-- j112378996&#45;&gt;j1559018702 -->
<g id="edge41" class="edge">
<title>j112378996&#45;&gt;j1559018702</title>
<path fill="none" stroke="black" d="M906.04,-647.52C885.75,-638.29 860.65,-626.89 839.03,-617.06"/>
<polygon fill="black" stroke="black" points="840.67,-613.96 830.12,-613.01 837.77,-620.33 840.67,-613.96"/>
</g>
<!-- j3609900691 -->
<g id="node38" class="node">
<title>j3609900691</title>
<polygon fill="none" stroke="red" points="1604,-612 1023,-612 1023,-576 1604,-576 1604,-612"/>
<text text-anchor="middle" x="1313.5" y="-590.3" font-family="Times New Roman,serif" font-size="14.00">……差不多？就像是股票交易和四对四暴力游戏的结合。我知道这听起来很奇怪。</text>
</g>
<!-- j1288435872&#45;&gt;j3609900691 -->
<g id="edge42" class="edge">
<title>j1288435872&#45;&gt;j3609900691</title>
<path fill="none" stroke="black" d="M1313.5,-647.7C1313.5,-640.41 1313.5,-631.73 1313.5,-623.54"/>
<polygon fill="black" stroke="black" points="1317,-623.62 1313.5,-613.62 1310,-623.62 1317,-623.62"/>
</g>
<!-- j2339225435 -->
<g id="node39" class="node">
<title>j2339225435</title>
<polygon fill="none" stroke="red" points="1985,-612 1622,-612 1622,-576 1985,-576 1985,-612"/>
<text text-anchor="middle" x="1803.5" y="-590.3" font-family="Times New Roman,serif" font-size="14.00">嗯。。是的？等等，这就是围棋所代表的意思吗？</text>
</g>
<!-- j2324708026&#45;&gt;j2339225435 -->
<g id="edge43" class="edge">
<title>j2324708026&#45;&gt;j2339225435</title>
<path fill="none" stroke="black" d="M1714.22,-647.52C1729.39,-638.6 1748.03,-627.63 1764.35,-618.03"/>
<polygon fill="black" stroke="black" points="1766.01,-621.11 1772.85,-613.03 1762.46,-615.08 1766.01,-621.11"/>
</g>
<!-- j1386055825 -->
<g id="node40" class="node">
<title>j1386055825</title>
<polygon fill="none" stroke="red" points="938.5,-540 654.5,-540 654.5,-504 938.5,-504 938.5,-540"/>
<text text-anchor="middle" x="796.5" y="-518.3" font-family="Times New Roman,serif" font-size="14.00">这对他们来说是一件大事，非常严肃。</text>
</g>
<!-- j1559018702&#45;&gt;j1386055825 -->
<g id="edge44" class="edge">
<title>j1559018702&#45;&gt;j1386055825</title>
<path fill="none" stroke="black" d="M791.98,-575.7C792.61,-568.41 793.35,-559.73 794.05,-551.54"/>
<polygon fill="black" stroke="black" points="797.54,-551.87 794.9,-541.61 790.56,-551.28 797.54,-551.87"/>
</g>
<!-- j597585657 -->
<g id="node41" class="node">
<title>j597585657</title>
<polygon fill="none" stroke="red" points="1391,-540 1218,-540 1218,-504 1391,-504 1391,-540"/>
<text text-anchor="middle" x="1304.5" y="-518.3" font-family="Times New Roman,serif" font-size="14.00">Corpus 对此非常疯狂。</text>
</g>
<!-- j3609900691&#45;&gt;j597585657 -->
<g id="edge45" class="edge">
<title>j3609900691&#45;&gt;j597585657</title>
<path fill="none" stroke="black" d="M1311.28,-575.7C1310.33,-568.32 1309.2,-559.52 1308.13,-551.25"/>
<polygon fill="black" stroke="black" points="1311.64,-551.08 1306.89,-541.61 1304.7,-551.97 1311.64,-551.08"/>
</g>
<!-- j531158205 -->
<g id="node42" class="node">
<title>j531158205</title>
<polygon fill="none" stroke="red" points="1890,-540 1653,-540 1653,-504 1890,-504 1890,-540"/>
<text text-anchor="middle" x="1771.5" y="-518.3" font-family="Times New Roman,serif" font-size="14.00">我们只知道它是一种棋盘游戏！</text>
</g>
<!-- j2339225435&#45;&gt;j531158205 -->
<g id="edge46" class="edge">
<title>j2339225435&#45;&gt;j531158205</title>
<path fill="none" stroke="black" d="M1795.59,-575.7C1792.1,-568.07 1787.92,-558.92 1784.02,-550.4"/>
<polygon fill="black" stroke="black" points="1787.29,-549.12 1779.95,-541.48 1780.92,-552.03 1787.29,-549.12"/>
</g>
<!-- j2702110136 -->
<g id="node43" class="node">
<title>j2702110136</title>
<polygon fill="none" stroke="blue" points="985.5,-468 653.5,-468 653.5,-432 985.5,-432 985.5,-468"/>
<text text-anchor="middle" x="819.5" y="-446.3" font-family="Times New Roman,serif" font-size="14.00">爸爸和亚瑟以前每周六晚上都会一起看摔跤。</text>
</g>
<!-- j1386055825&#45;&gt;j2702110136 -->
<g id="edge47" class="edge">
<title>j1386055825&#45;&gt;j2702110136</title>
<path fill="none" stroke="black" d="M802.19,-503.7C804.64,-496.24 807.57,-487.32 810.31,-478.97"/>
<polygon fill="black" stroke="black" points="813.61,-480.14 813.41,-469.54 806.96,-477.95 813.61,-480.14"/>
</g>
<!-- j2659412049 -->
<g id="node44" class="node">
<title>j2659412049</title>
<polygon fill="none" stroke="blue" points="1502,-468 1013,-468 1013,-432 1502,-432 1502,-468"/>
<text text-anchor="middle" x="1257.5" y="-446.3" font-family="Times New Roman,serif" font-size="14.00">但他们是你的敌人，不是吗？还是你们在团队运动方面有某种休战？</text>
</g>
<!-- j597585657&#45;&gt;j2659412049 -->
<g id="edge48" class="edge">
<title>j597585657&#45;&gt;j2659412049</title>
<path fill="none" stroke="black" d="M1292.88,-503.7C1287.59,-495.81 1281.2,-486.3 1275.32,-477.55"/>
<polygon fill="black" stroke="black" points="1278.31,-475.71 1269.83,-469.36 1272.5,-479.61 1278.31,-475.71"/>
</g>
<!-- j905644942 -->
<g id="node45" class="node">
<title>j905644942</title>
<polygon fill="none" stroke="red" points="1911,-468 1600,-468 1600,-432 1911,-432 1911,-468"/>
<text text-anchor="middle" x="1755.5" y="-446.3" font-family="Times New Roman,serif" font-size="14.00">Orokin 人很喜欢它。甚至在双衍王境也有。</text>
</g>
<!-- j531158205&#45;&gt;j905644942 -->
<g id="edge49" class="edge">
<title>j531158205&#45;&gt;j905644942</title>
<path fill="none" stroke="black" d="M1767.54,-503.7C1765.86,-496.32 1763.85,-487.52 1761.96,-479.25"/>
<polygon fill="black" stroke="black" points="1765.39,-478.55 1759.75,-469.58 1758.56,-480.11 1765.39,-478.55"/>
</g>
<!-- j2366463232 -->
<g id="node46" class="node">
<title>j2366463232</title>
<ellipse fill="none" stroke="orange" cx="830.5" cy="-378" rx="64.19" ry="18"/>
<text text-anchor="middle" x="830.5" y="-374.3" font-family="Times New Roman,serif" font-size="14.00">+10 Chemistry</text>
</g>
<!-- j2702110136&#45;&gt;j2366463232 -->
<g id="edge50" class="edge">
<title>j2702110136&#45;&gt;j2366463232</title>
<path fill="none" stroke="black" d="M822.22,-431.7C823.38,-424.32 824.76,-415.52 826.06,-407.25"/>
<polygon fill="black" stroke="black" points="829.48,-408.02 827.58,-397.6 822.57,-406.93 829.48,-408.02"/>
</g>
<!-- j1196032297 -->
<g id="node47" class="node">
<title>j1196032297</title>
<ellipse fill="none" stroke="orange" cx="1198.5" cy="-378" rx="64.19" ry="18"/>
<text text-anchor="middle" x="1198.5" y="-374.3" font-family="Times New Roman,serif" font-size="14.00">+10 Chemistry</text>
</g>
<!-- j2659412049&#45;&gt;j1196032297 -->
<g id="edge51" class="edge">
<title>j2659412049&#45;&gt;j1196032297</title>
<path fill="none" stroke="black" d="M1242.92,-431.7C1235.95,-423.44 1227.49,-413.39 1219.82,-404.3"/>
<polygon fill="black" stroke="black" points="1222.61,-402.17 1213.49,-396.78 1217.25,-406.68 1222.61,-402.17"/>
</g>
<!-- j2779165992 -->
<g id="node48" class="node">
<title>j2779165992</title>
<polygon fill="none" stroke="red" points="1808,-396 1555,-396 1555,-360 1808,-360 1808,-396"/>
<text text-anchor="middle" x="1681.5" y="-374.3" font-family="Times New Roman,serif" font-size="14.00">不过，我都不知道它有那么古老。</text>
</g>
<!-- j905644942&#45;&gt;j2779165992 -->
<g id="edge52" class="edge">
<title>j905644942&#45;&gt;j2779165992</title>
<path fill="none" stroke="black" d="M1737.21,-431.7C1728.4,-423.37 1717.68,-413.22 1708,-404.07"/>
<polygon fill="black" stroke="black" points="1710.61,-401.72 1700.94,-397.39 1705.8,-406.8 1710.61,-401.72"/>
</g>
<!-- j1069437464 -->
<g id="node49" class="node">
<title>j1069437464</title>
<polygon fill="none" stroke="blue" points="1104,-180 615,-180 615,-144 1104,-144 1104,-180"/>
<text text-anchor="middle" x="859.5" y="-158.3" font-family="Times New Roman,serif" font-size="14.00">如果有机会，就给他塞几盘死亡角斗场的录像带。我想他会喜欢的。</text>
</g>
<!-- j2366463232&#45;&gt;j1069437464 -->
<g id="edge53" class="edge">
<title>j2366463232&#45;&gt;j1069437464</title>
<path fill="none" stroke="black" d="M832.82,-359.85C837.8,-323.14 849.52,-236.66 855.63,-191.53"/>
<polygon fill="black" stroke="black" points="859.09,-192.11 856.96,-181.73 852.15,-191.17 859.09,-192.11"/>
</g>
<!-- j1755243230 -->
<g id="node50" class="node">
<title>j1755243230</title>
<polygon fill="none" stroke="blue" points="1316.5,-252 1000.5,-252 1000.5,-216 1316.5,-216 1316.5,-252"/>
<text text-anchor="middle" x="1158.5" y="-230.3" font-family="Times New Roman,serif" font-size="14.00">我在说什么呢？当然有。人性就是这样的。</text>
</g>
<!-- j1196032297&#45;&gt;j1755243230 -->
<g id="edge54" class="edge">
<title>j1196032297&#45;&gt;j1755243230</title>
<path fill="none" stroke="black" d="M1193.6,-359.59C1186.81,-335.5 1174.49,-291.75 1166.4,-263.03"/>
<polygon fill="black" stroke="black" points="1169.81,-262.24 1163.73,-253.57 1163.07,-264.14 1169.81,-262.24"/>
</g>
<!-- j3922305788 -->
<g id="node51" class="node">
<title>j3922305788</title>
<polygon fill="none" stroke="blue" points="1847,-324 1500,-324 1500,-288 1847,-288 1847,-324"/>
<text text-anchor="middle" x="1673.5" y="-302.3" font-family="Times New Roman,serif" font-size="14.00">古老？它是神圣的！而且很有趣。绝妙的组合。</text>
</g>
<!-- j2779165992&#45;&gt;j3922305788 -->
<g id="edge55" class="edge">
<title>j2779165992&#45;&gt;j3922305788</title>
<path fill="none" stroke="black" d="M1679.52,-359.7C1678.69,-352.41 1677.7,-343.73 1676.76,-335.54"/>
<polygon fill="black" stroke="black" points="1680.24,-335.15 1675.63,-325.61 1673.28,-335.94 1680.24,-335.15"/>
</g>
<!-- j1069437464&#45;&gt;Chat ends. -->
<g id="edge56" class="edge">
<title>j1069437464&#45;&gt;Chat ends.</title>
<path fill="none" stroke="black" d="M896.16,-143.59C952.68,-116.75 1060.64,-65.47 1118.89,-37.81"/>
<polygon fill="black" stroke="black" points="1120.27,-41.03 1127.8,-33.58 1117.26,-34.71 1120.27,-41.03"/>
</g>
<!-- j1755243230&#45;&gt;Chat ends. -->
<g id="edge57" class="edge">
<title>j1755243230&#45;&gt;Chat ends.</title>
<path fill="none" stroke="black" d="M1158.5,-215.85C1158.5,-179.14 1158.5,-92.66 1158.5,-47.53"/>
<polygon fill="black" stroke="black" points="1162,-47.75 1158.5,-37.75 1155,-47.75 1162,-47.75"/>
</g>
<!-- j45470085 -->
<g id="node52" class="node">
<title>j45470085</title>
<polygon fill="none" stroke="blue" points="1996.5,-252 1334.5,-252 1334.5,-216 1996.5,-216 1996.5,-252"/>
<text text-anchor="middle" x="1665.5" y="-230.3" font-family="Times New Roman,serif" font-size="14.00">你知道吗，一切都围绕着相同的两个基本原则？心灵与身体。象征与意义。太阳神与月亮神。</text>
</g>
<!-- j3922305788&#45;&gt;j45470085 -->
<g id="edge58" class="edge">
<title>j3922305788&#45;&gt;j45470085</title>
<path fill="none" stroke="black" d="M1671.52,-287.7C1670.69,-280.41 1669.7,-271.73 1668.76,-263.54"/>
<polygon fill="black" stroke="black" points="1672.24,-263.15 1667.63,-253.61 1665.28,-263.94 1672.24,-263.15"/>
</g>
<!-- j2409667383 -->
<g id="node53" class="node">
<title>j2409667383</title>
<ellipse fill="none" stroke="orange" cx="1536.5" cy="-162" rx="64.19" ry="18"/>
<text text-anchor="middle" x="1536.5" y="-158.3" font-family="Times New Roman,serif" font-size="14.00">+20 Chemistry</text>
</g>
<!-- j45470085&#45;&gt;j2409667383 -->
<g id="edge59" class="edge">
<title>j45470085&#45;&gt;j2409667383</title>
<path fill="none" stroke="black" d="M1633.28,-215.52C1615.52,-205.88 1593.37,-193.86 1574.74,-183.75"/>
<polygon fill="black" stroke="black" points="1576.59,-180.77 1566.13,-179.08 1573.25,-186.93 1576.59,-180.77"/>
</g>
<!-- j40787271 -->
<g id="node54" class="node">
<title>j40787271</title>
<polygon fill="none" stroke="blue" points="1693.5,-108 1251.5,-108 1251.5,-72 1693.5,-72 1693.5,-108"/>
<text text-anchor="middle" x="1472.5" y="-86.3" font-family="Times New Roman,serif" font-size="14.00">亚瑟和我以前每年冬至都下围棋。我们后来为什么停下来了？</text>
</g>
<!-- j2409667383&#45;&gt;j40787271 -->
<g id="edge60" class="edge">
<title>j2409667383&#45;&gt;j40787271</title>
<path fill="none" stroke="black" d="M1521.01,-144.05C1513.49,-135.84 1504.31,-125.79 1495.96,-116.66"/>
<polygon fill="black" stroke="black" points="1498.65,-114.41 1489.32,-109.39 1493.48,-119.13 1498.65,-114.41"/>
</g>
<!-- j40787271&#45;&gt;Chat ends. -->
<g id="edge61" class="edge">
<title>j40787271&#45;&gt;Chat ends.</title>
<path fill="none" stroke="black" d="M1394.07,-71.52C1337.11,-58.82 1261.56,-41.98 1211.56,-30.83"/>
<polygon fill="black" stroke="black" points="1212.36,-27.42 1201.83,-28.66 1210.83,-34.25 1212.36,-27.42"/>
</g>
</g>
</svg>
