<?xml version="1.0" encoding="UTF-8" standalone="no"?>
<!DOCTYPE svg PUBLIC "-//W3C//DTD SVG 1.1//EN"
 "http://www.w3.org/Graphics/SVG/1.1/DTD/svg11.dtd">
<!-- Generated by graphviz version 7.1.0 (20230121.1956)
 -->
<!-- Pages: 1 -->
<svg width="2256pt" height="2852pt"
 viewBox="0.00 0.00 2255.50 2852.00" xmlns="http://www.w3.org/2000/svg" xmlns:xlink="http://www.w3.org/1999/xlink">
<g id="graph0" class="graph" transform="scale(1 1) rotate(0) translate(4 2848)">
<polygon fill="white" stroke="none" points="-4,4 -4,-2848 2251.5,-2848 2251.5,4 -4,4"/>
<!-- EleanorRank5Convo6 begins. -->
<g id="node1" class="node">
<title>EleanorRank5Convo6 begins.</title>
<ellipse fill="none" stroke="orange" cx="1864.5" cy="-2826" rx="118.88" ry="18"/>
<text text-anchor="middle" x="1864.5" y="-2822.3" font-family="Times New Roman,serif" font-size="14.00">EleanorRank5Convo6 begins.</text>
</g>
<!-- j1866329935 -->
<g id="node2" class="node">
<title>j1866329935</title>
<polygon fill="none" stroke="blue" points="2046,-2772 1683,-2772 1683,-2736 2046,-2736 2046,-2772"/>
<text text-anchor="middle" x="1864.5" y="-2750.3" font-family="Times New Roman,serif" font-size="14.00">你可能会注意到今天早上商场的气氛有点不一样。</text>
</g>
<!-- EleanorRank5Convo6 begins.&#45;&gt;j1866329935 -->
<g id="edge1" class="edge">
<title>EleanorRank5Convo6 begins.&#45;&gt;j1866329935</title>
<path fill="none" stroke="black" d="M1864.5,-2807.7C1864.5,-2800.41 1864.5,-2791.73 1864.5,-2783.54"/>
<polygon fill="black" stroke="black" points="1868,-2783.62 1864.5,-2773.62 1861,-2783.62 1868,-2783.62"/>
</g>
<!-- j3034513249 -->
<g id="node3" class="node">
<title>j3034513249</title>
<polygon fill="none" stroke="blue" points="2195.5,-2700 1533.5,-2700 1533.5,-2664 2195.5,-2664 2195.5,-2700"/>
<text text-anchor="middle" x="1864.5" y="-2678.3" font-family="Times New Roman,serif" font-size="14.00">没有什么大的明显区别。只是更多人在微笑。时不时传来一阵笑声。空气中弥漫着一丝幸福。</text>
</g>
<!-- j1866329935&#45;&gt;j3034513249 -->
<g id="edge2" class="edge">
<title>j1866329935&#45;&gt;j3034513249</title>
<path fill="none" stroke="black" d="M1864.5,-2735.7C1864.5,-2728.41 1864.5,-2719.73 1864.5,-2711.54"/>
<polygon fill="black" stroke="black" points="1868,-2711.62 1864.5,-2701.62 1861,-2711.62 1868,-2711.62"/>
</g>
<!-- j1151855237 -->
<g id="node4" class="node">
<title>j1151855237</title>
<polygon fill="none" stroke="red" points="1890.5,-2628 1732.5,-2628 1732.5,-2592 1890.5,-2592 1890.5,-2628"/>
<text text-anchor="middle" x="1811.5" y="-2606.3" font-family="Times New Roman,serif" font-size="14.00">那是你做的，对吧？</text>
</g>
<!-- j3034513249&#45;&gt;j1151855237 -->
<g id="edge3" class="edge">
<title>j3034513249&#45;&gt;j1151855237</title>
<path fill="none" stroke="black" d="M1851.4,-2663.7C1845.37,-2655.73 1838.08,-2646.1 1831.39,-2637.26"/>
<polygon fill="black" stroke="black" points="1834.19,-2635.17 1825.36,-2629.31 1828.61,-2639.4 1834.19,-2635.17"/>
</g>
<!-- j3915782939 -->
<g id="node5" class="node">
<title>j3915782939</title>
<polygon fill="none" stroke="red" points="2247.5,-2556 2111.5,-2556 2111.5,-2520 2247.5,-2520 2247.5,-2556"/>
<text text-anchor="middle" x="2179.5" y="-2534.3" font-family="Times New Roman,serif" font-size="14.00">马上回来。[结束]</text>
</g>
<!-- j3034513249&#45;&gt;j3915782939 -->
<g id="edge4" class="edge">
<title>j3034513249&#45;&gt;j3915782939</title>
<path fill="none" stroke="black" d="M1903.13,-2663.59C1960.43,-2637.75 2067.93,-2589.29 2130.64,-2561.03"/>
<polygon fill="black" stroke="black" points="2131.99,-2564.25 2139.67,-2556.95 2129.12,-2557.87 2131.99,-2564.25"/>
</g>
<!-- j3239724028 -->
<g id="node6" class="node">
<title>j3239724028</title>
<polygon fill="none" stroke="blue" points="2090.5,-2556 1018.5,-2556 1018.5,-2520 2090.5,-2520 2090.5,-2556"/>
<text text-anchor="middle" x="1554.5" y="-2534.3" font-family="Times New Roman,serif" font-size="14.00">这只是我回馈的方式。你知道，一个心灵感应者既能发送信息，也能接收信息。它不一定是对一个人的强力喷射。它可以像细雾一样喷洒在一个区域上。</text>
</g>
<!-- j1151855237&#45;&gt;j3239724028 -->
<g id="edge5" class="edge">
<title>j1151855237&#45;&gt;j3239724028</title>
<path fill="none" stroke="black" d="M1747.31,-2591.52C1711.45,-2581.75 1666.59,-2569.53 1629.17,-2559.34"/>
<polygon fill="black" stroke="black" points="1630.34,-2556.03 1619.78,-2556.78 1628.5,-2562.78 1630.34,-2556.03"/>
</g>
<!-- Chat ends. -->
<g id="node7" class="node">
<title>Chat ends.</title>
<ellipse fill="none" stroke="orange" cx="1620.5" cy="-18" rx="50.09" ry="18"/>
<text text-anchor="middle" x="1620.5" y="-14.3" font-family="Times New Roman,serif" font-size="14.00">Chat ends.</text>
</g>
<!-- j3915782939&#45;&gt;Chat ends. -->
<g id="edge6" class="edge">
<title>j3915782939&#45;&gt;Chat ends.</title>
<path fill="none" stroke="black" d="M2179.5,-2519.51C2179.5,-2492.71 2179.5,-2439.87 2179.5,-2395 2179.5,-2395 2179.5,-2395 2179.5,-161 2179.5,-59.12 1826.3,-29.49 1681.41,-21.61"/>
<polygon fill="black" stroke="black" points="1681.79,-18.13 1671.62,-21.1 1681.42,-25.12 1681.79,-18.13"/>
</g>
<!-- j2436335141 -->
<g id="node8" class="node">
<title>j2436335141</title>
<polygon fill="none" stroke="blue" points="1652.5,-2484 1446.5,-2484 1446.5,-2448 1652.5,-2448 1652.5,-2484"/>
<text text-anchor="middle" x="1549.5" y="-2462.3" font-family="Times New Roman,serif" font-size="14.00">你们那里有草坪洒水器吗？</text>
</g>
<!-- j3239724028&#45;&gt;j2436335141 -->
<g id="edge7" class="edge">
<title>j3239724028&#45;&gt;j2436335141</title>
<path fill="none" stroke="black" d="M1553.26,-2519.7C1552.74,-2512.41 1552.12,-2503.73 1551.54,-2495.54"/>
<polygon fill="black" stroke="black" points="1555.03,-2495.34 1550.83,-2485.61 1548.05,-2495.84 1555.03,-2495.34"/>
</g>
<!-- j1772527024 -->
<g id="node9" class="node">
<title>j1772527024</title>
<polygon fill="none" stroke="red" points="1412,-2412 729,-2412 729,-2376 1412,-2376 1412,-2412"/>
<text text-anchor="middle" x="1070.5" y="-2390.3" font-family="Times New Roman,serif" font-size="14.00">我们有环管&#45;独立机和像她一样的无人机。它们负责照料扎里曼号上的植物。你是指这种东西吗？</text>
</g>
<!-- j2436335141&#45;&gt;j1772527024 -->
<g id="edge8" class="edge">
<title>j2436335141&#45;&gt;j1772527024</title>
<path fill="none" stroke="black" d="M1446.15,-2449.9C1374.46,-2439.42 1278.39,-2425.38 1201.36,-2414.12"/>
<polygon fill="black" stroke="black" points="1202.03,-2410.68 1191.63,-2412.7 1201.02,-2417.61 1202.03,-2410.68"/>
</g>
<!-- j457073035 -->
<g id="node10" class="node">
<title>j457073035</title>
<polygon fill="none" stroke="red" points="1603.5,-2412 1495.5,-2412 1495.5,-2376 1603.5,-2376 1603.5,-2412"/>
<text text-anchor="middle" x="1549.5" y="-2390.3" font-family="Times New Roman,serif" font-size="14.00">洒水……器？</text>
</g>
<!-- j2436335141&#45;&gt;j457073035 -->
<g id="edge9" class="edge">
<title>j2436335141&#45;&gt;j457073035</title>
<path fill="none" stroke="black" d="M1549.5,-2447.7C1549.5,-2440.41 1549.5,-2431.73 1549.5,-2423.54"/>
<polygon fill="black" stroke="black" points="1553,-2423.62 1549.5,-2413.62 1546,-2423.62 1553,-2423.62"/>
</g>
<!-- j1293884719 -->
<g id="node11" class="node">
<title>j1293884719</title>
<polygon fill="none" stroke="blue" points="997,-2340 886,-2340 886,-2304 997,-2304 997,-2340"/>
<text text-anchor="middle" x="941.5" y="-2318.3" font-family="Times New Roman,serif" font-size="14.00">可以这么说。</text>
</g>
<!-- j1772527024&#45;&gt;j1293884719 -->
<g id="edge10" class="edge">
<title>j1772527024&#45;&gt;j1293884719</title>
<path fill="none" stroke="black" d="M1038.28,-2375.52C1021.61,-2366.47 1001.06,-2355.32 983.19,-2345.62"/>
<polygon fill="black" stroke="black" points="985.1,-2342.68 974.64,-2340.98 981.76,-2348.83 985.1,-2342.68"/>
</g>
<!-- j3465041686 -->
<g id="node12" class="node">
<title>j3465041686</title>
<polygon fill="none" stroke="blue" points="1762.5,-2340 1336.5,-2340 1336.5,-2304 1762.5,-2304 1762.5,-2340"/>
<text text-anchor="middle" x="1549.5" y="-2318.3" font-family="Times New Roman,serif" font-size="14.00">是的，亲爱的，洒水器。洒水器可以让你的草坪保持湿润。</text>
</g>
<!-- j457073035&#45;&gt;j3465041686 -->
<g id="edge11" class="edge">
<title>j457073035&#45;&gt;j3465041686</title>
<path fill="none" stroke="black" d="M1549.5,-2375.7C1549.5,-2368.41 1549.5,-2359.73 1549.5,-2351.54"/>
<polygon fill="black" stroke="black" points="1553,-2351.62 1549.5,-2341.62 1546,-2351.62 1553,-2351.62"/>
</g>
<!-- j398186323 -->
<g id="node13" class="node">
<title>j398186323</title>
<polygon fill="none" stroke="blue" points="1349.5,-2268 403.5,-2268 403.5,-2232 1349.5,-2232 1349.5,-2268"/>
<text text-anchor="middle" x="876.5" y="-2246.3" font-family="Times New Roman,serif" font-size="14.00">我小时候很喜欢草坪洒水器。它们太神奇了。阳光最灿烂的时候，你可以在它们当中看到彩虹。穿过它们时，浑身都能感到一阵凉爽。</text>
</g>
<!-- j1293884719&#45;&gt;j398186323 -->
<g id="edge12" class="edge">
<title>j1293884719&#45;&gt;j398186323</title>
<path fill="none" stroke="black" d="M925.43,-2303.7C917.8,-2295.47 908.52,-2285.48 900.1,-2276.42"/>
<polygon fill="black" stroke="black" points="902.78,-2274.16 893.41,-2269.21 897.65,-2278.92 902.78,-2274.16"/>
</g>
<!-- j2767563700 -->
<g id="node14" class="node">
<title>j2767563700</title>
<polygon fill="none" stroke="blue" points="1731,-2268 1368,-2268 1368,-2232 1731,-2232 1731,-2268"/>
<text text-anchor="middle" x="1549.5" y="-2246.3" font-family="Times New Roman,serif" font-size="14.00">也是把你弟弟的脸按上去直到他尖叫的理想工具。</text>
</g>
<!-- j3465041686&#45;&gt;j2767563700 -->
<g id="edge13" class="edge">
<title>j3465041686&#45;&gt;j2767563700</title>
<path fill="none" stroke="black" d="M1549.5,-2303.7C1549.5,-2296.41 1549.5,-2287.73 1549.5,-2279.54"/>
<polygon fill="black" stroke="black" points="1553,-2279.62 1549.5,-2269.62 1546,-2279.62 1553,-2279.62"/>
</g>
<!-- j44514044 -->
<g id="node15" class="node">
<title>j44514044</title>
<polygon fill="none" stroke="blue" points="1064.5,-2196 688.5,-2196 688.5,-2160 1064.5,-2160 1064.5,-2196"/>
<text text-anchor="middle" x="876.5" y="-2174.3" font-family="Times New Roman,serif" font-size="14.00">“幸福是一个草坪洒水器”。把这句话放在贺卡上吧。</text>
</g>
<!-- j398186323&#45;&gt;j44514044 -->
<g id="edge14" class="edge">
<title>j398186323&#45;&gt;j44514044</title>
<path fill="none" stroke="black" d="M876.5,-2231.7C876.5,-2224.41 876.5,-2215.73 876.5,-2207.54"/>
<polygon fill="black" stroke="black" points="880,-2207.62 876.5,-2197.62 873,-2207.62 880,-2207.62"/>
</g>
<!-- j2767563700&#45;&gt;j44514044 -->
<g id="edge15" class="edge">
<title>j2767563700&#45;&gt;j44514044</title>
<path fill="none" stroke="black" d="M1381.41,-2231.52C1282.25,-2221.2 1156.79,-2208.15 1055.75,-2197.64"/>
<polygon fill="black" stroke="black" points="1056.3,-2194.18 1045.99,-2196.63 1055.58,-2201.15 1056.3,-2194.18"/>
</g>
<!-- j1885337825 -->
<g id="node16" class="node">
<title>j1885337825</title>
<polygon fill="none" stroke="red" points="1049,-2124 702,-2124 702,-2088 1049,-2088 1049,-2124"/>
<text text-anchor="middle" x="875.5" y="-2102.3" font-family="Times New Roman,serif" font-size="14.00">你今天看起来心情不错。看到你这样我很高兴。</text>
</g>
<!-- j44514044&#45;&gt;j1885337825 -->
<g id="edge16" class="edge">
<title>j44514044&#45;&gt;j1885337825</title>
<path fill="none" stroke="black" d="M876.25,-2159.7C876.15,-2152.41 876.02,-2143.73 875.91,-2135.54"/>
<polygon fill="black" stroke="black" points="879.41,-2135.57 875.77,-2125.62 872.41,-2135.67 879.41,-2135.57"/>
</g>
<!-- j2797006829 -->
<g id="node17" class="node">
<title>j2797006829</title>
<polygon fill="none" stroke="blue" points="1150.5,-2052 598.5,-2052 598.5,-2016 1150.5,-2016 1150.5,-2052"/>
<text text-anchor="middle" x="874.5" y="-2030.3" font-family="Times New Roman,serif" font-size="14.00">是的。我不觉得有必要把这种心情只留给自己。所以我把它扩散到整个商场。</text>
</g>
<!-- j1885337825&#45;&gt;j2797006829 -->
<g id="edge17" class="edge">
<title>j1885337825&#45;&gt;j2797006829</title>
<path fill="none" stroke="black" d="M875.25,-2087.7C875.15,-2080.41 875.02,-2071.73 874.91,-2063.54"/>
<polygon fill="black" stroke="black" points="878.41,-2063.57 874.77,-2053.62 871.41,-2063.67 878.41,-2063.57"/>
</g>
<!-- j3714724157 -->
<g id="node18" class="node">
<title>j3714724157</title>
<polygon fill="none" stroke="red" points="565.5,-1980 359.5,-1980 359.5,-1944 565.5,-1944 565.5,-1980"/>
<text text-anchor="middle" x="462.5" y="-1958.3" font-family="Times New Roman,serif" font-size="14.00">这不是有点像给人下药吗？</text>
</g>
<!-- j2797006829&#45;&gt;j3714724157 -->
<g id="edge18" class="edge">
<title>j2797006829&#45;&gt;j3714724157</title>
<path fill="none" stroke="black" d="M771.6,-2015.52C712.25,-2005.43 637.52,-1992.74 576.41,-1982.35"/>
<polygon fill="black" stroke="black" points="577.1,-1978.92 566.65,-1980.7 575.93,-1985.82 577.1,-1978.92"/>
</g>
<!-- j3652852246 -->
<g id="node19" class="node">
<title>j3652852246</title>
<polygon fill="none" stroke="red" points="1103.5,-1980 645.5,-1980 645.5,-1944 1103.5,-1944 1103.5,-1980"/>
<text text-anchor="middle" x="874.5" y="-1958.3" font-family="Times New Roman,serif" font-size="14.00">传播积极情绪？为什么不呢？我看不出这和放音乐有什么不同。</text>
</g>
<!-- j2797006829&#45;&gt;j3652852246 -->
<g id="edge19" class="edge">
<title>j2797006829&#45;&gt;j3652852246</title>
<path fill="none" stroke="black" d="M874.5,-2015.7C874.5,-2008.41 874.5,-1999.73 874.5,-1991.54"/>
<polygon fill="black" stroke="black" points="878,-1991.62 874.5,-1981.62 871,-1991.62 878,-1991.62"/>
</g>
<!-- j846576514 -->
<g id="node20" class="node">
<title>j846576514</title>
<polygon fill="none" stroke="red" points="1444,-1980 1175,-1980 1175,-1944 1444,-1944 1444,-1980"/>
<text text-anchor="middle" x="1309.5" y="-1958.3" font-family="Times New Roman,serif" font-size="14.00">那么今天我可能会看到亚瑟微笑吗？</text>
</g>
<!-- j2797006829&#45;&gt;j846576514 -->
<g id="edge20" class="edge">
<title>j2797006829&#45;&gt;j846576514</title>
<path fill="none" stroke="black" d="M983.15,-2015.52C1046.07,-2005.39 1125.36,-1992.63 1190.04,-1982.22"/>
<polygon fill="black" stroke="black" points="1190.3,-1985.73 1199.61,-1980.68 1189.18,-1978.82 1190.3,-1985.73"/>
</g>
<!-- j591160838 -->
<g id="node21" class="node">
<title>j591160838</title>
<polygon fill="none" stroke="blue" points="801,-1908 0,-1908 0,-1872 801,-1872 801,-1908"/>
<text text-anchor="middle" x="400.5" y="-1886.3" font-family="Times New Roman,serif" font-size="14.00">……真好。我本来想做一个散播欢乐的秘密幸福小仙女，结果却变成了邪恶的毒品小妖精。我的好心情一落千丈。</text>
</g>
<!-- j3714724157&#45;&gt;j591160838 -->
<g id="edge21" class="edge">
<title>j3714724157&#45;&gt;j591160838</title>
<path fill="none" stroke="black" d="M447.17,-1943.7C439.97,-1935.56 431.22,-1925.69 423.26,-1916.7"/>
<polygon fill="black" stroke="black" points="425.9,-1914.4 416.65,-1909.24 420.66,-1919.04 425.9,-1914.4"/>
</g>
<!-- j2191468802 -->
<g id="node22" class="node">
<title>j2191468802</title>
<polygon fill="none" stroke="blue" points="930,-1908 819,-1908 819,-1872 930,-1872 930,-1908"/>
<text text-anchor="middle" x="874.5" y="-1886.3" font-family="Times New Roman,serif" font-size="14.00">哦！好比喻！</text>
</g>
<!-- j3652852246&#45;&gt;j2191468802 -->
<g id="edge22" class="edge">
<title>j3652852246&#45;&gt;j2191468802</title>
<path fill="none" stroke="black" d="M874.5,-1943.7C874.5,-1936.41 874.5,-1927.73 874.5,-1919.54"/>
<polygon fill="black" stroke="black" points="878,-1919.62 874.5,-1909.62 871,-1919.62 878,-1919.62"/>
</g>
<!-- j1950316795 -->
<g id="node23" class="node">
<title>j1950316795</title>
<polygon fill="none" stroke="blue" points="1497,-1908 1228,-1908 1228,-1872 1497,-1872 1497,-1908"/>
<text text-anchor="middle" x="1362.5" y="-1886.3" font-family="Times New Roman,serif" font-size="14.00">也许。我希望如此。他忍受了太多。</text>
</g>
<!-- j846576514&#45;&gt;j1950316795 -->
<g id="edge23" class="edge">
<title>j846576514&#45;&gt;j1950316795</title>
<path fill="none" stroke="black" d="M1322.6,-1943.7C1328.63,-1935.73 1335.92,-1926.1 1342.61,-1917.26"/>
<polygon fill="black" stroke="black" points="1345.39,-1919.4 1348.64,-1909.31 1339.81,-1915.17 1345.39,-1919.4"/>
</g>
<!-- j1517830240 -->
<g id="node24" class="node">
<title>j1517830240</title>
<polygon fill="none" stroke="blue" points="478.5,-1764 320.5,-1764 320.5,-1728 478.5,-1728 478.5,-1764"/>
<text text-anchor="middle" x="399.5" y="-1742.3" font-family="Times New Roman,serif" font-size="14.00">好吧。我会停下来。</text>
</g>
<!-- j591160838&#45;&gt;j1517830240 -->
<g id="edge24" class="edge">
<title>j591160838&#45;&gt;j1517830240</title>
<path fill="none" stroke="black" d="M400.38,-1871.59C400.21,-1847.61 399.9,-1804.14 399.7,-1775.42"/>
<polygon fill="black" stroke="black" points="403.2,-1775.6 399.63,-1765.62 396.2,-1775.65 403.2,-1775.6"/>
</g>
<!-- j1058949375 -->
<g id="node25" class="node">
<title>j1058949375</title>
<polygon fill="none" stroke="blue" points="1030,-1836 525,-1836 525,-1800 1030,-1800 1030,-1836"/>
<text text-anchor="middle" x="777.5" y="-1814.3" font-family="Times New Roman,serif" font-size="14.00">如果碧可以通过音乐来影响心情，那么我也可以通过氛围做到，对吧？</text>
</g>
<!-- j2191468802&#45;&gt;j1058949375 -->
<g id="edge25" class="edge">
<title>j2191468802&#45;&gt;j1058949375</title>
<path fill="none" stroke="black" d="M850.52,-1871.7C838.51,-1863.03 823.78,-1852.4 810.71,-1842.96"/>
<polygon fill="black" stroke="black" points="812.92,-1840.25 802.77,-1837.23 808.83,-1845.92 812.92,-1840.25"/>
</g>
<!-- j844295329 -->
<g id="node26" class="node">
<title>j844295329</title>
<polygon fill="none" stroke="blue" points="1695,-1836 1048,-1836 1048,-1800 1695,-1800 1695,-1836"/>
<text text-anchor="middle" x="1371.5" y="-1814.3" font-family="Times New Roman,serif" font-size="14.00">自从你来后，很多事情都变了。我指的不只是你和我。我指的是所有的一切。甚至是商场。</text>
</g>
<!-- j1950316795&#45;&gt;j844295329 -->
<g id="edge26" class="edge">
<title>j1950316795&#45;&gt;j844295329</title>
<path fill="none" stroke="black" d="M1364.72,-1871.7C1365.67,-1864.32 1366.8,-1855.52 1367.87,-1847.25"/>
<polygon fill="black" stroke="black" points="1371.3,-1847.97 1369.11,-1837.61 1364.36,-1847.08 1371.3,-1847.97"/>
</g>
<!-- j1517830240&#45;&gt;Chat ends. -->
<g id="edge27" class="edge">
<title>j1517830240&#45;&gt;Chat ends.</title>
<path fill="none" stroke="black" d="M399.5,-1727.51C399.5,-1700.71 399.5,-1647.87 399.5,-1603 399.5,-1603 399.5,-1603 399.5,-161 399.5,-42.97 1311.42,-22.89 1559.07,-19.61"/>
<polygon fill="black" stroke="black" points="1558.89,-23.12 1568.85,-19.49 1558.8,-16.12 1558.89,-23.12"/>
</g>
<!-- j265771445 -->
<g id="node27" class="node">
<title>j265771445</title>
<polygon fill="none" stroke="blue" points="1399,-1764 1146,-1764 1146,-1728 1399,-1728 1399,-1764"/>
<text text-anchor="middle" x="1272.5" y="-1742.3" font-family="Times New Roman,serif" font-size="14.00">我很高兴碧说服我留下。感谢她。</text>
</g>
<!-- j1058949375&#45;&gt;j265771445 -->
<g id="edge28" class="edge">
<title>j1058949375&#45;&gt;j265771445</title>
<path fill="none" stroke="black" d="M901.13,-1799.52C973.18,-1789.33 1064.09,-1776.47 1137.93,-1766.03"/>
<polygon fill="black" stroke="black" points="1138.25,-1769.52 1147.66,-1764.65 1137.27,-1762.59 1138.25,-1769.52"/>
</g>
<!-- j844295329&#45;&gt;j265771445 -->
<g id="edge29" class="edge">
<title>j844295329&#45;&gt;j265771445</title>
<path fill="none" stroke="black" d="M1346.77,-1799.52C1334.51,-1790.85 1319.52,-1780.25 1306.23,-1770.85"/>
<polygon fill="black" stroke="black" points="1308.33,-1768.05 1298.15,-1765.13 1304.29,-1773.77 1308.33,-1768.05"/>
</g>
<!-- j3494588474 -->
<g id="node28" class="node">
<title>j3494588474</title>
<polygon fill="none" stroke="red" points="1251.5,-1692 1093.5,-1692 1093.5,-1656 1251.5,-1656 1251.5,-1692"/>
<text text-anchor="middle" x="1172.5" y="-1670.3" font-family="Times New Roman,serif" font-size="14.00">等等。她做了什么？</text>
</g>
<!-- j265771445&#45;&gt;j3494588474 -->
<g id="edge30" class="edge">
<title>j265771445&#45;&gt;j3494588474</title>
<path fill="none" stroke="black" d="M1247.52,-1727.52C1235.14,-1718.85 1220,-1708.25 1206.57,-1698.85"/>
<polygon fill="black" stroke="black" points="1208.6,-1696 1198.4,-1693.13 1204.58,-1701.73 1208.6,-1696"/>
</g>
<!-- j2344573855 -->
<g id="node29" class="node">
<title>j2344573855</title>
<polygon fill="none" stroke="red" points="1491,-1692 1270,-1692 1270,-1656 1491,-1656 1491,-1692"/>
<text text-anchor="middle" x="1380.5" y="-1670.3" font-family="Times New Roman,serif" font-size="14.00">倒回去一下。我错过了什么。</text>
</g>
<!-- j265771445&#45;&gt;j2344573855 -->
<g id="edge31" class="edge">
<title>j265771445&#45;&gt;j2344573855</title>
<path fill="none" stroke="black" d="M1299.47,-1727.52C1313.11,-1718.68 1329.84,-1707.84 1344.55,-1698.3"/>
<polygon fill="black" stroke="black" points="1346.11,-1701.46 1352.6,-1693.08 1342.3,-1695.59 1346.11,-1701.46"/>
</g>
<!-- j2835235374 -->
<g id="node30" class="node">
<title>j2835235374</title>
<polygon fill="none" stroke="blue" points="1353,-1620 1210,-1620 1210,-1584 1353,-1584 1353,-1620"/>
<text text-anchor="middle" x="1281.5" y="-1598.3" font-family="Times New Roman,serif" font-size="14.00">我没有告诉你吗？</text>
</g>
<!-- j3494588474&#45;&gt;j2835235374 -->
<g id="edge32" class="edge">
<title>j3494588474&#45;&gt;j2835235374</title>
<path fill="none" stroke="black" d="M1199.72,-1655.52C1213.48,-1646.68 1230.37,-1635.84 1245.21,-1626.3"/>
<polygon fill="black" stroke="black" points="1246.83,-1629.43 1253.35,-1621.08 1243.04,-1623.54 1246.83,-1629.43"/>
</g>
<!-- j2344573855&#45;&gt;j2835235374 -->
<g id="edge33" class="edge">
<title>j2344573855&#45;&gt;j2835235374</title>
<path fill="none" stroke="black" d="M1355.77,-1655.52C1343.51,-1646.85 1328.52,-1636.25 1315.23,-1626.85"/>
<polygon fill="black" stroke="black" points="1317.33,-1624.05 1307.15,-1621.13 1313.29,-1629.77 1317.33,-1624.05"/>
</g>
<!-- j367911343 -->
<g id="node31" class="node">
<title>j367911343</title>
<polygon fill="none" stroke="blue" points="1983,-1548 580,-1548 580,-1512 1983,-1512 1983,-1548"/>
<text text-anchor="middle" x="1281.5" y="-1526.3" font-family="Times New Roman,serif" font-size="14.00">啊。这是你来之前不久的事。那天我们整天都在外面试图清除一个科腐者巢穴。空气中弥漫着一种凶险的紧张气氛。战斗通常能消磨我们的怒气，让我们筋疲力尽，无法对彼此发脾气，但那一天不同。</text>
</g>
<!-- j2835235374&#45;&gt;j367911343 -->
<g id="edge34" class="edge">
<title>j2835235374&#45;&gt;j367911343</title>
<path fill="none" stroke="black" d="M1281.5,-1583.7C1281.5,-1576.41 1281.5,-1567.73 1281.5,-1559.54"/>
<polygon fill="black" stroke="black" points="1285,-1559.62 1281.5,-1549.62 1278,-1559.62 1285,-1559.62"/>
</g>
<!-- j2270963950 -->
<g id="node32" class="node">
<title>j2270963950</title>
<polygon fill="none" stroke="blue" points="1705.5,-1476 857.5,-1476 857.5,-1440 1705.5,-1440 1705.5,-1476"/>
<text text-anchor="middle" x="1281.5" y="-1454.3" font-family="Times New Roman,serif" font-size="14.00">我记得亚瑟说了类似“我们明天再做一遍”这样的话，这对我们来说就像是一个重拳。在回商场的路上，没有人说一句话。</text>
</g>
<!-- j367911343&#45;&gt;j2270963950 -->
<g id="edge35" class="edge">
<title>j367911343&#45;&gt;j2270963950</title>
<path fill="none" stroke="black" d="M1281.5,-1511.7C1281.5,-1504.41 1281.5,-1495.73 1281.5,-1487.54"/>
<polygon fill="black" stroke="black" points="1285,-1487.62 1281.5,-1477.62 1278,-1487.62 1285,-1487.62"/>
</g>
<!-- j2107346740 -->
<g id="node33" class="node">
<title>j2107346740</title>
<polygon fill="none" stroke="red" points="1339.5,-1260 995.5,-1260 995.5,-1224 1339.5,-1224 1339.5,-1260"/>
<text text-anchor="middle" x="1167.5" y="-1238.3" font-family="Times New Roman,serif" font-size="14.00">哇哦。亚瑟，真是个“提升团队士气”的好办法。</text>
</g>
<!-- j2270963950&#45;&gt;j2107346740 -->
<g id="edge36" class="edge">
<title>j2270963950&#45;&gt;j2107346740</title>
<path fill="none" stroke="black" d="M1264.22,-1439.62C1242.63,-1416.88 1206.16,-1374.86 1186.5,-1332 1177.73,-1312.89 1172.95,-1289.6 1170.37,-1271.64"/>
<polygon fill="black" stroke="black" points="1173.87,-1271.42 1169.14,-1261.94 1166.93,-1272.3 1173.87,-1271.42"/>
</g>
<!-- j3414339863 -->
<g id="node34" class="node">
<title>j3414339863</title>
<polygon fill="none" stroke="red" points="1367,-1332 1196,-1332 1196,-1296 1367,-1296 1367,-1332"/>
<text text-anchor="middle" x="1281.5" y="-1310.3" font-family="Times New Roman,serif" font-size="14.00">他可真会讨人喜欢……</text>
</g>
<!-- j2270963950&#45;&gt;j3414339863 -->
<g id="edge37" class="edge">
<title>j2270963950&#45;&gt;j3414339863</title>
<path fill="none" stroke="black" d="M1281.5,-1439.59C1281.5,-1415.61 1281.5,-1372.14 1281.5,-1343.42"/>
<polygon fill="black" stroke="black" points="1285,-1343.62 1281.5,-1333.62 1278,-1343.62 1285,-1343.62"/>
</g>
<!-- j2080255280 -->
<g id="node35" class="node">
<title>j2080255280</title>
<polygon fill="none" stroke="red" points="1750.5,-1404 1418.5,-1404 1418.5,-1368 1750.5,-1368 1750.5,-1404"/>
<text text-anchor="middle" x="1584.5" y="-1382.3" font-family="Times New Roman,serif" font-size="14.00">他肩上担负着很多责任。这对他的影响很大。</text>
</g>
<!-- j2270963950&#45;&gt;j2080255280 -->
<g id="edge38" class="edge">
<title>j2270963950&#45;&gt;j2080255280</title>
<path fill="none" stroke="black" d="M1357.18,-1439.52C1399.92,-1429.64 1453.51,-1417.26 1497.92,-1407"/>
<polygon fill="black" stroke="black" points="1498.57,-1410.44 1507.52,-1404.78 1496.99,-1403.62 1498.57,-1410.44"/>
</g>
<!-- j1858299449 -->
<g id="node36" class="node">
<title>j1858299449</title>
<polygon fill="none" stroke="blue" points="1919,-1188 816,-1188 816,-1152 1919,-1152 1919,-1188"/>
<text text-anchor="middle" x="1367.5" y="-1166.3" font-family="Times New Roman,serif" font-size="14.00">我想他只是想让我们集中精力工作。但我感觉自己快崩溃了。亚瑟和碧不再说话，阿米尔一直在烦昆西，我开始担心他的生命，而莱蒂一有机会就冷眼看我。</text>
</g>
<!-- j2107346740&#45;&gt;j1858299449 -->
<g id="edge39" class="edge">
<title>j2107346740&#45;&gt;j1858299449</title>
<path fill="none" stroke="black" d="M1217.45,-1223.52C1244.64,-1214 1278.48,-1202.16 1307.13,-1192.13"/>
<polygon fill="black" stroke="black" points="1308.13,-1195.49 1316.41,-1188.88 1305.81,-1188.88 1308.13,-1195.49"/>
</g>
<!-- j3414339863&#45;&gt;j1858299449 -->
<g id="edge40" class="edge">
<title>j3414339863&#45;&gt;j1858299449</title>
<path fill="none" stroke="black" d="M1311.89,-1295.66C1325.06,-1286.65 1339.5,-1274.49 1348.5,-1260 1359.79,-1241.84 1364.45,-1218 1366.34,-1199.57"/>
<polygon fill="black" stroke="black" points="1369.81,-1200.1 1367.1,-1189.86 1362.83,-1199.55 1369.81,-1200.1"/>
</g>
<!-- j963106878 -->
<g id="node37" class="node">
<title>j963106878</title>
<polygon fill="none" stroke="blue" points="2000,-1332 1385,-1332 1385,-1296 2000,-1296 2000,-1332"/>
<text text-anchor="middle" x="1692.5" y="-1310.3" font-family="Times New Roman,serif" font-size="14.00">是的。通常他都能掩饰得很好，即使是在精疲力竭的时候。但我想他已经没有余力了。</text>
</g>
<!-- j2080255280&#45;&gt;j963106878 -->
<g id="edge41" class="edge">
<title>j2080255280&#45;&gt;j963106878</title>
<path fill="none" stroke="black" d="M1611.47,-1367.52C1625.11,-1358.68 1641.84,-1347.84 1656.55,-1338.3"/>
<polygon fill="black" stroke="black" points="1658.11,-1341.46 1664.6,-1333.08 1654.3,-1335.59 1658.11,-1341.46"/>
</g>
<!-- j1031009550 -->
<g id="node38" class="node">
<title>j1031009550</title>
<polygon fill="none" stroke="blue" points="1839,-1116 896,-1116 896,-1080 1839,-1080 1839,-1116"/>
<text text-anchor="middle" x="1367.5" y="-1094.3" font-family="Times New Roman,serif" font-size="14.00">那天我花了很多时间照镜子。我不断幻想镜子里的我抓住我的喉咙并嘶声说“你就是问题所在。如果不是因为你，这一切都不会发生。”</text>
</g>
<!-- j1858299449&#45;&gt;j1031009550 -->
<g id="edge42" class="edge">
<title>j1858299449&#45;&gt;j1031009550</title>
<path fill="none" stroke="black" d="M1367.5,-1151.7C1367.5,-1144.41 1367.5,-1135.73 1367.5,-1127.54"/>
<polygon fill="black" stroke="black" points="1371,-1127.62 1367.5,-1117.62 1364,-1127.62 1371,-1127.62"/>
</g>
<!-- j2052414418 -->
<g id="node39" class="node">
<title>j2052414418</title>
<polygon fill="none" stroke="blue" points="1781.5,-1260 1465.5,-1260 1465.5,-1224 1781.5,-1224 1781.5,-1260"/>
<text text-anchor="middle" x="1623.5" y="-1238.3" font-family="Times New Roman,serif" font-size="14.00">为了维持团队的团结，他已经透支了自己。</text>
</g>
<!-- j963106878&#45;&gt;j2052414418 -->
<g id="edge43" class="edge">
<title>j963106878&#45;&gt;j2052414418</title>
<path fill="none" stroke="black" d="M1675.44,-1295.7C1667.26,-1287.39 1657.29,-1277.28 1648.28,-1268.14"/>
<polygon fill="black" stroke="black" points="1650.94,-1265.85 1641.42,-1261.18 1645.95,-1270.76 1650.94,-1265.85"/>
</g>
<!-- j3699268341 -->
<g id="node40" class="node">
<title>j3699268341</title>
<polygon fill="none" stroke="red" points="1378.5,-1044 1062.5,-1044 1062.5,-1008 1378.5,-1008 1378.5,-1044"/>
<text text-anchor="middle" x="1220.5" y="-1022.3" font-family="Times New Roman,serif" font-size="14.00">听起来这次反而像是别人进入了你的脑海。</text>
</g>
<!-- j1031009550&#45;&gt;j3699268341 -->
<g id="edge44" class="edge">
<title>j1031009550&#45;&gt;j3699268341</title>
<path fill="none" stroke="black" d="M1330.78,-1079.52C1311.59,-1070.38 1287.9,-1059.09 1267.39,-1049.33"/>
<polygon fill="black" stroke="black" points="1268.9,-1046.17 1258.37,-1045.03 1265.89,-1052.49 1268.9,-1046.17"/>
</g>
<!-- j2273206269 -->
<g id="node41" class="node">
<title>j2273206269</title>
<polygon fill="none" stroke="red" points="1693,-1044 1456,-1044 1456,-1008 1693,-1008 1693,-1044"/>
<text text-anchor="middle" x="1574.5" y="-1022.3" font-family="Times New Roman,serif" font-size="14.00">这听起来像是莱蒂会说的废话。</text>
</g>
<!-- j1031009550&#45;&gt;j2273206269 -->
<g id="edge45" class="edge">
<title>j1031009550&#45;&gt;j2273206269</title>
<path fill="none" stroke="black" d="M1419.2,-1079.52C1447.46,-1069.96 1482.67,-1058.05 1512.41,-1048"/>
<polygon fill="black" stroke="black" points="1513.31,-1051.39 1521.67,-1044.87 1511.07,-1044.75 1513.31,-1051.39"/>
</g>
<!-- j2052414418&#45;&gt;j1858299449 -->
<g id="edge46" class="edge">
<title>j2052414418&#45;&gt;j1858299449</title>
<path fill="none" stroke="black" d="M1559.56,-1223.52C1523.84,-1213.75 1479.15,-1201.53 1441.87,-1191.34"/>
<polygon fill="black" stroke="black" points="1443.1,-1188.04 1432.53,-1188.78 1441.25,-1194.79 1443.1,-1188.04"/>
</g>
<!-- j1364525411 -->
<g id="node42" class="node">
<title>j1364525411</title>
<polygon fill="none" stroke="blue" points="1492.5,-972 830.5,-972 830.5,-936 1492.5,-936 1492.5,-972"/>
<text text-anchor="middle" x="1161.5" y="-950.3" font-family="Times New Roman,serif" font-size="14.00">哦，这不是他们。这是我自己。在一那天，我一直压抑的自我怀疑和自我憎恨全都涌上心头。</text>
</g>
<!-- j3699268341&#45;&gt;j1364525411 -->
<g id="edge47" class="edge">
<title>j3699268341&#45;&gt;j1364525411</title>
<path fill="none" stroke="black" d="M1205.92,-1007.7C1199.06,-999.56 1190.74,-989.69 1183.16,-980.7"/>
<polygon fill="black" stroke="black" points="1186.01,-978.65 1176.89,-973.26 1180.66,-983.16 1186.01,-978.65"/>
</g>
<!-- j238745994 -->
<g id="node43" class="node">
<title>j238745994</title>
<polygon fill="none" stroke="blue" points="1874,-972 1511,-972 1511,-936 1874,-936 1874,-972"/>
<text text-anchor="middle" x="1692.5" y="-950.3" font-family="Times New Roman,serif" font-size="14.00">谢谢你。我知道你会支持我，这对我来说很重要。</text>
</g>
<!-- j2273206269&#45;&gt;j238745994 -->
<g id="edge48" class="edge">
<title>j2273206269&#45;&gt;j238745994</title>
<path fill="none" stroke="black" d="M1603.97,-1007.52C1619.01,-998.6 1637.49,-987.63 1653.68,-978.03"/>
<polygon fill="black" stroke="black" points="1655.29,-981.15 1662.1,-973.03 1651.72,-975.12 1655.29,-981.15"/>
</g>
<!-- j42409725 -->
<g id="node44" class="node">
<title>j42409725</title>
<polygon fill="none" stroke="blue" points="1327.5,-900 1011.5,-900 1011.5,-864 1327.5,-864 1327.5,-900"/>
<text text-anchor="middle" x="1169.5" y="-878.3" font-family="Times New Roman,serif" font-size="14.00">我心里想：这个团队需要的是一个替罪羊。</text>
</g>
<!-- j1364525411&#45;&gt;j42409725 -->
<g id="edge49" class="edge">
<title>j1364525411&#45;&gt;j42409725</title>
<path fill="none" stroke="black" d="M1163.48,-935.7C1164.31,-928.41 1165.3,-919.73 1166.24,-911.54"/>
<polygon fill="black" stroke="black" points="1169.72,-911.94 1167.37,-901.61 1162.76,-911.15 1169.72,-911.94"/>
</g>
<!-- j3881903273 -->
<g id="node45" class="node">
<title>j3881903273</title>
<polygon fill="none" stroke="blue" points="2049,-828 1324,-828 1324,-792 2049,-792 2049,-828"/>
<text text-anchor="middle" x="1686.5" y="-806.3" font-family="Times New Roman,serif" font-size="14.00">这句话我听莱蒂说了无数次了，最后我心想：也许她是对的。我留在这里会让每个人都处于危险之中。</text>
</g>
<!-- j238745994&#45;&gt;j3881903273 -->
<g id="edge50" class="edge">
<title>j238745994&#45;&gt;j3881903273</title>
<path fill="none" stroke="black" d="M1691.76,-935.59C1690.75,-911.61 1688.91,-868.14 1687.7,-839.42"/>
<polygon fill="black" stroke="black" points="1691.21,-839.47 1687.29,-829.62 1684.21,-839.76 1691.21,-839.47"/>
</g>
<!-- j3429800552 -->
<g id="node46" class="node">
<title>j3429800552</title>
<polygon fill="none" stroke="blue" points="1290,-828 1053,-828 1053,-792 1290,-792 1290,-828"/>
<text text-anchor="middle" x="1171.5" y="-806.3" font-family="Times New Roman,serif" font-size="14.00">一个怪物。一个可以归咎的人。</text>
</g>
<!-- j42409725&#45;&gt;j3429800552 -->
<g id="edge51" class="edge">
<title>j42409725&#45;&gt;j3429800552</title>
<path fill="none" stroke="black" d="M1169.99,-863.7C1170.2,-856.41 1170.45,-847.73 1170.68,-839.54"/>
<polygon fill="black" stroke="black" points="1174.18,-839.71 1170.97,-829.62 1167.18,-839.51 1174.18,-839.71"/>
</g>
<!-- j121839397 -->
<g id="node47" class="node">
<title>j121839397</title>
<polygon fill="none" stroke="blue" points="2077,-756 1090,-756 1090,-720 2077,-720 2077,-756"/>
<text text-anchor="middle" x="1583.5" y="-734.3" font-family="Times New Roman,serif" font-size="14.00">我想出了一个完整的计划。我会在夜里溜走，躲在城里某个亚瑟永远找不到的地方，然后——这是我最自豪的部分——继续在远处帮助他们。</text>
</g>
<!-- j3881903273&#45;&gt;j121839397 -->
<g id="edge52" class="edge">
<title>j3881903273&#45;&gt;j121839397</title>
<path fill="none" stroke="black" d="M1660.77,-791.52C1647.9,-782.76 1632.12,-772.04 1618.19,-762.58"/>
<polygon fill="black" stroke="black" points="1620.39,-759.84 1610.15,-757.11 1616.45,-765.63 1620.39,-759.84"/>
</g>
<!-- j3429800552&#45;&gt;j121839397 -->
<g id="edge53" class="edge">
<title>j3429800552&#45;&gt;j121839397</title>
<path fill="none" stroke="black" d="M1274.4,-791.52C1333.75,-781.43 1408.48,-768.74 1469.59,-758.35"/>
<polygon fill="black" stroke="black" points="1470.07,-761.82 1479.35,-756.7 1468.9,-754.92 1470.07,-761.82"/>
</g>
<!-- j628691674 -->
<g id="node48" class="node">
<title>j628691674</title>
<polygon fill="none" stroke="red" points="1658.5,-684 1358.5,-684 1358.5,-648 1658.5,-648 1658.5,-684"/>
<text text-anchor="middle" x="1508.5" y="-662.3" font-family="Times New Roman,serif" font-size="14.00">我觉得他还是能找到你。他很有决心的。</text>
</g>
<!-- j121839397&#45;&gt;j628691674 -->
<g id="edge54" class="edge">
<title>j121839397&#45;&gt;j628691674</title>
<path fill="none" stroke="black" d="M1564.96,-719.7C1556.04,-711.37 1545.17,-701.22 1535.36,-692.07"/>
<polygon fill="black" stroke="black" points="1537.89,-689.64 1528.19,-685.38 1533.11,-694.76 1537.89,-689.64"/>
</g>
<!-- j3331589072 -->
<g id="node49" class="node">
<title>j3331589072</title>
<polygon fill="none" stroke="red" points="2103.5,-684 1771.5,-684 1771.5,-648 2103.5,-648 2103.5,-684"/>
<text text-anchor="middle" x="1937.5" y="-662.3" font-family="Times New Roman,serif" font-size="14.00">更可能的情况是，他会在找你的过程中死去。</text>
</g>
<!-- j121839397&#45;&gt;j3331589072 -->
<g id="edge55" class="edge">
<title>j121839397&#45;&gt;j3331589072</title>
<path fill="none" stroke="black" d="M1671.92,-719.52C1722.49,-709.52 1786.05,-696.95 1838.32,-686.61"/>
<polygon fill="black" stroke="black" points="1838.68,-690.11 1847.81,-684.74 1837.32,-683.24 1838.68,-690.11"/>
</g>
<!-- j2419763945 -->
<g id="node50" class="node">
<title>j2419763945</title>
<polygon fill="none" stroke="blue" points="1460.5,-612 1176.5,-612 1176.5,-576 1460.5,-576 1460.5,-612"/>
<text text-anchor="middle" x="1318.5" y="-590.3" font-family="Times New Roman,serif" font-size="14.00">怎么找到？阿米尔无法追踪心灵感应。</text>
</g>
<!-- j628691674&#45;&gt;j2419763945 -->
<g id="edge56" class="edge">
<title>j628691674&#45;&gt;j2419763945</title>
<path fill="none" stroke="black" d="M1461.05,-647.52C1435.33,-638.04 1403.36,-626.26 1376.21,-616.26"/>
<polygon fill="black" stroke="black" points="1377.69,-613.08 1367.1,-612.9 1375.27,-619.65 1377.69,-613.08"/>
</g>
<!-- j474052444 -->
<g id="node51" class="node">
<title>j474052444</title>
<polygon fill="none" stroke="blue" points="2083.5,-612 1925.5,-612 1925.5,-576 2083.5,-576 2083.5,-612"/>
<text text-anchor="middle" x="2004.5" y="-590.3" font-family="Times New Roman,serif" font-size="14.00">想让我感到内疚吗？</text>
</g>
<!-- j3331589072&#45;&gt;j474052444 -->
<g id="edge57" class="edge">
<title>j3331589072&#45;&gt;j474052444</title>
<path fill="none" stroke="black" d="M1954.06,-647.7C1961.93,-639.47 1971.49,-629.48 1980.17,-620.42"/>
<polygon fill="black" stroke="black" points="1982.7,-622.84 1987.08,-613.2 1977.64,-618 1982.7,-622.84"/>
</g>
<!-- j1876377054 -->
<g id="node52" class="node">
<title>j1876377054</title>
<polygon fill="none" stroke="blue" points="2113.5,-540 427.5,-540 427.5,-504 2113.5,-504 2113.5,-540"/>
<text text-anchor="middle" x="1270.5" y="-518.3" font-family="Times New Roman,serif" font-size="14.00">我将会是一个高尚的流亡者。我会蹲在屋顶上，看起来被风吹得凌乱，却目光坚定。我可以报告科腐者的集结情况，让六人组知道炽蛇军在哪里设置路障，甚至充当紧急通讯中继。每次我救了莱蒂的命，我一定要让她感受到。小气？绝对是。</text>
</g>
<!-- j2419763945&#45;&gt;j1876377054 -->
<g id="edge58" class="edge">
<title>j2419763945&#45;&gt;j1876377054</title>
<path fill="none" stroke="black" d="M1306.63,-575.7C1301.23,-567.81 1294.71,-558.3 1288.7,-549.55"/>
<polygon fill="black" stroke="black" points="1291.63,-547.62 1283.08,-541.35 1285.85,-551.58 1291.63,-547.62"/>
</g>
<!-- j1379998926 -->
<g id="node53" class="node">
<title>j1379998926</title>
<polygon fill="none" stroke="blue" points="2144,-468 1923,-468 1923,-432 2144,-432 2144,-468"/>
<text text-anchor="middle" x="2033.5" y="-446.3" font-family="Times New Roman,serif" font-size="14.00">别费心了。我已经够难受了。</text>
</g>
<!-- j474052444&#45;&gt;j1379998926 -->
<g id="edge59" class="edge">
<title>j474052444&#45;&gt;j1379998926</title>
<path fill="none" stroke="black" d="M2077.31,-575.51C2095.05,-567.65 2111.95,-556.31 2122.5,-540 2131.19,-526.57 2130.41,-517.91 2122.5,-504 2115.42,-491.54 2104.12,-481.7 2091.92,-474.06"/>
<polygon fill="black" stroke="black" points="2093.73,-471.07 2083.31,-469.14 2090.26,-477.14 2093.73,-471.07"/>
</g>
<!-- j1509310191 -->
<g id="node54" class="node">
<title>j1509310191</title>
<polygon fill="none" stroke="blue" points="1598,-468 951,-468 951,-432 1598,-432 1598,-468"/>
<text text-anchor="middle" x="1274.5" y="-446.3" font-family="Times New Roman,serif" font-size="14.00">我选择了合适的时机。我等到阿米尔睡着了。然后穿上一件长外套，悄无声息地走向车库。</text>
</g>
<!-- j1876377054&#45;&gt;j1509310191 -->
<g id="edge60" class="edge">
<title>j1876377054&#45;&gt;j1509310191</title>
<path fill="none" stroke="black" d="M1271.49,-503.7C1271.91,-496.41 1272.4,-487.73 1272.87,-479.54"/>
<polygon fill="black" stroke="black" points="1276.36,-479.8 1273.44,-469.62 1269.37,-479.4 1276.36,-479.8"/>
</g>
<!-- j1379998926&#45;&gt;Chat ends. -->
<g id="edge61" class="edge">
<title>j1379998926&#45;&gt;Chat ends.</title>
<path fill="none" stroke="black" d="M2033.1,-431.51C2032.51,-404.71 2031.5,-351.87 2031.5,-307 2031.5,-307 2031.5,-307 2031.5,-161 2031.5,-108.4 1999.54,-97.42 1953.5,-72 1907.68,-46.7 1763.36,-30.88 1680.53,-23.65"/>
<polygon fill="black" stroke="black" points="1681.04,-20.18 1670.78,-22.81 1680.44,-27.15 1681.04,-20.18"/>
</g>
<!-- j4271836739 -->
<g id="node55" class="node">
<title>j4271836739</title>
<polygon fill="none" stroke="blue" points="1458,-396 1095,-396 1095,-360 1458,-360 1458,-396"/>
<text text-anchor="middle" x="1276.5" y="-374.3" font-family="Times New Roman,serif" font-size="14.00">防盗栅栏自动落了下来。我转过身，碧就在那里。</text>
</g>
<!-- j1509310191&#45;&gt;j4271836739 -->
<g id="edge62" class="edge">
<title>j1509310191&#45;&gt;j4271836739</title>
<path fill="none" stroke="black" d="M1274.99,-431.7C1275.2,-424.41 1275.45,-415.73 1275.68,-407.54"/>
<polygon fill="black" stroke="black" points="1279.18,-407.71 1275.97,-397.62 1272.18,-407.51 1279.18,-407.71"/>
</g>
<!-- j819858884 -->
<g id="node56" class="node">
<title>j819858884</title>
<polygon fill="none" stroke="blue" points="1597.5,-324 1013.5,-324 1013.5,-288 1597.5,-288 1597.5,-324"/>
<text text-anchor="middle" x="1305.5" y="-302.3" font-family="Times New Roman,serif" font-size="14.00">我们彻夜长谈，相拥而泣。她也很受伤，非常深。等到太阳升起时，我决定留下。</text>
</g>
<!-- j4271836739&#45;&gt;j819858884 -->
<g id="edge63" class="edge">
<title>j4271836739&#45;&gt;j819858884</title>
<path fill="none" stroke="black" d="M1283.67,-359.7C1286.79,-352.15 1290.54,-343.12 1294.03,-334.68"/>
<polygon fill="black" stroke="black" points="1297.24,-336.08 1297.83,-325.5 1290.77,-333.4 1297.24,-336.08"/>
</g>
<!-- j3827092990 -->
<g id="node57" class="node">
<title>j3827092990</title>
<polygon fill="none" stroke="red" points="1160.5,-252 970.5,-252 970.5,-216 1160.5,-216 1160.5,-252"/>
<text text-anchor="middle" x="1065.5" y="-230.3" font-family="Times New Roman,serif" font-size="14.00">现在还有时间改变主意。</text>
</g>
<!-- j819858884&#45;&gt;j3827092990 -->
<g id="edge64" class="edge">
<title>j819858884&#45;&gt;j3827092990</title>
<path fill="none" stroke="black" d="M1245.56,-287.52C1212.36,-277.83 1170.89,-265.74 1136.13,-255.6"/>
<polygon fill="black" stroke="black" points="1137.13,-252.25 1126.55,-252.81 1135.17,-258.97 1137.13,-252.25"/>
</g>
<!-- j4043328445 -->
<g id="node58" class="node">
<title>j4043328445</title>
<polygon fill="none" stroke="red" points="1462.5,-252 1178.5,-252 1178.5,-216 1462.5,-216 1462.5,-252"/>
<text text-anchor="middle" x="1320.5" y="-230.3" font-family="Times New Roman,serif" font-size="14.00">碧太棒了。我很高兴她在那里陪伴你。</text>
</g>
<!-- j819858884&#45;&gt;j4043328445 -->
<g id="edge65" class="edge">
<title>j819858884&#45;&gt;j4043328445</title>
<path fill="none" stroke="black" d="M1309.21,-287.7C1310.79,-280.32 1312.67,-271.52 1314.45,-263.25"/>
<polygon fill="black" stroke="black" points="1317.84,-264.1 1316.52,-253.58 1311,-262.63 1317.84,-264.1"/>
</g>
<!-- j1732641551 -->
<g id="node59" class="node">
<title>j1732641551</title>
<polygon fill="none" stroke="red" points="1560.5,-252 1480.5,-252 1480.5,-216 1560.5,-216 1560.5,-252"/>
<text text-anchor="middle" x="1520.5" y="-230.3" font-family="Times New Roman,serif" font-size="14.00">真幸运。</text>
</g>
<!-- j819858884&#45;&gt;j1732641551 -->
<g id="edge66" class="edge">
<title>j819858884&#45;&gt;j1732641551</title>
<path fill="none" stroke="black" d="M1361.32,-287.56C1391,-278.2 1428.34,-266.28 1469.36,-252.68"/>
<polygon fill="black" stroke="black" points="1470.33,-256.04 1478.71,-249.57 1468.12,-249.4 1470.33,-256.04"/>
</g>
<!-- j2913549343 -->
<g id="node60" class="node">
<title>j2913549343</title>
<polygon fill="none" stroke="blue" points="1278.5,-108 852.5,-108 852.5,-72 1278.5,-72 1278.5,-108"/>
<text text-anchor="middle" x="1065.5" y="-86.3" font-family="Times New Roman,serif" font-size="14.00">不管是什么怪诞的冲动让你写下句话，我希望你被它呛到。</text>
</g>
<!-- j3827092990&#45;&gt;j2913549343 -->
<g id="edge67" class="edge">
<title>j3827092990&#45;&gt;j2913549343</title>
<path fill="none" stroke="black" d="M1065.5,-215.59C1065.5,-191.61 1065.5,-148.14 1065.5,-119.42"/>
<polygon fill="black" stroke="black" points="1069,-119.62 1065.5,-109.62 1062,-119.62 1069,-119.62"/>
</g>
<!-- j619358826 -->
<g id="node61" class="node">
<title>j619358826</title>
<ellipse fill="none" stroke="orange" cx="1520.5" cy="-162" rx="64.19" ry="18"/>
<text text-anchor="middle" x="1520.5" y="-158.3" font-family="Times New Roman,serif" font-size="14.00">+20 Chemistry</text>
</g>
<!-- j4043328445&#45;&gt;j619358826 -->
<g id="edge68" class="edge">
<title>j4043328445&#45;&gt;j619358826</title>
<path fill="none" stroke="black" d="M1370.45,-215.52C1401.06,-204.81 1440.09,-191.14 1470.67,-180.44"/>
<polygon fill="black" stroke="black" points="1471.81,-183.75 1480.1,-177.14 1469.5,-177.14 1471.81,-183.75"/>
</g>
<!-- j1732641551&#45;&gt;j619358826 -->
<g id="edge69" class="edge">
<title>j1732641551&#45;&gt;j619358826</title>
<path fill="none" stroke="black" d="M1520.5,-215.7C1520.5,-208.41 1520.5,-199.73 1520.5,-191.54"/>
<polygon fill="black" stroke="black" points="1524,-191.62 1520.5,-181.62 1517,-191.62 1524,-191.62"/>
</g>
<!-- j2913549343&#45;&gt;Chat ends. -->
<g id="edge70" class="edge">
<title>j2913549343&#45;&gt;Chat ends.</title>
<path fill="none" stroke="black" d="M1204.12,-71.52C1319.57,-56.96 1478.23,-36.94 1562.47,-26.32"/>
<polygon fill="black" stroke="black" points="1562.86,-29.8 1572.34,-25.07 1561.99,-22.85 1562.86,-29.8"/>
</g>
<!-- j2151457457 -->
<g id="node62" class="node">
<title>j2151457457</title>
<polygon fill="none" stroke="blue" points="1944,-108 1297,-108 1297,-72 1944,-72 1944,-108"/>
<text text-anchor="middle" x="1620.5" y="-86.3" font-family="Times New Roman,serif" font-size="14.00">是的。我想，在除夕夜，我们六个人都应该在这里。当然还有你。门外带来好运的陌生人。</text>
</g>
<!-- j619358826&#45;&gt;j2151457457 -->
<g id="edge71" class="edge">
<title>j619358826&#45;&gt;j2151457457</title>
<path fill="none" stroke="black" d="M1543.69,-144.76C1556.35,-135.9 1572.26,-124.77 1586.32,-114.93"/>
<polygon fill="black" stroke="black" points="1588.26,-117.84 1594.44,-109.24 1584.25,-112.11 1588.26,-117.84"/>
</g>
<!-- j2151457457&#45;&gt;Chat ends. -->
<g id="edge72" class="edge">
<title>j2151457457&#45;&gt;Chat ends.</title>
<path fill="none" stroke="black" d="M1620.5,-71.7C1620.5,-64.41 1620.5,-55.73 1620.5,-47.54"/>
<polygon fill="black" stroke="black" points="1624,-47.62 1620.5,-37.62 1617,-47.62 1624,-47.62"/>
</g>
</g>
</svg>
