<?xml version="1.0" encoding="UTF-8" standalone="no"?>
<!DOCTYPE svg PUBLIC "-//W3C//DTD SVG 1.1//EN"
 "http://www.w3.org/Graphics/SVG/1.1/DTD/svg11.dtd">
<!-- Generated by graphviz version 7.1.0 (20230121.1956)
 -->
<!-- Pages: 1 -->
<svg width="1528pt" height="332pt"
 viewBox="0.00 0.00 1527.50 332.00" xmlns="http://www.w3.org/2000/svg" xmlns:xlink="http://www.w3.org/1999/xlink">
<g id="graph0" class="graph" transform="scale(1 1) rotate(0) translate(4 328)">
<polygon fill="white" stroke="none" points="-4,4 -4,-328 1523.5,-328 1523.5,4 -4,4"/>
<!-- AmirBirthdayConvo3 begins. -->
<g id="node1" class="node">
<title>AmirBirthdayConvo3 begins.</title>
<ellipse fill="none" stroke="orange" cx="945" cy="-306" rx="116.98" ry="18"/>
<text text-anchor="middle" x="945" y="-302.3" font-family="Times New Roman,serif" font-size="14.00">AmirBirthdayConvo3 begins.</text>
</g>
<!-- j2890464050 -->
<g id="node2" class="node">
<title>j2890464050</title>
<polygon fill="none" stroke="red" points="880.5,-252 583.5,-252 583.5,-216 880.5,-216 880.5,-252"/>
<text text-anchor="middle" x="732" y="-230.3" font-family="Times New Roman,serif" font-size="14.00">Salut, Amir. Joyeux anniversaire. Bip&#45;bip ou autre.</text>
</g>
<!-- AmirBirthdayConvo3 begins.&#45;&gt;j2890464050 -->
<g id="edge1" class="edge">
<title>AmirBirthdayConvo3 begins.&#45;&gt;j2890464050</title>
<path fill="none" stroke="black" d="M896.93,-289.2C867.06,-279.39 828.3,-266.65 795.86,-255.99"/>
<polygon fill="black" stroke="black" points="797.16,-252.73 786.56,-252.93 794.97,-259.38 797.16,-252.73"/>
</g>
<!-- j3454230899 -->
<g id="node3" class="node">
<title>j3454230899</title>
<polygon fill="none" stroke="red" points="1460,-252 942,-252 942,-216 1460,-216 1460,-252"/>
<text text-anchor="middle" x="1201" y="-230.3" font-family="Times New Roman,serif" font-size="14.00">COUCOU AMIR FÉLICITATIONS POUR L&#39;ANNIVERSAIRE DE TON EXISTENCE</text>
</g>
<!-- AmirBirthdayConvo3 begins.&#45;&gt;j3454230899 -->
<g id="edge2" class="edge">
<title>AmirBirthdayConvo3 begins.&#45;&gt;j3454230899</title>
<path fill="none" stroke="black" d="M1000.55,-289.81C1037.38,-279.74 1086.14,-266.41 1126.35,-255.41"/>
<polygon fill="black" stroke="black" points="1127.26,-258.79 1135.99,-252.78 1125.42,-252.04 1127.26,-258.79"/>
</g>
<!-- j4025028705 -->
<g id="node4" class="node">
<title>j4025028705</title>
<polygon fill="none" stroke="blue" points="950,-108 0,-108 0,-72 950,-72 950,-108"/>
<text text-anchor="middle" x="475" y="-86.3" font-family="Times New Roman,serif" font-size="14.00">amir n&#39;est pas là en ce moment c&#39;est un programme de pare&#45;feu intelligent qu&#39;amir a conçu pour filtrer les souhaits d&#39;anniversaire non sincères et oh! regarde! il y en a un</text>
</g>
<!-- j2890464050&#45;&gt;j4025028705 -->
<g id="edge3" class="edge">
<title>j2890464050&#45;&gt;j4025028705</title>
<path fill="none" stroke="black" d="M700.49,-215.59C654.12,-189.97 567.47,-142.09 516.14,-113.73"/>
<polygon fill="black" stroke="black" points="518.14,-110.84 507.69,-109.06 514.75,-116.96 518.14,-110.84"/>
</g>
<!-- j3516516256 -->
<g id="node5" class="node">
<title>j3516516256</title>
<ellipse fill="none" stroke="orange" cx="1222" cy="-162" rx="64.19" ry="18"/>
<text text-anchor="middle" x="1222" y="-158.3" font-family="Times New Roman,serif" font-size="14.00">+20 Chemistry</text>
</g>
<!-- j3454230899&#45;&gt;j3516516256 -->
<g id="edge4" class="edge">
<title>j3454230899&#45;&gt;j3516516256</title>
<path fill="none" stroke="black" d="M1206.19,-215.7C1208.43,-208.24 1211.1,-199.32 1213.61,-190.97"/>
<polygon fill="black" stroke="black" points="1216.91,-192.14 1216.43,-181.55 1210.21,-190.13 1216.91,-192.14"/>
</g>
<!-- Chat ends. -->
<g id="node6" class="node">
<title>Chat ends.</title>
<ellipse fill="none" stroke="orange" cx="859" cy="-18" rx="50.09" ry="18"/>
<text text-anchor="middle" x="859" y="-14.3" font-family="Times New Roman,serif" font-size="14.00">Chat ends.</text>
</g>
<!-- j4025028705&#45;&gt;Chat ends. -->
<g id="edge5" class="edge">
<title>j4025028705&#45;&gt;Chat ends.</title>
<path fill="none" stroke="black" d="M570.91,-71.52C644.37,-58.13 743.12,-40.12 803.84,-29.06"/>
<polygon fill="black" stroke="black" points="804.39,-32.51 813.6,-27.28 803.14,-25.63 804.39,-32.51"/>
</g>
<!-- j3077576846 -->
<g id="node7" class="node">
<title>j3077576846</title>
<polygon fill="none" stroke="blue" points="1519.5,-108 968.5,-108 968.5,-72 1519.5,-72 1519.5,-108"/>
<text text-anchor="middle" x="1244" y="-86.3" font-family="Times New Roman,serif" font-size="14.00">DÉCLARATION CULTURELLEMENT APPROPRIÉE DE PROFOND REMERCIEMENTS</text>
</g>
<!-- j3516516256&#45;&gt;j3077576846 -->
<g id="edge6" class="edge">
<title>j3516516256&#45;&gt;j3077576846</title>
<path fill="none" stroke="black" d="M1227.44,-143.7C1229.78,-136.24 1232.58,-127.32 1235.21,-118.97"/>
<polygon fill="black" stroke="black" points="1238.51,-120.14 1238.17,-109.55 1231.83,-118.04 1238.51,-120.14"/>
</g>
<!-- j3077576846&#45;&gt;Chat ends. -->
<g id="edge7" class="edge">
<title>j3077576846&#45;&gt;Chat ends.</title>
<path fill="none" stroke="black" d="M1147.84,-71.52C1074.19,-58.13 975.19,-40.12 914.3,-29.06"/>
<polygon fill="black" stroke="black" points="914.98,-25.62 904.51,-27.28 913.73,-32.51 914.98,-25.62"/>
</g>
</g>
</svg>
