<?xml version="1.0" encoding="UTF-8" standalone="no"?>
<!DOCTYPE svg PUBLIC "-//W3C//DTD SVG 1.1//EN"
 "http://www.w3.org/Graphics/SVG/1.1/DTD/svg11.dtd">
<!-- Generated by graphviz version 7.1.0 (20230121.1956)
 -->
<!-- Pages: 1 -->
<svg width="1292pt" height="1660pt"
 viewBox="0.00 0.00 1292.00 1660.00" xmlns="http://www.w3.org/2000/svg" xmlns:xlink="http://www.w3.org/1999/xlink">
<g id="graph0" class="graph" transform="scale(1 1) rotate(0) translate(4 1656)">
<polygon fill="white" stroke="none" points="-4,4 -4,-1656 1288,-1656 1288,4 -4,4"/>
<!-- HexRankUpTo1 begins. -->
<g id="node1" class="node">
<title>HexRankUpTo1 begins.</title>
<ellipse fill="none" stroke="orange" cx="621" cy="-1634" rx="98.58" ry="18"/>
<text text-anchor="middle" x="621" y="-1630.3" font-family="Times New Roman,serif" font-size="14.00">HexRankUpTo1 begins.</text>
</g>
<!-- j732372734 -->
<g id="node2" class="node">
<title>j732372734</title>
<polygon fill="none" stroke="blue" points="1060,-1580 182,-1580 182,-1544 1060,-1544 1060,-1580"/>
<text text-anchor="middle" x="621" y="-1558.3" font-family="Times New Roman,serif" font-size="14.00">Broadsword: Utknęliśmy tutaj, rozumiecie to? Więc posprzątajcie po sobie — Strefa restauracyjna jest bardziej uwalona niż ulice. To nie jest cholerne zoo.</text>
</g>
<!-- HexRankUpTo1 begins.&#45;&gt;j732372734 -->
<g id="edge1" class="edge">
<title>HexRankUpTo1 begins.&#45;&gt;j732372734</title>
<path fill="none" stroke="black" d="M621,-1615.7C621,-1608.41 621,-1599.73 621,-1591.54"/>
<polygon fill="black" stroke="black" points="624.5,-1591.62 621,-1581.62 617.5,-1591.62 624.5,-1591.62"/>
</g>
<!-- j2909323500 -->
<g id="node3" class="node">
<title>j2909323500</title>
<polygon fill="none" stroke="blue" points="760,-1508 482,-1508 482,-1472 760,-1472 760,-1508"/>
<text text-anchor="middle" x="621" y="-1486.3" font-family="Times New Roman,serif" font-size="14.00">Salem: Lettie może dopilnować, żeby tak było&#45;</text>
</g>
<!-- j732372734&#45;&gt;j2909323500 -->
<g id="edge2" class="edge">
<title>j732372734&#45;&gt;j2909323500</title>
<path fill="none" stroke="black" d="M621,-1543.7C621,-1536.41 621,-1527.73 621,-1519.54"/>
<polygon fill="black" stroke="black" points="624.5,-1519.62 621,-1509.62 617.5,-1519.62 624.5,-1519.62"/>
</g>
<!-- j3946443520 -->
<g id="node4" class="node">
<title>j3946443520</title>
<polygon fill="none" stroke="blue" points="695.5,-1436 546.5,-1436 546.5,-1400 695.5,-1400 695.5,-1436"/>
<text text-anchor="middle" x="621" y="-1414.3" font-family="Times New Roman,serif" font-size="14.00">Belladonna ~{@: Dość.</text>
</g>
<!-- j2909323500&#45;&gt;j3946443520 -->
<g id="edge3" class="edge">
<title>j2909323500&#45;&gt;j3946443520</title>
<path fill="none" stroke="black" d="M621,-1471.7C621,-1464.41 621,-1455.73 621,-1447.54"/>
<polygon fill="black" stroke="black" points="624.5,-1447.62 621,-1437.62 617.5,-1447.62 624.5,-1447.62"/>
</g>
<!-- j1684030644 -->
<g id="node5" class="node">
<title>j1684030644</title>
<polygon fill="none" stroke="blue" points="721.5,-1364 520.5,-1364 520.5,-1328 721.5,-1328 721.5,-1364"/>
<text text-anchor="middle" x="621" y="-1342.3" font-family="Times New Roman,serif" font-size="14.00">Soldja1Shot1kil: ha, ale się dałeś.</text>
</g>
<!-- j3946443520&#45;&gt;j1684030644 -->
<g id="edge4" class="edge">
<title>j3946443520&#45;&gt;j1684030644</title>
<path fill="none" stroke="black" d="M621,-1399.7C621,-1392.41 621,-1383.73 621,-1375.54"/>
<polygon fill="black" stroke="black" points="624.5,-1375.62 621,-1365.62 617.5,-1375.62 624.5,-1375.62"/>
</g>
<!-- j1494758662 -->
<g id="node6" class="node">
<title>j1494758662</title>
<polygon fill="none" stroke="blue" points="915,-1292 327,-1292 327,-1256 915,-1256 915,-1292"/>
<text text-anchor="middle" x="621" y="-1270.3" font-family="Times New Roman,serif" font-size="14.00">H16h V0l7463: jeju, w końcu korzystacie z mojego grupowego czatu?! TO TAKIE EKSCYTUJĄCE!!</text>
</g>
<!-- j1684030644&#45;&gt;j1494758662 -->
<g id="edge5" class="edge">
<title>j1684030644&#45;&gt;j1494758662</title>
<path fill="none" stroke="black" d="M621,-1327.7C621,-1320.41 621,-1311.73 621,-1303.54"/>
<polygon fill="black" stroke="black" points="624.5,-1303.62 621,-1293.62 617.5,-1303.62 624.5,-1303.62"/>
</g>
<!-- j2067190615 -->
<g id="node7" class="node">
<title>j2067190615</title>
<polygon fill="none" stroke="blue" points="759,-1220 483,-1220 483,-1184 759,-1184 759,-1220"/>
<text text-anchor="middle" x="621" y="-1198.3" font-family="Times New Roman,serif" font-size="14.00">xX GLIMMER Xx: :) &lt;3 Mówiłam ci, Amirze!</text>
</g>
<!-- j1494758662&#45;&gt;j2067190615 -->
<g id="edge6" class="edge">
<title>j1494758662&#45;&gt;j2067190615</title>
<path fill="none" stroke="black" d="M621,-1255.7C621,-1248.41 621,-1239.73 621,-1231.54"/>
<polygon fill="black" stroke="black" points="624.5,-1231.62 621,-1221.62 617.5,-1231.62 624.5,-1231.62"/>
</g>
<!-- j4057151854 -->
<g id="node8" class="node">
<title>j4057151854</title>
<polygon fill="none" stroke="red" points="386,-1148 0,-1148 0,-1112 386,-1112 386,-1148"/>
<text text-anchor="middle" x="193" y="-1126.3" font-family="Times New Roman,serif" font-size="14.00">Mam coś, co pomoże wam w sprzątaniu &#45; oto Robot Doomestos.</text>
</g>
<!-- j2067190615&#45;&gt;j4057151854 -->
<g id="edge7" class="edge">
<title>j2067190615&#45;&gt;j4057151854</title>
<path fill="none" stroke="black" d="M514.1,-1183.52C452.32,-1173.41 374.49,-1160.68 310.94,-1150.29"/>
<polygon fill="black" stroke="black" points="311.58,-1146.85 301.14,-1148.69 310.45,-1153.75 311.58,-1146.85"/>
</g>
<!-- j949715737 -->
<g id="node9" class="node">
<title>j949715737</title>
<polygon fill="none" stroke="red" points="837.5,-1148 404.5,-1148 404.5,-1112 837.5,-1112 837.5,-1148"/>
<text text-anchor="middle" x="621" y="-1126.3" font-family="Times New Roman,serif" font-size="14.00">Mam coś, co pomoże wam w sprzątaniu &#45; oto Robot Doomestos: Badboi.</text>
</g>
<!-- j2067190615&#45;&gt;j949715737 -->
<g id="edge8" class="edge">
<title>j2067190615&#45;&gt;j949715737</title>
<path fill="none" stroke="black" d="M621,-1183.7C621,-1176.41 621,-1167.73 621,-1159.54"/>
<polygon fill="black" stroke="black" points="624.5,-1159.62 621,-1149.62 617.5,-1159.62 624.5,-1159.62"/>
</g>
<!-- j3586181891 -->
<g id="node10" class="node">
<title>j3586181891</title>
<polygon fill="none" stroke="red" points="1284,-1148 856,-1148 856,-1112 1284,-1112 1284,-1148"/>
<text text-anchor="middle" x="1070" y="-1126.3" font-family="Times New Roman,serif" font-size="14.00">Mam coś, co pomoże wam w sprzątaniu &#45; oto Robot Doomestos: Zoney.</text>
</g>
<!-- j2067190615&#45;&gt;j3586181891 -->
<g id="edge9" class="edge">
<title>j2067190615&#45;&gt;j3586181891</title>
<path fill="none" stroke="black" d="M733.14,-1183.52C798.22,-1173.37 880.28,-1160.58 947.11,-1150.16"/>
<polygon fill="black" stroke="black" points="947.28,-1153.67 956.62,-1148.68 946.2,-1146.76 947.28,-1153.67"/>
</g>
<!-- j3389970109 -->
<g id="node11" class="node">
<title>j3389970109</title>
<ellipse fill="none" stroke="orange" cx="267" cy="-1058" rx="131.08" ry="18"/>
<text text-anchor="middle" x="267" y="-1054.3" font-family="Times New Roman,serif" font-size="14.00">Boolean HexDroneA is now true.</text>
</g>
<!-- j4057151854&#45;&gt;j3389970109 -->
<g id="edge10" class="edge">
<title>j4057151854&#45;&gt;j3389970109</title>
<path fill="none" stroke="black" d="M211.29,-1111.7C220.16,-1103.3 230.98,-1093.07 240.72,-1083.86"/>
<polygon fill="black" stroke="black" points="242.96,-1086.56 247.82,-1077.14 238.15,-1081.47 242.96,-1086.56"/>
</g>
<!-- j176142841 -->
<g id="node12" class="node">
<title>j176142841</title>
<ellipse fill="none" stroke="orange" cx="621" cy="-1058" rx="130.78" ry="18"/>
<text text-anchor="middle" x="621" y="-1054.3" font-family="Times New Roman,serif" font-size="14.00">Boolean HexDroneB is now true.</text>
</g>
<!-- j949715737&#45;&gt;j176142841 -->
<g id="edge11" class="edge">
<title>j949715737&#45;&gt;j176142841</title>
<path fill="none" stroke="black" d="M621,-1111.7C621,-1104.41 621,-1095.73 621,-1087.54"/>
<polygon fill="black" stroke="black" points="624.5,-1087.62 621,-1077.62 617.5,-1087.62 624.5,-1087.62"/>
</g>
<!-- j2187423894 -->
<g id="node13" class="node">
<title>j2187423894</title>
<ellipse fill="none" stroke="orange" cx="985" cy="-1058" rx="131.08" ry="18"/>
<text text-anchor="middle" x="985" y="-1054.3" font-family="Times New Roman,serif" font-size="14.00">Boolean HexDroneC is now true.</text>
</g>
<!-- j3586181891&#45;&gt;j2187423894 -->
<g id="edge12" class="edge">
<title>j3586181891&#45;&gt;j2187423894</title>
<path fill="none" stroke="black" d="M1048.99,-1111.7C1038.59,-1103.14 1025.87,-1092.66 1014.51,-1083.3"/>
<polygon fill="black" stroke="black" points="1016.88,-1080.72 1006.94,-1077.07 1012.43,-1086.13 1016.88,-1080.72"/>
</g>
<!-- j3871034250 -->
<g id="node14" class="node">
<title>j3871034250</title>
<polygon fill="none" stroke="blue" points="911.5,-1004 330.5,-1004 330.5,-968 911.5,-968 911.5,-1004"/>
<text text-anchor="middle" x="621" y="-982.3" font-family="Times New Roman,serif" font-size="14.00">H16h V0l7463: co masz na myśli mówiąc, że masz CHOLERNEGO ROBOTA SPRZĄTAJĄCEGO</text>
</g>
<!-- j3389970109&#45;&gt;j3871034250 -->
<g id="edge13" class="edge">
<title>j3389970109&#45;&gt;j3871034250</title>
<path fill="none" stroke="black" d="M339.49,-1042.67C392.04,-1032.28 463.72,-1018.1 521.6,-1006.65"/>
<polygon fill="black" stroke="black" points="522,-1010.14 531.13,-1004.77 520.64,-1003.28 522,-1010.14"/>
</g>
<!-- j176142841&#45;&gt;j3871034250 -->
<g id="edge14" class="edge">
<title>j176142841&#45;&gt;j3871034250</title>
<path fill="none" stroke="black" d="M621,-1039.7C621,-1032.41 621,-1023.73 621,-1015.54"/>
<polygon fill="black" stroke="black" points="624.5,-1015.62 621,-1005.62 617.5,-1015.62 624.5,-1015.62"/>
</g>
<!-- j2187423894&#45;&gt;j3871034250 -->
<g id="edge15" class="edge">
<title>j2187423894&#45;&gt;j3871034250</title>
<path fill="none" stroke="black" d="M910.9,-1042.75C856.69,-1032.33 782.5,-1018.06 722.75,-1006.57"/>
<polygon fill="black" stroke="black" points="723.73,-1003.19 713.25,-1004.74 722.41,-1010.07 723.73,-1003.19"/>
</g>
<!-- j3608510308 -->
<g id="node15" class="node">
<title>j3608510308</title>
<polygon fill="none" stroke="blue" points="849,-932 393,-932 393,-896 849,-896 849,-932"/>
<text text-anchor="middle" x="621" y="-910.3" font-family="Times New Roman,serif" font-size="14.00">Broadsword: W porządku. Ale Aoi przerobi go na złom, jeśli nie da mi zasnąć.</text>
</g>
<!-- j3871034250&#45;&gt;j3608510308 -->
<g id="edge16" class="edge">
<title>j3871034250&#45;&gt;j3608510308</title>
<path fill="none" stroke="black" d="M621,-967.7C621,-960.41 621,-951.73 621,-943.54"/>
<polygon fill="black" stroke="black" points="624.5,-943.62 621,-933.62 617.5,-943.62 624.5,-943.62"/>
</g>
<!-- j3842360371 -->
<g id="node16" class="node">
<title>j3842360371</title>
<polygon fill="none" stroke="blue" points="790,-860 452,-860 452,-824 790,-824 790,-860"/>
<text text-anchor="middle" x="621" y="-838.3" font-family="Times New Roman,serif" font-size="14.00">Soldja1Shot1kil: nie, najpierw ruchomy cel dla mnie, stary</text>
</g>
<!-- j3608510308&#45;&gt;j3842360371 -->
<g id="edge17" class="edge">
<title>j3608510308&#45;&gt;j3842360371</title>
<path fill="none" stroke="black" d="M621,-895.7C621,-888.41 621,-879.73 621,-871.54"/>
<polygon fill="black" stroke="black" points="624.5,-871.62 621,-861.62 617.5,-871.62 624.5,-871.62"/>
</g>
<!-- j3188321962 -->
<g id="node17" class="node">
<title>j3188321962</title>
<polygon fill="none" stroke="blue" points="848.5,-788 393.5,-788 393.5,-720 848.5,-720 848.5,-788"/>
<text text-anchor="middle" x="621" y="-772.8" font-family="Times New Roman,serif" font-size="14.00">Belladonna ~{@: Artur powiedział to co myślałam&#13;</text>
<text text-anchor="middle" x="621" y="-757.8" font-family="Times New Roman,serif" font-size="14.00">Sprzątajcie po sobie&#13;</text>
<text text-anchor="middle" x="621" y="-742.8" font-family="Times New Roman,serif" font-size="14.00">Może nadejść czas kiedy restauracja będzie musiała pełnić rolę sali operacyjnej&#13;</text>
<text text-anchor="middle" x="621" y="-727.8" font-family="Times New Roman,serif" font-size="14.00">¿Entendieron?</text>
</g>
<!-- j3842360371&#45;&gt;j3188321962 -->
<g id="edge18" class="edge">
<title>j3842360371&#45;&gt;j3188321962</title>
<path fill="none" stroke="black" d="M621,-823.6C621,-816.65 621,-808.29 621,-799.84"/>
<polygon fill="black" stroke="black" points="624.5,-799.9 621,-789.9 617.5,-799.9 624.5,-799.9"/>
</g>
<!-- j3465189393 -->
<g id="node18" class="node">
<title>j3465189393</title>
<polygon fill="none" stroke="blue" points="841,-684 401,-684 401,-648 841,-648 841,-684"/>
<text text-anchor="middle" x="621" y="-662.3" font-family="Times New Roman,serif" font-size="14.00">Salem: Och, Lettie, odrobina optymizmu. Mamy nowego gracza na planszy.</text>
</g>
<!-- j3188321962&#45;&gt;j3465189393 -->
<g id="edge19" class="edge">
<title>j3188321962&#45;&gt;j3465189393</title>
<path fill="none" stroke="black" d="M621,-719.5C621,-711.58 621,-703.2 621,-695.52"/>
<polygon fill="black" stroke="black" points="624.5,-695.71 621,-685.71 617.5,-695.71 624.5,-695.71"/>
</g>
<!-- j194467365 -->
<g id="node19" class="node">
<title>j194467365</title>
<polygon fill="none" stroke="blue" points="1035.5,-612 206.5,-612 206.5,-576 1035.5,-576 1035.5,-612"/>
<text text-anchor="middle" x="621" y="-590.3" font-family="Times New Roman,serif" font-size="14.00">xX GLIMMER Xx: no!? optymizm! dokładnie tak! więc włóczęgo, masz świeże spojrzenie. co myślisz o restauracji? &lt;RETRO_EMOJI_FOOD&gt;</text>
</g>
<!-- j3465189393&#45;&gt;j194467365 -->
<g id="edge20" class="edge">
<title>j3465189393&#45;&gt;j194467365</title>
<path fill="none" stroke="black" d="M621,-647.7C621,-640.41 621,-631.73 621,-623.54"/>
<polygon fill="black" stroke="black" points="624.5,-623.62 621,-613.62 617.5,-623.62 624.5,-623.62"/>
</g>
<!-- j2721168643 -->
<g id="node20" class="node">
<title>j2721168643</title>
<polygon fill="none" stroke="red" points="607.5,-540 266.5,-540 266.5,-504 607.5,-504 607.5,-540"/>
<text text-anchor="middle" x="437" y="-518.3" font-family="Times New Roman,serif" font-size="14.00">Wygląda jakby było tam dość miejsca dla nas wszystkich.</text>
</g>
<!-- j194467365&#45;&gt;j2721168643 -->
<g id="edge21" class="edge">
<title>j194467365&#45;&gt;j2721168643</title>
<path fill="none" stroke="black" d="M575.04,-575.52C550.25,-566.08 519.45,-554.37 493.24,-544.39"/>
<polygon fill="black" stroke="black" points="494.69,-541.2 484.1,-540.92 492.21,-547.75 494.69,-541.2"/>
</g>
<!-- j3885219621 -->
<g id="node21" class="node">
<title>j3885219621</title>
<polygon fill="none" stroke="red" points="986,-540 626,-540 626,-504 986,-504 986,-540"/>
<text text-anchor="middle" x="806" y="-518.3" font-family="Times New Roman,serif" font-size="14.00">To mi coś przypomina, miejsce do jedzenia i zabawy, prawie.</text>
</g>
<!-- j194467365&#45;&gt;j3885219621 -->
<g id="edge22" class="edge">
<title>j194467365&#45;&gt;j3885219621</title>
<path fill="none" stroke="black" d="M667.21,-575.52C692.13,-566.08 723.1,-554.37 749.46,-544.39"/>
<polygon fill="black" stroke="black" points="750.53,-547.73 758.65,-540.92 748.06,-541.18 750.53,-547.73"/>
</g>
<!-- j3092711686 -->
<g id="node22" class="node">
<title>j3092711686</title>
<ellipse fill="none" stroke="orange" cx="448" cy="-450" rx="153.27" ry="18"/>
<text text-anchor="middle" x="448" y="-446.3" font-family="Times New Roman,serif" font-size="14.00">Boolean HexFoodCourtSit is now true.</text>
</g>
<!-- j2721168643&#45;&gt;j3092711686 -->
<g id="edge23" class="edge">
<title>j2721168643&#45;&gt;j3092711686</title>
<path fill="none" stroke="black" d="M439.72,-503.7C440.88,-496.32 442.26,-487.52 443.56,-479.25"/>
<polygon fill="black" stroke="black" points="446.98,-480.02 445.08,-469.6 440.07,-478.93 446.98,-480.02"/>
</g>
<!-- j783050946 -->
<g id="node23" class="node">
<title>j783050946</title>
<ellipse fill="none" stroke="orange" cx="800" cy="-450" rx="174.37" ry="18"/>
<text text-anchor="middle" x="800" y="-446.3" font-family="Times New Roman,serif" font-size="14.00">Boolean HexFoodCourtMemory is now true.</text>
</g>
<!-- j3885219621&#45;&gt;j783050946 -->
<g id="edge24" class="edge">
<title>j3885219621&#45;&gt;j783050946</title>
<path fill="none" stroke="black" d="M804.52,-503.7C803.89,-496.41 803.15,-487.73 802.45,-479.54"/>
<polygon fill="black" stroke="black" points="805.94,-479.28 801.6,-469.61 798.96,-479.87 805.94,-479.28"/>
</g>
<!-- j4291201496 -->
<g id="node24" class="node">
<title>j4291201496</title>
<polygon fill="none" stroke="blue" points="967,-396 275,-396 275,-360 967,-360 967,-396"/>
<text text-anchor="middle" x="621" y="-374.3" font-family="Times New Roman,serif" font-size="14.00">H16h V0l7463: noooo okej, ale jeśli zobaczysz tam Artura, lepiej trzymaj się z daleka. ostrzegam: lubiswójczasdlasiebie…</text>
</g>
<!-- j3092711686&#45;&gt;j4291201496 -->
<g id="edge25" class="edge">
<title>j3092711686&#45;&gt;j4291201496</title>
<path fill="none" stroke="black" d="M489.44,-432.23C512.79,-422.78 542.22,-410.87 567.33,-400.72"/>
<polygon fill="black" stroke="black" points="568.43,-404.05 576.39,-397.05 565.8,-397.56 568.43,-404.05"/>
</g>
<!-- j783050946&#45;&gt;j4291201496 -->
<g id="edge26" class="edge">
<title>j783050946&#45;&gt;j4291201496</title>
<path fill="none" stroke="black" d="M757.13,-432.23C732.85,-422.74 702.24,-410.77 676.19,-400.58"/>
<polygon fill="black" stroke="black" points="677.71,-397.42 667.12,-397.03 675.16,-403.94 677.71,-397.42"/>
</g>
<!-- j1027533123 -->
<g id="node25" class="node">
<title>j1027533123</title>
<polygon fill="none" stroke="blue" points="683.5,-324 558.5,-324 558.5,-288 683.5,-288 683.5,-324"/>
<text text-anchor="middle" x="621" y="-302.3" font-family="Times New Roman,serif" font-size="14.00">Broadsword: Amir.</text>
</g>
<!-- j4291201496&#45;&gt;j1027533123 -->
<g id="edge27" class="edge">
<title>j4291201496&#45;&gt;j1027533123</title>
<path fill="none" stroke="black" d="M621,-359.7C621,-352.41 621,-343.73 621,-335.54"/>
<polygon fill="black" stroke="black" points="624.5,-335.62 621,-325.62 617.5,-335.62 624.5,-335.62"/>
</g>
<!-- j3811918703 -->
<g id="node26" class="node">
<title>j3811918703</title>
<polygon fill="none" stroke="blue" points="822.5,-252 419.5,-252 419.5,-216 822.5,-216 822.5,-252"/>
<text text-anchor="middle" x="621" y="-230.3" font-family="Times New Roman,serif" font-size="14.00">xX GLIMMER Xx: ^_^ to fajne miejsce, cały ten budynek. jest nasz. </text>
</g>
<!-- j1027533123&#45;&gt;j3811918703 -->
<g id="edge28" class="edge">
<title>j1027533123&#45;&gt;j3811918703</title>
<path fill="none" stroke="black" d="M621,-287.7C621,-280.41 621,-271.73 621,-263.54"/>
<polygon fill="black" stroke="black" points="624.5,-263.62 621,-253.62 617.5,-263.62 624.5,-263.62"/>
</g>
<!-- j4248637539 -->
<g id="node27" class="node">
<title>j4248637539</title>
<polygon fill="none" stroke="blue" points="718,-180 524,-180 524,-144 718,-144 718,-180"/>
<text text-anchor="middle" x="621" y="-158.3" font-family="Times New Roman,serif" font-size="14.00">Soldja1Shot1kil: nie. z. wyboru.</text>
</g>
<!-- j3811918703&#45;&gt;j4248637539 -->
<g id="edge29" class="edge">
<title>j3811918703&#45;&gt;j4248637539</title>
<path fill="none" stroke="black" d="M621,-215.7C621,-208.41 621,-199.73 621,-191.54"/>
<polygon fill="black" stroke="black" points="624.5,-191.62 621,-181.62 617.5,-191.62 624.5,-191.62"/>
</g>
<!-- j2375408662 -->
<g id="node28" class="node">
<title>j2375408662</title>
<ellipse fill="none" stroke="orange" cx="621" cy="-90" rx="198.47" ry="18"/>
<text text-anchor="middle" x="621" y="-86.3" font-family="Times New Roman,serif" font-size="14.00">Invoke /Lotus/Scripts/1999/HexSyndicateDialog.lua</text>
</g>
<!-- j4248637539&#45;&gt;j2375408662 -->
<g id="edge30" class="edge">
<title>j4248637539&#45;&gt;j2375408662</title>
<path fill="none" stroke="black" d="M621,-143.7C621,-136.41 621,-127.73 621,-119.54"/>
<polygon fill="black" stroke="black" points="624.5,-119.62 621,-109.62 617.5,-119.62 624.5,-119.62"/>
</g>
<!-- Chat ends. -->
<g id="node29" class="node">
<title>Chat ends.</title>
<ellipse fill="none" stroke="orange" cx="621" cy="-18" rx="50.09" ry="18"/>
<text text-anchor="middle" x="621" y="-14.3" font-family="Times New Roman,serif" font-size="14.00">Chat ends.</text>
</g>
<!-- j2375408662&#45;&gt;Chat ends. -->
<g id="edge31" class="edge">
<title>j2375408662&#45;&gt;Chat ends.</title>
<path fill="none" stroke="black" d="M621,-71.7C621,-64.41 621,-55.73 621,-47.54"/>
<polygon fill="black" stroke="black" points="624.5,-47.62 621,-37.62 617.5,-47.62 624.5,-47.62"/>
</g>
</g>
</svg>
