<?xml version="1.0" encoding="UTF-8" standalone="no"?>
<!DOCTYPE svg PUBLIC "-//W3C//DTD SVG 1.1//EN"
 "http://www.w3.org/Graphics/SVG/1.1/DTD/svg11.dtd">
<!-- Generated by graphviz version 7.1.0 (20230121.1956)
 -->
<!-- Pages: 1 -->
<svg width="1629pt" height="1519pt"
 viewBox="0.00 0.00 1629.09 1519.00" xmlns="http://www.w3.org/2000/svg" xmlns:xlink="http://www.w3.org/1999/xlink">
<g id="graph0" class="graph" transform="scale(1 1) rotate(0) translate(4 1515)">
<polygon fill="white" stroke="none" points="-4,4 -4,-1515 1625.09,-1515 1625.09,4 -4,4"/>
<!-- AoiQuincyWingman begins. -->
<g id="node1" class="node">
<title>AoiQuincyWingman begins.</title>
<ellipse fill="none" stroke="orange" cx="113.09" cy="-1493" rx="113.18" ry="18"/>
<text text-anchor="middle" x="113.09" y="-1489.3" font-family="Times New Roman,serif" font-size="14.00">AoiQuincyWingman begins.</text>
</g>
<!-- j4275867195 -->
<g id="node2" class="node">
<title>j4275867195</title>
<ellipse fill="none" stroke="orange" cx="113.09" cy="-1420" rx="98.28" ry="18"/>
<text text-anchor="middle" x="113.09" y="-1416.3" font-family="Times New Roman,serif" font-size="14.00">Check boolean IsDating</text>
</g>
<!-- AoiQuincyWingman begins.&#45;&gt;j4275867195 -->
<g id="edge1" class="edge">
<title>AoiQuincyWingman begins.&#45;&gt;j4275867195</title>
<path fill="none" stroke="black" d="M113.09,-1474.81C113.09,-1467.23 113.09,-1458.1 113.09,-1449.54"/>
<polygon fill="black" stroke="black" points="116.59,-1449.54 113.09,-1439.54 109.59,-1449.54 116.59,-1449.54"/>
</g>
<!-- Chat ends. -->
<g id="node3" class="node">
<title>Chat ends.</title>
<ellipse fill="none" stroke="orange" cx="640.09" cy="-18" rx="50.09" ry="18"/>
<text text-anchor="middle" x="640.09" y="-14.3" font-family="Times New Roman,serif" font-size="14.00">Chat ends.</text>
</g>
<!-- j4275867195&#45;&gt;Chat ends. -->
<g id="edge2" class="edge">
<title>j4275867195&#45;&gt;Chat ends.</title>
<path fill="none" stroke="green" d="M107.85,-1401.6C103.18,-1384.54 97.09,-1357.73 97.09,-1334 97.09,-1334 97.09,-1334 97.09,-90 97.09,-41.87 436.9,-25.46 578.89,-20.7"/>
<polygon fill="green" stroke="green" points="578.59,-24.21 588.47,-20.39 578.36,-17.21 578.59,-24.21"/>
<text text-anchor="middle" x="108.09" y="-676.8" font-family="Times New Roman,serif" font-size="14.00">true</text>
</g>
<!-- j1461753520 -->
<g id="node4" class="node">
<title>j1461753520</title>
<polygon fill="none" stroke="blue" points="768.09,-1351 380.09,-1351 380.09,-1315 768.09,-1315 768.09,-1351"/>
<text text-anchor="middle" x="574.09" y="-1329.3" font-family="Times New Roman,serif" font-size="14.00">quincy a dit que tu voulais me parler? &lt;RETRO_EMOJI_OHNO&gt;</text>
</g>
<!-- j4275867195&#45;&gt;j1461753520 -->
<g id="edge3" class="edge">
<title>j4275867195&#45;&gt;j1461753520</title>
<path fill="none" stroke="brown" d="M180.62,-1406.55C256.28,-1392.6 379.93,-1369.8 468.42,-1353.48"/>
<polygon fill="brown" stroke="brown" points="468.89,-1356.96 478.09,-1351.7 467.62,-1350.07 468.89,-1356.96"/>
<text text-anchor="middle" x="384.09" y="-1372.8" font-family="Times New Roman,serif" font-size="14.00">false</text>
</g>
<!-- j1671287374 -->
<g id="node5" class="node">
<title>j1671287374</title>
<ellipse fill="none" stroke="orange" cx="836.09" cy="-1260" rx="108.58" ry="18"/>
<text text-anchor="middle" x="836.09" y="-1256.3" font-family="Times New Roman,serif" font-size="14.00">Check boolean AoiNoDate</text>
</g>
<!-- j1461753520&#45;&gt;j1671287374 -->
<g id="edge4" class="edge">
<title>j1461753520&#45;&gt;j1671287374</title>
<path fill="none" stroke="black" d="M638.52,-1314.54C678.54,-1303.69 729.86,-1289.79 770.16,-1278.87"/>
<polygon fill="black" stroke="black" points="771.02,-1282.26 779.76,-1276.27 769.19,-1275.5 771.02,-1282.26"/>
</g>
<!-- j1668049670 -->
<g id="node6" class="node">
<title>j1668049670</title>
<polygon fill="none" stroke="red" points="1471.59,-1191 950.59,-1191 950.59,-1155 1471.59,-1155 1471.59,-1191"/>
<text text-anchor="middle" x="1211.09" y="-1169.3" font-family="Times New Roman,serif" font-size="14.00">Je voulais juste te présenter mes excuses. Je sais que j&#39;ai vraiment foiré mon coup avec toi.</text>
</g>
<!-- j1671287374&#45;&gt;j1668049670 -->
<g id="edge5" class="edge">
<title>j1671287374&#45;&gt;j1668049670</title>
<path fill="none" stroke="green" d="M898.43,-1244.87C959.82,-1230.96 1054.14,-1209.58 1123.13,-1193.94"/>
<polygon fill="green" stroke="green" points="1123.52,-1197.44 1132.5,-1191.81 1121.97,-1190.61 1123.52,-1197.44"/>
<text text-anchor="middle" x="1056.09" y="-1212.8" font-family="Times New Roman,serif" font-size="14.00">true</text>
</g>
<!-- j3055069876 -->
<g id="node7" class="node">
<title>j3055069876</title>
<polygon fill="none" stroke="red" points="920.09,-1191 850.09,-1191 850.09,-1155 920.09,-1155 920.09,-1191"/>
<text text-anchor="middle" x="885.09" y="-1169.3" font-family="Times New Roman,serif" font-size="14.00">[Ignorer.]</text>
</g>
<!-- j1671287374&#45;&gt;j3055069876 -->
<g id="edge6" class="edge">
<title>j1671287374&#45;&gt;j3055069876</title>
<path fill="none" stroke="green" d="M850.7,-1241.79C854.98,-1236.3 859.49,-1230.07 863.09,-1224 867.25,-1216.99 871.1,-1209.04 874.38,-1201.59"/>
<polygon fill="green" stroke="green" points="877.52,-1203.14 878.15,-1192.57 871.06,-1200.44 877.52,-1203.14"/>
<text text-anchor="middle" x="881.09" y="-1212.8" font-family="Times New Roman,serif" font-size="14.00">true</text>
</g>
<!-- j1671287374&#45;&gt;j3055069876 -->
<g id="edge8" class="edge">
<title>j1671287374&#45;&gt;j3055069876</title>
<path fill="none" stroke="brown" d="M830.76,-1241.84C828.63,-1231.72 827.78,-1218.98 833.09,-1209 835.19,-1205.06 837.95,-1201.48 841.1,-1198.26"/>
<polygon fill="brown" stroke="brown" points="843.16,-1201.1 848.47,-1191.93 838.6,-1195.79 843.16,-1201.1"/>
<text text-anchor="middle" x="846.09" y="-1212.8" font-family="Times New Roman,serif" font-size="14.00">false</text>
</g>
<!-- j3228761465 -->
<g id="node8" class="node">
<title>j3228761465</title>
<polygon fill="none" stroke="red" points="832.09,-1191 356.09,-1191 356.09,-1155 832.09,-1155 832.09,-1191"/>
<text text-anchor="middle" x="594.09" y="-1169.3" font-family="Times New Roman,serif" font-size="14.00">Ouais. Je ne sais pas comment dire ça autrement, mais j&#39;ai des sentiments pour toi.</text>
</g>
<!-- j1671287374&#45;&gt;j3228761465 -->
<g id="edge7" class="edge">
<title>j1671287374&#45;&gt;j3228761465</title>
<path fill="none" stroke="brown" d="M791.14,-1243.21C752.66,-1229.7 696.93,-1210.12 654.55,-1195.24"/>
<polygon fill="brown" stroke="brown" points="655.83,-1191.97 645.23,-1191.96 653.51,-1198.58 655.83,-1191.97"/>
<text text-anchor="middle" x="742.09" y="-1212.8" font-family="Times New Roman,serif" font-size="14.00">false</text>
</g>
<!-- j2561917573 -->
<g id="node9" class="node">
<title>j2561917573</title>
<polygon fill="none" stroke="blue" points="1304.59,-1118 1143.59,-1118 1143.59,-1082 1304.59,-1082 1304.59,-1118"/>
<text text-anchor="middle" x="1224.09" y="-1096.3" font-family="Times New Roman,serif" font-size="14.00">oh. tu le penses vraiment?</text>
</g>
<!-- j1668049670&#45;&gt;j2561917573 -->
<g id="edge9" class="edge">
<title>j1668049670&#45;&gt;j2561917573</title>
<path fill="none" stroke="black" d="M1214.24,-1154.81C1215.64,-1147.14 1217.34,-1137.89 1218.92,-1129.24"/>
<polygon fill="black" stroke="black" points="1222.34,-1129.98 1220.7,-1119.52 1215.46,-1128.72 1222.34,-1129.98"/>
</g>
<!-- j3055069876&#45;&gt;Chat ends. -->
<g id="edge10" class="edge">
<title>j3055069876&#45;&gt;Chat ends.</title>
<path fill="none" stroke="black" d="M885.09,-1154.78C885.09,-1140.41 885.09,-1119.37 885.09,-1101 885.09,-1101 885.09,-1101 885.09,-90 885.09,-51.54 772.29,-32.58 699.76,-24.37"/>
<polygon fill="black" stroke="black" points="700.32,-20.91 690,-23.31 699.56,-27.87 700.32,-20.91"/>
</g>
<!-- j706442450 -->
<g id="node10" class="node">
<title>j706442450</title>
<ellipse fill="none" stroke="orange" cx="594.09" cy="-1100" rx="116.18" ry="18"/>
<text text-anchor="middle" x="594.09" y="-1096.3" font-family="Times New Roman,serif" font-size="14.00">Check boolean AoiHasDated</text>
</g>
<!-- j3228761465&#45;&gt;j706442450 -->
<g id="edge11" class="edge">
<title>j3228761465&#45;&gt;j706442450</title>
<path fill="none" stroke="black" d="M594.09,-1154.81C594.09,-1147.23 594.09,-1138.1 594.09,-1129.54"/>
<polygon fill="black" stroke="black" points="597.59,-1129.54 594.09,-1119.54 590.59,-1129.54 597.59,-1129.54"/>
</g>
<!-- j318573341 -->
<g id="node11" class="node">
<title>j318573341</title>
<polygon fill="none" stroke="red" points="1621.09,-1031 1451.09,-1031 1451.09,-995 1621.09,-995 1621.09,-1031"/>
<text text-anchor="middle" x="1536.09" y="-1009.3" font-family="Times New Roman,serif" font-size="14.00">Ça me manque de te parler.</text>
</g>
<!-- j2561917573&#45;&gt;j318573341 -->
<g id="edge12" class="edge">
<title>j2561917573&#45;&gt;j318573341</title>
<path fill="none" stroke="black" d="M1287.98,-1081.59C1338.16,-1067.92 1408.16,-1048.85 1461.01,-1034.45"/>
<polygon fill="black" stroke="black" points="1461.83,-1037.86 1470.56,-1031.85 1459.99,-1031.11 1461.83,-1037.86"/>
</g>
<!-- j1139977399 -->
<g id="node12" class="node">
<title>j1139977399</title>
<polygon fill="none" stroke="red" points="1405.59,-1031 1042.59,-1031 1042.59,-995 1405.59,-995 1405.59,-1031"/>
<text text-anchor="middle" x="1224.09" y="-1009.3" font-family="Times New Roman,serif" font-size="14.00">Je le pense vraiment. J&#39;en ai perdu le sommeil, honnêtement. :{</text>
</g>
<!-- j2561917573&#45;&gt;j1139977399 -->
<g id="edge13" class="edge">
<title>j2561917573&#45;&gt;j1139977399</title>
<path fill="none" stroke="black" d="M1224.09,-1081.8C1224.09,-1070.58 1224.09,-1055.67 1224.09,-1042.69"/>
<polygon fill="black" stroke="black" points="1227.59,-1042.98 1224.09,-1032.98 1220.59,-1042.98 1227.59,-1042.98"/>
</g>
<!-- j3726797350 -->
<g id="node13" class="node">
<title>j3726797350</title>
<polygon fill="none" stroke="blue" points="684.09,-977 112.09,-977 112.09,-941 684.09,-941 684.09,-977"/>
<text text-anchor="middle" x="398.09" y="-955.3" font-family="Times New Roman,serif" font-size="14.00">euh. je veux dire. tu as eu ta chance et ça ne s&#39;est pas très bien passé. &lt;RETRO_EMOJI_GLARE&gt;</text>
</g>
<!-- j706442450&#45;&gt;j3726797350 -->
<g id="edge14" class="edge">
<title>j706442450&#45;&gt;j3726797350</title>
<path fill="none" stroke="green" d="M561.78,-1082.28C537.9,-1069.4 505.01,-1050.55 478.09,-1031 459,-1017.14 439.15,-999.54 424,-985.34"/>
<polygon fill="green" stroke="green" points="426.42,-982.81 416.76,-978.46 421.6,-987.89 426.42,-982.81"/>
<text text-anchor="middle" x="539.09" y="-1052.8" font-family="Times New Roman,serif" font-size="14.00">true</text>
</g>
<!-- j781566502 -->
<g id="node14" class="node">
<title>j781566502</title>
<polygon fill="none" stroke="blue" points="857.09,-1031 487.09,-1031 487.09,-995 857.09,-995 857.09,-1031"/>
<text text-anchor="middle" x="672.09" y="-1009.3" font-family="Times New Roman,serif" font-size="14.00">vraiment??? &lt;RETRO_EMOJI_WUT&gt; pourquoi tu as rien dit?</text>
</g>
<!-- j706442450&#45;&gt;j781566502 -->
<g id="edge15" class="edge">
<title>j706442450&#45;&gt;j781566502</title>
<path fill="none" stroke="brown" d="M609.87,-1081.8C620.9,-1069.78 635.82,-1053.52 648.29,-1039.94"/>
<polygon fill="brown" stroke="brown" points="650.86,-1042.32 655.04,-1032.58 645.7,-1037.58 650.86,-1042.32"/>
<text text-anchor="middle" x="650.09" y="-1052.8" font-family="Times New Roman,serif" font-size="14.00">false</text>
</g>
<!-- j2726103648 -->
<g id="node15" class="node">
<title>j2726103648</title>
<polygon fill="none" stroke="blue" points="1596.59,-869 1515.59,-869 1515.59,-833 1596.59,-833 1596.59,-869"/>
<text text-anchor="middle" x="1556.09" y="-847.3" font-family="Times New Roman,serif" font-size="14.00">tu survivras</text>
</g>
<!-- j318573341&#45;&gt;j2726103648 -->
<g id="edge16" class="edge">
<title>j318573341&#45;&gt;j2726103648</title>
<path fill="none" stroke="black" d="M1538.27,-994.57C1541.69,-967.16 1548.38,-913.69 1552.52,-880.59"/>
<polygon fill="black" stroke="black" points="1555.96,-881.26 1553.73,-870.91 1549.01,-880.4 1555.96,-881.26"/>
</g>
<!-- j4183499026 -->
<g id="node16" class="node">
<title>j4183499026</title>
<polygon fill="none" stroke="blue" points="1357.09,-923 1091.09,-923 1091.09,-887 1357.09,-887 1357.09,-923"/>
<text text-anchor="middle" x="1224.09" y="-901.3" font-family="Times New Roman,serif" font-size="14.00">awwwww &lt;RETRO_EMOJI_TWOHUGS&gt;</text>
</g>
<!-- j1139977399&#45;&gt;j4183499026 -->
<g id="edge17" class="edge">
<title>j1139977399&#45;&gt;j4183499026</title>
<path fill="none" stroke="black" d="M1224.09,-994.97C1224.09,-978.76 1224.09,-954.06 1224.09,-934.79"/>
<polygon fill="black" stroke="black" points="1227.59,-934.85 1224.09,-924.85 1220.59,-934.85 1227.59,-934.85"/>
</g>
<!-- j2487162177 -->
<g id="node17" class="node">
<title>j2487162177</title>
<polygon fill="none" stroke="blue" points="671.59,-869 116.59,-869 116.59,-833 671.59,-833 671.59,-869"/>
<text text-anchor="middle" x="394.09" y="-847.3" font-family="Times New Roman,serif" font-size="14.00">mais... pour être honnête, tu m&#39;as vraiment manqué... et Quincy a dit que tu t&#39;excusais vraiment...</text>
</g>
<!-- j3726797350&#45;&gt;j2487162177 -->
<g id="edge18" class="edge">
<title>j3726797350&#45;&gt;j2487162177</title>
<path fill="none" stroke="black" d="M397.45,-940.97C396.84,-924.76 395.9,-900.06 395.18,-880.79"/>
<polygon fill="black" stroke="black" points="398.68,-880.71 394.8,-870.85 391.68,-880.98 398.68,-880.71"/>
</g>
<!-- j959380407 -->
<g id="node18" class="node">
<title>j959380407</title>
<polygon fill="none" stroke="red" points="669.09,-923 505.09,-923 505.09,-887 669.09,-887 669.09,-923"/>
<text text-anchor="middle" x="587.09" y="-901.3" font-family="Times New Roman,serif" font-size="14.00">Je ne savais pas comment.</text>
</g>
<!-- j781566502&#45;&gt;j959380407 -->
<g id="edge19" class="edge">
<title>j781566502&#45;&gt;j959380407</title>
<path fill="none" stroke="black" d="M681.93,-994.68C689.24,-979.26 696.21,-956.77 685.09,-941 682.14,-936.82 678.65,-933.13 674.76,-929.88"/>
<polygon fill="black" stroke="black" points="677.11,-927.26 666.93,-924.33 673.06,-932.97 677.11,-927.26"/>
</g>
<!-- j1327179364 -->
<g id="node19" class="node">
<title>j1327179364</title>
<polygon fill="none" stroke="red" points="845.09,-923 687.09,-923 687.09,-887 845.09,-887 845.09,-923"/>
<text text-anchor="middle" x="766.09" y="-901.3" font-family="Times New Roman,serif" font-size="14.00">Je pense que j&#39;avais peur.</text>
</g>
<!-- j781566502&#45;&gt;j1327179364 -->
<g id="edge20" class="edge">
<title>j781566502&#45;&gt;j1327179364</title>
<path fill="none" stroke="black" d="M687.19,-994.97C702.31,-977.92 725.78,-951.46 743.19,-931.82"/>
<polygon fill="black" stroke="black" points="745.69,-934.28 749.71,-924.47 740.45,-929.63 745.69,-934.28"/>
</g>
<!-- j2726103648&#45;&gt;Chat ends. -->
<g id="edge21" class="edge">
<title>j2726103648&#45;&gt;Chat ends.</title>
<path fill="none" stroke="black" d="M1558.27,-832.64C1560.32,-814.72 1563.09,-785.95 1563.09,-761 1563.09,-761 1563.09,-761 1563.09,-90 1563.09,-46.67 907.89,-25.95 701.54,-20.5"/>
<polygon fill="black" stroke="black" points="701.64,-17.01 691.55,-20.24 701.46,-24 701.64,-17.01"/>
</g>
<!-- j408936957 -->
<g id="node20" class="node">
<title>j408936957</title>
<polygon fill="none" stroke="blue" points="1293.59,-815 1154.59,-815 1154.59,-779 1293.59,-779 1293.59,-815"/>
<text text-anchor="middle" x="1224.09" y="-793.3" font-family="Times New Roman,serif" font-size="14.00">excuses acceptées ^.^</text>
</g>
<!-- j4183499026&#45;&gt;j408936957 -->
<g id="edge22" class="edge">
<title>j4183499026&#45;&gt;j408936957</title>
<path fill="none" stroke="black" d="M1224.09,-886.97C1224.09,-870.76 1224.09,-846.06 1224.09,-826.79"/>
<polygon fill="black" stroke="black" points="1227.59,-826.85 1224.09,-816.85 1220.59,-826.85 1227.59,-826.85"/>
</g>
<!-- j3582808902 -->
<g id="node21" class="node">
<title>j3582808902</title>
<polygon fill="none" stroke="blue" points="524.59,-742 263.59,-742 263.59,-706 524.59,-706 524.59,-742"/>
<text text-anchor="middle" x="394.09" y="-720.3" font-family="Times New Roman,serif" font-size="14.00">tu veux vraiment tenter de nouveau le coup?</text>
</g>
<!-- j2487162177&#45;&gt;j3582808902 -->
<g id="edge23" class="edge">
<title>j2487162177&#45;&gt;j3582808902</title>
<path fill="none" stroke="black" d="M394.09,-832.62C394.09,-812.19 394.09,-777.99 394.09,-753.62"/>
<polygon fill="black" stroke="black" points="397.59,-753.75 394.09,-743.75 390.59,-753.75 397.59,-753.75"/>
</g>
<!-- j170325120 -->
<g id="node22" class="node">
<title>j170325120</title>
<polygon fill="none" stroke="blue" points="853.59,-815 520.59,-815 520.59,-779 853.59,-779 853.59,-815"/>
<text text-anchor="middle" x="687.09" y="-793.3" font-family="Times New Roman,serif" font-size="14.00">lol tu es si bizarre des fois &lt;RETRO_EMOJI_SHRUG&gt;</text>
</g>
<!-- j959380407&#45;&gt;j170325120 -->
<g id="edge24" class="edge">
<title>j959380407&#45;&gt;j170325120</title>
<path fill="none" stroke="black" d="M651.17,-886.52C659.48,-881.96 667.14,-876.21 673.09,-869 682.77,-857.26 686.42,-840.74 687.59,-826.59"/>
<polygon fill="black" stroke="black" points="691.07,-827.07 687.99,-816.93 684.08,-826.77 691.07,-827.07"/>
</g>
<!-- j1327179364&#45;&gt;j170325120 -->
<g id="edge25" class="edge">
<title>j1327179364&#45;&gt;j170325120</title>
<path fill="none" stroke="black" d="M753.4,-886.97C740.8,-870.07 721.32,-843.94 706.73,-824.36"/>
<polygon fill="black" stroke="black" points="709.7,-822.48 700.92,-816.55 704.09,-826.66 709.7,-822.48"/>
</g>
<!-- j4049227523 -->
<g id="node23" class="node">
<title>j4049227523</title>
<polygon fill="none" stroke="blue" points="1535.09,-742 913.09,-742 913.09,-706 1535.09,-706 1535.09,-742"/>
<text text-anchor="middle" x="1224.09" y="-720.3" font-family="Times New Roman,serif" font-size="14.00">et honnêtement? tu as beaucoup occupé mes pensées ces derniers temps... tu veux vraiment sortir avec moi?</text>
</g>
<!-- j408936957&#45;&gt;j4049227523 -->
<g id="edge26" class="edge">
<title>j408936957&#45;&gt;j4049227523</title>
<path fill="none" stroke="black" d="M1224.09,-778.81C1224.09,-771.23 1224.09,-762.1 1224.09,-753.54"/>
<polygon fill="black" stroke="black" points="1227.59,-753.54 1224.09,-743.54 1220.59,-753.54 1227.59,-753.54"/>
</g>
<!-- j308274362 -->
<g id="node24" class="node">
<title>j308274362</title>
<polygon fill="none" stroke="red" points="491.09,-655 297.09,-655 297.09,-619 491.09,-619 491.09,-655"/>
<text text-anchor="middle" x="394.09" y="-633.3" font-family="Times New Roman,serif" font-size="14.00">En fait, ce n&#39;est pas grave. Non.</text>
</g>
<!-- j3582808902&#45;&gt;j308274362 -->
<g id="edge27" class="edge">
<title>j3582808902&#45;&gt;j308274362</title>
<path fill="none" stroke="black" d="M394.09,-705.8C394.09,-694.58 394.09,-679.67 394.09,-666.69"/>
<polygon fill="black" stroke="black" points="397.59,-666.98 394.09,-656.98 390.59,-666.98 397.59,-666.98"/>
</g>
<!-- j1897619262 -->
<g id="node25" class="node">
<title>j1897619262</title>
<polygon fill="none" stroke="red" points="699.59,-655 584.59,-655 584.59,-619 699.59,-619 699.59,-655"/>
<text text-anchor="middle" x="642.09" y="-633.3" font-family="Times New Roman,serif" font-size="14.00">Ouais, vraiment :)</text>
</g>
<!-- j3582808902&#45;&gt;j1897619262 -->
<g id="edge28" class="edge">
<title>j3582808902&#45;&gt;j1897619262</title>
<path fill="none" stroke="black" d="M444.87,-705.59C484.16,-692.13 538.72,-673.43 580.5,-659.11"/>
<polygon fill="black" stroke="black" points="581.62,-662.43 589.94,-655.87 579.35,-655.8 581.62,-662.43"/>
</g>
<!-- j2800884679 -->
<g id="node26" class="node">
<title>j2800884679</title>
<polygon fill="none" stroke="blue" points="743.59,-742 542.59,-742 542.59,-706 743.59,-706 743.59,-742"/>
<text text-anchor="middle" x="643.09" y="-720.3" font-family="Times New Roman,serif" font-size="14.00">tu veux vraiment sortir avec moi?</text>
</g>
<!-- j170325120&#45;&gt;j2800884679 -->
<g id="edge29" class="edge">
<title>j170325120&#45;&gt;j2800884679</title>
<path fill="none" stroke="black" d="M676.44,-778.81C671.41,-770.7 665.3,-760.84 659.68,-751.78"/>
<polygon fill="black" stroke="black" points="662.68,-749.97 654.44,-743.32 656.73,-753.66 662.68,-749.97"/>
</g>
<!-- j4049227523&#45;&gt;j1897619262 -->
<g id="edge30" class="edge">
<title>j4049227523&#45;&gt;j1897619262</title>
<path fill="none" stroke="black" d="M1104.56,-705.54C985.84,-688.2 807.94,-662.22 711.03,-648.07"/>
<polygon fill="black" stroke="black" points="711.81,-644.65 701.41,-646.66 710.8,-651.57 711.81,-644.65"/>
</g>
<!-- j3352843875 -->
<g id="node27" class="node">
<title>j3352843875</title>
<polygon fill="none" stroke="blue" points="437.09,-582 255.09,-582 255.09,-546 437.09,-546 437.09,-582"/>
<text text-anchor="middle" x="346.09" y="-560.3" font-family="Times New Roman,serif" font-size="14.00">&lt;RETRO_EMOJI_GLARE&gt;</text>
</g>
<!-- j308274362&#45;&gt;j3352843875 -->
<g id="edge31" class="edge">
<title>j308274362&#45;&gt;j3352843875</title>
<path fill="none" stroke="black" d="M382.47,-618.81C376.93,-610.62 370.17,-600.62 364,-591.48"/>
<polygon fill="black" stroke="black" points="366.95,-589.61 358.45,-583.28 361.15,-593.53 366.95,-589.61"/>
</g>
<!-- j759431203 -->
<g id="node28" class="node">
<title>j759431203</title>
<polygon fill="none" stroke="blue" points="744.09,-582 538.09,-582 538.09,-546 744.09,-546 744.09,-582"/>
<text text-anchor="middle" x="641.09" y="-560.3" font-family="Times New Roman,serif" font-size="14.00">&lt;RETRO_EMOJI_GIVELOVE&gt;</text>
</g>
<!-- j1897619262&#45;&gt;j759431203 -->
<g id="edge32" class="edge">
<title>j1897619262&#45;&gt;j759431203</title>
<path fill="none" stroke="black" d="M641.85,-618.81C641.74,-611.23 641.61,-602.1 641.49,-593.54"/>
<polygon fill="black" stroke="black" points="644.99,-593.49 641.35,-583.54 637.99,-593.59 644.99,-593.49"/>
</g>
<!-- j2800884679&#45;&gt;j308274362 -->
<g id="edge33" class="edge">
<title>j2800884679&#45;&gt;j308274362</title>
<path fill="none" stroke="black" d="M592.1,-705.59C552.57,-692.1 497.64,-673.35 455.66,-659.02"/>
<polygon fill="black" stroke="black" points="457.04,-655.79 446.44,-655.87 454.78,-662.41 457.04,-655.79"/>
</g>
<!-- j2800884679&#45;&gt;j1897619262 -->
<g id="edge34" class="edge">
<title>j2800884679&#45;&gt;j1897619262</title>
<path fill="none" stroke="black" d="M642.89,-705.8C642.76,-694.58 642.58,-679.67 642.43,-666.69"/>
<polygon fill="black" stroke="black" points="645.93,-666.94 642.31,-656.98 638.93,-667.02 645.93,-666.94"/>
</g>
<!-- j2157777942 -->
<g id="node29" class="node">
<title>j2157777942</title>
<polygon fill="none" stroke="blue" points="405.09,-509 229.09,-509 229.09,-473 405.09,-473 405.09,-509"/>
<text text-anchor="middle" x="317.09" y="-487.3" font-family="Times New Roman,serif" font-size="14.00">&lt;RETRO_EMOJI_KNIFE&gt;</text>
</g>
<!-- j3352843875&#45;&gt;j2157777942 -->
<g id="edge35" class="edge">
<title>j3352843875&#45;&gt;j2157777942</title>
<path fill="none" stroke="black" d="M339.07,-545.81C335.86,-537.96 331.99,-528.47 328.39,-519.66"/>
<polygon fill="black" stroke="black" points="331.64,-518.36 324.62,-510.43 325.16,-521.01 331.64,-518.36"/>
</g>
<!-- j375278457 -->
<g id="node30" class="node">
<title>j375278457</title>
<polygon fill="none" stroke="blue" points="857.09,-509 423.09,-509 423.09,-473 857.09,-473 857.09,-509"/>
<text text-anchor="middle" x="640.09" y="-487.3" font-family="Times New Roman,serif" font-size="14.00">&lt;RETRO_EMOJI_FLOWERS&gt;&lt;3&lt;3&lt;3&lt;RETRO_EMOJI_FLOWERS&gt;</text>
</g>
<!-- j759431203&#45;&gt;j375278457 -->
<g id="edge36" class="edge">
<title>j759431203&#45;&gt;j375278457</title>
<path fill="none" stroke="black" d="M640.85,-545.81C640.74,-538.23 640.61,-529.1 640.49,-520.54"/>
<polygon fill="black" stroke="black" points="643.99,-520.49 640.35,-510.54 636.99,-520.59 643.99,-520.49"/>
</g>
<!-- j4121660697 -->
<g id="node31" class="node">
<title>j4121660697</title>
<ellipse fill="none" stroke="orange" cx="377.09" cy="-364" rx="128.88" ry="18"/>
<text text-anchor="middle" x="377.09" y="-360.3" font-family="Times New Roman,serif" font-size="14.00">Boolean AoiNoDate is now true.</text>
</g>
<!-- j2157777942&#45;&gt;j4121660697 -->
<g id="edge37" class="edge">
<title>j2157777942&#45;&gt;j4121660697</title>
<path fill="none" stroke="black" d="M325.43,-472.62C335.42,-451.82 352.26,-416.73 363.99,-392.3"/>
<polygon fill="black" stroke="black" points="366.99,-394.13 368.16,-383.6 360.68,-391.1 366.99,-394.13"/>
</g>
<!-- j4188135732 -->
<g id="node32" class="node">
<title>j4188135732</title>
<ellipse fill="none" stroke="orange" cx="640.09" cy="-418" rx="64.19" ry="18"/>
<text text-anchor="middle" x="640.09" y="-414.3" font-family="Times New Roman,serif" font-size="14.00">+20 Chemistry</text>
</g>
<!-- j375278457&#45;&gt;j4188135732 -->
<g id="edge38" class="edge">
<title>j375278457&#45;&gt;j4188135732</title>
<path fill="none" stroke="black" d="M640.09,-472.81C640.09,-465.23 640.09,-456.1 640.09,-447.54"/>
<polygon fill="black" stroke="black" points="643.59,-447.54 640.09,-437.54 636.59,-447.54 643.59,-447.54"/>
</g>
<!-- j4121660697&#45;&gt;Chat ends. -->
<g id="edge39" class="edge">
<title>j4121660697&#45;&gt;Chat ends.</title>
<path fill="none" stroke="black" d="M383.42,-345.53C389.28,-327.77 397.09,-299.34 397.09,-274 397.09,-274 397.09,-274 397.09,-90 397.09,-51.88 508.67,-32.82 580.61,-24.49"/>
<polygon fill="black" stroke="black" points="580.74,-28 590.29,-23.42 579.96,-21.04 580.74,-28"/>
</g>
<!-- j3778535093 -->
<g id="node33" class="node">
<title>j3778535093</title>
<ellipse fill="none" stroke="orange" cx="640.09" cy="-310" rx="131.88" ry="18"/>
<text text-anchor="middle" x="640.09" y="-306.3" font-family="Times New Roman,serif" font-size="14.00">Boolean AoiNoDate is now false.</text>
</g>
<!-- j4188135732&#45;&gt;j3778535093 -->
<g id="edge40" class="edge">
<title>j4188135732&#45;&gt;j3778535093</title>
<path fill="none" stroke="black" d="M640.09,-399.97C640.09,-383.76 640.09,-359.06 640.09,-339.79"/>
<polygon fill="black" stroke="black" points="643.59,-339.85 640.09,-329.85 636.59,-339.85 643.59,-339.85"/>
</g>
<!-- j823539306 -->
<g id="node34" class="node">
<title>j823539306</title>
<ellipse fill="none" stroke="orange" cx="640.09" cy="-237" rx="118.08" ry="18"/>
<text text-anchor="middle" x="640.09" y="-233.3" font-family="Times New Roman,serif" font-size="14.00">Boolean IsDating is now true.</text>
</g>
<!-- j3778535093&#45;&gt;j823539306 -->
<g id="edge41" class="edge">
<title>j3778535093&#45;&gt;j823539306</title>
<path fill="none" stroke="black" d="M640.09,-291.81C640.09,-284.23 640.09,-275.1 640.09,-266.54"/>
<polygon fill="black" stroke="black" points="643.59,-266.54 640.09,-256.54 636.59,-266.54 643.59,-266.54"/>
</g>
<!-- j3427397763 -->
<g id="node35" class="node">
<title>j3427397763</title>
<ellipse fill="none" stroke="orange" cx="640.09" cy="-164" rx="124.28" ry="18"/>
<text text-anchor="middle" x="640.09" y="-160.3" font-family="Times New Roman,serif" font-size="14.00">Boolean AoiDating is now true.</text>
</g>
<!-- j823539306&#45;&gt;j3427397763 -->
<g id="edge42" class="edge">
<title>j823539306&#45;&gt;j3427397763</title>
<path fill="none" stroke="black" d="M640.09,-218.81C640.09,-211.23 640.09,-202.1 640.09,-193.54"/>
<polygon fill="black" stroke="black" points="643.59,-193.54 640.09,-183.54 636.59,-193.54 643.59,-193.54"/>
</g>
<!-- j2702152868 -->
<g id="node36" class="node">
<title>j2702152868</title>
<ellipse fill="none" stroke="orange" cx="640.09" cy="-91" rx="136.48" ry="18"/>
<text text-anchor="middle" x="640.09" y="-87.3" font-family="Times New Roman,serif" font-size="14.00">Boolean AoiHasDated is now true.</text>
</g>
<!-- j3427397763&#45;&gt;j2702152868 -->
<g id="edge43" class="edge">
<title>j3427397763&#45;&gt;j2702152868</title>
<path fill="none" stroke="black" d="M640.09,-145.81C640.09,-138.23 640.09,-129.1 640.09,-120.54"/>
<polygon fill="black" stroke="black" points="643.59,-120.54 640.09,-110.54 636.59,-120.54 643.59,-120.54"/>
</g>
<!-- j2702152868&#45;&gt;Chat ends. -->
<g id="edge44" class="edge">
<title>j2702152868&#45;&gt;Chat ends.</title>
<path fill="none" stroke="black" d="M640.09,-72.81C640.09,-65.23 640.09,-56.1 640.09,-47.54"/>
<polygon fill="black" stroke="black" points="643.59,-47.54 640.09,-37.54 636.59,-47.54 643.59,-47.54"/>
</g>
</g>
</svg>
