<?xml version="1.0" encoding="UTF-8" standalone="no"?>
<!DOCTYPE svg PUBLIC "-//W3C//DTD SVG 1.1//EN"
 "http://www.w3.org/Graphics/SVG/1.1/DTD/svg11.dtd">
<!-- Generated by graphviz version 7.1.0 (20230121.1956)
 -->
<!-- Pages: 1 -->
<svg width="3568pt" height="2066pt"
 viewBox="0.00 0.00 3567.64 2066.00" xmlns="http://www.w3.org/2000/svg" xmlns:xlink="http://www.w3.org/1999/xlink">
<g id="graph0" class="graph" transform="scale(1 1) rotate(0) translate(4 2062)">
<polygon fill="white" stroke="none" points="-4,4 -4,-2062 3563.64,-2062 3563.64,4 -4,4"/>
<!-- AoiRank4Convo8 begins. -->
<g id="node1" class="node">
<title>AoiRank4Convo8 begins.</title>
<ellipse fill="none" stroke="orange" cx="117.64" cy="-2040" rx="104.78" ry="18"/>
<text text-anchor="middle" x="117.64" y="-2036.3" font-family="Times New Roman,serif" font-size="14.00">AoiRank4Convo8 begins.</text>
</g>
<!-- j898937519 -->
<g id="node2" class="node">
<title>j898937519</title>
<ellipse fill="none" stroke="orange" cx="117.64" cy="-1967" rx="117.78" ry="18"/>
<text text-anchor="middle" x="117.64" y="-1963.3" font-family="Times New Roman,serif" font-size="14.00">Check boolean AmirRPGAoi</text>
</g>
<!-- AoiRank4Convo8 begins.&#45;&gt;j898937519 -->
<g id="edge1" class="edge">
<title>AoiRank4Convo8 begins.&#45;&gt;j898937519</title>
<path fill="none" stroke="black" d="M117.64,-2021.81C117.64,-2014.23 117.64,-2005.1 117.64,-1996.54"/>
<polygon fill="black" stroke="black" points="121.14,-1996.54 117.64,-1986.54 114.14,-1996.54 121.14,-1996.54"/>
</g>
<!-- Chat ends. -->
<g id="node3" class="node">
<title>Chat ends.</title>
<ellipse fill="none" stroke="orange" cx="527.64" cy="-18" rx="50.09" ry="18"/>
<text text-anchor="middle" x="527.64" y="-14.3" font-family="Times New Roman,serif" font-size="14.00">Chat ends.</text>
</g>
<!-- j898937519&#45;&gt;Chat ends. -->
<g id="edge2" class="edge">
<title>j898937519&#45;&gt;Chat ends.</title>
<path fill="none" stroke="green" d="M112.4,-1948.6C107.73,-1931.54 101.64,-1904.73 101.64,-1881 101.64,-1881 101.64,-1881 101.64,-90 101.64,-53.43 140.45,-63.96 175.64,-54 274.57,-25.99 394.66,-19.64 465.92,-18.61"/>
<polygon fill="green" stroke="green" points="465.88,-22.11 475.84,-18.5 465.8,-15.11 465.88,-22.11"/>
<text text-anchor="middle" x="112.64" y="-943.3" font-family="Times New Roman,serif" font-size="14.00">true</text>
</g>
<!-- j3050584205 -->
<g id="node4" class="node">
<title>j3050584205</title>
<ellipse fill="none" stroke="orange" cx="234.64" cy="-1880" rx="104.78" ry="18"/>
<text text-anchor="middle" x="234.64" y="-1876.3" font-family="Times New Roman,serif" font-size="14.00">Check boolean AmirRPG</text>
</g>
<!-- j898937519&#45;&gt;j3050584205 -->
<g id="edge3" class="edge">
<title>j898937519&#45;&gt;j3050584205</title>
<path fill="none" stroke="brown" d="M141.04,-1949C158.57,-1936.26 182.79,-1918.67 202.19,-1904.57"/>
<polygon fill="brown" stroke="brown" points="204.03,-1907.57 210.06,-1898.86 199.91,-1901.9 204.03,-1907.57"/>
<text text-anchor="middle" x="195.64" y="-1919.8" font-family="Times New Roman,serif" font-size="14.00">false</text>
</g>
<!-- j3050584205&#45;&gt;Chat ends. -->
<g id="edge5" class="edge">
<title>j3050584205&#45;&gt;Chat ends.</title>
<path fill="none" stroke="brown" d="M202.79,-1862.68C179.38,-1848.17 151.64,-1824.53 151.64,-1794 151.64,-1794 151.64,-1794 151.64,-90 151.64,-26.79 359.44,-18.32 466.08,-18.14"/>
<polygon fill="brown" stroke="brown" points="465.8,-21.64 475.81,-18.15 465.81,-14.64 465.8,-21.64"/>
<text text-anchor="middle" x="164.64" y="-889.3" font-family="Times New Roman,serif" font-size="14.00">false</text>
</g>
<!-- j3798034211 -->
<g id="node5" class="node">
<title>j3798034211</title>
<ellipse fill="none" stroke="orange" cx="642.64" cy="-1793" rx="141.07" ry="18"/>
<text text-anchor="middle" x="642.64" y="-1789.3" font-family="Times New Roman,serif" font-size="14.00">Check boolean AmirRPGAoiAsked</text>
</g>
<!-- j3050584205&#45;&gt;j3798034211 -->
<g id="edge4" class="edge">
<title>j3050584205&#45;&gt;j3798034211</title>
<path fill="none" stroke="green" d="M299.29,-1865.53C369.86,-1850.83 483.04,-1827.25 560,-1811.22"/>
<polygon fill="green" stroke="green" points="560.53,-1814.68 569.61,-1809.22 559.1,-1807.83 560.53,-1814.68"/>
<text text-anchor="middle" x="473.64" y="-1832.8" font-family="Times New Roman,serif" font-size="14.00">true</text>
</g>
<!-- j3008662080 -->
<g id="node6" class="node">
<title>j3008662080</title>
<polygon fill="none" stroke="red" points="1991.14,-1562 1610.14,-1562 1610.14,-1526 1991.14,-1526 1991.14,-1562"/>
<text text-anchor="middle" x="1800.64" y="-1540.3" font-family="Times New Roman,serif" font-size="14.00">Помнишь ту игру с Амиром, о которой я тебе рассказывал?</text>
</g>
<!-- j3798034211&#45;&gt;j3008662080 -->
<g id="edge6" class="edge">
<title>j3798034211&#45;&gt;j3008662080</title>
<path fill="none" stroke="green" d="M718.12,-1777.43C787.48,-1763.95 893.09,-1743.14 984.64,-1724 1250.04,-1668.51 1562.97,-1598.61 1712.49,-1564.93"/>
<polygon fill="green" stroke="green" points="1712.94,-1568.42 1721.92,-1562.81 1711.4,-1561.59 1712.94,-1568.42"/>
<text text-anchor="middle" x="1157.64" y="-1702.3" font-family="Times New Roman,serif" font-size="14.00">true</text>
</g>
<!-- j3456118237 -->
<g id="node7" class="node">
<title>j3456118237</title>
<polygon fill="none" stroke="red" points="332.64,-1670 220.64,-1670 220.64,-1634 332.64,-1634 332.64,-1670"/>
<text text-anchor="middle" x="276.64" y="-1648.3" font-family="Times New Roman,serif" font-size="14.00">[Игнорировать]</text>
</g>
<!-- j3798034211&#45;&gt;j3456118237 -->
<g id="edge7" class="edge">
<title>j3798034211&#45;&gt;j3456118237</title>
<path fill="none" stroke="green" d="M599.22,-1775.51C532.89,-1750.32 406.34,-1702.26 333.01,-1674.41"/>
<polygon fill="green" stroke="green" points="334.6,-1671.27 324,-1670.99 332.11,-1677.81 334.6,-1671.27"/>
<text text-anchor="middle" x="560.64" y="-1745.8" font-family="Times New Roman,serif" font-size="14.00">true</text>
</g>
<!-- j3143004998 -->
<g id="node8" class="node">
<title>j3143004998</title>
<polygon fill="none" stroke="red" points="755.64,-1724 529.64,-1724 529.64,-1688 755.64,-1688 755.64,-1724"/>
<text text-anchor="middle" x="642.64" y="-1702.3" font-family="Times New Roman,serif" font-size="14.00">Эй, Аои! Тебе нравится Амир, да?</text>
</g>
<!-- j3798034211&#45;&gt;j3143004998 -->
<g id="edge8" class="edge">
<title>j3798034211&#45;&gt;j3143004998</title>
<path fill="none" stroke="brown" d="M642.64,-1774.8C642.64,-1763.58 642.64,-1748.67 642.64,-1735.69"/>
<polygon fill="brown" stroke="brown" points="646.14,-1735.98 642.64,-1725.98 639.14,-1735.98 646.14,-1735.98"/>
<text text-anchor="middle" x="655.64" y="-1745.8" font-family="Times New Roman,serif" font-size="14.00">false</text>
</g>
<!-- j3140736715 -->
<g id="node9" class="node">
<title>j3140736715</title>
<polygon fill="none" stroke="red" points="975.14,-1724 774.14,-1724 774.14,-1688 975.14,-1688 975.14,-1724"/>
<text text-anchor="middle" x="874.64" y="-1702.3" font-family="Times New Roman,serif" font-size="14.00">Ты ведь фанатка игр, да, Аои?</text>
</g>
<!-- j3798034211&#45;&gt;j3140736715 -->
<g id="edge9" class="edge">
<title>j3798034211&#45;&gt;j3140736715</title>
<path fill="none" stroke="brown" d="M687.65,-1775.51C724.34,-1762.07 776.43,-1742.98 816.32,-1728.37"/>
<polygon fill="brown" stroke="brown" points="817.36,-1731.71 825.54,-1724.99 814.95,-1725.14 817.36,-1731.71"/>
<text text-anchor="middle" x="784.64" y="-1745.8" font-family="Times New Roman,serif" font-size="14.00">false</text>
</g>
<!-- j1678746383 -->
<g id="node10" class="node">
<title>j1678746383</title>
<polygon fill="none" stroke="blue" points="2499.64,-1327 2445.64,-1327 2445.64,-1291 2499.64,-1291 2499.64,-1327"/>
<text text-anchor="middle" x="2472.64" y="-1305.3" font-family="Times New Roman,serif" font-size="14.00">да?..</text>
</g>
<!-- j3008662080&#45;&gt;j1678746383 -->
<g id="edge10" class="edge">
<title>j3008662080&#45;&gt;j1678746383</title>
<path fill="none" stroke="black" d="M1991.24,-1538.8C2177.97,-1533.78 2436.98,-1523.97 2453.64,-1508 2499.21,-1464.31 2489.38,-1382.05 2480.04,-1338.58"/>
<polygon fill="black" stroke="black" points="2483.47,-1337.85 2477.81,-1328.89 2476.64,-1339.42 2483.47,-1337.85"/>
</g>
<!-- j3456118237&#45;&gt;Chat ends. -->
<g id="edge11" class="edge">
<title>j3456118237&#45;&gt;Chat ends.</title>
<path fill="none" stroke="black" d="M249.11,-1633.53C223.62,-1614.98 189.64,-1583.09 189.64,-1545 189.64,-1545 189.64,-1545 189.64,-1235 189.64,-1083.44 192.64,-1045.56 192.64,-894 192.64,-894 192.64,-894 192.64,-90 192.64,-34.73 369.37,-22.29 466.1,-19.62"/>
<polygon fill="black" stroke="black" points="466.06,-23.13 475.97,-19.38 465.89,-16.13 466.06,-23.13"/>
</g>
<!-- j3112663995 -->
<g id="node11" class="node">
<title>j3112663995</title>
<polygon fill="none" stroke="blue" points="740.14,-1616 675.14,-1616 675.14,-1580 740.14,-1580 740.14,-1616"/>
<text text-anchor="middle" x="707.64" y="-1594.3" font-family="Times New Roman,serif" font-size="14.00">да!! ты?</text>
</g>
<!-- j3143004998&#45;&gt;j3112663995 -->
<g id="edge12" class="edge">
<title>j3143004998&#45;&gt;j3112663995</title>
<path fill="none" stroke="black" d="M653.08,-1687.97C663.35,-1671.22 679.18,-1645.41 691.15,-1625.89"/>
<polygon fill="black" stroke="black" points="693.97,-1627.99 696.21,-1617.63 688,-1624.33 693.97,-1627.99"/>
</g>
<!-- j3874003910 -->
<g id="node12" class="node">
<title>j3874003910</title>
<polygon fill="none" stroke="blue" points="926.64,-1616 822.64,-1616 822.64,-1580 926.64,-1580 926.64,-1616"/>
<text text-anchor="middle" x="874.64" y="-1594.3" font-family="Times New Roman,serif" font-size="14.00">какие именно?</text>
</g>
<!-- j3140736715&#45;&gt;j3874003910 -->
<g id="edge13" class="edge">
<title>j3140736715&#45;&gt;j3874003910</title>
<path fill="none" stroke="black" d="M874.64,-1687.97C874.64,-1671.76 874.64,-1647.06 874.64,-1627.79"/>
<polygon fill="black" stroke="black" points="878.14,-1627.85 874.64,-1617.85 871.14,-1627.85 878.14,-1627.85"/>
</g>
<!-- j4028463232 -->
<g id="node13" class="node">
<title>j4028463232</title>
<polygon fill="none" stroke="red" points="2907.64,-1254 1889.64,-1254 1889.64,-1218 2907.64,-1218 2907.64,-1254"/>
<text text-anchor="middle" x="2398.64" y="-1232.3" font-family="Times New Roman,serif" font-size="14.00">Я чувствую, что облажался, спросив тебя, не хочешь ли ты присоединиться. Мне жаль. Мы были бы очень рады, если бы ты присоединилась к игре вместе с нами.</text>
</g>
<!-- j1678746383&#45;&gt;j4028463232 -->
<g id="edge14" class="edge">
<title>j1678746383&#45;&gt;j4028463232</title>
<path fill="none" stroke="black" d="M2454.73,-1290.81C2445.79,-1282.24 2434.82,-1271.71 2424.95,-1262.24"/>
<polygon fill="black" stroke="black" points="2427.38,-1259.72 2417.74,-1255.32 2422.53,-1264.77 2427.38,-1259.72"/>
</g>
<!-- j927417200 -->
<g id="node14" class="node">
<title>j927417200</title>
<polygon fill="none" stroke="red" points="3559.64,-1254 2925.64,-1254 2925.64,-1218 3559.64,-1218 3559.64,-1254"/>
<text text-anchor="middle" x="3242.64" y="-1232.3" font-family="Times New Roman,serif" font-size="14.00">Не могла бы ты, пожалуйста, присоединиться? Амир не перестает беспокоить меня по этому поводу.</text>
</g>
<!-- j1678746383&#45;&gt;j927417200 -->
<g id="edge15" class="edge">
<title>j1678746383&#45;&gt;j927417200</title>
<path fill="none" stroke="black" d="M2500.04,-1305.47C2585.48,-1297.6 2852.57,-1272.97 3041.88,-1255.51"/>
<polygon fill="black" stroke="black" points="3041.96,-1259.02 3051.6,-1254.62 3041.32,-1252.05 3041.96,-1259.02"/>
</g>
<!-- j338109298 -->
<g id="node15" class="node">
<title>j338109298</title>
<polygon fill="none" stroke="red" points="1197.14,-1508 218.14,-1508 218.14,-1472 1197.14,-1472 1197.14,-1508"/>
<text text-anchor="middle" x="707.64" y="-1486.3" font-family="Times New Roman,serif" font-size="14.00">Амир пытается организовать совместную игру «Предания и Просторы». Это настольная игра, в которой все придумывают персонажей и играют понарошку.</text>
</g>
<!-- j3112663995&#45;&gt;j338109298 -->
<g id="edge16" class="edge">
<title>j3112663995&#45;&gt;j338109298</title>
<path fill="none" stroke="black" d="M707.64,-1579.97C707.64,-1563.76 707.64,-1539.06 707.64,-1519.79"/>
<polygon fill="black" stroke="black" points="711.14,-1519.85 707.64,-1509.85 704.14,-1519.85 711.14,-1519.85"/>
</g>
<!-- j1977249707 -->
<g id="node16" class="node">
<title>j1977249707</title>
<polygon fill="none" stroke="red" points="2444.14,-1508 1215.14,-1508 1215.14,-1472 2444.14,-1472 2444.14,-1508"/>
<text text-anchor="middle" x="1829.64" y="-1486.3" font-family="Times New Roman,serif" font-size="14.00">Амир пытается организовать совместную игру «Предания и Просторы». Это игра, в которой мы все вместе рассказываем историю и используем случай, чтобы придать ей немного увлекательности.</text>
</g>
<!-- j3112663995&#45;&gt;j1977249707 -->
<g id="edge17" class="edge">
<title>j3112663995&#45;&gt;j1977249707</title>
<path fill="none" stroke="black" d="M740.56,-1591.53C761.47,-1588.1 789.12,-1583.65 813.64,-1580 988.03,-1554.04 1031.15,-1542.96 1206.64,-1526 1275.98,-1519.3 1349.8,-1513.76 1421.47,-1509.21"/>
<polygon fill="black" stroke="black" points="1421.68,-1512.71 1431.45,-1508.59 1421.25,-1505.72 1421.68,-1512.71"/>
</g>
<!-- j3874003910&#45;&gt;j338109298 -->
<g id="edge18" class="edge">
<title>j3874003910&#45;&gt;j338109298</title>
<path fill="none" stroke="black" d="M847.44,-1579.73C819.5,-1562 775.82,-1534.28 744.73,-1514.54"/>
<polygon fill="black" stroke="black" points="746.71,-1511.65 736.39,-1509.25 742.95,-1517.56 746.71,-1511.65"/>
</g>
<!-- j3874003910&#45;&gt;j1977249707 -->
<g id="edge19" class="edge">
<title>j3874003910&#45;&gt;j1977249707</title>
<path fill="none" stroke="black" d="M927,-1591.19C1064.38,-1575.94 1439.74,-1534.28 1660.76,-1509.74"/>
<polygon fill="black" stroke="black" points="1661.09,-1513.23 1670.64,-1508.65 1660.32,-1506.27 1661.09,-1513.23"/>
</g>
<!-- j1711265520 -->
<g id="node17" class="node">
<title>j1711265520</title>
<polygon fill="none" stroke="blue" points="2242.14,-1181 1861.14,-1181 1861.14,-1145 2242.14,-1145 2242.14,-1181"/>
<text text-anchor="middle" x="2051.64" y="-1159.3" font-family="Times New Roman,serif" font-size="14.00">... я на самом деле очень надеялась, что ты спросишь снова</text>
</g>
<!-- j4028463232&#45;&gt;j1711265520 -->
<g id="edge20" class="edge">
<title>j4028463232&#45;&gt;j1711265520</title>
<path fill="none" stroke="black" d="M2313.31,-1217.54C2263.3,-1207.31 2199.98,-1194.35 2148.15,-1183.75"/>
<polygon fill="black" stroke="black" points="2148.92,-1180.33 2138.42,-1181.76 2147.52,-1187.19 2148.92,-1180.33"/>
</g>
<!-- j3957335874 -->
<g id="node18" class="node">
<title>j3957335874</title>
<polygon fill="none" stroke="blue" points="2384.64,-1019 2216.64,-1019 2216.64,-983 2384.64,-983 2384.64,-1019"/>
<text text-anchor="middle" x="2300.64" y="-997.3" font-family="Times New Roman,serif" font-size="14.00">&lt;RETRO_EMOJI_WUT&gt;</text>
</g>
<!-- j927417200&#45;&gt;j3957335874 -->
<g id="edge21" class="edge">
<title>j927417200&#45;&gt;j3957335874</title>
<path fill="none" stroke="black" d="M3172.22,-1217.58C3001.21,-1175.28 2564.7,-1067.31 2382.48,-1022.24"/>
<polygon fill="black" stroke="black" points="2383.39,-1018.86 2372.85,-1019.86 2381.71,-1025.66 2383.39,-1018.86"/>
</g>
<!-- j537879759 -->
<g id="node19" class="node">
<title>j537879759</title>
<polygon fill="none" stroke="blue" points="951.14,-1435 770.14,-1435 770.14,-1399 951.14,-1399 951.14,-1435"/>
<text text-anchor="middle" x="860.64" y="-1413.3" font-family="Times New Roman,serif" font-size="14.00">&lt;RETRO_EMOJI_STARE&gt;</text>
</g>
<!-- j338109298&#45;&gt;j537879759 -->
<g id="edge22" class="edge">
<title>j338109298&#45;&gt;j537879759</title>
<path fill="none" stroke="black" d="M745.07,-1471.63C765.44,-1462.18 790.87,-1450.38 812.69,-1440.25"/>
<polygon fill="black" stroke="black" points="814.1,-1443.46 821.69,-1436.07 811.15,-1437.11 814.1,-1443.46"/>
</g>
<!-- j4050666247 -->
<g id="node20" class="node">
<title>j4050666247</title>
<polygon fill="none" stroke="blue" points="1499.14,-1381 1318.14,-1381 1318.14,-1345 1499.14,-1345 1499.14,-1381"/>
<text text-anchor="middle" x="1408.64" y="-1359.3" font-family="Times New Roman,serif" font-size="14.00">ооооо, это звучит забавно!</text>
</g>
<!-- j1977249707&#45;&gt;j4050666247 -->
<g id="edge23" class="edge">
<title>j1977249707&#45;&gt;j4050666247</title>
<path fill="none" stroke="black" d="M1771.1,-1471.62C1694.42,-1448.85 1560.13,-1408.98 1478.3,-1384.68"/>
<polygon fill="black" stroke="black" points="1479.39,-1381.36 1468.81,-1381.86 1477.4,-1388.07 1479.39,-1381.36"/>
</g>
<!-- j209126864 -->
<g id="node21" class="node">
<title>j209126864</title>
<polygon fill="none" stroke="blue" points="2051.14,-1073 1842.14,-1073 1842.14,-1037 2051.14,-1037 2051.14,-1073"/>
<text text-anchor="middle" x="1946.64" y="-1051.3" font-family="Times New Roman,serif" font-size="14.00">я бы с удовольствием поиграла</text>
</g>
<!-- j1711265520&#45;&gt;j209126864 -->
<g id="edge24" class="edge">
<title>j1711265520&#45;&gt;j209126864</title>
<path fill="none" stroke="black" d="M2034.77,-1144.97C2017.73,-1127.76 1991.2,-1100.98 1971.7,-1081.29"/>
<polygon fill="black" stroke="black" points="1974.41,-1079.06 1964.88,-1074.42 1969.43,-1083.98 1974.41,-1079.06"/>
</g>
<!-- j3957335874&#45;&gt;Chat ends. -->
<g id="edge25" class="edge">
<title>j3957335874&#45;&gt;Chat ends.</title>
<path fill="none" stroke="black" d="M2269.8,-982.63C2242.06,-964.47 2205.64,-933.17 2205.64,-894 2205.64,-894 2205.64,-894 2205.64,-90 2205.64,-48.71 891.08,-24.89 589,-19.96"/>
<polygon fill="black" stroke="black" points="589.43,-16.47 579.37,-19.8 589.31,-23.47 589.43,-16.47"/>
</g>
<!-- j791621575 -->
<g id="node22" class="node">
<title>j791621575</title>
<polygon fill="none" stroke="blue" points="1205.14,-1327 686.14,-1327 686.14,-1291 1205.14,-1291 1205.14,-1327"/>
<text text-anchor="middle" x="945.64" y="-1305.3" font-family="Times New Roman,serif" font-size="14.00">что это за игра понарошку? ... люди будут смеяться надо мной за то, что я играю?</text>
</g>
<!-- j537879759&#45;&gt;j791621575 -->
<g id="edge26" class="edge">
<title>j537879759&#45;&gt;j791621575</title>
<path fill="none" stroke="black" d="M874.3,-1398.97C887.91,-1381.99 909,-1355.7 924.72,-1336.09"/>
<polygon fill="black" stroke="black" points="927.26,-1338.51 930.79,-1328.52 921.8,-1334.13 927.26,-1338.51"/>
</g>
<!-- j3228705749 -->
<g id="node23" class="node">
<title>j3228705749</title>
<polygon fill="none" stroke="blue" points="1489.14,-1073 788.14,-1073 788.14,-1037 1489.14,-1037 1489.14,-1073"/>
<text text-anchor="middle" x="1138.64" y="-1051.3" font-family="Times New Roman,serif" font-size="14.00">засчитывай и меня!! ох, ох, ох, как ты думаешь, он позволит мне сыграть персонажа, у которого есть питомцы?</text>
</g>
<!-- j4050666247&#45;&gt;j3228705749 -->
<g id="edge27" class="edge">
<title>j4050666247&#45;&gt;j3228705749</title>
<path fill="none" stroke="black" d="M1336.07,-1344.52C1301.53,-1331.43 1267.64,-1309.33 1267.64,-1273 1267.64,-1273 1267.64,-1273 1267.64,-1162 1267.64,-1122.69 1231.44,-1095.28 1197.39,-1078.2"/>
<polygon fill="black" stroke="black" points="1199.31,-1075.23 1188.78,-1074.09 1196.3,-1081.55 1199.31,-1075.23"/>
</g>
<!-- j870045620 -->
<g id="node24" class="node">
<title>j870045620</title>
<polygon fill="none" stroke="blue" points="1988.64,-965 1778.64,-965 1778.64,-929 1988.64,-929 1988.64,-965"/>
<text text-anchor="middle" x="1883.64" y="-943.3" font-family="Times New Roman,serif" font-size="14.00">&lt;RETRO_EMOJI_PUMPEDUP&gt;</text>
</g>
<!-- j209126864&#45;&gt;j870045620 -->
<g id="edge28" class="edge">
<title>j209126864&#45;&gt;j870045620</title>
<path fill="none" stroke="black" d="M1936.52,-1036.97C1926.61,-1020.3 1911.36,-994.65 1899.78,-975.16"/>
<polygon fill="black" stroke="black" points="1902.84,-973.45 1894.72,-966.64 1896.82,-977.03 1902.84,-973.45"/>
</g>
<!-- j532721826 -->
<g id="node25" class="node">
<title>j532721826</title>
<polygon fill="none" stroke="red" points="1871.14,-1254 1296.14,-1254 1296.14,-1218 1871.14,-1218 1871.14,-1254"/>
<text text-anchor="middle" x="1583.64" y="-1232.3" font-family="Times New Roman,serif" font-size="14.00">Эх, это просто глупая игра. Это пустая трата времени, но я стараюсь проявить вежливость.</text>
</g>
<!-- j791621575&#45;&gt;j532721826 -->
<g id="edge29" class="edge">
<title>j791621575&#45;&gt;j532721826</title>
<path fill="none" stroke="black" d="M1102.53,-1290.54C1197.38,-1279.99 1318.27,-1266.53 1415.14,-1255.75"/>
<polygon fill="black" stroke="black" points="1415.47,-1259.24 1425.02,-1254.65 1414.7,-1252.28 1415.47,-1259.24"/>
</g>
<!-- j217806195 -->
<g id="node26" class="node">
<title>j217806195</title>
<polygon fill="none" stroke="red" points="759.64,-1254 217.64,-1254 217.64,-1218 759.64,-1218 759.64,-1254"/>
<text text-anchor="middle" x="488.64" y="-1232.3" font-family="Times New Roman,serif" font-size="14.00">Если они это сделают, им придется действовать через меня.&lt;RETRO_EMOJI_KNIFE&gt;</text>
</g>
<!-- j791621575&#45;&gt;j217806195 -->
<g id="edge30" class="edge">
<title>j791621575&#45;&gt;j217806195</title>
<path fill="none" stroke="black" d="M833.26,-1290.54C766.29,-1280.14 681.2,-1266.92 612.33,-1256.22"/>
<polygon fill="black" stroke="black" points="612.9,-1252.76 602.48,-1254.69 611.82,-1259.68 612.9,-1252.76"/>
</g>
<!-- j3681113706 -->
<g id="node27" class="node">
<title>j3681113706</title>
<polygon fill="none" stroke="red" points="1239.14,-1254 778.14,-1254 778.14,-1218 1239.14,-1218 1239.14,-1254"/>
<text text-anchor="middle" x="1008.64" y="-1232.3" font-family="Times New Roman,serif" font-size="14.00">Какая разница? Это будет весело! И это будет много значить для Амира.</text>
</g>
<!-- j791621575&#45;&gt;j3681113706 -->
<g id="edge31" class="edge">
<title>j791621575&#45;&gt;j3681113706</title>
<path fill="none" stroke="black" d="M960.89,-1290.81C968.4,-1282.35 977.6,-1271.98 985.91,-1262.61"/>
<polygon fill="black" stroke="black" points="988.51,-1264.96 992.52,-1255.16 983.27,-1260.32 988.51,-1264.96"/>
</g>
<!-- j4040804548 -->
<g id="node28" class="node">
<title>j4040804548</title>
<polygon fill="none" stroke="red" points="1555.64,-965 921.64,-965 921.64,-929 1555.64,-929 1555.64,-965"/>
<text text-anchor="middle" x="1238.64" y="-943.3" font-family="Times New Roman,serif" font-size="14.00">ЛОЛ. Я думаю, ты можешь играть за друида, да. У них есть знакомые. Например, кошки и все такое.</text>
</g>
<!-- j3228705749&#45;&gt;j4040804548 -->
<g id="edge32" class="edge">
<title>j3228705749&#45;&gt;j4040804548</title>
<path fill="none" stroke="black" d="M1154.71,-1036.97C1170.87,-1019.84 1195.98,-993.22 1214.53,-973.56"/>
<polygon fill="black" stroke="black" points="1216.93,-976.12 1221.24,-966.44 1211.83,-971.31 1216.93,-976.12"/>
</g>
<!-- j1194167040 -->
<g id="node29" class="node">
<title>j1194167040</title>
<polygon fill="none" stroke="red" points="980.64,-803 808.64,-803 808.64,-767 980.64,-767 980.64,-803"/>
<text text-anchor="middle" x="894.64" y="-781.3" font-family="Times New Roman,serif" font-size="14.00">Я знаю, что ты сможешь.</text>
</g>
<!-- j3228705749&#45;&gt;j1194167040 -->
<g id="edge33" class="edge">
<title>j3228705749&#45;&gt;j1194167040</title>
<path fill="none" stroke="black" d="M1030.16,-1036.52C986.92,-1023.91 940.83,-1002.24 912.64,-965 879.47,-921.18 883.39,-853.03 889.09,-814.7"/>
<polygon fill="black" stroke="black" points="892.54,-815.3 890.71,-804.87 885.63,-814.17 892.54,-815.3"/>
</g>
<!-- j459268637 -->
<g id="node30" class="node">
<title>j459268637</title>
<ellipse fill="none" stroke="orange" cx="1238.64" cy="-839" rx="64.19" ry="18"/>
<text text-anchor="middle" x="1238.64" y="-835.3" font-family="Times New Roman,serif" font-size="14.00">+10 Chemistry</text>
</g>
<!-- j870045620&#45;&gt;j459268637 -->
<g id="edge34" class="edge">
<title>j870045620&#45;&gt;j459268637</title>
<path fill="none" stroke="black" d="M1778.21,-928.67C1643.88,-906.6 1415.77,-869.11 1304.12,-850.76"/>
<polygon fill="black" stroke="black" points="1304.97,-847.35 1294.54,-849.19 1303.84,-854.26 1304.97,-847.35"/>
</g>
<!-- j1160114699 -->
<g id="node31" class="node">
<title>j1160114699</title>
<polygon fill="none" stroke="blue" points="1689.14,-1127 1478.14,-1127 1478.14,-1091 1689.14,-1091 1689.14,-1127"/>
<text text-anchor="middle" x="1583.64" y="-1105.3" font-family="Times New Roman,serif" font-size="14.00">&lt;RETRO_EMOJI_HORRIFIED&gt;</text>
</g>
<!-- j532721826&#45;&gt;j1160114699 -->
<g id="edge35" class="edge">
<title>j532721826&#45;&gt;j1160114699</title>
<path fill="none" stroke="black" d="M1583.64,-1217.62C1583.64,-1197.19 1583.64,-1162.99 1583.64,-1138.62"/>
<polygon fill="black" stroke="black" points="1587.14,-1138.75 1583.64,-1128.75 1580.14,-1138.75 1587.14,-1138.75"/>
</g>
<!-- j1226554518 -->
<g id="node32" class="node">
<title>j1226554518</title>
<polygon fill="none" stroke="blue" points="576.64,-1181 400.64,-1181 400.64,-1145 576.64,-1145 576.64,-1181"/>
<text text-anchor="middle" x="488.64" y="-1159.3" font-family="Times New Roman,serif" font-size="14.00">&lt;RETRO_EMOJI_OHNO&gt;</text>
</g>
<!-- j217806195&#45;&gt;j1226554518 -->
<g id="edge36" class="edge">
<title>j217806195&#45;&gt;j1226554518</title>
<path fill="none" stroke="black" d="M488.64,-1217.81C488.64,-1210.23 488.64,-1201.1 488.64,-1192.54"/>
<polygon fill="black" stroke="black" points="492.14,-1192.54 488.64,-1182.54 485.14,-1192.54 492.14,-1192.54"/>
</g>
<!-- j3702170893 -->
<g id="node33" class="node">
<title>j3702170893</title>
<polygon fill="none" stroke="blue" points="1207.64,-1181 1001.64,-1181 1001.64,-1145 1207.64,-1145 1207.64,-1181"/>
<text text-anchor="middle" x="1104.64" y="-1159.3" font-family="Times New Roman,serif" font-size="14.00">&lt;RETRO_EMOJI_GIVELOVE&gt;</text>
</g>
<!-- j3681113706&#45;&gt;j3702170893 -->
<g id="edge37" class="edge">
<title>j3681113706&#45;&gt;j3702170893</title>
<path fill="none" stroke="black" d="M1031.88,-1217.81C1043.93,-1208.9 1058.86,-1197.86 1072.05,-1188.1"/>
<polygon fill="black" stroke="black" points="1074.11,-1190.94 1080.07,-1182.17 1069.94,-1185.31 1074.11,-1190.94"/>
</g>
<!-- j4040804548&#45;&gt;j459268637 -->
<g id="edge38" class="edge">
<title>j4040804548&#45;&gt;j459268637</title>
<path fill="none" stroke="black" d="M1238.64,-928.97C1238.64,-912.76 1238.64,-888.06 1238.64,-868.79"/>
<polygon fill="black" stroke="black" points="1242.14,-868.85 1238.64,-858.85 1235.14,-868.85 1242.14,-868.85"/>
</g>
<!-- j2955092272 -->
<g id="node34" class="node">
<title>j2955092272</title>
<ellipse fill="none" stroke="orange" cx="897.64" cy="-658" rx="64.19" ry="18"/>
<text text-anchor="middle" x="897.64" y="-654.3" font-family="Times New Roman,serif" font-size="14.00">+10 Chemistry</text>
</g>
<!-- j1194167040&#45;&gt;j2955092272 -->
<g id="edge39" class="edge">
<title>j1194167040&#45;&gt;j2955092272</title>
<path fill="none" stroke="black" d="M895.06,-766.62C895.55,-746.19 896.37,-711.99 896.95,-687.62"/>
<polygon fill="black" stroke="black" points="900.45,-687.83 897.19,-677.75 893.45,-687.66 900.45,-687.83"/>
</g>
<!-- j4075518201 -->
<g id="node35" class="node">
<title>j4075518201</title>
<polygon fill="none" stroke="blue" points="1225.14,-749 1036.14,-749 1036.14,-713 1225.14,-713 1225.14,-749"/>
<text text-anchor="middle" x="1130.64" y="-727.3" font-family="Times New Roman,serif" font-size="14.00">&lt;RETRO_EMOJI_AOICAT&gt;</text>
</g>
<!-- j459268637&#45;&gt;j4075518201 -->
<g id="edge40" class="edge">
<title>j459268637&#45;&gt;j4075518201</title>
<path fill="none" stroke="black" d="M1221.76,-821.44C1204.22,-804.22 1176.54,-777.05 1156.29,-757.17"/>
<polygon fill="black" stroke="black" points="1158.78,-754.72 1149.19,-750.21 1153.88,-759.71 1158.78,-754.72"/>
</g>
<!-- j1160114699&#45;&gt;Chat ends. -->
<g id="edge41" class="edge">
<title>j1160114699&#45;&gt;Chat ends.</title>
<path fill="none" stroke="black" d="M1583.64,-1090.74C1583.64,-1069.76 1583.64,-1033.28 1583.64,-1002 1583.64,-1002 1583.64,-1002 1583.64,-90 1583.64,-39.83 814.69,-23.58 589.13,-19.9"/>
<polygon fill="black" stroke="black" points="589.43,-16.4 579.38,-19.74 589.32,-23.4 589.43,-16.4"/>
</g>
<!-- j1967527544 -->
<g id="node36" class="node">
<title>j1967527544</title>
<polygon fill="none" stroke="blue" points="580.64,-911 384.64,-911 384.64,-875 580.64,-875 580.64,-911"/>
<text text-anchor="middle" x="482.64" y="-889.3" font-family="Times New Roman,serif" font-size="14.00">... я думаю, что я в порядке...</text>
</g>
<!-- j1226554518&#45;&gt;j1967527544 -->
<g id="edge42" class="edge">
<title>j1226554518&#45;&gt;j1967527544</title>
<path fill="none" stroke="black" d="M488.26,-1144.83C487.25,-1099.93 484.54,-978.69 483.29,-922.86"/>
<polygon fill="black" stroke="black" points="486.79,-922.81 483.06,-912.89 479.79,-922.97 486.79,-922.81"/>
</g>
<!-- j3702170893&#45;&gt;j3228705749 -->
<g id="edge43" class="edge">
<title>j3702170893&#45;&gt;j3228705749</title>
<path fill="none" stroke="black" d="M1110.1,-1144.97C1115.35,-1128.61 1123.38,-1103.59 1129.58,-1084.24"/>
<polygon fill="black" stroke="black" points="1132.89,-1085.37 1132.62,-1074.78 1126.23,-1083.23 1132.89,-1085.37"/>
</g>
<!-- j2680101691 -->
<g id="node37" class="node">
<title>j2680101691</title>
<polygon fill="none" stroke="blue" points="1287.64,-603 507.64,-603 507.64,-567 1287.64,-567 1287.64,-603"/>
<text text-anchor="middle" x="897.64" y="-581.3" font-family="Times New Roman,serif" font-size="14.00">я думаю, для Амира будет очень важно, если все соберутся за столом и будут играть... он такой же, как я. большое сердце&lt;3</text>
</g>
<!-- j2955092272&#45;&gt;j2680101691 -->
<g id="edge44" class="edge">
<title>j2955092272&#45;&gt;j2680101691</title>
<path fill="none" stroke="black" d="M897.64,-639.81C897.64,-632.23 897.64,-623.1 897.64,-614.54"/>
<polygon fill="black" stroke="black" points="901.14,-614.54 897.64,-604.54 894.14,-614.54 901.14,-614.54"/>
</g>
<!-- j4075518201&#45;&gt;j2955092272 -->
<g id="edge45" class="edge">
<title>j4075518201&#45;&gt;j2955092272</title>
<path fill="none" stroke="black" d="M1073.34,-712.54C1035.98,-701.15 987.54,-686.4 950.99,-675.26"/>
<polygon fill="black" stroke="black" points="952.09,-671.93 941.5,-672.37 950.05,-678.63 952.09,-671.93"/>
</g>
<!-- j1967527544&#45;&gt;Chat ends. -->
<g id="edge46" class="edge">
<title>j1967527544&#45;&gt;Chat ends.</title>
<path fill="none" stroke="black" d="M481.85,-874.75C480.96,-853.77 479.64,-817.3 479.64,-786 479.64,-786 479.64,-786 479.64,-90 479.64,-72.35 489.95,-55.81 501.01,-43.15"/>
<polygon fill="black" stroke="black" points="503.31,-45.8 507.63,-36.13 498.22,-41 503.31,-45.8"/>
</g>
<!-- j2166522801 -->
<g id="node38" class="node">
<title>j2166522801</title>
<ellipse fill="none" stroke="orange" cx="858.64" cy="-512" rx="137.58" ry="18"/>
<text text-anchor="middle" x="858.64" y="-508.3" font-family="Times New Roman,serif" font-size="14.00">Boolean AmirRPGAoi is now true.</text>
</g>
<!-- j2680101691&#45;&gt;j2166522801 -->
<g id="edge47" class="edge">
<title>j2680101691&#45;&gt;j2166522801</title>
<path fill="none" stroke="black" d="M888.2,-566.81C883.79,-558.79 878.44,-549.05 873.51,-540.07"/>
<polygon fill="black" stroke="black" points="876.6,-538.44 868.72,-531.36 870.47,-541.81 876.6,-538.44"/>
</g>
<!-- j1687186872 -->
<g id="node39" class="node">
<title>j1687186872</title>
<ellipse fill="none" stroke="orange" cx="788.64" cy="-439" rx="130.78" ry="18"/>
<text text-anchor="middle" x="788.64" y="-435.3" font-family="Times New Roman,serif" font-size="14.00">Check boolean AmirRPGQuincy</text>
</g>
<!-- j2166522801&#45;&gt;j1687186872 -->
<g id="edge48" class="edge">
<title>j2166522801&#45;&gt;j1687186872</title>
<path fill="none" stroke="black" d="M841.69,-493.81C833.18,-485.18 822.71,-474.56 813.32,-465.03"/>
<polygon fill="black" stroke="black" points="816,-462.77 806.49,-458.11 811.02,-467.68 816,-462.77"/>
</g>
<!-- j2937353572 -->
<g id="node40" class="node">
<title>j2937353572</title>
<ellipse fill="none" stroke="orange" cx="788.64" cy="-352" rx="128.08" ry="18"/>
<text text-anchor="middle" x="788.64" y="-348.3" font-family="Times New Roman,serif" font-size="14.00">Check boolean AmirRPGArthur</text>
</g>
<!-- j1687186872&#45;&gt;j2937353572 -->
<g id="edge49" class="edge">
<title>j1687186872&#45;&gt;j2937353572</title>
<path fill="none" stroke="green" d="M788.64,-420.8C788.64,-409.58 788.64,-394.67 788.64,-381.69"/>
<polygon fill="green" stroke="green" points="792.14,-381.98 788.64,-371.98 785.14,-381.98 792.14,-381.98"/>
<text text-anchor="middle" x="799.64" y="-391.8" font-family="Times New Roman,serif" font-size="14.00">true</text>
</g>
<!-- j1992773596 -->
<g id="node41" class="node">
<title>j1992773596</title>
<ellipse fill="none" stroke="orange" cx="647.64" cy="-91" rx="139.98" ry="18"/>
<text text-anchor="middle" x="647.64" y="-87.3" font-family="Times New Roman,serif" font-size="14.00">Boolean AmirRPGAny is now true.</text>
</g>
<!-- j1687186872&#45;&gt;j1992773596 -->
<g id="edge50" class="edge">
<title>j1687186872&#45;&gt;j1992773596</title>
<path fill="none" stroke="brown" d="M699.72,-425.57C659.42,-414.4 620.64,-393.21 620.64,-353 620.64,-353 620.64,-353 620.64,-177 620.64,-157.25 627.34,-136.08 634.07,-119.8"/>
<polygon fill="brown" stroke="brown" points="637.22,-121.35 638.04,-110.78 630.81,-118.53 637.22,-121.35"/>
<text text-anchor="middle" x="633.64" y="-261.3" font-family="Times New Roman,serif" font-size="14.00">false</text>
</g>
<!-- j2937353572&#45;&gt;j1992773596 -->
<g id="edge52" class="edge">
<title>j2937353572&#45;&gt;j1992773596</title>
<path fill="none" stroke="brown" d="M753.9,-334.22C733.39,-322.59 708.6,-305.2 693.64,-283 659.86,-232.87 650.8,-160.6 648.43,-120.87"/>
<polygon fill="brown" stroke="brown" points="651.93,-120.75 647.95,-110.93 644.94,-121.09 651.93,-120.75"/>
<text text-anchor="middle" x="679.64" y="-217.8" font-family="Times New Roman,serif" font-size="14.00">false</text>
</g>
<!-- j1760217149 -->
<g id="node42" class="node">
<title>j1760217149</title>
<ellipse fill="none" stroke="orange" cx="834.64" cy="-265" rx="131.88" ry="18"/>
<text text-anchor="middle" x="834.64" y="-261.3" font-family="Times New Roman,serif" font-size="14.00">Check boolean AmirRPGEleanor</text>
</g>
<!-- j2937353572&#45;&gt;j1760217149 -->
<g id="edge51" class="edge">
<title>j2937353572&#45;&gt;j1760217149</title>
<path fill="none" stroke="green" d="M797.95,-333.8C804.25,-322.16 812.7,-306.55 819.9,-293.24"/>
<polygon fill="green" stroke="green" points="822.94,-294.97 824.62,-284.51 816.79,-291.64 822.94,-294.97"/>
<text text-anchor="middle" x="824.64" y="-304.8" font-family="Times New Roman,serif" font-size="14.00">true</text>
</g>
<!-- j1992773596&#45;&gt;Chat ends. -->
<g id="edge53" class="edge">
<title>j1992773596&#45;&gt;Chat ends.</title>
<path fill="none" stroke="black" d="M618.9,-72.99C602.01,-63 580.54,-50.3 562.67,-39.72"/>
<polygon fill="black" stroke="black" points="564.58,-36.79 554.19,-34.71 561.02,-42.82 564.58,-36.79"/>
</g>
<!-- j1760217149&#45;&gt;j1992773596 -->
<g id="edge55" class="edge">
<title>j1760217149&#45;&gt;j1992773596</title>
<path fill="none" stroke="brown" d="M800.55,-247.21C778.47,-235.15 750.12,-217.28 729.64,-196 704.91,-170.29 711.62,-154.28 688.64,-127 685.59,-123.38 682.14,-119.82 678.57,-116.44"/>
<polygon fill="brown" stroke="brown" points="681.08,-113.99 671.28,-109.95 676.42,-119.21 681.08,-113.99"/>
<text text-anchor="middle" x="742.64" y="-174.3" font-family="Times New Roman,serif" font-size="14.00">false</text>
</g>
<!-- j2625085541 -->
<g id="node43" class="node">
<title>j2625085541</title>
<ellipse fill="none" stroke="orange" cx="888.64" cy="-178" rx="124.28" ry="18"/>
<text text-anchor="middle" x="888.64" y="-174.3" font-family="Times New Roman,serif" font-size="14.00">Check boolean AmirRPGLettie</text>
</g>
<!-- j1760217149&#45;&gt;j2625085541 -->
<g id="edge54" class="edge">
<title>j1760217149&#45;&gt;j2625085541</title>
<path fill="none" stroke="green" d="M845.57,-246.8C853.03,-235.05 863.08,-219.24 871.59,-205.84"/>
<polygon fill="green" stroke="green" points="874.51,-207.77 876.92,-197.45 868.6,-204.02 874.51,-207.77"/>
<text text-anchor="middle" x="875.64" y="-217.8" font-family="Times New Roman,serif" font-size="14.00">true</text>
</g>
<!-- j2625085541&#45;&gt;j1992773596 -->
<g id="edge57" class="edge">
<title>j2625085541&#45;&gt;j1992773596</title>
<path fill="none" stroke="brown" d="M842.74,-160.81C803.54,-146.99 746.98,-127.04 704.84,-112.18"/>
<polygon fill="brown" stroke="brown" points="706.21,-108.95 695.61,-108.92 703.88,-115.55 706.21,-108.95"/>
<text text-anchor="middle" x="794.64" y="-130.8" font-family="Times New Roman,serif" font-size="14.00">false</text>
</g>
<!-- j2677000302 -->
<g id="node44" class="node">
<title>j2677000302</title>
<ellipse fill="none" stroke="orange" cx="939.64" cy="-91" rx="134.58" ry="18"/>
<text text-anchor="middle" x="939.64" y="-87.3" font-family="Times New Roman,serif" font-size="14.00">Boolean AmirRPGAll is now true.</text>
</g>
<!-- j2625085541&#45;&gt;j2677000302 -->
<g id="edge56" class="edge">
<title>j2625085541&#45;&gt;j2677000302</title>
<path fill="none" stroke="green" d="M898.96,-159.8C906.01,-148.05 915.5,-132.24 923.53,-118.84"/>
<polygon fill="green" stroke="green" points="926.41,-120.85 928.56,-110.47 920.41,-117.25 926.41,-120.85"/>
<text text-anchor="middle" x="927.64" y="-130.8" font-family="Times New Roman,serif" font-size="14.00">true</text>
</g>
<!-- j2677000302&#45;&gt;Chat ends. -->
<g id="edge58" class="edge">
<title>j2677000302&#45;&gt;Chat ends.</title>
<path fill="none" stroke="black" d="M859.22,-76.14C777.87,-62.12 654.25,-40.82 583.18,-28.57"/>
<polygon fill="black" stroke="black" points="584.18,-25.19 573.73,-26.94 582.99,-32.09 584.18,-25.19"/>
</g>
</g>
</svg>
