<?xml version="1.0" encoding="UTF-8" standalone="no"?>
<!DOCTYPE svg PUBLIC "-//W3C//DTD SVG 1.1//EN"
 "http://www.w3.org/Graphics/SVG/1.1/DTD/svg11.dtd">
<!-- Generated by graphviz version 7.1.0 (20230121.1956)
 -->
<!-- Pages: 1 -->
<svg width="1722pt" height="3159pt"
 viewBox="0.00 0.00 1722.00 3159.00" xmlns="http://www.w3.org/2000/svg" xmlns:xlink="http://www.w3.org/1999/xlink">
<g id="graph0" class="graph" transform="scale(1 1) rotate(0) translate(4 3155)">
<polygon fill="white" stroke="none" points="-4,4 -4,-3155 1718,-3155 1718,4 -4,4"/>
<!-- HexRankUpTo2 begins. -->
<g id="node1" class="node">
<title>HexRankUpTo2 begins.</title>
<ellipse fill="none" stroke="orange" cx="857" cy="-3133" rx="98.58" ry="18"/>
<text text-anchor="middle" x="857" y="-3129.3" font-family="Times New Roman,serif" font-size="14.00">HexRankUpTo2 begins.</text>
</g>
<!-- j3091661466 -->
<g id="node2" class="node">
<title>j3091661466</title>
<polygon fill="none" stroke="blue" points="1078.5,-3079 635.5,-3079 635.5,-3043 1078.5,-3043 1078.5,-3079"/>
<text text-anchor="middle" x="857" y="-3057.3" font-family="Times New Roman,serif" font-size="14.00">xX GLIMMER Xx: &lt;RETRO_EMOJI_OHNO&gt; нам надо... кормить его?</text>
</g>
<!-- HexRankUpTo2 begins.&#45;&gt;j3091661466 -->
<g id="edge1" class="edge">
<title>HexRankUpTo2 begins.&#45;&gt;j3091661466</title>
<path fill="none" stroke="black" d="M857,-3114.7C857,-3107.41 857,-3098.73 857,-3090.54"/>
<polygon fill="black" stroke="black" points="860.5,-3090.62 857,-3080.62 853.5,-3090.62 860.5,-3090.62"/>
</g>
<!-- j1741306866 -->
<g id="node3" class="node">
<title>j1741306866</title>
<polygon fill="none" stroke="blue" points="1028,-3007 686,-3007 686,-2971 1028,-2971 1028,-3007"/>
<text text-anchor="middle" x="857" y="-2985.3" font-family="Times New Roman,serif" font-size="14.00">H16h V0l7463: закуски?! ГДЕ? хавчик&#45;хавчик&#45;хавчик&#45;&#45;</text>
</g>
<!-- j3091661466&#45;&gt;j1741306866 -->
<g id="edge2" class="edge">
<title>j3091661466&#45;&gt;j1741306866</title>
<path fill="none" stroke="black" d="M857,-3042.7C857,-3035.41 857,-3026.73 857,-3018.54"/>
<polygon fill="black" stroke="black" points="860.5,-3018.62 857,-3008.62 853.5,-3018.62 860.5,-3018.62"/>
</g>
<!-- j206587180 -->
<g id="node4" class="node">
<title>j206587180</title>
<polygon fill="none" stroke="blue" points="929.5,-2935 784.5,-2935 784.5,-2897 929.5,-2897 929.5,-2935"/>
<text text-anchor="middle" x="857" y="-2919.8" font-family="Times New Roman,serif" font-size="14.00">Belladonna ~{@: Это?&#13;</text>
<text text-anchor="middle" x="857" y="-2904.8" font-family="Times New Roman,serif" font-size="14.00">¿Qué?</text>
</g>
<!-- j1741306866&#45;&gt;j206587180 -->
<g id="edge3" class="edge">
<title>j1741306866&#45;&gt;j206587180</title>
<path fill="none" stroke="black" d="M857,-2970.81C857,-2963.59 857,-2954.97 857,-2946.77"/>
<polygon fill="black" stroke="black" points="860.5,-2946.78 857,-2936.78 853.5,-2946.78 860.5,-2946.78"/>
</g>
<!-- j1156190074 -->
<g id="node5" class="node">
<title>j1156190074</title>
<polygon fill="none" stroke="red" points="685.5,-2861 630.5,-2861 630.5,-2825 685.5,-2825 685.5,-2861"/>
<text text-anchor="middle" x="658" y="-2839.3" font-family="Times New Roman,serif" font-size="14.00">Дрон?</text>
</g>
<!-- j206587180&#45;&gt;j1156190074 -->
<g id="edge4" class="edge">
<title>j206587180&#45;&gt;j1156190074</title>
<path fill="none" stroke="black" d="M805.23,-2896.53C771.29,-2884.42 727.62,-2868.84 696.68,-2857.8"/>
<polygon fill="black" stroke="black" points="697.92,-2854.53 687.33,-2854.46 695.57,-2861.12 697.92,-2854.53"/>
</g>
<!-- j421345733 -->
<g id="node6" class="node">
<title>j421345733</title>
<polygon fill="none" stroke="red" points="908.5,-2861 805.5,-2861 805.5,-2825 908.5,-2825 908.5,-2861"/>
<text text-anchor="middle" x="857" y="-2839.3" font-family="Times New Roman,serif" font-size="14.00">Кормить Что?</text>
</g>
<!-- j206587180&#45;&gt;j421345733 -->
<g id="edge5" class="edge">
<title>j206587180&#45;&gt;j421345733</title>
<path fill="none" stroke="black" d="M857,-2896.72C857,-2889.43 857,-2880.86 857,-2872.78"/>
<polygon fill="black" stroke="black" points="860.5,-2873 857,-2863 853.5,-2873 860.5,-2873"/>
</g>
<!-- j2856256190 -->
<g id="node7" class="node">
<title>j2856256190</title>
<polygon fill="none" stroke="red" points="1094.5,-2861 1029.5,-2861 1029.5,-2825 1094.5,-2825 1094.5,-2861"/>
<text text-anchor="middle" x="1062" y="-2839.3" font-family="Times New Roman,serif" font-size="14.00">Техрот?</text>
</g>
<!-- j206587180&#45;&gt;j2856256190 -->
<g id="edge6" class="edge">
<title>j206587180&#45;&gt;j2856256190</title>
<path fill="none" stroke="black" d="M910.33,-2896.53C943.97,-2884.88 986.87,-2870.02 1018.45,-2859.08"/>
<polygon fill="black" stroke="black" points="1019.39,-2862.46 1027.69,-2855.88 1017.1,-2855.85 1019.39,-2862.46"/>
</g>
<!-- j1705533831 -->
<g id="node8" class="node">
<title>j1705533831</title>
<ellipse fill="none" stroke="orange" cx="555" cy="-2771" rx="144.07" ry="18"/>
<text text-anchor="middle" x="555" y="-2767.3" font-family="Times New Roman,serif" font-size="14.00">Boolean HexWhatDrone is now true.</text>
</g>
<!-- j1156190074&#45;&gt;j1705533831 -->
<g id="edge7" class="edge">
<title>j1156190074&#45;&gt;j1705533831</title>
<path fill="none" stroke="black" d="M632.27,-2824.52C619.3,-2815.7 603.38,-2804.88 589.38,-2795.36"/>
<polygon fill="black" stroke="black" points="591.53,-2792.6 581.29,-2789.87 587.6,-2798.39 591.53,-2792.6"/>
</g>
<!-- j1286273991 -->
<g id="node9" class="node">
<title>j1286273991</title>
<ellipse fill="none" stroke="orange" cx="857" cy="-2771" rx="139.98" ry="18"/>
<text text-anchor="middle" x="857" y="-2767.3" font-family="Times New Roman,serif" font-size="14.00">Boolean HexFeedWhat is now true.</text>
</g>
<!-- j421345733&#45;&gt;j1286273991 -->
<g id="edge8" class="edge">
<title>j421345733&#45;&gt;j1286273991</title>
<path fill="none" stroke="black" d="M857,-2824.7C857,-2817.41 857,-2808.73 857,-2800.54"/>
<polygon fill="black" stroke="black" points="860.5,-2800.62 857,-2790.62 853.5,-2800.62 860.5,-2800.62"/>
</g>
<!-- j1189253458 -->
<g id="node10" class="node">
<title>j1189253458</title>
<ellipse fill="none" stroke="orange" cx="1166" cy="-2771" rx="150.57" ry="18"/>
<text text-anchor="middle" x="1166" y="-2767.3" font-family="Times New Roman,serif" font-size="14.00">Boolean HexWhatTechrot is now true.</text>
</g>
<!-- j2856256190&#45;&gt;j1189253458 -->
<g id="edge9" class="edge">
<title>j2856256190&#45;&gt;j1189253458</title>
<path fill="none" stroke="black" d="M1087.98,-2824.52C1101.08,-2815.7 1117.15,-2804.88 1131.29,-2795.36"/>
<polygon fill="black" stroke="black" points="1133.12,-2798.35 1139.46,-2789.86 1129.21,-2792.54 1133.12,-2798.35"/>
</g>
<!-- j2600921848 -->
<g id="node11" class="node">
<title>j2600921848</title>
<polygon fill="none" stroke="blue" points="974,-2717 740,-2717 740,-2681 974,-2681 974,-2717"/>
<text text-anchor="middle" x="857" y="-2695.3" font-family="Times New Roman,serif" font-size="14.00">Salem: Aoi means our jolly little Drone.</text>
</g>
<!-- j1705533831&#45;&gt;j2600921848 -->
<g id="edge10" class="edge">
<title>j1705533831&#45;&gt;j2600921848</title>
<path fill="none" stroke="black" d="M621.28,-2754.64C665.08,-2744.49 722.94,-2731.07 770.38,-2720.08"/>
<polygon fill="black" stroke="black" points="771.15,-2723.49 780.1,-2717.82 769.57,-2716.67 771.15,-2723.49"/>
</g>
<!-- j1286273991&#45;&gt;j2600921848 -->
<g id="edge11" class="edge">
<title>j1286273991&#45;&gt;j2600921848</title>
<path fill="none" stroke="black" d="M857,-2752.7C857,-2745.41 857,-2736.73 857,-2728.54"/>
<polygon fill="black" stroke="black" points="860.5,-2728.62 857,-2718.62 853.5,-2728.62 860.5,-2728.62"/>
</g>
<!-- j1189253458&#45;&gt;j2600921848 -->
<g id="edge12" class="edge">
<title>j1189253458&#45;&gt;j2600921848</title>
<path fill="none" stroke="black" d="M1097.81,-2754.55C1052.87,-2744.37 993.61,-2730.95 945.11,-2719.96"/>
<polygon fill="black" stroke="black" points="945.99,-2716.57 935.46,-2717.77 944.44,-2723.4 945.99,-2716.57"/>
</g>
<!-- j4263257925 -->
<g id="node12" class="node">
<title>j4263257925</title>
<polygon fill="none" stroke="blue" points="1044.5,-2645 669.5,-2645 669.5,-2609 1044.5,-2609 1044.5,-2645"/>
<text text-anchor="middle" x="857" y="-2623.3" font-family="Times New Roman,serif" font-size="14.00">Soldja1Shot1kil: дрон будущего, так сказать. не мой, не наш</text>
</g>
<!-- j2600921848&#45;&gt;j4263257925 -->
<g id="edge13" class="edge">
<title>j2600921848&#45;&gt;j4263257925</title>
<path fill="none" stroke="black" d="M857,-2680.7C857,-2673.41 857,-2664.73 857,-2656.54"/>
<polygon fill="black" stroke="black" points="860.5,-2656.62 857,-2646.62 853.5,-2656.62 860.5,-2656.62"/>
</g>
<!-- j3816995582 -->
<g id="node13" class="node">
<title>j3816995582</title>
<polygon fill="none" stroke="red" points="699.5,-2573 574.5,-2573 574.5,-2537 699.5,-2537 699.5,-2573"/>
<text text-anchor="middle" x="637" y="-2551.3" font-family="Times New Roman,serif" font-size="14.00">Это был подарок.</text>
</g>
<!-- j4263257925&#45;&gt;j3816995582 -->
<g id="edge14" class="edge">
<title>j4263257925&#45;&gt;j3816995582</title>
<path fill="none" stroke="black" d="M802.05,-2608.52C771.88,-2598.92 734.27,-2586.95 702.57,-2576.86"/>
<polygon fill="black" stroke="black" points="703.66,-2573.54 693.07,-2573.84 701.54,-2580.21 703.66,-2573.54"/>
</g>
<!-- j2419323895 -->
<g id="node14" class="node">
<title>j2419323895</title>
<polygon fill="none" stroke="red" points="996,-2573 718,-2573 718,-2537 996,-2537 996,-2573"/>
<text text-anchor="middle" x="857" y="-2551.3" font-family="Times New Roman,serif" font-size="14.00">Теперь он принадлежит торговому центру.</text>
</g>
<!-- j4263257925&#45;&gt;j2419323895 -->
<g id="edge15" class="edge">
<title>j4263257925&#45;&gt;j2419323895</title>
<path fill="none" stroke="black" d="M857,-2608.7C857,-2601.41 857,-2592.73 857,-2584.54"/>
<polygon fill="black" stroke="black" points="860.5,-2584.62 857,-2574.62 853.5,-2584.62 860.5,-2584.62"/>
</g>
<!-- j619710813 -->
<g id="node15" class="node">
<title>j619710813</title>
<polygon fill="none" stroke="red" points="1367.5,-2573 1014.5,-2573 1014.5,-2537 1367.5,-2537 1367.5,-2573"/>
<text text-anchor="middle" x="1191" y="-2551.3" font-family="Times New Roman,serif" font-size="14.00">Следующий не будет бесплатным, если сломаете этого.</text>
</g>
<!-- j4263257925&#45;&gt;j619710813 -->
<g id="edge16" class="edge">
<title>j4263257925&#45;&gt;j619710813</title>
<path fill="none" stroke="black" d="M940.42,-2608.52C987.93,-2598.56 1047.61,-2586.05 1096.8,-2575.74"/>
<polygon fill="black" stroke="black" points="1097.22,-2579.23 1106.29,-2573.75 1095.79,-2572.38 1097.22,-2579.23"/>
</g>
<!-- j2565902018 -->
<g id="node16" class="node">
<title>j2565902018</title>
<ellipse fill="none" stroke="orange" cx="690" cy="-2411" rx="139.18" ry="18"/>
<text text-anchor="middle" x="690" y="-2407.3" font-family="Times New Roman,serif" font-size="14.00">Boolean HexDroneGift is now true.</text>
</g>
<!-- j3816995582&#45;&gt;j2565902018 -->
<g id="edge17" class="edge">
<title>j3816995582&#45;&gt;j2565902018</title>
<path fill="none" stroke="black" d="M643.5,-2536.59C652.53,-2512.4 668.96,-2468.36 679.68,-2439.65"/>
<polygon fill="black" stroke="black" points="682.87,-2441.12 683.08,-2430.53 676.31,-2438.67 682.87,-2441.12"/>
</g>
<!-- j931627182 -->
<g id="node17" class="node">
<title>j931627182</title>
<ellipse fill="none" stroke="orange" cx="857" cy="-2483" rx="140.28" ry="18"/>
<text text-anchor="middle" x="857" y="-2479.3" font-family="Times New Roman,serif" font-size="14.00">Boolean HexDroneMall is now true.</text>
</g>
<!-- j2419323895&#45;&gt;j931627182 -->
<g id="edge18" class="edge">
<title>j2419323895&#45;&gt;j931627182</title>
<path fill="none" stroke="black" d="M857,-2536.7C857,-2529.41 857,-2520.73 857,-2512.54"/>
<polygon fill="black" stroke="black" points="860.5,-2512.62 857,-2502.62 853.5,-2512.62 860.5,-2512.62"/>
</g>
<!-- j722474184 -->
<g id="node18" class="node">
<title>j722474184</title>
<polygon fill="none" stroke="blue" points="1264.5,-2501 1049.5,-2501 1049.5,-2465 1264.5,-2465 1264.5,-2501"/>
<text text-anchor="middle" x="1157" y="-2479.3" font-family="Times New Roman,serif" font-size="14.00">Soldja1Shot1kil: хахах ну конечно</text>
</g>
<!-- j619710813&#45;&gt;j722474184 -->
<g id="edge19" class="edge">
<title>j619710813&#45;&gt;j722474184</title>
<path fill="none" stroke="black" d="M1182.6,-2536.7C1178.89,-2529.07 1174.44,-2519.92 1170.31,-2511.4"/>
<polygon fill="black" stroke="black" points="1173.49,-2509.93 1165.97,-2502.47 1167.19,-2512.99 1173.49,-2509.93"/>
</g>
<!-- j450336085 -->
<g id="node19" class="node">
<title>j450336085</title>
<polygon fill="none" stroke="blue" points="1258,-2357 456,-2357 456,-2321 1258,-2321 1258,-2357"/>
<text text-anchor="middle" x="857" y="-2335.3" font-family="Times New Roman,serif" font-size="14.00">Broadsword: У нас и так полно техники на обслуживании. Теперь он твой, Скиталец. Если поломается, сам чини или утилизируй.</text>
</g>
<!-- j2565902018&#45;&gt;j450336085 -->
<g id="edge20" class="edge">
<title>j2565902018&#45;&gt;j450336085</title>
<path fill="none" stroke="black" d="M729.58,-2393.41C752.09,-2383.97 780.57,-2372.04 804.89,-2361.84"/>
<polygon fill="black" stroke="black" points="806.11,-2365.13 813.98,-2358.03 803.41,-2358.67 806.11,-2365.13"/>
</g>
<!-- j931627182&#45;&gt;j450336085 -->
<g id="edge21" class="edge">
<title>j931627182&#45;&gt;j450336085</title>
<path fill="none" stroke="black" d="M857,-2464.59C857,-2440.61 857,-2397.14 857,-2368.42"/>
<polygon fill="black" stroke="black" points="860.5,-2368.62 857,-2358.62 853.5,-2368.62 860.5,-2368.62"/>
</g>
<!-- j3168641006 -->
<g id="node20" class="node">
<title>j3168641006</title>
<ellipse fill="none" stroke="orange" cx="1074" cy="-2411" rx="141.07" ry="18"/>
<text text-anchor="middle" x="1074" y="-2407.3" font-family="Times New Roman,serif" font-size="14.00">Boolean HexDroneFree is now true.</text>
</g>
<!-- j722474184&#45;&gt;j3168641006 -->
<g id="edge22" class="edge">
<title>j722474184&#45;&gt;j3168641006</title>
<path fill="none" stroke="black" d="M1136.48,-2464.7C1126.33,-2456.14 1113.91,-2445.66 1102.82,-2436.3"/>
<polygon fill="black" stroke="black" points="1105.34,-2433.85 1095.44,-2430.08 1100.83,-2439.2 1105.34,-2433.85"/>
</g>
<!-- j4085129593 -->
<g id="node21" class="node">
<title>j4085129593</title>
<polygon fill="none" stroke="blue" points="1164,-2285 550,-2285 550,-2249 1164,-2249 1164,-2285"/>
<text text-anchor="middle" x="857" y="-2263.3" font-family="Times New Roman,serif" font-size="14.00">H16h V0l7463: амир предлагает скидку на услуги по ремонту. но только токены в качестве оплаты.</text>
</g>
<!-- j450336085&#45;&gt;j4085129593 -->
<g id="edge23" class="edge">
<title>j450336085&#45;&gt;j4085129593</title>
<path fill="none" stroke="black" d="M857,-2320.7C857,-2313.41 857,-2304.73 857,-2296.54"/>
<polygon fill="black" stroke="black" points="860.5,-2296.62 857,-2286.62 853.5,-2296.62 860.5,-2296.62"/>
</g>
<!-- j3168641006&#45;&gt;j450336085 -->
<g id="edge24" class="edge">
<title>j3168641006&#45;&gt;j450336085</title>
<path fill="none" stroke="black" d="M1023.67,-2393.76C993.41,-2384 954.58,-2371.48 922.02,-2360.97"/>
<polygon fill="black" stroke="black" points="923.27,-2357.7 912.67,-2357.96 921.12,-2364.36 923.27,-2357.7"/>
</g>
<!-- j3718096491 -->
<g id="node22" class="node">
<title>j3718096491</title>
<polygon fill="none" stroke="blue" points="1185,-2213 529,-2213 529,-2177 1185,-2177 1185,-2213"/>
<text text-anchor="middle" x="857" y="-2191.3" font-family="Times New Roman,serif" font-size="14.00">xX GLIMMER Xx: аллооо? кормить его? Это как вообще? я не шарю, как работают штуки из будущего....</text>
</g>
<!-- j4085129593&#45;&gt;j3718096491 -->
<g id="edge25" class="edge">
<title>j4085129593&#45;&gt;j3718096491</title>
<path fill="none" stroke="black" d="M857,-2248.7C857,-2241.41 857,-2232.73 857,-2224.54"/>
<polygon fill="black" stroke="black" points="860.5,-2224.62 857,-2214.62 853.5,-2224.62 860.5,-2224.62"/>
</g>
<!-- j1937398242 -->
<g id="node23" class="node">
<title>j1937398242</title>
<polygon fill="none" stroke="red" points="712.5,-2141 517.5,-2141 517.5,-2105 712.5,-2105 712.5,-2141"/>
<text text-anchor="middle" x="615" y="-2119.3" font-family="Times New Roman,serif" font-size="14.00">Не, представь, что это магия.</text>
</g>
<!-- j3718096491&#45;&gt;j1937398242 -->
<g id="edge26" class="edge">
<title>j3718096491&#45;&gt;j1937398242</title>
<path fill="none" stroke="black" d="M796.56,-2176.52C762.94,-2166.79 720.91,-2154.64 685.76,-2144.47"/>
<polygon fill="black" stroke="black" points="687.12,-2141.22 676.54,-2141.8 685.18,-2147.94 687.12,-2141.22"/>
</g>
<!-- j699579378 -->
<g id="node24" class="node">
<title>j699579378</title>
<polygon fill="none" stroke="red" points="983,-2141 731,-2141 731,-2105 983,-2105 983,-2141"/>
<text text-anchor="middle" x="857" y="-2119.3" font-family="Times New Roman,serif" font-size="14.00">Not a crumb, but some by proxy, I guess.</text>
</g>
<!-- j3718096491&#45;&gt;j699579378 -->
<g id="edge27" class="edge">
<title>j3718096491&#45;&gt;j699579378</title>
<path fill="none" stroke="black" d="M857,-2176.7C857,-2169.41 857,-2160.73 857,-2152.54"/>
<polygon fill="black" stroke="black" points="860.5,-2152.62 857,-2142.62 853.5,-2152.62 860.5,-2152.62"/>
</g>
<!-- j4180621213 -->
<g id="node25" class="node">
<title>j4180621213</title>
<polygon fill="none" stroke="red" points="1282.5,-2141 1001.5,-2141 1001.5,-2105 1282.5,-2105 1282.5,-2141"/>
<text text-anchor="middle" x="1142" y="-2119.3" font-family="Times New Roman,serif" font-size="14.00">Nope, but Amir can probably make it go faster.</text>
</g>
<!-- j3718096491&#45;&gt;j4180621213 -->
<g id="edge28" class="edge">
<title>j3718096491&#45;&gt;j4180621213</title>
<path fill="none" stroke="black" d="M928.18,-2176.52C968.29,-2166.67 1018.55,-2154.32 1060.27,-2144.07"/>
<polygon fill="black" stroke="black" points="1060.89,-2147.53 1069.76,-2141.74 1059.22,-2140.73 1060.89,-2147.53"/>
</g>
<!-- j3996833408 -->
<g id="node26" class="node">
<title>j3996833408</title>
<ellipse fill="none" stroke="orange" cx="688" cy="-1979" rx="136.48" ry="18"/>
<text text-anchor="middle" x="688" y="-1975.3" font-family="Times New Roman,serif" font-size="14.00">Boolean HexFixMagic is now true.</text>
</g>
<!-- j1937398242&#45;&gt;j3996833408 -->
<g id="edge29" class="edge">
<title>j1937398242&#45;&gt;j3996833408</title>
<path fill="none" stroke="black" d="M623.95,-2104.59C636.44,-2080.29 659.22,-2035.97 673.98,-2007.27"/>
<polygon fill="black" stroke="black" points="677.05,-2008.95 678.51,-1998.46 670.83,-2005.75 677.05,-2008.95"/>
</g>
<!-- j4072216913 -->
<g id="node27" class="node">
<title>j4072216913</title>
<ellipse fill="none" stroke="orange" cx="857" cy="-2051" rx="146.47" ry="18"/>
<text text-anchor="middle" x="857" y="-2047.3" font-family="Times New Roman,serif" font-size="14.00">Boolean HexFixByProxy is now true.</text>
</g>
<!-- j699579378&#45;&gt;j4072216913 -->
<g id="edge30" class="edge">
<title>j699579378&#45;&gt;j4072216913</title>
<path fill="none" stroke="black" d="M857,-2104.7C857,-2097.41 857,-2088.73 857,-2080.54"/>
<polygon fill="black" stroke="black" points="860.5,-2080.62 857,-2070.62 853.5,-2080.62 860.5,-2080.62"/>
</g>
<!-- j3797085813 -->
<g id="node28" class="node">
<title>j3797085813</title>
<polygon fill="none" stroke="blue" points="1216,-2069 1036,-2069 1036,-2033 1216,-2033 1216,-2069"/>
<text text-anchor="middle" x="1126" y="-2047.3" font-family="Times New Roman,serif" font-size="14.00">H16h V0l7463: Разгоняю!!!!</text>
</g>
<!-- j4180621213&#45;&gt;j3797085813 -->
<g id="edge31" class="edge">
<title>j4180621213&#45;&gt;j3797085813</title>
<path fill="none" stroke="black" d="M1138.04,-2104.7C1136.36,-2097.32 1134.35,-2088.52 1132.46,-2080.25"/>
<polygon fill="black" stroke="black" points="1135.89,-2079.55 1130.25,-2070.58 1129.06,-2081.11 1135.89,-2079.55"/>
</g>
<!-- j1021225708 -->
<g id="node29" class="node">
<title>j1021225708</title>
<polygon fill="none" stroke="blue" points="1017,-1925 697,-1925 697,-1872 1017,-1872 1017,-1925"/>
<text text-anchor="middle" x="857" y="-1909.8" font-family="Times New Roman,serif" font-size="14.00">Belladonna ~{@: Фух, это радует&#13;</text>
<text text-anchor="middle" x="857" y="-1894.8" font-family="Times New Roman,serif" font-size="14.00">Самим бы разобраться с едой, а тут ещё один рот&#13;</text>
<text text-anchor="middle" x="857" y="-1879.8" font-family="Times New Roman,serif" font-size="14.00">Иначе бы вернули &quot;отправителю&quot;</text>
</g>
<!-- j3996833408&#45;&gt;j1021225708 -->
<g id="edge32" class="edge">
<title>j3996833408&#45;&gt;j1021225708</title>
<path fill="none" stroke="black" d="M724.25,-1961.16C743.68,-1952.14 768.23,-1940.73 790.91,-1930.2"/>
<polygon fill="black" stroke="black" points="792.21,-1933.45 799.81,-1926.07 789.26,-1927.1 792.21,-1933.45"/>
</g>
<!-- j4072216913&#45;&gt;j1021225708 -->
<g id="edge33" class="edge">
<title>j4072216913&#45;&gt;j1021225708</title>
<path fill="none" stroke="black" d="M857,-2032.74C857,-2009.39 857,-1967.15 857,-1936.47"/>
<polygon fill="black" stroke="black" points="860.5,-1936.86 857,-1926.86 853.5,-1936.86 860.5,-1936.86"/>
</g>
<!-- j2748959516 -->
<g id="node30" class="node">
<title>j2748959516</title>
<ellipse fill="none" stroke="orange" cx="1066" cy="-1979" rx="136.48" ry="18"/>
<text text-anchor="middle" x="1066" y="-1975.3" font-family="Times New Roman,serif" font-size="14.00">Boolean HexFixFaster is now true.</text>
</g>
<!-- j3797085813&#45;&gt;j2748959516 -->
<g id="edge34" class="edge">
<title>j3797085813&#45;&gt;j2748959516</title>
<path fill="none" stroke="black" d="M1111.17,-2032.7C1104.19,-2024.56 1095.73,-2014.69 1088.03,-2005.7"/>
<polygon fill="black" stroke="black" points="1090.81,-2003.57 1081.65,-1998.25 1085.5,-2008.12 1090.81,-2003.57"/>
</g>
<!-- j1145649073 -->
<g id="node31" class="node">
<title>j1145649073</title>
<polygon fill="none" stroke="blue" points="1108,-1836 606,-1836 606,-1800 1108,-1800 1108,-1836"/>
<text text-anchor="middle" x="857" y="-1814.3" font-family="Times New Roman,serif" font-size="14.00">Soldja1Shot1kil: тип не ты ли, лэтти, уже добавила 4 рта? крысы твои и всё такое</text>
</g>
<!-- j1021225708&#45;&gt;j1145649073 -->
<g id="edge35" class="edge">
<title>j1021225708&#45;&gt;j1145649073</title>
<path fill="none" stroke="black" d="M857,-1871.8C857,-1864.08 857,-1855.56 857,-1847.66"/>
<polygon fill="black" stroke="black" points="860.5,-1847.84 857,-1837.84 853.5,-1847.84 860.5,-1847.84"/>
</g>
<!-- j2748959516&#45;&gt;j1021225708 -->
<g id="edge36" class="edge">
<title>j2748959516&#45;&gt;j1021225708</title>
<path fill="none" stroke="black" d="M1022.19,-1961.54C997.35,-1952.21 965.51,-1940.26 936.42,-1929.33"/>
<polygon fill="black" stroke="black" points="937.86,-1926.13 927.27,-1925.89 935.4,-1932.68 937.86,-1926.13"/>
</g>
<!-- j339627748 -->
<g id="node32" class="node">
<title>j339627748</title>
<polygon fill="none" stroke="blue" points="1176,-1764 538,-1764 538,-1728 1176,-1728 1176,-1764"/>
<text text-anchor="middle" x="857" y="-1742.3" font-family="Times New Roman,serif" font-size="14.00">H16h V0l7463: ээээ, технически 5, потому что есть ещё гигантский кот, который хочет сожрать крыс...</text>
</g>
<!-- j1145649073&#45;&gt;j339627748 -->
<g id="edge37" class="edge">
<title>j1145649073&#45;&gt;j339627748</title>
<path fill="none" stroke="black" d="M857,-1799.7C857,-1792.41 857,-1783.73 857,-1775.54"/>
<polygon fill="black" stroke="black" points="860.5,-1775.62 857,-1765.62 853.5,-1775.62 860.5,-1775.62"/>
</g>
<!-- j4057717191 -->
<g id="node33" class="node">
<title>j4057717191</title>
<polygon fill="none" stroke="blue" points="1048.5,-1692 665.5,-1692 665.5,-1656 1048.5,-1656 1048.5,-1692"/>
<text text-anchor="middle" x="857" y="-1670.3" font-family="Times New Roman,serif" font-size="14.00">xX GLIMMER Xx: амир! никто никого не собирается жрать!</text>
</g>
<!-- j339627748&#45;&gt;j4057717191 -->
<g id="edge38" class="edge">
<title>j339627748&#45;&gt;j4057717191</title>
<path fill="none" stroke="black" d="M857,-1727.7C857,-1720.41 857,-1711.73 857,-1703.54"/>
<polygon fill="black" stroke="black" points="860.5,-1703.62 857,-1693.62 853.5,-1703.62 860.5,-1703.62"/>
</g>
<!-- j780095331 -->
<g id="node34" class="node">
<title>j780095331</title>
<polygon fill="none" stroke="blue" points="903.5,-1620 810.5,-1620 810.5,-1584 903.5,-1584 903.5,-1620"/>
<text text-anchor="middle" x="857" y="-1598.3" font-family="Times New Roman,serif" font-size="14.00">Salem: Жаль.</text>
</g>
<!-- j4057717191&#45;&gt;j780095331 -->
<g id="edge39" class="edge">
<title>j4057717191&#45;&gt;j780095331</title>
<path fill="none" stroke="black" d="M857,-1655.7C857,-1648.41 857,-1639.73 857,-1631.54"/>
<polygon fill="black" stroke="black" points="860.5,-1631.62 857,-1621.62 853.5,-1631.62 860.5,-1631.62"/>
</g>
<!-- j925282284 -->
<g id="node35" class="node">
<title>j925282284</title>
<polygon fill="none" stroke="blue" points="1062,-1548 652,-1548 652,-1512 1062,-1512 1062,-1548"/>
<text text-anchor="middle" x="857" y="-1526.3" font-family="Times New Roman,serif" font-size="14.00">Broadsword: Чтоб Сол побрал, я не успеваю печатать так быстро</text>
</g>
<!-- j780095331&#45;&gt;j925282284 -->
<g id="edge40" class="edge">
<title>j780095331&#45;&gt;j925282284</title>
<path fill="none" stroke="black" d="M857,-1583.7C857,-1576.41 857,-1567.73 857,-1559.54"/>
<polygon fill="black" stroke="black" points="860.5,-1559.62 857,-1549.62 853.5,-1559.62 860.5,-1559.62"/>
</g>
<!-- j2550529709 -->
<g id="node36" class="node">
<title>j2550529709</title>
<polygon fill="none" stroke="blue" points="1002,-1476 712,-1476 712,-1440 1002,-1440 1002,-1476"/>
<text text-anchor="middle" x="857" y="-1454.3" font-family="Times New Roman,serif" font-size="14.00">H16h V0l7463: как мемемеме? Мемеме? Меее?</text>
</g>
<!-- j925282284&#45;&gt;j2550529709 -->
<g id="edge41" class="edge">
<title>j925282284&#45;&gt;j2550529709</title>
<path fill="none" stroke="black" d="M857,-1511.7C857,-1504.41 857,-1495.73 857,-1487.54"/>
<polygon fill="black" stroke="black" points="860.5,-1487.62 857,-1477.62 853.5,-1487.62 860.5,-1487.62"/>
</g>
<!-- j3691470793 -->
<g id="node37" class="node">
<title>j3691470793</title>
<polygon fill="none" stroke="blue" points="942,-1404 772,-1404 772,-1368 942,-1368 942,-1404"/>
<text text-anchor="middle" x="857" y="-1382.3" font-family="Times New Roman,serif" font-size="14.00">Broadsword: ПРЕКРАТИ!</text>
</g>
<!-- j2550529709&#45;&gt;j3691470793 -->
<g id="edge42" class="edge">
<title>j2550529709&#45;&gt;j3691470793</title>
<path fill="none" stroke="black" d="M857,-1439.7C857,-1432.41 857,-1423.73 857,-1415.54"/>
<polygon fill="black" stroke="black" points="860.5,-1415.62 857,-1405.62 853.5,-1415.62 860.5,-1415.62"/>
</g>
<!-- j2364348932 -->
<g id="node38" class="node">
<title>j2364348932</title>
<polygon fill="none" stroke="blue" points="1714,-1332 0,-1332 0,-1296 1714,-1296 1714,-1332"/>
<text text-anchor="middle" x="857" y="-1310.3" font-family="Times New Roman,serif" font-size="14.00">Broadsword: Еды у нас полно. Я считал. И я заметил, кто как обедает: Куинси обедает первым, один. Потом Лэтти, почти одна, крысы не в счёт. Амир, быстрый едок, тоже один. Аои и я обычно после Амира, но чаще она передо мной. Элеанор всегда ест последней. Тоже одна.</text>
</g>
<!-- j3691470793&#45;&gt;j2364348932 -->
<g id="edge43" class="edge">
<title>j3691470793&#45;&gt;j2364348932</title>
<path fill="none" stroke="black" d="M857,-1367.7C857,-1360.41 857,-1351.73 857,-1343.54"/>
<polygon fill="black" stroke="black" points="860.5,-1343.62 857,-1333.62 853.5,-1343.62 860.5,-1343.62"/>
</g>
<!-- j232619842 -->
<g id="node39" class="node">
<title>j232619842</title>
<polygon fill="none" stroke="red" points="643,-1260 589,-1260 589,-1224 643,-1224 643,-1260"/>
<text text-anchor="middle" x="616" y="-1238.3" font-family="Times New Roman,serif" font-size="14.00">А я?</text>
</g>
<!-- j2364348932&#45;&gt;j232619842 -->
<g id="edge44" class="edge">
<title>j2364348932&#45;&gt;j232619842</title>
<path fill="none" stroke="black" d="M796.81,-1295.52C752.01,-1282.51 692.24,-1265.14 653.93,-1254.02"/>
<polygon fill="black" stroke="black" points="655.27,-1250.76 644.7,-1251.33 653.32,-1257.49 655.27,-1250.76"/>
</g>
<!-- j800841753 -->
<g id="node40" class="node">
<title>j800841753</title>
<polygon fill="none" stroke="red" points="972.5,-1260 741.5,-1260 741.5,-1224 972.5,-1224 972.5,-1260"/>
<text text-anchor="middle" x="857" y="-1238.3" font-family="Times New Roman,serif" font-size="14.00">Ты за моим расписанием следишь?</text>
</g>
<!-- j2364348932&#45;&gt;j800841753 -->
<g id="edge45" class="edge">
<title>j2364348932&#45;&gt;j800841753</title>
<path fill="none" stroke="black" d="M857,-1295.7C857,-1288.41 857,-1279.73 857,-1271.54"/>
<polygon fill="black" stroke="black" points="860.5,-1271.62 857,-1261.62 853.5,-1271.62 860.5,-1271.62"/>
</g>
<!-- j1885410162 -->
<g id="node41" class="node">
<title>j1885410162</title>
<polygon fill="none" stroke="red" points="1183,-1260 1049,-1260 1049,-1224 1183,-1224 1183,-1260"/>
<text text-anchor="middle" x="1116" y="-1238.3" font-family="Times New Roman,serif" font-size="14.00">И я ел всегда один.</text>
</g>
<!-- j2364348932&#45;&gt;j1885410162 -->
<g id="edge46" class="edge">
<title>j2364348932&#45;&gt;j1885410162</title>
<path fill="none" stroke="black" d="M921.69,-1295.52C957.83,-1285.75 1003.04,-1273.53 1040.75,-1263.34"/>
<polygon fill="black" stroke="black" points="1041.49,-1266.76 1050.23,-1260.78 1039.66,-1260.01 1041.49,-1266.76"/>
</g>
<!-- j3673948033 -->
<g id="node42" class="node">
<title>j3673948033</title>
<ellipse fill="none" stroke="orange" cx="536" cy="-1170" rx="147.57" ry="18"/>
<text text-anchor="middle" x="536" y="-1166.3" font-family="Times New Roman,serif" font-size="14.00">Boolean HexFoodNotMe is now true.</text>
</g>
<!-- j232619842&#45;&gt;j3673948033 -->
<g id="edge47" class="edge">
<title>j232619842&#45;&gt;j3673948033</title>
<path fill="none" stroke="black" d="M596.22,-1223.7C586.54,-1215.22 574.7,-1204.86 564.09,-1195.58"/>
<polygon fill="black" stroke="black" points="566.52,-1193.05 556.69,-1189.1 561.91,-1198.32 566.52,-1193.05"/>
</g>
<!-- j1304123877 -->
<g id="node43" class="node">
<title>j1304123877</title>
<ellipse fill="none" stroke="orange" cx="857" cy="-1170" rx="155.17" ry="18"/>
<text text-anchor="middle" x="857" y="-1166.3" font-family="Times New Roman,serif" font-size="14.00">Boolean HexFoodSchedule is now true.</text>
</g>
<!-- j800841753&#45;&gt;j1304123877 -->
<g id="edge48" class="edge">
<title>j800841753&#45;&gt;j1304123877</title>
<path fill="none" stroke="black" d="M857,-1223.7C857,-1216.41 857,-1207.73 857,-1199.54"/>
<polygon fill="black" stroke="black" points="860.5,-1199.62 857,-1189.62 853.5,-1199.62 860.5,-1199.62"/>
</g>
<!-- j2644281264 -->
<g id="node44" class="node">
<title>j2644281264</title>
<ellipse fill="none" stroke="orange" cx="1174" cy="-1170" rx="143.77" ry="18"/>
<text text-anchor="middle" x="1174" y="-1166.3" font-family="Times New Roman,serif" font-size="14.00">Boolean HexFoodAlone is now true.</text>
</g>
<!-- j1885410162&#45;&gt;j2644281264 -->
<g id="edge49" class="edge">
<title>j1885410162&#45;&gt;j2644281264</title>
<path fill="none" stroke="black" d="M1130.34,-1223.7C1137.08,-1215.56 1145.26,-1205.69 1152.7,-1196.7"/>
<polygon fill="black" stroke="black" points="1155.18,-1199.2 1158.86,-1189.27 1149.79,-1194.74 1155.18,-1199.2"/>
</g>
<!-- j597349402 -->
<g id="node45" class="node">
<title>j597349402</title>
<polygon fill="none" stroke="blue" points="1330.5,-1116 383.5,-1116 383.5,-1080 1330.5,-1080 1330.5,-1116"/>
<text text-anchor="middle" x="857" y="-1094.3" font-family="Times New Roman,serif" font-size="14.00">xX GLIMMER Xx: может, в следующий раз составишь мне компанию? все могут ко мне присоединиться... я просто думал, что все хотят побыть одни…</text>
</g>
<!-- j3673948033&#45;&gt;j597349402 -->
<g id="edge50" class="edge">
<title>j3673948033&#45;&gt;j597349402</title>
<path fill="none" stroke="black" d="M606.05,-1153.72C652.97,-1143.49 715.2,-1129.92 765.95,-1118.86"/>
<polygon fill="black" stroke="black" points="766.42,-1122.33 775.45,-1116.78 764.93,-1115.5 766.42,-1122.33"/>
</g>
<!-- j1304123877&#45;&gt;j597349402 -->
<g id="edge51" class="edge">
<title>j1304123877&#45;&gt;j597349402</title>
<path fill="none" stroke="black" d="M857,-1151.7C857,-1144.41 857,-1135.73 857,-1127.54"/>
<polygon fill="black" stroke="black" points="860.5,-1127.62 857,-1117.62 853.5,-1127.62 860.5,-1127.62"/>
</g>
<!-- j2644281264&#45;&gt;j597349402 -->
<g id="edge52" class="edge">
<title>j2644281264&#45;&gt;j597349402</title>
<path fill="none" stroke="black" d="M1105.22,-1153.81C1058.91,-1143.59 997.38,-1130 947.17,-1118.91"/>
<polygon fill="black" stroke="black" points="947.98,-1115.51 937.46,-1116.77 946.47,-1122.34 947.98,-1115.51"/>
</g>
<!-- j322552983 -->
<g id="node46" class="node">
<title>j322552983</title>
<polygon fill="none" stroke="blue" points="1121,-1044 593,-1044 593,-1008 1121,-1008 1121,-1044"/>
<text text-anchor="middle" x="857" y="-1022.3" font-family="Times New Roman,serif" font-size="14.00">H16h V0l7463: я обожаю есть, буду с кем угодно, 6 кусочков для Амира! ржунимагу</text>
</g>
<!-- j597349402&#45;&gt;j322552983 -->
<g id="edge53" class="edge">
<title>j597349402&#45;&gt;j322552983</title>
<path fill="none" stroke="black" d="M857,-1079.7C857,-1072.41 857,-1063.73 857,-1055.54"/>
<polygon fill="black" stroke="black" points="860.5,-1055.62 857,-1045.62 853.5,-1055.62 860.5,-1055.62"/>
</g>
<!-- j3775721993 -->
<g id="node47" class="node">
<title>j3775721993</title>
<polygon fill="none" stroke="blue" points="1151.5,-972 562.5,-972 562.5,-936 1151.5,-936 1151.5,-972"/>
<text text-anchor="middle" x="857" y="-950.3" font-family="Times New Roman,serif" font-size="14.00">Soldja1Shot1kil: ну раз Артур говорит, что еды у нас хватает, надо кормить растущего малыша</text>
</g>
<!-- j322552983&#45;&gt;j3775721993 -->
<g id="edge54" class="edge">
<title>j322552983&#45;&gt;j3775721993</title>
<path fill="none" stroke="black" d="M857,-1007.7C857,-1000.41 857,-991.73 857,-983.54"/>
<polygon fill="black" stroke="black" points="860.5,-983.62 857,-973.62 853.5,-983.62 860.5,-983.62"/>
</g>
<!-- j442439156 -->
<g id="node48" class="node">
<title>j442439156</title>
<polygon fill="none" stroke="blue" points="1234.5,-900 479.5,-900 479.5,-864 1234.5,-864 1234.5,-900"/>
<text text-anchor="middle" x="857" y="-878.3" font-family="Times New Roman,serif" font-size="14.00">H16h V0l7463: ЭЙ! Я вообще&#45;то, походу, уже выше тебя, так что... почему ты так сказал? Чтоб я вырос ЕЩЁ больше? Ха!</text>
</g>
<!-- j3775721993&#45;&gt;j442439156 -->
<g id="edge55" class="edge">
<title>j3775721993&#45;&gt;j442439156</title>
<path fill="none" stroke="black" d="M857,-935.7C857,-928.41 857,-919.73 857,-911.54"/>
<polygon fill="black" stroke="black" points="860.5,-911.62 857,-901.62 853.5,-911.62 860.5,-911.62"/>
</g>
<!-- j13593818 -->
<g id="node49" class="node">
<title>j13593818</title>
<polygon fill="none" stroke="red" points="735,-828 307,-828 307,-792 735,-792 735,-828"/>
<text text-anchor="middle" x="521" y="-806.3" font-family="Times New Roman,serif" font-size="14.00">Если все будем есть вместе, будет прикольный командный момент.</text>
</g>
<!-- j442439156&#45;&gt;j13593818 -->
<g id="edge56" class="edge">
<title>j442439156&#45;&gt;j13593818</title>
<path fill="none" stroke="black" d="M773.08,-863.52C725.28,-853.56 665.25,-841.05 615.76,-830.74"/>
<polygon fill="black" stroke="black" points="616.71,-827.36 606.21,-828.75 615.28,-834.22 616.71,-827.36"/>
</g>
<!-- j3440853969 -->
<g id="node50" class="node">
<title>j3440853969</title>
<polygon fill="none" stroke="red" points="960,-828 754,-828 754,-792 960,-792 960,-828"/>
<text text-anchor="middle" x="857" y="-806.3" font-family="Times New Roman,serif" font-size="14.00">Я бы обожал обед с командой.</text>
</g>
<!-- j442439156&#45;&gt;j3440853969 -->
<g id="edge57" class="edge">
<title>j442439156&#45;&gt;j3440853969</title>
<path fill="none" stroke="black" d="M857,-863.7C857,-856.41 857,-847.73 857,-839.54"/>
<polygon fill="black" stroke="black" points="860.5,-839.62 857,-829.62 853.5,-839.62 860.5,-839.62"/>
</g>
<!-- j4246816132 -->
<g id="node51" class="node">
<title>j4246816132</title>
<polygon fill="none" stroke="red" points="1335,-828 1005,-828 1005,-792 1335,-792 1335,-828"/>
<text text-anchor="middle" x="1170" y="-806.3" font-family="Times New Roman,serif" font-size="14.00">Кто хочет прийти на мой первый обед с командой?</text>
</g>
<!-- j442439156&#45;&gt;j4246816132 -->
<g id="edge58" class="edge">
<title>j442439156&#45;&gt;j4246816132</title>
<path fill="none" stroke="black" d="M935.18,-863.52C979.42,-853.62 1034.92,-841.21 1080.85,-830.94"/>
<polygon fill="black" stroke="black" points="1081.54,-834.37 1090.53,-828.77 1080.01,-827.54 1081.54,-834.37"/>
</g>
<!-- j1624471441 -->
<g id="node52" class="node">
<title>j1624471441</title>
<ellipse fill="none" stroke="orange" cx="519" cy="-738" rx="163.27" ry="18"/>
<text text-anchor="middle" x="519" y="-734.3" font-family="Times New Roman,serif" font-size="14.00">Boolean HexTeamEatSuggest is now true.</text>
</g>
<!-- j13593818&#45;&gt;j1624471441 -->
<g id="edge59" class="edge">
<title>j13593818&#45;&gt;j1624471441</title>
<path fill="none" stroke="black" d="M520.51,-791.7C520.3,-784.41 520.05,-775.73 519.82,-767.54"/>
<polygon fill="black" stroke="black" points="523.32,-767.51 519.53,-757.62 516.32,-767.71 523.32,-767.51"/>
</g>
<!-- j509288753 -->
<g id="node53" class="node">
<title>j509288753</title>
<ellipse fill="none" stroke="orange" cx="857" cy="-738" rx="157.07" ry="18"/>
<text text-anchor="middle" x="857" y="-734.3" font-family="Times New Roman,serif" font-size="14.00">Boolean HexTeamEatLunch is now true.</text>
</g>
<!-- j3440853969&#45;&gt;j509288753 -->
<g id="edge60" class="edge">
<title>j3440853969&#45;&gt;j509288753</title>
<path fill="none" stroke="black" d="M857,-791.7C857,-784.41 857,-775.73 857,-767.54"/>
<polygon fill="black" stroke="black" points="860.5,-767.62 857,-757.62 853.5,-767.62 860.5,-767.62"/>
</g>
<!-- j2283213660 -->
<g id="node54" class="node">
<title>j2283213660</title>
<ellipse fill="none" stroke="orange" cx="1197" cy="-738" rx="164.37" ry="18"/>
<text text-anchor="middle" x="1197" y="-734.3" font-family="Times New Roman,serif" font-size="14.00">Boolean HexTeamEatRequest is now true.</text>
</g>
<!-- j4246816132&#45;&gt;j2283213660 -->
<g id="edge61" class="edge">
<title>j4246816132&#45;&gt;j2283213660</title>
<path fill="none" stroke="black" d="M1176.67,-791.7C1179.58,-784.15 1183.07,-775.12 1186.32,-766.68"/>
<polygon fill="black" stroke="black" points="1189.52,-768.11 1189.86,-757.52 1182.99,-765.59 1189.52,-768.11"/>
</g>
<!-- j3030119845 -->
<g id="node55" class="node">
<title>j3030119845</title>
<polygon fill="none" stroke="blue" points="915,-684 799,-684 799,-648 915,-648 915,-684"/>
<text text-anchor="middle" x="857" y="-662.3" font-family="Times New Roman,serif" font-size="14.00">Salem: Команда?</text>
</g>
<!-- j1624471441&#45;&gt;j3030119845 -->
<g id="edge62" class="edge">
<title>j1624471441&#45;&gt;j3030119845</title>
<path fill="none" stroke="black" d="M593.59,-721.55C651.46,-709.57 731.07,-693.08 787.58,-681.38"/>
<polygon fill="black" stroke="black" points="788,-684.86 797.08,-679.41 786.58,-678.01 788,-684.86"/>
</g>
<!-- j509288753&#45;&gt;j3030119845 -->
<g id="edge63" class="edge">
<title>j509288753&#45;&gt;j3030119845</title>
<path fill="none" stroke="black" d="M857,-719.7C857,-712.41 857,-703.73 857,-695.54"/>
<polygon fill="black" stroke="black" points="860.5,-695.62 857,-685.62 853.5,-695.62 860.5,-695.62"/>
</g>
<!-- j2283213660&#45;&gt;j3030119845 -->
<g id="edge64" class="edge">
<title>j2283213660&#45;&gt;j3030119845</title>
<path fill="none" stroke="black" d="M1121.96,-721.55C1063.57,-709.53 983.17,-692.98 926.29,-681.27"/>
<polygon fill="black" stroke="black" points="927.22,-677.88 916.72,-679.3 925.81,-684.74 927.22,-677.88"/>
</g>
<!-- j2844512819 -->
<g id="node56" class="node">
<title>j2844512819</title>
<polygon fill="none" stroke="blue" points="944.5,-612 769.5,-612 769.5,-576 944.5,-576 944.5,-612"/>
<text text-anchor="middle" x="857" y="-590.3" font-family="Times New Roman,serif" font-size="14.00">Belladonna ~{@: Команда?</text>
</g>
<!-- j3030119845&#45;&gt;j2844512819 -->
<g id="edge65" class="edge">
<title>j3030119845&#45;&gt;j2844512819</title>
<path fill="none" stroke="black" d="M857,-647.7C857,-640.41 857,-631.73 857,-623.54"/>
<polygon fill="black" stroke="black" points="860.5,-623.62 857,-613.62 853.5,-623.62 860.5,-623.62"/>
</g>
<!-- j1460435103 -->
<g id="node57" class="node">
<title>j1460435103</title>
<polygon fill="none" stroke="blue" points="1189,-540 525,-540 525,-504 1189,-504 1189,-540"/>
<text text-anchor="middle" x="857" y="-518.3" font-family="Times New Roman,serif" font-size="14.00">H16h V0l7463: омг, близнецы? тройняшки? Артур! ты так и не сказал, что Лэтти — ТРЕТЬЯ Найтингейл…</text>
</g>
<!-- j2844512819&#45;&gt;j1460435103 -->
<g id="edge66" class="edge">
<title>j2844512819&#45;&gt;j1460435103</title>
<path fill="none" stroke="black" d="M857,-575.7C857,-568.41 857,-559.73 857,-551.54"/>
<polygon fill="black" stroke="black" points="860.5,-551.62 857,-541.62 853.5,-551.62 860.5,-551.62"/>
</g>
<!-- j918553381 -->
<g id="node58" class="node">
<title>j918553381</title>
<polygon fill="none" stroke="blue" points="1026,-468 688,-468 688,-432 1026,-432 1026,-468"/>
<text text-anchor="middle" x="857" y="-446.3" font-family="Times New Roman,serif" font-size="14.00">Broadsword: Амир, клянусь, я знаю, где ты *сейчас*.</text>
</g>
<!-- j1460435103&#45;&gt;j918553381 -->
<g id="edge67" class="edge">
<title>j1460435103&#45;&gt;j918553381</title>
<path fill="none" stroke="black" d="M857,-503.7C857,-496.41 857,-487.73 857,-479.54"/>
<polygon fill="black" stroke="black" points="860.5,-479.62 857,-469.62 853.5,-479.62 860.5,-479.62"/>
</g>
<!-- j503746021 -->
<g id="node59" class="node">
<title>j503746021</title>
<polygon fill="none" stroke="blue" points="1068.5,-396 645.5,-396 645.5,-360 1068.5,-360 1068.5,-396"/>
<text text-anchor="middle" x="857" y="-374.3" font-family="Times New Roman,serif" font-size="14.00">xX GLIMMER Xx: записывай меня, Скиталец! командный обед! ^.^</text>
</g>
<!-- j918553381&#45;&gt;j503746021 -->
<g id="edge68" class="edge">
<title>j918553381&#45;&gt;j503746021</title>
<path fill="none" stroke="black" d="M857,-431.7C857,-424.41 857,-415.73 857,-407.54"/>
<polygon fill="black" stroke="black" points="860.5,-407.62 857,-397.62 853.5,-407.62 860.5,-407.62"/>
</g>
<!-- j2317565227 -->
<g id="node60" class="node">
<title>j2317565227</title>
<polygon fill="none" stroke="blue" points="1046.5,-324 667.5,-324 667.5,-288 1046.5,-288 1046.5,-324"/>
<text text-anchor="middle" x="857" y="-302.3" font-family="Times New Roman,serif" font-size="14.00">Soldja1Shot1kil: сори, дел полно. надо быть в других местах</text>
</g>
<!-- j503746021&#45;&gt;j2317565227 -->
<g id="edge69" class="edge">
<title>j503746021&#45;&gt;j2317565227</title>
<path fill="none" stroke="black" d="M857,-359.7C857,-352.41 857,-343.73 857,-335.54"/>
<polygon fill="black" stroke="black" points="860.5,-335.62 857,-325.62 853.5,-335.62 860.5,-335.62"/>
</g>
<!-- j1660999767 -->
<g id="node61" class="node">
<title>j1660999767</title>
<polygon fill="none" stroke="blue" points="1036.5,-252 677.5,-252 677.5,-216 1036.5,-216 1036.5,-252"/>
<text text-anchor="middle" x="857" y="-230.3" font-family="Times New Roman,serif" font-size="14.00">Broadsword: Скиталец, идея хорошая, но мы все заняты.</text>
</g>
<!-- j2317565227&#45;&gt;j1660999767 -->
<g id="edge70" class="edge">
<title>j2317565227&#45;&gt;j1660999767</title>
<path fill="none" stroke="black" d="M857,-287.7C857,-280.41 857,-271.73 857,-263.54"/>
<polygon fill="black" stroke="black" points="860.5,-263.62 857,-253.62 853.5,-263.62 860.5,-263.62"/>
</g>
<!-- j3168149225 -->
<g id="node62" class="node">
<title>j3168149225</title>
<polygon fill="none" stroke="blue" points="912.5,-180 801.5,-180 801.5,-144 912.5,-144 912.5,-180"/>
<text text-anchor="middle" x="857" y="-158.3" font-family="Times New Roman,serif" font-size="14.00">Salem: Я приду.</text>
</g>
<!-- j1660999767&#45;&gt;j3168149225 -->
<g id="edge71" class="edge">
<title>j1660999767&#45;&gt;j3168149225</title>
<path fill="none" stroke="black" d="M857,-215.7C857,-208.41 857,-199.73 857,-191.54"/>
<polygon fill="black" stroke="black" points="860.5,-191.62 857,-181.62 853.5,-191.62 860.5,-191.62"/>
</g>
<!-- j955325790 -->
<g id="node63" class="node">
<title>j955325790</title>
<polygon fill="none" stroke="blue" points="936.5,-108 777.5,-108 777.5,-72 936.5,-72 936.5,-108"/>
<text text-anchor="middle" x="857" y="-86.3" font-family="Times New Roman,serif" font-size="14.00">Belladonna ~{@: А я нет</text>
</g>
<!-- j3168149225&#45;&gt;j955325790 -->
<g id="edge72" class="edge">
<title>j3168149225&#45;&gt;j955325790</title>
<path fill="none" stroke="black" d="M857,-143.7C857,-136.41 857,-127.73 857,-119.54"/>
<polygon fill="black" stroke="black" points="860.5,-119.62 857,-109.62 853.5,-119.62 860.5,-119.62"/>
</g>
<!-- Chat ends. -->
<g id="node64" class="node">
<title>Chat ends.</title>
<ellipse fill="none" stroke="orange" cx="857" cy="-18" rx="50.09" ry="18"/>
<text text-anchor="middle" x="857" y="-14.3" font-family="Times New Roman,serif" font-size="14.00">Chat ends.</text>
</g>
<!-- j955325790&#45;&gt;Chat ends. -->
<g id="edge73" class="edge">
<title>j955325790&#45;&gt;Chat ends.</title>
<path fill="none" stroke="black" d="M857,-71.7C857,-64.41 857,-55.73 857,-47.54"/>
<polygon fill="black" stroke="black" points="860.5,-47.62 857,-37.62 853.5,-47.62 860.5,-47.62"/>
</g>
</g>
</svg>
