<?xml version="1.0" encoding="UTF-8" standalone="no"?>
<!DOCTYPE svg PUBLIC "-//W3C//DTD SVG 1.1//EN"
 "http://www.w3.org/Graphics/SVG/1.1/DTD/svg11.dtd">
<!-- Generated by graphviz version 7.1.0 (20230121.1956)
 -->
<!-- Pages: 1 -->
<svg width="1418pt" height="3163pt"
 viewBox="0.00 0.00 1417.59 3163.00" xmlns="http://www.w3.org/2000/svg" xmlns:xlink="http://www.w3.org/1999/xlink">
<g id="graph0" class="graph" transform="scale(1 1) rotate(0) translate(4 3159)">
<polygon fill="white" stroke="none" points="-4,4 -4,-3159 1413.59,-3159 1413.59,4 -4,4"/>
<!-- QuincyRank6Convo1 begins. -->
<g id="node1" class="node">
<title>QuincyRank6Convo1 begins.</title>
<ellipse fill="none" stroke="orange" cx="126.09" cy="-3137" rx="118.08" ry="18"/>
<text text-anchor="middle" x="126.09" y="-3133.3" font-family="Times New Roman,serif" font-size="14.00">QuincyRank6Convo1 begins.</text>
</g>
<!-- j431139663 -->
<g id="node2" class="node">
<title>j431139663</title>
<ellipse fill="none" stroke="orange" cx="126.09" cy="-3064" rx="126.18" ry="18"/>
<text text-anchor="middle" x="126.09" y="-3060.3" font-family="Times New Roman,serif" font-size="14.00">Check boolean QuincyForgiven</text>
</g>
<!-- QuincyRank6Convo1 begins.&#45;&gt;j431139663 -->
<g id="edge1" class="edge">
<title>QuincyRank6Convo1 begins.&#45;&gt;j431139663</title>
<path fill="none" stroke="black" d="M126.09,-3118.81C126.09,-3111.23 126.09,-3102.1 126.09,-3093.54"/>
<polygon fill="black" stroke="black" points="129.59,-3093.54 126.09,-3083.54 122.59,-3093.54 129.59,-3093.54"/>
</g>
<!-- j3559869546 -->
<g id="node3" class="node">
<title>j3559869546</title>
<ellipse fill="none" stroke="orange" cx="641.09" cy="-2977" rx="117.78" ry="18"/>
<text text-anchor="middle" x="641.09" y="-2973.3" font-family="Times New Roman,serif" font-size="14.00">Check boolean QuincyDating</text>
</g>
<!-- j431139663&#45;&gt;j3559869546 -->
<g id="edge2" class="edge">
<title>j431139663&#45;&gt;j3559869546</title>
<path fill="none" stroke="green" d="M206.56,-3049.72C300.3,-3034.25 454.73,-3008.76 552.01,-2992.7"/>
<polygon fill="green" stroke="green" points="552.5,-2996.17 561.8,-2991.09 551.36,-2989.26 552.5,-2996.17"/>
<text text-anchor="middle" x="426.09" y="-3016.8" font-family="Times New Roman,serif" font-size="14.00">true</text>
</g>
<!-- Chat ends. -->
<g id="node4" class="node">
<title>Chat ends.</title>
<ellipse fill="none" stroke="orange" cx="652.09" cy="-18" rx="50.09" ry="18"/>
<text text-anchor="middle" x="652.09" y="-14.3" font-family="Times New Roman,serif" font-size="14.00">Chat ends.</text>
</g>
<!-- j431139663&#45;&gt;Chat ends. -->
<g id="edge3" class="edge">
<title>j431139663&#45;&gt;Chat ends.</title>
<path fill="none" stroke="brown" d="M120.85,-3045.6C116.18,-3028.54 110.09,-3001.73 110.09,-2978 110.09,-2978 110.09,-2978 110.09,-90 110.09,-42 448.59,-25.52 590.57,-20.73"/>
<polygon fill="brown" stroke="brown" points="590.68,-24.22 600.56,-20.4 590.45,-17.23 590.68,-24.22"/>
<text text-anchor="middle" x="123.09" y="-1537.3" font-family="Times New Roman,serif" font-size="14.00">false</text>
</g>
<!-- j2164101800 -->
<g id="node5" class="node">
<title>j2164101800</title>
<polygon fill="none" stroke="blue" points="755.09,-2908 527.09,-2908 527.09,-2872 755.09,-2872 755.09,-2908"/>
<text text-anchor="middle" x="641.09" y="-2886.3" font-family="Times New Roman,serif" font-size="14.00">ey bebé, ¿estás ahí? tengo algo para ti</text>
</g>
<!-- j3559869546&#45;&gt;j2164101800 -->
<g id="edge4" class="edge">
<title>j3559869546&#45;&gt;j2164101800</title>
<path fill="none" stroke="green" d="M641.09,-2958.8C641.09,-2947.58 641.09,-2932.67 641.09,-2919.69"/>
<polygon fill="green" stroke="green" points="644.59,-2919.98 641.09,-2909.98 637.59,-2919.98 644.59,-2919.98"/>
<text text-anchor="middle" x="652.09" y="-2929.8" font-family="Times New Roman,serif" font-size="14.00">true</text>
</g>
<!-- j786177095 -->
<g id="node6" class="node">
<title>j786177095</title>
<polygon fill="none" stroke="blue" points="1009.09,-2908 773.09,-2908 773.09,-2872 1009.09,-2872 1009.09,-2908"/>
<text text-anchor="middle" x="891.09" y="-2886.3" font-family="Times New Roman,serif" font-size="14.00">ey primis, ¿estás ahí? tengo algo para ti</text>
</g>
<!-- j3559869546&#45;&gt;j786177095 -->
<g id="edge5" class="edge">
<title>j3559869546&#45;&gt;j786177095</title>
<path fill="none" stroke="brown" d="M687.82,-2960.11C727.69,-2946.56 785.33,-2926.96 829.05,-2912.09"/>
<polygon fill="brown" stroke="brown" points="830.08,-2915.44 838.42,-2908.91 827.83,-2908.81 830.08,-2915.44"/>
<text text-anchor="middle" x="793.09" y="-2929.8" font-family="Times New Roman,serif" font-size="14.00">false</text>
</g>
<!-- j1817022669 -->
<g id="node7" class="node">
<title>j1817022669</title>
<polygon fill="none" stroke="red" points="724.09,-2835 614.09,-2835 614.09,-2799 724.09,-2799 724.09,-2835"/>
<text text-anchor="middle" x="669.09" y="-2813.3" font-family="Times New Roman,serif" font-size="14.00">Sí, ¿qué pasa? :)</text>
</g>
<!-- j2164101800&#45;&gt;j1817022669 -->
<g id="edge6" class="edge">
<title>j2164101800&#45;&gt;j1817022669</title>
<path fill="none" stroke="black" d="M647.87,-2871.81C650.96,-2863.96 654.71,-2854.47 658.18,-2845.66"/>
<polygon fill="black" stroke="black" points="661.41,-2847.02 661.82,-2836.44 654.89,-2844.46 661.41,-2847.02"/>
</g>
<!-- j697922938 -->
<g id="node8" class="node">
<title>j697922938</title>
<polygon fill="none" stroke="red" points="1012.09,-2835 770.09,-2835 770.09,-2799 1012.09,-2799 1012.09,-2835"/>
<text text-anchor="middle" x="891.09" y="-2813.3" font-family="Times New Roman,serif" font-size="14.00">No puedo ahora mismo, lo siento. [Fin.]</text>
</g>
<!-- j2164101800&#45;&gt;j697922938 -->
<g id="edge7" class="edge">
<title>j2164101800&#45;&gt;j697922938</title>
<path fill="none" stroke="black" d="M702.57,-2871.54C737.83,-2861.53 782.28,-2848.9 819.16,-2838.43"/>
<polygon fill="black" stroke="black" points="819.73,-2841.9 828.39,-2835.81 817.82,-2835.17 819.73,-2841.9"/>
</g>
<!-- j786177095&#45;&gt;j1817022669 -->
<g id="edge8" class="edge">
<title>j786177095&#45;&gt;j1817022669</title>
<path fill="none" stroke="black" d="M836.5,-2871.54C805.58,-2861.65 766.72,-2849.23 734.23,-2838.83"/>
<polygon fill="black" stroke="black" points="735.5,-2835.57 724.91,-2835.85 733.37,-2842.23 735.5,-2835.57"/>
</g>
<!-- j786177095&#45;&gt;j697922938 -->
<g id="edge9" class="edge">
<title>j786177095&#45;&gt;j697922938</title>
<path fill="none" stroke="black" d="M891.09,-2871.81C891.09,-2864.23 891.09,-2855.1 891.09,-2846.54"/>
<polygon fill="black" stroke="black" points="894.59,-2846.54 891.09,-2836.54 887.59,-2846.54 894.59,-2846.54"/>
</g>
<!-- j2942874702 -->
<g id="node9" class="node">
<title>j2942874702</title>
<polygon fill="none" stroke="blue" points="1092.09,-2762 246.09,-2762 246.09,-2726 1092.09,-2726 1092.09,-2762"/>
<text text-anchor="middle" x="669.09" y="-2740.3" font-family="Times New Roman,serif" font-size="14.00">bueno he estado pensando durante un tiempo sobre... bueno, todo, en realidad. sobre ti, sobre mí, sobre el equipo, sobre todo desde que apareciste</text>
</g>
<!-- j1817022669&#45;&gt;j2942874702 -->
<g id="edge10" class="edge">
<title>j1817022669&#45;&gt;j2942874702</title>
<path fill="none" stroke="black" d="M669.09,-2798.81C669.09,-2791.23 669.09,-2782.1 669.09,-2773.54"/>
<polygon fill="black" stroke="black" points="672.59,-2773.54 669.09,-2763.54 665.59,-2773.54 672.59,-2773.54"/>
</g>
<!-- j2554532325 -->
<g id="node10" class="node">
<title>j2554532325</title>
<polygon fill="none" stroke="blue" points="1409.59,-2708 1018.59,-2708 1018.59,-2672 1409.59,-2672 1409.59,-2708"/>
<text text-anchor="middle" x="1214.09" y="-2686.3" font-family="Times New Roman,serif" font-size="14.00">uh. ok compa, entonces me pondré otra vez los pantalones, mierda</text>
</g>
<!-- j697922938&#45;&gt;j2554532325 -->
<g id="edge11" class="edge">
<title>j697922938&#45;&gt;j2554532325</title>
<path fill="none" stroke="black" d="M984.36,-2798.53C1021.53,-2789.91 1064.18,-2777.88 1101.09,-2762 1130.01,-2749.56 1160.07,-2730.32 1181.91,-2715"/>
<polygon fill="black" stroke="black" points="1183.69,-2718.03 1189.8,-2709.38 1179.62,-2712.33 1183.69,-2718.03"/>
</g>
<!-- j3660814145 -->
<g id="node11" class="node">
<title>j3660814145</title>
<polygon fill="none" stroke="blue" points="991.09,-2654 347.09,-2654 347.09,-2618 991.09,-2618 991.09,-2654"/>
<text text-anchor="middle" x="669.09" y="-2632.3" font-family="Times New Roman,serif" font-size="14.00">y lo enojado que estaba con todo y con todos x quitarme mi futuro, mis sueños, ¿sí? especialmente con arthur...</text>
</g>
<!-- j2942874702&#45;&gt;j3660814145 -->
<g id="edge12" class="edge">
<title>j2942874702&#45;&gt;j3660814145</title>
<path fill="none" stroke="black" d="M669.09,-2725.97C669.09,-2709.76 669.09,-2685.06 669.09,-2665.79"/>
<polygon fill="black" stroke="black" points="672.59,-2665.85 669.09,-2655.85 665.59,-2665.85 672.59,-2665.85"/>
</g>
<!-- j2554532325&#45;&gt;Chat ends. -->
<g id="edge13" class="edge">
<title>j2554532325&#45;&gt;Chat ends.</title>
<path fill="none" stroke="black" d="M1227.84,-2671.73C1240.09,-2654.57 1256.09,-2627 1256.09,-2600 1256.09,-2600 1256.09,-2600 1256.09,-90 1256.09,-35.76 866.95,-22.85 713.37,-19.87"/>
<polygon fill="black" stroke="black" points="713.86,-16.38 703.8,-19.69 713.73,-23.37 713.86,-16.38"/>
</g>
<!-- j3508190793 -->
<g id="node12" class="node">
<title>j3508190793</title>
<polygon fill="none" stroke="blue" points="894.59,-2581 443.59,-2581 443.59,-2545 894.59,-2545 894.59,-2581"/>
<text text-anchor="middle" x="669.09" y="-2559.3" font-family="Times New Roman,serif" font-size="14.00">pensando que no tenía salida, ninguna esperanza para... nada de lo que quería</text>
</g>
<!-- j3660814145&#45;&gt;j3508190793 -->
<g id="edge14" class="edge">
<title>j3660814145&#45;&gt;j3508190793</title>
<path fill="none" stroke="black" d="M669.09,-2617.81C669.09,-2610.23 669.09,-2601.1 669.09,-2592.54"/>
<polygon fill="black" stroke="black" points="672.59,-2592.54 669.09,-2582.54 665.59,-2592.54 672.59,-2592.54"/>
</g>
<!-- j2612288015 -->
<g id="node13" class="node">
<title>j2612288015</title>
<polygon fill="none" stroke="blue" points="1080.09,-2508 258.09,-2508 258.09,-2472 1080.09,-2472 1080.09,-2508"/>
<text text-anchor="middle" x="669.09" y="-2486.3" font-family="Times New Roman,serif" font-size="14.00">y nunca me detuve a pensar, oye... idiota, lo que quieres puede cambiar. y tal vez lo que tienes *es lo que has estado soñando todo este tiempo*</text>
</g>
<!-- j3508190793&#45;&gt;j2612288015 -->
<g id="edge15" class="edge">
<title>j3508190793&#45;&gt;j2612288015</title>
<path fill="none" stroke="black" d="M669.09,-2544.81C669.09,-2537.23 669.09,-2528.1 669.09,-2519.54"/>
<polygon fill="black" stroke="black" points="672.59,-2519.54 669.09,-2509.54 665.59,-2519.54 672.59,-2519.54"/>
</g>
<!-- j145985748 -->
<g id="node14" class="node">
<title>j145985748</title>
<polygon fill="none" stroke="blue" points="1197.59,-2435 140.59,-2435 140.59,-2399 1197.59,-2399 1197.59,-2435"/>
<text text-anchor="middle" x="669.09" y="-2413.3" font-family="Times New Roman,serif" font-size="14.00">miro a mi alrededor ahora y veo... veo comunidad. y sí, claro, todavía tenemos el techrot zumbando alrededor como moscas, y todavía está viktor ahí afuera siendo un verdadero imbécil</text>
</g>
<!-- j2612288015&#45;&gt;j145985748 -->
<g id="edge16" class="edge">
<title>j2612288015&#45;&gt;j145985748</title>
<path fill="none" stroke="black" d="M669.09,-2471.81C669.09,-2464.23 669.09,-2455.1 669.09,-2446.54"/>
<polygon fill="black" stroke="black" points="672.59,-2446.54 669.09,-2436.54 665.59,-2446.54 672.59,-2446.54"/>
</g>
<!-- j2007085927 -->
<g id="node15" class="node">
<title>j2007085927</title>
<polygon fill="none" stroke="blue" points="962.59,-2362 375.59,-2362 375.59,-2326 962.59,-2326 962.59,-2362"/>
<text text-anchor="middle" x="669.09" y="-2340.3" font-family="Times New Roman,serif" font-size="14.00">pero nada de eso es una mierda que no podamos manejar. x ti. xq hiciste de NOSOTROS algo REAL</text>
</g>
<!-- j145985748&#45;&gt;j2007085927 -->
<g id="edge17" class="edge">
<title>j145985748&#45;&gt;j2007085927</title>
<path fill="none" stroke="black" d="M669.09,-2398.81C669.09,-2391.23 669.09,-2382.1 669.09,-2373.54"/>
<polygon fill="black" stroke="black" points="672.59,-2373.54 669.09,-2363.54 665.59,-2373.54 672.59,-2373.54"/>
</g>
<!-- j540945183 -->
<g id="node16" class="node">
<title>j540945183</title>
<polygon fill="none" stroke="blue" points="1064.59,-2289 273.59,-2289 273.59,-2253 1064.59,-2253 1064.59,-2289"/>
<text text-anchor="middle" x="669.09" y="-2267.3" font-family="Times New Roman,serif" font-size="14.00">i get 2 take care of the kids around here, got eleanor telling &#39;em stories, aoi&#39;s given &#39;em toys &#45; got speedster making lil gadgets for em now...</text>
</g>
<!-- j2007085927&#45;&gt;j540945183 -->
<g id="edge18" class="edge">
<title>j2007085927&#45;&gt;j540945183</title>
<path fill="none" stroke="black" d="M669.09,-2325.81C669.09,-2318.23 669.09,-2309.1 669.09,-2300.54"/>
<polygon fill="black" stroke="black" points="672.59,-2300.54 669.09,-2290.54 665.59,-2300.54 672.59,-2300.54"/>
</g>
<!-- j1725696605 -->
<g id="node17" class="node">
<title>j1725696605</title>
<polygon fill="none" stroke="blue" points="875.59,-2216 462.59,-2216 462.59,-2180 875.59,-2180 875.59,-2216"/>
<text text-anchor="middle" x="669.09" y="-2194.3" font-family="Times New Roman,serif" font-size="14.00">incluso Su Majestad parece feliz x primera vez en... tal vez toda su vida</text>
</g>
<!-- j540945183&#45;&gt;j1725696605 -->
<g id="edge19" class="edge">
<title>j540945183&#45;&gt;j1725696605</title>
<path fill="none" stroke="black" d="M669.09,-2252.81C669.09,-2245.23 669.09,-2236.1 669.09,-2227.54"/>
<polygon fill="black" stroke="black" points="672.59,-2227.54 669.09,-2217.54 665.59,-2227.54 672.59,-2227.54"/>
</g>
<!-- j4160726142 -->
<g id="node18" class="node">
<title>j4160726142</title>
<polygon fill="none" stroke="blue" points="1017.09,-2143 321.09,-2143 321.09,-2107 1017.09,-2107 1017.09,-2143"/>
<text text-anchor="middle" x="669.09" y="-2121.3" font-family="Times New Roman,serif" font-size="14.00">me di cuenta de que si no me hubiera ido con él ese día y no lo hubiera seguido hasta aquí, nunca habría tenido todo esto</text>
</g>
<!-- j1725696605&#45;&gt;j4160726142 -->
<g id="edge20" class="edge">
<title>j1725696605&#45;&gt;j4160726142</title>
<path fill="none" stroke="black" d="M669.09,-2179.81C669.09,-2172.23 669.09,-2163.1 669.09,-2154.54"/>
<polygon fill="black" stroke="black" points="672.59,-2154.54 669.09,-2144.54 665.59,-2154.54 672.59,-2154.54"/>
</g>
<!-- j1963241270 -->
<g id="node19" class="node">
<title>j1963241270</title>
<polygon fill="none" stroke="blue" points="710.09,-2070 628.09,-2070 628.09,-2034 710.09,-2034 710.09,-2070"/>
<text text-anchor="middle" x="669.09" y="-2048.3" font-family="Times New Roman,serif" font-size="14.00">este... amor</text>
</g>
<!-- j4160726142&#45;&gt;j1963241270 -->
<g id="edge21" class="edge">
<title>j4160726142&#45;&gt;j1963241270</title>
<path fill="none" stroke="black" d="M669.09,-2106.81C669.09,-2099.23 669.09,-2090.1 669.09,-2081.54"/>
<polygon fill="black" stroke="black" points="672.59,-2081.54 669.09,-2071.54 665.59,-2081.54 672.59,-2081.54"/>
</g>
<!-- j511112998 -->
<g id="node20" class="node">
<title>j511112998</title>
<polygon fill="none" stroke="blue" points="739.09,-1997 599.09,-1997 599.09,-1961 739.09,-1961 739.09,-1997"/>
<text text-anchor="middle" x="669.09" y="-1975.3" font-family="Times New Roman,serif" font-size="14.00">eso es lo que es, ¿no?</text>
</g>
<!-- j1963241270&#45;&gt;j511112998 -->
<g id="edge22" class="edge">
<title>j1963241270&#45;&gt;j511112998</title>
<path fill="none" stroke="black" d="M669.09,-2033.81C669.09,-2026.23 669.09,-2017.1 669.09,-2008.54"/>
<polygon fill="black" stroke="black" points="672.59,-2008.54 669.09,-1998.54 665.59,-2008.54 672.59,-2008.54"/>
</g>
<!-- j2323491182 -->
<g id="node21" class="node">
<title>j2323491182</title>
<polygon fill="none" stroke="blue" points="696.09,-1924 642.09,-1924 642.09,-1888 696.09,-1888 696.09,-1924"/>
<text text-anchor="middle" x="669.09" y="-1902.3" font-family="Times New Roman,serif" font-size="14.00">amor</text>
</g>
<!-- j511112998&#45;&gt;j2323491182 -->
<g id="edge23" class="edge">
<title>j511112998&#45;&gt;j2323491182</title>
<path fill="none" stroke="black" d="M669.09,-1960.81C669.09,-1953.23 669.09,-1944.1 669.09,-1935.54"/>
<polygon fill="black" stroke="black" points="672.59,-1935.54 669.09,-1925.54 665.59,-1935.54 672.59,-1935.54"/>
</g>
<!-- j1237503203 -->
<g id="node22" class="node">
<title>j1237503203</title>
<polygon fill="none" stroke="blue" points="1040.59,-1851 297.59,-1851 297.59,-1815 1040.59,-1815 1040.59,-1851"/>
<text text-anchor="middle" x="669.09" y="-1829.3" font-family="Times New Roman,serif" font-size="14.00">entonces, yo eh... solo quería decirte que le dije a arthur que lo sentía x tratarlo como una mierda y que estaba enojado y asustado</text>
</g>
<!-- j2323491182&#45;&gt;j1237503203 -->
<g id="edge24" class="edge">
<title>j2323491182&#45;&gt;j1237503203</title>
<path fill="none" stroke="black" d="M669.09,-1887.81C669.09,-1880.23 669.09,-1871.1 669.09,-1862.54"/>
<polygon fill="black" stroke="black" points="672.59,-1862.54 669.09,-1852.54 665.59,-1862.54 672.59,-1862.54"/>
</g>
<!-- j3650276086 -->
<g id="node23" class="node">
<title>j3650276086</title>
<polygon fill="none" stroke="blue" points="1140.09,-1778 198.09,-1778 198.09,-1742 1140.09,-1742 1140.09,-1778"/>
<text text-anchor="middle" x="669.09" y="-1756.3" font-family="Times New Roman,serif" font-size="14.00">y que yo sabía que él solo estaba tratando de hacer lo correcto para mí y para todos los demás. y yo lo respeté todo el tiempo, incluso si no sabía cómo demostrarlo</text>
</g>
<!-- j1237503203&#45;&gt;j3650276086 -->
<g id="edge25" class="edge">
<title>j1237503203&#45;&gt;j3650276086</title>
<path fill="none" stroke="black" d="M669.09,-1814.81C669.09,-1807.23 669.09,-1798.1 669.09,-1789.54"/>
<polygon fill="black" stroke="black" points="672.59,-1789.54 669.09,-1779.54 665.59,-1789.54 672.59,-1789.54"/>
</g>
<!-- j248011096 -->
<g id="node24" class="node">
<title>j248011096</title>
<polygon fill="none" stroke="blue" points="1020.09,-1705 318.09,-1705 318.09,-1669 1020.09,-1669 1020.09,-1705"/>
<text text-anchor="middle" x="669.09" y="-1683.3" font-family="Times New Roman,serif" font-size="14.00">arthur y yo no somos de los que se abrazan, compa. eso es algo que nunca vas a ver, pero nos dimos la mano y me sonrió</text>
</g>
<!-- j3650276086&#45;&gt;j248011096 -->
<g id="edge26" class="edge">
<title>j3650276086&#45;&gt;j248011096</title>
<path fill="none" stroke="black" d="M669.09,-1741.81C669.09,-1734.23 669.09,-1725.1 669.09,-1716.54"/>
<polygon fill="black" stroke="black" points="672.59,-1716.54 669.09,-1706.54 665.59,-1716.54 672.59,-1716.54"/>
</g>
<!-- j368875982 -->
<g id="node25" class="node">
<title>j368875982</title>
<polygon fill="none" stroke="blue" points="770.59,-1632 567.59,-1632 567.59,-1596 770.59,-1596 770.59,-1632"/>
<text text-anchor="middle" x="669.09" y="-1610.3" font-family="Times New Roman,serif" font-size="14.00">y yo le devolví la sonrisa y le dije</text>
</g>
<!-- j248011096&#45;&gt;j368875982 -->
<g id="edge27" class="edge">
<title>j248011096&#45;&gt;j368875982</title>
<path fill="none" stroke="black" d="M669.09,-1668.81C669.09,-1661.23 669.09,-1652.1 669.09,-1643.54"/>
<polygon fill="black" stroke="black" points="672.59,-1643.54 669.09,-1633.54 665.59,-1643.54 672.59,-1643.54"/>
</g>
<!-- j1598694856 -->
<g id="node26" class="node">
<title>j1598694856</title>
<ellipse fill="none" stroke="orange" cx="669.09" cy="-1541" rx="122.38" ry="18"/>
<text text-anchor="middle" x="669.09" y="-1537.3" font-family="Times New Roman,serif" font-size="14.00">Check boolean QuincyArthur2</text>
</g>
<!-- j368875982&#45;&gt;j1598694856 -->
<g id="edge28" class="edge">
<title>j368875982&#45;&gt;j1598694856</title>
<path fill="none" stroke="black" d="M669.09,-1595.81C669.09,-1588.23 669.09,-1579.1 669.09,-1570.54"/>
<polygon fill="black" stroke="black" points="672.59,-1570.54 669.09,-1560.54 665.59,-1570.54 672.59,-1570.54"/>
</g>
<!-- j3856585584 -->
<g id="node27" class="node">
<title>j3856585584</title>
<polygon fill="none" stroke="blue" points="739.09,-1472 509.09,-1472 509.09,-1436 739.09,-1436 739.09,-1472"/>
<text text-anchor="middle" x="624.09" y="-1450.3" font-family="Times New Roman,serif" font-size="14.00">&quot;sigues siendo un maldito aguafiestas&quot;</text>
</g>
<!-- j1598694856&#45;&gt;j3856585584 -->
<g id="edge29" class="edge">
<title>j1598694856&#45;&gt;j3856585584</title>
<path fill="none" stroke="green" d="M659.98,-1522.8C653.86,-1511.24 645.66,-1495.75 638.65,-1482.5"/>
<polygon fill="green" stroke="green" points="641.82,-1481.01 634.04,-1473.8 635.63,-1484.28 641.82,-1481.01"/>
<text text-anchor="middle" x="661.09" y="-1493.8" font-family="Times New Roman,serif" font-size="14.00">true</text>
</g>
<!-- j668025027 -->
<g id="node28" class="node">
<title>j668025027</title>
<polygon fill="none" stroke="blue" points="912.59,-1472 757.59,-1472 757.59,-1436 912.59,-1436 912.59,-1472"/>
<text text-anchor="middle" x="835.09" y="-1450.3" font-family="Times New Roman,serif" font-size="14.00">&quot;sigues siendo un idiota&quot;</text>
</g>
<!-- j1598694856&#45;&gt;j668025027 -->
<g id="edge30" class="edge">
<title>j1598694856&#45;&gt;j668025027</title>
<path fill="none" stroke="brown" d="M701.89,-1523.21C727.38,-1510.15 763.01,-1491.91 791,-1477.58"/>
<polygon fill="brown" stroke="brown" points="792.28,-1480.85 799.59,-1473.18 789.09,-1474.62 792.28,-1480.85"/>
<text text-anchor="middle" x="774.09" y="-1493.8" font-family="Times New Roman,serif" font-size="14.00">false</text>
</g>
<!-- j1453178972 -->
<g id="node29" class="node">
<title>j1453178972</title>
<polygon fill="none" stroke="blue" points="813.59,-1399 754.59,-1399 754.59,-1363 813.59,-1363 813.59,-1399"/>
<text text-anchor="middle" x="784.09" y="-1377.3" font-family="Times New Roman,serif" font-size="14.00">lmaooo</text>
</g>
<!-- j3856585584&#45;&gt;j1453178972 -->
<g id="edge31" class="edge">
<title>j3856585584&#45;&gt;j1453178972</title>
<path fill="none" stroke="black" d="M663.23,-1435.63C687.65,-1424.8 719.01,-1410.88 743.67,-1399.94"/>
<polygon fill="black" stroke="black" points="745.02,-1403.16 752.74,-1395.91 742.18,-1396.77 745.02,-1403.16"/>
</g>
<!-- j668025027&#45;&gt;j1453178972 -->
<g id="edge32" class="edge">
<title>j668025027&#45;&gt;j1453178972</title>
<path fill="none" stroke="black" d="M822.74,-1435.81C816.79,-1427.53 809.52,-1417.41 802.9,-1408.19"/>
<polygon fill="black" stroke="black" points="805.88,-1406.34 797.2,-1400.26 800.2,-1410.42 805.88,-1406.34"/>
</g>
<!-- j533826068 -->
<g id="node30" class="node">
<title>j533826068</title>
<polygon fill="none" stroke="red" points="787.59,-1326 684.59,-1326 684.59,-1290 787.59,-1290 787.59,-1326"/>
<text text-anchor="middle" x="736.09" y="-1304.3" font-family="Times New Roman,serif" font-size="14.00">Oh, Quincy. lol</text>
</g>
<!-- j1453178972&#45;&gt;j533826068 -->
<g id="edge33" class="edge">
<title>j1453178972&#45;&gt;j533826068</title>
<path fill="none" stroke="black" d="M772.47,-1362.81C766.93,-1354.62 760.17,-1344.62 753.99,-1335.48"/>
<polygon fill="black" stroke="black" points="756.95,-1333.61 748.45,-1327.28 751.15,-1337.53 756.95,-1333.61"/>
</g>
<!-- j1384606150 -->
<g id="node31" class="node">
<title>j1384606150</title>
<polygon fill="none" stroke="red" points="1002.09,-1326 806.09,-1326 806.09,-1290 1002.09,-1290 1002.09,-1326"/>
<text text-anchor="middle" x="904.09" y="-1304.3" font-family="Times New Roman,serif" font-size="14.00">Seguro que estaba emocionado.</text>
</g>
<!-- j1453178972&#45;&gt;j1384606150 -->
<g id="edge34" class="edge">
<title>j1453178972&#45;&gt;j1384606150</title>
<path fill="none" stroke="black" d="M813.44,-1362.63C828.99,-1353.43 848.28,-1342.02 865.07,-1332.08"/>
<polygon fill="black" stroke="black" points="866.49,-1335.31 873.32,-1327.21 862.93,-1329.29 866.49,-1335.31"/>
</g>
<!-- j4241824160 -->
<g id="node32" class="node">
<title>j4241824160</title>
<polygon fill="none" stroke="blue" points="992.09,-1253 612.09,-1253 612.09,-1217 992.09,-1217 992.09,-1253"/>
<text text-anchor="middle" x="802.09" y="-1231.3" font-family="Times New Roman,serif" font-size="14.00">¡se rió! finalmente entendió que ese es mi sentido del humor, ¿sí?</text>
</g>
<!-- j533826068&#45;&gt;j4241824160 -->
<g id="edge35" class="edge">
<title>j533826068&#45;&gt;j4241824160</title>
<path fill="none" stroke="black" d="M752.07,-1289.81C760.01,-1281.27 769.77,-1270.77 778.55,-1261.32"/>
<polygon fill="black" stroke="black" points="780.98,-1263.84 785.23,-1254.14 775.86,-1259.08 780.98,-1263.84"/>
</g>
<!-- j1384606150&#45;&gt;j4241824160 -->
<g id="edge36" class="edge">
<title>j1384606150&#45;&gt;j4241824160</title>
<path fill="none" stroke="black" d="M879.14,-1289.63C866.29,-1280.69 850.44,-1269.66 836.46,-1259.92"/>
<polygon fill="black" stroke="black" points="838.59,-1257.14 828.38,-1254.3 834.59,-1262.89 838.59,-1257.14"/>
</g>
<!-- j1520227290 -->
<g id="node33" class="node">
<title>j1520227290</title>
<polygon fill="none" stroke="blue" points="946.59,-1180 657.59,-1180 657.59,-1144 946.59,-1144 946.59,-1180"/>
<text text-anchor="middle" x="802.09" y="-1158.3" font-family="Times New Roman,serif" font-size="14.00">me dio una palmadita en el hombro y nos fuimos</text>
</g>
<!-- j4241824160&#45;&gt;j1520227290 -->
<g id="edge37" class="edge">
<title>j4241824160&#45;&gt;j1520227290</title>
<path fill="none" stroke="black" d="M802.09,-1216.81C802.09,-1209.23 802.09,-1200.1 802.09,-1191.54"/>
<polygon fill="black" stroke="black" points="805.59,-1191.54 802.09,-1181.54 798.59,-1191.54 805.59,-1191.54"/>
</g>
<!-- j3155114343 -->
<g id="node34" class="node">
<title>j3155114343</title>
<polygon fill="none" stroke="blue" points="988.09,-1107 616.09,-1107 616.09,-1071 988.09,-1071 988.09,-1107"/>
<text text-anchor="middle" x="802.09" y="-1085.3" font-family="Times New Roman,serif" font-size="14.00">y... eso se sintió bien. muy bien. ya no tengo ese peso sobre mí</text>
</g>
<!-- j1520227290&#45;&gt;j3155114343 -->
<g id="edge38" class="edge">
<title>j1520227290&#45;&gt;j3155114343</title>
<path fill="none" stroke="black" d="M802.09,-1143.81C802.09,-1136.23 802.09,-1127.1 802.09,-1118.54"/>
<polygon fill="black" stroke="black" points="805.59,-1118.54 802.09,-1108.54 798.59,-1118.54 805.59,-1118.54"/>
</g>
<!-- j1505364770 -->
<g id="node35" class="node">
<title>j1505364770</title>
<polygon fill="none" stroke="blue" points="879.59,-1034 724.59,-1034 724.59,-998 879.59,-998 879.59,-1034"/>
<text text-anchor="middle" x="802.09" y="-1012.3" font-family="Times New Roman,serif" font-size="14.00">y todo eso es gracias a ti</text>
</g>
<!-- j3155114343&#45;&gt;j1505364770 -->
<g id="edge39" class="edge">
<title>j3155114343&#45;&gt;j1505364770</title>
<path fill="none" stroke="black" d="M802.09,-1070.81C802.09,-1063.23 802.09,-1054.1 802.09,-1045.54"/>
<polygon fill="black" stroke="black" points="805.59,-1045.54 802.09,-1035.54 798.59,-1045.54 805.59,-1045.54"/>
</g>
<!-- j2532970724 -->
<g id="node36" class="node">
<title>j2532970724</title>
<ellipse fill="none" stroke="orange" cx="802.09" cy="-943" rx="117.78" ry="18"/>
<text text-anchor="middle" x="802.09" y="-939.3" font-family="Times New Roman,serif" font-size="14.00">Check boolean QuincyDating</text>
</g>
<!-- j1505364770&#45;&gt;j2532970724 -->
<g id="edge40" class="edge">
<title>j1505364770&#45;&gt;j2532970724</title>
<path fill="none" stroke="black" d="M802.09,-997.81C802.09,-990.23 802.09,-981.1 802.09,-972.54"/>
<polygon fill="black" stroke="black" points="805.59,-972.54 802.09,-962.54 798.59,-972.54 805.59,-972.54"/>
</g>
<!-- j3295996683 -->
<g id="node37" class="node">
<title>j3295996683</title>
<polygon fill="none" stroke="blue" points="1034.09,-874 640.09,-874 640.09,-838 1034.09,-838 1034.09,-874"/>
<text text-anchor="middle" x="837.09" y="-852.3" font-family="Times New Roman,serif" font-size="14.00">así que, amor, solo quería decirte... gracias. y... bueno también que</text>
</g>
<!-- j2532970724&#45;&gt;j3295996683 -->
<g id="edge41" class="edge">
<title>j2532970724&#45;&gt;j3295996683</title>
<path fill="none" stroke="green" d="M809.17,-924.8C813.88,-913.35 820.18,-898.06 825.6,-884.89"/>
<polygon fill="green" stroke="green" points="828.75,-886.45 829.32,-875.87 822.28,-883.78 828.75,-886.45"/>
<text text-anchor="middle" x="832.09" y="-895.8" font-family="Times New Roman,serif" font-size="14.00">true</text>
</g>
<!-- j2433878936 -->
<g id="node38" class="node">
<title>j2433878936</title>
<polygon fill="none" stroke="blue" points="621.59,-874 144.59,-874 144.59,-838 621.59,-838 621.59,-874"/>
<text text-anchor="middle" x="383.09" y="-852.3" font-family="Times New Roman,serif" font-size="14.00">así que, ¿primis? solo quería decirte... que tienes un compa de x vida en mí, ahora</text>
</g>
<!-- j2532970724&#45;&gt;j2433878936 -->
<g id="edge42" class="edge">
<title>j2532970724&#45;&gt;j2433878936</title>
<path fill="none" stroke="brown" d="M733.37,-928.06C664.55,-914.1 558.01,-892.48 480.49,-876.76"/>
<polygon fill="brown" stroke="brown" points="481.25,-873.34 470.76,-874.78 479.86,-880.2 481.25,-873.34"/>
<text text-anchor="middle" x="631.09" y="-895.8" font-family="Times New Roman,serif" font-size="14.00">false</text>
</g>
<!-- j2548427387 -->
<g id="node39" class="node">
<title>j2548427387</title>
<polygon fill="none" stroke="blue" points="864.09,-801 810.09,-801 810.09,-765 864.09,-765 864.09,-801"/>
<text text-anchor="middle" x="837.09" y="-779.3" font-family="Times New Roman,serif" font-size="14.00">te amo</text>
</g>
<!-- j3295996683&#45;&gt;j2548427387 -->
<g id="edge43" class="edge">
<title>j3295996683&#45;&gt;j2548427387</title>
<path fill="none" stroke="black" d="M837.09,-837.81C837.09,-830.23 837.09,-821.1 837.09,-812.54"/>
<polygon fill="black" stroke="black" points="840.59,-812.54 837.09,-802.54 833.59,-812.54 840.59,-812.54"/>
</g>
<!-- j2088480007 -->
<g id="node40" class="node">
<title>j2088480007</title>
<polygon fill="none" stroke="blue" points="640.59,-747 125.59,-747 125.59,-711 640.59,-711 640.59,-747"/>
<text text-anchor="middle" x="383.09" y="-725.3" font-family="Times New Roman,serif" font-size="14.00">no somos solo mejores amigos, somos familia. gracias x estar aquí y x todo lo que haces</text>
</g>
<!-- j2433878936&#45;&gt;j2088480007 -->
<g id="edge44" class="edge">
<title>j2433878936&#45;&gt;j2088480007</title>
<path fill="none" stroke="black" d="M383.09,-837.62C383.09,-817.19 383.09,-782.99 383.09,-758.62"/>
<polygon fill="black" stroke="black" points="386.59,-758.75 383.09,-748.75 379.59,-758.75 386.59,-758.75"/>
</g>
<!-- j1601634130 -->
<g id="node41" class="node">
<title>j1601634130</title>
<polygon fill="none" stroke="red" points="698.09,-693 354.09,-693 354.09,-657 698.09,-657 698.09,-693"/>
<text text-anchor="middle" x="526.09" y="-671.3" font-family="Times New Roman,serif" font-size="14.00">Yo también te amo, Quincy. &lt;RETRO_EMOJI_HEART&gt;</text>
</g>
<!-- j2548427387&#45;&gt;j1601634130 -->
<g id="edge45" class="edge">
<title>j2548427387&#45;&gt;j1601634130</title>
<path fill="none" stroke="black" d="M809.63,-770.8C773.25,-756.15 706.9,-730.1 649.09,-711 633.93,-705.99 617.58,-701.03 601.91,-696.5"/>
<polygon fill="black" stroke="black" points="603.22,-693.23 592.65,-693.84 601.3,-699.96 603.22,-693.23"/>
</g>
<!-- j4218717722 -->
<g id="node42" class="node">
<title>j4218717722</title>
<polygon fill="none" stroke="red" points="1228.09,-693 716.09,-693 716.09,-657 1228.09,-657 1228.09,-693"/>
<text text-anchor="middle" x="972.09" y="-671.3" font-family="Times New Roman,serif" font-size="14.00">Yo... lo siento, pero creo que este tipo de compromiso es demasiado para mí por ahora.</text>
</g>
<!-- j2548427387&#45;&gt;j4218717722 -->
<g id="edge46" class="edge">
<title>j2548427387&#45;&gt;j4218717722</title>
<path fill="none" stroke="black" d="M859.08,-764.73C881.44,-747.18 916.27,-719.83 941.35,-700.14"/>
<polygon fill="black" stroke="black" points="943.21,-703.12 948.92,-694.19 938.89,-697.62 943.21,-703.12"/>
</g>
<!-- j1739886889 -->
<g id="node43" class="node">
<title>j1739886889</title>
<polygon fill="none" stroke="blue" points="598.59,-401 513.59,-401 513.59,-365 598.59,-365 598.59,-401"/>
<text text-anchor="middle" x="556.09" y="-379.3" font-family="Times New Roman,serif" font-size="14.00">te debo 1. ;)</text>
</g>
<!-- j2088480007&#45;&gt;j1739886889 -->
<g id="edge47" class="edge">
<title>j2088480007&#45;&gt;j1739886889</title>
<path fill="none" stroke="black" d="M290.55,-710.54C224.79,-695.4 148.09,-670.9 148.09,-639 148.09,-639 148.09,-639 148.09,-455 148.09,-419.5 390.95,-396.51 501.93,-387.87"/>
<polygon fill="black" stroke="black" points="501.98,-391.37 511.69,-387.12 501.45,-384.39 501.98,-391.37"/>
</g>
<!-- j2551883050 -->
<g id="node44" class="node">
<title>j2551883050</title>
<polygon fill="none" stroke="blue" points="935.59,-620 176.59,-620 176.59,-584 935.59,-584 935.59,-620"/>
<text text-anchor="middle" x="556.09" y="-598.3" font-family="Times New Roman,serif" font-size="14.00">de todos los tiempos y lugares, de todas las personas... tú y yo. no lo hubiera soñado nunca, pero no lo cambiaría x nada del mundo</text>
</g>
<!-- j1601634130&#45;&gt;j2551883050 -->
<g id="edge48" class="edge">
<title>j1601634130&#45;&gt;j2551883050</title>
<path fill="none" stroke="black" d="M533.35,-656.81C536.7,-648.88 540.77,-639.26 544.53,-630.36"/>
<polygon fill="black" stroke="black" points="547.64,-632 548.3,-621.42 541.19,-629.27 547.64,-632"/>
</g>
<!-- j2036232036 -->
<g id="node45" class="node">
<title>j2036232036</title>
<polygon fill="none" stroke="blue" points="1186.59,-620 953.59,-620 953.59,-584 1186.59,-584 1186.59,-620"/>
<text text-anchor="middle" x="1070.09" y="-598.3" font-family="Times New Roman,serif" font-size="14.00">xq no me pateas las pelotas de una vez</text>
</g>
<!-- j4218717722&#45;&gt;j2036232036 -->
<g id="edge49" class="edge">
<title>j4218717722&#45;&gt;j2036232036</title>
<path fill="none" stroke="black" d="M996.06,-656.63C1008.4,-647.69 1023.63,-636.66 1037.07,-626.92"/>
<polygon fill="black" stroke="black" points="1038.75,-630.02 1044.8,-621.32 1034.65,-624.36 1038.75,-630.02"/>
</g>
<!-- j1739886889&#45;&gt;Chat ends. -->
<g id="edge50" class="edge">
<title>j1739886889&#45;&gt;Chat ends.</title>
<path fill="none" stroke="black" d="M560.69,-364.63C564.08,-350.34 568.09,-329.5 568.09,-311 568.09,-311 568.09,-311 568.09,-90 568.09,-66.04 588.27,-48.51 608.84,-36.87"/>
<polygon fill="black" stroke="black" points="610.3,-40.05 617.55,-32.32 607.06,-33.85 610.3,-40.05"/>
</g>
<!-- j4081143686 -->
<g id="node46" class="node">
<title>j4081143686</title>
<polygon fill="none" stroke="blue" points="602.09,-547 510.09,-547 510.09,-511 602.09,-511 602.09,-547"/>
<text text-anchor="middle" x="556.09" y="-525.3" font-family="Times New Roman,serif" font-size="14.00">o el futuro lol</text>
</g>
<!-- j2551883050&#45;&gt;j4081143686 -->
<g id="edge51" class="edge">
<title>j2551883050&#45;&gt;j4081143686</title>
<path fill="none" stroke="black" d="M556.09,-583.81C556.09,-576.23 556.09,-567.1 556.09,-558.54"/>
<polygon fill="black" stroke="black" points="559.59,-558.54 556.09,-548.54 552.59,-558.54 559.59,-558.54"/>
</g>
<!-- j3212840061 -->
<g id="node47" class="node">
<title>j3212840061</title>
<polygon fill="none" stroke="blue" points="1112.09,-547 986.09,-547 986.09,-511 1112.09,-511 1112.09,-547"/>
<text text-anchor="middle" x="1049.09" y="-525.3" font-family="Times New Roman,serif" font-size="14.00">mierda, ¡¿en serio?!</text>
</g>
<!-- j2036232036&#45;&gt;j3212840061 -->
<g id="edge52" class="edge">
<title>j2036232036&#45;&gt;j3212840061</title>
<path fill="none" stroke="black" d="M1065.01,-583.81C1062.71,-576.05 1059.94,-566.68 1057.36,-557.95"/>
<polygon fill="black" stroke="black" points="1060.75,-557.08 1054.55,-548.48 1054.03,-559.06 1060.75,-557.08"/>
</g>
<!-- j3392258000 -->
<g id="node48" class="node">
<title>j3392258000</title>
<polygon fill="none" stroke="blue" points="723.59,-474 388.59,-474 388.59,-438 723.59,-438 723.59,-474"/>
<text text-anchor="middle" x="556.09" y="-452.3" font-family="Times New Roman,serif" font-size="14.00">así que... gracias, bebé, x estar ahí y x todo lo que haces</text>
</g>
<!-- j4081143686&#45;&gt;j3392258000 -->
<g id="edge53" class="edge">
<title>j4081143686&#45;&gt;j3392258000</title>
<path fill="none" stroke="black" d="M556.09,-510.81C556.09,-503.23 556.09,-494.1 556.09,-485.54"/>
<polygon fill="black" stroke="black" points="559.59,-485.54 556.09,-475.54 552.59,-485.54 559.59,-485.54"/>
</g>
<!-- j1467252216 -->
<g id="node49" class="node">
<title>j1467252216</title>
<polygon fill="none" stroke="blue" points="1011.59,-474 892.59,-474 892.59,-438 1011.59,-438 1011.59,-474"/>
<text text-anchor="middle" x="952.09" y="-452.3" font-family="Times New Roman,serif" font-size="14.00">AFTER ALL TH&#45;</text>
</g>
<!-- j3212840061&#45;&gt;j1467252216 -->
<g id="edge54" class="edge">
<title>j3212840061&#45;&gt;j1467252216</title>
<path fill="none" stroke="black" d="M1025.61,-510.81C1013.31,-501.81 998.05,-490.64 984.63,-480.82"/>
<polygon fill="black" stroke="black" points="987.05,-478.25 976.91,-475.17 982.91,-483.9 987.05,-478.25"/>
</g>
<!-- j3392258000&#45;&gt;j1739886889 -->
<g id="edge55" class="edge">
<title>j3392258000&#45;&gt;j1739886889</title>
<path fill="none" stroke="black" d="M556.09,-437.81C556.09,-430.23 556.09,-421.1 556.09,-412.54"/>
<polygon fill="black" stroke="black" points="559.59,-412.54 556.09,-402.54 552.59,-412.54 559.59,-412.54"/>
</g>
<!-- j3681722715 -->
<g id="node50" class="node">
<title>j3681722715</title>
<polygon fill="none" stroke="blue" points="1099.09,-401 771.09,-401 771.09,-365 1099.09,-365 1099.09,-401"/>
<text text-anchor="middle" x="935.09" y="-379.3" font-family="Times New Roman,serif" font-size="14.00">¿sabes qué? no importa. como sea. como sea. está bien</text>
</g>
<!-- j1467252216&#45;&gt;j3681722715 -->
<g id="edge56" class="edge">
<title>j1467252216&#45;&gt;j3681722715</title>
<path fill="none" stroke="black" d="M947.97,-437.81C946.12,-430.05 943.87,-420.68 941.78,-411.95"/>
<polygon fill="black" stroke="black" points="945.25,-411.41 939.52,-402.5 938.44,-413.04 945.25,-411.41"/>
</g>
<!-- j1038213515 -->
<g id="node51" class="node">
<title>j1038213515</title>
<polygon fill="none" stroke="blue" points="1193.59,-328 618.59,-328 618.59,-292 1193.59,-292 1193.59,-328"/>
<text text-anchor="middle" x="906.09" y="-306.3" font-family="Times New Roman,serif" font-size="14.00">pero este es exactamente el tipo de mierda de la que he estado hablando todo este tiempo. sólo digo</text>
</g>
<!-- j3681722715&#45;&gt;j1038213515 -->
<g id="edge57" class="edge">
<title>j3681722715&#45;&gt;j1038213515</title>
<path fill="none" stroke="black" d="M928.07,-364.81C924.86,-356.96 920.99,-347.47 917.38,-338.66"/>
<polygon fill="black" stroke="black" points="920.64,-337.36 913.62,-329.43 914.16,-340.01 920.64,-337.36"/>
</g>
<!-- j2319655028 -->
<g id="node52" class="node">
<title>j2319655028</title>
<ellipse fill="none" stroke="orange" cx="771.09" cy="-237" rx="141.88" ry="18"/>
<text text-anchor="middle" x="771.09" y="-233.3" font-family="Times New Roman,serif" font-size="14.00">Boolean QuincyNoDate is now true.</text>
</g>
<!-- j1038213515&#45;&gt;j2319655028 -->
<g id="edge58" class="edge">
<title>j1038213515&#45;&gt;j2319655028</title>
<path fill="none" stroke="black" d="M873.06,-291.63C855.07,-282.17 832.6,-270.35 813.34,-260.22"/>
<polygon fill="black" stroke="black" points="815.13,-257.21 804.65,-255.65 811.87,-263.4 815.13,-257.21"/>
</g>
<!-- j1884175600 -->
<g id="node53" class="node">
<title>j1884175600</title>
<ellipse fill="none" stroke="orange" cx="759.09" cy="-164" rx="140.28" ry="18"/>
<text text-anchor="middle" x="759.09" y="-160.3" font-family="Times New Roman,serif" font-size="14.00">Boolean QuincyDating is now false.</text>
</g>
<!-- j2319655028&#45;&gt;j1884175600 -->
<g id="edge59" class="edge">
<title>j2319655028&#45;&gt;j1884175600</title>
<path fill="none" stroke="black" d="M768.18,-218.81C766.89,-211.14 765.32,-201.89 763.86,-193.24"/>
<polygon fill="black" stroke="black" points="767.34,-192.8 762.22,-183.52 760.43,-193.96 767.34,-192.8"/>
</g>
<!-- j1242024027 -->
<g id="node54" class="node">
<title>j1242024027</title>
<ellipse fill="none" stroke="orange" cx="728.09" cy="-91" rx="120.78" ry="18"/>
<text text-anchor="middle" x="728.09" y="-87.3" font-family="Times New Roman,serif" font-size="14.00">Boolean IsDating is now false.</text>
</g>
<!-- j1884175600&#45;&gt;j1242024027 -->
<g id="edge60" class="edge">
<title>j1884175600&#45;&gt;j1242024027</title>
<path fill="none" stroke="black" d="M751.58,-145.81C748.12,-137.88 743.92,-128.26 740.04,-119.36"/>
<polygon fill="black" stroke="black" points="743.34,-118.18 736.13,-110.42 736.92,-120.98 743.34,-118.18"/>
</g>
<!-- j1242024027&#45;&gt;Chat ends. -->
<g id="edge61" class="edge">
<title>j1242024027&#45;&gt;Chat ends.</title>
<path fill="none" stroke="black" d="M709.69,-72.81C700.15,-63.9 688.34,-52.86 677.9,-43.11"/>
<polygon fill="black" stroke="black" points="680.34,-40.6 670.64,-36.33 675.56,-45.71 680.34,-40.6"/>
</g>
</g>
</svg>
