<?xml version="1.0" encoding="UTF-8" standalone="no"?>
<!DOCTYPE svg PUBLIC "-//W3C//DTD SVG 1.1//EN"
 "http://www.w3.org/Graphics/SVG/1.1/DTD/svg11.dtd">
<!-- Generated by graphviz version 7.1.0 (20230121.1956)
 -->
<!-- Pages: 1 -->
<svg width="2324pt" height="1401pt"
 viewBox="0.00 0.00 2323.55 1401.00" xmlns="http://www.w3.org/2000/svg" xmlns:xlink="http://www.w3.org/1999/xlink">
<g id="graph0" class="graph" transform="scale(1 1) rotate(0) translate(4 1397)">
<polygon fill="white" stroke="none" points="-4,4 -4,-1397 2319.55,-1397 2319.55,4 -4,4"/>
<!-- QuincyTomorrow begins. -->
<g id="node1" class="node">
<title>QuincyTomorrow begins.</title>
<ellipse fill="none" stroke="orange" cx="497.05" cy="-1375" rx="104.78" ry="18"/>
<text text-anchor="middle" x="497.05" y="-1371.3" font-family="Times New Roman,serif" font-size="14.00">QuincyTomorrow begins.</text>
</g>
<!-- j2158058483 -->
<g id="node2" class="node">
<title>j2158058483</title>
<polygon fill="none" stroke="red" points="1053.05,-1320 381.05,-1320 381.05,-1284 1053.05,-1284 1053.05,-1320"/>
<text text-anchor="middle" x="717.05" y="-1298.3" font-family="Times New Roman,serif" font-size="14.00">Отже. Прийшло «завтра». То я отримаю нарешті ту розповідь «як Квінсі потрапив до прокльонівців» чи ні?</text>
</g>
<!-- QuincyTomorrow begins.&#45;&gt;j2158058483 -->
<g id="edge1" class="edge">
<title>QuincyTomorrow begins.&#45;&gt;j2158058483</title>
<path fill="none" stroke="black" d="M544.78,-1358.59C576.14,-1348.47 617.57,-1335.1 651.94,-1324.01"/>
<polygon fill="black" stroke="black" points="652.94,-1327.37 661.38,-1320.96 650.79,-1320.7 652.94,-1327.37"/>
</g>
<!-- j888276333 -->
<g id="node3" class="node">
<title>j888276333</title>
<polygon fill="none" stroke="red" points="349.55,-1320 234.55,-1320 234.55,-1284 349.55,-1284 349.55,-1320"/>
<text text-anchor="middle" x="292.05" y="-1298.3" font-family="Times New Roman,serif" font-size="14.00">[Не нагадувати.]</text>
</g>
<!-- QuincyTomorrow begins.&#45;&gt;j888276333 -->
<g id="edge2" class="edge">
<title>QuincyTomorrow begins.&#45;&gt;j888276333</title>
<path fill="none" stroke="black" d="M451.8,-1358.33C422.78,-1348.28 384.73,-1335.1 353.05,-1324.13"/>
<polygon fill="black" stroke="black" points="354.6,-1320.96 344,-1320.99 352.3,-1327.57 354.6,-1320.96"/>
</g>
<!-- j2441851456 -->
<g id="node4" class="node">
<title>j2441851456</title>
<polygon fill="none" stroke="blue" points="898.05,-1247 598.05,-1247 598.05,-1211 898.05,-1211 898.05,-1247"/>
<text text-anchor="middle" x="748.05" y="-1225.3" font-family="Times New Roman,serif" font-size="14.00">не може почекати? я посеред важливої роботи</text>
</g>
<!-- j2158058483&#45;&gt;j2441851456 -->
<g id="edge3" class="edge">
<title>j2158058483&#45;&gt;j2441851456</title>
<path fill="none" stroke="black" d="M724.55,-1283.81C728.01,-1275.88 732.21,-1266.26 736.1,-1257.36"/>
<polygon fill="black" stroke="black" points="739.21,-1258.98 740,-1248.42 732.8,-1256.18 739.21,-1258.98"/>
</g>
<!-- j367054140 -->
<g id="node5" class="node">
<title>j367054140</title>
<ellipse fill="none" stroke="orange" cx="74.05" cy="-1175" rx="64.19" ry="18"/>
<text text-anchor="middle" x="74.05" y="-1171.3" font-family="Times New Roman,serif" font-size="14.00">+20 Chemistry</text>
</g>
<!-- j888276333&#45;&gt;j367054140 -->
<g id="edge4" class="edge">
<title>j888276333&#45;&gt;j367054140</title>
<path fill="none" stroke="black" d="M261.73,-1283.62C222.39,-1261.06 153.77,-1221.71 111.29,-1197.36"/>
<polygon fill="black" stroke="black" points="113.08,-1194.35 102.67,-1192.41 109.6,-1200.42 113.08,-1194.35"/>
</g>
<!-- j2620124444 -->
<g id="node6" class="node">
<title>j2620124444</title>
<ellipse fill="none" stroke="orange" cx="755.05" cy="-1121" rx="117.78" ry="18"/>
<text text-anchor="middle" x="755.05" y="-1117.3" font-family="Times New Roman,serif" font-size="14.00">Check boolean QuincyDating</text>
</g>
<!-- j2441851456&#45;&gt;j2620124444 -->
<g id="edge5" class="edge">
<title>j2441851456&#45;&gt;j2620124444</title>
<path fill="none" stroke="black" d="M749.17,-1210.97C750.24,-1194.76 751.87,-1170.06 753.14,-1150.79"/>
<polygon fill="black" stroke="black" points="756.63,-1151.06 753.8,-1140.85 749.65,-1150.6 756.63,-1151.06"/>
</g>
<!-- Chat ends. -->
<g id="node7" class="node">
<title>Chat ends.</title>
<ellipse fill="none" stroke="orange" cx="50.05" cy="-18" rx="50.09" ry="18"/>
<text text-anchor="middle" x="50.05" y="-14.3" font-family="Times New Roman,serif" font-size="14.00">Chat ends.</text>
</g>
<!-- j367054140&#45;&gt;Chat ends. -->
<g id="edge6" class="edge">
<title>j367054140&#45;&gt;Chat ends.</title>
<path fill="none" stroke="black" d="M63.24,-1156.78C52.64,-1138.2 38.05,-1107.38 38.05,-1078.5 38.05,-1078.5 38.05,-1078.5 38.05,-90 38.05,-75.83 40.4,-60.3 43.02,-47.38"/>
<polygon fill="black" stroke="black" points="46.38,-48.37 45.12,-37.85 39.55,-46.86 46.38,-48.37"/>
</g>
<!-- j2235643282 -->
<g id="node8" class="node">
<title>j2235643282</title>
<polygon fill="none" stroke="red" points="1579.05,-998 793.05,-998 793.05,-962 1579.05,-962 1579.05,-998"/>
<text text-anchor="middle" x="1186.05" y="-976.3" font-family="Times New Roman,serif" font-size="14.00">К., ми зустрічаємося. Очевидно, що ти не хочеш розповідати про те, що сталося. Але ти маєш довіряти мені в подібних речах.</text>
</g>
<!-- j2620124444&#45;&gt;j2235643282 -->
<g id="edge7" class="edge">
<title>j2620124444&#45;&gt;j2235643282</title>
<path fill="none" stroke="green" d="M866.4,-1114.8C972.7,-1107.56 1122.87,-1090.65 1166.05,-1052 1177.94,-1041.35 1182.99,-1024.24 1185.05,-1009.48"/>
<polygon fill="green" stroke="green" points="1188.5,-1010.11 1185.98,-999.82 1181.54,-1009.44 1188.5,-1010.11"/>
<text text-anchor="middle" x="1144.05" y="-1073.8" font-family="Times New Roman,serif" font-size="14.00">true</text>
</g>
<!-- j1703803979 -->
<g id="node9" class="node">
<title>j1703803979</title>
<polygon fill="none" stroke="red" points="424.05,-1052 80.05,-1052 80.05,-1016 424.05,-1016 424.05,-1052"/>
<text text-anchor="middle" x="252.05" y="-1030.3" font-family="Times New Roman,serif" font-size="14.00">Я вже довго чекаю на цю розповідь і чекаю терпляче.</text>
</g>
<!-- j2620124444&#45;&gt;j1703803979 -->
<g id="edge8" class="edge">
<title>j2620124444&#45;&gt;j1703803979</title>
<path fill="none" stroke="green" d="M678.1,-1107C594.98,-1092.95 461.66,-1070.42 366.29,-1054.31"/>
<polygon fill="green" stroke="green" points="367.08,-1050.89 356.64,-1052.67 365.92,-1057.79 367.08,-1050.89"/>
<text text-anchor="middle" x="545.05" y="-1073.8" font-family="Times New Roman,serif" font-size="14.00">true</text>
</g>
<!-- j2620124444&#45;&gt;j1703803979 -->
<g id="edge11" class="edge">
<title>j2620124444&#45;&gt;j1703803979</title>
<path fill="none" stroke="brown" d="M651.54,-1112.08C590.78,-1106.5 512.69,-1097.73 444.05,-1085 402.76,-1077.34 357.27,-1065.64 320.93,-1055.48"/>
<polygon fill="brown" stroke="brown" points="321.99,-1052.15 311.41,-1052.8 320.09,-1058.88 321.99,-1052.15"/>
<text text-anchor="middle" x="457.05" y="-1073.8" font-family="Times New Roman,serif" font-size="14.00">false</text>
</g>
<!-- j2965714292 -->
<g id="node10" class="node">
<title>j2965714292</title>
<polygon fill="none" stroke="red" points="1157.55,-1052 442.55,-1052 442.55,-1016 1157.55,-1016 1157.55,-1052"/>
<text text-anchor="middle" x="800.05" y="-1030.3" font-family="Times New Roman,serif" font-size="14.00">Просто скажи, якщо не хочеш узагалі розповідати. У всіх є таємниці. Щоби не сталося — це стосується лише тебе.</text>
</g>
<!-- j2620124444&#45;&gt;j2965714292 -->
<g id="edge9" class="edge">
<title>j2620124444&#45;&gt;j2965714292</title>
<path fill="none" stroke="green" d="M751.9,-1102.94C750.86,-1092.85 751.04,-1080.12 756.05,-1070 757.79,-1066.48 760.07,-1063.2 762.67,-1060.18"/>
<polygon fill="green" stroke="green" points="764.91,-1062.88 769.62,-1053.39 760.02,-1057.87 764.91,-1062.88"/>
<text text-anchor="middle" x="767.05" y="-1073.8" font-family="Times New Roman,serif" font-size="14.00">true</text>
</g>
<!-- j2620124444&#45;&gt;j2965714292 -->
<g id="edge12" class="edge">
<title>j2620124444&#45;&gt;j2965714292</title>
<path fill="none" stroke="brown" d="M767.1,-1102.91C770.81,-1097.32 774.78,-1091 778.05,-1085 781.84,-1078.03 785.5,-1070.27 788.71,-1062.99"/>
<polygon fill="brown" stroke="brown" points="791.9,-1064.43 792.61,-1053.86 785.47,-1061.68 791.9,-1064.43"/>
<text text-anchor="middle" x="799.05" y="-1073.8" font-family="Times New Roman,serif" font-size="14.00">false</text>
</g>
<!-- j3896027594 -->
<g id="node11" class="node">
<title>j3896027594</title>
<polygon fill="none" stroke="red" points="2315.55,-998 1584.55,-998 1584.55,-962 2315.55,-962 2315.55,-998"/>
<text text-anchor="middle" x="1950.05" y="-976.3" font-family="Times New Roman,serif" font-size="14.00">К., ми друзі. Очевидно, що ти не хочеш розповідати про те, що сталося. Але ти маєш довіряти мені в подібних речах.</text>
</g>
<!-- j2620124444&#45;&gt;j3896027594 -->
<g id="edge10" class="edge">
<title>j2620124444&#45;&gt;j3896027594</title>
<path fill="none" stroke="brown" d="M858.96,-1112.27C940.63,-1105.89 1057.21,-1096.1 1159.05,-1085 1391.84,-1059.62 1662.15,-1022.41 1818.89,-1000.05"/>
<polygon fill="brown" stroke="brown" points="1819.07,-1003.56 1828.47,-998.69 1818.08,-996.63 1819.07,-1003.56"/>
<text text-anchor="middle" x="1296.05" y="-1073.8" font-family="Times New Roman,serif" font-size="14.00">false</text>
</g>
<!-- j3957256761 -->
<g id="node12" class="node">
<title>j3957256761</title>
<polygon fill="none" stroke="blue" points="1510.05,-890 886.05,-890 886.05,-854 1510.05,-854 1510.05,-890"/>
<text text-anchor="middle" x="1198.05" y="-868.3" font-family="Times New Roman,serif" font-size="14.00">слухай, я зважатиму на те, шо в тебе явно не було багато стосунків у житті, ЯКШО ВЗАГАЛІ БУЛИ</text>
</g>
<!-- j2235643282&#45;&gt;j3957256761 -->
<g id="edge13" class="edge">
<title>j2235643282&#45;&gt;j3957256761</title>
<path fill="none" stroke="black" d="M1187.97,-961.97C1189.82,-945.69 1192.63,-920.82 1194.82,-901.52"/>
<polygon fill="black" stroke="black" points="1198.27,-902.17 1195.91,-891.84 1191.31,-901.39 1198.27,-902.17"/>
</g>
<!-- j4046612097 -->
<g id="node13" class="node">
<title>j4046612097</title>
<polygon fill="none" stroke="blue" points="1006.55,-836 549.55,-836 549.55,-800 1006.55,-800 1006.55,-836"/>
<text text-anchor="middle" x="778.05" y="-814.3" font-family="Times New Roman,serif" font-size="14.00">справедливо. дуже. вибач. це не те, шо мені хотілося б виносити назовні</text>
</g>
<!-- j1703803979&#45;&gt;j4046612097 -->
<g id="edge14" class="edge">
<title>j1703803979&#45;&gt;j4046612097</title>
<path fill="none" stroke="black" d="M279.32,-1015.66C321.32,-989.54 404.97,-939.75 481.05,-908 550.72,-878.92 633.21,-854.99 693.55,-839.29"/>
<polygon fill="black" stroke="black" points="694.28,-842.72 703.09,-836.83 692.53,-835.94 694.28,-842.72"/>
</g>
<!-- j1709233287 -->
<g id="node14" class="node">
<title>j1709233287</title>
<polygon fill="none" stroke="red" points="1066.05,-944 490.05,-944 490.05,-908 1066.05,-908 1066.05,-944"/>
<text text-anchor="middle" x="778.05" y="-922.3" font-family="Times New Roman,serif" font-size="14.00">Не треба водити мене довкола: розповім, а потім не розповідаєш. Ти не любиш ігор. І я теж.</text>
</g>
<!-- j2965714292&#45;&gt;j1709233287 -->
<g id="edge15" class="edge">
<title>j2965714292&#45;&gt;j1709233287</title>
<path fill="none" stroke="black" d="M795.95,-1015.58C794.67,-1009.97 793.27,-1003.73 792.05,-998 789.06,-983.98 785.96,-968.36 783.43,-955.34"/>
<polygon fill="black" stroke="black" points="786.91,-954.89 781.58,-945.73 780.04,-956.21 786.91,-954.89"/>
</g>
<!-- j1391231786 -->
<g id="node15" class="node">
<title>j1391231786</title>
<polygon fill="none" stroke="blue" points="2172.55,-890 1723.55,-890 1723.55,-854 2172.55,-854 2172.55,-890"/>
<text text-anchor="middle" x="1948.05" y="-868.3" font-family="Times New Roman,serif" font-size="14.00">слухай, я зважатиму на те, шо в тебе явно не було багато друзів у житті</text>
</g>
<!-- j3896027594&#45;&gt;j1391231786 -->
<g id="edge16" class="edge">
<title>j3896027594&#45;&gt;j1391231786</title>
<path fill="none" stroke="black" d="M1949.72,-961.97C1949.42,-945.76 1948.95,-921.06 1948.59,-901.79"/>
<polygon fill="black" stroke="black" points="1952.09,-901.79 1948.4,-891.85 1945.09,-901.92 1952.09,-901.79"/>
</g>
<!-- j867891566 -->
<g id="node16" class="node">
<title>j867891566</title>
<polygon fill="none" stroke="blue" points="1522.05,-763 1010.05,-763 1010.05,-727 1522.05,-727 1522.05,-763"/>
<text text-anchor="middle" x="1266.05" y="-741.3" font-family="Times New Roman,serif" font-size="14.00">але бути з кимось і довіряти найтемніші моменти життя? ХАХ ти таке наївне іноді</text>
</g>
<!-- j3957256761&#45;&gt;j867891566 -->
<g id="edge17" class="edge">
<title>j3957256761&#45;&gt;j867891566</title>
<path fill="none" stroke="black" d="M1207.5,-853.62C1218.82,-832.82 1237.9,-797.73 1251.19,-773.3"/>
<polygon fill="black" stroke="black" points="1254.24,-775.02 1255.95,-764.56 1248.09,-771.67 1254.24,-775.02"/>
</g>
<!-- j1095040512 -->
<g id="node17" class="node">
<title>j1095040512</title>
<polygon fill="none" stroke="blue" points="949.55,-763 850.55,-763 850.55,-727 949.55,-727 949.55,-763"/>
<text text-anchor="middle" x="900.05" y="-741.3" font-family="Times New Roman,serif" font-size="14.00">не ображайся</text>
</g>
<!-- j4046612097&#45;&gt;j1095040512 -->
<g id="edge18" class="edge">
<title>j4046612097&#45;&gt;j1095040512</title>
<path fill="none" stroke="black" d="M807.89,-799.63C823.69,-790.43 843.31,-779.02 860.38,-769.08"/>
<polygon fill="black" stroke="black" points="861.9,-772.25 868.78,-764.2 858.37,-766.2 861.9,-772.25"/>
</g>
<!-- j1709233287&#45;&gt;j4046612097 -->
<g id="edge19" class="edge">
<title>j1709233287&#45;&gt;j4046612097</title>
<path fill="none" stroke="black" d="M778.05,-907.97C778.05,-891.76 778.05,-867.06 778.05,-847.79"/>
<polygon fill="black" stroke="black" points="781.55,-847.85 778.05,-837.85 774.55,-847.85 781.55,-847.85"/>
</g>
<!-- j1059937239 -->
<g id="node18" class="node">
<title>j1059937239</title>
<polygon fill="none" stroke="blue" points="2182.55,-763 1645.55,-763 1645.55,-727 2182.55,-727 2182.55,-763"/>
<text text-anchor="middle" x="1914.05" y="-741.3" font-family="Times New Roman,serif" font-size="14.00">але дружити з кимось і довіряти найтемніші моменти життя? ХАХ ти таке наївне іноді</text>
</g>
<!-- j1391231786&#45;&gt;j1059937239 -->
<g id="edge20" class="edge">
<title>j1391231786&#45;&gt;j1059937239</title>
<path fill="none" stroke="black" d="M1943.32,-853.62C1937.74,-833.1 1928.37,-798.67 1921.74,-774.29"/>
<polygon fill="black" stroke="black" points="1925.13,-773.42 1919.13,-764.69 1918.38,-775.26 1925.13,-773.42"/>
</g>
<!-- j1509873029 -->
<g id="node19" class="node">
<title>j1509873029</title>
<polygon fill="none" stroke="red" points="2002.05,-690 1826.05,-690 1826.05,-654 2002.05,-654 2002.05,-690"/>
<text text-anchor="middle" x="1914.05" y="-668.3" font-family="Times New Roman,serif" font-size="14.00">Хіба це не означає довіру?</text>
</g>
<!-- j867891566&#45;&gt;j1509873029 -->
<g id="edge21" class="edge">
<title>j867891566&#45;&gt;j1509873029</title>
<path fill="none" stroke="black" d="M1425.39,-726.54C1546.94,-713.22 1710.58,-695.29 1814.22,-683.94"/>
<polygon fill="black" stroke="black" points="1814.55,-687.42 1824.11,-682.85 1813.79,-680.46 1814.55,-687.42"/>
</g>
<!-- j3331055229 -->
<g id="node20" class="node">
<title>j3331055229</title>
<polygon fill="none" stroke="red" points="1598.05,-690 934.05,-690 934.05,-654 1598.05,-654 1598.05,-690"/>
<text text-anchor="middle" x="1266.05" y="-668.3" font-family="Times New Roman,serif" font-size="14.00">Я розумію. Скажеш, коли будеш готовий. Усе добре. І якщо будеш «готовий» аж «ніколи»? То теж нехай.</text>
</g>
<!-- j867891566&#45;&gt;j3331055229 -->
<g id="edge22" class="edge">
<title>j867891566&#45;&gt;j3331055229</title>
<path fill="none" stroke="black" d="M1266.05,-726.81C1266.05,-719.23 1266.05,-710.1 1266.05,-701.54"/>
<polygon fill="black" stroke="black" points="1269.55,-701.54 1266.05,-691.54 1262.55,-701.54 1269.55,-701.54"/>
</g>
<!-- j1095040512&#45;&gt;j3331055229 -->
<g id="edge23" class="edge">
<title>j1095040512&#45;&gt;j3331055229</title>
<path fill="none" stroke="black" d="M949.79,-734.35C1004.8,-723.68 1094.89,-706.2 1164.88,-692.63"/>
<polygon fill="black" stroke="black" points="1165.29,-696.11 1174.44,-690.77 1163.96,-689.24 1165.29,-696.11"/>
</g>
<!-- j1059937239&#45;&gt;j1509873029 -->
<g id="edge24" class="edge">
<title>j1059937239&#45;&gt;j1509873029</title>
<path fill="none" stroke="black" d="M1914.05,-726.81C1914.05,-719.23 1914.05,-710.1 1914.05,-701.54"/>
<polygon fill="black" stroke="black" points="1917.55,-701.54 1914.05,-691.54 1910.55,-701.54 1917.55,-701.54"/>
</g>
<!-- j1059937239&#45;&gt;j3331055229 -->
<g id="edge25" class="edge">
<title>j1059937239&#45;&gt;j3331055229</title>
<path fill="none" stroke="black" d="M1754.7,-726.54C1658.26,-715.97 1535.33,-702.5 1436.89,-691.72"/>
<polygon fill="black" stroke="black" points="1437.45,-688.26 1427.13,-690.65 1436.68,-695.22 1437.45,-688.26"/>
</g>
<!-- j56001512 -->
<g id="node21" class="node">
<title>j56001512</title>
<polygon fill="none" stroke="blue" points="2285.05,-563 1559.05,-563 1559.05,-527 2285.05,-527 2285.05,-563"/>
<text text-anchor="middle" x="1922.05" y="-541.3" font-family="Times New Roman,serif" font-size="14.00">ти таке іноді миле. нє. я з тобою не сваритимуся через це. слухай, я все обміркую і ми повернемося до цього згодом</text>
</g>
<!-- j1509873029&#45;&gt;j56001512 -->
<g id="edge26" class="edge">
<title>j1509873029&#45;&gt;j56001512</title>
<path fill="none" stroke="black" d="M1915.16,-653.62C1916.47,-633.19 1918.65,-598.99 1920.21,-574.62"/>
<polygon fill="black" stroke="black" points="1923.7,-574.95 1920.85,-564.74 1916.71,-574.5 1923.7,-574.95"/>
</g>
<!-- j2097033221 -->
<g id="node22" class="node">
<title>j2097033221</title>
<ellipse fill="none" stroke="orange" cx="1266.05" cy="-599" rx="117.78" ry="18"/>
<text text-anchor="middle" x="1266.05" y="-595.3" font-family="Times New Roman,serif" font-size="14.00">Check boolean QuincyDating</text>
</g>
<!-- j3331055229&#45;&gt;j2097033221 -->
<g id="edge27" class="edge">
<title>j3331055229&#45;&gt;j2097033221</title>
<path fill="none" stroke="black" d="M1266.05,-653.81C1266.05,-646.23 1266.05,-637.1 1266.05,-628.54"/>
<polygon fill="black" stroke="black" points="1269.55,-628.54 1266.05,-618.54 1262.55,-628.54 1269.55,-628.54"/>
</g>
<!-- j3559374181 -->
<g id="node23" class="node">
<title>j3559374181</title>
<ellipse fill="none" stroke="orange" cx="1640.05" cy="-91" rx="138.38" ry="18"/>
<text text-anchor="middle" x="1640.05" y="-87.3" font-family="Times New Roman,serif" font-size="14.00">Boolean QuincySorted is now true.</text>
</g>
<!-- j56001512&#45;&gt;j3559374181 -->
<g id="edge28" class="edge">
<title>j56001512&#45;&gt;j3559374181</title>
<path fill="none" stroke="black" d="M1964.71,-526.63C1992.66,-512.11 2024.05,-488.37 2024.05,-455 2024.05,-455 2024.05,-455 2024.05,-163 2024.05,-136 1875.39,-115.12 1763.07,-103.19"/>
<polygon fill="black" stroke="black" points="1763.45,-99.71 1753.14,-102.15 1762.72,-106.67 1763.45,-99.71"/>
</g>
<!-- j2926122906 -->
<g id="node24" class="node">
<title>j2926122906</title>
<polygon fill="none" stroke="blue" points="918.55,-509 697.55,-509 697.55,-473 918.55,-473 918.55,-509"/>
<text text-anchor="middle" x="808.05" y="-487.3" font-family="Times New Roman,serif" font-size="14.00">навіть попри те, шо в нас шось є?</text>
</g>
<!-- j2097033221&#45;&gt;j2926122906 -->
<g id="edge29" class="edge">
<title>j2097033221&#45;&gt;j2926122906</title>
<path fill="none" stroke="green" d="M1202.84,-583.37C1122.75,-564.84 984.34,-532.8 894.51,-512.01"/>
<polygon fill="green" stroke="green" points="895.53,-508.66 885,-509.81 893.95,-515.48 895.53,-508.66"/>
<text text-anchor="middle" x="1116.05" y="-541.3" font-family="Times New Roman,serif" font-size="14.00">true</text>
</g>
<!-- j4244776644 -->
<g id="node25" class="node">
<title>j4244776644</title>
<polygon fill="none" stroke="blue" points="1838.55,-509 1119.55,-509 1119.55,-473 1838.55,-473 1838.55,-509"/>
<text text-anchor="middle" x="1479.05" y="-487.3" font-family="Times New Roman,serif" font-size="14.00">дуже сильно з твого боку. гаразд. я все обміркую ще раз у своїй голові. а потім прийду до тебе на розмову, добре?</text>
</g>
<!-- j2097033221&#45;&gt;j4244776644 -->
<g id="edge30" class="edge">
<title>j2097033221&#45;&gt;j4244776644</title>
<path fill="none" stroke="brown" d="M1299.33,-581.44C1335.6,-563.39 1393.84,-534.4 1434.14,-514.35"/>
<polygon fill="brown" stroke="brown" points="1435.48,-517.59 1442.88,-510 1432.36,-511.32 1435.48,-517.59"/>
<text text-anchor="middle" x="1418.05" y="-541.3" font-family="Times New Roman,serif" font-size="14.00">false</text>
</g>
<!-- j3559374181&#45;&gt;Chat ends. -->
<g id="edge31" class="edge">
<title>j3559374181&#45;&gt;Chat ends.</title>
<path fill="none" stroke="black" d="M1510.94,-84.23C1186.24,-69.74 344.92,-32.17 111.11,-21.73"/>
<polygon fill="black" stroke="black" points="111.46,-18.24 101.31,-21.29 111.14,-25.23 111.46,-18.24"/>
</g>
<!-- j3944994875 -->
<g id="node26" class="node">
<title>j3944994875</title>
<polygon fill="none" stroke="red" points="732.05,-436 518.05,-436 518.05,-400 732.05,-400 732.05,-436"/>
<text text-anchor="middle" x="625.05" y="-414.3" font-family="Times New Roman,serif" font-size="14.00">Мені все норм, здається. А тобі?</text>
</g>
<!-- j2926122906&#45;&gt;j3944994875 -->
<g id="edge32" class="edge">
<title>j2926122906&#45;&gt;j3944994875</title>
<path fill="none" stroke="black" d="M763.28,-472.63C738.35,-462.96 707.11,-450.84 680.63,-440.56"/>
<polygon fill="black" stroke="black" points="681.98,-437.34 671.4,-436.98 679.45,-443.86 681.98,-437.34"/>
</g>
<!-- j1093389547 -->
<g id="node27" class="node">
<title>j1093389547</title>
<polygon fill="none" stroke="red" points="500.05,-436 66.05,-436 66.05,-400 500.05,-400 500.05,-436"/>
<text text-anchor="middle" x="283.05" y="-414.3" font-family="Times New Roman,serif" font-size="14.00">Просто ми ще не перейшли якусь точку. Але мені нормально, а тобі?</text>
</g>
<!-- j2926122906&#45;&gt;j1093389547 -->
<g id="edge33" class="edge">
<title>j2926122906&#45;&gt;j1093389547</title>
<path fill="none" stroke="black" d="M697.35,-475.03C617.52,-464.23 509.14,-449.58 423.26,-437.96"/>
<polygon fill="black" stroke="black" points="423.98,-434.53 413.6,-436.66 423.04,-441.46 423.98,-434.53"/>
</g>
<!-- j2999717432 -->
<g id="node28" class="node">
<title>j2999717432</title>
<polygon fill="none" stroke="red" points="1639.55,-436 750.55,-436 750.55,-400 1639.55,-400 1639.55,-436"/>
<text text-anchor="middle" x="1195.05" y="-414.3" font-family="Times New Roman,serif" font-size="14.00">Я не знаю. Вирішую на ходу. Стосунки мені незвичні. Але я хочу бути з тобою і хочу твоєї довіри. Але також я знаю, що силою не змушу тебе.</text>
</g>
<!-- j2926122906&#45;&gt;j2999717432 -->
<g id="edge34" class="edge">
<title>j2926122906&#45;&gt;j2999717432</title>
<path fill="none" stroke="black" d="M903.21,-472.54C959.45,-462.22 1030.79,-449.13 1088.86,-438.48"/>
<polygon fill="black" stroke="black" points="1089.22,-441.97 1098.42,-436.73 1087.96,-435.09 1089.22,-441.97"/>
</g>
<!-- j3992655527 -->
<g id="node29" class="node">
<title>j3992655527</title>
<polygon fill="none" stroke="blue" points="1996.05,-436 1658.05,-436 1658.05,-400 1996.05,-400 1996.05,-436"/>
<text text-anchor="middle" x="1827.05" y="-414.3" font-family="Times New Roman,serif" font-size="14.00">до речі, буде не дуже приємно. а до того часу. бувай</text>
</g>
<!-- j4244776644&#45;&gt;j3992655527 -->
<g id="edge35" class="edge">
<title>j4244776644&#45;&gt;j3992655527</title>
<path fill="none" stroke="black" d="M1564.62,-472.54C1614.78,-462.31 1678.28,-449.35 1730.25,-438.75"/>
<polygon fill="black" stroke="black" points="1730.92,-442.18 1740.02,-436.76 1729.52,-435.33 1730.92,-442.18"/>
</g>
<!-- j3794574321 -->
<g id="node30" class="node">
<title>j3794574321</title>
<ellipse fill="none" stroke="orange" cx="606.05" cy="-345" rx="59.59" ry="18"/>
<text text-anchor="middle" x="606.05" y="-341.3" font-family="Times New Roman,serif" font-size="14.00">+5 Chemistry</text>
</g>
<!-- j3944994875&#45;&gt;j3794574321 -->
<g id="edge36" class="edge">
<title>j3944994875&#45;&gt;j3794574321</title>
<path fill="none" stroke="black" d="M620.45,-399.81C618.37,-392.05 615.86,-382.68 613.53,-373.95"/>
<polygon fill="black" stroke="black" points="616.96,-373.25 610.99,-364.49 610.2,-375.06 616.96,-373.25"/>
</g>
<!-- j4101332396 -->
<g id="node31" class="node">
<title>j4101332396</title>
<ellipse fill="none" stroke="orange" cx="364.05" cy="-345" rx="64.19" ry="18"/>
<text text-anchor="middle" x="364.05" y="-341.3" font-family="Times New Roman,serif" font-size="14.00">+10 Chemistry</text>
</g>
<!-- j1093389547&#45;&gt;j4101332396 -->
<g id="edge37" class="edge">
<title>j1093389547&#45;&gt;j4101332396</title>
<path fill="none" stroke="black" d="M302.65,-399.81C312.85,-390.88 325.48,-379.8 336.63,-370.03"/>
<polygon fill="black" stroke="black" points="338.82,-372.76 344.04,-363.54 334.21,-367.5 338.82,-372.76"/>
</g>
<!-- j513344403 -->
<g id="node32" class="node">
<title>j513344403</title>
<ellipse fill="none" stroke="orange" cx="1200.05" cy="-345" rx="64.19" ry="18"/>
<text text-anchor="middle" x="1200.05" y="-341.3" font-family="Times New Roman,serif" font-size="14.00">+20 Chemistry</text>
</g>
<!-- j2999717432&#45;&gt;j513344403 -->
<g id="edge38" class="edge">
<title>j2999717432&#45;&gt;j513344403</title>
<path fill="none" stroke="black" d="M1196.26,-399.81C1196.8,-392.14 1197.45,-382.89 1198.06,-374.24"/>
<polygon fill="black" stroke="black" points="1201.53,-374.76 1198.74,-364.54 1194.55,-374.27 1201.53,-374.76"/>
</g>
<!-- j2191301368 -->
<g id="node33" class="node">
<title>j2191301368</title>
<ellipse fill="none" stroke="orange" cx="1779.05" cy="-291" rx="64.19" ry="18"/>
<text text-anchor="middle" x="1779.05" y="-287.3" font-family="Times New Roman,serif" font-size="14.00">+20 Chemistry</text>
</g>
<!-- j3992655527&#45;&gt;j2191301368 -->
<g id="edge39" class="edge">
<title>j3992655527&#45;&gt;j2191301368</title>
<path fill="none" stroke="black" d="M1820.37,-399.62C1812.45,-379 1799.15,-344.36 1789.78,-319.96"/>
<polygon fill="black" stroke="black" points="1793.06,-318.73 1786.21,-310.65 1786.52,-321.24 1793.06,-318.73"/>
</g>
<!-- j73333398 -->
<g id="node34" class="node">
<title>j73333398</title>
<polygon fill="none" stroke="blue" points="882.55,-255 261.55,-255 261.55,-219 882.55,-219 882.55,-255"/>
<text text-anchor="middle" x="572.05" y="-233.3" font-family="Times New Roman,serif" font-size="14.00">не знаю. мені треба все обдумати й визначитися в почуттях. схоже, шо це не те, шо я можу витягти</text>
</g>
<!-- j3794574321&#45;&gt;j73333398 -->
<g id="edge40" class="edge">
<title>j3794574321&#45;&gt;j73333398</title>
<path fill="none" stroke="black" d="M600.58,-326.97C595.34,-310.61 587.31,-285.59 581.11,-266.24"/>
<polygon fill="black" stroke="black" points="584.46,-265.23 578.07,-256.78 577.79,-267.37 584.46,-265.23"/>
</g>
<!-- j4101332396&#45;&gt;j73333398 -->
<g id="edge41" class="edge">
<title>j4101332396&#45;&gt;j73333398</title>
<path fill="none" stroke="black" d="M393.85,-328.81C428.88,-310.96 487.34,-281.16 527.7,-260.6"/>
<polygon fill="black" stroke="black" points="529.13,-263.8 536.45,-256.14 525.95,-257.56 529.13,-263.8"/>
</g>
<!-- j3139416591 -->
<g id="node35" class="node">
<title>j3139416591</title>
<polygon fill="none" stroke="blue" points="1517.55,-255 900.55,-255 900.55,-219 1517.55,-219 1517.55,-255"/>
<text text-anchor="middle" x="1209.05" y="-233.3" font-family="Times New Roman,serif" font-size="14.00">може ти розумієш більше, аніж я вважаю. добре. мені треба це обдумати… визначити свої почуття</text>
</g>
<!-- j513344403&#45;&gt;j3139416591 -->
<g id="edge42" class="edge">
<title>j513344403&#45;&gt;j3139416591</title>
<path fill="none" stroke="black" d="M1201.49,-326.97C1202.87,-310.76 1204.97,-286.06 1206.6,-266.79"/>
<polygon fill="black" stroke="black" points="1210.09,-267.11 1207.45,-256.85 1203.11,-266.52 1210.09,-267.11"/>
</g>
<!-- j2191301368&#45;&gt;j3559374181 -->
<g id="edge43" class="edge">
<title>j2191301368&#45;&gt;j3559374181</title>
<path fill="none" stroke="black" d="M1767.19,-273.12C1743,-238.66 1687.78,-160 1658.72,-118.6"/>
<polygon fill="black" stroke="black" points="1661.74,-116.82 1653.13,-110.64 1656.01,-120.84 1661.74,-116.82"/>
</g>
<!-- j516340765 -->
<g id="node36" class="node">
<title>j516340765</title>
<polygon fill="none" stroke="blue" points="1667.55,-182 750.55,-182 750.55,-146 1667.55,-146 1667.55,-182"/>
<text text-anchor="middle" x="1209.05" y="-160.3" font-family="Times New Roman,serif" font-size="14.00">до речі, буде не дуже приємно. до зв’язку, сексі. якшо ти думаєш, шо я дозволю тобі втекти, поки я все обмірковую? то в тебе проблеми з головою</text>
</g>
<!-- j73333398&#45;&gt;j516340765 -->
<g id="edge44" class="edge">
<title>j73333398&#45;&gt;j516340765</title>
<path fill="none" stroke="black" d="M728.69,-218.54C823.39,-207.99 944.09,-194.53 1040.81,-183.75"/>
<polygon fill="black" stroke="black" points="1041.12,-187.24 1050.67,-182.65 1040.35,-180.28 1041.12,-187.24"/>
</g>
<!-- j3139416591&#45;&gt;j516340765 -->
<g id="edge45" class="edge">
<title>j3139416591&#45;&gt;j516340765</title>
<path fill="none" stroke="black" d="M1209.05,-218.81C1209.05,-211.23 1209.05,-202.1 1209.05,-193.54"/>
<polygon fill="black" stroke="black" points="1212.55,-193.54 1209.05,-183.54 1205.55,-193.54 1212.55,-193.54"/>
</g>
<!-- j516340765&#45;&gt;j3559374181 -->
<g id="edge46" class="edge">
<title>j516340765&#45;&gt;j3559374181</title>
<path fill="none" stroke="black" d="M1315.03,-145.54C1385.51,-133.93 1477.27,-118.81 1545.31,-107.61"/>
<polygon fill="black" stroke="black" points="1545.65,-111.1 1554.95,-106.02 1544.52,-104.19 1545.65,-111.1"/>
</g>
</g>
</svg>
