<?xml version="1.0" encoding="UTF-8" standalone="no"?>
<!DOCTYPE svg PUBLIC "-//W3C//DTD SVG 1.1//EN"
 "http://www.w3.org/Graphics/SVG/1.1/DTD/svg11.dtd">
<!-- Generated by graphviz version 7.1.0 (20230121.1956)
 -->
<!-- Pages: 1 -->
<svg width="2586pt" height="1825pt"
 viewBox="0.00 0.00 2586.00 1825.00" xmlns="http://www.w3.org/2000/svg" xmlns:xlink="http://www.w3.org/1999/xlink">
<g id="graph0" class="graph" transform="scale(1 1) rotate(0) translate(4 1821)">
<polygon fill="white" stroke="none" points="-4,4 -4,-1821 2582,-1821 2582,4 -4,4"/>
<!-- QuincyRank3Convo3 begins. -->
<g id="node1" class="node">
<title>QuincyRank3Convo3 begins.</title>
<ellipse fill="none" stroke="orange" cx="855" cy="-1799" rx="118.08" ry="18"/>
<text text-anchor="middle" x="855" y="-1795.3" font-family="Times New Roman,serif" font-size="14.00">QuincyRank3Convo3 begins.</text>
</g>
<!-- j774306635 -->
<g id="node2" class="node">
<title>j774306635</title>
<polygon fill="none" stroke="blue" points="1094.5,-1744 615.5,-1744 615.5,-1708 1094.5,-1708 1094.5,-1744"/>
<text text-anchor="middle" x="855" y="-1722.3" font-family="Times New Roman,serif" font-size="14.00">слухай… а шо з цею здоровенною химерною безшерстою кішко&#45;почварою?</text>
</g>
<!-- QuincyRank3Convo3 begins.&#45;&gt;j774306635 -->
<g id="edge1" class="edge">
<title>QuincyRank3Convo3 begins.&#45;&gt;j774306635</title>
<path fill="none" stroke="black" d="M855,-1780.81C855,-1773.23 855,-1764.1 855,-1755.54"/>
<polygon fill="black" stroke="black" points="858.5,-1755.54 855,-1745.54 851.5,-1755.54 858.5,-1755.54"/>
</g>
<!-- j3575339109 -->
<g id="node3" class="node">
<title>j3575339109</title>
<polygon fill="none" stroke="red" points="1397.5,-1671 1088.5,-1671 1088.5,-1635 1397.5,-1635 1397.5,-1671"/>
<text text-anchor="middle" x="1243" y="-1649.3" font-family="Times New Roman,serif" font-size="14.00">Це ж ти про Калимос питаєш? Чесно, я не знаю.</text>
</g>
<!-- j774306635&#45;&gt;j3575339109 -->
<g id="edge2" class="edge">
<title>j774306635&#45;&gt;j3575339109</title>
<path fill="none" stroke="black" d="M950.41,-1707.54C1006.8,-1697.22 1078.32,-1684.13 1136.54,-1673.48"/>
<polygon fill="black" stroke="black" points="1136.92,-1676.97 1146.13,-1671.73 1135.66,-1670.08 1136.92,-1676.97"/>
</g>
<!-- j3807442232 -->
<g id="node4" class="node">
<title>j3807442232</title>
<polygon fill="none" stroke="red" points="1066.5,-1671 643.5,-1671 643.5,-1635 1066.5,-1635 1066.5,-1671"/>
<text text-anchor="middle" x="855" y="-1649.3" font-family="Times New Roman,serif" font-size="14.00">Ти про те, що вона велетенська кішко&#45;почвара? Чи взагалі про неї?</text>
</g>
<!-- j774306635&#45;&gt;j3807442232 -->
<g id="edge3" class="edge">
<title>j774306635&#45;&gt;j3807442232</title>
<path fill="none" stroke="black" d="M855,-1707.81C855,-1700.23 855,-1691.1 855,-1682.54"/>
<polygon fill="black" stroke="black" points="858.5,-1682.54 855,-1672.54 851.5,-1682.54 858.5,-1682.54"/>
</g>
<!-- j4137124869 -->
<g id="node5" class="node">
<title>j4137124869</title>
<polygon fill="none" stroke="red" points="594.5,-1671 35.5,-1671 35.5,-1635 594.5,-1635 594.5,-1671"/>
<text text-anchor="middle" x="315" y="-1649.3" font-family="Times New Roman,serif" font-size="14.00">ЗАРАЗБУДУ, треба погодувати здоровенну химерну безшерсту кішко&#45;почвару. [Кінець.]</text>
</g>
<!-- j774306635&#45;&gt;j4137124869 -->
<g id="edge4" class="edge">
<title>j774306635&#45;&gt;j4137124869</title>
<path fill="none" stroke="black" d="M722.21,-1707.54C642.43,-1697.05 540.87,-1683.7 459.14,-1672.95"/>
<polygon fill="black" stroke="black" points="459.62,-1669.48 449.25,-1671.65 458.7,-1676.42 459.62,-1669.48"/>
</g>
<!-- j3078752791 -->
<g id="node6" class="node">
<title>j3078752791</title>
<polygon fill="none" stroke="blue" points="1469.5,-1598 1062.5,-1598 1062.5,-1562 1469.5,-1562 1469.5,-1598"/>
<text text-anchor="middle" x="1266" y="-1576.3" font-family="Times New Roman,serif" font-size="14.00">хах, це добрий знак. якшо ти не знаєш, то шо ми маємо робити?</text>
</g>
<!-- j3575339109&#45;&gt;j3078752791 -->
<g id="edge5" class="edge">
<title>j3575339109&#45;&gt;j3078752791</title>
<path fill="none" stroke="black" d="M1248.57,-1634.81C1251.08,-1627.05 1254.12,-1617.68 1256.95,-1608.95"/>
<polygon fill="black" stroke="black" points="1260.26,-1610.06 1260.02,-1599.47 1253.61,-1607.9 1260.26,-1610.06"/>
</g>
<!-- j3984899390 -->
<g id="node7" class="node">
<title>j3984899390</title>
<polygon fill="none" stroke="blue" points="1025.5,-1598 684.5,-1598 684.5,-1562 1025.5,-1562 1025.5,-1598"/>
<text text-anchor="middle" x="855" y="-1576.3" font-family="Times New Roman,serif" font-size="14.00">ем, ну, оскільки ти це озвучуєш… то обидва варіанти</text>
</g>
<!-- j3807442232&#45;&gt;j3984899390 -->
<g id="edge6" class="edge">
<title>j3807442232&#45;&gt;j3984899390</title>
<path fill="none" stroke="black" d="M855,-1634.81C855,-1627.23 855,-1618.1 855,-1609.54"/>
<polygon fill="black" stroke="black" points="858.5,-1609.54 855,-1599.54 851.5,-1609.54 858.5,-1609.54"/>
</g>
<!-- j3227840739 -->
<g id="node8" class="node">
<title>j3227840739</title>
<ellipse fill="none" stroke="orange" cx="130" cy="-1580" rx="64.19" ry="18"/>
<text text-anchor="middle" x="130" y="-1576.3" font-family="Times New Roman,serif" font-size="14.00">+20 Chemistry</text>
</g>
<!-- j4137124869&#45;&gt;j3227840739 -->
<g id="edge7" class="edge">
<title>j4137124869&#45;&gt;j3227840739</title>
<path fill="none" stroke="black" d="M269.74,-1634.63C241.67,-1623.86 205.65,-1610.03 177.22,-1599.12"/>
<polygon fill="black" stroke="black" points="178.73,-1595.95 168.14,-1595.64 176.22,-1602.49 178.73,-1595.95"/>
</g>
<!-- j3224535483 -->
<g id="node9" class="node">
<title>j3224535483</title>
<polygon fill="none" stroke="blue" points="1649,-1525 921,-1525 921,-1489 1649,-1489 1649,-1525"/>
<text text-anchor="middle" x="1285" y="-1503.3" font-family="Times New Roman,serif" font-size="14.00">у мене таке відчуття шо не варто ставать до неї спиною. я маю переживати через те, шо вона досі працює на ентраті?</text>
</g>
<!-- j3078752791&#45;&gt;j3224535483 -->
<g id="edge8" class="edge">
<title>j3078752791&#45;&gt;j3224535483</title>
<path fill="none" stroke="black" d="M1270.6,-1561.81C1272.68,-1554.05 1275.18,-1544.68 1277.52,-1535.95"/>
<polygon fill="black" stroke="black" points="1280.85,-1537.06 1280.05,-1526.49 1274.09,-1535.25 1280.85,-1537.06"/>
</g>
<!-- j3042463286 -->
<g id="node10" class="node">
<title>j3042463286</title>
<polygon fill="none" stroke="red" points="826.5,-1525 127.5,-1525 127.5,-1489 826.5,-1489 826.5,-1525"/>
<text text-anchor="middle" x="477" y="-1503.3" font-family="Times New Roman,serif" font-size="14.00">Наскільки я можу знати, то кавати, а Калимос — каватиця, еволюціонували з ваших «кішок», які були меншими.</text>
</g>
<!-- j3984899390&#45;&gt;j3042463286 -->
<g id="edge9" class="edge">
<title>j3984899390&#45;&gt;j3042463286</title>
<path fill="none" stroke="black" d="M762.05,-1561.54C707.23,-1551.24 637.72,-1538.19 581.07,-1527.55"/>
<polygon fill="black" stroke="black" points="581.88,-1524.14 571.41,-1525.73 580.59,-1531.02 581.88,-1524.14"/>
</g>
<!-- j3702082473 -->
<g id="node11" class="node">
<title>j3702082473</title>
<polygon fill="none" stroke="red" points="1559.5,-1417 1180.5,-1417 1180.5,-1381 1559.5,-1381 1559.5,-1417"/>
<text text-anchor="middle" x="1370" y="-1395.3" font-family="Times New Roman,serif" font-size="14.00">Гадаю, що Калимос остогидів Ентраті. Як і багато кому ще.</text>
</g>
<!-- j3984899390&#45;&gt;j3702082473 -->
<g id="edge10" class="edge">
<title>j3984899390&#45;&gt;j3702082473</title>
<path fill="none" stroke="black" d="M863.86,-1561.61C876.16,-1538.17 898.41,-1498.28 912,-1489 958.4,-1457.32 1089.02,-1433.83 1198.95,-1418.97"/>
<polygon fill="black" stroke="black" points="1199.25,-1422.46 1208.7,-1417.67 1198.32,-1415.52 1199.25,-1422.46"/>
</g>
<!-- j3720168810 -->
<g id="node12" class="node">
<title>j3720168810</title>
<polygon fill="none" stroke="red" points="1162.5,-1417 547.5,-1417 547.5,-1381 1162.5,-1381 1162.5,-1417"/>
<text text-anchor="middle" x="855" y="-1395.3" font-family="Times New Roman,serif" font-size="14.00">Хіба це можливо? Ну, тобто, вона ж каватиця. А вони завжди *трохи* вертляві й самі по собі, так?</text>
</g>
<!-- j3984899390&#45;&gt;j3720168810 -->
<g id="edge11" class="edge">
<title>j3984899390&#45;&gt;j3720168810</title>
<path fill="none" stroke="black" d="M855,-1561.51C855,-1530.55 855,-1465.85 855,-1428.42"/>
<polygon fill="black" stroke="black" points="858.5,-1428.81 855,-1418.81 851.5,-1428.81 858.5,-1428.81"/>
</g>
<!-- j3543869953 -->
<g id="node13" class="node">
<title>j3543869953</title>
<polygon fill="none" stroke="blue" points="198,-1471 0,-1471 0,-1435 198,-1435 198,-1471"/>
<text text-anchor="middle" x="99" y="-1449.3" font-family="Times New Roman,serif" font-size="14.00">ага… це було смішно. ха. 6/10</text>
</g>
<!-- j3227840739&#45;&gt;j3543869953 -->
<g id="edge12" class="edge">
<title>j3227840739&#45;&gt;j3543869953</title>
<path fill="none" stroke="black" d="M125.69,-1561.62C120.6,-1541.1 112.06,-1506.67 106.02,-1482.29"/>
<polygon fill="black" stroke="black" points="109.44,-1481.57 103.64,-1472.7 102.65,-1483.25 109.44,-1481.57"/>
</g>
<!-- j3224535483&#45;&gt;j3702082473 -->
<g id="edge14" class="edge">
<title>j3224535483&#45;&gt;j3702082473</title>
<path fill="none" stroke="black" d="M1298.66,-1488.97C1312.27,-1471.99 1333.36,-1445.7 1349.08,-1426.09"/>
<polygon fill="black" stroke="black" points="1351.62,-1428.51 1355.15,-1418.52 1346.16,-1424.13 1351.62,-1428.51"/>
</g>
<!-- j3224535483&#45;&gt;j3720168810 -->
<g id="edge13" class="edge">
<title>j3224535483&#45;&gt;j3720168810</title>
<path fill="none" stroke="black" d="M1214.48,-1488.61C1138.36,-1469.85 1017.27,-1440 936.97,-1420.21"/>
<polygon fill="black" stroke="black" points="937.94,-1416.84 927.39,-1417.85 936.26,-1423.64 937.94,-1416.84"/>
</g>
<!-- j915293965 -->
<g id="node14" class="node">
<title>j915293965</title>
<polygon fill="none" stroke="blue" points="529,-1417 287,-1417 287,-1381 529,-1381 529,-1417"/>
<text text-anchor="middle" x="408" y="-1395.3" font-family="Times New Roman,serif" font-size="14.00">прекрасно. велетенська кішка&#45;убивця</text>
</g>
<!-- j3042463286&#45;&gt;j915293965 -->
<g id="edge15" class="edge">
<title>j3042463286&#45;&gt;j915293965</title>
<path fill="none" stroke="black" d="M465.91,-1488.97C455.01,-1472.22 438.21,-1446.41 425.51,-1426.89"/>
<polygon fill="black" stroke="black" points="428.5,-1425.08 420.11,-1418.61 422.64,-1428.9 428.5,-1425.08"/>
</g>
<!-- j4081174077 -->
<g id="node15" class="node">
<title>j4081174077</title>
<polygon fill="none" stroke="blue" points="1108.5,-1198 811.5,-1198 811.5,-1162 1108.5,-1162 1108.5,-1198"/>
<text text-anchor="middle" x="960" y="-1176.3" font-family="Times New Roman,serif" font-size="14.00">тобто вона розумніша за звичайних кішок, так</text>
</g>
<!-- j3702082473&#45;&gt;j4081174077 -->
<g id="edge16" class="edge">
<title>j3702082473&#45;&gt;j4081174077</title>
<path fill="none" stroke="black" d="M1337.14,-1380.61C1263.52,-1341.64 1085.37,-1247.35 1003.04,-1203.78"/>
<polygon fill="black" stroke="black" points="1004.83,-1200.77 994.35,-1199.18 1001.55,-1206.95 1004.83,-1200.77"/>
</g>
<!-- j1466034563 -->
<g id="node16" class="node">
<title>j1466034563</title>
<polygon fill="none" stroke="blue" points="769,-1198 173,-1198 173,-1162 769,-1162 769,-1198"/>
<text text-anchor="middle" x="471" y="-1176.3" font-family="Times New Roman,serif" font-size="14.00">САМЕ ТОМУ я за собак, січеш? бо якшо коти тебе люблять, то їм не можна повністю довірять</text>
</g>
<!-- j3720168810&#45;&gt;j1466034563 -->
<g id="edge17" class="edge">
<title>j3720168810&#45;&gt;j1466034563</title>
<path fill="none" stroke="black" d="M863.37,-1380.74C877.9,-1347.95 903.01,-1276.26 867,-1235 854.47,-1220.65 779.82,-1208.67 698.65,-1199.68"/>
<polygon fill="black" stroke="black" points="699.5,-1196.25 689.18,-1198.65 698.75,-1203.21 699.5,-1196.25"/>
</g>
<!-- Chat ends. -->
<g id="node17" class="node">
<title>Chat ends.</title>
<ellipse fill="none" stroke="orange" cx="668" cy="-18" rx="50.09" ry="18"/>
<text text-anchor="middle" x="668" y="-14.3" font-family="Times New Roman,serif" font-size="14.00">Chat ends.</text>
</g>
<!-- j3543869953&#45;&gt;Chat ends. -->
<g id="edge18" class="edge">
<title>j3543869953&#45;&gt;Chat ends.</title>
<path fill="none" stroke="black" d="M99,-1434.61C99,-1416.66 99,-1387.88 99,-1363 99,-1363 99,-1363 99,-90 99,-39.3 459.37,-24.33 606.53,-20.33"/>
<polygon fill="black" stroke="black" points="606.59,-23.83 616.49,-20.07 606.4,-16.83 606.59,-23.83"/>
</g>
<!-- j1128721788 -->
<g id="node18" class="node">
<title>j1128721788</title>
<polygon fill="none" stroke="blue" points="596.5,-1344 219.5,-1344 219.5,-1308 596.5,-1308 596.5,-1344"/>
<text text-anchor="middle" x="408" y="-1322.3" font-family="Times New Roman,serif" font-size="14.00">я маю переживати через те, шо вона досі працює на ентраті</text>
</g>
<!-- j915293965&#45;&gt;j1128721788 -->
<g id="edge19" class="edge">
<title>j915293965&#45;&gt;j1128721788</title>
<path fill="none" stroke="black" d="M408,-1380.81C408,-1373.23 408,-1364.1 408,-1355.54"/>
<polygon fill="black" stroke="black" points="411.5,-1355.54 408,-1345.54 404.5,-1355.54 411.5,-1355.54"/>
</g>
<!-- j3710881957 -->
<g id="node19" class="node">
<title>j3710881957</title>
<polygon fill="none" stroke="blue" points="1124.5,-1125 795.5,-1125 795.5,-1089 1124.5,-1089 1124.5,-1125"/>
<text text-anchor="middle" x="960" y="-1103.3" font-family="Times New Roman,serif" font-size="14.00">ми типу про людський розум говорим? кажи чесно</text>
</g>
<!-- j4081174077&#45;&gt;j3710881957 -->
<g id="edge20" class="edge">
<title>j4081174077&#45;&gt;j3710881957</title>
<path fill="none" stroke="black" d="M960,-1161.81C960,-1154.23 960,-1145.1 960,-1136.54"/>
<polygon fill="black" stroke="black" points="963.5,-1136.54 960,-1126.54 956.5,-1136.54 963.5,-1136.54"/>
</g>
<!-- j2719603817 -->
<g id="node20" class="node">
<title>j2719603817</title>
<polygon fill="none" stroke="blue" points="769,-1071 173,-1071 173,-1035 769,-1035 769,-1071"/>
<text text-anchor="middle" x="471" y="-1049.3" font-family="Times New Roman,serif" font-size="14.00">бабуня мене іноді з подругою лишала. приємна стара пані. у неї була кицька ну ГЕТЬ шизонута</text>
</g>
<!-- j1466034563&#45;&gt;j2719603817 -->
<g id="edge21" class="edge">
<title>j1466034563&#45;&gt;j2719603817</title>
<path fill="none" stroke="black" d="M471,-1161.62C471,-1141.19 471,-1106.99 471,-1082.62"/>
<polygon fill="black" stroke="black" points="474.5,-1082.75 471,-1072.75 467.5,-1082.75 474.5,-1082.75"/>
</g>
<!-- j841693060 -->
<g id="node21" class="node">
<title>j841693060</title>
<polygon fill="none" stroke="red" points="483.5,-1271 138.5,-1271 138.5,-1235 483.5,-1235 483.5,-1271"/>
<text text-anchor="middle" x="311" y="-1249.3" font-family="Times New Roman,serif" font-size="14.00">Ну «кішки» завжди трохи вертляві й самі по собі, так?</text>
</g>
<!-- j1128721788&#45;&gt;j841693060 -->
<g id="edge22" class="edge">
<title>j1128721788&#45;&gt;j841693060</title>
<path fill="none" stroke="black" d="M384.52,-1307.81C372.22,-1298.81 356.96,-1287.64 343.54,-1277.82"/>
<polygon fill="black" stroke="black" points="345.96,-1275.25 335.82,-1272.17 341.82,-1280.9 345.96,-1275.25"/>
</g>
<!-- j1002657761 -->
<g id="node22" class="node">
<title>j1002657761</title>
<polygon fill="none" stroke="red" points="858,-1271 502,-1271 502,-1235 858,-1235 858,-1271"/>
<text text-anchor="middle" x="680" y="-1249.3" font-family="Times New Roman,serif" font-size="14.00">Якби ти був улюбленцем Ентраті, тобі би не остогидло?</text>
</g>
<!-- j1128721788&#45;&gt;j1002657761 -->
<g id="edge23" class="edge">
<title>j1128721788&#45;&gt;j1002657761</title>
<path fill="none" stroke="black" d="M474.89,-1307.54C513.42,-1297.48 562.03,-1284.79 602.26,-1274.29"/>
<polygon fill="black" stroke="black" points="603.12,-1277.69 611.91,-1271.77 601.35,-1270.91 603.12,-1277.69"/>
</g>
<!-- j86583382 -->
<g id="node23" class="node">
<title>j86583382</title>
<ellipse fill="none" stroke="orange" cx="960" cy="-999" rx="108.58" ry="18"/>
<text text-anchor="middle" x="960" y="-995.3" font-family="Times New Roman,serif" font-size="14.00">Check boolean LettieCavia</text>
</g>
<!-- j3710881957&#45;&gt;j86583382 -->
<g id="edge24" class="edge">
<title>j3710881957&#45;&gt;j86583382</title>
<path fill="none" stroke="black" d="M960,-1088.97C960,-1072.76 960,-1048.06 960,-1028.79"/>
<polygon fill="black" stroke="black" points="963.5,-1028.85 960,-1018.85 956.5,-1028.85 963.5,-1028.85"/>
</g>
<!-- j234065251 -->
<g id="node24" class="node">
<title>j234065251</title>
<polygon fill="none" stroke="blue" points="828,-963 114,-963 114,-927 828,-927 828,-963"/>
<text text-anchor="middle" x="471" y="-941.3" font-family="Times New Roman,serif" font-size="14.00">така грається собі мила й ніжна, мур&#45;мур&#45;мур, а потім ЗНЕНАЦЬКА ПАЗУРЯКАМИ В ПИКУ, трясця, дружаньо!!!</text>
</g>
<!-- j2719603817&#45;&gt;j234065251 -->
<g id="edge25" class="edge">
<title>j2719603817&#45;&gt;j234065251</title>
<path fill="none" stroke="black" d="M471,-1034.97C471,-1018.76 471,-994.06 471,-974.79"/>
<polygon fill="black" stroke="black" points="474.5,-974.85 471,-964.85 467.5,-974.85 474.5,-974.85"/>
</g>
<!-- j841693060&#45;&gt;j1466034563 -->
<g id="edge26" class="edge">
<title>j841693060&#45;&gt;j1466034563</title>
<path fill="none" stroke="black" d="M350.14,-1234.63C371.64,-1225.09 398.53,-1213.16 421.47,-1202.98"/>
<polygon fill="black" stroke="black" points="422.6,-1206.3 430.33,-1199.05 419.77,-1199.91 422.6,-1206.3"/>
</g>
<!-- j1002657761&#45;&gt;j4081174077 -->
<g id="edge27" class="edge">
<title>j1002657761&#45;&gt;j4081174077</title>
<path fill="none" stroke="black" d="M748.85,-1234.54C788.69,-1224.44 838.99,-1211.68 880.51,-1201.16"/>
<polygon fill="black" stroke="black" points="881.11,-1204.61 889.94,-1198.76 879.39,-1197.83 881.11,-1204.61"/>
</g>
<!-- j3977402853 -->
<g id="node25" class="node">
<title>j3977402853</title>
<polygon fill="none" stroke="blue" points="1952.5,-909 1223.5,-909 1223.5,-873 1952.5,-873 1952.5,-909"/>
<text text-anchor="middle" x="1588" y="-887.3" font-family="Times New Roman,serif" font-size="14.00">вона як оті кавії шо летті розповідала? вона капець розлютилася через них. ніколи не бачив її такою злюкою як потім</text>
</g>
<!-- j86583382&#45;&gt;j3977402853 -->
<g id="edge28" class="edge">
<title>j86583382&#45;&gt;j3977402853</title>
<path fill="none" stroke="green" d="M1034.2,-985.48C1142.76,-967.15 1345.85,-932.87 1473.62,-911.31"/>
<polygon fill="green" stroke="green" points="1473.82,-914.82 1483.1,-909.71 1472.66,-907.92 1473.82,-914.82"/>
<text text-anchor="middle" x="1377" y="-941.3" font-family="Times New Roman,serif" font-size="14.00">true</text>
</g>
<!-- j3460826639 -->
<g id="node26" class="node">
<title>j3460826639</title>
<polygon fill="none" stroke="red" points="1205.5,-909 618.5,-909 618.5,-873 1205.5,-873 1205.5,-909"/>
<text text-anchor="middle" x="912" y="-887.3" font-family="Times New Roman,serif" font-size="14.00">Ну дивись… Ентраті робив тварин із людським розумом. Але вони вміли говорити, зазвичай.</text>
</g>
<!-- j86583382&#45;&gt;j3460826639 -->
<g id="edge29" class="edge">
<title>j86583382&#45;&gt;j3460826639</title>
<path fill="none" stroke="brown" d="M952.29,-980.97C944.81,-964.45 933.34,-939.12 924.54,-919.7"/>
<polygon fill="brown" stroke="brown" points="927.79,-918.39 920.48,-910.72 921.41,-921.27 927.79,-918.39"/>
<text text-anchor="middle" x="956" y="-941.3" font-family="Times New Roman,serif" font-size="14.00">false</text>
</g>
<!-- j4270043970 -->
<g id="node27" class="node">
<title>j4270043970</title>
<polygon fill="none" stroke="blue" points="587.5,-836 208.5,-836 208.5,-800 587.5,-800 587.5,-836"/>
<text text-anchor="middle" x="398" y="-814.3" font-family="Times New Roman,serif" font-size="14.00">кішки. вони завше за секунду до шалу й видряпування очей</text>
</g>
<!-- j234065251&#45;&gt;j4270043970 -->
<g id="edge30" class="edge">
<title>j234065251&#45;&gt;j4270043970</title>
<path fill="none" stroke="black" d="M460.85,-926.62C448.65,-905.72 428.03,-870.42 413.75,-845.97"/>
<polygon fill="black" stroke="black" points="416.89,-844.41 408.83,-837.54 410.85,-847.94 416.89,-844.41"/>
</g>
<!-- j4284217865 -->
<g id="node28" class="node">
<title>j4284217865</title>
<polygon fill="none" stroke="red" points="2578,-836 1772,-836 1772,-800 2578,-800 2578,-836"/>
<text text-anchor="middle" x="2175" y="-814.3" font-family="Times New Roman,serif" font-size="14.00">Думаю, вона така ж розумна як і ми. Просто поводиться холодно, щоби не лізли — я й не лізу, бо мені моє обличчя подобається.</text>
</g>
<!-- j3977402853&#45;&gt;j4284217865 -->
<g id="edge31" class="edge">
<title>j3977402853&#45;&gt;j4284217865</title>
<path fill="none" stroke="black" d="M1732.35,-872.54C1819.35,-862.02 1930.16,-848.61 2019.15,-837.85"/>
<polygon fill="black" stroke="black" points="2019.44,-841.34 2028.94,-836.67 2018.6,-834.39 2019.44,-841.34"/>
</g>
<!-- j1992926262 -->
<g id="node29" class="node">
<title>j1992926262</title>
<polygon fill="none" stroke="red" points="1753.5,-836 1236.5,-836 1236.5,-800 1753.5,-800 1753.5,-836"/>
<text text-anchor="middle" x="1495" y="-814.3" font-family="Times New Roman,serif" font-size="14.00">Якби Калимос була така ж розумна, то вже точно би нам дала це зрозуміти… так?</text>
</g>
<!-- j3977402853&#45;&gt;j1992926262 -->
<g id="edge32" class="edge">
<title>j3977402853&#45;&gt;j1992926262</title>
<path fill="none" stroke="black" d="M1565.49,-872.81C1553.81,-863.9 1539.35,-852.86 1526.57,-843.1"/>
<polygon fill="black" stroke="black" points="1528.9,-840.48 1518.83,-837.19 1524.66,-846.04 1528.9,-840.48"/>
</g>
<!-- j2627668437 -->
<g id="node30" class="node">
<title>j2627668437</title>
<polygon fill="none" stroke="red" points="1218,-836 606,-836 606,-800 1218,-800 1218,-836"/>
<text text-anchor="middle" x="912" y="-814.3" font-family="Times New Roman,serif" font-size="14.00">Кавії звуться. Але якби Калимос була однією з них, то вже точно би нам дала це зрозуміти… так?</text>
</g>
<!-- j3460826639&#45;&gt;j2627668437 -->
<g id="edge33" class="edge">
<title>j3460826639&#45;&gt;j2627668437</title>
<path fill="none" stroke="black" d="M912,-872.81C912,-865.23 912,-856.1 912,-847.54"/>
<polygon fill="black" stroke="black" points="915.5,-847.54 912,-837.54 908.5,-847.54 915.5,-847.54"/>
</g>
<!-- j3870376978 -->
<g id="node31" class="node">
<title>j3870376978</title>
<polygon fill="none" stroke="red" points="1338,-709 396,-709 396,-673 1338,-673 1338,-709"/>
<text text-anchor="middle" x="867" y="-687.3" font-family="Times New Roman,serif" font-size="14.00">Мені подобаються кавати. Розумні, граційні. Люблять когось, бо саме *вони* так обрали. Куброу — ой, собаки, вибач — просто виведені бути такими.</text>
</g>
<!-- j4270043970&#45;&gt;j3870376978 -->
<g id="edge34" class="edge">
<title>j4270043970&#45;&gt;j3870376978</title>
<path fill="none" stroke="black" d="M463.21,-799.62C548.99,-776.76 699.46,-736.65 790.51,-712.39"/>
<polygon fill="black" stroke="black" points="791.36,-715.78 800.12,-709.82 789.56,-709.02 791.36,-715.78"/>
</g>
<!-- j672082236 -->
<g id="node32" class="node">
<title>j672082236</title>
<polygon fill="none" stroke="red" points="583.5,-763 200.5,-763 200.5,-727 583.5,-727 583.5,-763"/>
<text text-anchor="middle" x="392" y="-741.3" font-family="Times New Roman,serif" font-size="14.00">Аналогічно. Я на стороні куброу — ой, собак, перепрошую.</text>
</g>
<!-- j4270043970&#45;&gt;j672082236 -->
<g id="edge35" class="edge">
<title>j4270043970&#45;&gt;j672082236</title>
<path fill="none" stroke="black" d="M396.55,-799.81C395.9,-792.14 395.12,-782.89 394.39,-774.24"/>
<polygon fill="black" stroke="black" points="397.9,-774.21 393.57,-764.54 390.92,-774.8 397.9,-774.21"/>
</g>
<!-- j1931752029 -->
<g id="node33" class="node">
<title>j1931752029</title>
<polygon fill="none" stroke="blue" points="1633,-763 1271,-763 1271,-727 1633,-727 1633,-763"/>
<text text-anchor="middle" x="1452" y="-741.3" font-family="Times New Roman,serif" font-size="14.00">пхах я би міг тобі розповісти історію про свою колишню</text>
</g>
<!-- j4284217865&#45;&gt;j1931752029 -->
<g id="edge36" class="edge">
<title>j4284217865&#45;&gt;j1931752029</title>
<path fill="none" stroke="black" d="M1997.21,-799.54C1889.18,-788.93 1751.34,-775.4 1641.28,-764.59"/>
<polygon fill="black" stroke="black" points="1641.85,-761.13 1631.55,-763.63 1641.16,-768.09 1641.85,-761.13"/>
</g>
<!-- j1992926262&#45;&gt;j1931752029 -->
<g id="edge37" class="edge">
<title>j1992926262&#45;&gt;j1931752029</title>
<path fill="none" stroke="black" d="M1484.59,-799.81C1479.68,-791.7 1473.7,-781.84 1468.22,-772.78"/>
<polygon fill="black" stroke="black" points="1471.27,-771.06 1463.1,-764.32 1465.28,-774.69 1471.27,-771.06"/>
</g>
<!-- j2627668437&#45;&gt;j1931752029 -->
<g id="edge38" class="edge">
<title>j2627668437&#45;&gt;j1931752029</title>
<path fill="none" stroke="black" d="M1044.79,-799.54C1124.57,-789.05 1226.13,-775.7 1307.86,-764.95"/>
<polygon fill="black" stroke="black" points="1308.3,-768.42 1317.75,-763.65 1307.38,-761.48 1308.3,-768.42"/>
</g>
<!-- j682231159 -->
<g id="node34" class="node">
<title>j682231159</title>
<polygon fill="none" stroke="blue" points="795.5,-582 544.5,-582 544.5,-546 795.5,-546 795.5,-582"/>
<text text-anchor="middle" x="670" y="-560.3" font-family="Times New Roman,serif" font-size="14.00">а кішки весь час шось злісне планують</text>
</g>
<!-- j3870376978&#45;&gt;j682231159 -->
<g id="edge39" class="edge">
<title>j3870376978&#45;&gt;j682231159</title>
<path fill="none" stroke="black" d="M839.61,-672.62C805.01,-650.67 745.34,-612.81 706.79,-588.35"/>
<polygon fill="black" stroke="black" points="709.07,-585.65 698.75,-583.25 705.32,-591.56 709.07,-585.65"/>
</g>
<!-- j4072125093 -->
<g id="node35" class="node">
<title>j4072125093</title>
<polygon fill="none" stroke="blue" points="608.5,-655 307.5,-655 307.5,-619 608.5,-619 608.5,-655"/>
<text text-anchor="middle" x="458" y="-633.3" font-family="Times New Roman,serif" font-size="14.00">завше раді тебе бачити. завше прагнуть любові</text>
</g>
<!-- j672082236&#45;&gt;j4072125093 -->
<g id="edge40" class="edge">
<title>j672082236&#45;&gt;j4072125093</title>
<path fill="none" stroke="black" d="M388.25,-726.57C385.95,-711.29 385.09,-689.06 395,-673 397.41,-669.1 400.42,-665.6 403.81,-662.46"/>
<polygon fill="black" stroke="black" points="405.95,-665.23 411.69,-656.33 401.65,-659.7 405.95,-665.23"/>
</g>
<!-- j826918253 -->
<g id="node36" class="node">
<title>j826918253</title>
<polygon fill="none" stroke="blue" points="1738.5,-655 929.5,-655 929.5,-619 1738.5,-619 1738.5,-655"/>
<text text-anchor="middle" x="1334" y="-633.3" font-family="Times New Roman,serif" font-size="14.00">увесь час така сором’язлива, муркотіла. а в найнеочікуваніший момент?.. узяла й ГРОХНУЛА чувака. усі її недооцінювали. і я теж</text>
</g>
<!-- j1931752029&#45;&gt;j826918253 -->
<g id="edge41" class="edge">
<title>j1931752029&#45;&gt;j826918253</title>
<path fill="none" stroke="black" d="M1432.78,-726.73C1413.49,-709.41 1383.59,-682.55 1361.74,-662.92"/>
<polygon fill="black" stroke="black" points="1364.12,-660.35 1354.34,-656.27 1359.44,-665.56 1364.12,-660.35"/>
</g>
<!-- j2555366285 -->
<g id="node37" class="node">
<title>j2555366285</title>
<polygon fill="none" stroke="blue" points="899,-509 441,-509 441,-473 899,-473 899,-509"/>
<text text-anchor="middle" x="670" y="-487.3" font-family="Times New Roman,serif" font-size="14.00">і я думаю, шо кішко&#45;почвара може й добра зараз, але точно шось планує</text>
</g>
<!-- j682231159&#45;&gt;j2555366285 -->
<g id="edge42" class="edge">
<title>j682231159&#45;&gt;j2555366285</title>
<path fill="none" stroke="black" d="M670,-545.81C670,-538.23 670,-529.1 670,-520.54"/>
<polygon fill="black" stroke="black" points="673.5,-520.54 670,-510.54 666.5,-520.54 673.5,-520.54"/>
</g>
<!-- j4072125093&#45;&gt;j682231159 -->
<g id="edge43" class="edge">
<title>j4072125093&#45;&gt;j682231159</title>
<path fill="none" stroke="black" d="M510.13,-618.54C539.52,-608.7 576.44,-596.33 607.39,-585.97"/>
<polygon fill="black" stroke="black" points="608.26,-589.37 616.63,-582.87 606.04,-582.73 608.26,-589.37"/>
</g>
<!-- j3502054971 -->
<g id="node38" class="node">
<title>j3502054971</title>
<polygon fill="none" stroke="blue" points="1562.5,-582 1071.5,-582 1071.5,-546 1562.5,-546 1562.5,-582"/>
<text text-anchor="middle" x="1317" y="-560.3" font-family="Times New Roman,serif" font-size="14.00">двічі такої помилки зась. ані з людиною, ані зі здоровецькою кішко&#45;почварою</text>
</g>
<!-- j826918253&#45;&gt;j3502054971 -->
<g id="edge44" class="edge">
<title>j826918253&#45;&gt;j3502054971</title>
<path fill="none" stroke="black" d="M1329.88,-618.81C1328.03,-611.05 1325.78,-601.68 1323.69,-592.95"/>
<polygon fill="black" stroke="black" points="1327.16,-592.41 1321.43,-583.5 1320.35,-594.04 1327.16,-592.41"/>
</g>
<!-- j2198711422 -->
<g id="node39" class="node">
<title>j2198711422</title>
<polygon fill="none" stroke="red" points="1141.5,-436 194.5,-436 194.5,-400 1141.5,-400 1141.5,-436"/>
<text text-anchor="middle" x="668" y="-414.3" font-family="Times New Roman,serif" font-size="14.00">Я не знаю. Я знаю як це, коли тебе використовують і нехтують. Якщо вона хоче лишитися? То матиме теплу лежанку й чухання від мене, скільки захоче.</text>
</g>
<!-- j2555366285&#45;&gt;j2198711422 -->
<g id="edge45" class="edge">
<title>j2555366285&#45;&gt;j2198711422</title>
<path fill="none" stroke="black" d="M669.52,-472.81C669.3,-465.14 669.04,-455.89 668.8,-447.24"/>
<polygon fill="black" stroke="black" points="672.3,-447.44 668.52,-437.54 665.31,-447.64 672.3,-447.44"/>
</g>
<!-- j2772747130 -->
<g id="node40" class="node">
<title>j2772747130</title>
<polygon fill="none" stroke="red" points="1314,-436 1160,-436 1160,-400 1314,-400 1314,-436"/>
<text text-anchor="middle" x="1237" y="-414.3" font-family="Times New Roman,serif" font-size="14.00">Мудра порада. Дякую.</text>
</g>
<!-- j2555366285&#45;&gt;j2772747130 -->
<g id="edge46" class="edge">
<title>j2555366285&#45;&gt;j2772747130</title>
<path fill="none" stroke="black" d="M858.37,-472.52C944.13,-463.66 1047.13,-451.77 1148.33,-436.35"/>
<polygon fill="black" stroke="black" points="1148.85,-439.81 1158.2,-434.83 1147.79,-432.89 1148.85,-439.81"/>
</g>
<!-- j3211732399 -->
<g id="node41" class="node">
<title>j3211732399</title>
<polygon fill="none" stroke="blue" points="1425,-509 1049,-509 1049,-473 1425,-473 1425,-509"/>
<text text-anchor="middle" x="1237" y="-487.3" font-family="Times New Roman,serif" font-size="14.00">я спиною до тієї штуки не повертатимуся. і ти теж пильнуй</text>
</g>
<!-- j3502054971&#45;&gt;j3211732399 -->
<g id="edge47" class="edge">
<title>j3502054971&#45;&gt;j3211732399</title>
<path fill="none" stroke="black" d="M1297.63,-545.81C1287.78,-537.07 1275.63,-526.28 1264.8,-516.67"/>
<polygon fill="black" stroke="black" points="1267.4,-514.3 1257.6,-510.28 1262.75,-519.54 1267.4,-514.3"/>
</g>
<!-- j2342090480 -->
<g id="node42" class="node">
<title>j2342090480</title>
<ellipse fill="none" stroke="orange" cx="668" cy="-345" rx="64.19" ry="18"/>
<text text-anchor="middle" x="668" y="-341.3" font-family="Times New Roman,serif" font-size="14.00">+20 Chemistry</text>
</g>
<!-- j2198711422&#45;&gt;j2342090480 -->
<g id="edge48" class="edge">
<title>j2198711422&#45;&gt;j2342090480</title>
<path fill="none" stroke="black" d="M668,-399.81C668,-392.23 668,-383.1 668,-374.54"/>
<polygon fill="black" stroke="black" points="671.5,-374.54 668,-364.54 664.5,-374.54 671.5,-374.54"/>
</g>
<!-- j1933300832 -->
<g id="node43" class="node">
<title>j1933300832</title>
<ellipse fill="none" stroke="orange" cx="1233" cy="-291" rx="64.19" ry="18"/>
<text text-anchor="middle" x="1233" y="-287.3" font-family="Times New Roman,serif" font-size="14.00">+10 Chemistry</text>
</g>
<!-- j2772747130&#45;&gt;j1933300832 -->
<g id="edge49" class="edge">
<title>j2772747130&#45;&gt;j1933300832</title>
<path fill="none" stroke="black" d="M1236.44,-399.62C1235.79,-379.19 1234.7,-344.99 1233.92,-320.62"/>
<polygon fill="black" stroke="black" points="1237.42,-320.63 1233.6,-310.75 1230.42,-320.85 1237.42,-320.63"/>
</g>
<!-- j3211732399&#45;&gt;j2198711422 -->
<g id="edge50" class="edge">
<title>j3211732399&#45;&gt;j2198711422</title>
<path fill="none" stroke="black" d="M1097.08,-472.54C1012.75,-462.02 905.35,-448.62 819.09,-437.85"/>
<polygon fill="black" stroke="black" points="819.73,-434.41 809.38,-436.64 818.87,-441.35 819.73,-434.41"/>
</g>
<!-- j3211732399&#45;&gt;j2772747130 -->
<g id="edge51" class="edge">
<title>j3211732399&#45;&gt;j2772747130</title>
<path fill="none" stroke="black" d="M1237,-472.81C1237,-465.23 1237,-456.1 1237,-447.54"/>
<polygon fill="black" stroke="black" points="1240.5,-447.54 1237,-437.54 1233.5,-447.54 1240.5,-447.54"/>
</g>
<!-- j4061150602 -->
<g id="node44" class="node">
<title>j4061150602</title>
<polygon fill="none" stroke="blue" points="930,-255 406,-255 406,-219 930,-219 930,-255"/>
<text text-anchor="middle" x="668" y="-233.3" font-family="Times New Roman,serif" font-size="14.00">так, є шось у цих словах. ми всі приблуди, покинуті тим вилупком… якоюсь мірою</text>
</g>
<!-- j2342090480&#45;&gt;j4061150602 -->
<g id="edge52" class="edge">
<title>j2342090480&#45;&gt;j4061150602</title>
<path fill="none" stroke="black" d="M668,-326.97C668,-310.76 668,-286.06 668,-266.79"/>
<polygon fill="black" stroke="black" points="671.5,-266.85 668,-256.85 664.5,-266.85 671.5,-266.85"/>
</g>
<!-- j1933300832&#45;&gt;Chat ends. -->
<g id="edge53" class="edge">
<title>j1933300832&#45;&gt;Chat ends.</title>
<path fill="none" stroke="black" d="M1232.69,-272.61C1232.4,-254.67 1232,-225.88 1232,-201 1232,-201 1232,-201 1232,-90 1232,-39.79 875.65,-24.54 729.45,-20.4"/>
<polygon fill="black" stroke="black" points="729.66,-16.9 719.56,-20.13 729.46,-23.9 729.66,-16.9"/>
</g>
<!-- j3924243305 -->
<g id="node45" class="node">
<title>j3924243305</title>
<polygon fill="none" stroke="blue" points="1202.5,-182 133.5,-182 133.5,-146 1202.5,-146 1202.5,-182"/>
<text text-anchor="middle" x="668" y="-160.3" font-family="Times New Roman,serif" font-size="14.00">вона ше одна з ряду використаних і викинутих, хай навіть і химерна кішка&#45;мутантка… та якшо вона мене зжере, то я приходитиму в твої сни й звинувачуватиму лише тебе…</text>
</g>
<!-- j4061150602&#45;&gt;j3924243305 -->
<g id="edge54" class="edge">
<title>j4061150602&#45;&gt;j3924243305</title>
<path fill="none" stroke="black" d="M668,-218.81C668,-211.23 668,-202.1 668,-193.54"/>
<polygon fill="black" stroke="black" points="671.5,-193.54 668,-183.54 664.5,-193.54 671.5,-193.54"/>
</g>
<!-- j1556831990 -->
<g id="node46" class="node">
<title>j1556831990</title>
<ellipse fill="none" stroke="orange" cx="668" cy="-91" rx="159.47" ry="18"/>
<text text-anchor="middle" x="668" y="-87.3" font-family="Times New Roman,serif" font-size="14.00">Boolean QuincyToySoldier1 is now true.</text>
</g>
<!-- j3924243305&#45;&gt;j1556831990 -->
<g id="edge55" class="edge">
<title>j3924243305&#45;&gt;j1556831990</title>
<path fill="none" stroke="black" d="M668,-145.81C668,-138.23 668,-129.1 668,-120.54"/>
<polygon fill="black" stroke="black" points="671.5,-120.54 668,-110.54 664.5,-120.54 671.5,-120.54"/>
</g>
<!-- j1556831990&#45;&gt;Chat ends. -->
<g id="edge56" class="edge">
<title>j1556831990&#45;&gt;Chat ends.</title>
<path fill="none" stroke="black" d="M668,-72.81C668,-65.23 668,-56.1 668,-47.54"/>
<polygon fill="black" stroke="black" points="671.5,-47.54 668,-37.54 664.5,-47.54 671.5,-47.54"/>
</g>
</g>
</svg>
