<?xml version="1.0" encoding="UTF-8" standalone="no"?>
<!DOCTYPE svg PUBLIC "-//W3C//DTD SVG 1.1//EN"
 "http://www.w3.org/Graphics/SVG/1.1/DTD/svg11.dtd">
<!-- Generated by graphviz version 7.1.0 (20230121.1956)
 -->
<!-- Pages: 1 -->
<svg width="922pt" height="2708pt"
 viewBox="0.00 0.00 921.50 2708.00" xmlns="http://www.w3.org/2000/svg" xmlns:xlink="http://www.w3.org/1999/xlink">
<g id="graph0" class="graph" transform="scale(1 1) rotate(0) translate(4 2704)">
<polygon fill="white" stroke="none" points="-4,4 -4,-2704 917.5,-2704 917.5,4 -4,4"/>
<!-- QuincyAmirNightmares begins. -->
<g id="node1" class="node">
<title>QuincyAmirNightmares begins.</title>
<ellipse fill="none" stroke="orange" cx="496.5" cy="-2682" rx="124.28" ry="18"/>
<text text-anchor="middle" x="496.5" y="-2678.3" font-family="Times New Roman,serif" font-size="14.00">QuincyAmirNightmares begins.</text>
</g>
<!-- j1026990409 -->
<g id="node2" class="node">
<title>j1026990409</title>
<polygon fill="none" stroke="blue" points="523.5,-2628 469.5,-2628 469.5,-2592 523.5,-2592 523.5,-2628"/>
<text text-anchor="middle" x="496.5" y="-2606.3" font-family="Times New Roman,serif" font-size="14.00">гей</text>
</g>
<!-- QuincyAmirNightmares begins.&#45;&gt;j1026990409 -->
<g id="edge1" class="edge">
<title>QuincyAmirNightmares begins.&#45;&gt;j1026990409</title>
<path fill="none" stroke="black" d="M496.5,-2663.7C496.5,-2656.41 496.5,-2647.73 496.5,-2639.54"/>
<polygon fill="black" stroke="black" points="500,-2639.62 496.5,-2629.62 493,-2639.62 500,-2639.62"/>
</g>
<!-- j1854597472 -->
<g id="node3" class="node">
<title>j1854597472</title>
<polygon fill="none" stroke="blue" points="658,-2556 335,-2556 335,-2520 658,-2520 658,-2556"/>
<text text-anchor="middle" x="496.5" y="-2534.3" font-family="Times New Roman,serif" font-size="14.00">говорив з малим швидкісником за твоєю порадою</text>
</g>
<!-- j1026990409&#45;&gt;j1854597472 -->
<g id="edge2" class="edge">
<title>j1026990409&#45;&gt;j1854597472</title>
<path fill="none" stroke="black" d="M496.5,-2591.7C496.5,-2584.41 496.5,-2575.73 496.5,-2567.54"/>
<polygon fill="black" stroke="black" points="500,-2567.62 496.5,-2557.62 493,-2567.62 500,-2567.62"/>
</g>
<!-- j609787795 -->
<g id="node4" class="node">
<title>j609787795</title>
<polygon fill="none" stroke="red" points="347.5,-2412 221.5,-2412 221.5,-2376 347.5,-2376 347.5,-2412"/>
<text text-anchor="middle" x="284.5" y="-2390.3" font-family="Times New Roman,serif" font-size="14.00">І як усе пройшло?</text>
</g>
<!-- j1854597472&#45;&gt;j609787795 -->
<g id="edge3" class="edge">
<title>j1854597472&#45;&gt;j609787795</title>
<path fill="none" stroke="black" d="M456.26,-2519.61C435.92,-2510.15 411.22,-2497.61 390.5,-2484 361.5,-2464.96 331.5,-2439.09 310.84,-2420.15"/>
<polygon fill="black" stroke="black" points="313.42,-2417.76 303.71,-2413.52 308.66,-2422.89 313.42,-2417.76"/>
</g>
<!-- j1263776065 -->
<g id="node5" class="node">
<title>j1263776065</title>
<polygon fill="none" stroke="red" points="593.5,-2484 399.5,-2484 399.5,-2448 593.5,-2448 593.5,-2484"/>
<text text-anchor="middle" x="496.5" y="-2462.3" font-family="Times New Roman,serif" font-size="14.00">Ого. Ти дослухався до мене?</text>
</g>
<!-- j1854597472&#45;&gt;j1263776065 -->
<g id="edge4" class="edge">
<title>j1854597472&#45;&gt;j1263776065</title>
<path fill="none" stroke="black" d="M496.5,-2519.7C496.5,-2512.41 496.5,-2503.73 496.5,-2495.54"/>
<polygon fill="black" stroke="black" points="500,-2495.62 496.5,-2485.62 493,-2495.62 500,-2495.62"/>
</g>
<!-- j2636776261 -->
<g id="node6" class="node">
<title>j2636776261</title>
<polygon fill="none" stroke="red" points="913.5,-2340 587.5,-2340 587.5,-2304 913.5,-2304 913.5,-2340"/>
<text text-anchor="middle" x="750.5" y="-2318.3" font-family="Times New Roman,serif" font-size="14.00">Я якраз посеред важливої справи. Вибач. [Кінець.]</text>
</g>
<!-- j1854597472&#45;&gt;j2636776261 -->
<g id="edge5" class="edge">
<title>j1854597472&#45;&gt;j2636776261</title>
<path fill="none" stroke="black" d="M540.09,-2519.55C560.09,-2510.48 583.52,-2498.3 602.5,-2484 655.45,-2444.12 705.01,-2383.76 731.18,-2349.39"/>
<polygon fill="black" stroke="black" points="733.8,-2351.73 737.01,-2341.64 728.21,-2347.53 733.8,-2351.73"/>
</g>
<!-- j2537700877 -->
<g id="node7" class="node">
<title>j2537700877</title>
<polygon fill="none" stroke="blue" points="569,-2340 0,-2340 0,-2304 569,-2304 569,-2340"/>
<text text-anchor="middle" x="284.5" y="-2318.3" font-family="Times New Roman,serif" font-size="14.00">спершу він подумав, шо я дам йому в пику. але я забрав його на дах, ми сиділи й говорили</text>
</g>
<!-- j609787795&#45;&gt;j2537700877 -->
<g id="edge6" class="edge">
<title>j609787795&#45;&gt;j2537700877</title>
<path fill="none" stroke="black" d="M284.5,-2375.7C284.5,-2368.41 284.5,-2359.73 284.5,-2351.54"/>
<polygon fill="black" stroke="black" points="288,-2351.62 284.5,-2341.62 281,-2351.62 288,-2351.62"/>
</g>
<!-- j2385593612 -->
<g id="node8" class="node">
<title>j2385593612</title>
<polygon fill="none" stroke="blue" points="627.5,-2412 365.5,-2412 365.5,-2376 627.5,-2376 627.5,-2412"/>
<text text-anchor="middle" x="496.5" y="-2390.3" font-family="Times New Roman,serif" font-size="14.00">трясця, стулися, й дай дописати, добре?</text>
</g>
<!-- j1263776065&#45;&gt;j2385593612 -->
<g id="edge7" class="edge">
<title>j1263776065&#45;&gt;j2385593612</title>
<path fill="none" stroke="black" d="M496.5,-2447.7C496.5,-2440.41 496.5,-2431.73 496.5,-2423.54"/>
<polygon fill="black" stroke="black" points="500,-2423.62 496.5,-2413.62 493,-2423.62 500,-2423.62"/>
</g>
<!-- Chat ends. -->
<g id="node9" class="node">
<title>Chat ends.</title>
<ellipse fill="none" stroke="orange" cx="704.5" cy="-18" rx="50.09" ry="18"/>
<text text-anchor="middle" x="704.5" y="-14.3" font-family="Times New Roman,serif" font-size="14.00">Chat ends.</text>
</g>
<!-- j2636776261&#45;&gt;Chat ends. -->
<g id="edge8" class="edge">
<title>j2636776261&#45;&gt;Chat ends.</title>
<path fill="none" stroke="black" d="M750.5,-2303.51C750.5,-2276.71 750.5,-2223.87 750.5,-2179 750.5,-2179 750.5,-2179 750.5,-161 750.5,-119.36 732.38,-74.06 718.89,-46.09"/>
<polygon fill="black" stroke="black" points="722.08,-44.65 714.48,-37.27 715.82,-47.78 722.08,-44.65"/>
</g>
<!-- j951727059 -->
<g id="node10" class="node">
<title>j951727059</title>
<polygon fill="none" stroke="blue" points="543.5,-2268 25.5,-2268 25.5,-2232 543.5,-2232 543.5,-2268"/>
<text text-anchor="middle" x="284.5" y="-2246.3" font-family="Times New Roman,serif" font-size="14.00">розповів йому, шо знаю про його нічні жахіття. шо я знаю, шо з ним не все гаразд</text>
</g>
<!-- j2537700877&#45;&gt;j951727059 -->
<g id="edge9" class="edge">
<title>j2537700877&#45;&gt;j951727059</title>
<path fill="none" stroke="black" d="M284.5,-2303.7C284.5,-2296.41 284.5,-2287.73 284.5,-2279.54"/>
<polygon fill="black" stroke="black" points="288,-2279.62 284.5,-2269.62 281,-2279.62 288,-2279.62"/>
</g>
<!-- j2385593612&#45;&gt;j2537700877 -->
<g id="edge10" class="edge">
<title>j2385593612&#45;&gt;j2537700877</title>
<path fill="none" stroke="black" d="M443.55,-2375.52C414.48,-2365.92 378.23,-2353.95 347.69,-2343.86"/>
<polygon fill="black" stroke="black" points="349.17,-2340.67 338.58,-2340.86 346.98,-2347.32 349.17,-2340.67"/>
</g>
<!-- j2456633444 -->
<g id="node11" class="node">
<title>j2456633444</title>
<polygon fill="none" stroke="red" points="276.5,-2196 222.5,-2196 222.5,-2160 276.5,-2160 276.5,-2196"/>
<text text-anchor="middle" x="249.5" y="-2174.3" font-family="Times New Roman,serif" font-size="14.00">І?</text>
</g>
<!-- j951727059&#45;&gt;j2456633444 -->
<g id="edge11" class="edge">
<title>j951727059&#45;&gt;j2456633444</title>
<path fill="none" stroke="black" d="M275.85,-2231.7C272.03,-2224.07 267.46,-2214.92 263.2,-2206.4"/>
<polygon fill="black" stroke="black" points="266.33,-2204.84 258.73,-2197.46 260.07,-2207.97 266.33,-2204.84"/>
</g>
<!-- j2349680266 -->
<g id="node12" class="node">
<title>j2349680266</title>
<polygon fill="none" stroke="red" points="416.5,-2196 294.5,-2196 294.5,-2160 416.5,-2160 416.5,-2196"/>
<text text-anchor="middle" x="355.5" y="-2174.3" font-family="Times New Roman,serif" font-size="14.00">І що він відповів?</text>
</g>
<!-- j951727059&#45;&gt;j2349680266 -->
<g id="edge12" class="edge">
<title>j951727059&#45;&gt;j2349680266</title>
<path fill="none" stroke="black" d="M302.05,-2231.7C310.48,-2223.39 320.73,-2213.28 330,-2204.14"/>
<polygon fill="black" stroke="black" points="332.41,-2206.68 337.07,-2197.17 327.5,-2201.7 332.41,-2206.68"/>
</g>
<!-- j3990602190 -->
<g id="node13" class="node">
<title>j3990602190</title>
<polygon fill="none" stroke="blue" points="389.5,-2124 285.5,-2124 285.5,-2088 389.5,-2088 389.5,-2124"/>
<text text-anchor="middle" x="337.5" y="-2102.3" font-family="Times New Roman,serif" font-size="14.00">спершу нічого</text>
</g>
<!-- j2456633444&#45;&gt;j3990602190 -->
<g id="edge13" class="edge">
<title>j2456633444&#45;&gt;j3990602190</title>
<path fill="none" stroke="black" d="M271.25,-2159.7C281.94,-2151.2 294.99,-2140.81 306.68,-2131.51"/>
<polygon fill="black" stroke="black" points="308.86,-2134.25 314.51,-2125.29 304.5,-2128.78 308.86,-2134.25"/>
</g>
<!-- j2349680266&#45;&gt;j3990602190 -->
<g id="edge14" class="edge">
<title>j2349680266&#45;&gt;j3990602190</title>
<path fill="none" stroke="black" d="M351.05,-2159.7C349.15,-2152.32 346.89,-2143.52 344.76,-2135.25"/>
<polygon fill="black" stroke="black" points="348.16,-2134.38 342.28,-2125.57 341.38,-2136.13 348.16,-2134.38"/>
</g>
<!-- j1175358607 -->
<g id="node14" class="node">
<title>j1175358607</title>
<polygon fill="none" stroke="blue" points="475.5,-2052 199.5,-2052 199.5,-2016 475.5,-2016 475.5,-2052"/>
<text text-anchor="middle" x="337.5" y="-2030.3" font-family="Times New Roman,serif" font-size="14.00">сидів такий, засоромлений від себе самого</text>
</g>
<!-- j3990602190&#45;&gt;j1175358607 -->
<g id="edge15" class="edge">
<title>j3990602190&#45;&gt;j1175358607</title>
<path fill="none" stroke="black" d="M337.5,-2087.7C337.5,-2080.41 337.5,-2071.73 337.5,-2063.54"/>
<polygon fill="black" stroke="black" points="341,-2063.62 337.5,-2053.62 334,-2063.62 341,-2063.62"/>
</g>
<!-- j1605860209 -->
<g id="node15" class="node">
<title>j1605860209</title>
<polygon fill="none" stroke="blue" points="461.5,-1980 213.5,-1980 213.5,-1944 461.5,-1944 461.5,-1980"/>
<text text-anchor="middle" x="337.5" y="-1958.3" font-family="Times New Roman,serif" font-size="14.00">певно думав, шо я з нього сміятимуся</text>
</g>
<!-- j1175358607&#45;&gt;j1605860209 -->
<g id="edge16" class="edge">
<title>j1175358607&#45;&gt;j1605860209</title>
<path fill="none" stroke="black" d="M337.5,-2015.7C337.5,-2008.41 337.5,-1999.73 337.5,-1991.54"/>
<polygon fill="black" stroke="black" points="341,-1991.62 337.5,-1981.62 334,-1991.62 341,-1991.62"/>
</g>
<!-- j4203462211 -->
<g id="node16" class="node">
<title>j4203462211</title>
<polygon fill="none" stroke="blue" points="560.5,-1908 114.5,-1908 114.5,-1872 560.5,-1872 560.5,-1908"/>
<text text-anchor="middle" x="337.5" y="-1886.3" font-family="Times New Roman,serif" font-size="14.00">між іншим, це було дуже спокуслива думка, бо його вигляд аж просив</text>
</g>
<!-- j1605860209&#45;&gt;j4203462211 -->
<g id="edge17" class="edge">
<title>j1605860209&#45;&gt;j4203462211</title>
<path fill="none" stroke="black" d="M337.5,-1943.7C337.5,-1936.41 337.5,-1927.73 337.5,-1919.54"/>
<polygon fill="black" stroke="black" points="341,-1919.62 337.5,-1909.62 334,-1919.62 341,-1919.62"/>
</g>
<!-- j1111303180 -->
<g id="node17" class="node">
<title>j1111303180</title>
<polygon fill="none" stroke="blue" points="660.5,-1836 14.5,-1836 14.5,-1800 660.5,-1800 660.5,-1836"/>
<text text-anchor="middle" x="337.5" y="-1814.3" font-family="Times New Roman,serif" font-size="14.00">тож… я розповів про перший раз… як довелося вбити. перший раз, як дивився в приціл і забрав життя</text>
</g>
<!-- j4203462211&#45;&gt;j1111303180 -->
<g id="edge18" class="edge">
<title>j4203462211&#45;&gt;j1111303180</title>
<path fill="none" stroke="black" d="M337.5,-1871.7C337.5,-1864.41 337.5,-1855.73 337.5,-1847.54"/>
<polygon fill="black" stroke="black" points="341,-1847.62 337.5,-1837.62 334,-1847.62 341,-1847.62"/>
</g>
<!-- j2433943247 -->
<g id="node18" class="node">
<title>j2433943247</title>
<polygon fill="none" stroke="blue" points="661,-1764 14,-1764 14,-1728 661,-1728 661,-1764"/>
<text text-anchor="middle" x="337.5" y="-1742.3" font-family="Times New Roman,serif" font-size="14.00">коли у пеклі бою… на тебе мчить якийсь посіпака з ножем, чи гвинтівкою, чи байдуже з чим… це одне</text>
</g>
<!-- j1111303180&#45;&gt;j2433943247 -->
<g id="edge19" class="edge">
<title>j1111303180&#45;&gt;j2433943247</title>
<path fill="none" stroke="black" d="M337.5,-1799.7C337.5,-1792.41 337.5,-1783.73 337.5,-1775.54"/>
<polygon fill="black" stroke="black" points="341,-1775.62 337.5,-1765.62 334,-1775.62 341,-1775.62"/>
</g>
<!-- j1853655615 -->
<g id="node19" class="node">
<title>j1853655615</title>
<polygon fill="none" stroke="blue" points="636,-1692 39,-1692 39,-1656 636,-1656 636,-1692"/>
<text text-anchor="middle" x="337.5" y="-1670.3" font-family="Times New Roman,serif" font-size="14.00">а геть інше абсолютно, коли ти на даху за 300 метрів від цілі й вони навіть не знають про тебе…</text>
</g>
<!-- j2433943247&#45;&gt;j1853655615 -->
<g id="edge20" class="edge">
<title>j2433943247&#45;&gt;j1853655615</title>
<path fill="none" stroke="black" d="M337.5,-1727.7C337.5,-1720.41 337.5,-1711.73 337.5,-1703.54"/>
<polygon fill="black" stroke="black" points="341,-1703.62 337.5,-1693.62 334,-1703.62 341,-1703.62"/>
</g>
<!-- j808331899 -->
<g id="node20" class="node">
<title>j808331899</title>
<polygon fill="none" stroke="blue" points="564,-1620 111,-1620 111,-1584 564,-1584 564,-1620"/>
<text text-anchor="middle" x="337.5" y="-1598.3" font-family="Times New Roman,serif" font-size="14.00">у тебе є час *подумати* про них. хто вони. звідки. чи є в них сім’я. діти</text>
</g>
<!-- j1853655615&#45;&gt;j808331899 -->
<g id="edge21" class="edge">
<title>j1853655615&#45;&gt;j808331899</title>
<path fill="none" stroke="black" d="M337.5,-1655.7C337.5,-1648.41 337.5,-1639.73 337.5,-1631.54"/>
<polygon fill="black" stroke="black" points="341,-1631.62 337.5,-1621.62 334,-1631.62 341,-1631.62"/>
</g>
<!-- j1093128163 -->
<g id="node21" class="node">
<title>j1093128163</title>
<polygon fill="none" stroke="blue" points="433,-1548 242,-1548 242,-1512 433,-1512 433,-1548"/>
<text text-anchor="middle" x="337.5" y="-1526.3" font-family="Times New Roman,serif" font-size="14.00">і… ти тиснеш на гачок. БУМ</text>
</g>
<!-- j808331899&#45;&gt;j1093128163 -->
<g id="edge22" class="edge">
<title>j808331899&#45;&gt;j1093128163</title>
<path fill="none" stroke="black" d="M337.5,-1583.7C337.5,-1576.41 337.5,-1567.73 337.5,-1559.54"/>
<polygon fill="black" stroke="black" points="341,-1559.62 337.5,-1549.62 334,-1559.62 341,-1559.62"/>
</g>
<!-- j4090796095 -->
<g id="node22" class="node">
<title>j4090796095</title>
<polygon fill="none" stroke="blue" points="432,-1476 243,-1476 243,-1440 432,-1440 432,-1476"/>
<text text-anchor="middle" x="337.5" y="-1454.3" font-family="Times New Roman,serif" font-size="14.00">і вже нічого не має значення</text>
</g>
<!-- j1093128163&#45;&gt;j4090796095 -->
<g id="edge23" class="edge">
<title>j1093128163&#45;&gt;j4090796095</title>
<path fill="none" stroke="black" d="M337.5,-1511.7C337.5,-1504.41 337.5,-1495.73 337.5,-1487.54"/>
<polygon fill="black" stroke="black" points="341,-1487.62 337.5,-1477.62 334,-1487.62 341,-1487.62"/>
</g>
<!-- j1967675508 -->
<g id="node23" class="node">
<title>j1967675508</title>
<polygon fill="none" stroke="blue" points="448,-1404 227,-1404 227,-1368 448,-1368 448,-1404"/>
<text text-anchor="middle" x="337.5" y="-1382.3" font-family="Times New Roman,serif" font-size="14.00">вони мертві. ти забрав їхнє життя</text>
</g>
<!-- j4090796095&#45;&gt;j1967675508 -->
<g id="edge24" class="edge">
<title>j4090796095&#45;&gt;j1967675508</title>
<path fill="none" stroke="black" d="M337.5,-1439.7C337.5,-1432.41 337.5,-1423.73 337.5,-1415.54"/>
<polygon fill="black" stroke="black" points="341,-1415.62 337.5,-1405.62 334,-1415.62 341,-1415.62"/>
</g>
<!-- j521623806 -->
<g id="node24" class="node">
<title>j521623806</title>
<polygon fill="none" stroke="blue" points="438,-1332 237,-1332 237,-1296 438,-1296 438,-1332"/>
<text text-anchor="middle" x="337.5" y="-1310.3" font-family="Times New Roman,serif" font-size="14.00">те обличчя живе в моїй голові</text>
</g>
<!-- j1967675508&#45;&gt;j521623806 -->
<g id="edge25" class="edge">
<title>j1967675508&#45;&gt;j521623806</title>
<path fill="none" stroke="black" d="M337.5,-1367.7C337.5,-1360.41 337.5,-1351.73 337.5,-1343.54"/>
<polygon fill="black" stroke="black" points="341,-1343.62 337.5,-1333.62 334,-1343.62 341,-1343.62"/>
</g>
<!-- j1445419508 -->
<g id="node25" class="node">
<title>j1445419508</title>
<polygon fill="none" stroke="blue" points="428,-1260 247,-1260 247,-1224 428,-1224 428,-1260"/>
<text text-anchor="middle" x="337.5" y="-1238.3" font-family="Times New Roman,serif" font-size="14.00">як і кожне наступне відтоді</text>
</g>
<!-- j521623806&#45;&gt;j1445419508 -->
<g id="edge26" class="edge">
<title>j521623806&#45;&gt;j1445419508</title>
<path fill="none" stroke="black" d="M337.5,-1295.7C337.5,-1288.41 337.5,-1279.73 337.5,-1271.54"/>
<polygon fill="black" stroke="black" points="341,-1271.62 337.5,-1261.62 334,-1271.62 341,-1271.62"/>
</g>
<!-- j1357138354 -->
<g id="node26" class="node">
<title>j1357138354</title>
<polygon fill="none" stroke="red" points="364.5,-1188 230.5,-1188 230.5,-1152 364.5,-1152 364.5,-1188"/>
<text text-anchor="middle" x="297.5" y="-1166.3" font-family="Times New Roman,serif" font-size="14.00">І як він зреагував?..</text>
</g>
<!-- j1445419508&#45;&gt;j1357138354 -->
<g id="edge27" class="edge">
<title>j1445419508&#45;&gt;j1357138354</title>
<path fill="none" stroke="black" d="M327.61,-1223.7C323.16,-1215.9 317.79,-1206.51 312.83,-1197.83"/>
<polygon fill="black" stroke="black" points="316.03,-1196.36 308.02,-1189.42 309.95,-1199.84 316.03,-1196.36"/>
</g>
<!-- j2947441578 -->
<g id="node27" class="node">
<title>j2947441578</title>
<polygon fill="none" stroke="red" points="542.5,-1188 382.5,-1188 382.5,-1152 542.5,-1152 542.5,-1188"/>
<text text-anchor="middle" x="462.5" y="-1166.3" font-family="Times New Roman,serif" font-size="14.00">Дуже… підбадьорливо.</text>
</g>
<!-- j1445419508&#45;&gt;j2947441578 -->
<g id="edge28" class="edge">
<title>j1445419508&#45;&gt;j2947441578</title>
<path fill="none" stroke="black" d="M368.72,-1223.52C384.8,-1214.51 404.6,-1203.42 421.86,-1193.76"/>
<polygon fill="black" stroke="black" points="423.34,-1196.94 430.36,-1189 419.92,-1190.83 423.34,-1196.94"/>
</g>
<!-- j328310030 -->
<g id="node28" class="node">
<title>j328310030</title>
<polygon fill="none" stroke="blue" points="540,-1116 201,-1116 201,-1080 540,-1080 540,-1116"/>
<text text-anchor="middle" x="370.5" y="-1094.3" font-family="Times New Roman,serif" font-size="14.00">тривалий час сиділи й мовчали. просто сиділи в тиші</text>
</g>
<!-- j1357138354&#45;&gt;j328310030 -->
<g id="edge29" class="edge">
<title>j1357138354&#45;&gt;j328310030</title>
<path fill="none" stroke="black" d="M315.54,-1151.7C324.23,-1143.37 334.81,-1133.22 344.36,-1124.07"/>
<polygon fill="black" stroke="black" points="346.52,-1126.84 351.32,-1117.39 341.68,-1121.79 346.52,-1126.84"/>
</g>
<!-- j2947441578&#45;&gt;j328310030 -->
<g id="edge30" class="edge">
<title>j2947441578&#45;&gt;j328310030</title>
<path fill="none" stroke="black" d="M439.76,-1151.7C428.48,-1143.11 414.67,-1132.61 402.36,-1123.24"/>
<polygon fill="black" stroke="black" points="404.58,-1120.53 394.5,-1117.26 400.34,-1126.1 404.58,-1120.53"/>
</g>
<!-- j3090294493 -->
<g id="node29" class="node">
<title>j3090294493</title>
<polygon fill="none" stroke="blue" points="514,-1044 227,-1044 227,-1008 514,-1008 514,-1044"/>
<text text-anchor="middle" x="370.5" y="-1022.3" font-family="Times New Roman,serif" font-size="14.00">а потім він… розповів про свої нічні жахіття</text>
</g>
<!-- j328310030&#45;&gt;j3090294493 -->
<g id="edge31" class="edge">
<title>j328310030&#45;&gt;j3090294493</title>
<path fill="none" stroke="black" d="M370.5,-1079.7C370.5,-1072.41 370.5,-1063.73 370.5,-1055.54"/>
<polygon fill="black" stroke="black" points="374,-1055.62 370.5,-1045.62 367,-1055.62 374,-1055.62"/>
</g>
<!-- j1279184101 -->
<g id="node30" class="node">
<title>j1279184101</title>
<polygon fill="none" stroke="blue" points="609,-972 132,-972 132,-936 609,-936 609,-972"/>
<text text-anchor="middle" x="370.5" y="-950.3" font-family="Times New Roman,serif" font-size="14.00">і про свої почуття, шо він не належить до групи, не частина її, бо не солдат</text>
</g>
<!-- j3090294493&#45;&gt;j1279184101 -->
<g id="edge32" class="edge">
<title>j3090294493&#45;&gt;j1279184101</title>
<path fill="none" stroke="black" d="M370.5,-1007.7C370.5,-1000.41 370.5,-991.73 370.5,-983.54"/>
<polygon fill="black" stroke="black" points="374,-983.62 370.5,-973.62 367,-983.62 374,-983.62"/>
</g>
<!-- j2061725660 -->
<g id="node31" class="node">
<title>j2061725660</title>
<polygon fill="none" stroke="blue" points="620.5,-900 120.5,-900 120.5,-864 620.5,-864 620.5,-900"/>
<text text-anchor="middle" x="370.5" y="-878.3" font-family="Times New Roman,serif" font-size="14.00">тож я розповів йому про жахіття, які прийшли згодом. такі, як були в дитинстві</text>
</g>
<!-- j1279184101&#45;&gt;j2061725660 -->
<g id="edge33" class="edge">
<title>j1279184101&#45;&gt;j2061725660</title>
<path fill="none" stroke="black" d="M370.5,-935.7C370.5,-928.41 370.5,-919.73 370.5,-911.54"/>
<polygon fill="black" stroke="black" points="374,-911.62 370.5,-901.62 367,-911.62 374,-911.62"/>
</g>
<!-- j2945101414 -->
<g id="node32" class="node">
<title>j2945101414</title>
<polygon fill="none" stroke="blue" points="548.5,-828 192.5,-828 192.5,-792 548.5,-792 548.5,-828"/>
<text text-anchor="middle" x="370.5" y="-806.3" font-family="Times New Roman,serif" font-size="14.00">але я перепросив за те, шо весь час поводився як мудак</text>
</g>
<!-- j2061725660&#45;&gt;j2945101414 -->
<g id="edge34" class="edge">
<title>j2061725660&#45;&gt;j2945101414</title>
<path fill="none" stroke="black" d="M370.5,-863.7C370.5,-856.41 370.5,-847.73 370.5,-839.54"/>
<polygon fill="black" stroke="black" points="374,-839.62 370.5,-829.62 367,-839.62 374,-839.62"/>
</g>
<!-- j2352702462 -->
<g id="node33" class="node">
<title>j2352702462</title>
<polygon fill="none" stroke="blue" points="704.5,-756 36.5,-756 36.5,-720 704.5,-720 704.5,-756"/>
<text text-anchor="middle" x="370.5" y="-734.3" font-family="Times New Roman,serif" font-size="14.00">і шо він один із нас як і всі інші. і те шо я такий як я є, і він такий як він є. просто ми такі як ми є, розумієш?</text>
</g>
<!-- j2945101414&#45;&gt;j2352702462 -->
<g id="edge35" class="edge">
<title>j2945101414&#45;&gt;j2352702462</title>
<path fill="none" stroke="black" d="M370.5,-791.7C370.5,-784.41 370.5,-775.73 370.5,-767.54"/>
<polygon fill="black" stroke="black" points="374,-767.62 370.5,-757.62 367,-767.62 374,-767.62"/>
</g>
<!-- j3516361109 -->
<g id="node34" class="node">
<title>j3516361109</title>
<polygon fill="none" stroke="blue" points="449.5,-684 291.5,-684 291.5,-648 449.5,-648 449.5,-684"/>
<text text-anchor="middle" x="370.5" y="-662.3" font-family="Times New Roman,serif" font-size="14.00">і знаєш шо він сказав?..</text>
</g>
<!-- j2352702462&#45;&gt;j3516361109 -->
<g id="edge36" class="edge">
<title>j2352702462&#45;&gt;j3516361109</title>
<path fill="none" stroke="black" d="M370.5,-719.7C370.5,-712.41 370.5,-703.73 370.5,-695.54"/>
<polygon fill="black" stroke="black" points="374,-695.62 370.5,-685.62 367,-695.62 374,-695.62"/>
</g>
<!-- j3321121732 -->
<g id="node35" class="node">
<title>j3321121732</title>
<polygon fill="none" stroke="red" points="363.5,-612 309.5,-612 309.5,-576 363.5,-576 363.5,-612"/>
<text text-anchor="middle" x="336.5" y="-590.3" font-family="Times New Roman,serif" font-size="14.00">Що?</text>
</g>
<!-- j3516361109&#45;&gt;j3321121732 -->
<g id="edge37" class="edge">
<title>j3516361109&#45;&gt;j3321121732</title>
<path fill="none" stroke="black" d="M362.1,-647.7C358.39,-640.07 353.94,-630.92 349.81,-622.4"/>
<polygon fill="black" stroke="black" points="352.99,-620.93 345.47,-613.47 346.69,-623.99 352.99,-620.93"/>
</g>
<!-- j2687437499 -->
<g id="node36" class="node">
<title>j2687437499</title>
<polygon fill="none" stroke="red" points="435.5,-612 381.5,-612 381.5,-576 435.5,-576 435.5,-612"/>
<text text-anchor="middle" x="408.5" y="-590.3" font-family="Times New Roman,serif" font-size="14.00">Ні?</text>
</g>
<!-- j3516361109&#45;&gt;j2687437499 -->
<g id="edge38" class="edge">
<title>j3516361109&#45;&gt;j2687437499</title>
<path fill="none" stroke="black" d="M379.89,-647.7C384.08,-639.98 389.11,-630.71 393.78,-622.11"/>
<polygon fill="black" stroke="black" points="396.8,-623.89 398.49,-613.43 390.65,-620.55 396.8,-623.89"/>
</g>
<!-- j2831496608 -->
<g id="node37" class="node">
<title>j2831496608</title>
<polygon fill="none" stroke="blue" points="487,-540 296,-540 296,-504 487,-504 487,-540"/>
<text text-anchor="middle" x="391.5" y="-518.3" font-family="Times New Roman,serif" font-size="14.00">«правду кажеш — ти мудак»</text>
</g>
<!-- j3321121732&#45;&gt;j2831496608 -->
<g id="edge39" class="edge">
<title>j3321121732&#45;&gt;j2831496608</title>
<path fill="none" stroke="black" d="M350.1,-575.7C356.42,-567.64 364.08,-557.89 371.09,-548.98"/>
<polygon fill="black" stroke="black" points="373.7,-551.32 377.13,-541.29 368.2,-547 373.7,-551.32"/>
</g>
<!-- j2687437499&#45;&gt;j2831496608 -->
<g id="edge40" class="edge">
<title>j2687437499&#45;&gt;j2831496608</title>
<path fill="none" stroke="black" d="M404.3,-575.7C402.51,-568.32 400.37,-559.52 398.36,-551.25"/>
<polygon fill="black" stroke="black" points="401.77,-550.47 396.01,-541.58 394.97,-552.12 401.77,-550.47"/>
</g>
<!-- j2868868269 -->
<g id="node38" class="node">
<title>j2868868269</title>
<polygon fill="none" stroke="blue" points="574.5,-468 208.5,-468 208.5,-432 574.5,-432 574.5,-468"/>
<text text-anchor="middle" x="391.5" y="-446.3" font-family="Times New Roman,serif" font-size="14.00">але коли я ледь його не скинув із даху… знаєш шо стало?</text>
</g>
<!-- j2831496608&#45;&gt;j2868868269 -->
<g id="edge41" class="edge">
<title>j2831496608&#45;&gt;j2868868269</title>
<path fill="none" stroke="black" d="M391.5,-503.7C391.5,-496.41 391.5,-487.73 391.5,-479.54"/>
<polygon fill="black" stroke="black" points="395,-479.62 391.5,-469.62 388,-479.62 395,-479.62"/>
</g>
<!-- j3201410021 -->
<g id="node39" class="node">
<title>j3201410021</title>
<polygon fill="none" stroke="blue" points="647.5,-396 135.5,-396 135.5,-360 647.5,-360 647.5,-396"/>
<text text-anchor="middle" x="391.5" y="-374.3" font-family="Times New Roman,serif" font-size="14.00">він мене обійняв. трясця — обійняв. і сказав «а ще ти також мій старший братик»</text>
</g>
<!-- j2868868269&#45;&gt;j3201410021 -->
<g id="edge42" class="edge">
<title>j2868868269&#45;&gt;j3201410021</title>
<path fill="none" stroke="black" d="M391.5,-431.7C391.5,-424.41 391.5,-415.73 391.5,-407.54"/>
<polygon fill="black" stroke="black" points="395,-407.62 391.5,-397.62 388,-407.62 395,-407.62"/>
</g>
<!-- j4283864237 -->
<g id="node40" class="node">
<title>j4283864237</title>
<polygon fill="none" stroke="blue" points="418.5,-324 364.5,-324 364.5,-288 418.5,-288 418.5,-324"/>
<text text-anchor="middle" x="391.5" y="-302.3" font-family="Times New Roman,serif" font-size="14.00">шзнх</text>
</g>
<!-- j3201410021&#45;&gt;j4283864237 -->
<g id="edge43" class="edge">
<title>j3201410021&#45;&gt;j4283864237</title>
<path fill="none" stroke="black" d="M391.5,-359.7C391.5,-352.41 391.5,-343.73 391.5,-335.54"/>
<polygon fill="black" stroke="black" points="395,-335.62 391.5,-325.62 388,-335.62 395,-335.62"/>
</g>
<!-- j2433385129 -->
<g id="node41" class="node">
<title>j2433385129</title>
<polygon fill="none" stroke="blue" points="722,-252 61,-252 61,-216 722,-216 722,-252"/>
<text text-anchor="middle" x="391.5" y="-230.3" font-family="Times New Roman,serif" font-size="14.00">але… так. вартувало того. думаю, шо воно шось значило для нього, насправді. та й для мене теж… гадаю</text>
</g>
<!-- j4283864237&#45;&gt;j2433385129 -->
<g id="edge44" class="edge">
<title>j4283864237&#45;&gt;j2433385129</title>
<path fill="none" stroke="black" d="M391.5,-287.7C391.5,-280.41 391.5,-271.73 391.5,-263.54"/>
<polygon fill="black" stroke="black" points="395,-263.62 391.5,-253.62 388,-263.62 395,-263.62"/>
</g>
<!-- j1456111710 -->
<g id="node42" class="node">
<title>j1456111710</title>
<ellipse fill="none" stroke="orange" cx="525.5" cy="-162" rx="64.19" ry="18"/>
<text text-anchor="middle" x="525.5" y="-158.3" font-family="Times New Roman,serif" font-size="14.00">+20 Chemistry</text>
</g>
<!-- j2433385129&#45;&gt;j1456111710 -->
<g id="edge45" class="edge">
<title>j2433385129&#45;&gt;j1456111710</title>
<path fill="none" stroke="black" d="M424.97,-215.52C443.5,-205.84 466.64,-193.75 486.05,-183.61"/>
<polygon fill="black" stroke="black" points="487.52,-186.79 494.76,-179.06 484.27,-180.59 487.52,-186.79"/>
</g>
<!-- j796429323 -->
<g id="node43" class="node">
<title>j796429323</title>
<polygon fill="none" stroke="blue" points="710,-108 631,-108 631,-72 710,-72 710,-108"/>
<text text-anchor="middle" x="670.5" y="-86.3" font-family="Times New Roman,serif" font-size="14.00">тож… дяк</text>
</g>
<!-- j1456111710&#45;&gt;j796429323 -->
<g id="edge46" class="edge">
<title>j1456111710&#45;&gt;j796429323</title>
<path fill="none" stroke="black" d="M556.61,-145.98C576.29,-136.48 602.09,-124.02 624.16,-113.37"/>
<polygon fill="black" stroke="black" points="625.48,-116.62 632.97,-109.12 622.44,-110.32 625.48,-116.62"/>
</g>
<!-- j796429323&#45;&gt;Chat ends. -->
<g id="edge47" class="edge">
<title>j796429323&#45;&gt;Chat ends.</title>
<path fill="none" stroke="black" d="M678.9,-71.7C682.61,-64.07 687.06,-54.92 691.19,-46.4"/>
<polygon fill="black" stroke="black" points="694.31,-47.99 695.53,-37.47 688.01,-44.93 694.31,-47.99"/>
</g>
</g>
</svg>
