<?xml version="1.0" encoding="UTF-8" standalone="no"?>
<!DOCTYPE svg PUBLIC "-//W3C//DTD SVG 1.1//EN"
 "http://www.w3.org/Graphics/SVG/1.1/DTD/svg11.dtd">
<!-- Generated by graphviz version 7.1.0 (20230121.1956)
 -->
<!-- Pages: 1 -->
<svg width="1370pt" height="1052pt"
 viewBox="0.00 0.00 1370.00 1052.00" xmlns="http://www.w3.org/2000/svg" xmlns:xlink="http://www.w3.org/1999/xlink">
<g id="graph0" class="graph" transform="scale(1 1) rotate(0) translate(4 1048)">
<polygon fill="white" stroke="none" points="-4,4 -4,-1048 1366,-1048 1366,4 -4,4"/>
<!-- 3861 -->
<g id="node1" class="node">
<title>3861</title>
<ellipse fill="none" stroke="orange" cx="491.5" cy="-1026" rx="118.08" ry="18"/>
<text text-anchor="middle" x="491.5" y="-1022.3" font-family="Times New Roman,serif" font-size="14.00">QuincyRank6Convo8 begins.</text>
</g>
<!-- 3862 -->
<g id="node2" class="node">
<title>3862</title>
<polygon fill="none" stroke="blue" points="642.5,-972 340.5,-972 340.5,-936 642.5,-936 642.5,-972"/>
<text text-anchor="middle" x="491.5" y="-950.3" font-family="Times New Roman,serif" font-size="14.00">допомагав аой в майстерні, займалися байками</text>
</g>
<!-- 3861&#45;&gt;3862 -->
<g id="edge1" class="edge">
<title>3861&#45;&gt;3862</title>
<path fill="none" stroke="black" d="M491.5,-1007.7C491.5,-1000.41 491.5,-991.73 491.5,-983.54"/>
<polygon fill="black" stroke="black" points="495,-983.62 491.5,-973.62 488,-983.62 495,-983.62"/>
</g>
<!-- 3863 -->
<g id="node3" class="node">
<title>3863</title>
<polygon fill="none" stroke="blue" points="704,-900 279,-900 279,-864 704,-864 704,-900"/>
<text text-anchor="middle" x="491.5" y="-878.3" font-family="Times New Roman,serif" font-size="14.00">вони з велимиром ладнають як рідня, так мило аж не підібрати слів</text>
</g>
<!-- 3862&#45;&gt;3863 -->
<g id="edge2" class="edge">
<title>3862&#45;&gt;3863</title>
<path fill="none" stroke="black" d="M491.5,-935.7C491.5,-928.41 491.5,-919.73 491.5,-911.54"/>
<polygon fill="black" stroke="black" points="495,-911.62 491.5,-901.62 488,-911.62 495,-911.62"/>
</g>
<!-- 3864 -->
<g id="node4" class="node">
<title>3864</title>
<polygon fill="none" stroke="red" points="492,-828 267,-828 267,-792 492,-792 492,-828"/>
<text text-anchor="middle" x="379.5" y="-806.3" font-family="Times New Roman,serif" font-size="14.00">Ти про Аой зазвичай не балакаєш.</text>
</g>
<!-- 3863&#45;&gt;3864 -->
<g id="edge3" class="edge">
<title>3863&#45;&gt;3864</title>
<path fill="none" stroke="black" d="M463.53,-863.52C449.39,-854.68 432.04,-843.84 416.78,-834.3"/>
<polygon fill="black" stroke="black" points="418.74,-831.39 408.4,-829.06 415.03,-837.33 418.74,-831.39"/>
</g>
<!-- 3865 -->
<g id="node5" class="node">
<title>3865</title>
<polygon fill="none" stroke="red" points="732.5,-828 544.5,-828 544.5,-792 732.5,-792 732.5,-828"/>
<text text-anchor="middle" x="638.5" y="-806.3" font-family="Times New Roman,serif" font-size="14.00">Які враження від Велимира?</text>
</g>
<!-- 3863&#45;&gt;3865 -->
<g id="edge4" class="edge">
<title>3863&#45;&gt;3865</title>
<path fill="none" stroke="black" d="M528.22,-863.52C547.41,-854.38 571.1,-843.09 591.61,-833.33"/>
<polygon fill="black" stroke="black" points="593.11,-836.49 600.63,-829.03 590.1,-830.17 593.11,-836.49"/>
</g>
<!-- 3866 -->
<g id="node6" class="node">
<title>3866</title>
<polygon fill="none" stroke="blue" points="623,-756 0,-756 0,-720 623,-720 623,-756"/>
<text text-anchor="middle" x="311.5" y="-734.3" font-family="Times New Roman,serif" font-size="14.00">бо не тра було? аой — це аой. вона не незламна, як хоче показати, але й ніколи не створює проблем</text>
</g>
<!-- 3864&#45;&gt;3866 -->
<g id="edge5" class="edge">
<title>3864&#45;&gt;3866</title>
<path fill="none" stroke="black" d="M362.69,-791.7C354.62,-783.39 344.8,-773.28 335.92,-764.14"/>
<polygon fill="black" stroke="black" points="338.65,-761.92 329.17,-757.19 333.63,-766.8 338.65,-761.92"/>
</g>
<!-- 3867 -->
<g id="node7" class="node">
<title>3867</title>
<polygon fill="none" stroke="blue" points="713.5,-756 651.5,-756 651.5,-720 713.5,-720 713.5,-756"/>
<text text-anchor="middle" x="682.5" y="-734.3" font-family="Times New Roman,serif" font-size="14.00">хахахах</text>
</g>
<!-- 3865&#45;&gt;3867 -->
<g id="edge6" class="edge">
<title>3865&#45;&gt;3867</title>
<path fill="none" stroke="black" d="M649.38,-791.7C654.28,-783.9 660.18,-774.51 665.64,-765.83"/>
<polygon fill="black" stroke="black" points="668.58,-767.71 670.94,-757.39 662.66,-763.99 668.58,-767.71"/>
</g>
<!-- 3868 -->
<g id="node8" class="node">
<title>3868</title>
<polygon fill="none" stroke="blue" points="408,-684 175,-684 175,-648 408,-648 408,-684"/>
<text text-anchor="middle" x="291.5" y="-662.3" font-family="Times New Roman,serif" font-size="14.00">жінка знає хто вона і як поводитися</text>
</g>
<!-- 3866&#45;&gt;3868 -->
<g id="edge7" class="edge">
<title>3866&#45;&gt;3868</title>
<path fill="none" stroke="black" d="M306.56,-719.7C304.42,-712.24 301.88,-703.32 299.49,-694.97"/>
<polygon fill="black" stroke="black" points="302.92,-694.21 296.8,-685.56 296.18,-696.14 302.92,-694.21"/>
</g>
<!-- 3869 -->
<g id="node9" class="node">
<title>3869</title>
<polygon fill="none" stroke="blue" points="959.5,-684 427.5,-684 427.5,-648 959.5,-648 959.5,-684"/>
<text text-anchor="middle" x="693.5" y="-662.3" font-family="Times New Roman,serif" font-size="14.00">обожнюю чуваків які точно знають хто вони і їм АБСОЛЮТНО ПОФІГУ, дружаньо</text>
</g>
<!-- 3867&#45;&gt;3869 -->
<g id="edge8" class="edge">
<title>3867&#45;&gt;3869</title>
<path fill="none" stroke="black" d="M685.22,-719.7C686.38,-712.32 687.76,-703.52 689.06,-695.25"/>
<polygon fill="black" stroke="black" points="692.48,-696.02 690.58,-685.6 685.57,-694.93 692.48,-696.02"/>
</g>
<!-- 3870 -->
<g id="node10" class="node">
<title>3870</title>
<polygon fill="none" stroke="blue" points="427,-612 150,-612 150,-576 427,-576 427,-612"/>
<text text-anchor="middle" x="288.5" y="-590.3" font-family="Times New Roman,serif" font-size="14.00">і вона мене розкусила з першого дня пхаха</text>
</g>
<!-- 3868&#45;&gt;3870 -->
<g id="edge9" class="edge">
<title>3868&#45;&gt;3870</title>
<path fill="none" stroke="black" d="M290.76,-647.7C290.45,-640.41 290.07,-631.73 289.72,-623.54"/>
<polygon fill="black" stroke="black" points="293.22,-623.46 289.3,-613.62 286.23,-623.76 293.22,-623.46"/>
</g>
<!-- 3871 -->
<g id="node11" class="node">
<title>3871</title>
<polygon fill="none" stroke="blue" points="784,-612 605,-612 605,-576 784,-576 784,-612"/>
<text text-anchor="middle" x="694.5" y="-590.3" font-family="Times New Roman,serif" font-size="14.00">бос би міг навчити дечому</text>
</g>
<!-- 3869&#45;&gt;3871 -->
<g id="edge10" class="edge">
<title>3869&#45;&gt;3871</title>
<path fill="none" stroke="black" d="M693.75,-647.7C693.85,-640.41 693.98,-631.73 694.09,-623.54"/>
<polygon fill="black" stroke="black" points="697.59,-623.67 694.23,-613.62 690.59,-623.57 697.59,-623.67"/>
</g>
<!-- 3872 -->
<g id="node12" class="node">
<title>3872</title>
<polygon fill="none" stroke="blue" points="497,-540 68,-540 68,-504 497,-504 497,-540"/>
<text text-anchor="middle" x="282.5" y="-518.3" font-family="Times New Roman,serif" font-size="14.00">спершу я нервував, думав шо почне мене «виправляти» чи ше шось</text>
</g>
<!-- 3870&#45;&gt;3872 -->
<g id="edge11" class="edge">
<title>3870&#45;&gt;3872</title>
<path fill="none" stroke="black" d="M287.02,-575.7C286.39,-568.41 285.65,-559.73 284.95,-551.54"/>
<polygon fill="black" stroke="black" points="288.44,-551.28 284.1,-541.61 281.46,-551.87 288.44,-551.28"/>
</g>
<!-- 3873 -->
<g id="node13" class="node">
<title>3873</title>
<polygon fill="none" stroke="blue" points="875.5,-540 515.5,-540 515.5,-504 875.5,-504 875.5,-540"/>
<text text-anchor="middle" x="695.5" y="-518.3" font-family="Times New Roman,serif" font-size="14.00">та він називає мене «паном Британчиком Довгострілом»</text>
</g>
<!-- 3871&#45;&gt;3873 -->
<g id="edge12" class="edge">
<title>3871&#45;&gt;3873</title>
<path fill="none" stroke="black" d="M694.75,-575.7C694.85,-568.41 694.98,-559.73 695.09,-551.54"/>
<polygon fill="black" stroke="black" points="698.59,-551.67 695.23,-541.62 691.59,-551.57 698.59,-551.67"/>
</g>
<!-- 3874 -->
<g id="node14" class="node">
<title>3874</title>
<polygon fill="none" stroke="blue" points="466.5,-468 98.5,-468 98.5,-432 466.5,-432 466.5,-468"/>
<text text-anchor="middle" x="282.5" y="-446.3" font-family="Times New Roman,serif" font-size="14.00">але ні. вона все зрозуміла. вона наче моя старша сеструня</text>
</g>
<!-- 3872&#45;&gt;3874 -->
<g id="edge13" class="edge">
<title>3872&#45;&gt;3874</title>
<path fill="none" stroke="black" d="M282.5,-503.7C282.5,-496.41 282.5,-487.73 282.5,-479.54"/>
<polygon fill="black" stroke="black" points="286,-479.62 282.5,-469.62 279,-479.62 286,-479.62"/>
</g>
<!-- 3875 -->
<g id="node15" class="node">
<title>3875</title>
<polygon fill="none" stroke="blue" points="821,-468 570,-468 570,-432 821,-432 821,-468"/>
<text text-anchor="middle" x="695.5" y="-446.3" font-family="Times New Roman,serif" font-size="14.00">я ж не настільки забританений хіба нє?</text>
</g>
<!-- 3873&#45;&gt;3875 -->
<g id="edge14" class="edge">
<title>3873&#45;&gt;3875</title>
<path fill="none" stroke="black" d="M695.5,-503.7C695.5,-496.41 695.5,-487.73 695.5,-479.54"/>
<polygon fill="black" stroke="black" points="699,-479.62 695.5,-469.62 692,-479.62 699,-479.62"/>
</g>
<!-- 3876 -->
<g id="node16" class="node">
<title>3876</title>
<polygon fill="none" stroke="blue" points="497,-396 68,-396 68,-360 497,-360 497,-396"/>
<text text-anchor="middle" x="282.5" y="-374.3" font-family="Times New Roman,serif" font-size="14.00">тільки не здумай це їй сказати бо я тебе встрелю крізь усі стіни хаха</text>
</g>
<!-- 3874&#45;&gt;3876 -->
<g id="edge15" class="edge">
<title>3874&#45;&gt;3876</title>
<path fill="none" stroke="black" d="M282.5,-431.7C282.5,-424.41 282.5,-415.73 282.5,-407.54"/>
<polygon fill="black" stroke="black" points="286,-407.62 282.5,-397.62 279,-407.62 286,-407.62"/>
</g>
<!-- 3877 -->
<g id="node17" class="node">
<title>3877</title>
<polygon fill="none" stroke="red" points="872.5,-396 516.5,-396 516.5,-360 872.5,-360 872.5,-396"/>
<text text-anchor="middle" x="694.5" y="-374.3" font-family="Times New Roman,serif" font-size="14.00">Так. Ти такий. І я знаю, що гадки не маю, де це і як там.</text>
</g>
<!-- 3875&#45;&gt;3877 -->
<g id="edge16" class="edge">
<title>3875&#45;&gt;3877</title>
<path fill="none" stroke="black" d="M695.25,-431.7C695.15,-424.41 695.02,-415.73 694.91,-407.54"/>
<polygon fill="black" stroke="black" points="698.41,-407.57 694.77,-397.62 691.41,-407.67 698.41,-407.57"/>
</g>
<!-- 3878 -->
<g id="node18" class="node">
<title>3878</title>
<polygon fill="none" stroke="red" points="1362,-396 891,-396 891,-360 1362,-360 1362,-396"/>
<text text-anchor="middle" x="1126.5" y="-374.3" font-family="Times New Roman,serif" font-size="14.00">Я гадки не маю, я знаю лише вас із Артуром, тож нема з чим порівнювати.</text>
</g>
<!-- 3875&#45;&gt;3878 -->
<g id="edge17" class="edge">
<title>3875&#45;&gt;3878</title>
<path fill="none" stroke="black" d="M803.15,-431.52C865.49,-421.39 944.06,-408.63 1008.14,-398.22"/>
<polygon fill="black" stroke="black" points="1008.3,-401.74 1017.61,-396.69 1007.18,-394.83 1008.3,-401.74"/>
</g>
<!-- 3879 -->
<g id="node19" class="node">
<title>3879</title>
<ellipse fill="none" stroke="orange" cx="282.5" cy="-306" rx="50.09" ry="18"/>
<text text-anchor="middle" x="282.5" y="-302.3" font-family="Times New Roman,serif" font-size="14.00">Chat ends.</text>
</g>
<!-- 3876&#45;&gt;3879 -->
<g id="edge18" class="edge">
<title>3876&#45;&gt;3879</title>
<path fill="none" stroke="black" d="M282.5,-359.7C282.5,-352.41 282.5,-343.73 282.5,-335.54"/>
<polygon fill="black" stroke="black" points="286,-335.62 282.5,-325.62 279,-335.62 286,-335.62"/>
</g>
<!-- 3880 -->
<g id="node20" class="node">
<title>3880</title>
<ellipse fill="none" stroke="orange" cx="734.5" cy="-306" rx="59.59" ry="18"/>
<text text-anchor="middle" x="734.5" y="-302.3" font-family="Times New Roman,serif" font-size="14.00">+5 Chemistry</text>
</g>
<!-- 3877&#45;&gt;3880 -->
<g id="edge19" class="edge">
<title>3877&#45;&gt;3880</title>
<path fill="none" stroke="black" d="M704.39,-359.7C708.84,-351.9 714.21,-342.51 719.17,-333.83"/>
<polygon fill="black" stroke="black" points="722.05,-335.84 723.98,-325.42 715.97,-332.36 722.05,-335.84"/>
</g>
<!-- 3881 -->
<g id="node21" class="node">
<title>3881</title>
<polygon fill="none" stroke="blue" points="1124,-252 1047,-252 1047,-216 1124,-216 1124,-252"/>
<text text-anchor="middle" x="1085.5" y="-230.3" font-family="Times New Roman,serif" font-size="14.00">пф пофігу</text>
</g>
<!-- 3878&#45;&gt;3881 -->
<g id="edge20" class="edge">
<title>3878&#45;&gt;3881</title>
<path fill="none" stroke="black" d="M1121.47,-359.59C1114.52,-335.5 1101.89,-291.75 1093.59,-263.03"/>
<polygon fill="black" stroke="black" points="1097,-262.2 1090.86,-253.57 1090.27,-264.14 1097,-262.2"/>
</g>
<!-- 3882 -->
<g id="node22" class="node">
<title>3882</title>
<polygon fill="none" stroke="blue" points="949,-252 842,-252 842,-216 949,-216 949,-252"/>
<text text-anchor="middle" x="895.5" y="-230.3" font-family="Times New Roman,serif" font-size="14.00">ха в сраку тебе</text>
</g>
<!-- 3880&#45;&gt;3882 -->
<g id="edge21" class="edge">
<title>3880&#45;&gt;3882</title>
<path fill="none" stroke="black" d="M767.47,-290.67C789.77,-280.97 819.65,-267.98 844.93,-256.99"/>
<polygon fill="black" stroke="black" points="846.29,-260.21 854.06,-253.02 843.49,-253.79 846.29,-260.21"/>
</g>
<!-- 3883 -->
<g id="node23" class="node">
<title>3883</title>
<polygon fill="none" stroke="blue" points="1053.5,-180 847.5,-180 847.5,-144 1053.5,-144 1053.5,-180"/>
<text text-anchor="middle" x="950.5" y="-158.3" font-family="Times New Roman,serif" font-size="14.00">але так, здоровило прикольний</text>
</g>
<!-- 3881&#45;&gt;3883 -->
<g id="edge22" class="edge">
<title>3881&#45;&gt;3883</title>
<path fill="none" stroke="black" d="M1051.78,-215.52C1034.25,-206.43 1012.63,-195.22 993.87,-185.49"/>
<polygon fill="black" stroke="black" points="995.62,-182.45 985.13,-180.96 992.4,-188.67 995.62,-182.45"/>
</g>
<!-- 3882&#45;&gt;3883 -->
<g id="edge23" class="edge">
<title>3882&#45;&gt;3883</title>
<path fill="none" stroke="black" d="M909.1,-215.7C915.42,-207.64 923.08,-197.89 930.09,-188.98"/>
<polygon fill="black" stroke="black" points="932.7,-191.32 936.13,-181.29 927.2,-187 932.7,-191.32"/>
</g>
<!-- 3884 -->
<g id="node24" class="node">
<title>3884</title>
<polygon fill="none" stroke="blue" points="1030.5,-108 870.5,-108 870.5,-72 1030.5,-72 1030.5,-108"/>
<text text-anchor="middle" x="950.5" y="-86.3" font-family="Times New Roman,serif" font-size="14.00">як для лібертанчика хах</text>
</g>
<!-- 3883&#45;&gt;3884 -->
<g id="edge24" class="edge">
<title>3883&#45;&gt;3884</title>
<path fill="none" stroke="black" d="M950.5,-143.7C950.5,-136.41 950.5,-127.73 950.5,-119.54"/>
<polygon fill="black" stroke="black" points="954,-119.62 950.5,-109.62 947,-119.62 954,-119.62"/>
</g>
<!-- 3885 -->
<g id="node25" class="node">
<title>3885</title>
<ellipse fill="none" stroke="orange" cx="950.5" cy="-18" rx="50.09" ry="18"/>
<text text-anchor="middle" x="950.5" y="-14.3" font-family="Times New Roman,serif" font-size="14.00">Chat ends.</text>
</g>
<!-- 3884&#45;&gt;3885 -->
<g id="edge25" class="edge">
<title>3884&#45;&gt;3885</title>
<path fill="none" stroke="black" d="M950.5,-71.7C950.5,-64.41 950.5,-55.73 950.5,-47.54"/>
<polygon fill="black" stroke="black" points="954,-47.62 950.5,-37.62 947,-47.62 954,-47.62"/>
</g>
</g>
</svg>
