<?xml version="1.0" encoding="UTF-8" standalone="no"?>
<!DOCTYPE svg PUBLIC "-//W3C//DTD SVG 1.1//EN"
 "http://www.w3.org/Graphics/SVG/1.1/DTD/svg11.dtd">
<!-- Generated by graphviz version 7.1.0 (20230121.1956)
 -->
<!-- Pages: 1 -->
<svg width="5128pt" height="2364pt"
 viewBox="0.00 0.00 5127.50 2364.00" xmlns="http://www.w3.org/2000/svg" xmlns:xlink="http://www.w3.org/1999/xlink">
<g id="graph0" class="graph" transform="scale(1 1) rotate(0) translate(4 2360)">
<polygon fill="white" stroke="none" points="-4,4 -4,-2360 5123.5,-2360 5123.5,4 -4,4"/>
<!-- QuincyRank4Convo4 begins. -->
<g id="node1" class="node">
<title>QuincyRank4Convo4 begins.</title>
<ellipse fill="none" stroke="orange" cx="4382" cy="-2338" rx="118.08" ry="18"/>
<text text-anchor="middle" x="4382" y="-2334.3" font-family="Times New Roman,serif" font-size="14.00">QuincyRank4Convo4 begins.</text>
</g>
<!-- j679704129 -->
<g id="node2" class="node">
<title>j679704129</title>
<ellipse fill="none" stroke="orange" cx="4382" cy="-2265" rx="117.78" ry="18"/>
<text text-anchor="middle" x="4382" y="-2261.3" font-family="Times New Roman,serif" font-size="14.00">Check boolean QuincyDating</text>
</g>
<!-- QuincyRank4Convo4 begins.&#45;&gt;j679704129 -->
<g id="edge1" class="edge">
<title>QuincyRank4Convo4 begins.&#45;&gt;j679704129</title>
<path fill="none" stroke="black" d="M4382,-2319.81C4382,-2312.23 4382,-2303.1 4382,-2294.54"/>
<polygon fill="black" stroke="black" points="4385.5,-2294.54 4382,-2284.54 4378.5,-2294.54 4385.5,-2294.54"/>
</g>
<!-- j309368862 -->
<g id="node3" class="node">
<title>j309368862</title>
<polygon fill="none" stroke="blue" points="4391.5,-2196 4178.5,-2196 4178.5,-2160 4391.5,-2160 4391.5,-2196"/>
<text text-anchor="middle" x="4285" y="-2174.3" font-family="Times New Roman,serif" font-size="14.00">агов, сексі, маю питання до тебе</text>
</g>
<!-- j679704129&#45;&gt;j309368862 -->
<g id="edge2" class="edge">
<title>j679704129&#45;&gt;j309368862</title>
<path fill="none" stroke="green" d="M4362.37,-2246.8C4348.26,-2234.44 4329.04,-2217.59 4313.28,-2203.78"/>
<polygon fill="green" stroke="green" points="4315.9,-2201.42 4306.07,-2197.46 4311.29,-2206.69 4315.9,-2201.42"/>
<text text-anchor="middle" x="4351" y="-2217.8" font-family="Times New Roman,serif" font-size="14.00">true</text>
</g>
<!-- j1205922483 -->
<g id="node4" class="node">
<title>j1205922483</title>
<polygon fill="none" stroke="blue" points="4552.5,-2196 4409.5,-2196 4409.5,-2160 4552.5,-2160 4552.5,-2196"/>
<text text-anchor="middle" x="4481" y="-2174.3" font-family="Times New Roman,serif" font-size="14.00">маю питання до тебе</text>
</g>
<!-- j679704129&#45;&gt;j1205922483 -->
<g id="edge3" class="edge">
<title>j679704129&#45;&gt;j1205922483</title>
<path fill="none" stroke="brown" d="M4402.03,-2246.8C4416.43,-2234.44 4436.06,-2217.59 4452.14,-2203.78"/>
<polygon fill="brown" stroke="brown" points="4454.2,-2206.62 4459.51,-2197.45 4449.64,-2201.31 4454.2,-2206.62"/>
<text text-anchor="middle" x="4450" y="-2217.8" font-family="Times New Roman,serif" font-size="14.00">false</text>
</g>
<!-- j3467816443 -->
<g id="node5" class="node">
<title>j3467816443</title>
<ellipse fill="none" stroke="orange" cx="4382" cy="-2105" rx="119.68" ry="18"/>
<text text-anchor="middle" x="4382" y="-2101.3" font-family="Times New Roman,serif" font-size="14.00">Check boolean QuincyParvos</text>
</g>
<!-- j309368862&#45;&gt;j3467816443 -->
<g id="edge4" class="edge">
<title>j309368862&#45;&gt;j3467816443</title>
<path fill="none" stroke="black" d="M4308.48,-2159.81C4320.87,-2150.74 4336.26,-2139.48 4349.76,-2129.6"/>
<polygon fill="black" stroke="black" points="4351.51,-2132.65 4357.51,-2123.92 4347.38,-2127 4351.51,-2132.65"/>
</g>
<!-- j1205922483&#45;&gt;j3467816443 -->
<g id="edge5" class="edge">
<title>j1205922483&#45;&gt;j3467816443</title>
<path fill="none" stroke="black" d="M4456.78,-2159.63C4444.13,-2150.56 4428.47,-2139.33 4414.75,-2129.49"/>
<polygon fill="black" stroke="black" points="4417.02,-2126.81 4406.86,-2123.83 4412.94,-2132.5 4417.02,-2126.81"/>
</g>
<!-- j3029740601 -->
<g id="node6" class="node">
<title>j3029740601</title>
<polygon fill="none" stroke="blue" points="4395,-1982 4083,-1982 4083,-1946 4395,-1946 4395,-1982"/>
<text text-anchor="middle" x="4239" y="-1960.3" font-family="Times New Roman,serif" font-size="14.00">якась була згадка про парва, грошовитого хлопа</text>
</g>
<!-- j3467816443&#45;&gt;j3029740601 -->
<g id="edge6" class="edge">
<title>j3467816443&#45;&gt;j3029740601</title>
<path fill="none" stroke="green" d="M4364.47,-2086.96C4339.49,-2062.67 4293.5,-2017.97 4264.67,-1989.96"/>
<polygon fill="green" stroke="green" points="4267.37,-1987.7 4257.76,-1983.24 4262.49,-1992.72 4267.37,-1987.7"/>
<text text-anchor="middle" x="4357" y="-2057.8" font-family="Times New Roman,serif" font-size="14.00">true</text>
</g>
<!-- j33070795 -->
<g id="node7" class="node">
<title>j33070795</title>
<polygon fill="none" stroke="blue" points="4766,-2036 4396,-2036 4396,-2000 4766,-2000 4766,-2036"/>
<text text-anchor="middle" x="4581" y="-2014.3" font-family="Times New Roman,serif" font-size="14.00">там у твому майбутньому є хтось ну… великий корпорат?</text>
</g>
<!-- j3467816443&#45;&gt;j33070795 -->
<g id="edge7" class="edge">
<title>j3467816443&#45;&gt;j33070795</title>
<path fill="none" stroke="brown" d="M4420.37,-2087.61C4451.59,-2074.28 4495.91,-2055.34 4530.1,-2040.74"/>
<polygon fill="brown" stroke="brown" points="4531.14,-2044.1 4538.96,-2036.96 4528.39,-2037.67 4531.14,-2044.1"/>
<text text-anchor="middle" x="4506" y="-2057.8" font-family="Times New Roman,serif" font-size="14.00">false</text>
</g>
<!-- j1525014989 -->
<g id="node8" class="node">
<title>j1525014989</title>
<polygon fill="none" stroke="blue" points="4224,-1855 4072,-1855 4072,-1819 4224,-1819 4224,-1855"/>
<text text-anchor="middle" x="4148" y="-1833.3" font-family="Times New Roman,serif" font-size="14.00">думаєш він щасливий?</text>
</g>
<!-- j3029740601&#45;&gt;j1525014989 -->
<g id="edge8" class="edge">
<title>j3029740601&#45;&gt;j1525014989</title>
<path fill="none" stroke="black" d="M4226.35,-1945.62C4211,-1924.54 4184.97,-1888.79 4167.16,-1864.32"/>
<polygon fill="black" stroke="black" points="4170.15,-1862.48 4161.44,-1856.46 4164.49,-1866.6 4170.15,-1862.48"/>
</g>
<!-- j2496907027 -->
<g id="node9" class="node">
<title>j2496907027</title>
<polygon fill="none" stroke="red" points="4685,-1928 4477,-1928 4477,-1892 4685,-1892 4685,-1928"/>
<text text-anchor="middle" x="4581" y="-1906.3" font-family="Times New Roman,serif" font-size="14.00">Великий корпорат? Ти про що?</text>
</g>
<!-- j33070795&#45;&gt;j2496907027 -->
<g id="edge9" class="edge">
<title>j33070795&#45;&gt;j2496907027</title>
<path fill="none" stroke="black" d="M4581,-1999.97C4581,-1983.76 4581,-1959.06 4581,-1939.79"/>
<polygon fill="black" stroke="black" points="4584.5,-1939.85 4581,-1929.85 4577.5,-1939.85 4584.5,-1939.85"/>
</g>
<!-- j3134145009 -->
<g id="node10" class="node">
<title>j3134145009</title>
<polygon fill="none" stroke="red" points="4980.5,-1928 4747.5,-1928 4747.5,-1892 4980.5,-1892 4980.5,-1928"/>
<text text-anchor="middle" x="4864" y="-1906.3" font-family="Times New Roman,serif" font-size="14.00">Корпорат, це щось про корпорації?</text>
</g>
<!-- j33070795&#45;&gt;j3134145009 -->
<g id="edge10" class="edge">
<title>j33070795&#45;&gt;j3134145009</title>
<path fill="none" stroke="black" d="M4627.41,-1999.61C4676.56,-1981.21 4754.19,-1952.13 4807.01,-1932.35"/>
<polygon fill="black" stroke="black" points="4808.01,-1935.71 4816.14,-1928.93 4805.55,-1929.16 4808.01,-1935.71"/>
</g>
<!-- j2909279564 -->
<g id="node11" class="node">
<title>j2909279564</title>
<polygon fill="none" stroke="red" points="4369,-1782 3881,-1782 3881,-1746 4369,-1746 4369,-1782"/>
<text text-anchor="middle" x="4125" y="-1760.3" font-family="Times New Roman,serif" font-size="14.00">Щасливий? Я не в таких тісних стосунках із ним, К. Ми не в одній бульбашці.</text>
</g>
<!-- j1525014989&#45;&gt;j2909279564 -->
<g id="edge11" class="edge">
<title>j1525014989&#45;&gt;j2909279564</title>
<path fill="none" stroke="black" d="M4142.43,-1818.81C4139.92,-1811.05 4136.88,-1801.68 4134.05,-1792.95"/>
<polygon fill="black" stroke="black" points="4137.39,-1791.9 4130.98,-1783.47 4130.74,-1794.06 4137.39,-1791.9"/>
</g>
<!-- j962232347 -->
<g id="node12" class="node">
<title>j962232347</title>
<polygon fill="none" stroke="red" points="3765.5,-1728 3646.5,-1728 3646.5,-1692 3765.5,-1692 3765.5,-1728"/>
<text text-anchor="middle" x="3706" y="-1706.3" font-family="Times New Roman,serif" font-size="14.00">Чому ти питаєш?</text>
</g>
<!-- j1525014989&#45;&gt;j962232347 -->
<g id="edge12" class="edge">
<title>j1525014989&#45;&gt;j962232347</title>
<path fill="none" stroke="black" d="M4071.67,-1825.5C4015.66,-1816.73 3938.15,-1802.37 3872,-1782 3829.83,-1769.02 3783.85,-1748.84 3750.99,-1733.31"/>
<polygon fill="black" stroke="black" points="3752.71,-1730.25 3742.17,-1729.1 3749.69,-1736.57 3752.71,-1730.25"/>
</g>
<!-- j738732014 -->
<g id="node13" class="node">
<title>j738732014</title>
<polygon fill="none" stroke="red" points="4627,-1728 4305,-1728 4305,-1692 4627,-1692 4627,-1728"/>
<text text-anchor="middle" x="4466" y="-1706.3" font-family="Times New Roman,serif" font-size="14.00">У мене нема часу розкручувати цю тему. [Кінець.]</text>
</g>
<!-- j1525014989&#45;&gt;j738732014 -->
<g id="edge13" class="edge">
<title>j1525014989&#45;&gt;j738732014</title>
<path fill="none" stroke="black" d="M4224.33,-1828.31C4270.91,-1821.2 4330.43,-1807.65 4378,-1782 4398.48,-1770.96 4397.98,-1760.71 4416,-1746 4420.5,-1742.33 4425.37,-1738.62 4430.24,-1735.06"/>
<polygon fill="black" stroke="black" points="4432.17,-1737.99 4438.28,-1729.34 4428.1,-1732.29 4432.17,-1737.99"/>
</g>
<!-- j822977064 -->
<g id="node14" class="node">
<title>j822977064</title>
<polygon fill="none" stroke="blue" points="4767,-1855 4395,-1855 4395,-1819 4767,-1819 4767,-1855"/>
<text text-anchor="middle" x="4581" y="-1833.3" font-family="Times New Roman,serif" font-size="14.00">корпорат, корпорація, чувак з величезним мішком грошви</text>
</g>
<!-- j2496907027&#45;&gt;j822977064 -->
<g id="edge14" class="edge">
<title>j2496907027&#45;&gt;j822977064</title>
<path fill="none" stroke="black" d="M4581,-1891.81C4581,-1884.23 4581,-1875.1 4581,-1866.54"/>
<polygon fill="black" stroke="black" points="4584.5,-1866.54 4581,-1856.54 4577.5,-1866.54 4584.5,-1866.54"/>
</g>
<!-- j2773474157 -->
<g id="node15" class="node">
<title>j2773474157</title>
<polygon fill="none" stroke="blue" points="5033,-1855 4785,-1855 4785,-1819 5033,-1819 5033,-1855"/>
<text text-anchor="middle" x="4909" y="-1833.3" font-family="Times New Roman,serif" font-size="14.00">ага. ну той. з великим мішком грошви</text>
</g>
<!-- j3134145009&#45;&gt;j2773474157 -->
<g id="edge15" class="edge">
<title>j3134145009&#45;&gt;j2773474157</title>
<path fill="none" stroke="black" d="M4874.89,-1891.81C4880.09,-1883.62 4886.42,-1873.62 4892.21,-1864.48"/>
<polygon fill="black" stroke="black" points="4895,-1866.63 4897.4,-1856.31 4889.09,-1862.88 4895,-1866.63"/>
</g>
<!-- j1182413481 -->
<g id="node16" class="node">
<title>j1182413481</title>
<polygon fill="none" stroke="blue" points="4417,-1674 3833,-1674 3833,-1638 4417,-1638 4417,-1674"/>
<text text-anchor="middle" x="4125" y="-1652.3" font-family="Times New Roman,serif" font-size="14.00">ага, але ж якось перетиналися. ти чуєш його балачки, взаємодієш з тими, хто взаємодіє з ним</text>
</g>
<!-- j2909279564&#45;&gt;j1182413481 -->
<g id="edge16" class="edge">
<title>j2909279564&#45;&gt;j1182413481</title>
<path fill="none" stroke="black" d="M4125,-1745.97C4125,-1729.76 4125,-1705.06 4125,-1685.79"/>
<polygon fill="black" stroke="black" points="4128.5,-1685.85 4125,-1675.85 4121.5,-1685.85 4128.5,-1685.85"/>
</g>
<!-- j1181950045 -->
<g id="node17" class="node">
<title>j1181950045</title>
<polygon fill="none" stroke="blue" points="3847,-1601 3271,-1601 3271,-1565 3847,-1565 3847,-1601"/>
<text text-anchor="middle" x="3559" y="-1579.3" font-family="Times New Roman,serif" font-size="14.00">світ існує завдяки заможним і злидарям, так? так було завжди. хочу знати чи так завше буде</text>
</g>
<!-- j962232347&#45;&gt;j1181950045 -->
<g id="edge17" class="edge">
<title>j962232347&#45;&gt;j1181950045</title>
<path fill="none" stroke="black" d="M3685.56,-1691.62C3660.11,-1669.98 3616.48,-1632.88 3587.69,-1608.4"/>
<polygon fill="black" stroke="black" points="3590.3,-1606.03 3580.42,-1602.21 3585.77,-1611.36 3590.3,-1606.03"/>
</g>
<!-- Chat ends. -->
<g id="node18" class="node">
<title>Chat ends.</title>
<ellipse fill="none" stroke="orange" cx="4544" cy="-18" rx="50.09" ry="18"/>
<text text-anchor="middle" x="4544" y="-14.3" font-family="Times New Roman,serif" font-size="14.00">Chat ends.</text>
</g>
<!-- j738732014&#45;&gt;Chat ends. -->
<g id="edge18" class="edge">
<title>j738732014&#45;&gt;Chat ends.</title>
<path fill="none" stroke="black" d="M4495.04,-1691.71C4517.22,-1676.08 4544,-1650.82 4544,-1620 4544,-1620 4544,-1620 4544,-90 4544,-76.08 4544,-60.63 4544,-47.7"/>
<polygon fill="black" stroke="black" points="4547.5,-47.73 4544,-37.73 4540.5,-47.73 4547.5,-47.73"/>
</g>
<!-- j2596326320 -->
<g id="node19" class="node">
<title>j2596326320</title>
<polygon fill="none" stroke="red" points="4736.5,-1782 4425.5,-1782 4425.5,-1746 4736.5,-1746 4736.5,-1782"/>
<text text-anchor="middle" x="4581" y="-1760.3" font-family="Times New Roman,serif" font-size="14.00">Узагалі так. Парв Ґранум. Він очільник Корпусу.</text>
</g>
<!-- j822977064&#45;&gt;j2596326320 -->
<g id="edge19" class="edge">
<title>j822977064&#45;&gt;j2596326320</title>
<path fill="none" stroke="black" d="M4581,-1818.81C4581,-1811.23 4581,-1802.1 4581,-1793.54"/>
<polygon fill="black" stroke="black" points="4584.5,-1793.54 4581,-1783.54 4577.5,-1793.54 4584.5,-1793.54"/>
</g>
<!-- j1234753323 -->
<g id="node20" class="node">
<title>j1234753323</title>
<polygon fill="none" stroke="red" points="5119.5,-1782 4754.5,-1782 4754.5,-1746 5119.5,-1746 5119.5,-1782"/>
<text text-anchor="middle" x="4937" y="-1760.3" font-family="Times New Roman,serif" font-size="14.00">У мене нема часу розкручувати цю тему, вибач. [Кінець.]</text>
</g>
<!-- j822977064&#45;&gt;j1234753323 -->
<g id="edge20" class="edge">
<title>j822977064&#45;&gt;j1234753323</title>
<path fill="none" stroke="black" d="M4668.54,-1818.54C4719.96,-1808.29 4785.09,-1795.3 4838.32,-1784.68"/>
<polygon fill="black" stroke="black" points="4838.88,-1788.14 4848,-1782.75 4837.51,-1781.27 4838.88,-1788.14"/>
</g>
<!-- j2773474157&#45;&gt;j2596326320 -->
<g id="edge21" class="edge">
<title>j2773474157&#45;&gt;j2596326320</title>
<path fill="none" stroke="black" d="M4828.34,-1818.54C4781.27,-1808.35 4721.72,-1795.46 4672.85,-1784.88"/>
<polygon fill="black" stroke="black" points="4673.62,-1781.47 4663.11,-1782.77 4672.14,-1788.31 4673.62,-1781.47"/>
</g>
<!-- j2773474157&#45;&gt;j1234753323 -->
<g id="edge22" class="edge">
<title>j2773474157&#45;&gt;j1234753323</title>
<path fill="none" stroke="black" d="M4915.78,-1818.81C4918.87,-1810.96 4922.62,-1801.47 4926.09,-1792.66"/>
<polygon fill="black" stroke="black" points="4929.32,-1794.02 4929.73,-1783.44 4922.8,-1791.46 4929.32,-1794.02"/>
</g>
<!-- j2547951510 -->
<g id="node21" class="node">
<title>j2547951510</title>
<polygon fill="none" stroke="blue" points="4274.5,-1601 3975.5,-1601 3975.5,-1565 4274.5,-1565 4274.5,-1601"/>
<text text-anchor="middle" x="4125" y="-1579.3" font-family="Times New Roman,serif" font-size="14.00">думаєш його радує його життя? наповненість?</text>
</g>
<!-- j1182413481&#45;&gt;j2547951510 -->
<g id="edge23" class="edge">
<title>j1182413481&#45;&gt;j2547951510</title>
<path fill="none" stroke="black" d="M4125,-1637.81C4125,-1630.23 4125,-1621.1 4125,-1612.54"/>
<polygon fill="black" stroke="black" points="4128.5,-1612.54 4125,-1602.54 4121.5,-1612.54 4128.5,-1612.54"/>
</g>
<!-- j2299953977 -->
<g id="node22" class="node">
<title>j2299953977</title>
<polygon fill="none" stroke="red" points="3163.5,-1528 2860.5,-1528 2860.5,-1492 3163.5,-1492 3163.5,-1528"/>
<text text-anchor="middle" x="3012" y="-1506.3" font-family="Times New Roman,serif" font-size="14.00">Не думаю, що за гроші можна придбати щастя.</text>
</g>
<!-- j1181950045&#45;&gt;j2299953977 -->
<g id="edge24" class="edge">
<title>j1181950045&#45;&gt;j2299953977</title>
<path fill="none" stroke="black" d="M3424.49,-1564.54C3343.59,-1554.04 3240.59,-1540.67 3157.76,-1529.92"/>
<polygon fill="black" stroke="black" points="3158.33,-1526.46 3147.97,-1528.65 3157.43,-1533.41 3158.33,-1526.46"/>
</g>
<!-- j1117466647 -->
<g id="node23" class="node">
<title>j1117466647</title>
<polygon fill="none" stroke="red" points="3782.5,-1528 3181.5,-1528 3181.5,-1492 3782.5,-1492 3782.5,-1528"/>
<text text-anchor="middle" x="3482" y="-1506.3" font-family="Times New Roman,serif" font-size="14.00">Думаю, що люди, котрі вигадали фразу «Щастя ха гроші не купиш», були не дуже вигадливими.</text>
</g>
<!-- j1181950045&#45;&gt;j1117466647 -->
<g id="edge25" class="edge">
<title>j1181950045&#45;&gt;j1117466647</title>
<path fill="none" stroke="black" d="M3540.36,-1564.81C3530.97,-1556.16 3519.41,-1545.5 3509.07,-1535.96"/>
<polygon fill="black" stroke="black" points="3511.57,-1533.51 3501.85,-1529.3 3506.83,-1538.65 3511.57,-1533.51"/>
</g>
<!-- j1196448616 -->
<g id="node24" class="node">
<title>j1196448616</title>
<polygon fill="none" stroke="red" points="4515.5,-1528 3800.5,-1528 3800.5,-1492 4515.5,-1492 4515.5,-1528"/>
<text text-anchor="middle" x="4158" y="-1506.3" font-family="Times New Roman,serif" font-size="14.00">З того, що я можу сказати, то наче так. У нього є люди, які підтримують через інші причини, аніж *просто* гроші.</text>
</g>
<!-- j1181950045&#45;&gt;j1196448616 -->
<g id="edge26" class="edge">
<title>j1181950045&#45;&gt;j1196448616</title>
<path fill="none" stroke="black" d="M3706.3,-1564.54C3795.17,-1554.01 3908.39,-1540.59 3999.24,-1529.82"/>
<polygon fill="black" stroke="black" points="3999.47,-1533.32 4008.99,-1528.66 3998.65,-1526.36 3999.47,-1533.32"/>
</g>
<!-- j925236759 -->
<g id="node25" class="node">
<title>j925236759</title>
<ellipse fill="none" stroke="orange" cx="4712" cy="-1656" rx="139.98" ry="18"/>
<text text-anchor="middle" x="4712" y="-1652.3" font-family="Times New Roman,serif" font-size="14.00">Boolean QuincyParvos is now true.</text>
</g>
<!-- j2596326320&#45;&gt;j925236759 -->
<g id="edge27" class="edge">
<title>j2596326320&#45;&gt;j925236759</title>
<path fill="none" stroke="black" d="M4607.66,-1745.63C4615.63,-1740.18 4624.3,-1734.02 4632,-1728 4650.46,-1713.56 4670.17,-1696.1 4685.4,-1682.11"/>
<polygon fill="black" stroke="black" points="4687.74,-1684.71 4692.7,-1675.35 4682.99,-1679.57 4687.74,-1684.71"/>
</g>
<!-- j1234753323&#45;&gt;Chat ends. -->
<g id="edge28" class="edge">
<title>j1234753323&#45;&gt;Chat ends.</title>
<path fill="none" stroke="black" d="M4933.85,-1745.81C4930.29,-1724.9 4925,-1688.48 4925,-1657 4925,-1657 4925,-1657 4925,-90 4925,-57.74 4711.22,-33.97 4603.93,-24.07"/>
<polygon fill="black" stroke="black" points="4604.42,-20.61 4594.15,-23.19 4603.79,-27.58 4604.42,-20.61"/>
</g>
<!-- j2547951510&#45;&gt;j2299953977 -->
<g id="edge29" class="edge">
<title>j2547951510&#45;&gt;j2299953977</title>
<path fill="none" stroke="black" d="M3975.26,-1572.3C3936.43,-1569.84 3894.66,-1567.27 3856,-1565 3555.79,-1547.39 3477.38,-1552.19 3175.3,-1528.24"/>
<polygon fill="black" stroke="black" points="3175.75,-1524.77 3165.51,-1527.46 3175.2,-1531.75 3175.75,-1524.77"/>
</g>
<!-- j2547951510&#45;&gt;j1117466647 -->
<g id="edge30" class="edge">
<title>j2547951510&#45;&gt;j1117466647</title>
<path fill="none" stroke="black" d="M3975.06,-1565.44C3878.21,-1554.75 3752,-1540.81 3651.51,-1529.72"/>
<polygon fill="black" stroke="black" points="3652.15,-1526.27 3641.83,-1528.65 3651.38,-1533.22 3652.15,-1526.27"/>
</g>
<!-- j2547951510&#45;&gt;j1196448616 -->
<g id="edge31" class="edge">
<title>j2547951510&#45;&gt;j1196448616</title>
<path fill="none" stroke="black" d="M4132.99,-1564.81C4136.68,-1556.88 4141.15,-1547.26 4145.28,-1538.36"/>
<polygon fill="black" stroke="black" points="4148.41,-1539.94 4149.45,-1529.4 4142.06,-1536.99 4148.41,-1539.94"/>
</g>
<!-- j2769621646 -->
<g id="node26" class="node">
<title>j2769621646</title>
<polygon fill="none" stroke="blue" points="3221,-1455 2841,-1455 2841,-1419 3221,-1419 3221,-1455"/>
<text text-anchor="middle" x="3031" y="-1433.3" font-family="Times New Roman,serif" font-size="14.00">а я скажу, шо ти просто не докладаєш достатніх зусиль. ХА</text>
</g>
<!-- j2299953977&#45;&gt;j2769621646 -->
<g id="edge32" class="edge">
<title>j2299953977&#45;&gt;j2769621646</title>
<path fill="none" stroke="black" d="M3016.6,-1491.81C3018.68,-1484.05 3021.18,-1474.68 3023.52,-1465.95"/>
<polygon fill="black" stroke="black" points="3026.85,-1467.06 3026.05,-1456.49 3020.09,-1465.25 3026.85,-1467.06"/>
</g>
<!-- j4277721901 -->
<g id="node27" class="node">
<title>j4277721901</title>
<polygon fill="none" stroke="blue" points="3685,-1455 3251,-1455 3251,-1419 3685,-1419 3685,-1455"/>
<text text-anchor="middle" x="3468" y="-1433.3" font-family="Times New Roman,serif" font-size="14.00">САМЕ ТАК. ти розумієш. вони просто недостатньо стараються хаха</text>
</g>
<!-- j1117466647&#45;&gt;j4277721901 -->
<g id="edge33" class="edge">
<title>j1117466647&#45;&gt;j4277721901</title>
<path fill="none" stroke="black" d="M3478.61,-1491.81C3477.1,-1484.14 3475.27,-1474.89 3473.57,-1466.24"/>
<polygon fill="black" stroke="black" points="3477.02,-1465.65 3471.65,-1456.51 3470.15,-1467 3477.02,-1465.65"/>
</g>
<!-- j3162775379 -->
<g id="node28" class="node">
<title>j3162775379</title>
<polygon fill="none" stroke="blue" points="3365,-1382 3221,-1382 3221,-1346 3365,-1346 3365,-1382"/>
<text text-anchor="middle" x="3293" y="-1360.3" font-family="Times New Roman,serif" font-size="14.00">та ти шо? розповідай</text>
</g>
<!-- j1196448616&#45;&gt;j3162775379 -->
<g id="edge34" class="edge">
<title>j1196448616&#45;&gt;j3162775379</title>
<path fill="none" stroke="black" d="M4075.7,-1491.55C3983.14,-1472.26 3828.21,-1441.03 3694,-1419 3584.6,-1401.04 3457.68,-1384.7 3376.42,-1374.81"/>
<polygon fill="black" stroke="black" points="3377.11,-1371.37 3366.77,-1373.64 3376.27,-1378.32 3377.11,-1371.37"/>
</g>
<!-- j925236759&#45;&gt;j2547951510 -->
<g id="edge35" class="edge">
<title>j925236759&#45;&gt;j2547951510</title>
<path fill="none" stroke="black" d="M4612.42,-1642.96C4521.61,-1631.97 4385.96,-1615.56 4280.81,-1602.85"/>
<polygon fill="black" stroke="black" points="4281.29,-1599.38 4270.94,-1601.65 4280.45,-1606.33 4281.29,-1599.38"/>
</g>
<!-- j556423148 -->
<g id="node29" class="node">
<title>j556423148</title>
<polygon fill="none" stroke="blue" points="3197.5,-1382 2886.5,-1382 2886.5,-1346 3197.5,-1346 3197.5,-1382"/>
<text text-anchor="middle" x="3042" y="-1360.3" font-family="Times New Roman,serif" font-size="14.00">а в нього є сім’я? люди поруч, які підтримують?</text>
</g>
<!-- j2769621646&#45;&gt;j556423148 -->
<g id="edge36" class="edge">
<title>j2769621646&#45;&gt;j556423148</title>
<path fill="none" stroke="black" d="M3033.66,-1418.81C3034.85,-1411.14 3036.28,-1401.89 3037.62,-1393.24"/>
<polygon fill="black" stroke="black" points="3041.06,-1393.94 3039.13,-1383.52 3034.14,-1392.87 3041.06,-1393.94"/>
</g>
<!-- j4277721901&#45;&gt;j556423148 -->
<g id="edge37" class="edge">
<title>j4277721901&#45;&gt;j556423148</title>
<path fill="none" stroke="black" d="M3363.24,-1418.54C3300.95,-1408.16 3221.83,-1394.97 3157.69,-1384.28"/>
<polygon fill="black" stroke="black" points="3158.65,-1380.89 3148.21,-1382.7 3157.5,-1387.8 3158.65,-1380.89"/>
</g>
<!-- j2383869542 -->
<g id="node30" class="node">
<title>j2383869542</title>
<polygon fill="none" stroke="red" points="3710,-1309 2876,-1309 2876,-1273 3710,-1273 3710,-1309"/>
<text text-anchor="middle" x="3293" y="-1287.3" font-family="Times New Roman,serif" font-size="14.00">Є одна пані, Вала Ґларіос. Початково була його підлеглою. Але ледь не загинула з усіма зорельотами, вибухами й проявами непокори.</text>
</g>
<!-- j3162775379&#45;&gt;j2383869542 -->
<g id="edge38" class="edge">
<title>j3162775379&#45;&gt;j2383869542</title>
<path fill="none" stroke="black" d="M3293,-1345.81C3293,-1338.23 3293,-1329.1 3293,-1320.54"/>
<polygon fill="black" stroke="black" points="3296.5,-1320.54 3293,-1310.54 3289.5,-1320.54 3296.5,-1320.54"/>
</g>
<!-- j2770717167 -->
<g id="node31" class="node">
<title>j2770717167</title>
<polygon fill="none" stroke="red" points="2857.5,-1309 2030.5,-1309 2030.5,-1273 2857.5,-1273 2857.5,-1309"/>
<text text-anchor="middle" x="2444" y="-1287.3" font-family="Times New Roman,serif" font-size="14.00">У нього є так зване сестринство, яке він тренує й тримає поруч себе. Можу сказати, що він навіть пишається ними. Вважає їх сім’єю.</text>
</g>
<!-- j3162775379&#45;&gt;j2770717167 -->
<g id="edge39" class="edge">
<title>j3162775379&#45;&gt;j2770717167</title>
<path fill="none" stroke="black" d="M3220.95,-1348.22C3215.9,-1347.4 3210.88,-1346.65 3206,-1346 3084.56,-1329.89 2951.56,-1318.38 2831.14,-1310.24"/>
<polygon fill="black" stroke="black" points="2831.62,-1306.77 2821.41,-1309.59 2831.16,-1313.75 2831.62,-1306.77"/>
</g>
<!-- j556423148&#45;&gt;j2383869542 -->
<g id="edge40" class="edge">
<title>j556423148&#45;&gt;j2383869542</title>
<path fill="none" stroke="black" d="M3103.72,-1345.54C3139.13,-1335.53 3183.76,-1322.9 3220.79,-1312.43"/>
<polygon fill="black" stroke="black" points="3221.39,-1315.89 3230.06,-1309.8 3219.48,-1309.16 3221.39,-1315.89"/>
</g>
<!-- j556423148&#45;&gt;j2770717167 -->
<g id="edge41" class="edge">
<title>j556423148&#45;&gt;j2770717167</title>
<path fill="none" stroke="black" d="M2894.95,-1345.54C2806.23,-1335.01 2693.19,-1321.59 2602.49,-1310.82"/>
<polygon fill="black" stroke="black" points="2603.11,-1307.37 2592.77,-1309.66 2602.28,-1314.32 2603.11,-1307.37"/>
</g>
<!-- j2046517735 -->
<g id="node32" class="node">
<title>j2046517735</title>
<polygon fill="none" stroke="red" points="3772.5,-1236 2813.5,-1236 2813.5,-1200 3772.5,-1200 3772.5,-1236"/>
<text text-anchor="middle" x="3293" y="-1214.3" font-family="Times New Roman,serif" font-size="14.00">Він відчинив їй прохід у Порожнечу, де… не важливо, це інша й довга історія. Тож він урятував їй життя. Думаю, що він щиро цінує її. Вважає її сестрою.</text>
</g>
<!-- j2383869542&#45;&gt;j2046517735 -->
<g id="edge42" class="edge">
<title>j2383869542&#45;&gt;j2046517735</title>
<path fill="none" stroke="black" d="M3293,-1272.81C3293,-1265.23 3293,-1256.1 3293,-1247.54"/>
<polygon fill="black" stroke="black" points="3296.5,-1247.54 3293,-1237.54 3289.5,-1247.54 3296.5,-1247.54"/>
</g>
<!-- j199272678 -->
<g id="node33" class="node">
<title>j199272678</title>
<polygon fill="none" stroke="red" points="1735,-1182 1167,-1182 1167,-1146 1735,-1146 1735,-1182"/>
<text text-anchor="middle" x="1451" y="-1160.3" font-family="Times New Roman,serif" font-size="14.00">Щось трохи на секту чи культ схоже, якщо чесно. Але що поробиш? Так працюють гроші.</text>
</g>
<!-- j2770717167&#45;&gt;j199272678 -->
<g id="edge43" class="edge">
<title>j2770717167&#45;&gt;j199272678</title>
<path fill="none" stroke="black" d="M2305.14,-1272.52C2119.56,-1249.16 1791.94,-1207.92 1600.91,-1183.87"/>
<polygon fill="black" stroke="black" points="1601.52,-1180.42 1591.16,-1182.64 1600.64,-1187.36 1601.52,-1180.42"/>
</g>
<!-- j4041023655 -->
<g id="node34" class="node">
<title>j4041023655</title>
<polygon fill="none" stroke="red" points="3458,-1128 3128,-1128 3128,-1092 3458,-1092 3458,-1128"/>
<text text-anchor="middle" x="3293" y="-1106.3" font-family="Times New Roman,serif" font-size="14.00">Думаю, що вона натомість вважає його ріднею теж.</text>
</g>
<!-- j2046517735&#45;&gt;j4041023655 -->
<g id="edge44" class="edge">
<title>j2046517735&#45;&gt;j4041023655</title>
<path fill="none" stroke="black" d="M3293,-1199.97C3293,-1183.76 3293,-1159.06 3293,-1139.79"/>
<polygon fill="black" stroke="black" points="3296.5,-1139.85 3293,-1129.85 3289.5,-1139.85 3296.5,-1139.85"/>
</g>
<!-- j4046821784 -->
<g id="node35" class="node">
<title>j4046821784</title>
<polygon fill="none" stroke="blue" points="1140.5,-982 567.5,-982 567.5,-946 1140.5,-946 1140.5,-982"/>
<text text-anchor="middle" x="854" y="-960.3" font-family="Times New Roman,serif" font-size="14.00">гроші купують відданість, допоки вони в тебе є. і нема жодного культу старішого за золото</text>
</g>
<!-- j199272678&#45;&gt;j4046821784 -->
<g id="edge45" class="edge">
<title>j199272678&#45;&gt;j4046821784</title>
<path fill="none" stroke="black" d="M1398.28,-1145.52C1288.44,-1109.09 1035.49,-1025.19 917.17,-985.95"/>
<polygon fill="black" stroke="black" points="918.52,-982.71 907.93,-982.89 916.32,-989.36 918.52,-982.71"/>
</g>
<!-- j913794073 -->
<g id="node36" class="node">
<title>j913794073</title>
<polygon fill="none" stroke="blue" points="3587.5,-1055 2998.5,-1055 2998.5,-1019 3587.5,-1019 3587.5,-1055"/>
<text text-anchor="middle" x="3293" y="-1033.3" font-family="Times New Roman,serif" font-size="14.00">ніхто не буває чистим злом чи добром, знаєш? схоже, що цей тип знає, хто його зграя, січеш?</text>
</g>
<!-- j4041023655&#45;&gt;j913794073 -->
<g id="edge46" class="edge">
<title>j4041023655&#45;&gt;j913794073</title>
<path fill="none" stroke="black" d="M3293,-1091.81C3293,-1084.23 3293,-1075.1 3293,-1066.54"/>
<polygon fill="black" stroke="black" points="3296.5,-1066.54 3293,-1056.54 3289.5,-1066.54 3296.5,-1066.54"/>
</g>
<!-- j1034487901 -->
<g id="node37" class="node">
<title>j1034487901</title>
<polygon fill="none" stroke="red" points="662,-909 0,-909 0,-873 662,-873 662,-909"/>
<text text-anchor="middle" x="331" y="-887.3" font-family="Times New Roman,serif" font-size="14.00">Мені дуже не подобається, коли ти говориш як він. У житті є набагато більше всякого, аніж просто гроші.</text>
</g>
<!-- j4046821784&#45;&gt;j1034487901 -->
<g id="edge47" class="edge">
<title>j4046821784&#45;&gt;j1034487901</title>
<path fill="none" stroke="black" d="M725.39,-945.54C648.12,-935.05 549.76,-921.7 470.6,-910.95"/>
<polygon fill="black" stroke="black" points="471.45,-907.53 461.07,-909.66 470.5,-914.47 471.45,-907.53"/>
</g>
<!-- j2083758235 -->
<g id="node38" class="node">
<title>j2083758235</title>
<polygon fill="none" stroke="red" points="1028,-909 680,-909 680,-873 1028,-873 1028,-909"/>
<text text-anchor="middle" x="854" y="-887.3" font-family="Times New Roman,serif" font-size="14.00">Ви точно би знайшли спільну мову. Аж занадто схожі.</text>
</g>
<!-- j4046821784&#45;&gt;j2083758235 -->
<g id="edge48" class="edge">
<title>j4046821784&#45;&gt;j2083758235</title>
<path fill="none" stroke="black" d="M854,-945.81C854,-938.23 854,-929.1 854,-920.54"/>
<polygon fill="black" stroke="black" points="857.5,-920.54 854,-910.54 850.5,-920.54 857.5,-920.54"/>
</g>
<!-- j3332132021 -->
<g id="node39" class="node">
<title>j3332132021</title>
<polygon fill="none" stroke="blue" points="3558,-982 3028,-982 3028,-946 3558,-946 3558,-982"/>
<text text-anchor="middle" x="3293" y="-960.3" font-family="Times New Roman,serif" font-size="14.00">у нього є ресурси подбати про тих, що йому небайдужі. і люди довкола визнають це</text>
</g>
<!-- j913794073&#45;&gt;j3332132021 -->
<g id="edge49" class="edge">
<title>j913794073&#45;&gt;j3332132021</title>
<path fill="none" stroke="black" d="M3293,-1018.81C3293,-1011.23 3293,-1002.1 3293,-993.54"/>
<polygon fill="black" stroke="black" points="3296.5,-993.54 3293,-983.54 3289.5,-993.54 3296.5,-993.54"/>
</g>
<!-- j700623310 -->
<g id="node40" class="node">
<title>j700623310</title>
<polygon fill="none" stroke="blue" points="2166,-836 1266,-836 1266,-800 2166,-800 2166,-836"/>
<text text-anchor="middle" x="1716" y="-814.3" font-family="Times New Roman,serif" font-size="14.00">я не кажу шо вилупок герой, ні&#45;ні. у цьому світі нема героїв. він просто має ТЕ, що робить його ЩАСЛИВИМ і дбає про тих, що йому небайдужі</text>
</g>
<!-- j1034487901&#45;&gt;j700623310 -->
<g id="edge50" class="edge">
<title>j1034487901&#45;&gt;j700623310</title>
<path fill="none" stroke="black" d="M662.3,-873.02C873.89,-862.17 1147.94,-848.12 1363.52,-837.07"/>
<polygon fill="black" stroke="black" points="1363.39,-840.58 1373.2,-836.57 1363.04,-833.59 1363.39,-840.58"/>
</g>
<!-- j2083758235&#45;&gt;j700623310 -->
<g id="edge51" class="edge">
<title>j2083758235&#45;&gt;j700623310</title>
<path fill="none" stroke="black" d="M1028.35,-873.75C1031.25,-873.5 1034.14,-873.25 1037,-873 1182.39,-860.47 1345.39,-847.47 1475.24,-837.37"/>
<polygon fill="black" stroke="black" points="1475.3,-840.87 1484.99,-836.61 1474.75,-833.89 1475.3,-840.87"/>
</g>
<!-- j3168943839 -->
<g id="node41" class="node">
<title>j3168943839</title>
<polygon fill="none" stroke="red" points="4516,-909 3792,-909 3792,-873 4516,-873 4516,-909"/>
<text text-anchor="middle" x="4154" y="-887.3" font-family="Times New Roman,serif" font-size="14.00">Він робить те, що робить, прагнучи вціліти. Це я поважаю. Хоча це зазвичай і означає, що ми по різні боки барикад.</text>
</g>
<!-- j3332132021&#45;&gt;j3168943839 -->
<g id="edge52" class="edge">
<title>j3332132021&#45;&gt;j3168943839</title>
<path fill="none" stroke="black" d="M3505,-945.52C3634.31,-934.86 3799.4,-921.24 3930.71,-910.41"/>
<polygon fill="black" stroke="black" points="3930.92,-913.91 3940.6,-909.6 3930.34,-906.93 3930.92,-913.91"/>
</g>
<!-- j3339499357 -->
<g id="node42" class="node">
<title>j3339499357</title>
<polygon fill="none" stroke="red" points="1755.5,-909 1046.5,-909 1046.5,-873 1755.5,-873 1755.5,-909"/>
<text text-anchor="middle" x="1401" y="-887.3" font-family="Times New Roman,serif" font-size="14.00">Люди довкола нього рівно настільки, допоки мають цінність. Щойно стануть тягарем, то їх миттєво позбудуться.</text>
</g>
<!-- j3332132021&#45;&gt;j3339499357 -->
<g id="edge53" class="edge">
<title>j3332132021&#45;&gt;j3339499357</title>
<path fill="none" stroke="black" d="M3027.62,-954.53C2725.35,-944.68 2216.29,-927.45 1767.22,-909.09"/>
<polygon fill="black" stroke="black" points="1767.6,-905.6 1757.46,-908.69 1767.31,-912.6 1767.6,-905.6"/>
</g>
<!-- j2701816242 -->
<g id="node43" class="node">
<title>j2701816242</title>
<polygon fill="none" stroke="red" points="2798,-909 1774,-909 1774,-873 2798,-873 2798,-909"/>
<text text-anchor="middle" x="2286" y="-887.3" font-family="Times New Roman,serif" font-size="14.00">Це не означає, що він не горлоріз та мудило. Я не вірю йому аж на стільки, наскільки може летіти куля. А його люди завжди намагаються заступити шлях моїй зброї.</text>
</g>
<!-- j3332132021&#45;&gt;j2701816242 -->
<g id="edge54" class="edge">
<title>j3332132021&#45;&gt;j2701816242</title>
<path fill="none" stroke="black" d="M3045.05,-945.52C2893.21,-934.81 2699.18,-921.13 2545.3,-910.28"/>
<polygon fill="black" stroke="black" points="2545.56,-906.79 2535.34,-909.58 2545.07,-913.77 2545.56,-906.79"/>
</g>
<!-- j2395067517 -->
<g id="node44" class="node">
<title>j2395067517</title>
<polygon fill="none" stroke="red" points="3774,-909 2816,-909 2816,-873 3774,-873 3774,-909"/>
<text text-anchor="middle" x="3295" y="-887.3" font-family="Times New Roman,serif" font-size="14.00">Я дуже не погоджуюся з його прагненням видобути зі світу все. Мені більше імпонує допомогти людям в потребі, аніж зосереджуватися на чистій жадобі.</text>
</g>
<!-- j3332132021&#45;&gt;j2395067517 -->
<g id="edge55" class="edge">
<title>j3332132021&#45;&gt;j2395067517</title>
<path fill="none" stroke="black" d="M3293.48,-945.81C3293.7,-938.14 3293.96,-928.89 3294.2,-920.24"/>
<polygon fill="black" stroke="black" points="3297.69,-920.64 3294.48,-910.54 3290.7,-920.44 3297.69,-920.64"/>
</g>
<!-- j3916211934 -->
<g id="node45" class="node">
<title>j3916211934</title>
<polygon fill="none" stroke="blue" points="3869,-690 3135,-690 3135,-654 3869,-654 3869,-690"/>
<text text-anchor="middle" x="3502" y="-668.3" font-family="Times New Roman,serif" font-size="14.00">для мене це ж довбана мрія. налагодити життя для дружань та рідні. ніхто не обділений. але для цього треба СТАТКИ</text>
</g>
<!-- j700623310&#45;&gt;j3916211934 -->
<g id="edge56" class="edge">
<title>j700623310&#45;&gt;j3916211934</title>
<path fill="none" stroke="black" d="M1932.77,-799.52C2272.44,-772.14 2927.04,-719.36 3273.69,-691.41"/>
<polygon fill="black" stroke="black" points="3273.93,-694.9 3283.62,-690.61 3273.37,-687.92 3273.93,-694.9"/>
</g>
<!-- j912344251 -->
<g id="node46" class="node">
<title>j912344251</title>
<ellipse fill="none" stroke="orange" cx="3979" cy="-818" rx="64.19" ry="18"/>
<text text-anchor="middle" x="3979" y="-814.3" font-family="Times New Roman,serif" font-size="14.00">+10 Chemistry</text>
</g>
<!-- j3168943839&#45;&gt;j912344251 -->
<g id="edge57" class="edge">
<title>j3168943839&#45;&gt;j912344251</title>
<path fill="none" stroke="black" d="M4111.19,-872.63C4085.13,-862.06 4051.85,-848.55 4025.19,-837.74"/>
<polygon fill="black" stroke="black" points="4026.58,-834.53 4016,-834.01 4023.95,-841.01 4026.58,-834.53"/>
</g>
<!-- j3339499357&#45;&gt;j700623310 -->
<g id="edge58" class="edge">
<title>j3339499357&#45;&gt;j700623310</title>
<path fill="none" stroke="black" d="M1478.46,-872.54C1523.57,-862.37 1580.62,-849.51 1627.5,-838.95"/>
<polygon fill="black" stroke="black" points="1628.1,-842.4 1637.09,-836.79 1626.56,-835.57 1628.1,-842.4"/>
</g>
<!-- j2701816242&#45;&gt;j700623310 -->
<g id="edge59" class="edge">
<title>j2701816242&#45;&gt;j700623310</title>
<path fill="none" stroke="black" d="M2145.83,-872.54C2061.36,-862.02 1953.76,-848.62 1867.36,-837.85"/>
<polygon fill="black" stroke="black" points="1867.98,-834.4 1857.62,-836.64 1867.11,-841.35 1867.98,-834.4"/>
</g>
<!-- j2395067517&#45;&gt;j700623310 -->
<g id="edge60" class="edge">
<title>j2395067517&#45;&gt;j700623310</title>
<path fill="none" stroke="black" d="M2905.95,-872.51C2665.94,-861.71 2358.77,-847.9 2116.64,-837.02"/>
<polygon fill="black" stroke="black" points="2116.82,-833.52 2106.68,-836.57 2116.51,-840.51 2116.82,-833.52"/>
</g>
<!-- j1790056516 -->
<g id="node47" class="node">
<title>j1790056516</title>
<polygon fill="none" stroke="red" points="3911.5,-617 3676.5,-617 3676.5,-581 3911.5,-581 3911.5,-617"/>
<text text-anchor="middle" x="3794" y="-595.3" font-family="Times New Roman,serif" font-size="14.00">То ти хочеш розбагатіти для інших?</text>
</g>
<!-- j3916211934&#45;&gt;j1790056516 -->
<g id="edge61" class="edge">
<title>j3916211934&#45;&gt;j1790056516</title>
<path fill="none" stroke="black" d="M3573.81,-653.54C3615.36,-643.44 3667.83,-630.68 3711.13,-620.15"/>
<polygon fill="black" stroke="black" points="3711.86,-623.57 3720.75,-617.81 3710.2,-616.77 3711.86,-623.57"/>
</g>
<!-- j251340532 -->
<g id="node48" class="node">
<title>j251340532</title>
<polygon fill="none" stroke="red" points="3615,-617 3389,-617 3389,-581 3615,-581 3615,-617"/>
<text text-anchor="middle" x="3502" y="-595.3" font-family="Times New Roman,serif" font-size="14.00">То ти хочеш розбагатіти для себе?</text>
</g>
<!-- j3916211934&#45;&gt;j251340532 -->
<g id="edge62" class="edge">
<title>j3916211934&#45;&gt;j251340532</title>
<path fill="none" stroke="black" d="M3502,-653.81C3502,-646.23 3502,-637.1 3502,-628.54"/>
<polygon fill="black" stroke="black" points="3505.5,-628.54 3502,-618.54 3498.5,-628.54 3505.5,-628.54"/>
</g>
<!-- j1339008188 -->
<g id="node49" class="node">
<title>j1339008188</title>
<polygon fill="none" stroke="red" points="3337,-617 2975,-617 2975,-581 3337,-581 3337,-617"/>
<text text-anchor="middle" x="3156" y="-595.3" font-family="Times New Roman,serif" font-size="14.00">Урешті&#45;решт усе зводиться до звичайної чистої жадоби.</text>
</g>
<!-- j3916211934&#45;&gt;j1339008188 -->
<g id="edge63" class="edge">
<title>j3916211934&#45;&gt;j1339008188</title>
<path fill="none" stroke="black" d="M3416.92,-653.54C3367.05,-643.31 3303.91,-630.35 3252.24,-619.75"/>
<polygon fill="black" stroke="black" points="3253.04,-616.34 3242.54,-617.76 3251.63,-623.2 3253.04,-616.34"/>
</g>
<!-- j1113076614 -->
<g id="node50" class="node">
<title>j1113076614</title>
<polygon fill="none" stroke="blue" points="4368,-763 3472,-763 3472,-727 4368,-727 4368,-763"/>
<text text-anchor="middle" x="3920" y="-741.3" font-family="Times New Roman,serif" font-size="14.00">ось про це я й кажу. він не герой, у цьому світі нема героїв. він просто має ТЕ, що робить його ЩАСЛИВИМ і дбає про тих, що йому небайдужі</text>
</g>
<!-- j912344251&#45;&gt;j1113076614 -->
<g id="edge64" class="edge">
<title>j912344251&#45;&gt;j1113076614</title>
<path fill="none" stroke="black" d="M3965.02,-800.17C3958.05,-791.78 3949.46,-781.45 3941.66,-772.06"/>
<polygon fill="black" stroke="black" points="3944.55,-770.06 3935.47,-764.61 3939.16,-774.54 3944.55,-770.06"/>
</g>
<!-- j1050335774 -->
<g id="node51" class="node">
<title>j1050335774</title>
<ellipse fill="none" stroke="orange" cx="3920" cy="-526" rx="64.19" ry="18"/>
<text text-anchor="middle" x="3920" y="-522.3" font-family="Times New Roman,serif" font-size="14.00">+10 Chemistry</text>
</g>
<!-- j1790056516&#45;&gt;j1050335774 -->
<g id="edge65" class="edge">
<title>j1790056516&#45;&gt;j1050335774</title>
<path fill="none" stroke="black" d="M3824.82,-580.63C3842.28,-570.79 3864.25,-558.42 3882.67,-548.03"/>
<polygon fill="black" stroke="black" points="3884.18,-551.2 3891.18,-543.24 3880.75,-545.1 3884.18,-551.2"/>
</g>
<!-- j2957683190 -->
<g id="node52" class="node">
<title>j2957683190</title>
<polygon fill="none" stroke="blue" points="4073.5,-490 2930.5,-490 2930.5,-454 4073.5,-454 4073.5,-490"/>
<text text-anchor="middle" x="3502" y="-468.3" font-family="Times New Roman,serif" font-size="14.00">ти не розумієш. якшо я стану багатієм, то я допомагатиму іншим. юна локслі все не так робила. не треба допомагати бідним у бідності. треба зробити бідних багатими і ось у цьому сила</text>
</g>
<!-- j251340532&#45;&gt;j2957683190 -->
<g id="edge66" class="edge">
<title>j251340532&#45;&gt;j2957683190</title>
<path fill="none" stroke="black" d="M3502,-580.62C3502,-560.19 3502,-525.99 3502,-501.62"/>
<polygon fill="black" stroke="black" points="3505.5,-501.75 3502,-491.75 3498.5,-501.75 3505.5,-501.75"/>
</g>
<!-- j1658470727 -->
<g id="node53" class="node">
<title>j1658470727</title>
<polygon fill="none" stroke="blue" points="3244.5,-544 2723.5,-544 2723.5,-508 3244.5,-508 3244.5,-544"/>
<text text-anchor="middle" x="2984" y="-522.3" font-family="Times New Roman,serif" font-size="14.00">ти не розумієш. абсолютно ніц. гроші — сила, а цією силою ти можеш змінити світ</text>
</g>
<!-- j1339008188&#45;&gt;j1658470727 -->
<g id="edge67" class="edge">
<title>j1339008188&#45;&gt;j1658470727</title>
<path fill="none" stroke="black" d="M3113.92,-580.63C3090.6,-571 3061.39,-558.95 3036.57,-548.7"/>
<polygon fill="black" stroke="black" points="3038.22,-545.59 3027.64,-545.01 3035.54,-552.06 3038.22,-545.59"/>
</g>
<!-- j1113076614&#45;&gt;j3916211934 -->
<g id="edge68" class="edge">
<title>j1113076614&#45;&gt;j3916211934</title>
<path fill="none" stroke="black" d="M3817.21,-726.54C3756.21,-716.18 3678.77,-703.03 3615.91,-692.35"/>
<polygon fill="black" stroke="black" points="3616.69,-688.93 3606.25,-690.71 3615.52,-695.83 3616.69,-688.93"/>
</g>
<!-- j1698210051 -->
<g id="node54" class="node">
<title>j1698210051</title>
<polygon fill="none" stroke="blue" points="4516,-436 3530,-436 3530,-400 4516,-400 4516,-436"/>
<text text-anchor="middle" x="4023" y="-414.3" font-family="Times New Roman,serif" font-size="14.00">саме так! ось де справжня сила. щойно отримаєш, то можеш влаштувати життя для інших. змінити світ для когось. а до того? ти просто чергова халепа, січеш?</text>
</g>
<!-- j1050335774&#45;&gt;j1698210051 -->
<g id="edge69" class="edge">
<title>j1050335774&#45;&gt;j1698210051</title>
<path fill="none" stroke="black" d="M3980.03,-519.13C4018.36,-514.01 4063.03,-504.98 4075,-490 4084.99,-477.5 4082.52,-468.12 4075,-454 4073.02,-450.27 4070.44,-446.87 4067.5,-443.79"/>
<polygon fill="black" stroke="black" points="4069.97,-441.3 4060.14,-437.33 4065.35,-446.56 4069.97,-441.3"/>
</g>
<!-- j3924166914 -->
<g id="node55" class="node">
<title>j3924166914</title>
<polygon fill="none" stroke="blue" points="3712,-328 3566,-328 3566,-292 3712,-292 3712,-328"/>
<text text-anchor="middle" x="3639" y="-306.3" font-family="Times New Roman,serif" font-size="14.00">менше з тим, маюйти</text>
</g>
<!-- j2957683190&#45;&gt;j3924166914 -->
<g id="edge70" class="edge">
<title>j2957683190&#45;&gt;j3924166914</title>
<path fill="none" stroke="black" d="M3503.45,-453.63C3505.43,-438.39 3510.09,-416.19 3521,-400 3539.67,-372.29 3569.88,-349.75 3595.06,-334.28"/>
<polygon fill="black" stroke="black" points="3596.67,-337.39 3603.48,-329.27 3593.09,-331.37 3596.67,-337.39"/>
</g>
<!-- j3505069117 -->
<g id="node56" class="node">
<title>j3505069117</title>
<polygon fill="none" stroke="blue" points="3257,-382 3035,-382 3035,-346 3257,-346 3257,-382"/>
<text text-anchor="middle" x="3146" y="-360.3" font-family="Times New Roman,serif" font-size="14.00">якхош, не сперечатимуся з тобою</text>
</g>
<!-- j1658470727&#45;&gt;j3505069117 -->
<g id="edge71" class="edge">
<title>j1658470727&#45;&gt;j3505069117</title>
<path fill="none" stroke="black" d="M2945.4,-507.62C2938.82,-502.87 2932.87,-497.04 2929,-490 2921.3,-475.97 2920.09,-467.29 2929,-454 2951.86,-419.92 2990.35,-398.88 3028.62,-385.89"/>
<polygon fill="black" stroke="black" points="3029.5,-389.29 3037.95,-382.9 3027.36,-382.62 3029.5,-389.29"/>
</g>
<!-- j1698210051&#45;&gt;j3924166914 -->
<g id="edge72" class="edge">
<title>j1698210051&#45;&gt;j3924166914</title>
<path fill="none" stroke="black" d="M3960.02,-399.61C3892.32,-380.93 3784.8,-351.25 3713.08,-331.45"/>
<polygon fill="black" stroke="black" points="3714.36,-328.17 3703.79,-328.89 3712.5,-334.92 3714.36,-328.17"/>
</g>
<!-- j2774823371 -->
<g id="node57" class="node">
<title>j2774823371</title>
<polygon fill="none" stroke="blue" points="3785.5,-255 3492.5,-255 3492.5,-219 3785.5,-219 3785.5,-255"/>
<text text-anchor="middle" x="3639" y="-233.3" font-family="Times New Roman,serif" font-size="14.00">хотілося би зустрітися з цим типом. з парвом</text>
</g>
<!-- j3924166914&#45;&gt;j2774823371 -->
<g id="edge73" class="edge">
<title>j3924166914&#45;&gt;j2774823371</title>
<path fill="none" stroke="black" d="M3639,-291.81C3639,-284.23 3639,-275.1 3639,-266.54"/>
<polygon fill="black" stroke="black" points="3642.5,-266.54 3639,-256.54 3635.5,-266.54 3642.5,-266.54"/>
</g>
<!-- j3505069117&#45;&gt;j2774823371 -->
<g id="edge74" class="edge">
<title>j3505069117&#45;&gt;j2774823371</title>
<path fill="none" stroke="black" d="M3214.81,-345.55C3305.23,-322.63 3463.73,-282.44 3559.27,-258.21"/>
<polygon fill="black" stroke="black" points="3560.02,-261.64 3568.85,-255.79 3558.3,-254.85 3560.02,-261.64"/>
</g>
<!-- j1443928500 -->
<g id="node58" class="node">
<title>j1443928500</title>
<polygon fill="none" stroke="blue" points="4398,-182 3864,-182 3864,-146 4398,-146 4398,-182"/>
<text text-anchor="middle" x="4131" y="-160.3" font-family="Times New Roman,serif" font-size="14.00">наче цікавий. хоча й наче мудло. але всі великі корпорати в кінцікінців стають такими</text>
</g>
<!-- j2774823371&#45;&gt;j1443928500 -->
<g id="edge75" class="edge">
<title>j2774823371&#45;&gt;j1443928500</title>
<path fill="none" stroke="black" d="M3759.99,-218.54C3832.38,-208.09 3924.45,-194.81 3998.76,-184.08"/>
<polygon fill="black" stroke="black" points="3999.16,-187.56 4008.56,-182.67 3998.16,-180.63 3999.16,-187.56"/>
</g>
<!-- j4281236576 -->
<g id="node59" class="node">
<title>j4281236576</title>
<polygon fill="none" stroke="blue" points="4475,-109 4273,-109 4273,-73 4475,-73 4475,-109"/>
<text text-anchor="middle" x="4374" y="-87.3" font-family="Times New Roman,serif" font-size="14.00">бо лише так можна йти вперед</text>
</g>
<!-- j1443928500&#45;&gt;j4281236576 -->
<g id="edge76" class="edge">
<title>j1443928500&#45;&gt;j4281236576</title>
<path fill="none" stroke="black" d="M4190.76,-145.54C4224.89,-135.57 4267.87,-123.01 4303.63,-112.56"/>
<polygon fill="black" stroke="black" points="4304.41,-115.98 4313.02,-109.82 4302.44,-109.26 4304.41,-115.98"/>
</g>
<!-- j4281236576&#45;&gt;Chat ends. -->
<g id="edge77" class="edge">
<title>j4281236576&#45;&gt;Chat ends.</title>
<path fill="none" stroke="black" d="M4415.59,-72.63C4441.76,-61.7 4475.45,-47.63 4501.75,-36.64"/>
<polygon fill="black" stroke="black" points="4502.89,-39.96 4510.77,-32.88 4500.19,-33.5 4502.89,-39.96"/>
</g>
</g>
</svg>
