<?xml version="1.0" encoding="UTF-8" standalone="no"?>
<!DOCTYPE svg PUBLIC "-//W3C//DTD SVG 1.1//EN"
 "http://www.w3.org/Graphics/SVG/1.1/DTD/svg11.dtd">
<!-- Generated by graphviz version 7.1.0 (20230121.1956)
 -->
<!-- Pages: 1 -->
<svg width="2953pt" height="1775pt"
 viewBox="0.00 0.00 2952.50 1775.00" xmlns="http://www.w3.org/2000/svg" xmlns:xlink="http://www.w3.org/1999/xlink">
<g id="graph0" class="graph" transform="scale(1 1) rotate(0) translate(4 1771)">
<polygon fill="white" stroke="none" points="-4,4 -4,-1771 2948.5,-1771 2948.5,4 -4,4"/>
<!-- LettieRank2Convo5 begins. -->
<g id="node1" class="node">
<title>LettieRank2Convo5 begins.</title>
<ellipse fill="none" stroke="orange" cx="379" cy="-1749" rx="111.58" ry="18"/>
<text text-anchor="middle" x="379" y="-1745.3" font-family="Times New Roman,serif" font-size="14.00">LettieRank2Convo5 begins.</text>
</g>
<!-- j36805603 -->
<g id="node2" class="node">
<title>j36805603</title>
<polygon fill="none" stroke="red" points="914.5,-1694 663.5,-1694 663.5,-1658 914.5,-1658 914.5,-1694"/>
<text text-anchor="middle" x="789" y="-1672.3" font-family="Times New Roman,serif" font-size="14.00">Also ... was ist dein Problem mit Eleanor?</text>
</g>
<!-- LettieRank2Convo5 begins.&#45;&gt;j36805603 -->
<g id="edge1" class="edge">
<title>LettieRank2Convo5 begins.&#45;&gt;j36805603</title>
<path fill="none" stroke="black" d="M453.25,-1735.14C515.68,-1724.33 605.87,-1708.71 677.06,-1696.39"/>
<polygon fill="black" stroke="black" points="677.56,-1699.85 686.82,-1694.69 676.37,-1692.95 677.56,-1699.85"/>
</g>
<!-- j2830773550 -->
<g id="node3" class="node">
<title>j2830773550</title>
<polygon fill="none" stroke="red" points="553.5,-1694 204.5,-1694 204.5,-1658 553.5,-1658 553.5,-1694"/>
<text text-anchor="middle" x="379" y="-1672.3" font-family="Times New Roman,serif" font-size="14.00">Ich denke, du solltest Eleanor etwas mehr Spielraum lassen.</text>
</g>
<!-- LettieRank2Convo5 begins.&#45;&gt;j2830773550 -->
<g id="edge2" class="edge">
<title>LettieRank2Convo5 begins.&#45;&gt;j2830773550</title>
<path fill="none" stroke="black" d="M379,-1730.81C379,-1723.23 379,-1714.1 379,-1705.54"/>
<polygon fill="black" stroke="black" points="382.5,-1705.54 379,-1695.54 375.5,-1705.54 382.5,-1705.54"/>
</g>
<!-- j4221938618 -->
<g id="node4" class="node">
<title>j4221938618</title>
<polygon fill="none" stroke="red" points="157,-1640 71,-1640 71,-1604 157,-1604 157,-1640"/>
<text text-anchor="middle" x="114" y="-1618.3" font-family="Times New Roman,serif" font-size="14.00">[Ignorieren.]</text>
</g>
<!-- LettieRank2Convo5 begins.&#45;&gt;j4221938618 -->
<g id="edge3" class="edge">
<title>LettieRank2Convo5 begins.&#45;&gt;j4221938618</title>
<path fill="none" stroke="black" d="M308.03,-1734.77C272.63,-1726.31 230.01,-1713.24 195,-1694 173.29,-1682.07 152.36,-1663.47 137.22,-1648.31"/>
<polygon fill="black" stroke="black" points="139.96,-1646.11 130.48,-1641.38 134.95,-1650.99 139.96,-1646.11"/>
</g>
<!-- j2692622336 -->
<g id="node5" class="node">
<title>j2692622336</title>
<polygon fill="none" stroke="blue" points="1080.5,-1515 677.5,-1515 677.5,-1447 1080.5,-1447 1080.5,-1515"/>
<text text-anchor="middle" x="879" y="-1499.8" font-family="Times New Roman,serif" font-size="14.00">Wir sind alle zu Monstern geworden&#13;</text>
<text text-anchor="middle" x="879" y="-1484.8" font-family="Times New Roman,serif" font-size="14.00">Aber diese bruja erfreut sich an dem, was aus uns geworden ist &#13;</text>
<text text-anchor="middle" x="879" y="-1469.8" font-family="Times New Roman,serif" font-size="14.00">Empfindet krankhafte Freude daran, in meinem Kopf herumzuspielen &#13;</text>
<text text-anchor="middle" x="879" y="-1454.8" font-family="Times New Roman,serif" font-size="14.00">Sieht zu viel und denkt, sie wüsste alles</text>
</g>
<!-- j36805603&#45;&gt;j2692622336 -->
<g id="edge4" class="edge">
<title>j36805603&#45;&gt;j2692622336</title>
<path fill="none" stroke="black" d="M797.15,-1657.53C810.92,-1628 839.2,-1567.35 858.63,-1525.68"/>
<polygon fill="black" stroke="black" points="861.79,-1527.18 862.85,-1516.64 855.45,-1524.22 861.79,-1527.18"/>
</g>
<!-- j2224365387 -->
<g id="node6" class="node">
<title>j2224365387</title>
<polygon fill="none" stroke="blue" points="524,-1586 234,-1586 234,-1533 524,-1533 524,-1586"/>
<text text-anchor="middle" x="379" y="-1570.8" font-family="Times New Roman,serif" font-size="14.00">¿Ay, sí?&#13;</text>
<text text-anchor="middle" x="379" y="-1555.8" font-family="Times New Roman,serif" font-size="14.00">Und warum sollte ich? &#13;</text>
<text text-anchor="middle" x="379" y="-1540.8" font-family="Times New Roman,serif" font-size="14.00">Hat die bruja dich geschickt, um mit mir zu reden</text>
</g>
<!-- j2830773550&#45;&gt;j2224365387 -->
<g id="edge5" class="edge">
<title>j2830773550&#45;&gt;j2224365387</title>
<path fill="none" stroke="black" d="M379,-1657.61C379,-1641.71 379,-1617.67 379,-1597.49"/>
<polygon fill="black" stroke="black" points="382.5,-1597.66 379,-1587.66 375.5,-1597.66 382.5,-1597.66"/>
</g>
<!-- Chat ends. -->
<g id="node7" class="node">
<title>Chat ends.</title>
<ellipse fill="none" stroke="orange" cx="238" cy="-18" rx="50.09" ry="18"/>
<text text-anchor="middle" x="238" y="-14.3" font-family="Times New Roman,serif" font-size="14.00">Chat ends.</text>
</g>
<!-- j4221938618&#45;&gt;Chat ends. -->
<g id="edge6" class="edge">
<title>j4221938618&#45;&gt;Chat ends.</title>
<path fill="none" stroke="black" d="M85.82,-1603.67C52.06,-1580.49 0,-1535.99 0,-1482 0,-1482 0,-1482 0,-98.5 0,-60.69 109.43,-37.6 179.88,-26.66"/>
<polygon fill="black" stroke="black" points="180.4,-30.12 189.77,-25.17 179.36,-23.2 180.4,-30.12"/>
</g>
<!-- j2752724218 -->
<g id="node8" class="node">
<title>j2752724218</title>
<polygon fill="none" stroke="blue" points="1057.5,-1348.5 778.5,-1348.5 778.5,-1295.5 1057.5,-1295.5 1057.5,-1348.5"/>
<text text-anchor="middle" x="918" y="-1333.3" font-family="Times New Roman,serif" font-size="14.00">Selbst wenn sie sich nie in Techrot verwandelt &#13;</text>
<text text-anchor="middle" x="918" y="-1318.3" font-family="Times New Roman,serif" font-size="14.00">Und so bleibt wie sie jetzt ist, ist mir das egal &#13;</text>
<text text-anchor="middle" x="918" y="-1303.3" font-family="Times New Roman,serif" font-size="14.00">Dieser Bruja macht der Scheiß viel zu viel Spaß</text>
</g>
<!-- j2692622336&#45;&gt;j2752724218 -->
<g id="edge7" class="edge">
<title>j2692622336&#45;&gt;j2752724218</title>
<path fill="none" stroke="black" d="M887.27,-1446.7C893.58,-1421.3 902.27,-1386.31 908.8,-1360.03"/>
<polygon fill="black" stroke="black" points="912.16,-1361.01 911.18,-1350.46 905.37,-1359.32 912.16,-1361.01"/>
</g>
<!-- j1038341485 -->
<g id="node9" class="node">
<title>j1038341485</title>
<polygon fill="none" stroke="red" points="760,-1340 454,-1340 454,-1304 760,-1304 760,-1340"/>
<text text-anchor="middle" x="607" y="-1318.3" font-family="Times New Roman,serif" font-size="14.00">Nein, hat sie nicht. Ich bin aus eigenem Antrieb hier.</text>
</g>
<!-- j2224365387&#45;&gt;j1038341485 -->
<g id="edge8" class="edge">
<title>j2224365387&#45;&gt;j1038341485</title>
<path fill="none" stroke="black" d="M435.62,-1532.55C478.02,-1510.48 534.59,-1475.05 570,-1429 587.6,-1406.1 597.22,-1374.2 602.21,-1351.39"/>
<polygon fill="black" stroke="black" points="605.58,-1352.36 604.11,-1341.87 598.72,-1350.99 605.58,-1352.36"/>
</g>
<!-- j1063473072 -->
<g id="node10" class="node">
<title>j1063473072</title>
<polygon fill="none" stroke="red" points="561,-1429 45,-1429 45,-1393 561,-1393 561,-1429"/>
<text text-anchor="middle" x="303" y="-1407.3" font-family="Times New Roman,serif" font-size="14.00">Es ist egal, ob sie es getan hat oder nicht, ich denke, du solltest es ruhiger angehen lassen.</text>
</g>
<!-- j2224365387&#45;&gt;j1063473072 -->
<g id="edge9" class="edge">
<title>j2224365387&#45;&gt;j1063473072</title>
<path fill="none" stroke="black" d="M365.59,-1532.65C352.03,-1506.51 331.15,-1466.27 317.29,-1439.55"/>
<polygon fill="black" stroke="black" points="320.4,-1437.95 312.69,-1430.68 314.19,-1441.17 320.4,-1437.95"/>
</g>
<!-- j969465086 -->
<g id="node11" class="node">
<title>j969465086</title>
<polygon fill="none" stroke="red" points="1163,-1251 673,-1251 673,-1215 1163,-1215 1163,-1251"/>
<text text-anchor="middle" x="918" y="-1229.3" font-family="Times New Roman,serif" font-size="14.00">Nur weil sie akzeptiert, was ihr passiert ist, ist sie noch lange kein schlechter Mensch.</text>
</g>
<!-- j2752724218&#45;&gt;j969465086 -->
<g id="edge10" class="edge">
<title>j2752724218&#45;&gt;j969465086</title>
<path fill="none" stroke="black" d="M918,-1295.37C918,-1285.1 918,-1273.22 918,-1262.67"/>
<polygon fill="black" stroke="black" points="921.5,-1262.98 918,-1252.98 914.5,-1262.98 921.5,-1262.98"/>
</g>
<!-- j3321450984 -->
<g id="node12" class="node">
<title>j3321450984</title>
<polygon fill="none" stroke="red" points="655,-1251 289,-1251 289,-1215 655,-1215 655,-1251"/>
<text text-anchor="middle" x="472" y="-1229.3" font-family="Times New Roman,serif" font-size="14.00">Ich glaube einfach nicht, dass du ihr gegenüber fair bist, Lettie.</text>
</g>
<!-- j2752724218&#45;&gt;j3321450984 -->
<g id="edge11" class="edge">
<title>j2752724218&#45;&gt;j3321450984</title>
<path fill="none" stroke="black" d="M802.99,-1295.07C791.52,-1292.62 780.04,-1290.23 769,-1288 708.32,-1275.77 640.41,-1263.33 584.86,-1253.48"/>
<polygon fill="black" stroke="black" points="585.51,-1250.04 575.05,-1251.74 584.29,-1256.93 585.51,-1250.04"/>
</g>
<!-- j1038341485&#45;&gt;j969465086 -->
<g id="edge13" class="edge">
<title>j1038341485&#45;&gt;j969465086</title>
<path fill="none" stroke="black" d="M669.19,-1303.6C719.85,-1289.43 791.48,-1269.39 844.89,-1254.45"/>
<polygon fill="black" stroke="black" points="845.51,-1257.91 854.2,-1251.85 843.62,-1251.17 845.51,-1257.91"/>
</g>
<!-- j1038341485&#45;&gt;j3321450984 -->
<g id="edge12" class="edge">
<title>j1038341485&#45;&gt;j3321450984</title>
<path fill="none" stroke="black" d="M580.01,-1303.6C559.49,-1290.39 531.07,-1272.07 508.52,-1257.54"/>
<polygon fill="black" stroke="black" points="510.52,-1254.66 500.22,-1252.19 506.73,-1260.55 510.52,-1254.66"/>
</g>
<!-- j1534725832 -->
<g id="node13" class="node">
<title>j1534725832</title>
<polygon fill="none" stroke="blue" points="436,-1356 28,-1356 28,-1288 436,-1288 436,-1356"/>
<text text-anchor="middle" x="232" y="-1340.8" font-family="Times New Roman,serif" font-size="14.00">Und warum sollte ich &#13;</text>
<text text-anchor="middle" x="232" y="-1325.8" font-family="Times New Roman,serif" font-size="14.00">Sie kann jederzeit durchdrehen und sich in Techrot verwandeln &#13;</text>
<text text-anchor="middle" x="232" y="-1310.8" font-family="Times New Roman,serif" font-size="14.00">Und selbst wenn nicht, diese bruja genießt das alles zu sehr &#13;</text>
<text text-anchor="middle" x="232" y="-1295.8" font-family="Times New Roman,serif" font-size="14.00">Wir alle sind jetzt Monster, der Unterschied ist, dass es ihr GEFÄLLT</text>
</g>
<!-- j1063473072&#45;&gt;j1534725832 -->
<g id="edge14" class="edge">
<title>j1063473072&#45;&gt;j1534725832</title>
<path fill="none" stroke="black" d="M288.97,-1392.81C282.47,-1384.85 274.44,-1375 266.47,-1365.24"/>
<polygon fill="black" stroke="black" points="269.21,-1363.07 260.18,-1357.53 263.79,-1367.49 269.21,-1363.07"/>
</g>
<!-- j2345020697 -->
<g id="node14" class="node">
<title>j2345020697</title>
<polygon fill="none" stroke="blue" points="1233,-1178 603,-1178 603,-1125 1233,-1125 1233,-1178"/>
<text text-anchor="middle" x="918" y="-1162.8" font-family="Times New Roman,serif" font-size="14.00">Es ist eine Sache, es zu akzeptieren &#13;</text>
<text text-anchor="middle" x="918" y="-1147.8" font-family="Times New Roman,serif" font-size="14.00">Es ist eine andere Sache, es zu genießen &#13;</text>
<text text-anchor="middle" x="918" y="-1132.8" font-family="Times New Roman,serif" font-size="14.00">Sie kann lernen, kein Metiche zu sein und verdammt noch mal aus meinem VERDAMMTEN Kopf rausbleiben</text>
</g>
<!-- j969465086&#45;&gt;j2345020697 -->
<g id="edge15" class="edge">
<title>j969465086&#45;&gt;j2345020697</title>
<path fill="none" stroke="black" d="M918,-1214.75C918,-1207.38 918,-1198.48 918,-1189.74"/>
<polygon fill="black" stroke="black" points="921.5,-1190 918,-1180 914.5,-1190 921.5,-1190"/>
</g>
<!-- j3573071890 -->
<g id="node15" class="node">
<title>j3573071890</title>
<polygon fill="none" stroke="blue" points="528.5,-1170.5 415.5,-1170.5 415.5,-1132.5 528.5,-1132.5 528.5,-1170.5"/>
<text text-anchor="middle" x="472" y="-1155.3" font-family="Times New Roman,serif" font-size="14.00">¿Ay, sí, verdad? &#13;</text>
<text text-anchor="middle" x="472" y="-1140.3" font-family="Times New Roman,serif" font-size="14.00">Tatsächlich</text>
</g>
<!-- j3321450984&#45;&gt;j3573071890 -->
<g id="edge16" class="edge">
<title>j3321450984&#45;&gt;j3573071890</title>
<path fill="none" stroke="black" d="M472,-1214.75C472,-1205.23 472,-1193.13 472,-1182.14"/>
<polygon fill="black" stroke="black" points="475.5,-1182.34 472,-1172.34 468.5,-1182.34 475.5,-1182.34"/>
</g>
<!-- j1534725832&#45;&gt;j969465086 -->
<g id="edge18" class="edge">
<title>j1534725832&#45;&gt;j969465086</title>
<path fill="none" stroke="black" d="M436.32,-1289.18C439.23,-1288.78 442.13,-1288.39 445,-1288 542.01,-1274.95 650.5,-1262.42 739.08,-1252.72"/>
<polygon fill="black" stroke="black" points="739.27,-1256.22 748.83,-1251.65 738.51,-1249.26 739.27,-1256.22"/>
</g>
<!-- j1534725832&#45;&gt;j3321450984 -->
<g id="edge17" class="edge">
<title>j1534725832&#45;&gt;j3321450984</title>
<path fill="none" stroke="black" d="M324.1,-1287.61C353.96,-1276.79 386.26,-1265.08 413.04,-1255.37"/>
<polygon fill="black" stroke="black" points="414.13,-1258.7 422.34,-1252 411.75,-1252.12 414.13,-1258.7"/>
</g>
<!-- j4006587335 -->
<g id="node16" class="node">
<title>j4006587335</title>
<polygon fill="none" stroke="red" points="1738,-1088 934,-1088 934,-1052 1738,-1052 1738,-1088"/>
<text text-anchor="middle" x="1336" y="-1066.3" font-family="Times New Roman,serif" font-size="14.00">Sie gehört zu deinem Team, Lettie. Und ob es dir gefällt oder nicht, du steckst mit ihr fest. Du musst daran arbeiten, deinen Groll loszulassen.</text>
</g>
<!-- j2345020697&#45;&gt;j4006587335 -->
<g id="edge19" class="edge">
<title>j2345020697&#45;&gt;j4006587335</title>
<path fill="none" stroke="black" d="M1054.58,-1124.52C1112.61,-1113.49 1179.15,-1100.83 1232.95,-1090.6"/>
<polygon fill="black" stroke="black" points="1233.57,-1094.04 1242.74,-1088.74 1232.27,-1087.17 1233.57,-1094.04"/>
</g>
<!-- j804238246 -->
<g id="node17" class="node">
<title>j804238246</title>
<polygon fill="none" stroke="red" points="915.5,-1088 28.5,-1088 28.5,-1052 915.5,-1052 915.5,-1088"/>
<text text-anchor="middle" x="472" y="-1066.3" font-family="Times New Roman,serif" font-size="14.00">Sie hat ihre Stimme verloren. Sie muss sich ständig die Gedanken aller anhören. Ihr kommen merkwürdige Gedankenblitze von Dingen, die sie nicht versteht.</text>
</g>
<!-- j2345020697&#45;&gt;j804238246 -->
<g id="edge20" class="edge">
<title>j2345020697&#45;&gt;j804238246</title>
<path fill="none" stroke="black" d="M772.27,-1124.52C710.09,-1113.44 638.76,-1100.73 581.23,-1090.47"/>
<polygon fill="black" stroke="black" points="581.87,-1087.03 571.41,-1088.72 580.64,-1093.92 581.87,-1087.03"/>
</g>
<!-- j3573071890&#45;&gt;j4006587335 -->
<g id="edge22" class="edge">
<title>j3573071890&#45;&gt;j4006587335</title>
<path fill="none" stroke="black" d="M528.82,-1136.98C549.27,-1132.55 572.57,-1128.01 594,-1125 709.28,-1108.83 835.35,-1097.35 950.33,-1089.27"/>
<polygon fill="black" stroke="black" points="950.53,-1092.76 960.27,-1088.58 950.05,-1085.78 950.53,-1092.76"/>
</g>
<!-- j3573071890&#45;&gt;j804238246 -->
<g id="edge21" class="edge">
<title>j3573071890&#45;&gt;j804238246</title>
<path fill="none" stroke="black" d="M472,-1132.06C472,-1122.46 472,-1110.51 472,-1099.73"/>
<polygon fill="black" stroke="black" points="475.5,-1099.76 472,-1089.76 468.5,-1099.76 475.5,-1099.76"/>
</g>
<!-- j3276874243 -->
<g id="node18" class="node">
<title>j3276874243</title>
<polygon fill="none" stroke="blue" points="1449,-1015 1223,-1015 1223,-962 1449,-962 1449,-1015"/>
<text text-anchor="middle" x="1336" y="-999.8" font-family="Times New Roman,serif" font-size="14.00">Sicher, sicher &#13;</text>
<text text-anchor="middle" x="1336" y="-984.8" font-family="Times New Roman,serif" font-size="14.00">Wie gut bist du darin, babas &#13;</text>
<text text-anchor="middle" x="1336" y="-969.8" font-family="Times New Roman,serif" font-size="14.00">Hast du all deinen Groll beiseite getan</text>
</g>
<!-- j4006587335&#45;&gt;j3276874243 -->
<g id="edge23" class="edge">
<title>j4006587335&#45;&gt;j3276874243</title>
<path fill="none" stroke="black" d="M1336,-1051.75C1336,-1044.38 1336,-1035.48 1336,-1026.74"/>
<polygon fill="black" stroke="black" points="1339.5,-1027 1336,-1017 1332.5,-1027 1339.5,-1027"/>
</g>
<!-- j3806487431 -->
<g id="node19" class="node">
<title>j3806487431</title>
<polygon fill="none" stroke="red" points="1103.5,-944 316.5,-944 316.5,-908 1103.5,-908 1103.5,-944"/>
<text text-anchor="middle" x="710" y="-922.3" font-family="Times New Roman,serif" font-size="14.00">Und sie ist diejenige, die dem Techrot am nächsten steht. Kannst du dir vorstellen, wie es sich anfühlen muss, das die ganze Zeit zu hören?</text>
</g>
<!-- j804238246&#45;&gt;j3806487431 -->
<g id="edge24" class="edge">
<title>j804238246&#45;&gt;j3806487431</title>
<path fill="none" stroke="black" d="M588,-1051.52C631.85,-1042.65 674.85,-1030.45 690,-1015 705.19,-999.51 709.8,-975.03 710.83,-955.82"/>
<polygon fill="black" stroke="black" points="714.33,-955.97 711.04,-945.9 707.33,-955.82 714.33,-955.97"/>
</g>
<!-- j2039858589 -->
<g id="node20" class="node">
<title>j2039858589</title>
<polygon fill="none" stroke="red" points="681.5,-1006.5 28.5,-1006.5 28.5,-970.5 681.5,-970.5 681.5,-1006.5"/>
<text text-anchor="middle" x="355" y="-984.8" font-family="Times New Roman,serif" font-size="14.00">Und IHR alle behandelt sie, als wäre sie das wahre Monster. Kannst du dir vorstellen, wie sich das anfühlen muss?</text>
</g>
<!-- j804238246&#45;&gt;j2039858589 -->
<g id="edge25" class="edge">
<title>j804238246&#45;&gt;j2039858589</title>
<path fill="none" stroke="black" d="M446.32,-1051.55C429.71,-1040.27 407.88,-1025.43 389.73,-1013.1"/>
<polygon fill="black" stroke="black" points="392.11,-1010.48 381.87,-1007.76 388.17,-1016.27 392.11,-1010.48"/>
</g>
<!-- j2551409099 -->
<g id="node21" class="node">
<title>j2551409099</title>
<ellipse fill="none" stroke="orange" cx="1336" cy="-872" rx="122.38" ry="18"/>
<text text-anchor="middle" x="1336" y="-868.3" font-family="Times New Roman,serif" font-size="14.00">Check boolean LettieReligion2</text>
</g>
<!-- j3276874243&#45;&gt;j2551409099 -->
<g id="edge26" class="edge">
<title>j3276874243&#45;&gt;j2551409099</title>
<path fill="none" stroke="black" d="M1336,-961.52C1336,-943.74 1336,-920.16 1336,-901.81"/>
<polygon fill="black" stroke="black" points="1339.5,-901.86 1336,-891.86 1332.5,-901.86 1339.5,-901.86"/>
</g>
<!-- j3904900766 -->
<g id="node22" class="node">
<title>j3904900766</title>
<polygon fill="none" stroke="blue" points="867.5,-430 522.5,-430 522.5,-392 867.5,-392 867.5,-430"/>
<text text-anchor="middle" x="695" y="-414.8" font-family="Times New Roman,serif" font-size="14.00">Das ist genau das Problem &#13;</text>
<text text-anchor="middle" x="695" y="-399.8" font-family="Times New Roman,serif" font-size="14.00">Du bringst immer wieder meine Argumente für mich, babas</text>
</g>
<!-- j3806487431&#45;&gt;j3904900766 -->
<g id="edge27" class="edge">
<title>j3806487431&#45;&gt;j3904900766</title>
<path fill="none" stroke="black" d="M694.39,-907.67C678.13,-887.77 655,-853.42 655,-819 655,-819 655,-819 655,-499 655,-477.8 664.93,-456.13 674.89,-439.72"/>
<polygon fill="black" stroke="black" points="677.71,-441.81 680.19,-431.51 671.83,-438.01 677.71,-441.81"/>
</g>
<!-- j3732129812 -->
<g id="node23" class="node">
<title>j3732129812</title>
<polygon fill="none" stroke="red" points="545.5,-836 56.5,-836 56.5,-800 545.5,-800 545.5,-836"/>
<text text-anchor="middle" x="301" y="-814.3" font-family="Times New Roman,serif" font-size="14.00">Verübelst du es ihr, dass sie dieser Art von Ekel mit Trotz statt mit Scham begegnet?</text>
</g>
<!-- j2039858589&#45;&gt;j3732129812 -->
<g id="edge28" class="edge">
<title>j2039858589&#45;&gt;j3732129812</title>
<path fill="none" stroke="black" d="M334.54,-970.39C327.14,-963.06 319.51,-953.9 315,-944 301.01,-913.29 298.81,-874.11 299.26,-847.88"/>
<polygon fill="black" stroke="black" points="302.76,-848.09 299.59,-837.98 295.76,-847.86 302.76,-848.09"/>
</g>
<!-- j369147287 -->
<g id="node24" class="node">
<title>j369147287</title>
<polygon fill="none" stroke="blue" points="2592.5,-608 2087.5,-608 2087.5,-555 2592.5,-555 2592.5,-608"/>
<text text-anchor="middle" x="2340" y="-592.8" font-family="Times New Roman,serif" font-size="14.00">Gegen deinen Xipe Totec und all die schrecklichen Dinge, die dein Void&#45;Gott getan hat &#13;</text>
<text text-anchor="middle" x="2340" y="-577.8" font-family="Times New Roman,serif" font-size="14.00">Behauptest du, du hegst keinen Groll&#13;</text>
<text text-anchor="middle" x="2340" y="-562.8" font-family="Times New Roman,serif" font-size="14.00">Pendejadas</text>
</g>
<!-- j2551409099&#45;&gt;j369147287 -->
<g id="edge29" class="edge">
<title>j2551409099&#45;&gt;j369147287</title>
<path fill="none" stroke="green" d="M1389.98,-855.49C1550.74,-809.29 2028.2,-672.1 2238.55,-611.65"/>
<polygon fill="green" stroke="green" points="2239.48,-615.03 2248.13,-608.9 2237.55,-608.3 2239.48,-615.03"/>
<text text-anchor="middle" x="1895" y="-716.8" font-family="Times New Roman,serif" font-size="14.00">true</text>
</g>
<!-- j757062835 -->
<g id="node25" class="node">
<title>j757062835</title>
<ellipse fill="none" stroke="orange" cx="1315" cy="-764" rx="111.28" ry="18"/>
<text text-anchor="middle" x="1315" y="-760.3" font-family="Times New Roman,serif" font-size="14.00">Check boolean LettieEntrati</text>
</g>
<!-- j2551409099&#45;&gt;j757062835 -->
<g id="edge30" class="edge">
<title>j2551409099&#45;&gt;j757062835</title>
<path fill="none" stroke="brown" d="M1332.63,-853.97C1329.4,-837.69 1324.47,-812.82 1320.65,-793.52"/>
<polygon fill="brown" stroke="brown" points="1324.11,-792.95 1318.73,-783.83 1317.24,-794.31 1324.11,-792.95"/>
<text text-anchor="middle" x="1341" y="-814.3" font-family="Times New Roman,serif" font-size="14.00">false</text>
</g>
<!-- j2749372787 -->
<g id="node26" class="node">
<title>j2749372787</title>
<ellipse fill="none" stroke="orange" cx="695" cy="-322" rx="122.38" ry="18"/>
<text text-anchor="middle" x="695" y="-318.3" font-family="Times New Roman,serif" font-size="14.00">Check boolean LettieReligion2</text>
</g>
<!-- j3904900766&#45;&gt;j2749372787 -->
<g id="edge31" class="edge">
<title>j3904900766&#45;&gt;j2749372787</title>
<path fill="none" stroke="black" d="M695,-391.55C695,-379.94 695,-364.72 695,-351.57"/>
<polygon fill="black" stroke="black" points="698.5,-351.75 695,-341.75 691.5,-351.75 698.5,-351.75"/>
</g>
<!-- j3151174747 -->
<g id="node27" class="node">
<title>j3151174747</title>
<polygon fill="none" stroke="blue" points="465.5,-445 136.5,-445 136.5,-377 465.5,-377 465.5,-445"/>
<text text-anchor="middle" x="301" y="-429.8" font-family="Times New Roman,serif" font-size="14.00">Mierda ... &#13;</text>
<text text-anchor="middle" x="301" y="-414.8" font-family="Times New Roman,serif" font-size="14.00">Ich will sie nicht in meinem Kopf, babas &#13;</text>
<text text-anchor="middle" x="301" y="-399.8" font-family="Times New Roman,serif" font-size="14.00">Aber aus deiner Sicht ... nein, ich gebe ihr keine Schuld &#13;</text>
<text text-anchor="middle" x="301" y="-384.8" font-family="Times New Roman,serif" font-size="14.00">So würde ich auch damit umgehen</text>
</g>
<!-- j3732129812&#45;&gt;j3151174747 -->
<g id="edge32" class="edge">
<title>j3732129812&#45;&gt;j3151174747</title>
<path fill="none" stroke="black" d="M301,-799.75C301,-780.62 301,-748.86 301,-721.5 301,-721.5 301,-721.5 301,-499 301,-485.33 301,-470.46 301,-456.93"/>
<polygon fill="black" stroke="black" points="304.5,-456.98 301,-446.98 297.5,-456.98 304.5,-456.98"/>
</g>
<!-- j2091119294 -->
<g id="node28" class="node">
<title>j2091119294</title>
<polygon fill="none" stroke="red" points="1705,-518 683,-518 683,-482 1705,-482 1705,-518"/>
<text text-anchor="middle" x="1194" y="-496.3" font-family="Times New Roman,serif" font-size="14.00">Du hast recht, ich hege immer noch Groll. Ich bin nicht perfekt. Ich sage nur, dass du sie behandelst, als wäre sie ein Monster. Verübelst du es ihr, dass sie Ekel mit Trotz begegnet?</text>
</g>
<!-- j369147287&#45;&gt;j2091119294 -->
<g id="edge33" class="edge">
<title>j369147287&#45;&gt;j2091119294</title>
<path fill="none" stroke="black" d="M2087.28,-555.74C2084.17,-555.49 2081.08,-555.24 2078,-555 1900.07,-540.91 1701.74,-528.5 1538.1,-519.13"/>
<polygon fill="black" stroke="black" points="1538.57,-515.66 1528.38,-518.58 1538.17,-522.64 1538.57,-515.66"/>
</g>
<!-- j229525858 -->
<g id="node29" class="node">
<title>j229525858</title>
<polygon fill="none" stroke="red" points="2944.5,-518 1723.5,-518 1723.5,-482 2944.5,-482 2944.5,-518"/>
<text text-anchor="middle" x="2334" y="-496.3" font-family="Times New Roman,serif" font-size="14.00">Du hast recht, ich hege immer noch Groll. Ich bin nicht perfekt. Ich sage nur, dass sie diejenige ist, die dem Techrot am nächsten steht. Kannst du dir vorstellen, wie es sich anfühlen muss, das die ganze Zeit zu hören?</text>
</g>
<!-- j369147287&#45;&gt;j229525858 -->
<g id="edge34" class="edge">
<title>j369147287&#45;&gt;j229525858</title>
<path fill="none" stroke="black" d="M2338.07,-554.91C2337.46,-546.86 2336.79,-537.91 2336.16,-529.66"/>
<polygon fill="black" stroke="black" points="2339.66,-529.47 2335.42,-519.77 2332.68,-530 2339.66,-529.47"/>
</g>
<!-- j2223518919 -->
<g id="node30" class="node">
<title>j2223518919</title>
<polygon fill="none" stroke="blue" points="1133,-608 779,-608 779,-555 1133,-555 1133,-608"/>
<text text-anchor="middle" x="956" y="-592.8" font-family="Times New Roman,serif" font-size="14.00">Gegen Entrati und die Orokin und was sie dir angetan haben &#13;</text>
<text text-anchor="middle" x="956" y="-577.8" font-family="Times New Roman,serif" font-size="14.00">Behauptest du, du hegst keinen Groll&#13;</text>
<text text-anchor="middle" x="956" y="-562.8" font-family="Times New Roman,serif" font-size="14.00">Pendejadas</text>
</g>
<!-- j757062835&#45;&gt;j2223518919 -->
<g id="edge35" class="edge">
<title>j757062835&#45;&gt;j2223518919</title>
<path fill="none" stroke="green" d="M1280.11,-746.49C1251.49,-732.88 1209.99,-712.96 1174,-695 1120.02,-668.06 1059.04,-636.49 1015.32,-613.66"/>
<polygon fill="green" stroke="green" points="1016.98,-610.58 1006.5,-609.05 1013.74,-616.78 1016.98,-610.58"/>
<text text-anchor="middle" x="1185" y="-673.3" font-family="Times New Roman,serif" font-size="14.00">true</text>
</g>
<!-- j1666734191 -->
<g id="node31" class="node">
<title>j1666734191</title>
<ellipse fill="none" stroke="orange" cx="1315" cy="-677" rx="109.68" ry="18"/>
<text text-anchor="middle" x="1315" y="-673.3" font-family="Times New Roman,serif" font-size="14.00">Check boolean LettieDuviri</text>
</g>
<!-- j757062835&#45;&gt;j1666734191 -->
<g id="edge36" class="edge">
<title>j757062835&#45;&gt;j1666734191</title>
<path fill="none" stroke="brown" d="M1315,-745.8C1315,-734.58 1315,-719.67 1315,-706.69"/>
<polygon fill="brown" stroke="brown" points="1318.5,-706.98 1315,-696.98 1311.5,-706.98 1318.5,-706.98"/>
<text text-anchor="middle" x="1328" y="-716.8" font-family="Times New Roman,serif" font-size="14.00">false</text>
</g>
<!-- j3736848890 -->
<g id="node32" class="node">
<title>j3736848890</title>
<polygon fill="none" stroke="blue" points="1040,-253 588,-253 588,-215 1040,-215 1040,-253"/>
<text text-anchor="middle" x="814" y="-237.8" font-family="Times New Roman,serif" font-size="14.00">Eines Tages werden sie ihre Haut tragen, wie dein Xipe Totec den Major trägt &#13;</text>
<text text-anchor="middle" x="814" y="-222.8" font-family="Times New Roman,serif" font-size="14.00">Und du wirst nicht da sein, um sie zu retten</text>
</g>
<!-- j2749372787&#45;&gt;j3736848890 -->
<g id="edge37" class="edge">
<title>j2749372787&#45;&gt;j3736848890</title>
<path fill="none" stroke="green" d="M718.51,-304.01C735.86,-291.47 759.74,-274.21 779.28,-260.09"/>
<polygon fill="green" stroke="green" points="781.2,-263.02 787.25,-254.33 777.1,-257.35 781.2,-263.02"/>
<text text-anchor="middle" x="773" y="-274.8" font-family="Times New Roman,serif" font-size="14.00">true</text>
</g>
<!-- j956257118 -->
<g id="node33" class="node">
<title>j956257118</title>
<polygon fill="none" stroke="blue" points="569.5,-253 312.5,-253 312.5,-215 569.5,-215 569.5,-253"/>
<text text-anchor="middle" x="441" y="-237.8" font-family="Times New Roman,serif" font-size="14.00">Eines Tages werden sie sie verzehren &#13;</text>
<text text-anchor="middle" x="441" y="-222.8" font-family="Times New Roman,serif" font-size="14.00">Und du wirst nicht da sein, um sie zu retten</text>
</g>
<!-- j2749372787&#45;&gt;j956257118 -->
<g id="edge38" class="edge">
<title>j2749372787&#45;&gt;j956257118</title>
<path fill="none" stroke="brown" d="M647.82,-305.03C607.93,-291.52 550.36,-272.03 506.09,-257.04"/>
<polygon fill="brown" stroke="brown" points="507.45,-253.8 496.86,-253.91 505.21,-260.43 507.45,-253.8"/>
<text text-anchor="middle" x="604" y="-274.8" font-family="Times New Roman,serif" font-size="14.00">false</text>
</g>
<!-- j4090396670 -->
<g id="node34" class="node">
<title>j4090396670</title>
<ellipse fill="none" stroke="orange" cx="272" cy="-322" rx="64.19" ry="18"/>
<text text-anchor="middle" x="272" y="-318.3" font-family="Times New Roman,serif" font-size="14.00">+20 Chemistry</text>
</g>
<!-- j3151174747&#45;&gt;j4090396670 -->
<g id="edge39" class="edge">
<title>j3151174747&#45;&gt;j4090396670</title>
<path fill="none" stroke="black" d="M289.87,-376.61C287.05,-368.14 284.04,-359.13 281.32,-350.97"/>
<polygon fill="black" stroke="black" points="284.67,-349.94 278.19,-341.56 278.03,-352.15 284.67,-349.94"/>
</g>
<!-- j2091119294&#45;&gt;j3151174747 -->
<g id="edge40" class="edge">
<title>j2091119294&#45;&gt;j3151174747</title>
<path fill="none" stroke="black" d="M889.05,-481.52C771.27,-473.01 635.59,-461.07 513,-445 501.27,-443.46 489.18,-441.8 477.01,-440.06"/>
<polygon fill="black" stroke="black" points="477.71,-436.62 467.31,-438.66 476.71,-443.55 477.71,-436.62"/>
</g>
<!-- j229525858&#45;&gt;j3904900766 -->
<g id="edge41" class="edge">
<title>j229525858&#45;&gt;j3904900766</title>
<path fill="none" stroke="black" d="M2004.79,-481.53C1666.35,-463.56 1151.49,-436.23 879.03,-421.77"/>
<polygon fill="black" stroke="black" points="879.52,-418.29 869.35,-421.25 879.15,-425.28 879.52,-418.29"/>
</g>
<!-- j2223518919&#45;&gt;j2091119294 -->
<g id="edge42" class="edge">
<title>j2223518919&#45;&gt;j2091119294</title>
<path fill="none" stroke="black" d="M1033.6,-554.58C1065.13,-544.05 1101.1,-532.03 1130.97,-522.06"/>
<polygon fill="black" stroke="black" points="1131.86,-525.45 1140.24,-518.96 1129.65,-518.81 1131.86,-525.45"/>
</g>
<!-- j2223518919&#45;&gt;j229525858 -->
<g id="edge43" class="edge">
<title>j2223518919&#45;&gt;j229525858</title>
<path fill="none" stroke="black" d="M1133.17,-555.83C1136.13,-555.54 1139.08,-555.27 1142,-555 1326.74,-538.19 1528.08,-526.53 1711.81,-518.48"/>
<polygon fill="black" stroke="black" points="1711.69,-521.99 1721.53,-518.05 1711.39,-514.99 1711.69,-521.99"/>
</g>
<!-- j3835558770 -->
<g id="node35" class="node">
<title>j3835558770</title>
<polygon fill="none" stroke="blue" points="1473,-600.5 1151,-600.5 1151,-562.5 1473,-562.5 1473,-600.5"/>
<text text-anchor="middle" x="1312" y="-585.3" font-family="Times New Roman,serif" font-size="14.00">Gegen Duviri und den Ort, der dir so oft wehgetan hat &#13;</text>
<text text-anchor="middle" x="1312" y="-570.3" font-family="Times New Roman,serif" font-size="14.00">Behauptest du, du hegst keinen Groll</text>
</g>
<!-- j1666734191&#45;&gt;j3835558770 -->
<g id="edge44" class="edge">
<title>j1666734191&#45;&gt;j3835558770</title>
<path fill="none" stroke="green" d="M1314.45,-658.85C1314.03,-645.74 1313.44,-627.36 1312.94,-611.92"/>
<polygon fill="green" stroke="green" points="1316.46,-612.21 1312.64,-602.33 1309.46,-612.44 1316.46,-612.21"/>
<text text-anchor="middle" x="1325" y="-629.8" font-family="Times New Roman,serif" font-size="14.00">true</text>
</g>
<!-- j3887066421 -->
<g id="node36" class="node">
<title>j3887066421</title>
<polygon fill="none" stroke="blue" points="2069,-600.5 1491,-600.5 1491,-562.5 2069,-562.5 2069,-600.5"/>
<text text-anchor="middle" x="1780" y="-585.3" font-family="Times New Roman,serif" font-size="14.00">Dein Leben bestand nur aus einem Tanz mit La Flaca und du behauptest, dass du keinen Groll hegst &#13;</text>
<text text-anchor="middle" x="1780" y="-570.3" font-family="Times New Roman,serif" font-size="14.00">Pendejadas</text>
</g>
<!-- j1666734191&#45;&gt;j3887066421 -->
<g id="edge45" class="edge">
<title>j1666734191&#45;&gt;j3887066421</title>
<path fill="none" stroke="brown" d="M1382.61,-662.4C1459.99,-646.85 1587.57,-621.19 1677.25,-603.16"/>
<polygon fill="brown" stroke="brown" points="1677.67,-606.65 1686.79,-601.24 1676.29,-599.78 1677.67,-606.65"/>
<text text-anchor="middle" x="1574" y="-629.8" font-family="Times New Roman,serif" font-size="14.00">false</text>
</g>
<!-- j1452698946 -->
<g id="node37" class="node">
<title>j1452698946</title>
<polygon fill="none" stroke="blue" points="614,-126 298,-126 298,-73 614,-73 614,-126"/>
<text text-anchor="middle" x="456" y="-110.8" font-family="Times New Roman,serif" font-size="14.00">Vete &#13;</text>
<text text-anchor="middle" x="456" y="-95.8" font-family="Times New Roman,serif" font-size="14.00">Geh weg &#13;</text>
<text text-anchor="middle" x="456" y="-80.8" font-family="Times New Roman,serif" font-size="14.00">Es gibt zu viel zu tun, um damit Zeit zu verschwenden</text>
</g>
<!-- j3736848890&#45;&gt;j1452698946 -->
<g id="edge46" class="edge">
<title>j3736848890&#45;&gt;j1452698946</title>
<path fill="none" stroke="black" d="M764.22,-214.58C705.29,-192.76 606.33,-156.14 536.47,-130.28"/>
<polygon fill="black" stroke="black" points="537.96,-127.1 527.37,-126.91 535.53,-133.67 537.96,-127.1"/>
</g>
<!-- j956257118&#45;&gt;j1452698946 -->
<g id="edge47" class="edge">
<title>j956257118&#45;&gt;j1452698946</title>
<path fill="none" stroke="black" d="M443.09,-214.58C445.34,-194.69 448.98,-162.48 451.83,-137.36"/>
<polygon fill="black" stroke="black" points="455.29,-137.86 452.94,-127.53 448.34,-137.07 455.29,-137.86"/>
</g>
<!-- j3440525927 -->
<g id="node38" class="node">
<title>j3440525927</title>
<polygon fill="none" stroke="blue" points="441,-197 35,-197 35,-144 441,-144 441,-197"/>
<text text-anchor="middle" x="238" y="-181.8" font-family="Times New Roman,serif" font-size="14.00">Ich sag dir was &#13;</text>
<text text-anchor="middle" x="238" y="-166.8" font-family="Times New Roman,serif" font-size="14.00">Du sagst der bruja metiche sie soll lernen aus meinem Kopf zu bleiben&#13;</text>
<text text-anchor="middle" x="238" y="-151.8" font-family="Times New Roman,serif" font-size="14.00">Und ... ich arbeite daran, ihr etwas mehr Spielraum zu lassen, ¿sí?</text>
</g>
<!-- j4090396670&#45;&gt;j3440525927 -->
<g id="edge48" class="edge">
<title>j4090396670&#45;&gt;j3440525927</title>
<path fill="none" stroke="black" d="M268.03,-303.56C262.75,-280.34 253.28,-238.67 246.38,-208.34"/>
<polygon fill="black" stroke="black" points="249.84,-207.78 244.21,-198.81 243.01,-209.33 249.84,-207.78"/>
</g>
<!-- j3835558770&#45;&gt;j2091119294 -->
<g id="edge49" class="edge">
<title>j3835558770&#45;&gt;j2091119294</title>
<path fill="none" stroke="black" d="M1284.63,-562.06C1268.09,-550.92 1246.83,-536.59 1229.06,-524.62"/>
<polygon fill="black" stroke="black" points="1231.11,-521.78 1220.86,-519.1 1227.2,-527.59 1231.11,-521.78"/>
</g>
<!-- j3835558770&#45;&gt;j229525858 -->
<g id="edge50" class="edge">
<title>j3835558770&#45;&gt;j229525858</title>
<path fill="none" stroke="black" d="M1426.13,-562.01C1444.77,-559.38 1463.9,-556.93 1482,-555 1629.95,-539.24 1792.87,-527.54 1936.28,-519.14"/>
<polygon fill="black" stroke="black" points="1936.16,-522.65 1945.94,-518.57 1935.75,-515.66 1936.16,-522.65"/>
</g>
<!-- j3887066421&#45;&gt;j2091119294 -->
<g id="edge51" class="edge">
<title>j3887066421&#45;&gt;j2091119294</title>
<path fill="none" stroke="black" d="M1643.72,-562.01C1550.78,-549.4 1428.04,-532.75 1334.27,-520.03"/>
<polygon fill="black" stroke="black" points="1334.86,-516.58 1324.48,-518.7 1333.92,-523.51 1334.86,-516.58"/>
</g>
<!-- j3887066421&#45;&gt;j229525858 -->
<g id="edge52" class="edge">
<title>j3887066421&#45;&gt;j229525858</title>
<path fill="none" stroke="black" d="M1908.84,-562.01C1996.52,-549.43 2112.27,-532.82 2200.85,-520.11"/>
<polygon fill="black" stroke="black" points="2201.16,-523.6 2210.56,-518.71 2200.17,-516.67 2201.16,-523.6"/>
</g>
<!-- j1452698946&#45;&gt;Chat ends. -->
<g id="edge53" class="edge">
<title>j1452698946&#45;&gt;Chat ends.</title>
<path fill="none" stroke="black" d="M384.92,-72.58C351.43,-60.36 312.48,-46.16 283.1,-35.45"/>
<polygon fill="black" stroke="black" points="284.36,-32.18 273.76,-32.04 281.96,-38.76 284.36,-32.18"/>
</g>
<!-- j3440525927&#45;&gt;Chat ends. -->
<g id="edge54" class="edge">
<title>j3440525927&#45;&gt;Chat ends.</title>
<path fill="none" stroke="black" d="M238,-143.63C238,-116.83 238,-75.08 238,-47.39"/>
<polygon fill="black" stroke="black" points="241.5,-47.63 238,-37.63 234.5,-47.63 241.5,-47.63"/>
</g>
</g>
</svg>
