<?xml version="1.0" encoding="UTF-8" standalone="no"?>
<!DOCTYPE svg PUBLIC "-//W3C//DTD SVG 1.1//EN"
 "http://www.w3.org/Graphics/SVG/1.1/DTD/svg11.dtd">
<!-- Generated by graphviz version 7.1.0 (20230121.1956)
 -->
<!-- Pages: 1 -->
<svg width="1509pt" height="1414pt"
 viewBox="0.00 0.00 1508.50 1414.00" xmlns="http://www.w3.org/2000/svg" xmlns:xlink="http://www.w3.org/1999/xlink">
<g id="graph0" class="graph" transform="scale(1 1) rotate(0) translate(4 1410)">
<polygon fill="white" stroke="none" points="-4,4 -4,-1410 1504.5,-1410 1504.5,4 -4,4"/>
<!-- LettieRank3Convo5 begins. -->
<g id="node1" class="node">
<title>LettieRank3Convo5 begins.</title>
<ellipse fill="none" stroke="orange" cx="282" cy="-1388" rx="111.58" ry="18"/>
<text text-anchor="middle" x="282" y="-1384.3" font-family="Times New Roman,serif" font-size="14.00">LettieRank3Convo5 begins.</text>
</g>
<!-- j2603884860 -->
<g id="node2" class="node">
<title>j2603884860</title>
<polygon fill="none" stroke="red" points="336.5,-1333 227.5,-1333 227.5,-1297 336.5,-1297 336.5,-1333"/>
<text text-anchor="middle" x="282" y="-1311.3" font-family="Times New Roman,serif" font-size="14.00">Hältst du durch?</text>
</g>
<!-- LettieRank3Convo5 begins.&#45;&gt;j2603884860 -->
<g id="edge1" class="edge">
<title>LettieRank3Convo5 begins.&#45;&gt;j2603884860</title>
<path fill="none" stroke="black" d="M282,-1369.81C282,-1362.23 282,-1353.1 282,-1344.54"/>
<polygon fill="black" stroke="black" points="285.5,-1344.54 282,-1334.54 278.5,-1344.54 285.5,-1344.54"/>
</g>
<!-- j2122450014 -->
<g id="node3" class="node">
<title>j2122450014</title>
<polygon fill="none" stroke="red" points="659.5,-1333 472.5,-1333 472.5,-1297 659.5,-1297 659.5,-1333"/>
<text text-anchor="middle" x="566" y="-1311.3" font-family="Times New Roman,serif" font-size="14.00">Wie läuft es mit den Zivilisten?</text>
</g>
<!-- LettieRank3Convo5 begins.&#45;&gt;j2122450014 -->
<g id="edge2" class="edge">
<title>LettieRank3Convo5 begins.&#45;&gt;j2122450014</title>
<path fill="none" stroke="black" d="M340.84,-1372.29C382.57,-1361.86 439.09,-1347.73 485.06,-1336.24"/>
<polygon fill="black" stroke="black" points="485.88,-1339.64 494.73,-1333.82 484.18,-1332.85 485.88,-1339.64"/>
</g>
<!-- j4221938618 -->
<g id="node4" class="node">
<title>j4221938618</title>
<polygon fill="none" stroke="red" points="93,-1279 7,-1279 7,-1243 93,-1243 93,-1279"/>
<text text-anchor="middle" x="50" y="-1257.3" font-family="Times New Roman,serif" font-size="14.00">[Ignorieren.]</text>
</g>
<!-- LettieRank3Convo5 begins.&#45;&gt;j4221938618 -->
<g id="edge3" class="edge">
<title>LettieRank3Convo5 begins.&#45;&gt;j4221938618</title>
<path fill="none" stroke="black" d="M251.19,-1370.4C210.4,-1348.42 138.27,-1309.56 92.37,-1284.83"/>
<polygon fill="black" stroke="black" points="94.23,-1281.85 83.76,-1280.19 90.91,-1288.02 94.23,-1281.85"/>
</g>
<!-- j2081392232 -->
<g id="node5" class="node">
<title>j2081392232</title>
<polygon fill="none" stroke="blue" points="354.5,-1217.5 209.5,-1217.5 209.5,-1179.5 354.5,-1179.5 354.5,-1217.5"/>
<text text-anchor="middle" x="282" y="-1202.3" font-family="Times New Roman,serif" font-size="14.00">Mm? &#13;</text>
<text text-anchor="middle" x="282" y="-1187.3" font-family="Times New Roman,serif" font-size="14.00">Wie eine Drehtür, jajaja</text>
</g>
<!-- j2603884860&#45;&gt;j2081392232 -->
<g id="edge4" class="edge">
<title>j2603884860&#45;&gt;j2081392232</title>
<path fill="none" stroke="black" d="M282,-1296.61C282,-1278.75 282,-1250.6 282,-1229.2"/>
<polygon fill="black" stroke="black" points="285.5,-1229.33 282,-1219.33 278.5,-1229.33 285.5,-1229.33"/>
</g>
<!-- j3127848962 -->
<g id="node6" class="node">
<title>j3127848962</title>
<polygon fill="none" stroke="blue" points="875,-1225 495,-1225 495,-1172 875,-1172 875,-1225"/>
<text text-anchor="middle" x="685" y="-1209.8" font-family="Times New Roman,serif" font-size="14.00">Hä? &#13;</text>
<text text-anchor="middle" x="685" y="-1194.8" font-family="Times New Roman,serif" font-size="14.00">Ganz gut, denke ich &#13;</text>
<text text-anchor="middle" x="685" y="-1179.8" font-family="Times New Roman,serif" font-size="14.00">Zivilisten sind überall gleich, man gewöhnt sich mit der Zeit daran</text>
</g>
<!-- j2122450014&#45;&gt;j3127848962 -->
<g id="edge5" class="edge">
<title>j2122450014&#45;&gt;j3127848962</title>
<path fill="none" stroke="black" d="M584.07,-1296.61C601.6,-1279.75 628.65,-1253.72 650.33,-1232.86"/>
<polygon fill="black" stroke="black" points="652.48,-1235.65 657.26,-1226.19 647.63,-1230.6 652.48,-1235.65"/>
</g>
<!-- Chat ends. -->
<g id="node7" class="node">
<title>Chat ends.</title>
<ellipse fill="none" stroke="orange" cx="514" cy="-18" rx="50.09" ry="18"/>
<text text-anchor="middle" x="514" y="-14.3" font-family="Times New Roman,serif" font-size="14.00">Chat ends.</text>
</g>
<!-- j4221938618&#45;&gt;Chat ends. -->
<g id="edge6" class="edge">
<title>j4221938618&#45;&gt;Chat ends.</title>
<path fill="none" stroke="black" d="M36.07,-1242.79C21.28,-1222.74 0,-1187.98 0,-1154 0,-1154 0,-1154 0,-91 0,-45.74 316.53,-27.18 452.81,-21.28"/>
<polygon fill="black" stroke="black" points="452.89,-24.78 462.74,-20.86 452.6,-17.79 452.89,-24.78"/>
</g>
<!-- j4244054167 -->
<g id="node8" class="node">
<title>j4244054167</title>
<polygon fill="none" stroke="blue" points="536,-1135 28,-1135 28,-1082 536,-1082 536,-1135"/>
<text text-anchor="middle" x="282" y="-1119.8" font-family="Times New Roman,serif" font-size="14.00">Ich habe manchmal das Gefühl, dass Leute DURCH mich hindurch gehen, sogar vor dir&#13;</text>
<text text-anchor="middle" x="282" y="-1104.8" font-family="Times New Roman,serif" font-size="14.00">Nur ein Gesicht in einem IKA&#45;Zelt, das Wunden verbindet &#13;</text>
<text text-anchor="middle" x="282" y="-1089.8" font-family="Times New Roman,serif" font-size="14.00">Aber ich bin Teil des Gebäudes</text>
</g>
<!-- j2081392232&#45;&gt;j4244054167 -->
<g id="edge7" class="edge">
<title>j2081392232&#45;&gt;j4244054167</title>
<path fill="none" stroke="black" d="M282,-1179.27C282,-1169.85 282,-1158 282,-1146.76"/>
<polygon fill="black" stroke="black" points="285.5,-1146.9 282,-1136.9 278.5,-1146.9 285.5,-1146.9"/>
</g>
<!-- j1895401040 -->
<g id="node9" class="node">
<title>j1895401040</title>
<polygon fill="none" stroke="red" points="815.5,-1126.5 554.5,-1126.5 554.5,-1090.5 815.5,-1090.5 815.5,-1126.5"/>
<text text-anchor="middle" x="685" y="-1104.8" font-family="Times New Roman,serif" font-size="14.00">Ja, aber es muss trotzdem anstrengend sein.</text>
</g>
<!-- j3127848962&#45;&gt;j1895401040 -->
<g id="edge8" class="edge">
<title>j3127848962&#45;&gt;j1895401040</title>
<path fill="none" stroke="black" d="M685,-1171.57C685,-1161.11 685,-1149 685,-1138.27"/>
<polygon fill="black" stroke="black" points="688.5,-1138.41 685,-1128.41 681.5,-1138.41 688.5,-1138.41"/>
</g>
<!-- j2629448329 -->
<g id="node10" class="node">
<title>j2629448329</title>
<polygon fill="none" stroke="red" points="949.5,-1064 782.5,-1064 782.5,-1028 949.5,-1028 949.5,-1064"/>
<text text-anchor="middle" x="866" y="-1042.3" font-family="Times New Roman,serif" font-size="14.00">Man gewöhnt sich an was?</text>
</g>
<!-- j3127848962&#45;&gt;j2629448329 -->
<g id="edge9" class="edge">
<title>j3127848962&#45;&gt;j2629448329</title>
<path fill="none" stroke="black" d="M769.18,-1171.51C789.24,-1162.37 809.35,-1150.4 825,-1135 841.61,-1118.65 852.24,-1094.28 858.51,-1075.33"/>
<polygon fill="black" stroke="black" points="861.84,-1076.39 861.41,-1065.8 855.15,-1074.35 861.84,-1076.39"/>
</g>
<!-- j662707377 -->
<g id="node11" class="node">
<title>j662707377</title>
<polygon fill="none" stroke="blue" points="453,-1010 79,-1010 79,-942 453,-942 453,-1010"/>
<text text-anchor="middle" x="266" y="-994.8" font-family="Times New Roman,serif" font-size="14.00">Ich bin hart im Nehmen &#13;</text>
<text text-anchor="middle" x="266" y="-979.8" font-family="Times New Roman,serif" font-size="14.00">Ich gehe nirgendwo hin &#13;</text>
<text text-anchor="middle" x="266" y="-964.8" font-family="Times New Roman,serif" font-size="14.00">Pero ... Estoy muerta&#13;</text>
<text text-anchor="middle" x="266" y="-949.8" font-family="Times New Roman,serif" font-size="14.00">Es gibt manchmal einfach nicht genug Kaffee auf der Welt, ¿no?</text>
</g>
<!-- j4244054167&#45;&gt;j662707377 -->
<g id="edge10" class="edge">
<title>j4244054167&#45;&gt;j662707377</title>
<path fill="none" stroke="black" d="M278.84,-1081.72C276.74,-1064.58 273.92,-1041.62 271.46,-1021.57"/>
<polygon fill="black" stroke="black" points="274.94,-1021.17 270.25,-1011.67 267.99,-1022.02 274.94,-1021.17"/>
</g>
<!-- j4238434344 -->
<g id="node12" class="node">
<title>j4238434344</title>
<polygon fill="none" stroke="blue" points="809,-1010 471,-1010 471,-942 809,-942 809,-1010"/>
<text text-anchor="middle" x="640" y="-994.8" font-family="Times New Roman,serif" font-size="14.00">Sí, du hast keine Ahnung &#13;</text>
<text text-anchor="middle" x="640" y="-979.8" font-family="Times New Roman,serif" font-size="14.00">Manchmal gibt es nicht genug Kaffee auf der Welt, oder? &#13;</text>
<text text-anchor="middle" x="640" y="-964.8" font-family="Times New Roman,serif" font-size="14.00">Pero, soy dura de roer &#13;</text>
<text text-anchor="middle" x="640" y="-949.8" font-family="Times New Roman,serif" font-size="14.00">Ich gehe nirgendwo hin</text>
</g>
<!-- j1895401040&#45;&gt;j4238434344 -->
<g id="edge11" class="edge">
<title>j1895401040&#45;&gt;j4238434344</title>
<path fill="none" stroke="black" d="M679.02,-1090.17C672.98,-1072.63 663.38,-1044.8 655.22,-1021.13"/>
<polygon fill="black" stroke="black" points="658.53,-1020 651.96,-1011.68 651.91,-1022.28 658.53,-1020"/>
</g>
<!-- j2144225364 -->
<g id="node13" class="node">
<title>j2144225364</title>
<polygon fill="none" stroke="blue" points="1116.5,-924 643.5,-924 643.5,-856 1116.5,-856 1116.5,-924"/>
<text text-anchor="middle" x="880" y="-908.8" font-family="Times New Roman,serif" font-size="14.00">Ihre leeren Blicke und den tauben Schmerz &#13;</text>
<text text-anchor="middle" x="880" y="-893.8" font-family="Times New Roman,serif" font-size="14.00">Für sie bin ich ein Gesicht in einem IKA&#45;Zelt, das Wunden versorgt&#13;</text>
<text text-anchor="middle" x="880" y="-878.8" font-family="Times New Roman,serif" font-size="14.00">Ich habe das Gefühl, Leute gehen DURCH mich hindurch wie durch eine Drehtür &#13;</text>
<text text-anchor="middle" x="880" y="-863.8" font-family="Times New Roman,serif" font-size="14.00">Und das war, bevor DU es buchstäblich getan hast, jajaja</text>
</g>
<!-- j2629448329&#45;&gt;j2144225364 -->
<g id="edge12" class="edge">
<title>j2629448329&#45;&gt;j2144225364</title>
<path fill="none" stroke="black" d="M867.58,-1027.63C869.6,-1005.45 873.16,-966.26 875.95,-935.52"/>
<polygon fill="black" stroke="black" points="879.42,-935.99 876.84,-925.72 872.45,-935.36 879.42,-935.99"/>
</g>
<!-- j912393978 -->
<g id="node14" class="node">
<title>j912393978</title>
<polygon fill="none" stroke="red" points="466.5,-838 29.5,-838 29.5,-802 466.5,-802 466.5,-838"/>
<text text-anchor="middle" x="248" y="-816.3" font-family="Times New Roman,serif" font-size="14.00">Nur weil du hart im Nehmen bist, heißt das nicht, dass ich mich nicht sorge.</text>
</g>
<!-- j662707377&#45;&gt;j912393978 -->
<g id="edge13" class="edge">
<title>j662707377&#45;&gt;j912393978</title>
<path fill="none" stroke="black" d="M262.09,-941.58C258.88,-914.09 254.38,-875.55 251.33,-849.5"/>
<polygon fill="black" stroke="black" points="254.82,-849.18 250.18,-839.66 247.87,-849.99 254.82,-849.18"/>
</g>
<!-- j2424498355 -->
<g id="node15" class="node">
<title>j2424498355</title>
<polygon fill="none" stroke="red" points="771.5,-838 484.5,-838 484.5,-802 771.5,-802 771.5,-838"/>
<text text-anchor="middle" x="628" y="-816.3" font-family="Times New Roman,serif" font-size="14.00">Ja, aber ein stetiger Kaffeefluss schadet nicht. lol</text>
</g>
<!-- j662707377&#45;&gt;j2424498355 -->
<g id="edge14" class="edge">
<title>j662707377&#45;&gt;j2424498355</title>
<path fill="none" stroke="black" d="M344.55,-941.58C414.97,-911.63 516.25,-868.54 576.75,-842.8"/>
<polygon fill="black" stroke="black" points="577.97,-846.09 585.8,-838.95 575.23,-839.65 577.97,-846.09"/>
</g>
<!-- j4238434344&#45;&gt;j912393978 -->
<g id="edge15" class="edge">
<title>j4238434344&#45;&gt;j912393978</title>
<path fill="none" stroke="black" d="M554.94,-941.58C478.47,-911.54 368.41,-868.3 302.96,-842.59"/>
<polygon fill="black" stroke="black" points="304.45,-839.42 293.87,-839.02 301.89,-845.93 304.45,-839.42"/>
</g>
<!-- j4238434344&#45;&gt;j2424498355 -->
<g id="edge16" class="edge">
<title>j4238434344&#45;&gt;j2424498355</title>
<path fill="none" stroke="black" d="M637.4,-941.58C635.25,-914.09 632.25,-875.55 630.22,-849.5"/>
<polygon fill="black" stroke="black" points="633.72,-849.36 629.45,-839.66 626.74,-849.9 633.72,-849.36"/>
</g>
<!-- j3050599071 -->
<g id="node16" class="node">
<title>j3050599071</title>
<ellipse fill="none" stroke="orange" cx="880" cy="-627" rx="113.98" ry="18"/>
<text text-anchor="middle" x="880" y="-623.3" font-family="Times New Roman,serif" font-size="14.00">Check boolean LettieNoFlirt</text>
</g>
<!-- j2144225364&#45;&gt;j3050599071 -->
<g id="edge17" class="edge">
<title>j2144225364&#45;&gt;j3050599071</title>
<path fill="none" stroke="black" d="M880,-855.68C880,-803.99 880,-705.37 880,-656.67"/>
<polygon fill="black" stroke="black" points="883.5,-656.94 880,-646.94 876.5,-656.94 883.5,-656.94"/>
</g>
<!-- j3088533269 -->
<g id="node17" class="node">
<title>j3088533269</title>
<polygon fill="none" stroke="blue" points="416,-765 28,-765 28,-682 416,-682 416,-765"/>
<text text-anchor="middle" x="222" y="-749.8" font-family="Times New Roman,serif" font-size="14.00">Sí,&#13;</text>
<text text-anchor="middle" x="222" y="-734.8" font-family="Times New Roman,serif" font-size="14.00">Es reicht zu wissen, dass jemand auf mich aufpasst&#13;</text>
<text text-anchor="middle" x="222" y="-719.8" font-family="Times New Roman,serif" font-size="14.00">So ist Arthur&#13;</text>
<text text-anchor="middle" x="222" y="-704.8" font-family="Times New Roman,serif" font-size="14.00">Er schwebt nicht so herum wie Aoi und gibt vor, mi mamá zu sein &#13;</text>
<text text-anchor="middle" x="222" y="-689.8" font-family="Times New Roman,serif" font-size="14.00">Gibt mir einfach eine Tasse und sagt: Alles in Ordnung?</text>
</g>
<!-- j912393978&#45;&gt;j3088533269 -->
<g id="edge18" class="edge">
<title>j912393978&#45;&gt;j3088533269</title>
<path fill="none" stroke="black" d="M243.23,-801.67C241.21,-794.31 238.73,-785.32 236.2,-776.1"/>
<polygon fill="black" stroke="black" points="239.64,-775.43 233.62,-766.72 232.89,-777.29 239.64,-775.43"/>
</g>
<!-- j182156106 -->
<g id="node18" class="node">
<title>j182156106</title>
<polygon fill="none" stroke="blue" points="822,-757.5 434,-757.5 434,-689.5 822,-689.5 822,-757.5"/>
<text text-anchor="middle" x="628" y="-742.3" font-family="Times New Roman,serif" font-size="14.00">Jajaja, nein, das tut es nicht&#13;</text>
<text text-anchor="middle" x="628" y="-727.3" font-family="Times New Roman,serif" font-size="14.00">Arthur ist so&#13;</text>
<text text-anchor="middle" x="628" y="-712.3" font-family="Times New Roman,serif" font-size="14.00">Er schwebt nicht so herum wie Aoi und gibt vor, mi mamá zu sein &#13;</text>
<text text-anchor="middle" x="628" y="-697.3" font-family="Times New Roman,serif" font-size="14.00">Gibt mir einfach eine Tasse und sagt: Alles in Ordnung?</text>
</g>
<!-- j2424498355&#45;&gt;j182156106 -->
<g id="edge19" class="edge">
<title>j2424498355&#45;&gt;j182156106</title>
<path fill="none" stroke="black" d="M628,-801.67C628,-792.48 628,-780.72 628,-769.17"/>
<polygon fill="black" stroke="black" points="631.5,-769.3 628,-759.3 624.5,-769.3 631.5,-769.3"/>
</g>
<!-- j3499768391 -->
<g id="node19" class="node">
<title>j3499768391</title>
<polygon fill="none" stroke="red" points="1500.5,-558 1059.5,-558 1059.5,-522 1500.5,-522 1500.5,-558"/>
<text text-anchor="middle" x="1280" y="-536.3" font-family="Times New Roman,serif" font-size="14.00">Ich meine, was erwartest du von Menschen, die gerade alles verloren haben?</text>
</g>
<!-- j3050599071&#45;&gt;j3499768391 -->
<g id="edge20" class="edge">
<title>j3050599071&#45;&gt;j3499768391</title>
<path fill="none" stroke="green" d="M946.05,-611.96C1011.69,-598.02 1112.96,-576.5 1186.77,-560.81"/>
<polygon fill="green" stroke="green" points="1187.38,-564.26 1196.43,-558.76 1185.93,-557.41 1187.38,-564.26"/>
<text text-anchor="middle" x="1114" y="-579.8" font-family="Times New Roman,serif" font-size="14.00">true</text>
</g>
<!-- j3050599071&#45;&gt;j3499768391 -->
<g id="edge22" class="edge">
<title>j3050599071&#45;&gt;j3499768391</title>
<path fill="none" stroke="brown" d="M975.04,-616.71C1021.78,-611.12 1078.73,-602.75 1129,-591 1160.93,-583.53 1195.72,-572.24 1223.86,-562.27"/>
<polygon fill="brown" stroke="brown" points="1225.03,-565.57 1233.26,-558.89 1222.67,-558.98 1225.03,-565.57"/>
<text text-anchor="middle" x="1192" y="-579.8" font-family="Times New Roman,serif" font-size="14.00">false</text>
</g>
<!-- j2524875815 -->
<g id="node20" class="node">
<title>j2524875815</title>
<polygon fill="none" stroke="red" points="1041,-558 629,-558 629,-522 1041,-522 1041,-558"/>
<text text-anchor="middle" x="835" y="-536.3" font-family="Times New Roman,serif" font-size="14.00">Ich verstehe, warum all die Menschen nach einer Weile verschwimmen.</text>
</g>
<!-- j3050599071&#45;&gt;j2524875815 -->
<g id="edge21" class="edge">
<title>j3050599071&#45;&gt;j2524875815</title>
<path fill="none" stroke="green" d="M851.57,-609.42C845.34,-604.34 839.55,-598.17 836,-591 832.75,-584.44 831.54,-576.78 831.37,-569.45"/>
<polygon fill="green" stroke="green" points="834.86,-569.71 831.79,-559.57 827.86,-569.42 834.86,-569.71"/>
<text text-anchor="middle" x="847" y="-579.8" font-family="Times New Roman,serif" font-size="14.00">true</text>
</g>
<!-- j3050599071&#45;&gt;j2524875815 -->
<g id="edge23" class="edge">
<title>j3050599071&#45;&gt;j2524875815</title>
<path fill="none" stroke="brown" d="M873.16,-608.54C869.13,-598.77 863.71,-586.5 858,-576 856.55,-573.34 854.97,-570.61 853.33,-567.92"/>
<polygon fill="brown" stroke="brown" points="856.43,-566.28 848.1,-559.73 850.53,-570.04 856.43,-566.28"/>
<text text-anchor="middle" x="878" y="-579.8" font-family="Times New Roman,serif" font-size="14.00">false</text>
</g>
<!-- j606763555 -->
<g id="node21" class="node">
<title>j606763555</title>
<polygon fill="none" stroke="red" points="611,-558 349,-558 349,-522 611,-522 611,-558"/>
<text text-anchor="middle" x="480" y="-536.3" font-family="Times New Roman,serif" font-size="14.00">Zumindest bist du eine wirklich sexy Tür. :P</text>
</g>
<!-- j3050599071&#45;&gt;j606763555 -->
<g id="edge24" class="edge">
<title>j3050599071&#45;&gt;j606763555</title>
<path fill="none" stroke="brown" d="M813.95,-611.96C748.31,-598.02 647.04,-576.5 573.23,-560.81"/>
<polygon fill="brown" stroke="brown" points="574.07,-557.41 563.57,-558.76 572.62,-564.26 574.07,-557.41"/>
<text text-anchor="middle" x="716" y="-579.8" font-family="Times New Roman,serif" font-size="14.00">false</text>
</g>
<!-- j291008083 -->
<g id="node22" class="node">
<title>j291008083</title>
<ellipse fill="none" stroke="orange" cx="222" cy="-627" rx="140.28" ry="18"/>
<text text-anchor="middle" x="222" y="-623.3" font-family="Times New Roman,serif" font-size="14.00">Boolean LettieShoulder is now true.</text>
</g>
<!-- j3088533269&#45;&gt;j291008083 -->
<g id="edge25" class="edge">
<title>j3088533269&#45;&gt;j291008083</title>
<path fill="none" stroke="black" d="M222,-681.6C222,-673.22 222,-664.57 222,-656.73"/>
<polygon fill="black" stroke="black" points="225.5,-656.74 222,-646.74 218.5,-656.74 225.5,-656.74"/>
</g>
<!-- j182156106&#45;&gt;j291008083 -->
<g id="edge26" class="edge">
<title>j182156106&#45;&gt;j291008083</title>
<path fill="none" stroke="black" d="M484.29,-689.05C421.81,-674.51 351.11,-658.05 298.87,-645.89"/>
<polygon fill="black" stroke="black" points="299.69,-642.49 289.16,-643.63 298.1,-649.31 299.69,-642.49"/>
</g>
<!-- j4163493988 -->
<g id="node23" class="node">
<title>j4163493988</title>
<polygon fill="none" stroke="blue" points="1285,-477.5 1085,-477.5 1085,-424.5 1285,-424.5 1285,-477.5"/>
<text text-anchor="middle" x="1185" y="-462.3" font-family="Times New Roman,serif" font-size="14.00">Nicht ihre Schuld &#13;</text>
<text text-anchor="middle" x="1185" y="-447.3" font-family="Times New Roman,serif" font-size="14.00">Auch nicht meine Schuld, babas &#13;</text>
<text text-anchor="middle" x="1185" y="-432.3" font-family="Times New Roman,serif" font-size="14.00">Ich bin es einfach leid</text>
</g>
<!-- j3499768391&#45;&gt;j4163493988 -->
<g id="edge27" class="edge">
<title>j3499768391&#45;&gt;j4163493988</title>
<path fill="none" stroke="black" d="M1261.23,-521.81C1249.86,-511.4 1234.96,-497.75 1221.36,-485.3"/>
<polygon fill="black" stroke="black" points="1223.95,-482.93 1214.22,-478.76 1219.23,-488.09 1223.95,-482.93"/>
</g>
<!-- j3218882016 -->
<g id="node24" class="node">
<title>j3218882016</title>
<ellipse fill="none" stroke="orange" cx="835" cy="-451" rx="64.19" ry="18"/>
<text text-anchor="middle" x="835" y="-447.3" font-family="Times New Roman,serif" font-size="14.00">+10 Chemistry</text>
</g>
<!-- j2524875815&#45;&gt;j3218882016 -->
<g id="edge28" class="edge">
<title>j2524875815&#45;&gt;j3218882016</title>
<path fill="none" stroke="black" d="M835,-521.81C835,-510.09 835,-494.29 835,-480.68"/>
<polygon fill="black" stroke="black" points="838.5,-480.96 835,-470.96 831.5,-480.96 838.5,-480.96"/>
</g>
<!-- j2476613767 -->
<g id="node25" class="node">
<title>j2476613767</title>
<ellipse fill="none" stroke="orange" cx="493" cy="-451" rx="64.19" ry="18"/>
<text text-anchor="middle" x="493" y="-447.3" font-family="Times New Roman,serif" font-size="14.00">+20 Chemistry</text>
</g>
<!-- j606763555&#45;&gt;j2476613767 -->
<g id="edge29" class="edge">
<title>j606763555&#45;&gt;j2476613767</title>
<path fill="none" stroke="black" d="M482.57,-521.81C484.32,-510.09 486.68,-494.29 488.71,-480.68"/>
<polygon fill="black" stroke="black" points="492.15,-481.35 490.17,-470.95 485.23,-480.32 492.15,-481.35"/>
</g>
<!-- j2273558438 -->
<g id="node26" class="node">
<title>j2273558438</title>
<ellipse fill="none" stroke="orange" cx="221" cy="-540" rx="64.19" ry="18"/>
<text text-anchor="middle" x="221" y="-536.3" font-family="Times New Roman,serif" font-size="14.00">+20 Chemistry</text>
</g>
<!-- j291008083&#45;&gt;j2273558438 -->
<g id="edge30" class="edge">
<title>j291008083&#45;&gt;j2273558438</title>
<path fill="none" stroke="black" d="M221.8,-608.8C221.67,-597.58 221.49,-582.67 221.34,-569.69"/>
<polygon fill="black" stroke="black" points="224.84,-569.94 221.22,-559.98 217.84,-570.02 224.84,-569.94"/>
</g>
<!-- j1395517516 -->
<g id="node27" class="node">
<title>j1395517516</title>
<polygon fill="none" stroke="blue" points="1106.5,-294 975.5,-294 975.5,-256 1106.5,-256 1106.5,-294"/>
<text text-anchor="middle" x="1041" y="-278.8" font-family="Times New Roman,serif" font-size="14.00">Hablando de &#13;</text>
<text text-anchor="middle" x="1041" y="-263.8" font-family="Times New Roman,serif" font-size="14.00">Zurück an die Arbeit</text>
</g>
<!-- j4163493988&#45;&gt;j1395517516 -->
<g id="edge31" class="edge">
<title>j4163493988&#45;&gt;j1395517516</title>
<path fill="none" stroke="black" d="M1163.75,-424.33C1136.86,-391.84 1090.76,-336.13 1063.36,-303.02"/>
<polygon fill="black" stroke="black" points="1066.19,-300.95 1057.12,-295.48 1060.8,-305.41 1066.19,-300.95"/>
</g>
<!-- j3246229896 -->
<g id="node28" class="node">
<title>j3246229896</title>
<polygon fill="none" stroke="blue" points="998,-380 672,-380 672,-312 998,-312 998,-380"/>
<text text-anchor="middle" x="835" y="-364.8" font-family="Times New Roman,serif" font-size="14.00">Sí, es ist nicht ihre Schuld, dass es immer mehr werden&#13;</text>
<text text-anchor="middle" x="835" y="-349.8" font-family="Times New Roman,serif" font-size="14.00">Ich dachte immer, es würde nie enden &#13;</text>
<text text-anchor="middle" x="835" y="-334.8" font-family="Times New Roman,serif" font-size="14.00">Jetzt weiß ich, es wird wirklich nie enden &#13;</text>
<text text-anchor="middle" x="835" y="-319.8" font-family="Times New Roman,serif" font-size="14.00">Lua, sálvame</text>
</g>
<!-- j3218882016&#45;&gt;j3246229896 -->
<g id="edge32" class="edge">
<title>j3218882016&#45;&gt;j3246229896</title>
<path fill="none" stroke="black" d="M835,-432.53C835,-421.3 835,-406.16 835,-391.74"/>
<polygon fill="black" stroke="black" points="838.5,-391.93 835,-381.93 831.5,-391.93 838.5,-391.93"/>
</g>
<!-- j2875495816 -->
<g id="node29" class="node">
<title>j2875495816</title>
<polygon fill="none" stroke="blue" points="654,-380 352,-380 352,-312 654,-312 654,-380"/>
<text text-anchor="middle" x="503" y="-364.8" font-family="Times New Roman,serif" font-size="14.00">JAJA &#13;</text>
<text text-anchor="middle" x="503" y="-349.8" font-family="Times New Roman,serif" font-size="14.00">Oh, babas, du weißt, wie man eine Dame aufheitert &#13;</text>
<text text-anchor="middle" x="503" y="-334.8" font-family="Times New Roman,serif" font-size="14.00">Leg das auf mein Grab &#13;</text>
<text text-anchor="middle" x="503" y="-319.8" font-family="Times New Roman,serif" font-size="14.00">&quot;Aquí yace la puerta más sexy que hayas visto.&quot;</text>
</g>
<!-- j2476613767&#45;&gt;j2875495816 -->
<g id="edge33" class="edge">
<title>j2476613767&#45;&gt;j2875495816</title>
<path fill="none" stroke="black" d="M494.7,-432.53C495.79,-421.3 497.26,-406.16 498.66,-391.74"/>
<polygon fill="black" stroke="black" points="502.13,-392.21 499.61,-381.92 495.16,-391.54 502.13,-392.21"/>
</g>
<!-- j3684153203 -->
<g id="node30" class="node">
<title>j3684153203</title>
<polygon fill="none" stroke="blue" points="401,-485 39,-485 39,-417 401,-417 401,-485"/>
<text text-anchor="middle" x="220" y="-469.8" font-family="Times New Roman,serif" font-size="14.00">Ich mag diese Frage, babas &#13;</text>
<text text-anchor="middle" x="220" y="-454.8" font-family="Times New Roman,serif" font-size="14.00">Stell sie immer wieder &#13;</text>
<text text-anchor="middle" x="220" y="-439.8" font-family="Times New Roman,serif" font-size="14.00">Vielleicht brauche ich sie von Zeit zu Zeit &#13;</text>
<text text-anchor="middle" x="220" y="-424.8" font-family="Times New Roman,serif" font-size="14.00">Und eine oder zwei Tassen Kaffee können auch nicht schaden</text>
</g>
<!-- j2273558438&#45;&gt;j3684153203 -->
<g id="edge34" class="edge">
<title>j2273558438&#45;&gt;j3684153203</title>
<path fill="none" stroke="black" d="M220.8,-521.81C220.72,-514.5 220.62,-505.6 220.51,-496.63"/>
<polygon fill="black" stroke="black" points="224.02,-496.83 220.4,-486.87 217.02,-496.91 224.02,-496.83"/>
</g>
<!-- j1395517516&#45;&gt;Chat ends. -->
<g id="edge35" class="edge">
<title>j1395517516&#45;&gt;Chat ends.</title>
<path fill="none" stroke="black" d="M1003.1,-255.66C906.42,-208.88 651.35,-85.46 553.23,-37.98"/>
<polygon fill="black" stroke="black" points="554.77,-34.84 544.24,-33.63 551.72,-41.14 554.77,-34.84"/>
</g>
<!-- j4128362202 -->
<g id="node31" class="node">
<title>j4128362202</title>
<polygon fill="none" stroke="blue" points="685.5,-182 530.5,-182 530.5,-129 685.5,-129 685.5,-182"/>
<text text-anchor="middle" x="608" y="-166.8" font-family="Times New Roman,serif" font-size="14.00">Hablando de &#13;</text>
<text text-anchor="middle" x="608" y="-151.8" font-family="Times New Roman,serif" font-size="14.00">Zurück an die Arbeit &#13;</text>
<text text-anchor="middle" x="608" y="-136.8" font-family="Times New Roman,serif" font-size="14.00">Danke für die Ablenkung</text>
</g>
<!-- j3246229896&#45;&gt;j4128362202 -->
<g id="edge36" class="edge">
<title>j3246229896&#45;&gt;j4128362202</title>
<path fill="none" stroke="black" d="M794.68,-311.52C753.25,-277.12 689.16,-223.89 647.89,-189.63"/>
<polygon fill="black" stroke="black" points="650.29,-187.07 640.36,-183.37 645.82,-192.45 650.29,-187.07"/>
</g>
<!-- j222429230 -->
<g id="node32" class="node">
<title>j222429230</title>
<polygon fill="none" stroke="blue" points="638,-238 438,-238 438,-200 638,-200 638,-238"/>
<text text-anchor="middle" x="538" y="-222.8" font-family="Times New Roman,serif" font-size="14.00">Gracias por hacerme reír, babas &#13;</text>
<text text-anchor="middle" x="538" y="-207.8" font-family="Times New Roman,serif" font-size="14.00">Das brauchte ich</text>
</g>
<!-- j2875495816&#45;&gt;j222429230 -->
<g id="edge37" class="edge">
<title>j2875495816&#45;&gt;j222429230</title>
<path fill="none" stroke="black" d="M512.38,-311.5C517.79,-292.19 524.52,-268.13 529.73,-249.53"/>
<polygon fill="black" stroke="black" points="533.09,-250.5 532.42,-239.93 526.35,-248.62 533.09,-250.5"/>
</g>
<!-- j3637400474 -->
<g id="node33" class="node">
<title>j3637400474</title>
<ellipse fill="none" stroke="orange" cx="220" cy="-346" rx="113.98" ry="18"/>
<text text-anchor="middle" x="220" y="-342.3" font-family="Times New Roman,serif" font-size="14.00">Check boolean LettieNoFlirt</text>
</g>
<!-- j3684153203&#45;&gt;j3637400474 -->
<g id="edge38" class="edge">
<title>j3684153203&#45;&gt;j3637400474</title>
<path fill="none" stroke="black" d="M220,-416.56C220,-403.38 220,-388.4 220,-375.72"/>
<polygon fill="black" stroke="black" points="223.5,-375.92 220,-365.92 216.5,-375.92 223.5,-375.92"/>
</g>
<!-- j4128362202&#45;&gt;Chat ends. -->
<g id="edge39" class="edge">
<title>j4128362202&#45;&gt;Chat ends.</title>
<path fill="none" stroke="black" d="M590.1,-128.69C573.43,-104.67 548.72,-69.04 532.01,-44.97"/>
<polygon fill="black" stroke="black" points="535.05,-43.2 526.47,-36.98 529.29,-47.19 535.05,-43.2"/>
</g>
<!-- j1717124231 -->
<g id="node34" class="node">
<title>j1717124231</title>
<polygon fill="none" stroke="blue" points="490,-111 278,-111 278,-73 490,-73 490,-111"/>
<text text-anchor="middle" x="384" y="-95.8" font-family="Times New Roman,serif" font-size="14.00">Zurück an die Arbeit, ¿no?&#13;</text>
<text text-anchor="middle" x="384" y="-80.8" font-family="Times New Roman,serif" font-size="14.00">Wir sind beide zu beschäftigt dafür</text>
</g>
<!-- j222429230&#45;&gt;j1717124231 -->
<g id="edge40" class="edge">
<title>j222429230&#45;&gt;j1717124231</title>
<path fill="none" stroke="black" d="M515.28,-199.56C488.81,-178.08 444.95,-142.47 415.28,-118.39"/>
<polygon fill="black" stroke="black" points="417.71,-115.85 407.74,-112.27 413.3,-121.29 417.71,-115.85"/>
</g>
<!-- j3200498025 -->
<g id="node35" class="node">
<title>j3200498025</title>
<polygon fill="none" stroke="red" points="420,-237 348,-237 348,-201 420,-201 420,-237"/>
<text text-anchor="middle" x="384" y="-215.3" font-family="Times New Roman,serif" font-size="14.00">Alles klar.</text>
</g>
<!-- j3637400474&#45;&gt;j3200498025 -->
<g id="edge41" class="edge">
<title>j3637400474&#45;&gt;j3200498025</title>
<path fill="none" stroke="green" d="M246.12,-328.13C260.73,-318.48 279.15,-305.93 295,-294 315.92,-278.25 338.59,-259.37 355.82,-244.61"/>
<polygon fill="green" stroke="green" points="357.86,-247.48 363.15,-238.3 353.29,-242.18 357.86,-247.48"/>
<text text-anchor="middle" x="352" y="-271.3" font-family="Times New Roman,serif" font-size="14.00">true</text>
</g>
<!-- j3322516670 -->
<g id="node36" class="node">
<title>j3322516670</title>
<polygon fill="none" stroke="red" points="220,-237 42,-237 42,-201 220,-201 220,-237"/>
<text text-anchor="middle" x="131" y="-215.3" font-family="Times New Roman,serif" font-size="14.00">Ich seh zu, was ich tun kann.</text>
</g>
<!-- j3637400474&#45;&gt;j3322516670 -->
<g id="edge42" class="edge">
<title>j3637400474&#45;&gt;j3322516670</title>
<path fill="none" stroke="green" d="M200.1,-327.86C190,-318.51 178,-306.34 169,-294 158.56,-279.68 149.4,-262.08 142.69,-247.64"/>
<polygon fill="green" stroke="green" points="145.96,-246.39 138.67,-238.7 139.57,-249.26 145.96,-246.39"/>
<text text-anchor="middle" x="180" y="-271.3" font-family="Times New Roman,serif" font-size="14.00">true</text>
</g>
<!-- j3637400474&#45;&gt;j3322516670 -->
<g id="edge44" class="edge">
<title>j3637400474&#45;&gt;j3322516670</title>
<path fill="none" stroke="brown" d="M218,-327.56C215.01,-308.26 207.81,-277.1 191,-256 187.45,-251.54 183.18,-247.51 178.58,-243.89"/>
<polygon fill="brown" stroke="brown" points="180.86,-241.22 170.67,-238.33 176.84,-246.94 180.86,-241.22"/>
<text text-anchor="middle" x="222" y="-271.3" font-family="Times New Roman,serif" font-size="14.00">false</text>
</g>
<!-- j4051801997 -->
<g id="node37" class="node">
<title>j4051801997</title>
<polygon fill="none" stroke="red" points="329.5,-237 238.5,-237 238.5,-201 329.5,-201 329.5,-237"/>
<text text-anchor="middle" x="284" y="-215.3" font-family="Times New Roman,serif" font-size="14.00">Alles klar. &lt;3</text>
</g>
<!-- j3637400474&#45;&gt;j4051801997 -->
<g id="edge43" class="edge">
<title>j3637400474&#45;&gt;j4051801997</title>
<path fill="none" stroke="brown" d="M228.9,-327.62C239.55,-306.82 257.51,-271.73 270.02,-247.3"/>
<polygon fill="brown" stroke="brown" points="273.04,-249.08 274.49,-238.58 266.81,-245.89 273.04,-249.08"/>
<text text-anchor="middle" x="278" y="-271.3" font-family="Times New Roman,serif" font-size="14.00">false</text>
</g>
<!-- j1717124231&#45;&gt;Chat ends. -->
<g id="edge45" class="edge">
<title>j1717124231&#45;&gt;Chat ends.</title>
<path fill="none" stroke="black" d="M417.14,-72.65C435.55,-62.45 458.48,-49.75 477.41,-39.26"/>
<polygon fill="black" stroke="black" points="479.09,-42.34 486.14,-34.43 475.7,-36.21 479.09,-42.34"/>
</g>
<!-- j3200498025&#45;&gt;j1717124231 -->
<g id="edge46" class="edge">
<title>j3200498025&#45;&gt;j1717124231</title>
<path fill="none" stroke="black" d="M384,-200.62C384,-180.53 384,-147.14 384,-122.86"/>
<polygon fill="black" stroke="black" points="387.5,-122.97 384,-112.97 380.5,-122.97 387.5,-122.97"/>
</g>
<!-- j3322516670&#45;&gt;j1717124231 -->
<g id="edge47" class="edge">
<title>j3322516670&#45;&gt;j1717124231</title>
<path fill="none" stroke="black" d="M165.37,-200.61C201.17,-182.55 258.89,-153.55 309,-129 317.48,-124.84 326.53,-120.46 335.29,-116.24"/>
<polygon fill="black" stroke="black" points="336.54,-119.52 344.04,-112.04 333.51,-113.21 336.54,-119.52"/>
</g>
<!-- j4051801997&#45;&gt;j1717124231 -->
<g id="edge48" class="edge">
<title>j4051801997&#45;&gt;j1717124231</title>
<path fill="none" stroke="black" d="M297.9,-200.62C314.56,-179.8 342.66,-144.68 362.21,-120.24"/>
<polygon fill="black" stroke="black" points="364.78,-122.63 368.29,-112.63 359.31,-118.26 364.78,-122.63"/>
</g>
</g>
</svg>
