<?xml version="1.0" encoding="UTF-8" standalone="no"?>
<!DOCTYPE svg PUBLIC "-//W3C//DTD SVG 1.1//EN"
 "http://www.w3.org/Graphics/SVG/1.1/DTD/svg11.dtd">
<!-- Generated by graphviz version 7.1.0 (20230121.1956)
 -->
<!-- Pages: 1 -->
<svg width="1668pt" height="1196pt"
 viewBox="0.00 0.00 1668.00 1196.00" xmlns="http://www.w3.org/2000/svg" xmlns:xlink="http://www.w3.org/1999/xlink">
<g id="graph0" class="graph" transform="scale(1 1) rotate(0) translate(4 1192)">
<polygon fill="white" stroke="none" points="-4,4 -4,-1192 1664,-1192 1664,4 -4,4"/>
<!-- ArthurRank1Convo3 begins. -->
<g id="node1" class="node">
<title>ArthurRank1Convo3 begins.</title>
<ellipse fill="none" stroke="orange" cx="1187" cy="-1170" rx="115.08" ry="18"/>
<text text-anchor="middle" x="1187" y="-1166.3" font-family="Times New Roman,serif" font-size="14.00">ArthurRank1Convo3 begins.</text>
</g>
<!-- j596319884 -->
<g id="node2" class="node">
<title>j596319884</title>
<polygon fill="none" stroke="red" points="1164.5,-1116 883.5,-1116 883.5,-1080 1164.5,-1080 1164.5,-1116"/>
<text text-anchor="middle" x="1024" y="-1094.3" font-family="Times New Roman,serif" font-size="14.00">Mi piacerebbe molto provare il tuo Atomicycle.</text>
</g>
<!-- ArthurRank1Convo3 begins.&#45;&gt;j596319884 -->
<g id="edge1" class="edge">
<title>ArthurRank1Convo3 begins.&#45;&gt;j596319884</title>
<path fill="none" stroke="black" d="M1148.78,-1152.59C1126.73,-1143.12 1098.73,-1131.09 1074.84,-1120.83"/>
<polygon fill="black" stroke="black" points="1076.5,-1117.74 1065.93,-1117.01 1073.74,-1124.17 1076.5,-1117.74"/>
</g>
<!-- j2124737673 -->
<g id="node3" class="node">
<title>j2124737673</title>
<polygon fill="none" stroke="red" points="1517,-1116 1183,-1116 1183,-1080 1517,-1080 1517,-1116"/>
<text text-anchor="middle" x="1350" y="-1094.3" font-family="Times New Roman,serif" font-size="14.00">Ehi, ti dispiace se prendo in prestito il tuo Atomicycle? ;)</text>
</g>
<!-- ArthurRank1Convo3 begins.&#45;&gt;j2124737673 -->
<g id="edge2" class="edge">
<title>ArthurRank1Convo3 begins.&#45;&gt;j2124737673</title>
<path fill="none" stroke="black" d="M1225.22,-1152.59C1247.27,-1143.12 1275.27,-1131.09 1299.16,-1120.83"/>
<polygon fill="black" stroke="black" points="1300.26,-1124.17 1308.07,-1117.01 1297.5,-1117.74 1300.26,-1124.17"/>
</g>
<!-- j3813711070 -->
<g id="node4" class="node">
<title>j3813711070</title>
<polygon fill="none" stroke="blue" points="1051,-828 997,-828 997,-792 1051,-792 1051,-828"/>
<text text-anchor="middle" x="1024" y="-806.3" font-family="Times New Roman,serif" font-size="14.00">No.</text>
</g>
<!-- j596319884&#45;&gt;j3813711070 -->
<g id="edge3" class="edge">
<title>j596319884&#45;&gt;j3813711070</title>
<path fill="none" stroke="black" d="M1024,-1079.54C1024,-1031.76 1024,-898.51 1024,-839.61"/>
<polygon fill="black" stroke="black" points="1027.5,-839.75 1024,-829.75 1020.5,-839.75 1027.5,-839.75"/>
</g>
<!-- j1017711041 -->
<g id="node5" class="node">
<title>j1017711041</title>
<polygon fill="none" stroke="blue" points="1464,-1044 1236,-1044 1236,-1008 1464,-1008 1464,-1044"/>
<text text-anchor="middle" x="1350" y="-1022.3" font-family="Times New Roman,serif" font-size="14.00">Se lo tocchi ti ucciderò mentre dormi.</text>
</g>
<!-- j2124737673&#45;&gt;j1017711041 -->
<g id="edge4" class="edge">
<title>j2124737673&#45;&gt;j1017711041</title>
<path fill="none" stroke="black" d="M1350,-1079.7C1350,-1072.41 1350,-1063.73 1350,-1055.54"/>
<polygon fill="black" stroke="black" points="1353.5,-1055.62 1350,-1045.62 1346.5,-1055.62 1353.5,-1055.62"/>
</g>
<!-- j3969639781 -->
<g id="node6" class="node">
<title>j3969639781</title>
<polygon fill="none" stroke="red" points="906.5,-756 589.5,-756 589.5,-720 906.5,-720 906.5,-756"/>
<text text-anchor="middle" x="748" y="-734.3" font-family="Times New Roman,serif" font-size="14.00">Dai. Qual è la cosa peggiore che potrebbe succedere?</text>
</g>
<!-- j3813711070&#45;&gt;j3969639781 -->
<g id="edge5" class="edge">
<title>j3813711070&#45;&gt;j3969639781</title>
<path fill="none" stroke="black" d="M996.53,-802.03C957.6,-792.16 884.82,-773.7 828.04,-759.3"/>
<polygon fill="black" stroke="black" points="828.94,-755.92 818.38,-756.85 827.21,-762.7 828.94,-755.92"/>
</g>
<!-- j216809792 -->
<g id="node7" class="node">
<title>j216809792</title>
<polygon fill="none" stroke="red" points="1219,-756 925,-756 925,-720 1219,-720 1219,-756"/>
<text text-anchor="middle" x="1072" y="-734.3" font-family="Times New Roman,serif" font-size="14.00">Ok, tu guidi. Io mi siedo dietro. E mi godo il giro.</text>
</g>
<!-- j3813711070&#45;&gt;j216809792 -->
<g id="edge6" class="edge">
<title>j3813711070&#45;&gt;j216809792</title>
<path fill="none" stroke="black" d="M1035.87,-791.7C1041.27,-783.81 1047.79,-774.3 1053.8,-765.55"/>
<polygon fill="black" stroke="black" points="1056.65,-767.58 1059.42,-757.35 1050.87,-763.62 1056.65,-767.58"/>
</g>
<!-- j3612614688 -->
<g id="node8" class="node">
<title>j3612614688</title>
<polygon fill="none" stroke="blue" points="1442,-972 1258,-972 1258,-936 1442,-936 1442,-972"/>
<text text-anchor="middle" x="1350" y="-950.3" font-family="Times New Roman,serif" font-size="14.00">E nessuno troverà il cadavere.</text>
</g>
<!-- j1017711041&#45;&gt;j3612614688 -->
<g id="edge7" class="edge">
<title>j1017711041&#45;&gt;j3612614688</title>
<path fill="none" stroke="black" d="M1350,-1007.7C1350,-1000.41 1350,-991.73 1350,-983.54"/>
<polygon fill="black" stroke="black" points="1353.5,-983.62 1350,-973.62 1346.5,-983.62 1353.5,-983.62"/>
</g>
<!-- j328132703 -->
<g id="node9" class="node">
<title>j328132703</title>
<polygon fill="none" stroke="blue" points="782,-684 728,-684 728,-648 782,-648 782,-684"/>
<text text-anchor="middle" x="755" y="-662.3" font-family="Times New Roman,serif" font-size="14.00">*No.*</text>
</g>
<!-- j3969639781&#45;&gt;j328132703 -->
<g id="edge8" class="edge">
<title>j3969639781&#45;&gt;j328132703</title>
<path fill="none" stroke="black" d="M749.73,-719.7C750.46,-712.41 751.33,-703.73 752.15,-695.54"/>
<polygon fill="black" stroke="black" points="755.63,-695.91 753.14,-685.61 748.66,-695.21 755.63,-695.91"/>
</g>
<!-- j216809792&#45;&gt;j328132703 -->
<g id="edge9" class="edge">
<title>j216809792&#45;&gt;j328132703</title>
<path fill="none" stroke="black" d="M992.83,-719.52C929.16,-705.46 842.49,-686.32 793.28,-675.45"/>
<polygon fill="black" stroke="black" points="794.2,-672.07 783.68,-673.33 792.69,-678.91 794.2,-672.07"/>
</g>
<!-- j609313674 -->
<g id="node10" class="node">
<title>j609313674</title>
<polygon fill="none" stroke="blue" points="1377,-900 1323,-900 1323,-864 1377,-864 1377,-900"/>
<text text-anchor="middle" x="1350" y="-878.3" font-family="Times New Roman,serif" font-size="14.00">Fidati.</text>
</g>
<!-- j3612614688&#45;&gt;j609313674 -->
<g id="edge10" class="edge">
<title>j3612614688&#45;&gt;j609313674</title>
<path fill="none" stroke="black" d="M1350,-935.7C1350,-928.41 1350,-919.73 1350,-911.54"/>
<polygon fill="black" stroke="black" points="1353.5,-911.62 1350,-901.62 1346.5,-911.62 1353.5,-911.62"/>
</g>
<!-- j1068634611 -->
<g id="node11" class="node">
<title>j1068634611</title>
<polygon fill="none" stroke="red" points="783.5,-612 704.5,-612 704.5,-576 783.5,-576 783.5,-612"/>
<text text-anchor="middle" x="744" y="-590.3" font-family="Times New Roman,serif" font-size="14.00">Perché no?</text>
</g>
<!-- j328132703&#45;&gt;j1068634611 -->
<g id="edge11" class="edge">
<title>j328132703&#45;&gt;j1068634611</title>
<path fill="none" stroke="black" d="M752.28,-647.7C751.12,-640.32 749.74,-631.52 748.44,-623.25"/>
<polygon fill="black" stroke="black" points="751.93,-622.93 746.92,-613.6 745.02,-624.02 751.93,-622.93"/>
</g>
<!-- j2584213441 -->
<g id="node12" class="node">
<title>j2584213441</title>
<polygon fill="none" stroke="red" points="867.5,-252 778.5,-252 778.5,-216 867.5,-216 867.5,-252"/>
<text text-anchor="middle" x="823" y="-230.3" font-family="Times New Roman,serif" font-size="14.00">Bene. [Fine.]</text>
</g>
<!-- j328132703&#45;&gt;j2584213441 -->
<g id="edge12" class="edge">
<title>j328132703&#45;&gt;j2584213441</title>
<path fill="none" stroke="black" d="M769.21,-647.86C788.88,-622.34 822,-572.07 822,-523 822,-523 822,-523 822,-377 822,-337.74 822.39,-292.37 822.68,-263.69"/>
<polygon fill="black" stroke="black" points="826.18,-264.04 822.78,-254 819.18,-263.96 826.18,-264.04"/>
</g>
<!-- j1761308329 -->
<g id="node13" class="node">
<title>j1761308329</title>
<polygon fill="none" stroke="red" points="1432,-828 1240,-828 1240,-792 1432,-792 1432,-828"/>
<text text-anchor="middle" x="1336" y="-806.3" font-family="Times New Roman,serif" font-size="14.00">Calma! Stavo solo scherzando!</text>
</g>
<!-- j609313674&#45;&gt;j1761308329 -->
<g id="edge13" class="edge">
<title>j609313674&#45;&gt;j1761308329</title>
<path fill="none" stroke="black" d="M1346.54,-863.7C1345.06,-856.32 1343.3,-847.52 1341.65,-839.25"/>
<polygon fill="black" stroke="black" points="1345.11,-838.71 1339.72,-829.59 1338.25,-840.08 1345.11,-838.71"/>
</g>
<!-- j2251264701 -->
<g id="node14" class="node">
<title>j2251264701</title>
<polygon fill="none" stroke="red" points="1660,-684 1404,-684 1404,-648 1660,-648 1660,-684"/>
<text text-anchor="middle" x="1532" y="-662.3" font-family="Times New Roman,serif" font-size="14.00">Fai finta che non abbia detto niente. [Fine.]</text>
</g>
<!-- j609313674&#45;&gt;j2251264701 -->
<g id="edge14" class="edge">
<title>j609313674&#45;&gt;j2251264701</title>
<path fill="none" stroke="black" d="M1377.21,-869.82C1396.76,-860.76 1422.76,-846.48 1441,-828 1479.87,-788.62 1507.65,-729.29 1521.65,-694.72"/>
<polygon fill="black" stroke="black" points="1524.75,-696.42 1525.16,-685.83 1518.23,-693.85 1524.75,-696.42"/>
</g>
<!-- j3211193304 -->
<g id="node15" class="node">
<title>j3211193304</title>
<polygon fill="none" stroke="blue" points="794,-540 378,-540 378,-504 794,-504 794,-540"/>
<text text-anchor="middle" x="586" y="-518.3" font-family="Times New Roman,serif" font-size="14.00">Perché è il mio orgoglio e la mia gioia. E se lo prenderai me lo rovinerai.</text>
</g>
<!-- j1068634611&#45;&gt;j3211193304 -->
<g id="edge15" class="edge">
<title>j1068634611&#45;&gt;j3211193304</title>
<path fill="none" stroke="black" d="M704.54,-575.52C683.63,-566.25 657.74,-554.78 635.49,-544.93"/>
<polygon fill="black" stroke="black" points="637.18,-541.85 626.62,-540.99 634.34,-548.25 637.18,-541.85"/>
</g>
<!-- Chat ends. -->
<g id="node16" class="node">
<title>Chat ends.</title>
<ellipse fill="none" stroke="orange" cx="964" cy="-18" rx="50.09" ry="18"/>
<text text-anchor="middle" x="964" y="-14.3" font-family="Times New Roman,serif" font-size="14.00">Chat ends.</text>
</g>
<!-- j2584213441&#45;&gt;Chat ends. -->
<g id="edge16" class="edge">
<title>j2584213441&#45;&gt;Chat ends.</title>
<path fill="none" stroke="black" d="M825.02,-215.71C827.59,-197.36 832.96,-167.78 843,-144 857.87,-108.8 863.57,-99.6 890,-72 901.52,-59.97 916.1,-48.86 929.27,-39.95"/>
<polygon fill="black" stroke="black" points="930.83,-43.11 937.28,-34.7 926.99,-37.26 930.83,-43.11"/>
</g>
<!-- j1877850324 -->
<g id="node17" class="node">
<title>j1877850324</title>
<ellipse fill="none" stroke="orange" cx="1323" cy="-738" rx="64.19" ry="18"/>
<text text-anchor="middle" x="1323" y="-734.3" font-family="Times New Roman,serif" font-size="14.00">+10 Chemistry</text>
</g>
<!-- j1761308329&#45;&gt;j1877850324 -->
<g id="edge17" class="edge">
<title>j1761308329&#45;&gt;j1877850324</title>
<path fill="none" stroke="black" d="M1332.79,-791.7C1331.42,-784.32 1329.78,-775.52 1328.25,-767.25"/>
<polygon fill="black" stroke="black" points="1331.72,-766.79 1326.45,-757.59 1324.84,-768.06 1331.72,-766.79"/>
</g>
<!-- j2251264701&#45;&gt;Chat ends. -->
<g id="edge18" class="edge">
<title>j2251264701&#45;&gt;Chat ends.</title>
<path fill="none" stroke="black" d="M1532,-647.51C1532,-620.71 1532,-567.87 1532,-523 1532,-523 1532,-523 1532,-161 1532,-57.46 1172.26,-28.78 1025.36,-21.39"/>
<polygon fill="black" stroke="black" points="1025.58,-17.9 1015.42,-20.91 1025.24,-24.89 1025.58,-17.9"/>
</g>
<!-- j124973504 -->
<g id="node18" class="node">
<title>j124973504</title>
<polygon fill="none" stroke="red" points="378,-468 8,-468 8,-432 378,-432 378,-468"/>
<text text-anchor="middle" x="193" y="-446.3" font-family="Times New Roman,serif" font-size="14.00">Perché mai hai pensato che avrei preso qualcosa di tuo e &#45; oh...</text>
</g>
<!-- j3211193304&#45;&gt;j124973504 -->
<g id="edge19" class="edge">
<title>j3211193304&#45;&gt;j124973504</title>
<path fill="none" stroke="black" d="M487.84,-503.52C431.35,-493.45 360.24,-480.79 302.02,-470.42"/>
<polygon fill="black" stroke="black" points="302.88,-467.02 292.42,-468.71 301.65,-473.91 302.88,-467.02"/>
</g>
<!-- j836926142 -->
<g id="node19" class="node">
<title>j836926142</title>
<polygon fill="none" stroke="red" points="793.5,-468 396.5,-468 396.5,-432 793.5,-432 793.5,-468"/>
<text text-anchor="middle" x="595" y="-446.3" font-family="Times New Roman,serif" font-size="14.00">Va bene. Vado a prendermene uno mio. E sarà pure più figo. [Fine.]</text>
</g>
<!-- j3211193304&#45;&gt;j836926142 -->
<g id="edge20" class="edge">
<title>j3211193304&#45;&gt;j836926142</title>
<path fill="none" stroke="black" d="M588.22,-503.7C589.17,-496.32 590.3,-487.52 591.37,-479.25"/>
<polygon fill="black" stroke="black" points="594.8,-479.97 592.61,-469.61 587.86,-479.08 594.8,-479.97"/>
</g>
<!-- j3604183280 -->
<g id="node20" class="node">
<title>j3604183280</title>
<polygon fill="none" stroke="blue" points="1386,-684 1238,-684 1238,-648 1386,-648 1386,-684"/>
<text text-anchor="middle" x="1312" y="-662.3" font-family="Times New Roman,serif" font-size="14.00">Come potevo saperlo?!</text>
</g>
<!-- j1877850324&#45;&gt;j3604183280 -->
<g id="edge21" class="edge">
<title>j1877850324&#45;&gt;j3604183280</title>
<path fill="none" stroke="black" d="M1320.28,-719.7C1319.12,-712.32 1317.74,-703.52 1316.44,-695.25"/>
<polygon fill="black" stroke="black" points="1319.93,-694.93 1314.92,-685.6 1313.02,-696.02 1319.93,-694.93"/>
</g>
<!-- j3030746324 -->
<g id="node21" class="node">
<title>j3030746324</title>
<polygon fill="none" stroke="red" points="243,-396 131,-396 131,-360 243,-360 243,-396"/>
<text text-anchor="middle" x="187" y="-374.3" font-family="Times New Roman,serif" font-size="14.00">Capito l&#39;antifona.</text>
</g>
<!-- j124973504&#45;&gt;j3030746324 -->
<g id="edge22" class="edge">
<title>j124973504&#45;&gt;j3030746324</title>
<path fill="none" stroke="black" d="M191.52,-431.7C190.89,-424.41 190.15,-415.73 189.45,-407.54"/>
<polygon fill="black" stroke="black" points="192.94,-407.28 188.6,-397.61 185.96,-407.87 192.94,-407.28"/>
</g>
<!-- j3908038758 -->
<g id="node22" class="node">
<title>j3908038758</title>
<polygon fill="none" stroke="red" points="482.5,-396 289.5,-396 289.5,-360 482.5,-360 482.5,-396"/>
<text text-anchor="middle" x="386" y="-374.3" font-family="Times New Roman,serif" font-size="14.00">Userò... semplicemente il mio...</text>
</g>
<!-- j124973504&#45;&gt;j3908038758 -->
<g id="edge23" class="edge">
<title>j124973504&#45;&gt;j3908038758</title>
<path fill="none" stroke="black" d="M241.2,-431.52C267.32,-422.04 299.81,-410.26 327.38,-400.26"/>
<polygon fill="black" stroke="black" points="328.45,-403.6 336.65,-396.9 326.06,-397.02 328.45,-403.6"/>
</g>
<!-- j189520176 -->
<g id="node23" class="node">
<title>j189520176</title>
<polygon fill="none" stroke="blue" points="796,-180 644,-180 644,-144 796,-144 796,-180"/>
<text text-anchor="middle" x="720" y="-158.3" font-family="Times New Roman,serif" font-size="14.00">Sono sicuro che lo sarà.</text>
</g>
<!-- j836926142&#45;&gt;j189520176 -->
<g id="edge24" class="edge">
<title>j836926142&#45;&gt;j189520176</title>
<path fill="none" stroke="black" d="M602.63,-431.54C623.65,-383.46 682.49,-248.83 707.98,-190.51"/>
<polygon fill="black" stroke="black" points="711.06,-192.18 711.86,-181.62 704.65,-189.38 711.06,-192.18"/>
</g>
<!-- j2738039515 -->
<g id="node24" class="node">
<title>j2738039515</title>
<polygon fill="none" stroke="red" points="1389.5,-612 1150.5,-612 1150.5,-576 1389.5,-576 1389.5,-612"/>
<text text-anchor="middle" x="1270" y="-590.3" font-family="Times New Roman,serif" font-size="14.00">La faccina ammiccante serviva a quello!</text>
</g>
<!-- j3604183280&#45;&gt;j2738039515 -->
<g id="edge25" class="edge">
<title>j3604183280&#45;&gt;j2738039515</title>
<path fill="none" stroke="black" d="M1301.62,-647.7C1296.94,-639.9 1291.31,-630.51 1286.1,-621.83"/>
<polygon fill="black" stroke="black" points="1289.19,-620.18 1281.04,-613.4 1283.19,-623.78 1289.19,-620.18"/>
</g>
<!-- j1529457376 -->
<g id="node25" class="node">
<title>j1529457376</title>
<polygon fill="none" stroke="red" points="1503.5,-540 1372.5,-540 1372.5,-504 1503.5,-504 1503.5,-540"/>
<text text-anchor="middle" x="1438" y="-518.3" font-family="Times New Roman,serif" font-size="14.00">Non importa. [Fine.]</text>
</g>
<!-- j3604183280&#45;&gt;j1529457376 -->
<g id="edge26" class="edge">
<title>j3604183280&#45;&gt;j1529457376</title>
<path fill="none" stroke="black" d="M1351.24,-647.71C1367.68,-638.92 1385.96,-626.91 1399,-612 1414.26,-594.54 1424.38,-570.17 1430.48,-551.34"/>
<polygon fill="black" stroke="black" points="1433.79,-552.48 1433.32,-541.9 1427.09,-550.46 1433.79,-552.48"/>
</g>
<!-- j914279382 -->
<g id="node26" class="node">
<title>j914279382</title>
<polygon fill="none" stroke="blue" points="368,-324 0,-324 0,-288 368,-288 368,-324"/>
<text text-anchor="middle" x="184" y="-302.3" font-family="Times New Roman,serif" font-size="14.00">Potresti essere molte cose, Drifter. Ma almeno non sei stupido.</text>
</g>
<!-- j3030746324&#45;&gt;j914279382 -->
<g id="edge27" class="edge">
<title>j3030746324&#45;&gt;j914279382</title>
<path fill="none" stroke="black" d="M186.26,-359.7C185.95,-352.41 185.57,-343.73 185.22,-335.54"/>
<polygon fill="black" stroke="black" points="188.72,-335.46 184.8,-325.62 181.73,-335.76 188.72,-335.46"/>
</g>
<!-- j3683427426 -->
<g id="node27" class="node">
<title>j3683427426</title>
<polygon fill="none" stroke="blue" points="440,-324 386,-324 386,-288 440,-288 440,-324"/>
<text text-anchor="middle" x="413" y="-302.3" font-family="Times New Roman,serif" font-size="14.00">Sigh.</text>
</g>
<!-- j3908038758&#45;&gt;j3683427426 -->
<g id="edge28" class="edge">
<title>j3908038758&#45;&gt;j3683427426</title>
<path fill="none" stroke="black" d="M392.67,-359.7C395.58,-352.15 399.07,-343.12 402.32,-334.68"/>
<polygon fill="black" stroke="black" points="405.52,-336.11 405.86,-325.52 398.99,-333.59 405.52,-336.11"/>
</g>
<!-- j189520176&#45;&gt;Chat ends. -->
<g id="edge29" class="edge">
<title>j189520176&#45;&gt;Chat ends.</title>
<path fill="none" stroke="black" d="M733.47,-143.58C749.68,-123.72 778.64,-91.47 810,-72 841.02,-52.74 879.93,-39.42 910.88,-30.96"/>
<polygon fill="black" stroke="black" points="911.65,-34.37 920.43,-28.44 909.87,-27.6 911.65,-34.37"/>
</g>
<!-- j2481871400 -->
<g id="node28" class="node">
<title>j2481871400</title>
<polygon fill="none" stroke="blue" points="1354,-540 1174,-540 1174,-504 1354,-504 1354,-540"/>
<text text-anchor="middle" x="1264" y="-518.3" font-family="Times New Roman,serif" font-size="14.00">Quale &quot;faccina ammiccante&quot;?</text>
</g>
<!-- j2738039515&#45;&gt;j2481871400 -->
<g id="edge30" class="edge">
<title>j2738039515&#45;&gt;j2481871400</title>
<path fill="none" stroke="black" d="M1268.52,-575.7C1267.89,-568.41 1267.15,-559.73 1266.45,-551.54"/>
<polygon fill="black" stroke="black" points="1269.94,-551.28 1265.6,-541.61 1262.96,-551.87 1269.94,-551.28"/>
</g>
<!-- j1529457376&#45;&gt;Chat ends. -->
<g id="edge31" class="edge">
<title>j1529457376&#45;&gt;Chat ends.</title>
<path fill="none" stroke="black" d="M1445.29,-503.87C1455.8,-477.53 1474,-425.29 1474,-379 1474,-379 1474,-379 1474,-161 1474,-68.57 1159.17,-33.72 1024.23,-23.03"/>
<polygon fill="black" stroke="black" points="1024.65,-19.56 1014.41,-22.28 1024.11,-26.54 1024.65,-19.56"/>
</g>
<!-- j1794930167 -->
<g id="node29" class="node">
<title>j1794930167</title>
<ellipse fill="none" stroke="orange" cx="412" cy="-234" rx="64.19" ry="18"/>
<text text-anchor="middle" x="412" y="-230.3" font-family="Times New Roman,serif" font-size="14.00">+20 Chemistry</text>
</g>
<!-- j914279382&#45;&gt;j1794930167 -->
<g id="edge32" class="edge">
<title>j914279382&#45;&gt;j1794930167</title>
<path fill="none" stroke="black" d="M240.95,-287.52C277.16,-276.4 323.73,-262.1 359.14,-251.23"/>
<polygon fill="black" stroke="black" points="359.76,-254.7 368.29,-248.42 357.71,-248.01 359.76,-254.7"/>
</g>
<!-- j3683427426&#45;&gt;j1794930167 -->
<g id="edge33" class="edge">
<title>j3683427426&#45;&gt;j1794930167</title>
<path fill="none" stroke="black" d="M412.75,-287.7C412.65,-280.41 412.52,-271.73 412.41,-263.54"/>
<polygon fill="black" stroke="black" points="415.91,-263.57 412.27,-253.62 408.91,-263.67 415.91,-263.57"/>
</g>
<!-- j1057709851 -->
<g id="node30" class="node">
<title>j1057709851</title>
<polygon fill="none" stroke="red" points="1227.5,-468 850.5,-468 850.5,-432 1227.5,-432 1227.5,-468"/>
<text text-anchor="middle" x="1039" y="-446.3" font-family="Times New Roman,serif" font-size="14.00">Ruota la testa a sinistra e cerca la faccina. Si chiama &quot;emoticon&quot;.</text>
</g>
<!-- j2481871400&#45;&gt;j1057709851 -->
<g id="edge34" class="edge">
<title>j2481871400&#45;&gt;j1057709851</title>
<path fill="none" stroke="black" d="M1207.8,-503.52C1176.81,-493.88 1138.14,-481.84 1105.64,-471.73"/>
<polygon fill="black" stroke="black" points="1106.9,-468.46 1096.31,-468.83 1104.82,-475.14 1106.9,-468.46"/>
</g>
<!-- j1500677315 -->
<g id="node31" class="node">
<title>j1500677315</title>
<polygon fill="none" stroke="red" points="1446,-468 1246,-468 1246,-432 1446,-432 1446,-468"/>
<text text-anchor="middle" x="1346" y="-446.3" font-family="Times New Roman,serif" font-size="14.00">Ah, adesso ha molto più senso...</text>
</g>
<!-- j2481871400&#45;&gt;j1500677315 -->
<g id="edge35" class="edge">
<title>j2481871400&#45;&gt;j1500677315</title>
<path fill="none" stroke="black" d="M1284.27,-503.7C1294.13,-495.28 1306.15,-485.02 1316.96,-475.79"/>
<polygon fill="black" stroke="black" points="1319.19,-478.48 1324.53,-469.33 1314.65,-473.16 1319.19,-478.48"/>
</g>
<!-- j3685503521 -->
<g id="node32" class="node">
<title>j3685503521</title>
<polygon fill="none" stroke="blue" points="625.5,-180 198.5,-180 198.5,-144 625.5,-144 625.5,-180"/>
<text text-anchor="middle" x="412" y="-158.3" font-family="Times New Roman,serif" font-size="14.00">Sono stato brusco. Sai cosa. Quando avrai il tuo, faremo un giro insieme.</text>
</g>
<!-- j1794930167&#45;&gt;j3685503521 -->
<g id="edge36" class="edge">
<title>j1794930167&#45;&gt;j3685503521</title>
<path fill="none" stroke="black" d="M412,-215.7C412,-208.41 412,-199.73 412,-191.54"/>
<polygon fill="black" stroke="black" points="415.5,-191.62 412,-181.62 408.5,-191.62 415.5,-191.62"/>
</g>
<!-- j3650540975 -->
<g id="node33" class="node">
<title>j3650540975</title>
<polygon fill="none" stroke="red" points="1164.5,-396 979.5,-396 979.5,-360 1164.5,-360 1164.5,-396"/>
<text text-anchor="middle" x="1072" y="-374.3" font-family="Times New Roman,serif" font-size="14.00">Emozione + Icona. Emoticon.</text>
</g>
<!-- j1057709851&#45;&gt;j3650540975 -->
<g id="edge37" class="edge">
<title>j1057709851&#45;&gt;j3650540975</title>
<path fill="none" stroke="black" d="M1047.16,-431.7C1050.75,-424.07 1055.07,-414.92 1059.08,-406.4"/>
<polygon fill="black" stroke="black" points="1062.19,-408.01 1063.29,-397.47 1055.86,-405.03 1062.19,-408.01"/>
</g>
<!-- j2712428772 -->
<g id="node34" class="node">
<title>j2712428772</title>
<polygon fill="none" stroke="blue" points="1132,-324 1078,-324 1078,-288 1132,-288 1132,-324"/>
<text text-anchor="middle" x="1105" y="-302.3" font-family="Times New Roman,serif" font-size="14.00">Oh.</text>
</g>
<!-- j1500677315&#45;&gt;j2712428772 -->
<g id="edge38" class="edge">
<title>j1500677315&#45;&gt;j2712428772</title>
<path fill="none" stroke="black" d="M1316.45,-431.59C1272.44,-405.66 1189.75,-356.94 1141.86,-328.72"/>
<polygon fill="black" stroke="black" points="1143.89,-325.85 1133.5,-323.79 1140.33,-331.88 1143.89,-325.85"/>
</g>
<!-- j2155503346 -->
<g id="node35" class="node">
<title>j2155503346</title>
<polygon fill="none" stroke="blue" points="648.5,-108 261.5,-108 261.5,-72 648.5,-72 648.5,-108"/>
<text text-anchor="middle" x="455" y="-86.3" font-family="Times New Roman,serif" font-size="14.00">Sembrano molto meglio di quei cavalli assurdi che hai menzionato.</text>
</g>
<!-- j3685503521&#45;&gt;j2155503346 -->
<g id="edge39" class="edge">
<title>j3685503521&#45;&gt;j2155503346</title>
<path fill="none" stroke="black" d="M422.63,-143.7C427.42,-135.9 433.19,-126.51 438.52,-117.83"/>
<polygon fill="black" stroke="black" points="441.45,-119.75 443.7,-109.39 435.48,-116.08 441.45,-119.75"/>
</g>
<!-- j3650540975&#45;&gt;j2712428772 -->
<g id="edge40" class="edge">
<title>j3650540975&#45;&gt;j2712428772</title>
<path fill="none" stroke="black" d="M1080.16,-359.7C1083.75,-352.07 1088.07,-342.92 1092.08,-334.4"/>
<polygon fill="black" stroke="black" points="1095.19,-336.01 1096.29,-325.47 1088.86,-333.03 1095.19,-336.01"/>
</g>
<!-- j48594723 -->
<g id="node36" class="node">
<title>j48594723</title>
<ellipse fill="none" stroke="orange" cx="1105" cy="-234" rx="64.19" ry="18"/>
<text text-anchor="middle" x="1105" y="-230.3" font-family="Times New Roman,serif" font-size="14.00">+10 Chemistry</text>
</g>
<!-- j2712428772&#45;&gt;j48594723 -->
<g id="edge41" class="edge">
<title>j2712428772&#45;&gt;j48594723</title>
<path fill="none" stroke="black" d="M1105,-287.7C1105,-280.41 1105,-271.73 1105,-263.54"/>
<polygon fill="black" stroke="black" points="1108.5,-263.62 1105,-253.62 1101.5,-263.62 1108.5,-263.62"/>
</g>
<!-- j2155503346&#45;&gt;Chat ends. -->
<g id="edge42" class="edge">
<title>j2155503346&#45;&gt;Chat ends.</title>
<path fill="none" stroke="black" d="M582.13,-71.52C686.11,-57.22 828.32,-37.66 906.55,-26.9"/>
<polygon fill="black" stroke="black" points="906.69,-30.41 916.12,-25.58 905.74,-23.48 906.69,-30.41"/>
</g>
<!-- j2423437608 -->
<g id="node37" class="node">
<title>j2423437608</title>
<polygon fill="none" stroke="blue" points="1357.5,-180 852.5,-180 852.5,-144 1357.5,-144 1357.5,-180"/>
<text text-anchor="middle" x="1105" y="-158.3" font-family="Times New Roman,serif" font-size="14.00">Beh... merda. Credo di dovermi scusare con Aoi per... un sacco di cose. Torno subito.</text>
</g>
<!-- j48594723&#45;&gt;j2423437608 -->
<g id="edge43" class="edge">
<title>j48594723&#45;&gt;j2423437608</title>
<path fill="none" stroke="black" d="M1105,-215.7C1105,-208.41 1105,-199.73 1105,-191.54"/>
<polygon fill="black" stroke="black" points="1108.5,-191.62 1105,-181.62 1101.5,-191.62 1108.5,-191.62"/>
</g>
<!-- j2059869675 -->
<g id="node38" class="node">
<title>j2059869675</title>
<ellipse fill="none" stroke="orange" cx="1058" cy="-90" rx="159.47" ry="18"/>
<text text-anchor="middle" x="1058" y="-86.3" font-family="Times New Roman,serif" font-size="14.00">Boolean ArthurAoiEmoticon is now true.</text>
</g>
<!-- j2423437608&#45;&gt;j2059869675 -->
<g id="edge44" class="edge">
<title>j2423437608&#45;&gt;j2059869675</title>
<path fill="none" stroke="black" d="M1093.38,-143.7C1088.09,-135.81 1081.7,-126.3 1075.82,-117.55"/>
<polygon fill="black" stroke="black" points="1078.81,-115.71 1070.33,-109.36 1073,-119.61 1078.81,-115.71"/>
</g>
<!-- j2059869675&#45;&gt;Chat ends. -->
<g id="edge45" class="edge">
<title>j2059869675&#45;&gt;Chat ends.</title>
<path fill="none" stroke="black" d="M1034.76,-71.7C1022.51,-62.57 1007.34,-51.28 994.19,-41.48"/>
<polygon fill="black" stroke="black" points="996.37,-38.74 986.26,-35.58 992.19,-44.36 996.37,-38.74"/>
</g>
</g>
</svg>
