<?xml version="1.0" encoding="UTF-8" standalone="no"?>
<!DOCTYPE svg PUBLIC "-//W3C//DTD SVG 1.1//EN"
 "http://www.w3.org/Graphics/SVG/1.1/DTD/svg11.dtd">
<!-- Generated by graphviz version 7.1.0 (20230121.1956)
 -->
<!-- Pages: 1 -->
<svg width="2665pt" height="2132pt"
 viewBox="0.00 0.00 2664.50 2132.00" xmlns="http://www.w3.org/2000/svg" xmlns:xlink="http://www.w3.org/1999/xlink">
<g id="graph0" class="graph" transform="scale(1 1) rotate(0) translate(4 2128)">
<polygon fill="white" stroke="none" points="-4,4 -4,-2128 2660.5,-2128 2660.5,4 -4,4"/>
<!-- EleanorRank5Convo7 begins. -->
<g id="node1" class="node">
<title>EleanorRank5Convo7 begins.</title>
<ellipse fill="none" stroke="orange" cx="210" cy="-2106" rx="118.88" ry="18"/>
<text text-anchor="middle" x="210" y="-2102.3" font-family="Times New Roman,serif" font-size="14.00">EleanorRank5Convo7 begins.</text>
</g>
<!-- j3064392263 -->
<g id="node2" class="node">
<title>j3064392263</title>
<polygon fill="none" stroke="blue" points="407,-2052 13,-2052 13,-2016 407,-2016 407,-2052"/>
<text text-anchor="middle" x="210" y="-2030.3" font-family="Times New Roman,serif" font-size="14.00">Ist &#39;Die Gleichgültigkeit&#39; das, was sie IST, oder das, was sie WILL?</text>
</g>
<!-- EleanorRank5Convo7 begins.&#45;&gt;j3064392263 -->
<g id="edge1" class="edge">
<title>EleanorRank5Convo7 begins.&#45;&gt;j3064392263</title>
<path fill="none" stroke="black" d="M210,-2087.7C210,-2080.41 210,-2071.73 210,-2063.54"/>
<polygon fill="black" stroke="black" points="213.5,-2063.62 210,-2053.62 206.5,-2063.62 213.5,-2063.62"/>
</g>
<!-- j2993428664 -->
<g id="node3" class="node">
<title>j2993428664</title>
<polygon fill="none" stroke="red" points="815,-1980 381,-1980 381,-1944 815,-1944 815,-1980"/>
<text text-anchor="middle" x="598" y="-1958.3" font-family="Times New Roman,serif" font-size="14.00">Du und Lettie, ihr macht das beide, weißt du. Ihr vergesst, &#39;Hallo&#39; zu sagen.</text>
</g>
<!-- j3064392263&#45;&gt;j2993428664 -->
<g id="edge2" class="edge">
<title>j3064392263&#45;&gt;j2993428664</title>
<path fill="none" stroke="black" d="M306.91,-2015.52C362.57,-2005.48 432.59,-1992.84 490.01,-1982.48"/>
<polygon fill="black" stroke="black" points="490.61,-1985.93 499.83,-1980.71 489.37,-1979.04 490.61,-1985.93"/>
</g>
<!-- j4243327350 -->
<g id="node4" class="node">
<title>j4243327350</title>
<polygon fill="none" stroke="red" points="349,-1980 71,-1980 71,-1944 349,-1944 349,-1980"/>
<text text-anchor="middle" x="210" y="-1958.3" font-family="Times New Roman,serif" font-size="14.00">Die meisten Leute würden mit &#39;Hallo&#39; anfangen.</text>
</g>
<!-- j3064392263&#45;&gt;j4243327350 -->
<g id="edge3" class="edge">
<title>j3064392263&#45;&gt;j4243327350</title>
<path fill="none" stroke="black" d="M210,-2015.7C210,-2008.41 210,-1999.73 210,-1991.54"/>
<polygon fill="black" stroke="black" points="213.5,-1991.62 210,-1981.62 206.5,-1991.62 213.5,-1991.62"/>
</g>
<!-- j3289360642 -->
<g id="node5" class="node">
<title>j3289360642</title>
<polygon fill="none" stroke="red" points="86,-1836 0,-1836 0,-1800 86,-1800 86,-1836"/>
<text text-anchor="middle" x="43" y="-1814.3" font-family="Times New Roman,serif" font-size="14.00">[Ignorieren.]</text>
</g>
<!-- j3064392263&#45;&gt;j3289360642 -->
<g id="edge4" class="edge">
<title>j3064392263&#45;&gt;j3289360642</title>
<path fill="none" stroke="black" d="M113.31,-2015.62C93.69,-2007.79 75.09,-1996.44 62,-1980 31.98,-1942.27 33.63,-1882.95 38,-1847.82"/>
<polygon fill="black" stroke="black" points="41.46,-1848.37 39.41,-1837.98 34.53,-1847.38 41.46,-1848.37"/>
</g>
<!-- j1230086731 -->
<g id="node6" class="node">
<title>j1230086731</title>
<polygon fill="none" stroke="blue" points="972.5,-1908 297.5,-1908 297.5,-1872 972.5,-1872 972.5,-1908"/>
<text text-anchor="middle" x="635" y="-1886.3" font-family="Times New Roman,serif" font-size="14.00">Du hast das einzige gefunden, was wir gemeinsam haben. Herzlichen Glückwunsch. Und tut mir leid. Das ist wichtiger.</text>
</g>
<!-- j2993428664&#45;&gt;j1230086731 -->
<g id="edge5" class="edge">
<title>j2993428664&#45;&gt;j1230086731</title>
<path fill="none" stroke="black" d="M607.15,-1943.7C611.22,-1935.98 616.12,-1926.71 620.67,-1918.11"/>
<polygon fill="black" stroke="black" points="623.67,-1919.92 625.25,-1909.44 617.48,-1916.65 623.67,-1919.92"/>
</g>
<!-- j1712973742 -->
<g id="node7" class="node">
<title>j1712973742</title>
<polygon fill="none" stroke="blue" points="279.5,-1908 94.5,-1908 94.5,-1872 279.5,-1872 279.5,-1908"/>
<text text-anchor="middle" x="187" y="-1886.3" font-family="Times New Roman,serif" font-size="14.00">Tut mir leid. Das ist wichtiger.</text>
</g>
<!-- j4243327350&#45;&gt;j1712973742 -->
<g id="edge6" class="edge">
<title>j4243327350&#45;&gt;j1712973742</title>
<path fill="none" stroke="black" d="M204.31,-1943.7C201.86,-1936.24 198.93,-1927.32 196.19,-1918.97"/>
<polygon fill="black" stroke="black" points="199.54,-1917.95 193.09,-1909.54 192.89,-1920.14 199.54,-1917.95"/>
</g>
<!-- Chat ends. -->
<g id="node8" class="node">
<title>Chat ends.</title>
<ellipse fill="none" stroke="orange" cx="511" cy="-18" rx="50.09" ry="18"/>
<text text-anchor="middle" x="511" y="-14.3" font-family="Times New Roman,serif" font-size="14.00">Chat ends.</text>
</g>
<!-- j3289360642&#45;&gt;Chat ends. -->
<g id="edge7" class="edge">
<title>j3289360642&#45;&gt;Chat ends.</title>
<path fill="none" stroke="black" d="M43,-1799.51C43,-1772.71 43,-1719.87 43,-1675 43,-1675 43,-1675 43,-161 43,-108.11 75.34,-96.9 122,-72 177.49,-42.39 355.14,-27.93 449.98,-22.16"/>
<polygon fill="black" stroke="black" points="450.11,-25.66 459.89,-21.57 449.7,-18.67 450.11,-25.66"/>
</g>
<!-- j559740032 -->
<g id="node9" class="node">
<title>j559740032</title>
<polygon fill="none" stroke="blue" points="834,-1836 304,-1836 304,-1800 834,-1800 834,-1836"/>
<text text-anchor="middle" x="569" y="-1814.3" font-family="Times New Roman,serif" font-size="14.00">Ich glaube, &#39;Die große Gleichgültigkeit&#39; wird irgendwie versuchen, zwischen uns zu kommen.</text>
</g>
<!-- j1230086731&#45;&gt;j559740032 -->
<g id="edge8" class="edge">
<title>j1230086731&#45;&gt;j559740032</title>
<path fill="none" stroke="black" d="M618.69,-1871.7C610.93,-1863.47 601.51,-1853.48 592.97,-1844.42"/>
<polygon fill="black" stroke="black" points="595.57,-1842.08 586.17,-1837.21 590.48,-1846.88 595.57,-1842.08"/>
</g>
<!-- j1712973742&#45;&gt;j559740032 -->
<g id="edge9" class="edge">
<title>j1712973742&#45;&gt;j559740032</title>
<path fill="none" stroke="black" d="M279.96,-1871.97C335.03,-1861.87 405.03,-1849.05 462.34,-1838.54"/>
<polygon fill="black" stroke="black" points="462.93,-1841.99 472.14,-1836.75 461.67,-1835.11 462.93,-1841.99"/>
</g>
<!-- j1164685785 -->
<g id="node10" class="node">
<title>j1164685785</title>
<polygon fill="none" stroke="blue" points="1001,-1764 137,-1764 137,-1728 1001,-1728 1001,-1764"/>
<text text-anchor="middle" x="569" y="-1742.3" font-family="Times New Roman,serif" font-size="14.00">Lach nicht. Ich kann es tief in meinem Knochenmark spüren. Das Ding, das in Rusalka war, würde gerne sehen, wie wir uns gegenseitig in Stücke reißen.</text>
</g>
<!-- j559740032&#45;&gt;j1164685785 -->
<g id="edge10" class="edge">
<title>j559740032&#45;&gt;j1164685785</title>
<path fill="none" stroke="black" d="M569,-1799.7C569,-1792.41 569,-1783.73 569,-1775.54"/>
<polygon fill="black" stroke="black" points="572.5,-1775.62 569,-1765.62 565.5,-1775.62 572.5,-1775.62"/>
</g>
<!-- j1152429170 -->
<g id="node11" class="node">
<title>j1152429170</title>
<polygon fill="none" stroke="blue" points="696,-1692 442,-1692 442,-1656 696,-1656 696,-1692"/>
<text text-anchor="middle" x="569" y="-1670.3" font-family="Times New Roman,serif" font-size="14.00">Ich weiß nicht warum. Ich weiß es einfach.</text>
</g>
<!-- j1164685785&#45;&gt;j1152429170 -->
<g id="edge11" class="edge">
<title>j1164685785&#45;&gt;j1152429170</title>
<path fill="none" stroke="black" d="M569,-1727.7C569,-1720.41 569,-1711.73 569,-1703.54"/>
<polygon fill="black" stroke="black" points="572.5,-1703.62 569,-1693.62 565.5,-1703.62 572.5,-1703.62"/>
</g>
<!-- j799884843 -->
<g id="node12" class="node">
<title>j799884843</title>
<polygon fill="none" stroke="red" points="552.5,-1620 377.5,-1620 377.5,-1584 552.5,-1584 552.5,-1620"/>
<text text-anchor="middle" x="465" y="-1598.3" font-family="Times New Roman,serif" font-size="14.00">Ja, ich glaube, du hast recht.</text>
</g>
<!-- j1152429170&#45;&gt;j799884843 -->
<g id="edge12" class="edge">
<title>j1152429170&#45;&gt;j799884843</title>
<path fill="none" stroke="black" d="M543.02,-1655.52C530.02,-1646.76 514.09,-1636.04 500.03,-1626.58"/>
<polygon fill="black" stroke="black" points="502.15,-1623.79 491.9,-1621.11 498.24,-1629.59 502.15,-1623.79"/>
</g>
<!-- j2804876841 -->
<g id="node13" class="node">
<title>j2804876841</title>
<polygon fill="none" stroke="red" points="1671.5,-1620 570.5,-1620 570.5,-1584 1671.5,-1584 1671.5,-1620"/>
<text text-anchor="middle" x="1121" y="-1598.3" font-family="Times New Roman,serif" font-size="14.00">Vielleicht ist das mit Entratis Familie passiert. Sie haben jahrelang direkt über seinem Labor gelebt, ohne es zu wissen. Als das Kind sie fand, waren sie entfremdet und suhlten sich in Gehässigkeit.</text>
</g>
<!-- j1152429170&#45;&gt;j2804876841 -->
<g id="edge13" class="edge">
<title>j1152429170&#45;&gt;j2804876841</title>
<path fill="none" stroke="black" d="M696.33,-1656.85C778.54,-1646.43 885.82,-1632.82 971.99,-1621.9"/>
<polygon fill="black" stroke="black" points="972.21,-1625.4 981.69,-1620.67 971.33,-1618.45 972.21,-1625.4"/>
</g>
<!-- j3120180855 -->
<g id="node14" class="node">
<title>j3120180855</title>
<polygon fill="none" stroke="blue" points="1522.5,-1548 665.5,-1548 665.5,-1512 1522.5,-1512 1522.5,-1548"/>
<text text-anchor="middle" x="1094" y="-1526.3" font-family="Times New Roman,serif" font-size="14.00">Ich sah es in deinem Geist. Albrecht und Loid. Mutter und Vater. Du und deine Eltern. Rusalka und Viktor, soweit wir wissen. Und wir sechs natürlich.</text>
</g>
<!-- j799884843&#45;&gt;j3120180855 -->
<g id="edge14" class="edge">
<title>j799884843&#45;&gt;j3120180855</title>
<path fill="none" stroke="black" d="M552.98,-1585.29C556.02,-1584.84 559.04,-1584.41 562,-1584 663.06,-1570.13 775.39,-1558.4 870.7,-1549.53"/>
<polygon fill="black" stroke="black" points="870.79,-1553.04 880.43,-1548.63 870.15,-1546.07 870.79,-1553.04"/>
</g>
<!-- j2804876841&#45;&gt;j3120180855 -->
<g id="edge15" class="edge">
<title>j2804876841&#45;&gt;j3120180855</title>
<path fill="none" stroke="black" d="M1114.33,-1583.7C1111.42,-1576.15 1107.93,-1567.12 1104.68,-1558.68"/>
<polygon fill="black" stroke="black" points="1108.01,-1557.59 1101.14,-1549.52 1101.48,-1560.11 1108.01,-1557.59"/>
</g>
<!-- j446783031 -->
<g id="node15" class="node">
<title>j446783031</title>
<polygon fill="none" stroke="blue" points="1348.5,-1476 839.5,-1476 839.5,-1440 1348.5,-1440 1348.5,-1476"/>
<text text-anchor="middle" x="1094" y="-1454.3" font-family="Times New Roman,serif" font-size="14.00">Was dieses Ding macht, ist kalt. Pervers. Aber irgendwo steckt eine Motivation dahinter.</text>
</g>
<!-- j3120180855&#45;&gt;j446783031 -->
<g id="edge16" class="edge">
<title>j3120180855&#45;&gt;j446783031</title>
<path fill="none" stroke="black" d="M1094,-1511.7C1094,-1504.41 1094,-1495.73 1094,-1487.54"/>
<polygon fill="black" stroke="black" points="1097.5,-1487.62 1094,-1477.62 1090.5,-1487.62 1097.5,-1487.62"/>
</g>
<!-- j627080203 -->
<g id="node16" class="node">
<title>j627080203</title>
<polygon fill="none" stroke="red" points="1606.5,-1404 533.5,-1404 533.5,-1368 1606.5,-1368 1606.5,-1404"/>
<text text-anchor="middle" x="1070" y="-1382.3" font-family="Times New Roman,serif" font-size="14.00">Ich denke, du hast recht. Auf der Zariman waren es die Eltern, die als erste den Verstand verloren. Vielleicht haben die Standhaften so lange durchgehalten, weil keiner von ihnen Kinder hatte.</text>
</g>
<!-- j446783031&#45;&gt;j627080203 -->
<g id="edge17" class="edge">
<title>j446783031&#45;&gt;j627080203</title>
<path fill="none" stroke="black" d="M1088.07,-1439.7C1085.51,-1432.24 1082.45,-1423.32 1079.59,-1414.97"/>
<polygon fill="black" stroke="black" points="1082.91,-1413.86 1076.36,-1405.54 1076.29,-1416.13 1082.91,-1413.86"/>
</g>
<!-- j3091115405 -->
<g id="node17" class="node">
<title>j3091115405</title>
<polygon fill="none" stroke="red" points="2656.5,-1404 1679.5,-1404 1679.5,-1368 2656.5,-1368 2656.5,-1404"/>
<text text-anchor="middle" x="2168" y="-1382.3" font-family="Times New Roman,serif" font-size="14.00">Ich maße mir nicht gerne an, Dinge zu verstehen, die im Grunde *Götter* sind. Dieses Ding versucht, Emotionen zu verstehen. Es spielt nur nicht gut mit seinen Spielzeugen.</text>
</g>
<!-- j446783031&#45;&gt;j3091115405 -->
<g id="edge18" class="edge">
<title>j446783031&#45;&gt;j3091115405</title>
<path fill="none" stroke="black" d="M1348.86,-1440.39C1511.08,-1429.82 1721.26,-1416.12 1888.11,-1405.24"/>
<polygon fill="black" stroke="black" points="1888.27,-1408.74 1898.03,-1404.6 1887.82,-1401.75 1888.27,-1408.74"/>
</g>
<!-- j3265783116 -->
<g id="node18" class="node">
<title>j3265783116</title>
<polygon fill="none" stroke="blue" points="1392,-1332 694,-1332 694,-1296 1392,-1296 1392,-1332"/>
<text text-anchor="middle" x="1043" y="-1310.3" font-family="Times New Roman,serif" font-size="14.00">Soll es versuchen, zwischen uns zu kommen. So wahr mir Sol helfe, ich werde es vernichten. Ich werde einen Weg finden.</text>
</g>
<!-- j627080203&#45;&gt;j3265783116 -->
<g id="edge19" class="edge">
<title>j627080203&#45;&gt;j3265783116</title>
<path fill="none" stroke="black" d="M1063.33,-1367.7C1060.42,-1360.15 1056.93,-1351.12 1053.68,-1342.68"/>
<polygon fill="black" stroke="black" points="1057.01,-1341.59 1050.14,-1333.52 1050.48,-1344.11 1057.01,-1341.59"/>
</g>
<!-- j2323636743 -->
<g id="node19" class="node">
<title>j2323636743</title>
<polygon fill="none" stroke="blue" points="2350,-1332 1986,-1332 1986,-1296 2350,-1296 2350,-1332"/>
<text text-anchor="middle" x="2168" y="-1310.3" font-family="Times New Roman,serif" font-size="14.00">Bewundernswerte Theorie, aber das WISSEN wir nicht, oder?</text>
</g>
<!-- j3091115405&#45;&gt;j2323636743 -->
<g id="edge20" class="edge">
<title>j3091115405&#45;&gt;j2323636743</title>
<path fill="none" stroke="black" d="M2168,-1367.7C2168,-1360.41 2168,-1351.73 2168,-1343.54"/>
<polygon fill="black" stroke="black" points="2171.5,-1343.62 2168,-1333.62 2164.5,-1343.62 2171.5,-1343.62"/>
</g>
<!-- j2707176666 -->
<g id="node20" class="node">
<title>j2707176666</title>
<polygon fill="none" stroke="blue" points="1368,-1260 704,-1260 704,-1224 1368,-1224 1368,-1260"/>
<text text-anchor="middle" x="1036" y="-1238.3" font-family="Times New Roman,serif" font-size="14.00">Es gibt Kräfte im Universum, denen nichts standhalten kann. Ich glaube fest daran, mit jedem Atom meines Körpers.</text>
</g>
<!-- j3265783116&#45;&gt;j2707176666 -->
<g id="edge21" class="edge">
<title>j3265783116&#45;&gt;j2707176666</title>
<path fill="none" stroke="black" d="M1041.27,-1295.7C1040.54,-1288.41 1039.67,-1279.73 1038.85,-1271.54"/>
<polygon fill="black" stroke="black" points="1042.34,-1271.21 1037.86,-1261.61 1035.37,-1271.91 1042.34,-1271.21"/>
</g>
<!-- j1614657564 -->
<g id="node21" class="node">
<title>j1614657564</title>
<polygon fill="none" stroke="blue" points="2629,-1188 1925,-1188 1925,-1152 2629,-1152 2629,-1188"/>
<text text-anchor="middle" x="2277" y="-1166.3" font-family="Times New Roman,serif" font-size="14.00">Wenn du Recht hast, dann hat es keine Schuld. Fast wie ein Kind. Das passt nicht zu dem, was wir wissen. Es ist böswillig.</text>
</g>
<!-- j2323636743&#45;&gt;j1614657564 -->
<g id="edge22" class="edge">
<title>j2323636743&#45;&gt;j1614657564</title>
<path fill="none" stroke="black" d="M2181.37,-1295.59C2200.26,-1270.97 2234.94,-1225.8 2256.93,-1197.14"/>
<polygon fill="black" stroke="black" points="2259.63,-1199.38 2262.94,-1189.31 2254.08,-1195.11 2259.63,-1199.38"/>
</g>
<!-- j184085916 -->
<g id="node22" class="node">
<title>j184085916</title>
<polygon fill="none" stroke="blue" points="1310.5,-1188 755.5,-1188 755.5,-1152 1310.5,-1152 1310.5,-1188"/>
<text text-anchor="middle" x="1033" y="-1166.3" font-family="Times New Roman,serif" font-size="14.00">Wenn es mich in einem Stück verschlingt, werde ich in seiner Kehle feststecken und es ersticken.</text>
</g>
<!-- j2707176666&#45;&gt;j184085916 -->
<g id="edge23" class="edge">
<title>j2707176666&#45;&gt;j184085916</title>
<path fill="none" stroke="black" d="M1035.26,-1223.7C1034.95,-1216.41 1034.57,-1207.73 1034.22,-1199.54"/>
<polygon fill="black" stroke="black" points="1037.72,-1199.46 1033.8,-1189.62 1030.73,-1199.76 1037.72,-1199.46"/>
</g>
<!-- j1614657564&#45;&gt;Chat ends. -->
<g id="edge24" class="edge">
<title>j1614657564&#45;&gt;Chat ends.</title>
<path fill="none" stroke="black" d="M2277.2,-1151.51C2277.49,-1124.71 2278,-1071.87 2278,-1027 2278,-1027 2278,-1027 2278,-161 2278,-73.55 884.66,-29.44 572.54,-20.65"/>
<polygon fill="black" stroke="black" points="572.64,-17.16 562.55,-20.37 572.45,-24.15 572.64,-17.16"/>
</g>
<!-- j317689045 -->
<g id="node23" class="node">
<title>j317689045</title>
<polygon fill="none" stroke="red" points="549,-1116 323,-1116 323,-1080 549,-1080 549,-1116"/>
<text text-anchor="middle" x="436" y="-1094.3" font-family="Times New Roman,serif" font-size="14.00">Das ist eine großartige Art zu sterben.</text>
</g>
<!-- j184085916&#45;&gt;j317689045 -->
<g id="edge25" class="edge">
<title>j184085916&#45;&gt;j317689045</title>
<path fill="none" stroke="black" d="M883.89,-1151.52C784.33,-1139.84 654.89,-1124.67 560.78,-1113.63"/>
<polygon fill="black" stroke="black" points="561.33,-1110.17 550.99,-1112.48 560.51,-1117.12 561.33,-1110.17"/>
</g>
<!-- j2171140781 -->
<g id="node24" class="node">
<title>j2171140781</title>
<polygon fill="none" stroke="red" points="1296.5,-1116 769.5,-1116 769.5,-1080 1296.5,-1080 1296.5,-1116"/>
<text text-anchor="middle" x="1033" y="-1094.3" font-family="Times New Roman,serif" font-size="14.00">Ich weiß noch nicht, wie wir das machen werden, aber ich bin dabei. Wir müssen gewinnen.</text>
</g>
<!-- j184085916&#45;&gt;j2171140781 -->
<g id="edge26" class="edge">
<title>j184085916&#45;&gt;j2171140781</title>
<path fill="none" stroke="black" d="M1033,-1151.7C1033,-1144.41 1033,-1135.73 1033,-1127.54"/>
<polygon fill="black" stroke="black" points="1036.5,-1127.62 1033,-1117.62 1029.5,-1127.62 1036.5,-1127.62"/>
</g>
<!-- j3264477975 -->
<g id="node25" class="node">
<title>j3264477975</title>
<polygon fill="none" stroke="blue" points="349,-1044 113,-1044 113,-1008 349,-1008 349,-1044"/>
<text text-anchor="middle" x="231" y="-1022.3" font-family="Times New Roman,serif" font-size="14.00">In diesem Szenario bin ich sowieso tot.</text>
</g>
<!-- j317689045&#45;&gt;j3264477975 -->
<g id="edge27" class="edge">
<title>j317689045&#45;&gt;j3264477975</title>
<path fill="none" stroke="black" d="M384.8,-1079.52C356.81,-1069.96 321.94,-1058.05 292.49,-1048"/>
<polygon fill="black" stroke="black" points="293.93,-1044.79 283.34,-1044.87 291.67,-1051.41 293.93,-1044.79"/>
</g>
<!-- j2038948836 -->
<g id="node26" class="node">
<title>j2038948836</title>
<polygon fill="none" stroke="blue" points="1697,-1044 369,-1044 369,-1008 1697,-1008 1697,-1044"/>
<text text-anchor="middle" x="1033" y="-1022.3" font-family="Times New Roman,serif" font-size="14.00">Wenn dies eine Geschichte wäre, würdest du dir einen cleveren Trick ausdenken. Du würdest das steinerne Herz des Riesen ausgraben und es mit einer Schwanenfeder zerschlagen oder ihn dazu bringen, sich über eine Klippe zu stürzen.</text>
</g>
<!-- j2171140781&#45;&gt;j2038948836 -->
<g id="edge28" class="edge">
<title>j2171140781&#45;&gt;j2038948836</title>
<path fill="none" stroke="black" d="M1033,-1079.7C1033,-1072.41 1033,-1063.73 1033,-1055.54"/>
<polygon fill="black" stroke="black" points="1036.5,-1055.62 1033,-1045.62 1029.5,-1055.62 1036.5,-1055.62"/>
</g>
<!-- j2301181987 -->
<g id="node27" class="node">
<title>j2301181987</title>
<polygon fill="none" stroke="blue" points="362,-900 72,-900 72,-864 362,-864 362,-900"/>
<text text-anchor="middle" x="217" y="-878.3" font-family="Times New Roman,serif" font-size="14.00">Aber wenigstens kann ich ihm ins Auge spucken.</text>
</g>
<!-- j3264477975&#45;&gt;j2301181987 -->
<g id="edge29" class="edge">
<title>j3264477975&#45;&gt;j2301181987</title>
<path fill="none" stroke="black" d="M229.28,-1007.59C226.92,-983.61 222.63,-940.14 219.8,-911.42"/>
<polygon fill="black" stroke="black" points="223.3,-911.23 218.84,-901.62 216.33,-911.91 223.3,-911.23"/>
</g>
<!-- j1626112076 -->
<g id="node28" class="node">
<title>j1626112076</title>
<polygon fill="none" stroke="red" points="1491.5,-972 574.5,-972 574.5,-936 1491.5,-936 1491.5,-972"/>
<text text-anchor="middle" x="1033" y="-950.3" font-family="Times New Roman,serif" font-size="14.00">Du sagtest, du bist &#39;Journalistin&#39; gewesen. Das ist nicht die Art von Geschichten, die du erzählt hast, oder? Du hast die Wahrheit gesagt, egal, wie hässlich sie war.</text>
</g>
<!-- j2038948836&#45;&gt;j1626112076 -->
<g id="edge30" class="edge">
<title>j2038948836&#45;&gt;j1626112076</title>
<path fill="none" stroke="black" d="M1033,-1007.7C1033,-1000.41 1033,-991.73 1033,-983.54"/>
<polygon fill="black" stroke="black" points="1036.5,-983.62 1033,-973.62 1029.5,-983.62 1036.5,-983.62"/>
</g>
<!-- j2301181987&#45;&gt;Chat ends. -->
<g id="edge31" class="edge">
<title>j2301181987&#45;&gt;Chat ends.</title>
<path fill="none" stroke="black" d="M181.62,-863.54C141.33,-840.86 81,-797.2 81,-739 81,-739 81,-739 81,-161 81,-83.68 334.86,-41.35 452.47,-25.88"/>
<polygon fill="black" stroke="black" points="452.78,-29.37 462.25,-24.62 451.89,-22.43 452.78,-29.37"/>
</g>
<!-- j628033024 -->
<g id="node29" class="node">
<title>j628033024</title>
<polygon fill="none" stroke="blue" points="1335.5,-900 730.5,-900 730.5,-864 1335.5,-864 1335.5,-900"/>
<text text-anchor="middle" x="1033" y="-878.3" font-family="Times New Roman,serif" font-size="14.00">Wenn diese alten Geschichten nicht die Wahrheit erzählten, würden Leute sie nicht immer wieder erzählen.</text>
</g>
<!-- j1626112076&#45;&gt;j628033024 -->
<g id="edge32" class="edge">
<title>j1626112076&#45;&gt;j628033024</title>
<path fill="none" stroke="black" d="M1033,-935.7C1033,-928.41 1033,-919.73 1033,-911.54"/>
<polygon fill="black" stroke="black" points="1036.5,-911.62 1033,-901.62 1029.5,-911.62 1036.5,-911.62"/>
</g>
<!-- j658159366 -->
<g id="node30" class="node">
<title>j658159366</title>
<polygon fill="none" stroke="blue" points="1410.5,-828 655.5,-828 655.5,-792 1410.5,-792 1410.5,-828"/>
<text text-anchor="middle" x="1033" y="-806.3" font-family="Times New Roman,serif" font-size="14.00">Ich meine damit nicht, dass es wirklich Riesen gibt. Ich meine nur, dass die alten Geschichten eine andere Art von Wahrheit erzählen.</text>
</g>
<!-- j628033024&#45;&gt;j658159366 -->
<g id="edge33" class="edge">
<title>j628033024&#45;&gt;j658159366</title>
<path fill="none" stroke="black" d="M1033,-863.7C1033,-856.41 1033,-847.73 1033,-839.54"/>
<polygon fill="black" stroke="black" points="1036.5,-839.62 1033,-829.62 1029.5,-839.62 1036.5,-839.62"/>
</g>
<!-- j4031202736 -->
<g id="node31" class="node">
<title>j4031202736</title>
<polygon fill="none" stroke="red" points="1768,-756 1218,-756 1218,-720 1768,-720 1768,-756"/>
<text text-anchor="middle" x="1493" y="-734.3" font-family="Times New Roman,serif" font-size="14.00">Um das hier zu überstehen, brauchen wir mehr als Märchen, egal, wie inspirierend sie auch sind.</text>
</g>
<!-- j658159366&#45;&gt;j4031202736 -->
<g id="edge34" class="edge">
<title>j658159366&#45;&gt;j4031202736</title>
<path fill="none" stroke="black" d="M1147.89,-791.52C1214.57,-781.37 1298.63,-768.58 1367.09,-758.16"/>
<polygon fill="black" stroke="black" points="1367.52,-761.63 1376.88,-756.67 1366.47,-754.71 1367.52,-761.63"/>
</g>
<!-- j2676301975 -->
<g id="node32" class="node">
<title>j2676301975</title>
<polygon fill="none" stroke="red" points="1115.5,-756 584.5,-756 584.5,-720 1115.5,-720 1115.5,-756"/>
<text text-anchor="middle" x="850" y="-734.3" font-family="Times New Roman,serif" font-size="14.00">Ich habe in einem Königreich aus Geschichten gelebt. Ich weiß, wie mächtig sie sein können.</text>
</g>
<!-- j658159366&#45;&gt;j2676301975 -->
<g id="edge35" class="edge">
<title>j658159366&#45;&gt;j2676301975</title>
<path fill="none" stroke="black" d="M987.29,-791.52C962.64,-782.08 932,-770.37 905.93,-760.39"/>
<polygon fill="black" stroke="black" points="907.44,-757.23 896.85,-756.92 904.94,-763.76 907.44,-757.23"/>
</g>
<!-- j3836905687 -->
<g id="node33" class="node">
<title>j3836905687</title>
<polygon fill="none" stroke="blue" points="1816,-684 1336,-684 1336,-648 1816,-648 1816,-684"/>
<text text-anchor="middle" x="1576" y="-662.3" font-family="Times New Roman,serif" font-size="14.00">Ich weiß. Ich wünschte, ich hätte mehr als nur meinen Instinkt, um weiterzumachen.</text>
</g>
<!-- j4031202736&#45;&gt;j3836905687 -->
<g id="edge36" class="edge">
<title>j4031202736&#45;&gt;j3836905687</title>
<path fill="none" stroke="black" d="M1513.52,-719.7C1523.59,-711.2 1535.91,-700.81 1546.93,-691.51"/>
<polygon fill="black" stroke="black" points="1548.89,-694.45 1554.27,-685.32 1544.37,-689.09 1548.89,-694.45"/>
</g>
<!-- j2467672980 -->
<g id="node34" class="node">
<title>j2467672980</title>
<polygon fill="none" stroke="blue" points="1231,-684 269,-684 269,-648 1231,-648 1231,-684"/>
<text text-anchor="middle" x="750" y="-662.3" font-family="Times New Roman,serif" font-size="14.00">Ich glaube, all diese Geschichten über Riesentöter haben eines gemeinsam: Es geht immer darum, die Regeln zu lernen und herauszufinden, wie man sie geschickt umsetzt.</text>
</g>
<!-- j2676301975&#45;&gt;j2467672980 -->
<g id="edge37" class="edge">
<title>j2676301975&#45;&gt;j2467672980</title>
<path fill="none" stroke="black" d="M825.02,-719.52C812.64,-710.85 797.5,-700.25 784.07,-690.85"/>
<polygon fill="black" stroke="black" points="786.1,-688 775.9,-685.13 782.08,-693.73 786.1,-688"/>
</g>
<!-- j3562507305 -->
<g id="node35" class="node">
<title>j3562507305</title>
<polygon fill="none" stroke="blue" points="2249.5,-612 1236.5,-612 1236.5,-576 2249.5,-576 2249.5,-612"/>
<text text-anchor="middle" x="1743" y="-590.3" font-family="Times New Roman,serif" font-size="14.00">Wir sind mit etwas konfrontiert, das gewaltig, furchterregend und jenseits unseres Vorstellungsvermögens liegt. Normalerweise ist das nur Kindern möglich. Dafür gibt es Märchen.</text>
</g>
<!-- j3836905687&#45;&gt;j3562507305 -->
<g id="edge38" class="edge">
<title>j3836905687&#45;&gt;j3562507305</title>
<path fill="none" stroke="black" d="M1617.71,-647.52C1639.91,-638.21 1667.42,-626.68 1691.01,-616.79"/>
<polygon fill="black" stroke="black" points="1692.27,-620.06 1700.14,-612.97 1689.56,-613.6 1692.27,-620.06"/>
</g>
<!-- j3684497618 -->
<g id="node36" class="node">
<title>j3684497618</title>
<polygon fill="none" stroke="blue" points="1218.5,-612 109.5,-612 109.5,-576 1218.5,-576 1218.5,-612"/>
<text text-anchor="middle" x="664" y="-590.3" font-family="Times New Roman,serif" font-size="14.00">Manche Monster sind dumm. Manche müssen buchstäblich sein. Manche haben Geheimnisse. Aber du kannst nicht gewinnen, solange du die Regeln nicht kennst, an die das Monster gebunden ist.</text>
</g>
<!-- j2467672980&#45;&gt;j3684497618 -->
<g id="edge39" class="edge">
<title>j2467672980&#45;&gt;j3684497618</title>
<path fill="none" stroke="black" d="M728.74,-647.7C718.3,-639.2 705.54,-628.81 694.12,-619.51"/>
<polygon fill="black" stroke="black" points="696.45,-616.9 686.49,-613.3 692.03,-622.33 696.45,-616.9"/>
</g>
<!-- j3848902869 -->
<g id="node37" class="node">
<title>j3848902869</title>
<polygon fill="none" stroke="red" points="890,-540 438,-540 438,-504 890,-504 890,-540"/>
<text text-anchor="middle" x="664" y="-518.3" font-family="Times New Roman,serif" font-size="14.00">Es steckt in der Wand. Aber ich bin mir nicht einmal sicher, was die Wand ist.</text>
</g>
<!-- j3562507305&#45;&gt;j3848902869 -->
<g id="edge40" class="edge">
<title>j3562507305&#45;&gt;j3848902869</title>
<path fill="none" stroke="black" d="M1473.51,-575.52C1297.84,-564.12 1070.71,-549.39 901.77,-538.43"/>
<polygon fill="black" stroke="black" points="902.19,-534.95 891.98,-537.79 901.74,-541.93 902.19,-534.95"/>
</g>
<!-- j1955905031 -->
<g id="node38" class="node">
<title>j1955905031</title>
<polygon fill="none" stroke="red" points="1483.5,-540 1022.5,-540 1022.5,-504 1483.5,-504 1483.5,-540"/>
<text text-anchor="middle" x="1253" y="-518.3" font-family="Times New Roman,serif" font-size="14.00">Ich glaube nicht, dass die Gleichgültigkeit an irgendwelche Regeln gebunden ist.</text>
</g>
<!-- j3562507305&#45;&gt;j1955905031 -->
<g id="edge41" class="edge">
<title>j3562507305&#45;&gt;j1955905031</title>
<path fill="none" stroke="black" d="M1620.62,-575.52C1549.3,-565.33 1459.31,-552.47 1386.22,-542.03"/>
<polygon fill="black" stroke="black" points="1386.99,-538.61 1376.59,-540.66 1386,-545.54 1386.99,-538.61"/>
</g>
<!-- j3684497618&#45;&gt;j3848902869 -->
<g id="edge42" class="edge">
<title>j3684497618&#45;&gt;j3848902869</title>
<path fill="none" stroke="black" d="M664,-575.7C664,-568.41 664,-559.73 664,-551.54"/>
<polygon fill="black" stroke="black" points="667.5,-551.62 664,-541.62 660.5,-551.62 667.5,-551.62"/>
</g>
<!-- j3684497618&#45;&gt;j1955905031 -->
<g id="edge43" class="edge">
<title>j3684497618&#45;&gt;j1955905031</title>
<path fill="none" stroke="black" d="M811.11,-575.52C897.46,-565.25 1006.58,-552.29 1094.78,-541.8"/>
<polygon fill="black" stroke="black" points="1094.96,-545.31 1104.48,-540.65 1094.13,-538.36 1094.96,-545.31"/>
</g>
<!-- j658549477 -->
<g id="node39" class="node">
<title>j658549477</title>
<polygon fill="none" stroke="blue" points="841,-468 341,-468 341,-432 841,-432 841,-468"/>
<text text-anchor="middle" x="591" y="-446.3" font-family="Times New Roman,serif" font-size="14.00">Das ist egal. Wenn es wirklich feststeckt, können wir daraus zwei Dinge ableiten, oder?</text>
</g>
<!-- j3848902869&#45;&gt;j658549477 -->
<g id="edge44" class="edge">
<title>j3848902869&#45;&gt;j658549477</title>
<path fill="none" stroke="black" d="M645.96,-503.7C637.27,-495.37 626.69,-485.22 617.14,-476.07"/>
<polygon fill="black" stroke="black" points="619.82,-473.79 610.18,-469.39 614.98,-478.84 619.82,-473.79"/>
</g>
<!-- j2179174912 -->
<g id="node40" class="node">
<title>j2179174912</title>
<polygon fill="none" stroke="blue" points="1567,-468 939,-468 939,-432 1567,-432 1567,-468"/>
<text text-anchor="middle" x="1253" y="-446.3" font-family="Times New Roman,serif" font-size="14.00">Das muss sie sein! Sogar Götter haben Regeln! Egal wie mächtig die Gleichgültigkeit scheint, sie ist kein Gott.</text>
</g>
<!-- j1955905031&#45;&gt;j2179174912 -->
<g id="edge45" class="edge">
<title>j1955905031&#45;&gt;j2179174912</title>
<path fill="none" stroke="black" d="M1253,-503.7C1253,-496.41 1253,-487.73 1253,-479.54"/>
<polygon fill="black" stroke="black" points="1256.5,-479.62 1253,-469.62 1249.5,-479.62 1256.5,-479.62"/>
</g>
<!-- j3791905537 -->
<g id="node41" class="node">
<title>j3791905537</title>
<polygon fill="none" stroke="blue" points="716,-396 306,-396 306,-360 716,-360 716,-396"/>
<text text-anchor="middle" x="511" y="-374.3" font-family="Times New Roman,serif" font-size="14.00">Erstens, es kann gefangen werden. Vielleicht sogar eingesperrt werden.</text>
</g>
<!-- j658549477&#45;&gt;j3791905537 -->
<g id="edge46" class="edge">
<title>j658549477&#45;&gt;j3791905537</title>
<path fill="none" stroke="black" d="M571.22,-431.7C561.61,-423.28 549.88,-413.02 539.33,-403.79"/>
<polygon fill="black" stroke="black" points="541.79,-401.29 531.96,-397.34 537.19,-406.56 541.79,-401.29"/>
</g>
<!-- j451103906 -->
<g id="node42" class="node">
<title>j451103906</title>
<polygon fill="none" stroke="blue" points="1771.5,-396 734.5,-396 734.5,-360 1771.5,-360 1771.5,-396"/>
<text text-anchor="middle" x="1253" y="-374.3" font-family="Times New Roman,serif" font-size="14.00">Du hast Thrax besiegt. Es ist egal, wie oft du versagt hast und auf deinem Hintern gelandet bist. Du hast GEWONNEN. Warum solltest du nicht auch den Mann in der Wand besiegen?</text>
</g>
<!-- j2179174912&#45;&gt;j451103906 -->
<g id="edge47" class="edge">
<title>j2179174912&#45;&gt;j451103906</title>
<path fill="none" stroke="black" d="M1253,-431.7C1253,-424.41 1253,-415.73 1253,-407.54"/>
<polygon fill="black" stroke="black" points="1256.5,-407.62 1253,-397.62 1249.5,-407.62 1256.5,-407.62"/>
</g>
<!-- j3849303309 -->
<g id="node43" class="node">
<title>j3849303309</title>
<ellipse fill="none" stroke="orange" cx="511" cy="-306" rx="64.19" ry="18"/>
<text text-anchor="middle" x="511" y="-302.3" font-family="Times New Roman,serif" font-size="14.00">+15 Chemistry</text>
</g>
<!-- j3791905537&#45;&gt;j3849303309 -->
<g id="edge48" class="edge">
<title>j3791905537&#45;&gt;j3849303309</title>
<path fill="none" stroke="black" d="M511,-359.7C511,-352.41 511,-343.73 511,-335.54"/>
<polygon fill="black" stroke="black" points="514.5,-335.62 511,-325.62 507.5,-335.62 514.5,-335.62"/>
</g>
<!-- j1898385486 -->
<g id="node44" class="node">
<title>j1898385486</title>
<polygon fill="none" stroke="red" points="1337.5,-324 1030.5,-324 1030.5,-288 1337.5,-288 1337.5,-324"/>
<text text-anchor="middle" x="1184" y="-302.3" font-family="Times New Roman,serif" font-size="14.00">Seit wann hast du keine Angst mehr davor, Eleanor?</text>
</g>
<!-- j451103906&#45;&gt;j1898385486 -->
<g id="edge49" class="edge">
<title>j451103906&#45;&gt;j1898385486</title>
<path fill="none" stroke="black" d="M1235.94,-359.7C1227.76,-351.39 1217.79,-341.28 1208.78,-332.14"/>
<polygon fill="black" stroke="black" points="1211.44,-329.85 1201.92,-325.18 1206.45,-334.76 1211.44,-329.85"/>
</g>
<!-- j3109507206 -->
<g id="node45" class="node">
<title>j3109507206</title>
<polygon fill="none" stroke="blue" points="839.5,-180 182.5,-180 182.5,-144 839.5,-144 839.5,-180"/>
<text text-anchor="middle" x="511" y="-158.3" font-family="Times New Roman,serif" font-size="14.00">Und zweitens, es WILL etwas. Es will raus. Wenn wir wissen, was es will, sind wir ihm schon einen Schritt voraus.</text>
</g>
<!-- j3849303309&#45;&gt;j3109507206 -->
<g id="edge50" class="edge">
<title>j3849303309&#45;&gt;j3109507206</title>
<path fill="none" stroke="black" d="M511,-287.59C511,-263.61 511,-220.14 511,-191.42"/>
<polygon fill="black" stroke="black" points="514.5,-191.62 511,-181.62 507.5,-191.62 514.5,-191.62"/>
</g>
<!-- j3105598149 -->
<g id="node46" class="node">
<title>j3105598149</title>
<polygon fill="none" stroke="blue" points="1124.5,-252 965.5,-252 965.5,-216 1124.5,-216 1124.5,-252"/>
<text text-anchor="middle" x="1045" y="-230.3" font-family="Times New Roman,serif" font-size="14.00">Die habe ich immer noch.</text>
</g>
<!-- j1898385486&#45;&gt;j3105598149 -->
<g id="edge51" class="edge">
<title>j1898385486&#45;&gt;j3105598149</title>
<path fill="none" stroke="black" d="M1149.28,-287.52C1131.15,-278.39 1108.77,-267.11 1089.39,-257.35"/>
<polygon fill="black" stroke="black" points="1091.13,-254.31 1080.63,-252.94 1087.98,-260.57 1091.13,-254.31"/>
</g>
<!-- j3109507206&#45;&gt;Chat ends. -->
<g id="edge52" class="edge">
<title>j3109507206&#45;&gt;Chat ends.</title>
<path fill="none" stroke="black" d="M511,-143.59C511,-119.61 511,-76.14 511,-47.42"/>
<polygon fill="black" stroke="black" points="514.5,-47.62 511,-37.62 507.5,-47.62 514.5,-47.62"/>
</g>
<!-- j202406357 -->
<g id="node47" class="node">
<title>j202406357</title>
<ellipse fill="none" stroke="orange" cx="1010" cy="-162" rx="64.19" ry="18"/>
<text text-anchor="middle" x="1010" y="-158.3" font-family="Times New Roman,serif" font-size="14.00">+20 Chemistry</text>
</g>
<!-- j3105598149&#45;&gt;j202406357 -->
<g id="edge53" class="edge">
<title>j3105598149&#45;&gt;j202406357</title>
<path fill="none" stroke="black" d="M1036.35,-215.7C1032.53,-208.07 1027.96,-198.92 1023.7,-190.4"/>
<polygon fill="black" stroke="black" points="1026.83,-188.84 1019.23,-181.46 1020.57,-191.97 1026.83,-188.84"/>
</g>
<!-- j4236722802 -->
<g id="node48" class="node">
<title>j4236722802</title>
<polygon fill="none" stroke="blue" points="889.5,-108 574.5,-108 574.5,-72 889.5,-72 889.5,-108"/>
<text text-anchor="middle" x="732" y="-86.3" font-family="Times New Roman,serif" font-size="14.00">Ich habe einfach mehr Angst, dich zu verlieren, okay?</text>
</g>
<!-- j202406357&#45;&gt;j4236722802 -->
<g id="edge54" class="edge">
<title>j202406357&#45;&gt;j4236722802</title>
<path fill="none" stroke="black" d="M963.47,-149.28C922.3,-138.92 861.32,-123.56 812.29,-111.22"/>
<polygon fill="black" stroke="black" points="813.4,-107.89 802.85,-108.84 811.69,-114.67 813.4,-107.89"/>
</g>
<!-- j4236722802&#45;&gt;Chat ends. -->
<g id="edge55" class="edge">
<title>j4236722802&#45;&gt;Chat ends.</title>
<path fill="none" stroke="black" d="M676.8,-71.52C640.35,-59.97 593.07,-45 558.34,-33.99"/>
<polygon fill="black" stroke="black" points="559.56,-30.71 548.97,-31.03 557.45,-37.38 559.56,-30.71"/>
</g>
</g>
</svg>
