<?xml version="1.0" encoding="UTF-8" standalone="no"?>
<!DOCTYPE svg PUBLIC "-//W3C//DTD SVG 1.1//EN"
 "http://www.w3.org/Graphics/SVG/1.1/DTD/svg11.dtd">
<!-- Generated by graphviz version 7.1.0 (20230121.1956)
 -->
<!-- Pages: 1 -->
<svg width="2133pt" height="332pt"
 viewBox="0.00 0.00 2132.50 332.00" xmlns="http://www.w3.org/2000/svg" xmlns:xlink="http://www.w3.org/1999/xlink">
<g id="graph0" class="graph" transform="scale(1 1) rotate(0) translate(4 328)">
<polygon fill="white" stroke="none" points="-4,4 -4,-328 2128.5,-328 2128.5,4 -4,4"/>
<!-- AoiBirthdayConvo2 begins. -->
<g id="node1" class="node">
<title>AoiBirthdayConvo2 begins.</title>
<ellipse fill="none" stroke="orange" cx="1004.5" cy="-306" rx="112.38" ry="18"/>
<text text-anchor="middle" x="1004.5" y="-302.3" font-family="Times New Roman,serif" font-size="14.00">AoiBirthdayConvo2 begins.</text>
</g>
<!-- j1107984844 -->
<g id="node2" class="node">
<title>j1107984844</title>
<polygon fill="none" stroke="red" points="1011,-252 0,-252 0,-216 1011,-216 1011,-252"/>
<text text-anchor="middle" x="505.5" y="-230.3" font-family="Times New Roman,serif" font-size="14.00">สุขสันต์วันเกิดนะ Aoi! บางทีเราอาจจะลองโคลน Zeke ให้เป็นของขวัญก็ได้นะ…</text>
</g>
<!-- AoiBirthdayConvo2 begins.&#45;&gt;j1107984844 -->
<g id="edge1" class="edge">
<title>AoiBirthdayConvo2 begins.&#45;&gt;j1107984844</title>
<path fill="none" stroke="black" d="M922.1,-293.44C845.91,-282.75 731.25,-266.67 641.5,-254.08"/>
<polygon fill="black" stroke="black" points="642.01,-250.62 631.62,-252.69 641.04,-257.55 642.01,-250.62"/>
</g>
<!-- j4111683910 -->
<g id="node3" class="node">
<title>j4111683910</title>
<polygon fill="none" stroke="red" points="1978,-252 1029,-252 1029,-216 1978,-216 1978,-252"/>
<text text-anchor="middle" x="1503.5" y="-230.3" font-family="Times New Roman,serif" font-size="14.00">เรามีชีวิตภายใต้แสงนีออน… และนี่คือปาร์ตี้วันเกิด! &lt;RETRO_EMOJI_HEART&gt;</text>
</g>
<!-- AoiBirthdayConvo2 begins.&#45;&gt;j4111683910 -->
<g id="edge2" class="edge">
<title>AoiBirthdayConvo2 begins.&#45;&gt;j4111683910</title>
<path fill="none" stroke="black" d="M1086.9,-293.44C1163.09,-282.75 1277.75,-266.67 1367.5,-254.08"/>
<polygon fill="black" stroke="black" points="1367.96,-257.55 1377.38,-252.69 1366.99,-250.62 1367.96,-257.55"/>
</g>
<!-- j133595338 -->
<g id="node4" class="node">
<title>j133595338</title>
<polygon fill="none" stroke="blue" points="855.5,-108 187.5,-108 187.5,-72 855.5,-72 855.5,-108"/>
<text text-anchor="middle" x="521.5" y="-86.3" font-family="Times New Roman,serif" font-size="14.00">&lt;RETRO_EMOJI_HORRIFIED&gt; ทำไมถึงล้อเล่นอะไรแบบนั้นล่ะ??</text>
</g>
<!-- j1107984844&#45;&gt;j133595338 -->
<g id="edge3" class="edge">
<title>j1107984844&#45;&gt;j133595338</title>
<path fill="none" stroke="black" d="M507.46,-215.59C510.16,-191.61 515.06,-148.14 518.3,-119.42"/>
<polygon fill="black" stroke="black" points="521.76,-119.94 519.4,-109.61 514.8,-119.16 521.76,-119.94"/>
</g>
<!-- j607147630 -->
<g id="node5" class="node">
<title>j607147630</title>
<ellipse fill="none" stroke="orange" cx="1501.5" cy="-162" rx="64.19" ry="18"/>
<text text-anchor="middle" x="1501.5" y="-158.3" font-family="Times New Roman,serif" font-size="14.00">+20 Chemistry</text>
</g>
<!-- j4111683910&#45;&gt;j607147630 -->
<g id="edge4" class="edge">
<title>j4111683910&#45;&gt;j607147630</title>
<path fill="none" stroke="black" d="M1503.01,-215.7C1502.8,-208.41 1502.55,-199.73 1502.32,-191.54"/>
<polygon fill="black" stroke="black" points="1505.82,-191.51 1502.03,-181.62 1498.82,-191.71 1505.82,-191.51"/>
</g>
<!-- Chat ends. -->
<g id="node6" class="node">
<title>Chat ends.</title>
<ellipse fill="none" stroke="orange" cx="1009.5" cy="-18" rx="50.09" ry="18"/>
<text text-anchor="middle" x="1009.5" y="-14.3" font-family="Times New Roman,serif" font-size="14.00">Chat ends.</text>
</g>
<!-- j133595338&#45;&gt;Chat ends. -->
<g id="edge5" class="edge">
<title>j133595338&#45;&gt;Chat ends.</title>
<path fill="none" stroke="black" d="M643.38,-71.52C742.2,-57.34 877.02,-38 952.43,-27.19"/>
<polygon fill="black" stroke="black" points="952.66,-30.69 962.06,-25.8 951.67,-23.76 952.66,-30.69"/>
</g>
<!-- j4103496403 -->
<g id="node7" class="node">
<title>j4103496403</title>
<polygon fill="none" stroke="blue" points="2124.5,-108 876.5,-108 876.5,-72 2124.5,-72 2124.5,-108"/>
<text text-anchor="middle" x="1500.5" y="-86.3" font-family="Times New Roman,serif" font-size="14.00">ฮ่าๆๆๆ ขอไม่เอาปาร์ตี้ได้ไหม แต่ขอบใจนะ! เดาสิว่าตอนนี้กำลังฟังอะไรอยู่ &lt;RETRO_EMOJI_WINK&gt;</text>
</g>
<!-- j607147630&#45;&gt;j4103496403 -->
<g id="edge6" class="edge">
<title>j607147630&#45;&gt;j4103496403</title>
<path fill="none" stroke="black" d="M1501.25,-143.7C1501.15,-136.41 1501.02,-127.73 1500.91,-119.54"/>
<polygon fill="black" stroke="black" points="1504.41,-119.57 1500.77,-109.62 1497.41,-119.67 1504.41,-119.57"/>
</g>
<!-- j4103496403&#45;&gt;Chat ends. -->
<g id="edge7" class="edge">
<title>j4103496403&#45;&gt;Chat ends.</title>
<path fill="none" stroke="black" d="M1377.87,-71.52C1278.31,-57.32 1142.42,-37.95 1066.61,-27.14"/>
<polygon fill="black" stroke="black" points="1067.31,-23.71 1056.92,-25.76 1066.33,-30.64 1067.31,-23.71"/>
</g>
</g>
</svg>
