<?xml version="1.0" encoding="UTF-8" standalone="no"?>
<!DOCTYPE svg PUBLIC "-//W3C//DTD SVG 1.1//EN"
 "http://www.w3.org/Graphics/SVG/1.1/DTD/svg11.dtd">
<!-- Generated by graphviz version 7.1.0 (20230121.1956)
 -->
<!-- Pages: 1 -->
<svg width="2338pt" height="1516pt"
 viewBox="0.00 0.00 2338.04 1516.00" xmlns="http://www.w3.org/2000/svg" xmlns:xlink="http://www.w3.org/1999/xlink">
<g id="graph0" class="graph" transform="scale(1 1) rotate(0) translate(4 1512)">
<polygon fill="white" stroke="none" points="-4,4 -4,-1512 2334.04,-1512 2334.04,4 -4,4"/>
<!-- ArthurRank4Convo6 begins. -->
<g id="node1" class="node">
<title>ArthurRank4Convo6 begins.</title>
<ellipse fill="none" stroke="orange" cx="128.04" cy="-1490" rx="115.08" ry="18"/>
<text text-anchor="middle" x="128.04" y="-1486.3" font-family="Times New Roman,serif" font-size="14.00">ArthurRank4Convo6 begins.</text>
</g>
<!-- j3247802305 -->
<g id="node2" class="node">
<title>j3247802305</title>
<ellipse fill="none" stroke="orange" cx="128.04" cy="-1417" rx="128.08" ry="18"/>
<text text-anchor="middle" x="128.04" y="-1413.3" font-family="Times New Roman,serif" font-size="14.00">Check boolean AmirRPGArthur</text>
</g>
<!-- ArthurRank4Convo6 begins.&#45;&gt;j3247802305 -->
<g id="edge1" class="edge">
<title>ArthurRank4Convo6 begins.&#45;&gt;j3247802305</title>
<path fill="none" stroke="black" d="M128.04,-1471.81C128.04,-1464.23 128.04,-1455.1 128.04,-1446.54"/>
<polygon fill="black" stroke="black" points="131.54,-1446.54 128.04,-1436.54 124.54,-1446.54 131.54,-1446.54"/>
</g>
<!-- Chat ends. -->
<g id="node3" class="node">
<title>Chat ends.</title>
<ellipse fill="none" stroke="orange" cx="318.04" cy="-18" rx="50.09" ry="18"/>
<text text-anchor="middle" x="318.04" y="-14.3" font-family="Times New Roman,serif" font-size="14.00">Chat ends.</text>
</g>
<!-- j3247802305&#45;&gt;Chat ends. -->
<g id="edge2" class="edge">
<title>j3247802305&#45;&gt;Chat ends.</title>
<path fill="none" stroke="green" d="M122.8,-1398.6C118.13,-1381.54 112.04,-1354.73 112.04,-1331 112.04,-1331 112.04,-1331 112.04,-90 112.04,-58.39 199.81,-37.8 260.77,-27.31"/>
<polygon fill="green" stroke="green" points="261.03,-30.81 270.32,-25.71 259.88,-23.91 261.03,-30.81"/>
<text text-anchor="middle" x="123.04" y="-682.3" font-family="Times New Roman,serif" font-size="14.00">true</text>
</g>
<!-- j3003866173 -->
<g id="node4" class="node">
<title>j3003866173</title>
<ellipse fill="none" stroke="orange" cx="245.04" cy="-1330" rx="104.78" ry="18"/>
<text text-anchor="middle" x="245.04" y="-1326.3" font-family="Times New Roman,serif" font-size="14.00">Check boolean AmirRPG</text>
</g>
<!-- j3247802305&#45;&gt;j3003866173 -->
<g id="edge3" class="edge">
<title>j3247802305&#45;&gt;j3003866173</title>
<path fill="none" stroke="brown" d="M151.43,-1399C168.97,-1386.26 193.19,-1368.67 212.59,-1354.57"/>
<polygon fill="brown" stroke="brown" points="214.43,-1357.57 220.46,-1348.86 210.31,-1351.9 214.43,-1357.57"/>
<text text-anchor="middle" x="207.04" y="-1369.8" font-family="Times New Roman,serif" font-size="14.00">false</text>
</g>
<!-- j3003866173&#45;&gt;Chat ends. -->
<g id="edge5" class="edge">
<title>j3003866173&#45;&gt;Chat ends.</title>
<path fill="none" stroke="brown" d="M213.19,-1312.68C189.78,-1298.17 162.04,-1274.53 162.04,-1244 162.04,-1244 162.04,-1244 162.04,-90 162.04,-46.2 213.61,-29.3 257.45,-22.84"/>
<polygon fill="brown" stroke="brown" points="257.71,-26.33 267.18,-21.57 256.81,-19.39 257.71,-26.33"/>
<text text-anchor="middle" x="175.04" y="-638.8" font-family="Times New Roman,serif" font-size="14.00">false</text>
</g>
<!-- j1923088054 -->
<g id="node5" class="node">
<title>j1923088054</title>
<ellipse fill="none" stroke="orange" cx="510.04" cy="-1243" rx="151.37" ry="18"/>
<text text-anchor="middle" x="510.04" y="-1239.3" font-family="Times New Roman,serif" font-size="14.00">Check boolean AmirRPGArthurAsked</text>
</g>
<!-- j3003866173&#45;&gt;j1923088054 -->
<g id="edge4" class="edge">
<title>j3003866173&#45;&gt;j1923088054</title>
<path fill="none" stroke="green" d="M293.03,-1313.61C336.62,-1299.63 401.14,-1278.93 448.51,-1263.74"/>
<polygon fill="green" stroke="green" points="449.35,-1267.14 457.81,-1260.75 447.21,-1260.48 449.35,-1267.14"/>
<text text-anchor="middle" x="404.04" y="-1282.8" font-family="Times New Roman,serif" font-size="14.00">true</text>
</g>
<!-- j2820694942 -->
<g id="node6" class="node">
<title>j2820694942</title>
<polygon fill="none" stroke="red" points="1182.04,-1174 538.04,-1174 538.04,-1138 1182.04,-1138 1182.04,-1174"/>
<text text-anchor="middle" x="860.04" y="-1152.3" font-family="Times New Roman,serif" font-size="14.00">亚瑟，关于寓言与边疆那个游戏——如果你也一起玩的话，它对我和阿米尔来说意义重大。</text>
</g>
<!-- j1923088054&#45;&gt;j2820694942 -->
<g id="edge6" class="edge">
<title>j1923088054&#45;&gt;j2820694942</title>
<path fill="none" stroke="green" d="M574.64,-1226.31C631.75,-1212.44 715.38,-1192.13 777.36,-1177.08"/>
<polygon fill="green" stroke="green" points="777.91,-1180.55 786.8,-1174.79 776.26,-1173.74 777.91,-1180.55"/>
<text text-anchor="middle" x="716.04" y="-1195.8" font-family="Times New Roman,serif" font-size="14.00">true</text>
</g>
<!-- j2569608395 -->
<g id="node7" class="node">
<title>j2569608395</title>
<polygon fill="none" stroke="red" points="742.54,-1012 177.54,-1012 177.54,-976 742.54,-976 742.54,-1012"/>
<text text-anchor="middle" x="460.04" y="-990.3" font-family="Times New Roman,serif" font-size="14.00">嘿，亚瑟——我知道你已经拒绝了玩寓言与边疆那个游戏，但我觉得会很有趣。</text>
</g>
<!-- j1923088054&#45;&gt;j2569608395 -->
<g id="edge7" class="edge">
<title>j1923088054&#45;&gt;j2569608395</title>
<path fill="none" stroke="green" d="M502.16,-1224.75C496.3,-1211.22 488.56,-1191.76 484.04,-1174 470.79,-1121.95 464.53,-1059.41 461.83,-1023.72"/>
<polygon fill="green" stroke="green" points="465.33,-1023.52 461.13,-1013.79 458.34,-1024.01 465.33,-1023.52"/>
<text text-anchor="middle" x="495.04" y="-1152.3" font-family="Times New Roman,serif" font-size="14.00">true</text>
</g>
<!-- j2841294629 -->
<g id="node8" class="node">
<title>j2841294629</title>
<polygon fill="none" stroke="red" points="960.04,-1120 502.04,-1120 502.04,-1084 960.04,-1084 960.04,-1120"/>
<text text-anchor="middle" x="731.04" y="-1098.3" font-family="Times New Roman,serif" font-size="14.00">嘿，你想跟我和阿米尔一起玩寓言与边疆吗？我觉得会很有趣。</text>
</g>
<!-- j1923088054&#45;&gt;j2841294629 -->
<g id="edge8" class="edge">
<title>j1923088054&#45;&gt;j2841294629</title>
<path fill="none" stroke="brown" d="M507.72,-1224.54C505.72,-1201.37 506.09,-1160.74 529.04,-1138 534.82,-1132.27 545,-1127.47 557.8,-1123.45"/>
<polygon fill="brown" stroke="brown" points="558.48,-1126.89 567.15,-1120.8 556.57,-1120.16 558.48,-1126.89"/>
<text text-anchor="middle" x="520.04" y="-1195.8" font-family="Times New Roman,serif" font-size="14.00">false</text>
</g>
<!-- j1025535944 -->
<g id="node9" class="node">
<title>j1025535944</title>
<polygon fill="none" stroke="red" points="1894.04,-1174 1200.04,-1174 1200.04,-1138 1894.04,-1138 1894.04,-1174"/>
<text text-anchor="middle" x="1547.04" y="-1152.3" font-family="Times New Roman,serif" font-size="14.00">嘿，亚瑟。阿米尔正在组织一次寓言与边疆的游戏，如果你能加入的话，对我们俩来说意义重大。</text>
</g>
<!-- j1923088054&#45;&gt;j1025535944 -->
<g id="edge9" class="edge">
<title>j1923088054&#45;&gt;j1025535944</title>
<path fill="none" stroke="brown" d="M632.05,-1232C801.41,-1218.12 1110.78,-1192.76 1322.5,-1175.4"/>
<polygon fill="brown" stroke="brown" points="1322.58,-1178.91 1332.26,-1174.6 1322.01,-1171.93 1322.58,-1178.91"/>
<text text-anchor="middle" x="1103.04" y="-1195.8" font-family="Times New Roman,serif" font-size="14.00">false</text>
</g>
<!-- j1897795035 -->
<g id="node10" class="node">
<title>j1897795035</title>
<polygon fill="none" stroke="blue" points="1485.04,-1066 1279.04,-1066 1279.04,-1030 1485.04,-1030 1485.04,-1066"/>
<text text-anchor="middle" x="1382.04" y="-1044.3" font-family="Times New Roman,serif" font-size="14.00">真的吗？为什么这么重要？</text>
</g>
<!-- j2820694942&#45;&gt;j1897795035 -->
<g id="edge10" class="edge">
<title>j2820694942&#45;&gt;j1897795035</title>
<path fill="none" stroke="black" d="M945.94,-1137.56C1039.16,-1118.63 1187.67,-1088.47 1285.02,-1068.7"/>
<polygon fill="black" stroke="black" points="1285.46,-1072.18 1294.56,-1066.76 1284.07,-1065.32 1285.46,-1072.18"/>
</g>
<!-- j2554558869 -->
<g id="node11" class="node">
<title>j2554558869</title>
<polygon fill="none" stroke="blue" points="730.54,-885 401.54,-885 401.54,-849 730.54,-849 730.54,-885"/>
<text text-anchor="middle" x="566.04" y="-863.3" font-family="Times New Roman,serif" font-size="14.00">我们对“有趣”的定义大不相同。抱歉，不了。</text>
</g>
<!-- j2569608395&#45;&gt;j2554558869 -->
<g id="edge11" class="edge">
<title>j2569608395&#45;&gt;j2554558869</title>
<path fill="none" stroke="black" d="M474.78,-975.62C492.73,-954.44 523.24,-918.47 543.99,-894"/>
<polygon fill="black" stroke="black" points="546.65,-896.28 550.45,-886.39 541.31,-891.75 546.65,-896.28"/>
</g>
<!-- j2841294629&#45;&gt;j2554558869 -->
<g id="edge12" class="edge">
<title>j2841294629&#45;&gt;j2554558869</title>
<path fill="none" stroke="black" d="M738.89,-1083.54C749.05,-1058.12 763.3,-1010.22 744.04,-976 720.36,-933.93 672.93,-906.36 632.99,-889.61"/>
<polygon fill="black" stroke="black" points="634.47,-886.43 623.88,-885.94 631.85,-892.93 634.47,-886.43"/>
</g>
<!-- j1025535944&#45;&gt;j1897795035 -->
<g id="edge13" class="edge">
<title>j1025535944&#45;&gt;j1897795035</title>
<path fill="none" stroke="black" d="M1520.16,-1137.73C1492.56,-1120 1449.4,-1092.28 1418.68,-1072.54"/>
<polygon fill="black" stroke="black" points="1420.76,-1069.71 1410.45,-1067.25 1416.97,-1075.6 1420.76,-1069.71"/>
</g>
<!-- j4073702972 -->
<g id="node12" class="node">
<title>j4073702972</title>
<polygon fill="none" stroke="red" points="1322.04,-958 786.04,-958 786.04,-922 1322.04,-922 1322.04,-958"/>
<text text-anchor="middle" x="1054.04" y="-936.3" font-family="Times New Roman,serif" font-size="14.00">我觉得会很有趣，而且对我们所有人来说也是一次很好的增进感情的经历。</text>
</g>
<!-- j1897795035&#45;&gt;j4073702972 -->
<g id="edge14" class="edge">
<title>j1897795035&#45;&gt;j4073702972</title>
<path fill="none" stroke="black" d="M1328.24,-1029.61C1270.89,-1011.08 1180.08,-981.73 1118.83,-961.94"/>
<polygon fill="black" stroke="black" points="1120.17,-958.69 1109.58,-958.95 1118.02,-965.35 1120.17,-958.69"/>
</g>
<!-- j3859890084 -->
<g id="node13" class="node">
<title>j3859890084</title>
<polygon fill="none" stroke="red" points="2330.04,-958 1340.04,-958 1340.04,-922 2330.04,-922 2330.04,-958"/>
<text text-anchor="middle" x="1835.04" y="-936.3" font-family="Times New Roman,serif" font-size="14.00">他觉得自己不格格不入——不是军事人员，又是个书呆子，有点局外人的感觉。如果我们都坐下来和他一起玩他的游戏，对他来说意义重大。</text>
</g>
<!-- j1897795035&#45;&gt;j3859890084 -->
<g id="edge15" class="edge">
<title>j1897795035&#45;&gt;j3859890084</title>
<path fill="none" stroke="black" d="M1456.59,-1029.56C1536.99,-1010.74 1664.8,-980.84 1749.3,-961.06"/>
<polygon fill="black" stroke="black" points="1750,-964.49 1758.94,-958.81 1748.4,-957.68 1750,-964.49"/>
</g>
<!-- j1878558795 -->
<g id="node14" class="node">
<title>j1878558795</title>
<polygon fill="none" stroke="blue" points="657.54,-758 420.54,-758 420.54,-722 657.54,-722 657.54,-758"/>
<text text-anchor="middle" x="539.04" y="-736.3" font-family="Times New Roman,serif" font-size="14.00">不过，孩子们，你们玩得开心。</text>
</g>
<!-- j2554558869&#45;&gt;j1878558795 -->
<g id="edge16" class="edge">
<title>j2554558869&#45;&gt;j1878558795</title>
<path fill="none" stroke="black" d="M562.28,-848.62C557.85,-828.1 550.42,-793.67 545.15,-769.29"/>
<polygon fill="black" stroke="black" points="548.61,-768.75 543.08,-759.71 541.77,-770.23 548.61,-768.75"/>
</g>
<!-- j4073702972&#45;&gt;j2554558869 -->
<g id="edge17" class="edge">
<title>j4073702972&#45;&gt;j2554558869</title>
<path fill="none" stroke="black" d="M934.04,-921.54C862.23,-911.09 770.91,-897.81 697.21,-887.08"/>
<polygon fill="black" stroke="black" points="697.9,-883.65 687.5,-885.67 696.89,-890.57 697.9,-883.65"/>
</g>
<!-- j1779045507 -->
<g id="node15" class="node">
<title>j1779045507</title>
<ellipse fill="none" stroke="orange" cx="923.04" cy="-867" rx="64.19" ry="18"/>
<text text-anchor="middle" x="923.04" y="-863.3" font-family="Times New Roman,serif" font-size="14.00">+20 Chemistry</text>
</g>
<!-- j3859890084&#45;&gt;j1779045507 -->
<g id="edge18" class="edge">
<title>j3859890084&#45;&gt;j1779045507</title>
<path fill="none" stroke="black" d="M1610.48,-921.52C1409.32,-905.86 1126.41,-883.83 995.16,-873.61"/>
<polygon fill="black" stroke="black" points="995.82,-870.16 985.58,-872.87 995.28,-877.13 995.82,-870.16"/>
</g>
<!-- j1878558795&#45;&gt;Chat ends. -->
<g id="edge19" class="edge">
<title>j1878558795&#45;&gt;Chat ends.</title>
<path fill="none" stroke="black" d="M420.13,-729.67C367.82,-718.37 318.04,-694.28 318.04,-643.5 318.04,-643.5 318.04,-643.5 318.04,-90 318.04,-76.08 318.04,-60.63 318.04,-47.7"/>
<polygon fill="black" stroke="black" points="321.54,-47.73 318.04,-37.73 314.54,-47.73 321.54,-47.73"/>
</g>
<!-- j3355606729 -->
<g id="node16" class="node">
<title>j3355606729</title>
<polygon fill="none" stroke="blue" points="1060.54,-812 779.54,-812 779.54,-776 1060.54,-776 1060.54,-812"/>
<text text-anchor="middle" x="920.04" y="-790.3" font-family="Times New Roman,serif" font-size="14.00">嗯……也是。好吧，我玩。算我一个。</text>
</g>
<!-- j1779045507&#45;&gt;j3355606729 -->
<g id="edge20" class="edge">
<title>j1779045507&#45;&gt;j3355606729</title>
<path fill="none" stroke="black" d="M922.31,-848.81C921.99,-841.14 921.6,-831.89 921.23,-823.24"/>
<polygon fill="black" stroke="black" points="924.74,-823.38 920.82,-813.54 917.75,-823.68 924.74,-823.38"/>
</g>
<!-- j285649588 -->
<g id="node17" class="node">
<title>j285649588</title>
<polygon fill="none" stroke="blue" points="808.54,-704 587.54,-704 587.54,-668 808.54,-668 808.54,-704"/>
<text text-anchor="middle" x="698.04" y="-682.3" font-family="Times New Roman,serif" font-size="14.00">至少先玩一晚，看看怎么样。</text>
</g>
<!-- j3355606729&#45;&gt;j285649588 -->
<g id="edge21" class="edge">
<title>j3355606729&#45;&gt;j285649588</title>
<path fill="none" stroke="black" d="M883.88,-775.73C846.01,-757.65 786.4,-729.19 744.94,-709.4"/>
<polygon fill="black" stroke="black" points="746.45,-706.24 735.92,-705.09 743.44,-712.55 746.45,-706.24"/>
</g>
<!-- j243672508 -->
<g id="node18" class="node">
<title>j243672508</title>
<ellipse fill="none" stroke="orange" cx="639.04" cy="-599" rx="147.57" ry="18"/>
<text text-anchor="middle" x="639.04" y="-595.3" font-family="Times New Roman,serif" font-size="14.00">Boolean AmirRPGArthur is now true.</text>
</g>
<!-- j285649588&#45;&gt;j243672508 -->
<g id="edge22" class="edge">
<title>j285649588&#45;&gt;j243672508</title>
<path fill="none" stroke="black" d="M686.1,-667.8C677.86,-655.93 666.75,-639.93 657.4,-626.45"/>
<polygon fill="black" stroke="black" points="660.4,-624.64 651.82,-618.42 654.65,-628.63 660.4,-624.64"/>
</g>
<!-- j216831259 -->
<g id="node19" class="node">
<title>j216831259</title>
<ellipse fill="none" stroke="orange" cx="610.04" cy="-526" rx="130.78" ry="18"/>
<text text-anchor="middle" x="610.04" y="-522.3" font-family="Times New Roman,serif" font-size="14.00">Check boolean AmirRPGQuincy</text>
</g>
<!-- j243672508&#45;&gt;j216831259 -->
<g id="edge23" class="edge">
<title>j243672508&#45;&gt;j216831259</title>
<path fill="none" stroke="black" d="M632.02,-580.81C628.81,-572.96 624.93,-563.47 621.33,-554.66"/>
<polygon fill="black" stroke="black" points="624.59,-553.36 617.57,-545.43 618.11,-556.01 624.59,-553.36"/>
</g>
<!-- j1819150890 -->
<g id="node20" class="node">
<title>j1819150890</title>
<ellipse fill="none" stroke="orange" cx="610.04" cy="-439" rx="128.08" ry="18"/>
<text text-anchor="middle" x="610.04" y="-435.3" font-family="Times New Roman,serif" font-size="14.00">Check boolean AmirRPGArthur</text>
</g>
<!-- j216831259&#45;&gt;j1819150890 -->
<g id="edge24" class="edge">
<title>j216831259&#45;&gt;j1819150890</title>
<path fill="none" stroke="green" d="M610.04,-507.8C610.04,-496.58 610.04,-481.67 610.04,-468.69"/>
<polygon fill="green" stroke="green" points="613.54,-468.98 610.04,-458.98 606.54,-468.98 613.54,-468.98"/>
<text text-anchor="middle" x="621.04" y="-478.8" font-family="Times New Roman,serif" font-size="14.00">true</text>
</g>
<!-- j1692268193 -->
<g id="node21" class="node">
<title>j1692268193</title>
<ellipse fill="none" stroke="orange" cx="486.04" cy="-91" rx="139.98" ry="18"/>
<text text-anchor="middle" x="486.04" y="-87.3" font-family="Times New Roman,serif" font-size="14.00">Boolean AmirRPGAny is now true.</text>
</g>
<!-- j216831259&#45;&gt;j1692268193 -->
<g id="edge25" class="edge">
<title>j216831259&#45;&gt;j1692268193</title>
<path fill="none" stroke="brown" d="M519.56,-512.74C478.96,-501.62 440.04,-480.42 440.04,-440 440.04,-440 440.04,-440 440.04,-177 440.04,-155.26 451.82,-133.75 463.46,-117.81"/>
<polygon fill="brown" stroke="brown" points="465.92,-120.35 469.28,-110.3 460.39,-116.06 465.92,-120.35"/>
<text text-anchor="middle" x="453.04" y="-304.8" font-family="Times New Roman,serif" font-size="14.00">false</text>
</g>
<!-- j1819150890&#45;&gt;j1692268193 -->
<g id="edge27" class="edge">
<title>j1819150890&#45;&gt;j1692268193</title>
<path fill="none" stroke="brown" d="M552.76,-422.46C520.27,-409.78 486.04,-388.1 486.04,-353 486.04,-353 486.04,-353 486.04,-177 486.04,-158.12 486.04,-136.88 486.04,-120.35"/>
<polygon fill="brown" stroke="brown" points="489.54,-120.77 486.04,-110.77 482.54,-120.77 489.54,-120.77"/>
<text text-anchor="middle" x="499.04" y="-261.3" font-family="Times New Roman,serif" font-size="14.00">false</text>
</g>
<!-- j2586998905 -->
<g id="node22" class="node">
<title>j2586998905</title>
<ellipse fill="none" stroke="orange" cx="632.04" cy="-352" rx="117.78" ry="18"/>
<text text-anchor="middle" x="632.04" y="-348.3" font-family="Times New Roman,serif" font-size="14.00">Check boolean AmirRPGAoi</text>
</g>
<!-- j1819150890&#45;&gt;j2586998905 -->
<g id="edge26" class="edge">
<title>j1819150890&#45;&gt;j2586998905</title>
<path fill="none" stroke="green" d="M614.49,-420.8C617.42,-409.47 621.33,-394.36 624.72,-381.29"/>
<polygon fill="green" stroke="green" points="628.02,-382.49 627.14,-371.93 621.24,-380.74 628.02,-382.49"/>
<text text-anchor="middle" x="633.04" y="-391.8" font-family="Times New Roman,serif" font-size="14.00">true</text>
</g>
<!-- j1692268193&#45;&gt;Chat ends. -->
<g id="edge28" class="edge">
<title>j1692268193&#45;&gt;Chat ends.</title>
<path fill="none" stroke="black" d="M446.65,-73.35C420.65,-62.37 386.62,-47.98 360.1,-36.77"/>
<polygon fill="black" stroke="black" points="361.57,-33.6 351,-32.93 358.84,-40.05 361.57,-33.6"/>
</g>
<!-- j2586998905&#45;&gt;j1692268193 -->
<g id="edge30" class="edge">
<title>j2586998905&#45;&gt;j1692268193</title>
<path fill="none" stroke="brown" d="M608.64,-333.9C592.83,-321.32 572.46,-302.99 559.04,-283 517.72,-221.46 526.92,-196.08 500.04,-127 499.17,-124.76 498.26,-122.44 497.34,-120.12"/>
<polygon fill="brown" stroke="brown" points="500.59,-118.82 493.64,-110.83 494.09,-121.41 500.59,-118.82"/>
<text text-anchor="middle" x="543.04" y="-217.8" font-family="Times New Roman,serif" font-size="14.00">false</text>
</g>
<!-- j206518691 -->
<g id="node23" class="node">
<title>j206518691</title>
<ellipse fill="none" stroke="orange" cx="700.04" cy="-265" rx="131.88" ry="18"/>
<text text-anchor="middle" x="700.04" y="-261.3" font-family="Times New Roman,serif" font-size="14.00">Check boolean AmirRPGEleanor</text>
</g>
<!-- j2586998905&#45;&gt;j206518691 -->
<g id="edge29" class="edge">
<title>j2586998905&#45;&gt;j206518691</title>
<path fill="none" stroke="green" d="M645.8,-333.8C655.39,-321.82 668.35,-305.62 679.19,-292.06"/>
<polygon fill="green" stroke="green" points="681.84,-294.35 685.35,-284.36 676.37,-289.98 681.84,-294.35"/>
<text text-anchor="middle" x="681.04" y="-304.8" font-family="Times New Roman,serif" font-size="14.00">true</text>
</g>
<!-- j206518691&#45;&gt;j1692268193 -->
<g id="edge32" class="edge">
<title>j206518691&#45;&gt;j1692268193</title>
<path fill="none" stroke="brown" d="M665.95,-247.21C643.87,-235.15 615.52,-217.28 595.04,-196 570.31,-170.29 580.02,-151.45 554.04,-127 548.96,-122.22 543.11,-117.93 537.01,-114.13"/>
<polygon fill="brown" stroke="brown" points="539.03,-111.25 528.61,-109.31 535.54,-117.33 539.03,-111.25"/>
<text text-anchor="middle" x="608.04" y="-174.3" font-family="Times New Roman,serif" font-size="14.00">false</text>
</g>
<!-- j126081337 -->
<g id="node24" class="node">
<title>j126081337</title>
<ellipse fill="none" stroke="orange" cx="754.04" cy="-178" rx="124.28" ry="18"/>
<text text-anchor="middle" x="754.04" y="-174.3" font-family="Times New Roman,serif" font-size="14.00">Check boolean AmirRPGLettie</text>
</g>
<!-- j206518691&#45;&gt;j126081337 -->
<g id="edge31" class="edge">
<title>j206518691&#45;&gt;j126081337</title>
<path fill="none" stroke="green" d="M710.97,-246.8C718.43,-235.05 728.48,-219.24 736.99,-205.84"/>
<polygon fill="green" stroke="green" points="739.91,-207.77 742.32,-197.45 734,-204.02 739.91,-207.77"/>
<text text-anchor="middle" x="741.04" y="-217.8" font-family="Times New Roman,serif" font-size="14.00">true</text>
</g>
<!-- j126081337&#45;&gt;j1692268193 -->
<g id="edge34" class="edge">
<title>j126081337&#45;&gt;j1692268193</title>
<path fill="none" stroke="brown" d="M705.55,-161.04C675.26,-151.12 635.42,-138.17 600.04,-127 583.76,-121.86 566.15,-116.4 549.74,-111.36"/>
<polygon fill="brown" stroke="brown" points="551.2,-108.15 540.61,-108.56 549.15,-114.84 551.2,-108.15"/>
<text text-anchor="middle" x="659.04" y="-130.8" font-family="Times New Roman,serif" font-size="14.00">false</text>
</g>
<!-- j3798570005 -->
<g id="node25" class="node">
<title>j3798570005</title>
<ellipse fill="none" stroke="orange" cx="778.04" cy="-91" rx="134.58" ry="18"/>
<text text-anchor="middle" x="778.04" y="-87.3" font-family="Times New Roman,serif" font-size="14.00">Boolean AmirRPGAll is now true.</text>
</g>
<!-- j126081337&#45;&gt;j3798570005 -->
<g id="edge33" class="edge">
<title>j126081337&#45;&gt;j3798570005</title>
<path fill="none" stroke="green" d="M758.9,-159.8C762.09,-148.47 766.36,-133.36 770.05,-120.29"/>
<polygon fill="green" stroke="green" points="773.35,-121.5 772.7,-110.92 766.61,-119.6 773.35,-121.5"/>
<text text-anchor="middle" x="778.04" y="-130.8" font-family="Times New Roman,serif" font-size="14.00">true</text>
</g>
<!-- j3798570005&#45;&gt;Chat ends. -->
<g id="edge35" class="edge">
<title>j3798570005&#45;&gt;Chat ends.</title>
<path fill="none" stroke="black" d="M692.33,-76.77C599.54,-62.45 454.21,-40.02 374.7,-27.75"/>
<polygon fill="black" stroke="black" points="375.37,-24.31 364.96,-26.24 374.31,-31.23 375.37,-24.31"/>
</g>
</g>
</svg>
