<?xml version="1.0" encoding="UTF-8" standalone="no"?>
<!DOCTYPE svg PUBLIC "-//W3C//DTD SVG 1.1//EN"
 "http://www.w3.org/Graphics/SVG/1.1/DTD/svg11.dtd">
<!-- Generated by graphviz version 7.1.0 (20230121.1956)
 -->
<!-- Pages: 1 -->
<svg width="3277pt" height="1484pt"
 viewBox="0.00 0.00 3276.50 1484.00" xmlns="http://www.w3.org/2000/svg" xmlns:xlink="http://www.w3.org/1999/xlink">
<g id="graph0" class="graph" transform="scale(1 1) rotate(0) translate(4 1480)">
<polygon fill="white" stroke="none" points="-4,4 -4,-1480 3272.5,-1480 3272.5,4 -4,4"/>
<!-- ArthurRank1Convo4 begins. -->
<g id="node1" class="node">
<title>ArthurRank1Convo4 begins.</title>
<ellipse fill="none" stroke="orange" cx="908" cy="-1458" rx="115.08" ry="18"/>
<text text-anchor="middle" x="908" y="-1454.3" font-family="Times New Roman,serif" font-size="14.00">ArthurRank1Convo4 begins.</text>
</g>
<!-- j1540095752 -->
<g id="node2" class="node">
<title>j1540095752</title>
<polygon fill="none" stroke="blue" points="1137,-1404 679,-1404 679,-1368 1137,-1368 1137,-1404"/>
<text text-anchor="middle" x="908" y="-1382.3" font-family="Times New Roman,serif" font-size="14.00">ว่าแต่ไปหัดสู้มาจากที่ไหนล่ะ</text>
</g>
<!-- ArthurRank1Convo4 begins.&#45;&gt;j1540095752 -->
<g id="edge1" class="edge">
<title>ArthurRank1Convo4 begins.&#45;&gt;j1540095752</title>
<path fill="none" stroke="black" d="M908,-1439.7C908,-1432.41 908,-1423.73 908,-1415.54"/>
<polygon fill="black" stroke="black" points="911.5,-1415.62 908,-1405.62 904.5,-1415.62 911.5,-1415.62"/>
</g>
<!-- j2428791893 -->
<g id="node3" class="node">
<title>j2428791893</title>
<polygon fill="none" stroke="red" points="1814.5,-1332 1577.5,-1332 1577.5,-1296 1814.5,-1296 1814.5,-1332"/>
<text text-anchor="middle" x="1696" y="-1310.3" font-family="Times New Roman,serif" font-size="14.00">ก็ลองผิดลองถูก</text>
</g>
<!-- j1540095752&#45;&gt;j2428791893 -->
<g id="edge2" class="edge">
<title>j1540095752&#45;&gt;j2428791893</title>
<path fill="none" stroke="black" d="M1104.81,-1367.52C1248.96,-1354.71 1440.55,-1337.69 1566,-1326.55"/>
<polygon fill="black" stroke="black" points="1566.02,-1330.06 1575.67,-1325.69 1565.4,-1323.09 1566.02,-1330.06"/>
</g>
<!-- j2055883824 -->
<g id="node4" class="node">
<title>j2055883824</title>
<polygon fill="none" stroke="red" points="1159.5,-1332 656.5,-1332 656.5,-1296 1159.5,-1296 1159.5,-1332"/>
<text text-anchor="middle" x="908" y="-1310.3" font-family="Times New Roman,serif" font-size="14.00">จากที่ปรึกษาของข้าที่ชื่อ Teshin น่ะ</text>
</g>
<!-- j1540095752&#45;&gt;j2055883824 -->
<g id="edge3" class="edge">
<title>j1540095752&#45;&gt;j2055883824</title>
<path fill="none" stroke="black" d="M908,-1367.7C908,-1360.41 908,-1351.73 908,-1343.54"/>
<polygon fill="black" stroke="black" points="911.5,-1343.62 908,-1333.62 904.5,-1343.62 911.5,-1343.62"/>
</g>
<!-- j4071326631 -->
<g id="node5" class="node">
<title>j4071326631</title>
<polygon fill="none" stroke="red" points="245,-1260 109,-1260 109,-1224 245,-1224 245,-1260"/>
<text text-anchor="middle" x="177" y="-1238.3" font-family="Times New Roman,serif" font-size="14.00">[ไม่สนใจ]</text>
</g>
<!-- j1540095752&#45;&gt;j4071326631 -->
<g id="edge4" class="edge">
<title>j1540095752&#45;&gt;j4071326631</title>
<path fill="none" stroke="black" d="M818,-1367.52C673.89,-1339.52 393.65,-1285.09 256.49,-1258.44"/>
<polygon fill="black" stroke="black" points="257.24,-1255.02 246.76,-1256.55 255.91,-1261.89 257.24,-1255.02"/>
</g>
<!-- j3593964134 -->
<g id="node6" class="node">
<title>j3593964134</title>
<polygon fill="none" stroke="blue" points="2266,-1260 1588,-1260 1588,-1224 2266,-1224 2266,-1260"/>
<text text-anchor="middle" x="1927" y="-1238.3" font-family="Times New Roman,serif" font-size="14.00">ฟังดูเหมือนจะเป็นวิธีที่ดีในการถูกฆ่าเลยนะ</text>
</g>
<!-- j2428791893&#45;&gt;j3593964134 -->
<g id="edge5" class="edge">
<title>j2428791893&#45;&gt;j3593964134</title>
<path fill="none" stroke="black" d="M1753.7,-1295.52C1785.65,-1285.83 1825.56,-1273.74 1859.02,-1263.6"/>
<polygon fill="black" stroke="black" points="1859.64,-1267.07 1868.19,-1260.82 1857.61,-1260.37 1859.64,-1267.07"/>
</g>
<!-- j2099219723 -->
<g id="node7" class="node">
<title>j2099219723</title>
<polygon fill="none" stroke="red" points="1408.5,-1188 407.5,-1188 407.5,-1152 1408.5,-1152 1408.5,-1188"/>
<text text-anchor="middle" x="908" y="-1166.3" font-family="Times New Roman,serif" font-size="14.00">ทหาร Dax ชั้นยอด ซึ่งข้า *เพิ่ง* นึกได้ว่าไม่มีความหมายอะไรกับเจ้าเลย</text>
</g>
<!-- j2055883824&#45;&gt;j2099219723 -->
<g id="edge6" class="edge">
<title>j2055883824&#45;&gt;j2099219723</title>
<path fill="none" stroke="black" d="M908,-1295.59C908,-1271.61 908,-1228.14 908,-1199.42"/>
<polygon fill="black" stroke="black" points="911.5,-1199.62 908,-1189.62 904.5,-1199.62 911.5,-1199.62"/>
</g>
<!-- Chat ends. -->
<g id="node8" class="node">
<title>Chat ends.</title>
<ellipse fill="none" stroke="orange" cx="1432" cy="-18" rx="50.09" ry="18"/>
<text text-anchor="middle" x="1432" y="-14.3" font-family="Times New Roman,serif" font-size="14.00">Chat ends.</text>
</g>
<!-- j4071326631&#45;&gt;Chat ends. -->
<g id="edge7" class="edge">
<title>j4071326631&#45;&gt;Chat ends.</title>
<path fill="none" stroke="black" d="M123.41,-1223.63C71.32,-1202.98 0,-1163.02 0,-1099 0,-1099 0,-1099 0,-161 0,-21.15 1095.48,-17.31 1370.13,-18.54"/>
<polygon fill="black" stroke="black" points="1369.92,-22.04 1379.94,-18.59 1369.96,-15.04 1369.92,-22.04"/>
</g>
<!-- j3448196942 -->
<g id="node9" class="node">
<title>j3448196942</title>
<polygon fill="none" stroke="red" points="2594.5,-1188 1469.5,-1188 1469.5,-1152 2594.5,-1152 2594.5,-1188"/>
<text text-anchor="middle" x="2032" y="-1166.3" font-family="Times New Roman,serif" font-size="14.00">อ้อ และข้าก็ทำบ่อยมากเลย ซ้ำแล้วซ้ำเล่า ซ้ำแล้วซ้ำเล่า... และซ้ำแล้วซ้ำเล่า...</text>
</g>
<!-- j3593964134&#45;&gt;j3448196942 -->
<g id="edge8" class="edge">
<title>j3593964134&#45;&gt;j3448196942</title>
<path fill="none" stroke="black" d="M1953.23,-1223.52C1966.35,-1214.76 1982.43,-1204.04 1996.64,-1194.58"/>
<polygon fill="black" stroke="black" points="1998.47,-1197.56 2004.85,-1189.1 1994.59,-1191.73 1998.47,-1197.56"/>
</g>
<!-- j1276337853 -->
<g id="node10" class="node">
<title>j1276337853</title>
<polygon fill="none" stroke="red" points="1213.5,-1116 602.5,-1116 602.5,-1080 1213.5,-1080 1213.5,-1116"/>
<text text-anchor="middle" x="908" y="-1094.3" font-family="Times New Roman,serif" font-size="14.00">สรุปคร่าว ๆ เลยนะ คือเขาอดทนกับข้ามากเลย</text>
</g>
<!-- j2099219723&#45;&gt;j1276337853 -->
<g id="edge9" class="edge">
<title>j2099219723&#45;&gt;j1276337853</title>
<path fill="none" stroke="black" d="M908,-1151.7C908,-1144.41 908,-1135.73 908,-1127.54"/>
<polygon fill="black" stroke="black" points="911.5,-1127.62 908,-1117.62 904.5,-1127.62 911.5,-1127.62"/>
</g>
<!-- j1113853338 -->
<g id="node11" class="node">
<title>j1113853338</title>
<polygon fill="none" stroke="red" points="2264,-1116 1968,-1116 1968,-1080 2264,-1080 2264,-1116"/>
<text text-anchor="middle" x="2116" y="-1094.3" font-family="Times New Roman,serif" font-size="14.00">และซ้ำแล้วซ้ำเล่า...</text>
</g>
<!-- j3448196942&#45;&gt;j1113853338 -->
<g id="edge10" class="edge">
<title>j3448196942&#45;&gt;j1113853338</title>
<path fill="none" stroke="black" d="M2052.76,-1151.7C2062.96,-1143.2 2075.42,-1132.81 2086.58,-1123.51"/>
<polygon fill="black" stroke="black" points="2088.58,-1126.41 2094.02,-1117.32 2084.1,-1121.03 2088.58,-1126.41"/>
</g>
<!-- j2935967195 -->
<g id="node12" class="node">
<title>j2935967195</title>
<polygon fill="none" stroke="blue" points="1440,-900 376,-900 376,-864 1440,-864 1440,-900"/>
<text text-anchor="middle" x="908" y="-878.3" font-family="Times New Roman,serif" font-size="14.00">เอ๋ ฟังดูเหมือนเป็นครูสอนที่ดีเลยนี่หว่า เป็นคนแบบที่ข้าอยากเจอเลยนะ</text>
</g>
<!-- j1276337853&#45;&gt;j2935967195 -->
<g id="edge11" class="edge">
<title>j1276337853&#45;&gt;j2935967195</title>
<path fill="none" stroke="black" d="M908,-1079.85C908,-1043.14 908,-956.66 908,-911.53"/>
<polygon fill="black" stroke="black" points="911.5,-911.75 908,-901.75 904.5,-911.75 911.5,-911.75"/>
</g>
<!-- j141535441 -->
<g id="node13" class="node">
<title>j141535441</title>
<polygon fill="none" stroke="blue" points="2474,-1044 1842,-1044 1842,-1008 2474,-1008 2474,-1044"/>
<text text-anchor="middle" x="2158" y="-1022.3" font-family="Times New Roman,serif" font-size="14.00">ใน Duviri วนเวียนไปซ้ำ ๆ อย่างที่เคยบอกน่ะเหรอ</text>
</g>
<!-- j1113853338&#45;&gt;j141535441 -->
<g id="edge12" class="edge">
<title>j1113853338&#45;&gt;j141535441</title>
<path fill="none" stroke="black" d="M2126.38,-1079.7C2131.06,-1071.9 2136.69,-1062.51 2141.9,-1053.83"/>
<polygon fill="black" stroke="black" points="2144.81,-1055.78 2146.96,-1045.4 2138.81,-1052.18 2144.81,-1055.78"/>
</g>
<!-- j2198852307 -->
<g id="node14" class="node">
<title>j2198852307</title>
<polygon fill="none" stroke="red" points="1603,-828 1025,-828 1025,-792 1603,-792 1603,-828"/>
<text text-anchor="middle" x="1314" y="-806.3" font-family="Times New Roman,serif" font-size="14.00">ข้าคงยังคงหลงทางอยู่ใน Duviri หากไม่มีเขา</text>
</g>
<!-- j2935967195&#45;&gt;j2198852307 -->
<g id="edge13" class="edge">
<title>j2935967195&#45;&gt;j2198852307</title>
<path fill="none" stroke="black" d="M1009.4,-863.52C1067.89,-853.43 1141.53,-840.74 1201.75,-830.35"/>
<polygon fill="black" stroke="black" points="1202.08,-833.85 1211.34,-828.7 1200.89,-826.95 1202.08,-833.85"/>
</g>
<!-- j4146958058 -->
<g id="node15" class="node">
<title>j4146958058</title>
<polygon fill="none" stroke="red" points="944,-828 376,-828 376,-792 944,-792 944,-828"/>
<text text-anchor="middle" x="660" y="-806.3" font-family="Times New Roman,serif" font-size="14.00">เขาช่วยผลักดันในแบบที่ข้าต้องการเลย</text>
</g>
<!-- j2935967195&#45;&gt;j4146958058 -->
<g id="edge14" class="edge">
<title>j2935967195&#45;&gt;j4146958058</title>
<path fill="none" stroke="black" d="M846.06,-863.52C811.6,-853.79 768.54,-841.64 732.52,-831.47"/>
<polygon fill="black" stroke="black" points="733.61,-828.14 723.04,-828.79 731.71,-834.88 733.61,-828.14"/>
</g>
<!-- j785199395 -->
<g id="node16" class="node">
<title>j785199395</title>
<polygon fill="none" stroke="red" points="2827.5,-972 1488.5,-972 1488.5,-936 2827.5,-936 2827.5,-972"/>
<text text-anchor="middle" x="2158" y="-950.3" font-family="Times New Roman,serif" font-size="14.00">จริง ๆ แล้วมันเป็นเหมือนก้นหอยที่เป็นวังวนอารมณ์มากกว่า ประเด็นคือ ข้าฝึกฝนมาเยอะมากเลย</text>
</g>
<!-- j141535441&#45;&gt;j785199395 -->
<g id="edge15" class="edge">
<title>j141535441&#45;&gt;j785199395</title>
<path fill="none" stroke="black" d="M2158,-1007.7C2158,-1000.41 2158,-991.73 2158,-983.54"/>
<polygon fill="black" stroke="black" points="2161.5,-983.62 2158,-973.62 2154.5,-983.62 2161.5,-983.62"/>
</g>
<!-- j2425787835 -->
<g id="node17" class="node">
<title>j2425787835</title>
<polygon fill="none" stroke="red" points="3268.5,-252 2861.5,-252 2861.5,-216 3268.5,-216 3268.5,-252"/>
<text text-anchor="middle" x="3065" y="-230.3" font-family="Times New Roman,serif" font-size="14.00">อย่าพูดถึงเรื่องนี้เลย [จบ]</text>
</g>
<!-- j141535441&#45;&gt;j2425787835 -->
<g id="edge16" class="edge">
<title>j141535441&#45;&gt;j2425787835</title>
<path fill="none" stroke="black" d="M2474.21,-1010.92C2775.67,-993.12 3184,-955.6 3184,-883 3184,-883 3184,-883 3184,-377 3184,-325.99 3138.33,-283.68 3103.58,-258.88"/>
<polygon fill="black" stroke="black" points="3105.58,-256 3095.36,-253.21 3101.6,-261.77 3105.58,-256"/>
</g>
<!-- j1151066009 -->
<g id="node18" class="node">
<title>j1151066009</title>
<polygon fill="none" stroke="blue" points="1790,-756 954,-756 954,-720 1790,-720 1790,-756"/>
<text text-anchor="middle" x="1372" y="-734.3" font-family="Times New Roman,serif" font-size="14.00">ฟังดูเหมือนเขาช่วยผลักดันไปในแบบที่เอ็งต้องการเลยนี่</text>
</g>
<!-- j2198852307&#45;&gt;j1151066009 -->
<g id="edge17" class="edge">
<title>j2198852307&#45;&gt;j1151066009</title>
<path fill="none" stroke="black" d="M1328.34,-791.7C1335.08,-783.56 1343.26,-773.69 1350.7,-764.7"/>
<polygon fill="black" stroke="black" points="1353.18,-767.2 1356.86,-757.27 1347.79,-762.74 1353.18,-767.2"/>
</g>
<!-- j403558619 -->
<g id="node19" class="node">
<title>j403558619</title>
<polygon fill="none" stroke="blue" points="936,-756 258,-756 258,-720 936,-720 936,-756"/>
<text text-anchor="middle" x="597" y="-734.3" font-family="Times New Roman,serif" font-size="14.00">บางครั้งเราทุกคนต่างก็ต้องการคนแบบนั้นบ้าง</text>
</g>
<!-- j4146958058&#45;&gt;j403558619 -->
<g id="edge18" class="edge">
<title>j4146958058&#45;&gt;j403558619</title>
<path fill="none" stroke="black" d="M644.43,-791.7C637.03,-783.47 628.03,-773.48 619.88,-764.42"/>
<polygon fill="black" stroke="black" points="622.7,-762.32 613.41,-757.23 617.49,-767 622.7,-762.32"/>
</g>
<!-- j1150308798 -->
<g id="node20" class="node">
<title>j1150308798</title>
<polygon fill="none" stroke="red" points="2796.5,-900 1519.5,-900 1519.5,-864 2796.5,-864 2796.5,-900"/>
<text text-anchor="middle" x="2158" y="-878.3" font-family="Times New Roman,serif" font-size="14.00">ไม่มีอะไรจะสอนให้สู้ได้ดีไปกว่าการที่รู้ว่าตัวเองกำลังพยายามเลี่ยงอะไรอยู่หรอกนะ</text>
</g>
<!-- j785199395&#45;&gt;j1150308798 -->
<g id="edge19" class="edge">
<title>j785199395&#45;&gt;j1150308798</title>
<path fill="none" stroke="black" d="M2158,-935.7C2158,-928.41 2158,-919.73 2158,-911.54"/>
<polygon fill="black" stroke="black" points="2161.5,-911.62 2158,-901.62 2154.5,-911.62 2161.5,-911.62"/>
</g>
<!-- j2425787835&#45;&gt;Chat ends. -->
<g id="edge20" class="edge">
<title>j2425787835&#45;&gt;Chat ends.</title>
<path fill="none" stroke="black" d="M3034.65,-215.7C2971.7,-180.84 2821.32,-102.86 2684,-72 2453.44,-20.19 1712.62,-18.14 1493.56,-18.71"/>
<polygon fill="black" stroke="black" points="1493.81,-15.21 1483.82,-18.74 1493.83,-22.21 1493.81,-15.21"/>
</g>
<!-- j3432267290 -->
<g id="node21" class="node">
<title>j3432267290</title>
<polygon fill="none" stroke="red" points="1220.5,-684 487.5,-684 487.5,-648 1220.5,-648 1220.5,-684"/>
<text text-anchor="middle" x="854" y="-662.3" font-family="Times New Roman,serif" font-size="14.00">ใช่ และยังสอนถึงวิธีต่อสู้ วิธีเอาชนะ Dominus Thrax ด้วย</text>
</g>
<!-- j1151066009&#45;&gt;j3432267290 -->
<g id="edge21" class="edge">
<title>j1151066009&#45;&gt;j3432267290</title>
<path fill="none" stroke="black" d="M1242.62,-719.52C1167.08,-709.31 1071.71,-696.42 994.35,-685.97"/>
<polygon fill="black" stroke="black" points="994.95,-682.52 984.57,-684.65 994.01,-689.45 994.95,-682.52"/>
</g>
<!-- j403558619&#45;&gt;j3432267290 -->
<g id="edge22" class="edge">
<title>j403558619&#45;&gt;j3432267290</title>
<path fill="none" stroke="black" d="M661.19,-719.52C697.05,-709.75 741.91,-697.53 779.33,-687.34"/>
<polygon fill="black" stroke="black" points="780,-690.78 788.72,-684.78 778.16,-684.03 780,-690.78"/>
</g>
<!-- j3768493585 -->
<g id="node22" class="node">
<title>j3768493585</title>
<polygon fill="none" stroke="blue" points="2627,-828 1689,-828 1689,-792 2627,-792 2627,-828"/>
<text text-anchor="middle" x="2158" y="-806.3" font-family="Times New Roman,serif" font-size="14.00">ให้ตายเหอะ เข้าใจดีเลยแหละว่ารู้สึกยังไง แม้จะไม่เคยตายก็ตาม</text>
</g>
<!-- j1150308798&#45;&gt;j3768493585 -->
<g id="edge23" class="edge">
<title>j1150308798&#45;&gt;j3768493585</title>
<path fill="none" stroke="black" d="M2158,-863.7C2158,-856.41 2158,-847.73 2158,-839.54"/>
<polygon fill="black" stroke="black" points="2161.5,-839.62 2158,-829.62 2154.5,-839.62 2161.5,-839.62"/>
</g>
<!-- j2287402567 -->
<g id="node23" class="node">
<title>j2287402567</title>
<polygon fill="none" stroke="blue" points="1124.5,-612 583.5,-612 583.5,-576 1124.5,-576 1124.5,-612"/>
<text text-anchor="middle" x="854" y="-590.3" font-family="Times New Roman,serif" font-size="14.00">Thrax เป็น... ตัวละครจากเรื่องเล่าใช่ไหม</text>
</g>
<!-- j3432267290&#45;&gt;j2287402567 -->
<g id="edge24" class="edge">
<title>j3432267290&#45;&gt;j2287402567</title>
<path fill="none" stroke="black" d="M854,-647.7C854,-640.41 854,-631.73 854,-623.54"/>
<polygon fill="black" stroke="black" points="857.5,-623.62 854,-613.62 850.5,-623.62 857.5,-623.62"/>
</g>
<!-- j1979250966 -->
<g id="node24" class="node">
<title>j1979250966</title>
<polygon fill="none" stroke="red" points="2356.5,-756 1865.5,-756 1865.5,-720 2356.5,-720 2356.5,-756"/>
<text text-anchor="middle" x="2111" y="-734.3" font-family="Times New Roman,serif" font-size="14.00">ข้า... เอ่อ... เจ้าเคยนะ จำไม่ได้เหรอ</text>
</g>
<!-- j3768493585&#45;&gt;j1979250966 -->
<g id="edge25" class="edge">
<title>j3768493585&#45;&gt;j1979250966</title>
<path fill="none" stroke="black" d="M2146.38,-791.7C2141.09,-783.81 2134.7,-774.3 2128.82,-765.55"/>
<polygon fill="black" stroke="black" points="2131.81,-763.71 2123.33,-757.36 2126,-767.61 2131.81,-763.71"/>
</g>
<!-- j3895998277 -->
<g id="node25" class="node">
<title>j3895998277</title>
<polygon fill="none" stroke="red" points="3122,-756 2444,-756 2444,-720 3122,-720 3122,-756"/>
<text text-anchor="middle" x="2783" y="-734.3" font-family="Times New Roman,serif" font-size="14.00">นั่นไม่ใช่สิ่งที่คนส่วนใหญ่ต้องเผชิญหรอกนะ</text>
</g>
<!-- j3768493585&#45;&gt;j3895998277 -->
<g id="edge26" class="edge">
<title>j3768493585&#45;&gt;j3895998277</title>
<path fill="none" stroke="black" d="M2314.1,-791.52C2405.91,-781.23 2521.99,-768.23 2615.68,-757.74"/>
<polygon fill="black" stroke="black" points="2615.94,-761.23 2625.49,-756.64 2615.16,-754.28 2615.94,-761.23"/>
</g>
<!-- j655364092 -->
<g id="node26" class="node">
<title>j655364092</title>
<polygon fill="none" stroke="red" points="1749.5,-540 28.5,-540 28.5,-504 1749.5,-504 1749.5,-540"/>
<text text-anchor="middle" x="889" y="-518.3" font-family="Times New Roman,serif" font-size="14.00">ที่ข้ากลายไปเป็นจอมเผด็จการทรราชโดยไม่ได้ตั้งใจและสั่งประหารชีวิตตัวเองด้วยสารพัดวิธีมาหลายศตวรรษน่ะเหรอ อาฮะ</text>
</g>
<!-- j2287402567&#45;&gt;j655364092 -->
<g id="edge27" class="edge">
<title>j2287402567&#45;&gt;j655364092</title>
<path fill="none" stroke="black" d="M862.65,-575.7C866.47,-568.07 871.04,-558.92 875.3,-550.4"/>
<polygon fill="black" stroke="black" points="878.43,-551.97 879.77,-541.46 872.17,-548.84 878.43,-551.97"/>
</g>
<!-- j3016181302 -->
<g id="node27" class="node">
<title>j3016181302</title>
<polygon fill="none" stroke="blue" points="2538.5,-684 1613.5,-684 1613.5,-648 2538.5,-648 2538.5,-684"/>
<text text-anchor="middle" x="2076" y="-662.3" font-family="Times New Roman,serif" font-size="14.00">ก็ไม่นะ จริง ๆ แล้ว...คือมันเลือนรางน่ะ แต่ดีแล้วที่เป็นแบบนั้น</text>
</g>
<!-- j1979250966&#45;&gt;j3016181302 -->
<g id="edge28" class="edge">
<title>j1979250966&#45;&gt;j3016181302</title>
<path fill="none" stroke="black" d="M2102.35,-719.7C2098.53,-712.07 2093.96,-702.92 2089.7,-694.4"/>
<polygon fill="black" stroke="black" points="2092.83,-692.84 2085.23,-685.46 2086.57,-695.97 2092.83,-692.84"/>
</g>
<!-- j2852746995 -->
<g id="node28" class="node">
<title>j2852746995</title>
<polygon fill="none" stroke="red" points="3155.5,-684 2556.5,-684 2556.5,-648 3155.5,-648 3155.5,-684"/>
<text text-anchor="middle" x="2856" y="-662.3" font-family="Times New Roman,serif" font-size="14.00">ข้าตายไปหลายครั้งจนไม่สนใจอะไรอีกแล้ว</text>
</g>
<!-- j3895998277&#45;&gt;j2852746995 -->
<g id="edge29" class="edge">
<title>j3895998277&#45;&gt;j2852746995</title>
<path fill="none" stroke="black" d="M2801.04,-719.7C2809.73,-711.37 2820.31,-701.22 2829.86,-692.07"/>
<polygon fill="black" stroke="black" points="2832.02,-694.84 2836.82,-685.39 2827.18,-689.79 2832.02,-694.84"/>
</g>
<!-- j4099605910 -->
<g id="node29" class="node">
<title>j4099605910</title>
<polygon fill="none" stroke="blue" points="1800.5,-468 1611.5,-468 1611.5,-432 1800.5,-432 1800.5,-468"/>
<text text-anchor="middle" x="1706" y="-446.3" font-family="Times New Roman,serif" font-size="14.00">แต่... ทำไมล่ะ</text>
</g>
<!-- j655364092&#45;&gt;j4099605910 -->
<g id="edge30" class="edge">
<title>j655364092&#45;&gt;j4099605910</title>
<path fill="none" stroke="black" d="M1093.06,-503.52C1253.98,-489.73 1471.93,-471.06 1599.9,-460.09"/>
<polygon fill="black" stroke="black" points="1600.06,-463.59 1609.73,-459.25 1599.46,-456.62 1600.06,-463.59"/>
</g>
<!-- j3032847143 -->
<g id="node30" class="node">
<title>j3032847143</title>
<polygon fill="none" stroke="red" points="1855,-612 1143,-612 1143,-576 1855,-576 1855,-612"/>
<text text-anchor="middle" x="1499" y="-590.3" font-family="Times New Roman,serif" font-size="14.00">ใช่ เพราะถ้าจำได้ อาจจะลงเอยเหมือน*ข้า*ก็ได้ [จบ]</text>
</g>
<!-- j3016181302&#45;&gt;j3032847143 -->
<g id="edge31" class="edge">
<title>j3016181302&#45;&gt;j3032847143</title>
<path fill="none" stroke="black" d="M1931.89,-647.52C1847.39,-637.27 1740.62,-624.31 1654.26,-613.84"/>
<polygon fill="black" stroke="black" points="1654.88,-610.38 1644.53,-612.66 1654.03,-617.33 1654.88,-610.38"/>
</g>
<!-- j2190461580 -->
<g id="node31" class="node">
<title>j2190461580</title>
<polygon fill="none" stroke="red" points="2974.5,-612 1873.5,-612 1873.5,-576 2974.5,-576 2974.5,-612"/>
<text text-anchor="middle" x="2424" y="-590.3" font-family="Times New Roman,serif" font-size="14.00">จริงเหรอ? โชคดีแล้วที่มันเลือนราง ข้าตายไปหลายครั้งจนไม่สนใจอะไรอีกแล้ว</text>
</g>
<!-- j3016181302&#45;&gt;j2190461580 -->
<g id="edge32" class="edge">
<title>j3016181302&#45;&gt;j2190461580</title>
<path fill="none" stroke="black" d="M2162.92,-647.52C2212.53,-637.54 2274.86,-625 2326.18,-614.68"/>
<polygon fill="black" stroke="black" points="2326.69,-618.14 2335.8,-612.74 2325.31,-611.28 2326.69,-618.14"/>
</g>
<!-- j1505795388 -->
<g id="node32" class="node">
<title>j1505795388</title>
<ellipse fill="none" stroke="orange" cx="2424" cy="-522" rx="64.19" ry="18"/>
<text text-anchor="middle" x="2424" y="-518.3" font-family="Times New Roman,serif" font-size="14.00">+10 Chemistry</text>
</g>
<!-- j2852746995&#45;&gt;j1505795388 -->
<g id="edge33" class="edge">
<title>j2852746995&#45;&gt;j1505795388</title>
<path fill="none" stroke="black" d="M2937.83,-647.56C2955.97,-639.73 2973.04,-628.4 2984,-612 2992.89,-598.7 2994.77,-587.83 2984,-576 2952.01,-540.84 2644.67,-528.5 2499.39,-524.61"/>
<polygon fill="black" stroke="black" points="2499.55,-521.11 2489.46,-524.35 2499.37,-528.11 2499.55,-521.11"/>
</g>
<!-- j2774095514 -->
<g id="node33" class="node">
<title>j2774095514</title>
<polygon fill="none" stroke="red" points="1998,-396 1414,-396 1414,-360 1998,-360 1998,-396"/>
<text text-anchor="middle" x="1706" y="-374.3" font-family="Times New Roman,serif" font-size="14.00">ถ้าถามกลับไปแบบนั้นบ้างจะรู้สึกยังไง</text>
</g>
<!-- j4099605910&#45;&gt;j2774095514 -->
<g id="edge34" class="edge">
<title>j4099605910&#45;&gt;j2774095514</title>
<path fill="none" stroke="black" d="M1706,-431.7C1706,-424.41 1706,-415.73 1706,-407.54"/>
<polygon fill="black" stroke="black" points="1709.5,-407.62 1706,-397.62 1702.5,-407.62 1709.5,-407.62"/>
</g>
<!-- j1802583752 -->
<g id="node34" class="node">
<title>j1802583752</title>
<polygon fill="none" stroke="red" points="1396,-396 954,-396 954,-360 1396,-360 1396,-396"/>
<text text-anchor="middle" x="1175" y="-374.3" font-family="Times New Roman,serif" font-size="14.00">อาสาจะเป็นนักบำบัดให้เหรอไง</text>
</g>
<!-- j4099605910&#45;&gt;j1802583752 -->
<g id="edge35" class="edge">
<title>j4099605910&#45;&gt;j1802583752</title>
<path fill="none" stroke="black" d="M1611.07,-436.49C1529.8,-425.77 1411.56,-410.18 1318.7,-397.94"/>
<polygon fill="black" stroke="black" points="1319.38,-394.5 1309,-396.67 1318.46,-401.44 1319.38,-394.5"/>
</g>
<!-- j77017684 -->
<g id="node35" class="node">
<title>j77017684</title>
<polygon fill="none" stroke="red" points="2761.5,-396 2016.5,-396 2016.5,-360 2761.5,-360 2761.5,-396"/>
<text text-anchor="middle" x="2389" y="-374.3" font-family="Times New Roman,serif" font-size="14.00">การถูกขังอยู่ตามลำพังในวอยด์ทำให้หลอนอะไรแปลก ๆ</text>
</g>
<!-- j4099605910&#45;&gt;j77017684 -->
<g id="edge36" class="edge">
<title>j4099605910&#45;&gt;j77017684</title>
<path fill="none" stroke="black" d="M1800.97,-439.27C1905.68,-428.54 2076.61,-411.02 2207.26,-397.63"/>
<polygon fill="black" stroke="black" points="2207.48,-401.12 2217.07,-396.62 2206.77,-394.16 2207.48,-401.12"/>
</g>
<!-- j143343102 -->
<g id="node36" class="node">
<title>j143343102</title>
<polygon fill="none" stroke="red" points="3156,-396 2780,-396 2780,-360 3156,-360 3156,-396"/>
<text text-anchor="middle" x="2968" y="-374.3" font-family="Times New Roman,serif" font-size="14.00">หยุดพูดเรื่องนี้เถอะ [จบ]</text>
</g>
<!-- j4099605910&#45;&gt;j143343102 -->
<g id="edge37" class="edge">
<title>j4099605910&#45;&gt;j143343102</title>
<path fill="none" stroke="black" d="M1800.81,-445.44C1985.03,-438.27 2404.43,-420.7 2768.25,-396.17"/>
<polygon fill="black" stroke="black" points="2768.29,-399.68 2778.03,-395.51 2767.82,-392.69 2768.29,-399.68"/>
</g>
<!-- j1092095909 -->
<g id="node37" class="node">
<title>j1092095909</title>
<polygon fill="none" stroke="blue" points="1373,-468 919,-468 919,-432 1373,-432 1373,-468"/>
<text text-anchor="middle" x="1146" y="-446.3" font-family="Times New Roman,serif" font-size="14.00">นั่นไม่ใช่สิ่งที่จะ &#45; ช่างเถอะ</text>
</g>
<!-- j3032847143&#45;&gt;j1092095909 -->
<g id="edge38" class="edge">
<title>j3032847143&#45;&gt;j1092095909</title>
<path fill="none" stroke="black" d="M1697.4,-575.53C1754.48,-562.93 1793.19,-541.27 1759,-504 1733.21,-475.89 1545.35,-462.65 1384.31,-456.43"/>
<polygon fill="black" stroke="black" points="1384.89,-452.95 1374.77,-456.07 1384.63,-459.95 1384.89,-452.95"/>
</g>
<!-- j2190461580&#45;&gt;j1505795388 -->
<g id="edge39" class="edge">
<title>j2190461580&#45;&gt;j1505795388</title>
<path fill="none" stroke="black" d="M2424,-575.7C2424,-568.41 2424,-559.73 2424,-551.54"/>
<polygon fill="black" stroke="black" points="2427.5,-551.62 2424,-541.62 2420.5,-551.62 2427.5,-551.62"/>
</g>
<!-- j4026675985 -->
<g id="node38" class="node">
<title>j4026675985</title>
<polygon fill="none" stroke="blue" points="2562.5,-468 2215.5,-468 2215.5,-432 2562.5,-432 2562.5,-468"/>
<text text-anchor="middle" x="2389" y="-446.3" font-family="Times New Roman,serif" font-size="14.00">เลิกสนใจไปได้ยังไงกัน</text>
</g>
<!-- j1505795388&#45;&gt;j4026675985 -->
<g id="edge40" class="edge">
<title>j1505795388&#45;&gt;j4026675985</title>
<path fill="none" stroke="black" d="M2415.35,-503.7C2411.53,-496.07 2406.96,-486.92 2402.7,-478.4"/>
<polygon fill="black" stroke="black" points="2405.83,-476.84 2398.23,-469.46 2399.57,-479.97 2405.83,-476.84"/>
</g>
<!-- j3996407648 -->
<g id="node39" class="node">
<title>j3996407648</title>
<ellipse fill="none" stroke="orange" cx="1782" cy="-306" rx="64.19" ry="18"/>
<text text-anchor="middle" x="1782" y="-302.3" font-family="Times New Roman,serif" font-size="14.00">+10 Chemistry</text>
</g>
<!-- j2774095514&#45;&gt;j3996407648 -->
<g id="edge41" class="edge">
<title>j2774095514&#45;&gt;j3996407648</title>
<path fill="none" stroke="black" d="M1724.79,-359.7C1734.13,-351.09 1745.57,-340.55 1755.76,-331.17"/>
<polygon fill="black" stroke="black" points="1757.86,-334 1762.84,-324.65 1753.11,-328.85 1757.86,-334"/>
</g>
<!-- j1462861161 -->
<g id="node40" class="node">
<title>j1462861161</title>
<polygon fill="none" stroke="blue" points="1285.5,-324 1064.5,-324 1064.5,-288 1285.5,-288 1285.5,-324"/>
<text text-anchor="middle" x="1175" y="-302.3" font-family="Times New Roman,serif" font-size="14.00">ไม่เอาเด็ดขาด</text>
</g>
<!-- j1802583752&#45;&gt;j1462861161 -->
<g id="edge42" class="edge">
<title>j1802583752&#45;&gt;j1462861161</title>
<path fill="none" stroke="black" d="M1175,-359.7C1175,-352.41 1175,-343.73 1175,-335.54"/>
<polygon fill="black" stroke="black" points="1178.5,-335.62 1175,-325.62 1171.5,-335.62 1178.5,-335.62"/>
</g>
<!-- j77017684&#45;&gt;j3996407648 -->
<g id="edge43" class="edge">
<title>j77017684&#45;&gt;j3996407648</title>
<path fill="none" stroke="black" d="M2237.39,-359.52C2114.02,-345.29 1945.52,-325.86 1851.93,-315.06"/>
<polygon fill="black" stroke="black" points="1852.46,-311.6 1842.12,-313.93 1851.66,-318.56 1852.46,-311.6"/>
</g>
<!-- j143343102&#45;&gt;Chat ends. -->
<g id="edge44" class="edge">
<title>j143343102&#45;&gt;Chat ends.</title>
<path fill="none" stroke="black" d="M2812.89,-359.57C2740.48,-341.89 2670,-306.35 2670,-235 2670,-235 2670,-235 2670,-161 2670,-41.21 1743.33,-22.41 1493.45,-19.52"/>
<polygon fill="black" stroke="black" points="1493.62,-16.02 1483.58,-19.41 1493.54,-23.02 1493.62,-16.02"/>
</g>
<!-- j1092095909&#45;&gt;Chat ends. -->
<g id="edge45" class="edge">
<title>j1092095909&#45;&gt;Chat ends.</title>
<path fill="none" stroke="black" d="M1040.54,-431.56C999.52,-422.71 959.01,-410.69 945,-396 917.09,-366.73 926,-347.45 926,-307 926,-307 926,-307 926,-161 926,-69.35 1237.61,-34.1 1371.76,-23.17"/>
<polygon fill="black" stroke="black" points="1371.82,-26.67 1381.51,-22.39 1371.27,-19.69 1371.82,-26.67"/>
</g>
<!-- j4026675985&#45;&gt;j2774095514 -->
<g id="edge46" class="edge">
<title>j4026675985&#45;&gt;j2774095514</title>
<path fill="none" stroke="black" d="M2218.41,-431.52C2117.78,-421.2 1990.46,-408.15 1887.91,-397.64"/>
<polygon fill="black" stroke="black" points="1888.29,-394.16 1877.99,-396.63 1887.58,-401.13 1888.29,-394.16"/>
</g>
<!-- j4026675985&#45;&gt;j1802583752 -->
<g id="edge47" class="edge">
<title>j4026675985&#45;&gt;j1802583752</title>
<path fill="none" stroke="black" d="M2215.19,-440.69C2021.01,-431.16 1696.98,-414.55 1407.4,-396.15"/>
<polygon fill="black" stroke="black" points="1407.96,-392.68 1397.76,-395.53 1407.52,-399.66 1407.96,-392.68"/>
</g>
<!-- j4026675985&#45;&gt;j77017684 -->
<g id="edge48" class="edge">
<title>j4026675985&#45;&gt;j77017684</title>
<path fill="none" stroke="black" d="M2389,-431.7C2389,-424.41 2389,-415.73 2389,-407.54"/>
<polygon fill="black" stroke="black" points="2392.5,-407.62 2389,-397.62 2385.5,-407.62 2392.5,-407.62"/>
</g>
<!-- j4026675985&#45;&gt;j143343102 -->
<g id="edge49" class="edge">
<title>j4026675985&#45;&gt;j143343102</title>
<path fill="none" stroke="black" d="M2533.61,-431.52C2618.41,-421.27 2725.55,-408.31 2812.2,-397.84"/>
<polygon fill="black" stroke="black" points="2812.47,-401.33 2821.97,-396.65 2811.63,-394.38 2812.47,-401.33"/>
</g>
<!-- j4280198685 -->
<g id="node41" class="node">
<title>j4280198685</title>
<polygon fill="none" stroke="blue" points="2361,-252 1203,-252 1203,-216 2361,-216 2361,-252"/>
<text text-anchor="middle" x="1782" y="-230.3" font-family="Times New Roman,serif" font-size="14.00">งั้นก็ได้ ถ้าไงเรากลับไปคุยเรื่องก่อนกันดีกว่า กลับไปคุยเรื่องนั้นกันดีไหม</text>
</g>
<!-- j3996407648&#45;&gt;j4280198685 -->
<g id="edge50" class="edge">
<title>j3996407648&#45;&gt;j4280198685</title>
<path fill="none" stroke="black" d="M1782,-287.7C1782,-280.41 1782,-271.73 1782,-263.54"/>
<polygon fill="black" stroke="black" points="1785.5,-263.62 1782,-253.62 1778.5,-263.62 1785.5,-263.62"/>
</g>
<!-- j1462861161&#45;&gt;Chat ends. -->
<g id="edge51" class="edge">
<title>j1462861161&#45;&gt;Chat ends.</title>
<path fill="none" stroke="black" d="M1173.02,-287.6C1169.18,-244.69 1165.64,-132.87 1224,-72 1244.58,-50.53 1320.39,-35.22 1374.53,-26.75"/>
<polygon fill="black" stroke="black" points="1374.87,-30.24 1384.23,-25.27 1373.82,-23.32 1374.87,-30.24"/>
</g>
<!-- j3422303704 -->
<g id="node42" class="node">
<title>j3422303704</title>
<polygon fill="none" stroke="red" points="1822,-180 1742,-180 1742,-144 1822,-144 1822,-180"/>
<text text-anchor="middle" x="1782" y="-158.3" font-family="Times New Roman,serif" font-size="14.00">ตกลง</text>
</g>
<!-- j4280198685&#45;&gt;j3422303704 -->
<g id="edge52" class="edge">
<title>j4280198685&#45;&gt;j3422303704</title>
<path fill="none" stroke="black" d="M1782,-215.7C1782,-208.41 1782,-199.73 1782,-191.54"/>
<polygon fill="black" stroke="black" points="1785.5,-191.62 1782,-181.62 1778.5,-191.62 1785.5,-191.62"/>
</g>
<!-- j1471990579 -->
<g id="node43" class="node">
<title>j1471990579</title>
<polygon fill="none" stroke="red" points="1625,-180 1435,-180 1435,-144 1625,-144 1625,-180"/>
<text text-anchor="middle" x="1530" y="-158.3" font-family="Times New Roman,serif" font-size="14.00">ขอผ่านละกัน</text>
</g>
<!-- j4280198685&#45;&gt;j1471990579 -->
<g id="edge53" class="edge">
<title>j4280198685&#45;&gt;j1471990579</title>
<path fill="none" stroke="black" d="M1719.06,-215.52C1683.9,-205.75 1639.91,-193.53 1603.21,-183.34"/>
<polygon fill="black" stroke="black" points="1604.6,-180.09 1594.03,-180.79 1602.73,-186.84 1604.6,-180.09"/>
</g>
<!-- j325721217 -->
<g id="node44" class="node">
<title>j325721217</title>
<ellipse fill="none" stroke="orange" cx="1782" cy="-90" rx="133.48" ry="18"/>
<text text-anchor="middle" x="1782" y="-86.3" font-family="Times New Roman,serif" font-size="14.00">Boolean ArthurDuviri is now true.</text>
</g>
<!-- j3422303704&#45;&gt;j325721217 -->
<g id="edge54" class="edge">
<title>j3422303704&#45;&gt;j325721217</title>
<path fill="none" stroke="black" d="M1782,-143.7C1782,-136.41 1782,-127.73 1782,-119.54"/>
<polygon fill="black" stroke="black" points="1785.5,-119.62 1782,-109.62 1778.5,-119.62 1785.5,-119.62"/>
</g>
<!-- j3560498330 -->
<g id="node45" class="node">
<title>j3560498330</title>
<polygon fill="none" stroke="blue" points="1631,-108 1233,-108 1233,-72 1631,-72 1631,-108"/>
<text text-anchor="middle" x="1432" y="-86.3" font-family="Times New Roman,serif" font-size="14.00">งั้นก็ ดีใจที่ได้คุยกันนะ</text>
</g>
<!-- j1471990579&#45;&gt;j3560498330 -->
<g id="edge55" class="edge">
<title>j1471990579&#45;&gt;j3560498330</title>
<path fill="none" stroke="black" d="M1505.52,-143.52C1493.39,-134.85 1478.55,-124.25 1465.39,-114.85"/>
<polygon fill="black" stroke="black" points="1467.57,-112.1 1457.4,-109.14 1463.5,-117.8 1467.57,-112.1"/>
</g>
<!-- j325721217&#45;&gt;Chat ends. -->
<g id="edge56" class="edge">
<title>j325721217&#45;&gt;Chat ends.</title>
<path fill="none" stroke="black" d="M1709.48,-74.5C1642.89,-61.18 1545.74,-41.75 1485.82,-29.76"/>
<polygon fill="black" stroke="black" points="1486.69,-26.37 1476.2,-27.84 1485.32,-33.23 1486.69,-26.37"/>
</g>
<!-- j3560498330&#45;&gt;Chat ends. -->
<g id="edge57" class="edge">
<title>j3560498330&#45;&gt;Chat ends.</title>
<path fill="none" stroke="black" d="M1432,-71.7C1432,-64.41 1432,-55.73 1432,-47.54"/>
<polygon fill="black" stroke="black" points="1435.5,-47.62 1432,-37.62 1428.5,-47.62 1435.5,-47.62"/>
</g>
</g>
</svg>
