<?xml version="1.0" encoding="UTF-8" standalone="no"?>
<!DOCTYPE svg PUBLIC "-//W3C//DTD SVG 1.1//EN"
 "http://www.w3.org/Graphics/SVG/1.1/DTD/svg11.dtd">
<!-- Generated by graphviz version 7.1.0 (20230121.1956)
 -->
<!-- Pages: 1 -->
<svg width="2286pt" height="1268pt"
 viewBox="0.00 0.00 2285.50 1268.00" xmlns="http://www.w3.org/2000/svg" xmlns:xlink="http://www.w3.org/1999/xlink">
<g id="graph0" class="graph" transform="scale(1 1) rotate(0) translate(4 1264)">
<polygon fill="white" stroke="none" points="-4,4 -4,-1264 2281.5,-1264 2281.5,4 -4,4"/>
<!-- ArthurAmirHack begins. -->
<g id="node1" class="node">
<title>ArthurAmirHack begins.</title>
<ellipse fill="none" stroke="orange" cx="1306.5" cy="-1242" rx="99.38" ry="18"/>
<text text-anchor="middle" x="1306.5" y="-1238.3" font-family="Times New Roman,serif" font-size="14.00">ArthurAmirHack begins.</text>
</g>
<!-- j2799117590 -->
<g id="node2" class="node">
<title>j2799117590</title>
<polygon fill="none" stroke="red" points="1477,-1188 1136,-1188 1136,-1152 1477,-1152 1477,-1188"/>
<text text-anchor="middle" x="1306.5" y="-1166.3" font-family="Times New Roman,serif" font-size="14.00">เฮ้... Arthur... เป็นยังไงบ้าง?</text>
</g>
<!-- ArthurAmirHack begins.&#45;&gt;j2799117590 -->
<g id="edge1" class="edge">
<title>ArthurAmirHack begins.&#45;&gt;j2799117590</title>
<path fill="none" stroke="black" d="M1306.5,-1223.7C1306.5,-1216.41 1306.5,-1207.73 1306.5,-1199.54"/>
<polygon fill="black" stroke="black" points="1310,-1199.62 1306.5,-1189.62 1303,-1199.62 1310,-1199.62"/>
</g>
<!-- j892170628 -->
<g id="node3" class="node">
<title>j892170628</title>
<polygon fill="none" stroke="blue" points="1497.5,-1116 1115.5,-1116 1115.5,-1080 1497.5,-1080 1497.5,-1116"/>
<text text-anchor="middle" x="1306.5" y="-1094.3" font-family="Times New Roman,serif" font-size="14.00">br00dsw0rd: หืม ก็ดี แล้วเอ็งล่ะ</text>
</g>
<!-- j2799117590&#45;&gt;j892170628 -->
<g id="edge2" class="edge">
<title>j2799117590&#45;&gt;j892170628</title>
<path fill="none" stroke="black" d="M1306.5,-1151.7C1306.5,-1144.41 1306.5,-1135.73 1306.5,-1127.54"/>
<polygon fill="black" stroke="black" points="1310,-1127.62 1306.5,-1117.62 1303,-1127.62 1310,-1127.62"/>
</g>
<!-- j1591373687 -->
<g id="node4" class="node">
<title>j1591373687</title>
<polygon fill="none" stroke="red" points="911,-1044 274,-1044 274,-1008 911,-1008 911,-1044"/>
<text text-anchor="middle" x="592.5" y="-1022.3" font-family="Times New Roman,serif" font-size="14.00">เยี่ยมเลย... แล้ว... มีอะไรใหม่ ๆ บ้างหรือเปล่า</text>
</g>
<!-- j892170628&#45;&gt;j1591373687 -->
<g id="edge3" class="edge">
<title>j892170628&#45;&gt;j1591373687</title>
<path fill="none" stroke="black" d="M1128.17,-1079.52C1022.75,-1069.18 889.33,-1056.1 782.01,-1045.58"/>
<polygon fill="black" stroke="black" points="782.52,-1042.11 772.23,-1044.62 781.84,-1049.08 782.52,-1042.11"/>
</g>
<!-- j284287810 -->
<g id="node5" class="node">
<title>j284287810</title>
<polygon fill="none" stroke="red" points="1519.5,-1044 1093.5,-1044 1093.5,-1008 1519.5,-1008 1519.5,-1044"/>
<text text-anchor="middle" x="1306.5" y="-1022.3" font-family="Times New Roman,serif" font-size="14.00">ดูสภาพอากาศที่เราเจออยู่สิ</text>
</g>
<!-- j892170628&#45;&gt;j284287810 -->
<g id="edge4" class="edge">
<title>j892170628&#45;&gt;j284287810</title>
<path fill="none" stroke="black" d="M1306.5,-1079.7C1306.5,-1072.41 1306.5,-1063.73 1306.5,-1055.54"/>
<polygon fill="black" stroke="black" points="1310,-1055.62 1306.5,-1045.62 1303,-1055.62 1310,-1055.62"/>
</g>
<!-- j2808174025 -->
<g id="node6" class="node">
<title>j2808174025</title>
<polygon fill="none" stroke="red" points="2125,-1044 1604,-1044 1604,-1008 2125,-1008 2125,-1044"/>
<text text-anchor="middle" x="1864.5" y="-1022.3" font-family="Times New Roman,serif" font-size="14.00">แล้วทีมกีฬาท้องถิ่นเป็นยังไงบ้าง</text>
</g>
<!-- j892170628&#45;&gt;j2808174025 -->
<g id="edge5" class="edge">
<title>j892170628&#45;&gt;j2808174025</title>
<path fill="none" stroke="black" d="M1445.87,-1079.52C1527.5,-1069.28 1630.61,-1056.34 1714.08,-1045.87"/>
<polygon fill="black" stroke="black" points="1714.47,-1049.35 1723.96,-1044.63 1713.6,-1042.4 1714.47,-1049.35"/>
</g>
<!-- j3732431100 -->
<g id="node7" class="node">
<title>j3732431100</title>
<polygon fill="none" stroke="blue" points="855,-972 0,-972 0,-936 855,-936 855,-972"/>
<text text-anchor="middle" x="427.5" y="-950.3" font-family="Times New Roman,serif" font-size="14.00">br00dsw0rd: เพื่อน เราเพิ่งคุยกันเมื่อชั่วโมงที่แล้วเกี่ยวกับ&#45;</text>
</g>
<!-- j1591373687&#45;&gt;j3732431100 -->
<g id="edge6" class="edge">
<title>j1591373687&#45;&gt;j3732431100</title>
<path fill="none" stroke="black" d="M551.29,-1007.52C529.35,-998.21 502.17,-986.68 478.87,-976.79"/>
<polygon fill="black" stroke="black" points="480.44,-973.66 469.86,-972.97 477.7,-980.1 480.44,-973.66"/>
</g>
<!-- j1137254244 -->
<g id="node8" class="node">
<title>j1137254244</title>
<polygon fill="none" stroke="blue" points="1740,-972 873,-972 873,-936 1740,-936 1740,-972"/>
<text text-anchor="middle" x="1306.5" y="-950.3" font-family="Times New Roman,serif" font-size="14.00">br00dsw0rd: ก็เริ่มน่าสนใจน้อยลงเมื่อมันเหมือนเดิมทุกครั้งที่&#45;</text>
</g>
<!-- j284287810&#45;&gt;j1137254244 -->
<g id="edge7" class="edge">
<title>j284287810&#45;&gt;j1137254244</title>
<path fill="none" stroke="black" d="M1306.5,-1007.7C1306.5,-1000.41 1306.5,-991.73 1306.5,-983.54"/>
<polygon fill="black" stroke="black" points="1310,-983.62 1306.5,-973.62 1303,-983.62 1310,-983.62"/>
</g>
<!-- j1166565048 -->
<g id="node9" class="node">
<title>j1166565048</title>
<polygon fill="none" stroke="blue" points="2105,-972 1758,-972 1758,-936 2105,-936 2105,-972"/>
<text text-anchor="middle" x="1931.5" y="-950.3" font-family="Times New Roman,serif" font-size="14.00">br00dsw0rd: กีฬาท้องถิ่นอะไร&#45;</text>
</g>
<!-- j2808174025&#45;&gt;j1166565048 -->
<g id="edge8" class="edge">
<title>j2808174025&#45;&gt;j1166565048</title>
<path fill="none" stroke="black" d="M1881.06,-1007.7C1888.93,-999.47 1898.49,-989.48 1907.17,-980.42"/>
<polygon fill="black" stroke="black" points="1909.7,-982.84 1914.08,-973.2 1904.64,-978 1909.7,-982.84"/>
</g>
<!-- j1138704216 -->
<g id="node10" class="node">
<title>j1138704216</title>
<polygon fill="none" stroke="blue" points="1617.5,-900 995.5,-900 995.5,-864 1617.5,-864 1617.5,-900"/>
<text text-anchor="middle" x="1306.5" y="-878.3" font-family="Times New Roman,serif" font-size="14.00">br00dsw0rd: เกิดอะไรขึ้นเนี่ย เอ็งทำตัวแปลก ๆ นะ</text>
</g>
<!-- j3732431100&#45;&gt;j1138704216 -->
<g id="edge9" class="edge">
<title>j3732431100&#45;&gt;j1138704216</title>
<path fill="none" stroke="black" d="M647.04,-935.52C777.74,-925.11 943.4,-911.92 1075.99,-901.36"/>
<polygon fill="black" stroke="black" points="1075.89,-904.88 1085.58,-900.59 1075.34,-897.9 1075.89,-904.88"/>
</g>
<!-- j1137254244&#45;&gt;j1138704216 -->
<g id="edge10" class="edge">
<title>j1137254244&#45;&gt;j1138704216</title>
<path fill="none" stroke="black" d="M1306.5,-935.7C1306.5,-928.41 1306.5,-919.73 1306.5,-911.54"/>
<polygon fill="black" stroke="black" points="1310,-911.62 1306.5,-901.62 1303,-911.62 1310,-911.62"/>
</g>
<!-- j1166565048&#45;&gt;j1138704216 -->
<g id="edge11" class="edge">
<title>j1166565048&#45;&gt;j1138704216</title>
<path fill="none" stroke="black" d="M1775.4,-935.52C1683.59,-925.23 1567.51,-912.23 1473.82,-901.74"/>
<polygon fill="black" stroke="black" points="1474.34,-898.28 1464.01,-900.64 1473.56,-905.23 1474.34,-898.28"/>
</g>
<!-- j2286695280 -->
<g id="node11" class="node">
<title>j2286695280</title>
<polygon fill="none" stroke="red" points="1379,-828 1032,-828 1032,-792 1379,-792 1379,-828"/>
<text text-anchor="middle" x="1205.5" y="-806.3" font-family="Times New Roman,serif" font-size="14.00">... ไม่มีอะไรเกิดขึ้นเลย</text>
</g>
<!-- j1138704216&#45;&gt;j2286695280 -->
<g id="edge12" class="edge">
<title>j1138704216&#45;&gt;j2286695280</title>
<path fill="none" stroke="black" d="M1281.27,-863.52C1268.65,-854.76 1253.18,-844.04 1239.52,-834.58"/>
<polygon fill="black" stroke="black" points="1241.86,-831.94 1231.65,-829.12 1237.87,-837.7 1241.86,-831.94"/>
</g>
<!-- j3166253179 -->
<g id="node12" class="node">
<title>j3166253179</title>
<polygon fill="none" stroke="red" points="1828.5,-756 1256.5,-756 1256.5,-720 1828.5,-720 1828.5,-756"/>
<text text-anchor="middle" x="1542.5" y="-734.3" font-family="Times New Roman,serif" font-size="14.00">Amir เบื่ออีกแล้ว ดูชื่อผู้ใช้ของเจ้าสิ</text>
</g>
<!-- j1138704216&#45;&gt;j3166253179 -->
<g id="edge13" class="edge">
<title>j1138704216&#45;&gt;j3166253179</title>
<path fill="none" stroke="black" d="M1335.44,-863.59C1377.75,-838.13 1456.59,-790.69 1503.83,-762.27"/>
<polygon fill="black" stroke="black" points="1505.63,-765.27 1512.4,-757.11 1502.02,-759.27 1505.63,-765.27"/>
</g>
<!-- j2238461159 -->
<g id="node13" class="node">
<title>j2238461159</title>
<polygon fill="none" stroke="blue" points="1238,-756 903,-756 903,-720 1238,-720 1238,-756"/>
<text text-anchor="middle" x="1070.5" y="-734.3" font-family="Times New Roman,serif" font-size="14.00">br00dsw0rd: ไม่เชื่อหรอก ข้า&#45;</text>
</g>
<!-- j2286695280&#45;&gt;j2238461159 -->
<g id="edge14" class="edge">
<title>j2286695280&#45;&gt;j2238461159</title>
<path fill="none" stroke="black" d="M1171.78,-791.52C1154.25,-782.43 1132.63,-771.22 1113.87,-761.49"/>
<polygon fill="black" stroke="black" points="1115.62,-758.45 1105.13,-756.96 1112.4,-764.67 1115.62,-758.45"/>
</g>
<!-- j1518635789 -->
<g id="node14" class="node">
<title>j1518635789</title>
<polygon fill="none" stroke="blue" points="1407,-612 1204,-612 1204,-576 1407,-576 1407,-612"/>
<text text-anchor="middle" x="1305.5" y="-590.3" font-family="Times New Roman,serif" font-size="14.00">br00dsw0rd: BROODSWORD?!</text>
</g>
<!-- j3166253179&#45;&gt;j1518635789 -->
<g id="edge15" class="edge">
<title>j3166253179&#45;&gt;j1518635789</title>
<path fill="none" stroke="black" d="M1513.44,-719.59C1470.86,-694.08 1391.44,-646.49 1344.03,-618.09"/>
<polygon fill="black" stroke="black" points="1346.1,-615.25 1335.73,-613.11 1342.51,-621.25 1346.1,-615.25"/>
</g>
<!-- j3002096051 -->
<g id="node15" class="node">
<title>j3002096051</title>
<polygon fill="none" stroke="blue" points="1346,-684 1129,-684 1129,-648 1346,-648 1346,-684"/>
<text text-anchor="middle" x="1237.5" y="-662.3" font-family="Times New Roman,serif" font-size="14.00">br00dsw0rd: เดี๋ยวนะ</text>
</g>
<!-- j2238461159&#45;&gt;j3002096051 -->
<g id="edge16" class="edge">
<title>j2238461159&#45;&gt;j3002096051</title>
<path fill="none" stroke="black" d="M1112.21,-719.52C1134.41,-710.21 1161.92,-698.68 1185.51,-688.79"/>
<polygon fill="black" stroke="black" points="1186.77,-692.06 1194.64,-684.97 1184.06,-685.6 1186.77,-692.06"/>
</g>
<!-- j878813221 -->
<g id="node16" class="node">
<title>j878813221</title>
<polygon fill="none" stroke="blue" points="1534.5,-540 1076.5,-540 1076.5,-504 1534.5,-504 1534.5,-540"/>
<text text-anchor="middle" x="1305.5" y="-518.3" font-family="Times New Roman,serif" font-size="14.00">br00dsw0rd: ข้าไม่ได้หน้าบึ้งนะเว้ย!</text>
</g>
<!-- j1518635789&#45;&gt;j878813221 -->
<g id="edge17" class="edge">
<title>j1518635789&#45;&gt;j878813221</title>
<path fill="none" stroke="black" d="M1305.5,-575.7C1305.5,-568.41 1305.5,-559.73 1305.5,-551.54"/>
<polygon fill="black" stroke="black" points="1309,-551.62 1305.5,-541.62 1302,-551.62 1309,-551.62"/>
</g>
<!-- j3002096051&#45;&gt;j1518635789 -->
<g id="edge18" class="edge">
<title>j3002096051&#45;&gt;j1518635789</title>
<path fill="none" stroke="black" d="M1254.31,-647.7C1262.38,-639.39 1272.2,-629.28 1281.08,-620.14"/>
<polygon fill="black" stroke="black" points="1283.37,-622.8 1287.83,-613.19 1278.35,-617.92 1283.37,-622.8"/>
</g>
<!-- j1983249854 -->
<g id="node17" class="node">
<title>j1983249854</title>
<polygon fill="none" stroke="red" points="1121,-468 588,-468 588,-432 1121,-432 1121,-468"/>
<text text-anchor="middle" x="854.5" y="-446.3" font-family="Times New Roman,serif" font-size="14.00">:| เพื่อน แต่ไอคอนนั่นบอกอีกแบบเลยนะ</text>
</g>
<!-- j878813221&#45;&gt;j1983249854 -->
<g id="edge19" class="edge">
<title>j878813221&#45;&gt;j1983249854</title>
<path fill="none" stroke="black" d="M1192.86,-503.52C1127.49,-493.37 1045.07,-480.58 977.94,-470.16"/>
<polygon fill="black" stroke="black" points="978.79,-466.75 968.37,-468.67 977.72,-473.67 978.79,-466.75"/>
</g>
<!-- j3435651292 -->
<g id="node18" class="node">
<title>j3435651292</title>
<polygon fill="none" stroke="red" points="1471.5,-468 1139.5,-468 1139.5,-432 1471.5,-432 1471.5,-468"/>
<text text-anchor="middle" x="1305.5" y="-446.3" font-family="Times New Roman,serif" font-size="14.00">แต่มันเป็นแบบนั้นเลย</text>
</g>
<!-- j878813221&#45;&gt;j3435651292 -->
<g id="edge20" class="edge">
<title>j878813221&#45;&gt;j3435651292</title>
<path fill="none" stroke="black" d="M1305.5,-503.7C1305.5,-496.41 1305.5,-487.73 1305.5,-479.54"/>
<polygon fill="black" stroke="black" points="1309,-479.62 1305.5,-469.62 1302,-479.62 1309,-479.62"/>
</g>
<!-- j4223047130 -->
<g id="node19" class="node">
<title>j4223047130</title>
<polygon fill="none" stroke="red" points="2277.5,-468 1489.5,-468 1489.5,-432 2277.5,-432 2277.5,-468"/>
<text text-anchor="middle" x="1883.5" y="-446.3" font-family="Times New Roman,serif" font-size="14.00">เอ่อ เขาแค่หยอกเล่นน่ะ ก็รู้นี่ว่าเขาชอบเจ้านะ ฮ่า ๆ</text>
</g>
<!-- j878813221&#45;&gt;j4223047130 -->
<g id="edge21" class="edge">
<title>j878813221&#45;&gt;j4223047130</title>
<path fill="none" stroke="black" d="M1449.86,-503.52C1534.51,-493.27 1641.46,-480.31 1727.97,-469.84"/>
<polygon fill="black" stroke="black" points="1728.22,-473.33 1737.72,-468.65 1727.37,-466.38 1728.22,-473.33"/>
</g>
<!-- j1964839555 -->
<g id="node20" class="node">
<title>j1964839555</title>
<polygon fill="none" stroke="blue" points="1234,-396 475,-396 475,-360 1234,-360 1234,-396"/>
<text text-anchor="middle" x="854.5" y="-374.3" font-family="Times New Roman,serif" font-size="14.00">br00dsw0rd: ... เออ เออ บางครั้งข้าก็ทำหน้าบึ้งบ้างนิดหน่อย</text>
</g>
<!-- j1983249854&#45;&gt;j1964839555 -->
<g id="edge22" class="edge">
<title>j1983249854&#45;&gt;j1964839555</title>
<path fill="none" stroke="black" d="M854.5,-431.7C854.5,-424.41 854.5,-415.73 854.5,-407.54"/>
<polygon fill="black" stroke="black" points="858,-407.62 854.5,-397.62 851,-407.62 858,-407.62"/>
</g>
<!-- j171494848 -->
<g id="node21" class="node">
<title>j171494848</title>
<polygon fill="none" stroke="blue" points="1406.5,-396 1252.5,-396 1252.5,-360 1406.5,-360 1406.5,-396"/>
<text text-anchor="middle" x="1329.5" y="-374.3" font-family="Times New Roman,serif" font-size="14.00">br00dsw0rd: เฮ้อ</text>
</g>
<!-- j3435651292&#45;&gt;j171494848 -->
<g id="edge23" class="edge">
<title>j3435651292&#45;&gt;j171494848</title>
<path fill="none" stroke="black" d="M1311.43,-431.7C1313.99,-424.24 1317.05,-415.32 1319.91,-406.97"/>
<polygon fill="black" stroke="black" points="1323.21,-408.13 1323.14,-397.54 1316.59,-405.86 1323.21,-408.13"/>
</g>
<!-- j4223047130&#45;&gt;j171494848 -->
<g id="edge24" class="edge">
<title>j4223047130&#45;&gt;j171494848</title>
<path fill="none" stroke="black" d="M1745.13,-431.52C1642.74,-418.58 1506.29,-401.34 1418.16,-390.2"/>
<polygon fill="black" stroke="black" points="1418.72,-386.75 1408.36,-388.96 1417.84,-393.69 1418.72,-386.75"/>
</g>
<!-- j79080739 -->
<g id="node22" class="node">
<title>j79080739</title>
<polygon fill="none" stroke="blue" points="1585.5,-324 597.5,-324 597.5,-288 1585.5,-288 1585.5,-324"/>
<text text-anchor="middle" x="1091.5" y="-302.3" font-family="Times New Roman,serif" font-size="14.00">br00dsw0rd: แต่... ไปบอกให้มันเปลี่ยนชื่อกลับไปก่อนจะมีใครสังเกตเห็นเถอะ</text>
</g>
<!-- j1964839555&#45;&gt;j79080739 -->
<g id="edge25" class="edge">
<title>j1964839555&#45;&gt;j79080739</title>
<path fill="none" stroke="black" d="M913.69,-359.52C946.48,-349.83 987.42,-337.74 1021.75,-327.6"/>
<polygon fill="black" stroke="black" points="1022.6,-331 1031.2,-324.81 1020.62,-324.29 1022.6,-331"/>
</g>
<!-- j171494848&#45;&gt;j79080739 -->
<g id="edge26" class="edge">
<title>j171494848&#45;&gt;j79080739</title>
<path fill="none" stroke="black" d="M1270.06,-359.52C1237.13,-349.83 1196.02,-337.74 1161.54,-327.6"/>
<polygon fill="black" stroke="black" points="1162.63,-324.27 1152.05,-324.81 1160.66,-330.99 1162.63,-324.27"/>
</g>
<!-- j167349842 -->
<g id="node23" class="node">
<title>j167349842</title>
<ellipse fill="none" stroke="orange" cx="1091.5" cy="-234" rx="64.19" ry="18"/>
<text text-anchor="middle" x="1091.5" y="-230.3" font-family="Times New Roman,serif" font-size="14.00">+20 Chemistry</text>
</g>
<!-- j79080739&#45;&gt;j167349842 -->
<g id="edge27" class="edge">
<title>j79080739&#45;&gt;j167349842</title>
<path fill="none" stroke="black" d="M1091.5,-287.7C1091.5,-280.41 1091.5,-271.73 1091.5,-263.54"/>
<polygon fill="black" stroke="black" points="1095,-263.62 1091.5,-253.62 1088,-263.62 1095,-263.62"/>
</g>
<!-- j7156168 -->
<g id="node24" class="node">
<title>j7156168</title>
<polygon fill="none" stroke="blue" points="1740.5,-180 442.5,-180 442.5,-144 1740.5,-144 1740.5,-180"/>
<text text-anchor="middle" x="1091.5" y="-158.3" font-family="Times New Roman,serif" font-size="14.00">br00dsw0rd: ไอ้เด็กนั่นคือนิยามของคำว่ามือว่างเกินไป... เราคงต้องหางานอดิเรกให้ทำมากกว่านี้...</text>
</g>
<!-- j167349842&#45;&gt;j7156168 -->
<g id="edge28" class="edge">
<title>j167349842&#45;&gt;j7156168</title>
<path fill="none" stroke="black" d="M1091.5,-215.7C1091.5,-208.41 1091.5,-199.73 1091.5,-191.54"/>
<polygon fill="black" stroke="black" points="1095,-191.62 1091.5,-181.62 1088,-191.62 1095,-191.62"/>
</g>
<!-- Initiate conversation AmirHack2 in JabirDialogue_rom.dialogue -->
<g id="node25" class="node">
<title>Initiate conversation AmirHack2 in JabirDialogue_rom.dialogue</title>
<ellipse fill="none" stroke="orange" cx="1091.5" cy="-90" rx="239.36" ry="18"/>
<text text-anchor="middle" x="1091.5" y="-86.3" font-family="Times New Roman,serif" font-size="14.00">Initiate conversation AmirHack2 in JabirDialogue_rom.dialogue</text>
</g>
<!-- j7156168&#45;&gt;Initiate conversation AmirHack2 in JabirDialogue_rom.dialogue -->
<g id="edge29" class="edge">
<title>j7156168&#45;&gt;Initiate conversation AmirHack2 in JabirDialogue_rom.dialogue</title>
<path fill="none" stroke="black" d="M1091.5,-143.7C1091.5,-136.41 1091.5,-127.73 1091.5,-119.54"/>
<polygon fill="black" stroke="black" points="1095,-119.62 1091.5,-109.62 1088,-119.62 1095,-119.62"/>
</g>
<!-- Chat ends. -->
<g id="node26" class="node">
<title>Chat ends.</title>
<ellipse fill="none" stroke="orange" cx="1091.5" cy="-18" rx="50.09" ry="18"/>
<text text-anchor="middle" x="1091.5" y="-14.3" font-family="Times New Roman,serif" font-size="14.00">Chat ends.</text>
</g>
<!-- Initiate conversation AmirHack2 in JabirDialogue_rom.dialogue&#45;&gt;Chat ends. -->
<g id="edge30" class="edge">
<title>Initiate conversation AmirHack2 in JabirDialogue_rom.dialogue&#45;&gt;Chat ends.</title>
<path fill="none" stroke="black" d="M1091.5,-71.7C1091.5,-64.41 1091.5,-55.73 1091.5,-47.54"/>
<polygon fill="black" stroke="black" points="1095,-47.62 1091.5,-37.62 1088,-47.62 1095,-47.62"/>
</g>
</g>
</svg>
