<?xml version="1.0" encoding="UTF-8" standalone="no"?>
<!DOCTYPE svg PUBLIC "-//W3C//DTD SVG 1.1//EN"
 "http://www.w3.org/Graphics/SVG/1.1/DTD/svg11.dtd">
<!-- Generated by graphviz version 7.1.0 (20230121.1956)
 -->
<!-- Pages: 1 -->
<svg width="1535pt" height="2285pt"
 viewBox="0.00 0.00 1534.50 2285.00" xmlns="http://www.w3.org/2000/svg" xmlns:xlink="http://www.w3.org/1999/xlink">
<g id="graph0" class="graph" transform="scale(1 1) rotate(0) translate(4 2281)">
<polygon fill="white" stroke="none" points="-4,4 -4,-2281 1530.5,-2281 1530.5,4 -4,4"/>
<!-- LettieRank2Convo1 begins. -->
<g id="node1" class="node">
<title>LettieRank2Convo1 begins.</title>
<ellipse fill="none" stroke="orange" cx="393" cy="-2259" rx="111.58" ry="18"/>
<text text-anchor="middle" x="393" y="-2255.3" font-family="Times New Roman,serif" font-size="14.00">LettieRank2Convo1 begins.</text>
</g>
<!-- j3411441534 -->
<g id="node2" class="node">
<title>j3411441534</title>
<ellipse fill="none" stroke="orange" cx="393" cy="-2186" rx="109.68" ry="18"/>
<text text-anchor="middle" x="393" y="-2182.3" font-family="Times New Roman,serif" font-size="14.00">Check boolean LettieDuviri</text>
</g>
<!-- LettieRank2Convo1 begins.&#45;&gt;j3411441534 -->
<g id="edge1" class="edge">
<title>LettieRank2Convo1 begins.&#45;&gt;j3411441534</title>
<path fill="none" stroke="black" d="M393,-2240.81C393,-2233.23 393,-2224.1 393,-2215.54"/>
<polygon fill="black" stroke="black" points="396.5,-2215.54 393,-2205.54 389.5,-2215.54 396.5,-2215.54"/>
</g>
<!-- j3943794185 -->
<g id="node3" class="node">
<title>j3943794185</title>
<polygon fill="none" stroke="blue" points="382,-2117 236,-2117 236,-2079 382,-2079 382,-2117"/>
<text text-anchor="middle" x="309" y="-2101.8" font-family="Times New Roman,serif" font-size="14.00">你经历的这些死亡 &#13;</text>
<text text-anchor="middle" x="309" y="-2086.8" font-family="Times New Roman,serif" font-size="14.00">它们痛苦吗？</text>
</g>
<!-- j3411441534&#45;&gt;j3943794185 -->
<g id="edge2" class="edge">
<title>j3411441534&#45;&gt;j3943794185</title>
<path fill="none" stroke="green" d="M376.4,-2168.01C364.6,-2155.93 348.52,-2139.46 335.02,-2125.64"/>
<polygon fill="green" stroke="green" points="337.56,-2123.24 328.07,-2118.53 332.56,-2128.13 337.56,-2123.24"/>
<text text-anchor="middle" x="370" y="-2138.8" font-family="Times New Roman,serif" font-size="14.00">true</text>
</g>
<!-- j1281455386 -->
<g id="node4" class="node">
<title>j1281455386</title>
<polygon fill="none" stroke="blue" points="558,-2117 400,-2117 400,-2079 558,-2079 558,-2117"/>
<text text-anchor="middle" x="479" y="-2101.8" font-family="Times New Roman,serif" font-size="14.00">babas，告诉我 &#13;</text>
<text text-anchor="middle" x="479" y="-2086.8" font-family="Times New Roman,serif" font-size="14.00">你对死亡了解多少？</text>
</g>
<!-- j3411441534&#45;&gt;j1281455386 -->
<g id="edge3" class="edge">
<title>j3411441534&#45;&gt;j1281455386</title>
<path fill="none" stroke="brown" d="M409.99,-2168.01C422.19,-2155.81 438.85,-2139.15 452.75,-2125.25"/>
<polygon fill="brown" stroke="brown" points="454.89,-2128.06 459.49,-2118.51 449.94,-2123.11 454.89,-2128.06"/>
<text text-anchor="middle" x="455" y="-2138.8" font-family="Times New Roman,serif" font-size="14.00">false</text>
</g>
<!-- j3901871630 -->
<g id="node5" class="node">
<title>j3901871630</title>
<polygon fill="none" stroke="red" points="584,-2042 208,-2042 208,-2006 584,-2006 584,-2042"/>
<text text-anchor="middle" x="396" y="-2020.3" font-family="Times New Roman,serif" font-size="14.00">我以为只有我才会有这么病态的想法……你还好吗？</text>
</g>
<!-- j3943794185&#45;&gt;j3901871630 -->
<g id="edge4" class="edge">
<title>j3943794185&#45;&gt;j3901871630</title>
<path fill="none" stroke="black" d="M330.95,-2078.83C341.7,-2069.93 354.8,-2059.09 366.42,-2049.48"/>
<polygon fill="black" stroke="black" points="368.32,-2052.45 373.79,-2043.38 363.85,-2047.06 368.32,-2052.45"/>
</g>
<!-- j1306910821 -->
<g id="node6" class="node">
<title>j1306910821</title>
<polygon fill="none" stroke="red" points="902,-2042 602,-2042 602,-2006 902,-2006 902,-2042"/>
<text text-anchor="middle" x="752" y="-2020.3" font-family="Times New Roman,serif" font-size="14.00">哈哈。女士，别让我开始讲这个。你呢？</text>
</g>
<!-- j3943794185&#45;&gt;j1306910821 -->
<g id="edge5" class="edge">
<title>j3943794185&#45;&gt;j1306910821</title>
<path fill="none" stroke="black" d="M382.27,-2080.66C385.21,-2080.08 388.13,-2079.53 391,-2079 462.58,-2065.81 542.6,-2053.58 609.07,-2044.11"/>
<polygon fill="black" stroke="black" points="609.56,-2047.58 618.97,-2042.71 608.58,-2040.65 609.56,-2047.58"/>
</g>
<!-- j2476278933 -->
<g id="node7" class="node">
<title>j2476278933</title>
<polygon fill="none" stroke="red" points="190,-2042 0,-2042 0,-2006 190,-2006 190,-2042"/>
<text text-anchor="middle" x="95" y="-2020.3" font-family="Times New Roman,serif" font-size="14.00">你真的需要多出去走走。</text>
</g>
<!-- j3943794185&#45;&gt;j2476278933 -->
<g id="edge6" class="edge">
<title>j3943794185&#45;&gt;j2476278933</title>
<path fill="none" stroke="black" d="M254.17,-2078.55C224.59,-2068.6 187.97,-2056.28 157.32,-2045.97"/>
<polygon fill="black" stroke="black" points="158.77,-2042.76 148.18,-2042.89 156.54,-2049.4 158.77,-2042.76"/>
</g>
<!-- j1281455386&#45;&gt;j3901871630 -->
<g id="edge7" class="edge">
<title>j1281455386&#45;&gt;j3901871630</title>
<path fill="none" stroke="black" d="M458.06,-2078.83C447.9,-2070.02 435.55,-2059.31 424.55,-2049.76"/>
<polygon fill="black" stroke="black" points="427.07,-2047.32 417.22,-2043.41 422.48,-2052.61 427.07,-2047.32"/>
</g>
<!-- j1281455386&#45;&gt;j1306910821 -->
<g id="edge8" class="edge">
<title>j1281455386&#45;&gt;j1306910821</title>
<path fill="none" stroke="black" d="M548.95,-2078.55C587.51,-2068.38 635.44,-2055.74 675.05,-2045.29"/>
<polygon fill="black" stroke="black" points="675.75,-2048.73 684.53,-2042.8 673.96,-2041.96 675.75,-2048.73"/>
</g>
<!-- j1281455386&#45;&gt;j2476278933 -->
<g id="edge9" class="edge">
<title>j1281455386&#45;&gt;j2476278933</title>
<path fill="none" stroke="black" d="M399.86,-2080.73C396.87,-2080.14 393.91,-2079.56 391,-2079 328.25,-2066.86 257.88,-2053.99 201.49,-2043.86"/>
<polygon fill="black" stroke="black" points="202.36,-2040.46 191.9,-2042.14 201.12,-2047.35 202.36,-2040.46"/>
</g>
<!-- j3721985281 -->
<g id="node8" class="node">
<title>j3721985281</title>
<polygon fill="none" stroke="blue" points="816.5,-1969 681.5,-1969 681.5,-1933 816.5,-1933 816.5,-1969"/>
<text text-anchor="middle" x="749" y="-1947.3" font-family="Times New Roman,serif" font-size="14.00">我和 La Flaca 很熟</text>
</g>
<!-- j3901871630&#45;&gt;j3721985281 -->
<g id="edge10" class="edge">
<title>j3901871630&#45;&gt;j3721985281</title>
<path fill="none" stroke="black" d="M482.81,-2005.54C540.01,-1994.04 614.32,-1979.09 669.89,-1967.91"/>
<polygon fill="black" stroke="black" points="670.5,-1971.36 679.61,-1965.96 669.12,-1964.5 670.5,-1971.36"/>
</g>
<!-- j1306910821&#45;&gt;j3721985281 -->
<g id="edge11" class="edge">
<title>j1306910821&#45;&gt;j3721985281</title>
<path fill="none" stroke="black" d="M751.27,-2005.81C750.95,-1998.14 750.56,-1988.89 750.19,-1980.24"/>
<polygon fill="black" stroke="black" points="753.7,-1980.38 749.78,-1970.54 746.71,-1980.68 753.7,-1980.38"/>
</g>
<!-- j3273536409 -->
<g id="node9" class="node">
<title>j3273536409</title>
<polygon fill="none" stroke="blue" points="134,-1915 56,-1915 56,-1879 134,-1879 134,-1915"/>
<text text-anchor="middle" x="95" y="-1893.3" font-family="Times New Roman,serif" font-size="14.00">Ay，equis</text>
</g>
<!-- j2476278933&#45;&gt;j3273536409 -->
<g id="edge12" class="edge">
<title>j2476278933&#45;&gt;j3273536409</title>
<path fill="none" stroke="black" d="M95,-2005.62C95,-1985.19 95,-1950.99 95,-1926.62"/>
<polygon fill="black" stroke="black" points="98.5,-1926.75 95,-1916.75 91.5,-1926.75 98.5,-1926.75"/>
</g>
<!-- j2511589975 -->
<g id="node10" class="node">
<title>j2511589975</title>
<polygon fill="none" stroke="red" points="829.5,-1861 666.5,-1861 666.5,-1825 829.5,-1825 829.5,-1861"/>
<text text-anchor="middle" x="748" y="-1839.3" font-family="Times New Roman,serif" font-size="14.00">La Flaca 是指死亡吗？</text>
</g>
<!-- j3721985281&#45;&gt;j2511589975 -->
<g id="edge13" class="edge">
<title>j3721985281&#45;&gt;j2511589975</title>
<path fill="none" stroke="black" d="M748.84,-1932.97C748.69,-1916.76 748.45,-1892.06 748.27,-1872.79"/>
<polygon fill="black" stroke="black" points="751.77,-1872.82 748.18,-1862.85 744.77,-1872.89 751.77,-1872.82"/>
</g>
<!-- j4049668388 -->
<g id="node11" class="node">
<title>j4049668388</title>
<polygon fill="none" stroke="red" points="966,-1861 850,-1861 850,-1825 966,-1825 966,-1861"/>
<text text-anchor="middle" x="908" y="-1839.3" font-family="Times New Roman,serif" font-size="14.00">谁是 La Flaca？</text>
</g>
<!-- j3721985281&#45;&gt;j4049668388 -->
<g id="edge14" class="edge">
<title>j3721985281&#45;&gt;j4049668388</title>
<path fill="none" stroke="black" d="M774.9,-1932.73C801.39,-1915.08 842.73,-1887.52 872.3,-1867.8"/>
<polygon fill="black" stroke="black" points="874.21,-1870.73 880.59,-1862.28 870.33,-1864.91 874.21,-1870.73"/>
</g>
<!-- Chat ends. -->
<g id="node12" class="node">
<title>Chat ends.</title>
<ellipse fill="none" stroke="orange" cx="856" cy="-18" rx="50.09" ry="18"/>
<text text-anchor="middle" x="856" y="-14.3" font-family="Times New Roman,serif" font-size="14.00">Chat ends.</text>
</g>
<!-- j3273536409&#45;&gt;Chat ends. -->
<g id="edge15" class="edge">
<title>j3273536409&#45;&gt;Chat ends.</title>
<path fill="none" stroke="black" d="M95,-1878.61C95,-1860.66 95,-1831.88 95,-1807 95,-1807 95,-1807 95,-90 95,-19.97 612.54,-17.16 794.02,-18.32"/>
<polygon fill="black" stroke="black" points="793.94,-21.82 803.97,-18.39 793.99,-14.82 793.94,-21.82"/>
</g>
<!-- j2125586767 -->
<g id="node13" class="node">
<title>j2125586767</title>
<polygon fill="none" stroke="blue" points="841,-1788 651,-1788 651,-1750 841,-1750 841,-1788"/>
<text text-anchor="middle" x="746" y="-1772.8" font-family="Times New Roman,serif" font-size="14.00">Sí &#13;</text>
<text text-anchor="middle" x="746" y="-1757.8" font-family="Times New Roman,serif" font-size="14.00">没想到你这么快就明白了</text>
</g>
<!-- j2511589975&#45;&gt;j2125586767 -->
<g id="edge16" class="edge">
<title>j2511589975&#45;&gt;j2125586767</title>
<path fill="none" stroke="black" d="M747.52,-1824.57C747.31,-1817.1 747.06,-1808.17 746.83,-1799.71"/>
<polygon fill="black" stroke="black" points="750.33,-1799.69 746.55,-1789.79 743.33,-1799.88 750.33,-1799.69"/>
</g>
<!-- j4066464422 -->
<g id="node14" class="node">
<title>j4066464422</title>
<polygon fill="none" stroke="blue" points="1032.5,-1788 933.5,-1788 933.5,-1750 1032.5,-1750 1032.5,-1788"/>
<text text-anchor="middle" x="983" y="-1772.8" font-family="Times New Roman,serif" font-size="14.00">瘦弱的女士 &#13;</text>
<text text-anchor="middle" x="983" y="-1757.8" font-family="Times New Roman,serif" font-size="14.00">死亡</text>
</g>
<!-- j4049668388&#45;&gt;j4066464422 -->
<g id="edge17" class="edge">
<title>j4049668388&#45;&gt;j4066464422</title>
<path fill="none" stroke="black" d="M926.16,-1824.57C935.01,-1816.07 945.84,-1805.67 955.67,-1796.24"/>
<polygon fill="black" stroke="black" points="958.08,-1798.77 962.87,-1789.32 953.24,-1793.72 958.08,-1798.77"/>
</g>
<!-- j2311095341 -->
<g id="node15" class="node">
<title>j2311095341</title>
<ellipse fill="none" stroke="orange" cx="745" cy="-1695" rx="146.77" ry="18"/>
<text text-anchor="middle" x="745" y="-1691.3" font-family="Times New Roman,serif" font-size="14.00">Boolean LettieFantasma2 is now true.</text>
</g>
<!-- j2125586767&#45;&gt;j2311095341 -->
<g id="edge18" class="edge">
<title>j2125586767&#45;&gt;j2311095341</title>
<path fill="none" stroke="black" d="M745.75,-1749.83C745.64,-1742.24 745.52,-1733.24 745.4,-1724.79"/>
<polygon fill="black" stroke="black" points="748.9,-1724.88 745.26,-1714.93 741.9,-1724.98 748.9,-1724.88"/>
</g>
<!-- j2762521085 -->
<g id="node16" class="node">
<title>j2762521085</title>
<ellipse fill="none" stroke="orange" cx="1057" cy="-1695" rx="146.77" ry="18"/>
<text text-anchor="middle" x="1057" y="-1691.3" font-family="Times New Roman,serif" font-size="14.00">Boolean LettieFantasma2 is now true.</text>
</g>
<!-- j4066464422&#45;&gt;j2762521085 -->
<g id="edge19" class="edge">
<title>j4066464422&#45;&gt;j2762521085</title>
<path fill="none" stroke="black" d="M1001.67,-1749.83C1010.61,-1741.13 1021.47,-1730.57 1031.18,-1721.12"/>
<polygon fill="black" stroke="black" points="1033.54,-1723.71 1038.27,-1714.23 1028.66,-1718.69 1033.54,-1723.71"/>
</g>
<!-- j805073694 -->
<g id="node17" class="node">
<title>j805073694</title>
<ellipse fill="none" stroke="orange" cx="1055" cy="-1622" rx="59.59" ry="18"/>
<text text-anchor="middle" x="1055" y="-1618.3" font-family="Times New Roman,serif" font-size="14.00">+5 Chemistry</text>
</g>
<!-- j2311095341&#45;&gt;j805073694 -->
<g id="edge20" class="edge">
<title>j2311095341&#45;&gt;j805073694</title>
<path fill="none" stroke="black" d="M812.27,-1678.59C867.51,-1665.94 944.93,-1648.21 997.36,-1636.2"/>
<polygon fill="black" stroke="black" points="998.04,-1639.64 1007.01,-1633.99 996.48,-1632.81 998.04,-1639.64"/>
</g>
<!-- j2762521085&#45;&gt;j805073694 -->
<g id="edge21" class="edge">
<title>j2762521085&#45;&gt;j805073694</title>
<path fill="none" stroke="black" d="M1056.52,-1676.81C1056.3,-1669.14 1056.04,-1659.89 1055.8,-1651.24"/>
<polygon fill="black" stroke="black" points="1059.3,-1651.44 1055.52,-1641.54 1052.31,-1651.64 1059.3,-1651.44"/>
</g>
<!-- j1263911748 -->
<g id="node18" class="node">
<title>j1263911748</title>
<polygon fill="none" stroke="blue" points="1152,-1567 958,-1567 958,-1514 1152,-1514 1152,-1567"/>
<text text-anchor="middle" x="1055" y="-1551.8" font-family="Times New Roman,serif" font-size="14.00">我尊重她 &#13;</text>
<text text-anchor="middle" x="1055" y="-1536.8" font-family="Times New Roman,serif" font-size="14.00">即使有时候我并不喜欢她 &#13;</text>
<text text-anchor="middle" x="1055" y="-1521.8" font-family="Times New Roman,serif" font-size="14.00">但她守护着我所关心的人</text>
</g>
<!-- j805073694&#45;&gt;j1263911748 -->
<g id="edge22" class="edge">
<title>j805073694&#45;&gt;j1263911748</title>
<path fill="none" stroke="black" d="M1055,-1603.75C1055,-1596.38 1055,-1587.48 1055,-1578.74"/>
<polygon fill="black" stroke="black" points="1058.5,-1579 1055,-1569 1051.5,-1579 1058.5,-1579"/>
</g>
<!-- j2504101586 -->
<g id="node19" class="node">
<title>j2504101586</title>
<ellipse fill="none" stroke="orange" cx="1055" cy="-1459" rx="141.88" ry="18"/>
<text text-anchor="middle" x="1055" y="-1455.3" font-family="Times New Roman,serif" font-size="14.00">Boolean LettieReligion1 is now true.</text>
</g>
<!-- j1263911748&#45;&gt;j2504101586 -->
<g id="edge23" class="edge">
<title>j1263911748&#45;&gt;j2504101586</title>
<path fill="none" stroke="black" d="M1055,-1513.91C1055,-1505.86 1055,-1496.91 1055,-1488.66"/>
<polygon fill="black" stroke="black" points="1058.5,-1488.77 1055,-1478.77 1051.5,-1488.77 1058.5,-1488.77"/>
</g>
<!-- j454102180 -->
<g id="node20" class="node">
<title>j454102180</title>
<polygon fill="none" stroke="red" points="1255.5,-1404 816.5,-1404 816.5,-1368 1255.5,-1368 1255.5,-1404"/>
<text text-anchor="middle" x="1036" y="-1382.3" font-family="Times New Roman,serif" font-size="14.00">但你是个医生。不是应该治病救人吗？你怎么能“尊重”死亡？</text>
</g>
<!-- j2504101586&#45;&gt;j454102180 -->
<g id="edge24" class="edge">
<title>j2504101586&#45;&gt;j454102180</title>
<path fill="none" stroke="black" d="M1050.4,-1440.81C1048.32,-1433.05 1045.82,-1423.68 1043.48,-1414.95"/>
<polygon fill="black" stroke="black" points="1046.91,-1414.25 1040.95,-1405.49 1040.15,-1416.06 1046.91,-1414.25"/>
</g>
<!-- j1969317943 -->
<g id="node21" class="node">
<title>j1969317943</title>
<polygon fill="none" stroke="red" points="1526.5,-1404 1273.5,-1404 1273.5,-1368 1526.5,-1368 1526.5,-1404"/>
<text text-anchor="middle" x="1400" y="-1382.3" font-family="Times New Roman,serif" font-size="14.00">死亡不是人。它是必然发生的事。</text>
</g>
<!-- j2504101586&#45;&gt;j1969317943 -->
<g id="edge25" class="edge">
<title>j2504101586&#45;&gt;j1969317943</title>
<path fill="none" stroke="black" d="M1127.32,-1443.12C1178.63,-1432.56 1248.04,-1418.27 1303.99,-1406.76"/>
<polygon fill="black" stroke="black" points="1304.42,-1410.24 1313.51,-1404.8 1303.01,-1403.39 1304.42,-1410.24"/>
</g>
<!-- j3096348847 -->
<g id="node22" class="node">
<title>j3096348847</title>
<polygon fill="none" stroke="blue" points="1107.5,-1331 964.5,-1331 964.5,-1295 1107.5,-1295 1107.5,-1331"/>
<text text-anchor="middle" x="1036" y="-1309.3" font-family="Times New Roman,serif" font-size="14.00">你这么想是不对的</text>
</g>
<!-- j454102180&#45;&gt;j3096348847 -->
<g id="edge26" class="edge">
<title>j454102180&#45;&gt;j3096348847</title>
<path fill="none" stroke="black" d="M1036,-1367.81C1036,-1360.23 1036,-1351.1 1036,-1342.54"/>
<polygon fill="black" stroke="black" points="1039.5,-1342.54 1036,-1332.54 1032.5,-1342.54 1039.5,-1342.54"/>
</g>
<!-- j3022833425 -->
<g id="node23" class="node">
<title>j3022833425</title>
<polygon fill="none" stroke="blue" points="1427,-1277 1373,-1277 1373,-1241 1427,-1241 1427,-1277"/>
<text text-anchor="middle" x="1400" y="-1255.3" font-family="Times New Roman,serif" font-size="14.00">Va</text>
</g>
<!-- j1969317943&#45;&gt;j3022833425 -->
<g id="edge27" class="edge">
<title>j1969317943&#45;&gt;j3022833425</title>
<path fill="none" stroke="black" d="M1400,-1367.62C1400,-1347.19 1400,-1312.99 1400,-1288.62"/>
<polygon fill="black" stroke="black" points="1403.5,-1288.75 1400,-1278.75 1396.5,-1288.75 1403.5,-1288.75"/>
</g>
<!-- j1045615822 -->
<g id="node24" class="node">
<title>j1045615822</title>
<ellipse fill="none" stroke="orange" cx="1036" cy="-1205" rx="109.68" ry="18"/>
<text text-anchor="middle" x="1036" y="-1201.3" font-family="Times New Roman,serif" font-size="14.00">Check boolean LettieDuviri</text>
</g>
<!-- j3096348847&#45;&gt;j1045615822 -->
<g id="edge28" class="edge">
<title>j3096348847&#45;&gt;j1045615822</title>
<path fill="none" stroke="black" d="M1036,-1294.97C1036,-1278.76 1036,-1254.06 1036,-1234.79"/>
<polygon fill="black" stroke="black" points="1039.5,-1234.85 1036,-1224.85 1032.5,-1234.85 1039.5,-1234.85"/>
</g>
<!-- j3022833425&#45;&gt;Chat ends. -->
<g id="edge29" class="edge">
<title>j3022833425&#45;&gt;Chat ends.</title>
<path fill="none" stroke="black" d="M1400,-1240.75C1400,-1221.62 1400,-1189.86 1400,-1162.5 1400,-1162.5 1400,-1162.5 1400,-90 1400,-41.72 1058.74,-25.38 916.8,-20.67"/>
<polygon fill="black" stroke="black" points="917.34,-17.19 907.23,-20.36 917.11,-24.18 917.34,-17.19"/>
</g>
<!-- j2520619393 -->
<g id="node25" class="node">
<title>j2520619393</title>
<polygon fill="none" stroke="blue" points="907,-1136 607,-1136 607,-1083 907,-1083 907,-1136"/>
<text text-anchor="middle" x="757" y="-1120.8" font-family="Times New Roman,serif" font-size="14.00">你死过的那么多次里&#13;</text>
<text text-anchor="middle" x="757" y="-1105.8" font-family="Times New Roman,serif" font-size="14.00">你会怪她结束了你的痛苦吗？ &#13;</text>
<text text-anchor="middle" x="757" y="-1090.8" font-family="Times New Roman,serif" font-size="14.00">是因为她你才受苦，还是那些伤害你的人</text>
</g>
<!-- j1045615822&#45;&gt;j2520619393 -->
<g id="edge30" class="edge">
<title>j1045615822&#45;&gt;j2520619393</title>
<path fill="none" stroke="green" d="M989.3,-1188.35C950.07,-1175.2 892.93,-1156.05 845.13,-1140.04"/>
<polygon fill="green" stroke="green" points="846.49,-1136.8 835.9,-1136.94 844.27,-1143.44 846.49,-1136.8"/>
<text text-anchor="middle" x="940" y="-1157.8" font-family="Times New Roman,serif" font-size="14.00">true</text>
</g>
<!-- j2070845957 -->
<g id="node26" class="node">
<title>j2070845957</title>
<polygon fill="none" stroke="blue" points="1213,-1136 925,-1136 925,-1083 1213,-1083 1213,-1136"/>
<text text-anchor="middle" x="1069" y="-1120.8" font-family="Times New Roman,serif" font-size="14.00">我的工作是确保她在对的时间带走人们 &#13;</text>
<text text-anchor="middle" x="1069" y="-1105.8" font-family="Times New Roman,serif" font-size="14.00">直到她从我手中把人抢走 &#13;</text>
<text text-anchor="middle" x="1069" y="-1090.8" font-family="Times New Roman,serif" font-size="14.00">而且一秒也不能早</text>
</g>
<!-- j1045615822&#45;&gt;j2070845957 -->
<g id="edge31" class="edge">
<title>j1045615822&#45;&gt;j2070845957</title>
<path fill="none" stroke="brown" d="M1042.05,-1186.85C1045.99,-1175.7 1051.27,-1160.74 1056.11,-1147.01"/>
<polygon fill="brown" stroke="brown" points="1059.34,-1148.39 1059.37,-1137.79 1052.74,-1146.06 1059.34,-1148.39"/>
<text text-anchor="middle" x="1066" y="-1157.8" font-family="Times New Roman,serif" font-size="14.00">false</text>
</g>
<!-- j3780545906 -->
<g id="node27" class="node">
<title>j3780545906</title>
<polygon fill="none" stroke="blue" points="930.5,-1046 693.5,-1046 693.5,-978 930.5,-978 930.5,-1046"/>
<text text-anchor="middle" x="812" y="-1030.8" font-family="Times New Roman,serif" font-size="14.00">但当她来临时 &#13;</text>
<text text-anchor="middle" x="812" y="-1015.8" font-family="Times New Roman,serif" font-size="14.00">我会让她知道她是受欢迎的 &#13;</text>
<text text-anchor="middle" x="812" y="-1000.8" font-family="Times New Roman,serif" font-size="14.00">她是来带走痛苦的，babas&#13;</text>
<text text-anchor="middle" x="812" y="-985.8" font-family="Times New Roman,serif" font-size="14.00">她不应该被恐惧，而应该被尊重</text>
</g>
<!-- j2520619393&#45;&gt;j3780545906 -->
<g id="edge32" class="edge">
<title>j2520619393&#45;&gt;j3780545906</title>
<path fill="none" stroke="black" d="M771.88,-1082.66C776.6,-1074.46 781.96,-1065.17 787.18,-1056.1"/>
<polygon fill="black" stroke="black" points="790.04,-1058.14 792,-1047.72 783.98,-1054.64 790.04,-1058.14"/>
</g>
<!-- j2070845957&#45;&gt;j3780545906 -->
<g id="edge33" class="edge">
<title>j2070845957&#45;&gt;j3780545906</title>
<path fill="none" stroke="black" d="M999.11,-1082.53C972.37,-1072.59 941.32,-1061.06 912.29,-1050.27"/>
<polygon fill="black" stroke="black" points="913.71,-1047.06 903.12,-1046.86 911.27,-1053.62 913.71,-1047.06"/>
</g>
<!-- j3550775054 -->
<g id="node28" class="node">
<title>j3550775054</title>
<polygon fill="none" stroke="red" points="1119.5,-941 504.5,-941 504.5,-905 1119.5,-905 1119.5,-941"/>
<text text-anchor="middle" x="812" y="-919.3" font-family="Times New Roman,serif" font-size="14.00">当我还在双衍王境，知道自己快要死时，有时候知道这一切很快就结束反而是种解脱。</text>
</g>
<!-- j3780545906&#45;&gt;j3550775054 -->
<g id="edge34" class="edge">
<title>j3780545906&#45;&gt;j3550775054</title>
<path fill="none" stroke="black" d="M812,-977.61C812,-969.34 812,-960.55 812,-952.53"/>
<polygon fill="black" stroke="black" points="815.5,-952.64 812,-942.64 808.5,-952.64 815.5,-952.64"/>
</g>
<!-- j4224866593 -->
<g id="node29" class="node">
<title>j4224866593</title>
<polygon fill="none" stroke="red" points="486.5,-941 123.5,-941 123.5,-905 486.5,-905 486.5,-941"/>
<text text-anchor="middle" x="305" y="-919.3" font-family="Times New Roman,serif" font-size="14.00">我大概能明白这点。即便我不喜欢死亡这个想法。</text>
</g>
<!-- j3780545906&#45;&gt;j4224866593 -->
<g id="edge35" class="edge">
<title>j3780545906&#45;&gt;j4224866593</title>
<path fill="none" stroke="black" d="M693.13,-990.6C610.11,-976.36 499.95,-957.45 418.2,-943.42"/>
<polygon fill="black" stroke="black" points="418.8,-939.98 408.35,-941.73 417.61,-946.88 418.8,-939.98"/>
</g>
<!-- j2994904347 -->
<g id="node30" class="node">
<title>j2994904347</title>
<polygon fill="none" stroke="red" points="1372,-941 1138,-941 1138,-905 1372,-905 1372,-941"/>
<text text-anchor="middle" x="1255" y="-919.3" font-family="Times New Roman,serif" font-size="14.00">我……现在要结束这个话题了。</text>
</g>
<!-- j3780545906&#45;&gt;j2994904347 -->
<g id="edge36" class="edge">
<title>j3780545906&#45;&gt;j2994904347</title>
<path fill="none" stroke="black" d="M930.72,-987.69C1000.88,-973.91 1088.72,-956.66 1155.28,-943.58"/>
<polygon fill="black" stroke="black" points="1155.57,-947.09 1164.7,-941.73 1154.22,-940.23 1155.57,-947.09"/>
</g>
<!-- j89122077 -->
<g id="node31" class="node">
<title>j89122077</title>
<polygon fill="none" stroke="red" points="1009.5,-868 614.5,-868 614.5,-832 1009.5,-832 1009.5,-868"/>
<text text-anchor="middle" x="812" y="-846.3" font-family="Times New Roman,serif" font-size="14.00">不管伤势有多严重，黑暗终将会来临，一切都会结束。</text>
</g>
<!-- j3550775054&#45;&gt;j89122077 -->
<g id="edge37" class="edge">
<title>j3550775054&#45;&gt;j89122077</title>
<path fill="none" stroke="black" d="M812,-904.81C812,-897.23 812,-888.1 812,-879.54"/>
<polygon fill="black" stroke="black" points="815.5,-879.54 812,-869.54 808.5,-879.54 815.5,-879.54"/>
</g>
<!-- j2229834590 -->
<g id="node32" class="node">
<title>j2229834590</title>
<polygon fill="none" stroke="blue" points="374.5,-868 315.5,-868 315.5,-832 374.5,-832 374.5,-868"/>
<text text-anchor="middle" x="345" y="-846.3" font-family="Times New Roman,serif" font-size="14.00">嗯，sí</text>
</g>
<!-- j4224866593&#45;&gt;j2229834590 -->
<g id="edge38" class="edge">
<title>j4224866593&#45;&gt;j2229834590</title>
<path fill="none" stroke="black" d="M314.68,-904.81C319.25,-896.7 324.81,-886.84 329.91,-877.78"/>
<polygon fill="black" stroke="black" points="332.8,-879.78 334.66,-869.35 326.71,-876.34 332.8,-879.78"/>
</g>
<!-- j2791232871 -->
<g id="node33" class="node">
<title>j2791232871</title>
<polygon fill="none" stroke="blue" points="1203.5,-814 1076.5,-814 1076.5,-778 1203.5,-778 1203.5,-814"/>
<text text-anchor="middle" x="1140" y="-792.3" font-family="Times New Roman,serif" font-size="14.00">Ay，equis，pansy</text>
</g>
<!-- j2994904347&#45;&gt;j2791232871 -->
<g id="edge39" class="edge">
<title>j2994904347&#45;&gt;j2791232871</title>
<path fill="none" stroke="black" d="M1239.01,-904.62C1219.44,-883.35 1186.14,-847.15 1163.62,-822.67"/>
<polygon fill="black" stroke="black" points="1166.23,-820.34 1156.88,-815.35 1161.07,-825.08 1166.23,-820.34"/>
</g>
<!-- j2883096086 -->
<g id="node34" class="node">
<title>j2883096086</title>
<ellipse fill="none" stroke="orange" cx="812" cy="-742" rx="64.19" ry="18"/>
<text text-anchor="middle" x="812" y="-738.3" font-family="Times New Roman,serif" font-size="14.00">+10 Chemistry</text>
</g>
<!-- j89122077&#45;&gt;j2883096086 -->
<g id="edge40" class="edge">
<title>j89122077&#45;&gt;j2883096086</title>
<path fill="none" stroke="black" d="M812,-831.97C812,-815.76 812,-791.06 812,-771.79"/>
<polygon fill="black" stroke="black" points="815.5,-771.85 812,-761.85 808.5,-771.85 815.5,-771.85"/>
</g>
<!-- j3528342711 -->
<g id="node35" class="node">
<title>j3528342711</title>
<ellipse fill="none" stroke="orange" cx="360" cy="-688" rx="59.59" ry="18"/>
<text text-anchor="middle" x="360" y="-684.3" font-family="Times New Roman,serif" font-size="14.00">+5 Chemistry</text>
</g>
<!-- j2229834590&#45;&gt;j3528342711 -->
<g id="edge41" class="edge">
<title>j2229834590&#45;&gt;j3528342711</title>
<path fill="none" stroke="black" d="M346.63,-831.57C349.2,-804.16 354.22,-750.69 357.32,-717.59"/>
<polygon fill="black" stroke="black" points="360.78,-718.2 358.23,-707.91 353.81,-717.54 360.78,-718.2"/>
</g>
<!-- j2791232871&#45;&gt;Chat ends. -->
<g id="edge42" class="edge">
<title>j2791232871&#45;&gt;Chat ends.</title>
<path fill="none" stroke="black" d="M1138.42,-777.76C1136.65,-756.8 1134,-720.33 1134,-689 1134,-689 1134,-689 1134,-90 1134,-45.5 998.61,-28.53 916.79,-22.34"/>
<polygon fill="black" stroke="black" points="917.12,-18.86 906.89,-21.63 916.61,-25.84 917.12,-18.86"/>
</g>
<!-- j927512578 -->
<g id="node36" class="node">
<title>j927512578</title>
<polygon fill="none" stroke="blue" points="883.5,-652 740.5,-652 740.5,-614 883.5,-614 883.5,-652"/>
<text text-anchor="middle" x="812" y="-636.8" font-family="Times New Roman,serif" font-size="14.00">¿Sí，看? &#13;</text>
<text text-anchor="middle" x="812" y="-621.8" font-family="Times New Roman,serif" font-size="14.00">你明白我的意思了</text>
</g>
<!-- j2883096086&#45;&gt;j927512578 -->
<g id="edge43" class="edge">
<title>j2883096086&#45;&gt;j927512578</title>
<path fill="none" stroke="black" d="M812,-723.81C812,-707.57 812,-682.87 812,-663.48"/>
<polygon fill="black" stroke="black" points="815.5,-663.74 812,-653.74 808.5,-663.74 815.5,-663.74"/>
</g>
<!-- j4201546189 -->
<g id="node37" class="node">
<title>j4201546189</title>
<polygon fill="none" stroke="blue" points="704,-504 432,-504 432,-436 704,-436 704,-504"/>
<text text-anchor="middle" x="568" y="-488.8" font-family="Times New Roman,serif" font-size="14.00">这就是我治愈的原因 &#13;</text>
<text text-anchor="middle" x="568" y="-473.8" font-family="Times New Roman,serif" font-size="14.00">为了确保瘦女士确切知道她要带走谁 &#13;</text>
<text text-anchor="middle" x="568" y="-458.8" font-family="Times New Roman,serif" font-size="14.00">并且只带走她需要的人 &#13;</text>
<text text-anchor="middle" x="568" y="-443.8" font-family="Times New Roman,serif" font-size="14.00">不多也不少</text>
</g>
<!-- j3528342711&#45;&gt;j4201546189 -->
<g id="edge44" class="edge">
<title>j3528342711&#45;&gt;j4201546189</title>
<path fill="none" stroke="black" d="M360.32,-669.89C361.79,-640.09 368.91,-578.28 402,-541 413.07,-528.53 426.73,-518.21 441.42,-509.7"/>
<polygon fill="black" stroke="black" points="442.78,-512.95 449.88,-505.09 439.42,-506.8 442.78,-512.95"/>
</g>
<!-- j3662180161 -->
<g id="node38" class="node">
<title>j3662180161</title>
<polygon fill="none" stroke="red" points="952,-577 746,-577 746,-541 952,-541 952,-577"/>
<text text-anchor="middle" x="849" y="-555.3" font-family="Times New Roman,serif" font-size="14.00">但我也知道我还会回来的。</text>
</g>
<!-- j927512578&#45;&gt;j3662180161 -->
<g id="edge45" class="edge">
<title>j927512578&#45;&gt;j3662180161</title>
<path fill="none" stroke="black" d="M821.34,-613.83C825.42,-605.89 830.29,-596.41 834.8,-587.63"/>
<polygon fill="black" stroke="black" points="837.9,-589.26 839.36,-578.76 831.67,-586.06 837.9,-589.26"/>
</g>
<!-- j758273786 -->
<g id="node39" class="node">
<title>j758273786</title>
<polygon fill="none" stroke="red" points="727,-577 411,-577 411,-541 727,-541 727,-577"/>
<text text-anchor="middle" x="569" y="-555.3" font-family="Times New Roman,serif" font-size="14.00">但我不认为这意味着每个人都应该死。哈哈</text>
</g>
<!-- j927512578&#45;&gt;j758273786 -->
<g id="edge46" class="edge">
<title>j927512578&#45;&gt;j758273786</title>
<path fill="none" stroke="black" d="M749.74,-613.55C715.71,-603.47 673.48,-590.96 638.4,-580.56"/>
<polygon fill="black" stroke="black" points="639.79,-577.32 629.21,-577.84 637.8,-584.04 639.79,-577.32"/>
</g>
<!-- j1209734837 -->
<g id="node40" class="node">
<title>j1209734837</title>
<polygon fill="none" stroke="blue" points="771.5,-383 364.5,-383 364.5,-347 771.5,-347 771.5,-383"/>
<text text-anchor="middle" x="568" y="-361.3" font-family="Times New Roman,serif" font-size="14.00">我们都见过深爱的人因为其他人的行为而过早被带走……</text>
</g>
<!-- j4201546189&#45;&gt;j1209734837 -->
<g id="edge47" class="edge">
<title>j4201546189&#45;&gt;j1209734837</title>
<path fill="none" stroke="black" d="M568,-435.56C568,-422.38 568,-407.4 568,-394.72"/>
<polygon fill="black" stroke="black" points="571.5,-394.92 568,-384.92 564.5,-394.92 571.5,-394.92"/>
</g>
<!-- j3227615493 -->
<g id="node41" class="node">
<title>j3227615493</title>
<ellipse fill="none" stroke="orange" cx="914" cy="-470" rx="59.59" ry="18"/>
<text text-anchor="middle" x="914" y="-466.3" font-family="Times New Roman,serif" font-size="14.00">+5 Chemistry</text>
</g>
<!-- j3662180161&#45;&gt;j3227615493 -->
<g id="edge48" class="edge">
<title>j3662180161&#45;&gt;j3227615493</title>
<path fill="none" stroke="black" d="M861.84,-540.81C871.25,-528.22 884.18,-510.91 894.81,-496.68"/>
<polygon fill="black" stroke="black" points="897.32,-499.18 900.5,-489.07 891.71,-494.99 897.32,-499.18"/>
</g>
<!-- j758273786&#45;&gt;j4201546189 -->
<g id="edge49" class="edge">
<title>j758273786&#45;&gt;j4201546189</title>
<path fill="none" stroke="black" d="M568.8,-540.81C568.72,-533.5 568.62,-524.6 568.51,-515.63"/>
<polygon fill="black" stroke="black" points="572.02,-515.83 568.4,-505.87 565.02,-515.91 572.02,-515.83"/>
</g>
<!-- j3309166729 -->
<g id="node42" class="node">
<title>j3309166729</title>
<polygon fill="none" stroke="red" points="595,-293 531,-293 531,-257 595,-257 595,-293"/>
<text text-anchor="middle" x="563" y="-271.3" font-family="Times New Roman,serif" font-size="14.00">是啊。</text>
</g>
<!-- j1209734837&#45;&gt;j3309166729 -->
<g id="edge50" class="edge">
<title>j1209734837&#45;&gt;j3309166729</title>
<path fill="none" stroke="black" d="M567.01,-346.61C566.33,-334.68 565.42,-318.57 564.63,-304.74"/>
<polygon fill="black" stroke="black" points="568.13,-304.65 564.07,-294.86 561.14,-305.04 568.13,-304.65"/>
</g>
<!-- j2289646236 -->
<g id="node43" class="node">
<title>j2289646236</title>
<polygon fill="none" stroke="red" points="787,-293 613,-293 613,-257 787,-257 787,-293"/>
<text text-anchor="middle" x="700" y="-271.3" font-family="Times New Roman,serif" font-size="14.00">冲这话我得敬你一杯。</text>
</g>
<!-- j1209734837&#45;&gt;j2289646236 -->
<g id="edge51" class="edge">
<title>j1209734837&#45;&gt;j2289646236</title>
<path fill="none" stroke="black" d="M594.08,-346.61C614.24,-333.18 642.35,-314.43 664.55,-299.63"/>
<polygon fill="black" stroke="black" points="666.34,-302.65 672.72,-294.19 662.45,-296.82 666.34,-302.65"/>
</g>
<!-- j3702731369 -->
<g id="node44" class="node">
<title>j3702731369</title>
<polygon fill="none" stroke="blue" points="1051,-399 801,-399 801,-331 1051,-331 1051,-399"/>
<text text-anchor="middle" x="926" y="-383.8" font-family="Times New Roman,serif" font-size="14.00">对于那些有信仰的人来说 &#13;</text>
<text text-anchor="middle" x="926" y="-368.8" font-family="Times New Roman,serif" font-size="14.00">我们也是如此 &#13;</text>
<text text-anchor="middle" x="926" y="-353.8" font-family="Times New Roman,serif" font-size="14.00">也许不像你那么字面上的哈哈 &#13;</text>
<text text-anchor="middle" x="926" y="-338.8" font-family="Times New Roman,serif" font-size="14.00">不过……现在我们也成了 fantasmas </text>
</g>
<!-- j3227615493&#45;&gt;j3702731369 -->
<g id="edge52" class="edge">
<title>j3227615493&#45;&gt;j3702731369</title>
<path fill="none" stroke="black" d="M916.04,-451.53C917.34,-440.3 919.11,-425.16 920.79,-410.74"/>
<polygon fill="black" stroke="black" points="924.25,-411.26 921.93,-400.92 917.3,-410.45 924.25,-411.26"/>
</g>
<!-- j86329043 -->
<g id="node45" class="node">
<title>j86329043</title>
<polygon fill="none" stroke="blue" points="699.5,-165 572.5,-165 572.5,-127 699.5,-127 699.5,-165"/>
<text text-anchor="middle" x="636" y="-149.8" font-family="Times New Roman,serif" font-size="14.00">聊得挺开心 &#13;</text>
<text text-anchor="middle" x="636" y="-134.8" font-family="Times New Roman,serif" font-size="14.00">我得回去工作了</text>
</g>
<!-- j3309166729&#45;&gt;j86329043 -->
<g id="edge53" class="edge">
<title>j3309166729&#45;&gt;j86329043</title>
<path fill="none" stroke="black" d="M573,-256.61C585.02,-235.68 605.38,-200.27 619.69,-175.37"/>
<polygon fill="black" stroke="black" points="622.71,-177.14 624.66,-166.73 616.64,-173.65 622.71,-177.14"/>
</g>
<!-- j1299829215 -->
<g id="node46" class="node">
<title>j1299829215</title>
<ellipse fill="none" stroke="orange" cx="734" cy="-201" rx="59.59" ry="18"/>
<text text-anchor="middle" x="734" y="-197.3" font-family="Times New Roman,serif" font-size="14.00">+5 Chemistry</text>
</g>
<!-- j2289646236&#45;&gt;j1299829215 -->
<g id="edge54" class="edge">
<title>j2289646236&#45;&gt;j1299829215</title>
<path fill="none" stroke="black" d="M708.23,-256.57C712.07,-248.43 716.74,-238.56 721.04,-229.45"/>
<polygon fill="black" stroke="black" points="724.09,-231.17 725.2,-220.64 717.76,-228.19 724.09,-231.17"/>
</g>
<!-- j2313206924 -->
<g id="node47" class="node">
<title>j2313206924</title>
<polygon fill="none" stroke="blue" points="1055,-294 805,-294 805,-256 1055,-256 1055,-294"/>
<text text-anchor="middle" x="930" y="-278.8" font-family="Times New Roman,serif" font-size="14.00">被困在和你一样的无尽循环中……&#13;</text>
<text text-anchor="middle" x="930" y="-263.8" font-family="Times New Roman,serif" font-size="14.00">在 Mictlán 的怀抱之外</text>
</g>
<!-- j3702731369&#45;&gt;j2313206924 -->
<g id="edge55" class="edge">
<title>j3702731369&#45;&gt;j2313206924</title>
<path fill="none" stroke="black" d="M927.51,-330.73C927.89,-322.52 928.28,-313.78 928.65,-305.75"/>
<polygon fill="black" stroke="black" points="932.14,-305.93 929.1,-295.78 925.15,-305.61 932.14,-305.93"/>
</g>
<!-- j86329043&#45;&gt;Chat ends. -->
<g id="edge56" class="edge">
<title>j86329043&#45;&gt;Chat ends.</title>
<path fill="none" stroke="black" d="M649.22,-126.7C661.72,-110.58 681.82,-87.46 704,-73 734.19,-53.32 772.44,-39.78 803.02,-31.18"/>
<polygon fill="black" stroke="black" points="803.71,-34.62 812.45,-28.63 801.88,-27.86 803.71,-34.62"/>
</g>
<!-- j1262637060 -->
<g id="node48" class="node">
<title>j1262637060</title>
<polygon fill="none" stroke="blue" points="767,-109 713,-109 713,-73 767,-73 767,-109"/>
<text text-anchor="middle" x="740" y="-87.3" font-family="Times New Roman,serif" font-size="14.00">Sí</text>
</g>
<!-- j1299829215&#45;&gt;j1262637060 -->
<g id="edge57" class="edge">
<title>j1299829215&#45;&gt;j1262637060</title>
<path fill="none" stroke="black" d="M734.96,-182.65C735.89,-165.96 737.31,-140.42 738.41,-120.7"/>
<polygon fill="black" stroke="black" points="741.89,-121 738.95,-110.82 734.91,-120.61 741.89,-121"/>
</g>
<!-- j538354201 -->
<g id="node49" class="node">
<title>j538354201</title>
<polygon fill="none" stroke="blue" points="930.5,-164 803.5,-164 803.5,-128 930.5,-128 930.5,-164"/>
<text text-anchor="middle" x="867" y="-142.3" font-family="Times New Roman,serif" font-size="14.00">我得回去工作了</text>
</g>
<!-- j2313206924&#45;&gt;j538354201 -->
<g id="edge58" class="edge">
<title>j2313206924&#45;&gt;j538354201</title>
<path fill="none" stroke="black" d="M920.84,-255.53C910.26,-234.2 892.74,-198.89 880.58,-174.37"/>
<polygon fill="black" stroke="black" points="883.82,-173.03 876.24,-165.62 877.55,-176.14 883.82,-173.03"/>
</g>
<!-- j1262637060&#45;&gt;Chat ends. -->
<g id="edge59" class="edge">
<title>j1262637060&#45;&gt;Chat ends.</title>
<path fill="none" stroke="black" d="M767.49,-73.17C783.73,-63.23 804.44,-50.56 821.74,-39.97"/>
<polygon fill="black" stroke="black" points="823.48,-43.01 830.18,-34.81 819.82,-37.04 823.48,-43.01"/>
</g>
<!-- j538354201&#45;&gt;Chat ends. -->
<g id="edge60" class="edge">
<title>j538354201&#45;&gt;Chat ends.</title>
<path fill="none" stroke="black" d="M865.49,-127.74C863.69,-107.12 860.65,-72.32 858.5,-47.64"/>
<polygon fill="black" stroke="black" points="862.01,-47.62 857.66,-37.96 855.04,-48.23 862.01,-47.62"/>
</g>
</g>
</svg>
