<?xml version="1.0" encoding="UTF-8" standalone="no"?>
<!DOCTYPE svg PUBLIC "-//W3C//DTD SVG 1.1//EN"
 "http://www.w3.org/Graphics/SVG/1.1/DTD/svg11.dtd">
<!-- Generated by graphviz version 7.1.0 (20230121.1956)
 -->
<!-- Pages: 1 -->
<svg width="1423pt" height="3163pt"
 viewBox="0.00 0.00 1422.59 3163.00" xmlns="http://www.w3.org/2000/svg" xmlns:xlink="http://www.w3.org/1999/xlink">
<g id="graph0" class="graph" transform="scale(1 1) rotate(0) translate(4 3159)">
<polygon fill="white" stroke="none" points="-4,4 -4,-3159 1418.59,-3159 1418.59,4 -4,4"/>
<!-- QuincyRank6Convo1 begins. -->
<g id="node1" class="node">
<title>QuincyRank6Convo1 begins.</title>
<ellipse fill="none" stroke="orange" cx="126.09" cy="-3137" rx="118.08" ry="18"/>
<text text-anchor="middle" x="126.09" y="-3133.3" font-family="Times New Roman,serif" font-size="14.00">QuincyRank6Convo1 begins.</text>
</g>
<!-- j431139663 -->
<g id="node2" class="node">
<title>j431139663</title>
<ellipse fill="none" stroke="orange" cx="126.09" cy="-3064" rx="126.18" ry="18"/>
<text text-anchor="middle" x="126.09" y="-3060.3" font-family="Times New Roman,serif" font-size="14.00">Check boolean QuincyForgiven</text>
</g>
<!-- QuincyRank6Convo1 begins.&#45;&gt;j431139663 -->
<g id="edge1" class="edge">
<title>QuincyRank6Convo1 begins.&#45;&gt;j431139663</title>
<path fill="none" stroke="black" d="M126.09,-3118.81C126.09,-3111.23 126.09,-3102.1 126.09,-3093.54"/>
<polygon fill="black" stroke="black" points="129.59,-3093.54 126.09,-3083.54 122.59,-3093.54 129.59,-3093.54"/>
</g>
<!-- j3559869546 -->
<g id="node3" class="node">
<title>j3559869546</title>
<ellipse fill="none" stroke="orange" cx="632.09" cy="-2977" rx="117.78" ry="18"/>
<text text-anchor="middle" x="632.09" y="-2973.3" font-family="Times New Roman,serif" font-size="14.00">Check boolean QuincyDating</text>
</g>
<!-- j431139663&#45;&gt;j3559869546 -->
<g id="edge2" class="edge">
<title>j431139663&#45;&gt;j3559869546</title>
<path fill="none" stroke="green" d="M205.71,-3049.63C297.67,-3034.18 448.51,-3008.84 543.94,-2992.81"/>
<polygon fill="green" stroke="green" points="544.23,-2996.31 553.51,-2991.2 543.07,-2989.4 544.23,-2996.31"/>
<text text-anchor="middle" x="421.09" y="-3016.8" font-family="Times New Roman,serif" font-size="14.00">true</text>
</g>
<!-- Chat ends. -->
<g id="node4" class="node">
<title>Chat ends.</title>
<ellipse fill="none" stroke="orange" cx="770.09" cy="-18" rx="50.09" ry="18"/>
<text text-anchor="middle" x="770.09" y="-14.3" font-family="Times New Roman,serif" font-size="14.00">Chat ends.</text>
</g>
<!-- j431139663&#45;&gt;Chat ends. -->
<g id="edge3" class="edge">
<title>j431139663&#45;&gt;Chat ends.</title>
<path fill="none" stroke="brown" d="M120.85,-3045.6C116.18,-3028.54 110.09,-3001.73 110.09,-2978 110.09,-2978 110.09,-2978 110.09,-90 110.09,-30.18 544.29,-20.69 708.33,-19.24"/>
<polygon fill="brown" stroke="brown" points="708.18,-22.74 718.15,-19.16 708.13,-15.74 708.18,-22.74"/>
<text text-anchor="middle" x="123.09" y="-1537.3" font-family="Times New Roman,serif" font-size="14.00">false</text>
</g>
<!-- j2914381818 -->
<g id="node5" class="node">
<title>j2914381818</title>
<polygon fill="none" stroke="blue" points="763.59,-2908 500.59,-2908 500.59,-2872 763.59,-2872 763.59,-2908"/>
<text text-anchor="middle" x="632.09" y="-2886.3" font-family="Times New Roman,serif" font-size="14.00">hej kochany, jesteś tam? mam coś dla ciebie</text>
</g>
<!-- j3559869546&#45;&gt;j2914381818 -->
<g id="edge4" class="edge">
<title>j3559869546&#45;&gt;j2914381818</title>
<path fill="none" stroke="green" d="M632.09,-2958.8C632.09,-2947.58 632.09,-2932.67 632.09,-2919.69"/>
<polygon fill="green" stroke="green" points="635.59,-2919.98 632.09,-2909.98 628.59,-2919.98 635.59,-2919.98"/>
<text text-anchor="middle" x="643.09" y="-2929.8" font-family="Times New Roman,serif" font-size="14.00">true</text>
</g>
<!-- j2901328232 -->
<g id="node6" class="node">
<title>j2901328232</title>
<polygon fill="none" stroke="blue" points="1036.09,-2908 782.09,-2908 782.09,-2872 1036.09,-2872 1036.09,-2908"/>
<text text-anchor="middle" x="909.09" y="-2886.3" font-family="Times New Roman,serif" font-size="14.00">hej brachu, jesteś tam? mam coś dla ciebie</text>
</g>
<!-- j3559869546&#45;&gt;j2901328232 -->
<g id="edge5" class="edge">
<title>j3559869546&#45;&gt;j2901328232</title>
<path fill="none" stroke="brown" d="M682.89,-2960.41C727.47,-2946.73 792.64,-2926.73 841.59,-2911.71"/>
<polygon fill="brown" stroke="brown" points="842.42,-2915.12 850.95,-2908.84 840.37,-2908.43 842.42,-2915.12"/>
<text text-anchor="middle" x="800.09" y="-2929.8" font-family="Times New Roman,serif" font-size="14.00">false</text>
</g>
<!-- j2022698255 -->
<g id="node7" class="node">
<title>j2022698255</title>
<polygon fill="none" stroke="red" points="748.09,-2835 620.09,-2835 620.09,-2799 748.09,-2799 748.09,-2835"/>
<text text-anchor="middle" x="684.09" y="-2813.3" font-family="Times New Roman,serif" font-size="14.00">Tak? Co słychać? :)</text>
</g>
<!-- j2914381818&#45;&gt;j2022698255 -->
<g id="edge6" class="edge">
<title>j2914381818&#45;&gt;j2022698255</title>
<path fill="none" stroke="black" d="M644.68,-2871.81C650.74,-2863.53 658.15,-2853.41 664.9,-2844.19"/>
<polygon fill="black" stroke="black" points="667.64,-2846.39 670.72,-2836.25 661.99,-2842.25 667.64,-2846.39"/>
</g>
<!-- j221940675 -->
<g id="node8" class="node">
<title>j221940675</title>
<polygon fill="none" stroke="red" points="1025.09,-2835 793.09,-2835 793.09,-2799 1025.09,-2799 1025.09,-2835"/>
<text text-anchor="middle" x="909.09" y="-2813.3" font-family="Times New Roman,serif" font-size="14.00">Przepraszam, teraz nie mogę. [Koniec]</text>
</g>
<!-- j2914381818&#45;&gt;j221940675 -->
<g id="edge7" class="edge">
<title>j2914381818&#45;&gt;j221940675</title>
<path fill="none" stroke="black" d="M700.21,-2871.54C739.53,-2861.46 789.17,-2848.74 830.19,-2838.22"/>
<polygon fill="black" stroke="black" points="830.95,-2841.64 839.77,-2835.77 829.21,-2834.86 830.95,-2841.64"/>
</g>
<!-- j2901328232&#45;&gt;j2022698255 -->
<g id="edge8" class="edge">
<title>j2901328232&#45;&gt;j2022698255</title>
<path fill="none" stroke="black" d="M853.76,-2871.54C822.43,-2861.65 783.04,-2849.23 750.11,-2838.83"/>
<polygon fill="black" stroke="black" points="751.24,-2835.52 740.65,-2835.85 749.13,-2842.19 751.24,-2835.52"/>
</g>
<!-- j2901328232&#45;&gt;j221940675 -->
<g id="edge9" class="edge">
<title>j2901328232&#45;&gt;j221940675</title>
<path fill="none" stroke="black" d="M909.09,-2871.81C909.09,-2864.23 909.09,-2855.1 909.09,-2846.54"/>
<polygon fill="black" stroke="black" points="912.59,-2846.54 909.09,-2836.54 905.59,-2846.54 912.59,-2846.54"/>
</g>
<!-- j2402706100 -->
<g id="node9" class="node">
<title>j2402706100</title>
<polygon fill="none" stroke="blue" points="1032.09,-2762 336.09,-2762 336.09,-2726 1032.09,-2726 1032.09,-2762"/>
<text text-anchor="middle" x="684.09" y="-2740.3" font-family="Times New Roman,serif" font-size="14.00">więc myślałem przez chwilę o... właściwie o wszystkim. o tobie, o mnie, o naszej grupie, o wszystkim odkąd się pojawiłeś</text>
</g>
<!-- j2022698255&#45;&gt;j2402706100 -->
<g id="edge10" class="edge">
<title>j2022698255&#45;&gt;j2402706100</title>
<path fill="none" stroke="black" d="M684.09,-2798.81C684.09,-2791.23 684.09,-2782.1 684.09,-2773.54"/>
<polygon fill="black" stroke="black" points="687.59,-2773.54 684.09,-2763.54 680.59,-2773.54 687.59,-2773.54"/>
</g>
<!-- j1621502764 -->
<g id="node10" class="node">
<title>j1621502764</title>
<polygon fill="none" stroke="blue" points="1414.59,-2708 1001.59,-2708 1001.59,-2672 1414.59,-2672 1414.59,-2708"/>
<text text-anchor="middle" x="1208.09" y="-2686.3" font-family="Times New Roman,serif" font-size="14.00">uh. ok stary, w takim razie chowam to z powrotem do kieszeni, cholera</text>
</g>
<!-- j221940675&#45;&gt;j1621502764 -->
<g id="edge11" class="edge">
<title>j221940675&#45;&gt;j1621502764</title>
<path fill="none" stroke="black" d="M952.25,-2798.52C978.06,-2788.02 1011.5,-2774.34 1041.09,-2762 1080.18,-2745.69 1124.28,-2726.93 1157.33,-2712.79"/>
<polygon fill="black" stroke="black" points="1158.45,-2716.12 1166.27,-2708.97 1155.7,-2709.68 1158.45,-2716.12"/>
</g>
<!-- j2545555901 -->
<g id="node11" class="node">
<title>j2545555901</title>
<polygon fill="none" stroke="blue" points="1020.59,-2654 347.59,-2654 347.59,-2618 1020.59,-2618 1020.59,-2654"/>
<text text-anchor="middle" x="684.09" y="-2632.3" font-family="Times New Roman,serif" font-size="14.00">byłem tak wściekły na wszystko i wszystkich, którzy zabrali mi przyszłość i moje marzenia, tak? zwłaszcza na artura...</text>
</g>
<!-- j2402706100&#45;&gt;j2545555901 -->
<g id="edge12" class="edge">
<title>j2402706100&#45;&gt;j2545555901</title>
<path fill="none" stroke="black" d="M684.09,-2725.97C684.09,-2709.76 684.09,-2685.06 684.09,-2665.79"/>
<polygon fill="black" stroke="black" points="687.59,-2665.85 684.09,-2655.85 680.59,-2665.85 687.59,-2665.85"/>
</g>
<!-- j1621502764&#45;&gt;Chat ends. -->
<g id="edge13" class="edge">
<title>j1621502764&#45;&gt;Chat ends.</title>
<path fill="none" stroke="black" d="M1225.02,-2671.52C1239.52,-2654.65 1258.09,-2627.65 1258.09,-2600 1258.09,-2600 1258.09,-2600 1258.09,-90 1258.09,-47.3 961.79,-28.04 830.95,-21.61"/>
<polygon fill="black" stroke="black" points="831.23,-18.12 821.08,-21.14 830.9,-25.11 831.23,-18.12"/>
</g>
<!-- j3286868271 -->
<g id="node12" class="node">
<title>j3286868271</title>
<polygon fill="none" stroke="blue" points="935.09,-2581 433.09,-2581 433.09,-2545 935.09,-2545 935.09,-2581"/>
<text text-anchor="middle" x="684.09" y="-2559.3" font-family="Times New Roman,serif" font-size="14.00">myśląc, że nie mam żadnej drogi naprzód, żadnej nadziei na... cokolwiek, czego pragnę</text>
</g>
<!-- j2545555901&#45;&gt;j3286868271 -->
<g id="edge14" class="edge">
<title>j2545555901&#45;&gt;j3286868271</title>
<path fill="none" stroke="black" d="M684.09,-2617.81C684.09,-2610.23 684.09,-2601.1 684.09,-2592.54"/>
<polygon fill="black" stroke="black" points="687.59,-2592.54 684.09,-2582.54 680.59,-2592.54 687.59,-2592.54"/>
</g>
<!-- j1945026517 -->
<g id="node13" class="node">
<title>j1945026517</title>
<polygon fill="none" stroke="blue" points="1113.59,-2508 254.59,-2508 254.59,-2472 1113.59,-2472 1113.59,-2508"/>
<text text-anchor="middle" x="684.09" y="-2486.3" font-family="Times New Roman,serif" font-size="14.00">nigdy nie przestałem myśleć, że może, hej... głupcze? to, czego chcesz, może się zmienić. i może to, co masz *to to, o czym marzyłeś przez cały czas*</text>
</g>
<!-- j3286868271&#45;&gt;j1945026517 -->
<g id="edge15" class="edge">
<title>j3286868271&#45;&gt;j1945026517</title>
<path fill="none" stroke="black" d="M684.09,-2544.81C684.09,-2537.23 684.09,-2528.1 684.09,-2519.54"/>
<polygon fill="black" stroke="black" points="687.59,-2519.54 684.09,-2509.54 680.59,-2519.54 687.59,-2519.54"/>
</g>
<!-- j3505345048 -->
<g id="node14" class="node">
<title>j3505345048</title>
<polygon fill="none" stroke="blue" points="1230.09,-2435 138.09,-2435 138.09,-2399 1230.09,-2399 1230.09,-2435"/>
<text text-anchor="middle" x="684.09" y="-2413.3" font-family="Times New Roman,serif" font-size="14.00">rozglądam się teraz i widzę... widzę społeczność. i tak, jasne, w porządku, wciąż mamy techrot, który bzyczy nad nami jak muchy, i wciąż jest Wiktor, który jest prawdziwym wrzodem na dupie</text>
</g>
<!-- j1945026517&#45;&gt;j3505345048 -->
<g id="edge16" class="edge">
<title>j1945026517&#45;&gt;j3505345048</title>
<path fill="none" stroke="black" d="M684.09,-2471.81C684.09,-2464.23 684.09,-2455.1 684.09,-2446.54"/>
<polygon fill="black" stroke="black" points="687.59,-2446.54 684.09,-2436.54 680.59,-2446.54 687.59,-2446.54"/>
</g>
<!-- j1595378551 -->
<g id="node15" class="node">
<title>j1595378551</title>
<polygon fill="none" stroke="blue" points="1128.59,-2362 239.59,-2362 239.59,-2326 1128.59,-2326 1128.59,-2362"/>
<text text-anchor="middle" x="684.09" y="-2340.3" font-family="Times New Roman,serif" font-size="14.00">ale nic z tego nie jest problemem, z którym nie moglibyśmy sobie poradzić. dzięki tobie. ponieważ sprawiłeś, że staliśmy się czymś, co się naprawdę LICZY</text>
</g>
<!-- j3505345048&#45;&gt;j1595378551 -->
<g id="edge17" class="edge">
<title>j3505345048&#45;&gt;j1595378551</title>
<path fill="none" stroke="black" d="M684.09,-2398.81C684.09,-2391.23 684.09,-2382.1 684.09,-2373.54"/>
<polygon fill="black" stroke="black" points="687.59,-2373.54 684.09,-2363.54 680.59,-2373.54 687.59,-2373.54"/>
</g>
<!-- j873137284 -->
<g id="node16" class="node">
<title>j873137284</title>
<polygon fill="none" stroke="blue" points="1066.09,-2289 302.09,-2289 302.09,-2253 1066.09,-2253 1066.09,-2289"/>
<text text-anchor="middle" x="684.09" y="-2267.3" font-family="Times New Roman,serif" font-size="14.00">ale mogę zająć się dzieciakami w okolicy, eleanor opowiada im historie, aoi daje im zabawki &#45; a sprinterek robi dla nich małe gadżety...</text>
</g>
<!-- j1595378551&#45;&gt;j873137284 -->
<g id="edge18" class="edge">
<title>j1595378551&#45;&gt;j873137284</title>
<path fill="none" stroke="black" d="M684.09,-2325.81C684.09,-2318.23 684.09,-2309.1 684.09,-2300.54"/>
<polygon fill="black" stroke="black" points="687.59,-2300.54 684.09,-2290.54 680.59,-2300.54 687.59,-2300.54"/>
</g>
<!-- j1712328287 -->
<g id="node17" class="node">
<title>j1712328287</title>
<polygon fill="none" stroke="blue" points="923.59,-2216 444.59,-2216 444.59,-2180 923.59,-2180 923.59,-2216"/>
<text text-anchor="middle" x="684.09" y="-2194.3" font-family="Times New Roman,serif" font-size="14.00">nawet jaśniepan wygląda na szczęśliwego po raz pierwszy od... może kiedykolwiek</text>
</g>
<!-- j873137284&#45;&gt;j1712328287 -->
<g id="edge19" class="edge">
<title>j873137284&#45;&gt;j1712328287</title>
<path fill="none" stroke="black" d="M684.09,-2252.81C684.09,-2245.23 684.09,-2236.1 684.09,-2227.54"/>
<polygon fill="black" stroke="black" points="687.59,-2227.54 684.09,-2217.54 680.59,-2227.54 687.59,-2227.54"/>
</g>
<!-- j2416946567 -->
<g id="node18" class="node">
<title>j2416946567</title>
<polygon fill="none" stroke="blue" points="1076.59,-2143 291.59,-2143 291.59,-2107 1076.59,-2107 1076.59,-2143"/>
<text text-anchor="middle" x="684.09" y="-2121.3" font-family="Times New Roman,serif" font-size="14.00">zdałem sobie sprawę, że gdybym nie wyszedł z nim tamtego dnia z namiotu i nie poszedł za nim tutaj, nigdy nie miałbym tego wszystkiego</text>
</g>
<!-- j1712328287&#45;&gt;j2416946567 -->
<g id="edge20" class="edge">
<title>j1712328287&#45;&gt;j2416946567</title>
<path fill="none" stroke="black" d="M684.09,-2179.81C684.09,-2172.23 684.09,-2163.1 684.09,-2154.54"/>
<polygon fill="black" stroke="black" points="687.59,-2154.54 684.09,-2144.54 680.59,-2154.54 687.59,-2154.54"/>
</g>
<!-- j196809900 -->
<g id="node19" class="node">
<title>j196809900</title>
<polygon fill="none" stroke="blue" points="723.09,-2070 645.09,-2070 645.09,-2034 723.09,-2034 723.09,-2070"/>
<text text-anchor="middle" x="684.09" y="-2048.3" font-family="Times New Roman,serif" font-size="14.00">tą... miłość</text>
</g>
<!-- j2416946567&#45;&gt;j196809900 -->
<g id="edge21" class="edge">
<title>j2416946567&#45;&gt;j196809900</title>
<path fill="none" stroke="black" d="M684.09,-2106.81C684.09,-2099.23 684.09,-2090.1 684.09,-2081.54"/>
<polygon fill="black" stroke="black" points="687.59,-2081.54 684.09,-2071.54 680.59,-2081.54 687.59,-2081.54"/>
</g>
<!-- j3631770602 -->
<g id="node20" class="node">
<title>j3631770602</title>
<polygon fill="none" stroke="blue" points="755.09,-1997 613.09,-1997 613.09,-1961 755.09,-1961 755.09,-1997"/>
<text text-anchor="middle" x="684.09" y="-1975.3" font-family="Times New Roman,serif" font-size="14.00">to właśnie to, prawda?</text>
</g>
<!-- j196809900&#45;&gt;j3631770602 -->
<g id="edge22" class="edge">
<title>j196809900&#45;&gt;j3631770602</title>
<path fill="none" stroke="black" d="M684.09,-2033.81C684.09,-2026.23 684.09,-2017.1 684.09,-2008.54"/>
<polygon fill="black" stroke="black" points="687.59,-2008.54 684.09,-1998.54 680.59,-2008.54 687.59,-2008.54"/>
</g>
<!-- j2836095180 -->
<g id="node21" class="node">
<title>j2836095180</title>
<polygon fill="none" stroke="blue" points="711.09,-1924 657.09,-1924 657.09,-1888 711.09,-1888 711.09,-1924"/>
<text text-anchor="middle" x="684.09" y="-1902.3" font-family="Times New Roman,serif" font-size="14.00">miłość</text>
</g>
<!-- j3631770602&#45;&gt;j2836095180 -->
<g id="edge23" class="edge">
<title>j3631770602&#45;&gt;j2836095180</title>
<path fill="none" stroke="black" d="M684.09,-1960.81C684.09,-1953.23 684.09,-1944.1 684.09,-1935.54"/>
<polygon fill="black" stroke="black" points="687.59,-1935.54 684.09,-1925.54 680.59,-1935.54 687.59,-1935.54"/>
</g>
<!-- j2330697047 -->
<g id="node22" class="node">
<title>j2330697047</title>
<polygon fill="none" stroke="blue" points="1151.59,-1851 216.59,-1851 216.59,-1815 1151.59,-1815 1151.59,-1851"/>
<text text-anchor="middle" x="684.09" y="-1829.3" font-family="Times New Roman,serif" font-size="14.00">więc ja, yyy.. chciałem ci tylko powiedzieć, że... powiedziałem arturowi, że mi przykro. za traktowanie go jak gówna. i że byłem po prostu bardzo zły i przestraszony</text>
</g>
<!-- j2836095180&#45;&gt;j2330697047 -->
<g id="edge24" class="edge">
<title>j2836095180&#45;&gt;j2330697047</title>
<path fill="none" stroke="black" d="M684.09,-1887.81C684.09,-1880.23 684.09,-1871.1 684.09,-1862.54"/>
<polygon fill="black" stroke="black" points="687.59,-1862.54 684.09,-1852.54 680.59,-1862.54 687.59,-1862.54"/>
</g>
<!-- j2870098293 -->
<g id="node23" class="node">
<title>j2870098293</title>
<polygon fill="none" stroke="blue" points="1128.09,-1778 240.09,-1778 240.09,-1742 1128.09,-1742 1128.09,-1778"/>
<text text-anchor="middle" x="684.09" y="-1756.3" font-family="Times New Roman,serif" font-size="14.00">i wiedziałem, że on zawsze starał się robić to, co słuszne dla mnie i dla wszystkich innych. cały czas to szanowałem, nawet jeśli nie wiedziałem, jak to okazać</text>
</g>
<!-- j2330697047&#45;&gt;j2870098293 -->
<g id="edge25" class="edge">
<title>j2330697047&#45;&gt;j2870098293</title>
<path fill="none" stroke="black" d="M684.09,-1814.81C684.09,-1807.23 684.09,-1798.1 684.09,-1789.54"/>
<polygon fill="black" stroke="black" points="687.59,-1789.54 684.09,-1779.54 680.59,-1789.54 687.59,-1789.54"/>
</g>
<!-- j1114934717 -->
<g id="node24" class="node">
<title>j1114934717</title>
<polygon fill="none" stroke="blue" points="1128.09,-1705 240.09,-1705 240.09,-1669 1128.09,-1669 1128.09,-1705"/>
<text text-anchor="middle" x="684.09" y="-1683.3" font-family="Times New Roman,serif" font-size="14.00">artur i ja nie jesteśmy z tych, co się lubią przytulać, chłopie. nigdy nie zobaczysz, jak się obejmujemy. ale uścisnęliśmy sobie dłonie. i uśmiechnął się do mnie</text>
</g>
<!-- j2870098293&#45;&gt;j1114934717 -->
<g id="edge26" class="edge">
<title>j2870098293&#45;&gt;j1114934717</title>
<path fill="none" stroke="black" d="M684.09,-1741.81C684.09,-1734.23 684.09,-1725.1 684.09,-1716.54"/>
<polygon fill="black" stroke="black" points="687.59,-1716.54 684.09,-1706.54 680.59,-1716.54 687.59,-1716.54"/>
</g>
<!-- j2254470950 -->
<g id="node25" class="node">
<title>j2254470950</title>
<polygon fill="none" stroke="blue" points="793.59,-1632 574.59,-1632 574.59,-1596 793.59,-1596 793.59,-1632"/>
<text text-anchor="middle" x="684.09" y="-1610.3" font-family="Times New Roman,serif" font-size="14.00">i ja się uśmiechnąłem i powiedziałem</text>
</g>
<!-- j1114934717&#45;&gt;j2254470950 -->
<g id="edge27" class="edge">
<title>j1114934717&#45;&gt;j2254470950</title>
<path fill="none" stroke="black" d="M684.09,-1668.81C684.09,-1661.23 684.09,-1652.1 684.09,-1643.54"/>
<polygon fill="black" stroke="black" points="687.59,-1643.54 684.09,-1633.54 680.59,-1643.54 687.59,-1643.54"/>
</g>
<!-- j1598694856 -->
<g id="node26" class="node">
<title>j1598694856</title>
<ellipse fill="none" stroke="orange" cx="684.09" cy="-1541" rx="122.38" ry="18"/>
<text text-anchor="middle" x="684.09" y="-1537.3" font-family="Times New Roman,serif" font-size="14.00">Check boolean QuincyArthur2</text>
</g>
<!-- j2254470950&#45;&gt;j1598694856 -->
<g id="edge28" class="edge">
<title>j2254470950&#45;&gt;j1598694856</title>
<path fill="none" stroke="black" d="M684.09,-1595.81C684.09,-1588.23 684.09,-1579.1 684.09,-1570.54"/>
<polygon fill="black" stroke="black" points="687.59,-1570.54 684.09,-1560.54 680.59,-1570.54 687.59,-1570.54"/>
</g>
<!-- j1101019028 -->
<g id="node27" class="node">
<title>j1101019028</title>
<polygon fill="none" stroke="blue" points="666.09,-1472 520.09,-1472 520.09,-1436 666.09,-1436 666.09,-1472"/>
<text text-anchor="middle" x="593.09" y="-1450.3" font-family="Times New Roman,serif" font-size="14.00">&quot;nadal zabijasz nastrój&quot;</text>
</g>
<!-- j1598694856&#45;&gt;j1101019028 -->
<g id="edge29" class="edge">
<title>j1598694856&#45;&gt;j1101019028</title>
<path fill="none" stroke="green" d="M665.67,-1522.8C652.56,-1510.55 634.73,-1493.9 620.03,-1480.16"/>
<polygon fill="green" stroke="green" points="622.59,-1477.77 612.9,-1473.5 617.81,-1482.88 622.59,-1477.77"/>
<text text-anchor="middle" x="655.09" y="-1493.8" font-family="Times New Roman,serif" font-size="14.00">true</text>
</g>
<!-- j682098377 -->
<g id="node28" class="node">
<title>j682098377</title>
<polygon fill="none" stroke="blue" points="813.59,-1472 684.59,-1472 684.59,-1436 813.59,-1436 813.59,-1472"/>
<text text-anchor="middle" x="749.09" y="-1450.3" font-family="Times New Roman,serif" font-size="14.00">&quot;nadal jesteś osłem&quot;</text>
</g>
<!-- j1598694856&#45;&gt;j682098377 -->
<g id="edge30" class="edge">
<title>j1598694856&#45;&gt;j682098377</title>
<path fill="none" stroke="brown" d="M697.24,-1522.8C706.34,-1510.9 718.63,-1494.83 728.96,-1481.32"/>
<polygon fill="brown" stroke="brown" points="731.52,-1483.74 734.81,-1473.67 725.96,-1479.49 731.52,-1483.74"/>
<text text-anchor="middle" x="733.09" y="-1493.8" font-family="Times New Roman,serif" font-size="14.00">false</text>
</g>
<!-- j1453178972 -->
<g id="node29" class="node">
<title>j1453178972</title>
<polygon fill="none" stroke="blue" points="668.59,-1399 609.59,-1399 609.59,-1363 668.59,-1363 668.59,-1399"/>
<text text-anchor="middle" x="639.09" y="-1377.3" font-family="Times New Roman,serif" font-size="14.00">lmaooo</text>
</g>
<!-- j1101019028&#45;&gt;j1453178972 -->
<g id="edge31" class="edge">
<title>j1101019028&#45;&gt;j1453178972</title>
<path fill="none" stroke="black" d="M604.22,-1435.81C609.54,-1427.62 616.01,-1417.62 621.93,-1408.48"/>
<polygon fill="black" stroke="black" points="624.73,-1410.59 627.23,-1400.3 618.86,-1406.79 624.73,-1410.59"/>
</g>
<!-- j682098377&#45;&gt;j1453178972 -->
<g id="edge32" class="edge">
<title>j682098377&#45;&gt;j1453178972</title>
<path fill="none" stroke="black" d="M722.18,-1435.63C708.2,-1426.61 690.9,-1415.44 675.72,-1405.64"/>
<polygon fill="black" stroke="black" points="677.67,-1402.74 667.37,-1400.26 673.88,-1408.62 677.67,-1402.74"/>
</g>
<!-- j348979441 -->
<g id="node30" class="node">
<title>j348979441</title>
<polygon fill="none" stroke="red" points="564.09,-1326 454.09,-1326 454.09,-1290 564.09,-1290 564.09,-1326"/>
<text text-anchor="middle" x="509.09" y="-1304.3" font-family="Times New Roman,serif" font-size="14.00">Och, Quincy. lol</text>
</g>
<!-- j1453178972&#45;&gt;j348979441 -->
<g id="edge33" class="edge">
<title>j1453178972&#45;&gt;j348979441</title>
<path fill="none" stroke="black" d="M609.26,-1363.71C591.98,-1354.27 569.95,-1342.24 550.95,-1331.86"/>
<polygon fill="black" stroke="black" points="552.83,-1328.9 542.37,-1327.18 549.47,-1335.04 552.83,-1328.9"/>
</g>
<!-- j110863392 -->
<g id="node31" class="node">
<title>j110863392</title>
<polygon fill="none" stroke="red" points="797.59,-1326 582.59,-1326 582.59,-1290 797.59,-1290 797.59,-1326"/>
<text text-anchor="middle" x="690.09" y="-1304.3" font-family="Times New Roman,serif" font-size="14.00">Jestem pewien, że był zachwycony.</text>
</g>
<!-- j1453178972&#45;&gt;j110863392 -->
<g id="edge34" class="edge">
<title>j1453178972&#45;&gt;j110863392</title>
<path fill="none" stroke="black" d="M651.43,-1362.81C657.39,-1354.53 664.65,-1344.41 671.27,-1335.19"/>
<polygon fill="black" stroke="black" points="673.98,-1337.42 676.97,-1327.26 668.3,-1333.34 673.98,-1337.42"/>
</g>
<!-- j911587875 -->
<g id="node32" class="node">
<title>j911587875</title>
<polygon fill="none" stroke="blue" points="779.59,-1253 340.59,-1253 340.59,-1217 779.59,-1217 779.59,-1253"/>
<text text-anchor="middle" x="560.09" y="-1231.3" font-family="Times New Roman,serif" font-size="14.00">zaśmiał się! w końcu zrozumiał, że takie jest moje poczucie humoru, co nie?</text>
</g>
<!-- j348979441&#45;&gt;j911587875 -->
<g id="edge35" class="edge">
<title>j348979441&#45;&gt;j911587875</title>
<path fill="none" stroke="black" d="M521.43,-1289.81C527.39,-1281.53 534.65,-1271.41 541.27,-1262.19"/>
<polygon fill="black" stroke="black" points="543.98,-1264.42 546.97,-1254.26 538.3,-1260.34 543.98,-1264.42"/>
</g>
<!-- j110863392&#45;&gt;j911587875 -->
<g id="edge36" class="edge">
<title>j110863392&#45;&gt;j911587875</title>
<path fill="none" stroke="black" d="M658.29,-1289.63C641.37,-1280.39 620.35,-1268.91 602.1,-1258.95"/>
<polygon fill="black" stroke="black" points="603.8,-1255.88 593.34,-1254.16 600.44,-1262.03 603.8,-1255.88"/>
</g>
<!-- j2972352514 -->
<g id="node33" class="node">
<title>j2972352514</title>
<polygon fill="none" stroke="blue" points="675.09,-1180 445.09,-1180 445.09,-1144 675.09,-1144 675.09,-1180"/>
<text text-anchor="middle" x="560.09" y="-1158.3" font-family="Times New Roman,serif" font-size="14.00">poklepał mnie po ramieniu i poszliśmy</text>
</g>
<!-- j911587875&#45;&gt;j2972352514 -->
<g id="edge37" class="edge">
<title>j911587875&#45;&gt;j2972352514</title>
<path fill="none" stroke="black" d="M560.09,-1216.81C560.09,-1209.23 560.09,-1200.1 560.09,-1191.54"/>
<polygon fill="black" stroke="black" points="563.59,-1191.54 560.09,-1181.54 556.59,-1191.54 563.59,-1191.54"/>
</g>
<!-- j3812327587 -->
<g id="node34" class="node">
<title>j3812327587</title>
<polygon fill="none" stroke="blue" points="749.09,-1107 371.09,-1107 371.09,-1071 749.09,-1071 749.09,-1107"/>
<text text-anchor="middle" x="560.09" y="-1085.3" font-family="Times New Roman,serif" font-size="14.00">i... to było przyjemne. naprawdę przyjemne. wisi już to nade mną</text>
</g>
<!-- j2972352514&#45;&gt;j3812327587 -->
<g id="edge38" class="edge">
<title>j2972352514&#45;&gt;j3812327587</title>
<path fill="none" stroke="black" d="M560.09,-1143.81C560.09,-1136.23 560.09,-1127.1 560.09,-1118.54"/>
<polygon fill="black" stroke="black" points="563.59,-1118.54 560.09,-1108.54 556.59,-1118.54 563.59,-1118.54"/>
</g>
<!-- j1077605756 -->
<g id="node35" class="node">
<title>j1077605756</title>
<polygon fill="none" stroke="blue" points="640.59,-1034 479.59,-1034 479.59,-998 640.59,-998 640.59,-1034"/>
<text text-anchor="middle" x="560.09" y="-1012.3" font-family="Times New Roman,serif" font-size="14.00">i to wszystko przez ciebie</text>
</g>
<!-- j3812327587&#45;&gt;j1077605756 -->
<g id="edge39" class="edge">
<title>j3812327587&#45;&gt;j1077605756</title>
<path fill="none" stroke="black" d="M560.09,-1070.81C560.09,-1063.23 560.09,-1054.1 560.09,-1045.54"/>
<polygon fill="black" stroke="black" points="563.59,-1045.54 560.09,-1035.54 556.59,-1045.54 563.59,-1045.54"/>
</g>
<!-- j2532970724 -->
<g id="node36" class="node">
<title>j2532970724</title>
<ellipse fill="none" stroke="orange" cx="560.09" cy="-943" rx="117.78" ry="18"/>
<text text-anchor="middle" x="560.09" y="-939.3" font-family="Times New Roman,serif" font-size="14.00">Check boolean QuincyDating</text>
</g>
<!-- j1077605756&#45;&gt;j2532970724 -->
<g id="edge40" class="edge">
<title>j1077605756&#45;&gt;j2532970724</title>
<path fill="none" stroke="black" d="M560.09,-997.81C560.09,-990.23 560.09,-981.1 560.09,-972.54"/>
<polygon fill="black" stroke="black" points="563.59,-972.54 560.09,-962.54 556.59,-972.54 563.59,-972.54"/>
</g>
<!-- j152548070 -->
<g id="node37" class="node">
<title>j152548070</title>
<polygon fill="none" stroke="blue" points="1109.59,-874 686.59,-874 686.59,-838 1109.59,-838 1109.59,-874"/>
<text text-anchor="middle" x="898.09" y="-852.3" font-family="Times New Roman,serif" font-size="14.00">no więc, kochany? ja tylko... chciałem powiedzieć... dzięki. i wiesz... no?</text>
</g>
<!-- j2532970724&#45;&gt;j152548070 -->
<g id="edge41" class="edge">
<title>j2532970724&#45;&gt;j152548070</title>
<path fill="none" stroke="green" d="M619.35,-927.1C674.34,-913.27 756.63,-892.57 817.56,-877.25"/>
<polygon fill="green" stroke="green" points="818.36,-880.66 827.2,-874.83 816.65,-873.87 818.36,-880.66"/>
<text text-anchor="middle" x="760.09" y="-895.8" font-family="Times New Roman,serif" font-size="14.00">true</text>
</g>
<!-- j1723850841 -->
<g id="node38" class="node">
<title>j1723850841</title>
<polygon fill="none" stroke="blue" points="668.09,-874 212.09,-874 212.09,-838 668.09,-838 668.09,-874"/>
<text text-anchor="middle" x="440.09" y="-852.3" font-family="Times New Roman,serif" font-size="14.00">więc, brachu? chciałem tylko powiedzieć... masz we mnie kumpla na całe życie</text>
</g>
<!-- j2532970724&#45;&gt;j1723850841 -->
<g id="edge42" class="edge">
<title>j2532970724&#45;&gt;j1723850841</title>
<path fill="none" stroke="brown" d="M536.09,-925C518.22,-912.35 493.6,-894.9 473.76,-880.85"/>
<polygon fill="brown" stroke="brown" points="475.87,-878.06 465.69,-875.13 471.83,-883.77 475.87,-878.06"/>
<text text-anchor="middle" x="521.09" y="-895.8" font-family="Times New Roman,serif" font-size="14.00">false</text>
</g>
<!-- j2973015288 -->
<g id="node39" class="node">
<title>j2973015288</title>
<polygon fill="none" stroke="blue" points="938.09,-801 858.09,-801 858.09,-765 938.09,-765 938.09,-801"/>
<text text-anchor="middle" x="898.09" y="-779.3" font-family="Times New Roman,serif" font-size="14.00">kocham cię</text>
</g>
<!-- j152548070&#45;&gt;j2973015288 -->
<g id="edge43" class="edge">
<title>j152548070&#45;&gt;j2973015288</title>
<path fill="none" stroke="black" d="M898.09,-837.81C898.09,-830.23 898.09,-821.1 898.09,-812.54"/>
<polygon fill="black" stroke="black" points="901.59,-812.54 898.09,-802.54 894.59,-812.54 901.59,-812.54"/>
</g>
<!-- j641931615 -->
<g id="node40" class="node">
<title>j641931615</title>
<polygon fill="none" stroke="blue" points="755.09,-747 125.09,-747 125.09,-711 755.09,-711 755.09,-747"/>
<text text-anchor="middle" x="440.09" y="-725.3" font-family="Times New Roman,serif" font-size="14.00">nie jesteśmy tylko najlepszymi przyjaciółmi, jesteśmy rodziną. dzięki za to, że tu jesteś. za wszystko, co robisz</text>
</g>
<!-- j1723850841&#45;&gt;j641931615 -->
<g id="edge44" class="edge">
<title>j1723850841&#45;&gt;j641931615</title>
<path fill="none" stroke="black" d="M440.09,-837.62C440.09,-817.19 440.09,-782.99 440.09,-758.62"/>
<polygon fill="black" stroke="black" points="443.59,-758.75 440.09,-748.75 436.59,-758.75 443.59,-758.75"/>
</g>
<!-- j2397270656 -->
<g id="node41" class="node">
<title>j2397270656</title>
<polygon fill="none" stroke="red" points="735.59,-693 550.59,-693 550.59,-657 735.59,-657 735.59,-693"/>
<text text-anchor="middle" x="643.09" y="-671.3" font-family="Times New Roman,serif" font-size="14.00">Ja też cię kocham, Quincy. &lt;3</text>
</g>
<!-- j2973015288&#45;&gt;j2397270656 -->
<g id="edge45" class="edge">
<title>j2973015288&#45;&gt;j2397270656</title>
<path fill="none" stroke="black" d="M869.38,-764.56C842.8,-748.96 801.8,-726.25 764.09,-711 751.21,-705.79 737.28,-701.01 723.6,-696.77"/>
<polygon fill="black" stroke="black" points="724.74,-693.46 714.16,-693.92 722.72,-700.16 724.74,-693.46"/>
</g>
<!-- j1102140764 -->
<g id="node42" class="node">
<title>j1102140764</title>
<polygon fill="none" stroke="red" points="1194.09,-693 826.09,-693 826.09,-657 1194.09,-657 1194.09,-693"/>
<text text-anchor="middle" x="1010.09" y="-671.3" font-family="Times New Roman,serif" font-size="14.00">Ja... przepraszam, ale nie jestem gotowy na takie zobowiązanie.</text>
</g>
<!-- j2973015288&#45;&gt;j1102140764 -->
<g id="edge46" class="edge">
<title>j2973015288&#45;&gt;j1102140764</title>
<path fill="none" stroke="black" d="M916.08,-764.97C934.34,-747.69 962.81,-720.74 983.64,-701.03"/>
<polygon fill="black" stroke="black" points="985.81,-703.8 990.67,-694.38 981,-698.71 985.81,-703.8"/>
</g>
<!-- j272226112 -->
<g id="node43" class="node">
<title>j272226112</title>
<polygon fill="none" stroke="blue" points="643.59,-401 570.59,-401 570.59,-365 643.59,-365 643.59,-401"/>
<text text-anchor="middle" x="607.09" y="-379.3" font-family="Times New Roman,serif" font-size="14.00">wiszę ci ;)</text>
</g>
<!-- j641931615&#45;&gt;j272226112 -->
<g id="edge47" class="edge">
<title>j641931615&#45;&gt;j272226112</title>
<path fill="none" stroke="black" d="M356.16,-710.57C293.29,-695.01 218.09,-669.94 218.09,-639 218.09,-639 218.09,-639 218.09,-455 218.09,-420.75 454.47,-396.75 558.7,-387.84"/>
<polygon fill="black" stroke="black" points="558.96,-391.33 568.63,-387 558.38,-384.35 558.96,-391.33"/>
</g>
<!-- j2737149734 -->
<g id="node44" class="node">
<title>j2737149734</title>
<polygon fill="none" stroke="blue" points="968.09,-620 246.09,-620 246.09,-584 968.09,-584 968.09,-620"/>
<text text-anchor="middle" x="607.09" y="-598.3" font-family="Times New Roman,serif" font-size="14.00">ze wszystkich czasów i miejsc, ze wszystkich ludzi... ja nigdy bym o tym nie wyśnił. ale nie zamieniłbym tego na nic na świecie</text>
</g>
<!-- j2397270656&#45;&gt;j2737149734 -->
<g id="edge48" class="edge">
<title>j2397270656&#45;&gt;j2737149734</title>
<path fill="none" stroke="black" d="M634.37,-656.81C630.31,-648.79 625.37,-639.05 620.81,-630.07"/>
<polygon fill="black" stroke="black" points="624.05,-628.71 616.41,-621.38 617.81,-631.88 624.05,-628.71"/>
</g>
<!-- j1820254275 -->
<g id="node45" class="node">
<title>j1820254275</title>
<polygon fill="none" stroke="blue" points="1230.09,-620 986.09,-620 986.09,-584 1230.09,-584 1230.09,-620"/>
<text text-anchor="middle" x="1108.09" y="-598.3" font-family="Times New Roman,serif" font-size="14.00">po prostu idź i zgnieć moje jaja drzwiami</text>
</g>
<!-- j1102140764&#45;&gt;j1820254275 -->
<g id="edge49" class="edge">
<title>j1102140764&#45;&gt;j1820254275</title>
<path fill="none" stroke="black" d="M1034.06,-656.63C1046.4,-647.69 1061.63,-636.66 1075.07,-626.92"/>
<polygon fill="black" stroke="black" points="1076.75,-630.02 1082.8,-621.32 1072.65,-624.36 1076.75,-630.02"/>
</g>
<!-- j272226112&#45;&gt;Chat ends. -->
<g id="edge50" class="edge">
<title>j272226112&#45;&gt;Chat ends.</title>
<path fill="none" stroke="black" d="M607.47,-364.78C607.75,-350.41 608.09,-329.37 608.09,-311 608.09,-311 608.09,-311 608.09,-90 608.09,-44.28 662.88,-27.73 708.74,-21.88"/>
<polygon fill="black" stroke="black" points="709.1,-25.36 718.66,-20.78 708.33,-18.4 709.1,-25.36"/>
</g>
<!-- j4181377222 -->
<g id="node46" class="node">
<title>j4181377222</title>
<polygon fill="none" stroke="blue" points="673.59,-547 540.59,-547 540.59,-511 673.59,-511 673.59,-547"/>
<text text-anchor="middle" x="607.09" y="-525.3" font-family="Times New Roman,serif" font-size="14.00">czy za przyszłość lol</text>
</g>
<!-- j2737149734&#45;&gt;j4181377222 -->
<g id="edge51" class="edge">
<title>j2737149734&#45;&gt;j4181377222</title>
<path fill="none" stroke="black" d="M607.09,-583.81C607.09,-576.23 607.09,-567.1 607.09,-558.54"/>
<polygon fill="black" stroke="black" points="610.59,-558.54 607.09,-548.54 603.59,-558.54 610.59,-558.54"/>
</g>
<!-- j771993472 -->
<g id="node47" class="node">
<title>j771993472</title>
<polygon fill="none" stroke="blue" points="1145.59,-547 1056.59,-547 1056.59,-511 1145.59,-511 1145.59,-547"/>
<text text-anchor="middle" x="1101.09" y="-525.3" font-family="Times New Roman,serif" font-size="14.00">krwa, serio?!</text>
</g>
<!-- j1820254275&#45;&gt;j771993472 -->
<g id="edge52" class="edge">
<title>j1820254275&#45;&gt;j771993472</title>
<path fill="none" stroke="black" d="M1106.39,-583.81C1105.64,-576.14 1104.73,-566.89 1103.87,-558.24"/>
<polygon fill="black" stroke="black" points="1107.38,-558.14 1102.92,-548.54 1100.41,-558.83 1107.38,-558.14"/>
</g>
<!-- j773316781 -->
<g id="node48" class="node">
<title>j773316781</title>
<polygon fill="none" stroke="blue" points="792.59,-474 421.59,-474 421.59,-438 792.59,-438 792.59,-474"/>
<text text-anchor="middle" x="607.09" y="-452.3" font-family="Times New Roman,serif" font-size="14.00">więc... dzięki, kochany. za to, że jesteś i za wszystko, co robisz</text>
</g>
<!-- j4181377222&#45;&gt;j773316781 -->
<g id="edge53" class="edge">
<title>j4181377222&#45;&gt;j773316781</title>
<path fill="none" stroke="black" d="M607.09,-510.81C607.09,-503.23 607.09,-494.1 607.09,-485.54"/>
<polygon fill="black" stroke="black" points="610.59,-485.54 607.09,-475.54 603.59,-485.54 610.59,-485.54"/>
</g>
<!-- j1013604591 -->
<g id="node49" class="node">
<title>j1013604591</title>
<polygon fill="none" stroke="blue" points="1087.59,-474 936.59,-474 936.59,-438 1087.59,-438 1087.59,-474"/>
<text text-anchor="middle" x="1012.09" y="-452.3" font-family="Times New Roman,serif" font-size="14.00">PO WSZYSTKIM CO&#45;</text>
</g>
<!-- j771993472&#45;&gt;j1013604591 -->
<g id="edge54" class="edge">
<title>j771993472&#45;&gt;j1013604591</title>
<path fill="none" stroke="black" d="M1079.54,-510.81C1068.48,-501.98 1054.8,-491.07 1042.66,-481.39"/>
<polygon fill="black" stroke="black" points="1044.93,-478.72 1034.93,-475.22 1040.56,-484.19 1044.93,-478.72"/>
</g>
<!-- j773316781&#45;&gt;j272226112 -->
<g id="edge55" class="edge">
<title>j773316781&#45;&gt;j272226112</title>
<path fill="none" stroke="black" d="M607.09,-437.81C607.09,-430.23 607.09,-421.1 607.09,-412.54"/>
<polygon fill="black" stroke="black" points="610.59,-412.54 607.09,-402.54 603.59,-412.54 610.59,-412.54"/>
</g>
<!-- j3173244552 -->
<g id="node50" class="node">
<title>j3173244552</title>
<polygon fill="none" stroke="blue" points="1114.09,-401 818.09,-401 818.09,-365 1114.09,-365 1114.09,-401"/>
<text text-anchor="middle" x="966.09" y="-379.3" font-family="Times New Roman,serif" font-size="14.00">wiesz co, nieważne. nieważne nieważne, jest super</text>
</g>
<!-- j1013604591&#45;&gt;j3173244552 -->
<g id="edge56" class="edge">
<title>j1013604591&#45;&gt;j3173244552</title>
<path fill="none" stroke="black" d="M1000.95,-437.81C995.64,-429.62 989.17,-419.62 983.25,-410.48"/>
<polygon fill="black" stroke="black" points="986.32,-408.79 977.94,-402.3 980.44,-412.59 986.32,-408.79"/>
</g>
<!-- j1633482539 -->
<g id="node51" class="node">
<title>j1633482539</title>
<polygon fill="none" stroke="blue" points="1228.59,-328 637.59,-328 637.59,-292 1228.59,-292 1228.59,-328"/>
<text text-anchor="middle" x="933.09" y="-306.3" font-family="Times New Roman,serif" font-size="14.00">ale to jest dokładnie ten rodzaj dziadostwa, o którym mówiłem przez cały czas. więcej się nie odzywam</text>
</g>
<!-- j3173244552&#45;&gt;j1633482539 -->
<g id="edge57" class="edge">
<title>j3173244552&#45;&gt;j1633482539</title>
<path fill="none" stroke="black" d="M958.1,-364.81C954.41,-356.88 949.94,-347.26 945.81,-338.36"/>
<polygon fill="black" stroke="black" points="949.03,-336.99 941.64,-329.4 942.68,-339.94 949.03,-336.99"/>
</g>
<!-- j2319655028 -->
<g id="node52" class="node">
<title>j2319655028</title>
<ellipse fill="none" stroke="orange" cx="911.09" cy="-237" rx="141.88" ry="18"/>
<text text-anchor="middle" x="911.09" y="-233.3" font-family="Times New Roman,serif" font-size="14.00">Boolean QuincyNoDate is now true.</text>
</g>
<!-- j1633482539&#45;&gt;j2319655028 -->
<g id="edge58" class="edge">
<title>j1633482539&#45;&gt;j2319655028</title>
<path fill="none" stroke="black" d="M927.76,-291.81C925.36,-284.05 922.45,-274.68 919.75,-265.95"/>
<polygon fill="black" stroke="black" points="923.12,-264.99 916.81,-256.47 916.43,-267.06 923.12,-264.99"/>
</g>
<!-- j1884175600 -->
<g id="node53" class="node">
<title>j1884175600</title>
<ellipse fill="none" stroke="orange" cx="830.09" cy="-164" rx="140.28" ry="18"/>
<text text-anchor="middle" x="830.09" y="-160.3" font-family="Times New Roman,serif" font-size="14.00">Boolean QuincyDating is now false.</text>
</g>
<!-- j2319655028&#45;&gt;j1884175600 -->
<g id="edge59" class="edge">
<title>j2319655028&#45;&gt;j1884175600</title>
<path fill="none" stroke="black" d="M891.48,-218.81C881.51,-210.07 869.2,-199.28 858.24,-189.67"/>
<polygon fill="black" stroke="black" points="860.76,-187.23 850.94,-183.27 856.15,-192.5 860.76,-187.23"/>
</g>
<!-- j1242024027 -->
<g id="node54" class="node">
<title>j1242024027</title>
<ellipse fill="none" stroke="orange" cx="783.09" cy="-91" rx="120.78" ry="18"/>
<text text-anchor="middle" x="783.09" y="-87.3" font-family="Times New Roman,serif" font-size="14.00">Boolean IsDating is now false.</text>
</g>
<!-- j1884175600&#45;&gt;j1242024027 -->
<g id="edge60" class="edge">
<title>j1884175600&#45;&gt;j1242024027</title>
<path fill="none" stroke="black" d="M818.71,-145.81C813.28,-137.62 806.67,-127.62 800.62,-118.48"/>
<polygon fill="black" stroke="black" points="803.64,-116.7 795.2,-110.29 797.8,-120.56 803.64,-116.7"/>
</g>
<!-- j1242024027&#45;&gt;Chat ends. -->
<g id="edge61" class="edge">
<title>j1242024027&#45;&gt;Chat ends.</title>
<path fill="none" stroke="black" d="M779.94,-72.81C778.54,-65.14 776.84,-55.89 775.26,-47.24"/>
<polygon fill="black" stroke="black" points="778.72,-46.72 773.48,-37.52 771.84,-47.98 778.72,-46.72"/>
</g>
</g>
</svg>
