<?xml version="1.0" encoding="UTF-8" standalone="no"?>
<!DOCTYPE svg PUBLIC "-//W3C//DTD SVG 1.1//EN"
 "http://www.w3.org/Graphics/SVG/1.1/DTD/svg11.dtd">
<!-- Generated by graphviz version 7.1.0 (20230121.1956)
 -->
<!-- Pages: 1 -->
<svg width="2733pt" height="1484pt"
 viewBox="0.00 0.00 2732.50 1484.00" xmlns="http://www.w3.org/2000/svg" xmlns:xlink="http://www.w3.org/1999/xlink">
<g id="graph0" class="graph" transform="scale(1 1) rotate(0) translate(4 1480)">
<polygon fill="white" stroke="none" points="-4,4 -4,-1480 2728.5,-1480 2728.5,4 -4,4"/>
<!-- EleanorRank4Convo6 begins. -->
<g id="node1" class="node">
<title>EleanorRank4Convo6 begins.</title>
<ellipse fill="none" stroke="orange" cx="1774.5" cy="-1458" rx="118.88" ry="18"/>
<text text-anchor="middle" x="1774.5" y="-1454.3" font-family="Times New Roman,serif" font-size="14.00">EleanorRank4Convo6 begins.</text>
</g>
<!-- j910666458 -->
<g id="node2" class="node">
<title>j910666458</title>
<polygon fill="none" stroke="red" points="1730,-1404 1543,-1404 1543,-1368 1730,-1368 1730,-1404"/>
<text text-anchor="middle" x="1636.5" y="-1382.3" font-family="Times New Roman,serif" font-size="14.00">所以……為什麼是水晶？</text>
</g>
<!-- EleanorRank4Convo6 begins.&#45;&gt;j910666458 -->
<g id="edge1" class="edge">
<title>EleanorRank4Convo6 begins.&#45;&gt;j910666458</title>
<path fill="none" stroke="black" d="M1741.45,-1440.23C1723.33,-1431.04 1700.63,-1419.53 1680.98,-1409.56"/>
<polygon fill="black" stroke="black" points="1682.58,-1406.45 1672.08,-1405.05 1679.41,-1412.69 1682.58,-1406.45"/>
</g>
<!-- j1769191637 -->
<g id="node3" class="node">
<title>j1769191637</title>
<polygon fill="none" stroke="red" points="2310,-1404 1981,-1404 1981,-1368 2310,-1368 2310,-1404"/>
<text text-anchor="middle" x="2145.5" y="-1382.3" font-family="Times New Roman,serif" font-size="14.00">所以。你跟崑西。你們有沒有……你知道的？</text>
</g>
<!-- EleanorRank4Convo6 begins.&#45;&gt;j1769191637 -->
<g id="edge2" class="edge">
<title>EleanorRank4Convo6 begins.&#45;&gt;j1769191637</title>
<path fill="none" stroke="black" d="M1846.91,-1443.34C1902.41,-1432.87 1979.76,-1418.27 2041.82,-1406.56"/>
<polygon fill="black" stroke="black" points="2042.16,-1410.06 2051.34,-1404.77 2040.86,-1403.18 2042.16,-1410.06"/>
</g>
<!-- j315823977 -->
<g id="node4" class="node">
<title>j315823977</title>
<polygon fill="none" stroke="blue" points="2163,-1332 178,-1332 178,-1296 2163,-1296 2163,-1332"/>
<text text-anchor="middle" x="1170.5" y="-1310.3" font-family="Times New Roman,serif" font-size="14.00">噢，我一直很愛他們。在我小時候，我爸爸帶我們去了拉德斯頓的創新博物館，我跟亞瑟都得到了這些水晶生長套裝。亞瑟的水晶長很很糟糕，簡直就像一塊凹凸不平的小石頭糞便。它被丟進了垃圾桶。我的則是一粒美麗的藍色鑽石。從那天起，不知何故，我就感覺水晶支持我一樣。</text>
</g>
<!-- j910666458&#45;&gt;j315823977 -->
<g id="edge3" class="edge">
<title>j910666458&#45;&gt;j315823977</title>
<path fill="none" stroke="black" d="M1542.76,-1370.92C1472.46,-1360.36 1375.45,-1345.79 1298.09,-1334.17"/>
<polygon fill="black" stroke="black" points="1298.73,-1330.72 1288.32,-1332.7 1297.69,-1337.64 1298.73,-1330.72"/>
</g>
<!-- j3762113126 -->
<g id="node5" class="node">
<title>j3762113126</title>
<polygon fill="none" stroke="blue" points="2576,-1332 2181,-1332 2181,-1296 2576,-1296 2576,-1332"/>
<text text-anchor="middle" x="2378.5" y="-1310.3" font-family="Times New Roman,serif" font-size="14.00">好，我今天感覺很大方，所以我免費贈你這個資訊吧。</text>
</g>
<!-- j1769191637&#45;&gt;j3762113126 -->
<g id="edge4" class="edge">
<title>j1769191637&#45;&gt;j3762113126</title>
<path fill="none" stroke="black" d="M2203.69,-1367.52C2235.93,-1357.83 2276.18,-1345.74 2309.93,-1335.6"/>
<polygon fill="black" stroke="black" points="2310.62,-1339.05 2319.19,-1332.82 2308.61,-1332.34 2310.62,-1339.05"/>
</g>
<!-- j2652725691 -->
<g id="node6" class="node">
<title>j2652725691</title>
<polygon fill="none" stroke="red" points="1268.5,-1260 1078.5,-1260 1078.5,-1224 1268.5,-1224 1268.5,-1260"/>
<text text-anchor="middle" x="1173.5" y="-1238.3" font-family="Times New Roman,serif" font-size="14.00">那麼它們只是裝飾品嗎？</text>
</g>
<!-- j315823977&#45;&gt;j2652725691 -->
<g id="edge5" class="edge">
<title>j315823977&#45;&gt;j2652725691</title>
<path fill="none" stroke="black" d="M1171.24,-1295.7C1171.55,-1288.41 1171.93,-1279.73 1172.28,-1271.54"/>
<polygon fill="black" stroke="black" points="1175.77,-1271.76 1172.7,-1261.62 1168.78,-1271.46 1175.77,-1271.76"/>
</g>
<!-- j2712271356 -->
<g id="node7" class="node">
<title>j2712271356</title>
<polygon fill="none" stroke="blue" points="2512,-1260 2243,-1260 2243,-1224 2512,-1224 2512,-1260"/>
<text text-anchor="middle" x="2377.5" y="-1238.3" font-family="Times New Roman,serif" font-size="14.00">我們從來沒有。我們一點點都沒有。</text>
</g>
<!-- j3762113126&#45;&gt;j2712271356 -->
<g id="edge6" class="edge">
<title>j3762113126&#45;&gt;j2712271356</title>
<path fill="none" stroke="black" d="M2378.25,-1295.7C2378.15,-1288.41 2378.02,-1279.73 2377.91,-1271.54"/>
<polygon fill="black" stroke="black" points="2381.41,-1271.57 2377.77,-1261.62 2374.41,-1271.67 2381.41,-1271.57"/>
</g>
<!-- j1348325743 -->
<g id="node8" class="node">
<title>j1348325743</title>
<polygon fill="none" stroke="blue" points="1220.5,-1188 1140.5,-1188 1140.5,-1152 1220.5,-1152 1220.5,-1188"/>
<text text-anchor="middle" x="1180.5" y="-1166.3" font-family="Times New Roman,serif" font-size="14.00">啊。不。</text>
</g>
<!-- j2652725691&#45;&gt;j1348325743 -->
<g id="edge7" class="edge">
<title>j2652725691&#45;&gt;j1348325743</title>
<path fill="none" stroke="black" d="M1175.23,-1223.7C1175.96,-1216.41 1176.83,-1207.73 1177.65,-1199.54"/>
<polygon fill="black" stroke="black" points="1181.13,-1199.91 1178.64,-1189.61 1174.16,-1199.21 1181.13,-1199.91"/>
</g>
<!-- j1618290823 -->
<g id="node9" class="node">
<title>j1618290823</title>
<polygon fill="none" stroke="blue" points="2724.5,-1188 2030.5,-1188 2030.5,-1152 2724.5,-1152 2724.5,-1188"/>
<text text-anchor="middle" x="2377.5" y="-1166.3" font-family="Times New Roman,serif" font-size="14.00">我不禁想到崑西最喜歡的體位是「伴侶在上面拿著鏡子，這樣他就可以想像他正在跟自己做愛」。</text>
</g>
<!-- j2712271356&#45;&gt;j1618290823 -->
<g id="edge8" class="edge">
<title>j2712271356&#45;&gt;j1618290823</title>
<path fill="none" stroke="black" d="M2377.5,-1223.7C2377.5,-1216.41 2377.5,-1207.73 2377.5,-1199.54"/>
<polygon fill="black" stroke="black" points="2381,-1199.62 2377.5,-1189.62 2374,-1199.62 2381,-1199.62"/>
</g>
<!-- j40405840 -->
<g id="node10" class="node">
<title>j40405840</title>
<polygon fill="none" stroke="blue" points="1541.5,-1116 847.5,-1116 847.5,-1080 1541.5,-1080 1541.5,-1116"/>
<text text-anchor="middle" x="1194.5" y="-1094.3" font-family="Times New Roman,serif" font-size="14.00">我知道有很多關於水晶的各種胡言。我不相信。我不相信它們淨化了我的光環或點亮了我的脈輪。</text>
</g>
<!-- j1348325743&#45;&gt;j40405840 -->
<g id="edge9" class="edge">
<title>j1348325743&#45;&gt;j40405840</title>
<path fill="none" stroke="black" d="M1183.96,-1151.7C1185.44,-1144.32 1187.2,-1135.52 1188.85,-1127.25"/>
<polygon fill="black" stroke="black" points="1192.25,-1128.08 1190.78,-1117.59 1185.39,-1126.71 1192.25,-1128.08"/>
</g>
<!-- j2438029581 -->
<g id="node11" class="node">
<title>j2438029581</title>
<polygon fill="none" stroke="blue" points="2477.5,-1044 2271.5,-1044 2271.5,-1008 2477.5,-1008 2477.5,-1044"/>
<text text-anchor="middle" x="2374.5" y="-1022.3" font-family="Times New Roman,serif" font-size="14.00">不謝謝。我遠觀欣賞就好。</text>
</g>
<!-- j1618290823&#45;&gt;j2438029581 -->
<g id="edge10" class="edge">
<title>j1618290823&#45;&gt;j2438029581</title>
<path fill="none" stroke="black" d="M2377.13,-1151.59C2376.63,-1127.61 2375.71,-1084.14 2375.1,-1055.42"/>
<polygon fill="black" stroke="black" points="2378.6,-1055.55 2374.89,-1045.62 2371.61,-1055.7 2378.6,-1055.55"/>
</g>
<!-- j1965381763 -->
<g id="node12" class="node">
<title>j1965381763</title>
<polygon fill="none" stroke="blue" points="1301.5,-1044 1143.5,-1044 1143.5,-1008 1301.5,-1008 1301.5,-1044"/>
<text text-anchor="middle" x="1222.5" y="-1022.3" font-family="Times New Roman,serif" font-size="14.00">不過它們的確存在。</text>
</g>
<!-- j40405840&#45;&gt;j1965381763 -->
<g id="edge11" class="edge">
<title>j40405840&#45;&gt;j1965381763</title>
<path fill="none" stroke="black" d="M1201.42,-1079.7C1204.44,-1072.15 1208.05,-1063.12 1211.43,-1054.68"/>
<polygon fill="black" stroke="black" points="1214.63,-1056.09 1215.1,-1045.51 1208.13,-1053.49 1214.63,-1056.09"/>
</g>
<!-- Chat ends. -->
<g id="node13" class="node">
<title>Chat ends.</title>
<ellipse fill="none" stroke="orange" cx="1970.5" cy="-18" rx="50.09" ry="18"/>
<text text-anchor="middle" x="1970.5" y="-14.3" font-family="Times New Roman,serif" font-size="14.00">Chat ends.</text>
</g>
<!-- j2438029581&#45;&gt;Chat ends. -->
<g id="edge12" class="edge">
<title>j2438029581&#45;&gt;Chat ends.</title>
<path fill="none" stroke="black" d="M2374.5,-1007.51C2374.5,-980.71 2374.5,-927.87 2374.5,-883 2374.5,-883 2374.5,-883 2374.5,-161 2374.5,-88.48 2139.86,-44.02 2028.22,-26.97"/>
<polygon fill="black" stroke="black" points="2028.75,-23.51 2018.34,-25.49 2027.71,-30.44 2028.75,-23.51"/>
</g>
<!-- j1876592574 -->
<g id="node14" class="node">
<title>j1876592574</title>
<polygon fill="none" stroke="blue" points="1476,-972 1081,-972 1081,-936 1476,-936 1476,-972"/>
<text text-anchor="middle" x="1278.5" y="-950.3" font-family="Times New Roman,serif" font-size="14.00">對不起。我知道我聽起來就像是一個徹徹底底的傻瓜。</text>
</g>
<!-- j1965381763&#45;&gt;j1876592574 -->
<g id="edge13" class="edge">
<title>j1965381763&#45;&gt;j1876592574</title>
<path fill="none" stroke="black" d="M1236.34,-1007.7C1242.79,-999.64 1250.58,-989.89 1257.71,-980.98"/>
<polygon fill="black" stroke="black" points="1260.36,-983.28 1263.87,-973.29 1254.89,-978.91 1260.36,-983.28"/>
</g>
<!-- j3540573452 -->
<g id="node15" class="node">
<title>j3540573452</title>
<polygon fill="none" stroke="red" points="2322.5,-900 1896.5,-900 1896.5,-864 2322.5,-864 2322.5,-900"/>
<text text-anchor="middle" x="2109.5" y="-878.3" font-family="Times New Roman,serif" font-size="14.00">我很高興是你這樣說而不是我。它們只不過是漂亮的石頭。</text>
</g>
<!-- j1876592574&#45;&gt;j3540573452 -->
<g id="edge14" class="edge">
<title>j1876592574&#45;&gt;j3540573452</title>
<path fill="none" stroke="black" d="M1476.49,-936.32C1601.15,-925.82 1762.2,-912.26 1890.65,-901.44"/>
<polygon fill="black" stroke="black" points="1890.62,-904.95 1900.29,-900.62 1890.03,-897.97 1890.62,-904.95"/>
</g>
<!-- j1350801112 -->
<g id="node16" class="node">
<title>j1350801112</title>
<polygon fill="none" stroke="red" points="883,-900 0,-900 0,-864 883,-864 883,-900"/>
<text text-anchor="middle" x="441.5" y="-878.3" font-family="Times New Roman,serif" font-size="14.00">我有一些朋友是中樞。它們實際上就是以玻璃立方體形態呈現的智興。你為什麼覺得我會嘲笑你所認為水晶確實存在的看法？</text>
</g>
<!-- j1876592574&#45;&gt;j1350801112 -->
<g id="edge15" class="edge">
<title>j1876592574&#45;&gt;j1350801112</title>
<path fill="none" stroke="black" d="M1080.67,-936.46C954.92,-925.94 791.93,-912.31 662.01,-901.44"/>
<polygon fill="black" stroke="black" points="662.5,-897.97 652.25,-900.63 661.92,-904.95 662.5,-897.97"/>
</g>
<!-- j3705248098 -->
<g id="node17" class="node">
<title>j3705248098</title>
<polygon fill="none" stroke="red" points="1878,-900 901,-900 901,-864 1878,-864 1878,-900"/>
<text text-anchor="middle" x="1389.5" y="-878.3" font-family="Times New Roman,serif" font-size="14.00">我花了這麼多時間從地下挖掘出水晶，它們不可能沒有更深層次的意義。你會很驚訝發現有多少 Warframe 是部分由一種或多種水晶製成的。</text>
</g>
<!-- j1876592574&#45;&gt;j3705248098 -->
<g id="edge16" class="edge">
<title>j1876592574&#45;&gt;j3705248098</title>
<path fill="none" stroke="black" d="M1306.22,-935.52C1320.24,-926.68 1337.43,-915.84 1352.55,-906.3"/>
<polygon fill="black" stroke="black" points="1354.26,-909.36 1360.85,-901.07 1350.52,-903.44 1354.26,-909.36"/>
</g>
<!-- j3393130888 -->
<g id="node18" class="node">
<title>j3393130888</title>
<polygon fill="none" stroke="blue" points="2204.5,-828 2014.5,-828 2014.5,-792 2204.5,-792 2204.5,-828"/>
<text text-anchor="middle" x="2109.5" y="-806.3" font-family="Times New Roman,serif" font-size="14.00">噢你有時真是讓人抓狂。</text>
</g>
<!-- j3540573452&#45;&gt;j3393130888 -->
<g id="edge17" class="edge">
<title>j3540573452&#45;&gt;j3393130888</title>
<path fill="none" stroke="black" d="M2109.5,-863.7C2109.5,-856.41 2109.5,-847.73 2109.5,-839.54"/>
<polygon fill="black" stroke="black" points="2113,-839.62 2109.5,-829.62 2106,-839.62 2113,-839.62"/>
</g>
<!-- j4161416047 -->
<g id="node19" class="node">
<title>j4161416047</title>
<polygon fill="none" stroke="blue" points="651.5,-828 335.5,-828 335.5,-792 651.5,-792 651.5,-828"/>
<text text-anchor="middle" x="493.5" y="-806.3" font-family="Times New Roman,serif" font-size="14.00">那，現在我因為覺得自己很蠢而感到愚蠢。</text>
</g>
<!-- j1350801112&#45;&gt;j4161416047 -->
<g id="edge18" class="edge">
<title>j1350801112&#45;&gt;j4161416047</title>
<path fill="none" stroke="black" d="M454.35,-863.7C460.27,-855.73 467.43,-846.1 473.99,-837.26"/>
<polygon fill="black" stroke="black" points="476.74,-839.43 479.89,-829.32 471.12,-835.26 476.74,-839.43"/>
</g>
<!-- j725832359 -->
<g id="node20" class="node">
<title>j725832359</title>
<polygon fill="none" stroke="blue" points="1468.5,-828 1310.5,-828 1310.5,-792 1468.5,-792 1468.5,-828"/>
<text text-anchor="middle" x="1389.5" y="-806.3" font-family="Times New Roman,serif" font-size="14.00">覺得又驚訝既有趣！</text>
</g>
<!-- j3705248098&#45;&gt;j725832359 -->
<g id="edge19" class="edge">
<title>j3705248098&#45;&gt;j725832359</title>
<path fill="none" stroke="black" d="M1389.5,-863.7C1389.5,-856.41 1389.5,-847.73 1389.5,-839.54"/>
<polygon fill="black" stroke="black" points="1393,-839.62 1389.5,-829.62 1386,-839.62 1393,-839.62"/>
</g>
<!-- j1963213239 -->
<g id="node21" class="node">
<title>j1963213239</title>
<polygon fill="none" stroke="blue" points="2346,-756 1873,-756 1873,-720 2346,-720 2346,-756"/>
<text text-anchor="middle" x="2109.5" y="-734.3" font-family="Times New Roman,serif" font-size="14.00">我還以為你，在全部人當中，會有這個視野能超越純粹物質之上。</text>
</g>
<!-- j3393130888&#45;&gt;j1963213239 -->
<g id="edge20" class="edge">
<title>j3393130888&#45;&gt;j1963213239</title>
<path fill="none" stroke="black" d="M2109.5,-791.7C2109.5,-784.41 2109.5,-775.73 2109.5,-767.54"/>
<polygon fill="black" stroke="black" points="2113,-767.62 2109.5,-757.62 2106,-767.62 2113,-767.62"/>
</g>
<!-- j3645093196 -->
<g id="node22" class="node">
<title>j3645093196</title>
<polygon fill="none" stroke="blue" points="710.5,-756 410.5,-756 410.5,-720 710.5,-720 710.5,-756"/>
<text text-anchor="middle" x="560.5" y="-734.3" font-family="Times New Roman,serif" font-size="14.00">我期待你會擁有一些我夢寐以求的水晶。</text>
</g>
<!-- j4161416047&#45;&gt;j3645093196 -->
<g id="edge21" class="edge">
<title>j4161416047&#45;&gt;j3645093196</title>
<path fill="none" stroke="black" d="M510.06,-791.7C517.93,-783.47 527.49,-773.48 536.17,-764.42"/>
<polygon fill="black" stroke="black" points="538.7,-766.84 543.08,-757.2 533.64,-762 538.7,-766.84"/>
</g>
<!-- j2332094307 -->
<g id="node23" class="node">
<title>j2332094307</title>
<polygon fill="none" stroke="blue" points="1563,-756 1216,-756 1216,-720 1563,-720 1563,-756"/>
<text text-anchor="middle" x="1389.5" y="-734.3" font-family="Times New Roman,serif" font-size="14.00">告訴我，有智慧的旅行者，你那個時代的水晶。</text>
</g>
<!-- j725832359&#45;&gt;j2332094307 -->
<g id="edge22" class="edge">
<title>j725832359&#45;&gt;j2332094307</title>
<path fill="none" stroke="black" d="M1389.5,-791.7C1389.5,-784.41 1389.5,-775.73 1389.5,-767.54"/>
<polygon fill="black" stroke="black" points="1393,-767.62 1389.5,-757.62 1386,-767.62 1393,-767.62"/>
</g>
<!-- j2068296313 -->
<g id="node24" class="node">
<title>j2068296313</title>
<polygon fill="none" stroke="blue" points="2251.5,-324 1967.5,-324 1967.5,-288 2251.5,-288 2251.5,-324"/>
<text text-anchor="middle" x="2109.5" y="-302.3" font-family="Times New Roman,serif" font-size="14.00">你去吧你。讓我跟我漂亮的石頭一起。</text>
</g>
<!-- j1963213239&#45;&gt;j2068296313 -->
<g id="edge23" class="edge">
<title>j1963213239&#45;&gt;j2068296313</title>
<path fill="none" stroke="black" d="M2109.5,-719.51C2109.5,-692.71 2109.5,-639.87 2109.5,-595 2109.5,-595 2109.5,-595 2109.5,-449 2109.5,-409.74 2109.5,-364.38 2109.5,-335.69"/>
<polygon fill="black" stroke="black" points="2113,-336 2109.5,-326 2106,-336 2113,-336"/>
</g>
<!-- j4010367002 -->
<g id="node25" class="node">
<title>j4010367002</title>
<polygon fill="none" stroke="red" points="1194.5,-684 752.5,-684 752.5,-648 1194.5,-648 1194.5,-684"/>
<text text-anchor="middle" x="973.5" y="-662.3" font-family="Times New Roman,serif" font-size="14.00">氬晶。你只能在虛空中找到它，一旦挖掘出土它便立刻分解。</text>
</g>
<!-- j3645093196&#45;&gt;j4010367002 -->
<g id="edge24" class="edge">
<title>j3645093196&#45;&gt;j4010367002</title>
<path fill="none" stroke="black" d="M663.65,-719.52C723.14,-709.43 798.05,-696.74 859.32,-686.35"/>
<polygon fill="black" stroke="black" points="859.82,-689.82 869.1,-684.7 858.65,-682.92 859.82,-689.82"/>
</g>
<!-- j1250958088 -->
<g id="node26" class="node">
<title>j1250958088</title>
<polygon fill="none" stroke="red" points="1540.5,-684 1238.5,-684 1238.5,-648 1540.5,-648 1540.5,-684"/>
<text text-anchor="middle" x="1389.5" y="-662.3" font-family="Times New Roman,serif" font-size="14.00">有一整個由水晶製成的 Warframe。Citrine。</text>
</g>
<!-- j3645093196&#45;&gt;j1250958088 -->
<g id="edge25" class="edge">
<title>j3645093196&#45;&gt;j1250958088</title>
<path fill="none" stroke="black" d="M710.92,-724.98C841.25,-714.48 1034.86,-698.66 1203.5,-684 1211.04,-683.34 1218.76,-682.67 1226.55,-681.98"/>
<polygon fill="black" stroke="black" points="1226.85,-685.46 1236.5,-681.09 1226.23,-678.49 1226.85,-685.46"/>
</g>
<!-- j1934899467 -->
<g id="node27" class="node">
<title>j1934899467</title>
<polygon fill="none" stroke="red" points="708,-684 339,-684 339,-648 708,-648 708,-684"/>
<text text-anchor="middle" x="523.5" y="-662.3" font-family="Times New Roman,serif" font-size="14.00">We have a pair of doomed lovers who were turned into crystal.</text>
</g>
<!-- j3645093196&#45;&gt;j1934899467 -->
<g id="edge26" class="edge">
<title>j3645093196&#45;&gt;j1934899467</title>
<path fill="none" stroke="black" d="M551.35,-719.7C547.28,-711.98 542.38,-702.71 537.83,-694.11"/>
<polygon fill="black" stroke="black" points="541.02,-692.65 533.25,-685.44 534.83,-695.92 541.02,-692.65"/>
</g>
<!-- j2332094307&#45;&gt;j1250958088 -->
<g id="edge27" class="edge">
<title>j2332094307&#45;&gt;j1250958088</title>
<path fill="none" stroke="black" d="M1389.5,-719.7C1389.5,-712.41 1389.5,-703.73 1389.5,-695.54"/>
<polygon fill="black" stroke="black" points="1393,-695.62 1389.5,-685.62 1386,-695.62 1393,-695.62"/>
</g>
<!-- j2068296313&#45;&gt;Chat ends. -->
<g id="edge28" class="edge">
<title>j2068296313&#45;&gt;Chat ends.</title>
<path fill="none" stroke="black" d="M2107.57,-287.77C2105.12,-269.47 2100.02,-239.93 2090.5,-216 2064.27,-150.08 2016.87,-81.05 1990.17,-44.78"/>
<polygon fill="black" stroke="black" points="1993.22,-43.02 1984.44,-37.09 1987.6,-47.2 1993.22,-43.02"/>
</g>
<!-- j2523079313 -->
<g id="node28" class="node">
<title>j2523079313</title>
<polygon fill="none" stroke="blue" points="1487,-612 588,-612 588,-576 1487,-576 1487,-612"/>
<text text-anchor="middle" x="1037.5" y="-590.3" font-family="Times New Roman,serif" font-size="14.00">你說「你只能在虛空中找到它」，好像人們可以隨便進出虛空一樣。我還以為這是一個令人瘋狂的維度，而不是海濱度假勝地。</text>
</g>
<!-- j4010367002&#45;&gt;j2523079313 -->
<g id="edge29" class="edge">
<title>j4010367002&#45;&gt;j2523079313</title>
<path fill="none" stroke="black" d="M989.32,-647.7C996.84,-639.47 1005.97,-629.48 1014.26,-620.42"/>
<polygon fill="black" stroke="black" points="1016.68,-622.96 1020.84,-613.22 1011.51,-618.24 1016.68,-622.96"/>
</g>
<!-- j1822122170 -->
<g id="node29" class="node">
<title>j1822122170</title>
<ellipse fill="none" stroke="orange" cx="1649.5" cy="-594" rx="64.19" ry="18"/>
<text text-anchor="middle" x="1649.5" y="-590.3" font-family="Times New Roman,serif" font-size="14.00">+10 Chemistry</text>
</g>
<!-- j1250958088&#45;&gt;j1822122170 -->
<g id="edge30" class="edge">
<title>j1250958088&#45;&gt;j1822122170</title>
<path fill="none" stroke="black" d="M1454.44,-647.52C1497.2,-636 1552.61,-621.09 1593.44,-610.09"/>
<polygon fill="black" stroke="black" points="1594.34,-613.48 1603.08,-607.5 1592.52,-606.72 1594.34,-613.48"/>
</g>
<!-- j458257690 -->
<g id="node30" class="node">
<title>j458257690</title>
<ellipse fill="none" stroke="orange" cx="461.5" cy="-594" rx="64.19" ry="18"/>
<text text-anchor="middle" x="461.5" y="-590.3" font-family="Times New Roman,serif" font-size="14.00">+10 Chemistry</text>
</g>
<!-- j1934899467&#45;&gt;j458257690 -->
<g id="edge31" class="edge">
<title>j1934899467&#45;&gt;j458257690</title>
<path fill="none" stroke="black" d="M508.17,-647.7C500.78,-639.35 491.78,-629.18 483.66,-620.02"/>
<polygon fill="black" stroke="black" points="486.48,-617.92 477.23,-612.76 481.24,-622.56 486.48,-617.92"/>
</g>
<!-- j3567298219 -->
<g id="node31" class="node">
<title>j3567298219</title>
<polygon fill="none" stroke="red" points="1462.5,-540 686.5,-540 686.5,-504 1462.5,-504 1462.5,-540"/>
<text text-anchor="middle" x="1074.5" y="-518.3" font-family="Times New Roman,serif" font-size="14.00">我想我還沒告訴過你關於 Orokin 堡壘的事。它們就像虛空中的大本營，是為了防止 Sentient 試圖攻擊而建立的。</text>
</g>
<!-- j2523079313&#45;&gt;j3567298219 -->
<g id="edge32" class="edge">
<title>j2523079313&#45;&gt;j3567298219</title>
<path fill="none" stroke="black" d="M1046.65,-575.7C1050.72,-567.98 1055.62,-558.71 1060.17,-550.11"/>
<polygon fill="black" stroke="black" points="1063.17,-551.92 1064.75,-541.44 1056.98,-548.65 1063.17,-551.92"/>
</g>
<!-- j1147026952 -->
<g id="node32" class="node">
<title>j1147026952</title>
<polygon fill="none" stroke="blue" points="1903,-540 1556,-540 1556,-504 1903,-504 1903,-540"/>
<text text-anchor="middle" x="1729.5" y="-518.3" font-family="Times New Roman,serif" font-size="14.00">那是她的名字？我想我在你的腦海裡看到了她！</text>
</g>
<!-- j1822122170&#45;&gt;j1147026952 -->
<g id="edge33" class="edge">
<title>j1822122170&#45;&gt;j1147026952</title>
<path fill="none" stroke="black" d="M1668.46,-576.41C1678.23,-567.86 1690.34,-557.26 1701.2,-547.77"/>
<polygon fill="black" stroke="black" points="1703.2,-550.66 1708.42,-541.44 1698.59,-545.39 1703.2,-550.66"/>
</g>
<!-- j2460478663 -->
<g id="node33" class="node">
<title>j2460478663</title>
<polygon fill="none" stroke="blue" points="632,-540 253,-540 253,-504 632,-504 632,-540"/>
<text text-anchor="middle" x="442.5" y="-518.3" font-family="Times New Roman,serif" font-size="14.00">多美麗又悲傷。成為愛情的紀念碑，會是什麼感覺？</text>
</g>
<!-- j458257690&#45;&gt;j2460478663 -->
<g id="edge34" class="edge">
<title>j458257690&#45;&gt;j2460478663</title>
<path fill="none" stroke="black" d="M456.8,-575.7C454.78,-568.24 452.36,-559.32 450.09,-550.97"/>
<polygon fill="black" stroke="black" points="453.54,-550.3 447.54,-541.57 446.78,-552.13 453.54,-550.3"/>
</g>
<!-- j598614541 -->
<g id="node34" class="node">
<title>j598614541</title>
<ellipse fill="none" stroke="orange" cx="1145.5" cy="-450" rx="64.19" ry="18"/>
<text text-anchor="middle" x="1145.5" y="-446.3" font-family="Times New Roman,serif" font-size="14.00">+20 Chemistry</text>
</g>
<!-- j3567298219&#45;&gt;j598614541 -->
<g id="edge35" class="edge">
<title>j3567298219&#45;&gt;j598614541</title>
<path fill="none" stroke="black" d="M1092.05,-503.7C1100.69,-495.18 1111.25,-484.76 1120.7,-475.45"/>
<polygon fill="black" stroke="black" points="1122.9,-478.2 1127.56,-468.68 1117.98,-473.21 1122.9,-478.2"/>
</g>
<!-- j4210853669 -->
<g id="node35" class="node">
<title>j4210853669</title>
<polygon fill="none" stroke="blue" points="2043.5,-468 1491.5,-468 1491.5,-432 2043.5,-432 2043.5,-468"/>
<text text-anchor="middle" x="1767.5" y="-446.3" font-family="Times New Roman,serif" font-size="14.00">那位漂亮的晶洞女士。我想她跟我現在有親戚關係了。一個令人心安的想法。</text>
</g>
<!-- j1147026952&#45;&gt;j4210853669 -->
<g id="edge36" class="edge">
<title>j1147026952&#45;&gt;j4210853669</title>
<path fill="none" stroke="black" d="M1738.89,-503.7C1743.08,-495.98 1748.11,-486.71 1752.78,-478.11"/>
<polygon fill="black" stroke="black" points="1755.8,-479.89 1757.49,-469.43 1749.65,-476.55 1755.8,-479.89"/>
</g>
<!-- j3322569917 -->
<g id="node36" class="node">
<title>j3322569917</title>
<polygon fill="none" stroke="blue" points="686,-468 181,-468 181,-432 686,-432 686,-468"/>
<text text-anchor="middle" x="433.5" y="-446.3" font-family="Times New Roman,serif" font-size="14.00">我希望沒有人把它們削成碎片當做紀念品。這肯定會發生在我的時代。</text>
</g>
<!-- j2460478663&#45;&gt;j3322569917 -->
<g id="edge37" class="edge">
<title>j2460478663&#45;&gt;j3322569917</title>
<path fill="none" stroke="black" d="M440.28,-503.7C439.33,-496.32 438.2,-487.52 437.13,-479.25"/>
<polygon fill="black" stroke="black" points="440.64,-479.08 435.89,-469.61 433.7,-479.97 440.64,-479.08"/>
</g>
<!-- j2423775443 -->
<g id="node37" class="node">
<title>j2423775443</title>
<polygon fill="none" stroke="blue" points="1906.5,-396 456.5,-396 456.5,-360 1906.5,-360 1906.5,-396"/>
<text text-anchor="middle" x="1181.5" y="-374.3" font-family="Times New Roman,serif" font-size="14.00">這個聽起來可熟悉了。拉德斯頓跟曼庫尼亞地下有這些高度安全的地堡。這個想法是，如果發生輻射戰爭，有錢人跟權貴就會躲在他們的豪華避難所裡喝著含羞草雞尾酒，而我們其他人則在上面被燒成灰燼。</text>
</g>
<!-- j598614541&#45;&gt;j2423775443 -->
<g id="edge38" class="edge">
<title>j598614541&#45;&gt;j2423775443</title>
<path fill="none" stroke="black" d="M1154.4,-431.7C1158.37,-423.98 1163.13,-414.71 1167.56,-406.11"/>
<polygon fill="black" stroke="black" points="1170.55,-407.94 1172.01,-397.45 1164.33,-404.74 1170.55,-407.94"/>
</g>
<!-- j4155552780 -->
<g id="node38" class="node">
<title>j4155552780</title>
<polygon fill="none" stroke="red" points="2081,-252 1860,-252 1860,-216 2081,-216 2081,-252"/>
<text text-anchor="middle" x="1970.5" y="-230.3" font-family="Times New Roman,serif" font-size="14.00">歡迎加入這個大家庭，我想？</text>
</g>
<!-- j4210853669&#45;&gt;j4155552780 -->
<g id="edge39" class="edge">
<title>j4210853669&#45;&gt;j4155552780</title>
<path fill="none" stroke="black" d="M1855.98,-431.63C1877.69,-423.78 1899.31,-412.43 1915.5,-396 1934.28,-376.95 1954.01,-304.26 1963.96,-263.37"/>
<polygon fill="black" stroke="black" points="1967.34,-264.29 1966.25,-253.75 1960.53,-262.66 1967.34,-264.29"/>
</g>
<!-- j4169988488 -->
<g id="node39" class="node">
<title>j4169988488</title>
<polygon fill="none" stroke="red" points="749,-180 244,-180 244,-144 749,-144 749,-180"/>
<text text-anchor="middle" x="496.5" y="-158.3" font-family="Times New Roman,serif" font-size="14.00">那些人的確會試，但我們會確保他們的安全。這是起碼我們能夠做的。</text>
</g>
<!-- j3322569917&#45;&gt;j4169988488 -->
<g id="edge40" class="edge">
<title>j3322569917&#45;&gt;j4169988488</title>
<path fill="none" stroke="black" d="M435.79,-431.52C438.25,-413.52 442.5,-384.68 447.5,-360 459.8,-299.27 478.32,-229.04 488.71,-191"/>
<polygon fill="black" stroke="black" points="491.98,-192.31 491.26,-181.74 485.23,-190.45 491.98,-192.31"/>
</g>
<!-- j1963742348 -->
<g id="node40" class="node">
<title>j1963742348</title>
<polygon fill="none" stroke="blue" points="1307,-324 1054,-324 1054,-288 1307,-288 1307,-324"/>
<text text-anchor="middle" x="1180.5" y="-302.3" font-family="Times New Roman,serif" font-size="14.00">一樣的舊情節，她嘆了口氣說道。</text>
</g>
<!-- j2423775443&#45;&gt;j1963742348 -->
<g id="edge41" class="edge">
<title>j2423775443&#45;&gt;j1963742348</title>
<path fill="none" stroke="black" d="M1181.25,-359.7C1181.15,-352.41 1181.02,-343.73 1180.91,-335.54"/>
<polygon fill="black" stroke="black" points="1184.41,-335.57 1180.77,-325.62 1177.41,-335.67 1184.41,-335.57"/>
</g>
<!-- j4155552780&#45;&gt;Chat ends. -->
<g id="edge42" class="edge">
<title>j4155552780&#45;&gt;Chat ends.</title>
<path fill="none" stroke="black" d="M1970.5,-215.85C1970.5,-179.14 1970.5,-92.66 1970.5,-47.53"/>
<polygon fill="black" stroke="black" points="1974,-47.75 1970.5,-37.75 1967,-47.75 1974,-47.75"/>
</g>
<!-- j4169988488&#45;&gt;Chat ends. -->
<g id="edge43" class="edge">
<title>j4169988488&#45;&gt;Chat ends.</title>
<path fill="none" stroke="black" d="M542.44,-143.55C600.6,-122.35 704.35,-87.51 796.5,-72 1013.59,-35.46 1698.89,-22.86 1908.79,-19.81"/>
<polygon fill="black" stroke="black" points="1908.72,-23.31 1918.66,-19.67 1908.62,-16.31 1908.72,-23.31"/>
</g>
<!-- j3695435810 -->
<g id="node41" class="node">
<title>j3695435810</title>
<polygon fill="none" stroke="blue" points="1841.5,-252 517.5,-252 517.5,-216 1841.5,-216 1841.5,-252"/>
<text text-anchor="middle" x="1179.5" y="-230.3" font-family="Times New Roman,serif" font-size="14.00">很有趣。在我成長的過程中每個人都非常害怕輻射戰爭。我記得以前有公共服務廣播。關於如何儲存物資，如何準備避難室，以及即使你不想埋葬死去的親人也要如何埋葬這些沉重的建議。</text>
</g>
<!-- j1963742348&#45;&gt;j3695435810 -->
<g id="edge44" class="edge">
<title>j1963742348&#45;&gt;j3695435810</title>
<path fill="none" stroke="black" d="M1180.25,-287.7C1180.15,-280.41 1180.02,-271.73 1179.91,-263.54"/>
<polygon fill="black" stroke="black" points="1183.41,-263.57 1179.77,-253.62 1176.41,-263.67 1183.41,-263.57"/>
</g>
<!-- j3449232939 -->
<g id="node42" class="node">
<title>j3449232939</title>
<polygon fill="none" stroke="blue" points="1702.5,-180 772.5,-180 772.5,-144 1702.5,-144 1702.5,-180"/>
<text text-anchor="middle" x="1237.5" y="-158.3" font-family="Times New Roman,serif" font-size="14.00">當我看到反應爐在你腦海中爆炸時，我立刻回想起所有那些惡夢。我知道我們必須阻止它，無論付出什麼代價。我會令別人相信你。</text>
</g>
<!-- j3695435810&#45;&gt;j3449232939 -->
<g id="edge45" class="edge">
<title>j3695435810&#45;&gt;j3449232939</title>
<path fill="none" stroke="black" d="M1193.84,-215.7C1200.58,-207.56 1208.76,-197.69 1216.2,-188.7"/>
<polygon fill="black" stroke="black" points="1218.68,-191.2 1222.36,-181.27 1213.29,-186.74 1218.68,-191.2"/>
</g>
<!-- j3463694155 -->
<g id="node43" class="node">
<title>j3463694155</title>
<polygon fill="none" stroke="blue" points="1831,-108 806,-108 806,-72 1831,-72 1831,-108"/>
<text text-anchor="middle" x="1318.5" y="-86.3" font-family="Times New Roman,serif" font-size="14.00">不過，等待這個星球的不是一場輻射戰爭，不是嗎？是科腐者。無論如何，這個循環將會自行散播而當發生時，世界其餘所有地方都會受到感染。</text>
</g>
<!-- j3449232939&#45;&gt;j3463694155 -->
<g id="edge46" class="edge">
<title>j3449232939&#45;&gt;j3463694155</title>
<path fill="none" stroke="black" d="M1257.52,-143.7C1267.26,-135.28 1279.14,-125.02 1289.81,-115.79"/>
<polygon fill="black" stroke="black" points="1292,-118.52 1297.28,-109.34 1287.43,-113.23 1292,-118.52"/>
</g>
<!-- j3463694155&#45;&gt;Chat ends. -->
<g id="edge47" class="edge">
<title>j3463694155&#45;&gt;Chat ends.</title>
<path fill="none" stroke="black" d="M1481.35,-71.52C1621.43,-56.48 1815.67,-35.62 1911.79,-25.3"/>
<polygon fill="black" stroke="black" points="1911.94,-28.81 1921.51,-24.26 1911.19,-21.85 1911.94,-28.81"/>
</g>
</g>
</svg>
