<?xml version="1.0" encoding="UTF-8" standalone="no"?>
<!DOCTYPE svg PUBLIC "-//W3C//DTD SVG 1.1//EN"
 "http://www.w3.org/Graphics/SVG/1.1/DTD/svg11.dtd">
<!-- Generated by graphviz version 7.1.0 (20230121.1956)
 -->
<!-- Pages: 1 -->
<svg width="1467pt" height="1519pt"
 viewBox="0.00 0.00 1467.09 1519.00" xmlns="http://www.w3.org/2000/svg" xmlns:xlink="http://www.w3.org/1999/xlink">
<g id="graph0" class="graph" transform="scale(1 1) rotate(0) translate(4 1515)">
<polygon fill="white" stroke="none" points="-4,4 -4,-1515 1463.09,-1515 1463.09,4 -4,4"/>
<!-- AoiQuincyWingman begins. -->
<g id="node1" class="node">
<title>AoiQuincyWingman begins.</title>
<ellipse fill="none" stroke="orange" cx="113.09" cy="-1493" rx="113.18" ry="18"/>
<text text-anchor="middle" x="113.09" y="-1489.3" font-family="Times New Roman,serif" font-size="14.00">AoiQuincyWingman begins.</text>
</g>
<!-- j4275867195 -->
<g id="node2" class="node">
<title>j4275867195</title>
<ellipse fill="none" stroke="orange" cx="113.09" cy="-1420" rx="98.28" ry="18"/>
<text text-anchor="middle" x="113.09" y="-1416.3" font-family="Times New Roman,serif" font-size="14.00">Check boolean IsDating</text>
</g>
<!-- AoiQuincyWingman begins.&#45;&gt;j4275867195 -->
<g id="edge1" class="edge">
<title>AoiQuincyWingman begins.&#45;&gt;j4275867195</title>
<path fill="none" stroke="black" d="M113.09,-1474.81C113.09,-1467.23 113.09,-1458.1 113.09,-1449.54"/>
<polygon fill="black" stroke="black" points="116.59,-1449.54 113.09,-1439.54 109.59,-1449.54 116.59,-1449.54"/>
</g>
<!-- Chat ends. -->
<g id="node3" class="node">
<title>Chat ends.</title>
<ellipse fill="none" stroke="orange" cx="602.09" cy="-18" rx="50.09" ry="18"/>
<text text-anchor="middle" x="602.09" y="-14.3" font-family="Times New Roman,serif" font-size="14.00">Chat ends.</text>
</g>
<!-- j4275867195&#45;&gt;Chat ends. -->
<g id="edge2" class="edge">
<title>j4275867195&#45;&gt;Chat ends.</title>
<path fill="none" stroke="green" d="M107.85,-1401.6C103.18,-1384.54 97.09,-1357.73 97.09,-1334 97.09,-1334 97.09,-1334 97.09,-90 97.09,-45.64 406.58,-27.22 540.99,-21.31"/>
<polygon fill="green" stroke="green" points="540.93,-24.82 550.77,-20.89 540.63,-17.83 540.93,-24.82"/>
<text text-anchor="middle" x="108.09" y="-676.8" font-family="Times New Roman,serif" font-size="14.00">true</text>
</g>
<!-- j1755412790 -->
<g id="node4" class="node">
<title>j1755412790</title>
<polygon fill="none" stroke="blue" points="743.59,-1351 366.59,-1351 366.59,-1315 743.59,-1315 743.59,-1351"/>
<text text-anchor="middle" x="555.09" y="-1329.3" font-family="Times New Roman,serif" font-size="14.00">quincy said u wanted to talk to me? &lt;RETRO_EMOJI_OHNO&gt;</text>
</g>
<!-- j4275867195&#45;&gt;j1755412790 -->
<g id="edge3" class="edge">
<title>j4275867195&#45;&gt;j1755412790</title>
<path fill="none" stroke="brown" d="M179.26,-1406.27C251.75,-1392.34 368.89,-1369.81 453.13,-1353.61"/>
<polygon fill="brown" stroke="brown" points="453.63,-1357.08 462.79,-1351.75 452.31,-1350.2 453.63,-1357.08"/>
<text text-anchor="middle" x="373.09" y="-1372.8" font-family="Times New Roman,serif" font-size="14.00">false</text>
</g>
<!-- j1671287374 -->
<g id="node5" class="node">
<title>j1671287374</title>
<ellipse fill="none" stroke="orange" cx="798.09" cy="-1260" rx="108.58" ry="18"/>
<text text-anchor="middle" x="798.09" y="-1256.3" font-family="Times New Roman,serif" font-size="14.00">Check boolean AoiNoDate</text>
</g>
<!-- j1755412790&#45;&gt;j1671287374 -->
<g id="edge4" class="edge">
<title>j1755412790&#45;&gt;j1671287374</title>
<path fill="none" stroke="black" d="M614.85,-1314.54C651.43,-1303.85 698.18,-1290.19 735.3,-1279.35"/>
<polygon fill="black" stroke="black" points="735.92,-1282.81 744.54,-1276.65 733.96,-1276.09 735.92,-1282.81"/>
</g>
<!-- j709258789 -->
<g id="node6" class="node">
<title>j709258789</title>
<polygon fill="none" stroke="red" points="1340.09,-1191 902.09,-1191 902.09,-1155 1340.09,-1155 1340.09,-1191"/>
<text text-anchor="middle" x="1121.09" y="-1169.3" font-family="Times New Roman,serif" font-size="14.00">I just wanted to say I was sorry. I know I screwed up really badly with you.</text>
</g>
<!-- j1671287374&#45;&gt;j709258789 -->
<g id="edge5" class="edge">
<title>j1671287374&#45;&gt;j709258789</title>
<path fill="none" stroke="green" d="M854.35,-1244.19C906.74,-1230.41 985.28,-1209.74 1043.59,-1194.39"/>
<polygon fill="green" stroke="green" points="1044.35,-1197.81 1053.13,-1191.88 1042.57,-1191.04 1044.35,-1197.81"/>
<text text-anchor="middle" x="989.09" y="-1212.8" font-family="Times New Roman,serif" font-size="14.00">true</text>
</g>
<!-- j5866127 -->
<g id="node7" class="node">
<title>j5866127</title>
<polygon fill="none" stroke="red" points="879.59,-1191 814.59,-1191 814.59,-1155 879.59,-1155 879.59,-1191"/>
<text text-anchor="middle" x="847.09" y="-1169.3" font-family="Times New Roman,serif" font-size="14.00">[Ignore.]</text>
</g>
<!-- j1671287374&#45;&gt;j5866127 -->
<g id="edge6" class="edge">
<title>j1671287374&#45;&gt;j5866127</title>
<path fill="none" stroke="green" d="M812.7,-1241.79C816.98,-1236.3 821.49,-1230.07 825.09,-1224 829.25,-1216.99 833.1,-1209.04 836.38,-1201.59"/>
<polygon fill="green" stroke="green" points="839.52,-1203.14 840.15,-1192.57 833.06,-1200.44 839.52,-1203.14"/>
<text text-anchor="middle" x="843.09" y="-1212.8" font-family="Times New Roman,serif" font-size="14.00">true</text>
</g>
<!-- j1671287374&#45;&gt;j5866127 -->
<g id="edge8" class="edge">
<title>j1671287374&#45;&gt;j5866127</title>
<path fill="none" stroke="brown" d="M792.76,-1241.84C790.63,-1231.72 789.78,-1218.98 795.09,-1209 797.67,-1204.15 801.25,-1199.86 805.35,-1196.08"/>
<polygon fill="brown" stroke="brown" points="807.4,-1198.92 813.11,-1189.99 803.08,-1193.41 807.4,-1198.92"/>
<text text-anchor="middle" x="808.09" y="-1212.8" font-family="Times New Roman,serif" font-size="14.00">false</text>
</g>
<!-- j2512673480 -->
<g id="node8" class="node">
<title>j2512673480</title>
<polygon fill="none" stroke="red" points="796.59,-1191 373.59,-1191 373.59,-1155 796.59,-1155 796.59,-1191"/>
<text text-anchor="middle" x="585.09" y="-1169.3" font-family="Times New Roman,serif" font-size="14.00">Yeah. I. I don&#39;t know how else to say this, but I &#45; I have feelings for you.</text>
</g>
<!-- j1671287374&#45;&gt;j2512673480 -->
<g id="edge7" class="edge">
<title>j1671287374&#45;&gt;j2512673480</title>
<path fill="none" stroke="brown" d="M757.78,-1242.91C724.3,-1229.55 676.36,-1210.42 639.48,-1195.71"/>
<polygon fill="brown" stroke="brown" points="640.9,-1192.5 630.31,-1192.05 638.3,-1199 640.9,-1192.5"/>
<text text-anchor="middle" x="717.09" y="-1212.8" font-family="Times New Roman,serif" font-size="14.00">false</text>
</g>
<!-- j3986097500 -->
<g id="node9" class="node">
<title>j3986097500</title>
<polygon fill="none" stroke="blue" points="1213.09,-1118 1053.09,-1118 1053.09,-1082 1213.09,-1082 1213.09,-1118"/>
<text text-anchor="middle" x="1133.09" y="-1096.3" font-family="Times New Roman,serif" font-size="14.00">oh. do u really mean that?</text>
</g>
<!-- j709258789&#45;&gt;j3986097500 -->
<g id="edge9" class="edge">
<title>j709258789&#45;&gt;j3986097500</title>
<path fill="none" stroke="black" d="M1123.99,-1154.81C1125.29,-1147.14 1126.85,-1137.89 1128.32,-1129.24"/>
<polygon fill="black" stroke="black" points="1131.74,-1129.96 1129.96,-1119.52 1124.84,-1128.8 1131.74,-1129.96"/>
</g>
<!-- j5866127&#45;&gt;Chat ends. -->
<g id="edge10" class="edge">
<title>j5866127&#45;&gt;Chat ends.</title>
<path fill="none" stroke="black" d="M847.09,-1154.78C847.09,-1140.41 847.09,-1119.37 847.09,-1101 847.09,-1101 847.09,-1101 847.09,-90 847.09,-51.54 734.29,-32.58 661.76,-24.37"/>
<polygon fill="black" stroke="black" points="662.32,-20.91 652,-23.31 661.56,-27.87 662.32,-20.91"/>
</g>
<!-- j706442450 -->
<g id="node10" class="node">
<title>j706442450</title>
<ellipse fill="none" stroke="orange" cx="585.09" cy="-1100" rx="116.18" ry="18"/>
<text text-anchor="middle" x="585.09" y="-1096.3" font-family="Times New Roman,serif" font-size="14.00">Check boolean AoiHasDated</text>
</g>
<!-- j2512673480&#45;&gt;j706442450 -->
<g id="edge11" class="edge">
<title>j2512673480&#45;&gt;j706442450</title>
<path fill="none" stroke="black" d="M585.09,-1154.81C585.09,-1147.23 585.09,-1138.1 585.09,-1129.54"/>
<polygon fill="black" stroke="black" points="588.59,-1129.54 585.09,-1119.54 581.59,-1129.54 588.59,-1129.54"/>
</g>
<!-- j3345382735 -->
<g id="node11" class="node">
<title>j3345382735</title>
<polygon fill="none" stroke="red" points="1446.09,-1031 1312.09,-1031 1312.09,-995 1446.09,-995 1446.09,-1031"/>
<text text-anchor="middle" x="1379.09" y="-1009.3" font-family="Times New Roman,serif" font-size="14.00">I miss talking to you.</text>
</g>
<!-- j3986097500&#45;&gt;j3345382735 -->
<g id="edge12" class="edge">
<title>j3986097500&#45;&gt;j3345382735</title>
<path fill="none" stroke="black" d="M1183.47,-1081.59C1222.43,-1068.13 1276.56,-1049.43 1318,-1035.11"/>
<polygon fill="black" stroke="black" points="1319.04,-1038.45 1327.35,-1031.88 1316.76,-1031.83 1319.04,-1038.45"/>
</g>
<!-- j451529228 -->
<g id="node12" class="node">
<title>j451529228</title>
<polygon fill="none" stroke="red" points="1288.09,-1031 978.09,-1031 978.09,-995 1288.09,-995 1288.09,-1031"/>
<text text-anchor="middle" x="1133.09" y="-1009.3" font-family="Times New Roman,serif" font-size="14.00">I really do. I&#39;ve been losing sleep over it, honestly. :{</text>
</g>
<!-- j3986097500&#45;&gt;j451529228 -->
<g id="edge13" class="edge">
<title>j3986097500&#45;&gt;j451529228</title>
<path fill="none" stroke="black" d="M1133.09,-1081.8C1133.09,-1070.58 1133.09,-1055.67 1133.09,-1042.69"/>
<polygon fill="black" stroke="black" points="1136.59,-1042.98 1133.09,-1032.98 1129.59,-1042.98 1136.59,-1042.98"/>
</g>
<!-- j3099547640 -->
<g id="node13" class="node">
<title>j3099547640</title>
<polygon fill="none" stroke="blue" points="619.09,-977 115.09,-977 115.09,-941 619.09,-941 619.09,-977"/>
<text text-anchor="middle" x="367.09" y="-955.3" font-family="Times New Roman,serif" font-size="14.00">um. i mean. u did have ur chance and it didn&#39;t go so well. &lt;RETRO_EMOJI_GLARE&gt;</text>
</g>
<!-- j706442450&#45;&gt;j3099547640 -->
<g id="edge14" class="edge">
<title>j706442450&#45;&gt;j3099547640</title>
<path fill="none" stroke="green" d="M540.83,-1083.01C510.73,-1071.05 470.78,-1053.01 439.09,-1031 420.7,-1018.23 402.77,-1000.56 389.4,-986.04"/>
<polygon fill="green" stroke="green" points="392,-983.71 382.71,-978.61 386.8,-988.39 392,-983.71"/>
<text text-anchor="middle" x="507.09" y="-1052.8" font-family="Times New Roman,serif" font-size="14.00">true</text>
</g>
<!-- j2181997468 -->
<g id="node14" class="node">
<title>j2181997468</title>
<polygon fill="none" stroke="blue" points="818.59,-1031 447.59,-1031 447.59,-995 818.59,-995 818.59,-1031"/>
<text text-anchor="middle" x="633.09" y="-1009.3" font-family="Times New Roman,serif" font-size="14.00">really??? &lt;RETRO_EMOJI_WUT&gt; why didn&#39;t u say anything?</text>
</g>
<!-- j706442450&#45;&gt;j2181997468 -->
<g id="edge15" class="edge">
<title>j706442450&#45;&gt;j2181997468</title>
<path fill="none" stroke="brown" d="M594.8,-1081.8C601.4,-1070.12 610.25,-1054.45 617.78,-1041.11"/>
<polygon fill="brown" stroke="brown" points="620.61,-1043.21 622.48,-1032.79 614.52,-1039.77 620.61,-1043.21"/>
<text text-anchor="middle" x="624.09" y="-1052.8" font-family="Times New Roman,serif" font-size="14.00">false</text>
</g>
<!-- j898143519 -->
<g id="node15" class="node">
<title>j898143519</title>
<polygon fill="none" stroke="blue" points="1459.09,-869 1367.09,-869 1367.09,-833 1459.09,-833 1459.09,-869"/>
<text text-anchor="middle" x="1413.09" y="-847.3" font-family="Times New Roman,serif" font-size="14.00">u&#39;ll get over it</text>
</g>
<!-- j3345382735&#45;&gt;j898143519 -->
<g id="edge16" class="edge">
<title>j3345382735&#45;&gt;j898143519</title>
<path fill="none" stroke="black" d="M1382.79,-994.57C1388.62,-967.16 1399.98,-913.69 1407.01,-880.59"/>
<polygon fill="black" stroke="black" points="1410.42,-881.4 1409.08,-870.89 1403.57,-879.94 1410.42,-881.4"/>
</g>
<!-- j946710311 -->
<g id="node16" class="node">
<title>j946710311</title>
<polygon fill="none" stroke="blue" points="1266.09,-923 1000.09,-923 1000.09,-887 1266.09,-887 1266.09,-923"/>
<text text-anchor="middle" x="1133.09" y="-901.3" font-family="Times New Roman,serif" font-size="14.00">awwwww &lt;RETRO_EMOJI_TWOHUGS&gt;</text>
</g>
<!-- j451529228&#45;&gt;j946710311 -->
<g id="edge17" class="edge">
<title>j451529228&#45;&gt;j946710311</title>
<path fill="none" stroke="black" d="M1133.09,-994.97C1133.09,-978.76 1133.09,-954.06 1133.09,-934.79"/>
<polygon fill="black" stroke="black" points="1136.59,-934.85 1133.09,-924.85 1129.59,-934.85 1136.59,-934.85"/>
</g>
<!-- j3120786406 -->
<g id="node17" class="node">
<title>j3120786406</title>
<polygon fill="none" stroke="blue" points="624.09,-869 112.09,-869 112.09,-833 624.09,-833 624.09,-869"/>
<text text-anchor="middle" x="368.09" y="-847.3" font-family="Times New Roman,serif" font-size="14.00">but... if i&#39;m being honest i have really missed u... and quincy did say u were really sorry...</text>
</g>
<!-- j3099547640&#45;&gt;j3120786406 -->
<g id="edge18" class="edge">
<title>j3099547640&#45;&gt;j3120786406</title>
<path fill="none" stroke="black" d="M367.25,-940.97C367.4,-924.76 367.64,-900.06 367.82,-880.79"/>
<polygon fill="black" stroke="black" points="371.32,-880.89 367.91,-870.85 364.32,-880.82 371.32,-880.89"/>
</g>
<!-- j2270057619 -->
<g id="node18" class="node">
<title>j2270057619</title>
<polygon fill="none" stroke="red" points="630.09,-923 508.09,-923 508.09,-887 630.09,-887 630.09,-923"/>
<text text-anchor="middle" x="569.09" y="-901.3" font-family="Times New Roman,serif" font-size="14.00">I didn&#39;t know how.</text>
</g>
<!-- j2181997468&#45;&gt;j2270057619 -->
<g id="edge19" class="edge">
<title>j2181997468&#45;&gt;j2270057619</title>
<path fill="none" stroke="black" d="M633.54,-994.58C633.13,-979.31 630.52,-957.09 620.09,-941 617.66,-937.25 614.68,-933.8 611.38,-930.65"/>
<polygon fill="black" stroke="black" points="613.78,-928.09 603.85,-924.39 609.3,-933.47 613.78,-928.09"/>
</g>
<!-- j2442773739 -->
<g id="node19" class="node">
<title>j2442773739</title>
<polygon fill="none" stroke="red" points="797.59,-923 648.59,-923 648.59,-887 797.59,-887 797.59,-923"/>
<text text-anchor="middle" x="723.09" y="-901.3" font-family="Times New Roman,serif" font-size="14.00">I guess I was scared to.</text>
</g>
<!-- j2181997468&#45;&gt;j2442773739 -->
<g id="edge20" class="edge">
<title>j2181997468&#45;&gt;j2442773739</title>
<path fill="none" stroke="black" d="M647.55,-994.97C661.96,-977.99 684.29,-951.7 700.94,-932.09"/>
<polygon fill="black" stroke="black" points="703.58,-934.38 707.39,-924.49 698.25,-929.85 703.58,-934.38"/>
</g>
<!-- j898143519&#45;&gt;Chat ends. -->
<g id="edge21" class="edge">
<title>j898143519&#45;&gt;Chat ends.</title>
<path fill="none" stroke="black" d="M1414.96,-832.63C1416.72,-814.71 1419.09,-785.93 1419.09,-761 1419.09,-761 1419.09,-761 1419.09,-90 1419.09,-52.09 853.29,-28.11 663.39,-21.12"/>
<polygon fill="black" stroke="black" points="663.6,-17.63 653.48,-20.76 663.35,-24.62 663.6,-17.63"/>
</g>
<!-- j4148936933 -->
<g id="node20" class="node">
<title>j4148936933</title>
<polygon fill="none" stroke="blue" points="1200.59,-815 1065.59,-815 1065.59,-779 1200.59,-779 1200.59,-815"/>
<text text-anchor="middle" x="1133.09" y="-793.3" font-family="Times New Roman,serif" font-size="14.00">apology accepted ^.^</text>
</g>
<!-- j946710311&#45;&gt;j4148936933 -->
<g id="edge22" class="edge">
<title>j946710311&#45;&gt;j4148936933</title>
<path fill="none" stroke="black" d="M1133.09,-886.97C1133.09,-870.76 1133.09,-846.06 1133.09,-826.79"/>
<polygon fill="black" stroke="black" points="1136.59,-826.85 1133.09,-816.85 1129.59,-826.85 1136.59,-826.85"/>
</g>
<!-- j9200523 -->
<g id="node21" class="node">
<title>j9200523</title>
<polygon fill="none" stroke="blue" points="498.09,-742 238.09,-742 238.09,-706 498.09,-706 498.09,-742"/>
<text text-anchor="middle" x="368.09" y="-720.3" font-family="Times New Roman,serif" font-size="14.00">are u sure you want to give this another try?</text>
</g>
<!-- j3120786406&#45;&gt;j9200523 -->
<g id="edge23" class="edge">
<title>j3120786406&#45;&gt;j9200523</title>
<path fill="none" stroke="black" d="M368.09,-832.62C368.09,-812.19 368.09,-777.99 368.09,-753.62"/>
<polygon fill="black" stroke="black" points="371.59,-753.75 368.09,-743.75 364.59,-753.75 371.59,-753.75"/>
</g>
<!-- j1232788922 -->
<g id="node22" class="node">
<title>j1232788922</title>
<polygon fill="none" stroke="blue" points="817.09,-815 461.09,-815 461.09,-779 817.09,-779 817.09,-815"/>
<text text-anchor="middle" x="639.09" y="-793.3" font-family="Times New Roman,serif" font-size="14.00">lol u are so strange sometimes &lt;RETRO_EMOJI_SHRUG&gt;</text>
</g>
<!-- j2270057619&#45;&gt;j1232788922 -->
<g id="edge24" class="edge">
<title>j2270057619&#45;&gt;j1232788922</title>
<path fill="none" stroke="black" d="M606.46,-886.68C613.57,-881.86 620.28,-875.99 625.09,-869 633.58,-856.68 637.2,-840.45 638.65,-826.62"/>
<polygon fill="black" stroke="black" points="642.13,-826.97 639.32,-816.76 635.15,-826.49 642.13,-826.97"/>
</g>
<!-- j2442773739&#45;&gt;j1232788922 -->
<g id="edge25" class="edge">
<title>j2442773739&#45;&gt;j1232788922</title>
<path fill="none" stroke="black" d="M709.59,-886.97C696.2,-870.07 675.49,-843.94 659.98,-824.36"/>
<polygon fill="black" stroke="black" points="662.73,-822.19 653.77,-816.53 657.24,-826.54 662.73,-822.19"/>
</g>
<!-- j1528500110 -->
<g id="node23" class="node">
<title>j1528500110</title>
<polygon fill="none" stroke="blue" points="1390.59,-742 875.59,-742 875.59,-706 1390.59,-706 1390.59,-742"/>
<text text-anchor="middle" x="1133.09" y="-720.3" font-family="Times New Roman,serif" font-size="14.00">and honestly? u&#39;ve been on my mind a lot, lately... are u sure you want to go out with me?</text>
</g>
<!-- j4148936933&#45;&gt;j1528500110 -->
<g id="edge26" class="edge">
<title>j4148936933&#45;&gt;j1528500110</title>
<path fill="none" stroke="black" d="M1133.09,-778.81C1133.09,-771.23 1133.09,-762.1 1133.09,-753.54"/>
<polygon fill="black" stroke="black" points="1136.59,-753.54 1133.09,-743.54 1129.59,-753.54 1136.59,-753.54"/>
</g>
<!-- j1115267795 -->
<g id="node24" class="node">
<title>j1115267795</title>
<polygon fill="none" stroke="red" points="448.09,-655 288.09,-655 288.09,-619 448.09,-619 448.09,-655"/>
<text text-anchor="middle" x="368.09" y="-633.3" font-family="Times New Roman,serif" font-size="14.00">Actually, never mind. No.</text>
</g>
<!-- j9200523&#45;&gt;j1115267795 -->
<g id="edge27" class="edge">
<title>j9200523&#45;&gt;j1115267795</title>
<path fill="none" stroke="black" d="M368.09,-705.8C368.09,-694.58 368.09,-679.67 368.09,-666.69"/>
<polygon fill="black" stroke="black" points="371.59,-666.98 368.09,-656.98 364.59,-666.98 371.59,-666.98"/>
</g>
<!-- j4142696560 -->
<g id="node25" class="node">
<title>j4142696560</title>
<polygon fill="none" stroke="red" points="691.09,-655 569.09,-655 569.09,-619 691.09,-619 691.09,-655"/>
<text text-anchor="middle" x="630.09" y="-633.3" font-family="Times New Roman,serif" font-size="14.00">Yeah. Very sure. :)</text>
</g>
<!-- j9200523&#45;&gt;j4142696560 -->
<g id="edge28" class="edge">
<title>j9200523&#45;&gt;j4142696560</title>
<path fill="none" stroke="black" d="M421.74,-705.59C463.42,-692.07 521.38,-673.27 565.59,-658.93"/>
<polygon fill="black" stroke="black" points="566.64,-662.27 575.07,-655.85 564.48,-655.61 566.64,-662.27"/>
</g>
<!-- j1116103069 -->
<g id="node26" class="node">
<title>j1116103069</title>
<polygon fill="none" stroke="blue" points="749.59,-742 516.59,-742 516.59,-706 749.59,-706 749.59,-742"/>
<text text-anchor="middle" x="633.09" y="-720.3" font-family="Times New Roman,serif" font-size="14.00">are u sure you want to go out with me?</text>
</g>
<!-- j1232788922&#45;&gt;j1116103069 -->
<g id="edge29" class="edge">
<title>j1232788922&#45;&gt;j1116103069</title>
<path fill="none" stroke="black" d="M637.64,-778.81C636.99,-771.14 636.21,-761.89 635.48,-753.24"/>
<polygon fill="black" stroke="black" points="638.99,-753.21 634.66,-743.54 632.01,-753.8 638.99,-753.21"/>
</g>
<!-- j1528500110&#45;&gt;j4142696560 -->
<g id="edge30" class="edge">
<title>j1528500110&#45;&gt;j4142696560</title>
<path fill="none" stroke="black" d="M1029.78,-705.54C932.24,-689.06 788.47,-664.76 702.56,-650.25"/>
<polygon fill="black" stroke="black" points="703.29,-646.82 692.85,-648.6 702.12,-653.72 703.29,-646.82"/>
</g>
<!-- j3352843875 -->
<g id="node27" class="node">
<title>j3352843875</title>
<polygon fill="none" stroke="blue" points="393.09,-582 211.09,-582 211.09,-546 393.09,-546 393.09,-582"/>
<text text-anchor="middle" x="302.09" y="-560.3" font-family="Times New Roman,serif" font-size="14.00">&lt;RETRO_EMOJI_GLARE&gt;</text>
</g>
<!-- j1115267795&#45;&gt;j3352843875 -->
<g id="edge31" class="edge">
<title>j1115267795&#45;&gt;j3352843875</title>
<path fill="none" stroke="black" d="M352.11,-618.81C344.17,-610.27 334.41,-599.77 325.63,-590.32"/>
<polygon fill="black" stroke="black" points="328.32,-588.08 318.95,-583.14 323.2,-592.84 328.32,-588.08"/>
</g>
<!-- j759431203 -->
<g id="node28" class="node">
<title>j759431203</title>
<polygon fill="none" stroke="blue" points="724.09,-582 518.09,-582 518.09,-546 724.09,-546 724.09,-582"/>
<text text-anchor="middle" x="621.09" y="-560.3" font-family="Times New Roman,serif" font-size="14.00">&lt;RETRO_EMOJI_GIVELOVE&gt;</text>
</g>
<!-- j4142696560&#45;&gt;j759431203 -->
<g id="edge32" class="edge">
<title>j4142696560&#45;&gt;j759431203</title>
<path fill="none" stroke="black" d="M627.91,-618.81C626.94,-611.14 625.77,-601.89 624.67,-593.24"/>
<polygon fill="black" stroke="black" points="628.17,-593.01 623.44,-583.53 621.22,-593.89 628.17,-593.01"/>
</g>
<!-- j1116103069&#45;&gt;j1115267795 -->
<g id="edge33" class="edge">
<title>j1116103069&#45;&gt;j1115267795</title>
<path fill="none" stroke="black" d="M578.82,-705.59C536.58,-692.04 477.8,-673.19 433.05,-658.84"/>
<polygon fill="black" stroke="black" points="434.32,-655.57 423.72,-655.85 432.18,-662.23 434.32,-655.57"/>
</g>
<!-- j1116103069&#45;&gt;j4142696560 -->
<g id="edge34" class="edge">
<title>j1116103069&#45;&gt;j4142696560</title>
<path fill="none" stroke="black" d="M632.48,-705.8C632.09,-694.58 631.56,-679.67 631.1,-666.69"/>
<polygon fill="black" stroke="black" points="634.61,-666.85 630.76,-656.98 627.61,-667.1 634.61,-666.85"/>
</g>
<!-- j2157777942 -->
<g id="node29" class="node">
<title>j2157777942</title>
<polygon fill="none" stroke="blue" points="367.09,-509 191.09,-509 191.09,-473 367.09,-473 367.09,-509"/>
<text text-anchor="middle" x="279.09" y="-487.3" font-family="Times New Roman,serif" font-size="14.00">&lt;RETRO_EMOJI_KNIFE&gt;</text>
</g>
<!-- j3352843875&#45;&gt;j2157777942 -->
<g id="edge35" class="edge">
<title>j3352843875&#45;&gt;j2157777942</title>
<path fill="none" stroke="black" d="M296.52,-545.81C294.01,-538.05 290.97,-528.68 288.14,-519.95"/>
<polygon fill="black" stroke="black" points="291.48,-518.9 285.07,-510.47 284.82,-521.06 291.48,-518.9"/>
</g>
<!-- j375278457 -->
<g id="node30" class="node">
<title>j375278457</title>
<polygon fill="none" stroke="blue" points="819.09,-509 385.09,-509 385.09,-473 819.09,-473 819.09,-509"/>
<text text-anchor="middle" x="602.09" y="-487.3" font-family="Times New Roman,serif" font-size="14.00">&lt;RETRO_EMOJI_FLOWERS&gt;&lt;3&lt;3&lt;3&lt;RETRO_EMOJI_FLOWERS&gt;</text>
</g>
<!-- j759431203&#45;&gt;j375278457 -->
<g id="edge36" class="edge">
<title>j759431203&#45;&gt;j375278457</title>
<path fill="none" stroke="black" d="M616.49,-545.81C614.41,-538.05 611.91,-528.68 609.57,-519.95"/>
<polygon fill="black" stroke="black" points="613,-519.25 607.04,-510.49 606.24,-521.06 613,-519.25"/>
</g>
<!-- j4121660697 -->
<g id="node31" class="node">
<title>j4121660697</title>
<ellipse fill="none" stroke="orange" cx="378.09" cy="-364" rx="128.88" ry="18"/>
<text text-anchor="middle" x="378.09" y="-360.3" font-family="Times New Roman,serif" font-size="14.00">Boolean AoiNoDate is now true.</text>
</g>
<!-- j2157777942&#45;&gt;j4121660697 -->
<g id="edge37" class="edge">
<title>j2157777942&#45;&gt;j4121660697</title>
<path fill="none" stroke="black" d="M292.86,-472.62C309.63,-451.44 338.12,-415.47 357.5,-391"/>
<polygon fill="black" stroke="black" points="360.04,-393.43 363.5,-383.42 354.55,-389.09 360.04,-393.43"/>
</g>
<!-- j4188135732 -->
<g id="node32" class="node">
<title>j4188135732</title>
<ellipse fill="none" stroke="orange" cx="602.09" cy="-418" rx="64.19" ry="18"/>
<text text-anchor="middle" x="602.09" y="-414.3" font-family="Times New Roman,serif" font-size="14.00">+20 Chemistry</text>
</g>
<!-- j375278457&#45;&gt;j4188135732 -->
<g id="edge38" class="edge">
<title>j375278457&#45;&gt;j4188135732</title>
<path fill="none" stroke="black" d="M602.09,-472.81C602.09,-465.23 602.09,-456.1 602.09,-447.54"/>
<polygon fill="black" stroke="black" points="605.59,-447.54 602.09,-437.54 598.59,-447.54 605.59,-447.54"/>
</g>
<!-- j4121660697&#45;&gt;Chat ends. -->
<g id="edge39" class="edge">
<title>j4121660697&#45;&gt;Chat ends.</title>
<path fill="none" stroke="black" d="M384.42,-345.53C390.28,-327.77 398.09,-299.34 398.09,-274 398.09,-274 398.09,-274 398.09,-90 398.09,-58.78 484.4,-38.13 544.74,-27.52"/>
<polygon fill="black" stroke="black" points="545.29,-30.97 554.56,-25.84 544.12,-24.07 545.29,-30.97"/>
</g>
<!-- j3778535093 -->
<g id="node33" class="node">
<title>j3778535093</title>
<ellipse fill="none" stroke="orange" cx="602.09" cy="-310" rx="131.88" ry="18"/>
<text text-anchor="middle" x="602.09" y="-306.3" font-family="Times New Roman,serif" font-size="14.00">Boolean AoiNoDate is now false.</text>
</g>
<!-- j4188135732&#45;&gt;j3778535093 -->
<g id="edge40" class="edge">
<title>j4188135732&#45;&gt;j3778535093</title>
<path fill="none" stroke="black" d="M602.09,-399.97C602.09,-383.76 602.09,-359.06 602.09,-339.79"/>
<polygon fill="black" stroke="black" points="605.59,-339.85 602.09,-329.85 598.59,-339.85 605.59,-339.85"/>
</g>
<!-- j823539306 -->
<g id="node34" class="node">
<title>j823539306</title>
<ellipse fill="none" stroke="orange" cx="602.09" cy="-237" rx="118.08" ry="18"/>
<text text-anchor="middle" x="602.09" y="-233.3" font-family="Times New Roman,serif" font-size="14.00">Boolean IsDating is now true.</text>
</g>
<!-- j3778535093&#45;&gt;j823539306 -->
<g id="edge41" class="edge">
<title>j3778535093&#45;&gt;j823539306</title>
<path fill="none" stroke="black" d="M602.09,-291.81C602.09,-284.23 602.09,-275.1 602.09,-266.54"/>
<polygon fill="black" stroke="black" points="605.59,-266.54 602.09,-256.54 598.59,-266.54 605.59,-266.54"/>
</g>
<!-- j3427397763 -->
<g id="node35" class="node">
<title>j3427397763</title>
<ellipse fill="none" stroke="orange" cx="602.09" cy="-164" rx="124.28" ry="18"/>
<text text-anchor="middle" x="602.09" y="-160.3" font-family="Times New Roman,serif" font-size="14.00">Boolean AoiDating is now true.</text>
</g>
<!-- j823539306&#45;&gt;j3427397763 -->
<g id="edge42" class="edge">
<title>j823539306&#45;&gt;j3427397763</title>
<path fill="none" stroke="black" d="M602.09,-218.81C602.09,-211.23 602.09,-202.1 602.09,-193.54"/>
<polygon fill="black" stroke="black" points="605.59,-193.54 602.09,-183.54 598.59,-193.54 605.59,-193.54"/>
</g>
<!-- j2702152868 -->
<g id="node36" class="node">
<title>j2702152868</title>
<ellipse fill="none" stroke="orange" cx="602.09" cy="-91" rx="136.48" ry="18"/>
<text text-anchor="middle" x="602.09" y="-87.3" font-family="Times New Roman,serif" font-size="14.00">Boolean AoiHasDated is now true.</text>
</g>
<!-- j3427397763&#45;&gt;j2702152868 -->
<g id="edge43" class="edge">
<title>j3427397763&#45;&gt;j2702152868</title>
<path fill="none" stroke="black" d="M602.09,-145.81C602.09,-138.23 602.09,-129.1 602.09,-120.54"/>
<polygon fill="black" stroke="black" points="605.59,-120.54 602.09,-110.54 598.59,-120.54 605.59,-120.54"/>
</g>
<!-- j2702152868&#45;&gt;Chat ends. -->
<g id="edge44" class="edge">
<title>j2702152868&#45;&gt;Chat ends.</title>
<path fill="none" stroke="black" d="M602.09,-72.81C602.09,-65.23 602.09,-56.1 602.09,-47.54"/>
<polygon fill="black" stroke="black" points="605.59,-47.54 602.09,-37.54 598.59,-47.54 605.59,-47.54"/>
</g>
</g>
</svg>
