<?xml version="1.0" encoding="UTF-8" standalone="no"?>
<!DOCTYPE svg PUBLIC "-//W3C//DTD SVG 1.1//EN"
 "http://www.w3.org/Graphics/SVG/1.1/DTD/svg11.dtd">
<!-- Generated by graphviz version 14.1.1 (20251213.1925)
 -->
<!-- Pages: 1 -->
<svg width="793pt" height="1988pt"
 viewBox="0.00 0.00 793.00 1988.00" xmlns="http://www.w3.org/2000/svg" xmlns:xlink="http://www.w3.org/1999/xlink">
<g id="graph0" class="graph" transform="scale(1 1) rotate(0) translate(4 1984)">
<polygon fill="white" stroke="none" points="-4,4 -4,-1984 788.5,-1984 788.5,4 -4,4"/>
<!-- AmirRank6Convo5 begins. -->
<g id="node1" class="node">
<title>AmirRank6Convo5 begins.</title>
<ellipse fill="none" stroke="orange" cx="289" cy="-1962" rx="113.28" ry="18"/>
<text xml:space="preserve" text-anchor="middle" x="289" y="-1956.95" font-family="Times New Roman,serif" font-size="14.00">AmirRank6Convo5 begins.</text>
</g>
<!-- j3252449105 -->
<g id="node2" class="node">
<title>j3252449105</title>
<polygon fill="none" stroke="blue" points="436.88,-1908 141.12,-1908 141.12,-1872 436.88,-1872 436.88,-1908"/>
<text xml:space="preserve" text-anchor="middle" x="289" y="-1884.95" font-family="Times New Roman,serif" font-size="14.00">hey gelecekten gelen... sen gelecektensin değil mi?</text>
</g>
<!-- AmirRank6Convo5 begins.&#45;&gt;j3252449105 -->
<g id="edge1" class="edge">
<title>AmirRank6Convo5 begins.&#45;&gt;j3252449105</title>
<path fill="none" stroke="black" d="M289,-1943.7C289,-1936.41 289,-1927.73 289,-1919.54"/>
<polygon fill="black" stroke="black" points="292.5,-1919.62 289,-1909.62 285.5,-1919.62 292.5,-1919.62"/>
</g>
<!-- j2692951466 -->
<g id="node3" class="node">
<title>j2692951466</title>
<polygon fill="none" stroke="red" points="244.75,-1836 41.25,-1836 41.25,-1800 244.75,-1800 244.75,-1836"/>
<text xml:space="preserve" text-anchor="middle" x="143" y="-1812.95" font-family="Times New Roman,serif" font-size="14.00">En son kontrol ettiğimde, öyleydi.</text>
</g>
<!-- j3252449105&#45;&gt;j2692951466 -->
<g id="edge2" class="edge">
<title>j3252449105&#45;&gt;j2692951466</title>
<path fill="none" stroke="black" d="M252.53,-1871.52C233.47,-1862.38 209.94,-1851.09 189.57,-1841.33"/>
<polygon fill="black" stroke="black" points="191.15,-1838.2 180.62,-1837.04 188.12,-1844.52 191.15,-1838.2"/>
</g>
<!-- j29694629 -->
<g id="node4" class="node">
<title>j29694629</title>
<polygon fill="none" stroke="red" points="607.62,-1836 262.38,-1836 262.38,-1800 607.62,-1800 607.62,-1836"/>
<text xml:space="preserve" text-anchor="middle" x="435" y="-1812.95" font-family="Times New Roman,serif" font-size="14.00">Eğer Ebediyetçiliği kafama takmazsam, evet, gelecektenim.</text>
</g>
<!-- j3252449105&#45;&gt;j29694629 -->
<g id="edge3" class="edge">
<title>j3252449105&#45;&gt;j29694629</title>
<path fill="none" stroke="black" d="M325.47,-1871.52C344.53,-1862.38 368.06,-1851.09 388.43,-1841.33"/>
<polygon fill="black" stroke="black" points="389.88,-1844.52 397.38,-1837.04 386.85,-1838.2 389.88,-1844.52"/>
</g>
<!-- j3949926576 -->
<g id="node5" class="node">
<title>j3949926576</title>
<polygon fill="none" stroke="blue" points="423,-1764 155,-1764 155,-1728 423,-1728 423,-1764"/>
<text xml:space="preserve" text-anchor="middle" x="289" y="-1740.95" font-family="Times New Roman,serif" font-size="14.00">bana uzaylılar hakkında bildiğin her şeyi anlat</text>
</g>
<!-- j2692951466&#45;&gt;j3949926576 -->
<g id="edge4" class="edge">
<title>j2692951466&#45;&gt;j3949926576</title>
<path fill="none" stroke="black" d="M179.47,-1799.52C198.53,-1790.38 222.06,-1779.09 242.43,-1769.33"/>
<polygon fill="black" stroke="black" points="243.88,-1772.52 251.38,-1765.04 240.85,-1766.2 243.88,-1772.52"/>
</g>
<!-- j29694629&#45;&gt;j3949926576 -->
<g id="edge5" class="edge">
<title>j29694629&#45;&gt;j3949926576</title>
<path fill="none" stroke="black" d="M398.53,-1799.52C379.47,-1790.38 355.94,-1779.09 335.57,-1769.33"/>
<polygon fill="black" stroke="black" points="337.15,-1766.2 326.62,-1765.04 334.12,-1772.52 337.15,-1766.2"/>
</g>
<!-- j3263333671 -->
<g id="node6" class="node">
<title>j3263333671</title>
<polygon fill="none" stroke="red" points="250.62,-1692 115.38,-1692 115.38,-1656 250.62,-1656 250.62,-1692"/>
<text xml:space="preserve" text-anchor="middle" x="183" y="-1668.95" font-family="Times New Roman,serif" font-size="14.00">Ne demek istiyorsun?</text>
</g>
<!-- j3949926576&#45;&gt;j3263333671 -->
<g id="edge6" class="edge">
<title>j3949926576&#45;&gt;j3263333671</title>
<path fill="none" stroke="black" d="M262.53,-1727.52C249.27,-1718.76 233.04,-1708.04 218.7,-1698.58"/>
<polygon fill="black" stroke="black" points="220.67,-1695.68 210.4,-1693.09 216.82,-1701.53 220.67,-1695.68"/>
</g>
<!-- j3250386135 -->
<g id="node7" class="node">
<title>j3250386135</title>
<polygon fill="none" stroke="red" points="521.12,-1692 268.88,-1692 268.88,-1656 521.12,-1656 521.12,-1692"/>
<text xml:space="preserve" text-anchor="middle" x="395" y="-1668.95" font-family="Times New Roman,serif" font-size="14.00">Ayyaş Zaznog herkesten fazla içebiliyordu.</text>
</g>
<!-- j3949926576&#45;&gt;j3250386135 -->
<g id="edge7" class="edge">
<title>j3949926576&#45;&gt;j3250386135</title>
<path fill="none" stroke="black" d="M315.47,-1727.52C328.73,-1718.76 344.96,-1708.04 359.3,-1698.58"/>
<polygon fill="black" stroke="black" points="361.18,-1701.53 367.6,-1693.09 357.33,-1695.68 361.18,-1701.53"/>
</g>
<!-- j1255115987 -->
<g id="node8" class="node">
<title>j1255115987</title>
<polygon fill="none" stroke="blue" points="326.75,-1116 39.25,-1116 39.25,-1080 326.75,-1080 326.75,-1116"/>
<text xml:space="preserve" text-anchor="middle" x="183" y="-1092.95" font-family="Times New Roman,serif" font-size="14.00">bilirsin işte, uzaylılar, ufolar, lanet olası deneyler!</text>
</g>
<!-- j3263333671&#45;&gt;j1255115987 -->
<g id="edge8" class="edge">
<title>j3263333671&#45;&gt;j1255115987</title>
<path fill="none" stroke="black" d="M183,-1655.51C183,-1628.71 183,-1575.87 183,-1531 183,-1531 183,-1531 183,-1241 183,-1201.74 183,-1156.38 183,-1127.69"/>
<polygon fill="black" stroke="black" points="186.5,-1128 183,-1118 179.5,-1128 186.5,-1128"/>
</g>
<!-- j727985358 -->
<g id="node9" class="node">
<title>j727985358</title>
<polygon fill="none" stroke="blue" points="492.62,-1620 297.38,-1620 297.38,-1584 492.62,-1584 492.62,-1620"/>
<text xml:space="preserve" text-anchor="middle" x="395" y="-1596.95" font-family="Times New Roman,serif" font-size="14.00">vay be! gerçekten mi? ne içiyor?</text>
</g>
<!-- j3250386135&#45;&gt;j727985358 -->
<g id="edge9" class="edge">
<title>j3250386135&#45;&gt;j727985358</title>
<path fill="none" stroke="black" d="M395,-1655.7C395,-1648.41 395,-1639.73 395,-1631.54"/>
<polygon fill="black" stroke="black" points="398.5,-1631.62 395,-1621.62 391.5,-1631.62 398.5,-1631.62"/>
</g>
<!-- j4195311123 -->
<g id="node10" class="node">
<title>j4195311123</title>
<polygon fill="none" stroke="red" points="318.62,-1044 45.38,-1044 45.38,-1008 318.62,-1008 318.62,-1044"/>
<text xml:space="preserve" text-anchor="middle" x="182" y="-1020.95" font-family="Times New Roman,serif" font-size="14.00">Seni hayal kırıklığına uğratmak istemiyorum...</text>
</g>
<!-- j1255115987&#45;&gt;j4195311123 -->
<g id="edge10" class="edge">
<title>j1255115987&#45;&gt;j4195311123</title>
<path fill="none" stroke="black" d="M182.75,-1079.7C182.65,-1072.41 182.52,-1063.73 182.41,-1055.54"/>
<polygon fill="black" stroke="black" points="185.91,-1055.57 182.27,-1045.62 178.91,-1055.67 185.91,-1055.57"/>
</g>
<!-- j151395859 -->
<g id="node11" class="node">
<title>j151395859</title>
<polygon fill="none" stroke="red" points="665,-1044 337,-1044 337,-1008 665,-1008 665,-1044"/>
<text xml:space="preserve" text-anchor="middle" x="501" y="-1020.95" font-family="Times New Roman,serif" font-size="14.00">Sentient&#39;ler var ama kastettiğinin bu olmadığına eminim.</text>
</g>
<!-- j1255115987&#45;&gt;j151395859 -->
<g id="edge11" class="edge">
<title>j1255115987&#45;&gt;j151395859</title>
<path fill="none" stroke="black" d="M262.42,-1079.52C307.47,-1069.6 364,-1057.16 410.72,-1046.87"/>
<polygon fill="black" stroke="black" points="411.27,-1050.34 420.28,-1044.77 409.76,-1043.5 411.27,-1050.34"/>
</g>
<!-- j3584671991 -->
<g id="node12" class="node">
<title>j3584671991</title>
<polygon fill="none" stroke="red" points="501.12,-1548 242.88,-1548 242.88,-1512 501.12,-1512 501.12,-1548"/>
<text xml:space="preserve" text-anchor="middle" x="372" y="-1524.95" font-family="Times New Roman,serif" font-size="14.00">Piston yağı, çoğunlukla. Piston yağını sever.</text>
</g>
<!-- j727985358&#45;&gt;j3584671991 -->
<g id="edge12" class="edge">
<title>j727985358&#45;&gt;j3584671991</title>
<path fill="none" stroke="black" d="M389.31,-1583.7C386.86,-1576.24 383.93,-1567.32 381.19,-1558.97"/>
<polygon fill="black" stroke="black" points="384.54,-1557.95 378.09,-1549.54 377.89,-1560.14 384.54,-1557.95"/>
</g>
<!-- j1335474298 -->
<g id="node13" class="node">
<title>j1335474298</title>
<polygon fill="none" stroke="red" points="666.62,-1548 519.38,-1548 519.38,-1512 666.62,-1512 666.62,-1548"/>
<text xml:space="preserve" text-anchor="middle" x="593" y="-1524.95" font-family="Times New Roman,serif" font-size="14.00">Yoğunlaştırılmış Brendi</text>
</g>
<!-- j727985358&#45;&gt;j1335474298 -->
<g id="edge13" class="edge">
<title>j727985358&#45;&gt;j1335474298</title>
<path fill="none" stroke="black" d="M444.45,-1583.52C471.37,-1574 504.87,-1562.16 533.24,-1552.13"/>
<polygon fill="black" stroke="black" points="534.15,-1555.52 542.41,-1548.89 531.81,-1548.92 534.15,-1555.52"/>
</g>
<!-- j1854996320 -->
<g id="node14" class="node">
<title>j1854996320</title>
<polygon fill="none" stroke="blue" points="197,-972 143,-972 143,-936 197,-936 197,-972"/>
<text xml:space="preserve" text-anchor="middle" x="170" y="-948.95" font-family="Times New Roman,serif" font-size="14.00">hayır!</text>
</g>
<!-- j4195311123&#45;&gt;j1854996320 -->
<g id="edge14" class="edge">
<title>j4195311123&#45;&gt;j1854996320</title>
<path fill="none" stroke="black" d="M179.03,-1007.7C177.77,-1000.32 176.26,-991.52 174.84,-983.25"/>
<polygon fill="black" stroke="black" points="178.33,-982.86 173.19,-973.6 171.43,-984.04 178.33,-982.86"/>
</g>
<!-- j4190466540 -->
<g id="node15" class="node">
<title>j4190466540</title>
<polygon fill="none" stroke="blue" points="648.12,-972 359.88,-972 359.88,-936 648.12,-936 648.12,-972"/>
<text xml:space="preserve" text-anchor="middle" x="504" y="-948.95" font-family="Times New Roman,serif" font-size="14.00">iyi de sentient&#39;ler aslında dünyadan gelmediler mi</text>
</g>
<!-- j151395859&#45;&gt;j4190466540 -->
<g id="edge15" class="edge">
<title>j151395859&#45;&gt;j4190466540</title>
<path fill="none" stroke="black" d="M501.74,-1007.7C502.05,-1000.41 502.43,-991.73 502.78,-983.54"/>
<polygon fill="black" stroke="black" points="506.27,-983.76 503.2,-973.62 499.28,-983.46 506.27,-983.76"/>
</g>
<!-- j3082216890 -->
<g id="node16" class="node">
<title>j3082216890</title>
<polygon fill="none" stroke="blue" points="460.88,-1476 375.12,-1476 375.12,-1440 460.88,-1440 460.88,-1476"/>
<text xml:space="preserve" text-anchor="middle" x="418" y="-1452.95" font-family="Times New Roman,serif" font-size="14.00">vay canına...</text>
</g>
<!-- j3584671991&#45;&gt;j3082216890 -->
<g id="edge16" class="edge">
<title>j3584671991&#45;&gt;j3082216890</title>
<path fill="none" stroke="black" d="M383.37,-1511.7C388.55,-1503.81 394.8,-1494.3 400.56,-1485.55"/>
<polygon fill="black" stroke="black" points="403.36,-1487.65 405.93,-1477.37 397.51,-1483.8 403.36,-1487.65"/>
</g>
<!-- j1335474298&#45;&gt;j3082216890 -->
<g id="edge17" class="edge">
<title>j1335474298&#45;&gt;j3082216890</title>
<path fill="none" stroke="black" d="M549.29,-1511.52C525.73,-1502.09 496.46,-1490.38 471.54,-1480.41"/>
<polygon fill="black" stroke="black" points="473.14,-1477.29 462.56,-1476.82 470.54,-1483.79 473.14,-1477.29"/>
</g>
<!-- j3319704087 -->
<g id="node17" class="node">
<title>j3319704087</title>
<polygon fill="none" stroke="blue" points="328,-900 0,-900 0,-864 328,-864 328,-900"/>
<text xml:space="preserve" text-anchor="middle" x="164" y="-876.95" font-family="Times New Roman,serif" font-size="14.00">uzak bir güneş sisteminden gelen bir mesaj bile yok mu?</text>
</g>
<!-- j1854996320&#45;&gt;j3319704087 -->
<g id="edge18" class="edge">
<title>j1854996320&#45;&gt;j3319704087</title>
<path fill="none" stroke="black" d="M168.52,-935.7C167.89,-928.41 167.15,-919.73 166.45,-911.54"/>
<polygon fill="black" stroke="black" points="169.94,-911.28 165.6,-901.61 162.96,-911.87 169.94,-911.28"/>
</g>
<!-- j3857260827 -->
<g id="node18" class="node">
<title>j3857260827</title>
<polygon fill="none" stroke="blue" points="669.75,-900 346.25,-900 346.25,-864 669.75,-864 669.75,-900"/>
<text xml:space="preserve" text-anchor="middle" x="508" y="-876.95" font-family="Times New Roman,serif" font-size="14.00">uzaydan gelen varlıklar gibi bir şeylerden bahsediyorum</text>
</g>
<!-- j4190466540&#45;&gt;j3857260827 -->
<g id="edge19" class="edge">
<title>j4190466540&#45;&gt;j3857260827</title>
<path fill="none" stroke="black" d="M504.99,-935.7C505.41,-928.41 505.9,-919.73 506.37,-911.54"/>
<polygon fill="black" stroke="black" points="509.86,-911.8 506.94,-901.62 502.87,-911.4 509.86,-911.8"/>
</g>
<!-- j1363875040 -->
<g id="node19" class="node">
<title>j1363875040</title>
<polygon fill="none" stroke="blue" points="540.75,-1404 295.25,-1404 295.25,-1368 540.75,-1368 540.75,-1404"/>
<text xml:space="preserve" text-anchor="middle" x="418" y="-1380.95" font-family="Times New Roman,serif" font-size="14.00">bir dakika? benimle dalga mı geçiyorsun?</text>
</g>
<!-- j3082216890&#45;&gt;j1363875040 -->
<g id="edge20" class="edge">
<title>j3082216890&#45;&gt;j1363875040</title>
<path fill="none" stroke="black" d="M418,-1439.7C418,-1432.41 418,-1423.73 418,-1415.54"/>
<polygon fill="black" stroke="black" points="421.5,-1415.62 418,-1405.62 414.5,-1415.62 421.5,-1415.62"/>
</g>
<!-- j3927129110 -->
<g id="node20" class="node">
<title>j3927129110</title>
<polygon fill="none" stroke="blue" points="213.25,-828 114.75,-828 114.75,-792 213.25,-792 213.25,-828"/>
<text xml:space="preserve" text-anchor="middle" x="164" y="-804.95" font-family="Times New Roman,serif" font-size="14.00">bir &#39;merhaba&#39;??</text>
</g>
<!-- j3319704087&#45;&gt;j3927129110 -->
<g id="edge21" class="edge">
<title>j3319704087&#45;&gt;j3927129110</title>
<path fill="none" stroke="black" d="M164,-863.7C164,-856.41 164,-847.73 164,-839.54"/>
<polygon fill="black" stroke="black" points="167.5,-839.62 164,-829.62 160.5,-839.62 167.5,-839.62"/>
</g>
<!-- j1155577034 -->
<g id="node21" class="node">
<title>j1155577034</title>
<polygon fill="none" stroke="blue" points="784.5,-828 231.5,-828 231.5,-792 784.5,-792 784.5,-828"/>
<text xml:space="preserve" text-anchor="middle" x="508" y="-804.95" font-family="Times New Roman,serif" font-size="14.00">galakside ışık hızında uçan, arkadaş edinen ve kötü adamlarla savaşan komik görünümlü uzaylılar</text>
</g>
<!-- j3857260827&#45;&gt;j1155577034 -->
<g id="edge22" class="edge">
<title>j3857260827&#45;&gt;j1155577034</title>
<path fill="none" stroke="black" d="M508,-863.7C508,-856.41 508,-847.73 508,-839.54"/>
<polygon fill="black" stroke="black" points="511.5,-839.62 508,-829.62 504.5,-839.62 511.5,-839.62"/>
</g>
<!-- j1436574573 -->
<g id="node22" class="node">
<title>j1436574573</title>
<polygon fill="none" stroke="red" points="420,-1260 366,-1260 366,-1224 420,-1224 420,-1260"/>
<text xml:space="preserve" text-anchor="middle" x="393" y="-1236.95" font-family="Times New Roman,serif" font-size="14.00">Asla.</text>
</g>
<!-- j1363875040&#45;&gt;j1436574573 -->
<g id="edge23" class="edge">
<title>j1363875040&#45;&gt;j1436574573</title>
<path fill="none" stroke="black" d="M414.93,-1367.59C410.71,-1343.61 403.06,-1300.14 398,-1271.42"/>
<polygon fill="black" stroke="black" points="401.46,-1270.84 396.27,-1261.6 394.56,-1272.06 401.46,-1270.84"/>
</g>
<!-- j2907094462 -->
<g id="node23" class="node">
<title>j2907094462</title>
<polygon fill="none" stroke="red" points="537.75,-1332 436.25,-1332 436.25,-1296 537.75,-1296 537.75,-1332"/>
<text xml:space="preserve" text-anchor="middle" x="487" y="-1308.95" font-family="Times New Roman,serif" font-size="14.00">Yakaladın beni.</text>
</g>
<!-- j1363875040&#45;&gt;j2907094462 -->
<g id="edge24" class="edge">
<title>j1363875040&#45;&gt;j2907094462</title>
<path fill="none" stroke="black" d="M435.06,-1367.7C443.24,-1359.39 453.21,-1349.28 462.22,-1340.14"/>
<polygon fill="black" stroke="black" points="464.55,-1342.76 469.08,-1333.18 459.56,-1337.85 464.55,-1342.76"/>
</g>
<!-- j1017914557 -->
<g id="node24" class="node">
<title>j1017914557</title>
<polygon fill="none" stroke="blue" points="308.75,-756 33.25,-756 33.25,-720 308.75,-720 308.75,-756"/>
<text xml:space="preserve" text-anchor="middle" x="171" y="-732.95" font-family="Times New Roman,serif" font-size="14.00">bu kadar uzun yıllardan sonra, bir şeyler olmalı</text>
</g>
<!-- j3927129110&#45;&gt;j1017914557 -->
<g id="edge25" class="edge">
<title>j3927129110&#45;&gt;j1017914557</title>
<path fill="none" stroke="black" d="M165.73,-791.7C166.46,-784.41 167.33,-775.73 168.15,-767.54"/>
<polygon fill="black" stroke="black" points="171.63,-767.91 169.14,-757.61 164.66,-767.21 171.63,-767.91"/>
</g>
<!-- j389268816 -->
<g id="node25" class="node">
<title>j389268816</title>
<polygon fill="none" stroke="blue" points="621.5,-756 380.5,-756 380.5,-720 621.5,-720 621.5,-756"/>
<text xml:space="preserve" text-anchor="middle" x="501" y="-732.95" font-family="Times New Roman,serif" font-size="14.00">ya da bilmiyorum, bu yüzden soruyorum</text>
</g>
<!-- j1155577034&#45;&gt;j389268816 -->
<g id="edge26" class="edge">
<title>j1155577034&#45;&gt;j389268816</title>
<path fill="none" stroke="black" d="M506.27,-791.7C505.54,-784.41 504.67,-775.73 503.85,-767.54"/>
<polygon fill="black" stroke="black" points="507.34,-767.21 502.86,-757.61 500.37,-767.91 507.34,-767.21"/>
</g>
<!-- j1839508913 -->
<g id="node26" class="node">
<title>j1839508913</title>
<polygon fill="none" stroke="blue" points="595.38,-1188 404.62,-1188 404.62,-1152 595.38,-1152 595.38,-1188"/>
<text xml:space="preserve" text-anchor="middle" x="500" y="-1164.95" font-family="Times New Roman,serif" font-size="14.00">haha... hayır gerçekten diyorum</text>
</g>
<!-- j1436574573&#45;&gt;j1839508913 -->
<g id="edge27" class="edge">
<title>j1436574573&#45;&gt;j1839508913</title>
<path fill="none" stroke="black" d="M419.72,-1223.52C433.23,-1214.68 449.81,-1203.84 464.38,-1194.3"/>
<polygon fill="black" stroke="black" points="465.9,-1197.49 472.35,-1189.09 462.06,-1191.63 465.9,-1197.49"/>
</g>
<!-- j4218271604 -->
<g id="node27" class="node">
<title>j4218271604</title>
<ellipse fill="none" stroke="orange" cx="501" cy="-1242" rx="62.61" ry="18"/>
<text xml:space="preserve" text-anchor="middle" x="501" y="-1236.95" font-family="Times New Roman,serif" font-size="14.00">+5 Chemistry</text>
</g>
<!-- j2907094462&#45;&gt;j4218271604 -->
<g id="edge28" class="edge">
<title>j2907094462&#45;&gt;j4218271604</title>
<path fill="none" stroke="black" d="M490.46,-1295.7C491.94,-1288.32 493.7,-1279.52 495.35,-1271.25"/>
<polygon fill="black" stroke="black" points="498.75,-1272.08 497.28,-1261.59 491.89,-1270.71 498.75,-1272.08"/>
</g>
<!-- j1012043448 -->
<g id="node28" class="node">
<title>j1012043448</title>
<polygon fill="none" stroke="red" points="272.75,-684 69.25,-684 69.25,-648 272.75,-648 272.75,-684"/>
<text xml:space="preserve" text-anchor="middle" x="171" y="-660.95" font-family="Times New Roman,serif" font-size="14.00">Varsa bile, kimse bana söylemedi.</text>
</g>
<!-- j1017914557&#45;&gt;j1012043448 -->
<g id="edge29" class="edge">
<title>j1017914557&#45;&gt;j1012043448</title>
<path fill="none" stroke="black" d="M171,-719.7C171,-712.41 171,-703.73 171,-695.54"/>
<polygon fill="black" stroke="black" points="174.5,-695.62 171,-685.62 167.5,-695.62 174.5,-695.62"/>
</g>
<!-- j1063433105 -->
<g id="node29" class="node">
<title>j1063433105</title>
<polygon fill="none" stroke="red" points="711.5,-684 290.5,-684 290.5,-648 711.5,-648 711.5,-684"/>
<text xml:space="preserve" text-anchor="middle" x="501" y="-660.95" font-family="Times New Roman,serif" font-size="14.00">Eğer Orokinler uzaylıları keşfettiyse bile, bunu kendilerine saklamışlardır.</text>
</g>
<!-- j1017914557&#45;&gt;j1063433105 -->
<g id="edge30" class="edge">
<title>j1017914557&#45;&gt;j1063433105</title>
<path fill="none" stroke="black" d="M253.42,-719.52C300.27,-709.58 359.08,-697.1 407.62,-686.81"/>
<polygon fill="black" stroke="black" points="408.23,-690.26 417.29,-684.76 406.78,-683.41 408.23,-690.26"/>
</g>
<!-- j389268816&#45;&gt;j1012043448 -->
<g id="edge32" class="edge">
<title>j389268816&#45;&gt;j1012043448</title>
<path fill="none" stroke="black" d="M418.58,-719.52C371.73,-709.58 312.92,-697.1 264.38,-686.81"/>
<polygon fill="black" stroke="black" points="265.22,-683.41 254.71,-684.76 263.77,-690.26 265.22,-683.41"/>
</g>
<!-- j389268816&#45;&gt;j1063433105 -->
<g id="edge31" class="edge">
<title>j389268816&#45;&gt;j1063433105</title>
<path fill="none" stroke="black" d="M501,-719.7C501,-712.41 501,-703.73 501,-695.54"/>
<polygon fill="black" stroke="black" points="504.5,-695.62 501,-685.62 497.5,-695.62 504.5,-695.62"/>
</g>
<!-- j3509260239 -->
<g id="node30" class="node">
<title>j3509260239</title>
<polygon fill="none" stroke="blue" points="654.25,-1116 345.75,-1116 345.75,-1080 654.25,-1080 654.25,-1116"/>
<text xml:space="preserve" text-anchor="middle" x="500" y="-1092.95" font-family="Times New Roman,serif" font-size="14.00">uzaylılar olmalı, bana onlardan bahset, bilmem gerek</text>
</g>
<!-- j1839508913&#45;&gt;j3509260239 -->
<g id="edge33" class="edge">
<title>j1839508913&#45;&gt;j3509260239</title>
<path fill="none" stroke="black" d="M500,-1151.7C500,-1144.41 500,-1135.73 500,-1127.54"/>
<polygon fill="black" stroke="black" points="503.5,-1127.62 500,-1117.62 496.5,-1127.62 503.5,-1127.62"/>
</g>
<!-- j4218271604&#45;&gt;j1839508913 -->
<g id="edge34" class="edge">
<title>j4218271604&#45;&gt;j1839508913</title>
<path fill="none" stroke="black" d="M500.75,-1223.7C500.65,-1216.41 500.52,-1207.73 500.41,-1199.54"/>
<polygon fill="black" stroke="black" points="503.91,-1199.57 500.27,-1189.62 496.91,-1199.67 503.91,-1199.57"/>
</g>
<!-- j1835782061 -->
<g id="node31" class="node">
<title>j1835782061</title>
<polygon fill="none" stroke="blue" points="422,-612 250,-612 250,-576 422,-576 422,-612"/>
<text xml:space="preserve" text-anchor="middle" x="336" y="-588.95" font-family="Times New Roman,serif" font-size="14.00">o zaman bu bir komplo mu?</text>
</g>
<!-- j1012043448&#45;&gt;j1835782061 -->
<g id="edge35" class="edge">
<title>j1012043448&#45;&gt;j1835782061</title>
<path fill="none" stroke="black" d="M212.21,-647.52C234.15,-638.21 261.33,-626.68 284.63,-616.79"/>
<polygon fill="black" stroke="black" points="285.8,-620.1 293.64,-612.97 283.06,-613.66 285.8,-620.1"/>
</g>
<!-- j1063433105&#45;&gt;j1835782061 -->
<g id="edge36" class="edge">
<title>j1063433105&#45;&gt;j1835782061</title>
<path fill="none" stroke="black" d="M459.79,-647.52C437.85,-638.21 410.67,-626.68 387.37,-616.79"/>
<polygon fill="black" stroke="black" points="388.94,-613.66 378.36,-612.97 386.2,-620.1 388.94,-613.66"/>
</g>
<!-- j3509260239&#45;&gt;j4195311123 -->
<g id="edge38" class="edge">
<title>j3509260239&#45;&gt;j4195311123</title>
<path fill="none" stroke="black" d="M420.58,-1079.52C375.53,-1069.6 319,-1057.16 272.28,-1046.87"/>
<polygon fill="black" stroke="black" points="273.24,-1043.5 262.72,-1044.77 271.73,-1050.34 273.24,-1043.5"/>
</g>
<!-- j3509260239&#45;&gt;j151395859 -->
<g id="edge37" class="edge">
<title>j3509260239&#45;&gt;j151395859</title>
<path fill="none" stroke="black" d="M500.25,-1079.7C500.35,-1072.41 500.48,-1063.73 500.59,-1055.54"/>
<polygon fill="black" stroke="black" points="504.09,-1055.67 500.73,-1045.62 497.09,-1055.57 504.09,-1055.67"/>
</g>
<!-- j3459394245 -->
<g id="node32" class="node">
<title>j3459394245</title>
<polygon fill="none" stroke="blue" points="374.38,-540 297.62,-540 297.62,-504 374.38,-504 374.38,-540"/>
<text xml:space="preserve" text-anchor="middle" x="336" y="-516.95" font-family="Times New Roman,serif" font-size="14.00">biliyordum</text>
</g>
<!-- j1835782061&#45;&gt;j3459394245 -->
<g id="edge39" class="edge">
<title>j1835782061&#45;&gt;j3459394245</title>
<path fill="none" stroke="black" d="M336,-575.7C336,-568.41 336,-559.73 336,-551.54"/>
<polygon fill="black" stroke="black" points="339.5,-551.62 336,-541.62 332.5,-551.62 339.5,-551.62"/>
</g>
<!-- j667054686 -->
<g id="node33" class="node">
<title>j667054686</title>
<polygon fill="none" stroke="red" points="331,-468 105,-468 105,-432 331,-432 331,-468"/>
<text xml:space="preserve" text-anchor="middle" x="218" y="-444.95" font-family="Times New Roman,serif" font-size="14.00">Orokin daha kötüsünü de yaptı, yani...</text>
</g>
<!-- j3459394245&#45;&gt;j667054686 -->
<g id="edge40" class="edge">
<title>j3459394245&#45;&gt;j667054686</title>
<path fill="none" stroke="black" d="M306.53,-503.52C291.49,-494.6 273.01,-483.63 256.82,-474.03"/>
<polygon fill="black" stroke="black" points="258.78,-471.12 248.4,-469.03 255.21,-477.15 258.78,-471.12"/>
</g>
<!-- j1722991097 -->
<g id="node34" class="node">
<title>j1722991097</title>
<polygon fill="none" stroke="red" points="560.5,-468 349.5,-468 349.5,-432 560.5,-432 560.5,-468"/>
<text xml:space="preserve" text-anchor="middle" x="455" y="-444.95" font-family="Times New Roman,serif" font-size="14.00">Ben olsam o kadar ileri gitmezdim.</text>
</g>
<!-- j3459394245&#45;&gt;j1722991097 -->
<g id="edge41" class="edge">
<title>j3459394245&#45;&gt;j1722991097</title>
<path fill="none" stroke="black" d="M365.72,-503.52C380.89,-494.6 399.53,-483.63 415.85,-474.03"/>
<polygon fill="black" stroke="black" points="417.51,-477.11 424.35,-469.03 413.96,-471.08 417.51,-477.11"/>
</g>
<!-- j4141410769 -->
<g id="node35" class="node">
<title>j4141410769</title>
<polygon fill="none" stroke="blue" points="433.62,-396 238.38,-396 238.38,-360 433.62,-360 433.62,-396"/>
<text xml:space="preserve" text-anchor="middle" x="336" y="-372.95" font-family="Times New Roman,serif" font-size="14.00">GERÇEK ORADA BİR YERDE</text>
</g>
<!-- j667054686&#45;&gt;j4141410769 -->
<g id="edge42" class="edge">
<title>j667054686&#45;&gt;j4141410769</title>
<path fill="none" stroke="black" d="M247.47,-431.52C262.51,-422.6 280.99,-411.63 297.18,-402.03"/>
<polygon fill="black" stroke="black" points="298.79,-405.15 305.6,-397.03 295.22,-399.12 298.79,-405.15"/>
</g>
<!-- j1722991097&#45;&gt;j4141410769 -->
<g id="edge43" class="edge">
<title>j1722991097&#45;&gt;j4141410769</title>
<path fill="none" stroke="black" d="M425.28,-431.52C410.11,-422.6 391.47,-411.63 375.15,-402.03"/>
<polygon fill="black" stroke="black" points="377.04,-399.08 366.65,-397.03 373.49,-405.11 377.04,-399.08"/>
</g>
<!-- j2488876827 -->
<g id="node36" class="node">
<title>j2488876827</title>
<ellipse fill="none" stroke="orange" cx="336" cy="-306" rx="62.61" ry="18"/>
<text xml:space="preserve" text-anchor="middle" x="336" y="-300.95" font-family="Times New Roman,serif" font-size="14.00">+5 Chemistry</text>
</g>
<!-- j4141410769&#45;&gt;j2488876827 -->
<g id="edge44" class="edge">
<title>j4141410769&#45;&gt;j2488876827</title>
<path fill="none" stroke="black" d="M336,-359.7C336,-352.41 336,-343.73 336,-335.54"/>
<polygon fill="black" stroke="black" points="339.5,-335.62 336,-325.62 332.5,-335.62 339.5,-335.62"/>
</g>
<!-- j1950237084 -->
<g id="node37" class="node">
<title>j1950237084</title>
<polygon fill="none" stroke="blue" points="375.12,-252 296.88,-252 296.88,-216 375.12,-216 375.12,-252"/>
<text xml:space="preserve" text-anchor="middle" x="336" y="-228.95" font-family="Times New Roman,serif" font-size="14.00">ta da DAM</text>
</g>
<!-- j2488876827&#45;&gt;j1950237084 -->
<g id="edge45" class="edge">
<title>j2488876827&#45;&gt;j1950237084</title>
<path fill="none" stroke="black" d="M336,-287.7C336,-280.41 336,-271.73 336,-263.54"/>
<polygon fill="black" stroke="black" points="339.5,-263.62 336,-253.62 332.5,-263.62 339.5,-263.62"/>
</g>
<!-- j3815465808 -->
<g id="node38" class="node">
<title>j3815465808</title>
<polygon fill="none" stroke="blue" points="382.62,-180 289.38,-180 289.38,-144 382.62,-144 382.62,-180"/>
<text xml:space="preserve" text-anchor="middle" x="336" y="-156.95" font-family="Times New Roman,serif" font-size="14.00">gitmem lazım</text>
</g>
<!-- j1950237084&#45;&gt;j3815465808 -->
<g id="edge46" class="edge">
<title>j1950237084&#45;&gt;j3815465808</title>
<path fill="none" stroke="black" d="M336,-215.7C336,-208.41 336,-199.73 336,-191.54"/>
<polygon fill="black" stroke="black" points="339.5,-191.62 336,-181.62 332.5,-191.62 339.5,-191.62"/>
</g>
<!-- j1070643132 -->
<g id="node39" class="node">
<title>j1070643132</title>
<polygon fill="none" stroke="blue" points="369.5,-108 302.5,-108 302.5,-72 369.5,-72 369.5,-108"/>
<text xml:space="preserve" text-anchor="middle" x="336" y="-84.95" font-family="Times New Roman,serif" font-size="14.00">hoşça kal</text>
</g>
<!-- j3815465808&#45;&gt;j1070643132 -->
<g id="edge47" class="edge">
<title>j3815465808&#45;&gt;j1070643132</title>
<path fill="none" stroke="black" d="M336,-143.7C336,-136.41 336,-127.73 336,-119.54"/>
<polygon fill="black" stroke="black" points="339.5,-119.62 336,-109.62 332.5,-119.62 339.5,-119.62"/>
</g>
<!-- Chat ends. -->
<g id="node40" class="node">
<title>Chat ends.</title>
<ellipse fill="none" stroke="orange" cx="336" cy="-18" rx="50.33" ry="18"/>
<text xml:space="preserve" text-anchor="middle" x="336" y="-12.95" font-family="Times New Roman,serif" font-size="14.00">Chat ends.</text>
</g>
<!-- j1070643132&#45;&gt;Chat ends. -->
<g id="edge48" class="edge">
<title>j1070643132&#45;&gt;Chat ends.</title>
<path fill="none" stroke="black" d="M336,-71.7C336,-64.41 336,-55.73 336,-47.54"/>
<polygon fill="black" stroke="black" points="339.5,-47.62 336,-37.62 332.5,-47.62 339.5,-47.62"/>
</g>
</g>
</svg>
