<?xml version="1.0" encoding="UTF-8" standalone="no"?>
<!DOCTYPE svg PUBLIC "-//W3C//DTD SVG 1.1//EN"
 "http://www.w3.org/Graphics/SVG/1.1/DTD/svg11.dtd">
<!-- Generated by graphviz version 7.1.0 (20230121.1956)
 -->
<!-- Pages: 1 -->
<svg width="2111pt" height="1617pt"
 viewBox="0.00 0.00 2110.50 1617.00" xmlns="http://www.w3.org/2000/svg" xmlns:xlink="http://www.w3.org/1999/xlink">
<g id="graph0" class="graph" transform="scale(1 1) rotate(0) translate(4 1613)">
<polygon fill="white" stroke="none" points="-4,4 -4,-1613 2106.5,-1613 2106.5,4 -4,4"/>
<!-- AmirRank1Convo4 begins. -->
<g id="node1" class="node">
<title>AmirRank1Convo4 begins.</title>
<ellipse fill="none" stroke="orange" cx="1104" cy="-1591" rx="109.68" ry="18"/>
<text text-anchor="middle" x="1104" y="-1587.3" font-family="Times New Roman,serif" font-size="14.00">AmirRank1Convo4 begins.</text>
</g>
<!-- j558436762 -->
<g id="node2" class="node">
<title>j558436762</title>
<polygon fill="none" stroke="red" points="1374.5,-1536 1123.5,-1536 1123.5,-1500 1374.5,-1500 1374.5,-1536"/>
<text text-anchor="middle" x="1249" y="-1514.3" font-family="Times New Roman,serif" font-size="14.00">Peki seninle Quincy arasındaki olay nedir?</text>
</g>
<!-- AmirRank1Convo4 begins.&#45;&gt;j558436762 -->
<g id="edge1" class="edge">
<title>AmirRank1Convo4 begins.&#45;&gt;j558436762</title>
<path fill="none" stroke="black" d="M1137.63,-1573.53C1157.11,-1563.99 1181.92,-1551.85 1203.17,-1541.44"/>
<polygon fill="black" stroke="black" points="1204.47,-1544.7 1211.91,-1537.16 1201.39,-1538.41 1204.47,-1544.7"/>
</g>
<!-- j1595069798 -->
<g id="node3" class="node">
<title>j1595069798</title>
<polygon fill="none" stroke="red" points="1174.5,-1482 995.5,-1482 995.5,-1446 1174.5,-1446 1174.5,-1482"/>
<text text-anchor="middle" x="1085" y="-1460.3" font-family="Times New Roman,serif" font-size="14.00">Bana biraz kendinden bahset.</text>
</g>
<!-- AmirRank1Convo4 begins.&#45;&gt;j1595069798 -->
<g id="edge2" class="edge">
<title>AmirRank1Convo4 begins.&#45;&gt;j1595069798</title>
<path fill="none" stroke="black" d="M1101.36,-1572.62C1098.24,-1552.1 1093.01,-1517.67 1089.3,-1493.29"/>
<polygon fill="black" stroke="black" points="1092.81,-1493.09 1087.85,-1483.73 1085.89,-1494.14 1092.81,-1493.09"/>
</g>
<!-- j1542158811 -->
<g id="node4" class="node">
<title>j1542158811</title>
<polygon fill="none" stroke="blue" points="1353,-1428 1151,-1428 1151,-1392 1353,-1392 1353,-1428"/>
<text text-anchor="middle" x="1252" y="-1406.3" font-family="Times New Roman,serif" font-size="14.00">o bir pislik ve pisliğin teki...bazen</text>
</g>
<!-- j558436762&#45;&gt;j1542158811 -->
<g id="edge3" class="edge">
<title>j558436762&#45;&gt;j1542158811</title>
<path fill="none" stroke="black" d="M1249.48,-1499.97C1249.94,-1483.76 1250.64,-1459.06 1251.19,-1439.79"/>
<polygon fill="black" stroke="black" points="1254.68,-1439.95 1251.47,-1429.85 1247.68,-1439.75 1254.68,-1439.95"/>
</g>
<!-- j1294874749 -->
<g id="node5" class="node">
<title>j1294874749</title>
<polygon fill="none" stroke="blue" points="1238,-1374 848,-1374 848,-1338 1238,-1338 1238,-1374"/>
<text text-anchor="middle" x="1043" y="-1352.3" font-family="Times New Roman,serif" font-size="14.00">aman tanrım, benim hakkımda mı? gerçekten mi? ::gözlerini kırpar::</text>
</g>
<!-- j1595069798&#45;&gt;j1294874749 -->
<g id="edge4" class="edge">
<title>j1595069798&#45;&gt;j1294874749</title>
<path fill="none" stroke="black" d="M1078.25,-1445.97C1071.74,-1429.53 1061.76,-1404.35 1054.08,-1384.97"/>
<polygon fill="black" stroke="black" points="1057.37,-1383.76 1050.43,-1375.75 1050.86,-1386.33 1057.37,-1383.76"/>
</g>
<!-- j1866881614 -->
<g id="node6" class="node">
<title>j1866881614</title>
<polygon fill="none" stroke="blue" points="1335.5,-1320 1192.5,-1320 1192.5,-1284 1335.5,-1284 1335.5,-1320"/>
<text text-anchor="middle" x="1264" y="-1298.3" font-family="Times New Roman,serif" font-size="14.00">bunun haricinde iyi biri</text>
</g>
<!-- j1542158811&#45;&gt;j1866881614 -->
<g id="edge5" class="edge">
<title>j1542158811&#45;&gt;j1866881614</title>
<path fill="none" stroke="black" d="M1253.93,-1391.97C1255.77,-1375.69 1258.59,-1350.82 1260.77,-1331.52"/>
<polygon fill="black" stroke="black" points="1264.22,-1332.17 1261.87,-1321.84 1257.26,-1331.39 1264.22,-1332.17"/>
</g>
<!-- j1161954368 -->
<g id="node7" class="node">
<title>j1161954368</title>
<polygon fill="none" stroke="blue" points="1239.5,-1266 840.5,-1266 840.5,-1230 1239.5,-1230 1239.5,-1266"/>
<text text-anchor="middle" x="1040" y="-1244.3" font-family="Times New Roman,serif" font-size="14.00">birinin işlev bozukluğunu gerçekten kontrol edebilir misin bilmiyorum</text>
</g>
<!-- j1294874749&#45;&gt;j1161954368 -->
<g id="edge6" class="edge">
<title>j1294874749&#45;&gt;j1161954368</title>
<path fill="none" stroke="black" d="M1042.52,-1337.97C1042.06,-1321.76 1041.36,-1297.06 1040.81,-1277.79"/>
<polygon fill="black" stroke="black" points="1044.32,-1277.75 1040.53,-1267.85 1037.32,-1277.95 1044.32,-1277.75"/>
</g>
<!-- j717557100 -->
<g id="node8" class="node">
<title>j717557100</title>
<polygon fill="none" stroke="blue" points="1557.5,-1212 1032.5,-1212 1032.5,-1176 1557.5,-1176 1557.5,-1212"/>
<text text-anchor="middle" x="1295" y="-1190.3" font-family="Times New Roman,serif" font-size="14.00">ondan nefret ediyorum ama onun için ölürüm o aslında bıçaklamak istediğim bir kardeş gibi</text>
</g>
<!-- j1866881614&#45;&gt;j717557100 -->
<g id="edge7" class="edge">
<title>j1866881614&#45;&gt;j717557100</title>
<path fill="none" stroke="black" d="M1268.98,-1283.97C1273.77,-1267.61 1281.08,-1242.59 1286.74,-1223.24"/>
<polygon fill="black" stroke="black" points="1290.06,-1224.37 1289.5,-1213.79 1283.34,-1222.41 1290.06,-1224.37"/>
</g>
<!-- j3648778965 -->
<g id="node9" class="node">
<title>j3648778965</title>
<polygon fill="none" stroke="blue" points="1208,-1158 790,-1158 790,-1122 1208,-1122 1208,-1158"/>
<text text-anchor="middle" x="999" y="-1136.3" font-family="Times New Roman,serif" font-size="14.00">ama şunu bilmelisin ki işlev bozukluğunun İŞLEVİNİ oraya ben koydum</text>
</g>
<!-- j1161954368&#45;&gt;j3648778965 -->
<g id="edge8" class="edge">
<title>j1161954368&#45;&gt;j3648778965</title>
<path fill="none" stroke="black" d="M1031.09,-1229.75C1028.34,-1224.15 1025.41,-1217.88 1023,-1212 1017.31,-1198.13 1011.88,-1182.35 1007.63,-1169.21"/>
<polygon fill="black" stroke="black" points="1011.03,-1168.36 1004.68,-1159.88 1004.36,-1170.47 1011.03,-1168.36"/>
</g>
<!-- j2704137103 -->
<g id="node10" class="node">
<title>j2704137103</title>
<polygon fill="none" stroke="blue" points="1326.5,-1104 1265.5,-1104 1265.5,-1068 1326.5,-1068 1326.5,-1104"/>
<text text-anchor="middle" x="1296" y="-1082.3" font-family="Times New Roman,serif" font-size="14.00">yavaşça</text>
</g>
<!-- j717557100&#45;&gt;j2704137103 -->
<g id="edge9" class="edge">
<title>j717557100&#45;&gt;j2704137103</title>
<path fill="none" stroke="black" d="M1295.16,-1175.97C1295.31,-1159.76 1295.55,-1135.06 1295.73,-1115.79"/>
<polygon fill="black" stroke="black" points="1299.23,-1115.89 1295.82,-1105.85 1292.23,-1115.82 1299.23,-1115.89"/>
</g>
<!-- j3470683531 -->
<g id="node11" class="node">
<title>j3470683531</title>
<polygon fill="none" stroke="blue" points="1139.5,-885 820.5,-885 820.5,-849 1139.5,-849 1139.5,-885"/>
<text text-anchor="middle" x="980" y="-863.3" font-family="Times New Roman,serif" font-size="14.00">GERÇEKTEN NE HAKKINDA KONUŞUYORDUK</text>
</g>
<!-- j3648778965&#45;&gt;j3470683531 -->
<g id="edge10" class="edge">
<title>j3648778965&#45;&gt;j3470683531</title>
<path fill="none" stroke="black" d="M997.13,-1121.63C995.37,-1103.71 993,-1074.93 993,-1050 993,-1050 993,-1050 993,-939 993,-924.8 990.45,-909.26 987.61,-896.35"/>
<polygon fill="black" stroke="black" points="991.06,-895.73 985.34,-886.82 984.26,-897.36 991.06,-895.73"/>
</g>
<!-- j1211198952 -->
<g id="node12" class="node">
<title>j1211198952</title>
<polygon fill="none" stroke="blue" points="1338.5,-1031 1255.5,-1031 1255.5,-995 1338.5,-995 1338.5,-1031"/>
<text text-anchor="middle" x="1297" y="-1009.3" font-family="Times New Roman,serif" font-size="14.00">tekrar tekrar</text>
</g>
<!-- j2704137103&#45;&gt;j1211198952 -->
<g id="edge11" class="edge">
<title>j2704137103&#45;&gt;j1211198952</title>
<path fill="none" stroke="black" d="M1296.24,-1067.81C1296.35,-1060.23 1296.48,-1051.1 1296.6,-1042.54"/>
<polygon fill="black" stroke="black" points="1300.1,-1042.59 1296.74,-1032.54 1293.1,-1042.49 1300.1,-1042.59"/>
</g>
<!-- j368268922 -->
<g id="node13" class="node">
<title>j368268922</title>
<polygon fill="none" stroke="red" points="1364.5,-812 1231.5,-812 1231.5,-776 1364.5,-776 1364.5,-812"/>
<text text-anchor="middle" x="1298" y="-790.3" font-family="Times New Roman,serif" font-size="14.00">Vay canına, dostum.</text>
</g>
<!-- j3470683531&#45;&gt;j368268922 -->
<g id="edge12" class="edge">
<title>j3470683531&#45;&gt;j368268922</title>
<path fill="none" stroke="black" d="M1058.2,-848.54C1107.42,-837.55 1170.71,-823.42 1219.91,-812.43"/>
<polygon fill="black" stroke="black" points="1220.66,-815.85 1229.66,-810.26 1219.14,-809.02 1220.66,-815.85"/>
</g>
<!-- j1271044378 -->
<g id="node14" class="node">
<title>j1271044378</title>
<polygon fill="none" stroke="red" points="1210,-812 740,-812 740,-776 1210,-776 1210,-812"/>
<text text-anchor="middle" x="975" y="-790.3" font-family="Times New Roman,serif" font-size="14.00">Senin hakkında bir şeyler öğrenmek istiyorum. Örneğin, en sevdiğin yemek nedir?</text>
</g>
<!-- j3470683531&#45;&gt;j1271044378 -->
<g id="edge13" class="edge">
<title>j3470683531&#45;&gt;j1271044378</title>
<path fill="none" stroke="black" d="M978.79,-848.81C978.25,-841.14 977.6,-831.89 976.99,-823.24"/>
<polygon fill="black" stroke="black" points="980.5,-823.27 976.31,-813.54 973.52,-823.76 980.5,-823.27"/>
</g>
<!-- j1025666194 -->
<g id="node15" class="node">
<title>j1025666194</title>
<polygon fill="none" stroke="red" points="717,-812 259,-812 259,-776 717,-776 717,-812"/>
<text text-anchor="middle" x="488" y="-790.3" font-family="Times New Roman,serif" font-size="14.00">Senin hakkında bir şeyler öğrenmek istiyorum. Örneğin, en sevdiğin renk nedir?</text>
</g>
<!-- j3470683531&#45;&gt;j1025666194 -->
<g id="edge14" class="edge">
<title>j3470683531&#45;&gt;j1025666194</title>
<path fill="none" stroke="black" d="M859.01,-848.54C786.62,-838.09 694.55,-824.81 620.24,-814.08"/>
<polygon fill="black" stroke="black" points="620.84,-810.63 610.44,-812.67 619.84,-817.56 620.84,-810.63"/>
</g>
<!-- j2660902166 -->
<g id="node16" class="node">
<title>j2660902166</title>
<polygon fill="none" stroke="blue" points="1325.5,-958 1268.5,-958 1268.5,-922 1325.5,-922 1325.5,-958"/>
<text text-anchor="middle" x="1297" y="-936.3" font-family="Times New Roman,serif" font-size="14.00">neşeyle</text>
</g>
<!-- j1211198952&#45;&gt;j2660902166 -->
<g id="edge15" class="edge">
<title>j1211198952&#45;&gt;j2660902166</title>
<path fill="none" stroke="black" d="M1297,-994.81C1297,-987.23 1297,-978.1 1297,-969.54"/>
<polygon fill="black" stroke="black" points="1300.5,-969.54 1297,-959.54 1293.5,-969.54 1300.5,-969.54"/>
</g>
<!-- j2714450792 -->
<g id="node17" class="node">
<title>j2714450792</title>
<polygon fill="none" stroke="blue" points="1494,-739 1112,-739 1112,-703 1494,-703 1494,-739"/>
<text text-anchor="middle" x="1303" y="-717.3" font-family="Times New Roman,serif" font-size="14.00">evettamambuçokmufazlaydımuhtemelençokfazlaydıHAHAHAHA</text>
</g>
<!-- j368268922&#45;&gt;j2714450792 -->
<g id="edge16" class="edge">
<title>j368268922&#45;&gt;j2714450792</title>
<path fill="none" stroke="black" d="M1299.21,-775.81C1299.75,-768.14 1300.4,-758.89 1301.01,-750.24"/>
<polygon fill="black" stroke="black" points="1304.48,-750.76 1301.69,-740.54 1297.5,-750.27 1304.48,-750.76"/>
</g>
<!-- j2633479849 -->
<g id="node18" class="node">
<title>j2633479849</title>
<polygon fill="none" stroke="blue" points="1093.5,-739 704.5,-739 704.5,-703 1093.5,-703 1093.5,-739"/>
<text text-anchor="middle" x="899" y="-717.3" font-family="Times New Roman,serif" font-size="14.00">ah! kolay soru! pad thai! :D aaaah pad thai yemeye gidebilir miyiz?!</text>
</g>
<!-- j1271044378&#45;&gt;j2633479849 -->
<g id="edge17" class="edge">
<title>j1271044378&#45;&gt;j2633479849</title>
<path fill="none" stroke="black" d="M956.6,-775.81C947.34,-767.16 935.93,-756.5 925.72,-746.96"/>
<polygon fill="black" stroke="black" points="928.29,-744.58 918.6,-740.31 923.52,-749.69 928.29,-744.58"/>
</g>
<!-- j2655579650 -->
<g id="node19" class="node">
<title>j2655579650</title>
<polygon fill="none" stroke="blue" points="684.5,-739 227.5,-739 227.5,-703 684.5,-703 684.5,-739"/>
<text text-anchor="middle" x="456" y="-717.3" font-family="Times New Roman,serif" font-size="14.00">mavi! Çok şanslıyım çünkü yıldırımlar ve benzeri şeyler den de mavi çıkıyor...</text>
</g>
<!-- j1025666194&#45;&gt;j2655579650 -->
<g id="edge18" class="edge">
<title>j1025666194&#45;&gt;j2655579650</title>
<path fill="none" stroke="black" d="M480.25,-775.81C476.68,-767.88 472.34,-758.26 468.33,-749.36"/>
<polygon fill="black" stroke="black" points="471.6,-748.09 464.3,-740.41 465.22,-750.96 471.6,-748.09"/>
</g>
<!-- j3573523282 -->
<g id="node20" class="node">
<title>j3573523282</title>
<polygon fill="none" stroke="blue" points="1437.5,-885 1158.5,-885 1158.5,-849 1437.5,-849 1437.5,-885"/>
<text text-anchor="middle" x="1298" y="-863.3" font-family="Times New Roman,serif" font-size="14.00">NEDEN BİRAZ GERGİN HİSSEDİYORSUN</text>
</g>
<!-- j2660902166&#45;&gt;j3573523282 -->
<g id="edge19" class="edge">
<title>j2660902166&#45;&gt;j3573523282</title>
<path fill="none" stroke="black" d="M1297.24,-921.81C1297.35,-914.23 1297.48,-905.1 1297.6,-896.54"/>
<polygon fill="black" stroke="black" points="1301.1,-896.59 1297.74,-886.54 1294.1,-896.49 1301.1,-896.59"/>
</g>
<!-- j1302982732 -->
<g id="node21" class="node">
<title>j1302982732</title>
<polygon fill="none" stroke="blue" points="1483,-666 1155,-666 1155,-630 1483,-630 1483,-666"/>
<text text-anchor="middle" x="1319" y="-644.3" font-family="Times New Roman,serif" font-size="14.00">fffhnnghkkkaaahhhgidipbununüzerinebirazkoşmamlazım</text>
</g>
<!-- j2714450792&#45;&gt;j1302982732 -->
<g id="edge20" class="edge">
<title>j2714450792&#45;&gt;j1302982732</title>
<path fill="none" stroke="black" d="M1306.87,-702.81C1308.6,-695.14 1310.69,-685.89 1312.64,-677.24"/>
<polygon fill="black" stroke="black" points="1316.05,-678.03 1314.83,-667.51 1309.22,-676.49 1316.05,-678.03"/>
</g>
<!-- j2728396894 -->
<g id="node22" class="node">
<title>j2728396894</title>
<ellipse fill="none" stroke="orange" cx="901" cy="-648" rx="122.38" ry="18"/>
<text text-anchor="middle" x="901" y="-644.3" font-family="Times New Roman,serif" font-size="14.00">Boolean AmirThai is now true.</text>
</g>
<!-- j2633479849&#45;&gt;j2728396894 -->
<g id="edge21" class="edge">
<title>j2633479849&#45;&gt;j2728396894</title>
<path fill="none" stroke="black" d="M899.48,-702.81C899.7,-695.14 899.96,-685.89 900.2,-677.24"/>
<polygon fill="black" stroke="black" points="903.69,-677.64 900.48,-667.54 896.7,-677.44 903.69,-677.64"/>
</g>
<!-- j1791474999 -->
<g id="node23" class="node">
<title>j1791474999</title>
<ellipse fill="none" stroke="orange" cx="441" cy="-648" rx="156.77" ry="18"/>
<text text-anchor="middle" x="441" y="-644.3" font-family="Times New Roman,serif" font-size="14.00">Boolean AmirFavoriteColor is now true.</text>
</g>
<!-- j2655579650&#45;&gt;j1791474999 -->
<g id="edge22" class="edge">
<title>j2655579650&#45;&gt;j1791474999</title>
<path fill="none" stroke="black" d="M452.37,-702.81C450.75,-695.14 448.79,-685.89 446.97,-677.24"/>
<polygon fill="black" stroke="black" points="450.4,-676.57 444.91,-667.51 443.55,-678.02 450.4,-676.57"/>
</g>
<!-- j3573523282&#45;&gt;j368268922 -->
<g id="edge24" class="edge">
<title>j3573523282&#45;&gt;j368268922</title>
<path fill="none" stroke="black" d="M1298,-848.81C1298,-841.23 1298,-832.1 1298,-823.54"/>
<polygon fill="black" stroke="black" points="1301.5,-823.54 1298,-813.54 1294.5,-823.54 1301.5,-823.54"/>
</g>
<!-- j4105508927 -->
<g id="node24" class="node">
<title>j4105508927</title>
<polygon fill="none" stroke="red" points="1752.5,-812 1387.5,-812 1387.5,-776 1752.5,-776 1752.5,-812"/>
<text text-anchor="middle" x="1570" y="-790.3" font-family="Times New Roman,serif" font-size="14.00">Birbirinizden neden hoşlanmadığınızı bir türlü anlayamıyorum.</text>
</g>
<!-- j3573523282&#45;&gt;j4105508927 -->
<g id="edge23" class="edge">
<title>j3573523282&#45;&gt;j4105508927</title>
<path fill="none" stroke="black" d="M1364.89,-848.54C1403.42,-838.48 1452.03,-825.79 1492.26,-815.29"/>
<polygon fill="black" stroke="black" points="1493.12,-818.69 1501.91,-812.77 1491.35,-811.91 1493.12,-818.69"/>
</g>
<!-- j577697969 -->
<g id="node25" class="node">
<title>j577697969</title>
<ellipse fill="none" stroke="orange" cx="1343" cy="-521" rx="120.78" ry="18"/>
<text text-anchor="middle" x="1343" y="-517.3" font-family="Times New Roman,serif" font-size="14.00">Boolean AmirRun is now true.</text>
</g>
<!-- j1302982732&#45;&gt;j577697969 -->
<g id="edge25" class="edge">
<title>j1302982732&#45;&gt;j577697969</title>
<path fill="none" stroke="black" d="M1322.34,-629.62C1326.28,-609.1 1332.89,-574.67 1337.57,-550.29"/>
<polygon fill="black" stroke="black" points="1340.96,-551.2 1339.41,-540.72 1334.08,-549.88 1340.96,-551.2"/>
</g>
<!-- j3236503875 -->
<g id="node26" class="node">
<title>j3236503875</title>
<ellipse fill="none" stroke="orange" cx="901" cy="-575" rx="126.98" ry="18"/>
<text text-anchor="middle" x="901" y="-571.3" font-family="Times New Roman,serif" font-size="14.00">Check boolean SquareSpaghetti</text>
</g>
<!-- j2728396894&#45;&gt;j3236503875 -->
<g id="edge26" class="edge">
<title>j2728396894&#45;&gt;j3236503875</title>
<path fill="none" stroke="black" d="M901,-629.81C901,-622.23 901,-613.1 901,-604.54"/>
<polygon fill="black" stroke="black" points="904.5,-604.54 901,-594.54 897.5,-604.54 904.5,-604.54"/>
</g>
<!-- j961602954 -->
<g id="node27" class="node">
<title>j961602954</title>
<polygon fill="none" stroke="blue" points="500,-593 262,-593 262,-557 500,-557 500,-593"/>
<text text-anchor="middle" x="381" y="-571.3" font-family="Times New Roman,serif" font-size="14.00">neden? bana güzel bir şey mi alacaksın?</text>
</g>
<!-- j1791474999&#45;&gt;j961602954 -->
<g id="edge27" class="edge">
<title>j1791474999&#45;&gt;j961602954</title>
<path fill="none" stroke="black" d="M426.48,-629.81C419.33,-621.35 410.56,-610.98 402.64,-601.61"/>
<polygon fill="black" stroke="black" points="405.5,-599.56 396.37,-594.18 400.15,-604.08 405.5,-599.56"/>
</g>
<!-- j11148957 -->
<g id="node28" class="node">
<title>j11148957</title>
<polygon fill="none" stroke="blue" points="1641.5,-739 1512.5,-739 1512.5,-703 1641.5,-703 1641.5,-739"/>
<text text-anchor="middle" x="1577" y="-717.3" font-family="Times New Roman,serif" font-size="14.00">ben... özel bir şeyim</text>
</g>
<!-- j4105508927&#45;&gt;j11148957 -->
<g id="edge28" class="edge">
<title>j4105508927&#45;&gt;j11148957</title>
<path fill="none" stroke="black" d="M1571.69,-775.81C1572.45,-768.14 1573.36,-758.89 1574.22,-750.24"/>
<polygon fill="black" stroke="black" points="1577.67,-750.83 1575.17,-740.54 1570.71,-750.14 1577.67,-750.83"/>
</g>
<!-- Chat ends. -->
<g id="node29" class="node">
<title>Chat ends.</title>
<ellipse fill="none" stroke="orange" cx="1298" cy="-18" rx="50.09" ry="18"/>
<text text-anchor="middle" x="1298" y="-14.3" font-family="Times New Roman,serif" font-size="14.00">Chat ends.</text>
</g>
<!-- j577697969&#45;&gt;Chat ends. -->
<g id="edge29" class="edge">
<title>j577697969&#45;&gt;Chat ends.</title>
<path fill="none" stroke="black" d="M1343.87,-502.75C1344.75,-483.63 1346,-451.87 1346,-424.5 1346,-424.5 1346,-424.5 1346,-90 1346,-72.35 1335.69,-55.81 1324.63,-43.15"/>
<polygon fill="black" stroke="black" points="1327.42,-41 1318.01,-36.13 1322.33,-45.8 1327.42,-41"/>
</g>
<!-- j1235602855 -->
<g id="node30" class="node">
<title>j1235602855</title>
<polygon fill="none" stroke="blue" points="1124,-485 678,-485 678,-449 1124,-449 1124,-485"/>
<text text-anchor="middle" x="901" y="-463.3" font-family="Times New Roman,serif" font-size="14.00">yoksa sadece o kabus spagetti gibi küçük kareler şeklinde mi yemek yiyorsun</text>
</g>
<!-- j3236503875&#45;&gt;j1235602855 -->
<g id="edge30" class="edge">
<title>j3236503875&#45;&gt;j1235602855</title>
<path fill="none" stroke="green" d="M901,-556.97C901,-540.76 901,-516.06 901,-496.79"/>
<polygon fill="green" stroke="green" points="904.5,-496.85 901,-486.85 897.5,-496.85 904.5,-496.85"/>
<text text-anchor="middle" x="912" y="-517.3" font-family="Times New Roman,serif" font-size="14.00">true</text>
</g>
<!-- j1970249936 -->
<g id="node31" class="node">
<title>j1970249936</title>
<polygon fill="none" stroke="red" points="1318,-290 1090,-290 1090,-254 1318,-254 1318,-290"/>
<text text-anchor="middle" x="1204" y="-268.3" font-family="Times New Roman,serif" font-size="14.00">Thai&#39;yi de pas geçeceğim, teşekkürler.</text>
</g>
<!-- j3236503875&#45;&gt;j1970249936 -->
<g id="edge31" class="edge">
<title>j3236503875&#45;&gt;j1970249936</title>
<path fill="none" stroke="brown" d="M1001.46,-563.65C1044.69,-557.85 1089.52,-549.63 1108,-539 1191.65,-490.91 1203.44,-359.9 1204.41,-301.62"/>
<polygon fill="brown" stroke="brown" points="1207.91,-301.87 1204.46,-291.85 1200.91,-301.83 1207.91,-301.87"/>
<text text-anchor="middle" x="1202" y="-419.8" font-family="Times New Roman,serif" font-size="14.00">false</text>
</g>
<!-- j3753599525 -->
<g id="node32" class="node">
<title>j3753599525</title>
<polygon fill="none" stroke="red" points="1071.5,-290 752.5,-290 752.5,-254 1071.5,-254 1071.5,-290"/>
<text text-anchor="middle" x="912" y="-268.3" font-family="Times New Roman,serif" font-size="14.00">&quot;Pad thai&quot;nin ne olduğunu bilmiyorum ama ben varım.</text>
</g>
<!-- j3236503875&#45;&gt;j3753599525 -->
<g id="edge32" class="edge">
<title>j3236503875&#45;&gt;j3753599525</title>
<path fill="none" stroke="brown" d="M997.08,-562.84C1046.42,-551.7 1102.45,-529.44 1133,-485 1144.29,-468.57 1157.78,-399.76 1132,-362 1108.75,-327.94 1070.05,-306.91 1031.54,-293.92"/>
<polygon fill="brown" stroke="brown" points="1032.73,-290.63 1022.14,-290.93 1030.6,-297.3 1032.73,-290.63"/>
<text text-anchor="middle" x="1160" y="-419.8" font-family="Times New Roman,serif" font-size="14.00">false</text>
</g>
<!-- j2831864360 -->
<g id="node33" class="node">
<title>j2831864360</title>
<polygon fill="none" stroke="red" points="734,-290 518,-290 518,-254 734,-254 734,-290"/>
<text text-anchor="middle" x="626" y="-268.3" font-family="Times New Roman,serif" font-size="14.00">Seninle pad thai yemeyi çok isterim.</text>
</g>
<!-- j3236503875&#45;&gt;j2831864360 -->
<g id="edge33" class="edge">
<title>j3236503875&#45;&gt;j2831864360</title>
<path fill="none" stroke="brown" d="M815.02,-561.45C765.49,-549.8 705.92,-527.5 669,-485 623.75,-432.91 621.3,-346.39 623.53,-301.7"/>
<polygon fill="brown" stroke="brown" points="627.02,-301.97 624.15,-291.77 620.03,-301.53 627.02,-301.97"/>
<text text-anchor="middle" x="652" y="-419.8" font-family="Times New Roman,serif" font-size="14.00">false</text>
</g>
<!-- j3320109791 -->
<g id="node34" class="node">
<title>j3320109791</title>
<polygon fill="none" stroke="blue" points="375.5,-485 226.5,-485 226.5,-449 375.5,-449 375.5,-485"/>
<text text-anchor="middle" x="301" y="-463.3" font-family="Times New Roman,serif" font-size="14.00">hımmmmmmmmmmm?</text>
</g>
<!-- j961602954&#45;&gt;j3320109791 -->
<g id="edge34" class="edge">
<title>j961602954&#45;&gt;j3320109791</title>
<path fill="none" stroke="black" d="M368.15,-556.97C355.39,-540.07 335.67,-513.94 320.89,-494.36"/>
<polygon fill="black" stroke="black" points="323.82,-492.42 315,-486.55 318.23,-496.64 323.82,-492.42"/>
</g>
<!-- j1460611309 -->
<g id="node35" class="node">
<title>j1460611309</title>
<polygon fill="none" stroke="blue" points="1644.5,-666 1507.5,-666 1507.5,-630 1644.5,-630 1644.5,-666"/>
<text text-anchor="middle" x="1576" y="-644.3" font-family="Times New Roman,serif" font-size="14.00">tıpkı iyi bir şarap gibi</text>
</g>
<!-- j11148957&#45;&gt;j1460611309 -->
<g id="edge35" class="edge">
<title>j11148957&#45;&gt;j1460611309</title>
<path fill="none" stroke="black" d="M1576.76,-702.81C1576.65,-695.23 1576.52,-686.1 1576.4,-677.54"/>
<polygon fill="black" stroke="black" points="1579.9,-677.49 1576.26,-667.54 1572.9,-677.59 1579.9,-677.49"/>
</g>
<!-- j3998472965 -->
<g id="node36" class="node">
<title>j3998472965</title>
<polygon fill="none" stroke="red" points="926,-398 658,-398 658,-362 926,-362 926,-398"/>
<text text-anchor="middle" x="792" y="-376.3" font-family="Times New Roman,serif" font-size="14.00">HAYIR. ARTIK KÜÇÜK KARELER YOK.</text>
</g>
<!-- j1235602855&#45;&gt;j3998472965 -->
<g id="edge36" class="edge">
<title>j1235602855&#45;&gt;j3998472965</title>
<path fill="none" stroke="black" d="M878.68,-448.59C862.66,-436.1 840.87,-419.11 823.14,-405.28"/>
<polygon fill="black" stroke="black" points="825.52,-402.7 815.48,-399.31 821.22,-408.22 825.52,-402.7"/>
</g>
<!-- j2844283131 -->
<g id="node37" class="node">
<title>j2844283131</title>
<polygon fill="none" stroke="red" points="1123.5,-398 944.5,-398 944.5,-362 1123.5,-362 1123.5,-398"/>
<text text-anchor="middle" x="1034" y="-376.3" font-family="Times New Roman,serif" font-size="14.00">Nereden biliyorsun &#45; boş ver.</text>
</g>
<!-- j1235602855&#45;&gt;j2844283131 -->
<g id="edge37" class="edge">
<title>j1235602855&#45;&gt;j2844283131</title>
<path fill="none" stroke="black" d="M928.24,-448.59C948.14,-435.87 975.35,-418.48 997.19,-404.52"/>
<polygon fill="black" stroke="black" points="998.98,-407.53 1005.53,-399.2 995.21,-401.63 998.98,-407.53"/>
</g>
<!-- j375388032 -->
<g id="node38" class="node">
<title>j375388032</title>
<polygon fill="none" stroke="blue" points="1284.5,-163 1215.5,-163 1215.5,-127 1284.5,-127 1284.5,-163"/>
<text text-anchor="middle" x="1250" y="-141.3" font-family="Times New Roman,serif" font-size="14.00">her neyse</text>
</g>
<!-- j1970249936&#45;&gt;j375388032 -->
<g id="edge38" class="edge">
<title>j1970249936&#45;&gt;j375388032</title>
<path fill="none" stroke="black" d="M1210.4,-253.62C1217.98,-233 1230.73,-198.36 1239.71,-173.96"/>
<polygon fill="black" stroke="black" points="1242.97,-175.25 1243.14,-164.65 1236.4,-172.83 1242.97,-175.25"/>
</g>
<!-- j3548839624 -->
<g id="node39" class="node">
<title>j3548839624</title>
<ellipse fill="none" stroke="orange" cx="626" cy="-199" rx="64.19" ry="18"/>
<text text-anchor="middle" x="626" y="-195.3" font-family="Times New Roman,serif" font-size="14.00">+20 Chemistry</text>
</g>
<!-- j3753599525&#45;&gt;j3548839624 -->
<g id="edge39" class="edge">
<title>j3753599525&#45;&gt;j3548839624</title>
<path fill="none" stroke="black" d="M841.67,-253.54C793.08,-241.48 729.25,-225.63 683.66,-214.31"/>
<polygon fill="black" stroke="black" points="684.79,-210.99 674.24,-211.98 683.1,-217.78 684.79,-210.99"/>
</g>
<!-- j2831864360&#45;&gt;j3548839624 -->
<g id="edge40" class="edge">
<title>j2831864360&#45;&gt;j3548839624</title>
<path fill="none" stroke="black" d="M626,-253.81C626,-246.23 626,-237.1 626,-228.54"/>
<polygon fill="black" stroke="black" points="629.5,-228.54 626,-218.54 622.5,-228.54 629.5,-228.54"/>
</g>
<!-- j3544252010 -->
<g id="node40" class="node">
<title>j3544252010</title>
<polygon fill="none" stroke="red" points="330,-398 140,-398 140,-362 330,-362 330,-398"/>
<text text-anchor="middle" x="235" y="-376.3" font-family="Times New Roman,serif" font-size="14.00">Sanırım artık almam gerekiyor.</text>
</g>
<!-- j3320109791&#45;&gt;j3544252010 -->
<g id="edge41" class="edge">
<title>j3320109791&#45;&gt;j3544252010</title>
<path fill="none" stroke="black" d="M287.64,-448.8C278.4,-436.9 265.93,-420.83 255.44,-407.32"/>
<polygon fill="black" stroke="black" points="258.39,-405.41 249.49,-399.66 252.86,-409.71 258.39,-405.41"/>
</g>
<!-- j153544343 -->
<g id="node41" class="node">
<title>j153544343</title>
<polygon fill="none" stroke="red" points="602,-398 348,-398 348,-362 602,-362 602,-398"/>
<text text-anchor="middle" x="475" y="-376.3" font-family="Times New Roman,serif" font-size="14.00">Evet ama şaşırmış gibi davran, tamam mı?</text>
</g>
<!-- j3320109791&#45;&gt;j153544343 -->
<g id="edge42" class="edge">
<title>j3320109791&#45;&gt;j153544343</title>
<path fill="none" stroke="black" d="M336.63,-448.59C363.37,-435.53 400.2,-417.54 429.14,-403.4"/>
<polygon fill="black" stroke="black" points="430.61,-406.58 438.06,-399.05 427.53,-400.29 430.61,-406.58"/>
</g>
<!-- j1034568977 -->
<g id="node42" class="node">
<title>j1034568977</title>
<polygon fill="none" stroke="red" points="122,-398 42,-398 42,-362 122,-362 122,-398"/>
<text text-anchor="middle" x="82" y="-376.3" font-family="Times New Roman,serif" font-size="14.00">Hayır, asla.</text>
</g>
<!-- j3320109791&#45;&gt;j1034568977 -->
<g id="edge43" class="edge">
<title>j3320109791&#45;&gt;j1034568977</title>
<path fill="none" stroke="black" d="M256.15,-448.59C220.39,-434.71 170.29,-415.27 133,-400.8"/>
<polygon fill="black" stroke="black" points="134.36,-397.57 123.77,-397.21 131.83,-404.09 134.36,-397.57"/>
</g>
<!-- j414516874 -->
<g id="node43" class="node">
<title>j414516874</title>
<polygon fill="none" stroke="blue" points="1687.5,-593 1450.5,-593 1450.5,-557 1687.5,-557 1687.5,-593"/>
<text text-anchor="middle" x="1569" y="-571.3" font-family="Times New Roman,serif" font-size="14.00">tabii eğer hiperaktif arılarla dolu olsaydı</text>
</g>
<!-- j1460611309&#45;&gt;j414516874 -->
<g id="edge44" class="edge">
<title>j1460611309&#45;&gt;j414516874</title>
<path fill="none" stroke="black" d="M1574.31,-629.81C1573.55,-622.14 1572.64,-612.89 1571.78,-604.24"/>
<polygon fill="black" stroke="black" points="1575.29,-604.14 1570.83,-594.54 1568.33,-604.83 1575.29,-604.14"/>
</g>
<!-- j3998472965&#45;&gt;j1970249936 -->
<g id="edge45" class="edge">
<title>j3998472965&#45;&gt;j1970249936</title>
<path fill="none" stroke="black" d="M859.57,-361.61C932.35,-342.89 1048.05,-313.12 1124.99,-293.33"/>
<polygon fill="black" stroke="black" points="1125.77,-296.74 1134.58,-290.86 1124.03,-289.96 1125.77,-296.74"/>
</g>
<!-- j3998472965&#45;&gt;j3753599525 -->
<g id="edge46" class="edge">
<title>j3998472965&#45;&gt;j3753599525</title>
<path fill="none" stroke="black" d="M811.55,-361.73C831.25,-344.33 861.84,-317.31 884.09,-297.66"/>
<polygon fill="black" stroke="black" points="886.15,-300.5 891.33,-291.26 881.51,-295.26 886.15,-300.5"/>
</g>
<!-- j3998472965&#45;&gt;j2831864360 -->
<g id="edge47" class="edge">
<title>j3998472965&#45;&gt;j2831864360</title>
<path fill="none" stroke="black" d="M764.96,-361.73C737.19,-344 693.77,-316.28 662.86,-296.54"/>
<polygon fill="black" stroke="black" points="664.89,-293.68 654.58,-291.25 661.12,-299.58 664.89,-293.68"/>
</g>
<!-- j2844283131&#45;&gt;j1970249936 -->
<g id="edge48" class="edge">
<title>j2844283131&#45;&gt;j1970249936</title>
<path fill="none" stroke="black" d="M1061.69,-361.73C1090.26,-343.92 1134.98,-316.04 1166.66,-296.28"/>
<polygon fill="black" stroke="black" points="1168.12,-299.5 1174.75,-291.24 1164.42,-293.56 1168.12,-299.5"/>
</g>
<!-- j2844283131&#45;&gt;j3753599525 -->
<g id="edge49" class="edge">
<title>j2844283131&#45;&gt;j3753599525</title>
<path fill="none" stroke="black" d="M1014.13,-361.73C994.1,-344.33 963,-317.31 940.38,-297.66"/>
<polygon fill="black" stroke="black" points="942.85,-295.17 933.01,-291.25 938.26,-300.45 942.85,-295.17"/>
</g>
<!-- j2844283131&#45;&gt;j2831864360 -->
<g id="edge50" class="edge">
<title>j2844283131&#45;&gt;j2831864360</title>
<path fill="none" stroke="black" d="M967.08,-361.61C895.01,-342.89 780.44,-313.12 704.25,-293.33"/>
<polygon fill="black" stroke="black" points="705.32,-289.99 694.76,-290.86 703.56,-296.77 705.32,-289.99"/>
</g>
<!-- j375388032&#45;&gt;Chat ends. -->
<g id="edge51" class="edge">
<title>j375388032&#45;&gt;Chat ends.</title>
<path fill="none" stroke="black" d="M1256.67,-126.62C1264.59,-106 1277.89,-71.36 1287.26,-46.96"/>
<polygon fill="black" stroke="black" points="1290.52,-48.24 1290.84,-37.65 1283.99,-45.73 1290.52,-48.24"/>
</g>
<!-- j2376983343 -->
<g id="node44" class="node">
<title>j2376983343</title>
<polygon fill="none" stroke="blue" points="813,-109 745,-109 745,-73 813,-73 813,-109"/>
<text text-anchor="middle" x="779" y="-87.3" font-family="Times New Roman,serif" font-size="14.00">yaşasın!!</text>
</g>
<!-- j3548839624&#45;&gt;j2376983343 -->
<g id="edge52" class="edge">
<title>j3548839624&#45;&gt;j2376983343</title>
<path fill="none" stroke="black" d="M649.24,-181.9C674.55,-164.37 715.3,-136.13 744.38,-115.98"/>
<polygon fill="black" stroke="black" points="746.29,-118.92 752.51,-110.35 742.3,-113.17 746.29,-118.92"/>
</g>
<!-- j2319555855 -->
<g id="node45" class="node">
<title>j2319555855</title>
<polygon fill="none" stroke="blue" points="421.5,-290 254.5,-290 254.5,-254 421.5,-254 421.5,-290"/>
<text text-anchor="middle" x="338" y="-268.3" font-family="Times New Roman,serif" font-size="14.00">YAŞASIN HEDİYYELER</text>
</g>
<!-- j3544252010&#45;&gt;j2319555855 -->
<g id="edge53" class="edge">
<title>j3544252010&#45;&gt;j2319555855</title>
<path fill="none" stroke="black" d="M251.55,-361.97C268.19,-344.84 294.06,-318.22 313.16,-298.56"/>
<polygon fill="black" stroke="black" points="315.64,-301.04 320.1,-291.43 310.62,-296.16 315.64,-301.04"/>
</g>
<!-- j2369249342 -->
<g id="node46" class="node">
<title>j2369249342</title>
<polygon fill="none" stroke="blue" points="500,-290 446,-290 446,-254 500,-254 500,-290"/>
<text text-anchor="middle" x="473" y="-268.3" font-family="Times New Roman,serif" font-size="14.00">SÖZ</text>
</g>
<!-- j153544343&#45;&gt;j2369249342 -->
<g id="edge54" class="edge">
<title>j153544343&#45;&gt;j2369249342</title>
<path fill="none" stroke="black" d="M474.68,-361.97C474.37,-345.76 473.91,-321.06 473.54,-301.79"/>
<polygon fill="black" stroke="black" points="477.04,-301.79 473.36,-291.85 470.05,-301.92 477.04,-301.79"/>
</g>
<!-- j3425459902 -->
<g id="node47" class="node">
<title>j3425459902</title>
<polygon fill="none" stroke="blue" points="224,-290 0,-290 0,-254 224,-254 224,-290"/>
<text text-anchor="middle" x="112" y="-268.3" font-family="Times New Roman,serif" font-size="14.00">beni heyecanlandırır ve sonra fısssss</text>
</g>
<!-- j1034568977&#45;&gt;j3425459902 -->
<g id="edge55" class="edge">
<title>j1034568977&#45;&gt;j3425459902</title>
<path fill="none" stroke="black" d="M86.82,-361.97C91.45,-345.61 98.53,-320.59 104.01,-301.24"/>
<polygon fill="black" stroke="black" points="107.32,-302.37 106.68,-291.8 100.59,-300.47 107.32,-302.37"/>
</g>
<!-- j3163531411 -->
<g id="node48" class="node">
<title>j3163531411</title>
<polygon fill="none" stroke="blue" points="1759,-485 1375,-485 1375,-449 1759,-449 1759,-485"/>
<text text-anchor="middle" x="1567" y="-463.3" font-family="Times New Roman,serif" font-size="14.00">benden gıcık kapıyor. işte bu da benim hayat hikayem gibi bir şey</text>
</g>
<!-- j414516874&#45;&gt;j3163531411 -->
<g id="edge56" class="edge">
<title>j414516874&#45;&gt;j3163531411</title>
<path fill="none" stroke="black" d="M1568.68,-556.97C1568.37,-540.76 1567.91,-516.06 1567.54,-496.79"/>
<polygon fill="black" stroke="black" points="1571.04,-496.79 1567.36,-486.85 1564.05,-496.92 1571.04,-496.79"/>
</g>
<!-- j2376983343&#45;&gt;Chat ends. -->
<g id="edge57" class="edge">
<title>j2376983343&#45;&gt;Chat ends.</title>
<path fill="none" stroke="black" d="M813.45,-85.29C900.83,-73.33 1131.8,-41.74 1240.23,-26.9"/>
<polygon fill="black" stroke="black" points="1240.65,-30.38 1250.09,-25.55 1239.7,-23.44 1240.65,-30.38"/>
</g>
<!-- j2319555855&#45;&gt;j3548839624 -->
<g id="edge58" class="edge">
<title>j2319555855&#45;&gt;j3548839624</title>
<path fill="none" stroke="black" d="M408.82,-253.54C457.75,-241.48 522.03,-225.63 567.94,-214.31"/>
<polygon fill="black" stroke="black" points="568.56,-217.77 577.43,-211.97 566.88,-210.97 568.56,-217.77"/>
</g>
<!-- j2369249342&#45;&gt;j3548839624 -->
<g id="edge59" class="edge">
<title>j2369249342&#45;&gt;j3548839624</title>
<path fill="none" stroke="black" d="M500.11,-258.16C503.11,-256.76 506.12,-255.35 509,-254 533.56,-242.53 561.09,-229.82 583.26,-219.62"/>
<polygon fill="black" stroke="black" points="584.69,-222.81 592.31,-215.45 581.76,-216.45 584.69,-222.81"/>
</g>
<!-- j538866116 -->
<g id="node49" class="node">
<title>j538866116</title>
<polygon fill="none" stroke="blue" points="406,-217 284,-217 284,-181 406,-181 406,-217"/>
<text text-anchor="middle" x="345" y="-195.3" font-family="Times New Roman,serif" font-size="14.00">hayvan düşmanlığı</text>
</g>
<!-- j3425459902&#45;&gt;j538866116 -->
<g id="edge60" class="edge">
<title>j3425459902&#45;&gt;j538866116</title>
<path fill="none" stroke="black" d="M169.3,-253.54C201.88,-243.61 242.88,-231.12 277.08,-220.7"/>
<polygon fill="black" stroke="black" points="277.93,-224.1 286.48,-217.83 275.89,-217.4 277.93,-224.1"/>
</g>
<!-- j4070691337 -->
<g id="node50" class="node">
<title>j4070691337</title>
<polygon fill="none" stroke="red" points="2102.5,-398 1645.5,-398 1645.5,-362 2102.5,-362 2102.5,-398"/>
<text text-anchor="middle" x="1874" y="-376.3" font-family="Times New Roman,serif" font-size="14.00">Evet, bazen biraz fazla abartılı olabiliyorsun ama her zaman nazik ve samimisin.</text>
</g>
<!-- j3163531411&#45;&gt;j4070691337 -->
<g id="edge61" class="edge">
<title>j3163531411&#45;&gt;j4070691337</title>
<path fill="none" stroke="black" d="M1629.87,-448.59C1679.24,-434.92 1748.12,-415.85 1800.13,-401.45"/>
<polygon fill="black" stroke="black" points="1800.79,-404.9 1809.5,-398.86 1798.92,-398.15 1800.79,-404.9"/>
</g>
<!-- j4204957884 -->
<g id="node51" class="node">
<title>j4204957884</title>
<polygon fill="none" stroke="red" points="1627,-398 1469,-398 1469,-362 1627,-362 1627,-398"/>
<text text-anchor="middle" x="1548" y="-376.3" font-family="Times New Roman,serif" font-size="14.00">Beni rahatsız etmiyorsun.</text>
</g>
<!-- j3163531411&#45;&gt;j4204957884 -->
<g id="edge62" class="edge">
<title>j3163531411&#45;&gt;j4204957884</title>
<path fill="none" stroke="black" d="M1563.16,-448.8C1560.65,-437.58 1557.31,-422.67 1554.41,-409.69"/>
<polygon fill="black" stroke="black" points="1557.83,-408.94 1552.23,-399.94 1551,-410.47 1557.83,-408.94"/>
</g>
<!-- j2441308485 -->
<g id="node52" class="node">
<title>j2441308485</title>
<polygon fill="none" stroke="red" points="1490,-344 1362,-344 1362,-308 1490,-308 1490,-344"/>
<text text-anchor="middle" x="1426" y="-322.3" font-family="Times New Roman,serif" font-size="14.00">Onu suçlamıyorum.</text>
</g>
<!-- j3163531411&#45;&gt;j2441308485 -->
<g id="edge63" class="edge">
<title>j3163531411&#45;&gt;j2441308485</title>
<path fill="none" stroke="black" d="M1529.07,-448.62C1506.7,-436.87 1479.13,-419.57 1460,-398 1448.98,-385.58 1440.76,-368.95 1435.17,-354.91"/>
<polygon fill="black" stroke="black" points="1438.53,-353.91 1431.77,-345.75 1431.97,-356.35 1438.53,-353.91"/>
</g>
<!-- j765793997 -->
<g id="node53" class="node">
<title>j765793997</title>
<polygon fill="none" stroke="blue" points="658,-109 476,-109 476,-73 658,-73 658,-109"/>
<text text-anchor="middle" x="567" y="-87.3" font-family="Times New Roman,serif" font-size="14.00">seni lettie&#39;ye şikayet edeceğim</text>
</g>
<!-- j538866116&#45;&gt;j765793997 -->
<g id="edge64" class="edge">
<title>j538866116&#45;&gt;j765793997</title>
<path fill="none" stroke="black" d="M381.16,-180.73C419.03,-162.65 478.64,-134.19 520.1,-114.4"/>
<polygon fill="black" stroke="black" points="521.6,-117.55 529.12,-110.09 518.59,-111.24 521.6,-117.55"/>
</g>
<!-- j1107548601 -->
<g id="node54" class="node">
<title>j1107548601</title>
<ellipse fill="none" stroke="orange" cx="1857" cy="-272" rx="64.19" ry="18"/>
<text text-anchor="middle" x="1857" y="-268.3" font-family="Times New Roman,serif" font-size="14.00">+20 Chemistry</text>
</g>
<!-- j4070691337&#45;&gt;j1107548601 -->
<g id="edge65" class="edge">
<title>j4070691337&#45;&gt;j1107548601</title>
<path fill="none" stroke="black" d="M1871.27,-361.97C1868.66,-345.69 1864.67,-320.82 1861.57,-301.52"/>
<polygon fill="black" stroke="black" points="1865.06,-301.15 1860.02,-291.84 1858.15,-302.26 1865.06,-301.15"/>
</g>
<!-- j3986427493 -->
<g id="node55" class="node">
<title>j3986427493</title>
<ellipse fill="none" stroke="orange" cx="1561" cy="-272" rx="64.19" ry="18"/>
<text text-anchor="middle" x="1561" y="-268.3" font-family="Times New Roman,serif" font-size="14.00">+10 Chemistry</text>
</g>
<!-- j4204957884&#45;&gt;j3986427493 -->
<g id="edge66" class="edge">
<title>j4204957884&#45;&gt;j3986427493</title>
<path fill="none" stroke="black" d="M1550.09,-361.97C1552.09,-345.69 1555.13,-320.82 1557.5,-301.52"/>
<polygon fill="black" stroke="black" points="1560.95,-302.19 1558.69,-291.84 1554,-301.34 1560.95,-302.19"/>
</g>
<!-- j2441308485&#45;&gt;Chat ends. -->
<g id="edge67" class="edge">
<title>j2441308485&#45;&gt;Chat ends.</title>
<path fill="none" stroke="black" d="M1412.25,-307.73C1400,-290.57 1384,-263 1384,-236 1384,-236 1384,-236 1384,-90 1384,-65.6 1363.15,-48.01 1341.99,-36.45"/>
<polygon fill="black" stroke="black" points="1343.85,-33.47 1333.34,-32.09 1340.69,-39.72 1343.85,-33.47"/>
</g>
<!-- j765793997&#45;&gt;Chat ends. -->
<g id="edge68" class="edge">
<title>j765793997&#45;&gt;Chat ends.</title>
<path fill="none" stroke="black" d="M658.21,-80.75C683.41,-78.21 710.76,-75.48 736,-73 919.16,-54.99 1135.97,-34.35 1238.54,-24.63"/>
<polygon fill="black" stroke="black" points="1238.75,-28.12 1248.37,-23.69 1238.09,-21.15 1238.75,-28.12"/>
</g>
<!-- j603406932 -->
<g id="node56" class="node">
<title>j603406932</title>
<polygon fill="none" stroke="blue" points="1866,-217 1736,-217 1736,-181 1866,-181 1866,-217"/>
<text text-anchor="middle" x="1801" y="-195.3" font-family="Times New Roman,serif" font-size="14.00">aaaaahhhhh utandım</text>
</g>
<!-- j1107548601&#45;&gt;j603406932 -->
<g id="edge69" class="edge">
<title>j1107548601&#45;&gt;j603406932</title>
<path fill="none" stroke="black" d="M1843.73,-254.17C1837.18,-245.87 1829.13,-235.66 1821.78,-226.35"/>
<polygon fill="black" stroke="black" points="1824.64,-224.32 1815.7,-218.64 1819.14,-228.65 1824.64,-224.32"/>
</g>
<!-- j1092518911 -->
<g id="node57" class="node">
<title>j1092518911</title>
<polygon fill="none" stroke="blue" points="1705.5,-217 1436.5,-217 1436.5,-181 1705.5,-181 1705.5,-217"/>
<text text-anchor="middle" x="1571" y="-195.3" font-family="Times New Roman,serif" font-size="14.00">çok naziksin ama henüz pek bir şey görmedin</text>
</g>
<!-- j3986427493&#45;&gt;j1092518911 -->
<g id="edge70" class="edge">
<title>j3986427493&#45;&gt;j1092518911</title>
<path fill="none" stroke="black" d="M1563.42,-253.81C1564.5,-246.14 1565.8,-236.89 1567.02,-228.24"/>
<polygon fill="black" stroke="black" points="1570.46,-228.92 1568.39,-218.53 1563.53,-227.94 1570.46,-228.92"/>
</g>
<!-- j2057853146 -->
<g id="node58" class="node">
<title>j2057853146</title>
<polygon fill="none" stroke="blue" points="1834,-109 1412,-109 1412,-73 1834,-73 1834,-109"/>
<text text-anchor="middle" x="1623" y="-87.3" font-family="Times New Roman,serif" font-size="14.00">neyse, bu bana quincy&#39;ye yapabileceğim bir şaka için harika bir fikir verdi</text>
</g>
<!-- j603406932&#45;&gt;j2057853146 -->
<g id="edge71" class="edge">
<title>j603406932&#45;&gt;j2057853146</title>
<path fill="none" stroke="black" d="M1772.01,-180.73C1742.1,-162.92 1695.27,-135.04 1662.1,-115.28"/>
<polygon fill="black" stroke="black" points="1663.96,-112.32 1653.58,-110.21 1660.38,-118.33 1663.96,-112.32"/>
</g>
<!-- j1092518911&#45;&gt;j2057853146 -->
<g id="edge72" class="edge">
<title>j1092518911&#45;&gt;j2057853146</title>
<path fill="none" stroke="black" d="M1579.35,-180.97C1587.49,-164.38 1600,-138.88 1609.54,-119.43"/>
<polygon fill="black" stroke="black" points="1612.56,-121.22 1613.83,-110.7 1606.28,-118.14 1612.56,-121.22"/>
</g>
<!-- j2057853146&#45;&gt;Chat ends. -->
<g id="edge73" class="edge">
<title>j2057853146&#45;&gt;Chat ends.</title>
<path fill="none" stroke="black" d="M1543.08,-72.54C1483.2,-59.46 1402.93,-41.92 1350.85,-30.54"/>
<polygon fill="black" stroke="black" points="1351.85,-27.18 1341.33,-28.47 1350.36,-34.02 1351.85,-27.18"/>
</g>
</g>
</svg>
