<?xml version="1.0" encoding="UTF-8" standalone="no"?>
<!DOCTYPE svg PUBLIC "-//W3C//DTD SVG 1.1//EN"
 "http://www.w3.org/Graphics/SVG/1.1/DTD/svg11.dtd">
<!-- Generated by graphviz version 7.1.0 (20230121.1956)
 -->
<!-- Pages: 1 -->
<svg width="1170pt" height="332pt"
 viewBox="0.00 0.00 1170.00 332.00" xmlns="http://www.w3.org/2000/svg" xmlns:xlink="http://www.w3.org/1999/xlink">
<g id="graph0" class="graph" transform="scale(1 1) rotate(0) translate(4 328)">
<polygon fill="white" stroke="none" points="-4,4 -4,-328 1166,-328 1166,4 -4,4"/>
<!-- QuincyBirthdayConvo1 begins. -->
<g id="node1" class="node">
<title>QuincyBirthdayConvo1 begins.</title>
<ellipse fill="none" stroke="orange" cx="531" cy="-306" rx="125.38" ry="18"/>
<text text-anchor="middle" x="531" y="-302.3" font-family="Times New Roman,serif" font-size="14.00">QuincyBirthdayConvo1 begins.</text>
</g>
<!-- j3126134891 -->
<g id="node2" class="node">
<title>j3126134891</title>
<polygon fill="none" stroke="red" points="520,-252 134,-252 134,-216 520,-216 520,-252"/>
<text text-anchor="middle" x="327" y="-230.3" font-family="Times New Roman,serif" font-size="14.00">Alles Gute zum Geburtstag, Quincy. Du siehst gut aus, wie immer.</text>
</g>
<!-- QuincyBirthdayConvo1 begins.&#45;&gt;j3126134891 -->
<g id="edge1" class="edge">
<title>QuincyBirthdayConvo1 begins.&#45;&gt;j3126134891</title>
<path fill="none" stroke="black" d="M483.94,-288.85C455.52,-279.1 418.99,-266.57 388.33,-256.04"/>
<polygon fill="black" stroke="black" points="389.77,-252.84 379.18,-252.9 387.5,-259.46 389.77,-252.84"/>
</g>
<!-- j2169398964 -->
<g id="node3" class="node">
<title>j2169398964</title>
<polygon fill="none" stroke="red" points="957,-252 561,-252 561,-216 957,-216 957,-252"/>
<text text-anchor="middle" x="759" y="-230.3" font-family="Times New Roman,serif" font-size="14.00">Herzlichen Glückwunsch zum Geburtstag! Fühlst du dich schon alt?</text>
</g>
<!-- QuincyBirthdayConvo1 begins.&#45;&gt;j2169398964 -->
<g id="edge2" class="edge">
<title>QuincyBirthdayConvo1 begins.&#45;&gt;j2169398964</title>
<path fill="none" stroke="black" d="M582.45,-289.2C614.71,-279.3 656.64,-266.43 691.55,-255.71"/>
<polygon fill="black" stroke="black" points="692.15,-259.18 700.69,-252.9 690.1,-252.49 692.15,-259.18"/>
</g>
<!-- j3216884167 -->
<g id="node4" class="node">
<title>j3216884167</title>
<ellipse fill="none" stroke="orange" cx="282" cy="-162" rx="64.19" ry="18"/>
<text text-anchor="middle" x="282" y="-158.3" font-family="Times New Roman,serif" font-size="14.00">+20 Chemistry</text>
</g>
<!-- j3126134891&#45;&gt;j3216884167 -->
<g id="edge3" class="edge">
<title>j3126134891&#45;&gt;j3216884167</title>
<path fill="none" stroke="black" d="M315.88,-215.7C310.81,-207.81 304.7,-198.3 299.07,-189.55"/>
<polygon fill="black" stroke="black" points="302.17,-187.9 293.81,-181.38 296.28,-191.68 302.17,-187.9"/>
</g>
<!-- j1932827082 -->
<g id="node5" class="node">
<title>j1932827082</title>
<polygon fill="none" stroke="blue" points="1162,-108 560,-108 560,-72 1162,-72 1162,-108"/>
<text text-anchor="middle" x="861" y="-86.3" font-family="Times New Roman,serif" font-size="14.00">fühle ich mich alt?! na, als ob du was dazu sagen solltest. wie alt bist du? weißt du es überhaupt? vollidiot</text>
</g>
<!-- j2169398964&#45;&gt;j1932827082 -->
<g id="edge4" class="edge">
<title>j2169398964&#45;&gt;j1932827082</title>
<path fill="none" stroke="black" d="M771.51,-215.59C789.19,-190.97 821.64,-145.8 842.22,-117.14"/>
<polygon fill="black" stroke="black" points="844.83,-119.5 847.83,-109.34 839.15,-115.42 844.83,-119.5"/>
</g>
<!-- j2852786172 -->
<g id="node6" class="node">
<title>j2852786172</title>
<polygon fill="none" stroke="blue" points="542,-108 0,-108 0,-72 542,-72 542,-108"/>
<text text-anchor="middle" x="271" y="-86.3" font-family="Times New Roman,serif" font-size="14.00">was hast du erwartet lol. könnte das gleiche über dich sagen. warte. wie alt bist du überhaupt?!</text>
</g>
<!-- j3216884167&#45;&gt;j2852786172 -->
<g id="edge5" class="edge">
<title>j3216884167&#45;&gt;j2852786172</title>
<path fill="none" stroke="black" d="M279.28,-143.7C278.12,-136.32 276.74,-127.52 275.44,-119.25"/>
<polygon fill="black" stroke="black" points="278.93,-118.93 273.92,-109.6 272.02,-120.02 278.93,-118.93"/>
</g>
<!-- Chat ends. -->
<g id="node7" class="node">
<title>Chat ends.</title>
<ellipse fill="none" stroke="orange" cx="566" cy="-18" rx="50.09" ry="18"/>
<text text-anchor="middle" x="566" y="-14.3" font-family="Times New Roman,serif" font-size="14.00">Chat ends.</text>
</g>
<!-- j1932827082&#45;&gt;Chat ends. -->
<g id="edge6" class="edge">
<title>j1932827082&#45;&gt;Chat ends.</title>
<path fill="none" stroke="black" d="M787.32,-71.52C734.66,-59.02 665.09,-42.51 618.12,-31.37"/>
<polygon fill="black" stroke="black" points="618.99,-27.98 608.45,-29.07 617.38,-34.79 618.99,-27.98"/>
</g>
<!-- j2852786172&#45;&gt;Chat ends. -->
<g id="edge7" class="edge">
<title>j2852786172&#45;&gt;Chat ends.</title>
<path fill="none" stroke="black" d="M344.68,-71.52C397.34,-59.02 466.91,-42.51 513.88,-31.37"/>
<polygon fill="black" stroke="black" points="514.62,-34.79 523.55,-29.07 513.01,-27.98 514.62,-34.79"/>
</g>
</g>
</svg>
