<?xml version="1.0" encoding="UTF-8" standalone="no"?>
<!DOCTYPE svg PUBLIC "-//W3C//DTD SVG 1.1//EN"
 "http://www.w3.org/Graphics/SVG/1.1/DTD/svg11.dtd">
<!-- Generated by graphviz version 7.1.0 (20230121.1956)
 -->
<!-- Pages: 1 -->
<svg width="2191pt" height="2295pt"
 viewBox="0.00 0.00 2190.79 2295.00" xmlns="http://www.w3.org/2000/svg" xmlns:xlink="http://www.w3.org/1999/xlink">
<g id="graph0" class="graph" transform="scale(1 1) rotate(0) translate(4 2291)">
<polygon fill="white" stroke="none" points="-4,4 -4,-2291 2186.79,-2291 2186.79,4 -4,4"/>
<!-- QuincyRank2Convo6 begins. -->
<g id="node1" class="node">
<title>QuincyRank2Convo6 begins.</title>
<ellipse fill="none" stroke="orange" cx="118.29" cy="-2269" rx="118.08" ry="18"/>
<text text-anchor="middle" x="118.29" y="-2265.3" font-family="Times New Roman,serif" font-size="14.00">QuincyRank2Convo6 begins.</text>
</g>
<!-- j3133913367 -->
<g id="node2" class="node">
<title>j3133913367</title>
<ellipse fill="none" stroke="orange" cx="118.29" cy="-2196" rx="104.78" ry="18"/>
<text text-anchor="middle" x="118.29" y="-2192.3" font-family="Times New Roman,serif" font-size="14.00">Check boolean AmirRPG</text>
</g>
<!-- QuincyRank2Convo6 begins.&#45;&gt;j3133913367 -->
<g id="edge1" class="edge">
<title>QuincyRank2Convo6 begins.&#45;&gt;j3133913367</title>
<path fill="none" stroke="black" d="M118.29,-2250.81C118.29,-2243.23 118.29,-2234.1 118.29,-2225.54"/>
<polygon fill="black" stroke="black" points="121.79,-2225.54 118.29,-2215.54 114.79,-2225.54 121.79,-2225.54"/>
</g>
<!-- j3120602455 -->
<g id="node3" class="node">
<title>j3120602455</title>
<ellipse fill="none" stroke="orange" cx="837.29" cy="-2109" rx="174.37" ry="18"/>
<text text-anchor="middle" x="837.29" y="-2105.3" font-family="Times New Roman,serif" font-size="14.00">Boolean AmirRPGQuincyAsked is now true.</text>
</g>
<!-- j3133913367&#45;&gt;j3120602455 -->
<g id="edge2" class="edge">
<title>j3133913367&#45;&gt;j3120602455</title>
<path fill="none" stroke="green" d="M202.88,-2185C329.42,-2170.04 568.66,-2141.76 714.46,-2124.52"/>
<polygon fill="green" stroke="green" points="714.63,-2128.02 724.15,-2123.38 713.81,-2121.07 714.63,-2128.02"/>
<text text-anchor="middle" x="532.29" y="-2148.8" font-family="Times New Roman,serif" font-size="14.00">true</text>
</g>
<!-- Chat ends. -->
<g id="node4" class="node">
<title>Chat ends.</title>
<ellipse fill="none" stroke="orange" cx="917.29" cy="-18" rx="50.09" ry="18"/>
<text text-anchor="middle" x="917.29" y="-14.3" font-family="Times New Roman,serif" font-size="14.00">Chat ends.</text>
</g>
<!-- j3133913367&#45;&gt;Chat ends. -->
<g id="edge3" class="edge">
<title>j3133913367&#45;&gt;Chat ends.</title>
<path fill="none" stroke="brown" d="M113.05,-2177.6C108.38,-2160.54 102.29,-2133.73 102.29,-2110 102.29,-2110 102.29,-2110 102.29,-90 102.29,-75.87 185.89,-58.08 211.29,-54 334.62,-34.21 708.24,-23.76 856.1,-20.31"/>
<polygon fill="brown" stroke="brown" points="855.76,-23.82 865.68,-20.09 855.6,-16.82 855.76,-23.82"/>
<text text-anchor="middle" x="115.29" y="-1089.3" font-family="Times New Roman,serif" font-size="14.00">false</text>
</g>
<!-- j2170089114 -->
<g id="node5" class="node">
<title>j2170089114</title>
<polygon fill="none" stroke="red" points="1144.29,-2054 530.29,-2054 530.29,-2018 1144.29,-2018 1144.29,-2054"/>
<text text-anchor="middle" x="837.29" y="-2032.3" font-family="Times New Roman,serif" font-size="14.00">Hey Quincy, ich weiß, dass du nicht gut mit Amir klarkommst, aber ... ich möchte um einen Gefallen bitten.</text>
</g>
<!-- j3120602455&#45;&gt;j2170089114 -->
<g id="edge4" class="edge">
<title>j3120602455&#45;&gt;j2170089114</title>
<path fill="none" stroke="black" d="M837.29,-2090.81C837.29,-2083.23 837.29,-2074.1 837.29,-2065.54"/>
<polygon fill="black" stroke="black" points="840.79,-2065.54 837.29,-2055.54 833.79,-2065.54 840.79,-2065.54"/>
</g>
<!-- j4188163071 -->
<g id="node6" class="node">
<title>j4188163071</title>
<polygon fill="none" stroke="red" points="1700.29,-2054 1162.29,-2054 1162.29,-2018 1700.29,-2018 1700.29,-2054"/>
<text text-anchor="middle" x="1431.29" y="-2032.3" font-family="Times New Roman,serif" font-size="14.00">Also, wenn ich dich bestechen müsste, um etwas für mich zu tun, was würde es mich kosten?</text>
</g>
<!-- j3120602455&#45;&gt;j4188163071 -->
<g id="edge5" class="edge">
<title>j3120602455&#45;&gt;j4188163071</title>
<path fill="none" stroke="black" d="M948.32,-2094.73C1039.91,-2083.78 1171,-2068.11 1273.49,-2055.86"/>
<polygon fill="black" stroke="black" points="1273.88,-2059.34 1283.39,-2054.68 1273.05,-2052.39 1273.88,-2059.34"/>
</g>
<!-- j2642961557 -->
<g id="node7" class="node">
<title>j2642961557</title>
<polygon fill="none" stroke="blue" points="1126.29,-1981 956.29,-1981 956.29,-1945 1126.29,-1945 1126.29,-1981"/>
<text text-anchor="middle" x="1041.29" y="-1959.3" font-family="Times New Roman,serif" font-size="14.00">oh ja? jetzt bin ich neugierig</text>
</g>
<!-- j2170089114&#45;&gt;j2642961557 -->
<g id="edge6" class="edge">
<title>j2170089114&#45;&gt;j2642961557</title>
<path fill="none" stroke="black" d="M887.45,-2017.54C915.61,-2007.74 950.95,-1995.44 980.65,-1985.1"/>
<polygon fill="black" stroke="black" points="981.59,-1988.48 989.89,-1981.89 979.29,-1981.87 981.59,-1988.48"/>
</g>
<!-- j3540904656 -->
<g id="node8" class="node">
<title>j3540904656</title>
<polygon fill="none" stroke="blue" points="1650.29,-1981 1212.29,-1981 1212.29,-1945 1650.29,-1945 1650.29,-1981"/>
<text text-anchor="middle" x="1431.29" y="-1959.3" font-family="Times New Roman,serif" font-size="14.00">lol wie kann ich dir sagen, was es kostet, wenn ich nicht weiß was du willst?</text>
</g>
<!-- j4188163071&#45;&gt;j3540904656 -->
<g id="edge7" class="edge">
<title>j4188163071&#45;&gt;j3540904656</title>
<path fill="none" stroke="black" d="M1431.29,-2017.81C1431.29,-2010.23 1431.29,-2001.1 1431.29,-1992.54"/>
<polygon fill="black" stroke="black" points="1434.79,-1992.54 1431.29,-1982.54 1427.79,-1992.54 1434.79,-1992.54"/>
</g>
<!-- j2323218823 -->
<g id="node9" class="node">
<title>j2323218823</title>
<polygon fill="none" stroke="red" points="1319.79,-1908 762.79,-1908 762.79,-1872 1319.79,-1872 1319.79,-1908"/>
<text text-anchor="middle" x="1041.29" y="-1886.3" font-family="Times New Roman,serif" font-size="14.00">Okay, bevor du dich entscheidest, hör mir bitte bis zum Ende zu, okay? Also, da ist dieses Spiel.</text>
</g>
<!-- j2642961557&#45;&gt;j2323218823 -->
<g id="edge8" class="edge">
<title>j2642961557&#45;&gt;j2323218823</title>
<path fill="none" stroke="black" d="M1041.29,-1944.81C1041.29,-1937.23 1041.29,-1928.1 1041.29,-1919.54"/>
<polygon fill="black" stroke="black" points="1044.79,-1919.54 1041.29,-1909.54 1037.79,-1919.54 1044.79,-1919.54"/>
</g>
<!-- j996424085 -->
<g id="node10" class="node">
<title>j996424085</title>
<polygon fill="none" stroke="red" points="1904.29,-1908 1338.29,-1908 1338.29,-1872 1904.29,-1872 1904.29,-1908"/>
<text text-anchor="middle" x="1621.29" y="-1886.3" font-family="Times New Roman,serif" font-size="14.00">Also versucht Amir, die Gang zusammenzukriegen, um dieses Pen&#45;&amp;&#45;Paper&#45;Rollenspiel zu spielen.</text>
</g>
<!-- j2642961557&#45;&gt;j996424085 -->
<g id="edge9" class="edge">
<title>j2642961557&#45;&gt;j996424085</title>
<path fill="none" stroke="black" d="M1126.56,-1951.56C1215.91,-1940.62 1358.18,-1923.21 1467.26,-1909.85"/>
<polygon fill="black" stroke="black" points="1467.38,-1913.37 1476.88,-1908.68 1466.53,-1906.42 1467.38,-1913.37"/>
</g>
<!-- j3540904656&#45;&gt;j2323218823 -->
<g id="edge10" class="edge">
<title>j3540904656&#45;&gt;j2323218823</title>
<path fill="none" stroke="black" d="M1335.39,-1944.54C1278.71,-1934.22 1206.82,-1921.13 1148.3,-1910.48"/>
<polygon fill="black" stroke="black" points="1149.12,-1907.07 1138.65,-1908.72 1147.86,-1913.96 1149.12,-1907.07"/>
</g>
<!-- j3540904656&#45;&gt;j996424085 -->
<g id="edge11" class="edge">
<title>j3540904656&#45;&gt;j996424085</title>
<path fill="none" stroke="black" d="M1477.77,-1944.63C1503.76,-1934.92 1536.38,-1922.73 1563.95,-1912.43"/>
<polygon fill="black" stroke="black" points="1565.07,-1915.74 1573.21,-1908.97 1562.62,-1909.19 1565.07,-1915.74"/>
</g>
<!-- j4157267936 -->
<g id="node11" class="node">
<title>j4157267936</title>
<polygon fill="none" stroke="red" points="1946.29,-1835 1366.29,-1835 1366.29,-1799 1946.29,-1799 1946.29,-1835"/>
<text text-anchor="middle" x="1656.29" y="-1813.3" font-family="Times New Roman,serif" font-size="14.00">Ich denk es wäre ein guter Vorwand, um alle zusammenzubringen und Zeit miteinander zu verbringen.</text>
</g>
<!-- j2323218823&#45;&gt;j4157267936 -->
<g id="edge12" class="edge">
<title>j2323218823&#45;&gt;j4157267936</title>
<path fill="none" stroke="black" d="M1192.52,-1871.54C1283.86,-1861 1400.25,-1847.56 1493.58,-1836.78"/>
<polygon fill="black" stroke="black" points="1493.8,-1840.28 1503.34,-1835.66 1493,-1833.33 1493.8,-1840.28"/>
</g>
<!-- j1267064509 -->
<g id="node12" class="node">
<title>j1267064509</title>
<polygon fill="none" stroke="red" points="1322.79,-1835 759.79,-1835 759.79,-1799 1322.79,-1799 1322.79,-1835"/>
<text text-anchor="middle" x="1041.29" y="-1813.3" font-family="Times New Roman,serif" font-size="14.00">Es ist eine Ausrede, um sich zu entspannen, ruhig zu bleiben und vielleicht ein paar Bier zu trinken.</text>
</g>
<!-- j2323218823&#45;&gt;j1267064509 -->
<g id="edge13" class="edge">
<title>j2323218823&#45;&gt;j1267064509</title>
<path fill="none" stroke="black" d="M1041.29,-1871.81C1041.29,-1864.23 1041.29,-1855.1 1041.29,-1846.54"/>
<polygon fill="black" stroke="black" points="1044.79,-1846.54 1041.29,-1836.54 1037.79,-1846.54 1044.79,-1846.54"/>
</g>
<!-- j3430849095 -->
<g id="node13" class="node">
<title>j3430849095</title>
<polygon fill="none" stroke="red" points="690.29,-1835 232.29,-1835 232.29,-1799 690.29,-1799 690.29,-1835"/>
<text text-anchor="middle" x="461.29" y="-1813.3" font-family="Times New Roman,serif" font-size="14.00">Die Moral vom Team ist so ziemlich im Keller, aufgrund der aktuellen Situation.</text>
</g>
<!-- j2323218823&#45;&gt;j3430849095 -->
<g id="edge14" class="edge">
<title>j2323218823&#45;&gt;j3430849095</title>
<path fill="none" stroke="black" d="M898.66,-1871.54C812.7,-1861.02 703.21,-1847.61 615.28,-1836.85"/>
<polygon fill="black" stroke="black" points="615.97,-1833.41 605.62,-1835.67 615.12,-1840.36 615.97,-1833.41"/>
</g>
<!-- j3745083929 -->
<g id="node14" class="node">
<title>j3745083929</title>
<polygon fill="none" stroke="blue" points="2182.79,-1781 2003.79,-1781 2003.79,-1745 2182.79,-1745 2182.79,-1781"/>
<text text-anchor="middle" x="2093.29" y="-1759.3" font-family="Times New Roman,serif" font-size="14.00">LMAO oh KEEIIINE chance</text>
</g>
<!-- j996424085&#45;&gt;j3745083929 -->
<g id="edge15" class="edge">
<title>j996424085&#45;&gt;j3745083929</title>
<path fill="none" stroke="black" d="M1794.54,-1871.56C1847.01,-1863.48 1904.23,-1851.79 1955.29,-1835 1991.15,-1823.21 2029.09,-1803.06 2056.09,-1787.23"/>
<polygon fill="black" stroke="black" points="2057.78,-1790.3 2064.58,-1782.18 2054.2,-1784.28 2057.78,-1790.3"/>
</g>
<!-- j1933646128 -->
<g id="node15" class="node">
<title>j1933646128</title>
<polygon fill="none" stroke="blue" points="2103.79,-1673 1234.79,-1673 1234.79,-1637 2103.79,-1637 2103.79,-1673"/>
<text text-anchor="middle" x="1669.29" y="-1651.3" font-family="Times New Roman,serif" font-size="14.00">ich verbringe mit euch allen jeden verdammten tag viel Zeit, lol. wir stecken alle hier fest, falls du es vergessen hast, lmao. also, sorry, aber viel spaß dabei</text>
</g>
<!-- j4157267936&#45;&gt;j1933646128 -->
<g id="edge16" class="edge">
<title>j4157267936&#45;&gt;j1933646128</title>
<path fill="none" stroke="black" d="M1657.71,-1798.57C1659.93,-1771.16 1664.28,-1717.69 1666.97,-1684.59"/>
<polygon fill="black" stroke="black" points="1670.43,-1685.17 1667.75,-1674.91 1663.45,-1684.6 1670.43,-1685.17"/>
</g>
<!-- j249931359 -->
<g id="node16" class="node">
<title>j249931359</title>
<polygon fill="none" stroke="red" points="1240.29,-1727 842.29,-1727 842.29,-1691 1240.29,-1691 1240.29,-1727"/>
<text text-anchor="middle" x="1041.29" y="-1705.3" font-family="Times New Roman,serif" font-size="14.00">Also, es ist ein wirklich beklopptes Spiel. Also, *wirklich bekloppt*.</text>
</g>
<!-- j1267064509&#45;&gt;j249931359 -->
<g id="edge17" class="edge">
<title>j1267064509&#45;&gt;j249931359</title>
<path fill="none" stroke="black" d="M1041.29,-1798.97C1041.29,-1782.76 1041.29,-1758.06 1041.29,-1738.79"/>
<polygon fill="black" stroke="black" points="1044.79,-1738.85 1041.29,-1728.85 1037.79,-1738.85 1044.79,-1738.85"/>
</g>
<!-- j3552818745 -->
<g id="node17" class="node">
<title>j3552818745</title>
<polygon fill="none" stroke="blue" points="444.79,-1565 169.79,-1565 169.79,-1529 444.79,-1529 444.79,-1565"/>
<text text-anchor="middle" x="307.29" y="-1543.3" font-family="Times New Roman,serif" font-size="14.00">klingt nach eurem problem. mir gehst gut lmao</text>
</g>
<!-- j3430849095&#45;&gt;j3552818745 -->
<g id="edge18" class="edge">
<title>j3430849095&#45;&gt;j3552818745</title>
<path fill="none" stroke="black" d="M451.42,-1798.83C425.35,-1753.46 354.49,-1630.13 322.87,-1575.12"/>
<polygon fill="black" stroke="black" points="326.05,-1573.62 318.03,-1566.69 319.98,-1577.1 326.05,-1573.62"/>
</g>
<!-- j3745083929&#45;&gt;Chat ends. -->
<g id="edge19" class="edge">
<title>j3745083929&#45;&gt;Chat ends.</title>
<path fill="none" stroke="black" d="M2103.95,-1744.71C2115.49,-1724.3 2132.29,-1688.94 2132.29,-1656 2132.29,-1656 2132.29,-1656 2132.29,-90 2132.29,-38.49 2182.16,-71.95 1962.29,-54 1589.71,-23.59 1140.34,-19.46 978.81,-19"/>
<polygon fill="black" stroke="black" points="979.21,-15.5 969.2,-18.98 979.19,-22.5 979.21,-15.5"/>
</g>
<!-- j1933646128&#45;&gt;Chat ends. -->
<g id="edge20" class="edge">
<title>j1933646128&#45;&gt;Chat ends.</title>
<path fill="none" stroke="black" d="M1888.95,-1636.52C1992.76,-1621.97 2094.29,-1595.58 2094.29,-1548 2094.29,-1548 2094.29,-1548 2094.29,-90 2094.29,-33.57 1220.98,-21.68 978.87,-19.46"/>
<polygon fill="black" stroke="black" points="979.03,-15.96 969,-19.37 978.97,-22.96 979.03,-15.96"/>
</g>
<!-- j859144724 -->
<g id="node18" class="node">
<title>j859144724</title>
<polygon fill="none" stroke="blue" points="1118.79,-1619 963.79,-1619 963.79,-1583 1118.79,-1583 1118.79,-1619"/>
<text text-anchor="middle" x="1041.29" y="-1597.3" font-family="Times New Roman,serif" font-size="14.00">und wie bekloppt genau?</text>
</g>
<!-- j249931359&#45;&gt;j859144724 -->
<g id="edge21" class="edge">
<title>j249931359&#45;&gt;j859144724</title>
<path fill="none" stroke="black" d="M1041.29,-1690.97C1041.29,-1674.76 1041.29,-1650.06 1041.29,-1630.79"/>
<polygon fill="black" stroke="black" points="1044.79,-1630.85 1041.29,-1620.85 1037.79,-1630.85 1044.79,-1630.85"/>
</g>
<!-- j3552818745&#45;&gt;Chat ends. -->
<g id="edge22" class="edge">
<title>j3552818745&#45;&gt;Chat ends.</title>
<path fill="none" stroke="black" d="M225.6,-1528.57C190.02,-1515.72 156.29,-1493.82 156.29,-1457 156.29,-1457 156.29,-1457 156.29,-90 156.29,-19.97 673.83,-17.16 855.31,-18.32"/>
<polygon fill="black" stroke="black" points="855.23,-21.82 865.26,-18.39 855.28,-14.82 855.23,-21.82"/>
</g>
<!-- j819295510 -->
<g id="node19" class="node">
<title>j819295510</title>
<polygon fill="none" stroke="red" points="1326.79,-1511 979.79,-1511 979.79,-1475 1326.79,-1475 1326.79,-1511"/>
<text text-anchor="middle" x="1153.29" y="-1489.3" font-family="Times New Roman,serif" font-size="14.00">&quot;Würfeln und so tun, als wäre man ein Zauberer&quot;&#45;bekloppt.</text>
</g>
<!-- j859144724&#45;&gt;j819295510 -->
<g id="edge23" class="edge">
<title>j859144724&#45;&gt;j819295510</title>
<path fill="none" stroke="black" d="M1059.28,-1582.97C1077.55,-1565.69 1106.01,-1538.74 1126.84,-1519.03"/>
<polygon fill="black" stroke="black" points="1129.01,-1521.8 1133.87,-1512.38 1124.2,-1516.71 1129.01,-1521.8"/>
</g>
<!-- j2679463501 -->
<g id="node20" class="node">
<title>j2679463501</title>
<polygon fill="none" stroke="red" points="922.29,-1511 656.29,-1511 656.29,-1475 922.29,-1475 922.29,-1511"/>
<text text-anchor="middle" x="789.29" y="-1489.3" font-family="Times New Roman,serif" font-size="14.00">Hör mir erst zu. Es heißt Fables &amp; Frontiers.</text>
</g>
<!-- j859144724&#45;&gt;j2679463501 -->
<g id="edge24" class="edge">
<title>j859144724&#45;&gt;j2679463501</title>
<path fill="none" stroke="black" d="M999.96,-1582.61C956.56,-1564.36 888.23,-1535.62 841.22,-1515.84"/>
<polygon fill="black" stroke="black" points="842.61,-1512.63 832.04,-1511.98 839.9,-1519.08 842.61,-1512.63"/>
</g>
<!-- j2524322113 -->
<g id="node21" class="node">
<title>j2524322113</title>
<polygon fill="none" stroke="blue" points="1487.29,-1438 993.29,-1438 993.29,-1402 1487.29,-1402 1487.29,-1438"/>
<text text-anchor="middle" x="1240.29" y="-1416.3" font-family="Times New Roman,serif" font-size="14.00">LMAOOOO!! schau mich an, mate, sehe ich so aus, als würde ich sowas tun wollen?</text>
</g>
<!-- j819295510&#45;&gt;j2524322113 -->
<g id="edge25" class="edge">
<title>j819295510&#45;&gt;j2524322113</title>
<path fill="none" stroke="black" d="M1174.35,-1474.81C1185.17,-1465.98 1198.54,-1455.07 1210.41,-1445.39"/>
<polygon fill="black" stroke="black" points="1212.41,-1448.27 1217.95,-1439.23 1207.99,-1442.84 1212.41,-1448.27"/>
</g>
<!-- j371692754 -->
<g id="node22" class="node">
<title>j371692754</title>
<polygon fill="none" stroke="red" points="974.79,-1438 545.79,-1438 545.79,-1402 974.79,-1402 974.79,-1438"/>
<text text-anchor="middle" x="760.29" y="-1416.3" font-family="Times New Roman,serif" font-size="14.00">Du musst würfeln. Aber du musst nicht die Stimme verstellen oder sowas.</text>
</g>
<!-- j2679463501&#45;&gt;j371692754 -->
<g id="edge26" class="edge">
<title>j2679463501&#45;&gt;j371692754</title>
<path fill="none" stroke="black" d="M782.27,-1474.81C779.06,-1466.96 775.19,-1457.47 771.59,-1448.66"/>
<polygon fill="black" stroke="black" points="774.84,-1447.36 767.82,-1439.43 768.36,-1450.01 774.84,-1447.36"/>
</g>
<!-- j2757918861 -->
<g id="node23" class="node">
<title>j2757918861</title>
<polygon fill="none" stroke="red" points="1881.29,-1365 1471.29,-1365 1471.29,-1329 1881.29,-1329 1881.29,-1365"/>
<text text-anchor="middle" x="1676.29" y="-1343.3" font-family="Times New Roman,serif" font-size="14.00">Ich versuche, einen Protoframe nicht anhand seiner Hülle zu beurteilen.</text>
</g>
<!-- j2524322113&#45;&gt;j2757918861 -->
<g id="edge27" class="edge">
<title>j2524322113&#45;&gt;j2757918861</title>
<path fill="none" stroke="black" d="M1347.51,-1401.54C1411.26,-1391.16 1492.24,-1377.97 1557.88,-1367.28"/>
<polygon fill="black" stroke="black" points="1558.31,-1370.76 1567.62,-1365.7 1557.18,-1363.85 1558.31,-1370.76"/>
</g>
<!-- j2748251316 -->
<g id="node24" class="node">
<title>j2748251316</title>
<polygon fill="none" stroke="red" points="1416.29,-1365 1054.29,-1365 1054.29,-1329 1416.29,-1329 1416.29,-1365"/>
<text text-anchor="middle" x="1235.29" y="-1343.3" font-family="Times New Roman,serif" font-size="14.00">Nein, aber, kann ich dafür sorgen, dass es sich für dich lohnt?</text>
</g>
<!-- j2524322113&#45;&gt;j2748251316 -->
<g id="edge28" class="edge">
<title>j2524322113&#45;&gt;j2748251316</title>
<path fill="none" stroke="black" d="M1239.08,-1401.81C1238.54,-1394.14 1237.89,-1384.89 1237.28,-1376.24"/>
<polygon fill="black" stroke="black" points="1240.79,-1376.27 1236.6,-1366.54 1233.81,-1376.76 1240.79,-1376.27"/>
</g>
<!-- j800265653 -->
<g id="node25" class="node">
<title>j800265653</title>
<polygon fill="none" stroke="red" points="844.79,-1365 689.79,-1365 689.79,-1329 844.79,-1329 844.79,-1365"/>
<text text-anchor="middle" x="767.29" y="-1343.3" font-family="Times New Roman,serif" font-size="14.00">Und ich bezahle dich ...?</text>
</g>
<!-- j371692754&#45;&gt;j800265653 -->
<g id="edge29" class="edge">
<title>j371692754&#45;&gt;j800265653</title>
<path fill="none" stroke="black" d="M761.98,-1401.81C762.74,-1394.14 763.65,-1384.89 764.5,-1376.24"/>
<polygon fill="black" stroke="black" points="767.96,-1376.83 765.46,-1366.54 761,-1376.14 767.96,-1376.83"/>
</g>
<!-- j1738794252 -->
<g id="node26" class="node">
<title>j1738794252</title>
<polygon fill="none" stroke="red" points="648.29,-1365 238.29,-1365 238.29,-1329 648.29,-1329 648.29,-1365"/>
<text text-anchor="middle" x="443.29" y="-1343.3" font-family="Times New Roman,serif" font-size="14.00">Und du kannst dich in Gedanken die ganze Zeit darüber lustig machen.</text>
</g>
<!-- j371692754&#45;&gt;j1738794252 -->
<g id="edge30" class="edge">
<title>j371692754&#45;&gt;j1738794252</title>
<path fill="none" stroke="black" d="M682.34,-1401.54C636.94,-1391.37 579.53,-1378.51 532.35,-1367.95"/>
<polygon fill="black" stroke="black" points="533.22,-1364.55 522.69,-1365.78 531.69,-1371.39 533.22,-1364.55"/>
</g>
<!-- j1951893962 -->
<g id="node27" class="node">
<title>j1951893962</title>
<ellipse fill="none" stroke="orange" cx="1725.29" cy="-1274" rx="64.19" ry="18"/>
<text text-anchor="middle" x="1725.29" y="-1270.3" font-family="Times New Roman,serif" font-size="14.00">+20 Chemistry</text>
</g>
<!-- j2757918861&#45;&gt;j1951893962 -->
<g id="edge31" class="edge">
<title>j2757918861&#45;&gt;j1951893962</title>
<path fill="none" stroke="black" d="M1688.15,-1328.81C1693.81,-1320.62 1700.7,-1310.62 1707.01,-1301.48"/>
<polygon fill="black" stroke="black" points="1709.88,-1303.49 1712.68,-1293.27 1704.12,-1299.52 1709.88,-1303.49"/>
</g>
<!-- j3410206632 -->
<g id="node28" class="node">
<title>j3410206632</title>
<polygon fill="none" stroke="blue" points="1459.79,-1292 1008.79,-1292 1008.79,-1256 1459.79,-1256 1459.79,-1292"/>
<text text-anchor="middle" x="1234.29" y="-1270.3" font-family="Times New Roman,serif" font-size="14.00">willst mich bestechen, um ein dummes spiel zu spielen?! du bist echt bekloppt</text>
</g>
<!-- j2748251316&#45;&gt;j3410206632 -->
<g id="edge32" class="edge">
<title>j2748251316&#45;&gt;j3410206632</title>
<path fill="none" stroke="black" d="M1235.05,-1328.81C1234.94,-1321.23 1234.81,-1312.1 1234.69,-1303.54"/>
<polygon fill="black" stroke="black" points="1238.19,-1303.49 1234.55,-1293.54 1231.19,-1303.59 1238.19,-1303.49"/>
</g>
<!-- j2669936286 -->
<g id="node29" class="node">
<title>j2669936286</title>
<polygon fill="none" stroke="blue" points="990.79,-1292 547.79,-1292 547.79,-1256 990.79,-1256 990.79,-1292"/>
<text text-anchor="middle" x="769.29" y="-1270.3" font-family="Times New Roman,serif" font-size="14.00">hmmm ... hast du dich in letzter zeit mal umgeschaut? ist dir was aufgefallen?</text>
</g>
<!-- j800265653&#45;&gt;j2669936286 -->
<g id="edge33" class="edge">
<title>j800265653&#45;&gt;j2669936286</title>
<path fill="none" stroke="black" d="M767.77,-1328.81C767.99,-1321.14 768.25,-1311.89 768.49,-1303.24"/>
<polygon fill="black" stroke="black" points="771.98,-1303.64 768.77,-1293.54 764.99,-1303.44 771.98,-1303.64"/>
</g>
<!-- j1705995658 -->
<g id="node30" class="node">
<title>j1705995658</title>
<polygon fill="none" stroke="blue" points="443.79,-1292 228.79,-1292 228.79,-1256 443.79,-1256 443.79,-1292"/>
<text text-anchor="middle" x="336.29" y="-1270.3" font-family="Times New Roman,serif" font-size="14.00">mmmm, fast hättest du mich gehabt</text>
</g>
<!-- j1738794252&#45;&gt;j1705995658 -->
<g id="edge34" class="edge">
<title>j1738794252&#45;&gt;j1705995658</title>
<path fill="none" stroke="black" d="M417.11,-1328.63C403.51,-1319.61 386.69,-1308.44 371.92,-1298.64"/>
<polygon fill="black" stroke="black" points="374.09,-1295.88 363.83,-1293.27 370.22,-1301.72 374.09,-1295.88"/>
</g>
<!-- j3597818374 -->
<g id="node31" class="node">
<title>j3597818374</title>
<polygon fill="none" stroke="blue" points="2066.29,-1219 1444.29,-1219 1444.29,-1183 2066.29,-1183 2066.29,-1219"/>
<text text-anchor="middle" x="1755.29" y="-1197.3" font-family="Times New Roman,serif" font-size="14.00">weiß ich zu schätzen, aber ich hab erwachsenen scheiß, um den ich mich kümmern muss. muss daher passen</text>
</g>
<!-- j1951893962&#45;&gt;j3597818374 -->
<g id="edge35" class="edge">
<title>j1951893962&#45;&gt;j3597818374</title>
<path fill="none" stroke="black" d="M1732.55,-1255.81C1735.9,-1247.88 1739.97,-1238.26 1743.73,-1229.36"/>
<polygon fill="black" stroke="black" points="1746.84,-1231 1747.51,-1220.42 1740.39,-1228.27 1746.84,-1231"/>
</g>
<!-- j3937473405 -->
<g id="node32" class="node">
<title>j3937473405</title>
<polygon fill="none" stroke="blue" points="1426.29,-1219 222.29,-1219 222.29,-1183 1426.29,-1183 1426.29,-1219"/>
<text text-anchor="middle" x="824.29" y="-1197.3" font-family="Times New Roman,serif" font-size="14.00">geld ist hier nicht mehr viel wert und das weißt du. also, wenn du mich dazu bringen willst dieses alberne spiel mit den anderen kindern zu spielen? dann musst du mir was spannendes anbieten. lol. wie einen gefallen</text>
</g>
<!-- j3410206632&#45;&gt;j3937473405 -->
<g id="edge36" class="edge">
<title>j3410206632&#45;&gt;j3937473405</title>
<path fill="none" stroke="black" d="M1133.47,-1255.54C1073.76,-1245.2 997.99,-1232.08 936.4,-1221.42"/>
<polygon fill="black" stroke="black" points="937.02,-1217.97 926.57,-1219.71 935.82,-1224.87 937.02,-1217.97"/>
</g>
<!-- j2669936286&#45;&gt;j3937473405 -->
<g id="edge37" class="edge">
<title>j2669936286&#45;&gt;j3937473405</title>
<path fill="none" stroke="black" d="M782.6,-1255.81C789.09,-1247.44 797.02,-1237.2 804.22,-1227.9"/>
<polygon fill="black" stroke="black" points="806.81,-1230.27 810.17,-1220.23 801.28,-1225.99 806.81,-1230.27"/>
</g>
<!-- j2626990616 -->
<g id="node33" class="node">
<title>j2626990616</title>
<polygon fill="none" stroke="blue" points="555.29,-1165 279.29,-1165 279.29,-1129 555.29,-1129 555.29,-1165"/>
<text text-anchor="middle" x="417.29" y="-1143.3" font-family="Times New Roman,serif" font-size="14.00">nein. sorry. hoffe ihr knirpse habt viel spaß. lol</text>
</g>
<!-- j1705995658&#45;&gt;j2626990616 -->
<g id="edge38" class="edge">
<title>j1705995658&#45;&gt;j2626990616</title>
<path fill="none" stroke="black" d="M260.44,-1255.54C241.94,-1247.53 224.32,-1235.89 213.29,-1219 204.54,-1205.6 202.98,-1195.23 213.29,-1183 221.9,-1172.78 242.73,-1165.55 267.95,-1160.43"/>
<polygon fill="black" stroke="black" points="268.33,-1163.92 277.51,-1158.64 267.04,-1157.04 268.33,-1163.92"/>
</g>
<!-- j297074846 -->
<g id="node34" class="node">
<title>j297074846</title>
<polygon fill="none" stroke="blue" points="1828.79,-1057 1635.79,-1057 1635.79,-1021 1828.79,-1021 1828.79,-1057"/>
<text text-anchor="middle" x="1732.29" y="-1035.3" font-family="Times New Roman,serif" font-size="14.00">wünsch euch knirpsen viel spaß</text>
</g>
<!-- j3597818374&#45;&gt;j297074846 -->
<g id="edge39" class="edge">
<title>j3597818374&#45;&gt;j297074846</title>
<path fill="none" stroke="black" d="M1752.78,-1182.57C1748.84,-1155.16 1741.16,-1101.69 1736.4,-1068.59"/>
<polygon fill="black" stroke="black" points="1739.89,-1068.3 1735.01,-1058.9 1732.97,-1069.3 1739.89,-1068.3"/>
</g>
<!-- j3059267011 -->
<g id="node35" class="node">
<title>j3059267011</title>
<polygon fill="none" stroke="blue" points="1094.79,-1111 553.79,-1111 553.79,-1075 1094.79,-1075 1094.79,-1111"/>
<text text-anchor="middle" x="824.29" y="-1089.3" font-family="Times New Roman,serif" font-size="14.00">in einem bereich meiner wahl, eingefordert an einem zeitpunkt und einem ort meiner wahl, klar?</text>
</g>
<!-- j3937473405&#45;&gt;j3059267011 -->
<g id="edge40" class="edge">
<title>j3937473405&#45;&gt;j3059267011</title>
<path fill="none" stroke="black" d="M824.29,-1182.97C824.29,-1166.76 824.29,-1142.06 824.29,-1122.79"/>
<polygon fill="black" stroke="black" points="827.79,-1122.85 824.29,-1112.85 820.79,-1122.85 827.79,-1122.85"/>
</g>
<!-- j2626990616&#45;&gt;Chat ends. -->
<g id="edge41" class="edge">
<title>j2626990616&#45;&gt;Chat ends.</title>
<path fill="none" stroke="black" d="M421.23,-1128.85C425.67,-1107.97 432.29,-1071.6 432.29,-1040 432.29,-1040 432.29,-1040 432.29,-90 432.29,-47.61 726.06,-28.2 856.33,-21.67"/>
<polygon fill="black" stroke="black" points="856.34,-25.18 866.15,-21.19 855.99,-18.18 856.34,-25.18"/>
</g>
<!-- j297074846&#45;&gt;Chat ends. -->
<g id="edge42" class="edge">
<title>j297074846&#45;&gt;Chat ends.</title>
<path fill="none" stroke="black" d="M1635.55,-1031.34C1583.26,-1021.87 1529.29,-999.8 1529.29,-949 1529.29,-949 1529.29,-949 1529.29,-90 1529.29,-34.99 1134.06,-22.54 978.83,-19.77"/>
<polygon fill="black" stroke="black" points="979.2,-16.28 969.15,-19.61 979.08,-23.28 979.2,-16.28"/>
</g>
<!-- j2636829876 -->
<g id="node36" class="node">
<title>j2636829876</title>
<polygon fill="none" stroke="red" points="820.79,-1003 679.79,-1003 679.79,-967 820.79,-967 820.79,-1003"/>
<text text-anchor="middle" x="750.29" y="-981.3" font-family="Times New Roman,serif" font-size="14.00">Agghhhhh ... na gut ...</text>
</g>
<!-- j3059267011&#45;&gt;j2636829876 -->
<g id="edge43" class="edge">
<title>j3059267011&#45;&gt;j2636829876</title>
<path fill="none" stroke="black" d="M812.4,-1074.97C800.66,-1058.15 782.52,-1032.17 768.88,-1012.62"/>
<polygon fill="black" stroke="black" points="771.86,-1010.78 763.26,-1004.58 766.12,-1014.78 771.86,-1010.78"/>
</g>
<!-- j1755770842 -->
<g id="node37" class="node">
<title>j1755770842</title>
<polygon fill="none" stroke="red" points="1399.79,-1003 838.79,-1003 838.79,-967 1399.79,-967 1399.79,-1003"/>
<text text-anchor="middle" x="1119.29" y="-981.3" font-family="Times New Roman,serif" font-size="14.00">Mir gefällt die Vorstellung nicht, dir einen Gefallen zu schulden. Nicht für diese Sache. Vergiss es.</text>
</g>
<!-- j3059267011&#45;&gt;j1755770842 -->
<g id="edge44" class="edge">
<title>j3059267011&#45;&gt;j1755770842</title>
<path fill="none" stroke="black" d="M872.67,-1074.61C924.01,-1056.17 1005.16,-1027.01 1060.23,-1007.22"/>
<polygon fill="black" stroke="black" points="1061.23,-1010.58 1069.46,-1003.91 1058.86,-1003.99 1061.23,-1010.58"/>
</g>
<!-- j4149201029 -->
<g id="node38" class="node">
<title>j4149201029</title>
<ellipse fill="none" stroke="orange" cx="795.29" cy="-912" rx="64.19" ry="18"/>
<text text-anchor="middle" x="795.29" y="-908.3" font-family="Times New Roman,serif" font-size="14.00">+20 Chemistry</text>
</g>
<!-- j2636829876&#45;&gt;j4149201029 -->
<g id="edge45" class="edge">
<title>j2636829876&#45;&gt;j4149201029</title>
<path fill="none" stroke="black" d="M761.18,-966.81C766.38,-958.62 772.71,-948.62 778.5,-939.48"/>
<polygon fill="black" stroke="black" points="781.29,-941.63 783.69,-931.31 775.38,-937.88 781.29,-941.63"/>
</g>
<!-- j2507937096 -->
<g id="node39" class="node">
<title>j2507937096</title>
<ellipse fill="none" stroke="orange" cx="1095.29" cy="-912" rx="64.19" ry="18"/>
<text text-anchor="middle" x="1095.29" y="-908.3" font-family="Times New Roman,serif" font-size="14.00">+20 Chemistry</text>
</g>
<!-- j1755770842&#45;&gt;j2507937096 -->
<g id="edge46" class="edge">
<title>j1755770842&#45;&gt;j2507937096</title>
<path fill="none" stroke="black" d="M1113.48,-966.81C1110.83,-958.96 1107.62,-949.47 1104.64,-940.66"/>
<polygon fill="black" stroke="black" points="1108.05,-939.82 1101.53,-931.46 1101.42,-942.06 1108.05,-939.82"/>
</g>
<!-- j1427086692 -->
<g id="node40" class="node">
<title>j1427086692</title>
<polygon fill="none" stroke="blue" points="890.79,-857 699.79,-857 699.79,-821 890.79,-821 890.79,-857"/>
<text text-anchor="middle" x="795.29" y="-835.3" font-family="Times New Roman,serif" font-size="14.00">lmaooo BOOM so wird es was</text>
</g>
<!-- j4149201029&#45;&gt;j1427086692 -->
<g id="edge47" class="edge">
<title>j4149201029&#45;&gt;j1427086692</title>
<path fill="none" stroke="black" d="M795.29,-893.81C795.29,-886.23 795.29,-877.1 795.29,-868.54"/>
<polygon fill="black" stroke="black" points="798.79,-868.54 795.29,-858.54 791.79,-868.54 798.79,-868.54"/>
</g>
<!-- j2347679272 -->
<g id="node41" class="node">
<title>j2347679272</title>
<polygon fill="none" stroke="blue" points="1164.79,-803 1007.79,-803 1007.79,-767 1164.79,-767 1164.79,-803"/>
<text text-anchor="middle" x="1086.29" y="-781.3" font-family="Times New Roman,serif" font-size="14.00">kluge entscheidung, boss</text>
</g>
<!-- j2507937096&#45;&gt;j2347679272 -->
<g id="edge48" class="edge">
<title>j2507937096&#45;&gt;j2347679272</title>
<path fill="none" stroke="black" d="M1094.04,-893.62C1092.57,-873.19 1090.1,-838.99 1088.35,-814.62"/>
<polygon fill="black" stroke="black" points="1091.85,-814.47 1087.64,-804.74 1084.87,-814.97 1091.85,-814.47"/>
</g>
<!-- j3486639220 -->
<g id="node42" class="node">
<title>j3486639220</title>
<polygon fill="none" stroke="blue" points="998.79,-749 615.79,-749 615.79,-713 998.79,-713 998.79,-749"/>
<text text-anchor="middle" x="807.29" y="-727.3" font-family="Times New Roman,serif" font-size="14.00">wobei ... jetzt muss ich dieses dumme spiel spielen, oder? scheiße</text>
</g>
<!-- j1427086692&#45;&gt;j3486639220 -->
<g id="edge49" class="edge">
<title>j1427086692&#45;&gt;j3486639220</title>
<path fill="none" stroke="black" d="M797.22,-820.97C799.06,-804.69 801.88,-779.82 804.06,-760.52"/>
<polygon fill="black" stroke="black" points="807.51,-761.17 805.16,-750.84 800.55,-760.39 807.51,-761.17"/>
</g>
<!-- j2347679272&#45;&gt;Chat ends. -->
<g id="edge50" class="edge">
<title>j2347679272&#45;&gt;Chat ends.</title>
<path fill="none" stroke="black" d="M1085.98,-766.61C1085.69,-748.67 1085.29,-719.88 1085.29,-695 1085.29,-695 1085.29,-695 1085.29,-90 1085.29,-42.07 1026.56,-26 978.54,-20.87"/>
<polygon fill="black" stroke="black" points="979.02,-17.4 968.75,-19.97 978.39,-24.37 979.02,-17.4"/>
</g>
<!-- j1806919242 -->
<g id="node43" class="node">
<title>j1806919242</title>
<polygon fill="none" stroke="blue" points="962.79,-676 651.79,-676 651.79,-640 962.79,-640 962.79,-676"/>
<text text-anchor="middle" x="807.29" y="-654.3" font-family="Times New Roman,serif" font-size="14.00">weiß nicht, wer gerade wen übers ohr gehauen hat lol</text>
</g>
<!-- j3486639220&#45;&gt;j1806919242 -->
<g id="edge51" class="edge">
<title>j3486639220&#45;&gt;j1806919242</title>
<path fill="none" stroke="black" d="M807.29,-712.81C807.29,-705.23 807.29,-696.1 807.29,-687.54"/>
<polygon fill="black" stroke="black" points="810.79,-687.54 807.29,-677.54 803.79,-687.54 810.79,-687.54"/>
</g>
<!-- j1182065244 -->
<g id="node44" class="node">
<title>j1182065244</title>
<polygon fill="none" stroke="blue" points="907.29,-603 707.29,-603 707.29,-567 907.29,-567 907.29,-603"/>
<text text-anchor="middle" x="807.29" y="-581.3" font-family="Times New Roman,serif" font-size="14.00">vergiss den gefallen aber nicht, ja</text>
</g>
<!-- j1806919242&#45;&gt;j1182065244 -->
<g id="edge52" class="edge">
<title>j1806919242&#45;&gt;j1182065244</title>
<path fill="none" stroke="black" d="M807.29,-639.81C807.29,-632.23 807.29,-623.1 807.29,-614.54"/>
<polygon fill="black" stroke="black" points="810.79,-614.54 807.29,-604.54 803.79,-614.54 810.79,-614.54"/>
</g>
<!-- j56865479 -->
<g id="node45" class="node">
<title>j56865479</title>
<ellipse fill="none" stroke="orange" cx="807.29" cy="-512" rx="150.57" ry="18"/>
<text text-anchor="middle" x="807.29" y="-508.3" font-family="Times New Roman,serif" font-size="14.00">Boolean AmirRPGQuincy is now true.</text>
</g>
<!-- j1182065244&#45;&gt;j56865479 -->
<g id="edge53" class="edge">
<title>j1182065244&#45;&gt;j56865479</title>
<path fill="none" stroke="black" d="M807.29,-566.81C807.29,-559.23 807.29,-550.1 807.29,-541.54"/>
<polygon fill="black" stroke="black" points="810.79,-541.54 807.29,-531.54 803.79,-541.54 810.79,-541.54"/>
</g>
<!-- j4133403054 -->
<g id="node46" class="node">
<title>j4133403054</title>
<ellipse fill="none" stroke="orange" cx="807.29" cy="-439" rx="131.88" ry="18"/>
<text text-anchor="middle" x="807.29" y="-435.3" font-family="Times New Roman,serif" font-size="14.00">Check boolean AmirRPGEleanor</text>
</g>
<!-- j56865479&#45;&gt;j4133403054 -->
<g id="edge54" class="edge">
<title>j56865479&#45;&gt;j4133403054</title>
<path fill="none" stroke="black" d="M807.29,-493.81C807.29,-486.23 807.29,-477.1 807.29,-468.54"/>
<polygon fill="black" stroke="black" points="810.79,-468.54 807.29,-458.54 803.79,-468.54 810.79,-468.54"/>
</g>
<!-- j3868439006 -->
<g id="node47" class="node">
<title>j3868439006</title>
<ellipse fill="none" stroke="orange" cx="807.29" cy="-352" rx="128.08" ry="18"/>
<text text-anchor="middle" x="807.29" y="-348.3" font-family="Times New Roman,serif" font-size="14.00">Check boolean AmirRPGArthur</text>
</g>
<!-- j4133403054&#45;&gt;j3868439006 -->
<g id="edge55" class="edge">
<title>j4133403054&#45;&gt;j3868439006</title>
<path fill="none" stroke="green" d="M807.29,-420.8C807.29,-409.58 807.29,-394.67 807.29,-381.69"/>
<polygon fill="green" stroke="green" points="810.79,-381.98 807.29,-371.98 803.79,-381.98 810.79,-381.98"/>
<text text-anchor="middle" x="818.29" y="-391.8" font-family="Times New Roman,serif" font-size="14.00">true</text>
</g>
<!-- j1692268193 -->
<g id="node48" class="node">
<title>j1692268193</title>
<ellipse fill="none" stroke="orange" cx="917.29" cy="-91" rx="139.98" ry="18"/>
<text text-anchor="middle" x="917.29" y="-87.3" font-family="Times New Roman,serif" font-size="14.00">Boolean AmirRPGAny is now true.</text>
</g>
<!-- j4133403054&#45;&gt;j1692268193 -->
<g id="edge56" class="edge">
<title>j4133403054&#45;&gt;j1692268193</title>
<path fill="none" stroke="brown" d="M887.57,-424.43C925.8,-412.89 963.29,-391.71 963.29,-353 963.29,-353 963.29,-353 963.29,-177 963.29,-155.26 951.51,-133.75 939.87,-117.81"/>
<polygon fill="brown" stroke="brown" points="942.94,-116.06 934.05,-110.3 937.41,-120.35 942.94,-116.06"/>
<text text-anchor="middle" x="976.29" y="-261.3" font-family="Times New Roman,serif" font-size="14.00">false</text>
</g>
<!-- j3868439006&#45;&gt;j1692268193 -->
<g id="edge58" class="edge">
<title>j3868439006&#45;&gt;j1692268193</title>
<path fill="none" stroke="brown" d="M842.1,-334.29C862.05,-322.78 885.58,-305.5 898.29,-283 927.26,-231.7 925.28,-160.17 921.28,-120.81"/>
<polygon fill="brown" stroke="brown" points="924.77,-120.5 920.15,-110.96 917.81,-121.29 924.77,-120.5"/>
<text text-anchor="middle" x="933.29" y="-217.8" font-family="Times New Roman,serif" font-size="14.00">false</text>
</g>
<!-- j2616720549 -->
<g id="node49" class="node">
<title>j2616720549</title>
<ellipse fill="none" stroke="orange" cx="771.29" cy="-265" rx="117.78" ry="18"/>
<text text-anchor="middle" x="771.29" y="-261.3" font-family="Times New Roman,serif" font-size="14.00">Check boolean AmirRPGAoi</text>
</g>
<!-- j3868439006&#45;&gt;j2616720549 -->
<g id="edge57" class="edge">
<title>j3868439006&#45;&gt;j2616720549</title>
<path fill="none" stroke="green" d="M800,-333.8C795.12,-322.28 788.59,-306.86 782.99,-293.63"/>
<polygon fill="green" stroke="green" points="786.28,-292.41 779.15,-284.57 779.83,-295.14 786.28,-292.41"/>
<text text-anchor="middle" x="803.29" y="-304.8" font-family="Times New Roman,serif" font-size="14.00">true</text>
</g>
<!-- j1692268193&#45;&gt;Chat ends. -->
<g id="edge59" class="edge">
<title>j1692268193&#45;&gt;Chat ends.</title>
<path fill="none" stroke="black" d="M917.29,-72.81C917.29,-65.23 917.29,-56.1 917.29,-47.54"/>
<polygon fill="black" stroke="black" points="920.79,-47.54 917.29,-37.54 913.79,-47.54 920.79,-47.54"/>
</g>
<!-- j2616720549&#45;&gt;j1692268193 -->
<g id="edge61" class="edge">
<title>j2616720549&#45;&gt;j1692268193</title>
<path fill="none" stroke="brown" d="M788.62,-246.84C802.02,-233.36 820.81,-213.92 836.29,-196 858.34,-170.46 881.86,-139.85 897.84,-118.47"/>
<polygon fill="brown" stroke="brown" points="900.56,-120.68 903.71,-110.57 894.94,-116.51 900.56,-120.68"/>
<text text-anchor="middle" x="879.29" y="-174.3" font-family="Times New Roman,serif" font-size="14.00">false</text>
</g>
<!-- j2411887112 -->
<g id="node50" class="node">
<title>j2411887112</title>
<ellipse fill="none" stroke="orange" cx="703.29" cy="-178" rx="124.28" ry="18"/>
<text text-anchor="middle" x="703.29" y="-174.3" font-family="Times New Roman,serif" font-size="14.00">Check boolean AmirRPGLettie</text>
</g>
<!-- j2616720549&#45;&gt;j2411887112 -->
<g id="edge60" class="edge">
<title>j2616720549&#45;&gt;j2411887112</title>
<path fill="none" stroke="green" d="M757.53,-246.8C747.94,-234.82 734.98,-218.62 724.14,-205.06"/>
<polygon fill="green" stroke="green" points="726.96,-202.98 717.98,-197.36 721.49,-207.35 726.96,-202.98"/>
<text text-anchor="middle" x="753.29" y="-217.8" font-family="Times New Roman,serif" font-size="14.00">true</text>
</g>
<!-- j2411887112&#45;&gt;j1692268193 -->
<g id="edge63" class="edge">
<title>j2411887112&#45;&gt;j1692268193</title>
<path fill="none" stroke="brown" d="M741.78,-160.52C765.24,-150.59 795.89,-137.8 823.29,-127 835.69,-122.11 849.08,-117.01 861.76,-112.27"/>
<polygon fill="brown" stroke="brown" points="862.64,-115.68 870.79,-108.91 860.2,-109.12 862.64,-115.68"/>
<text text-anchor="middle" x="836.29" y="-130.8" font-family="Times New Roman,serif" font-size="14.00">false</text>
</g>
<!-- j3798570005 -->
<g id="node51" class="node">
<title>j3798570005</title>
<ellipse fill="none" stroke="orange" cx="625.29" cy="-91" rx="134.58" ry="18"/>
<text text-anchor="middle" x="625.29" y="-87.3" font-family="Times New Roman,serif" font-size="14.00">Boolean AmirRPGAll is now true.</text>
</g>
<!-- j2411887112&#45;&gt;j3798570005 -->
<g id="edge62" class="edge">
<title>j2411887112&#45;&gt;j3798570005</title>
<path fill="none" stroke="green" d="M687.51,-159.8C676.3,-147.59 661.07,-130.99 648.49,-117.28"/>
<polygon fill="green" stroke="green" points="651.41,-115.29 642.07,-110.29 646.26,-120.02 651.41,-115.29"/>
<text text-anchor="middle" x="680.29" y="-130.8" font-family="Times New Roman,serif" font-size="14.00">true</text>
</g>
<!-- j3798570005&#45;&gt;Chat ends. -->
<g id="edge64" class="edge">
<title>j3798570005&#45;&gt;Chat ends.</title>
<path fill="none" stroke="black" d="M688.29,-74.68C741.33,-61.78 816.25,-43.57 865.77,-31.53"/>
<polygon fill="black" stroke="black" points="866.49,-34.95 875.38,-29.19 864.84,-28.15 866.49,-34.95"/>
</g>
</g>
</svg>
