<?xml version="1.0" encoding="UTF-8" standalone="no"?>
<!DOCTYPE svg PUBLIC "-//W3C//DTD SVG 1.1//EN"
 "http://www.w3.org/Graphics/SVG/1.1/DTD/svg11.dtd">
<!-- Generated by graphviz version 7.1.0 (20230121.1956)
 -->
<!-- Pages: 1 -->
<svg width="1548pt" height="2100pt"
 viewBox="0.00 0.00 1548.09 2100.00" xmlns="http://www.w3.org/2000/svg" xmlns:xlink="http://www.w3.org/1999/xlink">
<g id="graph0" class="graph" transform="scale(1 1) rotate(0) translate(4 2096)">
<polygon fill="white" stroke="none" points="-4,4 -4,-2096 1544.09,-2096 1544.09,4 -4,4"/>
<!-- QuincyRank5Convo5 begins. -->
<g id="node1" class="node">
<title>QuincyRank5Convo5 begins.</title>
<ellipse fill="none" stroke="orange" cx="126.09" cy="-2074" rx="118.08" ry="18"/>
<text text-anchor="middle" x="126.09" y="-2070.3" font-family="Times New Roman,serif" font-size="14.00">QuincyRank5Convo5 begins.</text>
</g>
<!-- j2784076352 -->
<g id="node2" class="node">
<title>j2784076352</title>
<ellipse fill="none" stroke="orange" cx="126.09" cy="-2001" rx="126.18" ry="18"/>
<text text-anchor="middle" x="126.09" y="-1997.3" font-family="Times New Roman,serif" font-size="14.00">Check boolean QuincyForgiven</text>
</g>
<!-- QuincyRank5Convo5 begins.&#45;&gt;j2784076352 -->
<g id="edge1" class="edge">
<title>QuincyRank5Convo5 begins.&#45;&gt;j2784076352</title>
<path fill="none" stroke="black" d="M126.09,-2055.81C126.09,-2048.23 126.09,-2039.1 126.09,-2030.54"/>
<polygon fill="black" stroke="black" points="129.59,-2030.54 126.09,-2020.54 122.59,-2030.54 129.59,-2030.54"/>
</g>
<!-- j3803279133 -->
<g id="node3" class="node">
<title>j3803279133</title>
<ellipse fill="none" stroke="orange" cx="922.09" cy="-1914" rx="117.78" ry="18"/>
<text text-anchor="middle" x="922.09" y="-1910.3" font-family="Times New Roman,serif" font-size="14.00">Check boolean QuincyDating</text>
</g>
<!-- j2784076352&#45;&gt;j3803279133 -->
<g id="edge2" class="edge">
<title>j2784076352&#45;&gt;j3803279133</title>
<path fill="none" stroke="green" d="M224.89,-1989.45C375.59,-1973.36 661.64,-1942.81 816.37,-1926.29"/>
<polygon fill="green" stroke="green" points="816.65,-1929.78 826.23,-1925.24 815.91,-1922.82 816.65,-1929.78"/>
<text text-anchor="middle" x="583.09" y="-1953.8" font-family="Times New Roman,serif" font-size="14.00">true</text>
</g>
<!-- Chat ends. -->
<g id="node4" class="node">
<title>Chat ends.</title>
<ellipse fill="none" stroke="orange" cx="1182.09" cy="-18" rx="50.09" ry="18"/>
<text text-anchor="middle" x="1182.09" y="-14.3" font-family="Times New Roman,serif" font-size="14.00">Chat ends.</text>
</g>
<!-- j2784076352&#45;&gt;Chat ends. -->
<g id="edge3" class="edge">
<title>j2784076352&#45;&gt;Chat ends.</title>
<path fill="none" stroke="brown" d="M120.85,-1982.6C116.18,-1965.54 110.09,-1938.73 110.09,-1915 110.09,-1915 110.09,-1915 110.09,-90 110.09,-76.93 121.74,-77.28 134.09,-73 227.11,-40.73 910.25,-24.46 1120.61,-20.17"/>
<polygon fill="brown" stroke="brown" points="1120.59,-23.67 1130.52,-19.97 1120.45,-16.67 1120.59,-23.67"/>
<text text-anchor="middle" x="123.09" y="-1023.3" font-family="Times New Roman,serif" font-size="14.00">false</text>
</g>
<!-- j3803279133&#45;&gt;Chat ends. -->
<g id="edge5" class="edge">
<title>j3803279133&#45;&gt;Chat ends.</title>
<path fill="none" stroke="brown" d="M1033.79,-1908.08C1205.35,-1899 1514.09,-1875.99 1514.09,-1828 1514.09,-1828 1514.09,-1828 1514.09,-90 1514.09,-35.34 1339.84,-22.62 1243.82,-19.75"/>
<polygon fill="brown" stroke="brown" points="1244.12,-16.26 1234.03,-19.49 1243.93,-23.26 1244.12,-16.26"/>
<text text-anchor="middle" x="1527.09" y="-979.8" font-family="Times New Roman,serif" font-size="14.00">false</text>
</g>
<!-- j773081788 -->
<g id="node5" class="node">
<title>j773081788</title>
<polygon fill="none" stroke="blue" points="1242.59,-1845 601.59,-1845 601.59,-1809 1242.59,-1809 1242.59,-1845"/>
<text text-anchor="middle" x="922.09" y="-1823.3" font-family="Times New Roman,serif" font-size="14.00">babe &#45; babe, bist du da? lmao ich brauch deine hilfe. ich hab was geplant und brauch für jemanden ne ablenkung</text>
</g>
<!-- j3803279133&#45;&gt;j773081788 -->
<g id="edge4" class="edge">
<title>j3803279133&#45;&gt;j773081788</title>
<path fill="none" stroke="green" d="M922.09,-1895.8C922.09,-1884.58 922.09,-1869.67 922.09,-1856.69"/>
<polygon fill="green" stroke="green" points="925.59,-1856.98 922.09,-1846.98 918.59,-1856.98 925.59,-1856.98"/>
<text text-anchor="middle" x="933.09" y="-1866.8" font-family="Times New Roman,serif" font-size="14.00">true</text>
</g>
<!-- j342631034 -->
<g id="node6" class="node">
<title>j342631034</title>
<polygon fill="none" stroke="blue" points="981.09,-1772 863.09,-1772 863.09,-1736 981.09,-1736 981.09,-1772"/>
<text text-anchor="middle" x="922.09" y="-1750.3" font-family="Times New Roman,serif" font-size="14.00">das wird sooo gut</text>
</g>
<!-- j773081788&#45;&gt;j342631034 -->
<g id="edge6" class="edge">
<title>j773081788&#45;&gt;j342631034</title>
<path fill="none" stroke="black" d="M922.09,-1808.81C922.09,-1801.23 922.09,-1792.1 922.09,-1783.54"/>
<polygon fill="black" stroke="black" points="925.59,-1783.54 922.09,-1773.54 918.59,-1783.54 925.59,-1783.54"/>
</g>
<!-- j847212310 -->
<g id="node7" class="node">
<title>j847212310</title>
<polygon fill="none" stroke="red" points="867.59,-1699 610.59,-1699 610.59,-1663 867.59,-1663 867.59,-1699"/>
<text text-anchor="middle" x="739.09" y="-1677.3" font-family="Times New Roman,serif" font-size="14.00">Ich spüre Schalk in der Luft. Ich bin dabei.</text>
</g>
<!-- j342631034&#45;&gt;j847212310 -->
<g id="edge7" class="edge">
<title>j342631034&#45;&gt;j847212310</title>
<path fill="none" stroke="black" d="M877.32,-1735.63C852.4,-1725.96 821.15,-1713.84 794.67,-1703.56"/>
<polygon fill="black" stroke="black" points="796.03,-1700.34 785.44,-1699.98 793.5,-1706.86 796.03,-1700.34"/>
</g>
<!-- j386553814 -->
<g id="node8" class="node">
<title>j386553814</title>
<polygon fill="none" stroke="red" points="998.09,-1645 846.09,-1645 846.09,-1609 998.09,-1609 998.09,-1645"/>
<text text-anchor="middle" x="922.09" y="-1623.3" font-family="Times New Roman,serif" font-size="14.00">Uh&#45;oh. Ja? Was gibt es?</text>
</g>
<!-- j342631034&#45;&gt;j386553814 -->
<g id="edge8" class="edge">
<title>j342631034&#45;&gt;j386553814</title>
<path fill="none" stroke="black" d="M922.09,-1735.62C922.09,-1715.19 922.09,-1680.99 922.09,-1656.62"/>
<polygon fill="black" stroke="black" points="925.59,-1656.75 922.09,-1646.75 918.59,-1656.75 925.59,-1656.75"/>
</g>
<!-- j2558831453 -->
<g id="node9" class="node">
<title>j2558831453</title>
<polygon fill="none" stroke="red" points="1380.09,-1699 1152.09,-1699 1152.09,-1663 1380.09,-1663 1380.09,-1699"/>
<text text-anchor="middle" x="1266.09" y="-1677.3" font-family="Times New Roman,serif" font-size="14.00">Bin gleich zurück, tut mir leid. [Ende.]</text>
</g>
<!-- j342631034&#45;&gt;j2558831453 -->
<g id="edge9" class="edge">
<title>j342631034&#45;&gt;j2558831453</title>
<path fill="none" stroke="black" d="M981.22,-1740.79C1033.13,-1730.08 1109.58,-1714.3 1170.21,-1701.79"/>
<polygon fill="black" stroke="black" points="1170.77,-1705.25 1179.86,-1699.8 1169.36,-1698.39 1170.77,-1705.25"/>
</g>
<!-- j1348505615 -->
<g id="node10" class="node">
<title>j1348505615</title>
<ellipse fill="none" stroke="orange" cx="719.09" cy="-1573" rx="64.19" ry="18"/>
<text text-anchor="middle" x="719.09" y="-1569.3" font-family="Times New Roman,serif" font-size="14.00">+20 Chemistry</text>
</g>
<!-- j847212310&#45;&gt;j1348505615 -->
<g id="edge10" class="edge">
<title>j847212310&#45;&gt;j1348505615</title>
<path fill="none" stroke="black" d="M735.88,-1662.97C732.8,-1646.69 728.11,-1621.82 724.47,-1602.52"/>
<polygon fill="black" stroke="black" points="727.93,-1602.01 722.64,-1592.83 721.06,-1603.3 727.93,-1602.01"/>
</g>
<!-- j2249801121 -->
<g id="node11" class="node">
<title>j2249801121</title>
<polygon fill="none" stroke="blue" points="985.59,-1337 438.59,-1337 438.59,-1301 985.59,-1301 985.59,-1337"/>
<text text-anchor="middle" x="712.09" y="-1315.3" font-family="Times New Roman,serif" font-size="14.00">okay, also ich war mit lettie und eleanor auf streife und wir haben einen scaldra truck eingesackt</text>
</g>
<!-- j386553814&#45;&gt;j2249801121 -->
<g id="edge11" class="edge">
<title>j386553814&#45;&gt;j2249801121</title>
<path fill="none" stroke="black" d="M922.09,-1608.74C922.09,-1587.76 922.09,-1551.28 922.09,-1520 922.09,-1520 922.09,-1520 922.09,-1391 922.09,-1368.37 877.77,-1351.55 829.85,-1339.97"/>
<polygon fill="black" stroke="black" points="830.94,-1336.63 820.41,-1337.78 829.36,-1343.45 830.94,-1336.63"/>
</g>
<!-- j1071919188 -->
<g id="node12" class="node">
<title>j1071919188</title>
<polygon fill="none" stroke="blue" points="1443.09,-1537 1203.09,-1537 1203.09,-1501 1443.09,-1501 1443.09,-1537"/>
<text text-anchor="middle" x="1323.09" y="-1515.3" font-family="Times New Roman,serif" font-size="14.00">naaaa gut. ich geh zu aoi, sie wird helfen</text>
</g>
<!-- j2558831453&#45;&gt;j1071919188 -->
<g id="edge12" class="edge">
<title>j2558831453&#45;&gt;j1071919188</title>
<path fill="none" stroke="black" d="M1272.3,-1662.57C1282.11,-1635.04 1301.28,-1581.22 1313.06,-1548.16"/>
<polygon fill="black" stroke="black" points="1316.32,-1549.43 1316.38,-1538.83 1309.73,-1547.08 1316.32,-1549.43"/>
</g>
<!-- j3169339674 -->
<g id="node13" class="node">
<title>j3169339674</title>
<polygon fill="none" stroke="blue" points="894.09,-1483 530.09,-1483 530.09,-1447 894.09,-1447 894.09,-1483"/>
<text text-anchor="middle" x="712.09" y="-1461.3" font-family="Times New Roman,serif" font-size="14.00">ich wusste, es gibt einen grund, warum wir zusammen sind, lol</text>
</g>
<!-- j1348505615&#45;&gt;j3169339674 -->
<g id="edge13" class="edge">
<title>j1348505615&#45;&gt;j3169339674</title>
<path fill="none" stroke="black" d="M717.96,-1554.97C716.89,-1538.76 715.26,-1514.06 713.99,-1494.79"/>
<polygon fill="black" stroke="black" points="717.49,-1494.6 713.33,-1484.85 710.5,-1495.06 717.49,-1494.6"/>
</g>
<!-- j2911408057 -->
<g id="node14" class="node">
<title>j2911408057</title>
<polygon fill="none" stroke="blue" points="915.59,-1264 508.59,-1264 508.59,-1228 915.59,-1228 915.59,-1264"/>
<text text-anchor="middle" x="712.09" y="-1242.3" font-family="Times New Roman,serif" font-size="14.00">und das teil ist mit gefühlten 50.000 kisten an verpackungschips gefüllt</text>
</g>
<!-- j2249801121&#45;&gt;j2911408057 -->
<g id="edge14" class="edge">
<title>j2249801121&#45;&gt;j2911408057</title>
<path fill="none" stroke="black" d="M712.09,-1300.81C712.09,-1293.23 712.09,-1284.1 712.09,-1275.54"/>
<polygon fill="black" stroke="black" points="715.59,-1275.54 712.09,-1265.54 708.59,-1275.54 715.59,-1275.54"/>
</g>
<!-- j1071919188&#45;&gt;Chat ends. -->
<g id="edge15" class="edge">
<title>j1071919188&#45;&gt;Chat ends.</title>
<path fill="none" stroke="black" d="M1406.75,-1500.56C1442.47,-1487.74 1476.09,-1465.88 1476.09,-1429 1476.09,-1429 1476.09,-1429 1476.09,-90 1476.09,-42.56 1329.62,-26.72 1243.44,-21.5"/>
<polygon fill="black" stroke="black" points="1243.66,-18.01 1233.47,-20.93 1243.26,-25 1243.66,-18.01"/>
</g>
<!-- j2247830344 -->
<g id="node15" class="node">
<title>j2247830344</title>
<ellipse fill="none" stroke="orange" cx="712.09" cy="-1392" rx="147.57" ry="18"/>
<text text-anchor="middle" x="712.09" y="-1388.3" font-family="Times New Roman,serif" font-size="14.00">Boolean QuincyTrickYes is now true.</text>
</g>
<!-- j3169339674&#45;&gt;j2247830344 -->
<g id="edge16" class="edge">
<title>j3169339674&#45;&gt;j2247830344</title>
<path fill="none" stroke="black" d="M712.09,-1446.81C712.09,-1439.23 712.09,-1430.1 712.09,-1421.54"/>
<polygon fill="black" stroke="black" points="715.59,-1421.54 712.09,-1411.54 708.59,-1421.54 715.59,-1421.54"/>
</g>
<!-- j3415974716 -->
<g id="node16" class="node">
<title>j3415974716</title>
<polygon fill="none" stroke="blue" points="857.59,-1191 324.59,-1191 324.59,-1155 857.59,-1155 857.59,-1191"/>
<text text-anchor="middle" x="591.09" y="-1169.3" font-family="Times New Roman,serif" font-size="14.00">du weißt schon, diese biologisch abbaubaren? im grunde käsepuffs nur ohne käsegeschmack</text>
</g>
<!-- j2911408057&#45;&gt;j3415974716 -->
<g id="edge17" class="edge">
<title>j2911408057&#45;&gt;j3415974716</title>
<path fill="none" stroke="black" d="M682.49,-1227.63C666.81,-1218.43 647.36,-1207.02 630.43,-1197.08"/>
<polygon fill="black" stroke="black" points="632.5,-1194.24 622.11,-1192.2 628.96,-1200.28 632.5,-1194.24"/>
</g>
<!-- j2247830344&#45;&gt;j2249801121 -->
<g id="edge18" class="edge">
<title>j2247830344&#45;&gt;j2249801121</title>
<path fill="none" stroke="black" d="M712.09,-1373.81C712.09,-1366.23 712.09,-1357.1 712.09,-1348.54"/>
<polygon fill="black" stroke="black" points="715.59,-1348.54 712.09,-1338.54 708.59,-1348.54 715.59,-1348.54"/>
</g>
<!-- j49536338 -->
<g id="node17" class="node">
<title>j49536338</title>
<polygon fill="none" stroke="blue" points="643.59,-1118 416.59,-1118 416.59,-1082 643.59,-1082 643.59,-1118"/>
<text text-anchor="middle" x="530.09" y="-1096.3" font-family="Times New Roman,serif" font-size="14.00">keine ahnung, wofür sie die brauchten</text>
</g>
<!-- j3415974716&#45;&gt;j49536338 -->
<g id="edge19" class="edge">
<title>j3415974716&#45;&gt;j49536338</title>
<path fill="none" stroke="black" d="M576.32,-1154.81C569.05,-1146.35 560.15,-1135.98 552.09,-1126.61"/>
<polygon fill="black" stroke="black" points="554.88,-1124.48 545.71,-1119.18 549.57,-1129.04 554.88,-1124.48"/>
</g>
<!-- j772176909 -->
<g id="node18" class="node">
<title>j772176909</title>
<polygon fill="none" stroke="blue" points="740.59,-1045 229.59,-1045 229.59,-1009 740.59,-1009 740.59,-1045"/>
<text text-anchor="middle" x="485.09" y="-1023.3" font-family="Times New Roman,serif" font-size="14.00">zuerst wollten wir sie einfach in den fluss werfen oder so, aber dann hatte ich eine idee ...</text>
</g>
<!-- j49536338&#45;&gt;j772176909 -->
<g id="edge20" class="edge">
<title>j49536338&#45;&gt;j772176909</title>
<path fill="none" stroke="black" d="M519.2,-1081.81C514,-1073.62 507.67,-1063.62 501.87,-1054.48"/>
<polygon fill="black" stroke="black" points="505,-1052.88 496.69,-1046.31 499.09,-1056.63 505,-1052.88"/>
</g>
<!-- j2778364462 -->
<g id="node19" class="node">
<title>j2778364462</title>
<polygon fill="none" stroke="blue" points="665.59,-958 296.59,-958 296.59,-922 665.59,-922 665.59,-958"/>
<text text-anchor="middle" x="481.09" y="-936.3" font-family="Times New Roman,serif" font-size="14.00">&#39;neeee fam, ich hab ne verdammte verwendung für diese dinger&#39;</text>
</g>
<!-- j772176909&#45;&gt;j2778364462 -->
<g id="edge21" class="edge">
<title>j772176909&#45;&gt;j2778364462</title>
<path fill="none" stroke="black" d="M484.28,-1008.8C483.75,-997.58 483.05,-982.67 482.44,-969.69"/>
<polygon fill="black" stroke="black" points="485.95,-969.8 481.98,-959.98 478.96,-970.13 485.95,-969.8"/>
</g>
<!-- j3658106886 -->
<g id="node20" class="node">
<title>j3658106886</title>
<polygon fill="none" stroke="blue" points="717.59,-885 228.59,-885 228.59,-849 717.59,-849 717.59,-885"/>
<text text-anchor="middle" x="473.09" y="-863.3" font-family="Times New Roman,serif" font-size="14.00">also, morgen musst du amir für mich ablenken, wenn er an seinem computer sitzt, ja?</text>
</g>
<!-- j2778364462&#45;&gt;j3658106886 -->
<g id="edge22" class="edge">
<title>j2778364462&#45;&gt;j3658106886</title>
<path fill="none" stroke="black" d="M479.15,-921.81C478.29,-914.14 477.25,-904.89 476.27,-896.24"/>
<polygon fill="black" stroke="black" points="479.77,-896.08 475.18,-886.53 472.82,-896.86 479.77,-896.08"/>
</g>
<!-- j989243355 -->
<g id="node21" class="node">
<title>j989243355</title>
<polygon fill="none" stroke="blue" points="801.09,-812 139.09,-812 139.09,-776 801.09,-776 801.09,-812"/>
<text text-anchor="middle" x="470.09" y="-790.3" font-family="Times New Roman,serif" font-size="14.00">mir egal wie. halte ihn nur am reden. ich werde sein zimmer vollständig mit den verdammten verpackungschips füllen</text>
</g>
<!-- j3658106886&#45;&gt;j989243355 -->
<g id="edge23" class="edge">
<title>j3658106886&#45;&gt;j989243355</title>
<path fill="none" stroke="black" d="M472.36,-848.81C472.04,-841.14 471.65,-831.89 471.28,-823.24"/>
<polygon fill="black" stroke="black" points="474.79,-823.38 470.87,-813.54 467.8,-823.68 474.79,-823.38"/>
</g>
<!-- j3159523448 -->
<g id="node22" class="node">
<title>j3159523448</title>
<ellipse fill="none" stroke="orange" cx="456.09" cy="-721" rx="128.08" ry="18"/>
<text text-anchor="middle" x="456.09" y="-717.3" font-family="Times New Roman,serif" font-size="14.00">Check boolean QuincyTrickYes</text>
</g>
<!-- j989243355&#45;&gt;j3159523448 -->
<g id="edge24" class="edge">
<title>j989243355&#45;&gt;j3159523448</title>
<path fill="none" stroke="black" d="M466.7,-775.81C465.19,-768.14 463.36,-758.89 461.66,-750.24"/>
<polygon fill="black" stroke="black" points="465.11,-749.65 459.74,-740.51 458.24,-751 465.11,-749.65"/>
</g>
<!-- j1073220484 -->
<g id="node23" class="node">
<title>j1073220484</title>
<polygon fill="none" stroke="blue" points="269.09,-598 135.09,-598 135.09,-562 269.09,-562 269.09,-598"/>
<text text-anchor="middle" x="202.09" y="-576.3" font-family="Times New Roman,serif" font-size="14.00">das wird so gut lmao</text>
</g>
<!-- j3159523448&#45;&gt;j1073220484 -->
<g id="edge25" class="edge">
<title>j3159523448&#45;&gt;j1073220484</title>
<path fill="none" stroke="green" d="M425.2,-703.09C379.8,-678.25 294.96,-631.82 243.99,-603.93"/>
<polygon fill="green" stroke="green" points="245.74,-600.9 235.29,-599.17 242.38,-607.04 245.74,-600.9"/>
<text text-anchor="middle" x="403.09" y="-673.8" font-family="Times New Roman,serif" font-size="14.00">true</text>
</g>
<!-- j2167136616 -->
<g id="node24" class="node">
<title>j2167136616</title>
<polygon fill="none" stroke="blue" points="503.59,-652 408.59,-652 408.59,-616 503.59,-616 503.59,-652"/>
<text text-anchor="middle" x="456.09" y="-630.3" font-family="Times New Roman,serif" font-size="14.00">bist du dabei?</text>
</g>
<!-- j3159523448&#45;&gt;j2167136616 -->
<g id="edge26" class="edge">
<title>j3159523448&#45;&gt;j2167136616</title>
<path fill="none" stroke="brown" d="M456.09,-702.8C456.09,-691.58 456.09,-676.67 456.09,-663.69"/>
<polygon fill="brown" stroke="brown" points="459.59,-663.98 456.09,-653.98 452.59,-663.98 459.59,-663.98"/>
<text text-anchor="middle" x="469.09" y="-673.8" font-family="Times New Roman,serif" font-size="14.00">false</text>
</g>
<!-- Initiate conversation AmirQuincyTrick1 in JabirDialogue_rom.dialogue -->
<g id="node25" class="node">
<title>Initiate conversation AmirQuincyTrick1 in JabirDialogue_rom.dialogue</title>
<ellipse fill="none" stroke="orange" cx="409.09" cy="-91" rx="266.45" ry="18"/>
<text text-anchor="middle" x="409.09" y="-87.3" font-family="Times New Roman,serif" font-size="14.00">Initiate conversation AmirQuincyTrick1 in JabirDialogue_rom.dialogue</text>
</g>
<!-- j1073220484&#45;&gt;Initiate conversation AmirQuincyTrick1 in JabirDialogue_rom.dialogue -->
<g id="edge27" class="edge">
<title>j1073220484&#45;&gt;Initiate conversation AmirQuincyTrick1 in JabirDialogue_rom.dialogue</title>
<path fill="none" stroke="black" d="M186.76,-561.62C170.79,-541.68 148.09,-507.28 148.09,-473 148.09,-473 148.09,-473 148.09,-163 148.09,-136.25 199.76,-119.25 257.13,-108.62"/>
<polygon fill="black" stroke="black" points="257.55,-112.1 266.79,-106.91 256.33,-105.21 257.55,-112.1"/>
</g>
<!-- j4034630306 -->
<g id="node26" class="node">
<title>j4034630306</title>
<polygon fill="none" stroke="red" points="291.59,-490 198.59,-490 198.59,-454 291.59,-454 291.59,-490"/>
<text text-anchor="middle" x="245.09" y="-468.3" font-family="Times New Roman,serif" font-size="14.00">Aber absolut!</text>
</g>
<!-- j2167136616&#45;&gt;j4034630306 -->
<g id="edge28" class="edge">
<title>j2167136616&#45;&gt;j4034630306</title>
<path fill="none" stroke="black" d="M421.24,-615.66C390.2,-599.36 344.38,-573.18 309.09,-544 293.04,-530.73 277.34,-513.41 265.51,-499.19"/>
<polygon fill="black" stroke="black" points="268.31,-497.09 259.29,-491.55 262.89,-501.51 268.31,-497.09"/>
</g>
<!-- j572491274 -->
<g id="node27" class="node">
<title>j572491274</title>
<polygon fill="none" stroke="red" points="539.59,-544 318.59,-544 318.59,-508 539.59,-508 539.59,-544"/>
<text text-anchor="middle" x="429.09" y="-522.3" font-family="Times New Roman,serif" font-size="14.00">Wird das keine Sauerei verursachen?</text>
</g>
<!-- j2167136616&#45;&gt;j572491274 -->
<g id="edge29" class="edge">
<title>j2167136616&#45;&gt;j572491274</title>
<path fill="none" stroke="black" d="M451.75,-615.97C447.58,-599.61 441.21,-574.59 436.28,-555.24"/>
<polygon fill="black" stroke="black" points="439.74,-554.63 433.88,-545.81 432.96,-556.36 439.74,-554.63"/>
</g>
<!-- j1896573469 -->
<g id="node28" class="node">
<title>j1896573469</title>
<polygon fill="none" stroke="red" points="891.09,-544 639.09,-544 639.09,-508 891.09,-508 891.09,-544"/>
<text text-anchor="middle" x="765.09" y="-522.3" font-family="Times New Roman,serif" font-size="14.00">Was ist, wenn Letties Ratten da rangehen?</text>
</g>
<!-- j2167136616&#45;&gt;j1896573469 -->
<g id="edge30" class="edge">
<title>j2167136616&#45;&gt;j1896573469</title>
<path fill="none" stroke="black" d="M504.03,-616.55C557.73,-598.13 644.92,-568.22 703.59,-548.1"/>
<polygon fill="black" stroke="black" points="704.45,-551.5 712.77,-544.95 702.18,-544.88 704.45,-551.5"/>
</g>
<!-- j3150607539 -->
<g id="node29" class="node">
<title>j3150607539</title>
<polygon fill="none" stroke="red" points="1396.09,-382 1110.09,-382 1110.09,-346 1396.09,-346 1396.09,-382"/>
<text text-anchor="middle" x="1253.09" y="-360.3" font-family="Times New Roman,serif" font-size="14.00">Nein ... Das scheint gemein zu sein. Tut mir leid.</text>
</g>
<!-- j2167136616&#45;&gt;j3150607539 -->
<g id="edge31" class="edge">
<title>j2167136616&#45;&gt;j3150607539</title>
<path fill="none" stroke="black" d="M503.84,-630.9C681.67,-621.98 1301.32,-580.8 1419.09,-436 1429.18,-423.59 1429.17,-412.43 1419.09,-400 1414.61,-394.48 1405.93,-389.8 1394.79,-385.84"/>
<polygon fill="black" stroke="black" points="1395.94,-382.53 1385.35,-382.85 1393.83,-389.21 1395.94,-382.53"/>
</g>
<!-- Initiate conversation AmirQuincyTrick1 in JabirDialogue_rom.dialogue&#45;&gt;Chat ends. -->
<g id="edge32" class="edge">
<title>Initiate conversation AmirQuincyTrick1 in JabirDialogue_rom.dialogue&#45;&gt;Chat ends.</title>
<path fill="none" stroke="black" d="M562.73,-75.89C734.45,-60.12 1003.94,-35.36 1122.61,-24.46"/>
<polygon fill="black" stroke="black" points="1122.81,-27.96 1132.45,-23.56 1122.17,-20.99 1122.81,-27.96"/>
</g>
<!-- j3029348909 -->
<g id="node30" class="node">
<title>j3029348909</title>
<ellipse fill="none" stroke="orange" cx="409.09" cy="-237" rx="64.19" ry="18"/>
<text text-anchor="middle" x="409.09" y="-233.3" font-family="Times New Roman,serif" font-size="14.00">+20 Chemistry</text>
</g>
<!-- j4034630306&#45;&gt;j3029348909 -->
<g id="edge33" class="edge">
<title>j4034630306&#45;&gt;j3029348909</title>
<path fill="none" stroke="black" d="M218.69,-453.65C213.19,-448.66 208.14,-442.72 205.09,-436 198.48,-421.43 198.13,-414.41 205.09,-400 238.23,-331.37 316.13,-282.9 365.51,-257.78"/>
<polygon fill="black" stroke="black" points="366.83,-261.03 374.23,-253.45 363.72,-254.76 366.83,-261.03"/>
</g>
<!-- j2630867786 -->
<g id="node31" class="node">
<title>j2630867786</title>
<polygon fill="none" stroke="blue" points="630.09,-436 214.09,-436 214.09,-400 630.09,-400 630.09,-436"/>
<text text-anchor="middle" x="422.09" y="-414.3" font-family="Times New Roman,serif" font-size="14.00">ja, das ist der punkt, lol. keine sorge, ich helf ihm später beim ausmisten</text>
</g>
<!-- j572491274&#45;&gt;j2630867786 -->
<g id="edge34" class="edge">
<title>j572491274&#45;&gt;j2630867786</title>
<path fill="none" stroke="black" d="M427.96,-507.97C426.89,-491.76 425.26,-467.06 423.99,-447.79"/>
<polygon fill="black" stroke="black" points="427.49,-447.6 423.33,-437.85 420.5,-448.06 427.49,-447.6"/>
</g>
<!-- j293625200 -->
<g id="node32" class="node">
<title>j293625200</title>
<polygon fill="none" stroke="blue" points="1410.09,-436 648.09,-436 648.09,-400 1410.09,-400 1410.09,-436"/>
<text text-anchor="middle" x="1029.09" y="-414.3" font-family="Times New Roman,serif" font-size="14.00">biologisch abbaubar. hab schon mit ihr geredet. sie hat kein problem damit. sagte, das sind eh mehr oder weniger snacks für die ratten</text>
</g>
<!-- j1896573469&#45;&gt;j293625200 -->
<g id="edge35" class="edge">
<title>j1896573469&#45;&gt;j293625200</title>
<path fill="none" stroke="black" d="M808.39,-507.61C854.04,-489.28 926.04,-460.37 975.31,-440.59"/>
<polygon fill="black" stroke="black" points="976.39,-443.93 984.36,-436.96 973.78,-437.44 976.39,-443.93"/>
</g>
<!-- j2406268693 -->
<g id="node33" class="node">
<title>j2406268693</title>
<polygon fill="none" stroke="blue" points="1393.09,-255 971.09,-255 971.09,-219 1393.09,-219 1393.09,-255"/>
<text text-anchor="middle" x="1182.09" y="-233.3" font-family="Times New Roman,serif" font-size="14.00">pfft. es ist alles nur spaß. aber gut, wie du willst. ich hole mir aoi zur hilfe</text>
</g>
<!-- j3150607539&#45;&gt;j2406268693 -->
<g id="edge36" class="edge">
<title>j3150607539&#45;&gt;j2406268693</title>
<path fill="none" stroke="black" d="M1243.22,-345.62C1231.35,-324.72 1211.29,-289.42 1197.41,-264.97"/>
<polygon fill="black" stroke="black" points="1200.61,-263.52 1192.62,-256.55 1194.52,-266.97 1200.61,-263.52"/>
</g>
<!-- j1650793390 -->
<g id="node34" class="node">
<title>j1650793390</title>
<polygon fill="none" stroke="blue" points="449.59,-182 368.59,-182 368.59,-146 449.59,-146 449.59,-182"/>
<text text-anchor="middle" x="409.09" y="-160.3" font-family="Times New Roman,serif" font-size="14.00">meine rede!</text>
</g>
<!-- j3029348909&#45;&gt;j1650793390 -->
<g id="edge37" class="edge">
<title>j3029348909&#45;&gt;j1650793390</title>
<path fill="none" stroke="black" d="M409.09,-218.81C409.09,-211.23 409.09,-202.1 409.09,-193.54"/>
<polygon fill="black" stroke="black" points="412.59,-193.54 409.09,-183.54 405.59,-193.54 412.59,-193.54"/>
</g>
<!-- j2872855614 -->
<g id="node35" class="node">
<title>j2872855614</title>
<polygon fill="none" stroke="red" points="486.59,-328 357.59,-328 357.59,-292 486.59,-292 486.59,-328"/>
<text text-anchor="middle" x="422.09" y="-306.3" font-family="Times New Roman,serif" font-size="14.00">Okay, ich bin dabei.</text>
</g>
<!-- j2630867786&#45;&gt;j2872855614 -->
<g id="edge38" class="edge">
<title>j2630867786&#45;&gt;j2872855614</title>
<path fill="none" stroke="black" d="M422.09,-399.97C422.09,-383.76 422.09,-359.06 422.09,-339.79"/>
<polygon fill="black" stroke="black" points="425.59,-339.85 422.09,-329.85 418.59,-339.85 425.59,-339.85"/>
</g>
<!-- j326917428 -->
<g id="node36" class="node">
<title>j326917428</title>
<polygon fill="none" stroke="red" points="1100.59,-328 957.59,-328 957.59,-292 1100.59,-292 1100.59,-328"/>
<text text-anchor="middle" x="1029.09" y="-306.3" font-family="Times New Roman,serif" font-size="14.00">Ääh. Ich passe. Sorry.</text>
</g>
<!-- j2630867786&#45;&gt;j326917428 -->
<g id="edge39" class="edge">
<title>j2630867786&#45;&gt;j326917428</title>
<path fill="none" stroke="black" d="M521.98,-399.56C640.41,-378.87 835.61,-344.79 946.1,-325.49"/>
<polygon fill="black" stroke="black" points="946.44,-328.99 955.68,-323.82 945.23,-322.09 946.44,-328.99"/>
</g>
<!-- j293625200&#45;&gt;j2872855614 -->
<g id="edge40" class="edge">
<title>j293625200&#45;&gt;j2872855614</title>
<path fill="none" stroke="black" d="M929.2,-399.56C808.28,-378.44 607.36,-343.35 498.25,-324.3"/>
<polygon fill="black" stroke="black" points="498.96,-320.87 488.51,-322.6 497.76,-327.77 498.96,-320.87"/>
</g>
<!-- j293625200&#45;&gt;j326917428 -->
<g id="edge41" class="edge">
<title>j293625200&#45;&gt;j326917428</title>
<path fill="none" stroke="black" d="M1029.09,-399.97C1029.09,-383.76 1029.09,-359.06 1029.09,-339.79"/>
<polygon fill="black" stroke="black" points="1032.59,-339.85 1029.09,-329.85 1025.59,-339.85 1032.59,-339.85"/>
</g>
<!-- j2406268693&#45;&gt;Chat ends. -->
<g id="edge42" class="edge">
<title>j2406268693&#45;&gt;Chat ends.</title>
<path fill="none" stroke="black" d="M1182.09,-218.61C1182.09,-181.39 1182.09,-93.69 1182.09,-47.93"/>
<polygon fill="black" stroke="black" points="1185.59,-47.99 1182.09,-37.99 1178.59,-47.99 1185.59,-47.99"/>
</g>
<!-- j1650793390&#45;&gt;Initiate conversation AmirQuincyTrick1 in JabirDialogue_rom.dialogue -->
<g id="edge43" class="edge">
<title>j1650793390&#45;&gt;Initiate conversation AmirQuincyTrick1 in JabirDialogue_rom.dialogue</title>
<path fill="none" stroke="black" d="M409.09,-145.81C409.09,-138.23 409.09,-129.1 409.09,-120.54"/>
<polygon fill="black" stroke="black" points="412.59,-120.54 409.09,-110.54 405.59,-120.54 412.59,-120.54"/>
</g>
<!-- j2872855614&#45;&gt;j3029348909 -->
<g id="edge44" class="edge">
<title>j2872855614&#45;&gt;j3029348909</title>
<path fill="none" stroke="black" d="M418.94,-291.81C417.54,-284.14 415.84,-274.89 414.26,-266.24"/>
<polygon fill="black" stroke="black" points="417.72,-265.72 412.48,-256.52 410.84,-266.98 417.72,-265.72"/>
</g>
<!-- j326917428&#45;&gt;j2406268693 -->
<g id="edge45" class="edge">
<title>j326917428&#45;&gt;j2406268693</title>
<path fill="none" stroke="black" d="M1066.52,-291.63C1086.89,-282.18 1112.32,-270.38 1134.14,-260.25"/>
<polygon fill="black" stroke="black" points="1135.55,-263.46 1143.14,-256.07 1132.6,-257.11 1135.55,-263.46"/>
</g>
</g>
</svg>
