<?xml version="1.0" encoding="UTF-8" standalone="no"?>
<!DOCTYPE svg PUBLIC "-//W3C//DTD SVG 1.1//EN"
 "http://www.w3.org/Graphics/SVG/1.1/DTD/svg11.dtd">
<!-- Generated by graphviz version 7.1.0 (20230121.1956)
 -->
<!-- Pages: 1 -->
<svg width="1612pt" height="2347pt"
 viewBox="0.00 0.00 1611.50 2347.00" xmlns="http://www.w3.org/2000/svg" xmlns:xlink="http://www.w3.org/1999/xlink">
<g id="graph0" class="graph" transform="scale(1 1) rotate(0) translate(4 2343)">
<polygon fill="white" stroke="none" points="-4,4 -4,-2343 1607.5,-2343 1607.5,4 -4,4"/>
<!-- AmirRank3Convo5 begins. -->
<g id="node1" class="node">
<title>AmirRank3Convo5 begins.</title>
<ellipse fill="none" stroke="orange" cx="364" cy="-2321" rx="109.68" ry="18"/>
<text text-anchor="middle" x="364" y="-2317.3" font-family="Times New Roman,serif" font-size="14.00">AmirRank3Convo5 begins.</text>
</g>
<!-- j271998474 -->
<g id="node2" class="node">
<title>j271998474</title>
<ellipse fill="none" stroke="orange" cx="364" cy="-2248" rx="118.08" ry="18"/>
<text text-anchor="middle" x="364" y="-2244.3" font-family="Times New Roman,serif" font-size="14.00">Check boolean AmirShoulder</text>
</g>
<!-- AmirRank3Convo5 begins.&#45;&gt;j271998474 -->
<g id="edge1" class="edge">
<title>AmirRank3Convo5 begins.&#45;&gt;j271998474</title>
<path fill="none" stroke="black" d="M364,-2302.81C364,-2295.23 364,-2286.1 364,-2277.54"/>
<polygon fill="black" stroke="black" points="367.5,-2277.54 364,-2267.54 360.5,-2277.54 367.5,-2277.54"/>
</g>
<!-- j143267685 -->
<g id="node3" class="node">
<title>j143267685</title>
<polygon fill="none" stroke="blue" points="391,-2179 337,-2179 337,-2143 391,-2143 391,-2179"/>
<text text-anchor="middle" x="364" y="-2157.3" font-family="Times New Roman,serif" font-size="14.00">hey...</text>
</g>
<!-- j271998474&#45;&gt;j143267685 -->
<g id="edge2" class="edge">
<title>j271998474&#45;&gt;j143267685</title>
<path fill="none" stroke="green" d="M364,-2229.8C364,-2218.58 364,-2203.67 364,-2190.69"/>
<polygon fill="green" stroke="green" points="367.5,-2190.98 364,-2180.98 360.5,-2190.98 367.5,-2190.98"/>
<text text-anchor="middle" x="375" y="-2200.8" font-family="Times New Roman,serif" font-size="14.00">true</text>
</g>
<!-- j4091176224 -->
<g id="node4" class="node">
<title>j4091176224</title>
<polygon fill="none" stroke="red" points="682,-2125 534,-2125 534,-2089 682,-2089 682,-2125"/>
<text text-anchor="middle" x="608" y="-2103.3" font-family="Times New Roman,serif" font-size="14.00">Hey Amir, you around?</text>
</g>
<!-- j271998474&#45;&gt;j4091176224 -->
<g id="edge3" class="edge">
<title>j271998474&#45;&gt;j4091176224</title>
<path fill="none" stroke="brown" d="M393.43,-2230.23C436.86,-2205.49 518.25,-2159.13 567.35,-2131.16"/>
<polygon fill="brown" stroke="brown" points="569.04,-2134.22 576,-2126.23 565.58,-2128.14 569.04,-2134.22"/>
<text text-anchor="middle" x="462" y="-2200.8" font-family="Times New Roman,serif" font-size="14.00">false</text>
</g>
<!-- j5866127 -->
<g id="node5" class="node">
<title>j5866127</title>
<polygon fill="none" stroke="red" points="311.5,-1925 246.5,-1925 246.5,-1889 311.5,-1889 311.5,-1925"/>
<text text-anchor="middle" x="279" y="-1903.3" font-family="Times New Roman,serif" font-size="14.00">[Ignore.]</text>
</g>
<!-- j271998474&#45;&gt;j5866127 -->
<g id="edge4" class="edge">
<title>j271998474&#45;&gt;j5866127</title>
<path fill="none" stroke="brown" d="M333.3,-2230.39C310.74,-2215.72 284,-2191.99 284,-2162 284,-2162 284,-2162 284,-1979 284,-1965.14 283.04,-1949.8 281.96,-1936.93"/>
<polygon fill="brown" stroke="brown" points="285.45,-1936.63 281.06,-1926.99 278.48,-1937.27 285.45,-1936.63"/>
<text text-anchor="middle" x="297" y="-2049.3" font-family="Times New Roman,serif" font-size="14.00">false</text>
</g>
<!-- j2786954334 -->
<g id="node6" class="node">
<title>j2786954334</title>
<polygon fill="none" stroke="blue" points="391,-2071 337,-2071 337,-2035 391,-2035 391,-2071"/>
<text text-anchor="middle" x="364" y="-2049.3" font-family="Times New Roman,serif" font-size="14.00">um...</text>
</g>
<!-- j143267685&#45;&gt;j2786954334 -->
<g id="edge5" class="edge">
<title>j143267685&#45;&gt;j2786954334</title>
<path fill="none" stroke="black" d="M364,-2142.97C364,-2126.76 364,-2102.06 364,-2082.79"/>
<polygon fill="black" stroke="black" points="367.5,-2082.85 364,-2072.85 360.5,-2082.85 367.5,-2082.85"/>
</g>
<!-- j3064886849 -->
<g id="node7" class="node">
<title>j3064886849</title>
<polygon fill="none" stroke="blue" points="827,-1452 711,-1452 711,-1416 827,-1416 827,-1452"/>
<text text-anchor="middle" x="769" y="-1430.3" font-family="Times New Roman,serif" font-size="14.00">not a good time...</text>
</g>
<!-- j4091176224&#45;&gt;j3064886849 -->
<g id="edge6" class="edge">
<title>j4091176224&#45;&gt;j3064886849</title>
<path fill="none" stroke="black" d="M682.37,-2093.92C724.56,-2082.34 769,-2059.96 769,-2017 769,-2017 769,-2017 769,-1541 769,-1514.85 769,-1485.07 769,-1463.74"/>
<polygon fill="black" stroke="black" points="772.5,-1463.77 769,-1453.77 765.5,-1463.77 772.5,-1463.77"/>
</g>
<!-- Chat ends. -->
<g id="node8" class="node">
<title>Chat ends.</title>
<ellipse fill="none" stroke="orange" cx="925" cy="-18" rx="50.09" ry="18"/>
<text text-anchor="middle" x="925" y="-14.3" font-family="Times New Roman,serif" font-size="14.00">Chat ends.</text>
</g>
<!-- j5866127&#45;&gt;Chat ends. -->
<g id="edge7" class="edge">
<title>j5866127&#45;&gt;Chat ends.</title>
<path fill="none" stroke="black" d="M246.17,-1904.55C172.42,-1900.39 0,-1885.29 0,-1835 0,-1835 0,-1835 0,-90 0,-46.55 657.27,-25.9 863.72,-20.49"/>
<polygon fill="black" stroke="black" points="863.52,-24 873.43,-20.24 863.34,-17 863.52,-24"/>
</g>
<!-- j1162347626 -->
<g id="node9" class="node">
<title>j1162347626</title>
<polygon fill="none" stroke="blue" points="401,-1998 327,-1998 327,-1962 401,-1962 401,-1998"/>
<text text-anchor="middle" x="364" y="-1976.3" font-family="Times New Roman,serif" font-size="14.00">you there?</text>
</g>
<!-- j2786954334&#45;&gt;j1162347626 -->
<g id="edge8" class="edge">
<title>j2786954334&#45;&gt;j1162347626</title>
<path fill="none" stroke="black" d="M364,-2034.81C364,-2027.23 364,-2018.1 364,-2009.54"/>
<polygon fill="black" stroke="black" points="367.5,-2009.54 364,-1999.54 360.5,-2009.54 367.5,-2009.54"/>
</g>
<!-- j186896370 -->
<g id="node10" class="node">
<title>j186896370</title>
<polygon fill="none" stroke="red" points="1003.5,-1344 902.5,-1344 902.5,-1308 1003.5,-1308 1003.5,-1344"/>
<text text-anchor="middle" x="953" y="-1322.3" font-family="Times New Roman,serif" font-size="14.00">What&#39;s wrong?</text>
</g>
<!-- j3064886849&#45;&gt;j186896370 -->
<g id="edge9" class="edge">
<title>j3064886849&#45;&gt;j186896370</title>
<path fill="none" stroke="black" d="M798.97,-1415.73C830.02,-1397.85 878.71,-1369.8 913.02,-1350.03"/>
<polygon fill="black" stroke="black" points="914.51,-1353.22 921.42,-1345.19 911.01,-1347.15 914.51,-1353.22"/>
</g>
<!-- j3941585208 -->
<g id="node11" class="node">
<title>j3941585208</title>
<polygon fill="none" stroke="red" points="841.5,-1290 646.5,-1290 646.5,-1254 841.5,-1254 841.5,-1290"/>
<text text-anchor="middle" x="744" y="-1268.3" font-family="Times New Roman,serif" font-size="14.00">Oh. Sorry to bother you. [End.]</text>
</g>
<!-- j3064886849&#45;&gt;j3941585208 -->
<g id="edge10" class="edge">
<title>j3064886849&#45;&gt;j3941585208</title>
<path fill="none" stroke="black" d="M766.28,-1415.57C761.99,-1388.16 753.64,-1334.69 748.47,-1301.59"/>
<polygon fill="black" stroke="black" points="751.96,-1301.24 746.95,-1291.9 745.04,-1302.32 751.96,-1301.24"/>
</g>
<!-- j1162347626&#45;&gt;j5866127 -->
<g id="edge12" class="edge">
<title>j1162347626&#45;&gt;j5866127</title>
<path fill="none" stroke="black" d="M343.42,-1961.81C332.85,-1952.98 319.79,-1942.07 308.2,-1932.39"/>
<polygon fill="black" stroke="black" points="310.76,-1929.97 300.84,-1926.25 306.27,-1935.34 310.76,-1929.97"/>
</g>
<!-- j1801210101 -->
<g id="node12" class="node">
<title>j1801210101</title>
<polygon fill="none" stroke="red" points="446,-1925 330,-1925 330,-1889 446,-1889 446,-1925"/>
<text text-anchor="middle" x="388" y="-1903.3" font-family="Times New Roman,serif" font-size="14.00">Yeah. What&#39;s up?</text>
</g>
<!-- j1162347626&#45;&gt;j1801210101 -->
<g id="edge11" class="edge">
<title>j1162347626&#45;&gt;j1801210101</title>
<path fill="none" stroke="black" d="M369.81,-1961.81C372.46,-1953.96 375.67,-1944.47 378.65,-1935.66"/>
<polygon fill="black" stroke="black" points="381.87,-1937.06 381.76,-1926.46 375.24,-1934.82 381.87,-1937.06"/>
</g>
<!-- j2569305848 -->
<g id="node13" class="node">
<title>j2569305848</title>
<polygon fill="none" stroke="blue" points="1334,-1236 1276,-1236 1276,-1200 1334,-1200 1334,-1236"/>
<text text-anchor="middle" x="1305" y="-1214.3" font-family="Times New Roman,serif" font-size="14.00">nothing</text>
</g>
<!-- j186896370&#45;&gt;j2569305848 -->
<g id="edge13" class="edge">
<title>j186896370&#45;&gt;j2569305848</title>
<path fill="none" stroke="black" d="M1003.81,-1309.7C1074.39,-1288.44 1200.68,-1250.41 1264.99,-1231.05"/>
<polygon fill="black" stroke="black" points="1265.86,-1234.44 1274.43,-1228.21 1263.84,-1227.74 1265.86,-1234.44"/>
</g>
<!-- j3941585208&#45;&gt;Chat ends. -->
<g id="edge14" class="edge">
<title>j3941585208&#45;&gt;Chat ends.</title>
<path fill="none" stroke="black" d="M743.69,-1253.61C743.4,-1235.67 743,-1206.88 743,-1182 743,-1182 743,-1182 743,-963 743,-866.36 718,-843.64 718,-747 718,-747 718,-747 718,-90 718,-58.21 806.44,-37.65 867.71,-27.21"/>
<polygon fill="black" stroke="black" points="868.01,-30.71 877.31,-25.63 866.87,-23.8 868.01,-30.71"/>
</g>
<!-- j836270749 -->
<g id="node14" class="node">
<title>j836270749</title>
<polygon fill="none" stroke="blue" points="491,-1852 285,-1852 285,-1816 491,-1816 491,-1852"/>
<text text-anchor="middle" x="388" y="-1830.3" font-family="Times New Roman,serif" font-size="14.00">soooo a while back you said if i...</text>
</g>
<!-- j1801210101&#45;&gt;j836270749 -->
<g id="edge15" class="edge">
<title>j1801210101&#45;&gt;j836270749</title>
<path fill="none" stroke="black" d="M388,-1888.81C388,-1881.23 388,-1872.1 388,-1863.54"/>
<polygon fill="black" stroke="black" points="391.5,-1863.54 388,-1853.54 384.5,-1863.54 391.5,-1863.54"/>
</g>
<!-- j1861976137 -->
<g id="node15" class="node">
<title>j1861976137</title>
<polygon fill="none" stroke="red" points="1391,-1163 1219,-1163 1219,-1127 1391,-1127 1391,-1163"/>
<text text-anchor="middle" x="1305" y="-1141.3" font-family="Times New Roman,serif" font-size="14.00">Clearly, something&#39;s wrong.</text>
</g>
<!-- j2569305848&#45;&gt;j1861976137 -->
<g id="edge16" class="edge">
<title>j2569305848&#45;&gt;j1861976137</title>
<path fill="none" stroke="black" d="M1305,-1199.81C1305,-1192.23 1305,-1183.1 1305,-1174.54"/>
<polygon fill="black" stroke="black" points="1308.5,-1174.54 1305,-1164.54 1301.5,-1174.54 1308.5,-1174.54"/>
</g>
<!-- j2767702053 -->
<g id="node16" class="node">
<title>j2767702053</title>
<polygon fill="none" stroke="red" points="1603.5,-1109 1402.5,-1109 1402.5,-1073 1603.5,-1073 1603.5,-1109"/>
<text text-anchor="middle" x="1503" y="-1087.3" font-family="Times New Roman,serif" font-size="14.00">Sorry, I&#39;ll leave you alone. [End.]</text>
</g>
<!-- j2569305848&#45;&gt;j2767702053 -->
<g id="edge17" class="edge">
<title>j2569305848&#45;&gt;j2767702053</title>
<path fill="none" stroke="black" d="M1334.49,-1201.1C1353.44,-1190.67 1378.46,-1176.51 1400,-1163 1423.88,-1148.02 1450.01,-1129.99 1469.98,-1115.84"/>
<polygon fill="black" stroke="black" points="1471.9,-1118.77 1478.02,-1110.12 1467.84,-1113.07 1471.9,-1118.77"/>
</g>
<!-- j2421215834 -->
<g id="node17" class="node">
<title>j2421215834</title>
<polygon fill="none" stroke="blue" points="606.5,-1779 169.5,-1779 169.5,-1743 606.5,-1743 606.5,-1779"/>
<text text-anchor="middle" x="388" y="-1757.3" font-family="Times New Roman,serif" font-size="14.00">if i needed to talk you&#39;d be willing to listen &#45; um &#45; does that offer still stand?</text>
</g>
<!-- j836270749&#45;&gt;j2421215834 -->
<g id="edge18" class="edge">
<title>j836270749&#45;&gt;j2421215834</title>
<path fill="none" stroke="black" d="M388,-1815.81C388,-1808.23 388,-1799.1 388,-1790.54"/>
<polygon fill="black" stroke="black" points="391.5,-1790.54 388,-1780.54 384.5,-1790.54 391.5,-1790.54"/>
</g>
<!-- j1818673524 -->
<g id="node18" class="node">
<title>j1818673524</title>
<polygon fill="none" stroke="blue" points="1373.5,-1055 1236.5,-1055 1236.5,-1019 1373.5,-1019 1373.5,-1055"/>
<text text-anchor="middle" x="1305" y="-1033.3" font-family="Times New Roman,serif" font-size="14.00">it doesn&#39;t fking matter</text>
</g>
<!-- j1861976137&#45;&gt;j1818673524 -->
<g id="edge19" class="edge">
<title>j1861976137&#45;&gt;j1818673524</title>
<path fill="none" stroke="black" d="M1305,-1126.97C1305,-1110.76 1305,-1086.06 1305,-1066.79"/>
<polygon fill="black" stroke="black" points="1308.5,-1066.85 1305,-1056.85 1301.5,-1066.85 1308.5,-1066.85"/>
</g>
<!-- j2767702053&#45;&gt;Chat ends. -->
<g id="edge20" class="edge">
<title>j2767702053&#45;&gt;Chat ends.</title>
<path fill="none" stroke="black" d="M1534.85,-1072.54C1558.26,-1057.13 1586,-1032.27 1586,-1001 1586,-1001 1586,-1001 1586,-90 1586,-30.05 1150.63,-20.64 986.56,-19.23"/>
<polygon fill="black" stroke="black" points="986.77,-15.73 976.74,-19.15 986.71,-22.73 986.77,-15.73"/>
</g>
<!-- j3470497633 -->
<g id="node19" class="node">
<title>j3470497633</title>
<polygon fill="none" stroke="blue" points="732.5,-1706 43.5,-1706 43.5,-1670 732.5,-1670 732.5,-1706"/>
<text text-anchor="middle" x="388" y="-1684.3" font-family="Times New Roman,serif" font-size="14.00">totally understand if it doesn&#39;t ha ha who wants to waste time with poor lil baby amir and his boo hoo feewings 0h n03s!!</text>
</g>
<!-- j2421215834&#45;&gt;j3470497633 -->
<g id="edge21" class="edge">
<title>j2421215834&#45;&gt;j3470497633</title>
<path fill="none" stroke="black" d="M388,-1742.81C388,-1735.23 388,-1726.1 388,-1717.54"/>
<polygon fill="black" stroke="black" points="391.5,-1717.54 388,-1707.54 384.5,-1717.54 391.5,-1717.54"/>
</g>
<!-- j2335496210 -->
<g id="node20" class="node">
<title>j2335496210</title>
<polygon fill="none" stroke="blue" points="1349,-982 1261,-982 1261,-946 1349,-946 1349,-982"/>
<text text-anchor="middle" x="1305" y="-960.3" font-family="Times New Roman,serif" font-size="14.00">leave it alone</text>
</g>
<!-- j1818673524&#45;&gt;j2335496210 -->
<g id="edge22" class="edge">
<title>j1818673524&#45;&gt;j2335496210</title>
<path fill="none" stroke="black" d="M1305,-1018.81C1305,-1011.23 1305,-1002.1 1305,-993.54"/>
<polygon fill="black" stroke="black" points="1308.5,-993.54 1305,-983.54 1301.5,-993.54 1308.5,-993.54"/>
</g>
<!-- j654392786 -->
<g id="node21" class="node">
<title>j654392786</title>
<polygon fill="none" stroke="red" points="268,-1633 28,-1633 28,-1597 268,-1597 268,-1633"/>
<text text-anchor="middle" x="148" y="-1611.3" font-family="Times New Roman,serif" font-size="14.00">Unpack your own baggage, man. [End.]</text>
</g>
<!-- j3470497633&#45;&gt;j654392786 -->
<g id="edge23" class="edge">
<title>j3470497633&#45;&gt;j654392786</title>
<path fill="none" stroke="black" d="M328.98,-1669.54C295.27,-1659.57 252.82,-1647.01 217.5,-1636.56"/>
<polygon fill="black" stroke="black" points="218.82,-1633.3 208.24,-1633.82 216.84,-1640.01 218.82,-1633.3"/>
</g>
<!-- j1769241338 -->
<g id="node22" class="node">
<title>j1769241338</title>
<polygon fill="none" stroke="red" points="489.5,-1633 286.5,-1633 286.5,-1597 489.5,-1597 489.5,-1633"/>
<text text-anchor="middle" x="388" y="-1611.3" font-family="Times New Roman,serif" font-size="14.00">Of *course* the offer still stands.</text>
</g>
<!-- j3470497633&#45;&gt;j1769241338 -->
<g id="edge24" class="edge">
<title>j3470497633&#45;&gt;j1769241338</title>
<path fill="none" stroke="black" d="M388,-1669.81C388,-1662.23 388,-1653.1 388,-1644.54"/>
<polygon fill="black" stroke="black" points="391.5,-1644.54 388,-1634.54 384.5,-1644.54 391.5,-1644.54"/>
</g>
<!-- j1468947112 -->
<g id="node23" class="node">
<title>j1468947112</title>
<polygon fill="none" stroke="red" points="646.5,-1633 507.5,-1633 507.5,-1597 646.5,-1597 646.5,-1633"/>
<text text-anchor="middle" x="577" y="-1611.3" font-family="Times New Roman,serif" font-size="14.00">Hey, hey, slow down.</text>
</g>
<!-- j3470497633&#45;&gt;j1468947112 -->
<g id="edge25" class="edge">
<title>j3470497633&#45;&gt;j1468947112</title>
<path fill="none" stroke="black" d="M434.23,-1669.63C460.09,-1659.92 492.54,-1647.73 519.96,-1637.43"/>
<polygon fill="black" stroke="black" points="521.04,-1640.76 529.17,-1633.97 518.58,-1634.21 521.04,-1640.76"/>
</g>
<!-- j427894998 -->
<g id="node24" class="node">
<title>j427894998</title>
<polygon fill="none" stroke="red" points="1427,-909 1183,-909 1183,-873 1427,-873 1427,-909"/>
<text text-anchor="middle" x="1305" y="-887.3" font-family="Times New Roman,serif" font-size="14.00">Amir, you can talk to me. Are you okay?</text>
</g>
<!-- j2335496210&#45;&gt;j427894998 -->
<g id="edge26" class="edge">
<title>j2335496210&#45;&gt;j427894998</title>
<path fill="none" stroke="black" d="M1305,-945.81C1305,-938.23 1305,-929.1 1305,-920.54"/>
<polygon fill="black" stroke="black" points="1308.5,-920.54 1305,-910.54 1301.5,-920.54 1308.5,-920.54"/>
</g>
<!-- j159654479 -->
<g id="node25" class="node">
<title>j159654479</title>
<polygon fill="none" stroke="red" points="1117.5,-909 978.5,-909 978.5,-873 1117.5,-873 1117.5,-909"/>
<text text-anchor="middle" x="1048" y="-887.3" font-family="Times New Roman,serif" font-size="14.00">I&#39;m just trying to help.</text>
</g>
<!-- j2335496210&#45;&gt;j159654479 -->
<g id="edge27" class="edge">
<title>j2335496210&#45;&gt;j159654479</title>
<path fill="none" stroke="black" d="M1260.53,-950.71C1222.44,-940.19 1166.8,-924.82 1122.01,-912.45"/>
<polygon fill="black" stroke="black" points="1123.2,-909.14 1112.63,-909.85 1121.33,-915.89 1123.2,-909.14"/>
</g>
<!-- j1281125109 -->
<g id="node26" class="node">
<title>j1281125109</title>
<polygon fill="none" stroke="red" points="1532.5,-855 1455.5,-855 1455.5,-819 1532.5,-819 1532.5,-855"/>
<text text-anchor="middle" x="1494" y="-833.3" font-family="Times New Roman,serif" font-size="14.00">Ok. [End.]</text>
</g>
<!-- j2335496210&#45;&gt;j1281125109 -->
<g id="edge28" class="edge">
<title>j2335496210&#45;&gt;j1281125109</title>
<path fill="none" stroke="black" d="M1349.38,-950.79C1376.17,-942 1410.02,-928.28 1436,-909 1452.36,-896.86 1466.85,-879.12 1477.26,-864.41"/>
<polygon fill="black" stroke="black" points="1479.9,-866.75 1482.64,-856.51 1474.12,-862.81 1479.9,-866.75"/>
</g>
<!-- j4148616062 -->
<g id="node27" class="node">
<title>j4148616062</title>
<polygon fill="none" stroke="blue" points="239,-1560 57,-1560 57,-1524 239,-1524 239,-1560"/>
<text text-anchor="middle" x="148" y="-1538.3" font-family="Times New Roman,serif" font-size="14.00">always falling for the phishing</text>
</g>
<!-- j654392786&#45;&gt;j4148616062 -->
<g id="edge29" class="edge">
<title>j654392786&#45;&gt;j4148616062</title>
<path fill="none" stroke="black" d="M148,-1596.81C148,-1589.23 148,-1580.1 148,-1571.54"/>
<polygon fill="black" stroke="black" points="151.5,-1571.54 148,-1561.54 144.5,-1571.54 151.5,-1571.54"/>
</g>
<!-- j1387937485 -->
<g id="node28" class="node">
<title>j1387937485</title>
<polygon fill="none" stroke="red" points="546,-1506 234,-1506 234,-1470 546,-1470 546,-1506"/>
<text text-anchor="middle" x="390" y="-1484.3" font-family="Times New Roman,serif" font-size="14.00">Can you maybe explain to me what&#39;s wrong, though?</text>
</g>
<!-- j1769241338&#45;&gt;j1387937485 -->
<g id="edge30" class="edge">
<title>j1769241338&#45;&gt;j1387937485</title>
<path fill="none" stroke="black" d="M388.28,-1596.62C388.6,-1576.19 389.15,-1541.99 389.54,-1517.62"/>
<polygon fill="black" stroke="black" points="393.04,-1517.8 389.7,-1507.75 386.04,-1517.69 393.04,-1517.8"/>
</g>
<!-- j2008786050 -->
<g id="node29" class="node">
<title>j2008786050</title>
<polygon fill="none" stroke="blue" points="741,-1560 413,-1560 413,-1524 741,-1524 741,-1560"/>
<text text-anchor="middle" x="577" y="-1538.3" font-family="Times New Roman,serif" font-size="14.00">HAVE WE MET HI I&#39;M AMIR NICE TO MEET YOU</text>
</g>
<!-- j1468947112&#45;&gt;j2008786050 -->
<g id="edge31" class="edge">
<title>j1468947112&#45;&gt;j2008786050</title>
<path fill="none" stroke="black" d="M577,-1596.81C577,-1589.23 577,-1580.1 577,-1571.54"/>
<polygon fill="black" stroke="black" points="580.5,-1571.54 577,-1561.54 573.5,-1571.54 580.5,-1571.54"/>
</g>
<!-- j1746224976 -->
<g id="node30" class="node">
<title>j1746224976</title>
<polygon fill="none" stroke="blue" points="1519.5,-801 1090.5,-801 1090.5,-765 1519.5,-765 1519.5,-801"/>
<text text-anchor="middle" x="1305" y="-779.3" font-family="Times New Roman,serif" font-size="14.00">DOESN&#39;T FKING MATTER IF I&#39;M OKAY OR NOT LOOK AROUND</text>
</g>
<!-- j427894998&#45;&gt;j1746224976 -->
<g id="edge32" class="edge">
<title>j427894998&#45;&gt;j1746224976</title>
<path fill="none" stroke="black" d="M1305,-872.97C1305,-856.76 1305,-832.06 1305,-812.79"/>
<polygon fill="black" stroke="black" points="1308.5,-812.85 1305,-802.85 1301.5,-812.85 1308.5,-812.85"/>
</g>
<!-- j2154637425 -->
<g id="node31" class="node">
<title>j2154637425</title>
<polygon fill="none" stroke="blue" points="1072,-801 746,-801 746,-765 1072,-765 1072,-801"/>
<text text-anchor="middle" x="909" y="-779.3" font-family="Times New Roman,serif" font-size="14.00">I DON&#39;T NEED THIS SHIT THROWN IN MY FACE</text>
</g>
<!-- j159654479&#45;&gt;j2154637425 -->
<g id="edge33" class="edge">
<title>j159654479&#45;&gt;j2154637425</title>
<path fill="none" stroke="black" d="M1025.36,-872.73C1002.34,-855.18 966.48,-827.83 940.65,-808.14"/>
<polygon fill="black" stroke="black" points="942.91,-805.46 932.84,-802.18 938.67,-811.02 942.91,-805.46"/>
</g>
<!-- j1281125109&#45;&gt;Chat ends. -->
<g id="edge34" class="edge">
<title>j1281125109&#45;&gt;Chat ends.</title>
<path fill="none" stroke="black" d="M1514.23,-818.83C1519.58,-813.54 1524.97,-807.4 1529,-801 1542.55,-779.47 1548,-772.44 1548,-747 1548,-747 1548,-747 1548,-90 1548,-33.88 1143.75,-22.1 986.52,-19.64"/>
<polygon fill="black" stroke="black" points="986.76,-16.15 976.71,-19.5 986.65,-23.15 986.76,-16.15"/>
</g>
<!-- j2322051913 -->
<g id="node32" class="node">
<title>j2322051913</title>
<ellipse fill="none" stroke="orange" cx="149" cy="-1380" rx="133.78" ry="18"/>
<text text-anchor="middle" x="149" y="-1376.3" font-family="Times New Roman,serif" font-size="14.00">Boolean AmirNoDate is now true.</text>
</g>
<!-- j4148616062&#45;&gt;j2322051913 -->
<g id="edge35" class="edge">
<title>j4148616062&#45;&gt;j2322051913</title>
<path fill="none" stroke="black" d="M148.11,-1523.57C148.28,-1496.16 148.61,-1442.69 148.82,-1409.59"/>
<polygon fill="black" stroke="black" points="152.32,-1409.94 148.88,-1399.92 145.32,-1409.9 152.32,-1409.94"/>
</g>
<!-- j1769038944 -->
<g id="node33" class="node">
<title>j1769038944</title>
<polygon fill="none" stroke="blue" points="482.5,-1344 375.5,-1344 375.5,-1308 482.5,-1308 482.5,-1344"/>
<text text-anchor="middle" x="429" y="-1322.3" font-family="Times New Roman,serif" font-size="14.00">::deep breath in::</text>
</g>
<!-- j1387937485&#45;&gt;j1769038944 -->
<g id="edge36" class="edge">
<title>j1387937485&#45;&gt;j1769038944</title>
<path fill="none" stroke="black" d="M394.25,-1469.57C400.96,-1442.04 414.08,-1388.22 422.14,-1355.16"/>
<polygon fill="black" stroke="black" points="425.43,-1356.42 424.4,-1345.88 418.63,-1354.76 425.43,-1356.42"/>
</g>
<!-- j1566022450 -->
<g id="node34" class="node">
<title>j1566022450</title>
<polygon fill="none" stroke="blue" points="561,-1452 461,-1452 461,-1416 561,-1416 561,-1452"/>
<text text-anchor="middle" x="511" y="-1430.3" font-family="Times New Roman,serif" font-size="14.00">but point taken</text>
</g>
<!-- j2008786050&#45;&gt;j1566022450 -->
<g id="edge37" class="edge">
<title>j2008786050&#45;&gt;j1566022450</title>
<path fill="none" stroke="black" d="M573.94,-1523.74C570.63,-1508.57 564.26,-1486.42 553,-1470 550.6,-1466.51 547.77,-1463.17 544.72,-1460.04"/>
<polygon fill="black" stroke="black" points="547.13,-1457.5 537.41,-1453.29 542.38,-1462.64 547.13,-1457.5"/>
</g>
<!-- j2030316703 -->
<g id="node35" class="node">
<title>j2030316703</title>
<polygon fill="none" stroke="blue" points="1271,-728 1011,-728 1011,-692 1271,-692 1271,-728"/>
<text text-anchor="middle" x="1141" y="-706.3" font-family="Times New Roman,serif" font-size="14.00">BOO HOO AMIR THE POOR LIL BABY</text>
</g>
<!-- j1746224976&#45;&gt;j2030316703 -->
<g id="edge38" class="edge">
<title>j1746224976&#45;&gt;j2030316703</title>
<path fill="none" stroke="black" d="M1264.88,-764.63C1242.84,-755.09 1215.29,-743.16 1191.76,-732.98"/>
<polygon fill="black" stroke="black" points="1193.23,-729.8 1182.66,-729.04 1190.45,-736.22 1193.23,-729.8"/>
</g>
<!-- j2154637425&#45;&gt;j2030316703 -->
<g id="edge39" class="edge">
<title>j2154637425&#45;&gt;j2030316703</title>
<path fill="none" stroke="black" d="M966.05,-764.54C998.5,-754.61 1039.32,-742.12 1073.37,-731.7"/>
<polygon fill="black" stroke="black" points="1074.18,-735.11 1082.72,-728.83 1072.14,-728.41 1074.18,-735.11"/>
</g>
<!-- j2322051913&#45;&gt;Chat ends. -->
<g id="edge40" class="edge">
<title>j2322051913&#45;&gt;Chat ends.</title>
<path fill="none" stroke="black" d="M139.71,-1361.54C129.64,-1340.97 115,-1305.47 115,-1273 115,-1273 115,-1273 115,-90 115,-52.43 675.31,-28.24 863.9,-21.16"/>
<polygon fill="black" stroke="black" points="863.87,-24.67 873.73,-20.8 863.61,-17.67 863.87,-24.67"/>
</g>
<!-- j3511920588 -->
<g id="node36" class="node">
<title>j3511920588</title>
<polygon fill="none" stroke="blue" points="487,-1236 371,-1236 371,-1200 487,-1200 487,-1236"/>
<text text-anchor="middle" x="429" y="-1214.3" font-family="Times New Roman,serif" font-size="14.00">::deep breath out::</text>
</g>
<!-- j1769038944&#45;&gt;j3511920588 -->
<g id="edge41" class="edge">
<title>j1769038944&#45;&gt;j3511920588</title>
<path fill="none" stroke="black" d="M429,-1307.97C429,-1291.76 429,-1267.06 429,-1247.79"/>
<polygon fill="black" stroke="black" points="432.5,-1247.85 429,-1237.85 425.5,-1247.85 432.5,-1247.85"/>
</g>
<!-- j1566022450&#45;&gt;j1769038944 -->
<g id="edge42" class="edge">
<title>j1566022450&#45;&gt;j1769038944</title>
<path fill="none" stroke="black" d="M497.83,-1415.97C484.75,-1399.07 464.53,-1372.94 449.39,-1353.36"/>
<polygon fill="black" stroke="black" points="452.23,-1351.31 443.34,-1345.54 446.69,-1355.59 452.23,-1351.31"/>
</g>
<!-- j4119455493 -->
<g id="node37" class="node">
<title>j4119455493</title>
<polygon fill="none" stroke="blue" points="1350,-655 932,-655 932,-619 1350,-619 1350,-655"/>
<text text-anchor="middle" x="1141" y="-633.3" font-family="Times New Roman,serif" font-size="14.00">LOST IN A WARZONE ON THE WRONG SIDE OF THE TRACKS</text>
</g>
<!-- j2030316703&#45;&gt;j4119455493 -->
<g id="edge43" class="edge">
<title>j2030316703&#45;&gt;j4119455493</title>
<path fill="none" stroke="black" d="M1141,-691.81C1141,-684.23 1141,-675.1 1141,-666.54"/>
<polygon fill="black" stroke="black" points="1144.5,-666.54 1141,-656.54 1137.5,-666.54 1144.5,-666.54"/>
</g>
<!-- j3832610237 -->
<g id="node38" class="node">
<title>j3832610237</title>
<polygon fill="none" stroke="blue" points="489,-1163 369,-1163 369,-1127 489,-1127 489,-1163"/>
<text text-anchor="middle" x="429" y="-1141.3" font-family="Times New Roman,serif" font-size="14.00">i don&#39;t belong here</text>
</g>
<!-- j3511920588&#45;&gt;j3832610237 -->
<g id="edge44" class="edge">
<title>j3511920588&#45;&gt;j3832610237</title>
<path fill="none" stroke="black" d="M429,-1199.81C429,-1192.23 429,-1183.1 429,-1174.54"/>
<polygon fill="black" stroke="black" points="432.5,-1174.54 429,-1164.54 425.5,-1174.54 432.5,-1174.54"/>
</g>
<!-- j3325602773 -->
<g id="node39" class="node">
<title>j3325602773</title>
<polygon fill="none" stroke="blue" points="1257,-582 1025,-582 1025,-546 1257,-546 1257,-582"/>
<text text-anchor="middle" x="1141" y="-560.3" font-family="Times New Roman,serif" font-size="14.00">I DON&#39;T NEED YOUR FKING PITY</text>
</g>
<!-- j4119455493&#45;&gt;j3325602773 -->
<g id="edge45" class="edge">
<title>j4119455493&#45;&gt;j3325602773</title>
<path fill="none" stroke="black" d="M1141,-618.81C1141,-611.23 1141,-602.1 1141,-593.54"/>
<polygon fill="black" stroke="black" points="1144.5,-593.54 1141,-583.54 1137.5,-593.54 1144.5,-593.54"/>
</g>
<!-- j457281965 -->
<g id="node40" class="node">
<title>j457281965</title>
<polygon fill="none" stroke="blue" points="542.5,-1055 315.5,-1055 315.5,-1019 542.5,-1019 542.5,-1055"/>
<text text-anchor="middle" x="429" y="-1033.3" font-family="Times New Roman,serif" font-size="14.00">i feel like all the others BELONG here</text>
</g>
<!-- j3832610237&#45;&gt;j457281965 -->
<g id="edge46" class="edge">
<title>j3832610237&#45;&gt;j457281965</title>
<path fill="none" stroke="black" d="M429,-1126.97C429,-1110.76 429,-1086.06 429,-1066.79"/>
<polygon fill="black" stroke="black" points="432.5,-1066.85 429,-1056.85 425.5,-1066.85 432.5,-1066.85"/>
</g>
<!-- j1639514235 -->
<g id="node41" class="node">
<title>j1639514235</title>
<polygon fill="none" stroke="red" points="1324,-509 772,-509 772,-473 1324,-473 1324,-509"/>
<text text-anchor="middle" x="1048" y="-487.3" font-family="Times New Roman,serif" font-size="14.00">Who said anything about pity? You&#39;re a grown&#45;ass man who&#39;s capable of taking care of himself.</text>
</g>
<!-- j3325602773&#45;&gt;j1639514235 -->
<g id="edge47" class="edge">
<title>j3325602773&#45;&gt;j1639514235</title>
<path fill="none" stroke="black" d="M1118.49,-545.81C1106.81,-536.9 1092.35,-525.86 1079.57,-516.1"/>
<polygon fill="black" stroke="black" points="1081.9,-513.48 1071.83,-510.19 1077.66,-519.04 1081.9,-513.48"/>
</g>
<!-- j2701786668 -->
<g id="node42" class="node">
<title>j2701786668</title>
<polygon fill="none" stroke="red" points="1432.5,-455 1277.5,-455 1277.5,-419 1432.5,-419 1432.5,-455"/>
<text text-anchor="middle" x="1355" y="-433.3" font-family="Times New Roman,serif" font-size="14.00">Shit, okay. Sorry. [End.]</text>
</g>
<!-- j3325602773&#45;&gt;j2701786668 -->
<g id="edge48" class="edge">
<title>j3325602773&#45;&gt;j2701786668</title>
<path fill="none" stroke="black" d="M1257.33,-549.82C1284.99,-541.78 1312.41,-529.05 1333,-509 1344.45,-497.85 1349.97,-480.86 1352.62,-466.3"/>
<polygon fill="black" stroke="black" points="1356.03,-467.19 1353.97,-456.8 1349.1,-466.2 1356.03,-467.19"/>
</g>
<!-- j2699686798 -->
<g id="node43" class="node">
<title>j2699686798</title>
<polygon fill="none" stroke="blue" points="715,-982 143,-982 143,-946 715,-946 715,-982"/>
<text text-anchor="middle" x="429" y="-960.3" font-family="Times New Roman,serif" font-size="14.00">look at them. being badasses. soldiers. fighters. sexy as SHIT. confident. SAVING THE WORLD.</text>
</g>
<!-- j457281965&#45;&gt;j2699686798 -->
<g id="edge49" class="edge">
<title>j457281965&#45;&gt;j2699686798</title>
<path fill="none" stroke="black" d="M429,-1018.81C429,-1011.23 429,-1002.1 429,-993.54"/>
<polygon fill="black" stroke="black" points="432.5,-993.54 429,-983.54 425.5,-993.54 432.5,-993.54"/>
</g>
<!-- j617310872 -->
<g id="node44" class="node">
<title>j617310872</title>
<polygon fill="none" stroke="red" points="1336,-401 746,-401 746,-365 1336,-365 1336,-401"/>
<text text-anchor="middle" x="1041" y="-379.3" font-family="Times New Roman,serif" font-size="14.00">But you&#39;re also my friend and something&#39;s wrong and I&#39;m trying to just HELP my damn FRIEND, ok?!</text>
</g>
<!-- j1639514235&#45;&gt;j617310872 -->
<g id="edge50" class="edge">
<title>j1639514235&#45;&gt;j617310872</title>
<path fill="none" stroke="black" d="M1046.88,-472.97C1045.81,-456.76 1044.17,-432.06 1042.9,-412.79"/>
<polygon fill="black" stroke="black" points="1046.4,-412.6 1042.24,-402.85 1039.41,-413.06 1046.4,-412.6"/>
</g>
<!-- j2701786668&#45;&gt;Chat ends. -->
<g id="edge51" class="edge">
<title>j2701786668&#45;&gt;Chat ends.</title>
<path fill="none" stroke="black" d="M1357.8,-418.66C1360.44,-400.76 1364,-372 1364,-347 1364,-347 1364,-347 1364,-90 1364,-52.09 1105.58,-30.56 985.28,-22.59"/>
<polygon fill="black" stroke="black" points="985.8,-19.11 975.59,-21.96 985.34,-26.1 985.8,-19.11"/>
</g>
<!-- j4211293232 -->
<g id="node45" class="node">
<title>j4211293232</title>
<polygon fill="none" stroke="blue" points="486.5,-909 383.5,-909 383.5,-873 486.5,-873 486.5,-909"/>
<text text-anchor="middle" x="435" y="-887.3" font-family="Times New Roman,serif" font-size="14.00">now look at me</text>
</g>
<!-- j2699686798&#45;&gt;j4211293232 -->
<g id="edge52" class="edge">
<title>j2699686798&#45;&gt;j4211293232</title>
<path fill="none" stroke="black" d="M430.45,-945.81C431.1,-938.14 431.88,-928.89 432.61,-920.24"/>
<polygon fill="black" stroke="black" points="436.08,-920.8 433.43,-910.54 429.1,-920.21 436.08,-920.8"/>
</g>
<!-- j4023487948 -->
<g id="node46" class="node">
<title>j4023487948</title>
<polygon fill="none" stroke="blue" points="1053,-328 987,-328 987,-292 1053,-292 1053,-328"/>
<text text-anchor="middle" x="1020" y="-306.3" font-family="Times New Roman,serif" font-size="14.00">whatever</text>
</g>
<!-- j617310872&#45;&gt;j4023487948 -->
<g id="edge53" class="edge">
<title>j617310872&#45;&gt;j4023487948</title>
<path fill="none" stroke="black" d="M1035.92,-364.81C1033.62,-357.05 1030.85,-347.68 1028.27,-338.95"/>
<polygon fill="black" stroke="black" points="1031.66,-338.08 1025.47,-329.48 1024.95,-340.06 1031.66,-338.08"/>
</g>
<!-- j3225842963 -->
<g id="node47" class="node">
<title>j3225842963</title>
<polygon fill="none" stroke="blue" points="646.5,-801 247.5,-801 247.5,-765 646.5,-765 646.5,-801"/>
<text text-anchor="middle" x="447" y="-779.3" font-family="Times New Roman,serif" font-size="14.00">just a nerd who &#45; who wakes up in the middle of the night sometimes</text>
</g>
<!-- j4211293232&#45;&gt;j3225842963 -->
<g id="edge54" class="edge">
<title>j4211293232&#45;&gt;j3225842963</title>
<path fill="none" stroke="black" d="M436.93,-872.97C438.77,-856.69 441.59,-831.82 443.77,-812.52"/>
<polygon fill="black" stroke="black" points="447.22,-813.17 444.87,-802.84 440.26,-812.39 447.22,-813.17"/>
</g>
<!-- j1450932567 -->
<g id="node48" class="node">
<title>j1450932567</title>
<polygon fill="none" stroke="blue" points="1069,-255 905,-255 905,-219 1069,-219 1069,-255"/>
<text text-anchor="middle" x="987" y="-233.3" font-family="Times New Roman,serif" font-size="14.00">i&#39;mtoowoundupforthisnow</text>
</g>
<!-- j4023487948&#45;&gt;j1450932567 -->
<g id="edge55" class="edge">
<title>j4023487948&#45;&gt;j1450932567</title>
<path fill="none" stroke="black" d="M1012.01,-291.81C1008.32,-283.88 1003.85,-274.26 999.72,-265.36"/>
<polygon fill="black" stroke="black" points="1002.94,-263.99 995.55,-256.4 996.59,-266.94 1002.94,-263.99"/>
</g>
<!-- j4029030752 -->
<g id="node49" class="node">
<title>j4029030752</title>
<polygon fill="none" stroke="blue" points="667.5,-728 356.5,-728 356.5,-692 667.5,-692 667.5,-728"/>
<text text-anchor="middle" x="512" y="-706.3" font-family="Times New Roman,serif" font-size="14.00">in a cold fuggin sweat shaking like i&#39;m eight years old</text>
</g>
<!-- j3225842963&#45;&gt;j4029030752 -->
<g id="edge56" class="edge">
<title>j3225842963&#45;&gt;j4029030752</title>
<path fill="none" stroke="black" d="M462.73,-764.81C470.56,-756.27 480.17,-745.77 488.82,-736.32"/>
<polygon fill="black" stroke="black" points="491.22,-738.88 495.39,-729.15 486.05,-734.16 491.22,-738.88"/>
</g>
<!-- j1958041516 -->
<g id="node50" class="node">
<title>j1958041516</title>
<ellipse fill="none" stroke="orange" cx="927" cy="-164" rx="124.28" ry="18"/>
<text text-anchor="middle" x="927" y="-160.3" font-family="Times New Roman,serif" font-size="14.00">Boolean AmirFight is now true.</text>
</g>
<!-- j1450932567&#45;&gt;j1958041516 -->
<g id="edge57" class="edge">
<title>j1450932567&#45;&gt;j1958041516</title>
<path fill="none" stroke="black" d="M972.48,-218.81C965.33,-210.35 956.56,-199.98 948.64,-190.61"/>
<polygon fill="black" stroke="black" points="951.5,-188.56 942.37,-183.18 946.15,-193.08 951.5,-188.56"/>
</g>
<!-- j1814617467 -->
<g id="node51" class="node">
<title>j1814617467</title>
<polygon fill="none" stroke="blue" points="548,-655 478,-655 478,-619 548,-619 548,-655"/>
<text text-anchor="middle" x="513" y="-633.3" font-family="Times New Roman,serif" font-size="14.00">panicking</text>
</g>
<!-- j4029030752&#45;&gt;j1814617467 -->
<g id="edge58" class="edge">
<title>j4029030752&#45;&gt;j1814617467</title>
<path fill="none" stroke="black" d="M512.24,-691.81C512.35,-684.23 512.48,-675.1 512.6,-666.54"/>
<polygon fill="black" stroke="black" points="516.1,-666.59 512.74,-656.54 509.1,-666.49 516.1,-666.59"/>
</g>
<!-- j2895199346 -->
<g id="node52" class="node">
<title>j2895199346</title>
<ellipse fill="none" stroke="orange" cx="925" cy="-91" rx="64.19" ry="18"/>
<text text-anchor="middle" x="925" y="-87.3" font-family="Times New Roman,serif" font-size="14.00">+20 Chemistry</text>
</g>
<!-- j1958041516&#45;&gt;j2895199346 -->
<g id="edge59" class="edge">
<title>j1958041516&#45;&gt;j2895199346</title>
<path fill="none" stroke="black" d="M926.52,-145.81C926.3,-138.14 926.04,-128.89 925.8,-120.24"/>
<polygon fill="black" stroke="black" points="929.3,-120.44 925.52,-110.54 922.31,-120.64 929.3,-120.44"/>
</g>
<!-- j215392040 -->
<g id="node53" class="node">
<title>j215392040</title>
<polygon fill="none" stroke="blue" points="581.5,-582 452.5,-582 452.5,-546 581.5,-546 581.5,-582"/>
<text text-anchor="middle" x="517" y="-560.3" font-family="Times New Roman,serif" font-size="14.00">because all i can see</text>
</g>
<!-- j1814617467&#45;&gt;j215392040 -->
<g id="edge60" class="edge">
<title>j1814617467&#45;&gt;j215392040</title>
<path fill="none" stroke="black" d="M513.97,-618.81C514.4,-611.14 514.92,-601.89 515.41,-593.24"/>
<polygon fill="black" stroke="black" points="518.89,-593.72 515.96,-583.54 511.9,-593.33 518.89,-593.72"/>
</g>
<!-- j2895199346&#45;&gt;Chat ends. -->
<g id="edge61" class="edge">
<title>j2895199346&#45;&gt;Chat ends.</title>
<path fill="none" stroke="black" d="M925,-72.81C925,-65.23 925,-56.1 925,-47.54"/>
<polygon fill="black" stroke="black" points="928.5,-47.54 925,-37.54 921.5,-47.54 928.5,-47.54"/>
</g>
<!-- j2232944535 -->
<g id="node54" class="node">
<title>j2232944535</title>
<polygon fill="none" stroke="blue" points="565,-509 471,-509 471,-473 565,-473 565,-509"/>
<text text-anchor="middle" x="518" y="-487.3" font-family="Times New Roman,serif" font-size="14.00">are their faces</text>
</g>
<!-- j215392040&#45;&gt;j2232944535 -->
<g id="edge62" class="edge">
<title>j215392040&#45;&gt;j2232944535</title>
<path fill="none" stroke="black" d="M517.24,-545.81C517.35,-538.23 517.48,-529.1 517.6,-520.54"/>
<polygon fill="black" stroke="black" points="521.1,-520.59 517.74,-510.54 514.1,-520.49 521.1,-520.59"/>
</g>
<!-- j2591913814 -->
<g id="node55" class="node">
<title>j2591913814</title>
<polygon fill="none" stroke="blue" points="605,-401 439,-401 439,-365 605,-365 605,-401"/>
<text text-anchor="middle" x="522" y="-379.3" font-family="Times New Roman,serif" font-size="14.00">the faces of the people i&#39;ve</text>
</g>
<!-- j2232944535&#45;&gt;j2591913814 -->
<g id="edge63" class="edge">
<title>j2232944535&#45;&gt;j2591913814</title>
<path fill="none" stroke="black" d="M518.64,-472.97C519.25,-456.76 520.19,-432.06 520.91,-412.79"/>
<polygon fill="black" stroke="black" points="524.41,-412.98 521.29,-402.85 517.41,-412.71 524.41,-412.98"/>
</g>
<!-- j2085634622 -->
<g id="node56" class="node">
<title>j2085634622</title>
<polygon fill="none" stroke="blue" points="560,-328 486,-328 486,-292 560,-292 560,-328"/>
<text text-anchor="middle" x="523" y="-306.3" font-family="Times New Roman,serif" font-size="14.00">i&#39;ve had to</text>
</g>
<!-- j2591913814&#45;&gt;j2085634622 -->
<g id="edge64" class="edge">
<title>j2591913814&#45;&gt;j2085634622</title>
<path fill="none" stroke="black" d="M522.24,-364.81C522.35,-357.23 522.48,-348.1 522.6,-339.54"/>
<polygon fill="black" stroke="black" points="526.1,-339.59 522.74,-329.54 519.1,-339.49 526.1,-339.59"/>
</g>
<!-- j3111958934 -->
<g id="node57" class="node">
<title>j3111958934</title>
<polygon fill="none" stroke="blue" points="638,-255 420,-255 420,-219 638,-219 638,-255"/>
<text text-anchor="middle" x="529" y="-233.3" font-family="Times New Roman,serif" font-size="14.00">sorryican&#39;tdothisrightnowi&#39;msosorry</text>
</g>
<!-- j2085634622&#45;&gt;j3111958934 -->
<g id="edge65" class="edge">
<title>j2085634622&#45;&gt;j3111958934</title>
<path fill="none" stroke="black" d="M524.45,-291.81C525.1,-284.14 525.88,-274.89 526.61,-266.24"/>
<polygon fill="black" stroke="black" points="530.08,-266.8 527.43,-256.54 523.1,-266.21 530.08,-266.8"/>
</g>
<!-- j1396294820 -->
<g id="node58" class="node">
<title>j1396294820</title>
<ellipse fill="none" stroke="orange" cx="540" cy="-164" rx="147.57" ry="18"/>
<text text-anchor="middle" x="540" y="-160.3" font-family="Times New Roman,serif" font-size="14.00">Boolean AmirNightmare1 is now true.</text>
</g>
<!-- j3111958934&#45;&gt;j1396294820 -->
<g id="edge66" class="edge">
<title>j3111958934&#45;&gt;j1396294820</title>
<path fill="none" stroke="black" d="M531.66,-218.81C532.85,-211.14 534.28,-201.89 535.62,-193.24"/>
<polygon fill="black" stroke="black" points="539.06,-193.94 537.13,-183.52 532.14,-192.87 539.06,-193.94"/>
</g>
<!-- j1396294820&#45;&gt;j2895199346 -->
<g id="edge67" class="edge">
<title>j1396294820&#45;&gt;j2895199346</title>
<path fill="none" stroke="black" d="M618.84,-148.46C690.48,-135.25 794.85,-116 861.33,-103.74"/>
<polygon fill="black" stroke="black" points="861.78,-107.22 870.98,-101.96 860.51,-100.33 861.78,-107.22"/>
</g>
</g>
</svg>
