<?xml version="1.0" encoding="UTF-8" standalone="no"?>
<!DOCTYPE svg PUBLIC "-//W3C//DTD SVG 1.1//EN"
 "http://www.w3.org/Graphics/SVG/1.1/DTD/svg11.dtd">
<!-- Generated by graphviz version 7.1.0 (20230121.1956)
 -->
<!-- Pages: 1 -->
<svg width="2472pt" height="2132pt"
 viewBox="0.00 0.00 2471.50 2132.00" xmlns="http://www.w3.org/2000/svg" xmlns:xlink="http://www.w3.org/1999/xlink">
<g id="graph0" class="graph" transform="scale(1 1) rotate(0) translate(4 2128)">
<polygon fill="white" stroke="none" points="-4,4 -4,-2128 2467.5,-2128 2467.5,4 -4,4"/>
<!-- EleanorRank5Convo7 begins. -->
<g id="node1" class="node">
<title>EleanorRank5Convo7 begins.</title>
<ellipse fill="none" stroke="orange" cx="199.5" cy="-2106" rx="118.88" ry="18"/>
<text text-anchor="middle" x="199.5" y="-2102.3" font-family="Times New Roman,serif" font-size="14.00">EleanorRank5Convo7 begins.</text>
</g>
<!-- j39252877 -->
<g id="node2" class="node">
<title>j39252877</title>
<polygon fill="none" stroke="blue" points="387.5,-2052 11.5,-2052 11.5,-2016 387.5,-2016 387.5,-2052"/>
<text text-anchor="middle" x="199.5" y="-2030.3" font-family="Times New Roman,serif" font-size="14.00">«Байдужість» є тим, чим вона Є, чи тим, чого вона ХОЧЕ?</text>
</g>
<!-- EleanorRank5Convo7 begins.&#45;&gt;j39252877 -->
<g id="edge1" class="edge">
<title>EleanorRank5Convo7 begins.&#45;&gt;j39252877</title>
<path fill="none" stroke="black" d="M199.5,-2087.7C199.5,-2080.41 199.5,-2071.73 199.5,-2063.54"/>
<polygon fill="black" stroke="black" points="203,-2063.62 199.5,-2053.62 196,-2063.62 203,-2063.62"/>
</g>
<!-- j3316529432 -->
<g id="node3" class="node">
<title>j3316529432</title>
<polygon fill="none" stroke="red" points="763.5,-1980 341.5,-1980 341.5,-1944 763.5,-1944 763.5,-1980"/>
<text text-anchor="middle" x="552.5" y="-1958.3" font-family="Times New Roman,serif" font-size="14.00">Ви з Летті обидві так робите, знаєш. Ви забуваєте казати «Привіт.»</text>
</g>
<!-- j39252877&#45;&gt;j3316529432 -->
<g id="edge2" class="edge">
<title>j39252877&#45;&gt;j3316529432</title>
<path fill="none" stroke="black" d="M287.67,-2015.52C337.99,-2005.54 401.22,-1993 453.27,-1982.68"/>
<polygon fill="black" stroke="black" points="453.93,-1986.12 463.06,-1980.74 452.57,-1979.25 453.93,-1986.12"/>
</g>
<!-- j3402688728 -->
<g id="node4" class="node">
<title>j3402688728</title>
<polygon fill="none" stroke="red" points="323.5,-1980 75.5,-1980 75.5,-1944 323.5,-1944 323.5,-1980"/>
<text text-anchor="middle" x="199.5" y="-1958.3" font-family="Times New Roman,serif" font-size="14.00">Більшість людей почала б із «Привіт.»</text>
</g>
<!-- j39252877&#45;&gt;j3402688728 -->
<g id="edge3" class="edge">
<title>j39252877&#45;&gt;j3402688728</title>
<path fill="none" stroke="black" d="M199.5,-2015.7C199.5,-2008.41 199.5,-1999.73 199.5,-1991.54"/>
<polygon fill="black" stroke="black" points="203,-1991.62 199.5,-1981.62 196,-1991.62 203,-1991.62"/>
</g>
<!-- j773651948 -->
<g id="node5" class="node">
<title>j773651948</title>
<polygon fill="none" stroke="red" points="95,-1836 0,-1836 0,-1800 95,-1800 95,-1836"/>
<text text-anchor="middle" x="47.5" y="-1814.3" font-family="Times New Roman,serif" font-size="14.00">[Ігнорувати.]</text>
</g>
<!-- j39252877&#45;&gt;j773651948 -->
<g id="edge4" class="edge">
<title>j39252877&#45;&gt;j773651948</title>
<path fill="none" stroke="black" d="M116.58,-2015.52C97.46,-2007.69 79.06,-1996.37 66.5,-1980 37.15,-1941.75 38.57,-1882.6 42.72,-1847.65"/>
<polygon fill="black" stroke="black" points="46.17,-1848.25 44.06,-1837.87 39.24,-1847.3 46.17,-1848.25"/>
</g>
<!-- j3672352771 -->
<g id="node6" class="node">
<title>j3672352771</title>
<polygon fill="none" stroke="blue" points="737.5,-1908 341.5,-1908 341.5,-1872 737.5,-1872 737.5,-1908"/>
<text text-anchor="middle" x="539.5" y="-1886.3" font-family="Times New Roman,serif" font-size="14.00">Ти знайшов те, що нас об’єднує, вітаю. І вибач. Це важливіше.</text>
</g>
<!-- j3316529432&#45;&gt;j3672352771 -->
<g id="edge5" class="edge">
<title>j3316529432&#45;&gt;j3672352771</title>
<path fill="none" stroke="black" d="M549.29,-1943.7C547.92,-1936.32 546.28,-1927.52 544.75,-1919.25"/>
<polygon fill="black" stroke="black" points="548.22,-1918.79 542.95,-1909.59 541.34,-1920.06 548.22,-1918.79"/>
</g>
<!-- j1788674254 -->
<g id="node7" class="node">
<title>j1788674254</title>
<polygon fill="none" stroke="blue" points="298.5,-1908 150.5,-1908 150.5,-1872 298.5,-1872 298.5,-1908"/>
<text text-anchor="middle" x="224.5" y="-1886.3" font-family="Times New Roman,serif" font-size="14.00">Вибач. Це важливіше.</text>
</g>
<!-- j3402688728&#45;&gt;j1788674254 -->
<g id="edge6" class="edge">
<title>j3402688728&#45;&gt;j1788674254</title>
<path fill="none" stroke="black" d="M205.68,-1943.7C208.37,-1936.15 211.6,-1927.12 214.61,-1918.68"/>
<polygon fill="black" stroke="black" points="217.81,-1920.12 217.88,-1909.53 211.22,-1917.77 217.81,-1920.12"/>
</g>
<!-- Chat ends. -->
<g id="node8" class="node">
<title>Chat ends.</title>
<ellipse fill="none" stroke="orange" cx="534.5" cy="-18" rx="50.09" ry="18"/>
<text text-anchor="middle" x="534.5" y="-14.3" font-family="Times New Roman,serif" font-size="14.00">Chat ends.</text>
</g>
<!-- j773651948&#45;&gt;Chat ends. -->
<g id="edge7" class="edge">
<title>j773651948&#45;&gt;Chat ends.</title>
<path fill="none" stroke="black" d="M47.5,-1799.51C47.5,-1772.71 47.5,-1719.87 47.5,-1675 47.5,-1675 47.5,-1675 47.5,-161 47.5,-107.52 81.09,-96.75 128.5,-72 187.22,-41.35 375.62,-27.24 473.77,-21.83"/>
<polygon fill="black" stroke="black" points="473.68,-25.34 483.47,-21.31 473.3,-18.35 473.68,-25.34"/>
</g>
<!-- j2919504458 -->
<g id="node9" class="node">
<title>j2919504458</title>
<polygon fill="none" stroke="blue" points="725,-1836 306,-1836 306,-1800 725,-1800 725,-1836"/>
<text text-anchor="middle" x="515.5" y="-1814.3" font-family="Times New Roman,serif" font-size="14.00">Я думаю, що «Велика Байдужість» спробує якось стати між нами.</text>
</g>
<!-- j3672352771&#45;&gt;j2919504458 -->
<g id="edge8" class="edge">
<title>j3672352771&#45;&gt;j2919504458</title>
<path fill="none" stroke="black" d="M533.57,-1871.7C531.01,-1864.24 527.95,-1855.32 525.09,-1846.97"/>
<polygon fill="black" stroke="black" points="528.41,-1845.86 521.86,-1837.54 521.79,-1848.13 528.41,-1845.86"/>
</g>
<!-- j1788674254&#45;&gt;j2919504458 -->
<g id="edge9" class="edge">
<title>j1788674254&#45;&gt;j2919504458</title>
<path fill="none" stroke="black" d="M297.18,-1871.52C338.06,-1861.68 389.26,-1849.37 431.8,-1839.13"/>
<polygon fill="black" stroke="black" points="432.61,-1842.54 441.52,-1836.8 430.98,-1835.73 432.61,-1842.54"/>
</g>
<!-- j738864142 -->
<g id="node10" class="node">
<title>j738864142</title>
<polygon fill="none" stroke="blue" points="943.5,-1764 87.5,-1764 87.5,-1728 943.5,-1728 943.5,-1764"/>
<text text-anchor="middle" x="515.5" y="-1742.3" font-family="Times New Roman,serif" font-size="14.00">Не смійся. Я відчуваю це, глибоко в кістковому мозку. Те, що було в Русалці, хотіло б бачити, як ми розриваємо один одного на шматки.</text>
</g>
<!-- j2919504458&#45;&gt;j738864142 -->
<g id="edge10" class="edge">
<title>j2919504458&#45;&gt;j738864142</title>
<path fill="none" stroke="black" d="M515.5,-1799.7C515.5,-1792.41 515.5,-1783.73 515.5,-1775.54"/>
<polygon fill="black" stroke="black" points="519,-1775.62 515.5,-1765.62 512,-1775.62 519,-1775.62"/>
</g>
<!-- j3350261004 -->
<g id="node11" class="node">
<title>j3350261004</title>
<polygon fill="none" stroke="blue" points="616.5,-1692 414.5,-1692 414.5,-1656 616.5,-1656 616.5,-1692"/>
<text text-anchor="middle" x="515.5" y="-1670.3" font-family="Times New Roman,serif" font-size="14.00">Я не знаю чому. Просто знаю.</text>
</g>
<!-- j738864142&#45;&gt;j3350261004 -->
<g id="edge11" class="edge">
<title>j738864142&#45;&gt;j3350261004</title>
<path fill="none" stroke="black" d="M515.5,-1727.7C515.5,-1720.41 515.5,-1711.73 515.5,-1703.54"/>
<polygon fill="black" stroke="black" points="519,-1703.62 515.5,-1693.62 512,-1703.62 519,-1703.62"/>
</g>
<!-- j2031938818 -->
<g id="node12" class="node">
<title>j2031938818</title>
<polygon fill="none" stroke="red" points="530.5,-1620 344.5,-1620 344.5,-1584 530.5,-1584 530.5,-1620"/>
<text text-anchor="middle" x="437.5" y="-1598.3" font-family="Times New Roman,serif" font-size="14.00">Так. Думаю, ти маєш рацію.</text>
</g>
<!-- j3350261004&#45;&gt;j2031938818 -->
<g id="edge12" class="edge">
<title>j3350261004&#45;&gt;j2031938818</title>
<path fill="none" stroke="black" d="M496.22,-1655.7C486.84,-1647.28 475.41,-1637.02 465.12,-1627.79"/>
<polygon fill="black" stroke="black" points="467.74,-1625.43 457.96,-1621.36 463.06,-1630.64 467.74,-1625.43"/>
</g>
<!-- j4131550848 -->
<g id="node13" class="node">
<title>j4131550848</title>
<polygon fill="none" stroke="red" points="1748,-1620 549,-1620 549,-1584 1748,-1584 1748,-1620"/>
<text text-anchor="middle" x="1148.5" y="-1598.3" font-family="Times New Roman,serif" font-size="14.00">Можливо, саме це сталося з родиною Ентраті. Вони роками жили прямо над його лабораторією, навіть не підозрюючи про це. Коли дитя знайшло їх, вони були відчуженими, зануреними в себе.</text>
</g>
<!-- j3350261004&#45;&gt;j4131550848 -->
<g id="edge13" class="edge">
<title>j3350261004&#45;&gt;j4131550848</title>
<path fill="none" stroke="black" d="M616.85,-1661.79C714.28,-1651.02 863.37,-1634.53 978.9,-1621.76"/>
<polygon fill="black" stroke="black" points="979.26,-1625.24 988.82,-1620.66 978.49,-1618.28 979.26,-1625.24"/>
</g>
<!-- j2611925214 -->
<g id="node14" class="node">
<title>j2611925214</title>
<polygon fill="none" stroke="blue" points="1424,-1548 563,-1548 563,-1512 1424,-1512 1424,-1548"/>
<text text-anchor="middle" x="993.5" y="-1526.3" font-family="Times New Roman,serif" font-size="14.00">Я бачила це в твоїй голові. Альбрехт і Лойд. Матір і Батько. Ти і твої батьки. Русалка і Віктор, наскільки нам відомо. І шестеро нас, звісно.</text>
</g>
<!-- j2031938818&#45;&gt;j2611925214 -->
<g id="edge14" class="edge">
<title>j2031938818&#45;&gt;j2611925214</title>
<path fill="none" stroke="black" d="M530.94,-1585.38C534.17,-1584.9 537.36,-1584.44 540.5,-1584 631.3,-1571.2 732.64,-1559.14 816.42,-1549.76"/>
<polygon fill="black" stroke="black" points="816.8,-1553.24 826.35,-1548.65 816.02,-1546.28 816.8,-1553.24"/>
</g>
<!-- j4131550848&#45;&gt;j2611925214 -->
<g id="edge15" class="edge">
<title>j4131550848&#45;&gt;j2611925214</title>
<path fill="none" stroke="black" d="M1109.79,-1583.52C1089.37,-1574.29 1064.11,-1562.89 1042.35,-1553.06"/>
<polygon fill="black" stroke="black" points="1043.92,-1549.93 1033.37,-1549 1041.04,-1556.31 1043.92,-1549.93"/>
</g>
<!-- j1904216030 -->
<g id="node15" class="node">
<title>j1904216030</title>
<polygon fill="none" stroke="blue" points="1217,-1476 770,-1476 770,-1440 1217,-1440 1217,-1476"/>
<text text-anchor="middle" x="993.5" y="-1454.3" font-family="Times New Roman,serif" font-size="14.00">Ця штука наганяє холоду. Збочення. Але десь за цим стоїть мотивація.</text>
</g>
<!-- j2611925214&#45;&gt;j1904216030 -->
<g id="edge16" class="edge">
<title>j2611925214&#45;&gt;j1904216030</title>
<path fill="none" stroke="black" d="M993.5,-1511.7C993.5,-1504.41 993.5,-1495.73 993.5,-1487.54"/>
<polygon fill="black" stroke="black" points="997,-1487.62 993.5,-1477.62 990,-1487.62 997,-1487.62"/>
</g>
<!-- j3086349970 -->
<g id="node16" class="node">
<title>j3086349970</title>
<polygon fill="none" stroke="red" points="1420.5,-1404 410.5,-1404 410.5,-1368 1420.5,-1368 1420.5,-1404"/>
<text text-anchor="middle" x="915.5" y="-1382.3" font-family="Times New Roman,serif" font-size="14.00">Думаю, ти маєш рацію. На «Заримені» батьки були першими, хто з’їхав з глузду. Можливо, в «Паланці» протрималися так довго тому, що ніхто з них не мав дітей.</text>
</g>
<!-- j1904216030&#45;&gt;j3086349970 -->
<g id="edge17" class="edge">
<title>j1904216030&#45;&gt;j3086349970</title>
<path fill="none" stroke="black" d="M974.22,-1439.7C964.84,-1431.28 953.41,-1421.02 943.12,-1411.79"/>
<polygon fill="black" stroke="black" points="945.74,-1409.43 935.96,-1405.36 941.06,-1414.64 945.74,-1409.43"/>
</g>
<!-- j2065177637 -->
<g id="node17" class="node">
<title>j2065177637</title>
<polygon fill="none" stroke="red" points="2463.5,-1404 1463.5,-1404 1463.5,-1368 2463.5,-1368 2463.5,-1404"/>
<text text-anchor="middle" x="1963.5" y="-1382.3" font-family="Times New Roman,serif" font-size="14.00">Я не люблю претендувати на розуміння речей, які, по суті, є *богами*. Ця штука намагається зрозуміти емоції. Вона просто погано грається зі своїми іграшками.</text>
</g>
<!-- j1904216030&#45;&gt;j2065177637 -->
<g id="edge18" class="edge">
<title>j1904216030&#45;&gt;j2065177637</title>
<path fill="none" stroke="black" d="M1217.26,-1440.85C1364.36,-1430.24 1557.17,-1416.32 1709.95,-1405.3"/>
<polygon fill="black" stroke="black" points="1710.11,-1408.8 1719.83,-1404.58 1709.61,-1401.81 1710.11,-1408.8"/>
</g>
<!-- j443775683 -->
<g id="node18" class="node">
<title>j443775683</title>
<polygon fill="none" stroke="blue" points="1203,-1332 616,-1332 616,-1296 1203,-1296 1203,-1332"/>
<text text-anchor="middle" x="909.5" y="-1310.3" font-family="Times New Roman,serif" font-size="14.00">Нехай тільки спробує стати між нами. І допоможе мені Сол, я покінчу з цим. Я знайду спосіб.</text>
</g>
<!-- j3086349970&#45;&gt;j443775683 -->
<g id="edge19" class="edge">
<title>j3086349970&#45;&gt;j443775683</title>
<path fill="none" stroke="black" d="M914.02,-1367.7C913.39,-1360.41 912.65,-1351.73 911.95,-1343.54"/>
<polygon fill="black" stroke="black" points="915.44,-1343.28 911.1,-1333.61 908.46,-1343.87 915.44,-1343.28"/>
</g>
<!-- j1780626609 -->
<g id="node19" class="node">
<title>j1780626609</title>
<polygon fill="none" stroke="blue" points="2131,-1332 1796,-1332 1796,-1296 2131,-1296 2131,-1332"/>
<text text-anchor="middle" x="1963.5" y="-1310.3" font-family="Times New Roman,serif" font-size="14.00">Чудова теорія, але ми цього не ЗНАЄМО, чи не так?</text>
</g>
<!-- j2065177637&#45;&gt;j1780626609 -->
<g id="edge20" class="edge">
<title>j2065177637&#45;&gt;j1780626609</title>
<path fill="none" stroke="black" d="M1963.5,-1367.7C1963.5,-1360.41 1963.5,-1351.73 1963.5,-1343.54"/>
<polygon fill="black" stroke="black" points="1967,-1343.62 1963.5,-1333.62 1960,-1343.62 1967,-1343.62"/>
</g>
<!-- j4126051157 -->
<g id="node20" class="node">
<title>j4126051157</title>
<polygon fill="none" stroke="blue" points="1226,-1260 591,-1260 591,-1224 1226,-1224 1226,-1260"/>
<text text-anchor="middle" x="908.5" y="-1238.3" font-family="Times New Roman,serif" font-size="14.00">У Всесвіті є сили, проти яких ця штука не може встояти. Я обираю вірити в це кожною часткою себе.</text>
</g>
<!-- j443775683&#45;&gt;j4126051157 -->
<g id="edge21" class="edge">
<title>j443775683&#45;&gt;j4126051157</title>
<path fill="none" stroke="black" d="M909.25,-1295.7C909.15,-1288.41 909.02,-1279.73 908.91,-1271.54"/>
<polygon fill="black" stroke="black" points="912.41,-1271.57 908.77,-1261.62 905.41,-1271.67 912.41,-1271.57"/>
</g>
<!-- j811474108 -->
<g id="node21" class="node">
<title>j811474108</title>
<polygon fill="none" stroke="blue" points="2381,-1188 1646,-1188 1646,-1152 2381,-1152 2381,-1188"/>
<text text-anchor="middle" x="2013.5" y="-1166.3" font-family="Times New Roman,serif" font-size="14.00">Якщо ти маєш рацію, то вона бездоганна. Майже по&#45;дитячому. Це не відповідає тому, що ми знаємо. Вона зловмисна.</text>
</g>
<!-- j1780626609&#45;&gt;j811474108 -->
<g id="edge22" class="edge">
<title>j1780626609&#45;&gt;j811474108</title>
<path fill="none" stroke="black" d="M1969.63,-1295.59C1978.15,-1271.4 1993.65,-1227.36 2003.76,-1198.65"/>
<polygon fill="black" stroke="black" points="2006.95,-1200.13 2006.97,-1189.54 2000.35,-1197.81 2006.95,-1200.13"/>
</g>
<!-- j3915170720 -->
<g id="node22" class="node">
<title>j3915170720</title>
<polygon fill="none" stroke="blue" points="1141,-1188 650,-1188 650,-1152 1141,-1152 1141,-1188"/>
<text text-anchor="middle" x="895.5" y="-1166.3" font-family="Times New Roman,serif" font-size="14.00">Якщо вона проковтне мене цілком, я застрягну, як кістка в горлі, та задушу її.</text>
</g>
<!-- j4126051157&#45;&gt;j3915170720 -->
<g id="edge23" class="edge">
<title>j4126051157&#45;&gt;j3915170720</title>
<path fill="none" stroke="black" d="M905.29,-1223.7C903.92,-1216.32 902.28,-1207.52 900.75,-1199.25"/>
<polygon fill="black" stroke="black" points="904.22,-1198.79 898.95,-1189.59 897.34,-1200.06 904.22,-1198.79"/>
</g>
<!-- j811474108&#45;&gt;Chat ends. -->
<g id="edge24" class="edge">
<title>j811474108&#45;&gt;Chat ends.</title>
<path fill="none" stroke="black" d="M2013.5,-1151.51C2013.5,-1124.71 2013.5,-1071.87 2013.5,-1027 2013.5,-1027 2013.5,-1027 2013.5,-161 2013.5,-88.56 874.58,-33.91 595.61,-21.61"/>
<polygon fill="black" stroke="black" points="595.79,-18.11 585.64,-21.17 595.48,-25.11 595.79,-18.11"/>
</g>
<!-- j207674437 -->
<g id="node23" class="node">
<title>j207674437</title>
<polygon fill="none" stroke="red" points="477.5,-1116 289.5,-1116 289.5,-1080 477.5,-1080 477.5,-1116"/>
<text text-anchor="middle" x="383.5" y="-1094.3" font-family="Times New Roman,serif" font-size="14.00">Це чудовий спосіб померти.</text>
</g>
<!-- j3915170720&#45;&gt;j207674437 -->
<g id="edge25" class="edge">
<title>j3915170720&#45;&gt;j207674437</title>
<path fill="none" stroke="black" d="M767.62,-1151.52C681.77,-1139.78 570,-1124.5 489.19,-1113.45"/>
<polygon fill="black" stroke="black" points="489.88,-1110.01 479.5,-1112.12 488.93,-1116.95 489.88,-1110.01"/>
</g>
<!-- j3056636044 -->
<g id="node24" class="node">
<title>j3056636044</title>
<polygon fill="none" stroke="red" points="1120.5,-1116 670.5,-1116 670.5,-1080 1120.5,-1080 1120.5,-1116"/>
<text text-anchor="middle" x="895.5" y="-1094.3" font-family="Times New Roman,serif" font-size="14.00">Я ще не знаю, як ми це зробимо, але я з тобою. Ми повинні перемогти.</text>
</g>
<!-- j3915170720&#45;&gt;j3056636044 -->
<g id="edge26" class="edge">
<title>j3915170720&#45;&gt;j3056636044</title>
<path fill="none" stroke="black" d="M895.5,-1151.7C895.5,-1144.41 895.5,-1135.73 895.5,-1127.54"/>
<polygon fill="black" stroke="black" points="899,-1127.62 895.5,-1117.62 892,-1127.62 899,-1127.62"/>
</g>
<!-- j1623078233 -->
<g id="node25" class="node">
<title>j1623078233</title>
<polygon fill="none" stroke="blue" points="330.5,-1044 88.5,-1044 88.5,-1008 330.5,-1008 330.5,-1044"/>
<text text-anchor="middle" x="209.5" y="-1022.3" font-family="Times New Roman,serif" font-size="14.00">З таким сценарієм я все одно мертва.</text>
</g>
<!-- j207674437&#45;&gt;j1623078233 -->
<g id="edge27" class="edge">
<title>j207674437&#45;&gt;j1623078233</title>
<path fill="none" stroke="black" d="M340.04,-1079.52C316.81,-1070.17 287.99,-1058.57 263.34,-1048.66"/>
<polygon fill="black" stroke="black" points="264.69,-1045.43 254.11,-1044.95 262.08,-1051.93 264.69,-1045.43"/>
</g>
<!-- j1038864010 -->
<g id="node26" class="node">
<title>j1038864010</title>
<polygon fill="none" stroke="blue" points="1439.5,-1044 351.5,-1044 351.5,-1008 1439.5,-1008 1439.5,-1044"/>
<text text-anchor="middle" x="895.5" y="-1022.3" font-family="Times New Roman,serif" font-size="14.00">Якби це була казка, можна було б придумати який хитрий трюк. Відколупати кам’яне серце велетня і розбивали його лебединим пером, або обманом змусити кинутися зі скелі.</text>
</g>
<!-- j3056636044&#45;&gt;j1038864010 -->
<g id="edge28" class="edge">
<title>j3056636044&#45;&gt;j1038864010</title>
<path fill="none" stroke="black" d="M895.5,-1079.7C895.5,-1072.41 895.5,-1063.73 895.5,-1055.54"/>
<polygon fill="black" stroke="black" points="899,-1055.62 895.5,-1045.62 892,-1055.62 899,-1055.62"/>
</g>
<!-- j1032068787 -->
<g id="node27" class="node">
<title>j1032068787</title>
<polygon fill="none" stroke="blue" points="338,-900 77,-900 77,-864 338,-864 338,-900"/>
<text text-anchor="middle" x="207.5" y="-878.3" font-family="Times New Roman,serif" font-size="14.00">Але принаймні я можу плюнути їй в очі.</text>
</g>
<!-- j1623078233&#45;&gt;j1032068787 -->
<g id="edge29" class="edge">
<title>j1623078233&#45;&gt;j1032068787</title>
<path fill="none" stroke="black" d="M209.25,-1007.59C208.92,-983.61 208.3,-940.14 207.9,-911.42"/>
<polygon fill="black" stroke="black" points="211.4,-911.57 207.76,-901.62 204.4,-911.67 211.4,-911.57"/>
</g>
<!-- j3037314838 -->
<g id="node28" class="node">
<title>j3037314838</title>
<polygon fill="none" stroke="red" points="1327,-972 464,-972 464,-936 1327,-936 1327,-972"/>
<text text-anchor="middle" x="895.5" y="-950.3" font-family="Times New Roman,serif" font-size="14.00">Ти казала, що була «журналістом». Це не ті історії, які ти звикла розповідати, чи не так? Ти казала правду, якою б потворною вона не була.</text>
</g>
<!-- j1038864010&#45;&gt;j3037314838 -->
<g id="edge30" class="edge">
<title>j1038864010&#45;&gt;j3037314838</title>
<path fill="none" stroke="black" d="M895.5,-1007.7C895.5,-1000.41 895.5,-991.73 895.5,-983.54"/>
<polygon fill="black" stroke="black" points="899,-983.62 895.5,-973.62 892,-983.62 899,-983.62"/>
</g>
<!-- j1032068787&#45;&gt;Chat ends. -->
<g id="edge31" class="edge">
<title>j1032068787&#45;&gt;Chat ends.</title>
<path fill="none" stroke="black" d="M177.34,-863.63C141.21,-840.31 85.5,-795.23 85.5,-739 85.5,-739 85.5,-739 85.5,-161 85.5,-80.12 353.73,-39.43 475.56,-25.13"/>
<polygon fill="black" stroke="black" points="475.84,-28.62 485.37,-24 475.04,-21.67 475.84,-28.62"/>
</g>
<!-- j1989302854 -->
<g id="node29" class="node">
<title>j1989302854</title>
<polygon fill="none" stroke="blue" points="1151.5,-900 639.5,-900 639.5,-864 1151.5,-864 1151.5,-900"/>
<text text-anchor="middle" x="895.5" y="-878.3" font-family="Times New Roman,serif" font-size="14.00">Якби ці старі казки не говорили правди, люди не продовжували б їх розповідати.</text>
</g>
<!-- j3037314838&#45;&gt;j1989302854 -->
<g id="edge32" class="edge">
<title>j3037314838&#45;&gt;j1989302854</title>
<path fill="none" stroke="black" d="M895.5,-935.7C895.5,-928.41 895.5,-919.73 895.5,-911.54"/>
<polygon fill="black" stroke="black" points="899,-911.62 895.5,-901.62 892,-911.62 899,-911.62"/>
</g>
<!-- j1410062376 -->
<g id="node30" class="node">
<title>j1410062376</title>
<polygon fill="none" stroke="blue" points="1220.5,-828 570.5,-828 570.5,-792 1220.5,-792 1220.5,-828"/>
<text text-anchor="middle" x="895.5" y="-806.3" font-family="Times New Roman,serif" font-size="14.00">Я не маю на увазі, що велетні існують. Я просто маю на увазі, що старі казки розповідають іншу правду.</text>
</g>
<!-- j1989302854&#45;&gt;j1410062376 -->
<g id="edge33" class="edge">
<title>j1989302854&#45;&gt;j1410062376</title>
<path fill="none" stroke="black" d="M895.5,-863.7C895.5,-856.41 895.5,-847.73 895.5,-839.54"/>
<polygon fill="black" stroke="black" points="899,-839.62 895.5,-829.62 892,-839.62 899,-839.62"/>
</g>
<!-- j1256938008 -->
<g id="node31" class="node">
<title>j1256938008</title>
<polygon fill="none" stroke="red" points="1602,-756 973,-756 973,-720 1602,-720 1602,-756"/>
<text text-anchor="middle" x="1287.5" y="-734.3" font-family="Times New Roman,serif" font-size="14.00">Щоб пройти через це, нам знадобиться щось більше, ніж казки, якими б надихаючими вони не були.</text>
</g>
<!-- j1410062376&#45;&gt;j1256938008 -->
<g id="edge34" class="edge">
<title>j1410062376&#45;&gt;j1256938008</title>
<path fill="none" stroke="black" d="M993.41,-791.52C1049.76,-781.45 1120.68,-768.79 1178.76,-758.42"/>
<polygon fill="black" stroke="black" points="1179.1,-761.91 1188.33,-756.71 1177.87,-755.02 1179.1,-761.91"/>
</g>
<!-- j3979382899 -->
<g id="node32" class="node">
<title>j3979382899</title>
<polygon fill="none" stroke="red" points="929.5,-756 389.5,-756 389.5,-720 929.5,-720 929.5,-756"/>
<text text-anchor="middle" x="659.5" y="-734.3" font-family="Times New Roman,serif" font-size="14.00">Моє життя було в королівстві з казок. Я знаю, наскільки сильними вони можуть бути.</text>
</g>
<!-- j1410062376&#45;&gt;j3979382899 -->
<g id="edge35" class="edge">
<title>j1410062376&#45;&gt;j3979382899</title>
<path fill="none" stroke="black" d="M836.56,-791.52C803.91,-781.83 763.14,-769.74 728.95,-759.6"/>
<polygon fill="black" stroke="black" points="730.13,-756.3 719.55,-756.81 728.14,-763.01 730.13,-756.3"/>
</g>
<!-- j3406264872 -->
<g id="node33" class="node">
<title>j3406264872</title>
<polygon fill="none" stroke="blue" points="1593.5,-684 1177.5,-684 1177.5,-648 1593.5,-648 1593.5,-684"/>
<text text-anchor="middle" x="1385.5" y="-662.3" font-family="Times New Roman,serif" font-size="14.00">Я знаю. Хотілося б мати щось більше, ніж інстинкт, щоб йти далі.</text>
</g>
<!-- j1256938008&#45;&gt;j3406264872 -->
<g id="edge36" class="edge">
<title>j1256938008&#45;&gt;j3406264872</title>
<path fill="none" stroke="black" d="M1311.98,-719.52C1324.11,-710.85 1338.95,-700.25 1352.11,-690.85"/>
<polygon fill="black" stroke="black" points="1354,-693.8 1360.1,-685.14 1349.93,-688.1 1354,-693.8"/>
</g>
<!-- j3578458746 -->
<g id="node34" class="node">
<title>j3578458746</title>
<polygon fill="none" stroke="blue" points="1062,-684 207,-684 207,-648 1062,-648 1062,-684"/>
<text text-anchor="middle" x="634.5" y="-662.3" font-family="Times New Roman,serif" font-size="14.00">Я думаю, що всі ці казки про вбивць&#45;велетнів об’єднує одне: вони про те, як вивчити правила і з’ясувати, як поводитися з ними розумно.</text>
</g>
<!-- j3979382899&#45;&gt;j3578458746 -->
<g id="edge37" class="edge">
<title>j3979382899&#45;&gt;j3578458746</title>
<path fill="none" stroke="black" d="M653.32,-719.7C650.63,-712.15 647.4,-703.12 644.39,-694.68"/>
<polygon fill="black" stroke="black" points="647.78,-693.77 641.12,-685.53 641.19,-696.12 647.78,-693.77"/>
</g>
<!-- j1248561981 -->
<g id="node35" class="node">
<title>j1248561981</title>
<polygon fill="none" stroke="blue" points="1985.5,-612 1075.5,-612 1075.5,-576 1985.5,-576 1985.5,-612"/>
<text text-anchor="middle" x="1530.5" y="-590.3" font-family="Times New Roman,serif" font-size="14.00">Ми стикаємося з чимось величезним, жахливим і непідвладним нашому розумінню. Зазвичай це роблять лише діти. Саме для цього існують казки.</text>
</g>
<!-- j3406264872&#45;&gt;j1248561981 -->
<g id="edge38" class="edge">
<title>j3406264872&#45;&gt;j1248561981</title>
<path fill="none" stroke="black" d="M1421.72,-647.52C1440.64,-638.38 1464.02,-627.09 1484.25,-617.33"/>
<polygon fill="black" stroke="black" points="1485.65,-620.54 1493.13,-613.04 1482.6,-614.24 1485.65,-620.54"/>
</g>
<!-- j3778456079 -->
<g id="node36" class="node">
<title>j3778456079</title>
<polygon fill="none" stroke="blue" points="1057.5,-612 113.5,-612 113.5,-576 1057.5,-576 1057.5,-612"/>
<text text-anchor="middle" x="585.5" y="-590.3" font-family="Times New Roman,serif" font-size="14.00">Деякі монстри дурні. Деякі дуже примітивні. У деяких є секрети. Але ти не зможеш перемогти, поки не дізнаєшся про правила, якими керується монстр.</text>
</g>
<!-- j3578458746&#45;&gt;j3778456079 -->
<g id="edge39" class="edge">
<title>j3578458746&#45;&gt;j3778456079</title>
<path fill="none" stroke="black" d="M622.39,-647.7C616.81,-639.73 610.07,-630.1 603.88,-621.26"/>
<polygon fill="black" stroke="black" points="606.94,-619.53 598.34,-613.34 601.21,-623.54 606.94,-619.53"/>
</g>
<!-- j3125348852 -->
<g id="node37" class="node">
<title>j3125348852</title>
<polygon fill="none" stroke="red" points="794,-540 377,-540 377,-504 794,-504 794,-540"/>
<text text-anchor="middle" x="585.5" y="-518.3" font-family="Times New Roman,serif" font-size="14.00">Воно застрягло в стіні. Я навіть не знаю, що являє собою «стіна».</text>
</g>
<!-- j1248561981&#45;&gt;j3125348852 -->
<g id="edge40" class="edge">
<title>j1248561981&#45;&gt;j3125348852</title>
<path fill="none" stroke="black" d="M1294.47,-575.52C1144.76,-564.43 952.36,-550.17 805.78,-539.32"/>
<polygon fill="black" stroke="black" points="806.16,-535.84 795.92,-538.59 805.64,-542.82 806.16,-535.84"/>
</g>
<!-- j1025514595 -->
<g id="node38" class="node">
<title>j1025514595</title>
<polygon fill="none" stroke="red" points="1416,-540 1027,-540 1027,-504 1416,-504 1416,-540"/>
<text text-anchor="middle" x="1221.5" y="-518.3" font-family="Times New Roman,serif" font-size="14.00">Я не думаю, що «Байдужість» пов’язана якимись правилами.</text>
</g>
<!-- j1248561981&#45;&gt;j1025514595 -->
<g id="edge41" class="edge">
<title>j1248561981&#45;&gt;j1025514595</title>
<path fill="none" stroke="black" d="M1453.32,-575.52C1409.64,-565.62 1354.85,-553.21 1309.51,-542.94"/>
<polygon fill="black" stroke="black" points="1310.5,-539.57 1299.97,-540.78 1308.95,-546.4 1310.5,-539.57"/>
</g>
<!-- j3778456079&#45;&gt;j3125348852 -->
<g id="edge42" class="edge">
<title>j3778456079&#45;&gt;j3125348852</title>
<path fill="none" stroke="black" d="M585.5,-575.7C585.5,-568.41 585.5,-559.73 585.5,-551.54"/>
<polygon fill="black" stroke="black" points="589,-551.62 585.5,-541.62 582,-551.62 589,-551.62"/>
</g>
<!-- j3778456079&#45;&gt;j1025514595 -->
<g id="edge43" class="edge">
<title>j3778456079&#45;&gt;j1025514595</title>
<path fill="none" stroke="black" d="M744.35,-575.52C837.87,-565.22 956.14,-552.21 1051.53,-541.71"/>
<polygon fill="black" stroke="black" points="1051.69,-545.21 1061.24,-540.64 1050.92,-538.25 1051.69,-545.21"/>
</g>
<!-- j925124449 -->
<g id="node39" class="node">
<title>j925124449</title>
<polygon fill="none" stroke="blue" points="845,-468 248,-468 248,-432 845,-432 845,-468"/>
<text text-anchor="middle" x="546.5" y="-446.3" font-family="Times New Roman,serif" font-size="14.00">Не має значення. Якщо воно дійсно застрягло, то ми можемо зробити два висновки, чи не так?</text>
</g>
<!-- j3125348852&#45;&gt;j925124449 -->
<g id="edge44" class="edge">
<title>j3125348852&#45;&gt;j925124449</title>
<path fill="none" stroke="black" d="M575.86,-503.7C571.56,-495.98 566.4,-486.71 561.61,-478.11"/>
<polygon fill="black" stroke="black" points="564.69,-476.46 556.77,-469.43 558.58,-479.87 564.69,-476.46"/>
</g>
<!-- j1495801144 -->
<g id="node40" class="node">
<title>j1495801144</title>
<polygon fill="none" stroke="blue" points="1569,-468 874,-468 874,-432 1569,-432 1569,-468"/>
<text text-anchor="middle" x="1221.5" y="-446.3" font-family="Times New Roman,serif" font-size="14.00">Вони мають бути! Навіть Боги мають правила! Якою б могутньою не здавалася «Байдужість», вона не є Богом.</text>
</g>
<!-- j1025514595&#45;&gt;j1495801144 -->
<g id="edge45" class="edge">
<title>j1025514595&#45;&gt;j1495801144</title>
<path fill="none" stroke="black" d="M1221.5,-503.7C1221.5,-496.41 1221.5,-487.73 1221.5,-479.54"/>
<polygon fill="black" stroke="black" points="1225,-479.62 1221.5,-469.62 1218,-479.62 1225,-479.62"/>
</g>
<!-- j3727058371 -->
<g id="node41" class="node">
<title>j3727058371</title>
<polygon fill="none" stroke="blue" points="777.5,-396 291.5,-396 291.5,-360 777.5,-360 777.5,-396"/>
<text text-anchor="middle" x="534.5" y="-374.3" font-family="Times New Roman,serif" font-size="14.00">По&#45;перше, воно може потрапити в пастку. Можливо, навіть бути ув’язненим.</text>
</g>
<!-- j925124449&#45;&gt;j3727058371 -->
<g id="edge46" class="edge">
<title>j925124449&#45;&gt;j3727058371</title>
<path fill="none" stroke="black" d="M543.53,-431.7C542.27,-424.32 540.76,-415.52 539.34,-407.25"/>
<polygon fill="black" stroke="black" points="542.83,-406.86 537.69,-397.6 535.93,-408.04 542.83,-406.86"/>
</g>
<!-- j2430399076 -->
<g id="node42" class="node">
<title>j2430399076</title>
<polygon fill="none" stroke="blue" points="1647.5,-396 795.5,-396 795.5,-360 1647.5,-360 1647.5,-396"/>
<text text-anchor="middle" x="1221.5" y="-374.3" font-family="Times New Roman,serif" font-size="14.00">Ти здолав Тракса. Неважливо, скільки разів ти зазнавав невдач і опинявся на сраці. Ти ПЕРЕМІГ. Чому б тобі не здолати Людину в стіні?</text>
</g>
<!-- j1495801144&#45;&gt;j2430399076 -->
<g id="edge47" class="edge">
<title>j1495801144&#45;&gt;j2430399076</title>
<path fill="none" stroke="black" d="M1221.5,-431.7C1221.5,-424.41 1221.5,-415.73 1221.5,-407.54"/>
<polygon fill="black" stroke="black" points="1225,-407.62 1221.5,-397.62 1218,-407.62 1225,-407.62"/>
</g>
<!-- j2637089461 -->
<g id="node43" class="node">
<title>j2637089461</title>
<ellipse fill="none" stroke="orange" cx="534.5" cy="-306" rx="64.19" ry="18"/>
<text text-anchor="middle" x="534.5" y="-302.3" font-family="Times New Roman,serif" font-size="14.00">+15 Chemistry</text>
</g>
<!-- j3727058371&#45;&gt;j2637089461 -->
<g id="edge48" class="edge">
<title>j3727058371&#45;&gt;j2637089461</title>
<path fill="none" stroke="black" d="M534.5,-359.7C534.5,-352.41 534.5,-343.73 534.5,-335.54"/>
<polygon fill="black" stroke="black" points="538,-335.62 534.5,-325.62 531,-335.62 538,-335.62"/>
</g>
<!-- j1620357894 -->
<g id="node44" class="node">
<title>j1620357894</title>
<polygon fill="none" stroke="red" points="1311,-324 1020,-324 1020,-288 1311,-288 1311,-324"/>
<text text-anchor="middle" x="1165.5" y="-302.3" font-family="Times New Roman,serif" font-size="14.00">Коли ти перестала цього боятися, Елеоноро?</text>
</g>
<!-- j2430399076&#45;&gt;j1620357894 -->
<g id="edge49" class="edge">
<title>j2430399076&#45;&gt;j1620357894</title>
<path fill="none" stroke="black" d="M1207.66,-359.7C1201.21,-351.64 1193.42,-341.89 1186.29,-332.98"/>
<polygon fill="black" stroke="black" points="1189.11,-330.91 1180.13,-325.29 1183.64,-335.28 1189.11,-330.91"/>
</g>
<!-- j2113162142 -->
<g id="node45" class="node">
<title>j2113162142</title>
<polygon fill="none" stroke="blue" points="916,-180 153,-180 153,-144 916,-144 916,-180"/>
<text text-anchor="middle" x="534.5" y="-158.3" font-family="Times New Roman,serif" font-size="14.00">А по&#45;друге, воно чогось ХОЧЕ. Воно хоче вирватися назовні. Якщо ми знаємо, чого воно хоче, ми вже на крок попереду.</text>
</g>
<!-- j2637089461&#45;&gt;j2113162142 -->
<g id="edge50" class="edge">
<title>j2637089461&#45;&gt;j2113162142</title>
<path fill="none" stroke="black" d="M534.5,-287.59C534.5,-263.61 534.5,-220.14 534.5,-191.42"/>
<polygon fill="black" stroke="black" points="538,-191.62 534.5,-181.62 531,-191.62 538,-191.62"/>
</g>
<!-- j1911472237 -->
<g id="node46" class="node">
<title>j1911472237</title>
<polygon fill="none" stroke="blue" points="1109.5,-252 999.5,-252 999.5,-216 1109.5,-216 1109.5,-252"/>
<text text-anchor="middle" x="1054.5" y="-230.3" font-family="Times New Roman,serif" font-size="14.00">Я не перестала.</text>
</g>
<!-- j1620357894&#45;&gt;j1911472237 -->
<g id="edge51" class="edge">
<title>j1620357894&#45;&gt;j1911472237</title>
<path fill="none" stroke="black" d="M1137.78,-287.52C1123.76,-278.68 1106.57,-267.84 1091.45,-258.3"/>
<polygon fill="black" stroke="black" points="1093.48,-255.44 1083.15,-253.07 1089.74,-261.36 1093.48,-255.44"/>
</g>
<!-- j2113162142&#45;&gt;Chat ends. -->
<g id="edge52" class="edge">
<title>j2113162142&#45;&gt;Chat ends.</title>
<path fill="none" stroke="black" d="M534.5,-143.59C534.5,-119.61 534.5,-76.14 534.5,-47.42"/>
<polygon fill="black" stroke="black" points="538,-47.62 534.5,-37.62 531,-47.62 538,-47.62"/>
</g>
<!-- j4094890531 -->
<g id="node47" class="node">
<title>j4094890531</title>
<ellipse fill="none" stroke="orange" cx="1026.5" cy="-162" rx="64.19" ry="18"/>
<text text-anchor="middle" x="1026.5" y="-158.3" font-family="Times New Roman,serif" font-size="14.00">+20 Chemistry</text>
</g>
<!-- j1911472237&#45;&gt;j4094890531 -->
<g id="edge53" class="edge">
<title>j1911472237&#45;&gt;j4094890531</title>
<path fill="none" stroke="black" d="M1047.58,-215.7C1044.56,-208.15 1040.95,-199.12 1037.57,-190.68"/>
<polygon fill="black" stroke="black" points="1040.87,-189.49 1033.9,-181.51 1034.37,-192.09 1040.87,-189.49"/>
</g>
<!-- j3350712006 -->
<g id="node48" class="node">
<title>j3350712006</title>
<polygon fill="none" stroke="blue" points="940.5,-108 616.5,-108 616.5,-72 940.5,-72 940.5,-108"/>
<text text-anchor="middle" x="778.5" y="-86.3" font-family="Times New Roman,serif" font-size="14.00">Просто тепер я більше боюся тебе втратити, ясно?</text>
</g>
<!-- j4094890531&#45;&gt;j3350712006 -->
<g id="edge54" class="edge">
<title>j4094890531&#45;&gt;j3350712006</title>
<path fill="none" stroke="black" d="M982.45,-148.57C946.08,-138.3 893.73,-123.52 851.17,-111.51"/>
<polygon fill="black" stroke="black" points="852.33,-108.2 841.75,-108.85 850.42,-114.94 852.33,-108.2"/>
</g>
<!-- j3350712006&#45;&gt;Chat ends. -->
<g id="edge55" class="edge">
<title>j3350712006&#45;&gt;Chat ends.</title>
<path fill="none" stroke="black" d="M717.56,-71.52C676.19,-59.65 622.2,-44.16 583.6,-33.08"/>
<polygon fill="black" stroke="black" points="584.67,-29.75 574.09,-30.36 582.74,-36.48 584.67,-29.75"/>
</g>
</g>
</svg>
