<?xml version="1.0" encoding="UTF-8" standalone="no"?>
<!DOCTYPE svg PUBLIC "-//W3C//DTD SVG 1.1//EN"
 "http://www.w3.org/Graphics/SVG/1.1/DTD/svg11.dtd">
<!-- Generated by graphviz version 7.1.0 (20230121.1956)
 -->
<!-- Pages: 1 -->
<svg width="4987pt" height="1556pt"
 viewBox="0.00 0.00 4987.00 1556.00" xmlns="http://www.w3.org/2000/svg" xmlns:xlink="http://www.w3.org/1999/xlink">
<g id="graph0" class="graph" transform="scale(1 1) rotate(0) translate(4 1552)">
<polygon fill="white" stroke="none" points="-4,4 -4,-1552 4983,-1552 4983,4 -4,4"/>
<!-- EleanorRank4Convo1 begins. -->
<g id="node1" class="node">
<title>EleanorRank4Convo1 begins.</title>
<ellipse fill="none" stroke="orange" cx="3575" cy="-1530" rx="118.88" ry="18"/>
<text text-anchor="middle" x="3575" y="-1526.3" font-family="Times New Roman,serif" font-size="14.00">EleanorRank4Convo1 begins.</text>
</g>
<!-- j2507932441 -->
<g id="node2" class="node">
<title>j2507932441</title>
<polygon fill="none" stroke="blue" points="4097.5,-1476 3052.5,-1476 3052.5,-1440 4097.5,-1440 4097.5,-1476"/>
<text text-anchor="middle" x="3575" y="-1454.3" font-family="Times New Roman,serif" font-size="14.00">Я маю тебе дещо запитати, і я не думаю, що тобі це сподобається. Думаю, в глибині душі ти знаєш, що ця розмова колись повинна була відбутися, враховуючи мій стан.</text>
</g>
<!-- EleanorRank4Convo1 begins.&#45;&gt;j2507932441 -->
<g id="edge1" class="edge">
<title>EleanorRank4Convo1 begins.&#45;&gt;j2507932441</title>
<path fill="none" stroke="black" d="M3575,-1511.7C3575,-1504.41 3575,-1495.73 3575,-1487.54"/>
<polygon fill="black" stroke="black" points="3578.5,-1487.62 3575,-1477.62 3571.5,-1487.62 3578.5,-1487.62"/>
</g>
<!-- j3479558360 -->
<g id="node3" class="node">
<title>j3479558360</title>
<polygon fill="none" stroke="blue" points="3796,-1404 3354,-1404 3354,-1368 3796,-1368 3796,-1404"/>
<text text-anchor="middle" x="3575" y="-1382.3" font-family="Times New Roman,serif" font-size="14.00">Я довіряю тобі, і ти мені подобаєшся, тому я просто скажу це, добре?</text>
</g>
<!-- j2507932441&#45;&gt;j3479558360 -->
<g id="edge2" class="edge">
<title>j2507932441&#45;&gt;j3479558360</title>
<path fill="none" stroke="black" d="M3575,-1439.7C3575,-1432.41 3575,-1423.73 3575,-1415.54"/>
<polygon fill="black" stroke="black" points="3578.5,-1415.62 3575,-1405.62 3571.5,-1415.62 3578.5,-1415.62"/>
</g>
<!-- j2642117635 -->
<g id="node4" class="node">
<title>j2642117635</title>
<polygon fill="none" stroke="blue" points="3742,-1332 3408,-1332 3408,-1296 3742,-1296 3742,-1332"/>
<text text-anchor="middle" x="3575" y="-1310.3" font-family="Times New Roman,serif" font-size="14.00">Я не маю права запитувати, але мені потрібно знати.</text>
</g>
<!-- j3479558360&#45;&gt;j2642117635 -->
<g id="edge3" class="edge">
<title>j3479558360&#45;&gt;j2642117635</title>
<path fill="none" stroke="black" d="M3575,-1367.7C3575,-1360.41 3575,-1351.73 3575,-1343.54"/>
<polygon fill="black" stroke="black" points="3578.5,-1343.62 3575,-1333.62 3571.5,-1343.62 3578.5,-1343.62"/>
</g>
<!-- j1684229469 -->
<g id="node5" class="node">
<title>j1684229469</title>
<polygon fill="none" stroke="blue" points="3971.5,-1260 3178.5,-1260 3178.5,-1224 3971.5,-1224 3971.5,-1260"/>
<text text-anchor="middle" x="3575" y="-1238.3" font-family="Times New Roman,serif" font-size="14.00">Якщо я повністю перетворюся — якщо техногниль повністю забере мене, і я більше не буду тією Елеонорою — ти мене вб’єш?</text>
</g>
<!-- j2642117635&#45;&gt;j1684229469 -->
<g id="edge4" class="edge">
<title>j2642117635&#45;&gt;j1684229469</title>
<path fill="none" stroke="black" d="M3575,-1295.7C3575,-1288.41 3575,-1279.73 3575,-1271.54"/>
<polygon fill="black" stroke="black" points="3578.5,-1271.62 3575,-1261.62 3571.5,-1271.62 3578.5,-1271.62"/>
</g>
<!-- j1678550099 -->
<g id="node6" class="node">
<title>j1678550099</title>
<polygon fill="none" stroke="red" points="3221.5,-1188 3080.5,-1188 3080.5,-1152 3221.5,-1152 3221.5,-1188"/>
<text text-anchor="middle" x="3151" y="-1166.3" font-family="Times New Roman,serif" font-size="14.00">Ти би хотіла, щоб я?</text>
</g>
<!-- j1684229469&#45;&gt;j1678550099 -->
<g id="edge5" class="edge">
<title>j1684229469&#45;&gt;j1678550099</title>
<path fill="none" stroke="black" d="M3469.1,-1223.52C3395.91,-1211.43 3299.99,-1195.6 3232.69,-1184.49"/>
<polygon fill="black" stroke="black" points="3233.65,-1181.1 3223.22,-1182.92 3232.51,-1188 3233.65,-1181.1"/>
</g>
<!-- j3763178261 -->
<g id="node7" class="node">
<title>j3763178261</title>
<polygon fill="none" stroke="red" points="3648.5,-1188 3589.5,-1188 3589.5,-1152 3648.5,-1152 3648.5,-1188"/>
<text text-anchor="middle" x="3619" y="-1166.3" font-family="Times New Roman,serif" font-size="14.00">Звісно.</text>
</g>
<!-- j1684229469&#45;&gt;j3763178261 -->
<g id="edge6" class="edge">
<title>j1684229469&#45;&gt;j3763178261</title>
<path fill="none" stroke="black" d="M3585.88,-1223.7C3590.78,-1215.9 3596.68,-1206.51 3602.14,-1197.83"/>
<polygon fill="black" stroke="black" points="3605.08,-1199.71 3607.44,-1189.39 3599.16,-1195.99 3605.08,-1199.71"/>
</g>
<!-- j4263140116 -->
<g id="node8" class="node">
<title>j4263140116</title>
<polygon fill="none" stroke="red" points="3567,-1188 3505,-1188 3505,-1152 3567,-1152 3567,-1188"/>
<text text-anchor="middle" x="3536" y="-1166.3" font-family="Times New Roman,serif" font-size="14.00">Ніколи.</text>
</g>
<!-- j1684229469&#45;&gt;j4263140116 -->
<g id="edge7" class="edge">
<title>j1684229469&#45;&gt;j4263140116</title>
<path fill="none" stroke="black" d="M3565.36,-1223.7C3561.06,-1215.98 3555.9,-1206.71 3551.11,-1198.11"/>
<polygon fill="black" stroke="black" points="3554.19,-1196.46 3546.27,-1189.43 3548.08,-1199.87 3554.19,-1196.46"/>
</g>
<!-- j4186492875 -->
<g id="node9" class="node">
<title>j4186492875</title>
<polygon fill="none" stroke="red" points="3907.5,-1188 3668.5,-1188 3668.5,-1152 3907.5,-1152 3907.5,-1188"/>
<text text-anchor="middle" x="3788" y="-1166.3" font-family="Times New Roman,serif" font-size="14.00">Я не буду відповідати на це питання.</text>
</g>
<!-- j1684229469&#45;&gt;j4186492875 -->
<g id="edge8" class="edge">
<title>j1684229469&#45;&gt;j4186492875</title>
<path fill="none" stroke="black" d="M3628.2,-1223.52C3657.41,-1213.92 3693.83,-1201.95 3724.51,-1191.86"/>
<polygon fill="black" stroke="black" points="3725.26,-1195.3 3733.67,-1188.85 3723.08,-1188.65 3725.26,-1195.3"/>
</g>
<!-- j3525947573 -->
<g id="node10" class="node">
<title>j3525947573</title>
<polygon fill="none" stroke="blue" points="3394,-1116 2216,-1116 2216,-1080 3394,-1080 3394,-1116"/>
<text text-anchor="middle" x="2805" y="-1094.3" font-family="Times New Roman,serif" font-size="14.00">Гм&#45;м. Гарний початок. Ти переводиш тему, чого хочу я, замість того, щоби розглядати моє життя як можливість змінити особисту мораль. Ти просто даєш мені зрозуміти, що це не для тебе.</text>
</g>
<!-- j1678550099&#45;&gt;j3525947573 -->
<g id="edge9" class="edge">
<title>j1678550099&#45;&gt;j3525947573</title>
<path fill="none" stroke="black" d="M3080.15,-1154.67C3028.9,-1144.3 2959.01,-1130.16 2902.5,-1118.73"/>
<polygon fill="black" stroke="black" points="2903.37,-1115.33 2892.87,-1116.78 2901.98,-1122.19 2903.37,-1115.33"/>
</g>
<!-- j129910392 -->
<g id="node11" class="node">
<title>j129910392</title>
<polygon fill="none" stroke="blue" points="3713,-1116 3623,-1116 3623,-1080 3713,-1080 3713,-1116"/>
<text text-anchor="middle" x="3668" y="-1094.3" font-family="Times New Roman,serif" font-size="14.00">Ого. Добре.</text>
</g>
<!-- j3763178261&#45;&gt;j129910392 -->
<g id="edge10" class="edge">
<title>j3763178261&#45;&gt;j129910392</title>
<path fill="none" stroke="black" d="M3631.11,-1151.7C3636.69,-1143.73 3643.43,-1134.1 3649.62,-1125.26"/>
<polygon fill="black" stroke="black" points="3652.29,-1127.54 3655.16,-1117.34 3646.56,-1123.53 3652.29,-1127.54"/>
</g>
<!-- j1658523444 -->
<g id="node12" class="node">
<title>j1658523444</title>
<polygon fill="none" stroke="blue" points="3499,-1116 3413,-1116 3413,-1080 3499,-1080 3499,-1116"/>
<text text-anchor="middle" x="3456" y="-1094.3" font-family="Times New Roman,serif" font-size="14.00">Гаразд. Ем.</text>
</g>
<!-- j4263140116&#45;&gt;j1658523444 -->
<g id="edge11" class="edge">
<title>j4263140116&#45;&gt;j1658523444</title>
<path fill="none" stroke="black" d="M3516.22,-1151.7C3506.61,-1143.28 3494.88,-1133.02 3484.33,-1123.79"/>
<polygon fill="black" stroke="black" points="3486.79,-1121.29 3476.96,-1117.34 3482.19,-1126.56 3486.79,-1121.29"/>
</g>
<!-- j2461871999 -->
<g id="node13" class="node">
<title>j2461871999</title>
<polygon fill="none" stroke="blue" points="3836.5,-1116 3757.5,-1116 3757.5,-1080 3836.5,-1080 3836.5,-1116"/>
<text text-anchor="middle" x="3797" y="-1094.3" font-family="Times New Roman,serif" font-size="14.00">Як хочеш.</text>
</g>
<!-- j4186492875&#45;&gt;j2461871999 -->
<g id="edge12" class="edge">
<title>j4186492875&#45;&gt;j2461871999</title>
<path fill="none" stroke="black" d="M3790.22,-1151.7C3791.17,-1144.32 3792.3,-1135.52 3793.37,-1127.25"/>
<polygon fill="black" stroke="black" points="3796.8,-1127.97 3794.61,-1117.61 3789.86,-1127.08 3796.8,-1127.97"/>
</g>
<!-- j1395851529 -->
<g id="node14" class="node">
<title>j1395851529</title>
<polygon fill="none" stroke="blue" points="2830.5,-1044 2743.5,-1044 2743.5,-1008 2830.5,-1008 2830.5,-1044"/>
<text text-anchor="middle" x="2787" y="-1022.3" font-family="Times New Roman,serif" font-size="14.00">Це рідкість.</text>
</g>
<!-- j3525947573&#45;&gt;j1395851529 -->
<g id="edge13" class="edge">
<title>j3525947573&#45;&gt;j1395851529</title>
<path fill="none" stroke="black" d="M2800.55,-1079.7C2798.65,-1072.32 2796.39,-1063.52 2794.26,-1055.25"/>
<polygon fill="black" stroke="black" points="2797.66,-1054.38 2791.78,-1045.57 2790.88,-1056.13 2797.66,-1054.38"/>
</g>
<!-- j3603031601 -->
<g id="node15" class="node">
<title>j3603031601</title>
<polygon fill="none" stroke="blue" points="3974.5,-1044 3681.5,-1044 3681.5,-1008 3974.5,-1008 3974.5,-1044"/>
<text text-anchor="middle" x="3828" y="-1022.3" font-family="Times New Roman,serif" font-size="14.00">Без вагань, без боротьби, лише просте «так».</text>
</g>
<!-- j129910392&#45;&gt;j3603031601 -->
<g id="edge14" class="edge">
<title>j129910392&#45;&gt;j3603031601</title>
<path fill="none" stroke="black" d="M3707.96,-1079.52C3729.14,-1070.25 3755.35,-1058.78 3777.88,-1048.93"/>
<polygon fill="black" stroke="black" points="3779.13,-1052.2 3786.88,-1044.99 3776.32,-1045.79 3779.13,-1052.2"/>
</g>
<!-- j129728365 -->
<g id="node16" class="node">
<title>j129728365</title>
<polygon fill="none" stroke="blue" points="3604.5,-1044 3147.5,-1044 3147.5,-1008 3604.5,-1008 3604.5,-1044"/>
<text text-anchor="middle" x="3376" y="-1022.3" font-family="Times New Roman,serif" font-size="14.00">Вибач. Насправді я трохи пригнічена. Я не очікувала на таку відвертість.</text>
</g>
<!-- j1658523444&#45;&gt;j129728365 -->
<g id="edge15" class="edge">
<title>j1658523444&#45;&gt;j129728365</title>
<path fill="none" stroke="black" d="M3436.22,-1079.7C3426.61,-1071.28 3414.88,-1061.02 3404.33,-1051.79"/>
<polygon fill="black" stroke="black" points="3406.79,-1049.29 3396.96,-1045.34 3402.19,-1054.56 3406.79,-1049.29"/>
</g>
<!-- j3098240974 -->
<g id="node17" class="node">
<title>j3098240974</title>
<polygon fill="none" stroke="blue" points="4435,-1044 4283,-1044 4283,-1008 4435,-1008 4435,-1044"/>
<text text-anchor="middle" x="4359" y="-1022.3" font-family="Times New Roman,serif" font-size="14.00">Я більше не питатиму.</text>
</g>
<!-- j2461871999&#45;&gt;j3098240974 -->
<g id="edge16" class="edge">
<title>j2461871999&#45;&gt;j3098240974</title>
<path fill="none" stroke="black" d="M3836.97,-1092.02C3927.06,-1080.8 4147.77,-1053.31 4271.42,-1037.91"/>
<polygon fill="black" stroke="black" points="4271.72,-1041.4 4281.21,-1036.69 4270.85,-1034.45 4271.72,-1041.4"/>
</g>
<!-- j2600776050 -->
<g id="node18" class="node">
<title>j2600776050</title>
<polygon fill="none" stroke="blue" points="2712.5,-972 2069.5,-972 2069.5,-936 2712.5,-936 2712.5,-972"/>
<text text-anchor="middle" x="2391" y="-950.3" font-family="Times New Roman,serif" font-size="14.00">На жаль, це не позбавляє нас від нашої дилеми, тому що це означає, що я ніколи не зможу передумати.</text>
</g>
<!-- j1395851529&#45;&gt;j2600776050 -->
<g id="edge17" class="edge">
<title>j1395851529&#45;&gt;j2600776050</title>
<path fill="none" stroke="black" d="M2743.11,-1017.24C2685.12,-1006.99 2580.98,-988.58 2500.95,-974.44"/>
<polygon fill="black" stroke="black" points="2501.77,-971.03 2491.31,-972.73 2500.55,-977.92 2501.77,-971.03"/>
</g>
<!-- j490661605 -->
<g id="node19" class="node">
<title>j490661605</title>
<polygon fill="none" stroke="blue" points="4323.5,-972 3484.5,-972 3484.5,-936 4323.5,-936 4323.5,-972"/>
<text text-anchor="middle" x="3904" y="-950.3" font-family="Times New Roman,serif" font-size="14.00">Дякую. Ти для мене багато в чому загадка, але тепер я знаю, що ти без вагань пустиш мені кулю в голову, а такі речі важливі на роботі.</text>
</g>
<!-- j3603031601&#45;&gt;j490661605 -->
<g id="edge18" class="edge">
<title>j3603031601&#45;&gt;j490661605</title>
<path fill="none" stroke="black" d="M3846.79,-1007.7C3855.83,-999.37 3866.84,-989.22 3876.78,-980.07"/>
<polygon fill="black" stroke="black" points="3879.07,-982.72 3884.05,-973.37 3874.33,-977.57 3879.07,-982.72"/>
</g>
<!-- j2335564575 -->
<g id="node20" class="node">
<title>j2335564575</title>
<polygon fill="none" stroke="blue" points="3397,-972 3205,-972 3205,-936 3397,-936 3397,-972"/>
<text text-anchor="middle" x="3301" y="-950.3" font-family="Times New Roman,serif" font-size="14.00">Ти дозволиш монстру жити?</text>
</g>
<!-- j129728365&#45;&gt;j2335564575 -->
<g id="edge19" class="edge">
<title>j129728365&#45;&gt;j2335564575</title>
<path fill="none" stroke="black" d="M3357.46,-1007.7C3348.54,-999.37 3337.67,-989.22 3327.86,-980.07"/>
<polygon fill="black" stroke="black" points="3330.39,-977.64 3320.69,-973.38 3325.61,-982.76 3330.39,-977.64"/>
</g>
<!-- j1226123619 -->
<g id="node21" class="node">
<title>j1226123619</title>
<polygon fill="none" stroke="blue" points="4979,-972 4377,-972 4377,-936 4979,-936 4979,-972"/>
<text text-anchor="middle" x="4678" y="-950.3" font-family="Times New Roman,serif" font-size="14.00">Гадаю, тобі доведеться почекати, поки це станеться, щоб побачити, як ти відреагуєш, чи не так?</text>
</g>
<!-- j3098240974&#45;&gt;j1226123619 -->
<g id="edge20" class="edge">
<title>j3098240974&#45;&gt;j1226123619</title>
<path fill="none" stroke="black" d="M4435.41,-1008.23C4481.07,-998.21 4539.33,-985.43 4587.31,-974.9"/>
<polygon fill="black" stroke="black" points="4587.83,-978.37 4596.85,-972.81 4586.33,-971.53 4587.83,-978.37"/>
</g>
<!-- j3925961955 -->
<g id="node22" class="node">
<title>j3925961955</title>
<polygon fill="none" stroke="blue" points="2468.5,-900 1329.5,-900 1329.5,-864 2468.5,-864 2468.5,-900"/>
<text text-anchor="middle" x="1899" y="-878.3" font-family="Times New Roman,serif" font-size="14.00">Скажімо, я скажу «так», я би хотіла, щоби ти покінчив зі мною швидко і чисто, замість того, щоб я продовжувала жити, як хижа потвора. Уявімо, що це те, чого Елеонора хоче ЗАРАЗ.</text>
</g>
<!-- j2600776050&#45;&gt;j3925961955 -->
<g id="edge21" class="edge">
<title>j2600776050&#45;&gt;j3925961955</title>
<path fill="none" stroke="black" d="M2268.12,-935.52C2196.51,-925.33 2106.15,-912.47 2032.76,-902.03"/>
<polygon fill="black" stroke="black" points="2033.49,-898.6 2023.09,-900.66 2032.5,-905.53 2033.49,-898.6"/>
</g>
<!-- j2747508858 -->
<g id="node23" class="node">
<title>j2747508858</title>
<polygon fill="none" stroke="blue" points="4570,-900 4100,-900 4100,-864 4570,-864 4570,-900"/>
<text text-anchor="middle" x="4335" y="-878.3" font-family="Times New Roman,serif" font-size="14.00">Аааа я щойно відчула, як техногниль у моїх клітинах тривожно затремтіла.</text>
</g>
<!-- j490661605&#45;&gt;j2747508858 -->
<g id="edge22" class="edge">
<title>j490661605&#45;&gt;j2747508858</title>
<path fill="none" stroke="black" d="M4011.65,-935.52C4073.99,-925.39 4152.56,-912.63 4216.64,-902.22"/>
<polygon fill="black" stroke="black" points="4216.8,-905.74 4226.11,-900.69 4215.68,-898.83 4216.8,-905.74"/>
</g>
<!-- j239512322 -->
<g id="node24" class="node">
<title>j239512322</title>
<polygon fill="none" stroke="blue" points="4081.5,-900 2486.5,-900 2486.5,-864 4081.5,-864 4081.5,-900"/>
<text text-anchor="middle" x="3284" y="-878.3" font-family="Times New Roman,serif" font-size="14.00">Вибач, вибач, просто я живу з Летті над вухом, яка репетує, що я не заслуговую бути тут, а Артур дивиться на мене, як на безнадійну жертву, і рахує дні до того моменту, коли йому доведеться це зробити, і я просто не очікувала, що ти скажеш, що все гаразд.</text>
</g>
<!-- j2335564575&#45;&gt;j239512322 -->
<g id="edge23" class="edge">
<title>j2335564575&#45;&gt;j239512322</title>
<path fill="none" stroke="black" d="M3296.8,-935.7C3295.01,-928.32 3292.87,-919.52 3290.86,-911.25"/>
<polygon fill="black" stroke="black" points="3294.27,-910.47 3288.51,-901.58 3287.47,-912.12 3294.27,-910.47"/>
</g>
<!-- j3641537860 -->
<g id="node25" class="node">
<title>j3641537860</title>
<polygon fill="none" stroke="blue" points="4803.5,-900 4588.5,-900 4588.5,-864 4803.5,-864 4803.5,-900"/>
<text text-anchor="middle" x="4696" y="-878.3" font-family="Times New Roman,serif" font-size="14.00">Ти смертельна маленька загадка.</text>
</g>
<!-- j1226123619&#45;&gt;j3641537860 -->
<g id="edge24" class="edge">
<title>j1226123619&#45;&gt;j3641537860</title>
<path fill="none" stroke="black" d="M4682.45,-935.7C4684.35,-928.32 4686.61,-919.52 4688.74,-911.25"/>
<polygon fill="black" stroke="black" points="4692.12,-912.13 4691.22,-901.57 4685.34,-910.38 4692.12,-912.13"/>
</g>
<!-- j3217580837 -->
<g id="node26" class="node">
<title>j3217580837</title>
<polygon fill="none" stroke="blue" points="2359,-828 1499,-828 1499,-792 2359,-792 2359,-828"/>
<text text-anchor="middle" x="1929" y="-806.3" font-family="Times New Roman,serif" font-size="14.00">Але що, як хижа потвора — це я, тільки ще більше? Якщо після того, як моя людяність згорить у тиглі техногнилі, я не ЗАХОЧУ вмирати?</text>
</g>
<!-- j3925961955&#45;&gt;j3217580837 -->
<g id="edge25" class="edge">
<title>j3925961955&#45;&gt;j3217580837</title>
<path fill="none" stroke="black" d="M1906.42,-863.7C1909.65,-856.15 1913.52,-847.12 1917.14,-838.68"/>
<polygon fill="black" stroke="black" points="1920.35,-840.07 1921.07,-829.5 1913.92,-837.31 1920.35,-840.07"/>
</g>
<!-- j2370587322 -->
<g id="node27" class="node">
<title>j2370587322</title>
<polygon fill="none" stroke="blue" points="4647.5,-828 3670.5,-828 3670.5,-792 4647.5,-792 4647.5,-828"/>
<text text-anchor="middle" x="4159" y="-806.3" font-family="Times New Roman,serif" font-size="14.00">Думаю, відтепер віна буде поводитися трохи краще. Немає нічого кращого, ніж погроза господаря, щоби нагнати на паразита страху перед Солом, чи не так?</text>
</g>
<!-- j2747508858&#45;&gt;j2370587322 -->
<g id="edge26" class="edge">
<title>j2747508858&#45;&gt;j2370587322</title>
<path fill="none" stroke="black" d="M4291.04,-863.52C4267.43,-854.13 4238.13,-842.47 4213.12,-832.53"/>
<polygon fill="black" stroke="black" points="4214.69,-829.38 4204.11,-828.94 4212.11,-835.89 4214.69,-829.38"/>
</g>
<!-- j2162968250 -->
<g id="node28" class="node">
<title>j2162968250</title>
<ellipse fill="none" stroke="orange" cx="3284" cy="-810" rx="64.19" ry="18"/>
<text text-anchor="middle" x="3284" y="-806.3" font-family="Times New Roman,serif" font-size="14.00">+20 Chemistry</text>
</g>
<!-- j239512322&#45;&gt;j2162968250 -->
<g id="edge27" class="edge">
<title>j239512322&#45;&gt;j2162968250</title>
<path fill="none" stroke="black" d="M3284,-863.7C3284,-856.41 3284,-847.73 3284,-839.54"/>
<polygon fill="black" stroke="black" points="3287.5,-839.62 3284,-829.62 3280.5,-839.62 3287.5,-839.62"/>
</g>
<!-- j97472297 -->
<g id="node29" class="node">
<title>j97472297</title>
<polygon fill="none" stroke="blue" points="4726.5,-828 4665.5,-828 4665.5,-792 4726.5,-792 4726.5,-828"/>
<text text-anchor="middle" x="4696" y="-806.3" font-family="Times New Roman,serif" font-size="14.00">І я теж.</text>
</g>
<!-- j3641537860&#45;&gt;j97472297 -->
<g id="edge28" class="edge">
<title>j3641537860&#45;&gt;j97472297</title>
<path fill="none" stroke="black" d="M4696,-863.7C4696,-856.41 4696,-847.73 4696,-839.54"/>
<polygon fill="black" stroke="black" points="4699.5,-839.62 4696,-829.62 4692.5,-839.62 4699.5,-839.62"/>
</g>
<!-- j529754422 -->
<g id="node30" class="node">
<title>j529754422</title>
<polygon fill="none" stroke="blue" points="2153.5,-756 1720.5,-756 1720.5,-720 2153.5,-720 2153.5,-756"/>
<text text-anchor="middle" x="1937" y="-734.3" font-family="Times New Roman,serif" font-size="14.00">Тому що так я відчуваю себе живою, мандрівниче. Потужно живою.</text>
</g>
<!-- j3217580837&#45;&gt;j529754422 -->
<g id="edge29" class="edge">
<title>j3217580837&#45;&gt;j529754422</title>
<path fill="none" stroke="black" d="M1930.98,-791.7C1931.81,-784.41 1932.8,-775.73 1933.74,-767.54"/>
<polygon fill="black" stroke="black" points="1937.22,-767.94 1934.87,-757.61 1930.26,-767.15 1937.22,-767.94"/>
</g>
<!-- j2864742878 -->
<g id="node31" class="node">
<title>j2864742878</title>
<ellipse fill="none" stroke="orange" cx="4159" cy="-738" rx="142.97" ry="18"/>
<text text-anchor="middle" x="4159" y="-734.3" font-family="Times New Roman,serif" font-size="14.00">Boolean EleanorNoDate is now true.</text>
</g>
<!-- j2370587322&#45;&gt;j2864742878 -->
<g id="edge30" class="edge">
<title>j2370587322&#45;&gt;j2864742878</title>
<path fill="none" stroke="black" d="M4159,-791.7C4159,-784.41 4159,-775.73 4159,-767.54"/>
<polygon fill="black" stroke="black" points="4162.5,-767.62 4159,-757.62 4155.5,-767.62 4162.5,-767.62"/>
</g>
<!-- j470486906 -->
<g id="node32" class="node">
<title>j470486906</title>
<polygon fill="none" stroke="blue" points="3447,-756 3121,-756 3121,-720 3447,-720 3447,-756"/>
<text text-anchor="middle" x="3284" y="-734.3" font-family="Times New Roman,serif" font-size="14.00">Плачу. Сльози щастя. Поговоримо пізніше. Прошу</text>
</g>
<!-- j2162968250&#45;&gt;j470486906 -->
<g id="edge31" class="edge">
<title>j2162968250&#45;&gt;j470486906</title>
<path fill="none" stroke="black" d="M3284,-791.7C3284,-784.41 3284,-775.73 3284,-767.54"/>
<polygon fill="black" stroke="black" points="3287.5,-767.62 3284,-757.62 3280.5,-767.62 3287.5,-767.62"/>
</g>
<!-- j97472297&#45;&gt;j2864742878 -->
<g id="edge32" class="edge">
<title>j97472297&#45;&gt;j2864742878</title>
<path fill="none" stroke="black" d="M4665.23,-794.57C4662.48,-793.6 4659.71,-792.72 4657,-792 4542.78,-761.79 4409.5,-748.72 4309.58,-743.1"/>
<polygon fill="black" stroke="black" points="4309.86,-739.61 4299.69,-742.57 4309.48,-746.6 4309.86,-739.61"/>
</g>
<!-- j1308272969 -->
<g id="node33" class="node">
<title>j1308272969</title>
<polygon fill="none" stroke="red" points="2516,-684 2354,-684 2354,-648 2516,-648 2516,-684"/>
<text text-anchor="middle" x="2435" y="-662.3" font-family="Times New Roman,serif" font-size="14.00">Я б все одно зробив це.</text>
</g>
<!-- j529754422&#45;&gt;j1308272969 -->
<g id="edge33" class="edge">
<title>j529754422&#45;&gt;j1308272969</title>
<path fill="none" stroke="black" d="M2061.38,-719.52C2148.74,-707.24 2263.68,-691.08 2342.88,-679.95"/>
<polygon fill="black" stroke="black" points="2342.9,-683.48 2352.31,-678.62 2341.92,-676.55 2342.9,-683.48"/>
</g>
<!-- j1035087151 -->
<g id="node34" class="node">
<title>j1035087151</title>
<polygon fill="none" stroke="red" points="2919.5,-684 2714.5,-684 2714.5,-648 2919.5,-648 2919.5,-684"/>
<text text-anchor="middle" x="2817" y="-662.3" font-family="Times New Roman,serif" font-size="14.00">Зрозуміло. Я цього не зроблю.</text>
</g>
<!-- j529754422&#45;&gt;j1035087151 -->
<g id="edge34" class="edge">
<title>j529754422&#45;&gt;j1035087151</title>
<path fill="none" stroke="black" d="M2153.96,-719.74C2327.59,-705.93 2564.22,-687.11 2702.8,-676.08"/>
<polygon fill="black" stroke="black" points="2703.05,-679.58 2712.74,-675.29 2702.49,-672.6 2703.05,-679.58"/>
</g>
<!-- j2825262399 -->
<g id="node35" class="node">
<title>j2825262399</title>
<polygon fill="none" stroke="red" points="1401.5,-684 960.5,-684 960.5,-648 1401.5,-648 1401.5,-684"/>
<text text-anchor="middle" x="1181" y="-662.3" font-family="Times New Roman,serif" font-size="14.00">Це буде залежати від того, скільки ще людей опиниться під загрозою.</text>
</g>
<!-- j529754422&#45;&gt;j2825262399 -->
<g id="edge35" class="edge">
<title>j529754422&#45;&gt;j2825262399</title>
<path fill="none" stroke="black" d="M1748.18,-719.52C1636.33,-709.16 1494.72,-696.05 1380.97,-685.52"/>
<polygon fill="black" stroke="black" points="1381.49,-682.05 1371.21,-684.61 1380.85,-689.02 1381.49,-682.05"/>
</g>
<!-- j3507632344 -->
<g id="node36" class="node">
<title>j3507632344</title>
<polygon fill="none" stroke="red" points="2098.5,-684 1775.5,-684 1775.5,-648 2098.5,-648 2098.5,-684"/>
<text text-anchor="middle" x="1937" y="-662.3" font-family="Times New Roman,serif" font-size="14.00">Ти не відповіла на запитання. Ти би хотіла, щоб я?</text>
</g>
<!-- j529754422&#45;&gt;j3507632344 -->
<g id="edge36" class="edge">
<title>j529754422&#45;&gt;j3507632344</title>
<path fill="none" stroke="black" d="M1937,-719.7C1937,-712.41 1937,-703.73 1937,-695.54"/>
<polygon fill="black" stroke="black" points="1940.5,-695.62 1937,-685.62 1933.5,-695.62 1940.5,-695.62"/>
</g>
<!-- Chat ends. -->
<g id="node37" class="node">
<title>Chat ends.</title>
<ellipse fill="none" stroke="orange" cx="3073" cy="-18" rx="50.09" ry="18"/>
<text text-anchor="middle" x="3073" y="-14.3" font-family="Times New Roman,serif" font-size="14.00">Chat ends.</text>
</g>
<!-- j2864742878&#45;&gt;Chat ends. -->
<g id="edge37" class="edge">
<title>j2864742878&#45;&gt;Chat ends.</title>
<path fill="none" stroke="black" d="M4157.38,-719.53C4155.04,-692.75 4151,-639.94 4151,-595 4151,-595 4151,-595 4151,-161 4151,-57.73 3363.38,-27.26 3134.61,-20.58"/>
<polygon fill="black" stroke="black" points="3134.8,-17.09 3124.7,-20.3 3134.6,-24.08 3134.8,-17.09"/>
</g>
<!-- Chat ends. Next chat will be EleanorMonster. -->
<g id="node38" class="node">
<title>Chat ends. Next chat will be EleanorMonster.</title>
<ellipse fill="none" stroke="orange" cx="3284" cy="-666" rx="174.67" ry="18"/>
<text text-anchor="middle" x="3284" y="-662.3" font-family="Times New Roman,serif" font-size="14.00">Chat ends. Next chat will be EleanorMonster.</text>
</g>
<!-- j470486906&#45;&gt;Chat ends. Next chat will be EleanorMonster. -->
<g id="edge38" class="edge">
<title>j470486906&#45;&gt;Chat ends. Next chat will be EleanorMonster.</title>
<path fill="none" stroke="black" d="M3284,-719.7C3284,-712.41 3284,-703.73 3284,-695.54"/>
<polygon fill="black" stroke="black" points="3287.5,-695.62 3284,-685.62 3280.5,-695.62 3287.5,-695.62"/>
</g>
<!-- j2960662770 -->
<g id="node39" class="node">
<title>j2960662770</title>
<polygon fill="none" stroke="blue" points="3019.5,-612 2294.5,-612 2294.5,-576 3019.5,-576 3019.5,-612"/>
<text text-anchor="middle" x="2657" y="-590.3" font-family="Times New Roman,serif" font-size="14.00">Гаразд. Тож ми приносимо в жертву щасливу, самодостатню Елеонору на вівтарі Елеонори, якою вона була раніше?</text>
</g>
<!-- j1308272969&#45;&gt;j2960662770 -->
<g id="edge39" class="edge">
<title>j1308272969&#45;&gt;j2960662770</title>
<path fill="none" stroke="black" d="M2490.45,-647.52C2521.02,-637.88 2559.18,-625.84 2591.25,-615.73"/>
<polygon fill="black" stroke="black" points="2591.95,-619.18 2600.43,-612.84 2589.84,-612.51 2591.95,-619.18"/>
</g>
<!-- j2286837823 -->
<g id="node40" class="node">
<title>j2286837823</title>
<polygon fill="none" stroke="blue" points="3953,-612 3183,-612 3183,-576 3953,-576 3953,-612"/>
<text text-anchor="middle" x="3568" y="-590.3" font-family="Times New Roman,serif" font-size="14.00">О, то все, що мені потрібно зробити, це підморгнути тобі своїми великими красивими очима, і твоя рішучість зруйнується?</text>
</g>
<!-- j1035087151&#45;&gt;j2286837823 -->
<g id="edge40" class="edge">
<title>j1035087151&#45;&gt;j2286837823</title>
<path fill="none" stroke="black" d="M2919.85,-655.41C3035.15,-644.67 3224.87,-626.98 3369.33,-613.52"/>
<polygon fill="black" stroke="black" points="3369.39,-617.03 3379.02,-612.61 3368.74,-610.06 3369.39,-617.03"/>
</g>
<!-- j488854771 -->
<g id="node41" class="node">
<title>j488854771</title>
<polygon fill="none" stroke="blue" points="1648,-612 0,-612 0,-576 1648,-576 1648,-612"/>
<text text-anchor="middle" x="824" y="-590.3" font-family="Times New Roman,serif" font-size="14.00">А, точно. У цьому сценарії я — нелюдський монстр, який, імовірно, волею&#45;неволею вбиває людей. Ти можеш зарахувати мене до категорії «хижих тварин», разом зі скаженими собаками, голодними ведмедями тощо, а це означає, що немає ніяких моральних проблем.</text>
</g>
<!-- j2825262399&#45;&gt;j488854771 -->
<g id="edge41" class="edge">
<title>j2825262399&#45;&gt;j488854771</title>
<path fill="none" stroke="black" d="M1091.83,-647.52C1040.84,-637.52 976.73,-624.95 924.02,-614.61"/>
<polygon fill="black" stroke="black" points="924.93,-611.22 914.44,-612.73 923.58,-618.09 924.93,-611.22"/>
</g>
<!-- j2964525990 -->
<g id="node42" class="node">
<title>j2964525990</title>
<polygon fill="none" stroke="blue" points="2208,-612 1666,-612 1666,-576 2208,-576 2208,-612"/>
<text text-anchor="middle" x="1937" y="-590.3" font-family="Times New Roman,serif" font-size="14.00">… Я не знаю. Іноді я так думаю. Я відчуваю себе архетипним персонажем мелодрами.</text>
</g>
<!-- j3507632344&#45;&gt;j2964525990 -->
<g id="edge42" class="edge">
<title>j3507632344&#45;&gt;j2964525990</title>
<path fill="none" stroke="black" d="M1937,-647.7C1937,-640.41 1937,-631.73 1937,-623.54"/>
<polygon fill="black" stroke="black" points="1940.5,-623.62 1937,-613.62 1933.5,-623.62 1940.5,-623.62"/>
</g>
<!-- j412294241 -->
<g id="node43" class="node">
<title>j412294241</title>
<polygon fill="none" stroke="blue" points="2932,-540 2434,-540 2434,-504 2932,-504 2932,-540"/>
<text text-anchor="middle" x="2683" y="-518.3" font-family="Times New Roman,serif" font-size="14.00">Я можу змінити свою думку та вирішити жити, але ти не можеш змінити свою?</text>
</g>
<!-- j2960662770&#45;&gt;j412294241 -->
<g id="edge43" class="edge">
<title>j2960662770&#45;&gt;j412294241</title>
<path fill="none" stroke="black" d="M2663.43,-575.7C2666.23,-568.15 2669.58,-559.12 2672.72,-550.68"/>
<polygon fill="black" stroke="black" points="2675.92,-552.12 2676.12,-541.52 2669.36,-549.68 2675.92,-552.12"/>
</g>
<!-- j3347394163 -->
<g id="node44" class="node">
<title>j3347394163</title>
<polygon fill="none" stroke="blue" points="3782,-540 3444,-540 3444,-504 3782,-504 3782,-540"/>
<text text-anchor="middle" x="3613" y="-518.3" font-family="Times New Roman,serif" font-size="14.00">Яким безстрашним вбивцею вампірів ти був би тоді?</text>
</g>
<!-- j2286837823&#45;&gt;j3347394163 -->
<g id="edge44" class="edge">
<title>j2286837823&#45;&gt;j3347394163</title>
<path fill="none" stroke="black" d="M3579.12,-575.7C3584.19,-567.81 3590.3,-558.3 3595.93,-549.55"/>
<polygon fill="black" stroke="black" points="3598.72,-551.68 3601.19,-541.38 3592.83,-547.9 3598.72,-551.68"/>
</g>
<!-- j3120899819 -->
<g id="node45" class="node">
<title>j3120899819</title>
<polygon fill="none" stroke="blue" points="882,-540 766,-540 766,-504 882,-504 882,-540"/>
<text text-anchor="middle" x="824" y="-518.3" font-family="Times New Roman,serif" font-size="14.00">Тож скажи мені.</text>
</g>
<!-- j488854771&#45;&gt;j3120899819 -->
<g id="edge45" class="edge">
<title>j488854771&#45;&gt;j3120899819</title>
<path fill="none" stroke="black" d="M824,-575.7C824,-568.41 824,-559.73 824,-551.54"/>
<polygon fill="black" stroke="black" points="827.5,-551.62 824,-541.62 820.5,-551.62 827.5,-551.62"/>
</g>
<!-- j1717078170 -->
<g id="node46" class="node">
<title>j1717078170</title>
<polygon fill="none" stroke="blue" points="2331,-540 1455,-540 1455,-504 2331,-504 2331,-540"/>
<text text-anchor="middle" x="1893" y="-518.3" font-family="Times New Roman,serif" font-size="14.00">«О ні, нещасна дівчина, яку ми колись любили, стала сексуальним вампіром. Уб’ємо її, щоб у смерті вона знову стала чистою та невинною.»</text>
</g>
<!-- j2964525990&#45;&gt;j1717078170 -->
<g id="edge46" class="edge">
<title>j2964525990&#45;&gt;j1717078170</title>
<path fill="none" stroke="black" d="M1926.12,-575.7C1921.22,-567.9 1915.32,-558.51 1909.86,-549.83"/>
<polygon fill="black" stroke="black" points="1912.84,-547.99 1904.56,-541.39 1906.92,-551.71 1912.84,-547.99"/>
</g>
<!-- j3201859909 -->
<g id="node47" class="node">
<title>j3201859909</title>
<polygon fill="none" stroke="blue" points="3175,-468 2757,-468 2757,-432 3175,-432 3175,-468"/>
<text text-anchor="middle" x="2966" y="-446.3" font-family="Times New Roman,serif" font-size="14.00">Я не повинна дивуватися. Це фінал, до якого тебе готують історії.</text>
</g>
<!-- j412294241&#45;&gt;j3201859909 -->
<g id="edge47" class="edge">
<title>j412294241&#45;&gt;j3201859909</title>
<path fill="none" stroke="black" d="M2753.68,-503.52C2793.42,-493.69 2843.21,-481.37 2884.58,-471.14"/>
<polygon fill="black" stroke="black" points="2885.39,-474.54 2894.26,-468.75 2883.71,-467.75 2885.39,-474.54"/>
</g>
<!-- j1302217423 -->
<g id="node48" class="node">
<title>j1302217423</title>
<polygon fill="none" stroke="blue" points="4077.5,-468 3326.5,-468 3326.5,-432 4077.5,-432 4077.5,-468"/>
<text text-anchor="middle" x="3702" y="-446.3" font-family="Times New Roman,serif" font-size="14.00">Я тобі скажу. Ти з тих, хто помирає посеред фільму, тому що не вистачило духу зробити те, що Потрібно Було Зробити.</text>
</g>
<!-- j3347394163&#45;&gt;j1302217423 -->
<g id="edge48" class="edge">
<title>j3347394163&#45;&gt;j1302217423</title>
<path fill="none" stroke="black" d="M3635,-503.7C3645.91,-495.11 3659.27,-484.61 3671.18,-475.24"/>
<polygon fill="black" stroke="black" points="3673.06,-478.22 3678.75,-469.28 3668.73,-472.71 3673.06,-478.22"/>
</g>
<!-- j500159320 -->
<g id="node49" class="node">
<title>j500159320</title>
<polygon fill="none" stroke="blue" points="1086,-468 562,-468 562,-432 1086,-432 1086,-468"/>
<text text-anchor="middle" x="824" y="-446.3" font-family="Times New Roman,serif" font-size="14.00">Ти чекатимеш, поки я вб’ю свою першу жертву, щоби всадити мені кулю в голову?</text>
</g>
<!-- j3120899819&#45;&gt;j500159320 -->
<g id="edge49" class="edge">
<title>j3120899819&#45;&gt;j500159320</title>
<path fill="none" stroke="black" d="M824,-503.7C824,-496.41 824,-487.73 824,-479.54"/>
<polygon fill="black" stroke="black" points="827.5,-479.62 824,-469.62 820.5,-479.62 827.5,-479.62"/>
</g>
<!-- j545783294 -->
<g id="node50" class="node">
<title>j545783294</title>
<ellipse fill="none" stroke="orange" cx="1871" cy="-450" rx="175.47" ry="18"/>
<text text-anchor="middle" x="1871" y="-446.3" font-family="Times New Roman,serif" font-size="14.00">Boolean EleanorArthurNightmare is now true.</text>
</g>
<!-- j1717078170&#45;&gt;j545783294 -->
<g id="edge50" class="edge">
<title>j1717078170&#45;&gt;j545783294</title>
<path fill="none" stroke="black" d="M1887.56,-503.7C1885.22,-496.24 1882.42,-487.32 1879.79,-478.97"/>
<polygon fill="black" stroke="black" points="1883.17,-478.04 1876.83,-469.55 1876.49,-480.14 1883.17,-478.04"/>
</g>
<!-- j819006864 -->
<g id="node51" class="node">
<title>j819006864</title>
<polygon fill="none" stroke="blue" points="3740,-396 2864,-396 2864,-360 3740,-360 3740,-396"/>
<text text-anchor="middle" x="3302" y="-374.3" font-family="Times New Roman,serif" font-size="14.00">«О ні, нещасна дівчина, яку ми колись любили, стала сексуальним вампіром. Уб’ємо її, щоб у смерті вона знову стала чистою та невинною.»</text>
</g>
<!-- j3201859909&#45;&gt;j819006864 -->
<g id="edge51" class="edge">
<title>j3201859909&#45;&gt;j819006864</title>
<path fill="none" stroke="black" d="M3049.92,-431.52C3097.72,-421.56 3157.75,-409.05 3207.24,-398.74"/>
<polygon fill="black" stroke="black" points="3207.72,-402.22 3216.79,-396.75 3206.29,-395.36 3207.72,-402.22"/>
</g>
<!-- j524044546 -->
<g id="node52" class="node">
<title>j524044546</title>
<polygon fill="none" stroke="blue" points="4100.5,-396 3795.5,-396 3795.5,-360 4100.5,-360 4100.5,-396"/>
<text text-anchor="middle" x="3948" y="-374.3" font-family="Times New Roman,serif" font-size="14.00">Ти станеш попередженням для інших, саме так!</text>
</g>
<!-- j1302217423&#45;&gt;j524044546 -->
<g id="edge52" class="edge">
<title>j1302217423&#45;&gt;j524044546</title>
<path fill="none" stroke="black" d="M3763.44,-431.52C3797.62,-421.79 3840.34,-409.64 3876.07,-399.47"/>
<polygon fill="black" stroke="black" points="3876.8,-402.9 3885.46,-396.8 3874.88,-396.17 3876.8,-402.9"/>
</g>
<!-- j4198726665 -->
<g id="node53" class="node">
<title>j4198726665</title>
<polygon fill="none" stroke="blue" points="1348.5,-252 845.5,-252 845.5,-216 1348.5,-216 1348.5,-252"/>
<text text-anchor="middle" x="1097" y="-230.3" font-family="Times New Roman,serif" font-size="14.00">Бо якщо ти цього не зробиш, яка впевненість у тому, що я становлю небезпеку?</text>
</g>
<!-- j500159320&#45;&gt;j4198726665 -->
<g id="edge53" class="edge">
<title>j500159320&#45;&gt;j4198726665</title>
<path fill="none" stroke="black" d="M823.41,-431.76C823.64,-412.35 826.78,-380.81 843,-360 884.93,-306.19 956.06,-273.98 1012.4,-255.77"/>
<polygon fill="black" stroke="black" points="1013.16,-259.2 1021.66,-252.88 1011.07,-252.52 1013.16,-259.2"/>
</g>
<!-- j3564956817 -->
<g id="node54" class="node">
<title>j3564956817</title>
<polygon fill="none" stroke="blue" points="2846,-396 852,-396 852,-360 2846,-360 2846,-396"/>
<text text-anchor="middle" x="1849" y="-374.3" font-family="Times New Roman,serif" font-size="14.00">Я була одержима цим, насправді. Мені снилися кошмари, в яких я прокидалася на своєму дивані, а наді мною стояв Артур зі сльозами на очах і мечем у руці, і він видавав якісь репліки про те, що Елеонора була його сестрою, але тепер Елеонора ПОМЕРЛА, і він повинен був це зробити, навіть якщо це вбивало його, бубубу.</text>
</g>
<!-- j545783294&#45;&gt;j3564956817 -->
<g id="edge54" class="edge">
<title>j545783294&#45;&gt;j3564956817</title>
<path fill="none" stroke="black" d="M1865.56,-431.7C1863.22,-424.24 1860.42,-415.32 1857.79,-406.97"/>
<polygon fill="black" stroke="black" points="1861.17,-406.04 1854.83,-397.55 1854.49,-408.14 1861.17,-406.04"/>
</g>
<!-- j2828660154 -->
<g id="node55" class="node">
<title>j2828660154</title>
<ellipse fill="none" stroke="orange" cx="3187" cy="-306" rx="175.47" ry="18"/>
<text text-anchor="middle" x="3187" y="-302.3" font-family="Times New Roman,serif" font-size="14.00">Boolean EleanorArthurNightmare is now true.</text>
</g>
<!-- j819006864&#45;&gt;j2828660154 -->
<g id="edge55" class="edge">
<title>j819006864&#45;&gt;j2828660154</title>
<path fill="none" stroke="black" d="M3273.28,-359.52C3258.51,-350.53 3240.34,-339.47 3224.48,-329.81"/>
<polygon fill="black" stroke="black" points="3226.61,-327.02 3216.25,-324.81 3222.97,-333 3226.61,-327.02"/>
</g>
<!-- j482722804 -->
<g id="node56" class="node">
<title>j482722804</title>
<polygon fill="none" stroke="blue" points="3976.5,-180 3577.5,-180 3577.5,-144 3976.5,-144 3976.5,-180"/>
<text text-anchor="middle" x="3777" y="-158.3" font-family="Times New Roman,serif" font-size="14.00">Вибач. Я не була зовсім чесною з тобою. Поговоримо пізніше.</text>
</g>
<!-- j524044546&#45;&gt;j482722804 -->
<g id="edge56" class="edge">
<title>j524044546&#45;&gt;j482722804</title>
<path fill="none" stroke="black" d="M3980.45,-359.7C4031.98,-330.06 4122.45,-267.74 4079,-216 4065.1,-199.45 4029.65,-188.07 3987.71,-180.24"/>
<polygon fill="black" stroke="black" points="3988.57,-176.84 3978.11,-178.54 3987.35,-183.73 3988.57,-176.84"/>
</g>
<!-- j4198726665&#45;&gt;Chat ends. -->
<g id="edge57" class="edge">
<title>j4198726665&#45;&gt;Chat ends.</title>
<path fill="none" stroke="black" d="M1232.45,-215.51C1476.83,-184.28 2007.89,-117.89 2457,-72 2660.69,-51.19 2902.84,-31.96 3013.04,-23.52"/>
<polygon fill="black" stroke="black" points="3013.03,-27.03 3022.73,-22.78 3012.49,-20.05 3013.03,-27.03"/>
</g>
<!-- j1707520412 -->
<g id="node57" class="node">
<title>j1707520412</title>
<polygon fill="none" stroke="blue" points="2189,-324 1509,-324 1509,-288 2189,-288 2189,-324"/>
<text text-anchor="middle" x="1849" y="-302.3" font-family="Times New Roman,serif" font-size="14.00">І коли він встромляє лезо мені між ребер, я кричу: «Елеонора ТУТ, тупий виродку!», але він мене вже не чує.</text>
</g>
<!-- j3564956817&#45;&gt;j1707520412 -->
<g id="edge58" class="edge">
<title>j3564956817&#45;&gt;j1707520412</title>
<path fill="none" stroke="black" d="M1849,-359.7C1849,-352.41 1849,-343.73 1849,-335.54"/>
<polygon fill="black" stroke="black" points="1852.5,-335.62 1849,-325.62 1845.5,-335.62 1852.5,-335.62"/>
</g>
<!-- j586531922 -->
<g id="node58" class="node">
<title>j586531922</title>
<polygon fill="none" stroke="blue" points="4070,-252 2076,-252 2076,-216 4070,-216 4070,-252"/>
<text text-anchor="middle" x="3073" y="-230.3" font-family="Times New Roman,serif" font-size="14.00">Я була одержима цим, насправді. Мені снилися кошмари, в яких я прокидалася на своєму дивані, а наді мною стояв Артур зі сльозами на очах і мечем у руці, і він видавав якісь репліки про те, що Елеонора була його сестрою, але тепер Елеонора ПОМЕРЛА, і він повинен був це зробити, навіть якщо це вбивало його, бубубу.</text>
</g>
<!-- j2828660154&#45;&gt;j586531922 -->
<g id="edge59" class="edge">
<title>j2828660154&#45;&gt;j586531922</title>
<path fill="none" stroke="black" d="M3159.11,-287.88C3144.59,-278.96 3126.63,-267.93 3110.87,-258.25"/>
<polygon fill="black" stroke="black" points="3113.03,-255.48 3102.68,-253.23 3109.37,-261.44 3113.03,-255.48"/>
</g>
<!-- j482722804&#45;&gt;Chat ends. -->
<g id="edge60" class="edge">
<title>j482722804&#45;&gt;Chat ends.</title>
<path fill="none" stroke="black" d="M3690.32,-143.52C3543.1,-113.82 3248.37,-54.37 3127.07,-29.91"/>
<polygon fill="black" stroke="black" points="3127.86,-26.49 3117.36,-27.95 3126.47,-33.36 3127.86,-26.49"/>
</g>
<!-- j663330302 -->
<g id="node59" class="node">
<title>j663330302</title>
<polygon fill="none" stroke="red" points="2058,-252 1640,-252 1640,-216 2058,-216 2058,-252"/>
<text text-anchor="middle" x="1849" y="-230.3" font-family="Times New Roman,serif" font-size="14.00">Отже, я чую, що ти не бажаєш вирішувати це питання заздалегідь.</text>
</g>
<!-- j1707520412&#45;&gt;j663330302 -->
<g id="edge61" class="edge">
<title>j1707520412&#45;&gt;j663330302</title>
<path fill="none" stroke="black" d="M1849,-287.7C1849,-280.41 1849,-271.73 1849,-263.54"/>
<polygon fill="black" stroke="black" points="1852.5,-263.62 1849,-253.62 1845.5,-263.62 1852.5,-263.62"/>
</g>
<!-- j3273168059 -->
<g id="node60" class="node">
<title>j3273168059</title>
<polygon fill="none" stroke="blue" points="3413,-180 2733,-180 2733,-144 3413,-144 3413,-180"/>
<text text-anchor="middle" x="3073" y="-158.3" font-family="Times New Roman,serif" font-size="14.00">І коли він встромляє лезо мені між ребер, я кричу: «Елеонора ТУТ, тупий виродку!», але він мене вже не чує.</text>
</g>
<!-- j586531922&#45;&gt;j3273168059 -->
<g id="edge62" class="edge">
<title>j586531922&#45;&gt;j3273168059</title>
<path fill="none" stroke="black" d="M3073,-215.7C3073,-208.41 3073,-199.73 3073,-191.54"/>
<polygon fill="black" stroke="black" points="3076.5,-191.62 3073,-181.62 3069.5,-191.62 3076.5,-191.62"/>
</g>
<!-- j4203475521 -->
<g id="node61" class="node">
<title>j4203475521</title>
<polygon fill="none" stroke="red" points="2419.5,-180 2012.5,-180 2012.5,-144 2419.5,-144 2419.5,-180"/>
<text text-anchor="middle" x="2216" y="-158.3" font-family="Times New Roman,serif" font-size="14.00">У такому випадку, ти також не можеш очікувати цього від мене.</text>
</g>
<!-- j663330302&#45;&gt;j4203475521 -->
<g id="edge63" class="edge">
<title>j663330302&#45;&gt;j4203475521</title>
<path fill="none" stroke="black" d="M1940.66,-215.52C1993.2,-205.5 2059.27,-192.89 2113.52,-182.55"/>
<polygon fill="black" stroke="black" points="2113.9,-186.04 2123.07,-180.73 2112.59,-179.16 2113.9,-186.04"/>
</g>
<!-- j2328434082 -->
<g id="node62" class="node">
<title>j2328434082</title>
<polygon fill="none" stroke="blue" points="3220,-108 2926,-108 2926,-72 3220,-72 3220,-108"/>
<text text-anchor="middle" x="3073" y="-86.3" font-family="Times New Roman,serif" font-size="14.00">Можливо, ти наснишся мені наступного разу.</text>
</g>
<!-- j3273168059&#45;&gt;j2328434082 -->
<g id="edge64" class="edge">
<title>j3273168059&#45;&gt;j2328434082</title>
<path fill="none" stroke="black" d="M3073,-143.7C3073,-136.41 3073,-127.73 3073,-119.54"/>
<polygon fill="black" stroke="black" points="3076.5,-119.62 3073,-109.62 3069.5,-119.62 3076.5,-119.62"/>
</g>
<!-- j2895199346 -->
<g id="node63" class="node">
<title>j2895199346</title>
<ellipse fill="none" stroke="orange" cx="2530" cy="-90" rx="64.19" ry="18"/>
<text text-anchor="middle" x="2530" y="-86.3" font-family="Times New Roman,serif" font-size="14.00">+20 Chemistry</text>
</g>
<!-- j4203475521&#45;&gt;j2895199346 -->
<g id="edge65" class="edge">
<title>j4203475521&#45;&gt;j2895199346</title>
<path fill="none" stroke="black" d="M2294.43,-143.52C2348.8,-131.39 2420.13,-115.49 2469.99,-104.38"/>
<polygon fill="black" stroke="black" points="2470.44,-107.86 2479.44,-102.27 2468.92,-101.03 2470.44,-107.86"/>
</g>
<!-- j2328434082&#45;&gt;Chat ends. -->
<g id="edge66" class="edge">
<title>j2328434082&#45;&gt;Chat ends.</title>
<path fill="none" stroke="black" d="M3073,-71.7C3073,-64.41 3073,-55.73 3073,-47.54"/>
<polygon fill="black" stroke="black" points="3076.5,-47.62 3073,-37.62 3069.5,-47.62 3076.5,-47.62"/>
</g>
<!-- j2895199346&#45;&gt;Chat ends. -->
<g id="edge67" class="edge">
<title>j2895199346&#45;&gt;Chat ends.</title>
<path fill="none" stroke="black" d="M2587.34,-81.61C2691.53,-68.18 2910.77,-39.91 3015.25,-26.44"/>
<polygon fill="black" stroke="black" points="3015.54,-29.94 3025.01,-25.19 3014.64,-22.99 3015.54,-29.94"/>
</g>
</g>
</svg>
