<?xml version="1.0" encoding="UTF-8" standalone="no"?>
<!DOCTYPE svg PUBLIC "-//W3C//DTD SVG 1.1//EN"
 "http://www.w3.org/Graphics/SVG/1.1/DTD/svg11.dtd">
<!-- Generated by graphviz version 7.1.0 (20230121.1956)
 -->
<!-- Pages: 1 -->
<svg width="1200pt" height="1477pt"
 viewBox="0.00 0.00 1199.50 1477.00" xmlns="http://www.w3.org/2000/svg" xmlns:xlink="http://www.w3.org/1999/xlink">
<g id="graph0" class="graph" transform="scale(1 1) rotate(0) translate(4 1473)">
<polygon fill="white" stroke="none" points="-4,4 -4,-1473 1195.5,-1473 1195.5,4 -4,4"/>
<!-- EleanorRank2Convo6 begins. -->
<g id="node1" class="node">
<title>EleanorRank2Convo6 begins.</title>
<ellipse fill="none" stroke="orange" cx="286" cy="-1451" rx="118.88" ry="18"/>
<text text-anchor="middle" x="286" y="-1447.3" font-family="Times New Roman,serif" font-size="14.00">EleanorRank2Convo6 begins.</text>
</g>
<!-- j3357697093 -->
<g id="node2" class="node">
<title>j3357697093</title>
<ellipse fill="none" stroke="orange" cx="286" cy="-1378" rx="104.78" ry="18"/>
<text text-anchor="middle" x="286" y="-1374.3" font-family="Times New Roman,serif" font-size="14.00">Check boolean AmirRPG</text>
</g>
<!-- EleanorRank2Convo6 begins.&#45;&gt;j3357697093 -->
<g id="edge1" class="edge">
<title>EleanorRank2Convo6 begins.&#45;&gt;j3357697093</title>
<path fill="none" stroke="black" d="M286,-1432.81C286,-1425.23 286,-1416.1 286,-1407.54"/>
<polygon fill="black" stroke="black" points="289.5,-1407.54 286,-1397.54 282.5,-1407.54 289.5,-1407.54"/>
</g>
<!-- j3118938659 -->
<g id="node3" class="node">
<title>j3118938659</title>
<polygon fill="none" stroke="red" points="731,-1309 453,-1309 453,-1273 731,-1273 731,-1309"/>
<text text-anchor="middle" x="592" y="-1287.3" font-family="Times New Roman,serif" font-size="14.00">Hey Eleanor? You and Amir are friendly, right?</text>
</g>
<!-- j3357697093&#45;&gt;j3118938659 -->
<g id="edge2" class="edge">
<title>j3357697093&#45;&gt;j3118938659</title>
<path fill="none" stroke="green" d="M339.65,-1362.1C389.22,-1348.33 463.31,-1327.75 518.4,-1312.44"/>
<polygon fill="green" stroke="green" points="519,-1315.91 527.7,-1309.86 517.13,-1309.17 519,-1315.91"/>
<text text-anchor="middle" x="468" y="-1330.8" font-family="Times New Roman,serif" font-size="14.00">true</text>
</g>
<!-- j4230784648 -->
<g id="node4" class="node">
<title>j4230784648</title>
<polygon fill="none" stroke="red" points="373,-1309 199,-1309 199,-1273 373,-1273 373,-1309"/>
<text text-anchor="middle" x="286" y="-1287.3" font-family="Times New Roman,serif" font-size="14.00">You like boardgames, yeah?</text>
</g>
<!-- j3357697093&#45;&gt;j4230784648 -->
<g id="edge3" class="edge">
<title>j3357697093&#45;&gt;j4230784648</title>
<path fill="none" stroke="green" d="M286,-1359.8C286,-1348.58 286,-1333.67 286,-1320.69"/>
<polygon fill="green" stroke="green" points="289.5,-1320.98 286,-1310.98 282.5,-1320.98 289.5,-1320.98"/>
<text text-anchor="middle" x="297" y="-1330.8" font-family="Times New Roman,serif" font-size="14.00">true</text>
</g>
<!-- Chat ends. -->
<g id="node5" class="node">
<title>Chat ends.</title>
<ellipse fill="none" stroke="orange" cx="356" cy="-18" rx="50.09" ry="18"/>
<text text-anchor="middle" x="356" y="-14.3" font-family="Times New Roman,serif" font-size="14.00">Chat ends.</text>
</g>
<!-- j3357697093&#45;&gt;Chat ends. -->
<g id="edge4" class="edge">
<title>j3357697093&#45;&gt;Chat ends.</title>
<path fill="none" stroke="brown" d="M197.86,-1367.9C113.82,-1356.71 0,-1333.83 0,-1292 0,-1292 0,-1292 0,-90 0,-30.68 192.49,-20.21 294.39,-18.82"/>
<polygon fill="brown" stroke="brown" points="294.27,-22.32 304.24,-18.72 294.2,-15.32 294.27,-22.32"/>
<text text-anchor="middle" x="13" y="-697.8" font-family="Times New Roman,serif" font-size="14.00">false</text>
</g>
<!-- j1299993838 -->
<g id="node6" class="node">
<title>j1299993838</title>
<ellipse fill="none" stroke="orange" cx="654" cy="-1218" rx="174.67" ry="18"/>
<text text-anchor="middle" x="654" y="-1214.3" font-family="Times New Roman,serif" font-size="14.00">Boolean AmirRPGEleanorAsked is now true.</text>
</g>
<!-- j3118938659&#45;&gt;j1299993838 -->
<g id="edge5" class="edge">
<title>j3118938659&#45;&gt;j1299993838</title>
<path fill="none" stroke="black" d="M607.01,-1272.81C614.4,-1264.35 623.45,-1253.98 631.63,-1244.61"/>
<polygon fill="black" stroke="black" points="634.19,-1247 638.13,-1237.17 628.92,-1242.4 634.19,-1247"/>
</g>
<!-- j3782129681 -->
<g id="node7" class="node">
<title>j3782129681</title>
<ellipse fill="none" stroke="orange" cx="286" cy="-1218" rx="174.67" ry="18"/>
<text text-anchor="middle" x="286" y="-1214.3" font-family="Times New Roman,serif" font-size="14.00">Boolean AmirRPGEleanorAsked is now true.</text>
</g>
<!-- j4230784648&#45;&gt;j3782129681 -->
<g id="edge6" class="edge">
<title>j4230784648&#45;&gt;j3782129681</title>
<path fill="none" stroke="black" d="M286,-1272.81C286,-1265.23 286,-1256.1 286,-1247.54"/>
<polygon fill="black" stroke="black" points="289.5,-1247.54 286,-1237.54 282.5,-1247.54 289.5,-1247.54"/>
</g>
<!-- j919875305 -->
<g id="node8" class="node">
<title>j919875305</title>
<polygon fill="none" stroke="blue" points="794.5,-1163 513.5,-1163 513.5,-1127 794.5,-1127 794.5,-1163"/>
<text text-anchor="middle" x="654" y="-1141.3" font-family="Times New Roman,serif" font-size="14.00">He&#39;s a charming little imp. Why are you asking?</text>
</g>
<!-- j1299993838&#45;&gt;j919875305 -->
<g id="edge7" class="edge">
<title>j1299993838&#45;&gt;j919875305</title>
<path fill="none" stroke="black" d="M654,-1199.81C654,-1192.23 654,-1183.1 654,-1174.54"/>
<polygon fill="black" stroke="black" points="657.5,-1174.54 654,-1164.54 650.5,-1174.54 657.5,-1174.54"/>
</g>
<!-- j2894678207 -->
<g id="node9" class="node">
<title>j2894678207</title>
<polygon fill="none" stroke="blue" points="480.5,-1163 121.5,-1163 121.5,-1127 480.5,-1127 480.5,-1163"/>
<text text-anchor="middle" x="301" y="-1141.3" font-family="Times New Roman,serif" font-size="14.00">As much as the next person, I suppose. Why are you asking?</text>
</g>
<!-- j3782129681&#45;&gt;j2894678207 -->
<g id="edge8" class="edge">
<title>j3782129681&#45;&gt;j2894678207</title>
<path fill="none" stroke="black" d="M289.63,-1199.81C291.25,-1192.14 293.21,-1182.89 295.03,-1174.24"/>
<polygon fill="black" stroke="black" points="298.45,-1175.02 297.09,-1164.51 291.6,-1173.57 298.45,-1175.02"/>
</g>
<!-- j1929167902 -->
<g id="node10" class="node">
<title>j1929167902</title>
<polygon fill="none" stroke="red" points="573.5,-1090 28.5,-1090 28.5,-1054 573.5,-1054 573.5,-1090"/>
<text text-anchor="middle" x="301" y="-1068.3" font-family="Times New Roman,serif" font-size="14.00">Amir&#39;s trying to get the team together to play a game of Fables &amp; Frontiers, and I said I&#39;d help.</text>
</g>
<!-- j919875305&#45;&gt;j1929167902 -->
<g id="edge9" class="edge">
<title>j919875305&#45;&gt;j1929167902</title>
<path fill="none" stroke="black" d="M567.19,-1126.54C516.21,-1116.29 451.63,-1103.3 398.85,-1092.68"/>
<polygon fill="black" stroke="black" points="399.75,-1089.29 389.26,-1090.75 398.37,-1096.16 399.75,-1089.29"/>
</g>
<!-- j673283080 -->
<g id="node11" class="node">
<title>j673283080</title>
<polygon fill="none" stroke="red" points="998,-1090 592,-1090 592,-1054 998,-1054 998,-1090"/>
<text text-anchor="middle" x="795" y="-1068.3" font-family="Times New Roman,serif" font-size="14.00">Amir really wants to play Fables &amp; Frontiers with everybody. You in?</text>
</g>
<!-- j919875305&#45;&gt;j673283080 -->
<g id="edge10" class="edge">
<title>j919875305&#45;&gt;j673283080</title>
<path fill="none" stroke="black" d="M688.49,-1126.63C707.1,-1117.26 730.28,-1105.59 750.26,-1095.53"/>
<polygon fill="black" stroke="black" points="751.67,-1098.74 759.02,-1091.12 748.52,-1092.49 751.67,-1098.74"/>
</g>
<!-- j2894678207&#45;&gt;j1929167902 -->
<g id="edge11" class="edge">
<title>j2894678207&#45;&gt;j1929167902</title>
<path fill="none" stroke="black" d="M301,-1126.81C301,-1119.23 301,-1110.1 301,-1101.54"/>
<polygon fill="black" stroke="black" points="304.5,-1101.54 301,-1091.54 297.5,-1101.54 304.5,-1101.54"/>
</g>
<!-- j2894678207&#45;&gt;j673283080 -->
<g id="edge12" class="edge">
<title>j2894678207&#45;&gt;j673283080</title>
<path fill="none" stroke="black" d="M422.48,-1126.54C495.17,-1116.09 587.61,-1102.81 662.22,-1092.08"/>
<polygon fill="black" stroke="black" points="662.66,-1095.56 672.06,-1090.67 661.67,-1088.63 662.66,-1095.56"/>
</g>
<!-- j2361251616 -->
<g id="node12" class="node">
<title>j2361251616</title>
<polygon fill="none" stroke="blue" points="1080.5,-1017 175.5,-1017 175.5,-981 1080.5,-981 1080.5,-1017"/>
<text text-anchor="middle" x="628" y="-995.3" font-family="Times New Roman,serif" font-size="14.00">Ah. I see. You are the chosen messenger, sent from the Thunderbolt King to enlist fair Eleanor. No doubt all sorts of roguery await me. Fol de rol and so forth.</text>
</g>
<!-- j1929167902&#45;&gt;j2361251616 -->
<g id="edge13" class="edge">
<title>j1929167902&#45;&gt;j2361251616</title>
<path fill="none" stroke="black" d="M381.41,-1053.54C428.34,-1043.35 487.71,-1030.46 536.43,-1019.88"/>
<polygon fill="black" stroke="black" points="537.11,-1023.32 546.14,-1017.77 535.62,-1016.48 537.11,-1023.32"/>
</g>
<!-- j673283080&#45;&gt;j2361251616 -->
<g id="edge14" class="edge">
<title>j673283080&#45;&gt;j2361251616</title>
<path fill="none" stroke="black" d="M754.15,-1053.63C731.6,-1044.05 703.39,-1032.05 679.37,-1021.84"/>
<polygon fill="black" stroke="black" points="680.97,-1018.72 670.4,-1018.03 678.24,-1025.16 680.97,-1018.72"/>
</g>
<!-- j3954011677 -->
<g id="node13" class="node">
<title>j3954011677</title>
<polygon fill="none" stroke="red" points="1005,-944 571,-944 571,-908 1005,-908 1005,-944"/>
<text text-anchor="middle" x="788" y="-922.3" font-family="Times New Roman,serif" font-size="14.00">Yeah, I think it&#39;s going to be a total waste of time, but I&#39;m trying to be nice.</text>
</g>
<!-- j2361251616&#45;&gt;j3954011677 -->
<g id="edge15" class="edge">
<title>j2361251616&#45;&gt;j3954011677</title>
<path fill="none" stroke="black" d="M667.14,-980.63C688.64,-971.09 715.53,-959.16 738.47,-948.98"/>
<polygon fill="black" stroke="black" points="739.6,-952.3 747.33,-945.05 736.77,-945.91 739.6,-952.3"/>
</g>
<!-- j2755808979 -->
<g id="node14" class="node">
<title>j2755808979</title>
<polygon fill="none" stroke="red" points="551.5,-944 188.5,-944 188.5,-908 551.5,-908 551.5,-944"/>
<text text-anchor="middle" x="370" y="-922.3" font-family="Times New Roman,serif" font-size="14.00">I think it&#39;ll be fun, honestly. And it seems to mean a lot to him.</text>
</g>
<!-- j2361251616&#45;&gt;j2755808979 -->
<g id="edge16" class="edge">
<title>j2361251616&#45;&gt;j2755808979</title>
<path fill="none" stroke="black" d="M564.56,-980.54C528.16,-970.53 482.29,-957.9 444.23,-947.43"/>
<polygon fill="black" stroke="black" points="445.23,-944.07 434.66,-944.79 443.37,-950.82 445.23,-944.07"/>
</g>
<!-- j2758611859 -->
<g id="node15" class="node">
<title>j2758611859</title>
<polygon fill="none" stroke="blue" points="1191.5,-817 384.5,-817 384.5,-781 1191.5,-781 1191.5,-817"/>
<text text-anchor="middle" x="788" y="-795.3" font-family="Times New Roman,serif" font-size="14.00">I will do you a favour and NOT convey those words along to him. Word to the wise: treat him with more respect in the future in my presence.</text>
</g>
<!-- j3954011677&#45;&gt;j2758611859 -->
<g id="edge17" class="edge">
<title>j3954011677&#45;&gt;j2758611859</title>
<path fill="none" stroke="black" d="M788,-907.62C788,-887.19 788,-852.99 788,-828.62"/>
<polygon fill="black" stroke="black" points="791.5,-828.75 788,-818.75 784.5,-828.75 791.5,-828.75"/>
</g>
<!-- j2848652928 -->
<g id="node16" class="node">
<title>j2848652928</title>
<polygon fill="none" stroke="blue" points="634,-871 104,-871 104,-835 634,-835 634,-871"/>
<text text-anchor="middle" x="369" y="-849.3" font-family="Times New Roman,serif" font-size="14.00">Honestly, putting on a daft voice and play&#45;acting for a few hours sounds ideal. Count me in.</text>
</g>
<!-- j2755808979&#45;&gt;j2848652928 -->
<g id="edge18" class="edge">
<title>j2755808979&#45;&gt;j2848652928</title>
<path fill="none" stroke="black" d="M369.76,-907.81C369.65,-900.23 369.52,-891.1 369.4,-882.54"/>
<polygon fill="black" stroke="black" points="372.9,-882.49 369.26,-872.54 365.9,-882.59 372.9,-882.49"/>
</g>
<!-- j2758611859&#45;&gt;Chat ends. -->
<g id="edge19" class="edge">
<title>j2758611859&#45;&gt;Chat ends.</title>
<path fill="none" stroke="black" d="M786.84,-780.76C785.66,-761.64 784,-729.88 784,-702.5 784,-702.5 784,-702.5 784,-90 784,-53.19 534.42,-31.2 416.43,-22.86"/>
<polygon fill="black" stroke="black" points="416.83,-19.37 406.61,-22.17 416.34,-26.36 416.83,-19.37"/>
</g>
<!-- j1050489881 -->
<g id="node17" class="node">
<title>j1050489881</title>
<polygon fill="none" stroke="blue" points="627,-763 115,-763 115,-727 627,-727 627,-763"/>
<text text-anchor="middle" x="371" y="-741.3" font-family="Times New Roman,serif" font-size="14.00">Oh! I would like to be a wizard. Or perhaps a bard. Or perhaps both? Can you BE both?</text>
</g>
<!-- j2848652928&#45;&gt;j1050489881 -->
<g id="edge20" class="edge">
<title>j2848652928&#45;&gt;j1050489881</title>
<path fill="none" stroke="black" d="M369.32,-834.97C369.63,-818.76 370.09,-794.06 370.46,-774.79"/>
<polygon fill="black" stroke="black" points="373.95,-774.92 370.64,-764.85 366.96,-774.79 373.95,-774.92"/>
</g>
<!-- j978607859 -->
<g id="node18" class="node">
<title>j978607859</title>
<polygon fill="none" stroke="blue" points="748,-676 28,-676 28,-640 748,-640 748,-676"/>
<text text-anchor="middle" x="388" y="-654.3" font-family="Times New Roman,serif" font-size="14.00">Or I could be a swamp hag! So long as I get to wear a tight bodice, mind. Mother Mossytits will eat your bones, little manikin.</text>
</g>
<!-- j1050489881&#45;&gt;j978607859 -->
<g id="edge21" class="edge">
<title>j1050489881&#45;&gt;j978607859</title>
<path fill="none" stroke="black" d="M374.44,-726.8C376.68,-715.58 379.67,-700.67 382.26,-687.69"/>
<polygon fill="black" stroke="black" points="385.68,-688.44 384.21,-677.95 378.82,-687.07 385.68,-688.44"/>
</g>
<!-- j868253094 -->
<g id="node19" class="node">
<title>j868253094</title>
<ellipse fill="none" stroke="orange" cx="388" cy="-585" rx="64.19" ry="18"/>
<text text-anchor="middle" x="388" y="-581.3" font-family="Times New Roman,serif" font-size="14.00">+20 Chemistry</text>
</g>
<!-- j978607859&#45;&gt;j868253094 -->
<g id="edge22" class="edge">
<title>j978607859&#45;&gt;j868253094</title>
<path fill="none" stroke="black" d="M388,-639.81C388,-632.23 388,-623.1 388,-614.54"/>
<polygon fill="black" stroke="black" points="391.5,-614.54 388,-604.54 384.5,-614.54 391.5,-614.54"/>
</g>
<!-- j1783652409 -->
<g id="node20" class="node">
<title>j1783652409</title>
<ellipse fill="none" stroke="orange" cx="388" cy="-512" rx="151.37" ry="18"/>
<text text-anchor="middle" x="388" y="-508.3" font-family="Times New Roman,serif" font-size="14.00">Boolean AmirRPGEleanor is now true.</text>
</g>
<!-- j868253094&#45;&gt;j1783652409 -->
<g id="edge23" class="edge">
<title>j868253094&#45;&gt;j1783652409</title>
<path fill="none" stroke="black" d="M388,-566.81C388,-559.23 388,-550.1 388,-541.54"/>
<polygon fill="black" stroke="black" points="391.5,-541.54 388,-531.54 384.5,-541.54 391.5,-541.54"/>
</g>
<!-- j3019685903 -->
<g id="node21" class="node">
<title>j3019685903</title>
<ellipse fill="none" stroke="orange" cx="388" cy="-439" rx="130.78" ry="18"/>
<text text-anchor="middle" x="388" y="-435.3" font-family="Times New Roman,serif" font-size="14.00">Check boolean AmirRPGQuincy</text>
</g>
<!-- j1783652409&#45;&gt;j3019685903 -->
<g id="edge24" class="edge">
<title>j1783652409&#45;&gt;j3019685903</title>
<path fill="none" stroke="black" d="M388,-493.81C388,-486.23 388,-477.1 388,-468.54"/>
<polygon fill="black" stroke="black" points="391.5,-468.54 388,-458.54 384.5,-468.54 391.5,-468.54"/>
</g>
<!-- j249252297 -->
<g id="node22" class="node">
<title>j249252297</title>
<ellipse fill="none" stroke="orange" cx="356" cy="-352" rx="128.08" ry="18"/>
<text text-anchor="middle" x="356" y="-348.3" font-family="Times New Roman,serif" font-size="14.00">Check boolean AmirRPGArthur</text>
</g>
<!-- j3019685903&#45;&gt;j249252297 -->
<g id="edge25" class="edge">
<title>j3019685903&#45;&gt;j249252297</title>
<path fill="none" stroke="green" d="M381.52,-420.8C377.22,-409.35 371.46,-394.06 366.5,-380.89"/>
<polygon fill="green" stroke="green" points="369.91,-380.01 363.11,-371.88 363.36,-382.48 369.91,-380.01"/>
<text text-anchor="middle" x="384" y="-391.8" font-family="Times New Roman,serif" font-size="14.00">true</text>
</g>
<!-- j1692268193 -->
<g id="node23" class="node">
<title>j1692268193</title>
<ellipse fill="none" stroke="orange" cx="466" cy="-91" rx="139.98" ry="18"/>
<text text-anchor="middle" x="466" y="-87.3" font-family="Times New Roman,serif" font-size="14.00">Boolean AmirRPGAny is now true.</text>
</g>
<!-- j3019685903&#45;&gt;j1692268193 -->
<g id="edge26" class="edge">
<title>j3019685903&#45;&gt;j1692268193</title>
<path fill="none" stroke="brown" d="M445.28,-422.46C477.77,-409.78 512,-388.1 512,-353 512,-353 512,-353 512,-177 512,-155.26 500.22,-133.75 488.58,-117.81"/>
<polygon fill="brown" stroke="brown" points="491.65,-116.06 482.76,-110.3 486.12,-120.35 491.65,-116.06"/>
<text text-anchor="middle" x="525" y="-261.3" font-family="Times New Roman,serif" font-size="14.00">false</text>
</g>
<!-- j249252297&#45;&gt;j1692268193 -->
<g id="edge28" class="edge">
<title>j249252297&#45;&gt;j1692268193</title>
<path fill="none" stroke="brown" d="M390.81,-334.29C410.76,-322.78 434.29,-305.5 447,-283 475.97,-231.7 473.99,-160.17 469.99,-120.81"/>
<polygon fill="brown" stroke="brown" points="473.48,-120.5 468.86,-110.96 466.52,-121.29 473.48,-120.5"/>
<text text-anchor="middle" x="481" y="-217.8" font-family="Times New Roman,serif" font-size="14.00">false</text>
</g>
<!-- j750015978 -->
<g id="node24" class="node">
<title>j750015978</title>
<ellipse fill="none" stroke="orange" cx="320" cy="-265" rx="117.78" ry="18"/>
<text text-anchor="middle" x="320" y="-261.3" font-family="Times New Roman,serif" font-size="14.00">Check boolean AmirRPGAoi</text>
</g>
<!-- j249252297&#45;&gt;j750015978 -->
<g id="edge27" class="edge">
<title>j249252297&#45;&gt;j750015978</title>
<path fill="none" stroke="green" d="M348.71,-333.8C343.84,-322.28 337.3,-306.86 331.7,-293.63"/>
<polygon fill="green" stroke="green" points="334.99,-292.41 327.86,-284.57 328.54,-295.14 334.99,-292.41"/>
<text text-anchor="middle" x="351" y="-304.8" font-family="Times New Roman,serif" font-size="14.00">true</text>
</g>
<!-- j1692268193&#45;&gt;Chat ends. -->
<g id="edge29" class="edge">
<title>j1692268193&#45;&gt;Chat ends.</title>
<path fill="none" stroke="black" d="M439.65,-72.99C424.49,-63.21 405.31,-50.82 389.13,-40.38"/>
<polygon fill="black" stroke="black" points="391.08,-37.48 380.79,-35 387.29,-43.36 391.08,-37.48"/>
</g>
<!-- j750015978&#45;&gt;j1692268193 -->
<g id="edge31" class="edge">
<title>j750015978&#45;&gt;j1692268193</title>
<path fill="none" stroke="brown" d="M337.33,-246.84C350.73,-233.36 369.52,-213.92 385,-196 407.05,-170.46 430.57,-139.85 446.55,-118.47"/>
<polygon fill="brown" stroke="brown" points="449.27,-120.68 452.42,-110.57 443.65,-116.51 449.27,-120.68"/>
<text text-anchor="middle" x="427" y="-174.3" font-family="Times New Roman,serif" font-size="14.00">false</text>
</g>
<!-- j3171614449 -->
<g id="node25" class="node">
<title>j3171614449</title>
<ellipse fill="none" stroke="orange" cx="252" cy="-178" rx="124.28" ry="18"/>
<text text-anchor="middle" x="252" y="-174.3" font-family="Times New Roman,serif" font-size="14.00">Check boolean AmirRPGLettie</text>
</g>
<!-- j750015978&#45;&gt;j3171614449 -->
<g id="edge30" class="edge">
<title>j750015978&#45;&gt;j3171614449</title>
<path fill="none" stroke="green" d="M306.24,-246.8C296.65,-234.82 283.69,-218.62 272.85,-205.06"/>
<polygon fill="green" stroke="green" points="275.67,-202.98 266.69,-197.36 270.2,-207.35 275.67,-202.98"/>
<text text-anchor="middle" x="301" y="-217.8" font-family="Times New Roman,serif" font-size="14.00">true</text>
</g>
<!-- j3171614449&#45;&gt;j1692268193 -->
<g id="edge33" class="edge">
<title>j3171614449&#45;&gt;j1692268193</title>
<path fill="none" stroke="brown" d="M290.49,-160.52C313.95,-150.59 344.6,-137.8 372,-127 384.4,-122.11 397.8,-117.01 410.48,-112.27"/>
<polygon fill="brown" stroke="brown" points="411.35,-115.68 419.5,-108.91 408.91,-109.12 411.35,-115.68"/>
<text text-anchor="middle" x="385" y="-130.8" font-family="Times New Roman,serif" font-size="14.00">false</text>
</g>
<!-- j3798570005 -->
<g id="node26" class="node">
<title>j3798570005</title>
<ellipse fill="none" stroke="orange" cx="174" cy="-91" rx="134.58" ry="18"/>
<text text-anchor="middle" x="174" y="-87.3" font-family="Times New Roman,serif" font-size="14.00">Boolean AmirRPGAll is now true.</text>
</g>
<!-- j3171614449&#45;&gt;j3798570005 -->
<g id="edge32" class="edge">
<title>j3171614449&#45;&gt;j3798570005</title>
<path fill="none" stroke="green" d="M236.22,-159.8C225.01,-147.59 209.78,-130.99 197.2,-117.28"/>
<polygon fill="green" stroke="green" points="200.12,-115.29 190.78,-110.29 194.97,-120.02 200.12,-115.29"/>
<text text-anchor="middle" x="229" y="-130.8" font-family="Times New Roman,serif" font-size="14.00">true</text>
</g>
<!-- j3798570005&#45;&gt;Chat ends. -->
<g id="edge34" class="edge">
<title>j3798570005&#45;&gt;Chat ends.</title>
<path fill="none" stroke="black" d="M216.21,-73.53C244.98,-62.31 282.99,-47.48 312.12,-36.12"/>
<polygon fill="black" stroke="black" points="313.35,-39.4 321.39,-32.5 310.81,-32.87 313.35,-39.4"/>
</g>
</g>
</svg>
