<?xml version="1.0" encoding="UTF-8" standalone="no"?>
<!DOCTYPE svg PUBLIC "-//W3C//DTD SVG 1.1//EN"
 "http://www.w3.org/Graphics/SVG/1.1/DTD/svg11.dtd">
<!-- Generated by graphviz version 7.1.0 (20230121.1956)
 -->
<!-- Pages: 1 -->
<svg width="3342pt" height="1484pt"
 viewBox="0.00 0.00 3341.50 1484.00" xmlns="http://www.w3.org/2000/svg" xmlns:xlink="http://www.w3.org/1999/xlink">
<g id="graph0" class="graph" transform="scale(1 1) rotate(0) translate(4 1480)">
<polygon fill="white" stroke="none" points="-4,4 -4,-1480 3337.5,-1480 3337.5,4 -4,4"/>
<!-- EleanorMonster begins. -->
<g id="node1" class="node">
<title>EleanorMonster begins.</title>
<ellipse fill="none" stroke="orange" cx="578" cy="-1458" rx="96.68" ry="18"/>
<text text-anchor="middle" x="578" y="-1454.3" font-family="Times New Roman,serif" font-size="14.00">EleanorMonster begins.</text>
</g>
<!-- j3460742068 -->
<g id="node2" class="node">
<title>j3460742068</title>
<polygon fill="none" stroke="blue" points="936.5,-1404 219.5,-1404 219.5,-1368 936.5,-1368 936.5,-1404"/>
<text text-anchor="middle" x="578" y="-1382.3" font-family="Times New Roman,serif" font-size="14.00">Мандрівниче. Те, що я почула від тебе вчора. Щоби залишити монстра в живих. Ти це серйозно? Мені треба знати.</text>
</g>
<!-- EleanorMonster begins.&#45;&gt;j3460742068 -->
<g id="edge1" class="edge">
<title>EleanorMonster begins.&#45;&gt;j3460742068</title>
<path fill="none" stroke="black" d="M578,-1439.7C578,-1432.41 578,-1423.73 578,-1415.54"/>
<polygon fill="black" stroke="black" points="581.5,-1415.62 578,-1405.62 574.5,-1415.62 581.5,-1415.62"/>
</g>
<!-- j2544183689 -->
<g id="node3" class="node">
<title>j2544183689</title>
<polygon fill="none" stroke="red" points="1136,-1332 1002,-1332 1002,-1296 1136,-1296 1136,-1332"/>
<text text-anchor="middle" x="1069" y="-1310.3" font-family="Times New Roman,serif" font-size="14.00">Звісно, я серйозно.</text>
</g>
<!-- j3460742068&#45;&gt;j2544183689 -->
<g id="edge2" class="edge">
<title>j3460742068&#45;&gt;j2544183689</title>
<path fill="none" stroke="black" d="M700.63,-1367.52C791.46,-1354.57 912.53,-1337.31 990.63,-1326.17"/>
<polygon fill="black" stroke="black" points="990.92,-1329.67 1000.33,-1324.79 989.94,-1322.74 990.92,-1329.67"/>
</g>
<!-- j172331320 -->
<g id="node4" class="node">
<title>j172331320</title>
<polygon fill="none" stroke="red" points="911.5,-1260 244.5,-1260 244.5,-1224 911.5,-1224 911.5,-1260"/>
<text text-anchor="middle" x="578" y="-1238.3" font-family="Times New Roman,serif" font-size="14.00">Чесно? Я трохи подумав над цим. І, ні. Мені доведеться зупинити тебе, якщо ти перетворишся на монстра.</text>
</g>
<!-- j3460742068&#45;&gt;j172331320 -->
<g id="edge3" class="edge">
<title>j3460742068&#45;&gt;j172331320</title>
<path fill="none" stroke="black" d="M578,-1367.59C578,-1343.61 578,-1300.14 578,-1271.42"/>
<polygon fill="black" stroke="black" points="581.5,-1271.62 578,-1261.62 574.5,-1271.62 581.5,-1271.62"/>
</g>
<!-- j3180000748 -->
<g id="node5" class="node">
<title>j3180000748</title>
<polygon fill="none" stroke="red" points="556.5,-108 461.5,-108 461.5,-72 556.5,-72 556.5,-108"/>
<text text-anchor="middle" x="509" y="-86.3" font-family="Times New Roman,serif" font-size="14.00">[Ігнорувати.]</text>
</g>
<!-- j3460742068&#45;&gt;j3180000748 -->
<g id="edge4" class="edge">
<title>j3460742068&#45;&gt;j3180000748</title>
<path fill="none" stroke="black" d="M320.69,-1367.51C166.44,-1349.67 0,-1313.98 0,-1243 0,-1243 0,-1243 0,-233 0,-140.51 315.73,-105.63 449.86,-94.98"/>
<polygon fill="black" stroke="black" points="449.91,-98.49 459.61,-94.23 449.37,-91.51 449.91,-98.49"/>
</g>
<!-- j2551474026 -->
<g id="node6" class="node">
<title>j2551474026</title>
<polygon fill="none" stroke="blue" points="2071,-1260 1001,-1260 1001,-1224 2071,-1224 2071,-1260"/>
<text text-anchor="middle" x="1536" y="-1238.3" font-family="Times New Roman,serif" font-size="14.00">Не те, щоб я не була надзвичайно вдячна і, чесно кажучи, трохи шокована, але… чому? ЧОМУ ти дозволиш мені жити? Коли всі інші тут готові пустити колю мені в голову?</text>
</g>
<!-- j2544183689&#45;&gt;j2551474026 -->
<g id="edge5" class="edge">
<title>j2544183689&#45;&gt;j2551474026</title>
<path fill="none" stroke="black" d="M1136.41,-1302.9C1207.26,-1292.28 1320.41,-1275.31 1408.25,-1262.15"/>
<polygon fill="black" stroke="black" points="1408.51,-1265.65 1417.88,-1260.7 1407.48,-1258.73 1408.51,-1265.65"/>
</g>
<!-- j490661605 -->
<g id="node7" class="node">
<title>j490661605</title>
<polygon fill="none" stroke="blue" points="997.5,-612 158.5,-612 158.5,-576 997.5,-576 997.5,-612"/>
<text text-anchor="middle" x="578" y="-590.3" font-family="Times New Roman,serif" font-size="14.00">Дякую. Ти для мене багато в чому загадка, але тепер я знаю, що ти без вагань пустиш мені кулю в голову, а такі речі важливі на роботі.</text>
</g>
<!-- j172331320&#45;&gt;j490661605 -->
<g id="edge6" class="edge">
<title>j172331320&#45;&gt;j490661605</title>
<path fill="none" stroke="black" d="M578,-1223.51C578,-1196.71 578,-1143.87 578,-1099 578,-1099 578,-1099 578,-737 578,-697.74 578,-652.38 578,-623.69"/>
<polygon fill="black" stroke="black" points="581.5,-624 578,-614 574.5,-624 581.5,-624"/>
</g>
<!-- Chat ends. -->
<g id="node8" class="node">
<title>Chat ends.</title>
<ellipse fill="none" stroke="orange" cx="1639" cy="-18" rx="50.09" ry="18"/>
<text text-anchor="middle" x="1639" y="-14.3" font-family="Times New Roman,serif" font-size="14.00">Chat ends.</text>
</g>
<!-- j3180000748&#45;&gt;Chat ends. -->
<g id="edge7" class="edge">
<title>j3180000748&#45;&gt;Chat ends.</title>
<path fill="none" stroke="black" d="M556.83,-86.04C737.44,-74.85 1377.79,-35.18 1578.43,-22.75"/>
<polygon fill="black" stroke="black" points="1578.61,-26.25 1588.38,-22.14 1578.18,-19.26 1578.61,-26.25"/>
</g>
<!-- j1995811881 -->
<g id="node9" class="node">
<title>j1995811881</title>
<polygon fill="none" stroke="red" points="2038.5,-1188 1033.5,-1188 1033.5,-1152 2038.5,-1152 2038.5,-1188"/>
<text text-anchor="middle" x="1536" y="-1166.3" font-family="Times New Roman,serif" font-size="14.00">Межа між «героєм» і «монстром» більш розмита, ніж більшість людей хотіли б визнати. Мені довелося воювати проти ґрінерів та Корпусу, а також разом із ними.</text>
</g>
<!-- j2551474026&#45;&gt;j1995811881 -->
<g id="edge8" class="edge">
<title>j2551474026&#45;&gt;j1995811881</title>
<path fill="none" stroke="black" d="M1536,-1223.7C1536,-1216.41 1536,-1207.73 1536,-1199.54"/>
<polygon fill="black" stroke="black" points="1539.5,-1199.62 1536,-1189.62 1532.5,-1199.62 1539.5,-1199.62"/>
</g>
<!-- j3585043823 -->
<g id="node10" class="node">
<title>j3585043823</title>
<polygon fill="none" stroke="red" points="3093.5,-1188 2126.5,-1188 2126.5,-1152 3093.5,-1152 3093.5,-1188"/>
<text text-anchor="middle" x="2610" y="-1166.3" font-family="Times New Roman,serif" font-size="14.00">Тому що я думаю, ти одна з найрозумніших і надзвичайно саркастичних людей у моєму житті. Я навіть не думаю, що техногниль може зробити це з тобою.</text>
</g>
<!-- j2551474026&#45;&gt;j3585043823 -->
<g id="edge9" class="edge">
<title>j2551474026&#45;&gt;j3585043823</title>
<path fill="none" stroke="black" d="M1804.25,-1223.52C1964.74,-1213.06 2168.39,-1199.78 2330.79,-1189.2"/>
<polygon fill="black" stroke="black" points="2330.66,-1192.71 2340.41,-1188.57 2330.2,-1185.73 2330.66,-1192.71"/>
</g>
<!-- j2747508858 -->
<g id="node11" class="node">
<title>j2747508858</title>
<polygon fill="none" stroke="blue" points="792,-540 322,-540 322,-504 792,-504 792,-540"/>
<text text-anchor="middle" x="557" y="-518.3" font-family="Times New Roman,serif" font-size="14.00">Аааа я щойно відчула, як техногниль у моїх клітинах тривожно затремтіла.</text>
</g>
<!-- j490661605&#45;&gt;j2747508858 -->
<g id="edge10" class="edge">
<title>j490661605&#45;&gt;j2747508858</title>
<path fill="none" stroke="black" d="M572.81,-575.7C570.57,-568.24 567.9,-559.32 565.39,-550.97"/>
<polygon fill="black" stroke="black" points="568.79,-550.13 562.57,-541.55 562.09,-552.14 568.79,-550.13"/>
</g>
<!-- j596819738 -->
<g id="node12" class="node">
<title>j596819738</title>
<polygon fill="none" stroke="red" points="2078,-1116 994,-1116 994,-1080 2078,-1080 2078,-1116"/>
<text text-anchor="middle" x="1536" y="-1094.3" font-family="Times New Roman,serif" font-size="14.00">Я не вірю в слова «Добро» і «Зло». Тільки люди. Чому ти маєш менше прав на існування, ніж я? Можливо, в мене немає язика техногнилі, але я така сама потвора від природи.</text>
</g>
<!-- j1995811881&#45;&gt;j596819738 -->
<g id="edge11" class="edge">
<title>j1995811881&#45;&gt;j596819738</title>
<path fill="none" stroke="black" d="M1536,-1151.7C1536,-1144.41 1536,-1135.73 1536,-1127.54"/>
<polygon fill="black" stroke="black" points="1539.5,-1127.62 1536,-1117.62 1532.5,-1127.62 1539.5,-1127.62"/>
</g>
<!-- j359154271 -->
<g id="node13" class="node">
<title>j359154271</title>
<polygon fill="none" stroke="blue" points="2884,-1116 2442,-1116 2442,-1080 2884,-1080 2884,-1116"/>
<text text-anchor="middle" x="2663" y="-1094.3" font-family="Times New Roman,serif" font-size="14.00">Як… чудово наївно. І напрочуд солодко, в якомусь трагічному сенсі.</text>
</g>
<!-- j3585043823&#45;&gt;j359154271 -->
<g id="edge12" class="edge">
<title>j3585043823&#45;&gt;j359154271</title>
<path fill="none" stroke="black" d="M2623.1,-1151.7C2629.13,-1143.73 2636.42,-1134.1 2643.11,-1125.26"/>
<polygon fill="black" stroke="black" points="2645.89,-1127.4 2649.14,-1117.31 2640.31,-1123.17 2645.89,-1127.4"/>
</g>
<!-- j2370587322 -->
<g id="node14" class="node">
<title>j2370587322</title>
<polygon fill="none" stroke="blue" points="1005.5,-468 28.5,-468 28.5,-432 1005.5,-432 1005.5,-468"/>
<text text-anchor="middle" x="517" y="-446.3" font-family="Times New Roman,serif" font-size="14.00">Думаю, відтепер віна буде поводитися трохи краще. Немає нічого кращого, ніж погроза господаря, щоби нагнати на паразита страху перед Солом, чи не так?</text>
</g>
<!-- j2747508858&#45;&gt;j2370587322 -->
<g id="edge13" class="edge">
<title>j2747508858&#45;&gt;j2370587322</title>
<path fill="none" stroke="black" d="M547.11,-503.7C542.66,-495.9 537.29,-486.51 532.33,-477.83"/>
<polygon fill="black" stroke="black" points="535.53,-476.36 527.52,-469.42 529.45,-479.84 535.53,-476.36"/>
</g>
<!-- j2900980587 -->
<g id="node15" class="node">
<title>j2900980587</title>
<polygon fill="none" stroke="blue" points="2045.5,-1044 1026.5,-1044 1026.5,-1008 2045.5,-1008 2045.5,-1044"/>
<text text-anchor="middle" x="1536" y="-1022.3" font-family="Times New Roman,serif" font-size="14.00">Але ось ти тут, б’єшся зі «Скальдрою» та техногниллю, намагаючись знайти спосіб зупинити Байдужість. Ти явно віриш, що є якась межа, яку треба десь провести.</text>
</g>
<!-- j596819738&#45;&gt;j2900980587 -->
<g id="edge14" class="edge">
<title>j596819738&#45;&gt;j2900980587</title>
<path fill="none" stroke="black" d="M1536,-1079.7C1536,-1072.41 1536,-1063.73 1536,-1055.54"/>
<polygon fill="black" stroke="black" points="1539.5,-1055.62 1536,-1045.62 1532.5,-1055.62 1539.5,-1055.62"/>
</g>
<!-- j754596254 -->
<g id="node16" class="node">
<title>j754596254</title>
<polygon fill="none" stroke="blue" points="3333.5,-1044 2098.5,-1044 2098.5,-1008 3333.5,-1008 3333.5,-1044"/>
<text text-anchor="middle" x="2716" y="-1022.3" font-family="Times New Roman,serif" font-size="14.00">Те, що ти віриш, що я вийду з того світу якоюсь королевою вулика з неушкодженим «я», якимось химерним образом зараження, з яким можна було б подружитися або, можливо, навіть обожнювати.</text>
</g>
<!-- j359154271&#45;&gt;j754596254 -->
<g id="edge15" class="edge">
<title>j359154271&#45;&gt;j754596254</title>
<path fill="none" stroke="black" d="M2676.1,-1079.7C2682.13,-1071.73 2689.42,-1062.1 2696.11,-1053.26"/>
<polygon fill="black" stroke="black" points="2698.89,-1055.4 2702.14,-1045.31 2693.31,-1051.17 2698.89,-1055.4"/>
</g>
<!-- j2864742878 -->
<g id="node17" class="node">
<title>j2864742878</title>
<ellipse fill="none" stroke="orange" cx="1025" cy="-234" rx="142.97" ry="18"/>
<text text-anchor="middle" x="1025" y="-230.3" font-family="Times New Roman,serif" font-size="14.00">Boolean EleanorNoDate is now true.</text>
</g>
<!-- j2370587322&#45;&gt;j2864742878 -->
<g id="edge16" class="edge">
<title>j2370587322&#45;&gt;j2864742878</title>
<path fill="none" stroke="black" d="M558.14,-431.67C650.56,-392.74 874.34,-298.47 974.76,-256.16"/>
<polygon fill="black" stroke="black" points="975.99,-259.45 983.84,-252.34 973.27,-252.99 975.99,-259.45"/>
</g>
<!-- j2878357830 -->
<g id="node18" class="node">
<title>j2878357830</title>
<polygon fill="none" stroke="red" points="1631.5,-972 1098.5,-972 1098.5,-936 1631.5,-936 1631.5,-972"/>
<text text-anchor="middle" x="1365" y="-950.3" font-family="Times New Roman,serif" font-size="14.00">Байдужість була звільнена Ентраті. Людиною. У цьому була винна людська гординя.</text>
</g>
<!-- j2900980587&#45;&gt;j2878357830 -->
<g id="edge17" class="edge">
<title>j2900980587&#45;&gt;j2878357830</title>
<path fill="none" stroke="black" d="M1493.29,-1007.52C1470.46,-998.17 1442.13,-986.57 1417.91,-976.66"/>
<polygon fill="black" stroke="black" points="1419.44,-973.5 1408.86,-972.96 1416.79,-979.98 1419.44,-973.5"/>
</g>
<!-- j3869913548 -->
<g id="node19" class="node">
<title>j3869913548</title>
<polygon fill="none" stroke="red" points="2383,-972 1667,-972 1667,-936 2383,-936 2383,-972"/>
<text text-anchor="middle" x="2025" y="-950.3" font-family="Times New Roman,serif" font-size="14.00">Захищати людей від смерті — це не те саме, що вважати, що щось має бути знищене або не має права на існування.</text>
</g>
<!-- j2900980587&#45;&gt;j3869913548 -->
<g id="edge18" class="edge">
<title>j2900980587&#45;&gt;j3869913548</title>
<path fill="none" stroke="black" d="M1658.13,-1007.52C1729.3,-997.33 1819.11,-984.47 1892.06,-974.03"/>
<polygon fill="black" stroke="black" points="1892.25,-977.54 1901.65,-972.66 1891.26,-970.61 1892.25,-977.54"/>
</g>
<!-- j4092781325 -->
<g id="node20" class="node">
<title>j4092781325</title>
<polygon fill="none" stroke="blue" points="3079,-972 2511,-972 2511,-936 3079,-936 3079,-972"/>
<text text-anchor="middle" x="2795" y="-950.3" font-family="Times New Roman,serif" font-size="14.00">Я б дорікнула тобі, що світ не функціонує, як книжка казок, але… згадую, хто ти та звідки.</text>
</g>
<!-- j754596254&#45;&gt;j4092781325 -->
<g id="edge19" class="edge">
<title>j754596254&#45;&gt;j4092781325</title>
<path fill="none" stroke="black" d="M2735.53,-1007.7C2745.02,-999.28 2756.61,-989.02 2767.02,-979.79"/>
<polygon fill="black" stroke="black" points="2769.13,-982.6 2774.29,-973.35 2764.48,-977.36 2769.13,-982.6"/>
</g>
<!-- j2864742878&#45;&gt;Chat ends. -->
<g id="edge20" class="edge">
<title>j2864742878&#45;&gt;Chat ends.</title>
<path fill="none" stroke="black" d="M1072.16,-216.56C1186.98,-176.54 1479.92,-74.44 1593.26,-34.94"/>
<polygon fill="black" stroke="black" points="1594.25,-38.3 1602.54,-31.71 1591.95,-31.69 1594.25,-38.3"/>
</g>
<!-- j1477917204 -->
<g id="node21" class="node">
<title>j1477917204</title>
<polygon fill="none" stroke="blue" points="1662.5,-900 1049.5,-900 1049.5,-864 1662.5,-864 1662.5,-900"/>
<text text-anchor="middle" x="1356" y="-878.3" font-family="Times New Roman,serif" font-size="14.00">Але техногниль — це не Байдужість. Як що до цього? Щодо більш біологічної, наземної загрози?</text>
</g>
<!-- j2878357830&#45;&gt;j1477917204 -->
<g id="edge21" class="edge">
<title>j2878357830&#45;&gt;j1477917204</title>
<path fill="none" stroke="black" d="M1362.78,-935.7C1361.83,-928.32 1360.7,-919.52 1359.63,-911.25"/>
<polygon fill="black" stroke="black" points="1363.14,-911.08 1358.39,-901.61 1356.2,-911.97 1363.14,-911.08"/>
</g>
<!-- j961179536 -->
<g id="node22" class="node">
<title>j961179536</title>
<polygon fill="none" stroke="red" points="2385,-900 1681,-900 1681,-864 2385,-864 2385,-900"/>
<text text-anchor="middle" x="2033" y="-878.3" font-family="Times New Roman,serif" font-size="14.00">Переконатися, щоб отару овець не з’їли вовки, — це не те саме, що вийти та вбити всіх вовків за те, що вони злі.</text>
</g>
<!-- j3869913548&#45;&gt;j961179536 -->
<g id="edge22" class="edge">
<title>j3869913548&#45;&gt;j961179536</title>
<path fill="none" stroke="black" d="M2026.98,-935.7C2027.81,-928.41 2028.8,-919.73 2029.74,-911.54"/>
<polygon fill="black" stroke="black" points="2033.22,-911.94 2030.87,-901.61 2026.26,-911.15 2033.22,-911.94"/>
</g>
<!-- j2275354235 -->
<g id="node23" class="node">
<title>j2275354235</title>
<polygon fill="none" stroke="blue" points="3087.5,-828 2818.5,-828 2818.5,-792 3087.5,-792 3087.5,-828"/>
<text text-anchor="middle" x="2953" y="-806.3" font-family="Times New Roman,serif" font-size="14.00">Тож, я гадаю, що не повинна дивуватися.</text>
</g>
<!-- j4092781325&#45;&gt;j2275354235 -->
<g id="edge23" class="edge">
<title>j4092781325&#45;&gt;j2275354235</title>
<path fill="none" stroke="black" d="M2814.37,-935.59C2842.24,-910.54 2893.78,-864.22 2925.56,-835.66"/>
<polygon fill="black" stroke="black" points="2927.74,-838.41 2932.84,-829.12 2923.06,-833.2 2927.74,-838.41"/>
</g>
<!-- j2418883553 -->
<g id="node24" class="node">
<title>j2418883553</title>
<polygon fill="none" stroke="red" points="1477.5,-828 662.5,-828 662.5,-792 1477.5,-792 1477.5,-828"/>
<text text-anchor="middle" x="1070" y="-806.3" font-family="Times New Roman,serif" font-size="14.00">Ми насправді не знаємо, звідки з’явилася техногниль. Вона може бути створена людиною. Це може бути від чогось зовсім іншого.</text>
</g>
<!-- j1477917204&#45;&gt;j2418883553 -->
<g id="edge24" class="edge">
<title>j1477917204&#45;&gt;j2418883553</title>
<path fill="none" stroke="black" d="M1284.57,-863.52C1244.32,-853.67 1193.88,-841.32 1152.02,-831.07"/>
<polygon fill="black" stroke="black" points="1153.03,-827.72 1142.49,-828.74 1151.37,-834.52 1153.03,-827.72"/>
</g>
<!-- j338872128 -->
<g id="node25" class="node">
<title>j338872128</title>
<polygon fill="none" stroke="red" points="1987.5,-756 1494.5,-756 1494.5,-720 1987.5,-720 1987.5,-756"/>
<text text-anchor="middle" x="1741" y="-734.3" font-family="Times New Roman,serif" font-size="14.00">Річ у тому, що ти не хочеш, щоб я тебе вбив. Тому я не стану. Я дам тобі піти.</text>
</g>
<!-- j1477917204&#45;&gt;j338872128 -->
<g id="edge25" class="edge">
<title>j1477917204&#45;&gt;j338872128</title>
<path fill="none" stroke="black" d="M1403.21,-863.59C1473.88,-837.52 1607,-788.42 1683.33,-760.27"/>
<polygon fill="black" stroke="black" points="1684.12,-763.71 1692.29,-756.97 1681.69,-757.14 1684.12,-763.71"/>
</g>
<!-- j2892532340 -->
<g id="node26" class="node">
<title>j2892532340</title>
<polygon fill="none" stroke="blue" points="2448.5,-828 1617.5,-828 1617.5,-792 2448.5,-792 2448.5,-828"/>
<text text-anchor="middle" x="2033" y="-806.3" font-family="Times New Roman,serif" font-size="14.00">А якщо від Елеонори нічого не залишилося? Що робити, якщо ти не побачиш нічого, крім шиплячого звіра, який гарчить і плюється?</text>
</g>
<!-- j961179536&#45;&gt;j2892532340 -->
<g id="edge26" class="edge">
<title>j961179536&#45;&gt;j2892532340</title>
<path fill="none" stroke="black" d="M2033,-863.7C2033,-856.41 2033,-847.73 2033,-839.54"/>
<polygon fill="black" stroke="black" points="2036.5,-839.62 2033,-829.62 2029.5,-839.62 2036.5,-839.62"/>
</g>
<!-- j815743246 -->
<g id="node27" class="node">
<title>j815743246</title>
<polygon fill="none" stroke="blue" points="2657.5,-540 2172.5,-540 2172.5,-504 2657.5,-504 2657.5,-540"/>
<text text-anchor="middle" x="2415" y="-518.3" font-family="Times New Roman,serif" font-size="14.00">У будь&#45;якому випадку я вдячна, що ти мене не вб’єш. Хоч щось. Принаймні.</text>
</g>
<!-- j2275354235&#45;&gt;j815743246 -->
<g id="edge27" class="edge">
<title>j2275354235&#45;&gt;j815743246</title>
<path fill="none" stroke="black" d="M2961.74,-791.96C2975.91,-761.91 3000.44,-697.97 2981,-648 2965.26,-607.54 2953.76,-595.55 2915,-576 2891.19,-563.99 2776.22,-551.37 2662.52,-541.46"/>
<polygon fill="black" stroke="black" points="2662.94,-537.98 2652.68,-540.61 2662.34,-544.96 2662.94,-537.98"/>
</g>
<!-- j985119417 -->
<g id="node28" class="node">
<title>j985119417</title>
<polygon fill="none" stroke="blue" points="1476,-756 620,-756 620,-720 1476,-720 1476,-756"/>
<text text-anchor="middle" x="1048" y="-734.3" font-family="Times New Roman,serif" font-size="14.00">А якщо техногниль виявиться черговим відхиленням, створеним людиною, на кшталт вашої «Людини в стіні»? Ти вистежиш мене і в’єш?</text>
</g>
<!-- j2418883553&#45;&gt;j985119417 -->
<g id="edge28" class="edge">
<title>j2418883553&#45;&gt;j985119417</title>
<path fill="none" stroke="black" d="M1064.56,-791.7C1062.22,-784.24 1059.42,-775.32 1056.79,-766.97"/>
<polygon fill="black" stroke="black" points="1060.17,-766.04 1053.83,-757.55 1053.49,-768.14 1060.17,-766.04"/>
</g>
<!-- j480131929 -->
<g id="node29" class="node">
<title>j480131929</title>
<polygon fill="none" stroke="blue" points="2048,-684 1390,-684 1390,-648 2048,-648 2048,-684"/>
<text text-anchor="middle" x="1719" y="-662.3" font-family="Times New Roman,serif" font-size="14.00">Хоча я вдячна за виконання бажання пані&#45;потвори, але, мабуть, я сподівалася на щось більш… виважене.</text>
</g>
<!-- j338872128&#45;&gt;j480131929 -->
<g id="edge29" class="edge">
<title>j338872128&#45;&gt;j480131929</title>
<path fill="none" stroke="black" d="M1735.56,-719.7C1733.22,-712.24 1730.42,-703.32 1727.79,-694.97"/>
<polygon fill="black" stroke="black" points="1731.17,-694.04 1724.83,-685.55 1724.49,-696.14 1731.17,-694.04"/>
</g>
<!-- j2892532340&#45;&gt;j338872128 -->
<g id="edge31" class="edge">
<title>j2892532340&#45;&gt;j338872128</title>
<path fill="none" stroke="black" d="M1960.07,-791.52C1918.97,-781.66 1867.46,-769.31 1824.71,-759.07"/>
<polygon fill="black" stroke="black" points="1825.77,-755.72 1815.23,-756.8 1824.14,-762.53 1825.77,-755.72"/>
</g>
<!-- j3052300130 -->
<g id="node30" class="node">
<title>j3052300130</title>
<polygon fill="none" stroke="red" points="2933.5,-756 2026.5,-756 2026.5,-720 2933.5,-720 2933.5,-756"/>
<text text-anchor="middle" x="2480" y="-734.3" font-family="Times New Roman,serif" font-size="14.00">Звідки я знаю, що від Елеонори нічого не залишилося? Ти говориш про те, як мислить техногниль. Як вона говорить до тебе. Вона явно розумна.</text>
</g>
<!-- j2892532340&#45;&gt;j3052300130 -->
<g id="edge30" class="edge">
<title>j2892532340&#45;&gt;j3052300130</title>
<path fill="none" stroke="black" d="M2144.64,-791.52C2209.43,-781.37 2291.12,-768.58 2357.65,-758.16"/>
<polygon fill="black" stroke="black" points="2357.78,-761.68 2367.12,-756.68 2356.7,-754.77 2357.78,-761.68"/>
</g>
<!-- j815743246&#45;&gt;Chat ends. -->
<g id="edge32" class="edge">
<title>j815743246&#45;&gt;Chat ends.</title>
<path fill="none" stroke="black" d="M2506.67,-503.51C2527.02,-495.69 2546.74,-484.37 2561,-468 2587.56,-437.5 2580,-419.45 2580,-379 2580,-379 2580,-379 2580,-161 2580,-71.66 1908.31,-31.92 1699.91,-21.74"/>
<polygon fill="black" stroke="black" points="1700.27,-18.26 1690.11,-21.27 1699.93,-25.25 1700.27,-18.26"/>
</g>
<!-- j536537101 -->
<g id="node31" class="node">
<title>j536537101</title>
<polygon fill="none" stroke="red" points="1371,-684 1261,-684 1261,-648 1371,-648 1371,-684"/>
<text text-anchor="middle" x="1316" y="-662.3" font-family="Times New Roman,serif" font-size="14.00">Ні. Я не зможу.</text>
</g>
<!-- j985119417&#45;&gt;j536537101 -->
<g id="edge33" class="edge">
<title>j985119417&#45;&gt;j536537101</title>
<path fill="none" stroke="black" d="M1114.94,-719.52C1156.12,-708.76 1208.69,-695.03 1249.75,-684.3"/>
<polygon fill="black" stroke="black" points="1250.48,-687.73 1259.27,-681.82 1248.71,-680.96 1250.48,-687.73"/>
</g>
<!-- j3041189119 -->
<g id="node32" class="node">
<title>j3041189119</title>
<polygon fill="none" stroke="red" points="1240.5,-684 815.5,-684 815.5,-648 1240.5,-648 1240.5,-684"/>
<text text-anchor="middle" x="1028" y="-662.3" font-family="Times New Roman,serif" font-size="14.00">Так. Якщо техногниль справді неприродна? Тоді… треба знищити.</text>
</g>
<!-- j985119417&#45;&gt;j3041189119 -->
<g id="edge34" class="edge">
<title>j985119417&#45;&gt;j3041189119</title>
<path fill="none" stroke="black" d="M1043.06,-719.7C1040.92,-712.24 1038.38,-703.32 1035.99,-694.97"/>
<polygon fill="black" stroke="black" points="1039.42,-694.21 1033.3,-685.56 1032.68,-696.14 1039.42,-694.21"/>
</g>
<!-- j3894709342 -->
<g id="node33" class="node">
<title>j3894709342</title>
<ellipse fill="none" stroke="orange" cx="1956" cy="-594" rx="59.59" ry="18"/>
<text text-anchor="middle" x="1956" y="-590.3" font-family="Times New Roman,serif" font-size="14.00">+5 Chemistry</text>
</g>
<!-- j480131929&#45;&gt;j3894709342 -->
<g id="edge35" class="edge">
<title>j480131929&#45;&gt;j3894709342</title>
<path fill="none" stroke="black" d="M1778.19,-647.52C1816.88,-636.09 1866.92,-621.31 1904.06,-610.34"/>
<polygon fill="black" stroke="black" points="1904.61,-613.83 1913.2,-607.64 1902.62,-607.12 1904.61,-613.83"/>
</g>
<!-- j573041455 -->
<g id="node34" class="node">
<title>j573041455</title>
<polygon fill="none" stroke="red" points="2971.5,-684 2066.5,-684 2066.5,-648 2971.5,-648 2971.5,-684"/>
<text text-anchor="middle" x="2519" y="-662.3" font-family="Times New Roman,serif" font-size="14.00">Це схоже на розум вулика. Можливо, Елеонора все ще була би там, але не в одному місці, а в мільярді. Хто я, щоби казати, що це «неправильно»?</text>
</g>
<!-- j3052300130&#45;&gt;j573041455 -->
<g id="edge36" class="edge">
<title>j3052300130&#45;&gt;j573041455</title>
<path fill="none" stroke="black" d="M2489.64,-719.7C2493.94,-711.98 2499.1,-702.71 2503.89,-694.11"/>
<polygon fill="black" stroke="black" points="2506.92,-695.87 2508.73,-685.43 2500.81,-692.46 2506.92,-695.87"/>
</g>
<!-- j4281755406 -->
<g id="node35" class="node">
<title>j4281755406</title>
<polygon fill="none" stroke="blue" points="1672.5,-612 1037.5,-612 1037.5,-576 1672.5,-576 1672.5,-612"/>
<text text-anchor="middle" x="1355" y="-590.3" font-family="Times New Roman,serif" font-size="14.00">Ти суперечиш собі. Якщо ти хочеш зупинити одне техногенне відхилення, чому б не зупинити друге?</text>
</g>
<!-- j536537101&#45;&gt;j4281755406 -->
<g id="edge37" class="edge">
<title>j536537101&#45;&gt;j4281755406</title>
<path fill="none" stroke="black" d="M1325.64,-647.7C1329.94,-639.98 1335.1,-630.71 1339.89,-622.11"/>
<polygon fill="black" stroke="black" points="1342.92,-623.87 1344.73,-613.43 1336.81,-620.46 1342.92,-623.87"/>
</g>
<!-- j3041189119&#45;&gt;j490661605 -->
<g id="edge38" class="edge">
<title>j3041189119&#45;&gt;j490661605</title>
<path fill="none" stroke="black" d="M915.61,-647.52C850.38,-637.37 768.15,-624.58 701.17,-614.16"/>
<polygon fill="black" stroke="black" points="702.04,-610.75 691.63,-612.68 700.97,-617.67 702.04,-610.75"/>
</g>
<!-- j3894709342&#45;&gt;j815743246 -->
<g id="edge39" class="edge">
<title>j3894709342&#45;&gt;j815743246</title>
<path fill="none" stroke="black" d="M2008.21,-585.04C2076.17,-574.67 2197.17,-556.22 2289.59,-542.13"/>
<polygon fill="black" stroke="black" points="2289.86,-545.62 2299.22,-540.66 2288.81,-538.7 2289.86,-545.62"/>
</g>
<!-- j1699787699 -->
<g id="node36" class="node">
<title>j1699787699</title>
<polygon fill="none" stroke="blue" points="2905.5,-612 2264.5,-612 2264.5,-576 2905.5,-576 2905.5,-612"/>
<text text-anchor="middle" x="2585" y="-590.3" font-family="Times New Roman,serif" font-size="14.00">Саме тоді, коли я думаю, що не можу обожнювати тебе ще більше, я знову сиджу тут і плачу від щастя</text>
</g>
<!-- j573041455&#45;&gt;j1699787699 -->
<g id="edge40" class="edge">
<title>j573041455&#45;&gt;j1699787699</title>
<path fill="none" stroke="black" d="M2535.31,-647.7C2543.07,-639.47 2552.49,-629.48 2561.03,-620.42"/>
<polygon fill="black" stroke="black" points="2563.52,-622.88 2567.83,-613.21 2558.43,-618.08 2563.52,-622.88"/>
</g>
<!-- j2433897295 -->
<g id="node37" class="node">
<title>j2433897295</title>
<polygon fill="none" stroke="red" points="2038.5,-540 1669.5,-540 1669.5,-504 2038.5,-504 2038.5,-540"/>
<text text-anchor="middle" x="1854" y="-518.3" font-family="Times New Roman,serif" font-size="14.00">Тому що в мене є почуття до тебе. [Зізнатися в почуттях.]</text>
</g>
<!-- j4281755406&#45;&gt;j2433897295 -->
<g id="edge41" class="edge">
<title>j4281755406&#45;&gt;j2433897295</title>
<path fill="none" stroke="black" d="M1479.63,-575.52C1552.26,-565.33 1643.9,-552.47 1718.34,-542.03"/>
<polygon fill="black" stroke="black" points="1718.75,-545.51 1728.16,-540.65 1717.77,-538.58 1718.75,-545.51"/>
</g>
<!-- j236152163 -->
<g id="node38" class="node">
<title>j236152163</title>
<polygon fill="none" stroke="red" points="1535,-540 1175,-540 1175,-504 1535,-504 1535,-540"/>
<text text-anchor="middle" x="1355" y="-518.3" font-family="Times New Roman,serif" font-size="14.00">Тому що ти занадто багато значиш для мене як подруга.</text>
</g>
<!-- j4281755406&#45;&gt;j236152163 -->
<g id="edge42" class="edge">
<title>j4281755406&#45;&gt;j236152163</title>
<path fill="none" stroke="black" d="M1355,-575.7C1355,-568.41 1355,-559.73 1355,-551.54"/>
<polygon fill="black" stroke="black" points="1358.5,-551.62 1355,-541.62 1351.5,-551.62 1358.5,-551.62"/>
</g>
<!-- j2229518948 -->
<g id="node39" class="node">
<title>j2229518948</title>
<ellipse fill="none" stroke="orange" cx="2740" cy="-522" rx="64.19" ry="18"/>
<text text-anchor="middle" x="2740" y="-518.3" font-family="Times New Roman,serif" font-size="14.00">+20 Chemistry</text>
</g>
<!-- j1699787699&#45;&gt;j2229518948 -->
<g id="edge43" class="edge">
<title>j1699787699&#45;&gt;j2229518948</title>
<path fill="none" stroke="black" d="M2623.71,-575.52C2645.85,-565.52 2673.68,-552.95 2696.56,-542.62"/>
<polygon fill="black" stroke="black" points="2697.97,-545.82 2705.64,-538.52 2695.09,-539.44 2697.97,-545.82"/>
</g>
<!-- j2362258572 -->
<g id="node40" class="node">
<title>j2362258572</title>
<polygon fill="none" stroke="red" points="2551.5,-468 1704.5,-468 1704.5,-432 2551.5,-432 2551.5,-468"/>
<text text-anchor="middle" x="2128" y="-446.3" font-family="Times New Roman,serif" font-size="14.00">Запитувати мене, чи вб’ю я тебе, це просто *жорстоко*, Елеоноро. Коли думка про те, що ти мертва або страждаєш від болю, просто…</text>
</g>
<!-- j2433897295&#45;&gt;j2362258572 -->
<g id="edge44" class="edge">
<title>j2433897295&#45;&gt;j2362258572</title>
<path fill="none" stroke="black" d="M1922.43,-503.52C1960.83,-493.71 2008.91,-481.43 2048.91,-471.21"/>
<polygon fill="black" stroke="black" points="2049.67,-474.62 2058.5,-468.76 2047.94,-467.84 2049.67,-474.62"/>
</g>
<!-- j1484151974 -->
<g id="node41" class="node">
<title>j1484151974</title>
<polygon fill="none" stroke="red" points="1686.5,-468 1023.5,-468 1023.5,-432 1686.5,-432 1686.5,-468"/>
<text text-anchor="middle" x="1355" y="-446.3" font-family="Times New Roman,serif" font-size="14.00">Запитувати мене, чи вб’ю я тебе, це просто *жорстоко*, Елеоноро. Ти моя подруга. Ти для мене як рідна.</text>
</g>
<!-- j236152163&#45;&gt;j1484151974 -->
<g id="edge45" class="edge">
<title>j236152163&#45;&gt;j1484151974</title>
<path fill="none" stroke="black" d="M1355,-503.7C1355,-496.41 1355,-487.73 1355,-479.54"/>
<polygon fill="black" stroke="black" points="1358.5,-479.62 1355,-469.62 1351.5,-479.62 1358.5,-479.62"/>
</g>
<!-- j836612241 -->
<g id="node42" class="node">
<title>j836612241</title>
<polygon fill="none" stroke="blue" points="2871.5,-324 2608.5,-324 2608.5,-288 2871.5,-288 2871.5,-324"/>
<text text-anchor="middle" x="2740" y="-302.3" font-family="Times New Roman,serif" font-size="14.00">Я мушу йти, але дякую, дякую, ДЯКУЮ</text>
</g>
<!-- j2229518948&#45;&gt;j836612241 -->
<g id="edge46" class="edge">
<title>j2229518948&#45;&gt;j836612241</title>
<path fill="none" stroke="black" d="M2740,-503.85C2740,-467.14 2740,-380.66 2740,-335.53"/>
<polygon fill="black" stroke="black" points="2743.5,-335.75 2740,-325.75 2736.5,-335.75 2743.5,-335.75"/>
</g>
<!-- j806056167 -->
<g id="node43" class="node">
<title>j806056167</title>
<polygon fill="none" stroke="red" points="2542.5,-396 1733.5,-396 1733.5,-360 2542.5,-360 2542.5,-396"/>
<text text-anchor="middle" x="2138" y="-374.3" font-family="Times New Roman,serif" font-size="14.00">Річ у тому? Ні. Я не зможу. Тому що є надія, що ти будеш існувати десь там? У якійсь формі? Де&#45;небудь? Мені б цього вистачило.</text>
</g>
<!-- j2362258572&#45;&gt;j806056167 -->
<g id="edge47" class="edge">
<title>j2362258572&#45;&gt;j806056167</title>
<path fill="none" stroke="black" d="M2130.47,-431.7C2131.53,-424.32 2132.78,-415.52 2133.96,-407.25"/>
<polygon fill="black" stroke="black" points="2137.39,-408 2135.34,-397.6 2130.46,-407.01 2137.39,-408"/>
</g>
<!-- j1039560103 -->
<g id="node44" class="node">
<title>j1039560103</title>
<polygon fill="none" stroke="red" points="1715.5,-396 906.5,-396 906.5,-360 1715.5,-360 1715.5,-396"/>
<text text-anchor="middle" x="1311" y="-374.3" font-family="Times New Roman,serif" font-size="14.00">Річ у тому? Ні. Я не зможу. Тому що є надія, що ти будеш існувати десь там? У якійсь формі? Де&#45;небудь? Мені б цього вистачило.</text>
</g>
<!-- j1484151974&#45;&gt;j1039560103 -->
<g id="edge48" class="edge">
<title>j1484151974&#45;&gt;j1039560103</title>
<path fill="none" stroke="black" d="M1344.12,-431.7C1339.22,-423.9 1333.32,-414.51 1327.86,-405.83"/>
<polygon fill="black" stroke="black" points="1330.84,-403.99 1322.56,-397.39 1324.92,-407.71 1330.84,-403.99"/>
</g>
<!-- j836612241&#45;&gt;Chat ends. -->
<g id="edge49" class="edge">
<title>j836612241&#45;&gt;Chat ends.</title>
<path fill="none" stroke="black" d="M2735.16,-287.53C2721.62,-242.4 2678.68,-121.99 2594,-72 2517.41,-26.79 1900.21,-20.13 1700.85,-19.16"/>
<polygon fill="black" stroke="black" points="1700.97,-15.66 1690.96,-19.12 1700.94,-22.66 1700.97,-15.66"/>
</g>
<!-- j3548883362 -->
<g id="node45" class="node">
<title>j3548883362</title>
<polygon fill="none" stroke="red" points="2086,-324 1734,-324 1734,-288 2086,-288 2086,-324"/>
<text text-anchor="middle" x="1910" y="-302.3" font-family="Times New Roman,serif" font-size="14.00">Мені шкода. Я не можу цього зробити. Мені треба йти.</text>
</g>
<!-- j806056167&#45;&gt;j3548883362 -->
<g id="edge50" class="edge">
<title>j806056167&#45;&gt;j3548883362</title>
<path fill="none" stroke="black" d="M2081.05,-359.52C2049.65,-349.88 2010.47,-337.84 1977.53,-327.73"/>
<polygon fill="black" stroke="black" points="1978.65,-324.42 1968.06,-324.83 1976.59,-331.11 1978.65,-324.42"/>
</g>
<!-- j2678534096 -->
<g id="node46" class="node">
<title>j2678534096</title>
<polygon fill="none" stroke="red" points="1532,-324 1180,-324 1180,-288 1532,-288 1532,-324"/>
<text text-anchor="middle" x="1356" y="-302.3" font-family="Times New Roman,serif" font-size="14.00">Мені шкода. Я не можу цього зробити. Мені треба йти.</text>
</g>
<!-- j1039560103&#45;&gt;j2678534096 -->
<g id="edge51" class="edge">
<title>j1039560103&#45;&gt;j2678534096</title>
<path fill="none" stroke="black" d="M1322.12,-359.7C1327.19,-351.81 1333.3,-342.3 1338.93,-333.55"/>
<polygon fill="black" stroke="black" points="1341.72,-335.68 1344.19,-325.38 1335.83,-331.9 1341.72,-335.68"/>
</g>
<!-- j3541652631 -->
<g id="node47" class="node">
<title>j3541652631</title>
<ellipse fill="none" stroke="orange" cx="1865" cy="-234" rx="156.77" ry="18"/>
<text text-anchor="middle" x="1865" y="-230.3" font-family="Times New Roman,serif" font-size="14.00">Boolean EleanorConfession is now true.</text>
</g>
<!-- j3548883362&#45;&gt;j3541652631 -->
<g id="edge52" class="edge">
<title>j3548883362&#45;&gt;j3541652631</title>
<path fill="none" stroke="black" d="M1898.88,-287.7C1893.81,-279.81 1887.7,-270.3 1882.07,-261.55"/>
<polygon fill="black" stroke="black" points="1885.17,-259.9 1876.81,-253.38 1879.28,-263.68 1885.17,-259.9"/>
</g>
<!-- j2935148867 -->
<g id="node48" class="node">
<title>j2935148867</title>
<ellipse fill="none" stroke="orange" cx="1446" cy="-234" rx="64.19" ry="18"/>
<text text-anchor="middle" x="1446" y="-230.3" font-family="Times New Roman,serif" font-size="14.00">+20 Chemistry</text>
</g>
<!-- j2678534096&#45;&gt;j2935148867 -->
<g id="edge53" class="edge">
<title>j2678534096&#45;&gt;j2935148867</title>
<path fill="none" stroke="black" d="M1378.25,-287.7C1389.61,-278.86 1403.61,-267.97 1415.92,-258.4"/>
<polygon fill="black" stroke="black" points="1418,-261.21 1423.74,-252.31 1413.7,-255.69 1418,-261.21"/>
</g>
<!-- j3451575120 -->
<g id="node49" class="node">
<title>j3451575120</title>
<ellipse fill="none" stroke="orange" cx="1764" cy="-162" rx="64.19" ry="18"/>
<text text-anchor="middle" x="1764" y="-158.3" font-family="Times New Roman,serif" font-size="14.00">+20 Chemistry</text>
</g>
<!-- j3541652631&#45;&gt;j3451575120 -->
<g id="edge54" class="edge">
<title>j3541652631&#45;&gt;j3451575120</title>
<path fill="none" stroke="black" d="M1840.29,-215.88C1827.2,-206.8 1810.94,-195.53 1796.8,-185.73"/>
<polygon fill="black" stroke="black" points="1798.87,-182.91 1788.66,-180.09 1794.88,-188.66 1798.87,-182.91"/>
</g>
<!-- j3425862017 -->
<g id="node50" class="node">
<title>j3425862017</title>
<polygon fill="none" stroke="blue" points="1605,-180 1337,-180 1337,-144 1605,-144 1605,-180"/>
<text text-anchor="middle" x="1471" y="-158.3" font-family="Times New Roman,serif" font-size="14.00">Ох, Елеоноро, цього разу ти вляпалася…</text>
</g>
<!-- j2935148867&#45;&gt;j3425862017 -->
<g id="edge55" class="edge">
<title>j2935148867&#45;&gt;j3425862017</title>
<path fill="none" stroke="black" d="M1452.18,-215.7C1454.87,-208.15 1458.1,-199.12 1461.11,-190.68"/>
<polygon fill="black" stroke="black" points="1464.31,-192.12 1464.38,-181.53 1457.72,-189.77 1464.31,-192.12"/>
</g>
<!-- j1215309881 -->
<g id="node51" class="node">
<title>j1215309881</title>
<polygon fill="none" stroke="blue" points="1758.5,-108 1573.5,-108 1573.5,-72 1758.5,-72 1758.5,-108"/>
<text text-anchor="middle" x="1666" y="-86.3" font-family="Times New Roman,serif" font-size="14.00">Ой… йой, що я наробила…</text>
</g>
<!-- j3451575120&#45;&gt;j1215309881 -->
<g id="edge56" class="edge">
<title>j3451575120&#45;&gt;j1215309881</title>
<path fill="none" stroke="black" d="M1741.27,-144.76C1728.87,-135.9 1713.27,-124.77 1699.5,-114.93"/>
<polygon fill="black" stroke="black" points="1701.72,-112.21 1691.55,-109.25 1697.65,-117.91 1701.72,-112.21"/>
</g>
<!-- j3425862017&#45;&gt;Chat ends. -->
<g id="edge57" class="edge">
<title>j3425862017&#45;&gt;Chat ends.</title>
<path fill="none" stroke="black" d="M1488.02,-143.53C1506.36,-125.02 1536.74,-95.31 1565,-72 1578.24,-61.08 1593.57,-49.88 1606.83,-40.61"/>
<polygon fill="black" stroke="black" points="1608.58,-43.65 1614.82,-35.09 1604.6,-37.9 1608.58,-43.65"/>
</g>
<!-- j1215309881&#45;&gt;Chat ends. -->
<g id="edge58" class="edge">
<title>j1215309881&#45;&gt;Chat ends.</title>
<path fill="none" stroke="black" d="M1659.33,-71.7C1656.42,-64.15 1652.93,-55.12 1649.68,-46.68"/>
<polygon fill="black" stroke="black" points="1653.01,-45.59 1646.14,-37.52 1646.48,-48.11 1653.01,-45.59"/>
</g>
</g>
</svg>
