<?xml version="1.0" encoding="UTF-8" standalone="no"?>
<!DOCTYPE svg PUBLIC "-//W3C//DTD SVG 1.1//EN"
 "http://www.w3.org/Graphics/SVG/1.1/DTD/svg11.dtd">
<!-- Generated by graphviz version 7.1.0 (20230121.1956)
 -->
<!-- Pages: 1 -->
<svg width="2117pt" height="1845pt"
 viewBox="0.00 0.00 2117.00 1845.00" xmlns="http://www.w3.org/2000/svg" xmlns:xlink="http://www.w3.org/1999/xlink">
<g id="graph0" class="graph" transform="scale(1 1) rotate(0) translate(4 1841)">
<polygon fill="white" stroke="none" points="-4,4 -4,-1841 2113,-1841 2113,4 -4,4"/>
<!-- EleanorRank6Convo1 begins. -->
<g id="node1" class="node">
<title>EleanorRank6Convo1 begins.</title>
<ellipse fill="none" stroke="orange" cx="1021" cy="-1819" rx="118.88" ry="18"/>
<text text-anchor="middle" x="1021" y="-1815.3" font-family="Times New Roman,serif" font-size="14.00">EleanorRank6Convo1 begins.</text>
</g>
<!-- j1014218359 -->
<g id="node2" class="node">
<title>j1014218359</title>
<polygon fill="none" stroke="blue" points="1052.5,-1764 989.5,-1764 989.5,-1728 1052.5,-1728 1052.5,-1764"/>
<text text-anchor="middle" x="1021" y="-1742.3" font-family="Times New Roman,serif" font-size="14.00">О боги.</text>
</g>
<!-- EleanorRank6Convo1 begins.&#45;&gt;j1014218359 -->
<g id="edge1" class="edge">
<title>EleanorRank6Convo1 begins.&#45;&gt;j1014218359</title>
<path fill="none" stroke="black" d="M1021,-1800.81C1021,-1793.23 1021,-1784.1 1021,-1775.54"/>
<polygon fill="black" stroke="black" points="1024.5,-1775.54 1021,-1765.54 1017.5,-1775.54 1024.5,-1775.54"/>
</g>
<!-- j700677892 -->
<g id="node3" class="node">
<title>j700677892</title>
<polygon fill="none" stroke="blue" points="1104.5,-1691 937.5,-1691 937.5,-1655 1104.5,-1655 1104.5,-1691"/>
<text text-anchor="middle" x="1021" y="-1669.3" font-family="Times New Roman,serif" font-size="14.00">У мене є ідея для муралу</text>
</g>
<!-- j1014218359&#45;&gt;j700677892 -->
<g id="edge2" class="edge">
<title>j1014218359&#45;&gt;j700677892</title>
<path fill="none" stroke="black" d="M1021,-1727.81C1021,-1720.23 1021,-1711.1 1021,-1702.54"/>
<polygon fill="black" stroke="black" points="1024.5,-1702.54 1021,-1692.54 1017.5,-1702.54 1024.5,-1702.54"/>
</g>
<!-- j2529537567 -->
<g id="node4" class="node">
<title>j2529537567</title>
<ellipse fill="none" stroke="orange" cx="1021" cy="-1600" rx="118.08" ry="18"/>
<text text-anchor="middle" x="1021" y="-1596.3" font-family="Times New Roman,serif" font-size="14.00">Check boolean EleanorDating</text>
</g>
<!-- j700677892&#45;&gt;j2529537567 -->
<g id="edge3" class="edge">
<title>j700677892&#45;&gt;j2529537567</title>
<path fill="none" stroke="black" d="M1021,-1654.81C1021,-1647.23 1021,-1638.1 1021,-1629.54"/>
<polygon fill="black" stroke="black" points="1024.5,-1629.54 1021,-1619.54 1017.5,-1629.54 1024.5,-1629.54"/>
</g>
<!-- j3231615964 -->
<g id="node5" class="node">
<title>j3231615964</title>
<polygon fill="none" stroke="blue" points="1203,-1531 49,-1531 49,-1495 1203,-1495 1203,-1531"/>
<text text-anchor="middle" x="626" y="-1509.3" font-family="Times New Roman,serif" font-size="14.00">Ми з тобою на міській площі, повсюди шматочки техногнилі, ми боремося пліч&#45;о&#45;пліч, дивлячись одне на одного поглядом, який є чимось більшим, ніж просто товариська прихильність.</text>
</g>
<!-- j2529537567&#45;&gt;j3231615964 -->
<g id="edge4" class="edge">
<title>j2529537567&#45;&gt;j3231615964</title>
<path fill="none" stroke="green" d="M954.89,-1584.77C890.02,-1570.82 790.56,-1549.41 717.99,-1533.8"/>
<polygon fill="green" stroke="green" points="719.03,-1530.44 708.52,-1531.76 717.56,-1537.28 719.03,-1530.44"/>
<text text-anchor="middle" x="858" y="-1552.8" font-family="Times New Roman,serif" font-size="14.00">true</text>
</g>
<!-- j215604121 -->
<g id="node6" class="node">
<title>j215604121</title>
<polygon fill="none" stroke="blue" points="1612.5,-1531 1221.5,-1531 1221.5,-1495 1612.5,-1495 1612.5,-1531"/>
<text text-anchor="middle" x="1417" y="-1509.3" font-family="Times New Roman,serif" font-size="14.00">Ми з тобою в стародавній Голвенії, за часів богів і чудовиськ</text>
</g>
<!-- j2529537567&#45;&gt;j215604121 -->
<g id="edge5" class="edge">
<title>j2529537567&#45;&gt;j215604121</title>
<path fill="none" stroke="brown" d="M1087.28,-1584.77C1152.31,-1570.82 1252.03,-1549.41 1324.78,-1533.8"/>
<polygon fill="brown" stroke="brown" points="1325.23,-1537.28 1334.28,-1531.76 1323.77,-1530.43 1325.23,-1537.28"/>
<text text-anchor="middle" x="1255" y="-1552.8" font-family="Times New Roman,serif" font-size="14.00">false</text>
</g>
<!-- j3095065315 -->
<g id="node7" class="node">
<title>j3095065315</title>
<polygon fill="none" stroke="blue" points="874.5,-1458 377.5,-1458 377.5,-1422 874.5,-1422 874.5,-1458"/>
<text text-anchor="middle" x="626" y="-1436.3" font-family="Times New Roman,serif" font-size="14.00">А на сусідньому даху — Бог Кохання, який націлює свою стрілу на нас обох…</text>
</g>
<!-- j3231615964&#45;&gt;j3095065315 -->
<g id="edge6" class="edge">
<title>j3231615964&#45;&gt;j3095065315</title>
<path fill="none" stroke="black" d="M626,-1494.81C626,-1487.23 626,-1478.1 626,-1469.54"/>
<polygon fill="black" stroke="black" points="629.5,-1469.54 626,-1459.54 622.5,-1469.54 629.5,-1469.54"/>
</g>
<!-- j1930847563 -->
<g id="node8" class="node">
<title>j1930847563</title>
<polygon fill="none" stroke="blue" points="1747,-1458 1087,-1458 1087,-1422 1747,-1422 1747,-1458"/>
<text text-anchor="middle" x="1417" y="-1436.3" font-family="Times New Roman,serif" font-size="14.00">Ми протистоїмо армії скелетів у гнилих обладунках, а над нами сидить Бог Грому, похмурий і осудливий</text>
</g>
<!-- j215604121&#45;&gt;j1930847563 -->
<g id="edge7" class="edge">
<title>j215604121&#45;&gt;j1930847563</title>
<path fill="none" stroke="black" d="M1417,-1494.81C1417,-1487.23 1417,-1478.1 1417,-1469.54"/>
<polygon fill="black" stroke="black" points="1420.5,-1469.54 1417,-1459.54 1413.5,-1469.54 1420.5,-1469.54"/>
</g>
<!-- j3663021665 -->
<g id="node9" class="node">
<title>j3663021665</title>
<polygon fill="none" stroke="red" points="613,-1385 559,-1385 559,-1349 613,-1349 613,-1385"/>
<text text-anchor="middle" x="586" y="-1363.3" font-family="Times New Roman,serif" font-size="14.00">…І?</text>
</g>
<!-- j3095065315&#45;&gt;j3663021665 -->
<g id="edge8" class="edge">
<title>j3095065315&#45;&gt;j3663021665</title>
<path fill="none" stroke="black" d="M616.32,-1421.81C611.75,-1413.7 606.19,-1403.84 601.09,-1394.78"/>
<polygon fill="black" stroke="black" points="604.29,-1393.34 596.34,-1386.35 598.2,-1396.78 604.29,-1393.34"/>
</g>
<!-- j438809283 -->
<g id="node10" class="node">
<title>j438809283</title>
<polygon fill="none" stroke="red" points="705,-1385 631,-1385 631,-1349 705,-1349 705,-1385"/>
<text text-anchor="middle" x="668" y="-1363.3" font-family="Times New Roman,serif" font-size="14.00">О… гм…</text>
</g>
<!-- j3095065315&#45;&gt;j438809283 -->
<g id="edge9" class="edge">
<title>j3095065315&#45;&gt;j438809283</title>
<path fill="none" stroke="black" d="M636.17,-1421.81C640.96,-1413.7 646.8,-1403.84 652.16,-1394.78"/>
<polygon fill="black" stroke="black" points="655.08,-1396.72 657.16,-1386.33 649.05,-1393.16 655.08,-1396.72"/>
</g>
<!-- j1970187227 -->
<g id="node11" class="node">
<title>j1970187227</title>
<polygon fill="none" stroke="red" points="1412,-1385 1358,-1385 1358,-1349 1412,-1349 1412,-1385"/>
<text text-anchor="middle" x="1385" y="-1363.3" font-family="Times New Roman,serif" font-size="14.00">…І?</text>
</g>
<!-- j1930847563&#45;&gt;j1970187227 -->
<g id="edge10" class="edge">
<title>j1930847563&#45;&gt;j1970187227</title>
<path fill="none" stroke="black" d="M1409.25,-1421.81C1405.68,-1413.88 1401.34,-1404.26 1397.33,-1395.36"/>
<polygon fill="black" stroke="black" points="1400.6,-1394.09 1393.3,-1386.41 1394.22,-1396.96 1400.6,-1394.09"/>
</g>
<!-- j3894472939 -->
<g id="node12" class="node">
<title>j3894472939</title>
<polygon fill="none" stroke="red" points="1493.5,-1385 1430.5,-1385 1430.5,-1349 1493.5,-1349 1493.5,-1385"/>
<text text-anchor="middle" x="1462" y="-1363.3" font-family="Times New Roman,serif" font-size="14.00">Гм, о…</text>
</g>
<!-- j1930847563&#45;&gt;j3894472939 -->
<g id="edge11" class="edge">
<title>j1930847563&#45;&gt;j3894472939</title>
<path fill="none" stroke="black" d="M1427.89,-1421.81C1433.09,-1413.62 1439.42,-1403.62 1445.21,-1394.48"/>
<polygon fill="black" stroke="black" points="1448,-1396.63 1450.4,-1386.31 1442.09,-1392.88 1448,-1396.63"/>
</g>
<!-- j3988497787 -->
<g id="node13" class="node">
<title>j3988497787</title>
<polygon fill="none" stroke="blue" points="780,-1312 454,-1312 454,-1276 780,-1276 780,-1312"/>
<text text-anchor="middle" x="617" y="-1290.3" font-family="Times New Roman,serif" font-size="14.00">ЦЕ КВІНСІ В МАЛЕНЬКИХ РОЖЕВИХ ШОРТАХ</text>
</g>
<!-- j3663021665&#45;&gt;j3988497787 -->
<g id="edge12" class="edge">
<title>j3663021665&#45;&gt;j3988497787</title>
<path fill="none" stroke="black" d="M593.5,-1348.81C596.97,-1340.88 601.17,-1331.26 605.05,-1322.36"/>
<polygon fill="black" stroke="black" points="608.17,-1323.98 608.96,-1313.42 601.75,-1321.18 608.17,-1323.98"/>
</g>
<!-- j438809283&#45;&gt;j3988497787 -->
<g id="edge13" class="edge">
<title>j438809283&#45;&gt;j3988497787</title>
<path fill="none" stroke="black" d="M655.65,-1348.81C649.7,-1340.53 642.44,-1330.41 635.81,-1321.19"/>
<polygon fill="black" stroke="black" points="638.79,-1319.34 630.11,-1313.26 633.11,-1323.42 638.79,-1319.34"/>
</g>
<!-- j2010206160 -->
<g id="node14" class="node">
<title>j2010206160</title>
<polygon fill="none" stroke="blue" points="1450.5,-1312 1377.5,-1312 1377.5,-1276 1450.5,-1276 1450.5,-1312"/>
<text text-anchor="middle" x="1414" y="-1290.3" font-family="Times New Roman,serif" font-size="14.00">ЦЕ АМІР</text>
</g>
<!-- j1970187227&#45;&gt;j2010206160 -->
<g id="edge14" class="edge">
<title>j1970187227&#45;&gt;j2010206160</title>
<path fill="none" stroke="black" d="M1392.02,-1348.81C1395.23,-1340.96 1399.1,-1331.47 1402.7,-1322.66"/>
<polygon fill="black" stroke="black" points="1405.93,-1324.01 1406.47,-1313.43 1399.45,-1321.36 1405.93,-1324.01"/>
</g>
<!-- j3894472939&#45;&gt;j2010206160 -->
<g id="edge15" class="edge">
<title>j3894472939&#45;&gt;j2010206160</title>
<path fill="none" stroke="black" d="M1450.38,-1348.81C1444.84,-1340.62 1438.08,-1330.62 1431.91,-1321.48"/>
<polygon fill="black" stroke="black" points="1434.86,-1319.61 1426.36,-1313.28 1429.06,-1323.53 1434.86,-1319.61"/>
</g>
<!-- j3808077040 -->
<g id="node15" class="node">
<title>j3808077040</title>
<polygon fill="none" stroke="blue" points="665.5,-1239 568.5,-1239 568.5,-1203 665.5,-1203 665.5,-1239"/>
<text text-anchor="middle" x="617" y="-1217.3" font-family="Times New Roman,serif" font-size="14.00">З КРИЛАМИ</text>
</g>
<!-- j3988497787&#45;&gt;j3808077040 -->
<g id="edge16" class="edge">
<title>j3988497787&#45;&gt;j3808077040</title>
<path fill="none" stroke="black" d="M617,-1275.81C617,-1268.23 617,-1259.1 617,-1250.54"/>
<polygon fill="black" stroke="black" points="620.5,-1250.54 617,-1240.54 613.5,-1250.54 620.5,-1250.54"/>
</g>
<!-- j3754912990 -->
<g id="node16" class="node">
<title>j3754912990</title>
<polygon fill="none" stroke="blue" points="1581.5,-1239 1246.5,-1239 1246.5,-1203 1581.5,-1203 1581.5,-1239"/>
<text text-anchor="middle" x="1414" y="-1217.3" font-family="Times New Roman,serif" font-size="14.00">КИДАЄ КОСТІ, ЩОБИ ВИРІШИТИ НАШУ ДОЛЮ</text>
</g>
<!-- j2010206160&#45;&gt;j3754912990 -->
<g id="edge17" class="edge">
<title>j2010206160&#45;&gt;j3754912990</title>
<path fill="none" stroke="black" d="M1414,-1275.81C1414,-1268.23 1414,-1259.1 1414,-1250.54"/>
<polygon fill="black" stroke="black" points="1417.5,-1250.54 1414,-1240.54 1410.5,-1250.54 1417.5,-1250.54"/>
</g>
<!-- j4250112407 -->
<g id="node17" class="node">
<title>j4250112407</title>
<polygon fill="none" stroke="blue" points="695.5,-1166 538.5,-1166 538.5,-1130 695.5,-1130 695.5,-1166"/>
<text text-anchor="middle" x="617" y="-1144.3" font-family="Times New Roman,serif" font-size="14.00">СТРІЛЕЦЬ КОХАННЯ</text>
</g>
<!-- j3808077040&#45;&gt;j4250112407 -->
<g id="edge18" class="edge">
<title>j3808077040&#45;&gt;j4250112407</title>
<path fill="none" stroke="black" d="M617,-1202.81C617,-1195.23 617,-1186.1 617,-1177.54"/>
<polygon fill="black" stroke="black" points="620.5,-1177.54 617,-1167.54 613.5,-1177.54 620.5,-1177.54"/>
</g>
<!-- j3803102280 -->
<g id="node18" class="node">
<title>j3803102280</title>
<polygon fill="none" stroke="blue" points="1509,-1166 1319,-1166 1319,-1130 1509,-1130 1509,-1166"/>
<text text-anchor="middle" x="1414" y="-1144.3" font-family="Times New Roman,serif" font-size="14.00">ПРОСЛАВЛЕНИЙ БАЙКАР</text>
</g>
<!-- j3754912990&#45;&gt;j3803102280 -->
<g id="edge19" class="edge">
<title>j3754912990&#45;&gt;j3803102280</title>
<path fill="none" stroke="black" d="M1414,-1202.81C1414,-1195.23 1414,-1186.1 1414,-1177.54"/>
<polygon fill="black" stroke="black" points="1417.5,-1177.54 1414,-1167.54 1410.5,-1177.54 1417.5,-1177.54"/>
</g>
<!-- j404443352 -->
<g id="node19" class="node">
<title>j404443352</title>
<polygon fill="none" stroke="red" points="640,-1093 312,-1093 312,-1057 640,-1057 640,-1093"/>
<text text-anchor="middle" x="476" y="-1071.3" font-family="Times New Roman,serif" font-size="14.00">Цей образ ніколи не вийде в мене з голови. Дякую!</text>
</g>
<!-- j4250112407&#45;&gt;j404443352 -->
<g id="edge20" class="edge">
<title>j4250112407&#45;&gt;j404443352</title>
<path fill="none" stroke="black" d="M582.51,-1129.63C563.9,-1120.26 540.72,-1108.59 520.74,-1098.53"/>
<polygon fill="black" stroke="black" points="522.48,-1095.49 511.98,-1094.12 519.33,-1101.74 522.48,-1095.49"/>
</g>
<!-- j1974776616 -->
<g id="node20" class="node">
<title>j1974776616</title>
<polygon fill="none" stroke="red" points="861.5,-1093 658.5,-1093 658.5,-1057 861.5,-1057 861.5,-1093"/>
<text text-anchor="middle" x="760" y="-1071.3" font-family="Times New Roman,serif" font-size="14.00">Я не можу перестати сміятися.</text>
</g>
<!-- j4250112407&#45;&gt;j1974776616 -->
<g id="edge21" class="edge">
<title>j4250112407&#45;&gt;j1974776616</title>
<path fill="none" stroke="black" d="M651.98,-1129.63C670.85,-1120.26 694.36,-1108.59 714.62,-1098.53"/>
<polygon fill="black" stroke="black" points="716.13,-1101.69 723.53,-1094.11 713.01,-1095.42 716.13,-1101.69"/>
</g>
<!-- j3488240430 -->
<g id="node21" class="node">
<title>j3488240430</title>
<polygon fill="none" stroke="blue" points="1482.5,-1093 1345.5,-1093 1345.5,-1057 1482.5,-1057 1482.5,-1093"/>
<text text-anchor="middle" x="1414" y="-1071.3" font-family="Times New Roman,serif" font-size="14.00">Я мушу це зробити.</text>
</g>
<!-- j3803102280&#45;&gt;j3488240430 -->
<g id="edge22" class="edge">
<title>j3803102280&#45;&gt;j3488240430</title>
<path fill="none" stroke="black" d="M1414,-1129.81C1414,-1122.23 1414,-1113.1 1414,-1104.54"/>
<polygon fill="black" stroke="black" points="1417.5,-1104.54 1414,-1094.54 1410.5,-1104.54 1417.5,-1104.54"/>
</g>
<!-- j99022657 -->
<g id="node22" class="node">
<title>j99022657</title>
<polygon fill="none" stroke="blue" points="606.5,-1020 499.5,-1020 499.5,-984 606.5,-984 606.5,-1020"/>
<text text-anchor="middle" x="553" y="-998.3" font-family="Times New Roman,serif" font-size="14.00">Та, будь ласка.</text>
</g>
<!-- j404443352&#45;&gt;j99022657 -->
<g id="edge23" class="edge">
<title>j404443352&#45;&gt;j99022657</title>
<path fill="none" stroke="black" d="M494.64,-1056.81C504.03,-1048.16 515.59,-1037.5 525.93,-1027.96"/>
<polygon fill="black" stroke="black" points="528.17,-1030.65 533.15,-1021.3 523.43,-1025.51 528.17,-1030.65"/>
</g>
<!-- j1974776616&#45;&gt;j99022657 -->
<g id="edge24" class="edge">
<title>j1974776616&#45;&gt;j99022657</title>
<path fill="none" stroke="black" d="M709.1,-1056.54C680.52,-1046.74 644.67,-1034.44 614.53,-1024.1"/>
<polygon fill="black" stroke="black" points="615.73,-1020.82 605.14,-1020.88 613.46,-1027.44 615.73,-1020.82"/>
</g>
<!-- j1924990527 -->
<g id="node23" class="node">
<title>j1924990527</title>
<polygon fill="none" stroke="red" points="1565,-1020 1237,-1020 1237,-984 1565,-984 1565,-1020"/>
<text text-anchor="middle" x="1401" y="-998.3" font-family="Times New Roman,serif" font-size="14.00">Цей образ ніколи не вийде в мене з голови. Дякую!</text>
</g>
<!-- j3488240430&#45;&gt;j1924990527 -->
<g id="edge25" class="edge">
<title>j3488240430&#45;&gt;j1924990527</title>
<path fill="none" stroke="black" d="M1410.85,-1056.81C1409.45,-1049.14 1407.75,-1039.89 1406.17,-1031.24"/>
<polygon fill="black" stroke="black" points="1409.63,-1030.72 1404.39,-1021.52 1402.75,-1031.98 1409.63,-1030.72"/>
</g>
<!-- j678289900 -->
<g id="node24" class="node">
<title>j678289900</title>
<polygon fill="none" stroke="red" points="1786.5,-1020 1583.5,-1020 1583.5,-984 1786.5,-984 1786.5,-1020"/>
<text text-anchor="middle" x="1685" y="-998.3" font-family="Times New Roman,serif" font-size="14.00">Я не можу перестати сміятися.</text>
</g>
<!-- j3488240430&#45;&gt;j678289900 -->
<g id="edge26" class="edge">
<title>j3488240430&#45;&gt;j678289900</title>
<path fill="none" stroke="black" d="M1480.64,-1056.54C1519.03,-1046.48 1567.47,-1033.79 1607.55,-1023.29"/>
<polygon fill="black" stroke="black" points="1608.37,-1026.7 1617.15,-1020.78 1606.59,-1019.92 1608.37,-1026.7"/>
</g>
<!-- j108978275 -->
<g id="node25" class="node">
<title>j108978275</title>
<polygon fill="none" stroke="blue" points="723.5,-947 382.5,-947 382.5,-911 723.5,-911 723.5,-947"/>
<text text-anchor="middle" x="553" y="-925.3" font-family="Times New Roman,serif" font-size="14.00">Я намагалася знайти момент, розумієш. Але не можу.</text>
</g>
<!-- j99022657&#45;&gt;j108978275 -->
<g id="edge27" class="edge">
<title>j99022657&#45;&gt;j108978275</title>
<path fill="none" stroke="black" d="M553,-983.81C553,-976.23 553,-967.1 553,-958.54"/>
<polygon fill="black" stroke="black" points="556.5,-958.54 553,-948.54 549.5,-958.54 556.5,-958.54"/>
</g>
<!-- j3310820668 -->
<g id="node26" class="node">
<title>j3310820668</title>
<polygon fill="none" stroke="blue" points="1732.5,-947 1625.5,-947 1625.5,-911 1732.5,-911 1732.5,-947"/>
<text text-anchor="middle" x="1679" y="-925.3" font-family="Times New Roman,serif" font-size="14.00">Та, будь ласка.</text>
</g>
<!-- j1924990527&#45;&gt;j3310820668 -->
<g id="edge28" class="edge">
<title>j1924990527&#45;&gt;j3310820668</title>
<path fill="none" stroke="black" d="M1469.36,-983.54C1513.58,-972.25 1570.79,-957.64 1614.28,-946.53"/>
<polygon fill="black" stroke="black" points="1615.01,-949.95 1623.83,-944.09 1613.28,-943.17 1615.01,-949.95"/>
</g>
<!-- j678289900&#45;&gt;j3310820668 -->
<g id="edge29" class="edge">
<title>j678289900&#45;&gt;j3310820668</title>
<path fill="none" stroke="black" d="M1683.55,-983.81C1682.9,-976.14 1682.12,-966.89 1681.39,-958.24"/>
<polygon fill="black" stroke="black" points="1684.9,-958.21 1680.57,-948.54 1677.92,-958.8 1684.9,-958.21"/>
</g>
<!-- j1607017577 -->
<g id="node27" class="node">
<title>j1607017577</title>
<polygon fill="none" stroke="red" points="588.5,-874 517.5,-874 517.5,-838 588.5,-838 588.5,-874"/>
<text text-anchor="middle" x="553" y="-852.3" font-family="Times New Roman,serif" font-size="14.00">Момент?</text>
</g>
<!-- j108978275&#45;&gt;j1607017577 -->
<g id="edge30" class="edge">
<title>j108978275&#45;&gt;j1607017577</title>
<path fill="none" stroke="black" d="M553,-910.81C553,-903.23 553,-894.1 553,-885.54"/>
<polygon fill="black" stroke="black" points="556.5,-885.54 553,-875.54 549.5,-885.54 556.5,-885.54"/>
</g>
<!-- j2913230787 -->
<g id="node28" class="node">
<title>j2913230787</title>
<polygon fill="none" stroke="blue" points="1849.5,-874 1508.5,-874 1508.5,-838 1849.5,-838 1849.5,-874"/>
<text text-anchor="middle" x="1679" y="-852.3" font-family="Times New Roman,serif" font-size="14.00">Я намагалася знайти момент, розумієш. Але не можу.</text>
</g>
<!-- j3310820668&#45;&gt;j2913230787 -->
<g id="edge31" class="edge">
<title>j3310820668&#45;&gt;j2913230787</title>
<path fill="none" stroke="black" d="M1679,-910.81C1679,-903.23 1679,-894.1 1679,-885.54"/>
<polygon fill="black" stroke="black" points="1682.5,-885.54 1679,-875.54 1675.5,-885.54 1682.5,-885.54"/>
</g>
<!-- j533635197 -->
<g id="node29" class="node">
<title>j533635197</title>
<polygon fill="none" stroke="blue" points="731,-801 375,-801 375,-765 731,-765 731,-801"/>
<text text-anchor="middle" x="553" y="-779.3" font-family="Times New Roman,serif" font-size="14.00">Момент, коли я зрозуміла, що закохалася в тебе, звісно.</text>
</g>
<!-- j1607017577&#45;&gt;j533635197 -->
<g id="edge32" class="edge">
<title>j1607017577&#45;&gt;j533635197</title>
<path fill="none" stroke="black" d="M553,-837.81C553,-830.23 553,-821.1 553,-812.54"/>
<polygon fill="black" stroke="black" points="556.5,-812.54 553,-802.54 549.5,-812.54 556.5,-812.54"/>
</g>
<!-- j2115535311 -->
<g id="node30" class="node">
<title>j2115535311</title>
<polygon fill="none" stroke="red" points="1714.5,-801 1643.5,-801 1643.5,-765 1714.5,-765 1714.5,-801"/>
<text text-anchor="middle" x="1679" y="-779.3" font-family="Times New Roman,serif" font-size="14.00">Момент?</text>
</g>
<!-- j2913230787&#45;&gt;j2115535311 -->
<g id="edge33" class="edge">
<title>j2913230787&#45;&gt;j2115535311</title>
<path fill="none" stroke="black" d="M1679,-837.81C1679,-830.23 1679,-821.1 1679,-812.54"/>
<polygon fill="black" stroke="black" points="1682.5,-812.54 1679,-802.54 1675.5,-812.54 1682.5,-812.54"/>
</g>
<!-- j2579109366 -->
<g id="node31" class="node">
<title>j2579109366</title>
<polygon fill="none" stroke="blue" points="917.5,-728 188.5,-728 188.5,-692 917.5,-692 917.5,-728"/>
<text text-anchor="middle" x="553" y="-706.3" font-family="Times New Roman,serif" font-size="14.00">Пам’ятаю, як подумала: «Ну, це до біса незручно, Елеоноро, тепер ти обов’язково виставиш себе повною дурепою».</text>
</g>
<!-- j533635197&#45;&gt;j2579109366 -->
<g id="edge34" class="edge">
<title>j533635197&#45;&gt;j2579109366</title>
<path fill="none" stroke="black" d="M553,-764.81C553,-757.23 553,-748.1 553,-739.54"/>
<polygon fill="black" stroke="black" points="556.5,-739.54 553,-729.54 549.5,-739.54 556.5,-739.54"/>
</g>
<!-- j40330318 -->
<g id="node32" class="node">
<title>j40330318</title>
<polygon fill="none" stroke="blue" points="1975,-728 1383,-728 1383,-692 1975,-692 1975,-728"/>
<text text-anchor="middle" x="1679" y="-706.3" font-family="Times New Roman,serif" font-size="14.00">Момент, коли я зрозуміла, що ти змінив моє життя. Коли пробрався в моє серце і став рідним.</text>
</g>
<!-- j2115535311&#45;&gt;j40330318 -->
<g id="edge35" class="edge">
<title>j2115535311&#45;&gt;j40330318</title>
<path fill="none" stroke="black" d="M1679,-764.81C1679,-757.23 1679,-748.1 1679,-739.54"/>
<polygon fill="black" stroke="black" points="1682.5,-739.54 1679,-729.54 1675.5,-739.54 1682.5,-739.54"/>
</g>
<!-- j922842011 -->
<g id="node33" class="node">
<title>j922842011</title>
<polygon fill="none" stroke="blue" points="661.5,-655 444.5,-655 444.5,-619 661.5,-619 661.5,-655"/>
<text text-anchor="middle" x="553" y="-633.3" font-family="Times New Roman,serif" font-size="14.00">Але не тоді коли і що ми робили.</text>
</g>
<!-- j2579109366&#45;&gt;j922842011 -->
<g id="edge36" class="edge">
<title>j2579109366&#45;&gt;j922842011</title>
<path fill="none" stroke="black" d="M553,-691.81C553,-684.23 553,-675.1 553,-666.54"/>
<polygon fill="black" stroke="black" points="556.5,-666.54 553,-656.54 549.5,-666.54 556.5,-666.54"/>
</g>
<!-- j3365272601 -->
<g id="node34" class="node">
<title>j3365272601</title>
<polygon fill="none" stroke="blue" points="2109,-655 1249,-655 1249,-619 2109,-619 2109,-655"/>
<text text-anchor="middle" x="1679" y="-633.3" font-family="Times New Roman,serif" font-size="14.00">Гадаю, я маю подякувати тобі. За вислуховування мене. За задовольняння усіх моїх диких фантазій. І, найголовніше, за те, що ти мій друг.</text>
</g>
<!-- j40330318&#45;&gt;j3365272601 -->
<g id="edge37" class="edge">
<title>j40330318&#45;&gt;j3365272601</title>
<path fill="none" stroke="black" d="M1679,-691.81C1679,-684.23 1679,-675.1 1679,-666.54"/>
<polygon fill="black" stroke="black" points="1682.5,-666.54 1679,-656.54 1675.5,-666.54 1682.5,-666.54"/>
</g>
<!-- j2436323194 -->
<g id="node35" class="node">
<title>j2436323194</title>
<polygon fill="none" stroke="red" points="369,-582 31,-582 31,-546 369,-546 369,-582"/>
<text text-anchor="middle" x="200" y="-560.3" font-family="Times New Roman,serif" font-size="14.00">Я… ох. Я не готовий до таких зобов’язань… Вибач.</text>
</g>
<!-- j922842011&#45;&gt;j2436323194 -->
<g id="edge38" class="edge">
<title>j922842011&#45;&gt;j2436323194</title>
<path fill="none" stroke="black" d="M466.19,-618.54C415.21,-608.29 350.63,-595.3 297.85,-584.68"/>
<polygon fill="black" stroke="black" points="298.75,-581.29 288.26,-582.75 297.37,-588.16 298.75,-581.29"/>
</g>
<!-- j689079460 -->
<g id="node36" class="node">
<title>j689079460</title>
<polygon fill="none" stroke="red" points="649,-582 457,-582 457,-546 649,-546 649,-582"/>
<text text-anchor="middle" x="553" y="-560.3" font-family="Times New Roman,serif" font-size="14.00">Це неважливо. Я тебе кохаю.</text>
</g>
<!-- j922842011&#45;&gt;j689079460 -->
<g id="edge39" class="edge">
<title>j922842011&#45;&gt;j689079460</title>
<path fill="none" stroke="black" d="M553,-618.81C553,-611.23 553,-602.1 553,-593.54"/>
<polygon fill="black" stroke="black" points="556.5,-593.54 553,-583.54 549.5,-593.54 556.5,-593.54"/>
</g>
<!-- j863512063 -->
<g id="node37" class="node">
<title>j863512063</title>
<polygon fill="none" stroke="blue" points="1754,-528 1604,-528 1604,-492 1754,-492 1754,-528"/>
<text text-anchor="middle" x="1679" y="-506.3" font-family="Times New Roman,serif" font-size="14.00">Назавжди твоя, Е. ххх</text>
</g>
<!-- j3365272601&#45;&gt;j863512063 -->
<g id="edge40" class="edge">
<title>j3365272601&#45;&gt;j863512063</title>
<path fill="none" stroke="black" d="M1679,-618.62C1679,-598.19 1679,-563.99 1679,-539.62"/>
<polygon fill="black" stroke="black" points="1682.5,-539.75 1679,-529.75 1675.5,-539.75 1682.5,-539.75"/>
</g>
<!-- j1405434387 -->
<g id="node38" class="node">
<title>j1405434387</title>
<polygon fill="none" stroke="blue" points="134,-474 80,-474 80,-438 134,-438 134,-474"/>
<text text-anchor="middle" x="107" y="-452.3" font-family="Times New Roman,serif" font-size="14.00">Ну…</text>
</g>
<!-- j2436323194&#45;&gt;j1405434387 -->
<g id="edge41" class="edge">
<title>j2436323194&#45;&gt;j1405434387</title>
<path fill="none" stroke="black" d="M185.06,-545.97C170.1,-528.92 146.88,-502.46 129.66,-482.82"/>
<polygon fill="black" stroke="black" points="132.44,-480.69 123.21,-475.48 127.18,-485.3 132.44,-480.69"/>
</g>
<!-- j2920416159 -->
<g id="node39" class="node">
<title>j2920416159</title>
<polygon fill="none" stroke="blue" points="630.5,-474 529.5,-474 529.5,-438 630.5,-438 630.5,-474"/>
<text text-anchor="middle" x="580" y="-452.3" font-family="Times New Roman,serif" font-size="14.00">Я тебе кохаю.</text>
</g>
<!-- j689079460&#45;&gt;j2920416159 -->
<g id="edge42" class="edge">
<title>j689079460&#45;&gt;j2920416159</title>
<path fill="none" stroke="black" d="M557.34,-545.97C561.51,-529.61 567.88,-504.59 572.81,-485.24"/>
<polygon fill="black" stroke="black" points="576.13,-486.36 575.21,-475.81 569.35,-484.63 576.13,-486.36"/>
</g>
<!-- Chat ends. -->
<g id="node40" class="node">
<title>Chat ends.</title>
<ellipse fill="none" stroke="orange" cx="667" cy="-18" rx="50.09" ry="18"/>
<text text-anchor="middle" x="667" y="-14.3" font-family="Times New Roman,serif" font-size="14.00">Chat ends.</text>
</g>
<!-- j863512063&#45;&gt;Chat ends. -->
<g id="edge43" class="edge">
<title>j863512063&#45;&gt;Chat ends.</title>
<path fill="none" stroke="black" d="M1679,-491.61C1679,-473.66 1679,-444.88 1679,-420 1679,-420 1679,-420 1679,-90 1679,-42.09 947.79,-24.33 728.46,-20.08"/>
<polygon fill="black" stroke="black" points="728.76,-16.58 718.7,-19.89 728.63,-23.58 728.76,-16.58"/>
</g>
<!-- j1848130983 -->
<g id="node41" class="node">
<title>j1848130983</title>
<polygon fill="none" stroke="blue" points="114,-401 34,-401 34,-365 114,-365 114,-401"/>
<text text-anchor="middle" x="74" y="-379.3" font-family="Times New Roman,serif" font-size="14.00">… трясця.</text>
</g>
<!-- j1405434387&#45;&gt;j1848130983 -->
<g id="edge44" class="edge">
<title>j1405434387&#45;&gt;j1848130983</title>
<path fill="none" stroke="black" d="M99.01,-437.81C95.32,-429.88 90.85,-420.26 86.72,-411.36"/>
<polygon fill="black" stroke="black" points="89.94,-409.99 82.55,-402.4 83.59,-412.94 89.94,-409.99"/>
</g>
<!-- j1555935770 -->
<g id="node42" class="node">
<title>j1555935770</title>
<polygon fill="none" stroke="blue" points="1333.5,-401 132.5,-401 132.5,-365 1333.5,-365 1333.5,-401"/>
<text text-anchor="middle" x="733" y="-379.3" font-family="Times New Roman,serif" font-size="14.00">Мій мандрівниче. Ти увірвався в моєму житті та перевернув все з ніг на голову. З усіх варіантів, які були, ти обрав мене. Ти залишив мене з широко розплющеними очима і здивованим поглядом.</text>
</g>
<!-- j2920416159&#45;&gt;j1555935770 -->
<g id="edge45" class="edge">
<title>j2920416159&#45;&gt;j1555935770</title>
<path fill="none" stroke="black" d="M617.43,-437.63C637.8,-428.18 663.23,-416.38 685.05,-406.25"/>
<polygon fill="black" stroke="black" points="686.46,-409.46 694.06,-402.07 683.51,-403.11 686.46,-409.46"/>
</g>
<!-- j176227316 -->
<g id="node43" class="node">
<title>j176227316</title>
<polygon fill="none" stroke="blue" points="336,-328 0,-328 0,-292 336,-292 336,-328"/>
<text text-anchor="middle" x="168" y="-306.3" font-family="Times New Roman,serif" font-size="14.00">Який в біса сенс? Я тебе питаю. Який в біса СЕНС??</text>
</g>
<!-- j1848130983&#45;&gt;j176227316 -->
<g id="edge46" class="edge">
<title>j1848130983&#45;&gt;j176227316</title>
<path fill="none" stroke="black" d="M96.75,-364.81C108.56,-355.9 123.18,-344.86 136.09,-335.1"/>
<polygon fill="black" stroke="black" points="138.05,-338.01 143.92,-329.19 133.83,-332.42 138.05,-338.01"/>
</g>
<!-- j1958587510 -->
<g id="node44" class="node">
<title>j1958587510</title>
<polygon fill="none" stroke="blue" points="1064,-328 370,-328 370,-292 1064,-292 1064,-328"/>
<text text-anchor="middle" x="717" y="-306.3" font-family="Times New Roman,serif" font-size="14.00">Чи можу я зацікавити тебе захопленими поцілунками з можливістю перейти до нестримного заняття коханням?</text>
</g>
<!-- j1555935770&#45;&gt;j1958587510 -->
<g id="edge47" class="edge">
<title>j1555935770&#45;&gt;j1958587510</title>
<path fill="none" stroke="black" d="M729.13,-364.81C727.4,-357.14 725.31,-347.89 723.36,-339.24"/>
<polygon fill="black" stroke="black" points="726.78,-338.49 721.17,-329.51 719.95,-340.03 726.78,-338.49"/>
</g>
<!-- j137729777 -->
<g id="node45" class="node">
<title>j137729777</title>
<ellipse fill="none" stroke="orange" cx="185" cy="-237" rx="120.78" ry="18"/>
<text text-anchor="middle" x="185" y="-233.3" font-family="Times New Roman,serif" font-size="14.00">Boolean IsDating is now false.</text>
</g>
<!-- j176227316&#45;&gt;j137729777 -->
<g id="edge48" class="edge">
<title>j176227316&#45;&gt;j137729777</title>
<path fill="none" stroke="black" d="M172.12,-291.81C173.97,-284.05 176.22,-274.68 178.31,-265.95"/>
<polygon fill="black" stroke="black" points="181.65,-267.04 180.57,-256.5 174.84,-265.41 181.65,-267.04"/>
</g>
<!-- j1340314102 -->
<g id="node46" class="node">
<title>j1340314102</title>
<polygon fill="none" stroke="red" points="472,-255 418,-255 418,-219 472,-219 472,-255"/>
<text text-anchor="middle" x="445" y="-233.3" font-family="Times New Roman,serif" font-size="14.00">ТАК.</text>
</g>
<!-- j1958587510&#45;&gt;j1340314102 -->
<g id="edge49" class="edge">
<title>j1958587510&#45;&gt;j1340314102</title>
<path fill="none" stroke="black" d="M638.86,-291.56C596.38,-281.66 543.06,-268.57 496,-255 491.78,-253.78 487.39,-252.44 483.04,-251.06"/>
<polygon fill="black" stroke="black" points="484.43,-247.83 473.84,-248.06 482.26,-254.49 484.43,-247.83"/>
</g>
<!-- j2305366466 -->
<g id="node47" class="node">
<title>j2305366466</title>
<polygon fill="none" stroke="red" points="868.5,-255 505.5,-255 505.5,-219 868.5,-219 868.5,-255"/>
<text text-anchor="middle" x="687" y="-233.3" font-family="Times New Roman,serif" font-size="14.00">Почнемо з поцілунків і подивимося, до чого ми дійдемо.</text>
</g>
<!-- j1958587510&#45;&gt;j2305366466 -->
<g id="edge50" class="edge">
<title>j1958587510&#45;&gt;j2305366466</title>
<path fill="none" stroke="black" d="M709.74,-291.81C706.38,-283.88 702.32,-274.26 698.56,-265.36"/>
<polygon fill="black" stroke="black" points="701.9,-264.27 694.78,-256.42 695.45,-267 701.9,-264.27"/>
</g>
<!-- j2505191491 -->
<g id="node48" class="node">
<title>j2505191491</title>
<polygon fill="none" stroke="red" points="1267,-255 941,-255 941,-219 1267,-219 1267,-255"/>
<text text-anchor="middle" x="1104" y="-233.3" font-family="Times New Roman,serif" font-size="14.00">Давай не будемо поспішати. Поцілунків достатньо.</text>
</g>
<!-- j1958587510&#45;&gt;j2505191491 -->
<g id="edge51" class="edge">
<title>j1958587510&#45;&gt;j2505191491</title>
<path fill="none" stroke="black" d="M812.17,-291.54C868.41,-281.22 939.75,-268.13 997.81,-257.48"/>
<polygon fill="black" stroke="black" points="998.17,-260.97 1007.38,-255.73 996.91,-254.09 998.17,-260.97"/>
</g>
<!-- j1197105538 -->
<g id="node49" class="node">
<title>j1197105538</title>
<ellipse fill="none" stroke="orange" cx="197" cy="-164" rx="141.88" ry="18"/>
<text text-anchor="middle" x="197" y="-160.3" font-family="Times New Roman,serif" font-size="14.00">Boolean EleanorDating is now false.</text>
</g>
<!-- j137729777&#45;&gt;j1197105538 -->
<g id="edge52" class="edge">
<title>j137729777&#45;&gt;j1197105538</title>
<path fill="none" stroke="black" d="M187.9,-218.81C189.2,-211.14 190.76,-201.89 192.23,-193.24"/>
<polygon fill="black" stroke="black" points="195.65,-193.96 193.87,-183.52 188.75,-192.8 195.65,-193.96"/>
</g>
<!-- j3272502707 -->
<g id="node50" class="node">
<title>j3272502707</title>
<polygon fill="none" stroke="blue" points="423.5,-182 358.5,-182 358.5,-146 423.5,-146 423.5,-182"/>
<text text-anchor="middle" x="391" y="-160.3" font-family="Times New Roman,serif" font-size="14.00">Чудово.</text>
</g>
<!-- j1340314102&#45;&gt;j3272502707 -->
<g id="edge53" class="edge">
<title>j1340314102&#45;&gt;j3272502707</title>
<path fill="none" stroke="black" d="M431.93,-218.81C425.56,-210.44 417.77,-200.2 410.7,-190.9"/>
<polygon fill="black" stroke="black" points="413.71,-189.07 404.87,-183.23 408.14,-193.31 413.71,-189.07"/>
</g>
<!-- j2495540272 -->
<g id="node51" class="node">
<title>j2495540272</title>
<polygon fill="none" stroke="blue" points="892.5,-182 441.5,-182 441.5,-146 892.5,-146 892.5,-182"/>
<text text-anchor="middle" x="667" y="-160.3" font-family="Times New Roman,serif" font-size="14.00">М&#45;м&#45;м. Тож давай рухатися вперед у власному темпі. Звучить ідеально.</text>
</g>
<!-- j2305366466&#45;&gt;j2495540272 -->
<g id="edge54" class="edge">
<title>j2305366466&#45;&gt;j2495540272</title>
<path fill="none" stroke="black" d="M682.16,-218.81C679.97,-211.05 677.33,-201.68 674.87,-192.95"/>
<polygon fill="black" stroke="black" points="678.29,-192.16 672.21,-183.49 671.55,-194.06 678.29,-192.16"/>
</g>
<!-- j417062518 -->
<g id="node52" class="node">
<title>j417062518</title>
<polygon fill="none" stroke="blue" points="1651,-182 911,-182 911,-146 1651,-146 1651,-182"/>
<text text-anchor="middle" x="1281" y="-160.3" font-family="Times New Roman,serif" font-size="14.00">І саме в цьому полягає секрет, як це працює. Спілкування. Якщо поцілунки — це те, чого ти хочеш, то ти їх отримаєш.</text>
</g>
<!-- j2505191491&#45;&gt;j417062518 -->
<g id="edge55" class="edge">
<title>j2505191491&#45;&gt;j417062518</title>
<path fill="none" stroke="black" d="M1147.3,-218.63C1171.3,-209 1201.36,-196.95 1226.9,-186.7"/>
<polygon fill="black" stroke="black" points="1228.15,-189.97 1236.13,-183 1225.55,-183.47 1228.15,-189.97"/>
</g>
<!-- j2864742878 -->
<g id="node53" class="node">
<title>j2864742878</title>
<ellipse fill="none" stroke="orange" cx="360" cy="-91" rx="142.97" ry="18"/>
<text text-anchor="middle" x="360" y="-87.3" font-family="Times New Roman,serif" font-size="14.00">Boolean EleanorNoDate is now true.</text>
</g>
<!-- j1197105538&#45;&gt;j2864742878 -->
<g id="edge56" class="edge">
<title>j1197105538&#45;&gt;j2864742878</title>
<path fill="none" stroke="black" d="M235.22,-146.35C257.84,-136.5 286.73,-123.91 311.02,-113.34"/>
<polygon fill="black" stroke="black" points="312.3,-116.59 320.07,-109.39 309.51,-110.18 312.3,-116.59"/>
</g>
<!-- j3364123329 -->
<g id="node54" class="node">
<title>j3364123329</title>
<polygon fill="none" stroke="blue" points="760,-109 574,-109 574,-73 760,-73 760,-109"/>
<text text-anchor="middle" x="667" y="-87.3" font-family="Times New Roman,serif" font-size="14.00">З нетерпінням чекаю, Е. xxx</text>
</g>
<!-- j3272502707&#45;&gt;j3364123329 -->
<g id="edge57" class="edge">
<title>j3272502707&#45;&gt;j3364123329</title>
<path fill="none" stroke="black" d="M423.94,-148.79C426.65,-147.79 429.36,-146.84 432,-146 474.46,-132.42 522.26,-120.8 563.61,-111.85"/>
<polygon fill="black" stroke="black" points="564.28,-115.29 573.33,-109.77 562.82,-108.44 564.28,-115.29"/>
</g>
<!-- j2495540272&#45;&gt;j3364123329 -->
<g id="edge58" class="edge">
<title>j2495540272&#45;&gt;j3364123329</title>
<path fill="none" stroke="black" d="M667,-145.81C667,-138.23 667,-129.1 667,-120.54"/>
<polygon fill="black" stroke="black" points="670.5,-120.54 667,-110.54 663.5,-120.54 670.5,-120.54"/>
</g>
<!-- j417062518&#45;&gt;j3364123329 -->
<g id="edge59" class="edge">
<title>j417062518&#45;&gt;j3364123329</title>
<path fill="none" stroke="black" d="M1130.01,-145.54C1018.55,-132.65 869.73,-115.44 771.25,-104.05"/>
<polygon fill="black" stroke="black" points="771.93,-100.61 761.59,-102.94 771.12,-107.56 771.93,-100.61"/>
</g>
<!-- j2864742878&#45;&gt;Chat ends. -->
<g id="edge60" class="edge">
<title>j2864742878&#45;&gt;Chat ends.</title>
<path fill="none" stroke="black" d="M426.24,-74.68C482.73,-61.62 562.83,-43.09 614.85,-31.06"/>
<polygon fill="black" stroke="black" points="615.4,-34.53 624.36,-28.86 613.82,-27.71 615.4,-34.53"/>
</g>
<!-- j3364123329&#45;&gt;Chat ends. -->
<g id="edge61" class="edge">
<title>j3364123329&#45;&gt;Chat ends.</title>
<path fill="none" stroke="black" d="M667,-72.81C667,-65.23 667,-56.1 667,-47.54"/>
<polygon fill="black" stroke="black" points="670.5,-47.54 667,-37.54 663.5,-47.54 670.5,-47.54"/>
</g>
</g>
</svg>
