<?xml version="1.0" encoding="UTF-8" standalone="no"?>
<!DOCTYPE svg PUBLIC "-//W3C//DTD SVG 1.1//EN"
 "http://www.w3.org/Graphics/SVG/1.1/DTD/svg11.dtd">
<!-- Generated by graphviz version 7.1.0 (20230121.1956)
 -->
<!-- Pages: 1 -->
<svg width="2599pt" height="1916pt"
 viewBox="0.00 0.00 2599.00 1916.00" xmlns="http://www.w3.org/2000/svg" xmlns:xlink="http://www.w3.org/1999/xlink">
<g id="graph0" class="graph" transform="scale(1 1) rotate(0) translate(4 1912)">
<polygon fill="white" stroke="none" points="-4,4 -4,-1912 2595,-1912 2595,4 -4,4"/>
<!-- EleanorRank3Convo6 begins. -->
<g id="node1" class="node">
<title>EleanorRank3Convo6 begins.</title>
<ellipse fill="none" stroke="orange" cx="1826" cy="-1890" rx="118.88" ry="18"/>
<text text-anchor="middle" x="1826" y="-1886.3" font-family="Times New Roman,serif" font-size="14.00">EleanorRank3Convo6 begins.</text>
</g>
<!-- j3689251774 -->
<g id="node2" class="node">
<title>j3689251774</title>
<polygon fill="none" stroke="blue" points="2056.5,-1836 1595.5,-1836 1595.5,-1800 2056.5,-1800 2056.5,-1836"/>
<text text-anchor="middle" x="1826" y="-1814.3" font-family="Times New Roman,serif" font-size="14.00">Знаєш, що було найкраще в Голвенії до того, як її захопила «Скальдра»?</text>
</g>
<!-- EleanorRank3Convo6 begins.&#45;&gt;j3689251774 -->
<g id="edge1" class="edge">
<title>EleanorRank3Convo6 begins.&#45;&gt;j3689251774</title>
<path fill="none" stroke="black" d="M1826,-1871.7C1826,-1864.41 1826,-1855.73 1826,-1847.54"/>
<polygon fill="black" stroke="black" points="1829.5,-1847.62 1826,-1837.62 1822.5,-1847.62 1829.5,-1847.62"/>
</g>
<!-- j1182730844 -->
<g id="node3" class="node">
<title>j1182730844</title>
<polygon fill="none" stroke="red" points="669,-1764 573,-1764 573,-1728 669,-1728 669,-1764"/>
<text text-anchor="middle" x="621" y="-1742.3" font-family="Times New Roman,serif" font-size="14.00">Нічне життя?</text>
</g>
<!-- j3689251774&#45;&gt;j1182730844 -->
<g id="edge2" class="edge">
<title>j3689251774&#45;&gt;j1182730844</title>
<path fill="none" stroke="black" d="M1595.09,-1803.59C1310.62,-1787.06 844.85,-1760 680.6,-1750.46"/>
<polygon fill="black" stroke="black" points="681,-1746.98 670.82,-1749.89 680.6,-1753.97 681,-1746.98"/>
</g>
<!-- j1319161916 -->
<g id="node4" class="node">
<title>j1319161916</title>
<polygon fill="none" stroke="red" points="1472,-1764 1290,-1764 1290,-1728 1472,-1728 1472,-1764"/>
<text text-anchor="middle" x="1381" y="-1742.3" font-family="Times New Roman,serif" font-size="14.00">Кругообіг підпільних боїв?</text>
</g>
<!-- j3689251774&#45;&gt;j1319161916 -->
<g id="edge3" class="edge">
<title>j3689251774&#45;&gt;j1319161916</title>
<path fill="none" stroke="black" d="M1714.86,-1799.52C1644.01,-1788.37 1552.88,-1774.04 1483.74,-1763.16"/>
<polygon fill="black" stroke="black" points="1484.32,-1759.71 1473.89,-1761.61 1483.23,-1766.62 1484.32,-1759.71"/>
</g>
<!-- j4229310020 -->
<g id="node5" class="node">
<title>j4229310020</title>
<polygon fill="none" stroke="red" points="1860,-1764 1792,-1764 1792,-1728 1860,-1728 1860,-1764"/>
<text text-anchor="middle" x="1826" y="-1742.3" font-family="Times New Roman,serif" font-size="14.00">Шопінг?</text>
</g>
<!-- j3689251774&#45;&gt;j4229310020 -->
<g id="edge4" class="edge">
<title>j3689251774&#45;&gt;j4229310020</title>
<path fill="none" stroke="black" d="M1826,-1799.7C1826,-1792.41 1826,-1783.73 1826,-1775.54"/>
<polygon fill="black" stroke="black" points="1829.5,-1775.62 1826,-1765.62 1822.5,-1775.62 1829.5,-1775.62"/>
</g>
<!-- j2962593483 -->
<g id="node6" class="node">
<title>j2962593483</title>
<polygon fill="none" stroke="red" points="2202,-1764 2110,-1764 2110,-1728 2202,-1728 2202,-1764"/>
<text text-anchor="middle" x="2156" y="-1742.3" font-family="Times New Roman,serif" font-size="14.00">Без поняття.</text>
</g>
<!-- j3689251774&#45;&gt;j2962593483 -->
<g id="edge5" class="edge">
<title>j3689251774&#45;&gt;j2962593483</title>
<path fill="none" stroke="black" d="M1908.42,-1799.52C1967.65,-1786.95 2046,-1770.33 2098.55,-1759.19"/>
<polygon fill="black" stroke="black" points="2099.15,-1762.64 2108.21,-1757.14 2097.7,-1755.79 2099.15,-1762.64"/>
</g>
<!-- j596526570 -->
<g id="node7" class="node">
<title>j596526570</title>
<polygon fill="none" stroke="red" points="2492,-1764 2358,-1764 2358,-1728 2492,-1728 2492,-1764"/>
<text text-anchor="middle" x="2425" y="-1742.3" font-family="Times New Roman,serif" font-size="14.00">Не цікаво. [Кінець.]</text>
</g>
<!-- j3689251774&#45;&gt;j596526570 -->
<g id="edge6" class="edge">
<title>j3689251774&#45;&gt;j596526570</title>
<path fill="none" stroke="black" d="M1975.61,-1799.52C2093.2,-1785.77 2252.33,-1767.18 2346.27,-1756.2"/>
<polygon fill="black" stroke="black" points="2346.65,-1759.68 2356.18,-1755.04 2345.84,-1752.73 2346.65,-1759.68"/>
</g>
<!-- j2754809128 -->
<g id="node8" class="node">
<title>j2754809128</title>
<polygon fill="none" stroke="blue" points="638,-1692 0,-1692 0,-1656 638,-1656 638,-1692"/>
<text text-anchor="middle" x="319" y="-1670.3" font-family="Times New Roman,serif" font-size="14.00">О боги. Хірургічно красиві люди змінюють свої бездоганні обличчя неперевіреними препаратами? Ні.</text>
</g>
<!-- j1182730844&#45;&gt;j2754809128 -->
<g id="edge7" class="edge">
<title>j1182730844&#45;&gt;j2754809128</title>
<path fill="none" stroke="black" d="M572.81,-1733.83C527.87,-1723.41 459.77,-1707.63 405.43,-1695.03"/>
<polygon fill="black" stroke="black" points="406.41,-1691.67 395.88,-1692.82 404.83,-1698.49 406.41,-1691.67"/>
</g>
<!-- j2826611407 -->
<g id="node9" class="node">
<title>j2826611407</title>
<polygon fill="none" stroke="blue" points="1411.5,-1692 656.5,-1692 656.5,-1656 1411.5,-1656 1411.5,-1692"/>
<text text-anchor="middle" x="1034" y="-1670.3" font-family="Times New Roman,serif" font-size="14.00">Слухай. Я не маю нічого проти того, щоби подивитися, як пара спітнілих хлопців жорстко б’ються один з одним. Але ні.</text>
</g>
<!-- j1319161916&#45;&gt;j2826611407 -->
<g id="edge8" class="edge">
<title>j1319161916&#45;&gt;j2826611407</title>
<path fill="none" stroke="black" d="M1294.33,-1727.52C1244.87,-1717.54 1182.71,-1705 1131.54,-1694.68"/>
<polygon fill="black" stroke="black" points="1132.44,-1691.29 1121.95,-1692.74 1131.06,-1698.15 1132.44,-1691.29"/>
</g>
<!-- j2092231484 -->
<g id="node10" class="node">
<title>j2092231484</title>
<polygon fill="none" stroke="blue" points="2222,-1692 1430,-1692 1430,-1656 2222,-1656 2222,-1692"/>
<text text-anchor="middle" x="1826" y="-1670.3" font-family="Times New Roman,serif" font-size="14.00">Гарна спроба. Можна було знайти що завгодно — від підбірки сумочки Bresslin і рукавичок до людського ока на льоду. Але ні.</text>
</g>
<!-- j4229310020&#45;&gt;j2092231484 -->
<g id="edge9" class="edge">
<title>j4229310020&#45;&gt;j2092231484</title>
<path fill="none" stroke="black" d="M1826,-1727.7C1826,-1720.41 1826,-1711.73 1826,-1703.54"/>
<polygon fill="black" stroke="black" points="1829.5,-1703.62 1826,-1693.62 1822.5,-1703.62 1829.5,-1703.62"/>
</g>
<!-- j1297455330 -->
<g id="node11" class="node">
<title>j1297455330</title>
<polygon fill="none" stroke="blue" points="2536,-1692 2240,-1692 2240,-1656 2536,-1656 2536,-1692"/>
<text text-anchor="middle" x="2388" y="-1670.3" font-family="Times New Roman,serif" font-size="14.00">Звичайно, ти не маєш поняття. Ти свіжа кров.</text>
</g>
<!-- j2962593483&#45;&gt;j1297455330 -->
<g id="edge10" class="edge">
<title>j2962593483&#45;&gt;j1297455330</title>
<path fill="none" stroke="black" d="M2202.39,-1731C2235.85,-1720.91 2281.57,-1707.11 2319.26,-1695.74"/>
<polygon fill="black" stroke="black" points="2320.15,-1699.13 2328.72,-1692.89 2318.13,-1692.43 2320.15,-1699.13"/>
</g>
<!-- j3840640955 -->
<g id="node12" class="node">
<title>j3840640955</title>
<polygon fill="none" stroke="blue" points="2591,-1620 2537,-1620 2537,-1584 2591,-1584 2591,-1620"/>
<text text-anchor="middle" x="2564" y="-1598.3" font-family="Times New Roman,serif" font-size="14.00">Бу.</text>
</g>
<!-- j596526570&#45;&gt;j3840640955 -->
<g id="edge11" class="edge">
<title>j596526570&#45;&gt;j3840640955</title>
<path fill="none" stroke="black" d="M2492.43,-1728.02C2511.94,-1720.05 2531.57,-1708.52 2545,-1692 2558.72,-1675.13 2563.18,-1650.67 2564.37,-1631.66"/>
<polygon fill="black" stroke="black" points="2567.86,-1631.99 2564.69,-1621.88 2560.86,-1631.76 2567.86,-1631.99"/>
</g>
<!-- j2667842301 -->
<g id="node13" class="node">
<title>j2667842301</title>
<polygon fill="none" stroke="blue" points="1328,-1620 1274,-1620 1274,-1584 1328,-1584 1328,-1620"/>
<text text-anchor="middle" x="1301" y="-1598.3" font-family="Times New Roman,serif" font-size="14.00">Лазні!</text>
</g>
<!-- j2754809128&#45;&gt;j2667842301 -->
<g id="edge12" class="edge">
<title>j2754809128&#45;&gt;j2667842301</title>
<path fill="none" stroke="black" d="M564.27,-1655.52C803.76,-1638.44 1148.35,-1613.88 1262.59,-1605.74"/>
<polygon fill="black" stroke="black" points="1262.61,-1609.25 1272.33,-1605.04 1262.11,-1602.26 1262.61,-1609.25"/>
</g>
<!-- j2826611407&#45;&gt;j2667842301 -->
<g id="edge13" class="edge">
<title>j2826611407&#45;&gt;j2667842301</title>
<path fill="none" stroke="black" d="M1100.69,-1655.52C1151.76,-1642.13 1220.42,-1624.13 1262.64,-1613.06"/>
<polygon fill="black" stroke="black" points="1263.31,-1616.5 1272.09,-1610.58 1261.53,-1609.73 1263.31,-1616.5"/>
</g>
<!-- j2092231484&#45;&gt;j2667842301 -->
<g id="edge14" class="edge">
<title>j2092231484&#45;&gt;j2667842301</title>
<path fill="none" stroke="black" d="M1694.87,-1655.52C1577.54,-1639.87 1413.02,-1617.94 1339.33,-1608.11"/>
<polygon fill="black" stroke="black" points="1340.18,-1604.69 1329.81,-1606.84 1339.26,-1611.63 1340.18,-1604.69"/>
</g>
<!-- j1297455330&#45;&gt;j2667842301 -->
<g id="edge15" class="edge">
<title>j1297455330&#45;&gt;j2667842301</title>
<path fill="none" stroke="black" d="M2239.69,-1656.74C2236.77,-1656.48 2233.87,-1656.24 2231,-1656 1885.94,-1627.5 1467.58,-1609.6 1339.86,-1604.5"/>
<polygon fill="black" stroke="black" points="1340.07,-1601.01 1329.94,-1604.11 1339.79,-1608 1340.07,-1601.01"/>
</g>
<!-- Chat ends. -->
<g id="node14" class="node">
<title>Chat ends.</title>
<ellipse fill="none" stroke="orange" cx="1696" cy="-18" rx="50.09" ry="18"/>
<text text-anchor="middle" x="1696" y="-14.3" font-family="Times New Roman,serif" font-size="14.00">Chat ends.</text>
</g>
<!-- j3840640955&#45;&gt;Chat ends. -->
<g id="edge16" class="edge">
<title>j3840640955&#45;&gt;Chat ends.</title>
<path fill="none" stroke="black" d="M2564,-1583.51C2564,-1556.71 2564,-1503.87 2564,-1459 2564,-1459 2564,-1459 2564,-161 2564,-36.76 2420.62,-97.39 2299,-72 2104.21,-31.33 1867.68,-21.83 1757.73,-19.64"/>
<polygon fill="black" stroke="black" points="1757.79,-16.14 1747.73,-19.45 1757.67,-23.14 1757.79,-16.14"/>
</g>
<!-- j1307695651 -->
<g id="node15" class="node">
<title>j1307695651</title>
<polygon fill="none" stroke="blue" points="2029.5,-1548 572.5,-1548 572.5,-1512 2029.5,-1512 2029.5,-1548"/>
<text text-anchor="middle" x="1301" y="-1526.3" font-family="Times New Roman,serif" font-size="14.00">Я не знаю, чи є у вас щось подібне. Це такі храми, як ви їх називаєте, зазвичай з набором кімнат Сол і Луа. Ти можеш відмокати в загальному чи приватному басейні. Усе пахне травами та парою, і це САМЕ ТЕ, щоби прочистити голову.</text>
</g>
<!-- j2667842301&#45;&gt;j1307695651 -->
<g id="edge17" class="edge">
<title>j2667842301&#45;&gt;j1307695651</title>
<path fill="none" stroke="black" d="M1301,-1583.7C1301,-1576.41 1301,-1567.73 1301,-1559.54"/>
<polygon fill="black" stroke="black" points="1304.5,-1559.62 1301,-1549.62 1297.5,-1559.62 1304.5,-1559.62"/>
</g>
<!-- j6967698 -->
<g id="node16" class="node">
<title>j6967698</title>
<polygon fill="none" stroke="blue" points="1794,-1476 808,-1476 808,-1440 1794,-1440 1794,-1476"/>
<text text-anchor="middle" x="1301" y="-1454.3" font-family="Times New Roman,serif" font-size="14.00">У Голвенії завжди існувала надзвичайно важлива традиція ритуальної чистоти. Гадаю, що це пов’язано з гарячими джерелами, на яких було побудоване місто.</text>
</g>
<!-- j1307695651&#45;&gt;j6967698 -->
<g id="edge18" class="edge">
<title>j1307695651&#45;&gt;j6967698</title>
<path fill="none" stroke="black" d="M1301,-1511.7C1301,-1504.41 1301,-1495.73 1301,-1487.54"/>
<polygon fill="black" stroke="black" points="1304.5,-1487.62 1301,-1477.62 1297.5,-1487.62 1304.5,-1487.62"/>
</g>
<!-- j3232701597 -->
<g id="node17" class="node">
<title>j3232701597</title>
<polygon fill="none" stroke="blue" points="1648.5,-1404 953.5,-1404 953.5,-1368 1648.5,-1368 1648.5,-1404"/>
<text text-anchor="middle" x="1301" y="-1382.3" font-family="Times New Roman,serif" font-size="14.00">Усе це лайно про «чистоту», з яким виходить Віктор? Він співає стару пісню. Всі громадяни знають, звідки він.</text>
</g>
<!-- j6967698&#45;&gt;j3232701597 -->
<g id="edge19" class="edge">
<title>j6967698&#45;&gt;j3232701597</title>
<path fill="none" stroke="black" d="M1301,-1439.7C1301,-1432.41 1301,-1423.73 1301,-1415.54"/>
<polygon fill="black" stroke="black" points="1304.5,-1415.62 1301,-1405.62 1297.5,-1415.62 1304.5,-1415.62"/>
</g>
<!-- j559309663 -->
<g id="node18" class="node">
<title>j559309663</title>
<polygon fill="none" stroke="blue" points="1735.5,-1332 866.5,-1332 866.5,-1296 1735.5,-1296 1735.5,-1332"/>
<text text-anchor="middle" x="1301" y="-1310.3" font-family="Times New Roman,serif" font-size="14.00">Раніше мені подобалося платити додаткові голари, щоби м’язистий професіонал розім’яв мої м’язи. Тобі б це сподобалося. Не сумніваюся.</text>
</g>
<!-- j3232701597&#45;&gt;j559309663 -->
<g id="edge20" class="edge">
<title>j3232701597&#45;&gt;j559309663</title>
<path fill="none" stroke="black" d="M1301,-1367.7C1301,-1360.41 1301,-1351.73 1301,-1343.54"/>
<polygon fill="black" stroke="black" points="1304.5,-1343.62 1301,-1333.62 1297.5,-1343.62 1304.5,-1343.62"/>
</g>
<!-- j537641049 -->
<g id="node19" class="node">
<title>j537641049</title>
<polygon fill="none" stroke="red" points="1036,-1260 936,-1260 936,-1224 1036,-1224 1036,-1260"/>
<text text-anchor="middle" x="986" y="-1238.3" font-family="Times New Roman,serif" font-size="14.00">Маю сумніви.</text>
</g>
<!-- j559309663&#45;&gt;j537641049 -->
<g id="edge21" class="edge">
<title>j559309663&#45;&gt;j537641049</title>
<path fill="none" stroke="black" d="M1222.32,-1295.52C1168.11,-1283.47 1097.11,-1267.69 1047.14,-1256.59"/>
<polygon fill="black" stroke="black" points="1048.17,-1253.23 1037.65,-1254.48 1046.65,-1260.06 1048.17,-1253.23"/>
</g>
<!-- j3066888818 -->
<g id="node20" class="node">
<title>j3066888818</title>
<polygon fill="none" stroke="red" points="1399.5,-1260 1202.5,-1260 1202.5,-1224 1399.5,-1224 1399.5,-1260"/>
<text text-anchor="middle" x="1301" y="-1238.3" font-family="Times New Roman,serif" font-size="14.00">Звучить, як розвага для мене.</text>
</g>
<!-- j559309663&#45;&gt;j3066888818 -->
<g id="edge22" class="edge">
<title>j559309663&#45;&gt;j3066888818</title>
<path fill="none" stroke="black" d="M1301,-1295.7C1301,-1288.41 1301,-1279.73 1301,-1271.54"/>
<polygon fill="black" stroke="black" points="1304.5,-1271.62 1301,-1261.62 1297.5,-1271.62 1304.5,-1271.62"/>
</g>
<!-- j2275220657 -->
<g id="node21" class="node">
<title>j2275220657</title>
<polygon fill="none" stroke="red" points="1714.5,-1260 1575.5,-1260 1575.5,-1224 1714.5,-1224 1714.5,-1260"/>
<text text-anchor="middle" x="1645" y="-1238.3" font-family="Times New Roman,serif" font-size="14.00">Що з ними сталося?</text>
</g>
<!-- j559309663&#45;&gt;j2275220657 -->
<g id="edge23" class="edge">
<title>j559309663&#45;&gt;j2275220657</title>
<path fill="none" stroke="black" d="M1386.92,-1295.52C1441.17,-1284.48 1510.81,-1270.31 1564.08,-1259.47"/>
<polygon fill="black" stroke="black" points="1564.6,-1262.93 1573.7,-1257.51 1563.21,-1256.07 1564.6,-1262.93"/>
</g>
<!-- j3070050923 -->
<g id="node22" class="node">
<title>j3070050923</title>
<polygon fill="none" stroke="blue" points="1151,-1188 525,-1188 525,-1152 1151,-1152 1151,-1188"/>
<text text-anchor="middle" x="838" y="-1166.3" font-family="Times New Roman,serif" font-size="14.00">Ти розгулюєш у костюмі, зробленому з зараженого людського тіла, але категорично проти масажу?</text>
</g>
<!-- j537641049&#45;&gt;j3070050923 -->
<g id="edge24" class="edge">
<title>j537641049&#45;&gt;j3070050923</title>
<path fill="none" stroke="black" d="M949.04,-1223.52C929.63,-1214.34 905.64,-1202.99 884.93,-1193.2"/>
<polygon fill="black" stroke="black" points="886.65,-1190.14 876.12,-1189.03 883.66,-1196.47 886.65,-1190.14"/>
</g>
<!-- j2874836131 -->
<g id="node23" class="node">
<title>j2874836131</title>
<polygon fill="none" stroke="blue" points="1432.5,-1188 1169.5,-1188 1169.5,-1152 1432.5,-1152 1432.5,-1188"/>
<text text-anchor="middle" x="1301" y="-1166.3" font-family="Times New Roman,serif" font-size="14.00">Я знала, що ми з тобою споріднені душі.</text>
</g>
<!-- j3066888818&#45;&gt;j2874836131 -->
<g id="edge25" class="edge">
<title>j3066888818&#45;&gt;j2874836131</title>
<path fill="none" stroke="black" d="M1301,-1223.7C1301,-1216.41 1301,-1207.73 1301,-1199.54"/>
<polygon fill="black" stroke="black" points="1304.5,-1199.62 1301,-1189.62 1297.5,-1199.62 1304.5,-1199.62"/>
</g>
<!-- j2264898391 -->
<g id="node24" class="node">
<title>j2264898391</title>
<polygon fill="none" stroke="blue" points="2535,-1116 1705,-1116 1705,-1080 2535,-1080 2535,-1116"/>
<text text-anchor="middle" x="2120" y="-1094.3" font-family="Times New Roman,serif" font-size="14.00">Я впевнена, ти можеш здогадатися. Техногниль так багато зруйнувала. Лазні не могли залишатися відкритими після спалахів епідемії.</text>
</g>
<!-- j2275220657&#45;&gt;j2264898391 -->
<g id="edge26" class="edge">
<title>j2275220657&#45;&gt;j2264898391</title>
<path fill="none" stroke="black" d="M1703.24,-1223.59C1791.06,-1197.34 1957.03,-1147.72 2050.86,-1119.67"/>
<polygon fill="black" stroke="black" points="2051.62,-1123.09 2060.2,-1116.88 2049.62,-1116.39 2051.62,-1123.09"/>
</g>
<!-- j3344265832 -->
<g id="node25" class="node">
<title>j3344265832</title>
<polygon fill="none" stroke="blue" points="867.5,-1044 808.5,-1044 808.5,-1008 867.5,-1008 867.5,-1044"/>
<text text-anchor="middle" x="838" y="-1022.3" font-family="Times New Roman,serif" font-size="14.00">Дивно.</text>
</g>
<!-- j3070050923&#45;&gt;j3344265832 -->
<g id="edge27" class="edge">
<title>j3070050923&#45;&gt;j3344265832</title>
<path fill="none" stroke="black" d="M838,-1151.59C838,-1127.61 838,-1084.14 838,-1055.42"/>
<polygon fill="black" stroke="black" points="841.5,-1055.62 838,-1045.62 834.5,-1055.62 841.5,-1055.62"/>
</g>
<!-- j4151759168 -->
<g id="node26" class="node">
<title>j4151759168</title>
<polygon fill="none" stroke="blue" points="1686.5,-1116 867.5,-1116 867.5,-1080 1686.5,-1080 1686.5,-1116"/>
<text text-anchor="middle" x="1277" y="-1094.3" font-family="Times New Roman,serif" font-size="14.00">Хотілося б, щоб дехто з інших був трохи менш напруженим. На жаль, лазні не могли залишатися відкритими після спалахів епідемії.</text>
</g>
<!-- j2874836131&#45;&gt;j4151759168 -->
<g id="edge28" class="edge">
<title>j2874836131&#45;&gt;j4151759168</title>
<path fill="none" stroke="black" d="M1295.07,-1151.7C1292.51,-1144.24 1289.45,-1135.32 1286.59,-1126.97"/>
<polygon fill="black" stroke="black" points="1289.91,-1125.86 1283.36,-1117.54 1283.29,-1128.13 1289.91,-1125.86"/>
</g>
<!-- j3438711738 -->
<g id="node27" class="node">
<title>j3438711738</title>
<polygon fill="none" stroke="blue" points="2362,-1044 1098,-1044 1098,-1008 2362,-1008 2362,-1044"/>
<text text-anchor="middle" x="1730" y="-1022.3" font-family="Times New Roman,serif" font-size="14.00">З того, що я бачила, деякі з них зараз по суті є нерестовищами. Чесно кажучи, це розбиває мені серце. Я пам’ятаю, як знайшла тисячолітню мармурову та мозаїчну підлогу, вкриту килимом повзучої плоті.</text>
</g>
<!-- j2264898391&#45;&gt;j3438711738 -->
<g id="edge29" class="edge">
<title>j2264898391&#45;&gt;j3438711738</title>
<path fill="none" stroke="black" d="M2022.59,-1079.52C1966.53,-1069.45 1895.97,-1056.79 1838.18,-1046.42"/>
<polygon fill="black" stroke="black" points="1839.13,-1043.03 1828.67,-1044.71 1837.89,-1049.92 1839.13,-1043.03"/>
</g>
<!-- j3344265832&#45;&gt;Chat ends. -->
<g id="edge30" class="edge">
<title>j3344265832&#45;&gt;Chat ends.</title>
<path fill="none" stroke="black" d="M838,-1007.51C838,-980.71 838,-927.87 838,-883 838,-883 838,-883 838,-161 838,-80.08 1439.64,-35.11 1635.31,-22.62"/>
<polygon fill="black" stroke="black" points="1635.52,-26.12 1645.28,-22 1635.08,-19.13 1635.52,-26.12"/>
</g>
<!-- j4151759168&#45;&gt;j3438711738 -->
<g id="edge31" class="edge">
<title>j4151759168&#45;&gt;j3438711738</title>
<path fill="none" stroke="black" d="M1390.14,-1079.52C1455.8,-1069.37 1538.59,-1056.58 1606.01,-1046.16"/>
<polygon fill="black" stroke="black" points="1606.28,-1049.66 1615.63,-1044.67 1605.21,-1042.74 1606.28,-1049.66"/>
</g>
<!-- j1580269140 -->
<g id="node28" class="node">
<title>j1580269140</title>
<polygon fill="none" stroke="blue" points="1860,-972 1600,-972 1600,-936 1860,-936 1860,-972"/>
<text text-anchor="middle" x="1730" y="-950.3" font-family="Times New Roman,serif" font-size="14.00">Чи було у вас щось подібне свого часу?</text>
</g>
<!-- j3438711738&#45;&gt;j1580269140 -->
<g id="edge32" class="edge">
<title>j3438711738&#45;&gt;j1580269140</title>
<path fill="none" stroke="black" d="M1730,-1007.7C1730,-1000.41 1730,-991.73 1730,-983.54"/>
<polygon fill="black" stroke="black" points="1733.5,-983.62 1730,-973.62 1726.5,-983.62 1733.5,-983.62"/>
</g>
<!-- j1469993403 -->
<g id="node29" class="node">
<title>j1469993403</title>
<polygon fill="none" stroke="red" points="1864.5,-900 1595.5,-900 1595.5,-864 1864.5,-864 1864.5,-900"/>
<text text-anchor="middle" x="1730" y="-878.3" font-family="Times New Roman,serif" font-size="14.00">Священні громадські лазні? Ні, не думаю.</text>
</g>
<!-- j1580269140&#45;&gt;j1469993403 -->
<g id="edge33" class="edge">
<title>j1580269140&#45;&gt;j1469993403</title>
<path fill="none" stroke="black" d="M1730,-935.7C1730,-928.41 1730,-919.73 1730,-911.54"/>
<polygon fill="black" stroke="black" points="1733.5,-911.62 1730,-901.62 1726.5,-911.62 1733.5,-911.62"/>
</g>
<!-- j2764451038 -->
<g id="node30" class="node">
<title>j2764451038</title>
<polygon fill="none" stroke="blue" points="1878,-828 1582,-828 1582,-792 1878,-792 1878,-828"/>
<text text-anchor="middle" x="1730" y="-806.3" font-family="Times New Roman,serif" font-size="14.00">Отже, що люди роблять, щоби розслабитись?</text>
</g>
<!-- j1469993403&#45;&gt;j2764451038 -->
<g id="edge34" class="edge">
<title>j1469993403&#45;&gt;j2764451038</title>
<path fill="none" stroke="black" d="M1730,-863.7C1730,-856.41 1730,-847.73 1730,-839.54"/>
<polygon fill="black" stroke="black" points="1733.5,-839.62 1730,-829.62 1726.5,-839.62 1733.5,-839.62"/>
</g>
<!-- j1182612046 -->
<g id="node31" class="node">
<title>j1182612046</title>
<polygon fill="none" stroke="red" points="1465,-756 1389,-756 1389,-720 1465,-720 1465,-756"/>
<text text-anchor="middle" x="1427" y="-734.3" font-family="Times New Roman,serif" font-size="14.00">Це Ратум.</text>
</g>
<!-- j2764451038&#45;&gt;j1182612046 -->
<g id="edge35" class="edge">
<title>j2764451038&#45;&gt;j1182612046</title>
<path fill="none" stroke="black" d="M1654.32,-791.52C1598.66,-778.66 1524.6,-761.55 1476.38,-750.41"/>
<polygon fill="black" stroke="black" points="1477.31,-747.03 1466.77,-748.19 1475.73,-753.85 1477.31,-747.03"/>
</g>
<!-- j1408928131 -->
<g id="node32" class="node">
<title>j1408928131</title>
<polygon fill="none" stroke="red" points="1850.5,-756 1609.5,-756 1609.5,-720 1850.5,-720 1850.5,-756"/>
<text text-anchor="middle" x="1730" y="-734.3" font-family="Times New Roman,serif" font-size="14.00">Деякі люди роблять ставки в Індексі.</text>
</g>
<!-- j2764451038&#45;&gt;j1408928131 -->
<g id="edge36" class="edge">
<title>j2764451038&#45;&gt;j1408928131</title>
<path fill="none" stroke="black" d="M1730,-791.7C1730,-784.41 1730,-775.73 1730,-767.54"/>
<polygon fill="black" stroke="black" points="1733.5,-767.62 1730,-757.62 1726.5,-767.62 1733.5,-767.62"/>
</g>
<!-- j2323730015 -->
<g id="node33" class="node">
<title>j2323730015</title>
<polygon fill="none" stroke="red" points="2095,-756 1933,-756 1933,-720 2095,-720 2095,-756"/>
<text text-anchor="middle" x="2014" y="-734.3" font-family="Times New Roman,serif" font-size="14.00">Комі існує не так давно.</text>
</g>
<!-- j2764451038&#45;&gt;j2323730015 -->
<g id="edge37" class="edge">
<title>j2764451038&#45;&gt;j2323730015</title>
<path fill="none" stroke="black" d="M1800.93,-791.52C1840.9,-781.67 1890.99,-769.32 1932.55,-759.07"/>
<polygon fill="black" stroke="black" points="1933.14,-762.54 1942.01,-756.74 1931.46,-755.74 1933.14,-762.54"/>
</g>
<!-- j2018929165 -->
<g id="node34" class="node">
<title>j2018929165</title>
<polygon fill="none" stroke="blue" points="1479,-684 1123,-684 1123,-648 1479,-648 1479,-684"/>
<text text-anchor="middle" x="1301" y="-662.3" font-family="Times New Roman,serif" font-size="14.00">Звучить так, наче Амір видає звукові ефекти про себе…</text>
</g>
<!-- j1182612046&#45;&gt;j2018929165 -->
<g id="edge38" class="edge">
<title>j1182612046&#45;&gt;j2018929165</title>
<path fill="none" stroke="black" d="M1395.53,-719.52C1379.32,-710.51 1359.36,-699.42 1341.97,-689.76"/>
<polygon fill="black" stroke="black" points="1343.83,-686.79 1333.39,-685 1340.43,-692.91 1343.83,-686.79"/>
</g>
<!-- j3486456807 -->
<g id="node35" class="node">
<title>j3486456807</title>
<polygon fill="none" stroke="blue" points="1791,-684 1669,-684 1669,-648 1791,-648 1791,-684"/>
<text text-anchor="middle" x="1730" y="-662.3" font-family="Times New Roman,serif" font-size="14.00">Біржові брокери?</text>
</g>
<!-- j1408928131&#45;&gt;j3486456807 -->
<g id="edge39" class="edge">
<title>j1408928131&#45;&gt;j3486456807</title>
<path fill="none" stroke="black" d="M1730,-719.7C1730,-712.41 1730,-703.73 1730,-695.54"/>
<polygon fill="black" stroke="black" points="1733.5,-695.62 1730,-685.62 1726.5,-695.62 1733.5,-695.62"/>
</g>
<!-- j483888280 -->
<g id="node36" class="node">
<title>j483888280</title>
<polygon fill="none" stroke="blue" points="2307,-684 1975,-684 1975,-648 2307,-648 2307,-684"/>
<text text-anchor="middle" x="2141" y="-662.3" font-family="Times New Roman,serif" font-size="14.00">Комі? Чорно&#45;білі фішки? Весілля&#45;війна Сола та Луа?</text>
</g>
<!-- j2323730015&#45;&gt;j483888280 -->
<g id="edge40" class="edge">
<title>j2323730015&#45;&gt;j483888280</title>
<path fill="none" stroke="black" d="M2045.72,-719.52C2062.06,-710.51 2082.17,-699.42 2099.71,-689.76"/>
<polygon fill="black" stroke="black" points="2101.29,-692.88 2108.36,-684.99 2097.91,-686.75 2101.29,-692.88"/>
</g>
<!-- j3271284785 -->
<g id="node37" class="node">
<title>j3271284785</title>
<polygon fill="none" stroke="red" points="1391.5,-612 866.5,-612 866.5,-576 1391.5,-576 1391.5,-612"/>
<text text-anchor="middle" x="1129" y="-590.3" font-family="Times New Roman,serif" font-size="14.00">Це ґрінерська штука. Це ритуальний бій на арені, що транслюється на всю Систему.</text>
</g>
<!-- j2018929165&#45;&gt;j3271284785 -->
<g id="edge41" class="edge">
<title>j2018929165&#45;&gt;j3271284785</title>
<path fill="none" stroke="black" d="M1258.04,-647.52C1235.07,-638.17 1206.58,-626.57 1182.22,-616.66"/>
<polygon fill="black" stroke="black" points="1183.69,-613.48 1173.11,-612.95 1181.05,-619.96 1183.69,-613.48"/>
</g>
<!-- j3022907006 -->
<g id="node38" class="node">
<title>j3022907006</title>
<polygon fill="none" stroke="red" points="2050.5,-612 1409.5,-612 1409.5,-576 2050.5,-576 2050.5,-612"/>
<text text-anchor="middle" x="1730" y="-590.3" font-family="Times New Roman,serif" font-size="14.00">…ніби? Це як поєднання біржової торгівлі та насильства з чотирьох сторін. Я знаю, це звучить дивно.</text>
</g>
<!-- j3486456807&#45;&gt;j3022907006 -->
<g id="edge42" class="edge">
<title>j3486456807&#45;&gt;j3022907006</title>
<path fill="none" stroke="black" d="M1730,-647.7C1730,-640.41 1730,-631.73 1730,-623.54"/>
<polygon fill="black" stroke="black" points="1733.5,-623.62 1730,-613.62 1726.5,-623.62 1733.5,-623.62"/>
</g>
<!-- j1986838096 -->
<g id="node39" class="node">
<title>j1986838096</title>
<polygon fill="none" stroke="red" points="2339.5,-612 2068.5,-612 2068.5,-576 2339.5,-576 2339.5,-612"/>
<text text-anchor="middle" x="2204" y="-590.3" font-family="Times New Roman,serif" font-size="14.00">Ем… так? Зажди, це те, в чому сенс комі?</text>
</g>
<!-- j483888280&#45;&gt;j1986838096 -->
<g id="edge43" class="edge">
<title>j483888280&#45;&gt;j1986838096</title>
<path fill="none" stroke="black" d="M2156.57,-647.7C2163.97,-639.47 2172.97,-629.48 2181.12,-620.42"/>
<polygon fill="black" stroke="black" points="2183.51,-623 2187.59,-613.23 2178.3,-618.32 2183.51,-623"/>
</g>
<!-- j819336696 -->
<g id="node40" class="node">
<title>j819336696</title>
<polygon fill="none" stroke="red" points="1295,-540 989,-540 989,-504 1295,-504 1295,-540"/>
<text text-anchor="middle" x="1142" y="-518.3" font-family="Times New Roman,serif" font-size="14.00">Для них це величезна справа. До біса серйозно.</text>
</g>
<!-- j3271284785&#45;&gt;j819336696 -->
<g id="edge44" class="edge">
<title>j3271284785&#45;&gt;j819336696</title>
<path fill="none" stroke="black" d="M1132.21,-575.7C1133.58,-568.32 1135.22,-559.52 1136.75,-551.25"/>
<polygon fill="black" stroke="black" points="1140.16,-552.06 1138.55,-541.59 1133.28,-550.79 1140.16,-552.06"/>
</g>
<!-- j3776140209 -->
<g id="node41" class="node">
<title>j3776140209</title>
<polygon fill="none" stroke="red" points="1814,-540 1632,-540 1632,-504 1814,-504 1814,-540"/>
<text text-anchor="middle" x="1723" y="-518.3" font-family="Times New Roman,serif" font-size="14.00">Корпус скаженіє від цього.</text>
</g>
<!-- j3022907006&#45;&gt;j3776140209 -->
<g id="edge45" class="edge">
<title>j3022907006&#45;&gt;j3776140209</title>
<path fill="none" stroke="black" d="M1728.27,-575.7C1727.54,-568.41 1726.67,-559.73 1725.85,-551.54"/>
<polygon fill="black" stroke="black" points="1729.34,-551.21 1724.86,-541.61 1722.37,-551.91 1729.34,-551.21"/>
</g>
<!-- j3815062248 -->
<g id="node42" class="node">
<title>j3815062248</title>
<polygon fill="none" stroke="red" points="2317,-540 2081,-540 2081,-504 2317,-504 2317,-540"/>
<text text-anchor="middle" x="2199" y="-518.3" font-family="Times New Roman,serif" font-size="14.00">Ми знаємо її лише як настільну гру!</text>
</g>
<!-- j1986838096&#45;&gt;j3815062248 -->
<g id="edge46" class="edge">
<title>j1986838096&#45;&gt;j3815062248</title>
<path fill="none" stroke="black" d="M2202.76,-575.7C2202.24,-568.41 2201.62,-559.73 2201.04,-551.54"/>
<polygon fill="black" stroke="black" points="2204.53,-551.34 2200.33,-541.61 2197.55,-551.84 2204.53,-551.34"/>
</g>
<!-- j2138017855 -->
<g id="node43" class="node">
<title>j2138017855</title>
<polygon fill="none" stroke="blue" points="1363,-468 975,-468 975,-432 1363,-432 1363,-468"/>
<text text-anchor="middle" x="1169" y="-446.3" font-family="Times New Roman,serif" font-size="14.00">Батько з Артуром дивилися реслінг разом щосуботи ввечері.</text>
</g>
<!-- j819336696&#45;&gt;j2138017855 -->
<g id="edge47" class="edge">
<title>j819336696&#45;&gt;j2138017855</title>
<path fill="none" stroke="black" d="M1148.67,-503.7C1151.58,-496.15 1155.07,-487.12 1158.32,-478.68"/>
<polygon fill="black" stroke="black" points="1161.52,-480.11 1161.86,-469.52 1154.99,-477.59 1161.52,-480.11"/>
</g>
<!-- j1703558626 -->
<g id="node44" class="node">
<title>j1703558626</title>
<polygon fill="none" stroke="blue" points="2032,-468 1388,-468 1388,-432 2032,-432 2032,-468"/>
<text text-anchor="middle" x="1710" y="-446.3" font-family="Times New Roman,serif" font-size="14.00">Але ж вони ваші вороги, чи не так? Чи існує якесь перемир’я, коли йдеться про командні види спорту?</text>
</g>
<!-- j3776140209&#45;&gt;j1703558626 -->
<g id="edge48" class="edge">
<title>j3776140209&#45;&gt;j1703558626</title>
<path fill="none" stroke="black" d="M1719.79,-503.7C1718.42,-496.32 1716.78,-487.52 1715.25,-479.25"/>
<polygon fill="black" stroke="black" points="1718.72,-478.79 1713.45,-469.59 1711.84,-480.06 1718.72,-478.79"/>
</g>
<!-- j2632248273 -->
<g id="node45" class="node">
<title>j2632248273</title>
<polygon fill="none" stroke="red" points="2314,-468 2084,-468 2084,-432 2314,-432 2314,-468"/>
<text text-anchor="middle" x="2199" y="-446.3" font-family="Times New Roman,serif" font-size="14.00">Орокіни любили її. Навіть в Дувірі.</text>
</g>
<!-- j3815062248&#45;&gt;j2632248273 -->
<g id="edge49" class="edge">
<title>j3815062248&#45;&gt;j2632248273</title>
<path fill="none" stroke="black" d="M2199,-503.7C2199,-496.41 2199,-487.73 2199,-479.54"/>
<polygon fill="black" stroke="black" points="2202.5,-479.62 2199,-469.62 2195.5,-479.62 2202.5,-479.62"/>
</g>
<!-- j3163855373 -->
<g id="node46" class="node">
<title>j3163855373</title>
<ellipse fill="none" stroke="orange" cx="1196" cy="-378" rx="64.19" ry="18"/>
<text text-anchor="middle" x="1196" y="-374.3" font-family="Times New Roman,serif" font-size="14.00">+10 Chemistry</text>
</g>
<!-- j2138017855&#45;&gt;j3163855373 -->
<g id="edge50" class="edge">
<title>j2138017855&#45;&gt;j3163855373</title>
<path fill="none" stroke="black" d="M1175.67,-431.7C1178.58,-424.15 1182.07,-415.12 1185.32,-406.68"/>
<polygon fill="black" stroke="black" points="1188.52,-408.11 1188.86,-397.52 1181.99,-405.59 1188.52,-408.11"/>
</g>
<!-- j1450587234 -->
<g id="node47" class="node">
<title>j1450587234</title>
<ellipse fill="none" stroke="orange" cx="1704" cy="-378" rx="64.19" ry="18"/>
<text text-anchor="middle" x="1704" y="-374.3" font-family="Times New Roman,serif" font-size="14.00">+10 Chemistry</text>
</g>
<!-- j1703558626&#45;&gt;j1450587234 -->
<g id="edge51" class="edge">
<title>j1703558626&#45;&gt;j1450587234</title>
<path fill="none" stroke="black" d="M1708.52,-431.7C1707.89,-424.41 1707.15,-415.73 1706.45,-407.54"/>
<polygon fill="black" stroke="black" points="1709.94,-407.28 1705.6,-397.61 1702.96,-407.87 1709.94,-407.28"/>
</g>
<!-- j2096986617 -->
<g id="node48" class="node">
<title>j2096986617</title>
<polygon fill="none" stroke="red" points="2344,-396 2050,-396 2050,-360 2344,-360 2344,-396"/>
<text text-anchor="middle" x="2197" y="-374.3" font-family="Times New Roman,serif" font-size="14.00">Не було й гадки, що вона НАСТІЛЬКИ стара.</text>
</g>
<!-- j2632248273&#45;&gt;j2096986617 -->
<g id="edge52" class="edge">
<title>j2632248273&#45;&gt;j2096986617</title>
<path fill="none" stroke="black" d="M2198.51,-431.7C2198.3,-424.41 2198.05,-415.73 2197.82,-407.54"/>
<polygon fill="black" stroke="black" points="2201.32,-407.51 2197.53,-397.62 2194.32,-407.71 2201.32,-407.51"/>
</g>
<!-- j2571773597 -->
<g id="node49" class="node">
<title>j2571773597</title>
<polygon fill="none" stroke="blue" points="1542,-180 984,-180 984,-144 1542,-144 1542,-180"/>
<text text-anchor="middle" x="1263" y="-158.3" font-family="Times New Roman,serif" font-size="14.00">Підсунь йому кілька касет із Ратумом, як буде можливість. Я думаю, йому сподобається.</text>
</g>
<!-- j3163855373&#45;&gt;j2571773597 -->
<g id="edge53" class="edge">
<title>j3163855373&#45;&gt;j2571773597</title>
<path fill="none" stroke="black" d="M1201.37,-359.85C1212.91,-322.99 1240.17,-235.92 1254.25,-190.96"/>
<polygon fill="black" stroke="black" points="1257.5,-192.27 1257.15,-181.68 1250.82,-190.17 1257.5,-192.27"/>
</g>
<!-- j262441160 -->
<g id="node50" class="node">
<title>j262441160</title>
<polygon fill="none" stroke="blue" points="1838,-252 1554,-252 1554,-216 1838,-216 1838,-252"/>
<text text-anchor="middle" x="1696" y="-230.3" font-family="Times New Roman,serif" font-size="14.00">Що я мелю? Звичайно існує. Такі вже люди.</text>
</g>
<!-- j1450587234&#45;&gt;j262441160 -->
<g id="edge54" class="edge">
<title>j1450587234&#45;&gt;j262441160</title>
<path fill="none" stroke="black" d="M1703.02,-359.59C1701.67,-335.61 1699.22,-292.14 1697.6,-263.42"/>
<polygon fill="black" stroke="black" points="1701.11,-263.41 1697.05,-253.62 1694.12,-263.8 1701.11,-263.41"/>
</g>
<!-- j4103721898 -->
<g id="node51" class="node">
<title>j4103721898</title>
<polygon fill="none" stroke="blue" points="2387.5,-324 2004.5,-324 2004.5,-288 2387.5,-288 2387.5,-324"/>
<text text-anchor="middle" x="2196" y="-302.3" font-family="Times New Roman,serif" font-size="14.00">Стара? Це СВЯТИНЯ! Але також забава. Чудове поєднання.</text>
</g>
<!-- j2096986617&#45;&gt;j4103721898 -->
<g id="edge55" class="edge">
<title>j2096986617&#45;&gt;j4103721898</title>
<path fill="none" stroke="black" d="M2196.75,-359.7C2196.65,-352.41 2196.52,-343.73 2196.41,-335.54"/>
<polygon fill="black" stroke="black" points="2199.91,-335.57 2196.27,-325.62 2192.91,-335.67 2199.91,-335.57"/>
</g>
<!-- j2571773597&#45;&gt;Chat ends. -->
<g id="edge56" class="edge">
<title>j2571773597&#45;&gt;Chat ends.</title>
<path fill="none" stroke="black" d="M1316.09,-143.59C1401.4,-115.61 1567.61,-61.1 1648.92,-34.44"/>
<polygon fill="black" stroke="black" points="1649.97,-37.78 1658.38,-31.34 1647.78,-31.13 1649.97,-37.78"/>
</g>
<!-- j262441160&#45;&gt;Chat ends. -->
<g id="edge57" class="edge">
<title>j262441160&#45;&gt;Chat ends.</title>
<path fill="none" stroke="black" d="M1696,-215.85C1696,-179.14 1696,-92.66 1696,-47.53"/>
<polygon fill="black" stroke="black" points="1699.5,-47.75 1696,-37.75 1692.5,-47.75 1699.5,-47.75"/>
</g>
<!-- j1852100578 -->
<g id="node52" class="node">
<title>j1852100578</title>
<polygon fill="none" stroke="blue" points="2536,-252 1856,-252 1856,-216 2536,-216 2536,-252"/>
<text text-anchor="middle" x="2196" y="-230.3" font-family="Times New Roman,serif" font-size="14.00">Усе зводиться до тих самих двох основних принципів, розумієш? Розум і тіло. Символ і значення. Сол і Луа.</text>
</g>
<!-- j4103721898&#45;&gt;j1852100578 -->
<g id="edge58" class="edge">
<title>j4103721898&#45;&gt;j1852100578</title>
<path fill="none" stroke="black" d="M2196,-287.7C2196,-280.41 2196,-271.73 2196,-263.54"/>
<polygon fill="black" stroke="black" points="2199.5,-263.62 2196,-253.62 2192.5,-263.62 2199.5,-263.62"/>
</g>
<!-- j3704857341 -->
<g id="node53" class="node">
<title>j3704857341</title>
<ellipse fill="none" stroke="orange" cx="2088" cy="-162" rx="64.19" ry="18"/>
<text text-anchor="middle" x="2088" y="-158.3" font-family="Times New Roman,serif" font-size="14.00">+20 Chemistry</text>
</g>
<!-- j1852100578&#45;&gt;j3704857341 -->
<g id="edge59" class="edge">
<title>j1852100578&#45;&gt;j3704857341</title>
<path fill="none" stroke="black" d="M2169.03,-215.52C2154.88,-206.35 2137.4,-195.02 2122.3,-185.23"/>
<polygon fill="black" stroke="black" points="2124.35,-182.39 2114.05,-179.89 2120.54,-188.26 2124.35,-182.39"/>
</g>
<!-- j3252494395 -->
<g id="node54" class="node">
<title>j3252494395</title>
<polygon fill="none" stroke="blue" points="2289.5,-108 1778.5,-108 1778.5,-72 2289.5,-72 2289.5,-108"/>
<text text-anchor="middle" x="2034" y="-86.3" font-family="Times New Roman,serif" font-size="14.00">Ми з Артуром грали в комі щороку на сонцестояння. Чому ми взагалі перестали?</text>
</g>
<!-- j3704857341&#45;&gt;j3252494395 -->
<g id="edge60" class="edge">
<title>j3704857341&#45;&gt;j3252494395</title>
<path fill="none" stroke="black" d="M2074.93,-144.05C2068.72,-136.01 2061.16,-126.2 2054.23,-117.23"/>
<polygon fill="black" stroke="black" points="2057.13,-115.25 2048.25,-109.47 2051.59,-119.53 2057.13,-115.25"/>
</g>
<!-- j3252494395&#45;&gt;Chat ends. -->
<g id="edge61" class="edge">
<title>j3252494395&#45;&gt;Chat ends.</title>
<path fill="none" stroke="black" d="M1949.58,-71.52C1886.97,-58.55 1803.48,-41.26 1749.73,-30.13"/>
<polygon fill="black" stroke="black" points="1750.71,-26.76 1740.21,-28.16 1749.29,-33.61 1750.71,-26.76"/>
</g>
</g>
</svg>
