<?xml version="1.0" encoding="UTF-8" standalone="no"?>
<!DOCTYPE svg PUBLIC "-//W3C//DTD SVG 1.1//EN"
 "http://www.w3.org/Graphics/SVG/1.1/DTD/svg11.dtd">
<!-- Generated by graphviz version 7.1.0 (20230121.1956)
 -->
<!-- Pages: 1 -->
<svg width="2789pt" height="2204pt"
 viewBox="0.00 0.00 2788.57 2204.00" xmlns="http://www.w3.org/2000/svg" xmlns:xlink="http://www.w3.org/1999/xlink">
<g id="graph0" class="graph" transform="scale(1 1) rotate(0) translate(4 2200)">
<polygon fill="white" stroke="none" points="-4,4 -4,-2200 2784.57,-2200 2784.57,4 -4,4"/>
<!-- EleanorRank3Convo5 begins. -->
<g id="node1" class="node">
<title>EleanorRank3Convo5 begins.</title>
<ellipse fill="none" stroke="orange" cx="2451.57" cy="-2178" rx="118.88" ry="18"/>
<text text-anchor="middle" x="2451.57" y="-2174.3" font-family="Times New Roman,serif" font-size="14.00">EleanorRank3Convo5 begins.</text>
</g>
<!-- j3699285924 -->
<g id="node2" class="node">
<title>j3699285924</title>
<polygon fill="none" stroke="blue" points="2566.57,-2124 2336.57,-2124 2336.57,-2088 2566.57,-2088 2566.57,-2124"/>
<text text-anchor="middle" x="2451.57" y="-2102.3" font-family="Times New Roman,serif" font-size="14.00">Привіт, Мандрівниче. Я засмучена.</text>
</g>
<!-- EleanorRank3Convo5 begins.&#45;&gt;j3699285924 -->
<g id="edge1" class="edge">
<title>EleanorRank3Convo5 begins.&#45;&gt;j3699285924</title>
<path fill="none" stroke="black" d="M2451.57,-2159.7C2451.57,-2152.41 2451.57,-2143.73 2451.57,-2135.54"/>
<polygon fill="black" stroke="black" points="2455.07,-2135.62 2451.57,-2125.62 2448.07,-2135.62 2455.07,-2135.62"/>
</g>
<!-- j3090058162 -->
<g id="node3" class="node">
<title>j3090058162</title>
<polygon fill="none" stroke="red" points="2317.07,-2052 2186.07,-2052 2186.07,-2016 2317.07,-2016 2317.07,-2052"/>
<text text-anchor="middle" x="2251.57" y="-2030.3" font-family="Times New Roman,serif" font-size="14.00">Що тебе засмучує?</text>
</g>
<!-- j3699285924&#45;&gt;j3090058162 -->
<g id="edge2" class="edge">
<title>j3699285924&#45;&gt;j3090058162</title>
<path fill="none" stroke="black" d="M2401.62,-2087.52C2374.43,-2078 2340.59,-2066.16 2311.94,-2056.13"/>
<polygon fill="black" stroke="black" points="2313.25,-2052.88 2302.66,-2052.88 2310.94,-2059.49 2313.25,-2052.88"/>
</g>
<!-- j3629537774 -->
<g id="node4" class="node">
<title>j3629537774</title>
<polygon fill="none" stroke="red" points="2563.07,-2052 2340.07,-2052 2340.07,-2016 2563.07,-2016 2563.07,-2052"/>
<text text-anchor="middle" x="2451.57" y="-2030.3" font-family="Times New Roman,serif" font-size="14.00">Привіт, засмучена. Я Мандрівник.</text>
</g>
<!-- j3699285924&#45;&gt;j3629537774 -->
<g id="edge3" class="edge">
<title>j3699285924&#45;&gt;j3629537774</title>
<path fill="none" stroke="black" d="M2451.57,-2087.7C2451.57,-2080.41 2451.57,-2071.73 2451.57,-2063.54"/>
<polygon fill="black" stroke="black" points="2455.07,-2063.62 2451.57,-2053.62 2448.07,-2063.62 2455.07,-2063.62"/>
</g>
<!-- j3038985618 -->
<g id="node5" class="node">
<title>j3038985618</title>
<polygon fill="none" stroke="red" points="2780.57,-1764 2486.57,-1764 2486.57,-1728 2780.57,-1728 2780.57,-1764"/>
<text text-anchor="middle" x="2633.57" y="-1742.3" font-family="Times New Roman,serif" font-size="14.00">Вибач, у мене на це зараз нема часу. [Кінець.]</text>
</g>
<!-- j3699285924&#45;&gt;j3038985618 -->
<g id="edge4" class="edge">
<title>j3699285924&#45;&gt;j3038985618</title>
<path fill="none" stroke="black" d="M2508.16,-2087.51C2561.58,-2067.05 2633.57,-2027.52 2633.57,-1963 2633.57,-1963 2633.57,-1963 2633.57,-1889 2633.57,-1849.74 2633.57,-1804.38 2633.57,-1775.69"/>
<polygon fill="black" stroke="black" points="2637.07,-1776 2633.57,-1766 2630.07,-1776 2637.07,-1776"/>
</g>
<!-- j420543346 -->
<g id="node6" class="node">
<title>j420543346</title>
<polygon fill="none" stroke="blue" points="2083.57,-1980 2015.57,-1980 2015.57,-1944 2083.57,-1944 2083.57,-1980"/>
<text text-anchor="middle" x="2049.57" y="-1958.3" font-family="Times New Roman,serif" font-size="14.00">Дві речі.</text>
</g>
<!-- j3090058162&#45;&gt;j420543346 -->
<g id="edge5" class="edge">
<title>j3090058162&#45;&gt;j420543346</title>
<path fill="none" stroke="black" d="M2201.12,-2015.52C2168.4,-2004.18 2126.14,-1989.54 2094.57,-1978.59"/>
<polygon fill="black" stroke="black" points="2095.9,-1975.35 2085.31,-1975.38 2093.61,-1981.97 2095.9,-1975.35"/>
</g>
<!-- j2713783493 -->
<g id="node7" class="node">
<title>j2713783493</title>
<polygon fill="none" stroke="blue" points="2605.07,-1980 2298.07,-1980 2298.07,-1944 2605.07,-1944 2605.07,-1980"/>
<text text-anchor="middle" x="2451.57" y="-1958.3" font-family="Times New Roman,serif" font-size="14.00">У НИХ Є ТАТОВІ ЖАРТИ В МАЙБУТНЬОМУ</text>
</g>
<!-- j3629537774&#45;&gt;j2713783493 -->
<g id="edge6" class="edge">
<title>j3629537774&#45;&gt;j2713783493</title>
<path fill="none" stroke="black" d="M2451.57,-2015.7C2451.57,-2008.41 2451.57,-1999.73 2451.57,-1991.54"/>
<polygon fill="black" stroke="black" points="2455.07,-1991.62 2451.57,-1981.62 2448.07,-1991.62 2455.07,-1991.62"/>
</g>
<!-- Chat ends. -->
<g id="node8" class="node">
<title>Chat ends.</title>
<ellipse fill="none" stroke="orange" cx="1967.57" cy="-18" rx="50.09" ry="18"/>
<text text-anchor="middle" x="1967.57" y="-14.3" font-family="Times New Roman,serif" font-size="14.00">Chat ends.</text>
</g>
<!-- j3038985618&#45;&gt;Chat ends. -->
<g id="edge7" class="edge">
<title>j3038985618&#45;&gt;Chat ends.</title>
<path fill="none" stroke="black" d="M2633.57,-1727.51C2633.57,-1700.71 2633.57,-1647.87 2633.57,-1603 2633.57,-1603 2633.57,-1603 2633.57,-161 2633.57,-101.83 2588.77,-95.73 2534.57,-72 2445.21,-32.87 2156.69,-22.57 2029.16,-19.91"/>
<polygon fill="black" stroke="black" points="2029.28,-16.41 2019.21,-19.71 2029.14,-23.41 2029.28,-16.41"/>
</g>
<!-- j451548124 -->
<g id="node9" class="node">
<title>j451548124</title>
<polygon fill="none" stroke="blue" points="2347.07,-1908 1300.07,-1908 1300.07,-1872 2347.07,-1872 2347.07,-1908"/>
<text text-anchor="middle" x="1823.57" y="-1886.3" font-family="Times New Roman,serif" font-size="14.00">Я сумую за вином. Я до біса давно не пила справжнього вина. Усе вино в Голвенії було реквізовано командуванням «Скальдри» через кілька днів після спалаху епідемії.</text>
</g>
<!-- j420543346&#45;&gt;j451548124 -->
<g id="edge8" class="edge">
<title>j420543346&#45;&gt;j451548124</title>
<path fill="none" stroke="black" d="M2015.24,-1950.37C1982.33,-1940.17 1931.73,-1924.5 1890.79,-1911.82"/>
<polygon fill="black" stroke="black" points="1891.82,-1908.48 1881.24,-1908.86 1889.75,-1915.16 1891.82,-1908.48"/>
</g>
<!-- j220848998 -->
<g id="node10" class="node">
<title>j220848998</title>
<ellipse fill="none" stroke="orange" cx="2453.57" cy="-1890" rx="64.19" ry="18"/>
<text text-anchor="middle" x="2453.57" y="-1886.3" font-family="Times New Roman,serif" font-size="14.00">+10 Chemistry</text>
</g>
<!-- j2713783493&#45;&gt;j220848998 -->
<g id="edge9" class="edge">
<title>j2713783493&#45;&gt;j220848998</title>
<path fill="none" stroke="black" d="M2452.06,-1943.7C2452.27,-1936.41 2452.52,-1927.73 2452.75,-1919.54"/>
<polygon fill="black" stroke="black" points="2456.25,-1919.71 2453.04,-1909.62 2449.25,-1919.51 2456.25,-1919.71"/>
</g>
<!-- j3266835624 -->
<g id="node11" class="node">
<title>j3266835624</title>
<polygon fill="none" stroke="blue" points="2381.57,-1836 1241.57,-1836 1241.57,-1800 2381.57,-1800 2381.57,-1836"/>
<text text-anchor="middle" x="1811.57" y="-1814.3" font-family="Times New Roman,serif" font-size="14.00">Квінсі та Артур спробували приготувати в’язничне пійло з фруктових пайків, але ті з нас, в кого ще залишилося трохи гідності, сказали ні. Це був рідкісний момент солідарності з Летті.</text>
</g>
<!-- j451548124&#45;&gt;j3266835624 -->
<g id="edge10" class="edge">
<title>j451548124&#45;&gt;j3266835624</title>
<path fill="none" stroke="black" d="M1820.6,-1871.7C1819.34,-1864.32 1817.83,-1855.52 1816.41,-1847.25"/>
<polygon fill="black" stroke="black" points="1819.9,-1846.86 1814.76,-1837.6 1813,-1848.04 1819.9,-1846.86"/>
</g>
<!-- j3181971760 -->
<g id="node12" class="node">
<title>j3181971760</title>
<polygon fill="none" stroke="blue" points="2573.07,-1692 2404.07,-1692 2404.07,-1656 2573.07,-1656 2573.07,-1692"/>
<text text-anchor="middle" x="2488.57" y="-1670.3" font-family="Times New Roman,serif" font-size="14.00">Тепер я щаслива. Дякую.</text>
</g>
<!-- j220848998&#45;&gt;j3181971760 -->
<g id="edge11" class="edge">
<title>j220848998&#45;&gt;j3181971760</title>
<path fill="none" stroke="black" d="M2455.84,-1871.56C2459.77,-1841.95 2468.3,-1780.03 2477.57,-1728 2479.01,-1719.92 2480.75,-1711.18 2482.41,-1703.18"/>
<polygon fill="black" stroke="black" points="2485.79,-1704.13 2484.44,-1693.62 2478.94,-1702.67 2485.79,-1704.13"/>
</g>
<!-- j2625619729 -->
<g id="node13" class="node">
<title>j2625619729</title>
<polygon fill="none" stroke="blue" points="1911.57,-1764 1615.57,-1764 1615.57,-1728 1911.57,-1728 1911.57,-1764"/>
<text text-anchor="middle" x="1763.57" y="-1742.3" font-family="Times New Roman,serif" font-size="14.00">Інша річ, набагато важливіша, — це майбутнє.</text>
</g>
<!-- j3266835624&#45;&gt;j2625619729 -->
<g id="edge12" class="edge">
<title>j3266835624&#45;&gt;j2625619729</title>
<path fill="none" stroke="black" d="M1799.7,-1799.7C1794.3,-1791.81 1787.78,-1782.3 1781.77,-1773.55"/>
<polygon fill="black" stroke="black" points="1784.7,-1771.62 1776.15,-1765.35 1778.92,-1775.58 1784.7,-1771.62"/>
</g>
<!-- j3181971760&#45;&gt;Chat ends. -->
<g id="edge13" class="edge">
<title>j3181971760&#45;&gt;Chat ends.</title>
<path fill="none" stroke="black" d="M2513.93,-1655.57C2545.57,-1631.54 2595.57,-1585.02 2595.57,-1531 2595.57,-1531 2595.57,-1531 2595.57,-161 2595.57,-45.68 2187.6,-24.01 2029.3,-19.94"/>
<polygon fill="black" stroke="black" points="2029.49,-16.44 2019.41,-19.7 2029.33,-23.44 2029.49,-16.44"/>
</g>
<!-- j1054872775 -->
<g id="node14" class="node">
<title>j1054872775</title>
<polygon fill="none" stroke="blue" points="2106.57,-1692 1228.57,-1692 1228.57,-1656 2106.57,-1656 2106.57,-1692"/>
<text text-anchor="middle" x="1667.57" y="-1670.3" font-family="Times New Roman,serif" font-size="14.00">Це не твоя провина, але… тепер, коли я побачила майбутнє твоїми очима, я почуваю себе жалюгідною, оскільки звичні методи не змінилися.</text>
</g>
<!-- j2625619729&#45;&gt;j1054872775 -->
<g id="edge14" class="edge">
<title>j2625619729&#45;&gt;j1054872775</title>
<path fill="none" stroke="black" d="M1739.84,-1727.7C1727.95,-1719.03 1713.37,-1708.4 1700.43,-1698.96"/>
<polygon fill="black" stroke="black" points="1702.72,-1696.3 1692.58,-1693.24 1698.6,-1701.96 1702.72,-1696.3"/>
</g>
<!-- j464563131 -->
<g id="node15" class="node">
<title>j464563131</title>
<polygon fill="none" stroke="red" points="1407.57,-1620 1097.57,-1620 1097.57,-1584 1407.57,-1584 1407.57,-1620"/>
<text text-anchor="middle" x="1252.57" y="-1598.3" font-family="Times New Roman,serif" font-size="14.00">Що я можу зробити, щоби підняти тобі настрій?</text>
</g>
<!-- j1054872775&#45;&gt;j464563131 -->
<g id="edge15" class="edge">
<title>j1054872775&#45;&gt;j464563131</title>
<path fill="none" stroke="black" d="M1563.92,-1655.52C1504.14,-1645.43 1428.86,-1632.74 1367.3,-1622.35"/>
<polygon fill="black" stroke="black" points="1367.91,-1618.91 1357.47,-1620.69 1366.75,-1625.81 1367.91,-1618.91"/>
</g>
<!-- j1259624203 -->
<g id="node16" class="node">
<title>j1259624203</title>
<polygon fill="none" stroke="red" points="1722.57,-1620 1612.57,-1620 1612.57,-1584 1722.57,-1584 1722.57,-1620"/>
<text text-anchor="middle" x="1667.57" y="-1598.3" font-family="Times New Roman,serif" font-size="14.00">Звичні методи?</text>
</g>
<!-- j1054872775&#45;&gt;j1259624203 -->
<g id="edge16" class="edge">
<title>j1054872775&#45;&gt;j1259624203</title>
<path fill="none" stroke="black" d="M1667.57,-1655.7C1667.57,-1648.41 1667.57,-1639.73 1667.57,-1631.54"/>
<polygon fill="black" stroke="black" points="1671.07,-1631.62 1667.57,-1621.62 1664.07,-1631.62 1671.07,-1631.62"/>
</g>
<!-- j1998978262 -->
<g id="node17" class="node">
<title>j1998978262</title>
<polygon fill="none" stroke="blue" points="944.57,-1548 690.57,-1548 690.57,-1512 944.57,-1512 944.57,-1548"/>
<text text-anchor="middle" x="817.57" y="-1526.3" font-family="Times New Roman,serif" font-size="14.00">Не знаю. Можливо екзотичний танець?</text>
</g>
<!-- j464563131&#45;&gt;j1998978262 -->
<g id="edge17" class="edge">
<title>j464563131&#45;&gt;j1998978262</title>
<path fill="none" stroke="black" d="M1143.92,-1583.52C1081,-1573.39 1001.7,-1560.63 937.03,-1550.22"/>
<polygon fill="black" stroke="black" points="937.88,-1546.82 927.45,-1548.68 936.77,-1553.73 937.88,-1546.82"/>
</g>
<!-- j1051951756 -->
<g id="node18" class="node">
<title>j1051951756</title>
<polygon fill="none" stroke="blue" points="2040.07,-1548 1295.07,-1548 1295.07,-1512 2040.07,-1512 2040.07,-1548"/>
<text text-anchor="middle" x="1667.57" y="-1526.3" font-family="Times New Roman,serif" font-size="14.00">Проводити вечір з Аміром, слухаючи його захоплені розповіді про комікси чи ретро&#45;ігри, на яких він зараз зациклений.</text>
</g>
<!-- j1259624203&#45;&gt;j1051951756 -->
<g id="edge18" class="edge">
<title>j1259624203&#45;&gt;j1051951756</title>
<path fill="none" stroke="black" d="M1667.57,-1583.7C1667.57,-1576.41 1667.57,-1567.73 1667.57,-1559.54"/>
<polygon fill="black" stroke="black" points="1671.07,-1559.62 1667.57,-1549.62 1664.07,-1559.62 1671.07,-1559.62"/>
</g>
<!-- j2027168658 -->
<g id="node19" class="node">
<title>j2027168658</title>
<polygon fill="none" stroke="blue" points="865.07,-1476 602.07,-1476 602.07,-1440 865.07,-1440 865.07,-1476"/>
<text text-anchor="middle" x="733.57" y="-1454.3" font-family="Times New Roman,serif" font-size="14.00">Описання смерті Балласа в подробицях?</text>
</g>
<!-- j1998978262&#45;&gt;j2027168658 -->
<g id="edge19" class="edge">
<title>j1998978262&#45;&gt;j2027168658</title>
<path fill="none" stroke="black" d="M796.8,-1511.7C786.61,-1503.2 774.14,-1492.81 762.99,-1483.51"/>
<polygon fill="black" stroke="black" points="765.47,-1481.03 755.55,-1477.32 760.99,-1486.41 765.47,-1481.03"/>
</g>
<!-- j2437362239 -->
<g id="node20" class="node">
<title>j2437362239</title>
<polygon fill="none" stroke="blue" points="1927.57,-1476 1407.57,-1476 1407.57,-1440 1927.57,-1440 1927.57,-1476"/>
<text text-anchor="middle" x="1667.57" y="-1454.3" font-family="Times New Roman,serif" font-size="14.00">Оточувати себе кристалами та подумки співати, поки Летті не викличе екзорциста.</text>
</g>
<!-- j1051951756&#45;&gt;j2437362239 -->
<g id="edge20" class="edge">
<title>j1051951756&#45;&gt;j2437362239</title>
<path fill="none" stroke="black" d="M1667.57,-1511.7C1667.57,-1504.41 1667.57,-1495.73 1667.57,-1487.54"/>
<polygon fill="black" stroke="black" points="1671.07,-1487.62 1667.57,-1477.62 1664.07,-1487.62 1671.07,-1487.62"/>
</g>
<!-- j858878941 -->
<g id="node21" class="node">
<title>j858878941</title>
<polygon fill="none" stroke="blue" points="863.07,-1404 266.07,-1404 266.07,-1368 863.07,-1368 863.07,-1404"/>
<text text-anchor="middle" x="564.57" y="-1382.3" font-family="Times New Roman,serif" font-size="14.00">Це дуже люб’язно з твого боку, але я думаю, що цю меланхолію доведеться просто витримати.</text>
</g>
<!-- j2027168658&#45;&gt;j858878941 -->
<g id="edge21" class="edge">
<title>j2027168658&#45;&gt;j858878941</title>
<path fill="none" stroke="black" d="M691.36,-1439.52C668.79,-1430.17 640.8,-1418.57 616.86,-1408.66"/>
<polygon fill="black" stroke="black" points="618.51,-1405.55 607.93,-1404.96 615.83,-1412.02 618.51,-1405.55"/>
</g>
<!-- j1395560690 -->
<g id="node22" class="node">
<title>j1395560690</title>
<polygon fill="none" stroke="blue" points="1863.07,-1404 1472.07,-1404 1472.07,-1368 1863.07,-1368 1863.07,-1404"/>
<text text-anchor="middle" x="1667.57" y="-1382.3" font-family="Times New Roman,serif" font-size="14.00">Це все різні прояви суму. Він обтяжує мене, як мокра ковдра.</text>
</g>
<!-- j2437362239&#45;&gt;j1395560690 -->
<g id="edge22" class="edge">
<title>j2437362239&#45;&gt;j1395560690</title>
<path fill="none" stroke="black" d="M1667.57,-1439.7C1667.57,-1432.41 1667.57,-1423.73 1667.57,-1415.54"/>
<polygon fill="black" stroke="black" points="1671.07,-1415.62 1667.57,-1405.62 1664.07,-1415.62 1671.07,-1415.62"/>
</g>
<!-- j2364946181 -->
<g id="node23" class="node">
<title>j2364946181</title>
<polygon fill="none" stroke="blue" points="321.07,-1332 134.07,-1332 134.07,-1296 321.07,-1296 321.07,-1332"/>
<text text-anchor="middle" x="227.57" y="-1310.3" font-family="Times New Roman,serif" font-size="14.00">Можливо, я буду малювати.</text>
</g>
<!-- j858878941&#45;&gt;j2364946181 -->
<g id="edge23" class="edge">
<title>j858878941&#45;&gt;j2364946181</title>
<path fill="none" stroke="black" d="M480.4,-1367.52C432.46,-1357.56 372.25,-1345.05 322.61,-1334.74"/>
<polygon fill="black" stroke="black" points="323.53,-1331.36 313.02,-1332.75 322.1,-1338.21 323.53,-1331.36"/>
</g>
<!-- j2399483158 -->
<g id="node24" class="node">
<title>j2399483158</title>
<polygon fill="none" stroke="red" points="1403.57,-1332 603.57,-1332 603.57,-1296 1403.57,-1296 1403.57,-1332"/>
<text text-anchor="middle" x="1003.57" y="-1310.3" font-family="Times New Roman,serif" font-size="14.00">Голвенія 1999&#45;го жорстка! «Скальдра», техногниль, Порожнеча — хтозна, що ще. Чи справді майбутнє виглядає набагато гірше?</text>
</g>
<!-- j1395560690&#45;&gt;j2399483158 -->
<g id="edge24" class="edge">
<title>j1395560690&#45;&gt;j2399483158</title>
<path fill="none" stroke="black" d="M1501.73,-1367.52C1403.99,-1357.21 1280.36,-1344.18 1180.72,-1333.68"/>
<polygon fill="black" stroke="black" points="1181.13,-1330.2 1170.82,-1332.63 1180.39,-1337.16 1181.13,-1330.2"/>
</g>
<!-- j3800053844 -->
<g id="node25" class="node">
<title>j3800053844</title>
<polygon fill="none" stroke="red" points="1972.07,-1332 1447.07,-1332 1447.07,-1296 1972.07,-1296 1972.07,-1332"/>
<text text-anchor="middle" x="1709.57" y="-1310.3" font-family="Times New Roman,serif" font-size="14.00">Ой, та годі… ти жорстка. Ти можеш упоратися з цим. Тут стільки всього класного.</text>
</g>
<!-- j1395560690&#45;&gt;j3800053844 -->
<g id="edge25" class="edge">
<title>j1395560690&#45;&gt;j3800053844</title>
<path fill="none" stroke="black" d="M1677.95,-1367.7C1682.63,-1359.9 1688.26,-1350.51 1693.47,-1341.83"/>
<polygon fill="black" stroke="black" points="1696.38,-1343.78 1698.53,-1333.4 1690.38,-1340.18 1696.38,-1343.78"/>
</g>
<!-- j227430165 -->
<g id="node26" class="node">
<title>j227430165</title>
<ellipse fill="none" stroke="orange" cx="84.57" cy="-1026" rx="59.59" ry="18"/>
<text text-anchor="middle" x="84.57" y="-1022.3" font-family="Times New Roman,serif" font-size="14.00">+5 Chemistry</text>
</g>
<!-- j2364946181&#45;&gt;j227430165 -->
<g id="edge26" class="edge">
<title>j2364946181&#45;&gt;j227430165</title>
<path fill="none" stroke="black" d="M162.72,-1295.57C110.83,-1277.83 41.49,-1244.69 8.57,-1188 -18.5,-1141.38 26.59,-1083.55 58.08,-1051.43"/>
<polygon fill="black" stroke="black" points="60.42,-1054.04 65.06,-1044.52 55.49,-1049.07 60.42,-1054.04"/>
</g>
<!-- j1194449276 -->
<g id="node27" class="node">
<title>j1194449276</title>
<polygon fill="none" stroke="blue" points="1759.07,-1260 224.07,-1260 224.07,-1224 1759.07,-1224 1759.07,-1260"/>
<text text-anchor="middle" x="991.57" y="-1238.3" font-family="Times New Roman,serif" font-size="14.00">Слухай, я ніколи не захоплювалася науковою фантастикою. Артур пройшов цей етап, але він завжди віддавав перевагу грубій армійській справі. Мужні чоловіки — герої, корисні «Історії для хлопчиків», повні підтексту, я впевнена, ти знаєш такі речі.</text>
</g>
<!-- j2399483158&#45;&gt;j1194449276 -->
<g id="edge27" class="edge">
<title>j2399483158&#45;&gt;j1194449276</title>
<path fill="none" stroke="black" d="M1000.6,-1295.7C999.34,-1288.32 997.83,-1279.52 996.41,-1271.25"/>
<polygon fill="black" stroke="black" points="999.9,-1270.86 994.76,-1261.6 993,-1272.04 999.9,-1270.86"/>
</g>
<!-- j865979636 -->
<g id="node28" class="node">
<title>j865979636</title>
<polygon fill="none" stroke="blue" points="2296.57,-1260 1920.57,-1260 1920.57,-1224 2296.57,-1224 2296.57,-1260"/>
<text text-anchor="middle" x="2108.57" y="-1238.3" font-family="Times New Roman,serif" font-size="14.00">Гаразд. Візьми мене за руку та проведи вулицями Голвенії.</text>
</g>
<!-- j3800053844&#45;&gt;j865979636 -->
<g id="edge28" class="edge">
<title>j3800053844&#45;&gt;j865979636</title>
<path fill="none" stroke="black" d="M1809.22,-1295.52C1866.58,-1285.45 1938.77,-1272.79 1997.89,-1262.42"/>
<polygon fill="black" stroke="black" points="1998.41,-1265.88 2007.66,-1260.7 1997.2,-1258.98 1998.41,-1265.88"/>
</g>
<!-- j227430165&#45;&gt;Chat ends. -->
<g id="edge29" class="edge">
<title>j227430165&#45;&gt;Chat ends.</title>
<path fill="none" stroke="black" d="M134.04,-1015.62C198.36,-1000.22 302.57,-962.95 302.57,-883 302.57,-883 302.57,-883 302.57,-161 302.57,-78.87 1605.65,-30.92 1906.23,-20.95"/>
<polygon fill="black" stroke="black" points="1906.35,-24.45 1916.23,-20.62 1906.12,-17.46 1906.35,-24.45"/>
</g>
<!-- j2688835834 -->
<g id="node29" class="node">
<title>j2688835834</title>
<polygon fill="none" stroke="blue" points="1941.07,-1188 18.07,-1188 18.07,-1152 1941.07,-1152 1941.07,-1188"/>
<text text-anchor="middle" x="979.57" y="-1166.3" font-family="Times New Roman,serif" font-size="14.00">Але я знаю достатньо про наукову фантастику, щоби зрозуміти, що в далекому&#45;далекому майбутньому ми матимемо таке саме лайно. Усе повинно бути блискучим та стерильним. Роботи виконують усю важку роботу, немає хвороб, нікому не потрібні гроші, тільки срібні вежі, блакитне небо та сексуальні ящірки.</text>
</g>
<!-- j1194449276&#45;&gt;j2688835834 -->
<g id="edge30" class="edge">
<title>j1194449276&#45;&gt;j2688835834</title>
<path fill="none" stroke="black" d="M988.6,-1223.7C987.34,-1216.32 985.83,-1207.52 984.41,-1199.25"/>
<polygon fill="black" stroke="black" points="987.9,-1198.86 982.76,-1189.6 981,-1200.04 987.9,-1198.86"/>
</g>
<!-- j3188976701 -->
<g id="node30" class="node">
<title>j3188976701</title>
<polygon fill="none" stroke="blue" points="2567.57,-1188 1959.57,-1188 1959.57,-1152 2567.57,-1152 2567.57,-1188"/>
<text text-anchor="middle" x="2263.57" y="-1166.3" font-family="Times New Roman,serif" font-size="14.00">Я знаю місце, де ми можемо взяти салат із ріпи та подивитися захід сонця над залишками школи.</text>
</g>
<!-- j865979636&#45;&gt;j3188976701 -->
<g id="edge31" class="edge">
<title>j865979636&#45;&gt;j3188976701</title>
<path fill="none" stroke="black" d="M2147.28,-1223.52C2167.7,-1214.29 2192.96,-1202.89 2214.72,-1193.06"/>
<polygon fill="black" stroke="black" points="2216.03,-1196.31 2223.7,-1189 2213.15,-1189.93 2216.03,-1196.31"/>
</g>
<!-- j2925330561 -->
<g id="node31" class="node">
<title>j2925330561</title>
<polygon fill="none" stroke="red" points="893.07,-1116 534.07,-1116 534.07,-1080 893.07,-1080 893.07,-1116"/>
<text text-anchor="middle" x="713.57" y="-1094.3" font-family="Times New Roman,serif" font-size="14.00">У нас є роботи. Вони виконують багато важкої роботи. </text>
</g>
<!-- j2688835834&#45;&gt;j2925330561 -->
<g id="edge32" class="edge">
<title>j2688835834&#45;&gt;j2925330561</title>
<path fill="none" stroke="black" d="M913.13,-1151.52C875.86,-1141.71 829.19,-1129.43 790.35,-1119.21"/>
<polygon fill="black" stroke="black" points="791.64,-1115.93 781.08,-1116.77 789.86,-1122.7 791.64,-1115.93"/>
</g>
<!-- j228976053 -->
<g id="node32" class="node">
<title>j228976053</title>
<polygon fill="none" stroke="red" points="1697.07,-1116 928.07,-1116 928.07,-1080 1697.07,-1080 1697.07,-1116"/>
<text text-anchor="middle" x="1312.57" y="-1094.3" font-family="Times New Roman,serif" font-size="14.00">Але те, про що ти говориш, це просто фантастика, чи не так? То чому ж ти очікуєш, що реальність буде відповідати цьому?</text>
</g>
<!-- j2688835834&#45;&gt;j228976053 -->
<g id="edge33" class="edge">
<title>j2688835834&#45;&gt;j228976053</title>
<path fill="none" stroke="black" d="M1062.74,-1151.52C1110.01,-1141.58 1169.36,-1129.1 1218.34,-1118.81"/>
<polygon fill="black" stroke="black" points="1219.05,-1122.24 1228.11,-1116.75 1217.61,-1115.39 1219.05,-1122.24"/>
</g>
<!-- j2063214713 -->
<g id="node33" class="node">
<title>j2063214713</title>
<polygon fill="none" stroke="blue" points="2522.57,-972 2094.57,-972 2094.57,-936 2522.57,-936 2522.57,-972"/>
<text text-anchor="middle" x="2308.57" y="-950.3" font-family="Times New Roman,serif" font-size="14.00">Пізніше ми можемо посьорбати коктейлі при світлі палаючого бака.</text>
</g>
<!-- j3188976701&#45;&gt;j2063214713 -->
<g id="edge34" class="edge">
<title>j3188976701&#45;&gt;j2063214713</title>
<path fill="none" stroke="black" d="M2267.17,-1151.85C2274.91,-1115.07 2293.16,-1028.29 2302.63,-983.24"/>
<polygon fill="black" stroke="black" points="2306,-984.22 2304.63,-973.71 2299.15,-982.78 2306,-984.22"/>
</g>
<!-- j4107723637 -->
<g id="node34" class="node">
<title>j4107723637</title>
<polygon fill="none" stroke="blue" points="594.57,-900 358.57,-900 358.57,-864 594.57,-864 594.57,-900"/>
<text text-anchor="middle" x="476.57" y="-878.3" font-family="Times New Roman,serif" font-size="14.00">Ну гаразд. Ви отримуєте за це очко.</text>
</g>
<!-- j2925330561&#45;&gt;j4107723637 -->
<g id="edge35" class="edge">
<title>j2925330561&#45;&gt;j4107723637</title>
<path fill="none" stroke="black" d="M694.57,-1079.85C652.8,-1042.13 552.79,-951.83 504.12,-907.88"/>
<polygon fill="black" stroke="black" points="506.54,-905.35 496.78,-901.25 501.85,-910.55 506.54,-905.35"/>
</g>
<!-- j1196917072 -->
<g id="node35" class="node">
<title>j1196917072</title>
<polygon fill="none" stroke="blue" points="1467.57,-1044 1189.57,-1044 1189.57,-1008 1467.57,-1008 1467.57,-1044"/>
<text text-anchor="middle" x="1328.57" y="-1022.3" font-family="Times New Roman,serif" font-size="14.00">Ух. Я не… це складно. Дозволь, я поясню.</text>
</g>
<!-- j228976053&#45;&gt;j1196917072 -->
<g id="edge36" class="edge">
<title>j228976053&#45;&gt;j1196917072</title>
<path fill="none" stroke="black" d="M1316.52,-1079.7C1318.21,-1072.32 1320.22,-1063.52 1322.11,-1055.25"/>
<polygon fill="black" stroke="black" points="1325.51,-1056.11 1324.32,-1045.58 1318.68,-1054.55 1325.51,-1056.11"/>
</g>
<!-- j2063214713&#45;&gt;Chat ends. -->
<g id="edge37" class="edge">
<title>j2063214713&#45;&gt;Chat ends.</title>
<path fill="none" stroke="black" d="M2389.92,-935.63C2409.96,-927.78 2429.64,-916.42 2443.57,-900 2469.73,-869.16 2462.57,-851.45 2462.57,-811 2462.57,-811 2462.57,-811 2462.57,-161 2462.57,-71.5 2159.82,-35.14 2027.85,-23.54"/>
<polygon fill="black" stroke="black" points="2028.16,-20.05 2017.89,-22.69 2027.56,-27.03 2028.16,-20.05"/>
</g>
<!-- j1554805392 -->
<g id="node36" class="node">
<title>j1554805392</title>
<polygon fill="none" stroke="blue" points="842.57,-684 494.57,-684 494.57,-648 842.57,-648 842.57,-684"/>
<text text-anchor="middle" x="668.57" y="-662.3" font-family="Times New Roman,serif" font-size="14.00">Але чи полегшили ці роботи життя звичайним людям?</text>
</g>
<!-- j4107723637&#45;&gt;j1554805392 -->
<g id="edge38" class="edge">
<title>j4107723637&#45;&gt;j1554805392</title>
<path fill="none" stroke="black" d="M491.96,-863.85C525.59,-826.36 605.81,-736.95 645.51,-692.7"/>
<polygon fill="black" stroke="black" points="648.02,-695.14 652.1,-685.36 642.81,-690.47 648.02,-695.14"/>
</g>
<!-- j1944320771 -->
<g id="node37" class="node">
<title>j1944320771</title>
<polygon fill="none" stroke="blue" points="1839.07,-972 1078.07,-972 1078.07,-936 1839.07,-936 1839.07,-972"/>
<text text-anchor="middle" x="1458.57" y="-950.3" font-family="Times New Roman,serif" font-size="14.00">Я не кажу, що очікувала, що майбутнє виглядатиме як дитячий комікс. Я маю на увазі, що з цим був пов’язаний оптимізм.</text>
</g>
<!-- j1196917072&#45;&gt;j1944320771 -->
<g id="edge39" class="edge">
<title>j1196917072&#45;&gt;j1944320771</title>
<path fill="none" stroke="black" d="M1361.04,-1007.52C1377.84,-998.47 1398.55,-987.32 1416.55,-977.62"/>
<polygon fill="black" stroke="black" points="1418.04,-980.8 1425.18,-972.98 1414.72,-974.64 1418.04,-980.8"/>
</g>
<!-- j3808571967 -->
<g id="node38" class="node">
<title>j3808571967</title>
<polygon fill="none" stroke="blue" points="1026.57,-468 638.57,-468 638.57,-432 1026.57,-432 1026.57,-468"/>
<text text-anchor="middle" x="832.57" y="-446.3" font-family="Times New Roman,serif" font-size="14.00">Чи вони просто стали чимось, що сприймається як належне?</text>
</g>
<!-- j1554805392&#45;&gt;j3808571967 -->
<g id="edge40" class="edge">
<title>j1554805392&#45;&gt;j3808571967</title>
<path fill="none" stroke="black" d="M681.71,-647.85C710.32,-610.52 778.39,-521.69 812.44,-477.26"/>
<polygon fill="black" stroke="black" points="815.14,-479.5 818.44,-469.43 809.58,-475.24 815.14,-479.5"/>
</g>
<!-- j2669550613 -->
<g id="node39" class="node">
<title>j2669550613</title>
<polygon fill="none" stroke="blue" points="2434.57,-900 612.57,-900 612.57,-864 2434.57,-864 2434.57,-900"/>
<text text-anchor="middle" x="1523.57" y="-878.3" font-family="Times New Roman,serif" font-size="14.00">Думаю, ми всі просто сприймали як належне, що як би паскудно зараз не було, зрештою ми з цим розберемося. Наша цивілізація призначена для розвитку. Ми почали бити один одного палиця по голові, а через кілька тисяч років знайшли способи залагодити наші розбіжності, не роблячи цього.</text>
</g>
<!-- j1944320771&#45;&gt;j2669550613 -->
<g id="edge41" class="edge">
<title>j1944320771&#45;&gt;j2669550613</title>
<path fill="none" stroke="black" d="M1474.64,-935.7C1482.27,-927.47 1491.55,-917.48 1499.96,-908.42"/>
<polygon fill="black" stroke="black" points="1502.42,-910.92 1506.66,-901.21 1497.29,-906.16 1502.42,-910.92"/>
</g>
<!-- j399600391 -->
<g id="node40" class="node">
<title>j399600391</title>
<polygon fill="none" stroke="red" points="1004.07,-396 661.07,-396 661.07,-360 1004.07,-360 1004.07,-396"/>
<text text-anchor="middle" x="832.57" y="-374.3" font-family="Times New Roman,serif" font-size="14.00">Ти налаштована бачити в усьому найгірше, чи не так?</text>
</g>
<!-- j3808571967&#45;&gt;j399600391 -->
<g id="edge42" class="edge">
<title>j3808571967&#45;&gt;j399600391</title>
<path fill="none" stroke="black" d="M832.57,-431.7C832.57,-424.41 832.57,-415.73 832.57,-407.54"/>
<polygon fill="black" stroke="black" points="836.07,-407.62 832.57,-397.62 829.07,-407.62 836.07,-407.62"/>
</g>
<!-- j316812097 -->
<g id="node41" class="node">
<title>j316812097</title>
<polygon fill="none" stroke="red" points="1396.57,-396 1022.57,-396 1022.57,-360 1396.57,-360 1396.57,-396"/>
<text text-anchor="middle" x="1209.57" y="-374.3" font-family="Times New Roman,serif" font-size="14.00">Гаразд. Ми не позбулися експлуатації, створивши роботів.</text>
</g>
<!-- j3808571967&#45;&gt;j316812097 -->
<g id="edge43" class="edge">
<title>j3808571967&#45;&gt;j316812097</title>
<path fill="none" stroke="black" d="M926.73,-431.52C980.81,-421.48 1048.85,-408.84 1104.64,-398.48"/>
<polygon fill="black" stroke="black" points="1104.95,-401.99 1114.14,-396.72 1103.67,-395.1 1104.95,-401.99"/>
</g>
<!-- j1277838111 -->
<g id="node42" class="node">
<title>j1277838111</title>
<polygon fill="none" stroke="red" points="1699.07,-828 1306.07,-828 1306.07,-792 1699.07,-792 1699.07,-828"/>
<text text-anchor="middle" x="1502.57" y="-806.3" font-family="Times New Roman,serif" font-size="14.00">Люди залишаються людьми, як би не змінювалися технології.</text>
</g>
<!-- j2669550613&#45;&gt;j1277838111 -->
<g id="edge44" class="edge">
<title>j2669550613&#45;&gt;j1277838111</title>
<path fill="none" stroke="black" d="M1518.38,-863.7C1516.14,-856.24 1513.47,-847.32 1510.96,-838.97"/>
<polygon fill="black" stroke="black" points="1514.36,-838.13 1508.13,-829.55 1507.66,-840.14 1514.36,-838.13"/>
</g>
<!-- j1803683066 -->
<g id="node43" class="node">
<title>j1803683066</title>
<polygon fill="none" stroke="red" points="1879.57,-828 1717.57,-828 1717.57,-792 1879.57,-792 1879.57,-828"/>
<text text-anchor="middle" x="1798.57" y="-806.3" font-family="Times New Roman,serif" font-size="14.00">Вибач, ми тебе підвели?</text>
</g>
<!-- j2669550613&#45;&gt;j1803683066 -->
<g id="edge45" class="edge">
<title>j2669550613&#45;&gt;j1803683066</title>
<path fill="none" stroke="black" d="M1592.25,-863.52C1630.79,-853.71 1679.04,-841.43 1719.19,-831.21"/>
<polygon fill="black" stroke="black" points="1719.99,-834.61 1728.82,-828.76 1718.26,-827.83 1719.99,-834.61"/>
</g>
<!-- j2208703875 -->
<g id="node44" class="node">
<title>j2208703875</title>
<polygon fill="none" stroke="blue" points="946.07,-324 865.07,-324 865.07,-288 946.07,-288 946.07,-324"/>
<text text-anchor="middle" x="905.57" y="-302.3" font-family="Times New Roman,serif" font-size="14.00">Очевидно.</text>
</g>
<!-- j399600391&#45;&gt;j2208703875 -->
<g id="edge46" class="edge">
<title>j399600391&#45;&gt;j2208703875</title>
<path fill="none" stroke="black" d="M850.61,-359.7C859.3,-351.37 869.88,-341.22 879.43,-332.07"/>
<polygon fill="black" stroke="black" points="881.59,-334.84 886.39,-325.39 876.75,-329.79 881.59,-334.84"/>
</g>
<!-- j1256858217 -->
<g id="node45" class="node">
<title>j1256858217</title>
<polygon fill="none" stroke="blue" points="1332.57,-324 1086.57,-324 1086.57,-288 1332.57,-288 1332.57,-324"/>
<text text-anchor="middle" x="1209.57" y="-302.3" font-family="Times New Roman,serif" font-size="14.00">Правильно. Це те, що так розчаровує.</text>
</g>
<!-- j316812097&#45;&gt;j1256858217 -->
<g id="edge47" class="edge">
<title>j316812097&#45;&gt;j1256858217</title>
<path fill="none" stroke="black" d="M1209.57,-359.7C1209.57,-352.41 1209.57,-343.73 1209.57,-335.54"/>
<polygon fill="black" stroke="black" points="1213.07,-335.62 1209.57,-325.62 1206.07,-335.62 1213.07,-335.62"/>
</g>
<!-- j724308631 -->
<g id="node46" class="node">
<title>j724308631</title>
<polygon fill="none" stroke="blue" points="1721.07,-756 1300.07,-756 1300.07,-720 1721.07,-720 1721.07,-756"/>
<text text-anchor="middle" x="1510.57" y="-734.3" font-family="Times New Roman,serif" font-size="14.00">Бінго. Ти влучно описуєш те, що мене так гнітить у всьому цьому.</text>
</g>
<!-- j1277838111&#45;&gt;j724308631 -->
<g id="edge48" class="edge">
<title>j1277838111&#45;&gt;j724308631</title>
<path fill="none" stroke="black" d="M1504.55,-791.7C1505.38,-784.41 1506.37,-775.73 1507.31,-767.54"/>
<polygon fill="black" stroke="black" points="1510.78,-767.94 1508.44,-757.61 1503.83,-767.15 1510.78,-767.94"/>
</g>
<!-- j3312110660 -->
<g id="node47" class="node">
<title>j3312110660</title>
<polygon fill="none" stroke="blue" points="1820.57,-756 1746.57,-756 1746.57,-720 1820.57,-720 1820.57,-756"/>
<text text-anchor="middle" x="1783.57" y="-734.3" font-family="Times New Roman,serif" font-size="14.00">Саме так.</text>
</g>
<!-- j1803683066&#45;&gt;j3312110660 -->
<g id="edge49" class="edge">
<title>j1803683066&#45;&gt;j3312110660</title>
<path fill="none" stroke="black" d="M1794.86,-791.7C1793.28,-784.32 1791.4,-775.52 1789.62,-767.25"/>
<polygon fill="black" stroke="black" points="1793.07,-766.63 1787.55,-757.58 1786.22,-768.1 1793.07,-766.63"/>
</g>
<!-- j3127472774 -->
<g id="node48" class="node">
<title>j3127472774</title>
<polygon fill="none" stroke="blue" points="1181.07,-108 928.07,-108 928.07,-72 1181.07,-72 1181.07,-108"/>
<text text-anchor="middle" x="1054.57" y="-86.3" font-family="Times New Roman,serif" font-size="14.00">Так ти розумієш, що потрібно змінити.</text>
</g>
<!-- j2208703875&#45;&gt;j3127472774 -->
<g id="edge50" class="edge">
<title>j2208703875&#45;&gt;j3127472774</title>
<path fill="none" stroke="black" d="M917.51,-287.85C943.45,-250.6 1005.09,-162.07 1036.09,-117.54"/>
<polygon fill="black" stroke="black" points="1038.86,-119.68 1041.71,-109.47 1033.12,-115.68 1038.86,-119.68"/>
</g>
<!-- j75360772 -->
<g id="node49" class="node">
<title>j75360772</title>
<polygon fill="none" stroke="blue" points="1470.07,-252 1087.07,-252 1087.07,-216 1470.07,-216 1470.07,-252"/>
<text text-anchor="middle" x="1278.57" y="-230.3" font-family="Times New Roman,serif" font-size="14.00">Ви прогресивні, але ви також повинні бути ПРОСВІТЛЕННІ</text>
</g>
<!-- j1256858217&#45;&gt;j75360772 -->
<g id="edge51" class="edge">
<title>j1256858217&#45;&gt;j75360772</title>
<path fill="none" stroke="black" d="M1226.62,-287.7C1234.81,-279.39 1244.78,-269.28 1253.79,-260.14"/>
<polygon fill="black" stroke="black" points="1256.12,-262.76 1260.65,-253.18 1251.13,-257.85 1256.12,-262.76"/>
</g>
<!-- j2181452027 -->
<g id="node50" class="node">
<title>j2181452027</title>
<polygon fill="none" stroke="blue" points="2277.57,-684 1095.57,-684 1095.57,-648 2277.57,-648 2277.57,-684"/>
<text text-anchor="middle" x="1686.57" y="-662.3" font-family="Times New Roman,serif" font-size="14.00">У вас під рукою була вся ця неймовірна, магічна технологія, і все, що ви робили з нею, — це знаходили нові способи експлуатувати один одного. Наука зробила нас менш рівними, а не більш.</text>
</g>
<!-- j724308631&#45;&gt;j2181452027 -->
<g id="edge52" class="edge">
<title>j724308631&#45;&gt;j2181452027</title>
<path fill="none" stroke="black" d="M1554.53,-719.52C1578.14,-710.13 1607.44,-698.47 1632.44,-688.53"/>
<polygon fill="black" stroke="black" points="1633.46,-691.89 1641.46,-684.94 1630.87,-685.38 1633.46,-691.89"/>
</g>
<!-- j3312110660&#45;&gt;j2181452027 -->
<g id="edge53" class="edge">
<title>j3312110660&#45;&gt;j2181452027</title>
<path fill="none" stroke="black" d="M1759.59,-719.7C1747.58,-711.03 1732.85,-700.4 1719.77,-690.96"/>
<polygon fill="black" stroke="black" points="1721.99,-688.25 1711.83,-685.23 1717.89,-693.92 1721.99,-688.25"/>
</g>
<!-- j3127472774&#45;&gt;Chat ends. -->
<g id="edge54" class="edge">
<title>j3127472774&#45;&gt;Chat ends.</title>
<path fill="none" stroke="black" d="M1181.52,-79.27C1381.17,-63.96 1760.88,-34.85 1907.62,-23.6"/>
<polygon fill="black" stroke="black" points="1907.8,-27.09 1917.51,-22.84 1907.27,-20.11 1907.8,-27.09"/>
</g>
<!-- j3544951290 -->
<g id="node51" class="node">
<title>j3544951290</title>
<polygon fill="none" stroke="blue" points="1499.57,-180 1219.57,-180 1219.57,-144 1499.57,-144 1499.57,-180"/>
<text text-anchor="middle" x="1359.57" y="-158.3" font-family="Times New Roman,serif" font-size="14.00">Дякую, що терпиш мене. Я знаю, це важко.</text>
</g>
<!-- j75360772&#45;&gt;j3544951290 -->
<g id="edge55" class="edge">
<title>j75360772&#45;&gt;j3544951290</title>
<path fill="none" stroke="black" d="M1298.59,-215.7C1308.33,-207.28 1320.2,-197.02 1330.88,-187.79"/>
<polygon fill="black" stroke="black" points="1333.07,-190.52 1338.35,-181.34 1328.5,-185.23 1333.07,-190.52"/>
</g>
<!-- j4082646046 -->
<g id="node52" class="node">
<title>j4082646046</title>
<polygon fill="none" stroke="red" points="1804.57,-612 1526.57,-612 1526.57,-576 1804.57,-576 1804.57,-612"/>
<text text-anchor="middle" x="1665.57" y="-590.3" font-family="Times New Roman,serif" font-size="14.00">Ем, увічливе нагадування, що це ВСЕ не я?</text>
</g>
<!-- j2181452027&#45;&gt;j4082646046 -->
<g id="edge56" class="edge">
<title>j2181452027&#45;&gt;j4082646046</title>
<path fill="none" stroke="black" d="M1681.38,-647.7C1679.14,-640.24 1676.47,-631.32 1673.96,-622.97"/>
<polygon fill="black" stroke="black" points="1677.36,-622.13 1671.13,-613.55 1670.66,-624.14 1677.36,-622.13"/>
</g>
<!-- j104396288 -->
<g id="node53" class="node">
<title>j104396288</title>
<polygon fill="none" stroke="red" points="2044.57,-612 1822.57,-612 1822.57,-576 2044.57,-576 2044.57,-612"/>
<text text-anchor="middle" x="1933.57" y="-590.3" font-family="Times New Roman,serif" font-size="14.00">Я надішлю твою скаргу орокінам.</text>
</g>
<!-- j2181452027&#45;&gt;j104396288 -->
<g id="edge57" class="edge">
<title>j2181452027&#45;&gt;j104396288</title>
<path fill="none" stroke="black" d="M1748.26,-647.52C1782.58,-637.79 1825.47,-625.64 1861.34,-615.47"/>
<polygon fill="black" stroke="black" points="1862.11,-618.89 1870.78,-612.79 1860.2,-612.15 1862.11,-618.89"/>
</g>
<!-- j4072819434 -->
<g id="node54" class="node">
<title>j4072819434</title>
<ellipse fill="none" stroke="orange" cx="1555.57" cy="-90" rx="64.19" ry="18"/>
<text text-anchor="middle" x="1555.57" y="-86.3" font-family="Times New Roman,serif" font-size="14.00">+15 Chemistry</text>
</g>
<!-- j3544951290&#45;&gt;j4072819434 -->
<g id="edge58" class="edge">
<title>j3544951290&#45;&gt;j4072819434</title>
<path fill="none" stroke="black" d="M1408.52,-143.52C1438.41,-132.84 1476.51,-119.24 1506.43,-108.55"/>
<polygon fill="black" stroke="black" points="1507.39,-111.92 1515.63,-105.26 1505.04,-105.33 1507.39,-111.92"/>
</g>
<!-- j4130811290 -->
<g id="node55" class="node">
<title>j4130811290</title>
<polygon fill="none" stroke="blue" points="2101.57,-540 1683.57,-540 1683.57,-504 2101.57,-504 2101.57,-540"/>
<text text-anchor="middle" x="1892.57" y="-518.3" font-family="Times New Roman,serif" font-size="14.00">О боже, Я не маю на увазі тебе особисто. Я кажу про твою епоху.</text>
</g>
<!-- j4082646046&#45;&gt;j4130811290 -->
<g id="edge59" class="edge">
<title>j4082646046&#45;&gt;j4130811290</title>
<path fill="none" stroke="black" d="M1722.26,-575.52C1753.53,-565.88 1792.54,-553.84 1825.34,-543.73"/>
<polygon fill="black" stroke="black" points="1826.23,-547.12 1834.76,-540.83 1824.17,-540.43 1826.23,-547.12"/>
</g>
<!-- j104396288&#45;&gt;j4130811290 -->
<g id="edge60" class="edge">
<title>j104396288&#45;&gt;j4130811290</title>
<path fill="none" stroke="black" d="M1923.43,-575.7C1918.87,-567.9 1913.37,-558.51 1908.28,-549.83"/>
<polygon fill="black" stroke="black" points="1911.43,-548.27 1903.35,-541.41 1905.39,-551.81 1911.43,-548.27"/>
</g>
<!-- j4072819434&#45;&gt;Chat ends. -->
<g id="edge61" class="edge">
<title>j4072819434&#45;&gt;Chat ends.</title>
<path fill="none" stroke="black" d="M1609.43,-79.85C1687.7,-66.55 1832.19,-42 1911.62,-28.51"/>
<polygon fill="black" stroke="black" points="1912.09,-31.98 1921.36,-26.85 1910.91,-25.08 1912.09,-31.98"/>
</g>
<!-- j3400412378 -->
<g id="node56" class="node">
<title>j3400412378</title>
<polygon fill="none" stroke="blue" points="2239.07,-468 1546.07,-468 1546.07,-432 2239.07,-432 2239.07,-468"/>
<text text-anchor="middle" x="1892.57" y="-446.3" font-family="Times New Roman,serif" font-size="14.00">Якщо що, ти повернувся назад. Боги&#45;царі у плоті! З усіх речей, які можна було винайти, ви знову винайшли ЇХ.</text>
</g>
<!-- j4130811290&#45;&gt;j3400412378 -->
<g id="edge62" class="edge">
<title>j4130811290&#45;&gt;j3400412378</title>
<path fill="none" stroke="black" d="M1892.57,-503.7C1892.57,-496.41 1892.57,-487.73 1892.57,-479.54"/>
<polygon fill="black" stroke="black" points="1896.07,-479.62 1892.57,-469.62 1889.07,-479.62 1896.07,-479.62"/>
</g>
<!-- j998022204 -->
<g id="node57" class="node">
<title>j998022204</title>
<polygon fill="none" stroke="red" points="2039.07,-396 1746.07,-396 1746.07,-360 2039.07,-360 2039.07,-396"/>
<text text-anchor="middle" x="1892.57" y="-374.3" font-family="Times New Roman,serif" font-size="14.00">Тенно вбили орокінів. Ти забула цю частину?</text>
</g>
<!-- j3400412378&#45;&gt;j998022204 -->
<g id="edge63" class="edge">
<title>j3400412378&#45;&gt;j998022204</title>
<path fill="none" stroke="black" d="M1892.57,-431.7C1892.57,-424.41 1892.57,-415.73 1892.57,-407.54"/>
<polygon fill="black" stroke="black" points="1896.07,-407.62 1892.57,-397.62 1889.07,-407.62 1896.07,-407.62"/>
</g>
<!-- j2414023494 -->
<g id="node58" class="node">
<title>j2414023494</title>
<polygon fill="none" stroke="blue" points="2434.07,-324 1351.07,-324 1351.07,-288 2434.07,-288 2434.07,-324"/>
<text text-anchor="middle" x="1892.57" y="-302.3" font-family="Times New Roman,serif" font-size="14.00">Ні. Я не забула ту частину, де емоційно скривджені сироти вбивають безсмертну еліту. Я просто обожнюю цей момент. Якщо я заплющу очі, то майже уявляю собі їхні крики.</text>
</g>
<!-- j998022204&#45;&gt;j2414023494 -->
<g id="edge64" class="edge">
<title>j998022204&#45;&gt;j2414023494</title>
<path fill="none" stroke="black" d="M1892.57,-359.7C1892.57,-352.41 1892.57,-343.73 1892.57,-335.54"/>
<polygon fill="black" stroke="black" points="1896.07,-335.62 1892.57,-325.62 1889.07,-335.62 1896.07,-335.62"/>
</g>
<!-- j2475316715 -->
<g id="node59" class="node">
<title>j2475316715</title>
<polygon fill="none" stroke="red" points="2025.07,-252 1522.07,-252 1522.07,-216 2025.07,-216 2025.07,-252"/>
<text text-anchor="middle" x="1773.57" y="-230.3" font-family="Times New Roman,serif" font-size="14.00">Гаразд. Майбутнє — це безлад. Ти можеш зосередитися на цьому, якщо хочеш.</text>
</g>
<!-- j2414023494&#45;&gt;j2475316715 -->
<g id="edge65" class="edge">
<title>j2414023494&#45;&gt;j2475316715</title>
<path fill="none" stroke="black" d="M1862.85,-287.52C1847.68,-278.6 1829.04,-267.63 1812.72,-258.03"/>
<polygon fill="black" stroke="black" points="1814.61,-255.08 1804.22,-253.03 1811.06,-261.11 1814.61,-255.08"/>
</g>
<!-- j1693787667 -->
<g id="node60" class="node">
<title>j1693787667</title>
<polygon fill="none" stroke="red" points="2399.57,-252 2043.57,-252 2043.57,-216 2399.57,-216 2399.57,-252"/>
<text text-anchor="middle" x="2221.57" y="-230.3" font-family="Times New Roman,serif" font-size="14.00">Це… те… про що треба обережніше зізнаватися людям.</text>
</g>
<!-- j2414023494&#45;&gt;j1693787667 -->
<g id="edge66" class="edge">
<title>j2414023494&#45;&gt;j1693787667</title>
<path fill="none" stroke="black" d="M1974.74,-287.52C2021.44,-277.58 2080.08,-265.1 2128.48,-254.81"/>
<polygon fill="black" stroke="black" points="2129.06,-258.26 2138.11,-252.76 2127.6,-251.42 2129.06,-258.26"/>
</g>
<!-- j414702168 -->
<g id="node61" class="node">
<title>j414702168</title>
<polygon fill="none" stroke="red" points="1979.07,-180 1632.07,-180 1632.07,-144 1979.07,-144 1979.07,-180"/>
<text text-anchor="middle" x="1805.57" y="-158.3" font-family="Times New Roman,serif" font-size="14.00">Я з тих людей, які намагаються зробити його кращим.</text>
</g>
<!-- j2475316715&#45;&gt;j414702168 -->
<g id="edge67" class="edge">
<title>j2475316715&#45;&gt;j414702168</title>
<path fill="none" stroke="black" d="M1781.48,-215.7C1784.97,-208.07 1789.15,-198.92 1793.04,-190.4"/>
<polygon fill="black" stroke="black" points="1796.15,-192.03 1797.12,-181.48 1789.78,-189.12 1796.15,-192.03"/>
</g>
<!-- j1113386461 -->
<g id="node62" class="node">
<title>j1113386461</title>
<polygon fill="none" stroke="blue" points="2284.57,-180 2030.57,-180 2030.57,-144 2284.57,-144 2284.57,-180"/>
<text text-anchor="middle" x="2157.57" y="-158.3" font-family="Times New Roman,serif" font-size="14.00">… іронія теж застаріла в майбутньому?</text>
</g>
<!-- j1693787667&#45;&gt;j1113386461 -->
<g id="edge68" class="edge">
<title>j1693787667&#45;&gt;j1113386461</title>
<path fill="none" stroke="black" d="M2205.75,-215.7C2198.23,-207.47 2189.1,-197.48 2180.81,-188.42"/>
<polygon fill="black" stroke="black" points="2183.56,-186.24 2174.23,-181.22 2178.39,-190.96 2183.56,-186.24"/>
</g>
<!-- j2895199346 -->
<g id="node63" class="node">
<title>j2895199346</title>
<ellipse fill="none" stroke="orange" cx="1848.57" cy="-90" rx="64.19" ry="18"/>
<text text-anchor="middle" x="1848.57" y="-86.3" font-family="Times New Roman,serif" font-size="14.00">+20 Chemistry</text>
</g>
<!-- j414702168&#45;&gt;j2895199346 -->
<g id="edge69" class="edge">
<title>j414702168&#45;&gt;j2895199346</title>
<path fill="none" stroke="black" d="M1816.2,-143.7C1820.99,-135.9 1826.76,-126.51 1832.09,-117.83"/>
<polygon fill="black" stroke="black" points="1835.02,-119.75 1837.27,-109.39 1829.05,-116.08 1835.02,-119.75"/>
</g>
<!-- j1113386461&#45;&gt;Chat ends. -->
<g id="edge70" class="edge">
<title>j1113386461&#45;&gt;Chat ends.</title>
<path fill="none" stroke="black" d="M2134.27,-143.59C2099.83,-117.85 2035.34,-69.65 1997.46,-41.34"/>
<polygon fill="black" stroke="black" points="1999.75,-38.68 1989.65,-35.5 1995.56,-44.29 1999.75,-38.68"/>
</g>
<!-- j2895199346&#45;&gt;Chat ends. -->
<g id="edge71" class="edge">
<title>j2895199346&#45;&gt;Chat ends.</title>
<path fill="none" stroke="black" d="M1875.27,-73.29C1892.16,-63.36 1914.16,-50.41 1932.45,-39.66"/>
<polygon fill="black" stroke="black" points="1934.03,-42.79 1940.87,-34.71 1930.48,-36.76 1934.03,-42.79"/>
</g>
</g>
</svg>
