<?xml version="1.0" encoding="UTF-8" standalone="no"?>
<!DOCTYPE svg PUBLIC "-//W3C//DTD SVG 1.1//EN"
 "http://www.w3.org/Graphics/SVG/1.1/DTD/svg11.dtd">
<!-- Generated by graphviz version 7.1.0 (20230121.1956)
 -->
<!-- Pages: 1 -->
<svg width="1380pt" height="2100pt"
 viewBox="0.00 0.00 1380.09 2100.00" xmlns="http://www.w3.org/2000/svg" xmlns:xlink="http://www.w3.org/1999/xlink">
<g id="graph0" class="graph" transform="scale(1 1) rotate(0) translate(4 2096)">
<polygon fill="white" stroke="none" points="-4,4 -4,-2096 1376.09,-2096 1376.09,4 -4,4"/>
<!-- QuincyRank5Convo5 begins. -->
<g id="node1" class="node">
<title>QuincyRank5Convo5 begins.</title>
<ellipse fill="none" stroke="orange" cx="126.09" cy="-2074" rx="118.08" ry="18"/>
<text text-anchor="middle" x="126.09" y="-2070.3" font-family="Times New Roman,serif" font-size="14.00">QuincyRank5Convo5 begins.</text>
</g>
<!-- j2406381004 -->
<g id="node2" class="node">
<title>j2406381004</title>
<ellipse fill="none" stroke="orange" cx="126.09" cy="-2001" rx="126.18" ry="18"/>
<text text-anchor="middle" x="126.09" y="-1997.3" font-family="Times New Roman,serif" font-size="14.00">Check boolean QuincyForgiven</text>
</g>
<!-- QuincyRank5Convo5 begins.&#45;&gt;j2406381004 -->
<g id="edge1" class="edge">
<title>QuincyRank5Convo5 begins.&#45;&gt;j2406381004</title>
<path fill="none" stroke="black" d="M126.09,-2055.81C126.09,-2048.23 126.09,-2039.1 126.09,-2030.54"/>
<polygon fill="black" stroke="black" points="129.59,-2030.54 126.09,-2020.54 122.59,-2030.54 129.59,-2030.54"/>
</g>
<!-- j2463720372 -->
<g id="node3" class="node">
<title>j2463720372</title>
<ellipse fill="none" stroke="orange" cx="889.09" cy="-1914" rx="117.78" ry="18"/>
<text text-anchor="middle" x="889.09" y="-1910.3" font-family="Times New Roman,serif" font-size="14.00">Check boolean QuincyDating</text>
</g>
<!-- j2406381004&#45;&gt;j2463720372 -->
<g id="edge2" class="edge">
<title>j2406381004&#45;&gt;j2463720372</title>
<path fill="none" stroke="green" d="M223.11,-1989.19C367.16,-1973.14 636.5,-1943.14 784.7,-1926.63"/>
<polygon fill="green" stroke="green" points="784.97,-1930.12 794.52,-1925.53 784.2,-1923.16 784.97,-1930.12"/>
<text text-anchor="middle" x="565.09" y="-1953.8" font-family="Times New Roman,serif" font-size="14.00">true</text>
</g>
<!-- Chat ends. -->
<g id="node4" class="node">
<title>Chat ends.</title>
<ellipse fill="none" stroke="orange" cx="1002.09" cy="-18" rx="50.09" ry="18"/>
<text text-anchor="middle" x="1002.09" y="-14.3" font-family="Times New Roman,serif" font-size="14.00">Chat ends.</text>
</g>
<!-- j2406381004&#45;&gt;Chat ends. -->
<g id="edge3" class="edge">
<title>j2406381004&#45;&gt;Chat ends.</title>
<path fill="none" stroke="brown" d="M120.85,-1982.6C116.18,-1965.54 110.09,-1938.73 110.09,-1915 110.09,-1915 110.09,-1915 110.09,-90 110.09,-77.99 119.9,-77.36 131.09,-73 205.94,-43.86 754.53,-25.94 940.58,-20.65"/>
<polygon fill="brown" stroke="brown" points="940.63,-24.15 950.52,-20.37 940.43,-17.15 940.63,-24.15"/>
<text text-anchor="middle" x="123.09" y="-1023.3" font-family="Times New Roman,serif" font-size="14.00">false</text>
</g>
<!-- j2463720372&#45;&gt;Chat ends. -->
<g id="edge5" class="edge">
<title>j2463720372&#45;&gt;Chat ends.</title>
<path fill="none" stroke="brown" d="M989.38,-1904.25C1123.9,-1891.13 1346.09,-1864.01 1346.09,-1828 1346.09,-1828 1346.09,-1828 1346.09,-90 1346.09,-33.03 1162.83,-21.4 1063.82,-19.27"/>
<polygon fill="brown" stroke="brown" points="1064.05,-15.78 1053.99,-19.09 1063.92,-22.77 1064.05,-15.78"/>
<text text-anchor="middle" x="1359.09" y="-979.8" font-family="Times New Roman,serif" font-size="14.00">false</text>
</g>
<!-- j3819827451 -->
<g id="node5" class="node">
<title>j3819827451</title>
<polygon fill="none" stroke="blue" points="1191.59,-1845 586.59,-1845 586.59,-1809 1191.59,-1809 1191.59,-1845"/>
<text text-anchor="middle" x="889.09" y="-1823.3" font-family="Times New Roman,serif" font-size="14.00">bb? bb, tá por aí? socorro asuhasuahsashuuhas preciso de ajuda, tô com um plano e preciso de uma isca</text>
</g>
<!-- j2463720372&#45;&gt;j3819827451 -->
<g id="edge4" class="edge">
<title>j2463720372&#45;&gt;j3819827451</title>
<path fill="none" stroke="green" d="M889.09,-1895.8C889.09,-1884.58 889.09,-1869.67 889.09,-1856.69"/>
<polygon fill="green" stroke="green" points="892.59,-1856.98 889.09,-1846.98 885.59,-1856.98 892.59,-1856.98"/>
<text text-anchor="middle" x="900.09" y="-1866.8" font-family="Times New Roman,serif" font-size="14.00">true</text>
</g>
<!-- j2528219975 -->
<g id="node6" class="node">
<title>j2528219975</title>
<polygon fill="none" stroke="blue" points="1032.09,-1772 746.09,-1772 746.09,-1736 1032.09,-1736 1032.09,-1772"/>
<text text-anchor="middle" x="889.09" y="-1750.3" font-family="Times New Roman,serif" font-size="14.00">cara, essa vai ser do caralho asuahushasuhashua</text>
</g>
<!-- j3819827451&#45;&gt;j2528219975 -->
<g id="edge6" class="edge">
<title>j3819827451&#45;&gt;j2528219975</title>
<path fill="none" stroke="black" d="M889.09,-1808.81C889.09,-1801.23 889.09,-1792.1 889.09,-1783.54"/>
<polygon fill="black" stroke="black" points="892.59,-1783.54 889.09,-1773.54 885.59,-1783.54 892.59,-1783.54"/>
</g>
<!-- j470157784 -->
<g id="node7" class="node">
<title>j470157784</title>
<polygon fill="none" stroke="red" points="845.09,-1699 615.09,-1699 615.09,-1663 845.09,-1663 845.09,-1699"/>
<text text-anchor="middle" x="730.09" y="-1677.3" font-family="Times New Roman,serif" font-size="14.00">Opa, tá querendo aprontar? Tô dentro</text>
</g>
<!-- j2528219975&#45;&gt;j470157784 -->
<g id="edge7" class="edge">
<title>j2528219975&#45;&gt;j470157784</title>
<path fill="none" stroke="black" d="M850.19,-1735.63C828.92,-1726.13 802.35,-1714.27 779.61,-1704.11"/>
<polygon fill="black" stroke="black" points="781.07,-1700.93 770.52,-1700.05 778.22,-1707.33 781.07,-1700.93"/>
</g>
<!-- j610975176 -->
<g id="node8" class="node">
<title>j610975176</title>
<polygon fill="none" stroke="red" points="941.09,-1645 837.09,-1645 837.09,-1609 941.09,-1609 941.09,-1645"/>
<text text-anchor="middle" x="889.09" y="-1623.3" font-family="Times New Roman,serif" font-size="14.00">Opa, pode falar</text>
</g>
<!-- j2528219975&#45;&gt;j610975176 -->
<g id="edge8" class="edge">
<title>j2528219975&#45;&gt;j610975176</title>
<path fill="none" stroke="black" d="M889.09,-1735.62C889.09,-1715.19 889.09,-1680.99 889.09,-1656.62"/>
<polygon fill="black" stroke="black" points="892.59,-1656.75 889.09,-1646.75 885.59,-1656.75 892.59,-1656.75"/>
</g>
<!-- j2951083948 -->
<g id="node9" class="node">
<title>j2951083948</title>
<polygon fill="none" stroke="red" points="1247.09,-1699 1011.09,-1699 1011.09,-1663 1247.09,-1663 1247.09,-1699"/>
<text text-anchor="middle" x="1129.09" y="-1677.3" font-family="Times New Roman,serif" font-size="14.00">Sem tempo, irmão [Encerrar Conversa]</text>
</g>
<!-- j2528219975&#45;&gt;j2951083948 -->
<g id="edge9" class="edge">
<title>j2528219975&#45;&gt;j2951083948</title>
<path fill="none" stroke="black" d="M948.11,-1735.54C981.82,-1725.57 1024.27,-1713.01 1059.59,-1702.56"/>
<polygon fill="black" stroke="black" points="1060.25,-1706.01 1068.85,-1699.82 1058.27,-1699.3 1060.25,-1706.01"/>
</g>
<!-- j1067718775 -->
<g id="node10" class="node">
<title>j1067718775</title>
<ellipse fill="none" stroke="orange" cx="725.09" cy="-1573" rx="64.19" ry="18"/>
<text text-anchor="middle" x="725.09" y="-1569.3" font-family="Times New Roman,serif" font-size="14.00">+20 Chemistry</text>
</g>
<!-- j470157784&#45;&gt;j1067718775 -->
<g id="edge10" class="edge">
<title>j470157784&#45;&gt;j1067718775</title>
<path fill="none" stroke="black" d="M729.29,-1662.97C728.52,-1646.76 727.36,-1622.06 726.45,-1602.79"/>
<polygon fill="black" stroke="black" points="729.95,-1602.68 725.98,-1592.85 722.95,-1603.01 729.95,-1602.68"/>
</g>
<!-- j378388791 -->
<g id="node11" class="node">
<title>j378388791</title>
<polygon fill="none" stroke="blue" points="978.59,-1337 447.59,-1337 447.59,-1301 978.59,-1301 978.59,-1337"/>
<text text-anchor="middle" x="713.09" y="-1315.3" font-family="Times New Roman,serif" font-size="14.00">seguinte, eu tava patrulhando com a lê e a eleanor, e a gente roubou um caminhão da scaldra</text>
</g>
<!-- j610975176&#45;&gt;j378388791 -->
<g id="edge11" class="edge">
<title>j610975176&#45;&gt;j378388791</title>
<path fill="none" stroke="black" d="M889.09,-1608.74C889.09,-1587.76 889.09,-1551.28 889.09,-1520 889.09,-1520 889.09,-1520 889.09,-1391 889.09,-1368.69 876.78,-1353.22 858.67,-1342.53"/>
<polygon fill="black" stroke="black" points="860.54,-1339.55 850.05,-1338.05 857.32,-1345.77 860.54,-1339.55"/>
</g>
<!-- j497910781 -->
<g id="node12" class="node">
<title>j497910781</title>
<polygon fill="none" stroke="blue" points="1279.09,-1537 1083.09,-1537 1083.09,-1501 1279.09,-1501 1279.09,-1537"/>
<text text-anchor="middle" x="1181.09" y="-1515.3" font-family="Times New Roman,serif" font-size="14.00">aff… tá, vou chamar a aoi então</text>
</g>
<!-- j2951083948&#45;&gt;j497910781 -->
<g id="edge12" class="edge">
<title>j2951083948&#45;&gt;j497910781</title>
<path fill="none" stroke="black" d="M1134.75,-1662.57C1143.7,-1635.04 1161.19,-1581.22 1171.94,-1548.16"/>
<polygon fill="black" stroke="black" points="1175.2,-1549.44 1174.96,-1538.85 1168.54,-1547.27 1175.2,-1549.44"/>
</g>
<!-- j336022857 -->
<g id="node13" class="node">
<title>j336022857</title>
<polygon fill="none" stroke="blue" points="792.59,-1483 651.59,-1483 651.59,-1447 792.59,-1447 792.59,-1483"/>
<text text-anchor="middle" x="722.09" y="-1461.3" font-family="Times New Roman,serif" font-size="14.00">é por isso q eu te amo</text>
</g>
<!-- j1067718775&#45;&gt;j336022857 -->
<g id="edge13" class="edge">
<title>j1067718775&#45;&gt;j336022857</title>
<path fill="none" stroke="black" d="M724.61,-1554.97C724.15,-1538.76 723.45,-1514.06 722.9,-1494.79"/>
<polygon fill="black" stroke="black" points="726.4,-1494.75 722.62,-1484.85 719.41,-1494.95 726.4,-1494.75"/>
</g>
<!-- j2852072582 -->
<g id="node14" class="node">
<title>j2852072582</title>
<polygon fill="none" stroke="blue" points="798.09,-1264 502.09,-1264 502.09,-1228 798.09,-1228 798.09,-1264"/>
<text text-anchor="middle" x="650.09" y="-1242.3" font-family="Times New Roman,serif" font-size="14.00">e ele tava com tipo 50.000 caixas cheias de isopor</text>
</g>
<!-- j378388791&#45;&gt;j2852072582 -->
<g id="edge14" class="edge">
<title>j378388791&#45;&gt;j2852072582</title>
<path fill="none" stroke="black" d="M697.84,-1300.81C690.33,-1292.35 681.13,-1281.98 672.82,-1272.61"/>
<polygon fill="black" stroke="black" points="675.46,-1270.32 666.2,-1265.16 670.22,-1274.96 675.46,-1270.32"/>
</g>
<!-- j497910781&#45;&gt;Chat ends. -->
<g id="edge15" class="edge">
<title>j497910781&#45;&gt;Chat ends.</title>
<path fill="none" stroke="black" d="M1241.61,-1500.6C1274.32,-1487.09 1308.09,-1464.54 1308.09,-1429 1308.09,-1429 1308.09,-1429 1308.09,-90 1308.09,-40.24 1152.57,-25.34 1063.28,-20.89"/>
<polygon fill="black" stroke="black" points="1063.6,-17.4 1053.45,-20.43 1063.27,-24.39 1063.6,-17.4"/>
</g>
<!-- j2417129465 -->
<g id="node15" class="node">
<title>j2417129465</title>
<ellipse fill="none" stroke="orange" cx="713.09" cy="-1392" rx="147.57" ry="18"/>
<text text-anchor="middle" x="713.09" y="-1388.3" font-family="Times New Roman,serif" font-size="14.00">Boolean QuincyTrickYes is now true.</text>
</g>
<!-- j336022857&#45;&gt;j2417129465 -->
<g id="edge16" class="edge">
<title>j336022857&#45;&gt;j2417129465</title>
<path fill="none" stroke="black" d="M719.91,-1446.81C718.94,-1439.14 717.77,-1429.89 716.67,-1421.24"/>
<polygon fill="black" stroke="black" points="720.17,-1421.01 715.44,-1411.53 713.22,-1421.89 720.17,-1421.01"/>
</g>
<!-- j2500327099 -->
<g id="node16" class="node">
<title>j2500327099</title>
<polygon fill="none" stroke="blue" points="945.09,-1191 291.09,-1191 291.09,-1155 945.09,-1155 945.09,-1191"/>
<text text-anchor="middle" x="618.09" y="-1169.3" font-family="Times New Roman,serif" font-size="14.00">sabe aqueles isopor q usam pra embalar as coisa? aqueles q sempre sai pulando quando vc abre uma encomenda?</text>
</g>
<!-- j2852072582&#45;&gt;j2500327099 -->
<g id="edge17" class="edge">
<title>j2852072582&#45;&gt;j2500327099</title>
<path fill="none" stroke="black" d="M642.34,-1227.81C638.77,-1219.88 634.43,-1210.26 630.42,-1201.36"/>
<polygon fill="black" stroke="black" points="633.69,-1200.09 626.39,-1192.41 627.3,-1202.96 633.69,-1200.09"/>
</g>
<!-- j2417129465&#45;&gt;j378388791 -->
<g id="edge18" class="edge">
<title>j2417129465&#45;&gt;j378388791</title>
<path fill="none" stroke="black" d="M713.09,-1373.81C713.09,-1366.23 713.09,-1357.1 713.09,-1348.54"/>
<polygon fill="black" stroke="black" points="716.59,-1348.54 713.09,-1338.54 709.59,-1348.54 716.59,-1348.54"/>
</g>
<!-- j690171695 -->
<g id="node17" class="node">
<title>j690171695</title>
<polygon fill="none" stroke="blue" points="810.09,-1118 422.09,-1118 422.09,-1082 810.09,-1082 810.09,-1118"/>
<text text-anchor="middle" x="616.09" y="-1096.3" font-family="Times New Roman,serif" font-size="14.00">n faço a menor ideia do pq a scaldra precisa de tanto isopor assim</text>
</g>
<!-- j2500327099&#45;&gt;j690171695 -->
<g id="edge19" class="edge">
<title>j2500327099&#45;&gt;j690171695</title>
<path fill="none" stroke="black" d="M617.6,-1154.81C617.39,-1147.14 617.13,-1137.89 616.88,-1129.24"/>
<polygon fill="black" stroke="black" points="620.39,-1129.44 616.61,-1119.54 613.39,-1129.64 620.39,-1129.44"/>
</g>
<!-- j4070958584 -->
<g id="node18" class="node">
<title>j4070958584</title>
<polygon fill="none" stroke="blue" points="896.59,-1045 311.59,-1045 311.59,-1009 896.59,-1009 896.59,-1045"/>
<text text-anchor="middle" x="604.09" y="-1023.3" font-family="Times New Roman,serif" font-size="14.00">quando a gente vi, a gente só ia jogar tudo fora. mas então… uma luzinha acendeu na minha cabeça…</text>
</g>
<!-- j690171695&#45;&gt;j4070958584 -->
<g id="edge20" class="edge">
<title>j690171695&#45;&gt;j4070958584</title>
<path fill="none" stroke="black" d="M613.18,-1081.81C611.89,-1074.14 610.32,-1064.89 608.86,-1056.24"/>
<polygon fill="black" stroke="black" points="612.34,-1055.8 607.22,-1046.52 605.43,-1056.96 612.34,-1055.8"/>
</g>
<!-- j2206854941 -->
<g id="node19" class="node">
<title>j2206854941</title>
<polygon fill="none" stroke="blue" points="806.09,-958 402.09,-958 402.09,-922 806.09,-922 806.09,-958"/>
<text text-anchor="middle" x="604.09" y="-936.3" font-family="Times New Roman,serif" font-size="14.00">pois entãoooooooo… eu tenho uma grande ideia do q fazer com eles</text>
</g>
<!-- j4070958584&#45;&gt;j2206854941 -->
<g id="edge21" class="edge">
<title>j4070958584&#45;&gt;j2206854941</title>
<path fill="none" stroke="black" d="M604.09,-1008.8C604.09,-997.58 604.09,-982.67 604.09,-969.69"/>
<polygon fill="black" stroke="black" points="607.59,-969.98 604.09,-959.98 600.59,-969.98 607.59,-969.98"/>
</g>
<!-- j2627564940 -->
<g id="node20" class="node">
<title>j2627564940</title>
<polygon fill="none" stroke="blue" points="834.09,-885 346.09,-885 346.09,-849 834.09,-849 834.09,-885"/>
<text text-anchor="middle" x="590.09" y="-863.3" font-family="Times New Roman,serif" font-size="14.00">então, plano pra amanhã: preciso q vc distraia o amir falando com ele por texto, blz?</text>
</g>
<!-- j2206854941&#45;&gt;j2627564940 -->
<g id="edge22" class="edge">
<title>j2206854941&#45;&gt;j2627564940</title>
<path fill="none" stroke="black" d="M600.7,-921.81C599.19,-914.14 597.36,-904.89 595.66,-896.24"/>
<polygon fill="black" stroke="black" points="599.11,-895.65 593.74,-886.51 592.24,-897 599.11,-895.65"/>
</g>
<!-- j2207777941 -->
<g id="node21" class="node">
<title>j2207777941</title>
<polygon fill="none" stroke="blue" points="983.59,-812 164.59,-812 164.59,-776 983.59,-776 983.59,-812"/>
<text text-anchor="middle" x="574.09" y="-790.3" font-family="Times New Roman,serif" font-size="14.00">n faço ideia de como vc vai fazer isso, só chama a atenção dele. enquanto isso, eu vô encher o quarto dele de isopor ashuashuahsauhsauhausha</text>
</g>
<!-- j2627564940&#45;&gt;j2207777941 -->
<g id="edge23" class="edge">
<title>j2627564940&#45;&gt;j2207777941</title>
<path fill="none" stroke="black" d="M586.22,-848.81C584.49,-841.14 582.4,-831.89 580.45,-823.24"/>
<polygon fill="black" stroke="black" points="583.87,-822.49 578.26,-813.51 577.04,-824.03 583.87,-822.49"/>
</g>
<!-- j1473036272 -->
<g id="node22" class="node">
<title>j1473036272</title>
<ellipse fill="none" stroke="orange" cx="574.09" cy="-721" rx="128.08" ry="18"/>
<text text-anchor="middle" x="574.09" y="-717.3" font-family="Times New Roman,serif" font-size="14.00">Check boolean QuincyTrickYes</text>
</g>
<!-- j2207777941&#45;&gt;j1473036272 -->
<g id="edge24" class="edge">
<title>j2207777941&#45;&gt;j1473036272</title>
<path fill="none" stroke="black" d="M574.09,-775.81C574.09,-768.23 574.09,-759.1 574.09,-750.54"/>
<polygon fill="black" stroke="black" points="577.59,-750.54 574.09,-740.54 570.59,-750.54 577.59,-750.54"/>
</g>
<!-- j3427157219 -->
<g id="node23" class="node">
<title>j3427157219</title>
<polygon fill="none" stroke="blue" points="373.09,-598 125.09,-598 125.09,-562 373.09,-562 373.09,-598"/>
<text text-anchor="middle" x="249.09" y="-576.3" font-family="Times New Roman,serif" font-size="14.00">cara, isso vai ser pica asuahushasuhashua</text>
</g>
<!-- j1473036272&#45;&gt;j3427157219 -->
<g id="edge25" class="edge">
<title>j1473036272&#45;&gt;j3427157219</title>
<path fill="none" stroke="green" d="M535.21,-703.37C476.56,-678.29 365.39,-630.74 300.24,-602.88"/>
<polygon fill="green" stroke="green" points="301.76,-599.72 291.19,-599.01 299.01,-606.16 301.76,-599.72"/>
<text text-anchor="middle" x="503.09" y="-673.8" font-family="Times New Roman,serif" font-size="14.00">true</text>
</g>
<!-- j277129730 -->
<g id="node24" class="node">
<title>j277129730</title>
<polygon fill="none" stroke="blue" points="614.09,-652 534.09,-652 534.09,-616 614.09,-616 614.09,-652"/>
<text text-anchor="middle" x="574.09" y="-630.3" font-family="Times New Roman,serif" font-size="14.00">e aí, topa?!</text>
</g>
<!-- j1473036272&#45;&gt;j277129730 -->
<g id="edge26" class="edge">
<title>j1473036272&#45;&gt;j277129730</title>
<path fill="none" stroke="brown" d="M574.09,-702.8C574.09,-691.58 574.09,-676.67 574.09,-663.69"/>
<polygon fill="brown" stroke="brown" points="577.59,-663.98 574.09,-653.98 570.59,-663.98 577.59,-663.98"/>
<text text-anchor="middle" x="587.09" y="-673.8" font-family="Times New Roman,serif" font-size="14.00">false</text>
</g>
<!-- Initiate conversation AmirQuincyTrick1 in JabirDialogue_rom.dialogue -->
<g id="node25" class="node">
<title>Initiate conversation AmirQuincyTrick1 in JabirDialogue_rom.dialogue</title>
<ellipse fill="none" stroke="orange" cx="406.09" cy="-91" rx="266.45" ry="18"/>
<text text-anchor="middle" x="406.09" y="-87.3" font-family="Times New Roman,serif" font-size="14.00">Initiate conversation AmirQuincyTrick1 in JabirDialogue_rom.dialogue</text>
</g>
<!-- j3427157219&#45;&gt;Initiate conversation AmirQuincyTrick1 in JabirDialogue_rom.dialogue -->
<g id="edge27" class="edge">
<title>j3427157219&#45;&gt;Initiate conversation AmirQuincyTrick1 in JabirDialogue_rom.dialogue</title>
<path fill="none" stroke="black" d="M215.46,-561.61C186.08,-543.73 148.09,-512.91 148.09,-473 148.09,-473 148.09,-473 148.09,-163 148.09,-136.43 199.59,-119.43 256.57,-108.75"/>
<polygon fill="black" stroke="black" points="256.93,-112.24 266.16,-107.03 255.7,-105.35 256.93,-112.24"/>
</g>
<!-- j4257154653 -->
<g id="node26" class="node">
<title>j4257154653</title>
<polygon fill="none" stroke="red" points="378.59,-490 241.59,-490 241.59,-454 378.59,-454 378.59,-490"/>
<text text-anchor="middle" x="310.09" y="-468.3" font-family="Times New Roman,serif" font-size="14.00">Pra caralho kkkkkkkk</text>
</g>
<!-- j277129730&#45;&gt;j4257154653 -->
<g id="edge28" class="edge">
<title>j277129730&#45;&gt;j4257154653</title>
<path fill="none" stroke="black" d="M537.75,-615.51C503.35,-598.52 450.63,-571.34 407.09,-544 384.11,-529.57 359.45,-511.48 340.74,-497.17"/>
<polygon fill="black" stroke="black" points="343.06,-494.54 333.01,-491.2 338.79,-500.08 343.06,-494.54"/>
</g>
<!-- j2343767830 -->
<g id="node27" class="node">
<title>j2343767830</title>
<polygon fill="none" stroke="red" points="705.59,-544 416.59,-544 416.59,-508 705.59,-508 705.59,-544"/>
<text text-anchor="middle" x="561.09" y="-522.3" font-family="Times New Roman,serif" font-size="14.00">Nossa… mas isso não vai fazer uma bagunça lá?</text>
</g>
<!-- j277129730&#45;&gt;j2343767830 -->
<g id="edge29" class="edge">
<title>j277129730&#45;&gt;j2343767830</title>
<path fill="none" stroke="black" d="M572,-615.97C570,-599.69 566.95,-574.82 564.59,-555.52"/>
<polygon fill="black" stroke="black" points="568.09,-555.34 563.4,-545.84 561.14,-556.19 568.09,-555.34"/>
</g>
<!-- j2247840286 -->
<g id="node28" class="node">
<title>j2247840286</title>
<polygon fill="none" stroke="red" points="1125.59,-544 730.59,-544 730.59,-508 1125.59,-508 1125.59,-544"/>
<text text-anchor="middle" x="928.09" y="-522.3" font-family="Times New Roman,serif" font-size="14.00">Mas… e se os ratos da Lê jantarem o isopor? Não faz mal pra eles?</text>
</g>
<!-- j277129730&#45;&gt;j2247840286 -->
<g id="edge30" class="edge">
<title>j277129730&#45;&gt;j2247840286</title>
<path fill="none" stroke="black" d="M614.35,-620.94C673.82,-603.14 785.94,-569.57 858.79,-547.75"/>
<polygon fill="black" stroke="black" points="859.66,-551.14 868.23,-544.92 857.65,-544.44 859.66,-551.14"/>
</g>
<!-- j2796291590 -->
<g id="node29" class="node">
<title>j2796291590</title>
<polygon fill="none" stroke="red" points="1262.59,-382 981.59,-382 981.59,-346 1262.59,-346 1262.59,-382"/>
<text text-anchor="middle" x="1122.09" y="-360.3" font-family="Times New Roman,serif" font-size="14.00">Ah, não… não vai rolar, aí já é maldade demais</text>
</g>
<!-- j277129730&#45;&gt;j2796291590 -->
<g id="edge31" class="edge">
<title>j277129730&#45;&gt;j2796291590</title>
<path fill="none" stroke="black" d="M614.51,-629.67C727.16,-619.9 1042.45,-589.15 1135.09,-544 1208.96,-507.99 1301.02,-465.28 1251.09,-400 1247.07,-394.74 1238.44,-390.09 1227.44,-386.04"/>
<polygon fill="black" stroke="black" points="1228.78,-382.79 1218.19,-382.96 1226.57,-389.43 1228.78,-382.79"/>
</g>
<!-- Initiate conversation AmirQuincyTrick1 in JabirDialogue_rom.dialogue&#45;&gt;Chat ends. -->
<g id="edge32" class="edge">
<title>Initiate conversation AmirQuincyTrick1 in JabirDialogue_rom.dialogue&#45;&gt;Chat ends.</title>
<path fill="none" stroke="black" d="M533.95,-74.77C660.69,-59.67 849.18,-37.22 943.66,-25.96"/>
<polygon fill="black" stroke="black" points="943.96,-29.45 953.47,-24.79 943.13,-22.5 943.96,-29.45"/>
</g>
<!-- j1995106284 -->
<g id="node30" class="node">
<title>j1995106284</title>
<ellipse fill="none" stroke="orange" cx="406.09" cy="-237" rx="64.19" ry="18"/>
<text text-anchor="middle" x="406.09" y="-233.3" font-family="Times New Roman,serif" font-size="14.00">+20 Chemistry</text>
</g>
<!-- j4257154653&#45;&gt;j1995106284 -->
<g id="edge33" class="edge">
<title>j4257154653&#45;&gt;j1995106284</title>
<path fill="none" stroke="black" d="M241.1,-461.4C227.02,-456.16 213.85,-448.16 205.09,-436 195.73,-423.02 198.18,-414.43 205.09,-400 237.7,-331.82 314.56,-283.17 363.23,-257.91"/>
<polygon fill="black" stroke="black" points="364.77,-261.05 372.11,-253.41 361.6,-254.81 364.77,-261.05"/>
</g>
<!-- j994210764 -->
<g id="node31" class="node">
<title>j994210764</title>
<polygon fill="none" stroke="blue" points="609.59,-436 214.59,-436 214.59,-400 609.59,-400 609.59,-436"/>
<text text-anchor="middle" x="412.09" y="-414.3" font-family="Times New Roman,serif" font-size="14.00">exatamente asuhaushaushasa mas rlx, eu vou ajudar ele a limpar dps</text>
</g>
<!-- j2343767830&#45;&gt;j994210764 -->
<g id="edge34" class="edge">
<title>j2343767830&#45;&gt;j994210764</title>
<path fill="none" stroke="black" d="M536.82,-507.73C512.11,-490.15 473.59,-462.76 445.9,-443.05"/>
<polygon fill="black" stroke="black" points="448.01,-440.26 437.83,-437.31 443.95,-445.96 448.01,-440.26"/>
</g>
<!-- j826282324 -->
<g id="node32" class="node">
<title>j826282324</title>
<polygon fill="none" stroke="blue" points="1242.09,-436 628.09,-436 628.09,-400 1242.09,-400 1242.09,-436"/>
<text text-anchor="middle" x="935.09" y="-414.3" font-family="Times New Roman,serif" font-size="14.00">é de boa, esse isopor é biodegradável, eu falei com ela antes. ela disse q isso é tipo comida normal pra eles</text>
</g>
<!-- j2247840286&#45;&gt;j826282324 -->
<g id="edge35" class="edge">
<title>j2247840286&#45;&gt;j826282324</title>
<path fill="none" stroke="black" d="M929.21,-507.97C930.28,-491.76 931.92,-467.06 933.19,-447.79"/>
<polygon fill="black" stroke="black" points="936.68,-448.06 933.84,-437.85 929.69,-447.6 936.68,-448.06"/>
</g>
<!-- j2066889417 -->
<g id="node33" class="node">
<title>j2066889417</title>
<polygon fill="none" stroke="blue" points="1256.59,-255 747.59,-255 747.59,-219 1256.59,-219 1256.59,-255"/>
<text text-anchor="middle" x="1002.09" y="-233.3" font-family="Times New Roman,serif" font-size="14.00">aff, rlx chefe, é só uma brincadeira. mas blz, vc q manda. vô chamar a aoi pra me ajudar</text>
</g>
<!-- j2796291590&#45;&gt;j2066889417 -->
<g id="edge36" class="edge">
<title>j2796291590&#45;&gt;j2066889417</title>
<path fill="none" stroke="black" d="M1105.4,-345.62C1084.89,-324.26 1049.93,-287.83 1026.43,-263.35"/>
<polygon fill="black" stroke="black" points="1029.13,-261.11 1019.68,-256.32 1024.08,-265.96 1029.13,-261.11"/>
</g>
<!-- j2252399160 -->
<g id="node34" class="node">
<title>j2252399160</title>
<polygon fill="none" stroke="blue" points="448.59,-182 363.59,-182 363.59,-146 448.59,-146 448.59,-182"/>
<text text-anchor="middle" x="406.09" y="-160.3" font-family="Times New Roman,serif" font-size="14.00">aí sim, hein!</text>
</g>
<!-- j1995106284&#45;&gt;j2252399160 -->
<g id="edge37" class="edge">
<title>j1995106284&#45;&gt;j2252399160</title>
<path fill="none" stroke="black" d="M406.09,-218.81C406.09,-211.23 406.09,-202.1 406.09,-193.54"/>
<polygon fill="black" stroke="black" points="409.59,-193.54 406.09,-183.54 402.59,-193.54 409.59,-193.54"/>
</g>
<!-- j3319137431 -->
<g id="node35" class="node">
<title>j3319137431</title>
<polygon fill="none" stroke="red" points="467.59,-328 356.59,-328 356.59,-292 467.59,-292 467.59,-328"/>
<text text-anchor="middle" x="412.09" y="-306.3" font-family="Times New Roman,serif" font-size="14.00">Beleza, tô dentro</text>
</g>
<!-- j994210764&#45;&gt;j3319137431 -->
<g id="edge38" class="edge">
<title>j994210764&#45;&gt;j3319137431</title>
<path fill="none" stroke="black" d="M412.09,-399.97C412.09,-383.76 412.09,-359.06 412.09,-339.79"/>
<polygon fill="black" stroke="black" points="415.59,-339.85 412.09,-329.85 408.59,-339.85 415.59,-339.85"/>
</g>
<!-- j2476122597 -->
<g id="node36" class="node">
<title>j2476122597</title>
<polygon fill="none" stroke="red" points="1000.59,-328 869.59,-328 869.59,-292 1000.59,-292 1000.59,-328"/>
<text text-anchor="middle" x="935.09" y="-306.3" font-family="Times New Roman,serif" font-size="14.00">É… não, vou passar</text>
</g>
<!-- j994210764&#45;&gt;j2476122597 -->
<g id="edge39" class="edge">
<title>j994210764&#45;&gt;j2476122597</title>
<path fill="none" stroke="black" d="M498.16,-399.56C598.29,-379.26 762.11,-346.06 858.16,-326.59"/>
<polygon fill="black" stroke="black" points="858.65,-330.06 867.76,-324.65 857.26,-323.2 858.65,-330.06"/>
</g>
<!-- j826282324&#45;&gt;j3319137431 -->
<g id="edge40" class="edge">
<title>j826282324&#45;&gt;j3319137431</title>
<path fill="none" stroke="black" d="M849.02,-399.56C745.37,-378.55 573.47,-343.71 479.14,-324.59"/>
<polygon fill="black" stroke="black" points="480.01,-321.2 469.52,-322.64 478.62,-328.06 480.01,-321.2"/>
</g>
<!-- j826282324&#45;&gt;j2476122597 -->
<g id="edge41" class="edge">
<title>j826282324&#45;&gt;j2476122597</title>
<path fill="none" stroke="black" d="M935.09,-399.97C935.09,-383.76 935.09,-359.06 935.09,-339.79"/>
<polygon fill="black" stroke="black" points="938.59,-339.85 935.09,-329.85 931.59,-339.85 938.59,-339.85"/>
</g>
<!-- j2066889417&#45;&gt;Chat ends. -->
<g id="edge42" class="edge">
<title>j2066889417&#45;&gt;Chat ends.</title>
<path fill="none" stroke="black" d="M1002.09,-218.61C1002.09,-181.39 1002.09,-93.69 1002.09,-47.93"/>
<polygon fill="black" stroke="black" points="1005.59,-47.99 1002.09,-37.99 998.59,-47.99 1005.59,-47.99"/>
</g>
<!-- j2252399160&#45;&gt;Initiate conversation AmirQuincyTrick1 in JabirDialogue_rom.dialogue -->
<g id="edge43" class="edge">
<title>j2252399160&#45;&gt;Initiate conversation AmirQuincyTrick1 in JabirDialogue_rom.dialogue</title>
<path fill="none" stroke="black" d="M406.09,-145.81C406.09,-138.23 406.09,-129.1 406.09,-120.54"/>
<polygon fill="black" stroke="black" points="409.59,-120.54 406.09,-110.54 402.59,-120.54 409.59,-120.54"/>
</g>
<!-- j3319137431&#45;&gt;j1995106284 -->
<g id="edge44" class="edge">
<title>j3319137431&#45;&gt;j1995106284</title>
<path fill="none" stroke="black" d="M410.64,-291.81C409.99,-284.14 409.21,-274.89 408.48,-266.24"/>
<polygon fill="black" stroke="black" points="411.99,-266.21 407.66,-256.54 405.01,-266.8 411.99,-266.21"/>
</g>
<!-- j2476122597&#45;&gt;j2066889417 -->
<g id="edge45" class="edge">
<title>j2476122597&#45;&gt;j2066889417</title>
<path fill="none" stroke="black" d="M951.31,-291.81C959.37,-283.27 969.28,-272.77 978.19,-263.32"/>
<polygon fill="black" stroke="black" points="980.66,-265.8 984.98,-256.13 975.57,-261 980.66,-265.8"/>
</g>
</g>
</svg>
