<?xml version="1.0" encoding="UTF-8" standalone="no"?>
<!DOCTYPE svg PUBLIC "-//W3C//DTD SVG 1.1//EN"
 "http://www.w3.org/Graphics/SVG/1.1/DTD/svg11.dtd">
<!-- Generated by graphviz version 7.1.0 (20230121.1956)
 -->
<!-- Pages: 1 -->
<svg width="1357pt" height="3163pt"
 viewBox="0.00 0.00 1356.59 3163.00" xmlns="http://www.w3.org/2000/svg" xmlns:xlink="http://www.w3.org/1999/xlink">
<g id="graph0" class="graph" transform="scale(1 1) rotate(0) translate(4 3159)">
<polygon fill="white" stroke="none" points="-4,4 -4,-3159 1352.59,-3159 1352.59,4 -4,4"/>
<!-- QuincyRank6Convo1 begins. -->
<g id="node1" class="node">
<title>QuincyRank6Convo1 begins.</title>
<ellipse fill="none" stroke="orange" cx="126.09" cy="-3137" rx="118.08" ry="18"/>
<text text-anchor="middle" x="126.09" y="-3133.3" font-family="Times New Roman,serif" font-size="14.00">QuincyRank6Convo1 begins.</text>
</g>
<!-- j431139663 -->
<g id="node2" class="node">
<title>j431139663</title>
<ellipse fill="none" stroke="orange" cx="126.09" cy="-3064" rx="126.18" ry="18"/>
<text text-anchor="middle" x="126.09" y="-3060.3" font-family="Times New Roman,serif" font-size="14.00">Check boolean QuincyForgiven</text>
</g>
<!-- QuincyRank6Convo1 begins.&#45;&gt;j431139663 -->
<g id="edge1" class="edge">
<title>QuincyRank6Convo1 begins.&#45;&gt;j431139663</title>
<path fill="none" stroke="black" d="M126.09,-3118.81C126.09,-3111.23 126.09,-3102.1 126.09,-3093.54"/>
<polygon fill="black" stroke="black" points="129.59,-3093.54 126.09,-3083.54 122.59,-3093.54 129.59,-3093.54"/>
</g>
<!-- j3559869546 -->
<g id="node3" class="node">
<title>j3559869546</title>
<ellipse fill="none" stroke="orange" cx="623.09" cy="-2977" rx="117.78" ry="18"/>
<text text-anchor="middle" x="623.09" y="-2973.3" font-family="Times New Roman,serif" font-size="14.00">Check boolean QuincyDating</text>
</g>
<!-- j431139663&#45;&gt;j3559869546 -->
<g id="edge2" class="edge">
<title>j431139663&#45;&gt;j3559869546</title>
<path fill="none" stroke="green" d="M204.84,-3049.53C294.92,-3034.12 442.02,-3008.97 535.61,-2992.96"/>
<polygon fill="green" stroke="green" points="535.99,-2996.45 545.25,-2991.31 534.81,-2989.55 535.99,-2996.45"/>
<text text-anchor="middle" x="416.09" y="-3016.8" font-family="Times New Roman,serif" font-size="14.00">true</text>
</g>
<!-- Chat ends. -->
<g id="node4" class="node">
<title>Chat ends.</title>
<ellipse fill="none" stroke="orange" cx="598.09" cy="-18" rx="50.09" ry="18"/>
<text text-anchor="middle" x="598.09" y="-14.3" font-family="Times New Roman,serif" font-size="14.00">Chat ends.</text>
</g>
<!-- j431139663&#45;&gt;Chat ends. -->
<g id="edge3" class="edge">
<title>j431139663&#45;&gt;Chat ends.</title>
<path fill="none" stroke="brown" d="M120.85,-3045.6C116.18,-3028.54 110.09,-3001.73 110.09,-2978 110.09,-2978 110.09,-2978 110.09,-90 110.09,-47.3 406.39,-28.04 537.23,-21.61"/>
<polygon fill="brown" stroke="brown" points="537.28,-25.11 547.1,-21.14 536.94,-18.12 537.28,-25.11"/>
<text text-anchor="middle" x="123.09" y="-1537.3" font-family="Times New Roman,serif" font-size="14.00">false</text>
</g>
<!-- j3584276159 -->
<g id="node5" class="node">
<title>j3584276159</title>
<polygon fill="none" stroke="blue" points="753.09,-2908 493.09,-2908 493.09,-2872 753.09,-2872 753.09,-2908"/>
<text text-anchor="middle" x="623.09" y="-2886.3" font-family="Times New Roman,serif" font-size="14.00">fala bb, tá por aí? tenho uma coisa pra falar</text>
</g>
<!-- j3559869546&#45;&gt;j3584276159 -->
<g id="edge4" class="edge">
<title>j3559869546&#45;&gt;j3584276159</title>
<path fill="none" stroke="green" d="M623.09,-2958.8C623.09,-2947.58 623.09,-2932.67 623.09,-2919.69"/>
<polygon fill="green" stroke="green" points="626.59,-2919.98 623.09,-2909.98 619.59,-2919.98 626.59,-2919.98"/>
<text text-anchor="middle" x="634.09" y="-2929.8" font-family="Times New Roman,serif" font-size="14.00">true</text>
</g>
<!-- j2075244918 -->
<g id="node6" class="node">
<title>j2075244918</title>
<polygon fill="none" stroke="blue" points="1046.59,-2908 771.59,-2908 771.59,-2872 1046.59,-2872 1046.59,-2908"/>
<text text-anchor="middle" x="909.09" y="-2886.3" font-family="Times New Roman,serif" font-size="14.00">fala chefe, tá por aí? tenho uma coisa pra falar</text>
</g>
<!-- j3559869546&#45;&gt;j2075244918 -->
<g id="edge5" class="edge">
<title>j3559869546&#45;&gt;j2075244918</title>
<path fill="none" stroke="brown" d="M675.21,-2960.51C721.29,-2946.81 788.87,-2926.73 839.55,-2911.67"/>
<polygon fill="brown" stroke="brown" points="840.38,-2915.07 848.97,-2908.87 838.39,-2908.36 840.38,-2915.07"/>
<text text-anchor="middle" x="796.09" y="-2929.8" font-family="Times New Roman,serif" font-size="14.00">false</text>
</g>
<!-- j450750555 -->
<g id="node7" class="node">
<title>j450750555</title>
<polygon fill="none" stroke="red" points="737.09,-2835 621.09,-2835 621.09,-2799 737.09,-2799 737.09,-2835"/>
<text text-anchor="middle" x="679.09" y="-2813.3" font-family="Times New Roman,serif" font-size="14.00">Opa, pode falar :)</text>
</g>
<!-- j3584276159&#45;&gt;j450750555 -->
<g id="edge6" class="edge">
<title>j3584276159&#45;&gt;j450750555</title>
<path fill="none" stroke="black" d="M636.64,-2871.81C643.25,-2863.44 651.33,-2853.2 658.66,-2843.9"/>
<polygon fill="black" stroke="black" points="661.28,-2846.24 664.72,-2836.22 655.78,-2841.9 661.28,-2846.24"/>
</g>
<!-- j2744376401 -->
<g id="node8" class="node">
<title>j2744376401</title>
<polygon fill="none" stroke="red" points="1061.09,-2835 757.09,-2835 757.09,-2799 1061.09,-2799 1061.09,-2835"/>
<text text-anchor="middle" x="909.09" y="-2813.3" font-family="Times New Roman,serif" font-size="14.00">Não dá pra falar agora, foi mal [Encerrar Conversa]</text>
</g>
<!-- j3584276159&#45;&gt;j2744376401 -->
<g id="edge7" class="edge">
<title>j3584276159&#45;&gt;j2744376401</title>
<path fill="none" stroke="black" d="M693.42,-2871.54C734.11,-2861.44 785.49,-2848.68 827.89,-2838.16"/>
<polygon fill="black" stroke="black" points="828.7,-2841.56 837.56,-2835.76 827.01,-2834.77 828.7,-2841.56"/>
</g>
<!-- j2075244918&#45;&gt;j450750555 -->
<g id="edge8" class="edge">
<title>j2075244918&#45;&gt;j450750555</title>
<path fill="none" stroke="black" d="M852.53,-2871.54C820.36,-2861.61 779.89,-2849.12 746.13,-2838.7"/>
<polygon fill="black" stroke="black" points="747.46,-2835.44 736.88,-2835.84 745.4,-2842.13 747.46,-2835.44"/>
</g>
<!-- j2075244918&#45;&gt;j2744376401 -->
<g id="edge9" class="edge">
<title>j2075244918&#45;&gt;j2744376401</title>
<path fill="none" stroke="black" d="M909.09,-2871.81C909.09,-2864.23 909.09,-2855.1 909.09,-2846.54"/>
<polygon fill="black" stroke="black" points="912.59,-2846.54 909.09,-2836.54 905.59,-2846.54 912.59,-2846.54"/>
</g>
<!-- j1408304281 -->
<g id="node9" class="node">
<title>j1408304281</title>
<polygon fill="none" stroke="blue" points="1002.59,-2762 355.59,-2762 355.59,-2726 1002.59,-2726 1002.59,-2762"/>
<text text-anchor="middle" x="679.09" y="-2740.3" font-family="Times New Roman,serif" font-size="14.00">então… eu tava aqui refletindo sobre… tudo, na real. sobre vc, eu, a equipe… tudo q mudou desde q vc chegou</text>
</g>
<!-- j450750555&#45;&gt;j1408304281 -->
<g id="edge10" class="edge">
<title>j450750555&#45;&gt;j1408304281</title>
<path fill="none" stroke="black" d="M679.09,-2798.81C679.09,-2791.23 679.09,-2782.1 679.09,-2773.54"/>
<polygon fill="black" stroke="black" points="682.59,-2773.54 679.09,-2763.54 675.59,-2773.54 682.59,-2773.54"/>
</g>
<!-- j2491586518 -->
<g id="node10" class="node">
<title>j2491586518</title>
<polygon fill="none" stroke="blue" points="1348.59,-2708 1023.59,-2708 1023.59,-2672 1348.59,-2672 1348.59,-2708"/>
<text text-anchor="middle" x="1186.09" y="-2686.3" font-family="Times New Roman,serif" font-size="14.00">é… tá, deixa pra lá então… nem era importante msm…</text>
</g>
<!-- j2744376401&#45;&gt;j2491586518 -->
<g id="edge11" class="edge">
<title>j2744376401&#45;&gt;j2491586518</title>
<path fill="none" stroke="black" d="M947.6,-2798.62C997.08,-2776.29 1083,-2737.52 1137.08,-2713.11"/>
<polygon fill="black" stroke="black" points="1138.4,-2716.36 1146.08,-2709.06 1135.52,-2709.98 1138.4,-2716.36"/>
</g>
<!-- j1708876327 -->
<g id="node11" class="node">
<title>j1708876327</title>
<polygon fill="none" stroke="blue" points="998.09,-2654 360.09,-2654 360.09,-2618 998.09,-2618 998.09,-2654"/>
<text text-anchor="middle" x="679.09" y="-2632.3" font-family="Times New Roman,serif" font-size="14.00">pensando em como eu tava puto com todo mundo q ferrou com a minha vida e etc… especialmente o arthur…</text>
</g>
<!-- j1408304281&#45;&gt;j1708876327 -->
<g id="edge12" class="edge">
<title>j1408304281&#45;&gt;j1708876327</title>
<path fill="none" stroke="black" d="M679.09,-2725.97C679.09,-2709.76 679.09,-2685.06 679.09,-2665.79"/>
<polygon fill="black" stroke="black" points="682.59,-2665.85 679.09,-2655.85 675.59,-2665.85 682.59,-2665.85"/>
</g>
<!-- j2491586518&#45;&gt;Chat ends. -->
<g id="edge13" class="edge">
<title>j2491586518&#45;&gt;Chat ends.</title>
<path fill="none" stroke="black" d="M1207.77,-2671.68C1225.65,-2655.32 1248.09,-2629 1248.09,-2600 1248.09,-2600 1248.09,-2600 1248.09,-90 1248.09,-31.18 821.97,-21.06 659.77,-19.34"/>
<polygon fill="black" stroke="black" points="660.1,-15.85 650.07,-19.25 660.03,-22.85 660.1,-15.85"/>
</g>
<!-- j3929855454 -->
<g id="node12" class="node">
<title>j3929855454</title>
<polygon fill="none" stroke="blue" points="953.59,-2581 404.59,-2581 404.59,-2545 953.59,-2545 953.59,-2581"/>
<text text-anchor="middle" x="679.09" y="-2559.3" font-family="Times New Roman,serif" font-size="14.00">eu achava q n tinha mais como seguir em frente… achei q n tinha mais nada pra mim nessa vida</text>
</g>
<!-- j1708876327&#45;&gt;j3929855454 -->
<g id="edge14" class="edge">
<title>j1708876327&#45;&gt;j3929855454</title>
<path fill="none" stroke="black" d="M679.09,-2617.81C679.09,-2610.23 679.09,-2601.1 679.09,-2592.54"/>
<polygon fill="black" stroke="black" points="682.59,-2592.54 679.09,-2582.54 675.59,-2592.54 682.59,-2592.54"/>
</g>
<!-- j2342814930 -->
<g id="node13" class="node">
<title>j2342814930</title>
<polygon fill="none" stroke="blue" points="1111.59,-2508 246.59,-2508 246.59,-2472 1111.59,-2472 1111.59,-2508"/>
<text text-anchor="middle" x="679.09" y="-2486.3" font-family="Times New Roman,serif" font-size="14.00">e eu nunca parei pra pensar q tipo… o cabeção aqui pode acordar e fazer uma nova vida. às vezes, oq a gente mais quer tá bem debaixo do nosso nariz</text>
</g>
<!-- j3929855454&#45;&gt;j2342814930 -->
<g id="edge15" class="edge">
<title>j3929855454&#45;&gt;j2342814930</title>
<path fill="none" stroke="black" d="M679.09,-2544.81C679.09,-2537.23 679.09,-2528.1 679.09,-2519.54"/>
<polygon fill="black" stroke="black" points="682.59,-2519.54 679.09,-2509.54 675.59,-2519.54 682.59,-2519.54"/>
</g>
<!-- j708323263 -->
<g id="node14" class="node">
<title>j708323263</title>
<polygon fill="none" stroke="blue" points="1150.59,-2435 207.59,-2435 207.59,-2399 1150.59,-2399 1150.59,-2435"/>
<text text-anchor="middle" x="679.09" y="-2413.3" font-family="Times New Roman,serif" font-size="14.00">agora, eu olho em volta agora e vejo… uma comunidade. tá, tudo bem, o tecnovírus ainda tá querendo comer a gente, e o Vitor continua sendo um pé no saco, eu sei</text>
</g>
<!-- j2342814930&#45;&gt;j708323263 -->
<g id="edge16" class="edge">
<title>j2342814930&#45;&gt;j708323263</title>
<path fill="none" stroke="black" d="M679.09,-2471.81C679.09,-2464.23 679.09,-2455.1 679.09,-2446.54"/>
<polygon fill="black" stroke="black" points="682.59,-2446.54 679.09,-2436.54 675.59,-2446.54 682.59,-2446.54"/>
</g>
<!-- j1971728771 -->
<g id="node15" class="node">
<title>j1971728771</title>
<polygon fill="none" stroke="blue" points="965.09,-2362 393.09,-2362 393.09,-2326 965.09,-2326 965.09,-2362"/>
<text text-anchor="middle" x="679.09" y="-2340.3" font-family="Times New Roman,serif" font-size="14.00">mas isso aí é fichinha pra gente, e tudo por causa de vc. pq vc fez a gente ACORDAR PRA VIDA</text>
</g>
<!-- j708323263&#45;&gt;j1971728771 -->
<g id="edge17" class="edge">
<title>j708323263&#45;&gt;j1971728771</title>
<path fill="none" stroke="black" d="M679.09,-2398.81C679.09,-2391.23 679.09,-2382.1 679.09,-2373.54"/>
<polygon fill="black" stroke="black" points="682.59,-2373.54 679.09,-2363.54 675.59,-2373.54 682.59,-2373.54"/>
</g>
<!-- j2174781391 -->
<g id="node16" class="node">
<title>j2174781391</title>
<polygon fill="none" stroke="blue" points="1074.59,-2289 283.59,-2289 283.59,-2253 1074.59,-2253 1074.59,-2289"/>
<text text-anchor="middle" x="679.09" y="-2267.3" font-family="Times New Roman,serif" font-size="14.00">i get 2 take care of the kids around here, got eleanor telling &#39;em stories, aoi&#39;s given &#39;em toys &#45; got speedster making lil gadgets for em now...</text>
</g>
<!-- j1971728771&#45;&gt;j2174781391 -->
<g id="edge18" class="edge">
<title>j1971728771&#45;&gt;j2174781391</title>
<path fill="none" stroke="black" d="M679.09,-2325.81C679.09,-2318.23 679.09,-2309.1 679.09,-2300.54"/>
<polygon fill="black" stroke="black" points="682.59,-2300.54 679.09,-2290.54 675.59,-2300.54 682.59,-2300.54"/>
</g>
<!-- j346449218 -->
<g id="node17" class="node">
<title>j346449218</title>
<polygon fill="none" stroke="blue" points="923.09,-2216 435.09,-2216 435.09,-2180 923.09,-2180 923.09,-2216"/>
<text text-anchor="middle" x="679.09" y="-2194.3" font-family="Times New Roman,serif" font-size="14.00">até o herói emburrado n parece mais tá tão emburrado assim… ele parece até… feliz</text>
</g>
<!-- j2174781391&#45;&gt;j346449218 -->
<g id="edge19" class="edge">
<title>j2174781391&#45;&gt;j346449218</title>
<path fill="none" stroke="black" d="M679.09,-2252.81C679.09,-2245.23 679.09,-2236.1 679.09,-2227.54"/>
<polygon fill="black" stroke="black" points="682.59,-2227.54 679.09,-2217.54 675.59,-2227.54 682.59,-2227.54"/>
</g>
<!-- j3691077159 -->
<g id="node18" class="node">
<title>j3691077159</title>
<polygon fill="none" stroke="blue" points="1021.59,-2143 336.59,-2143 336.59,-2107 1021.59,-2107 1021.59,-2143"/>
<text text-anchor="middle" x="679.09" y="-2121.3" font-family="Times New Roman,serif" font-size="14.00">foi aí q caiu a ficha… se eu n tivesse acompanhado ele lá atrás até chegar aqui… eu nunca ia ter isso aqui na minha vida</text>
</g>
<!-- j346449218&#45;&gt;j3691077159 -->
<g id="edge20" class="edge">
<title>j346449218&#45;&gt;j3691077159</title>
<path fill="none" stroke="black" d="M679.09,-2179.81C679.09,-2172.23 679.09,-2163.1 679.09,-2154.54"/>
<polygon fill="black" stroke="black" points="682.59,-2154.54 679.09,-2144.54 675.59,-2154.54 682.59,-2154.54"/>
</g>
<!-- j4265926193 -->
<g id="node19" class="node">
<title>j4265926193</title>
<polygon fill="none" stroke="blue" points="744.09,-2070 614.09,-2070 614.09,-2034 744.09,-2034 744.09,-2070"/>
<text text-anchor="middle" x="679.09" y="-2048.3" font-family="Times New Roman,serif" font-size="14.00">esse tipo de… amor</text>
</g>
<!-- j3691077159&#45;&gt;j4265926193 -->
<g id="edge21" class="edge">
<title>j3691077159&#45;&gt;j4265926193</title>
<path fill="none" stroke="black" d="M679.09,-2106.81C679.09,-2099.23 679.09,-2090.1 679.09,-2081.54"/>
<polygon fill="black" stroke="black" points="682.59,-2081.54 679.09,-2071.54 675.59,-2081.54 682.59,-2081.54"/>
</g>
<!-- j3249700509 -->
<g id="node20" class="node">
<title>j3249700509</title>
<polygon fill="none" stroke="blue" points="809.09,-1997 549.09,-1997 549.09,-1961 809.09,-1961 809.09,-1997"/>
<text text-anchor="middle" x="679.09" y="-1975.3" font-family="Times New Roman,serif" font-size="14.00">acho q isso é o nome q eu tava procurando</text>
</g>
<!-- j4265926193&#45;&gt;j3249700509 -->
<g id="edge22" class="edge">
<title>j4265926193&#45;&gt;j3249700509</title>
<path fill="none" stroke="black" d="M679.09,-2033.81C679.09,-2026.23 679.09,-2017.1 679.09,-2008.54"/>
<polygon fill="black" stroke="black" points="682.59,-2008.54 679.09,-1998.54 675.59,-2008.54 682.59,-2008.54"/>
</g>
<!-- j2562266806 -->
<g id="node21" class="node">
<title>j2562266806</title>
<polygon fill="none" stroke="blue" points="734.09,-1924 624.09,-1924 624.09,-1888 734.09,-1888 734.09,-1924"/>
<text text-anchor="middle" x="679.09" y="-1902.3" font-family="Times New Roman,serif" font-size="14.00">amor de verdade</text>
</g>
<!-- j3249700509&#45;&gt;j2562266806 -->
<g id="edge23" class="edge">
<title>j3249700509&#45;&gt;j2562266806</title>
<path fill="none" stroke="black" d="M679.09,-1960.81C679.09,-1953.23 679.09,-1944.1 679.09,-1935.54"/>
<polygon fill="black" stroke="black" points="682.59,-1935.54 679.09,-1925.54 675.59,-1935.54 682.59,-1935.54"/>
</g>
<!-- j3062889295 -->
<g id="node22" class="node">
<title>j3062889295</title>
<polygon fill="none" stroke="blue" points="1189.59,-1851 168.59,-1851 168.59,-1815 1189.59,-1815 1189.59,-1851"/>
<text text-anchor="middle" x="679.09" y="-1829.3" font-family="Times New Roman,serif" font-size="14.00">então… eu… eu só queria te dizer q… eu pedi desculpas pro arthur. pedi desculpas por tratar ele q nem merda por tanto medo. expliquei pra ele pq eu tava com tanto medo e raiva</text>
</g>
<!-- j2562266806&#45;&gt;j3062889295 -->
<g id="edge24" class="edge">
<title>j2562266806&#45;&gt;j3062889295</title>
<path fill="none" stroke="black" d="M679.09,-1887.81C679.09,-1880.23 679.09,-1871.1 679.09,-1862.54"/>
<polygon fill="black" stroke="black" points="682.59,-1862.54 679.09,-1852.54 675.59,-1862.54 682.59,-1862.54"/>
</g>
<!-- j2437333930 -->
<g id="node23" class="node">
<title>j2437333930</title>
<polygon fill="none" stroke="blue" points="1083.59,-1778 274.59,-1778 274.59,-1742 1083.59,-1742 1083.59,-1778"/>
<text text-anchor="middle" x="679.09" y="-1756.3" font-family="Times New Roman,serif" font-size="14.00">expliquei q eu sabia q ele só queria fazer a coisa certa pra mim e pra todo o resto. eu sempre respeitei ele por isso, eu só n sabia me expressar</text>
</g>
<!-- j3062889295&#45;&gt;j2437333930 -->
<g id="edge25" class="edge">
<title>j3062889295&#45;&gt;j2437333930</title>
<path fill="none" stroke="black" d="M679.09,-1814.81C679.09,-1807.23 679.09,-1798.1 679.09,-1789.54"/>
<polygon fill="black" stroke="black" points="682.59,-1789.54 679.09,-1779.54 675.59,-1789.54 682.59,-1789.54"/>
</g>
<!-- j280941376 -->
<g id="node24" class="node">
<title>j280941376</title>
<polygon fill="none" stroke="blue" points="1108.09,-1705 250.09,-1705 250.09,-1669 1108.09,-1669 1108.09,-1705"/>
<text text-anchor="middle" x="679.09" y="-1683.3" font-family="Times New Roman,serif" font-size="14.00">mas se tem uma coisa q a gente n faz é se abraçar, chefe. isso aí já é nosso jeitão msm de ser. mas ele me deu um belo aperto de mão e sorriu pra mim</text>
</g>
<!-- j2437333930&#45;&gt;j280941376 -->
<g id="edge26" class="edge">
<title>j2437333930&#45;&gt;j280941376</title>
<path fill="none" stroke="black" d="M679.09,-1741.81C679.09,-1734.23 679.09,-1725.1 679.09,-1716.54"/>
<polygon fill="black" stroke="black" points="682.59,-1716.54 679.09,-1706.54 675.59,-1716.54 682.59,-1716.54"/>
</g>
<!-- j1246722536 -->
<g id="node25" class="node">
<title>j1246722536</title>
<polygon fill="none" stroke="blue" points="755.09,-1632 603.09,-1632 603.09,-1596 755.09,-1596 755.09,-1632"/>
<text text-anchor="middle" x="679.09" y="-1610.3" font-family="Times New Roman,serif" font-size="14.00">eu sorri de volta e disse:</text>
</g>
<!-- j280941376&#45;&gt;j1246722536 -->
<g id="edge27" class="edge">
<title>j280941376&#45;&gt;j1246722536</title>
<path fill="none" stroke="black" d="M679.09,-1668.81C679.09,-1661.23 679.09,-1652.1 679.09,-1643.54"/>
<polygon fill="black" stroke="black" points="682.59,-1643.54 679.09,-1633.54 675.59,-1643.54 682.59,-1643.54"/>
</g>
<!-- j1598694856 -->
<g id="node26" class="node">
<title>j1598694856</title>
<ellipse fill="none" stroke="orange" cx="679.09" cy="-1541" rx="122.38" ry="18"/>
<text text-anchor="middle" x="679.09" y="-1537.3" font-family="Times New Roman,serif" font-size="14.00">Check boolean QuincyArthur2</text>
</g>
<!-- j1246722536&#45;&gt;j1598694856 -->
<g id="edge28" class="edge">
<title>j1246722536&#45;&gt;j1598694856</title>
<path fill="none" stroke="black" d="M679.09,-1595.81C679.09,-1588.23 679.09,-1579.1 679.09,-1570.54"/>
<polygon fill="black" stroke="black" points="682.59,-1570.54 679.09,-1560.54 675.59,-1570.54 682.59,-1570.54"/>
</g>
<!-- j1375143777 -->
<g id="node27" class="node">
<title>j1375143777</title>
<polygon fill="none" stroke="blue" points="647.59,-1472 426.59,-1472 426.59,-1436 647.59,-1436 647.59,-1472"/>
<text text-anchor="middle" x="537.09" y="-1450.3" font-family="Times New Roman,serif" font-size="14.00">&quot;tu continua sendo um empata foda&quot;</text>
</g>
<!-- j1598694856&#45;&gt;j1375143777 -->
<g id="edge29" class="edge">
<title>j1598694856&#45;&gt;j1375143777</title>
<path fill="none" stroke="green" d="M650.69,-1523C629.17,-1510.12 599.34,-1492.26 575.66,-1478.09"/>
<polygon fill="green" stroke="green" points="577.6,-1475.17 567.22,-1473.04 574,-1481.18 577.6,-1475.17"/>
<text text-anchor="middle" x="628.09" y="-1493.8" font-family="Times New Roman,serif" font-size="14.00">true</text>
</g>
<!-- j2486822195 -->
<g id="node28" class="node">
<title>j2486822195</title>
<polygon fill="none" stroke="blue" points="848.59,-1472 665.59,-1472 665.59,-1436 848.59,-1436 848.59,-1472"/>
<text text-anchor="middle" x="757.09" y="-1450.3" font-family="Times New Roman,serif" font-size="14.00">&quot;tu continua sendo um idiota&quot;</text>
</g>
<!-- j1598694856&#45;&gt;j2486822195 -->
<g id="edge30" class="edge">
<title>j1598694856&#45;&gt;j2486822195</title>
<path fill="none" stroke="brown" d="M694.87,-1522.8C705.9,-1510.78 720.82,-1494.52 733.29,-1480.94"/>
<polygon fill="brown" stroke="brown" points="735.85,-1483.32 740.04,-1473.58 730.7,-1478.58 735.85,-1483.32"/>
<text text-anchor="middle" x="735.09" y="-1493.8" font-family="Times New Roman,serif" font-size="14.00">false</text>
</g>
<!-- j894340809 -->
<g id="node29" class="node">
<title>j894340809</title>
<polygon fill="none" stroke="blue" points="793.09,-1399 605.09,-1399 605.09,-1363 793.09,-1363 793.09,-1399"/>
<text text-anchor="middle" x="699.09" y="-1377.3" font-family="Times New Roman,serif" font-size="14.00">asuhasuhausahsuahsuashuahsa</text>
</g>
<!-- j1375143777&#45;&gt;j894340809 -->
<g id="edge31" class="edge">
<title>j1375143777&#45;&gt;j894340809</title>
<path fill="none" stroke="black" d="M576.72,-1435.63C598.49,-1426.09 625.71,-1414.16 648.94,-1403.98"/>
<polygon fill="black" stroke="black" points="650.17,-1407.26 657.92,-1400.04 647.36,-1400.85 650.17,-1407.26"/>
</g>
<!-- j2486822195&#45;&gt;j894340809 -->
<g id="edge32" class="edge">
<title>j2486822195&#45;&gt;j894340809</title>
<path fill="none" stroke="black" d="M743.05,-1435.81C736.21,-1427.44 727.84,-1417.2 720.25,-1407.9"/>
<polygon fill="black" stroke="black" points="722.99,-1405.73 713.96,-1400.2 717.57,-1410.16 722.99,-1405.73"/>
</g>
<!-- j2835493875 -->
<g id="node30" class="node">
<title>j2835493875</title>
<polygon fill="none" stroke="red" points="673.59,-1326 514.59,-1326 514.59,-1290 673.59,-1290 673.59,-1326"/>
<text text-anchor="middle" x="594.09" y="-1304.3" font-family="Times New Roman,serif" font-size="14.00">Ah, Quincy kkkkkkkkkkk</text>
</g>
<!-- j894340809&#45;&gt;j2835493875 -->
<g id="edge33" class="edge">
<title>j894340809&#45;&gt;j2835493875</title>
<path fill="none" stroke="black" d="M673.4,-1362.63C660.06,-1353.61 643.55,-1342.44 629.05,-1332.64"/>
<polygon fill="black" stroke="black" points="631.37,-1329.99 621.13,-1327.28 627.45,-1335.78 631.37,-1329.99"/>
</g>
<!-- j3475570678 -->
<g id="node31" class="node">
<title>j3475570678</title>
<polygon fill="none" stroke="red" points="898.09,-1326 692.09,-1326 692.09,-1290 898.09,-1290 898.09,-1326"/>
<text text-anchor="middle" x="795.09" y="-1304.3" font-family="Times New Roman,serif" font-size="14.00">Certeza que ele ficou emocionado</text>
</g>
<!-- j894340809&#45;&gt;j3475570678 -->
<g id="edge34" class="edge">
<title>j894340809&#45;&gt;j3475570678</title>
<path fill="none" stroke="black" d="M722.33,-1362.81C734.38,-1353.9 749.31,-1342.86 762.5,-1333.1"/>
<polygon fill="black" stroke="black" points="764.56,-1335.94 770.51,-1327.17 760.39,-1330.31 764.56,-1335.94"/>
</g>
<!-- j2058773022 -->
<g id="node32" class="node">
<title>j2058773022</title>
<polygon fill="none" stroke="blue" points="965.09,-1253 425.09,-1253 425.09,-1217 965.09,-1217 965.09,-1253"/>
<text text-anchor="middle" x="695.09" y="-1231.3" font-family="Times New Roman,serif" font-size="14.00">ele deu risada, dá pra acreditar?! ele finalmente apreciou meu senso de humor asuhasuahsuaha</text>
</g>
<!-- j2835493875&#45;&gt;j2058773022 -->
<g id="edge35" class="edge">
<title>j2835493875&#45;&gt;j2058773022</title>
<path fill="none" stroke="black" d="M618.8,-1289.63C631.51,-1280.69 647.21,-1269.66 661.06,-1259.92"/>
<polygon fill="black" stroke="black" points="662.88,-1262.92 669.05,-1254.31 658.85,-1257.19 662.88,-1262.92"/>
</g>
<!-- j3475570678&#45;&gt;j2058773022 -->
<g id="edge36" class="edge">
<title>j3475570678&#45;&gt;j2058773022</title>
<path fill="none" stroke="black" d="M770.63,-1289.63C758.04,-1280.69 742.49,-1269.66 728.78,-1259.92"/>
<polygon fill="black" stroke="black" points="731.06,-1257.25 720.88,-1254.31 727.01,-1262.95 731.06,-1257.25"/>
</g>
<!-- j2817772235 -->
<g id="node33" class="node">
<title>j2817772235</title>
<polygon fill="none" stroke="blue" points="808.59,-1180 581.59,-1180 581.59,-1144 808.59,-1144 808.59,-1180"/>
<text text-anchor="middle" x="695.09" y="-1158.3" font-family="Times New Roman,serif" font-size="14.00">me deu um tapinha no ombro e é isso</text>
</g>
<!-- j2058773022&#45;&gt;j2817772235 -->
<g id="edge37" class="edge">
<title>j2058773022&#45;&gt;j2817772235</title>
<path fill="none" stroke="black" d="M695.09,-1216.81C695.09,-1209.23 695.09,-1200.1 695.09,-1191.54"/>
<polygon fill="black" stroke="black" points="698.59,-1191.54 695.09,-1181.54 691.59,-1191.54 698.59,-1191.54"/>
</g>
<!-- j3938093138 -->
<g id="node34" class="node">
<title>j3938093138</title>
<polygon fill="none" stroke="blue" points="950.09,-1107 440.09,-1107 440.09,-1071 950.09,-1071 950.09,-1107"/>
<text text-anchor="middle" x="695.09" y="-1085.3" font-family="Times New Roman,serif" font-size="14.00">e cara… foi bom demais da conta, de verdade. eu tirei uma montanha das minhas costas</text>
</g>
<!-- j2817772235&#45;&gt;j3938093138 -->
<g id="edge38" class="edge">
<title>j2817772235&#45;&gt;j3938093138</title>
<path fill="none" stroke="black" d="M695.09,-1143.81C695.09,-1136.23 695.09,-1127.1 695.09,-1118.54"/>
<polygon fill="black" stroke="black" points="698.59,-1118.54 695.09,-1108.54 691.59,-1118.54 698.59,-1118.54"/>
</g>
<!-- j1697719468 -->
<g id="node35" class="node">
<title>j1697719468</title>
<polygon fill="none" stroke="blue" points="753.09,-1034 637.09,-1034 637.09,-998 753.09,-998 753.09,-1034"/>
<text text-anchor="middle" x="695.09" y="-1012.3" font-family="Times New Roman,serif" font-size="14.00">e isso graças a vc</text>
</g>
<!-- j3938093138&#45;&gt;j1697719468 -->
<g id="edge39" class="edge">
<title>j3938093138&#45;&gt;j1697719468</title>
<path fill="none" stroke="black" d="M695.09,-1070.81C695.09,-1063.23 695.09,-1054.1 695.09,-1045.54"/>
<polygon fill="black" stroke="black" points="698.59,-1045.54 695.09,-1035.54 691.59,-1045.54 698.59,-1045.54"/>
</g>
<!-- j2532970724 -->
<g id="node36" class="node">
<title>j2532970724</title>
<ellipse fill="none" stroke="orange" cx="695.09" cy="-943" rx="117.78" ry="18"/>
<text text-anchor="middle" x="695.09" y="-939.3" font-family="Times New Roman,serif" font-size="14.00">Check boolean QuincyDating</text>
</g>
<!-- j1697719468&#45;&gt;j2532970724 -->
<g id="edge40" class="edge">
<title>j1697719468&#45;&gt;j2532970724</title>
<path fill="none" stroke="black" d="M695.09,-997.81C695.09,-990.23 695.09,-981.1 695.09,-972.54"/>
<polygon fill="black" stroke="black" points="698.59,-972.54 695.09,-962.54 691.59,-972.54 698.59,-972.54"/>
</g>
<!-- j1412916391 -->
<g id="node37" class="node">
<title>j1412916391</title>
<polygon fill="none" stroke="blue" points="903.59,-874 600.59,-874 600.59,-838 903.59,-838 903.59,-874"/>
<text text-anchor="middle" x="752.09" y="-852.3" font-family="Times New Roman,serif" font-size="14.00">então bb, eu só queria… te agradecer e… falar q…</text>
</g>
<!-- j2532970724&#45;&gt;j1412916391 -->
<g id="edge41" class="edge">
<title>j2532970724&#45;&gt;j1412916391</title>
<path fill="none" stroke="green" d="M706.62,-924.8C714.53,-913.01 725.17,-897.14 734.17,-883.72"/>
<polygon fill="green" stroke="green" points="736.87,-885.98 739.53,-875.72 731.06,-882.08 736.87,-885.98"/>
<text text-anchor="middle" x="737.09" y="-895.8" font-family="Times New Roman,serif" font-size="14.00">true</text>
</g>
<!-- j1117309763 -->
<g id="node38" class="node">
<title>j1117309763</title>
<polygon fill="none" stroke="blue" points="582.09,-874 220.09,-874 220.09,-838 582.09,-838 582.09,-874"/>
<text text-anchor="middle" x="401.09" y="-852.3" font-family="Times New Roman,serif" font-size="14.00">então chefe, eu só queria dizer q… tô contigo pro q der e vier</text>
</g>
<!-- j2532970724&#45;&gt;j1117309763 -->
<g id="edge42" class="edge">
<title>j2532970724&#45;&gt;j1117309763</title>
<path fill="none" stroke="brown" d="M641.51,-926.51C594.04,-912.78 524.37,-892.64 472.24,-877.57"/>
<polygon fill="brown" stroke="brown" points="473.43,-874.27 462.85,-874.86 471.49,-881 473.43,-874.27"/>
<text text-anchor="middle" x="579.09" y="-895.8" font-family="Times New Roman,serif" font-size="14.00">false</text>
</g>
<!-- j2805368845 -->
<g id="node39" class="node">
<title>j2805368845</title>
<polygon fill="none" stroke="blue" points="802.59,-801 701.59,-801 701.59,-765 802.59,-765 802.59,-801"/>
<text text-anchor="middle" x="752.09" y="-779.3" font-family="Times New Roman,serif" font-size="14.00">eu… eu te amo</text>
</g>
<!-- j1412916391&#45;&gt;j2805368845 -->
<g id="edge43" class="edge">
<title>j1412916391&#45;&gt;j2805368845</title>
<path fill="none" stroke="black" d="M752.09,-837.81C752.09,-830.23 752.09,-821.1 752.09,-812.54"/>
<polygon fill="black" stroke="black" points="755.59,-812.54 752.09,-802.54 748.59,-812.54 755.59,-812.54"/>
</g>
<!-- j2177992026 -->
<g id="node40" class="node">
<title>j2177992026</title>
<polygon fill="none" stroke="blue" points="676.59,-747 125.59,-747 125.59,-711 676.59,-711 676.59,-747"/>
<text text-anchor="middle" x="401.09" y="-725.3" font-family="Times New Roman,serif" font-size="14.00">a gente n é só amigo, a gente é família agr. vlw msm por tá aqui com a gente. brigadão por tudo</text>
</g>
<!-- j1117309763&#45;&gt;j2177992026 -->
<g id="edge44" class="edge">
<title>j1117309763&#45;&gt;j2177992026</title>
<path fill="none" stroke="black" d="M401.09,-837.62C401.09,-817.19 401.09,-782.99 401.09,-758.62"/>
<polygon fill="black" stroke="black" points="404.59,-758.75 401.09,-748.75 397.59,-758.75 404.59,-758.75"/>
</g>
<!-- j3437791710 -->
<g id="node41" class="node">
<title>j3437791710</title>
<polygon fill="none" stroke="red" points="660.09,-693 444.09,-693 444.09,-657 660.09,-657 660.09,-693"/>
<text text-anchor="middle" x="552.09" y="-671.3" font-family="Times New Roman,serif" font-size="14.00">Aww… também te amo, Quincy &lt;3</text>
</g>
<!-- j2805368845&#45;&gt;j3437791710 -->
<g id="edge45" class="edge">
<title>j2805368845&#45;&gt;j3437791710</title>
<path fill="none" stroke="black" d="M740.51,-764.75C728.7,-748.49 708.91,-724.64 686.09,-711 677.13,-705.64 667.35,-701.1 657.3,-697.24"/>
<polygon fill="black" stroke="black" points="658.76,-694.05 648.16,-693.98 656.4,-700.64 658.76,-694.05"/>
</g>
<!-- j2505587353 -->
<g id="node42" class="node">
<title>j2505587353</title>
<polygon fill="none" stroke="red" points="1174.09,-693 770.09,-693 770.09,-657 1174.09,-657 1174.09,-693"/>
<text text-anchor="middle" x="972.09" y="-671.3" font-family="Times New Roman,serif" font-size="14.00">Eu… sinto muito, mas ainda não quero ter esse tipo de compromisso</text>
</g>
<!-- j2805368845&#45;&gt;j2505587353 -->
<g id="edge46" class="edge">
<title>j2805368845&#45;&gt;j2505587353</title>
<path fill="none" stroke="black" d="M787.93,-764.73C825.45,-746.65 884.52,-718.19 925.61,-698.4"/>
<polygon fill="black" stroke="black" points="927.05,-701.59 934.54,-694.09 924.01,-695.28 927.05,-701.59"/>
</g>
<!-- j690456673 -->
<g id="node43" class="node">
<title>j690456673</title>
<polygon fill="none" stroke="blue" points="554.59,-401 457.59,-401 457.59,-365 554.59,-365 554.59,-401"/>
<text text-anchor="middle" x="506.09" y="-379.3" font-family="Times New Roman,serif" font-size="14.00">te devo uma ;)</text>
</g>
<!-- j2177992026&#45;&gt;j690456673 -->
<g id="edge47" class="edge">
<title>j2177992026&#45;&gt;j690456673</title>
<path fill="none" stroke="black" d="M295.63,-710.52C226.21,-695.91 148.09,-672.12 148.09,-639 148.09,-639 148.09,-639 148.09,-455 148.09,-394.98 344.15,-384.91 446.08,-383.73"/>
<polygon fill="black" stroke="black" points="445.95,-387.23 455.92,-383.65 445.89,-380.23 445.95,-387.23"/>
</g>
<!-- j1608374112 -->
<g id="node44" class="node">
<title>j1608374112</title>
<polygon fill="none" stroke="blue" points="836.09,-620 176.09,-620 176.09,-584 836.09,-584 836.09,-620"/>
<text text-anchor="middle" x="506.09" y="-598.3" font-family="Times New Roman,serif" font-size="14.00">msm depois de tudo q eu já passei nesse mundo… eu nunca ia sonhar com alguém q nem vc. e n te troco por nada</text>
</g>
<!-- j3437791710&#45;&gt;j1608374112 -->
<g id="edge48" class="edge">
<title>j3437791710&#45;&gt;j1608374112</title>
<path fill="none" stroke="black" d="M540.95,-656.81C535.64,-648.62 529.17,-638.62 523.25,-629.48"/>
<polygon fill="black" stroke="black" points="526.32,-627.79 517.94,-621.3 520.44,-631.59 526.32,-627.79"/>
</g>
<!-- j1522973601 -->
<g id="node45" class="node">
<title>j1522973601</title>
<polygon fill="none" stroke="blue" points="1220.09,-620 854.09,-620 854.09,-584 1220.09,-584 1220.09,-620"/>
<text text-anchor="middle" x="1037.09" y="-598.3" font-family="Times New Roman,serif" font-size="14.00">quê? tava demorando pra me dar um chute nas bola msm, viu?</text>
</g>
<!-- j2505587353&#45;&gt;j1522973601 -->
<g id="edge49" class="edge">
<title>j2505587353&#45;&gt;j1522973601</title>
<path fill="none" stroke="black" d="M987.82,-656.81C995.65,-648.27 1005.26,-637.77 1013.91,-628.32"/>
<polygon fill="black" stroke="black" points="1016.31,-630.88 1020.48,-621.15 1011.14,-626.16 1016.31,-630.88"/>
</g>
<!-- j690456673&#45;&gt;Chat ends. -->
<g id="edge50" class="edge">
<title>j690456673&#45;&gt;Chat ends.</title>
<path fill="none" stroke="black" d="M513.1,-364.51C518.15,-350.33 524.09,-329.69 524.09,-311 524.09,-311 524.09,-311 524.09,-90 524.09,-68.02 541.3,-50.72 559.13,-38.71"/>
<polygon fill="black" stroke="black" points="560.5,-41.97 567.13,-33.71 556.8,-36.04 560.5,-41.97"/>
</g>
<!-- j3656341847 -->
<g id="node46" class="node">
<title>j3656341847</title>
<polygon fill="none" stroke="blue" points="642.09,-547 370.09,-547 370.09,-511 642.09,-511 642.09,-547"/>
<text text-anchor="middle" x="506.09" y="-525.3" font-family="Times New Roman,serif" font-size="14.00">seja no passado ou no futuro asuahsuahsuaha</text>
</g>
<!-- j1608374112&#45;&gt;j3656341847 -->
<g id="edge51" class="edge">
<title>j1608374112&#45;&gt;j3656341847</title>
<path fill="none" stroke="black" d="M506.09,-583.81C506.09,-576.23 506.09,-567.1 506.09,-558.54"/>
<polygon fill="black" stroke="black" points="509.59,-558.54 506.09,-548.54 502.59,-558.54 509.59,-558.54"/>
</g>
<!-- j871874990 -->
<g id="node47" class="node">
<title>j871874990</title>
<polygon fill="none" stroke="blue" points="1076.59,-547 975.59,-547 975.59,-511 1076.59,-511 1076.59,-547"/>
<text text-anchor="middle" x="1026.09" y="-525.3" font-family="Times New Roman,serif" font-size="14.00">porra, é sério?!</text>
</g>
<!-- j1522973601&#45;&gt;j871874990 -->
<g id="edge52" class="edge">
<title>j1522973601&#45;&gt;j871874990</title>
<path fill="none" stroke="black" d="M1034.43,-583.81C1033.24,-576.14 1031.8,-566.89 1030.46,-558.24"/>
<polygon fill="black" stroke="black" points="1033.95,-557.87 1028.96,-548.52 1027.03,-558.94 1033.95,-557.87"/>
</g>
<!-- j3141172221 -->
<g id="node48" class="node">
<title>j3141172221</title>
<polygon fill="none" stroke="blue" points="686.59,-474 325.59,-474 325.59,-438 686.59,-438 686.59,-474"/>
<text text-anchor="middle" x="506.09" y="-452.3" font-family="Times New Roman,serif" font-size="14.00">então… vlw bb. brigadão por tudo q vc é e por tudo q vc faz</text>
</g>
<!-- j3656341847&#45;&gt;j3141172221 -->
<g id="edge53" class="edge">
<title>j3656341847&#45;&gt;j3141172221</title>
<path fill="none" stroke="black" d="M506.09,-510.81C506.09,-503.23 506.09,-494.1 506.09,-485.54"/>
<polygon fill="black" stroke="black" points="509.59,-485.54 506.09,-475.54 502.59,-485.54 509.59,-485.54"/>
</g>
<!-- j581921831 -->
<g id="node49" class="node">
<title>j581921831</title>
<polygon fill="none" stroke="blue" points="1027.59,-474 908.59,-474 908.59,-438 1027.59,-438 1027.59,-474"/>
<text text-anchor="middle" x="968.09" y="-452.3" font-family="Times New Roman,serif" font-size="14.00">AFTER ALL TH&#45;</text>
</g>
<!-- j871874990&#45;&gt;j581921831 -->
<g id="edge54" class="edge">
<title>j871874990&#45;&gt;j581921831</title>
<path fill="none" stroke="black" d="M1012.05,-510.81C1005.21,-502.44 996.84,-492.2 989.25,-482.9"/>
<polygon fill="black" stroke="black" points="991.99,-480.73 982.96,-475.2 986.57,-485.16 991.99,-480.73"/>
</g>
<!-- j3141172221&#45;&gt;j690456673 -->
<g id="edge55" class="edge">
<title>j3141172221&#45;&gt;j690456673</title>
<path fill="none" stroke="black" d="M506.09,-437.81C506.09,-430.23 506.09,-421.1 506.09,-412.54"/>
<polygon fill="black" stroke="black" points="509.59,-412.54 506.09,-402.54 502.59,-412.54 509.59,-412.54"/>
</g>
<!-- j730681689 -->
<g id="node50" class="node">
<title>j730681689</title>
<polygon fill="none" stroke="blue" points="992.59,-401 817.59,-401 817.59,-365 992.59,-365 992.59,-401"/>
<text text-anchor="middle" x="905.09" y="-379.3" font-family="Times New Roman,serif" font-size="14.00">ah, quer saber, tanto faz. blz</text>
</g>
<!-- j581921831&#45;&gt;j730681689 -->
<g id="edge56" class="edge">
<title>j581921831&#45;&gt;j730681689</title>
<path fill="none" stroke="black" d="M952.84,-437.81C945.33,-429.35 936.13,-418.98 927.82,-409.61"/>
<polygon fill="black" stroke="black" points="930.46,-407.32 921.2,-402.16 925.22,-411.96 930.46,-407.32"/>
</g>
<!-- j306225964 -->
<g id="node51" class="node">
<title>j306225964</title>
<polygon fill="none" stroke="blue" points="1130.09,-328 624.09,-328 624.09,-292 1130.09,-292 1130.09,-328"/>
<text text-anchor="middle" x="877.09" y="-306.3" font-family="Times New Roman,serif" font-size="14.00">é exatamente desse tipo de merda q eu tinha medo. tem coisa q n muda no mundo msm</text>
</g>
<!-- j730681689&#45;&gt;j306225964 -->
<g id="edge57" class="edge">
<title>j730681689&#45;&gt;j306225964</title>
<path fill="none" stroke="black" d="M898.31,-364.81C895.22,-356.96 891.47,-347.47 888,-338.66"/>
<polygon fill="black" stroke="black" points="891.28,-337.46 884.36,-329.44 884.77,-340.02 891.28,-337.46"/>
</g>
<!-- j2319655028 -->
<g id="node52" class="node">
<title>j2319655028</title>
<ellipse fill="none" stroke="orange" cx="775.09" cy="-237" rx="141.88" ry="18"/>
<text text-anchor="middle" x="775.09" y="-233.3" font-family="Times New Roman,serif" font-size="14.00">Boolean QuincyNoDate is now true.</text>
</g>
<!-- j306225964&#45;&gt;j2319655028 -->
<g id="edge58" class="edge">
<title>j306225964&#45;&gt;j2319655028</title>
<path fill="none" stroke="black" d="M852.14,-291.63C839.2,-282.63 823.2,-271.49 809.14,-261.71"/>
<polygon fill="black" stroke="black" points="811.23,-258.89 801.03,-256.05 807.23,-264.64 811.23,-258.89"/>
</g>
<!-- j1884175600 -->
<g id="node53" class="node">
<title>j1884175600</title>
<ellipse fill="none" stroke="orange" cx="720.09" cy="-164" rx="140.28" ry="18"/>
<text text-anchor="middle" x="720.09" y="-160.3" font-family="Times New Roman,serif" font-size="14.00">Boolean QuincyDating is now false.</text>
</g>
<!-- j2319655028&#45;&gt;j1884175600 -->
<g id="edge59" class="edge">
<title>j2319655028&#45;&gt;j1884175600</title>
<path fill="none" stroke="black" d="M761.77,-218.81C755.29,-210.44 747.35,-200.2 740.15,-190.9"/>
<polygon fill="black" stroke="black" points="743.1,-188.99 734.21,-183.23 737.56,-193.27 743.1,-188.99"/>
</g>
<!-- j1242024027 -->
<g id="node54" class="node">
<title>j1242024027</title>
<ellipse fill="none" stroke="orange" cx="708.09" cy="-91" rx="120.78" ry="18"/>
<text text-anchor="middle" x="708.09" y="-87.3" font-family="Times New Roman,serif" font-size="14.00">Boolean IsDating is now false.</text>
</g>
<!-- j1884175600&#45;&gt;j1242024027 -->
<g id="edge60" class="edge">
<title>j1884175600&#45;&gt;j1242024027</title>
<path fill="none" stroke="black" d="M717.18,-145.81C715.89,-138.14 714.32,-128.89 712.86,-120.24"/>
<polygon fill="black" stroke="black" points="716.34,-119.8 711.22,-110.52 709.43,-120.96 716.34,-119.8"/>
</g>
<!-- j1242024027&#45;&gt;Chat ends. -->
<g id="edge61" class="edge">
<title>j1242024027&#45;&gt;Chat ends.</title>
<path fill="none" stroke="black" d="M681.74,-72.99C666.58,-63.21 647.39,-50.82 631.22,-40.38"/>
<polygon fill="black" stroke="black" points="633.17,-37.48 622.87,-35 629.38,-43.36 633.17,-37.48"/>
</g>
</g>
</svg>
