<?xml version="1.0" encoding="UTF-8" standalone="no"?>
<!DOCTYPE svg PUBLIC "-//W3C//DTD SVG 1.1//EN"
 "http://www.w3.org/Graphics/SVG/1.1/DTD/svg11.dtd">
<!-- Generated by graphviz version 7.1.0 (20230121.1956)
 -->
<!-- Pages: 1 -->
<svg width="3957pt" height="1394pt"
 viewBox="0.00 0.00 3957.39 1394.00" xmlns="http://www.w3.org/2000/svg" xmlns:xlink="http://www.w3.org/1999/xlink">
<g id="graph0" class="graph" transform="scale(1 1) rotate(0) translate(4 1390)">
<polygon fill="white" stroke="none" points="-4,4 -4,-1390 3953.39,-1390 3953.39,4 -4,4"/>
<!-- EleanorQuincyWingman begins. -->
<g id="node1" class="node">
<title>EleanorQuincyWingman begins.</title>
<ellipse fill="none" stroke="orange" cx="127.39" cy="-1368" rx="127.28" ry="18"/>
<text text-anchor="middle" x="127.39" y="-1364.3" font-family="Times New Roman,serif" font-size="14.00">EleanorQuincyWingman begins.</text>
</g>
<!-- j2949801986 -->
<g id="node2" class="node">
<title>j2949801986</title>
<ellipse fill="none" stroke="orange" cx="127.39" cy="-1295" rx="98.28" ry="18"/>
<text text-anchor="middle" x="127.39" y="-1291.3" font-family="Times New Roman,serif" font-size="14.00">Check boolean IsDating</text>
</g>
<!-- EleanorQuincyWingman begins.&#45;&gt;j2949801986 -->
<g id="edge1" class="edge">
<title>EleanorQuincyWingman begins.&#45;&gt;j2949801986</title>
<path fill="none" stroke="black" d="M127.39,-1349.81C127.39,-1342.23 127.39,-1333.1 127.39,-1324.54"/>
<polygon fill="black" stroke="black" points="130.89,-1324.54 127.39,-1314.54 123.89,-1324.54 130.89,-1324.54"/>
</g>
<!-- Chat ends. -->
<g id="node3" class="node">
<title>Chat ends.</title>
<ellipse fill="none" stroke="orange" cx="244.39" cy="-18" rx="50.09" ry="18"/>
<text text-anchor="middle" x="244.39" y="-14.3" font-family="Times New Roman,serif" font-size="14.00">Chat ends.</text>
</g>
<!-- j2949801986&#45;&gt;Chat ends. -->
<g id="edge2" class="edge">
<title>j2949801986&#45;&gt;Chat ends.</title>
<path fill="none" stroke="green" d="M122.15,-1276.6C117.48,-1259.54 111.39,-1232.73 111.39,-1209 111.39,-1209 111.39,-1209 111.39,-90 111.39,-53.59 150.66,-35.78 186.52,-27.12"/>
<polygon fill="green" stroke="green" points="187,-30.59 196.02,-25.03 185.5,-23.76 187,-30.59"/>
<text text-anchor="middle" x="122.39" y="-603.8" font-family="Times New Roman,serif" font-size="14.00">true</text>
</g>
<!-- j2715369764 -->
<g id="node4" class="node">
<title>j2715369764</title>
<polygon fill="none" stroke="blue" points="1584.39,-1226 368.39,-1226 368.39,-1190 1584.39,-1190 1584.39,-1226"/>
<text text-anchor="middle" x="976.39" y="-1204.3" font-family="Times New Roman,serif" font-size="14.00">Quincy มาหาและพูดสิ่งที่ประหลาดที่สุด นั่นคือเอ็งอยากคุยด้วยเกี่ยวกับ... &quot;ความรู้สึก&quot;?</text>
</g>
<!-- j2949801986&#45;&gt;j2715369764 -->
<g id="edge3" class="edge">
<title>j2949801986&#45;&gt;j2715369764</title>
<path fill="none" stroke="brown" d="M211.9,-1285.54C346.03,-1272.11 610.86,-1245.6 790.79,-1227.58"/>
<polygon fill="brown" stroke="brown" points="790.87,-1231.09 800.47,-1226.61 790.17,-1224.13 790.87,-1231.09"/>
<text text-anchor="middle" x="615.39" y="-1247.8" font-family="Times New Roman,serif" font-size="14.00">false</text>
</g>
<!-- j806134085 -->
<g id="node5" class="node">
<title>j806134085</title>
<ellipse fill="none" stroke="orange" cx="1097.39" cy="-1135" rx="122.68" ry="18"/>
<text text-anchor="middle" x="1097.39" y="-1131.3" font-family="Times New Roman,serif" font-size="14.00">Check boolean EleanorNoDate</text>
</g>
<!-- j2715369764&#45;&gt;j806134085 -->
<g id="edge4" class="edge">
<title>j2715369764&#45;&gt;j806134085</title>
<path fill="none" stroke="black" d="M1005.99,-1189.63C1021.9,-1180.3 1041.7,-1168.68 1058.8,-1158.64"/>
<polygon fill="black" stroke="black" points="1060.35,-1161.79 1067.21,-1153.71 1056.81,-1155.75 1060.35,-1161.79"/>
</g>
<!-- j354687615 -->
<g id="node6" class="node">
<title>j354687615</title>
<polygon fill="none" stroke="red" points="1618.39,-1012 948.39,-1012 948.39,-976 1618.39,-976 1618.39,-1012"/>
<text text-anchor="middle" x="1283.39" y="-990.3" font-family="Times New Roman,serif" font-size="14.00">แค่อยากจะขอโทษสำหรับเรื่องแย่ ๆ ที่เคยพูดไป</text>
</g>
<!-- j806134085&#45;&gt;j354687615 -->
<g id="edge5" class="edge">
<title>j806134085&#45;&gt;j354687615</title>
<path fill="none" stroke="green" d="M1120.2,-1116.96C1153.02,-1092.43 1213.72,-1047.06 1251.13,-1019.11"/>
<polygon fill="green" stroke="green" points="1252.97,-1022.1 1258.89,-1013.31 1248.78,-1016.49 1252.97,-1022.1"/>
<text text-anchor="middle" x="1173.39" y="-1087.8" font-family="Times New Roman,serif" font-size="14.00">true</text>
</g>
<!-- j1275785151 -->
<g id="node7" class="node">
<title>j1275785151</title>
<polygon fill="none" stroke="red" points="1168.89,-1066 927.89,-1066 927.89,-1030 1168.89,-1030 1168.89,-1066"/>
<text text-anchor="middle" x="1048.39" y="-1044.3" font-family="Times New Roman,serif" font-size="14.00">เขาคง &quot;แกล้ง&quot; น่ะ</text>
</g>
<!-- j806134085&#45;&gt;j1275785151 -->
<g id="edge6" class="edge">
<title>j806134085&#45;&gt;j1275785151</title>
<path fill="none" stroke="green" d="M1091.04,-1116.83C1087.09,-1106.94 1081.59,-1094.44 1075.39,-1084 1073.7,-1081.15 1071.81,-1078.27 1069.84,-1075.45"/>
<polygon fill="green" stroke="green" points="1072.66,-1073.38 1063.9,-1067.43 1067.04,-1077.55 1072.66,-1073.38"/>
<text text-anchor="middle" x="1093.39" y="-1087.8" font-family="Times New Roman,serif" font-size="14.00">true</text>
</g>
<!-- j806134085&#45;&gt;j1275785151 -->
<g id="edge8" class="edge">
<title>j806134085&#45;&gt;j1275785151</title>
<path fill="none" stroke="brown" d="M1062.45,-1117.44C1055.6,-1112.51 1049.33,-1106.4 1045.39,-1099 1041.9,-1092.45 1041.07,-1084.71 1041.52,-1077.31"/>
<polygon fill="brown" stroke="brown" points="1044.95,-1078.05 1042.86,-1067.66 1038.01,-1077.09 1044.95,-1078.05"/>
<text text-anchor="middle" x="1058.39" y="-1087.8" font-family="Times New Roman,serif" font-size="14.00">false</text>
</g>
<!-- j623237373 -->
<g id="node8" class="node">
<title>j623237373</title>
<polygon fill="none" stroke="red" points="1898.89,-1066 1291.89,-1066 1291.89,-1030 1898.89,-1030 1898.89,-1066"/>
<text text-anchor="middle" x="1595.39" y="-1044.3" font-family="Times New Roman,serif" font-size="14.00">แค่อยากจะบอกว่าข้ามีความรู้สึกดี ๆ ด้วย</text>
</g>
<!-- j806134085&#45;&gt;j623237373 -->
<g id="edge7" class="edge">
<title>j806134085&#45;&gt;j623237373</title>
<path fill="none" stroke="brown" d="M1175.2,-1120.72C1257.48,-1106.68 1388.1,-1084.38 1481.86,-1068.38"/>
<polygon fill="brown" stroke="brown" points="1482.35,-1071.84 1491.62,-1066.71 1481.17,-1064.94 1482.35,-1071.84"/>
<text text-anchor="middle" x="1388.39" y="-1087.8" font-family="Times New Roman,serif" font-size="14.00">false</text>
</g>
<!-- j871835755 -->
<g id="node9" class="node">
<title>j871835755</title>
<polygon fill="none" stroke="blue" points="2305.39,-904 305.39,-904 305.39,-868 2305.39,-868 2305.39,-904"/>
<text text-anchor="middle" x="1305.39" y="-882.3" font-family="Times New Roman,serif" font-size="14.00">อืม... เมื่อดูจากสถานการณ์ของเราแล้ว การยังถือโทษโกรธกันไปก็คงไม่ใช่ทางเลือกที่ดีนัก ถ้าหมายความตามนั้นจริง ๆ งั้นจะยอมยกโทษให้ก็ได้</text>
</g>
<!-- j354687615&#45;&gt;j871835755 -->
<g id="edge9" class="edge">
<title>j354687615&#45;&gt;j871835755</title>
<path fill="none" stroke="black" d="M1286.92,-975.97C1290.3,-959.69 1295.46,-934.82 1299.47,-915.52"/>
<polygon fill="black" stroke="black" points="1302.88,-916.33 1301.48,-905.82 1296.02,-914.9 1302.88,-916.33"/>
</g>
<!-- j706662050 -->
<g id="node10" class="node">
<title>j706662050</title>
<polygon fill="none" stroke="blue" points="300.39,-904 126.39,-904 126.39,-868 300.39,-868 300.39,-904"/>
<text text-anchor="middle" x="213.39" y="-882.3" font-family="Times New Roman,serif" font-size="14.00">เข้าใจแล้ว</text>
</g>
<!-- j1275785151&#45;&gt;j706662050 -->
<g id="edge10" class="edge">
<title>j1275785151&#45;&gt;j706662050</title>
<path fill="none" stroke="black" d="M957.44,-1029.57C799.29,-999.27 474.94,-937.12 311.76,-905.85"/>
<polygon fill="black" stroke="black" points="312.73,-902.47 302.25,-904.03 311.42,-909.35 312.73,-902.47"/>
</g>
<!-- j1281792529 -->
<g id="node11" class="node">
<title>j1281792529</title>
<ellipse fill="none" stroke="orange" cx="2328.39" cy="-940" rx="130.78" ry="18"/>
<text text-anchor="middle" x="2328.39" y="-936.3" font-family="Times New Roman,serif" font-size="14.00">Check boolean EleanorHasDated</text>
</g>
<!-- j623237373&#45;&gt;j1281792529 -->
<g id="edge11" class="edge">
<title>j623237373&#45;&gt;j1281792529</title>
<path fill="none" stroke="black" d="M1716.02,-1029.56C1859.36,-1008.83 2095.83,-974.63 2229.09,-955.36"/>
<polygon fill="black" stroke="black" points="2229.57,-958.83 2238.97,-953.93 2228.57,-951.9 2229.57,-958.83"/>
</g>
<!-- j2011396978 -->
<g id="node12" class="node">
<title>j2011396978</title>
<polygon fill="none" stroke="blue" points="1468.89,-796 359.89,-796 359.89,-760 1468.89,-760 1468.89,-796"/>
<text text-anchor="middle" x="914.39" y="-774.3" font-family="Times New Roman,serif" font-size="14.00">และ... ความจริงแล้ว คือก็ไม่อยากยอมรับเลยว่ายังมีความรู้สึกดี ๆ ต่อกันอยู่...</text>
</g>
<!-- j871835755&#45;&gt;j2011396978 -->
<g id="edge12" class="edge">
<title>j871835755&#45;&gt;j2011396978</title>
<path fill="none" stroke="black" d="M1241.26,-867.61C1172.33,-848.93 1062.84,-819.25 989.82,-799.45"/>
<polygon fill="black" stroke="black" points="990.91,-796.12 980.34,-796.88 989.07,-802.87 990.91,-796.12"/>
</g>
<!-- j706662050&#45;&gt;Chat ends. -->
<g id="edge13" class="edge">
<title>j706662050&#45;&gt;Chat ends.</title>
<path fill="none" stroke="black" d="M213.39,-867.74C213.39,-846.76 213.39,-810.28 213.39,-779 213.39,-779 213.39,-779 213.39,-90 213.39,-74.4 219.75,-58.36 226.71,-45.48"/>
<polygon fill="black" stroke="black" points="229.53,-47.61 231.55,-37.21 223.48,-44.07 229.53,-47.61"/>
</g>
<!-- j3017994828 -->
<g id="node13" class="node">
<title>j3017994828</title>
<polygon fill="none" stroke="blue" points="2296.89,-850 1571.89,-850 1571.89,-814 2296.89,-814 2296.89,-850"/>
<text text-anchor="middle" x="1934.39" y="-828.3" font-family="Times New Roman,serif" font-size="14.00">และอยากขอเตือนความจำหน่อยว่าเคยให้โอกาสไปแล้ว</text>
</g>
<!-- j1281792529&#45;&gt;j3017994828 -->
<g id="edge14" class="edge">
<title>j1281792529&#45;&gt;j3017994828</title>
<path fill="none" stroke="green" d="M2328.17,-921.72C2326.95,-905.19 2322.32,-880.93 2306.39,-868 2298.52,-861.61 2272.3,-856.25 2237.16,-851.8"/>
<polygon fill="green" stroke="green" points="2237.83,-848.36 2227.48,-850.63 2236.99,-855.31 2237.83,-848.36"/>
<text text-anchor="middle" x="2336.39" y="-882.3" font-family="Times New Roman,serif" font-size="14.00">true</text>
</g>
<!-- j719941665 -->
<g id="node14" class="node">
<title>j719941665</title>
<polygon fill="none" stroke="blue" points="3077.89,-850 2314.89,-850 2314.89,-814 3077.89,-814 3077.89,-850"/>
<text text-anchor="middle" x="2696.39" y="-828.3" font-family="Times New Roman,serif" font-size="14.00">แล้วทำไมถึงเก็บเรื่องนี้ไว้กับตัวเองจนถึงตอนนี้?</text>
</g>
<!-- j1281792529&#45;&gt;j719941665 -->
<g id="edge15" class="edge">
<title>j1281792529&#45;&gt;j719941665</title>
<path fill="none" stroke="brown" d="M2383.08,-923.25C2447.32,-904.74 2554.08,-873.99 2624.84,-853.61"/>
<polygon fill="brown" stroke="brown" points="2625.78,-856.98 2634.42,-850.85 2623.84,-850.25 2625.78,-856.98"/>
<text text-anchor="middle" x="2579.39" y="-882.3" font-family="Times New Roman,serif" font-size="14.00">false</text>
</g>
<!-- j1444936465 -->
<g id="node15" class="node">
<title>j1444936465</title>
<polygon fill="none" stroke="blue" points="1301.39,-669 241.39,-669 241.39,-633 1301.39,-633 1301.39,-669"/>
<text text-anchor="middle" x="771.39" y="-647.3" font-family="Times New Roman,serif" font-size="14.00">หากคิดจริงจังที่อยากจะศึกษาดูใจกัน ก็ยินดีที่จะทำแบบนั้นเหมือนกันนะ</text>
</g>
<!-- j2011396978&#45;&gt;j1444936465 -->
<g id="edge16" class="edge">
<title>j2011396978&#45;&gt;j1444936465</title>
<path fill="none" stroke="black" d="M894.51,-759.62C869.85,-738.07 827.67,-701.2 799.66,-676.71"/>
<polygon fill="black" stroke="black" points="802.08,-674.18 792.24,-670.23 797.47,-679.45 802.08,-674.18"/>
</g>
<!-- j1700249084 -->
<g id="node16" class="node">
<title>j1700249084</title>
<polygon fill="none" stroke="blue" points="2548.89,-669 1319.89,-669 1319.89,-633 2548.89,-633 2548.89,-669"/>
<text text-anchor="middle" x="1934.39" y="-647.3" font-family="Times New Roman,serif" font-size="14.00">แต่คงโกหกถ้าไม่ยอมรับว่าคิดถึงและยินดีที่จะลองให้โอกาสอีกครั้งถ้าอยากลองคบกัน</text>
</g>
<!-- j3017994828&#45;&gt;j1700249084 -->
<g id="edge17" class="edge">
<title>j3017994828&#45;&gt;j1700249084</title>
<path fill="none" stroke="black" d="M1934.39,-813.51C1934.39,-782.55 1934.39,-717.85 1934.39,-680.42"/>
<polygon fill="black" stroke="black" points="1937.89,-680.81 1934.39,-670.81 1930.89,-680.81 1937.89,-680.81"/>
</g>
<!-- j3109417554 -->
<g id="node17" class="node">
<title>j3109417554</title>
<polygon fill="none" stroke="red" points="3393.89,-742 3140.89,-742 3140.89,-706 3393.89,-706 3393.89,-742"/>
<text text-anchor="middle" x="3267.39" y="-720.3" font-family="Times New Roman,serif" font-size="14.00">ไม่รู้เหมือนกัน</text>
</g>
<!-- j719941665&#45;&gt;j3109417554 -->
<g id="edge18" class="edge">
<title>j719941665&#45;&gt;j3109417554</title>
<path fill="none" stroke="black" d="M2790.36,-813.56C2892.63,-794.57 3055.77,-764.29 3162.24,-744.52"/>
<polygon fill="black" stroke="black" points="3162.64,-748 3171.84,-742.74 3161.36,-741.12 3162.64,-748"/>
</g>
<!-- j2278386534 -->
<g id="node18" class="node">
<title>j2278386534</title>
<polygon fill="none" stroke="red" points="3122.89,-742 2239.89,-742 2239.89,-706 3122.89,-706 3122.89,-742"/>
<text text-anchor="middle" x="2681.39" y="-720.3" font-family="Times New Roman,serif" font-size="14.00">บางทีอาจเพราะยังสับสนว่าควรจัดการกับเรื่องแบบนี้ยังไงดี</text>
</g>
<!-- j719941665&#45;&gt;j2278386534 -->
<g id="edge19" class="edge">
<title>j719941665&#45;&gt;j2278386534</title>
<path fill="none" stroke="black" d="M2693.98,-813.97C2691.67,-797.69 2688.16,-772.82 2685.42,-753.52"/>
<polygon fill="black" stroke="black" points="2688.92,-753.25 2684.05,-743.84 2681.99,-754.23 2688.92,-753.25"/>
</g>
<!-- j3905924269 -->
<g id="node19" class="node">
<title>j3905924269</title>
<polygon fill="none" stroke="red" points="1505.89,-582 1394.89,-582 1394.89,-546 1505.89,-546 1505.89,-582"/>
<text text-anchor="middle" x="1450.39" y="-560.3" font-family="Times New Roman,serif" font-size="14.00">อยากสิ</text>
</g>
<!-- j1444936465&#45;&gt;j3905924269 -->
<g id="edge20" class="edge">
<title>j1444936465&#45;&gt;j3905924269</title>
<path fill="none" stroke="black" d="M910.84,-632.54C1054.97,-614.5 1273.86,-587.1 1383.25,-573.41"/>
<polygon fill="black" stroke="black" points="1383.45,-576.91 1392.94,-572.19 1382.58,-569.96 1383.45,-576.91"/>
</g>
<!-- j2441739557 -->
<g id="node20" class="node">
<title>j2441739557</title>
<polygon fill="none" stroke="red" points="1101.39,-582 781.39,-582 781.39,-546 1101.39,-546 1101.39,-582"/>
<text text-anchor="middle" x="941.39" y="-560.3" font-family="Times New Roman,serif" font-size="14.00">เอ่อ ไม่เป็นไรดีกว่า</text>
</g>
<!-- j1444936465&#45;&gt;j2441739557 -->
<g id="edge21" class="edge">
<title>j1444936465&#45;&gt;j2441739557</title>
<path fill="none" stroke="black" d="M806.2,-632.59C832.33,-619.53 868.31,-601.54 896.59,-587.4"/>
<polygon fill="black" stroke="black" points="897.89,-590.66 905.27,-583.06 894.76,-584.4 897.89,-590.66"/>
</g>
<!-- j1700249084&#45;&gt;j3905924269 -->
<g id="edge22" class="edge">
<title>j1700249084&#45;&gt;j3905924269</title>
<path fill="none" stroke="black" d="M1834.98,-632.54C1740.13,-615.88 1599.84,-591.25 1517.51,-576.79"/>
<polygon fill="black" stroke="black" points="1518.23,-573.36 1507.78,-575.08 1517.02,-580.26 1518.23,-573.36"/>
</g>
<!-- j1700249084&#45;&gt;j2441739557 -->
<g id="edge23" class="edge">
<title>j1700249084&#45;&gt;j2441739557</title>
<path fill="none" stroke="black" d="M1730.14,-632.52C1548.04,-616.93 1284.49,-594.37 1113.05,-579.69"/>
<polygon fill="black" stroke="black" points="1113.4,-576.21 1103.14,-578.85 1112.81,-583.19 1113.4,-576.21"/>
</g>
<!-- j3303332622 -->
<g id="node21" class="node">
<title>j3303332622</title>
<polygon fill="none" stroke="blue" points="3949.39,-669 2567.39,-669 2567.39,-633 3949.39,-633 3949.39,-669"/>
<text text-anchor="middle" x="3258.39" y="-647.3" font-family="Times New Roman,serif" font-size="14.00">ดูเหมือนจะเป็นอย่างนั้น อืม ถ้ายังอยากลองเรื่องแบบนี้ ก็ยินดีอย่างยิ่งที่จะลองไปด้วยกันนะ</text>
</g>
<!-- j3109417554&#45;&gt;j3303332622 -->
<g id="edge24" class="edge">
<title>j3109417554&#45;&gt;j3303332622</title>
<path fill="none" stroke="black" d="M3265.21,-705.81C3264.24,-698.14 3263.07,-688.89 3261.97,-680.24"/>
<polygon fill="black" stroke="black" points="3265.47,-680.01 3260.74,-670.53 3258.52,-680.89 3265.47,-680.01"/>
</g>
<!-- j2278386534&#45;&gt;j3303332622 -->
<g id="edge25" class="edge">
<title>j2278386534&#45;&gt;j3303332622</title>
<path fill="none" stroke="black" d="M2823.28,-705.54C2908.71,-695.03 3017.5,-681.64 3104.93,-670.88"/>
<polygon fill="black" stroke="black" points="3105.3,-674.36 3114.8,-669.67 3104.44,-667.42 3105.3,-674.36"/>
</g>
<!-- j837418812 -->
<g id="node22" class="node">
<title>j837418812</title>
<ellipse fill="none" stroke="orange" cx="1273.39" cy="-491" rx="64.19" ry="18"/>
<text text-anchor="middle" x="1273.39" y="-487.3" font-family="Times New Roman,serif" font-size="14.00">+20 Chemistry</text>
</g>
<!-- j3905924269&#45;&gt;j837418812 -->
<g id="edge26" class="edge">
<title>j3905924269&#45;&gt;j837418812</title>
<path fill="none" stroke="black" d="M1407.09,-545.63C1380.53,-534.98 1346.54,-521.34 1319.48,-510.49"/>
<polygon fill="black" stroke="black" points="1321.09,-507.36 1310.5,-506.89 1318.48,-513.86 1321.09,-507.36"/>
</g>
<!-- j2751722617 -->
<g id="node23" class="node">
<title>j2751722617</title>
<polygon fill="none" stroke="blue" points="699.39,-509 645.39,-509 645.39,-473 699.39,-473 699.39,-509"/>
<text text-anchor="middle" x="672.39" y="-487.3" font-family="Times New Roman,serif" font-size="14.00">....</text>
</g>
<!-- j2441739557&#45;&gt;j2751722617 -->
<g id="edge27" class="edge">
<title>j2441739557&#45;&gt;j2751722617</title>
<path fill="none" stroke="black" d="M875.24,-545.54C823.51,-531.89 753.42,-513.39 710.63,-502.09"/>
<polygon fill="black" stroke="black" points="711.61,-498.73 701.04,-499.56 709.82,-505.5 711.61,-498.73"/>
</g>
<!-- j3303332622&#45;&gt;j3905924269 -->
<g id="edge28" class="edge">
<title>j3303332622&#45;&gt;j3905924269</title>
<path fill="none" stroke="black" d="M3079.68,-632.53C2960.7,-621.52 2800.83,-607.94 2659.39,-600 2224.51,-575.57 1700.63,-567.75 1517.48,-565.66"/>
<polygon fill="black" stroke="black" points="1517.72,-562.17 1507.68,-565.55 1517.64,-569.17 1517.72,-562.17"/>
</g>
<!-- j3303332622&#45;&gt;j2441739557 -->
<g id="edge29" class="edge">
<title>j3303332622&#45;&gt;j2441739557</title>
<path fill="none" stroke="black" d="M2770.12,-632.51C2392.36,-618.93 1856.2,-599.51 1386.39,-582 1296.18,-578.64 1195.69,-574.81 1113.06,-571.63"/>
<polygon fill="black" stroke="black" points="1113.43,-568.14 1103.3,-571.26 1113.16,-575.14 1113.43,-568.14"/>
</g>
<!-- j1789458011 -->
<g id="node24" class="node">
<title>j1789458011</title>
<polygon fill="none" stroke="blue" points="903.89,-436 776.89,-436 776.89,-400 903.89,-400 903.89,-436"/>
<text text-anchor="middle" x="840.39" y="-414.3" font-family="Times New Roman,serif" font-size="14.00">เช่นกัน</text>
</g>
<!-- j837418812&#45;&gt;j1789458011 -->
<g id="edge30" class="edge">
<title>j837418812&#45;&gt;j1789458011</title>
<path fill="none" stroke="black" d="M1218.99,-481.08C1142.25,-468.5 1001.95,-445.49 915.37,-431.3"/>
<polygon fill="black" stroke="black" points="915.98,-427.85 905.54,-429.68 914.84,-434.76 915.98,-427.85"/>
</g>
<!-- j2728200779 -->
<g id="node25" class="node">
<title>j2728200779</title>
<ellipse fill="none" stroke="orange" cx="559.39" cy="-364" rx="142.97" ry="18"/>
<text text-anchor="middle" x="559.39" y="-360.3" font-family="Times New Roman,serif" font-size="14.00">Boolean EleanorNoDate is now true.</text>
</g>
<!-- j2751722617&#45;&gt;j2728200779 -->
<g id="edge31" class="edge">
<title>j2751722617&#45;&gt;j2728200779</title>
<path fill="none" stroke="black" d="M656.68,-472.62C637.45,-451.35 604.73,-415.15 582.6,-390.67"/>
<polygon fill="black" stroke="black" points="585.28,-388.43 575.98,-383.36 580.09,-393.12 585.28,-388.43"/>
</g>
<!-- j665143278 -->
<g id="node26" class="node">
<title>j665143278</title>
<ellipse fill="none" stroke="orange" cx="809.39" cy="-310" rx="145.67" ry="18"/>
<text text-anchor="middle" x="809.39" y="-306.3" font-family="Times New Roman,serif" font-size="14.00">Boolean EleanorNoDate is now false.</text>
</g>
<!-- j1789458011&#45;&gt;j665143278 -->
<g id="edge32" class="edge">
<title>j1789458011&#45;&gt;j665143278</title>
<path fill="none" stroke="black" d="M835.41,-399.97C830.62,-383.61 823.31,-358.59 817.65,-339.24"/>
<polygon fill="black" stroke="black" points="821.05,-338.41 814.88,-329.79 814.33,-340.37 821.05,-338.41"/>
</g>
<!-- j2728200779&#45;&gt;Chat ends. -->
<g id="edge33" class="edge">
<title>j2728200779&#45;&gt;Chat ends.</title>
<path fill="none" stroke="black" d="M459.66,-350.76C377.83,-337.83 275.39,-313.72 275.39,-274 275.39,-274 275.39,-274 275.39,-90 275.39,-74.4 269.02,-58.36 262.06,-45.48"/>
<polygon fill="black" stroke="black" points="265.29,-44.07 257.23,-37.21 259.25,-47.61 265.29,-44.07"/>
</g>
<!-- j3088195508 -->
<g id="node27" class="node">
<title>j3088195508</title>
<ellipse fill="none" stroke="orange" cx="708.39" cy="-237" rx="118.08" ry="18"/>
<text text-anchor="middle" x="708.39" y="-233.3" font-family="Times New Roman,serif" font-size="14.00">Boolean IsDating is now true.</text>
</g>
<!-- j665143278&#45;&gt;j3088195508 -->
<g id="edge34" class="edge">
<title>j665143278&#45;&gt;j3088195508</title>
<path fill="none" stroke="black" d="M784.94,-291.81C772.04,-282.74 756.01,-271.48 741.96,-261.6"/>
<polygon fill="black" stroke="black" points="744.04,-258.79 733.85,-255.9 740.02,-264.51 744.04,-258.79"/>
</g>
<!-- j576266418 -->
<g id="node28" class="node">
<title>j576266418</title>
<ellipse fill="none" stroke="orange" cx="515.39" cy="-164" rx="138.38" ry="18"/>
<text text-anchor="middle" x="515.39" y="-160.3" font-family="Times New Roman,serif" font-size="14.00">Boolean EleanorDating is now true.</text>
</g>
<!-- j3088195508&#45;&gt;j576266418 -->
<g id="edge35" class="edge">
<title>j3088195508&#45;&gt;j576266418</title>
<path fill="none" stroke="black" d="M664.59,-219.89C636.76,-209.65 600.49,-196.31 570.68,-185.34"/>
<polygon fill="black" stroke="black" points="572.03,-182.11 561.43,-181.94 569.61,-188.68 572.03,-182.11"/>
</g>
<!-- j3035403554 -->
<g id="node29" class="node">
<title>j3035403554</title>
<ellipse fill="none" stroke="orange" cx="466.39" cy="-91" rx="150.57" ry="18"/>
<text text-anchor="middle" x="466.39" y="-87.3" font-family="Times New Roman,serif" font-size="14.00">Boolean EleanorHasDated is now true.</text>
</g>
<!-- j576266418&#45;&gt;j3035403554 -->
<g id="edge36" class="edge">
<title>j576266418&#45;&gt;j3035403554</title>
<path fill="none" stroke="black" d="M503.53,-145.81C497.87,-137.62 490.97,-127.62 484.67,-118.48"/>
<polygon fill="black" stroke="black" points="487.56,-116.52 479,-110.27 481.8,-120.49 487.56,-116.52"/>
</g>
<!-- j3035403554&#45;&gt;Chat ends. -->
<g id="edge37" class="edge">
<title>j3035403554&#45;&gt;Chat ends.</title>
<path fill="none" stroke="black" d="M415.18,-73.62C377.93,-61.71 327.87,-45.7 291.59,-34.1"/>
<polygon fill="black" stroke="black" points="292.83,-30.82 282.24,-31.11 290.7,-37.49 292.83,-30.82"/>
</g>
</g>
</svg>
