<?xml version="1.0" encoding="UTF-8" standalone="no"?>
<!DOCTYPE svg PUBLIC "-//W3C//DTD SVG 1.1//EN"
 "http://www.w3.org/Graphics/SVG/1.1/DTD/svg11.dtd">
<!-- Generated by graphviz version 7.1.0 (20230121.1956)
 -->
<!-- Pages: 1 -->
<svg width="5944pt" height="2134pt"
 viewBox="0.00 0.00 5944.00 2134.00" xmlns="http://www.w3.org/2000/svg" xmlns:xlink="http://www.w3.org/1999/xlink">
<g id="graph0" class="graph" transform="scale(1 1) rotate(0) translate(4 2130)">
<polygon fill="white" stroke="none" points="-4,4 -4,-2130 5940,-2130 5940,4 -4,4"/>
<!-- EleanorRank5Convo7 begins. -->
<g id="node1" class="node">
<title>EleanorRank5Convo7 begins.</title>
<ellipse fill="none" stroke="orange" cx="388" cy="-2108" rx="118.88" ry="18"/>
<text text-anchor="middle" x="388" y="-2104.3" font-family="Times New Roman,serif" font-size="14.00">EleanorRank5Convo7 begins.</text>
</g>
<!-- j1823752819 -->
<g id="node2" class="node">
<title>j1823752819</title>
<polygon fill="none" stroke="blue" points="727.5,-2054 48.5,-2054 48.5,-2018 727.5,-2018 727.5,-2054"/>
<text text-anchor="middle" x="388" y="-2032.3" font-family="Times New Roman,serif" font-size="14.00">“ความเฉยเมย” นั่นมันคืออะไรและมันต้องการอะไร</text>
</g>
<!-- EleanorRank5Convo7 begins.&#45;&gt;j1823752819 -->
<g id="edge1" class="edge">
<title>EleanorRank5Convo7 begins.&#45;&gt;j1823752819</title>
<path fill="none" stroke="black" d="M388,-2089.7C388,-2082.41 388,-2073.73 388,-2065.54"/>
<polygon fill="black" stroke="black" points="391.5,-2065.62 388,-2055.62 384.5,-2065.62 391.5,-2065.62"/>
</g>
<!-- j1433984707 -->
<g id="node3" class="node">
<title>j1433984707</title>
<polygon fill="none" stroke="red" points="1632.5,-1982 739.5,-1982 739.5,-1946 1632.5,-1946 1632.5,-1982"/>
<text text-anchor="middle" x="1186" y="-1960.3" font-family="Times New Roman,serif" font-size="14.00">ทั้งเจ้าและ Lettie ทำแบบนั้นเหมือนกันเลยนะ ลืมทักทายว่า &quot;สวัสดี&quot;</text>
</g>
<!-- j1823752819&#45;&gt;j1433984707 -->
<g id="edge2" class="edge">
<title>j1823752819&#45;&gt;j1433984707</title>
<path fill="none" stroke="black" d="M587.31,-2017.52C705.61,-2007.14 855.46,-1994 975.64,-1983.45"/>
<polygon fill="black" stroke="black" points="975.65,-1986.97 985.3,-1982.61 975.04,-1979.99 975.65,-1986.97"/>
</g>
<!-- j81631562 -->
<g id="node4" class="node">
<title>j81631562</title>
<polygon fill="none" stroke="red" points="680,-1982 96,-1982 96,-1946 680,-1946 680,-1982"/>
<text text-anchor="middle" x="388" y="-1960.3" font-family="Times New Roman,serif" font-size="14.00">คนส่วนใหญ่จะเริ่มต้นด้วยคำว่า &quot;สวัสดี&quot;</text>
</g>
<!-- j1823752819&#45;&gt;j81631562 -->
<g id="edge3" class="edge">
<title>j1823752819&#45;&gt;j81631562</title>
<path fill="none" stroke="black" d="M388,-2017.7C388,-2010.41 388,-2001.73 388,-1993.54"/>
<polygon fill="black" stroke="black" points="391.5,-1993.62 388,-1983.62 384.5,-1993.62 391.5,-1993.62"/>
</g>
<!-- j3001038503 -->
<g id="node5" class="node">
<title>j3001038503</title>
<polygon fill="none" stroke="red" points="136,-1838 0,-1838 0,-1802 136,-1802 136,-1838"/>
<text text-anchor="middle" x="68" y="-1816.3" font-family="Times New Roman,serif" font-size="14.00">[ไม่สนใจ]</text>
</g>
<!-- j1823752819&#45;&gt;j3001038503 -->
<g id="edge4" class="edge">
<title>j1823752819&#45;&gt;j3001038503</title>
<path fill="none" stroke="black" d="M184.85,-2017.52C140.65,-2009.68 102.44,-1998.34 87,-1982 53.48,-1946.52 56.65,-1885.24 62.19,-1849.39"/>
<polygon fill="black" stroke="black" points="65.6,-1850.22 63.85,-1839.77 58.7,-1849.03 65.6,-1850.22"/>
</g>
<!-- j2128312893 -->
<g id="node6" class="node">
<title>j2128312893</title>
<polygon fill="none" stroke="blue" points="1910,-1910 606,-1910 606,-1874 1910,-1874 1910,-1910"/>
<text text-anchor="middle" x="1258" y="-1888.3" font-family="Times New Roman,serif" font-size="14.00">เจอสิ่งหนึ่งที่เรามีร่วมกันแล้วนี่ แสดงความยินดีด้วยนะ และขอโทษนะ เรื่องนี้สำคัญกว่า</text>
</g>
<!-- j1433984707&#45;&gt;j2128312893 -->
<g id="edge5" class="edge">
<title>j1433984707&#45;&gt;j2128312893</title>
<path fill="none" stroke="black" d="M1203.8,-1945.7C1212.28,-1937.45 1222.59,-1927.43 1231.93,-1918.35"/>
<polygon fill="black" stroke="black" points="1234.34,-1920.88 1239.07,-1911.4 1229.46,-1915.86 1234.34,-1920.88"/>
</g>
<!-- j1407109830 -->
<g id="node7" class="node">
<title>j1407109830</title>
<polygon fill="none" stroke="blue" points="587.5,-1910 126.5,-1910 126.5,-1874 587.5,-1874 587.5,-1910"/>
<text text-anchor="middle" x="357" y="-1888.3" font-family="Times New Roman,serif" font-size="14.00">ขอโทษนะ แต่เรื่องนี้สำคัญกว่า</text>
</g>
<!-- j81631562&#45;&gt;j1407109830 -->
<g id="edge6" class="edge">
<title>j81631562&#45;&gt;j1407109830</title>
<path fill="none" stroke="black" d="M380.34,-1945.7C376.96,-1938.07 372.91,-1928.92 369.13,-1920.4"/>
<polygon fill="black" stroke="black" points="372.44,-1919.21 365.19,-1911.49 366.04,-1922.05 372.44,-1919.21"/>
</g>
<!-- Chat ends. -->
<g id="node8" class="node">
<title>Chat ends.</title>
<ellipse fill="none" stroke="orange" cx="1140" cy="-18" rx="50.09" ry="18"/>
<text text-anchor="middle" x="1140" y="-14.3" font-family="Times New Roman,serif" font-size="14.00">Chat ends.</text>
</g>
<!-- j3001038503&#45;&gt;Chat ends. -->
<g id="edge7" class="edge">
<title>j3001038503&#45;&gt;Chat ends.</title>
<path fill="none" stroke="black" d="M68,-1801.51C68,-1774.71 68,-1721.87 68,-1677 68,-1677 68,-1677 68,-161 68,-93.52 127.41,-94.57 191,-72 274.24,-42.45 882.08,-25.26 1078.77,-20.42"/>
<polygon fill="black" stroke="black" points="1078.6,-23.92 1088.52,-20.18 1078.43,-16.93 1078.6,-23.92"/>
</g>
<!-- j2713265314 -->
<g id="node9" class="node">
<title>j2713265314</title>
<polygon fill="none" stroke="blue" points="1675,-1838 631,-1838 631,-1802 1675,-1802 1675,-1838"/>
<text text-anchor="middle" x="1153" y="-1816.3" font-family="Times New Roman,serif" font-size="14.00">ข้าคิดว่า &quot;ความเฉยเมยที่ยิ่งใหญ่&quot; นั่นพยายามเข้ามาแทรกกลางระหว่างเรา</text>
</g>
<!-- j2128312893&#45;&gt;j2713265314 -->
<g id="edge8" class="edge">
<title>j2128312893&#45;&gt;j2713265314</title>
<path fill="none" stroke="black" d="M1231.77,-1873.52C1218.65,-1864.76 1202.57,-1854.04 1188.36,-1844.58"/>
<polygon fill="black" stroke="black" points="1190.41,-1841.73 1180.15,-1839.1 1186.53,-1847.56 1190.41,-1841.73"/>
</g>
<!-- j1407109830&#45;&gt;j2713265314 -->
<g id="edge9" class="edge">
<title>j1407109830&#45;&gt;j2713265314</title>
<path fill="none" stroke="black" d="M555.81,-1873.52C673.81,-1863.14 823.29,-1850 943.17,-1839.45"/>
<polygon fill="black" stroke="black" points="943.15,-1842.97 952.8,-1838.61 942.53,-1835.99 943.15,-1842.97"/>
</g>
<!-- j3786991957 -->
<g id="node10" class="node">
<title>j3786991957</title>
<polygon fill="none" stroke="blue" points="2104.5,-1766 201.5,-1766 201.5,-1730 2104.5,-1730 2104.5,-1766"/>
<text text-anchor="middle" x="1153" y="-1744.3" font-family="Times New Roman,serif" font-size="14.00">อย่าหัวเราะนะ แต่ข้ารู้สึกได้ถึงมันในส่วนลึกของไขกระดูก สิ่งที่อยู่ในตัว Rusalka คงอยากเห็นเราฉีกทึ้งกันเองเป็นชิ้นเล็กชิ้นน้อย</text>
</g>
<!-- j2713265314&#45;&gt;j3786991957 -->
<g id="edge10" class="edge">
<title>j2713265314&#45;&gt;j3786991957</title>
<path fill="none" stroke="black" d="M1153,-1801.7C1153,-1794.41 1153,-1785.73 1153,-1777.54"/>
<polygon fill="black" stroke="black" points="1156.5,-1777.62 1153,-1767.62 1149.5,-1777.62 1156.5,-1777.62"/>
</g>
<!-- j4225940999 -->
<g id="node11" class="node">
<title>j4225940999</title>
<polygon fill="none" stroke="blue" points="1336.5,-1694 969.5,-1694 969.5,-1658 1336.5,-1658 1336.5,-1694"/>
<text text-anchor="middle" x="1153" y="-1672.3" font-family="Times New Roman,serif" font-size="14.00">ไม่รู้ว่าทำไม แต่แค่รู้</text>
</g>
<!-- j3786991957&#45;&gt;j4225940999 -->
<g id="edge11" class="edge">
<title>j3786991957&#45;&gt;j4225940999</title>
<path fill="none" stroke="black" d="M1153,-1729.7C1153,-1722.41 1153,-1713.73 1153,-1705.54"/>
<polygon fill="black" stroke="black" points="1156.5,-1705.62 1153,-1695.62 1149.5,-1705.62 1156.5,-1705.62"/>
</g>
<!-- j3649948265 -->
<g id="node12" class="node">
<title>j3649948265</title>
<polygon fill="none" stroke="red" points="899.5,-1622 532.5,-1622 532.5,-1586 899.5,-1586 899.5,-1622"/>
<text text-anchor="middle" x="716" y="-1600.3" font-family="Times New Roman,serif" font-size="14.00">อืม ข้าคิดว่าเจ้าพูดถูก</text>
</g>
<!-- j4225940999&#45;&gt;j3649948265 -->
<g id="edge12" class="edge">
<title>j4225940999&#45;&gt;j3649948265</title>
<path fill="none" stroke="black" d="M1043.85,-1657.52C980.64,-1647.39 900.98,-1634.63 836.01,-1624.22"/>
<polygon fill="black" stroke="black" points="836.81,-1620.81 826.38,-1622.68 835.71,-1627.72 836.81,-1620.81"/>
</g>
<!-- j1937134856 -->
<g id="node13" class="node">
<title>j1937134856</title>
<polygon fill="none" stroke="red" points="3604,-1622 918,-1622 918,-1586 3604,-1586 3604,-1622"/>
<text text-anchor="middle" x="2261" y="-1600.3" font-family="Times New Roman,serif" font-size="14.00">บางทีนั่นอาจเป็นสิ่งที่เกิดขึ้นกับครอบครัวของ Entrati ก็ได้ พวกเขาอาศัยอยู่บนห้องแล็บของเขามาหลายปีโดยที่ไม่รู้ตัว เมื่อเด็กนั่นพบพวกเขา ทุกคนก็แยกทางกันและจมอยู่กับความเคียดแค้น</text>
</g>
<!-- j4225940999&#45;&gt;j1937134856 -->
<g id="edge13" class="edge">
<title>j4225940999&#45;&gt;j1937134856</title>
<path fill="none" stroke="black" d="M1336.9,-1663.38C1510.03,-1652.44 1772.03,-1635.89 1972.9,-1623.2"/>
<polygon fill="black" stroke="black" points="1972.96,-1626.7 1982.72,-1622.58 1972.52,-1619.72 1972.96,-1626.7"/>
</g>
<!-- j2597605063 -->
<g id="node14" class="node">
<title>j2597605063</title>
<polygon fill="none" stroke="blue" points="2732.5,-1550 1747.5,-1550 1747.5,-1512 2732.5,-1512 2732.5,-1550"/>
<text text-anchor="middle" x="2240" y="-1534.8" font-family="Times New Roman,serif" font-size="14.00">ข้าเคยเห็นมันในหัวของเอ็งแล้ว ทั้ง Albrecht กับ Loid ทั้ง Mother กับ Father ทั้ง&#13;</text>
<text text-anchor="middle" x="2240" y="-1519.8" font-family="Times New Roman,serif" font-size="14.00">เอ็งกับพ่อแม่ และ Rusalka กับ Viktor เท่าที่เรารู้ และรวมถึงพวกเราหกคนด้วย</text>
</g>
<!-- j3649948265&#45;&gt;j2597605063 -->
<g id="edge14" class="edge">
<title>j3649948265&#45;&gt;j2597605063</title>
<path fill="none" stroke="black" d="M899.86,-1586.6C902.93,-1586.4 905.98,-1586.19 909,-1586 1181.9,-1568.46 1486.66,-1555.6 1735.63,-1546.84"/>
<polygon fill="black" stroke="black" points="1735.69,-1550.34 1745.56,-1546.49 1735.44,-1543.34 1735.69,-1550.34"/>
</g>
<!-- j1937134856&#45;&gt;j2597605063 -->
<g id="edge15" class="edge">
<title>j1937134856&#45;&gt;j2597605063</title>
<path fill="none" stroke="black" d="M2255.92,-1585.81C2253.73,-1578.42 2251.11,-1569.57 2248.64,-1561.2"/>
<polygon fill="black" stroke="black" points="2252.03,-1560.32 2245.83,-1551.72 2245.31,-1562.3 2252.03,-1560.32"/>
</g>
<!-- j3934096545 -->
<g id="node15" class="node">
<title>j3934096545</title>
<polygon fill="none" stroke="blue" points="2772,-1476 1708,-1476 1708,-1440 2772,-1440 2772,-1476"/>
<text text-anchor="middle" x="2240" y="-1454.3" font-family="Times New Roman,serif" font-size="14.00">สิ่งที่มันทำนั้นเย็นชา ผิดเพี้ยน แต่มีแรงจูงใจบางอย่างอยู่เบื้องหลัง</text>
</g>
<!-- j2597605063&#45;&gt;j3934096545 -->
<g id="edge16" class="edge">
<title>j2597605063&#45;&gt;j3934096545</title>
<path fill="none" stroke="black" d="M2240,-1511.72C2240,-1504.43 2240,-1495.86 2240,-1487.78"/>
<polygon fill="black" stroke="black" points="2243.5,-1488 2240,-1478 2236.5,-1488 2243.5,-1488"/>
</g>
<!-- j89803803 -->
<g id="node16" class="node">
<title>j89803803</title>
<polygon fill="none" stroke="red" points="3151,-1404 1271,-1404 1271,-1368 3151,-1368 3151,-1404"/>
<text text-anchor="middle" x="2211" y="-1382.3" font-family="Times New Roman,serif" font-size="14.00">ข้าคิดว่าเจ้าพูดถูก พ่อแม่บนเรือ Zariman เป็นคนกลุ่มแรกที่เสียสติ ที่ Holdfast ยืนหยัดได้นานเท่าที่ทำได้อาจเป็นเพราะไม่มีใครมีลูกเลย</text>
</g>
<!-- j3934096545&#45;&gt;j89803803 -->
<g id="edge17" class="edge">
<title>j3934096545&#45;&gt;j89803803</title>
<path fill="none" stroke="black" d="M2232.83,-1439.7C2229.71,-1432.15 2225.96,-1423.12 2222.47,-1414.68"/>
<polygon fill="black" stroke="black" points="2225.73,-1413.4 2218.67,-1405.5 2219.26,-1416.08 2225.73,-1413.4"/>
</g>
<!-- j1415821386 -->
<g id="node17" class="node">
<title>j1415821386</title>
<polygon fill="none" stroke="red" points="5936,-1404 3576,-1404 3576,-1368 5936,-1368 5936,-1404"/>
<text text-anchor="middle" x="4756" y="-1382.3" font-family="Times New Roman,serif" font-size="14.00">ข้าไม่ชอบทึกทักเอาเองว่าเข้าใจในสิ่งนั้นที่ทำตัวเป็น*เทพเจ้า* ว่าจริง ๆ แล้วสิ่งนี้กำลังพยายามเข้าใจอารมณ์ความรู้สึก มันแค่เล่นของเล่นได้ไม่ดีเท่านั้นเอง</text>
</g>
<!-- j3934096545&#45;&gt;j1415821386 -->
<g id="edge18" class="edge">
<title>j3934096545&#45;&gt;j1415821386</title>
<path fill="none" stroke="black" d="M2772.43,-1442.19C3164.73,-1431.27 3700.08,-1416.38 4115.75,-1404.81"/>
<polygon fill="black" stroke="black" points="4115.67,-1408.32 4125.57,-1404.54 4115.48,-1401.32 4115.67,-1408.32"/>
</g>
<!-- j111988895 -->
<g id="node18" class="node">
<title>j111988895</title>
<polygon fill="none" stroke="blue" points="2666.5,-1332 1347.5,-1332 1347.5,-1296 2666.5,-1296 2666.5,-1332"/>
<text text-anchor="middle" x="2007" y="-1310.3" font-family="Times New Roman,serif" font-size="14.00">ปล่อยให้มันพยายามเข้ามาแทรกกลางระหว่างเรา ช่วยข้าด้วยเถิดโซล ข้าจะจบมัน ข้าจะหาทางเอง</text>
</g>
<!-- j89803803&#45;&gt;j111988895 -->
<g id="edge19" class="edge">
<title>j89803803&#45;&gt;j111988895</title>
<path fill="none" stroke="black" d="M2160.05,-1367.52C2132.2,-1357.96 2097.5,-1346.05 2068.19,-1336"/>
<polygon fill="black" stroke="black" points="2069.68,-1332.81 2059.09,-1332.87 2067.41,-1339.43 2069.68,-1332.81"/>
</g>
<!-- j2168313240 -->
<g id="node19" class="node">
<title>j2168313240</title>
<polygon fill="none" stroke="blue" points="5123.5,-1332 4388.5,-1332 4388.5,-1296 5123.5,-1296 5123.5,-1332"/>
<text text-anchor="middle" x="4756" y="-1310.3" font-family="Times New Roman,serif" font-size="14.00">เป็นทฤษฎีที่น่าชื่นชมแต่เราก็ไม่รู้นี่ จริงไหม?</text>
</g>
<!-- j1415821386&#45;&gt;j2168313240 -->
<g id="edge20" class="edge">
<title>j1415821386&#45;&gt;j2168313240</title>
<path fill="none" stroke="black" d="M4756,-1367.7C4756,-1360.41 4756,-1351.73 4756,-1343.54"/>
<polygon fill="black" stroke="black" points="4759.5,-1343.62 4756,-1333.62 4752.5,-1343.62 4759.5,-1343.62"/>
</g>
<!-- j3737594354 -->
<g id="node20" class="node">
<title>j3737594354</title>
<polygon fill="none" stroke="blue" points="2665,-1260 1337,-1260 1337,-1224 2665,-1224 2665,-1260"/>
<text text-anchor="middle" x="2001" y="-1238.3" font-family="Times New Roman,serif" font-size="14.00">มีพลังบางอย่างในจักรวาลที่มันไม่สามารถต้านทานได้ ข้าเลือกที่จะเชื่อแบบนั้นอย่างสุดใจ</text>
</g>
<!-- j111988895&#45;&gt;j3737594354 -->
<g id="edge21" class="edge">
<title>j111988895&#45;&gt;j3737594354</title>
<path fill="none" stroke="black" d="M2005.52,-1295.7C2004.89,-1288.41 2004.15,-1279.73 2003.45,-1271.54"/>
<polygon fill="black" stroke="black" points="2006.94,-1271.28 2002.6,-1261.61 1999.96,-1271.87 2006.94,-1271.28"/>
</g>
<!-- j2871450761 -->
<g id="node21" class="node">
<title>j2871450761</title>
<polygon fill="none" stroke="blue" points="5770,-1188 3746,-1188 3746,-1152 5770,-1152 5770,-1188"/>
<text text-anchor="middle" x="4758" y="-1166.3" font-family="Times New Roman,serif" font-size="14.00">ถ้าเอ็งพูดถูก มันก็ไม่มีอะไรต้องตำหนิ แทบจะเรียกว่าเป็นการกระทำแบบเด็ก ๆ ด้วยซ้ำ ไม่สอดคล้องกับสิ่งที่เรารู้ และมันเป็นเรื่องเลวร้าย</text>
</g>
<!-- j2168313240&#45;&gt;j2871450761 -->
<g id="edge22" class="edge">
<title>j2168313240&#45;&gt;j2871450761</title>
<path fill="none" stroke="black" d="M4756.25,-1295.59C4756.58,-1271.61 4757.2,-1228.14 4757.6,-1199.42"/>
<polygon fill="black" stroke="black" points="4761.1,-1199.67 4757.74,-1189.62 4754.1,-1199.57 4761.1,-1199.67"/>
</g>
<!-- j3523485167 -->
<g id="node22" class="node">
<title>j3523485167</title>
<polygon fill="none" stroke="blue" points="2287,-1188 1511,-1188 1511,-1152 2287,-1152 2287,-1188"/>
<text text-anchor="middle" x="1899" y="-1166.3" font-family="Times New Roman,serif" font-size="14.00">ถ้ามันกลืนข้าไปทั้งตัว ข้าจะทำให้มันติดคอและสำลัก</text>
</g>
<!-- j3737594354&#45;&gt;j3523485167 -->
<g id="edge23" class="edge">
<title>j3737594354&#45;&gt;j3523485167</title>
<path fill="none" stroke="black" d="M1975.52,-1223.52C1962.77,-1214.76 1947.15,-1204.04 1933.35,-1194.58"/>
<polygon fill="black" stroke="black" points="1935.62,-1191.89 1925.4,-1189.12 1931.66,-1197.66 1935.62,-1191.89"/>
</g>
<!-- j2871450761&#45;&gt;Chat ends. -->
<g id="edge24" class="edge">
<title>j2871450761&#45;&gt;Chat ends.</title>
<path fill="none" stroke="black" d="M4758.4,-1151.51C4758.99,-1124.71 4760,-1071.87 4760,-1027 4760,-1027 4760,-1027 4760,-161 4760,-68.15 1678.04,-25.75 1201.55,-19.75"/>
<polygon fill="black" stroke="black" points="1201.7,-16.25 1191.65,-19.63 1201.61,-23.25 1201.7,-16.25"/>
</g>
<!-- j248861336 -->
<g id="node23" class="node">
<title>j248861336</title>
<polygon fill="none" stroke="red" points="1082,-1116 546,-1116 546,-1080 1082,-1080 1082,-1116"/>
<text text-anchor="middle" x="814" y="-1094.3" font-family="Times New Roman,serif" font-size="14.00">นั่นเป็นวิธีการตายที่ยอดเยี่ยมมาก</text>
</g>
<!-- j3523485167&#45;&gt;j248861336 -->
<g id="edge25" class="edge">
<title>j3523485167&#45;&gt;j248861336</title>
<path fill="none" stroke="black" d="M1628.01,-1151.52C1465.1,-1141.01 1258.19,-1127.66 1093.74,-1117.05"/>
<polygon fill="black" stroke="black" points="1094.19,-1113.57 1083.99,-1116.42 1093.74,-1120.56 1094.19,-1113.57"/>
</g>
<!-- j2183638377 -->
<g id="node24" class="node">
<title>j2183638377</title>
<polygon fill="none" stroke="red" points="2320.5,-1116 1477.5,-1116 1477.5,-1080 2320.5,-1080 2320.5,-1116"/>
<text text-anchor="middle" x="1899" y="-1094.3" font-family="Times New Roman,serif" font-size="14.00">ข้ายังไม่รู้ว่าเราจะทำยังไง แต่ก็เห็นด้วยนะ เราต้องชนะ</text>
</g>
<!-- j3523485167&#45;&gt;j2183638377 -->
<g id="edge26" class="edge">
<title>j3523485167&#45;&gt;j2183638377</title>
<path fill="none" stroke="black" d="M1899,-1151.7C1899,-1144.41 1899,-1135.73 1899,-1127.54"/>
<polygon fill="black" stroke="black" points="1902.5,-1127.62 1899,-1117.62 1895.5,-1127.62 1902.5,-1127.62"/>
</g>
<!-- j3163674639 -->
<g id="node25" class="node">
<title>j3163674639</title>
<polygon fill="none" stroke="blue" points="729,-1044 145,-1044 145,-1008 729,-1008 729,-1044"/>
<text text-anchor="middle" x="437" y="-1022.3" font-family="Times New Roman,serif" font-size="14.00">ในสถานการณ์แบบนี้ยังไงข้าก็ตายอยู่ดี</text>
</g>
<!-- j248861336&#45;&gt;j3163674639 -->
<g id="edge27" class="edge">
<title>j248861336&#45;&gt;j3163674639</title>
<path fill="none" stroke="black" d="M719.84,-1079.52C665.76,-1069.48 597.72,-1056.84 541.93,-1046.48"/>
<polygon fill="black" stroke="black" points="542.9,-1043.1 532.43,-1044.72 541.62,-1049.99 542.9,-1043.1"/>
</g>
<!-- j3015536621 -->
<g id="node26" class="node">
<title>j3015536621</title>
<polygon fill="none" stroke="blue" points="2999.5,-1044 798.5,-1044 798.5,-1008 2999.5,-1008 2999.5,-1044"/>
<text text-anchor="middle" x="1899" y="-1022.3" font-family="Times New Roman,serif" font-size="14.00">หากนี่เป็นเรื่องเล่า ก็คงคิดหากลอุบายที่แยบยลขึ้นมาได้ อาจขุดหัวใจหินของยักษ์ขึ้นมาแล้วทุบมันให้แตกด้วยขนหงส์ หรือหลอกให้มันกระโดดลงจากหน้าผา</text>
</g>
<!-- j2183638377&#45;&gt;j3015536621 -->
<g id="edge28" class="edge">
<title>j2183638377&#45;&gt;j3015536621</title>
<path fill="none" stroke="black" d="M1899,-1079.7C1899,-1072.41 1899,-1063.73 1899,-1055.54"/>
<polygon fill="black" stroke="black" points="1902.5,-1055.62 1899,-1045.62 1895.5,-1055.62 1902.5,-1055.62"/>
</g>
<!-- j3803648593 -->
<g id="node27" class="node">
<title>j3803648593</title>
<polygon fill="none" stroke="blue" points="720.5,-900 121.5,-900 121.5,-864 720.5,-864 720.5,-900"/>
<text text-anchor="middle" x="421" y="-878.3" font-family="Times New Roman,serif" font-size="14.00">แต่อย่างน้อยก็ยังได้ถุยน้ำลายใส่ตามัน</text>
</g>
<!-- j3163674639&#45;&gt;j3803648593 -->
<g id="edge29" class="edge">
<title>j3163674639&#45;&gt;j3803648593</title>
<path fill="none" stroke="black" d="M435.04,-1007.59C432.34,-983.61 427.44,-940.14 424.2,-911.42"/>
<polygon fill="black" stroke="black" points="427.7,-911.16 423.1,-901.61 420.74,-911.94 427.7,-911.16"/>
</g>
<!-- j729675574 -->
<g id="node28" class="node">
<title>j729675574</title>
<polygon fill="none" stroke="red" points="2873.5,-972 924.5,-972 924.5,-936 2873.5,-936 2873.5,-972"/>
<text text-anchor="middle" x="1899" y="-950.3" font-family="Times New Roman,serif" font-size="14.00">เจ้าบอกว่าตัวเองเป็น &quot;นักข่าว&quot; นั่นไม่ใช่เรื่องราวแบบที่เคยเล่าใช่ไหม เพราะเจ้าต้องบอกความจริง ไม่ว่าเรื่องนั้นจะแย่แค่ไหนก็ตาม</text>
</g>
<!-- j3015536621&#45;&gt;j729675574 -->
<g id="edge30" class="edge">
<title>j3015536621&#45;&gt;j729675574</title>
<path fill="none" stroke="black" d="M1899,-1007.7C1899,-1000.41 1899,-991.73 1899,-983.54"/>
<polygon fill="black" stroke="black" points="1902.5,-983.62 1899,-973.62 1895.5,-983.62 1902.5,-983.62"/>
</g>
<!-- j3803648593&#45;&gt;Chat ends. -->
<g id="edge31" class="edge">
<title>j3803648593&#45;&gt;Chat ends.</title>
<path fill="none" stroke="black" d="M245.54,-863.52C173.21,-845.64 106,-809.94 106,-739 106,-739 106,-739 106,-161 106,-62.2 856.49,-28.68 1078.71,-20.92"/>
<polygon fill="black" stroke="black" points="1078.74,-24.42 1088.62,-20.58 1078.5,-17.42 1078.74,-24.42"/>
</g>
<!-- j2577244558 -->
<g id="node29" class="node">
<title>j2577244558</title>
<polygon fill="none" stroke="blue" points="2480,-900 1318,-900 1318,-864 2480,-864 2480,-900"/>
<text text-anchor="middle" x="1899" y="-878.3" font-family="Times New Roman,serif" font-size="14.00">ถ้าเรื่องเก่า ๆ เหล่านั้นไม่บอกความจริง ผู้คนก็คงไม่เล่าเรื่องพวกนี้ต่อหรอก</text>
</g>
<!-- j729675574&#45;&gt;j2577244558 -->
<g id="edge32" class="edge">
<title>j729675574&#45;&gt;j2577244558</title>
<path fill="none" stroke="black" d="M1899,-935.7C1899,-928.41 1899,-919.73 1899,-911.54"/>
<polygon fill="black" stroke="black" points="1902.5,-911.62 1899,-901.62 1895.5,-911.62 1902.5,-911.62"/>
</g>
<!-- j2120050715 -->
<g id="node30" class="node">
<title>j2120050715</title>
<polygon fill="none" stroke="blue" points="2645.5,-828 1152.5,-828 1152.5,-792 2645.5,-792 2645.5,-828"/>
<text text-anchor="middle" x="1899" y="-806.3" font-family="Times New Roman,serif" font-size="14.00">ไม่ได้หมายความว่ายักษ์มีอยู่จริงนะ แค่หมายความว่าเรื่องราวเก่า ๆ มักจะบอกเล่าความจริงอีกแบบหนึ่ง</text>
</g>
<!-- j2577244558&#45;&gt;j2120050715 -->
<g id="edge33" class="edge">
<title>j2577244558&#45;&gt;j2120050715</title>
<path fill="none" stroke="black" d="M1899,-863.7C1899,-856.41 1899,-847.73 1899,-839.54"/>
<polygon fill="black" stroke="black" points="1902.5,-839.62 1899,-829.62 1895.5,-839.62 1902.5,-839.62"/>
</g>
<!-- j4075354781 -->
<g id="node31" class="node">
<title>j4075354781</title>
<polygon fill="none" stroke="red" points="4031.5,-756 2310.5,-756 2310.5,-720 4031.5,-720 4031.5,-756"/>
<text text-anchor="middle" x="3171" y="-734.3" font-family="Times New Roman,serif" font-size="14.00">เราจำเป็นต้องมีมากกว่านิทานถึงจะผ่านเรื่องนี้ไปให้ได้ ไม่ว่านิทานเหล่านั้นจะสร้างแรงบันดาลใจได้มากแค่ไหนก็ตาม</text>
</g>
<!-- j2120050715&#45;&gt;j4075354781 -->
<g id="edge34" class="edge">
<title>j2120050715&#45;&gt;j4075354781</title>
<path fill="none" stroke="black" d="M2216.7,-791.52C2407.26,-781.03 2649.19,-767.72 2841.77,-757.12"/>
<polygon fill="black" stroke="black" points="2841.92,-760.62 2851.71,-756.57 2841.53,-753.63 2841.92,-760.62"/>
</g>
<!-- j4285037362 -->
<g id="node32" class="node">
<title>j4285037362</title>
<polygon fill="none" stroke="red" points="2250.5,-756 749.5,-756 749.5,-720 2250.5,-720 2250.5,-756"/>
<text text-anchor="middle" x="1500" y="-734.3" font-family="Times New Roman,serif" font-size="14.00">ข้าเคยอาศัยอยู่ในอาณาจักรที่สร้างขึ้นจากเรื่องเล่า จึงรู้ดีว่าเรื่องราวเหล่านั้นมีพลังมากแค่ไหน</text>
</g>
<!-- j2120050715&#45;&gt;j4285037362 -->
<g id="edge35" class="edge">
<title>j2120050715&#45;&gt;j4285037362</title>
<path fill="none" stroke="black" d="M1799.34,-791.52C1741.99,-781.45 1669.8,-768.79 1610.68,-758.42"/>
<polygon fill="black" stroke="black" points="1611.37,-754.98 1600.91,-756.7 1610.16,-761.88 1611.37,-754.98"/>
</g>
<!-- j2742067698 -->
<g id="node33" class="node">
<title>j2742067698</title>
<polygon fill="none" stroke="blue" points="3704,-684 2802,-684 2802,-648 3704,-648 3704,-684"/>
<text text-anchor="middle" x="3253" y="-662.3" font-family="Times New Roman,serif" font-size="14.00">ข้ารู้ และหวังว่าตัวเองจะมีมากกว่าสัญชาตญาณที่จะก้าวต่อไป</text>
</g>
<!-- j4075354781&#45;&gt;j2742067698 -->
<g id="edge36" class="edge">
<title>j4075354781&#45;&gt;j2742067698</title>
<path fill="none" stroke="black" d="M3191.27,-719.7C3201.13,-711.28 3213.15,-701.02 3223.96,-691.79"/>
<polygon fill="black" stroke="black" points="3226.19,-694.48 3231.53,-685.33 3221.65,-689.16 3226.19,-694.48"/>
</g>
<!-- j72939313 -->
<g id="node34" class="node">
<title>j72939313</title>
<polygon fill="none" stroke="blue" points="2619,-684 299,-684 299,-648 2619,-648 2619,-684"/>
<text text-anchor="middle" x="1459" y="-662.3" font-family="Times New Roman,serif" font-size="14.00">ข้าคิดว่าสิ่งหนึ่งที่เรื่องเล่าเกี่ยวกับผู้ฆ่ายักษ์ทั้งหมดมีเหมือนกันก็คือ เรื่องราวเหล่านี้ล้วนเกี่ยวกับการเรียนรู้กฎและคิดหาวิธีใช้กฎอย่างชาญฉลาด</text>
</g>
<!-- j4285037362&#45;&gt;j72939313 -->
<g id="edge37" class="edge">
<title>j4285037362&#45;&gt;j72939313</title>
<path fill="none" stroke="black" d="M1489.87,-719.7C1485.3,-711.9 1479.8,-702.51 1474.71,-693.83"/>
<polygon fill="black" stroke="black" points="1477.86,-692.27 1469.78,-685.41 1471.82,-695.81 1477.86,-692.27"/>
</g>
<!-- j4062841537 -->
<g id="node35" class="node">
<title>j4062841537</title>
<polygon fill="none" stroke="blue" points="4732,-612 2432,-612 2432,-576 4732,-576 4732,-612"/>
<text text-anchor="middle" x="3582" y="-590.3" font-family="Times New Roman,serif" font-size="14.00">เรากำลังเผชิญกับบางสิ่งที่ยิ่งใหญ่ น่ากลัว และอยู่เหนือความเข้าใจของเรา โดยปกติแล้วมีแต่เด็กเท่านั้นที่ทำได้ นั่นคือเหตุผลว่าทำไมนิทานจึงยังคงมีอยู่</text>
</g>
<!-- j2742067698&#45;&gt;j4062841537 -->
<g id="edge38" class="edge">
<title>j2742067698&#45;&gt;j4062841537</title>
<path fill="none" stroke="black" d="M3335.17,-647.52C3381.88,-637.58 3440.51,-625.1 3488.91,-614.81"/>
<polygon fill="black" stroke="black" points="3489.49,-618.26 3498.54,-612.76 3488.03,-611.42 3489.49,-618.26"/>
</g>
<!-- j1992086845 -->
<g id="node36" class="node">
<title>j1992086845</title>
<polygon fill="none" stroke="blue" points="2414,-612 134,-612 134,-576 2414,-576 2414,-612"/>
<text text-anchor="middle" x="1274" y="-590.3" font-family="Times New Roman,serif" font-size="14.00">สัตว์ประหลาดบางตัวก็โง่ บางตัวก็ถูกบังคับให้ทำตามความเป็นจริง บางตัวก็มีความลับ แต่เราจะชนะไม่ได้เลยถ้าไม่รู้กฎที่ผูกมัดสัตว์ประหลาดพวกนั้นไว้อยู่</text>
</g>
<!-- j72939313&#45;&gt;j1992086845 -->
<g id="edge39" class="edge">
<title>j72939313&#45;&gt;j1992086845</title>
<path fill="none" stroke="black" d="M1412.79,-647.52C1387.87,-638.08 1356.9,-626.37 1330.54,-616.39"/>
<polygon fill="black" stroke="black" points="1331.94,-613.18 1321.35,-612.92 1329.47,-619.73 1331.94,-613.18"/>
</g>
<!-- j4213457394 -->
<g id="node37" class="node">
<title>j4213457394</title>
<polygon fill="none" stroke="red" points="1733,-540 815,-540 815,-504 1733,-504 1733,-540"/>
<text text-anchor="middle" x="1274" y="-518.3" font-family="Times New Roman,serif" font-size="14.00">มันติดอยู่ในกำแพง ข้าเองไม่แน่ใจด้วยซ้ำว่ากำแพงนั้นคืออะไร</text>
</g>
<!-- j4062841537&#45;&gt;j4213457394 -->
<g id="edge40" class="edge">
<title>j4062841537&#45;&gt;j4213457394</title>
<path fill="none" stroke="black" d="M3005.18,-575.51C2616.16,-563.71 2109.29,-548.33 1744.67,-537.28"/>
<polygon fill="black" stroke="black" points="1745,-533.78 1734.9,-536.98 1744.79,-540.78 1745,-533.78"/>
</g>
<!-- j3803120299 -->
<g id="node38" class="node">
<title>j3803120299</title>
<polygon fill="none" stroke="red" points="3059.5,-540 2200.5,-540 2200.5,-504 3059.5,-504 3059.5,-540"/>
<text text-anchor="middle" x="2630" y="-518.3" font-family="Times New Roman,serif" font-size="14.00">ข้าไม่คิดว่าความเฉยเมยจะถูกผูกมัดด้วยกฎเกณฑ์ใด ๆ หรอกนะ</text>
</g>
<!-- j4062841537&#45;&gt;j3803120299 -->
<g id="edge41" class="edge">
<title>j4062841537&#45;&gt;j3803120299</title>
<path fill="none" stroke="black" d="M3344.23,-575.52C3202.39,-565.09 3022.53,-551.86 2878.79,-541.29"/>
<polygon fill="black" stroke="black" points="2879.37,-537.83 2869.14,-540.58 2878.86,-544.81 2879.37,-537.83"/>
</g>
<!-- j1992086845&#45;&gt;j4213457394 -->
<g id="edge42" class="edge">
<title>j1992086845&#45;&gt;j4213457394</title>
<path fill="none" stroke="black" d="M1274,-575.7C1274,-568.41 1274,-559.73 1274,-551.54"/>
<polygon fill="black" stroke="black" points="1277.5,-551.62 1274,-541.62 1270.5,-551.62 1277.5,-551.62"/>
</g>
<!-- j1992086845&#45;&gt;j3803120299 -->
<g id="edge43" class="edge">
<title>j1992086845&#45;&gt;j3803120299</title>
<path fill="none" stroke="black" d="M1612.68,-575.52C1816.13,-565.01 2074.5,-551.68 2279.95,-541.07"/>
<polygon fill="black" stroke="black" points="2279.92,-544.58 2289.72,-540.57 2279.56,-537.59 2279.92,-544.58"/>
</g>
<!-- j928764453 -->
<g id="node39" class="node">
<title>j928764453</title>
<polygon fill="none" stroke="blue" points="1630.5,-468 783.5,-468 783.5,-432 1630.5,-432 1630.5,-468"/>
<text text-anchor="middle" x="1207" y="-446.3" font-family="Times New Roman,serif" font-size="14.00">ไม่สำคัญหรอก ถ้ามันติดจริง ๆ เราก็สามารถสรุปได้สองอย่าง</text>
</g>
<!-- j4213457394&#45;&gt;j928764453 -->
<g id="edge44" class="edge">
<title>j4213457394&#45;&gt;j928764453</title>
<path fill="none" stroke="black" d="M1257.44,-503.7C1249.57,-495.47 1240.01,-485.48 1231.33,-476.42"/>
<polygon fill="black" stroke="black" points="1233.86,-474 1224.42,-469.2 1228.8,-478.84 1233.86,-474"/>
</g>
<!-- j3841628084 -->
<g id="node40" class="node">
<title>j3841628084</title>
<polygon fill="none" stroke="blue" points="3381,-468 1879,-468 1879,-432 3381,-432 3381,-468"/>
<text text-anchor="middle" x="2630" y="-446.3" font-family="Times New Roman,serif" font-size="14.00">ต้องเป็นแบบนั้นสิ! แม้แต่พระเจ้าก็ยังมีกฎเลย! ไม่ว่าความเฉยเมยจะดูทรงพลังแค่ไหน มันก็ไม่ใช่พระเจ้า</text>
</g>
<!-- j3803120299&#45;&gt;j3841628084 -->
<g id="edge45" class="edge">
<title>j3803120299&#45;&gt;j3841628084</title>
<path fill="none" stroke="black" d="M2630,-503.7C2630,-496.41 2630,-487.73 2630,-479.54"/>
<polygon fill="black" stroke="black" points="2633.5,-479.62 2630,-469.62 2626.5,-479.62 2633.5,-479.62"/>
</g>
<!-- j2372557530 -->
<g id="node41" class="node">
<title>j2372557530</title>
<polygon fill="none" stroke="blue" points="1616.5,-396 663.5,-396 663.5,-360 1616.5,-360 1616.5,-396"/>
<text text-anchor="middle" x="1140" y="-374.3" font-family="Times New Roman,serif" font-size="14.00">อย่างแรก มันสามารถถูกดักจับได้ หรืออาจถึงขั้นถูกกักขังได้ด้วย</text>
</g>
<!-- j928764453&#45;&gt;j2372557530 -->
<g id="edge46" class="edge">
<title>j928764453&#45;&gt;j2372557530</title>
<path fill="none" stroke="black" d="M1190.44,-431.7C1182.57,-423.47 1173.01,-413.48 1164.33,-404.42"/>
<polygon fill="black" stroke="black" points="1166.86,-402 1157.42,-397.2 1161.8,-406.84 1166.86,-402"/>
</g>
<!-- j3396530388 -->
<g id="node42" class="node">
<title>j3396530388</title>
<polygon fill="none" stroke="blue" points="3625,-396 1635,-396 1635,-360 3625,-360 3625,-396"/>
<text text-anchor="middle" x="2630" y="-374.3" font-family="Times New Roman,serif" font-size="14.00">เอ็งเอาชนะ Thrax มาได้ ไม่สำคัญหรอกว่าจะล้มเหลวกี่ครั้งและพ่ายแพ้กี่หน แต่ก็เอาชนะได้แล้ว ทำไมถึงจะชนะชายผู้อยู่ในกำแพงไม่ได้ด้วยล่ะ</text>
</g>
<!-- j3841628084&#45;&gt;j3396530388 -->
<g id="edge47" class="edge">
<title>j3841628084&#45;&gt;j3396530388</title>
<path fill="none" stroke="black" d="M2630,-431.7C2630,-424.41 2630,-415.73 2630,-407.54"/>
<polygon fill="black" stroke="black" points="2633.5,-407.62 2630,-397.62 2626.5,-407.62 2633.5,-407.62"/>
</g>
<!-- j3636438094 -->
<g id="node43" class="node">
<title>j3636438094</title>
<ellipse fill="none" stroke="orange" cx="1140" cy="-306" rx="64.19" ry="18"/>
<text text-anchor="middle" x="1140" y="-302.3" font-family="Times New Roman,serif" font-size="14.00">+15 Chemistry</text>
</g>
<!-- j2372557530&#45;&gt;j3636438094 -->
<g id="edge48" class="edge">
<title>j2372557530&#45;&gt;j3636438094</title>
<path fill="none" stroke="black" d="M1140,-359.7C1140,-352.41 1140,-343.73 1140,-335.54"/>
<polygon fill="black" stroke="black" points="1143.5,-335.62 1140,-325.62 1136.5,-335.62 1143.5,-335.62"/>
</g>
<!-- j112753705 -->
<g id="node44" class="node">
<title>j112753705</title>
<polygon fill="none" stroke="red" points="2818.5,-324 2173.5,-324 2173.5,-288 2818.5,-288 2818.5,-324"/>
<text text-anchor="middle" x="2496" y="-302.3" font-family="Times New Roman,serif" font-size="14.00">เจ้าเลิกกลัวมันไปตั้งแต่เมื่อไหร่หรือ Eleanor</text>
</g>
<!-- j3396530388&#45;&gt;j112753705 -->
<g id="edge49" class="edge">
<title>j3396530388&#45;&gt;j112753705</title>
<path fill="none" stroke="black" d="M2596.53,-359.52C2579.13,-350.43 2557.67,-339.22 2539.05,-329.49"/>
<polygon fill="black" stroke="black" points="2540.87,-326.49 2530.38,-324.96 2537.63,-332.69 2540.87,-326.49"/>
</g>
<!-- j665001642 -->
<g id="node45" class="node">
<title>j665001642</title>
<polygon fill="none" stroke="blue" points="2012.5,-180 267.5,-180 267.5,-144 2012.5,-144 2012.5,-180"/>
<text text-anchor="middle" x="1140" y="-158.3" font-family="Times New Roman,serif" font-size="14.00">และอย่างที่สอง มันต้องการบางอย่างและต้องการออกมา หากเรารู้ว่ามันต้องการอะไร ก็เท่ากับว่าเรานำหน้าไปหนึ่งก้าวแล้ว</text>
</g>
<!-- j3636438094&#45;&gt;j665001642 -->
<g id="edge50" class="edge">
<title>j3636438094&#45;&gt;j665001642</title>
<path fill="none" stroke="black" d="M1140,-287.59C1140,-263.61 1140,-220.14 1140,-191.42"/>
<polygon fill="black" stroke="black" points="1143.5,-191.62 1140,-181.62 1136.5,-191.62 1143.5,-191.62"/>
</g>
<!-- j3665114921 -->
<g id="node46" class="node">
<title>j3665114921</title>
<polygon fill="none" stroke="blue" points="2402.5,-252 2055.5,-252 2055.5,-216 2402.5,-216 2402.5,-252"/>
<text text-anchor="middle" x="2229" y="-230.3" font-family="Times New Roman,serif" font-size="14.00">ไม่ได้เลิกกลัวมันหรอก</text>
</g>
<!-- j112753705&#45;&gt;j3665114921 -->
<g id="edge51" class="edge">
<title>j112753705&#45;&gt;j3665114921</title>
<path fill="none" stroke="black" d="M2429.31,-287.52C2391.98,-277.73 2345.25,-265.48 2306.32,-255.27"/>
<polygon fill="black" stroke="black" points="2307.32,-251.92 2296.76,-252.77 2305.55,-258.69 2307.32,-251.92"/>
</g>
<!-- j665001642&#45;&gt;Chat ends. -->
<g id="edge52" class="edge">
<title>j665001642&#45;&gt;Chat ends.</title>
<path fill="none" stroke="black" d="M1140,-143.59C1140,-119.61 1140,-76.14 1140,-47.42"/>
<polygon fill="black" stroke="black" points="1143.5,-47.62 1140,-37.62 1136.5,-47.62 1143.5,-47.62"/>
</g>
<!-- j3211441082 -->
<g id="node47" class="node">
<title>j3211441082</title>
<ellipse fill="none" stroke="orange" cx="2162" cy="-162" rx="64.19" ry="18"/>
<text text-anchor="middle" x="2162" y="-158.3" font-family="Times New Roman,serif" font-size="14.00">+20 Chemistry</text>
</g>
<!-- j3665114921&#45;&gt;j3211441082 -->
<g id="edge53" class="edge">
<title>j3665114921&#45;&gt;j3211441082</title>
<path fill="none" stroke="black" d="M2212.44,-215.7C2204.37,-207.27 2194.52,-196.97 2185.67,-187.73"/>
<polygon fill="black" stroke="black" points="2188.4,-185.52 2178.96,-180.72 2183.34,-190.36 2188.4,-185.52"/>
</g>
<!-- j2102274655 -->
<g id="node48" class="node">
<title>j2102274655</title>
<polygon fill="none" stroke="blue" points="1931,-108 1265,-108 1265,-72 1931,-72 1931,-108"/>
<text text-anchor="middle" x="1598" y="-86.3" font-family="Times New Roman,serif" font-size="14.00">แค่กลัวที่จะสูญเสียเอ็งไปมากกว่า เข้าใจไหม</text>
</g>
<!-- j3211441082&#45;&gt;j2102274655 -->
<g id="edge54" class="edge">
<title>j3211441082&#45;&gt;j2102274655</title>
<path fill="none" stroke="black" d="M2104.03,-153.81C2021.38,-143.55 1866.79,-124.36 1750.13,-109.88"/>
<polygon fill="black" stroke="black" points="1750.82,-106.44 1740.46,-108.68 1749.95,-113.39 1750.82,-106.44"/>
</g>
<!-- j2102274655&#45;&gt;Chat ends. -->
<g id="edge55" class="edge">
<title>j2102274655&#45;&gt;Chat ends.</title>
<path fill="none" stroke="black" d="M1483.61,-71.52C1392.19,-57.54 1267.94,-38.55 1196.62,-27.65"/>
<polygon fill="black" stroke="black" points="1197.55,-24.26 1187.14,-26.2 1196.5,-31.18 1197.55,-24.26"/>
</g>
</g>
</svg>
