<?xml version="1.0" encoding="UTF-8" standalone="no"?>
<!DOCTYPE svg PUBLIC "-//W3C//DTD SVG 1.1//EN"
 "http://www.w3.org/Graphics/SVG/1.1/DTD/svg11.dtd">
<!-- Generated by graphviz version 7.1.0 (20230121.1956)
 -->
<!-- Pages: 1 -->
<svg width="9561pt" height="1556pt"
 viewBox="0.00 0.00 9560.50 1556.00" xmlns="http://www.w3.org/2000/svg" xmlns:xlink="http://www.w3.org/1999/xlink">
<g id="graph0" class="graph" transform="scale(1 1) rotate(0) translate(4 1552)">
<polygon fill="white" stroke="none" points="-4,4 -4,-1552 9556.5,-1552 9556.5,4 -4,4"/>
<!-- EleanorRank4Convo1 begins. -->
<g id="node1" class="node">
<title>EleanorRank4Convo1 begins.</title>
<ellipse fill="none" stroke="orange" cx="6895" cy="-1530" rx="118.88" ry="18"/>
<text text-anchor="middle" x="6895" y="-1526.3" font-family="Times New Roman,serif" font-size="14.00">EleanorRank4Convo1 begins.</text>
</g>
<!-- j2678674994 -->
<g id="node2" class="node">
<title>j2678674994</title>
<polygon fill="none" stroke="blue" points="7950.5,-1476 5839.5,-1476 5839.5,-1440 7950.5,-1440 7950.5,-1476"/>
<text text-anchor="middle" x="6895" y="-1454.3" font-family="Times New Roman,serif" font-size="14.00">มีเรื่องอยากจะถามบางอย่างซึ่งอาจจะไม่ชอบใจนัก แต่คิดว่าลึก ๆ คงรู้อยู่แล้วว่าการสนทนาแบบนี้จะต้องเกิดขึ้นสักวัน เมื่อดูจากสภาพที่ข้าเป็น</text>
</g>
<!-- EleanorRank4Convo1 begins.&#45;&gt;j2678674994 -->
<g id="edge1" class="edge">
<title>EleanorRank4Convo1 begins.&#45;&gt;j2678674994</title>
<path fill="none" stroke="black" d="M6895,-1511.7C6895,-1504.41 6895,-1495.73 6895,-1487.54"/>
<polygon fill="black" stroke="black" points="6898.5,-1487.62 6895,-1477.62 6891.5,-1487.62 6898.5,-1487.62"/>
</g>
<!-- j4019066372 -->
<g id="node3" class="node">
<title>j4019066372</title>
<polygon fill="none" stroke="blue" points="7348,-1404 6442,-1404 6442,-1368 7348,-1368 7348,-1404"/>
<text text-anchor="middle" x="6895" y="-1382.3" font-family="Times New Roman,serif" font-size="14.00">ข้าไว้ใจแล้วก็ชอบเอ็ง ดังนั้นจะพูดออกไปเลยก็แล้วกัน โอเคนะ</text>
</g>
<!-- j2678674994&#45;&gt;j4019066372 -->
<g id="edge2" class="edge">
<title>j2678674994&#45;&gt;j4019066372</title>
<path fill="none" stroke="black" d="M6895,-1439.7C6895,-1432.41 6895,-1423.73 6895,-1415.54"/>
<polygon fill="black" stroke="black" points="6898.5,-1415.62 6895,-1405.62 6891.5,-1415.62 6898.5,-1415.62"/>
</g>
<!-- j4205004714 -->
<g id="node4" class="node">
<title>j4205004714</title>
<polygon fill="none" stroke="blue" points="7247.5,-1332 6542.5,-1332 6542.5,-1296 7247.5,-1296 7247.5,-1332"/>
<text text-anchor="middle" x="6895" y="-1310.3" font-family="Times New Roman,serif" font-size="14.00">จริง ๆ แล้วก็รู้ว่าไม่มีสิทธิ์ถาม แต่ก็อยากรู้</text>
</g>
<!-- j4019066372&#45;&gt;j4205004714 -->
<g id="edge3" class="edge">
<title>j4019066372&#45;&gt;j4205004714</title>
<path fill="none" stroke="black" d="M6895,-1367.7C6895,-1360.41 6895,-1351.73 6895,-1343.54"/>
<polygon fill="black" stroke="black" points="6898.5,-1343.62 6895,-1333.62 6891.5,-1343.62 6898.5,-1343.62"/>
</g>
<!-- j860347718 -->
<g id="node5" class="node">
<title>j860347718</title>
<polygon fill="none" stroke="blue" points="7483.5,-1260 6306.5,-1260 6306.5,-1224 7483.5,-1224 7483.5,-1260"/>
<text text-anchor="middle" x="6895" y="-1238.3" font-family="Times New Roman,serif" font-size="14.00">ถ้าข้าเปลี่ยนเป็น Techrot เต็มตัวและไม่ใช่ Eleanor ที่เอ็งรู้จักอีกแล้ว คิดจะฆ่าข้าไหม</text>
</g>
<!-- j4205004714&#45;&gt;j860347718 -->
<g id="edge4" class="edge">
<title>j4205004714&#45;&gt;j860347718</title>
<path fill="none" stroke="black" d="M6895,-1295.7C6895,-1288.41 6895,-1279.73 6895,-1271.54"/>
<polygon fill="black" stroke="black" points="6898.5,-1271.62 6895,-1261.62 6891.5,-1271.62 6898.5,-1271.62"/>
</g>
<!-- j1798063168 -->
<g id="node6" class="node">
<title>j1798063168</title>
<polygon fill="none" stroke="red" points="6233,-1188 5933,-1188 5933,-1152 6233,-1152 6233,-1188"/>
<text text-anchor="middle" x="6083" y="-1166.3" font-family="Times New Roman,serif" font-size="14.00">อยากให้ทำหรือเปล่า</text>
</g>
<!-- j860347718&#45;&gt;j1798063168 -->
<g id="edge5" class="edge">
<title>j860347718&#45;&gt;j1798063168</title>
<path fill="none" stroke="black" d="M6692.19,-1223.52C6553.78,-1211.58 6372.91,-1195.99 6244.3,-1184.9"/>
<polygon fill="black" stroke="black" points="6244.96,-1181.45 6234.69,-1184.08 6244.36,-1188.42 6244.96,-1181.45"/>
</g>
<!-- j4290200776 -->
<g id="node7" class="node">
<title>j4290200776</title>
<polygon fill="none" stroke="red" points="7169.5,-1188 7058.5,-1188 7058.5,-1152 7169.5,-1152 7169.5,-1188"/>
<text text-anchor="middle" x="7114" y="-1166.3" font-family="Times New Roman,serif" font-size="14.00">แน่นอน</text>
</g>
<!-- j860347718&#45;&gt;j4290200776 -->
<g id="edge6" class="edge">
<title>j860347718&#45;&gt;j4290200776</title>
<path fill="none" stroke="black" d="M6949.7,-1223.52C6979.73,-1213.92 7017.17,-1201.95 7048.73,-1191.86"/>
<polygon fill="black" stroke="black" points="7049.72,-1195.22 7058.18,-1188.84 7047.59,-1188.55 7049.72,-1195.22"/>
</g>
<!-- j1485539849 -->
<g id="node8" class="node">
<title>j1485539849</title>
<polygon fill="none" stroke="red" points="6894.5,-1188 6751.5,-1188 6751.5,-1152 6894.5,-1152 6894.5,-1188"/>
<text text-anchor="middle" x="6823" y="-1166.3" font-family="Times New Roman,serif" font-size="14.00">ไม่มีทาง</text>
</g>
<!-- j860347718&#45;&gt;j1485539849 -->
<g id="edge7" class="edge">
<title>j860347718&#45;&gt;j1485539849</title>
<path fill="none" stroke="black" d="M6877.2,-1223.7C6868.72,-1215.45 6858.41,-1205.43 6849.07,-1196.35"/>
<polygon fill="black" stroke="black" points="6851.54,-1193.86 6841.93,-1189.4 6846.66,-1198.88 6851.54,-1193.86"/>
</g>
<!-- j3318063535 -->
<g id="node9" class="node">
<title>j3318063535</title>
<polygon fill="none" stroke="red" points="7545,-1188 7261,-1188 7261,-1152 7545,-1152 7545,-1188"/>
<text text-anchor="middle" x="7403" y="-1166.3" font-family="Times New Roman,serif" font-size="14.00">ไม่ขอตอบคำถามนั้น</text>
</g>
<!-- j860347718&#45;&gt;j3318063535 -->
<g id="edge8" class="edge">
<title>j860347718&#45;&gt;j3318063535</title>
<path fill="none" stroke="black" d="M7021.88,-1223.52C7095.97,-1213.31 7189.5,-1200.42 7265.36,-1189.97"/>
<polygon fill="black" stroke="black" points="7265.49,-1193.48 7274.92,-1188.65 7264.53,-1186.55 7265.49,-1193.48"/>
</g>
<!-- j4202608617 -->
<g id="node10" class="node">
<title>j4202608617</title>
<polygon fill="none" stroke="blue" points="6592,-1116 4280,-1116 4280,-1080 6592,-1080 6592,-1116"/>
<text text-anchor="middle" x="5436" y="-1094.3" font-family="Times New Roman,serif" font-size="14.00">อืม เริ่มต้นได้ดี เริ่มจากถามในสิ่งที่ข้าต้องการแทนที่จะมองชีวิตนี้เป็นโอกาสในการแสดงออกถึงคุณธรรมส่วนตัว ทำให้ข้ารู้ว่านี่ไม่ใช่เรื่องเกี่ยวกับเอ็ง</text>
</g>
<!-- j1798063168&#45;&gt;j4202608617 -->
<g id="edge9" class="edge">
<title>j1798063168&#45;&gt;j4202608617</title>
<path fill="none" stroke="black" d="M5932.53,-1152.72C5835.73,-1142.25 5709.63,-1128.6 5608.74,-1117.69"/>
<polygon fill="black" stroke="black" points="5609.33,-1114.23 5599.01,-1116.64 5608.57,-1121.19 5609.33,-1114.23"/>
</g>
<!-- j3355501580 -->
<g id="node11" class="node">
<title>j3355501580</title>
<polygon fill="none" stroke="blue" points="7393,-1116 7247,-1116 7247,-1080 7393,-1080 7393,-1116"/>
<text text-anchor="middle" x="7320" y="-1094.3" font-family="Times New Roman,serif" font-size="14.00">ว้าว โอเค</text>
</g>
<!-- j4290200776&#45;&gt;j3355501580 -->
<g id="edge10" class="edge">
<title>j4290200776&#45;&gt;j3355501580</title>
<path fill="none" stroke="black" d="M7165.45,-1151.52C7193.58,-1141.96 7228.61,-1130.05 7258.21,-1120"/>
<polygon fill="black" stroke="black" points="7259.07,-1123.4 7267.42,-1116.87 7256.82,-1116.77 7259.07,-1123.4"/>
</g>
<!-- j3105919999 -->
<g id="node12" class="node">
<title>j3105919999</title>
<polygon fill="none" stroke="blue" points="6752.5,-1116 6621.5,-1116 6621.5,-1080 6752.5,-1080 6752.5,-1116"/>
<text text-anchor="middle" x="6687" y="-1094.3" font-family="Times New Roman,serif" font-size="14.00">โอเค อืม</text>
</g>
<!-- j1485539849&#45;&gt;j3105919999 -->
<g id="edge11" class="edge">
<title>j1485539849&#45;&gt;j3105919999</title>
<path fill="none" stroke="black" d="M6789.03,-1151.52C6771.37,-1142.43 6749.59,-1131.22 6730.69,-1121.49"/>
<polygon fill="black" stroke="black" points="6732.37,-1118.42 6721.88,-1116.95 6729.17,-1124.64 6732.37,-1118.42"/>
</g>
<!-- j4283158360 -->
<g id="node13" class="node">
<title>j4283158360</title>
<polygon fill="none" stroke="blue" points="7775,-1116 7617,-1116 7617,-1080 7775,-1080 7775,-1116"/>
<text text-anchor="middle" x="7696" y="-1094.3" font-family="Times New Roman,serif" font-size="14.00">ตามใจเถอะ</text>
</g>
<!-- j3318063535&#45;&gt;j4283158360 -->
<g id="edge12" class="edge">
<title>j3318063535&#45;&gt;j4283158360</title>
<path fill="none" stroke="black" d="M7476.18,-1151.52C7517.42,-1141.66 7569.11,-1129.31 7612,-1119.07"/>
<polygon fill="black" stroke="black" points="7612.61,-1122.52 7621.52,-1116.79 7610.98,-1115.71 7612.61,-1122.52"/>
</g>
<!-- j2026215711 -->
<g id="node14" class="node">
<title>j2026215711</title>
<polygon fill="none" stroke="blue" points="5477.5,-1044 5350.5,-1044 5350.5,-1008 5477.5,-1008 5477.5,-1044"/>
<text text-anchor="middle" x="5414" y="-1022.3" font-family="Times New Roman,serif" font-size="14.00">หายากนะ</text>
</g>
<!-- j4202608617&#45;&gt;j2026215711 -->
<g id="edge13" class="edge">
<title>j4202608617&#45;&gt;j2026215711</title>
<path fill="none" stroke="black" d="M5430.56,-1079.7C5428.22,-1072.24 5425.42,-1063.32 5422.79,-1054.97"/>
<polygon fill="black" stroke="black" points="5426.17,-1054.04 5419.83,-1045.55 5419.49,-1056.14 5426.17,-1054.04"/>
</g>
<!-- j3441549741 -->
<g id="node15" class="node">
<title>j3441549741</title>
<polygon fill="none" stroke="blue" points="7722,-1044 7190,-1044 7190,-1008 7722,-1008 7722,-1044"/>
<text text-anchor="middle" x="7456" y="-1022.3" font-family="Times New Roman,serif" font-size="14.00">ไม่ลังเล ไม่ลำบากใจ แค่ตอบแบบสบาย ๆ</text>
</g>
<!-- j3355501580&#45;&gt;j3441549741 -->
<g id="edge14" class="edge">
<title>j3355501580&#45;&gt;j3441549741</title>
<path fill="none" stroke="black" d="M7353.97,-1079.52C7371.63,-1070.43 7393.41,-1059.22 7412.31,-1049.49"/>
<polygon fill="black" stroke="black" points="7413.83,-1052.64 7421.12,-1044.95 7410.63,-1046.42 7413.83,-1052.64"/>
</g>
<!-- j2859772252 -->
<g id="node16" class="node">
<title>j2859772252</title>
<polygon fill="none" stroke="blue" points="6907.5,-1044 5922.5,-1044 5922.5,-1008 6907.5,-1008 6907.5,-1044"/>
<text text-anchor="middle" x="6415" y="-1022.3" font-family="Times New Roman,serif" font-size="14.00">ขอโทษนะ รู้สึกตื่นเต้นนิดหน่อย ไม่คิดว่าจะพูดตรงไปตรงมาขนาดนั้น</text>
</g>
<!-- j3105919999&#45;&gt;j2859772252 -->
<g id="edge15" class="edge">
<title>j3105919999&#45;&gt;j2859772252</title>
<path fill="none" stroke="black" d="M6621.16,-1080.05C6582.7,-1070.16 6533.95,-1057.61 6493.5,-1047.2"/>
<polygon fill="black" stroke="black" points="6494.62,-1043.88 6484.07,-1044.77 6492.88,-1050.66 6494.62,-1043.88"/>
</g>
<!-- j643817195 -->
<g id="node17" class="node">
<title>j643817195</title>
<polygon fill="none" stroke="blue" points="8653.5,-1044 8400.5,-1044 8400.5,-1008 8653.5,-1008 8653.5,-1044"/>
<text text-anchor="middle" x="8527" y="-1022.3" font-family="Times New Roman,serif" font-size="14.00">จะไม่ถามอีกแล้ว</text>
</g>
<!-- j4283158360&#45;&gt;j643817195 -->
<g id="edge16" class="edge">
<title>j4283158360&#45;&gt;j643817195</title>
<path fill="none" stroke="black" d="M7775.3,-1090.32C7916.53,-1078.42 8213.19,-1053.43 8388.65,-1038.65"/>
<polygon fill="black" stroke="black" points="8388.85,-1042.15 8398.52,-1037.82 8388.26,-1035.17 8388.85,-1042.15"/>
</g>
<!-- j4223274640 -->
<g id="node18" class="node">
<title>j4223274640</title>
<polygon fill="none" stroke="blue" points="5298.5,-972 3435.5,-972 3435.5,-936 5298.5,-936 5298.5,-972"/>
<text text-anchor="middle" x="4367" y="-950.3" font-family="Times New Roman,serif" font-size="14.00">น่าเสียดายที่มันไม่ได้ช่วยให้เราหลุดพ้นจากภาวะที่กลืนไม่เข้าคายไม่ออกได้ เพราะนั่นหมายความว่าข้าจะไม่มีวันเปลี่ยนใจได้</text>
</g>
<!-- j2026215711&#45;&gt;j4223274640 -->
<g id="edge17" class="edge">
<title>j2026215711&#45;&gt;j4223274640</title>
<path fill="none" stroke="black" d="M5350.08,-1020.73C5212.25,-1011.51 4880.13,-989.31 4640.01,-973.25"/>
<polygon fill="black" stroke="black" points="4640.37,-969.77 4630.16,-972.59 4639.9,-976.75 4640.37,-969.77"/>
</g>
<!-- j468759745 -->
<g id="node19" class="node">
<title>j468759745</title>
<polygon fill="none" stroke="blue" points="8541,-972 6635,-972 6635,-936 8541,-936 8541,-972"/>
<text text-anchor="middle" x="7588" y="-950.3" font-family="Times New Roman,serif" font-size="14.00">ขอบใจนะที่เป็นปริศนาในหลาย ๆ ด้าน แต่ตอนนี้รู้แล้วว่าเอ็งเต็มใจที่จะยิงกระสุนทะลุหัวข้า และสิ่งนั้นมีความสำคัญมากในที่ทำงาน</text>
</g>
<!-- j3441549741&#45;&gt;j468759745 -->
<g id="edge18" class="edge">
<title>j3441549741&#45;&gt;j468759745</title>
<path fill="none" stroke="black" d="M7488.97,-1007.52C7506.03,-998.47 7527.05,-987.32 7545.34,-977.62"/>
<polygon fill="black" stroke="black" points="7546.92,-980.75 7554.11,-972.97 7543.64,-974.56 7546.92,-980.75"/>
</g>
<!-- j752093226 -->
<g id="node20" class="node">
<title>j752093226</title>
<polygon fill="none" stroke="blue" points="6617,-972 5949,-972 5949,-936 6617,-936 6617,-972"/>
<text text-anchor="middle" x="6283" y="-950.3" font-family="Times New Roman,serif" font-size="14.00">เอ็งจะปล่อยให้สัตว์ประหลาดมีชีวิตอยู่เหรอ?</text>
</g>
<!-- j2859772252&#45;&gt;j752093226 -->
<g id="edge19" class="edge">
<title>j2859772252&#45;&gt;j752093226</title>
<path fill="none" stroke="black" d="M6382.03,-1007.52C6364.97,-998.47 6343.95,-987.32 6325.66,-977.62"/>
<polygon fill="black" stroke="black" points="6327.36,-974.56 6316.89,-972.97 6324.08,-980.75 6327.36,-974.56"/>
</g>
<!-- j1699895838 -->
<g id="node21" class="node">
<title>j1699895838</title>
<polygon fill="none" stroke="blue" points="9552.5,-972 8559.5,-972 8559.5,-936 9552.5,-936 9552.5,-972"/>
<text text-anchor="middle" x="9056" y="-950.3" font-family="Times New Roman,serif" font-size="14.00">เราคงต้องรอจนกว่ามันจะเกิดขึ้นเพื่อดูว่าเอ็งจะตอบสนองยังไงสินะ</text>
</g>
<!-- j643817195&#45;&gt;j1699895838 -->
<g id="edge20" class="edge">
<title>j643817195&#45;&gt;j1699895838</title>
<path fill="none" stroke="black" d="M8653.71,-1008.23C8731.65,-997.92 8831.75,-984.67 8912.6,-973.98"/>
<polygon fill="black" stroke="black" points="8912.92,-977.46 8922.37,-972.68 8912,-970.52 8912.92,-977.46"/>
</g>
<!-- j1738557875 -->
<g id="node22" class="node">
<title>j1738557875</title>
<polygon fill="none" stroke="blue" points="4842.5,-900 2611.5,-900 2611.5,-864 4842.5,-864 4842.5,-900"/>
<text text-anchor="middle" x="3727" y="-878.3" font-family="Times New Roman,serif" font-size="14.00">สมมติบอกว่าใช่ อยากให้จบชีวิตข้าอย่างรวดเร็วและเฉียบขาดมากกว่าที่จะปล่อยให้ใช้ชีวิตต่อไปอย่างบ้าคลั่ง สมมติว่านั่นคือสิ่งที่ Eleanor ต้องการในตอนนี้</text>
</g>
<!-- j4223274640&#45;&gt;j1738557875 -->
<g id="edge21" class="edge">
<title>j4223274640&#45;&gt;j1738557875</title>
<path fill="none" stroke="black" d="M4207.15,-935.52C4113.04,-925.22 3994.03,-912.21 3898.04,-901.71"/>
<polygon fill="black" stroke="black" points="3898.58,-898.25 3888.26,-900.64 3897.82,-905.2 3898.58,-898.25"/>
</g>
<!-- j2347067316 -->
<g id="node23" class="node">
<title>j2347067316</title>
<polygon fill="none" stroke="blue" points="8518.5,-900 7725.5,-900 7725.5,-864 8518.5,-864 8518.5,-900"/>
<text text-anchor="middle" x="8122" y="-878.3" font-family="Times New Roman,serif" font-size="14.00">แล้วเริ่มรู้สึกว่า Techrot ในตัวรู้สึกวิตกกังวลเล็กน้อย</text>
</g>
<!-- j468759745&#45;&gt;j2347067316 -->
<g id="edge22" class="edge">
<title>j468759745&#45;&gt;j2347067316</title>
<path fill="none" stroke="black" d="M7721.37,-935.52C7799.41,-925.29 7897.97,-912.37 7977.8,-901.9"/>
<polygon fill="black" stroke="black" points="7977.98,-905.41 7987.44,-900.64 7977.07,-898.47 7977.98,-905.41"/>
</g>
<!-- j1461152314 -->
<g id="node24" class="node">
<title>j1461152314</title>
<polygon fill="none" stroke="blue" points="7707,-900 4861,-900 4861,-864 7707,-864 7707,-900"/>
<text text-anchor="middle" x="6284" y="-878.3" font-family="Times New Roman,serif" font-size="14.00">ขอโทษ ขอโทษ เป็นเพราะใช้ชีวิตทุกวันกับ Lettie ที่คอยบ่นพึมพำว่าข้าไม่สมควรอยู่ที่นี่ และ Arthur ก็มองราวกับว่าคงหมดหนทางช่วยแล้ว และนับวันที่เขาจะต้องทำแบบนั้น และก็ไม่คาดว่าเอ็งจะพูดแบบนั้น โอเค</text>
</g>
<!-- j752093226&#45;&gt;j1461152314 -->
<g id="edge23" class="edge">
<title>j752093226&#45;&gt;j1461152314</title>
<path fill="none" stroke="black" d="M6283.25,-935.7C6283.35,-928.41 6283.48,-919.73 6283.59,-911.54"/>
<polygon fill="black" stroke="black" points="6287.09,-911.67 6283.73,-901.62 6280.09,-911.57 6287.09,-911.67"/>
</g>
<!-- j1023016213 -->
<g id="node25" class="node">
<title>j1023016213</title>
<polygon fill="none" stroke="blue" points="9306.5,-900 8801.5,-900 8801.5,-864 9306.5,-864 9306.5,-900"/>
<text text-anchor="middle" x="9054" y="-878.3" font-family="Times New Roman,serif" font-size="14.00">เอ็งเป็นปริศนาตัวน้อยที่อันตราย</text>
</g>
<!-- j1699895838&#45;&gt;j1023016213 -->
<g id="edge24" class="edge">
<title>j1699895838&#45;&gt;j1023016213</title>
<path fill="none" stroke="black" d="M9055.51,-935.7C9055.3,-928.41 9055.05,-919.73 9054.82,-911.54"/>
<polygon fill="black" stroke="black" points="9058.32,-911.51 9054.53,-901.62 9051.32,-911.71 9058.32,-911.51"/>
</g>
<!-- j804331467 -->
<g id="node26" class="node">
<title>j804331467</title>
<polygon fill="none" stroke="blue" points="4985,-828 2571,-828 2571,-792 4985,-792 4985,-828"/>
<text text-anchor="middle" x="3778" y="-806.3" font-family="Times New Roman,serif" font-size="14.00">แต่จะเกิดอะไรขึ้นถ้าคนที่บ้าคลั่งสุด ๆ คือตัวข้าเอง แถมยังเป็นยิ่งกว่านั้นเสียอีก จะเกิดอะไรขึ้นหากความเป็นมนุษย์ถูกเผาไหม้ในเบ้าหลอมของ Techrot แต่ข้าไม่อยากตาย</text>
</g>
<!-- j1738557875&#45;&gt;j804331467 -->
<g id="edge25" class="edge">
<title>j1738557875&#45;&gt;j804331467</title>
<path fill="none" stroke="black" d="M3739.61,-863.7C3745.41,-855.73 3752.43,-846.1 3758.86,-837.26"/>
<polygon fill="black" stroke="black" points="3761.59,-839.47 3764.65,-829.33 3755.93,-835.35 3761.59,-839.47"/>
</g>
<!-- j591833134 -->
<g id="node27" class="node">
<title>j591833134</title>
<polygon fill="none" stroke="blue" points="8912,-828 7332,-828 7332,-792 8912,-792 8912,-828"/>
<text text-anchor="middle" x="8122" y="-806.3" font-family="Times New Roman,serif" font-size="14.00">คิดว่าจากนี้ไปมันคงจะทำตัวดีขึ้นบ้าง ไม่มีอะไรจะดีไปกว่าการขู่โฮสต์เพื่อให้ปรสิตกลัวโซลอีกแล้วใช่ไหม</text>
</g>
<!-- j2347067316&#45;&gt;j591833134 -->
<g id="edge26" class="edge">
<title>j2347067316&#45;&gt;j591833134</title>
<path fill="none" stroke="black" d="M8122,-863.7C8122,-856.41 8122,-847.73 8122,-839.54"/>
<polygon fill="black" stroke="black" points="8125.5,-839.62 8122,-829.62 8118.5,-839.62 8125.5,-839.62"/>
</g>
<!-- j1460618958 -->
<g id="node28" class="node">
<title>j1460618958</title>
<ellipse fill="none" stroke="orange" cx="6284" cy="-810" rx="64.19" ry="18"/>
<text text-anchor="middle" x="6284" y="-806.3" font-family="Times New Roman,serif" font-size="14.00">+20 Chemistry</text>
</g>
<!-- j1461152314&#45;&gt;j1460618958 -->
<g id="edge27" class="edge">
<title>j1461152314&#45;&gt;j1460618958</title>
<path fill="none" stroke="black" d="M6284,-863.7C6284,-856.41 6284,-847.73 6284,-839.54"/>
<polygon fill="black" stroke="black" points="6287.5,-839.62 6284,-829.62 6280.5,-839.62 6287.5,-839.62"/>
</g>
<!-- j2815503847 -->
<g id="node29" class="node">
<title>j2815503847</title>
<polygon fill="none" stroke="blue" points="9171.5,-828 8934.5,-828 8934.5,-792 9171.5,-792 9171.5,-828"/>
<text text-anchor="middle" x="9053" y="-806.3" font-family="Times New Roman,serif" font-size="14.00">ข้าก็เหมือนกัน</text>
</g>
<!-- j1023016213&#45;&gt;j2815503847 -->
<g id="edge28" class="edge">
<title>j1023016213&#45;&gt;j2815503847</title>
<path fill="none" stroke="black" d="M9053.75,-863.7C9053.65,-856.41 9053.52,-847.73 9053.41,-839.54"/>
<polygon fill="black" stroke="black" points="9056.91,-839.57 9053.27,-829.62 9049.91,-839.67 9056.91,-839.57"/>
</g>
<!-- j533228514 -->
<g id="node30" class="node">
<title>j533228514</title>
<polygon fill="none" stroke="blue" points="4302.5,-756 3459.5,-756 3459.5,-720 4302.5,-720 4302.5,-756"/>
<text text-anchor="middle" x="3881" y="-734.3" font-family="Times New Roman,serif" font-size="14.00">เพราะมันทำให้รู้สึกมีชีวิต ดริฟเตอร์ มีชีวิตที่ทรงพลัง</text>
</g>
<!-- j804331467&#45;&gt;j533228514 -->
<g id="edge29" class="edge">
<title>j804331467&#45;&gt;j533228514</title>
<path fill="none" stroke="black" d="M3803.73,-791.52C3816.6,-782.76 3832.38,-772.04 3846.31,-762.58"/>
<polygon fill="black" stroke="black" points="3848.05,-765.63 3854.35,-757.11 3844.11,-759.84 3848.05,-765.63"/>
</g>
<!-- j2864742878 -->
<g id="node31" class="node">
<title>j2864742878</title>
<ellipse fill="none" stroke="orange" cx="8122" cy="-738" rx="142.97" ry="18"/>
<text text-anchor="middle" x="8122" y="-734.3" font-family="Times New Roman,serif" font-size="14.00">Boolean EleanorNoDate is now true.</text>
</g>
<!-- j591833134&#45;&gt;j2864742878 -->
<g id="edge30" class="edge">
<title>j591833134&#45;&gt;j2864742878</title>
<path fill="none" stroke="black" d="M8122,-791.7C8122,-784.41 8122,-775.73 8122,-767.54"/>
<polygon fill="black" stroke="black" points="8125.5,-767.62 8122,-757.62 8118.5,-767.62 8125.5,-767.62"/>
</g>
<!-- j1538301166 -->
<g id="node32" class="node">
<title>j1538301166</title>
<polygon fill="none" stroke="blue" points="6603,-756 5965,-756 5965,-720 6603,-720 6603,-756"/>
<text text-anchor="middle" x="6284" y="-734.3" font-family="Times New Roman,serif" font-size="14.00">ร้องไห้ น้ำตาแห่งความสุข ค่อยคุยกันใหม่นะ</text>
</g>
<!-- j1460618958&#45;&gt;j1538301166 -->
<g id="edge31" class="edge">
<title>j1460618958&#45;&gt;j1538301166</title>
<path fill="none" stroke="black" d="M6284,-791.7C6284,-784.41 6284,-775.73 6284,-767.54"/>
<polygon fill="black" stroke="black" points="6287.5,-767.62 6284,-757.62 6280.5,-767.62 6287.5,-767.62"/>
</g>
<!-- j2815503847&#45;&gt;j2864742878 -->
<g id="edge32" class="edge">
<title>j2815503847&#45;&gt;j2864742878</title>
<path fill="none" stroke="black" d="M8934.31,-793.36C8929.82,-792.88 8925.37,-792.43 8921,-792 8691.97,-769.68 8425.07,-754.06 8265.03,-745.82"/>
<polygon fill="black" stroke="black" points="8265.37,-742.33 8255.2,-745.31 8265.01,-749.32 8265.37,-742.33"/>
</g>
<!-- j4180996825 -->
<g id="node33" class="node">
<title>j4180996825</title>
<polygon fill="none" stroke="red" points="5115,-684 4783,-684 4783,-648 5115,-648 5115,-684"/>
<text text-anchor="middle" x="4949" y="-662.3" font-family="Times New Roman,serif" font-size="14.00">ยังไงก็ยังจะทำอยู่ดี</text>
</g>
<!-- j533228514&#45;&gt;j4180996825 -->
<g id="edge33" class="edge">
<title>j533228514&#45;&gt;j4180996825</title>
<path fill="none" stroke="black" d="M4147.75,-719.52C4342.62,-706.74 4601.48,-689.78 4771.53,-678.63"/>
<polygon fill="black" stroke="black" points="4771.59,-682.14 4781.34,-677.99 4771.13,-675.15 4771.59,-682.14"/>
</g>
<!-- j1412381790 -->
<g id="node34" class="node">
<title>j1412381790</title>
<polygon fill="none" stroke="red" points="5676.5,-684 5341.5,-684 5341.5,-648 5676.5,-648 5676.5,-684"/>
<text text-anchor="middle" x="5509" y="-662.3" font-family="Times New Roman,serif" font-size="14.00">เข้าใจแล้ว ข้าจะไม่ทำ</text>
</g>
<!-- j533228514&#45;&gt;j1412381790 -->
<g id="edge34" class="edge">
<title>j533228514&#45;&gt;j1412381790</title>
<path fill="none" stroke="black" d="M4294.99,-719.51C4536.73,-709.25 4847.65,-695.99 5124,-684 5191.29,-681.08 5265.2,-677.83 5330.12,-674.96"/>
<polygon fill="black" stroke="black" points="5329.94,-678.47 5339.78,-674.53 5329.63,-671.47 5329.94,-678.47"/>
</g>
<!-- j2601122137 -->
<g id="node35" class="node">
<title>j2601122137</title>
<polygon fill="none" stroke="red" points="2806.5,-684 1923.5,-684 1923.5,-648 2806.5,-648 2806.5,-684"/>
<text text-anchor="middle" x="2365" y="-662.3" font-family="Times New Roman,serif" font-size="14.00">มันคงขึ้นอยู่กับว่าจะมีคนอื่นอีกกี่คนที่ตกอยู่ในอันตราย</text>
</g>
<!-- j533228514&#45;&gt;j2601122137 -->
<g id="edge35" class="edge">
<title>j533228514&#45;&gt;j2601122137</title>
<path fill="none" stroke="black" d="M3502.36,-719.52C3274.45,-708.99 2984.9,-695.62 2754.99,-685.01"/>
<polygon fill="black" stroke="black" points="2755.4,-681.52 2745.25,-684.56 2755.08,-688.52 2755.4,-681.52"/>
</g>
<!-- j2337810785 -->
<g id="node36" class="node">
<title>j2337810785</title>
<polygon fill="none" stroke="red" points="4236,-684 3526,-684 3526,-648 4236,-648 4236,-684"/>
<text text-anchor="middle" x="3881" y="-662.3" font-family="Times New Roman,serif" font-size="14.00">ยังไม่ได้ตอบคำถามเลยว่าอยากให้ข้าทำหรือเปล่า</text>
</g>
<!-- j533228514&#45;&gt;j2337810785 -->
<g id="edge36" class="edge">
<title>j533228514&#45;&gt;j2337810785</title>
<path fill="none" stroke="black" d="M3881,-719.7C3881,-712.41 3881,-703.73 3881,-695.54"/>
<polygon fill="black" stroke="black" points="3884.5,-695.62 3881,-685.62 3877.5,-695.62 3884.5,-695.62"/>
</g>
<!-- Chat ends. -->
<g id="node37" class="node">
<title>Chat ends.</title>
<ellipse fill="none" stroke="orange" cx="5983" cy="-18" rx="50.09" ry="18"/>
<text text-anchor="middle" x="5983" y="-14.3" font-family="Times New Roman,serif" font-size="14.00">Chat ends.</text>
</g>
<!-- j2864742878&#45;&gt;Chat ends. -->
<g id="edge37" class="edge">
<title>j2864742878&#45;&gt;Chat ends.</title>
<path fill="none" stroke="black" d="M8111.64,-719.76C8096.99,-693.7 8072,-642.31 8072,-595 8072,-595 8072,-595 8072,-161 8072,-56.65 6390.96,-25.25 6044.85,-19.89"/>
<polygon fill="black" stroke="black" points="6044.91,-16.39 6034.86,-19.73 6044.8,-23.39 6044.91,-16.39"/>
</g>
<!-- Chat ends. Next chat will be EleanorMonster. -->
<g id="node38" class="node">
<title>Chat ends. Next chat will be EleanorMonster.</title>
<ellipse fill="none" stroke="orange" cx="6284" cy="-666" rx="174.67" ry="18"/>
<text text-anchor="middle" x="6284" y="-662.3" font-family="Times New Roman,serif" font-size="14.00">Chat ends. Next chat will be EleanorMonster.</text>
</g>
<!-- j1538301166&#45;&gt;Chat ends. Next chat will be EleanorMonster. -->
<g id="edge38" class="edge">
<title>j1538301166&#45;&gt;Chat ends. Next chat will be EleanorMonster.</title>
<path fill="none" stroke="black" d="M6284,-719.7C6284,-712.41 6284,-703.73 6284,-695.54"/>
<polygon fill="black" stroke="black" points="6287.5,-695.62 6284,-685.62 6280.5,-695.62 6287.5,-695.62"/>
</g>
<!-- j3710742090 -->
<g id="node39" class="node">
<title>j3710742090</title>
<polygon fill="none" stroke="blue" points="5896.5,-612 4643.5,-612 4643.5,-576 5896.5,-576 5896.5,-612"/>
<text text-anchor="middle" x="5270" y="-590.3" font-family="Times New Roman,serif" font-size="14.00">โอเค งั้นเราจะสละ Eleanor ผู้มีความสุขและมีพลังบนแท่นบูชาของ Eleanor เหมือนที่เคยเป็นใช่ไหม</text>
</g>
<!-- j4180996825&#45;&gt;j3710742090 -->
<g id="edge39" class="edge">
<title>j4180996825&#45;&gt;j3710742090</title>
<path fill="none" stroke="black" d="M5029.17,-647.52C5074.65,-637.6 5131.71,-625.16 5178.87,-614.87"/>
<polygon fill="black" stroke="black" points="5179.51,-618.32 5188.54,-612.76 5178.02,-611.48 5179.51,-618.32"/>
</g>
<!-- j4187664337 -->
<g id="node40" class="node">
<title>j4187664337</title>
<polygon fill="none" stroke="blue" points="7606,-612 6338,-612 6338,-576 7606,-576 7606,-612"/>
<text text-anchor="middle" x="6972" y="-590.3" font-family="Times New Roman,serif" font-size="14.00">โอ้ แสดงว่าข้าต้องกระพริบตาสวย ๆ โต ๆ ให้เอ็ง จะได้ทำให้ความตั้งใจของเอ็งพังลงใช่ไหม</text>
</g>
<!-- j1412381790&#45;&gt;j4187664337 -->
<g id="edge40" class="edge">
<title>j1412381790&#45;&gt;j4187664337</title>
<path fill="none" stroke="black" d="M5676.82,-656.97C5899.32,-646.32 6298.34,-627.23 6594.89,-613.04"/>
<polygon fill="black" stroke="black" points="6594.95,-616.54 6604.77,-612.57 6594.61,-609.55 6594.95,-616.54"/>
</g>
<!-- j3607588205 -->
<g id="node41" class="node">
<title>j3607588205</title>
<polygon fill="none" stroke="blue" points="3326,-612 0,-612 0,-576 3326,-576 3326,-612"/>
<text text-anchor="middle" x="1663" y="-590.3" font-family="Times New Roman,serif" font-size="14.00">อ๋อ ใช่แล้ว ในสถานการณ์นี้ ข้าเป็นสัตว์ประหลาดไร้มนุษยธรรมที่คอยเข่นฆ่าผู้คนอย่างไม่เลือกหน้า คงจัดไว้ในประเภท &quot;สัตว์นักล่า&quot; ร่วมกับหมาบ้า หมีหิวโหย และสัตว์อื่น ๆ ซึ่งหมายความว่าไม่ต้องลังเลใจในการเลือกทำสิ่งที่ถูกต้อง</text>
</g>
<!-- j2601122137&#45;&gt;j3607588205 -->
<g id="edge41" class="edge">
<title>j2601122137&#45;&gt;j3607588205</title>
<path fill="none" stroke="black" d="M2189.67,-647.52C2086.13,-637.19 1955.11,-624.13 1849.65,-613.61"/>
<polygon fill="black" stroke="black" points="1850.03,-610.13 1839.73,-612.62 1849.34,-617.1 1850.03,-610.13"/>
</g>
<!-- j3721213920 -->
<g id="node42" class="node">
<title>j3721213920</title>
<polygon fill="none" stroke="blue" points="4417.5,-612 3344.5,-612 3344.5,-576 4417.5,-576 4417.5,-612"/>
<text text-anchor="middle" x="3881" y="-590.3" font-family="Times New Roman,serif" font-size="14.00">… ไม่รู้สิ บางวันก็คิดแบบนั้น รู้สึกเหมือนตัวละครธรรมดา ๆ ในละครน้ำเน่า</text>
</g>
<!-- j2337810785&#45;&gt;j3721213920 -->
<g id="edge42" class="edge">
<title>j2337810785&#45;&gt;j3721213920</title>
<path fill="none" stroke="black" d="M3881,-647.7C3881,-640.41 3881,-631.73 3881,-623.54"/>
<polygon fill="black" stroke="black" points="3884.5,-623.62 3881,-613.62 3877.5,-623.62 3884.5,-623.62"/>
</g>
<!-- j315555323 -->
<g id="node43" class="node">
<title>j315555323</title>
<polygon fill="none" stroke="blue" points="6128.5,-540 4895.5,-540 4895.5,-504 6128.5,-504 6128.5,-540"/>
<text text-anchor="middle" x="5512" y="-518.3" font-family="Times New Roman,serif" font-size="14.00">ข้าเปลี่ยนใจและตัดสินใจที่จะมีชีวิตอยู่ได้ แต่เอ็งไม่สามารถเปลี่ยนใจได้เลยเหรอ</text>
</g>
<!-- j3710742090&#45;&gt;j315555323 -->
<g id="edge43" class="edge">
<title>j3710742090&#45;&gt;j315555323</title>
<path fill="none" stroke="black" d="M5330.44,-575.52C5364.06,-565.79 5406.09,-553.64 5441.24,-543.47"/>
<polygon fill="black" stroke="black" points="5441.82,-546.94 5450.46,-540.8 5439.88,-540.22 5441.82,-546.94"/>
</g>
<!-- j2365156592 -->
<g id="node44" class="node">
<title>j2365156592</title>
<polygon fill="none" stroke="blue" points="7497,-540 6661,-540 6661,-504 7497,-504 7497,-540"/>
<text text-anchor="middle" x="7079" y="-518.3" font-family="Times New Roman,serif" font-size="14.00">แล้วอยากเป็นนักฆ่าแวมไพร์ผู้ไม่หวั่นกลัวแบบไหนกันล่ะ</text>
</g>
<!-- j4187664337&#45;&gt;j2365156592 -->
<g id="edge44" class="edge">
<title>j4187664337&#45;&gt;j2365156592</title>
<path fill="none" stroke="black" d="M6998.72,-575.52C7012.23,-566.68 7028.81,-555.84 7043.38,-546.3"/>
<polygon fill="black" stroke="black" points="7044.9,-549.49 7051.35,-541.09 7041.06,-543.63 7044.9,-549.49"/>
</g>
<!-- j3950978043 -->
<g id="node45" class="node">
<title>j3950978043</title>
<polygon fill="none" stroke="blue" points="1766,-540 1560,-540 1560,-504 1766,-504 1766,-540"/>
<text text-anchor="middle" x="1663" y="-518.3" font-family="Times New Roman,serif" font-size="14.00">บอกมาหน่อยสิ</text>
</g>
<!-- j3607588205&#45;&gt;j3950978043 -->
<g id="edge45" class="edge">
<title>j3607588205&#45;&gt;j3950978043</title>
<path fill="none" stroke="black" d="M1663,-575.7C1663,-568.41 1663,-559.73 1663,-551.54"/>
<polygon fill="black" stroke="black" points="1666.5,-551.62 1663,-541.62 1659.5,-551.62 1666.5,-551.62"/>
</g>
<!-- j2296232290 -->
<g id="node46" class="node">
<title>j2296232290</title>
<polygon fill="none" stroke="blue" points="4764.5,-540 2511.5,-540 2511.5,-504 4764.5,-504 4764.5,-540"/>
<text text-anchor="middle" x="3638" y="-518.3" font-family="Times New Roman,serif" font-size="14.00">“โอ้ ไม่นะ หญิงสาวผู้เคราะห์ร้ายที่เราเคยรักกลายเป็นแวมไพร์สุดเซ็กซี่แล้ว ต้องฆ่าเธอ เพื่อที่เมื่อเธอตาย จะได้กลับมาบริสุทธิ์และไร้เดียงสาอีกครั้ง”</text>
</g>
<!-- j3721213920&#45;&gt;j2296232290 -->
<g id="edge46" class="edge">
<title>j3721213920&#45;&gt;j2296232290</title>
<path fill="none" stroke="black" d="M3820.31,-575.52C3786.55,-565.79 3744.35,-553.64 3709.05,-543.47"/>
<polygon fill="black" stroke="black" points="3710.37,-540.21 3699.79,-540.8 3708.43,-546.93 3710.37,-540.21"/>
</g>
<!-- j833332334 -->
<g id="node47" class="node">
<title>j833332334</title>
<polygon fill="none" stroke="blue" points="6317,-468 5115,-468 5115,-432 6317,-432 6317,-468"/>
<text text-anchor="middle" x="5716" y="-446.3" font-family="Times New Roman,serif" font-size="14.00">อันที่จริงก็ไม่ควรแปลกใจเลย เพราะมันคงเป็นตอนจบเรื่องที่เตรียมไว้ให้เอ็งสินะ</text>
</g>
<!-- j315555323&#45;&gt;j833332334 -->
<g id="edge47" class="edge">
<title>j315555323&#45;&gt;j833332334</title>
<path fill="none" stroke="black" d="M5562.95,-503.52C5590.8,-493.96 5625.5,-482.05 5654.81,-472"/>
<polygon fill="black" stroke="black" points="5655.59,-475.43 5663.91,-468.87 5653.32,-468.81 5655.59,-475.43"/>
</g>
<!-- j1080460662 -->
<g id="node48" class="node">
<title>j1080460662</title>
<polygon fill="none" stroke="blue" points="7832,-468 6540,-468 6540,-432 7832,-432 7832,-468"/>
<text text-anchor="middle" x="7186" y="-446.3" font-family="Times New Roman,serif" font-size="14.00">แต่จะบอกให้นะว่าเอ็งเป็นคนประเภทที่จะตายกลางเรื่องเพราะไม่มีหัวใจจะทำสิ่งที่ควรทำ</text>
</g>
<!-- j2365156592&#45;&gt;j1080460662 -->
<g id="edge48" class="edge">
<title>j2365156592&#45;&gt;j1080460662</title>
<path fill="none" stroke="black" d="M7105.72,-503.52C7119.23,-494.68 7135.81,-483.84 7150.38,-474.3"/>
<polygon fill="black" stroke="black" points="7151.9,-477.49 7158.35,-469.09 7148.06,-471.63 7151.9,-477.49"/>
</g>
<!-- j3532906665 -->
<g id="node49" class="node">
<title>j3532906665</title>
<polygon fill="none" stroke="blue" points="2246,-468 1080,-468 1080,-432 2246,-432 2246,-468"/>
<text text-anchor="middle" x="1663" y="-446.3" font-family="Times New Roman,serif" font-size="14.00">คิดจะรอจนกว่าข้าจะจับเหยื่อรายแรกก่อนแล้วค่อยยิงกระสุนเข้ากะโหลกหรือเปล่า</text>
</g>
<!-- j3950978043&#45;&gt;j3532906665 -->
<g id="edge49" class="edge">
<title>j3950978043&#45;&gt;j3532906665</title>
<path fill="none" stroke="black" d="M1663,-503.7C1663,-496.41 1663,-487.73 1663,-479.54"/>
<polygon fill="black" stroke="black" points="1666.5,-479.62 1663,-469.62 1659.5,-479.62 1666.5,-479.62"/>
</g>
<!-- j502447068 -->
<g id="node50" class="node">
<title>j502447068</title>
<ellipse fill="none" stroke="orange" cx="3581" cy="-450" rx="175.47" ry="18"/>
<text text-anchor="middle" x="3581" y="-446.3" font-family="Times New Roman,serif" font-size="14.00">Boolean EleanorArthurNightmare is now true.</text>
</g>
<!-- j2296232290&#45;&gt;j502447068 -->
<g id="edge50" class="edge">
<title>j2296232290&#45;&gt;j502447068</title>
<path fill="none" stroke="black" d="M3623.91,-503.7C3617.35,-495.64 3609.41,-485.89 3602.16,-476.98"/>
<polygon fill="black" stroke="black" points="3604.91,-474.82 3595.88,-469.28 3599.48,-479.24 3604.91,-474.82"/>
</g>
<!-- j399853602 -->
<g id="node51" class="node">
<title>j399853602</title>
<polygon fill="none" stroke="blue" points="7144.5,-396 4891.5,-396 4891.5,-360 7144.5,-360 7144.5,-396"/>
<text text-anchor="middle" x="6018" y="-374.3" font-family="Times New Roman,serif" font-size="14.00">“โอ้ ไม่นะ หญิงสาวผู้เคราะห์ร้ายที่เราเคยรักกลายเป็นแวมไพร์สุดเซ็กซี่แล้ว ต้องฆ่าเธอ เพื่อที่เมื่อเธอตาย จะได้กลับมาบริสุทธิ์และไร้เดียงสาอีกครั้ง”</text>
</g>
<!-- j833332334&#45;&gt;j399853602 -->
<g id="edge51" class="edge">
<title>j833332334&#45;&gt;j399853602</title>
<path fill="none" stroke="black" d="M5791.43,-431.52C5834.03,-421.64 5887.44,-409.26 5931.7,-399"/>
<polygon fill="black" stroke="black" points="5932.32,-402.45 5941.27,-396.78 5930.74,-395.63 5932.32,-402.45"/>
</g>
<!-- j791614489 -->
<g id="node52" class="node">
<title>j791614489</title>
<polygon fill="none" stroke="blue" points="8041.5,-396 7162.5,-396 7162.5,-360 8041.5,-360 8041.5,-396"/>
<text text-anchor="middle" x="7602" y="-374.3" font-family="Times New Roman,serif" font-size="14.00">แล้วจะกลายเป็นคำเตือนสำหรับคนอื่น ๆ มันจะเป็นแบบนั้นแหละ!</text>
</g>
<!-- j1080460662&#45;&gt;j791614489 -->
<g id="edge52" class="edge">
<title>j1080460662&#45;&gt;j791614489</title>
<path fill="none" stroke="black" d="M7289.9,-431.52C7349.95,-421.41 7425.59,-408.68 7487.37,-398.29"/>
<polygon fill="black" stroke="black" points="7487.57,-401.8 7496.85,-396.69 7486.41,-394.9 7487.57,-401.8"/>
</g>
<!-- j1975759768 -->
<g id="node53" class="node">
<title>j1975759768</title>
<polygon fill="none" stroke="blue" points="2531,-252 1695,-252 1695,-216 2531,-216 2531,-252"/>
<text text-anchor="middle" x="2113" y="-230.3" font-family="Times New Roman,serif" font-size="14.00">เพราะถ้าไม่ทำแล้วจะแน่ใจได้ยังไงว่าข้าเป็นตัวอันตราย</text>
</g>
<!-- j3532906665&#45;&gt;j1975759768 -->
<g id="edge53" class="edge">
<title>j3532906665&#45;&gt;j1975759768</title>
<path fill="none" stroke="black" d="M1661.78,-431.57C1661.39,-411.69 1663.92,-379.43 1682,-360 1724.95,-313.84 1885.89,-276.08 1998.44,-254.55"/>
<polygon fill="black" stroke="black" points="1998.86,-258.04 2008.03,-252.74 1997.55,-251.16 1998.86,-258.04"/>
</g>
<!-- j4099226665 -->
<g id="node54" class="node">
<title>j4099226665</title>
<polygon fill="none" stroke="blue" points="4873,-396 1691,-396 1691,-360 4873,-360 4873,-396"/>
<text text-anchor="middle" x="3282" y="-374.3" font-family="Times New Roman,serif" font-size="14.00">ข้าหมกมุ่นอยู่กับเรื่องนี้มาก เคยฝันร้ายว่าตื่นขึ้นมาบนโซฟาแล้วเห็น Arthur ยืนอยู่ น้ำตาคลอเบ้า ถือดาบอยู่ในมือ และสบถว่า Eleanor เป็นพี่สาวของเขา แต่ตอนนี้ Eleanor จากไปแล้ว และเขาต้องทำแบบนี้ แม้ว่ามันจะทำให้เขาตายก็ตาม โฮ</text>
</g>
<!-- j502447068&#45;&gt;j4099226665 -->
<g id="edge54" class="edge">
<title>j502447068&#45;&gt;j4099226665</title>
<path fill="none" stroke="black" d="M3512.78,-433.03C3469.79,-422.96 3413.91,-409.88 3367.91,-399.11"/>
<polygon fill="black" stroke="black" points="3368.75,-395.72 3358.22,-396.84 3367.16,-402.53 3368.75,-395.72"/>
</g>
<!-- j2115796520 -->
<g id="node55" class="node">
<title>j2115796520</title>
<ellipse fill="none" stroke="orange" cx="6000" cy="-306" rx="175.47" ry="18"/>
<text text-anchor="middle" x="6000" y="-302.3" font-family="Times New Roman,serif" font-size="14.00">Boolean EleanorArthurNightmare is now true.</text>
</g>
<!-- j399853602&#45;&gt;j2115796520 -->
<g id="edge55" class="edge">
<title>j399853602&#45;&gt;j2115796520</title>
<path fill="none" stroke="black" d="M6013.55,-359.7C6011.65,-352.32 6009.39,-343.52 6007.26,-335.25"/>
<polygon fill="black" stroke="black" points="6010.66,-334.38 6004.78,-325.57 6003.88,-336.13 6010.66,-334.38"/>
</g>
<!-- j488889586 -->
<g id="node56" class="node">
<title>j488889586</title>
<polygon fill="none" stroke="blue" points="7928,-180 7038,-180 7038,-144 7928,-144 7928,-180"/>
<text text-anchor="middle" x="7483" y="-158.3" font-family="Times New Roman,serif" font-size="14.00">ขอโทษนะ นี่อาจไม่ยุติธรรมกับเอ็งเลย ค่อยคุยกันใหม่แล้วกัน</text>
</g>
<!-- j791614489&#45;&gt;j488889586 -->
<g id="edge56" class="edge">
<title>j791614489&#45;&gt;j488889586</title>
<path fill="none" stroke="black" d="M7604.82,-359.71C7609,-328.15 7613.37,-260.35 7583,-216 7574.25,-203.22 7561.39,-193.28 7547.8,-185.65"/>
<polygon fill="black" stroke="black" points="7549.66,-182.67 7539.17,-181.18 7546.45,-188.88 7549.66,-182.67"/>
</g>
<!-- j1975759768&#45;&gt;Chat ends. -->
<g id="edge57" class="edge">
<title>j1975759768&#45;&gt;Chat ends.</title>
<path fill="none" stroke="black" d="M2385.63,-215.52C2873.56,-184.52 3928.4,-118.77 4819,-72 5240.86,-49.85 5749.02,-28.57 5921.97,-21.48"/>
<polygon fill="black" stroke="black" points="5921.99,-24.98 5931.84,-21.07 5921.71,-17.99 5921.99,-24.98"/>
</g>
<!-- j2976558774 -->
<g id="node57" class="node">
<title>j2976558774</title>
<polygon fill="none" stroke="blue" points="4338,-324 2496,-324 2496,-288 4338,-288 4338,-324"/>
<text text-anchor="middle" x="3417" y="-302.3" font-family="Times New Roman,serif" font-size="14.00">และในขณะที่เขากำลังเสียบดาบระหว่างซี่โครง ข้าก็กรีดร้องว่า &quot;Eleanor อยู่นี่โว้ย ไอ้น้องชั่ว!&quot; แต่เขาก็ไม่ได้ยินข้าอีกต่อไปแล้ว</text>
</g>
<!-- j4099226665&#45;&gt;j2976558774 -->
<g id="edge58" class="edge">
<title>j4099226665&#45;&gt;j2976558774</title>
<path fill="none" stroke="black" d="M3315.72,-359.52C3333.25,-350.43 3354.87,-339.22 3373.63,-329.49"/>
<polygon fill="black" stroke="black" points="3375.1,-332.67 3382.37,-324.96 3371.88,-326.45 3375.1,-332.67"/>
</g>
<!-- j2001890217 -->
<g id="node58" class="node">
<title>j2001890217</title>
<polygon fill="none" stroke="blue" points="7574,-252 4392,-252 4392,-216 7574,-216 7574,-252"/>
<text text-anchor="middle" x="5983" y="-230.3" font-family="Times New Roman,serif" font-size="14.00">ข้าหมกมุ่นอยู่กับเรื่องนี้มาก เคยฝันร้ายว่าตื่นขึ้นมาบนโซฟาแล้วเห็น Arthur ยืนอยู่ น้ำตาคลอเบ้า ถือดาบอยู่ในมือ และสบถว่า Eleanor เป็นพี่สาวของเขา แต่ตอนนี้ Eleanor จากไปแล้ว และเขาต้องทำแบบนี้ แม้ว่ามันจะทำให้เขาตายก็ตาม โฮ</text>
</g>
<!-- j2115796520&#45;&gt;j2001890217 -->
<g id="edge59" class="edge">
<title>j2115796520&#45;&gt;j2001890217</title>
<path fill="none" stroke="black" d="M5995.8,-287.7C5994.01,-280.32 5991.87,-271.52 5989.86,-263.25"/>
<polygon fill="black" stroke="black" points="5993.27,-262.47 5987.51,-253.58 5986.47,-264.12 5993.27,-262.47"/>
</g>
<!-- j488889586&#45;&gt;Chat ends. -->
<g id="edge60" class="edge">
<title>j488889586&#45;&gt;Chat ends.</title>
<path fill="none" stroke="black" d="M7298.32,-143.52C6958.81,-111.38 6251.14,-44.38 6042.26,-24.61"/>
<polygon fill="black" stroke="black" points="6042.75,-21.14 6032.46,-23.68 6042.09,-28.11 6042.75,-21.14"/>
</g>
<!-- j2232074744 -->
<g id="node59" class="node">
<title>j2232074744</title>
<polygon fill="none" stroke="red" points="4239.5,-252 3132.5,-252 3132.5,-216 4239.5,-216 4239.5,-252"/>
<text text-anchor="middle" x="3686" y="-230.3" font-family="Times New Roman,serif" font-size="14.00">ตอนนี้สิ่งที่ได้ยินก็คือ เจ้าไม่เต็มใจที่จะตัดสินใจตอบคำถามนี้ล่วงหน้า</text>
</g>
<!-- j2976558774&#45;&gt;j2232074744 -->
<g id="edge61" class="edge">
<title>j2976558774&#45;&gt;j2232074744</title>
<path fill="none" stroke="black" d="M3484.19,-287.52C3521.8,-277.73 3568.88,-265.48 3608.1,-255.27"/>
<polygon fill="black" stroke="black" points="3608.94,-258.67 3617.74,-252.76 3607.18,-251.89 3608.94,-258.67"/>
</g>
<!-- j1813253470 -->
<g id="node60" class="node">
<title>j1813253470</title>
<polygon fill="none" stroke="blue" points="6904,-180 5062,-180 5062,-144 6904,-144 6904,-180"/>
<text text-anchor="middle" x="5983" y="-158.3" font-family="Times New Roman,serif" font-size="14.00">และในขณะที่เขากำลังเสียบดาบระหว่างซี่โครง ข้าก็กรีดร้องว่า &quot;Eleanor อยู่นี่โว้ย ไอ้น้องชั่ว!&quot; แต่เขาก็ไม่ได้ยินข้าอีกต่อไปแล้ว</text>
</g>
<!-- j2001890217&#45;&gt;j1813253470 -->
<g id="edge62" class="edge">
<title>j2001890217&#45;&gt;j1813253470</title>
<path fill="none" stroke="black" d="M5983,-215.7C5983,-208.41 5983,-199.73 5983,-191.54"/>
<polygon fill="black" stroke="black" points="5986.5,-191.62 5983,-181.62 5979.5,-191.62 5986.5,-191.62"/>
</g>
<!-- j57300827 -->
<g id="node61" class="node">
<title>j57300827</title>
<polygon fill="none" stroke="red" points="4563,-180 3771,-180 3771,-144 4563,-144 4563,-180"/>
<text text-anchor="middle" x="4167" y="-158.3" font-family="Times New Roman,serif" font-size="14.00">ดังนั้นในกรณีนี้ ก็อย่ามาคาดหวังคำตอบจากข้าเช่นกัน</text>
</g>
<!-- j2232074744&#45;&gt;j57300827 -->
<g id="edge63" class="edge">
<title>j2232074744&#45;&gt;j57300827</title>
<path fill="none" stroke="black" d="M3806.14,-215.52C3876,-205.35 3964.12,-192.53 4035.79,-182.1"/>
<polygon fill="black" stroke="black" points="4036.26,-185.56 4045.65,-180.66 4035.25,-178.64 4036.26,-185.56"/>
</g>
<!-- j2177720702 -->
<g id="node62" class="node">
<title>j2177720702</title>
<polygon fill="none" stroke="blue" points="6267,-108 5699,-108 5699,-72 6267,-72 6267,-108"/>
<text text-anchor="middle" x="5983" y="-86.3" font-family="Times New Roman,serif" font-size="14.00">บางทีครั้งต่อไปอาจจะฝันถึงเอ็งก็ได้</text>
</g>
<!-- j1813253470&#45;&gt;j2177720702 -->
<g id="edge64" class="edge">
<title>j1813253470&#45;&gt;j2177720702</title>
<path fill="none" stroke="black" d="M5983,-143.7C5983,-136.41 5983,-127.73 5983,-119.54"/>
<polygon fill="black" stroke="black" points="5986.5,-119.62 5983,-109.62 5979.5,-119.62 5986.5,-119.62"/>
</g>
<!-- j2895199346 -->
<g id="node63" class="node">
<title>j2895199346</title>
<ellipse fill="none" stroke="orange" cx="4892" cy="-90" rx="64.19" ry="18"/>
<text text-anchor="middle" x="4892" y="-86.3" font-family="Times New Roman,serif" font-size="14.00">+20 Chemistry</text>
</g>
<!-- j57300827&#45;&gt;j2895199346 -->
<g id="edge65" class="edge">
<title>j57300827&#45;&gt;j2895199346</title>
<path fill="none" stroke="black" d="M4348.08,-143.52C4501,-128.75 4711.94,-108.38 4820.73,-97.88"/>
<polygon fill="black" stroke="black" points="4820.77,-101.39 4830.39,-96.95 4820.1,-94.43 4820.77,-101.39"/>
</g>
<!-- j2177720702&#45;&gt;Chat ends. -->
<g id="edge66" class="edge">
<title>j2177720702&#45;&gt;Chat ends.</title>
<path fill="none" stroke="black" d="M5983,-71.7C5983,-64.41 5983,-55.73 5983,-47.54"/>
<polygon fill="black" stroke="black" points="5986.5,-47.62 5983,-37.62 5979.5,-47.62 5986.5,-47.62"/>
</g>
<!-- j2895199346&#45;&gt;Chat ends. -->
<g id="edge67" class="edge">
<title>j2895199346&#45;&gt;Chat ends.</title>
<path fill="none" stroke="black" d="M4954.18,-85.01C5146.78,-72.65 5731.95,-35.11 5922.4,-22.89"/>
<polygon fill="black" stroke="black" points="5922.57,-26.38 5932.32,-22.25 5922.12,-19.4 5922.57,-26.38"/>
</g>
</g>
</svg>
