<?xml version="1.0" encoding="UTF-8" standalone="no"?>
<!DOCTYPE svg PUBLIC "-//W3C//DTD SVG 1.1//EN"
 "http://www.w3.org/Graphics/SVG/1.1/DTD/svg11.dtd">
<!-- Generated by graphviz version 7.1.0 (20230121.1956)
 -->
<!-- Pages: 1 -->
<svg width="2404pt" height="1655pt"
 viewBox="0.00 0.00 2404.00 1655.00" xmlns="http://www.w3.org/2000/svg" xmlns:xlink="http://www.w3.org/1999/xlink">
<g id="graph0" class="graph" transform="scale(1 1) rotate(0) translate(4 1651)">
<polygon fill="white" stroke="none" points="-4,4 -4,-1651 2400,-1651 2400,4 -4,4"/>
<!-- EleanorRank1Convo4 begins. -->
<g id="node1" class="node">
<title>EleanorRank1Convo4 begins.</title>
<ellipse fill="none" stroke="orange" cx="1172" cy="-1629" rx="118.88" ry="18"/>
<text text-anchor="middle" x="1172" y="-1625.3" font-family="Times New Roman,serif" font-size="14.00">EleanorRank1Convo4 begins.</text>
</g>
<!-- j2846460385 -->
<g id="node2" class="node">
<title>j2846460385</title>
<polygon fill="none" stroke="blue" points="1546.5,-1574 797.5,-1574 797.5,-1538 1546.5,-1538 1546.5,-1574"/>
<text text-anchor="middle" x="1172" y="-1552.3" font-family="Times New Roman,serif" font-size="14.00">What’s it like? Having the freedom to swan about in a city filled with plague and know you’ll never have to worry about catching it?</text>
</g>
<!-- EleanorRank1Convo4 begins.&#45;&gt;j2846460385 -->
<g id="edge1" class="edge">
<title>EleanorRank1Convo4 begins.&#45;&gt;j2846460385</title>
<path fill="none" stroke="black" d="M1172,-1610.81C1172,-1603.23 1172,-1594.1 1172,-1585.54"/>
<polygon fill="black" stroke="black" points="1175.5,-1585.54 1172,-1575.54 1168.5,-1585.54 1175.5,-1585.54"/>
</g>
<!-- j781048172 -->
<g id="node3" class="node">
<title>j781048172</title>
<polygon fill="none" stroke="red" points="595,-1339 397,-1339 397,-1303 595,-1303 595,-1339"/>
<text text-anchor="middle" x="496" y="-1317.3" font-family="Times New Roman,serif" font-size="14.00">&quot;Swan about&quot; isn’t fair, Eleanor.</text>
</g>
<!-- j2846460385&#45;&gt;j781048172 -->
<g id="edge2" class="edge">
<title>j2846460385&#45;&gt;j781048172</title>
<path fill="none" stroke="black" d="M1121.47,-1537.58C999.53,-1495.55 689.48,-1388.69 557.25,-1343.11"/>
<polygon fill="black" stroke="black" points="558.56,-1339.86 547.96,-1339.91 556.28,-1346.48 558.56,-1339.86"/>
</g>
<!-- j2024756666 -->
<g id="node4" class="node">
<title>j2024756666</title>
<polygon fill="none" stroke="red" points="1314,-1501 1030,-1501 1030,-1465 1314,-1465 1314,-1501"/>
<text text-anchor="middle" x="1172" y="-1479.3" font-family="Times New Roman,serif" font-size="14.00">I don’t know I won’t catch it. I just haven’t yet.</text>
</g>
<!-- j2846460385&#45;&gt;j2024756666 -->
<g id="edge3" class="edge">
<title>j2846460385&#45;&gt;j2024756666</title>
<path fill="none" stroke="black" d="M1172,-1537.81C1172,-1530.23 1172,-1521.1 1172,-1512.54"/>
<polygon fill="black" stroke="black" points="1175.5,-1512.54 1172,-1502.54 1168.5,-1512.54 1175.5,-1512.54"/>
</g>
<!-- j1027929935 -->
<g id="node5" class="node">
<title>j1027929935</title>
<polygon fill="none" stroke="red" points="1689.5,-1447 1420.5,-1447 1420.5,-1411 1689.5,-1411 1689.5,-1447"/>
<text text-anchor="middle" x="1555" y="-1425.3" font-family="Times New Roman,serif" font-size="14.00">It’s fantastic. I can help the people in danger.</text>
</g>
<!-- j2846460385&#45;&gt;j1027929935 -->
<g id="edge4" class="edge">
<title>j2846460385&#45;&gt;j1027929935</title>
<path fill="none" stroke="black" d="M1225.25,-1537.62C1294.8,-1514.92 1416.44,-1475.22 1490.94,-1450.91"/>
<polygon fill="black" stroke="black" points="1491.72,-1454.33 1500.14,-1447.9 1489.55,-1447.68 1491.72,-1454.33"/>
</g>
<!-- j1735212282 -->
<g id="node6" class="node">
<title>j1735212282</title>
<polygon fill="none" stroke="blue" points="429.5,-920 186.5,-920 186.5,-884 429.5,-884 429.5,-920"/>
<text text-anchor="middle" x="308" y="-898.3" font-family="Times New Roman,serif" font-size="14.00">I’ll speak as I like, thank you very much.</text>
</g>
<!-- j781048172&#45;&gt;j1735212282 -->
<g id="edge5" class="edge">
<title>j781048172&#45;&gt;j1735212282</title>
<path fill="none" stroke="black" d="M396.74,-1304.89C357.24,-1292.71 321,-1270.71 321,-1231 321,-1231 321,-1231 321,-974 321,-959.8 318.45,-944.26 315.61,-931.35"/>
<polygon fill="black" stroke="black" points="319.06,-930.73 313.34,-921.82 312.26,-932.36 319.06,-930.73"/>
</g>
<!-- j2664189335 -->
<g id="node7" class="node">
<title>j2664189335</title>
<polygon fill="none" stroke="blue" points="1219,-1393 1125,-1393 1125,-1357 1219,-1357 1219,-1393"/>
<text text-anchor="middle" x="1172" y="-1371.3" font-family="Times New Roman,serif" font-size="14.00">Oh, come on.</text>
</g>
<!-- j2024756666&#45;&gt;j2664189335 -->
<g id="edge6" class="edge">
<title>j2024756666&#45;&gt;j2664189335</title>
<path fill="none" stroke="black" d="M1172,-1464.97C1172,-1448.76 1172,-1424.06 1172,-1404.79"/>
<polygon fill="black" stroke="black" points="1175.5,-1404.85 1172,-1394.85 1168.5,-1404.85 1175.5,-1404.85"/>
</g>
<!-- j3543347026 -->
<g id="node8" class="node">
<title>j3543347026</title>
<polygon fill="none" stroke="blue" points="1966.5,-920 1285.5,-920 1285.5,-884 1966.5,-884 1966.5,-920"/>
<text text-anchor="middle" x="1626" y="-898.3" font-family="Times New Roman,serif" font-size="14.00">Heh. That was Entrati’s whole schtick. Back when he first appeared with the whole ‘Doktor Friday’ medicine show bit.</text>
</g>
<!-- j1027929935&#45;&gt;j3543347026 -->
<g id="edge7" class="edge">
<title>j1027929935&#45;&gt;j3543347026</title>
<path fill="none" stroke="black" d="M1575.92,-1410.84C1596.86,-1391.61 1626,-1358.33 1626,-1322 1626,-1322 1626,-1322 1626,-974 1626,-960.08 1626,-944.63 1626,-931.7"/>
<polygon fill="black" stroke="black" points="1629.5,-931.73 1626,-921.73 1622.5,-931.73 1629.5,-931.73"/>
</g>
<!-- j1626313444 -->
<g id="node9" class="node">
<title>j1626313444</title>
<polygon fill="none" stroke="red" points="280,-833 38,-833 38,-797 280,-797 280,-833"/>
<text text-anchor="middle" x="159" y="-811.3" font-family="Times New Roman,serif" font-size="14.00">And I’ll tell you when you’re out of line.</text>
</g>
<!-- j1735212282&#45;&gt;j1626313444 -->
<g id="edge8" class="edge">
<title>j1735212282&#45;&gt;j1626313444</title>
<path fill="none" stroke="black" d="M277.49,-883.59C254.89,-870.7 223.88,-853.01 199.25,-838.96"/>
<polygon fill="black" stroke="black" points="201.21,-836.05 190.79,-834.13 197.74,-842.13 201.21,-836.05"/>
</g>
<!-- j395998074 -->
<g id="node10" class="node">
<title>j395998074</title>
<polygon fill="none" stroke="red" points="370,-779 240,-779 240,-743 370,-743 370,-779"/>
<text text-anchor="middle" x="305" y="-757.3" font-family="Times New Roman,serif" font-size="14.00">Suit yourself. [End.]</text>
</g>
<!-- j1735212282&#45;&gt;j395998074 -->
<g id="edge9" class="edge">
<title>j1735212282&#45;&gt;j395998074</title>
<path fill="none" stroke="black" d="M307.63,-883.68C307.12,-860.35 306.22,-818.53 305.62,-790.53"/>
<polygon fill="black" stroke="black" points="309.12,-790.54 305.4,-780.62 302.12,-790.69 309.12,-790.54"/>
</g>
<!-- j468048610 -->
<g id="node11" class="node">
<title>j468048610</title>
<polygon fill="none" stroke="blue" points="1597.5,-1285 746.5,-1285 746.5,-1249 1597.5,-1249 1597.5,-1285"/>
<text text-anchor="middle" x="1172" y="-1263.3" font-family="Times New Roman,serif" font-size="14.00">I’ve seen how you work. You might have been human once, but now you’re Spanglyboots the Space Elf. All spooky light shows and mystic powers.</text>
</g>
<!-- j2664189335&#45;&gt;j468048610 -->
<g id="edge10" class="edge">
<title>j2664189335&#45;&gt;j468048610</title>
<path fill="none" stroke="black" d="M1172,-1356.97C1172,-1340.76 1172,-1316.06 1172,-1296.79"/>
<polygon fill="black" stroke="black" points="1175.5,-1296.85 1172,-1286.85 1168.5,-1296.85 1175.5,-1296.85"/>
</g>
<!-- j1926239255 -->
<g id="node12" class="node">
<title>j1926239255</title>
<ellipse fill="none" stroke="orange" cx="1626" cy="-815" rx="118.08" ry="18"/>
<text text-anchor="middle" x="1626" y="-811.3" font-family="Times New Roman,serif" font-size="14.00">Check boolean EleanorEntrati</text>
</g>
<!-- j3543347026&#45;&gt;j1926239255 -->
<g id="edge11" class="edge">
<title>j3543347026&#45;&gt;j1926239255</title>
<path fill="none" stroke="black" d="M1626,-883.8C1626,-872.58 1626,-857.67 1626,-844.69"/>
<polygon fill="black" stroke="black" points="1629.5,-844.98 1626,-834.98 1622.5,-844.98 1629.5,-844.98"/>
</g>
<!-- j3931843368 -->
<g id="node13" class="node">
<title>j3931843368</title>
<polygon fill="none" stroke="blue" points="186,-725 132,-725 132,-689 186,-689 186,-725"/>
<text text-anchor="middle" x="159" y="-703.3" font-family="Times New Roman,serif" font-size="14.00">…</text>
</g>
<!-- j1626313444&#45;&gt;j3931843368 -->
<g id="edge12" class="edge">
<title>j1626313444&#45;&gt;j3931843368</title>
<path fill="none" stroke="black" d="M159,-796.97C159,-780.76 159,-756.06 159,-736.79"/>
<polygon fill="black" stroke="black" points="162.5,-736.85 159,-726.85 155.5,-736.85 162.5,-736.85"/>
</g>
<!-- Chat ends. -->
<g id="node14" class="node">
<title>Chat ends.</title>
<ellipse fill="none" stroke="orange" cx="387" cy="-18" rx="50.09" ry="18"/>
<text text-anchor="middle" x="387" y="-14.3" font-family="Times New Roman,serif" font-size="14.00">Chat ends.</text>
</g>
<!-- j395998074&#45;&gt;Chat ends. -->
<g id="edge13" class="edge">
<title>j395998074&#45;&gt;Chat ends.</title>
<path fill="none" stroke="black" d="M303.45,-742.62C301.98,-724.69 300,-695.92 300,-671 300,-671 300,-671 300,-90 300,-65.51 320.94,-47.96 342.28,-36.44"/>
<polygon fill="black" stroke="black" points="343.62,-39.68 351.01,-32.09 340.5,-33.41 343.62,-39.68"/>
</g>
<!-- j800563815 -->
<g id="node15" class="node">
<title>j800563815</title>
<polygon fill="none" stroke="blue" points="1418,-1212 928,-1212 928,-1176 1418,-1176 1418,-1212"/>
<text text-anchor="middle" x="1173" y="-1190.3" font-family="Times New Roman,serif" font-size="14.00">I don’t think you can be killed. Not forever. And I know how hard people have tried.</text>
</g>
<!-- j468048610&#45;&gt;j800563815 -->
<g id="edge14" class="edge">
<title>j468048610&#45;&gt;j800563815</title>
<path fill="none" stroke="black" d="M1172.24,-1248.81C1172.35,-1241.23 1172.48,-1232.1 1172.6,-1223.54"/>
<polygon fill="black" stroke="black" points="1176.1,-1223.59 1172.74,-1213.54 1169.1,-1223.49 1176.1,-1223.59"/>
</g>
<!-- j978385988 -->
<g id="node16" class="node">
<title>j978385988</title>
<polygon fill="none" stroke="blue" points="1799.5,-725 1392.5,-725 1392.5,-689 1799.5,-689 1799.5,-725"/>
<text text-anchor="middle" x="1596" y="-703.3" font-family="Times New Roman,serif" font-size="14.00">Makes one wonder why he never got infected. His family did, after all.</text>
</g>
<!-- j1926239255&#45;&gt;j978385988 -->
<g id="edge15" class="edge">
<title>j1926239255&#45;&gt;j978385988</title>
<path fill="none" stroke="green" d="M1621.18,-796.97C1616.55,-780.61 1609.47,-755.59 1603.99,-736.24"/>
<polygon fill="green" stroke="green" points="1607.41,-735.47 1601.32,-726.8 1600.68,-737.37 1607.41,-735.47"/>
<text text-anchor="middle" x="1626" y="-757.3" font-family="Times New Roman,serif" font-size="14.00">true</text>
</g>
<!-- j819264183 -->
<g id="node17" class="node">
<title>j819264183</title>
<polygon fill="none" stroke="blue" points="2396,-725 1818,-725 1818,-689 2396,-689 2396,-725"/>
<text text-anchor="middle" x="2107" y="-703.3" font-family="Times New Roman,serif" font-size="14.00">He managed to protect himself from succumbing, at least. Maybe he’s more like you than you know.</text>
</g>
<!-- j1926239255&#45;&gt;j819264183 -->
<g id="edge16" class="edge">
<title>j1926239255&#45;&gt;j819264183</title>
<path fill="none" stroke="brown" d="M1691.37,-799.59C1775.5,-781.05 1922.08,-748.75 2016.78,-727.88"/>
<polygon fill="brown" stroke="brown" points="2017.29,-731.35 2026.3,-725.78 2015.78,-724.52 2017.29,-731.35"/>
<text text-anchor="middle" x="1950" y="-757.3" font-family="Times New Roman,serif" font-size="14.00">false</text>
</g>
<!-- j1558544717 -->
<g id="node18" class="node">
<title>j1558544717</title>
<polygon fill="none" stroke="blue" points="237.5,-652 80.5,-652 80.5,-616 237.5,-616 237.5,-652"/>
<text text-anchor="middle" x="159" y="-630.3" font-family="Times New Roman,serif" font-size="14.00">Fine. You got me. Sorry.</text>
</g>
<!-- j3931843368&#45;&gt;j1558544717 -->
<g id="edge17" class="edge">
<title>j3931843368&#45;&gt;j1558544717</title>
<path fill="none" stroke="black" d="M159,-688.81C159,-681.23 159,-672.1 159,-663.54"/>
<polygon fill="black" stroke="black" points="162.5,-663.54 159,-653.54 155.5,-663.54 162.5,-663.54"/>
</g>
<!-- j3446283092 -->
<g id="node19" class="node">
<title>j3446283092</title>
<polygon fill="none" stroke="blue" points="1435,-1139 957,-1139 957,-1103 1435,-1103 1435,-1139"/>
<text text-anchor="middle" x="1196" y="-1117.3" font-family="Times New Roman,serif" font-size="14.00">You don’t act scared of the Techrot. Why should you? You have no reason to be.</text>
</g>
<!-- j800563815&#45;&gt;j3446283092 -->
<g id="edge18" class="edge">
<title>j800563815&#45;&gt;j3446283092</title>
<path fill="none" stroke="black" d="M1178.57,-1175.81C1181.08,-1168.05 1184.12,-1158.68 1186.95,-1149.95"/>
<polygon fill="black" stroke="black" points="1190.26,-1151.06 1190.02,-1140.47 1183.61,-1148.9 1190.26,-1151.06"/>
</g>
<!-- j1683104735 -->
<g id="node20" class="node">
<title>j1683104735</title>
<polygon fill="none" stroke="blue" points="1770,-652 1456,-652 1456,-616 1770,-616 1770,-652"/>
<text text-anchor="middle" x="1613" y="-630.3" font-family="Times New Roman,serif" font-size="14.00">Höllvania’s had a whole bunch of would&#45;be saviours.</text>
</g>
<!-- j978385988&#45;&gt;j1683104735 -->
<g id="edge19" class="edge">
<title>j978385988&#45;&gt;j1683104735</title>
<path fill="none" stroke="black" d="M1600.12,-688.81C1601.97,-681.05 1604.22,-671.68 1606.31,-662.95"/>
<polygon fill="black" stroke="black" points="1609.65,-664.04 1608.57,-653.5 1602.84,-662.41 1609.65,-664.04"/>
</g>
<!-- j819264183&#45;&gt;j1683104735 -->
<g id="edge20" class="edge">
<title>j819264183&#45;&gt;j1683104735</title>
<path fill="none" stroke="black" d="M1985.52,-688.54C1912.83,-678.09 1820.39,-664.81 1745.78,-654.08"/>
<polygon fill="black" stroke="black" points="1746.33,-650.63 1735.94,-652.67 1745.34,-657.56 1746.33,-650.63"/>
</g>
<!-- j2241797348 -->
<g id="node21" class="node">
<title>j2241797348</title>
<polygon fill="none" stroke="blue" points="270,-544 48,-544 48,-508 270,-508 270,-544"/>
<text text-anchor="middle" x="159" y="-522.3" font-family="Times New Roman,serif" font-size="14.00">Eleanor’s being a bitter lemon today.</text>
</g>
<!-- j1558544717&#45;&gt;j2241797348 -->
<g id="edge21" class="edge">
<title>j1558544717&#45;&gt;j2241797348</title>
<path fill="none" stroke="black" d="M159,-615.97C159,-599.76 159,-575.06 159,-555.79"/>
<polygon fill="black" stroke="black" points="162.5,-555.85 159,-545.85 155.5,-555.85 162.5,-555.85"/>
</g>
<!-- j2437796317 -->
<g id="node22" class="node">
<title>j2437796317</title>
<polygon fill="none" stroke="blue" points="1290,-1066 1114,-1066 1114,-1030 1290,-1030 1290,-1066"/>
<text text-anchor="middle" x="1202" y="-1044.3" font-family="Times New Roman,serif" font-size="14.00">You’re not going to catch it.</text>
</g>
<!-- j3446283092&#45;&gt;j2437796317 -->
<g id="edge22" class="edge">
<title>j3446283092&#45;&gt;j2437796317</title>
<path fill="none" stroke="black" d="M1197.45,-1102.81C1198.1,-1095.14 1198.88,-1085.89 1199.61,-1077.24"/>
<polygon fill="black" stroke="black" points="1203.08,-1077.8 1200.43,-1067.54 1196.1,-1077.21 1203.08,-1077.8"/>
</g>
<!-- j3680936423 -->
<g id="node23" class="node">
<title>j3680936423</title>
<polygon fill="none" stroke="blue" points="1860,-544 1366,-544 1366,-508 1860,-508 1860,-544"/>
<text text-anchor="middle" x="1613" y="-522.3" font-family="Times New Roman,serif" font-size="14.00">The Princess, back in the day. Then Entrati. Viktor. My brother, of course. Now you.</text>
</g>
<!-- j1683104735&#45;&gt;j3680936423 -->
<g id="edge23" class="edge">
<title>j1683104735&#45;&gt;j3680936423</title>
<path fill="none" stroke="black" d="M1613,-615.97C1613,-599.76 1613,-575.06 1613,-555.79"/>
<polygon fill="black" stroke="black" points="1616.5,-555.85 1613,-545.85 1609.5,-555.85 1616.5,-555.85"/>
</g>
<!-- j2613717675 -->
<g id="node24" class="node">
<title>j2613717675</title>
<polygon fill="none" stroke="blue" points="253.5,-471 64.5,-471 64.5,-435 253.5,-435 253.5,-471"/>
<text text-anchor="middle" x="159" y="-449.3" font-family="Times New Roman,serif" font-size="14.00">Sol, I miss the taste of lemons.</text>
</g>
<!-- j2241797348&#45;&gt;j2613717675 -->
<g id="edge24" class="edge">
<title>j2241797348&#45;&gt;j2613717675</title>
<path fill="none" stroke="black" d="M159,-507.81C159,-500.23 159,-491.1 159,-482.54"/>
<polygon fill="black" stroke="black" points="162.5,-482.54 159,-472.54 155.5,-482.54 162.5,-482.54"/>
</g>
<!-- j1616467697 -->
<g id="node25" class="node">
<title>j1616467697</title>
<polygon fill="none" stroke="red" points="1056.5,-993 355.5,-993 355.5,-957 1056.5,-957 1056.5,-993"/>
<text text-anchor="middle" x="706" y="-971.3" font-family="Times New Roman,serif" font-size="14.00">You don’t know this thing like I do. It evolves. It mutates. It learns. The Orokin thought they could beat it. They never did.</text>
</g>
<!-- j2437796317&#45;&gt;j1616467697 -->
<g id="edge25" class="edge">
<title>j2437796317&#45;&gt;j1616467697</title>
<path fill="none" stroke="black" d="M1113.61,-1034.35C1037.43,-1023.44 926.32,-1007.54 839.34,-995.09"/>
<polygon fill="black" stroke="black" points="839.94,-991.64 829.55,-993.69 838.95,-998.57 839.94,-991.64"/>
</g>
<!-- j3531033907 -->
<g id="node26" class="node">
<title>j3531033907</title>
<polygon fill="none" stroke="red" points="1331,-993 1075,-993 1075,-957 1331,-957 1331,-993"/>
<text text-anchor="middle" x="1203" y="-971.3" font-family="Times New Roman,serif" font-size="14.00">Maybe you’re right. But we don’t KNOW.</text>
</g>
<!-- j2437796317&#45;&gt;j3531033907 -->
<g id="edge26" class="edge">
<title>j2437796317&#45;&gt;j3531033907</title>
<path fill="none" stroke="black" d="M1202.24,-1029.81C1202.35,-1022.23 1202.48,-1013.1 1202.6,-1004.54"/>
<polygon fill="black" stroke="black" points="1206.1,-1004.59 1202.74,-994.54 1199.1,-1004.49 1206.1,-1004.59"/>
</g>
<!-- j3973558191 -->
<g id="node27" class="node">
<title>j3973558191</title>
<polygon fill="none" stroke="red" points="1592,-993 1356,-993 1356,-957 1592,-957 1592,-993"/>
<text text-anchor="middle" x="1474" y="-971.3" font-family="Times New Roman,serif" font-size="14.00">You’re right. I could help people more.</text>
</g>
<!-- j2437796317&#45;&gt;j3973558191 -->
<g id="edge27" class="edge">
<title>j2437796317&#45;&gt;j3973558191</title>
<path fill="none" stroke="black" d="M1268.89,-1029.54C1307.42,-1019.48 1356.03,-1006.79 1396.26,-996.29"/>
<polygon fill="black" stroke="black" points="1397.12,-999.69 1405.91,-993.77 1395.35,-992.91 1397.12,-999.69"/>
</g>
<!-- j3435133852 -->
<g id="node28" class="node">
<title>j3435133852</title>
<polygon fill="none" stroke="blue" points="1685.5,-471 1496.5,-471 1496.5,-435 1685.5,-435 1685.5,-471"/>
<text text-anchor="middle" x="1591" y="-449.3" font-family="Times New Roman,serif" font-size="14.00">Do you see yourself as a hero?</text>
</g>
<!-- j3680936423&#45;&gt;j3435133852 -->
<g id="edge28" class="edge">
<title>j3680936423&#45;&gt;j3435133852</title>
<path fill="none" stroke="black" d="M1607.67,-507.81C1605.27,-500.05 1602.37,-490.68 1599.66,-481.95"/>
<polygon fill="black" stroke="black" points="1603.03,-480.99 1596.72,-472.47 1596.34,-483.06 1603.03,-480.99"/>
</g>
<!-- j881933978 -->
<g id="node29" class="node">
<title>j881933978</title>
<polygon fill="none" stroke="red" points="179.5,-398 18.5,-398 18.5,-362 179.5,-362 179.5,-398"/>
<text text-anchor="middle" x="99" y="-376.3" font-family="Times New Roman,serif" font-size="14.00">Something on your mind?</text>
</g>
<!-- j2613717675&#45;&gt;j881933978 -->
<g id="edge29" class="edge">
<title>j2613717675&#45;&gt;j881933978</title>
<path fill="none" stroke="black" d="M144.48,-434.81C137.33,-426.35 128.56,-415.98 120.64,-406.61"/>
<polygon fill="black" stroke="black" points="123.5,-404.56 114.37,-399.18 118.15,-409.08 123.5,-404.56"/>
</g>
<!-- j946782516 -->
<g id="node30" class="node">
<title>j946782516</title>
<polygon fill="none" stroke="red" points="284.5,-344 123.5,-344 123.5,-308 284.5,-308 284.5,-344"/>
<text text-anchor="middle" x="204" y="-322.3" font-family="Times New Roman,serif" font-size="14.00">Have fun with that. [End.]</text>
</g>
<!-- j2613717675&#45;&gt;j946782516 -->
<g id="edge30" class="edge">
<title>j2613717675&#45;&gt;j946782516</title>
<path fill="none" stroke="black" d="M169.93,-434.57C175.99,-424.26 183.24,-410.76 188,-398 193.07,-384.41 196.82,-368.72 199.4,-355.55"/>
<polygon fill="black" stroke="black" points="202.83,-356.26 201.18,-345.79 195.94,-355 202.83,-356.26"/>
</g>
<!-- j456008439 -->
<g id="node31" class="node">
<title>j456008439</title>
<ellipse fill="none" stroke="orange" cx="706" cy="-902" rx="117.78" ry="18"/>
<text text-anchor="middle" x="706" y="-898.3" font-family="Times New Roman,serif" font-size="14.00">Check boolean EleanorOrigin</text>
</g>
<!-- j1616467697&#45;&gt;j456008439 -->
<g id="edge31" class="edge">
<title>j1616467697&#45;&gt;j456008439</title>
<path fill="none" stroke="black" d="M706,-956.81C706,-949.23 706,-940.1 706,-931.54"/>
<polygon fill="black" stroke="black" points="709.5,-931.54 706,-921.54 702.5,-931.54 709.5,-931.54"/>
</g>
<!-- j2390958530 -->
<g id="node32" class="node">
<title>j2390958530</title>
<ellipse fill="none" stroke="orange" cx="1203" cy="-902" rx="64.19" ry="18"/>
<text text-anchor="middle" x="1203" y="-898.3" font-family="Times New Roman,serif" font-size="14.00">+10 Chemistry</text>
</g>
<!-- j3531033907&#45;&gt;j2390958530 -->
<g id="edge32" class="edge">
<title>j3531033907&#45;&gt;j2390958530</title>
<path fill="none" stroke="black" d="M1203,-956.81C1203,-949.23 1203,-940.1 1203,-931.54"/>
<polygon fill="black" stroke="black" points="1206.5,-931.54 1203,-921.54 1199.5,-931.54 1206.5,-931.54"/>
</g>
<!-- j3973558191&#45;&gt;j3543347026 -->
<g id="edge33" class="edge">
<title>j3973558191&#45;&gt;j3543347026</title>
<path fill="none" stroke="black" d="M1511.18,-956.63C1531.43,-947.18 1556.69,-935.38 1578.36,-925.25"/>
<polygon fill="black" stroke="black" points="1579.72,-928.48 1587.3,-921.08 1576.76,-922.14 1579.72,-928.48"/>
</g>
<!-- j1421556286 -->
<g id="node33" class="node">
<title>j1421556286</title>
<ellipse fill="none" stroke="orange" cx="1527" cy="-380" rx="161.37" ry="18"/>
<text text-anchor="middle" x="1527" y="-376.3" font-family="Times New Roman,serif" font-size="14.00">Boolean EleanorHatesHeroes is now true.</text>
</g>
<!-- j3435133852&#45;&gt;j1421556286 -->
<g id="edge34" class="edge">
<title>j3435133852&#45;&gt;j1421556286</title>
<path fill="none" stroke="black" d="M1575.51,-434.81C1567.8,-426.27 1558.34,-415.77 1549.83,-406.32"/>
<polygon fill="black" stroke="black" points="1552.66,-404.24 1543.36,-399.15 1547.46,-408.92 1552.66,-404.24"/>
</g>
<!-- j3565385647 -->
<g id="node34" class="node">
<title>j3565385647</title>
<ellipse fill="none" stroke="orange" cx="105" cy="-272" rx="64.19" ry="18"/>
<text text-anchor="middle" x="105" y="-268.3" font-family="Times New Roman,serif" font-size="14.00">+10 Chemistry</text>
</g>
<!-- j881933978&#45;&gt;j3565385647 -->
<g id="edge35" class="edge">
<title>j881933978&#45;&gt;j3565385647</title>
<path fill="none" stroke="black" d="M99.96,-361.97C100.88,-345.76 102.28,-321.06 103.37,-301.79"/>
<polygon fill="black" stroke="black" points="106.86,-302.03 103.93,-291.85 99.87,-301.64 106.86,-302.03"/>
</g>
<!-- j946782516&#45;&gt;Chat ends. -->
<g id="edge36" class="edge">
<title>j946782516&#45;&gt;Chat ends.</title>
<path fill="none" stroke="black" d="M223.27,-307.58C239.47,-290.95 260,-264.3 260,-236 260,-236 260,-236 260,-90 260,-55.35 296.45,-37.45 330.3,-28.3"/>
<polygon fill="black" stroke="black" points="330.81,-31.78 339.68,-25.98 329.13,-24.98 330.81,-31.78"/>
</g>
<!-- j803305336 -->
<g id="node35" class="node">
<title>j803305336</title>
<polygon fill="none" stroke="blue" points="819.5,-833 420.5,-833 420.5,-797 819.5,-797 819.5,-833"/>
<text text-anchor="middle" x="620" y="-811.3" font-family="Times New Roman,serif" font-size="14.00">Oh Gods, I remember now. Eris. The hulks. The surface of Deimos.</text>
</g>
<!-- j456008439&#45;&gt;j803305336 -->
<g id="edge37" class="edge">
<title>j456008439&#45;&gt;j803305336</title>
<path fill="none" stroke="green" d="M688.6,-883.8C676.32,-871.67 659.67,-855.21 645.85,-841.55"/>
<polygon fill="green" stroke="green" points="648.32,-839.07 638.75,-834.53 643.4,-844.05 648.32,-839.07"/>
<text text-anchor="middle" x="680" y="-854.8" font-family="Times New Roman,serif" font-size="14.00">true</text>
</g>
<!-- j3412306161 -->
<g id="node36" class="node">
<title>j3412306161</title>
<polygon fill="none" stroke="blue" points="968.5,-725 669.5,-725 669.5,-689 968.5,-689 968.5,-725"/>
<text text-anchor="middle" x="819" y="-703.3" font-family="Times New Roman,serif" font-size="14.00">I keep forgetting we don’t win against the Techrot.</text>
</g>
<!-- j456008439&#45;&gt;j3412306161 -->
<g id="edge38" class="edge">
<title>j456008439&#45;&gt;j3412306161</title>
<path fill="none" stroke="brown" d="M758.97,-885.58C784.61,-875.15 813.02,-858.51 828,-833 845.38,-803.42 837.93,-762.86 829.65,-736.07"/>
<polygon fill="brown" stroke="brown" points="832.98,-734.96 826.48,-726.59 826.34,-737.19 832.98,-734.96"/>
<text text-anchor="middle" x="852" y="-811.3" font-family="Times New Roman,serif" font-size="14.00">false</text>
</g>
<!-- j2356653806 -->
<g id="node37" class="node">
<title>j2356653806</title>
<polygon fill="none" stroke="blue" points="1377.5,-833 1038.5,-833 1038.5,-797 1377.5,-797 1377.5,-833"/>
<text text-anchor="middle" x="1208" y="-811.3" font-family="Times New Roman,serif" font-size="14.00">I suppose not. And I have no business speculating, really.</text>
</g>
<!-- j2390958530&#45;&gt;j2356653806 -->
<g id="edge39" class="edge">
<title>j2390958530&#45;&gt;j2356653806</title>
<path fill="none" stroke="black" d="M1204.01,-883.8C1204.67,-872.58 1205.55,-857.67 1206.31,-844.69"/>
<polygon fill="black" stroke="black" points="1209.79,-845.17 1206.88,-834.98 1202.8,-844.76 1209.79,-845.17"/>
</g>
<!-- j2765411754 -->
<g id="node38" class="node">
<title>j2765411754</title>
<polygon fill="none" stroke="red" points="1242.5,-290 1095.5,-290 1095.5,-254 1242.5,-254 1242.5,-290"/>
<text text-anchor="middle" x="1169" y="-268.3" font-family="Times New Roman,serif" font-size="14.00">I’m just trying my best.</text>
</g>
<!-- j1421556286&#45;&gt;j2765411754 -->
<g id="edge40" class="edge">
<title>j1421556286&#45;&gt;j2765411754</title>
<path fill="none" stroke="black" d="M1460.02,-363.25C1442.39,-358.09 1423.66,-351.67 1407,-344 1380.46,-331.78 1379.08,-318.95 1352,-308 1321.02,-295.47 1285.24,-287.35 1253.57,-282.13"/>
<polygon fill="black" stroke="black" points="1254.48,-278.73 1244.06,-280.63 1253.39,-285.64 1254.48,-278.73"/>
</g>
<!-- j3207841382 -->
<g id="node39" class="node">
<title>j3207841382</title>
<polygon fill="none" stroke="red" points="1385.5,-290 1312.5,-290 1312.5,-254 1385.5,-254 1385.5,-290"/>
<text text-anchor="middle" x="1349" y="-268.3" font-family="Times New Roman,serif" font-size="14.00">Yes. I do.</text>
</g>
<!-- j1421556286&#45;&gt;j3207841382 -->
<g id="edge41" class="edge">
<title>j1421556286&#45;&gt;j3207841382</title>
<path fill="none" stroke="black" d="M1498.4,-361.97C1468.48,-344.15 1421.3,-316.06 1387.98,-296.21"/>
<polygon fill="black" stroke="black" points="1389.8,-293.22 1379.42,-291.12 1386.22,-299.24 1389.8,-293.22"/>
</g>
<!-- j2468463590 -->
<g id="node40" class="node">
<title>j2468463590</title>
<polygon fill="none" stroke="red" points="1530,-290 1446,-290 1446,-254 1530,-254 1530,-290"/>
<text text-anchor="middle" x="1488" y="-268.3" font-family="Times New Roman,serif" font-size="14.00">No, I don’t.</text>
</g>
<!-- j1421556286&#45;&gt;j2468463590 -->
<g id="edge42" class="edge">
<title>j1421556286&#45;&gt;j2468463590</title>
<path fill="none" stroke="black" d="M1520.73,-361.97C1514.69,-345.53 1505.42,-320.35 1498.29,-300.97"/>
<polygon fill="black" stroke="black" points="1501.64,-299.94 1494.9,-291.76 1495.07,-302.35 1501.64,-299.94"/>
</g>
<!-- j2329757774 -->
<g id="node41" class="node">
<title>j2329757774</title>
<polygon fill="none" stroke="red" points="1707.5,-290 1552.5,-290 1552.5,-254 1707.5,-254 1707.5,-290"/>
<text text-anchor="middle" x="1630" y="-268.3" font-family="Times New Roman,serif" font-size="14.00">I don’t believe in heroes.</text>
</g>
<!-- j1421556286&#45;&gt;j2329757774 -->
<g id="edge43" class="edge">
<title>j1421556286&#45;&gt;j2329757774</title>
<path fill="none" stroke="black" d="M1543.55,-361.97C1560.19,-344.84 1586.06,-318.22 1605.16,-298.56"/>
<polygon fill="black" stroke="black" points="1607.64,-301.04 1612.1,-291.43 1602.62,-296.16 1607.64,-301.04"/>
</g>
<!-- j1100693396 -->
<g id="node42" class="node">
<title>j1100693396</title>
<polygon fill="none" stroke="blue" points="209.5,-217 4.5,-217 4.5,-181 209.5,-181 209.5,-217"/>
<text text-anchor="middle" x="107" y="-195.3" font-family="Times New Roman,serif" font-size="14.00">Nothing I’d be proud to admit to.</text>
</g>
<!-- j3565385647&#45;&gt;j1100693396 -->
<g id="edge44" class="edge">
<title>j3565385647&#45;&gt;j1100693396</title>
<path fill="none" stroke="black" d="M105.48,-253.81C105.7,-246.14 105.96,-236.89 106.2,-228.24"/>
<polygon fill="black" stroke="black" points="109.69,-228.64 106.48,-218.54 102.7,-228.44 109.69,-228.64"/>
</g>
<!-- j803305336&#45;&gt;j3412306161 -->
<g id="edge45" class="edge">
<title>j803305336&#45;&gt;j3412306161</title>
<path fill="none" stroke="black" d="M652.42,-796.73C686.14,-778.77 739.11,-750.55 776.24,-730.78"/>
<polygon fill="black" stroke="black" points="777.75,-733.94 784.93,-726.15 774.46,-727.76 777.75,-733.94"/>
</g>
<!-- j2970284232 -->
<g id="node43" class="node">
<title>j2970284232</title>
<polygon fill="none" stroke="blue" points="994,-652 644,-652 644,-616 994,-616 994,-652"/>
<text text-anchor="middle" x="819" y="-630.3" font-family="Times New Roman,serif" font-size="14.00">It makes what we’re trying to do here feel pointless, almost.</text>
</g>
<!-- j3412306161&#45;&gt;j2970284232 -->
<g id="edge46" class="edge">
<title>j3412306161&#45;&gt;j2970284232</title>
<path fill="none" stroke="black" d="M819,-688.81C819,-681.23 819,-672.1 819,-663.54"/>
<polygon fill="black" stroke="black" points="822.5,-663.54 819,-653.54 815.5,-663.54 822.5,-663.54"/>
</g>
<!-- j2307899773 -->
<g id="node44" class="node">
<title>j2307899773</title>
<polygon fill="none" stroke="blue" points="1372,-725 1064,-725 1064,-689 1372,-689 1372,-725"/>
<text text-anchor="middle" x="1218" y="-703.3" font-family="Times New Roman,serif" font-size="14.00">It just galls me to see you so above it all, you know?</text>
</g>
<!-- j2356653806&#45;&gt;j2307899773 -->
<g id="edge47" class="edge">
<title>j2356653806&#45;&gt;j2307899773</title>
<path fill="none" stroke="black" d="M1209.61,-796.97C1211.14,-780.76 1213.47,-756.06 1215.28,-736.79"/>
<polygon fill="black" stroke="black" points="1218.77,-737.13 1216.22,-726.85 1211.8,-736.47 1218.77,-737.13"/>
</g>
<!-- j940167697 -->
<g id="node45" class="node">
<title>j940167697</title>
<ellipse fill="none" stroke="orange" cx="969" cy="-199" rx="64.19" ry="18"/>
<text text-anchor="middle" x="969" y="-195.3" font-family="Times New Roman,serif" font-size="14.00">+10 Chemistry</text>
</g>
<!-- j2765411754&#45;&gt;j940167697 -->
<g id="edge48" class="edge">
<title>j2765411754&#45;&gt;j940167697</title>
<path fill="none" stroke="black" d="M1119.82,-253.54C1088.88,-242.56 1049.11,-228.44 1018.18,-217.46"/>
<polygon fill="black" stroke="black" points="1019.65,-214.27 1009.06,-214.22 1017.31,-220.86 1019.65,-214.27"/>
</g>
<!-- j1566549993 -->
<g id="node46" class="node">
<title>j1566549993</title>
<polygon fill="none" stroke="blue" points="1379,-163 677,-163 677,-127 1379,-127 1379,-163"/>
<text text-anchor="middle" x="1028" y="-141.3" font-family="Times New Roman,serif" font-size="14.00">I simply cannot understand how you were trapped in a storybook kingdom and STILL haven’t outgrown that sort of thing.</text>
</g>
<!-- j3207841382&#45;&gt;j1566549993 -->
<g id="edge49" class="edge">
<title>j3207841382&#45;&gt;j1566549993</title>
<path fill="none" stroke="black" d="M1312.18,-256.66C1256.1,-234.82 1148.9,-193.08 1083.39,-167.57"/>
<polygon fill="black" stroke="black" points="1084.86,-164.38 1074.27,-164.02 1082.32,-170.91 1084.86,-164.38"/>
</g>
<!-- j142663288 -->
<g id="node47" class="node">
<title>j142663288</title>
<ellipse fill="none" stroke="orange" cx="1477" cy="-199" rx="64.19" ry="18"/>
<text text-anchor="middle" x="1477" y="-195.3" font-family="Times New Roman,serif" font-size="14.00">+15 Chemistry</text>
</g>
<!-- j2468463590&#45;&gt;j142663288 -->
<g id="edge50" class="edge">
<title>j2468463590&#45;&gt;j142663288</title>
<path fill="none" stroke="black" d="M1485.34,-253.81C1484.15,-246.14 1482.72,-236.89 1481.38,-228.24"/>
<polygon fill="black" stroke="black" points="1484.86,-227.87 1479.87,-218.52 1477.94,-228.94 1484.86,-227.87"/>
</g>
<!-- j466717588 -->
<g id="node48" class="node">
<title>j466717588</title>
<ellipse fill="none" stroke="orange" cx="1640" cy="-199" rx="64.19" ry="18"/>
<text text-anchor="middle" x="1640" y="-195.3" font-family="Times New Roman,serif" font-size="14.00">+20 Chemistry</text>
</g>
<!-- j2329757774&#45;&gt;j466717588 -->
<g id="edge51" class="edge">
<title>j2329757774&#45;&gt;j466717588</title>
<path fill="none" stroke="black" d="M1632.42,-253.81C1633.5,-246.14 1634.8,-236.89 1636.02,-228.24"/>
<polygon fill="black" stroke="black" points="1639.46,-228.92 1637.39,-218.53 1632.53,-227.94 1639.46,-228.92"/>
</g>
<!-- j1683209689 -->
<g id="node49" class="node">
<title>j1683209689</title>
<polygon fill="none" stroke="blue" points="230,-109 0,-109 0,-73 230,-73 230,-109"/>
<text text-anchor="middle" x="115" y="-87.3" font-family="Times New Roman,serif" font-size="14.00">But thanks for checking in, regardless.</text>
</g>
<!-- j1100693396&#45;&gt;j1683209689 -->
<g id="edge52" class="edge">
<title>j1100693396&#45;&gt;j1683209689</title>
<path fill="none" stroke="black" d="M108.29,-180.97C109.51,-164.76 111.37,-140.06 112.83,-120.79"/>
<polygon fill="black" stroke="black" points="116.31,-121.08 113.58,-110.85 109.33,-120.56 116.31,-121.08"/>
</g>
<!-- j3042632252 -->
<g id="node50" class="node">
<title>j3042632252</title>
<polygon fill="none" stroke="blue" points="1310,-544 328,-544 328,-508 1310,-508 1310,-544"/>
<text text-anchor="middle" x="819" y="-522.3" font-family="Times New Roman,serif" font-size="14.00">Sol. Here I am feeling sorry for myself for being a plague victim, and dumping on you for being immune, and you’ve seen whole worlds get eaten by the selfsame poxy crud.</text>
</g>
<!-- j2970284232&#45;&gt;j3042632252 -->
<g id="edge53" class="edge">
<title>j2970284232&#45;&gt;j3042632252</title>
<path fill="none" stroke="black" d="M819,-615.97C819,-599.76 819,-575.06 819,-555.79"/>
<polygon fill="black" stroke="black" points="822.5,-555.85 819,-545.85 815.5,-555.85 822.5,-555.85"/>
</g>
<!-- j3146226323 -->
<g id="node51" class="node">
<title>j3146226323</title>
<polygon fill="none" stroke="blue" points="1504,-598 1128,-598 1128,-562 1504,-562 1504,-598"/>
<text text-anchor="middle" x="1316" y="-576.3" font-family="Times New Roman,serif" font-size="14.00">Ignore me. Oozing blemishes are ugly enough. Self&#45;pity is uglier.</text>
</g>
<!-- j2307899773&#45;&gt;j3146226323 -->
<g id="edge54" class="edge">
<title>j2307899773&#45;&gt;j3146226323</title>
<path fill="none" stroke="black" d="M1231.63,-688.62C1248.23,-667.44 1276.43,-631.47 1295.62,-607"/>
<polygon fill="black" stroke="black" points="1298.14,-609.45 1301.56,-599.42 1292.63,-605.13 1298.14,-609.45"/>
</g>
<!-- j1780869454 -->
<g id="node52" class="node">
<title>j1780869454</title>
<polygon fill="none" stroke="blue" points="603,-109 403,-109 403,-73 603,-73 603,-109"/>
<text text-anchor="middle" x="503" y="-87.3" font-family="Times New Roman,serif" font-size="14.00">Good enough. Carry on, soldier.</text>
</g>
<!-- j940167697&#45;&gt;j1780869454 -->
<g id="edge55" class="edge">
<title>j940167697&#45;&gt;j1780869454</title>
<path fill="none" stroke="black" d="M905.45,-195.96C843.84,-192.73 748.18,-184.42 668,-163 624.77,-151.45 578.17,-130.55 545.56,-114.4"/>
<polygon fill="black" stroke="black" points="547.34,-111.38 536.83,-110.02 544.2,-117.64 547.34,-111.38"/>
</g>
<!-- j1566549993&#45;&gt;Chat ends. -->
<g id="edge56" class="edge">
<title>j1566549993&#45;&gt;Chat ends.</title>
<path fill="none" stroke="black" d="M722.34,-126.54C691.67,-121.98 665.98,-116.24 650,-109 628.81,-99.4 632.45,-84.09 612,-73 560.13,-44.87 493.71,-31.24 446.51,-24.74"/>
<polygon fill="black" stroke="black" points="447.12,-21.28 436.75,-23.46 446.21,-28.23 447.12,-21.28"/>
</g>
<!-- j2547198497 -->
<g id="node53" class="node">
<title>j2547198497</title>
<polygon fill="none" stroke="blue" points="1227,-109 659,-109 659,-73 1227,-73 1227,-109"/>
<text text-anchor="middle" x="943" y="-87.3" font-family="Times New Roman,serif" font-size="14.00">I’m glad. Someone who’s lived as many centuries as you have OUGHT to be a grown&#45;up by now.</text>
</g>
<!-- j142663288&#45;&gt;j2547198497 -->
<g id="edge57" class="edge">
<title>j142663288&#45;&gt;j2547198497</title>
<path fill="none" stroke="black" d="M1461.86,-181.07C1445.51,-164.07 1417.78,-138.76 1388,-127 1378.57,-123.28 1302.47,-116.75 1215.79,-110.33"/>
<polygon fill="black" stroke="black" points="1216.07,-106.84 1205.84,-109.6 1215.56,-113.82 1216.07,-106.84"/>
</g>
<!-- j3103347794 -->
<g id="node54" class="node">
<title>j3103347794</title>
<polygon fill="none" stroke="blue" points="2244.5,-109 1245.5,-109 1245.5,-73 2244.5,-73 2244.5,-109"/>
<text text-anchor="middle" x="1745" y="-87.3" font-family="Times New Roman,serif" font-size="14.00">Good for you. Because I’ve seen what happened when one little boy thought he’d go off on a Hero’s Journey and started thinking of the rest of us as his supporting characters.</text>
</g>
<!-- j466717588&#45;&gt;j3103347794 -->
<g id="edge58" class="edge">
<title>j466717588&#45;&gt;j3103347794</title>
<path fill="none" stroke="black" d="M1656.41,-181.44C1673.46,-164.22 1700.38,-137.05 1720.07,-117.17"/>
<polygon fill="black" stroke="black" points="1722.4,-119.79 1726.95,-110.22 1717.42,-114.87 1722.4,-119.79"/>
</g>
<!-- j1683209689&#45;&gt;Chat ends. -->
<g id="edge59" class="edge">
<title>j1683209689&#45;&gt;Chat ends.</title>
<path fill="none" stroke="black" d="M177.22,-72.56C198.95,-66.56 223.52,-59.88 246,-54 275.47,-46.3 308.5,-38.07 335.19,-31.53"/>
<polygon fill="black" stroke="black" points="335.86,-34.97 344.74,-29.2 334.19,-28.17 335.86,-34.97"/>
</g>
<!-- j2430714741 -->
<g id="node55" class="node">
<title>j2430714741</title>
<ellipse fill="none" stroke="orange" cx="819" cy="-453" rx="64.19" ry="18"/>
<text text-anchor="middle" x="819" y="-449.3" font-family="Times New Roman,serif" font-size="14.00">+20 Chemistry</text>
</g>
<!-- j3042632252&#45;&gt;j2430714741 -->
<g id="edge60" class="edge">
<title>j3042632252&#45;&gt;j2430714741</title>
<path fill="none" stroke="black" d="M819,-507.81C819,-500.23 819,-491.1 819,-482.54"/>
<polygon fill="black" stroke="black" points="822.5,-482.54 819,-472.54 815.5,-482.54 822.5,-482.54"/>
</g>
<!-- j862889717 -->
<g id="node56" class="node">
<title>j862889717</title>
<ellipse fill="none" stroke="orange" cx="819" cy="-272" rx="155.17" ry="18"/>
<text text-anchor="middle" x="819" y="-268.3" font-family="Times New Roman,serif" font-size="14.00">Boolean EleanorGalvanized is now true.</text>
</g>
<!-- j3146226323&#45;&gt;j862889717 -->
<g id="edge61" class="edge">
<title>j3146226323&#45;&gt;j862889717</title>
<path fill="none" stroke="black" d="M1322.96,-561.58C1329.41,-543.87 1338,-515.47 1338,-490 1338,-490 1338,-490 1338,-379 1338,-338.82 1096.16,-304.1 942.65,-286.11"/>
<polygon fill="black" stroke="black" points="943.14,-282.65 932.8,-284.97 942.33,-289.6 943.14,-282.65"/>
</g>
<!-- j1780869454&#45;&gt;Chat ends. -->
<g id="edge62" class="edge">
<title>j1780869454&#45;&gt;Chat ends.</title>
<path fill="none" stroke="black" d="M474.62,-72.63C458.48,-62.75 438.14,-50.3 421.12,-39.89"/>
<polygon fill="black" stroke="black" points="423.19,-37.05 412.84,-34.81 419.54,-43.02 423.19,-37.05"/>
</g>
<!-- j2547198497&#45;&gt;Chat ends. -->
<g id="edge63" class="edge">
<title>j2547198497&#45;&gt;Chat ends.</title>
<path fill="none" stroke="black" d="M806.27,-72.54C690.38,-57.74 529.88,-37.25 445.01,-26.41"/>
<polygon fill="black" stroke="black" points="445.66,-22.96 435.29,-25.17 444.77,-29.91 445.66,-22.96"/>
</g>
<!-- j3103347794&#45;&gt;Chat ends. -->
<g id="edge64" class="edge">
<title>j3103347794&#45;&gt;Chat ends.</title>
<path fill="none" stroke="black" d="M1410.62,-72.52C1084.47,-55.47 613.98,-30.87 447.86,-22.18"/>
<polygon fill="black" stroke="black" points="448.12,-18.69 437.95,-21.66 447.75,-25.68 448.12,-18.69"/>
</g>
<!-- j1459319146 -->
<g id="node57" class="node">
<title>j1459319146</title>
<polygon fill="none" stroke="blue" points="935.5,-398 702.5,-398 702.5,-362 935.5,-362 935.5,-398"/>
<text text-anchor="middle" x="819" y="-376.3" font-family="Times New Roman,serif" font-size="14.00">I think I’ll count what blessings I have.</text>
</g>
<!-- j2430714741&#45;&gt;j1459319146 -->
<g id="edge65" class="edge">
<title>j2430714741&#45;&gt;j1459319146</title>
<path fill="none" stroke="black" d="M819,-434.81C819,-427.23 819,-418.1 819,-409.54"/>
<polygon fill="black" stroke="black" points="822.5,-409.54 819,-399.54 815.5,-409.54 822.5,-409.54"/>
</g>
<!-- j862889717&#45;&gt;Chat ends. -->
<g id="edge66" class="edge">
<title>j862889717&#45;&gt;Chat ends.</title>
<path fill="none" stroke="black" d="M700.67,-260.03C601.78,-244.08 465.76,-204.96 394,-109 381,-91.62 380.02,-66.71 381.85,-47.5"/>
<polygon fill="black" stroke="black" points="385.32,-47.99 383.13,-37.62 378.38,-47.09 385.32,-47.99"/>
</g>
<!-- j1459319146&#45;&gt;j862889717 -->
<g id="edge67" class="edge">
<title>j1459319146&#45;&gt;j862889717</title>
<path fill="none" stroke="black" d="M819,-361.97C819,-345.76 819,-321.06 819,-301.79"/>
<polygon fill="black" stroke="black" points="822.5,-301.85 819,-291.85 815.5,-301.85 822.5,-301.85"/>
</g>
</g>
</svg>
