<?xml version="1.0" encoding="UTF-8" standalone="no"?>
<!DOCTYPE svg PUBLIC "-//W3C//DTD SVG 1.1//EN"
 "http://www.w3.org/Graphics/SVG/1.1/DTD/svg11.dtd">
<!-- Generated by graphviz version 7.1.0 (20230121.1956)
 -->
<!-- Pages: 1 -->
<svg width="2042pt" height="1484pt"
 viewBox="0.00 0.00 2042.00 1484.00" xmlns="http://www.w3.org/2000/svg" xmlns:xlink="http://www.w3.org/1999/xlink">
<g id="graph0" class="graph" transform="scale(1 1) rotate(0) translate(4 1480)">
<polygon fill="white" stroke="none" points="-4,4 -4,-1480 2038,-1480 2038,4 -4,4"/>
<!-- EleanorRank1Convo1 begins. -->
<g id="node1" class="node">
<title>EleanorRank1Convo1 begins.</title>
<ellipse fill="none" stroke="orange" cx="1555" cy="-1458" rx="118.88" ry="18"/>
<text text-anchor="middle" x="1555" y="-1454.3" font-family="Times New Roman,serif" font-size="14.00">EleanorRank1Convo1 begins.</text>
</g>
<!-- j571060905 -->
<g id="node2" class="node">
<title>j571060905</title>
<polygon fill="none" stroke="red" points="1587.5,-1404 1522.5,-1404 1522.5,-1368 1587.5,-1368 1587.5,-1404"/>
<text text-anchor="middle" x="1555" y="-1382.3" font-family="Times New Roman,serif" font-size="14.00">Eleanor?</text>
</g>
<!-- EleanorRank1Convo1 begins.&#45;&gt;j571060905 -->
<g id="edge1" class="edge">
<title>EleanorRank1Convo1 begins.&#45;&gt;j571060905</title>
<path fill="none" stroke="black" d="M1555,-1439.7C1555,-1432.41 1555,-1423.73 1555,-1415.54"/>
<polygon fill="black" stroke="black" points="1558.5,-1415.62 1555,-1405.62 1551.5,-1415.62 1558.5,-1415.62"/>
</g>
<!-- j2008525619 -->
<g id="node3" class="node">
<title>j2008525619</title>
<polygon fill="none" stroke="blue" points="1583,-1332 1527,-1332 1527,-1296 1583,-1296 1583,-1332"/>
<text text-anchor="middle" x="1555" y="-1310.3" font-family="Times New Roman,serif" font-size="14.00">Mmm?</text>
</g>
<!-- j571060905&#45;&gt;j2008525619 -->
<g id="edge2" class="edge">
<title>j571060905&#45;&gt;j2008525619</title>
<path fill="none" stroke="black" d="M1555,-1367.7C1555,-1360.41 1555,-1351.73 1555,-1343.54"/>
<polygon fill="black" stroke="black" points="1558.5,-1343.62 1555,-1333.62 1551.5,-1343.62 1558.5,-1343.62"/>
</g>
<!-- j2880017390 -->
<g id="node4" class="node">
<title>j2880017390</title>
<polygon fill="none" stroke="red" points="1440.5,-1260 1087.5,-1260 1087.5,-1224 1440.5,-1224 1440.5,-1260"/>
<text text-anchor="middle" x="1264" y="-1238.3" font-family="Times New Roman,serif" font-size="14.00">Perché usi questa chat? Puoi parlare telepaticamente, giusto?</text>
</g>
<!-- j2008525619&#45;&gt;j2880017390 -->
<g id="edge3" class="edge">
<title>j2008525619&#45;&gt;j2880017390</title>
<path fill="none" stroke="black" d="M1526.57,-1306.16C1485.5,-1296.28 1407.92,-1277.62 1347.69,-1263.13"/>
<polygon fill="black" stroke="black" points="1348.67,-1259.77 1338.13,-1260.83 1347.04,-1266.57 1348.67,-1259.77"/>
</g>
<!-- j3271347899 -->
<g id="node5" class="node">
<title>j3271347899</title>
<polygon fill="none" stroke="red" points="1629.5,-1116 1480.5,-1116 1480.5,-1080 1629.5,-1080 1629.5,-1116"/>
<text text-anchor="middle" x="1555" y="-1094.3" font-family="Times New Roman,serif" font-size="14.00">QUANTO sei Infested?</text>
</g>
<!-- j2008525619&#45;&gt;j3271347899 -->
<g id="edge4" class="edge">
<title>j2008525619&#45;&gt;j3271347899</title>
<path fill="none" stroke="black" d="M1555,-1295.85C1555,-1259.14 1555,-1172.66 1555,-1127.53"/>
<polygon fill="black" stroke="black" points="1558.5,-1127.75 1555,-1117.75 1551.5,-1127.75 1558.5,-1127.75"/>
</g>
<!-- j719235857 -->
<g id="node6" class="node">
<title>j719235857</title>
<polygon fill="none" stroke="red" points="2011,-1260 1741,-1260 1741,-1224 2011,-1224 2011,-1260"/>
<text text-anchor="middle" x="1876" y="-1238.3" font-family="Times New Roman,serif" font-size="14.00">Voglio solo accertarmi che tu sia viva. [Fine.]</text>
</g>
<!-- j2008525619&#45;&gt;j719235857 -->
<g id="edge5" class="edge">
<title>j2008525619&#45;&gt;j719235857</title>
<path fill="none" stroke="black" d="M1583.49,-1306.79C1628.18,-1297.04 1716.7,-1277.74 1784.71,-1262.91"/>
<polygon fill="black" stroke="black" points="1785.36,-1266.35 1794.38,-1260.8 1783.87,-1259.51 1785.36,-1266.35"/>
</g>
<!-- j2098009140 -->
<g id="node7" class="node">
<title>j2098009140</title>
<polygon fill="none" stroke="blue" points="1148,-1188 1038,-1188 1038,-1152 1148,-1152 1148,-1188"/>
<text text-anchor="middle" x="1093" y="-1166.3" font-family="Times New Roman,serif" font-size="14.00">Domanda astuta.</text>
</g>
<!-- j2880017390&#45;&gt;j2098009140 -->
<g id="edge6" class="edge">
<title>j2880017390&#45;&gt;j2098009140</title>
<path fill="none" stroke="black" d="M1221.29,-1223.52C1198.46,-1214.17 1170.13,-1202.57 1145.91,-1192.66"/>
<polygon fill="black" stroke="black" points="1147.44,-1189.5 1136.86,-1188.96 1144.79,-1195.98 1147.44,-1189.5"/>
</g>
<!-- j399206611 -->
<g id="node8" class="node">
<title>j399206611</title>
<polygon fill="none" stroke="blue" points="1716,-684 1394,-684 1394,-648 1716,-648 1716,-684"/>
<text text-anchor="middle" x="1555" y="-662.3" font-family="Times New Roman,serif" font-size="14.00">Lo chiedi perché sei preoccupato o per pura curiosità?</text>
</g>
<!-- j3271347899&#45;&gt;j399206611 -->
<g id="edge7" class="edge">
<title>j3271347899&#45;&gt;j399206611</title>
<path fill="none" stroke="black" d="M1555,-1079.51C1555,-1052.71 1555,-999.87 1555,-955 1555,-955 1555,-955 1555,-809 1555,-769.74 1555,-724.38 1555,-695.69"/>
<polygon fill="black" stroke="black" points="1558.5,-696 1555,-686 1551.5,-696 1558.5,-696"/>
</g>
<!-- j3045142829 -->
<g id="node9" class="node">
<title>j3045142829</title>
<polygon fill="none" stroke="blue" points="2009,-1188 1769,-1188 1769,-1152 2009,-1152 2009,-1188"/>
<text text-anchor="middle" x="1889" y="-1166.3" font-family="Times New Roman,serif" font-size="14.00">Viva e ora anche leggermente infastidita.</text>
</g>
<!-- j719235857&#45;&gt;j3045142829 -->
<g id="edge8" class="edge">
<title>j719235857&#45;&gt;j3045142829</title>
<path fill="none" stroke="black" d="M1879.21,-1223.7C1880.58,-1216.32 1882.22,-1207.52 1883.75,-1199.25"/>
<polygon fill="black" stroke="black" points="1887.16,-1200.06 1885.55,-1189.59 1880.28,-1198.79 1887.16,-1200.06"/>
</g>
<!-- j671297317 -->
<g id="node10" class="node">
<title>j671297317</title>
<polygon fill="none" stroke="blue" points="1137.5,-1116 834.5,-1116 834.5,-1080 1137.5,-1080 1137.5,-1116"/>
<text text-anchor="middle" x="986" y="-1094.3" font-family="Times New Roman,serif" font-size="14.00">Onestamente, si tratta di due cose. Controllo e arte.</text>
</g>
<!-- j2098009140&#45;&gt;j671297317 -->
<g id="edge9" class="edge">
<title>j2098009140&#45;&gt;j671297317</title>
<path fill="none" stroke="black" d="M1066.28,-1151.52C1052.77,-1142.68 1036.19,-1131.84 1021.62,-1122.3"/>
<polygon fill="black" stroke="black" points="1023.94,-1119.63 1013.65,-1117.09 1020.1,-1125.49 1023.94,-1119.63"/>
</g>
<!-- j2661639371 -->
<g id="node11" class="node">
<title>j2661639371</title>
<polygon fill="none" stroke="red" points="1788,-612 1678,-612 1678,-576 1788,-576 1788,-612"/>
<text text-anchor="middle" x="1733" y="-590.3" font-family="Times New Roman,serif" font-size="14.00">Preoccupazione.</text>
</g>
<!-- j399206611&#45;&gt;j2661639371 -->
<g id="edge10" class="edge">
<title>j399206611&#45;&gt;j2661639371</title>
<path fill="none" stroke="black" d="M1599.46,-647.52C1623.33,-638.13 1652.97,-626.47 1678.26,-616.53"/>
<polygon fill="black" stroke="black" points="1679.37,-619.85 1687.39,-612.94 1676.81,-613.34 1679.37,-619.85"/>
</g>
<!-- j1566839213 -->
<g id="node12" class="node">
<title>j1566839213</title>
<polygon fill="none" stroke="red" points="1599.5,-612 1462.5,-612 1462.5,-576 1599.5,-576 1599.5,-612"/>
<text text-anchor="middle" x="1531" y="-590.3" font-family="Times New Roman,serif" font-size="14.00">Pura curiosità. [Fine.]</text>
</g>
<!-- j399206611&#45;&gt;j1566839213 -->
<g id="edge11" class="edge">
<title>j399206611&#45;&gt;j1566839213</title>
<path fill="none" stroke="black" d="M1549.07,-647.7C1546.51,-640.24 1543.45,-631.32 1540.59,-622.97"/>
<polygon fill="black" stroke="black" points="1543.91,-621.86 1537.36,-613.54 1537.29,-624.13 1543.91,-621.86"/>
</g>
<!-- j1842157897 -->
<g id="node13" class="node">
<title>j1842157897</title>
<polygon fill="none" stroke="blue" points="2034,-1044 1980,-1044 1980,-1008 2034,-1008 2034,-1044"/>
<text text-anchor="middle" x="2007" y="-1022.3" font-family="Times New Roman,serif" font-size="14.00">Ciao.</text>
</g>
<!-- j3045142829&#45;&gt;j1842157897 -->
<g id="edge12" class="edge">
<title>j3045142829&#45;&gt;j1842157897</title>
<path fill="none" stroke="black" d="M1903.47,-1151.59C1924.02,-1126.86 1961.79,-1081.41 1985.59,-1052.77"/>
<polygon fill="black" stroke="black" points="1988.11,-1055.2 1991.81,-1045.27 1982.73,-1050.73 1988.11,-1055.2"/>
</g>
<!-- j4146875063 -->
<g id="node14" class="node">
<title>j4146875063</title>
<polygon fill="none" stroke="red" points="668,-972 466,-972 466,-936 668,-936 668,-972"/>
<text text-anchor="middle" x="567" y="-950.3" font-family="Times New Roman,serif" font-size="14.00">La telepatia non ti dà il controllo?</text>
</g>
<!-- j671297317&#45;&gt;j4146875063 -->
<g id="edge13" class="edge">
<title>j671297317&#45;&gt;j4146875063</title>
<path fill="none" stroke="black" d="M930.16,-1079.62C897.89,-1069.46 856.57,-1056.27 820,-1044 753.23,-1021.6 677.05,-994.61 625.88,-976.26"/>
<polygon fill="black" stroke="black" points="627.38,-973.08 616.78,-972.99 625.01,-979.67 627.38,-973.08"/>
</g>
<!-- j2777423033 -->
<g id="node15" class="node">
<title>j2777423033</title>
<polygon fill="none" stroke="red" points="1143,-1044 829,-1044 829,-1008 1143,-1008 1143,-1044"/>
<text text-anchor="middle" x="986" y="-1022.3" font-family="Times New Roman,serif" font-size="14.00">In che modo un messaggio di chat è definibile &quot;arte&quot;?</text>
</g>
<!-- j671297317&#45;&gt;j2777423033 -->
<g id="edge14" class="edge">
<title>j671297317&#45;&gt;j2777423033</title>
<path fill="none" stroke="black" d="M986,-1079.7C986,-1072.41 986,-1063.73 986,-1055.54"/>
<polygon fill="black" stroke="black" points="989.5,-1055.62 986,-1045.62 982.5,-1055.62 989.5,-1055.62"/>
</g>
<!-- j2590985443 -->
<g id="node16" class="node">
<title>j2590985443</title>
<polygon fill="none" stroke="blue" points="1849.5,-540 1750.5,-540 1750.5,-504 1849.5,-504 1849.5,-540"/>
<text text-anchor="middle" x="1800" y="-518.3" font-family="Times New Roman,serif" font-size="14.00">Ah, che dolce!</text>
</g>
<!-- j2661639371&#45;&gt;j2590985443 -->
<g id="edge15" class="edge">
<title>j2661639371&#45;&gt;j2590985443</title>
<path fill="none" stroke="black" d="M1749.56,-575.7C1757.43,-567.47 1766.99,-557.48 1775.67,-548.42"/>
<polygon fill="black" stroke="black" points="1778.2,-550.84 1782.58,-541.2 1773.14,-546 1778.2,-550.84"/>
</g>
<!-- j3592624113 -->
<g id="node17" class="node">
<title>j3592624113</title>
<polygon fill="none" stroke="blue" points="1732,-540 1316,-540 1316,-504 1732,-504 1732,-540"/>
<text text-anchor="middle" x="1524" y="-518.3" font-family="Times New Roman,serif" font-size="14.00">Posso suggerirti di trovare qualcos&#39;altro con cui occupare il tuo tempo?</text>
</g>
<!-- j1566839213&#45;&gt;j3592624113 -->
<g id="edge16" class="edge">
<title>j1566839213&#45;&gt;j3592624113</title>
<path fill="none" stroke="black" d="M1529.27,-575.7C1528.54,-568.41 1527.67,-559.73 1526.85,-551.54"/>
<polygon fill="black" stroke="black" points="1530.34,-551.21 1525.86,-541.61 1523.37,-551.91 1530.34,-551.21"/>
</g>
<!-- Chat ends. -->
<g id="node18" class="node">
<title>Chat ends.</title>
<ellipse fill="none" stroke="orange" cx="1450" cy="-18" rx="50.09" ry="18"/>
<text text-anchor="middle" x="1450" y="-14.3" font-family="Times New Roman,serif" font-size="14.00">Chat ends.</text>
</g>
<!-- j1842157897&#45;&gt;Chat ends. -->
<g id="edge17" class="edge">
<title>j1842157897&#45;&gt;Chat ends.</title>
<path fill="none" stroke="black" d="M2008.42,-1007.52C2010.46,-980.74 2014,-927.92 2014,-883 2014,-883 2014,-883 2014,-161 2014,-58.14 1656.79,-29.06 1510.93,-21.48"/>
<polygon fill="black" stroke="black" points="1511.23,-17.99 1501.07,-20.98 1510.88,-24.98 1511.23,-17.99"/>
</g>
<!-- j1307230353 -->
<g id="node19" class="node">
<title>j1307230353</title>
<polygon fill="none" stroke="blue" points="735.5,-900 322.5,-900 322.5,-864 735.5,-864 735.5,-900"/>
<text text-anchor="middle" x="529" y="-878.3" font-family="Times New Roman,serif" font-size="14.00">Guarda, sono stata cresciuta per essere educata. È una cosa britannica.</text>
</g>
<!-- j4146875063&#45;&gt;j1307230353 -->
<g id="edge18" class="edge">
<title>j4146875063&#45;&gt;j1307230353</title>
<path fill="none" stroke="black" d="M557.61,-935.7C553.42,-927.98 548.39,-918.71 543.72,-910.11"/>
<polygon fill="black" stroke="black" points="546.85,-908.55 539.01,-901.43 540.7,-911.89 546.85,-908.55"/>
</g>
<!-- j2071918290 -->
<g id="node20" class="node">
<title>j2071918290</title>
<polygon fill="none" stroke="blue" points="1267,-972 705,-972 705,-936 1267,-936 1267,-972"/>
<text text-anchor="middle" x="986" y="-950.3" font-family="Times New Roman,serif" font-size="14.00">Perché devo comporre ogni frase. Non posso semplicemente riversare il significato nella tua testa.</text>
</g>
<!-- j2777423033&#45;&gt;j2071918290 -->
<g id="edge19" class="edge">
<title>j2777423033&#45;&gt;j2071918290</title>
<path fill="none" stroke="black" d="M986,-1007.7C986,-1000.41 986,-991.73 986,-983.54"/>
<polygon fill="black" stroke="black" points="989.5,-983.62 986,-973.62 982.5,-983.62 989.5,-983.62"/>
</g>
<!-- j3818090469 -->
<g id="node21" class="node">
<title>j3818090469</title>
<polygon fill="none" stroke="blue" points="1943.5,-468 1656.5,-468 1656.5,-432 1943.5,-432 1943.5,-468"/>
<text text-anchor="middle" x="1800" y="-446.3" font-family="Times New Roman,serif" font-size="14.00">Dopotutto, sono l&#39;immagine stessa della fragilità.</text>
</g>
<!-- j2590985443&#45;&gt;j3818090469 -->
<g id="edge20" class="edge">
<title>j2590985443&#45;&gt;j3818090469</title>
<path fill="none" stroke="black" d="M1800,-503.7C1800,-496.41 1800,-487.73 1800,-479.54"/>
<polygon fill="black" stroke="black" points="1803.5,-479.62 1800,-469.62 1796.5,-479.62 1803.5,-479.62"/>
</g>
<!-- j1802868430 -->
<g id="node22" class="node">
<title>j1802868430</title>
<polygon fill="none" stroke="blue" points="1637,-468 1263,-468 1263,-432 1637,-432 1637,-468"/>
<text text-anchor="middle" x="1450" y="-446.3" font-family="Times New Roman,serif" font-size="14.00">Prova ad avvicinarti ad Arthur e a chiedergli delle sue emorroidi.</text>
</g>
<!-- j3592624113&#45;&gt;j1802868430 -->
<g id="edge21" class="edge">
<title>j3592624113&#45;&gt;j1802868430</title>
<path fill="none" stroke="black" d="M1505.71,-503.7C1496.9,-495.37 1486.18,-485.22 1476.5,-476.07"/>
<polygon fill="black" stroke="black" points="1479.11,-473.72 1469.44,-469.39 1474.3,-478.8 1479.11,-473.72"/>
</g>
<!-- j1226987378 -->
<g id="node23" class="node">
<title>j1226987378</title>
<polygon fill="none" stroke="blue" points="766,-828 254,-828 254,-792 766,-792 766,-828"/>
<text text-anchor="middle" x="510" y="-806.3" font-family="Times New Roman,serif" font-size="14.00">La cortesia consiste nel non far sapere all&#39;altra persona cosa proviamo nei suoi confronti.</text>
</g>
<!-- j1307230353&#45;&gt;j1226987378 -->
<g id="edge22" class="edge">
<title>j1307230353&#45;&gt;j1226987378</title>
<path fill="none" stroke="black" d="M524.3,-863.7C522.28,-856.24 519.86,-847.32 517.59,-838.97"/>
<polygon fill="black" stroke="black" points="521.04,-838.3 515.04,-829.57 514.28,-840.13 521.04,-838.3"/>
</g>
<!-- j666609043 -->
<g id="node24" class="node">
<title>j666609043</title>
<polygon fill="none" stroke="blue" points="1107,-900 865,-900 865,-864 1107,-864 1107,-900"/>
<text text-anchor="middle" x="986" y="-878.3" font-family="Times New Roman,serif" font-size="14.00">Sarebbe facile. Pigro. Poco interessante.</text>
</g>
<!-- j2071918290&#45;&gt;j666609043 -->
<g id="edge23" class="edge">
<title>j2071918290&#45;&gt;j666609043</title>
<path fill="none" stroke="black" d="M986,-935.7C986,-928.41 986,-919.73 986,-911.54"/>
<polygon fill="black" stroke="black" points="989.5,-911.62 986,-901.62 982.5,-911.62 989.5,-911.62"/>
</g>
<!-- j1272978280 -->
<g id="node25" class="node">
<title>j1272978280</title>
<polygon fill="none" stroke="blue" points="1986,-396 1540,-396 1540,-360 1986,-360 1986,-396"/>
<text text-anchor="middle" x="1763" y="-374.3" font-family="Times New Roman,serif" font-size="14.00">Forse ti piacerebbe asciugarmi la fronte mentre sono svenuta sul mio divano?</text>
</g>
<!-- j3818090469&#45;&gt;j1272978280 -->
<g id="edge24" class="edge">
<title>j3818090469&#45;&gt;j1272978280</title>
<path fill="none" stroke="black" d="M1790.85,-431.7C1786.78,-423.98 1781.88,-414.71 1777.33,-406.11"/>
<polygon fill="black" stroke="black" points="1780.52,-404.65 1772.75,-397.44 1774.33,-407.92 1780.52,-404.65"/>
</g>
<!-- j1824403355 -->
<g id="node26" class="node">
<title>j1824403355</title>
<polygon fill="none" stroke="blue" points="1670,-108 1230,-108 1230,-72 1670,-72 1670,-108"/>
<text text-anchor="middle" x="1450" y="-86.3" font-family="Times New Roman,serif" font-size="14.00">Questo è il tuo primo e unico avvertimento. Non sono un oggetto in mostra.</text>
</g>
<!-- j1802868430&#45;&gt;j1824403355 -->
<g id="edge25" class="edge">
<title>j1802868430&#45;&gt;j1824403355</title>
<path fill="none" stroke="black" d="M1450,-431.51C1450,-404.71 1450,-351.87 1450,-307 1450,-307 1450,-307 1450,-233 1450,-193.74 1450,-148.38 1450,-119.69"/>
<polygon fill="black" stroke="black" points="1453.5,-120 1450,-110 1446.5,-120 1453.5,-120"/>
</g>
<!-- j477489678 -->
<g id="node27" class="node">
<title>j477489678</title>
<polygon fill="none" stroke="blue" points="718,-756 302,-756 302,-720 718,-720 718,-756"/>
<text text-anchor="middle" x="510" y="-734.3" font-family="Times New Roman,serif" font-size="14.00">Il che è difficile, quando la tua mente è effettivamente collegata alla loro.</text>
</g>
<!-- j1226987378&#45;&gt;j477489678 -->
<g id="edge26" class="edge">
<title>j1226987378&#45;&gt;j477489678</title>
<path fill="none" stroke="black" d="M510,-791.7C510,-784.41 510,-775.73 510,-767.54"/>
<polygon fill="black" stroke="black" points="513.5,-767.62 510,-757.62 506.5,-767.62 513.5,-767.62"/>
</g>
<!-- j3328389192 -->
<g id="node28" class="node">
<title>j3328389192</title>
<polygon fill="none" stroke="blue" points="1188,-828 784,-828 784,-792 1188,-792 1188,-828"/>
<text text-anchor="middle" x="986" y="-806.3" font-family="Times New Roman,serif" font-size="14.00">La telepatia è un fenomeno tanto delicato quanto un calcio nel sedere.</text>
</g>
<!-- j666609043&#45;&gt;j3328389192 -->
<g id="edge27" class="edge">
<title>j666609043&#45;&gt;j3328389192</title>
<path fill="none" stroke="black" d="M986,-863.7C986,-856.41 986,-847.73 986,-839.54"/>
<polygon fill="black" stroke="black" points="989.5,-839.62 986,-829.62 982.5,-839.62 989.5,-839.62"/>
</g>
<!-- j1684030714 -->
<g id="node29" class="node">
<title>j1684030714</title>
<polygon fill="none" stroke="red" points="1597,-324 1539,-324 1539,-288 1597,-288 1597,-324"/>
<text text-anchor="middle" x="1568" y="-302.3" font-family="Times New Roman,serif" font-size="14.00">Chissà.</text>
</g>
<!-- j1272978280&#45;&gt;j1684030714 -->
<g id="edge28" class="edge">
<title>j1272978280&#45;&gt;j1684030714</title>
<path fill="none" stroke="black" d="M1714.3,-359.52C1681.54,-347.76 1638.89,-332.45 1608.1,-321.4"/>
<polygon fill="black" stroke="black" points="1609.35,-318.13 1598.76,-318.04 1606.99,-324.71 1609.35,-318.13"/>
</g>
<!-- j3764291485 -->
<g id="node30" class="node">
<title>j3764291485</title>
<polygon fill="none" stroke="red" points="1925.5,-324 1642.5,-324 1642.5,-288 1925.5,-288 1925.5,-324"/>
<text text-anchor="middle" x="1784" y="-302.3" font-family="Times New Roman,serif" font-size="14.00">Non ho detto che mi preoccupo per TE. [Fine.]</text>
</g>
<!-- j1272978280&#45;&gt;j3764291485 -->
<g id="edge29" class="edge">
<title>j1272978280&#45;&gt;j3764291485</title>
<path fill="none" stroke="black" d="M1768.19,-359.7C1770.43,-352.24 1773.1,-343.32 1775.61,-334.97"/>
<polygon fill="black" stroke="black" points="1778.91,-336.14 1778.43,-325.55 1772.21,-334.13 1778.91,-336.14"/>
</g>
<!-- j1824403355&#45;&gt;Chat ends. -->
<g id="edge30" class="edge">
<title>j1824403355&#45;&gt;Chat ends.</title>
<path fill="none" stroke="black" d="M1450,-71.7C1450,-64.41 1450,-55.73 1450,-47.54"/>
<polygon fill="black" stroke="black" points="1453.5,-47.62 1450,-37.62 1446.5,-47.62 1453.5,-47.62"/>
</g>
<!-- j2461052051 -->
<g id="node31" class="node">
<title>j2461052051</title>
<polygon fill="none" stroke="blue" points="801.5,-684 218.5,-684 218.5,-648 801.5,-648 801.5,-684"/>
<text text-anchor="middle" x="510" y="-662.3" font-family="Times New Roman,serif" font-size="14.00">Per esempio, in questo momento potrei avere voglia di avvolgere le tue budella attorno a un bastone...</text>
</g>
<!-- j477489678&#45;&gt;j2461052051 -->
<g id="edge31" class="edge">
<title>j477489678&#45;&gt;j2461052051</title>
<path fill="none" stroke="black" d="M510,-719.7C510,-712.41 510,-703.73 510,-695.54"/>
<polygon fill="black" stroke="black" points="513.5,-695.62 510,-685.62 506.5,-695.62 513.5,-695.62"/>
</g>
<!-- j3924934329 -->
<g id="node32" class="node">
<title>j3924934329</title>
<polygon fill="none" stroke="blue" points="1094,-756 878,-756 878,-720 1094,-720 1094,-756"/>
<text text-anchor="middle" x="986" y="-734.3" font-family="Times New Roman,serif" font-size="14.00">Al confronto, il testo è affascinante.</text>
</g>
<!-- j3328389192&#45;&gt;j3924934329 -->
<g id="edge32" class="edge">
<title>j3328389192&#45;&gt;j3924934329</title>
<path fill="none" stroke="black" d="M986,-791.7C986,-784.41 986,-775.73 986,-767.54"/>
<polygon fill="black" stroke="black" points="989.5,-767.62 986,-757.62 982.5,-767.62 989.5,-767.62"/>
</g>
<!-- j4132016417 -->
<g id="node33" class="node">
<title>j4132016417</title>
<ellipse fill="none" stroke="orange" cx="1542" cy="-234" rx="64.19" ry="18"/>
<text text-anchor="middle" x="1542" y="-230.3" font-family="Times New Roman,serif" font-size="14.00">+10 Chemistry</text>
</g>
<!-- j1684030714&#45;&gt;j4132016417 -->
<g id="edge33" class="edge">
<title>j1684030714&#45;&gt;j4132016417</title>
<path fill="none" stroke="black" d="M1561.57,-287.7C1558.77,-280.15 1555.42,-271.12 1552.28,-262.68"/>
<polygon fill="black" stroke="black" points="1555.64,-261.68 1548.88,-253.52 1549.08,-264.12 1555.64,-261.68"/>
</g>
<!-- j4010319371 -->
<g id="node34" class="node">
<title>j4010319371</title>
<polygon fill="none" stroke="blue" points="1985.5,-252 1624.5,-252 1624.5,-216 1985.5,-216 1985.5,-252"/>
<text text-anchor="middle" x="1805" y="-230.3" font-family="Times New Roman,serif" font-size="14.00">Ah! Sei circospetto. Mi tratti come la temibile lamia che sono.</text>
</g>
<!-- j3764291485&#45;&gt;j4010319371 -->
<g id="edge34" class="edge">
<title>j3764291485&#45;&gt;j4010319371</title>
<path fill="none" stroke="black" d="M1789.19,-287.7C1791.43,-280.24 1794.1,-271.32 1796.61,-262.97"/>
<polygon fill="black" stroke="black" points="1799.91,-264.14 1799.43,-253.55 1793.21,-262.13 1799.91,-264.14"/>
</g>
<!-- j2177032857 -->
<g id="node35" class="node">
<title>j2177032857</title>
<polygon fill="none" stroke="blue" points="733.5,-612 286.5,-612 286.5,-576 733.5,-576 733.5,-612"/>
<text text-anchor="middle" x="510" y="-590.3" font-family="Times New Roman,serif" font-size="14.00">... o sentirmi euforica come una scolaretta perché finalmente mi stai parlando.</text>
</g>
<!-- j2461052051&#45;&gt;j2177032857 -->
<g id="edge35" class="edge">
<title>j2461052051&#45;&gt;j2177032857</title>
<path fill="none" stroke="black" d="M510,-647.7C510,-640.41 510,-631.73 510,-623.54"/>
<polygon fill="black" stroke="black" points="513.5,-623.62 510,-613.62 506.5,-623.62 513.5,-623.62"/>
</g>
<!-- j733245256 -->
<g id="node36" class="node">
<title>j733245256</title>
<polygon fill="none" stroke="blue" points="1106,-684 860,-684 860,-648 1106,-648 1106,-684"/>
<text text-anchor="middle" x="983" y="-662.3" font-family="Times New Roman,serif" font-size="14.00">In gran parte a causa di ciò che non dice.</text>
</g>
<!-- j3924934329&#45;&gt;j733245256 -->
<g id="edge36" class="edge">
<title>j3924934329&#45;&gt;j733245256</title>
<path fill="none" stroke="black" d="M985.26,-719.7C984.95,-712.41 984.57,-703.73 984.22,-695.54"/>
<polygon fill="black" stroke="black" points="987.72,-695.46 983.8,-685.62 980.73,-695.76 987.72,-695.46"/>
</g>
<!-- j2833084891 -->
<g id="node37" class="node">
<title>j2833084891</title>
<polygon fill="none" stroke="blue" points="1592,-180 1530,-180 1530,-144 1592,-144 1592,-180"/>
<text text-anchor="middle" x="1561" y="-158.3" font-family="Times New Roman,serif" font-size="14.00">Attento.</text>
</g>
<!-- j4132016417&#45;&gt;j2833084891 -->
<g id="edge37" class="edge">
<title>j4132016417&#45;&gt;j2833084891</title>
<path fill="none" stroke="black" d="M1546.7,-215.7C1548.72,-208.24 1551.14,-199.32 1553.41,-190.97"/>
<polygon fill="black" stroke="black" points="1556.72,-192.13 1555.96,-181.57 1549.96,-190.3 1556.72,-192.13"/>
</g>
<!-- j3170863252 -->
<g id="node38" class="node">
<title>j3170863252</title>
<polygon fill="none" stroke="blue" points="1952,-180 1630,-180 1630,-144 1952,-144 1952,-180"/>
<text text-anchor="middle" x="1791" y="-158.3" font-family="Times New Roman,serif" font-size="14.00">Avresti dovuto incontrarmi PRIMA che fossi infestata.</text>
</g>
<!-- j4010319371&#45;&gt;j3170863252 -->
<g id="edge38" class="edge">
<title>j4010319371&#45;&gt;j3170863252</title>
<path fill="none" stroke="black" d="M1801.54,-215.7C1800.06,-208.32 1798.3,-199.52 1796.65,-191.25"/>
<polygon fill="black" stroke="black" points="1800.11,-190.71 1794.72,-181.59 1793.25,-192.08 1800.11,-190.71"/>
</g>
<!-- j1340633681 -->
<g id="node39" class="node">
<title>j1340633681</title>
<polygon fill="none" stroke="blue" points="719.5,-396 300.5,-396 300.5,-360 719.5,-360 719.5,-396"/>
<text text-anchor="middle" x="510" y="-374.3" font-family="Times New Roman,serif" font-size="14.00">Non lo sai. Ma se questa fosse una conversazione telepatica, lo sapresti.</text>
</g>
<!-- j2177032857&#45;&gt;j1340633681 -->
<g id="edge39" class="edge">
<title>j2177032857&#45;&gt;j1340633681</title>
<path fill="none" stroke="black" d="M510,-575.85C510,-539.14 510,-452.66 510,-407.53"/>
<polygon fill="black" stroke="black" points="513.5,-407.75 510,-397.75 506.5,-407.75 513.5,-407.75"/>
</g>
<!-- j3866820582 -->
<g id="node40" class="node">
<title>j3866820582</title>
<polygon fill="none" stroke="red" points="1052,-612 912,-612 912,-576 1052,-576 1052,-612"/>
<text text-anchor="middle" x="982" y="-590.3" font-family="Times New Roman,serif" font-size="14.00">&quot;Leggere tra le righe&quot;?</text>
</g>
<!-- j733245256&#45;&gt;j3866820582 -->
<g id="edge40" class="edge">
<title>j733245256&#45;&gt;j3866820582</title>
<path fill="none" stroke="black" d="M982.75,-647.7C982.65,-640.41 982.52,-631.73 982.41,-623.54"/>
<polygon fill="black" stroke="black" points="985.91,-623.57 982.27,-613.62 978.91,-623.67 985.91,-623.57"/>
</g>
<!-- j1692608985 -->
<g id="node41" class="node">
<title>j1692608985</title>
<polygon fill="none" stroke="blue" points="1747.5,-108 1688.5,-108 1688.5,-72 1747.5,-72 1747.5,-108"/>
<text text-anchor="middle" x="1718" y="-86.3" font-family="Times New Roman,serif" font-size="14.00">Mordo.</text>
</g>
<!-- j2833084891&#45;&gt;j1692608985 -->
<g id="edge41" class="edge">
<title>j2833084891&#45;&gt;j1692608985</title>
<path fill="none" stroke="black" d="M1592.39,-147C1616.93,-136.06 1651.22,-120.78 1677.77,-108.94"/>
<polygon fill="black" stroke="black" points="1679.17,-112.15 1686.87,-104.88 1676.32,-105.75 1679.17,-112.15"/>
</g>
<!-- j3170863252&#45;&gt;Chat ends. -->
<g id="edge42" class="edge">
<title>j3170863252&#45;&gt;Chat ends.</title>
<path fill="none" stroke="black" d="M1789.42,-143.66C1786.58,-123.25 1778.71,-89.86 1757,-72 1720.27,-41.79 1589.14,-28.07 1510.63,-22.45"/>
<polygon fill="black" stroke="black" points="1511.18,-18.98 1500.96,-21.78 1510.69,-25.96 1511.18,-18.98"/>
</g>
<!-- j3681415958 -->
<g id="node42" class="node">
<title>j3681415958</title>
<polygon fill="none" stroke="red" points="772,-324 472,-324 472,-288 772,-288 772,-324"/>
<text text-anchor="middle" x="622" y="-302.3" font-family="Times New Roman,serif" font-size="14.00">Quindi si tratta di non mostrare i propri sentimenti?</text>
</g>
<!-- j1340633681&#45;&gt;j3681415958 -->
<g id="edge43" class="edge">
<title>j1340633681&#45;&gt;j3681415958</title>
<path fill="none" stroke="black" d="M537.97,-359.52C552.11,-350.68 569.46,-339.84 584.72,-330.3"/>
<polygon fill="black" stroke="black" points="586.47,-333.33 593.1,-325.06 582.76,-327.39 586.47,-333.33"/>
</g>
<!-- j3457589135 -->
<g id="node43" class="node">
<title>j3457589135</title>
<polygon fill="none" stroke="red" points="421,-324 41,-324 41,-288 421,-288 421,-324"/>
<text text-anchor="middle" x="231" y="-302.3" font-family="Times New Roman,serif" font-size="14.00">Sembra che tu preferisca nasconderti dietro uno schermo. [Fine.]</text>
</g>
<!-- j1340633681&#45;&gt;j3457589135 -->
<g id="edge44" class="edge">
<title>j1340633681&#45;&gt;j3457589135</title>
<path fill="none" stroke="black" d="M440.32,-359.52C401.14,-349.69 352.06,-337.37 311.27,-327.14"/>
<polygon fill="black" stroke="black" points="312.3,-323.79 301.75,-324.75 310.59,-330.58 312.3,-323.79"/>
</g>
<!-- j1691422837 -->
<g id="node44" class="node">
<title>j1691422837</title>
<polygon fill="none" stroke="blue" points="1298,-540 654,-540 654,-504 1298,-504 1298,-540"/>
<text text-anchor="middle" x="976" y="-518.3" font-family="Times New Roman,serif" font-size="14.00">Esatto. Prima di Höllvania, prima del Techrot, dipendevo dal testo per vivere. Ora è solo un lusso. Un capriccio.</text>
</g>
<!-- j3866820582&#45;&gt;j1691422837 -->
<g id="edge45" class="edge">
<title>j3866820582&#45;&gt;j1691422837</title>
<path fill="none" stroke="black" d="M980.52,-575.7C979.89,-568.41 979.15,-559.73 978.45,-551.54"/>
<polygon fill="black" stroke="black" points="981.94,-551.28 977.6,-541.61 974.96,-551.87 981.94,-551.28"/>
</g>
<!-- j1692608985&#45;&gt;Chat ends. -->
<g id="edge46" class="edge">
<title>j1692608985&#45;&gt;Chat ends.</title>
<path fill="none" stroke="black" d="M1688.41,-75.43C1685.26,-74.19 1682.09,-73.02 1679,-72 1620.83,-52.77 1552.14,-37.87 1505.26,-28.83"/>
<polygon fill="black" stroke="black" points="1506.1,-25.43 1495.62,-27 1504.79,-32.3 1506.1,-25.43"/>
</g>
<!-- j2246545274 -->
<g id="node45" class="node">
<title>j2246545274</title>
<polygon fill="none" stroke="blue" points="962,-252 414,-252 414,-216 962,-216 962,-252"/>
<text text-anchor="middle" x="688" y="-230.3" font-family="Times New Roman,serif" font-size="14.00">Finché non lo scelgo, sì. Forse è stupido cercare di essere civili in questo buco di merda. Ma...</text>
</g>
<!-- j3681415958&#45;&gt;j2246545274 -->
<g id="edge47" class="edge">
<title>j3681415958&#45;&gt;j2246545274</title>
<path fill="none" stroke="black" d="M638.31,-287.7C646.07,-279.47 655.49,-269.48 664.03,-260.42"/>
<polygon fill="black" stroke="black" points="666.52,-262.88 670.83,-253.21 661.43,-258.08 666.52,-262.88"/>
</g>
<!-- j2541076972 -->
<g id="node46" class="node">
<title>j2541076972</title>
<polygon fill="none" stroke="blue" points="396,-252 0,-252 0,-216 396,-216 396,-252"/>
<text text-anchor="middle" x="198" y="-230.3" font-family="Times New Roman,serif" font-size="14.00">Puoi biasimarmi per prendermi ogni centimetro di privacy possibile?</text>
</g>
<!-- j3457589135&#45;&gt;j2541076972 -->
<g id="edge48" class="edge">
<title>j3457589135&#45;&gt;j2541076972</title>
<path fill="none" stroke="black" d="M222.84,-287.7C219.25,-280.07 214.93,-270.92 210.92,-262.4"/>
<polygon fill="black" stroke="black" points="214.14,-261.03 206.71,-253.47 207.81,-264.01 214.14,-261.03"/>
</g>
<!-- j2700711801 -->
<g id="node47" class="node">
<title>j2700711801</title>
<polygon fill="none" stroke="blue" points="1092,-468 930,-468 930,-432 1092,-432 1092,-468"/>
<text text-anchor="middle" x="1011" y="-446.3" font-family="Times New Roman,serif" font-size="14.00">Qualcosa con cui giocare.</text>
</g>
<!-- j1691422837&#45;&gt;j2700711801 -->
<g id="edge49" class="edge">
<title>j1691422837&#45;&gt;j2700711801</title>
<path fill="none" stroke="black" d="M984.65,-503.7C988.47,-496.07 993.04,-486.92 997.3,-478.4"/>
<polygon fill="black" stroke="black" points="1000.43,-479.97 1001.77,-469.46 994.17,-476.84 1000.43,-479.97"/>
</g>
<!-- j2579083133 -->
<g id="node48" class="node">
<title>j2579083133</title>
<ellipse fill="none" stroke="orange" cx="852" cy="-162" rx="64.19" ry="18"/>
<text text-anchor="middle" x="852" y="-158.3" font-family="Times New Roman,serif" font-size="14.00">+20 Chemistry</text>
</g>
<!-- j2246545274&#45;&gt;j2579083133 -->
<g id="edge50" class="edge">
<title>j2246545274&#45;&gt;j2579083133</title>
<path fill="none" stroke="black" d="M728.96,-215.52C752.76,-205.36 782.78,-192.55 807.21,-182.12"/>
<polygon fill="black" stroke="black" points="808.43,-185.4 816.25,-178.26 805.68,-178.96 808.43,-185.4"/>
</g>
<!-- j1335699958 -->
<g id="node49" class="node">
<title>j1335699958</title>
<polygon fill="none" stroke="blue" points="521.5,-180 300.5,-180 300.5,-144 521.5,-144 521.5,-180"/>
<text text-anchor="middle" x="411" y="-158.3" font-family="Times New Roman,serif" font-size="14.00">Chiaramente ho fatto la scelta giusta.</text>
</g>
<!-- j2541076972&#45;&gt;j1335699958 -->
<g id="edge51" class="edge">
<title>j2541076972&#45;&gt;j1335699958</title>
<path fill="none" stroke="black" d="M251.2,-215.52C280.41,-205.92 316.83,-193.95 347.51,-183.86"/>
<polygon fill="black" stroke="black" points="348.26,-187.3 356.67,-180.85 346.08,-180.65 348.26,-187.3"/>
</g>
<!-- j1932337329 -->
<g id="node50" class="node">
<title>j1932337329</title>
<polygon fill="none" stroke="blue" points="1353,-396 739,-396 739,-360 1353,-360 1353,-396"/>
<text text-anchor="middle" x="1046" y="-374.3" font-family="Times New Roman,serif" font-size="14.00">Per passare il tempo mentre aspetto che il mio corpo si trasformi in una chimera che a malapena riconosco.</text>
</g>
<!-- j2700711801&#45;&gt;j1932337329 -->
<g id="edge52" class="edge">
<title>j2700711801&#45;&gt;j1932337329</title>
<path fill="none" stroke="black" d="M1019.65,-431.7C1023.47,-424.07 1028.04,-414.92 1032.3,-406.4"/>
<polygon fill="black" stroke="black" points="1035.43,-407.97 1036.77,-397.46 1029.17,-404.84 1035.43,-407.97"/>
</g>
<!-- j1045604944 -->
<g id="node51" class="node">
<title>j1045604944</title>
<polygon fill="none" stroke="blue" points="1050.5,-108 653.5,-108 653.5,-72 1050.5,-72 1050.5,-108"/>
<text text-anchor="middle" x="852" y="-86.3" font-family="Times New Roman,serif" font-size="14.00">... abbiamo tutti i nostri piccoli modi per rimanere sani di mente, no?</text>
</g>
<!-- j2579083133&#45;&gt;j1045604944 -->
<g id="edge53" class="edge">
<title>j2579083133&#45;&gt;j1045604944</title>
<path fill="none" stroke="black" d="M852,-143.7C852,-136.41 852,-127.73 852,-119.54"/>
<polygon fill="black" stroke="black" points="855.5,-119.62 852,-109.62 848.5,-119.62 855.5,-119.62"/>
</g>
<!-- j1335699958&#45;&gt;Chat ends. -->
<g id="edge54" class="edge">
<title>j1335699958&#45;&gt;Chat ends.</title>
<path fill="none" stroke="black" d="M446.29,-143.68C491.07,-122.62 571.24,-87.91 644,-72 785.9,-40.97 1225.91,-25.46 1388.66,-20.66"/>
<polygon fill="black" stroke="black" points="1388.49,-24.17 1398.38,-20.38 1388.28,-17.17 1388.49,-24.17"/>
</g>
<!-- j3716809369 -->
<g id="node52" class="node">
<title>j3716809369</title>
<polygon fill="none" stroke="red" points="1074.5,-324 1017.5,-324 1017.5,-288 1074.5,-288 1074.5,-324"/>
<text text-anchor="middle" x="1046" y="-302.3" font-family="Times New Roman,serif" font-size="14.00">È utile?</text>
</g>
<!-- j1932337329&#45;&gt;j3716809369 -->
<g id="edge55" class="edge">
<title>j1932337329&#45;&gt;j3716809369</title>
<path fill="none" stroke="black" d="M1046,-359.7C1046,-352.41 1046,-343.73 1046,-335.54"/>
<polygon fill="black" stroke="black" points="1049.5,-335.62 1046,-325.62 1042.5,-335.62 1049.5,-335.62"/>
</g>
<!-- j2012687552 -->
<g id="node53" class="node">
<title>j2012687552</title>
<polygon fill="none" stroke="red" points="1211.5,-108 1068.5,-108 1068.5,-72 1211.5,-72 1211.5,-108"/>
<text text-anchor="middle" x="1140" y="-86.3" font-family="Times New Roman,serif" font-size="14.00">Ehm... divertiti. [Fine.]</text>
</g>
<!-- j1932337329&#45;&gt;j2012687552 -->
<g id="edge56" class="edge">
<title>j1932337329&#45;&gt;j2012687552</title>
<path fill="none" stroke="black" d="M1058.89,-359.7C1066.27,-349.51 1075.52,-336.26 1083,-324 1101.84,-293.11 1110.25,-286.55 1121,-252 1134.93,-207.2 1138.78,-152.47 1139.76,-119.75"/>
<polygon fill="black" stroke="black" points="1143.26,-119.94 1139.98,-109.86 1136.26,-119.78 1143.26,-119.94"/>
</g>
<!-- j1045604944&#45;&gt;Chat ends. -->
<g id="edge57" class="edge">
<title>j1045604944&#45;&gt;Chat ends.</title>
<path fill="none" stroke="black" d="M1001.36,-71.52C1127.63,-56.74 1301.87,-36.34 1391.52,-25.85"/>
<polygon fill="black" stroke="black" points="1391.78,-29.34 1401.3,-24.7 1390.96,-22.39 1391.78,-29.34"/>
</g>
<!-- j2361849524 -->
<g id="node54" class="node">
<title>j2361849524</title>
<polygon fill="none" stroke="blue" points="1112,-252 980,-252 980,-216 1112,-216 1112,-252"/>
<text text-anchor="middle" x="1046" y="-230.3" font-family="Times New Roman,serif" font-size="14.00">Oh, sì. Dopo tutto...</text>
</g>
<!-- j3716809369&#45;&gt;j2361849524 -->
<g id="edge58" class="edge">
<title>j3716809369&#45;&gt;j2361849524</title>
<path fill="none" stroke="black" d="M1046,-287.7C1046,-280.41 1046,-271.73 1046,-263.54"/>
<polygon fill="black" stroke="black" points="1049.5,-263.62 1046,-253.62 1042.5,-263.62 1049.5,-263.62"/>
</g>
<!-- j2012687552&#45;&gt;Chat ends. -->
<g id="edge59" class="edge">
<title>j2012687552&#45;&gt;Chat ends.</title>
<path fill="none" stroke="black" d="M1211.9,-72.76C1268.6,-59.96 1346.37,-42.4 1397.38,-30.88"/>
<polygon fill="black" stroke="black" points="1398.01,-34.33 1407,-28.71 1396.47,-27.5 1398.01,-34.33"/>
</g>
<!-- j2361849524&#45;&gt;j2579083133 -->
<g id="edge60" class="edge">
<title>j2361849524&#45;&gt;j2579083133</title>
<path fill="none" stroke="black" d="M997.55,-215.52C968.06,-204.88 930.51,-191.33 900.94,-180.66"/>
<polygon fill="black" stroke="black" points="902.45,-177.48 891.85,-177.38 900.07,-184.07 902.45,-177.48"/>
</g>
</g>
</svg>
