<?xml version="1.0" encoding="UTF-8" standalone="no"?>
<!DOCTYPE svg PUBLIC "-//W3C//DTD SVG 1.1//EN"
 "http://www.w3.org/Graphics/SVG/1.1/DTD/svg11.dtd">
<!-- Generated by graphviz version 7.1.0 (20230121.1956)
 -->
<!-- Pages: 1 -->
<svg width="3126pt" height="1484pt"
 viewBox="0.00 0.00 3126.00 1484.00" xmlns="http://www.w3.org/2000/svg" xmlns:xlink="http://www.w3.org/1999/xlink">
<g id="graph0" class="graph" transform="scale(1 1) rotate(0) translate(4 1480)">
<polygon fill="white" stroke="none" points="-4,4 -4,-1480 3122,-1480 3122,4 -4,4"/>
<!-- EleanorMonster begins. -->
<g id="node1" class="node">
<title>EleanorMonster begins.</title>
<ellipse fill="none" stroke="orange" cx="463" cy="-1458" rx="96.68" ry="18"/>
<text text-anchor="middle" x="463" y="-1454.3" font-family="Times New Roman,serif" font-size="14.00">EleanorMonster begins.</text>
</g>
<!-- j1648171756 -->
<g id="node2" class="node">
<title>j1648171756</title>
<polygon fill="none" stroke="blue" points="774.5,-1404 151.5,-1404 151.5,-1368 774.5,-1368 774.5,-1404"/>
<text text-anchor="middle" x="463" y="-1382.3" font-family="Times New Roman,serif" font-size="14.00">Drifter. Quello che hai detto ieri. A proposito di lasciare in vita il mostro. Lo pensavi davvero? Devo saperlo.</text>
</g>
<!-- EleanorMonster begins.&#45;&gt;j1648171756 -->
<g id="edge1" class="edge">
<title>EleanorMonster begins.&#45;&gt;j1648171756</title>
<path fill="none" stroke="black" d="M463,-1439.7C463,-1432.41 463,-1423.73 463,-1415.54"/>
<polygon fill="black" stroke="black" points="466.5,-1415.62 463,-1405.62 459.5,-1415.62 466.5,-1415.62"/>
</g>
<!-- j2207182936 -->
<g id="node3" class="node">
<title>j2207182936</title>
<polygon fill="none" stroke="red" points="1007,-1332 831,-1332 831,-1296 1007,-1296 1007,-1332"/>
<text text-anchor="middle" x="919" y="-1310.3" font-family="Times New Roman,serif" font-size="14.00">Certo che lo penso davvero.</text>
</g>
<!-- j1648171756&#45;&gt;j2207182936 -->
<g id="edge2" class="edge">
<title>j1648171756&#45;&gt;j2207182936</title>
<path fill="none" stroke="black" d="M576.89,-1367.52C651.51,-1356.06 748.1,-1341.23 819.61,-1330.26"/>
<polygon fill="black" stroke="black" points="820.01,-1333.74 829.37,-1328.76 818.95,-1326.82 820.01,-1333.74"/>
</g>
<!-- j1273154679 -->
<g id="node4" class="node">
<title>j1273154679</title>
<polygon fill="none" stroke="red" points="686,-1260 240,-1260 240,-1224 686,-1224 686,-1260"/>
<text text-anchor="middle" x="463" y="-1238.3" font-family="Times New Roman,serif" font-size="14.00">Onestamento? Ci ho pensato. E, no. Dovrei fermarti se diventassi un mostro.</text>
</g>
<!-- j1648171756&#45;&gt;j1273154679 -->
<g id="edge3" class="edge">
<title>j1648171756&#45;&gt;j1273154679</title>
<path fill="none" stroke="black" d="M463,-1367.59C463,-1343.61 463,-1300.14 463,-1271.42"/>
<polygon fill="black" stroke="black" points="466.5,-1271.62 463,-1261.62 459.5,-1271.62 466.5,-1271.62"/>
</g>
<!-- j2041862867 -->
<g id="node5" class="node">
<title>j2041862867</title>
<polygon fill="none" stroke="red" points="408.5,-108 343.5,-108 343.5,-72 408.5,-72 408.5,-108"/>
<text text-anchor="middle" x="376" y="-86.3" font-family="Times New Roman,serif" font-size="14.00">[Ignora.]</text>
</g>
<!-- j1648171756&#45;&gt;j2041862867 -->
<g id="edge4" class="edge">
<title>j1648171756&#45;&gt;j2041862867</title>
<path fill="none" stroke="black" d="M310.11,-1367.52C175.25,-1347.7 0,-1309.21 0,-1243 0,-1243 0,-1243 0,-233 0,-162.69 233,-115.08 332.16,-98"/>
<polygon fill="black" stroke="black" points="332.52,-101.49 341.8,-96.37 331.35,-94.59 332.52,-101.49"/>
</g>
<!-- j4018534432 -->
<g id="node6" class="node">
<title>j4018534432</title>
<polygon fill="none" stroke="blue" points="1912.5,-1260 803.5,-1260 803.5,-1224 1912.5,-1224 1912.5,-1260"/>
<text text-anchor="middle" x="1358" y="-1238.3" font-family="Times New Roman,serif" font-size="14.00">Non che non sia estremamente grata e onestamente un po&#39; scioccata, ma... perché? PERCHÉ mi lasceresti vivere? Quando tutti gli altri qui sarebbero così disposti a spararmi una pallottola in testa?</text>
</g>
<!-- j2207182936&#45;&gt;j4018534432 -->
<g id="edge5" class="edge">
<title>j2207182936&#45;&gt;j4018534432</title>
<path fill="none" stroke="black" d="M1007.31,-1298.92C1073.4,-1288.38 1164.55,-1273.85 1237.36,-1262.24"/>
<polygon fill="black" stroke="black" points="1237.6,-1265.74 1246.92,-1260.71 1236.5,-1258.83 1237.6,-1265.74"/>
</g>
<!-- j584162619 -->
<g id="node7" class="node">
<title>j584162619</title>
<polygon fill="none" stroke="blue" points="897.5,-612 28.5,-612 28.5,-576 897.5,-576 897.5,-612"/>
<text text-anchor="middle" x="463" y="-590.3" font-family="Times New Roman,serif" font-size="14.00">Grazie. Per me sei un enigma in molti aspetti, ma ora so che saresti disposto a spararmi in testa, e questo genere di cose è importante sul posto di lavoro.</text>
</g>
<!-- j1273154679&#45;&gt;j584162619 -->
<g id="edge6" class="edge">
<title>j1273154679&#45;&gt;j584162619</title>
<path fill="none" stroke="black" d="M463,-1223.51C463,-1196.71 463,-1143.87 463,-1099 463,-1099 463,-1099 463,-737 463,-697.74 463,-652.38 463,-623.69"/>
<polygon fill="black" stroke="black" points="466.5,-624 463,-614 459.5,-624 466.5,-624"/>
</g>
<!-- Chat ends. -->
<g id="node8" class="node">
<title>Chat ends.</title>
<ellipse fill="none" stroke="orange" cx="1178" cy="-18" rx="50.09" ry="18"/>
<text text-anchor="middle" x="1178" y="-14.3" font-family="Times New Roman,serif" font-size="14.00">Chat ends.</text>
</g>
<!-- j2041862867&#45;&gt;Chat ends. -->
<g id="edge7" class="edge">
<title>j2041862867&#45;&gt;Chat ends.</title>
<path fill="none" stroke="black" d="M408.93,-86.13C531.08,-75.46 959.27,-38.09 1118.11,-24.23"/>
<polygon fill="black" stroke="black" points="1118.35,-27.72 1128.01,-23.36 1117.74,-20.75 1118.35,-27.72"/>
</g>
<!-- j3237813494 -->
<g id="node9" class="node">
<title>j3237813494</title>
<polygon fill="none" stroke="red" points="1860.5,-1188 855.5,-1188 855.5,-1152 1860.5,-1152 1860.5,-1188"/>
<text text-anchor="middle" x="1358" y="-1166.3" font-family="Times New Roman,serif" font-size="14.00">Il confine tra &quot;eroe&quot; e &quot;mostro&quot; è più sfumato di quanto la maggior parte delle persone voglia ammettere. Ho combattuto contro Grineer e Corpus e ho combattuto al loro fianco.</text>
</g>
<!-- j4018534432&#45;&gt;j3237813494 -->
<g id="edge8" class="edge">
<title>j4018534432&#45;&gt;j3237813494</title>
<path fill="none" stroke="black" d="M1358,-1223.7C1358,-1216.41 1358,-1207.73 1358,-1199.54"/>
<polygon fill="black" stroke="black" points="1361.5,-1199.62 1358,-1189.62 1354.5,-1199.62 1361.5,-1199.62"/>
</g>
<!-- j1047737400 -->
<g id="node10" class="node">
<title>j1047737400</title>
<polygon fill="none" stroke="red" points="3000,-1188 1928,-1188 1928,-1152 3000,-1152 3000,-1188"/>
<text text-anchor="middle" x="2464" y="-1166.3" font-family="Times New Roman,serif" font-size="14.00">Perché penso che tu sia una delle persone più ferocemente intelligenti e meravigliosamente sarcastiche che abbia mai incontrato. Non credo che nemmeno il Techrot potrebbe toglierti questo.</text>
</g>
<!-- j4018534432&#45;&gt;j1047737400 -->
<g id="edge9" class="edge">
<title>j4018534432&#45;&gt;j1047737400</title>
<path fill="none" stroke="black" d="M1634.24,-1223.52C1799.51,-1213.06 2009.23,-1199.78 2176.47,-1189.2"/>
<polygon fill="black" stroke="black" points="2176.66,-1192.69 2186.42,-1188.57 2176.22,-1185.71 2176.66,-1192.69"/>
</g>
<!-- j2270968806 -->
<g id="node11" class="node">
<title>j2270968806</title>
<polygon fill="none" stroke="blue" points="689,-540 213,-540 213,-504 689,-504 689,-540"/>
<text text-anchor="middle" x="451" y="-518.3" font-family="Times New Roman,serif" font-size="14.00">Eee ho appena sentito il Techrot nelle mie cellule avere un piccolo tremito ansioso.</text>
</g>
<!-- j584162619&#45;&gt;j2270968806 -->
<g id="edge10" class="edge">
<title>j584162619&#45;&gt;j2270968806</title>
<path fill="none" stroke="black" d="M460.03,-575.7C458.77,-568.32 457.26,-559.52 455.84,-551.25"/>
<polygon fill="black" stroke="black" points="459.33,-550.86 454.19,-541.6 452.43,-552.04 459.33,-550.86"/>
</g>
<!-- j3973684965 -->
<g id="node12" class="node">
<title>j3973684965</title>
<polygon fill="none" stroke="red" points="1896,-1116 820,-1116 820,-1080 1896,-1080 1896,-1116"/>
<text text-anchor="middle" x="1358" y="-1094.3" font-family="Times New Roman,serif" font-size="14.00">Non credo alle parole &quot;Bene&quot; e &quot;Male&quot;. Solo alle persone. Perché hai meno diritto di esistere di me? Potrei anche non avere una lingua da Techrot, ma sono anche io uno scherzo della natura.</text>
</g>
<!-- j3237813494&#45;&gt;j3973684965 -->
<g id="edge11" class="edge">
<title>j3237813494&#45;&gt;j3973684965</title>
<path fill="none" stroke="black" d="M1358,-1151.7C1358,-1144.41 1358,-1135.73 1358,-1127.54"/>
<polygon fill="black" stroke="black" points="1361.5,-1127.62 1358,-1117.62 1354.5,-1127.62 1361.5,-1127.62"/>
</g>
<!-- j3630735693 -->
<g id="node13" class="node">
<title>j3630735693</title>
<polygon fill="none" stroke="blue" points="2824.5,-1116 2329.5,-1116 2329.5,-1080 2824.5,-1080 2824.5,-1116"/>
<text text-anchor="middle" x="2577" y="-1094.3" font-family="Times New Roman,serif" font-size="14.00">Quanto... meravigliosamente ingenuo. E meravigliosamente dolce, in un modo tragico.</text>
</g>
<!-- j1047737400&#45;&gt;j3630735693 -->
<g id="edge12" class="edge">
<title>j1047737400&#45;&gt;j3630735693</title>
<path fill="none" stroke="black" d="M2492.22,-1151.52C2506.49,-1142.68 2523.99,-1131.84 2539.38,-1122.3"/>
<polygon fill="black" stroke="black" points="2541.19,-1125.3 2547.85,-1117.06 2537.51,-1119.35 2541.19,-1125.3"/>
</g>
<!-- j3088935585 -->
<g id="node14" class="node">
<title>j3088935585</title>
<polygon fill="none" stroke="blue" points="850,-468 28,-468 28,-432 850,-432 850,-468"/>
<text text-anchor="middle" x="439" y="-446.3" font-family="Times New Roman,serif" font-size="14.00">Penso che d&#39;ora in poi si comporterà un po&#39; meglio. Non c&#39;è niente di meglio che minacciare l&#39;ospite per mettere la paura di Sol nel parassita, eh?</text>
</g>
<!-- j2270968806&#45;&gt;j3088935585 -->
<g id="edge13" class="edge">
<title>j2270968806&#45;&gt;j3088935585</title>
<path fill="none" stroke="black" d="M448.03,-503.7C446.77,-496.32 445.26,-487.52 443.84,-479.25"/>
<polygon fill="black" stroke="black" points="447.33,-478.86 442.19,-469.6 440.43,-480.04 447.33,-478.86"/>
</g>
<!-- j2827041917 -->
<g id="node15" class="node">
<title>j2827041917</title>
<polygon fill="none" stroke="blue" points="1864.5,-1044 851.5,-1044 851.5,-1008 1864.5,-1008 1864.5,-1044"/>
<text text-anchor="middle" x="1358" y="-1022.3" font-family="Times New Roman,serif" font-size="14.00">Ma eccoti qui, a combattere contro Scaldra e Techrot, cercando di trovare un modo per fermare l&#39;Indifferenza. Credi chiaramente che ci sia una linea da tracciare da qualche parte.</text>
</g>
<!-- j3973684965&#45;&gt;j2827041917 -->
<g id="edge14" class="edge">
<title>j3973684965&#45;&gt;j2827041917</title>
<path fill="none" stroke="black" d="M1358,-1079.7C1358,-1072.41 1358,-1063.73 1358,-1055.54"/>
<polygon fill="black" stroke="black" points="1361.5,-1055.62 1358,-1045.62 1354.5,-1055.62 1361.5,-1055.62"/>
</g>
<!-- j3865174850 -->
<g id="node16" class="node">
<title>j3865174850</title>
<polygon fill="none" stroke="blue" points="3081.5,-1044 2122.5,-1044 2122.5,-1008 3081.5,-1008 3081.5,-1044"/>
<text text-anchor="middle" x="2602" y="-1022.3" font-family="Times New Roman,serif" font-size="14.00">Il fatto che tu creda che ne uscirei come una specie di ape regina, con me intatta, una bizzarra voce dell&#39;infestazione con cui potresti fare amicizia o forse persino adorare.</text>
</g>
<!-- j3630735693&#45;&gt;j3865174850 -->
<g id="edge15" class="edge">
<title>j3630735693&#45;&gt;j3865174850</title>
<path fill="none" stroke="black" d="M2583.18,-1079.7C2585.87,-1072.15 2589.1,-1063.12 2592.11,-1054.68"/>
<polygon fill="black" stroke="black" points="2595.31,-1056.12 2595.38,-1045.53 2588.72,-1053.77 2595.31,-1056.12"/>
</g>
<!-- j2864742878 -->
<g id="node17" class="node">
<title>j2864742878</title>
<ellipse fill="none" stroke="orange" cx="676" cy="-234" rx="142.97" ry="18"/>
<text text-anchor="middle" x="676" y="-230.3" font-family="Times New Roman,serif" font-size="14.00">Boolean EleanorNoDate is now true.</text>
</g>
<!-- j3088935585&#45;&gt;j2864742878 -->
<g id="edge16" class="edge">
<title>j3088935585&#45;&gt;j2864742878</title>
<path fill="none" stroke="black" d="M457.99,-431.85C499.77,-394.13 599.78,-303.83 648.45,-259.88"/>
<polygon fill="black" stroke="black" points="650.72,-262.55 655.79,-253.25 646.02,-257.35 650.72,-262.55"/>
</g>
<!-- j2867929580 -->
<g id="node18" class="node">
<title>j2867929580</title>
<polygon fill="none" stroke="red" points="1387,-972 893,-972 893,-936 1387,-936 1387,-972"/>
<text text-anchor="middle" x="1140" y="-950.3" font-family="Times New Roman,serif" font-size="14.00">L&#39;Indifferenza è stata scatenata da Entrati. Un uomo. La colpa è dell&#39;arroganza umana.</text>
</g>
<!-- j2827041917&#45;&gt;j2867929580 -->
<g id="edge17" class="edge">
<title>j2827041917&#45;&gt;j2867929580</title>
<path fill="none" stroke="black" d="M1303.55,-1007.52C1273.66,-997.92 1236.38,-985.95 1204.98,-975.86"/>
<polygon fill="black" stroke="black" points="1206.16,-972.57 1195.57,-972.84 1204.02,-979.23 1206.16,-972.57"/>
</g>
<!-- j3375639282 -->
<g id="node19" class="node">
<title>j3375639282</title>
<polygon fill="none" stroke="red" points="2208.5,-972 1405.5,-972 1405.5,-936 2208.5,-936 2208.5,-972"/>
<text text-anchor="middle" x="1807" y="-950.3" font-family="Times New Roman,serif" font-size="14.00">Proteggere le persone dalla morte non è la stessa cosa che credere che qualcosa debba essere sterminato o che non abbia il diritto di esistere.</text>
</g>
<!-- j2827041917&#45;&gt;j3375639282 -->
<g id="edge18" class="edge">
<title>j2827041917&#45;&gt;j3375639282</title>
<path fill="none" stroke="black" d="M1470.14,-1007.52C1535.22,-997.37 1617.28,-984.58 1684.11,-974.16"/>
<polygon fill="black" stroke="black" points="1684.28,-977.67 1693.62,-972.68 1683.2,-970.76 1684.28,-977.67"/>
</g>
<!-- j631909899 -->
<g id="node20" class="node">
<title>j631909899</title>
<polygon fill="none" stroke="blue" points="3118,-972 2312,-972 2312,-936 3118,-936 3118,-972"/>
<text text-anchor="middle" x="2715" y="-950.3" font-family="Times New Roman,serif" font-size="14.00">Ti rimprovererei per il fatto che il mondo non funziona come un libro di fiabe, eppure... mi viene ricordato esattamente chi sei e da dove vieni.</text>
</g>
<!-- j3865174850&#45;&gt;j631909899 -->
<g id="edge19" class="edge">
<title>j3865174850&#45;&gt;j631909899</title>
<path fill="none" stroke="black" d="M2630.22,-1007.52C2644.49,-998.68 2661.99,-987.84 2677.38,-978.3"/>
<polygon fill="black" stroke="black" points="2679.19,-981.3 2685.85,-973.06 2675.51,-975.35 2679.19,-981.3"/>
</g>
<!-- j2864742878&#45;&gt;Chat ends. -->
<g id="edge20" class="edge">
<title>j2864742878&#45;&gt;Chat ends.</title>
<path fill="none" stroke="black" d="M714.97,-216.39C807.69,-176.86 1040.77,-77.5 1136.24,-36.8"/>
<polygon fill="black" stroke="black" points="1137.43,-40.1 1145.25,-32.96 1134.68,-33.66 1137.43,-40.1"/>
</g>
<!-- j2105942647 -->
<g id="node21" class="node">
<title>j2105942647</title>
<polygon fill="none" stroke="blue" points="1381.5,-900 898.5,-900 898.5,-864 1381.5,-864 1381.5,-900"/>
<text text-anchor="middle" x="1140" y="-878.3" font-family="Times New Roman,serif" font-size="14.00">Ma il Techrot non è l&#39;Indifferenza. E questo? E la minaccia più biologica e terrestre?</text>
</g>
<!-- j2867929580&#45;&gt;j2105942647 -->
<g id="edge21" class="edge">
<title>j2867929580&#45;&gt;j2105942647</title>
<path fill="none" stroke="black" d="M1140,-935.7C1140,-928.41 1140,-919.73 1140,-911.54"/>
<polygon fill="black" stroke="black" points="1143.5,-911.62 1140,-901.62 1136.5,-911.62 1143.5,-911.62"/>
</g>
<!-- j2297329097 -->
<g id="node22" class="node">
<title>j2297329097</title>
<polygon fill="none" stroke="red" points="2197.5,-900 1416.5,-900 1416.5,-864 2197.5,-864 2197.5,-900"/>
<text text-anchor="middle" x="1807" y="-878.3" font-family="Times New Roman,serif" font-size="14.00">Garantire che un gregge di pecore non venga mangiato dai lupi non è la stessa cosa che andare a uccidere tutti i lupi perché sono malvagi.</text>
</g>
<!-- j3375639282&#45;&gt;j2297329097 -->
<g id="edge22" class="edge">
<title>j3375639282&#45;&gt;j2297329097</title>
<path fill="none" stroke="black" d="M1807,-935.7C1807,-928.41 1807,-919.73 1807,-911.54"/>
<polygon fill="black" stroke="black" points="1810.5,-911.62 1807,-901.62 1803.5,-911.62 1810.5,-911.62"/>
</g>
<!-- j3720583161 -->
<g id="node23" class="node">
<title>j3720583161</title>
<polygon fill="none" stroke="blue" points="2912.5,-828 2629.5,-828 2629.5,-792 2912.5,-792 2912.5,-828"/>
<text text-anchor="middle" x="2771" y="-806.3" font-family="Times New Roman,serif" font-size="14.00">Quindi suppongo che non dovrei sorprendermi.</text>
</g>
<!-- j631909899&#45;&gt;j3720583161 -->
<g id="edge23" class="edge">
<title>j631909899&#45;&gt;j3720583161</title>
<path fill="none" stroke="black" d="M2721.87,-935.59C2731.41,-911.4 2748.77,-867.36 2760.09,-838.65"/>
<polygon fill="black" stroke="black" points="2763.28,-840.11 2763.7,-829.52 2756.77,-837.54 2763.28,-840.11"/>
</g>
<!-- j2337135373 -->
<g id="node24" class="node">
<title>j2337135373</title>
<polygon fill="none" stroke="red" points="1429.5,-828 634.5,-828 634.5,-792 1429.5,-792 1429.5,-828"/>
<text text-anchor="middle" x="1032" y="-806.3" font-family="Times New Roman,serif" font-size="14.00">Non sappiamo davvero da dove provenga il Techrot. Potrebbe essere stato creato dall&#39;uomo. Potrebbe essere stato creato da qualcos&#39;altro.</text>
</g>
<!-- j2105942647&#45;&gt;j2337135373 -->
<g id="edge24" class="edge">
<title>j2105942647&#45;&gt;j2337135373</title>
<path fill="none" stroke="black" d="M1113.03,-863.52C1099.39,-854.68 1082.66,-843.84 1067.95,-834.3"/>
<polygon fill="black" stroke="black" points="1070.2,-831.59 1059.9,-829.08 1066.39,-837.46 1070.2,-831.59"/>
</g>
<!-- j1700851091 -->
<g id="node25" class="node">
<title>j1700851091</title>
<polygon fill="none" stroke="red" points="1914,-756 1480,-756 1480,-720 1914,-720 1914,-756"/>
<text text-anchor="middle" x="1697" y="-734.3" font-family="Times New Roman,serif" font-size="14.00">Il fatto è che non vuoi che ti uccida. Quindi non lo farei. Ti lascerei andare.</text>
</g>
<!-- j2105942647&#45;&gt;j1700851091 -->
<g id="edge25" class="edge">
<title>j2105942647&#45;&gt;j1700851091</title>
<path fill="none" stroke="black" d="M1288.14,-863.56C1336.95,-855.49 1391,-844.03 1439,-828 1472.56,-816.79 1477.05,-804.88 1510,-792 1542.75,-779.19 1579.83,-768.03 1612.28,-759.29"/>
<polygon fill="black" stroke="black" points="1612.87,-762.76 1621.64,-756.81 1611.07,-756 1612.87,-762.76"/>
</g>
<!-- j3121883755 -->
<g id="node26" class="node">
<title>j3121883755</title>
<polygon fill="none" stroke="blue" points="2095.5,-828 1518.5,-828 1518.5,-792 2095.5,-792 2095.5,-828"/>
<text text-anchor="middle" x="1807" y="-806.3" font-family="Times New Roman,serif" font-size="14.00">E se non rimanesse nulla di Eleanor? E se non vedessi altro che una bestia che sibila, ringhia e sputa?</text>
</g>
<!-- j2297329097&#45;&gt;j3121883755 -->
<g id="edge26" class="edge">
<title>j2297329097&#45;&gt;j3121883755</title>
<path fill="none" stroke="black" d="M1807,-863.7C1807,-856.41 1807,-847.73 1807,-839.54"/>
<polygon fill="black" stroke="black" points="1810.5,-839.62 1807,-829.62 1803.5,-839.62 1810.5,-839.62"/>
</g>
<!-- j4228823590 -->
<g id="node27" class="node">
<title>j4228823590</title>
<polygon fill="none" stroke="blue" points="2303,-540 1787,-540 1787,-504 2303,-504 2303,-540"/>
<text text-anchor="middle" x="2045" y="-518.3" font-family="Times New Roman,serif" font-size="14.00">In ogni caso, credo di essere grata del fatto che non mi uccideresti. Ecco. Almeno quello.</text>
</g>
<!-- j3720583161&#45;&gt;j4228823590 -->
<g id="edge27" class="edge">
<title>j3720583161&#45;&gt;j4228823590</title>
<path fill="none" stroke="black" d="M2776.72,-791.76C2789.96,-748.22 2817.19,-633.25 2757,-576 2752.84,-572.04 2514.49,-554.88 2314.73,-541.14"/>
<polygon fill="black" stroke="black" points="2315.17,-537.66 2304.95,-540.47 2314.69,-544.65 2315.17,-537.66"/>
</g>
<!-- j1174769298 -->
<g id="node28" class="node">
<title>j1174769298</title>
<polygon fill="none" stroke="blue" points="1461.5,-756 548.5,-756 548.5,-720 1461.5,-720 1461.5,-756"/>
<text text-anchor="middle" x="1005" y="-734.3" font-family="Times New Roman,serif" font-size="14.00">E se il Techrot si rivelasse un&#39;altra aberrazione scatenata dall&#39;uomo come il tuo Uomo nel Muro? Cosa succederebbe allora? Mi daresti la caccia e mi uccideresti?</text>
</g>
<!-- j2337135373&#45;&gt;j1174769298 -->
<g id="edge28" class="edge">
<title>j2337135373&#45;&gt;j1174769298</title>
<path fill="none" stroke="black" d="M1025.33,-791.7C1022.42,-784.15 1018.93,-775.12 1015.68,-766.68"/>
<polygon fill="black" stroke="black" points="1019.01,-765.59 1012.14,-757.52 1012.48,-768.11 1019.01,-765.59"/>
</g>
<!-- j2646773032 -->
<g id="node29" class="node">
<title>j2646773032</title>
<polygon fill="none" stroke="blue" points="1929,-684 1127,-684 1127,-648 1929,-648 1929,-684"/>
<text text-anchor="middle" x="1528" y="-662.3" font-family="Times New Roman,serif" font-size="14.00">Anche se sono grata che tu abbia rispettato i desideri di una donna mostruosa, suppongo che sperassi in qualcosa di un po&#39; più... ponderato.</text>
</g>
<!-- j1700851091&#45;&gt;j2646773032 -->
<g id="edge29" class="edge">
<title>j1700851091&#45;&gt;j2646773032</title>
<path fill="none" stroke="black" d="M1654.79,-719.52C1632.22,-710.17 1604.23,-698.57 1580.29,-688.66"/>
<polygon fill="black" stroke="black" points="1581.94,-685.55 1571.36,-684.96 1579.26,-692.02 1581.94,-685.55"/>
</g>
<!-- j3121883755&#45;&gt;j1700851091 -->
<g id="edge31" class="edge">
<title>j3121883755&#45;&gt;j1700851091</title>
<path fill="none" stroke="black" d="M1779.53,-791.52C1765.64,-782.68 1748.6,-771.84 1733.62,-762.3"/>
<polygon fill="black" stroke="black" points="1735.72,-759.49 1725.4,-757.07 1731.96,-765.39 1735.72,-759.49"/>
</g>
<!-- j246009680 -->
<g id="node30" class="node">
<title>j246009680</title>
<polygon fill="none" stroke="red" points="2715,-756 1961,-756 1961,-720 2715,-720 2715,-756"/>
<text text-anchor="middle" x="2338" y="-734.3" font-family="Times New Roman,serif" font-size="14.00">Come faccio a sapere che non è rimasto nulla di Eleanor? Parli di come pensa il Techrot. Di come ti parla. È chiaramente intelligente.</text>
</g>
<!-- j3121883755&#45;&gt;j246009680 -->
<g id="edge30" class="edge">
<title>j3121883755&#45;&gt;j246009680</title>
<path fill="none" stroke="black" d="M1939.62,-791.52C2017.22,-781.29 2115.23,-768.37 2194.61,-757.9"/>
<polygon fill="black" stroke="black" points="2194.73,-761.42 2204.19,-756.64 2193.81,-754.48 2194.73,-761.42"/>
</g>
<!-- j4228823590&#45;&gt;Chat ends. -->
<g id="edge32" class="edge">
<title>j4228823590&#45;&gt;Chat ends.</title>
<path fill="none" stroke="black" d="M2165.21,-503.57C2186.14,-495.68 2205.98,-484.31 2221,-468 2248.4,-438.25 2240,-419.45 2240,-379 2240,-379 2240,-379 2240,-161 2240,-59.35 1465.82,-27.76 1239.46,-20.7"/>
<polygon fill="black" stroke="black" points="1239.77,-17.21 1229.67,-20.4 1239.55,-24.2 1239.77,-17.21"/>
</g>
<!-- j115095915 -->
<g id="node31" class="node">
<title>j115095915</title>
<polygon fill="none" stroke="red" points="1082.5,-684 977.5,-684 977.5,-648 1082.5,-648 1082.5,-684"/>
<text text-anchor="middle" x="1030" y="-662.3" font-family="Times New Roman,serif" font-size="14.00">No. Non potrei.</text>
</g>
<!-- j1174769298&#45;&gt;j115095915 -->
<g id="edge33" class="edge">
<title>j1174769298&#45;&gt;j115095915</title>
<path fill="none" stroke="black" d="M1011.18,-719.7C1013.87,-712.15 1017.1,-703.12 1020.11,-694.68"/>
<polygon fill="black" stroke="black" points="1023.31,-696.12 1023.38,-685.53 1016.72,-693.77 1023.31,-696.12"/>
</g>
<!-- j388211274 -->
<g id="node32" class="node">
<title>j388211274</title>
<polygon fill="none" stroke="red" points="901.5,-684 548.5,-684 548.5,-648 901.5,-648 901.5,-684"/>
<text text-anchor="middle" x="725" y="-662.3" font-family="Times New Roman,serif" font-size="14.00">Sì. Se il Techrot è davvero innaturale? Allora... deve sparire.</text>
</g>
<!-- j1174769298&#45;&gt;j388211274 -->
<g id="edge34" class="edge">
<title>j1174769298&#45;&gt;j388211274</title>
<path fill="none" stroke="black" d="M935.07,-719.52C895.75,-709.69 846.49,-697.37 805.56,-687.14"/>
<polygon fill="black" stroke="black" points="806.55,-683.78 796,-684.75 804.85,-690.57 806.55,-683.78"/>
</g>
<!-- j4000617284 -->
<g id="node33" class="node">
<title>j4000617284</title>
<ellipse fill="none" stroke="orange" cx="1726" cy="-594" rx="59.59" ry="18"/>
<text text-anchor="middle" x="1726" y="-590.3" font-family="Times New Roman,serif" font-size="14.00">+5 Chemistry</text>
</g>
<!-- j2646773032&#45;&gt;j4000617284 -->
<g id="edge35" class="edge">
<title>j2646773032&#45;&gt;j4000617284</title>
<path fill="none" stroke="black" d="M1577.45,-647.52C1608.06,-636.7 1647.17,-622.87 1677.58,-612.12"/>
<polygon fill="black" stroke="black" points="1678.67,-615.44 1686.93,-608.81 1676.34,-608.84 1678.67,-615.44"/>
</g>
<!-- j594730406 -->
<g id="node34" class="node">
<title>j594730406</title>
<polygon fill="none" stroke="red" points="2756.5,-684 1947.5,-684 1947.5,-648 2756.5,-648 2756.5,-684"/>
<text text-anchor="middle" x="2352" y="-662.3" font-family="Times New Roman,serif" font-size="14.00">Sembra una mente alveare. Forse Eleanor sarebbe ancora lì dentro, non in un posto, ma in un miliardo. Chi sono io per dire che è &quot;sbagliato&quot;?</text>
</g>
<!-- j246009680&#45;&gt;j594730406 -->
<g id="edge36" class="edge">
<title>j246009680&#45;&gt;j594730406</title>
<path fill="none" stroke="black" d="M2341.46,-719.7C2342.94,-712.32 2344.7,-703.52 2346.35,-695.25"/>
<polygon fill="black" stroke="black" points="2349.75,-696.08 2348.28,-685.59 2342.89,-694.71 2349.75,-696.08"/>
</g>
<!-- j552074280 -->
<g id="node35" class="node">
<title>j552074280</title>
<polygon fill="none" stroke="blue" points="1486,-612 916,-612 916,-576 1486,-576 1486,-612"/>
<text text-anchor="middle" x="1201" y="-590.3" font-family="Times New Roman,serif" font-size="14.00">Ti stai contraddicendo. Se sei disposto a fermare un&#39;aberrazione creata dall&#39;uomo, perché non due?</text>
</g>
<!-- j115095915&#45;&gt;j552074280 -->
<g id="edge37" class="edge">
<title>j115095915&#45;&gt;j552074280</title>
<path fill="none" stroke="black" d="M1072.71,-647.52C1095.54,-638.17 1123.87,-626.57 1148.09,-616.66"/>
<polygon fill="black" stroke="black" points="1149.21,-619.98 1157.14,-612.96 1146.56,-613.5 1149.21,-619.98"/>
</g>
<!-- j388211274&#45;&gt;j584162619 -->
<g id="edge38" class="edge">
<title>j388211274&#45;&gt;j584162619</title>
<path fill="none" stroke="black" d="M659.56,-647.52C623.01,-637.75 577.27,-625.53 539.12,-615.34"/>
<polygon fill="black" stroke="black" points="540.08,-611.97 529.52,-612.77 538.28,-618.74 540.08,-611.97"/>
</g>
<!-- j4000617284&#45;&gt;j4228823590 -->
<g id="edge39" class="edge">
<title>j4000617284&#45;&gt;j4228823590</title>
<path fill="none" stroke="black" d="M1773.07,-582.67C1820.61,-572.24 1895.27,-555.86 1954.34,-542.89"/>
<polygon fill="black" stroke="black" points="1955.06,-546.32 1964.08,-540.76 1953.56,-539.48 1955.06,-546.32"/>
</g>
<!-- j210903356 -->
<g id="node36" class="node">
<title>j210903356</title>
<polygon fill="none" stroke="blue" points="2747.5,-612 1974.5,-612 1974.5,-576 2747.5,-576 2747.5,-612"/>
<text text-anchor="middle" x="2361" y="-590.3" font-family="Times New Roman,serif" font-size="14.00">Proprio quando pensavo semplicemente di non poterti adorare di più mi ritrovo ancora una volta seduta qui a piangere lacrime di felicità</text>
</g>
<!-- j594730406&#45;&gt;j210903356 -->
<g id="edge40" class="edge">
<title>j594730406&#45;&gt;j210903356</title>
<path fill="none" stroke="black" d="M2354.22,-647.7C2355.17,-640.32 2356.3,-631.52 2357.37,-623.25"/>
<polygon fill="black" stroke="black" points="2360.8,-623.97 2358.61,-613.61 2353.86,-623.08 2360.8,-623.97"/>
</g>
<!-- j2289255265 -->
<g id="node37" class="node">
<title>j2289255265</title>
<polygon fill="none" stroke="red" points="1753.5,-540 1382.5,-540 1382.5,-504 1753.5,-504 1753.5,-540"/>
<text text-anchor="middle" x="1568" y="-518.3" font-family="Times New Roman,serif" font-size="14.00">Perché provo dei sentimenti per te. [Confessa i tuoi sentimenti.]</text>
</g>
<!-- j552074280&#45;&gt;j2289255265 -->
<g id="edge41" class="edge">
<title>j552074280&#45;&gt;j2289255265</title>
<path fill="none" stroke="black" d="M1292.66,-575.52C1345.2,-565.5 1411.27,-552.89 1465.52,-542.55"/>
<polygon fill="black" stroke="black" points="1465.9,-546.04 1475.07,-540.73 1464.59,-539.16 1465.9,-546.04"/>
</g>
<!-- j424360848 -->
<g id="node38" class="node">
<title>j424360848</title>
<polygon fill="none" stroke="red" points="1336.5,-540 1041.5,-540 1041.5,-504 1336.5,-504 1336.5,-540"/>
<text text-anchor="middle" x="1189" y="-518.3" font-family="Times New Roman,serif" font-size="14.00">Perché per me sei troppo importante come amica.</text>
</g>
<!-- j552074280&#45;&gt;j424360848 -->
<g id="edge42" class="edge">
<title>j552074280&#45;&gt;j424360848</title>
<path fill="none" stroke="black" d="M1198.03,-575.7C1196.77,-568.32 1195.26,-559.52 1193.84,-551.25"/>
<polygon fill="black" stroke="black" points="1197.33,-550.86 1192.19,-541.6 1190.43,-552.04 1197.33,-550.86"/>
</g>
<!-- j3299863002 -->
<g id="node39" class="node">
<title>j3299863002</title>
<ellipse fill="none" stroke="orange" cx="2385" cy="-522" rx="64.19" ry="18"/>
<text text-anchor="middle" x="2385" y="-518.3" font-family="Times New Roman,serif" font-size="14.00">+20 Chemistry</text>
</g>
<!-- j210903356&#45;&gt;j3299863002 -->
<g id="edge43" class="edge">
<title>j210903356&#45;&gt;j3299863002</title>
<path fill="none" stroke="black" d="M2366.93,-575.7C2369.49,-568.24 2372.55,-559.32 2375.41,-550.97"/>
<polygon fill="black" stroke="black" points="2378.71,-552.13 2378.64,-541.54 2372.09,-549.86 2378.71,-552.13"/>
</g>
<!-- j1471651521 -->
<g id="node40" class="node">
<title>j1471651521</title>
<polygon fill="none" stroke="red" points="2212,-468 1502,-468 1502,-432 2212,-432 2212,-468"/>
<text text-anchor="middle" x="1857" y="-446.3" font-family="Times New Roman,serif" font-size="14.00">Chiedermi se ti ucciderei è semplicemente *crudele*, Eleanor. Quando il pensiero di te morta, o sofferente, semplicemente &#45;&#45;</text>
</g>
<!-- j2289255265&#45;&gt;j1471651521 -->
<g id="edge44" class="edge">
<title>j2289255265&#45;&gt;j1471651521</title>
<path fill="none" stroke="black" d="M1640.18,-503.52C1680.77,-493.68 1731.63,-481.37 1773.88,-471.13"/>
<polygon fill="black" stroke="black" points="1774.62,-474.55 1783.52,-468.8 1772.97,-467.75 1774.62,-474.55"/>
</g>
<!-- j2314701250 -->
<g id="node41" class="node">
<title>j2314701250</title>
<polygon fill="none" stroke="red" points="1483.5,-468 868.5,-468 868.5,-432 1483.5,-432 1483.5,-468"/>
<text text-anchor="middle" x="1176" y="-446.3" font-family="Times New Roman,serif" font-size="14.00">Chiedermi se ti ucciderei è semplicemente *crudele*, Eleanor. Sei mia amica. Sei come una famiglia per me.</text>
</g>
<!-- j424360848&#45;&gt;j2314701250 -->
<g id="edge45" class="edge">
<title>j424360848&#45;&gt;j2314701250</title>
<path fill="none" stroke="black" d="M1185.79,-503.7C1184.42,-496.32 1182.78,-487.52 1181.25,-479.25"/>
<polygon fill="black" stroke="black" points="1184.72,-478.79 1179.45,-469.59 1177.84,-480.06 1184.72,-478.79"/>
</g>
<!-- j3722309663 -->
<g id="node42" class="node">
<title>j3722309663</title>
<polygon fill="none" stroke="blue" points="2502,-324 2268,-324 2268,-288 2502,-288 2502,-324"/>
<text text-anchor="middle" x="2385" y="-302.3" font-family="Times New Roman,serif" font-size="14.00">Devo andare ma grazie grazie GRAZIE</text>
</g>
<!-- j3299863002&#45;&gt;j3722309663 -->
<g id="edge46" class="edge">
<title>j3299863002&#45;&gt;j3722309663</title>
<path fill="none" stroke="black" d="M2385,-503.85C2385,-467.14 2385,-380.66 2385,-335.53"/>
<polygon fill="black" stroke="black" points="2388.5,-335.75 2385,-325.75 2381.5,-335.75 2388.5,-335.75"/>
</g>
<!-- j2964637444 -->
<g id="node43" class="node">
<title>j2964637444</title>
<polygon fill="none" stroke="red" points="2212,-396 1442,-396 1442,-360 2212,-360 2212,-396"/>
<text text-anchor="middle" x="1827" y="-374.3" font-family="Times New Roman,serif" font-size="14.00">Il fatto è che, no. Non potrei. Perché la speranza che tu esistessi da qualche parte là fuori? In qualche forma? Ovunque? Mi basterebbe.</text>
</g>
<!-- j1471651521&#45;&gt;j2964637444 -->
<g id="edge47" class="edge">
<title>j1471651521&#45;&gt;j2964637444</title>
<path fill="none" stroke="black" d="M1849.58,-431.7C1846.35,-424.15 1842.48,-415.12 1838.86,-406.68"/>
<polygon fill="black" stroke="black" points="1842.08,-405.31 1834.93,-397.5 1835.65,-408.07 1842.08,-405.31"/>
</g>
<!-- j295231210 -->
<g id="node44" class="node">
<title>j295231210</title>
<polygon fill="none" stroke="red" points="1424,-396 654,-396 654,-360 1424,-360 1424,-396"/>
<text text-anchor="middle" x="1039" y="-374.3" font-family="Times New Roman,serif" font-size="14.00">Il fatto è che, no. Non potrei. Perché la speranza che tu esistessi da qualche parte là fuori? In qualche forma? Ovunque? Mi basterebbe.</text>
</g>
<!-- j2314701250&#45;&gt;j295231210 -->
<g id="edge48" class="edge">
<title>j2314701250&#45;&gt;j295231210</title>
<path fill="none" stroke="black" d="M1141.78,-431.52C1123.99,-422.43 1102.05,-411.22 1083.01,-401.49"/>
<polygon fill="black" stroke="black" points="1084.63,-398.38 1074.13,-396.95 1081.44,-404.62 1084.63,-398.38"/>
</g>
<!-- j3722309663&#45;&gt;Chat ends. -->
<g id="edge49" class="edge">
<title>j3722309663&#45;&gt;Chat ends.</title>
<path fill="none" stroke="black" d="M2381.26,-287.56C2370.58,-242.52 2335.3,-122.29 2254,-72 2167.75,-18.66 1455.34,-17.66 1239.64,-18.6"/>
<polygon fill="black" stroke="black" points="1239.75,-15.1 1229.76,-18.64 1239.78,-22.1 1239.75,-15.1"/>
</g>
<!-- j442280783 -->
<g id="node45" class="node">
<title>j442280783</title>
<polygon fill="none" stroke="red" points="1791,-324 1589,-324 1589,-288 1791,-288 1791,-324"/>
<text text-anchor="middle" x="1690" y="-302.3" font-family="Times New Roman,serif" font-size="14.00">Scusa. Non posso. Devo andare.</text>
</g>
<!-- j2964637444&#45;&gt;j442280783 -->
<g id="edge50" class="edge">
<title>j2964637444&#45;&gt;j442280783</title>
<path fill="none" stroke="black" d="M1792.78,-359.52C1774.99,-350.43 1753.05,-339.22 1734.01,-329.49"/>
<polygon fill="black" stroke="black" points="1735.63,-326.38 1725.13,-324.95 1732.44,-332.62 1735.63,-326.38"/>
</g>
<!-- j3396544586 -->
<g id="node46" class="node">
<title>j3396544586</title>
<polygon fill="none" stroke="red" points="1146,-324 944,-324 944,-288 1146,-288 1146,-324"/>
<text text-anchor="middle" x="1045" y="-302.3" font-family="Times New Roman,serif" font-size="14.00">Scusa. Non posso. Devo andare.</text>
</g>
<!-- j295231210&#45;&gt;j3396544586 -->
<g id="edge51" class="edge">
<title>j295231210&#45;&gt;j3396544586</title>
<path fill="none" stroke="black" d="M1040.48,-359.7C1041.11,-352.41 1041.85,-343.73 1042.55,-335.54"/>
<polygon fill="black" stroke="black" points="1046.04,-335.87 1043.4,-325.61 1039.06,-335.28 1046.04,-335.87"/>
</g>
<!-- j1621695805 -->
<g id="node47" class="node">
<title>j1621695805</title>
<ellipse fill="none" stroke="orange" cx="1416" cy="-234" rx="156.77" ry="18"/>
<text text-anchor="middle" x="1416" y="-230.3" font-family="Times New Roman,serif" font-size="14.00">Boolean EleanorConfession is now true.</text>
</g>
<!-- j442280783&#45;&gt;j1621695805 -->
<g id="edge52" class="edge">
<title>j442280783&#45;&gt;j1621695805</title>
<path fill="none" stroke="black" d="M1621.57,-287.52C1581.35,-277.24 1530.5,-264.25 1489.45,-253.76"/>
<polygon fill="black" stroke="black" points="1490.44,-250.4 1479.88,-251.32 1488.7,-257.19 1490.44,-250.4"/>
</g>
<!-- j1368966104 -->
<g id="node48" class="node">
<title>j1368966104</title>
<ellipse fill="none" stroke="orange" cx="1088" cy="-234" rx="64.19" ry="18"/>
<text text-anchor="middle" x="1088" y="-230.3" font-family="Times New Roman,serif" font-size="14.00">+20 Chemistry</text>
</g>
<!-- j3396544586&#45;&gt;j1368966104 -->
<g id="edge53" class="edge">
<title>j3396544586&#45;&gt;j1368966104</title>
<path fill="none" stroke="black" d="M1055.63,-287.7C1060.42,-279.9 1066.19,-270.51 1071.52,-261.83"/>
<polygon fill="black" stroke="black" points="1074.45,-263.75 1076.7,-253.39 1068.48,-260.08 1074.45,-263.75"/>
</g>
<!-- j2454131905 -->
<g id="node49" class="node">
<title>j2454131905</title>
<ellipse fill="none" stroke="orange" cx="1330" cy="-162" rx="64.19" ry="18"/>
<text text-anchor="middle" x="1330" y="-158.3" font-family="Times New Roman,serif" font-size="14.00">+20 Chemistry</text>
</g>
<!-- j1621695805&#45;&gt;j2454131905 -->
<g id="edge54" class="edge">
<title>j1621695805&#45;&gt;j2454131905</title>
<path fill="none" stroke="black" d="M1394.74,-215.7C1383.88,-206.86 1370.51,-195.97 1358.74,-186.4"/>
<polygon fill="black" stroke="black" points="1361.27,-183.94 1351.3,-180.34 1356.85,-189.37 1361.27,-183.94"/>
</g>
<!-- j1080729264 -->
<g id="node50" class="node">
<title>j1080729264</title>
<polygon fill="none" stroke="blue" points="1222.5,-180 977.5,-180 977.5,-144 1222.5,-144 1222.5,-180"/>
<text text-anchor="middle" x="1100" y="-158.3" font-family="Times New Roman,serif" font-size="14.00">Oh, Eleanor, questa volta hai esagerato...</text>
</g>
<!-- j1368966104&#45;&gt;j1080729264 -->
<g id="edge55" class="edge">
<title>j1368966104&#45;&gt;j1080729264</title>
<path fill="none" stroke="black" d="M1090.97,-215.7C1092.23,-208.32 1093.74,-199.52 1095.16,-191.25"/>
<polygon fill="black" stroke="black" points="1098.57,-192.04 1096.81,-181.6 1091.67,-190.86 1098.57,-192.04"/>
</g>
<!-- j3228779216 -->
<g id="node51" class="node">
<title>j3228779216</title>
<polygon fill="none" stroke="blue" points="1400.5,-108 1245.5,-108 1245.5,-72 1400.5,-72 1400.5,-108"/>
<text text-anchor="middle" x="1323" y="-86.3" font-family="Times New Roman,serif" font-size="14.00">Oh... oh, cosa ho fatto...</text>
</g>
<!-- j2454131905&#45;&gt;j3228779216 -->
<g id="edge56" class="edge">
<title>j2454131905&#45;&gt;j3228779216</title>
<path fill="none" stroke="black" d="M1328.27,-143.7C1327.54,-136.41 1326.67,-127.73 1325.85,-119.54"/>
<polygon fill="black" stroke="black" points="1329.34,-119.21 1324.86,-109.61 1322.37,-119.91 1329.34,-119.21"/>
</g>
<!-- j1080729264&#45;&gt;Chat ends. -->
<g id="edge57" class="edge">
<title>j1080729264&#45;&gt;Chat ends.</title>
<path fill="none" stroke="black" d="M1109.56,-143.59C1122.97,-119.18 1147.47,-74.58 1163.23,-45.89"/>
<polygon fill="black" stroke="black" points="1166.13,-47.89 1167.87,-37.44 1159.99,-44.52 1166.13,-47.89"/>
</g>
<!-- j3228779216&#45;&gt;Chat ends. -->
<g id="edge58" class="edge">
<title>j3228779216&#45;&gt;Chat ends.</title>
<path fill="none" stroke="black" d="M1286.78,-71.52C1265.59,-61.29 1238.82,-48.36 1217.14,-37.9"/>
<polygon fill="black" stroke="black" points="1218.85,-34.83 1208.32,-33.64 1215.8,-41.14 1218.85,-34.83"/>
</g>
</g>
</svg>
