<?xml version="1.0" encoding="UTF-8" standalone="no"?>
<!DOCTYPE svg PUBLIC "-//W3C//DTD SVG 1.1//EN"
 "http://www.w3.org/Graphics/SVG/1.1/DTD/svg11.dtd">
<!-- Generated by graphviz version 7.1.0 (20230121.1956)
 -->
<!-- Pages: 1 -->
<svg width="4618pt" height="1556pt"
 viewBox="0.00 0.00 4617.50 1556.00" xmlns="http://www.w3.org/2000/svg" xmlns:xlink="http://www.w3.org/1999/xlink">
<g id="graph0" class="graph" transform="scale(1 1) rotate(0) translate(4 1552)">
<polygon fill="white" stroke="none" points="-4,4 -4,-1552 4613.5,-1552 4613.5,4 -4,4"/>
<!-- EleanorRank4Convo1 begins. -->
<g id="node1" class="node">
<title>EleanorRank4Convo1 begins.</title>
<ellipse fill="none" stroke="orange" cx="3308" cy="-1530" rx="118.88" ry="18"/>
<text text-anchor="middle" x="3308" y="-1526.3" font-family="Times New Roman,serif" font-size="14.00">EleanorRank4Convo1 begins.</text>
</g>
<!-- j756476741 -->
<g id="node2" class="node">
<title>j756476741</title>
<polygon fill="none" stroke="blue" points="3796.5,-1476 2819.5,-1476 2819.5,-1440 3796.5,-1440 3796.5,-1476"/>
<text text-anchor="middle" x="3308" y="-1454.3" font-family="Times New Roman,serif" font-size="14.00">Devo chiederti una cosa e non credo che ti piacerà. Credo che tu sapessi nel profondo che questa conversazione sarebbe dovuta avvenire un giorno, data la mia condizione.</text>
</g>
<!-- EleanorRank4Convo1 begins.&#45;&gt;j756476741 -->
<g id="edge1" class="edge">
<title>EleanorRank4Convo1 begins.&#45;&gt;j756476741</title>
<path fill="none" stroke="black" d="M3308,-1511.7C3308,-1504.41 3308,-1495.73 3308,-1487.54"/>
<polygon fill="black" stroke="black" points="3311.5,-1487.62 3308,-1477.62 3304.5,-1487.62 3311.5,-1487.62"/>
</g>
<!-- j4080971051 -->
<g id="node3" class="node">
<title>j4080971051</title>
<polygon fill="none" stroke="blue" points="3463.5,-1404 3152.5,-1404 3152.5,-1368 3463.5,-1368 3463.5,-1404"/>
<text text-anchor="middle" x="3308" y="-1382.3" font-family="Times New Roman,serif" font-size="14.00">Mi fido di te e mi piaci, quindi te lo dico e basta, ok?</text>
</g>
<!-- j756476741&#45;&gt;j4080971051 -->
<g id="edge2" class="edge">
<title>j756476741&#45;&gt;j4080971051</title>
<path fill="none" stroke="black" d="M3308,-1439.7C3308,-1432.41 3308,-1423.73 3308,-1415.54"/>
<polygon fill="black" stroke="black" points="3311.5,-1415.62 3308,-1405.62 3304.5,-1415.62 3311.5,-1415.62"/>
</g>
<!-- j1587407552 -->
<g id="node4" class="node">
<title>j1587407552</title>
<polygon fill="none" stroke="blue" points="3489.5,-1332 3126.5,-1332 3126.5,-1296 3489.5,-1296 3489.5,-1332"/>
<text text-anchor="middle" x="3308" y="-1310.3" font-family="Times New Roman,serif" font-size="14.00">In realtà non ho il diritto di chiedere, ma ho bisogno di sapere.</text>
</g>
<!-- j4080971051&#45;&gt;j1587407552 -->
<g id="edge3" class="edge">
<title>j4080971051&#45;&gt;j1587407552</title>
<path fill="none" stroke="black" d="M3308,-1367.7C3308,-1360.41 3308,-1351.73 3308,-1343.54"/>
<polygon fill="black" stroke="black" points="3311.5,-1343.62 3308,-1333.62 3304.5,-1343.62 3311.5,-1343.62"/>
</g>
<!-- j3611235756 -->
<g id="node5" class="node">
<title>j3611235756</title>
<polygon fill="none" stroke="blue" points="3648,-1260 2968,-1260 2968,-1224 3648,-1224 3648,-1260"/>
<text text-anchor="middle" x="3308" y="-1238.3" font-family="Times New Roman,serif" font-size="14.00">Se mi trasformassi completamente &#45; se il Techrot mi prendesse e non fossi più l&#39;Eleanor che conoscevi, mi uccideresti?</text>
</g>
<!-- j1587407552&#45;&gt;j3611235756 -->
<g id="edge4" class="edge">
<title>j1587407552&#45;&gt;j3611235756</title>
<path fill="none" stroke="black" d="M3308,-1295.7C3308,-1288.41 3308,-1279.73 3308,-1271.54"/>
<polygon fill="black" stroke="black" points="3311.5,-1271.62 3308,-1261.62 3304.5,-1271.62 3311.5,-1271.62"/>
</g>
<!-- j3572985806 -->
<g id="node6" class="node">
<title>j3572985806</title>
<polygon fill="none" stroke="red" points="2971.5,-1188 2824.5,-1188 2824.5,-1152 2971.5,-1152 2971.5,-1188"/>
<text text-anchor="middle" x="2898" y="-1166.3" font-family="Times New Roman,serif" font-size="14.00">Vorresti che lo facessi?</text>
</g>
<!-- j3611235756&#45;&gt;j3572985806 -->
<g id="edge5" class="edge">
<title>j3611235756&#45;&gt;j3572985806</title>
<path fill="none" stroke="black" d="M3205.6,-1223.52C3136.88,-1211.78 3047.43,-1196.51 2982.72,-1185.46"/>
<polygon fill="black" stroke="black" points="2983.68,-1182.08 2973.24,-1183.85 2982.51,-1188.98 2983.68,-1182.08"/>
</g>
<!-- j3073667907 -->
<g id="node7" class="node">
<title>j3073667907</title>
<polygon fill="none" stroke="red" points="3374,-1188 3320,-1188 3320,-1152 3374,-1152 3374,-1188"/>
<text text-anchor="middle" x="3347" y="-1166.3" font-family="Times New Roman,serif" font-size="14.00">Certo.</text>
</g>
<!-- j3611235756&#45;&gt;j3073667907 -->
<g id="edge6" class="edge">
<title>j3611235756&#45;&gt;j3073667907</title>
<path fill="none" stroke="black" d="M3317.64,-1223.7C3321.94,-1215.98 3327.1,-1206.71 3331.89,-1198.11"/>
<polygon fill="black" stroke="black" points="3334.92,-1199.87 3336.73,-1189.43 3328.81,-1196.46 3334.92,-1199.87"/>
</g>
<!-- j1729339723 -->
<g id="node8" class="node">
<title>j1729339723</title>
<polygon fill="none" stroke="red" points="3299,-1188 3245,-1188 3245,-1152 3299,-1152 3299,-1188"/>
<text text-anchor="middle" x="3272" y="-1166.3" font-family="Times New Roman,serif" font-size="14.00">Mai.</text>
</g>
<!-- j3611235756&#45;&gt;j1729339723 -->
<g id="edge7" class="edge">
<title>j3611235756&#45;&gt;j1729339723</title>
<path fill="none" stroke="black" d="M3299.1,-1223.7C3295.13,-1215.98 3290.37,-1206.71 3285.94,-1198.11"/>
<polygon fill="black" stroke="black" points="3289.17,-1196.74 3281.49,-1189.45 3282.95,-1199.94 3289.17,-1196.74"/>
</g>
<!-- j530067871 -->
<g id="node9" class="node">
<title>j530067871</title>
<polygon fill="none" stroke="red" points="3607,-1188 3393,-1188 3393,-1152 3607,-1152 3607,-1188"/>
<text text-anchor="middle" x="3500" y="-1166.3" font-family="Times New Roman,serif" font-size="14.00">Non risponderò a questa domanda.</text>
</g>
<!-- j3611235756&#45;&gt;j530067871 -->
<g id="edge8" class="edge">
<title>j3611235756&#45;&gt;j530067871</title>
<path fill="none" stroke="black" d="M3355.95,-1223.52C3381.94,-1214.04 3414.25,-1202.26 3441.68,-1192.26"/>
<polygon fill="black" stroke="black" points="3442.71,-1195.61 3450.9,-1188.9 3440.31,-1189.04 3442.71,-1195.61"/>
</g>
<!-- j79747932 -->
<g id="node10" class="node">
<title>j79747932</title>
<polygon fill="none" stroke="blue" points="3108,-1116 1952,-1116 1952,-1080 3108,-1080 3108,-1116"/>
<text text-anchor="middle" x="2530" y="-1094.3" font-family="Times New Roman,serif" font-size="14.00">Hmm. Buon inizio. Hai fatto in modo che riguardasse ciò che voglio invece di vedere la mia vita come un&#39;opportunità per mettere in mostra la tua morale personale. Mi hai fatto sapere che non si tratta di te.</text>
</g>
<!-- j3572985806&#45;&gt;j79747932 -->
<g id="edge9" class="edge">
<title>j3572985806&#45;&gt;j79747932</title>
<path fill="none" stroke="black" d="M2824.41,-1155C2769.52,-1144.56 2693.82,-1130.16 2632.93,-1118.58"/>
<polygon fill="black" stroke="black" points="2633.7,-1115.16 2623.23,-1116.73 2632.4,-1122.04 2633.7,-1115.16"/>
</g>
<!-- j3032925147 -->
<g id="node11" class="node">
<title>j3032925147</title>
<polygon fill="none" stroke="blue" points="3418,-1116 3342,-1116 3342,-1080 3418,-1080 3418,-1116"/>
<text text-anchor="middle" x="3380" y="-1094.3" font-family="Times New Roman,serif" font-size="14.00">Wow. Ok.</text>
</g>
<!-- j3073667907&#45;&gt;j3032925147 -->
<g id="edge10" class="edge">
<title>j3073667907&#45;&gt;j3032925147</title>
<path fill="none" stroke="black" d="M3355.16,-1151.7C3358.75,-1144.07 3363.07,-1134.92 3367.08,-1126.4"/>
<polygon fill="black" stroke="black" points="3370.19,-1128.01 3371.29,-1117.47 3363.86,-1125.03 3370.19,-1128.01"/>
</g>
<!-- j1903204703 -->
<g id="node12" class="node">
<title>j1903204703</title>
<polygon fill="none" stroke="blue" points="3192.5,-1116 3127.5,-1116 3127.5,-1080 3192.5,-1080 3192.5,-1116"/>
<text text-anchor="middle" x="3160" y="-1094.3" font-family="Times New Roman,serif" font-size="14.00">Ok. Um.</text>
</g>
<!-- j1729339723&#45;&gt;j1903204703 -->
<g id="edge11" class="edge">
<title>j1729339723&#45;&gt;j1903204703</title>
<path fill="none" stroke="black" d="M3244.6,-1151.88C3230.47,-1143.04 3213.02,-1132.14 3197.64,-1122.53"/>
<polygon fill="black" stroke="black" points="3199.51,-1119.57 3189.18,-1117.24 3195.8,-1125.5 3199.51,-1119.57"/>
</g>
<!-- j64908942 -->
<g id="node13" class="node">
<title>j64908942</title>
<polygon fill="none" stroke="blue" points="3556.5,-1116 3455.5,-1116 3455.5,-1080 3556.5,-1080 3556.5,-1116"/>
<text text-anchor="middle" x="3506" y="-1094.3" font-family="Times New Roman,serif" font-size="14.00">Come desideri.</text>
</g>
<!-- j530067871&#45;&gt;j64908942 -->
<g id="edge12" class="edge">
<title>j530067871&#45;&gt;j64908942</title>
<path fill="none" stroke="black" d="M3501.48,-1151.7C3502.11,-1144.41 3502.85,-1135.73 3503.55,-1127.54"/>
<polygon fill="black" stroke="black" points="3507.04,-1127.87 3504.4,-1117.61 3500.06,-1127.28 3507.04,-1127.87"/>
</g>
<!-- j3882425227 -->
<g id="node14" class="node">
<title>j3882425227</title>
<polygon fill="none" stroke="blue" points="2571.5,-1044 2464.5,-1044 2464.5,-1008 2571.5,-1008 2571.5,-1044"/>
<text text-anchor="middle" x="2518" y="-1022.3" font-family="Times New Roman,serif" font-size="14.00">È una cosa rara.</text>
</g>
<!-- j79747932&#45;&gt;j3882425227 -->
<g id="edge13" class="edge">
<title>j79747932&#45;&gt;j3882425227</title>
<path fill="none" stroke="black" d="M2527.03,-1079.7C2525.77,-1072.32 2524.26,-1063.52 2522.84,-1055.25"/>
<polygon fill="black" stroke="black" points="2526.33,-1054.86 2521.19,-1045.6 2519.43,-1056.04 2526.33,-1054.86"/>
</g>
<!-- j3047890306 -->
<g id="node15" class="node">
<title>j3047890306</title>
<polygon fill="none" stroke="blue" points="3734,-1044 3388,-1044 3388,-1008 3734,-1008 3734,-1044"/>
<text text-anchor="middle" x="3561" y="-1022.3" font-family="Times New Roman,serif" font-size="14.00">Nessuna esitazione, nessuna difficoltà, solo un semplice sì.</text>
</g>
<!-- j3032925147&#45;&gt;j3047890306 -->
<g id="edge14" class="edge">
<title>j3032925147&#45;&gt;j3047890306</title>
<path fill="none" stroke="black" d="M3418.39,-1082.15C3443.69,-1072.37 3477.24,-1059.39 3505.44,-1048.49"/>
<polygon fill="black" stroke="black" points="3506.48,-1051.84 3514.55,-1044.96 3503.96,-1045.31 3506.48,-1051.84"/>
</g>
<!-- j535499755 -->
<g id="node16" class="node">
<title>j535499755</title>
<polygon fill="none" stroke="blue" points="3303.5,-1044 2878.5,-1044 2878.5,-1008 3303.5,-1008 3303.5,-1044"/>
<text text-anchor="middle" x="3091" y="-1022.3" font-family="Times New Roman,serif" font-size="14.00">Scusa. In realtà sono un po&#39; sopraffatta. Non mi aspettavo tanta sincerità.</text>
</g>
<!-- j1903204703&#45;&gt;j535499755 -->
<g id="edge15" class="edge">
<title>j1903204703&#45;&gt;j535499755</title>
<path fill="none" stroke="black" d="M3142.94,-1079.7C3134.76,-1071.39 3124.79,-1061.28 3115.78,-1052.14"/>
<polygon fill="black" stroke="black" points="3118.44,-1049.85 3108.92,-1045.18 3113.45,-1054.76 3118.44,-1049.85"/>
</g>
<!-- j1165207942 -->
<g id="node17" class="node">
<title>j1165207942</title>
<polygon fill="none" stroke="blue" points="4124.5,-1044 3993.5,-1044 3993.5,-1008 4124.5,-1008 4124.5,-1044"/>
<text text-anchor="middle" x="4059" y="-1022.3" font-family="Times New Roman,serif" font-size="14.00">Non lo chiederò più.</text>
</g>
<!-- j64908942&#45;&gt;j1165207942 -->
<g id="edge16" class="edge">
<title>j64908942&#45;&gt;j1165207942</title>
<path fill="none" stroke="black" d="M3556.54,-1090.6C3653.69,-1078.3 3867.04,-1051.3 3982,-1036.75"/>
<polygon fill="black" stroke="black" points="3982.16,-1040.25 3991.64,-1035.53 3981.28,-1033.31 3982.16,-1040.25"/>
</g>
<!-- j1597623846 -->
<g id="node18" class="node">
<title>j1597623846</title>
<polygon fill="none" stroke="blue" points="2781,-972 2207,-972 2207,-936 2781,-936 2781,-972"/>
<text text-anchor="middle" x="2494" y="-950.3" font-family="Times New Roman,serif" font-size="14.00">Sfortunatamente non ci libera dal nostro dilemma, perché significa che non potrò mai cambiare idea.</text>
</g>
<!-- j3882425227&#45;&gt;j1597623846 -->
<g id="edge17" class="edge">
<title>j3882425227&#45;&gt;j1597623846</title>
<path fill="none" stroke="black" d="M2512.07,-1007.7C2509.51,-1000.24 2506.45,-991.32 2503.59,-982.97"/>
<polygon fill="black" stroke="black" points="2506.91,-981.86 2500.36,-973.54 2500.29,-984.13 2506.91,-981.86"/>
</g>
<!-- j789502228 -->
<g id="node19" class="node">
<title>j789502228</title>
<polygon fill="none" stroke="blue" points="4099.5,-972 3230.5,-972 3230.5,-936 4099.5,-936 4099.5,-972"/>
<text text-anchor="middle" x="3665" y="-950.3" font-family="Times New Roman,serif" font-size="14.00">Grazie. Per me sei un enigma in molti aspetti, ma ora so che saresti disposto a spararmi in testa, e questo genere di cose è importante sul posto di lavoro.</text>
</g>
<!-- j3047890306&#45;&gt;j789502228 -->
<g id="edge18" class="edge">
<title>j3047890306&#45;&gt;j789502228</title>
<path fill="none" stroke="black" d="M3586.98,-1007.52C3599.98,-998.76 3615.91,-988.04 3629.97,-978.58"/>
<polygon fill="black" stroke="black" points="3631.76,-981.59 3638.1,-973.11 3627.85,-975.79 3631.76,-981.59"/>
</g>
<!-- j589634796 -->
<g id="node20" class="node">
<title>j589634796</title>
<polygon fill="none" stroke="blue" points="3106.5,-972 2937.5,-972 2937.5,-936 3106.5,-936 3106.5,-972"/>
<text text-anchor="middle" x="3022" y="-950.3" font-family="Times New Roman,serif" font-size="14.00">Lasceresti vivere il mostro?</text>
</g>
<!-- j535499755&#45;&gt;j589634796 -->
<g id="edge19" class="edge">
<title>j535499755&#45;&gt;j589634796</title>
<path fill="none" stroke="black" d="M3073.94,-1007.7C3065.76,-999.39 3055.79,-989.28 3046.78,-980.14"/>
<polygon fill="black" stroke="black" points="3049.44,-977.85 3039.92,-973.18 3044.45,-982.76 3049.44,-977.85"/>
</g>
<!-- j160416296 -->
<g id="node21" class="node">
<title>j160416296</title>
<polygon fill="none" stroke="blue" points="4609.5,-972 4170.5,-972 4170.5,-936 4609.5,-936 4609.5,-972"/>
<text text-anchor="middle" x="4390" y="-950.3" font-family="Times New Roman,serif" font-size="14.00">Immagino che dovremo aspettare che accada per vedere come reagisci, no?</text>
</g>
<!-- j1165207942&#45;&gt;j160416296 -->
<g id="edge20" class="edge">
<title>j1165207942&#45;&gt;j160416296</title>
<path fill="none" stroke="black" d="M4124.79,-1011.09C4173.83,-1000.72 4241.48,-986.41 4296.18,-974.84"/>
<polygon fill="black" stroke="black" points="4296.75,-978.3 4305.81,-972.8 4295.3,-971.45 4296.75,-978.3"/>
</g>
<!-- j2789310059 -->
<g id="node22" class="node">
<title>j2789310059</title>
<polygon fill="none" stroke="blue" points="2155.5,-900 1156.5,-900 1156.5,-864 2155.5,-864 2155.5,-900"/>
<text text-anchor="middle" x="1656" y="-878.3" font-family="Times New Roman,serif" font-size="14.00">Diciamo che dico di sì, vorrei che tu mi facessi fuori in fretta e in modo pulito piuttosto che continuare a vivere come un mostro. Diciamo che è questo che Eleanor vuole ORA.</text>
</g>
<!-- j1597623846&#45;&gt;j2789310059 -->
<g id="edge21" class="edge">
<title>j1597623846&#45;&gt;j2789310059</title>
<path fill="none" stroke="black" d="M2284.7,-935.52C2160.35,-925.13 2002.8,-911.97 1876.52,-901.42"/>
<polygon fill="black" stroke="black" points="1876.94,-897.94 1866.68,-900.6 1876.36,-904.92 1876.94,-897.94"/>
</g>
<!-- j3105163463 -->
<g id="node23" class="node">
<title>j3105163463</title>
<polygon fill="none" stroke="blue" points="4311,-900 3835,-900 3835,-864 4311,-864 4311,-900"/>
<text text-anchor="middle" x="4073" y="-878.3" font-family="Times New Roman,serif" font-size="14.00">Eee ho appena sentito il Techrot nelle mie cellule avere un piccolo tremito ansioso.</text>
</g>
<!-- j789502228&#45;&gt;j3105163463 -->
<g id="edge22" class="edge">
<title>j789502228&#45;&gt;j3105163463</title>
<path fill="none" stroke="black" d="M3766.9,-935.52C3825.67,-925.43 3899.68,-912.74 3960.2,-902.35"/>
<polygon fill="black" stroke="black" points="3960.58,-905.84 3969.84,-900.7 3959.4,-898.94 3960.58,-905.84"/>
</g>
<!-- j149488429 -->
<g id="node24" class="node">
<title>j149488429</title>
<polygon fill="none" stroke="blue" points="3816.5,-900 2173.5,-900 2173.5,-864 3816.5,-864 3816.5,-900"/>
<text text-anchor="middle" x="2995" y="-878.3" font-family="Times New Roman,serif" font-size="14.00">Scusa, scusa, è solo che ho vissuto ogni giorno con Lettie nelle orecchie che starnacchiava sul fatto che non meritassi di essere qui e Arthur mi guardava come se fossi una causa persa e contava i giorni che mancavano al momento di farlo, e non mi aspettavo proprio che tu dicessi questo, ok</text>
</g>
<!-- j589634796&#45;&gt;j149488429 -->
<g id="edge23" class="edge">
<title>j589634796&#45;&gt;j149488429</title>
<path fill="none" stroke="black" d="M3015.33,-935.7C3012.42,-928.15 3008.93,-919.12 3005.68,-910.68"/>
<polygon fill="black" stroke="black" points="3009.01,-909.59 3002.14,-901.52 3002.48,-912.11 3009.01,-909.59"/>
</g>
<!-- j1017837898 -->
<g id="node25" class="node">
<title>j1017837898</title>
<polygon fill="none" stroke="blue" points="4504.5,-900 4329.5,-900 4329.5,-864 4504.5,-864 4504.5,-900"/>
<text text-anchor="middle" x="4417" y="-878.3" font-family="Times New Roman,serif" font-size="14.00">Sei un piccolo enigma letale.</text>
</g>
<!-- j160416296&#45;&gt;j1017837898 -->
<g id="edge24" class="edge">
<title>j160416296&#45;&gt;j1017837898</title>
<path fill="none" stroke="black" d="M4396.67,-935.7C4399.58,-928.15 4403.07,-919.12 4406.32,-910.68"/>
<polygon fill="black" stroke="black" points="4409.52,-912.11 4409.86,-901.52 4402.99,-909.59 4409.52,-912.11"/>
</g>
<!-- j3106085819 -->
<g id="node26" class="node">
<title>j3106085819</title>
<polygon fill="none" stroke="blue" points="2074,-828 1260,-828 1260,-792 2074,-792 2074,-828"/>
<text text-anchor="middle" x="1667" y="-806.3" font-family="Times New Roman,serif" font-size="14.00">Ma se il mostro vorace fossi io, solo più vorace? E se, una volta che la mia umanità brucia nel crogiolo del Techrot, non VOLESSI più morire?</text>
</g>
<!-- j2789310059&#45;&gt;j3106085819 -->
<g id="edge25" class="edge">
<title>j2789310059&#45;&gt;j3106085819</title>
<path fill="none" stroke="black" d="M1658.72,-863.7C1659.88,-856.32 1661.26,-847.52 1662.56,-839.25"/>
<polygon fill="black" stroke="black" points="1665.98,-840.02 1664.08,-829.6 1659.07,-838.93 1665.98,-840.02"/>
</g>
<!-- j2532768401 -->
<g id="node27" class="node">
<title>j2532768401</title>
<polygon fill="none" stroke="blue" points="4359,-828 3537,-828 3537,-792 4359,-792 4359,-828"/>
<text text-anchor="middle" x="3948" y="-806.3" font-family="Times New Roman,serif" font-size="14.00">Penso che d&#39;ora in poi si comporterà un po&#39; meglio. Non c&#39;è niente di meglio che minacciare l&#39;ospite per mettere la paura di Sol nel parassita, eh?</text>
</g>
<!-- j3105163463&#45;&gt;j2532768401 -->
<g id="edge26" class="edge">
<title>j3105163463&#45;&gt;j2532768401</title>
<path fill="none" stroke="black" d="M4041.78,-863.52C4025.7,-854.51 4005.9,-843.42 3988.64,-833.76"/>
<polygon fill="black" stroke="black" points="3990.58,-830.83 3980.14,-829 3987.16,-836.94 3990.58,-830.83"/>
</g>
<!-- j2684153690 -->
<g id="node28" class="node">
<title>j2684153690</title>
<ellipse fill="none" stroke="orange" cx="2995" cy="-810" rx="64.19" ry="18"/>
<text text-anchor="middle" x="2995" y="-806.3" font-family="Times New Roman,serif" font-size="14.00">+20 Chemistry</text>
</g>
<!-- j149488429&#45;&gt;j2684153690 -->
<g id="edge27" class="edge">
<title>j149488429&#45;&gt;j2684153690</title>
<path fill="none" stroke="black" d="M2995,-863.7C2995,-856.41 2995,-847.73 2995,-839.54"/>
<polygon fill="black" stroke="black" points="2998.5,-839.62 2995,-829.62 2991.5,-839.62 2998.5,-839.62"/>
</g>
<!-- j2025150029 -->
<g id="node29" class="node">
<title>j2025150029</title>
<polygon fill="none" stroke="blue" points="4456.5,-828 4377.5,-828 4377.5,-792 4456.5,-792 4456.5,-828"/>
<text text-anchor="middle" x="4417" y="-806.3" font-family="Times New Roman,serif" font-size="14.00">E anche io.</text>
</g>
<!-- j1017837898&#45;&gt;j2025150029 -->
<g id="edge28" class="edge">
<title>j1017837898&#45;&gt;j2025150029</title>
<path fill="none" stroke="black" d="M4417,-863.7C4417,-856.41 4417,-847.73 4417,-839.54"/>
<polygon fill="black" stroke="black" points="4420.5,-839.62 4417,-829.62 4413.5,-839.62 4420.5,-839.62"/>
</g>
<!-- j4261579770 -->
<g id="node30" class="node">
<title>j4261579770</title>
<polygon fill="none" stroke="blue" points="1844,-756 1536,-756 1536,-720 1844,-720 1844,-756"/>
<text text-anchor="middle" x="1690" y="-734.3" font-family="Times New Roman,serif" font-size="14.00">Perché mi fa sentire viva, Drifter. Potentemente viva.</text>
</g>
<!-- j3106085819&#45;&gt;j4261579770 -->
<g id="edge29" class="edge">
<title>j3106085819&#45;&gt;j4261579770</title>
<path fill="none" stroke="black" d="M1672.69,-791.7C1675.14,-784.24 1678.07,-775.32 1680.81,-766.97"/>
<polygon fill="black" stroke="black" points="1684.11,-768.14 1683.91,-757.54 1677.46,-765.95 1684.11,-768.14"/>
</g>
<!-- j2728200779 -->
<g id="node31" class="node">
<title>j2728200779</title>
<ellipse fill="none" stroke="orange" cx="3948" cy="-738" rx="142.97" ry="18"/>
<text text-anchor="middle" x="3948" y="-734.3" font-family="Times New Roman,serif" font-size="14.00">Boolean EleanorNoDate is now true.</text>
</g>
<!-- j2532768401&#45;&gt;j2728200779 -->
<g id="edge30" class="edge">
<title>j2532768401&#45;&gt;j2728200779</title>
<path fill="none" stroke="black" d="M3948,-791.7C3948,-784.41 3948,-775.73 3948,-767.54"/>
<polygon fill="black" stroke="black" points="3951.5,-767.62 3948,-757.62 3944.5,-767.62 3951.5,-767.62"/>
</g>
<!-- j2798460425 -->
<g id="node32" class="node">
<title>j2798460425</title>
<polygon fill="none" stroke="blue" points="3148.5,-756 2841.5,-756 2841.5,-720 3148.5,-720 3148.5,-756"/>
<text text-anchor="middle" x="2995" y="-734.3" font-family="Times New Roman,serif" font-size="14.00">Sto piangendo. Lacrime di gioia. Ci sentiamo presto</text>
</g>
<!-- j2684153690&#45;&gt;j2798460425 -->
<g id="edge31" class="edge">
<title>j2684153690&#45;&gt;j2798460425</title>
<path fill="none" stroke="black" d="M2995,-791.7C2995,-784.41 2995,-775.73 2995,-767.54"/>
<polygon fill="black" stroke="black" points="2998.5,-767.62 2995,-757.62 2991.5,-767.62 2998.5,-767.62"/>
</g>
<!-- j2025150029&#45;&gt;j2728200779 -->
<g id="edge32" class="edge">
<title>j2025150029&#45;&gt;j2728200779</title>
<path fill="none" stroke="black" d="M4377.09,-794.39C4374.03,-793.51 4370.98,-792.7 4368,-792 4273.41,-769.88 4164.53,-756.47 4081.34,-748.68"/>
<polygon fill="black" stroke="black" points="4081.82,-745.21 4071.54,-747.78 4081.18,-752.18 4081.82,-745.21"/>
</g>
<!-- j76584881 -->
<g id="node33" class="node">
<title>j76584881</title>
<polygon fill="none" stroke="red" points="2170,-684 2044,-684 2044,-648 2170,-648 2170,-684"/>
<text text-anchor="middle" x="2107" y="-662.3" font-family="Times New Roman,serif" font-size="14.00">Lo farei comunque.</text>
</g>
<!-- j4261579770&#45;&gt;j76584881 -->
<g id="edge33" class="edge">
<title>j4261579770&#45;&gt;j76584881</title>
<path fill="none" stroke="black" d="M1794.15,-719.52C1868.26,-707.08 1966.08,-690.66 2032.47,-679.51"/>
<polygon fill="black" stroke="black" points="2032.89,-682.99 2042.17,-677.88 2031.73,-676.09 2032.89,-682.99"/>
</g>
<!-- j2199530367 -->
<g id="node34" class="node">
<title>j2199530367</title>
<polygon fill="none" stroke="red" points="2545.5,-684 2414.5,-684 2414.5,-648 2545.5,-648 2545.5,-684"/>
<text text-anchor="middle" x="2480" y="-662.3" font-family="Times New Roman,serif" font-size="14.00">Giusto. Non lo farei.</text>
</g>
<!-- j4261579770&#45;&gt;j2199530367 -->
<g id="edge34" class="edge">
<title>j4261579770&#45;&gt;j2199530367</title>
<path fill="none" stroke="black" d="M1844.2,-723.34C2012.23,-708.45 2274.27,-685.23 2403.14,-673.81"/>
<polygon fill="black" stroke="black" points="2403.28,-677.31 2412.94,-672.94 2402.67,-670.34 2403.28,-677.31"/>
</g>
<!-- j1750582213 -->
<g id="node35" class="node">
<title>j1750582213</title>
<polygon fill="none" stroke="red" points="1200.5,-684 847.5,-684 847.5,-648 1200.5,-648 1200.5,-684"/>
<text text-anchor="middle" x="1024" y="-662.3" font-family="Times New Roman,serif" font-size="14.00">Dipenderebbe da quante altre persone sarebbero in pericolo.</text>
</g>
<!-- j4261579770&#45;&gt;j1750582213 -->
<g id="edge35" class="edge">
<title>j4261579770&#45;&gt;j1750582213</title>
<path fill="none" stroke="black" d="M1535.53,-720.76C1435.8,-710.28 1305.73,-696.61 1201.71,-685.68"/>
<polygon fill="black" stroke="black" points="1202.27,-682.22 1191.95,-684.65 1201.53,-689.18 1202.27,-682.22"/>
</g>
<!-- j1513102657 -->
<g id="node36" class="node">
<title>j1513102657</title>
<polygon fill="none" stroke="red" points="1852.5,-684 1527.5,-684 1527.5,-648 1852.5,-648 1852.5,-684"/>
<text text-anchor="middle" x="1690" y="-662.3" font-family="Times New Roman,serif" font-size="14.00">Non hai risposto alla domanda. Vorresti che lo facessi?</text>
</g>
<!-- j4261579770&#45;&gt;j1513102657 -->
<g id="edge36" class="edge">
<title>j4261579770&#45;&gt;j1513102657</title>
<path fill="none" stroke="black" d="M1690,-719.7C1690,-712.41 1690,-703.73 1690,-695.54"/>
<polygon fill="black" stroke="black" points="1693.5,-695.62 1690,-685.62 1686.5,-695.62 1693.5,-695.62"/>
</g>
<!-- Chat ends. -->
<g id="node37" class="node">
<title>Chat ends.</title>
<ellipse fill="none" stroke="orange" cx="2680" cy="-18" rx="50.09" ry="18"/>
<text text-anchor="middle" x="2680" y="-14.3" font-family="Times New Roman,serif" font-size="14.00">Chat ends.</text>
</g>
<!-- j2728200779&#45;&gt;Chat ends. -->
<g id="edge37" class="edge">
<title>j2728200779&#45;&gt;Chat ends.</title>
<path fill="none" stroke="black" d="M3936.81,-719.87C3920.99,-693.96 3894,-642.74 3894,-595 3894,-595 3894,-595 3894,-161 3894,-43.7 2988.32,-23.09 2741.49,-19.66"/>
<polygon fill="black" stroke="black" points="2741.79,-16.16 2731.75,-19.53 2741.7,-23.16 2741.79,-16.16"/>
</g>
<!-- Chat ends. Next chat will be EleanorMonster. -->
<g id="node38" class="node">
<title>Chat ends. Next chat will be EleanorMonster.</title>
<ellipse fill="none" stroke="orange" cx="2995" cy="-666" rx="174.67" ry="18"/>
<text text-anchor="middle" x="2995" y="-662.3" font-family="Times New Roman,serif" font-size="14.00">Chat ends. Next chat will be EleanorMonster.</text>
</g>
<!-- j2798460425&#45;&gt;Chat ends. Next chat will be EleanorMonster. -->
<g id="edge38" class="edge">
<title>j2798460425&#45;&gt;Chat ends. Next chat will be EleanorMonster.</title>
<path fill="none" stroke="black" d="M2995,-719.7C2995,-712.41 2995,-703.73 2995,-695.54"/>
<polygon fill="black" stroke="black" points="2998.5,-695.62 2995,-685.62 2991.5,-695.62 2998.5,-695.62"/>
</g>
<!-- j1279234436 -->
<g id="node39" class="node">
<title>j1279234436</title>
<polygon fill="none" stroke="blue" points="2589,-612 2031,-612 2031,-576 2589,-576 2589,-612"/>
<text text-anchor="middle" x="2310" y="-590.3" font-family="Times New Roman,serif" font-size="14.00">Okay. Quindi stiamo sacrificando la felice e potente Eleanor sull&#39;altare dell&#39;Eleanor che era prima?</text>
</g>
<!-- j76584881&#45;&gt;j1279234436 -->
<g id="edge39" class="edge">
<title>j76584881&#45;&gt;j1279234436</title>
<path fill="none" stroke="black" d="M2157.7,-647.52C2185.3,-638 2219.64,-626.16 2248.73,-616.13"/>
<polygon fill="black" stroke="black" points="2249.85,-619.44 2258.16,-612.88 2247.57,-612.83 2249.85,-619.44"/>
</g>
<!-- j2937012227 -->
<g id="node40" class="node">
<title>j2937012227</title>
<polygon fill="none" stroke="blue" points="3467,-612 2719,-612 2719,-576 3467,-576 3467,-612"/>
<text text-anchor="middle" x="3093" y="-590.3" font-family="Times New Roman,serif" font-size="14.00">Oh, quindi tutto quello che dovrei fare è sbattere le palpebre con i miei grandi e bellissimi occhi e la tua determinazione crollerebbe?</text>
</g>
<!-- j2199530367&#45;&gt;j2937012227 -->
<g id="edge40" class="edge">
<title>j2199530367&#45;&gt;j2937012227</title>
<path fill="none" stroke="black" d="M2545.89,-657.48C2636.62,-647.12 2803.02,-628.11 2928.58,-613.78"/>
<polygon fill="black" stroke="black" points="2928.79,-617.27 2938.33,-612.66 2927.99,-610.32 2928.79,-617.27"/>
</g>
<!-- j2013338243 -->
<g id="node41" class="node">
<title>j2013338243</title>
<polygon fill="none" stroke="blue" points="1428,-612 0,-612 0,-576 1428,-576 1428,-612"/>
<text text-anchor="middle" x="714" y="-590.3" font-family="Times New Roman,serif" font-size="14.00">Ah. Giusto. In questo scenario, sono un mostro inumano che presumibilmente massacra persone a casaccio. Puoi mettermi nella categoria &quot;animali predatori&quot;, insieme a cani rabbiosi, orsi affamati e simili, il che significa che non c&#39;è alcun dilemma morale.</text>
</g>
<!-- j1750582213&#45;&gt;j2013338243 -->
<g id="edge41" class="edge">
<title>j1750582213&#45;&gt;j2013338243</title>
<path fill="none" stroke="black" d="M946.57,-647.52C902.75,-637.62 847.79,-625.21 802.29,-614.94"/>
<polygon fill="black" stroke="black" points="803.25,-611.56 792.72,-612.78 801.7,-618.39 803.25,-611.56"/>
</g>
<!-- j3017672959 -->
<g id="node42" class="node">
<title>j3017672959</title>
<polygon fill="none" stroke="blue" points="1934,-612 1446,-612 1446,-576 1934,-576 1934,-612"/>
<text text-anchor="middle" x="1690" y="-590.3" font-family="Times New Roman,serif" font-size="14.00">… Non lo so. A volte penso di sì. Mi sento come il personaggio di un melodramma.</text>
</g>
<!-- j1513102657&#45;&gt;j3017672959 -->
<g id="edge42" class="edge">
<title>j1513102657&#45;&gt;j3017672959</title>
<path fill="none" stroke="black" d="M1690,-647.7C1690,-640.41 1690,-631.73 1690,-623.54"/>
<polygon fill="black" stroke="black" points="1693.5,-623.62 1690,-613.62 1686.5,-623.62 1693.5,-623.62"/>
</g>
<!-- j161051787 -->
<g id="node43" class="node">
<title>j161051787</title>
<polygon fill="none" stroke="blue" points="2609.5,-540 2166.5,-540 2166.5,-504 2609.5,-504 2609.5,-540"/>
<text text-anchor="middle" x="2388" y="-518.3" font-family="Times New Roman,serif" font-size="14.00">Io posso cambiare idea e decidere di vivere, ma tu non puoi cambiare la tua?</text>
</g>
<!-- j1279234436&#45;&gt;j161051787 -->
<g id="edge43" class="edge">
<title>j1279234436&#45;&gt;j161051787</title>
<path fill="none" stroke="black" d="M2329.28,-575.7C2338.66,-567.28 2350.09,-557.02 2360.38,-547.79"/>
<polygon fill="black" stroke="black" points="2362.44,-550.64 2367.54,-541.36 2357.76,-545.43 2362.44,-550.64"/>
</g>
<!-- j2501357889 -->
<g id="node44" class="node">
<title>j2501357889</title>
<polygon fill="none" stroke="blue" points="3371.5,-540 3038.5,-540 3038.5,-504 3371.5,-504 3371.5,-540"/>
<text text-anchor="middle" x="3205" y="-518.3" font-family="Times New Roman,serif" font-size="14.00">Che tipo di impavido cacciatore di vampiri saresti allora?</text>
</g>
<!-- j2937012227&#45;&gt;j2501357889 -->
<g id="edge44" class="edge">
<title>j2937012227&#45;&gt;j2501357889</title>
<path fill="none" stroke="black" d="M3120.97,-575.52C3135.11,-566.68 3152.46,-555.84 3167.72,-546.3"/>
<polygon fill="black" stroke="black" points="3169.47,-549.33 3176.1,-541.06 3165.76,-543.39 3169.47,-549.33"/>
</g>
<!-- j1782382711 -->
<g id="node45" class="node">
<title>j1782382711</title>
<polygon fill="none" stroke="blue" points="760,-540 668,-540 668,-504 760,-504 760,-540"/>
<text text-anchor="middle" x="714" y="-518.3" font-family="Times New Roman,serif" font-size="14.00">Allora dimmi.</text>
</g>
<!-- j2013338243&#45;&gt;j1782382711 -->
<g id="edge45" class="edge">
<title>j2013338243&#45;&gt;j1782382711</title>
<path fill="none" stroke="black" d="M714,-575.7C714,-568.41 714,-559.73 714,-551.54"/>
<polygon fill="black" stroke="black" points="717.5,-551.62 714,-541.62 710.5,-551.62 717.5,-551.62"/>
</g>
<!-- j1826233089 -->
<g id="node46" class="node">
<title>j1826233089</title>
<polygon fill="none" stroke="blue" points="2035.5,-540 1214.5,-540 1214.5,-504 2035.5,-504 2035.5,-540"/>
<text text-anchor="middle" x="1625" y="-518.3" font-family="Times New Roman,serif" font-size="14.00">&quot;Oh no, la sventurata ragazza che un tempo amavamo è diventata una sexy vampira. Uccidiamola così che nella morte tornerà pura e innocente.&quot;</text>
</g>
<!-- j3017672959&#45;&gt;j1826233089 -->
<g id="edge46" class="edge">
<title>j3017672959&#45;&gt;j1826233089</title>
<path fill="none" stroke="black" d="M1673.93,-575.7C1666.3,-567.47 1657.02,-557.48 1648.6,-548.42"/>
<polygon fill="black" stroke="black" points="1651.28,-546.16 1641.91,-541.21 1646.15,-550.92 1651.28,-546.16"/>
</g>
<!-- j336978720 -->
<g id="node47" class="node">
<title>j336978720</title>
<polygon fill="none" stroke="blue" points="2819,-468 2439,-468 2439,-432 2819,-432 2819,-468"/>
<text text-anchor="middle" x="2629" y="-446.3" font-family="Times New Roman,serif" font-size="14.00">Non dovrei sorprendermi. È il finale per cui le storie ti preparano.</text>
</g>
<!-- j161051787&#45;&gt;j336978720 -->
<g id="edge47" class="edge">
<title>j161051787&#45;&gt;j336978720</title>
<path fill="none" stroke="black" d="M2448.19,-503.52C2481.68,-493.79 2523.53,-481.64 2558.53,-471.47"/>
<polygon fill="black" stroke="black" points="2559.08,-474.95 2567.7,-468.8 2557.12,-468.23 2559.08,-474.95"/>
</g>
<!-- j3863444135 -->
<g id="node48" class="node">
<title>j3863444135</title>
<polygon fill="none" stroke="blue" points="3810.5,-468 3045.5,-468 3045.5,-432 3810.5,-432 3810.5,-468"/>
<text text-anchor="middle" x="3428" y="-446.3" font-family="Times New Roman,serif" font-size="14.00">Te lo dico io. Sarai il genere di persona che muore a metà del film, perché non ha avuto il cuore di Fare Ciò Che Doveva Essere Fatto.</text>
</g>
<!-- j2501357889&#45;&gt;j3863444135 -->
<g id="edge48" class="edge">
<title>j2501357889&#45;&gt;j3863444135</title>
<path fill="none" stroke="black" d="M3260.7,-503.52C3291.41,-493.88 3329.74,-481.84 3361.96,-471.73"/>
<polygon fill="black" stroke="black" points="3362.69,-475.17 3371.18,-468.84 3360.59,-468.49 3362.69,-475.17"/>
</g>
<!-- j3379839921 -->
<g id="node49" class="node">
<title>j3379839921</title>
<polygon fill="none" stroke="blue" points="956.5,-468 471.5,-468 471.5,-432 956.5,-432 956.5,-468"/>
<text text-anchor="middle" x="714" y="-446.3" font-family="Times New Roman,serif" font-size="14.00">Aspetterai che io reclami la mia prima vittima prima di spararmi un proiettile in testa?</text>
</g>
<!-- j1782382711&#45;&gt;j3379839921 -->
<g id="edge49" class="edge">
<title>j1782382711&#45;&gt;j3379839921</title>
<path fill="none" stroke="black" d="M714,-503.7C714,-496.41 714,-487.73 714,-479.54"/>
<polygon fill="black" stroke="black" points="717.5,-479.62 714,-469.62 710.5,-479.62 717.5,-479.62"/>
</g>
<!-- j1735240966 -->
<g id="node50" class="node">
<title>j1735240966</title>
<ellipse fill="none" stroke="orange" cx="1592" cy="-450" rx="175.47" ry="18"/>
<text text-anchor="middle" x="1592" y="-446.3" font-family="Times New Roman,serif" font-size="14.00">Boolean EleanorArthurNightmare is now true.</text>
</g>
<!-- j1826233089&#45;&gt;j1735240966 -->
<g id="edge50" class="edge">
<title>j1826233089&#45;&gt;j1735240966</title>
<path fill="none" stroke="black" d="M1616.84,-503.7C1613.25,-496.07 1608.93,-486.92 1604.92,-478.4"/>
<polygon fill="black" stroke="black" points="1608.14,-477.03 1600.71,-469.47 1601.81,-480.01 1608.14,-477.03"/>
</g>
<!-- j2050189910 -->
<g id="node51" class="node">
<title>j2050189910</title>
<polygon fill="none" stroke="blue" points="3214.5,-396 2393.5,-396 2393.5,-360 3214.5,-360 3214.5,-396"/>
<text text-anchor="middle" x="2804" y="-374.3" font-family="Times New Roman,serif" font-size="14.00">&quot;Oh no, la sventurata ragazza che un tempo amavamo è diventata una sexy vampira. Uccidiamola così che nella morte tornerà pura e innocente.&quot;</text>
</g>
<!-- j336978720&#45;&gt;j2050189910 -->
<g id="edge51" class="edge">
<title>j336978720&#45;&gt;j2050189910</title>
<path fill="none" stroke="black" d="M2672.71,-431.52C2696.18,-422.13 2725.32,-410.47 2750.18,-400.53"/>
<polygon fill="black" stroke="black" points="2751.16,-403.91 2759.14,-396.94 2748.56,-397.41 2751.16,-403.91"/>
</g>
<!-- j2834231563 -->
<g id="node52" class="node">
<title>j2834231563</title>
<polygon fill="none" stroke="blue" points="3618.5,-396 3367.5,-396 3367.5,-360 3618.5,-360 3618.5,-396"/>
<text text-anchor="middle" x="3493" y="-374.3" font-family="Times New Roman,serif" font-size="14.00">Sarai un avvertimento per gli altri, lo sarai!</text>
</g>
<!-- j3863444135&#45;&gt;j2834231563 -->
<g id="edge52" class="edge">
<title>j3863444135&#45;&gt;j2834231563</title>
<path fill="none" stroke="black" d="M3444.07,-431.7C3451.7,-423.47 3460.98,-413.48 3469.4,-404.42"/>
<polygon fill="black" stroke="black" points="3471.85,-406.92 3476.09,-397.21 3466.72,-402.16 3471.85,-406.92"/>
</g>
<!-- j1735741677 -->
<g id="node53" class="node">
<title>j1735741677</title>
<polygon fill="none" stroke="blue" points="1090,-252 666,-252 666,-216 1090,-216 1090,-252"/>
<text text-anchor="middle" x="878" y="-230.3" font-family="Times New Roman,serif" font-size="14.00">Perché altrimenti come puoi essere sicuro che io rappresenti un pericolo?</text>
</g>
<!-- j3379839921&#45;&gt;j1735741677 -->
<g id="edge53" class="edge">
<title>j3379839921&#45;&gt;j1735741677</title>
<path fill="none" stroke="black" d="M714.46,-431.76C715.66,-412.92 719.71,-382.43 733,-360 758.83,-316.41 805.31,-280.4 838.7,-258.41"/>
<polygon fill="black" stroke="black" points="840.38,-261.49 846.9,-253.13 836.59,-255.6 840.38,-261.49"/>
</g>
<!-- j3598368313 -->
<g id="node54" class="node">
<title>j3598368313</title>
<polygon fill="none" stroke="blue" points="2375.5,-396 742.5,-396 742.5,-360 2375.5,-360 2375.5,-396"/>
<text text-anchor="middle" x="1559" y="-374.3" font-family="Times New Roman,serif" font-size="14.00">Ne ero ossessionata, in realtà. Ho fatto incubi in cui mi svegliavo sul divano e Arthur era in piedi vicino a me, con le lacrime agli occhi e la spada in mano, e blaterava su come Eleanor fosse sua sorella ma ora Eleanor era SPARITA, e lui doveva farlo anche se lo stava uccidendo, weee weee.</text>
</g>
<!-- j1735240966&#45;&gt;j3598368313 -->
<g id="edge54" class="edge">
<title>j1735240966&#45;&gt;j3598368313</title>
<path fill="none" stroke="black" d="M1583.84,-431.7C1580.25,-424.07 1575.93,-414.92 1571.92,-406.4"/>
<polygon fill="black" stroke="black" points="1575.14,-405.03 1567.71,-397.47 1568.81,-408.01 1575.14,-405.03"/>
</g>
<!-- j3905532895 -->
<g id="node55" class="node">
<title>j3905532895</title>
<ellipse fill="none" stroke="orange" cx="2742" cy="-306" rx="175.47" ry="18"/>
<text text-anchor="middle" x="2742" y="-302.3" font-family="Times New Roman,serif" font-size="14.00">Boolean EleanorArthurNightmare is now true.</text>
</g>
<!-- j2050189910&#45;&gt;j3905532895 -->
<g id="edge55" class="edge">
<title>j2050189910&#45;&gt;j3905532895</title>
<path fill="none" stroke="black" d="M2788.67,-359.7C2781.47,-351.56 2772.72,-341.69 2764.76,-332.7"/>
<polygon fill="black" stroke="black" points="2767.4,-330.4 2758.15,-325.24 2762.16,-335.04 2767.4,-330.4"/>
</g>
<!-- j578716874 -->
<g id="node56" class="node">
<title>j578716874</title>
<polygon fill="none" stroke="blue" points="3625,-180 3183,-180 3183,-144 3625,-144 3625,-180"/>
<text text-anchor="middle" x="3404" y="-158.3" font-family="Times New Roman,serif" font-size="14.00">Mi dispiace. Non sono molto corretta nei tuoi confronti. Ci sentiamo presto.</text>
</g>
<!-- j2834231563&#45;&gt;j578716874 -->
<g id="edge56" class="edge">
<title>j2834231563&#45;&gt;j578716874</title>
<path fill="none" stroke="black" d="M3500.47,-359.99C3512.88,-328.87 3533.8,-261.78 3506,-216 3498.2,-203.16 3486.16,-193.28 3473.05,-185.74"/>
<polygon fill="black" stroke="black" points="3474.7,-182.65 3464.22,-181.12 3471.46,-188.86 3474.7,-182.65"/>
</g>
<!-- j1735741677&#45;&gt;Chat ends. -->
<g id="edge57" class="edge">
<title>j1735741677&#45;&gt;Chat ends.</title>
<path fill="none" stroke="black" d="M1000.52,-215.52C1222.19,-184.24 1704.72,-117.68 2113,-72 2297.48,-51.36 2516.37,-32.49 2619.94,-23.89"/>
<polygon fill="black" stroke="black" points="2620.21,-27.38 2629.89,-23.07 2619.63,-20.4 2620.21,-27.38"/>
</g>
<!-- j2787720794 -->
<g id="node57" class="node">
<title>j2787720794</title>
<polygon fill="none" stroke="blue" points="1922.5,-324 1195.5,-324 1195.5,-288 1922.5,-288 1922.5,-324"/>
<text text-anchor="middle" x="1559" y="-302.3" font-family="Times New Roman,serif" font-size="14.00">E mentre lui mi infila la lama tra le costole, urlo &quot;Eleanor è PROPRIO QUI, stupido bastardo!&quot;, ma lui non riesce più a sentirmi.</text>
</g>
<!-- j3598368313&#45;&gt;j2787720794 -->
<g id="edge58" class="edge">
<title>j3598368313&#45;&gt;j2787720794</title>
<path fill="none" stroke="black" d="M1559,-359.7C1559,-352.41 1559,-343.73 1559,-335.54"/>
<polygon fill="black" stroke="black" points="1562.5,-335.62 1559,-325.62 1555.5,-335.62 1562.5,-335.62"/>
</g>
<!-- j3105351456 -->
<g id="node58" class="node">
<title>j3105351456</title>
<polygon fill="none" stroke="blue" points="3496.5,-252 1863.5,-252 1863.5,-216 3496.5,-216 3496.5,-252"/>
<text text-anchor="middle" x="2680" y="-230.3" font-family="Times New Roman,serif" font-size="14.00">Ne ero ossessionata, in realtà. Ho fatto incubi in cui mi svegliavo sul divano e Arthur era in piedi vicino a me, con le lacrime agli occhi e la spada in mano, e blaterava su come Eleanor fosse sua sorella ma ora Eleanor era SPARITA, e lui doveva farlo anche se lo stava uccidendo, weee weee.</text>
</g>
<!-- j3905532895&#45;&gt;j3105351456 -->
<g id="edge59" class="edge">
<title>j3905532895&#45;&gt;j3105351456</title>
<path fill="none" stroke="black" d="M2726.67,-287.7C2719.47,-279.56 2710.72,-269.69 2702.76,-260.7"/>
<polygon fill="black" stroke="black" points="2705.4,-258.4 2696.15,-253.24 2700.16,-263.04 2705.4,-258.4"/>
</g>
<!-- j578716874&#45;&gt;Chat ends. -->
<g id="edge60" class="edge">
<title>j578716874&#45;&gt;Chat ends.</title>
<path fill="none" stroke="black" d="M3314.86,-143.52C3162.94,-113.72 2858.27,-53.97 2734.32,-29.65"/>
<polygon fill="black" stroke="black" points="2735.23,-26.27 2724.74,-27.77 2733.88,-33.13 2735.23,-26.27"/>
</g>
<!-- j556432125 -->
<g id="node59" class="node">
<title>j556432125</title>
<polygon fill="none" stroke="red" points="1845,-252 1273,-252 1273,-216 1845,-216 1845,-252"/>
<text text-anchor="middle" x="1559" y="-230.3" font-family="Times New Roman,serif" font-size="14.00">Quindi quello che ho capito è che non sei disposta a decidere in anticipo riguardo questa questione.</text>
</g>
<!-- j2787720794&#45;&gt;j556432125 -->
<g id="edge61" class="edge">
<title>j2787720794&#45;&gt;j556432125</title>
<path fill="none" stroke="black" d="M1559,-287.7C1559,-280.41 1559,-271.73 1559,-263.54"/>
<polygon fill="black" stroke="black" points="1562.5,-263.62 1559,-253.62 1555.5,-263.62 1562.5,-263.62"/>
</g>
<!-- j3257749062 -->
<g id="node60" class="node">
<title>j3257749062</title>
<polygon fill="none" stroke="blue" points="3043.5,-180 2316.5,-180 2316.5,-144 3043.5,-144 3043.5,-180"/>
<text text-anchor="middle" x="2680" y="-158.3" font-family="Times New Roman,serif" font-size="14.00">E mentre lui mi infila la lama tra le costole, urlo &quot;Eleanor è PROPRIO QUI, stupido bastardo!&quot;, ma lui non riesce più a sentirmi.</text>
</g>
<!-- j3105351456&#45;&gt;j3257749062 -->
<g id="edge62" class="edge">
<title>j3105351456&#45;&gt;j3257749062</title>
<path fill="none" stroke="black" d="M2680,-215.7C2680,-208.41 2680,-199.73 2680,-191.54"/>
<polygon fill="black" stroke="black" points="2683.5,-191.62 2680,-181.62 2676.5,-191.62 2683.5,-191.62"/>
</g>
<!-- j2372291287 -->
<g id="node61" class="node">
<title>j2372291287</title>
<polygon fill="none" stroke="red" points="2020,-180 1742,-180 1742,-144 2020,-144 2020,-180"/>
<text text-anchor="middle" x="1881" y="-158.3" font-family="Times New Roman,serif" font-size="14.00">In tal caso, non puoi aspettarti che lo faccia io.</text>
</g>
<!-- j556432125&#45;&gt;j2372291287 -->
<g id="edge63" class="edge">
<title>j556432125&#45;&gt;j2372291287</title>
<path fill="none" stroke="black" d="M1639.42,-215.52C1685.04,-205.6 1742.28,-193.16 1789.59,-182.87"/>
<polygon fill="black" stroke="black" points="1790.26,-186.31 1799.29,-180.76 1788.77,-179.47 1790.26,-186.31"/>
</g>
<!-- j3383763596 -->
<g id="node62" class="node">
<title>j3383763596</title>
<polygon fill="none" stroke="blue" points="2786.5,-108 2573.5,-108 2573.5,-72 2786.5,-72 2786.5,-108"/>
<text text-anchor="middle" x="2680" y="-86.3" font-family="Times New Roman,serif" font-size="14.00">Forse sognerò te la prossima volta.</text>
</g>
<!-- j3257749062&#45;&gt;j3383763596 -->
<g id="edge64" class="edge">
<title>j3257749062&#45;&gt;j3383763596</title>
<path fill="none" stroke="black" d="M2680,-143.7C2680,-136.41 2680,-127.73 2680,-119.54"/>
<polygon fill="black" stroke="black" points="2683.5,-119.62 2680,-109.62 2676.5,-119.62 2683.5,-119.62"/>
</g>
<!-- j367054140 -->
<g id="node63" class="node">
<title>j367054140</title>
<ellipse fill="none" stroke="orange" cx="2186" cy="-90" rx="64.19" ry="18"/>
<text text-anchor="middle" x="2186" y="-86.3" font-family="Times New Roman,serif" font-size="14.00">+20 Chemistry</text>
</g>
<!-- j2372291287&#45;&gt;j367054140 -->
<g id="edge65" class="edge">
<title>j2372291287&#45;&gt;j367054140</title>
<path fill="none" stroke="black" d="M1957.18,-143.52C2009.56,-131.49 2078.13,-115.76 2126.5,-104.66"/>
<polygon fill="black" stroke="black" points="2126.98,-108.14 2135.94,-102.49 2125.41,-101.31 2126.98,-108.14"/>
</g>
<!-- j3383763596&#45;&gt;Chat ends. -->
<g id="edge66" class="edge">
<title>j3383763596&#45;&gt;Chat ends.</title>
<path fill="none" stroke="black" d="M2680,-71.7C2680,-64.41 2680,-55.73 2680,-47.54"/>
<polygon fill="black" stroke="black" points="2683.5,-47.62 2680,-37.62 2676.5,-47.62 2683.5,-47.62"/>
</g>
<!-- j367054140&#45;&gt;Chat ends. -->
<g id="edge67" class="edge">
<title>j367054140&#45;&gt;Chat ends.</title>
<path fill="none" stroke="black" d="M2242.19,-81.04C2336.96,-67.61 2527.56,-40.6 2622.93,-27.09"/>
<polygon fill="black" stroke="black" points="2623.16,-30.59 2632.57,-25.72 2622.18,-23.66 2623.16,-30.59"/>
</g>
</g>
</svg>
