<?xml version="1.0" encoding="UTF-8" standalone="no"?>
<!DOCTYPE svg PUBLIC "-//W3C//DTD SVG 1.1//EN"
 "http://www.w3.org/Graphics/SVG/1.1/DTD/svg11.dtd">
<!-- Generated by graphviz version 7.1.0 (20230121.1956)
 -->
<!-- Pages: 1 -->
<svg width="1206pt" height="332pt"
 viewBox="0.00 0.00 1205.50 332.00" xmlns="http://www.w3.org/2000/svg" xmlns:xlink="http://www.w3.org/1999/xlink">
<g id="graph0" class="graph" transform="scale(1 1) rotate(0) translate(4 328)">
<polygon fill="white" stroke="none" points="-4,4 -4,-328 1201.5,-328 1201.5,4 -4,4"/>
<!-- ArthurBirthdayConvo3 begins. -->
<g id="node1" class="node">
<title>ArthurBirthdayConvo3 begins.</title>
<ellipse fill="none" stroke="orange" cx="603" cy="-306" rx="122.38" ry="18"/>
<text text-anchor="middle" x="603" y="-302.3" font-family="Times New Roman,serif" font-size="14.00">ArthurBirthdayConvo3 begins.</text>
</g>
<!-- j3545742410 -->
<g id="node2" class="node">
<title>j3545742410</title>
<polygon fill="none" stroke="red" points="610,-252 84,-252 84,-216 610,-216 610,-252"/>
<text text-anchor="middle" x="347" y="-230.3" font-family="Times New Roman,serif" font-size="14.00">Hola. Solo quería desearte un feliz cumpleaños. Me alegro de haber estado aquí para verlo.</text>
</g>
<!-- ArthurBirthdayConvo3 begins.&#45;&gt;j3545742410 -->
<g id="edge1" class="edge">
<title>ArthurBirthdayConvo3 begins.&#45;&gt;j3545742410</title>
<path fill="none" stroke="black" d="M546.82,-289.64C510.09,-279.6 461.7,-266.36 421.74,-255.44"/>
<polygon fill="black" stroke="black" points="422.74,-252.08 412.17,-252.82 420.89,-258.83 422.74,-252.08"/>
</g>
<!-- j2283306733 -->
<g id="node3" class="node">
<title>j2283306733</title>
<polygon fill="none" stroke="red" points="1104,-252 640,-252 640,-216 1104,-216 1104,-252"/>
<text text-anchor="middle" x="872" y="-230.3" font-family="Times New Roman,serif" font-size="14.00">Feliz cumpleaños. Haz un esfuerzo extra para no morir hoy. Arruinarías la vibra.</text>
</g>
<!-- ArthurBirthdayConvo3 begins.&#45;&gt;j2283306733 -->
<g id="edge2" class="edge">
<title>ArthurBirthdayConvo3 begins.&#45;&gt;j2283306733</title>
<path fill="none" stroke="black" d="M661.37,-289.81C700.23,-279.7 751.75,-266.29 794.1,-255.27"/>
<polygon fill="black" stroke="black" points="794.96,-258.66 803.75,-252.76 793.2,-251.89 794.96,-258.66"/>
</g>
<!-- j571664461 -->
<g id="node4" class="node">
<title>j571664461</title>
<ellipse fill="none" stroke="orange" cx="323" cy="-162" rx="64.19" ry="18"/>
<text text-anchor="middle" x="323" y="-158.3" font-family="Times New Roman,serif" font-size="14.00">+20 Chemistry</text>
</g>
<!-- j3545742410&#45;&gt;j571664461 -->
<g id="edge3" class="edge">
<title>j3545742410&#45;&gt;j571664461</title>
<path fill="none" stroke="black" d="M341.07,-215.7C338.51,-208.24 335.45,-199.32 332.59,-190.97"/>
<polygon fill="black" stroke="black" points="335.91,-189.86 329.36,-181.54 329.29,-192.13 335.91,-189.86"/>
</g>
<!-- j2882460446 -->
<g id="node5" class="node">
<title>j2882460446</title>
<polygon fill="none" stroke="blue" points="1197.5,-108 570.5,-108 570.5,-72 1197.5,-72 1197.5,-108"/>
<text text-anchor="middle" x="884" y="-86.3" font-family="Times New Roman,serif" font-size="14.00">Mira, sé que tú también has pasado por muchas cosas, pero hay un momento y un lugar para el humor negro.</text>
</g>
<!-- j2283306733&#45;&gt;j2882460446 -->
<g id="edge4" class="edge">
<title>j2283306733&#45;&gt;j2882460446</title>
<path fill="none" stroke="black" d="M873.47,-215.59C875.5,-191.61 879.17,-148.14 881.6,-119.42"/>
<polygon fill="black" stroke="black" points="885.07,-119.88 882.43,-109.62 878.1,-119.29 885.07,-119.88"/>
</g>
<!-- j3087900122 -->
<g id="node6" class="node">
<title>j3087900122</title>
<polygon fill="none" stroke="blue" points="552,-108 0,-108 0,-72 552,-72 552,-108"/>
<text text-anchor="middle" x="276" y="-86.3" font-family="Times New Roman,serif" font-size="14.00">Hemos pasado por momentos muy intensos, ¿no? Gracias por apoyarme, hoy y todos los días.</text>
</g>
<!-- j571664461&#45;&gt;j3087900122 -->
<g id="edge5" class="edge">
<title>j571664461&#45;&gt;j3087900122</title>
<path fill="none" stroke="black" d="M311.62,-144.05C306.33,-136.18 299.91,-126.62 293.99,-117.79"/>
<polygon fill="black" stroke="black" points="296.92,-115.88 288.44,-109.53 291.11,-119.79 296.92,-115.88"/>
</g>
<!-- Chat ends. -->
<g id="node7" class="node">
<title>Chat ends.</title>
<ellipse fill="none" stroke="orange" cx="580" cy="-18" rx="50.09" ry="18"/>
<text text-anchor="middle" x="580" y="-14.3" font-family="Times New Roman,serif" font-size="14.00">Chat ends.</text>
</g>
<!-- j2882460446&#45;&gt;Chat ends. -->
<g id="edge6" class="edge">
<title>j2882460446&#45;&gt;Chat ends.</title>
<path fill="none" stroke="black" d="M808.07,-71.52C753.37,-58.92 680.95,-42.25 632.53,-31.1"/>
<polygon fill="black" stroke="black" points="633.38,-27.7 622.85,-28.87 631.81,-34.52 633.38,-27.7"/>
</g>
<!-- j3087900122&#45;&gt;Chat ends. -->
<g id="edge7" class="edge">
<title>j3087900122&#45;&gt;Chat ends.</title>
<path fill="none" stroke="black" d="M351.93,-71.52C406.63,-58.92 479.05,-42.25 527.47,-31.1"/>
<polygon fill="black" stroke="black" points="528.19,-34.52 537.15,-28.87 526.62,-27.7 528.19,-34.52"/>
</g>
</g>
</svg>
