<?xml version="1.0" encoding="UTF-8" standalone="no"?>
<!DOCTYPE svg PUBLIC "-//W3C//DTD SVG 1.1//EN"
 "http://www.w3.org/Graphics/SVG/1.1/DTD/svg11.dtd">
<!-- Generated by graphviz version 7.1.0 (20230121.1956)
 -->
<!-- Pages: 1 -->
<svg width="1649pt" height="2285pt"
 viewBox="0.00 0.00 1649.00 2285.00" xmlns="http://www.w3.org/2000/svg" xmlns:xlink="http://www.w3.org/1999/xlink">
<g id="graph0" class="graph" transform="scale(1 1) rotate(0) translate(4 2281)">
<polygon fill="white" stroke="none" points="-4,4 -4,-2281 1645,-2281 1645,4 -4,4"/>
<!-- LettieRank2Convo1 begins. -->
<g id="node1" class="node">
<title>LettieRank2Convo1 begins.</title>
<ellipse fill="none" stroke="orange" cx="415.5" cy="-2259" rx="111.58" ry="18"/>
<text text-anchor="middle" x="415.5" y="-2255.3" font-family="Times New Roman,serif" font-size="14.00">LettieRank2Convo1 begins.</text>
</g>
<!-- j3411441534 -->
<g id="node2" class="node">
<title>j3411441534</title>
<ellipse fill="none" stroke="orange" cx="415.5" cy="-2186" rx="109.68" ry="18"/>
<text text-anchor="middle" x="415.5" y="-2182.3" font-family="Times New Roman,serif" font-size="14.00">Check boolean LettieDuviri</text>
</g>
<!-- LettieRank2Convo1 begins.&#45;&gt;j3411441534 -->
<g id="edge1" class="edge">
<title>LettieRank2Convo1 begins.&#45;&gt;j3411441534</title>
<path fill="none" stroke="black" d="M415.5,-2240.81C415.5,-2233.23 415.5,-2224.1 415.5,-2215.54"/>
<polygon fill="black" stroke="black" points="419,-2215.54 415.5,-2205.54 412,-2215.54 419,-2215.54"/>
</g>
<!-- j2806792687 -->
<g id="node3" class="node">
<title>j2806792687</title>
<polygon fill="none" stroke="blue" points="419.5,-2117 231.5,-2117 231.5,-2079 419.5,-2079 419.5,-2117"/>
<text text-anchor="middle" x="325.5" y="-2101.8" font-family="Times New Roman,serif" font-size="14.00">Queste morti di cui hai parlato &#13;</text>
<text text-anchor="middle" x="325.5" y="-2086.8" font-family="Times New Roman,serif" font-size="14.00">Ti hanno fatto male?</text>
</g>
<!-- j3411441534&#45;&gt;j2806792687 -->
<g id="edge2" class="edge">
<title>j3411441534&#45;&gt;j2806792687</title>
<path fill="none" stroke="green" d="M397.72,-2168.01C384.96,-2155.81 367.52,-2139.15 352.97,-2125.25"/>
<polygon fill="green" stroke="green" points="355.54,-2122.87 345.9,-2118.49 350.71,-2127.93 355.54,-2122.87"/>
<text text-anchor="middle" x="390.5" y="-2138.8" font-family="Times New Roman,serif" font-size="14.00">true</text>
</g>
<!-- j3282669508 -->
<g id="node4" class="node">
<title>j3282669508</title>
<polygon fill="none" stroke="blue" points="577.5,-2117 437.5,-2117 437.5,-2079 577.5,-2079 577.5,-2117"/>
<text text-anchor="middle" x="507.5" y="-2101.8" font-family="Times New Roman,serif" font-size="14.00">Dimmi, babas &#13;</text>
<text text-anchor="middle" x="507.5" y="-2086.8" font-family="Times New Roman,serif" font-size="14.00">Sai molto sulla morte?</text>
</g>
<!-- j3411441534&#45;&gt;j3282669508 -->
<g id="edge3" class="edge">
<title>j3411441534&#45;&gt;j3282669508</title>
<path fill="none" stroke="brown" d="M433.68,-2168.01C446.72,-2155.81 464.55,-2139.15 479.42,-2125.25"/>
<polygon fill="brown" stroke="brown" points="481.75,-2127.86 486.66,-2118.48 476.97,-2122.75 481.75,-2127.86"/>
<text text-anchor="middle" x="480.5" y="-2138.8" font-family="Times New Roman,serif" font-size="14.00">false</text>
</g>
<!-- j403357780 -->
<g id="node5" class="node">
<title>j403357780</title>
<polygon fill="none" stroke="red" points="613.5,-2042 235.5,-2042 235.5,-2006 613.5,-2006 613.5,-2042"/>
<text text-anchor="middle" x="424.5" y="-2020.3" font-family="Times New Roman,serif" font-size="14.00">E io che pensavo di essere quello morboso tra i due... Stai bene?</text>
</g>
<!-- j2806792687&#45;&gt;j403357780 -->
<g id="edge4" class="edge">
<title>j2806792687&#45;&gt;j403357780</title>
<path fill="none" stroke="black" d="M350.74,-2078.65C363.09,-2069.66 378.13,-2058.73 391.39,-2049.08"/>
<polygon fill="black" stroke="black" points="393.42,-2051.93 399.45,-2043.22 389.3,-2046.27 393.42,-2051.93"/>
</g>
<!-- j1796658161 -->
<g id="node6" class="node">
<title>j1796658161</title>
<polygon fill="none" stroke="red" points="873.5,-2042 631.5,-2042 631.5,-2006 873.5,-2006 873.5,-2042"/>
<text text-anchor="middle" x="752.5" y="-2020.3" font-family="Times New Roman,serif" font-size="14.00">LOL. Signorina, non farmi iniziare. E tu?</text>
</g>
<!-- j2806792687&#45;&gt;j1796658161 -->
<g id="edge5" class="edge">
<title>j2806792687&#45;&gt;j1796658161</title>
<path fill="none" stroke="black" d="M419.79,-2080.49C422.73,-2079.99 425.64,-2079.49 428.5,-2079 496.9,-2067.32 573.47,-2054.55 635,-2044.36"/>
<polygon fill="black" stroke="black" points="635.52,-2047.82 644.81,-2042.73 634.37,-2040.91 635.52,-2047.82"/>
</g>
<!-- j1421170635 -->
<g id="node7" class="node">
<title>j1421170635</title>
<polygon fill="none" stroke="red" points="217,-2042 0,-2042 0,-2006 217,-2006 217,-2042"/>
<text text-anchor="middle" x="108.5" y="-2020.3" font-family="Times New Roman,serif" font-size="14.00">Dovresti davvero uscire più spesso.</text>
</g>
<!-- j2806792687&#45;&gt;j1421170635 -->
<g id="edge6" class="edge">
<title>j2806792687&#45;&gt;j1421170635</title>
<path fill="none" stroke="black" d="M269.9,-2078.55C239.91,-2068.6 202.77,-2056.28 171.69,-2045.97"/>
<polygon fill="black" stroke="black" points="173,-2042.71 162.41,-2042.89 170.8,-2049.36 173,-2042.71"/>
</g>
<!-- j3282669508&#45;&gt;j403357780 -->
<g id="edge7" class="edge">
<title>j3282669508&#45;&gt;j403357780</title>
<path fill="none" stroke="black" d="M486.56,-2078.83C476.4,-2070.02 464.05,-2059.31 453.05,-2049.76"/>
<polygon fill="black" stroke="black" points="455.57,-2047.32 445.72,-2043.41 450.98,-2052.61 455.57,-2047.32"/>
</g>
<!-- j3282669508&#45;&gt;j1796658161 -->
<g id="edge8" class="edge">
<title>j3282669508&#45;&gt;j1796658161</title>
<path fill="none" stroke="black" d="M570.28,-2078.55C604.58,-2068.47 647.16,-2055.96 682.53,-2045.56"/>
<polygon fill="black" stroke="black" points="683.2,-2049.01 691.81,-2042.84 681.23,-2042.3 683.2,-2049.01"/>
</g>
<!-- j3282669508&#45;&gt;j1421170635 -->
<g id="edge9" class="edge">
<title>j3282669508&#45;&gt;j1421170635</title>
<path fill="none" stroke="black" d="M437.33,-2080.79C434.35,-2080.18 431.4,-2079.57 428.5,-2079 362.55,-2065.93 288.56,-2053.32 228.35,-2043.57"/>
<polygon fill="black" stroke="black" points="229.2,-2040.16 218.77,-2042.02 228.08,-2047.07 229.2,-2040.16"/>
</g>
<!-- j3555022975 -->
<g id="node8" class="node">
<title>j3555022975</title>
<polygon fill="none" stroke="blue" points="854.5,-1969 650.5,-1969 650.5,-1933 854.5,-1933 854.5,-1969"/>
<text text-anchor="middle" x="752.5" y="-1947.3" font-family="Times New Roman,serif" font-size="14.00">La Flaca e io ci conosciamo bene</text>
</g>
<!-- j403357780&#45;&gt;j3555022975 -->
<g id="edge10" class="edge">
<title>j403357780&#45;&gt;j3555022975</title>
<path fill="none" stroke="black" d="M505.16,-2005.54C552.23,-1995.35 611.78,-1982.46 660.65,-1971.88"/>
<polygon fill="black" stroke="black" points="661.36,-1975.31 670.39,-1969.77 659.88,-1968.47 661.36,-1975.31"/>
</g>
<!-- j1796658161&#45;&gt;j3555022975 -->
<g id="edge11" class="edge">
<title>j1796658161&#45;&gt;j3555022975</title>
<path fill="none" stroke="black" d="M752.5,-2005.81C752.5,-1998.23 752.5,-1989.1 752.5,-1980.54"/>
<polygon fill="black" stroke="black" points="756,-1980.54 752.5,-1970.54 749,-1980.54 756,-1980.54"/>
</g>
<!-- j3472070054 -->
<g id="node9" class="node">
<title>j3472070054</title>
<polygon fill="none" stroke="blue" points="133.5,-1915 63.5,-1915 63.5,-1879 133.5,-1879 133.5,-1915"/>
<text text-anchor="middle" x="98.5" y="-1893.3" font-family="Times New Roman,serif" font-size="14.00">Ay, equis</text>
</g>
<!-- j1421170635&#45;&gt;j3472070054 -->
<g id="edge12" class="edge">
<title>j1421170635&#45;&gt;j3472070054</title>
<path fill="none" stroke="black" d="M107.11,-2005.62C105.48,-1985.19 102.74,-1950.99 100.79,-1926.62"/>
<polygon fill="black" stroke="black" points="104.29,-1926.43 100,-1916.74 97.31,-1926.99 104.29,-1926.43"/>
</g>
<!-- j3107446723 -->
<g id="node10" class="node">
<title>j3107446723</title>
<polygon fill="none" stroke="red" points="817,-1861 688,-1861 688,-1825 817,-1825 817,-1861"/>
<text text-anchor="middle" x="752.5" y="-1839.3" font-family="Times New Roman,serif" font-size="14.00">La Flaca è la morte?</text>
</g>
<!-- j3555022975&#45;&gt;j3107446723 -->
<g id="edge13" class="edge">
<title>j3555022975&#45;&gt;j3107446723</title>
<path fill="none" stroke="black" d="M752.5,-1932.97C752.5,-1916.76 752.5,-1892.06 752.5,-1872.79"/>
<polygon fill="black" stroke="black" points="756,-1872.85 752.5,-1862.85 749,-1872.85 756,-1872.85"/>
</g>
<!-- j604687563 -->
<g id="node11" class="node">
<title>j604687563</title>
<polygon fill="none" stroke="red" points="964.5,-1861 860.5,-1861 860.5,-1825 964.5,-1825 964.5,-1861"/>
<text text-anchor="middle" x="912.5" y="-1839.3" font-family="Times New Roman,serif" font-size="14.00">Chi è La Flaca?</text>
</g>
<!-- j3555022975&#45;&gt;j604687563 -->
<g id="edge14" class="edge">
<title>j3555022975&#45;&gt;j604687563</title>
<path fill="none" stroke="black" d="M778.56,-1932.73C805.33,-1915 847.18,-1887.28 876.97,-1867.54"/>
<polygon fill="black" stroke="black" points="878.52,-1870.71 884.92,-1862.27 874.65,-1864.88 878.52,-1870.71"/>
</g>
<!-- Chat ends. -->
<g id="node12" class="node">
<title>Chat ends.</title>
<ellipse fill="none" stroke="orange" cx="1007.5" cy="-18" rx="50.09" ry="18"/>
<text text-anchor="middle" x="1007.5" y="-14.3" font-family="Times New Roman,serif" font-size="14.00">Chat ends.</text>
</g>
<!-- j3472070054&#45;&gt;Chat ends. -->
<g id="edge15" class="edge">
<title>j3472070054&#45;&gt;Chat ends.</title>
<path fill="none" stroke="black" d="M94.15,-1878.73C90.04,-1860.89 84.5,-1832.18 84.5,-1807 84.5,-1807 84.5,-1807 84.5,-90 84.5,-46.67 739.7,-25.95 946.05,-20.5"/>
<polygon fill="black" stroke="black" points="946.13,-24 956.04,-20.24 945.95,-17.01 946.13,-24"/>
</g>
<!-- j1392010601 -->
<g id="node13" class="node">
<title>j1392010601</title>
<polygon fill="none" stroke="blue" points="856,-1788 649,-1788 649,-1750 856,-1750 856,-1788"/>
<text text-anchor="middle" x="752.5" y="-1772.8" font-family="Times New Roman,serif" font-size="14.00">Sí &#13;</text>
<text text-anchor="middle" x="752.5" y="-1757.8" font-family="Times New Roman,serif" font-size="14.00">Mi sorprende che tu l&#39;abbia capito</text>
</g>
<!-- j3107446723&#45;&gt;j1392010601 -->
<g id="edge16" class="edge">
<title>j3107446723&#45;&gt;j1392010601</title>
<path fill="none" stroke="black" d="M752.5,-1824.57C752.5,-1817.1 752.5,-1808.17 752.5,-1799.71"/>
<polygon fill="black" stroke="black" points="756,-1799.79 752.5,-1789.79 749,-1799.79 756,-1799.79"/>
</g>
<!-- j4147158771 -->
<g id="node14" class="node">
<title>j4147158771</title>
<polygon fill="none" stroke="blue" points="1063.5,-1788 937.5,-1788 937.5,-1750 1063.5,-1750 1063.5,-1788"/>
<text text-anchor="middle" x="1000.5" y="-1772.8" font-family="Times New Roman,serif" font-size="14.00">La Signora in Nero &#13;</text>
<text text-anchor="middle" x="1000.5" y="-1757.8" font-family="Times New Roman,serif" font-size="14.00">La Morte</text>
</g>
<!-- j604687563&#45;&gt;j4147158771 -->
<g id="edge17" class="edge">
<title>j604687563&#45;&gt;j4147158771</title>
<path fill="none" stroke="black" d="M933.8,-1824.57C944.5,-1815.82 957.67,-1805.04 969.47,-1795.39"/>
<polygon fill="black" stroke="black" points="971.47,-1798.27 976.99,-1789.23 967.04,-1792.86 971.47,-1798.27"/>
</g>
<!-- j2511273429 -->
<g id="node15" class="node">
<title>j2511273429</title>
<ellipse fill="none" stroke="orange" cx="752.5" cy="-1695" rx="146.77" ry="18"/>
<text text-anchor="middle" x="752.5" y="-1691.3" font-family="Times New Roman,serif" font-size="14.00">Boolean LettieFantasma2 is now true.</text>
</g>
<!-- j1392010601&#45;&gt;j2511273429 -->
<g id="edge18" class="edge">
<title>j1392010601&#45;&gt;j2511273429</title>
<path fill="none" stroke="black" d="M752.5,-1749.83C752.5,-1742.24 752.5,-1733.24 752.5,-1724.79"/>
<polygon fill="black" stroke="black" points="756,-1724.93 752.5,-1714.93 749,-1724.93 756,-1724.93"/>
</g>
<!-- j1713118896 -->
<g id="node16" class="node">
<title>j1713118896</title>
<ellipse fill="none" stroke="orange" cx="1064.5" cy="-1695" rx="146.77" ry="18"/>
<text text-anchor="middle" x="1064.5" y="-1691.3" font-family="Times New Roman,serif" font-size="14.00">Boolean LettieFantasma2 is now true.</text>
</g>
<!-- j4147158771&#45;&gt;j1713118896 -->
<g id="edge19" class="edge">
<title>j4147158771&#45;&gt;j1713118896</title>
<path fill="none" stroke="black" d="M1016.65,-1749.83C1024.28,-1741.24 1033.53,-1730.85 1041.84,-1721.49"/>
<polygon fill="black" stroke="black" points="1044.42,-1723.86 1048.45,-1714.06 1039.19,-1719.21 1044.42,-1723.86"/>
</g>
<!-- j3354354483 -->
<g id="node17" class="node">
<title>j3354354483</title>
<ellipse fill="none" stroke="orange" cx="1064.5" cy="-1622" rx="59.59" ry="18"/>
<text text-anchor="middle" x="1064.5" y="-1618.3" font-family="Times New Roman,serif" font-size="14.00">+5 Chemistry</text>
</g>
<!-- j2511273429&#45;&gt;j3354354483 -->
<g id="edge20" class="edge">
<title>j2511273429&#45;&gt;j3354354483</title>
<path fill="none" stroke="black" d="M820.2,-1678.59C875.97,-1665.9 954.18,-1648.1 1006.97,-1636.09"/>
<polygon fill="black" stroke="black" points="1007.7,-1639.51 1016.68,-1633.88 1006.15,-1632.69 1007.7,-1639.51"/>
</g>
<!-- j1713118896&#45;&gt;j3354354483 -->
<g id="edge21" class="edge">
<title>j1713118896&#45;&gt;j3354354483</title>
<path fill="none" stroke="black" d="M1064.5,-1676.81C1064.5,-1669.23 1064.5,-1660.1 1064.5,-1651.54"/>
<polygon fill="black" stroke="black" points="1068,-1651.54 1064.5,-1641.54 1061,-1651.54 1068,-1651.54"/>
</g>
<!-- j1768123236 -->
<g id="node18" class="node">
<title>j1768123236</title>
<polygon fill="none" stroke="blue" points="1199,-1567 934,-1567 934,-1514 1199,-1514 1199,-1567"/>
<text text-anchor="middle" x="1066.5" y="-1551.8" font-family="Times New Roman,serif" font-size="14.00">La rispetto &#13;</text>
<text text-anchor="middle" x="1066.5" y="-1536.8" font-family="Times New Roman,serif" font-size="14.00">Anche se a volte non vorrei che mi piacesse &#13;</text>
<text text-anchor="middle" x="1066.5" y="-1521.8" font-family="Times New Roman,serif" font-size="14.00">Ma lei guida coloro a cui tengo</text>
</g>
<!-- j3354354483&#45;&gt;j1768123236 -->
<g id="edge22" class="edge">
<title>j3354354483&#45;&gt;j1768123236</title>
<path fill="none" stroke="black" d="M1064.93,-1603.75C1065.12,-1596.38 1065.34,-1587.48 1065.56,-1578.74"/>
<polygon fill="black" stroke="black" points="1069.06,-1579.08 1065.81,-1569 1062.06,-1578.9 1069.06,-1579.08"/>
</g>
<!-- j2504101586 -->
<g id="node19" class="node">
<title>j2504101586</title>
<ellipse fill="none" stroke="orange" cx="1067.5" cy="-1459" rx="141.88" ry="18"/>
<text text-anchor="middle" x="1067.5" y="-1455.3" font-family="Times New Roman,serif" font-size="14.00">Boolean LettieReligion1 is now true.</text>
</g>
<!-- j1768123236&#45;&gt;j2504101586 -->
<g id="edge23" class="edge">
<title>j1768123236&#45;&gt;j2504101586</title>
<path fill="none" stroke="black" d="M1066.82,-1513.91C1066.92,-1505.86 1067.04,-1496.91 1067.14,-1488.66"/>
<polygon fill="black" stroke="black" points="1070.64,-1488.81 1067.26,-1478.77 1063.64,-1488.73 1070.64,-1488.81"/>
</g>
<!-- j1295964092 -->
<g id="node20" class="node">
<title>j1295964092</title>
<polygon fill="none" stroke="red" points="1287.5,-1404 847.5,-1404 847.5,-1368 1287.5,-1368 1287.5,-1404"/>
<text text-anchor="middle" x="1067.5" y="-1382.3" font-family="Times New Roman,serif" font-size="14.00">Ma tu sei un medico. Non curi le persone? Come puoi &quot;rispettare&quot; la morte?</text>
</g>
<!-- j2504101586&#45;&gt;j1295964092 -->
<g id="edge24" class="edge">
<title>j2504101586&#45;&gt;j1295964092</title>
<path fill="none" stroke="black" d="M1067.5,-1440.81C1067.5,-1433.23 1067.5,-1424.1 1067.5,-1415.54"/>
<polygon fill="black" stroke="black" points="1071,-1415.54 1067.5,-1405.54 1064,-1415.54 1071,-1415.54"/>
</g>
<!-- j152092223 -->
<g id="node21" class="node">
<title>j152092223</title>
<polygon fill="none" stroke="red" points="1641,-1404 1306,-1404 1306,-1368 1641,-1368 1641,-1404"/>
<text text-anchor="middle" x="1473.5" y="-1382.3" font-family="Times New Roman,serif" font-size="14.00">La morte non è una persona. È un fenomeno che accade.</text>
</g>
<!-- j2504101586&#45;&gt;j152092223 -->
<g id="edge25" class="edge">
<title>j2504101586&#45;&gt;j152092223</title>
<path fill="none" stroke="black" d="M1148.68,-1443.8C1210.06,-1433.07 1295.02,-1418.21 1362.65,-1406.39"/>
<polygon fill="black" stroke="black" points="1363.04,-1409.87 1372.28,-1404.7 1361.83,-1402.98 1363.04,-1409.87"/>
</g>
<!-- j1100071964 -->
<g id="node22" class="node">
<title>j1100071964</title>
<polygon fill="none" stroke="blue" points="1207,-1331 928,-1331 928,-1295 1207,-1295 1207,-1331"/>
<text text-anchor="middle" x="1067.5" y="-1309.3" font-family="Times New Roman,serif" font-size="14.00">Stai pensando a tutto questo in modo sbagliato</text>
</g>
<!-- j1295964092&#45;&gt;j1100071964 -->
<g id="edge26" class="edge">
<title>j1295964092&#45;&gt;j1100071964</title>
<path fill="none" stroke="black" d="M1067.5,-1367.81C1067.5,-1360.23 1067.5,-1351.1 1067.5,-1342.54"/>
<polygon fill="black" stroke="black" points="1071,-1342.54 1067.5,-1332.54 1064,-1342.54 1071,-1342.54"/>
</g>
<!-- j3022833425 -->
<g id="node23" class="node">
<title>j3022833425</title>
<polygon fill="none" stroke="blue" points="1500.5,-1277 1446.5,-1277 1446.5,-1241 1500.5,-1241 1500.5,-1277"/>
<text text-anchor="middle" x="1473.5" y="-1255.3" font-family="Times New Roman,serif" font-size="14.00">Va</text>
</g>
<!-- j152092223&#45;&gt;j3022833425 -->
<g id="edge27" class="edge">
<title>j152092223&#45;&gt;j3022833425</title>
<path fill="none" stroke="black" d="M1473.5,-1367.62C1473.5,-1347.19 1473.5,-1312.99 1473.5,-1288.62"/>
<polygon fill="black" stroke="black" points="1477,-1288.75 1473.5,-1278.75 1470,-1288.75 1477,-1288.75"/>
</g>
<!-- j1045615822 -->
<g id="node24" class="node">
<title>j1045615822</title>
<ellipse fill="none" stroke="orange" cx="1067.5" cy="-1205" rx="109.68" ry="18"/>
<text text-anchor="middle" x="1067.5" y="-1201.3" font-family="Times New Roman,serif" font-size="14.00">Check boolean LettieDuviri</text>
</g>
<!-- j1100071964&#45;&gt;j1045615822 -->
<g id="edge28" class="edge">
<title>j1100071964&#45;&gt;j1045615822</title>
<path fill="none" stroke="black" d="M1067.5,-1294.97C1067.5,-1278.76 1067.5,-1254.06 1067.5,-1234.79"/>
<polygon fill="black" stroke="black" points="1071,-1234.85 1067.5,-1224.85 1064,-1234.85 1071,-1234.85"/>
</g>
<!-- j3022833425&#45;&gt;Chat ends. -->
<g id="edge29" class="edge">
<title>j3022833425&#45;&gt;Chat ends.</title>
<path fill="none" stroke="black" d="M1473.79,-1240.75C1474.08,-1221.62 1474.5,-1189.86 1474.5,-1162.5 1474.5,-1162.5 1474.5,-1162.5 1474.5,-90 1474.5,-49.39 1194.95,-29.12 1068.42,-22.02"/>
<polygon fill="black" stroke="black" points="1068.72,-18.53 1058.55,-21.48 1068.34,-25.52 1068.72,-18.53"/>
</g>
<!-- j3029401092 -->
<g id="node25" class="node">
<title>j3029401092</title>
<polygon fill="none" stroke="blue" points="969.5,-1136 493.5,-1136 493.5,-1083 969.5,-1083 969.5,-1136"/>
<text text-anchor="middle" x="731.5" y="-1120.8" font-family="Times New Roman,serif" font-size="14.00">Tutte quelle volte che sei morto &#13;</text>
<text text-anchor="middle" x="731.5" y="-1105.8" font-family="Times New Roman,serif" font-size="14.00">L&#39;hai incolpata per aver posto fine al tuo dolore? &#13;</text>
<text text-anchor="middle" x="731.5" y="-1090.8" font-family="Times New Roman,serif" font-size="14.00">È stata colpa sua se hai sofferto o è stata colpa di quelli che ti hanno fatto del male</text>
</g>
<!-- j1045615822&#45;&gt;j3029401092 -->
<g id="edge30" class="edge">
<title>j1045615822&#45;&gt;j3029401092</title>
<path fill="none" stroke="green" d="M1013.52,-1188.98C965.67,-1175.66 894.45,-1155.84 835.56,-1139.46"/>
<polygon fill="green" stroke="green" points="836.74,-1136.15 826.17,-1136.84 834.86,-1142.9 836.74,-1136.15"/>
<text text-anchor="middle" x="949.5" y="-1157.8" font-family="Times New Roman,serif" font-size="14.00">true</text>
</g>
<!-- j2664189262 -->
<g id="node26" class="node">
<title>j2664189262</title>
<polygon fill="none" stroke="blue" points="1403.5,-1136 987.5,-1136 987.5,-1083 1403.5,-1083 1403.5,-1136"/>
<text text-anchor="middle" x="1195.5" y="-1120.8" font-family="Times New Roman,serif" font-size="14.00">Il mio lavoro è assicurarmi che prenda le persone quando è il momento &#13;</text>
<text text-anchor="middle" x="1195.5" y="-1105.8" font-family="Times New Roman,serif" font-size="14.00">Finché non me le strappa dalle mani &#13;</text>
<text text-anchor="middle" x="1195.5" y="-1090.8" font-family="Times New Roman,serif" font-size="14.00">Non un dannato secondo prima</text>
</g>
<!-- j1045615822&#45;&gt;j2664189262 -->
<g id="edge31" class="edge">
<title>j1045615822&#45;&gt;j2664189262</title>
<path fill="none" stroke="brown" d="M1090.68,-1187.07C1107.42,-1174.84 1130.56,-1157.93 1150.84,-1143.12"/>
<polygon fill="brown" stroke="brown" points="1152.69,-1146.1 1158.71,-1137.38 1148.57,-1140.45 1152.69,-1146.1"/>
<text text-anchor="middle" x="1147.5" y="-1157.8" font-family="Times New Roman,serif" font-size="14.00">false</text>
</g>
<!-- j624333606 -->
<g id="node27" class="node">
<title>j624333606</title>
<polygon fill="none" stroke="blue" points="971.5,-1046 717.5,-1046 717.5,-978 971.5,-978 971.5,-1046"/>
<text text-anchor="middle" x="844.5" y="-1030.8" font-family="Times New Roman,serif" font-size="14.00">Ma quando arriva &#13;</text>
<text text-anchor="middle" x="844.5" y="-1015.8" font-family="Times New Roman,serif" font-size="14.00">Mi assicuro che sappia che è la benvenuta &#13;</text>
<text text-anchor="middle" x="844.5" y="-1000.8" font-family="Times New Roman,serif" font-size="14.00">Mette fine al dolore, babas &#13;</text>
<text text-anchor="middle" x="844.5" y="-985.8" font-family="Times New Roman,serif" font-size="14.00">Non deve essere temuta, ma rispettata</text>
</g>
<!-- j3029401092&#45;&gt;j624333606 -->
<g id="edge32" class="edge">
<title>j3029401092&#45;&gt;j624333606</title>
<path fill="none" stroke="black" d="M762.08,-1082.66C772.6,-1073.76 784.65,-1063.58 796.23,-1053.79"/>
<polygon fill="black" stroke="black" points="798.43,-1056.52 803.81,-1047.39 793.91,-1051.17 798.43,-1056.52"/>
</g>
<!-- j2664189262&#45;&gt;j624333606 -->
<g id="edge33" class="edge">
<title>j2664189262&#45;&gt;j624333606</title>
<path fill="none" stroke="black" d="M1100.05,-1082.53C1062.58,-1072.34 1018.92,-1060.45 978.39,-1049.43"/>
<polygon fill="black" stroke="black" points="979.36,-1046.07 968.79,-1046.82 977.52,-1052.82 979.36,-1046.07"/>
</g>
<!-- j2103098619 -->
<g id="node28" class="node">
<title>j2103098619</title>
<polygon fill="none" stroke="red" points="1168.5,-941 520.5,-941 520.5,-905 1168.5,-905 1168.5,-941"/>
<text text-anchor="middle" x="844.5" y="-919.3" font-family="Times New Roman,serif" font-size="14.00">Quando ero a Duviri e sapevo di essere in punto di morte, a volte era un sollievo sapere che sarebbe finita presto.</text>
</g>
<!-- j624333606&#45;&gt;j2103098619 -->
<g id="edge34" class="edge">
<title>j624333606&#45;&gt;j2103098619</title>
<path fill="none" stroke="black" d="M844.5,-977.61C844.5,-969.34 844.5,-960.55 844.5,-952.53"/>
<polygon fill="black" stroke="black" points="848,-952.64 844.5,-942.64 841,-952.64 848,-952.64"/>
</g>
<!-- j3246340592 -->
<g id="node29" class="node">
<title>j3246340592</title>
<polygon fill="none" stroke="red" points="502,-941 113,-941 113,-905 502,-905 502,-941"/>
<text text-anchor="middle" x="307.5" y="-919.3" font-family="Times New Roman,serif" font-size="14.00">Da un lato, credo di capire. Anche se non mi piace l&#39;idea di morire.</text>
</g>
<!-- j624333606&#45;&gt;j3246340592 -->
<g id="edge35" class="edge">
<title>j624333606&#45;&gt;j3246340592</title>
<path fill="none" stroke="black" d="M717.24,-990.38C629.14,-976.11 512.68,-957.24 426.45,-943.27"/>
<polygon fill="black" stroke="black" points="427.21,-939.85 416.78,-941.7 426.09,-946.76 427.21,-939.85"/>
</g>
<!-- j4038324094 -->
<g id="node30" class="node">
<title>j4038324094</title>
<polygon fill="none" stroke="red" points="1446.5,-941 1186.5,-941 1186.5,-905 1446.5,-905 1446.5,-941"/>
<text text-anchor="middle" x="1316.5" y="-919.3" font-family="Times New Roman,serif" font-size="14.00">Meglio... porre fine a questa conversazione.</text>
</g>
<!-- j624333606&#45;&gt;j4038324094 -->
<g id="edge36" class="edge">
<title>j624333606&#45;&gt;j4038324094</title>
<path fill="none" stroke="black" d="M971.92,-987.51C1046.69,-973.73 1140.05,-956.52 1210.73,-943.5"/>
<polygon fill="black" stroke="black" points="1211.18,-946.97 1220.38,-941.72 1209.91,-940.09 1211.18,-946.97"/>
</g>
<!-- j600882112 -->
<g id="node31" class="node">
<title>j600882112</title>
<polygon fill="none" stroke="red" points="1120.5,-868 568.5,-868 568.5,-832 1120.5,-832 1120.5,-868"/>
<text text-anchor="middle" x="844.5" y="-846.3" font-family="Times New Roman,serif" font-size="14.00">Non importava quanto fosse grave la situazione, l&#39;oscurità sarebbe arrivata e tutto sarebbe finito.</text>
</g>
<!-- j2103098619&#45;&gt;j600882112 -->
<g id="edge37" class="edge">
<title>j2103098619&#45;&gt;j600882112</title>
<path fill="none" stroke="black" d="M844.5,-904.81C844.5,-897.23 844.5,-888.1 844.5,-879.54"/>
<polygon fill="black" stroke="black" points="848,-879.54 844.5,-869.54 841,-879.54 848,-879.54"/>
</g>
<!-- j95584643 -->
<g id="node32" class="node">
<title>j95584643</title>
<polygon fill="none" stroke="blue" points="496,-868 441,-868 441,-832 496,-832 496,-868"/>
<text text-anchor="middle" x="468.5" y="-846.3" font-family="Times New Roman,serif" font-size="14.00">Hm, sí</text>
</g>
<!-- j3246340592&#45;&gt;j95584643 -->
<g id="edge38" class="edge">
<title>j3246340592&#45;&gt;j95584643</title>
<path fill="none" stroke="black" d="M346.89,-904.63C372.3,-893.42 405.19,-878.92 430.35,-867.82"/>
<polygon fill="black" stroke="black" points="431.5,-871.14 439.24,-863.9 428.68,-864.74 431.5,-871.14"/>
</g>
<!-- j1734532838 -->
<g id="node33" class="node">
<title>j1734532838</title>
<polygon fill="none" stroke="blue" points="1369.5,-814 1259.5,-814 1259.5,-778 1369.5,-778 1369.5,-814"/>
<text text-anchor="middle" x="1314.5" y="-792.3" font-family="Times New Roman,serif" font-size="14.00">Ay, equis, pansy</text>
</g>
<!-- j4038324094&#45;&gt;j1734532838 -->
<g id="edge39" class="edge">
<title>j4038324094&#45;&gt;j1734532838</title>
<path fill="none" stroke="black" d="M1316.22,-904.62C1315.9,-884.19 1315.35,-849.99 1314.96,-825.62"/>
<polygon fill="black" stroke="black" points="1318.46,-825.69 1314.8,-815.75 1311.46,-825.8 1318.46,-825.69"/>
</g>
<!-- j1108941015 -->
<g id="node34" class="node">
<title>j1108941015</title>
<ellipse fill="none" stroke="orange" cx="844.5" cy="-742" rx="64.19" ry="18"/>
<text text-anchor="middle" x="844.5" y="-738.3" font-family="Times New Roman,serif" font-size="14.00">+10 Chemistry</text>
</g>
<!-- j600882112&#45;&gt;j1108941015 -->
<g id="edge40" class="edge">
<title>j600882112&#45;&gt;j1108941015</title>
<path fill="none" stroke="black" d="M844.5,-831.97C844.5,-815.76 844.5,-791.06 844.5,-771.79"/>
<polygon fill="black" stroke="black" points="848,-771.85 844.5,-761.85 841,-771.85 848,-771.85"/>
</g>
<!-- j4071976533 -->
<g id="node35" class="node">
<title>j4071976533</title>
<ellipse fill="none" stroke="orange" cx="565.5" cy="-688" rx="59.59" ry="18"/>
<text text-anchor="middle" x="565.5" y="-684.3" font-family="Times New Roman,serif" font-size="14.00">+5 Chemistry</text>
</g>
<!-- j95584643&#45;&gt;j4071976533 -->
<g id="edge41" class="edge">
<title>j95584643&#45;&gt;j4071976533</title>
<path fill="none" stroke="black" d="M479.07,-831.57C496.06,-803.53 529.59,-748.23 549.52,-715.35"/>
<polygon fill="black" stroke="black" points="552.26,-717.58 554.46,-707.22 546.28,-713.95 552.26,-717.58"/>
</g>
<!-- j1734532838&#45;&gt;Chat ends. -->
<g id="edge42" class="edge">
<title>j1734532838&#45;&gt;Chat ends.</title>
<path fill="none" stroke="black" d="M1310.56,-777.85C1306.11,-756.97 1299.5,-720.6 1299.5,-689 1299.5,-689 1299.5,-689 1299.5,-90 1299.5,-42.93 1154.41,-26.94 1068.78,-21.6"/>
<polygon fill="black" stroke="black" points="1069.06,-18.11 1058.88,-21.02 1068.65,-25.1 1069.06,-18.11"/>
</g>
<!-- j3917453201 -->
<g id="node36" class="node">
<title>j3917453201</title>
<polygon fill="none" stroke="blue" points="882.5,-652 806.5,-652 806.5,-614 882.5,-614 882.5,-652"/>
<text text-anchor="middle" x="844.5" y="-636.8" font-family="Times New Roman,serif" font-size="14.00">¿Sí, vedi? &#13;</text>
<text text-anchor="middle" x="844.5" y="-621.8" font-family="Times New Roman,serif" font-size="14.00">Hai capito</text>
</g>
<!-- j1108941015&#45;&gt;j3917453201 -->
<g id="edge43" class="edge">
<title>j1108941015&#45;&gt;j3917453201</title>
<path fill="none" stroke="black" d="M844.5,-723.81C844.5,-707.57 844.5,-682.87 844.5,-663.48"/>
<polygon fill="black" stroke="black" points="848,-663.74 844.5,-653.74 841,-663.74 848,-663.74"/>
</g>
<!-- j3295861999 -->
<g id="node37" class="node">
<title>j3295861999</title>
<polygon fill="none" stroke="blue" points="907.5,-504 553.5,-504 553.5,-436 907.5,-436 907.5,-504"/>
<text text-anchor="middle" x="730.5" y="-488.8" font-family="Times New Roman,serif" font-size="14.00">Ecco perché mi prendo cura degli altri &#13;</text>
<text text-anchor="middle" x="730.5" y="-473.8" font-family="Times New Roman,serif" font-size="14.00">Per assicurarmi che La Flaca sia sicura di chi sta prendendo &#13;</text>
<text text-anchor="middle" x="730.5" y="-458.8" font-family="Times New Roman,serif" font-size="14.00">E che ottenga SOLO chi le serve &#13;</text>
<text text-anchor="middle" x="730.5" y="-443.8" font-family="Times New Roman,serif" font-size="14.00">E nessun altro</text>
</g>
<!-- j4071976533&#45;&gt;j3295861999 -->
<g id="edge44" class="edge">
<title>j4071976533&#45;&gt;j3295861999</title>
<path fill="none" stroke="black" d="M573.97,-669.8C588.37,-641.42 619.48,-583.69 654.5,-541 662.68,-531.02 672.27,-521.13 681.82,-512.05"/>
<polygon fill="black" stroke="black" points="684.11,-514.71 689.06,-505.34 679.35,-509.57 684.11,-514.71"/>
</g>
<!-- j1282896549 -->
<g id="node38" class="node">
<title>j1282896549</title>
<polygon fill="none" stroke="red" points="1225.5,-577 1011.5,-577 1011.5,-541 1225.5,-541 1225.5,-577"/>
<text text-anchor="middle" x="1118.5" y="-555.3" font-family="Times New Roman,serif" font-size="14.00">Ma sapevo anche che sarei tornato.</text>
</g>
<!-- j3917453201&#45;&gt;j1282896549 -->
<g id="edge45" class="edge">
<title>j3917453201&#45;&gt;j1282896549</title>
<path fill="none" stroke="black" d="M882.89,-621.91C923.71,-611.19 989.38,-593.93 1041.03,-580.36"/>
<polygon fill="black" stroke="black" points="1041.91,-583.74 1050.7,-577.82 1040.14,-576.97 1041.91,-583.74"/>
</g>
<!-- j3102868333 -->
<g id="node39" class="node">
<title>j3102868333</title>
<polygon fill="none" stroke="red" points="973.5,-577 663.5,-577 663.5,-541 973.5,-541 973.5,-577"/>
<text text-anchor="middle" x="818.5" y="-555.3" font-family="Times New Roman,serif" font-size="14.00">Ma non credo significhi che tutti debbano morire. lol</text>
</g>
<!-- j3917453201&#45;&gt;j3102868333 -->
<g id="edge46" class="edge">
<title>j3917453201&#45;&gt;j3102868333</title>
<path fill="none" stroke="black" d="M837.94,-613.83C835.14,-606.07 831.8,-596.83 828.69,-588.21"/>
<polygon fill="black" stroke="black" points="831.99,-587.06 825.3,-578.84 825.41,-589.44 831.99,-587.06"/>
</g>
<!-- j530924447 -->
<g id="node40" class="node">
<title>j530924447</title>
<polygon fill="none" stroke="blue" points="977,-383 484,-383 484,-347 977,-347 977,-383"/>
<text text-anchor="middle" x="730.5" y="-361.3" font-family="Times New Roman,serif" font-size="14.00">Tutti noi abbiamo visto i nostri cari morire troppo presto a causa delle azioni di altri...</text>
</g>
<!-- j3295861999&#45;&gt;j530924447 -->
<g id="edge47" class="edge">
<title>j3295861999&#45;&gt;j530924447</title>
<path fill="none" stroke="black" d="M730.5,-435.56C730.5,-422.38 730.5,-407.4 730.5,-394.72"/>
<polygon fill="black" stroke="black" points="734,-394.92 730.5,-384.92 727,-394.92 734,-394.92"/>
</g>
<!-- j400935313 -->
<g id="node41" class="node">
<title>j400935313</title>
<ellipse fill="none" stroke="orange" cx="1129.5" cy="-470" rx="59.59" ry="18"/>
<text text-anchor="middle" x="1129.5" y="-466.3" font-family="Times New Roman,serif" font-size="14.00">+5 Chemistry</text>
</g>
<!-- j1282896549&#45;&gt;j400935313 -->
<g id="edge48" class="edge">
<title>j1282896549&#45;&gt;j400935313</title>
<path fill="none" stroke="black" d="M1120.67,-540.81C1122.16,-529.09 1124.15,-513.29 1125.87,-499.68"/>
<polygon fill="black" stroke="black" points="1129.32,-500.31 1127.1,-489.95 1122.38,-499.43 1129.32,-500.31"/>
</g>
<!-- j3102868333&#45;&gt;j3295861999 -->
<g id="edge49" class="edge">
<title>j3102868333&#45;&gt;j3295861999</title>
<path fill="none" stroke="black" d="M801.11,-540.81C792.81,-532.61 782.49,-522.4 772.32,-512.35"/>
<polygon fill="black" stroke="black" points="774.89,-509.96 765.32,-505.42 769.97,-514.94 774.89,-509.96"/>
</g>
<!-- j255068512 -->
<g id="node42" class="node">
<title>j255068512</title>
<polygon fill="none" stroke="red" points="761.5,-293 707.5,-293 707.5,-257 761.5,-257 761.5,-293"/>
<text text-anchor="middle" x="734.5" y="-271.3" font-family="Times New Roman,serif" font-size="14.00">Yeah.</text>
</g>
<!-- j530924447&#45;&gt;j255068512 -->
<g id="edge50" class="edge">
<title>j530924447&#45;&gt;j255068512</title>
<path fill="none" stroke="black" d="M731.29,-346.61C731.83,-334.68 732.57,-318.57 733.19,-304.74"/>
<polygon fill="black" stroke="black" points="736.68,-305.01 733.64,-294.86 729.69,-304.69 736.68,-305.01"/>
</g>
<!-- j2035924187 -->
<g id="node43" class="node">
<title>j2035924187</title>
<polygon fill="none" stroke="red" points="942.5,-293 786.5,-293 786.5,-257 942.5,-257 942.5,-293"/>
<text text-anchor="middle" x="864.5" y="-271.3" font-family="Times New Roman,serif" font-size="14.00">Posso brindare a questo.</text>
</g>
<!-- j530924447&#45;&gt;j2035924187 -->
<g id="edge51" class="edge">
<title>j530924447&#45;&gt;j2035924187</title>
<path fill="none" stroke="black" d="M756.97,-346.61C777.44,-333.18 805.98,-314.43 828.52,-299.63"/>
<polygon fill="black" stroke="black" points="830.38,-302.6 836.82,-294.18 826.54,-296.74 830.38,-302.6"/>
</g>
<!-- j1117077245 -->
<g id="node44" class="node">
<title>j1117077245</title>
<polygon fill="none" stroke="blue" points="1266,-399 995,-399 995,-331 1266,-331 1266,-399"/>
<text text-anchor="middle" x="1130.5" y="-383.8" font-family="Times New Roman,serif" font-size="14.00">E per coloro che hanno fede come me &#13;</text>
<text text-anchor="middle" x="1130.5" y="-368.8" font-family="Times New Roman,serif" font-size="14.00">Anche noi torneremo &#13;</text>
<text text-anchor="middle" x="1130.5" y="-353.8" font-family="Times New Roman,serif" font-size="14.00">Forse non così letteralmente come te jaja &#13;</text>
<text text-anchor="middle" x="1130.5" y="-338.8" font-family="Times New Roman,serif" font-size="14.00">Sebbene... ora siamo anche noi dei fantasmas</text>
</g>
<!-- j400935313&#45;&gt;j1117077245 -->
<g id="edge52" class="edge">
<title>j400935313&#45;&gt;j1117077245</title>
<path fill="none" stroke="black" d="M1129.67,-451.53C1129.78,-440.3 1129.93,-425.16 1130.07,-410.74"/>
<polygon fill="black" stroke="black" points="1133.56,-410.96 1130.16,-400.93 1126.56,-410.89 1133.56,-410.96"/>
</g>
<!-- j872533327 -->
<g id="node45" class="node">
<title>j872533327</title>
<polygon fill="none" stroke="blue" points="924,-165 769,-165 769,-127 924,-127 924,-165"/>
<text text-anchor="middle" x="846.5" y="-149.8" font-family="Times New Roman,serif" font-size="14.00">È stato divertente &#13;</text>
<text text-anchor="middle" x="846.5" y="-134.8" font-family="Times New Roman,serif" font-size="14.00">Io devo tornare al lavoro</text>
</g>
<!-- j255068512&#45;&gt;j872533327 -->
<g id="edge53" class="edge">
<title>j255068512&#45;&gt;j872533327</title>
<path fill="none" stroke="black" d="M749.84,-256.61C768.62,-235.31 800.64,-199 822.65,-174.05"/>
<polygon fill="black" stroke="black" points="825.27,-176.37 829.26,-166.55 820.02,-171.74 825.27,-176.37"/>
</g>
<!-- j243423097 -->
<g id="node46" class="node">
<title>j243423097</title>
<ellipse fill="none" stroke="orange" cx="953.5" cy="-201" rx="59.59" ry="18"/>
<text text-anchor="middle" x="953.5" y="-197.3" font-family="Times New Roman,serif" font-size="14.00">+5 Chemistry</text>
</g>
<!-- j2035924187&#45;&gt;j243423097 -->
<g id="edge54" class="edge">
<title>j2035924187&#45;&gt;j243423097</title>
<path fill="none" stroke="black" d="M886.04,-256.57C897.64,-247.19 912.09,-235.5 924.64,-225.35"/>
<polygon fill="black" stroke="black" points="926.62,-228.24 932.2,-219.23 922.22,-222.8 926.62,-228.24"/>
</g>
<!-- j2195109146 -->
<g id="node47" class="node">
<title>j2195109146</title>
<polygon fill="none" stroke="blue" points="1268,-294 975,-294 975,-256 1268,-256 1268,-294"/>
<text text-anchor="middle" x="1121.5" y="-278.8" font-family="Times New Roman,serif" font-size="14.00">Intrappolato nello stesso ciclo infinito in cui eri... &#13;</text>
<text text-anchor="middle" x="1121.5" y="-263.8" font-family="Times New Roman,serif" font-size="14.00">Lontano dall&#39;abbraccio di Mictlán</text>
</g>
<!-- j1117077245&#45;&gt;j2195109146 -->
<g id="edge55" class="edge">
<title>j1117077245&#45;&gt;j2195109146</title>
<path fill="none" stroke="black" d="M1127.1,-330.73C1126.25,-322.42 1125.34,-313.58 1124.51,-305.47"/>
<polygon fill="black" stroke="black" points="1128.02,-305.37 1123.52,-295.77 1121.06,-306.08 1128.02,-305.37"/>
</g>
<!-- j872533327&#45;&gt;Chat ends. -->
<g id="edge56" class="edge">
<title>j872533327&#45;&gt;Chat ends.</title>
<path fill="none" stroke="black" d="M867.7,-126.51C884.89,-111.7 909.9,-90.56 932.5,-73 946.47,-62.15 962.31,-50.63 975.83,-41.03"/>
<polygon fill="black" stroke="black" points="977.81,-43.91 983.96,-35.29 973.78,-38.19 977.81,-43.91"/>
</g>
<!-- j1305336385 -->
<g id="node48" class="node">
<title>j1305336385</title>
<polygon fill="none" stroke="blue" points="995.5,-109 941.5,-109 941.5,-73 995.5,-73 995.5,-109"/>
<text text-anchor="middle" x="968.5" y="-87.3" font-family="Times New Roman,serif" font-size="14.00">Sì</text>
</g>
<!-- j243423097&#45;&gt;j1305336385 -->
<g id="edge57" class="edge">
<title>j243423097&#45;&gt;j1305336385</title>
<path fill="none" stroke="black" d="M955.91,-182.65C958.23,-165.96 961.77,-140.42 964.51,-120.7"/>
<polygon fill="black" stroke="black" points="967.98,-121.19 965.89,-110.81 961.05,-120.23 967.98,-121.19"/>
</g>
<!-- j2168650116 -->
<g id="node49" class="node">
<title>j2168650116</title>
<polygon fill="none" stroke="blue" points="1125,-164 984,-164 984,-128 1125,-128 1125,-164"/>
<text text-anchor="middle" x="1054.5" y="-142.3" font-family="Times New Roman,serif" font-size="14.00">Devo tornare al lavoro</text>
</g>
<!-- j2195109146&#45;&gt;j2168650116 -->
<g id="edge58" class="edge">
<title>j2195109146&#45;&gt;j2168650116</title>
<path fill="none" stroke="black" d="M1111.76,-255.53C1100.5,-234.2 1081.88,-198.89 1068.94,-174.37"/>
<polygon fill="black" stroke="black" points="1072.08,-172.82 1064.32,-165.6 1065.89,-176.08 1072.08,-172.82"/>
</g>
<!-- j1305336385&#45;&gt;Chat ends. -->
<g id="edge59" class="edge">
<title>j1305336385&#45;&gt;Chat ends.</title>
<path fill="none" stroke="black" d="M977.94,-72.81C982.35,-64.79 987.7,-55.05 992.63,-46.07"/>
<polygon fill="black" stroke="black" points="995.67,-47.81 997.42,-37.36 989.54,-44.44 995.67,-47.81"/>
</g>
<!-- j2168650116&#45;&gt;Chat ends. -->
<g id="edge60" class="edge">
<title>j2168650116&#45;&gt;Chat ends.</title>
<path fill="none" stroke="black" d="M1048.06,-127.74C1040.26,-106.82 1027,-71.29 1017.78,-46.56"/>
<polygon fill="black" stroke="black" points="1021.16,-45.61 1014.39,-37.47 1014.6,-48.06 1021.16,-45.61"/>
</g>
</g>
</svg>
