<?xml version="1.0" encoding="UTF-8" standalone="no"?>
<!DOCTYPE svg PUBLIC "-//W3C//DTD SVG 1.1//EN"
 "http://www.w3.org/Graphics/SVG/1.1/DTD/svg11.dtd">
<!-- Generated by graphviz version 7.1.0 (20230121.1956)
 -->
<!-- Pages: 1 -->
<svg width="1231pt" height="1871pt"
 viewBox="0.00 0.00 1230.50 1871.00" xmlns="http://www.w3.org/2000/svg" xmlns:xlink="http://www.w3.org/1999/xlink">
<g id="graph0" class="graph" transform="scale(1 1) rotate(0) translate(4 1867)">
<polygon fill="white" stroke="none" points="-4,4 -4,-1867 1226.5,-1867 1226.5,4 -4,4"/>
<!-- LettieRank1Convo1 begins. -->
<g id="node1" class="node">
<title>LettieRank1Convo1 begins.</title>
<ellipse fill="none" stroke="orange" cx="262.5" cy="-1845" rx="111.58" ry="18"/>
<text text-anchor="middle" x="262.5" y="-1841.3" font-family="Times New Roman,serif" font-size="14.00">LettieRank1Convo1 begins.</text>
</g>
<!-- j2319802175 -->
<g id="node2" class="node">
<title>j2319802175</title>
<polygon fill="none" stroke="red" points="386,-1736 113,-1736 113,-1700 386,-1700 386,-1736"/>
<text text-anchor="middle" x="249.5" y="-1714.3" font-family="Times New Roman,serif" font-size="14.00">Ciao Lettie, come hai iniziato a fare il medico?</text>
</g>
<!-- LettieRank1Convo1 begins.&#45;&gt;j2319802175 -->
<g id="edge1" class="edge">
<title>LettieRank1Convo1 begins.&#45;&gt;j2319802175</title>
<path fill="none" stroke="black" d="M260.69,-1826.62C258.57,-1806.19 255.01,-1771.99 252.48,-1747.62"/>
<polygon fill="black" stroke="black" points="255.96,-1747.32 251.45,-1737.74 249,-1748.05 255.96,-1747.32"/>
</g>
<!-- j3580999648 -->
<g id="node3" class="node">
<title>j3580999648</title>
<polygon fill="none" stroke="red" points="533.5,-1790 279.5,-1790 279.5,-1754 533.5,-1754 533.5,-1790"/>
<text text-anchor="middle" x="406.5" y="-1768.3" font-family="Times New Roman,serif" font-size="14.00">Ciao Lettie, cosa ti ha portato a Höllvania?</text>
</g>
<!-- LettieRank1Convo1 begins.&#45;&gt;j3580999648 -->
<g id="edge2" class="edge">
<title>LettieRank1Convo1 begins.&#45;&gt;j3580999648</title>
<path fill="none" stroke="black" d="M295.9,-1827.53C315.16,-1818.04 339.65,-1805.96 360.69,-1795.58"/>
<polygon fill="black" stroke="black" points="362.24,-1798.72 369.66,-1791.16 359.15,-1792.45 362.24,-1798.72"/>
</g>
<!-- j2792641042 -->
<g id="node4" class="node">
<title>j2792641042</title>
<polygon fill="none" stroke="blue" points="321.5,-1609 159.5,-1609 159.5,-1556 321.5,-1556 321.5,-1609"/>
<text text-anchor="middle" x="240.5" y="-1593.8" font-family="Times New Roman,serif" font-size="14.00">È il mio lavoro &#13;</text>
<text text-anchor="middle" x="240.5" y="-1578.8" font-family="Times New Roman,serif" font-size="14.00">Perché ti sei messo a fare &#13;</text>
<text text-anchor="middle" x="240.5" y="-1563.8" font-family="Times New Roman,serif" font-size="14.00">Qualunque cosa tu faccia</text>
</g>
<!-- j2319802175&#45;&gt;j2792641042 -->
<g id="edge3" class="edge">
<title>j2319802175&#45;&gt;j2792641042</title>
<path fill="none" stroke="black" d="M248.32,-1699.55C246.98,-1679.57 244.73,-1646.27 242.99,-1620.46"/>
<polygon fill="black" stroke="black" points="246.5,-1620.45 242.33,-1610.71 239.51,-1620.92 246.5,-1620.45"/>
</g>
<!-- j3163211709 -->
<g id="node5" class="node">
<title>j3163211709</title>
<polygon fill="none" stroke="blue" points="433.5,-1682 379.5,-1682 379.5,-1646 433.5,-1646 433.5,-1682"/>
<text text-anchor="middle" x="406.5" y="-1660.3" font-family="Times New Roman,serif" font-size="14.00">Eh?</text>
</g>
<!-- j3580999648&#45;&gt;j3163211709 -->
<g id="edge4" class="edge">
<title>j3580999648&#45;&gt;j3163211709</title>
<path fill="none" stroke="black" d="M406.5,-1753.97C406.5,-1737.76 406.5,-1713.06 406.5,-1693.79"/>
<polygon fill="black" stroke="black" points="410,-1693.85 406.5,-1683.85 403,-1693.85 410,-1693.85"/>
</g>
<!-- j3119296038 -->
<g id="node6" class="node">
<title>j3119296038</title>
<polygon fill="none" stroke="red" points="601,-1519 450,-1519 450,-1483 601,-1483 601,-1519"/>
<text text-anchor="middle" x="525.5" y="-1497.3" font-family="Times New Roman,serif" font-size="14.00">Non avevo molta scelta.</text>
</g>
<!-- j2792641042&#45;&gt;j3119296038 -->
<g id="edge5" class="edge">
<title>j2792641042&#45;&gt;j3119296038</title>
<path fill="none" stroke="black" d="M321.93,-1558.41C324.82,-1557.59 327.69,-1556.79 330.5,-1556 370.35,-1544.84 414.82,-1532.51 451.22,-1522.46"/>
<polygon fill="black" stroke="black" points="452.08,-1525.85 460.78,-1519.82 450.21,-1519.11 452.08,-1525.85"/>
</g>
<!-- j3307444820 -->
<g id="node7" class="node">
<title>j3307444820</title>
<polygon fill="none" stroke="red" points="431.5,-1519 305.5,-1519 305.5,-1483 431.5,-1483 431.5,-1519"/>
<text text-anchor="middle" x="368.5" y="-1497.3" font-family="Times New Roman,serif" font-size="14.00">Ti sto disturbando?</text>
</g>
<!-- j2792641042&#45;&gt;j3307444820 -->
<g id="edge6" class="edge">
<title>j2792641042&#45;&gt;j3307444820</title>
<path fill="none" stroke="black" d="M282.06,-1555.69C297.75,-1545.94 315.5,-1534.92 330.81,-1525.41"/>
<polygon fill="black" stroke="black" points="332.54,-1528.45 339.19,-1520.2 328.85,-1522.51 332.54,-1528.45"/>
</g>
<!-- j1397232624 -->
<g id="node8" class="node">
<title>j1397232624</title>
<polygon fill="none" stroke="red" points="287,-1519 0,-1519 0,-1483 287,-1483 287,-1519"/>
<text text-anchor="middle" x="143.5" y="-1497.3" font-family="Times New Roman,serif" font-size="14.00">Ti sto chiaramente disturbando, ti lascio in pace.</text>
</g>
<!-- j2792641042&#45;&gt;j1397232624 -->
<g id="edge7" class="edge">
<title>j2792641042&#45;&gt;j1397232624</title>
<path fill="none" stroke="black" d="M209.01,-1555.69C197.57,-1546.32 184.69,-1535.76 173.4,-1526.5"/>
<polygon fill="black" stroke="black" points="175.86,-1524 165.91,-1520.36 171.42,-1529.41 175.86,-1524"/>
</g>
<!-- j3554855972 -->
<g id="node9" class="node">
<title>j3554855972</title>
<polygon fill="none" stroke="blue" points="475.5,-1600.5 339.5,-1600.5 339.5,-1564.5 475.5,-1564.5 475.5,-1600.5"/>
<text text-anchor="middle" x="407.5" y="-1578.8" font-family="Times New Roman,serif" font-size="14.00">Perché sei venuto qui</text>
</g>
<!-- j3163211709&#45;&gt;j3554855972 -->
<g id="edge8" class="edge">
<title>j3163211709&#45;&gt;j3554855972</title>
<path fill="none" stroke="black" d="M406.72,-1645.75C406.84,-1636.02 407,-1623.62 407.14,-1612.45"/>
<polygon fill="black" stroke="black" points="410.63,-1612.55 407.26,-1602.5 403.64,-1612.46 410.63,-1612.55"/>
</g>
<!-- j15034754 -->
<g id="node10" class="node">
<title>j15034754</title>
<polygon fill="none" stroke="blue" points="760,-1431 467,-1431 467,-1393 760,-1393 760,-1431"/>
<text text-anchor="middle" x="613.5" y="-1415.8" font-family="Times New Roman,serif" font-size="14.00">Allora questa è una cosa che abbiamo in comune &#13;</text>
<text text-anchor="middle" x="613.5" y="-1400.8" font-family="Times New Roman,serif" font-size="14.00">E non dovresti fare domande stupide, babas</text>
</g>
<!-- j3119296038&#45;&gt;j15034754 -->
<g id="edge9" class="edge">
<title>j3119296038&#45;&gt;j15034754</title>
<path fill="none" stroke="black" d="M542.89,-1482.81C555.45,-1470.39 572.64,-1453.39 586.92,-1439.28"/>
<polygon fill="black" stroke="black" points="589.21,-1441.94 593.86,-1432.42 584.29,-1436.96 589.21,-1441.94"/>
</g>
<!-- j3702960008 -->
<g id="node11" class="node">
<title>j3702960008</title>
<polygon fill="none" stroke="blue" points="449,-1446 288,-1446 288,-1378 449,-1378 449,-1446"/>
<text text-anchor="middle" x="368.5" y="-1430.8" font-family="Times New Roman,serif" font-size="14.00">Perché &#13;</text>
<text text-anchor="middle" x="368.5" y="-1415.8" font-family="Times New Roman,serif" font-size="14.00">Cosa te lo fa capire &#13;</text>
<text text-anchor="middle" x="368.5" y="-1400.8" font-family="Times New Roman,serif" font-size="14.00">Non sono mica occupata &#13;</text>
<text text-anchor="middle" x="368.5" y="-1385.8" font-family="Times New Roman,serif" font-size="14.00">A ricucire le persone</text>
</g>
<!-- j3307444820&#45;&gt;j3702960008 -->
<g id="edge10" class="edge">
<title>j3307444820&#45;&gt;j3702960008</title>
<path fill="none" stroke="black" d="M368.5,-1482.81C368.5,-1475.5 368.5,-1466.6 368.5,-1457.63"/>
<polygon fill="black" stroke="black" points="372,-1457.87 368.5,-1447.87 365,-1457.87 372,-1457.87"/>
</g>
<!-- j2547240352 -->
<g id="node12" class="node">
<title>j2547240352</title>
<polygon fill="none" stroke="blue" points="158.5,-1360 104.5,-1360 104.5,-1324 158.5,-1324 158.5,-1360"/>
<text text-anchor="middle" x="131.5" y="-1338.3" font-family="Times New Roman,serif" font-size="14.00">Va</text>
</g>
<!-- j1397232624&#45;&gt;j2547240352 -->
<g id="edge11" class="edge">
<title>j1397232624&#45;&gt;j2547240352</title>
<path fill="none" stroke="black" d="M142.17,-1482.6C140.12,-1455.84 136.18,-1404.29 133.71,-1371.87"/>
<polygon fill="black" stroke="black" points="137.2,-1371.69 132.95,-1361.99 130.22,-1372.23 137.2,-1371.69"/>
</g>
<!-- j3554855972&#45;&gt;j3119296038 -->
<g id="edge12" class="edge">
<title>j3554855972&#45;&gt;j3119296038</title>
<path fill="none" stroke="black" d="M433.4,-1564.05C450.07,-1552.82 471.97,-1538.07 490.22,-1525.77"/>
<polygon fill="black" stroke="black" points="492.07,-1528.74 498.41,-1520.25 488.16,-1522.94 492.07,-1528.74"/>
</g>
<!-- j3554855972&#45;&gt;j3307444820 -->
<g id="edge13" class="edge">
<title>j3554855972&#45;&gt;j3307444820</title>
<path fill="none" stroke="black" d="M399.04,-1564.25C394.06,-1554.11 387.66,-1541.06 382,-1529.53"/>
<polygon fill="black" stroke="black" points="385.29,-1528.29 377.75,-1520.85 379.01,-1531.37 385.29,-1528.29"/>
</g>
<!-- j3554855972&#45;&gt;j1397232624 -->
<g id="edge14" class="edge">
<title>j3554855972&#45;&gt;j1397232624</title>
<path fill="none" stroke="black" d="M355.81,-1564.08C347.37,-1561.32 338.71,-1558.54 330.5,-1556 293.22,-1544.45 251.51,-1532.33 216.96,-1522.5"/>
<polygon fill="black" stroke="black" points="218.04,-1519.17 207.47,-1519.81 216.14,-1525.91 218.04,-1519.17"/>
</g>
<!-- j643919453 -->
<g id="node13" class="node">
<title>j643919453</title>
<polygon fill="none" stroke="red" points="706,-1306 521,-1306 521,-1270 706,-1270 706,-1306"/>
<text text-anchor="middle" x="613.5" y="-1284.3" font-family="Times New Roman,serif" font-size="14.00">Di cosa dovrei parlarti invece?</text>
</g>
<!-- j15034754&#45;&gt;j643919453 -->
<g id="edge15" class="edge">
<title>j15034754&#45;&gt;j643919453</title>
<path fill="none" stroke="black" d="M613.5,-1392.74C613.5,-1372.81 613.5,-1340.66 613.5,-1317.43"/>
<polygon fill="black" stroke="black" points="617,-1317.72 613.5,-1307.72 610,-1317.72 617,-1317.72"/>
</g>
<!-- j2085010057 -->
<g id="node14" class="node">
<title>j2085010057</title>
<polygon fill="none" stroke="red" points="499,-1306 246,-1306 246,-1270 499,-1270 499,-1306"/>
<text text-anchor="middle" x="372.5" y="-1284.3" font-family="Times New Roman,serif" font-size="14.00">Cercavo solo di essere amichevole, scusa.</text>
</g>
<!-- j15034754&#45;&gt;j2085010057 -->
<g id="edge16" class="edge">
<title>j15034754&#45;&gt;j2085010057</title>
<path fill="none" stroke="black" d="M577.16,-1392.6C534.25,-1370.88 462.9,-1334.76 416.8,-1311.42"/>
<polygon fill="black" stroke="black" points="418.65,-1308.44 408.14,-1307.04 415.48,-1314.68 418.65,-1308.44"/>
</g>
<!-- j3702960008&#45;&gt;j643919453 -->
<g id="edge18" class="edge">
<title>j3702960008&#45;&gt;j643919453</title>
<path fill="none" stroke="black" d="M435.77,-1377.5C477.98,-1356.48 531.26,-1329.95 568.43,-1311.44"/>
<polygon fill="black" stroke="black" points="569.71,-1314.71 577.1,-1307.12 566.59,-1308.45 569.71,-1314.71"/>
</g>
<!-- j3702960008&#45;&gt;j2085010057 -->
<g id="edge17" class="edge">
<title>j3702960008&#45;&gt;j2085010057</title>
<path fill="none" stroke="black" d="M369.59,-1377.66C370.21,-1358.98 370.96,-1335.89 371.55,-1317.97"/>
<polygon fill="black" stroke="black" points="375.05,-1318.12 371.88,-1308.01 368.05,-1317.89 375.05,-1318.12"/>
</g>
<!-- Chat ends. -->
<g id="node15" class="node">
<title>Chat ends.</title>
<ellipse fill="none" stroke="orange" cx="639.5" cy="-18" rx="50.09" ry="18"/>
<text text-anchor="middle" x="639.5" y="-14.3" font-family="Times New Roman,serif" font-size="14.00">Chat ends.</text>
</g>
<!-- j2547240352&#45;&gt;Chat ends. -->
<g id="edge19" class="edge">
<title>j2547240352&#45;&gt;Chat ends.</title>
<path fill="none" stroke="black" d="M126.53,-1323.77C121.83,-1305.96 115.5,-1277.28 115.5,-1252 115.5,-1252 115.5,-1252 115.5,-90 115.5,-43.73 440.41,-26.31 578.54,-20.99"/>
<polygon fill="black" stroke="black" points="578.36,-24.5 588.22,-20.63 578.09,-17.5 578.36,-24.5"/>
</g>
<!-- j1282178414 -->
<g id="node16" class="node">
<title>j1282178414</title>
<polygon fill="none" stroke="blue" points="803,-1233 486,-1233 486,-1180 803,-1180 803,-1233"/>
<text text-anchor="middle" x="644.5" y="-1217.8" font-family="Times New Roman,serif" font-size="14.00">Eh, lo siento &#13;</text>
<text text-anchor="middle" x="644.5" y="-1202.8" font-family="Times New Roman,serif" font-size="14.00">Non ho dormito molto la notte scorsa &#13;</text>
<text text-anchor="middle" x="644.5" y="-1187.8" font-family="Times New Roman,serif" font-size="14.00">Quindi non ho molta pazienza per le domande stupide</text>
</g>
<!-- j643919453&#45;&gt;j1282178414 -->
<g id="edge20" class="edge">
<title>j643919453&#45;&gt;j1282178414</title>
<path fill="none" stroke="black" d="M620.23,-1269.75C623.16,-1262.22 626.73,-1253.08 630.21,-1244.15"/>
<polygon fill="black" stroke="black" points="633.45,-1245.48 633.82,-1234.89 626.92,-1242.94 633.45,-1245.48"/>
</g>
<!-- j2165910212 -->
<g id="node17" class="node">
<title>j2165910212</title>
<polygon fill="none" stroke="blue" points="467.5,-1233 277.5,-1233 277.5,-1180 467.5,-1180 467.5,-1233"/>
<text text-anchor="middle" x="372.5" y="-1217.8" font-family="Times New Roman,serif" font-size="14.00">Ay, equis &#13;</text>
<text text-anchor="middle" x="372.5" y="-1202.8" font-family="Times New Roman,serif" font-size="14.00">Non preoccuparti &#13;</text>
<text text-anchor="middle" x="372.5" y="-1187.8" font-family="Times New Roman,serif" font-size="14.00">Non ho dormito molto stanotte</text>
</g>
<!-- j2085010057&#45;&gt;j2165910212 -->
<g id="edge21" class="edge">
<title>j2085010057&#45;&gt;j2165910212</title>
<path fill="none" stroke="black" d="M372.5,-1269.75C372.5,-1262.38 372.5,-1253.48 372.5,-1244.74"/>
<polygon fill="black" stroke="black" points="376,-1245 372.5,-1235 369,-1245 376,-1245"/>
</g>
<!-- j1645132318 -->
<g id="node18" class="node">
<title>j1645132318</title>
<polygon fill="none" stroke="red" points="556,-1143 473,-1143 473,-1107 556,-1107 556,-1143"/>
<text text-anchor="middle" x="514.5" y="-1121.3" font-family="Times New Roman,serif" font-size="14.00">Neanche io.</text>
</g>
<!-- j1282178414&#45;&gt;j1645132318 -->
<g id="edge22" class="edge">
<title>j1282178414&#45;&gt;j1645132318</title>
<path fill="none" stroke="black" d="M602.29,-1179.69C586.36,-1169.94 568.33,-1158.92 552.78,-1149.41"/>
<polygon fill="black" stroke="black" points="554.61,-1146.43 544.25,-1144.19 550.96,-1152.4 554.61,-1146.43"/>
</g>
<!-- j1217153141 -->
<g id="node19" class="node">
<title>j1217153141</title>
<polygon fill="none" stroke="red" points="1061.5,-1143 603.5,-1143 603.5,-1107 1061.5,-1107 1061.5,-1143"/>
<text text-anchor="middle" x="832.5" y="-1121.3" font-family="Times New Roman,serif" font-size="14.00">*Erano* domande stupide, però. lol. Semplicemente non so di cos&#39;altro parlare</text>
</g>
<!-- j1282178414&#45;&gt;j1217153141 -->
<g id="edge23" class="edge">
<title>j1282178414&#45;&gt;j1217153141</title>
<path fill="none" stroke="black" d="M705.8,-1179.58C730.05,-1169.32 757.62,-1157.66 780.84,-1147.85"/>
<polygon fill="black" stroke="black" points="781.93,-1151.19 789.77,-1144.07 779.2,-1144.74 781.93,-1151.19"/>
</g>
<!-- j2165910212&#45;&gt;j1645132318 -->
<g id="edge25" class="edge">
<title>j2165910212&#45;&gt;j1645132318</title>
<path fill="none" stroke="black" d="M418.6,-1179.69C436.34,-1169.76 456.45,-1158.5 473.66,-1148.87"/>
<polygon fill="black" stroke="black" points="475.08,-1152.08 482.09,-1144.14 471.66,-1145.97 475.08,-1152.08"/>
</g>
<!-- j96032048 -->
<g id="node20" class="node">
<title>j96032048</title>
<polygon fill="none" stroke="red" points="412,-1143 333,-1143 333,-1107 412,-1107 412,-1143"/>
<text text-anchor="middle" x="372.5" y="-1121.3" font-family="Times New Roman,serif" font-size="14.00">Perché no?</text>
</g>
<!-- j2165910212&#45;&gt;j96032048 -->
<g id="edge24" class="edge">
<title>j2165910212&#45;&gt;j96032048</title>
<path fill="none" stroke="black" d="M372.5,-1179.91C372.5,-1171.86 372.5,-1162.91 372.5,-1154.66"/>
<polygon fill="black" stroke="black" points="376,-1154.77 372.5,-1144.77 369,-1154.77 376,-1154.77"/>
</g>
<!-- j2733286665 -->
<g id="node21" class="node">
<title>j2733286665</title>
<ellipse fill="none" stroke="orange" cx="514.5" cy="-1043.5" rx="64.19" ry="18"/>
<text text-anchor="middle" x="514.5" y="-1039.8" font-family="Times New Roman,serif" font-size="14.00">+10 Chemistry</text>
</g>
<!-- j1645132318&#45;&gt;j2733286665 -->
<g id="edge26" class="edge">
<title>j1645132318&#45;&gt;j2733286665</title>
<path fill="none" stroke="black" d="M514.5,-1106.75C514.5,-1097.02 514.5,-1084.62 514.5,-1073.45"/>
<polygon fill="black" stroke="black" points="518,-1073.5 514.5,-1063.5 511,-1073.5 518,-1073.5"/>
</g>
<!-- j3849899838 -->
<g id="node22" class="node">
<title>j3849899838</title>
<polygon fill="none" stroke="blue" points="1019.5,-1070 733.5,-1070 733.5,-1017 1019.5,-1017 1019.5,-1070"/>
<text text-anchor="middle" x="876.5" y="-1054.8" font-family="Times New Roman,serif" font-size="14.00">Un suggerimento allora &#13;</text>
<text text-anchor="middle" x="876.5" y="-1039.8" font-family="Times New Roman,serif" font-size="14.00">Se hai intenzione di interrompere la mia giornata &#13;</text>
<text text-anchor="middle" x="876.5" y="-1024.8" font-family="Times New Roman,serif" font-size="14.00">Rendila interessante almeno, ¿si?</text>
</g>
<!-- j1217153141&#45;&gt;j3849899838 -->
<g id="edge27" class="edge">
<title>j1217153141&#45;&gt;j3849899838</title>
<path fill="none" stroke="black" d="M842.05,-1106.75C846.35,-1098.97 851.61,-1089.47 856.7,-1080.27"/>
<polygon fill="black" stroke="black" points="859.61,-1082.25 861.39,-1071.81 853.48,-1078.86 859.61,-1082.25"/>
</g>
<!-- j4165398653 -->
<g id="node23" class="node">
<title>j4165398653</title>
<ellipse fill="none" stroke="orange" cx="372.5" cy="-1043.5" rx="59.59" ry="18"/>
<text text-anchor="middle" x="372.5" y="-1039.8" font-family="Times New Roman,serif" font-size="14.00">+5 Chemistry</text>
</g>
<!-- j96032048&#45;&gt;j4165398653 -->
<g id="edge28" class="edge">
<title>j96032048&#45;&gt;j4165398653</title>
<path fill="none" stroke="black" d="M372.5,-1106.75C372.5,-1097.02 372.5,-1084.62 372.5,-1073.45"/>
<polygon fill="black" stroke="black" points="376,-1073.5 372.5,-1063.5 369,-1073.5 376,-1073.5"/>
</g>
<!-- j793055314 -->
<g id="node24" class="node">
<title>j793055314</title>
<polygon fill="none" stroke="blue" points="553.5,-980 467.5,-980 467.5,-944 553.5,-944 553.5,-980"/>
<text text-anchor="middle" x="510.5" y="-958.3" font-family="Times New Roman,serif" font-size="14.00">Il peggio, eh</text>
</g>
<!-- j2733286665&#45;&gt;j793055314 -->
<g id="edge29" class="edge">
<title>j2733286665&#45;&gt;j793055314</title>
<path fill="none" stroke="black" d="M513.63,-1025.25C513.14,-1015.52 512.52,-1003.12 511.96,-991.95"/>
<polygon fill="black" stroke="black" points="515.45,-991.81 511.46,-982 508.46,-992.17 515.45,-991.81"/>
</g>
<!-- j509805292 -->
<g id="node25" class="node">
<title>j509805292</title>
<ellipse fill="none" stroke="orange" cx="912.5" cy="-962" rx="108.58" ry="18"/>
<text text-anchor="middle" x="912.5" y="-958.3" font-family="Times New Roman,serif" font-size="14.00">Check boolean LettieRats1</text>
</g>
<!-- j3849899838&#45;&gt;j509805292 -->
<g id="edge30" class="edge">
<title>j3849899838&#45;&gt;j509805292</title>
<path fill="none" stroke="black" d="M888.09,-1016.91C891.9,-1008.48 896.16,-999.08 900.04,-990.52"/>
<polygon fill="black" stroke="black" points="903.12,-992.19 904.06,-981.64 896.75,-989.3 903.12,-992.19"/>
</g>
<!-- j4080155794 -->
<g id="node26" class="node">
<title>j4080155794</title>
<polygon fill="none" stroke="blue" points="443,-980 330,-980 330,-944 443,-944 443,-980"/>
<text text-anchor="middle" x="386.5" y="-958.3" font-family="Times New Roman,serif" font-size="14.00">Non succede mai</text>
</g>
<!-- j4165398653&#45;&gt;j4080155794 -->
<g id="edge31" class="edge">
<title>j4165398653&#45;&gt;j4080155794</title>
<path fill="none" stroke="black" d="M375.54,-1025.25C377.27,-1015.42 379.48,-1002.85 381.47,-991.59"/>
<polygon fill="black" stroke="black" points="384.87,-992.44 383.16,-981.98 377.98,-991.22 384.87,-992.44"/>
</g>
<!-- j979739142 -->
<g id="node27" class="node">
<title>j979739142</title>
<polygon fill="none" stroke="blue" points="546,-893 343,-893 343,-855 546,-855 546,-893"/>
<text text-anchor="middle" x="444.5" y="-877.8" font-family="Times New Roman,serif" font-size="14.00">Ti serve qualcosa &#13;</text>
<text text-anchor="middle" x="444.5" y="-862.8" font-family="Times New Roman,serif" font-size="14.00">O stai solo ammazzando il tempo</text>
</g>
<!-- j793055314&#45;&gt;j979739142 -->
<g id="edge32" class="edge">
<title>j793055314&#45;&gt;j979739142</title>
<path fill="none" stroke="black" d="M497.14,-943.6C488.02,-931.71 475.76,-915.73 465.36,-902.18"/>
<polygon fill="black" stroke="black" points="468.31,-900.27 459.44,-894.47 462.75,-904.53 468.31,-900.27"/>
</g>
<!-- j702581306 -->
<g id="node28" class="node">
<title>j702581306</title>
<polygon fill="none" stroke="blue" points="1221.5,-837 1033.5,-837 1033.5,-801 1221.5,-801 1221.5,-837"/>
<text text-anchor="middle" x="1127.5" y="-815.3" font-family="Times New Roman,serif" font-size="14.00">Era meglio la domanda sui ratti</text>
</g>
<!-- j509805292&#45;&gt;j702581306 -->
<g id="edge33" class="edge">
<title>j509805292&#45;&gt;j702581306</title>
<path fill="none" stroke="green" d="M951.94,-944.84C980,-932.51 1017.99,-914.09 1048.5,-893 1068.59,-879.11 1088.77,-860.36 1103.71,-845.34"/>
<polygon fill="green" stroke="green" points="1105.89,-848.12 1110.37,-838.52 1100.88,-843.23 1105.89,-848.12"/>
<text text-anchor="middle" x="1028.5" y="-914.8" font-family="Times New Roman,serif" font-size="14.00">true</text>
</g>
<!-- j2015007616 -->
<g id="node29" class="node">
<title>j2015007616</title>
<ellipse fill="none" stroke="orange" cx="912.5" cy="-874" rx="126.98" ry="18"/>
<text text-anchor="middle" x="912.5" y="-870.3" font-family="Times New Roman,serif" font-size="14.00">Check boolean LettieFantasma1</text>
</g>
<!-- j509805292&#45;&gt;j2015007616 -->
<g id="edge34" class="edge">
<title>j509805292&#45;&gt;j2015007616</title>
<path fill="none" stroke="brown" d="M912.5,-943.6C912.5,-932.17 912.5,-916.96 912.5,-903.76"/>
<polygon fill="brown" stroke="brown" points="916,-903.89 912.5,-893.89 909,-903.89 916,-903.89"/>
<text text-anchor="middle" x="925.5" y="-914.8" font-family="Times New Roman,serif" font-size="14.00">false</text>
</g>
<!-- j4080155794&#45;&gt;j979739142 -->
<g id="edge35" class="edge">
<title>j4080155794&#45;&gt;j979739142</title>
<path fill="none" stroke="black" d="M398.24,-943.6C406.17,-931.83 416.83,-916.04 425.91,-902.57"/>
<polygon fill="black" stroke="black" points="428.64,-904.77 431.33,-894.52 422.84,-900.86 428.64,-904.77"/>
</g>
<!-- j2654743609 -->
<g id="node30" class="node">
<title>j2654743609</title>
<polygon fill="none" stroke="red" points="422,-729 233,-729 233,-693 422,-693 422,-729"/>
<text text-anchor="middle" x="327.5" y="-707.3" font-family="Times New Roman,serif" font-size="14.00">Volevo solo salutarti, tutto qui.</text>
</g>
<!-- j979739142&#45;&gt;j2654743609 -->
<g id="edge36" class="edge">
<title>j979739142&#45;&gt;j2654743609</title>
<path fill="none" stroke="black" d="M413.05,-854.65C388.92,-838.83 356.88,-813.72 339.5,-783 332.26,-770.21 329.14,-754.19 327.88,-740.61"/>
<polygon fill="black" stroke="black" points="331.4,-740.72 327.29,-730.95 324.41,-741.15 331.4,-740.72"/>
</g>
<!-- j4019279752 -->
<g id="node31" class="node">
<title>j4019279752</title>
<polygon fill="none" stroke="red" points="540.5,-783 348.5,-783 348.5,-747 540.5,-747 540.5,-783"/>
<text text-anchor="middle" x="444.5" y="-761.3" font-family="Times New Roman,serif" font-size="14.00">Volevo solo sapere come stavi.</text>
</g>
<!-- j979739142&#45;&gt;j4019279752 -->
<g id="edge37" class="edge">
<title>j979739142&#45;&gt;j4019279752</title>
<path fill="none" stroke="black" d="M444.5,-854.85C444.5,-838.34 444.5,-813.69 444.5,-794.55"/>
<polygon fill="black" stroke="black" points="448,-794.69 444.5,-784.69 441,-794.69 448,-794.69"/>
</g>
<!-- j2013246548 -->
<g id="node32" class="node">
<title>j2013246548</title>
<polygon fill="none" stroke="red" points="752,-783 559,-783 559,-747 752,-747 752,-783"/>
<text text-anchor="middle" x="655.5" y="-761.3" font-family="Times New Roman,serif" font-size="14.00">Sto solo ammazzando il tempo.</text>
</g>
<!-- j979739142&#45;&gt;j2013246548 -->
<g id="edge38" class="edge">
<title>j979739142&#45;&gt;j2013246548</title>
<path fill="none" stroke="black" d="M480.77,-854.61C516.9,-836.29 572.41,-808.13 611.14,-788.49"/>
<polygon fill="black" stroke="black" points="612.41,-791.77 619.75,-784.13 609.25,-785.53 612.41,-791.77"/>
</g>
<!-- j2528244658 -->
<g id="node33" class="node">
<title>j2528244658</title>
<polygon fill="none" stroke="red" points="1222.5,-666.5 768.5,-666.5 768.5,-630.5 1222.5,-630.5 1222.5,-666.5"/>
<text text-anchor="middle" x="995.5" y="-644.8" font-family="Times New Roman,serif" font-size="14.00">Renderla interessante. Ricevuto. Io... andrò... a pensare... a cose interessanti...</text>
</g>
<!-- j702581306&#45;&gt;j2528244658 -->
<g id="edge39" class="edge">
<title>j702581306&#45;&gt;j2528244658</title>
<path fill="none" stroke="black" d="M1114.89,-800.79C1096.96,-776.47 1062.91,-730.81 1032.5,-693 1027.85,-687.22 1022.76,-681.1 1017.88,-675.34"/>
<polygon fill="black" stroke="black" points="1020.62,-673.16 1011.47,-667.83 1015.3,-677.7 1020.62,-673.16"/>
</g>
<!-- j2015007616&#45;&gt;j2528244658 -->
<g id="edge41" class="edge">
<title>j2015007616&#45;&gt;j2528244658</title>
<path fill="none" stroke="brown" d="M934.17,-856.03C953.22,-839.65 979.69,-812.98 991.5,-783 1004.97,-748.8 1003.29,-705.76 1000.06,-677.94"/>
<polygon fill="brown" stroke="brown" points="1003.55,-677.63 998.77,-668.17 996.61,-678.55 1003.55,-677.63"/>
<text text-anchor="middle" x="1012.5" y="-761.3" font-family="Times New Roman,serif" font-size="14.00">false</text>
</g>
<!-- j3176821164 -->
<g id="node34" class="node">
<title>j3176821164</title>
<polygon fill="none" stroke="blue" points="982.5,-783 770.5,-783 770.5,-747 982.5,-747 982.5,-783"/>
<text text-anchor="middle" x="876.5" y="-761.3" font-family="Times New Roman,serif" font-size="14.00">Era meglio la domanda su casa mia</text>
</g>
<!-- j2015007616&#45;&gt;j3176821164 -->
<g id="edge40" class="edge">
<title>j2015007616&#45;&gt;j3176821164</title>
<path fill="none" stroke="green" d="M906.72,-855.81C901.1,-839.12 892.48,-813.5 885.88,-793.89"/>
<polygon fill="green" stroke="green" points="889.26,-792.95 882.75,-784.58 882.62,-795.18 889.26,-792.95"/>
<text text-anchor="middle" x="910.5" y="-815.3" font-family="Times New Roman,serif" font-size="14.00">true</text>
</g>
<!-- j1570716172 -->
<g id="node35" class="node">
<title>j1570716172</title>
<polygon fill="none" stroke="blue" points="384.5,-585 330.5,-585 330.5,-547 384.5,-547 384.5,-585"/>
<text text-anchor="middle" x="357.5" y="-569.8" font-family="Times New Roman,serif" font-size="14.00">Hola &#13;</text>
<text text-anchor="middle" x="357.5" y="-554.8" font-family="Times New Roman,serif" font-size="14.00">Ci sei</text>
</g>
<!-- j2654743609&#45;&gt;j1570716172 -->
<g id="edge42" class="edge">
<title>j2654743609&#45;&gt;j1570716172</title>
<path fill="none" stroke="black" d="M331.12,-692.75C336.13,-668.86 345.26,-625.35 351.35,-596.3"/>
<polygon fill="black" stroke="black" points="354.74,-597.2 353.37,-586.69 347.89,-595.76 354.74,-597.2"/>
</g>
<!-- j3476323065 -->
<g id="node36" class="node">
<title>j3476323065</title>
<polygon fill="none" stroke="blue" points="481.5,-675 407.5,-675 407.5,-622 481.5,-622 481.5,-675"/>
<text text-anchor="middle" x="444.5" y="-659.8" font-family="Times New Roman,serif" font-size="14.00">Occupata &#13;</text>
<text text-anchor="middle" x="444.5" y="-644.8" font-family="Times New Roman,serif" font-size="14.00">Stanca &#13;</text>
<text text-anchor="middle" x="444.5" y="-629.8" font-family="Times New Roman,serif" font-size="14.00">Stressata</text>
</g>
<!-- j4019279752&#45;&gt;j3476323065 -->
<g id="edge43" class="edge">
<title>j4019279752&#45;&gt;j3476323065</title>
<path fill="none" stroke="black" d="M444.5,-746.61C444.5,-730.71 444.5,-706.67 444.5,-686.49"/>
<polygon fill="black" stroke="black" points="448,-686.66 444.5,-676.66 441,-686.66 448,-686.66"/>
</g>
<!-- j3825179956 -->
<g id="node37" class="node">
<title>j3825179956</title>
<polygon fill="none" stroke="blue" points="727,-667.5 592,-667.5 592,-629.5 727,-629.5 727,-667.5"/>
<text text-anchor="middle" x="659.5" y="-652.3" font-family="Times New Roman,serif" font-size="14.00">Buon per te &#13;</text>
<text text-anchor="middle" x="659.5" y="-637.3" font-family="Times New Roman,serif" font-size="14.00">Ho del lavoro da fare</text>
</g>
<!-- j2013246548&#45;&gt;j3825179956 -->
<g id="edge44" class="edge">
<title>j2013246548&#45;&gt;j3825179956</title>
<path fill="none" stroke="black" d="M656.11,-746.61C656.73,-728.75 657.71,-700.6 658.46,-679.2"/>
<polygon fill="black" stroke="black" points="661.96,-679.44 658.81,-669.33 654.96,-679.2 661.96,-679.44"/>
</g>
<!-- j2179501014 -->
<g id="node38" class="node">
<title>j2179501014</title>
<ellipse fill="none" stroke="orange" cx="917.5" cy="-566" rx="145.67" ry="18"/>
<text text-anchor="middle" x="917.5" y="-562.3" font-family="Times New Roman,serif" font-size="14.00">Boolean LettieInteresting is now true.</text>
</g>
<!-- j2528244658&#45;&gt;j2179501014 -->
<g id="edge45" class="edge">
<title>j2528244658&#45;&gt;j2179501014</title>
<path fill="none" stroke="black" d="M978.58,-630.03C967.87,-618.99 953.86,-604.53 941.96,-592.24"/>
<polygon fill="black" stroke="black" points="944.65,-589.99 935.18,-585.24 939.62,-594.86 944.65,-589.99"/>
</g>
<!-- j3176821164&#45;&gt;j2528244658 -->
<g id="edge46" class="edge">
<title>j3176821164&#45;&gt;j2528244658</title>
<path fill="none" stroke="black" d="M894.57,-746.61C914.52,-727.42 946.8,-696.36 969.47,-674.54"/>
<polygon fill="black" stroke="black" points="971.78,-677.18 976.56,-667.73 966.92,-672.14 971.78,-677.18"/>
</g>
<!-- j3630798364 -->
<g id="node39" class="node">
<title>j3630798364</title>
<polygon fill="none" stroke="red" points="653.5,-475 473.5,-475 473.5,-439 653.5,-439 653.5,-475"/>
<text text-anchor="middle" x="563.5" y="-453.3" font-family="Times New Roman,serif" font-size="14.00">Allora smetterò di disturbarti.</text>
</g>
<!-- j1570716172&#45;&gt;j3630798364 -->
<g id="edge47" class="edge">
<title>j1570716172&#45;&gt;j3630798364</title>
<path fill="none" stroke="black" d="M384.8,-548.06C409.8,-532.84 448.03,-510.3 482.5,-493 491.35,-488.56 500.9,-484.12 510.23,-479.98"/>
<polygon fill="black" stroke="black" points="511.47,-483.26 519.23,-476.05 508.67,-476.84 511.47,-483.26"/>
</g>
<!-- j2800996076 -->
<g id="node40" class="node">
<title>j2800996076</title>
<polygon fill="none" stroke="red" points="455,-475 260,-475 260,-439 455,-439 455,-475"/>
<text text-anchor="middle" x="357.5" y="-453.3" font-family="Times New Roman,serif" font-size="14.00">Posso aiutarti in qualche modo?</text>
</g>
<!-- j1570716172&#45;&gt;j2800996076 -->
<g id="edge48" class="edge">
<title>j1570716172&#45;&gt;j2800996076</title>
<path fill="none" stroke="black" d="M357.5,-546.85C357.5,-530.34 357.5,-505.69 357.5,-486.55"/>
<polygon fill="black" stroke="black" points="361,-486.69 357.5,-476.69 354,-486.69 361,-486.69"/>
</g>
<!-- j3185718353 -->
<g id="node41" class="node">
<title>j3185718353</title>
<polygon fill="none" stroke="blue" points="474,-584 415,-584 415,-548 474,-548 474,-584"/>
<text text-anchor="middle" x="444.5" y="-562.3" font-family="Times New Roman,serif" font-size="14.00">Il solito</text>
</g>
<!-- j3476323065&#45;&gt;j3185718353 -->
<g id="edge49" class="edge">
<title>j3476323065&#45;&gt;j3185718353</title>
<path fill="none" stroke="black" d="M444.5,-621.59C444.5,-613.34 444.5,-604.17 444.5,-595.73"/>
<polygon fill="black" stroke="black" points="448,-595.99 444.5,-585.99 441,-595.99 448,-595.99"/>
</g>
<!-- j2698552648 -->
<g id="node42" class="node">
<title>j2698552648</title>
<polygon fill="none" stroke="blue" points="731,-529 606,-529 606,-493 731,-493 731,-529"/>
<text text-anchor="middle" x="668.5" y="-507.3" font-family="Times New Roman,serif" font-size="14.00">Ci torneremo sopra</text>
</g>
<!-- j3825179956&#45;&gt;j2698552648 -->
<g id="edge50" class="edge">
<title>j3825179956&#45;&gt;j2698552648</title>
<path fill="none" stroke="black" d="M660.71,-629.23C662.23,-606.42 664.83,-567.18 666.61,-540.44"/>
<polygon fill="black" stroke="black" points="670.09,-540.85 667.26,-530.64 663.11,-540.39 670.09,-540.85"/>
</g>
<!-- j1780676929 -->
<g id="node43" class="node">
<title>j1780676929</title>
<ellipse fill="none" stroke="orange" cx="848.5" cy="-457" rx="64.19" ry="18"/>
<text text-anchor="middle" x="848.5" y="-453.3" font-family="Times New Roman,serif" font-size="14.00">+20 Chemistry</text>
</g>
<!-- j2179501014&#45;&gt;j1780676929 -->
<g id="edge51" class="edge">
<title>j2179501014&#45;&gt;j1780676929</title>
<path fill="none" stroke="black" d="M906.41,-547.81C895.45,-530.81 878.51,-504.54 865.78,-484.79"/>
<polygon fill="black" stroke="black" points="868.74,-482.93 860.38,-476.42 862.86,-486.72 868.74,-482.93"/>
</g>
<!-- j3748645904 -->
<g id="node44" class="node">
<title>j3748645904</title>
<polygon fill="none" stroke="blue" points="666.5,-238 612.5,-238 612.5,-202 666.5,-202 666.5,-238"/>
<text text-anchor="middle" x="639.5" y="-216.3" font-family="Times New Roman,serif" font-size="14.00">Bueno</text>
</g>
<!-- j3630798364&#45;&gt;j3748645904 -->
<g id="edge52" class="edge">
<title>j3630798364&#45;&gt;j3748645904</title>
<path fill="none" stroke="black" d="M570.57,-438.73C582.42,-409.36 606.55,-347.65 622.5,-294 626.83,-279.43 630.75,-262.96 633.73,-249.36"/>
<polygon fill="black" stroke="black" points="637.12,-250.25 635.78,-239.74 630.27,-248.79 637.12,-250.25"/>
</g>
<!-- j1678389883 -->
<g id="node45" class="node">
<title>j1678389883</title>
<ellipse fill="none" stroke="orange" cx="371.5" cy="-384" rx="64.19" ry="18"/>
<text text-anchor="middle" x="371.5" y="-380.3" font-family="Times New Roman,serif" font-size="14.00">+10 Chemistry</text>
</g>
<!-- j2800996076&#45;&gt;j1678389883 -->
<g id="edge53" class="edge">
<title>j2800996076&#45;&gt;j1678389883</title>
<path fill="none" stroke="black" d="M360.89,-438.81C362.4,-431.14 364.23,-421.89 365.93,-413.24"/>
<polygon fill="black" stroke="black" points="369.35,-414 367.85,-403.51 362.48,-412.65 369.35,-414"/>
</g>
<!-- j3185718353&#45;&gt;j3630798364 -->
<g id="edge55" class="edge">
<title>j3185718353&#45;&gt;j3630798364</title>
<path fill="none" stroke="black" d="M463.88,-547.57C483.42,-530 513.75,-502.73 535.82,-482.89"/>
<polygon fill="black" stroke="black" points="537.9,-485.72 543,-476.43 533.22,-480.52 537.9,-485.72"/>
</g>
<!-- j3185718353&#45;&gt;j2800996076 -->
<g id="edge54" class="edge">
<title>j3185718353&#45;&gt;j2800996076</title>
<path fill="none" stroke="black" d="M430.52,-547.81C416.51,-530.57 394.75,-503.81 378.63,-483.98"/>
<polygon fill="black" stroke="black" points="381.42,-481.87 372.4,-476.32 375.99,-486.29 381.42,-481.87"/>
</g>
<!-- j2698552648&#45;&gt;Chat ends. -->
<g id="edge56" class="edge">
<title>j2698552648&#45;&gt;Chat ends.</title>
<path fill="none" stroke="black" d="M672.54,-492.71C676.36,-474.86 681.5,-446.14 681.5,-421 681.5,-421 681.5,-421 681.5,-90 681.5,-73.06 672.53,-56.61 662.89,-43.83"/>
<polygon fill="black" stroke="black" points="665.85,-41.92 656.81,-36.38 660.42,-46.34 665.85,-41.92"/>
</g>
<!-- j1368267468 -->
<g id="node46" class="node">
<title>j1368267468</title>
<polygon fill="none" stroke="blue" points="811.5,-348 723.5,-348 723.5,-312 811.5,-312 811.5,-348"/>
<text text-anchor="middle" x="767.5" y="-326.3" font-family="Times New Roman,serif" font-size="14.00">Buena suerte</text>
</g>
<!-- j1780676929&#45;&gt;j1368267468 -->
<g id="edge57" class="edge">
<title>j1780676929&#45;&gt;j1368267468</title>
<path fill="none" stroke="black" d="M837.41,-438.88C823.85,-417.96 800.76,-382.32 784.84,-357.76"/>
<polygon fill="black" stroke="black" points="787.92,-356.07 779.54,-349.58 782.04,-359.88 787.92,-356.07"/>
</g>
<!-- j3748645904&#45;&gt;Chat ends. -->
<g id="edge58" class="edge">
<title>j3748645904&#45;&gt;Chat ends.</title>
<path fill="none" stroke="black" d="M639.5,-201.6C639.5,-167.09 639.5,-89.67 639.5,-47.57"/>
<polygon fill="black" stroke="black" points="643,-47.73 639.5,-37.73 636,-47.73 643,-47.73"/>
</g>
<!-- j3121413684 -->
<g id="node47" class="node">
<title>j3121413684</title>
<polygon fill="none" stroke="blue" points="613.5,-294 143.5,-294 143.5,-256 613.5,-256 613.5,-294"/>
<text text-anchor="middle" x="378.5" y="-278.8" font-family="Times New Roman,serif" font-size="14.00">Convinci la gente del posto a smetterla di intromettersi tra il Techrot e gli Scaldra &#13;</text>
<text text-anchor="middle" x="378.5" y="-263.8" font-family="Times New Roman,serif" font-size="14.00">Eso sería genial</text>
</g>
<!-- j1678389883&#45;&gt;j3121413684 -->
<g id="edge59" class="edge">
<title>j1678389883&#45;&gt;j3121413684</title>
<path fill="none" stroke="black" d="M372.62,-365.81C373.69,-349.57 375.3,-324.87 376.57,-305.48"/>
<polygon fill="black" stroke="black" points="380.05,-305.94 377.21,-295.73 373.06,-305.48 380.05,-305.94"/>
</g>
<!-- j1368267468&#45;&gt;Chat ends. -->
<g id="edge60" class="edge">
<title>j1368267468&#45;&gt;Chat ends.</title>
<path fill="none" stroke="black" d="M761.19,-311.68C754.08,-290.56 743.5,-253.65 743.5,-221 743.5,-221 743.5,-221 743.5,-90 743.5,-61.53 716.59,-43.66 690.15,-32.96"/>
<polygon fill="black" stroke="black" points="691.72,-29.81 681.13,-29.6 689.28,-36.37 691.72,-29.81"/>
</g>
<!-- j3771333950 -->
<g id="node48" class="node">
<title>j3771333950</title>
<polygon fill="none" stroke="blue" points="485,-184 376,-184 376,-146 485,-146 485,-184"/>
<text text-anchor="middle" x="430.5" y="-168.8" font-family="Times New Roman,serif" font-size="14.00">A parte questo? &#13;</text>
<text text-anchor="middle" x="430.5" y="-153.8" font-family="Times New Roman,serif" font-size="14.00">Ci penserò</text>
</g>
<!-- j3121413684&#45;&gt;j3771333950 -->
<g id="edge61" class="edge">
<title>j3121413684&#45;&gt;j3771333950</title>
<path fill="none" stroke="black" d="M387.32,-255.68C395.35,-239 407.34,-214.1 416.65,-194.77"/>
<polygon fill="black" stroke="black" points="419.79,-196.3 420.98,-185.77 413.49,-193.27 419.79,-196.3"/>
</g>
<!-- j2570747018 -->
<g id="node49" class="node">
<title>j2570747018</title>
<ellipse fill="none" stroke="orange" cx="456.5" cy="-91" rx="149.47" ry="18"/>
<text text-anchor="middle" x="456.5" y="-87.3" font-family="Times New Roman,serif" font-size="14.00">Boolean LettieSmallFavor is now true.</text>
</g>
<!-- j3771333950&#45;&gt;j2570747018 -->
<g id="edge62" class="edge">
<title>j3771333950&#45;&gt;j2570747018</title>
<path fill="none" stroke="black" d="M437.06,-145.83C439.86,-138.07 443.2,-128.83 446.31,-120.21"/>
<polygon fill="black" stroke="black" points="449.59,-121.44 449.7,-110.84 443.01,-119.06 449.59,-121.44"/>
</g>
<!-- j2570747018&#45;&gt;Chat ends. -->
<g id="edge63" class="edge">
<title>j2570747018&#45;&gt;Chat ends.</title>
<path fill="none" stroke="black" d="M499.41,-73.35C528.35,-62.12 566.44,-47.35 595.59,-36.04"/>
<polygon fill="black" stroke="black" points="596.82,-39.31 604.88,-32.43 594.29,-32.79 596.82,-39.31"/>
</g>
</g>
</svg>
