<?xml version="1.0" encoding="UTF-8" standalone="no"?>
<!DOCTYPE svg PUBLIC "-//W3C//DTD SVG 1.1//EN"
 "http://www.w3.org/Graphics/SVG/1.1/DTD/svg11.dtd">
<!-- Generated by graphviz version 7.1.0 (20230121.1956)
 -->
<!-- Pages: 1 -->
<svg width="1539pt" height="1414pt"
 viewBox="0.00 0.00 1539.00 1414.00" xmlns="http://www.w3.org/2000/svg" xmlns:xlink="http://www.w3.org/1999/xlink">
<g id="graph0" class="graph" transform="scale(1 1) rotate(0) translate(4 1410)">
<polygon fill="white" stroke="none" points="-4,4 -4,-1410 1535,-1410 1535,4 -4,4"/>
<!-- LettieRank3Convo5 begins. -->
<g id="node1" class="node">
<title>LettieRank3Convo5 begins.</title>
<ellipse fill="none" stroke="orange" cx="281" cy="-1388" rx="111.58" ry="18"/>
<text text-anchor="middle" x="281" y="-1384.3" font-family="Times New Roman,serif" font-size="14.00">LettieRank3Convo5 begins.</text>
</g>
<!-- j2008120888 -->
<g id="node2" class="node">
<title>j2008120888</title>
<polygon fill="none" stroke="red" points="322.5,-1333 239.5,-1333 239.5,-1297 322.5,-1297 322.5,-1333"/>
<text text-anchor="middle" x="281" y="-1311.3" font-family="Times New Roman,serif" font-size="14.00">Tutto bene?</text>
</g>
<!-- LettieRank3Convo5 begins.&#45;&gt;j2008120888 -->
<g id="edge1" class="edge">
<title>LettieRank3Convo5 begins.&#45;&gt;j2008120888</title>
<path fill="none" stroke="black" d="M281,-1369.81C281,-1362.23 281,-1353.1 281,-1344.54"/>
<polygon fill="black" stroke="black" points="284.5,-1344.54 281,-1334.54 277.5,-1344.54 284.5,-1344.54"/>
</g>
<!-- j3768837032 -->
<g id="node3" class="node">
<title>j3768837032</title>
<polygon fill="none" stroke="red" points="656.5,-1333 459.5,-1333 459.5,-1297 656.5,-1297 656.5,-1333"/>
<text text-anchor="middle" x="558" y="-1311.3" font-family="Times New Roman,serif" font-size="14.00">Come vanno le cose con i civili?</text>
</g>
<!-- LettieRank3Convo5 begins.&#45;&gt;j3768837032 -->
<g id="edge2" class="edge">
<title>LettieRank3Convo5 begins.&#45;&gt;j3768837032</title>
<path fill="none" stroke="black" d="M338.73,-1372.2C379.29,-1361.81 434.06,-1347.77 478.71,-1336.32"/>
<polygon fill="black" stroke="black" points="479.55,-1339.72 488.37,-1333.85 477.81,-1332.94 479.55,-1339.72"/>
</g>
<!-- j2041862867 -->
<g id="node4" class="node">
<title>j2041862867</title>
<polygon fill="none" stroke="red" points="85.5,-1279 20.5,-1279 20.5,-1243 85.5,-1243 85.5,-1279"/>
<text text-anchor="middle" x="53" y="-1257.3" font-family="Times New Roman,serif" font-size="14.00">[Ignora.]</text>
</g>
<!-- LettieRank3Convo5 begins.&#45;&gt;j2041862867 -->
<g id="edge3" class="edge">
<title>LettieRank3Convo5 begins.&#45;&gt;j2041862867</title>
<path fill="none" stroke="black" d="M250.72,-1370.4C210.72,-1348.47 140.05,-1309.72 94.92,-1284.98"/>
<polygon fill="black" stroke="black" points="96.65,-1281.94 86.2,-1280.2 93.28,-1288.08 96.65,-1281.94"/>
</g>
<!-- j1751414868 -->
<g id="node5" class="node">
<title>j1751414868</title>
<polygon fill="none" stroke="blue" points="398,-1217.5 164,-1217.5 164,-1179.5 398,-1179.5 398,-1217.5"/>
<text text-anchor="middle" x="281" y="-1202.3" font-family="Times New Roman,serif" font-size="14.00">Mm? &#13;</text>
<text text-anchor="middle" x="281" y="-1187.3" font-family="Times New Roman,serif" font-size="14.00">Mi sento come una porta girevole jajaja</text>
</g>
<!-- j2008120888&#45;&gt;j1751414868 -->
<g id="edge4" class="edge">
<title>j2008120888&#45;&gt;j1751414868</title>
<path fill="none" stroke="black" d="M281,-1296.61C281,-1278.75 281,-1250.6 281,-1229.2"/>
<polygon fill="black" stroke="black" points="284.5,-1229.33 281,-1219.33 277.5,-1229.33 284.5,-1229.33"/>
</g>
<!-- j3589746391 -->
<g id="node6" class="node">
<title>j3589746391</title>
<polygon fill="none" stroke="blue" points="839.5,-1225 514.5,-1225 514.5,-1172 839.5,-1172 839.5,-1225"/>
<text text-anchor="middle" x="677" y="-1209.8" font-family="Times New Roman,serif" font-size="14.00">Eh? &#13;</text>
<text text-anchor="middle" x="677" y="-1194.8" font-family="Times New Roman,serif" font-size="14.00">Bene, suppongo &#13;</text>
<text text-anchor="middle" x="677" y="-1179.8" font-family="Times New Roman,serif" font-size="14.00">I civili sono gli stessi ovunque, con il tempo ci si abitua</text>
</g>
<!-- j3768837032&#45;&gt;j3589746391 -->
<g id="edge5" class="edge">
<title>j3768837032&#45;&gt;j3589746391</title>
<path fill="none" stroke="black" d="M576.07,-1296.61C593.6,-1279.75 620.65,-1253.72 642.33,-1232.86"/>
<polygon fill="black" stroke="black" points="644.48,-1235.65 649.26,-1226.19 639.63,-1230.6 644.48,-1235.65"/>
</g>
<!-- Chat ends. -->
<g id="node7" class="node">
<title>Chat ends.</title>
<ellipse fill="none" stroke="orange" cx="742" cy="-18" rx="50.09" ry="18"/>
<text text-anchor="middle" x="742" y="-14.3" font-family="Times New Roman,serif" font-size="14.00">Chat ends.</text>
</g>
<!-- j2041862867&#45;&gt;Chat ends. -->
<g id="edge6" class="edge">
<title>j2041862867&#45;&gt;Chat ends.</title>
<path fill="none" stroke="black" d="M37.95,-1242.57C22.28,-1222.58 0,-1188.15 0,-1154 0,-1154 0,-1154 0,-91 0,-22.85 502.28,-18.1 680.33,-18.56"/>
<polygon fill="black" stroke="black" points="680.06,-22.06 690.07,-18.59 680.08,-15.06 680.06,-22.06"/>
</g>
<!-- j1071967776 -->
<g id="node8" class="node">
<title>j1071967776</title>
<polygon fill="none" stroke="blue" points="534,-1135 28,-1135 28,-1082 534,-1082 534,-1135"/>
<text text-anchor="middle" x="281" y="-1119.8" font-family="Times New Roman,serif" font-size="14.00">Anche prima di te, a volte mi sento come se le persone mi passassero ATTRAVERSO &#13;</text>
<text text-anchor="middle" x="281" y="-1104.8" font-family="Times New Roman,serif" font-size="14.00">Solo un volto in una tenda RCI che fascia le ferite &#13;</text>
<text text-anchor="middle" x="281" y="-1089.8" font-family="Times New Roman,serif" font-size="14.00">Ma sono parte dell&#39;edificio</text>
</g>
<!-- j1751414868&#45;&gt;j1071967776 -->
<g id="edge7" class="edge">
<title>j1751414868&#45;&gt;j1071967776</title>
<path fill="none" stroke="black" d="M281,-1179.27C281,-1169.85 281,-1158 281,-1146.76"/>
<polygon fill="black" stroke="black" points="284.5,-1146.9 281,-1136.9 277.5,-1146.9 284.5,-1146.9"/>
</g>
<!-- j1144226817 -->
<g id="node9" class="node">
<title>j1144226817</title>
<polygon fill="none" stroke="red" points="801.5,-1126.5 552.5,-1126.5 552.5,-1090.5 801.5,-1090.5 801.5,-1126.5"/>
<text text-anchor="middle" x="677" y="-1104.8" font-family="Times New Roman,serif" font-size="14.00">Sì, ma deve essere comunque estenuante.</text>
</g>
<!-- j3589746391&#45;&gt;j1144226817 -->
<g id="edge8" class="edge">
<title>j3589746391&#45;&gt;j1144226817</title>
<path fill="none" stroke="black" d="M677,-1171.57C677,-1161.11 677,-1149 677,-1138.27"/>
<polygon fill="black" stroke="black" points="680.5,-1138.41 677,-1128.41 673.5,-1138.41 680.5,-1138.41"/>
</g>
<!-- j2220387180 -->
<g id="node10" class="node">
<title>j2220387180</title>
<polygon fill="none" stroke="red" points="925,-1064 817,-1064 817,-1028 925,-1028 925,-1064"/>
<text text-anchor="middle" x="871" y="-1042.3" font-family="Times New Roman,serif" font-size="14.00">Ti abitui a cosa?</text>
</g>
<!-- j3589746391&#45;&gt;j2220387180 -->
<g id="edge9" class="edge">
<title>j3589746391&#45;&gt;j2220387180</title>
<path fill="none" stroke="black" d="M750.75,-1171.61C771.61,-1162.13 793.4,-1149.96 811,-1135 830.76,-1118.21 846.88,-1093.4 857.41,-1074.4"/>
<polygon fill="black" stroke="black" points="860.49,-1076.07 862.11,-1065.6 854.31,-1072.78 860.49,-1076.07"/>
</g>
<!-- j738846114 -->
<g id="node11" class="node">
<title>j738846114</title>
<polygon fill="none" stroke="blue" points="428.5,-1010 133.5,-1010 133.5,-942 428.5,-942 428.5,-1010"/>
<text text-anchor="middle" x="281" y="-994.8" font-family="Times New Roman,serif" font-size="14.00">Sono forte &#13;</text>
<text text-anchor="middle" x="281" y="-979.8" font-family="Times New Roman,serif" font-size="14.00">Non vado da nessuna parte &#13;</text>
<text text-anchor="middle" x="281" y="-964.8" font-family="Times New Roman,serif" font-size="14.00">Pero... Estoy muerta &#13;</text>
<text text-anchor="middle" x="281" y="-949.8" font-family="Times New Roman,serif" font-size="14.00">A volte non c&#39;è abbastanza caffè nel mondo, ¿no?</text>
</g>
<!-- j1071967776&#45;&gt;j738846114 -->
<g id="edge10" class="edge">
<title>j1071967776&#45;&gt;j738846114</title>
<path fill="none" stroke="black" d="M281,-1081.72C281,-1064.58 281,-1041.62 281,-1021.57"/>
<polygon fill="black" stroke="black" points="284.5,-1021.68 281,-1011.68 277.5,-1021.68 284.5,-1021.68"/>
</g>
<!-- j1535952416 -->
<g id="node12" class="node">
<title>j1535952416</title>
<polygon fill="none" stroke="blue" points="789.5,-1010 490.5,-1010 490.5,-942 789.5,-942 789.5,-1010"/>
<text text-anchor="middle" x="640" y="-994.8" font-family="Times New Roman,serif" font-size="14.00">Sí, non ne hai idea&#13;</text>
<text text-anchor="middle" x="640" y="-979.8" font-family="Times New Roman,serif" font-size="14.00">A volte non c&#39;è abbastanza caffè nel mondo, ¿no? &#13;</text>
<text text-anchor="middle" x="640" y="-964.8" font-family="Times New Roman,serif" font-size="14.00">Pero, soy dura de roer &#13;</text>
<text text-anchor="middle" x="640" y="-949.8" font-family="Times New Roman,serif" font-size="14.00">Non vado da nessuna parte</text>
</g>
<!-- j1144226817&#45;&gt;j1535952416 -->
<g id="edge11" class="edge">
<title>j1144226817&#45;&gt;j1535952416</title>
<path fill="none" stroke="black" d="M672.09,-1090.17C667.11,-1072.63 659.22,-1044.8 652.51,-1021.13"/>
<polygon fill="black" stroke="black" points="655.94,-1020.38 649.84,-1011.71 649.2,-1022.28 655.94,-1020.38"/>
</g>
<!-- j2516130298 -->
<g id="node13" class="node">
<title>j2516130298</title>
<polygon fill="none" stroke="blue" points="1135.5,-924 658.5,-924 658.5,-856 1135.5,-856 1135.5,-924"/>
<text text-anchor="middle" x="897" y="-908.8" font-family="Times New Roman,serif" font-size="14.00">Ai loro sguardi vuoti e il dolore paralizzante &#13;</text>
<text text-anchor="middle" x="897" y="-893.8" font-family="Times New Roman,serif" font-size="14.00">Per loro sono un volto in una tenda RCI che fascia le ferite &#13;</text>
<text text-anchor="middle" x="897" y="-878.8" font-family="Times New Roman,serif" font-size="14.00">Mi sento come se le persone mi ATTRAVERSASSERO come una porta girevole &#13;</text>
<text text-anchor="middle" x="897" y="-863.8" font-family="Times New Roman,serif" font-size="14.00">E questo prima che TU lo facessi letteralmente jajaja</text>
</g>
<!-- j2220387180&#45;&gt;j2516130298 -->
<g id="edge12" class="edge">
<title>j2220387180&#45;&gt;j2516130298</title>
<path fill="none" stroke="black" d="M873.93,-1027.63C877.68,-1005.45 884.29,-966.26 889.48,-935.52"/>
<polygon fill="black" stroke="black" points="892.93,-936.15 891.14,-925.7 886.03,-934.98 892.93,-936.15"/>
</g>
<!-- j3113679143 -->
<g id="node14" class="node">
<title>j3113679143</title>
<polygon fill="none" stroke="red" points="461.5,-838 100.5,-838 100.5,-802 461.5,-802 461.5,-838"/>
<text text-anchor="middle" x="281" y="-816.3" font-family="Times New Roman,serif" font-size="14.00">Solo perché sei quella forte non significa che non mi interessi.</text>
</g>
<!-- j738846114&#45;&gt;j3113679143 -->
<g id="edge13" class="edge">
<title>j738846114&#45;&gt;j3113679143</title>
<path fill="none" stroke="black" d="M281,-941.58C281,-914.09 281,-875.55 281,-849.5"/>
<polygon fill="black" stroke="black" points="284.5,-849.67 281,-839.67 277.5,-849.67 284.5,-849.67"/>
</g>
<!-- j2110792281 -->
<g id="node15" class="node">
<title>j2110792281</title>
<polygon fill="none" stroke="red" points="800.5,-838 479.5,-838 479.5,-802 800.5,-802 800.5,-838"/>
<text text-anchor="middle" x="640" y="-816.3" font-family="Times New Roman,serif" font-size="14.00">Sì ma un flusso costante di caffè non farebbe male. lol</text>
</g>
<!-- j738846114&#45;&gt;j2110792281 -->
<g id="edge14" class="edge">
<title>j738846114&#45;&gt;j2110792281</title>
<path fill="none" stroke="black" d="M358.9,-941.58C428.74,-911.63 529.17,-868.54 589.17,-842.8"/>
<polygon fill="black" stroke="black" points="590.33,-846.12 598.14,-838.96 587.57,-839.68 590.33,-846.12"/>
</g>
<!-- j1535952416&#45;&gt;j3113679143 -->
<g id="edge15" class="edge">
<title>j1535952416&#45;&gt;j3113679143</title>
<path fill="none" stroke="black" d="M562.1,-941.58C492.26,-911.63 391.83,-868.54 331.83,-842.8"/>
<polygon fill="black" stroke="black" points="333.43,-839.68 322.86,-838.96 330.67,-846.12 333.43,-839.68"/>
</g>
<!-- j1535952416&#45;&gt;j2110792281 -->
<g id="edge16" class="edge">
<title>j1535952416&#45;&gt;j2110792281</title>
<path fill="none" stroke="black" d="M640,-941.58C640,-914.09 640,-875.55 640,-849.5"/>
<polygon fill="black" stroke="black" points="643.5,-849.67 640,-839.67 636.5,-849.67 643.5,-849.67"/>
</g>
<!-- j3843131114 -->
<g id="node16" class="node">
<title>j3843131114</title>
<ellipse fill="none" stroke="orange" cx="903" cy="-627" rx="113.98" ry="18"/>
<text text-anchor="middle" x="903" y="-623.3" font-family="Times New Roman,serif" font-size="14.00">Check boolean LettieNoFlirt</text>
</g>
<!-- j2516130298&#45;&gt;j3843131114 -->
<g id="edge17" class="edge">
<title>j2516130298&#45;&gt;j3843131114</title>
<path fill="none" stroke="black" d="M897.77,-855.68C898.95,-803.99 901.22,-705.37 902.34,-656.67"/>
<polygon fill="black" stroke="black" points="905.83,-657.02 902.56,-646.94 898.84,-656.86 905.83,-657.02"/>
</g>
<!-- j2010015133 -->
<g id="node17" class="node">
<title>j2010015133</title>
<polygon fill="none" stroke="blue" points="447,-765 115,-765 115,-682 447,-682 447,-765"/>
<text text-anchor="middle" x="281" y="-749.8" font-family="Times New Roman,serif" font-size="14.00">Sí,&#13;</text>
<text text-anchor="middle" x="281" y="-734.8" font-family="Times New Roman,serif" font-size="14.00">Mi basta sapere che c&#39;è qualcuno che mi sostiene&#13;</text>
<text text-anchor="middle" x="281" y="-719.8" font-family="Times New Roman,serif" font-size="14.00">Arthur è così&#13;</text>
<text text-anchor="middle" x="281" y="-704.8" font-family="Times New Roman,serif" font-size="14.00">Non si sbilancia come Aoi, che finge di essere mi mamá &#13;</text>
<text text-anchor="middle" x="281" y="-689.8" font-family="Times New Roman,serif" font-size="14.00">Mi porge solo una tazza e chiede: stai bene?</text>
</g>
<!-- j3113679143&#45;&gt;j2010015133 -->
<g id="edge18" class="edge">
<title>j3113679143&#45;&gt;j2010015133</title>
<path fill="none" stroke="black" d="M281,-801.67C281,-794.47 281,-785.71 281,-776.7"/>
<polygon fill="black" stroke="black" points="284.5,-776.78 281,-766.78 277.5,-776.78 284.5,-776.78"/>
</g>
<!-- j2236542334 -->
<g id="node18" class="node">
<title>j2236542334</title>
<polygon fill="none" stroke="blue" points="801,-757.5 469,-757.5 469,-689.5 801,-689.5 801,-757.5"/>
<text text-anchor="middle" x="635" y="-742.3" font-family="Times New Roman,serif" font-size="14.00">Jajaja no non lo fa &#13;</text>
<text text-anchor="middle" x="635" y="-727.3" font-family="Times New Roman,serif" font-size="14.00">Arthur è così&#13;</text>
<text text-anchor="middle" x="635" y="-712.3" font-family="Times New Roman,serif" font-size="14.00">Non si sbilancia come Aoi, che finge di essere mi mamá &#13;</text>
<text text-anchor="middle" x="635" y="-697.3" font-family="Times New Roman,serif" font-size="14.00">Mi porge solo una tazza e chiede: stai bene?</text>
</g>
<!-- j2110792281&#45;&gt;j2236542334 -->
<g id="edge19" class="edge">
<title>j2110792281&#45;&gt;j2236542334</title>
<path fill="none" stroke="black" d="M639.08,-801.67C638.6,-792.48 637.97,-780.72 637.36,-769.17"/>
<polygon fill="black" stroke="black" points="640.86,-769.1 636.84,-759.3 633.87,-769.47 640.86,-769.1"/>
</g>
<!-- j368764447 -->
<g id="node19" class="node">
<title>j368764447</title>
<polygon fill="none" stroke="red" points="1531,-558 1115,-558 1115,-522 1531,-522 1531,-558"/>
<text text-anchor="middle" x="1323" y="-536.3" font-family="Times New Roman,serif" font-size="14.00">Voglio dire, cosa ti aspettavi da persone che hanno appena perso tutto?</text>
</g>
<!-- j3843131114&#45;&gt;j368764447 -->
<g id="edge20" class="edge">
<title>j3843131114&#45;&gt;j368764447</title>
<path fill="none" stroke="green" d="M970.95,-612.25C1040.02,-598.27 1147.69,-576.48 1225.78,-560.68"/>
<polygon fill="green" stroke="green" points="1226,-564.2 1235.11,-558.79 1224.61,-557.34 1226,-564.2"/>
<text text-anchor="middle" x="1149" y="-579.8" font-family="Times New Roman,serif" font-size="14.00">true</text>
</g>
<!-- j3843131114&#45;&gt;j368764447 -->
<g id="edge22" class="edge">
<title>j3843131114&#45;&gt;j368764447</title>
<path fill="none" stroke="brown" d="M999.45,-617.06C1048.99,-611.46 1110.11,-602.99 1164,-591 1197.84,-583.47 1234.82,-572.04 1264.6,-562.01"/>
<polygon fill="brown" stroke="brown" points="1265.46,-565.41 1273.79,-558.87 1263.2,-558.79 1265.46,-565.41"/>
<text text-anchor="middle" x="1230" y="-579.8" font-family="Times New Roman,serif" font-size="14.00">false</text>
</g>
<!-- j4034110479 -->
<g id="node20" class="node">
<title>j4034110479</title>
<polygon fill="none" stroke="red" points="1097,-558 627,-558 627,-522 1097,-522 1097,-558"/>
<text text-anchor="middle" x="862" y="-536.3" font-family="Times New Roman,serif" font-size="14.00">Posso capire perché tutte le persone dopo un po&#39; diventano una macchia sfocata.</text>
</g>
<!-- j3843131114&#45;&gt;j4034110479 -->
<g id="edge21" class="edge">
<title>j3843131114&#45;&gt;j4034110479</title>
<path fill="none" stroke="green" d="M876.38,-609.13C870.58,-604.06 865.21,-597.97 862,-591 858.98,-584.46 857.92,-576.9 857.87,-569.68"/>
<polygon fill="green" stroke="green" points="861.35,-570.13 858.42,-559.94 854.36,-569.73 861.35,-570.13"/>
<text text-anchor="middle" x="873" y="-579.8" font-family="Times New Roman,serif" font-size="14.00">true</text>
</g>
<!-- j3843131114&#45;&gt;j4034110479 -->
<g id="edge23" class="edge">
<title>j3843131114&#45;&gt;j4034110479</title>
<path fill="none" stroke="brown" d="M897.47,-608.98C894.05,-599.14 889.3,-586.64 884,-576 882.71,-573.41 881.29,-570.78 879.79,-568.17"/>
<polygon fill="brown" stroke="brown" points="882.85,-566.45 874.68,-559.71 876.86,-570.07 882.85,-566.45"/>
<text text-anchor="middle" x="903" y="-579.8" font-family="Times New Roman,serif" font-size="14.00">false</text>
</g>
<!-- j4074793267 -->
<g id="node21" class="node">
<title>j4074793267</title>
<polygon fill="none" stroke="red" points="609,-558 377,-558 377,-522 609,-522 609,-558"/>
<text text-anchor="middle" x="493" y="-536.3" font-family="Times New Roman,serif" font-size="14.00">Almeno sei una porta davvero sexy. :P</text>
</g>
<!-- j3843131114&#45;&gt;j4074793267 -->
<g id="edge24" class="edge">
<title>j3843131114&#45;&gt;j4074793267</title>
<path fill="none" stroke="brown" d="M835.76,-612.06C768.41,-598.1 664.16,-576.48 588.31,-560.76"/>
<polygon fill="brown" stroke="brown" points="589.32,-557.39 578.81,-558.79 587.9,-564.25 589.32,-557.39"/>
<text text-anchor="middle" x="735" y="-579.8" font-family="Times New Roman,serif" font-size="14.00">false</text>
</g>
<!-- j3150293183 -->
<g id="node22" class="node">
<title>j3150293183</title>
<ellipse fill="none" stroke="orange" cx="281" cy="-627" rx="140.28" ry="18"/>
<text text-anchor="middle" x="281" y="-623.3" font-family="Times New Roman,serif" font-size="14.00">Boolean LettieShoulder is now true.</text>
</g>
<!-- j2010015133&#45;&gt;j3150293183 -->
<g id="edge25" class="edge">
<title>j2010015133&#45;&gt;j3150293183</title>
<path fill="none" stroke="black" d="M281,-681.6C281,-673.22 281,-664.57 281,-656.73"/>
<polygon fill="black" stroke="black" points="284.5,-656.74 281,-646.74 277.5,-656.74 284.5,-656.74"/>
</g>
<!-- j2236542334&#45;&gt;j3150293183 -->
<g id="edge26" class="edge">
<title>j2236542334&#45;&gt;j3150293183</title>
<path fill="none" stroke="black" d="M509.69,-689.05C456.22,-674.78 395.86,-658.66 350.57,-646.57"/>
<polygon fill="black" stroke="black" points="351.72,-643.26 341.15,-644.06 349.91,-650.02 351.72,-643.26"/>
</g>
<!-- j4165404588 -->
<g id="node23" class="node">
<title>j4165404588</title>
<polygon fill="none" stroke="blue" points="1315,-477.5 1117,-477.5 1117,-424.5 1315,-424.5 1315,-477.5"/>
<text text-anchor="middle" x="1216" y="-462.3" font-family="Times New Roman,serif" font-size="14.00">Non è colpa loro &#13;</text>
<text text-anchor="middle" x="1216" y="-447.3" font-family="Times New Roman,serif" font-size="14.00">E nemmeno colpa mia, babas &#13;</text>
<text text-anchor="middle" x="1216" y="-432.3" font-family="Times New Roman,serif" font-size="14.00">Sono solo stanca di tutto questo</text>
</g>
<!-- j368764447&#45;&gt;j4165404588 -->
<g id="edge27" class="edge">
<title>j368764447&#45;&gt;j4165404588</title>
<path fill="none" stroke="black" d="M1301.6,-521.6C1288.76,-511.16 1271.99,-497.52 1256.7,-485.1"/>
<polygon fill="black" stroke="black" points="1259.06,-482.5 1249.09,-478.9 1254.64,-487.93 1259.06,-482.5"/>
</g>
<!-- j4240206478 -->
<g id="node24" class="node">
<title>j4240206478</title>
<ellipse fill="none" stroke="orange" cx="864" cy="-451" rx="64.19" ry="18"/>
<text text-anchor="middle" x="864" y="-447.3" font-family="Times New Roman,serif" font-size="14.00">+10 Chemistry</text>
</g>
<!-- j4034110479&#45;&gt;j4240206478 -->
<g id="edge28" class="edge">
<title>j4034110479&#45;&gt;j4240206478</title>
<path fill="none" stroke="black" d="M862.4,-521.81C862.66,-510.09 863.03,-494.29 863.34,-480.68"/>
<polygon fill="black" stroke="black" points="866.83,-481.04 863.56,-470.96 859.84,-480.88 866.83,-481.04"/>
</g>
<!-- j629185221 -->
<g id="node25" class="node">
<title>j629185221</title>
<ellipse fill="none" stroke="orange" cx="523" cy="-451" rx="64.19" ry="18"/>
<text text-anchor="middle" x="523" y="-447.3" font-family="Times New Roman,serif" font-size="14.00">+20 Chemistry</text>
</g>
<!-- j4074793267&#45;&gt;j629185221 -->
<g id="edge29" class="edge">
<title>j4074793267&#45;&gt;j629185221</title>
<path fill="none" stroke="black" d="M498.93,-521.81C503.04,-509.9 508.6,-493.76 513.34,-480"/>
<polygon fill="black" stroke="black" points="516.64,-481.18 516.59,-470.58 510.02,-478.9 516.64,-481.18"/>
</g>
<!-- j3724755840 -->
<g id="node26" class="node">
<title>j3724755840</title>
<ellipse fill="none" stroke="orange" cx="281" cy="-540" rx="64.19" ry="18"/>
<text text-anchor="middle" x="281" y="-536.3" font-family="Times New Roman,serif" font-size="14.00">+20 Chemistry</text>
</g>
<!-- j3150293183&#45;&gt;j3724755840 -->
<g id="edge30" class="edge">
<title>j3150293183&#45;&gt;j3724755840</title>
<path fill="none" stroke="black" d="M281,-608.8C281,-597.58 281,-582.67 281,-569.69"/>
<polygon fill="black" stroke="black" points="284.5,-569.98 281,-559.98 277.5,-569.98 284.5,-569.98"/>
</g>
<!-- j2056820519 -->
<g id="node27" class="node">
<title>j2056820519</title>
<polygon fill="none" stroke="blue" points="1108,-294 1004,-294 1004,-256 1108,-256 1108,-294"/>
<text text-anchor="middle" x="1056" y="-278.8" font-family="Times New Roman,serif" font-size="14.00">Hablando de &#13;</text>
<text text-anchor="middle" x="1056" y="-263.8" font-family="Times New Roman,serif" font-size="14.00">Torno al lavoro</text>
</g>
<!-- j4165404588&#45;&gt;j2056820519 -->
<g id="edge31" class="edge">
<title>j4165404588&#45;&gt;j2056820519</title>
<path fill="none" stroke="black" d="M1192.39,-424.33C1162.39,-391.7 1110.85,-335.65 1080.45,-302.59"/>
<polygon fill="black" stroke="black" points="1083.21,-300.42 1073.86,-295.43 1078.06,-305.16 1083.21,-300.42"/>
</g>
<!-- j1376122767 -->
<g id="node28" class="node">
<title>j1376122767</title>
<polygon fill="none" stroke="blue" points="1013,-380 717,-380 717,-312 1013,-312 1013,-380"/>
<text text-anchor="middle" x="865" y="-364.8" font-family="Times New Roman,serif" font-size="14.00">Sì, non è colpa loro, ma ce ne sono sempre di più&#13;</text>
<text text-anchor="middle" x="865" y="-349.8" font-family="Times New Roman,serif" font-size="14.00">Ho sempre pensato che non sarebbe mai finita&#13;</text>
<text text-anchor="middle" x="865" y="-334.8" font-family="Times New Roman,serif" font-size="14.00">Ora so che davvero non finirà mai&#13;</text>
<text text-anchor="middle" x="865" y="-319.8" font-family="Times New Roman,serif" font-size="14.00">Lua, sálvame</text>
</g>
<!-- j4240206478&#45;&gt;j1376122767 -->
<g id="edge32" class="edge">
<title>j4240206478&#45;&gt;j1376122767</title>
<path fill="none" stroke="black" d="M864.17,-432.53C864.28,-421.3 864.43,-406.16 864.57,-391.74"/>
<polygon fill="black" stroke="black" points="868.06,-391.96 864.66,-381.93 861.06,-391.89 868.06,-391.96"/>
</g>
<!-- j2635932395 -->
<g id="node29" class="node">
<title>j2635932395</title>
<polygon fill="none" stroke="blue" points="698.5,-380 411.5,-380 411.5,-312 698.5,-312 698.5,-380"/>
<text text-anchor="middle" x="555" y="-364.8" font-family="Times New Roman,serif" font-size="14.00">JAJA &#13;</text>
<text text-anchor="middle" x="555" y="-349.8" font-family="Times New Roman,serif" font-size="14.00">Oh, babas, sai come rallegrare una donna &#13;</text>
<text text-anchor="middle" x="555" y="-334.8" font-family="Times New Roman,serif" font-size="14.00">Mettetelo sulla mia tomba &#13;</text>
<text text-anchor="middle" x="555" y="-319.8" font-family="Times New Roman,serif" font-size="14.00">&quot;Aquí yace la puerta más sexy que hayas visto.&quot;</text>
</g>
<!-- j629185221&#45;&gt;j2635932395 -->
<g id="edge33" class="edge">
<title>j629185221&#45;&gt;j2635932395</title>
<path fill="none" stroke="black" d="M528.28,-432.99C531.86,-421.5 536.74,-405.76 541.36,-390.89"/>
<polygon fill="black" stroke="black" points="544.59,-392.32 544.21,-381.73 537.9,-390.24 544.59,-392.32"/>
</g>
<!-- j4223600955 -->
<g id="node30" class="node">
<title>j4223600955</title>
<polygon fill="none" stroke="blue" points="429,-485 133,-485 133,-417 429,-417 429,-485"/>
<text text-anchor="middle" x="281" y="-469.8" font-family="Times New Roman,serif" font-size="14.00">Mi piace questa domanda, babas&#13;</text>
<text text-anchor="middle" x="281" y="-454.8" font-family="Times New Roman,serif" font-size="14.00">Continua a chiedere&#13;</text>
<text text-anchor="middle" x="281" y="-439.8" font-family="Times New Roman,serif" font-size="14.00">Potrei averne bisogno di tanto in tanto&#13;</text>
<text text-anchor="middle" x="281" y="-424.8" font-family="Times New Roman,serif" font-size="14.00">E anche una tazza o due di caffè non faranno male</text>
</g>
<!-- j3724755840&#45;&gt;j4223600955 -->
<g id="edge34" class="edge">
<title>j3724755840&#45;&gt;j4223600955</title>
<path fill="none" stroke="black" d="M281,-521.81C281,-514.5 281,-505.6 281,-496.63"/>
<polygon fill="black" stroke="black" points="284.5,-496.87 281,-486.87 277.5,-496.87 284.5,-496.87"/>
</g>
<!-- j2056820519&#45;&gt;Chat ends. -->
<g id="edge35" class="edge">
<title>j2056820519&#45;&gt;Chat ends.</title>
<path fill="none" stroke="black" d="M1033.42,-255.66C977.38,-210.15 832.01,-92.1 770.33,-42.01"/>
<polygon fill="black" stroke="black" points="772.66,-39.39 762.69,-35.81 768.25,-44.83 772.66,-39.39"/>
</g>
<!-- j482556673 -->
<g id="node31" class="node">
<title>j482556673</title>
<polygon fill="none" stroke="blue" points="854.5,-182 729.5,-182 729.5,-129 854.5,-129 854.5,-182"/>
<text text-anchor="middle" x="792" y="-166.8" font-family="Times New Roman,serif" font-size="14.00">Hablando de &#13;</text>
<text text-anchor="middle" x="792" y="-151.8" font-family="Times New Roman,serif" font-size="14.00">Torno al lavoro &#13;</text>
<text text-anchor="middle" x="792" y="-136.8" font-family="Times New Roman,serif" font-size="14.00">Grazie per lo svago</text>
</g>
<!-- j1376122767&#45;&gt;j482556673 -->
<g id="edge36" class="edge">
<title>j1376122767&#45;&gt;j482556673</title>
<path fill="none" stroke="black" d="M867.44,-311.72C868.2,-280.83 865.39,-234.54 846,-200 844.17,-196.75 842,-193.64 839.58,-190.7"/>
<polygon fill="black" stroke="black" points="842.18,-188.35 832.78,-183.47 837.08,-193.15 842.18,-188.35"/>
</g>
<!-- j192193262 -->
<g id="node32" class="node">
<title>j192193262</title>
<polygon fill="none" stroke="blue" points="837,-238 637,-238 637,-200 837,-200 837,-238"/>
<text text-anchor="middle" x="737" y="-222.8" font-family="Times New Roman,serif" font-size="14.00">Gracias por hacerme reír, babas &#13;</text>
<text text-anchor="middle" x="737" y="-207.8" font-family="Times New Roman,serif" font-size="14.00">Ne avevo bisogno</text>
</g>
<!-- j2635932395&#45;&gt;j192193262 -->
<g id="edge37" class="edge">
<title>j2635932395&#45;&gt;j192193262</title>
<path fill="none" stroke="black" d="M603.77,-311.5C634.29,-290.54 672.95,-263.99 700.75,-244.9"/>
<polygon fill="black" stroke="black" points="702.59,-247.88 708.85,-239.33 698.63,-242.11 702.59,-247.88"/>
</g>
<!-- j3234296588 -->
<g id="node33" class="node">
<title>j3234296588</title>
<ellipse fill="none" stroke="orange" cx="280" cy="-346" rx="113.98" ry="18"/>
<text text-anchor="middle" x="280" y="-342.3" font-family="Times New Roman,serif" font-size="14.00">Check boolean LettieNoFlirt</text>
</g>
<!-- j4223600955&#45;&gt;j3234296588 -->
<g id="edge38" class="edge">
<title>j4223600955&#45;&gt;j3234296588</title>
<path fill="none" stroke="black" d="M280.68,-416.56C280.55,-403.38 280.4,-388.4 280.28,-375.72"/>
<polygon fill="black" stroke="black" points="283.78,-375.89 280.18,-365.92 276.78,-375.96 283.78,-375.89"/>
</g>
<!-- j482556673&#45;&gt;Chat ends. -->
<g id="edge39" class="edge">
<title>j482556673&#45;&gt;Chat ends.</title>
<path fill="none" stroke="black" d="M782.48,-128.69C773.82,-105.23 761.08,-70.7 752.21,-46.67"/>
<polygon fill="black" stroke="black" points="755.59,-45.72 748.84,-37.55 749.02,-48.14 755.59,-45.72"/>
</g>
<!-- j749071851 -->
<g id="node34" class="node">
<title>j749071851</title>
<polygon fill="none" stroke="blue" points="690,-111 430,-111 430,-73 690,-73 690,-111"/>
<text text-anchor="middle" x="560" y="-95.8" font-family="Times New Roman,serif" font-size="14.00">Torniamo al lavoro, ¿no? &#13;</text>
<text text-anchor="middle" x="560" y="-80.8" font-family="Times New Roman,serif" font-size="14.00">Siamo entrambi troppo occupati per questo</text>
</g>
<!-- j192193262&#45;&gt;j749071851 -->
<g id="edge40" class="edge">
<title>j192193262&#45;&gt;j749071851</title>
<path fill="none" stroke="black" d="M710.88,-199.56C680.21,-177.89 629.18,-141.86 595.08,-117.77"/>
<polygon fill="black" stroke="black" points="597.36,-115.1 587.17,-112.19 593.32,-120.82 597.36,-115.1"/>
</g>
<!-- j2321025616 -->
<g id="node35" class="node">
<title>j2321025616</title>
<polygon fill="none" stroke="red" points="619,-237 501,-237 501,-201 619,-201 619,-237"/>
<text text-anchor="middle" x="560" y="-215.3" font-family="Times New Roman,serif" font-size="14.00">Nessun problema.</text>
</g>
<!-- j3234296588&#45;&gt;j2321025616 -->
<g id="edge41" class="edge">
<title>j3234296588&#45;&gt;j2321025616</title>
<path fill="none" stroke="green" d="M316.89,-328.53C366.7,-306.3 455.57,-266.62 510.95,-241.9"/>
<polygon fill="green" stroke="green" points="512.14,-245.2 519.84,-237.93 509.28,-238.81 512.14,-245.2"/>
<text text-anchor="middle" x="488" y="-271.3" font-family="Times New Roman,serif" font-size="14.00">true</text>
</g>
<!-- j2222912899 -->
<g id="node36" class="node">
<title>j2222912899</title>
<polygon fill="none" stroke="red" points="177.5,-237 28.5,-237 28.5,-201 177.5,-201 177.5,-237"/>
<text text-anchor="middle" x="103" y="-215.3" font-family="Times New Roman,serif" font-size="14.00">Vedrò cosa posso fare.</text>
</g>
<!-- j3234296588&#45;&gt;j2222912899 -->
<g id="edge42" class="edge">
<title>j3234296588&#45;&gt;j2222912899</title>
<path fill="none" stroke="green" d="M253.75,-328.1C238.76,-318.33 219.68,-305.68 203,-294 179.89,-277.81 154.33,-258.88 134.84,-244.22"/>
<polygon fill="green" stroke="green" points="137.09,-241.53 127,-238.3 132.87,-247.12 137.09,-241.53"/>
<text text-anchor="middle" x="214" y="-271.3" font-family="Times New Roman,serif" font-size="14.00">true</text>
</g>
<!-- j3234296588&#45;&gt;j2222912899 -->
<g id="edge44" class="edge">
<title>j3234296588&#45;&gt;j2222912899</title>
<path fill="none" stroke="brown" d="M273.71,-327.6C265.55,-307.45 249.4,-274.63 225,-256 218.23,-250.83 204.47,-245.51 188.55,-240.6"/>
<polygon fill="brown" stroke="brown" points="189.86,-237.34 179.27,-237.86 187.88,-244.05 189.86,-237.34"/>
<text text-anchor="middle" x="269" y="-271.3" font-family="Times New Roman,serif" font-size="14.00">false</text>
</g>
<!-- j169345340 -->
<g id="node37" class="node">
<title>j169345340</title>
<polygon fill="none" stroke="red" points="482.5,-237 195.5,-237 195.5,-201 482.5,-201 482.5,-237"/>
<text text-anchor="middle" x="339" y="-215.3" font-family="Times New Roman,serif" font-size="14.00">Nessun problema. &lt;RETRO_EMOJI_HEART&gt;</text>
</g>
<!-- j3234296588&#45;&gt;j169345340 -->
<g id="edge43" class="edge">
<title>j3234296588&#45;&gt;j169345340</title>
<path fill="none" stroke="brown" d="M288.2,-327.62C297.98,-306.91 314.43,-272.05 325.96,-247.63"/>
<polygon fill="brown" stroke="brown" points="329.12,-249.14 330.22,-238.6 322.79,-246.15 329.12,-249.14"/>
<text text-anchor="middle" x="334" y="-271.3" font-family="Times New Roman,serif" font-size="14.00">false</text>
</g>
<!-- j749071851&#45;&gt;Chat ends. -->
<g id="edge45" class="edge">
<title>j749071851&#45;&gt;Chat ends.</title>
<path fill="none" stroke="black" d="M606.4,-72.65C634.75,-61.43 670.79,-47.17 698.58,-36.18"/>
<polygon fill="black" stroke="black" points="699.76,-39.47 707.77,-32.54 697.18,-32.97 699.76,-39.47"/>
</g>
<!-- j2321025616&#45;&gt;j749071851 -->
<g id="edge46" class="edge">
<title>j2321025616&#45;&gt;j749071851</title>
<path fill="none" stroke="black" d="M560,-200.62C560,-180.53 560,-147.14 560,-122.86"/>
<polygon fill="black" stroke="black" points="563.5,-122.97 560,-112.97 556.5,-122.97 563.5,-122.97"/>
</g>
<!-- j2222912899&#45;&gt;j749071851 -->
<g id="edge47" class="edge">
<title>j2222912899&#45;&gt;j749071851</title>
<path fill="none" stroke="black" d="M157.15,-200.53C216.43,-181.7 314.47,-151.41 400,-129 419.96,-123.77 441.44,-118.62 461.99,-113.91"/>
<polygon fill="black" stroke="black" points="462.5,-117.39 471.48,-111.76 460.96,-110.56 462.5,-117.39"/>
</g>
<!-- j169345340&#45;&gt;j749071851 -->
<g id="edge48" class="edge">
<title>j169345340&#45;&gt;j749071851</title>
<path fill="none" stroke="black" d="M369.73,-200.62C408.16,-178.88 474.15,-141.56 517.43,-117.08"/>
<polygon fill="black" stroke="black" points="519.08,-120.17 526.06,-112.2 515.63,-114.07 519.08,-120.17"/>
</g>
</g>
</svg>
