<?xml version="1.0" encoding="UTF-8" standalone="no"?>
<!DOCTYPE svg PUBLIC "-//W3C//DTD SVG 1.1//EN"
 "http://www.w3.org/Graphics/SVG/1.1/DTD/svg11.dtd">
<!-- Generated by graphviz version 7.1.0 (20230121.1956)
 -->
<!-- Pages: 1 -->
<svg width="940pt" height="1480pt"
 viewBox="0.00 0.00 939.50 1480.00" xmlns="http://www.w3.org/2000/svg" xmlns:xlink="http://www.w3.org/1999/xlink">
<g id="graph0" class="graph" transform="scale(1 1) rotate(0) translate(4 1476)">
<polygon fill="white" stroke="none" points="-4,4 -4,-1476 935.5,-1476 935.5,4 -4,4"/>
<!-- AmirHack3 begins. -->
<g id="node1" class="node">
<title>AmirHack3 begins.</title>
<ellipse fill="none" stroke="orange" cx="821.5" cy="-1454" rx="80.69" ry="18"/>
<text text-anchor="middle" x="821.5" y="-1450.3" font-family="Times New Roman,serif" font-size="14.00">AmirHack3 begins.</text>
</g>
<!-- j3819971971 -->
<g id="node2" class="node">
<title>j3819971971</title>
<ellipse fill="none" stroke="orange" cx="821.5" cy="-1381" rx="109.38" ry="18"/>
<text text-anchor="middle" x="821.5" y="-1377.3" font-family="Times New Roman,serif" font-size="14.00">Check boolean AmirDating</text>
</g>
<!-- AmirHack3 begins.&#45;&gt;j3819971971 -->
<g id="edge1" class="edge">
<title>AmirHack3 begins.&#45;&gt;j3819971971</title>
<path fill="none" stroke="black" d="M821.5,-1435.81C821.5,-1428.23 821.5,-1419.1 821.5,-1410.54"/>
<polygon fill="black" stroke="black" points="825,-1410.54 821.5,-1400.54 818,-1410.54 825,-1410.54"/>
</g>
<!-- j3602539935 -->
<g id="node3" class="node">
<title>j3602539935</title>
<polygon fill="none" stroke="red" points="765.5,-1312 711.5,-1312 711.5,-1276 765.5,-1276 765.5,-1312"/>
<text text-anchor="middle" x="738.5" y="-1290.3" font-family="Times New Roman,serif" font-size="14.00">Beh...</text>
</g>
<!-- j3819971971&#45;&gt;j3602539935 -->
<g id="edge2" class="edge">
<title>j3819971971&#45;&gt;j3602539935</title>
<path fill="none" stroke="green" d="M804.7,-1362.8C792.86,-1350.67 776.79,-1334.21 763.45,-1320.55"/>
<polygon fill="green" stroke="green" points="766.1,-1318.26 756.61,-1313.55 761.1,-1323.15 766.1,-1318.26"/>
<text text-anchor="middle" x="796.5" y="-1333.8" font-family="Times New Roman,serif" font-size="14.00">true</text>
</g>
<!-- j3525329660 -->
<g id="node4" class="node">
<title>j3525329660</title>
<polygon fill="none" stroke="red" points="859,-1312 784,-1312 784,-1276 859,-1276 859,-1312"/>
<text text-anchor="middle" x="821.5" y="-1290.3" font-family="Times New Roman,serif" font-size="14.00">Quindiii....</text>
</g>
<!-- j3819971971&#45;&gt;j3525329660 -->
<g id="edge3" class="edge">
<title>j3819971971&#45;&gt;j3525329660</title>
<path fill="none" stroke="green" d="M821.5,-1362.8C821.5,-1351.58 821.5,-1336.67 821.5,-1323.69"/>
<polygon fill="green" stroke="green" points="825,-1323.98 821.5,-1313.98 818,-1323.98 825,-1323.98"/>
<text text-anchor="middle" x="832.5" y="-1333.8" font-family="Times New Roman,serif" font-size="14.00">true</text>
</g>
<!-- Chat ends. -->
<g id="node5" class="node">
<title>Chat ends.</title>
<ellipse fill="none" stroke="orange" cx="785.5" cy="-18" rx="50.09" ry="18"/>
<text text-anchor="middle" x="785.5" y="-14.3" font-family="Times New Roman,serif" font-size="14.00">Chat ends.</text>
</g>
<!-- j3819971971&#45;&gt;Chat ends. -->
<g id="edge4" class="edge">
<title>j3819971971&#45;&gt;Chat ends.</title>
<path fill="none" stroke="brown" d="M854.22,-1363.48C877.8,-1349 905.5,-1325.5 905.5,-1295 905.5,-1295 905.5,-1295 905.5,-90 905.5,-57.41 872.31,-39.46 840.84,-29.77"/>
<polygon fill="brown" stroke="brown" points="841.87,-26.42 831.3,-27.08 839.98,-33.16 841.87,-26.42"/>
<text text-anchor="middle" x="918.5" y="-706.3" font-family="Times New Roman,serif" font-size="14.00">false</text>
</g>
<!-- j3667041020 -->
<g id="node6" class="node">
<title>j3667041020</title>
<polygon fill="none" stroke="blue" points="767.5,-1239 709.5,-1239 709.5,-1203 767.5,-1203 767.5,-1239"/>
<text text-anchor="middle" x="738.5" y="-1217.3" font-family="Times New Roman,serif" font-size="14.00">LO SO</text>
</g>
<!-- j3602539935&#45;&gt;j3667041020 -->
<g id="edge5" class="edge">
<title>j3602539935&#45;&gt;j3667041020</title>
<path fill="none" stroke="black" d="M738.5,-1275.81C738.5,-1268.23 738.5,-1259.1 738.5,-1250.54"/>
<polygon fill="black" stroke="black" points="742,-1250.54 738.5,-1240.54 735,-1250.54 742,-1250.54"/>
</g>
<!-- j3525329660&#45;&gt;j3667041020 -->
<g id="edge6" class="edge">
<title>j3525329660&#45;&gt;j3667041020</title>
<path fill="none" stroke="black" d="M801.41,-1275.81C791.19,-1267.07 778.58,-1256.28 767.34,-1246.67"/>
<polygon fill="black" stroke="black" points="769.72,-1244.1 759.84,-1240.26 765.17,-1249.42 769.72,-1244.1"/>
</g>
<!-- j3478966362 -->
<g id="node7" class="node">
<title>j3478966362</title>
<polygon fill="none" stroke="red" points="581.5,-1166 47.5,-1166 47.5,-1130 581.5,-1130 581.5,-1166"/>
<text text-anchor="middle" x="314.5" y="-1144.3" font-family="Times New Roman,serif" font-size="14.00">A quanto pare *esiste* una tipologia di &quot;regalino gratuito&quot; per cui qualcuno può arrabbiarsi...</text>
</g>
<!-- j3667041020&#45;&gt;j3478966362 -->
<g id="edge7" class="edge">
<title>j3667041020&#45;&gt;j3478966362</title>
<path fill="none" stroke="black" d="M709.02,-1215.06C652.21,-1205.55 524.8,-1184.21 430.05,-1168.35"/>
<polygon fill="black" stroke="black" points="430.89,-1164.94 420.45,-1166.74 429.73,-1171.85 430.89,-1164.94"/>
</g>
<!-- j3941994029 -->
<g id="node8" class="node">
<title>j3941994029</title>
<polygon fill="none" stroke="red" points="877,-1166 600,-1166 600,-1130 877,-1130 877,-1166"/>
<text text-anchor="middle" x="738.5" y="-1144.3" font-family="Times New Roman,serif" font-size="14.00">Forse dovresti... smetterla...? Con l&#39;hacking...?</text>
</g>
<!-- j3667041020&#45;&gt;j3941994029 -->
<g id="edge8" class="edge">
<title>j3667041020&#45;&gt;j3941994029</title>
<path fill="none" stroke="black" d="M738.5,-1202.81C738.5,-1195.23 738.5,-1186.1 738.5,-1177.54"/>
<polygon fill="black" stroke="black" points="742,-1177.54 738.5,-1167.54 735,-1177.54 742,-1177.54"/>
</g>
<!-- j1349267894 -->
<g id="node9" class="node">
<title>j1349267894</title>
<polygon fill="none" stroke="blue" points="587.5,-1093 487.5,-1093 487.5,-1057 587.5,-1057 587.5,-1093"/>
<text text-anchor="middle" x="537.5" y="-1071.3" font-family="Times New Roman,serif" font-size="14.00">LO SOOOOO</text>
</g>
<!-- j3478966362&#45;&gt;j1349267894 -->
<g id="edge9" class="edge">
<title>j3478966362&#45;&gt;j1349267894</title>
<path fill="none" stroke="black" d="M369.34,-1129.54C401.8,-1119.2 443,-1106.09 476.49,-1095.42"/>
<polygon fill="black" stroke="black" points="477.16,-1098.88 485.63,-1092.51 475.04,-1092.21 477.16,-1098.88"/>
</g>
<!-- j3941994029&#45;&gt;j1349267894 -->
<g id="edge10" class="edge">
<title>j3941994029&#45;&gt;j1349267894</title>
<path fill="none" stroke="black" d="M689.07,-1129.54C661.33,-1119.74 626.51,-1107.44 597.24,-1097.1"/>
<polygon fill="black" stroke="black" points="598.76,-1093.93 588.16,-1093.9 596.43,-1100.53 598.76,-1093.93"/>
</g>
<!-- j3208658346 -->
<g id="node10" class="node">
<title>j3208658346</title>
<polygon fill="none" stroke="blue" points="747,-1020 328,-1020 328,-984 747,-984 747,-1020"/>
<text text-anchor="middle" x="537.5" y="-998.3" font-family="Times New Roman,serif" font-size="14.00">ma tesoro sono abbastanza sicuro di aver sbagliato solo di poche lettere</text>
</g>
<!-- j1349267894&#45;&gt;j3208658346 -->
<g id="edge11" class="edge">
<title>j1349267894&#45;&gt;j3208658346</title>
<path fill="none" stroke="black" d="M537.5,-1056.81C537.5,-1049.23 537.5,-1040.1 537.5,-1031.54"/>
<polygon fill="black" stroke="black" points="541,-1031.54 537.5,-1021.54 534,-1031.54 541,-1031.54"/>
</g>
<!-- j330365856 -->
<g id="node11" class="node">
<title>j330365856</title>
<polygon fill="none" stroke="blue" points="840,-947 235,-947 235,-911 840,-911 840,-947"/>
<text text-anchor="middle" x="537.5" y="-925.3" font-family="Times New Roman,serif" font-size="14.00">il problema è che gli articoli nel negozio non sono salvati in formato di testo normale nel database, giusto?</text>
</g>
<!-- j3208658346&#45;&gt;j330365856 -->
<g id="edge12" class="edge">
<title>j3208658346&#45;&gt;j330365856</title>
<path fill="none" stroke="black" d="M537.5,-983.81C537.5,-976.23 537.5,-967.1 537.5,-958.54"/>
<polygon fill="black" stroke="black" points="541,-958.54 537.5,-948.54 534,-958.54 541,-958.54"/>
</g>
<!-- j3420137340 -->
<g id="node12" class="node">
<title>j3420137340</title>
<polygon fill="none" stroke="blue" points="725.5,-874 349.5,-874 349.5,-838 725.5,-838 725.5,-874"/>
<text text-anchor="middle" x="537.5" y="-852.3" font-family="Times New Roman,serif" font-size="14.00">non è scritto tipo UnaCassaEnormediBurrod&#39;ArachidiSpaziale_1</text>
</g>
<!-- j330365856&#45;&gt;j3420137340 -->
<g id="edge13" class="edge">
<title>j330365856&#45;&gt;j3420137340</title>
<path fill="none" stroke="black" d="M537.5,-910.81C537.5,-903.23 537.5,-894.1 537.5,-885.54"/>
<polygon fill="black" stroke="black" points="541,-885.54 537.5,-875.54 534,-885.54 541,-885.54"/>
</g>
<!-- j3035206178 -->
<g id="node13" class="node">
<title>j3035206178</title>
<polygon fill="none" stroke="blue" points="742.5,-801 332.5,-801 332.5,-765 742.5,-765 742.5,-801"/>
<text text-anchor="middle" x="537.5" y="-779.3" font-family="Times New Roman,serif" font-size="14.00">quindi posso arrivarci ma potrebbe essere necessario qualche tentativo</text>
</g>
<!-- j3420137340&#45;&gt;j3035206178 -->
<g id="edge14" class="edge">
<title>j3420137340&#45;&gt;j3035206178</title>
<path fill="none" stroke="black" d="M537.5,-837.81C537.5,-830.23 537.5,-821.1 537.5,-812.54"/>
<polygon fill="black" stroke="black" points="541,-812.54 537.5,-802.54 534,-812.54 541,-812.54"/>
</g>
<!-- j4080599959 -->
<g id="node14" class="node">
<title>j4080599959</title>
<polygon fill="none" stroke="red" points="646.5,-728 230.5,-728 230.5,-692 646.5,-692 646.5,-728"/>
<text text-anchor="middle" x="438.5" y="-706.3" font-family="Times New Roman,serif" font-size="14.00">E quanti altri ordini da 500 confezioni di bustine di ketchup riceveremo?</text>
</g>
<!-- j3035206178&#45;&gt;j4080599959 -->
<g id="edge15" class="edge">
<title>j3035206178&#45;&gt;j4080599959</title>
<path fill="none" stroke="black" d="M513.28,-764.63C500.82,-755.69 485.43,-744.66 471.86,-734.92"/>
<polygon fill="black" stroke="black" points="474.21,-732.3 464.04,-729.32 470.13,-737.99 474.21,-732.3"/>
</g>
<!-- j1146887776 -->
<g id="node15" class="node">
<title>j1146887776</title>
<polygon fill="none" stroke="red" points="858.5,-728 664.5,-728 664.5,-692 858.5,-692 858.5,-728"/>
<text text-anchor="middle" x="761.5" y="-706.3" font-family="Times New Roman,serif" font-size="14.00">Pensi... davvero che sia saggio?</text>
</g>
<!-- j3035206178&#45;&gt;j1146887776 -->
<g id="edge16" class="edge">
<title>j3035206178&#45;&gt;j1146887776</title>
<path fill="none" stroke="black" d="M592.58,-764.54C623.77,-754.65 662.99,-742.23 695.78,-731.83"/>
<polygon fill="black" stroke="black" points="696.71,-735.21 705.19,-728.85 694.6,-728.53 696.71,-735.21"/>
</g>
<!-- j2187187978 -->
<g id="node16" class="node">
<title>j2187187978</title>
<polygon fill="none" stroke="blue" points="644,-655 237,-655 237,-619 644,-619 644,-655"/>
<text text-anchor="middle" x="440.5" y="-633.3" font-family="Times New Roman,serif" font-size="14.00">forse QUALCUNO... ma probabilmente non di KETCHUP... credo...</text>
</g>
<!-- j4080599959&#45;&gt;j2187187978 -->
<g id="edge17" class="edge">
<title>j4080599959&#45;&gt;j2187187978</title>
<path fill="none" stroke="black" d="M438.98,-691.81C439.2,-684.14 439.46,-674.89 439.7,-666.24"/>
<polygon fill="black" stroke="black" points="443.19,-666.64 439.98,-656.54 436.2,-666.44 443.19,-666.64"/>
</g>
<!-- j2375546031 -->
<g id="node17" class="node">
<title>j2375546031</title>
<polygon fill="none" stroke="blue" points="858.5,-655 662.5,-655 662.5,-619 858.5,-619 858.5,-655"/>
<text text-anchor="middle" x="760.5" y="-633.3" font-family="Times New Roman,serif" font-size="14.00">oh sicuramente no lmao.... ma...</text>
</g>
<!-- j1146887776&#45;&gt;j2375546031 -->
<g id="edge18" class="edge">
<title>j1146887776&#45;&gt;j2375546031</title>
<path fill="none" stroke="black" d="M761.26,-691.81C761.15,-684.23 761.02,-675.1 760.9,-666.54"/>
<polygon fill="black" stroke="black" points="764.4,-666.49 760.76,-656.54 757.4,-666.59 764.4,-666.49"/>
</g>
<!-- j1416365030 -->
<g id="node18" class="node">
<title>j1416365030</title>
<polygon fill="none" stroke="blue" points="588,-582 299,-582 299,-546 588,-546 588,-582"/>
<text text-anchor="middle" x="443.5" y="-560.3" font-family="Times New Roman,serif" font-size="14.00">sì, hai ragione, è stupido ma potrebbe finire male</text>
</g>
<!-- j2187187978&#45;&gt;j1416365030 -->
<g id="edge19" class="edge">
<title>j2187187978&#45;&gt;j1416365030</title>
<path fill="none" stroke="black" d="M441.23,-618.81C441.55,-611.14 441.94,-601.89 442.31,-593.24"/>
<polygon fill="black" stroke="black" points="445.79,-593.68 442.72,-583.54 438.8,-593.38 445.79,-593.68"/>
</g>
<!-- j2375546031&#45;&gt;j1416365030 -->
<g id="edge20" class="edge">
<title>j2375546031&#45;&gt;j1416365030</title>
<path fill="none" stroke="black" d="M682.55,-618.54C637.15,-608.37 579.74,-595.51 532.56,-584.95"/>
<polygon fill="black" stroke="black" points="533.43,-581.55 522.9,-582.78 531.9,-588.39 533.43,-581.55"/>
</g>
<!-- j815005192 -->
<g id="node19" class="node">
<title>j815005192</title>
<polygon fill="none" stroke="blue" points="622,-509 265,-509 265,-473 622,-473 622,-509"/>
<text text-anchor="middle" x="443.5" y="-487.3" font-family="Times New Roman,serif" font-size="14.00">tipo immagina se ordinassi circa 4.000 chili di API VIVEEEE</text>
</g>
<!-- j1416365030&#45;&gt;j815005192 -->
<g id="edge21" class="edge">
<title>j1416365030&#45;&gt;j815005192</title>
<path fill="none" stroke="black" d="M443.5,-545.81C443.5,-538.23 443.5,-529.1 443.5,-520.54"/>
<polygon fill="black" stroke="black" points="447,-520.54 443.5,-510.54 440,-520.54 447,-520.54"/>
</g>
<!-- j2652080437 -->
<g id="node20" class="node">
<title>j2652080437</title>
<polygon fill="none" stroke="red" points="521,-436 224,-436 224,-400 521,-400 521,-436"/>
<text text-anchor="middle" x="372.5" y="-414.3" font-family="Times New Roman,serif" font-size="14.00">Perché, è possibile *ordinare* api vive su K.O.L.?</text>
</g>
<!-- j815005192&#45;&gt;j2652080437 -->
<g id="edge22" class="edge">
<title>j815005192&#45;&gt;j2652080437</title>
<path fill="none" stroke="black" d="M426.31,-472.81C417.68,-464.18 407.06,-453.56 397.53,-444.03"/>
<polygon fill="black" stroke="black" points="400.15,-441.7 390.6,-437.1 395.2,-446.65 400.15,-441.7"/>
</g>
<!-- j3475726852 -->
<g id="node21" class="node">
<title>j3475726852</title>
<polygon fill="none" stroke="red" points="794,-436 555,-436 555,-400 794,-400 794,-436"/>
<text text-anchor="middle" x="674.5" y="-414.3" font-family="Times New Roman,serif" font-size="14.00">Oh Void, e se qualcuno fosse allergico?</text>
</g>
<!-- j815005192&#45;&gt;j3475726852 -->
<g id="edge23" class="edge">
<title>j815005192&#45;&gt;j3475726852</title>
<path fill="none" stroke="black" d="M500.3,-472.54C532.61,-462.61 573.26,-450.12 607.16,-439.7"/>
<polygon fill="black" stroke="black" points="607.94,-443.12 616.47,-436.84 605.88,-436.43 607.94,-443.12"/>
</g>
<!-- j1358938373 -->
<g id="node22" class="node">
<title>j1358938373</title>
<polygon fill="none" stroke="blue" points="709,-309 0,-309 0,-273 709,-273 709,-309"/>
<text text-anchor="middle" x="354.5" y="-287.3" font-family="Times New Roman,serif" font-size="14.00">tesoro puoi ordinare tutto su internet e non era possibile PRIMA, probabilmente l&#39;ho appena reso possibile con quello script</text>
</g>
<!-- j2652080437&#45;&gt;j1358938373 -->
<g id="edge24" class="edge">
<title>j2652080437&#45;&gt;j1358938373</title>
<path fill="none" stroke="black" d="M370,-399.62C367.06,-379.19 362.13,-344.99 358.62,-320.62"/>
<polygon fill="black" stroke="black" points="362.09,-320.13 357.2,-310.73 355.16,-321.13 362.09,-320.13"/>
</g>
<!-- j701055707 -->
<g id="node23" class="node">
<title>j701055707</title>
<polygon fill="none" stroke="blue" points="851.5,-363 579.5,-363 579.5,-327 851.5,-327 851.5,-363"/>
<text text-anchor="middle" x="715.5" y="-341.3" font-family="Times New Roman,serif" font-size="14.00">lettie sembra pronta a schiaffeggiarmi già così</text>
</g>
<!-- j3475726852&#45;&gt;j701055707 -->
<g id="edge25" class="edge">
<title>j3475726852&#45;&gt;j701055707</title>
<path fill="none" stroke="black" d="M684.42,-399.81C689.11,-391.7 694.81,-381.84 700.04,-372.78"/>
<polygon fill="black" stroke="black" points="702.94,-374.75 704.91,-364.34 696.88,-371.25 702.94,-374.75"/>
</g>
<!-- j2723079450 -->
<g id="node24" class="node">
<title>j2723079450</title>
<ellipse fill="none" stroke="orange" cx="666.5" cy="-164" rx="64.19" ry="18"/>
<text text-anchor="middle" x="666.5" y="-160.3" font-family="Times New Roman,serif" font-size="14.00">+20 Chemistry</text>
</g>
<!-- j1358938373&#45;&gt;j2723079450 -->
<g id="edge26" class="edge">
<title>j1358938373&#45;&gt;j2723079450</title>
<path fill="none" stroke="black" d="M397.88,-272.62C456.36,-249.19 560.05,-207.65 620.06,-183.6"/>
<polygon fill="black" stroke="black" points="621.35,-186.86 629.33,-179.89 618.75,-180.36 621.35,-186.86"/>
</g>
<!-- j1696645845 -->
<g id="node25" class="node">
<title>j1696645845</title>
<polygon fill="none" stroke="blue" points="861.5,-255 565.5,-255 565.5,-219 861.5,-219 861.5,-255"/>
<text text-anchor="middle" x="713.5" y="-233.3" font-family="Times New Roman,serif" font-size="14.00">okokok è stato divertente maaaa è meglio piantarla</text>
</g>
<!-- j701055707&#45;&gt;j1696645845 -->
<g id="edge27" class="edge">
<title>j701055707&#45;&gt;j1696645845</title>
<path fill="none" stroke="black" d="M715.18,-326.97C714.87,-310.76 714.41,-286.06 714.04,-266.79"/>
<polygon fill="black" stroke="black" points="717.54,-266.79 713.86,-256.85 710.55,-266.92 717.54,-266.79"/>
</g>
<!-- j1458757000 -->
<g id="node26" class="node">
<title>j1458757000</title>
<polygon fill="none" stroke="blue" points="877,-109 456,-109 456,-73 877,-73 877,-109"/>
<text text-anchor="middle" x="666.5" y="-87.3" font-family="Times New Roman,serif" font-size="14.00">grazie per aver giocato con me, tesoro, è divertente avere un complice ;3</text>
</g>
<!-- j2723079450&#45;&gt;j1458757000 -->
<g id="edge28" class="edge">
<title>j2723079450&#45;&gt;j1458757000</title>
<path fill="none" stroke="black" d="M666.5,-145.81C666.5,-138.23 666.5,-129.1 666.5,-120.54"/>
<polygon fill="black" stroke="black" points="670,-120.54 666.5,-110.54 663,-120.54 670,-120.54"/>
</g>
<!-- j1696645845&#45;&gt;j2723079450 -->
<g id="edge29" class="edge">
<title>j1696645845&#45;&gt;j2723079450</title>
<path fill="none" stroke="black" d="M702.12,-218.81C696.7,-210.62 690.08,-200.62 684.03,-191.48"/>
<polygon fill="black" stroke="black" points="687.05,-189.7 678.61,-183.29 681.21,-193.56 687.05,-189.7"/>
</g>
<!-- j1458757000&#45;&gt;Chat ends. -->
<g id="edge30" class="edge">
<title>j1458757000&#45;&gt;Chat ends.</title>
<path fill="none" stroke="black" d="M695.61,-72.63C712.18,-62.75 733.04,-50.3 750.49,-39.89"/>
<polygon fill="black" stroke="black" points="752.22,-42.93 759.02,-34.8 748.64,-36.92 752.22,-42.93"/>
</g>
</g>
</svg>
