<?xml version="1.0" encoding="UTF-8" standalone="no"?>
<!DOCTYPE svg PUBLIC "-//W3C//DTD SVG 1.1//EN"
 "http://www.w3.org/Graphics/SVG/1.1/DTD/svg11.dtd">
<!-- Generated by graphviz version 7.1.0 (20230121.1956)
 -->
<!-- Pages: 1 -->
<svg width="2259pt" height="1700pt"
 viewBox="0.00 0.00 2258.50 1700.00" xmlns="http://www.w3.org/2000/svg" xmlns:xlink="http://www.w3.org/1999/xlink">
<g id="graph0" class="graph" transform="scale(1 1) rotate(0) translate(4 1696)">
<polygon fill="white" stroke="none" points="-4,4 -4,-1696 2254.5,-1696 2254.5,4 -4,4"/>
<!-- AoiRank3Convo6 begins. -->
<g id="node1" class="node">
<title>AoiRank3Convo6 begins.</title>
<ellipse fill="none" stroke="orange" cx="439" cy="-1674" rx="104.78" ry="18"/>
<text text-anchor="middle" x="439" y="-1670.3" font-family="Times New Roman,serif" font-size="14.00">AoiRank3Convo6 begins.</text>
</g>
<!-- j499569851 -->
<g id="node2" class="node">
<title>j499569851</title>
<polygon fill="none" stroke="blue" points="577.5,-1620 300.5,-1620 300.5,-1584 577.5,-1584 577.5,-1620"/>
<text text-anchor="middle" x="439" y="-1598.3" font-family="Times New Roman,serif" font-size="14.00">&lt;RETRO_EMOJI_MUSIC2&gt; pregunta para ti</text>
</g>
<!-- AoiRank3Convo6 begins.&#45;&gt;j499569851 -->
<g id="edge1" class="edge">
<title>AoiRank3Convo6 begins.&#45;&gt;j499569851</title>
<path fill="none" stroke="black" d="M439,-1655.7C439,-1648.41 439,-1639.73 439,-1631.54"/>
<polygon fill="black" stroke="black" points="442.5,-1631.62 439,-1621.62 435.5,-1631.62 442.5,-1631.62"/>
</g>
<!-- j3026132378 -->
<g id="node3" class="node">
<title>j3026132378</title>
<polygon fill="none" stroke="red" points="913,-1476 627,-1476 627,-1440 913,-1440 913,-1476"/>
<text text-anchor="middle" x="770" y="-1454.3" font-family="Times New Roman,serif" font-size="14.00">&lt;RETRO_EMOJI_CHEEKY&gt; respuesta para ti</text>
</g>
<!-- j499569851&#45;&gt;j3026132378 -->
<g id="edge2" class="edge">
<title>j499569851&#45;&gt;j3026132378</title>
<path fill="none" stroke="black" d="M479.59,-1583.59C539.85,-1557.74 652.93,-1509.22 718.8,-1480.97"/>
<polygon fill="black" stroke="black" points="720.14,-1484.2 727.95,-1477.04 717.38,-1477.77 720.14,-1484.2"/>
</g>
<!-- j3756085291 -->
<g id="node4" class="node">
<title>j3756085291</title>
<polygon fill="none" stroke="red" points="473.5,-1548 404.5,-1548 404.5,-1512 473.5,-1512 473.5,-1548"/>
<text text-anchor="middle" x="439" y="-1526.3" font-family="Times New Roman,serif" font-size="14.00">Sí, ¿Aoi?</text>
</g>
<!-- j499569851&#45;&gt;j3756085291 -->
<g id="edge3" class="edge">
<title>j499569851&#45;&gt;j3756085291</title>
<path fill="none" stroke="black" d="M439,-1583.7C439,-1576.41 439,-1567.73 439,-1559.54"/>
<polygon fill="black" stroke="black" points="442.5,-1559.62 439,-1549.62 435.5,-1559.62 442.5,-1559.62"/>
</g>
<!-- j966878749 -->
<g id="node5" class="node">
<title>j966878749</title>
<polygon fill="none" stroke="red" points="283,-1332 179,-1332 179,-1296 283,-1296 283,-1332"/>
<text text-anchor="middle" x="231" y="-1310.3" font-family="Times New Roman,serif" font-size="14.00">Ahora no [Fin.]</text>
</g>
<!-- j499569851&#45;&gt;j966878749 -->
<g id="edge4" class="edge">
<title>j499569851&#45;&gt;j966878749</title>
<path fill="none" stroke="black" d="M398.3,-1583.53C357.15,-1563.66 295.04,-1527.21 262,-1476 235.75,-1435.31 230.69,-1377.61 230.26,-1343.47"/>
<polygon fill="black" stroke="black" points="233.76,-1343.55 230.28,-1333.55 226.76,-1343.54 233.76,-1343.55"/>
</g>
<!-- j1813008976 -->
<g id="node6" class="node">
<title>j1813008976</title>
<ellipse fill="none" stroke="orange" cx="635" cy="-1026" rx="64.19" ry="18"/>
<text text-anchor="middle" x="635" y="-1022.3" font-family="Times New Roman,serif" font-size="14.00">+10 Chemistry</text>
</g>
<!-- j3026132378&#45;&gt;j1813008976 -->
<g id="edge5" class="edge">
<title>j3026132378&#45;&gt;j1813008976</title>
<path fill="none" stroke="black" d="M778.91,-1439.58C791.5,-1413.3 813,-1361.62 813,-1315 813,-1315 813,-1315 813,-1169 813,-1128.55 820.96,-1110.15 794,-1080 771.71,-1055.08 737.41,-1041.85 706.36,-1034.84"/>
<polygon fill="black" stroke="black" points="707.08,-1031.42 696.58,-1032.84 705.67,-1038.28 707.08,-1031.42"/>
</g>
<!-- j3592302925 -->
<g id="node7" class="node">
<title>j3592302925</title>
<polygon fill="none" stroke="blue" points="606.5,-1476 271.5,-1476 271.5,-1440 606.5,-1440 606.5,-1476"/>
<text text-anchor="middle" x="439" y="-1454.3" font-family="Times New Roman,serif" font-size="14.00">bueno, antes que nada, ¿sabes qué es un piano? ¿tal vez?</text>
</g>
<!-- j3756085291&#45;&gt;j3592302925 -->
<g id="edge6" class="edge">
<title>j3756085291&#45;&gt;j3592302925</title>
<path fill="none" stroke="black" d="M439,-1511.7C439,-1504.41 439,-1495.73 439,-1487.54"/>
<polygon fill="black" stroke="black" points="442.5,-1487.62 439,-1477.62 435.5,-1487.62 442.5,-1487.62"/>
</g>
<!-- Chat ends. -->
<g id="node8" class="node">
<title>Chat ends.</title>
<ellipse fill="none" stroke="orange" cx="672" cy="-18" rx="50.09" ry="18"/>
<text text-anchor="middle" x="672" y="-14.3" font-family="Times New Roman,serif" font-size="14.00">Chat ends.</text>
</g>
<!-- j966878749&#45;&gt;Chat ends. -->
<g id="edge7" class="edge">
<title>j966878749&#45;&gt;Chat ends.</title>
<path fill="none" stroke="black" d="M178.58,-1304.58C110.43,-1290.31 0,-1254.32 0,-1171 0,-1171 0,-1171 0,-161 0,-108.4 31.11,-95.82 78,-72 169.82,-25.35 477.68,-19.2 610.33,-18.77"/>
<polygon fill="black" stroke="black" points="609.97,-22.27 619.96,-18.75 609.95,-15.27 609.97,-22.27"/>
</g>
<!-- j267572952 -->
<g id="node9" class="node">
<title>j267572952</title>
<polygon fill="none" stroke="blue" points="935.5,-972 334.5,-972 334.5,-936 935.5,-936 935.5,-972"/>
<text text-anchor="middle" x="635" y="-950.3" font-family="Times New Roman,serif" font-size="14.00">entonces, hay una canción por ahí que todos los que han tenido un piano saben, llamada &quot;Soul &amp; Heart&quot;</text>
</g>
<!-- j1813008976&#45;&gt;j267572952 -->
<g id="edge8" class="edge">
<title>j1813008976&#45;&gt;j267572952</title>
<path fill="none" stroke="black" d="M635,-1007.7C635,-1000.41 635,-991.73 635,-983.54"/>
<polygon fill="black" stroke="black" points="638.5,-983.62 635,-973.62 631.5,-983.62 638.5,-983.62"/>
</g>
<!-- j91812088 -->
<g id="node10" class="node">
<title>j91812088</title>
<polygon fill="none" stroke="red" points="514.5,-1404 335.5,-1404 335.5,-1368 514.5,-1368 514.5,-1404"/>
<text text-anchor="middle" x="425" y="-1382.3" font-family="Times New Roman,serif" font-size="14.00">¿Es un shawzin más pesado?</text>
</g>
<!-- j3592302925&#45;&gt;j91812088 -->
<g id="edge9" class="edge">
<title>j3592302925&#45;&gt;j91812088</title>
<path fill="none" stroke="black" d="M435.54,-1439.7C434.06,-1432.32 432.3,-1423.52 430.65,-1415.25"/>
<polygon fill="black" stroke="black" points="434.11,-1414.71 428.72,-1405.59 427.25,-1416.08 434.11,-1414.71"/>
</g>
<!-- j3766963632 -->
<g id="node11" class="node">
<title>j3766963632</title>
<polygon fill="none" stroke="red" points="757,-1404 533,-1404 533,-1368 757,-1368 757,-1404"/>
<text text-anchor="middle" x="645" y="-1382.3" font-family="Times New Roman,serif" font-size="14.00">Sí, un instrumento como mi shawzin.</text>
</g>
<!-- j3592302925&#45;&gt;j3766963632 -->
<g id="edge10" class="edge">
<title>j3592302925&#45;&gt;j3766963632</title>
<path fill="none" stroke="black" d="M490.45,-1439.52C518.58,-1429.96 553.61,-1418.05 583.21,-1408"/>
<polygon fill="black" stroke="black" points="584.07,-1411.4 592.42,-1404.87 581.82,-1404.77 584.07,-1411.4"/>
</g>
<!-- j3265552678 -->
<g id="node12" class="node">
<title>j3265552678</title>
<polygon fill="none" stroke="blue" points="938.5,-900 413.5,-900 413.5,-864 938.5,-864 938.5,-900"/>
<text text-anchor="middle" x="676" y="-878.3" font-family="Times New Roman,serif" font-size="14.00">es una canción de dos personas, con unas cuantas notas &lt;RETRO_EMOJI_GIVELOVE&gt;</text>
</g>
<!-- j267572952&#45;&gt;j3265552678 -->
<g id="edge11" class="edge">
<title>j267572952&#45;&gt;j3265552678</title>
<path fill="none" stroke="black" d="M645.13,-935.7C649.7,-927.9 655.2,-918.51 660.29,-909.83"/>
<polygon fill="black" stroke="black" points="663.18,-911.81 665.22,-901.41 657.14,-908.27 663.18,-911.81"/>
</g>
<!-- j1831167341 -->
<g id="node13" class="node">
<title>j1831167341</title>
<polygon fill="none" stroke="blue" points="772,-1332 328,-1332 328,-1296 772,-1296 772,-1332"/>
<text text-anchor="middle" x="550" y="-1310.3" font-family="Times New Roman,serif" font-size="14.00">oh, oh, ¡OH! el shawzin, ¡mis oídos lo anhelan! ¿tocarías para mí algún día?</text>
</g>
<!-- j91812088&#45;&gt;j1831167341 -->
<g id="edge12" class="edge">
<title>j91812088&#45;&gt;j1831167341</title>
<path fill="none" stroke="black" d="M456.22,-1367.52C472.3,-1358.51 492.1,-1347.42 509.36,-1337.76"/>
<polygon fill="black" stroke="black" points="510.84,-1340.94 517.86,-1333 507.42,-1334.83 510.84,-1340.94"/>
</g>
<!-- j3766963632&#45;&gt;j1831167341 -->
<g id="edge13" class="edge">
<title>j3766963632&#45;&gt;j1831167341</title>
<path fill="none" stroke="black" d="M621.52,-1367.7C609.76,-1359.03 595.33,-1348.4 582.52,-1338.96"/>
<polygon fill="black" stroke="black" points="584.89,-1336.36 574.76,-1333.24 580.74,-1341.99 584.89,-1336.36"/>
</g>
<!-- j1425308227 -->
<g id="node14" class="node">
<title>j1425308227</title>
<polygon fill="none" stroke="red" points="846,-828 670,-828 670,-792 846,-792 846,-828"/>
<text text-anchor="middle" x="758" y="-806.3" font-family="Times New Roman,serif" font-size="14.00">¿Necesitas un acompañante?</text>
</g>
<!-- j3265552678&#45;&gt;j1425308227 -->
<g id="edge14" class="edge">
<title>j3265552678&#45;&gt;j1425308227</title>
<path fill="none" stroke="black" d="M696.27,-863.7C706.13,-855.28 718.15,-845.02 728.96,-835.79"/>
<polygon fill="black" stroke="black" points="731.19,-838.48 736.53,-829.33 726.65,-833.16 731.19,-838.48"/>
</g>
<!-- j3185430797 -->
<g id="node15" class="node">
<title>j3185430797</title>
<polygon fill="none" stroke="red" points="1312,-828 1004,-828 1004,-792 1312,-792 1312,-828"/>
<text text-anchor="middle" x="1158" y="-806.3" font-family="Times New Roman,serif" font-size="14.00">¿Te estás ofreciendo a ser mi maestra, señorita Aoi?</text>
</g>
<!-- j3265552678&#45;&gt;j3185430797 -->
<g id="edge15" class="edge">
<title>j3265552678&#45;&gt;j3185430797</title>
<path fill="none" stroke="black" d="M796.39,-863.52C866.39,-853.35 954.7,-840.53 1026.52,-830.1"/>
<polygon fill="black" stroke="black" points="1027.01,-833.56 1036.4,-828.66 1026,-826.63 1027.01,-833.56"/>
</g>
<!-- j1981712436 -->
<g id="node16" class="node">
<title>j1981712436</title>
<polygon fill="none" stroke="red" points="519.5,-828 308.5,-828 308.5,-792 519.5,-792 519.5,-828"/>
<text text-anchor="middle" x="414" y="-806.3" font-family="Times New Roman,serif" font-size="14.00">No pareces ser una buena maestra.</text>
</g>
<!-- j3265552678&#45;&gt;j1981712436 -->
<g id="edge16" class="edge">
<title>j3265552678&#45;&gt;j1981712436</title>
<path fill="none" stroke="black" d="M610.56,-863.52C574.01,-853.75 528.27,-841.53 490.12,-831.34"/>
<polygon fill="black" stroke="black" points="491.08,-827.97 480.52,-828.77 489.28,-834.74 491.08,-827.97"/>
</g>
<!-- j36405767 -->
<g id="node17" class="node">
<title>j36405767</title>
<polygon fill="none" stroke="red" points="646,-1260 512,-1260 512,-1224 646,-1224 646,-1260"/>
<text text-anchor="middle" x="579" y="-1238.3" font-family="Times New Roman,serif" font-size="14.00">Prometo que lo haré.</text>
</g>
<!-- j1831167341&#45;&gt;j36405767 -->
<g id="edge17" class="edge">
<title>j1831167341&#45;&gt;j36405767</title>
<path fill="none" stroke="black" d="M557.17,-1295.7C560.29,-1288.15 564.04,-1279.12 567.53,-1270.68"/>
<polygon fill="black" stroke="black" points="570.74,-1272.08 571.33,-1261.5 564.27,-1269.4 570.74,-1272.08"/>
</g>
<!-- j1147484614 -->
<g id="node18" class="node">
<title>j1147484614</title>
<polygon fill="none" stroke="red" points="453,-1260 229,-1260 229,-1224 453,-1224 453,-1260"/>
<text text-anchor="middle" x="341" y="-1238.3" font-family="Times New Roman,serif" font-size="14.00">No puedo. La verdad nunca aprendí.</text>
</g>
<!-- j1831167341&#45;&gt;j1147484614 -->
<g id="edge18" class="edge">
<title>j1831167341&#45;&gt;j1147484614</title>
<path fill="none" stroke="black" d="M497.8,-1295.52C469.26,-1285.96 433.72,-1274.05 403.69,-1264"/>
<polygon fill="black" stroke="black" points="404.93,-1260.72 394.33,-1260.86 402.7,-1267.36 404.93,-1260.72"/>
</g>
<!-- j3272218957 -->
<g id="node19" class="node">
<title>j3272218957</title>
<polygon fill="none" stroke="blue" points="1128.5,-756 429.5,-756 429.5,-720 1128.5,-720 1128.5,-756"/>
<text text-anchor="middle" x="779" y="-734.3" font-family="Times New Roman,serif" font-size="14.00">pensé que podría ser divertido, encontrar un piano en una tienda abandonada, si tiene metal lo puedo mover con cuidado..</text>
</g>
<!-- j1425308227&#45;&gt;j3272218957 -->
<g id="edge19" class="edge">
<title>j1425308227&#45;&gt;j3272218957</title>
<path fill="none" stroke="black" d="M763.19,-791.7C765.43,-784.24 768.1,-775.32 770.61,-766.97"/>
<polygon fill="black" stroke="black" points="773.91,-768.14 773.43,-757.55 767.21,-766.13 773.91,-768.14"/>
</g>
<!-- j2093555268 -->
<g id="node20" class="node">
<title>j2093555268</title>
<polygon fill="none" stroke="blue" points="1352.5,-756 1173.5,-756 1173.5,-720 1352.5,-720 1352.5,-756"/>
<text text-anchor="middle" x="1263" y="-734.3" font-family="Times New Roman,serif" font-size="14.00">&lt;RETRO_EMOJI_WHOA&gt;</text>
</g>
<!-- j3185430797&#45;&gt;j2093555268 -->
<g id="edge20" class="edge">
<title>j3185430797&#45;&gt;j2093555268</title>
<path fill="none" stroke="black" d="M1184.23,-791.52C1197.35,-782.76 1213.43,-772.04 1227.64,-762.58"/>
<polygon fill="black" stroke="black" points="1229.47,-765.56 1235.85,-757.1 1225.59,-759.73 1229.47,-765.56"/>
</g>
<!-- j501237546 -->
<g id="node21" class="node">
<title>j501237546</title>
<polygon fill="none" stroke="blue" points="411.5,-756 28.5,-756 28.5,-720 411.5,-720 411.5,-756"/>
<text text-anchor="middle" x="220" y="-734.3" font-family="Times New Roman,serif" font-size="14.00">tal vez pueda enseñarte a no ser tan patán. olvídalo, te lo perdiste.</text>
</g>
<!-- j1981712436&#45;&gt;j501237546 -->
<g id="edge21" class="edge">
<title>j1981712436&#45;&gt;j501237546</title>
<path fill="none" stroke="black" d="M365.55,-791.52C339.29,-782.04 306.64,-770.26 278.92,-760.26"/>
<polygon fill="black" stroke="black" points="280.19,-757 269.6,-756.9 277.81,-763.58 280.19,-757"/>
</g>
<!-- j3042673119 -->
<g id="node22" class="node">
<title>j3042673119</title>
<ellipse fill="none" stroke="orange" cx="589" cy="-1170" rx="161.37" ry="18"/>
<text text-anchor="middle" x="589" y="-1166.3" font-family="Times New Roman,serif" font-size="14.00">Boolean AoiShawzinPromise is now true.</text>
</g>
<!-- j36405767&#45;&gt;j3042673119 -->
<g id="edge22" class="edge">
<title>j36405767&#45;&gt;j3042673119</title>
<path fill="none" stroke="black" d="M581.47,-1223.7C582.53,-1216.32 583.78,-1207.52 584.96,-1199.25"/>
<polygon fill="black" stroke="black" points="588.39,-1200 586.34,-1189.6 581.46,-1199.01 588.39,-1200"/>
</g>
<!-- j3912343847 -->
<g id="node23" class="node">
<title>j3912343847</title>
<polygon fill="none" stroke="blue" points="425,-1116 193,-1116 193,-1080 425,-1080 425,-1116"/>
<text text-anchor="middle" x="309" y="-1094.3" font-family="Times New Roman,serif" font-size="14.00">oh, eso está bien, no importa. El piano</text>
</g>
<!-- j1147484614&#45;&gt;j3912343847 -->
<g id="edge23" class="edge">
<title>j1147484614&#45;&gt;j3912343847</title>
<path fill="none" stroke="black" d="M337.08,-1223.59C331.65,-1199.5 321.79,-1155.75 315.32,-1127.03"/>
<polygon fill="black" stroke="black" points="318.8,-1126.57 313.19,-1117.59 311.97,-1128.11 318.8,-1126.57"/>
</g>
<!-- j2116318365 -->
<g id="node24" class="node">
<title>j2116318365</title>
<polygon fill="none" stroke="red" points="838.5,-684 621.5,-684 621.5,-648 838.5,-648 838.5,-684"/>
<text text-anchor="middle" x="730" y="-662.3" font-family="Times New Roman,serif" font-size="14.00">¿Los pianos están hechos de metal?</text>
</g>
<!-- j3272218957&#45;&gt;j2116318365 -->
<g id="edge24" class="edge">
<title>j3272218957&#45;&gt;j2116318365</title>
<path fill="none" stroke="black" d="M766.89,-719.7C761.31,-711.73 754.57,-702.1 748.38,-693.26"/>
<polygon fill="black" stroke="black" points="751.44,-691.53 742.84,-685.34 745.71,-695.54 751.44,-691.53"/>
</g>
<!-- j228751986 -->
<g id="node25" class="node">
<title>j228751986</title>
<polygon fill="none" stroke="red" points="1020.5,-684 871.5,-684 871.5,-648 1020.5,-648 1020.5,-684"/>
<text text-anchor="middle" x="946" y="-662.3" font-family="Times New Roman,serif" font-size="14.00">¡Me encantaría ver eso!</text>
</g>
<!-- j3272218957&#45;&gt;j228751986 -->
<g id="edge25" class="edge">
<title>j3272218957&#45;&gt;j228751986</title>
<path fill="none" stroke="black" d="M820.71,-719.52C842.91,-710.21 870.42,-698.68 894.01,-688.79"/>
<polygon fill="black" stroke="black" points="895.27,-692.06 903.14,-684.97 892.56,-685.6 895.27,-692.06"/>
</g>
<!-- j528129234 -->
<g id="node26" class="node">
<title>j528129234</title>
<polygon fill="none" stroke="blue" points="1530.5,-684 1095.5,-684 1095.5,-648 1530.5,-648 1530.5,-684"/>
<text text-anchor="middle" x="1313" y="-662.3" font-family="Times New Roman,serif" font-size="14.00">Señorita Aoi reportándose para el trabajo. Primera lección: ¡clase de piano!</text>
</g>
<!-- j2093555268&#45;&gt;j528129234 -->
<g id="edge26" class="edge">
<title>j2093555268&#45;&gt;j528129234</title>
<path fill="none" stroke="black" d="M1275.36,-719.7C1281.05,-711.73 1287.93,-702.1 1294.24,-693.26"/>
<polygon fill="black" stroke="black" points="1296.94,-695.51 1299.9,-685.34 1291.24,-691.44 1296.94,-695.51"/>
</g>
<!-- j501237546&#45;&gt;Chat ends. -->
<g id="edge27" class="edge">
<title>j501237546&#45;&gt;Chat ends.</title>
<path fill="none" stroke="black" d="M163.41,-719.51C109.99,-699.05 38,-659.52 38,-595 38,-595 38,-595 38,-161 38,-44.49 450.85,-23.55 610.24,-19.81"/>
<polygon fill="black" stroke="black" points="610.29,-23.31 620.21,-19.59 610.13,-16.31 610.29,-23.31"/>
</g>
<!-- j1702720845 -->
<g id="node27" class="node">
<title>j1702720845</title>
<polygon fill="none" stroke="blue" points="784.5,-1116 443.5,-1116 443.5,-1080 784.5,-1080 784.5,-1116"/>
<text text-anchor="middle" x="614" y="-1094.3" font-family="Times New Roman,serif" font-size="14.00">¡estaré esperando eso! &lt;RETRO_EMOJI_THUMBSUP&gt;</text>
</g>
<!-- j3042673119&#45;&gt;j1702720845 -->
<g id="edge28" class="edge">
<title>j3042673119&#45;&gt;j1702720845</title>
<path fill="none" stroke="black" d="M595.18,-1151.7C597.87,-1144.15 601.1,-1135.12 604.11,-1126.68"/>
<polygon fill="black" stroke="black" points="607.31,-1128.12 607.38,-1117.53 600.72,-1125.77 607.31,-1128.12"/>
</g>
<!-- j3912343847&#45;&gt;j267572952 -->
<g id="edge29" class="edge">
<title>j3912343847&#45;&gt;j267572952</title>
<path fill="none" stroke="black" d="M348.97,-1079.59C408.32,-1053.74 519.7,-1005.22 584.57,-976.97"/>
<polygon fill="black" stroke="black" points="585.8,-980.25 593.57,-973.05 583,-973.83 585.8,-980.25"/>
</g>
<!-- j2523370798 -->
<g id="node28" class="node">
<title>j2523370798</title>
<polygon fill="none" stroke="blue" points="798,-612 470,-612 470,-576 798,-576 798,-612"/>
<text text-anchor="middle" x="634" y="-590.3" font-family="Times New Roman,serif" font-size="14.00">&lt;RETRO_EMOJI_STARE&gt; de hecho no lo sé, PERO</text>
</g>
<!-- j2116318365&#45;&gt;j2523370798 -->
<g id="edge30" class="edge">
<title>j2116318365&#45;&gt;j2523370798</title>
<path fill="none" stroke="black" d="M706.27,-647.7C694.38,-639.03 679.81,-628.4 666.86,-618.96"/>
<polygon fill="black" stroke="black" points="669.16,-616.3 659.01,-613.24 665.03,-621.96 669.16,-616.3"/>
</g>
<!-- j3939191085 -->
<g id="node29" class="node">
<title>j3939191085</title>
<polygon fill="none" stroke="blue" points="1089.5,-612 816.5,-612 816.5,-576 1089.5,-576 1089.5,-612"/>
<text text-anchor="middle" x="953" y="-590.3" font-family="Times New Roman,serif" font-size="14.00">a mi también, ¡los chichos se volverían locos!</text>
</g>
<!-- j228751986&#45;&gt;j3939191085 -->
<g id="edge31" class="edge">
<title>j228751986&#45;&gt;j3939191085</title>
<path fill="none" stroke="black" d="M947.73,-647.7C948.46,-640.41 949.33,-631.73 950.15,-623.54"/>
<polygon fill="black" stroke="black" points="953.63,-623.91 951.14,-613.61 946.66,-623.21 953.63,-623.91"/>
</g>
<!-- j3079135744 -->
<g id="node30" class="node">
<title>j3079135744</title>
<polygon fill="none" stroke="blue" points="1834.5,-540 1265.5,-540 1265.5,-504 1834.5,-504 1834.5,-540"/>
<text text-anchor="middle" x="1550" y="-518.3" font-family="Times New Roman,serif" font-size="14.00">primero: hay muchas teclas. 88 la última vez que conté. cada una hace un sonido. Do, Re, Mi, Fa...</text>
</g>
<!-- j528129234&#45;&gt;j3079135744 -->
<g id="edge32" class="edge">
<title>j528129234&#45;&gt;j3079135744</title>
<path fill="none" stroke="black" d="M1342.06,-647.59C1384.64,-622.08 1464.06,-574.49 1511.47,-546.09"/>
<polygon fill="black" stroke="black" points="1512.99,-549.25 1519.77,-541.11 1509.4,-543.25 1512.99,-549.25"/>
</g>
<!-- j1702720845&#45;&gt;j1813008976 -->
<g id="edge33" class="edge">
<title>j1702720845&#45;&gt;j1813008976</title>
<path fill="none" stroke="black" d="M619.19,-1079.7C621.43,-1072.24 624.1,-1063.32 626.61,-1054.97"/>
<polygon fill="black" stroke="black" points="629.91,-1056.14 629.43,-1045.55 623.21,-1054.13 629.91,-1056.14"/>
</g>
<!-- j2793279588 -->
<g id="node31" class="node">
<title>j2793279588</title>
<polygon fill="none" stroke="blue" points="915.5,-540 466.5,-540 466.5,-504 915.5,-504 915.5,-540"/>
<text text-anchor="middle" x="691" y="-518.3" font-family="Times New Roman,serif" font-size="14.00">en todo caso, acompañante. para una canción. podría ser divertido, ¿verdad?</text>
</g>
<!-- j2523370798&#45;&gt;j2793279588 -->
<g id="edge34" class="edge">
<title>j2523370798&#45;&gt;j2793279588</title>
<path fill="none" stroke="black" d="M648.09,-575.7C654.65,-567.64 662.59,-557.89 669.84,-548.98"/>
<polygon fill="black" stroke="black" points="672.52,-551.24 676.12,-541.28 667.09,-546.82 672.52,-551.24"/>
</g>
<!-- j3939191085&#45;&gt;j2793279588 -->
<g id="edge35" class="edge">
<title>j3939191085&#45;&gt;j2793279588</title>
<path fill="none" stroke="black" d="M887.56,-575.52C851.01,-565.75 805.27,-553.53 767.12,-543.34"/>
<polygon fill="black" stroke="black" points="768.08,-539.97 757.52,-540.77 766.28,-546.74 768.08,-539.97"/>
</g>
<!-- j3465300408 -->
<g id="node32" class="node">
<title>j3465300408</title>
<polygon fill="none" stroke="red" points="1704,-468 1396,-468 1396,-432 1704,-432 1704,-468"/>
<text text-anchor="middle" x="1550" y="-446.3" font-family="Times New Roman,serif" font-size="14.00">¿Do, Re, Mi, Fa? Esto suena al lenguaje del Vacío...</text>
</g>
<!-- j3079135744&#45;&gt;j3465300408 -->
<g id="edge36" class="edge">
<title>j3079135744&#45;&gt;j3465300408</title>
<path fill="none" stroke="black" d="M1550,-503.7C1550,-496.41 1550,-487.73 1550,-479.54"/>
<polygon fill="black" stroke="black" points="1553.5,-479.62 1550,-469.62 1546.5,-479.62 1553.5,-479.62"/>
</g>
<!-- j1389189307 -->
<g id="node33" class="node">
<title>j1389189307</title>
<polygon fill="none" stroke="red" points="2047,-468 1729,-468 1729,-432 2047,-432 2047,-468"/>
<text text-anchor="middle" x="1888" y="-446.3" font-family="Times New Roman,serif" font-size="14.00">Por favor no pongas esto en el examen, ¡señorita Aoi!</text>
</g>
<!-- j3079135744&#45;&gt;j1389189307 -->
<g id="edge37" class="edge">
<title>j3079135744&#45;&gt;j1389189307</title>
<path fill="none" stroke="black" d="M1634.42,-503.52C1682.5,-493.56 1742.89,-481.05 1792.67,-470.74"/>
<polygon fill="black" stroke="black" points="1793.21,-474.2 1802.3,-468.75 1791.79,-467.35 1793.21,-474.2"/>
</g>
<!-- j3553593448 -->
<g id="node34" class="node">
<title>j3553593448</title>
<polygon fill="none" stroke="blue" points="1051,-468 331,-468 331,-432 1051,-432 1051,-468"/>
<text text-anchor="middle" x="691" y="-446.3" font-family="Times New Roman,serif" font-size="14.00">leí una vez en una entrevista de On&#45;lyne que la música puede ser como, terapia. ¿tal vez es algo que podemos disfrutar juntos?</text>
</g>
<!-- j2793279588&#45;&gt;j3553593448 -->
<g id="edge38" class="edge">
<title>j2793279588&#45;&gt;j3553593448</title>
<path fill="none" stroke="black" d="M691,-503.7C691,-496.41 691,-487.73 691,-479.54"/>
<polygon fill="black" stroke="black" points="694.5,-479.62 691,-469.62 687.5,-479.62 694.5,-479.62"/>
</g>
<!-- j1974703021 -->
<g id="node35" class="node">
<title>j1974703021</title>
<polygon fill="none" stroke="blue" points="1812.5,-396 1287.5,-396 1287.5,-360 1812.5,-360 1812.5,-396"/>
<text text-anchor="middle" x="1550" y="-374.3" font-family="Times New Roman,serif" font-size="14.00">oh cielos, la música no debería hacerte pensar en esas cosas. no temas, solo Soul &amp; Heart.</text>
</g>
<!-- j3465300408&#45;&gt;j1974703021 -->
<g id="edge39" class="edge">
<title>j3465300408&#45;&gt;j1974703021</title>
<path fill="none" stroke="black" d="M1550,-431.7C1550,-424.41 1550,-415.73 1550,-407.54"/>
<polygon fill="black" stroke="black" points="1553.5,-407.62 1550,-397.62 1546.5,-407.62 1553.5,-407.62"/>
</g>
<!-- j2933405571 -->
<g id="node36" class="node">
<title>j2933405571</title>
<ellipse fill="none" stroke="orange" cx="1924" cy="-378" rx="64.19" ry="18"/>
<text text-anchor="middle" x="1924" y="-374.3" font-family="Times New Roman,serif" font-size="14.00">+10 Chemistry</text>
</g>
<!-- j1389189307&#45;&gt;j2933405571 -->
<g id="edge40" class="edge">
<title>j1389189307&#45;&gt;j2933405571</title>
<path fill="none" stroke="black" d="M1896.9,-431.7C1900.87,-423.98 1905.63,-414.71 1910.06,-406.11"/>
<polygon fill="black" stroke="black" points="1913.05,-407.94 1914.51,-397.45 1906.83,-404.74 1913.05,-407.94"/>
</g>
<!-- j3469839097 -->
<g id="node37" class="node">
<title>j3469839097</title>
<polygon fill="none" stroke="red" points="866.5,-396 515.5,-396 515.5,-360 866.5,-360 866.5,-396"/>
<text text-anchor="middle" x="691" y="-374.3" font-family="Times New Roman,serif" font-size="14.00">No creo poder hacer eso, pero no te detengas por mi culpa.</text>
</g>
<!-- j3553593448&#45;&gt;j3469839097 -->
<g id="edge41" class="edge">
<title>j3553593448&#45;&gt;j3469839097</title>
<path fill="none" stroke="black" d="M691,-431.7C691,-424.41 691,-415.73 691,-407.54"/>
<polygon fill="black" stroke="black" points="694.5,-407.62 691,-397.62 687.5,-407.62 694.5,-407.62"/>
</g>
<!-- j3201015295 -->
<g id="node38" class="node">
<title>j3201015295</title>
<polygon fill="none" stroke="red" points="1269,-396 885,-396 885,-360 1269,-360 1269,-396"/>
<text text-anchor="middle" x="1077" y="-374.3" font-family="Times New Roman,serif" font-size="14.00">Me encantaría eso. Sé que la música puede hacer sentir a la gente.</text>
</g>
<!-- j3553593448&#45;&gt;j3201015295 -->
<g id="edge42" class="edge">
<title>j3553593448&#45;&gt;j3201015295</title>
<path fill="none" stroke="black" d="M787.41,-431.52C842.78,-421.48 912.44,-408.84 969.57,-398.48"/>
<polygon fill="black" stroke="black" points="970.11,-401.94 979.33,-396.71 968.86,-395.05 970.11,-401.94"/>
</g>
<!-- j3025003960 -->
<g id="node39" class="node">
<title>j3025003960</title>
<polygon fill="none" stroke="red" points="497.5,-396 240.5,-396 240.5,-360 497.5,-360 497.5,-396"/>
<text text-anchor="middle" x="369" y="-374.3" font-family="Times New Roman,serif" font-size="14.00">No lo sé, pero estoy feliz de ayudarte, Aoi.</text>
</g>
<!-- j3553593448&#45;&gt;j3025003960 -->
<g id="edge43" class="edge">
<title>j3553593448&#45;&gt;j3025003960</title>
<path fill="none" stroke="black" d="M610.58,-431.52C564.96,-421.6 507.72,-409.16 460.41,-398.87"/>
<polygon fill="black" stroke="black" points="461.23,-395.47 450.71,-396.76 459.74,-402.31 461.23,-395.47"/>
</g>
<!-- j1036224007 -->
<g id="node40" class="node">
<title>j1036224007</title>
<polygon fill="none" stroke="blue" points="1639,-324 1387,-324 1387,-288 1639,-288 1639,-324"/>
<text text-anchor="middle" x="1513" y="-302.3" font-family="Times New Roman,serif" font-size="14.00">te diré que, ¡haré un plan de clases para ti!</text>
</g>
<!-- j1974703021&#45;&gt;j1036224007 -->
<g id="edge44" class="edge">
<title>j1974703021&#45;&gt;j1036224007</title>
<path fill="none" stroke="black" d="M1540.85,-359.7C1536.78,-351.98 1531.88,-342.71 1527.33,-334.11"/>
<polygon fill="black" stroke="black" points="1530.52,-332.65 1522.75,-325.44 1524.33,-335.92 1530.52,-332.65"/>
</g>
<!-- j3483759790 -->
<g id="node41" class="node">
<title>j3483759790</title>
<polygon fill="none" stroke="blue" points="2250.5,-324 1657.5,-324 1657.5,-288 2250.5,-288 2250.5,-324"/>
<text text-anchor="middle" x="1954" y="-302.3" font-family="Times New Roman,serif" font-size="14.00">mi estudiante estrella, yo, la señorita Aoi, ¡espera lo mejor! Ahora repite después de mí: Do, Re, Mi, Fa</text>
</g>
<!-- j2933405571&#45;&gt;j3483759790 -->
<g id="edge45" class="edge">
<title>j2933405571&#45;&gt;j3483759790</title>
<path fill="none" stroke="black" d="M1931.42,-359.7C1934.65,-352.15 1938.52,-343.12 1942.14,-334.68"/>
<polygon fill="black" stroke="black" points="1945.35,-336.07 1946.07,-325.5 1938.92,-333.31 1945.35,-336.07"/>
</g>
<!-- j3364256729 -->
<g id="node42" class="node">
<title>j3364256729</title>
<polygon fill="none" stroke="blue" points="953,-108 391,-108 391,-72 953,-72 953,-108"/>
<text text-anchor="middle" x="672" y="-86.3" font-family="Times New Roman,serif" font-size="14.00">oh, ya veo. lo sé, ok. no te preocupes, no hay problema, escuchemos una canción o dos, ¿luego?</text>
</g>
<!-- j3469839097&#45;&gt;j3364256729 -->
<g id="edge46" class="edge">
<title>j3469839097&#45;&gt;j3364256729</title>
<path fill="none" stroke="black" d="M689.84,-359.54C686.67,-311.76 677.81,-178.51 673.9,-119.61"/>
<polygon fill="black" stroke="black" points="677.4,-119.49 673.25,-109.74 670.42,-119.95 677.4,-119.49"/>
</g>
<!-- j1023962318 -->
<g id="node43" class="node">
<title>j1023962318</title>
<polygon fill="none" stroke="blue" points="1237.5,-324 916.5,-324 916.5,-288 1237.5,-288 1237.5,-324"/>
<text text-anchor="middle" x="1077" y="-302.3" font-family="Times New Roman,serif" font-size="14.00">¡síiiiiii! la música es la banda sonora de nuestras vidas.</text>
</g>
<!-- j3201015295&#45;&gt;j1023962318 -->
<g id="edge47" class="edge">
<title>j3201015295&#45;&gt;j1023962318</title>
<path fill="none" stroke="black" d="M1077,-359.7C1077,-352.41 1077,-343.73 1077,-335.54"/>
<polygon fill="black" stroke="black" points="1080.5,-335.62 1077,-325.62 1073.5,-335.62 1080.5,-335.62"/>
</g>
<!-- j1382589407 -->
<g id="node44" class="node">
<title>j1382589407</title>
<polygon fill="none" stroke="blue" points="671.5,-324 66.5,-324 66.5,-288 671.5,-288 671.5,-324"/>
<text text-anchor="middle" x="369" y="-302.3" font-family="Times New Roman,serif" font-size="14.00">okis, entonces haremos lo mejor que podamos ¿sí? ¡cuando quiera escuchar algo te mandaré un mensaje!</text>
</g>
<!-- j3025003960&#45;&gt;j1382589407 -->
<g id="edge48" class="edge">
<title>j3025003960&#45;&gt;j1382589407</title>
<path fill="none" stroke="black" d="M369,-359.7C369,-352.41 369,-343.73 369,-335.54"/>
<polygon fill="black" stroke="black" points="372.5,-335.62 369,-325.62 365.5,-335.62 372.5,-335.62"/>
</g>
<!-- j315361385 -->
<g id="node45" class="node">
<title>j315361385</title>
<polygon fill="none" stroke="blue" points="1740.5,-252 1285.5,-252 1285.5,-216 1740.5,-216 1740.5,-252"/>
<text text-anchor="middle" x="1513" y="-230.3" font-family="Times New Roman,serif" font-size="14.00">y encontraré la manera de hacerlo para que no te haga recordar nada aterrador.</text>
</g>
<!-- j1036224007&#45;&gt;j315361385 -->
<g id="edge49" class="edge">
<title>j1036224007&#45;&gt;j315361385</title>
<path fill="none" stroke="black" d="M1513,-287.7C1513,-280.41 1513,-271.73 1513,-263.54"/>
<polygon fill="black" stroke="black" points="1516.5,-263.62 1513,-253.62 1509.5,-263.62 1516.5,-263.62"/>
</g>
<!-- j3590250108 -->
<g id="node46" class="node">
<title>j3590250108</title>
<polygon fill="none" stroke="red" points="1878.5,-252 1777.5,-252 1777.5,-216 1878.5,-216 1878.5,-252"/>
<text text-anchor="middle" x="1828" y="-230.3" font-family="Times New Roman,serif" font-size="14.00">Do, Re, Mi, Fa</text>
</g>
<!-- j3483759790&#45;&gt;j3590250108 -->
<g id="edge50" class="edge">
<title>j3483759790&#45;&gt;j3590250108</title>
<path fill="none" stroke="black" d="M1922.53,-287.52C1906.32,-278.51 1886.36,-267.42 1868.97,-257.76"/>
<polygon fill="black" stroke="black" points="1870.83,-254.79 1860.39,-253 1867.43,-260.91 1870.83,-254.79"/>
</g>
<!-- j3253734976 -->
<g id="node47" class="node">
<title>j3253734976</title>
<polygon fill="none" stroke="red" points="2008,-252 1906,-252 1906,-216 2008,-216 2008,-252"/>
<text text-anchor="middle" x="1957" y="-230.3" font-family="Times New Roman,serif" font-size="14.00">Re, Re, Re, Re</text>
</g>
<!-- j3483759790&#45;&gt;j3253734976 -->
<g id="edge51" class="edge">
<title>j3483759790&#45;&gt;j3253734976</title>
<path fill="none" stroke="black" d="M1954.74,-287.7C1955.05,-280.41 1955.43,-271.73 1955.78,-263.54"/>
<polygon fill="black" stroke="black" points="1959.27,-263.76 1956.2,-253.62 1952.28,-263.46 1959.27,-263.76"/>
</g>
<!-- j3364256729&#45;&gt;Chat ends. -->
<g id="edge52" class="edge">
<title>j3364256729&#45;&gt;Chat ends.</title>
<path fill="none" stroke="black" d="M672,-71.7C672,-64.41 672,-55.73 672,-47.54"/>
<polygon fill="black" stroke="black" points="675.5,-47.62 672,-37.62 668.5,-47.62 675.5,-47.62"/>
</g>
<!-- j2939214010 -->
<g id="node48" class="node">
<title>j2939214010</title>
<ellipse fill="none" stroke="orange" cx="1077" cy="-234" rx="64.19" ry="18"/>
<text text-anchor="middle" x="1077" y="-230.3" font-family="Times New Roman,serif" font-size="14.00">+10 Chemistry</text>
</g>
<!-- j1023962318&#45;&gt;j2939214010 -->
<g id="edge53" class="edge">
<title>j1023962318&#45;&gt;j2939214010</title>
<path fill="none" stroke="black" d="M1077,-287.7C1077,-280.41 1077,-271.73 1077,-263.54"/>
<polygon fill="black" stroke="black" points="1080.5,-263.62 1077,-253.62 1073.5,-263.62 1080.5,-263.62"/>
</g>
<!-- j1382589407&#45;&gt;Chat ends. -->
<g id="edge54" class="edge">
<title>j1382589407&#45;&gt;Chat ends.</title>
<path fill="none" stroke="black" d="M363.62,-287.74C351.53,-245.14 327.32,-133.98 382,-72 411.47,-38.6 534.94,-26.11 610.95,-21.55"/>
<polygon fill="black" stroke="black" points="610.97,-25.05 620.75,-20.99 610.57,-18.06 610.97,-25.05"/>
</g>
<!-- j4126932492 -->
<g id="node49" class="node">
<title>j4126932492</title>
<ellipse fill="none" stroke="orange" cx="1513" cy="-162" rx="146.77" ry="18"/>
<text text-anchor="middle" x="1513" y="-158.3" font-family="Times New Roman,serif" font-size="14.00">Boolean AoiVoidTongue is now true.</text>
</g>
<!-- j315361385&#45;&gt;j4126932492 -->
<g id="edge55" class="edge">
<title>j315361385&#45;&gt;j4126932492</title>
<path fill="none" stroke="black" d="M1513,-215.7C1513,-208.41 1513,-199.73 1513,-191.54"/>
<polygon fill="black" stroke="black" points="1516.5,-191.62 1513,-181.62 1509.5,-191.62 1516.5,-191.62"/>
</g>
<!-- j2354971421 -->
<g id="node50" class="node">
<title>j2354971421</title>
<polygon fill="none" stroke="blue" points="1798.5,-180 1721.5,-180 1721.5,-144 1798.5,-144 1798.5,-180"/>
<text text-anchor="middle" x="1760" y="-158.3" font-family="Times New Roman,serif" font-size="14.00">¡10 para ti!</text>
</g>
<!-- j3590250108&#45;&gt;j2354971421 -->
<g id="edge56" class="edge">
<title>j3590250108&#45;&gt;j2354971421</title>
<path fill="none" stroke="black" d="M1811.19,-215.7C1803.12,-207.39 1793.3,-197.28 1784.42,-188.14"/>
<polygon fill="black" stroke="black" points="1787.15,-185.92 1777.67,-181.19 1782.13,-190.8 1787.15,-185.92"/>
</g>
<!-- j11008141 -->
<g id="node51" class="node">
<title>j11008141</title>
<polygon fill="none" stroke="blue" points="2054,-180 1866,-180 1866,-144 2054,-144 2054,-180"/>
<text text-anchor="middle" x="1960" y="-158.3" font-family="Times New Roman,serif" font-size="14.00">¡Cero! veme después de clase.</text>
</g>
<!-- j3253734976&#45;&gt;j11008141 -->
<g id="edge57" class="edge">
<title>j3253734976&#45;&gt;j11008141</title>
<path fill="none" stroke="black" d="M1957.74,-215.7C1958.05,-208.41 1958.43,-199.73 1958.78,-191.54"/>
<polygon fill="black" stroke="black" points="1962.27,-191.76 1959.2,-181.62 1955.28,-191.46 1962.27,-191.76"/>
</g>
<!-- j799550067 -->
<g id="node52" class="node">
<title>j799550067</title>
<polygon fill="none" stroke="blue" points="1348,-180 806,-180 806,-144 1348,-144 1348,-180"/>
<text text-anchor="middle" x="1077" y="-158.3" font-family="Times New Roman,serif" font-size="14.00">ok, hagámoslo. mientras tanto, recuerda: 88 teclas en un piano, ¡que hacen diferentes sonidos!</text>
</g>
<!-- j2939214010&#45;&gt;j799550067 -->
<g id="edge58" class="edge">
<title>j2939214010&#45;&gt;j799550067</title>
<path fill="none" stroke="black" d="M1077,-215.7C1077,-208.41 1077,-199.73 1077,-191.54"/>
<polygon fill="black" stroke="black" points="1080.5,-191.62 1077,-181.62 1073.5,-191.62 1080.5,-191.62"/>
</g>
<!-- j3621153430 -->
<g id="node53" class="node">
<title>j3621153430</title>
<ellipse fill="none" stroke="orange" cx="1119" cy="-90" rx="147.57" ry="18"/>
<text text-anchor="middle" x="1119" y="-86.3" font-family="Times New Roman,serif" font-size="14.00">Boolean AoiPianoLesson is now true.</text>
</g>
<!-- j4126932492&#45;&gt;j3621153430 -->
<g id="edge59" class="edge">
<title>j4126932492&#45;&gt;j3621153430</title>
<path fill="none" stroke="black" d="M1431.84,-146.58C1367.61,-135.17 1277.9,-119.23 1211.01,-107.35"/>
<polygon fill="black" stroke="black" points="1212,-103.97 1201.54,-105.67 1210.78,-110.86 1212,-103.97"/>
</g>
<!-- j2628313798 -->
<g id="node54" class="node">
<title>j2628313798</title>
<polygon fill="none" stroke="blue" points="1717,-108 1285,-108 1285,-72 1717,-72 1717,-108"/>
<text text-anchor="middle" x="1501" y="-86.3" font-family="Times New Roman,serif" font-size="14.00">oh, demonios, me tengo que ir, ¡retomaremos la lección en otro momento!</text>
</g>
<!-- j2354971421&#45;&gt;j2628313798 -->
<g id="edge60" class="edge">
<title>j2354971421&#45;&gt;j2628313798</title>
<path fill="none" stroke="black" d="M1721.23,-150.52C1683.13,-140.22 1623.98,-124.24 1576.57,-111.42"/>
<polygon fill="black" stroke="black" points="1577.75,-108.12 1567.18,-108.89 1575.92,-114.87 1577.75,-108.12"/>
</g>
<!-- j1039427843 -->
<g id="node55" class="node">
<title>j1039427843</title>
<polygon fill="none" stroke="blue" points="2208.5,-108 1735.5,-108 1735.5,-72 2208.5,-72 2208.5,-108"/>
<text text-anchor="middle" x="1972" y="-86.3" font-family="Times New Roman,serif" font-size="14.00">jajaja oml nunca debería ser maestra. pero hablemos sobre el piano otro día, ¿ok?</text>
</g>
<!-- j11008141&#45;&gt;j1039427843 -->
<g id="edge61" class="edge">
<title>j11008141&#45;&gt;j1039427843</title>
<path fill="none" stroke="black" d="M1962.97,-143.7C1964.23,-136.32 1965.74,-127.52 1967.16,-119.25"/>
<polygon fill="black" stroke="black" points="1970.57,-120.04 1968.81,-109.6 1963.67,-118.86 1970.57,-120.04"/>
</g>
<!-- j799550067&#45;&gt;j3621153430 -->
<g id="edge62" class="edge">
<title>j799550067&#45;&gt;j3621153430</title>
<path fill="none" stroke="black" d="M1087.38,-143.7C1092.06,-135.9 1097.69,-126.51 1102.9,-117.83"/>
<polygon fill="black" stroke="black" points="1105.81,-119.78 1107.96,-109.4 1099.81,-116.18 1105.81,-119.78"/>
</g>
<!-- j3621153430&#45;&gt;Chat ends. -->
<g id="edge63" class="edge">
<title>j3621153430&#45;&gt;Chat ends.</title>
<path fill="none" stroke="black" d="M1030.69,-75.17C941.02,-61.13 804.86,-39.81 728.69,-27.88"/>
<polygon fill="black" stroke="black" points="729.36,-24.44 718.94,-26.35 728.28,-31.36 729.36,-24.44"/>
</g>
<!-- j2628313798&#45;&gt;Chat ends. -->
<g id="edge64" class="edge">
<title>j2628313798&#45;&gt;Chat ends.</title>
<path fill="none" stroke="black" d="M1293.95,-71.52C1108.25,-55.84 847.72,-33.84 731.74,-24.04"/>
<polygon fill="black" stroke="black" points="732.08,-20.56 721.82,-23.21 731.49,-27.54 732.08,-20.56"/>
</g>
<!-- j1039427843&#45;&gt;Chat ends. -->
<g id="edge65" class="edge">
<title>j1039427843&#45;&gt;Chat ends.</title>
<path fill="none" stroke="black" d="M1735.03,-72.54C1732,-72.36 1728.99,-72.18 1726,-72 1348.47,-49.47 894.49,-28.81 732.81,-21.66"/>
<polygon fill="black" stroke="black" points="733.33,-18.18 723.19,-21.23 733.02,-25.17 733.33,-18.18"/>
</g>
</g>
</svg>
