<?xml version="1.0" encoding="UTF-8" standalone="no"?>
<!DOCTYPE svg PUBLIC "-//W3C//DTD SVG 1.1//EN"
 "http://www.w3.org/Graphics/SVG/1.1/DTD/svg11.dtd">
<!-- Generated by graphviz version 7.1.0 (20230121.1956)
 -->
<!-- Pages: 1 -->
<svg width="473pt" height="836pt"
 viewBox="0.00 0.00 473.00 836.00" xmlns="http://www.w3.org/2000/svg" xmlns:xlink="http://www.w3.org/1999/xlink">
<g id="graph0" class="graph" transform="scale(1 1) rotate(0) translate(4 832)">
<polygon fill="white" stroke="none" points="-4,4 -4,-832 469,-832 469,4 -4,4"/>
<!-- ArthurSpaghetti begins. -->
<g id="node1" class="node">
<title>ArthurSpaghetti begins.</title>
<ellipse fill="none" stroke="orange" cx="239.5" cy="-810" rx="96.38" ry="18"/>
<text text-anchor="middle" x="239.5" y="-806.3" font-family="Times New Roman,serif" font-size="14.00">ArthurSpaghetti begins.</text>
</g>
<!-- j105424346 -->
<g id="node2" class="node">
<title>j105424346</title>
<polygon fill="none" stroke="blue" points="267,-756 212,-756 212,-720 267,-720 267,-756"/>
<text text-anchor="middle" x="239.5" y="-734.3" font-family="Times New Roman,serif" font-size="14.00">Ça va?</text>
</g>
<!-- ArthurSpaghetti begins.&#45;&gt;j105424346 -->
<g id="edge1" class="edge">
<title>ArthurSpaghetti begins.&#45;&gt;j105424346</title>
<path fill="none" stroke="black" d="M239.5,-791.7C239.5,-784.41 239.5,-775.73 239.5,-767.54"/>
<polygon fill="black" stroke="black" points="243,-767.62 239.5,-757.62 236,-767.62 243,-767.62"/>
</g>
<!-- j69368596 -->
<g id="node3" class="node">
<title>j69368596</title>
<polygon fill="none" stroke="red" points="217.5,-684 65.5,-684 65.5,-648 217.5,-648 217.5,-684"/>
<text text-anchor="middle" x="141.5" y="-662.3" font-family="Times New Roman,serif" font-size="14.00">ARTHUR POURQUOI</text>
</g>
<!-- j105424346&#45;&gt;j69368596 -->
<g id="edge2" class="edge">
<title>j105424346&#45;&gt;j69368596</title>
<path fill="none" stroke="black" d="M215.02,-719.52C202.89,-710.85 188.05,-700.25 174.89,-690.85"/>
<polygon fill="black" stroke="black" points="177.07,-688.1 166.9,-685.14 173,-693.8 177.07,-688.1"/>
</g>
<!-- j4241381955 -->
<g id="node4" class="node">
<title>j4241381955</title>
<polygon fill="none" stroke="red" points="439.5,-684 235.5,-684 235.5,-648 439.5,-648 439.5,-684"/>
<text text-anchor="middle" x="337.5" y="-662.3" font-family="Times New Roman,serif" font-size="14.00">La texture... par Sol... la texture...</text>
</g>
<!-- j105424346&#45;&gt;j4241381955 -->
<g id="edge3" class="edge">
<title>j105424346&#45;&gt;j4241381955</title>
<path fill="none" stroke="black" d="M263.98,-719.52C276.11,-710.85 290.95,-700.25 304.11,-690.85"/>
<polygon fill="black" stroke="black" points="306,-693.8 312.1,-685.14 301.93,-688.1 306,-693.8"/>
</g>
<!-- j2355874263 -->
<g id="node5" class="node">
<title>j2355874263</title>
<polygon fill="none" stroke="blue" points="425,-612 54,-612 54,-576 425,-576 425,-612"/>
<text text-anchor="middle" x="239.5" y="-590.3" font-family="Times New Roman,serif" font-size="14.00">Je sais que ces spaghettis carrés ne sont pas... vraiment réussis.</text>
</g>
<!-- j69368596&#45;&gt;j2355874263 -->
<g id="edge4" class="edge">
<title>j69368596&#45;&gt;j2355874263</title>
<path fill="none" stroke="black" d="M165.98,-647.52C178.11,-638.85 192.95,-628.25 206.11,-618.85"/>
<polygon fill="black" stroke="black" points="208,-621.8 214.1,-613.14 203.93,-616.1 208,-621.8"/>
</g>
<!-- j4241381955&#45;&gt;j2355874263 -->
<g id="edge5" class="edge">
<title>j4241381955&#45;&gt;j2355874263</title>
<path fill="none" stroke="black" d="M313.02,-647.52C300.89,-638.85 286.05,-628.25 272.89,-618.85"/>
<polygon fill="black" stroke="black" points="275.07,-616.1 264.9,-613.14 271,-621.8 275.07,-616.1"/>
</g>
<!-- j877798439 -->
<g id="node6" class="node">
<title>j877798439</title>
<polygon fill="none" stroke="red" points="241,-540 18,-540 18,-504 241,-504 241,-540"/>
<text text-anchor="middle" x="129.5" y="-518.3" font-family="Times New Roman,serif" font-size="14.00">POURQUOI C&#39;EST ÉLASTIQUE?!</text>
</g>
<!-- j2355874263&#45;&gt;j877798439 -->
<g id="edge6" class="edge">
<title>j2355874263&#45;&gt;j877798439</title>
<path fill="none" stroke="black" d="M212.03,-575.52C198.14,-566.68 181.1,-555.84 166.12,-546.3"/>
<polygon fill="black" stroke="black" points="168.22,-543.49 157.9,-541.07 164.46,-549.39 168.22,-543.49"/>
</g>
<!-- j1724956911 -->
<g id="node7" class="node">
<title>j1724956911</title>
<polygon fill="none" stroke="red" points="439.5,-540 259.5,-540 259.5,-504 439.5,-504 439.5,-540"/>
<text text-anchor="middle" x="349.5" y="-518.3" font-family="Times New Roman,serif" font-size="14.00">Tu me détestes? Pourquoi...?</text>
</g>
<!-- j2355874263&#45;&gt;j1724956911 -->
<g id="edge7" class="edge">
<title>j2355874263&#45;&gt;j1724956911</title>
<path fill="none" stroke="black" d="M266.97,-575.52C280.86,-566.68 297.9,-555.84 312.88,-546.3"/>
<polygon fill="black" stroke="black" points="314.54,-549.39 321.1,-541.07 310.78,-543.49 314.54,-549.39"/>
</g>
<!-- j1993395258 -->
<g id="node8" class="node">
<title>j1993395258</title>
<polygon fill="none" stroke="blue" points="438.5,-468 40.5,-468 40.5,-432 438.5,-432 438.5,-468"/>
<text text-anchor="middle" x="239.5" y="-446.3" font-family="Times New Roman,serif" font-size="14.00">Le dosage de gélatine était mauvais. Ce sera mieux la prochaine fois.</text>
</g>
<!-- j877798439&#45;&gt;j1993395258 -->
<g id="edge8" class="edge">
<title>j877798439&#45;&gt;j1993395258</title>
<path fill="none" stroke="black" d="M156.97,-503.52C170.86,-494.68 187.9,-483.84 202.88,-474.3"/>
<polygon fill="black" stroke="black" points="204.54,-477.39 211.1,-469.07 200.78,-471.49 204.54,-477.39"/>
</g>
<!-- j1724956911&#45;&gt;j1993395258 -->
<g id="edge9" class="edge">
<title>j1724956911&#45;&gt;j1993395258</title>
<path fill="none" stroke="black" d="M322.03,-503.52C308.14,-494.68 291.1,-483.84 276.12,-474.3"/>
<polygon fill="black" stroke="black" points="278.22,-471.49 267.9,-469.07 274.46,-477.39 278.22,-471.49"/>
</g>
<!-- j4269122923 -->
<g id="node9" class="node">
<title>j4269122923</title>
<polygon fill="none" stroke="red" points="272.5,-396 32.5,-396 32.5,-360 272.5,-360 272.5,-396"/>
<text text-anchor="middle" x="152.5" y="-374.3" font-family="Times New Roman,serif" font-size="14.00">Y AURA PAS DE PROCHAINE FOIS</text>
</g>
<!-- j1993395258&#45;&gt;j4269122923 -->
<g id="edge10" class="edge">
<title>j1993395258&#45;&gt;j4269122923</title>
<path fill="none" stroke="black" d="M217.99,-431.7C207.43,-423.2 194.52,-412.81 182.97,-403.51"/>
<polygon fill="black" stroke="black" points="185.22,-400.84 175.24,-397.3 180.84,-406.29 185.22,-400.84"/>
</g>
<!-- j2431941486 -->
<g id="node10" class="node">
<title>j2431941486</title>
<polygon fill="none" stroke="red" points="364.5,-396 290.5,-396 290.5,-360 364.5,-360 364.5,-396"/>
<text text-anchor="middle" x="327.5" y="-374.3" font-family="Times New Roman,serif" font-size="14.00">Par pitié...</text>
</g>
<!-- j1993395258&#45;&gt;j2431941486 -->
<g id="edge11" class="edge">
<title>j1993395258&#45;&gt;j2431941486</title>
<path fill="none" stroke="black" d="M261.25,-431.7C271.94,-423.2 284.99,-412.81 296.68,-403.51"/>
<polygon fill="black" stroke="black" points="298.86,-406.25 304.51,-397.29 294.5,-400.78 298.86,-406.25"/>
</g>
<!-- j1917394065 -->
<g id="node11" class="node">
<title>j1917394065</title>
<polygon fill="none" stroke="blue" points="465,-324 14,-324 14,-288 465,-288 465,-324"/>
<text text-anchor="middle" x="239.5" y="-302.3" font-family="Times New Roman,serif" font-size="14.00">Je vais te faire de la soupe. Une soupe normale, pas carrée. T&#39;en penses quoi?</text>
</g>
<!-- j4269122923&#45;&gt;j1917394065 -->
<g id="edge12" class="edge">
<title>j4269122923&#45;&gt;j1917394065</title>
<path fill="none" stroke="black" d="M174.01,-359.7C184.57,-351.2 197.48,-340.81 209.03,-331.51"/>
<polygon fill="black" stroke="black" points="211.16,-334.29 216.76,-325.3 206.78,-328.84 211.16,-334.29"/>
</g>
<!-- j2431941486&#45;&gt;j1917394065 -->
<g id="edge13" class="edge">
<title>j2431941486&#45;&gt;j1917394065</title>
<path fill="none" stroke="black" d="M305.75,-359.7C295.06,-351.2 282.01,-340.81 270.32,-331.51"/>
<polygon fill="black" stroke="black" points="272.5,-328.78 262.49,-325.29 268.14,-334.25 272.5,-328.78"/>
</g>
<!-- j1119642145 -->
<g id="node12" class="node">
<title>j1119642145</title>
<polygon fill="none" stroke="red" points="226.5,-252 98.5,-252 98.5,-216 226.5,-216 226.5,-252"/>
<text text-anchor="middle" x="162.5" y="-230.3" font-family="Times New Roman,serif" font-size="14.00">PLUS DE POISON</text>
</g>
<!-- j1917394065&#45;&gt;j1119642145 -->
<g id="edge14" class="edge">
<title>j1917394065&#45;&gt;j1119642145</title>
<path fill="none" stroke="black" d="M220.47,-287.7C211.3,-279.37 200.15,-269.22 190.07,-260.07"/>
<polygon fill="black" stroke="black" points="192.46,-257.5 182.7,-253.37 187.75,-262.68 192.46,-257.5"/>
</g>
<!-- j114041581 -->
<g id="node13" class="node">
<title>j114041581</title>
<polygon fill="none" stroke="red" points="394,-252 249,-252 249,-216 394,-216 394,-252"/>
<text text-anchor="middle" x="321.5" y="-230.3" font-family="Times New Roman,serif" font-size="14.00">Juste... pas de gélatine.</text>
</g>
<!-- j1917394065&#45;&gt;j114041581 -->
<g id="edge15" class="edge">
<title>j1917394065&#45;&gt;j114041581</title>
<path fill="none" stroke="black" d="M259.77,-287.7C269.63,-279.28 281.65,-269.02 292.46,-259.79"/>
<polygon fill="black" stroke="black" points="294.69,-262.48 300.03,-253.33 290.15,-257.16 294.69,-262.48"/>
</g>
<!-- j3524785584 -->
<g id="node14" class="node">
<title>j3524785584</title>
<ellipse fill="none" stroke="orange" cx="146.5" cy="-162" rx="64.19" ry="18"/>
<text text-anchor="middle" x="146.5" y="-158.3" font-family="Times New Roman,serif" font-size="14.00">+20 Chemistry</text>
</g>
<!-- j1119642145&#45;&gt;j3524785584 -->
<g id="edge16" class="edge">
<title>j1119642145&#45;&gt;j3524785584</title>
<path fill="none" stroke="black" d="M158.54,-215.7C156.86,-208.32 154.85,-199.52 152.96,-191.25"/>
<polygon fill="black" stroke="black" points="156.39,-190.55 150.75,-181.58 149.56,-192.11 156.39,-190.55"/>
</g>
<!-- j2168158211 -->
<g id="node15" class="node">
<title>j2168158211</title>
<ellipse fill="none" stroke="orange" cx="323.5" cy="-162" rx="64.19" ry="18"/>
<text text-anchor="middle" x="323.5" y="-158.3" font-family="Times New Roman,serif" font-size="14.00">+20 Chemistry</text>
</g>
<!-- j114041581&#45;&gt;j2168158211 -->
<g id="edge17" class="edge">
<title>j114041581&#45;&gt;j2168158211</title>
<path fill="none" stroke="black" d="M321.99,-215.7C322.2,-208.41 322.45,-199.73 322.68,-191.54"/>
<polygon fill="black" stroke="black" points="326.18,-191.71 322.97,-181.62 319.18,-191.51 326.18,-191.71"/>
</g>
<!-- j2196576111 -->
<g id="node16" class="node">
<title>j2196576111</title>
<polygon fill="none" stroke="blue" points="277,-108 0,-108 0,-72 277,-72 277,-108"/>
<text text-anchor="middle" x="138.5" y="-86.3" font-family="Times New Roman,serif" font-size="14.00">Non, le poison, c&#39;est pas mon truc. Crois&#45;moi.</text>
</g>
<!-- j3524785584&#45;&gt;j2196576111 -->
<g id="edge18" class="edge">
<title>j3524785584&#45;&gt;j2196576111</title>
<path fill="none" stroke="black" d="M144.52,-143.7C143.69,-136.41 142.7,-127.73 141.76,-119.54"/>
<polygon fill="black" stroke="black" points="145.24,-119.15 140.63,-109.61 138.28,-119.94 145.24,-119.15"/>
</g>
<!-- j760973772 -->
<g id="node17" class="node">
<title>j760973772</title>
<polygon fill="none" stroke="blue" points="355.5,-108 295.5,-108 295.5,-72 355.5,-72 355.5,-108"/>
<text text-anchor="middle" x="325.5" y="-86.3" font-family="Times New Roman,serif" font-size="14.00">Promis.</text>
</g>
<!-- j2168158211&#45;&gt;j760973772 -->
<g id="edge19" class="edge">
<title>j2168158211&#45;&gt;j760973772</title>
<path fill="none" stroke="black" d="M323.99,-143.7C324.2,-136.41 324.45,-127.73 324.68,-119.54"/>
<polygon fill="black" stroke="black" points="328.18,-119.71 324.97,-109.62 321.18,-119.51 328.18,-119.71"/>
</g>
<!-- Chat ends. -->
<g id="node18" class="node">
<title>Chat ends.</title>
<ellipse fill="none" stroke="orange" cx="231.5" cy="-18" rx="50.09" ry="18"/>
<text text-anchor="middle" x="231.5" y="-14.3" font-family="Times New Roman,serif" font-size="14.00">Chat ends.</text>
</g>
<!-- j2196576111&#45;&gt;Chat ends. -->
<g id="edge20" class="edge">
<title>j2196576111&#45;&gt;Chat ends.</title>
<path fill="none" stroke="black" d="M161.49,-71.7C173.61,-62.57 188.62,-51.28 201.63,-41.48"/>
<polygon fill="black" stroke="black" points="203.59,-44.39 209.47,-35.58 199.38,-38.8 203.59,-44.39"/>
</g>
<!-- j760973772&#45;&gt;Chat ends. -->
<g id="edge21" class="edge">
<title>j760973772&#45;&gt;Chat ends.</title>
<path fill="none" stroke="black" d="M302.26,-71.7C290.01,-62.57 274.84,-51.28 261.69,-41.48"/>
<polygon fill="black" stroke="black" points="263.87,-38.74 253.76,-35.58 259.69,-44.36 263.87,-38.74"/>
</g>
</g>
</svg>
