<?xml version="1.0" encoding="UTF-8" standalone="no"?>
<!DOCTYPE svg PUBLIC "-//W3C//DTD SVG 1.1//EN"
 "http://www.w3.org/Graphics/SVG/1.1/DTD/svg11.dtd">
<!-- Generated by graphviz version 7.1.0 (20230121.1956)
 -->
<!-- Pages: 1 -->
<svg width="1206pt" height="1967pt"
 viewBox="0.00 0.00 1206.00 1967.00" xmlns="http://www.w3.org/2000/svg" xmlns:xlink="http://www.w3.org/1999/xlink">
<g id="graph0" class="graph" transform="scale(1 1) rotate(0) translate(4 1963)">
<polygon fill="white" stroke="none" points="-4,4 -4,-1963 1202,-1963 1202,4 -4,4"/>
<!-- ArthurRank4Convo1 begins. -->
<g id="node1" class="node">
<title>ArthurRank4Convo1 begins.</title>
<ellipse fill="none" stroke="orange" cx="449" cy="-1941" rx="115.08" ry="18"/>
<text text-anchor="middle" x="449" y="-1937.3" font-family="Times New Roman,serif" font-size="14.00">ArthurRank4Convo1 begins.</text>
</g>
<!-- j1282990589 -->
<g id="node2" class="node">
<title>j1282990589</title>
<polygon fill="none" stroke="blue" points="498,-1886 400,-1886 400,-1850 498,-1850 498,-1886"/>
<text text-anchor="middle" x="449" y="-1864.3" font-family="Times New Roman,serif" font-size="14.00">Эй, скиталец.</text>
</g>
<!-- ArthurRank4Convo1 begins.&#45;&gt;j1282990589 -->
<g id="edge1" class="edge">
<title>ArthurRank4Convo1 begins.&#45;&gt;j1282990589</title>
<path fill="none" stroke="black" d="M449,-1922.81C449,-1915.23 449,-1906.1 449,-1897.54"/>
<polygon fill="black" stroke="black" points="452.5,-1897.54 449,-1887.54 445.5,-1897.54 452.5,-1897.54"/>
</g>
<!-- j2539285610 -->
<g id="node3" class="node">
<title>j2539285610</title>
<polygon fill="none" stroke="blue" points="640.5,-1813 257.5,-1813 257.5,-1777 640.5,-1777 640.5,-1813"/>
<text text-anchor="middle" x="449" y="-1791.3" font-family="Times New Roman,serif" font-size="14.00">Чем ты занимаешься для хобби там, в космосе? В будущем?</text>
</g>
<!-- j1282990589&#45;&gt;j2539285610 -->
<g id="edge2" class="edge">
<title>j1282990589&#45;&gt;j2539285610</title>
<path fill="none" stroke="black" d="M449,-1849.81C449,-1842.23 449,-1833.1 449,-1824.54"/>
<polygon fill="black" stroke="black" points="452.5,-1824.54 449,-1814.54 445.5,-1824.54 452.5,-1824.54"/>
</g>
<!-- j2825914286 -->
<g id="node4" class="node">
<title>j2825914286</title>
<polygon fill="none" stroke="red" points="468.5,-1740 247.5,-1740 247.5,-1704 468.5,-1704 468.5,-1740"/>
<text text-anchor="middle" x="358" y="-1718.3" font-family="Times New Roman,serif" font-size="14.00">Что ты делаешь для развлечения?</text>
</g>
<!-- j2539285610&#45;&gt;j2825914286 -->
<g id="edge3" class="edge">
<title>j2539285610&#45;&gt;j2825914286</title>
<path fill="none" stroke="black" d="M426.97,-1776.81C415.54,-1767.9 401.39,-1756.86 388.89,-1747.1"/>
<polygon fill="black" stroke="black" points="391.37,-1744.6 381.33,-1741.21 387.07,-1750.12 391.37,-1744.6"/>
</g>
<!-- j3103286870 -->
<g id="node5" class="node">
<title>j3103286870</title>
<polygon fill="none" stroke="red" points="595,-1740 487,-1740 487,-1704 595,-1704 595,-1740"/>
<text text-anchor="middle" x="541" y="-1718.3" font-family="Times New Roman,serif" font-size="14.00">Я? Конкретно?</text>
</g>
<!-- j2539285610&#45;&gt;j3103286870 -->
<g id="edge4" class="edge">
<title>j2539285610&#45;&gt;j3103286870</title>
<path fill="none" stroke="black" d="M471.27,-1776.81C482.82,-1767.9 497.13,-1756.86 509.77,-1747.1"/>
<polygon fill="black" stroke="black" points="511.64,-1750.08 517.42,-1741.2 507.36,-1744.54 511.64,-1750.08"/>
</g>
<!-- j2378474861 -->
<g id="node6" class="node">
<title>j2378474861</title>
<polygon fill="none" stroke="blue" points="458,-1667 324,-1667 324,-1631 458,-1631 458,-1667"/>
<text text-anchor="middle" x="391" y="-1645.3" font-family="Times New Roman,serif" font-size="14.00">Я спросил первым.</text>
</g>
<!-- j2825914286&#45;&gt;j2378474861 -->
<g id="edge5" class="edge">
<title>j2825914286&#45;&gt;j2378474861</title>
<path fill="none" stroke="black" d="M365.99,-1703.81C369.68,-1695.88 374.15,-1686.26 378.28,-1677.36"/>
<polygon fill="black" stroke="black" points="381.41,-1678.94 382.45,-1668.4 375.06,-1675.99 381.41,-1678.94"/>
</g>
<!-- j2497095648 -->
<g id="node7" class="node">
<title>j2497095648</title>
<polygon fill="none" stroke="blue" points="588,-1667 480,-1667 480,-1631 588,-1631 588,-1667"/>
<text text-anchor="middle" x="534" y="-1645.3" font-family="Times New Roman,serif" font-size="14.00">Да, именно ты.</text>
</g>
<!-- j3103286870&#45;&gt;j2497095648 -->
<g id="edge6" class="edge">
<title>j3103286870&#45;&gt;j2497095648</title>
<path fill="none" stroke="black" d="M539.31,-1703.81C538.55,-1696.14 537.64,-1686.89 536.78,-1678.24"/>
<polygon fill="black" stroke="black" points="540.29,-1678.14 535.83,-1668.54 533.33,-1678.83 540.29,-1678.14"/>
</g>
<!-- j3566941466 -->
<g id="node8" class="node">
<title>j3566941466</title>
<polygon fill="none" stroke="red" points="591.5,-1594 410.5,-1594 410.5,-1558 591.5,-1558 591.5,-1594"/>
<text text-anchor="middle" x="501" y="-1572.3" font-family="Times New Roman,serif" font-size="14.00">Я...эм...не слишком много.</text>
</g>
<!-- j2378474861&#45;&gt;j3566941466 -->
<g id="edge7" class="edge">
<title>j2378474861&#45;&gt;j3566941466</title>
<path fill="none" stroke="black" d="M417.91,-1630.63C431.89,-1621.61 449.19,-1610.44 464.37,-1600.64"/>
<polygon fill="black" stroke="black" points="466.21,-1603.62 472.72,-1595.26 462.42,-1597.74 466.21,-1603.62"/>
</g>
<!-- j180673617 -->
<g id="node9" class="node">
<title>j180673617</title>
<polygon fill="none" stroke="red" points="678.5,-1594 609.5,-1594 609.5,-1558 678.5,-1558 678.5,-1594"/>
<text text-anchor="middle" x="644" y="-1572.3" font-family="Times New Roman,serif" font-size="14.00">Почему?</text>
</g>
<!-- j2378474861&#45;&gt;j180673617 -->
<g id="edge8" class="edge">
<title>j2378474861&#45;&gt;j180673617</title>
<path fill="none" stroke="black" d="M458.29,-1632.96C497.12,-1623.76 546.99,-1611.06 598.69,-1594.57"/>
<polygon fill="black" stroke="black" points="599.52,-1597.98 607.96,-1591.57 597.37,-1591.32 599.52,-1597.98"/>
</g>
<!-- j27950551 -->
<g id="node10" class="node">
<title>j27950551</title>
<polygon fill="none" stroke="red" points="392,-1594 90,-1594 90,-1558 392,-1558 392,-1594"/>
<text text-anchor="middle" x="241" y="-1572.3" font-family="Times New Roman,serif" font-size="14.00">Упс! Здесь пчела! Скоро вернусь! [Завершить]</text>
</g>
<!-- j2378474861&#45;&gt;j27950551 -->
<g id="edge9" class="edge">
<title>j2378474861&#45;&gt;j27950551</title>
<path fill="none" stroke="black" d="M354.31,-1630.63C334.33,-1621.18 309.4,-1609.38 288.01,-1599.25"/>
<polygon fill="black" stroke="black" points="289.74,-1596.2 279.2,-1595.08 286.74,-1602.52 289.74,-1596.2"/>
</g>
<!-- j2497095648&#45;&gt;j3566941466 -->
<g id="edge10" class="edge">
<title>j2497095648&#45;&gt;j3566941466</title>
<path fill="none" stroke="black" d="M526.01,-1630.81C522.32,-1622.88 517.85,-1613.26 513.72,-1604.36"/>
<polygon fill="black" stroke="black" points="516.94,-1602.99 509.55,-1595.4 510.59,-1605.94 516.94,-1602.99"/>
</g>
<!-- j2497095648&#45;&gt;j180673617 -->
<g id="edge11" class="edge">
<title>j2497095648&#45;&gt;j180673617</title>
<path fill="none" stroke="black" d="M560.91,-1630.63C574.89,-1621.61 592.19,-1610.44 607.37,-1600.64"/>
<polygon fill="black" stroke="black" points="609.21,-1603.62 615.72,-1595.26 605.42,-1597.74 609.21,-1603.62"/>
</g>
<!-- j2497095648&#45;&gt;j27950551 -->
<g id="edge12" class="edge">
<title>j2497095648&#45;&gt;j27950551</title>
<path fill="none" stroke="black" d="M479.53,-1634.11C475.29,-1633.05 471.08,-1632 467,-1631 420.62,-1619.57 368.79,-1607.16 326.47,-1597.13"/>
<polygon fill="black" stroke="black" points="327.38,-1593.74 316.84,-1594.84 325.76,-1600.56 327.38,-1593.74"/>
</g>
<!-- j3798192390 -->
<g id="node11" class="node">
<title>j3798192390</title>
<ellipse fill="none" stroke="orange" cx="501" cy="-1503" rx="64.19" ry="18"/>
<text text-anchor="middle" x="501" y="-1499.3" font-family="Times New Roman,serif" font-size="14.00">+10 Chemistry</text>
</g>
<!-- j3566941466&#45;&gt;j3798192390 -->
<g id="edge13" class="edge">
<title>j3566941466&#45;&gt;j3798192390</title>
<path fill="none" stroke="black" d="M501,-1557.81C501,-1550.23 501,-1541.1 501,-1532.54"/>
<polygon fill="black" stroke="black" points="504.5,-1532.54 501,-1522.54 497.5,-1532.54 504.5,-1532.54"/>
</g>
<!-- j2062625261 -->
<g id="node12" class="node">
<title>j2062625261</title>
<ellipse fill="none" stroke="orange" cx="757" cy="-1503" rx="64.19" ry="18"/>
<text text-anchor="middle" x="757" y="-1499.3" font-family="Times New Roman,serif" font-size="14.00">+10 Chemistry</text>
</g>
<!-- j180673617&#45;&gt;j2062625261 -->
<g id="edge14" class="edge">
<title>j180673617&#45;&gt;j2062625261</title>
<path fill="none" stroke="black" d="M671.64,-1557.63C686.79,-1548.11 705.73,-1536.22 721.91,-1526.05"/>
<polygon fill="black" stroke="black" points="723.69,-1529.06 730.29,-1520.78 719.96,-1523.14 723.69,-1529.06"/>
</g>
<!-- Chat ends. -->
<g id="node13" class="node">
<title>Chat ends.</title>
<ellipse fill="none" stroke="orange" cx="184" cy="-18" rx="50.09" ry="18"/>
<text text-anchor="middle" x="184" y="-14.3" font-family="Times New Roman,serif" font-size="14.00">Chat ends.</text>
</g>
<!-- j27950551&#45;&gt;Chat ends. -->
<g id="edge15" class="edge">
<title>j27950551&#45;&gt;Chat ends.</title>
<path fill="none" stroke="black" d="M105.01,-1557.5C50.34,-1546.54 0,-1529.52 0,-1504 0,-1504 0,-1504 0,-90 0,-62.11 74.52,-40.96 128.71,-29.27"/>
<polygon fill="black" stroke="black" points="129.38,-32.71 138.45,-27.23 127.94,-25.86 129.38,-32.71"/>
</g>
<!-- j1256675683 -->
<g id="node14" class="node">
<title>j1256675683</title>
<polygon fill="none" stroke="blue" points="579.5,-1448 422.5,-1448 422.5,-1412 579.5,-1412 579.5,-1448"/>
<text text-anchor="middle" x="501" y="-1426.3" font-family="Times New Roman,serif" font-size="14.00">У каждого что&#45;то есть.</text>
</g>
<!-- j3798192390&#45;&gt;j1256675683 -->
<g id="edge16" class="edge">
<title>j3798192390&#45;&gt;j1256675683</title>
<path fill="none" stroke="black" d="M501,-1484.81C501,-1477.23 501,-1468.1 501,-1459.54"/>
<polygon fill="black" stroke="black" points="504.5,-1459.54 501,-1449.54 497.5,-1459.54 504.5,-1459.54"/>
</g>
<!-- j2639495528 -->
<g id="node15" class="node">
<title>j2639495528</title>
<polygon fill="none" stroke="blue" points="1136,-1448 598,-1448 598,-1412 1136,-1412 1136,-1448"/>
<text text-anchor="middle" x="867" y="-1426.3" font-family="Times New Roman,serif" font-size="14.00">Так подай на меня в суд за то, что я проявляю немного интереса к *тебе* на этот раз.</text>
</g>
<!-- j2062625261&#45;&gt;j2639495528 -->
<g id="edge17" class="edge">
<title>j2062625261&#45;&gt;j2639495528</title>
<path fill="none" stroke="black" d="M781.69,-1486.07C796.06,-1476.79 814.45,-1464.92 830.47,-1454.58"/>
<polygon fill="black" stroke="black" points="832.31,-1457.56 838.81,-1449.19 828.51,-1451.68 832.31,-1457.56"/>
</g>
<!-- j2791066901 -->
<g id="node16" class="node">
<title>j2791066901</title>
<polygon fill="none" stroke="red" points="1130.5,-1375 615.5,-1375 615.5,-1339 1130.5,-1339 1130.5,-1375"/>
<text text-anchor="middle" x="873" y="-1353.3" font-family="Times New Roman,serif" font-size="14.00">Ничего. Я мне приходилось много умирать. Спасибо, что напомнил. [Завершить]</text>
</g>
<!-- j1256675683&#45;&gt;j2791066901 -->
<g id="edge18" class="edge">
<title>j1256675683&#45;&gt;j2791066901</title>
<path fill="none" stroke="black" d="M579.68,-1413.79C582.83,-1413.18 585.94,-1412.59 589,-1412 648.82,-1400.53 715.76,-1387.8 769.61,-1377.58"/>
<polygon fill="black" stroke="black" points="770.24,-1381.03 779.41,-1375.72 768.93,-1374.15 770.24,-1381.03"/>
</g>
<!-- j2644532258 -->
<g id="node17" class="node">
<title>j2644532258</title>
<polygon fill="none" stroke="red" points="597,-1375 405,-1375 405,-1339 597,-1339 597,-1375"/>
<text text-anchor="middle" x="501" y="-1353.3" font-family="Times New Roman,serif" font-size="14.00">Ну... чтение. Я много читаю.</text>
</g>
<!-- j1256675683&#45;&gt;j2644532258 -->
<g id="edge19" class="edge">
<title>j1256675683&#45;&gt;j2644532258</title>
<path fill="none" stroke="black" d="M501,-1411.81C501,-1404.23 501,-1395.1 501,-1386.54"/>
<polygon fill="black" stroke="black" points="504.5,-1386.54 501,-1376.54 497.5,-1386.54 504.5,-1386.54"/>
</g>
<!-- j2639495528&#45;&gt;j2791066901 -->
<g id="edge20" class="edge">
<title>j2639495528&#45;&gt;j2791066901</title>
<path fill="none" stroke="black" d="M868.45,-1411.81C869.1,-1404.14 869.88,-1394.89 870.61,-1386.24"/>
<polygon fill="black" stroke="black" points="874.08,-1386.8 871.43,-1376.54 867.1,-1386.21 874.08,-1386.8"/>
</g>
<!-- j2639495528&#45;&gt;j2644532258 -->
<g id="edge21" class="edge">
<title>j2639495528&#45;&gt;j2644532258</title>
<path fill="none" stroke="black" d="M777,-1411.54C724.03,-1401.27 656.9,-1388.24 602.11,-1377.61"/>
<polygon fill="black" stroke="black" points="602.94,-1374.21 592.46,-1375.74 601.61,-1381.08 602.94,-1374.21"/>
</g>
<!-- j2791066901&#45;&gt;Chat ends. -->
<g id="edge22" class="edge">
<title>j2791066901&#45;&gt;Chat ends.</title>
<path fill="none" stroke="black" d="M1102.69,-1338.54C1156.25,-1328.12 1198,-1311.49 1198,-1285 1198,-1285 1198,-1285 1198,-90 1198,-42 465.34,-24.3 245.58,-20.07"/>
<polygon fill="black" stroke="black" points="245.86,-16.58 235.8,-19.89 245.73,-23.58 245.86,-16.58"/>
</g>
<!-- j1130061655 -->
<g id="node18" class="node">
<title>j1130061655</title>
<polygon fill="none" stroke="red" points="811,-1302 191,-1302 191,-1266 811,-1266 811,-1302"/>
<text text-anchor="middle" x="501" y="-1280.3" font-family="Times New Roman,serif" font-size="14.00">Истории в моей голове, были единственными вещами, которые мне разрешили оставить в Дувири.</text>
</g>
<!-- j2644532258&#45;&gt;j1130061655 -->
<g id="edge23" class="edge">
<title>j2644532258&#45;&gt;j1130061655</title>
<path fill="none" stroke="black" d="M501,-1338.81C501,-1331.23 501,-1322.1 501,-1313.54"/>
<polygon fill="black" stroke="black" points="504.5,-1313.54 501,-1303.54 497.5,-1313.54 504.5,-1313.54"/>
</g>
<!-- j654627954 -->
<g id="node19" class="node">
<title>j654627954</title>
<polygon fill="none" stroke="red" points="674.5,-1229 327.5,-1229 327.5,-1193 674.5,-1193 674.5,-1229"/>
<text text-anchor="middle" x="501" y="-1207.3" font-family="Times New Roman,serif" font-size="14.00">Все остальное исчезает, когда наступает новый виток.</text>
</g>
<!-- j1130061655&#45;&gt;j654627954 -->
<g id="edge24" class="edge">
<title>j1130061655&#45;&gt;j654627954</title>
<path fill="none" stroke="black" d="M501,-1265.81C501,-1258.23 501,-1249.1 501,-1240.54"/>
<polygon fill="black" stroke="black" points="504.5,-1240.54 501,-1230.54 497.5,-1240.54 504.5,-1240.54"/>
</g>
<!-- j1916892552 -->
<g id="node20" class="node">
<title>j1916892552</title>
<polygon fill="none" stroke="red" points="733,-1156 269,-1156 269,-1120 733,-1120 733,-1156"/>
<text text-anchor="middle" x="501" y="-1134.3" font-family="Times New Roman,serif" font-size="14.00">А на Заримане, люди на странице были моими единственными друзьями.</text>
</g>
<!-- j654627954&#45;&gt;j1916892552 -->
<g id="edge25" class="edge">
<title>j654627954&#45;&gt;j1916892552</title>
<path fill="none" stroke="black" d="M501,-1192.81C501,-1185.23 501,-1176.1 501,-1167.54"/>
<polygon fill="black" stroke="black" points="504.5,-1167.54 501,-1157.54 497.5,-1167.54 504.5,-1167.54"/>
</g>
<!-- j601255988 -->
<g id="node21" class="node">
<title>j601255988</title>
<polygon fill="none" stroke="red" points="755.5,-1083 246.5,-1083 246.5,-1047 755.5,-1047 755.5,-1083"/>
<text text-anchor="middle" x="501" y="-1061.3" font-family="Times New Roman,serif" font-size="14.00">Сейчас? Играю в игры с Ордисом. И читаю. И... все ещё остаюсь собой, правда.</text>
</g>
<!-- j1916892552&#45;&gt;j601255988 -->
<g id="edge26" class="edge">
<title>j1916892552&#45;&gt;j601255988</title>
<path fill="none" stroke="black" d="M501,-1119.81C501,-1112.23 501,-1103.1 501,-1094.54"/>
<polygon fill="black" stroke="black" points="504.5,-1094.54 501,-1084.54 497.5,-1094.54 504.5,-1094.54"/>
</g>
<!-- j394162350 -->
<g id="node22" class="node">
<title>j394162350</title>
<polygon fill="none" stroke="blue" points="546.5,-1010 455.5,-1010 455.5,-974 546.5,-974 546.5,-1010"/>
<text text-anchor="middle" x="501" y="-988.3" font-family="Times New Roman,serif" font-size="14.00">Вот дерьмо.</text>
</g>
<!-- j601255988&#45;&gt;j394162350 -->
<g id="edge27" class="edge">
<title>j601255988&#45;&gt;j394162350</title>
<path fill="none" stroke="black" d="M501,-1046.81C501,-1039.23 501,-1030.1 501,-1021.54"/>
<polygon fill="black" stroke="black" points="504.5,-1021.54 501,-1011.54 497.5,-1021.54 504.5,-1021.54"/>
</g>
<!-- j373267279 -->
<g id="node23" class="node">
<title>j373267279</title>
<polygon fill="none" stroke="blue" points="560,-937 442,-937 442,-901 560,-901 560,-937"/>
<text text-anchor="middle" x="501" y="-915.3" font-family="Times New Roman,serif" font-size="14.00">Так, эй. Слушай.</text>
</g>
<!-- j394162350&#45;&gt;j373267279 -->
<g id="edge28" class="edge">
<title>j394162350&#45;&gt;j373267279</title>
<path fill="none" stroke="black" d="M501,-973.81C501,-966.23 501,-957.1 501,-948.54"/>
<polygon fill="black" stroke="black" points="504.5,-948.54 501,-938.54 497.5,-948.54 504.5,-948.54"/>
</g>
<!-- j2553208497 -->
<g id="node24" class="node">
<title>j2553208497</title>
<polygon fill="none" stroke="blue" points="570,-864 432,-864 432,-828 570,-828 570,-864"/>
<text text-anchor="middle" x="501" y="-842.3" font-family="Times New Roman,serif" font-size="14.00">Я неплохо готовлю.</text>
</g>
<!-- j373267279&#45;&gt;j2553208497 -->
<g id="edge29" class="edge">
<title>j373267279&#45;&gt;j2553208497</title>
<path fill="none" stroke="black" d="M501,-900.81C501,-893.23 501,-884.1 501,-875.54"/>
<polygon fill="black" stroke="black" points="504.5,-875.54 501,-865.54 497.5,-875.54 504.5,-875.54"/>
</g>
<!-- j1731381790 -->
<g id="node25" class="node">
<title>j1731381790</title>
<ellipse fill="none" stroke="orange" cx="501" cy="-773" rx="126.98" ry="18"/>
<text text-anchor="middle" x="501" y="-769.3" font-family="Times New Roman,serif" font-size="14.00">Check boolean SquareSpaghetti</text>
</g>
<!-- j2553208497&#45;&gt;j1731381790 -->
<g id="edge30" class="edge">
<title>j2553208497&#45;&gt;j1731381790</title>
<path fill="none" stroke="black" d="M501,-827.81C501,-820.23 501,-811.1 501,-802.54"/>
<polygon fill="black" stroke="black" points="504.5,-802.54 501,-792.54 497.5,-802.54 504.5,-802.54"/>
</g>
<!-- j3665556487 -->
<g id="node26" class="node">
<title>j3665556487</title>
<polygon fill="none" stroke="red" points="641.5,-704 360.5,-704 360.5,-668 641.5,-668 641.5,-704"/>
<text text-anchor="middle" x="501" y="-682.3" font-family="Times New Roman,serif" font-size="14.00">ДВА СЛОВА: КВАДРАТНЫЕ СПАГЕТТИ.</text>
</g>
<!-- j1731381790&#45;&gt;j3665556487 -->
<g id="edge31" class="edge">
<title>j1731381790&#45;&gt;j3665556487</title>
<path fill="none" stroke="green" d="M501,-754.8C501,-743.58 501,-728.67 501,-715.69"/>
<polygon fill="green" stroke="green" points="504.5,-715.98 501,-705.98 497.5,-715.98 504.5,-715.98"/>
<text text-anchor="middle" x="512" y="-725.8" font-family="Times New Roman,serif" font-size="14.00">true</text>
</g>
<!-- j38902307 -->
<g id="node27" class="node">
<title>j38902307</title>
<polygon fill="none" stroke="red" points="342,-704 28,-704 28,-668 342,-668 342,-704"/>
<text text-anchor="middle" x="185" y="-682.3" font-family="Times New Roman,serif" font-size="14.00">Я знаю квадратные спагетти, Артур. Это ЛОЖЬ.</text>
</g>
<!-- j1731381790&#45;&gt;j38902307 -->
<g id="edge32" class="edge">
<title>j1731381790&#45;&gt;j38902307</title>
<path fill="none" stroke="green" d="M443.41,-756.51C392.17,-742.73 316.88,-722.48 260.77,-707.38"/>
<polygon fill="green" stroke="green" points="261.85,-704.05 251.28,-704.83 260.03,-710.81 261.85,-704.05"/>
<text text-anchor="middle" x="373" y="-725.8" font-family="Times New Roman,serif" font-size="14.00">true</text>
</g>
<!-- j1969082499 -->
<g id="node28" class="node">
<title>j1969082499</title>
<polygon fill="none" stroke="blue" points="581,-544 113,-544 113,-508 581,-508 581,-544"/>
<text text-anchor="middle" x="347" y="-522.3" font-family="Times New Roman,serif" font-size="14.00">Я пытаюсь сказать &#45; ты хочешь научиться готовить? Это отличное хобби.</text>
</g>
<!-- j1731381790&#45;&gt;j1969082499 -->
<g id="edge33" class="edge">
<title>j1731381790&#45;&gt;j1969082499</title>
<path fill="none" stroke="brown" d="M561.6,-756.72C613.86,-740.32 677.12,-710.71 651,-668 610.37,-601.57 529.13,-566.06 460.85,-547.3"/>
<polygon fill="brown" stroke="brown" points="462.04,-543.99 451.48,-544.82 460.25,-550.76 462.04,-543.99"/>
<text text-anchor="middle" x="650" y="-638.8" font-family="Times New Roman,serif" font-size="14.00">false</text>
</g>
<!-- j3046515926 -->
<g id="node29" class="node">
<title>j3046515926</title>
<polygon fill="none" stroke="blue" points="472,-617 222,-617 222,-581 472,-581 472,-617"/>
<text text-anchor="middle" x="347" y="-595.3" font-family="Times New Roman,serif" font-size="14.00">СЛУШАЙ. Я же сказал, что мне жаль!</text>
</g>
<!-- j3665556487&#45;&gt;j3046515926 -->
<g id="edge34" class="edge">
<title>j3665556487&#45;&gt;j3046515926</title>
<path fill="none" stroke="black" d="M469.46,-667.59C446,-654.64 413.77,-636.85 388.26,-622.77"/>
<polygon fill="black" stroke="black" points="390.27,-619.88 379.82,-618.11 386.88,-626.01 390.27,-619.88"/>
</g>
<!-- j38902307&#45;&gt;j3046515926 -->
<g id="edge35" class="edge">
<title>j38902307&#45;&gt;j3046515926</title>
<path fill="none" stroke="black" d="M218.17,-667.59C242.96,-654.59 277.06,-636.7 303.95,-622.59"/>
<polygon fill="black" stroke="black" points="305.3,-625.83 312.53,-618.09 302.05,-619.63 305.3,-625.83"/>
</g>
<!-- j935363022 -->
<g id="node30" class="node">
<title>j935363022</title>
<polygon fill="none" stroke="red" points="471.5,-471 222.5,-471 222.5,-435 471.5,-435 471.5,-471"/>
<text text-anchor="middle" x="347" y="-449.3" font-family="Times New Roman,serif" font-size="14.00">Ты предлагаешь мне одолжить книгу?</text>
</g>
<!-- j1969082499&#45;&gt;j935363022 -->
<g id="edge36" class="edge">
<title>j1969082499&#45;&gt;j935363022</title>
<path fill="none" stroke="black" d="M347,-507.81C347,-500.23 347,-491.1 347,-482.54"/>
<polygon fill="black" stroke="black" points="350.5,-482.54 347,-472.54 343.5,-482.54 350.5,-482.54"/>
</g>
<!-- j2588301340 -->
<g id="node31" class="node">
<title>j2588301340</title>
<polygon fill="none" stroke="red" points="217,-417 37,-417 37,-381 217,-381 217,-417"/>
<text text-anchor="middle" x="127" y="-395.3" font-family="Times New Roman,serif" font-size="14.00">Пас. Спасибо. [Завершить]</text>
</g>
<!-- j1969082499&#45;&gt;j2588301340 -->
<g id="edge37" class="edge">
<title>j1969082499&#45;&gt;j2588301340</title>
<path fill="none" stroke="black" d="M293.04,-507.56C267.86,-498.36 238.01,-485.87 213,-471 191.24,-458.06 169.27,-439.81 152.98,-425.05"/>
<polygon fill="black" stroke="black" points="155.39,-422.51 145.66,-418.3 150.64,-427.65 155.39,-422.51"/>
</g>
<!-- j3046515926&#45;&gt;j1969082499 -->
<g id="edge38" class="edge">
<title>j3046515926&#45;&gt;j1969082499</title>
<path fill="none" stroke="black" d="M347,-580.81C347,-573.23 347,-564.1 347,-555.54"/>
<polygon fill="black" stroke="black" points="350.5,-555.54 347,-545.54 343.5,-555.54 350.5,-555.54"/>
</g>
<!-- j998777329 -->
<g id="node32" class="node">
<title>j998777329</title>
<polygon fill="none" stroke="blue" points="497,-363 197,-363 197,-327 497,-327 497,-363"/>
<text text-anchor="middle" x="347" y="-341.3" font-family="Times New Roman,serif" font-size="14.00">Нет, пустая голова. Я предлагаю тебя научить.</text>
</g>
<!-- j935363022&#45;&gt;j998777329 -->
<g id="edge39" class="edge">
<title>j935363022&#45;&gt;j998777329</title>
<path fill="none" stroke="black" d="M347,-434.97C347,-418.76 347,-394.06 347,-374.79"/>
<polygon fill="black" stroke="black" points="350.5,-374.85 347,-364.85 343.5,-374.85 350.5,-374.85"/>
</g>
<!-- j2588301340&#45;&gt;Chat ends. -->
<g id="edge40" class="edge">
<title>j2588301340&#45;&gt;Chat ends.</title>
<path fill="none" stroke="black" d="M92.08,-380.65C67.15,-365.53 38,-341.01 38,-309 38,-309 38,-309 38,-90 38,-49.55 83.88,-32.14 124.2,-24.65"/>
<polygon fill="black" stroke="black" points="124.6,-28.13 133.89,-23.04 123.45,-21.23 124.6,-28.13"/>
</g>
<!-- j964528392 -->
<g id="node33" class="node">
<title>j964528392</title>
<polygon fill="none" stroke="red" points="460,-290 234,-290 234,-254 460,-254 460,-290"/>
<text text-anchor="middle" x="347" y="-268.3" font-family="Times New Roman,serif" font-size="14.00">О! Да! Мне бы это понравилось. :)</text>
</g>
<!-- j998777329&#45;&gt;j964528392 -->
<g id="edge41" class="edge">
<title>j998777329&#45;&gt;j964528392</title>
<path fill="none" stroke="black" d="M347,-326.81C347,-319.23 347,-310.1 347,-301.54"/>
<polygon fill="black" stroke="black" points="350.5,-301.54 347,-291.54 343.5,-301.54 350.5,-301.54"/>
</g>
<!-- j958451245 -->
<g id="node34" class="node">
<title>j958451245</title>
<polygon fill="none" stroke="red" points="215.5,-290 66.5,-290 66.5,-254 215.5,-254 215.5,-290"/>
<text text-anchor="middle" x="141" y="-268.3" font-family="Times New Roman,serif" font-size="14.00">Эм. Нет. Я в порядке.</text>
</g>
<!-- j998777329&#45;&gt;j958451245 -->
<g id="edge42" class="edge">
<title>j998777329&#45;&gt;j958451245</title>
<path fill="none" stroke="black" d="M296.34,-326.54C267.91,-316.74 232.22,-304.44 202.23,-294.1"/>
<polygon fill="black" stroke="black" points="203.49,-290.83 192.89,-290.89 201.21,-297.45 203.49,-290.83"/>
</g>
<!-- j3863348821 -->
<g id="node35" class="node">
<title>j3863348821</title>
<polygon fill="none" stroke="red" points="1170,-290 478,-290 478,-254 1170,-254 1170,-290"/>
<text text-anchor="middle" x="824" y="-268.3" font-family="Times New Roman,serif" font-size="14.00">Я бы с удовольствием. Но можешь надеть один из этих милых фартуков? Или... может быть, только фартук? ;)</text>
</g>
<!-- j998777329&#45;&gt;j3863348821 -->
<g id="edge43" class="edge">
<title>j998777329&#45;&gt;j3863348821</title>
<path fill="none" stroke="black" d="M464.3,-326.54C534.49,-316.09 623.74,-302.81 695.79,-292.08"/>
<polygon fill="black" stroke="black" points="695.87,-295.61 705.24,-290.68 694.84,-288.69 695.87,-295.61"/>
</g>
<!-- j68946872 -->
<g id="node36" class="node">
<title>j68946872</title>
<ellipse fill="none" stroke="orange" cx="276" cy="-199" rx="64.19" ry="18"/>
<text text-anchor="middle" x="276" y="-195.3" font-family="Times New Roman,serif" font-size="14.00">+10 Chemistry</text>
</g>
<!-- j964528392&#45;&gt;j68946872 -->
<g id="edge44" class="edge">
<title>j964528392&#45;&gt;j68946872</title>
<path fill="none" stroke="black" d="M329.81,-253.81C321.05,-245.05 310.24,-234.24 300.61,-224.61"/>
<polygon fill="black" stroke="black" points="303.16,-222.21 293.61,-217.61 298.21,-227.16 303.16,-222.21"/>
</g>
<!-- j3869401514 -->
<g id="node37" class="node">
<title>j3869401514</title>
<polygon fill="none" stroke="blue" points="224,-163 68,-163 68,-127 224,-127 224,-163"/>
<text text-anchor="middle" x="146" y="-141.3" font-family="Times New Roman,serif" font-size="14.00">Как тебе будет угодно.</text>
</g>
<!-- j958451245&#45;&gt;j3869401514 -->
<g id="edge45" class="edge">
<title>j958451245&#45;&gt;j3869401514</title>
<path fill="none" stroke="black" d="M141.7,-253.62C142.51,-233.19 143.88,-198.99 144.86,-174.62"/>
<polygon fill="black" stroke="black" points="148.35,-174.88 145.25,-164.75 141.35,-174.6 148.35,-174.88"/>
</g>
<!-- j4073830770 -->
<g id="node38" class="node">
<title>j4073830770</title>
<ellipse fill="none" stroke="orange" cx="623" cy="-199" rx="64.19" ry="18"/>
<text text-anchor="middle" x="623" y="-195.3" font-family="Times New Roman,serif" font-size="14.00">+10 Chemistry</text>
</g>
<!-- j3863348821&#45;&gt;j4073830770 -->
<g id="edge46" class="edge">
<title>j3863348821&#45;&gt;j4073830770</title>
<path fill="none" stroke="black" d="M774.57,-253.54C743.48,-242.56 703.51,-228.44 672.42,-217.46"/>
<polygon fill="black" stroke="black" points="673.85,-214.25 663.25,-214.22 671.52,-220.85 673.85,-214.25"/>
</g>
<!-- j420144388 -->
<g id="node39" class="node">
<title>j420144388</title>
<polygon fill="none" stroke="blue" points="298.5,-109 177.5,-109 177.5,-73 298.5,-73 298.5,-109"/>
<text text-anchor="middle" x="238" y="-87.3" font-family="Times New Roman,serif" font-size="14.00">Значит, это план.</text>
</g>
<!-- j68946872&#45;&gt;j420144388 -->
<g id="edge47" class="edge">
<title>j68946872&#45;&gt;j420144388</title>
<path fill="none" stroke="black" d="M269.89,-180.97C264,-164.53 254.98,-139.35 248.03,-119.97"/>
<polygon fill="black" stroke="black" points="251.4,-119 244.73,-110.77 244.81,-121.36 251.4,-119"/>
</g>
<!-- j3869401514&#45;&gt;Chat ends. -->
<g id="edge48" class="edge">
<title>j3869401514&#45;&gt;Chat ends.</title>
<path fill="none" stroke="black" d="M151.28,-126.62C157.55,-106 168.08,-71.36 175.5,-46.96"/>
<polygon fill="black" stroke="black" points="178.76,-48.27 178.32,-37.68 172.06,-46.23 178.76,-48.27"/>
</g>
<!-- j3781299630 -->
<g id="node40" class="node">
<title>j3781299630</title>
<polygon fill="none" stroke="blue" points="571.5,-109 388.5,-109 388.5,-73 571.5,-73 571.5,-109"/>
<text text-anchor="middle" x="480" y="-87.3" font-family="Times New Roman,serif" font-size="14.00">Хех. Не испытывай судьбу.</text>
</g>
<!-- j4073830770&#45;&gt;j3781299630 -->
<g id="edge49" class="edge">
<title>j4073830770&#45;&gt;j3781299630</title>
<path fill="none" stroke="black" d="M600.97,-181.67C577.28,-164.11 539.39,-136.02 512.32,-115.96"/>
<polygon fill="black" stroke="black" points="514.58,-113.27 504.46,-110.13 510.41,-118.9 514.58,-113.27"/>
</g>
<!-- j420144388&#45;&gt;Chat ends. -->
<g id="edge50" class="edge">
<title>j420144388&#45;&gt;Chat ends.</title>
<path fill="none" stroke="black" d="M224.93,-72.81C218.47,-64.32 210.54,-53.9 203.39,-44.49"/>
<polygon fill="black" stroke="black" points="206.34,-42.59 197.5,-36.74 200.76,-46.82 206.34,-42.59"/>
</g>
<!-- j3781299630&#45;&gt;Chat ends. -->
<g id="edge51" class="edge">
<title>j3781299630&#45;&gt;Chat ends.</title>
<path fill="none" stroke="black" d="M407.21,-72.54C353.96,-59.77 283.03,-42.75 235.55,-31.36"/>
<polygon fill="black" stroke="black" points="236.62,-28.02 226.08,-29.09 234.98,-34.83 236.62,-28.02"/>
</g>
</g>
</svg>
