<?xml version="1.0" encoding="UTF-8" standalone="no"?>
<!DOCTYPE svg PUBLIC "-//W3C//DTD SVG 1.1//EN"
 "http://www.w3.org/Graphics/SVG/1.1/DTD/svg11.dtd">
<!-- Generated by graphviz version 7.1.0 (20230121.1956)
 -->
<!-- Pages: 1 -->
<svg width="863pt" height="908pt"
 viewBox="0.00 0.00 862.50 908.00" xmlns="http://www.w3.org/2000/svg" xmlns:xlink="http://www.w3.org/1999/xlink">
<g id="graph0" class="graph" transform="scale(1 1) rotate(0) translate(4 904)">
<polygon fill="white" stroke="none" points="-4,4 -4,-904 858.5,-904 858.5,4 -4,4"/>
<!-- ArthurRank1Convo2 begins. -->
<g id="node1" class="node">
<title>ArthurRank1Convo2 begins.</title>
<ellipse fill="none" stroke="orange" cx="539.5" cy="-882" rx="115.08" ry="18"/>
<text text-anchor="middle" x="539.5" y="-878.3" font-family="Times New Roman,serif" font-size="14.00">ArthurRank1Convo2 begins.</text>
</g>
<!-- j2527420534 -->
<g id="node2" class="node">
<title>j2527420534</title>
<polygon fill="none" stroke="blue" points="576.5,-828 502.5,-828 502.5,-792 576.5,-792 576.5,-828"/>
<text text-anchor="middle" x="539.5" y="-806.3" font-family="Times New Roman,serif" font-size="14.00">скиталец.</text>
</g>
<!-- ArthurRank1Convo2 begins.&#45;&gt;j2527420534 -->
<g id="edge1" class="edge">
<title>ArthurRank1Convo2 begins.&#45;&gt;j2527420534</title>
<path fill="none" stroke="black" d="M539.5,-863.7C539.5,-856.41 539.5,-847.73 539.5,-839.54"/>
<polygon fill="black" stroke="black" points="543,-839.62 539.5,-829.62 536,-839.62 543,-839.62"/>
</g>
<!-- j1280279536 -->
<g id="node3" class="node">
<title>j1280279536</title>
<polygon fill="none" stroke="red" points="614.5,-756 556.5,-756 556.5,-720 614.5,-720 614.5,-756"/>
<text text-anchor="middle" x="585.5" y="-734.3" font-family="Times New Roman,serif" font-size="14.00">Артур.</text>
</g>
<!-- j2527420534&#45;&gt;j1280279536 -->
<g id="edge2" class="edge">
<title>j2527420534&#45;&gt;j1280279536</title>
<path fill="none" stroke="black" d="M550.87,-791.7C556.05,-783.81 562.3,-774.3 568.06,-765.55"/>
<polygon fill="black" stroke="black" points="570.86,-767.65 573.43,-757.37 565.01,-763.8 570.86,-767.65"/>
</g>
<!-- j3745118260 -->
<g id="node4" class="node">
<title>j3745118260</title>
<polygon fill="none" stroke="red" points="520.5,-684 434.5,-684 434.5,-648 520.5,-648 520.5,-684"/>
<text text-anchor="middle" x="477.5" y="-662.3" font-family="Times New Roman,serif" font-size="14.00">Что у тебя?</text>
</g>
<!-- j2527420534&#45;&gt;j3745118260 -->
<g id="edge3" class="edge">
<title>j2527420534&#45;&gt;j3745118260</title>
<path fill="none" stroke="black" d="M531.9,-791.59C521.34,-767.4 502.11,-723.36 489.57,-694.65"/>
<polygon fill="black" stroke="black" points="492.79,-693.26 485.58,-685.5 486.37,-696.06 492.79,-693.26"/>
</g>
<!-- j3637982682 -->
<g id="node5" class="node">
<title>j3637982682</title>
<ellipse fill="none" stroke="orange" cx="602.5" cy="-666" rx="64.19" ry="18"/>
<text text-anchor="middle" x="602.5" y="-662.3" font-family="Times New Roman,serif" font-size="14.00">+10 Chemistry</text>
</g>
<!-- j1280279536&#45;&gt;j3637982682 -->
<g id="edge4" class="edge">
<title>j1280279536&#45;&gt;j3637982682</title>
<path fill="none" stroke="black" d="M589.7,-719.7C591.49,-712.32 593.63,-703.52 595.64,-695.25"/>
<polygon fill="black" stroke="black" points="599.03,-696.12 597.99,-685.58 592.23,-694.47 599.03,-696.12"/>
</g>
<!-- j3584526183 -->
<g id="node6" class="node">
<title>j3584526183</title>
<polygon fill="none" stroke="blue" points="623.5,-540 455.5,-540 455.5,-504 623.5,-504 623.5,-540"/>
<text text-anchor="middle" x="539.5" y="-518.3" font-family="Times New Roman,serif" font-size="14.00">Что думаешь об On&#45;lyne?</text>
</g>
<!-- j3745118260&#45;&gt;j3584526183 -->
<g id="edge5" class="edge">
<title>j3745118260&#45;&gt;j3584526183</title>
<path fill="none" stroke="black" d="M485.1,-647.59C495.66,-623.4 514.89,-579.36 527.43,-550.65"/>
<polygon fill="black" stroke="black" points="530.63,-552.06 531.42,-541.5 524.21,-549.26 530.63,-552.06"/>
</g>
<!-- j3878417810 -->
<g id="node7" class="node">
<title>j3878417810</title>
<polygon fill="none" stroke="blue" points="611.5,-612 557.5,-612 557.5,-576 611.5,-576 611.5,-612"/>
<text text-anchor="middle" x="584.5" y="-590.3" font-family="Times New Roman,serif" font-size="14.00">Хех.</text>
</g>
<!-- j3637982682&#45;&gt;j3878417810 -->
<g id="edge6" class="edge">
<title>j3637982682&#45;&gt;j3878417810</title>
<path fill="none" stroke="black" d="M598.05,-647.7C596.15,-640.32 593.89,-631.52 591.76,-623.25"/>
<polygon fill="black" stroke="black" points="595.16,-622.38 589.28,-613.57 588.38,-624.13 595.16,-622.38"/>
</g>
<!-- j181337164 -->
<g id="node8" class="node">
<title>j181337164</title>
<polygon fill="none" stroke="red" points="481.5,-468 427.5,-468 427.5,-432 481.5,-432 481.5,-468"/>
<text text-anchor="middle" x="454.5" y="-446.3" font-family="Times New Roman,serif" font-size="14.00">Кто?</text>
</g>
<!-- j3584526183&#45;&gt;j181337164 -->
<g id="edge7" class="edge">
<title>j3584526183&#45;&gt;j181337164</title>
<path fill="none" stroke="black" d="M518.49,-503.7C508.17,-495.2 495.56,-484.81 484.27,-475.51"/>
<polygon fill="black" stroke="black" points="486.68,-472.96 476.73,-469.31 482.23,-478.37 486.68,-472.96"/>
</g>
<!-- j2374537844 -->
<g id="node9" class="node">
<title>j2374537844</title>
<polygon fill="none" stroke="red" points="763,-252 504,-252 504,-216 763,-216 763,-252"/>
<text text-anchor="middle" x="633.5" y="-230.3" font-family="Times New Roman,serif" font-size="14.00">У них и правда есть только одна песня?</text>
</g>
<!-- j3584526183&#45;&gt;j2374537844 -->
<g id="edge8" class="edge">
<title>j3584526183&#45;&gt;j2374537844</title>
<path fill="none" stroke="black" d="M555.17,-503.51C563.22,-493.69 572.55,-480.86 578.5,-468 610.54,-398.71 624.91,-308.92 630.48,-263.7"/>
<polygon fill="black" stroke="black" points="633.94,-264.28 631.62,-253.94 626.98,-263.47 633.94,-264.28"/>
</g>
<!-- j906900823 -->
<g id="node10" class="node">
<title>j906900823</title>
<polygon fill="none" stroke="red" points="413,-252 0,-252 0,-216 413,-216 413,-252"/>
<text text-anchor="middle" x="206.5" y="-230.3" font-family="Times New Roman,serif" font-size="14.00">Обожаю их! У нас в Дувири никогда ничего подобного не было.</text>
</g>
<!-- j3584526183&#45;&gt;j906900823 -->
<g id="edge9" class="edge">
<title>j3584526183&#45;&gt;j906900823</title>
<path fill="none" stroke="black" d="M458.96,-503.52C397.02,-486.13 313.49,-453.51 261.5,-396 227.48,-358.37 214.35,-298.76 209.4,-263.61"/>
<polygon fill="black" stroke="black" points="212.88,-263.25 208.15,-253.77 205.93,-264.13 212.88,-263.25"/>
</g>
<!-- j2285521217 -->
<g id="node11" class="node">
<title>j2285521217</title>
<polygon fill="none" stroke="red" points="485.5,-252 431.5,-252 431.5,-216 485.5,-216 485.5,-252"/>
<text text-anchor="middle" x="458.5" y="-230.3" font-family="Times New Roman,serif" font-size="14.00">Мда.</text>
</g>
<!-- j3584526183&#45;&gt;j2285521217 -->
<g id="edge10" class="edge">
<title>j3584526183&#45;&gt;j2285521217</title>
<path fill="none" stroke="black" d="M547.53,-503.52C560.22,-473.35 581.68,-409.92 563.5,-360 548.66,-319.27 514.07,-282.58 488.62,-259.65"/>
<polygon fill="black" stroke="black" points="491.02,-257.09 481.19,-253.13 486.4,-262.35 491.02,-257.09"/>
</g>
<!-- j3878417810&#45;&gt;j3584526183 -->
<g id="edge11" class="edge">
<title>j3878417810&#45;&gt;j3584526183</title>
<path fill="none" stroke="black" d="M573.38,-575.7C568.31,-567.81 562.2,-558.3 556.57,-549.55"/>
<polygon fill="black" stroke="black" points="559.67,-547.9 551.31,-541.38 553.78,-551.68 559.67,-547.9"/>
</g>
<!-- j833026510 -->
<g id="node12" class="node">
<title>j833026510</title>
<polygon fill="none" stroke="blue" points="554.5,-396 270.5,-396 270.5,-360 554.5,-360 554.5,-396"/>
<text text-anchor="middle" x="412.5" y="-374.3" font-family="Times New Roman,serif" font-size="14.00">Та группа, которая повсюду, куда ни глянь.</text>
</g>
<!-- j181337164&#45;&gt;j833026510 -->
<g id="edge12" class="edge">
<title>j181337164&#45;&gt;j833026510</title>
<path fill="none" stroke="black" d="M444.12,-431.7C439.44,-423.9 433.81,-414.51 428.6,-405.83"/>
<polygon fill="black" stroke="black" points="431.69,-404.18 423.54,-397.4 425.69,-407.78 431.69,-404.18"/>
</g>
<!-- j1846093792 -->
<g id="node13" class="node">
<title>j1846093792</title>
<ellipse fill="none" stroke="orange" cx="662.5" cy="-162" rx="64.19" ry="18"/>
<text text-anchor="middle" x="662.5" y="-158.3" font-family="Times New Roman,serif" font-size="14.00">+10 Chemistry</text>
</g>
<!-- j2374537844&#45;&gt;j1846093792 -->
<g id="edge13" class="edge">
<title>j2374537844&#45;&gt;j1846093792</title>
<path fill="none" stroke="black" d="M640.67,-215.7C643.79,-208.15 647.54,-199.12 651.03,-190.68"/>
<polygon fill="black" stroke="black" points="654.24,-192.08 654.83,-181.5 647.77,-189.4 654.24,-192.08"/>
</g>
<!-- j2207572341 -->
<g id="node14" class="node">
<title>j2207572341</title>
<polygon fill="none" stroke="blue" points="322.5,-180 90.5,-180 90.5,-144 322.5,-144 322.5,-180"/>
<text text-anchor="middle" x="206.5" y="-158.3" font-family="Times New Roman,serif" font-size="14.00">У нас явно разные вкусы в музыке.</text>
</g>
<!-- j906900823&#45;&gt;j2207572341 -->
<g id="edge14" class="edge">
<title>j906900823&#45;&gt;j2207572341</title>
<path fill="none" stroke="black" d="M206.5,-215.7C206.5,-208.41 206.5,-199.73 206.5,-191.54"/>
<polygon fill="black" stroke="black" points="210,-191.62 206.5,-181.62 203,-191.62 210,-191.62"/>
</g>
<!-- j1414876887 -->
<g id="node15" class="node">
<title>j1414876887</title>
<polygon fill="none" stroke="blue" points="512,-108 235,-108 235,-72 512,-72 512,-108"/>
<text text-anchor="middle" x="373.5" y="-86.3" font-family="Times New Roman,serif" font-size="14.00">Я просто хочу, чтобы они ПРЕКРАТИЛИ.</text>
</g>
<!-- j2285521217&#45;&gt;j1414876887 -->
<g id="edge15" class="edge">
<title>j2285521217&#45;&gt;j1414876887</title>
<path fill="none" stroke="black" d="M448.08,-215.59C433.47,-191.18 406.77,-146.58 389.6,-117.89"/>
<polygon fill="black" stroke="black" points="392.66,-116.19 384.52,-109.41 386.65,-119.79 392.66,-116.19"/>
</g>
<!-- j1364002125 -->
<g id="node16" class="node">
<title>j1364002125</title>
<polygon fill="none" stroke="red" points="469.5,-324 401.5,-324 401.5,-288 469.5,-288 469.5,-324"/>
<text text-anchor="middle" x="435.5" y="-302.3" font-family="Times New Roman,serif" font-size="14.00">Ах. Эти.</text>
</g>
<!-- j833026510&#45;&gt;j1364002125 -->
<g id="edge16" class="edge">
<title>j833026510&#45;&gt;j1364002125</title>
<path fill="none" stroke="black" d="M418.19,-359.7C420.64,-352.24 423.57,-343.32 426.31,-334.97"/>
<polygon fill="black" stroke="black" points="429.61,-336.14 429.41,-325.54 422.96,-333.95 429.61,-336.14"/>
</g>
<!-- j212880197 -->
<g id="node17" class="node">
<title>j212880197</title>
<polygon fill="none" stroke="blue" points="854.5,-108 530.5,-108 530.5,-72 854.5,-72 854.5,-108"/>
<text text-anchor="middle" x="692.5" y="-86.3" font-family="Times New Roman,serif" font-size="14.00">Точно! Я просто хочу, чтобы они ПРЕКРАТИЛИ.</text>
</g>
<!-- j1846093792&#45;&gt;j212880197 -->
<g id="edge17" class="edge">
<title>j1846093792&#45;&gt;j212880197</title>
<path fill="none" stroke="black" d="M669.92,-143.7C673.15,-136.15 677.02,-127.12 680.64,-118.68"/>
<polygon fill="black" stroke="black" points="683.85,-120.07 684.57,-109.5 677.42,-117.31 683.85,-120.07"/>
</g>
<!-- Chat ends. -->
<g id="node18" class="node">
<title>Chat ends.</title>
<ellipse fill="none" stroke="orange" cx="373.5" cy="-18" rx="50.09" ry="18"/>
<text text-anchor="middle" x="373.5" y="-14.3" font-family="Times New Roman,serif" font-size="14.00">Chat ends.</text>
</g>
<!-- j2207572341&#45;&gt;Chat ends. -->
<g id="edge18" class="edge">
<title>j2207572341&#45;&gt;Chat ends.</title>
<path fill="none" stroke="black" d="M205.5,-143.76C205.3,-124.07 208.03,-91.98 225.5,-72 247.98,-46.29 283.85,-33.05 314.64,-26.24"/>
<polygon fill="black" stroke="black" points="315.13,-29.71 324.24,-24.3 313.74,-22.85 315.13,-29.71"/>
</g>
<!-- j1414876887&#45;&gt;Chat ends. -->
<g id="edge19" class="edge">
<title>j1414876887&#45;&gt;Chat ends.</title>
<path fill="none" stroke="black" d="M373.5,-71.7C373.5,-64.41 373.5,-55.73 373.5,-47.54"/>
<polygon fill="black" stroke="black" points="377,-47.62 373.5,-37.62 370,-47.62 377,-47.62"/>
</g>
<!-- j1364002125&#45;&gt;j2374537844 -->
<g id="edge20" class="edge">
<title>j1364002125&#45;&gt;j2374537844</title>
<path fill="none" stroke="black" d="M469.99,-292.81C498.48,-282.73 539.6,-268.2 573.48,-256.22"/>
<polygon fill="black" stroke="black" points="574.51,-259.57 582.77,-252.93 572.18,-252.97 574.51,-259.57"/>
</g>
<!-- j1364002125&#45;&gt;j906900823 -->
<g id="edge21" class="edge">
<title>j1364002125&#45;&gt;j906900823</title>
<path fill="none" stroke="black" d="M401.22,-294.52C367.89,-284.33 316.33,-268.57 274.64,-255.83"/>
<polygon fill="black" stroke="black" points="275.76,-252.51 265.17,-252.93 273.71,-259.2 275.76,-252.51"/>
</g>
<!-- j1364002125&#45;&gt;j2285521217 -->
<g id="edge22" class="edge">
<title>j1364002125&#45;&gt;j2285521217</title>
<path fill="none" stroke="black" d="M441.19,-287.7C443.64,-280.24 446.57,-271.32 449.31,-262.97"/>
<polygon fill="black" stroke="black" points="452.61,-264.14 452.41,-253.54 445.96,-261.95 452.61,-264.14"/>
</g>
<!-- j212880197&#45;&gt;Chat ends. -->
<g id="edge23" class="edge">
<title>j212880197&#45;&gt;Chat ends.</title>
<path fill="none" stroke="black" d="M612.83,-71.52C554.66,-58.75 477.42,-41.8 426.63,-30.66"/>
<polygon fill="black" stroke="black" points="427.58,-27.28 417.06,-28.56 426.07,-34.12 427.58,-27.28"/>
</g>
</g>
</svg>
