<?xml version="1.0" encoding="UTF-8" standalone="no"?>
<!DOCTYPE svg PUBLIC "-//W3C//DTD SVG 1.1//EN"
 "http://www.w3.org/Graphics/SVG/1.1/DTD/svg11.dtd">
<!-- Generated by graphviz version 7.1.0 (20230121.1956)
 -->
<!-- Pages: 1 -->
<svg width="2058pt" height="1634pt"
 viewBox="0.00 0.00 2058.29 1634.00" xmlns="http://www.w3.org/2000/svg" xmlns:xlink="http://www.w3.org/1999/xlink">
<g id="graph0" class="graph" transform="scale(1 1) rotate(0) translate(4 1630)">
<polygon fill="white" stroke="none" points="-4,4 -4,-1630 2054.29,-1630 2054.29,4 -4,4"/>
<!-- AmirQuincyWingman begins. -->
<g id="node1" class="node">
<title>AmirQuincyWingman begins.</title>
<ellipse fill="none" stroke="orange" cx="118.29" cy="-1608" rx="118.08" ry="18"/>
<text text-anchor="middle" x="118.29" y="-1604.3" font-family="Times New Roman,serif" font-size="14.00">AmirQuincyWingman begins.</text>
</g>
<!-- j724089190 -->
<g id="node2" class="node">
<title>j724089190</title>
<ellipse fill="none" stroke="orange" cx="118.29" cy="-1535" rx="98.28" ry="18"/>
<text text-anchor="middle" x="118.29" y="-1531.3" font-family="Times New Roman,serif" font-size="14.00">Check boolean IsDating</text>
</g>
<!-- AmirQuincyWingman begins.&#45;&gt;j724089190 -->
<g id="edge1" class="edge">
<title>AmirQuincyWingman begins.&#45;&gt;j724089190</title>
<path fill="none" stroke="black" d="M118.29,-1589.81C118.29,-1582.23 118.29,-1573.1 118.29,-1564.54"/>
<polygon fill="black" stroke="black" points="121.79,-1564.54 118.29,-1554.54 114.79,-1564.54 121.79,-1564.54"/>
</g>
<!-- Chat ends. -->
<g id="node3" class="node">
<title>Chat ends.</title>
<ellipse fill="none" stroke="orange" cx="671.29" cy="-18" rx="50.09" ry="18"/>
<text text-anchor="middle" x="671.29" y="-14.3" font-family="Times New Roman,serif" font-size="14.00">Chat ends.</text>
</g>
<!-- j724089190&#45;&gt;Chat ends. -->
<g id="edge2" class="edge">
<title>j724089190&#45;&gt;Chat ends.</title>
<path fill="none" stroke="green" d="M113.05,-1516.6C108.38,-1499.54 102.29,-1472.73 102.29,-1449 102.29,-1449 102.29,-1449 102.29,-90 102.29,-39.3 462.66,-24.33 609.82,-20.33"/>
<polygon fill="green" stroke="green" points="609.88,-23.83 619.78,-20.07 609.69,-16.83 609.88,-23.83"/>
<text text-anchor="middle" x="113.29" y="-706.3" font-family="Times New Roman,serif" font-size="14.00">true</text>
</g>
<!-- j2646849971 -->
<g id="node4" class="node">
<title>j2646849971</title>
<polygon fill="none" stroke="blue" points="1002.79,-1466 159.79,-1466 159.79,-1430 1002.79,-1430 1002.79,-1466"/>
<text text-anchor="middle" x="581.29" y="-1444.3" font-family="Times New Roman,serif" font-size="14.00">やあ。えっと。昨日Quincyが話しかけてきたんだ。君と話をしてたって、君が…　僕に何か言いたいことがあるって。</text>
</g>
<!-- j724089190&#45;&gt;j2646849971 -->
<g id="edge3" class="edge">
<title>j724089190&#45;&gt;j2646849971</title>
<path fill="none" stroke="brown" d="M186.11,-1521.55C262.11,-1507.6 386.28,-1484.8 475.16,-1468.48"/>
<polygon fill="brown" stroke="brown" points="475.67,-1471.95 484.87,-1466.7 474.41,-1465.06 475.67,-1471.95"/>
<text text-anchor="middle" x="390.29" y="-1487.8" font-family="Times New Roman,serif" font-size="14.00">false</text>
</g>
<!-- j1713116651 -->
<g id="node5" class="node">
<title>j1713116651</title>
<ellipse fill="none" stroke="orange" cx="677.29" cy="-1375" rx="113.98" ry="18"/>
<text text-anchor="middle" x="677.29" y="-1371.3" font-family="Times New Roman,serif" font-size="14.00">Check boolean AmirNoDate</text>
</g>
<!-- j2646849971&#45;&gt;j1713116651 -->
<g id="edge4" class="edge">
<title>j2646849971&#45;&gt;j1713116651</title>
<path fill="none" stroke="black" d="M604.53,-1429.81C616.79,-1420.74 632.03,-1409.48 645.38,-1399.6"/>
<polygon fill="black" stroke="black" points="647.09,-1402.69 653.05,-1393.93 642.93,-1397.06 647.09,-1402.69"/>
</g>
<!-- j502594289 -->
<g id="node6" class="node">
<title>j502594289</title>
<polygon fill="none" stroke="red" points="523.29,-1252 209.29,-1252 209.29,-1216 523.29,-1216 523.29,-1252"/>
<text text-anchor="middle" x="366.29" y="-1230.3" font-family="Times New Roman,serif" font-size="14.00">ただ…　本当に謝りたかっただけなんだ。</text>
</g>
<!-- j1713116651&#45;&gt;j502594289 -->
<g id="edge5" class="edge">
<title>j1713116651&#45;&gt;j502594289</title>
<path fill="none" stroke="green" d="M600.69,-1361.31C552.92,-1351.16 491.41,-1333.9 442.29,-1306 421.68,-1294.3 402.23,-1275.93 388.16,-1260.81"/>
<polygon fill="green" stroke="green" points="390.85,-1258.56 381.55,-1253.48 385.65,-1263.25 390.85,-1258.56"/>
<text text-anchor="middle" x="527.29" y="-1327.8" font-family="Times New Roman,serif" font-size="14.00">true</text>
</g>
<!-- j935210448 -->
<g id="node7" class="node">
<title>j935210448</title>
<polygon fill="none" stroke="red" points="1444.79,-1306 921.79,-1306 921.79,-1270 1444.79,-1270 1444.79,-1306"/>
<text text-anchor="middle" x="1183.29" y="-1284.3" font-family="Times New Roman,serif" font-size="14.00">Quincyはからかってるだけだと思う。何も心当たりがないんだ。[閉じる]</text>
</g>
<!-- j1713116651&#45;&gt;j935210448 -->
<g id="edge6" class="edge">
<title>j1713116651&#45;&gt;j935210448</title>
<path fill="none" stroke="green" d="M753.32,-1361.23C836.78,-1347.21 971.72,-1324.54 1068.17,-1308.34"/>
<polygon fill="green" stroke="green" points="1068.67,-1311.8 1077.95,-1306.7 1067.51,-1304.9 1068.67,-1311.8"/>
<text text-anchor="middle" x="971.29" y="-1327.8" font-family="Times New Roman,serif" font-size="14.00">true</text>
</g>
<!-- j1713116651&#45;&gt;j935210448 -->
<g id="edge8" class="edge">
<title>j1713116651&#45;&gt;j935210448</title>
<path fill="none" stroke="brown" d="M777.64,-1366.11C838.34,-1360.47 917.11,-1351.64 986.29,-1339 1028.62,-1331.27 1075.33,-1319.55 1112.64,-1309.41"/>
<polygon fill="brown" stroke="brown" points="1113.22,-1312.88 1121.94,-1306.86 1111.37,-1306.13 1113.22,-1312.88"/>
<text text-anchor="middle" x="1064.29" y="-1327.8" font-family="Times New Roman,serif" font-size="14.00">false</text>
</g>
<!-- j2893523007 -->
<g id="node8" class="node">
<title>j2893523007</title>
<polygon fill="none" stroke="red" points="903.29,-1306 451.29,-1306 451.29,-1270 903.29,-1270 903.29,-1306"/>
<text text-anchor="middle" x="677.29" y="-1284.3" font-family="Times New Roman,serif" font-size="14.00">うん。ちょっと言いにくいんだけど…　Amirが大好きなんだ。</text>
</g>
<!-- j1713116651&#45;&gt;j2893523007 -->
<g id="edge7" class="edge">
<title>j1713116651&#45;&gt;j2893523007</title>
<path fill="none" stroke="brown" d="M677.29,-1356.8C677.29,-1345.58 677.29,-1330.67 677.29,-1317.69"/>
<polygon fill="brown" stroke="brown" points="680.79,-1317.98 677.29,-1307.98 673.79,-1317.98 680.79,-1317.98"/>
<text text-anchor="middle" x="690.29" y="-1327.8" font-family="Times New Roman,serif" font-size="14.00">false</text>
</g>
<!-- j3007004886 -->
<g id="node9" class="node">
<title>j3007004886</title>
<polygon fill="none" stroke="blue" points="698.79,-1036 135.79,-1036 135.79,-1000 698.79,-1000 698.79,-1036"/>
<text text-anchor="middle" x="417.29" y="-1014.3" font-family="Times New Roman,serif" font-size="14.00">僕は…（ため息）多分、その…　僕らはここで長い付き合いになると思うし…</text>
</g>
<!-- j502594289&#45;&gt;j3007004886 -->
<g id="edge9" class="edge">
<title>j502594289&#45;&gt;j3007004886</title>
<path fill="none" stroke="black" d="M360.52,-1215.63C350.44,-1182.01 333.35,-1106.73 362.29,-1054 364.34,-1050.26 366.99,-1046.86 370,-1043.78"/>
<polygon fill="black" stroke="black" points="372.2,-1046.51 377.54,-1037.36 367.66,-1041.18 372.2,-1046.51"/>
</g>
<!-- j3313741477 -->
<g id="node10" class="node">
<title>j3313741477</title>
<polygon fill="none" stroke="blue" points="2050.29,-1144 1232.29,-1144 1232.29,-1108 2050.29,-1108 2050.29,-1144"/>
<text text-anchor="middle" x="1641.29" y="-1122.3" font-family="Times New Roman,serif" font-size="14.00">僕がこう言うと驚くかもしれないけど、でも…　彼はそういうことやる奴じゃないよ。まあ、いいけど。わかった</text>
</g>
<!-- j935210448&#45;&gt;j3313741477 -->
<g id="edge10" class="edge">
<title>j935210448&#45;&gt;j3313741477</title>
<path fill="none" stroke="black" d="M1233.18,-1269.57C1317.83,-1240 1489.32,-1180.09 1580.73,-1148.16"/>
<polygon fill="black" stroke="black" points="1581.75,-1151.51 1590.04,-1144.91 1579.44,-1144.9 1581.75,-1151.51"/>
</g>
<!-- j3450431594 -->
<g id="node11" class="node">
<title>j3450431594</title>
<ellipse fill="none" stroke="orange" cx="780.29" cy="-1180" rx="121.58" ry="18"/>
<text text-anchor="middle" x="780.29" y="-1176.3" font-family="Times New Roman,serif" font-size="14.00">Check boolean AmirHasDated</text>
</g>
<!-- j2893523007&#45;&gt;j3450431594 -->
<g id="edge11" class="edge">
<title>j2893523007&#45;&gt;j3450431594</title>
<path fill="none" stroke="black" d="M693.84,-1269.97C710.58,-1252.74 736.66,-1225.9 755.79,-1206.21"/>
<polygon fill="black" stroke="black" points="758.27,-1208.68 762.73,-1199.07 753.25,-1203.81 758.27,-1208.68"/>
</g>
<!-- j2124180827 -->
<g id="node12" class="node">
<title>j2124180827</title>
<polygon fill="none" stroke="blue" points="822.79,-928 117.79,-928 117.79,-892 822.79,-892 822.79,-928"/>
<text text-anchor="middle" x="470.29" y="-906.3" font-family="Times New Roman,serif" font-size="14.00">君に惹かれてないと言ったら嘘になるから、その…　うん…　へっ…　そうだね、君をゆ、許すよ</text>
</g>
<!-- j3007004886&#45;&gt;j2124180827 -->
<g id="edge12" class="edge">
<title>j3007004886&#45;&gt;j2124180827</title>
<path fill="none" stroke="black" d="M425.8,-999.97C434.1,-983.38 446.85,-957.88 456.57,-938.43"/>
<polygon fill="black" stroke="black" points="459.6,-940.2 460.94,-929.69 453.34,-937.07 459.6,-940.2"/>
</g>
<!-- j3313741477&#45;&gt;Chat ends. -->
<g id="edge13" class="edge">
<title>j3313741477&#45;&gt;Chat ends.</title>
<path fill="none" stroke="black" d="M1637.35,-1107.85C1632.9,-1086.97 1626.29,-1050.6 1626.29,-1019 1626.29,-1019 1626.29,-1019 1626.29,-90 1626.29,-45.03 943.84,-25.35 732.75,-20.34"/>
<polygon fill="black" stroke="black" points="732.88,-16.84 722.8,-20.11 732.72,-23.84 732.88,-16.84"/>
</g>
<!-- j1524780460 -->
<g id="node13" class="node">
<title>j1524780460</title>
<polygon fill="none" stroke="blue" points="1582.79,-801 877.79,-801 877.79,-765 1582.79,-765 1582.79,-801"/>
<text text-anchor="middle" x="1230.29" y="-779.3" font-family="Times New Roman,serif" font-size="14.00">その…　でも…　君にはチャンスがあった…　そして見捨てた。本当にもう一度付き合いたいの？</text>
</g>
<!-- j3450431594&#45;&gt;j1524780460 -->
<g id="edge14" class="edge">
<title>j3450431594&#45;&gt;j1524780460</title>
<path fill="none" stroke="green" d="M894.82,-1173.64C1024.3,-1164.36 1217.29,-1139.41 1217.29,-1073 1217.29,-1073 1217.29,-1073 1217.29,-855 1217.29,-840.8 1219.84,-825.26 1222.68,-812.35"/>
<polygon fill="green" stroke="green" points="1226.03,-813.36 1224.95,-802.82 1219.22,-811.73 1226.03,-813.36"/>
<text text-anchor="middle" x="1228.29" y="-960.3" font-family="Times New Roman,serif" font-size="14.00">true</text>
</g>
<!-- j506353472 -->
<g id="node14" class="node">
<title>j506353472</title>
<polygon fill="none" stroke="blue" points="1189.29,-1090 371.29,-1090 371.29,-1054 1189.29,-1054 1189.29,-1090"/>
<text text-anchor="middle" x="780.29" y="-1068.3" font-family="Times New Roman,serif" font-size="14.00">単にさ…　直接話しかけてくれればよかったのに？　チャットしている間もあーーんなにチャンスがあったのに？</text>
</g>
<!-- j3450431594&#45;&gt;j506353472 -->
<g id="edge15" class="edge">
<title>j3450431594&#45;&gt;j506353472</title>
<path fill="none" stroke="brown" d="M780.29,-1161.97C780.29,-1145.76 780.29,-1121.06 780.29,-1101.79"/>
<polygon fill="brown" stroke="brown" points="783.79,-1101.85 780.29,-1091.85 776.79,-1101.85 783.79,-1101.85"/>
<text text-anchor="middle" x="793.29" y="-1122.3" font-family="Times New Roman,serif" font-size="14.00">false</text>
</g>
<!-- j1949246832 -->
<g id="node15" class="node">
<title>j1949246832</title>
<polygon fill="none" stroke="blue" points="588.79,-801 351.79,-801 351.79,-765 588.79,-765 588.79,-801"/>
<text text-anchor="middle" x="470.29" y="-779.3" font-family="Times New Roman,serif" font-size="14.00">本当にもう一度付き合いたい？</text>
</g>
<!-- j2124180827&#45;&gt;j1949246832 -->
<g id="edge16" class="edge">
<title>j2124180827&#45;&gt;j1949246832</title>
<path fill="none" stroke="black" d="M470.29,-891.62C470.29,-871.19 470.29,-836.99 470.29,-812.62"/>
<polygon fill="black" stroke="black" points="473.79,-812.75 470.29,-802.75 466.79,-812.75 473.79,-812.75"/>
</g>
<!-- j1794612739 -->
<g id="node16" class="node">
<title>j1794612739</title>
<polygon fill="none" stroke="red" points="831.79,-728 642.79,-728 642.79,-692 831.79,-692 831.79,-728"/>
<text text-anchor="middle" x="737.29" y="-706.3" font-family="Times New Roman,serif" font-size="14.00">ああ。 :) 付き合いたい。</text>
</g>
<!-- j1524780460&#45;&gt;j1794612739 -->
<g id="edge17" class="edge">
<title>j1524780460&#45;&gt;j1794612739</title>
<path fill="none" stroke="black" d="M1109.06,-764.54C1027.67,-752.82 921.47,-737.53 843.43,-726.29"/>
<polygon fill="black" stroke="black" points="844.02,-722.83 833.62,-724.87 843.02,-729.76 844.02,-722.83"/>
</g>
<!-- j1407068297 -->
<g id="node17" class="node">
<title>j1407068297</title>
<polygon fill="none" stroke="red" points="610.29,-728 404.29,-728 404.29,-692 610.29,-692 610.29,-728"/>
<text text-anchor="middle" x="507.29" y="-706.3" font-family="Times New Roman,serif" font-size="14.00">やっぱり、遠慮しとくよ。</text>
</g>
<!-- j1524780460&#45;&gt;j1407068297 -->
<g id="edge18" class="edge">
<title>j1524780460&#45;&gt;j1407068297</title>
<path fill="none" stroke="black" d="M1012.44,-764.51C899.49,-754.87 759.35,-742.03 634.29,-728 630.18,-727.54 626,-727.06 621.77,-726.55"/>
<polygon fill="black" stroke="black" points="622.37,-723.1 612.02,-725.37 621.53,-730.05 622.37,-723.1"/>
</g>
<!-- j860355930 -->
<g id="node18" class="node">
<title>j860355930</title>
<polygon fill="none" stroke="red" points="1004.79,-982 861.79,-982 861.79,-946 1004.79,-946 1004.79,-982"/>
<text text-anchor="middle" x="933.29" y="-960.3" font-family="Times New Roman,serif" font-size="14.00">気付かなかった。</text>
</g>
<!-- j506353472&#45;&gt;j860355930 -->
<g id="edge19" class="edge">
<title>j506353472&#45;&gt;j860355930</title>
<path fill="none" stroke="black" d="M805.21,-1053.73C830.7,-1036.08 870.48,-1008.52 898.94,-988.8"/>
<polygon fill="black" stroke="black" points="900.65,-991.87 906.88,-983.3 896.67,-986.12 900.65,-991.87"/>
</g>
<!-- j626127664 -->
<g id="node19" class="node">
<title>j626127664</title>
<polygon fill="none" stroke="red" points="843.29,-982 669.29,-982 669.29,-946 843.29,-946 843.29,-982"/>
<text text-anchor="middle" x="756.29" y="-960.3" font-family="Times New Roman,serif" font-size="14.00">理解していなかった。</text>
</g>
<!-- j506353472&#45;&gt;j626127664 -->
<g id="edge20" class="edge">
<title>j506353472&#45;&gt;j626127664</title>
<path fill="none" stroke="black" d="M776.43,-1053.97C772.75,-1037.69 767.12,-1012.82 762.75,-993.52"/>
<polygon fill="black" stroke="black" points="766.17,-992.8 760.55,-983.82 759.34,-994.34 766.17,-992.8"/>
</g>
<!-- j1949246832&#45;&gt;j1794612739 -->
<g id="edge21" class="edge">
<title>j1949246832&#45;&gt;j1794612739</title>
<path fill="none" stroke="black" d="M535.95,-764.54C573.77,-754.48 621.49,-741.79 660.98,-731.29"/>
<polygon fill="black" stroke="black" points="661.66,-734.73 670.42,-728.78 659.86,-727.97 661.66,-734.73"/>
</g>
<!-- j1949246832&#45;&gt;j1407068297 -->
<g id="edge22" class="edge">
<title>j1949246832&#45;&gt;j1407068297</title>
<path fill="none" stroke="black" d="M479.25,-764.81C483.43,-756.79 488.5,-747.05 493.18,-738.07"/>
<polygon fill="black" stroke="black" points="496.2,-739.86 497.72,-729.37 489.99,-736.62 496.2,-739.86"/>
</g>
<!-- j3177767149 -->
<g id="node20" class="node">
<title>j3177767149</title>
<polygon fill="none" stroke="blue" points="829.79,-655 686.79,-655 686.79,-619 829.79,-619 829.79,-655"/>
<text text-anchor="middle" x="758.29" y="-633.3" font-family="Times New Roman,serif" font-size="14.00">ええぇぇえええ！</text>
</g>
<!-- j1794612739&#45;&gt;j3177767149 -->
<g id="edge23" class="edge">
<title>j1794612739&#45;&gt;j3177767149</title>
<path fill="none" stroke="black" d="M742.37,-691.81C744.67,-684.05 747.44,-674.68 750.02,-665.95"/>
<polygon fill="black" stroke="black" points="753.34,-667.06 752.82,-656.48 746.63,-665.08 753.34,-667.06"/>
</g>
<!-- j188411628 -->
<g id="node21" class="node">
<title>j188411628</title>
<polygon fill="none" stroke="blue" points="599.29,-655 411.29,-655 411.29,-619 599.29,-619 599.29,-655"/>
<text text-anchor="middle" x="505.29" y="-633.3" font-family="Times New Roman,serif" font-size="14.00">ああ、このクッソヤバ&#45;&#45;&#45;</text>
</g>
<!-- j1407068297&#45;&gt;j188411628 -->
<g id="edge24" class="edge">
<title>j1407068297&#45;&gt;j188411628</title>
<path fill="none" stroke="black" d="M506.81,-691.81C506.59,-684.14 506.33,-674.89 506.09,-666.24"/>
<polygon fill="black" stroke="black" points="509.59,-666.44 505.81,-656.54 502.59,-666.64 509.59,-666.44"/>
</g>
<!-- j1166285792 -->
<g id="node22" class="node">
<title>j1166285792</title>
<polygon fill="none" stroke="blue" points="1018.29,-874 658.29,-874 658.29,-838 1018.29,-838 1018.29,-874"/>
<text text-anchor="middle" x="838.29" y="-852.3" font-family="Times New Roman,serif" font-size="14.00">…君ってパズルゲームがめちゃくちゃ下手そう…</text>
</g>
<!-- j860355930&#45;&gt;j1166285792 -->
<g id="edge25" class="edge">
<title>j860355930&#45;&gt;j1166285792</title>
<path fill="none" stroke="black" d="M918.03,-945.97C902.74,-928.92 879.03,-902.46 861.43,-882.82"/>
<polygon fill="black" stroke="black" points="864.12,-880.58 854.84,-875.47 858.91,-885.25 864.12,-880.58"/>
</g>
<!-- j626127664&#45;&gt;j1166285792 -->
<g id="edge26" class="edge">
<title>j626127664&#45;&gt;j1166285792</title>
<path fill="none" stroke="black" d="M804.01,-945.56C811.73,-940.89 818.94,-935.11 824.29,-928 833.29,-916.04 836.94,-899.84 838.28,-885.94"/>
<polygon fill="black" stroke="black" points="841.77,-886.16 838.85,-875.98 834.78,-885.76 841.77,-886.16"/>
</g>
<!-- j3691577225 -->
<g id="node23" class="node">
<title>j3691577225</title>
<polygon fill="none" stroke="blue" points="877.79,-582 640.79,-582 640.79,-546 877.79,-546 877.79,-582"/>
<text text-anchor="middle" x="759.29" y="-560.3" font-family="Times New Roman,serif" font-size="14.00">よしよしよしよしよしよしよし</text>
</g>
<!-- j3177767149&#45;&gt;j3691577225 -->
<g id="edge27" class="edge">
<title>j3177767149&#45;&gt;j3691577225</title>
<path fill="none" stroke="black" d="M758.53,-618.81C758.64,-611.23 758.77,-602.1 758.89,-593.54"/>
<polygon fill="black" stroke="black" points="762.39,-593.59 759.03,-583.54 755.39,-593.49 762.39,-593.59"/>
</g>
<!-- j3553778653 -->
<g id="node24" class="node">
<title>j3553778653</title>
<polygon fill="none" stroke="blue" points="622.79,-582 353.79,-582 353.79,-546 622.79,-546 622.79,-582"/>
<text text-anchor="middle" x="488.29" y="-560.3" font-family="Times New Roman,serif" font-size="14.00">あぁぁあああ゛あ゛ア゛あぁぁあ！</text>
</g>
<!-- j188411628&#45;&gt;j3553778653 -->
<g id="edge28" class="edge">
<title>j188411628&#45;&gt;j3553778653</title>
<path fill="none" stroke="black" d="M501.17,-618.81C499.32,-611.05 497.07,-601.68 494.98,-592.95"/>
<polygon fill="black" stroke="black" points="498.45,-592.41 492.72,-583.5 491.64,-594.04 498.45,-592.41"/>
</g>
<!-- j2554693759 -->
<g id="node25" class="node">
<title>j2554693759</title>
<polygon fill="none" stroke="blue" points="859.79,-801 606.79,-801 606.79,-765 859.79,-765 859.79,-801"/>
<text text-anchor="middle" x="733.29" y="-779.3" font-family="Times New Roman,serif" font-size="14.00">それで、本当に付き合いたいの？</text>
</g>
<!-- j1166285792&#45;&gt;j2554693759 -->
<g id="edge29" class="edge">
<title>j1166285792&#45;&gt;j2554693759</title>
<path fill="none" stroke="black" d="M812.6,-837.63C799.26,-828.61 782.75,-817.44 768.25,-807.64"/>
<polygon fill="black" stroke="black" points="770.57,-804.99 760.33,-802.28 766.65,-810.78 770.57,-804.99"/>
</g>
<!-- j1932721143 -->
<g id="node26" class="node">
<title>j1932721143</title>
<ellipse fill="none" stroke="orange" cx="759.29" cy="-491" rx="64.19" ry="18"/>
<text text-anchor="middle" x="759.29" y="-487.3" font-family="Times New Roman,serif" font-size="14.00">+20 Chemistry</text>
</g>
<!-- j3691577225&#45;&gt;j1932721143 -->
<g id="edge30" class="edge">
<title>j3691577225&#45;&gt;j1932721143</title>
<path fill="none" stroke="black" d="M759.29,-545.81C759.29,-538.23 759.29,-529.1 759.29,-520.54"/>
<polygon fill="black" stroke="black" points="762.79,-520.54 759.29,-510.54 755.79,-520.54 762.79,-520.54"/>
</g>
<!-- j4052030296 -->
<g id="node27" class="node">
<title>j4052030296</title>
<polygon fill="none" stroke="blue" points="613.79,-509 376.79,-509 376.79,-473 613.79,-473 613.79,-509"/>
<text text-anchor="middle" x="495.29" y="-487.3" font-family="Times New Roman,serif" font-size="14.00">どおお゛してなんだよぉおお！</text>
</g>
<!-- j3553778653&#45;&gt;j4052030296 -->
<g id="edge31" class="edge">
<title>j3553778653&#45;&gt;j4052030296</title>
<path fill="none" stroke="black" d="M489.98,-545.81C490.74,-538.14 491.65,-528.89 492.5,-520.24"/>
<polygon fill="black" stroke="black" points="495.96,-520.83 493.46,-510.54 489,-520.14 495.96,-520.83"/>
</g>
<!-- j2554693759&#45;&gt;j1794612739 -->
<g id="edge32" class="edge">
<title>j2554693759&#45;&gt;j1794612739</title>
<path fill="none" stroke="black" d="M734.26,-764.81C734.69,-757.14 735.21,-747.89 735.7,-739.24"/>
<polygon fill="black" stroke="black" points="739.18,-739.72 736.24,-729.54 732.19,-739.33 739.18,-739.72"/>
</g>
<!-- j2554693759&#45;&gt;j1407068297 -->
<g id="edge33" class="edge">
<title>j2554693759&#45;&gt;j1407068297</title>
<path fill="none" stroke="black" d="M677.71,-764.54C646.25,-754.65 606.68,-742.23 573.6,-731.83"/>
<polygon fill="black" stroke="black" points="574.68,-728.5 564.09,-728.85 572.59,-735.18 574.68,-728.5"/>
</g>
<!-- j2110853948 -->
<g id="node28" class="node">
<title>j2110853948</title>
<polygon fill="none" stroke="blue" points="867.79,-436 616.79,-436 616.79,-400 867.79,-400 867.79,-436"/>
<text text-anchor="middle" x="742.29" y="-414.3" font-family="Times New Roman,serif" font-size="14.00">よし、やってみよう！！！&lt;3&lt;3&lt;3</text>
</g>
<!-- j1932721143&#45;&gt;j2110853948 -->
<g id="edge34" class="edge">
<title>j1932721143&#45;&gt;j2110853948</title>
<path fill="none" stroke="black" d="M755.17,-472.81C753.32,-465.05 751.07,-455.68 748.98,-446.95"/>
<polygon fill="black" stroke="black" points="752.45,-446.41 746.72,-437.5 745.64,-448.04 752.45,-446.41"/>
</g>
<!-- j946985818 -->
<g id="node29" class="node">
<title>j946985818</title>
<polygon fill="none" stroke="blue" points="596.79,-436 401.79,-436 401.79,-400 596.79,-400 596.79,-436"/>
<text text-anchor="middle" x="499.29" y="-414.3" font-family="Times New Roman,serif" font-size="14.00">まーーーぁ’たこれだよ！</text>
</g>
<!-- j4052030296&#45;&gt;j946985818 -->
<g id="edge35" class="edge">
<title>j4052030296&#45;&gt;j946985818</title>
<path fill="none" stroke="black" d="M496.26,-472.81C496.69,-465.14 497.21,-455.89 497.7,-447.24"/>
<polygon fill="black" stroke="black" points="501.18,-447.72 498.24,-437.54 494.19,-447.33 501.18,-447.72"/>
</g>
<!-- j1208662821 -->
<g id="node30" class="node">
<title>j1208662821</title>
<ellipse fill="none" stroke="orange" cx="742.29" cy="-345" rx="136.48" ry="18"/>
<text text-anchor="middle" x="742.29" y="-341.3" font-family="Times New Roman,serif" font-size="14.00">Boolean AmirNoDate is now false.</text>
</g>
<!-- j2110853948&#45;&gt;j1208662821 -->
<g id="edge36" class="edge">
<title>j2110853948&#45;&gt;j1208662821</title>
<path fill="none" stroke="black" d="M742.29,-399.81C742.29,-392.23 742.29,-383.1 742.29,-374.54"/>
<polygon fill="black" stroke="black" points="745.79,-374.54 742.29,-364.54 738.79,-374.54 745.79,-374.54"/>
</g>
<!-- j3562603299 -->
<g id="node31" class="node">
<title>j3562603299</title>
<polygon fill="none" stroke="blue" points="587.29,-363 413.29,-363 413.29,-327 587.29,-327 587.29,-363"/>
<text text-anchor="middle" x="500.29" y="-341.3" font-family="Times New Roman,serif" font-size="14.00">いつも。毎回。同じ！</text>
</g>
<!-- j946985818&#45;&gt;j3562603299 -->
<g id="edge37" class="edge">
<title>j946985818&#45;&gt;j3562603299</title>
<path fill="none" stroke="black" d="M499.53,-399.81C499.64,-392.23 499.77,-383.1 499.89,-374.54"/>
<polygon fill="black" stroke="black" points="503.39,-374.59 500.03,-364.54 496.39,-374.49 503.39,-374.59"/>
</g>
<!-- j218661509 -->
<g id="node32" class="node">
<title>j218661509</title>
<ellipse fill="none" stroke="orange" cx="737.29" cy="-272" rx="118.08" ry="18"/>
<text text-anchor="middle" x="737.29" y="-268.3" font-family="Times New Roman,serif" font-size="14.00">Boolean IsDating is now true.</text>
</g>
<!-- j1208662821&#45;&gt;j218661509 -->
<g id="edge38" class="edge">
<title>j1208662821&#45;&gt;j218661509</title>
<path fill="none" stroke="black" d="M741.08,-326.81C740.54,-319.14 739.89,-309.89 739.28,-301.24"/>
<polygon fill="black" stroke="black" points="742.79,-301.27 738.6,-291.54 735.81,-301.76 742.79,-301.27"/>
</g>
<!-- j1438323710 -->
<g id="node33" class="node">
<title>j1438323710</title>
<ellipse fill="none" stroke="orange" cx="536.29" cy="-218" rx="133.78" ry="18"/>
<text text-anchor="middle" x="536.29" y="-214.3" font-family="Times New Roman,serif" font-size="14.00">Boolean AmirNoDate is now true.</text>
</g>
<!-- j3562603299&#45;&gt;j1438323710 -->
<g id="edge39" class="edge">
<title>j3562603299&#45;&gt;j1438323710</title>
<path fill="none" stroke="black" d="M505.3,-326.62C511.21,-306.1 521.12,-271.67 528.14,-247.29"/>
<polygon fill="black" stroke="black" points="531.5,-248.27 530.91,-237.69 524.78,-246.33 531.5,-248.27"/>
</g>
<!-- j2815014746 -->
<g id="node34" class="node">
<title>j2815014746</title>
<ellipse fill="none" stroke="orange" cx="718.29" cy="-164" rx="129.18" ry="18"/>
<text text-anchor="middle" x="718.29" y="-160.3" font-family="Times New Roman,serif" font-size="14.00">Boolean AmirDating is now true.</text>
</g>
<!-- j218661509&#45;&gt;j2815014746 -->
<g id="edge40" class="edge">
<title>j218661509&#45;&gt;j2815014746</title>
<path fill="none" stroke="black" d="M734.24,-253.97C731.32,-237.69 726.86,-212.82 723.4,-193.52"/>
<polygon fill="black" stroke="black" points="726.87,-193.06 721.66,-183.83 719.98,-194.29 726.87,-193.06"/>
</g>
<!-- j1438323710&#45;&gt;Chat ends. -->
<g id="edge41" class="edge">
<title>j1438323710&#45;&gt;Chat ends.</title>
<path fill="none" stroke="black" d="M533.76,-199.54C530.53,-170.32 528.3,-111 556.29,-73 571.24,-52.7 595.77,-39.77 618.33,-31.66"/>
<polygon fill="black" stroke="black" points="619.38,-35 627.77,-28.54 617.18,-28.36 619.38,-35"/>
</g>
<!-- j912964709 -->
<g id="node35" class="node">
<title>j912964709</title>
<ellipse fill="none" stroke="orange" cx="707.29" cy="-91" rx="141.88" ry="18"/>
<text text-anchor="middle" x="707.29" y="-87.3" font-family="Times New Roman,serif" font-size="14.00">Boolean AmirHasDated is now true.</text>
</g>
<!-- j2815014746&#45;&gt;j912964709 -->
<g id="edge42" class="edge">
<title>j2815014746&#45;&gt;j912964709</title>
<path fill="none" stroke="black" d="M715.63,-145.81C714.44,-138.14 713.01,-128.89 711.67,-120.24"/>
<polygon fill="black" stroke="black" points="715.15,-119.87 710.16,-110.52 708.23,-120.94 715.15,-119.87"/>
</g>
<!-- j912964709&#45;&gt;Chat ends. -->
<g id="edge43" class="edge">
<title>j912964709&#45;&gt;Chat ends.</title>
<path fill="none" stroke="black" d="M698.57,-72.81C694.51,-64.79 689.57,-55.05 685.01,-46.07"/>
<polygon fill="black" stroke="black" points="688.25,-44.71 680.61,-37.38 682.01,-47.88 688.25,-44.71"/>
</g>
</g>
</svg>
