<?xml version="1.0" encoding="UTF-8" standalone="no"?>
<!DOCTYPE svg PUBLIC "-//W3C//DTD SVG 1.1//EN"
 "http://www.w3.org/Graphics/SVG/1.1/DTD/svg11.dtd">
<!-- Generated by graphviz version 7.1.0 (20230121.1956)
 -->
<!-- Pages: 1 -->
<svg width="1920pt" height="2966pt"
 viewBox="0.00 0.00 1919.50 2966.00" xmlns="http://www.w3.org/2000/svg" xmlns:xlink="http://www.w3.org/1999/xlink">
<g id="graph0" class="graph" transform="scale(1 1) rotate(0) translate(4 2962)">
<polygon fill="white" stroke="none" points="-4,4 -4,-2962 1915.5,-2962 1915.5,4 -4,4"/>
<!-- AmirRank3Convo6 begins. -->
<g id="node1" class="node">
<title>AmirRank3Convo6 begins.</title>
<ellipse fill="none" stroke="orange" cx="902.5" cy="-2940" rx="109.68" ry="18"/>
<text text-anchor="middle" x="902.5" y="-2936.3" font-family="Times New Roman,serif" font-size="14.00">AmirRank3Convo6 begins.</text>
</g>
<!-- j2152980262 -->
<g id="node2" class="node">
<title>j2152980262</title>
<ellipse fill="none" stroke="orange" cx="902.5" cy="-2867" rx="126.18" ry="18"/>
<text text-anchor="middle" x="902.5" y="-2863.3" font-family="Times New Roman,serif" font-size="14.00">Check boolean AmirGameDev1</text>
</g>
<!-- AmirRank3Convo6 begins.&#45;&gt;j2152980262 -->
<g id="edge1" class="edge">
<title>AmirRank3Convo6 begins.&#45;&gt;j2152980262</title>
<path fill="none" stroke="black" d="M902.5,-2921.81C902.5,-2914.23 902.5,-2905.1 902.5,-2896.54"/>
<polygon fill="black" stroke="black" points="906,-2896.54 902.5,-2886.54 899,-2896.54 906,-2896.54"/>
</g>
<!-- j1391280063 -->
<g id="node3" class="node">
<title>j1391280063</title>
<polygon fill="none" stroke="blue" points="1059,-2744 664,-2744 664,-2708 1059,-2708 1059,-2744"/>
<text text-anchor="middle" x="861.5" y="-2722.3" font-family="Times New Roman,serif" font-size="14.00">突然だけど、あのゲームのジャンルガラッと変えたよ</text>
</g>
<!-- j2152980262&#45;&gt;j1391280063 -->
<g id="edge2" class="edge">
<title>j2152980262&#45;&gt;j1391280063</title>
<path fill="none" stroke="green" d="M897.39,-2848.68C890.45,-2825.14 877.95,-2782.78 869.69,-2754.78"/>
<polygon fill="green" stroke="green" points="873.16,-2754.16 866.97,-2745.56 866.45,-2756.14 873.16,-2754.16"/>
<text text-anchor="middle" x="902.5" y="-2819.8" font-family="Times New Roman,serif" font-size="14.00">true</text>
</g>
<!-- j3872116923 -->
<g id="node4" class="node">
<title>j3872116923</title>
<ellipse fill="none" stroke="orange" cx="1064.5" cy="-2780" rx="146.47" ry="18"/>
<text text-anchor="middle" x="1064.5" y="-2776.3" font-family="Times New Roman,serif" font-size="14.00">Boolean AmirGameDev1 is now true.</text>
</g>
<!-- j2152980262&#45;&gt;j3872116923 -->
<g id="edge3" class="edge">
<title>j2152980262&#45;&gt;j3872116923</title>
<path fill="none" stroke="brown" d="M934.51,-2849.21C959.61,-2836.04 994.76,-2817.59 1022.19,-2803.2"/>
<polygon fill="brown" stroke="brown" points="1023.71,-2806.35 1030.94,-2798.61 1020.46,-2800.15 1023.71,-2806.35"/>
<text text-anchor="middle" x="1005.5" y="-2819.8" font-family="Times New Roman,serif" font-size="14.00">false</text>
</g>
<!-- j2521182811 -->
<g id="node5" class="node">
<title>j2521182811</title>
<polygon fill="none" stroke="blue" points="1033,-2636 686,-2636 686,-2600 1033,-2600 1033,-2636"/>
<text text-anchor="middle" x="859.5" y="-2614.3" font-family="Times New Roman,serif" font-size="14.00">もう探索ゲーじゃなくてルーターシューターだ</text>
</g>
<!-- j1391280063&#45;&gt;j2521182811 -->
<g id="edge4" class="edge">
<title>j1391280063&#45;&gt;j2521182811</title>
<path fill="none" stroke="black" d="M861.18,-2707.97C860.87,-2691.76 860.41,-2667.06 860.04,-2647.79"/>
<polygon fill="black" stroke="black" points="863.54,-2647.79 859.86,-2637.85 856.55,-2647.92 863.54,-2647.79"/>
</g>
<!-- j2722678107 -->
<g id="node6" class="node">
<title>j2722678107</title>
<polygon fill="none" stroke="blue" points="1200,-2690 979,-2690 979,-2654 1200,-2654 1200,-2690"/>
<text text-anchor="middle" x="1089.5" y="-2668.3" font-family="Times New Roman,serif" font-size="14.00">笑わないで欲しいんだけどー</text>
</g>
<!-- j3872116923&#45;&gt;j2722678107 -->
<g id="edge5" class="edge">
<title>j3872116923&#45;&gt;j2722678107</title>
<path fill="none" stroke="black" d="M1068.52,-2761.97C1072.36,-2745.69 1078.22,-2720.82 1082.77,-2701.52"/>
<polygon fill="black" stroke="black" points="1086.17,-2702.35 1085.06,-2691.81 1079.36,-2700.74 1086.17,-2702.35"/>
</g>
<!-- j791815078 -->
<g id="node7" class="node">
<title>j791815078</title>
<ellipse fill="none" stroke="orange" cx="798.5" cy="-2510" rx="146.47" ry="18"/>
<text text-anchor="middle" x="798.5" y="-2506.3" font-family="Times New Roman,serif" font-size="14.00">Boolean AmirGameDev3 is now true.</text>
</g>
<!-- j2521182811&#45;&gt;j791815078 -->
<g id="edge6" class="edge">
<title>j2521182811&#45;&gt;j791815078</title>
<path fill="none" stroke="black" d="M849.7,-2599.97C840.11,-2583.3 825.34,-2557.65 814.13,-2538.16"/>
<polygon fill="black" stroke="black" points="817.26,-2536.57 809.23,-2529.65 811.19,-2540.07 817.26,-2536.57"/>
</g>
<!-- j2275199848 -->
<g id="node8" class="node">
<title>j2275199848</title>
<polygon fill="none" stroke="blue" points="1294,-2582 915,-2582 915,-2546 1294,-2546 1294,-2582"/>
<text text-anchor="middle" x="1104.5" y="-2560.3" font-family="Times New Roman,serif" font-size="14.00">でも僕は自分のゲームを開発してる、そうだよね？</text>
</g>
<!-- j2722678107&#45;&gt;j2275199848 -->
<g id="edge7" class="edge">
<title>j2722678107&#45;&gt;j2275199848</title>
<path fill="none" stroke="black" d="M1091.91,-2653.97C1094.21,-2637.69 1097.73,-2612.82 1100.46,-2593.52"/>
<polygon fill="black" stroke="black" points="1103.9,-2594.23 1101.83,-2583.84 1096.97,-2593.25 1103.9,-2594.23"/>
</g>
<!-- j1094475645 -->
<g id="node9" class="node">
<title>j1094475645</title>
<ellipse fill="none" stroke="orange" cx="678.5" cy="-2129" rx="126.18" ry="18"/>
<text text-anchor="middle" x="678.5" y="-2125.3" font-family="Times New Roman,serif" font-size="14.00">Check boolean AmirGameDev2</text>
</g>
<!-- j791815078&#45;&gt;j1094475645 -->
<g id="edge8" class="edge">
<title>j791815078&#45;&gt;j1094475645</title>
<path fill="none" stroke="black" d="M747.43,-2492.72C715.54,-2479.01 680.5,-2455.8 680.5,-2420 680.5,-2420 680.5,-2420 680.5,-2236 680.5,-2209.84 679.88,-2180.06 679.34,-2158.74"/>
<polygon fill="black" stroke="black" points="682.83,-2158.67 679.07,-2148.77 675.84,-2158.86 682.83,-2158.67"/>
</g>
<!-- j2204147015 -->
<g id="node10" class="node">
<title>j2204147015</title>
<polygon fill="none" stroke="blue" points="1262,-2474 1009,-2474 1009,-2438 1262,-2438 1262,-2474"/>
<text text-anchor="middle" x="1135.5" y="-2452.3" font-family="Times New Roman,serif" font-size="14.00">超クールになること間違いなし！</text>
</g>
<!-- j2275199848&#45;&gt;j2204147015 -->
<g id="edge9" class="edge">
<title>j2275199848&#45;&gt;j2204147015</title>
<path fill="none" stroke="black" d="M1109.48,-2545.97C1114.27,-2529.61 1121.58,-2504.59 1127.24,-2485.24"/>
<polygon fill="black" stroke="black" points="1130.56,-2486.37 1130,-2475.79 1123.84,-2484.41 1130.56,-2486.37"/>
</g>
<!-- j2128315553 -->
<g id="node11" class="node">
<title>j2128315553</title>
<polygon fill="none" stroke="blue" points="642,-2039 263,-2039 263,-2003 642,-2003 642,-2039"/>
<text text-anchor="middle" x="452.5" y="-2017.3" font-family="Times New Roman,serif" font-size="14.00">けどドアの件はやっぱ重要だったからありがとね笑</text>
</g>
<!-- j1094475645&#45;&gt;j2128315553 -->
<g id="edge10" class="edge">
<title>j1094475645&#45;&gt;j2128315553</title>
<path fill="none" stroke="green" d="M642.94,-2111.32C604.44,-2093.26 542.82,-2064.36 500.15,-2044.35"/>
<polygon fill="green" stroke="green" points="501.64,-2041.18 491.1,-2040.11 498.67,-2047.52 501.64,-2041.18"/>
<text text-anchor="middle" x="609.5" y="-2071.3" font-family="Times New Roman,serif" font-size="14.00">true</text>
</g>
<!-- j2039192065 -->
<g id="node12" class="node">
<title>j2039192065</title>
<polygon fill="none" stroke="red" points="293,-1931 0,-1931 0,-1895 293,-1895 293,-1931"/>
<text text-anchor="middle" x="146.5" y="-1909.3" font-family="Times New Roman,serif" font-size="14.00">今は時間がないんだ、ごめん。[閉じる]</text>
</g>
<!-- j1094475645&#45;&gt;j2039192065 -->
<g id="edge11" class="edge">
<title>j1094475645&#45;&gt;j2039192065</title>
<path fill="none" stroke="brown" d="M579.78,-2117.48C465.19,-2103.73 284.73,-2076.87 228.5,-2039 193.19,-2015.22 169.46,-1970.59 156.97,-1941.59"/>
<polygon fill="brown" stroke="brown" points="160.36,-1940.63 153.31,-1932.72 153.89,-1943.3 160.36,-1940.63"/>
<text text-anchor="middle" x="241.5" y="-2017.3" font-family="Times New Roman,serif" font-size="14.00">false</text>
</g>
<!-- j4268999196 -->
<g id="node13" class="node">
<title>j4268999196</title>
<polygon fill="none" stroke="red" points="594,-1931 311,-1931 311,-1895 594,-1895 594,-1931"/>
<text text-anchor="middle" x="452.5" y="-1909.3" font-family="Times New Roman,serif" font-size="14.00">何その…　ルーターシューターって？</text>
</g>
<!-- j1094475645&#45;&gt;j4268999196 -->
<g id="edge12" class="edge">
<title>j1094475645&#45;&gt;j4268999196</title>
<path fill="none" stroke="brown" d="M679.42,-2110.57C679.86,-2084.32 676.95,-2034.38 651.5,-2003 624.37,-1969.55 582.03,-1948.25 543.37,-1934.91"/>
<polygon fill="brown" stroke="brown" points="544.61,-1931.64 534.02,-1931.83 542.42,-1938.28 544.61,-1931.64"/>
<text text-anchor="middle" x="682.5" y="-2017.3" font-family="Times New Roman,serif" font-size="14.00">false</text>
</g>
<!-- j3618040367 -->
<g id="node14" class="node">
<title>j3618040367</title>
<polygon fill="none" stroke="red" points="1003,-1931 612,-1931 612,-1895 1003,-1895 1003,-1931"/>
<text text-anchor="middle" x="807.5" y="-1909.3" font-family="Times New Roman,serif" font-size="14.00">Amirって本当に「挨拶」を省略するのが好きだよね。</text>
</g>
<!-- j1094475645&#45;&gt;j3618040367 -->
<g id="edge13" class="edge">
<title>j1094475645&#45;&gt;j3618040367</title>
<path fill="none" stroke="brown" d="M688.84,-2110.85C711.25,-2073.68 764.44,-1985.44 791.33,-1940.82"/>
<polygon fill="brown" stroke="brown" points="794.17,-1942.9 796.33,-1932.53 788.17,-1939.29 794.17,-1942.9"/>
<text text-anchor="middle" x="766.5" y="-2017.3" font-family="Times New Roman,serif" font-size="14.00">false</text>
</g>
<!-- j1199963637 -->
<g id="node15" class="node">
<title>j1199963637</title>
<polygon fill="none" stroke="red" points="1254,-2401 1017,-2401 1017,-2365 1254,-2365 1254,-2401"/>
<text text-anchor="middle" x="1135.5" y="-2379.3" font-family="Times New Roman,serif" font-size="14.00">楽しそうなプロジェクトだね。</text>
</g>
<!-- j2204147015&#45;&gt;j1199963637 -->
<g id="edge14" class="edge">
<title>j2204147015&#45;&gt;j1199963637</title>
<path fill="none" stroke="black" d="M1135.5,-2437.81C1135.5,-2430.23 1135.5,-2421.1 1135.5,-2412.54"/>
<polygon fill="black" stroke="black" points="1139,-2412.54 1135.5,-2402.54 1132,-2412.54 1139,-2412.54"/>
</g>
<!-- j3821016092 -->
<g id="node16" class="node">
<title>j3821016092</title>
<polygon fill="none" stroke="red" points="1757.5,-2401 1425.5,-2401 1425.5,-2365 1757.5,-2365 1757.5,-2401"/>
<text text-anchor="middle" x="1591.5" y="-2379.3" font-family="Times New Roman,serif" font-size="14.00">まだまだ変わった趣味を持ち足りないって？</text>
</g>
<!-- j2204147015&#45;&gt;j3821016092 -->
<g id="edge15" class="edge">
<title>j2204147015&#45;&gt;j3821016092</title>
<path fill="none" stroke="black" d="M1247.63,-2437.54C1314.46,-2427.14 1399.36,-2413.92 1468.08,-2403.22"/>
<polygon fill="black" stroke="black" points="1468.57,-2406.68 1477.91,-2401.69 1467.49,-2399.77 1468.57,-2406.68"/>
</g>
<!-- j2128315553&#45;&gt;j2039192065 -->
<g id="edge17" class="edge">
<title>j2128315553&#45;&gt;j2039192065</title>
<path fill="none" stroke="black" d="M402.31,-2002.61C349.03,-1984.16 264.79,-1954.98 207.66,-1935.19"/>
<polygon fill="black" stroke="black" points="208.99,-1931.94 198.4,-1931.98 206.7,-1938.56 208.99,-1931.94"/>
</g>
<!-- j2128315553&#45;&gt;j4268999196 -->
<g id="edge18" class="edge">
<title>j2128315553&#45;&gt;j4268999196</title>
<path fill="none" stroke="black" d="M452.5,-2002.97C452.5,-1986.76 452.5,-1962.06 452.5,-1942.79"/>
<polygon fill="black" stroke="black" points="456,-1942.85 452.5,-1932.85 449,-1942.85 456,-1942.85"/>
</g>
<!-- j2128315553&#45;&gt;j3618040367 -->
<g id="edge16" class="edge">
<title>j2128315553&#45;&gt;j3618040367</title>
<path fill="none" stroke="black" d="M510.72,-2002.61C573.05,-1984 671.9,-1954.49 738.19,-1934.69"/>
<polygon fill="black" stroke="black" points="738.92,-1938.13 747.5,-1931.92 736.92,-1931.42 738.92,-1938.13"/>
</g>
<!-- Chat ends. -->
<g id="node17" class="node">
<title>Chat ends.</title>
<ellipse fill="none" stroke="orange" cx="1542.5" cy="-18" rx="50.09" ry="18"/>
<text text-anchor="middle" x="1542.5" y="-14.3" font-family="Times New Roman,serif" font-size="14.00">Chat ends.</text>
</g>
<!-- j2039192065&#45;&gt;Chat ends. -->
<g id="edge19" class="edge">
<title>j2039192065&#45;&gt;Chat ends.</title>
<path fill="none" stroke="black" d="M155.85,-1894.75C162.59,-1880.7 170.5,-1860.13 170.5,-1841 170.5,-1841 170.5,-1841 170.5,-90 170.5,-23.46 1213.28,-18.98 1480.64,-18.92"/>
<polygon fill="black" stroke="black" points="1480.53,-22.42 1490.53,-18.92 1480.53,-15.42 1480.53,-22.42"/>
</g>
<!-- j509551085 -->
<g id="node18" class="node">
<title>j509551085</title>
<polygon fill="none" stroke="blue" points="647.5,-1858 225.5,-1858 225.5,-1822 647.5,-1822 647.5,-1858"/>
<text text-anchor="middle" x="436.5" y="-1836.3" font-family="Times New Roman,serif" font-size="14.00">何するかって…　何か撃って…　あと…　何か漁ったり？</text>
</g>
<!-- j4268999196&#45;&gt;j509551085 -->
<g id="edge20" class="edge">
<title>j4268999196&#45;&gt;j509551085</title>
<path fill="none" stroke="black" d="M448.63,-1894.81C446.9,-1887.14 444.81,-1877.89 442.86,-1869.24"/>
<polygon fill="black" stroke="black" points="446.28,-1868.49 440.67,-1859.51 439.45,-1870.03 446.28,-1868.49"/>
</g>
<!-- j2097346368 -->
<g id="node19" class="node">
<title>j2097346368</title>
<polygon fill="none" stroke="blue" points="1020.5,-1677 594.5,-1677 594.5,-1641 1020.5,-1641 1020.5,-1677"/>
<text text-anchor="middle" x="807.5" y="-1655.3" font-family="Times New Roman,serif" font-size="14.00">そうだねごめん笑ハイこんにちはそうですねごきげんよう</text>
</g>
<!-- j3618040367&#45;&gt;j2097346368 -->
<g id="edge21" class="edge">
<title>j3618040367&#45;&gt;j2097346368</title>
<path fill="none" stroke="black" d="M807.5,-1894.68C807.5,-1851.97 807.5,-1741.27 807.5,-1688.63"/>
<polygon fill="black" stroke="black" points="811,-1688.96 807.5,-1678.96 804,-1688.96 811,-1688.96"/>
</g>
<!-- j1719173992 -->
<g id="node20" class="node">
<title>j1719173992</title>
<polygon fill="none" stroke="blue" points="1561,-2328 710,-2328 710,-2292 1561,-2292 1561,-2328"/>
<text text-anchor="middle" x="1135.5" y="-2306.3" font-family="Times New Roman,serif" font-size="14.00">ああ出かけては建物ぶっ壊して大量殺人してる合間に思いにふけるなんて最高だよハハハハハボクダイジョウブダカラ</text>
</g>
<!-- j1199963637&#45;&gt;j1719173992 -->
<g id="edge22" class="edge">
<title>j1199963637&#45;&gt;j1719173992</title>
<path fill="none" stroke="black" d="M1135.5,-2364.81C1135.5,-2357.23 1135.5,-2348.1 1135.5,-2339.54"/>
<polygon fill="black" stroke="black" points="1139,-2339.54 1135.5,-2329.54 1132,-2339.54 1139,-2339.54"/>
</g>
<!-- j252160841 -->
<g id="node21" class="node">
<title>j252160841</title>
<polygon fill="none" stroke="red" points="1911.5,-2328 1579.5,-2328 1579.5,-2292 1911.5,-2292 1911.5,-2328"/>
<text text-anchor="middle" x="1745.5" y="-2306.3" font-family="Times New Roman,serif" font-size="14.00">もっと生産的なことに時間を使えないのか？</text>
</g>
<!-- j3821016092&#45;&gt;j252160841 -->
<g id="edge23" class="edge">
<title>j3821016092&#45;&gt;j252160841</title>
<path fill="none" stroke="black" d="M1629.17,-2364.63C1649.68,-2355.18 1675.28,-2343.38 1697.23,-2333.25"/>
<polygon fill="black" stroke="black" points="1698.69,-2336.43 1706.31,-2329.07 1695.76,-2330.08 1698.69,-2336.43"/>
</g>
<!-- j983805194 -->
<g id="node22" class="node">
<title>j983805194</title>
<ellipse fill="none" stroke="orange" cx="433.5" cy="-1767" rx="64.19" ry="18"/>
<text text-anchor="middle" x="433.5" y="-1763.3" font-family="Times New Roman,serif" font-size="14.00">+10 Chemistry</text>
</g>
<!-- j509551085&#45;&gt;j983805194 -->
<g id="edge24" class="edge">
<title>j509551085&#45;&gt;j983805194</title>
<path fill="none" stroke="black" d="M435.77,-1821.81C435.45,-1814.14 435.06,-1804.89 434.69,-1796.24"/>
<polygon fill="black" stroke="black" points="438.2,-1796.38 434.28,-1786.54 431.21,-1796.68 438.2,-1796.38"/>
</g>
<!-- j3796268260 -->
<g id="node23" class="node">
<title>j3796268260</title>
<polygon fill="none" stroke="red" points="934,-1604 587,-1604 587,-1568 934,-1568 934,-1604"/>
<text text-anchor="middle" x="760.5" y="-1582.3" font-family="Times New Roman,serif" font-size="14.00">ベビーシッターに相当迷惑かけてきたでしょ。</text>
</g>
<!-- j2097346368&#45;&gt;j3796268260 -->
<g id="edge25" class="edge">
<title>j2097346368&#45;&gt;j3796268260</title>
<path fill="none" stroke="black" d="M796.12,-1640.81C790.7,-1632.62 784.08,-1622.62 778.03,-1613.48"/>
<polygon fill="black" stroke="black" points="781.05,-1611.7 772.61,-1605.29 775.21,-1615.56 781.05,-1611.7"/>
</g>
<!-- j2893814239 -->
<g id="node24" class="node">
<title>j2893814239</title>
<polygon fill="none" stroke="red" points="568.5,-1604 284.5,-1604 284.5,-1568 568.5,-1568 568.5,-1604"/>
<text text-anchor="middle" x="426.5" y="-1582.3" font-family="Times New Roman,serif" font-size="14.00">あ。うん。とにかく。変更の理由は？</text>
</g>
<!-- j2097346368&#45;&gt;j2893814239 -->
<g id="edge26" class="edge">
<title>j2097346368&#45;&gt;j2893814239</title>
<path fill="none" stroke="black" d="M713.81,-1640.54C658.55,-1630.24 588.5,-1617.19 531.4,-1606.55"/>
<polygon fill="black" stroke="black" points="532.12,-1603.12 521.65,-1604.73 530.84,-1610 532.12,-1603.12"/>
</g>
<!-- j2066888876 -->
<g id="node25" class="node">
<title>j2066888876</title>
<polygon fill="none" stroke="blue" points="1370.5,-2255 1086.5,-2255 1086.5,-2219 1370.5,-2219 1370.5,-2255"/>
<text text-anchor="middle" x="1228.5" y="-2233.3" font-family="Times New Roman,serif" font-size="14.00">とにかく、作るの手伝ってくれない？</text>
</g>
<!-- j1719173992&#45;&gt;j2066888876 -->
<g id="edge27" class="edge">
<title>j1719173992&#45;&gt;j2066888876</title>
<path fill="none" stroke="black" d="M1158.01,-2291.81C1169.69,-2282.9 1184.15,-2271.86 1196.93,-2262.1"/>
<polygon fill="black" stroke="black" points="1198.84,-2265.04 1204.67,-2256.19 1194.6,-2259.48 1198.84,-2265.04"/>
</g>
<!-- j4207693511 -->
<g id="node26" class="node">
<title>j4207693511</title>
<polygon fill="none" stroke="blue" points="1864,-2201 1627,-2201 1627,-2165 1864,-2165 1864,-2201"/>
<text text-anchor="middle" x="1745.5" y="-2179.3" font-family="Times New Roman,serif" font-size="14.00">はいはいごめんなさいお父上様</text>
</g>
<!-- j252160841&#45;&gt;j4207693511 -->
<g id="edge28" class="edge">
<title>j252160841&#45;&gt;j4207693511</title>
<path fill="none" stroke="black" d="M1745.5,-2291.62C1745.5,-2271.19 1745.5,-2236.99 1745.5,-2212.62"/>
<polygon fill="black" stroke="black" points="1749,-2212.75 1745.5,-2202.75 1742,-2212.75 1749,-2212.75"/>
</g>
<!-- j3951366308 -->
<g id="node27" class="node">
<title>j3951366308</title>
<polygon fill="none" stroke="blue" points="576.5,-1677 276.5,-1677 276.5,-1641 576.5,-1641 576.5,-1677"/>
<text text-anchor="middle" x="426.5" y="-1655.3" font-family="Times New Roman,serif" font-size="14.00">他にどう表現したらいいか分からない笑</text>
</g>
<!-- j983805194&#45;&gt;j3951366308 -->
<g id="edge29" class="edge">
<title>j983805194&#45;&gt;j3951366308</title>
<path fill="none" stroke="black" d="M432.38,-1748.97C431.31,-1732.76 429.67,-1708.06 428.4,-1688.79"/>
<polygon fill="black" stroke="black" points="431.9,-1688.6 427.74,-1678.85 424.91,-1689.06 431.9,-1688.6"/>
</g>
<!-- j2090450783 -->
<g id="node28" class="node">
<title>j2090450783</title>
<polygon fill="none" stroke="blue" points="1217.5,-1496 303.5,-1496 303.5,-1460 1217.5,-1460 1217.5,-1496"/>
<text text-anchor="middle" x="760.5" y="-1474.3" font-family="Times New Roman,serif" font-size="14.00">（笑）そんなことないよ実際は良い子だったよコンピューターかアドベンチャーブックがあれば何日でもイイ子だったよーーー</text>
</g>
<!-- j3796268260&#45;&gt;j2090450783 -->
<g id="edge30" class="edge">
<title>j3796268260&#45;&gt;j2090450783</title>
<path fill="none" stroke="black" d="M760.5,-1567.97C760.5,-1551.76 760.5,-1527.06 760.5,-1507.79"/>
<polygon fill="black" stroke="black" points="764,-1507.85 760.5,-1497.85 757,-1507.85 764,-1507.85"/>
</g>
<!-- j630337600 -->
<g id="node29" class="node">
<title>j630337600</title>
<polygon fill="none" stroke="blue" points="1182,-1350 583,-1350 583,-1314 1182,-1314 1182,-1350"/>
<text text-anchor="middle" x="882.5" y="-1328.3" font-family="Times New Roman,serif" font-size="14.00">はいはいはいそれで僕が考えたゲームデザインについて君が知ってることの話ね？</text>
</g>
<!-- j2893814239&#45;&gt;j630337600 -->
<g id="edge31" class="edge">
<title>j2893814239&#45;&gt;j630337600</title>
<path fill="none" stroke="black" d="M382.61,-1567.56C333.06,-1545.24 263.17,-1504.14 294.5,-1460 336.08,-1401.44 502.71,-1369.14 648.02,-1351.79"/>
<polygon fill="black" stroke="black" points="648.3,-1355.29 657.83,-1350.64 647.49,-1348.33 648.3,-1355.29"/>
</g>
<!-- j1907531894 -->
<g id="node30" class="node">
<title>j1907531894</title>
<polygon fill="none" stroke="red" points="1531.5,-2147 1201.5,-2147 1201.5,-2111 1531.5,-2111 1531.5,-2147"/>
<text text-anchor="middle" x="1366.5" y="-2125.3" font-family="Times New Roman,serif" font-size="14.00">いいけど、コードの書き方なんて知らない…</text>
</g>
<!-- j2066888876&#45;&gt;j1907531894 -->
<g id="edge32" class="edge">
<title>j2066888876&#45;&gt;j1907531894</title>
<path fill="none" stroke="black" d="M1250.98,-2218.73C1273.83,-2201.18 1309.44,-2173.83 1335.08,-2154.14"/>
<polygon fill="black" stroke="black" points="1337.03,-2157.05 1342.83,-2148.18 1332.77,-2151.5 1337.03,-2157.05"/>
</g>
<!-- j3023311848 -->
<g id="node31" class="node">
<title>j3023311848</title>
<polygon fill="none" stroke="red" points="1230.5,-2093 1150.5,-2093 1150.5,-2057 1230.5,-2057 1230.5,-2093"/>
<text text-anchor="middle" x="1190.5" y="-2071.3" font-family="Times New Roman,serif" font-size="14.00">いいよ。</text>
</g>
<!-- j2066888876&#45;&gt;j3023311848 -->
<g id="edge33" class="edge">
<title>j2066888876&#45;&gt;j3023311848</title>
<path fill="none" stroke="black" d="M1219.25,-2218.52C1210.5,-2200.99 1197.93,-2172.94 1192.5,-2147 1189.62,-2133.23 1188.91,-2117.63 1189.01,-2104.57"/>
<polygon fill="black" stroke="black" points="1192.5,-2105.01 1189.25,-2094.93 1185.5,-2104.84 1192.5,-2105.01"/>
</g>
<!-- j1585967969 -->
<g id="node32" class="node">
<title>j1585967969</title>
<polygon fill="none" stroke="red" points="1717,-2147 1550,-2147 1550,-2111 1717,-2111 1717,-2147"/>
<text text-anchor="middle" x="1633.5" y="-2125.3" font-family="Times New Roman,serif" font-size="14.00">パス。悪い。[閉じる]</text>
</g>
<!-- j2066888876&#45;&gt;j1585967969 -->
<g id="edge34" class="edge">
<title>j2066888876&#45;&gt;j1585967969</title>
<path fill="none" stroke="black" d="M1294.92,-2218.61C1366.47,-2199.89 1480.2,-2170.12 1555.83,-2150.33"/>
<polygon fill="black" stroke="black" points="1556.45,-2153.78 1565.24,-2147.87 1554.68,-2147.01 1556.45,-2153.78"/>
</g>
<!-- j4207693511&#45;&gt;Chat ends. -->
<g id="edge35" class="edge">
<title>j4207693511&#45;&gt;Chat ends.</title>
<path fill="none" stroke="black" d="M1745.5,-2164.74C1745.5,-2143.76 1745.5,-2107.28 1745.5,-2076 1745.5,-2076 1745.5,-2076 1745.5,-90 1745.5,-58.91 1659.61,-38.23 1599.57,-27.57"/>
<polygon fill="black" stroke="black" points="1600.25,-24.13 1589.8,-25.89 1599.06,-31.03 1600.25,-24.13"/>
</g>
<!-- j3951366308&#45;&gt;j3796268260 -->
<g id="edge37" class="edge">
<title>j3951366308&#45;&gt;j3796268260</title>
<path fill="none" stroke="black" d="M508.63,-1640.54C556.67,-1630.33 617.46,-1617.41 667.29,-1606.81"/>
<polygon fill="black" stroke="black" points="667.86,-1610.27 676.91,-1604.77 666.4,-1603.42 667.86,-1610.27"/>
</g>
<!-- j3951366308&#45;&gt;j2893814239 -->
<g id="edge36" class="edge">
<title>j3951366308&#45;&gt;j2893814239</title>
<path fill="none" stroke="black" d="M426.5,-1640.81C426.5,-1633.23 426.5,-1624.1 426.5,-1615.54"/>
<polygon fill="black" stroke="black" points="430,-1615.54 426.5,-1605.54 423,-1615.54 430,-1615.54"/>
</g>
<!-- j3079848376 -->
<g id="node33" class="node">
<title>j3079848376</title>
<polygon fill="none" stroke="blue" points="1127,-1423 512,-1423 512,-1387 1127,-1387 1127,-1423"/>
<text text-anchor="middle" x="819.5" y="-1401.3" font-family="Times New Roman,serif" font-size="14.00">でも僕に何も無しに一時間もソファに座って静かにしろって言われたら？　別の話だ</text>
</g>
<!-- j2090450783&#45;&gt;j3079848376 -->
<g id="edge38" class="edge">
<title>j2090450783&#45;&gt;j3079848376</title>
<path fill="none" stroke="black" d="M774.78,-1459.81C781.81,-1451.35 790.43,-1440.98 798.22,-1431.61"/>
<polygon fill="black" stroke="black" points="800.68,-1434.12 804.38,-1424.19 795.3,-1429.65 800.68,-1434.12"/>
</g>
<!-- j3938089275 -->
<g id="node34" class="node">
<title>j3938089275</title>
<polygon fill="none" stroke="blue" points="1174.5,-1277 590.5,-1277 590.5,-1241 1174.5,-1241 1174.5,-1277"/>
<text text-anchor="middle" x="882.5" y="-1255.3" font-family="Times New Roman,serif" font-size="14.00">それで今僕が分かってる事としてはね？　走り回って何か撃って何か漁るんだよ</text>
</g>
<!-- j630337600&#45;&gt;j3938089275 -->
<g id="edge39" class="edge">
<title>j630337600&#45;&gt;j3938089275</title>
<path fill="none" stroke="black" d="M882.5,-1313.81C882.5,-1306.23 882.5,-1297.1 882.5,-1288.54"/>
<polygon fill="black" stroke="black" points="886,-1288.54 882.5,-1278.54 879,-1288.54 886,-1288.54"/>
</g>
<!-- j1434844915 -->
<g id="node35" class="node">
<title>j1434844915</title>
<polygon fill="none" stroke="blue" points="1461.5,-2039 1271.5,-2039 1271.5,-2003 1461.5,-2003 1461.5,-2039"/>
<text text-anchor="middle" x="1366.5" y="-2017.3" font-family="Times New Roman,serif" font-size="14.00">ゼンゼン・問題・ナシ。</text>
</g>
<!-- j1907531894&#45;&gt;j1434844915 -->
<g id="edge40" class="edge">
<title>j1907531894&#45;&gt;j1434844915</title>
<path fill="none" stroke="black" d="M1366.5,-2110.97C1366.5,-2094.76 1366.5,-2070.06 1366.5,-2050.79"/>
<polygon fill="black" stroke="black" points="1370,-2050.85 1366.5,-2040.85 1363,-2050.85 1370,-2050.85"/>
</g>
<!-- j3842092833 -->
<g id="node36" class="node">
<title>j3842092833</title>
<polygon fill="none" stroke="blue" points="1477,-1931 1256,-1931 1256,-1895 1477,-1895 1477,-1931"/>
<text text-anchor="middle" x="1366.5" y="-1909.3" font-family="Times New Roman,serif" font-size="14.00">君は座ってるだけでいいんだ</text>
</g>
<!-- j3023311848&#45;&gt;j3842092833 -->
<g id="edge41" class="edge">
<title>j3023311848&#45;&gt;j3842092833</title>
<path fill="none" stroke="black" d="M1207.34,-2056.73C1221.72,-2042.13 1243.11,-2020.82 1262.5,-2003 1286.89,-1980.59 1315.55,-1956.2 1336.6,-1938.63"/>
<polygon fill="black" stroke="black" points="1338.79,-1941.36 1344.24,-1932.27 1334.32,-1935.98 1338.79,-1941.36"/>
</g>
<!-- j173255361 -->
<g id="node37" class="node">
<title>j173255361</title>
<polygon fill="none" stroke="blue" points="1698.5,-1985 1570.5,-1985 1570.5,-1949 1698.5,-1949 1698.5,-1985"/>
<text text-anchor="middle" x="1634.5" y="-1963.3" font-family="Times New Roman,serif" font-size="14.00">l4m3s4uc3 ダッサ</text>
</g>
<!-- j1585967969&#45;&gt;j173255361 -->
<g id="edge42" class="edge">
<title>j1585967969&#45;&gt;j173255361</title>
<path fill="none" stroke="black" d="M1633.61,-2110.57C1633.78,-2083.16 1634.11,-2029.69 1634.32,-1996.59"/>
<polygon fill="black" stroke="black" points="1637.82,-1996.94 1634.38,-1986.92 1630.82,-1996.9 1637.82,-1996.94"/>
</g>
<!-- j3079848376&#45;&gt;j630337600 -->
<g id="edge43" class="edge">
<title>j3079848376&#45;&gt;j630337600</title>
<path fill="none" stroke="black" d="M834.75,-1386.81C842.26,-1378.35 851.46,-1367.98 859.77,-1358.61"/>
<polygon fill="black" stroke="black" points="862.37,-1360.96 866.39,-1351.16 857.13,-1356.32 862.37,-1360.96"/>
</g>
<!-- j3028194288 -->
<g id="node38" class="node">
<title>j3028194288</title>
<polygon fill="none" stroke="blue" points="1135,-1204 630,-1204 630,-1168 1135,-1168 1135,-1204"/>
<text text-anchor="middle" x="882.5" y="-1182.3" font-family="Times New Roman,serif" font-size="14.00">けどマジで難題に直面してるんだ、あれだ、一帯を動き回るのにさ？</text>
</g>
<!-- j3938089275&#45;&gt;j3028194288 -->
<g id="edge44" class="edge">
<title>j3938089275&#45;&gt;j3028194288</title>
<path fill="none" stroke="black" d="M882.5,-1240.81C882.5,-1233.23 882.5,-1224.1 882.5,-1215.54"/>
<polygon fill="black" stroke="black" points="886,-1215.54 882.5,-1205.54 879,-1215.54 886,-1215.54"/>
</g>
<!-- j1434844915&#45;&gt;j3842092833 -->
<g id="edge45" class="edge">
<title>j1434844915&#45;&gt;j3842092833</title>
<path fill="none" stroke="black" d="M1366.5,-2002.97C1366.5,-1986.76 1366.5,-1962.06 1366.5,-1942.79"/>
<polygon fill="black" stroke="black" points="1370,-1942.85 1366.5,-1932.85 1363,-1942.85 1370,-1942.85"/>
</g>
<!-- j3803240972 -->
<g id="node39" class="node">
<title>j3803240972</title>
<polygon fill="none" stroke="blue" points="1602,-1858 1187,-1858 1187,-1822 1602,-1822 1602,-1858"/>
<text text-anchor="middle" x="1394.5" y="-1836.3" font-family="Times New Roman,serif" font-size="14.00">僕が君に9000mphでがなり立てて問題点バンバン言うから</text>
</g>
<!-- j3842092833&#45;&gt;j3803240972 -->
<g id="edge46" class="edge">
<title>j3842092833&#45;&gt;j3803240972</title>
<path fill="none" stroke="black" d="M1373.28,-1894.81C1376.37,-1886.96 1380.12,-1877.47 1383.59,-1868.66"/>
<polygon fill="black" stroke="black" points="1386.82,-1870.02 1387.23,-1859.44 1380.3,-1867.46 1386.82,-1870.02"/>
</g>
<!-- j173255361&#45;&gt;Chat ends. -->
<g id="edge47" class="edge">
<title>j173255361&#45;&gt;Chat ends.</title>
<path fill="none" stroke="black" d="M1634.5,-1948.61C1634.5,-1930.66 1634.5,-1901.88 1634.5,-1877 1634.5,-1877 1634.5,-1877 1634.5,-90 1634.5,-64.46 1612,-46.81 1589.25,-35.5"/>
<polygon fill="black" stroke="black" points="1590.79,-32.36 1580.24,-31.38 1587.87,-38.72 1590.79,-32.36"/>
</g>
<!-- j451812106 -->
<g id="node40" class="node">
<title>j451812106</title>
<polygon fill="none" stroke="red" points="1147,-1131 1052,-1131 1052,-1095 1147,-1095 1147,-1131"/>
<text text-anchor="middle" x="1099.5" y="-1109.3" font-family="Times New Roman,serif" font-size="14.00">なるほど。</text>
</g>
<!-- j3028194288&#45;&gt;j451812106 -->
<g id="edge48" class="edge">
<title>j3028194288&#45;&gt;j451812106</title>
<path fill="none" stroke="black" d="M935.86,-1167.54C967.66,-1157.14 1008.05,-1143.92 1040.76,-1133.22"/>
<polygon fill="black" stroke="black" points="1041.67,-1136.6 1050.09,-1130.17 1039.5,-1129.95 1041.67,-1136.6"/>
</g>
<!-- j573456525 -->
<g id="node41" class="node">
<title>j573456525</title>
<polygon fill="none" stroke="red" points="1033.5,-1131 701.5,-1131 701.5,-1095 1033.5,-1095 1033.5,-1131"/>
<text text-anchor="middle" x="867.5" y="-1109.3" font-family="Times New Roman,serif" font-size="14.00">この会話がどうなっていくのかピンと来た。</text>
</g>
<!-- j3028194288&#45;&gt;j573456525 -->
<g id="edge49" class="edge">
<title>j3028194288&#45;&gt;j573456525</title>
<path fill="none" stroke="black" d="M878.87,-1167.81C877.25,-1160.14 875.29,-1150.89 873.47,-1142.24"/>
<polygon fill="black" stroke="black" points="876.9,-1141.57 871.41,-1132.51 870.05,-1143.02 876.9,-1141.57"/>
</g>
<!-- j701061811 -->
<g id="node42" class="node">
<title>j701061811</title>
<polygon fill="none" stroke="red" points="1332,-1785 1097,-1785 1097,-1749 1332,-1749 1332,-1785"/>
<text text-anchor="middle" x="1214.5" y="-1763.3" font-family="Times New Roman,serif" font-size="14.00">いつもと…　どう違うって？ :P</text>
</g>
<!-- j3803240972&#45;&gt;j701061811 -->
<g id="edge50" class="edge">
<title>j3803240972&#45;&gt;j701061811</title>
<path fill="none" stroke="black" d="M1350.47,-1821.63C1325.95,-1811.96 1295.22,-1799.84 1269.17,-1789.56"/>
<polygon fill="black" stroke="black" points="1270.7,-1786.4 1260.11,-1785.99 1268.13,-1792.92 1270.7,-1786.4"/>
</g>
<!-- j3249174365 -->
<g id="node43" class="node">
<title>j3249174365</title>
<polygon fill="none" stroke="red" points="1461,-1785 1350,-1785 1350,-1749 1461,-1749 1461,-1785"/>
<text text-anchor="middle" x="1405.5" y="-1763.3" font-family="Times New Roman,serif" font-size="14.00">楽しそうだ。</text>
</g>
<!-- j3803240972&#45;&gt;j3249174365 -->
<g id="edge51" class="edge">
<title>j3803240972&#45;&gt;j3249174365</title>
<path fill="none" stroke="black" d="M1397.16,-1821.81C1398.35,-1814.14 1399.78,-1804.89 1401.12,-1796.24"/>
<polygon fill="black" stroke="black" points="1404.56,-1796.94 1402.63,-1786.52 1397.64,-1795.87 1404.56,-1796.94"/>
</g>
<!-- j904844238 -->
<g id="node44" class="node">
<title>j904844238</title>
<polygon fill="none" stroke="red" points="1619,-1731 1406,-1731 1406,-1695 1619,-1695 1619,-1731"/>
<text text-anchor="middle" x="1512.5" y="-1709.3" font-family="Times New Roman,serif" font-size="14.00">考え直す事にした…[閉じる]</text>
</g>
<!-- j3803240972&#45;&gt;j904844238 -->
<g id="edge52" class="edge">
<title>j3803240972&#45;&gt;j904844238</title>
<path fill="none" stroke="black" d="M1424.93,-1821.58C1439.83,-1812.05 1457.35,-1799.3 1470.5,-1785 1482.32,-1772.15 1492.41,-1755.43 1499.73,-1741.45"/>
<polygon fill="black" stroke="black" points="1502.74,-1743.26 1504.1,-1732.75 1496.48,-1740.12 1502.74,-1743.26"/>
</g>
<!-- j2408679192 -->
<g id="node45" class="node">
<title>j2408679192</title>
<polygon fill="none" stroke="blue" points="1372,-1058 615,-1058 615,-1022 1372,-1022 1372,-1058"/>
<text text-anchor="middle" x="993.5" y="-1036.3" font-family="Times New Roman,serif" font-size="14.00">床に張り付いたまま動いて撃つなんて建物とかクールなものがあるのにめっちゃ制限感がありそうじゃん</text>
</g>
<!-- j451812106&#45;&gt;j2408679192 -->
<g id="edge53" class="edge">
<title>j451812106&#45;&gt;j2408679192</title>
<path fill="none" stroke="black" d="M1073.57,-1094.63C1060.09,-1085.61 1043.43,-1074.44 1028.8,-1064.64"/>
<polygon fill="black" stroke="black" points="1031.04,-1061.93 1020.79,-1059.28 1027.15,-1067.75 1031.04,-1061.93"/>
</g>
<!-- j573456525&#45;&gt;j2408679192 -->
<g id="edge54" class="edge">
<title>j573456525&#45;&gt;j2408679192</title>
<path fill="none" stroke="black" d="M898.32,-1094.63C914.65,-1085.43 934.91,-1074.02 952.53,-1064.08"/>
<polygon fill="black" stroke="black" points="954.25,-1067.14 961.24,-1059.18 950.81,-1061.04 954.25,-1067.14"/>
</g>
<!-- j630338587 -->
<g id="node46" class="node">
<title>j630338587</title>
<polygon fill="none" stroke="blue" points="1264.5,-1677 1184.5,-1677 1184.5,-1641 1264.5,-1641 1264.5,-1677"/>
<text text-anchor="middle" x="1224.5" y="-1655.3" font-family="Times New Roman,serif" font-size="14.00">ぐえー笑</text>
</g>
<!-- j701061811&#45;&gt;j630338587 -->
<g id="edge55" class="edge">
<title>j701061811&#45;&gt;j630338587</title>
<path fill="none" stroke="black" d="M1216.11,-1748.97C1217.64,-1732.76 1219.97,-1708.06 1221.78,-1688.79"/>
<polygon fill="black" stroke="black" points="1225.27,-1689.13 1222.72,-1678.85 1218.3,-1688.47 1225.27,-1689.13"/>
</g>
<!-- j673951780 -->
<g id="node47" class="node">
<title>j673951780</title>
<ellipse fill="none" stroke="orange" cx="1390.5" cy="-1659" rx="64.19" ry="18"/>
<text text-anchor="middle" x="1390.5" y="-1655.3" font-family="Times New Roman,serif" font-size="14.00">+10 Chemistry</text>
</g>
<!-- j3249174365&#45;&gt;j673951780 -->
<g id="edge56" class="edge">
<title>j3249174365&#45;&gt;j673951780</title>
<path fill="none" stroke="black" d="M1403.09,-1748.97C1400.79,-1732.69 1397.27,-1707.82 1394.54,-1688.52"/>
<polygon fill="black" stroke="black" points="1398.03,-1688.25 1393.17,-1678.84 1391.1,-1689.23 1398.03,-1688.25"/>
</g>
<!-- j904844238&#45;&gt;Chat ends. -->
<g id="edge57" class="edge">
<title>j904844238&#45;&gt;Chat ends.</title>
<path fill="none" stroke="black" d="M1522.16,-1694.52C1530.93,-1676.98 1542.5,-1648.93 1542.5,-1623 1542.5,-1623 1542.5,-1623 1542.5,-90 1542.5,-76.08 1542.5,-60.63 1542.5,-47.7"/>
<polygon fill="black" stroke="black" points="1546,-47.73 1542.5,-37.73 1539,-47.73 1546,-47.73"/>
</g>
<!-- j2491390015 -->
<g id="node48" class="node">
<title>j2491390015</title>
<polygon fill="none" stroke="blue" points="1514,-985 473,-985 473,-949 1514,-949 1514,-985"/>
<text text-anchor="middle" x="993.5" y="-963.3" font-family="Times New Roman,serif" font-size="14.00">それでこれはサイドスクロールとして始めたんだけどでも3Dで本当に超クールなものがあって完全に心に刺さってそれでプレイしたくなったんだ</text>
</g>
<!-- j2408679192&#45;&gt;j2491390015 -->
<g id="edge58" class="edge">
<title>j2408679192&#45;&gt;j2491390015</title>
<path fill="none" stroke="black" d="M993.5,-1021.81C993.5,-1014.23 993.5,-1005.1 993.5,-996.54"/>
<polygon fill="black" stroke="black" points="997,-996.54 993.5,-986.54 990,-996.54 997,-996.54"/>
</g>
<!-- j1298969003 -->
<g id="node49" class="node">
<title>j1298969003</title>
<polygon fill="none" stroke="blue" points="1354.5,-1604 1148.5,-1604 1148.5,-1568 1354.5,-1568 1354.5,-1604"/>
<text text-anchor="middle" x="1251.5" y="-1582.3" font-family="Times New Roman,serif" font-size="14.00">はいはいそうですよハハｈ</text>
</g>
<!-- j630338587&#45;&gt;j1298969003 -->
<g id="edge59" class="edge">
<title>j630338587&#45;&gt;j1298969003</title>
<path fill="none" stroke="black" d="M1231.04,-1640.81C1234.02,-1632.96 1237.63,-1623.47 1240.98,-1614.66"/>
<polygon fill="black" stroke="black" points="1244.2,-1616.03 1244.49,-1605.44 1237.66,-1613.55 1244.2,-1616.03"/>
</g>
<!-- j1434865173 -->
<g id="node50" class="node">
<title>j1434865173</title>
<polygon fill="none" stroke="blue" points="1460.5,-1550 1320.5,-1550 1320.5,-1514 1460.5,-1514 1460.5,-1550"/>
<text text-anchor="middle" x="1390.5" y="-1528.3" font-family="Times New Roman,serif" font-size="14.00">okokじゃあやろう</text>
</g>
<!-- j673951780&#45;&gt;j1434865173 -->
<g id="edge60" class="edge">
<title>j673951780&#45;&gt;j1434865173</title>
<path fill="none" stroke="black" d="M1390.5,-1640.62C1390.5,-1620.19 1390.5,-1585.99 1390.5,-1561.62"/>
<polygon fill="black" stroke="black" points="1394,-1561.75 1390.5,-1551.75 1387,-1561.75 1394,-1561.75"/>
</g>
<!-- j2191352905 -->
<g id="node51" class="node">
<title>j2191352905</title>
<polygon fill="none" stroke="red" points="1020.5,-912 966.5,-912 966.5,-876 1020.5,-876 1020.5,-912"/>
<text text-anchor="middle" x="993.5" y="-890.3" font-family="Times New Roman,serif" font-size="14.00">Amir</text>
</g>
<!-- j2491390015&#45;&gt;j2191352905 -->
<g id="edge61" class="edge">
<title>j2491390015&#45;&gt;j2191352905</title>
<path fill="none" stroke="black" d="M987.62,-948.81C986.82,-941.14 986.57,-931.89 986.88,-923.24"/>
<polygon fill="black" stroke="black" points="990.35,-923.75 987.54,-913.54 983.37,-923.28 990.35,-923.75"/>
</g>
<!-- j2491390015&#45;&gt;j2191352905 -->
<g id="edge62" class="edge">
<title>j2491390015&#45;&gt;j2191352905</title>
<path fill="none" stroke="black" d="M999.38,-948.81C1000.18,-941.14 1000.43,-931.89 1000.12,-923.24"/>
<polygon fill="black" stroke="black" points="1003.63,-923.28 999.46,-913.54 996.65,-923.75 1003.63,-923.28"/>
</g>
<!-- j4070265323 -->
<g id="node52" class="node">
<title>j4070265323</title>
<ellipse fill="none" stroke="orange" cx="1299.5" cy="-1478" rx="64.19" ry="18"/>
<text text-anchor="middle" x="1299.5" y="-1474.3" font-family="Times New Roman,serif" font-size="14.00">+10 Chemistry</text>
</g>
<!-- j1298969003&#45;&gt;j4070265323 -->
<g id="edge63" class="edge">
<title>j1298969003&#45;&gt;j4070265323</title>
<path fill="none" stroke="black" d="M1259.21,-1567.97C1266.69,-1551.45 1278.16,-1526.12 1286.96,-1506.7"/>
<polygon fill="black" stroke="black" points="1290.09,-1508.27 1291.02,-1497.72 1283.71,-1505.39 1290.09,-1508.27"/>
</g>
<!-- j1434865173&#45;&gt;j630337600 -->
<g id="edge64" class="edge">
<title>j1434865173&#45;&gt;j630337600</title>
<path fill="none" stroke="black" d="M1390.77,-1513.81C1390.21,-1482.77 1384.09,-1417.75 1344.5,-1387 1317.96,-1366.38 1259.83,-1353.46 1193.46,-1345.41"/>
<polygon fill="black" stroke="black" points="1194.15,-1341.97 1183.81,-1344.29 1193.34,-1348.92 1194.15,-1341.97"/>
</g>
<!-- j1058958328 -->
<g id="node53" class="node">
<title>j1058958328</title>
<polygon fill="none" stroke="blue" points="1441,-839 652,-839 652,-803 1441,-803 1441,-839"/>
<text text-anchor="middle" x="1046.5" y="-817.3" font-family="Times New Roman,serif" font-size="14.00">だから全部3Dにしたらさ建物が超クールになったんだけど全部狭くなって地面近くにへばりついてるんだでも</text>
</g>
<!-- j2191352905&#45;&gt;j1058958328 -->
<g id="edge65" class="edge">
<title>j2191352905&#45;&gt;j1058958328</title>
<path fill="none" stroke="black" d="M1006.33,-875.81C1012.51,-867.53 1020.07,-857.41 1026.95,-848.19"/>
<polygon fill="black" stroke="black" points="1029.71,-850.35 1032.88,-840.24 1024.1,-846.16 1029.71,-850.35"/>
</g>
<!-- j3060208647 -->
<g id="node54" class="node">
<title>j3060208647</title>
<polygon fill="none" stroke="blue" points="1335,-1423 1224,-1423 1224,-1387 1335,-1387 1335,-1423"/>
<text text-anchor="middle" x="1279.5" y="-1401.3" font-family="Times New Roman,serif" font-size="14.00">でもキッツ笑</text>
</g>
<!-- j4070265323&#45;&gt;j3060208647 -->
<g id="edge66" class="edge">
<title>j4070265323&#45;&gt;j3060208647</title>
<path fill="none" stroke="black" d="M1294.66,-1459.81C1292.47,-1452.05 1289.83,-1442.68 1287.37,-1433.95"/>
<polygon fill="black" stroke="black" points="1290.79,-1433.16 1284.71,-1424.49 1284.05,-1435.06 1290.79,-1433.16"/>
</g>
<!-- j4287891116 -->
<g id="node55" class="node">
<title>j4287891116</title>
<polygon fill="none" stroke="blue" points="1490,-766 639,-766 639,-730 1490,-730 1490,-766"/>
<text text-anchor="middle" x="1064.5" y="-744.3" font-family="Times New Roman,serif" font-size="14.00">代わりに何すればいいか分からないよダッシュとかダブルジャンプとかいつものスタミナ系要素とか制限感あるしあと</text>
</g>
<!-- j1058958328&#45;&gt;j4287891116 -->
<g id="edge67" class="edge">
<title>j1058958328&#45;&gt;j4287891116</title>
<path fill="none" stroke="black" d="M1050.86,-802.81C1052.83,-795.05 1055.2,-785.68 1057.41,-776.95"/>
<polygon fill="black" stroke="black" points="1060.75,-778.05 1059.81,-767.5 1053.96,-776.33 1060.75,-778.05"/>
</g>
<!-- j3060208647&#45;&gt;j630337600 -->
<g id="edge68" class="edge">
<title>j3060208647&#45;&gt;j630337600</title>
<path fill="none" stroke="black" d="M1223.88,-1394.05C1163.78,-1383.3 1066.5,-1365.91 991.13,-1352.43"/>
<polygon fill="black" stroke="black" points="992.12,-1349.05 981.66,-1350.73 990.89,-1355.94 992.12,-1349.05"/>
</g>
<!-- j947975168 -->
<g id="node56" class="node">
<title>j947975168</title>
<polygon fill="none" stroke="red" points="1091.5,-693 1037.5,-693 1037.5,-657 1091.5,-657 1091.5,-693"/>
<text text-anchor="middle" x="1064.5" y="-671.3" font-family="Times New Roman,serif" font-size="14.00">Amir</text>
</g>
<!-- j4287891116&#45;&gt;j947975168 -->
<g id="edge69" class="edge">
<title>j4287891116&#45;&gt;j947975168</title>
<path fill="none" stroke="black" d="M1058.62,-729.81C1057.82,-722.14 1057.57,-712.89 1057.88,-704.24"/>
<polygon fill="black" stroke="black" points="1061.35,-704.75 1058.54,-694.54 1054.37,-704.28 1061.35,-704.75"/>
</g>
<!-- j4287891116&#45;&gt;j947975168 -->
<g id="edge70" class="edge">
<title>j4287891116&#45;&gt;j947975168</title>
<path fill="none" stroke="black" d="M1070.38,-729.81C1071.18,-722.14 1071.43,-712.89 1071.12,-704.24"/>
<polygon fill="black" stroke="black" points="1074.63,-704.28 1070.46,-694.54 1067.65,-704.75 1074.63,-704.28"/>
</g>
<!-- j1525759372 -->
<g id="node57" class="node">
<title>j1525759372</title>
<polygon fill="none" stroke="blue" points="1350.5,-620 782.5,-620 782.5,-584 1350.5,-584 1350.5,-620"/>
<text text-anchor="middle" x="1066.5" y="-598.3" font-family="Times New Roman,serif" font-size="14.00">答えは僕の直ぐ目の前にあるって感じだけど何故か見逃してるんだよなでもさ</text>
</g>
<!-- j947975168&#45;&gt;j1525759372 -->
<g id="edge71" class="edge">
<title>j947975168&#45;&gt;j1525759372</title>
<path fill="none" stroke="black" d="M1064.98,-656.81C1065.2,-649.14 1065.46,-639.89 1065.7,-631.24"/>
<polygon fill="black" stroke="black" points="1069.19,-631.64 1065.98,-621.54 1062.2,-631.44 1069.19,-631.64"/>
</g>
<!-- j2993223028 -->
<g id="node58" class="node">
<title>j2993223028</title>
<polygon fill="none" stroke="red" points="1093.5,-547 1039.5,-547 1039.5,-511 1093.5,-511 1093.5,-547"/>
<text text-anchor="middle" x="1066.5" y="-525.3" font-family="Times New Roman,serif" font-size="14.00">AMIR</text>
</g>
<!-- j1525759372&#45;&gt;j2993223028 -->
<g id="edge72" class="edge">
<title>j1525759372&#45;&gt;j2993223028</title>
<path fill="none" stroke="black" d="M1060.62,-583.81C1059.82,-576.14 1059.57,-566.89 1059.88,-558.24"/>
<polygon fill="black" stroke="black" points="1063.35,-558.75 1060.54,-548.54 1056.37,-558.28 1063.35,-558.75"/>
</g>
<!-- j1525759372&#45;&gt;j2993223028 -->
<g id="edge73" class="edge">
<title>j1525759372&#45;&gt;j2993223028</title>
<path fill="none" stroke="black" d="M1072.38,-583.81C1073.18,-576.14 1073.43,-566.89 1073.12,-558.24"/>
<polygon fill="black" stroke="black" points="1076.63,-558.28 1072.46,-548.54 1069.65,-558.75 1076.63,-558.28"/>
</g>
<!-- j2097432431 -->
<g id="node59" class="node">
<title>j2097432431</title>
<polygon fill="none" stroke="blue" points="1109.5,-474 1029.5,-474 1029.5,-438 1109.5,-438 1109.5,-474"/>
<text text-anchor="middle" x="1069.5" y="-452.3" font-family="Times New Roman,serif" font-size="14.00">なに！？</text>
</g>
<!-- j2993223028&#45;&gt;j2097432431 -->
<g id="edge74" class="edge">
<title>j2993223028&#45;&gt;j2097432431</title>
<path fill="none" stroke="black" d="M1067.23,-510.81C1067.55,-503.14 1067.94,-493.89 1068.31,-485.24"/>
<polygon fill="black" stroke="black" points="1071.79,-485.68 1068.72,-475.54 1064.8,-485.38 1071.79,-485.68"/>
</g>
<!-- j4259384603 -->
<g id="node60" class="node">
<title>j4259384603</title>
<polygon fill="none" stroke="red" points="1190.5,-401 980.5,-401 980.5,-365 1190.5,-365 1190.5,-401"/>
<text text-anchor="middle" x="1085.5" y="-379.3" font-family="Times New Roman,serif" font-size="14.00">それwarframeにしてみよう。</text>
</g>
<!-- j2097432431&#45;&gt;j4259384603 -->
<g id="edge75" class="edge">
<title>j2097432431&#45;&gt;j4259384603</title>
<path fill="none" stroke="black" d="M1073.37,-437.81C1075.1,-430.14 1077.19,-420.89 1079.14,-412.24"/>
<polygon fill="black" stroke="black" points="1082.55,-413.03 1081.33,-402.51 1075.72,-411.49 1082.55,-413.03"/>
</g>
<!-- j819969601 -->
<g id="node61" class="node">
<title>j819969601</title>
<polygon fill="none" stroke="blue" points="1139.5,-328 1077.5,-328 1077.5,-292 1139.5,-292 1139.5,-328"/>
<text text-anchor="middle" x="1108.5" y="-306.3" font-family="Times New Roman,serif" font-size="14.00">…ワオ</text>
</g>
<!-- j4259384603&#45;&gt;j819969601 -->
<g id="edge76" class="edge">
<title>j4259384603&#45;&gt;j819969601</title>
<path fill="none" stroke="black" d="M1091.07,-364.81C1093.58,-357.05 1096.62,-347.68 1099.45,-338.95"/>
<polygon fill="black" stroke="black" points="1102.76,-340.06 1102.52,-329.47 1096.11,-337.9 1102.76,-340.06"/>
</g>
<!-- j2080279580 -->
<g id="node62" class="node">
<title>j2080279580</title>
<polygon fill="none" stroke="blue" points="1186.5,-255 1106.5,-255 1106.5,-219 1186.5,-219 1186.5,-255"/>
<text text-anchor="middle" x="1146.5" y="-233.3" font-family="Times New Roman,serif" font-size="14.00">天才だ！</text>
</g>
<!-- j819969601&#45;&gt;j2080279580 -->
<g id="edge77" class="edge">
<title>j819969601&#45;&gt;j2080279580</title>
<path fill="none" stroke="black" d="M1117.7,-291.81C1121.99,-283.79 1127.21,-274.05 1132.01,-265.07"/>
<polygon fill="black" stroke="black" points="1135.04,-266.83 1136.67,-256.36 1128.87,-263.53 1135.04,-266.83"/>
</g>
<!-- j599255107 -->
<g id="node63" class="node">
<title>j599255107</title>
<ellipse fill="none" stroke="orange" cx="1218.5" cy="-164" rx="64.19" ry="18"/>
<text text-anchor="middle" x="1218.5" y="-160.3" font-family="Times New Roman,serif" font-size="14.00">+10 Chemistry</text>
</g>
<!-- j2080279580&#45;&gt;j599255107 -->
<g id="edge78" class="edge">
<title>j2080279580&#45;&gt;j599255107</title>
<path fill="none" stroke="black" d="M1163.93,-218.81C1172.81,-210.05 1183.78,-199.24 1193.54,-189.61"/>
<polygon fill="black" stroke="black" points="1195.99,-192.12 1200.65,-182.6 1191.07,-187.13 1195.99,-192.12"/>
</g>
<!-- j2864669795 -->
<g id="node64" class="node">
<title>j2864669795</title>
<ellipse fill="none" stroke="orange" cx="1228.5" cy="-91" rx="146.47" ry="18"/>
<text text-anchor="middle" x="1228.5" y="-87.3" font-family="Times New Roman,serif" font-size="14.00">Boolean AmirGameDev3 is now true.</text>
</g>
<!-- j599255107&#45;&gt;j2864669795 -->
<g id="edge79" class="edge">
<title>j599255107&#45;&gt;j2864669795</title>
<path fill="none" stroke="black" d="M1220.92,-145.81C1222,-138.14 1223.3,-128.89 1224.52,-120.24"/>
<polygon fill="black" stroke="black" points="1227.96,-120.92 1225.89,-110.53 1221.03,-119.94 1227.96,-120.92"/>
</g>
<!-- j2864669795&#45;&gt;Chat ends. -->
<g id="edge80" class="edge">
<title>j2864669795&#45;&gt;Chat ends.</title>
<path fill="none" stroke="black" d="M1296.25,-74.68C1354.19,-61.58 1436.43,-42.98 1489.63,-30.96"/>
<polygon fill="black" stroke="black" points="1490.39,-34.37 1499.37,-28.75 1488.84,-27.54 1490.39,-34.37"/>
</g>
</g>
</svg>
