<?xml version="1.0" encoding="UTF-8" standalone="no"?>
<!DOCTYPE svg PUBLIC "-//W3C//DTD SVG 1.1//EN"
 "http://www.w3.org/Graphics/SVG/1.1/DTD/svg11.dtd">
<!-- Generated by graphviz version 7.1.0 (20230121.1956)
 -->
<!-- Pages: 1 -->
<svg width="2278pt" height="1775pt"
 viewBox="0.00 0.00 2278.00 1775.00" xmlns="http://www.w3.org/2000/svg" xmlns:xlink="http://www.w3.org/1999/xlink">
<g id="graph0" class="graph" transform="scale(1 1) rotate(0) translate(4 1771)">
<polygon fill="white" stroke="none" points="-4,4 -4,-1771 2274,-1771 2274,4 -4,4"/>
<!-- LettieRank2Convo5 begins. -->
<g id="node1" class="node">
<title>LettieRank2Convo5 begins.</title>
<ellipse fill="none" stroke="orange" cx="276.5" cy="-1749" rx="111.58" ry="18"/>
<text text-anchor="middle" x="276.5" y="-1745.3" font-family="Times New Roman,serif" font-size="14.00">LettieRank2Convo5 begins.</text>
</g>
<!-- j196266285 -->
<g id="node2" class="node">
<title>j196266285</title>
<polygon fill="none" stroke="red" points="730.5,-1694 472.5,-1694 472.5,-1658 730.5,-1658 730.5,-1694"/>
<text text-anchor="middle" x="601.5" y="-1672.3" font-family="Times New Roman,serif" font-size="14.00">Więc... o co poszło między tobą i Eleanor?</text>
</g>
<!-- LettieRank2Convo5 begins.&#45;&gt;j196266285 -->
<g id="edge1" class="edge">
<title>LettieRank2Convo5 begins.&#45;&gt;j196266285</title>
<path fill="none" stroke="black" d="M341.1,-1733.89C389.59,-1723.29 456.63,-1708.65 510.54,-1696.87"/>
<polygon fill="black" stroke="black" points="510.98,-1700.36 520,-1694.8 509.49,-1693.52 510.98,-1700.36"/>
</g>
<!-- j3898679762 -->
<g id="node3" class="node">
<title>j3898679762</title>
<polygon fill="none" stroke="red" points="404.5,-1694 148.5,-1694 148.5,-1658 404.5,-1658 404.5,-1694"/>
<text text-anchor="middle" x="276.5" y="-1672.3" font-family="Times New Roman,serif" font-size="14.00">Myślę, że musisz trochę odpuścić Eleanor.</text>
</g>
<!-- LettieRank2Convo5 begins.&#45;&gt;j3898679762 -->
<g id="edge2" class="edge">
<title>LettieRank2Convo5 begins.&#45;&gt;j3898679762</title>
<path fill="none" stroke="black" d="M276.5,-1730.81C276.5,-1723.23 276.5,-1714.1 276.5,-1705.54"/>
<polygon fill="black" stroke="black" points="280,-1705.54 276.5,-1695.54 273,-1705.54 280,-1705.54"/>
</g>
<!-- j3747364732 -->
<g id="node4" class="node">
<title>j3747364732</title>
<polygon fill="none" stroke="red" points="65,-1640 0,-1640 0,-1604 65,-1604 65,-1640"/>
<text text-anchor="middle" x="32.5" y="-1618.3" font-family="Times New Roman,serif" font-size="14.00">[Ignoruj]</text>
</g>
<!-- LettieRank2Convo5 begins.&#45;&gt;j3747364732 -->
<g id="edge3" class="edge">
<title>LettieRank2Convo5 begins.&#45;&gt;j3747364732</title>
<path fill="none" stroke="black" d="M229.45,-1732.23C202.5,-1722.52 168.4,-1709.07 139.5,-1694 113.22,-1680.3 85.38,-1661.68 64.68,-1646.94"/>
<polygon fill="black" stroke="black" points="66.81,-1644.16 56.65,-1641.16 62.72,-1649.84 66.81,-1644.16"/>
</g>
<!-- j473254180 -->
<g id="node5" class="node">
<title>j473254180</title>
<polygon fill="none" stroke="blue" points="805.5,-1515 509.5,-1515 509.5,-1447 805.5,-1447 805.5,-1515"/>
<text text-anchor="middle" x="657.5" y="-1499.8" font-family="Times New Roman,serif" font-size="14.00">Wszyscy staliśmy się potworami &#13;</text>
<text text-anchor="middle" x="657.5" y="-1484.8" font-family="Times New Roman,serif" font-size="14.00">Ale ta bruja cieszy się z tej zmiany &#13;</text>
<text text-anchor="middle" x="657.5" y="-1469.8" font-family="Times New Roman,serif" font-size="14.00">Mieszanie w mojej głowie sprawia jej przyjemność&#13;</text>
<text text-anchor="middle" x="657.5" y="-1454.8" font-family="Times New Roman,serif" font-size="14.00">Widzi za dużo i myśli, że wie wszystko</text>
</g>
<!-- j196266285&#45;&gt;j473254180 -->
<g id="edge4" class="edge">
<title>j196266285&#45;&gt;j473254180</title>
<path fill="none" stroke="black" d="M606.57,-1657.53C615.1,-1628.12 632.59,-1567.86 644.67,-1526.21"/>
<polygon fill="black" stroke="black" points="648,-1527.3 647.43,-1516.72 641.28,-1525.35 648,-1527.3"/>
</g>
<!-- j3950519594 -->
<g id="node6" class="node">
<title>j3950519594</title>
<polygon fill="none" stroke="blue" points="406,-1586 147,-1586 147,-1533 406,-1533 406,-1586"/>
<text text-anchor="middle" x="276.5" y="-1570.8" font-family="Times New Roman,serif" font-size="14.00">¿Ay, sí? &#13;</text>
<text text-anchor="middle" x="276.5" y="-1555.8" font-family="Times New Roman,serif" font-size="14.00">A dlaczego?&#13;</text>
<text text-anchor="middle" x="276.5" y="-1540.8" font-family="Times New Roman,serif" font-size="14.00">Czy ta bruja przysłała cię w swoim imieniu?</text>
</g>
<!-- j3898679762&#45;&gt;j3950519594 -->
<g id="edge5" class="edge">
<title>j3898679762&#45;&gt;j3950519594</title>
<path fill="none" stroke="black" d="M276.5,-1657.61C276.5,-1641.71 276.5,-1617.67 276.5,-1597.49"/>
<polygon fill="black" stroke="black" points="280,-1597.66 276.5,-1587.66 273,-1597.66 280,-1597.66"/>
</g>
<!-- Chat ends. -->
<g id="node7" class="node">
<title>Chat ends.</title>
<ellipse fill="none" stroke="orange" cx="227.5" cy="-18" rx="50.09" ry="18"/>
<text text-anchor="middle" x="227.5" y="-14.3" font-family="Times New Roman,serif" font-size="14.00">Chat ends.</text>
</g>
<!-- j3747364732&#45;&gt;Chat ends. -->
<g id="edge6" class="edge">
<title>j3747364732&#45;&gt;Chat ends.</title>
<path fill="none" stroke="black" d="M26.91,-1603.66C19,-1577.56 5.5,-1526.5 5.5,-1482 5.5,-1482 5.5,-1482 5.5,-98.5 5.5,-63.43 104.94,-39.69 170.72,-27.83"/>
<polygon fill="black" stroke="black" points="171.04,-31.32 180.28,-26.15 169.83,-24.43 171.04,-31.32"/>
</g>
<!-- j3667091867 -->
<g id="node8" class="node">
<title>j3667091867</title>
<polygon fill="none" stroke="blue" points="856,-1348.5 601,-1348.5 601,-1295.5 856,-1295.5 856,-1348.5"/>
<text text-anchor="middle" x="728.5" y="-1333.3" font-family="Times New Roman,serif" font-size="14.00">Nawet jeśli nigdy nie obróci się w Techrot &#13;</text>
<text text-anchor="middle" x="728.5" y="-1318.3" font-family="Times New Roman,serif" font-size="14.00">I zostanie jaka już jest&#13;</text>
<text text-anchor="middle" x="728.5" y="-1303.3" font-family="Times New Roman,serif" font-size="14.00">Ta bruja bawi się za dobrze</text>
</g>
<!-- j473254180&#45;&gt;j3667091867 -->
<g id="edge7" class="edge">
<title>j473254180&#45;&gt;j3667091867</title>
<path fill="none" stroke="black" d="M672.56,-1446.7C684.15,-1421.07 700.15,-1385.69 712.07,-1359.32"/>
<polygon fill="black" stroke="black" points="715.19,-1360.92 716.12,-1350.37 708.81,-1358.04 715.19,-1360.92"/>
</g>
<!-- j713104246 -->
<g id="node9" class="node">
<title>j713104246</title>
<polygon fill="none" stroke="red" points="582.5,-1340 406.5,-1340 406.5,-1304 582.5,-1304 582.5,-1340"/>
<text text-anchor="middle" x="494.5" y="-1318.3" font-family="Times New Roman,serif" font-size="14.00">Nie, to moja własna decyzja.</text>
</g>
<!-- j3950519594&#45;&gt;j713104246 -->
<g id="edge8" class="edge">
<title>j3950519594&#45;&gt;j713104246</title>
<path fill="none" stroke="black" d="M312.12,-1532.51C344.25,-1508.01 391.67,-1469.15 426.5,-1429 447.9,-1404.33 467.47,-1372.37 480.07,-1350.02"/>
<polygon fill="black" stroke="black" points="482.99,-1351.96 484.77,-1341.52 476.87,-1348.57 482.99,-1351.96"/>
</g>
<!-- j2708417081 -->
<g id="node10" class="node">
<title>j2708417081</title>
<polygon fill="none" stroke="red" points="417.5,-1429 47.5,-1429 47.5,-1393 417.5,-1393 417.5,-1429"/>
<text text-anchor="middle" x="232.5" y="-1407.3" font-family="Times New Roman,serif" font-size="14.00">To nie ma znaczenia. Nadal uważam, że powinnaś jej odpuścić.</text>
</g>
<!-- j3950519594&#45;&gt;j2708417081 -->
<g id="edge9" class="edge">
<title>j3950519594&#45;&gt;j2708417081</title>
<path fill="none" stroke="black" d="M268.73,-1532.65C260.96,-1506.74 249.01,-1466.98 240.99,-1440.26"/>
<polygon fill="black" stroke="black" points="244.37,-1439.36 238.14,-1430.79 237.67,-1441.37 244.37,-1439.36"/>
</g>
<!-- j4211371414 -->
<g id="node11" class="node">
<title>j4211371414</title>
<polygon fill="none" stroke="red" points="927,-1251 530,-1251 530,-1215 927,-1215 927,-1251"/>
<text text-anchor="middle" x="728.5" y="-1229.3" font-family="Times New Roman,serif" font-size="14.00">To, że pogodziła się z tym, co się z nią stało, nie czyni jej złą osobą.</text>
</g>
<!-- j3667091867&#45;&gt;j4211371414 -->
<g id="edge10" class="edge">
<title>j3667091867&#45;&gt;j4211371414</title>
<path fill="none" stroke="black" d="M728.5,-1295.37C728.5,-1285.1 728.5,-1273.22 728.5,-1262.67"/>
<polygon fill="black" stroke="black" points="732,-1262.98 728.5,-1252.98 725,-1262.98 732,-1262.98"/>
</g>
<!-- j2726368447 -->
<g id="node12" class="node">
<title>j2726368447</title>
<polygon fill="none" stroke="red" points="511.5,-1251 191.5,-1251 191.5,-1215 511.5,-1215 511.5,-1251"/>
<text text-anchor="middle" x="351.5" y="-1229.3" font-family="Times New Roman,serif" font-size="14.00">Uważam, że nie jesteś wobec niej sprawiedliwa, Lettie.</text>
</g>
<!-- j3667091867&#45;&gt;j2726368447 -->
<g id="edge11" class="edge">
<title>j3667091867&#45;&gt;j2726368447</title>
<path fill="none" stroke="black" d="M621.59,-1295.08C611.42,-1292.67 601.27,-1290.28 591.5,-1288 542.03,-1276.48 486.74,-1264.01 441.7,-1253.96"/>
<polygon fill="black" stroke="black" points="442.48,-1250.55 431.95,-1251.79 440.95,-1257.38 442.48,-1250.55"/>
</g>
<!-- j713104246&#45;&gt;j4211371414 -->
<g id="edge13" class="edge">
<title>j713104246&#45;&gt;j4211371414</title>
<path fill="none" stroke="black" d="M541.29,-1303.6C578.68,-1289.7 631.24,-1270.16 671.15,-1255.32"/>
<polygon fill="black" stroke="black" points="672.22,-1258.66 680.37,-1251.89 669.78,-1252.1 672.22,-1258.66"/>
</g>
<!-- j713104246&#45;&gt;j2726368447 -->
<g id="edge12" class="edge">
<title>j713104246&#45;&gt;j2726368447</title>
<path fill="none" stroke="black" d="M465.91,-1303.6C444.08,-1290.33 413.8,-1271.9 389.87,-1257.34"/>
<polygon fill="black" stroke="black" points="391.7,-1254.36 381.34,-1252.15 388.06,-1260.34 391.7,-1254.36"/>
</g>
<!-- j202878353 -->
<g id="node13" class="node">
<title>j202878353</title>
<polygon fill="none" stroke="blue" points="388.5,-1356 52.5,-1356 52.5,-1288 388.5,-1288 388.5,-1356"/>
<text text-anchor="middle" x="220.5" y="-1340.8" font-family="Times New Roman,serif" font-size="14.00">Dlaczego miałabym to zrobić &#13;</text>
<text text-anchor="middle" x="220.5" y="-1325.8" font-family="Times New Roman,serif" font-size="14.00">W każdej chwili może zwariować i obrócić się w Techrot&#13;</text>
<text text-anchor="middle" x="220.5" y="-1310.8" font-family="Times New Roman,serif" font-size="14.00">I nawet jeśli tak się nie stanie, ta bruja bawi się za dobrze&#13;</text>
<text text-anchor="middle" x="220.5" y="-1295.8" font-family="Times New Roman,serif" font-size="14.00">Wszyscy jesteśmy potworami, ale jej się to PODOBA</text>
</g>
<!-- j2708417081&#45;&gt;j202878353 -->
<g id="edge14" class="edge">
<title>j2708417081&#45;&gt;j202878353</title>
<path fill="none" stroke="black" d="M230.13,-1392.81C229.12,-1385.5 227.89,-1376.6 226.66,-1367.63"/>
<polygon fill="black" stroke="black" points="230.14,-1367.29 225.31,-1357.86 223.21,-1368.24 230.14,-1367.29"/>
</g>
<!-- j3208750479 -->
<g id="node14" class="node">
<title>j3208750479</title>
<polygon fill="none" stroke="blue" points="981,-1178 476,-1178 476,-1125 981,-1125 981,-1178"/>
<text text-anchor="middle" x="728.5" y="-1162.8" font-family="Times New Roman,serif" font-size="14.00">Pogodzić się to jedno &#13;</text>
<text text-anchor="middle" x="728.5" y="-1147.8" font-family="Times New Roman,serif" font-size="14.00">Cieszyć się to drugie &#13;</text>
<text text-anchor="middle" x="728.5" y="-1132.8" font-family="Times New Roman,serif" font-size="14.00">A ona powinna przestać zachowywać się jak metiche i NIE WŁAZIĆ MI DO GŁOWY</text>
</g>
<!-- j4211371414&#45;&gt;j3208750479 -->
<g id="edge15" class="edge">
<title>j4211371414&#45;&gt;j3208750479</title>
<path fill="none" stroke="black" d="M728.5,-1214.75C728.5,-1207.38 728.5,-1198.48 728.5,-1189.74"/>
<polygon fill="black" stroke="black" points="732,-1190 728.5,-1180 725,-1190 732,-1190"/>
</g>
<!-- j3975665747 -->
<g id="node15" class="node">
<title>j3975665747</title>
<polygon fill="none" stroke="blue" points="446,-1170.5 333,-1170.5 333,-1132.5 446,-1132.5 446,-1170.5"/>
<text text-anchor="middle" x="389.5" y="-1155.3" font-family="Times New Roman,serif" font-size="14.00">¿Ay, sí, verdad? &#13;</text>
<text text-anchor="middle" x="389.5" y="-1140.3" font-family="Times New Roman,serif" font-size="14.00">Powiedz mi</text>
</g>
<!-- j2726368447&#45;&gt;j3975665747 -->
<g id="edge16" class="edge">
<title>j2726368447&#45;&gt;j3975665747</title>
<path fill="none" stroke="black" d="M359.75,-1214.75C364.44,-1204.92 370.45,-1192.36 375.83,-1181.09"/>
<polygon fill="black" stroke="black" points="378.93,-1182.72 380.09,-1172.19 372.62,-1179.7 378.93,-1182.72"/>
</g>
<!-- j202878353&#45;&gt;j4211371414 -->
<g id="edge18" class="edge">
<title>j202878353&#45;&gt;j4211371414</title>
<path fill="none" stroke="black" d="M388.65,-1289.55C391.62,-1289.03 394.57,-1288.51 397.5,-1288 466.49,-1275.94 543.72,-1263.3 606.21,-1253.27"/>
<polygon fill="black" stroke="black" points="606.49,-1256.77 615.81,-1251.74 605.38,-1249.86 606.49,-1256.77"/>
</g>
<!-- j202878353&#45;&gt;j2726368447 -->
<g id="edge17" class="edge">
<title>j202878353&#45;&gt;j2726368447</title>
<path fill="none" stroke="black" d="M270.77,-1287.61C285.9,-1277.57 302.17,-1266.76 316.11,-1257.5"/>
<polygon fill="black" stroke="black" points="317.7,-1260.65 324.09,-1252.2 313.83,-1254.82 317.7,-1260.65"/>
</g>
<!-- j2726264874 -->
<g id="node16" class="node">
<title>j2726264874</title>
<polygon fill="none" stroke="red" points="1285.5,-1088 679.5,-1088 679.5,-1052 1285.5,-1052 1285.5,-1088"/>
<text text-anchor="middle" x="982.5" y="-1066.3" font-family="Times New Roman,serif" font-size="14.00">Jest członkiem drużyny, Lettie. Czy ci się to podoba, czy nie, jesteś z nią związana. Musicie się pogodzić.</text>
</g>
<!-- j3208750479&#45;&gt;j2726264874 -->
<g id="edge19" class="edge">
<title>j3208750479&#45;&gt;j2726264874</title>
<path fill="none" stroke="black" d="M811.32,-1124.58C845.27,-1113.95 884.02,-1101.82 916.07,-1091.79"/>
<polygon fill="black" stroke="black" points="916.72,-1095.26 925.21,-1088.93 914.63,-1088.58 916.72,-1095.26"/>
</g>
<!-- j1493376152 -->
<g id="node17" class="node">
<title>j1493376152</title>
<polygon fill="none" stroke="red" points="661.5,-1088 117.5,-1088 117.5,-1052 661.5,-1052 661.5,-1088"/>
<text text-anchor="middle" x="389.5" y="-1066.3" font-family="Times New Roman,serif" font-size="14.00">Straciła głos. Cały czas nasłuchuje myśli innych. Widzi przebłyski rzeczy, których nie rozumie.</text>
</g>
<!-- j3208750479&#45;&gt;j1493376152 -->
<g id="edge20" class="edge">
<title>j3208750479&#45;&gt;j1493376152</title>
<path fill="none" stroke="black" d="M617.97,-1124.58C571.58,-1113.7 518.45,-1101.24 475.11,-1091.08"/>
<polygon fill="black" stroke="black" points="476.04,-1087.7 465.5,-1088.82 474.44,-1094.51 476.04,-1087.7"/>
</g>
<!-- j3975665747&#45;&gt;j2726264874 -->
<g id="edge22" class="edge">
<title>j3975665747&#45;&gt;j2726264874</title>
<path fill="none" stroke="black" d="M440.02,-1132.06C448.76,-1129.36 457.83,-1126.87 466.5,-1125 540.99,-1108.97 622.59,-1097.63 698.47,-1089.64"/>
<polygon fill="black" stroke="black" points="698.53,-1093.15 708.11,-1088.64 697.81,-1086.19 698.53,-1093.15"/>
</g>
<!-- j3975665747&#45;&gt;j1493376152 -->
<g id="edge21" class="edge">
<title>j3975665747&#45;&gt;j1493376152</title>
<path fill="none" stroke="black" d="M389.5,-1132.06C389.5,-1122.46 389.5,-1110.51 389.5,-1099.73"/>
<polygon fill="black" stroke="black" points="393,-1099.76 389.5,-1089.76 386,-1099.76 393,-1099.76"/>
</g>
<!-- j3176503582 -->
<g id="node18" class="node">
<title>j3176503582</title>
<polygon fill="none" stroke="blue" points="1126.5,-1015 926.5,-1015 926.5,-962 1126.5,-962 1126.5,-1015"/>
<text text-anchor="middle" x="1026.5" y="-999.8" font-family="Times New Roman,serif" font-size="14.00">Tak, tak &#13;</text>
<text text-anchor="middle" x="1026.5" y="-984.8" font-family="Times New Roman,serif" font-size="14.00">A jak tobie poszło, babas &#13;</text>
<text text-anchor="middle" x="1026.5" y="-969.8" font-family="Times New Roman,serif" font-size="14.00">Przebaczyłeś wszystkie grzechy?</text>
</g>
<!-- j2726264874&#45;&gt;j3176503582 -->
<g id="edge23" class="edge">
<title>j2726264874&#45;&gt;j3176503582</title>
<path fill="none" stroke="black" d="M992.05,-1051.75C996.35,-1043.97 1001.61,-1034.47 1006.7,-1025.27"/>
<polygon fill="black" stroke="black" points="1009.61,-1027.25 1011.39,-1016.81 1003.48,-1023.86 1009.61,-1027.25"/>
</g>
<!-- j4272185402 -->
<g id="node19" class="node">
<title>j4272185402</title>
<polygon fill="none" stroke="red" points="856,-944 251,-944 251,-908 856,-908 856,-944"/>
<text text-anchor="middle" x="553.5" y="-922.3" font-family="Times New Roman,serif" font-size="14.00">To ona jest najbliżej związana z Techrotem. Zdajesz sobie sprawę, jak to musi być, słyszeć ich cały czas?</text>
</g>
<!-- j1493376152&#45;&gt;j4272185402 -->
<g id="edge24" class="edge">
<title>j1493376152&#45;&gt;j4272185402</title>
<path fill="none" stroke="black" d="M446.06,-1051.5C466.88,-1042.99 489.5,-1031.04 506.5,-1015 524,-998.48 536.35,-973.97 543.99,-955.01"/>
<polygon fill="black" stroke="black" points="547.23,-956.32 547.5,-945.73 540.69,-953.84 547.23,-956.32"/>
</g>
<!-- j3802840905 -->
<g id="node20" class="node">
<title>j3802840905</title>
<polygon fill="none" stroke="red" points="497.5,-1006.5 39.5,-1006.5 39.5,-970.5 497.5,-970.5 497.5,-1006.5"/>
<text text-anchor="middle" x="268.5" y="-984.8" font-family="Times New Roman,serif" font-size="14.00">A to WY traktujecie ją jak potwora. Masz pojęcie, jak ona musi się z tym czuć?</text>
</g>
<!-- j1493376152&#45;&gt;j3802840905 -->
<g id="edge25" class="edge">
<title>j1493376152&#45;&gt;j3802840905</title>
<path fill="none" stroke="black" d="M362.95,-1051.55C345.77,-1040.27 323.19,-1025.43 304.41,-1013.1"/>
<polygon fill="black" stroke="black" points="306.54,-1010.3 296.26,-1007.74 302.69,-1016.15 306.54,-1010.3"/>
</g>
<!-- j2551409099 -->
<g id="node21" class="node">
<title>j2551409099</title>
<ellipse fill="none" stroke="orange" cx="1049.5" cy="-872" rx="122.38" ry="18"/>
<text text-anchor="middle" x="1049.5" y="-868.3" font-family="Times New Roman,serif" font-size="14.00">Check boolean LettieReligion2</text>
</g>
<!-- j3176503582&#45;&gt;j2551409099 -->
<g id="edge26" class="edge">
<title>j3176503582&#45;&gt;j2551409099</title>
<path fill="none" stroke="black" d="M1031.72,-961.52C1035.31,-943.66 1040.07,-919.94 1043.77,-901.55"/>
<polygon fill="black" stroke="black" points="1047.18,-902.33 1045.72,-891.83 1040.32,-900.95 1047.18,-902.33"/>
</g>
<!-- j328715351 -->
<g id="node22" class="node">
<title>j328715351</title>
<polygon fill="none" stroke="blue" points="768.5,-430 514.5,-430 514.5,-392 768.5,-392 768.5,-430"/>
<text text-anchor="middle" x="641.5" y="-414.8" font-family="Times New Roman,serif" font-size="14.00">W tym właśnie problem &#13;</text>
<text text-anchor="middle" x="641.5" y="-399.8" font-family="Times New Roman,serif" font-size="14.00">Wciąż wkładasz słowa w moje usta, babas</text>
</g>
<!-- j4272185402&#45;&gt;j328715351 -->
<g id="edge27" class="edge">
<title>j4272185402&#45;&gt;j328715351</title>
<path fill="none" stroke="black" d="M534.05,-907.54C514.59,-888.06 487.5,-854.55 487.5,-819 487.5,-819 487.5,-819 487.5,-499 487.5,-467.82 511.72,-447.69 540.95,-434.75"/>
<polygon fill="black" stroke="black" points="542.13,-438.05 550.07,-431.03 539.49,-431.57 542.13,-438.05"/>
</g>
<!-- j856857450 -->
<g id="node23" class="node">
<title>j856857450</title>
<polygon fill="none" stroke="red" points="472.5,-836 20.5,-836 20.5,-800 472.5,-800 472.5,-836"/>
<text text-anchor="middle" x="246.5" y="-814.3" font-family="Times New Roman,serif" font-size="14.00">Czy można ją winić, że na takie odrzucenie reaguje buntem, zamiast wstydem?</text>
</g>
<!-- j3802840905&#45;&gt;j856857450 -->
<g id="edge28" class="edge">
<title>j3802840905&#45;&gt;j856857450</title>
<path fill="none" stroke="black" d="M259.12,-970.25C255.38,-962.46 251.5,-953.01 249.5,-944 242.32,-911.58 242.65,-873.27 244.08,-847.69"/>
<polygon fill="black" stroke="black" points="247.57,-847.96 244.74,-837.74 240.58,-847.49 247.57,-847.96"/>
</g>
<!-- j3643219714 -->
<g id="node24" class="node">
<title>j3643219714</title>
<polygon fill="none" stroke="blue" points="2223,-608 1728,-608 1728,-555 2223,-555 2223,-608"/>
<text text-anchor="middle" x="1975.5" y="-592.8" font-family="Times New Roman,serif" font-size="14.00">Przeciwko twojemu Xipe Totecowi i wszystkiemu, co zdziałała twoja okropna pustka &#13;</text>
<text text-anchor="middle" x="1975.5" y="-577.8" font-family="Times New Roman,serif" font-size="14.00">Wmawiasz mi, że nie chowasz urazy &#13;</text>
<text text-anchor="middle" x="1975.5" y="-562.8" font-family="Times New Roman,serif" font-size="14.00">Pendejadas</text>
</g>
<!-- j2551409099&#45;&gt;j3643219714 -->
<g id="edge29" class="edge">
<title>j2551409099&#45;&gt;j3643219714</title>
<path fill="none" stroke="green" d="M1100.27,-855.18C1249.43,-808.71 1687.92,-672.1 1881.65,-611.74"/>
<polygon fill="green" stroke="green" points="1882.42,-615.17 1890.93,-608.85 1880.34,-608.48 1882.42,-615.17"/>
<text text-anchor="middle" x="1565.5" y="-716.8" font-family="Times New Roman,serif" font-size="14.00">true</text>
</g>
<!-- j757062835 -->
<g id="node25" class="node">
<title>j757062835</title>
<ellipse fill="none" stroke="orange" cx="1049.5" cy="-764" rx="111.28" ry="18"/>
<text text-anchor="middle" x="1049.5" y="-760.3" font-family="Times New Roman,serif" font-size="14.00">Check boolean LettieEntrati</text>
</g>
<!-- j2551409099&#45;&gt;j757062835 -->
<g id="edge30" class="edge">
<title>j2551409099&#45;&gt;j757062835</title>
<path fill="none" stroke="brown" d="M1049.5,-853.97C1049.5,-837.76 1049.5,-813.06 1049.5,-793.79"/>
<polygon fill="brown" stroke="brown" points="1053,-793.85 1049.5,-783.85 1046,-793.85 1053,-793.85"/>
<text text-anchor="middle" x="1062.5" y="-814.3" font-family="Times New Roman,serif" font-size="14.00">false</text>
</g>
<!-- j2749372787 -->
<g id="node26" class="node">
<title>j2749372787</title>
<ellipse fill="none" stroke="orange" cx="641.5" cy="-322" rx="122.38" ry="18"/>
<text text-anchor="middle" x="641.5" y="-318.3" font-family="Times New Roman,serif" font-size="14.00">Check boolean LettieReligion2</text>
</g>
<!-- j328715351&#45;&gt;j2749372787 -->
<g id="edge31" class="edge">
<title>j328715351&#45;&gt;j2749372787</title>
<path fill="none" stroke="black" d="M641.5,-391.55C641.5,-379.94 641.5,-364.72 641.5,-351.57"/>
<polygon fill="black" stroke="black" points="645,-351.75 641.5,-341.75 638,-351.75 645,-351.75"/>
</g>
<!-- j2187503189 -->
<g id="node27" class="node">
<title>j2187503189</title>
<polygon fill="none" stroke="blue" points="439.5,-445 53.5,-445 53.5,-377 439.5,-377 439.5,-445"/>
<text text-anchor="middle" x="246.5" y="-429.8" font-family="Times New Roman,serif" font-size="14.00">Mierda... &#13;</text>
<text text-anchor="middle" x="246.5" y="-414.8" font-family="Times New Roman,serif" font-size="14.00">Nie chcę jej w swojej głowie, babas &#13;</text>
<text text-anchor="middle" x="246.5" y="-399.8" font-family="Times New Roman,serif" font-size="14.00">Ale kiedy przedstawiasz sprawy w taki sposób... Nie, nie winię jej &#13;</text>
<text text-anchor="middle" x="246.5" y="-384.8" font-family="Times New Roman,serif" font-size="14.00">Też bym tak postąpiła</text>
</g>
<!-- j856857450&#45;&gt;j2187503189 -->
<g id="edge32" class="edge">
<title>j856857450&#45;&gt;j2187503189</title>
<path fill="none" stroke="black" d="M246.5,-799.75C246.5,-780.62 246.5,-748.86 246.5,-721.5 246.5,-721.5 246.5,-721.5 246.5,-499 246.5,-485.33 246.5,-470.46 246.5,-456.93"/>
<polygon fill="black" stroke="black" points="250,-456.98 246.5,-446.98 243,-456.98 250,-456.98"/>
</g>
<!-- j3051964009 -->
<g id="node28" class="node">
<title>j3051964009</title>
<polygon fill="none" stroke="red" points="1331,-518 516,-518 516,-482 1331,-482 1331,-518"/>
<text text-anchor="middle" x="923.5" y="-496.3" font-family="Times New Roman,serif" font-size="14.00">Masz rację, chowam urazę. Nie jestem doskonały. Mówię tylko, że traktujesz ją jak potwora. Dziwisz się, że obrzydzenie spotyka się z buntem?</text>
</g>
<!-- j3643219714&#45;&gt;j3051964009 -->
<g id="edge33" class="edge">
<title>j3643219714&#45;&gt;j3051964009</title>
<path fill="none" stroke="black" d="M1727.6,-555.77C1724.55,-555.51 1721.52,-555.25 1718.5,-555 1555.26,-541.36 1372.94,-528.79 1224.12,-519.21"/>
<polygon fill="black" stroke="black" points="1224.73,-515.74 1214.52,-518.59 1224.28,-522.73 1224.73,-515.74"/>
</g>
<!-- j3011415961 -->
<g id="node29" class="node">
<title>j3011415961</title>
<polygon fill="none" stroke="red" points="2270,-518 1349,-518 1349,-482 2270,-482 2270,-518"/>
<text text-anchor="middle" x="1809.5" y="-496.3" font-family="Times New Roman,serif" font-size="14.00">Masz rację, chowam urazę. Nie jestem doskonały. Mówię tylko, że to ona jest najbliżej z Techrotem. Zdajesz sobie sprawę, jak to musi być, słyszeć ich cały czas?</text>
</g>
<!-- j3643219714&#45;&gt;j3011415961 -->
<g id="edge34" class="edge">
<title>j3643219714&#45;&gt;j3011415961</title>
<path fill="none" stroke="black" d="M1921.6,-554.69C1900.48,-544.57 1876.48,-533.08 1856.12,-523.33"/>
<polygon fill="black" stroke="black" points="1857.74,-520.22 1847.21,-519.06 1854.71,-526.53 1857.74,-520.22"/>
</g>
<!-- j3028472844 -->
<g id="node30" class="node">
<title>j3028472844</title>
<polygon fill="none" stroke="blue" points="845.5,-608 515.5,-608 515.5,-555 845.5,-555 845.5,-608"/>
<text text-anchor="middle" x="680.5" y="-592.8" font-family="Times New Roman,serif" font-size="14.00">Przeciwko Entratiemu, Orokin, i wszystkiemu, co zrobili&#13;</text>
<text text-anchor="middle" x="680.5" y="-577.8" font-family="Times New Roman,serif" font-size="14.00">Wmawiasz mi, że nie chowasz urazy&#13;</text>
<text text-anchor="middle" x="680.5" y="-562.8" font-family="Times New Roman,serif" font-size="14.00">Pendejadas</text>
</g>
<!-- j757062835&#45;&gt;j3028472844 -->
<g id="edge35" class="edge">
<title>j757062835&#45;&gt;j3028472844</title>
<path fill="none" stroke="green" d="M1015.78,-746.5C954.14,-716.35 822.41,-651.92 743.66,-613.4"/>
<polygon fill="green" stroke="green" points="745.27,-610.28 734.75,-609.03 742.19,-616.57 745.27,-610.28"/>
<text text-anchor="middle" x="919.5" y="-673.3" font-family="Times New Roman,serif" font-size="14.00">true</text>
</g>
<!-- j1666734191 -->
<g id="node31" class="node">
<title>j1666734191</title>
<ellipse fill="none" stroke="orange" cx="1054.5" cy="-677" rx="109.68" ry="18"/>
<text text-anchor="middle" x="1054.5" y="-673.3" font-family="Times New Roman,serif" font-size="14.00">Check boolean LettieDuviri</text>
</g>
<!-- j757062835&#45;&gt;j1666734191 -->
<g id="edge36" class="edge">
<title>j757062835&#45;&gt;j1666734191</title>
<path fill="none" stroke="brown" d="M1050.51,-745.8C1051.17,-734.58 1052.05,-719.67 1052.81,-706.69"/>
<polygon fill="brown" stroke="brown" points="1056.29,-707.17 1053.38,-696.98 1049.3,-706.76 1056.29,-707.17"/>
<text text-anchor="middle" x="1065.5" y="-716.8" font-family="Times New Roman,serif" font-size="14.00">false</text>
</g>
<!-- j2305481246 -->
<g id="node32" class="node">
<title>j2305481246</title>
<polygon fill="none" stroke="blue" points="925.5,-253 563.5,-253 563.5,-215 925.5,-215 925.5,-253"/>
<text text-anchor="middle" x="744.5" y="-237.8" font-family="Times New Roman,serif" font-size="14.00">Pewnego dnia ubiorą jej skórę tak, jak Xipe Totec nosi Major &#13;</text>
<text text-anchor="middle" x="744.5" y="-222.8" font-family="Times New Roman,serif" font-size="14.00">A ciebie nie będzie i nie zdołasz jej uratować</text>
</g>
<!-- j2749372787&#45;&gt;j2305481246 -->
<g id="edge37" class="edge">
<title>j2749372787&#45;&gt;j2305481246</title>
<path fill="none" stroke="green" d="M661.85,-304.01C676.73,-291.59 697.16,-274.53 713.99,-260.48"/>
<polygon fill="green" stroke="green" points="715.82,-263.51 721.25,-254.41 711.33,-258.14 715.82,-263.51"/>
<text text-anchor="middle" x="710.5" y="-274.8" font-family="Times New Roman,serif" font-size="14.00">true</text>
</g>
<!-- j3074725010 -->
<g id="node33" class="node">
<title>j3074725010</title>
<polygon fill="none" stroke="blue" points="545.5,-253 281.5,-253 281.5,-215 545.5,-215 545.5,-253"/>
<text text-anchor="middle" x="413.5" y="-237.8" font-family="Times New Roman,serif" font-size="14.00">Kiedyś ją pochłoną &#13;</text>
<text text-anchor="middle" x="413.5" y="-222.8" font-family="Times New Roman,serif" font-size="14.00">A ciebie nie będzie i nie zdołasz jej uratować</text>
</g>
<!-- j2749372787&#45;&gt;j3074725010 -->
<g id="edge38" class="edge">
<title>j2749372787&#45;&gt;j3074725010</title>
<path fill="none" stroke="brown" d="M598.35,-304.72C562.95,-291.37 512.44,-272.32 473.17,-257.51"/>
<polygon fill="brown" stroke="brown" points="474.42,-254.24 463.83,-253.98 471.95,-260.79 474.42,-254.24"/>
<text text-anchor="middle" x="561.5" y="-274.8" font-family="Times New Roman,serif" font-size="14.00">false</text>
</g>
<!-- j2967098167 -->
<g id="node34" class="node">
<title>j2967098167</title>
<ellipse fill="none" stroke="orange" cx="235.5" cy="-322" rx="64.19" ry="18"/>
<text text-anchor="middle" x="235.5" y="-318.3" font-family="Times New Roman,serif" font-size="14.00">+20 Chemistry</text>
</g>
<!-- j2187503189&#45;&gt;j2967098167 -->
<g id="edge39" class="edge">
<title>j2187503189&#45;&gt;j2967098167</title>
<path fill="none" stroke="black" d="M242.28,-376.61C241.23,-368.34 240.12,-359.55 239.11,-351.53"/>
<polygon fill="black" stroke="black" points="242.58,-351.11 237.85,-341.63 235.64,-351.99 242.58,-351.11"/>
</g>
<!-- j3051964009&#45;&gt;j2187503189 -->
<g id="edge40" class="edge">
<title>j3051964009&#45;&gt;j2187503189</title>
<path fill="none" stroke="black" d="M787.72,-481.55C691.25,-469.15 560.01,-452.29 450.92,-438.27"/>
<polygon fill="black" stroke="black" points="451.63,-434.83 441.27,-437.03 450.74,-441.78 451.63,-434.83"/>
</g>
<!-- j3011415961&#45;&gt;j328715351 -->
<g id="edge41" class="edge">
<title>j3011415961&#45;&gt;j328715351</title>
<path fill="none" stroke="black" d="M1574.89,-481.53C1336.74,-463.79 976,-436.92 780.04,-422.32"/>
<polygon fill="black" stroke="black" points="780.56,-418.85 770.33,-421.6 780.04,-425.83 780.56,-418.85"/>
</g>
<!-- j3028472844&#45;&gt;j3051964009 -->
<g id="edge42" class="edge">
<title>j3028472844&#45;&gt;j3051964009</title>
<path fill="none" stroke="black" d="M759.73,-554.58C791.93,-544.05 828.64,-532.03 859.14,-522.06"/>
<polygon fill="black" stroke="black" points="860.22,-525.38 868.64,-518.95 858.05,-518.73 860.22,-525.38"/>
</g>
<!-- j3028472844&#45;&gt;j3011415961 -->
<g id="edge43" class="edge">
<title>j3028472844&#45;&gt;j3011415961</title>
<path fill="none" stroke="black" d="M845.77,-555.92C848.7,-555.6 851.61,-555.29 854.5,-555 1013.12,-538.92 1187.09,-527.31 1342.58,-519.08"/>
<polygon fill="black" stroke="black" points="1342.43,-522.59 1352.23,-518.57 1342.06,-515.6 1342.43,-522.59"/>
</g>
<!-- j3326119837 -->
<g id="node35" class="node">
<title>j3326119837</title>
<polygon fill="none" stroke="blue" points="1245,-600.5 864,-600.5 864,-562.5 1245,-562.5 1245,-600.5"/>
<text text-anchor="middle" x="1054.5" y="-585.3" font-family="Times New Roman,serif" font-size="14.00">Przeciwko Duviri i całemu bólowi, które to miejsce ci wyrządziło &#13;</text>
<text text-anchor="middle" x="1054.5" y="-570.3" font-family="Times New Roman,serif" font-size="14.00">Wmawiasz mi, że nie chowasz urazy</text>
</g>
<!-- j1666734191&#45;&gt;j3326119837 -->
<g id="edge44" class="edge">
<title>j1666734191&#45;&gt;j3326119837</title>
<path fill="none" stroke="green" d="M1054.5,-658.85C1054.5,-645.74 1054.5,-627.36 1054.5,-611.92"/>
<polygon fill="green" stroke="green" points="1058,-612.33 1054.5,-602.33 1051,-612.33 1058,-612.33"/>
<text text-anchor="middle" x="1065.5" y="-629.8" font-family="Times New Roman,serif" font-size="14.00">true</text>
</g>
<!-- j505953767 -->
<g id="node36" class="node">
<title>j505953767</title>
<polygon fill="none" stroke="blue" points="1709.5,-600.5 1263.5,-600.5 1263.5,-562.5 1709.5,-562.5 1709.5,-600.5"/>
<text text-anchor="middle" x="1486.5" y="-585.3" font-family="Times New Roman,serif" font-size="14.00">Twoje życie to ciągły taniec z La Flaca i wmawiasz mi, że nie chowasz urazy &#13;</text>
<text text-anchor="middle" x="1486.5" y="-570.3" font-family="Times New Roman,serif" font-size="14.00">Pendejadas</text>
</g>
<!-- j1666734191&#45;&gt;j505953767 -->
<g id="edge45" class="edge">
<title>j1666734191&#45;&gt;j505953767</title>
<path fill="none" stroke="brown" d="M1082.8,-659.19C1102.95,-648 1131.04,-633.95 1157.5,-626 1173.9,-621.08 1246.04,-611.34 1318.59,-602.33"/>
<polygon fill="brown" stroke="brown" points="1318.77,-605.83 1328.26,-601.13 1317.91,-598.89 1318.77,-605.83"/>
<text text-anchor="middle" x="1170.5" y="-629.8" font-family="Times New Roman,serif" font-size="14.00">false</text>
</g>
<!-- j2837390566 -->
<g id="node37" class="node">
<title>j2837390566</title>
<polygon fill="none" stroke="blue" points="545,-126 316,-126 316,-73 545,-73 545,-126"/>
<text text-anchor="middle" x="430.5" y="-110.8" font-family="Times New Roman,serif" font-size="14.00">Vete &#13;</text>
<text text-anchor="middle" x="430.5" y="-95.8" font-family="Times New Roman,serif" font-size="14.00">Idź sobie &#13;</text>
<text text-anchor="middle" x="430.5" y="-80.8" font-family="Times New Roman,serif" font-size="14.00">Zmarnowałam na to już za dużo czasu</text>
</g>
<!-- j2305481246&#45;&gt;j2837390566 -->
<g id="edge46" class="edge">
<title>j2305481246&#45;&gt;j2837390566</title>
<path fill="none" stroke="black" d="M700.84,-214.58C649.47,-192.9 563.42,-156.59 502.21,-130.76"/>
<polygon fill="black" stroke="black" points="503.82,-127.64 493.25,-126.98 501.1,-134.09 503.82,-127.64"/>
</g>
<!-- j3074725010&#45;&gt;j2837390566 -->
<g id="edge47" class="edge">
<title>j3074725010&#45;&gt;j2837390566</title>
<path fill="none" stroke="black" d="M415.86,-214.58C418.42,-194.69 422.55,-162.48 425.77,-137.36"/>
<polygon fill="black" stroke="black" points="429.23,-137.89 427.03,-127.53 422.29,-137 429.23,-137.89"/>
</g>
<!-- j3153536151 -->
<g id="node38" class="node">
<title>j3153536151</title>
<polygon fill="none" stroke="blue" points="415,-197 40,-197 40,-144 415,-144 415,-197"/>
<text text-anchor="middle" x="227.5" y="-181.8" font-family="Times New Roman,serif" font-size="14.00">No dobra &#13;</text>
<text text-anchor="middle" x="227.5" y="-166.8" font-family="Times New Roman,serif" font-size="14.00">Niech ta bruja metiche postara się nie wchodzić do mojej głowy &#13;</text>
<text text-anchor="middle" x="227.5" y="-151.8" font-family="Times New Roman,serif" font-size="14.00">A ja... postaram się jej odpuścić, ¿sí?</text>
</g>
<!-- j2967098167&#45;&gt;j3153536151 -->
<g id="edge48" class="edge">
<title>j2967098167&#45;&gt;j3153536151</title>
<path fill="none" stroke="black" d="M234.57,-303.56C233.33,-280.44 231.11,-239.04 229.49,-208.74"/>
<polygon fill="black" stroke="black" points="232.99,-208.64 228.96,-198.84 226,-209.01 232.99,-208.64"/>
</g>
<!-- j3326119837&#45;&gt;j3051964009 -->
<g id="edge49" class="edge">
<title>j3326119837&#45;&gt;j3051964009</title>
<path fill="none" stroke="black" d="M1024.12,-562.06C1005.49,-550.76 981.5,-536.2 961.61,-524.13"/>
<polygon fill="black" stroke="black" points="963.58,-521.23 953.22,-519.04 959.95,-527.22 963.58,-521.23"/>
</g>
<!-- j3326119837&#45;&gt;j3011415961 -->
<g id="edge50" class="edge">
<title>j3326119837&#45;&gt;j3011415961</title>
<path fill="none" stroke="black" d="M1195.39,-562C1215.23,-559.55 1235.37,-557.15 1254.5,-555 1369.95,-542.03 1499.11,-529.35 1603.77,-519.54"/>
<polygon fill="black" stroke="black" points="1603.97,-523.04 1613.6,-518.62 1603.32,-516.07 1603.97,-523.04"/>
</g>
<!-- j505953767&#45;&gt;j3051964009 -->
<g id="edge51" class="edge">
<title>j505953767&#45;&gt;j3051964009</title>
<path fill="none" stroke="black" d="M1355.57,-562.01C1266.46,-549.43 1148.84,-532.82 1058.82,-520.11"/>
<polygon fill="black" stroke="black" points="1059.31,-516.64 1048.92,-518.71 1058.33,-523.57 1059.31,-516.64"/>
</g>
<!-- j505953767&#45;&gt;j3011415961 -->
<g id="edge52" class="edge">
<title>j505953767&#45;&gt;j3011415961</title>
<path fill="none" stroke="black" d="M1561.41,-562.06C1611.16,-549.82 1676.46,-533.75 1727.58,-521.16"/>
<polygon fill="black" stroke="black" points="1728.25,-524.6 1737.12,-518.81 1726.57,-517.81 1728.25,-524.6"/>
</g>
<!-- j2837390566&#45;&gt;Chat ends. -->
<g id="edge53" class="edge">
<title>j2837390566&#45;&gt;Chat ends.</title>
<path fill="none" stroke="black" d="M364.31,-72.58C333.8,-60.63 298.43,-46.78 271.3,-36.15"/>
<polygon fill="black" stroke="black" points="272.59,-32.9 262,-32.51 270.03,-39.42 272.59,-32.9"/>
</g>
<!-- j3153536151&#45;&gt;Chat ends. -->
<g id="edge54" class="edge">
<title>j3153536151&#45;&gt;Chat ends.</title>
<path fill="none" stroke="black" d="M227.5,-143.63C227.5,-116.83 227.5,-75.08 227.5,-47.39"/>
<polygon fill="black" stroke="black" points="231,-47.63 227.5,-37.63 224,-47.63 231,-47.63"/>
</g>
</g>
</svg>
