<?xml version="1.0" encoding="UTF-8" standalone="no"?>
<!DOCTYPE svg PUBLIC "-//W3C//DTD SVG 1.1//EN"
 "http://www.w3.org/Graphics/SVG/1.1/DTD/svg11.dtd">
<!-- Generated by graphviz version 7.1.0 (20230121.1956)
 -->
<!-- Pages: 1 -->
<svg width="1411pt" height="1414pt"
 viewBox="0.00 0.00 1410.50 1414.00" xmlns="http://www.w3.org/2000/svg" xmlns:xlink="http://www.w3.org/1999/xlink">
<g id="graph0" class="graph" transform="scale(1 1) rotate(0) translate(4 1410)">
<polygon fill="white" stroke="none" points="-4,4 -4,-1410 1406.5,-1410 1406.5,4 -4,4"/>
<!-- LettieRank3Convo5 begins. -->
<g id="node1" class="node">
<title>LettieRank3Convo5 begins.</title>
<ellipse fill="none" stroke="orange" cx="257" cy="-1388" rx="111.58" ry="18"/>
<text text-anchor="middle" x="257" y="-1384.3" font-family="Times New Roman,serif" font-size="14.00">LettieRank3Convo5 begins.</text>
</g>
<!-- j4046755604 -->
<g id="node2" class="node">
<title>j4046755604</title>
<polygon fill="none" stroke="red" points="321.5,-1333 192.5,-1333 192.5,-1297 321.5,-1297 321.5,-1333"/>
<text text-anchor="middle" x="257" y="-1311.3" font-family="Times New Roman,serif" font-size="14.00">Trzymasz się jakoś?</text>
</g>
<!-- LettieRank3Convo5 begins.&#45;&gt;j4046755604 -->
<g id="edge1" class="edge">
<title>LettieRank3Convo5 begins.&#45;&gt;j4046755604</title>
<path fill="none" stroke="black" d="M257,-1369.81C257,-1362.23 257,-1353.1 257,-1344.54"/>
<polygon fill="black" stroke="black" points="260.5,-1344.54 257,-1334.54 253.5,-1344.54 260.5,-1344.54"/>
</g>
<!-- j4226826872 -->
<g id="node3" class="node">
<title>j4226826872</title>
<polygon fill="none" stroke="red" points="655,-1333 427,-1333 427,-1297 655,-1297 655,-1333"/>
<text text-anchor="middle" x="541" y="-1311.3" font-family="Times New Roman,serif" font-size="14.00">Jak wygląda sytuacja wśród cywilów?</text>
</g>
<!-- LettieRank3Convo5 begins.&#45;&gt;j4226826872 -->
<g id="edge2" class="edge">
<title>LettieRank3Convo5 begins.&#45;&gt;j4226826872</title>
<path fill="none" stroke="black" d="M315.84,-1372.29C357.57,-1361.86 414.09,-1347.73 460.06,-1336.24"/>
<polygon fill="black" stroke="black" points="460.88,-1339.64 469.73,-1333.82 459.18,-1332.85 460.88,-1339.64"/>
</g>
<!-- j55864783 -->
<g id="node4" class="node">
<title>j55864783</title>
<polygon fill="none" stroke="red" points="73.5,-1279 8.5,-1279 8.5,-1243 73.5,-1243 73.5,-1279"/>
<text text-anchor="middle" x="41" y="-1257.3" font-family="Times New Roman,serif" font-size="14.00">[Ignoruj]</text>
</g>
<!-- LettieRank3Convo5 begins.&#45;&gt;j55864783 -->
<g id="edge3" class="edge">
<title>LettieRank3Convo5 begins.&#45;&gt;j55864783</title>
<path fill="none" stroke="black" d="M227.87,-1370.14C189.92,-1348.18 123.39,-1309.68 80.81,-1285.04"/>
<polygon fill="black" stroke="black" points="82.77,-1282.13 72.37,-1280.15 79.27,-1288.19 82.77,-1282.13"/>
</g>
<!-- j1201255811 -->
<g id="node5" class="node">
<title>j1201255811</title>
<polygon fill="none" stroke="blue" points="336,-1217.5 178,-1217.5 178,-1179.5 336,-1179.5 336,-1217.5"/>
<text text-anchor="middle" x="257" y="-1202.3" font-family="Times New Roman,serif" font-size="14.00">Mm?&#13;</text>
<text text-anchor="middle" x="257" y="-1187.3" font-family="Times New Roman,serif" font-size="14.00">Jak drzwi obrotowe jajaja</text>
</g>
<!-- j4046755604&#45;&gt;j1201255811 -->
<g id="edge4" class="edge">
<title>j4046755604&#45;&gt;j1201255811</title>
<path fill="none" stroke="black" d="M257,-1296.61C257,-1278.75 257,-1250.6 257,-1229.2"/>
<polygon fill="black" stroke="black" points="260.5,-1229.33 257,-1219.33 253.5,-1229.33 260.5,-1229.33"/>
</g>
<!-- j2373773175 -->
<g id="node6" class="node">
<title>j2373773175</title>
<polygon fill="none" stroke="blue" points="818,-1225 440,-1225 440,-1172 818,-1172 818,-1225"/>
<text text-anchor="middle" x="629" y="-1209.8" font-family="Times New Roman,serif" font-size="14.00">Co?&#13;</text>
<text text-anchor="middle" x="629" y="-1194.8" font-family="Times New Roman,serif" font-size="14.00">Przypuszczam, że w porządku&#13;</text>
<text text-anchor="middle" x="629" y="-1179.8" font-family="Times New Roman,serif" font-size="14.00">Cywile są wszędzie tacy sami, z czasem można się przyzwyczaić</text>
</g>
<!-- j4226826872&#45;&gt;j2373773175 -->
<g id="edge5" class="edge">
<title>j4226826872&#45;&gt;j2373773175</title>
<path fill="none" stroke="black" d="M554.37,-1296.61C567.04,-1280.12 586.45,-1254.86 602.3,-1234.24"/>
<polygon fill="black" stroke="black" points="605.05,-1236.4 608.37,-1226.34 599.5,-1232.14 605.05,-1236.4"/>
</g>
<!-- Chat ends. -->
<g id="node7" class="node">
<title>Chat ends.</title>
<ellipse fill="none" stroke="orange" cx="457" cy="-18" rx="50.09" ry="18"/>
<text text-anchor="middle" x="457" y="-14.3" font-family="Times New Roman,serif" font-size="14.00">Chat ends.</text>
</g>
<!-- j55864783&#45;&gt;Chat ends. -->
<g id="edge6" class="edge">
<title>j55864783&#45;&gt;Chat ends.</title>
<path fill="none" stroke="black" d="M29.8,-1242.79C17.66,-1222.44 0,-1187.15 0,-1154 0,-1154 0,-1154 0,-91 0,-51.33 272.23,-30 396.47,-22.34"/>
<polygon fill="black" stroke="black" points="396.38,-25.85 406.15,-21.75 395.95,-18.86 396.38,-25.85"/>
</g>
<!-- j2783424634 -->
<g id="node8" class="node">
<title>j2783424634</title>
<polygon fill="none" stroke="blue" points="486,-1135 28,-1135 28,-1082 486,-1082 486,-1135"/>
<text text-anchor="middle" x="257" y="-1119.8" font-family="Times New Roman,serif" font-size="14.00">Nawet przed tobą, czasami czułam się, jakby ludzie przechodzili PRZEZE mnie&#13;</text>
<text text-anchor="middle" x="257" y="-1104.8" font-family="Times New Roman,serif" font-size="14.00">Tylko twarz w namiocie MSR, opatrująca rany.&#13;</text>
<text text-anchor="middle" x="257" y="-1089.8" font-family="Times New Roman,serif" font-size="14.00">Jestem częścią konstrukcji</text>
</g>
<!-- j1201255811&#45;&gt;j2783424634 -->
<g id="edge7" class="edge">
<title>j1201255811&#45;&gt;j2783424634</title>
<path fill="none" stroke="black" d="M257,-1179.27C257,-1169.85 257,-1158 257,-1146.76"/>
<polygon fill="black" stroke="black" points="260.5,-1146.9 257,-1136.9 253.5,-1146.9 260.5,-1146.9"/>
</g>
<!-- j3312498149 -->
<g id="node9" class="node">
<title>j3312498149</title>
<polygon fill="none" stroke="red" points="753.5,-1126.5 504.5,-1126.5 504.5,-1090.5 753.5,-1090.5 753.5,-1126.5"/>
<text text-anchor="middle" x="629" y="-1104.8" font-family="Times New Roman,serif" font-size="14.00">Tak, ale to wciąż musi być wyczerpujące.</text>
</g>
<!-- j2373773175&#45;&gt;j3312498149 -->
<g id="edge8" class="edge">
<title>j2373773175&#45;&gt;j3312498149</title>
<path fill="none" stroke="black" d="M629,-1171.57C629,-1161.11 629,-1149 629,-1138.27"/>
<polygon fill="black" stroke="black" points="632.5,-1138.41 629,-1128.41 625.5,-1138.41 632.5,-1138.41"/>
</g>
<!-- j2381663740 -->
<g id="node10" class="node">
<title>j2381663740</title>
<polygon fill="none" stroke="red" points="881.5,-1064 708.5,-1064 708.5,-1028 881.5,-1028 881.5,-1064"/>
<text text-anchor="middle" x="795" y="-1042.3" font-family="Times New Roman,serif" font-size="14.00">Przyzwyczaić się do czego?</text>
</g>
<!-- j2373773175&#45;&gt;j2381663740 -->
<g id="edge9" class="edge">
<title>j2373773175&#45;&gt;j2381663740</title>
<path fill="none" stroke="black" d="M710.86,-1171.64C729.92,-1162.51 748.78,-1150.52 763,-1135 778.11,-1118.5 786.23,-1094.3 790.5,-1075.46"/>
<polygon fill="black" stroke="black" points="793.91,-1076.23 792.44,-1065.74 787.05,-1074.86 793.91,-1076.23"/>
</g>
<!-- j1662917987 -->
<g id="node11" class="node">
<title>j1662917987</title>
<polygon fill="none" stroke="blue" points="387,-1010 127,-1010 127,-942 387,-942 387,-1010"/>
<text text-anchor="middle" x="257" y="-994.8" font-family="Times New Roman,serif" font-size="14.00">Jestem twarda&#13;</text>
<text text-anchor="middle" x="257" y="-979.8" font-family="Times New Roman,serif" font-size="14.00">Nigdzie się nie wybieram&#13;</text>
<text text-anchor="middle" x="257" y="-964.8" font-family="Times New Roman,serif" font-size="14.00">Pero... Estoy muerta&#13;</text>
<text text-anchor="middle" x="257" y="-949.8" font-family="Times New Roman,serif" font-size="14.00">Czasami na świecie jest za mało kawy, ¿no?</text>
</g>
<!-- j2783424634&#45;&gt;j1662917987 -->
<g id="edge10" class="edge">
<title>j2783424634&#45;&gt;j1662917987</title>
<path fill="none" stroke="black" d="M257,-1081.72C257,-1064.58 257,-1041.62 257,-1021.57"/>
<polygon fill="black" stroke="black" points="260.5,-1021.68 257,-1011.68 253.5,-1021.68 260.5,-1021.68"/>
</g>
<!-- j2122248797 -->
<g id="node12" class="node">
<title>j2122248797</title>
<polygon fill="none" stroke="blue" points="703,-1010 449,-1010 449,-942 703,-942 703,-1010"/>
<text text-anchor="middle" x="576" y="-994.8" font-family="Times New Roman,serif" font-size="14.00">Sí, nie masz nawet pojęcia &#13;</text>
<text text-anchor="middle" x="576" y="-979.8" font-family="Times New Roman,serif" font-size="14.00">Czasem nie starcza kawy na świecie, ¿no? &#13;</text>
<text text-anchor="middle" x="576" y="-964.8" font-family="Times New Roman,serif" font-size="14.00">Pero, soy dura de roer &#13;</text>
<text text-anchor="middle" x="576" y="-949.8" font-family="Times New Roman,serif" font-size="14.00">Nigdzie nie uciekam</text>
</g>
<!-- j3312498149&#45;&gt;j2122248797 -->
<g id="edge11" class="edge">
<title>j3312498149&#45;&gt;j2122248797</title>
<path fill="none" stroke="black" d="M621.96,-1090.17C614.81,-1072.55 603.43,-1044.55 593.79,-1020.81"/>
<polygon fill="black" stroke="black" points="597.08,-1019.6 590.07,-1011.66 590.59,-1022.24 597.08,-1019.6"/>
</g>
<!-- j1602694022 -->
<g id="node13" class="node">
<title>j1602694022</title>
<polygon fill="none" stroke="blue" points="1003,-924 597,-924 597,-856 1003,-856 1003,-924"/>
<text text-anchor="middle" x="800" y="-908.8" font-family="Times New Roman,serif" font-size="14.00">Ich puste spojrzenia, tępy ból&#13;</text>
<text text-anchor="middle" x="800" y="-893.8" font-family="Times New Roman,serif" font-size="14.00">Dla nich jestem twarzą w namiocie MSR owijającą rany.&#13;</text>
<text text-anchor="middle" x="800" y="-878.8" font-family="Times New Roman,serif" font-size="14.00">Czuję, że ludzie przechodzą PRZEZE mnie jak przez drzwi obrotowe.&#13;</text>
<text text-anchor="middle" x="800" y="-863.8" font-family="Times New Roman,serif" font-size="14.00">I to było zanim TY uczyniłeś to dosłownym jajaja</text>
</g>
<!-- j2381663740&#45;&gt;j1602694022 -->
<g id="edge12" class="edge">
<title>j2381663740&#45;&gt;j1602694022</title>
<path fill="none" stroke="black" d="M795.56,-1027.63C796.28,-1005.45 797.56,-966.26 798.55,-935.52"/>
<polygon fill="black" stroke="black" points="802.05,-935.83 798.87,-925.72 795.05,-935.6 802.05,-935.83"/>
</g>
<!-- j2330078826 -->
<g id="node14" class="node">
<title>j2330078826</title>
<polygon fill="none" stroke="red" points="423.5,-838 64.5,-838 64.5,-802 423.5,-802 423.5,-838"/>
<text text-anchor="middle" x="244" y="-816.3" font-family="Times New Roman,serif" font-size="14.00">To, że ty jesteś twardy, nie oznacza, że mnie to nie obchodzi.</text>
</g>
<!-- j1662917987&#45;&gt;j2330078826 -->
<g id="edge13" class="edge">
<title>j1662917987&#45;&gt;j2330078826</title>
<path fill="none" stroke="black" d="M254.18,-941.58C251.86,-914.09 248.6,-875.55 246.41,-849.5"/>
<polygon fill="black" stroke="black" points="249.9,-849.33 245.58,-839.66 242.93,-849.92 249.9,-849.33"/>
</g>
<!-- j2746750583 -->
<g id="node15" class="node">
<title>j2746750583</title>
<polygon fill="none" stroke="red" points="710,-838 442,-838 442,-802 710,-802 710,-838"/>
<text text-anchor="middle" x="576" y="-816.3" font-family="Times New Roman,serif" font-size="14.00">Tak, ale stały dopływ kawy nie zaszkodzi. lol</text>
</g>
<!-- j1662917987&#45;&gt;j2746750583 -->
<g id="edge14" class="edge">
<title>j1662917987&#45;&gt;j2746750583</title>
<path fill="none" stroke="black" d="M326.22,-941.58C387.89,-911.81 476.42,-869.08 529.84,-843.28"/>
<polygon fill="black" stroke="black" points="531.19,-846.52 538.68,-839.02 528.15,-840.21 531.19,-846.52"/>
</g>
<!-- j2122248797&#45;&gt;j2330078826 -->
<g id="edge15" class="edge">
<title>j2122248797&#45;&gt;j2330078826</title>
<path fill="none" stroke="black" d="M503.96,-941.58C439.64,-911.75 347.26,-868.9 291.69,-843.12"/>
<polygon fill="black" stroke="black" points="293.34,-840.03 282.8,-839 290.4,-846.38 293.34,-840.03"/>
</g>
<!-- j2122248797&#45;&gt;j2746750583 -->
<g id="edge16" class="edge">
<title>j2122248797&#45;&gt;j2746750583</title>
<path fill="none" stroke="black" d="M576,-941.58C576,-914.09 576,-875.55 576,-849.5"/>
<polygon fill="black" stroke="black" points="579.5,-849.67 576,-839.67 572.5,-849.67 579.5,-849.67"/>
</g>
<!-- j3843131114 -->
<g id="node16" class="node">
<title>j3843131114</title>
<ellipse fill="none" stroke="orange" cx="816" cy="-627" rx="113.98" ry="18"/>
<text text-anchor="middle" x="816" y="-623.3" font-family="Times New Roman,serif" font-size="14.00">Check boolean LettieNoFlirt</text>
</g>
<!-- j1602694022&#45;&gt;j3843131114 -->
<g id="edge17" class="edge">
<title>j1602694022&#45;&gt;j3843131114</title>
<path fill="none" stroke="black" d="M802.04,-855.68C805.21,-803.99 811.26,-705.37 814.24,-656.67"/>
<polygon fill="black" stroke="black" points="817.72,-657.13 814.84,-646.94 810.73,-656.7 817.72,-657.13"/>
</g>
<!-- j978799555 -->
<g id="node17" class="node">
<title>j978799555</title>
<polygon fill="none" stroke="blue" points="383,-765 33,-765 33,-682 383,-682 383,-765"/>
<text text-anchor="middle" x="208" y="-749.8" font-family="Times New Roman,serif" font-size="14.00">Sí,&#13;</text>
<text text-anchor="middle" x="208" y="-734.8" font-family="Times New Roman,serif" font-size="14.00">Wystarczy wiedzieć, że ktoś mnie wspiera.&#13;</text>
<text text-anchor="middle" x="208" y="-719.8" font-family="Times New Roman,serif" font-size="14.00">Artur jest taki&#13;</text>
<text text-anchor="middle" x="208" y="-704.8" font-family="Times New Roman,serif" font-size="14.00">Nie unosi się jak Aoi, udając, że jest mi mamá&#13;</text>
<text text-anchor="middle" x="208" y="-689.8" font-family="Times New Roman,serif" font-size="14.00">Po prostu podaje mi filiżankę i pyta, wszystko w porządku?</text>
</g>
<!-- j2330078826&#45;&gt;j978799555 -->
<g id="edge18" class="edge">
<title>j2330078826&#45;&gt;j978799555</title>
<path fill="none" stroke="black" d="M237.4,-801.67C234.57,-794.23 231.09,-785.12 227.54,-775.8"/>
<polygon fill="black" stroke="black" points="230.9,-774.78 224.07,-766.68 224.36,-777.27 230.9,-774.78"/>
</g>
<!-- j369992005 -->
<g id="node18" class="node">
<title>j369992005</title>
<polygon fill="none" stroke="blue" points="751,-757.5 401,-757.5 401,-689.5 751,-689.5 751,-757.5"/>
<text text-anchor="middle" x="576" y="-742.3" font-family="Times New Roman,serif" font-size="14.00">Jajaja nie, nie ma&#13;</text>
<text text-anchor="middle" x="576" y="-727.3" font-family="Times New Roman,serif" font-size="14.00">Artur jest taki&#13;</text>
<text text-anchor="middle" x="576" y="-712.3" font-family="Times New Roman,serif" font-size="14.00">Nie unosi się jak Aoi, udając, że jest mi mamá&#13;</text>
<text text-anchor="middle" x="576" y="-697.3" font-family="Times New Roman,serif" font-size="14.00">Po prostu podaje mi filiżankę i pyta, wszystko w porządku?</text>
</g>
<!-- j2746750583&#45;&gt;j369992005 -->
<g id="edge19" class="edge">
<title>j2746750583&#45;&gt;j369992005</title>
<path fill="none" stroke="black" d="M576,-801.67C576,-792.48 576,-780.72 576,-769.17"/>
<polygon fill="black" stroke="black" points="579.5,-769.3 576,-759.3 572.5,-769.3 579.5,-769.3"/>
</g>
<!-- j1986961050 -->
<g id="node19" class="node">
<title>j1986961050</title>
<polygon fill="none" stroke="red" points="1402.5,-558 995.5,-558 995.5,-522 1402.5,-522 1402.5,-558"/>
<text text-anchor="middle" x="1199" y="-536.3" font-family="Times New Roman,serif" font-size="14.00">Czego spodziewałaś się po ludziach, którzy właśnie stracili wszystko?</text>
</g>
<!-- j3843131114&#45;&gt;j1986961050 -->
<g id="edge20" class="edge">
<title>j3843131114&#45;&gt;j1986961050</title>
<path fill="none" stroke="green" d="M880.11,-611.77C942.87,-597.84 1039.05,-576.5 1109.37,-560.89"/>
<polygon fill="green" stroke="green" points="1109.94,-564.35 1118.95,-558.77 1108.43,-557.52 1109.94,-564.35"/>
<text text-anchor="middle" x="1041" y="-579.8" font-family="Times New Roman,serif" font-size="14.00">true</text>
</g>
<!-- j3843131114&#45;&gt;j1986961050 -->
<g id="edge22" class="edge">
<title>j3843131114&#45;&gt;j1986961050</title>
<path fill="none" stroke="brown" d="M909.98,-616.52C954.61,-610.95 1008.46,-602.66 1056,-591 1086.19,-583.59 1119,-572.36 1145.56,-562.42"/>
<polygon fill="brown" stroke="brown" points="1146.63,-565.76 1154.74,-558.94 1144.15,-559.21 1146.63,-565.76"/>
<text text-anchor="middle" x="1116" y="-579.8" font-family="Times New Roman,serif" font-size="14.00">false</text>
</g>
<!-- j2182656708 -->
<g id="node20" class="node">
<title>j2182656708</title>
<polygon fill="none" stroke="red" points="977,-558 573,-558 573,-522 977,-522 977,-558"/>
<text text-anchor="middle" x="775" y="-536.3" font-family="Times New Roman,serif" font-size="14.00">Rozumiem, dlaczego wszyscy po pewnym czasie stają się rozmazani.</text>
</g>
<!-- j3843131114&#45;&gt;j2182656708 -->
<g id="edge21" class="edge">
<title>j3843131114&#45;&gt;j2182656708</title>
<path fill="none" stroke="green" d="M788.74,-609.24C782.8,-604.17 777.3,-598.05 774,-591 770.94,-584.47 769.97,-576.92 770.06,-569.7"/>
<polygon fill="green" stroke="green" points="773.53,-570.21 770.84,-559.96 766.55,-569.65 773.53,-570.21"/>
<text text-anchor="middle" x="785" y="-579.8" font-family="Times New Roman,serif" font-size="14.00">true</text>
</g>
<!-- j3843131114&#45;&gt;j2182656708 -->
<g id="edge23" class="edge">
<title>j3843131114&#45;&gt;j2182656708</title>
<path fill="none" stroke="brown" d="M809.82,-608.58C806.16,-598.83 801.23,-586.55 796,-576 794.73,-573.44 793.34,-570.83 791.91,-568.23"/>
<polygon fill="brown" stroke="brown" points="795.06,-566.69 787.01,-559.81 789.01,-570.21 795.06,-566.69"/>
<text text-anchor="middle" x="815" y="-579.8" font-family="Times New Roman,serif" font-size="14.00">false</text>
</g>
<!-- j662281623 -->
<g id="node21" class="node">
<title>j662281623</title>
<polygon fill="none" stroke="red" points="554.5,-558 233.5,-558 233.5,-522 554.5,-522 554.5,-558"/>
<text text-anchor="middle" x="394" y="-536.3" font-family="Times New Roman,serif" font-size="14.00">Przynajmniej jesteś naprawdę seksownymi drzwiami :P</text>
</g>
<!-- j3843131114&#45;&gt;j662281623 -->
<g id="edge24" class="edge">
<title>j3843131114&#45;&gt;j662281623</title>
<path fill="none" stroke="brown" d="M747.73,-612.25C678.33,-598.27 570.15,-576.48 491.69,-560.68"/>
<polygon fill="brown" stroke="brown" points="492.8,-557.33 482.3,-558.79 491.42,-564.19 492.8,-557.33"/>
<text text-anchor="middle" x="643" y="-579.8" font-family="Times New Roman,serif" font-size="14.00">false</text>
</g>
<!-- j4093268418 -->
<g id="node22" class="node">
<title>j4093268418</title>
<ellipse fill="none" stroke="orange" cx="208" cy="-627" rx="140.28" ry="18"/>
<text text-anchor="middle" x="208" y="-623.3" font-family="Times New Roman,serif" font-size="14.00">Boolean LettieShoulder is now true.</text>
</g>
<!-- j978799555&#45;&gt;j4093268418 -->
<g id="edge25" class="edge">
<title>j978799555&#45;&gt;j4093268418</title>
<path fill="none" stroke="black" d="M208,-681.6C208,-673.22 208,-664.57 208,-656.73"/>
<polygon fill="black" stroke="black" points="211.5,-656.74 208,-646.74 204.5,-656.74 211.5,-656.74"/>
</g>
<!-- j369992005&#45;&gt;j4093268418 -->
<g id="edge26" class="edge">
<title>j369992005&#45;&gt;j4093268418</title>
<path fill="none" stroke="black" d="M445.74,-689.05C390.04,-674.75 327.13,-658.59 280.03,-646.5"/>
<polygon fill="black" stroke="black" points="281.04,-643.14 270.48,-644.04 279.29,-649.92 281.04,-643.14"/>
</g>
<!-- j3271840462 -->
<g id="node23" class="node">
<title>j3271840462</title>
<polygon fill="none" stroke="blue" points="1218,-477.5 984,-477.5 984,-424.5 1218,-424.5 1218,-477.5"/>
<text text-anchor="middle" x="1101" y="-462.3" font-family="Times New Roman,serif" font-size="14.00">To nie ich wina&#13;</text>
<text text-anchor="middle" x="1101" y="-447.3" font-family="Times New Roman,serif" font-size="14.00">To też nie moja wina, babas&#13;</text>
<text text-anchor="middle" x="1101" y="-432.3" font-family="Times New Roman,serif" font-size="14.00">Po prostu mam tego wszystkiego dość</text>
</g>
<!-- j1986961050&#45;&gt;j3271840462 -->
<g id="edge27" class="edge">
<title>j1986961050&#45;&gt;j3271840462</title>
<path fill="none" stroke="black" d="M1179.64,-521.81C1167.91,-511.4 1152.54,-497.75 1138.51,-485.3"/>
<polygon fill="black" stroke="black" points="1140.92,-482.76 1131.12,-478.74 1136.27,-487.99 1140.92,-482.76"/>
</g>
<!-- j3143700454 -->
<g id="node24" class="node">
<title>j3143700454</title>
<ellipse fill="none" stroke="orange" cx="774" cy="-451" rx="64.19" ry="18"/>
<text text-anchor="middle" x="774" y="-447.3" font-family="Times New Roman,serif" font-size="14.00">+10 Chemistry</text>
</g>
<!-- j2182656708&#45;&gt;j3143700454 -->
<g id="edge28" class="edge">
<title>j2182656708&#45;&gt;j3143700454</title>
<path fill="none" stroke="black" d="M774.8,-521.81C774.67,-510.09 774.49,-494.29 774.33,-480.68"/>
<polygon fill="black" stroke="black" points="777.83,-480.92 774.22,-470.96 770.83,-481 777.83,-480.92"/>
</g>
<!-- j3197353402 -->
<g id="node25" class="node">
<title>j3197353402</title>
<ellipse fill="none" stroke="orange" cx="422" cy="-451" rx="64.19" ry="18"/>
<text text-anchor="middle" x="422" y="-447.3" font-family="Times New Roman,serif" font-size="14.00">+20 Chemistry</text>
</g>
<!-- j662281623&#45;&gt;j3197353402 -->
<g id="edge29" class="edge">
<title>j662281623&#45;&gt;j3197353402</title>
<path fill="none" stroke="black" d="M399.53,-521.81C403.37,-509.9 408.56,-493.76 412.99,-480"/>
<polygon fill="black" stroke="black" points="416.28,-481.18 416.02,-470.59 409.62,-479.04 416.28,-481.18"/>
</g>
<!-- j582201904 -->
<g id="node26" class="node">
<title>j582201904</title>
<ellipse fill="none" stroke="orange" cx="151" cy="-540" rx="64.19" ry="18"/>
<text text-anchor="middle" x="151" y="-536.3" font-family="Times New Roman,serif" font-size="14.00">+20 Chemistry</text>
</g>
<!-- j4093268418&#45;&gt;j582201904 -->
<g id="edge30" class="edge">
<title>j4093268418&#45;&gt;j582201904</title>
<path fill="none" stroke="black" d="M196.47,-608.8C188.51,-596.93 177.78,-580.93 168.74,-567.45"/>
<polygon fill="black" stroke="black" points="171.84,-565.79 163.36,-559.43 166.02,-569.69 171.84,-565.79"/>
</g>
<!-- j4248732948 -->
<g id="node27" class="node">
<title>j4248732948</title>
<polygon fill="none" stroke="blue" points="947,-294 805,-294 805,-256 947,-256 947,-294"/>
<text text-anchor="middle" x="876" y="-278.8" font-family="Times New Roman,serif" font-size="14.00">Hablando de&#13;</text>
<text text-anchor="middle" x="876" y="-263.8" font-family="Times New Roman,serif" font-size="14.00">Czas wracać do pracy</text>
</g>
<!-- j3271840462&#45;&gt;j4248732948 -->
<g id="edge31" class="edge">
<title>j3271840462&#45;&gt;j4248732948</title>
<path fill="none" stroke="black" d="M1067.8,-424.33C1025.07,-391.28 951.28,-334.22 908.76,-301.34"/>
<polygon fill="black" stroke="black" points="910.93,-298.59 900.88,-295.24 906.65,-304.12 910.93,-298.59"/>
</g>
<!-- j1566984312 -->
<g id="node28" class="node">
<title>j1566984312</title>
<polygon fill="none" stroke="blue" points="908,-380 612,-380 612,-312 908,-312 908,-380"/>
<text text-anchor="middle" x="760" y="-364.8" font-family="Times New Roman,serif" font-size="14.00">Sí, to nie ich wina, że zawsze jest ich więcej.&#13;</text>
<text text-anchor="middle" x="760" y="-349.8" font-family="Times New Roman,serif" font-size="14.00">Zawsze myślałam, że to nigdy się nie skończy&#13;</text>
<text text-anchor="middle" x="760" y="-334.8" font-family="Times New Roman,serif" font-size="14.00">Teraz wiem, że to naprawdę nigdy się nie skończy&#13;</text>
<text text-anchor="middle" x="760" y="-319.8" font-family="Times New Roman,serif" font-size="14.00">Lua, sálvame</text>
</g>
<!-- j3143700454&#45;&gt;j1566984312 -->
<g id="edge32" class="edge">
<title>j3143700454&#45;&gt;j1566984312</title>
<path fill="none" stroke="black" d="M771.63,-432.53C770.1,-421.3 768.04,-406.16 766.08,-391.74"/>
<polygon fill="black" stroke="black" points="769.56,-391.35 764.75,-381.91 762.62,-392.29 769.56,-391.35"/>
</g>
<!-- j4114903897 -->
<g id="node29" class="node">
<title>j4114903897</title>
<polygon fill="none" stroke="blue" points="589.5,-380 302.5,-380 302.5,-312 589.5,-312 589.5,-380"/>
<text text-anchor="middle" x="446" y="-364.8" font-family="Times New Roman,serif" font-size="14.00">JAJAJA&#13;</text>
<text text-anchor="middle" x="446" y="-349.8" font-family="Times New Roman,serif" font-size="14.00">Oh, babas, wiesz jak rozweselić damę&#13;</text>
<text text-anchor="middle" x="446" y="-334.8" font-family="Times New Roman,serif" font-size="14.00">Wyryj to na moim grobie&#13;</text>
<text text-anchor="middle" x="446" y="-319.8" font-family="Times New Roman,serif" font-size="14.00">&quot;Aquí yace la puerta más sexy que hayas visto.&quot;</text>
</g>
<!-- j3197353402&#45;&gt;j4114903897 -->
<g id="edge33" class="edge">
<title>j3197353402&#45;&gt;j4114903897</title>
<path fill="none" stroke="black" d="M425.96,-432.99C428.62,-421.61 432.24,-406.06 435.67,-391.32"/>
<polygon fill="black" stroke="black" points="439.04,-392.29 437.9,-381.76 432.22,-390.7 439.04,-392.29"/>
</g>
<!-- j3302305288 -->
<g id="node30" class="node">
<title>j3302305288</title>
<polygon fill="none" stroke="blue" points="292.5,-485 29.5,-485 29.5,-417 292.5,-417 292.5,-485"/>
<text text-anchor="middle" x="161" y="-469.8" font-family="Times New Roman,serif" font-size="14.00">Podoba mi się to pytanie, babas&#13;</text>
<text text-anchor="middle" x="161" y="-454.8" font-family="Times New Roman,serif" font-size="14.00">Zadawaj je dalej&#13;</text>
<text text-anchor="middle" x="161" y="-439.8" font-family="Times New Roman,serif" font-size="14.00">Od czasu do czasu mogę tego potrzebować&#13;</text>
<text text-anchor="middle" x="161" y="-424.8" font-family="Times New Roman,serif" font-size="14.00">I filiżanka lub dwie kawy też nie zaszkodzą</text>
</g>
<!-- j582201904&#45;&gt;j3302305288 -->
<g id="edge34" class="edge">
<title>j582201904&#45;&gt;j3302305288</title>
<path fill="none" stroke="black" d="M152.98,-521.81C153.82,-514.5 154.84,-505.6 155.87,-496.63"/>
<polygon fill="black" stroke="black" points="159.33,-497.2 156.99,-486.86 152.37,-496.4 159.33,-497.2"/>
</g>
<!-- j4248732948&#45;&gt;Chat ends. -->
<g id="edge35" class="edge">
<title>j4248732948&#45;&gt;Chat ends.</title>
<path fill="none" stroke="black" d="M847.37,-255.63C803.89,-227.82 718.49,-173.55 645,-129 592.16,-96.97 530.18,-61.01 492.26,-39.19"/>
<polygon fill="black" stroke="black" points="494.42,-36.4 484,-34.45 490.93,-42.47 494.42,-36.4"/>
</g>
<!-- j425630902 -->
<g id="node31" class="node">
<title>j425630902</title>
<polygon fill="none" stroke="blue" points="636,-182 464,-182 464,-129 636,-129 636,-182"/>
<text text-anchor="middle" x="550" y="-166.8" font-family="Times New Roman,serif" font-size="14.00">Hablando de&#13;</text>
<text text-anchor="middle" x="550" y="-151.8" font-family="Times New Roman,serif" font-size="14.00">Czas na pracę&#13;</text>
<text text-anchor="middle" x="550" y="-136.8" font-family="Times New Roman,serif" font-size="14.00">Dzięki za odwrócenie uwagi</text>
</g>
<!-- j1566984312&#45;&gt;j425630902 -->
<g id="edge36" class="edge">
<title>j1566984312&#45;&gt;j425630902</title>
<path fill="none" stroke="black" d="M722.94,-311.73C684.74,-277.44 625.5,-224.27 587.23,-189.92"/>
<polygon fill="black" stroke="black" points="589.83,-187.55 580.05,-183.48 585.16,-192.76 589.83,-187.55"/>
</g>
<!-- j2063974720 -->
<g id="node32" class="node">
<title>j2063974720</title>
<polygon fill="none" stroke="blue" points="584.5,-238 387.5,-238 387.5,-200 584.5,-200 584.5,-238"/>
<text text-anchor="middle" x="486" y="-222.8" font-family="Times New Roman,serif" font-size="14.00">Gracias por hacerme reír, babas&#13;</text>
<text text-anchor="middle" x="486" y="-207.8" font-family="Times New Roman,serif" font-size="14.00">Potrzebowałam tego</text>
</g>
<!-- j4114903897&#45;&gt;j2063974720 -->
<g id="edge37" class="edge">
<title>j4114903897&#45;&gt;j2063974720</title>
<path fill="none" stroke="black" d="M456.72,-311.5C462.93,-292.1 470.67,-267.9 476.63,-249.27"/>
<polygon fill="black" stroke="black" points="479.91,-250.51 479.63,-239.92 473.25,-248.37 479.91,-250.51"/>
</g>
<!-- j3234296588 -->
<g id="node33" class="node">
<title>j3234296588</title>
<ellipse fill="none" stroke="orange" cx="164" cy="-346" rx="113.98" ry="18"/>
<text text-anchor="middle" x="164" y="-342.3" font-family="Times New Roman,serif" font-size="14.00">Check boolean LettieNoFlirt</text>
</g>
<!-- j3302305288&#45;&gt;j3234296588 -->
<g id="edge38" class="edge">
<title>j3302305288&#45;&gt;j3234296588</title>
<path fill="none" stroke="black" d="M161.97,-416.56C162.36,-403.38 162.79,-388.4 163.16,-375.72"/>
<polygon fill="black" stroke="black" points="166.66,-376.02 163.45,-365.92 159.66,-375.82 166.66,-376.02"/>
</g>
<!-- j425630902&#45;&gt;Chat ends. -->
<g id="edge39" class="edge">
<title>j425630902&#45;&gt;Chat ends.</title>
<path fill="none" stroke="black" d="M532.29,-128.69C515.8,-104.67 491.35,-69.04 474.82,-44.97"/>
<polygon fill="black" stroke="black" points="477.88,-43.24 469.34,-36.98 472.11,-47.21 477.88,-43.24"/>
</g>
<!-- j2151718281 -->
<g id="node34" class="node">
<title>j2151718281</title>
<polygon fill="none" stroke="blue" points="440.5,-111 243.5,-111 243.5,-73 440.5,-73 440.5,-111"/>
<text text-anchor="middle" x="342" y="-95.8" font-family="Times New Roman,serif" font-size="14.00">Wracamy do pracy, ¿no?&#13;</text>
<text text-anchor="middle" x="342" y="-80.8" font-family="Times New Roman,serif" font-size="14.00">Oboje jesteśmy na to zbyt zajęci</text>
</g>
<!-- j2063974720&#45;&gt;j2151718281 -->
<g id="edge40" class="edge">
<title>j2063974720&#45;&gt;j2151718281</title>
<path fill="none" stroke="black" d="M464.75,-199.56C440.04,-178.11 399.11,-142.58 371.37,-118.5"/>
<polygon fill="black" stroke="black" points="373.86,-116.02 364.01,-112.11 369.27,-121.3 373.86,-116.02"/>
</g>
<!-- j1918972960 -->
<g id="node35" class="node">
<title>j1918972960</title>
<polygon fill="none" stroke="red" points="369,-237 315,-237 315,-201 369,-201 369,-237"/>
<text text-anchor="middle" x="342" y="-215.3" font-family="Times New Roman,serif" font-size="14.00">Jasne.</text>
</g>
<!-- j3234296588&#45;&gt;j1918972960 -->
<g id="edge41" class="edge">
<title>j3234296588&#45;&gt;j1918972960</title>
<path fill="none" stroke="green" d="M201.61,-328.66C220.72,-319.61 243.88,-307.48 263,-294 283.21,-279.74 303.53,-260.59 318.49,-245.33"/>
<polygon fill="green" stroke="green" points="320.75,-248.04 325.17,-238.41 315.71,-243.18 320.75,-248.04"/>
<text text-anchor="middle" x="316" y="-271.3" font-family="Times New Roman,serif" font-size="14.00">true</text>
</g>
<!-- j3765759481 -->
<g id="node36" class="node">
<title>j3765759481</title>
<polygon fill="none" stroke="red" points="209.5,-237 28.5,-237 28.5,-201 209.5,-201 209.5,-237"/>
<text text-anchor="middle" x="119" y="-215.3" font-family="Times New Roman,serif" font-size="14.00">Zobaczę co dam radę zrobić.</text>
</g>
<!-- j3234296588&#45;&gt;j3765759481 -->
<g id="edge42" class="edge">
<title>j3234296588&#45;&gt;j3765759481</title>
<path fill="none" stroke="green" d="M144.16,-328.22C134.96,-319.15 124.98,-307.12 120,-294 114.55,-279.64 113.97,-262.56 114.9,-248.43"/>
<polygon fill="green" stroke="green" points="118.35,-249.17 115.82,-238.88 111.38,-248.5 118.35,-249.17"/>
<text text-anchor="middle" x="131" y="-271.3" font-family="Times New Roman,serif" font-size="14.00">true</text>
</g>
<!-- j3234296588&#45;&gt;j3765759481 -->
<g id="edge44" class="edge">
<title>j3234296588&#45;&gt;j3765759481</title>
<path fill="none" stroke="brown" d="M161.45,-327.74C158.35,-309.4 152.23,-279.84 142,-256 140.71,-253 139.18,-249.96 137.54,-246.99"/>
<polygon fill="brown" stroke="brown" points="140.63,-245.34 132.46,-238.6 134.64,-248.97 140.63,-245.34"/>
<text text-anchor="middle" x="167" y="-271.3" font-family="Times New Roman,serif" font-size="14.00">false</text>
</g>
<!-- j2558552428 -->
<g id="node37" class="node">
<title>j2558552428</title>
<polygon fill="none" stroke="red" points="296.5,-237 227.5,-237 227.5,-201 296.5,-201 296.5,-237"/>
<text text-anchor="middle" x="262" y="-215.3" font-family="Times New Roman,serif" font-size="14.00">Jasne. &lt;3</text>
</g>
<!-- j3234296588&#45;&gt;j2558552428 -->
<g id="edge43" class="edge">
<title>j3234296588&#45;&gt;j2558552428</title>
<path fill="none" stroke="brown" d="M177.42,-327.88C193.97,-306.77 222.26,-270.69 241.53,-246.11"/>
<polygon fill="brown" stroke="brown" points="244.08,-248.53 247.49,-238.5 238.57,-244.21 244.08,-248.53"/>
<text text-anchor="middle" x="246" y="-271.3" font-family="Times New Roman,serif" font-size="14.00">false</text>
</g>
<!-- j2151718281&#45;&gt;Chat ends. -->
<g id="edge45" class="edge">
<title>j2151718281&#45;&gt;Chat ends.</title>
<path fill="none" stroke="black" d="M371.32,-72.65C387.23,-62.68 406.96,-50.33 423.48,-39.99"/>
<polygon fill="black" stroke="black" points="424.88,-43.24 431.5,-34.97 421.16,-37.31 424.88,-43.24"/>
</g>
<!-- j1918972960&#45;&gt;j2151718281 -->
<g id="edge46" class="edge">
<title>j1918972960&#45;&gt;j2151718281</title>
<path fill="none" stroke="black" d="M342,-200.62C342,-180.53 342,-147.14 342,-122.86"/>
<polygon fill="black" stroke="black" points="345.5,-122.97 342,-112.97 338.5,-122.97 345.5,-122.97"/>
</g>
<!-- j3765759481&#45;&gt;j2151718281 -->
<g id="edge47" class="edge">
<title>j3765759481&#45;&gt;j2151718281</title>
<path fill="none" stroke="black" d="M150.01,-200.62C188.79,-178.88 255.38,-141.56 299.05,-117.08"/>
<polygon fill="black" stroke="black" points="300.75,-120.14 307.76,-112.19 297.33,-114.03 300.75,-120.14"/>
</g>
<!-- j2558552428&#45;&gt;j2151718281 -->
<g id="edge48" class="edge">
<title>j2558552428&#45;&gt;j2151718281</title>
<path fill="none" stroke="black" d="M273.12,-200.62C286.33,-179.98 308.53,-145.3 324.15,-120.89"/>
<polygon fill="black" stroke="black" points="326.93,-123.04 329.37,-112.73 321.04,-119.26 326.93,-123.04"/>
</g>
</g>
</svg>
