<?xml version="1.0" encoding="UTF-8" standalone="no"?>
<!DOCTYPE svg PUBLIC "-//W3C//DTD SVG 1.1//EN"
 "http://www.w3.org/Graphics/SVG/1.1/DTD/svg11.dtd">
<!-- Generated by graphviz version 7.1.0 (20230121.1956)
 -->
<!-- Pages: 1 -->
<svg width="1281pt" height="1586pt"
 viewBox="0.00 0.00 1281.24 1586.00" xmlns="http://www.w3.org/2000/svg" xmlns:xlink="http://www.w3.org/1999/xlink">
<g id="graph0" class="graph" transform="scale(1 1) rotate(0) translate(4 1582)">
<polygon fill="white" stroke="none" points="-4,4 -4,-1582 1277.24,-1582 1277.24,4 -4,4"/>
<!-- LettieRank4Convo4 begins. -->
<g id="node1" class="node">
<title>LettieRank4Convo4 begins.</title>
<ellipse fill="none" stroke="orange" cx="113.74" cy="-1560" rx="111.58" ry="18"/>
<text text-anchor="middle" x="113.74" y="-1556.3" font-family="Times New Roman,serif" font-size="14.00">LettieRank4Convo4 begins.</text>
</g>
<!-- j1158339480 -->
<g id="node2" class="node">
<title>j1158339480</title>
<ellipse fill="none" stroke="orange" cx="113.74" cy="-1487" rx="113.98" ry="18"/>
<text text-anchor="middle" x="113.74" y="-1483.3" font-family="Times New Roman,serif" font-size="14.00">Check boolean LettieNoFlirt</text>
</g>
<!-- LettieRank4Convo4 begins.&#45;&gt;j1158339480 -->
<g id="edge1" class="edge">
<title>LettieRank4Convo4 begins.&#45;&gt;j1158339480</title>
<path fill="none" stroke="black" d="M113.74,-1541.81C113.74,-1534.23 113.74,-1525.1 113.74,-1516.54"/>
<polygon fill="black" stroke="black" points="117.24,-1516.54 113.74,-1506.54 110.24,-1516.54 117.24,-1516.54"/>
</g>
<!-- Chat ends. -->
<g id="node3" class="node">
<title>Chat ends.</title>
<ellipse fill="none" stroke="orange" cx="425.74" cy="-18" rx="50.09" ry="18"/>
<text text-anchor="middle" x="425.74" y="-14.3" font-family="Times New Roman,serif" font-size="14.00">Chat ends.</text>
</g>
<!-- j1158339480&#45;&gt;Chat ends. -->
<g id="edge2" class="edge">
<title>j1158339480&#45;&gt;Chat ends.</title>
<path fill="none" stroke="green" d="M108.5,-1468.6C103.83,-1451.54 97.74,-1424.73 97.74,-1401 97.74,-1401 97.74,-1401 97.74,-91 97.74,-37.06 269.09,-23.48 364.1,-20.1"/>
<polygon fill="green" stroke="green" points="364.17,-23.6 374.05,-19.77 363.95,-16.6 364.17,-23.6"/>
<text text-anchor="middle" x="108.74" y="-749.3" font-family="Times New Roman,serif" font-size="14.00">true</text>
</g>
<!-- j3956129826 -->
<g id="node4" class="node">
<title>j3956129826</title>
<polygon fill="none" stroke="red" points="721.74,-1418 167.74,-1418 167.74,-1382 721.74,-1382 721.74,-1418"/>
<text text-anchor="middle" x="444.74" y="-1396.3" font-family="Times New Roman,serif" font-size="14.00">Mam pytanie teoretyczne: Czy gdybym zaprosiłbym cię na drinka, czy skończyłbym w lecznicy?</text>
</g>
<!-- j1158339480&#45;&gt;j3956129826 -->
<g id="edge3" class="edge">
<title>j1158339480&#45;&gt;j3956129826</title>
<path fill="none" stroke="brown" d="M171.77,-1471.1C225.62,-1457.27 306.21,-1436.57 365.87,-1421.25"/>
<polygon fill="brown" stroke="brown" points="366.48,-1424.71 375.29,-1418.83 364.74,-1417.93 366.48,-1424.71"/>
<text text-anchor="middle" x="311.74" y="-1439.8" font-family="Times New Roman,serif" font-size="14.00">false</text>
</g>
<!-- j3741727461 -->
<g id="node5" class="node">
<title>j3741727461</title>
<ellipse fill="none" stroke="orange" cx="709.74" cy="-1327" rx="115.88" ry="18"/>
<text text-anchor="middle" x="709.74" y="-1323.3" font-family="Times New Roman,serif" font-size="14.00">Check boolean LettieNoDate</text>
</g>
<!-- j3956129826&#45;&gt;j3741727461 -->
<g id="edge4" class="edge">
<title>j3956129826&#45;&gt;j3741727461</title>
<path fill="none" stroke="black" d="M509.91,-1381.54C550.19,-1370.75 601.8,-1356.92 642.47,-1346.02"/>
<polygon fill="black" stroke="black" points="643.15,-1349.46 651.9,-1343.5 641.34,-1342.7 643.15,-1349.46"/>
</g>
<!-- j450116916 -->
<g id="node6" class="node">
<title>j450116916</title>
<polygon fill="none" stroke="blue" points="1273.24,-1202 1188.24,-1202 1188.24,-1164 1273.24,-1164 1273.24,-1202"/>
<text text-anchor="middle" x="1230.74" y="-1186.8" font-family="Times New Roman,serif" font-size="14.00">Sí &#13;</text>
<text text-anchor="middle" x="1230.74" y="-1171.8" font-family="Times New Roman,serif" font-size="14.00">Tak by było</text>
</g>
<!-- j3741727461&#45;&gt;j450116916 -->
<g id="edge5" class="edge">
<title>j3741727461&#45;&gt;j450116916</title>
<path fill="none" stroke="green" d="M765.5,-1310.8C866.35,-1283.32 1077.81,-1225.68 1177.1,-1198.62"/>
<polygon fill="green" stroke="green" points="1177.87,-1202.04 1186.6,-1196.03 1176.03,-1195.28 1177.87,-1202.04"/>
<text text-anchor="middle" x="903.74" y="-1279.8" font-family="Times New Roman,serif" font-size="14.00">true</text>
</g>
<!-- j1055071471 -->
<g id="node7" class="node">
<title>j1055071471</title>
<polygon fill="none" stroke="blue" points="744.24,-1258 675.24,-1258 675.24,-1220 744.24,-1220 744.24,-1258"/>
<text text-anchor="middle" x="709.74" y="-1242.8" font-family="Times New Roman,serif" font-size="14.00">Mm? &#13;</text>
<text text-anchor="middle" x="709.74" y="-1227.8" font-family="Times New Roman,serif" font-size="14.00">Jajaja, nie</text>
</g>
<!-- j3741727461&#45;&gt;j1055071471 -->
<g id="edge6" class="edge">
<title>j3741727461&#45;&gt;j1055071471</title>
<path fill="none" stroke="brown" d="M709.74,-1308.6C709.74,-1297.4 709.74,-1282.56 709.74,-1269.55"/>
<polygon fill="brown" stroke="brown" points="713.24,-1269.78 709.74,-1259.78 706.24,-1269.78 713.24,-1269.78"/>
<text text-anchor="middle" x="722.74" y="-1279.8" font-family="Times New Roman,serif" font-size="14.00">false</text>
</g>
<!-- j450116916&#45;&gt;Chat ends. -->
<g id="edge7" class="edge">
<title>j450116916&#45;&gt;Chat ends.</title>
<path fill="none" stroke="black" d="M1237.41,-1163.68C1245.41,-1140.05 1257.74,-1097.53 1257.74,-1060 1257.74,-1060 1257.74,-1060 1257.74,-91 1257.74,-52.3 678.99,-28.07 486.88,-21.09"/>
<polygon fill="black" stroke="black" points="487.23,-17.6 477.11,-20.74 486.98,-24.6 487.23,-17.6"/>
</g>
<!-- j3865011982 -->
<g id="node8" class="node">
<title>j3865011982</title>
<polygon fill="none" stroke="blue" points="905.74,-1146 513.74,-1146 513.74,-1078 905.74,-1078 905.74,-1146"/>
<text text-anchor="middle" x="709.74" y="-1130.8" font-family="Times New Roman,serif" font-size="14.00">Ale nie piję, nigdy nie piłam &#13;</text>
<text text-anchor="middle" x="709.74" y="-1115.8" font-family="Times New Roman,serif" font-size="14.00">Nie biorę też używek &#13;</text>
<text text-anchor="middle" x="709.74" y="-1100.8" font-family="Times New Roman,serif" font-size="14.00">Musisz się bardziej postarać, jeśli chcesz dostać się do moich gaci &#13;</text>
<text text-anchor="middle" x="709.74" y="-1085.8" font-family="Times New Roman,serif" font-size="14.00">Czy czegokolwiek co muszę teraz nosić</text>
</g>
<!-- j1055071471&#45;&gt;j3865011982 -->
<g id="edge8" class="edge">
<title>j1055071471&#45;&gt;j3865011982</title>
<path fill="none" stroke="black" d="M709.74,-1219.56C709.74,-1203.28 709.74,-1178.9 709.74,-1157.57"/>
<polygon fill="black" stroke="black" points="713.24,-1157.61 709.74,-1147.61 706.24,-1157.61 713.24,-1157.61"/>
</g>
<!-- j374235008 -->
<g id="node9" class="node">
<title>j374235008</title>
<polygon fill="none" stroke="red" points="1050.24,-987 665.24,-987 665.24,-951 1050.24,-951 1050.24,-987"/>
<text text-anchor="middle" x="857.74" y="-965.3" font-family="Times New Roman,serif" font-size="14.00">Dobrze wiedzieć :) Jakieś wskazówki, co mogłoby cię przekonać?</text>
</g>
<!-- j3865011982&#45;&gt;j374235008 -->
<g id="edge9" class="edge">
<title>j3865011982&#45;&gt;j374235008</title>
<path fill="none" stroke="black" d="M744.81,-1077.58C771.31,-1052.34 807.11,-1018.24 831.24,-995.25"/>
<polygon fill="black" stroke="black" points="833.64,-997.8 838.46,-988.36 828.81,-992.73 833.64,-997.8"/>
</g>
<!-- j411680531 -->
<g id="node10" class="node">
<title>j411680531</title>
<polygon fill="none" stroke="red" points="717.74,-1041 471.74,-1041 471.74,-1005 717.74,-1005 717.74,-1041"/>
<text text-anchor="middle" x="594.74" y="-1019.3" font-family="Times New Roman,serif" font-size="14.00">Skoro o tym mowa... chciałem zapytać...</text>
</g>
<!-- j3865011982&#45;&gt;j411680531 -->
<g id="edge10" class="edge">
<title>j3865011982&#45;&gt;j411680531</title>
<path fill="none" stroke="black" d="M665.61,-1077.61C652.71,-1067.86 638.87,-1057.38 626.87,-1048.31"/>
<polygon fill="black" stroke="black" points="628.99,-1045.52 618.9,-1042.28 624.76,-1051.1 628.99,-1045.52"/>
</g>
<!-- j2526789641 -->
<g id="node11" class="node">
<title>j2526789641</title>
<polygon fill="none" stroke="blue" points="1229.74,-549.5 705.74,-549.5 705.74,-496.5 1229.74,-496.5 1229.74,-549.5"/>
<text text-anchor="middle" x="967.74" y="-534.3" font-family="Times New Roman,serif" font-size="14.00">Musisz być pewien, że wiesz o co prosisz, babas &#13;</text>
<text text-anchor="middle" x="967.74" y="-519.3" font-family="Times New Roman,serif" font-size="14.00">Jeśli szukasz kogoś uroczego i miłego, pogadaj z Aoi albo Amirem &#13;</text>
<text text-anchor="middle" x="967.74" y="-504.3" font-family="Times New Roman,serif" font-size="14.00">Za dobrze znam się z bólem i za bardzo się z nim polubiłam, żeby wchodzić w takie układy</text>
</g>
<!-- j374235008&#45;&gt;j2526789641 -->
<g id="edge11" class="edge">
<title>j374235008&#45;&gt;j2526789641</title>
<path fill="none" stroke="black" d="M862.09,-950.73C866.2,-932.89 871.74,-904.18 871.74,-879 871.74,-879 871.74,-879 871.74,-626 871.74,-597.68 891.61,-574.02 913.26,-556.64"/>
<polygon fill="black" stroke="black" points="915.21,-559.56 921.06,-550.73 910.98,-553.98 915.21,-559.56"/>
</g>
<!-- j557481327 -->
<g id="node12" class="node">
<title>j557481327</title>
<polygon fill="none" stroke="blue" points="540.74,-933 486.74,-933 486.74,-897 540.74,-897 540.74,-933"/>
<text text-anchor="middle" x="513.74" y="-911.3" font-family="Times New Roman,serif" font-size="14.00">¿Qué?</text>
</g>
<!-- j411680531&#45;&gt;j557481327 -->
<g id="edge12" class="edge">
<title>j411680531&#45;&gt;j557481327</title>
<path fill="none" stroke="black" d="M581.73,-1004.97C568.81,-988.07 548.84,-961.94 533.88,-942.36"/>
<polygon fill="black" stroke="black" points="536.76,-940.36 527.91,-934.54 531.2,-944.61 536.76,-940.36"/>
</g>
<!-- j4126308091 -->
<g id="node13" class="node">
<title>j4126308091</title>
<polygon fill="none" stroke="red" points="542.24,-437 309.24,-437 309.24,-401 542.24,-401 542.24,-437"/>
<text text-anchor="middle" x="425.74" y="-415.3" font-family="Times New Roman,serif" font-size="14.00">Tak proszę pani. Czuję się ostrzeżony.</text>
</g>
<!-- j2526789641&#45;&gt;j4126308091 -->
<g id="edge13" class="edge">
<title>j2526789641&#45;&gt;j4126308091</title>
<path fill="none" stroke="black" d="M829.92,-496.06C736.57,-478.5 615.17,-455.65 529.87,-439.6"/>
<polygon fill="black" stroke="black" points="530.57,-436.17 520.1,-437.76 529.28,-443.05 530.57,-436.17"/>
</g>
<!-- j3000129040 -->
<g id="node14" class="node">
<title>j3000129040</title>
<polygon fill="none" stroke="red" points="820.74,-437 560.74,-437 560.74,-401 820.74,-401 820.74,-437"/>
<text text-anchor="middle" x="690.74" y="-415.3" font-family="Times New Roman,serif" font-size="14.00">Um... Tak, zapomnij. Ból to nie moja bajka.</text>
</g>
<!-- j2526789641&#45;&gt;j3000129040 -->
<g id="edge14" class="edge">
<title>j2526789641&#45;&gt;j3000129040</title>
<path fill="none" stroke="black" d="M897.48,-496.13C851.53,-479.21 792.21,-457.37 748.91,-441.42"/>
<polygon fill="black" stroke="black" points="750.28,-438.19 739.68,-438.02 747.86,-444.76 750.28,-438.19"/>
</g>
<!-- j3855672638 -->
<g id="node15" class="node">
<title>j3855672638</title>
<polygon fill="none" stroke="red" points="747.24,-860 280.24,-860 280.24,-824 747.24,-824 747.24,-860"/>
<text text-anchor="middle" x="513.74" y="-838.3" font-family="Times New Roman,serif" font-size="14.00">Zastanawiałem się czy ty i inne protoframe macie... no wiesz... te części... ciała...</text>
</g>
<!-- j557481327&#45;&gt;j3855672638 -->
<g id="edge15" class="edge">
<title>j557481327&#45;&gt;j3855672638</title>
<path fill="none" stroke="black" d="M513.74,-896.81C513.74,-889.23 513.74,-880.1 513.74,-871.54"/>
<polygon fill="black" stroke="black" points="517.24,-871.54 513.74,-861.54 510.24,-871.54 517.24,-871.54"/>
</g>
<!-- j979730890 -->
<g id="node16" class="node">
<title>j979730890</title>
<polygon fill="none" stroke="red" points="253.24,-860 144.24,-860 144.24,-824 253.24,-824 253.24,-860"/>
<text text-anchor="middle" x="198.74" y="-838.3" font-family="Times New Roman,serif" font-size="14.00">Uch &#45; Nieważne.</text>
</g>
<!-- j557481327&#45;&gt;j979730890 -->
<g id="edge16" class="edge">
<title>j557481327&#45;&gt;j979730890</title>
<path fill="none" stroke="black" d="M486.38,-908.04C441.37,-898.22 348.88,-877.91 270.74,-860 268.63,-859.52 266.48,-859.02 264.31,-858.52"/>
<polygon fill="black" stroke="black" points="265.37,-855.17 254.84,-856.32 263.79,-861.99 265.37,-855.17"/>
</g>
<!-- j136012393 -->
<g id="node17" class="node">
<title>j136012393</title>
<ellipse fill="none" stroke="orange" cx="425.74" cy="-346" rx="123.48" ry="18"/>
<text text-anchor="middle" x="425.74" y="-342.3" font-family="Times New Roman,serif" font-size="14.00">Boolean LettiePain is now true.</text>
</g>
<!-- j4126308091&#45;&gt;j136012393 -->
<g id="edge17" class="edge">
<title>j4126308091&#45;&gt;j136012393</title>
<path fill="none" stroke="black" d="M425.74,-400.81C425.74,-393.23 425.74,-384.1 425.74,-375.54"/>
<polygon fill="black" stroke="black" points="429.24,-375.54 425.74,-365.54 422.24,-375.54 429.24,-375.54"/>
</g>
<!-- j1788485261 -->
<g id="node18" class="node">
<title>j1788485261</title>
<ellipse fill="none" stroke="orange" cx="689.74" cy="-346" rx="64.19" ry="18"/>
<text text-anchor="middle" x="689.74" y="-342.3" font-family="Times New Roman,serif" font-size="14.00">+15 Chemistry</text>
</g>
<!-- j3000129040&#45;&gt;j1788485261 -->
<g id="edge18" class="edge">
<title>j3000129040&#45;&gt;j1788485261</title>
<path fill="none" stroke="black" d="M690.5,-400.81C690.39,-393.23 690.26,-384.1 690.14,-375.54"/>
<polygon fill="black" stroke="black" points="693.64,-375.49 690,-365.54 686.64,-375.59 693.64,-375.49"/>
</g>
<!-- j4188288277 -->
<g id="node19" class="node">
<title>j4188288277</title>
<polygon fill="none" stroke="blue" points="650.24,-787 377.24,-787 377.24,-719 650.24,-719 650.24,-787"/>
<text text-anchor="middle" x="513.74" y="-771.8" font-family="Times New Roman,serif" font-size="14.00">JAJAJAJAJA &#13;</text>
<text text-anchor="middle" x="513.74" y="-756.8" font-family="Times New Roman,serif" font-size="14.00">Ty na poważnie?! &#13;</text>
<text text-anchor="middle" x="513.74" y="-741.8" font-family="Times New Roman,serif" font-size="14.00">Nie możesz ludzi o to tak po prostu pytać &#45;&#13;</text>
<text text-anchor="middle" x="513.74" y="-726.8" font-family="Times New Roman,serif" font-size="14.00">Ajjj babaaaaassss, dawno się tak nie uśmiałam</text>
</g>
<!-- j3855672638&#45;&gt;j4188288277 -->
<g id="edge19" class="edge">
<title>j3855672638&#45;&gt;j4188288277</title>
<path fill="none" stroke="black" d="M513.74,-823.81C513.74,-816.5 513.74,-807.6 513.74,-798.63"/>
<polygon fill="black" stroke="black" points="517.24,-798.87 513.74,-788.87 510.24,-798.87 517.24,-798.87"/>
</g>
<!-- j2487069545 -->
<g id="node20" class="node">
<title>j2487069545</title>
<polygon fill="none" stroke="blue" points="242.24,-701 127.24,-701 127.24,-663 242.24,-663 242.24,-701"/>
<text text-anchor="middle" x="184.74" y="-685.8" font-family="Times New Roman,serif" font-size="14.00">Va &#13;</text>
<text text-anchor="middle" x="184.74" y="-670.8" font-family="Times New Roman,serif" font-size="14.00">I tak jestem zajęta</text>
</g>
<!-- j979730890&#45;&gt;j2487069545 -->
<g id="edge20" class="edge">
<title>j979730890&#45;&gt;j2487069545</title>
<path fill="none" stroke="black" d="M197.22,-823.79C194.84,-797.01 190.24,-745.03 187.33,-712.27"/>
<polygon fill="black" stroke="black" points="190.85,-712.32 186.48,-702.67 183.88,-712.94 190.85,-712.32"/>
</g>
<!-- j2846474185 -->
<g id="node21" class="node">
<title>j2846474185</title>
<ellipse fill="none" stroke="orange" cx="425.74" cy="-264.5" rx="64.19" ry="18"/>
<text text-anchor="middle" x="425.74" y="-260.8" font-family="Times New Roman,serif" font-size="14.00">+20 Chemistry</text>
</g>
<!-- j136012393&#45;&gt;j2846474185 -->
<g id="edge21" class="edge">
<title>j136012393&#45;&gt;j2846474185</title>
<path fill="none" stroke="black" d="M425.74,-327.75C425.74,-318.02 425.74,-305.62 425.74,-294.45"/>
<polygon fill="black" stroke="black" points="429.24,-294.5 425.74,-284.5 422.24,-294.5 429.24,-294.5"/>
</g>
<!-- j3425507672 -->
<g id="node22" class="node">
<title>j3425507672</title>
<polygon fill="none" stroke="blue" points="809.74,-291 549.74,-291 549.74,-238 809.74,-238 809.74,-291"/>
<text text-anchor="middle" x="679.74" y="-275.8" font-family="Times New Roman,serif" font-size="14.00">Bueno &#13;</text>
<text text-anchor="middle" x="679.74" y="-260.8" font-family="Times New Roman,serif" font-size="14.00">Wyjdzie ci to na lepsze &#13;</text>
<text text-anchor="middle" x="679.74" y="-245.8" font-family="Times New Roman,serif" font-size="14.00">Możesz dać mi znać, gdybyś zmienił zdanie</text>
</g>
<!-- j1788485261&#45;&gt;j3425507672 -->
<g id="edge22" class="edge">
<title>j1788485261&#45;&gt;j3425507672</title>
<path fill="none" stroke="black" d="M687.57,-327.75C686.64,-320.38 685.52,-311.48 684.42,-302.74"/>
<polygon fill="black" stroke="black" points="687.92,-302.47 683.2,-292.98 680.97,-303.34 687.92,-302.47"/>
</g>
<!-- j818165456 -->
<g id="node23" class="node">
<title>j818165456</title>
<polygon fill="none" stroke="red" points="468.74,-645 376.74,-645 376.74,-609 468.74,-609 468.74,-645"/>
<text text-anchor="middle" x="422.74" y="-623.3" font-family="Times New Roman,serif" font-size="14.00">Przepraszam.</text>
</g>
<!-- j4188288277&#45;&gt;j818165456 -->
<g id="edge23" class="edge">
<title>j4188288277&#45;&gt;j818165456</title>
<path fill="none" stroke="black" d="M489.35,-718.77C474.56,-698.61 455.94,-673.24 442.15,-654.44"/>
<polygon fill="black" stroke="black" points="445.06,-652.49 436.32,-646.5 439.41,-656.63 445.06,-652.49"/>
</g>
<!-- j1158145800 -->
<g id="node24" class="node">
<title>j1158145800</title>
<polygon fill="none" stroke="red" points="604.74,-645 486.74,-645 486.74,-609 604.74,-609 604.74,-645"/>
<text text-anchor="middle" x="545.74" y="-623.3" font-family="Times New Roman,serif" font-size="14.00">No więc... Macie?</text>
</g>
<!-- j4188288277&#45;&gt;j1158145800 -->
<g id="edge24" class="edge">
<title>j4188288277&#45;&gt;j1158145800</title>
<path fill="none" stroke="black" d="M522.32,-718.77C527.35,-699.26 533.65,-674.86 538.44,-656.27"/>
<polygon fill="black" stroke="black" points="541.79,-657.3 540.9,-646.75 535.01,-655.55 541.79,-657.3"/>
</g>
<!-- j2487069545&#45;&gt;Chat ends. -->
<g id="edge25" class="edge">
<title>j2487069545&#45;&gt;Chat ends.</title>
<path fill="none" stroke="black" d="M167.6,-662.57C153.47,-645.4 135.74,-618.4 135.74,-591 135.74,-591 135.74,-591 135.74,-91 135.74,-44.19 279.84,-27.6 364.88,-21.88"/>
<polygon fill="black" stroke="black" points="364.95,-25.38 374.71,-21.26 364.5,-18.4 364.95,-25.38"/>
</g>
<!-- j4107171436 -->
<g id="node25" class="node">
<title>j4107171436</title>
<polygon fill="none" stroke="blue" points="515.74,-201 335.74,-201 335.74,-148 515.74,-148 515.74,-201"/>
<text text-anchor="middle" x="425.74" y="-185.8" font-family="Times New Roman,serif" font-size="14.00">Mmm, tak mówisz?&#13;</text>
<text text-anchor="middle" x="425.74" y="-170.8" font-family="Times New Roman,serif" font-size="14.00">Myślisz, że sobie poradzisz? &#13;</text>
<text text-anchor="middle" x="425.74" y="-155.8" font-family="Times New Roman,serif" font-size="14.00">Zobaczymy</text>
</g>
<!-- j2846474185&#45;&gt;j4107171436 -->
<g id="edge26" class="edge">
<title>j2846474185&#45;&gt;j4107171436</title>
<path fill="none" stroke="black" d="M425.74,-246.11C425.74,-236.5 425.74,-224.16 425.74,-212.5"/>
<polygon fill="black" stroke="black" points="429.24,-212.7 425.74,-202.7 422.24,-212.7 429.24,-212.7"/>
</g>
<!-- j1773392891 -->
<g id="node26" class="node">
<title>j1773392891</title>
<ellipse fill="none" stroke="orange" cx="679.74" cy="-174.5" rx="134.58" ry="18"/>
<text text-anchor="middle" x="679.74" y="-170.8" font-family="Times New Roman,serif" font-size="14.00">Boolean LettieNoPain is now true.</text>
</g>
<!-- j3425507672&#45;&gt;j1773392891 -->
<g id="edge27" class="edge">
<title>j3425507672&#45;&gt;j1773392891</title>
<path fill="none" stroke="black" d="M679.74,-237.57C679.74,-227.11 679.74,-215 679.74,-204.27"/>
<polygon fill="black" stroke="black" points="683.24,-204.41 679.74,-194.41 676.24,-204.41 683.24,-204.41"/>
</g>
<!-- j377299641 -->
<g id="node27" class="node">
<title>j377299641</title>
<polygon fill="none" stroke="blue" points="687.74,-572 163.74,-572 163.74,-474 687.74,-474 687.74,-572"/>
<text text-anchor="middle" x="425.74" y="-556.8" font-family="Times New Roman,serif" font-size="14.00">Wiesz co&#13;</text>
<text text-anchor="middle" x="425.74" y="-541.8" font-family="Times New Roman,serif" font-size="14.00">Może i dobry z ciebie babas&#13;</text>
<text text-anchor="middle" x="425.74" y="-526.8" font-family="Times New Roman,serif" font-size="14.00">Ale może będziesz miał okazję się przekonać, hmm?&#13;</text>
<text text-anchor="middle" x="425.74" y="-511.8" font-family="Times New Roman,serif" font-size="14.00">Ale ostrzegam cię&#13;</text>
<text text-anchor="middle" x="425.74" y="-496.8" font-family="Times New Roman,serif" font-size="14.00">Jeśli szukasz kogoś uroczego i miłego, pogadaj z Aoi albo Amirem&#13;</text>
<text text-anchor="middle" x="425.74" y="-481.8" font-family="Times New Roman,serif" font-size="14.00">Za dobrze znam się z bólem i za bardzo się z nim polubiłam, żeby wchodzić w takie układy</text>
</g>
<!-- j818165456&#45;&gt;j377299641 -->
<g id="edge28" class="edge">
<title>j818165456&#45;&gt;j377299641</title>
<path fill="none" stroke="black" d="M423.25,-608.7C423.46,-601.5 423.72,-592.69 423.99,-583.5"/>
<polygon fill="black" stroke="black" points="427.48,-583.8 424.28,-573.7 420.49,-583.59 427.48,-583.8"/>
</g>
<!-- j1158145800&#45;&gt;j377299641 -->
<g id="edge29" class="edge">
<title>j1158145800&#45;&gt;j377299641</title>
<path fill="none" stroke="black" d="M525.38,-608.7C515.77,-600.52 503.69,-590.26 491.3,-579.72"/>
<polygon fill="black" stroke="black" points="493.73,-577.2 483.84,-573.39 489.2,-582.53 493.73,-577.2"/>
</g>
<!-- j2319329367 -->
<g id="node28" class="node">
<title>j2319329367</title>
<polygon fill="none" stroke="blue" points="617.24,-111 234.24,-111 234.24,-73 617.24,-73 617.24,-111"/>
<text text-anchor="middle" x="425.74" y="-95.8" font-family="Times New Roman,serif" font-size="14.00">Teraz vete &#13;</text>
<text text-anchor="middle" x="425.74" y="-80.8" font-family="Times New Roman,serif" font-size="14.00">Nie mogę zaprzątać się sobie głowy fantazjami, kiedy praca czeka</text>
</g>
<!-- j4107171436&#45;&gt;j2319329367 -->
<g id="edge30" class="edge">
<title>j4107171436&#45;&gt;j2319329367</title>
<path fill="none" stroke="black" d="M425.74,-147.59C425.74,-139.68 425.74,-130.93 425.74,-122.79"/>
<polygon fill="black" stroke="black" points="429.24,-122.98 425.74,-112.98 422.24,-122.98 429.24,-122.98"/>
</g>
<!-- j51302616 -->
<g id="node29" class="node">
<title>j51302616</title>
<polygon fill="none" stroke="blue" points="719.24,-111 636.24,-111 636.24,-73 719.24,-73 719.24,-111"/>
<text text-anchor="middle" x="677.74" y="-95.8" font-family="Times New Roman,serif" font-size="14.00">Teraz vete &#13;</text>
<text text-anchor="middle" x="677.74" y="-80.8" font-family="Times New Roman,serif" font-size="14.00">Praca czeka</text>
</g>
<!-- j1773392891&#45;&gt;j51302616 -->
<g id="edge31" class="edge">
<title>j1773392891&#45;&gt;j51302616</title>
<path fill="none" stroke="black" d="M679.31,-156.03C679.06,-146.32 678.76,-133.97 678.48,-122.78"/>
<polygon fill="black" stroke="black" points="681.98,-122.69 678.23,-112.78 674.98,-122.87 681.98,-122.69"/>
</g>
<!-- j377299641&#45;&gt;j4126308091 -->
<g id="edge32" class="edge">
<title>j377299641&#45;&gt;j4126308091</title>
<path fill="none" stroke="black" d="M425.74,-473.69C425.74,-465.17 425.74,-456.56 425.74,-448.79"/>
<polygon fill="black" stroke="black" points="429.24,-448.95 425.74,-438.95 422.24,-448.95 429.24,-448.95"/>
</g>
<!-- j377299641&#45;&gt;j3000129040 -->
<g id="edge33" class="edge">
<title>j377299641&#45;&gt;j3000129040</title>
<path fill="none" stroke="black" d="M551.64,-473.54C580.84,-462.3 610.47,-450.9 634.83,-441.52"/>
<polygon fill="black" stroke="black" points="635.8,-444.9 643.87,-438.04 633.28,-438.37 635.8,-444.9"/>
</g>
<!-- j2319329367&#45;&gt;Chat ends. -->
<g id="edge34" class="edge">
<title>j2319329367&#45;&gt;Chat ends.</title>
<path fill="none" stroke="black" d="M425.74,-72.83C425.74,-65.24 425.74,-56.24 425.74,-47.79"/>
<polygon fill="black" stroke="black" points="429.24,-47.93 425.74,-37.93 422.24,-47.93 429.24,-47.93"/>
</g>
<!-- j51302616&#45;&gt;Chat ends. -->
<g id="edge35" class="edge">
<title>j51302616&#45;&gt;Chat ends.</title>
<path fill="none" stroke="black" d="M635.8,-75.91C632.74,-74.9 629.7,-73.92 626.74,-73 576.43,-57.39 518.23,-42.04 477.45,-31.73"/>
<polygon fill="black" stroke="black" points="478.45,-28.37 467.89,-29.32 476.74,-35.16 478.45,-28.37"/>
</g>
</g>
</svg>
