<?xml version="1.0" encoding="UTF-8" standalone="no"?>
<!DOCTYPE svg PUBLIC "-//W3C//DTD SVG 1.1//EN"
 "http://www.w3.org/Graphics/SVG/1.1/DTD/svg11.dtd">
<!-- Generated by graphviz version 7.1.0 (20230121.1956)
 -->
<!-- Pages: 1 -->
<svg width="1199pt" height="1484pt"
 viewBox="0.00 0.00 1198.50 1484.00" xmlns="http://www.w3.org/2000/svg" xmlns:xlink="http://www.w3.org/1999/xlink">
<g id="graph0" class="graph" transform="scale(1 1) rotate(0) translate(4 1480)">
<polygon fill="white" stroke="none" points="-4,4 -4,-1480 1194.5,-1480 1194.5,4 -4,4"/>
<!-- QuincyAmirTrick2 begins. -->
<g id="node1" class="node">
<title>QuincyAmirTrick2 begins.</title>
<ellipse fill="none" stroke="orange" cx="756" cy="-1458" rx="107.48" ry="18"/>
<text text-anchor="middle" x="756" y="-1454.3" font-family="Times New Roman,serif" font-size="14.00">QuincyAmirTrick2 begins.</text>
</g>
<!-- j2314042326 -->
<g id="node2" class="node">
<title>j2314042326</title>
<polygon fill="none" stroke="blue" points="1018,-1404 494,-1404 494,-1368 1018,-1368 1018,-1404"/>
<text text-anchor="middle" x="756" y="-1382.3" font-family="Times New Roman,serif" font-size="14.00">u know every time i think i have the lil speedster figured out he goes n surprises me lmaooo</text>
</g>
<!-- QuincyAmirTrick2 begins.&#45;&gt;j2314042326 -->
<g id="edge1" class="edge">
<title>QuincyAmirTrick2 begins.&#45;&gt;j2314042326</title>
<path fill="none" stroke="black" d="M756,-1439.7C756,-1432.41 756,-1423.73 756,-1415.54"/>
<polygon fill="black" stroke="black" points="759.5,-1415.62 756,-1405.62 752.5,-1415.62 759.5,-1415.62"/>
</g>
<!-- j56457297 -->
<g id="node3" class="node">
<title>j56457297</title>
<polygon fill="none" stroke="red" points="647.5,-1260 580.5,-1260 580.5,-1224 647.5,-1224 647.5,-1260"/>
<text text-anchor="middle" x="614" y="-1238.3" font-family="Times New Roman,serif" font-size="14.00">How so?</text>
</g>
<!-- j2314042326&#45;&gt;j56457297 -->
<g id="edge2" class="edge">
<title>j2314042326&#45;&gt;j56457297</title>
<path fill="none" stroke="black" d="M685.98,-1367.51C666.68,-1359.57 647.39,-1348.19 634,-1332 620.11,-1315.2 615.37,-1290.74 613.96,-1271.71"/>
<polygon fill="black" stroke="black" points="617.47,-1271.75 613.53,-1261.91 610.48,-1272.06 617.47,-1271.75"/>
</g>
<!-- j894513920 -->
<g id="node4" class="node">
<title>j894513920</title>
<polygon fill="none" stroke="red" points="869.5,-1332 642.5,-1332 642.5,-1296 869.5,-1296 869.5,-1332"/>
<text text-anchor="middle" x="756" y="-1310.3" font-family="Times New Roman,serif" font-size="14.00">Is he mad about the packing peanuts?</text>
</g>
<!-- j2314042326&#45;&gt;j894513920 -->
<g id="edge3" class="edge">
<title>j2314042326&#45;&gt;j894513920</title>
<path fill="none" stroke="black" d="M756,-1367.7C756,-1360.41 756,-1351.73 756,-1343.54"/>
<polygon fill="black" stroke="black" points="759.5,-1343.62 756,-1333.62 752.5,-1343.62 759.5,-1343.62"/>
</g>
<!-- j3426972941 -->
<g id="node5" class="node">
<title>j3426972941</title>
<polygon fill="none" stroke="red" points="1190.5,-1188 1125.5,-1188 1125.5,-1152 1190.5,-1152 1190.5,-1188"/>
<text text-anchor="middle" x="1158" y="-1166.3" font-family="Times New Roman,serif" font-size="14.00">[Ignore.]</text>
</g>
<!-- j2314042326&#45;&gt;j3426972941 -->
<g id="edge4" class="edge">
<title>j2314042326&#45;&gt;j3426972941</title>
<path fill="none" stroke="black" d="M799.83,-1367.57C823.57,-1357.77 853.23,-1344.93 879,-1332 967.98,-1287.34 1068.13,-1226.94 1120.88,-1194.28"/>
<polygon fill="black" stroke="black" points="1122.54,-1197.37 1129.19,-1189.12 1118.85,-1191.43 1122.54,-1197.37"/>
</g>
<!-- j1700435041 -->
<g id="node6" class="node">
<title>j1700435041</title>
<polygon fill="none" stroke="blue" points="1107,-1188 121,-1188 121,-1152 1107,-1152 1107,-1188"/>
<text text-anchor="middle" x="614" y="-1166.3" font-family="Times New Roman,serif" font-size="14.00">sooo okay i blocked off the room w/ cardboard n cut a hole in it, used a shopvac on reverse to pump the room full of packing peanuts, yeah? gotta get that shit floor 2 ceiling</text>
</g>
<!-- j56457297&#45;&gt;j1700435041 -->
<g id="edge5" class="edge">
<title>j56457297&#45;&gt;j1700435041</title>
<path fill="none" stroke="black" d="M614,-1223.7C614,-1216.41 614,-1207.73 614,-1199.54"/>
<polygon fill="black" stroke="black" points="617.5,-1199.62 614,-1189.62 610.5,-1199.62 617.5,-1199.62"/>
</g>
<!-- j218769279 -->
<g id="node7" class="node">
<title>j218769279</title>
<polygon fill="none" stroke="blue" points="801.5,-1260 680.5,-1260 680.5,-1224 801.5,-1224 801.5,-1260"/>
<text text-anchor="middle" x="741" y="-1238.3" font-family="Times New Roman,serif" font-size="14.00">ANYTHING BUT</text>
</g>
<!-- j894513920&#45;&gt;j218769279 -->
<g id="edge6" class="edge">
<title>j894513920&#45;&gt;j218769279</title>
<path fill="none" stroke="black" d="M752.29,-1295.7C750.71,-1288.32 748.83,-1279.52 747.05,-1271.25"/>
<polygon fill="black" stroke="black" points="750.5,-1270.63 744.98,-1261.58 743.66,-1272.1 750.5,-1270.63"/>
</g>
<!-- Chat ends. -->
<g id="node8" class="node">
<title>Chat ends.</title>
<ellipse fill="none" stroke="orange" cx="1047" cy="-18" rx="50.09" ry="18"/>
<text text-anchor="middle" x="1047" y="-14.3" font-family="Times New Roman,serif" font-size="14.00">Chat ends.</text>
</g>
<!-- j3426972941&#45;&gt;Chat ends. -->
<g id="edge7" class="edge">
<title>j3426972941&#45;&gt;Chat ends.</title>
<path fill="none" stroke="black" d="M1158,-1151.51C1158,-1124.71 1158,-1071.87 1158,-1027 1158,-1027 1158,-1027 1158,-161 1158,-109.74 1112.54,-65.93 1079.81,-41.03"/>
<polygon fill="black" stroke="black" points="1081.89,-38.22 1071.76,-35.12 1077.75,-43.86 1081.89,-38.22"/>
</g>
<!-- j915434360 -->
<g id="node9" class="node">
<title>j915434360</title>
<polygon fill="none" stroke="red" points="556.5,-1116 457.5,-1116 457.5,-1080 556.5,-1080 556.5,-1116"/>
<text text-anchor="middle" x="507" y="-1094.3" font-family="Times New Roman,serif" font-size="14.00">I&#39;m impressed.</text>
</g>
<!-- j1700435041&#45;&gt;j915434360 -->
<g id="edge8" class="edge">
<title>j1700435041&#45;&gt;j915434360</title>
<path fill="none" stroke="black" d="M587.28,-1151.52C573.77,-1142.68 557.19,-1131.84 542.62,-1122.3"/>
<polygon fill="black" stroke="black" points="544.94,-1119.63 534.65,-1117.09 541.1,-1125.49 544.94,-1119.63"/>
</g>
<!-- j1995874666 -->
<g id="node10" class="node">
<title>j1995874666</title>
<polygon fill="none" stroke="red" points="769,-1116 575,-1116 575,-1080 769,-1080 769,-1116"/>
<text text-anchor="middle" x="672" y="-1094.3" font-family="Times New Roman,serif" font-size="14.00">You&#39;ve clearly done this before.</text>
</g>
<!-- j1700435041&#45;&gt;j1995874666 -->
<g id="edge9" class="edge">
<title>j1700435041&#45;&gt;j1995874666</title>
<path fill="none" stroke="black" d="M628.34,-1151.7C635.08,-1143.56 643.26,-1133.69 650.7,-1124.7"/>
<polygon fill="black" stroke="black" points="653.18,-1127.2 656.86,-1117.27 647.79,-1122.74 653.18,-1127.2"/>
</g>
<!-- j218769279&#45;&gt;j1700435041 -->
<g id="edge10" class="edge">
<title>j218769279&#45;&gt;j1700435041</title>
<path fill="none" stroke="black" d="M709.28,-1223.52C692.94,-1214.51 672.83,-1203.42 655.29,-1193.76"/>
<polygon fill="black" stroke="black" points="657.09,-1190.75 646.64,-1188.99 653.71,-1196.88 657.09,-1190.75"/>
</g>
<!-- j1911120429 -->
<g id="node11" class="node">
<title>j1911120429</title>
<polygon fill="none" stroke="blue" points="801.5,-1044 328.5,-1044 328.5,-1008 801.5,-1008 801.5,-1044"/>
<text text-anchor="middle" x="565" y="-1022.3" font-family="Times New Roman,serif" font-size="14.00">life on an army base can get surprisingly boring sometimes, dunno what 2 tell u lol</text>
</g>
<!-- j915434360&#45;&gt;j1911120429 -->
<g id="edge11" class="edge">
<title>j915434360&#45;&gt;j1911120429</title>
<path fill="none" stroke="black" d="M521.34,-1079.7C528.08,-1071.56 536.26,-1061.69 543.7,-1052.7"/>
<polygon fill="black" stroke="black" points="546.18,-1055.2 549.86,-1045.27 540.79,-1050.74 546.18,-1055.2"/>
</g>
<!-- j1995874666&#45;&gt;j1911120429 -->
<g id="edge12" class="edge">
<title>j1995874666&#45;&gt;j1911120429</title>
<path fill="none" stroke="black" d="M645.28,-1079.52C631.77,-1070.68 615.19,-1059.84 600.62,-1050.3"/>
<polygon fill="black" stroke="black" points="602.94,-1047.63 592.65,-1045.09 599.1,-1053.49 602.94,-1047.63"/>
</g>
<!-- j1021338986 -->
<g id="node12" class="node">
<title>j1021338986</title>
<polygon fill="none" stroke="blue" points="913.5,-972 216.5,-972 216.5,-936 913.5,-936 913.5,-972"/>
<text text-anchor="middle" x="565" y="-950.3" font-family="Times New Roman,serif" font-size="14.00">so then it was &#39;shut the door n pull the cardboard out from under the door so when he opens it, all the shit pours out&#39; ezpz</text>
</g>
<!-- j1911120429&#45;&gt;j1021338986 -->
<g id="edge13" class="edge">
<title>j1911120429&#45;&gt;j1021338986</title>
<path fill="none" stroke="black" d="M565,-1007.7C565,-1000.41 565,-991.73 565,-983.54"/>
<polygon fill="black" stroke="black" points="568.5,-983.62 565,-973.62 561.5,-983.62 568.5,-983.62"/>
</g>
<!-- j3819807381 -->
<g id="node13" class="node">
<title>j3819807381</title>
<polygon fill="none" stroke="blue" points="870.5,-900 259.5,-900 259.5,-864 870.5,-864 870.5,-900"/>
<text text-anchor="middle" x="565" y="-878.3" font-family="Times New Roman,serif" font-size="14.00">he comes over, all going as planned, goes &#39;huh my door&#39;s shut, that&#39;s weird.&#39; opens the door. FRWOOMF</text>
</g>
<!-- j1021338986&#45;&gt;j3819807381 -->
<g id="edge14" class="edge">
<title>j1021338986&#45;&gt;j3819807381</title>
<path fill="none" stroke="black" d="M565,-935.7C565,-928.41 565,-919.73 565,-911.54"/>
<polygon fill="black" stroke="black" points="568.5,-911.62 565,-901.62 561.5,-911.62 568.5,-911.62"/>
</g>
<!-- j1351113412 -->
<g id="node14" class="node">
<title>j1351113412</title>
<polygon fill="none" stroke="blue" points="859,-828 271,-828 271,-792 859,-792 859,-828"/>
<text text-anchor="middle" x="565" y="-806.3" font-family="Times New Roman,serif" font-size="14.00">HE SCREAMS like a lil girl seeing a mouse, just goes up on one leg like anything, it was sooooo good</text>
</g>
<!-- j3819807381&#45;&gt;j1351113412 -->
<g id="edge15" class="edge">
<title>j3819807381&#45;&gt;j1351113412</title>
<path fill="none" stroke="black" d="M565,-863.7C565,-856.41 565,-847.73 565,-839.54"/>
<polygon fill="black" stroke="black" points="568.5,-839.62 565,-829.62 561.5,-839.62 568.5,-839.62"/>
</g>
<!-- j582905625 -->
<g id="node15" class="node">
<title>j582905625</title>
<polygon fill="none" stroke="blue" points="876.5,-756 253.5,-756 253.5,-720 876.5,-720 876.5,-756"/>
<text text-anchor="middle" x="565" y="-734.3" font-family="Times New Roman,serif" font-size="14.00">n then he hears me laughin&#39;, and i figure that&#39;s when he&#39;s gonna get pissed. but then he starts LAAAUGHING</text>
</g>
<!-- j1351113412&#45;&gt;j582905625 -->
<g id="edge16" class="edge">
<title>j1351113412&#45;&gt;j582905625</title>
<path fill="none" stroke="black" d="M565,-791.7C565,-784.41 565,-775.73 565,-767.54"/>
<polygon fill="black" stroke="black" points="568.5,-767.62 565,-757.62 561.5,-767.62 568.5,-767.62"/>
</g>
<!-- j3370457352 -->
<g id="node16" class="node">
<title>j3370457352</title>
<polygon fill="none" stroke="blue" points="1095,-684 35,-684 35,-648 1095,-648 1095,-684"/>
<text text-anchor="middle" x="565" y="-662.3" font-family="Times New Roman,serif" font-size="14.00">n he asks me how i did it! so i walk him through it. n the lil speedster&#39;s like... super impressed? asks 4 the cardboard i used. winds up taping off the lower half of his door, like a pen, yeah?</text>
</g>
<!-- j582905625&#45;&gt;j3370457352 -->
<g id="edge17" class="edge">
<title>j582905625&#45;&gt;j3370457352</title>
<path fill="none" stroke="black" d="M565,-719.7C565,-712.41 565,-703.73 565,-695.54"/>
<polygon fill="black" stroke="black" points="568.5,-695.62 565,-685.62 561.5,-695.62 568.5,-695.62"/>
</g>
<!-- j3399969744 -->
<g id="node17" class="node">
<title>j3399969744</title>
<polygon fill="none" stroke="blue" points="1130,-612 0,-612 0,-576 1130,-576 1130,-612"/>
<text text-anchor="middle" x="565" y="-590.3" font-family="Times New Roman,serif" font-size="14.00">lil freakin&#39; weirdo has turned his room in2 a packing peanut ball pit, like u&#39;d find at the burger house. i found him in there just playin&#39; in it with aoi, 2 of them just chuckin&#39; it at each other like it was snow</text>
</g>
<!-- j3370457352&#45;&gt;j3399969744 -->
<g id="edge18" class="edge">
<title>j3370457352&#45;&gt;j3399969744</title>
<path fill="none" stroke="black" d="M565,-647.7C565,-640.41 565,-631.73 565,-623.54"/>
<polygon fill="black" stroke="black" points="568.5,-623.62 565,-613.62 561.5,-623.62 568.5,-623.62"/>
</g>
<!-- j3629162229 -->
<g id="node18" class="node">
<title>j3629162229</title>
<polygon fill="none" stroke="blue" points="687,-540 481,-540 481,-504 687,-504 687,-540"/>
<text text-anchor="middle" x="584" y="-518.3" font-family="Times New Roman,serif" font-size="14.00">they asked me if i wanted 2 join in</text>
</g>
<!-- j3399969744&#45;&gt;j3629162229 -->
<g id="edge19" class="edge">
<title>j3399969744&#45;&gt;j3629162229</title>
<path fill="none" stroke="black" d="M569.7,-575.7C571.72,-568.24 574.14,-559.32 576.41,-550.97"/>
<polygon fill="black" stroke="black" points="579.72,-552.13 578.96,-541.57 572.96,-550.3 579.72,-552.13"/>
</g>
<!-- j3940645923 -->
<g id="node19" class="node">
<title>j3940645923</title>
<polygon fill="none" stroke="red" points="630.5,-468 537.5,-468 537.5,-432 630.5,-432 630.5,-468"/>
<text text-anchor="middle" x="584" y="-446.3" font-family="Times New Roman,serif" font-size="14.00">And did you?</text>
</g>
<!-- j3629162229&#45;&gt;j3940645923 -->
<g id="edge20" class="edge">
<title>j3629162229&#45;&gt;j3940645923</title>
<path fill="none" stroke="black" d="M584,-503.7C584,-496.41 584,-487.73 584,-479.54"/>
<polygon fill="black" stroke="black" points="587.5,-479.62 584,-469.62 580.5,-479.62 587.5,-479.62"/>
</g>
<!-- j3262011243 -->
<g id="node20" class="node">
<title>j3262011243</title>
<polygon fill="none" stroke="red" points="703,-468 649,-468 649,-432 703,-432 703,-468"/>
<text text-anchor="middle" x="676" y="-446.3" font-family="Times New Roman,serif" font-size="14.00">Well?</text>
</g>
<!-- j3629162229&#45;&gt;j3262011243 -->
<g id="edge21" class="edge">
<title>j3629162229&#45;&gt;j3262011243</title>
<path fill="none" stroke="black" d="M606.74,-503.7C618.02,-495.11 631.83,-484.61 644.14,-475.24"/>
<polygon fill="black" stroke="black" points="646.16,-478.1 652,-469.26 641.92,-472.53 646.16,-478.1"/>
</g>
<!-- j1019433267 -->
<g id="node21" class="node">
<title>j1019433267</title>
<polygon fill="none" stroke="blue" points="989,-396 363,-396 363,-360 989,-360 989,-396"/>
<text text-anchor="middle" x="676" y="-374.3" font-family="Times New Roman,serif" font-size="14.00">PSH. me? Quincy&#45;K?! Me?! the king himself? this smooth criminal? could u see me in there with them yutes?!</text>
</g>
<!-- j3940645923&#45;&gt;j1019433267 -->
<g id="edge22" class="edge">
<title>j3940645923&#45;&gt;j1019433267</title>
<path fill="none" stroke="black" d="M606.74,-431.7C618.02,-423.11 631.83,-412.61 644.14,-403.24"/>
<polygon fill="black" stroke="black" points="646.16,-406.1 652,-397.26 641.92,-400.53 646.16,-406.1"/>
</g>
<!-- j3262011243&#45;&gt;j1019433267 -->
<g id="edge23" class="edge">
<title>j3262011243&#45;&gt;j1019433267</title>
<path fill="none" stroke="black" d="M676,-431.7C676,-424.41 676,-415.73 676,-407.54"/>
<polygon fill="black" stroke="black" points="679.5,-407.62 676,-397.62 672.5,-407.62 679.5,-407.62"/>
</g>
<!-- j3398046809 -->
<g id="node22" class="node">
<title>j3398046809</title>
<polygon fill="none" stroke="blue" points="860.5,-324 643.5,-324 643.5,-288 860.5,-288 860.5,-324"/>
<text text-anchor="middle" x="752" y="-302.3" font-family="Times New Roman,serif" font-size="14.00">of COURSE i fkin&#39; jumped in there!</text>
</g>
<!-- j1019433267&#45;&gt;j3398046809 -->
<g id="edge24" class="edge">
<title>j1019433267&#45;&gt;j3398046809</title>
<path fill="none" stroke="black" d="M694.79,-359.7C703.83,-351.37 714.84,-341.22 724.78,-332.07"/>
<polygon fill="black" stroke="black" points="727.07,-334.72 732.05,-325.37 722.33,-329.57 727.07,-334.72"/>
</g>
<!-- j2204592471 -->
<g id="node23" class="node">
<title>j2204592471</title>
<polygon fill="none" stroke="blue" points="1111,-252 469,-252 469,-216 1111,-216 1111,-252"/>
<text text-anchor="middle" x="790" y="-230.3" font-family="Times New Roman,serif" font-size="14.00">wouldn&#39;t have done that b4 u showed up. none of it. so... yeah. thanks for helping me get the stick outta my arse</text>
</g>
<!-- j3398046809&#45;&gt;j2204592471 -->
<g id="edge25" class="edge">
<title>j3398046809&#45;&gt;j2204592471</title>
<path fill="none" stroke="black" d="M761.39,-287.7C765.58,-279.98 770.61,-270.71 775.28,-262.11"/>
<polygon fill="black" stroke="black" points="778.3,-263.89 779.99,-253.43 772.15,-260.55 778.3,-263.89"/>
</g>
<!-- j2772124284 -->
<g id="node24" class="node">
<title>j2772124284</title>
<ellipse fill="none" stroke="orange" cx="873" cy="-162" rx="64.19" ry="18"/>
<text text-anchor="middle" x="873" y="-158.3" font-family="Times New Roman,serif" font-size="14.00">+20 Chemistry</text>
</g>
<!-- j2204592471&#45;&gt;j2772124284 -->
<g id="edge26" class="edge">
<title>j2204592471&#45;&gt;j2772124284</title>
<path fill="none" stroke="black" d="M810.52,-215.7C820.9,-206.94 833.65,-196.19 844.92,-186.68"/>
<polygon fill="black" stroke="black" points="847.03,-189.48 852.42,-180.36 842.52,-184.13 847.03,-189.48"/>
</g>
<!-- j1609032389 -->
<g id="node25" class="node">
<title>j1609032389</title>
<polygon fill="none" stroke="blue" points="1066.5,-108 933.5,-108 933.5,-72 1066.5,-72 1066.5,-108"/>
<text text-anchor="middle" x="1000" y="-86.3" font-family="Times New Roman,serif" font-size="14.00">next prank? arthur. ;)</text>
</g>
<!-- j2772124284&#45;&gt;j1609032389 -->
<g id="edge27" class="edge">
<title>j2772124284&#45;&gt;j1609032389</title>
<path fill="none" stroke="black" d="M901.19,-145.46C917.96,-136.22 939.55,-124.32 958.27,-114"/>
<polygon fill="black" stroke="black" points="959.93,-117.08 967,-109.19 956.55,-110.95 959.93,-117.08"/>
</g>
<!-- j1609032389&#45;&gt;Chat ends. -->
<g id="edge28" class="edge">
<title>j1609032389&#45;&gt;Chat ends.</title>
<path fill="none" stroke="black" d="M1011.62,-71.7C1016.99,-63.7 1023.49,-54.02 1029.44,-45.15"/>
<polygon fill="black" stroke="black" points="1032.33,-47.13 1035,-36.88 1026.52,-43.23 1032.33,-47.13"/>
</g>
</g>
</svg>
