<?xml version="1.0" encoding="UTF-8" standalone="no"?>
<!DOCTYPE svg PUBLIC "-//W3C//DTD SVG 1.1//EN"
 "http://www.w3.org/Graphics/SVG/1.1/DTD/svg11.dtd">
<!-- Generated by graphviz version 7.1.0 (20230121.1956)
 -->
<!-- Pages: 1 -->
<svg width="1473pt" height="1964pt"
 viewBox="0.00 0.00 1473.00 1964.00" xmlns="http://www.w3.org/2000/svg" xmlns:xlink="http://www.w3.org/1999/xlink">
<g id="graph0" class="graph" transform="scale(1 1) rotate(0) translate(4 1960)">
<polygon fill="white" stroke="none" points="-4,4 -4,-1960 1469,-1960 1469,4 -4,4"/>
<!-- LettieRank2Convo6 begins. -->
<g id="node1" class="node">
<title>LettieRank2Convo6 begins.</title>
<ellipse fill="none" stroke="orange" cx="1243" cy="-1938" rx="111.58" ry="18"/>
<text text-anchor="middle" x="1243" y="-1934.3" font-family="Times New Roman,serif" font-size="14.00">LettieRank2Convo6 begins.</text>
</g>
<!-- j2950318430 -->
<g id="node2" class="node">
<title>j2950318430</title>
<ellipse fill="none" stroke="orange" cx="1243" cy="-1865" rx="104.78" ry="18"/>
<text text-anchor="middle" x="1243" y="-1861.3" font-family="Times New Roman,serif" font-size="14.00">Check boolean AmirRPG</text>
</g>
<!-- LettieRank2Convo6 begins.&#45;&gt;j2950318430 -->
<g id="edge1" class="edge">
<title>LettieRank2Convo6 begins.&#45;&gt;j2950318430</title>
<path fill="none" stroke="black" d="M1243,-1919.81C1243,-1912.23 1243,-1903.1 1243,-1894.54"/>
<polygon fill="black" stroke="black" points="1246.5,-1894.54 1243,-1884.54 1239.5,-1894.54 1246.5,-1894.54"/>
</g>
<!-- j2345977919 -->
<g id="node3" class="node">
<title>j2345977919</title>
<polygon fill="none" stroke="red" points="1046.5,-1796 809.5,-1796 809.5,-1760 1046.5,-1760 1046.5,-1796"/>
<text text-anchor="middle" x="928" y="-1774.3" font-family="Times New Roman,serif" font-size="14.00">嘿莉蒂，我有個忙想請你幫忙。</text>
</g>
<!-- j2950318430&#45;&gt;j2345977919 -->
<g id="edge2" class="edge">
<title>j2950318430&#45;&gt;j2345977919</title>
<path fill="none" stroke="green" d="M1188.49,-1849.29C1137.37,-1835.5 1060.48,-1814.75 1003.48,-1799.37"/>
<polygon fill="green" stroke="green" points="1004.74,-1796.08 994.18,-1796.86 1002.92,-1802.84 1004.74,-1796.08"/>
<text text-anchor="middle" x="1115" y="-1817.8" font-family="Times New Roman,serif" font-size="14.00">true</text>
</g>
<!-- j896858462 -->
<g id="node4" class="node">
<title>j896858462</title>
<polygon fill="none" stroke="red" points="1409,-1796 1077,-1796 1077,-1760 1409,-1760 1409,-1796"/>
<text text-anchor="middle" x="1243" y="-1774.3" font-family="Times New Roman,serif" font-size="14.00">嘿莉蒂，你對桌上角色扮演遊戲有什麼看法？</text>
</g>
<!-- j2950318430&#45;&gt;j896858462 -->
<g id="edge3" class="edge">
<title>j2950318430&#45;&gt;j896858462</title>
<path fill="none" stroke="green" d="M1243,-1846.8C1243,-1835.58 1243,-1820.67 1243,-1807.69"/>
<polygon fill="green" stroke="green" points="1246.5,-1807.98 1243,-1797.98 1239.5,-1807.98 1246.5,-1807.98"/>
<text text-anchor="middle" x="1254" y="-1817.8" font-family="Times New Roman,serif" font-size="14.00">true</text>
</g>
<!-- Chat ends. -->
<g id="node5" class="node">
<title>Chat ends.</title>
<ellipse fill="none" stroke="orange" cx="887" cy="-18" rx="50.09" ry="18"/>
<text text-anchor="middle" x="887" y="-14.3" font-family="Times New Roman,serif" font-size="14.00">Chat ends.</text>
</g>
<!-- j2950318430&#45;&gt;Chat ends. -->
<g id="edge4" class="edge">
<title>j2950318430&#45;&gt;Chat ends.</title>
<path fill="none" stroke="brown" d="M1338.99,-1857.48C1388.65,-1848.3 1439,-1827.12 1439,-1779 1439,-1779 1439,-1779 1439,-90 1439,-40.96 1091.89,-25.05 948.18,-20.56"/>
<polygon fill="brown" stroke="brown" points="948.57,-17.07 938.47,-20.27 948.36,-24.07 948.57,-17.07"/>
<text text-anchor="middle" x="1452" y="-957.3" font-family="Times New Roman,serif" font-size="14.00">false</text>
</g>
<!-- j2794364090 -->
<g id="node6" class="node">
<title>j2794364090</title>
<ellipse fill="none" stroke="orange" cx="890" cy="-1705" rx="167.87" ry="18"/>
<text text-anchor="middle" x="890" y="-1701.3" font-family="Times New Roman,serif" font-size="14.00">Boolean AmirRPGLettieAsked is now true.</text>
</g>
<!-- j2345977919&#45;&gt;j2794364090 -->
<g id="edge5" class="edge">
<title>j2345977919&#45;&gt;j2794364090</title>
<path fill="none" stroke="black" d="M918.8,-1759.81C914.51,-1751.79 909.29,-1742.05 904.49,-1733.07"/>
<polygon fill="black" stroke="black" points="907.63,-1731.53 899.83,-1724.36 901.46,-1734.83 907.63,-1731.53"/>
</g>
<!-- j1366192512 -->
<g id="node7" class="node">
<title>j1366192512</title>
<ellipse fill="none" stroke="orange" cx="1243" cy="-1705" rx="167.87" ry="18"/>
<text text-anchor="middle" x="1243" y="-1701.3" font-family="Times New Roman,serif" font-size="14.00">Boolean AmirRPGLettieAsked is now true.</text>
</g>
<!-- j896858462&#45;&gt;j1366192512 -->
<g id="edge6" class="edge">
<title>j896858462&#45;&gt;j1366192512</title>
<path fill="none" stroke="black" d="M1243,-1759.81C1243,-1752.23 1243,-1743.1 1243,-1734.54"/>
<polygon fill="black" stroke="black" points="1246.5,-1734.54 1243,-1724.54 1239.5,-1734.54 1246.5,-1734.54"/>
</g>
<!-- j82736124 -->
<g id="node8" class="node">
<title>j82736124</title>
<ellipse fill="none" stroke="orange" cx="890" cy="-1632" rx="129.18" ry="18"/>
<text text-anchor="middle" x="890" y="-1628.3" font-family="Times New Roman,serif" font-size="14.00">Check boolean LettieSmallFavor</text>
</g>
<!-- j2794364090&#45;&gt;j82736124 -->
<g id="edge7" class="edge">
<title>j2794364090&#45;&gt;j82736124</title>
<path fill="none" stroke="black" d="M890,-1686.81C890,-1679.23 890,-1670.1 890,-1661.54"/>
<polygon fill="black" stroke="black" points="893.5,-1661.54 890,-1651.54 886.5,-1661.54 893.5,-1661.54"/>
</g>
<!-- j2340607848 -->
<g id="node9" class="node">
<title>j2340607848</title>
<polygon fill="none" stroke="blue" points="1393,-1650 1203,-1650 1203,-1614 1393,-1614 1393,-1650"/>
<text text-anchor="middle" x="1298" y="-1628.3" font-family="Times New Roman,serif" font-size="14.00">（西語）你在開玩笑吧？</text>
</g>
<!-- j1366192512&#45;&gt;j2340607848 -->
<g id="edge8" class="edge">
<title>j1366192512&#45;&gt;j2340607848</title>
<path fill="none" stroke="black" d="M1256.31,-1686.81C1262.8,-1678.44 1270.73,-1668.2 1277.93,-1658.9"/>
<polygon fill="black" stroke="black" points="1280.52,-1661.27 1283.88,-1651.23 1274.99,-1656.99 1280.52,-1661.27"/>
</g>
<!-- j561960899 -->
<g id="node10" class="node">
<title>j561960899</title>
<polygon fill="none" stroke="blue" points="833.5,-1563 612.5,-1563 612.5,-1510 833.5,-1510 833.5,-1563"/>
<text text-anchor="middle" x="723" y="-1547.8" font-family="Times New Roman,serif" font-size="14.00">你一直在幫我&#13;</text>
<text text-anchor="middle" x="723" y="-1532.8" font-family="Times New Roman,serif" font-size="14.00">所以我想我會聽聽你想說什麼&#13;</text>
<text text-anchor="middle" x="723" y="-1517.8" font-family="Times New Roman,serif" font-size="14.00">什麼事啊，呆呆？</text>
</g>
<!-- j82736124&#45;&gt;j561960899 -->
<g id="edge9" class="edge">
<title>j82736124&#45;&gt;j561960899</title>
<path fill="none" stroke="green" d="M859.76,-1614.07C837.32,-1601.51 806.08,-1584.02 779.13,-1568.92"/>
<polygon fill="green" stroke="green" points="781.17,-1566.06 770.73,-1564.22 777.75,-1572.16 781.17,-1566.06"/>
<text text-anchor="middle" x="837" y="-1584.8" font-family="Times New Roman,serif" font-size="14.00">true</text>
</g>
<!-- j518827490 -->
<g id="node11" class="node">
<title>j518827490</title>
<polygon fill="none" stroke="blue" points="1065,-1554.5 891,-1554.5 891,-1518.5 1065,-1518.5 1065,-1554.5"/>
<text text-anchor="middle" x="978" y="-1532.8" font-family="Times New Roman,serif" font-size="14.00">你失血到快要死了嗎？</text>
</g>
<!-- j82736124&#45;&gt;j518827490 -->
<g id="edge10" class="edge">
<title>j82736124&#45;&gt;j518827490</title>
<path fill="none" stroke="brown" d="M906.14,-1613.85C919.58,-1599.57 938.9,-1579.04 954.13,-1562.86"/>
<polygon fill="brown" stroke="brown" points="956.32,-1565.64 960.63,-1555.96 951.22,-1560.84 956.32,-1565.64"/>
<text text-anchor="middle" x="949" y="-1584.8" font-family="Times New Roman,serif" font-size="14.00">false</text>
</g>
<!-- j4033288403 -->
<g id="node12" class="node">
<title>j4033288403</title>
<polygon fill="none" stroke="blue" points="1388.5,-1492 1277.5,-1492 1277.5,-1456 1388.5,-1456 1388.5,-1492"/>
<text text-anchor="middle" x="1333" y="-1470.3" font-family="Times New Roman,serif" font-size="14.00">（西語）滾開</text>
</g>
<!-- j2340607848&#45;&gt;j4033288403 -->
<g id="edge11" class="edge">
<title>j2340607848&#45;&gt;j4033288403</title>
<path fill="none" stroke="black" d="M1301.88,-1613.71C1307.87,-1587 1319.44,-1535.45 1326.66,-1503.27"/>
<polygon fill="black" stroke="black" points="1330,-1504.37 1328.77,-1493.85 1323.17,-1502.84 1330,-1504.37"/>
</g>
<!-- j3284039373 -->
<g id="node13" class="node">
<title>j3284039373</title>
<polygon fill="none" stroke="red" points="694,-1438 0,-1438 0,-1402 694,-1402 694,-1438"/>
<text text-anchor="middle" x="347" y="-1416.3" font-family="Times New Roman,serif" font-size="14.00">我知道這聽起來像是在浪費時間，但阿米爾想叫我們大家一起玩一個叫做《寓言與先驅》的遊戲。</text>
</g>
<!-- j561960899&#45;&gt;j3284039373 -->
<g id="edge12" class="edge">
<title>j561960899&#45;&gt;j3284039373</title>
<path fill="none" stroke="black" d="M637.68,-1509.52C570.33,-1489.01 477.62,-1460.78 415.17,-1441.76"/>
<polygon fill="black" stroke="black" points="416.29,-1438.44 405.7,-1438.88 414.25,-1445.14 416.29,-1438.44"/>
</g>
<!-- j2078142032 -->
<g id="node14" class="node">
<title>j2078142032</title>
<polygon fill="none" stroke="red" points="999,-1384 447,-1384 447,-1348 999,-1348 999,-1384"/>
<text text-anchor="middle" x="723" y="-1362.3" font-family="Times New Roman,serif" font-size="14.00">阿米爾真的希望我們大家能和他一起玩《寓言與先驅》。這對他來說很重要。</text>
</g>
<!-- j561960899&#45;&gt;j2078142032 -->
<g id="edge13" class="edge">
<title>j561960899&#45;&gt;j2078142032</title>
<path fill="none" stroke="black" d="M723,-1509.54C723,-1478.76 723,-1427.63 723,-1395.7"/>
<polygon fill="black" stroke="black" points="726.5,-1396 723,-1386 719.5,-1396 726.5,-1396"/>
</g>
<!-- j2471830232 -->
<g id="node15" class="node">
<title>j2471830232</title>
<polygon fill="none" stroke="red" points="1088.5,-1438 867.5,-1438 867.5,-1402 1088.5,-1402 1088.5,-1438"/>
<text text-anchor="middle" x="978" y="-1416.3" font-family="Times New Roman,serif" font-size="14.00">為什麼我感覺我馬上就會呢？</text>
</g>
<!-- j518827490&#45;&gt;j2471830232 -->
<g id="edge14" class="edge">
<title>j518827490&#45;&gt;j2471830232</title>
<path fill="none" stroke="black" d="M978,-1518.11C978,-1499.93 978,-1471.11 978,-1449.58"/>
<polygon fill="black" stroke="black" points="981.5,-1449.69 978,-1439.69 974.5,-1449.69 981.5,-1449.69"/>
</g>
<!-- j489646908 -->
<g id="node16" class="node">
<title>j489646908</title>
<polygon fill="none" stroke="red" points="1183.5,-1438 1106.5,-1438 1106.5,-1402 1183.5,-1402 1183.5,-1438"/>
<text text-anchor="middle" x="1145" y="-1416.3" font-family="Times New Roman,serif" font-size="14.00">不……？</text>
</g>
<!-- j518827490&#45;&gt;j489646908 -->
<g id="edge15" class="edge">
<title>j518827490&#45;&gt;j489646908</title>
<path fill="none" stroke="black" d="M1003.36,-1518.11C1031.89,-1498.55 1078.39,-1466.67 1110.28,-1444.8"/>
<polygon fill="black" stroke="black" points="1112.15,-1447.76 1118.42,-1439.22 1108.2,-1441.99 1112.15,-1447.76"/>
</g>
<!-- j4033288403&#45;&gt;Chat ends. -->
<g id="edge16" class="edge">
<title>j4033288403&#45;&gt;Chat ends.</title>
<path fill="none" stroke="black" d="M1341.04,-1455.79C1349.93,-1435.16 1363,-1399.32 1363,-1367 1363,-1367 1363,-1367 1363,-90 1363,-48.48 1076.09,-28.64 947.77,-21.84"/>
<polygon fill="black" stroke="black" points="948.27,-18.36 938.1,-21.33 947.91,-25.35 948.27,-18.36"/>
</g>
<!-- j818396301 -->
<g id="node17" class="node">
<title>j818396301</title>
<polygon fill="none" stroke="blue" points="486,-1330 202,-1330 202,-1277 486,-1277 486,-1330"/>
<text text-anchor="middle" x="344" y="-1314.8" font-family="Times New Roman,serif" font-size="14.00">你說得對&#13;</text>
<text text-anchor="middle" x="344" y="-1299.8" font-family="Times New Roman,serif" font-size="14.00">這聽起來就像是在浪費時間&#13;</text>
<text text-anchor="middle" x="344" y="-1284.8" font-family="Times New Roman,serif" font-size="14.00">就像用一把生鏽的鉗子拔自己的牙一樣</text>
</g>
<!-- j3284039373&#45;&gt;j818396301 -->
<g id="edge17" class="edge">
<title>j3284039373&#45;&gt;j818396301</title>
<path fill="none" stroke="black" d="M346.54,-1401.61C346.13,-1385.71 345.5,-1361.67 344.97,-1341.49"/>
<polygon fill="black" stroke="black" points="348.47,-1341.56 344.71,-1331.66 341.47,-1341.74 348.47,-1341.56"/>
</g>
<!-- j2790201023 -->
<g id="node18" class="node">
<title>j2790201023</title>
<polygon fill="none" stroke="blue" points="1079.5,-980 732.5,-980 732.5,-942 1079.5,-942 1079.5,-980"/>
<text text-anchor="middle" x="906" y="-964.8" font-family="Times New Roman,serif" font-size="14.00">那小子認為重要的事和真正重要的事是有分別的&#13;</text>
<text text-anchor="middle" x="906" y="-949.8" font-family="Times New Roman,serif" font-size="14.00">我沒有時間來做這件事</text>
</g>
<!-- j2078142032&#45;&gt;j2790201023 -->
<g id="edge18" class="edge">
<title>j2078142032&#45;&gt;j2790201023</title>
<path fill="none" stroke="black" d="M728.1,-1347.51C734.6,-1323.66 745,-1279.48 745,-1241 745,-1241 745,-1241 745,-1035 745,-1012.03 758.76,-996.25 778.24,-985.42"/>
<polygon fill="black" stroke="black" points="779.78,-988.56 787.21,-981.01 776.69,-982.28 779.78,-988.56"/>
</g>
<!-- j3250015605 -->
<g id="node19" class="node">
<title>j3250015605</title>
<ellipse fill="none" stroke="orange" cx="1014" cy="-1303.5" rx="64.19" ry="18"/>
<text text-anchor="middle" x="1014" y="-1299.8" font-family="Times New Roman,serif" font-size="14.00">+10 Chemistry</text>
</g>
<!-- j2471830232&#45;&gt;j3250015605 -->
<g id="edge19" class="edge">
<title>j2471830232&#45;&gt;j3250015605</title>
<path fill="none" stroke="black" d="M990.83,-1401.54C994.27,-1396.14 997.68,-1390.03 1000,-1384 1006.3,-1367.64 1009.79,-1348.28 1011.71,-1332.76"/>
<polygon fill="black" stroke="black" points="1015.14,-1333.58 1012.73,-1323.27 1008.18,-1332.84 1015.14,-1333.58"/>
</g>
<!-- j1119362202 -->
<g id="node20" class="node">
<title>j1119362202</title>
<polygon fill="none" stroke="blue" points="1248,-1259 1042,-1259 1042,-1221 1248,-1221 1248,-1259"/>
<text text-anchor="middle" x="1145" y="-1243.8" font-family="Times New Roman,serif" font-size="14.00">因為有人真的快會這樣了&#13;</text>
<text text-anchor="middle" x="1145" y="-1228.8" font-family="Times New Roman,serif" font-size="14.00">你想要的事有那麼重要嗎？</text>
</g>
<!-- j489646908&#45;&gt;j1119362202 -->
<g id="edge20" class="edge">
<title>j489646908&#45;&gt;j1119362202</title>
<path fill="none" stroke="black" d="M1145,-1401.61C1145,-1371.14 1145,-1307.8 1145,-1270.41"/>
<polygon fill="black" stroke="black" points="1148.5,-1270.77 1145,-1260.77 1141.5,-1270.77 1148.5,-1270.77"/>
</g>
<!-- j730342423 -->
<g id="node21" class="node">
<title>j730342423</title>
<polygon fill="none" stroke="blue" points="419,-1203 245,-1203 245,-1165 419,-1165 419,-1203"/>
<text text-anchor="middle" x="332" y="-1187.8" font-family="Times New Roman,serif" font-size="14.00">雖然有些痛苦我很享受&#13;</text>
<text text-anchor="middle" x="332" y="-1172.8" font-family="Times New Roman,serif" font-size="14.00">但這些不是</text>
</g>
<!-- j818396301&#45;&gt;j730342423 -->
<g id="edge21" class="edge">
<title>j818396301&#45;&gt;j730342423</title>
<path fill="none" stroke="black" d="M341.37,-1276.71C339.5,-1258.45 336.99,-1233.9 335.04,-1214.8"/>
<polygon fill="black" stroke="black" points="338.53,-1214.53 334.04,-1204.94 331.57,-1215.25 338.53,-1214.53"/>
</g>
<!-- j2790201023&#45;&gt;Chat ends. -->
<g id="edge22" class="edge">
<title>j2790201023&#45;&gt;Chat ends.</title>
<path fill="none" stroke="black" d="M906,-941.51C906,-917.28 906,-873.46 906,-836 906,-836 906,-836 906,-90 906,-75.39 902.2,-59.65 898,-46.71"/>
<polygon fill="black" stroke="black" points="901.41,-45.87 894.79,-37.59 894.81,-48.19 901.41,-45.87"/>
</g>
<!-- j4086968919 -->
<g id="node22" class="node">
<title>j4086968919</title>
<polygon fill="none" stroke="blue" points="1077.5,-1202 950.5,-1202 950.5,-1166 1077.5,-1166 1077.5,-1202"/>
<text text-anchor="middle" x="1014" y="-1180.3" font-family="Times New Roman,serif" font-size="14.00">因為你並不傻。</text>
</g>
<!-- j3250015605&#45;&gt;j4086968919 -->
<g id="edge23" class="edge">
<title>j3250015605&#45;&gt;j4086968919</title>
<path fill="none" stroke="black" d="M1014,-1285.16C1014,-1266.42 1014,-1236.23 1014,-1213.89"/>
<polygon fill="black" stroke="black" points="1017.5,-1213.92 1014,-1203.92 1010.5,-1213.92 1017.5,-1213.92"/>
</g>
<!-- j2579150631 -->
<g id="node23" class="node">
<title>j2579150631</title>
<polygon fill="none" stroke="red" points="1334.5,-1054 955.5,-1054 955.5,-1018 1334.5,-1018 1334.5,-1054"/>
<text text-anchor="middle" x="1145" y="-1032.3" font-family="Times New Roman,serif" font-size="14.00">這不是生死攸關的問題所以，不了，這件事可以等。</text>
</g>
<!-- j1119362202&#45;&gt;j2579150631 -->
<g id="edge24" class="edge">
<title>j1119362202&#45;&gt;j2579150631</title>
<path fill="none" stroke="black" d="M1145,-1220.72C1145,-1185.45 1145,-1107.79 1145,-1065.61"/>
<polygon fill="black" stroke="black" points="1148.5,-1065.75 1145,-1055.75 1141.5,-1065.75 1148.5,-1065.75"/>
</g>
<!-- j2332359678 -->
<g id="node24" class="node">
<title>j2332359678</title>
<polygon fill="none" stroke="red" points="419,-1128 245,-1128 245,-1092 419,-1092 419,-1128"/>
<text text-anchor="middle" x="332" y="-1106.3" font-family="Times New Roman,serif" font-size="14.00">但你欠著我一個人情。</text>
</g>
<!-- j730342423&#45;&gt;j2332359678 -->
<g id="edge25" class="edge">
<title>j730342423&#45;&gt;j2332359678</title>
<path fill="none" stroke="black" d="M332,-1164.83C332,-1157.24 332,-1148.24 332,-1139.79"/>
<polygon fill="black" stroke="black" points="335.5,-1139.93 332,-1129.93 328.5,-1139.93 335.5,-1139.93"/>
</g>
<!-- j2189847783 -->
<g id="node25" class="node">
<title>j2189847783</title>
<polygon fill="none" stroke="red" points="214.5,-1128 27.5,-1128 27.5,-1092 214.5,-1092 214.5,-1128"/>
<text text-anchor="middle" x="121" y="-1106.3" font-family="Times New Roman,serif" font-size="14.00">我……等等。什麼痛苦？</text>
</g>
<!-- j730342423&#45;&gt;j2189847783 -->
<g id="edge26" class="edge">
<title>j730342423&#45;&gt;j2189847783</title>
<path fill="none" stroke="black" d="M277.94,-1164.55C248.9,-1154.64 212.98,-1142.39 182.84,-1132.1"/>
<polygon fill="black" stroke="black" points="184.05,-1128.82 173.45,-1128.9 181.79,-1135.44 184.05,-1128.82"/>
</g>
<!-- j1800773919 -->
<g id="node26" class="node">
<title>j1800773919</title>
<polygon fill="none" stroke="blue" points="1117,-1128 911,-1128 911,-1092 1117,-1092 1117,-1128"/>
<text text-anchor="middle" x="1014" y="-1106.3" font-family="Times New Roman,serif" font-size="14.00">你想要的事有那麼重要嗎？</text>
</g>
<!-- j4086968919&#45;&gt;j1800773919 -->
<g id="edge27" class="edge">
<title>j4086968919&#45;&gt;j1800773919</title>
<path fill="none" stroke="black" d="M1014,-1165.57C1014,-1157.79 1014,-1148.41 1014,-1139.64"/>
<polygon fill="black" stroke="black" points="1017.5,-1139.78 1014,-1129.78 1010.5,-1139.78 1017.5,-1139.78"/>
</g>
<!-- j3019403359 -->
<g id="node27" class="node">
<title>j3019403359</title>
<ellipse fill="none" stroke="orange" cx="1162" cy="-961" rx="64.19" ry="18"/>
<text text-anchor="middle" x="1162" y="-957.3" font-family="Times New Roman,serif" font-size="14.00">+10 Chemistry</text>
</g>
<!-- j2579150631&#45;&gt;j3019403359 -->
<g id="edge28" class="edge">
<title>j2579150631&#45;&gt;j3019403359</title>
<path fill="none" stroke="black" d="M1149.03,-1017.7C1150.92,-1009.58 1153.23,-999.68 1155.36,-990.5"/>
<polygon fill="black" stroke="black" points="1158.74,-991.44 1157.6,-980.9 1151.92,-989.85 1158.74,-991.44"/>
</g>
<!-- j3882141396 -->
<g id="node28" class="node">
<title>j3882141396</title>
<polygon fill="none" stroke="blue" points="498,-1055 166,-1055 166,-1017 498,-1017 498,-1055"/>
<text text-anchor="middle" x="332" y="-1039.8" font-family="Times New Roman,serif" font-size="14.00">我欠你的&#13;</text>
<text text-anchor="middle" x="332" y="-1024.8" font-family="Times New Roman,serif" font-size="14.00">但你竟然因為一個幼稚的幻想遊戲而這麼說？</text>
</g>
<!-- j2332359678&#45;&gt;j3882141396 -->
<g id="edge29" class="edge">
<title>j2332359678&#45;&gt;j3882141396</title>
<path fill="none" stroke="black" d="M332,-1091.57C332,-1084.1 332,-1075.17 332,-1066.71"/>
<polygon fill="black" stroke="black" points="335.5,-1066.79 332,-1056.79 328.5,-1066.79 335.5,-1066.79"/>
</g>
<!-- j3137433204 -->
<g id="node29" class="node">
<title>j3137433204</title>
<ellipse fill="none" stroke="orange" cx="84" cy="-1036" rx="64.19" ry="18"/>
<text text-anchor="middle" x="84" y="-1032.3" font-family="Times New Roman,serif" font-size="14.00">+10 Chemistry</text>
</g>
<!-- j2189847783&#45;&gt;j3137433204 -->
<g id="edge30" class="edge">
<title>j2189847783&#45;&gt;j3137433204</title>
<path fill="none" stroke="black" d="M112.04,-1091.57C107.86,-1083.43 102.79,-1073.56 98.11,-1064.45"/>
<polygon fill="black" stroke="black" points="101.25,-1062.91 93.57,-1055.61 95.02,-1066.11 101.25,-1062.91"/>
</g>
<!-- j1800773919&#45;&gt;j2579150631 -->
<g id="edge32" class="edge">
<title>j1800773919&#45;&gt;j2579150631</title>
<path fill="none" stroke="black" d="M1045.71,-1091.57C1063.09,-1082.02 1084.84,-1070.07 1103.55,-1059.78"/>
<polygon fill="black" stroke="black" points="1105.18,-1062.88 1112.25,-1055 1101.8,-1056.75 1105.18,-1062.88"/>
</g>
<!-- j3442838310 -->
<g id="node30" class="node">
<title>j3442838310</title>
<polygon fill="none" stroke="red" points="937.5,-1054 794.5,-1054 794.5,-1018 937.5,-1018 937.5,-1054"/>
<text text-anchor="middle" x="866" y="-1032.3" font-family="Times New Roman,serif" font-size="14.00">這是為了阿米爾。</text>
</g>
<!-- j1800773919&#45;&gt;j3442838310 -->
<g id="edge31" class="edge">
<title>j1800773919&#45;&gt;j3442838310</title>
<path fill="none" stroke="black" d="M978.17,-1091.57C958.25,-1081.88 933.24,-1069.71 911.9,-1059.33"/>
<polygon fill="black" stroke="black" points="913.64,-1056.28 903.11,-1055.06 910.58,-1062.58 913.64,-1056.28"/>
</g>
<!-- j1912420002 -->
<g id="node31" class="node">
<title>j1912420002</title>
<polygon fill="none" stroke="blue" points="1064.5,-799 969.5,-799 969.5,-763 1064.5,-763 1064.5,-799"/>
<text text-anchor="middle" x="1017" y="-777.3" font-family="Times New Roman,serif" font-size="14.00">（西語）好</text>
</g>
<!-- j3019403359&#45;&gt;j1912420002 -->
<g id="edge33" class="edge">
<title>j3019403359&#45;&gt;j1912420002</title>
<path fill="none" stroke="black" d="M1148.1,-942.93C1122.61,-911.65 1068.27,-844.94 1038.17,-807.99"/>
<polygon fill="black" stroke="black" points="1041.06,-805.99 1032.03,-800.45 1035.63,-810.41 1041.06,-805.99"/>
</g>
<!-- j281085592 -->
<g id="node32" class="node">
<title>j281085592</title>
<polygon fill="none" stroke="red" points="475.5,-979 112.5,-979 112.5,-943 475.5,-943 475.5,-979"/>
<text text-anchor="middle" x="294" y="-957.3" font-family="Times New Roman,serif" font-size="14.00">我知道，但這是值得的，這對阿米爾來說很重要。</text>
</g>
<!-- j3882141396&#45;&gt;j281085592 -->
<g id="edge34" class="edge">
<title>j3882141396&#45;&gt;j281085592</title>
<path fill="none" stroke="black" d="M322.41,-1016.58C318.14,-1008.38 313.03,-998.56 308.32,-989.52"/>
<polygon fill="black" stroke="black" points="311.48,-988.01 303.76,-980.75 305.27,-991.24 311.48,-988.01"/>
</g>
<!-- j431633992 -->
<g id="node33" class="node">
<title>j431633992</title>
<polygon fill="none" stroke="red" points="714,-979 494,-979 494,-943 714,-943 714,-979"/>
<text text-anchor="middle" x="604" y="-957.3" font-family="Times New Roman,serif" font-size="14.00">嗯…算了，我還是把它留著。</text>
</g>
<!-- j3882141396&#45;&gt;j431633992 -->
<g id="edge35" class="edge">
<title>j3882141396&#45;&gt;j431633992</title>
<path fill="none" stroke="black" d="M400.64,-1016.58C439.48,-1006.15 488.12,-993.1 528.1,-982.37"/>
<polygon fill="black" stroke="black" points="528.92,-985.77 537.67,-979.8 527.1,-979.01 528.92,-985.77"/>
</g>
<!-- j2537660548 -->
<g id="node34" class="node">
<title>j2537660548</title>
<polygon fill="none" stroke="blue" points="266.5,-924 45.5,-924 45.5,-871 266.5,-871 266.5,-924"/>
<text text-anchor="middle" x="156" y="-908.8" font-family="Times New Roman,serif" font-size="14.00">呵 &#13;</text>
<text text-anchor="middle" x="156" y="-893.8" font-family="Times New Roman,serif" font-size="14.00">別太興奮啊，呆呆&#13;</text>
<text text-anchor="middle" x="156" y="-878.8" font-family="Times New Roman,serif" font-size="14.00">（西語）有個女人你駕馭不住</text>
</g>
<!-- j3137433204&#45;&gt;j2537660548 -->
<g id="edge36" class="edge">
<title>j3137433204&#45;&gt;j2537660548</title>
<path fill="none" stroke="black" d="M84.14,-1017.64C85.03,-997.96 88.79,-965.57 103,-942 105,-938.69 107.34,-935.52 109.91,-932.5"/>
<polygon fill="black" stroke="black" points="112.2,-935.17 116.6,-925.53 107.15,-930.32 112.2,-935.17"/>
</g>
<!-- j3442838310&#45;&gt;j2790201023 -->
<g id="edge37" class="edge">
<title>j3442838310&#45;&gt;j2790201023</title>
<path fill="none" stroke="black" d="M875.48,-1017.7C879.94,-1009.55 885.39,-999.62 890.43,-990.41"/>
<polygon fill="black" stroke="black" points="893.43,-992.23 895.16,-981.78 887.29,-988.87 893.43,-992.23"/>
</g>
<!-- j1912420002&#45;&gt;Chat ends. -->
<g id="edge38" class="edge">
<title>j1912420002&#45;&gt;Chat ends.</title>
<path fill="none" stroke="black" d="M1007.08,-762.84C996.12,-742.21 980,-706.22 980,-673 980,-673 980,-673 980,-90 980,-64.17 957.05,-46.48 933.95,-35.22"/>
<polygon fill="black" stroke="black" points="935.69,-32.16 925.14,-31.25 932.82,-38.55 935.69,-32.16"/>
</g>
<!-- j3725798666 -->
<g id="node35" class="node">
<title>j3725798666</title>
<ellipse fill="none" stroke="orange" cx="376" cy="-835" rx="152.17" ry="18"/>
<text text-anchor="middle" x="376" y="-831.3" font-family="Times New Roman,serif" font-size="14.00">Boolean LettieSmallFavor is now false.</text>
</g>
<!-- j281085592&#45;&gt;j3725798666 -->
<g id="edge39" class="edge">
<title>j281085592&#45;&gt;j3725798666</title>
<path fill="none" stroke="black" d="M305.4,-942.76C319.17,-921.94 342.48,-886.69 358.52,-862.43"/>
<polygon fill="black" stroke="black" points="361.26,-864.63 363.86,-854.36 355.42,-860.77 361.26,-864.63"/>
</g>
<!-- j1976590009 -->
<g id="node36" class="node">
<title>j1976590009</title>
<ellipse fill="none" stroke="orange" cx="762" cy="-835" rx="64.19" ry="18"/>
<text text-anchor="middle" x="762" y="-831.3" font-family="Times New Roman,serif" font-size="14.00">+20 Chemistry</text>
</g>
<!-- j431633992&#45;&gt;j1976590009 -->
<g id="edge40" class="edge">
<title>j431633992&#45;&gt;j1976590009</title>
<path fill="none" stroke="black" d="M625.97,-942.76C653.63,-921.05 701.27,-883.66 732.2,-859.39"/>
<polygon fill="black" stroke="black" points="734.33,-862.17 740.03,-853.24 730,-856.66 734.33,-862.17"/>
</g>
<!-- j2537660548&#45;&gt;Chat ends. -->
<g id="edge41" class="edge">
<title>j2537660548&#45;&gt;Chat ends.</title>
<path fill="none" stroke="black" d="M166.83,-870.63C175.42,-847.74 186,-813.24 186,-782 186,-782 186,-782 186,-90 186,-26.03 654.09,-19.2 825.27,-18.84"/>
<polygon fill="black" stroke="black" points="825.08,-22.34 835.07,-18.82 825.07,-15.34 825.08,-22.34"/>
</g>
<!-- j579503880 -->
<g id="node37" class="node">
<title>j579503880</title>
<ellipse fill="none" stroke="orange" cx="400" cy="-727" rx="64.19" ry="18"/>
<text text-anchor="middle" x="400" y="-723.3" font-family="Times New Roman,serif" font-size="14.00">+20 Chemistry</text>
</g>
<!-- j3725798666&#45;&gt;j579503880 -->
<g id="edge42" class="edge">
<title>j3725798666&#45;&gt;j579503880</title>
<path fill="none" stroke="black" d="M379.86,-816.97C383.54,-800.69 389.17,-775.82 393.54,-756.52"/>
<polygon fill="black" stroke="black" points="396.94,-757.34 395.74,-746.82 390.12,-755.8 396.94,-757.34"/>
</g>
<!-- j2323504094 -->
<g id="node38" class="node">
<title>j2323504094</title>
<polygon fill="none" stroke="blue" points="874.5,-691 747.5,-691 747.5,-653 874.5,-653 874.5,-691"/>
<text text-anchor="middle" x="811" y="-675.8" font-family="Times New Roman,serif" font-size="14.00">明智之選，呆呆&#13;</text>
<text text-anchor="middle" x="811" y="-660.8" font-family="Times New Roman,serif" font-size="14.00">現在走開</text>
</g>
<!-- j1976590009&#45;&gt;j2323504094 -->
<g id="edge43" class="edge">
<title>j1976590009&#45;&gt;j2323504094</title>
<path fill="none" stroke="black" d="M767.24,-816.77C775.59,-789.34 792,-735.44 802.18,-701.99"/>
<polygon fill="black" stroke="black" points="805.49,-703.12 805.05,-692.54 798.79,-701.08 805.49,-703.12"/>
</g>
<!-- j1244477629 -->
<g id="node39" class="node">
<title>j1244477629</title>
<polygon fill="none" stroke="blue" points="538,-635 348,-635 348,-567 538,-567 538,-635"/>
<text text-anchor="middle" x="443" y="-619.8" font-family="Times New Roman,serif" font-size="14.00">隨你便，呆呆……&#13;</text>
<text text-anchor="middle" x="443" y="-604.8" font-family="Times New Roman,serif" font-size="14.00">我會玩這個愚蠢的遊戲&#13;</text>
<text text-anchor="middle" x="443" y="-589.8" font-family="Times New Roman,serif" font-size="14.00">但只會在工作日結束之後&#13;</text>
<text text-anchor="middle" x="443" y="-574.8" font-family="Times New Roman,serif" font-size="14.00">現在走開</text>
</g>
<!-- j579503880&#45;&gt;j1244477629 -->
<g id="edge44" class="edge">
<title>j579503880&#45;&gt;j1244477629</title>
<path fill="none" stroke="black" d="M405.98,-708.76C411.59,-692.59 420.21,-667.73 427.72,-646.06"/>
<polygon fill="black" stroke="black" points="430.95,-647.44 430.92,-636.84 424.33,-645.14 430.95,-647.44"/>
</g>
<!-- j2323504094&#45;&gt;Chat ends. -->
<g id="edge45" class="edge">
<title>j2323504094&#45;&gt;Chat ends.</title>
<path fill="none" stroke="black" d="M825.68,-652.8C842.57,-629.98 868,-588.98 868,-549 868,-549 868,-549 868,-90 868,-75.39 871.8,-59.65 876,-46.71"/>
<polygon fill="black" stroke="black" points="879.19,-48.19 879.21,-37.59 872.59,-45.87 879.19,-48.19"/>
</g>
<!-- j952113720 -->
<g id="node40" class="node">
<title>j952113720</title>
<ellipse fill="none" stroke="orange" cx="491" cy="-512" rx="144.07" ry="18"/>
<text text-anchor="middle" x="491" y="-508.3" font-family="Times New Roman,serif" font-size="14.00">Boolean AmirRPGLettie is now true.</text>
</g>
<!-- j1244477629&#45;&gt;j952113720 -->
<g id="edge46" class="edge">
<title>j1244477629&#45;&gt;j952113720</title>
<path fill="none" stroke="black" d="M461.42,-566.61C466.25,-557.85 471.41,-548.51 476.03,-540.12"/>
<polygon fill="black" stroke="black" points="479.06,-541.9 480.82,-531.45 472.93,-538.51 479.06,-541.9"/>
</g>
<!-- j2581000439 -->
<g id="node41" class="node">
<title>j2581000439</title>
<ellipse fill="none" stroke="orange" cx="554" cy="-439" rx="130.78" ry="18"/>
<text text-anchor="middle" x="554" y="-435.3" font-family="Times New Roman,serif" font-size="14.00">Check boolean AmirRPGQuincy</text>
</g>
<!-- j952113720&#45;&gt;j2581000439 -->
<g id="edge47" class="edge">
<title>j952113720&#45;&gt;j2581000439</title>
<path fill="none" stroke="black" d="M506.25,-493.81C513.76,-485.35 522.96,-474.98 531.27,-465.61"/>
<polygon fill="black" stroke="black" points="533.87,-467.96 537.89,-458.16 528.63,-463.32 533.87,-467.96"/>
</g>
<!-- j3146717934 -->
<g id="node42" class="node">
<title>j3146717934</title>
<ellipse fill="none" stroke="orange" cx="554" cy="-352" rx="128.08" ry="18"/>
<text text-anchor="middle" x="554" y="-348.3" font-family="Times New Roman,serif" font-size="14.00">Check boolean AmirRPGArthur</text>
</g>
<!-- j2581000439&#45;&gt;j3146717934 -->
<g id="edge48" class="edge">
<title>j2581000439&#45;&gt;j3146717934</title>
<path fill="none" stroke="green" d="M554,-420.8C554,-409.58 554,-394.67 554,-381.69"/>
<polygon fill="green" stroke="green" points="557.5,-381.98 554,-371.98 550.5,-381.98 557.5,-381.98"/>
<text text-anchor="middle" x="565" y="-391.8" font-family="Times New Roman,serif" font-size="14.00">true</text>
</g>
<!-- j1692268193 -->
<g id="node43" class="node">
<title>j1692268193</title>
<ellipse fill="none" stroke="orange" cx="700" cy="-91" rx="139.98" ry="18"/>
<text text-anchor="middle" x="700" y="-87.3" font-family="Times New Roman,serif" font-size="14.00">Boolean AmirRPGAny is now true.</text>
</g>
<!-- j2581000439&#45;&gt;j1692268193 -->
<g id="edge49" class="edge">
<title>j2581000439&#45;&gt;j1692268193</title>
<path fill="none" stroke="brown" d="M643.94,-425.59C684.3,-414.42 723,-393.23 723,-353 723,-353 723,-353 723,-177 723,-157.37 717.22,-136.06 711.45,-119.68"/>
<polygon fill="brown" stroke="brown" points="714.85,-118.77 708.06,-110.63 708.29,-121.22 714.85,-118.77"/>
<text text-anchor="middle" x="736" y="-261.3" font-family="Times New Roman,serif" font-size="14.00">false</text>
</g>
<!-- j3146717934&#45;&gt;j1692268193 -->
<g id="edge51" class="edge">
<title>j3146717934&#45;&gt;j1692268193</title>
<path fill="none" stroke="brown" d="M593.46,-334.44C615.7,-323.12 642.13,-305.99 658,-283 676.01,-256.9 690.1,-167.19 696.4,-120.6"/>
<polygon fill="brown" stroke="brown" points="699.87,-121.09 697.7,-110.72 692.93,-120.17 699.87,-121.09"/>
<text text-anchor="middle" x="694" y="-217.8" font-family="Times New Roman,serif" font-size="14.00">false</text>
</g>
<!-- j655855753 -->
<g id="node44" class="node">
<title>j655855753</title>
<ellipse fill="none" stroke="orange" cx="531" cy="-265" rx="117.78" ry="18"/>
<text text-anchor="middle" x="531" y="-261.3" font-family="Times New Roman,serif" font-size="14.00">Check boolean AmirRPGAoi</text>
</g>
<!-- j3146717934&#45;&gt;j655855753 -->
<g id="edge50" class="edge">
<title>j3146717934&#45;&gt;j655855753</title>
<path fill="none" stroke="green" d="M549.35,-333.8C546.28,-322.47 542.19,-307.36 538.65,-294.29"/>
<polygon fill="green" stroke="green" points="542.11,-293.67 536.12,-284.93 535.36,-295.5 542.11,-293.67"/>
<text text-anchor="middle" x="555" y="-304.8" font-family="Times New Roman,serif" font-size="14.00">true</text>
</g>
<!-- j1692268193&#45;&gt;Chat ends. -->
<g id="edge52" class="edge">
<title>j1692268193&#45;&gt;Chat ends.</title>
<path fill="none" stroke="black" d="M743.37,-73.53C773.26,-62.19 812.84,-47.16 842.89,-35.75"/>
<polygon fill="black" stroke="black" points="843.97,-39.08 852.07,-32.26 841.48,-32.54 843.97,-39.08"/>
</g>
<!-- j655855753&#45;&gt;j1692268193 -->
<g id="edge54" class="edge">
<title>j655855753&#45;&gt;j1692268193</title>
<path fill="none" stroke="brown" d="M547.46,-246.83C580.24,-212.65 651.5,-138.39 663,-127 666.23,-123.8 669.65,-120.47 673.06,-117.2"/>
<polygon fill="brown" stroke="brown" points="675.46,-119.75 680.3,-110.32 670.64,-114.68 675.46,-119.75"/>
<text text-anchor="middle" x="643" y="-174.3" font-family="Times New Roman,serif" font-size="14.00">false</text>
</g>
<!-- j2643568913 -->
<g id="node45" class="node">
<title>j2643568913</title>
<ellipse fill="none" stroke="orange" cx="455" cy="-178" rx="131.88" ry="18"/>
<text text-anchor="middle" x="455" y="-174.3" font-family="Times New Roman,serif" font-size="14.00">Check boolean AmirRPGEleanor</text>
</g>
<!-- j655855753&#45;&gt;j2643568913 -->
<g id="edge53" class="edge">
<title>j655855753&#45;&gt;j2643568913</title>
<path fill="none" stroke="green" d="M515.62,-246.8C504.8,-234.7 490.14,-218.3 477.95,-204.67"/>
<polygon fill="green" stroke="green" points="480.64,-202.43 471.37,-197.3 475.42,-207.09 480.64,-202.43"/>
<text text-anchor="middle" x="509" y="-217.8" font-family="Times New Roman,serif" font-size="14.00">true</text>
</g>
<!-- j2643568913&#45;&gt;j1692268193 -->
<g id="edge56" class="edge">
<title>j2643568913&#45;&gt;j1692268193</title>
<path fill="none" stroke="brown" d="M495.04,-160.39C520.12,-150.22 553.22,-137.25 583,-127 599.03,-121.48 616.47,-115.99 632.87,-111.06"/>
<polygon fill="brown" stroke="brown" points="633.43,-114.54 642.01,-108.33 631.43,-107.83 633.43,-114.54"/>
<text text-anchor="middle" x="596" y="-130.8" font-family="Times New Roman,serif" font-size="14.00">false</text>
</g>
<!-- j3798570005 -->
<g id="node46" class="node">
<title>j3798570005</title>
<ellipse fill="none" stroke="orange" cx="408" cy="-91" rx="134.58" ry="18"/>
<text text-anchor="middle" x="408" y="-87.3" font-family="Times New Roman,serif" font-size="14.00">Boolean AmirRPGAll is now true.</text>
</g>
<!-- j2643568913&#45;&gt;j3798570005 -->
<g id="edge55" class="edge">
<title>j2643568913&#45;&gt;j3798570005</title>
<path fill="none" stroke="green" d="M445.49,-159.8C439.05,-148.16 430.42,-132.55 423.06,-119.24"/>
<polygon fill="green" stroke="green" points="426.13,-117.56 418.23,-110.5 420.01,-120.94 426.13,-117.56"/>
<text text-anchor="middle" x="446" y="-130.8" font-family="Times New Roman,serif" font-size="14.00">true</text>
</g>
<!-- j3798570005&#45;&gt;Chat ends. -->
<g id="edge57" class="edge">
<title>j3798570005&#45;&gt;Chat ends.</title>
<path fill="none" stroke="black" d="M495.86,-76.98C593.23,-62.54 747.43,-39.69 830.13,-27.43"/>
<polygon fill="black" stroke="black" points="830.44,-30.92 839.81,-25.99 829.41,-24 830.44,-30.92"/>
</g>
</g>
</svg>
