<?xml version="1.0" encoding="UTF-8" standalone="no"?>
<!DOCTYPE svg PUBLIC "-//W3C//DTD SVG 1.1//EN"
 "http://www.w3.org/Graphics/SVG/1.1/DTD/svg11.dtd">
<!-- Generated by graphviz version 7.1.0 (20230121.1956)
 -->
<!-- Pages: 1 -->
<svg width="2165pt" height="1762pt"
 viewBox="0.00 0.00 2164.50 1762.00" xmlns="http://www.w3.org/2000/svg" xmlns:xlink="http://www.w3.org/1999/xlink">
<g id="graph0" class="graph" transform="scale(1 1) rotate(0) translate(4 1758)">
<polygon fill="white" stroke="none" points="-4,4 -4,-1758 2160.5,-1758 2160.5,4 -4,4"/>
<!-- LettieRank4Convo2 begins. -->
<g id="node1" class="node">
<title>LettieRank4Convo2 begins.</title>
<ellipse fill="none" stroke="orange" cx="1985.5" cy="-1736" rx="111.58" ry="18"/>
<text text-anchor="middle" x="1985.5" y="-1732.3" font-family="Times New Roman,serif" font-size="14.00">LettieRank4Convo2 begins.</text>
</g>
<!-- j2593995439 -->
<g id="node2" class="node">
<title>j2593995439</title>
<polygon fill="none" stroke="blue" points="2106,-1681 1865,-1681 1865,-1628 2106,-1628 2106,-1681"/>
<text text-anchor="middle" x="1985.5" y="-1665.8" font-family="Times New Roman,serif" font-size="14.00">告訴我這個你們釋放的可怕神明 &#13;</text>
<text text-anchor="middle" x="1985.5" y="-1650.8" font-family="Times New Roman,serif" font-size="14.00">你的希佩托特克，你們的剝皮神&#13;</text>
<text text-anchor="middle" x="1985.5" y="-1635.8" font-family="Times New Roman,serif" font-size="14.00">他到底想要什麼？</text>
</g>
<!-- LettieRank4Convo2 begins.&#45;&gt;j2593995439 -->
<g id="edge1" class="edge">
<title>LettieRank4Convo2 begins.&#45;&gt;j2593995439</title>
<path fill="none" stroke="black" d="M1985.5,-1717.75C1985.5,-1710.38 1985.5,-1701.48 1985.5,-1692.74"/>
<polygon fill="black" stroke="black" points="1989,-1693 1985.5,-1683 1982,-1693 1989,-1693"/>
</g>
<!-- j864292509 -->
<g id="node3" class="node">
<title>j864292509</title>
<ellipse fill="none" stroke="orange" cx="1985.5" cy="-1573" rx="122.38" ry="18"/>
<text text-anchor="middle" x="1985.5" y="-1569.3" font-family="Times New Roman,serif" font-size="14.00">Check boolean LettieReligion2</text>
</g>
<!-- j2593995439&#45;&gt;j864292509 -->
<g id="edge2" class="edge">
<title>j2593995439&#45;&gt;j864292509</title>
<path fill="none" stroke="black" d="M1985.5,-1627.91C1985.5,-1619.86 1985.5,-1610.91 1985.5,-1602.66"/>
<polygon fill="black" stroke="black" points="1989,-1602.77 1985.5,-1592.77 1982,-1602.77 1989,-1602.77"/>
</g>
<!-- j4197372639 -->
<g id="node4" class="node">
<title>j4197372639</title>
<polygon fill="none" stroke="red" points="1714.5,-1198 1650.5,-1198 1650.5,-1162 1714.5,-1162 1714.5,-1198"/>
<text text-anchor="middle" x="1682.5" y="-1176.3" font-family="Times New Roman,serif" font-size="14.00">自由？</text>
</g>
<!-- j864292509&#45;&gt;j4197372639 -->
<g id="edge3" class="edge">
<title>j864292509&#45;&gt;j4197372639</title>
<path fill="none" stroke="green" d="M1985.33,-1554.61C1984.28,-1521.31 1978.34,-1447.24 1947.5,-1395 1893.51,-1303.54 1784.83,-1235.07 1724.78,-1202.36"/>
<polygon fill="green" stroke="green" points="1726.67,-1199.4 1716.2,-1197.76 1723.36,-1205.57 1726.67,-1199.4"/>
<text text-anchor="middle" x="1946.5" y="-1365.8" font-family="Times New Roman,serif" font-size="14.00">true</text>
</g>
<!-- j1517726093 -->
<g id="node5" class="node">
<title>j1517726093</title>
<polygon fill="none" stroke="red" points="1796.5,-1198 1732.5,-1198 1732.5,-1162 1796.5,-1162 1796.5,-1198"/>
<text text-anchor="middle" x="1764.5" y="-1176.3" font-family="Times New Roman,serif" font-size="14.00">知識？</text>
</g>
<!-- j864292509&#45;&gt;j1517726093 -->
<g id="edge4" class="edge">
<title>j864292509&#45;&gt;j1517726093</title>
<path fill="none" stroke="green" d="M1991.72,-1554.67C1997.26,-1537.67 2004.5,-1510.89 2004.5,-1487 2004.5,-1487 2004.5,-1487 2004.5,-1252 2004.5,-1230.89 1991.9,-1226.36 1973.5,-1216 1945.93,-1200.47 1861.07,-1190.01 1808.34,-1184.82"/>
<polygon fill="green" stroke="green" points="1808.76,-1181.34 1798.48,-1183.87 1808.1,-1188.31 1808.76,-1181.34"/>
<text text-anchor="middle" x="2015.5" y="-1365.8" font-family="Times New Roman,serif" font-size="14.00">true</text>
</g>
<!-- j2514812680 -->
<g id="node6" class="node">
<title>j2514812680</title>
<polygon fill="none" stroke="red" points="1444,-1198 1349,-1198 1349,-1162 1444,-1162 1444,-1198"/>
<text text-anchor="middle" x="1396.5" y="-1176.3" font-family="Times New Roman,serif" font-size="14.00">我不知道。</text>
</g>
<!-- j864292509&#45;&gt;j2514812680 -->
<g id="edge5" class="edge">
<title>j864292509&#45;&gt;j2514812680</title>
<path fill="none" stroke="green" d="M1868.78,-1567.35C1691.43,-1558.71 1374.5,-1536.37 1374.5,-1487 1374.5,-1487 1374.5,-1487 1374.5,-1252 1374.5,-1237.33 1378.84,-1221.68 1383.66,-1208.83"/>
<polygon fill="green" stroke="green" points="1386.83,-1210.32 1387.36,-1199.74 1380.35,-1207.68 1386.83,-1210.32"/>
<text text-anchor="middle" x="1385.5" y="-1365.8" font-family="Times New Roman,serif" font-size="14.00">true</text>
</g>
<!-- j331017148 -->
<g id="node7" class="node">
<title>j331017148</title>
<polygon fill="none" stroke="red" points="2156.5,-1504 2032.5,-1504 2032.5,-1468 2156.5,-1468 2156.5,-1504"/>
<text text-anchor="middle" x="2094.5" y="-1482.3" font-family="Times New Roman,serif" font-size="14.00">馬上回來 [結束]</text>
</g>
<!-- j864292509&#45;&gt;j331017148 -->
<g id="edge6" class="edge">
<title>j864292509&#45;&gt;j331017148</title>
<path fill="none" stroke="green" d="M2006.29,-1554.9C2018.25,-1545.15 2033.62,-1532.76 2047.5,-1522 2052.11,-1518.43 2057,-1514.71 2061.83,-1511.07"/>
<polygon fill="green" stroke="green" points="2063.81,-1513.97 2069.72,-1505.18 2059.62,-1508.36 2063.81,-1513.97"/>
<text text-anchor="middle" x="2058.5" y="-1525.8" font-family="Times New Roman,serif" font-size="14.00">true</text>
</g>
<!-- j864292509&#45;&gt;j331017148 -->
<g id="edge8" class="edge">
<title>j864292509&#45;&gt;j331017148</title>
<path fill="none" stroke="brown" d="M2039.11,-1556.38C2050.04,-1551.44 2060.84,-1545.09 2069.5,-1537 2076.04,-1530.9 2081.11,-1522.71 2084.92,-1514.74"/>
<polygon fill="brown" stroke="brown" points="2088.11,-1516.17 2088.77,-1505.59 2081.66,-1513.45 2088.11,-1516.17"/>
<text text-anchor="middle" x="2093.5" y="-1525.8" font-family="Times New Roman,serif" font-size="14.00">false</text>
</g>
<!-- j3063898237 -->
<g id="node8" class="node">
<title>j3063898237</title>
<polygon fill="none" stroke="red" points="1840,-1504 1697,-1504 1697,-1468 1840,-1468 1840,-1504"/>
<text text-anchor="middle" x="1768.5" y="-1482.3" font-family="Times New Roman,serif" font-size="14.00">嗯？你在說什麼？</text>
</g>
<!-- j864292509&#45;&gt;j3063898237 -->
<g id="edge7" class="edge">
<title>j864292509&#45;&gt;j3063898237</title>
<path fill="none" stroke="brown" d="M1943.66,-1555.61C1909.47,-1542.22 1860.87,-1523.18 1823.53,-1508.55"/>
<polygon fill="brown" stroke="brown" points="1824.82,-1505.3 1814.23,-1504.91 1822.27,-1511.82 1824.82,-1505.3"/>
<text text-anchor="middle" x="1902.5" y="-1525.8" font-family="Times New Roman,serif" font-size="14.00">false</text>
</g>
<!-- j848565616 -->
<g id="node9" class="node">
<title>j848565616</title>
<polygon fill="none" stroke="blue" points="1832.5,-1125 1532.5,-1125 1532.5,-1072 1832.5,-1072 1832.5,-1125"/>
<text text-anchor="middle" x="1682.5" y="-1109.8" font-family="Times New Roman,serif" font-size="14.00">你認為但你不知道&#13;</text>
<text text-anchor="middle" x="1682.5" y="-1094.8" font-family="Times New Roman,serif" font-size="14.00">它的動機不明&#13;</text>
<text text-anchor="middle" x="1682.5" y="-1079.8" font-family="Times New Roman,serif" font-size="14.00">但你卻認為它是敵人，（西語）為什麼？</text>
</g>
<!-- j4197372639&#45;&gt;j848565616 -->
<g id="edge9" class="edge">
<title>j4197372639&#45;&gt;j848565616</title>
<path fill="none" stroke="black" d="M1682.5,-1161.75C1682.5,-1154.38 1682.5,-1145.48 1682.5,-1136.74"/>
<polygon fill="black" stroke="black" points="1686,-1137 1682.5,-1127 1679,-1137 1686,-1137"/>
</g>
<!-- j1517726093&#45;&gt;j848565616 -->
<g id="edge10" class="edge">
<title>j1517726093&#45;&gt;j848565616</title>
<path fill="none" stroke="black" d="M1746.71,-1161.75C1738.08,-1153.39 1727.42,-1143.05 1717.28,-1133.21"/>
<polygon fill="black" stroke="black" points="1720,-1130.98 1710.39,-1126.54 1715.13,-1136.01 1720,-1130.98"/>
</g>
<!-- j3501895614 -->
<g id="node10" class="node">
<title>j3501895614</title>
<polygon fill="none" stroke="blue" points="1491.5,-1125 1301.5,-1125 1301.5,-1072 1491.5,-1072 1491.5,-1125"/>
<text text-anchor="middle" x="1396.5" y="-1109.8" font-family="Times New Roman,serif" font-size="14.00">你把它當作敵人對待&#13;</text>
<text text-anchor="middle" x="1396.5" y="-1094.8" font-family="Times New Roman,serif" font-size="14.00">然而你不知道它想要什麼&#13;</text>
<text text-anchor="middle" x="1396.5" y="-1079.8" font-family="Times New Roman,serif" font-size="14.00">（西語）為什麼？</text>
</g>
<!-- j2514812680&#45;&gt;j3501895614 -->
<g id="edge11" class="edge">
<title>j2514812680&#45;&gt;j3501895614</title>
<path fill="none" stroke="black" d="M1396.5,-1161.75C1396.5,-1154.38 1396.5,-1145.48 1396.5,-1136.74"/>
<polygon fill="black" stroke="black" points="1400,-1137 1396.5,-1127 1393,-1137 1400,-1137"/>
</g>
<!-- Chat ends. -->
<g id="node11" class="node">
<title>Chat ends.</title>
<ellipse fill="none" stroke="orange" cx="1530.5" cy="-91" rx="50.09" ry="18"/>
<text text-anchor="middle" x="1530.5" y="-87.3" font-family="Times New Roman,serif" font-size="14.00">Chat ends.</text>
</g>
<!-- j331017148&#45;&gt;Chat ends. -->
<g id="edge12" class="edge">
<title>j331017148&#45;&gt;Chat ends.</title>
<path fill="none" stroke="black" d="M2094.5,-1467.78C2094.5,-1453.41 2094.5,-1432.37 2094.5,-1414 2094.5,-1414 2094.5,-1414 2094.5,-179 2094.5,-162.08 2089.72,-155.18 2075.5,-146 1996.99,-95.28 1717.61,-90.62 1592.21,-91.18"/>
<polygon fill="black" stroke="black" points="1592.42,-87.68 1582.44,-91.24 1592.46,-94.68 1592.42,-87.68"/>
</g>
<!-- j2352960981 -->
<g id="node12" class="node">
<title>j2352960981</title>
<polygon fill="none" stroke="blue" points="1938.5,-1431 1402.5,-1431 1402.5,-1395 1938.5,-1395 1938.5,-1431"/>
<text text-anchor="middle" x="1670.5" y="-1409.3" font-family="Times New Roman,serif" font-size="14.00">這個虛空生物犧牲他人然後像古老的剝皮神希佩托特克一樣穿上他們的皮膚</text>
</g>
<!-- j3063898237&#45;&gt;j2352960981 -->
<g id="edge13" class="edge">
<title>j3063898237&#45;&gt;j2352960981</title>
<path fill="none" stroke="black" d="M1744.53,-1467.63C1732.19,-1458.69 1716.95,-1447.66 1703.52,-1437.92"/>
<polygon fill="black" stroke="black" points="1705.94,-1435.36 1695.79,-1432.32 1701.84,-1441.02 1705.94,-1435.36"/>
</g>
<!-- j960731583 -->
<g id="node13" class="node">
<title>j960731583</title>
<polygon fill="none" stroke="red" points="1400.5,-1035 860.5,-1035 860.5,-999 1400.5,-999 1400.5,-1035"/>
<text text-anchor="middle" x="1130.5" y="-1013.3" font-family="Times New Roman,serif" font-size="14.00">那個東西決定作一場有趣的實驗，把扎日曼的父母與他們的孩子對立起來──</text>
</g>
<!-- j848565616&#45;&gt;j960731583 -->
<g id="edge14" class="edge">
<title>j848565616&#45;&gt;j960731583</title>
<path fill="none" stroke="black" d="M1532.03,-1075.83C1447.88,-1063.71 1343.94,-1048.74 1262.9,-1037.07"/>
<polygon fill="black" stroke="black" points="1263.52,-1033.62 1253.12,-1035.66 1262.52,-1040.55 1263.52,-1033.62"/>
</g>
<!-- j2589411558 -->
<g id="node14" class="node">
<title>j2589411558</title>
<polygon fill="none" stroke="red" points="1970.5,-1035 1418.5,-1035 1418.5,-999 1970.5,-999 1970.5,-1035"/>
<text text-anchor="middle" x="1694.5" y="-1013.3" font-family="Times New Roman,serif" font-size="14.00">它所做的只是留下死亡和毀滅。無論它的動機是什麼，一切都不重要。信我。</text>
</g>
<!-- j848565616&#45;&gt;j2589411558 -->
<g id="edge15" class="edge">
<title>j848565616&#45;&gt;j2589411558</title>
<path fill="none" stroke="black" d="M1686.36,-1071.91C1687.59,-1063.76 1688.96,-1054.71 1690.22,-1046.38"/>
<polygon fill="black" stroke="black" points="1693.64,-1047.16 1691.67,-1036.75 1686.72,-1046.12 1693.64,-1047.16"/>
</g>
<!-- j3501895614&#45;&gt;j960731583 -->
<g id="edge16" class="edge">
<title>j3501895614&#45;&gt;j960731583</title>
<path fill="none" stroke="black" d="M1309.77,-1071.58C1274.06,-1060.91 1233.28,-1048.72 1199.64,-1038.66"/>
<polygon fill="black" stroke="black" points="1201.01,-1035.42 1190.43,-1035.91 1199.01,-1042.13 1201.01,-1035.42"/>
</g>
<!-- j3501895614&#45;&gt;j2589411558 -->
<g id="edge17" class="edge">
<title>j3501895614&#45;&gt;j2589411558</title>
<path fill="none" stroke="black" d="M1491.61,-1072.13C1532.56,-1061.2 1579.78,-1048.6 1618.36,-1038.31"/>
<polygon fill="black" stroke="black" points="1618.78,-1041.82 1627.54,-1035.86 1616.97,-1035.06 1618.78,-1041.82"/>
</g>
<!-- j1486528274 -->
<g id="node15" class="node">
<title>j1486528274</title>
<ellipse fill="none" stroke="orange" cx="1677.5" cy="-1326" rx="141.88" ry="18"/>
<text text-anchor="middle" x="1677.5" y="-1322.3" font-family="Times New Roman,serif" font-size="14.00">Boolean LettieReligion2 is now true.</text>
</g>
<!-- j2352960981&#45;&gt;j1486528274 -->
<g id="edge18" class="edge">
<title>j2352960981&#45;&gt;j1486528274</title>
<path fill="none" stroke="black" d="M1671.92,-1394.8C1672.84,-1383.58 1674.07,-1368.67 1675.14,-1355.69"/>
<polygon fill="black" stroke="black" points="1678.6,-1356.23 1675.94,-1345.98 1671.63,-1355.65 1678.6,-1356.23"/>
</g>
<!-- j573446397 -->
<g id="node16" class="node">
<title>j573446397</title>
<polygon fill="none" stroke="red" points="1469.5,-962 791.5,-962 791.5,-926 1469.5,-926 1469.5,-962"/>
<text text-anchor="middle" x="1130.5" y="-940.3" font-family="Times New Roman,serif" font-size="14.00">然後賦予孩子們魔法般虛空的力量，讓他們能夠殺死自己的父母，這樣它就能夠從屠殺中學習。</text>
</g>
<!-- j960731583&#45;&gt;j573446397 -->
<g id="edge19" class="edge">
<title>j960731583&#45;&gt;j573446397</title>
<path fill="none" stroke="black" d="M1130.5,-998.81C1130.5,-991.23 1130.5,-982.1 1130.5,-973.54"/>
<polygon fill="black" stroke="black" points="1134,-973.54 1130.5,-963.54 1127,-973.54 1134,-973.54"/>
</g>
<!-- j526494596 -->
<g id="node17" class="node">
<title>j526494596</title>
<polygon fill="none" stroke="blue" points="1789.5,-908 1599.5,-908 1599.5,-840 1789.5,-840 1789.5,-908"/>
<text text-anchor="middle" x="1694.5" y="-892.8" font-family="Times New Roman,serif" font-size="14.00">不&#13;</text>
<text text-anchor="middle" x="1694.5" y="-877.8" font-family="Times New Roman,serif" font-size="14.00">你相信你能理解神的心思&#13;</text>
<text text-anchor="middle" x="1694.5" y="-862.8" font-family="Times New Roman,serif" font-size="14.00">不管你多大年紀&#13;</text>
<text text-anchor="middle" x="1694.5" y="-847.8" font-family="Times New Roman,serif" font-size="14.00">遇過多少事</text>
</g>
<!-- j2589411558&#45;&gt;j526494596 -->
<g id="edge20" class="edge">
<title>j2589411558&#45;&gt;j526494596</title>
<path fill="none" stroke="black" d="M1694.5,-998.71C1694.5,-979.17 1694.5,-946.6 1694.5,-919.78"/>
<polygon fill="black" stroke="black" points="1698,-919.83 1694.5,-909.83 1691,-919.83 1698,-919.83"/>
</g>
<!-- j4167591482 -->
<g id="node18" class="node">
<title>j4167591482</title>
<polygon fill="none" stroke="blue" points="1754,-1271 1611,-1271 1611,-1235 1754,-1235 1754,-1271"/>
<text text-anchor="middle" x="1682.5" y="-1249.3" font-family="Times New Roman,serif" font-size="14.00">他到底想要什麼？</text>
</g>
<!-- j1486528274&#45;&gt;j4167591482 -->
<g id="edge21" class="edge">
<title>j1486528274&#45;&gt;j4167591482</title>
<path fill="none" stroke="black" d="M1678.71,-1307.81C1679.25,-1300.14 1679.9,-1290.89 1680.51,-1282.24"/>
<polygon fill="black" stroke="black" points="1683.98,-1282.76 1681.19,-1272.54 1677,-1282.27 1683.98,-1282.76"/>
</g>
<!-- j3176059266 -->
<g id="node19" class="node">
<title>j3176059266</title>
<polygon fill="none" stroke="red" points="1534.5,-822 998.5,-822 998.5,-786 1534.5,-786 1534.5,-822"/>
<text text-anchor="middle" x="1266.5" y="-800.3" font-family="Times New Roman,serif" font-size="14.00">它有機會從愛、犧牲、善良中學習。但看起來它選擇從混亂和謀殺中尋找。</text>
</g>
<!-- j573446397&#45;&gt;j3176059266 -->
<g id="edge22" class="edge">
<title>j573446397&#45;&gt;j3176059266</title>
<path fill="none" stroke="black" d="M1147.72,-925.52C1171.43,-901.47 1214.27,-858 1241.5,-830.36"/>
<polygon fill="black" stroke="black" points="1243.83,-832.99 1248.35,-823.41 1238.84,-828.08 1243.83,-832.99"/>
</g>
<!-- j1937124122 -->
<g id="node20" class="node">
<title>j1937124122</title>
<polygon fill="none" stroke="red" points="980,-822 239,-822 239,-786 980,-786 980,-822"/>
<text text-anchor="middle" x="609.5" y="-800.3" font-family="Times New Roman,serif" font-size="14.00">即使它只是像一個拿著玩具砸來砸去，想要理解周圍世界的嬰兒，但我們就是那些玩具。它必須被制止。</text>
</g>
<!-- j573446397&#45;&gt;j1937124122 -->
<g id="edge23" class="edge">
<title>j573446397&#45;&gt;j1937124122</title>
<path fill="none" stroke="black" d="M1064.51,-925.52C967.95,-899.95 788.55,-852.43 686.23,-825.32"/>
<polygon fill="black" stroke="black" points="687.39,-822.01 676.82,-822.83 685.59,-828.78 687.39,-822.01"/>
</g>
<!-- j1467973773 -->
<g id="node21" class="node">
<title>j1467973773</title>
<ellipse fill="none" stroke="orange" cx="1694.5" cy="-425" rx="111.28" ry="18"/>
<text text-anchor="middle" x="1694.5" y="-421.3" font-family="Times New Roman,serif" font-size="14.00">Check boolean LettieEntrati</text>
</g>
<!-- j526494596&#45;&gt;j1467973773 -->
<g id="edge24" class="edge">
<title>j526494596&#45;&gt;j1467973773</title>
<path fill="none" stroke="black" d="M1694.5,-839.9C1694.5,-819.23 1694.5,-792.06 1694.5,-768 1694.5,-768 1694.5,-768 1694.5,-511 1694.5,-492.12 1694.5,-470.88 1694.5,-454.35"/>
<polygon fill="black" stroke="black" points="1698,-454.77 1694.5,-444.77 1691,-454.77 1698,-454.77"/>
</g>
<!-- j4167591482&#45;&gt;j4197372639 -->
<g id="edge25" class="edge">
<title>j4167591482&#45;&gt;j4197372639</title>
<path fill="none" stroke="black" d="M1682.5,-1234.81C1682.5,-1227.23 1682.5,-1218.1 1682.5,-1209.54"/>
<polygon fill="black" stroke="black" points="1686,-1209.54 1682.5,-1199.54 1679,-1209.54 1686,-1209.54"/>
</g>
<!-- j4167591482&#45;&gt;j1517726093 -->
<g id="edge26" class="edge">
<title>j4167591482&#45;&gt;j1517726093</title>
<path fill="none" stroke="black" d="M1702.35,-1234.81C1712.45,-1226.07 1724.9,-1215.28 1736.01,-1205.67"/>
<polygon fill="black" stroke="black" points="1738.14,-1208.46 1743.4,-1199.27 1733.55,-1203.17 1738.14,-1208.46"/>
</g>
<!-- j4167591482&#45;&gt;j2514812680 -->
<g id="edge27" class="edge">
<title>j4167591482&#45;&gt;j2514812680</title>
<path fill="none" stroke="black" d="M1612.17,-1234.54C1563.99,-1222.58 1500.82,-1206.9 1455.31,-1195.6"/>
<polygon fill="black" stroke="black" points="1456.16,-1192.2 1445.61,-1193.19 1454.47,-1199 1456.16,-1192.2"/>
</g>
<!-- j118509974 -->
<g id="node22" class="node">
<title>j118509974</title>
<polygon fill="none" stroke="red" points="1555,-749 974,-749 974,-713 1555,-713 1555,-749"/>
<text text-anchor="middle" x="1264.5" y="-727.3" font-family="Times New Roman,serif" font-size="14.00">我會繼續心懷希望去相信它並非敵人，但……它沒有給我太多理由去相信它不是。</text>
</g>
<!-- j3176059266&#45;&gt;j118509974 -->
<g id="edge28" class="edge">
<title>j3176059266&#45;&gt;j118509974</title>
<path fill="none" stroke="black" d="M1266.02,-785.81C1265.8,-778.14 1265.54,-768.89 1265.3,-760.24"/>
<polygon fill="black" stroke="black" points="1268.8,-760.44 1265.02,-750.54 1261.81,-760.64 1268.8,-760.44"/>
</g>
<!-- j3057871201 -->
<g id="node23" class="node">
<title>j3057871201</title>
<polygon fill="none" stroke="red" points="954.5,-749 276.5,-749 276.5,-713 954.5,-713 954.5,-749"/>
<text text-anchor="middle" x="615.5" y="-727.3" font-family="Times New Roman,serif" font-size="14.00">在我親眼所見之後，我拒絕相信它是無害的。經歷過它對我做的一切之後，我無法這樣去相信。</text>
</g>
<!-- j1937124122&#45;&gt;j3057871201 -->
<g id="edge29" class="edge">
<title>j1937124122&#45;&gt;j3057871201</title>
<path fill="none" stroke="black" d="M610.95,-785.81C611.6,-778.14 612.38,-768.89 613.11,-760.24"/>
<polygon fill="black" stroke="black" points="616.58,-760.8 613.93,-750.54 609.6,-760.21 616.58,-760.8"/>
</g>
<!-- j3395055596 -->
<g id="node24" class="node">
<title>j3395055596</title>
<polygon fill="none" stroke="blue" points="1672.5,-285 1388.5,-285 1388.5,-232 1672.5,-232 1672.5,-285"/>
<text text-anchor="middle" x="1530.5" y="-269.8" font-family="Times New Roman,serif" font-size="14.00">你不是神，呆呆&#13;</text>
<text text-anchor="middle" x="1530.5" y="-254.8" font-family="Times New Roman,serif" font-size="14.00">別假裝你能夠像神一樣思考&#13;</text>
<text text-anchor="middle" x="1530.5" y="-239.8" font-family="Times New Roman,serif" font-size="14.00">不然你就和那個源拓氏混蛋沒什麼兩樣</text>
</g>
<!-- j1467973773&#45;&gt;j3395055596 -->
<g id="edge30" class="edge">
<title>j1467973773&#45;&gt;j3395055596</title>
<path fill="none" stroke="green" d="M1651.62,-408.01C1626.19,-396.72 1594.84,-379.42 1573.5,-356 1558.04,-339.04 1547.42,-315.6 1540.6,-296.07"/>
<polygon fill="green" stroke="green" points="1544.02,-295.25 1537.58,-286.83 1537.36,-297.43 1544.02,-295.25"/>
<text text-anchor="middle" x="1623.5" y="-377.8" font-family="Times New Roman,serif" font-size="14.00">true</text>
</g>
<!-- j2106554779 -->
<g id="node25" class="node">
<title>j2106554779</title>
<ellipse fill="none" stroke="orange" cx="1695.5" cy="-329.5" rx="113.18" ry="18"/>
<text text-anchor="middle" x="1695.5" y="-325.8" font-family="Times New Roman,serif" font-size="14.00">Check boolean LettieOrokin</text>
</g>
<!-- j1467973773&#45;&gt;j2106554779 -->
<g id="edge31" class="edge">
<title>j1467973773&#45;&gt;j2106554779</title>
<path fill="none" stroke="brown" d="M1694.68,-406.85C1694.83,-393.49 1695.03,-374.65 1695.19,-359.03"/>
<polygon fill="brown" stroke="brown" points="1698.69,-359.41 1695.3,-349.37 1691.69,-359.33 1698.69,-359.41"/>
<text text-anchor="middle" x="1707.5" y="-377.8" font-family="Times New Roman,serif" font-size="14.00">false</text>
</g>
<!-- j1985322584 -->
<g id="node26" class="node">
<title>j1985322584</title>
<polygon fill="none" stroke="blue" points="1057,-676 914,-676 914,-640 1057,-640 1057,-676"/>
<text text-anchor="middle" x="985.5" y="-654.3" font-family="Times New Roman,serif" font-size="14.00">你認為你能阻止神</text>
</g>
<!-- j118509974&#45;&gt;j1985322584 -->
<g id="edge32" class="edge">
<title>j118509974&#45;&gt;j1985322584</title>
<path fill="none" stroke="black" d="M1195.89,-712.54C1156.28,-702.46 1106.29,-689.74 1064.97,-679.22"/>
<polygon fill="black" stroke="black" points="1065.86,-675.84 1055.31,-676.77 1064.14,-682.62 1065.86,-675.84"/>
</g>
<!-- j3057871201&#45;&gt;j1985322584 -->
<g id="edge33" class="edge">
<title>j3057871201&#45;&gt;j1985322584</title>
<path fill="none" stroke="black" d="M706.49,-712.54C766.49,-701.03 844.46,-686.06 902.72,-674.88"/>
<polygon fill="black" stroke="black" points="903.08,-678.38 912.25,-673.06 901.77,-671.5 903.08,-678.38"/>
</g>
<!-- j3395055596&#45;&gt;Chat ends. -->
<g id="edge34" class="edge">
<title>j3395055596&#45;&gt;Chat ends.</title>
<path fill="none" stroke="black" d="M1530.5,-231.64C1530.5,-201.46 1530.5,-151.72 1530.5,-120.47"/>
<polygon fill="black" stroke="black" points="1534,-120.6 1530.5,-110.6 1527,-120.6 1534,-120.6"/>
</g>
<!-- j1622546971 -->
<g id="node27" class="node">
<title>j1622546971</title>
<polygon fill="none" stroke="blue" points="2066.5,-206.5 1782.5,-206.5 1782.5,-153.5 2066.5,-153.5 2066.5,-206.5"/>
<text text-anchor="middle" x="1924.5" y="-191.3" font-family="Times New Roman,serif" font-size="14.00">你不是神，呆呆&#13;</text>
<text text-anchor="middle" x="1924.5" y="-176.3" font-family="Times New Roman,serif" font-size="14.00">別假裝你能夠像神一樣思考&#13;</text>
<text text-anchor="middle" x="1924.5" y="-161.3" font-family="Times New Roman,serif" font-size="14.00">不然你就和那些 Orokin 混蛋沒什麼兩樣</text>
</g>
<!-- j2106554779&#45;&gt;j1622546971 -->
<g id="edge35" class="edge">
<title>j2106554779&#45;&gt;j1622546971</title>
<path fill="none" stroke="green" d="M1721.77,-311.58C1759.03,-287.58 1827.92,-243.21 1874.95,-212.91"/>
<polygon fill="green" stroke="green" points="1876.56,-216.04 1883.07,-207.68 1872.77,-210.16 1876.56,-216.04"/>
<text text-anchor="middle" x="1854.5" y="-254.8" font-family="Times New Roman,serif" font-size="14.00">true</text>
</g>
<!-- j2227949688 -->
<g id="node28" class="node">
<title>j2227949688</title>
<polygon fill="none" stroke="blue" points="1764.5,-199 1558.5,-199 1558.5,-161 1764.5,-161 1764.5,-199"/>
<text text-anchor="middle" x="1661.5" y="-183.8" font-family="Times New Roman,serif" font-size="14.00">你不是神，呆呆&#13;</text>
<text text-anchor="middle" x="1661.5" y="-168.8" font-family="Times New Roman,serif" font-size="14.00">別假裝你能夠像神一樣思考</text>
</g>
<!-- j2106554779&#45;&gt;j2227949688 -->
<g id="edge36" class="edge">
<title>j2106554779&#45;&gt;j2227949688</title>
<path fill="none" stroke="brown" d="M1691.56,-311.06C1687.19,-291.73 1679.9,-259.62 1673.5,-232 1671.88,-224.99 1670.11,-217.44 1668.44,-210.36"/>
<polygon fill="brown" stroke="brown" points="1671.91,-209.81 1666.21,-200.88 1665.1,-211.41 1671.91,-209.81"/>
<text text-anchor="middle" x="1698.5" y="-254.8" font-family="Times New Roman,serif" font-size="14.00">false</text>
</g>
<!-- j61093793 -->
<g id="node29" class="node">
<title>j61093793</title>
<ellipse fill="none" stroke="orange" cx="985.5" cy="-585" rx="141.88" ry="18"/>
<text text-anchor="middle" x="985.5" y="-581.3" font-family="Times New Roman,serif" font-size="14.00">Boolean LettieReligion4 is now true.</text>
</g>
<!-- j1985322584&#45;&gt;j61093793 -->
<g id="edge37" class="edge">
<title>j1985322584&#45;&gt;j61093793</title>
<path fill="none" stroke="black" d="M985.5,-639.81C985.5,-632.23 985.5,-623.1 985.5,-614.54"/>
<polygon fill="black" stroke="black" points="989,-614.54 985.5,-604.54 982,-614.54 989,-614.54"/>
</g>
<!-- j1622546971&#45;&gt;Chat ends. -->
<g id="edge38" class="edge">
<title>j1622546971&#45;&gt;Chat ends.</title>
<path fill="none" stroke="black" d="M1806.82,-153.01C1732.57,-136.62 1640.28,-116.24 1583.38,-103.68"/>
<polygon fill="black" stroke="black" points="1584.15,-100.26 1573.63,-101.52 1582.64,-107.1 1584.15,-100.26"/>
</g>
<!-- j2227949688&#45;&gt;Chat ends. -->
<g id="edge39" class="edge">
<title>j2227949688&#45;&gt;Chat ends.</title>
<path fill="none" stroke="black" d="M1633.72,-160.55C1613.01,-146.79 1584.66,-127.97 1562.92,-113.53"/>
<polygon fill="black" stroke="black" points="1564.97,-110.69 1554.7,-108.07 1561.1,-116.52 1564.97,-110.69"/>
</g>
<!-- j74624568 -->
<g id="node30" class="node">
<title>j74624568</title>
<ellipse fill="none" stroke="orange" cx="985.5" cy="-512" rx="116.98" ry="18"/>
<text text-anchor="middle" x="985.5" y="-508.3" font-family="Times New Roman,serif" font-size="14.00">Check boolean ReligionNone</text>
</g>
<!-- j61093793&#45;&gt;j74624568 -->
<g id="edge40" class="edge">
<title>j61093793&#45;&gt;j74624568</title>
<path fill="none" stroke="black" d="M985.5,-566.81C985.5,-559.23 985.5,-550.1 985.5,-541.54"/>
<polygon fill="black" stroke="black" points="989,-541.54 985.5,-531.54 982,-541.54 989,-541.54"/>
</g>
<!-- j1983089818 -->
<g id="node31" class="node">
<title>j1983089818</title>
<polygon fill="none" stroke="red" points="1494,-443 1241,-443 1241,-407 1494,-407 1494,-443"/>
<text text-anchor="middle" x="1367.5" y="-421.3" font-family="Times New Roman,serif" font-size="14.00">不知道。我通常是邊走邊想。哈哈</text>
</g>
<!-- j74624568&#45;&gt;j1983089818 -->
<g id="edge41" class="edge">
<title>j74624568&#45;&gt;j1983089818</title>
<path fill="none" stroke="green" d="M1050.3,-496.58C1112.94,-482.64 1208.35,-461.41 1278.17,-445.88"/>
<polygon fill="green" stroke="green" points="1278.67,-449.35 1287.67,-443.76 1277.15,-442.52 1278.67,-449.35"/>
<text text-anchor="middle" x="1209.5" y="-464.8" font-family="Times New Roman,serif" font-size="14.00">true</text>
</g>
<!-- j1553207734 -->
<g id="node32" class="node">
<title>j1553207734</title>
<polygon fill="none" stroke="red" points="1109.5,-443 557.5,-443 557.5,-407 1109.5,-407 1109.5,-443"/>
<text text-anchor="middle" x="833.5" y="-421.3" font-family="Times New Roman,serif" font-size="14.00">我覺得我可以試試，就像我在這裡做的那樣。這就是我們任何人都能做到的。</text>
</g>
<!-- j74624568&#45;&gt;j1553207734 -->
<g id="edge42" class="edge">
<title>j74624568&#45;&gt;j1553207734</title>
<path fill="none" stroke="green" d="M955.47,-494.21C932.33,-481.26 900.07,-463.23 874.55,-448.95"/>
<polygon fill="green" stroke="green" points="876.53,-446.05 866.1,-444.23 873.11,-452.16 876.53,-446.05"/>
<text text-anchor="middle" x="929.5" y="-464.8" font-family="Times New Roman,serif" font-size="14.00">true</text>
</g>
<!-- j812821477 -->
<g id="node33" class="node">
<title>j812821477</title>
<polygon fill="none" stroke="red" points="539,-443 0,-443 0,-407 539,-407 539,-443"/>
<text text-anchor="middle" x="269.5" y="-421.3" font-family="Times New Roman,serif" font-size="14.00">現在要由別人來決定了。我的位置就在 1999 年這裡，與你們所有人在一起。</text>
</g>
<!-- j74624568&#45;&gt;j812821477 -->
<g id="edge43" class="edge">
<title>j74624568&#45;&gt;j812821477</title>
<path fill="none" stroke="green" d="M895.18,-500.28C777.93,-486.36 571.37,-461.84 427.81,-444.79"/>
<polygon fill="green" stroke="green" points="428.56,-441.36 418.22,-443.66 427.74,-448.31 428.56,-441.36"/>
<text text-anchor="middle" x="681.5" y="-464.8" font-family="Times New Roman,serif" font-size="14.00">true</text>
</g>
<!-- j3790739211 -->
<g id="node34" class="node">
<title>j3790739211</title>
<polygon fill="none" stroke="red" points="1223,-443 1128,-443 1128,-407 1223,-407 1223,-443"/>
<text text-anchor="middle" x="1175.5" y="-421.3" font-family="Times New Roman,serif" font-size="14.00">我有信心。</text>
</g>
<!-- j74624568&#45;&gt;j3790739211 -->
<g id="edge44" class="edge">
<title>j74624568&#45;&gt;j3790739211</title>
<path fill="none" stroke="brown" d="M1022.13,-494.61C1051.81,-481.33 1093.9,-462.51 1126.48,-447.93"/>
<polygon fill="brown" stroke="brown" points="1127.61,-451.26 1135.31,-443.98 1124.75,-444.87 1127.61,-451.26"/>
<text text-anchor="middle" x="1104.5" y="-464.8" font-family="Times New Roman,serif" font-size="14.00">false</text>
</g>
<!-- j2852531630 -->
<g id="node35" class="node">
<title>j2852531630</title>
<ellipse fill="none" stroke="orange" cx="1367.5" cy="-329.5" rx="64.19" ry="18"/>
<text text-anchor="middle" x="1367.5" y="-325.8" font-family="Times New Roman,serif" font-size="14.00">+20 Chemistry</text>
</g>
<!-- j1983089818&#45;&gt;j2852531630 -->
<g id="edge45" class="edge">
<title>j1983089818&#45;&gt;j2852531630</title>
<path fill="none" stroke="black" d="M1367.5,-406.85C1367.5,-393.49 1367.5,-374.65 1367.5,-359.03"/>
<polygon fill="black" stroke="black" points="1371,-359.37 1367.5,-349.37 1364,-359.37 1371,-359.37"/>
</g>
<!-- j3635790644 -->
<g id="node36" class="node">
<title>j3635790644</title>
<ellipse fill="none" stroke="orange" cx="852.5" cy="-329.5" rx="64.19" ry="18"/>
<text text-anchor="middle" x="852.5" y="-325.8" font-family="Times New Roman,serif" font-size="14.00">+20 Chemistry</text>
</g>
<!-- j1553207734&#45;&gt;j3635790644 -->
<g id="edge46" class="edge">
<title>j1553207734&#45;&gt;j3635790644</title>
<path fill="none" stroke="black" d="M836.98,-406.85C839.7,-393.49 843.53,-374.65 846.7,-359.03"/>
<polygon fill="black" stroke="black" points="850.11,-359.84 848.67,-349.34 843.25,-358.44 850.11,-359.84"/>
</g>
<!-- j382133338 -->
<g id="node37" class="node">
<title>j382133338</title>
<polygon fill="none" stroke="blue" points="506,-356 33,-356 33,-303 506,-303 506,-356"/>
<text text-anchor="middle" x="269.5" y="-340.8" font-family="Times New Roman,serif" font-size="14.00">（西語）你在開玩笑，對吧？&#13;</text>
<text text-anchor="middle" x="269.5" y="-325.8" font-family="Times New Roman,serif" font-size="14.00">一旦他們打電話來，你就會立刻跑過去了&#13;</text>
<text text-anchor="middle" x="269.5" y="-310.8" font-family="Times New Roman,serif" font-size="14.00">你是個漂泊者，一個士兵，當他們需要你時，你會去拯救你的未來</text>
</g>
<!-- j812821477&#45;&gt;j382133338 -->
<g id="edge47" class="edge">
<title>j812821477&#45;&gt;j382133338</title>
<path fill="none" stroke="black" d="M269.5,-406.85C269.5,-395.92 269.5,-381.33 269.5,-367.83"/>
<polygon fill="black" stroke="black" points="273,-367.88 269.5,-357.88 266,-367.88 273,-367.88"/>
</g>
<!-- j3066750024 -->
<g id="node38" class="node">
<title>j3066750024</title>
<ellipse fill="none" stroke="orange" cx="1133.5" cy="-329.5" rx="64.19" ry="18"/>
<text text-anchor="middle" x="1133.5" y="-325.8" font-family="Times New Roman,serif" font-size="14.00">+20 Chemistry</text>
</g>
<!-- j3790739211&#45;&gt;j3066750024 -->
<g id="edge48" class="edge">
<title>j3790739211&#45;&gt;j3066750024</title>
<path fill="none" stroke="black" d="M1167.8,-406.85C1161.68,-393.23 1153,-373.91 1145.91,-358.12"/>
<polygon fill="black" stroke="black" points="1149.21,-356.93 1141.92,-349.24 1142.82,-359.79 1149.21,-356.93"/>
</g>
<!-- j3833134803 -->
<g id="node39" class="node">
<title>j3833134803</title>
<polygon fill="none" stroke="blue" points="1502,-214 1233,-214 1233,-146 1502,-146 1502,-214"/>
<text text-anchor="middle" x="1367.5" y="-198.8" font-family="Times New Roman,serif" font-size="14.00">哈哈，是的&#13;</text>
<text text-anchor="middle" x="1367.5" y="-183.8" font-family="Times New Roman,serif" font-size="14.00">我明白那種感覺&#13;</text>
<text text-anchor="middle" x="1367.5" y="-168.8" font-family="Times New Roman,serif" font-size="14.00">感謝你的坦白，呆呆&#13;</text>
<text text-anchor="middle" x="1367.5" y="-153.8" font-family="Times New Roman,serif" font-size="14.00">看起來這對你有用，所以我不會評判</text>
</g>
<!-- j2852531630&#45;&gt;j3833134803 -->
<g id="edge49" class="edge">
<title>j2852531630&#45;&gt;j3833134803</title>
<path fill="none" stroke="black" d="M1367.5,-311C1367.5,-290.14 1367.5,-254.5 1367.5,-225.81"/>
<polygon fill="black" stroke="black" points="1371,-225.92 1367.5,-215.92 1364,-225.92 1371,-225.92"/>
</g>
<!-- j1996356362 -->
<g id="node40" class="node">
<title>j1996356362</title>
<polygon fill="none" stroke="blue" points="1002,-199 781,-199 781,-161 1002,-161 1002,-199"/>
<text text-anchor="middle" x="891.5" y="-183.8" font-family="Times New Roman,serif" font-size="14.00">是的&#13;</text>
<text text-anchor="middle" x="891.5" y="-168.8" font-family="Times New Roman,serif" font-size="14.00">我想這就是我們所能的所有了</text>
</g>
<!-- j3635790644&#45;&gt;j1996356362 -->
<g id="edge50" class="edge">
<title>j3635790644&#45;&gt;j1996356362</title>
<path fill="none" stroke="black" d="M857.05,-311.29C863.58,-286.6 875.69,-240.79 883.67,-210.6"/>
<polygon fill="black" stroke="black" points="887.05,-211.51 886.23,-200.95 880.29,-209.72 887.05,-211.51"/>
</g>
<!-- j1610501910 -->
<g id="node41" class="node">
<title>j1610501910</title>
<polygon fill="none" stroke="blue" points="435.5,-206.5 103.5,-206.5 103.5,-153.5 435.5,-153.5 435.5,-206.5"/>
<text text-anchor="middle" x="269.5" y="-191.3" font-family="Times New Roman,serif" font-size="14.00">我們被困在這裡&#13;</text>
<text text-anchor="middle" x="269.5" y="-176.3" font-family="Times New Roman,serif" font-size="14.00">別對我撒謊，別告訴我你會帶我去散步，呆呆&#13;</text>
<text text-anchor="middle" x="269.5" y="-161.3" font-family="Times New Roman,serif" font-size="14.00">總有一天你會逃脫，然後再也不回來</text>
</g>
<!-- j382133338&#45;&gt;j1610501910 -->
<g id="edge51" class="edge">
<title>j382133338&#45;&gt;j1610501910</title>
<path fill="none" stroke="black" d="M269.5,-302.81C269.5,-279.47 269.5,-244.77 269.5,-218.37"/>
<polygon fill="black" stroke="black" points="273,-218.41 269.5,-208.41 266,-218.41 273,-218.41"/>
</g>
<!-- j1872130270 -->
<g id="node42" class="node">
<title>j1872130270</title>
<polygon fill="none" stroke="blue" points="1214.5,-206.5 1024.5,-206.5 1024.5,-153.5 1214.5,-153.5 1214.5,-206.5"/>
<text text-anchor="middle" x="1119.5" y="-191.3" font-family="Times New Roman,serif" font-size="14.00">（西語）呃，是嗎 &#13;</text>
<text text-anchor="middle" x="1119.5" y="-176.3" font-family="Times New Roman,serif" font-size="14.00">信什麼不太重要，我想 &#13;</text>
<text text-anchor="middle" x="1119.5" y="-161.3" font-family="Times New Roman,serif" font-size="14.00">只要它們能讓你度過難關</text>
</g>
<!-- j3066750024&#45;&gt;j1872130270 -->
<g id="edge52" class="edge">
<title>j3066750024&#45;&gt;j1872130270</title>
<path fill="none" stroke="black" d="M1131.87,-311.29C1129.71,-288.55 1125.85,-247.88 1123.01,-218.01"/>
<polygon fill="black" stroke="black" points="1126.52,-217.88 1122.09,-208.26 1119.55,-218.54 1126.52,-217.88"/>
</g>
<!-- j3833134803&#45;&gt;Chat ends. -->
<g id="edge53" class="edge">
<title>j3833134803&#45;&gt;Chat ends.</title>
<path fill="none" stroke="black" d="M1430.05,-145.61C1451.32,-134.26 1474.4,-121.94 1493.07,-111.98"/>
<polygon fill="black" stroke="black" points="1494.72,-115.06 1501.89,-107.27 1491.42,-108.89 1494.72,-115.06"/>
</g>
<!-- j1996356362&#45;&gt;Chat ends. -->
<g id="edge54" class="edge">
<title>j1996356362&#45;&gt;Chat ends.</title>
<path fill="none" stroke="black" d="M953.2,-160.55C972.95,-155.2 995.02,-149.78 1015.5,-146 1178.19,-116.01 1373.1,-101.23 1469.84,-95.29"/>
<polygon fill="black" stroke="black" points="1469.86,-98.8 1479.63,-94.7 1469.44,-91.81 1469.86,-98.8"/>
</g>
<!-- j1682647635 -->
<g id="node43" class="node">
<title>j1682647635</title>
<ellipse fill="none" stroke="orange" cx="269.5" cy="-91" rx="133.78" ry="18"/>
<text text-anchor="middle" x="269.5" y="-87.3" font-family="Times New Roman,serif" font-size="14.00">Boolean LettieEscape is now true.</text>
</g>
<!-- j1610501910&#45;&gt;j1682647635 -->
<g id="edge55" class="edge">
<title>j1610501910&#45;&gt;j1682647635</title>
<path fill="none" stroke="black" d="M269.5,-153.37C269.5,-143.1 269.5,-131.22 269.5,-120.67"/>
<polygon fill="black" stroke="black" points="273,-120.98 269.5,-110.98 266,-120.98 273,-120.98"/>
</g>
<!-- j1872130270&#45;&gt;Chat ends. -->
<g id="edge56" class="edge">
<title>j1872130270&#45;&gt;Chat ends.</title>
<path fill="none" stroke="black" d="M1198.31,-153.02C1207.1,-150.49 1215.96,-148.09 1224.5,-146 1310.22,-125.06 1411.32,-108.83 1473.16,-99.85"/>
<polygon fill="black" stroke="black" points="1473.33,-103.36 1482.73,-98.47 1472.34,-96.43 1473.33,-103.36"/>
</g>
<!-- Chat ends. Next chat will be LettieEscape. -->
<g id="node44" class="node">
<title>Chat ends. Next chat will be LettieEscape.</title>
<ellipse fill="none" stroke="orange" cx="269.5" cy="-18" rx="163.57" ry="18"/>
<text text-anchor="middle" x="269.5" y="-14.3" font-family="Times New Roman,serif" font-size="14.00">Chat ends. Next chat will be LettieEscape.</text>
</g>
<!-- j1682647635&#45;&gt;Chat ends. Next chat will be LettieEscape. -->
<g id="edge57" class="edge">
<title>j1682647635&#45;&gt;Chat ends. Next chat will be LettieEscape.</title>
<path fill="none" stroke="black" d="M269.5,-72.81C269.5,-65.23 269.5,-56.1 269.5,-47.54"/>
<polygon fill="black" stroke="black" points="273,-47.54 269.5,-37.54 266,-47.54 273,-47.54"/>
</g>
</g>
</svg>
