<?xml version="1.0" encoding="UTF-8" standalone="no"?>
<!DOCTYPE svg PUBLIC "-//W3C//DTD SVG 1.1//EN"
 "http://www.w3.org/Graphics/SVG/1.1/DTD/svg11.dtd">
<!-- Generated by graphviz version 7.1.0 (20230121.1956)
 -->
<!-- Pages: 1 -->
<svg width="1357pt" height="1412pt"
 viewBox="0.00 0.00 1356.50 1412.00" xmlns="http://www.w3.org/2000/svg" xmlns:xlink="http://www.w3.org/1999/xlink">
<g id="graph0" class="graph" transform="scale(1 1) rotate(0) translate(4 1408)">
<polygon fill="white" stroke="none" points="-4,4 -4,-1408 1352.5,-1408 1352.5,4 -4,4"/>
<!-- ArthurRank2Convo1 begins. -->
<g id="node1" class="node">
<title>ArthurRank2Convo1 begins.</title>
<ellipse fill="none" stroke="orange" cx="1188" cy="-1386" rx="115.08" ry="18"/>
<text text-anchor="middle" x="1188" y="-1382.3" font-family="Times New Roman,serif" font-size="14.00">ArthurRank2Convo1 begins.</text>
</g>
<!-- j1085918167 -->
<g id="node2" class="node">
<title>j1085918167</title>
<polygon fill="none" stroke="blue" points="1326.5,-1332 1049.5,-1332 1049.5,-1296 1326.5,-1296 1326.5,-1332"/>
<text text-anchor="middle" x="1188" y="-1310.3" font-family="Times New Roman,serif" font-size="14.00">Can I ask you a... potentially strange question?</text>
</g>
<!-- ArthurRank2Convo1 begins.&#45;&gt;j1085918167 -->
<g id="edge1" class="edge">
<title>ArthurRank2Convo1 begins.&#45;&gt;j1085918167</title>
<path fill="none" stroke="black" d="M1188,-1367.7C1188,-1360.41 1188,-1351.73 1188,-1343.54"/>
<polygon fill="black" stroke="black" points="1191.5,-1343.62 1188,-1333.62 1184.5,-1343.62 1191.5,-1343.62"/>
</g>
<!-- j3212482899 -->
<g id="node3" class="node">
<title>j3212482899</title>
<polygon fill="none" stroke="red" points="1159.5,-1260 890.5,-1260 890.5,-1224 1159.5,-1224 1159.5,-1260"/>
<text text-anchor="middle" x="1025" y="-1238.3" font-family="Times New Roman,serif" font-size="14.00">Define &quot;strange.&quot; Remember where I&#39;m from.</text>
</g>
<!-- j1085918167&#45;&gt;j3212482899 -->
<g id="edge2" class="edge">
<title>j1085918167&#45;&gt;j3212482899</title>
<path fill="none" stroke="black" d="M1147.29,-1295.52C1125.62,-1286.21 1098.77,-1274.68 1075.75,-1264.79"/>
<polygon fill="black" stroke="black" points="1077.43,-1261.71 1066.87,-1260.98 1074.67,-1268.14 1077.43,-1261.71"/>
</g>
<!-- j3768870210 -->
<g id="node4" class="node">
<title>j3768870210</title>
<polygon fill="none" stroke="red" points="1194.5,-1116 1133.5,-1116 1133.5,-1080 1194.5,-1080 1194.5,-1116"/>
<text text-anchor="middle" x="1164" y="-1094.3" font-family="Times New Roman,serif" font-size="14.00">Try me.</text>
</g>
<!-- j1085918167&#45;&gt;j3768870210 -->
<g id="edge3" class="edge">
<title>j1085918167&#45;&gt;j3768870210</title>
<path fill="none" stroke="black" d="M1186.08,-1295.85C1181.96,-1259.14 1172.26,-1172.66 1167.2,-1127.53"/>
<polygon fill="black" stroke="black" points="1170.69,-1127.28 1166.1,-1117.74 1163.74,-1128.06 1170.69,-1127.28"/>
</g>
<!-- j1032998001 -->
<g id="node5" class="node">
<title>j1032998001</title>
<polygon fill="none" stroke="red" points="1348.5,-1188 1223.5,-1188 1223.5,-1152 1348.5,-1152 1348.5,-1188"/>
<text text-anchor="middle" x="1286" y="-1166.3" font-family="Times New Roman,serif" font-size="14.00">Maybe later. [End.]</text>
</g>
<!-- j1085918167&#45;&gt;j1032998001 -->
<g id="edge4" class="edge">
<title>j1085918167&#45;&gt;j1032998001</title>
<path fill="none" stroke="black" d="M1200.02,-1295.59C1216.93,-1271.08 1247.91,-1226.19 1267.7,-1197.52"/>
<polygon fill="black" stroke="black" points="1270.53,-1199.57 1273.33,-1189.36 1264.77,-1195.6 1270.53,-1199.57"/>
</g>
<!-- j2305031143 -->
<g id="node6" class="node">
<title>j2305031143</title>
<ellipse fill="none" stroke="orange" cx="1025" cy="-1170" rx="64.19" ry="18"/>
<text text-anchor="middle" x="1025" y="-1166.3" font-family="Times New Roman,serif" font-size="14.00">+10 Chemistry</text>
</g>
<!-- j3212482899&#45;&gt;j2305031143 -->
<g id="edge5" class="edge">
<title>j3212482899&#45;&gt;j2305031143</title>
<path fill="none" stroke="black" d="M1025,-1223.7C1025,-1216.41 1025,-1207.73 1025,-1199.54"/>
<polygon fill="black" stroke="black" points="1028.5,-1199.62 1025,-1189.62 1021.5,-1199.62 1028.5,-1199.62"/>
</g>
<!-- j3702908094 -->
<g id="node7" class="node">
<title>j3702908094</title>
<polygon fill="none" stroke="blue" points="1096.5,-1044 953.5,-1044 953.5,-1008 1096.5,-1008 1096.5,-1044"/>
<text text-anchor="middle" x="1025" y="-1022.3" font-family="Times New Roman,serif" font-size="14.00">So, about your food...</text>
</g>
<!-- j3768870210&#45;&gt;j3702908094 -->
<g id="edge6" class="edge">
<title>j3768870210&#45;&gt;j3702908094</title>
<path fill="none" stroke="black" d="M1133.15,-1081.46C1114.54,-1072.09 1090.51,-1059.99 1069.83,-1049.57"/>
<polygon fill="black" stroke="black" points="1071.53,-1046.51 1061.02,-1045.14 1068.38,-1052.77 1071.53,-1046.51"/>
</g>
<!-- Chat ends. -->
<g id="node8" class="node">
<title>Chat ends.</title>
<ellipse fill="none" stroke="orange" cx="1116" cy="-18" rx="50.09" ry="18"/>
<text text-anchor="middle" x="1116" y="-14.3" font-family="Times New Roman,serif" font-size="14.00">Chat ends.</text>
</g>
<!-- j1032998001&#45;&gt;Chat ends. -->
<g id="edge7" class="edge">
<title>j1032998001&#45;&gt;Chat ends.</title>
<path fill="none" stroke="black" d="M1286.81,-1151.52C1287.98,-1124.72 1290,-1071.89 1290,-1027 1290,-1027 1290,-1027 1290,-161 1290,-115.85 1274.52,-102.26 1241,-72 1220.29,-53.3 1192,-40.57 1167.58,-32.27"/>
<polygon fill="black" stroke="black" points="1168.7,-28.96 1158.11,-29.23 1166.56,-35.62 1168.7,-28.96"/>
</g>
<!-- j3132366859 -->
<g id="node9" class="node">
<title>j3132366859</title>
<polygon fill="none" stroke="blue" points="1092.5,-1116 957.5,-1116 957.5,-1080 1092.5,-1080 1092.5,-1116"/>
<text text-anchor="middle" x="1025" y="-1094.3" font-family="Times New Roman,serif" font-size="14.00">...Right. Fair enough.</text>
</g>
<!-- j2305031143&#45;&gt;j3132366859 -->
<g id="edge8" class="edge">
<title>j2305031143&#45;&gt;j3132366859</title>
<path fill="none" stroke="black" d="M1025,-1151.7C1025,-1144.41 1025,-1135.73 1025,-1127.54"/>
<polygon fill="black" stroke="black" points="1028.5,-1127.62 1025,-1117.62 1021.5,-1127.62 1028.5,-1127.62"/>
</g>
<!-- j3719181797 -->
<g id="node10" class="node">
<title>j3719181797</title>
<polygon fill="none" stroke="red" points="1143.5,-972 906.5,-972 906.5,-936 1143.5,-936 1143.5,-972"/>
<text text-anchor="middle" x="1025" y="-950.3" font-family="Times New Roman,serif" font-size="14.00">You&#39;ve been poisoning it, haven&#39;t you?!</text>
</g>
<!-- j3702908094&#45;&gt;j3719181797 -->
<g id="edge9" class="edge">
<title>j3702908094&#45;&gt;j3719181797</title>
<path fill="none" stroke="black" d="M1025,-1007.7C1025,-1000.41 1025,-991.73 1025,-983.54"/>
<polygon fill="black" stroke="black" points="1028.5,-983.62 1025,-973.62 1021.5,-983.62 1028.5,-983.62"/>
</g>
<!-- j4016682323 -->
<g id="node11" class="node">
<title>j4016682323</title>
<polygon fill="none" stroke="red" points="900,-900 802,-900 802,-864 900,-864 900,-900"/>
<text text-anchor="middle" x="851" y="-878.3" font-family="Times New Roman,serif" font-size="14.00">What about it?</text>
</g>
<!-- j3702908094&#45;&gt;j4016682323 -->
<g id="edge10" class="edge">
<title>j3702908094&#45;&gt;j4016682323</title>
<path fill="none" stroke="black" d="M958.75,-1007.58C937.18,-999.45 914.36,-987.95 897,-972 879.01,-955.47 866.92,-930.29 859.66,-910.93"/>
<polygon fill="black" stroke="black" points="863.05,-910.02 856.44,-901.74 856.45,-912.33 863.05,-910.02"/>
</g>
<!-- j3132366859&#45;&gt;j3702908094 -->
<g id="edge11" class="edge">
<title>j3132366859&#45;&gt;j3702908094</title>
<path fill="none" stroke="black" d="M1025,-1079.7C1025,-1072.41 1025,-1063.73 1025,-1055.54"/>
<polygon fill="black" stroke="black" points="1028.5,-1055.62 1025,-1045.62 1021.5,-1055.62 1028.5,-1055.62"/>
</g>
<!-- j1951657800 -->
<g id="node12" class="node">
<title>j1951657800</title>
<polygon fill="none" stroke="blue" points="1131.5,-900 918.5,-900 918.5,-864 1131.5,-864 1131.5,-900"/>
<text text-anchor="middle" x="1025" y="-878.3" font-family="Times New Roman,serif" font-size="14.00">You wish. No getting out that easy.</text>
</g>
<!-- j3719181797&#45;&gt;j1951657800 -->
<g id="edge12" class="edge">
<title>j3719181797&#45;&gt;j1951657800</title>
<path fill="none" stroke="black" d="M1025,-935.7C1025,-928.41 1025,-919.73 1025,-911.54"/>
<polygon fill="black" stroke="black" points="1028.5,-911.62 1025,-901.62 1021.5,-911.62 1028.5,-911.62"/>
</g>
<!-- j3008190056 -->
<g id="node13" class="node">
<title>j3008190056</title>
<polygon fill="none" stroke="blue" points="1050,-828 652,-828 652,-792 1050,-792 1050,-828"/>
<text text-anchor="middle" x="851" y="-806.3" font-family="Times New Roman,serif" font-size="14.00">I&#39;m curious why you cut it up into... perfect squares. Even the pizza.</text>
</g>
<!-- j4016682323&#45;&gt;j3008190056 -->
<g id="edge13" class="edge">
<title>j4016682323&#45;&gt;j3008190056</title>
<path fill="none" stroke="black" d="M851,-863.7C851,-856.41 851,-847.73 851,-839.54"/>
<polygon fill="black" stroke="black" points="854.5,-839.62 851,-829.62 847.5,-839.62 854.5,-839.62"/>
</g>
<!-- j1951657800&#45;&gt;j3008190056 -->
<g id="edge14" class="edge">
<title>j1951657800&#45;&gt;j3008190056</title>
<path fill="none" stroke="black" d="M981.54,-863.52C958.31,-854.17 929.49,-842.57 904.84,-832.66"/>
<polygon fill="black" stroke="black" points="906.19,-829.43 895.61,-828.95 903.58,-835.93 906.19,-829.43"/>
</g>
<!-- j4037546121 -->
<g id="node14" class="node">
<title>j4037546121</title>
<polygon fill="none" stroke="red" points="538,-756 236,-756 236,-720 538,-720 538,-756"/>
<text text-anchor="middle" x="387" y="-734.3" font-family="Times New Roman,serif" font-size="14.00">Honestly? It kind of reminds me of... I don&#39;t know.</text>
</g>
<!-- j3008190056&#45;&gt;j4037546121 -->
<g id="edge15" class="edge">
<title>j3008190056&#45;&gt;j4037546121</title>
<path fill="none" stroke="black" d="M735.11,-791.52C667.86,-781.37 583.06,-768.58 514,-758.16"/>
<polygon fill="black" stroke="black" points="514.52,-754.7 504.11,-756.67 513.48,-761.62 514.52,-754.7"/>
</g>
<!-- j3324308053 -->
<g id="node15" class="node">
<title>j3324308053</title>
<polygon fill="none" stroke="red" points="1137.5,-756 556.5,-756 556.5,-720 1137.5,-720 1137.5,-756"/>
<text text-anchor="middle" x="847" y="-734.3" font-family="Times New Roman,serif" font-size="14.00">Force of habit. That&#39;s how the rations were served on the Zariman, the ship that got stuck in the void.</text>
</g>
<!-- j3008190056&#45;&gt;j3324308053 -->
<g id="edge16" class="edge">
<title>j3008190056&#45;&gt;j3324308053</title>
<path fill="none" stroke="black" d="M850.01,-791.7C849.59,-784.41 849.1,-775.73 848.63,-767.54"/>
<polygon fill="black" stroke="black" points="852.13,-767.4 848.06,-757.62 845.14,-767.8 852.13,-767.4"/>
</g>
<!-- j3203725632 -->
<g id="node16" class="node">
<title>j3203725632</title>
<polygon fill="none" stroke="red" points="1262,-756 1156,-756 1156,-720 1262,-720 1262,-756"/>
<text text-anchor="middle" x="1209" y="-734.3" font-family="Times New Roman,serif" font-size="14.00">Because. [End.]</text>
</g>
<!-- j3008190056&#45;&gt;j3203725632 -->
<g id="edge17" class="edge">
<title>j3008190056&#45;&gt;j3203725632</title>
<path fill="none" stroke="black" d="M961.07,-791.53C1013.8,-782.61 1078.01,-770.95 1144.65,-756.19"/>
<polygon fill="black" stroke="black" points="1145.33,-759.63 1154.33,-754.03 1143.8,-752.8 1145.33,-759.63"/>
</g>
<!-- j2069175713 -->
<g id="node17" class="node">
<title>j2069175713</title>
<polygon fill="none" stroke="blue" points="455,-684 399,-684 399,-648 455,-648 455,-684"/>
<text text-anchor="middle" x="427" y="-662.3" font-family="Times New Roman,serif" font-size="14.00">Home?</text>
</g>
<!-- j4037546121&#45;&gt;j2069175713 -->
<g id="edge18" class="edge">
<title>j4037546121&#45;&gt;j2069175713</title>
<path fill="none" stroke="black" d="M396.89,-719.7C401.34,-711.9 406.71,-702.51 411.67,-693.83"/>
<polygon fill="black" stroke="black" points="414.55,-695.84 416.48,-685.42 408.47,-692.36 414.55,-695.84"/>
</g>
<!-- j2660842996 -->
<g id="node18" class="node">
<title>j2660842996</title>
<polygon fill="none" stroke="blue" points="700.5,-684 539.5,-684 539.5,-648 700.5,-648 700.5,-684"/>
<text text-anchor="middle" x="620" y="-662.3" font-family="Times New Roman,serif" font-size="14.00">The ship was your home?</text>
</g>
<!-- j3324308053&#45;&gt;j2660842996 -->
<g id="edge19" class="edge">
<title>j3324308053&#45;&gt;j2660842996</title>
<path fill="none" stroke="black" d="M790.3,-719.52C759.04,-709.88 720.02,-697.84 687.23,-687.73"/>
<polygon fill="black" stroke="black" points="688.4,-684.43 677.81,-684.83 686.34,-691.12 688.4,-684.43"/>
</g>
<!-- j781709397 -->
<g id="node19" class="node">
<title>j781709397</title>
<polygon fill="none" stroke="blue" points="1254.5,-468 1177.5,-468 1177.5,-432 1254.5,-432 1254.5,-468"/>
<text text-anchor="middle" x="1216" y="-446.3" font-family="Times New Roman,serif" font-size="14.00">Good talk.</text>
</g>
<!-- j3203725632&#45;&gt;j781709397 -->
<g id="edge20" class="edge">
<title>j3203725632&#45;&gt;j781709397</title>
<path fill="none" stroke="black" d="M1209.43,-719.54C1210.6,-671.76 1213.86,-538.51 1215.3,-479.61"/>
<polygon fill="black" stroke="black" points="1218.8,-479.83 1215.54,-469.74 1211.8,-479.66 1218.8,-479.83"/>
</g>
<!-- j3980525530 -->
<g id="node20" class="node">
<title>j3980525530</title>
<polygon fill="none" stroke="red" points="768,-612 606,-612 606,-576 768,-576 768,-612"/>
<text text-anchor="middle" x="687" y="-590.3" font-family="Times New Roman,serif" font-size="14.00">Kind of? It&#39;s complicated.</text>
</g>
<!-- j2069175713&#45;&gt;j3980525530 -->
<g id="edge21" class="edge">
<title>j2069175713&#45;&gt;j3980525530</title>
<path fill="none" stroke="black" d="M455.32,-657.38C492.43,-647.38 558.92,-629.48 611.19,-615.41"/>
<polygon fill="black" stroke="black" points="611.9,-618.84 620.64,-612.86 610.08,-612.09 611.9,-618.84"/>
</g>
<!-- j1885135793 -->
<g id="node21" class="node">
<title>j1885135793</title>
<polygon fill="none" stroke="red" points="587.5,-612 318.5,-612 318.5,-576 587.5,-576 587.5,-612"/>
<text text-anchor="middle" x="453" y="-590.3" font-family="Times New Roman,serif" font-size="14.00">The only home I&#39;ve had where I wasn&#39;t alone.</text>
</g>
<!-- j2069175713&#45;&gt;j1885135793 -->
<g id="edge22" class="edge">
<title>j2069175713&#45;&gt;j1885135793</title>
<path fill="none" stroke="black" d="M433.43,-647.7C436.23,-640.15 439.58,-631.12 442.72,-622.68"/>
<polygon fill="black" stroke="black" points="445.92,-624.12 446.12,-613.52 439.36,-621.68 445.92,-624.12"/>
</g>
<!-- j1973814955 -->
<g id="node22" class="node">
<title>j1973814955</title>
<polygon fill="none" stroke="red" points="300,-612 0,-612 0,-576 300,-576 300,-612"/>
<text text-anchor="middle" x="150" y="-590.3" font-family="Times New Roman,serif" font-size="14.00">Actually, sorry. I don&#39;t want to talk about it. [End.]</text>
</g>
<!-- j2069175713&#45;&gt;j1973814955 -->
<g id="edge23" class="edge">
<title>j2069175713&#45;&gt;j1973814955</title>
<path fill="none" stroke="black" d="M398.66,-657.84C359.36,-647.91 286.77,-629.56 230.12,-615.25"/>
<polygon fill="black" stroke="black" points="231.04,-611.87 220.48,-612.81 229.32,-618.66 231.04,-611.87"/>
</g>
<!-- j2660842996&#45;&gt;j3980525530 -->
<g id="edge24" class="edge">
<title>j2660842996&#45;&gt;j3980525530</title>
<path fill="none" stroke="black" d="M636.56,-647.7C644.43,-639.47 653.99,-629.48 662.67,-620.42"/>
<polygon fill="black" stroke="black" points="665.2,-622.84 669.58,-613.2 660.14,-618 665.2,-622.84"/>
</g>
<!-- j2660842996&#45;&gt;j1885135793 -->
<g id="edge25" class="edge">
<title>j2660842996&#45;&gt;j1885135793</title>
<path fill="none" stroke="black" d="M578.29,-647.52C556.09,-638.21 528.58,-626.68 504.99,-616.79"/>
<polygon fill="black" stroke="black" points="506.44,-613.6 495.86,-612.97 503.73,-620.06 506.44,-613.6"/>
</g>
<!-- j2660842996&#45;&gt;j1973814955 -->
<g id="edge26" class="edge">
<title>j2660842996&#45;&gt;j1973814955</title>
<path fill="none" stroke="black" d="M539.2,-652.97C467.56,-642.3 361.69,-626.53 278.45,-614.13"/>
<polygon fill="black" stroke="black" points="279.02,-610.68 268.62,-612.67 277.99,-617.6 279.02,-610.68"/>
</g>
<!-- j781709397&#45;&gt;Chat ends. -->
<g id="edge27" class="edge">
<title>j781709397&#45;&gt;Chat ends.</title>
<path fill="none" stroke="black" d="M1220.45,-431.65C1226.88,-405.02 1238,-352.4 1238,-307 1238,-307 1238,-307 1238,-161 1238,-120.55 1243.57,-104.13 1219,-72 1205.6,-54.48 1184.77,-42.24 1165.34,-33.98"/>
<polygon fill="black" stroke="black" points="1166.74,-30.77 1156.16,-30.34 1164.17,-37.28 1166.74,-30.77"/>
</g>
<!-- j2278062045 -->
<g id="node23" class="node">
<title>j2278062045</title>
<polygon fill="none" stroke="blue" points="823,-540 749,-540 749,-504 823,-504 823,-540"/>
<text text-anchor="middle" x="786" y="-518.3" font-family="Times New Roman,serif" font-size="14.00">Sounds it.</text>
</g>
<!-- j3980525530&#45;&gt;j2278062045 -->
<g id="edge28" class="edge">
<title>j3980525530&#45;&gt;j2278062045</title>
<path fill="none" stroke="black" d="M711.73,-575.52C723.99,-566.85 738.98,-556.25 752.27,-546.85"/>
<polygon fill="black" stroke="black" points="754.21,-549.77 760.35,-541.13 750.17,-544.05 754.21,-549.77"/>
</g>
<!-- j4030915177 -->
<g id="node24" class="node">
<title>j4030915177</title>
<polygon fill="none" stroke="red" points="628,-540 278,-540 278,-504 628,-504 628,-540"/>
<text text-anchor="middle" x="453" y="-518.3" font-family="Times New Roman,serif" font-size="14.00">When it wasn&#39;t just me, myself, and my cubed food rations.</text>
</g>
<!-- j1885135793&#45;&gt;j4030915177 -->
<g id="edge29" class="edge">
<title>j1885135793&#45;&gt;j4030915177</title>
<path fill="none" stroke="black" d="M453,-575.7C453,-568.41 453,-559.73 453,-551.54"/>
<polygon fill="black" stroke="black" points="456.5,-551.62 453,-541.62 449.5,-551.62 456.5,-551.62"/>
</g>
<!-- j1015073580 -->
<g id="node25" class="node">
<title>j1015073580</title>
<polygon fill="none" stroke="blue" points="354.5,-180 187.5,-180 187.5,-144 354.5,-144 354.5,-180"/>
<text text-anchor="middle" x="271" y="-158.3" font-family="Times New Roman,serif" font-size="14.00">That&#39;s fine. I&#39;ve been there.</text>
</g>
<!-- j1973814955&#45;&gt;j1015073580 -->
<g id="edge30" class="edge">
<title>j1973814955&#45;&gt;j1015073580</title>
<path fill="none" stroke="black" d="M146.76,-575.58C142.09,-548.87 134,-496.15 134,-451 134,-451 134,-451 134,-305 134,-251.16 185.65,-209.9 225.52,-186.07"/>
<polygon fill="black" stroke="black" points="227.14,-189.18 234.05,-181.15 223.64,-183.12 227.14,-189.18"/>
</g>
<!-- j4250063916 -->
<g id="node26" class="node">
<title>j4250063916</title>
<polygon fill="none" stroke="blue" points="1063.5,-468 704.5,-468 704.5,-432 1063.5,-432 1063.5,-468"/>
<text text-anchor="middle" x="884" y="-446.3" font-family="Times New Roman,serif" font-size="14.00">Well, I guess I could try making square spaghetti if you want.</text>
</g>
<!-- j2278062045&#45;&gt;j4250063916 -->
<g id="edge31" class="edge">
<title>j2278062045&#45;&gt;j4250063916</title>
<path fill="none" stroke="black" d="M810.48,-503.52C822.61,-494.85 837.45,-484.25 850.61,-474.85"/>
<polygon fill="black" stroke="black" points="852.5,-477.8 858.6,-469.14 848.43,-472.1 852.5,-477.8"/>
</g>
<!-- j1948902429 -->
<g id="node27" class="node">
<title>j1948902429</title>
<polygon fill="none" stroke="red" points="594,-468 312,-468 312,-432 594,-432 594,-468"/>
<text text-anchor="middle" x="453" y="-446.3" font-family="Times New Roman,serif" font-size="14.00">So. I guess I do it because there&#39;s comfort in it.</text>
</g>
<!-- j4030915177&#45;&gt;j1948902429 -->
<g id="edge32" class="edge">
<title>j4030915177&#45;&gt;j1948902429</title>
<path fill="none" stroke="black" d="M453,-503.7C453,-496.41 453,-487.73 453,-479.54"/>
<polygon fill="black" stroke="black" points="456.5,-479.62 453,-469.62 449.5,-479.62 456.5,-479.62"/>
</g>
<!-- j1015073580&#45;&gt;Chat ends. -->
<g id="edge33" class="edge">
<title>j1015073580&#45;&gt;Chat ends.</title>
<path fill="none" stroke="black" d="M306.31,-143.53C350.28,-122.66 428.23,-88.49 499,-72 698.22,-25.58 942.13,-18.88 1054.26,-18.51"/>
<polygon fill="black" stroke="black" points="1054.15,-22.01 1064.14,-18.49 1054.14,-15.01 1054.15,-22.01"/>
</g>
<!-- j3102929110 -->
<g id="node28" class="node">
<title>j3102929110</title>
<polygon fill="none" stroke="red" points="1006,-396 762,-396 762,-360 1006,-360 1006,-396"/>
<text text-anchor="middle" x="884" y="-374.3" font-family="Times New Roman,serif" font-size="14.00">I&#39;ll tell you what. If you make it, I&#39;ll eat it.</text>
</g>
<!-- j4250063916&#45;&gt;j3102929110 -->
<g id="edge34" class="edge">
<title>j4250063916&#45;&gt;j3102929110</title>
<path fill="none" stroke="black" d="M884,-431.7C884,-424.41 884,-415.73 884,-407.54"/>
<polygon fill="black" stroke="black" points="887.5,-407.62 884,-397.62 880.5,-407.62 887.5,-407.62"/>
</g>
<!-- j863017020 -->
<g id="node29" class="node">
<title>j863017020</title>
<polygon fill="none" stroke="red" points="1209.5,-396 1024.5,-396 1024.5,-360 1209.5,-360 1209.5,-396"/>
<text text-anchor="middle" x="1117" y="-374.3" font-family="Times New Roman,serif" font-size="14.00">Thanks. But... gross. I&#39;ll pass.</text>
</g>
<!-- j4250063916&#45;&gt;j863017020 -->
<g id="edge35" class="edge">
<title>j4250063916&#45;&gt;j863017020</title>
<path fill="none" stroke="black" d="M942.19,-431.52C974.43,-421.83 1014.68,-409.74 1048.43,-399.6"/>
<polygon fill="black" stroke="black" points="1049.12,-403.05 1057.69,-396.82 1047.11,-396.34 1049.12,-403.05"/>
</g>
<!-- j3965661999 -->
<g id="node30" class="node">
<title>j3965661999</title>
<polygon fill="none" stroke="blue" points="743.5,-396 162.5,-396 162.5,-360 743.5,-360 743.5,-396"/>
<text text-anchor="middle" x="453" y="-374.3" font-family="Times New Roman,serif" font-size="14.00">I know how you feel. Routines can help you feel grounded, especially when everything&#39;s gone to shit.</text>
</g>
<!-- j1948902429&#45;&gt;j3965661999 -->
<g id="edge36" class="edge">
<title>j1948902429&#45;&gt;j3965661999</title>
<path fill="none" stroke="black" d="M453,-431.7C453,-424.41 453,-415.73 453,-407.54"/>
<polygon fill="black" stroke="black" points="456.5,-407.62 453,-397.62 449.5,-407.62 456.5,-407.62"/>
</g>
<!-- j2946402437 -->
<g id="node31" class="node">
<title>j2946402437</title>
<ellipse fill="none" stroke="orange" cx="857" cy="-306" rx="64.19" ry="18"/>
<text text-anchor="middle" x="857" y="-302.3" font-family="Times New Roman,serif" font-size="14.00">+10 Chemistry</text>
</g>
<!-- j3102929110&#45;&gt;j2946402437 -->
<g id="edge37" class="edge">
<title>j3102929110&#45;&gt;j2946402437</title>
<path fill="none" stroke="black" d="M877.33,-359.7C874.42,-352.15 870.93,-343.12 867.68,-334.68"/>
<polygon fill="black" stroke="black" points="871.01,-333.59 864.14,-325.52 864.48,-336.11 871.01,-333.59"/>
</g>
<!-- j1999117807 -->
<g id="node32" class="node">
<title>j1999117807</title>
<ellipse fill="none" stroke="orange" cx="1117" cy="-306" rx="64.19" ry="18"/>
<text text-anchor="middle" x="1117" y="-302.3" font-family="Times New Roman,serif" font-size="14.00">+10 Chemistry</text>
</g>
<!-- j863017020&#45;&gt;j1999117807 -->
<g id="edge38" class="edge">
<title>j863017020&#45;&gt;j1999117807</title>
<path fill="none" stroke="black" d="M1117,-359.7C1117,-352.41 1117,-343.73 1117,-335.54"/>
<polygon fill="black" stroke="black" points="1120.5,-335.62 1117,-325.62 1113.5,-335.62 1120.5,-335.62"/>
</g>
<!-- j3265159834 -->
<g id="node33" class="node">
<title>j3265159834</title>
<polygon fill="none" stroke="blue" points="594,-324 314,-324 314,-288 594,-288 594,-324"/>
<text text-anchor="middle" x="454" y="-302.3" font-family="Times New Roman,serif" font-size="14.00">I tell you what &#45; I make a mean cubed omelette.</text>
</g>
<!-- j3965661999&#45;&gt;j3265159834 -->
<g id="edge39" class="edge">
<title>j3965661999&#45;&gt;j3265159834</title>
<path fill="none" stroke="black" d="M453.25,-359.7C453.35,-352.41 453.48,-343.73 453.59,-335.54"/>
<polygon fill="black" stroke="black" points="457.09,-335.67 453.73,-325.62 450.09,-335.57 457.09,-335.67"/>
</g>
<!-- j1697803986 -->
<g id="node34" class="node">
<title>j1697803986</title>
<polygon fill="none" stroke="blue" points="879.5,-252 808.5,-252 808.5,-216 879.5,-216 879.5,-252"/>
<text text-anchor="middle" x="844" y="-230.3" font-family="Times New Roman,serif" font-size="14.00">Game on.</text>
</g>
<!-- j2946402437&#45;&gt;j1697803986 -->
<g id="edge40" class="edge">
<title>j2946402437&#45;&gt;j1697803986</title>
<path fill="none" stroke="black" d="M853.79,-287.7C852.42,-280.32 850.78,-271.52 849.25,-263.25"/>
<polygon fill="black" stroke="black" points="852.72,-262.79 847.45,-253.59 845.84,-264.06 852.72,-262.79"/>
</g>
<!-- j588734600 -->
<g id="node35" class="node">
<title>j588734600</title>
<polygon fill="none" stroke="blue" points="1209.5,-108 1022.5,-108 1022.5,-72 1209.5,-72 1209.5,-108"/>
<text text-anchor="middle" x="1116" y="-86.3" font-family="Times New Roman,serif" font-size="14.00">On second thought, good call.</text>
</g>
<!-- j1999117807&#45;&gt;j588734600 -->
<g id="edge41" class="edge">
<title>j1999117807&#45;&gt;j588734600</title>
<path fill="none" stroke="black" d="M1116.92,-287.85C1116.75,-251.14 1116.34,-164.66 1116.13,-119.53"/>
<polygon fill="black" stroke="black" points="1119.63,-119.73 1116.09,-109.75 1112.63,-119.76 1119.63,-119.73"/>
</g>
<!-- j4148321659 -->
<g id="node36" class="node">
<title>j4148321659</title>
<polygon fill="none" stroke="red" points="523.5,-252 384.5,-252 384.5,-216 523.5,-216 523.5,-252"/>
<text text-anchor="middle" x="454" y="-230.3" font-family="Times New Roman,serif" font-size="14.00">That sounds amazing.</text>
</g>
<!-- j3265159834&#45;&gt;j4148321659 -->
<g id="edge42" class="edge">
<title>j3265159834&#45;&gt;j4148321659</title>
<path fill="none" stroke="black" d="M454,-287.7C454,-280.41 454,-271.73 454,-263.54"/>
<polygon fill="black" stroke="black" points="457.5,-263.62 454,-253.62 450.5,-263.62 457.5,-263.62"/>
</g>
<!-- j257447559 -->
<g id="node37" class="node">
<title>j257447559</title>
<polygon fill="none" stroke="red" points="604,-252 542,-252 542,-216 604,-216 604,-252"/>
<text text-anchor="middle" x="573" y="-230.3" font-family="Times New Roman,serif" font-size="14.00">A what?</text>
</g>
<!-- j3265159834&#45;&gt;j257447559 -->
<g id="edge43" class="edge">
<title>j3265159834&#45;&gt;j257447559</title>
<path fill="none" stroke="black" d="M483.72,-287.52C498.89,-278.6 517.53,-267.63 533.85,-258.03"/>
<polygon fill="black" stroke="black" points="535.51,-261.11 542.35,-253.03 531.96,-255.08 535.51,-261.11"/>
</g>
<!-- j1330447411 -->
<g id="node38" class="node">
<title>j1330447411</title>
<ellipse fill="none" stroke="orange" cx="837" cy="-162" rx="146.77" ry="18"/>
<text text-anchor="middle" x="837" y="-158.3" font-family="Times New Roman,serif" font-size="14.00">Boolean SquareSpaghetti is now true.</text>
</g>
<!-- j1697803986&#45;&gt;j1330447411 -->
<g id="edge44" class="edge">
<title>j1697803986&#45;&gt;j1330447411</title>
<path fill="none" stroke="black" d="M842.27,-215.7C841.54,-208.41 840.67,-199.73 839.85,-191.54"/>
<polygon fill="black" stroke="black" points="843.34,-191.21 838.86,-181.61 836.37,-191.91 843.34,-191.21"/>
</g>
<!-- j588734600&#45;&gt;Chat ends. -->
<g id="edge45" class="edge">
<title>j588734600&#45;&gt;Chat ends.</title>
<path fill="none" stroke="black" d="M1116,-71.7C1116,-64.41 1116,-55.73 1116,-47.54"/>
<polygon fill="black" stroke="black" points="1119.5,-47.62 1116,-37.62 1112.5,-47.62 1119.5,-47.62"/>
</g>
<!-- j1730473248 -->
<g id="node39" class="node">
<title>j1730473248</title>
<ellipse fill="none" stroke="orange" cx="573" cy="-162" rx="64.19" ry="18"/>
<text text-anchor="middle" x="573" y="-158.3" font-family="Times New Roman,serif" font-size="14.00">+10 Chemistry</text>
</g>
<!-- j4148321659&#45;&gt;j1730473248 -->
<g id="edge46" class="edge">
<title>j4148321659&#45;&gt;j1730473248</title>
<path fill="none" stroke="black" d="M483.72,-215.52C499.84,-206.04 519.87,-194.25 536.88,-184.25"/>
<polygon fill="black" stroke="black" points="538.34,-187.45 545.19,-179.36 534.79,-181.41 538.34,-187.45"/>
</g>
<!-- j257447559&#45;&gt;j1730473248 -->
<g id="edge47" class="edge">
<title>j257447559&#45;&gt;j1730473248</title>
<path fill="none" stroke="black" d="M573,-215.7C573,-208.41 573,-199.73 573,-191.54"/>
<polygon fill="black" stroke="black" points="576.5,-191.62 573,-181.62 569.5,-191.62 576.5,-191.62"/>
</g>
<!-- Chat ends. Next chat will be ArthurSpaghetti. -->
<g id="node40" class="node">
<title>Chat ends. Next chat will be ArthurSpaghetti.</title>
<ellipse fill="none" stroke="orange" cx="830" cy="-90" rx="174.67" ry="18"/>
<text text-anchor="middle" x="830" y="-86.3" font-family="Times New Roman,serif" font-size="14.00">Chat ends. Next chat will be ArthurSpaghetti.</text>
</g>
<!-- j1330447411&#45;&gt;Chat ends. Next chat will be ArthurSpaghetti. -->
<g id="edge48" class="edge">
<title>j1330447411&#45;&gt;Chat ends. Next chat will be ArthurSpaghetti.</title>
<path fill="none" stroke="black" d="M835.27,-143.7C834.54,-136.41 833.67,-127.73 832.85,-119.54"/>
<polygon fill="black" stroke="black" points="836.34,-119.21 831.86,-109.61 829.37,-119.91 836.34,-119.21"/>
</g>
<!-- j3915606319 -->
<g id="node41" class="node">
<title>j3915606319</title>
<polygon fill="none" stroke="blue" points="637.5,-108 508.5,-108 508.5,-72 637.5,-72 637.5,-108"/>
<text text-anchor="middle" x="573" y="-86.3" font-family="Times New Roman,serif" font-size="14.00">You&#39;re in for a treat.</text>
</g>
<!-- j1730473248&#45;&gt;j3915606319 -->
<g id="edge49" class="edge">
<title>j1730473248&#45;&gt;j3915606319</title>
<path fill="none" stroke="black" d="M573,-143.7C573,-136.41 573,-127.73 573,-119.54"/>
<polygon fill="black" stroke="black" points="576.5,-119.62 573,-109.62 569.5,-119.62 576.5,-119.62"/>
</g>
<!-- j3915606319&#45;&gt;Chat ends. -->
<g id="edge50" class="edge">
<title>j3915606319&#45;&gt;Chat ends.</title>
<path fill="none" stroke="black" d="M637.8,-73.5C640.56,-72.97 643.31,-72.46 646,-72 792.33,-46.8 966.43,-30.76 1056.07,-23.51"/>
<polygon fill="black" stroke="black" points="1056.16,-27.01 1065.85,-22.73 1055.6,-20.03 1056.16,-27.01"/>
</g>
</g>
</svg>
