<?xml version="1.0" encoding="UTF-8" standalone="no"?>
<!DOCTYPE svg PUBLIC "-//W3C//DTD SVG 1.1//EN"
 "http://www.w3.org/Graphics/SVG/1.1/DTD/svg11.dtd">
<!-- Generated by graphviz version 7.1.0 (20230121.1956)
 -->
<!-- Pages: 1 -->
<svg width="1666pt" height="1484pt"
 viewBox="0.00 0.00 1665.50 1484.00" xmlns="http://www.w3.org/2000/svg" xmlns:xlink="http://www.w3.org/1999/xlink">
<g id="graph0" class="graph" transform="scale(1 1) rotate(0) translate(4 1480)">
<polygon fill="white" stroke="none" points="-4,4 -4,-1480 1661.5,-1480 1661.5,4 -4,4"/>
<!-- ArthurRank1Convo4 begins. -->
<g id="node1" class="node">
<title>ArthurRank1Convo4 begins.</title>
<ellipse fill="none" stroke="orange" cx="481" cy="-1458" rx="115.08" ry="18"/>
<text text-anchor="middle" x="481" y="-1454.3" font-family="Times New Roman,serif" font-size="14.00">ArthurRank1Convo4 begins.</text>
</g>
<!-- j842313354 -->
<g id="node2" class="node">
<title>j842313354</title>
<polygon fill="none" stroke="blue" points="571,-1404 391,-1404 391,-1368 571,-1368 571,-1404"/>
<text text-anchor="middle" x="481" y="-1382.3" font-family="Times New Roman,serif" font-size="14.00">Wo hast du kämpfen gelernt?</text>
</g>
<!-- ArthurRank1Convo4 begins.&#45;&gt;j842313354 -->
<g id="edge1" class="edge">
<title>ArthurRank1Convo4 begins.&#45;&gt;j842313354</title>
<path fill="none" stroke="black" d="M481,-1439.7C481,-1432.41 481,-1423.73 481,-1415.54"/>
<polygon fill="black" stroke="black" points="484.5,-1415.62 481,-1405.62 477.5,-1415.62 484.5,-1415.62"/>
</g>
<!-- j3423026436 -->
<g id="node3" class="node">
<title>j3423026436</title>
<polygon fill="none" stroke="red" points="915.5,-1332 766.5,-1332 766.5,-1296 915.5,-1296 915.5,-1332"/>
<text text-anchor="middle" x="841" y="-1310.3" font-family="Times New Roman,serif" font-size="14.00">Durch Herumprobieren.</text>
</g>
<!-- j842313354&#45;&gt;j3423026436 -->
<g id="edge2" class="edge">
<title>j842313354&#45;&gt;j3423026436</title>
<path fill="none" stroke="black" d="M570.91,-1367.52C627.22,-1356.57 699.38,-1342.54 754.94,-1331.73"/>
<polygon fill="black" stroke="black" points="755.54,-1335.18 764.69,-1329.84 754.21,-1328.31 755.54,-1335.18"/>
</g>
<!-- j2069357445 -->
<g id="node4" class="node">
<title>j2069357445</title>
<polygon fill="none" stroke="red" points="601,-1332 361,-1332 361,-1296 601,-1296 601,-1332"/>
<text text-anchor="middle" x="481" y="-1310.3" font-family="Times New Roman,serif" font-size="14.00">Durch einen Mentor, mit Namen Teshin.</text>
</g>
<!-- j842313354&#45;&gt;j2069357445 -->
<g id="edge3" class="edge">
<title>j842313354&#45;&gt;j2069357445</title>
<path fill="none" stroke="black" d="M481,-1367.7C481,-1360.41 481,-1351.73 481,-1343.54"/>
<polygon fill="black" stroke="black" points="484.5,-1343.62 481,-1333.62 477.5,-1343.62 484.5,-1343.62"/>
</g>
<!-- j3289360642 -->
<g id="node5" class="node">
<title>j3289360642</title>
<polygon fill="none" stroke="red" points="187,-1260 101,-1260 101,-1224 187,-1224 187,-1260"/>
<text text-anchor="middle" x="144" y="-1238.3" font-family="Times New Roman,serif" font-size="14.00">[Ignorieren.]</text>
</g>
<!-- j842313354&#45;&gt;j3289360642 -->
<g id="edge4" class="edge">
<title>j842313354&#45;&gt;j3289360642</title>
<path fill="none" stroke="black" d="M438.23,-1367.61C413.08,-1357.34 380.69,-1344.03 352,-1332 298.19,-1309.43 236.78,-1283.08 194.72,-1264.94"/>
<polygon fill="black" stroke="black" points="196.15,-1261.75 185.58,-1261 193.37,-1268.18 196.15,-1261.75"/>
</g>
<!-- j331585860 -->
<g id="node6" class="node">
<title>j331585860</title>
<polygon fill="none" stroke="blue" points="1084,-1260 778,-1260 778,-1224 1084,-1224 1084,-1260"/>
<text text-anchor="middle" x="931" y="-1238.3" font-family="Times New Roman,serif" font-size="14.00">Klingt nach einer guten Methode, getötet zu werden.</text>
</g>
<!-- j3423026436&#45;&gt;j331585860 -->
<g id="edge5" class="edge">
<title>j3423026436&#45;&gt;j331585860</title>
<path fill="none" stroke="black" d="M863.25,-1295.7C874.28,-1287.11 887.79,-1276.61 899.84,-1267.24"/>
<polygon fill="black" stroke="black" points="901.76,-1270.18 907.5,-1261.28 897.46,-1264.65 901.76,-1270.18"/>
</g>
<!-- j2661421763 -->
<g id="node7" class="node">
<title>j2661421763</title>
<polygon fill="none" stroke="red" points="703.5,-1188 258.5,-1188 258.5,-1152 703.5,-1152 703.5,-1188"/>
<text text-anchor="middle" x="481" y="-1166.3" font-family="Times New Roman,serif" font-size="14.00">Ein Elite&#45;Daxsoldat – was nichtssagend für dich ist, wie mir *gerade* einfällt.</text>
</g>
<!-- j2069357445&#45;&gt;j2661421763 -->
<g id="edge6" class="edge">
<title>j2069357445&#45;&gt;j2661421763</title>
<path fill="none" stroke="black" d="M481,-1295.59C481,-1271.61 481,-1228.14 481,-1199.42"/>
<polygon fill="black" stroke="black" points="484.5,-1199.62 481,-1189.62 477.5,-1199.62 484.5,-1199.62"/>
</g>
<!-- Chat ends. -->
<g id="node8" class="node">
<title>Chat ends.</title>
<ellipse fill="none" stroke="orange" cx="597" cy="-18" rx="50.09" ry="18"/>
<text text-anchor="middle" x="597" y="-14.3" font-family="Times New Roman,serif" font-size="14.00">Chat ends.</text>
</g>
<!-- j3289360642&#45;&gt;Chat ends. -->
<g id="edge7" class="edge">
<title>j3289360642&#45;&gt;Chat ends.</title>
<path fill="none" stroke="black" d="M105.41,-1223.51C62.76,-1201.22 0,-1158.34 0,-1099 0,-1099 0,-1099 0,-161 0,-51.78 382.95,-26.42 535.43,-20.66"/>
<polygon fill="black" stroke="black" points="535.49,-24.16 545.36,-20.3 535.24,-17.16 535.49,-24.16"/>
</g>
<!-- j1035716995 -->
<g id="node9" class="node">
<title>j1035716995</title>
<polygon fill="none" stroke="red" points="1148.5,-1188 759.5,-1188 759.5,-1152 1148.5,-1152 1148.5,-1188"/>
<text text-anchor="middle" x="954" y="-1166.3" font-family="Times New Roman,serif" font-size="14.00">Ja, wurde ich auch. Oft. Immer und immer wieder ... und wieder ...</text>
</g>
<!-- j331585860&#45;&gt;j1035716995 -->
<g id="edge8" class="edge">
<title>j331585860&#45;&gt;j1035716995</title>
<path fill="none" stroke="black" d="M936.69,-1223.7C939.14,-1216.24 942.07,-1207.32 944.81,-1198.97"/>
<polygon fill="black" stroke="black" points="948.11,-1200.14 947.91,-1189.54 941.46,-1197.95 948.11,-1200.14"/>
</g>
<!-- j3086219051 -->
<g id="node10" class="node">
<title>j3086219051</title>
<polygon fill="none" stroke="red" points="699.5,-1116 262.5,-1116 262.5,-1080 699.5,-1080 699.5,-1116"/>
<text text-anchor="middle" x="481" y="-1094.3" font-family="Times New Roman,serif" font-size="14.00">Ich fasse zusammen: Es bedeutet, dass er die Geduld hat, mich zu ertragen.</text>
</g>
<!-- j2661421763&#45;&gt;j3086219051 -->
<g id="edge9" class="edge">
<title>j2661421763&#45;&gt;j3086219051</title>
<path fill="none" stroke="black" d="M481,-1151.7C481,-1144.41 481,-1135.73 481,-1127.54"/>
<polygon fill="black" stroke="black" points="484.5,-1127.62 481,-1117.62 477.5,-1127.62 484.5,-1127.62"/>
</g>
<!-- j3900007585 -->
<g id="node11" class="node">
<title>j3900007585</title>
<polygon fill="none" stroke="red" points="1047,-1116 951,-1116 951,-1080 1047,-1080 1047,-1116"/>
<text text-anchor="middle" x="999" y="-1094.3" font-family="Times New Roman,serif" font-size="14.00">Und wieder ...</text>
</g>
<!-- j1035716995&#45;&gt;j3900007585 -->
<g id="edge10" class="edge">
<title>j1035716995&#45;&gt;j3900007585</title>
<path fill="none" stroke="black" d="M965.12,-1151.7C970.19,-1143.81 976.3,-1134.3 981.93,-1125.55"/>
<polygon fill="black" stroke="black" points="984.72,-1127.68 987.19,-1117.38 978.83,-1123.9 984.72,-1127.68"/>
</g>
<!-- j1386903963 -->
<g id="node12" class="node">
<title>j1386903963</title>
<polygon fill="none" stroke="blue" points="718,-900 244,-900 244,-864 718,-864 718,-900"/>
<text text-anchor="middle" x="481" y="-878.3" font-family="Times New Roman,serif" font-size="14.00">Heh. Klingt nach einem verdammt guten Lehrer. Den würde ich gern kennenlernen.</text>
</g>
<!-- j3086219051&#45;&gt;j1386903963 -->
<g id="edge11" class="edge">
<title>j3086219051&#45;&gt;j1386903963</title>
<path fill="none" stroke="black" d="M481,-1079.85C481,-1043.14 481,-956.66 481,-911.53"/>
<polygon fill="black" stroke="black" points="484.5,-911.75 481,-901.75 477.5,-911.75 484.5,-911.75"/>
</g>
<!-- j189048536 -->
<g id="node13" class="node">
<title>j189048536</title>
<polygon fill="none" stroke="blue" points="1166,-1044 876,-1044 876,-1008 1166,-1008 1166,-1044"/>
<text text-anchor="middle" x="1021" y="-1022.3" font-family="Times New Roman,serif" font-size="14.00">In Duviri, in der Schleife, von der du erzählt hast.</text>
</g>
<!-- j3900007585&#45;&gt;j189048536 -->
<g id="edge12" class="edge">
<title>j3900007585&#45;&gt;j189048536</title>
<path fill="none" stroke="black" d="M1004.44,-1079.7C1006.78,-1072.24 1009.58,-1063.32 1012.21,-1054.97"/>
<polygon fill="black" stroke="black" points="1015.51,-1056.14 1015.17,-1045.55 1008.83,-1054.04 1015.51,-1056.14"/>
</g>
<!-- j217060140 -->
<g id="node14" class="node">
<title>j217060140</title>
<polygon fill="none" stroke="red" points="774,-828 478,-828 478,-792 774,-792 774,-828"/>
<text text-anchor="middle" x="626" y="-806.3" font-family="Times New Roman,serif" font-size="14.00">Ohne ihn wäre ich nach wie vor verloren in Duviri.</text>
</g>
<!-- j1386903963&#45;&gt;j217060140 -->
<g id="edge13" class="edge">
<title>j1386903963&#45;&gt;j217060140</title>
<path fill="none" stroke="black" d="M517.22,-863.52C536.14,-854.38 559.52,-843.09 579.75,-833.33"/>
<polygon fill="black" stroke="black" points="581.15,-836.54 588.63,-829.04 578.1,-830.24 581.15,-836.54"/>
</g>
<!-- j1936880269 -->
<g id="node15" class="node">
<title>j1936880269</title>
<polygon fill="none" stroke="red" points="437.5,-828 246.5,-828 246.5,-792 437.5,-792 437.5,-828"/>
<text text-anchor="middle" x="342" y="-806.3" font-family="Times New Roman,serif" font-size="14.00">Er gab mir den nötigen Anstoß.</text>
</g>
<!-- j1386903963&#45;&gt;j1936880269 -->
<g id="edge14" class="edge">
<title>j1386903963&#45;&gt;j1936880269</title>
<path fill="none" stroke="black" d="M446.28,-863.52C428.15,-854.39 405.77,-843.11 386.39,-833.35"/>
<polygon fill="black" stroke="black" points="388.13,-830.31 377.63,-828.94 384.98,-836.57 388.13,-830.31"/>
</g>
<!-- j3614480449 -->
<g id="node16" class="node">
<title>j3614480449</title>
<polygon fill="none" stroke="red" points="1204.5,-972 837.5,-972 837.5,-936 1204.5,-936 1204.5,-972"/>
<text text-anchor="middle" x="1021" y="-950.3" font-family="Times New Roman,serif" font-size="14.00">Eigentlich eher eine Spirale. Der Punkt ist, ich habe viel Übung.</text>
</g>
<!-- j189048536&#45;&gt;j3614480449 -->
<g id="edge15" class="edge">
<title>j189048536&#45;&gt;j3614480449</title>
<path fill="none" stroke="black" d="M1021,-1007.7C1021,-1000.41 1021,-991.73 1021,-983.54"/>
<polygon fill="black" stroke="black" points="1024.5,-983.62 1021,-973.62 1017.5,-983.62 1024.5,-983.62"/>
</g>
<!-- j2541666315 -->
<g id="node17" class="node">
<title>j2541666315</title>
<polygon fill="none" stroke="red" points="1657.5,-252 1416.5,-252 1416.5,-216 1657.5,-216 1657.5,-252"/>
<text text-anchor="middle" x="1537" y="-230.3" font-family="Times New Roman,serif" font-size="14.00">Ich will echt nicht darüber reden. [Ende]</text>
</g>
<!-- j189048536&#45;&gt;j2541666315 -->
<g id="edge16" class="edge">
<title>j189048536&#45;&gt;j2541666315</title>
<path fill="none" stroke="black" d="M1166.2,-1018.81C1341.47,-1007.27 1613,-974.62 1613,-883 1613,-883 1613,-883 1613,-377 1613,-332.03 1583.01,-287.52 1560.71,-260.64"/>
<polygon fill="black" stroke="black" points="1563.64,-258.69 1554.48,-253.38 1558.33,-263.25 1563.64,-258.69"/>
</g>
<!-- j1445825531 -->
<g id="node18" class="node">
<title>j1445825531</title>
<polygon fill="none" stroke="blue" points="800,-756 464,-756 464,-720 800,-720 800,-756"/>
<text text-anchor="middle" x="632" y="-734.3" font-family="Times New Roman,serif" font-size="14.00">Hört sich an, als hätte er dir den nötigen Anstoß gegeben.</text>
</g>
<!-- j217060140&#45;&gt;j1445825531 -->
<g id="edge17" class="edge">
<title>j217060140&#45;&gt;j1445825531</title>
<path fill="none" stroke="black" d="M627.48,-791.7C628.11,-784.41 628.85,-775.73 629.55,-767.54"/>
<polygon fill="black" stroke="black" points="633.04,-767.87 630.4,-757.61 626.06,-767.28 633.04,-767.87"/>
</g>
<!-- j2926043539 -->
<g id="node19" class="node">
<title>j2926043539</title>
<polygon fill="none" stroke="blue" points="445.5,-756 194.5,-756 194.5,-720 445.5,-720 445.5,-756"/>
<text text-anchor="middle" x="320" y="-734.3" font-family="Times New Roman,serif" font-size="14.00">Wir alle brauchen manchmal so jemanden.</text>
</g>
<!-- j1936880269&#45;&gt;j2926043539 -->
<g id="edge18" class="edge">
<title>j1936880269&#45;&gt;j2926043539</title>
<path fill="none" stroke="black" d="M336.56,-791.7C334.22,-784.24 331.42,-775.32 328.79,-766.97"/>
<polygon fill="black" stroke="black" points="332.17,-766.04 325.83,-757.55 325.49,-768.14 332.17,-766.04"/>
</g>
<!-- j2185026103 -->
<g id="node20" class="node">
<title>j2185026103</title>
<polygon fill="none" stroke="red" points="1274,-900 768,-900 768,-864 1274,-864 1274,-900"/>
<text text-anchor="middle" x="1021" y="-878.3" font-family="Times New Roman,serif" font-size="14.00">Nichts bringt dir das Kämpfen besser bei, als genau zu wissen, was du vermeiden willst.</text>
</g>
<!-- j3614480449&#45;&gt;j2185026103 -->
<g id="edge19" class="edge">
<title>j3614480449&#45;&gt;j2185026103</title>
<path fill="none" stroke="black" d="M1021,-935.7C1021,-928.41 1021,-919.73 1021,-911.54"/>
<polygon fill="black" stroke="black" points="1024.5,-911.62 1021,-901.62 1017.5,-911.62 1024.5,-911.62"/>
</g>
<!-- j2541666315&#45;&gt;Chat ends. -->
<g id="edge20" class="edge">
<title>j2541666315&#45;&gt;Chat ends.</title>
<path fill="none" stroke="black" d="M1517.92,-215.66C1478.57,-181.09 1384.07,-104.15 1289,-72 1173.15,-32.82 805.89,-22.45 658.8,-19.84"/>
<polygon fill="black" stroke="black" points="658.91,-16.34 648.85,-19.67 658.79,-23.34 658.91,-16.34"/>
</g>
<!-- j350469732 -->
<g id="node21" class="node">
<title>j350469732</title>
<polygon fill="none" stroke="red" points="552.5,-684 101.5,-684 101.5,-648 552.5,-648 552.5,-684"/>
<text text-anchor="middle" x="327" y="-662.3" font-family="Times New Roman,serif" font-size="14.00">Ja. Und er brachte mir bei, wie man kämpft. Wie man Dominus Thrax besiegt.</text>
</g>
<!-- j1445825531&#45;&gt;j350469732 -->
<g id="edge21" class="edge">
<title>j1445825531&#45;&gt;j350469732</title>
<path fill="none" stroke="black" d="M555.82,-719.52C512.8,-709.64 458.86,-697.26 414.15,-687"/>
<polygon fill="black" stroke="black" points="415,-683.61 404.47,-684.78 413.44,-690.43 415,-683.61"/>
</g>
<!-- j2926043539&#45;&gt;j350469732 -->
<g id="edge22" class="edge">
<title>j2926043539&#45;&gt;j350469732</title>
<path fill="none" stroke="black" d="M321.73,-719.7C322.46,-712.41 323.33,-703.73 324.15,-695.54"/>
<polygon fill="black" stroke="black" points="327.63,-695.91 325.14,-685.61 320.66,-695.21 327.63,-695.91"/>
</g>
<!-- j1523657099 -->
<g id="node22" class="node">
<title>j1523657099</title>
<polygon fill="none" stroke="blue" points="1202,-828 840,-828 840,-792 1202,-792 1202,-828"/>
<text text-anchor="middle" x="1021" y="-806.3" font-family="Times New Roman,serif" font-size="14.00">Sol. Ich verstehe dieses Gefühl, obwohl ich nie gestorben bin.</text>
</g>
<!-- j2185026103&#45;&gt;j1523657099 -->
<g id="edge23" class="edge">
<title>j2185026103&#45;&gt;j1523657099</title>
<path fill="none" stroke="black" d="M1021,-863.7C1021,-856.41 1021,-847.73 1021,-839.54"/>
<polygon fill="black" stroke="black" points="1024.5,-839.62 1021,-829.62 1017.5,-839.62 1024.5,-839.62"/>
</g>
<!-- j2034263001 -->
<g id="node23" class="node">
<title>j2034263001</title>
<polygon fill="none" stroke="blue" points="484,-612 170,-612 170,-576 484,-576 484,-612"/>
<text text-anchor="middle" x="327" y="-590.3" font-family="Times New Roman,serif" font-size="14.00">Thrax war ... eine Figur aus einer Geschichte, richtig?</text>
</g>
<!-- j350469732&#45;&gt;j2034263001 -->
<g id="edge24" class="edge">
<title>j350469732&#45;&gt;j2034263001</title>
<path fill="none" stroke="black" d="M327,-647.7C327,-640.41 327,-631.73 327,-623.54"/>
<polygon fill="black" stroke="black" points="330.5,-623.62 327,-613.62 323.5,-623.62 330.5,-623.62"/>
</g>
<!-- j2446198253 -->
<g id="node24" class="node">
<title>j2446198253</title>
<polygon fill="none" stroke="red" points="1131,-756 859,-756 859,-720 1131,-720 1131,-756"/>
<text text-anchor="middle" x="995" y="-734.3" font-family="Times New Roman,serif" font-size="14.00">Ich ... also ... du bist. Erinnerst du dich nicht?</text>
</g>
<!-- j1523657099&#45;&gt;j2446198253 -->
<g id="edge25" class="edge">
<title>j1523657099&#45;&gt;j2446198253</title>
<path fill="none" stroke="black" d="M1014.57,-791.7C1011.77,-784.15 1008.42,-775.12 1005.28,-766.68"/>
<polygon fill="black" stroke="black" points="1008.64,-765.68 1001.88,-757.52 1002.08,-768.12 1008.64,-765.68"/>
</g>
<!-- j932347125 -->
<g id="node25" class="node">
<title>j932347125</title>
<polygon fill="none" stroke="red" points="1584.5,-756 1149.5,-756 1149.5,-720 1584.5,-720 1584.5,-756"/>
<text text-anchor="middle" x="1367" y="-734.3" font-family="Times New Roman,serif" font-size="14.00">Das ist nicht unbedingt etwas, womit sich Leute auseinandersetzen müssen.</text>
</g>
<!-- j1523657099&#45;&gt;j932347125 -->
<g id="edge26" class="edge">
<title>j1523657099&#45;&gt;j932347125</title>
<path fill="none" stroke="black" d="M1107.42,-791.52C1156.74,-781.54 1218.72,-769 1269.74,-758.68"/>
<polygon fill="black" stroke="black" points="1270.19,-762.16 1279.3,-756.74 1268.81,-755.3 1270.19,-762.16"/>
</g>
<!-- j2697223795 -->
<g id="node26" class="node">
<title>j2697223795</title>
<polygon fill="none" stroke="red" points="773.5,-540 28.5,-540 28.5,-504 773.5,-504 773.5,-540"/>
<text text-anchor="middle" x="401" y="-518.3" font-family="Times New Roman,serif" font-size="14.00">Die ich versehentlich in einen tyrannischen Despoten verwandelte, die mich jahrhundertelang auf kreative Weise hinrichten ließ? Jep.</text>
</g>
<!-- j2034263001&#45;&gt;j2697223795 -->
<g id="edge27" class="edge">
<title>j2034263001&#45;&gt;j2697223795</title>
<path fill="none" stroke="black" d="M345.29,-575.7C354.1,-567.37 364.82,-557.22 374.5,-548.07"/>
<polygon fill="black" stroke="black" points="376.7,-550.8 381.56,-541.39 371.89,-545.72 376.7,-550.8"/>
</g>
<!-- j2414703827 -->
<g id="node27" class="node">
<title>j2414703827</title>
<polygon fill="none" stroke="blue" points="1207.5,-684 782.5,-684 782.5,-648 1207.5,-648 1207.5,-684"/>
<text text-anchor="middle" x="995" y="-662.3" font-family="Times New Roman,serif" font-size="14.00">Ich erinnere mich nicht ... ist verschwommen. Und ich bin dankbar dafür.</text>
</g>
<!-- j2446198253&#45;&gt;j2414703827 -->
<g id="edge28" class="edge">
<title>j2446198253&#45;&gt;j2414703827</title>
<path fill="none" stroke="black" d="M995,-719.7C995,-712.41 995,-703.73 995,-695.54"/>
<polygon fill="black" stroke="black" points="998.5,-695.62 995,-685.62 991.5,-695.62 998.5,-695.62"/>
</g>
<!-- j2986508210 -->
<g id="node28" class="node">
<title>j2986508210</title>
<polygon fill="none" stroke="red" points="1577,-684 1235,-684 1235,-648 1577,-648 1577,-684"/>
<text text-anchor="middle" x="1406" y="-662.3" font-family="Times New Roman,serif" font-size="14.00">Ich bin so oft gestorben, dass es mir irgendwann egal war.</text>
</g>
<!-- j932347125&#45;&gt;j2986508210 -->
<g id="edge29" class="edge">
<title>j932347125&#45;&gt;j2986508210</title>
<path fill="none" stroke="black" d="M1376.64,-719.7C1380.94,-711.98 1386.1,-702.71 1390.89,-694.11"/>
<polygon fill="black" stroke="black" points="1393.92,-695.87 1395.73,-685.43 1387.81,-692.46 1393.92,-695.87"/>
</g>
<!-- j3245244456 -->
<g id="node29" class="node">
<title>j3245244456</title>
<polygon fill="none" stroke="blue" points="846.5,-468 739.5,-468 739.5,-432 846.5,-432 846.5,-468"/>
<text text-anchor="middle" x="793" y="-446.3" font-family="Times New Roman,serif" font-size="14.00">Aber ... warum?</text>
</g>
<!-- j2697223795&#45;&gt;j3245244456 -->
<g id="edge30" class="edge">
<title>j2697223795&#45;&gt;j3245244456</title>
<path fill="none" stroke="black" d="M498.91,-503.52C570.42,-490.75 665.42,-473.78 727.83,-462.64"/>
<polygon fill="black" stroke="black" points="728.38,-466.1 737.61,-460.89 727.15,-459.2 728.38,-466.1"/>
</g>
<!-- j889619154 -->
<g id="node30" class="node">
<title>j889619154</title>
<polygon fill="none" stroke="red" points="876,-612 502,-612 502,-576 876,-576 876,-612"/>
<text text-anchor="middle" x="689" y="-590.3" font-family="Times New Roman,serif" font-size="14.00">Ja. Denn wenn du es tust, endest du vielleicht wie *ich*. [Ende.]</text>
</g>
<!-- j2414703827&#45;&gt;j889619154 -->
<g id="edge31" class="edge">
<title>j2414703827&#45;&gt;j889619154</title>
<path fill="none" stroke="black" d="M918.57,-647.52C875.41,-637.64 821.29,-625.26 776.44,-615"/>
<polygon fill="black" stroke="black" points="777.25,-611.6 766.72,-612.78 775.69,-618.42 777.25,-611.6"/>
</g>
<!-- j1899652901 -->
<g id="node31" class="node">
<title>j1899652901</title>
<polygon fill="none" stroke="red" points="1533.5,-612 894.5,-612 894.5,-576 1533.5,-576 1533.5,-612"/>
<text text-anchor="middle" x="1214" y="-590.3" font-family="Times New Roman,serif" font-size="14.00">Ehrlich? Du hast Glück, dass du dich nicht erinnerst. Ich bin so oft gestorben, dass es mir irgendwann egal war.</text>
</g>
<!-- j2414703827&#45;&gt;j1899652901 -->
<g id="edge32" class="edge">
<title>j2414703827&#45;&gt;j1899652901</title>
<path fill="none" stroke="black" d="M1049.7,-647.52C1079.73,-637.92 1117.17,-625.95 1148.73,-615.86"/>
<polygon fill="black" stroke="black" points="1149.72,-619.22 1158.18,-612.84 1147.59,-612.55 1149.72,-619.22"/>
</g>
<!-- j3236174413 -->
<g id="node32" class="node">
<title>j3236174413</title>
<ellipse fill="none" stroke="orange" cx="1214" cy="-522" rx="64.19" ry="18"/>
<text text-anchor="middle" x="1214" y="-518.3" font-family="Times New Roman,serif" font-size="14.00">+10 Chemistry</text>
</g>
<!-- j2986508210&#45;&gt;j3236174413 -->
<g id="edge33" class="edge">
<title>j2986508210&#45;&gt;j3236174413</title>
<path fill="none" stroke="black" d="M1496.28,-647.56C1514.64,-639.74 1531.75,-628.41 1543,-612 1552.05,-598.8 1553.38,-588.18 1543,-576 1511.09,-538.54 1376.32,-527.46 1289.47,-524.24"/>
<polygon fill="black" stroke="black" points="1289.7,-520.75 1279.59,-523.91 1289.47,-527.75 1289.7,-520.75"/>
</g>
<!-- j1146460230 -->
<g id="node33" class="node">
<title>j1146460230</title>
<polygon fill="none" stroke="red" points="959,-396 627,-396 627,-360 959,-360 959,-396"/>
<text text-anchor="middle" x="793" y="-374.3" font-family="Times New Roman,serif" font-size="14.00">Was würdest du denken, wenn ich dir diese Frage stelle?</text>
</g>
<!-- j3245244456&#45;&gt;j1146460230 -->
<g id="edge34" class="edge">
<title>j3245244456&#45;&gt;j1146460230</title>
<path fill="none" stroke="black" d="M793,-431.7C793,-424.41 793,-415.73 793,-407.54"/>
<polygon fill="black" stroke="black" points="796.5,-407.62 793,-397.62 789.5,-407.62 796.5,-407.62"/>
</g>
<!-- j1216566898 -->
<g id="node34" class="node">
<title>j1216566898</title>
<polygon fill="none" stroke="red" points="608.5,-396 369.5,-396 369.5,-360 608.5,-360 608.5,-396"/>
<text text-anchor="middle" x="489" y="-374.3" font-family="Times New Roman,serif" font-size="14.00">Willst du freiwillig mein Therapeut sein?</text>
</g>
<!-- j3245244456&#45;&gt;j1216566898 -->
<g id="edge35" class="edge">
<title>j3245244456&#45;&gt;j1216566898</title>
<path fill="none" stroke="black" d="M739,-436.57C693.76,-426.15 628.33,-411.08 575.76,-398.98"/>
<polygon fill="black" stroke="black" points="576.75,-395.61 566.22,-396.78 575.18,-402.44 576.75,-395.61"/>
</g>
<!-- j4180319865 -->
<g id="node35" class="node">
<title>j4180319865</title>
<polygon fill="none" stroke="red" points="1372.5,-396 977.5,-396 977.5,-360 1372.5,-360 1372.5,-396"/>
<text text-anchor="middle" x="1175" y="-374.3" font-family="Times New Roman,serif" font-size="14.00">Allein im Void gefangen zu sein, macht komische Sachen mit einem.</text>
</g>
<!-- j3245244456&#45;&gt;j4180319865 -->
<g id="edge36" class="edge">
<title>j3245244456&#45;&gt;j4180319865</title>
<path fill="none" stroke="black" d="M846.92,-439.12C904.34,-428.6 996.68,-411.68 1068.79,-398.46"/>
<polygon fill="black" stroke="black" points="1069.03,-401.98 1078.24,-396.73 1067.77,-395.09 1069.03,-401.98"/>
</g>
<!-- j934379638 -->
<g id="node36" class="node">
<title>j934379638</title>
<polygon fill="none" stroke="red" points="1585,-396 1391,-396 1391,-360 1585,-360 1585,-396"/>
<text text-anchor="middle" x="1488" y="-374.3" font-family="Times New Roman,serif" font-size="14.00">Ich kann das jetzt nicht. [Ende.]</text>
</g>
<!-- j3245244456&#45;&gt;j934379638 -->
<g id="edge37" class="edge">
<title>j3245244456&#45;&gt;j934379638</title>
<path fill="none" stroke="black" d="M846.73,-445.42C948.58,-438.35 1176.93,-421.22 1379.55,-396.26"/>
<polygon fill="black" stroke="black" points="1379.71,-399.76 1389.21,-395.06 1378.85,-392.82 1379.71,-399.76"/>
</g>
<!-- j2740544019 -->
<g id="node37" class="node">
<title>j2740544019</title>
<polygon fill="none" stroke="blue" points="583.5,-468 376.5,-468 376.5,-432 583.5,-432 583.5,-468"/>
<text text-anchor="middle" x="480" y="-446.3" font-family="Times New Roman,serif" font-size="14.00">Das meinte ich – was auch immer.</text>
</g>
<!-- j889619154&#45;&gt;j2740544019 -->
<g id="edge38" class="edge">
<title>j889619154&#45;&gt;j2740544019</title>
<path fill="none" stroke="black" d="M741.14,-575.72C757.47,-567.57 773.64,-556.01 783,-540 791.07,-526.18 793.29,-516.25 783,-504 758.94,-475.37 670.51,-462.2 595.35,-456.15"/>
<polygon fill="black" stroke="black" points="595.64,-452.66 585.4,-455.39 595.1,-459.64 595.64,-452.66"/>
</g>
<!-- j1899652901&#45;&gt;j3236174413 -->
<g id="edge39" class="edge">
<title>j1899652901&#45;&gt;j3236174413</title>
<path fill="none" stroke="black" d="M1214,-575.7C1214,-568.41 1214,-559.73 1214,-551.54"/>
<polygon fill="black" stroke="black" points="1217.5,-551.62 1214,-541.62 1210.5,-551.62 1217.5,-551.62"/>
</g>
<!-- j1725572481 -->
<g id="node38" class="node">
<title>j1725572481</title>
<polygon fill="none" stroke="blue" points="1255.5,-468 1094.5,-468 1094.5,-432 1255.5,-432 1255.5,-468"/>
<text text-anchor="middle" x="1175" y="-446.3" font-family="Times New Roman,serif" font-size="14.00">Wie kann es dir egal sein?</text>
</g>
<!-- j3236174413&#45;&gt;j1725572481 -->
<g id="edge40" class="edge">
<title>j3236174413&#45;&gt;j1725572481</title>
<path fill="none" stroke="black" d="M1204.56,-504.05C1200.22,-496.26 1194.96,-486.82 1190.09,-478.08"/>
<polygon fill="black" stroke="black" points="1193.29,-476.63 1185.36,-469.6 1187.17,-480.04 1193.29,-476.63"/>
</g>
<!-- j2492399867 -->
<g id="node39" class="node">
<title>j2492399867</title>
<ellipse fill="none" stroke="orange" cx="793" cy="-306" rx="64.19" ry="18"/>
<text text-anchor="middle" x="793" y="-302.3" font-family="Times New Roman,serif" font-size="14.00">+10 Chemistry</text>
</g>
<!-- j1146460230&#45;&gt;j2492399867 -->
<g id="edge41" class="edge">
<title>j1146460230&#45;&gt;j2492399867</title>
<path fill="none" stroke="black" d="M793,-359.7C793,-352.41 793,-343.73 793,-335.54"/>
<polygon fill="black" stroke="black" points="796.5,-335.62 793,-325.62 789.5,-335.62 796.5,-335.62"/>
</g>
<!-- j4273343180 -->
<g id="node40" class="node">
<title>j4273343180</title>
<polygon fill="none" stroke="blue" points="532,-324 452,-324 452,-288 532,-288 532,-324"/>
<text text-anchor="middle" x="492" y="-302.3" font-family="Times New Roman,serif" font-size="14.00">Passe total.</text>
</g>
<!-- j1216566898&#45;&gt;j4273343180 -->
<g id="edge42" class="edge">
<title>j1216566898&#45;&gt;j4273343180</title>
<path fill="none" stroke="black" d="M489.74,-359.7C490.05,-352.41 490.43,-343.73 490.78,-335.54"/>
<polygon fill="black" stroke="black" points="494.27,-335.76 491.2,-325.62 487.28,-335.46 494.27,-335.76"/>
</g>
<!-- j4180319865&#45;&gt;j2492399867 -->
<g id="edge43" class="edge">
<title>j4180319865&#45;&gt;j2492399867</title>
<path fill="none" stroke="black" d="M1079.59,-359.52C1010,-346.76 917.6,-329.83 856.78,-318.69"/>
<polygon fill="black" stroke="black" points="857.75,-315.31 847.29,-316.95 856.49,-322.19 857.75,-315.31"/>
</g>
<!-- j934379638&#45;&gt;Chat ends. -->
<g id="edge44" class="edge">
<title>j934379638&#45;&gt;Chat ends.</title>
<path fill="none" stroke="black" d="M1412.3,-359.56C1351.08,-340.44 1275,-303 1275,-235 1275,-235 1275,-235 1275,-161 1275,-35.65 825.43,-20.29 658.46,-18.9"/>
<polygon fill="black" stroke="black" points="658.94,-15.41 648.92,-18.84 658.9,-22.41 658.94,-15.41"/>
</g>
<!-- j2740544019&#45;&gt;Chat ends. -->
<g id="edge45" class="edge">
<title>j2740544019&#45;&gt;Chat ends.</title>
<path fill="none" stroke="black" d="M411.32,-431.5C392.22,-423.55 373.15,-412.17 360,-396 334.49,-364.62 341,-347.45 341,-307 341,-307 341,-307 341,-161 341,-71.45 462.28,-37.9 537.89,-25.69"/>
<polygon fill="black" stroke="black" points="538.29,-29.16 547.65,-24.2 537.24,-22.24 538.29,-29.16"/>
</g>
<!-- j1725572481&#45;&gt;j1146460230 -->
<g id="edge46" class="edge">
<title>j1725572481&#45;&gt;j1146460230</title>
<path fill="none" stroke="black" d="M1094.45,-434.24C1037.67,-423.83 961.03,-409.79 899.25,-398.47"/>
<polygon fill="black" stroke="black" points="900.24,-395.09 889.77,-396.73 898.98,-401.98 900.24,-395.09"/>
</g>
<!-- j1725572481&#45;&gt;j1216566898 -->
<g id="edge47" class="edge">
<title>j1725572481&#45;&gt;j1216566898</title>
<path fill="none" stroke="black" d="M1094.19,-442.23C988.02,-433.14 795.45,-415.93 620.06,-396.21"/>
<polygon fill="black" stroke="black" points="620.64,-392.75 610.31,-395.11 619.85,-399.71 620.64,-392.75"/>
</g>
<!-- j1725572481&#45;&gt;j4180319865 -->
<g id="edge48" class="edge">
<title>j1725572481&#45;&gt;j4180319865</title>
<path fill="none" stroke="black" d="M1175,-431.7C1175,-424.41 1175,-415.73 1175,-407.54"/>
<polygon fill="black" stroke="black" points="1178.5,-407.62 1175,-397.62 1171.5,-407.62 1178.5,-407.62"/>
</g>
<!-- j1725572481&#45;&gt;j934379638 -->
<g id="edge49" class="edge">
<title>j1725572481&#45;&gt;j934379638</title>
<path fill="none" stroke="black" d="M1253.18,-431.52C1297.42,-421.62 1352.92,-409.21 1398.85,-398.94"/>
<polygon fill="black" stroke="black" points="1399.54,-402.37 1408.53,-396.77 1398.01,-395.54 1399.54,-402.37"/>
</g>
<!-- j2327681623 -->
<g id="node41" class="node">
<title>j2327681623</title>
<polygon fill="none" stroke="blue" points="1055,-252 527,-252 527,-216 1055,-216 1055,-252"/>
<text text-anchor="middle" x="791" y="-230.3" font-family="Times New Roman,serif" font-size="14.00">Verstehe. Wie wär&#39;s, wenn wir darauf zurückkommen, sollten wir an diesen Punkt gelangen?</text>
</g>
<!-- j2492399867&#45;&gt;j2327681623 -->
<g id="edge50" class="edge">
<title>j2492399867&#45;&gt;j2327681623</title>
<path fill="none" stroke="black" d="M792.51,-287.7C792.3,-280.41 792.05,-271.73 791.82,-263.54"/>
<polygon fill="black" stroke="black" points="795.32,-263.51 791.53,-253.62 788.32,-263.71 795.32,-263.51"/>
</g>
<!-- j4273343180&#45;&gt;Chat ends. -->
<g id="edge51" class="edge">
<title>j4273343180&#45;&gt;Chat ends.</title>
<path fill="none" stroke="black" d="M492.9,-287.52C495.61,-247.16 506.21,-145.37 546,-72 551.8,-61.31 560.34,-51.24 568.79,-42.8"/>
<polygon fill="black" stroke="black" points="571.13,-45.4 575.99,-35.99 566.32,-40.32 571.13,-45.4"/>
</g>
<!-- j1370043345 -->
<g id="node42" class="node">
<title>j1370043345</title>
<polygon fill="none" stroke="red" points="833,-180 749,-180 749,-144 833,-144 833,-180"/>
<text text-anchor="middle" x="791" y="-158.3" font-family="Times New Roman,serif" font-size="14.00">Abgemacht.</text>
</g>
<!-- j2327681623&#45;&gt;j1370043345 -->
<g id="edge52" class="edge">
<title>j2327681623&#45;&gt;j1370043345</title>
<path fill="none" stroke="black" d="M791,-215.7C791,-208.41 791,-199.73 791,-191.54"/>
<polygon fill="black" stroke="black" points="794.5,-191.62 791,-181.62 787.5,-191.62 794.5,-191.62"/>
</g>
<!-- j629752159 -->
<g id="node43" class="node">
<title>j629752159</title>
<polygon fill="none" stroke="red" points="677,-180 623,-180 623,-144 677,-144 677,-180"/>
<text text-anchor="middle" x="650" y="-158.3" font-family="Times New Roman,serif" font-size="14.00">Passe.</text>
</g>
<!-- j2327681623&#45;&gt;j629752159 -->
<g id="edge53" class="edge">
<title>j2327681623&#45;&gt;j629752159</title>
<path fill="none" stroke="black" d="M755.78,-215.52C734.99,-205.19 708.68,-192.13 687.5,-181.62"/>
<polygon fill="black" stroke="black" points="689.12,-178.51 678.61,-177.2 686.01,-184.78 689.12,-178.51"/>
</g>
<!-- j325721217 -->
<g id="node44" class="node">
<title>j325721217</title>
<ellipse fill="none" stroke="orange" cx="791" cy="-90" rx="133.48" ry="18"/>
<text text-anchor="middle" x="791" y="-86.3" font-family="Times New Roman,serif" font-size="14.00">Boolean ArthurDuviri is now true.</text>
</g>
<!-- j1370043345&#45;&gt;j325721217 -->
<g id="edge54" class="edge">
<title>j1370043345&#45;&gt;j325721217</title>
<path fill="none" stroke="black" d="M791,-143.7C791,-136.41 791,-127.73 791,-119.54"/>
<polygon fill="black" stroke="black" points="794.5,-119.62 791,-109.62 787.5,-119.62 794.5,-119.62"/>
</g>
<!-- j2189994113 -->
<g id="node45" class="node">
<title>j2189994113</title>
<polygon fill="none" stroke="blue" points="639.5,-108 554.5,-108 554.5,-72 639.5,-72 639.5,-108"/>
<text text-anchor="middle" x="597" y="-86.3" font-family="Times New Roman,serif" font-size="14.00">In Ordnung.</text>
</g>
<!-- j629752159&#45;&gt;j2189994113 -->
<g id="edge55" class="edge">
<title>j629752159&#45;&gt;j2189994113</title>
<path fill="none" stroke="black" d="M636.9,-143.7C630.87,-135.73 623.58,-126.1 616.89,-117.26"/>
<polygon fill="black" stroke="black" points="619.69,-115.17 610.86,-109.31 614.11,-119.4 619.69,-115.17"/>
</g>
<!-- j325721217&#45;&gt;Chat ends. -->
<g id="edge56" class="edge">
<title>j325721217&#45;&gt;Chat ends.</title>
<path fill="none" stroke="black" d="M746,-72.76C714.77,-61.49 673.31,-46.53 642.06,-35.26"/>
<polygon fill="black" stroke="black" points="643.48,-32.05 632.88,-31.95 641.1,-38.63 643.48,-32.05"/>
</g>
<!-- j2189994113&#45;&gt;Chat ends. -->
<g id="edge57" class="edge">
<title>j2189994113&#45;&gt;Chat ends.</title>
<path fill="none" stroke="black" d="M597,-71.7C597,-64.41 597,-55.73 597,-47.54"/>
<polygon fill="black" stroke="black" points="600.5,-47.62 597,-37.62 593.5,-47.62 600.5,-47.62"/>
</g>
</g>
</svg>
