<?xml version="1.0" encoding="UTF-8" standalone="no"?>
<!DOCTYPE svg PUBLIC "-//W3C//DTD SVG 1.1//EN"
 "http://www.w3.org/Graphics/SVG/1.1/DTD/svg11.dtd">
<!-- Generated by graphviz version 7.1.0 (20230121.1956)
 -->
<!-- Pages: 1 -->
<svg width="1437pt" height="816pt"
 viewBox="0.00 0.00 1436.57 816.00" xmlns="http://www.w3.org/2000/svg" xmlns:xlink="http://www.w3.org/1999/xlink">
<g id="graph0" class="graph" transform="scale(1 1) rotate(0) translate(4 812)">
<polygon fill="white" stroke="none" points="-4,4 -4,-812 1432.57,-812 1432.57,4 -4,4"/>
<!-- RoatheStory13 begins. -->
<g id="node1" class="node">
<title>RoatheStory13 begins.</title>
<ellipse fill="none" stroke="orange" cx="714.29" cy="-790" rx="93.68" ry="18"/>
<text text-anchor="middle" x="714.29" y="-786.3" font-family="Times New Roman,serif" font-size="14.00">RoatheStory13 begins.</text>
</g>
<!-- j4087490480 -->
<g id="node2" class="node">
<title>j4087490480</title>
<ellipse fill="none" stroke="orange" cx="714.29" cy="-717" rx="714.07" ry="18"/>
<text text-anchor="middle" x="714.29" y="-713.3" font-family="Times New Roman,serif" font-size="14.00">Check /Lotus/Scripts/1999/DialogueScriptNodes.lua:StoryConditions(dialogueType=/Lotus/Types/Gameplay/1999Wf/Dialogue/RoatheDialogue_rom.dialogue, rank=3, count=7, storyCount=13)</text>
</g>
<!-- RoatheStory13 begins.&#45;&gt;j4087490480 -->
<g id="edge1" class="edge">
<title>RoatheStory13 begins.&#45;&gt;j4087490480</title>
<path fill="none" stroke="black" d="M714.29,-771.81C714.29,-764.23 714.29,-755.1 714.29,-746.54"/>
<polygon fill="black" stroke="black" points="717.79,-746.54 714.29,-736.54 710.79,-746.54 717.79,-746.54"/>
</g>
<!-- j1041466345 -->
<g id="node3" class="node">
<title>j1041466345</title>
<ellipse fill="none" stroke="orange" cx="578.29" cy="-630" rx="183.07" ry="18"/>
<text text-anchor="middle" x="578.29" y="-626.3" font-family="Times New Roman,serif" font-size="14.00">Evaluate expressions on HellKeyPlayed counter</text>
</g>
<!-- j4087490480&#45;&gt;j1041466345 -->
<g id="edge2" class="edge">
<title>j4087490480&#45;&gt;j1041466345</title>
<path fill="none" stroke="green" d="M686.44,-698.59C665.86,-685.73 637.64,-668.09 615.18,-654.06"/>
<polygon fill="green" stroke="green" points="617.25,-651.23 606.92,-648.89 613.54,-657.16 617.25,-651.23"/>
<text text-anchor="middle" x="665.29" y="-669.8" font-family="Times New Roman,serif" font-size="14.00">true</text>
</g>
<!-- Chat ends. -->
<g id="node4" class="node">
<title>Chat ends.</title>
<ellipse fill="none" stroke="orange" cx="578.29" cy="-18" rx="50.09" ry="18"/>
<text text-anchor="middle" x="578.29" y="-14.3" font-family="Times New Roman,serif" font-size="14.00">Chat ends.</text>
</g>
<!-- j4087490480&#45;&gt;Chat ends. -->
<g id="edge3" class="edge">
<title>j4087490480&#45;&gt;Chat ends.</title>
<path fill="none" stroke="brown" d="M786.27,-698.74C818.89,-686.21 850.29,-665.25 850.29,-631 850.29,-631 850.29,-631 850.29,-90 850.29,-46.62 719.14,-29.25 638.98,-22.69"/>
<polygon fill="brown" stroke="brown" points="639.29,-19.2 629.05,-21.91 638.75,-26.18 639.29,-19.2"/>
<text text-anchor="middle" x="863.29" y="-349.8" font-family="Times New Roman,serif" font-size="14.00">false</text>
</g>
<!-- j1041466345&#45;&gt;Chat ends. -->
<g id="edge5" class="edge">
<title>j1041466345&#45;&gt;Chat ends.</title>
<path fill="none" stroke="purple" d="M460.32,-615.85C380.78,-603.58 290.29,-581.4 290.29,-544 290.29,-544 290.29,-544 290.29,-90 290.29,-43.66 432.63,-27.38 517.18,-21.8"/>
<polygon fill="purple" stroke="purple" points="517.18,-25.31 526.94,-21.2 516.74,-18.33 517.18,-25.31"/>
<text text-anchor="middle" x="303.29" y="-306.3" font-family="Times New Roman,serif" font-size="14.00">false</text>
</g>
<!-- j3459603397 -->
<g id="node5" class="node">
<title>j3459603397</title>
<polygon fill="none" stroke="blue" points="641.79,-561 514.79,-561 514.79,-525 641.79,-525 641.79,-561"/>
<text text-anchor="middle" x="578.29" y="-539.3" font-family="Times New Roman,serif" font-size="14.00">語音訊息：損傷</text>
</g>
<!-- j1041466345&#45;&gt;j3459603397 -->
<g id="edge4" class="edge">
<title>j1041466345&#45;&gt;j3459603397</title>
<path fill="none" stroke="purple" d="M578.29,-611.8C578.29,-600.58 578.29,-585.67 578.29,-572.69"/>
<polygon fill="purple" stroke="purple" points="581.79,-572.98 578.29,-562.98 574.79,-572.98 581.79,-572.98"/>
<text text-anchor="middle" x="600.79" y="-582.8" font-family="Times New Roman,serif" font-size="14.00">x &gt;= 13</text>
</g>
<!-- j3801826165 -->
<g id="node6" class="node">
<title>j3801826165</title>
<polygon fill="none" stroke="blue" points="688.79,-488 467.79,-488 467.79,-452 688.79,-452 688.79,-488"/>
<text text-anchor="middle" x="578.29" y="-466.3" font-family="Times New Roman,serif" font-size="14.00">文字記錄：損失慘重得荒謬。</text>
</g>
<!-- j3459603397&#45;&gt;j3801826165 -->
<g id="edge6" class="edge">
<title>j3459603397&#45;&gt;j3801826165</title>
<path fill="none" stroke="black" d="M578.29,-524.81C578.29,-517.23 578.29,-508.1 578.29,-499.54"/>
<polygon fill="black" stroke="black" points="581.79,-499.54 578.29,-489.54 574.79,-499.54 581.79,-499.54"/>
</g>
<!-- j3250300752 -->
<g id="node7" class="node">
<title>j3250300752</title>
<polygon fill="none" stroke="blue" points="799.29,-415 357.29,-415 357.29,-379 799.29,-379 799.29,-415"/>
<text text-anchor="middle" x="578.29" y="-393.3" font-family="Times New Roman,serif" font-size="14.00">許多人直接拒絕接受數據，將其視為錯誤、謊言或中樞陰謀。</text>
</g>
<!-- j3801826165&#45;&gt;j3250300752 -->
<g id="edge7" class="edge">
<title>j3801826165&#45;&gt;j3250300752</title>
<path fill="none" stroke="black" d="M578.29,-451.81C578.29,-444.23 578.29,-435.1 578.29,-426.54"/>
<polygon fill="black" stroke="black" points="581.79,-426.54 578.29,-416.54 574.79,-426.54 581.79,-426.54"/>
</g>
<!-- j3911521703 -->
<g id="node8" class="node">
<title>j3911521703</title>
<polygon fill="none" stroke="blue" points="822.29,-328 334.29,-328 334.29,-292 822.29,-292 822.29,-328"/>
<text text-anchor="middle" x="578.29" y="-306.3" font-family="Times New Roman,serif" font-size="14.00">他們從小被灌輸 Orokin 的詭計，如今要他們拒絕真相實在太容易了。</text>
</g>
<!-- j3250300752&#45;&gt;j3911521703 -->
<g id="edge8" class="edge">
<title>j3250300752&#45;&gt;j3911521703</title>
<path fill="none" stroke="black" d="M578.29,-378.8C578.29,-367.58 578.29,-352.67 578.29,-339.69"/>
<polygon fill="black" stroke="black" points="581.79,-339.98 578.29,-329.98 574.79,-339.98 581.79,-339.98"/>
</g>
<!-- j1871068569 -->
<g id="node9" class="node">
<title>j1871068569</title>
<polygon fill="none" stroke="blue" points="767.79,-255 388.79,-255 388.79,-219 767.79,-219 767.79,-255"/>
<text text-anchor="middle" x="578.29" y="-233.3" font-family="Times New Roman,serif" font-size="14.00">從那刻起，他們活在為自己舒適而編造的幻想之中。</text>
</g>
<!-- j3911521703&#45;&gt;j1871068569 -->
<g id="edge9" class="edge">
<title>j3911521703&#45;&gt;j1871068569</title>
<path fill="none" stroke="black" d="M578.29,-291.81C578.29,-284.23 578.29,-275.1 578.29,-266.54"/>
<polygon fill="black" stroke="black" points="581.79,-266.54 578.29,-256.54 574.79,-266.54 581.79,-266.54"/>
</g>
<!-- j4284253009 -->
<g id="node10" class="node">
<title>j4284253009</title>
<polygon fill="none" stroke="blue" points="775.79,-182 380.79,-182 380.79,-146 775.79,-146 775.79,-182"/>
<text text-anchor="middle" x="578.29" y="-160.3" font-family="Times New Roman,serif" font-size="14.00">我們正在贏，Sentient 正在撤退，所有異議者皆為叛徒。</text>
</g>
<!-- j1871068569&#45;&gt;j4284253009 -->
<g id="edge10" class="edge">
<title>j1871068569&#45;&gt;j4284253009</title>
<path fill="none" stroke="black" d="M578.29,-218.81C578.29,-211.23 578.29,-202.1 578.29,-193.54"/>
<polygon fill="black" stroke="black" points="581.79,-193.54 578.29,-183.54 574.79,-193.54 581.79,-193.54"/>
</g>
<!-- j921430358 -->
<g id="node11" class="node">
<title>j921430358</title>
<ellipse fill="none" stroke="orange" cx="578.29" cy="-91" rx="109.68" ry="18"/>
<text text-anchor="middle" x="578.29" y="-87.3" font-family="Times New Roman,serif" font-size="14.00">Add 1 to HellStory counter</text>
</g>
<!-- j4284253009&#45;&gt;j921430358 -->
<g id="edge11" class="edge">
<title>j4284253009&#45;&gt;j921430358</title>
<path fill="none" stroke="black" d="M578.29,-145.81C578.29,-138.23 578.29,-129.1 578.29,-120.54"/>
<polygon fill="black" stroke="black" points="581.79,-120.54 578.29,-110.54 574.79,-120.54 581.79,-120.54"/>
</g>
<!-- j921430358&#45;&gt;Chat ends. -->
<g id="edge12" class="edge">
<title>j921430358&#45;&gt;Chat ends.</title>
<path fill="none" stroke="black" d="M578.29,-72.81C578.29,-65.23 578.29,-56.1 578.29,-47.54"/>
<polygon fill="black" stroke="black" points="581.79,-47.54 578.29,-37.54 574.79,-47.54 581.79,-47.54"/>
</g>
</g>
</svg>
