<?xml version="1.0" encoding="UTF-8" standalone="no"?>
<!DOCTYPE svg PUBLIC "-//W3C//DTD SVG 1.1//EN"
 "http://www.w3.org/Graphics/SVG/1.1/DTD/svg11.dtd">
<!-- Generated by graphviz version 7.1.0 (20230121.1956)
 -->
<!-- Pages: 1 -->
<svg width="1100pt" height="2708pt"
 viewBox="0.00 0.00 1100.00 2708.00" xmlns="http://www.w3.org/2000/svg" xmlns:xlink="http://www.w3.org/1999/xlink">
<g id="graph0" class="graph" transform="scale(1 1) rotate(0) translate(4 2704)">
<polygon fill="white" stroke="none" points="-4,4 -4,-2704 1096,-2704 1096,4 -4,4"/>
<!-- QuincyAmirNightmares begins. -->
<g id="node1" class="node">
<title>QuincyAmirNightmares begins.</title>
<ellipse fill="none" stroke="orange" cx="730.5" cy="-2682" rx="124.28" ry="18"/>
<text text-anchor="middle" x="730.5" y="-2678.3" font-family="Times New Roman,serif" font-size="14.00">QuincyAmirNightmares begins.</text>
</g>
<!-- j1130175216 -->
<g id="node2" class="node">
<title>j1130175216</title>
<polygon fill="none" stroke="blue" points="757.5,-2628 703.5,-2628 703.5,-2592 757.5,-2592 757.5,-2628"/>
<text text-anchor="middle" x="730.5" y="-2606.3" font-family="Times New Roman,serif" font-size="14.00">ehi</text>
</g>
<!-- QuincyAmirNightmares begins.&#45;&gt;j1130175216 -->
<g id="edge1" class="edge">
<title>QuincyAmirNightmares begins.&#45;&gt;j1130175216</title>
<path fill="none" stroke="black" d="M730.5,-2663.7C730.5,-2656.41 730.5,-2647.73 730.5,-2639.54"/>
<polygon fill="black" stroke="black" points="734,-2639.62 730.5,-2629.62 727,-2639.62 734,-2639.62"/>
</g>
<!-- j3965228209 -->
<g id="node3" class="node">
<title>j3965228209</title>
<polygon fill="none" stroke="blue" points="883.5,-2556 577.5,-2556 577.5,-2520 883.5,-2520 883.5,-2556"/>
<text text-anchor="middle" x="730.5" y="-2534.3" font-family="Times New Roman,serif" font-size="14.00">ho parlato co&#39; er piccolo bolide come m&#39;hai detto tu</text>
</g>
<!-- j1130175216&#45;&gt;j3965228209 -->
<g id="edge2" class="edge">
<title>j1130175216&#45;&gt;j3965228209</title>
<path fill="none" stroke="black" d="M730.5,-2591.7C730.5,-2584.41 730.5,-2575.73 730.5,-2567.54"/>
<polygon fill="black" stroke="black" points="734,-2567.62 730.5,-2557.62 727,-2567.62 734,-2567.62"/>
</g>
<!-- j1409916924 -->
<g id="node4" class="node">
<title>j1409916924</title>
<polygon fill="none" stroke="red" points="572,-2412 473,-2412 473,-2376 572,-2376 572,-2412"/>
<text text-anchor="middle" x="522.5" y="-2390.3" font-family="Times New Roman,serif" font-size="14.00">Com&#39;è andata?</text>
</g>
<!-- j3965228209&#45;&gt;j1409916924 -->
<g id="edge3" class="edge">
<title>j3965228209&#45;&gt;j1409916924</title>
<path fill="none" stroke="black" d="M688.28,-2519.5C667.71,-2510.19 643.04,-2497.81 622.5,-2484 594.61,-2465.25 566.32,-2439.29 546.98,-2420.24"/>
<polygon fill="black" stroke="black" points="549.64,-2417.95 540.09,-2413.36 544.69,-2422.9 549.64,-2417.95"/>
</g>
<!-- j1208974383 -->
<g id="node5" class="node">
<title>j1208974383</title>
<polygon fill="none" stroke="red" points="829.5,-2484 631.5,-2484 631.5,-2448 829.5,-2448 829.5,-2484"/>
<text text-anchor="middle" x="730.5" y="-2462.3" font-family="Times New Roman,serif" font-size="14.00">Wow. Mi hai ascoltato davvero?</text>
</g>
<!-- j3965228209&#45;&gt;j1208974383 -->
<g id="edge4" class="edge">
<title>j3965228209&#45;&gt;j1208974383</title>
<path fill="none" stroke="black" d="M730.5,-2519.7C730.5,-2512.41 730.5,-2503.73 730.5,-2495.54"/>
<polygon fill="black" stroke="black" points="734,-2495.62 730.5,-2485.62 727,-2495.62 734,-2495.62"/>
</g>
<!-- j1036453290 -->
<g id="node6" class="node">
<title>j1036453290</title>
<polygon fill="none" stroke="red" points="1092,-2340 815,-2340 815,-2304 1092,-2304 1092,-2340"/>
<text text-anchor="middle" x="953.5" y="-2318.3" font-family="Times New Roman,serif" font-size="14.00">Sono nel bel mezzo di qualcosa, scusa. [Fine.]</text>
</g>
<!-- j3965228209&#45;&gt;j1036453290 -->
<g id="edge5" class="edge">
<title>j3965228209&#45;&gt;j1036453290</title>
<path fill="none" stroke="black" d="M778.45,-2519.57C798.37,-2510.84 820.9,-2498.93 838.5,-2484 883.96,-2445.44 920.64,-2385.17 939.54,-2350.35"/>
<polygon fill="black" stroke="black" points="942.51,-2352.22 944.12,-2341.74 936.33,-2348.93 942.51,-2352.22"/>
</g>
<!-- j2414677058 -->
<g id="node7" class="node">
<title>j2414677058</title>
<polygon fill="none" stroke="blue" points="797,-2340 248,-2340 248,-2304 797,-2304 797,-2340"/>
<text text-anchor="middle" x="522.5" y="-2318.3" font-family="Times New Roman,serif" font-size="14.00">all&#39;inizio pensava ke je davo &#39;n pugno in faccia, ma l&#39;ho portato sul tetto e ce semo messi a parlà</text>
</g>
<!-- j1409916924&#45;&gt;j2414677058 -->
<g id="edge6" class="edge">
<title>j1409916924&#45;&gt;j2414677058</title>
<path fill="none" stroke="black" d="M522.5,-2375.7C522.5,-2368.41 522.5,-2359.73 522.5,-2351.54"/>
<polygon fill="black" stroke="black" points="526,-2351.62 522.5,-2341.62 519,-2351.62 526,-2351.62"/>
</g>
<!-- j892950167 -->
<g id="node8" class="node">
<title>j892950167</title>
<polygon fill="none" stroke="blue" points="871,-2412 590,-2412 590,-2376 871,-2376 871,-2412"/>
<text text-anchor="middle" x="730.5" y="-2390.3" font-family="Times New Roman,serif" font-size="14.00">chiudi &#39;sta caz de bocca e lasciamme parlà, ok?</text>
</g>
<!-- j1208974383&#45;&gt;j892950167 -->
<g id="edge7" class="edge">
<title>j1208974383&#45;&gt;j892950167</title>
<path fill="none" stroke="black" d="M730.5,-2447.7C730.5,-2440.41 730.5,-2431.73 730.5,-2423.54"/>
<polygon fill="black" stroke="black" points="734,-2423.62 730.5,-2413.62 727,-2423.62 734,-2423.62"/>
</g>
<!-- Chat ends. -->
<g id="node9" class="node">
<title>Chat ends.</title>
<ellipse fill="none" stroke="orange" cx="907.5" cy="-18" rx="50.09" ry="18"/>
<text text-anchor="middle" x="907.5" y="-14.3" font-family="Times New Roman,serif" font-size="14.00">Chat ends.</text>
</g>
<!-- j1036453290&#45;&gt;Chat ends. -->
<g id="edge8" class="edge">
<title>j1036453290&#45;&gt;Chat ends.</title>
<path fill="none" stroke="black" d="M953.5,-2303.51C953.5,-2276.71 953.5,-2223.87 953.5,-2179 953.5,-2179 953.5,-2179 953.5,-161 953.5,-119.36 935.38,-74.06 921.89,-46.09"/>
<polygon fill="black" stroke="black" points="925.08,-44.65 917.48,-37.27 918.82,-47.78 925.08,-44.65"/>
</g>
<!-- j4052399683 -->
<g id="node10" class="node">
<title>j4052399683</title>
<polygon fill="none" stroke="blue" points="718.5,-2268 326.5,-2268 326.5,-2232 718.5,-2232 718.5,-2268"/>
<text text-anchor="middle" x="522.5" y="-2246.3" font-family="Times New Roman,serif" font-size="14.00">j&#39;ho detto come so ke fa &#39;sti suoi incubi. de come so ke nn sta bene</text>
</g>
<!-- j2414677058&#45;&gt;j4052399683 -->
<g id="edge9" class="edge">
<title>j2414677058&#45;&gt;j4052399683</title>
<path fill="none" stroke="black" d="M522.5,-2303.7C522.5,-2296.41 522.5,-2287.73 522.5,-2279.54"/>
<polygon fill="black" stroke="black" points="526,-2279.62 522.5,-2269.62 519,-2279.62 526,-2279.62"/>
</g>
<!-- j892950167&#45;&gt;j2414677058 -->
<g id="edge10" class="edge">
<title>j892950167&#45;&gt;j2414677058</title>
<path fill="none" stroke="black" d="M678.55,-2375.52C650.15,-2365.96 614.77,-2354.05 584.89,-2344"/>
<polygon fill="black" stroke="black" points="586.18,-2340.74 575.58,-2340.86 583.94,-2347.37 586.18,-2340.74"/>
</g>
<!-- j2034871100 -->
<g id="node11" class="node">
<title>j2034871100</title>
<polygon fill="none" stroke="red" points="459.5,-2196 405.5,-2196 405.5,-2160 459.5,-2160 459.5,-2196"/>
<text text-anchor="middle" x="432.5" y="-2174.3" font-family="Times New Roman,serif" font-size="14.00">E?</text>
</g>
<!-- j4052399683&#45;&gt;j2034871100 -->
<g id="edge11" class="edge">
<title>j4052399683&#45;&gt;j2034871100</title>
<path fill="none" stroke="black" d="M500.25,-2231.7C489.22,-2223.11 475.71,-2212.61 463.66,-2203.24"/>
<polygon fill="black" stroke="black" points="466.04,-2200.65 456,-2197.28 461.74,-2206.18 466.04,-2200.65"/>
</g>
<!-- j2453637013 -->
<g id="node12" class="node">
<title>j2453637013</title>
<polygon fill="none" stroke="red" points="591,-2196 478,-2196 478,-2160 591,-2160 591,-2196"/>
<text text-anchor="middle" x="534.5" y="-2174.3" font-family="Times New Roman,serif" font-size="14.00">Lui cos&#39;ha detto?</text>
</g>
<!-- j4052399683&#45;&gt;j2453637013 -->
<g id="edge12" class="edge">
<title>j4052399683&#45;&gt;j2453637013</title>
<path fill="none" stroke="black" d="M525.47,-2231.7C526.73,-2224.32 528.24,-2215.52 529.66,-2207.25"/>
<polygon fill="black" stroke="black" points="533.07,-2208.04 531.31,-2197.6 526.17,-2206.86 533.07,-2208.04"/>
</g>
<!-- j4152403793 -->
<g id="node13" class="node">
<title>j4152403793</title>
<polygon fill="none" stroke="blue" points="507,-2124 406,-2124 406,-2088 507,-2088 507,-2124"/>
<text text-anchor="middle" x="456.5" y="-2102.3" font-family="Times New Roman,serif" font-size="14.00">gnente all&#39;inizio</text>
</g>
<!-- j2034871100&#45;&gt;j4152403793 -->
<g id="edge13" class="edge">
<title>j2034871100&#45;&gt;j4152403793</title>
<path fill="none" stroke="black" d="M438.43,-2159.7C440.99,-2152.24 444.05,-2143.32 446.91,-2134.97"/>
<polygon fill="black" stroke="black" points="450.21,-2136.13 450.14,-2125.54 443.59,-2133.86 450.21,-2136.13"/>
</g>
<!-- j2453637013&#45;&gt;j4152403793 -->
<g id="edge14" class="edge">
<title>j2453637013&#45;&gt;j4152403793</title>
<path fill="none" stroke="black" d="M515.22,-2159.7C505.84,-2151.28 494.41,-2141.02 484.12,-2131.79"/>
<polygon fill="black" stroke="black" points="486.74,-2129.43 476.96,-2125.36 482.06,-2134.64 486.74,-2129.43"/>
</g>
<!-- j4224797986 -->
<g id="node14" class="node">
<title>j4224797986</title>
<polygon fill="none" stroke="blue" points="581,-2052 332,-2052 332,-2016 581,-2016 581,-2052"/>
<text text-anchor="middle" x="456.5" y="-2030.3" font-family="Times New Roman,serif" font-size="14.00">è rimasto lì seduto co&#39; &#39;n&#39;aria de vergogna</text>
</g>
<!-- j4152403793&#45;&gt;j4224797986 -->
<g id="edge15" class="edge">
<title>j4152403793&#45;&gt;j4224797986</title>
<path fill="none" stroke="black" d="M456.5,-2087.7C456.5,-2080.41 456.5,-2071.73 456.5,-2063.54"/>
<polygon fill="black" stroke="black" points="460,-2063.62 456.5,-2053.62 453,-2063.62 460,-2063.62"/>
</g>
<!-- j826418202 -->
<g id="node15" class="node">
<title>j826418202</title>
<polygon fill="none" stroke="blue" points="567,-1980 346,-1980 346,-1944 567,-1944 567,-1980"/>
<text text-anchor="middle" x="456.5" y="-1958.3" font-family="Times New Roman,serif" font-size="14.00">forse pensava ke l&#39;avrei preso in giro</text>
</g>
<!-- j4224797986&#45;&gt;j826418202 -->
<g id="edge16" class="edge">
<title>j4224797986&#45;&gt;j826418202</title>
<path fill="none" stroke="black" d="M456.5,-2015.7C456.5,-2008.41 456.5,-1999.73 456.5,-1991.54"/>
<polygon fill="black" stroke="black" points="460,-1991.62 456.5,-1981.62 453,-1991.62 460,-1991.62"/>
</g>
<!-- j2589311897 -->
<g id="node16" class="node">
<title>j2589311897</title>
<polygon fill="none" stroke="blue" points="648,-1908 265,-1908 265,-1872 648,-1872 648,-1908"/>
<text text-anchor="middle" x="456.5" y="-1886.3" font-family="Times New Roman,serif" font-size="14.00">ke, a esse&#39; sincero, ero &#39;n po&#39; tentato da quanto pareva spaventato</text>
</g>
<!-- j826418202&#45;&gt;j2589311897 -->
<g id="edge17" class="edge">
<title>j826418202&#45;&gt;j2589311897</title>
<path fill="none" stroke="black" d="M456.5,-1943.7C456.5,-1936.41 456.5,-1927.73 456.5,-1919.54"/>
<polygon fill="black" stroke="black" points="460,-1919.62 456.5,-1909.62 453,-1919.62 460,-1919.62"/>
</g>
<!-- j4112250142 -->
<g id="node17" class="node">
<title>j4112250142</title>
<polygon fill="none" stroke="blue" points="913,-1836 0,-1836 0,-1800 913,-1800 913,-1836"/>
<text text-anchor="middle" x="456.5" y="-1814.3" font-family="Times New Roman,serif" font-size="14.00">e così... je ho raccontato della prima vorta ke ho dovuto ammazzà quarcuno. della prima vorta ke ho dovuto guardà ner mirino der fucile e toje la vita a quarcuno</text>
</g>
<!-- j2589311897&#45;&gt;j4112250142 -->
<g id="edge18" class="edge">
<title>j2589311897&#45;&gt;j4112250142</title>
<path fill="none" stroke="black" d="M456.5,-1871.7C456.5,-1864.41 456.5,-1855.73 456.5,-1847.54"/>
<polygon fill="black" stroke="black" points="460,-1847.62 456.5,-1837.62 453,-1847.62 460,-1847.62"/>
</g>
<!-- j3330054163 -->
<g id="node18" class="node">
<title>j3330054163</title>
<polygon fill="none" stroke="blue" points="778.5,-1764 134.5,-1764 134.5,-1728 778.5,-1728 778.5,-1764"/>
<text text-anchor="middle" x="456.5" y="-1742.3" font-family="Times New Roman,serif" font-size="14.00">è &#39;na cosa quanno te trovi ner mezzo de &#39;na battaja... un pazzo s&#39;avvicina e tu hai &#39;na pistola o &#39;n coltello o altro...</text>
</g>
<!-- j4112250142&#45;&gt;j3330054163 -->
<g id="edge19" class="edge">
<title>j4112250142&#45;&gt;j3330054163</title>
<path fill="none" stroke="black" d="M456.5,-1799.7C456.5,-1792.41 456.5,-1783.73 456.5,-1775.54"/>
<polygon fill="black" stroke="black" points="460,-1775.62 456.5,-1765.62 453,-1775.62 460,-1775.62"/>
</g>
<!-- j1690285033 -->
<g id="node19" class="node">
<title>j1690285033</title>
<polygon fill="none" stroke="blue" points="715.5,-1692 197.5,-1692 197.5,-1656 715.5,-1656 715.5,-1692"/>
<text text-anchor="middle" x="456.5" y="-1670.3" font-family="Times New Roman,serif" font-size="14.00">è &#39;n&#39;altra cosa quanno stai su &#39;n tetto a 300 metri de distanza e loro manco sanno ke ce 6...</text>
</g>
<!-- j3330054163&#45;&gt;j1690285033 -->
<g id="edge20" class="edge">
<title>j3330054163&#45;&gt;j1690285033</title>
<path fill="none" stroke="black" d="M456.5,-1727.7C456.5,-1720.41 456.5,-1711.73 456.5,-1703.54"/>
<polygon fill="black" stroke="black" points="460,-1703.62 456.5,-1693.62 453,-1703.62 460,-1703.62"/>
</g>
<!-- j1013651918 -->
<g id="node20" class="node">
<title>j1013651918</title>
<polygon fill="none" stroke="blue" points="671,-1620 242,-1620 242,-1584 671,-1584 671,-1620"/>
<text text-anchor="middle" x="456.5" y="-1598.3" font-family="Times New Roman,serif" font-size="14.00">e hai tempo x *pensa* a loro. chi so&#39;. xk stanno là. hanno &#39;na famija? figli?</text>
</g>
<!-- j1690285033&#45;&gt;j1013651918 -->
<g id="edge21" class="edge">
<title>j1690285033&#45;&gt;j1013651918</title>
<path fill="none" stroke="black" d="M456.5,-1655.7C456.5,-1648.41 456.5,-1639.73 456.5,-1631.54"/>
<polygon fill="black" stroke="black" points="460,-1631.62 456.5,-1621.62 453,-1631.62 460,-1631.62"/>
</g>
<!-- j515634686 -->
<g id="node21" class="node">
<title>j515634686</title>
<polygon fill="none" stroke="blue" points="556.5,-1548 356.5,-1548 356.5,-1512 556.5,-1512 556.5,-1548"/>
<text text-anchor="middle" x="456.5" y="-1526.3" font-family="Times New Roman,serif" font-size="14.00">e poi... premi er grilletto. BOOM</text>
</g>
<!-- j1013651918&#45;&gt;j515634686 -->
<g id="edge22" class="edge">
<title>j1013651918&#45;&gt;j515634686</title>
<path fill="none" stroke="black" d="M456.5,-1583.7C456.5,-1576.41 456.5,-1567.73 456.5,-1559.54"/>
<polygon fill="black" stroke="black" points="460,-1559.62 456.5,-1549.62 453,-1559.62 460,-1559.62"/>
</g>
<!-- j2667118657 -->
<g id="node22" class="node">
<title>j2667118657</title>
<polygon fill="none" stroke="blue" points="505.5,-1476 407.5,-1476 407.5,-1440 505.5,-1440 505.5,-1476"/>
<text text-anchor="middle" x="456.5" y="-1454.3" font-family="Times New Roman,serif" font-size="14.00">nn importa ora</text>
</g>
<!-- j515634686&#45;&gt;j2667118657 -->
<g id="edge23" class="edge">
<title>j515634686&#45;&gt;j2667118657</title>
<path fill="none" stroke="black" d="M456.5,-1511.7C456.5,-1504.41 456.5,-1495.73 456.5,-1487.54"/>
<polygon fill="black" stroke="black" points="460,-1487.62 456.5,-1477.62 453,-1487.62 460,-1487.62"/>
</g>
<!-- j1327308736 -->
<g id="node23" class="node">
<title>j1327308736</title>
<polygon fill="none" stroke="blue" points="550.5,-1404 362.5,-1404 362.5,-1368 550.5,-1368 550.5,-1404"/>
<text text-anchor="middle" x="456.5" y="-1382.3" font-family="Times New Roman,serif" font-size="14.00">so&#39; morti, e ho torto quella vita</text>
</g>
<!-- j2667118657&#45;&gt;j1327308736 -->
<g id="edge24" class="edge">
<title>j2667118657&#45;&gt;j1327308736</title>
<path fill="none" stroke="black" d="M456.5,-1439.7C456.5,-1432.41 456.5,-1423.73 456.5,-1415.54"/>
<polygon fill="black" stroke="black" points="460,-1415.62 456.5,-1405.62 453,-1415.62 460,-1415.62"/>
</g>
<!-- j2361268027 -->
<g id="node24" class="node">
<title>j2361268027</title>
<polygon fill="none" stroke="blue" points="552,-1332 361,-1332 361,-1296 552,-1296 552,-1332"/>
<text text-anchor="middle" x="456.5" y="-1310.3" font-family="Times New Roman,serif" font-size="14.00">e quer volto vive nella mia testa</text>
</g>
<!-- j1327308736&#45;&gt;j2361268027 -->
<g id="edge25" class="edge">
<title>j1327308736&#45;&gt;j2361268027</title>
<path fill="none" stroke="black" d="M456.5,-1367.7C456.5,-1360.41 456.5,-1351.73 456.5,-1343.54"/>
<polygon fill="black" stroke="black" points="460,-1343.62 456.5,-1333.62 453,-1343.62 460,-1343.62"/>
</g>
<!-- j904574659 -->
<g id="node25" class="node">
<title>j904574659</title>
<polygon fill="none" stroke="blue" points="554.5,-1260 358.5,-1260 358.5,-1224 554.5,-1224 554.5,-1260"/>
<text text-anchor="middle" x="456.5" y="-1238.3" font-family="Times New Roman,serif" font-size="14.00">e così tutti quelli ke vengono dp</text>
</g>
<!-- j2361268027&#45;&gt;j904574659 -->
<g id="edge26" class="edge">
<title>j2361268027&#45;&gt;j904574659</title>
<path fill="none" stroke="black" d="M456.5,-1295.7C456.5,-1288.41 456.5,-1279.73 456.5,-1271.54"/>
<polygon fill="black" stroke="black" points="460,-1271.62 456.5,-1261.62 453,-1271.62 460,-1271.62"/>
</g>
<!-- j3797288015 -->
<g id="node26" class="node">
<title>j3797288015</title>
<polygon fill="none" stroke="red" points="460.5,-1188 316.5,-1188 316.5,-1152 460.5,-1152 460.5,-1188"/>
<text text-anchor="middle" x="388.5" y="-1166.3" font-family="Times New Roman,serif" font-size="14.00">Lui come ha reagito...?</text>
</g>
<!-- j904574659&#45;&gt;j3797288015 -->
<g id="edge27" class="edge">
<title>j904574659&#45;&gt;j3797288015</title>
<path fill="none" stroke="black" d="M439.69,-1223.7C431.62,-1215.39 421.8,-1205.28 412.92,-1196.14"/>
<polygon fill="black" stroke="black" points="415.65,-1193.92 406.17,-1189.19 410.63,-1198.8 415.65,-1193.92"/>
</g>
<!-- j3959975925 -->
<g id="node27" class="node">
<title>j3959975925</title>
<polygon fill="none" stroke="red" points="620.5,-1188 478.5,-1188 478.5,-1152 620.5,-1152 620.5,-1188"/>
<text text-anchor="middle" x="549.5" y="-1166.3" font-family="Times New Roman,serif" font-size="14.00">Sembra... confortante.</text>
</g>
<!-- j904574659&#45;&gt;j3959975925 -->
<g id="edge28" class="edge">
<title>j904574659&#45;&gt;j3959975925</title>
<path fill="none" stroke="black" d="M479.49,-1223.7C490.89,-1215.11 504.85,-1204.61 517.3,-1195.24"/>
<polygon fill="black" stroke="black" points="519.36,-1198.07 525.24,-1189.26 515.15,-1192.47 519.36,-1198.07"/>
</g>
<!-- j1458074888 -->
<g id="node28" class="node">
<title>j1458074888</title>
<polygon fill="none" stroke="blue" points="661.5,-1116 275.5,-1116 275.5,-1080 661.5,-1080 661.5,-1116"/>
<text text-anchor="middle" x="468.5" y="-1094.3" font-family="Times New Roman,serif" font-size="14.00">nn ha detto gnente x tanto tempo. semmo rimasti a sedè in silenzio</text>
</g>
<!-- j3797288015&#45;&gt;j1458074888 -->
<g id="edge29" class="edge">
<title>j3797288015&#45;&gt;j1458074888</title>
<path fill="none" stroke="black" d="M408.28,-1151.7C417.89,-1143.28 429.62,-1133.02 440.17,-1123.79"/>
<polygon fill="black" stroke="black" points="442.31,-1126.56 447.54,-1117.34 437.71,-1121.29 442.31,-1126.56"/>
</g>
<!-- j3959975925&#45;&gt;j1458074888 -->
<g id="edge30" class="edge">
<title>j3959975925&#45;&gt;j1458074888</title>
<path fill="none" stroke="black" d="M529.48,-1151.7C519.74,-1143.28 507.86,-1133.02 497.19,-1123.79"/>
<polygon fill="black" stroke="black" points="499.57,-1121.23 489.72,-1117.34 495,-1126.52 499.57,-1121.23"/>
</g>
<!-- j4235673524 -->
<g id="node29" class="node">
<title>j4235673524</title>
<polygon fill="none" stroke="blue" points="609,-1044 328,-1044 328,-1008 609,-1008 609,-1044"/>
<text text-anchor="middle" x="468.5" y="-1022.3" font-family="Times New Roman,serif" font-size="14.00">e poi... m&#39;ha raccontato de li incubi ke ha avuto</text>
</g>
<!-- j1458074888&#45;&gt;j4235673524 -->
<g id="edge31" class="edge">
<title>j1458074888&#45;&gt;j4235673524</title>
<path fill="none" stroke="black" d="M468.5,-1079.7C468.5,-1072.41 468.5,-1063.73 468.5,-1055.54"/>
<polygon fill="black" stroke="black" points="472,-1055.62 468.5,-1045.62 465,-1055.62 472,-1055.62"/>
</g>
<!-- j1058092924 -->
<g id="node30" class="node">
<title>j1058092924</title>
<polygon fill="none" stroke="blue" points="677,-972 260,-972 260,-936 677,-936 677,-972"/>
<text text-anchor="middle" x="468.5" y="-950.3" font-family="Times New Roman,serif" font-size="14.00">è come se sente de nn fa&#39; veramente parte der gruppo xk nn è &#39;n soldato</text>
</g>
<!-- j4235673524&#45;&gt;j1058092924 -->
<g id="edge32" class="edge">
<title>j4235673524&#45;&gt;j1058092924</title>
<path fill="none" stroke="black" d="M468.5,-1007.7C468.5,-1000.41 468.5,-991.73 468.5,-983.54"/>
<polygon fill="black" stroke="black" points="472,-983.62 468.5,-973.62 465,-983.62 472,-983.62"/>
</g>
<!-- j3844679585 -->
<g id="node31" class="node">
<title>j3844679585</title>
<polygon fill="none" stroke="blue" points="705.5,-900 231.5,-900 231.5,-864 705.5,-864 705.5,-900"/>
<text text-anchor="middle" x="468.5" y="-878.3" font-family="Times New Roman,serif" font-size="14.00">e così j&#39;ho raccontato de li incubi ke avevo sempre. quelli da quanno ero pischello</text>
</g>
<!-- j1058092924&#45;&gt;j3844679585 -->
<g id="edge33" class="edge">
<title>j1058092924&#45;&gt;j3844679585</title>
<path fill="none" stroke="black" d="M468.5,-935.7C468.5,-928.41 468.5,-919.73 468.5,-911.54"/>
<polygon fill="black" stroke="black" points="472,-911.62 468.5,-901.62 465,-911.62 472,-911.62"/>
</g>
<!-- j272699845 -->
<g id="node32" class="node">
<title>j272699845</title>
<polygon fill="none" stroke="blue" points="702,-828 235,-828 235,-792 702,-792 702,-828"/>
<text text-anchor="middle" x="468.5" y="-806.3" font-family="Times New Roman,serif" font-size="14.00">ma j&#39;ho detto ke me dispiaceva de avello trattato come &#39;n cojone x tutto er tempo</text>
</g>
<!-- j3844679585&#45;&gt;j272699845 -->
<g id="edge34" class="edge">
<title>j3844679585&#45;&gt;j272699845</title>
<path fill="none" stroke="black" d="M468.5,-863.7C468.5,-856.41 468.5,-847.73 468.5,-839.54"/>
<polygon fill="black" stroke="black" points="472,-839.62 468.5,-829.62 465,-839.62 472,-839.62"/>
</g>
<!-- j1335315686 -->
<g id="node33" class="node">
<title>j1335315686</title>
<polygon fill="none" stroke="blue" points="925.5,-756 11.5,-756 11.5,-720 925.5,-720 925.5,-756"/>
<text text-anchor="middle" x="468.5" y="-734.3" font-family="Times New Roman,serif" font-size="14.00">e ke er suo posto è &#39;n mezzo a noi come chiunque altro. e ke io ho &#39;n modo de essere, proprio come lui c&#39;ha &#39;n modo de essere, e ke semo fatti così, me capisci?</text>
</g>
<!-- j272699845&#45;&gt;j1335315686 -->
<g id="edge35" class="edge">
<title>j272699845&#45;&gt;j1335315686</title>
<path fill="none" stroke="black" d="M468.5,-791.7C468.5,-784.41 468.5,-775.73 468.5,-767.54"/>
<polygon fill="black" stroke="black" points="472,-767.62 468.5,-757.62 465,-767.62 472,-767.62"/>
</g>
<!-- j1350441392 -->
<g id="node34" class="node">
<title>j1350441392</title>
<polygon fill="none" stroke="blue" points="620.5,-684 456.5,-684 456.5,-648 620.5,-648 620.5,-684"/>
<text text-anchor="middle" x="538.5" y="-662.3" font-family="Times New Roman,serif" font-size="14.00">.... e poi sai cs ha detto...?</text>
</g>
<!-- j1335315686&#45;&gt;j1350441392 -->
<g id="edge36" class="edge">
<title>j1335315686&#45;&gt;j1350441392</title>
<path fill="none" stroke="black" d="M485.8,-719.7C494.11,-711.39 504.22,-701.28 513.36,-692.14"/>
<polygon fill="black" stroke="black" points="515.73,-694.72 520.33,-685.17 510.78,-689.77 515.73,-694.72"/>
</g>
<!-- j489044835 -->
<g id="node35" class="node">
<title>j489044835</title>
<polygon fill="none" stroke="red" points="565.5,-612 511.5,-612 511.5,-576 565.5,-576 565.5,-612"/>
<text text-anchor="middle" x="538.5" y="-590.3" font-family="Times New Roman,serif" font-size="14.00">Cosa?</text>
</g>
<!-- j1350441392&#45;&gt;j489044835 -->
<g id="edge37" class="edge">
<title>j1350441392&#45;&gt;j489044835</title>
<path fill="none" stroke="black" d="M538.5,-647.7C538.5,-640.41 538.5,-631.73 538.5,-623.54"/>
<polygon fill="black" stroke="black" points="542,-623.62 538.5,-613.62 535,-623.62 542,-623.62"/>
</g>
<!-- j2350391662 -->
<g id="node36" class="node">
<title>j2350391662</title>
<polygon fill="none" stroke="red" points="637.5,-612 583.5,-612 583.5,-576 637.5,-576 637.5,-612"/>
<text text-anchor="middle" x="610.5" y="-590.3" font-family="Times New Roman,serif" font-size="14.00">No?</text>
</g>
<!-- j1350441392&#45;&gt;j2350391662 -->
<g id="edge38" class="edge">
<title>j1350441392&#45;&gt;j2350391662</title>
<path fill="none" stroke="black" d="M556.3,-647.7C564.78,-639.45 575.09,-629.43 584.43,-620.35"/>
<polygon fill="black" stroke="black" points="586.84,-622.88 591.57,-613.4 581.96,-617.86 586.84,-622.88"/>
</g>
<!-- j2690125140 -->
<g id="node37" class="node">
<title>j2690125140</title>
<polygon fill="none" stroke="blue" points="705,-540 516,-540 516,-504 705,-504 705,-540"/>
<text text-anchor="middle" x="610.5" y="-518.3" font-family="Times New Roman,serif" font-size="14.00">&quot;hai ragione, 6 un testa de caz&quot;</text>
</g>
<!-- j489044835&#45;&gt;j2690125140 -->
<g id="edge39" class="edge">
<title>j489044835&#45;&gt;j2690125140</title>
<path fill="none" stroke="black" d="M556.3,-575.7C564.78,-567.45 575.09,-557.43 584.43,-548.35"/>
<polygon fill="black" stroke="black" points="586.84,-550.88 591.57,-541.4 581.96,-545.86 586.84,-550.88"/>
</g>
<!-- j2350391662&#45;&gt;j2690125140 -->
<g id="edge40" class="edge">
<title>j2350391662&#45;&gt;j2690125140</title>
<path fill="none" stroke="black" d="M610.5,-575.7C610.5,-568.41 610.5,-559.73 610.5,-551.54"/>
<polygon fill="black" stroke="black" points="614,-551.62 610.5,-541.62 607,-551.62 614,-551.62"/>
</g>
<!-- j2477609945 -->
<g id="node38" class="node">
<title>j2477609945</title>
<polygon fill="none" stroke="blue" points="784,-468 507,-468 507,-432 784,-432 784,-468"/>
<text text-anchor="middle" x="645.5" y="-446.3" font-family="Times New Roman,serif" font-size="14.00">ma proprio mentre stavo x buttalo giù dar tetto</text>
</g>
<!-- j2690125140&#45;&gt;j2477609945 -->
<g id="edge41" class="edge">
<title>j2690125140&#45;&gt;j2477609945</title>
<path fill="none" stroke="black" d="M619.15,-503.7C622.97,-496.07 627.54,-486.92 631.8,-478.4"/>
<polygon fill="black" stroke="black" points="634.93,-479.97 636.27,-469.46 628.67,-476.84 634.93,-479.97"/>
</g>
<!-- j264250255 -->
<g id="node39" class="node">
<title>j264250255</title>
<polygon fill="none" stroke="blue" points="900.5,-396 424.5,-396 424.5,-360 900.5,-360 900.5,-396"/>
<text text-anchor="middle" x="662.5" y="-374.3" font-family="Times New Roman,serif" font-size="14.00">m&#39;ha abbracciato. m&#39;ha abbracciato, caz. e m&#39;ha detto &#39;ma 6 pure er mio fratellone&#39;</text>
</g>
<!-- j2477609945&#45;&gt;j264250255 -->
<g id="edge42" class="edge">
<title>j2477609945&#45;&gt;j264250255</title>
<path fill="none" stroke="black" d="M649.7,-431.7C651.49,-424.32 653.63,-415.52 655.64,-407.25"/>
<polygon fill="black" stroke="black" points="659.03,-408.12 657.99,-397.58 652.23,-406.47 659.03,-408.12"/>
</g>
<!-- j928628197 -->
<g id="node40" class="node">
<title>j928628197</title>
<polygon fill="none" stroke="blue" points="694.5,-324 640.5,-324 640.5,-288 694.5,-288 694.5,-324"/>
<text text-anchor="middle" x="667.5" y="-302.3" font-family="Times New Roman,serif" font-size="14.00">ke caz</text>
</g>
<!-- j264250255&#45;&gt;j928628197 -->
<g id="edge43" class="edge">
<title>j264250255&#45;&gt;j928628197</title>
<path fill="none" stroke="black" d="M663.74,-359.7C664.26,-352.41 664.88,-343.73 665.46,-335.54"/>
<polygon fill="black" stroke="black" points="668.95,-335.84 666.17,-325.61 661.97,-335.34 668.95,-335.84"/>
</g>
<!-- j1725071306 -->
<g id="node41" class="node">
<title>j1725071306</title>
<polygon fill="none" stroke="blue" points="921,-252 432,-252 432,-216 921,-216 921,-252"/>
<text text-anchor="middle" x="676.5" y="-230.3" font-family="Times New Roman,serif" font-size="14.00">ma... no. va bene. penso ke fosse importante x lui, veramente... e... pure x me. credo</text>
</g>
<!-- j928628197&#45;&gt;j1725071306 -->
<g id="edge44" class="edge">
<title>j928628197&#45;&gt;j1725071306</title>
<path fill="none" stroke="black" d="M669.72,-287.7C670.67,-280.32 671.8,-271.52 672.87,-263.25"/>
<polygon fill="black" stroke="black" points="676.3,-263.97 674.11,-253.61 669.36,-263.08 676.3,-263.97"/>
</g>
<!-- j3352237460 -->
<g id="node42" class="node">
<title>j3352237460</title>
<ellipse fill="none" stroke="orange" cx="771.5" cy="-162" rx="64.19" ry="18"/>
<text text-anchor="middle" x="771.5" y="-158.3" font-family="Times New Roman,serif" font-size="14.00">+20 Chemistry</text>
</g>
<!-- j1725071306&#45;&gt;j3352237460 -->
<g id="edge45" class="edge">
<title>j1725071306&#45;&gt;j3352237460</title>
<path fill="none" stroke="black" d="M699.98,-215.7C712.19,-206.7 727.26,-195.6 740.42,-185.9"/>
<polygon fill="black" stroke="black" points="742.4,-188.79 748.37,-180.04 738.24,-183.16 742.4,-188.79"/>
</g>
<!-- j3534165435 -->
<g id="node43" class="node">
<title>j3534165435</title>
<polygon fill="none" stroke="blue" points="914,-108 831,-108 831,-72 914,-72 914,-108"/>
<text text-anchor="middle" x="872.5" y="-86.3" font-family="Times New Roman,serif" font-size="14.00">quindi... grz</text>
</g>
<!-- j3352237460&#45;&gt;j3534165435 -->
<g id="edge46" class="edge">
<title>j3352237460&#45;&gt;j3534165435</title>
<path fill="none" stroke="black" d="M794.93,-144.76C807.83,-135.82 824.09,-124.55 838.38,-114.65"/>
<polygon fill="black" stroke="black" points="839.97,-117.81 846.19,-109.23 835.98,-112.05 839.97,-117.81"/>
</g>
<!-- j3534165435&#45;&gt;Chat ends. -->
<g id="edge47" class="edge">
<title>j3534165435&#45;&gt;Chat ends.</title>
<path fill="none" stroke="black" d="M881.15,-71.7C884.97,-64.07 889.54,-54.92 893.8,-46.4"/>
<polygon fill="black" stroke="black" points="896.93,-47.97 898.27,-37.46 890.67,-44.84 896.93,-47.97"/>
</g>
</g>
</svg>
