<?xml version="1.0" encoding="UTF-8" standalone="no"?>
<!DOCTYPE svg PUBLIC "-//W3C//DTD SVG 1.1//EN"
 "http://www.w3.org/Graphics/SVG/1.1/DTD/svg11.dtd">
<!-- Generated by graphviz version 14.1.1 (20251213.1925)
 -->
<!-- Pages: 1 -->
<svg width="2946pt" height="967pt"
 viewBox="0.00 0.00 2946.00 967.00" xmlns="http://www.w3.org/2000/svg" xmlns:xlink="http://www.w3.org/1999/xlink">
<g id="graph0" class="graph" transform="scale(1 1) rotate(0) translate(4 962.5)">
<polygon fill="white" stroke="none" points="-4,4 -4,-962.5 2941.88,-962.5 2941.88,4 -4,4"/>
<!-- LyonRank6Convo1 begins. -->
<g id="node1" class="node">
<title>LyonRank6Convo1 begins.</title>
<ellipse fill="none" stroke="orange" cx="1929.62" cy="-940.5" rx="112.26" ry="18"/>
<text xml:space="preserve" text-anchor="middle" x="1929.62" y="-935.45" font-family="Times New Roman,serif" font-size="14.00">LyonRank6Convo1 begins.</text>
</g>
<!-- j916000321 -->
<g id="node2" class="node">
<title>j916000321</title>
<ellipse fill="none" stroke="orange" cx="1929.62" cy="-867.5" rx="112.77" ry="18"/>
<text xml:space="preserve" text-anchor="middle" x="1929.62" y="-862.45" font-family="Times New Roman,serif" font-size="14.00">Check boolean LyonDating</text>
</g>
<!-- LyonRank6Convo1 begins.&#45;&gt;j916000321 -->
<g id="edge1" class="edge">
<title>LyonRank6Convo1 begins.&#45;&gt;j916000321</title>
<path fill="none" stroke="black" d="M1929.62,-922.31C1929.62,-914.73 1929.62,-905.6 1929.62,-897.04"/>
<polygon fill="black" stroke="black" points="1933.13,-897.04 1929.63,-887.04 1926.13,-897.04 1933.13,-897.04"/>
</g>
<!-- j1606272949 -->
<g id="node3" class="node">
<title>j1606272949</title>
<polygon fill="none" stroke="blue" points="1930.62,-797 1326.62,-797 1326.62,-761 1930.62,-761 1930.62,-797"/>
<text xml:space="preserve" text-anchor="middle" x="1628.62" y="-774.33" font-family="Times New Roman,serif" font-size="14.00">Mon miracle，今天我不会占用你太多时间——我只是想借此机会再次感谢你在此相伴。</text>
</g>
<!-- j916000321&#45;&gt;j1606272949 -->
<g id="edge2" class="edge">
<title>j916000321&#45;&gt;j1606272949</title>
<path fill="none" stroke="green" d="M1876.51,-851.23C1827.56,-837.17 1754.53,-816.18 1700.4,-800.63"/>
<polygon fill="green" stroke="green" points="1701.53,-797.31 1690.95,-797.91 1699.6,-804.04 1701.53,-797.31"/>
<text xml:space="preserve" text-anchor="middle" x="1816.58" y="-818.2" font-family="Times New Roman,serif" font-size="14.00">true</text>
</g>
<!-- j225167610 -->
<g id="node4" class="node">
<title>j225167610</title>
<polygon fill="none" stroke="blue" points="2512.75,-797 1948.5,-797 1948.5,-761 2512.75,-761 2512.75,-797"/>
<text xml:space="preserve" text-anchor="middle" x="2230.62" y="-774.33" font-family="Times New Roman,serif" font-size="14.00">朋友，今天我不会占用你太多时间——我只是想借此机会再次感谢你在此相伴。</text>
</g>
<!-- j916000321&#45;&gt;j225167610 -->
<g id="edge3" class="edge">
<title>j916000321&#45;&gt;j225167610</title>
<path fill="none" stroke="brown" d="M1982.74,-851.23C2031.69,-837.17 2104.72,-816.18 2158.85,-800.63"/>
<polygon fill="brown" stroke="brown" points="2159.65,-804.04 2168.3,-797.91 2157.72,-797.31 2159.65,-804.04"/>
<text xml:space="preserve" text-anchor="middle" x="2119.83" y="-818.2" font-family="Times New Roman,serif" font-size="14.00">false</text>
</g>
<!-- j2340461870 -->
<g id="node5" class="node">
<title>j2340461870</title>
<ellipse fill="none" stroke="orange" cx="1928.62" cy="-706" rx="88.71" ry="18"/>
<text xml:space="preserve" text-anchor="middle" x="1928.62" y="-700.95" font-family="Times New Roman,serif" font-size="14.00">Evaluate expressions</text>
</g>
<!-- j1606272949&#45;&gt;j2340461870 -->
<g id="edge4" class="edge">
<title>j1606272949&#45;&gt;j2340461870</title>
<path fill="none" stroke="black" d="M1702.4,-760.54C1751.06,-749.02 1814.31,-734.05 1861.55,-722.87"/>
<polygon fill="black" stroke="black" points="1862.19,-726.32 1871.12,-720.61 1860.58,-719.51 1862.19,-726.32"/>
</g>
<!-- j225167610&#45;&gt;j2340461870 -->
<g id="edge5" class="edge">
<title>j225167610&#45;&gt;j2340461870</title>
<path fill="none" stroke="black" d="M2156.36,-760.54C2107.37,-749.02 2043.7,-734.05 1996.15,-722.87"/>
<polygon fill="black" stroke="black" points="1997.04,-719.49 1986.51,-720.61 1995.44,-726.3 1997.04,-719.49"/>
</g>
<!-- j725796693 -->
<g id="node6" class="node">
<title>j725796693</title>
<polygon fill="none" stroke="blue" points="813.25,-635.5 0,-635.5 0,-599.5 813.25,-599.5 813.25,-635.5"/>
<text xml:space="preserve" text-anchor="middle" x="406.62" y="-612.83" font-family="Times New Roman,serif" font-size="14.00">我将静坐祈祷，感谢指引你来到我们身边的神，感谢你怀着如此的耐心……如此的善意……倾听我如此冗长的倾诉。</text>
</g>
<!-- j2340461870&#45;&gt;j725796693 -->
<g id="edge6" class="edge">
<title>j2340461870&#45;&gt;j725796693</title>
<path fill="none" stroke="purple" d="M1842.37,-701.46C1704.04,-695.65 1424.03,-683.42 1186.88,-670 1012.66,-660.14 816.7,-647.2 664.74,-636.76"/>
<polygon fill="purple" stroke="purple" points="665.14,-633.28 654.92,-636.08 664.66,-640.26 665.14,-633.28"/>
<text xml:space="preserve" text-anchor="middle" x="1352.25" y="-656.7" font-family="Times New Roman,serif" font-size="14.00">LyonConfession1, LyonConfession2, LyonDatingConfession</text>
</g>
<!-- j1950309832 -->
<g id="node7" class="node">
<title>j1950309832</title>
<polygon fill="none" stroke="blue" points="1644.25,-635.5 831,-635.5 831,-599.5 1644.25,-599.5 1644.25,-635.5"/>
<text xml:space="preserve" text-anchor="middle" x="1237.62" y="-612.83" font-family="Times New Roman,serif" font-size="14.00">我将静坐祈祷，感谢指引你来到我们身边的神，感谢你怀着如此的耐心……如此的善意……倾听我如此冗长的倾诉。</text>
</g>
<!-- j2340461870&#45;&gt;j1950309832 -->
<g id="edge7" class="edge">
<title>j2340461870&#45;&gt;j1950309832</title>
<path fill="none" stroke="purple" d="M1854.68,-695.74C1743.89,-681.87 1532.46,-655.41 1388.29,-637.36"/>
<polygon fill="purple" stroke="purple" points="1389.02,-633.92 1378.66,-636.16 1388.15,-640.87 1389.02,-633.92"/>
<text xml:space="preserve" text-anchor="middle" x="1744.02" y="-656.7" font-family="Times New Roman,serif" font-size="14.00">LyonConfession1, LyonConfession2</text>
</g>
<!-- j1983183781 -->
<g id="node8" class="node">
<title>j1983183781</title>
<polygon fill="none" stroke="blue" points="2431.12,-635.5 1662.12,-635.5 1662.12,-599.5 2431.12,-599.5 2431.12,-635.5"/>
<text xml:space="preserve" text-anchor="middle" x="2046.62" y="-612.83" font-family="Times New Roman,serif" font-size="14.00">我向你倾诉了如此多的痛苦，而你竟默默承受？却不求我任何回报……相比之下我这点谢意，实在微不足道。</text>
</g>
<!-- j2340461870&#45;&gt;j1983183781 -->
<g id="edge8" class="edge">
<title>j2340461870&#45;&gt;j1983183781</title>
<path fill="none" stroke="purple" d="M1924.05,-687.57C1922.28,-676.72 1922.15,-663.06 1929.38,-653.5 1932.52,-649.34 1936.15,-645.65 1940.13,-642.39"/>
<polygon fill="purple" stroke="purple" points="1941.95,-645.38 1948.12,-636.77 1937.93,-639.66 1941.95,-645.38"/>
<text xml:space="preserve" text-anchor="middle" x="1977" y="-656.7" font-family="Times New Roman,serif" font-size="14.00">LyonConfession1</text>
</g>
<!-- j2340461870&#45;&gt;j1983183781 -->
<g id="edge9" class="edge">
<title>j2340461870&#45;&gt;j1983183781</title>
<path fill="none" stroke="purple" d="M1987.25,-692.15C2000.75,-687.01 2014.19,-679.88 2024.62,-670 2031.3,-663.68 2036.04,-655 2039.38,-646.57"/>
<polygon fill="purple" stroke="purple" points="2042.63,-647.87 2042.5,-637.28 2035.99,-645.64 2042.63,-647.87"/>
<text xml:space="preserve" text-anchor="middle" x="2083.66" y="-656.7" font-family="Times New Roman,serif" font-size="14.00">LyonConfession2</text>
</g>
<!-- j2463200108 -->
<g id="node9" class="node">
<title>j2463200108</title>
<polygon fill="none" stroke="blue" points="2937.88,-635.5 2449.38,-635.5 2449.38,-599.5 2937.88,-599.5 2937.88,-635.5"/>
<text xml:space="preserve" text-anchor="middle" x="2693.62" y="-612.08" font-family="Times New Roman,serif" font-size="14.00">我知道，我如今的模样，我本来的样子，对他人而言并非易于承受。</text>
</g>
<!-- j2340461870&#45;&gt;j2463200108 -->
<g id="edge10" class="edge">
<title>j2340461870&#45;&gt;j2463200108</title>
<path fill="none" stroke="purple" d="M2004.77,-696.39C2126.04,-682.68 2365.87,-655.56 2528.02,-637.23"/>
<polygon fill="purple" stroke="purple" points="2528.02,-640.75 2537.57,-636.15 2527.24,-633.79 2528.02,-640.75"/>
<text xml:space="preserve" text-anchor="middle" x="2392.39" y="-656.7" font-family="Times New Roman,serif" font-size="14.00">false</text>
</g>
<!-- j3417666575 -->
<g id="node10" class="node">
<title>j3417666575</title>
<polygon fill="none" stroke="blue" points="867,-562.5 268.25,-562.5 268.25,-526.5 867,-526.5 867,-562.5"/>
<text xml:space="preserve" text-anchor="middle" x="567.62" y="-539.08" font-family="Times New Roman,serif" font-size="14.00">我竟能如此轻率地向你倾吐灵魂的真相，而你却只是敞开心扉，将这一切承受下来。</text>
</g>
<!-- j725796693&#45;&gt;j3417666575 -->
<g id="edge11" class="edge">
<title>j725796693&#45;&gt;j3417666575</title>
<path fill="none" stroke="black" d="M446.01,-599.13C467.65,-589.59 494.7,-577.66 517.79,-567.48"/>
<polygon fill="black" stroke="black" points="518.97,-570.78 526.7,-563.55 516.14,-564.38 518.97,-570.78"/>
</g>
<!-- j158228638 -->
<g id="node11" class="node">
<title>j158228638</title>
<polygon fill="none" stroke="blue" points="1537,-562.5 938.25,-562.5 938.25,-526.5 1537,-526.5 1537,-562.5"/>
<text xml:space="preserve" text-anchor="middle" x="1237.62" y="-539.08" font-family="Times New Roman,serif" font-size="14.00">我竟能如此轻率地向你倾吐灵魂的真相，而你却只是张开双臂，将这一切承受下来。</text>
</g>
<!-- j1950309832&#45;&gt;j158228638 -->
<g id="edge12" class="edge">
<title>j1950309832&#45;&gt;j158228638</title>
<path fill="none" stroke="black" d="M1237.62,-599.31C1237.62,-591.73 1237.62,-582.6 1237.62,-574.04"/>
<polygon fill="black" stroke="black" points="1241.13,-574.04 1237.63,-564.04 1234.13,-574.04 1241.13,-574.04"/>
</g>
<!-- j2374113008 -->
<g id="node12" class="node">
<title>j2374113008</title>
<polygon fill="none" stroke="blue" points="2196.38,-562.5 1896.88,-562.5 1896.88,-526.5 2196.38,-526.5 2196.38,-562.5"/>
<text xml:space="preserve" text-anchor="middle" x="2046.62" y="-539.08" font-family="Times New Roman,serif" font-size="14.00">对于你给予我的所有耐心，我感激不尽。</text>
</g>
<!-- j1983183781&#45;&gt;j2374113008 -->
<g id="edge13" class="edge">
<title>j1983183781&#45;&gt;j2374113008</title>
<path fill="none" stroke="black" d="M2046.62,-599.31C2046.62,-591.73 2046.62,-582.6 2046.62,-574.04"/>
<polygon fill="black" stroke="black" points="2050.13,-574.04 2046.63,-564.04 2043.13,-574.04 2050.13,-574.04"/>
</g>
<!-- j2463200108&#45;&gt;j2374113008 -->
<g id="edge14" class="edge">
<title>j2463200108&#45;&gt;j2374113008</title>
<path fill="none" stroke="black" d="M2534.52,-599.04C2435.27,-588.15 2307.89,-574.17 2208.18,-563.23"/>
<polygon fill="black" stroke="black" points="2208.6,-559.75 2198.28,-562.14 2207.84,-566.71 2208.6,-559.75"/>
</g>
<!-- j810160347 -->
<g id="node13" class="node">
<title>j810160347</title>
<ellipse fill="none" stroke="orange" cx="1237.62" cy="-471.5" rx="88.71" ry="18"/>
<text xml:space="preserve" text-anchor="middle" x="1237.62" y="-466.45" font-family="Times New Roman,serif" font-size="14.00">Evaluate expressions</text>
</g>
<!-- j3417666575&#45;&gt;j810160347 -->
<g id="edge15" class="edge">
<title>j3417666575&#45;&gt;j810160347</title>
<path fill="none" stroke="black" d="M732.38,-526.04C863.98,-512.1 1043.3,-493.09 1149.13,-481.88"/>
<polygon fill="black" stroke="black" points="1149.32,-485.38 1158.89,-480.84 1148.58,-478.42 1149.32,-485.38"/>
</g>
<!-- j158228638&#45;&gt;j810160347 -->
<g id="edge16" class="edge">
<title>j158228638&#45;&gt;j810160347</title>
<path fill="none" stroke="black" d="M1237.62,-526.31C1237.62,-518.73 1237.62,-509.6 1237.62,-501.04"/>
<polygon fill="black" stroke="black" points="1241.13,-501.04 1237.63,-491.04 1234.13,-501.04 1241.13,-501.04"/>
</g>
<!-- j2374113008&#45;&gt;j810160347 -->
<g id="edge17" class="edge">
<title>j2374113008&#45;&gt;j810160347</title>
<path fill="none" stroke="black" d="M1896.83,-530.35C1730.45,-515.75 1467.15,-492.64 1329.05,-480.52"/>
<polygon fill="black" stroke="black" points="1329.48,-477.05 1319.22,-479.66 1328.87,-484.02 1329.48,-477.05"/>
</g>
<!-- j1556362622 -->
<g id="node14" class="node">
<title>j1556362622</title>
<polygon fill="none" stroke="blue" points="532.88,-401 20.38,-401 20.38,-365 532.88,-365 532.88,-401"/>
<text xml:space="preserve" text-anchor="middle" x="276.62" y="-378.32" font-family="Times New Roman,serif" font-size="14.00">Mon miracle，我将跪于你的圣坛前，成为最虔诚、最忠诚的仆人与战士。</text>
</g>
<!-- j810160347&#45;&gt;j1556362622 -->
<g id="edge18" class="edge">
<title>j810160347&#45;&gt;j1556362622</title>
<path fill="none" stroke="purple" d="M1157.75,-463.31C1010.74,-450.08 693.06,-421.48 482.06,-402.49"/>
<polygon fill="purple" stroke="purple" points="482.62,-399.03 472.35,-401.62 482,-406 482.62,-399.03"/>
<text xml:space="preserve" text-anchor="middle" x="875.45" y="-422.2" font-family="Times New Roman,serif" font-size="14.00">LyonDating</text>
</g>
<!-- j3060011472 -->
<g id="node15" class="node">
<title>j3060011472</title>
<polygon fill="none" stroke="blue" points="1228.38,-401 550.88,-401 550.88,-365 1228.38,-365 1228.38,-401"/>
<text xml:space="preserve" text-anchor="middle" x="889.62" y="-377.57" font-family="Times New Roman,serif" font-size="14.00">我的朋友，无论发生什么，我都会与你并肩作战。你已偷走我妹妹的心，我怎能不竭力守护你？</text>
</g>
<!-- j810160347&#45;&gt;j3060011472 -->
<g id="edge19" class="edge">
<title>j810160347&#45;&gt;j3060011472</title>
<path fill="none" stroke="purple" d="M1183.25,-456.98C1126.33,-442.84 1036.3,-420.46 970.93,-404.21"/>
<polygon fill="purple" stroke="purple" points="971.86,-400.83 961.31,-401.82 970.17,-407.63 971.86,-400.83"/>
<text xml:space="preserve" text-anchor="middle" x="1129.67" y="-422.2" font-family="Times New Roman,serif" font-size="14.00">MarieDating</text>
</g>
<!-- j2314511059 -->
<g id="node16" class="node">
<title>j2314511059</title>
<polygon fill="none" stroke="blue" points="1924.38,-401 1246.88,-401 1246.88,-365 1924.38,-365 1924.38,-401"/>
<text xml:space="preserve" text-anchor="middle" x="1585.62" y="-377.57" font-family="Times New Roman,serif" font-size="14.00">我的朋友，无论发生什么，我都会与你并肩作战。你竟能驯服恶魔本身，我怎能不竭力守护你？</text>
</g>
<!-- j810160347&#45;&gt;j2314511059 -->
<g id="edge20" class="edge">
<title>j810160347&#45;&gt;j2314511059</title>
<path fill="none" stroke="purple" d="M1292,-456.98C1348.92,-442.84 1438.95,-420.46 1504.32,-404.21"/>
<polygon fill="purple" stroke="purple" points="1505.08,-407.63 1513.94,-401.82 1503.39,-400.83 1505.08,-407.63"/>
<text xml:space="preserve" text-anchor="middle" x="1480.29" y="-422.2" font-family="Times New Roman,serif" font-size="14.00">RoatheDating</text>
</g>
<!-- j3070186404 -->
<g id="node17" class="node">
<title>j3070186404</title>
<polygon fill="none" stroke="blue" points="2304.88,-401 1942.38,-401 1942.38,-365 2304.88,-365 2304.88,-401"/>
<text xml:space="preserve" text-anchor="middle" x="2123.62" y="-377.57" font-family="Times New Roman,serif" font-size="14.00">我的朋友，无论发生什么，我都会与你并肩作战。</text>
</g>
<!-- j810160347&#45;&gt;j3070186404 -->
<g id="edge21" class="edge">
<title>j810160347&#45;&gt;j3070186404</title>
<path fill="none" stroke="purple" d="M1316.25,-462.82C1453.59,-449.42 1740.85,-421.37 1933.02,-402.61"/>
<polygon fill="purple" stroke="purple" points="1933.27,-406.1 1942.88,-401.65 1932.59,-399.13 1933.27,-406.1"/>
<text xml:space="preserve" text-anchor="middle" x="1772.73" y="-422.2" font-family="Times New Roman,serif" font-size="14.00">false</text>
</g>
<!-- j2651708868 -->
<g id="node18" class="node">
<title>j2651708868</title>
<polygon fill="none" stroke="blue" points="938.88,-328 390.38,-328 390.38,-292 938.88,-292 938.88,-328"/>
<text xml:space="preserve" text-anchor="middle" x="664.62" y="-305.32" font-family="Times New Roman,serif" font-size="14.00">无论你将去往何方。无论你将要面对怎样的战斗。无论你的心将流连何处——</text>
</g>
<!-- j1556362622&#45;&gt;j2651708868 -->
<g id="edge22" class="edge">
<title>j1556362622&#45;&gt;j2651708868</title>
<path fill="none" stroke="black" d="M372.04,-364.54C428.43,-354.22 499.95,-341.13 558.16,-330.48"/>
<polygon fill="black" stroke="black" points="558.55,-333.97 567.76,-328.73 557.29,-327.08 558.55,-333.97"/>
</g>
<!-- j3689220823 -->
<g id="node19" class="node">
<title>j3689220823</title>
<polygon fill="none" stroke="blue" points="1496.12,-328 979.12,-328 979.12,-292 1496.12,-292 1496.12,-328"/>
<text xml:space="preserve" text-anchor="middle" x="1237.62" y="-305.32" font-family="Times New Roman,serif" font-size="14.00">无论你身处何方，无论你将要面对怎样的战斗——我都会与你并肩而立。</text>
</g>
<!-- j3060011472&#45;&gt;j3689220823 -->
<g id="edge23" class="edge">
<title>j3060011472&#45;&gt;j3689220823</title>
<path fill="none" stroke="black" d="M975.2,-364.54C1025.36,-354.31 1088.86,-341.35 1140.83,-330.75"/>
<polygon fill="black" stroke="black" points="1141.5,-334.18 1150.6,-328.76 1140.1,-327.33 1141.5,-334.18"/>
</g>
<!-- j2314511059&#45;&gt;j3689220823 -->
<g id="edge24" class="edge">
<title>j2314511059&#45;&gt;j3689220823</title>
<path fill="none" stroke="black" d="M1500.05,-364.54C1449.89,-354.31 1386.39,-341.35 1334.42,-330.75"/>
<polygon fill="black" stroke="black" points="1335.15,-327.33 1324.65,-328.76 1333.75,-334.18 1335.15,-327.33"/>
</g>
<!-- j3070186404&#45;&gt;j3689220823 -->
<g id="edge25" class="edge">
<title>j3070186404&#45;&gt;j3689220823</title>
<path fill="none" stroke="black" d="M1942.11,-365.71C1939.26,-365.47 1936.43,-365.23 1933.62,-365 1784.14,-352.51 1616.51,-339.48 1483.22,-329.34"/>
<polygon fill="black" stroke="black" points="1483.81,-325.88 1473.57,-328.61 1483.28,-332.86 1483.81,-325.88"/>
</g>
<!-- j855044966 -->
<g id="node20" class="node">
<title>j855044966</title>
<polygon fill="none" stroke="blue" points="1072.75,-255 946.5,-255 946.5,-219 1072.75,-219 1072.75,-255"/>
<text xml:space="preserve" text-anchor="middle" x="1009.62" y="-231.57" font-family="Times New Roman,serif" font-size="14.00">这颗心属于你。</text>
</g>
<!-- j2651708868&#45;&gt;j855044966 -->
<g id="edge26" class="edge">
<title>j2651708868&#45;&gt;j855044966</title>
<path fill="none" stroke="black" d="M749.46,-291.54C806.3,-279.84 880.43,-264.59 935.01,-253.36"/>
<polygon fill="black" stroke="black" points="935.43,-256.84 944.52,-251.4 934.02,-249.99 935.43,-256.84"/>
</g>
<!-- j524153281 -->
<g id="node21" class="node">
<title>j524153281</title>
<polygon fill="none" stroke="blue" points="1182.62,-182 1040.62,-182 1040.62,-146 1182.62,-146 1182.62,-182"/>
<text xml:space="preserve" text-anchor="middle" x="1111.62" y="-158.57" font-family="Times New Roman,serif" font-size="14.00">请对此坚信不疑。</text>
</g>
<!-- j3689220823&#45;&gt;j524153281 -->
<g id="edge27" class="edge">
<title>j3689220823&#45;&gt;j524153281</title>
<path fill="none" stroke="black" d="M1222.43,-291.63C1200.48,-266.55 1159.76,-220.01 1134.26,-190.87"/>
<polygon fill="black" stroke="black" points="1137.09,-188.79 1127.87,-183.57 1131.83,-193.4 1137.09,-188.79"/>
</g>
<!-- j855044966&#45;&gt;j524153281 -->
<g id="edge28" class="edge">
<title>j855044966&#45;&gt;j524153281</title>
<path fill="none" stroke="black" d="M1034.58,-218.63C1047.42,-209.69 1063.27,-198.66 1077.26,-188.92"/>
<polygon fill="black" stroke="black" points="1079.13,-191.89 1085.33,-183.3 1075.13,-186.14 1079.13,-191.89"/>
</g>
<!-- j3657611099 -->
<g id="node22" class="node">
<title>j3657611099</title>
<polygon fill="none" stroke="blue" points="1149.62,-109 1073.62,-109 1073.62,-73 1149.62,-73 1149.62,-109"/>
<text xml:space="preserve" text-anchor="middle" x="1111.62" y="-86.33" font-family="Times New Roman,serif" font-size="14.00">——里昂</text>
</g>
<!-- j524153281&#45;&gt;j3657611099 -->
<g id="edge29" class="edge">
<title>j524153281&#45;&gt;j3657611099</title>
<path fill="none" stroke="black" d="M1111.62,-145.81C1111.62,-138.23 1111.62,-129.1 1111.62,-120.54"/>
<polygon fill="black" stroke="black" points="1115.13,-120.54 1111.63,-110.54 1108.13,-120.54 1115.13,-120.54"/>
</g>
<!-- Chat ends. -->
<g id="node23" class="node">
<title>Chat ends.</title>
<ellipse fill="none" stroke="orange" cx="1111.62" cy="-18" rx="50.33" ry="18"/>
<text xml:space="preserve" text-anchor="middle" x="1111.62" y="-12.95" font-family="Times New Roman,serif" font-size="14.00">Chat ends.</text>
</g>
<!-- j3657611099&#45;&gt;Chat ends. -->
<g id="edge30" class="edge">
<title>j3657611099&#45;&gt;Chat ends.</title>
<path fill="none" stroke="black" d="M1111.62,-72.81C1111.62,-65.23 1111.62,-56.1 1111.62,-47.54"/>
<polygon fill="black" stroke="black" points="1115.13,-47.54 1111.63,-37.54 1108.13,-47.54 1115.13,-47.54"/>
</g>
</g>
</svg>
