<?xml version="1.0" encoding="UTF-8" standalone="no"?>
<!DOCTYPE svg PUBLIC "-//W3C//DTD SVG 1.1//EN"
 "http://www.w3.org/Graphics/SVG/1.1/DTD/svg11.dtd">
<!-- Generated by graphviz version 7.1.0 (20230121.1956)
 -->
<!-- Pages: 1 -->
<svg width="450pt" height="836pt"
 viewBox="0.00 0.00 449.50 836.00" xmlns="http://www.w3.org/2000/svg" xmlns:xlink="http://www.w3.org/1999/xlink">
<g id="graph0" class="graph" transform="scale(1 1) rotate(0) translate(4 832)">
<polygon fill="white" stroke="none" points="-4,4 -4,-832 445.5,-832 445.5,4 -4,4"/>
<!-- ArthurSpaghetti begins. -->
<g id="node1" class="node">
<title>ArthurSpaghetti begins.</title>
<ellipse fill="none" stroke="orange" cx="221" cy="-810" rx="96.38" ry="18"/>
<text text-anchor="middle" x="221" y="-806.3" font-family="Times New Roman,serif" font-size="14.00">ArthurSpaghetti begins.</text>
</g>
<!-- j3008669566 -->
<g id="node2" class="node">
<title>j3008669566</title>
<polygon fill="none" stroke="blue" points="268,-756 174,-756 174,-720 268,-720 268,-756"/>
<text text-anchor="middle" x="221" y="-734.3" font-family="Times New Roman,serif" font-size="14.00">Você tá bem?</text>
</g>
<!-- ArthurSpaghetti begins.&#45;&gt;j3008669566 -->
<g id="edge1" class="edge">
<title>ArthurSpaghetti begins.&#45;&gt;j3008669566</title>
<path fill="none" stroke="black" d="M221,-791.7C221,-784.41 221,-775.73 221,-767.54"/>
<polygon fill="black" stroke="black" points="224.5,-767.62 221,-757.62 217.5,-767.62 224.5,-767.62"/>
</g>
<!-- j427446458 -->
<g id="node3" class="node">
<title>j427446458</title>
<polygon fill="none" stroke="red" points="192.5,-684 39.5,-684 39.5,-648 192.5,-648 192.5,-684"/>
<text text-anchor="middle" x="116" y="-662.3" font-family="Times New Roman,serif" font-size="14.00">ARTHUR, POR QUÊ?!</text>
</g>
<!-- j3008669566&#45;&gt;j427446458 -->
<g id="edge2" class="edge">
<title>j3008669566&#45;&gt;j427446458</title>
<path fill="none" stroke="black" d="M194.77,-719.52C181.65,-710.76 165.57,-700.04 151.36,-690.58"/>
<polygon fill="black" stroke="black" points="153.41,-687.73 143.15,-685.1 149.53,-693.56 153.41,-687.73"/>
</g>
<!-- j3718987659 -->
<g id="node4" class="node">
<title>j3718987659</title>
<polygon fill="none" stroke="red" points="441.5,-684 210.5,-684 210.5,-648 441.5,-648 441.5,-684"/>
<text text-anchor="middle" x="326" y="-662.3" font-family="Times New Roman,serif" font-size="14.00">A textura… meu senhor, que horror…</text>
</g>
<!-- j3008669566&#45;&gt;j3718987659 -->
<g id="edge3" class="edge">
<title>j3008669566&#45;&gt;j3718987659</title>
<path fill="none" stroke="black" d="M247.23,-719.52C260.35,-710.76 276.43,-700.04 290.64,-690.58"/>
<polygon fill="black" stroke="black" points="292.47,-693.56 298.85,-685.1 288.59,-687.73 292.47,-693.56"/>
</g>
<!-- j3927219287 -->
<g id="node5" class="node">
<title>j3927219287</title>
<polygon fill="none" stroke="blue" points="409,-612 33,-612 33,-576 409,-576 409,-612"/>
<text text-anchor="middle" x="221" y="-590.3" font-family="Times New Roman,serif" font-size="14.00">Eu sei, o macarrão quadrado não ficou aquelas mil maravilhas…</text>
</g>
<!-- j427446458&#45;&gt;j3927219287 -->
<g id="edge4" class="edge">
<title>j427446458&#45;&gt;j3927219287</title>
<path fill="none" stroke="black" d="M142.23,-647.52C155.35,-638.76 171.43,-628.04 185.64,-618.58"/>
<polygon fill="black" stroke="black" points="187.47,-621.56 193.85,-613.1 183.59,-615.73 187.47,-621.56"/>
</g>
<!-- j3718987659&#45;&gt;j3927219287 -->
<g id="edge5" class="edge">
<title>j3718987659&#45;&gt;j3927219287</title>
<path fill="none" stroke="black" d="M299.77,-647.52C286.65,-638.76 270.57,-628.04 256.36,-618.58"/>
<polygon fill="black" stroke="black" points="258.41,-615.73 248.15,-613.1 254.53,-621.56 258.41,-615.73"/>
</g>
<!-- j2832028973 -->
<g id="node6" class="node">
<title>j2832028973</title>
<polygon fill="none" stroke="red" points="228,-540 0,-540 0,-504 228,-504 228,-540"/>
<text text-anchor="middle" x="114" y="-518.3" font-family="Times New Roman,serif" font-size="14.00">COMO ELE VIROU BORRACHA?!</text>
</g>
<!-- j3927219287&#45;&gt;j2832028973 -->
<g id="edge6" class="edge">
<title>j3927219287&#45;&gt;j2832028973</title>
<path fill="none" stroke="black" d="M194.28,-575.52C180.77,-566.68 164.19,-555.84 149.62,-546.3"/>
<polygon fill="black" stroke="black" points="151.94,-543.63 141.65,-541.09 148.1,-549.49 151.94,-543.63"/>
</g>
<!-- j773529035 -->
<g id="node7" class="node">
<title>j773529035</title>
<polygon fill="none" stroke="red" points="412,-540 246,-540 246,-504 412,-504 412,-540"/>
<text text-anchor="middle" x="329" y="-518.3" font-family="Times New Roman,serif" font-size="14.00">Por que você me odeia…?</text>
</g>
<!-- j3927219287&#45;&gt;j773529035 -->
<g id="edge7" class="edge">
<title>j3927219287&#45;&gt;j773529035</title>
<path fill="none" stroke="black" d="M247.97,-575.52C261.61,-566.68 278.34,-555.84 293.05,-546.3"/>
<polygon fill="black" stroke="black" points="294.61,-549.46 301.1,-541.08 290.8,-543.59 294.61,-549.46"/>
</g>
<!-- j1655787804 -->
<g id="node8" class="node">
<title>j1655787804</title>
<polygon fill="none" stroke="blue" points="377.5,-468 64.5,-468 64.5,-432 377.5,-432 377.5,-468"/>
<text text-anchor="middle" x="221" y="-446.3" font-family="Times New Roman,serif" font-size="14.00">Coloquei muita gelatina… o próximo vai ficar divino </text>
</g>
<!-- j2832028973&#45;&gt;j1655787804 -->
<g id="edge8" class="edge">
<title>j2832028973&#45;&gt;j1655787804</title>
<path fill="none" stroke="black" d="M140.72,-503.52C154.23,-494.68 170.81,-483.84 185.38,-474.3"/>
<polygon fill="black" stroke="black" points="186.9,-477.49 193.35,-469.09 183.06,-471.63 186.9,-477.49"/>
</g>
<!-- j773529035&#45;&gt;j1655787804 -->
<g id="edge9" class="edge">
<title>j773529035&#45;&gt;j1655787804</title>
<path fill="none" stroke="black" d="M302.03,-503.52C288.39,-494.68 271.66,-483.84 256.95,-474.3"/>
<polygon fill="black" stroke="black" points="259.2,-471.59 248.9,-469.08 255.39,-477.46 259.2,-471.59"/>
</g>
<!-- j352552021 -->
<g id="node9" class="node">
<title>j352552021</title>
<polygon fill="none" stroke="red" points="232.5,-396 39.5,-396 39.5,-360 232.5,-360 232.5,-396"/>
<text text-anchor="middle" x="136" y="-374.3" font-family="Times New Roman,serif" font-size="14.00">NÃO VAI TER O PRÓXIMO!</text>
</g>
<!-- j1655787804&#45;&gt;j352552021 -->
<g id="edge10" class="edge">
<title>j1655787804&#45;&gt;j352552021</title>
<path fill="none" stroke="black" d="M199.99,-431.7C189.67,-423.2 177.06,-412.81 165.77,-403.51"/>
<polygon fill="black" stroke="black" points="168.18,-400.96 158.23,-397.31 163.73,-406.37 168.18,-400.96"/>
</g>
<!-- j3116543133 -->
<g id="node10" class="node">
<title>j3116543133</title>
<polygon fill="none" stroke="red" points="363,-396 251,-396 251,-360 363,-360 363,-396"/>
<text text-anchor="middle" x="307" y="-374.3" font-family="Times New Roman,serif" font-size="14.00">Por favor, não…</text>
</g>
<!-- j1655787804&#45;&gt;j3116543133 -->
<g id="edge11" class="edge">
<title>j1655787804&#45;&gt;j3116543133</title>
<path fill="none" stroke="black" d="M242.26,-431.7C252.7,-423.2 265.46,-412.81 276.88,-403.51"/>
<polygon fill="black" stroke="black" points="278.97,-406.33 284.51,-397.3 274.55,-400.9 278.97,-406.33"/>
</g>
<!-- j2960414798 -->
<g id="node11" class="node">
<title>j2960414798</title>
<polygon fill="none" stroke="blue" points="419.5,-324 22.5,-324 22.5,-288 419.5,-288 419.5,-324"/>
<text text-anchor="middle" x="221" y="-302.3" font-family="Times New Roman,serif" font-size="14.00">Vou te fazer uma sopinha. Sopa normal, sem ser quadrada. Que tal?</text>
</g>
<!-- j352552021&#45;&gt;j2960414798 -->
<g id="edge12" class="edge">
<title>j352552021&#45;&gt;j2960414798</title>
<path fill="none" stroke="black" d="M157.01,-359.7C167.33,-351.2 179.94,-340.81 191.23,-331.51"/>
<polygon fill="black" stroke="black" points="193.27,-334.37 198.77,-325.31 188.82,-328.96 193.27,-334.37"/>
</g>
<!-- j3116543133&#45;&gt;j2960414798 -->
<g id="edge13" class="edge">
<title>j3116543133&#45;&gt;j2960414798</title>
<path fill="none" stroke="black" d="M285.74,-359.7C275.3,-351.2 262.54,-340.81 251.12,-331.51"/>
<polygon fill="black" stroke="black" points="253.45,-328.9 243.49,-325.3 249.03,-334.33 253.45,-328.9"/>
</g>
<!-- j696660250 -->
<g id="node12" class="node">
<title>j696660250</title>
<polygon fill="none" stroke="red" points="212.5,-252 61.5,-252 61.5,-216 212.5,-216 212.5,-252"/>
<text text-anchor="middle" x="137" y="-230.3" font-family="Times New Roman,serif" font-size="14.00">CHEGA DE VENENO!</text>
</g>
<!-- j2960414798&#45;&gt;j696660250 -->
<g id="edge14" class="edge">
<title>j2960414798&#45;&gt;j696660250</title>
<path fill="none" stroke="black" d="M200.24,-287.7C190.04,-279.2 177.58,-268.81 166.42,-259.51"/>
<polygon fill="black" stroke="black" points="168.9,-257.03 158.98,-253.32 164.42,-262.41 168.9,-257.03"/>
</g>
<!-- j865525929 -->
<g id="node13" class="node">
<title>j865525929</title>
<polygon fill="none" stroke="red" points="380,-252 232,-252 232,-216 380,-216 380,-252"/>
<text text-anchor="middle" x="306" y="-230.3" font-family="Times New Roman,serif" font-size="14.00">Tá… mas sem gelatina!</text>
</g>
<!-- j2960414798&#45;&gt;j865525929 -->
<g id="edge15" class="edge">
<title>j2960414798&#45;&gt;j865525929</title>
<path fill="none" stroke="black" d="M242.01,-287.7C252.33,-279.2 264.94,-268.81 276.23,-259.51"/>
<polygon fill="black" stroke="black" points="278.27,-262.37 283.77,-253.31 273.82,-256.96 278.27,-262.37"/>
</g>
<!-- j2811503058 -->
<g id="node14" class="node">
<title>j2811503058</title>
<ellipse fill="none" stroke="orange" cx="132" cy="-162" rx="64.19" ry="18"/>
<text text-anchor="middle" x="132" y="-158.3" font-family="Times New Roman,serif" font-size="14.00">+20 Chemistry</text>
</g>
<!-- j696660250&#45;&gt;j2811503058 -->
<g id="edge16" class="edge">
<title>j696660250&#45;&gt;j2811503058</title>
<path fill="none" stroke="black" d="M135.76,-215.7C135.24,-208.41 134.62,-199.73 134.04,-191.54"/>
<polygon fill="black" stroke="black" points="137.53,-191.34 133.33,-181.61 130.55,-191.84 137.53,-191.34"/>
</g>
<!-- j2795197078 -->
<g id="node15" class="node">
<title>j2795197078</title>
<ellipse fill="none" stroke="orange" cx="307" cy="-162" rx="64.19" ry="18"/>
<text text-anchor="middle" x="307" y="-158.3" font-family="Times New Roman,serif" font-size="14.00">+20 Chemistry</text>
</g>
<!-- j865525929&#45;&gt;j2795197078 -->
<g id="edge17" class="edge">
<title>j865525929&#45;&gt;j2795197078</title>
<path fill="none" stroke="black" d="M306.25,-215.7C306.35,-208.41 306.48,-199.73 306.59,-191.54"/>
<polygon fill="black" stroke="black" points="310.09,-191.67 306.73,-181.62 303.09,-191.57 310.09,-191.67"/>
</g>
<!-- j3211554879 -->
<g id="node16" class="node">
<title>j3211554879</title>
<polygon fill="none" stroke="blue" points="246.5,-108 13.5,-108 13.5,-72 246.5,-72 246.5,-108"/>
<text text-anchor="middle" x="130" y="-86.3" font-family="Times New Roman,serif" font-size="14.00">Veneno não é meu forte, pode confiar </text>
</g>
<!-- j2811503058&#45;&gt;j3211554879 -->
<g id="edge18" class="edge">
<title>j2811503058&#45;&gt;j3211554879</title>
<path fill="none" stroke="black" d="M131.51,-143.7C131.3,-136.41 131.05,-127.73 130.82,-119.54"/>
<polygon fill="black" stroke="black" points="134.32,-119.51 130.53,-109.62 127.32,-119.71 134.32,-119.51"/>
</g>
<!-- j3940121668 -->
<g id="node17" class="node">
<title>j3940121668</title>
<polygon fill="none" stroke="blue" points="351.5,-108 264.5,-108 264.5,-72 351.5,-72 351.5,-108"/>
<text text-anchor="middle" x="308" y="-86.3" font-family="Times New Roman,serif" font-size="14.00">Pode deixar </text>
</g>
<!-- j2795197078&#45;&gt;j3940121668 -->
<g id="edge19" class="edge">
<title>j2795197078&#45;&gt;j3940121668</title>
<path fill="none" stroke="black" d="M307.25,-143.7C307.35,-136.41 307.48,-127.73 307.59,-119.54"/>
<polygon fill="black" stroke="black" points="311.09,-119.67 307.73,-109.62 304.09,-119.57 311.09,-119.67"/>
</g>
<!-- Chat ends. -->
<g id="node18" class="node">
<title>Chat ends.</title>
<ellipse fill="none" stroke="orange" cx="219" cy="-18" rx="50.09" ry="18"/>
<text text-anchor="middle" x="219" y="-14.3" font-family="Times New Roman,serif" font-size="14.00">Chat ends.</text>
</g>
<!-- j3211554879&#45;&gt;Chat ends. -->
<g id="edge20" class="edge">
<title>j3211554879&#45;&gt;Chat ends.</title>
<path fill="none" stroke="black" d="M152,-71.7C163.4,-62.73 177.48,-51.65 189.79,-41.98"/>
<polygon fill="black" stroke="black" points="191.89,-44.78 197.59,-35.84 187.56,-39.27 191.89,-44.78"/>
</g>
<!-- j3940121668&#45;&gt;Chat ends. -->
<g id="edge21" class="edge">
<title>j3940121668&#45;&gt;Chat ends.</title>
<path fill="none" stroke="black" d="M286,-71.7C274.6,-62.73 260.52,-51.65 248.21,-41.98"/>
<polygon fill="black" stroke="black" points="250.44,-39.27 240.41,-35.84 246.11,-44.78 250.44,-39.27"/>
</g>
</g>
</svg>
