<?xml version="1.0" encoding="UTF-8" standalone="no"?>
<!DOCTYPE svg PUBLIC "-//W3C//DTD SVG 1.1//EN"
 "http://www.w3.org/Graphics/SVG/1.1/DTD/svg11.dtd">
<!-- Generated by graphviz version 7.1.0 (20230121.1956)
 -->
<!-- Pages: 1 -->
<svg width="2083pt" height="1617pt"
 viewBox="0.00 0.00 2083.00 1617.00" xmlns="http://www.w3.org/2000/svg" xmlns:xlink="http://www.w3.org/1999/xlink">
<g id="graph0" class="graph" transform="scale(1 1) rotate(0) translate(4 1613)">
<polygon fill="white" stroke="none" points="-4,4 -4,-1613 2079,-1613 2079,4 -4,4"/>
<!-- AmirRank1Convo4 begins. -->
<g id="node1" class="node">
<title>AmirRank1Convo4 begins.</title>
<ellipse fill="none" stroke="orange" cx="1140" cy="-1591" rx="109.68" ry="18"/>
<text text-anchor="middle" x="1140" y="-1587.3" font-family="Times New Roman,serif" font-size="14.00">AmirRank1Convo4 begins.</text>
</g>
<!-- j1021118572 -->
<g id="node2" class="node">
<title>j1021118572</title>
<polygon fill="none" stroke="red" points="1447,-1536 1157,-1536 1157,-1500 1447,-1500 1447,-1536"/>
<text text-anchor="middle" x="1302" y="-1514.3" font-family="Times New Roman,serif" font-size="14.00">Então, qual é o problema entre você e o Quincy?</text>
</g>
<!-- AmirRank1Convo4 begins.&#45;&gt;j1021118572 -->
<g id="edge1" class="edge">
<title>AmirRank1Convo4 begins.&#45;&gt;j1021118572</title>
<path fill="none" stroke="black" d="M1177.17,-1573.71C1199.3,-1564.01 1227.68,-1551.57 1251.79,-1541.01"/>
<polygon fill="black" stroke="black" points="1253.04,-1544.28 1260.79,-1537.06 1250.23,-1537.87 1253.04,-1544.28"/>
</g>
<!-- j589915487 -->
<g id="node3" class="node">
<title>j589915487</title>
<polygon fill="none" stroke="red" points="1209,-1482 1045,-1482 1045,-1446 1209,-1446 1209,-1482"/>
<text text-anchor="middle" x="1127" y="-1460.3" font-family="Times New Roman,serif" font-size="14.00">Me conta mais sobre você</text>
</g>
<!-- AmirRank1Convo4 begins.&#45;&gt;j589915487 -->
<g id="edge2" class="edge">
<title>AmirRank1Convo4 begins.&#45;&gt;j589915487</title>
<path fill="none" stroke="black" d="M1138.19,-1572.62C1136.07,-1552.19 1132.51,-1517.99 1129.98,-1493.62"/>
<polygon fill="black" stroke="black" points="1133.46,-1493.32 1128.95,-1483.74 1126.5,-1494.05 1133.46,-1493.32"/>
</g>
<!-- j1269873654 -->
<g id="node4" class="node">
<title>j1269873654</title>
<polygon fill="none" stroke="blue" points="1422,-1428 1184,-1428 1184,-1392 1422,-1392 1422,-1428"/>
<text text-anchor="middle" x="1303" y="-1406.3" font-family="Times New Roman,serif" font-size="14.00">ele é um babaca e fedorento… as vezes</text>
</g>
<!-- j1021118572&#45;&gt;j1269873654 -->
<g id="edge3" class="edge">
<title>j1021118572&#45;&gt;j1269873654</title>
<path fill="none" stroke="black" d="M1302.16,-1499.97C1302.31,-1483.76 1302.55,-1459.06 1302.73,-1439.79"/>
<polygon fill="black" stroke="black" points="1306.23,-1439.89 1302.82,-1429.85 1299.23,-1439.82 1306.23,-1439.89"/>
</g>
<!-- j898003812 -->
<g id="node5" class="node">
<title>j898003812</title>
<polygon fill="none" stroke="blue" points="1205.5,-1374 1030.5,-1374 1030.5,-1338 1205.5,-1338 1205.5,-1374"/>
<text text-anchor="middle" x="1118" y="-1352.3" font-family="Times New Roman,serif" font-size="14.00">ih rapaz, eu? sério? aí ferrou</text>
</g>
<!-- j589915487&#45;&gt;j898003812 -->
<g id="edge4" class="edge">
<title>j589915487&#45;&gt;j898003812</title>
<path fill="none" stroke="black" d="M1125.55,-1445.97C1124.18,-1429.76 1122.08,-1405.06 1120.44,-1385.79"/>
<polygon fill="black" stroke="black" points="1123.93,-1385.52 1119.6,-1375.85 1116.96,-1386.11 1123.93,-1385.52"/>
</g>
<!-- j2339081543 -->
<g id="node6" class="node">
<title>j2339081543</title>
<polygon fill="none" stroke="blue" points="1371,-1320 1235,-1320 1235,-1284 1371,-1284 1371,-1320"/>
<text text-anchor="middle" x="1303" y="-1298.3" font-family="Times New Roman,serif" font-size="14.00">as vezes ele é firmeza</text>
</g>
<!-- j1269873654&#45;&gt;j2339081543 -->
<g id="edge5" class="edge">
<title>j1269873654&#45;&gt;j2339081543</title>
<path fill="none" stroke="black" d="M1303,-1391.97C1303,-1375.76 1303,-1351.06 1303,-1331.79"/>
<polygon fill="black" stroke="black" points="1306.5,-1331.85 1303,-1321.85 1299.5,-1331.85 1306.5,-1331.85"/>
</g>
<!-- j2931579232 -->
<g id="node7" class="node">
<title>j2931579232</title>
<polygon fill="none" stroke="blue" points="1233,-1266 937,-1266 937,-1230 1233,-1230 1233,-1266"/>
<text text-anchor="middle" x="1085" y="-1244.3" font-family="Times New Roman,serif" font-size="14.00">eu nn sei se vc realmente sabe como irritar alguem</text>
</g>
<!-- j898003812&#45;&gt;j2931579232 -->
<g id="edge6" class="edge">
<title>j898003812&#45;&gt;j2931579232</title>
<path fill="none" stroke="black" d="M1112.7,-1337.97C1107.6,-1321.61 1099.82,-1296.59 1093.79,-1277.24"/>
<polygon fill="black" stroke="black" points="1097.16,-1276.29 1090.85,-1267.79 1090.48,-1278.37 1097.16,-1276.29"/>
</g>
<!-- j3780864279 -->
<g id="node8" class="node">
<title>j3780864279</title>
<polygon fill="none" stroke="blue" points="1539,-1212 1069,-1212 1069,-1176 1539,-1176 1539,-1212"/>
<text text-anchor="middle" x="1304" y="-1190.3" font-family="Times New Roman,serif" font-size="14.00">eu odeio ele, mas faria tudo por ele, eh como um irmão q tenho vontade de matar</text>
</g>
<!-- j2339081543&#45;&gt;j3780864279 -->
<g id="edge7" class="edge">
<title>j2339081543&#45;&gt;j3780864279</title>
<path fill="none" stroke="black" d="M1303.16,-1283.97C1303.31,-1267.76 1303.55,-1243.06 1303.73,-1223.79"/>
<polygon fill="black" stroke="black" points="1307.23,-1223.89 1303.82,-1213.85 1300.23,-1223.82 1307.23,-1223.89"/>
</g>
<!-- j2029590793 -->
<g id="node9" class="node">
<title>j2029590793</title>
<polygon fill="none" stroke="blue" points="1188.5,-1158 887.5,-1158 887.5,-1122 1188.5,-1122 1188.5,-1158"/>
<text text-anchor="middle" x="1038" y="-1136.3" font-family="Times New Roman,serif" font-size="14.00">mas pode acreditar, eu sou ESPECIALISTA nisso</text>
</g>
<!-- j2931579232&#45;&gt;j2029590793 -->
<g id="edge8" class="edge">
<title>j2931579232&#45;&gt;j2029590793</title>
<path fill="none" stroke="black" d="M1070.86,-1229.53C1066.96,-1224.13 1062.99,-1218.02 1060,-1212 1053.3,-1198.5 1048.14,-1182.54 1044.5,-1169.17"/>
<polygon fill="black" stroke="black" points="1047.94,-1168.51 1042.07,-1159.69 1041.16,-1170.25 1047.94,-1168.51"/>
</g>
<!-- j2282316956 -->
<g id="node10" class="node">
<title>j2282316956</title>
<polygon fill="none" stroke="blue" points="1363.5,-1104 1288.5,-1104 1288.5,-1068 1363.5,-1068 1363.5,-1104"/>
<text text-anchor="middle" x="1326" y="-1082.3" font-family="Times New Roman,serif" font-size="14.00">lentamente</text>
</g>
<!-- j3780864279&#45;&gt;j2282316956 -->
<g id="edge9" class="edge">
<title>j3780864279&#45;&gt;j2282316956</title>
<path fill="none" stroke="black" d="M1307.53,-1175.97C1310.91,-1159.69 1316.07,-1134.82 1320.08,-1115.52"/>
<polygon fill="black" stroke="black" points="1323.49,-1116.33 1322.09,-1105.82 1316.63,-1114.9 1323.49,-1116.33"/>
</g>
<!-- j831853133 -->
<g id="node11" class="node">
<title>j831853133</title>
<polygon fill="none" stroke="blue" points="1180.5,-885 875.5,-885 875.5,-849 1180.5,-849 1180.5,-885"/>
<text text-anchor="middle" x="1028" y="-863.3" font-family="Times New Roman,serif" font-size="14.00">DO QUE A GENTE TAVA FALANDO MESMO?</text>
</g>
<!-- j2029590793&#45;&gt;j831853133 -->
<g id="edge10" class="edge">
<title>j2029590793&#45;&gt;j831853133</title>
<path fill="none" stroke="black" d="M1037.07,-1121.61C1036.19,-1103.68 1035,-1074.89 1035,-1050 1035,-1050 1035,-1050 1035,-939 1035,-924.96 1033.63,-909.44 1032.1,-896.5"/>
<polygon fill="black" stroke="black" points="1035.62,-896.44 1030.88,-886.96 1028.68,-897.32 1035.62,-896.44"/>
</g>
<!-- j147053003 -->
<g id="node12" class="node">
<title>j147053003</title>
<polygon fill="none" stroke="blue" points="1377,-1031 1283,-1031 1283,-995 1377,-995 1377,-1031"/>
<text text-anchor="middle" x="1330" y="-1009.3" font-family="Times New Roman,serif" font-size="14.00">repetidamente</text>
</g>
<!-- j2282316956&#45;&gt;j147053003 -->
<g id="edge11" class="edge">
<title>j2282316956&#45;&gt;j147053003</title>
<path fill="none" stroke="black" d="M1326.97,-1067.81C1327.4,-1060.14 1327.92,-1050.89 1328.41,-1042.24"/>
<polygon fill="black" stroke="black" points="1331.89,-1042.72 1328.96,-1032.54 1324.9,-1042.33 1331.89,-1042.72"/>
</g>
<!-- j976844345 -->
<g id="node13" class="node">
<title>j976844345</title>
<polygon fill="none" stroke="red" points="1393,-812 1275,-812 1275,-776 1393,-776 1393,-812"/>
<text text-anchor="middle" x="1334" y="-790.3" font-family="Times New Roman,serif" font-size="14.00">Minha nossa, cara</text>
</g>
<!-- j831853133&#45;&gt;j976844345 -->
<g id="edge12" class="edge">
<title>j831853133&#45;&gt;j976844345</title>
<path fill="none" stroke="black" d="M1103.25,-848.54C1152.34,-837.15 1215.97,-822.39 1263.97,-811.25"/>
<polygon fill="black" stroke="black" points="1264.47,-814.73 1273.42,-809.06 1262.89,-807.91 1264.47,-814.73"/>
</g>
<!-- j2629941010 -->
<g id="node14" class="node">
<title>j2629941010</title>
<polygon fill="none" stroke="red" points="1159,-812 773,-812 773,-776 1159,-776 1159,-812"/>
<text text-anchor="middle" x="966" y="-790.3" font-family="Times New Roman,serif" font-size="14.00">Eu tava te perguntando algo sobre você, tipo… comida preferida?</text>
</g>
<!-- j831853133&#45;&gt;j2629941010 -->
<g id="edge13" class="edge">
<title>j831853133&#45;&gt;j2629941010</title>
<path fill="none" stroke="black" d="M1012.99,-848.81C1005.6,-840.35 996.55,-829.98 988.37,-820.61"/>
<polygon fill="black" stroke="black" points="991.08,-818.4 981.87,-813.17 985.81,-823 991.08,-818.4"/>
</g>
<!-- j2127365075 -->
<g id="node15" class="node">
<title>j2127365075</title>
<polygon fill="none" stroke="red" points="651.5,-812 288.5,-812 288.5,-776 651.5,-776 651.5,-812"/>
<text text-anchor="middle" x="470" y="-790.3" font-family="Times New Roman,serif" font-size="14.00">Eu tava te perguntando algo sobre você, tipo… cor preferida?</text>
</g>
<!-- j831853133&#45;&gt;j2127365075 -->
<g id="edge14" class="edge">
<title>j831853133&#45;&gt;j2127365075</title>
<path fill="none" stroke="black" d="M890.78,-848.54C808.17,-838.03 702.97,-824.64 618.43,-813.89"/>
<polygon fill="black" stroke="black" points="619.03,-810.43 608.67,-812.64 618.15,-817.38 619.03,-810.43"/>
</g>
<!-- j3766559198 -->
<g id="node16" class="node">
<title>j3766559198</title>
<polygon fill="none" stroke="blue" points="1399.5,-958 1264.5,-958 1264.5,-922 1399.5,-922 1399.5,-958"/>
<text text-anchor="middle" x="1332" y="-936.3" font-family="Times New Roman,serif" font-size="14.00">com sorriso no rosto</text>
</g>
<!-- j147053003&#45;&gt;j3766559198 -->
<g id="edge15" class="edge">
<title>j147053003&#45;&gt;j3766559198</title>
<path fill="none" stroke="black" d="M1330.48,-994.81C1330.7,-987.14 1330.96,-977.89 1331.2,-969.24"/>
<polygon fill="black" stroke="black" points="1334.69,-969.64 1331.48,-959.54 1327.7,-969.44 1334.69,-969.64"/>
</g>
<!-- j3739346566 -->
<g id="node17" class="node">
<title>j3739346566</title>
<polygon fill="none" stroke="blue" points="1510.5,-739 1175.5,-739 1175.5,-703 1510.5,-703 1510.5,-739"/>
<text text-anchor="middle" x="1343" y="-717.3" font-family="Times New Roman,serif" font-size="14.00">ah perai isso eh demais pra mim nn da nao HAHAHAHA</text>
</g>
<!-- j976844345&#45;&gt;j3739346566 -->
<g id="edge16" class="edge">
<title>j976844345&#45;&gt;j3739346566</title>
<path fill="none" stroke="black" d="M1336.18,-775.81C1337.15,-768.14 1338.32,-758.89 1339.42,-750.24"/>
<polygon fill="black" stroke="black" points="1342.87,-750.89 1340.65,-740.53 1335.92,-750.01 1342.87,-750.89"/>
</g>
<!-- j4258560326 -->
<g id="node18" class="node">
<title>j4258560326</title>
<polygon fill="none" stroke="blue" points="1157.5,-739 742.5,-739 742.5,-703 1157.5,-703 1157.5,-739"/>
<text text-anchor="middle" x="950" y="-717.3" font-family="Times New Roman,serif" font-size="14.00">ah, molezinha! Pad Thai! :D aaaah, podemos sair pra comer Pad Thai?!</text>
</g>
<!-- j2629941010&#45;&gt;j4258560326 -->
<g id="edge17" class="edge">
<title>j2629941010&#45;&gt;j4258560326</title>
<path fill="none" stroke="black" d="M962.13,-775.81C960.4,-768.14 958.31,-758.89 956.36,-750.24"/>
<polygon fill="black" stroke="black" points="959.78,-749.49 954.17,-740.51 952.95,-751.03 959.78,-749.49"/>
</g>
<!-- j1320787777 -->
<g id="node19" class="node">
<title>j1320787777</title>
<polygon fill="none" stroke="blue" points="595,-739 341,-739 341,-703 595,-703 595,-739"/>
<text text-anchor="middle" x="468" y="-717.3" font-family="Times New Roman,serif" font-size="14.00">azul! combina com os raios e tudo mais…</text>
</g>
<!-- j2127365075&#45;&gt;j1320787777 -->
<g id="edge18" class="edge">
<title>j2127365075&#45;&gt;j1320787777</title>
<path fill="none" stroke="black" d="M469.52,-775.81C469.3,-768.14 469.04,-758.89 468.8,-750.24"/>
<polygon fill="black" stroke="black" points="472.3,-750.44 468.52,-740.54 465.31,-750.64 472.3,-750.44"/>
</g>
<!-- j1309476189 -->
<g id="node20" class="node">
<title>j1309476189</title>
<polygon fill="none" stroke="blue" points="1440,-885 1228,-885 1228,-849 1440,-849 1440,-885"/>
<text text-anchor="middle" x="1334" y="-863.3" font-family="Times New Roman,serif" font-size="14.00">POR QUE A PERGUNTA HEIN?</text>
</g>
<!-- j3766559198&#45;&gt;j1309476189 -->
<g id="edge19" class="edge">
<title>j3766559198&#45;&gt;j1309476189</title>
<path fill="none" stroke="black" d="M1332.48,-921.81C1332.7,-914.14 1332.96,-904.89 1333.2,-896.24"/>
<polygon fill="black" stroke="black" points="1336.69,-896.64 1333.48,-886.54 1329.7,-896.44 1336.69,-896.64"/>
</g>
<!-- j1373943493 -->
<g id="node21" class="node">
<title>j1373943493</title>
<polygon fill="none" stroke="blue" points="1484.5,-666 1285.5,-666 1285.5,-630 1484.5,-630 1484.5,-666"/>
<text text-anchor="middle" x="1385" y="-644.3" font-family="Times New Roman,serif" font-size="14.00">fffhnnghkkkaaahhhh chega disso</text>
</g>
<!-- j3739346566&#45;&gt;j1373943493 -->
<g id="edge20" class="edge">
<title>j3739346566&#45;&gt;j1373943493</title>
<path fill="none" stroke="black" d="M1353.17,-702.81C1357.96,-694.7 1363.8,-684.84 1369.16,-675.78"/>
<polygon fill="black" stroke="black" points="1372.08,-677.72 1374.16,-667.33 1366.05,-674.16 1372.08,-677.72"/>
</g>
<!-- j2728396894 -->
<g id="node22" class="node">
<title>j2728396894</title>
<ellipse fill="none" stroke="orange" cx="971" cy="-648" rx="122.38" ry="18"/>
<text text-anchor="middle" x="971" y="-644.3" font-family="Times New Roman,serif" font-size="14.00">Boolean AmirThai is now true.</text>
</g>
<!-- j4258560326&#45;&gt;j2728396894 -->
<g id="edge21" class="edge">
<title>j4258560326&#45;&gt;j2728396894</title>
<path fill="none" stroke="black" d="M955.08,-702.81C957.38,-695.05 960.15,-685.68 962.73,-676.95"/>
<polygon fill="black" stroke="black" points="966.05,-678.06 965.53,-667.48 959.34,-676.08 966.05,-678.06"/>
</g>
<!-- j1439624938 -->
<g id="node23" class="node">
<title>j1439624938</title>
<ellipse fill="none" stroke="orange" cx="462" cy="-648" rx="156.77" ry="18"/>
<text text-anchor="middle" x="462" y="-644.3" font-family="Times New Roman,serif" font-size="14.00">Boolean AmirFavoriteColor is now true.</text>
</g>
<!-- j1320787777&#45;&gt;j1439624938 -->
<g id="edge22" class="edge">
<title>j1320787777&#45;&gt;j1439624938</title>
<path fill="none" stroke="black" d="M466.55,-702.81C465.9,-695.14 465.12,-685.89 464.39,-677.24"/>
<polygon fill="black" stroke="black" points="467.9,-677.21 463.57,-667.54 460.92,-677.8 467.9,-677.21"/>
</g>
<!-- j1309476189&#45;&gt;j976844345 -->
<g id="edge24" class="edge">
<title>j1309476189&#45;&gt;j976844345</title>
<path fill="none" stroke="black" d="M1334,-848.81C1334,-841.23 1334,-832.1 1334,-823.54"/>
<polygon fill="black" stroke="black" points="1337.5,-823.54 1334,-813.54 1330.5,-823.54 1337.5,-823.54"/>
</g>
<!-- j568865762 -->
<g id="node24" class="node">
<title>j568865762</title>
<polygon fill="none" stroke="red" points="1786.5,-812 1443.5,-812 1443.5,-776 1786.5,-776 1786.5,-812"/>
<text text-anchor="middle" x="1615" y="-790.3" font-family="Times New Roman,serif" font-size="14.00">Não consigo entender por que vocês dois não se dão bem</text>
</g>
<!-- j1309476189&#45;&gt;j568865762 -->
<g id="edge23" class="edge">
<title>j1309476189&#45;&gt;j568865762</title>
<path fill="none" stroke="black" d="M1403.1,-848.54C1443.08,-838.44 1493.56,-825.68 1535.22,-815.16"/>
<polygon fill="black" stroke="black" points="1535.86,-818.61 1544.7,-812.76 1534.15,-811.82 1535.86,-818.61"/>
</g>
<!-- j577697969 -->
<g id="node25" class="node">
<title>j577697969</title>
<ellipse fill="none" stroke="orange" cx="1396" cy="-521" rx="120.78" ry="18"/>
<text text-anchor="middle" x="1396" y="-517.3" font-family="Times New Roman,serif" font-size="14.00">Boolean AmirRun is now true.</text>
</g>
<!-- j1373943493&#45;&gt;j577697969 -->
<g id="edge25" class="edge">
<title>j1373943493&#45;&gt;j577697969</title>
<path fill="none" stroke="black" d="M1386.53,-629.62C1388.33,-609.19 1391.34,-574.99 1393.48,-550.62"/>
<polygon fill="black" stroke="black" points="1396.96,-551.01 1394.35,-540.74 1389.99,-550.4 1396.96,-551.01"/>
</g>
<!-- j3236503875 -->
<g id="node26" class="node">
<title>j3236503875</title>
<ellipse fill="none" stroke="orange" cx="981" cy="-575" rx="126.98" ry="18"/>
<text text-anchor="middle" x="981" y="-571.3" font-family="Times New Roman,serif" font-size="14.00">Check boolean SquareSpaghetti</text>
</g>
<!-- j2728396894&#45;&gt;j3236503875 -->
<g id="edge26" class="edge">
<title>j2728396894&#45;&gt;j3236503875</title>
<path fill="none" stroke="black" d="M973.42,-629.81C974.5,-622.14 975.8,-612.89 977.02,-604.24"/>
<polygon fill="black" stroke="black" points="980.46,-604.92 978.39,-594.53 973.53,-603.94 980.46,-604.92"/>
</g>
<!-- j4245516307 -->
<g id="node27" class="node">
<title>j4245516307</title>
<polygon fill="none" stroke="blue" points="532,-593 342,-593 342,-557 532,-557 532,-593"/>
<text text-anchor="middle" x="437" y="-571.3" font-family="Times New Roman,serif" font-size="14.00">pq? vai me comprar algo legal?</text>
</g>
<!-- j1439624938&#45;&gt;j4245516307 -->
<g id="edge27" class="edge">
<title>j1439624938&#45;&gt;j4245516307</title>
<path fill="none" stroke="black" d="M455.95,-629.81C453.18,-621.96 449.84,-612.47 446.74,-603.66"/>
<polygon fill="black" stroke="black" points="450.12,-602.73 443.5,-594.46 443.52,-605.05 450.12,-602.73"/>
</g>
<!-- j4279605976 -->
<g id="node28" class="node">
<title>j4279605976</title>
<polygon fill="none" stroke="blue" points="1725,-739 1529,-739 1529,-703 1725,-703 1725,-739"/>
<text text-anchor="middle" x="1627" y="-717.3" font-family="Times New Roman,serif" font-size="14.00">tenho um gosto meio… peculiar</text>
</g>
<!-- j568865762&#45;&gt;j4279605976 -->
<g id="edge28" class="edge">
<title>j568865762&#45;&gt;j4279605976</title>
<path fill="none" stroke="black" d="M1617.9,-775.81C1619.2,-768.14 1620.76,-758.89 1622.23,-750.24"/>
<polygon fill="black" stroke="black" points="1625.65,-750.96 1623.87,-740.52 1618.75,-749.8 1625.65,-750.96"/>
</g>
<!-- Chat ends. -->
<g id="node29" class="node">
<title>Chat ends.</title>
<ellipse fill="none" stroke="orange" cx="1296" cy="-18" rx="50.09" ry="18"/>
<text text-anchor="middle" x="1296" y="-14.3" font-family="Times New Roman,serif" font-size="14.00">Chat ends.</text>
</g>
<!-- j577697969&#45;&gt;Chat ends. -->
<g id="edge29" class="edge">
<title>j577697969&#45;&gt;Chat ends.</title>
<path fill="none" stroke="black" d="M1382.25,-502.84C1369.02,-484.55 1351,-454.19 1351,-424.5 1351,-424.5 1351,-424.5 1351,-90 1351,-71.33 1338.96,-54.58 1326.15,-42.06"/>
<polygon fill="black" stroke="black" points="1328.63,-39.58 1318.86,-35.47 1323.93,-44.77 1328.63,-39.58"/>
</g>
<!-- j2619872297 -->
<g id="node30" class="node">
<title>j2619872297</title>
<polygon fill="none" stroke="blue" points="1181.5,-485 780.5,-485 780.5,-449 1181.5,-449 1181.5,-485"/>
<text text-anchor="middle" x="981" y="-463.3" font-family="Times New Roman,serif" font-size="14.00">ou vc só come comida quadrada, tipo aquele pesadelo de macarrão?</text>
</g>
<!-- j3236503875&#45;&gt;j2619872297 -->
<g id="edge30" class="edge">
<title>j3236503875&#45;&gt;j2619872297</title>
<path fill="none" stroke="green" d="M981,-556.97C981,-540.76 981,-516.06 981,-496.79"/>
<polygon fill="green" stroke="green" points="984.5,-496.85 981,-486.85 977.5,-496.85 984.5,-496.85"/>
<text text-anchor="middle" x="992" y="-517.3" font-family="Times New Roman,serif" font-size="14.00">true</text>
</g>
<!-- j3607781815 -->
<g id="node31" class="node">
<title>j3607781815</title>
<polygon fill="none" stroke="red" points="1322.5,-290 1143.5,-290 1143.5,-254 1322.5,-254 1322.5,-290"/>
<text text-anchor="middle" x="1233" y="-268.3" font-family="Times New Roman,serif" font-size="14.00">Vou passar o tailandês, valeu</text>
</g>
<!-- j3236503875&#45;&gt;j3607781815 -->
<g id="edge31" class="edge">
<title>j3236503875&#45;&gt;j3607781815</title>
<path fill="none" stroke="brown" d="M1087.23,-564.78C1112.5,-559.55 1138.61,-551.46 1161,-539 1189.58,-523.09 1193.43,-512.59 1211,-485 1247.16,-428.2 1243.03,-345.04 1237.62,-301.69"/>
<polygon fill="brown" stroke="brown" points="1241.09,-301.25 1236.26,-291.82 1234.16,-302.2 1241.09,-301.25"/>
<text text-anchor="middle" x="1250" y="-419.8" font-family="Times New Roman,serif" font-size="14.00">false</text>
</g>
<!-- j185896677 -->
<g id="node32" class="node">
<title>j185896677</title>
<polygon fill="none" stroke="red" points="1125.5,-290 864.5,-290 864.5,-254 1125.5,-254 1125.5,-290"/>
<text text-anchor="middle" x="995" y="-268.3" font-family="Times New Roman,serif" font-size="14.00">Não sei o que é um &quot;pad thai&quot;, mas eu topo</text>
</g>
<!-- j3236503875&#45;&gt;j185896677 -->
<g id="edge32" class="edge">
<title>j3236503875&#45;&gt;j185896677</title>
<path fill="none" stroke="brown" d="M1059.39,-560.42C1104.63,-548.39 1158.63,-526.05 1190,-485 1213.7,-453.99 1199.33,-436.94 1202,-398 1203.1,-382.04 1210.8,-375.36 1202,-362 1179.63,-328.03 1141.28,-306.97 1103.63,-293.94"/>
<polygon fill="brown" stroke="brown" points="1105.07,-290.73 1094.48,-290.95 1102.9,-297.39 1105.07,-290.73"/>
<text text-anchor="middle" x="1216" y="-419.8" font-family="Times New Roman,serif" font-size="14.00">false</text>
</g>
<!-- j131402959 -->
<g id="node33" class="node">
<title>j131402959</title>
<polygon fill="none" stroke="red" points="846.5,-290 613.5,-290 613.5,-254 846.5,-254 846.5,-290"/>
<text text-anchor="middle" x="730" y="-268.3" font-family="Times New Roman,serif" font-size="14.00">Adoraria comer um pad thai com você</text>
</g>
<!-- j3236503875&#45;&gt;j131402959 -->
<g id="edge33" class="edge">
<title>j3236503875&#45;&gt;j131402959</title>
<path fill="none" stroke="brown" d="M923.73,-558.64C878.94,-544.63 816.78,-520.63 771,-485 732.7,-455.19 720.47,-444 705,-398 694.06,-365.48 705.54,-326.49 716.3,-300.81"/>
<polygon fill="brown" stroke="brown" points="719.47,-302.29 720.34,-291.73 713.08,-299.44 719.47,-302.29"/>
<text text-anchor="middle" x="732" y="-419.8" font-family="Times New Roman,serif" font-size="14.00">false</text>
</g>
<!-- j2735858331 -->
<g id="node34" class="node">
<title>j2735858331</title>
<polygon fill="none" stroke="blue" points="414.5,-485 259.5,-485 259.5,-449 414.5,-449 414.5,-485"/>
<text text-anchor="middle" x="337" y="-463.3" font-family="Times New Roman,serif" font-size="14.00">hmmmmmmmmmmmm?</text>
</g>
<!-- j4245516307&#45;&gt;j2735858331 -->
<g id="edge34" class="edge">
<title>j4245516307&#45;&gt;j2735858331</title>
<path fill="none" stroke="black" d="M420.93,-556.97C404.77,-539.84 379.66,-513.22 361.11,-493.56"/>
<polygon fill="black" stroke="black" points="363.81,-491.31 354.4,-486.44 358.71,-496.12 363.81,-491.31"/>
</g>
<!-- j130703824 -->
<g id="node35" class="node">
<title>j130703824</title>
<polygon fill="none" stroke="blue" points="1658.5,-666 1585.5,-666 1585.5,-630 1658.5,-630 1658.5,-666"/>
<text text-anchor="middle" x="1622" y="-644.3" font-family="Times New Roman,serif" font-size="14.00">tipo vinho</text>
</g>
<!-- j4279605976&#45;&gt;j130703824 -->
<g id="edge35" class="edge">
<title>j4279605976&#45;&gt;j130703824</title>
<path fill="none" stroke="black" d="M1625.79,-702.81C1625.25,-695.14 1624.6,-685.89 1623.99,-677.24"/>
<polygon fill="black" stroke="black" points="1627.5,-677.27 1623.31,-667.54 1620.52,-677.76 1627.5,-677.27"/>
</g>
<!-- j849893745 -->
<g id="node36" class="node">
<title>j849893745</title>
<polygon fill="none" stroke="red" points="934,-398 714,-398 714,-362 934,-362 934,-398"/>
<text text-anchor="middle" x="824" y="-376.3" font-family="Times New Roman,serif" font-size="14.00">NÃO, CHEGA DE QUADRINHOS</text>
</g>
<!-- j2619872297&#45;&gt;j849893745 -->
<g id="edge36" class="edge">
<title>j2619872297&#45;&gt;j849893745</title>
<path fill="none" stroke="black" d="M948.85,-448.59C924.93,-435.64 892.07,-417.85 866.06,-403.77"/>
<polygon fill="black" stroke="black" points="867.9,-400.79 857.44,-399.1 864.57,-406.94 867.9,-400.79"/>
</g>
<!-- j2557765525 -->
<g id="node37" class="node">
<title>j2557765525</title>
<polygon fill="none" stroke="red" points="1193.5,-398 952.5,-398 952.5,-362 1193.5,-362 1193.5,-398"/>
<text text-anchor="middle" x="1073" y="-376.3" font-family="Times New Roman,serif" font-size="14.00">Como você sabia que… ah, deixa pra lá</text>
</g>
<!-- j2619872297&#45;&gt;j2557765525 -->
<g id="edge37" class="edge">
<title>j2619872297&#45;&gt;j2557765525</title>
<path fill="none" stroke="black" d="M999.62,-448.8C1012.87,-436.55 1030.9,-419.9 1045.77,-406.16"/>
<polygon fill="black" stroke="black" points="1048.01,-408.85 1052.98,-399.49 1043.26,-403.71 1048.01,-408.85"/>
</g>
<!-- j1316726556 -->
<g id="node38" class="node">
<title>j1316726556</title>
<polygon fill="none" stroke="blue" points="1300.5,-163 1235.5,-163 1235.5,-127 1300.5,-127 1300.5,-163"/>
<text text-anchor="middle" x="1268" y="-141.3" font-family="Times New Roman,serif" font-size="14.00">tanto faz</text>
</g>
<!-- j3607781815&#45;&gt;j1316726556 -->
<g id="edge38" class="edge">
<title>j3607781815&#45;&gt;j1316726556</title>
<path fill="none" stroke="black" d="M1237.87,-253.62C1243.61,-233.1 1253.25,-198.67 1260.08,-174.29"/>
<polygon fill="black" stroke="black" points="1263.44,-175.26 1262.77,-164.69 1256.7,-173.38 1263.44,-175.26"/>
</g>
<!-- j130514170 -->
<g id="node39" class="node">
<title>j130514170</title>
<ellipse fill="none" stroke="orange" cx="730" cy="-199" rx="64.19" ry="18"/>
<text text-anchor="middle" x="730" y="-195.3" font-family="Times New Roman,serif" font-size="14.00">+20 Chemistry</text>
</g>
<!-- j185896677&#45;&gt;j130514170 -->
<g id="edge39" class="edge">
<title>j185896677&#45;&gt;j130514170</title>
<path fill="none" stroke="black" d="M929.83,-253.54C885.8,-241.74 828.26,-226.33 786.23,-215.07"/>
<polygon fill="black" stroke="black" points="787.39,-211.75 776.82,-212.54 785.57,-218.51 787.39,-211.75"/>
</g>
<!-- j131402959&#45;&gt;j130514170 -->
<g id="edge40" class="edge">
<title>j131402959&#45;&gt;j130514170</title>
<path fill="none" stroke="black" d="M730,-253.81C730,-246.23 730,-237.1 730,-228.54"/>
<polygon fill="black" stroke="black" points="733.5,-228.54 730,-218.54 726.5,-228.54 733.5,-228.54"/>
</g>
<!-- j1638384941 -->
<g id="node40" class="node">
<title>j1638384941</title>
<polygon fill="none" stroke="red" points="407.5,-398 112.5,-398 112.5,-362 407.5,-362 407.5,-398"/>
<text text-anchor="middle" x="260" y="-376.3" font-family="Times New Roman,serif" font-size="14.00">Pelo visto, agora vou ter que arrumar um presente</text>
</g>
<!-- j2735858331&#45;&gt;j1638384941 -->
<g id="edge41" class="edge">
<title>j2735858331&#45;&gt;j1638384941</title>
<path fill="none" stroke="black" d="M321.42,-448.8C310.53,-436.78 295.8,-420.52 283.5,-406.94"/>
<polygon fill="black" stroke="black" points="286.15,-404.65 276.84,-399.59 280.96,-409.35 286.15,-404.65"/>
</g>
<!-- j2216236188 -->
<g id="node41" class="node">
<title>j2216236188</title>
<polygon fill="none" stroke="red" points="658,-398 426,-398 426,-362 658,-362 658,-398"/>
<text text-anchor="middle" x="542" y="-376.3" font-family="Times New Roman,serif" font-size="14.00">Sim, mas finge que é surpresa, beleza?</text>
</g>
<!-- j2735858331&#45;&gt;j2216236188 -->
<g id="edge42" class="edge">
<title>j2735858331&#45;&gt;j2216236188</title>
<path fill="none" stroke="black" d="M378.98,-448.59C411.04,-435.3 455.41,-416.91 489.76,-402.66"/>
<polygon fill="black" stroke="black" points="490.78,-406.03 498.68,-398.96 488.1,-399.56 490.78,-406.03"/>
</g>
<!-- j3011290035 -->
<g id="node42" class="node">
<title>j3011290035</title>
<polygon fill="none" stroke="red" points="94,-398 0,-398 0,-362 94,-362 94,-398"/>
<text text-anchor="middle" x="47" y="-376.3" font-family="Times New Roman,serif" font-size="14.00">Nem ferrando</text>
</g>
<!-- j2735858331&#45;&gt;j3011290035 -->
<g id="edge43" class="edge">
<title>j2735858331&#45;&gt;j3011290035</title>
<path fill="none" stroke="black" d="M276.34,-448.59C231.56,-435.68 168.84,-417.51 105.01,-398.58"/>
<polygon fill="black" stroke="black" points="106.38,-395.34 95.8,-395.85 104.39,-402.05 106.38,-395.34"/>
</g>
<!-- j1823476909 -->
<g id="node43" class="node">
<title>j1823476909</title>
<polygon fill="none" stroke="blue" points="1692.5,-593 1549.5,-593 1549.5,-557 1692.5,-557 1692.5,-593"/>
<text text-anchor="middle" x="1621" y="-571.3" font-family="Times New Roman,serif" font-size="14.00">vinho cheio de abelhas</text>
</g>
<!-- j130703824&#45;&gt;j1823476909 -->
<g id="edge44" class="edge">
<title>j130703824&#45;&gt;j1823476909</title>
<path fill="none" stroke="black" d="M1621.76,-629.81C1621.65,-622.23 1621.52,-613.1 1621.4,-604.54"/>
<polygon fill="black" stroke="black" points="1624.9,-604.49 1621.26,-594.54 1617.9,-604.59 1624.9,-604.49"/>
</g>
<!-- j849893745&#45;&gt;j3607781815 -->
<g id="edge45" class="edge">
<title>j849893745&#45;&gt;j3607781815</title>
<path fill="none" stroke="black" d="M891.08,-361.61C963.33,-342.89 1078.18,-313.12 1154.56,-293.33"/>
<polygon fill="black" stroke="black" points="1155.28,-296.76 1164.08,-290.86 1153.52,-289.98 1155.28,-296.76"/>
</g>
<!-- j849893745&#45;&gt;j185896677 -->
<g id="edge46" class="edge">
<title>j849893745&#45;&gt;j185896677</title>
<path fill="none" stroke="black" d="M851.85,-361.73C880.59,-343.92 925.57,-316.04 957.44,-296.28"/>
<polygon fill="black" stroke="black" points="958.93,-299.48 965.59,-291.23 955.24,-293.53 958.93,-299.48"/>
</g>
<!-- j849893745&#45;&gt;j131402959 -->
<g id="edge47" class="edge">
<title>j849893745&#45;&gt;j131402959</title>
<path fill="none" stroke="black" d="M808.9,-361.97C793.78,-344.92 770.31,-318.46 752.9,-298.82"/>
<polygon fill="black" stroke="black" points="755.64,-296.63 746.38,-291.47 750.4,-301.28 755.64,-296.63"/>
</g>
<!-- j2557765525&#45;&gt;j3607781815 -->
<g id="edge48" class="edge">
<title>j2557765525&#45;&gt;j3607781815</title>
<path fill="none" stroke="black" d="M1099.06,-361.73C1125.83,-344 1167.68,-316.28 1197.47,-296.54"/>
<polygon fill="black" stroke="black" points="1199.02,-299.71 1205.42,-291.27 1195.15,-293.88 1199.02,-299.71"/>
</g>
<!-- j2557765525&#45;&gt;j185896677 -->
<g id="edge49" class="edge">
<title>j2557765525&#45;&gt;j185896677</title>
<path fill="none" stroke="black" d="M1060.47,-361.97C1048.03,-345.07 1028.8,-318.94 1014.39,-299.36"/>
<polygon fill="black" stroke="black" points="1017.4,-297.54 1008.66,-291.56 1011.76,-301.69 1017.4,-297.54"/>
</g>
<!-- j2557765525&#45;&gt;j131402959 -->
<g id="edge50" class="edge">
<title>j2557765525&#45;&gt;j131402959</title>
<path fill="none" stroke="black" d="M1016.74,-361.61C956.65,-343.04 861.41,-313.61 797.36,-293.82"/>
<polygon fill="black" stroke="black" points="798.61,-290.54 788.02,-290.93 796.54,-297.23 798.61,-290.54"/>
</g>
<!-- j1316726556&#45;&gt;Chat ends. -->
<g id="edge51" class="edge">
<title>j1316726556&#45;&gt;Chat ends.</title>
<path fill="none" stroke="black" d="M1271.89,-126.62C1276.49,-106.1 1284.2,-71.67 1289.66,-47.29"/>
<polygon fill="black" stroke="black" points="1293.04,-48.23 1291.81,-37.71 1286.21,-46.7 1293.04,-48.23"/>
</g>
<!-- j1057216528 -->
<g id="node44" class="node">
<title>j1057216528</title>
<polygon fill="none" stroke="blue" points="1138.5,-109 1081.5,-109 1081.5,-73 1138.5,-73 1138.5,-109"/>
<text text-anchor="middle" x="1110" y="-87.3" font-family="Times New Roman,serif" font-size="14.00">ebaaa!!</text>
</g>
<!-- j130514170&#45;&gt;j1057216528 -->
<g id="edge52" class="edge">
<title>j130514170&#45;&gt;j1057216528</title>
<path fill="none" stroke="black" d="M774.33,-185.63C849.04,-164.79 998.84,-123.01 1070.3,-103.07"/>
<polygon fill="black" stroke="black" points="1070.93,-106.53 1079.62,-100.48 1069.04,-99.79 1070.93,-106.53"/>
</g>
<!-- j3993364671 -->
<g id="node45" class="node">
<title>j3993364671</title>
<polygon fill="none" stroke="blue" points="453.5,-290 310.5,-290 310.5,-254 453.5,-254 453.5,-290"/>
<text text-anchor="middle" x="382" y="-268.3" font-family="Times New Roman,serif" font-size="14.00">PRESENTINHO EBA</text>
</g>
<!-- j1638384941&#45;&gt;j3993364671 -->
<g id="edge53" class="edge">
<title>j1638384941&#45;&gt;j3993364671</title>
<path fill="none" stroke="black" d="M279.87,-361.73C299.9,-344.33 331,-317.31 353.62,-297.66"/>
<polygon fill="black" stroke="black" points="355.74,-300.45 360.99,-291.25 351.15,-295.17 355.74,-300.45"/>
</g>
<!-- j4014101080 -->
<g id="node46" class="node">
<title>j4014101080</title>
<polygon fill="none" stroke="blue" points="595.5,-290 488.5,-290 488.5,-254 595.5,-254 595.5,-290"/>
<text text-anchor="middle" x="542" y="-268.3" font-family="Times New Roman,serif" font-size="14.00">EU PROMETO</text>
</g>
<!-- j2216236188&#45;&gt;j4014101080 -->
<g id="edge54" class="edge">
<title>j2216236188&#45;&gt;j4014101080</title>
<path fill="none" stroke="black" d="M542,-361.97C542,-345.76 542,-321.06 542,-301.79"/>
<polygon fill="black" stroke="black" points="545.5,-301.85 542,-291.85 538.5,-301.85 545.5,-301.85"/>
</g>
<!-- j3360314081 -->
<g id="node47" class="node">
<title>j3360314081</title>
<polygon fill="none" stroke="blue" points="259.5,-290 2.5,-290 2.5,-254 259.5,-254 259.5,-290"/>
<text text-anchor="middle" x="131" y="-268.3" font-family="Times New Roman,serif" font-size="14.00">ah vc me anima desse jeito e faz isso, afffff</text>
</g>
<!-- j3011290035&#45;&gt;j3360314081 -->
<g id="edge55" class="edge">
<title>j3011290035&#45;&gt;j3360314081</title>
<path fill="none" stroke="black" d="M60.5,-361.97C73.89,-345.07 94.6,-318.94 110.11,-299.36"/>
<polygon fill="black" stroke="black" points="112.85,-301.54 116.32,-291.53 107.36,-297.19 112.85,-301.54"/>
</g>
<!-- j3455489603 -->
<g id="node48" class="node">
<title>j3455489603</title>
<polygon fill="none" stroke="blue" points="1706,-485 1530,-485 1530,-449 1706,-449 1706,-485"/>
<text text-anchor="middle" x="1618" y="-463.3" font-family="Times New Roman,serif" font-size="14.00">eu irrito ele, esse é o resumo</text>
</g>
<!-- j1823476909&#45;&gt;j3455489603 -->
<g id="edge56" class="edge">
<title>j1823476909&#45;&gt;j3455489603</title>
<path fill="none" stroke="black" d="M1620.52,-556.97C1620.06,-540.76 1619.36,-516.06 1618.81,-496.79"/>
<polygon fill="black" stroke="black" points="1622.32,-496.75 1618.53,-486.85 1615.32,-496.95 1622.32,-496.75"/>
</g>
<!-- j1057216528&#45;&gt;Chat ends. -->
<g id="edge57" class="edge">
<title>j1057216528&#45;&gt;Chat ends.</title>
<path fill="none" stroke="black" d="M1138.65,-79.06C1168.95,-67.5 1217.1,-49.12 1252.16,-35.73"/>
<polygon fill="black" stroke="black" points="1253.08,-39.13 1261.18,-32.29 1250.59,-32.59 1253.08,-39.13"/>
</g>
<!-- j3993364671&#45;&gt;j130514170 -->
<g id="edge58" class="edge">
<title>j3993364671&#45;&gt;j130514170</title>
<path fill="none" stroke="black" d="M453.68,-256.37C516.86,-243.48 607.96,-224.9 668.04,-212.64"/>
<polygon fill="black" stroke="black" points="668.67,-216.08 677.77,-210.66 667.27,-209.23 668.67,-216.08"/>
</g>
<!-- j4014101080&#45;&gt;j130514170 -->
<g id="edge59" class="edge">
<title>j4014101080&#45;&gt;j130514170</title>
<path fill="none" stroke="black" d="M587.99,-253.63C616.52,-242.86 653.12,-229.03 682.02,-218.12"/>
<polygon fill="black" stroke="black" points="683.15,-221.44 691.27,-214.63 680.67,-214.89 683.15,-221.44"/>
</g>
<!-- j2265849477 -->
<g id="node49" class="node">
<title>j2265849477</title>
<polygon fill="none" stroke="blue" points="464.5,-217 357.5,-217 357.5,-181 464.5,-181 464.5,-217"/>
<text text-anchor="middle" x="411" y="-195.3" font-family="Times New Roman,serif" font-size="14.00">isso é crueldade</text>
</g>
<!-- j3360314081&#45;&gt;j2265849477 -->
<g id="edge60" class="edge">
<title>j3360314081&#45;&gt;j2265849477</title>
<path fill="none" stroke="black" d="M199.85,-253.54C244.54,-242.21 302.4,-227.54 346.25,-216.42"/>
<polygon fill="black" stroke="black" points="347.06,-219.82 355.9,-213.97 345.34,-213.04 347.06,-219.82"/>
</g>
<!-- j2638250107 -->
<g id="node50" class="node">
<title>j2638250107</title>
<polygon fill="none" stroke="red" points="2075,-398 1727,-398 1727,-362 2075,-362 2075,-398"/>
<text text-anchor="middle" x="1901" y="-376.3" font-family="Times New Roman,serif" font-size="14.00">Sim, você é meio estranho, mas é autentico e é um docinho</text>
</g>
<!-- j3455489603&#45;&gt;j2638250107 -->
<g id="edge61" class="edge">
<title>j3455489603&#45;&gt;j2638250107</title>
<path fill="none" stroke="black" d="M1675.95,-448.59C1721.26,-434.99 1784.37,-416.03 1832.23,-401.65"/>
<polygon fill="black" stroke="black" points="1833.11,-405.05 1841.68,-398.82 1831.09,-398.34 1833.11,-405.05"/>
</g>
<!-- j1187320434 -->
<g id="node51" class="node">
<title>j1187320434</title>
<polygon fill="none" stroke="red" points="1701.5,-398 1534.5,-398 1534.5,-362 1701.5,-362 1701.5,-398"/>
<text text-anchor="middle" x="1618" y="-376.3" font-family="Times New Roman,serif" font-size="14.00">Ah, mas você não me irrita</text>
</g>
<!-- j3455489603&#45;&gt;j1187320434 -->
<g id="edge62" class="edge">
<title>j3455489603&#45;&gt;j1187320434</title>
<path fill="none" stroke="black" d="M1618,-448.8C1618,-437.58 1618,-422.67 1618,-409.69"/>
<polygon fill="black" stroke="black" points="1621.5,-409.98 1618,-399.98 1614.5,-409.98 1621.5,-409.98"/>
</g>
<!-- j932301416 -->
<g id="node52" class="node">
<title>j932301416</title>
<polygon fill="none" stroke="red" points="1483,-344 1389,-344 1389,-308 1483,-308 1483,-344"/>
<text text-anchor="middle" x="1436" y="-322.3" font-family="Times New Roman,serif" font-size="14.00">Não culpo ele</text>
</g>
<!-- j3455489603&#45;&gt;j932301416 -->
<g id="edge63" class="edge">
<title>j3455489603&#45;&gt;j932301416</title>
<path fill="none" stroke="black" d="M1594.02,-448.59C1575.36,-434.97 1548.89,-415.48 1526,-398 1505.93,-382.67 1483.65,-365.1 1466.27,-351.27"/>
<polygon fill="black" stroke="black" points="1468.86,-348.85 1458.86,-345.35 1464.49,-354.32 1468.86,-348.85"/>
</g>
<!-- j4225729303 -->
<g id="node53" class="node">
<title>j4225729303</title>
<polygon fill="none" stroke="blue" points="853,-109 719,-109 719,-73 853,-73 853,-109"/>
<text text-anchor="middle" x="786" y="-87.3" font-family="Times New Roman,serif" font-size="14.00">vo contar tudo pra lê</text>
</g>
<!-- j2265849477&#45;&gt;j4225729303 -->
<g id="edge64" class="edge">
<title>j2265849477&#45;&gt;j4225729303</title>
<path fill="none" stroke="black" d="M464.73,-182.81C530.03,-164.35 640.5,-133.13 713.35,-112.53"/>
<polygon fill="black" stroke="black" points="714.14,-115.95 722.81,-109.86 712.23,-109.21 714.14,-115.95"/>
</g>
<!-- j4096269409 -->
<g id="node54" class="node">
<title>j4096269409</title>
<ellipse fill="none" stroke="orange" cx="1907" cy="-272" rx="64.19" ry="18"/>
<text text-anchor="middle" x="1907" y="-268.3" font-family="Times New Roman,serif" font-size="14.00">+20 Chemistry</text>
</g>
<!-- j2638250107&#45;&gt;j4096269409 -->
<g id="edge65" class="edge">
<title>j2638250107&#45;&gt;j4096269409</title>
<path fill="none" stroke="black" d="M1901.96,-361.97C1902.88,-345.76 1904.28,-321.06 1905.37,-301.79"/>
<polygon fill="black" stroke="black" points="1908.86,-302.03 1905.93,-291.85 1901.87,-301.64 1908.86,-302.03"/>
</g>
<!-- j3973817967 -->
<g id="node55" class="node">
<title>j3973817967</title>
<ellipse fill="none" stroke="orange" cx="1618" cy="-272" rx="64.19" ry="18"/>
<text text-anchor="middle" x="1618" y="-268.3" font-family="Times New Roman,serif" font-size="14.00">+10 Chemistry</text>
</g>
<!-- j1187320434&#45;&gt;j3973817967 -->
<g id="edge66" class="edge">
<title>j1187320434&#45;&gt;j3973817967</title>
<path fill="none" stroke="black" d="M1618,-361.97C1618,-345.76 1618,-321.06 1618,-301.79"/>
<polygon fill="black" stroke="black" points="1621.5,-301.85 1618,-291.85 1614.5,-301.85 1621.5,-301.85"/>
</g>
<!-- j932301416&#45;&gt;Chat ends. -->
<g id="edge67" class="edge">
<title>j932301416&#45;&gt;Chat ends.</title>
<path fill="none" stroke="black" d="M1420.35,-307.67C1406.68,-290.69 1389,-263.43 1389,-236 1389,-236 1389,-236 1389,-90 1389,-64.17 1366.05,-46.48 1342.95,-35.22"/>
<polygon fill="black" stroke="black" points="1344.69,-32.16 1334.14,-31.25 1341.82,-38.55 1344.69,-32.16"/>
</g>
<!-- j4225729303&#45;&gt;Chat ends. -->
<g id="edge68" class="edge">
<title>j4225729303&#45;&gt;Chat ends.</title>
<path fill="none" stroke="black" d="M853.46,-80.61C954.55,-66.53 1143.59,-40.22 1238.51,-27"/>
<polygon fill="black" stroke="black" points="1238.96,-30.47 1248.39,-25.63 1238,-23.54 1238.96,-30.47"/>
</g>
<!-- j1529658636 -->
<g id="node56" class="node">
<title>j1529658636</title>
<polygon fill="none" stroke="blue" points="1981.5,-217 1836.5,-217 1836.5,-181 1981.5,-181 1981.5,-217"/>
<text text-anchor="middle" x="1909" y="-195.3" font-family="Times New Roman,serif" font-size="14.00">aaaaaaaah fiquei timido</text>
</g>
<!-- j4096269409&#45;&gt;j1529658636 -->
<g id="edge69" class="edge">
<title>j4096269409&#45;&gt;j1529658636</title>
<path fill="none" stroke="black" d="M1907.48,-253.81C1907.7,-246.14 1907.96,-236.89 1908.2,-228.24"/>
<polygon fill="black" stroke="black" points="1911.69,-228.64 1908.48,-218.54 1904.7,-228.44 1911.69,-228.64"/>
</g>
<!-- j2668117744 -->
<g id="node57" class="node">
<title>j2668117744</title>
<polygon fill="none" stroke="blue" points="1818.5,-217 1417.5,-217 1417.5,-181 1818.5,-181 1818.5,-217"/>
<text text-anchor="middle" x="1618" y="-195.3" font-family="Times New Roman,serif" font-size="14.00">muito legal da sua parte falar isso, mas vc ainda não viu nada kkkkkk</text>
</g>
<!-- j3973817967&#45;&gt;j2668117744 -->
<g id="edge70" class="edge">
<title>j3973817967&#45;&gt;j2668117744</title>
<path fill="none" stroke="black" d="M1618,-253.81C1618,-246.23 1618,-237.1 1618,-228.54"/>
<polygon fill="black" stroke="black" points="1621.5,-228.54 1618,-218.54 1614.5,-228.54 1621.5,-228.54"/>
</g>
<!-- j3053428139 -->
<g id="node58" class="node">
<title>j3053428139</title>
<polygon fill="none" stroke="blue" points="1789.5,-109 1446.5,-109 1446.5,-73 1789.5,-73 1789.5,-109"/>
<text text-anchor="middle" x="1618" y="-87.3" font-family="Times New Roman,serif" font-size="14.00">isso me deu uma ideia de como atazanar o quincy, já volto</text>
</g>
<!-- j1529658636&#45;&gt;j3053428139 -->
<g id="edge71" class="edge">
<title>j1529658636&#45;&gt;j3053428139</title>
<path fill="none" stroke="black" d="M1861.27,-180.61C1810.63,-162.17 1730.58,-133.01 1676.26,-113.22"/>
<polygon fill="black" stroke="black" points="1677.77,-110.05 1667.18,-109.91 1675.37,-116.62 1677.77,-110.05"/>
</g>
<!-- j2668117744&#45;&gt;j3053428139 -->
<g id="edge72" class="edge">
<title>j2668117744&#45;&gt;j3053428139</title>
<path fill="none" stroke="black" d="M1618,-180.97C1618,-164.76 1618,-140.06 1618,-120.79"/>
<polygon fill="black" stroke="black" points="1621.5,-120.85 1618,-110.85 1614.5,-120.85 1621.5,-120.85"/>
</g>
<!-- j3053428139&#45;&gt;Chat ends. -->
<g id="edge73" class="edge">
<title>j3053428139&#45;&gt;Chat ends.</title>
<path fill="none" stroke="black" d="M1538.82,-72.54C1479.78,-59.52 1400.76,-42.1 1349.14,-30.72"/>
<polygon fill="black" stroke="black" points="1349.91,-27.3 1339.39,-28.57 1348.4,-34.14 1349.91,-27.3"/>
</g>
</g>
</svg>
