<?xml version="1.0" encoding="UTF-8" standalone="no"?>
<!DOCTYPE svg PUBLIC "-//W3C//DTD SVG 1.1//EN"
 "http://www.w3.org/Graphics/SVG/1.1/DTD/svg11.dtd">
<!-- Generated by graphviz version 7.1.0 (20230121.1956)
 -->
<!-- Pages: 1 -->
<svg width="1297pt" height="1453pt"
 viewBox="0.00 0.00 1296.50 1453.00" xmlns="http://www.w3.org/2000/svg" xmlns:xlink="http://www.w3.org/1999/xlink">
<g id="graph0" class="graph" transform="scale(1 1) rotate(0) translate(4 1449)">
<polygon fill="white" stroke="none" points="-4,4 -4,-1449 1292.5,-1449 1292.5,4 -4,4"/>
<!-- AmirRank5Convo7 begins. -->
<g id="node1" class="node">
<title>AmirRank5Convo7 begins.</title>
<ellipse fill="none" stroke="orange" cx="1178.5" cy="-1427" rx="109.68" ry="18"/>
<text text-anchor="middle" x="1178.5" y="-1423.3" font-family="Times New Roman,serif" font-size="14.00">AmirRank5Convo7 begins.</text>
</g>
<!-- j3511724134 -->
<g id="node2" class="node">
<title>j3511724134</title>
<ellipse fill="none" stroke="orange" cx="1178.5" cy="-1354" rx="109.38" ry="18"/>
<text text-anchor="middle" x="1178.5" y="-1350.3" font-family="Times New Roman,serif" font-size="14.00">Check boolean AmirDating</text>
</g>
<!-- AmirRank5Convo7 begins.&#45;&gt;j3511724134 -->
<g id="edge1" class="edge">
<title>AmirRank5Convo7 begins.&#45;&gt;j3511724134</title>
<path fill="none" stroke="black" d="M1178.5,-1408.81C1178.5,-1401.23 1178.5,-1392.1 1178.5,-1383.54"/>
<polygon fill="black" stroke="black" points="1182,-1383.54 1178.5,-1373.54 1175,-1383.54 1182,-1383.54"/>
</g>
<!-- j2364259396 -->
<g id="node3" class="node">
<title>j2364259396</title>
<polygon fill="none" stroke="blue" points="1184,-1285 1005,-1285 1005,-1249 1184,-1249 1184,-1285"/>
<text text-anchor="middle" x="1094.5" y="-1263.3" font-family="Times New Roman,serif" font-size="14.00">ei bb, preciso pedir um favor</text>
</g>
<!-- j3511724134&#45;&gt;j2364259396 -->
<g id="edge2" class="edge">
<title>j3511724134&#45;&gt;j2364259396</title>
<path fill="none" stroke="green" d="M1161.5,-1335.8C1149.51,-1323.67 1133.25,-1307.21 1119.75,-1293.55"/>
<polygon fill="green" stroke="green" points="1122.34,-1291.2 1112.83,-1286.54 1117.37,-1296.12 1122.34,-1291.2"/>
<text text-anchor="middle" x="1152.5" y="-1306.8" font-family="Times New Roman,serif" font-size="14.00">true</text>
</g>
<!-- Chat ends. -->
<g id="node4" class="node">
<title>Chat ends.</title>
<ellipse fill="none" stroke="orange" cx="1196.5" cy="-18" rx="50.09" ry="18"/>
<text text-anchor="middle" x="1196.5" y="-14.3" font-family="Times New Roman,serif" font-size="14.00">Chat ends.</text>
</g>
<!-- j3511724134&#45;&gt;Chat ends. -->
<g id="edge3" class="edge">
<title>j3511724134&#45;&gt;Chat ends.</title>
<path fill="none" stroke="brown" d="M1211.22,-1336.48C1234.8,-1322 1262.5,-1298.5 1262.5,-1268 1262.5,-1268 1262.5,-1268 1262.5,-90 1262.5,-69.6 1247.7,-52.6 1232.12,-40.36"/>
<polygon fill="brown" stroke="brown" points="1234.34,-37.64 1224.19,-34.6 1230.22,-43.3 1234.34,-37.64"/>
<text text-anchor="middle" x="1275.5" y="-668.3" font-family="Times New Roman,serif" font-size="14.00">false</text>
</g>
<!-- j3319029236 -->
<g id="node5" class="node">
<title>j3319029236</title>
<polygon fill="none" stroke="red" points="1027,-1212 906,-1212 906,-1176 1027,-1176 1027,-1212"/>
<text text-anchor="middle" x="966.5" y="-1190.3" font-family="Times New Roman,serif" font-size="14.00">Qual a boa, gatão?</text>
</g>
<!-- j2364259396&#45;&gt;j3319029236 -->
<g id="edge4" class="edge">
<title>j2364259396&#45;&gt;j3319029236</title>
<path fill="none" stroke="black" d="M1063.19,-1248.63C1046.53,-1239.39 1025.83,-1227.91 1007.87,-1217.95"/>
<polygon fill="black" stroke="black" points="1009.7,-1214.96 999.26,-1213.17 1006.3,-1221.08 1009.7,-1214.96"/>
</g>
<!-- j269513434 -->
<g id="node6" class="node">
<title>j269513434</title>
<polygon fill="none" stroke="red" points="1247,-1158 942,-1158 942,-1122 1247,-1122 1247,-1158"/>
<text text-anchor="middle" x="1094.5" y="-1136.3" font-family="Times New Roman,serif" font-size="14.00">Foi mal, agora não dá pra falar [Encerrar Conversa]</text>
</g>
<!-- j2364259396&#45;&gt;j269513434 -->
<g id="edge5" class="edge">
<title>j2364259396&#45;&gt;j269513434</title>
<path fill="none" stroke="black" d="M1094.5,-1248.62C1094.5,-1228.19 1094.5,-1193.99 1094.5,-1169.62"/>
<polygon fill="black" stroke="black" points="1098,-1169.75 1094.5,-1159.75 1091,-1169.75 1098,-1169.75"/>
</g>
<!-- j2090226306 -->
<g id="node7" class="node">
<title>j2090226306</title>
<polygon fill="none" stroke="blue" points="1096.5,-1104 688.5,-1104 688.5,-1068 1096.5,-1068 1096.5,-1104"/>
<text text-anchor="middle" x="892.5" y="-1082.3" font-family="Times New Roman,serif" font-size="14.00">então… eu ACHO que descobri como hackear o KOL kkkkkkkkkkkk</text>
</g>
<!-- j3319029236&#45;&gt;j2090226306 -->
<g id="edge6" class="edge">
<title>j3319029236&#45;&gt;j2090226306</title>
<path fill="none" stroke="black" d="M948.53,-1175.54C943.4,-1170.15 937.99,-1164.03 933.5,-1158 923.27,-1144.26 913.6,-1127.75 906.22,-1114.11"/>
<polygon fill="black" stroke="black" points="909.53,-1112.88 901.76,-1105.67 903.34,-1116.15 909.53,-1112.88"/>
</g>
<!-- j269513434&#45;&gt;Chat ends. -->
<g id="edge7" class="edge">
<title>j269513434&#45;&gt;Chat ends.</title>
<path fill="none" stroke="black" d="M1151.21,-1121.56C1183.07,-1107.87 1216.5,-1085.13 1216.5,-1050 1216.5,-1050 1216.5,-1050 1216.5,-90 1216.5,-75.34 1212.5,-59.6 1208.08,-46.67"/>
<polygon fill="black" stroke="black" points="1211.46,-45.71 1204.7,-37.55 1204.89,-48.14 1211.46,-45.71"/>
</g>
<!-- j3939211881 -->
<g id="node8" class="node">
<title>j3939211881</title>
<polygon fill="none" stroke="blue" points="877.5,-1031 635.5,-1031 635.5,-995 877.5,-995 877.5,-1031"/>
<text text-anchor="middle" x="756.5" y="-1009.3" font-family="Times New Roman,serif" font-size="14.00">vou mudar o apelido do arthur pra testar</text>
</g>
<!-- j2090226306&#45;&gt;j3939211881 -->
<g id="edge8" class="edge">
<title>j2090226306&#45;&gt;j3939211881</title>
<path fill="none" stroke="black" d="M859.23,-1067.63C841.37,-1058.31 819.13,-1046.7 799.92,-1036.67"/>
<polygon fill="black" stroke="black" points="801.72,-1033.66 791.24,-1032.14 798.48,-1039.87 801.72,-1033.66"/>
</g>
<!-- j415471592 -->
<g id="node9" class="node">
<title>j415471592</title>
<ellipse fill="none" stroke="orange" cx="572.5" cy="-940" rx="131.08" ry="18"/>
<text text-anchor="middle" x="572.5" y="-936.3" font-family="Times New Roman,serif" font-size="14.00">Check boolean AmirQuincyHack</text>
</g>
<!-- j3939211881&#45;&gt;j415471592 -->
<g id="edge9" class="edge">
<title>j3939211881&#45;&gt;j415471592</title>
<path fill="none" stroke="black" d="M711.49,-994.63C685.57,-984.63 652.84,-972 625.65,-961.51"/>
<polygon fill="black" stroke="black" points="627.15,-958.34 616.56,-958 624.63,-964.87 627.15,-958.34"/>
</g>
<!-- j561803418 -->
<g id="node10" class="node">
<title>j561803418</title>
<polygon fill="none" stroke="red" points="332.5,-871 112.5,-871 112.5,-835 332.5,-835 332.5,-871"/>
<text text-anchor="middle" x="222.5" y="-849.3" font-family="Times New Roman,serif" font-size="14.00">Você já não fez isso com o Quincy?</text>
</g>
<!-- j415471592&#45;&gt;j561803418 -->
<g id="edge10" class="edge">
<title>j415471592&#45;&gt;j561803418</title>
<path fill="none" stroke="green" d="M509.33,-923.79C483.9,-917.65 454.3,-910.5 427.5,-904 387,-894.17 342.01,-883.2 304.52,-874.05"/>
<polygon fill="green" stroke="green" points="305.66,-870.73 295.11,-871.76 304,-877.53 305.66,-870.73"/>
<text text-anchor="middle" x="438.5" y="-892.8" font-family="Times New Roman,serif" font-size="14.00">true</text>
</g>
<!-- j1168468493 -->
<g id="node11" class="node">
<title>j1168468493</title>
<polygon fill="none" stroke="red" points="540.5,-871 352.5,-871 352.5,-835 540.5,-835 540.5,-871"/>
<text text-anchor="middle" x="446.5" y="-849.3" font-family="Times New Roman,serif" font-size="14.00">Kkkkkkkkkk essa eu quero ver</text>
</g>
<!-- j415471592&#45;&gt;j1168468493 -->
<g id="edge11" class="edge">
<title>j415471592&#45;&gt;j1168468493</title>
<path fill="none" stroke="green" d="M495.57,-924.99C483.35,-919.99 471.72,-913.2 462.5,-904 456.69,-898.2 452.99,-890.3 450.63,-882.49"/>
<polygon fill="green" stroke="green" points="454.06,-881.79 448.39,-872.84 447.25,-883.37 454.06,-881.79"/>
<text text-anchor="middle" x="473.5" y="-892.8" font-family="Times New Roman,serif" font-size="14.00">true</text>
</g>
<!-- j415471592&#45;&gt;j1168468493 -->
<g id="edge14" class="edge">
<title>j415471592&#45;&gt;j1168468493</title>
<path fill="none" stroke="brown" d="M547.3,-922C528.46,-909.29 502.45,-891.74 481.57,-877.66"/>
<polygon fill="brown" stroke="brown" points="483.59,-874.8 473.34,-872.11 479.67,-880.6 483.59,-874.8"/>
<text text-anchor="middle" x="530.5" y="-892.8" font-family="Times New Roman,serif" font-size="14.00">false</text>
</g>
<!-- j3963399733 -->
<g id="node12" class="node">
<title>j3963399733</title>
<polygon fill="none" stroke="red" points="658.5,-871 558.5,-871 558.5,-835 658.5,-835 658.5,-871"/>
<text text-anchor="middle" x="608.5" y="-849.3" font-family="Times New Roman,serif" font-size="14.00">Vish, lá vem…</text>
</g>
<!-- j415471592&#45;&gt;j3963399733 -->
<g id="edge12" class="edge">
<title>j415471592&#45;&gt;j3963399733</title>
<path fill="none" stroke="green" d="M566.49,-921.61C564.07,-911.64 562.82,-899.14 567.5,-889 569.07,-885.6 571.15,-882.41 573.54,-879.44"/>
<polygon fill="green" stroke="green" points="575.98,-881.96 580.4,-872.33 570.94,-877.09 575.98,-881.96"/>
<text text-anchor="middle" x="578.5" y="-892.8" font-family="Times New Roman,serif" font-size="14.00">true</text>
</g>
<!-- j415471592&#45;&gt;j3963399733 -->
<g id="edge15" class="edge">
<title>j415471592&#45;&gt;j3963399733</title>
<path fill="none" stroke="brown" d="M581.28,-921.69C584.02,-916.1 586.98,-909.83 589.5,-904 592.54,-896.95 595.6,-889.24 598.35,-882.03"/>
<polygon fill="brown" stroke="brown" points="601.62,-883.29 601.84,-872.69 595.06,-880.84 601.62,-883.29"/>
<text text-anchor="middle" x="608.5" y="-892.8" font-family="Times New Roman,serif" font-size="14.00">false</text>
</g>
<!-- j3443114781 -->
<g id="node13" class="node">
<title>j3443114781</title>
<polygon fill="none" stroke="red" points="844.5,-871 676.5,-871 676.5,-835 844.5,-835 844.5,-871"/>
<text text-anchor="middle" x="760.5" y="-849.3" font-family="Times New Roman,serif" font-size="14.00">Nananinanão, tô fora dessa</text>
</g>
<!-- j415471592&#45;&gt;j3443114781 -->
<g id="edge13" class="edge">
<title>j415471592&#45;&gt;j3443114781</title>
<path fill="none" stroke="green" d="M609.19,-922.41C638.38,-909.21 679.48,-890.63 711.49,-876.16"/>
<polygon fill="green" stroke="green" points="712.91,-879.36 720.58,-872.05 710.03,-872.98 712.91,-879.36"/>
<text text-anchor="middle" x="688.5" y="-892.8" font-family="Times New Roman,serif" font-size="14.00">true</text>
</g>
<!-- j415471592&#45;&gt;j3443114781 -->
<g id="edge16" class="edge">
<title>j415471592&#45;&gt;j3443114781</title>
<path fill="none" stroke="brown" d="M648.53,-924.98C667.15,-919.87 686.58,-913.04 703.5,-904 715.59,-897.54 727.27,-888.07 736.88,-879.1"/>
<polygon fill="brown" stroke="brown" points="739.28,-881.65 743.99,-872.16 734.39,-876.64 739.28,-881.65"/>
<text text-anchor="middle" x="736.5" y="-892.8" font-family="Times New Roman,serif" font-size="14.00">false</text>
</g>
<!-- j3132411643 -->
<g id="node14" class="node">
<title>j3132411643</title>
<polygon fill="none" stroke="blue" points="431,-636 0,-636 0,-600 431,-600 431,-636"/>
<text text-anchor="middle" x="215.5" y="-614.3" font-family="Times New Roman,serif" font-size="14.00">nah ele só foi burro msm, eu só arrumei a senha dele e entrei na conta dele</text>
</g>
<!-- j561803418&#45;&gt;j3132411643 -->
<g id="edge17" class="edge">
<title>j561803418&#45;&gt;j3132411643</title>
<path fill="none" stroke="black" d="M221.99,-834.87C220.79,-795.24 217.84,-696.91 216.37,-647.83"/>
<polygon fill="black" stroke="black" points="219.87,-647.88 216.07,-637.99 212.87,-648.09 219.87,-647.88"/>
</g>
<!-- j689817641 -->
<g id="node15" class="node">
<title>j689817641</title>
<polygon fill="none" stroke="blue" points="489.5,-744 403.5,-744 403.5,-708 489.5,-708 489.5,-744"/>
<text text-anchor="middle" x="446.5" y="-722.3" font-family="Times New Roman,serif" font-size="14.00">DAORAAA</text>
</g>
<!-- j1168468493&#45;&gt;j689817641 -->
<g id="edge18" class="edge">
<title>j1168468493&#45;&gt;j689817641</title>
<path fill="none" stroke="black" d="M446.5,-834.62C446.5,-814.19 446.5,-779.99 446.5,-755.62"/>
<polygon fill="black" stroke="black" points="450,-755.75 446.5,-745.75 443,-755.75 450,-755.75"/>
</g>
<!-- j359993555 -->
<g id="node16" class="node">
<title>j359993555</title>
<polygon fill="none" stroke="blue" points="656.5,-744 516.5,-744 516.5,-708 656.5,-708 656.5,-744"/>
<text text-anchor="middle" x="586.5" y="-722.3" font-family="Times New Roman,serif" font-size="14.00">nah rlx, vai ser de boa</text>
</g>
<!-- j3963399733&#45;&gt;j359993555 -->
<g id="edge19" class="edge">
<title>j3963399733&#45;&gt;j359993555</title>
<path fill="none" stroke="black" d="M605.44,-834.62C601.83,-814.1 595.77,-779.67 591.48,-755.29"/>
<polygon fill="black" stroke="black" points="594.98,-754.97 589.8,-745.72 588.08,-756.18 594.98,-754.97"/>
</g>
<!-- j3004351822 -->
<g id="node17" class="node">
<title>j3004351822</title>
<polygon fill="none" stroke="blue" points="855,-798 696,-798 696,-762 855,-762 855,-798"/>
<text text-anchor="middle" x="775.5" y="-776.3" font-family="Times New Roman,serif" font-size="14.00">ah, vamo lá, vai ser daora</text>
</g>
<!-- j3443114781&#45;&gt;j3004351822 -->
<g id="edge20" class="edge">
<title>j3443114781&#45;&gt;j3004351822</title>
<path fill="none" stroke="black" d="M764.13,-834.81C765.75,-827.14 767.71,-817.89 769.53,-809.24"/>
<polygon fill="black" stroke="black" points="772.95,-810.02 771.59,-799.51 766.1,-808.57 772.95,-810.02"/>
</g>
<!-- j630447905 -->
<g id="node18" class="node">
<title>j630447905</title>
<polygon fill="none" stroke="blue" points="749,-509 220,-509 220,-473 749,-473 749,-509"/>
<text text-anchor="middle" x="484.5" y="-487.3" font-family="Times New Roman,serif" font-size="14.00">então, descobri como controlar o tráfego da KOL e mexer com as solicitações das pessoas</text>
</g>
<!-- j3132411643&#45;&gt;j630447905 -->
<g id="edge21" class="edge">
<title>j3132411643&#45;&gt;j630447905</title>
<path fill="none" stroke="black" d="M252.9,-599.62C300.85,-577.34 384.04,-538.68 436.58,-514.27"/>
<polygon fill="black" stroke="black" points="438.02,-517.46 445.61,-510.07 435.07,-511.11 438.02,-517.46"/>
</g>
<!-- j689817641&#45;&gt;j630447905 -->
<g id="edge22" class="edge">
<title>j689817641&#45;&gt;j630447905</title>
<path fill="none" stroke="black" d="M447.1,-707.51C448.62,-672.64 453.8,-592.25 470.5,-527 471.1,-524.67 471.81,-522.29 472.59,-519.92"/>
<polygon fill="black" stroke="black" points="475.87,-521.16 476.08,-510.57 469.31,-518.71 475.87,-521.16"/>
</g>
<!-- j359993555&#45;&gt;j630447905 -->
<g id="edge23" class="edge">
<title>j359993555&#45;&gt;j630447905</title>
<path fill="none" stroke="black" d="M523.99,-707.69C516.07,-703.1 508.87,-697.31 503.5,-690 466.65,-639.85 472.27,-562.19 478.82,-520.6"/>
<polygon fill="black" stroke="black" points="482.24,-521.34 480.49,-510.89 475.35,-520.15 482.24,-521.34"/>
</g>
<!-- j3799730428 -->
<g id="node19" class="node">
<title>j3799730428</title>
<polygon fill="none" stroke="blue" points="1126,-690 513,-690 513,-654 1126,-654 1126,-690"/>
<text text-anchor="middle" x="819.5" y="-668.3" font-family="Times New Roman,serif" font-size="14.00">qual é a PIOR coisa q pode acontecer?! nn é como se fossem mandar mais scaldra atrás da gente kkkkkkk</text>
</g>
<!-- j3004351822&#45;&gt;j3799730428 -->
<g id="edge24" class="edge">
<title>j3004351822&#45;&gt;j3799730428</title>
<path fill="none" stroke="black" d="M782.57,-761.97C789.39,-745.53 799.84,-720.35 807.89,-700.97"/>
<polygon fill="black" stroke="black" points="811.12,-702.32 811.72,-691.74 804.66,-699.63 811.12,-702.32"/>
</g>
<!-- j2148433822 -->
<g id="node20" class="node">
<title>j2148433822</title>
<polygon fill="none" stroke="blue" points="821.5,-401 397.5,-401 397.5,-365 821.5,-365 821.5,-401"/>
<text text-anchor="middle" x="609.5" y="-379.3" font-family="Times New Roman,serif" font-size="14.00">mas quero testar em algo pequeno antes fazer algo mais… interessante…</text>
</g>
<!-- j630447905&#45;&gt;j2148433822 -->
<g id="edge25" class="edge">
<title>j630447905&#45;&gt;j2148433822</title>
<path fill="none" stroke="black" d="M504.86,-472.73C525.38,-455.33 557.25,-428.31 580.42,-408.66"/>
<polygon fill="black" stroke="black" points="582.63,-411.38 587.99,-402.24 578.1,-406.04 582.63,-411.38"/>
</g>
<!-- j3572728744 -->
<g id="node21" class="node">
<title>j3572728744</title>
<polygon fill="none" stroke="red" points="604.5,-582 512.5,-582 512.5,-546 604.5,-546 604.5,-582"/>
<text text-anchor="middle" x="558.5" y="-560.3" font-family="Times New Roman,serif" font-size="14.00">Tá, tudo bem</text>
</g>
<!-- j3799730428&#45;&gt;j3572728744 -->
<g id="edge26" class="edge">
<title>j3799730428&#45;&gt;j3572728744</title>
<path fill="none" stroke="black" d="M776.69,-653.61C731.65,-635.32 660.67,-606.5 611.98,-586.72"/>
<polygon fill="black" stroke="black" points="613.31,-583.48 602.73,-582.96 610.68,-589.97 613.31,-583.48"/>
</g>
<!-- j1637038676 -->
<g id="node22" class="node">
<title>j1637038676</title>
<polygon fill="none" stroke="red" points="1188.5,-582 622.5,-582 622.5,-546 1188.5,-546 1188.5,-582"/>
<text text-anchor="middle" x="905.5" y="-560.3" font-family="Times New Roman,serif" font-size="14.00">Nunca é bom provocar um conglomerado da mídia. Eles têm coisa pior que a Scaldra: advogados</text>
</g>
<!-- j3799730428&#45;&gt;j1637038676 -->
<g id="edge27" class="edge">
<title>j3799730428&#45;&gt;j1637038676</title>
<path fill="none" stroke="black" d="M833.32,-653.97C847.09,-636.99 868.42,-610.7 884.33,-591.09"/>
<polygon fill="black" stroke="black" points="886.9,-593.49 890.48,-583.52 881.46,-589.08 886.9,-593.49"/>
</g>
<!-- j1013418948 -->
<g id="node23" class="node">
<title>j1013418948</title>
<polygon fill="none" stroke="blue" points="971,-328 284,-328 284,-292 971,-292 971,-328"/>
<text text-anchor="middle" x="627.5" y="-306.3" font-family="Times New Roman,serif" font-size="14.00">então, fala com o arthur amanhã e dá uma olhada se o apelido dele muda, deve levar umas 24 horas pro sistema atualizar</text>
</g>
<!-- j2148433822&#45;&gt;j1013418948 -->
<g id="edge28" class="edge">
<title>j2148433822&#45;&gt;j1013418948</title>
<path fill="none" stroke="black" d="M613.86,-364.81C615.83,-357.05 618.2,-347.68 620.41,-338.95"/>
<polygon fill="black" stroke="black" points="623.75,-340.05 622.81,-329.5 616.96,-338.33 623.75,-340.05"/>
</g>
<!-- j3572728744&#45;&gt;j630447905 -->
<g id="edge29" class="edge">
<title>j3572728744&#45;&gt;j630447905</title>
<path fill="none" stroke="black" d="M540.59,-545.81C531.65,-537.24 520.68,-526.71 510.81,-517.24"/>
<polygon fill="black" stroke="black" points="513.24,-514.72 503.6,-510.32 508.39,-519.77 513.24,-514.72"/>
</g>
<!-- j2654815856 -->
<g id="node24" class="node">
<title>j2654815856</title>
<polygon fill="none" stroke="blue" points="1006,-455 921,-455 921,-419 1006,-419 1006,-455"/>
<text text-anchor="middle" x="963.5" y="-433.3" font-family="Times New Roman,serif" font-size="14.00">sem graçaaa</text>
</g>
<!-- j1637038676&#45;&gt;j2654815856 -->
<g id="edge30" class="edge">
<title>j1637038676&#45;&gt;j2654815856</title>
<path fill="none" stroke="black" d="M913.56,-545.62C923.17,-524.91 939.35,-490.05 950.68,-465.63"/>
<polygon fill="black" stroke="black" points="953.83,-467.15 954.87,-456.61 947.48,-464.2 953.83,-467.15"/>
</g>
<!-- j3659842476 -->
<g id="node25" class="node">
<title>j3659842476</title>
<ellipse fill="none" stroke="orange" cx="710.5" cy="-237" rx="64.19" ry="18"/>
<text text-anchor="middle" x="710.5" y="-233.3" font-family="Times New Roman,serif" font-size="14.00">+20 Chemistry</text>
</g>
<!-- j1013418948&#45;&gt;j3659842476 -->
<g id="edge31" class="edge">
<title>j1013418948&#45;&gt;j3659842476</title>
<path fill="none" stroke="black" d="M647.59,-291.81C658.14,-282.79 671.24,-271.59 682.74,-261.74"/>
<polygon fill="black" stroke="black" points="684.69,-264.68 690.01,-255.52 680.14,-259.36 684.69,-264.68"/>
</g>
<!-- j2654815856&#45;&gt;Chat ends. -->
<g id="edge32" class="edge">
<title>j2654815856&#45;&gt;Chat ends.</title>
<path fill="none" stroke="black" d="M992.54,-418.71C1014.72,-403.08 1041.5,-377.82 1041.5,-347 1041.5,-347 1041.5,-347 1041.5,-90 1041.5,-46.57 1092.42,-29.6 1135.89,-23.03"/>
<polygon fill="black" stroke="black" points="1136.08,-26.53 1145.53,-21.74 1135.15,-19.59 1136.08,-26.53"/>
</g>
<!-- j1854893148 -->
<g id="node26" class="node">
<title>j1854893148</title>
<polygon fill="none" stroke="blue" points="875,-182 606,-182 606,-146 875,-146 875,-182"/>
<text text-anchor="middle" x="740.5" y="-160.3" font-family="Times New Roman,serif" font-size="14.00">depois me conta tudo bb kkkkkkkkkkkkkkkk</text>
</g>
<!-- j3659842476&#45;&gt;j1854893148 -->
<g id="edge33" class="edge">
<title>j3659842476&#45;&gt;j1854893148</title>
<path fill="none" stroke="black" d="M717.76,-218.81C721.12,-210.88 725.18,-201.26 728.94,-192.36"/>
<polygon fill="black" stroke="black" points="732.05,-194 732.72,-183.42 725.6,-191.27 732.05,-194"/>
</g>
<!-- Initiate conversation ArthurAmirHack in ArthurDialogue_rom.dialogue -->
<g id="node27" class="node">
<title>Initiate conversation ArthurAmirHack in ArthurDialogue_rom.dialogue</title>
<ellipse fill="none" stroke="orange" cx="747.5" cy="-91" rx="264.55" ry="18"/>
<text text-anchor="middle" x="747.5" y="-87.3" font-family="Times New Roman,serif" font-size="14.00">Queue conversation ArthurAmirHack in ArthurDialogue_rom.dialogue</text>
</g>
<!-- j1854893148&#45;&gt;Initiate conversation ArthurAmirHack in ArthurDialogue_rom.dialogue -->
<g id="edge34" class="edge">
<title>j1854893148&#45;&gt;Initiate conversation ArthurAmirHack in ArthurDialogue_rom.dialogue</title>
<path fill="none" stroke="black" d="M742.19,-145.81C742.95,-138.14 743.86,-128.89 744.72,-120.24"/>
<polygon fill="black" stroke="black" points="748.17,-120.83 745.67,-110.54 741.21,-120.14 748.17,-120.83"/>
</g>
<!-- Initiate conversation ArthurAmirHack in ArthurDialogue_rom.dialogue&#45;&gt;Chat ends. -->
<g id="edge35" class="edge">
<title>Initiate conversation ArthurAmirHack in ArthurDialogue_rom.dialogue&#45;&gt;Chat ends.</title>
<path fill="none" stroke="black" d="M849.1,-73.93C939.1,-59.7 1067.18,-39.45 1140.05,-27.93"/>
<polygon fill="black" stroke="black" points="1140.43,-31.41 1149.76,-26.39 1139.33,-24.5 1140.43,-31.41"/>
</g>
</g>
</svg>
