<?xml version="1.0" encoding="UTF-8" standalone="no"?>
<!DOCTYPE svg PUBLIC "-//W3C//DTD SVG 1.1//EN"
 "http://www.w3.org/Graphics/SVG/1.1/DTD/svg11.dtd">
<!-- Generated by graphviz version 7.1.0 (20230121.1956)
 -->
<!-- Pages: 1 -->
<svg width="3646pt" height="2285pt"
 viewBox="0.00 0.00 3646.00 2285.00" xmlns="http://www.w3.org/2000/svg" xmlns:xlink="http://www.w3.org/1999/xlink">
<g id="graph0" class="graph" transform="scale(1 1) rotate(0) translate(4 2281)">
<polygon fill="white" stroke="none" points="-4,4 -4,-2281 3642,-2281 3642,4 -4,4"/>
<!-- LettieRank2Convo1 begins. -->
<g id="node1" class="node">
<title>LettieRank2Convo1 begins.</title>
<ellipse fill="none" stroke="orange" cx="1154" cy="-2259" rx="111.58" ry="18"/>
<text text-anchor="middle" x="1154" y="-2255.3" font-family="Times New Roman,serif" font-size="14.00">LettieRank2Convo1 begins.</text>
</g>
<!-- j2549990084 -->
<g id="node2" class="node">
<title>j2549990084</title>
<ellipse fill="none" stroke="orange" cx="1154" cy="-2186" rx="109.68" ry="18"/>
<text text-anchor="middle" x="1154" y="-2182.3" font-family="Times New Roman,serif" font-size="14.00">Check boolean LettieDuviri</text>
</g>
<!-- LettieRank2Convo1 begins.&#45;&gt;j2549990084 -->
<g id="edge1" class="edge">
<title>LettieRank2Convo1 begins.&#45;&gt;j2549990084</title>
<path fill="none" stroke="black" d="M1154,-2240.81C1154,-2233.23 1154,-2224.1 1154,-2215.54"/>
<polygon fill="black" stroke="black" points="1157.5,-2215.54 1154,-2205.54 1150.5,-2215.54 1157.5,-2215.54"/>
</g>
<!-- j953150287 -->
<g id="node3" class="node">
<title>j953150287</title>
<polygon fill="none" stroke="blue" points="1091.5,-2117 850.5,-2117 850.5,-2079 1091.5,-2079 1091.5,-2117"/>
<text text-anchor="middle" x="971" y="-2101.8" font-family="Times New Roman,serif" font-size="14.00">ที่เคยตายไปน่ะ &#13;</text>
<text text-anchor="middle" x="971" y="-2086.8" font-family="Times New Roman,serif" font-size="14.00">เจ็บปวดไหม</text>
</g>
<!-- j2549990084&#45;&gt;j953150287 -->
<g id="edge2" class="edge">
<title>j2549990084&#45;&gt;j953150287</title>
<path fill="none" stroke="green" d="M1119.15,-2168.62C1091.2,-2155.49 1051.62,-2136.89 1020.4,-2122.22"/>
<polygon fill="green" stroke="green" points="1022.07,-2119.13 1011.53,-2118.05 1019.09,-2125.47 1022.07,-2119.13"/>
<text text-anchor="middle" x="1090" y="-2138.8" font-family="Times New Roman,serif" font-size="14.00">true</text>
</g>
<!-- j537947713 -->
<g id="node4" class="node">
<title>j537947713</title>
<polygon fill="none" stroke="blue" points="1568,-2117 1110,-2117 1110,-2079 1568,-2079 1568,-2117"/>
<text text-anchor="middle" x="1339" y="-2101.8" font-family="Times New Roman,serif" font-size="14.00">บอกหน่อยสิ babas &#13;</text>
<text text-anchor="middle" x="1339" y="-2086.8" font-family="Times New Roman,serif" font-size="14.00">ว่ารู้เรื่องความตายมากแค่ไหน</text>
</g>
<!-- j2549990084&#45;&gt;j537947713 -->
<g id="edge3" class="edge">
<title>j2549990084&#45;&gt;j537947713</title>
<path fill="none" stroke="brown" d="M1189.23,-2168.62C1217.49,-2155.49 1257.5,-2136.89 1289.06,-2122.22"/>
<polygon fill="brown" stroke="brown" points="1290.44,-2125.43 1298.04,-2118.04 1287.49,-2119.08 1290.44,-2125.43"/>
<text text-anchor="middle" x="1271" y="-2138.8" font-family="Times New Roman,serif" font-size="14.00">false</text>
</g>
<!-- j4051152509 -->
<g id="node5" class="node">
<title>j4051152509</title>
<polygon fill="none" stroke="red" points="1572.5,-2042 755.5,-2042 755.5,-2006 1572.5,-2006 1572.5,-2042"/>
<text text-anchor="middle" x="1164" y="-2020.3" font-family="Times New Roman,serif" font-size="14.00">ข้าเคยคิดว่า*ตัวเอง*ประหลาดแล้วนะ... เจ้าสบายดีไหมเนี่ย</text>
</g>
<!-- j953150287&#45;&gt;j4051152509 -->
<g id="edge4" class="edge">
<title>j953150287&#45;&gt;j4051152509</title>
<path fill="none" stroke="black" d="M1020.45,-2078.55C1046.78,-2068.73 1079.29,-2056.6 1106.71,-2046.37"/>
<polygon fill="black" stroke="black" points="1107.77,-2049.71 1115.92,-2042.94 1105.32,-2043.15 1107.77,-2049.71"/>
</g>
<!-- j3739971046 -->
<g id="node6" class="node">
<title>j3739971046</title>
<polygon fill="none" stroke="red" points="2425.5,-2042 1590.5,-2042 1590.5,-2006 2425.5,-2006 2425.5,-2042"/>
<text text-anchor="middle" x="2008" y="-2020.3" font-family="Times New Roman,serif" font-size="14.00">ฮ่า ๆ คุณผู้หญิงเอ๋ย อย่าให้ข้าเริ่มเล่าเลย แล้วเจ้าล่ะ</text>
</g>
<!-- j953150287&#45;&gt;j3739971046 -->
<g id="edge5" class="edge">
<title>j953150287&#45;&gt;j3739971046</title>
<path fill="none" stroke="black" d="M1091.71,-2079.96C1094.84,-2079.62 1097.94,-2079.3 1101,-2079 1259.89,-2063.29 1434.92,-2051.57 1588.49,-2043.13"/>
<polygon fill="black" stroke="black" points="1588.68,-2046.62 1598.47,-2042.58 1588.3,-2039.63 1588.68,-2046.62"/>
</g>
<!-- j2696176888 -->
<g id="node7" class="node">
<title>j2696176888</title>
<polygon fill="none" stroke="red" points="737,-2042 51,-2042 51,-2006 737,-2006 737,-2042"/>
<text text-anchor="middle" x="394" y="-2020.3" font-family="Times New Roman,serif" font-size="14.00">เจ้าควรต้องออกไปข้างนอกบ่อยขึ้นจริง ๆ แล้วนะ</text>
</g>
<!-- j953150287&#45;&gt;j2696176888 -->
<g id="edge6" class="edge">
<title>j953150287&#45;&gt;j2696176888</title>
<path fill="none" stroke="black" d="M850.04,-2081.91C761.36,-2070.84 640.34,-2055.74 545.26,-2043.87"/>
<polygon fill="black" stroke="black" points="545.95,-2040.43 535.59,-2042.67 545.08,-2047.38 545.95,-2040.43"/>
</g>
<!-- j537947713&#45;&gt;j4051152509 -->
<g id="edge7" class="edge">
<title>j537947713&#45;&gt;j4051152509</title>
<path fill="none" stroke="black" d="M1294.39,-2078.65C1270.73,-2068.91 1241.51,-2056.89 1216.74,-2046.7"/>
<polygon fill="black" stroke="black" points="1218.4,-2043.6 1207.82,-2043.03 1215.74,-2050.07 1218.4,-2043.6"/>
</g>
<!-- j537947713&#45;&gt;j3739971046 -->
<g id="edge8" class="edge">
<title>j537947713&#45;&gt;j3739971046</title>
<path fill="none" stroke="black" d="M1510.85,-2078.5C1610.1,-2067.82 1734.61,-2054.42 1834.19,-2043.71"/>
<polygon fill="black" stroke="black" points="1834.51,-2047.19 1844.08,-2042.64 1833.77,-2040.23 1834.51,-2047.19"/>
</g>
<!-- j537947713&#45;&gt;j2696176888 -->
<g id="edge9" class="edge">
<title>j537947713&#45;&gt;j2696176888</title>
<path fill="none" stroke="black" d="M1109.64,-2079.52C965.89,-2068.57 780.86,-2054.48 634.96,-2043.36"/>
<polygon fill="black" stroke="black" points="635.39,-2039.88 625.15,-2042.61 634.86,-2046.86 635.39,-2039.88"/>
</g>
<!-- j3668453929 -->
<g id="node8" class="node">
<title>j3668453929</title>
<polygon fill="none" stroke="blue" points="2225,-1969 1791,-1969 1791,-1933 2225,-1933 2225,-1969"/>
<text text-anchor="middle" x="2008" y="-1947.3" font-family="Times New Roman,serif" font-size="14.00">ข้ากับ La Flaca รู้จักกันดีมากเลย</text>
</g>
<!-- j4051152509&#45;&gt;j3668453929 -->
<g id="edge10" class="edge">
<title>j4051152509&#45;&gt;j3668453929</title>
<path fill="none" stroke="black" d="M1371.82,-2005.52C1498.57,-1994.86 1660.4,-1981.24 1789.12,-1970.41"/>
<polygon fill="black" stroke="black" points="1789.11,-1973.93 1798.78,-1969.6 1788.52,-1966.95 1789.11,-1973.93"/>
</g>
<!-- j3739971046&#45;&gt;j3668453929 -->
<g id="edge11" class="edge">
<title>j3739971046&#45;&gt;j3668453929</title>
<path fill="none" stroke="black" d="M2008,-2005.81C2008,-1998.23 2008,-1989.1 2008,-1980.54"/>
<polygon fill="black" stroke="black" points="2011.5,-1980.54 2008,-1970.54 2004.5,-1980.54 2011.5,-1980.54"/>
</g>
<!-- j1759475013 -->
<g id="node9" class="node">
<title>j1759475013</title>
<polygon fill="none" stroke="blue" points="260,-1915 190,-1915 190,-1879 260,-1879 260,-1915"/>
<text text-anchor="middle" x="225" y="-1893.3" font-family="Times New Roman,serif" font-size="14.00">Ay, equis</text>
</g>
<!-- j2696176888&#45;&gt;j1759475013 -->
<g id="edge12" class="edge">
<title>j2696176888&#45;&gt;j1759475013</title>
<path fill="none" stroke="black" d="M370.5,-2005.62C341.07,-1983.85 290.5,-1946.45 257.41,-1921.97"/>
<polygon fill="black" stroke="black" points="259.91,-1919.47 249.79,-1916.33 255.75,-1925.09 259.91,-1919.47"/>
</g>
<!-- j1319866991 -->
<g id="node10" class="node">
<title>j1319866991</title>
<polygon fill="none" stroke="red" points="2155.5,-1861 1860.5,-1861 1860.5,-1825 2155.5,-1825 2155.5,-1861"/>
<text text-anchor="middle" x="2008" y="-1839.3" font-family="Times New Roman,serif" font-size="14.00">La Flaca คือความตายเหรอ?</text>
</g>
<!-- j3668453929&#45;&gt;j1319866991 -->
<g id="edge13" class="edge">
<title>j3668453929&#45;&gt;j1319866991</title>
<path fill="none" stroke="black" d="M2008,-1932.97C2008,-1916.76 2008,-1892.06 2008,-1872.79"/>
<polygon fill="black" stroke="black" points="2011.5,-1872.85 2008,-1862.85 2004.5,-1872.85 2011.5,-1872.85"/>
</g>
<!-- j3016983342 -->
<g id="node11" class="node">
<title>j3016983342</title>
<polygon fill="none" stroke="red" points="2353.5,-1861 2184.5,-1861 2184.5,-1825 2353.5,-1825 2353.5,-1861"/>
<text text-anchor="middle" x="2269" y="-1839.3" font-family="Times New Roman,serif" font-size="14.00">La Flaca คือใคร?</text>
</g>
<!-- j3668453929&#45;&gt;j3016983342 -->
<g id="edge14" class="edge">
<title>j3668453929&#45;&gt;j3016983342</title>
<path fill="none" stroke="black" d="M2050.81,-1932.61C2095.85,-1914.32 2166.83,-1885.5 2215.52,-1865.72"/>
<polygon fill="black" stroke="black" points="2216.82,-1868.97 2224.77,-1861.96 2214.19,-1862.48 2216.82,-1868.97"/>
</g>
<!-- Chat ends. -->
<g id="node12" class="node">
<title>Chat ends.</title>
<ellipse fill="none" stroke="orange" cx="2388" cy="-18" rx="50.09" ry="18"/>
<text text-anchor="middle" x="2388" y="-14.3" font-family="Times New Roman,serif" font-size="14.00">Chat ends.</text>
</g>
<!-- j1759475013&#45;&gt;Chat ends. -->
<g id="edge15" class="edge">
<title>j1759475013&#45;&gt;Chat ends.</title>
<path fill="none" stroke="black" d="M189.84,-1889.66C126.56,-1877.23 0,-1847.33 0,-1807 0,-1807 0,-1807 0,-90 0,-30.01 1951.44,-20.46 2326.18,-19.18"/>
<polygon fill="black" stroke="black" points="2326.07,-22.68 2336.06,-19.15 2326.05,-15.68 2326.07,-22.68"/>
</g>
<!-- j3745375439 -->
<g id="node13" class="node">
<title>j3745375439</title>
<polygon fill="none" stroke="blue" points="2181.5,-1788 1834.5,-1788 1834.5,-1750 2181.5,-1750 2181.5,-1788"/>
<text text-anchor="middle" x="2008" y="-1772.8" font-family="Times New Roman,serif" font-size="14.00">Sí &#13;</text>
<text text-anchor="middle" x="2008" y="-1757.8" font-family="Times New Roman,serif" font-size="14.00">แปลกใจที่เอ็งตามทันนะ</text>
</g>
<!-- j1319866991&#45;&gt;j3745375439 -->
<g id="edge16" class="edge">
<title>j1319866991&#45;&gt;j3745375439</title>
<path fill="none" stroke="black" d="M2008,-1824.57C2008,-1817.1 2008,-1808.17 2008,-1799.71"/>
<polygon fill="black" stroke="black" points="2011.5,-1799.79 2008,-1789.79 2004.5,-1799.79 2011.5,-1799.79"/>
</g>
<!-- j233579982 -->
<g id="node14" class="node">
<title>j233579982</title>
<polygon fill="none" stroke="blue" points="2382,-1788 2208,-1788 2208,-1750 2382,-1750 2382,-1788"/>
<text text-anchor="middle" x="2295" y="-1772.8" font-family="Times New Roman,serif" font-size="14.00">หญิงผอมโซ &#13;</text>
<text text-anchor="middle" x="2295" y="-1757.8" font-family="Times New Roman,serif" font-size="14.00">ความตายน่ะ</text>
</g>
<!-- j3016983342&#45;&gt;j233579982 -->
<g id="edge17" class="edge">
<title>j3016983342&#45;&gt;j233579982</title>
<path fill="none" stroke="black" d="M2275.29,-1824.57C2278.08,-1816.85 2281.44,-1807.55 2284.59,-1798.84"/>
<polygon fill="black" stroke="black" points="2287.78,-1800.29 2287.89,-1789.7 2281.2,-1797.91 2287.78,-1800.29"/>
</g>
<!-- j3638897066 -->
<g id="node15" class="node">
<title>j3638897066</title>
<ellipse fill="none" stroke="orange" cx="2008" cy="-1695" rx="146.77" ry="18"/>
<text text-anchor="middle" x="2008" y="-1691.3" font-family="Times New Roman,serif" font-size="14.00">Boolean LettieFantasma2 is now true.</text>
</g>
<!-- j3745375439&#45;&gt;j3638897066 -->
<g id="edge18" class="edge">
<title>j3745375439&#45;&gt;j3638897066</title>
<path fill="none" stroke="black" d="M2008,-1749.83C2008,-1742.24 2008,-1733.24 2008,-1724.79"/>
<polygon fill="black" stroke="black" points="2011.5,-1724.93 2008,-1714.93 2004.5,-1724.93 2011.5,-1724.93"/>
</g>
<!-- j3032473948 -->
<g id="node16" class="node">
<title>j3032473948</title>
<ellipse fill="none" stroke="orange" cx="2320" cy="-1695" rx="146.77" ry="18"/>
<text text-anchor="middle" x="2320" y="-1691.3" font-family="Times New Roman,serif" font-size="14.00">Boolean LettieFantasma2 is now true.</text>
</g>
<!-- j233579982&#45;&gt;j3032473948 -->
<g id="edge19" class="edge">
<title>j233579982&#45;&gt;j3032473948</title>
<path fill="none" stroke="black" d="M2301.31,-1749.83C2304,-1742.07 2307.21,-1732.83 2310.21,-1724.21"/>
<polygon fill="black" stroke="black" points="2313.48,-1725.44 2313.46,-1714.85 2306.87,-1723.15 2313.48,-1725.44"/>
</g>
<!-- j1424914482 -->
<g id="node17" class="node">
<title>j1424914482</title>
<ellipse fill="none" stroke="orange" cx="2320" cy="-1622" rx="59.59" ry="18"/>
<text text-anchor="middle" x="2320" y="-1618.3" font-family="Times New Roman,serif" font-size="14.00">+5 Chemistry</text>
</g>
<!-- j3638897066&#45;&gt;j1424914482 -->
<g id="edge20" class="edge">
<title>j3638897066&#45;&gt;j1424914482</title>
<path fill="none" stroke="black" d="M2075.7,-1678.59C2131.47,-1665.9 2209.68,-1648.1 2262.47,-1636.09"/>
<polygon fill="black" stroke="black" points="2263.2,-1639.51 2272.18,-1633.88 2261.65,-1632.69 2263.2,-1639.51"/>
</g>
<!-- j3032473948&#45;&gt;j1424914482 -->
<g id="edge21" class="edge">
<title>j3032473948&#45;&gt;j1424914482</title>
<path fill="none" stroke="black" d="M2320,-1676.81C2320,-1669.23 2320,-1660.1 2320,-1651.54"/>
<polygon fill="black" stroke="black" points="2323.5,-1651.54 2320,-1641.54 2316.5,-1651.54 2323.5,-1651.54"/>
</g>
<!-- j3497726534 -->
<g id="node18" class="node">
<title>j3497726534</title>
<polygon fill="none" stroke="blue" points="2572,-1567 2126,-1567 2126,-1514 2572,-1514 2572,-1567"/>
<text text-anchor="middle" x="2349" y="-1551.8" font-family="Times New Roman,serif" font-size="14.00">ข้าเคารพเธอนะ &#13;</text>
<text text-anchor="middle" x="2349" y="-1536.8" font-family="Times New Roman,serif" font-size="14.00">แม้บางครั้งก็ไม่อยากชอบหรอก &#13;</text>
<text text-anchor="middle" x="2349" y="-1521.8" font-family="Times New Roman,serif" font-size="14.00">แต่เธอก็คอยดูแลคนที่ข้าห่วง</text>
</g>
<!-- j1424914482&#45;&gt;j3497726534 -->
<g id="edge22" class="edge">
<title>j1424914482&#45;&gt;j3497726534</title>
<path fill="none" stroke="black" d="M2326.29,-1603.75C2329.04,-1596.22 2332.37,-1587.08 2335.63,-1578.15"/>
<polygon fill="black" stroke="black" points="2338.86,-1579.5 2339,-1568.91 2332.29,-1577.1 2338.86,-1579.5"/>
</g>
<!-- j4268386380 -->
<g id="node19" class="node">
<title>j4268386380</title>
<ellipse fill="none" stroke="orange" cx="2365" cy="-1459" rx="141.88" ry="18"/>
<text text-anchor="middle" x="2365" y="-1455.3" font-family="Times New Roman,serif" font-size="14.00">Boolean LettieReligion1 is now true.</text>
</g>
<!-- j3497726534&#45;&gt;j4268386380 -->
<g id="edge23" class="edge">
<title>j3497726534&#45;&gt;j4268386380</title>
<path fill="none" stroke="black" d="M2354.15,-1513.91C2355.79,-1505.76 2357.61,-1496.71 2359.29,-1488.38"/>
<polygon fill="black" stroke="black" points="2362.69,-1489.23 2361.23,-1478.74 2355.82,-1487.85 2362.69,-1489.23"/>
</g>
<!-- j1762771008 -->
<g id="node20" class="node">
<title>j1762771008</title>
<polygon fill="none" stroke="red" points="2914.5,-1404 1815.5,-1404 1815.5,-1368 2914.5,-1368 2914.5,-1404"/>
<text text-anchor="middle" x="2365" y="-1382.3" font-family="Times New Roman,serif" font-size="14.00">แต่เจ้าเป็นหมอ มีหน้าที่รักษาคนไม่ใช่เหรอ จะไป &quot;เคารพ&quot; ความตายได้ยังไงกัน</text>
</g>
<!-- j4268386380&#45;&gt;j1762771008 -->
<g id="edge24" class="edge">
<title>j4268386380&#45;&gt;j1762771008</title>
<path fill="none" stroke="black" d="M2365,-1440.81C2365,-1433.23 2365,-1424.1 2365,-1415.54"/>
<polygon fill="black" stroke="black" points="2368.5,-1415.54 2365,-1405.54 2361.5,-1415.54 2368.5,-1415.54"/>
</g>
<!-- j432256281 -->
<g id="node21" class="node">
<title>j432256281</title>
<polygon fill="none" stroke="red" points="3638,-1404 2940,-1404 2940,-1368 3638,-1368 3638,-1404"/>
<text text-anchor="middle" x="3289" y="-1382.3" font-family="Times New Roman,serif" font-size="14.00">ความตายไม่ใช่มนุษย์นะ แต่เป็นสิ่งที่เกิดขึ้น</text>
</g>
<!-- j4268386380&#45;&gt;j432256281 -->
<g id="edge25" class="edge">
<title>j4268386380&#45;&gt;j432256281</title>
<path fill="none" stroke="black" d="M2483.91,-1448.86C2626.42,-1437.91 2868.71,-1419.3 3050.34,-1405.34"/>
<polygon fill="black" stroke="black" points="3050.46,-1408.84 3060.16,-1404.58 3049.92,-1401.86 3050.46,-1408.84"/>
</g>
<!-- j578993128 -->
<g id="node22" class="node">
<title>j578993128</title>
<polygon fill="none" stroke="blue" points="2452,-1331 2278,-1331 2278,-1295 2452,-1295 2452,-1331"/>
<text text-anchor="middle" x="2365" y="-1309.3" font-family="Times New Roman,serif" font-size="14.00">คิดผิดแล้ว</text>
</g>
<!-- j1762771008&#45;&gt;j578993128 -->
<g id="edge26" class="edge">
<title>j1762771008&#45;&gt;j578993128</title>
<path fill="none" stroke="black" d="M2365,-1367.81C2365,-1360.23 2365,-1351.1 2365,-1342.54"/>
<polygon fill="black" stroke="black" points="2368.5,-1342.54 2365,-1332.54 2361.5,-1342.54 2368.5,-1342.54"/>
</g>
<!-- j2547240352 -->
<g id="node23" class="node">
<title>j2547240352</title>
<polygon fill="none" stroke="blue" points="3317,-1277 3263,-1277 3263,-1241 3317,-1241 3317,-1277"/>
<text text-anchor="middle" x="3290" y="-1255.3" font-family="Times New Roman,serif" font-size="14.00">Va</text>
</g>
<!-- j432256281&#45;&gt;j2547240352 -->
<g id="edge27" class="edge">
<title>j432256281&#45;&gt;j2547240352</title>
<path fill="none" stroke="black" d="M3289.14,-1367.62C3289.3,-1347.19 3289.58,-1312.99 3289.77,-1288.62"/>
<polygon fill="black" stroke="black" points="3293.27,-1288.77 3289.85,-1278.75 3286.27,-1288.72 3293.27,-1288.77"/>
</g>
<!-- j4087927951 -->
<g id="node24" class="node">
<title>j4087927951</title>
<ellipse fill="none" stroke="orange" cx="2365" cy="-1205" rx="109.68" ry="18"/>
<text text-anchor="middle" x="2365" y="-1201.3" font-family="Times New Roman,serif" font-size="14.00">Check boolean LettieDuviri</text>
</g>
<!-- j578993128&#45;&gt;j4087927951 -->
<g id="edge28" class="edge">
<title>j578993128&#45;&gt;j4087927951</title>
<path fill="none" stroke="black" d="M2365,-1294.97C2365,-1278.76 2365,-1254.06 2365,-1234.79"/>
<polygon fill="black" stroke="black" points="2368.5,-1234.85 2365,-1224.85 2361.5,-1234.85 2368.5,-1234.85"/>
</g>
<!-- j2547240352&#45;&gt;Chat ends. -->
<g id="edge29" class="edge">
<title>j2547240352&#45;&gt;Chat ends.</title>
<path fill="none" stroke="black" d="M3291.16,-1240.76C3292.34,-1221.64 3294,-1189.88 3294,-1162.5 3294,-1162.5 3294,-1162.5 3294,-90 3294,-47.54 2653.06,-26.28 2449.36,-20.59"/>
<polygon fill="black" stroke="black" points="2449.61,-17.1 2439.51,-20.32 2449.41,-24.09 2449.61,-17.1"/>
</g>
<!-- j1668316873 -->
<g id="node25" class="node">
<title>j1668316873</title>
<polygon fill="none" stroke="blue" points="2069,-1136 647,-1136 647,-1083 2069,-1083 2069,-1136"/>
<text text-anchor="middle" x="1358" y="-1120.8" font-family="Times New Roman,serif" font-size="14.00">ทุกครั้งที่ตาย &#13;</text>
<text text-anchor="middle" x="1358" y="-1105.8" font-family="Times New Roman,serif" font-size="14.00">เอ็งเอาแต่โทษความตายที่ต้องจบความเจ็บปวดให้หรือเปล่า &#13;</text>
<text text-anchor="middle" x="1358" y="-1090.8" font-family="Times New Roman,serif" font-size="14.00">เป็นความผิดของเธอเหรอที่ทำให้เอ็งต้องทนทุกข์ หรือเป็นความผิดของคนที่ทำให้เอ็งเจ็บปวดกันแน่</text>
</g>
<!-- j4087927951&#45;&gt;j1668316873 -->
<g id="edge30" class="edge">
<title>j4087927951&#45;&gt;j1668316873</title>
<path fill="none" stroke="green" d="M2271.62,-1195.33C2131.21,-1182.29 1859.73,-1157.09 1649.03,-1137.52"/>
<polygon fill="green" stroke="green" points="1649.57,-1134.06 1639.29,-1136.62 1648.92,-1141.03 1649.57,-1134.06"/>
<text text-anchor="middle" x="1993" y="-1157.8" font-family="Times New Roman,serif" font-size="14.00">true</text>
</g>
<!-- j1578862598 -->
<g id="node26" class="node">
<title>j1578862598</title>
<polygon fill="none" stroke="blue" points="3178.5,-1136 2087.5,-1136 2087.5,-1083 3178.5,-1083 3178.5,-1136"/>
<text text-anchor="middle" x="2633" y="-1120.8" font-family="Times New Roman,serif" font-size="14.00">งานของข้าคือต้องทำให้แน่ใจว่าเธอจะมารับคนไปเมื่อถึงเวลาของพวกเขาแล้ว &#13;</text>
<text text-anchor="middle" x="2633" y="-1105.8" font-family="Times New Roman,serif" font-size="14.00">จนกว่าเธอจะพรากพวกเขาไปจากมือข้า &#13;</text>
<text text-anchor="middle" x="2633" y="-1090.8" font-family="Times New Roman,serif" font-size="14.00">และจะไม่เร็วกว่านั้นแม้สักวินาทีเดียว</text>
</g>
<!-- j4087927951&#45;&gt;j1578862598 -->
<g id="edge31" class="edge">
<title>j4087927951&#45;&gt;j1578862598</title>
<path fill="none" stroke="brown" d="M2410.16,-1188.24C2447.65,-1175.16 2502.04,-1156.19 2547.7,-1140.26"/>
<polygon fill="brown" stroke="brown" points="2548.78,-1143.59 2557.07,-1136.99 2546.47,-1136.98 2548.78,-1143.59"/>
<text text-anchor="middle" x="2520" y="-1157.8" font-family="Times New Roman,serif" font-size="14.00">false</text>
</g>
<!-- j1760288754 -->
<g id="node27" class="node">
<title>j1760288754</title>
<polygon fill="none" stroke="blue" points="2463,-1046 1639,-1046 1639,-978 2463,-978 2463,-1046"/>
<text text-anchor="middle" x="2051" y="-1030.8" font-family="Times New Roman,serif" font-size="14.00">แต่เมื่อเธอมา &#13;</text>
<text text-anchor="middle" x="2051" y="-1015.8" font-family="Times New Roman,serif" font-size="14.00">ข้าจะทำให้เธอรู้ว่าได้รับการต้อนรับอย่างดี &#13;</text>
<text text-anchor="middle" x="2051" y="-1000.8" font-family="Times New Roman,serif" font-size="14.00">เธอช่วยขจัดความเจ็บปวดออกไปนะ babas &#13;</text>
<text text-anchor="middle" x="2051" y="-985.8" font-family="Times New Roman,serif" font-size="14.00">เพราะงั้นไม่ใช่อะไรที่น่ากลัวหรอก แต่น่าเคารพต่างหาก</text>
</g>
<!-- j1668316873&#45;&gt;j1760288754 -->
<g id="edge32" class="edge">
<title>j1668316873&#45;&gt;j1760288754</title>
<path fill="none" stroke="black" d="M1546.45,-1082.53C1623.57,-1071.9 1713.98,-1059.44 1796.8,-1048.03"/>
<polygon fill="black" stroke="black" points="1797.24,-1051.5 1806.67,-1046.67 1796.28,-1044.57 1797.24,-1051.5"/>
</g>
<!-- j1578862598&#45;&gt;j1760288754 -->
<g id="edge33" class="edge">
<title>j1578862598&#45;&gt;j1760288754</title>
<path fill="none" stroke="black" d="M2474.73,-1082.53C2410.43,-1071.98 2335.13,-1059.62 2265.98,-1048.28"/>
<polygon fill="black" stroke="black" points="2266.86,-1044.87 2256.43,-1046.71 2265.73,-1051.78 2266.86,-1044.87"/>
</g>
<!-- j3780264079 -->
<g id="node28" class="node">
<title>j3780264079</title>
<polygon fill="none" stroke="red" points="2790.5,-941 1311.5,-941 1311.5,-905 2790.5,-905 2790.5,-941"/>
<text text-anchor="middle" x="2051" y="-919.3" font-family="Times New Roman,serif" font-size="14.00">ตอนอยู่ที่ Duviri และรู้ว่าตัวเองกำลังจะตาย บางครั้งก็รู้สึกโล่งใจนะที่รู้ว่าในไม่ช้าทุกอย่างจะจบลง</text>
</g>
<!-- j1760288754&#45;&gt;j3780264079 -->
<g id="edge34" class="edge">
<title>j1760288754&#45;&gt;j3780264079</title>
<path fill="none" stroke="black" d="M2051,-977.61C2051,-969.34 2051,-960.55 2051,-952.53"/>
<polygon fill="black" stroke="black" points="2054.5,-952.64 2051,-942.64 2047.5,-952.64 2054.5,-952.64"/>
</g>
<!-- j1059757450 -->
<g id="node29" class="node">
<title>j1059757450</title>
<polygon fill="none" stroke="red" points="1293.5,-941 28.5,-941 28.5,-905 1293.5,-905 1293.5,-941"/>
<text text-anchor="middle" x="661" y="-919.3" font-family="Times New Roman,serif" font-size="14.00">เดาว่าส่วนหนึ่งของข้าคงเข้าใจเรื่องนั้นดี แม้จะไม่ชอบความคิดที่ว่าจะต้องตายก็ตาม</text>
</g>
<!-- j1760288754&#45;&gt;j1059757450 -->
<g id="edge35" class="edge">
<title>j1760288754&#45;&gt;j1059757450</title>
<path fill="none" stroke="black" d="M1638.66,-985.19C1417.72,-971.36 1150.85,-954.66 951.79,-942.2"/>
<polygon fill="black" stroke="black" points="952.28,-938.72 942.08,-941.59 951.84,-945.71 952.28,-938.72"/>
</g>
<!-- j3416863341 -->
<g id="node30" class="node">
<title>j3416863341</title>
<polygon fill="none" stroke="red" points="3265.5,-941 2808.5,-941 2808.5,-905 3265.5,-905 3265.5,-941"/>
<text text-anchor="middle" x="3037" y="-919.3" font-family="Times New Roman,serif" font-size="14.00">ข้า... จะหยุดคุยเรื่องนี้แล้วนะ</text>
</g>
<!-- j1760288754&#45;&gt;j3416863341 -->
<g id="edge36" class="edge">
<title>j1760288754&#45;&gt;j3416863341</title>
<path fill="none" stroke="black" d="M2430.45,-977.52C2565.28,-965.62 2712.1,-952.67 2827.52,-942.48"/>
<polygon fill="black" stroke="black" points="2827.78,-945.97 2837.43,-941.61 2827.16,-939 2827.78,-945.97"/>
</g>
<!-- j1970959481 -->
<g id="node31" class="node">
<title>j1970959481</title>
<polygon fill="none" stroke="red" points="2423.5,-868 1678.5,-868 1678.5,-832 2423.5,-832 2423.5,-868"/>
<text text-anchor="middle" x="2051" y="-846.3" font-family="Times New Roman,serif" font-size="14.00">ไม่ว่าจะเจ็บปวดแค่ไหน ความมืดก็จะมาเยือนและจบลง</text>
</g>
<!-- j3780264079&#45;&gt;j1970959481 -->
<g id="edge37" class="edge">
<title>j3780264079&#45;&gt;j1970959481</title>
<path fill="none" stroke="black" d="M2051,-904.81C2051,-897.23 2051,-888.1 2051,-879.54"/>
<polygon fill="black" stroke="black" points="2054.5,-879.54 2051,-869.54 2047.5,-879.54 2054.5,-879.54"/>
</g>
<!-- j3780155574 -->
<g id="node32" class="node">
<title>j3780155574</title>
<polygon fill="none" stroke="blue" points="1426.5,-868 1371.5,-868 1371.5,-832 1426.5,-832 1426.5,-868"/>
<text text-anchor="middle" x="1399" y="-846.3" font-family="Times New Roman,serif" font-size="14.00">Hm, sí</text>
</g>
<!-- j1059757450&#45;&gt;j3780155574 -->
<g id="edge38" class="edge">
<title>j1059757450&#45;&gt;j3780155574</title>
<path fill="none" stroke="black" d="M842.48,-904.54C1015.81,-887.87 1264.33,-863.96 1359.69,-854.78"/>
<polygon fill="black" stroke="black" points="1359.94,-858.27 1369.56,-853.83 1359.27,-851.31 1359.94,-858.27"/>
</g>
<!-- j2893778673 -->
<g id="node33" class="node">
<title>j2893778673</title>
<polygon fill="none" stroke="blue" points="2886,-814 2776,-814 2776,-778 2886,-778 2886,-814"/>
<text text-anchor="middle" x="2831" y="-792.3" font-family="Times New Roman,serif" font-size="14.00">Ay, equis, pansy</text>
</g>
<!-- j3416863341&#45;&gt;j2893778673 -->
<g id="edge39" class="edge">
<title>j3416863341&#45;&gt;j2893778673</title>
<path fill="none" stroke="black" d="M3008.36,-904.62C2972.18,-882.67 2909.79,-844.81 2869.48,-820.35"/>
<polygon fill="black" stroke="black" points="2871.39,-817.41 2861.03,-815.22 2867.76,-823.4 2871.39,-817.41"/>
</g>
<!-- j3582546613 -->
<g id="node34" class="node">
<title>j3582546613</title>
<ellipse fill="none" stroke="orange" cx="2051" cy="-742" rx="64.19" ry="18"/>
<text text-anchor="middle" x="2051" y="-738.3" font-family="Times New Roman,serif" font-size="14.00">+10 Chemistry</text>
</g>
<!-- j1970959481&#45;&gt;j3582546613 -->
<g id="edge40" class="edge">
<title>j1970959481&#45;&gt;j3582546613</title>
<path fill="none" stroke="black" d="M2051,-831.97C2051,-815.76 2051,-791.06 2051,-771.79"/>
<polygon fill="black" stroke="black" points="2054.5,-771.85 2051,-761.85 2047.5,-771.85 2054.5,-771.85"/>
</g>
<!-- j239157273 -->
<g id="node35" class="node">
<title>j239157273</title>
<ellipse fill="none" stroke="orange" cx="1507" cy="-688" rx="59.59" ry="18"/>
<text text-anchor="middle" x="1507" y="-684.3" font-family="Times New Roman,serif" font-size="14.00">+5 Chemistry</text>
</g>
<!-- j3780155574&#45;&gt;j239157273 -->
<g id="edge41" class="edge">
<title>j3780155574&#45;&gt;j239157273</title>
<path fill="none" stroke="black" d="M1410.76,-831.57C1429.69,-803.53 1467.02,-748.23 1489.21,-715.35"/>
<polygon fill="black" stroke="black" points="1492.04,-717.42 1494.73,-707.18 1486.23,-713.51 1492.04,-717.42"/>
</g>
<!-- j2893778673&#45;&gt;Chat ends. -->
<g id="edge42" class="edge">
<title>j2893778673&#45;&gt;Chat ends.</title>
<path fill="none" stroke="black" d="M2830.47,-777.74C2829.88,-756.77 2829,-720.29 2829,-689 2829,-689 2829,-689 2829,-90 2829,-51.92 2569.4,-30.48 2448.55,-22.56"/>
<polygon fill="black" stroke="black" points="2449.02,-19.08 2438.82,-21.93 2448.57,-26.07 2449.02,-19.08"/>
</g>
<!-- j939444891 -->
<g id="node36" class="node">
<title>j939444891</title>
<polygon fill="none" stroke="blue" points="2193,-652 1909,-652 1909,-614 2193,-614 2193,-652"/>
<text text-anchor="middle" x="2051" y="-636.8" font-family="Times New Roman,serif" font-size="14.00">¿Sí ดูสิ &#13;</text>
<text text-anchor="middle" x="2051" y="-621.8" font-family="Times New Roman,serif" font-size="14.00">เอ็งเข้าใจแล้วนี่</text>
</g>
<!-- j3582546613&#45;&gt;j939444891 -->
<g id="edge43" class="edge">
<title>j3582546613&#45;&gt;j939444891</title>
<path fill="none" stroke="black" d="M2051,-723.81C2051,-707.57 2051,-682.87 2051,-663.48"/>
<polygon fill="black" stroke="black" points="2054.5,-663.74 2051,-653.74 2047.5,-663.74 2054.5,-663.74"/>
</g>
<!-- j3786694717 -->
<g id="node37" class="node">
<title>j3786694717</title>
<polygon fill="none" stroke="blue" points="1934.5,-504 1323.5,-504 1323.5,-436 1934.5,-436 1934.5,-504"/>
<text text-anchor="middle" x="1629" y="-488.8" font-family="Times New Roman,serif" font-size="14.00">นั่นคือเหตุผลที่ข้ารักษา &#13;</text>
<text text-anchor="middle" x="1629" y="-473.8" font-family="Times New Roman,serif" font-size="14.00">เพื่อให้แน่ใจว่า La Flaca รู้ว่าต้องเอาใครไป &#13;</text>
<text text-anchor="middle" x="1629" y="-458.8" font-family="Times New Roman,serif" font-size="14.00">และเอาไปเฉพาะคนที่ต้องไปเท่านั้น &#13;</text>
<text text-anchor="middle" x="1629" y="-443.8" font-family="Times New Roman,serif" font-size="14.00">ไม่ใช่ใครอื่น</text>
</g>
<!-- j239157273&#45;&gt;j3786694717 -->
<g id="edge44" class="edge">
<title>j239157273&#45;&gt;j3786694717</title>
<path fill="none" stroke="black" d="M1514.54,-669.93C1527,-642.23 1553.17,-586.04 1580,-541 1585.41,-531.92 1591.6,-522.47 1597.72,-513.57"/>
<polygon fill="black" stroke="black" points="1600.57,-515.6 1603.43,-505.4 1594.83,-511.59 1600.57,-515.6"/>
</g>
<!-- j355122521 -->
<g id="node38" class="node">
<title>j355122521</title>
<polygon fill="none" stroke="red" points="2775.5,-577 2144.5,-577 2144.5,-541 2775.5,-541 2775.5,-577"/>
<text text-anchor="middle" x="2460" y="-555.3" font-family="Times New Roman,serif" font-size="14.00">แต่ก็รู้อีกนั่นแหละว่าเดี๋ยวข้าก็กลับมา</text>
</g>
<!-- j939444891&#45;&gt;j355122521 -->
<g id="edge45" class="edge">
<title>j939444891&#45;&gt;j355122521</title>
<path fill="none" stroke="black" d="M2156.06,-613.5C2215.44,-603.05 2289.61,-590 2349.81,-579.4"/>
<polygon fill="black" stroke="black" points="2350.15,-582.89 2359.39,-577.71 2348.94,-576 2350.15,-582.89"/>
</g>
<!-- j696484470 -->
<g id="node39" class="node">
<title>j696484470</title>
<polygon fill="none" stroke="red" points="2113,-577 1589,-577 1589,-541 2113,-541 2113,-577"/>
<text text-anchor="middle" x="1851" y="-555.3" font-family="Times New Roman,serif" font-size="14.00">แต่ไม่ได้คิดว่าทุกคนควรตายนะ ฮ่าๆ</text>
</g>
<!-- j939444891&#45;&gt;j696484470 -->
<g id="edge46" class="edge">
<title>j939444891&#45;&gt;j696484470</title>
<path fill="none" stroke="black" d="M1999.75,-613.55C1972.35,-603.69 1938.49,-591.5 1909.99,-581.24"/>
<polygon fill="black" stroke="black" points="1911.38,-578.02 1900.78,-577.92 1909.01,-584.6 1911.38,-578.02"/>
</g>
<!-- j2625732732 -->
<g id="node40" class="node">
<title>j2625732732</title>
<polygon fill="none" stroke="blue" points="2249.5,-383 1008.5,-383 1008.5,-347 2249.5,-347 2249.5,-383"/>
<text text-anchor="middle" x="1629" y="-361.3" font-family="Times New Roman,serif" font-size="14.00">เราทุกคนต่างก็เคยเห็นเธอส่งคนที่เรารักเร็วเกินไปเพราะการกระทำของผู้อื่นมาแล้ว...</text>
</g>
<!-- j3786694717&#45;&gt;j2625732732 -->
<g id="edge47" class="edge">
<title>j3786694717&#45;&gt;j2625732732</title>
<path fill="none" stroke="black" d="M1629,-435.56C1629,-422.38 1629,-407.4 1629,-394.72"/>
<polygon fill="black" stroke="black" points="1632.5,-394.92 1629,-384.92 1625.5,-394.92 1632.5,-394.92"/>
</g>
<!-- j79916371 -->
<g id="node41" class="node">
<title>j79916371</title>
<ellipse fill="none" stroke="orange" cx="2493" cy="-470" rx="59.59" ry="18"/>
<text text-anchor="middle" x="2493" y="-466.3" font-family="Times New Roman,serif" font-size="14.00">+5 Chemistry</text>
</g>
<!-- j355122521&#45;&gt;j79916371 -->
<g id="edge48" class="edge">
<title>j355122521&#45;&gt;j79916371</title>
<path fill="none" stroke="black" d="M2466.52,-540.81C2471.08,-528.78 2477.28,-512.44 2482.53,-498.59"/>
<polygon fill="black" stroke="black" points="2485.68,-500.16 2485.96,-489.57 2479.14,-497.68 2485.68,-500.16"/>
</g>
<!-- j696484470&#45;&gt;j3786694717 -->
<g id="edge49" class="edge">
<title>j696484470&#45;&gt;j3786694717</title>
<path fill="none" stroke="black" d="M1806.61,-540.6C1783.06,-531.37 1753.15,-519.65 1724.63,-508.48"/>
<polygon fill="black" stroke="black" points="1726.2,-505.33 1715.61,-504.94 1723.64,-511.85 1726.2,-505.33"/>
</g>
<!-- j502838994 -->
<g id="node42" class="node">
<title>j502838994</title>
<polygon fill="none" stroke="red" points="1787,-293 1723,-293 1723,-257 1787,-257 1787,-293"/>
<text text-anchor="middle" x="1755" y="-271.3" font-family="Times New Roman,serif" font-size="14.00">อือ</text>
</g>
<!-- j2625732732&#45;&gt;j502838994 -->
<g id="edge50" class="edge">
<title>j2625732732&#45;&gt;j502838994</title>
<path fill="none" stroke="black" d="M1653.89,-346.61C1673.05,-333.24 1699.73,-314.6 1720.88,-299.83"/>
<polygon fill="black" stroke="black" points="1722.72,-302.81 1728.92,-294.22 1718.71,-297.07 1722.72,-302.81"/>
</g>
<!-- j1356593628 -->
<g id="node43" class="node">
<title>j1356593628</title>
<polygon fill="none" stroke="red" points="2011.5,-293 1868.5,-293 1868.5,-257 2011.5,-257 2011.5,-293"/>
<text text-anchor="middle" x="1940" y="-271.3" font-family="Times New Roman,serif" font-size="14.00">ก็จริงนะ</text>
</g>
<!-- j2625732732&#45;&gt;j1356593628 -->
<g id="edge51" class="edge">
<title>j2625732732&#45;&gt;j1356593628</title>
<path fill="none" stroke="black" d="M1690.82,-346.51C1741.69,-332.11 1813.9,-311.68 1867.5,-296.51"/>
<polygon fill="black" stroke="black" points="1868.18,-299.96 1876.85,-293.87 1866.27,-293.23 1868.18,-299.96"/>
</g>
<!-- j3770177378 -->
<g id="node44" class="node">
<title>j3770177378</title>
<polygon fill="none" stroke="blue" points="2788,-399 2268,-399 2268,-331 2788,-331 2788,-399"/>
<text text-anchor="middle" x="2528" y="-383.8" font-family="Times New Roman,serif" font-size="14.00">และสำหรับผู้ที่มีศรัทธา &#13;</text>
<text text-anchor="middle" x="2528" y="-368.8" font-family="Times New Roman,serif" font-size="14.00">เราเองก็เช่นกัน &#13;</text>
<text text-anchor="middle" x="2528" y="-353.8" font-family="Times New Roman,serif" font-size="14.00">อาจจะไม่เหมือนเอ็งซะทีเดียว jaja &#13;</text>
<text text-anchor="middle" x="2528" y="-338.8" font-family="Times New Roman,serif" font-size="14.00">แต่... ตอนนี้เราก็เป็น fantasmas เหมือนกัน</text>
</g>
<!-- j79916371&#45;&gt;j3770177378 -->
<g id="edge52" class="edge">
<title>j79916371&#45;&gt;j3770177378</title>
<path fill="none" stroke="black" d="M2498.78,-451.99C2502.69,-440.5 2508.03,-424.76 2513.09,-409.89"/>
<polygon fill="black" stroke="black" points="2516.3,-411.31 2516.2,-400.72 2509.67,-409.06 2516.3,-411.31"/>
</g>
<!-- j793109983 -->
<g id="node45" class="node">
<title>j793109983</title>
<polygon fill="none" stroke="blue" points="2052,-165 1642,-165 1642,-127 2052,-127 2052,-165"/>
<text text-anchor="middle" x="1847" y="-149.8" font-family="Times New Roman,serif" font-size="14.00">สนุกดีนะ &#13;</text>
<text text-anchor="middle" x="1847" y="-134.8" font-family="Times New Roman,serif" font-size="14.00">แต่ต้องกลับไปทำงานต่อแล้ว</text>
</g>
<!-- j502838994&#45;&gt;j793109983 -->
<g id="edge53" class="edge">
<title>j502838994&#45;&gt;j793109983</title>
<path fill="none" stroke="black" d="M1767.6,-256.61C1782.89,-235.5 1808.87,-199.64 1826.93,-174.71"/>
<polygon fill="black" stroke="black" points="1829.74,-176.79 1832.77,-166.64 1824.07,-172.69 1829.74,-176.79"/>
</g>
<!-- j3843951455 -->
<g id="node46" class="node">
<title>j3843951455</title>
<ellipse fill="none" stroke="orange" cx="2049" cy="-201" rx="59.59" ry="18"/>
<text text-anchor="middle" x="2049" y="-197.3" font-family="Times New Roman,serif" font-size="14.00">+5 Chemistry</text>
</g>
<!-- j1356593628&#45;&gt;j3843951455 -->
<g id="edge54" class="edge">
<title>j1356593628&#45;&gt;j3843951455</title>
<path fill="none" stroke="black" d="M1966.39,-256.57C1981.2,-246.78 1999.84,-234.47 2015.66,-224.02"/>
<polygon fill="black" stroke="black" points="2017.41,-227.06 2023.83,-218.63 2013.55,-221.22 2017.41,-227.06"/>
</g>
<!-- j2646359332 -->
<g id="node47" class="node">
<title>j2646359332</title>
<polygon fill="none" stroke="blue" points="2769.5,-294 2060.5,-294 2060.5,-256 2769.5,-256 2769.5,-294"/>
<text text-anchor="middle" x="2415" y="-278.8" font-family="Times New Roman,serif" font-size="14.00">ติดอยู่ในวังวนที่ไม่สิ้นสุดเช่นเดียวกับเอ็ง... &#13;</text>
<text text-anchor="middle" x="2415" y="-263.8" font-family="Times New Roman,serif" font-size="14.00">ห่างไกลจากอ้อมกอดของ Mictlán</text>
</g>
<!-- j3770177378&#45;&gt;j2646359332 -->
<g id="edge55" class="edge">
<title>j3770177378&#45;&gt;j2646359332</title>
<path fill="none" stroke="black" d="M2485.28,-330.73C2472.75,-320.98 2459.26,-310.47 2447.49,-301.3"/>
<polygon fill="black" stroke="black" points="2449.69,-298.58 2439.65,-295.2 2445.39,-304.1 2449.69,-298.58"/>
</g>
<!-- j793109983&#45;&gt;Chat ends. -->
<g id="edge56" class="edge">
<title>j793109983&#45;&gt;Chat ends.</title>
<path fill="none" stroke="black" d="M1894.14,-126.59C1936.87,-110.5 2001.86,-87.51 2060,-73 2152.83,-49.83 2263,-34.02 2329.11,-25.76"/>
<polygon fill="black" stroke="black" points="2329.52,-29.23 2339.02,-24.54 2328.67,-22.29 2329.52,-29.23"/>
</g>
<!-- j792958072 -->
<g id="node48" class="node">
<title>j792958072</title>
<polygon fill="none" stroke="blue" points="2123,-109 2069,-109 2069,-73 2123,-73 2123,-109"/>
<text text-anchor="middle" x="2096" y="-87.3" font-family="Times New Roman,serif" font-size="14.00">Sí</text>
</g>
<!-- j3843951455&#45;&gt;j792958072 -->
<g id="edge57" class="edge">
<title>j3843951455&#45;&gt;j792958072</title>
<path fill="none" stroke="black" d="M2056.55,-182.65C2063.95,-165.64 2075.35,-139.46 2083.99,-119.59"/>
<polygon fill="black" stroke="black" points="2087.08,-121.26 2087.86,-110.7 2080.66,-118.47 2087.08,-121.26"/>
</g>
<!-- j1336898462 -->
<g id="node49" class="node">
<title>j1336898462</title>
<polygon fill="none" stroke="blue" points="2554,-164 2238,-164 2238,-128 2554,-128 2554,-164"/>
<text text-anchor="middle" x="2396" y="-142.3" font-family="Times New Roman,serif" font-size="14.00">ต้องกลับไปทำงานแล้ว</text>
</g>
<!-- j2646359332&#45;&gt;j1336898462 -->
<g id="edge58" class="edge">
<title>j2646359332&#45;&gt;j1336898462</title>
<path fill="none" stroke="black" d="M2412.24,-255.53C2409.09,-234.49 2403.91,-199.84 2400.24,-175.36"/>
<polygon fill="black" stroke="black" points="2403.75,-175.14 2398.81,-165.76 2396.83,-176.17 2403.75,-175.14"/>
</g>
<!-- j792958072&#45;&gt;Chat ends. -->
<g id="edge59" class="edge">
<title>j792958072&#45;&gt;Chat ends.</title>
<path fill="none" stroke="black" d="M2123.47,-83.32C2172.12,-71.49 2274.14,-46.68 2336.3,-31.57"/>
<polygon fill="black" stroke="black" points="2337.06,-34.99 2345.95,-29.22 2335.41,-28.19 2337.06,-34.99"/>
</g>
<!-- j1336898462&#45;&gt;Chat ends. -->
<g id="edge60" class="edge">
<title>j1336898462&#45;&gt;Chat ends.</title>
<path fill="none" stroke="black" d="M2394.9,-127.74C2393.6,-107.12 2391.39,-72.32 2389.82,-47.64"/>
<polygon fill="black" stroke="black" points="2393.33,-47.72 2389.2,-37.96 2386.34,-48.16 2393.33,-47.72"/>
</g>
</g>
</svg>
