<?xml version="1.0" encoding="UTF-8" standalone="no"?>
<!DOCTYPE svg PUBLIC "-//W3C//DTD SVG 1.1//EN"
 "http://www.w3.org/Graphics/SVG/1.1/DTD/svg11.dtd">
<!-- Generated by graphviz version 7.1.0 (20230121.1956)
 -->
<!-- Pages: 1 -->
<svg width="2383pt" height="1395pt"
 viewBox="0.00 0.00 2382.50 1395.00" xmlns="http://www.w3.org/2000/svg" xmlns:xlink="http://www.w3.org/1999/xlink">
<g id="graph0" class="graph" transform="scale(1 1) rotate(0) translate(4 1391)">
<polygon fill="white" stroke="none" points="-4,4 -4,-1391 2378.5,-1391 2378.5,4 -4,4"/>
<!-- LettieRank4Convo1 begins. -->
<g id="node1" class="node">
<title>LettieRank4Convo1 begins.</title>
<ellipse fill="none" stroke="orange" cx="2004" cy="-1369" rx="111.58" ry="18"/>
<text text-anchor="middle" x="2004" y="-1365.3" font-family="Times New Roman,serif" font-size="14.00">LettieRank4Convo1 begins.</text>
</g>
<!-- j1349871357 -->
<g id="node2" class="node">
<title>j1349871357</title>
<polygon fill="none" stroke="red" points="2028,-1243 1066,-1243 1066,-1207 2028,-1207 2028,-1243"/>
<text text-anchor="middle" x="1547" y="-1221.3" font-family="Times New Roman,serif" font-size="14.00">คือ ข้าไม่เคยรู้เรื่องราวทั้งหมดเลยว่าเจ้ากับ Arthur พบกันได้ยังไง</text>
</g>
<!-- LettieRank4Convo1 begins.&#45;&gt;j1349871357 -->
<g id="edge1" class="edge">
<title>LettieRank4Convo1 begins.&#45;&gt;j1349871357</title>
<path fill="none" stroke="black" d="M1900.31,-1362.16C1835.46,-1355.82 1751.21,-1342.59 1681,-1315 1641.41,-1299.44 1601.5,-1270.9 1575.66,-1250.32"/>
<polygon fill="black" stroke="black" points="1577.96,-1247.67 1567.98,-1244.1 1573.55,-1253.11 1577.96,-1247.67"/>
</g>
<!-- j2031352774 -->
<g id="node3" class="node">
<title>j2031352774</title>
<polygon fill="none" stroke="red" points="2318,-1315 1690,-1315 1690,-1279 2318,-1279 2318,-1315"/>
<text text-anchor="middle" x="2004" y="-1293.3" font-family="Times New Roman,serif" font-size="14.00">มีเวลาคุยกันหรือเปล่า Lettie หรือว่ายุ่งอยู่?</text>
</g>
<!-- LettieRank4Convo1 begins.&#45;&gt;j2031352774 -->
<g id="edge2" class="edge">
<title>LettieRank4Convo1 begins.&#45;&gt;j2031352774</title>
<path fill="none" stroke="black" d="M2004,-1350.7C2004,-1343.41 2004,-1334.73 2004,-1326.54"/>
<polygon fill="black" stroke="black" points="2007.5,-1326.62 2004,-1316.62 2000.5,-1326.62 2007.5,-1326.62"/>
</g>
<!-- j2139043895 -->
<g id="node4" class="node">
<title>j2139043895</title>
<polygon fill="none" stroke="red" points="2374.5,-1162.5 2317.5,-1162.5 2317.5,-1126.5 2374.5,-1126.5 2374.5,-1162.5"/>
<text text-anchor="middle" x="2346" y="-1140.8" font-family="Times New Roman,serif" font-size="14.00">[จบ]</text>
</g>
<!-- LettieRank4Convo1 begins.&#45;&gt;j2139043895 -->
<g id="edge3" class="edge">
<title>LettieRank4Convo1 begins.&#45;&gt;j2139043895</title>
<path fill="none" stroke="black" d="M2111.66,-1363.99C2193.9,-1358.52 2297.94,-1345.59 2327,-1315 2362.8,-1277.33 2358.44,-1211.64 2352.16,-1174.06"/>
<polygon fill="black" stroke="black" points="2355.64,-1173.6 2350.38,-1164.41 2348.76,-1174.88 2355.64,-1173.6"/>
</g>
<!-- j1599943095 -->
<g id="node5" class="node">
<title>j1599943095</title>
<polygon fill="none" stroke="blue" points="2169,-1010 1503,-1010 1503,-942 2169,-942 2169,-1010"/>
<text text-anchor="middle" x="1836" y="-994.8" font-family="Times New Roman,serif" font-size="14.00">เอ่อ เรื่องมันยุ่งอยู่นะ &#13;</text>
<text text-anchor="middle" x="1836" y="-979.8" font-family="Times New Roman,serif" font-size="14.00">เอ็งคงไม่อยากฟังรายละเอียดการนองเลือดหรอก &#13;</text>
<text text-anchor="middle" x="1836" y="-964.8" font-family="Times New Roman,serif" font-size="14.00">แต่ sí ถ้าอยากรู้ &#13;</text>
<text text-anchor="middle" x="1836" y="-949.8" font-family="Times New Roman,serif" font-size="14.00">ข้าจะเล่าให้ฟัง</text>
</g>
<!-- j1349871357&#45;&gt;j1599943095 -->
<g id="edge4" class="edge">
<title>j1349871357&#45;&gt;j1599943095</title>
<path fill="none" stroke="black" d="M1565.65,-1206.63C1600.59,-1174.27 1678.54,-1102.89 1747,-1046 1758.38,-1036.54 1770.82,-1026.64 1782.68,-1017.39"/>
<polygon fill="black" stroke="black" points="1784.67,-1020.28 1790.43,-1011.39 1780.38,-1014.75 1784.67,-1020.28"/>
</g>
<!-- j1170956903 -->
<g id="node6" class="node">
<title>j1170956903</title>
<ellipse fill="none" stroke="orange" cx="2106" cy="-1225" rx="59.59" ry="18"/>
<text text-anchor="middle" x="2106" y="-1221.3" font-family="Times New Roman,serif" font-size="14.00">+5 Chemistry</text>
</g>
<!-- j2031352774&#45;&gt;j1170956903 -->
<g id="edge5" class="edge">
<title>j2031352774&#45;&gt;j1170956903</title>
<path fill="none" stroke="black" d="M2029.48,-1278.52C2042.8,-1269.37 2059.27,-1258.07 2073.5,-1248.3"/>
<polygon fill="black" stroke="black" points="2075.42,-1251.23 2081.69,-1242.68 2071.46,-1245.46 2075.42,-1251.23"/>
</g>
<!-- Chat ends. -->
<g id="node7" class="node">
<title>Chat ends.</title>
<ellipse fill="none" stroke="orange" cx="1939" cy="-18" rx="50.09" ry="18"/>
<text text-anchor="middle" x="1939" y="-14.3" font-family="Times New Roman,serif" font-size="14.00">Chat ends.</text>
</g>
<!-- j2139043895&#45;&gt;Chat ends. -->
<g id="edge6" class="edge">
<title>j2139043895&#45;&gt;Chat ends.</title>
<path fill="none" stroke="black" d="M2346,-1126C2346,-1095.66 2346,-1031.34 2346,-977 2346,-977 2346,-977 2346,-208 2346,-146.7 2367,-114.68 2323,-72 2278.26,-28.6 2097.25,-20.26 2000.57,-18.96"/>
<polygon fill="black" stroke="black" points="2000.77,-15.46 1990.73,-18.85 2000.69,-22.46 2000.77,-15.46"/>
</g>
<!-- j1304210083 -->
<g id="node8" class="node">
<title>j1304210083</title>
<polygon fill="none" stroke="blue" points="2226,-906 1446,-906 1446,-853 2226,-853 2226,-906"/>
<text text-anchor="middle" x="1836" y="-890.8" font-family="Times New Roman,serif" font-size="14.00">เราประจำการอยู่ในฐานเดียวกัน &#13;</text>
<text text-anchor="middle" x="1836" y="-875.8" font-family="Times New Roman,serif" font-size="14.00">เขาอยู่ในกองทัพอังกฤษ ส่วนข้าอยู่ในกองทัพอิสรนิยม &#13;</text>
<text text-anchor="middle" x="1836" y="-860.8" font-family="Times New Roman,serif" font-size="14.00">ประเทศต่างกัน แต่ศัตรูกลุ่มเดียวกัน</text>
</g>
<!-- j1599943095&#45;&gt;j1304210083 -->
<g id="edge7" class="edge">
<title>j1599943095&#45;&gt;j1304210083</title>
<path fill="none" stroke="black" d="M1836,-941.68C1836,-933.99 1836,-925.76 1836,-917.9"/>
<polygon fill="black" stroke="black" points="1839.5,-917.91 1836,-907.91 1832.5,-917.91 1839.5,-917.91"/>
</g>
<!-- j3308454371 -->
<g id="node9" class="node">
<title>j3308454371</title>
<polygon fill="none" stroke="blue" points="2231.5,-1171 1880.5,-1171 1880.5,-1118 2231.5,-1118 2231.5,-1171"/>
<text text-anchor="middle" x="2056" y="-1155.8" font-family="Times New Roman,serif" font-size="14.00">ก็ยุ่งตลอดนั่นแหละ &#13;</text>
<text text-anchor="middle" x="2056" y="-1140.8" font-family="Times New Roman,serif" font-size="14.00">แต่พักคุยกันได้อยู่นะ &#13;</text>
<text text-anchor="middle" x="2056" y="-1125.8" font-family="Times New Roman,serif" font-size="14.00">¿Qué onda?</text>
</g>
<!-- j1170956903&#45;&gt;j3308454371 -->
<g id="edge8" class="edge">
<title>j1170956903&#45;&gt;j3308454371</title>
<path fill="none" stroke="black" d="M2095.15,-1206.97C2090.3,-1199.35 2084.39,-1190.07 2078.64,-1181.05"/>
<polygon fill="black" stroke="black" points="2081.67,-1179.29 2073.35,-1172.74 2075.77,-1183.05 2081.67,-1179.29"/>
</g>
<!-- j2203585529 -->
<g id="node10" class="node">
<title>j2203585529</title>
<polygon fill="none" stroke="blue" points="2196.5,-817 1475.5,-817 1475.5,-749 2196.5,-749 2196.5,-817"/>
<text text-anchor="middle" x="1836" y="-801.8" font-family="Times New Roman,serif" font-size="14.00">ข้าเป็นแพทย์สนามของกรมทหาร &#13;</text>
<text text-anchor="middle" x="1836" y="-786.8" font-family="Times New Roman,serif" font-size="14.00">พวกเราถูกส่งไปประจำการที่ข้าง ๆ กับหน่วยของเขา &#13;</text>
<text text-anchor="middle" x="1836" y="-771.8" font-family="Times New Roman,serif" font-size="14.00">แล้วที่แห่งนั้นก็ cagadero &#13;</text>
<text text-anchor="middle" x="1836" y="-756.8" font-family="Times New Roman,serif" font-size="14.00">เร็วมากจริง ๆ</text>
</g>
<!-- j1304210083&#45;&gt;j2203585529 -->
<g id="edge9" class="edge">
<title>j1304210083&#45;&gt;j2203585529</title>
<path fill="none" stroke="black" d="M1836,-852.68C1836,-845.25 1836,-836.92 1836,-828.7"/>
<polygon fill="black" stroke="black" points="1839.5,-828.76 1836,-818.76 1832.5,-828.76 1839.5,-828.76"/>
</g>
<!-- j367663220 -->
<g id="node11" class="node">
<title>j367663220</title>
<polygon fill="none" stroke="red" points="2257.5,-1082 1756.5,-1082 1756.5,-1046 2257.5,-1046 2257.5,-1082"/>
<text text-anchor="middle" x="2007" y="-1060.3" font-family="Times New Roman,serif" font-size="14.00">แค่สงสัยว่าเจ้ากับ Arthur พบกันยังไง</text>
</g>
<!-- j3308454371&#45;&gt;j367663220 -->
<g id="edge10" class="edge">
<title>j3308454371&#45;&gt;j367663220</title>
<path fill="none" stroke="black" d="M2039.96,-1117.8C2034.8,-1109.53 2029.07,-1100.35 2023.85,-1092"/>
<polygon fill="black" stroke="black" points="2026.88,-1090.24 2018.62,-1083.61 2020.95,-1093.95 2026.88,-1090.24"/>
</g>
<!-- j4152675364 -->
<g id="node12" class="node">
<title>j4152675364</title>
<polygon fill="none" stroke="blue" points="2277.5,-713 1394.5,-713 1394.5,-585 2277.5,-585 2277.5,-713"/>
<text text-anchor="middle" x="1836" y="-697.8" font-family="Times New Roman,serif" font-size="14.00">ลูกทีมของข้าส่วนใหญ่ไม่รอด &#13;</text>
<text text-anchor="middle" x="1836" y="-682.8" font-family="Times New Roman,serif" font-size="14.00">ลูกทีมของเขาส่วนใหญ่ก็เช่นกัน &#13;</text>
<text text-anchor="middle" x="1836" y="-667.8" font-family="Times New Roman,serif" font-size="14.00">เราจับมือกันไว้ &#13;</text>
<text text-anchor="middle" x="1836" y="-652.8" font-family="Times New Roman,serif" font-size="14.00">จริง ๆ &#13;</text>
<text text-anchor="middle" x="1836" y="-637.8" font-family="Times New Roman,serif" font-size="14.00">ข้าเย็บแขนให้เขาอย่างดีเลยนะ jaja &#13;</text>
<text text-anchor="middle" x="1836" y="-622.8" font-family="Times New Roman,serif" font-size="14.00">เมื่อเขาเกษียณอายุและเข้า ICR &#13;</text>
<text text-anchor="middle" x="1836" y="-607.8" font-family="Times New Roman,serif" font-size="14.00">ข้าก็ติดตามไปด้วยโดยไม่ตั้งคำถาม &#13;</text>
<text text-anchor="middle" x="1836" y="-592.8" font-family="Times New Roman,serif" font-size="14.00">ยังไงข้าเบื่อกับเรื่องดราม่าที่เกิดขึ้นในกองทัพอยู่แล้ว</text>
</g>
<!-- j2203585529&#45;&gt;j4152675364 -->
<g id="edge11" class="edge">
<title>j2203585529&#45;&gt;j4152675364</title>
<path fill="none" stroke="black" d="M1836,-748.69C1836,-741.29 1836,-733.15 1836,-724.82"/>
<polygon fill="black" stroke="black" points="1839.5,-724.91 1836,-714.91 1832.5,-724.91 1839.5,-724.91"/>
</g>
<!-- j367663220&#45;&gt;j1599943095 -->
<g id="edge12" class="edge">
<title>j367663220&#45;&gt;j1599943095</title>
<path fill="none" stroke="black" d="M1972.4,-1045.6C1955.12,-1036.91 1933.48,-1026.03 1912.57,-1015.51"/>
<polygon fill="black" stroke="black" points="1914.24,-1012.43 1903.73,-1011.06 1911.09,-1018.68 1914.24,-1012.43"/>
</g>
<!-- j3811716083 -->
<g id="node13" class="node">
<title>j3811716083</title>
<polygon fill="none" stroke="blue" points="2158,-549 1514,-549 1514,-511 2158,-511 2158,-549"/>
<text text-anchor="middle" x="1836" y="-533.8" font-family="Times New Roman,serif" font-size="14.00">ข้าบอกเขาว่าจะตามเขาไปจนสุดขอบโลก &#13;</text>
<text text-anchor="middle" x="1836" y="-518.8" font-family="Times New Roman,serif" font-size="14.00">แต่ไม่นึกเลยว่าจะต้องตามไปจนถึงขอบของ Mictlán</text>
</g>
<!-- j4152675364&#45;&gt;j3811716083 -->
<g id="edge13" class="edge">
<title>j4152675364&#45;&gt;j3811716083</title>
<path fill="none" stroke="black" d="M1836,-584.71C1836,-576.43 1836,-568.28 1836,-560.93"/>
<polygon fill="black" stroke="black" points="1839.5,-560.94 1836,-550.94 1832.5,-560.94 1839.5,-560.94"/>
</g>
<!-- j412432113 -->
<g id="node14" class="node">
<title>j412432113</title>
<polygon fill="none" stroke="blue" points="2161,-475 1511,-475 1511,-407 2161,-407 2161,-475"/>
<text text-anchor="middle" x="1836" y="-459.8" font-family="Times New Roman,serif" font-size="14.00">คงฟังดูแล้วเล็กเกินไปสำหรับเอ็งนะ &#13;</text>
<text text-anchor="middle" x="1836" y="-444.8" font-family="Times New Roman,serif" font-size="14.00">เรื่องราวแบบนั้น &#13;</text>
<text text-anchor="middle" x="1836" y="-429.8" font-family="Times New Roman,serif" font-size="14.00">เพราะเอ็งต่อสู้กับสัตว์ประหลาดและเทพเจ้า &#13;</text>
<text text-anchor="middle" x="1836" y="-414.8" font-family="Times New Roman,serif" font-size="14.00">แถมเต้นรำกับ La Flaca มาหลายครั้งแล้ว</text>
</g>
<!-- j3811716083&#45;&gt;j412432113 -->
<g id="edge14" class="edge">
<title>j3811716083&#45;&gt;j412432113</title>
<path fill="none" stroke="black" d="M1836,-510.55C1836,-503.49 1836,-495.08 1836,-486.63"/>
<polygon fill="black" stroke="black" points="1839.5,-486.69 1836,-476.69 1832.5,-486.69 1839.5,-486.69"/>
</g>
<!-- j884186611 -->
<g id="node15" class="node">
<title>j884186611</title>
<ellipse fill="none" stroke="orange" cx="1836" cy="-353" rx="135.68" ry="18"/>
<text text-anchor="middle" x="1836" y="-349.3" font-family="Times New Roman,serif" font-size="14.00">Boolean LettieArthur1 is now true.</text>
</g>
<!-- j412432113&#45;&gt;j884186611 -->
<g id="edge15" class="edge">
<title>j412432113&#45;&gt;j884186611</title>
<path fill="none" stroke="black" d="M1836,-406.5C1836,-398.58 1836,-390.2 1836,-382.52"/>
<polygon fill="black" stroke="black" points="1839.5,-382.71 1836,-372.71 1832.5,-382.71 1839.5,-382.71"/>
</g>
<!-- j178025671 -->
<g id="node16" class="node">
<title>j178025671</title>
<polygon fill="none" stroke="red" points="1658,-299 0,-299 0,-263 1658,-263 1658,-299"/>
<text text-anchor="middle" x="829" y="-277.3" font-family="Times New Roman,serif" font-size="14.00">แค่เพราะการต่อสู้ของข้าดูน่าตื่นเต้นเกินไป ไม่ได้หมายความว่าจะไม่เล็งเห็นว่าเรื่องที่เกิดมันน่ากลัวแค่ไหน</text>
</g>
<!-- j884186611&#45;&gt;j178025671 -->
<g id="edge16" class="edge">
<title>j884186611&#45;&gt;j178025671</title>
<path fill="none" stroke="black" d="M1718.02,-343.8C1565.29,-333.18 1294.74,-314.37 1092.08,-300.29"/>
<polygon fill="black" stroke="black" points="1092.39,-296.8 1082.17,-299.6 1091.91,-303.78 1092.39,-296.8"/>
</g>
<!-- j1053405917 -->
<g id="node17" class="node">
<title>j1053405917</title>
<polygon fill="none" stroke="red" points="1996,-299 1676,-299 1676,-263 1996,-263 1996,-299"/>
<text text-anchor="middle" x="1836" y="-277.3" font-family="Times New Roman,serif" font-size="14.00">ทุกสงครามแย่หมด จบนะ</text>
</g>
<!-- j884186611&#45;&gt;j1053405917 -->
<g id="edge17" class="edge">
<title>j884186611&#45;&gt;j1053405917</title>
<path fill="none" stroke="black" d="M1836,-334.7C1836,-327.41 1836,-318.73 1836,-310.54"/>
<polygon fill="black" stroke="black" points="1839.5,-310.62 1836,-300.62 1832.5,-310.62 1839.5,-310.62"/>
</g>
<!-- j1224908164 -->
<g id="node18" class="node">
<title>j1224908164</title>
<polygon fill="none" stroke="red" points="2318,-299 2014,-299 2014,-263 2318,-263 2318,-299"/>
<text text-anchor="middle" x="2166" y="-277.3" font-family="Times New Roman,serif" font-size="14.00">คนเล็ก ก็เรื่องเล็ก</text>
</g>
<!-- j884186611&#45;&gt;j1224908164 -->
<g id="edge18" class="edge">
<title>j884186611&#45;&gt;j1224908164</title>
<path fill="none" stroke="black" d="M1905.98,-337.15C1954.47,-326.87 2019.56,-313.06 2072.49,-301.84"/>
<polygon fill="black" stroke="black" points="2073.05,-305.29 2082.1,-299.8 2071.6,-298.45 2073.05,-305.29"/>
</g>
<!-- j1477187097 -->
<g id="node19" class="node">
<title>j1477187097</title>
<ellipse fill="none" stroke="orange" cx="895" cy="-209" rx="64.19" ry="18"/>
<text text-anchor="middle" x="895" y="-205.3" font-family="Times New Roman,serif" font-size="14.00">+10 Chemistry</text>
</g>
<!-- j178025671&#45;&gt;j1477187097 -->
<g id="edge19" class="edge">
<title>j178025671&#45;&gt;j1477187097</title>
<path fill="none" stroke="black" d="M845.31,-262.7C853.26,-254.27 862.97,-243.97 871.68,-234.73"/>
<polygon fill="black" stroke="black" points="873.98,-237.4 878.29,-227.72 868.88,-232.6 873.98,-237.4"/>
</g>
<!-- j870303776 -->
<g id="node20" class="node">
<title>j870303776</title>
<ellipse fill="none" stroke="orange" cx="1770" cy="-209" rx="64.19" ry="18"/>
<text text-anchor="middle" x="1770" y="-205.3" font-family="Times New Roman,serif" font-size="14.00">+15 Chemistry</text>
</g>
<!-- j1053405917&#45;&gt;j870303776 -->
<g id="edge20" class="edge">
<title>j1053405917&#45;&gt;j870303776</title>
<path fill="none" stroke="black" d="M1819.69,-262.7C1811.74,-254.27 1802.03,-243.97 1793.32,-234.73"/>
<polygon fill="black" stroke="black" points="1796.12,-232.6 1786.71,-227.72 1791.02,-237.4 1796.12,-232.6"/>
</g>
<!-- j2603294825 -->
<g id="node21" class="node">
<title>j2603294825</title>
<polygon fill="none" stroke="blue" points="2198,-227 2142,-227 2142,-191 2198,-191 2198,-227"/>
<text text-anchor="middle" x="2170" y="-205.3" font-family="Times New Roman,serif" font-size="14.00">Seguro</text>
</g>
<!-- j1224908164&#45;&gt;j2603294825 -->
<g id="edge21" class="edge">
<title>j1224908164&#45;&gt;j2603294825</title>
<path fill="none" stroke="black" d="M2166.99,-262.7C2167.41,-255.41 2167.9,-246.73 2168.37,-238.54"/>
<polygon fill="black" stroke="black" points="2171.86,-238.8 2168.94,-228.62 2164.87,-238.4 2171.86,-238.8"/>
</g>
<!-- j2751612818 -->
<g id="node22" class="node">
<title>j2751612818</title>
<polygon fill="none" stroke="blue" points="1306.5,-155 695.5,-155 695.5,-72 1306.5,-72 1306.5,-155"/>
<text text-anchor="middle" x="1001" y="-139.8" font-family="Times New Roman,serif" font-size="14.00">Ay, sí &#13;</text>
<text text-anchor="middle" x="1001" y="-124.8" font-family="Times New Roman,serif" font-size="14.00">จะเรื่องใหญ่โตหวือหวาหรือเล็ก ๆ ส่วนตัว &#13;</text>
<text text-anchor="middle" x="1001" y="-109.8" font-family="Times New Roman,serif" font-size="14.00">สุดท้ายแล้วก็เจอกับ La Flaca เหมือนกันหมด &#13;</text>
<text text-anchor="middle" x="1001" y="-94.8" font-family="Times New Roman,serif" font-size="14.00">อย่างน้อย... ควรจะเป็นแบบนั้น &#13;</text>
<text text-anchor="middle" x="1001" y="-79.8" font-family="Times New Roman,serif" font-size="14.00">แต่ไม่ใช่สำหรับ los fantasmas</text>
</g>
<!-- j1477187097&#45;&gt;j2751612818 -->
<g id="edge22" class="edge">
<title>j1477187097&#45;&gt;j2751612818</title>
<path fill="none" stroke="black" d="M913.46,-191.71C922.72,-183.55 934.47,-173.18 946.34,-162.72"/>
<polygon fill="black" stroke="black" points="948.64,-165.35 953.82,-156.11 944.01,-160.1 948.64,-165.35"/>
</g>
<!-- j251838604 -->
<g id="node23" class="node">
<title>j251838604</title>
<polygon fill="none" stroke="blue" points="2024.5,-132.5 1377.5,-132.5 1377.5,-94.5 2024.5,-94.5 2024.5,-132.5"/>
<text text-anchor="middle" x="1701" y="-117.3" font-family="Times New Roman,serif" font-size="14.00">Sí มันก็เหมือนกันหมด &#13;</text>
<text text-anchor="middle" x="1701" y="-102.3" font-family="Times New Roman,serif" font-size="14.00">ไม่ว่าปืนนั่นจะใหญ่และโง่เง่าแค่ไหนก็ตาม</text>
</g>
<!-- j870303776&#45;&gt;j251838604 -->
<g id="edge23" class="edge">
<title>j870303776&#45;&gt;j251838604</title>
<path fill="none" stroke="black" d="M1757.66,-191.28C1747.55,-177.58 1733.04,-157.92 1721.23,-141.92"/>
<polygon fill="black" stroke="black" points="1724.3,-140.18 1715.55,-134.21 1718.67,-144.34 1724.3,-140.18"/>
</g>
<!-- j3065772033 -->
<g id="node24" class="node">
<title>j3065772033</title>
<ellipse fill="none" stroke="orange" cx="2178" cy="-113.5" rx="135.68" ry="18"/>
<text text-anchor="middle" x="2178" y="-109.8" font-family="Times New Roman,serif" font-size="14.00">Boolean LettieNoDate is now true.</text>
</g>
<!-- j2603294825&#45;&gt;j3065772033 -->
<g id="edge24" class="edge">
<title>j2603294825&#45;&gt;j3065772033</title>
<path fill="none" stroke="black" d="M2171.47,-190.85C2172.61,-177.49 2174.22,-158.65 2175.56,-143.03"/>
<polygon fill="black" stroke="black" points="2179.02,-143.63 2176.39,-133.37 2172.05,-143.03 2179.02,-143.63"/>
</g>
<!-- j2751612818&#45;&gt;Chat ends. -->
<g id="edge25" class="edge">
<title>j2751612818&#45;&gt;Chat ends.</title>
<path fill="none" stroke="black" d="M1306.85,-78.34C1327.54,-76.16 1348.07,-74.02 1368,-72 1554.4,-53.07 1775.33,-33.33 1879.28,-24.2"/>
<polygon fill="black" stroke="black" points="1879.3,-27.71 1888.96,-23.35 1878.69,-20.74 1879.3,-27.71"/>
</g>
<!-- j251838604&#45;&gt;Chat ends. -->
<g id="edge26" class="edge">
<title>j251838604&#45;&gt;Chat ends.</title>
<path fill="none" stroke="black" d="M1748.02,-94.03C1790.92,-77.17 1853.82,-52.46 1895.56,-36.06"/>
<polygon fill="black" stroke="black" points="1896.78,-39.35 1904.81,-32.43 1894.22,-32.83 1896.78,-39.35"/>
</g>
<!-- j3065772033&#45;&gt;Chat ends. -->
<g id="edge27" class="edge">
<title>j3065772033&#45;&gt;Chat ends.</title>
<path fill="none" stroke="black" d="M2135.82,-96C2092.71,-79.13 2026.06,-53.06 1982.48,-36.01"/>
<polygon fill="black" stroke="black" points="1983.92,-32.82 1973.33,-32.43 1981.37,-39.33 1983.92,-32.82"/>
</g>
</g>
</svg>
