<?xml version="1.0" encoding="UTF-8" standalone="no"?>
<!DOCTYPE svg PUBLIC "-//W3C//DTD SVG 1.1//EN"
 "http://www.w3.org/Graphics/SVG/1.1/DTD/svg11.dtd">
<!-- Generated by graphviz version 7.1.0 (20230121.1956)
 -->
<!-- Pages: 1 -->
<svg width="1366pt" height="1414pt"
 viewBox="0.00 0.00 1366.00 1414.00" xmlns="http://www.w3.org/2000/svg" xmlns:xlink="http://www.w3.org/1999/xlink">
<g id="graph0" class="graph" transform="scale(1 1) rotate(0) translate(4 1410)">
<polygon fill="white" stroke="none" points="-4,4 -4,-1410 1362,-1410 1362,4 -4,4"/>
<!-- LettieRank3Convo5 begins. -->
<g id="node1" class="node">
<title>LettieRank3Convo5 begins.</title>
<ellipse fill="none" stroke="orange" cx="272" cy="-1388" rx="111.58" ry="18"/>
<text text-anchor="middle" x="272" y="-1384.3" font-family="Times New Roman,serif" font-size="14.00">LettieRank3Convo5 begins.</text>
</g>
<!-- j3927210208 -->
<g id="node2" class="node">
<title>j3927210208</title>
<polygon fill="none" stroke="red" points="328,-1333 216,-1333 216,-1297 328,-1297 328,-1333"/>
<text text-anchor="middle" x="272" y="-1311.3" font-family="Times New Roman,serif" font-size="14.00">¿Te sientes bien?</text>
</g>
<!-- LettieRank3Convo5 begins.&#45;&gt;j3927210208 -->
<g id="edge1" class="edge">
<title>LettieRank3Convo5 begins.&#45;&gt;j3927210208</title>
<path fill="none" stroke="black" d="M272,-1369.81C272,-1362.23 272,-1353.1 272,-1344.54"/>
<polygon fill="black" stroke="black" points="275.5,-1344.54 272,-1334.54 268.5,-1344.54 275.5,-1344.54"/>
</g>
<!-- j903725129 -->
<g id="node3" class="node">
<title>j903725129</title>
<polygon fill="none" stroke="red" points="661,-1333 437,-1333 437,-1297 661,-1297 661,-1333"/>
<text text-anchor="middle" x="549" y="-1311.3" font-family="Times New Roman,serif" font-size="14.00">¿Cómo te está yendo con los civiles?</text>
</g>
<!-- LettieRank3Convo5 begins.&#45;&gt;j903725129 -->
<g id="edge2" class="edge">
<title>LettieRank3Convo5 begins.&#45;&gt;j903725129</title>
<path fill="none" stroke="black" d="M329.73,-1372.2C370.29,-1361.81 425.06,-1347.77 469.71,-1336.32"/>
<polygon fill="black" stroke="black" points="470.55,-1339.72 479.37,-1333.85 468.81,-1332.94 470.55,-1339.72"/>
</g>
<!-- j1547484525 -->
<g id="node4" class="node">
<title>j1547484525</title>
<polygon fill="none" stroke="red" points="82,-1279 12,-1279 12,-1243 82,-1243 82,-1279"/>
<text text-anchor="middle" x="47" y="-1257.3" font-family="Times New Roman,serif" font-size="14.00">[Ignorar.]</text>
</g>
<!-- LettieRank3Convo5 begins.&#45;&gt;j1547484525 -->
<g id="edge3" class="edge">
<title>LettieRank3Convo5 begins.&#45;&gt;j1547484525</title>
<path fill="none" stroke="black" d="M242.12,-1370.4C202.64,-1348.47 132.9,-1309.72 88.37,-1284.98"/>
<polygon fill="black" stroke="black" points="90.22,-1282.01 79.77,-1280.21 86.82,-1288.12 90.22,-1282.01"/>
</g>
<!-- j659434194 -->
<g id="node5" class="node">
<title>j659434194</title>
<polygon fill="none" stroke="blue" points="368.5,-1217.5 175.5,-1217.5 175.5,-1179.5 368.5,-1179.5 368.5,-1217.5"/>
<text text-anchor="middle" x="272" y="-1202.3" font-family="Times New Roman,serif" font-size="14.00">¿Mm?&#13;</text>
<text text-anchor="middle" x="272" y="-1187.3" font-family="Times New Roman,serif" font-size="14.00">Como una puerta giratoria jajaja</text>
</g>
<!-- j3927210208&#45;&gt;j659434194 -->
<g id="edge4" class="edge">
<title>j3927210208&#45;&gt;j659434194</title>
<path fill="none" stroke="black" d="M272,-1296.61C272,-1278.75 272,-1250.6 272,-1229.2"/>
<polygon fill="black" stroke="black" points="275.5,-1229.33 272,-1219.33 268.5,-1229.33 275.5,-1229.33"/>
</g>
<!-- j2862191830 -->
<g id="node6" class="node">
<title>j2862191830</title>
<polygon fill="none" stroke="blue" points="814.5,-1225 467.5,-1225 467.5,-1172 814.5,-1172 814.5,-1225"/>
<text text-anchor="middle" x="641" y="-1209.8" font-family="Times New Roman,serif" font-size="14.00">¿Eh?&#13;</text>
<text text-anchor="middle" x="641" y="-1194.8" font-family="Times New Roman,serif" font-size="14.00">Bien, supongo&#13;</text>
<text text-anchor="middle" x="641" y="-1179.8" font-family="Times New Roman,serif" font-size="14.00">Los civiles son siempre los mismos, te acostumbras rápido</text>
</g>
<!-- j903725129&#45;&gt;j2862191830 -->
<g id="edge5" class="edge">
<title>j903725129&#45;&gt;j2862191830</title>
<path fill="none" stroke="black" d="M562.97,-1296.61C576.28,-1280.04 596.7,-1254.64 613.31,-1233.96"/>
<polygon fill="black" stroke="black" points="615.91,-1236.31 619.45,-1226.32 610.46,-1231.93 615.91,-1236.31"/>
</g>
<!-- Chat ends. -->
<g id="node7" class="node">
<title>Chat ends.</title>
<ellipse fill="none" stroke="orange" cx="553" cy="-18" rx="50.09" ry="18"/>
<text text-anchor="middle" x="553" y="-14.3" font-family="Times New Roman,serif" font-size="14.00">Chat ends.</text>
</g>
<!-- j1547484525&#45;&gt;Chat ends. -->
<g id="edge6" class="edge">
<title>j1547484525&#45;&gt;Chat ends.</title>
<path fill="none" stroke="black" d="M33.91,-1242.66C20,-1222.48 0,-1187.62 0,-1154 0,-1154 0,-1154 0,-91 0,-41.86 347.73,-25.38 491.71,-20.66"/>
<polygon fill="black" stroke="black" points="491.55,-24.17 501.44,-20.35 491.33,-17.17 491.55,-24.17"/>
</g>
<!-- j3466449473 -->
<g id="node8" class="node">
<title>j3466449473</title>
<polygon fill="none" stroke="blue" points="515.5,-1135 28.5,-1135 28.5,-1082 515.5,-1082 515.5,-1135"/>
<text text-anchor="middle" x="272" y="-1119.8" font-family="Times New Roman,serif" font-size="14.00">Incluso antes de conocerte, a veces siento que la gente sólo pasa A TRAVÉS de mí&#13;</text>
<text text-anchor="middle" x="272" y="-1104.8" font-family="Times New Roman,serif" font-size="14.00">Sólo una cara en la tienda de la RCI curando heridas&#13;</text>
<text text-anchor="middle" x="272" y="-1089.8" font-family="Times New Roman,serif" font-size="14.00">Soy sólo parte del edificio</text>
</g>
<!-- j659434194&#45;&gt;j3466449473 -->
<g id="edge7" class="edge">
<title>j659434194&#45;&gt;j3466449473</title>
<path fill="none" stroke="black" d="M272,-1179.27C272,-1169.85 272,-1158 272,-1146.76"/>
<polygon fill="black" stroke="black" points="275.5,-1146.9 272,-1136.9 268.5,-1146.9 275.5,-1146.9"/>
</g>
<!-- j676096615 -->
<g id="node9" class="node">
<title>j676096615</title>
<polygon fill="none" stroke="red" points="748,-1126.5 534,-1126.5 534,-1090.5 748,-1090.5 748,-1126.5"/>
<text text-anchor="middle" x="641" y="-1104.8" font-family="Times New Roman,serif" font-size="14.00">Sí, pero aún así debe ser agotador.</text>
</g>
<!-- j2862191830&#45;&gt;j676096615 -->
<g id="edge8" class="edge">
<title>j2862191830&#45;&gt;j676096615</title>
<path fill="none" stroke="black" d="M641,-1171.57C641,-1161.11 641,-1149 641,-1138.27"/>
<polygon fill="black" stroke="black" points="644.5,-1138.41 641,-1128.41 637.5,-1138.41 644.5,-1138.41"/>
</g>
<!-- j68140937 -->
<g id="node10" class="node">
<title>j68140937</title>
<polygon fill="none" stroke="red" points="877,-1064 729,-1064 729,-1028 877,-1028 877,-1064"/>
<text text-anchor="middle" x="803" y="-1042.3" font-family="Times New Roman,serif" font-size="14.00">¿Acostumbrarse a qué?</text>
</g>
<!-- j2862191830&#45;&gt;j68140937 -->
<g id="edge9" class="edge">
<title>j2862191830&#45;&gt;j68140937</title>
<path fill="none" stroke="black" d="M705.22,-1171.54C723.49,-1161.99 742.37,-1149.81 757,-1135 773.73,-1118.06 785.8,-1093.78 793.36,-1075.02"/>
<polygon fill="black" stroke="black" points="796.57,-1076.44 796.86,-1065.85 790.03,-1073.94 796.57,-1076.44"/>
</g>
<!-- j1438253154 -->
<g id="node11" class="node">
<title>j1438253154</title>
<polygon fill="none" stroke="blue" points="418,-1010 126,-1010 126,-942 418,-942 418,-1010"/>
<text text-anchor="middle" x="272" y="-994.8" font-family="Times New Roman,serif" font-size="14.00">Soy fuerte&#13;</text>
<text text-anchor="middle" x="272" y="-979.8" font-family="Times New Roman,serif" font-size="14.00">No me voy a rendir&#13;</text>
<text text-anchor="middle" x="272" y="-964.8" font-family="Times New Roman,serif" font-size="14.00">Pero... estoy muerta&#13;</text>
<text text-anchor="middle" x="272" y="-949.8" font-family="Times New Roman,serif" font-size="14.00">A veces no hay suficiente café en el mundo, ¿no?</text>
</g>
<!-- j3466449473&#45;&gt;j1438253154 -->
<g id="edge10" class="edge">
<title>j3466449473&#45;&gt;j1438253154</title>
<path fill="none" stroke="black" d="M272,-1081.72C272,-1064.58 272,-1041.62 272,-1021.57"/>
<polygon fill="black" stroke="black" points="275.5,-1021.68 272,-1011.68 268.5,-1021.68 275.5,-1021.68"/>
</g>
<!-- j55758066 -->
<g id="node12" class="node">
<title>j55758066</title>
<polygon fill="none" stroke="blue" points="740,-1010 444,-1010 444,-942 740,-942 740,-1010"/>
<text text-anchor="middle" x="592" y="-994.8" font-family="Times New Roman,serif" font-size="14.00">Sí, no tienes idea &#13;</text>
<text text-anchor="middle" x="592" y="-979.8" font-family="Times New Roman,serif" font-size="14.00">A veces no hay suficiente café en el mundo, ¿no? &#13;</text>
<text text-anchor="middle" x="592" y="-964.8" font-family="Times New Roman,serif" font-size="14.00">Pero soy dura de roer &#13;</text>
<text text-anchor="middle" x="592" y="-949.8" font-family="Times New Roman,serif" font-size="14.00">No me voy a rendir</text>
</g>
<!-- j676096615&#45;&gt;j55758066 -->
<g id="edge11" class="edge">
<title>j676096615&#45;&gt;j55758066</title>
<path fill="none" stroke="black" d="M634.49,-1090.17C627.88,-1072.55 617.36,-1044.55 608.45,-1020.81"/>
<polygon fill="black" stroke="black" points="611.81,-1019.8 605.02,-1011.67 605.26,-1022.26 611.81,-1019.8"/>
</g>
<!-- j2525647896 -->
<g id="node13" class="node">
<title>j2525647896</title>
<polygon fill="none" stroke="blue" points="1040.5,-924 607.5,-924 607.5,-856 1040.5,-856 1040.5,-924"/>
<text text-anchor="middle" x="824" y="-908.8" font-family="Times New Roman,serif" font-size="14.00">A sus miradas y dolores vacíos&#13;</text>
<text text-anchor="middle" x="824" y="-893.8" font-family="Times New Roman,serif" font-size="14.00">Para ellos soy una cara en la tienda de la RCI que cura heridas&#13;</text>
<text text-anchor="middle" x="824" y="-878.8" font-family="Times New Roman,serif" font-size="14.00">Siento que la gente sólo pasa A TRAVÉS de mí como una puerta giratoria&#13;</text>
<text text-anchor="middle" x="824" y="-863.8" font-family="Times New Roman,serif" font-size="14.00">Y esto ya pasaba antes de conocerte jajaja</text>
</g>
<!-- j68140937&#45;&gt;j2525647896 -->
<g id="edge12" class="edge">
<title>j68140937&#45;&gt;j2525647896</title>
<path fill="none" stroke="black" d="M805.37,-1027.63C808.39,-1005.45 813.74,-966.26 817.93,-935.52"/>
<polygon fill="black" stroke="black" points="821.38,-936.09 819.27,-925.71 814.45,-935.14 821.38,-936.09"/>
</g>
<!-- j88217540 -->
<g id="node14" class="node">
<title>j88217540</title>
<polygon fill="none" stroke="red" points="419.5,-838 28.5,-838 28.5,-802 419.5,-802 419.5,-838"/>
<text text-anchor="middle" x="224" y="-816.3" font-family="Times New Roman,serif" font-size="14.00">Solo porque eres fuerte no quiere decir que no me vaya a importar.</text>
</g>
<!-- j1438253154&#45;&gt;j88217540 -->
<g id="edge13" class="edge">
<title>j1438253154&#45;&gt;j88217540</title>
<path fill="none" stroke="black" d="M261.58,-941.58C252.98,-913.97 240.89,-875.2 232.77,-849.14"/>
<polygon fill="black" stroke="black" points="236.11,-848.1 229.8,-839.6 229.43,-850.19 236.11,-848.1"/>
</g>
<!-- j1464600519 -->
<g id="node15" class="node">
<title>j1464600519</title>
<polygon fill="none" stroke="red" points="776,-838 438,-838 438,-802 776,-802 776,-838"/>
<text text-anchor="middle" x="607" y="-816.3" font-family="Times New Roman,serif" font-size="14.00">Sí, pero una fuente constante de café no me haría mal. lol</text>
</g>
<!-- j1438253154&#45;&gt;j1464600519 -->
<g id="edge14" class="edge">
<title>j1438253154&#45;&gt;j1464600519</title>
<path fill="none" stroke="black" d="M344.69,-941.58C409.59,-911.75 502.81,-868.9 558.88,-843.12"/>
<polygon fill="black" stroke="black" points="560.24,-846.35 567.86,-838.99 557.31,-839.99 560.24,-846.35"/>
</g>
<!-- j55758066&#45;&gt;j88217540 -->
<g id="edge15" class="edge">
<title>j55758066&#45;&gt;j88217540</title>
<path fill="none" stroke="black" d="M512.15,-941.58C440.56,-911.63 337.6,-868.54 276.1,-842.8"/>
<polygon fill="black" stroke="black" points="277.46,-839.58 266.88,-838.94 274.75,-846.03 277.46,-839.58"/>
</g>
<!-- j55758066&#45;&gt;j1464600519 -->
<g id="edge16" class="edge">
<title>j55758066&#45;&gt;j1464600519</title>
<path fill="none" stroke="black" d="M595.25,-941.58C597.93,-914.09 601.69,-875.55 604.22,-849.5"/>
<polygon fill="black" stroke="black" points="607.7,-849.95 605.18,-839.66 600.73,-849.27 607.7,-849.95"/>
</g>
<!-- j3843131114 -->
<g id="node16" class="node">
<title>j3843131114</title>
<ellipse fill="none" stroke="orange" cx="824" cy="-627" rx="113.98" ry="18"/>
<text text-anchor="middle" x="824" y="-623.3" font-family="Times New Roman,serif" font-size="14.00">Check boolean LettieNoFlirt</text>
</g>
<!-- j2525647896&#45;&gt;j3843131114 -->
<g id="edge17" class="edge">
<title>j2525647896&#45;&gt;j3843131114</title>
<path fill="none" stroke="black" d="M824,-855.68C824,-803.99 824,-705.37 824,-656.67"/>
<polygon fill="black" stroke="black" points="827.5,-656.94 824,-646.94 820.5,-656.94 827.5,-656.94"/>
</g>
<!-- j1241691035 -->
<g id="node17" class="node">
<title>j1241691035</title>
<polygon fill="none" stroke="blue" points="396.5,-765 51.5,-765 51.5,-682 396.5,-682 396.5,-765"/>
<text text-anchor="middle" x="224" y="-749.8" font-family="Times New Roman,serif" font-size="14.00">Sí,&#13;</text>
<text text-anchor="middle" x="224" y="-734.8" font-family="Times New Roman,serif" font-size="14.00">Es suficiente saber que alguien me apoya&#13;</text>
<text text-anchor="middle" x="224" y="-719.8" font-family="Times New Roman,serif" font-size="14.00">Arthur es así&#13;</text>
<text text-anchor="middle" x="224" y="-704.8" font-family="Times New Roman,serif" font-size="14.00">No está sobre de mí como Aoi, pretendiendo ser mi mamá&#13;</text>
<text text-anchor="middle" x="224" y="-689.8" font-family="Times New Roman,serif" font-size="14.00">Solo me pasa una taza de café y me dice, ¿estás bien?</text>
</g>
<!-- j88217540&#45;&gt;j1241691035 -->
<g id="edge18" class="edge">
<title>j88217540&#45;&gt;j1241691035</title>
<path fill="none" stroke="black" d="M224,-801.67C224,-794.47 224,-785.71 224,-776.7"/>
<polygon fill="black" stroke="black" points="227.5,-776.78 224,-766.78 220.5,-776.78 227.5,-776.78"/>
</g>
<!-- j4100787478 -->
<g id="node18" class="node">
<title>j4100787478</title>
<polygon fill="none" stroke="blue" points="769.5,-757.5 424.5,-757.5 424.5,-689.5 769.5,-689.5 769.5,-757.5"/>
<text text-anchor="middle" x="597" y="-742.3" font-family="Times New Roman,serif" font-size="14.00">Jajaja si no hace daño&#13;</text>
<text text-anchor="middle" x="597" y="-727.3" font-family="Times New Roman,serif" font-size="14.00">Arthur es así&#13;</text>
<text text-anchor="middle" x="597" y="-712.3" font-family="Times New Roman,serif" font-size="14.00">No está sobre de mí como Aoi, pretendiendo ser mi mamá&#13;</text>
<text text-anchor="middle" x="597" y="-697.3" font-family="Times New Roman,serif" font-size="14.00">Solo me pasa una taza de café y me dice, ¿estás bien?</text>
</g>
<!-- j1464600519&#45;&gt;j4100787478 -->
<g id="edge19" class="edge">
<title>j1464600519&#45;&gt;j4100787478</title>
<path fill="none" stroke="black" d="M605.17,-801.67C604.19,-792.48 602.95,-780.72 601.73,-769.17"/>
<polygon fill="black" stroke="black" points="605.21,-768.87 600.68,-759.29 598.25,-769.61 605.21,-768.87"/>
</g>
<!-- j2183252545 -->
<g id="node19" class="node">
<title>j2183252545</title>
<polygon fill="none" stroke="red" points="1358,-558 1008,-558 1008,-522 1358,-522 1358,-558"/>
<text text-anchor="middle" x="1183" y="-536.3" font-family="Times New Roman,serif" font-size="14.00">Digo, ¿qué esperabas de gente que acaba de perderlo todo?</text>
</g>
<!-- j3843131114&#45;&gt;j2183252545 -->
<g id="edge20" class="edge">
<title>j3843131114&#45;&gt;j2183252545</title>
<path fill="none" stroke="green" d="M885.31,-611.48C943.9,-597.61 1032.74,-576.58 1098.12,-561.1"/>
<polygon fill="green" stroke="green" points="1098.82,-564.53 1107.75,-558.82 1097.21,-557.72 1098.82,-564.53"/>
<text text-anchor="middle" x="1035" y="-579.8" font-family="Times New Roman,serif" font-size="14.00">true</text>
</g>
<!-- j3843131114&#45;&gt;j2183252545 -->
<g id="edge22" class="edge">
<title>j3843131114&#45;&gt;j2183252545</title>
<path fill="none" stroke="brown" d="M916.15,-616.1C957.48,-610.54 1006.6,-602.39 1050,-591 1077.96,-583.66 1108.18,-572.57 1132.74,-562.69"/>
<polygon fill="brown" stroke="brown" points="1133.91,-566 1141.85,-558.98 1131.27,-559.52 1133.91,-566"/>
<text text-anchor="middle" x="1107" y="-579.8" font-family="Times New Roman,serif" font-size="14.00">false</text>
</g>
<!-- j2776270907 -->
<g id="node20" class="node">
<title>j2776270907</title>
<polygon fill="none" stroke="red" points="990,-558 568,-558 568,-522 990,-522 990,-558"/>
<text text-anchor="middle" x="779" y="-536.3" font-family="Times New Roman,serif" font-size="14.00">Puedo ver porque toda la gente llega a verse igual después de un tiempo.</text>
</g>
<!-- j3843131114&#45;&gt;j2776270907 -->
<g id="edge21" class="edge">
<title>j3843131114&#45;&gt;j2776270907</title>
<path fill="none" stroke="green" d="M795.57,-609.42C789.34,-604.34 783.55,-598.17 780,-591 776.75,-584.44 775.54,-576.78 775.37,-569.45"/>
<polygon fill="green" stroke="green" points="778.86,-569.71 775.79,-559.57 771.86,-569.42 778.86,-569.71"/>
<text text-anchor="middle" x="791" y="-579.8" font-family="Times New Roman,serif" font-size="14.00">true</text>
</g>
<!-- j3843131114&#45;&gt;j2776270907 -->
<g id="edge23" class="edge">
<title>j3843131114&#45;&gt;j2776270907</title>
<path fill="none" stroke="brown" d="M817.16,-608.54C813.13,-598.77 807.71,-586.5 802,-576 800.55,-573.34 798.97,-570.61 797.33,-567.92"/>
<polygon fill="brown" stroke="brown" points="800.43,-566.28 792.1,-559.73 794.53,-570.04 800.43,-566.28"/>
<text text-anchor="middle" x="822" y="-579.8" font-family="Times New Roman,serif" font-size="14.00">false</text>
</g>
<!-- j1934897627 -->
<g id="node21" class="node">
<title>j1934897627</title>
<polygon fill="none" stroke="red" points="550,-558 320,-558 320,-522 550,-522 550,-558"/>
<text text-anchor="middle" x="435" y="-536.3" font-family="Times New Roman,serif" font-size="14.00">Al menos eres una puerta muy sexy :P</text>
</g>
<!-- j3843131114&#45;&gt;j1934897627 -->
<g id="edge24" class="edge">
<title>j3843131114&#45;&gt;j1934897627</title>
<path fill="none" stroke="brown" d="M759.33,-611.87C695.52,-597.93 597.41,-576.49 525.8,-560.84"/>
<polygon fill="brown" stroke="brown" points="526.99,-557.52 516.47,-558.8 525.49,-564.36 526.99,-557.52"/>
<text text-anchor="middle" x="665" y="-579.8" font-family="Times New Roman,serif" font-size="14.00">false</text>
</g>
<!-- j2237900188 -->
<g id="node22" class="node">
<title>j2237900188</title>
<ellipse fill="none" stroke="orange" cx="224" cy="-627" rx="140.28" ry="18"/>
<text text-anchor="middle" x="224" y="-623.3" font-family="Times New Roman,serif" font-size="14.00">Boolean LettieShoulder is now true.</text>
</g>
<!-- j1241691035&#45;&gt;j2237900188 -->
<g id="edge25" class="edge">
<title>j1241691035&#45;&gt;j2237900188</title>
<path fill="none" stroke="black" d="M224,-681.6C224,-673.22 224,-664.57 224,-656.73"/>
<polygon fill="black" stroke="black" points="227.5,-656.74 224,-646.74 220.5,-656.74 227.5,-656.74"/>
</g>
<!-- j4100787478&#45;&gt;j2237900188 -->
<g id="edge26" class="edge">
<title>j4100787478&#45;&gt;j2237900188</title>
<path fill="none" stroke="black" d="M464.97,-689.05C408.29,-674.69 344.26,-658.47 296.46,-646.36"/>
<polygon fill="black" stroke="black" points="297.61,-643.04 287.06,-643.98 295.89,-649.82 297.61,-643.04"/>
</g>
<!-- j2219170806 -->
<g id="node23" class="node">
<title>j2219170806</title>
<polygon fill="none" stroke="blue" points="1172,-477.5 972,-477.5 972,-424.5 1172,-424.5 1172,-477.5"/>
<text text-anchor="middle" x="1072" y="-462.3" font-family="Times New Roman,serif" font-size="14.00">No es culpa de ellos&#13;</text>
<text text-anchor="middle" x="1072" y="-447.3" font-family="Times New Roman,serif" font-size="14.00">Tampoco es mi culpa, babas&#13;</text>
<text text-anchor="middle" x="1072" y="-432.3" font-family="Times New Roman,serif" font-size="14.00">Solo estoy cansada de todo esto</text>
</g>
<!-- j2183252545&#45;&gt;j2219170806 -->
<g id="edge27" class="edge">
<title>j2183252545&#45;&gt;j2219170806</title>
<path fill="none" stroke="black" d="M1160.8,-521.6C1147.35,-511.06 1129.76,-497.27 1113.78,-484.75"/>
<polygon fill="black" stroke="black" points="1116.33,-482.3 1106.3,-478.88 1112.01,-487.81 1116.33,-482.3"/>
</g>
<!-- j1350920505 -->
<g id="node24" class="node">
<title>j1350920505</title>
<ellipse fill="none" stroke="orange" cx="779" cy="-451" rx="64.19" ry="18"/>
<text text-anchor="middle" x="779" y="-447.3" font-family="Times New Roman,serif" font-size="14.00">+10 Chemistry</text>
</g>
<!-- j2776270907&#45;&gt;j1350920505 -->
<g id="edge28" class="edge">
<title>j2776270907&#45;&gt;j1350920505</title>
<path fill="none" stroke="black" d="M779,-521.81C779,-510.09 779,-494.29 779,-480.68"/>
<polygon fill="black" stroke="black" points="782.5,-480.96 779,-470.96 775.5,-480.96 782.5,-480.96"/>
</g>
<!-- j3099386227 -->
<g id="node25" class="node">
<title>j3099386227</title>
<ellipse fill="none" stroke="orange" cx="442" cy="-451" rx="64.19" ry="18"/>
<text text-anchor="middle" x="442" y="-447.3" font-family="Times New Roman,serif" font-size="14.00">+20 Chemistry</text>
</g>
<!-- j1934897627&#45;&gt;j3099386227 -->
<g id="edge29" class="edge">
<title>j1934897627&#45;&gt;j3099386227</title>
<path fill="none" stroke="black" d="M436.38,-521.81C437.33,-510.09 438.6,-494.29 439.69,-480.68"/>
<polygon fill="black" stroke="black" points="443.16,-481.21 440.47,-470.96 436.18,-480.65 443.16,-481.21"/>
</g>
<!-- j2675005930 -->
<g id="node26" class="node">
<title>j2675005930</title>
<ellipse fill="none" stroke="orange" cx="213" cy="-540" rx="64.19" ry="18"/>
<text text-anchor="middle" x="213" y="-536.3" font-family="Times New Roman,serif" font-size="14.00">+20 Chemistry</text>
</g>
<!-- j2237900188&#45;&gt;j2675005930 -->
<g id="edge30" class="edge">
<title>j2237900188&#45;&gt;j2675005930</title>
<path fill="none" stroke="black" d="M221.77,-608.8C220.32,-597.58 218.39,-582.67 216.71,-569.69"/>
<polygon fill="black" stroke="black" points="220.21,-569.44 215.45,-559.97 213.27,-570.33 220.21,-569.44"/>
</g>
<!-- j1949683466 -->
<g id="node27" class="node">
<title>j1949683466</title>
<polygon fill="none" stroke="blue" points="1032.5,-294 909.5,-294 909.5,-256 1032.5,-256 1032.5,-294"/>
<text text-anchor="middle" x="971" y="-278.8" font-family="Times New Roman,serif" font-size="14.00">Hablando de &#13;</text>
<text text-anchor="middle" x="971" y="-263.8" font-family="Times New Roman,serif" font-size="14.00">De vuelta al trabajo</text>
</g>
<!-- j2219170806&#45;&gt;j1949683466 -->
<g id="edge31" class="edge">
<title>j2219170806&#45;&gt;j1949683466</title>
<path fill="none" stroke="black" d="M1057.1,-424.33C1038.4,-392.11 1006.45,-337.08 987.18,-303.87"/>
<polygon fill="black" stroke="black" points="990.44,-302.51 982.39,-295.62 984.38,-306.03 990.44,-302.51"/>
</g>
<!-- j3185942859 -->
<g id="node28" class="node">
<title>j3185942859</title>
<polygon fill="none" stroke="blue" points="924,-380 634,-380 634,-312 924,-312 924,-380"/>
<text text-anchor="middle" x="779" y="-364.8" font-family="Times New Roman,serif" font-size="14.00">Sí, no es su culpa que siempre haya más de ellos&#13;</text>
<text text-anchor="middle" x="779" y="-349.8" font-family="Times New Roman,serif" font-size="14.00">Siempre pensé que nunca terminaría&#13;</text>
<text text-anchor="middle" x="779" y="-334.8" font-family="Times New Roman,serif" font-size="14.00">Ahora sé que en serio jamás terminara&#13;</text>
<text text-anchor="middle" x="779" y="-319.8" font-family="Times New Roman,serif" font-size="14.00">Lua, sálvame</text>
</g>
<!-- j1350920505&#45;&gt;j3185942859 -->
<g id="edge32" class="edge">
<title>j1350920505&#45;&gt;j3185942859</title>
<path fill="none" stroke="black" d="M779,-432.53C779,-421.3 779,-406.16 779,-391.74"/>
<polygon fill="black" stroke="black" points="782.5,-391.93 779,-381.93 775.5,-391.93 782.5,-391.93"/>
</g>
<!-- j254504225 -->
<g id="node29" class="node">
<title>j254504225</title>
<polygon fill="none" stroke="blue" points="616,-380 308,-380 308,-312 616,-312 616,-380"/>
<text text-anchor="middle" x="462" y="-364.8" font-family="Times New Roman,serif" font-size="14.00">JAJA &#13;</text>
<text text-anchor="middle" x="462" y="-349.8" font-family="Times New Roman,serif" font-size="14.00">Ay, babas, tú sí que sabes como animar a una dama&#13;</text>
<text text-anchor="middle" x="462" y="-334.8" font-family="Times New Roman,serif" font-size="14.00">Escribe eso en mi lápida&#13;</text>
<text text-anchor="middle" x="462" y="-319.8" font-family="Times New Roman,serif" font-size="14.00">&quot;Aquí yace la puerta más sexy que hayas visto.&quot;</text>
</g>
<!-- j3099386227&#45;&gt;j254504225 -->
<g id="edge33" class="edge">
<title>j3099386227&#45;&gt;j254504225</title>
<path fill="none" stroke="black" d="M445.39,-432.53C447.6,-421.18 450.57,-405.86 453.4,-391.31"/>
<polygon fill="black" stroke="black" points="456.75,-392.38 455.22,-381.9 449.88,-391.05 456.75,-392.38"/>
</g>
<!-- j2245924673 -->
<g id="node30" class="node">
<title>j2245924673</title>
<polygon fill="none" stroke="blue" points="347.5,-485 72.5,-485 72.5,-417 347.5,-417 347.5,-485"/>
<text text-anchor="middle" x="210" y="-469.8" font-family="Times New Roman,serif" font-size="14.00">Esa pregunta me gustó, babas&#13;</text>
<text text-anchor="middle" x="210" y="-454.8" font-family="Times New Roman,serif" font-size="14.00">Sigue así&#13;</text>
<text text-anchor="middle" x="210" y="-439.8" font-family="Times New Roman,serif" font-size="14.00">Puede que lo necesite de vez en cuando&#13;</text>
<text text-anchor="middle" x="210" y="-424.8" font-family="Times New Roman,serif" font-size="14.00">Y una o dos tazas de café no me vendrían mal</text>
</g>
<!-- j2675005930&#45;&gt;j2245924673 -->
<g id="edge34" class="edge">
<title>j2675005930&#45;&gt;j2245924673</title>
<path fill="none" stroke="black" d="M212.41,-521.81C212.16,-514.5 211.85,-505.6 211.54,-496.63"/>
<polygon fill="black" stroke="black" points="215.05,-496.74 211.2,-486.87 208.05,-496.99 215.05,-496.74"/>
</g>
<!-- j1949683466&#45;&gt;Chat ends. -->
<g id="edge35" class="edge">
<title>j1949683466&#45;&gt;Chat ends.</title>
<path fill="none" stroke="black" d="M944.81,-255.67C904.16,-227.46 823.17,-172.13 752,-129 696.88,-95.59 631.11,-60.05 590.71,-38.69"/>
<polygon fill="black" stroke="black" points="592.57,-35.71 582.1,-34.15 589.31,-41.91 592.57,-35.71"/>
</g>
<!-- j2005950608 -->
<g id="node31" class="node">
<title>j2005950608</title>
<polygon fill="none" stroke="blue" points="743,-182 573,-182 573,-129 743,-129 743,-182"/>
<text text-anchor="middle" x="658" y="-166.8" font-family="Times New Roman,serif" font-size="14.00">Hablando de &#13;</text>
<text text-anchor="middle" x="658" y="-151.8" font-family="Times New Roman,serif" font-size="14.00">Es hora de volver al trabajo&#13;</text>
<text text-anchor="middle" x="658" y="-136.8" font-family="Times New Roman,serif" font-size="14.00">Gracias por la distracción</text>
</g>
<!-- j3185942859&#45;&gt;j2005950608 -->
<g id="edge36" class="edge">
<title>j3185942859&#45;&gt;j2005950608</title>
<path fill="none" stroke="black" d="M757.65,-311.73C736.1,-278.16 702.93,-226.5 680.86,-192.11"/>
<polygon fill="black" stroke="black" points="683.83,-190.27 675.49,-183.74 677.94,-194.05 683.83,-190.27"/>
</g>
<!-- j772069268 -->
<g id="node32" class="node">
<title>j772069268</title>
<polygon fill="none" stroke="blue" points="676,-238 476,-238 476,-200 676,-200 676,-238"/>
<text text-anchor="middle" x="576" y="-222.8" font-family="Times New Roman,serif" font-size="14.00">Gracias por hacerme reír, babas &#13;</text>
<text text-anchor="middle" x="576" y="-207.8" font-family="Times New Roman,serif" font-size="14.00">Necesitaba eso</text>
</g>
<!-- j254504225&#45;&gt;j772069268 -->
<g id="edge37" class="edge">
<title>j254504225&#45;&gt;j772069268</title>
<path fill="none" stroke="black" d="M492.55,-311.5C511,-291.27 534.19,-265.84 551.45,-246.92"/>
<polygon fill="black" stroke="black" points="553.98,-249.34 558.13,-239.59 548.81,-244.62 553.98,-249.34"/>
</g>
<!-- j3234296588 -->
<g id="node33" class="node">
<title>j3234296588</title>
<ellipse fill="none" stroke="orange" cx="176" cy="-346" rx="113.98" ry="18"/>
<text text-anchor="middle" x="176" y="-342.3" font-family="Times New Roman,serif" font-size="14.00">Check boolean LettieNoFlirt</text>
</g>
<!-- j2245924673&#45;&gt;j3234296588 -->
<g id="edge38" class="edge">
<title>j2245924673&#45;&gt;j3234296588</title>
<path fill="none" stroke="black" d="M198.96,-416.56C194.57,-403.25 189.56,-388.09 185.35,-375.33"/>
<polygon fill="black" stroke="black" points="188.68,-374.25 182.22,-365.85 182.03,-376.44 188.68,-374.25"/>
</g>
<!-- j2005950608&#45;&gt;Chat ends. -->
<g id="edge39" class="edge">
<title>j2005950608&#45;&gt;Chat ends.</title>
<path fill="none" stroke="black" d="M638,-128.69C619.3,-104.56 591.53,-68.72 572.87,-44.64"/>
<polygon fill="black" stroke="black" points="575.78,-42.69 566.89,-36.93 570.25,-46.98 575.78,-42.69"/>
</g>
<!-- j2477048314 -->
<g id="node34" class="node">
<title>j2477048314</title>
<polygon fill="none" stroke="blue" points="531,-111 277,-111 277,-73 531,-73 531,-111"/>
<text text-anchor="middle" x="404" y="-95.8" font-family="Times New Roman,serif" font-size="14.00">De vuelta al trabajo, ¿no? &#13;</text>
<text text-anchor="middle" x="404" y="-80.8" font-family="Times New Roman,serif" font-size="14.00">Los dos estamos muy ocupados para esto</text>
</g>
<!-- j772069268&#45;&gt;j2477048314 -->
<g id="edge40" class="edge">
<title>j772069268&#45;&gt;j2477048314</title>
<path fill="none" stroke="black" d="M550.62,-199.56C520.94,-177.98 471.65,-142.17 438.51,-118.08"/>
<polygon fill="black" stroke="black" points="440.57,-115.25 430.43,-112.21 436.46,-120.92 440.57,-115.25"/>
</g>
<!-- j3780114495 -->
<g id="node35" class="node">
<title>j3780114495</title>
<polygon fill="none" stroke="red" points="458,-237 350,-237 350,-201 458,-201 458,-237"/>
<text text-anchor="middle" x="404" y="-215.3" font-family="Times New Roman,serif" font-size="14.00">Cuando quieras.</text>
</g>
<!-- j3234296588&#45;&gt;j3780114495 -->
<g id="edge41" class="edge">
<title>j3234296588&#45;&gt;j3780114495</title>
<path fill="none" stroke="green" d="M206.94,-328.29C225.29,-318.36 248.99,-305.5 270,-294 301.08,-276.99 336.12,-257.63 362.58,-242.98"/>
<polygon fill="green" stroke="green" points="364.25,-246.05 371.31,-238.14 360.86,-239.93 364.25,-246.05"/>
<text text-anchor="middle" x="346" y="-271.3" font-family="Times New Roman,serif" font-size="14.00">true</text>
</g>
<!-- j3044621941 -->
<g id="node36" class="node">
<title>j3044621941</title>
<polygon fill="none" stroke="red" points="186.5,-237 43.5,-237 43.5,-201 186.5,-201 186.5,-237"/>
<text text-anchor="middle" x="115" y="-215.3" font-family="Times New Roman,serif" font-size="14.00">Veré qué puedo hacer.</text>
</g>
<!-- j3234296588&#45;&gt;j3044621941 -->
<g id="edge42" class="edge">
<title>j3234296588&#45;&gt;j3044621941</title>
<path fill="none" stroke="green" d="M155.29,-328.16C145.49,-319.07 134.54,-307.04 128,-294 120.97,-279.97 117.68,-262.78 116.16,-248.5"/>
<polygon fill="green" stroke="green" points="119.67,-248.52 115.38,-238.84 112.7,-249.09 119.67,-248.52"/>
<text text-anchor="middle" x="139" y="-271.3" font-family="Times New Roman,serif" font-size="14.00">true</text>
</g>
<!-- j3234296588&#45;&gt;j3044621941 -->
<g id="edge44" class="edge">
<title>j3234296588&#45;&gt;j3044621941</title>
<path fill="none" stroke="brown" d="M173.49,-327.62C170.23,-308.92 163.29,-278.81 150,-256 147.9,-252.4 145.37,-248.89 142.63,-245.56"/>
<polygon fill="brown" stroke="brown" points="145.41,-243.41 136.1,-238.35 140.22,-248.11 145.41,-243.41"/>
<text text-anchor="middle" x="179" y="-271.3" font-family="Times New Roman,serif" font-size="14.00">false</text>
</g>
<!-- j3056928607 -->
<g id="node37" class="node">
<title>j3056928607</title>
<polygon fill="none" stroke="red" points="331.5,-237 204.5,-237 204.5,-201 331.5,-201 331.5,-237"/>
<text text-anchor="middle" x="268" y="-215.3" font-family="Times New Roman,serif" font-size="14.00">Cuando quieras. &lt;3</text>
</g>
<!-- j3234296588&#45;&gt;j3056928607 -->
<g id="edge43" class="edge">
<title>j3234296588&#45;&gt;j3056928607</title>
<path fill="none" stroke="brown" d="M188.79,-327.62C204.31,-306.54 230.62,-270.79 248.63,-246.32"/>
<polygon fill="brown" stroke="brown" points="251.31,-248.58 254.42,-238.45 245.67,-244.43 251.31,-248.58"/>
<text text-anchor="middle" x="253" y="-271.3" font-family="Times New Roman,serif" font-size="14.00">false</text>
</g>
<!-- j2477048314&#45;&gt;Chat ends. -->
<g id="edge45" class="edge">
<title>j2477048314&#45;&gt;Chat ends.</title>
<path fill="none" stroke="black" d="M441.98,-72.65C464.02,-62 491.71,-48.62 513.92,-37.88"/>
<polygon fill="black" stroke="black" points="515.18,-41.16 522.66,-33.66 512.13,-34.86 515.18,-41.16"/>
</g>
<!-- j3780114495&#45;&gt;j2477048314 -->
<g id="edge46" class="edge">
<title>j3780114495&#45;&gt;j2477048314</title>
<path fill="none" stroke="black" d="M404,-200.62C404,-180.53 404,-147.14 404,-122.86"/>
<polygon fill="black" stroke="black" points="407.5,-122.97 404,-112.97 400.5,-122.97 407.5,-122.97"/>
</g>
<!-- j3044621941&#45;&gt;j2477048314 -->
<g id="edge47" class="edge">
<title>j3044621941&#45;&gt;j2477048314</title>
<path fill="none" stroke="black" d="M149.39,-200.6C186.94,-181.89 249.05,-151.77 304,-129 315.29,-124.32 327.43,-119.66 339.23,-115.31"/>
<polygon fill="black" stroke="black" points="340.31,-118.64 348.51,-111.93 337.91,-112.06 340.31,-118.64"/>
</g>
<!-- j3056928607&#45;&gt;j2477048314 -->
<g id="edge48" class="edge">
<title>j3056928607&#45;&gt;j2477048314</title>
<path fill="none" stroke="black" d="M286.91,-200.62C309.96,-179.43 349.13,-143.44 375.75,-118.96"/>
<polygon fill="black" stroke="black" points="377.82,-121.82 382.81,-112.48 373.08,-116.67 377.82,-121.82"/>
</g>
</g>
</svg>
