<?xml version="1.0" encoding="UTF-8" standalone="no"?>
<!DOCTYPE svg PUBLIC "-//W3C//DTD SVG 1.1//EN"
 "http://www.w3.org/Graphics/SVG/1.1/DTD/svg11.dtd">
<!-- Generated by graphviz version 7.1.0 (20230121.1956)
 -->
<!-- Pages: 1 -->
<svg width="1446pt" height="2548pt"
 viewBox="0.00 0.00 1446.00 2548.00" xmlns="http://www.w3.org/2000/svg" xmlns:xlink="http://www.w3.org/1999/xlink">
<g id="graph0" class="graph" transform="scale(1 1) rotate(0) translate(4 2544)">
<polygon fill="white" stroke="none" points="-4,4 -4,-2544 1442,-2544 1442,4 -4,4"/>
<!-- LettieRank1Convo2 begins. -->
<g id="node1" class="node">
<title>LettieRank1Convo2 begins.</title>
<ellipse fill="none" stroke="orange" cx="533" cy="-2522" rx="111.58" ry="18"/>
<text text-anchor="middle" x="533" y="-2518.3" font-family="Times New Roman,serif" font-size="14.00">LettieRank1Convo2 begins.</text>
</g>
<!-- j89496700 -->
<g id="node2" class="node">
<title>j89496700</title>
<ellipse fill="none" stroke="orange" cx="533" cy="-2449" rx="128.08" ry="18"/>
<text text-anchor="middle" x="533" y="-2445.3" font-family="Times New Roman,serif" font-size="14.00">Check boolean LettieRatsAsked</text>
</g>
<!-- LettieRank1Convo2 begins.&#45;&gt;j89496700 -->
<g id="edge1" class="edge">
<title>LettieRank1Convo2 begins.&#45;&gt;j89496700</title>
<path fill="none" stroke="black" d="M533,-2503.81C533,-2496.23 533,-2487.1 533,-2478.54"/>
<polygon fill="black" stroke="black" points="536.5,-2478.54 533,-2468.54 529.5,-2478.54 536.5,-2478.54"/>
</g>
<!-- j4081841611 -->
<g id="node3" class="node">
<title>j4081841611</title>
<polygon fill="none" stroke="red" points="586.5,-2380 389.5,-2380 389.5,-2344 586.5,-2344 586.5,-2380"/>
<text text-anchor="middle" x="488" y="-2358.3" font-family="Times New Roman,serif" font-size="14.00">¿Alguien que te extrañe en casa?</text>
</g>
<!-- j89496700&#45;&gt;j4081841611 -->
<g id="edge2" class="edge">
<title>j89496700&#45;&gt;j4081841611</title>
<path fill="none" stroke="green" d="M504.11,-2431.04C498.06,-2426.04 492.46,-2420 489,-2413 485.75,-2406.44 484.54,-2398.78 484.37,-2391.45"/>
<polygon fill="green" stroke="green" points="487.86,-2391.71 484.79,-2381.57 480.86,-2391.42 487.86,-2391.71"/>
<text text-anchor="middle" x="500" y="-2401.8" font-family="Times New Roman,serif" font-size="14.00">true</text>
</g>
<!-- j89496700&#45;&gt;j4081841611 -->
<g id="edge4" class="edge">
<title>j89496700&#45;&gt;j4081841611</title>
<path fill="none" stroke="brown" d="M526.16,-2430.54C522.13,-2420.77 516.71,-2408.5 511,-2398 509.55,-2395.34 507.97,-2392.61 506.33,-2389.92"/>
<polygon fill="brown" stroke="brown" points="509.43,-2388.28 501.1,-2381.73 503.53,-2392.04 509.43,-2388.28"/>
<text text-anchor="middle" x="532" y="-2401.8" font-family="Times New Roman,serif" font-size="14.00">false</text>
</g>
<!-- j109947295 -->
<g id="node4" class="node">
<title>j109947295</title>
<polygon fill="none" stroke="red" points="881,-2380 613,-2380 613,-2344 881,-2344 881,-2380"/>
<text text-anchor="middle" x="747" y="-2358.3" font-family="Times New Roman,serif" font-size="14.00">Y, ¿qué te hizo querer ratas como mascotas?</text>
</g>
<!-- j89496700&#45;&gt;j109947295 -->
<g id="edge3" class="edge">
<title>j89496700&#45;&gt;j109947295</title>
<path fill="none" stroke="brown" d="M574.52,-2431.51C608.15,-2418.15 655.8,-2399.22 692.5,-2384.65"/>
<polygon fill="brown" stroke="brown" points="693.62,-2387.97 701.62,-2381.03 691.03,-2381.46 693.62,-2387.97"/>
<text text-anchor="middle" x="665" y="-2401.8" font-family="Times New Roman,serif" font-size="14.00">false</text>
</g>
<!-- j3611088737 -->
<g id="node5" class="node">
<title>j3611088737</title>
<ellipse fill="none" stroke="orange" cx="398" cy="-2235" rx="153.27" ry="18"/>
<text text-anchor="middle" x="398" y="-2231.3" font-family="Times New Roman,serif" font-size="14.00">Boolean LettieHomeAsked is now true.</text>
</g>
<!-- j4081841611&#45;&gt;j3611088737 -->
<g id="edge5" class="edge">
<title>j4081841611&#45;&gt;j3611088737</title>
<path fill="none" stroke="black" d="M475.49,-2343.62C460.31,-2322.54 434.57,-2286.79 416.95,-2262.32"/>
<polygon fill="black" stroke="black" points="419.98,-2260.53 411.29,-2254.46 414.29,-2264.62 419.98,-2260.53"/>
</g>
<!-- j1419769657 -->
<g id="node6" class="node">
<title>j1419769657</title>
<ellipse fill="none" stroke="orange" cx="749" cy="-2289" rx="147.57" ry="18"/>
<text text-anchor="middle" x="749" y="-2285.3" font-family="Times New Roman,serif" font-size="14.00">Boolean LettieRatsAsked is now true.</text>
</g>
<!-- j109947295&#45;&gt;j1419769657 -->
<g id="edge6" class="edge">
<title>j109947295&#45;&gt;j1419769657</title>
<path fill="none" stroke="black" d="M747.48,-2343.81C747.7,-2336.14 747.96,-2326.89 748.2,-2318.24"/>
<polygon fill="black" stroke="black" points="751.69,-2318.64 748.48,-2308.54 744.7,-2318.44 751.69,-2318.64"/>
</g>
<!-- j4029412242 -->
<g id="node7" class="node">
<title>j4029412242</title>
<ellipse fill="none" stroke="orange" cx="483" cy="-1370.5" rx="125.38" ry="18"/>
<text text-anchor="middle" x="483" y="-1366.8" font-family="Times New Roman,serif" font-size="14.00">Check boolean LettieInteresting</text>
</g>
<!-- j3611088737&#45;&gt;j4029412242 -->
<g id="edge7" class="edge">
<title>j3611088737&#45;&gt;j4029412242</title>
<path fill="none" stroke="black" d="M393.58,-2216.53C389.16,-2197.48 383,-2166.02 383,-2138.5 383,-2138.5 383,-2138.5 383,-1452 383,-1425.28 404.93,-1405.94 428.25,-1392.91"/>
<polygon fill="black" stroke="black" points="429.66,-1396.13 436.92,-1388.42 426.43,-1389.91 429.66,-1396.13"/>
</g>
<!-- j27878299 -->
<g id="node8" class="node">
<title>j27878299</title>
<ellipse fill="none" stroke="orange" cx="755" cy="-2181" rx="125.38" ry="18"/>
<text text-anchor="middle" x="755" y="-2177.3" font-family="Times New Roman,serif" font-size="14.00">Check boolean LettieInteresting</text>
</g>
<!-- j1419769657&#45;&gt;j27878299 -->
<g id="edge8" class="edge">
<title>j1419769657&#45;&gt;j27878299</title>
<path fill="none" stroke="black" d="M749.96,-2270.97C750.88,-2254.76 752.28,-2230.06 753.37,-2210.79"/>
<polygon fill="black" stroke="black" points="756.86,-2211.03 753.93,-2200.85 749.87,-2210.64 756.86,-2211.03"/>
</g>
<!-- j2638756758 -->
<g id="node9" class="node">
<title>j2638756758</title>
<polygon fill="none" stroke="blue" points="548,-1272 418,-1272 418,-1219 548,-1219 548,-1272"/>
<text text-anchor="middle" x="483" y="-1256.8" font-family="Times New Roman,serif" font-size="14.00">Una mejor pregunta &#13;</text>
<text text-anchor="middle" x="483" y="-1241.8" font-family="Times New Roman,serif" font-size="14.00">Aprendes rápido &#13;</text>
<text text-anchor="middle" x="483" y="-1226.8" font-family="Times New Roman,serif" font-size="14.00">Sin embargo</text>
</g>
<!-- j4029412242&#45;&gt;j2638756758 -->
<g id="edge9" class="edge">
<title>j4029412242&#45;&gt;j2638756758</title>
<path fill="none" stroke="green" d="M483,-1352.14C483,-1334.43 483,-1306.41 483,-1283.67"/>
<polygon fill="green" stroke="green" points="486.5,-1283.86 483,-1273.86 479.5,-1283.86 486.5,-1283.86"/>
<text text-anchor="middle" x="494" y="-1304.3" font-family="Times New Roman,serif" font-size="14.00">true</text>
</g>
<!-- j4087522121 -->
<g id="node10" class="node">
<title>j4087522121</title>
<polygon fill="none" stroke="blue" points="689,-1145 479,-1145 479,-1092 689,-1092 689,-1145"/>
<text text-anchor="middle" x="584" y="-1129.8" font-family="Times New Roman,serif" font-size="14.00">No importa &#13;</text>
<text text-anchor="middle" x="584" y="-1114.8" font-family="Times New Roman,serif" font-size="14.00">No puedo dejar este cuchitril &#13;</text>
<text text-anchor="middle" x="584" y="-1099.8" font-family="Times New Roman,serif" font-size="14.00">Así que, ¿por qué pensar en ellos?</text>
</g>
<!-- j4029412242&#45;&gt;j4087522121 -->
<g id="edge10" class="edge">
<title>j4029412242&#45;&gt;j4087522121</title>
<path fill="none" stroke="brown" d="M500.03,-1352.48C517.24,-1334.21 543.21,-1303.54 557,-1272 573.24,-1234.86 579.72,-1188.59 582.3,-1156.81"/>
<polygon fill="brown" stroke="brown" points="585.78,-1157.12 583,-1146.9 578.8,-1156.63 585.78,-1157.12"/>
<text text-anchor="middle" x="586" y="-1241.8" font-family="Times New Roman,serif" font-size="14.00">false</text>
</g>
<!-- j558193919 -->
<g id="node11" class="node">
<title>j558193919</title>
<polygon fill="none" stroke="blue" points="851,-2112 659,-2112 659,-2059 851,-2059 851,-2112"/>
<text text-anchor="middle" x="755" y="-2096.8" font-family="Times New Roman,serif" font-size="14.00">Ey, ¿ves? &#13;</text>
<text text-anchor="middle" x="755" y="-2081.8" font-family="Times New Roman,serif" font-size="14.00">Fue una mejor pregunta, babas &#13;</text>
<text text-anchor="middle" x="755" y="-2066.8" font-family="Times New Roman,serif" font-size="14.00">Aprendes rápido</text>
</g>
<!-- j27878299&#45;&gt;j558193919 -->
<g id="edge11" class="edge">
<title>j27878299&#45;&gt;j558193919</title>
<path fill="none" stroke="green" d="M755,-2162.85C755,-2151.92 755,-2137.33 755,-2123.83"/>
<polygon fill="green" stroke="green" points="758.5,-2123.88 755,-2113.88 751.5,-2123.88 758.5,-2123.88"/>
<text text-anchor="middle" x="766" y="-2133.8" font-family="Times New Roman,serif" font-size="14.00">true</text>
</g>
<!-- j2731943590 -->
<g id="node12" class="node">
<title>j2731943590</title>
<polygon fill="none" stroke="blue" points="918.5,-2022 855.5,-2022 855.5,-1986 918.5,-1986 918.5,-2022"/>
<text text-anchor="middle" x="887" y="-2000.3" font-family="Times New Roman,serif" font-size="14.00">Tú dime</text>
</g>
<!-- j27878299&#45;&gt;j2731943590 -->
<g id="edge12" class="edge">
<title>j27878299&#45;&gt;j2731943590</title>
<path fill="none" stroke="brown" d="M794.32,-2163.48C816.74,-2152.13 843.56,-2134.95 860,-2112 876.55,-2088.9 882.99,-2056.64 885.47,-2033.6"/>
<polygon fill="brown" stroke="brown" points="888.96,-2033.95 886.33,-2023.68 881.98,-2033.34 888.96,-2033.95"/>
<text text-anchor="middle" x="894" y="-2081.8" font-family="Times New Roman,serif" font-size="14.00">false</text>
</g>
<!-- j2638756758&#45;&gt;j4087522121 -->
<g id="edge13" class="edge">
<title>j2638756758&#45;&gt;j4087522121</title>
<path fill="none" stroke="black" d="M503.93,-1218.6C519.03,-1199.91 539.57,-1174.48 556.07,-1154.06"/>
<polygon fill="black" stroke="black" points="558.59,-1156.52 562.15,-1146.54 553.14,-1152.12 558.59,-1156.52"/>
</g>
<!-- j181778832 -->
<g id="node13" class="node">
<title>j181778832</title>
<polygon fill="none" stroke="red" points="440,-891 0,-891 0,-855 440,-855 440,-891"/>
<text text-anchor="middle" x="220" y="-869.3" font-family="Times New Roman,serif" font-size="14.00">Estamos hablando por *Internet* y sabes que el *teléfono* existe, ¿verdad?</text>
</g>
<!-- j4087522121&#45;&gt;j181778832 -->
<g id="edge14" class="edge">
<title>j4087522121&#45;&gt;j181778832</title>
<path fill="none" stroke="black" d="M478.61,-1103.87C437.42,-1094.83 391.44,-1079.83 355,-1055 296.54,-1015.16 253.42,-941.55 233.06,-901.58"/>
<polygon fill="black" stroke="black" points="236.3,-900.23 228.71,-892.84 230.03,-903.35 236.3,-900.23"/>
</g>
<!-- j1470589357 -->
<g id="node14" class="node">
<title>j1470589357</title>
<polygon fill="none" stroke="red" points="803.5,-1055 364.5,-1055 364.5,-1019 803.5,-1019 803.5,-1055"/>
<text text-anchor="middle" x="584" y="-1033.3" font-family="Times New Roman,serif" font-size="14.00">A veces, un recuerdo doloroso es lo único que nos ayuda a seguir adelante.</text>
</g>
<!-- j4087522121&#45;&gt;j1470589357 -->
<g id="edge15" class="edge">
<title>j4087522121&#45;&gt;j1470589357</title>
<path fill="none" stroke="black" d="M584,-1091.91C584,-1083.86 584,-1074.91 584,-1066.66"/>
<polygon fill="black" stroke="black" points="587.5,-1066.77 584,-1056.77 580.5,-1066.77 587.5,-1066.77"/>
</g>
<!-- j1875245341 -->
<g id="node15" class="node">
<title>j1875245341</title>
<polygon fill="none" stroke="red" points="1067.5,-1001 960.5,-1001 960.5,-965 1067.5,-965 1067.5,-1001"/>
<text text-anchor="middle" x="1014" y="-979.3" font-family="Times New Roman,serif" font-size="14.00">O... key... [Fin.]</text>
</g>
<!-- j4087522121&#45;&gt;j1875245341 -->
<g id="edge16" class="edge">
<title>j4087522121&#45;&gt;j1875245341</title>
<path fill="none" stroke="black" d="M685.35,-1091.55C725.32,-1080.87 771.5,-1067.97 813,-1055 862.02,-1039.68 916.96,-1020.1 957,-1005.39"/>
<polygon fill="black" stroke="black" points="958.03,-1008.74 966.2,-1001.99 955.6,-1002.17 958.03,-1008.74"/>
</g>
<!-- j558193919&#45;&gt;j2731943590 -->
<g id="edge17" class="edge">
<title>j558193919&#45;&gt;j2731943590</title>
<path fill="none" stroke="black" d="M797.86,-2058.69C814.19,-2048.85 832.69,-2037.71 848.58,-2028.14"/>
<polygon fill="black" stroke="black" points="850.05,-2031.34 856.81,-2023.19 846.43,-2025.35 850.05,-2031.34"/>
</g>
<!-- j1199907578 -->
<g id="node16" class="node">
<title>j1199907578</title>
<polygon fill="none" stroke="red" points="914,-1949 860,-1949 860,-1913 914,-1913 914,-1949"/>
<text text-anchor="middle" x="887" y="-1927.3" font-family="Times New Roman,serif" font-size="14.00">¿Eh?</text>
</g>
<!-- j2731943590&#45;&gt;j1199907578 -->
<g id="edge18" class="edge">
<title>j2731943590&#45;&gt;j1199907578</title>
<path fill="none" stroke="black" d="M887,-1985.81C887,-1978.23 887,-1969.1 887,-1960.54"/>
<polygon fill="black" stroke="black" points="890.5,-1960.54 887,-1950.54 883.5,-1960.54 890.5,-1960.54"/>
</g>
<!-- j2477235884 -->
<g id="node17" class="node">
<title>j2477235884</title>
<polygon fill="none" stroke="red" points="1288,-1949 1048,-1949 1048,-1913 1288,-1913 1288,-1949"/>
<text text-anchor="middle" x="1168" y="-1927.3" font-family="Times New Roman,serif" font-size="14.00">No me gusta hacia dónde va esto. [Fin.]</text>
</g>
<!-- j2731943590&#45;&gt;j2477235884 -->
<g id="edge19" class="edge">
<title>j2731943590&#45;&gt;j2477235884</title>
<path fill="none" stroke="black" d="M918.96,-1994.92C959.75,-1984.62 1031.76,-1966.42 1087.89,-1952.24"/>
<polygon fill="black" stroke="black" points="1088.58,-1955.68 1097.42,-1949.83 1086.87,-1948.89 1088.58,-1955.68"/>
</g>
<!-- j1991100777 -->
<g id="node18" class="node">
<title>j1991100777</title>
<polygon fill="none" stroke="blue" points="405,-783 3,-783 3,-745 405,-745 405,-783"/>
<text text-anchor="middle" x="204" y="-767.8" font-family="Times New Roman,serif" font-size="14.00">Bien podría ser un pinche fantasma &#13;</text>
<text text-anchor="middle" x="204" y="-752.8" font-family="Times New Roman,serif" font-size="14.00">Llamando desde más allá de la tumba, sin poder cambiar, vivir, morir</text>
</g>
<!-- j181778832&#45;&gt;j1991100777 -->
<g id="edge20" class="edge">
<title>j181778832&#45;&gt;j1991100777</title>
<path fill="none" stroke="black" d="M217.43,-854.81C215,-838.57 211.31,-813.87 208.41,-794.48"/>
<polygon fill="black" stroke="black" points="211.89,-794.09 206.95,-784.72 204.97,-795.13 211.89,-794.09"/>
</g>
<!-- j3288769691 -->
<g id="node19" class="node">
<title>j3288769691</title>
<polygon fill="none" stroke="blue" points="661.5,-947 506.5,-947 506.5,-909 661.5,-909 661.5,-947"/>
<text text-anchor="middle" x="584" y="-931.8" font-family="Times New Roman,serif" font-size="14.00">¿Sí? &#13;</text>
<text text-anchor="middle" x="584" y="-916.8" font-family="Times New Roman,serif" font-size="14.00">¿Qué sabes tú del dolor?</text>
</g>
<!-- j1470589357&#45;&gt;j3288769691 -->
<g id="edge21" class="edge">
<title>j1470589357&#45;&gt;j3288769691</title>
<path fill="none" stroke="black" d="M584,-1018.81C584,-1002.57 584,-977.87 584,-958.48"/>
<polygon fill="black" stroke="black" points="587.5,-958.74 584,-948.74 580.5,-958.74 587.5,-958.74"/>
</g>
<!-- Chat ends. -->
<g id="node20" class="node">
<title>Chat ends.</title>
<ellipse fill="none" stroke="orange" cx="1106" cy="-18" rx="50.09" ry="18"/>
<text text-anchor="middle" x="1106" y="-14.3" font-family="Times New Roman,serif" font-size="14.00">Chat ends.</text>
</g>
<!-- j1875245341&#45;&gt;Chat ends. -->
<g id="edge22" class="edge">
<title>j1875245341&#45;&gt;Chat ends.</title>
<path fill="none" stroke="black" d="M1035.51,-964.56C1057.04,-945 1087,-911.12 1087,-874 1087,-874 1087,-874 1087,-90 1087,-75.39 1090.8,-59.65 1095,-46.71"/>
<polygon fill="black" stroke="black" points="1098.19,-48.19 1098.21,-37.59 1091.59,-45.87 1098.19,-48.19"/>
</g>
<!-- j2664700484 -->
<g id="node21" class="node">
<title>j2664700484</title>
<polygon fill="none" stroke="blue" points="1039.5,-1876 734.5,-1876 734.5,-1838 1039.5,-1838 1039.5,-1876"/>
<text text-anchor="middle" x="887" y="-1860.8" font-family="Times New Roman,serif" font-size="14.00">Quiero saber por qué crees que me gustan las ratas &#13;</text>
<text text-anchor="middle" x="887" y="-1845.8" font-family="Times New Roman,serif" font-size="14.00">Anda, dime</text>
</g>
<!-- j1199907578&#45;&gt;j2664700484 -->
<g id="edge23" class="edge">
<title>j1199907578&#45;&gt;j2664700484</title>
<path fill="none" stroke="black" d="M887,-1912.57C887,-1905.1 887,-1896.17 887,-1887.71"/>
<polygon fill="black" stroke="black" points="890.5,-1887.79 887,-1877.79 883.5,-1887.79 890.5,-1887.79"/>
</g>
<!-- j2365690676 -->
<g id="node22" class="node">
<title>j2365690676</title>
<polygon fill="none" stroke="blue" points="1397,-1820 1293,-1820 1293,-1784 1397,-1784 1397,-1820"/>
<text text-anchor="middle" x="1345" y="-1798.3" font-family="Times New Roman,serif" font-size="14.00">Tú te lo pierdes</text>
</g>
<!-- j2477235884&#45;&gt;j2365690676 -->
<g id="edge24" class="edge">
<title>j2477235884&#45;&gt;j2365690676</title>
<path fill="none" stroke="black" d="M1192.24,-1912.61C1223.14,-1890.44 1276.7,-1852.01 1311.49,-1827.04"/>
<polygon fill="black" stroke="black" points="1313.46,-1829.94 1319.54,-1821.27 1309.37,-1824.25 1313.46,-1829.94"/>
</g>
<!-- j353569791 -->
<g id="node23" class="node">
<title>j353569791</title>
<polygon fill="none" stroke="blue" points="425,-673 55,-673 55,-620 425,-620 425,-673"/>
<text text-anchor="middle" x="240" y="-657.8" font-family="Times New Roman,serif" font-size="14.00">¡¿Qué somos?! &#13;</text>
<text text-anchor="middle" x="240" y="-642.8" font-family="Times New Roman,serif" font-size="14.00">FANTASMAS, nada más &#13;</text>
<text text-anchor="middle" x="240" y="-627.8" font-family="Times New Roman,serif" font-size="14.00">Como las sombras de una cinta VHS que se usó muchas veces</text>
</g>
<!-- j1991100777&#45;&gt;j353569791 -->
<g id="edge25" class="edge">
<title>j1991100777&#45;&gt;j353569791</title>
<path fill="none" stroke="black" d="M209.7,-744.7C214.76,-728.49 222.28,-704.34 228.57,-684.17"/>
<polygon fill="black" stroke="black" points="231.83,-685.48 231.46,-674.89 225.15,-683.4 231.83,-685.48"/>
</g>
<!-- j2558628976 -->
<g id="node24" class="node">
<title>j2558628976</title>
<polygon fill="none" stroke="red" points="825,-837 229,-837 229,-801 825,-801 825,-837"/>
<text text-anchor="middle" x="527" y="-815.3" font-family="Times New Roman,serif" font-size="14.00">¿Sabes qué se siente cuando te cortan la cabeza? Yo sí. He muerto miles de veces. Y sí *duele*, mujer.</text>
</g>
<!-- j3288769691&#45;&gt;j2558628976 -->
<g id="edge26" class="edge">
<title>j3288769691&#45;&gt;j2558628976</title>
<path fill="none" stroke="black" d="M574.33,-908.85C565.33,-891.95 551.78,-866.52 541.49,-847.19"/>
<polygon fill="black" stroke="black" points="544.65,-845.69 536.86,-838.51 538.47,-848.98 544.65,-845.69"/>
</g>
<!-- j2504080849 -->
<g id="node25" class="node">
<title>j2504080849</title>
<polygon fill="none" stroke="red" points="1058.5,-837 843.5,-837 843.5,-801 1058.5,-801 1058.5,-837"/>
<text text-anchor="middle" x="951" y="-815.3" font-family="Times New Roman,serif" font-size="14.00">No tengo que probarte nada, mujer.</text>
</g>
<!-- j3288769691&#45;&gt;j2504080849 -->
<g id="edge27" class="edge">
<title>j3288769691&#45;&gt;j2504080849</title>
<path fill="none" stroke="black" d="M647.09,-908.61C711.93,-889.7 812.68,-860.33 880.21,-840.64"/>
<polygon fill="black" stroke="black" points="881.09,-844.03 889.71,-837.87 879.13,-837.31 881.09,-844.03"/>
</g>
<!-- j3507503232 -->
<g id="node26" class="node">
<title>j3507503232</title>
<ellipse fill="none" stroke="orange" cx="887" cy="-1748" rx="128.88" ry="18"/>
<text text-anchor="middle" x="887" y="-1744.3" font-family="Times New Roman,serif" font-size="14.00">Boolean LettieRats1 is now true.</text>
</g>
<!-- j2664700484&#45;&gt;j3507503232 -->
<g id="edge28" class="edge">
<title>j2664700484&#45;&gt;j3507503232</title>
<path fill="none" stroke="black" d="M887,-1837.85C887,-1821.34 887,-1796.69 887,-1777.55"/>
<polygon fill="black" stroke="black" points="890.5,-1777.69 887,-1767.69 883.5,-1777.69 890.5,-1777.69"/>
</g>
<!-- j2365690676&#45;&gt;Chat ends. -->
<g id="edge29" class="edge">
<title>j2365690676&#45;&gt;Chat ends.</title>
<path fill="none" stroke="black" d="M1382.29,-1783.59C1408.16,-1768.65 1438,-1744.4 1438,-1712 1438,-1712 1438,-1712 1438,-90 1438,-35.34 1263.75,-22.62 1167.73,-19.75"/>
<polygon fill="black" stroke="black" points="1168.03,-16.26 1157.94,-19.49 1167.84,-23.26 1168.03,-16.26"/>
</g>
<!-- j3037959271 -->
<g id="node27" class="node">
<title>j3037959271</title>
<polygon fill="none" stroke="blue" points="383.5,-504.5 138.5,-504.5 138.5,-466.5 383.5,-466.5 383.5,-504.5"/>
<text text-anchor="middle" x="261" y="-489.3" font-family="Times New Roman,serif" font-size="14.00">No, es mejor que crean que estoy muerta&#13;</text>
<text text-anchor="middle" x="261" y="-474.3" font-family="Times New Roman,serif" font-size="14.00">Tomaré este dolor por ellos</text>
</g>
<!-- j353569791&#45;&gt;j3037959271 -->
<g id="edge30" class="edge">
<title>j353569791&#45;&gt;j3037959271</title>
<path fill="none" stroke="black" d="M243.42,-619.6C247.16,-591.29 253.14,-546.02 257.07,-516.27"/>
<polygon fill="black" stroke="black" points="260.53,-516.81 258.37,-506.44 253.59,-515.9 260.53,-516.81"/>
</g>
<!-- j2160665714 -->
<g id="node28" class="node">
<title>j2160665714</title>
<ellipse fill="none" stroke="orange" cx="527" cy="-709" rx="129.98" ry="18"/>
<text text-anchor="middle" x="527" y="-705.3" font-family="Times New Roman,serif" font-size="14.00">Boolean LettieDuviri is now true.</text>
</g>
<!-- j2558628976&#45;&gt;j2160665714 -->
<g id="edge31" class="edge">
<title>j2558628976&#45;&gt;j2160665714</title>
<path fill="none" stroke="black" d="M527,-800.65C527,-783.96 527,-758.42 527,-738.7"/>
<polygon fill="black" stroke="black" points="530.5,-738.82 527,-728.82 523.5,-738.82 530.5,-738.82"/>
</g>
<!-- j123440522 -->
<g id="node29" class="node">
<title>j123440522</title>
<polygon fill="none" stroke="blue" points="1053,-673 949,-673 949,-620 1053,-620 1053,-673"/>
<text text-anchor="middle" x="1001" y="-657.8" font-family="Times New Roman,serif" font-size="14.00">No te lo pedí &#13;</text>
<text text-anchor="middle" x="1001" y="-642.8" font-family="Times New Roman,serif" font-size="14.00">Estoy ocupada &#13;</text>
<text text-anchor="middle" x="1001" y="-627.8" font-family="Times New Roman,serif" font-size="14.00">Vete</text>
</g>
<!-- j2504080849&#45;&gt;j123440522 -->
<g id="edge32" class="edge">
<title>j2504080849&#45;&gt;j123440522</title>
<path fill="none" stroke="black" d="M956.07,-800.71C964.02,-773.59 979.61,-720.44 990.17,-684.44"/>
<polygon fill="black" stroke="black" points="993.52,-685.44 992.98,-674.86 986.8,-683.47 993.52,-685.44"/>
</g>
<!-- j3351203823 -->
<g id="node30" class="node">
<title>j3351203823</title>
<polygon fill="none" stroke="red" points="1032.5,-1693 741.5,-1693 741.5,-1657 1032.5,-1657 1032.5,-1693"/>
<text text-anchor="middle" x="887" y="-1671.3" font-family="Times New Roman,serif" font-size="14.00">¿Porque son inteligentes, cariñosas y juguetonas?</text>
</g>
<!-- j3507503232&#45;&gt;j3351203823 -->
<g id="edge33" class="edge">
<title>j3507503232&#45;&gt;j3351203823</title>
<path fill="none" stroke="black" d="M887,-1729.81C887,-1722.23 887,-1713.1 887,-1704.54"/>
<polygon fill="black" stroke="black" points="890.5,-1704.54 887,-1694.54 883.5,-1704.54 890.5,-1704.54"/>
</g>
<!-- j2884757075 -->
<g id="node31" class="node">
<title>j2884757075</title>
<polygon fill="none" stroke="red" points="723,-1693 411,-1693 411,-1657 723,-1657 723,-1693"/>
<text text-anchor="middle" x="567" y="-1671.3" font-family="Times New Roman,serif" font-size="14.00">¿Porque a menudo son ignoradas e incomprendidas?</text>
</g>
<!-- j3507503232&#45;&gt;j2884757075 -->
<g id="edge34" class="edge">
<title>j3507503232&#45;&gt;j2884757075</title>
<path fill="none" stroke="black" d="M820.31,-1732.2C772.95,-1721.7 708.84,-1707.47 656.96,-1695.96"/>
<polygon fill="black" stroke="black" points="657.75,-1692.55 647.23,-1693.8 656.23,-1699.38 657.75,-1692.55"/>
</g>
<!-- j1238923587 -->
<g id="node32" class="node">
<title>j1238923587</title>
<polygon fill="none" stroke="red" points="1409.5,-1693 1050.5,-1693 1050.5,-1657 1409.5,-1657 1409.5,-1693"/>
<text text-anchor="middle" x="1230" y="-1671.3" font-family="Times New Roman,serif" font-size="14.00">Lettie, no te entiendo para nada. Pero las ratas son adorables.</text>
</g>
<!-- j3507503232&#45;&gt;j1238923587 -->
<g id="edge35" class="edge">
<title>j3507503232&#45;&gt;j1238923587</title>
<path fill="none" stroke="black" d="M956.82,-1732.55C1008.06,-1721.94 1078.24,-1707.41 1134.64,-1695.74"/>
<polygon fill="black" stroke="black" points="1135.16,-1699.21 1144.24,-1693.75 1133.74,-1692.35 1135.16,-1699.21"/>
</g>
<!-- j4116939323 -->
<g id="node33" class="node">
<title>j4116939323</title>
<polygon fill="none" stroke="red" points="406,-422 116,-422 116,-386 406,-386 406,-422"/>
<text text-anchor="middle" x="261" y="-400.3" font-family="Times New Roman,serif" font-size="14.00">Todavía hay una vida que vale la pena vivir aquí.</text>
</g>
<!-- j3037959271&#45;&gt;j4116939323 -->
<g id="edge36" class="edge">
<title>j3037959271&#45;&gt;j4116939323</title>
<path fill="none" stroke="black" d="M261,-466.06C261,-456.46 261,-444.51 261,-433.73"/>
<polygon fill="black" stroke="black" points="264.5,-433.76 261,-423.76 257.5,-433.76 264.5,-433.76"/>
</g>
<!-- j1215048413 -->
<g id="node34" class="node">
<title>j1215048413</title>
<polygon fill="none" stroke="red" points="807.5,-422 424.5,-422 424.5,-386 807.5,-386 807.5,-422"/>
<text text-anchor="middle" x="616" y="-400.3" font-family="Times New Roman,serif" font-size="14.00">¿Aceptas sufrir por los demás por elección o porque es tu deber?</text>
</g>
<!-- j3037959271&#45;&gt;j1215048413 -->
<g id="edge37" class="edge">
<title>j3037959271&#45;&gt;j1215048413</title>
<path fill="none" stroke="black" d="M343.34,-466.06C398.35,-453.74 470.68,-437.54 527.02,-424.93"/>
<polygon fill="black" stroke="black" points="527.6,-428.38 536.59,-422.78 526.07,-421.55 527.6,-428.38"/>
</g>
<!-- j2597920588 -->
<g id="node35" class="node">
<title>j2597920588</title>
<polygon fill="none" stroke="blue" points="654,-602 400,-602 400,-549 654,-549 654,-602"/>
<text text-anchor="middle" x="527" y="-586.8" font-family="Times New Roman,serif" font-size="14.00">Tocado por La Flaca &#13;</text>
<text text-anchor="middle" x="527" y="-571.8" font-family="Times New Roman,serif" font-size="14.00">Otro fantasma, como el resto de nosotros &#13;</text>
<text text-anchor="middle" x="527" y="-556.8" font-family="Times New Roman,serif" font-size="14.00">Experimentando su muerte una y otra vez</text>
</g>
<!-- j2160665714&#45;&gt;j2597920588 -->
<g id="edge38" class="edge">
<title>j2160665714&#45;&gt;j2597920588</title>
<path fill="none" stroke="black" d="M527,-690.54C527,-671 527,-638.77 527,-613.55"/>
<polygon fill="black" stroke="black" points="530.5,-613.69 527,-603.69 523.5,-613.69 530.5,-613.69"/>
</g>
<!-- j123440522&#45;&gt;Chat ends. -->
<g id="edge39" class="edge">
<title>j123440522&#45;&gt;Chat ends.</title>
<path fill="none" stroke="black" d="M1012.55,-619.7C1021.72,-596.86 1033,-562.37 1033,-531 1033,-531 1033,-531 1033,-90 1033,-68.37 1049.67,-51.2 1067.08,-39.16"/>
<polygon fill="black" stroke="black" points="1068.9,-42.15 1075.45,-33.82 1065.14,-36.25 1068.9,-42.15"/>
</g>
<!-- j541409642 -->
<g id="node36" class="node">
<title>j541409642</title>
<polygon fill="none" stroke="blue" points="905.5,-1620 792.5,-1620 792.5,-1584 905.5,-1584 905.5,-1620"/>
<text text-anchor="middle" x="849" y="-1598.3" font-family="Times New Roman,serif" font-size="14.00">Ay, Lua, sálvame</text>
</g>
<!-- j3351203823&#45;&gt;j541409642 -->
<g id="edge40" class="edge">
<title>j3351203823&#45;&gt;j541409642</title>
<path fill="none" stroke="black" d="M877.8,-1656.81C873.51,-1648.79 868.29,-1639.05 863.49,-1630.07"/>
<polygon fill="black" stroke="black" points="866.63,-1628.53 858.83,-1621.36 860.46,-1631.83 866.63,-1628.53"/>
</g>
<!-- j2884757075&#45;&gt;j541409642 -->
<g id="edge41" class="edge">
<title>j2884757075&#45;&gt;j541409642</title>
<path fill="none" stroke="black" d="M636.35,-1656.54C680.45,-1645.44 737.3,-1631.12 781.12,-1620.09"/>
<polygon fill="black" stroke="black" points="781.94,-1623.49 790.78,-1617.66 780.23,-1616.71 781.94,-1623.49"/>
</g>
<!-- j3391286131 -->
<g id="node37" class="node">
<title>j3391286131</title>
<polygon fill="none" stroke="blue" points="1265.5,-1620 1194.5,-1620 1194.5,-1584 1265.5,-1584 1265.5,-1620"/>
<text text-anchor="middle" x="1230" y="-1598.3" font-family="Times New Roman,serif" font-size="14.00">¡JAJAJA!</text>
</g>
<!-- j1238923587&#45;&gt;j3391286131 -->
<g id="edge42" class="edge">
<title>j1238923587&#45;&gt;j3391286131</title>
<path fill="none" stroke="black" d="M1230,-1656.81C1230,-1649.23 1230,-1640.1 1230,-1631.54"/>
<polygon fill="black" stroke="black" points="1233.5,-1631.54 1230,-1621.54 1226.5,-1631.54 1233.5,-1631.54"/>
</g>
<!-- j1179027477 -->
<g id="node38" class="node">
<title>j1179027477</title>
<polygon fill="none" stroke="blue" points="529,-349 27,-349 27,-311 529,-311 529,-349"/>
<text text-anchor="middle" x="278" y="-333.8" font-family="Times New Roman,serif" font-size="14.00">Seguuro, seguuro&#13;</text>
<text text-anchor="middle" x="278" y="-318.8" font-family="Times New Roman,serif" font-size="14.00">Con los juegos de Amir y la bebida de Arthur y la música de Aoi y las fotos de Quincy</text>
</g>
<!-- j4116939323&#45;&gt;j1179027477 -->
<g id="edge43" class="edge">
<title>j4116939323&#45;&gt;j1179027477</title>
<path fill="none" stroke="black" d="M265.12,-385.57C266.9,-378.02 269.04,-368.96 271.05,-360.42"/>
<polygon fill="black" stroke="black" points="274.45,-361.28 273.34,-350.75 267.63,-359.67 274.45,-361.28"/>
</g>
<!-- j738962855 -->
<g id="node39" class="node">
<title>j738962855</title>
<ellipse fill="none" stroke="orange" cx="616" cy="-330" rx="64.19" ry="18"/>
<text text-anchor="middle" x="616" y="-326.3" font-family="Times New Roman,serif" font-size="14.00">+20 Chemistry</text>
</g>
<!-- j1215048413&#45;&gt;j738962855 -->
<g id="edge44" class="edge">
<title>j1215048413&#45;&gt;j738962855</title>
<path fill="none" stroke="black" d="M616,-385.57C616,-377.79 616,-368.41 616,-359.64"/>
<polygon fill="black" stroke="black" points="619.5,-359.78 616,-349.78 612.5,-359.78 619.5,-359.78"/>
</g>
<!-- j1628341310 -->
<g id="node40" class="node">
<title>j1628341310</title>
<polygon fill="none" stroke="blue" points="644.5,-512 409.5,-512 409.5,-459 644.5,-459 644.5,-512"/>
<text text-anchor="middle" x="527" y="-496.8" font-family="Times New Roman,serif" font-size="14.00">Sí &#13;</text>
<text text-anchor="middle" x="527" y="-481.8" font-family="Times New Roman,serif" font-size="14.00">Tengo familia en casa &#13;</text>
<text text-anchor="middle" x="527" y="-466.8" font-family="Times New Roman,serif" font-size="14.00">Mejor que piensen que ya estoy muerta</text>
</g>
<!-- j2597920588&#45;&gt;j1628341310 -->
<g id="edge45" class="edge">
<title>j2597920588&#45;&gt;j1628341310</title>
<path fill="none" stroke="black" d="M527,-548.57C527,-540.79 527,-532.08 527,-523.72"/>
<polygon fill="black" stroke="black" points="530.5,-523.76 527,-513.76 523.5,-523.76 530.5,-523.76"/>
</g>
<!-- j988086022 -->
<g id="node41" class="node">
<title>j988086022</title>
<polygon fill="none" stroke="blue" points="911.5,-1547 786.5,-1547 786.5,-1509 911.5,-1509 911.5,-1547"/>
<text text-anchor="middle" x="849" y="-1531.8" font-family="Times New Roman,serif" font-size="14.00">No &#13;</text>
<text text-anchor="middle" x="849" y="-1516.8" font-family="Times New Roman,serif" font-size="14.00">¿Quieres algo más?</text>
</g>
<!-- j541409642&#45;&gt;j988086022 -->
<g id="edge46" class="edge">
<title>j541409642&#45;&gt;j988086022</title>
<path fill="none" stroke="black" d="M849,-1583.57C849,-1576.1 849,-1567.17 849,-1558.71"/>
<polygon fill="black" stroke="black" points="852.5,-1558.79 849,-1548.79 845.5,-1558.79 852.5,-1558.79"/>
</g>
<!-- j3079729029 -->
<g id="node42" class="node">
<title>j3079729029</title>
<ellipse fill="none" stroke="orange" cx="1230" cy="-1528" rx="64.19" ry="18"/>
<text text-anchor="middle" x="1230" y="-1524.3" font-family="Times New Roman,serif" font-size="14.00">+20 Chemistry</text>
</g>
<!-- j3391286131&#45;&gt;j3079729029 -->
<g id="edge47" class="edge">
<title>j3391286131&#45;&gt;j3079729029</title>
<path fill="none" stroke="black" d="M1230,-1583.57C1230,-1575.79 1230,-1566.41 1230,-1557.64"/>
<polygon fill="black" stroke="black" points="1233.5,-1557.78 1230,-1547.78 1226.5,-1557.78 1233.5,-1557.78"/>
</g>
<!-- j932101326 -->
<g id="node43" class="node">
<title>j932101326</title>
<polygon fill="none" stroke="blue" points="461,-274 247,-274 247,-221 461,-221 461,-274"/>
<text text-anchor="middle" x="354" y="-258.8" font-family="Times New Roman,serif" font-size="14.00">Pasatiempos vacíos &#13;</text>
<text text-anchor="middle" x="354" y="-243.8" font-family="Times New Roman,serif" font-size="14.00">Almas vacías&#13;</text>
<text text-anchor="middle" x="354" y="-228.8" font-family="Times New Roman,serif" font-size="14.00">Para pasar el tiempo en la eternidad</text>
</g>
<!-- j1179027477&#45;&gt;j932101326 -->
<g id="edge48" class="edge">
<title>j1179027477&#45;&gt;j932101326</title>
<path fill="none" stroke="black" d="M295.25,-310.73C303.1,-302.41 312.67,-292.28 321.78,-282.62"/>
<polygon fill="black" stroke="black" points="324.26,-285.1 328.58,-275.42 319.17,-280.29 324.26,-285.1"/>
</g>
<!-- j3190938109 -->
<g id="node44" class="node">
<title>j3190938109</title>
<polygon fill="none" stroke="blue" points="730,-274 502,-274 502,-221 730,-221 730,-274"/>
<text text-anchor="middle" x="616" y="-258.8" font-family="Times New Roman,serif" font-size="14.00">Por ambas razones, creo &#13;</text>
<text text-anchor="middle" x="616" y="-243.8" font-family="Times New Roman,serif" font-size="14.00">Lo decidí hace mucho tiempo &#13;</text>
<text text-anchor="middle" x="616" y="-228.8" font-family="Times New Roman,serif" font-size="14.00">Ahora es demasiado tarde para volver</text>
</g>
<!-- j738962855&#45;&gt;j3190938109 -->
<g id="edge49" class="edge">
<title>j738962855&#45;&gt;j3190938109</title>
<path fill="none" stroke="black" d="M616,-311.53C616,-304.01 616,-294.9 616,-285.98"/>
<polygon fill="black" stroke="black" points="619.5,-286.01 616,-276.01 612.5,-286.01 619.5,-286.01"/>
</g>
<!-- j1628341310&#45;&gt;j4116939323 -->
<g id="edge51" class="edge">
<title>j1628341310&#45;&gt;j4116939323</title>
<path fill="none" stroke="black" d="M440.27,-458.58C404.56,-447.91 363.78,-435.72 330.14,-425.66"/>
<polygon fill="black" stroke="black" points="331.51,-422.42 320.93,-422.91 329.51,-429.13 331.51,-422.42"/>
</g>
<!-- j1628341310&#45;&gt;j1215048413 -->
<g id="edge50" class="edge">
<title>j1628341310&#45;&gt;j1215048413</title>
<path fill="none" stroke="black" d="M555.65,-458.91C566.13,-449.55 577.96,-438.98 588.35,-429.7"/>
<polygon fill="black" stroke="black" points="590.43,-432.54 595.55,-423.26 585.76,-427.32 590.43,-432.54"/>
</g>
<!-- j4124935834 -->
<g id="node45" class="node">
<title>j4124935834</title>
<polygon fill="none" stroke="red" points="837,-1471 783,-1471 783,-1435 837,-1435 837,-1471"/>
<text text-anchor="middle" x="810" y="-1449.3" font-family="Times New Roman,serif" font-size="14.00">Uh...</text>
</g>
<!-- j988086022&#45;&gt;j4124935834 -->
<g id="edge52" class="edge">
<title>j988086022&#45;&gt;j4124935834</title>
<path fill="none" stroke="black" d="M839.16,-1508.58C834.78,-1500.38 829.53,-1490.56 824.7,-1481.52"/>
<polygon fill="black" stroke="black" points="827.81,-1479.92 820.01,-1472.74 821.64,-1483.21 827.81,-1479.92"/>
</g>
<!-- j1355174829 -->
<g id="node46" class="node">
<title>j1355174829</title>
<polygon fill="none" stroke="red" points="991,-1471 905,-1471 905,-1435 991,-1435 991,-1471"/>
<text text-anchor="middle" x="948" y="-1449.3" font-family="Times New Roman,serif" font-size="14.00">No... nada...</text>
</g>
<!-- j988086022&#45;&gt;j1355174829 -->
<g id="edge53" class="edge">
<title>j988086022&#45;&gt;j1355174829</title>
<path fill="none" stroke="black" d="M873.98,-1508.58C886.55,-1499.31 901.93,-1487.97 915.42,-1478.03"/>
<polygon fill="black" stroke="black" points="917.2,-1481.06 923.17,-1472.31 913.05,-1475.43 917.2,-1481.06"/>
</g>
<!-- j3402471551 -->
<g id="node47" class="node">
<title>j3402471551</title>
<polygon fill="none" stroke="blue" points="1355,-1472 1105,-1472 1105,-1434 1355,-1434 1355,-1472"/>
<text text-anchor="middle" x="1230" y="-1456.8" font-family="Times New Roman,serif" font-size="14.00">Nuestro gran salvador también es humilde&#13;</text>
<text text-anchor="middle" x="1230" y="-1441.8" font-family="Times New Roman,serif" font-size="14.00">Eso me gusta</text>
</g>
<!-- j3079729029&#45;&gt;j3402471551 -->
<g id="edge54" class="edge">
<title>j3079729029&#45;&gt;j3402471551</title>
<path fill="none" stroke="black" d="M1230,-1509.7C1230,-1501.99 1230,-1492.68 1230,-1483.9"/>
<polygon fill="black" stroke="black" points="1233.5,-1483.97 1230,-1473.97 1226.5,-1483.97 1233.5,-1483.97"/>
</g>
<!-- j3029489794 -->
<g id="node48" class="node">
<title>j3029489794</title>
<polygon fill="none" stroke="blue" points="507,-184 355,-184 355,-146 507,-146 507,-184"/>
<text text-anchor="middle" x="431" y="-168.8" font-family="Times New Roman,serif" font-size="14.00">Tengo trabajo que hacer&#13;</text>
<text text-anchor="middle" x="431" y="-153.8" font-family="Times New Roman,serif" font-size="14.00">Vete</text>
</g>
<!-- j932101326&#45;&gt;j3029489794 -->
<g id="edge55" class="edge">
<title>j932101326&#45;&gt;j3029489794</title>
<path fill="none" stroke="black" d="M378.79,-220.59C387.32,-211.67 396.88,-201.67 405.47,-192.7"/>
<polygon fill="black" stroke="black" points="407.91,-195.21 412.29,-185.56 402.85,-190.37 407.91,-195.21"/>
</g>
<!-- j366741662 -->
<g id="node49" class="node">
<title>j366741662</title>
<polygon fill="none" stroke="blue" points="689,-183 543,-183 543,-147 689,-147 689,-183"/>
<text text-anchor="middle" x="616" y="-161.3" font-family="Times New Roman,serif" font-size="14.00">Tengo cosas que hacer</text>
</g>
<!-- j3190938109&#45;&gt;j366741662 -->
<g id="edge56" class="edge">
<title>j3190938109&#45;&gt;j366741662</title>
<path fill="none" stroke="black" d="M616,-220.59C616,-212.34 616,-203.17 616,-194.73"/>
<polygon fill="black" stroke="black" points="619.5,-194.99 616,-184.99 612.5,-194.99 619.5,-194.99"/>
</g>
<!-- j4258861838 -->
<g id="node50" class="node">
<title>j4258861838</title>
<ellipse fill="none" stroke="orange" cx="789" cy="-1370.5" rx="153.27" ry="18"/>
<text text-anchor="middle" x="789" y="-1366.8" font-family="Times New Roman,serif" font-size="14.00">Boolean LettieHomeAsked is now true.</text>
</g>
<!-- j4124935834&#45;&gt;j4258861838 -->
<g id="edge57" class="edge">
<title>j4124935834&#45;&gt;j4258861838</title>
<path fill="none" stroke="black" d="M805.44,-1434.53C802.8,-1424.41 799.41,-1411.41 796.4,-1399.85"/>
<polygon fill="black" stroke="black" points="799.84,-1399.19 793.93,-1390.4 793.07,-1400.96 799.84,-1399.19"/>
</g>
<!-- j2547240352 -->
<g id="node51" class="node">
<title>j2547240352</title>
<polygon fill="none" stroke="blue" points="1089,-1326 1035,-1326 1035,-1290 1089,-1290 1089,-1326"/>
<text text-anchor="middle" x="1062" y="-1304.3" font-family="Times New Roman,serif" font-size="14.00">Va</text>
</g>
<!-- j1355174829&#45;&gt;j2547240352 -->
<g id="edge58" class="edge">
<title>j1355174829&#45;&gt;j2547240352</title>
<path fill="none" stroke="black" d="M961.75,-1434.75C981.52,-1409.95 1018.14,-1364.02 1041.22,-1335.07"/>
<polygon fill="black" stroke="black" points="1043.76,-1337.49 1047.26,-1327.49 1038.29,-1333.13 1043.76,-1337.49"/>
</g>
<!-- j355123670 -->
<g id="node52" class="node">
<title>j355123670</title>
<polygon fill="none" stroke="blue" points="1403.5,-1397 1056.5,-1397 1056.5,-1344 1403.5,-1344 1403.5,-1397"/>
<text text-anchor="middle" x="1230" y="-1381.8" font-family="Times New Roman,serif" font-size="14.00">No crecí con mucho dinero cuando era niña &#13;</text>
<text text-anchor="middle" x="1230" y="-1366.8" font-family="Times New Roman,serif" font-size="14.00">Yendo de base en base &#13;</text>
<text text-anchor="middle" x="1230" y="-1351.8" font-family="Times New Roman,serif" font-size="14.00">Las ratas eran fáciles de cuidar, a mi mamá no le importaba</text>
</g>
<!-- j3402471551&#45;&gt;j355123670 -->
<g id="edge59" class="edge">
<title>j3402471551&#45;&gt;j355123670</title>
<path fill="none" stroke="black" d="M1230,-1433.73C1230,-1426.25 1230,-1417.3 1230,-1408.56"/>
<polygon fill="black" stroke="black" points="1233.5,-1408.84 1230,-1398.84 1226.5,-1408.84 1233.5,-1408.84"/>
</g>
<!-- j1253712857 -->
<g id="node53" class="node">
<title>j1253712857</title>
<ellipse fill="none" stroke="orange" cx="616" cy="-91" rx="146.77" ry="18"/>
<text text-anchor="middle" x="616" y="-87.3" font-family="Times New Roman,serif" font-size="14.00">Boolean LettieFantasma1 is now true.</text>
</g>
<!-- j3029489794&#45;&gt;j1253712857 -->
<g id="edge60" class="edge">
<title>j3029489794&#45;&gt;j1253712857</title>
<path fill="none" stroke="black" d="M478.16,-145.65C503.94,-135.61 535.97,-123.15 562.65,-112.76"/>
<polygon fill="black" stroke="black" points="563.89,-116.04 571.94,-109.15 561.35,-109.51 563.89,-116.04"/>
</g>
<!-- j366741662&#45;&gt;j1253712857 -->
<g id="edge61" class="edge">
<title>j366741662&#45;&gt;j1253712857</title>
<path fill="none" stroke="black" d="M616,-146.57C616,-138.79 616,-129.41 616,-120.64"/>
<polygon fill="black" stroke="black" points="619.5,-120.78 616,-110.78 612.5,-120.78 619.5,-120.78"/>
</g>
<!-- j2918424683 -->
<g id="node54" class="node">
<title>j2918424683</title>
<polygon fill="none" stroke="red" points="851.5,-1263.5 654.5,-1263.5 654.5,-1227.5 851.5,-1227.5 851.5,-1263.5"/>
<text text-anchor="middle" x="753" y="-1241.8" font-family="Times New Roman,serif" font-size="14.00">¿Alguien que te extrañe en casa?</text>
</g>
<!-- j4258861838&#45;&gt;j2918424683 -->
<g id="edge62" class="edge">
<title>j4258861838&#45;&gt;j2918424683</title>
<path fill="none" stroke="black" d="M783.92,-1352.14C778.02,-1331.99 768.22,-1298.49 761.23,-1274.62"/>
<polygon fill="black" stroke="black" points="764.65,-1273.84 758.48,-1265.23 757.93,-1275.81 764.65,-1273.84"/>
</g>
<!-- j2547240352&#45;&gt;Chat ends. -->
<g id="edge63" class="edge">
<title>j2547240352&#45;&gt;Chat ends.</title>
<path fill="none" stroke="black" d="M1077.57,-1289.52C1096.23,-1266.72 1125,-1224.77 1125,-1183 1125,-1183 1125,-1183 1125,-90 1125,-75.39 1121.2,-59.65 1117,-46.71"/>
<polygon fill="black" stroke="black" points="1120.41,-45.87 1113.79,-37.59 1113.81,-48.19 1120.41,-45.87"/>
</g>
<!-- j3859940185 -->
<g id="node55" class="node">
<title>j3859940185</title>
<polygon fill="none" stroke="blue" points="1319.5,-1201 1140.5,-1201 1140.5,-1163 1319.5,-1163 1319.5,-1201"/>
<text text-anchor="middle" x="1230" y="-1185.8" font-family="Times New Roman,serif" font-size="14.00">Tengo que regresar a trabajar&#13;</text>
<text text-anchor="middle" x="1230" y="-1170.8" font-family="Times New Roman,serif" font-size="14.00">Nos vemos, babas</text>
</g>
<!-- j355123670&#45;&gt;j3859940185 -->
<g id="edge64" class="edge">
<title>j355123670&#45;&gt;j3859940185</title>
<path fill="none" stroke="black" d="M1230,-1343.57C1230,-1309.22 1230,-1248.77 1230,-1212.65"/>
<polygon fill="black" stroke="black" points="1233.5,-1212.92 1230,-1202.92 1226.5,-1212.92 1233.5,-1212.92"/>
</g>
<!-- j1253712857&#45;&gt;Chat ends. -->
<g id="edge65" class="edge">
<title>j1253712857&#45;&gt;Chat ends.</title>
<path fill="none" stroke="black" d="M708.45,-76.6C808.58,-62.1 965.16,-39.41 1048.8,-27.29"/>
<polygon fill="black" stroke="black" points="1049.21,-30.77 1058.61,-25.87 1048.21,-23.84 1049.21,-30.77"/>
</g>
<!-- j2918424683&#45;&gt;j4087522121 -->
<g id="edge66" class="edge">
<title>j2918424683&#45;&gt;j4087522121</title>
<path fill="none" stroke="black" d="M729.5,-1227.12C703.3,-1207.74 660.36,-1175.98 627.9,-1151.97"/>
<polygon fill="black" stroke="black" points="630.38,-1149.45 620.26,-1146.32 626.22,-1155.08 630.38,-1149.45"/>
</g>
<!-- j3859940185&#45;&gt;Chat ends. -->
<g id="edge67" class="edge">
<title>j3859940185&#45;&gt;Chat ends.</title>
<path fill="none" stroke="black" d="M1220.63,-1162.59C1210.88,-1141.68 1197,-1106.27 1197,-1074 1197,-1074 1197,-1074 1197,-90 1197,-64.63 1174.74,-46.99 1152.24,-35.63"/>
<polygon fill="black" stroke="black" points="1153.88,-32.54 1143.34,-31.49 1150.93,-38.88 1153.88,-32.54"/>
</g>
</g>
</svg>
