<?xml version="1.0" encoding="UTF-8" standalone="no"?>
<!DOCTYPE svg PUBLIC "-//W3C//DTD SVG 1.1//EN"
 "http://www.w3.org/Graphics/SVG/1.1/DTD/svg11.dtd">
<!-- Generated by graphviz version 7.1.0 (20230121.1956)
 -->
<!-- Pages: 1 -->
<svg width="2098pt" height="1762pt"
 viewBox="0.00 0.00 2097.50 1762.00" xmlns="http://www.w3.org/2000/svg" xmlns:xlink="http://www.w3.org/1999/xlink">
<g id="graph0" class="graph" transform="scale(1 1) rotate(0) translate(4 1758)">
<polygon fill="white" stroke="none" points="-4,4 -4,-1758 2093.5,-1758 2093.5,4 -4,4"/>
<!-- LettieRank4Convo2 begins. -->
<g id="node1" class="node">
<title>LettieRank4Convo2 begins.</title>
<ellipse fill="none" stroke="orange" cx="1910.5" cy="-1736" rx="111.58" ry="18"/>
<text text-anchor="middle" x="1910.5" y="-1732.3" font-family="Times New Roman,serif" font-size="14.00">LettieRank4Convo2 begins.</text>
</g>
<!-- j2642253698 -->
<g id="node2" class="node">
<title>j2642253698</title>
<polygon fill="none" stroke="blue" points="2058.5,-1681 1762.5,-1681 1762.5,-1628 2058.5,-1628 2058.5,-1681"/>
<text text-anchor="middle" x="1910.5" y="-1665.8" font-family="Times New Roman,serif" font-size="14.00">Háblame sobre este terrible dios que has desatado&#13;</text>
<text text-anchor="middle" x="1910.5" y="-1650.8" font-family="Times New Roman,serif" font-size="14.00">Tu Xipe Tótec, tu dios desollado&#13;</text>
<text text-anchor="middle" x="1910.5" y="-1635.8" font-family="Times New Roman,serif" font-size="14.00">¿Qué es lo que quiere?</text>
</g>
<!-- LettieRank4Convo2 begins.&#45;&gt;j2642253698 -->
<g id="edge1" class="edge">
<title>LettieRank4Convo2 begins.&#45;&gt;j2642253698</title>
<path fill="none" stroke="black" d="M1910.5,-1717.75C1910.5,-1710.38 1910.5,-1701.48 1910.5,-1692.74"/>
<polygon fill="black" stroke="black" points="1914,-1693 1910.5,-1683 1907,-1693 1914,-1693"/>
</g>
<!-- j1356677054 -->
<g id="node3" class="node">
<title>j1356677054</title>
<ellipse fill="none" stroke="orange" cx="1910.5" cy="-1573" rx="122.38" ry="18"/>
<text text-anchor="middle" x="1910.5" y="-1569.3" font-family="Times New Roman,serif" font-size="14.00">Check boolean LettieReligion2</text>
</g>
<!-- j2642253698&#45;&gt;j1356677054 -->
<g id="edge2" class="edge">
<title>j2642253698&#45;&gt;j1356677054</title>
<path fill="none" stroke="black" d="M1910.5,-1627.91C1910.5,-1619.86 1910.5,-1610.91 1910.5,-1602.66"/>
<polygon fill="black" stroke="black" points="1914,-1602.77 1910.5,-1592.77 1907,-1602.77 1914,-1602.77"/>
</g>
<!-- j374859712 -->
<g id="node4" class="node">
<title>j374859712</title>
<polygon fill="none" stroke="red" points="1621,-1198 1546,-1198 1546,-1162 1621,-1162 1621,-1198"/>
<text text-anchor="middle" x="1583.5" y="-1176.3" font-family="Times New Roman,serif" font-size="14.00">¿Libertad?</text>
</g>
<!-- j1356677054&#45;&gt;j374859712 -->
<g id="edge3" class="edge">
<title>j1356677054&#45;&gt;j374859712</title>
<path fill="none" stroke="green" d="M1910.7,-1554.64C1910.3,-1521.09 1905.44,-1446.12 1872.5,-1395 1812.47,-1301.85 1696.74,-1234.99 1631.42,-1202.75"/>
<polygon fill="green" stroke="green" points="1633.27,-1199.76 1622.75,-1198.53 1630.21,-1206.05 1633.27,-1199.76"/>
<text text-anchor="middle" x="1869.5" y="-1365.8" font-family="Times New Roman,serif" font-size="14.00">true</text>
</g>
<!-- j1735676615 -->
<g id="node5" class="node">
<title>j1735676615</title>
<polygon fill="none" stroke="red" points="1746,-1198 1639,-1198 1639,-1162 1746,-1162 1746,-1198"/>
<text text-anchor="middle" x="1692.5" y="-1176.3" font-family="Times New Roman,serif" font-size="14.00">¿Conocimiento?</text>
</g>
<!-- j1356677054&#45;&gt;j1735676615 -->
<g id="edge4" class="edge">
<title>j1356677054&#45;&gt;j1735676615</title>
<path fill="none" stroke="green" d="M1916.72,-1554.67C1922.26,-1537.67 1929.5,-1510.89 1929.5,-1487 1929.5,-1487 1929.5,-1487 1929.5,-1252 1929.5,-1230.89 1916.89,-1226.38 1898.5,-1216 1874.86,-1202.65 1808.44,-1192.95 1757.35,-1187.19"/>
<polygon fill="green" stroke="green" points="1757.87,-1183.72 1747.55,-1186.11 1757.11,-1190.68 1757.87,-1183.72"/>
<text text-anchor="middle" x="1940.5" y="-1365.8" font-family="Times New Roman,serif" font-size="14.00">true</text>
</g>
<!-- j1893365468 -->
<g id="node6" class="node">
<title>j1893365468</title>
<polygon fill="none" stroke="red" points="1311.5,-1198 1243.5,-1198 1243.5,-1162 1311.5,-1162 1311.5,-1198"/>
<text text-anchor="middle" x="1277.5" y="-1176.3" font-family="Times New Roman,serif" font-size="14.00">No lo sé.</text>
</g>
<!-- j1356677054&#45;&gt;j1893365468 -->
<g id="edge5" class="edge">
<title>j1356677054&#45;&gt;j1893365468</title>
<path fill="none" stroke="green" d="M1791.56,-1568.56C1601.26,-1561.46 1249.5,-1541.02 1249.5,-1487 1249.5,-1487 1249.5,-1487 1249.5,-1252 1249.5,-1236.89 1255.06,-1221.15 1261.22,-1208.34"/>
<polygon fill="green" stroke="green" points="1264.21,-1210.17 1265.73,-1199.69 1258.01,-1206.94 1264.21,-1210.17"/>
<text text-anchor="middle" x="1260.5" y="-1365.8" font-family="Times New Roman,serif" font-size="14.00">true</text>
</g>
<!-- j1648786785 -->
<g id="node7" class="node">
<title>j1648786785</title>
<polygon fill="none" stroke="red" points="2089.5,-1504 1957.5,-1504 1957.5,-1468 2089.5,-1468 2089.5,-1504"/>
<text text-anchor="middle" x="2023.5" y="-1482.3" font-family="Times New Roman,serif" font-size="14.00">Vuelvo pronto [Fin.]</text>
</g>
<!-- j1356677054&#45;&gt;j1648786785 -->
<g id="edge6" class="edge">
<title>j1356677054&#45;&gt;j1648786785</title>
<path fill="none" stroke="green" d="M1932.36,-1554.96C1944.92,-1545.23 1961.03,-1532.84 1975.5,-1522 1980.35,-1518.37 1985.5,-1514.56 1990.56,-1510.85"/>
<polygon fill="green" stroke="green" points="1992.25,-1513.95 1998.26,-1505.22 1988.12,-1508.29 1992.25,-1513.95"/>
<text text-anchor="middle" x="1986.5" y="-1525.8" font-family="Times New Roman,serif" font-size="14.00">true</text>
</g>
<!-- j1356677054&#45;&gt;j1648786785 -->
<g id="edge8" class="edge">
<title>j1356677054&#45;&gt;j1648786785</title>
<path fill="none" stroke="brown" d="M1965.91,-1556.56C1977.25,-1551.61 1988.46,-1545.21 1997.5,-1537 2004.25,-1530.87 2009.53,-1522.58 2013.52,-1514.52"/>
<polygon fill="brown" stroke="brown" points="2016.61,-1516.19 2017.42,-1505.63 2010.2,-1513.38 2016.61,-1516.19"/>
<text text-anchor="middle" x="2021.5" y="-1525.8" font-family="Times New Roman,serif" font-size="14.00">false</text>
</g>
<!-- j2999139587 -->
<g id="node8" class="node">
<title>j2999139587</title>
<polygon fill="none" stroke="red" points="1764,-1504 1577,-1504 1577,-1468 1764,-1468 1764,-1504"/>
<text text-anchor="middle" x="1670.5" y="-1482.3" font-family="Times New Roman,serif" font-size="14.00">¿Eh?, ¿de qué estás hablando?</text>
</g>
<!-- j1356677054&#45;&gt;j2999139587 -->
<g id="edge7" class="edge">
<title>j1356677054&#45;&gt;j2999139587</title>
<path fill="none" stroke="brown" d="M1865.08,-1555.91C1827.03,-1542.44 1772.41,-1523.09 1730.72,-1508.33"/>
<polygon fill="brown" stroke="brown" points="1731.89,-1505.03 1721.3,-1504.99 1729.56,-1511.63 1731.89,-1505.03"/>
<text text-anchor="middle" x="1817.5" y="-1525.8" font-family="Times New Roman,serif" font-size="14.00">false</text>
</g>
<!-- j2318149036 -->
<g id="node9" class="node">
<title>j2318149036</title>
<polygon fill="none" stroke="blue" points="1730,-1125 1443,-1125 1443,-1072 1730,-1072 1730,-1125"/>
<text text-anchor="middle" x="1586.5" y="-1109.8" font-family="Times New Roman,serif" font-size="14.00">Eso crees, pero no lo sabes&#13;</text>
<text text-anchor="middle" x="1586.5" y="-1094.8" font-family="Times New Roman,serif" font-size="14.00">Sus motivos no son claros&#13;</text>
<text text-anchor="middle" x="1586.5" y="-1079.8" font-family="Times New Roman,serif" font-size="14.00">Pero aun así crees que es tu enemigo, ¿por qué?</text>
</g>
<!-- j374859712&#45;&gt;j2318149036 -->
<g id="edge9" class="edge">
<title>j374859712&#45;&gt;j2318149036</title>
<path fill="none" stroke="black" d="M1584.15,-1161.75C1584.43,-1154.38 1584.76,-1145.48 1585.09,-1136.74"/>
<polygon fill="black" stroke="black" points="1588.58,-1137.12 1585.46,-1127 1581.59,-1136.86 1588.58,-1137.12"/>
</g>
<!-- j1735676615&#45;&gt;j2318149036 -->
<g id="edge10" class="edge">
<title>j1735676615&#45;&gt;j2318149036</title>
<path fill="none" stroke="black" d="M1669.24,-1161.55C1657.75,-1152.94 1643.51,-1142.25 1630.09,-1132.19"/>
<polygon fill="black" stroke="black" points="1632.29,-1129.47 1622.19,-1126.27 1628.09,-1135.07 1632.29,-1129.47"/>
</g>
<!-- j2316455146 -->
<g id="node10" class="node">
<title>j2316455146</title>
<polygon fill="none" stroke="blue" points="1397,-1125 1158,-1125 1158,-1072 1397,-1072 1397,-1125"/>
<text text-anchor="middle" x="1277.5" y="-1109.8" font-family="Times New Roman,serif" font-size="14.00">Sin embargo lo tratas como un enemigo&#13;</text>
<text text-anchor="middle" x="1277.5" y="-1094.8" font-family="Times New Roman,serif" font-size="14.00">Si no sabes que es lo busca&#13;</text>
<text text-anchor="middle" x="1277.5" y="-1079.8" font-family="Times New Roman,serif" font-size="14.00">¿Por qué?</text>
</g>
<!-- j1893365468&#45;&gt;j2316455146 -->
<g id="edge11" class="edge">
<title>j1893365468&#45;&gt;j2316455146</title>
<path fill="none" stroke="black" d="M1277.5,-1161.75C1277.5,-1154.38 1277.5,-1145.48 1277.5,-1136.74"/>
<polygon fill="black" stroke="black" points="1281,-1137 1277.5,-1127 1274,-1137 1281,-1137"/>
</g>
<!-- Chat ends. -->
<g id="node11" class="node">
<title>Chat ends.</title>
<ellipse fill="none" stroke="orange" cx="1415.5" cy="-91" rx="50.09" ry="18"/>
<text text-anchor="middle" x="1415.5" y="-87.3" font-family="Times New Roman,serif" font-size="14.00">Chat ends.</text>
</g>
<!-- j1648786785&#45;&gt;Chat ends. -->
<g id="edge12" class="edge">
<title>j1648786785&#45;&gt;Chat ends.</title>
<path fill="none" stroke="black" d="M2023.5,-1467.78C2023.5,-1453.41 2023.5,-1432.37 2023.5,-1414 2023.5,-1414 2023.5,-1414 2023.5,-179 2023.5,-162.08 2018.75,-155.13 2004.5,-146 1960.77,-117.98 1618.3,-100.52 1476.58,-94.43"/>
<polygon fill="black" stroke="black" points="1476.77,-90.94 1466.63,-94.01 1476.47,-97.93 1476.77,-90.94"/>
</g>
<!-- j2681039168 -->
<g id="node12" class="node">
<title>j2681039168</title>
<polygon fill="none" stroke="blue" points="1863.5,-1431 1277.5,-1431 1277.5,-1395 1863.5,-1395 1863.5,-1431"/>
<text text-anchor="middle" x="1570.5" y="-1409.3" font-family="Times New Roman,serif" font-size="14.00">Esta creatura del Vacío que sacrifica a otros y usa su piel como el antiguo dios desollado, Xipe Tótec</text>
</g>
<!-- j2999139587&#45;&gt;j2681039168 -->
<g id="edge13" class="edge">
<title>j2999139587&#45;&gt;j2681039168</title>
<path fill="none" stroke="black" d="M1646.04,-1467.63C1633.45,-1458.69 1617.9,-1447.66 1604.19,-1437.92"/>
<polygon fill="black" stroke="black" points="1606.47,-1435.25 1596.29,-1432.31 1602.42,-1440.95 1606.47,-1435.25"/>
</g>
<!-- j904929901 -->
<g id="node13" class="node">
<title>j904929901</title>
<polygon fill="none" stroke="red" points="1237.5,-1035 515.5,-1035 515.5,-999 1237.5,-999 1237.5,-1035"/>
<text text-anchor="middle" x="876.5" y="-1013.3" font-family="Times New Roman,serif" font-size="14.00">Esa COSA decidió que sería un experimento divertido hacer que los padres en la Zariman se volvieran en contra de sus hijos &#45;</text>
</g>
<!-- j2318149036&#45;&gt;j904929901 -->
<g id="edge14" class="edge">
<title>j2318149036&#45;&gt;j904929901</title>
<path fill="none" stroke="black" d="M1442.63,-1076.61C1430.42,-1074.99 1418.25,-1073.43 1406.5,-1072 1297.87,-1058.78 1176.44,-1046.24 1077.25,-1036.58"/>
<polygon fill="black" stroke="black" points="1077.68,-1033.11 1067.39,-1035.63 1077.01,-1040.08 1077.68,-1033.11"/>
</g>
<!-- j1905907568 -->
<g id="node14" class="node">
<title>j1905907568</title>
<polygon fill="none" stroke="red" points="1951,-1035 1256,-1035 1256,-999 1951,-999 1951,-1035"/>
<text text-anchor="middle" x="1603.5" y="-1013.3" font-family="Times New Roman,serif" font-size="14.00">Todo lo que hace es dejar muerte y destrucción a su paso. No importa cuáles sean sus motivos, eso no importa. Créeme.</text>
</g>
<!-- j2318149036&#45;&gt;j1905907568 -->
<g id="edge15" class="edge">
<title>j2318149036&#45;&gt;j1905907568</title>
<path fill="none" stroke="black" d="M1591.97,-1071.91C1593.71,-1063.76 1595.65,-1054.71 1597.43,-1046.38"/>
<polygon fill="black" stroke="black" points="1600.82,-1047.25 1599.49,-1036.74 1593.98,-1045.78 1600.82,-1047.25"/>
</g>
<!-- j2316455146&#45;&gt;j904929901 -->
<g id="edge16" class="edge">
<title>j2316455146&#45;&gt;j904929901</title>
<path fill="none" stroke="black" d="M1157.73,-1073.76C1099.65,-1062.24 1030.72,-1048.58 975.64,-1037.66"/>
<polygon fill="black" stroke="black" points="976.44,-1034.24 965.95,-1035.73 975.07,-1041.11 976.44,-1034.24"/>
</g>
<!-- j2316455146&#45;&gt;j1905907568 -->
<g id="edge17" class="edge">
<title>j2316455146&#45;&gt;j1905907568</title>
<path fill="none" stroke="black" d="M1383.79,-1071.58C1428.31,-1060.72 1479.28,-1048.29 1520.9,-1038.14"/>
<polygon fill="black" stroke="black" points="1521.47,-1041.61 1530.36,-1035.84 1519.81,-1034.81 1521.47,-1041.61"/>
</g>
<!-- j1459480399 -->
<g id="node15" class="node">
<title>j1459480399</title>
<ellipse fill="none" stroke="orange" cx="1571.5" cy="-1326" rx="141.88" ry="18"/>
<text text-anchor="middle" x="1571.5" y="-1322.3" font-family="Times New Roman,serif" font-size="14.00">Boolean LettieReligion2 is now true.</text>
</g>
<!-- j2681039168&#45;&gt;j1459480399 -->
<g id="edge18" class="edge">
<title>j2681039168&#45;&gt;j1459480399</title>
<path fill="none" stroke="black" d="M1570.7,-1394.8C1570.83,-1383.58 1571.01,-1368.67 1571.16,-1355.69"/>
<polygon fill="black" stroke="black" points="1574.66,-1356.02 1571.28,-1345.98 1567.66,-1355.94 1574.66,-1356.02"/>
</g>
<!-- j958263013 -->
<g id="node16" class="node">
<title>j958263013</title>
<polygon fill="none" stroke="red" points="1314,-962 439,-962 439,-926 1314,-926 1314,-962"/>
<text text-anchor="middle" x="876.5" y="-940.3" font-family="Times New Roman,serif" font-size="14.00">Y luego le dio a los niños poderes mágicos del Vacío para que así pudieran asesinar a sus propios padres para que así APRENDIERAN de una masacre.</text>
</g>
<!-- j904929901&#45;&gt;j958263013 -->
<g id="edge19" class="edge">
<title>j904929901&#45;&gt;j958263013</title>
<path fill="none" stroke="black" d="M876.5,-998.81C876.5,-991.23 876.5,-982.1 876.5,-973.54"/>
<polygon fill="black" stroke="black" points="880,-973.54 876.5,-963.54 873,-973.54 880,-973.54"/>
</g>
<!-- j1109527455 -->
<g id="node17" class="node">
<title>j1109527455</title>
<polygon fill="none" stroke="blue" points="1729.5,-908 1477.5,-908 1477.5,-840 1729.5,-840 1729.5,-908"/>
<text text-anchor="middle" x="1603.5" y="-892.8" font-family="Times New Roman,serif" font-size="14.00">No&#13;</text>
<text text-anchor="middle" x="1603.5" y="-877.8" font-family="Times New Roman,serif" font-size="14.00">¿Crees que entiendes la mente de un dios?&#13;</text>
<text text-anchor="middle" x="1603.5" y="-862.8" font-family="Times New Roman,serif" font-size="14.00">No importa que tanto hayas vivido&#13;</text>
<text text-anchor="middle" x="1603.5" y="-847.8" font-family="Times New Roman,serif" font-size="14.00">O que tanto hayas visto</text>
</g>
<!-- j1905907568&#45;&gt;j1109527455 -->
<g id="edge20" class="edge">
<title>j1905907568&#45;&gt;j1109527455</title>
<path fill="none" stroke="black" d="M1603.5,-998.71C1603.5,-979.17 1603.5,-946.6 1603.5,-919.78"/>
<polygon fill="black" stroke="black" points="1607,-919.83 1603.5,-909.83 1600,-919.83 1607,-919.83"/>
</g>
<!-- j1736756101 -->
<g id="node18" class="node">
<title>j1736756101</title>
<polygon fill="none" stroke="blue" points="1620,-1271 1531,-1271 1531,-1235 1620,-1235 1620,-1271"/>
<text text-anchor="middle" x="1575.5" y="-1249.3" font-family="Times New Roman,serif" font-size="14.00">¿Qué quiere?</text>
</g>
<!-- j1459480399&#45;&gt;j1736756101 -->
<g id="edge21" class="edge">
<title>j1459480399&#45;&gt;j1736756101</title>
<path fill="none" stroke="black" d="M1572.47,-1307.81C1572.9,-1300.14 1573.42,-1290.89 1573.91,-1282.24"/>
<polygon fill="black" stroke="black" points="1577.39,-1282.72 1574.46,-1272.54 1570.4,-1282.33 1577.39,-1282.72"/>
</g>
<!-- j3780370853 -->
<g id="node19" class="node">
<title>j3780370853</title>
<polygon fill="none" stroke="red" points="1561.5,-822 869.5,-822 869.5,-786 1561.5,-786 1561.5,-822"/>
<text text-anchor="middle" x="1215.5" y="-800.3" font-family="Times New Roman,serif" font-size="14.00">Tuvo la oportunidad de aprender del amor, del sacrificio, de la bondad. Pero parece ELEGIR buscar el caos y la muerte.</text>
</g>
<!-- j958263013&#45;&gt;j3780370853 -->
<g id="edge22" class="edge">
<title>j958263013&#45;&gt;j3780370853</title>
<path fill="none" stroke="black" d="M919.43,-925.52C981.25,-900.36 1095.23,-853.96 1162.3,-826.66"/>
<polygon fill="black" stroke="black" points="1163.3,-830.03 1171.25,-823.02 1160.66,-823.54 1163.3,-830.03"/>
</g>
<!-- j4022985286 -->
<g id="node20" class="node">
<title>j4022985286</title>
<polygon fill="none" stroke="red" points="851,-822 0,-822 0,-786 851,-786 851,-822"/>
<text text-anchor="middle" x="425.5" y="-800.3" font-family="Times New Roman,serif" font-size="14.00">Aunque se trate de un niño rompiendo sus juguetes para entender el mundo que lo rodea, nosotros somos esos juguetes. Alguien lo tiene que detener.</text>
</g>
<!-- j958263013&#45;&gt;j4022985286 -->
<g id="edge23" class="edge">
<title>j958263013&#45;&gt;j4022985286</title>
<path fill="none" stroke="black" d="M819.38,-925.52C736.22,-900.07 582.06,-852.91 493.27,-825.74"/>
<polygon fill="black" stroke="black" points="494.54,-822.47 483.96,-822.89 492.5,-829.16 494.54,-822.47"/>
</g>
<!-- j2154935428 -->
<g id="node21" class="node">
<title>j2154935428</title>
<ellipse fill="none" stroke="orange" cx="1603.5" cy="-425" rx="111.28" ry="18"/>
<text text-anchor="middle" x="1603.5" y="-421.3" font-family="Times New Roman,serif" font-size="14.00">Check boolean LettieEntrati</text>
</g>
<!-- j1109527455&#45;&gt;j2154935428 -->
<g id="edge24" class="edge">
<title>j1109527455&#45;&gt;j2154935428</title>
<path fill="none" stroke="black" d="M1603.5,-839.9C1603.5,-819.23 1603.5,-792.06 1603.5,-768 1603.5,-768 1603.5,-768 1603.5,-511 1603.5,-492.12 1603.5,-470.88 1603.5,-454.35"/>
<polygon fill="black" stroke="black" points="1607,-454.77 1603.5,-444.77 1600,-454.77 1607,-454.77"/>
</g>
<!-- j1736756101&#45;&gt;j374859712 -->
<g id="edge25" class="edge">
<title>j1736756101&#45;&gt;j374859712</title>
<path fill="none" stroke="black" d="M1577.44,-1234.81C1578.3,-1227.14 1579.34,-1217.89 1580.32,-1209.24"/>
<polygon fill="black" stroke="black" points="1583.77,-1209.86 1581.41,-1199.53 1576.81,-1209.08 1583.77,-1209.86"/>
</g>
<!-- j1736756101&#45;&gt;j1735676615 -->
<g id="edge26" class="edge">
<title>j1736756101&#45;&gt;j1735676615</title>
<path fill="none" stroke="black" d="M1604.12,-1234.63C1619.14,-1225.52 1637.74,-1214.23 1654,-1204.36"/>
<polygon fill="black" stroke="black" points="1655.74,-1207.4 1662.47,-1199.22 1652.11,-1201.42 1655.74,-1207.4"/>
</g>
<!-- j1736756101&#45;&gt;j1893365468 -->
<g id="edge27" class="edge">
<title>j1736756101&#45;&gt;j1893365468</title>
<path fill="none" stroke="black" d="M1530.56,-1241.29C1474.43,-1227.92 1378.95,-1205.17 1322.7,-1191.77"/>
<polygon fill="black" stroke="black" points="1323.67,-1188.4 1313.13,-1189.49 1322.04,-1195.21 1323.67,-1188.4"/>
</g>
<!-- j3334957263 -->
<g id="node22" class="node">
<title>j3334957263</title>
<polygon fill="none" stroke="red" points="1558.5,-749 842.5,-749 842.5,-713 1558.5,-713 1558.5,-749"/>
<text text-anchor="middle" x="1200.5" y="-727.3" font-family="Times New Roman,serif" font-size="14.00">Seguiré manteniendo la esperanza de que no es un enemigo, pero... no me está dando muchos motivos para pensar que lo es.</text>
</g>
<!-- j3780370853&#45;&gt;j3334957263 -->
<g id="edge28" class="edge">
<title>j3780370853&#45;&gt;j3334957263</title>
<path fill="none" stroke="black" d="M1211.87,-785.81C1210.25,-778.14 1208.29,-768.89 1206.47,-760.24"/>
<polygon fill="black" stroke="black" points="1209.9,-759.57 1204.41,-750.51 1203.05,-761.02 1209.9,-759.57"/>
</g>
<!-- j3682827568 -->
<g id="node23" class="node">
<title>j3682827568</title>
<polygon fill="none" stroke="red" points="758,-749 221,-749 221,-713 758,-713 758,-749"/>
<text text-anchor="middle" x="489.5" y="-727.3" font-family="Times New Roman,serif" font-size="14.00">Me niego a pensar que es bueno después de todo lo que vi. Después de todo lo que me hizo.</text>
</g>
<!-- j4022985286&#45;&gt;j3682827568 -->
<g id="edge29" class="edge">
<title>j4022985286&#45;&gt;j3682827568</title>
<path fill="none" stroke="black" d="M440.99,-785.81C448.7,-777.27 458.16,-766.77 466.67,-757.32"/>
<polygon fill="black" stroke="black" points="469.04,-759.92 473.14,-750.15 463.84,-755.24 469.04,-759.92"/>
</g>
<!-- j365527357 -->
<g id="node24" class="node">
<title>j365527357</title>
<polygon fill="none" stroke="blue" points="1580,-285 1251,-285 1251,-232 1580,-232 1580,-285"/>
<text text-anchor="middle" x="1415.5" y="-269.8" font-family="Times New Roman,serif" font-size="14.00">Tú no eres un dios, babas&#13;</text>
<text text-anchor="middle" x="1415.5" y="-254.8" font-family="Times New Roman,serif" font-size="14.00">No creas pensar como uno&#13;</text>
<text text-anchor="middle" x="1415.5" y="-239.8" font-family="Times New Roman,serif" font-size="14.00">De lo contrario no eres mejor que ese cabrón del Entrati</text>
</g>
<!-- j2154935428&#45;&gt;j365527357 -->
<g id="edge30" class="edge">
<title>j2154935428&#45;&gt;j365527357</title>
<path fill="none" stroke="green" d="M1563.99,-407.71C1538.53,-395.9 1505.77,-378.15 1481.5,-356 1462.48,-338.64 1446.1,-314.78 1434.41,-295.13"/>
<polygon fill="green" stroke="green" points="1437.53,-293.52 1429.5,-286.61 1431.46,-297.02 1437.53,-293.52"/>
<text text-anchor="middle" x="1536.5" y="-377.8" font-family="Times New Roman,serif" font-size="14.00">true</text>
</g>
<!-- j2834367091 -->
<g id="node25" class="node">
<title>j2834367091</title>
<ellipse fill="none" stroke="orange" cx="1603.5" cy="-329.5" rx="113.18" ry="18"/>
<text text-anchor="middle" x="1603.5" y="-325.8" font-family="Times New Roman,serif" font-size="14.00">Check boolean LettieOrokin</text>
</g>
<!-- j2154935428&#45;&gt;j2834367091 -->
<g id="edge31" class="edge">
<title>j2154935428&#45;&gt;j2834367091</title>
<path fill="none" stroke="brown" d="M1603.5,-406.85C1603.5,-393.49 1603.5,-374.65 1603.5,-359.03"/>
<polygon fill="brown" stroke="brown" points="1607,-359.37 1603.5,-349.37 1600,-359.37 1607,-359.37"/>
<text text-anchor="middle" x="1616.5" y="-377.8" font-family="Times New Roman,serif" font-size="14.00">false</text>
</g>
<!-- j2176985155 -->
<g id="node26" class="node">
<title>j2176985155</title>
<polygon fill="none" stroke="blue" points="1010.5,-676 770.5,-676 770.5,-640 1010.5,-640 1010.5,-676"/>
<text text-anchor="middle" x="890.5" y="-654.3" font-family="Times New Roman,serif" font-size="14.00">Y tú crees que puedes detener a un dios</text>
</g>
<!-- j3334957263&#45;&gt;j2176985155 -->
<g id="edge32" class="edge">
<title>j3334957263&#45;&gt;j2176985155</title>
<path fill="none" stroke="black" d="M1124.27,-712.54C1079.97,-702.39 1023.97,-689.57 977.89,-679.02"/>
<polygon fill="black" stroke="black" points="978.71,-675.61 968.18,-676.79 977.15,-682.44 978.71,-675.61"/>
</g>
<!-- j3682827568&#45;&gt;j2176985155 -->
<g id="edge33" class="edge">
<title>j3682827568&#45;&gt;j2176985155</title>
<path fill="none" stroke="black" d="M588.11,-712.54C646.51,-702.2 720.61,-689.08 780.85,-678.42"/>
<polygon fill="black" stroke="black" points="781.2,-681.91 790.43,-676.72 779.98,-675.01 781.2,-681.91"/>
</g>
<!-- j365527357&#45;&gt;Chat ends. -->
<g id="edge34" class="edge">
<title>j365527357&#45;&gt;Chat ends.</title>
<path fill="none" stroke="black" d="M1415.5,-231.64C1415.5,-201.46 1415.5,-151.72 1415.5,-120.47"/>
<polygon fill="black" stroke="black" points="1419,-120.6 1415.5,-110.6 1412,-120.6 1419,-120.6"/>
</g>
<!-- j492326312 -->
<g id="node27" class="node">
<title>j492326312</title>
<polygon fill="none" stroke="blue" points="1995,-206.5 1630,-206.5 1630,-153.5 1995,-153.5 1995,-206.5"/>
<text text-anchor="middle" x="1812.5" y="-191.3" font-family="Times New Roman,serif" font-size="14.00">Tú no eres un dios, babas&#13;</text>
<text text-anchor="middle" x="1812.5" y="-176.3" font-family="Times New Roman,serif" font-size="14.00">No creas pensar como uno&#13;</text>
<text text-anchor="middle" x="1812.5" y="-161.3" font-family="Times New Roman,serif" font-size="14.00">De lo contrario no eres mejor que esos cabrones de los orokin</text>
</g>
<!-- j2834367091&#45;&gt;j492326312 -->
<g id="edge35" class="edge">
<title>j2834367091&#45;&gt;j492326312</title>
<path fill="none" stroke="green" d="M1627.47,-311.58C1661.27,-287.73 1723.57,-243.77 1766.47,-213.48"/>
<polygon fill="green" stroke="green" points="1768.46,-216.36 1774.62,-207.74 1764.43,-210.64 1768.46,-216.36"/>
<text text-anchor="middle" x="1749.5" y="-254.8" font-family="Times New Roman,serif" font-size="14.00">true</text>
</g>
<!-- j2524938020 -->
<g id="node28" class="node">
<title>j2524938020</title>
<polygon fill="none" stroke="blue" points="1611.5,-199 1443.5,-199 1443.5,-161 1611.5,-161 1611.5,-199"/>
<text text-anchor="middle" x="1527.5" y="-183.8" font-family="Times New Roman,serif" font-size="14.00">Tú no eres un dios, babas&#13;</text>
<text text-anchor="middle" x="1527.5" y="-168.8" font-family="Times New Roman,serif" font-size="14.00">No creas pensar como uno</text>
</g>
<!-- j2834367091&#45;&gt;j2524938020 -->
<g id="edge36" class="edge">
<title>j2834367091&#45;&gt;j2524938020</title>
<path fill="none" stroke="brown" d="M1602.56,-311.02C1600.82,-290.79 1595.82,-257.07 1581.5,-232 1576.24,-222.79 1568.78,-214.23 1561.09,-206.86"/>
<polygon fill="brown" stroke="brown" points="1563.64,-204.45 1553.86,-200.36 1558.96,-209.65 1563.64,-204.45"/>
<text text-anchor="middle" x="1611.5" y="-254.8" font-family="Times New Roman,serif" font-size="14.00">false</text>
</g>
<!-- j1724044313 -->
<g id="node29" class="node">
<title>j1724044313</title>
<ellipse fill="none" stroke="orange" cx="890.5" cy="-585" rx="141.88" ry="18"/>
<text text-anchor="middle" x="890.5" y="-581.3" font-family="Times New Roman,serif" font-size="14.00">Boolean LettieReligion4 is now true.</text>
</g>
<!-- j2176985155&#45;&gt;j1724044313 -->
<g id="edge37" class="edge">
<title>j2176985155&#45;&gt;j1724044313</title>
<path fill="none" stroke="black" d="M890.5,-639.81C890.5,-632.23 890.5,-623.1 890.5,-614.54"/>
<polygon fill="black" stroke="black" points="894,-614.54 890.5,-604.54 887,-614.54 894,-614.54"/>
</g>
<!-- j492326312&#45;&gt;Chat ends. -->
<g id="edge38" class="edge">
<title>j492326312&#45;&gt;Chat ends.</title>
<path fill="none" stroke="black" d="M1693.92,-153.01C1618.95,-136.59 1525.72,-116.15 1468.43,-103.6"/>
<polygon fill="black" stroke="black" points="1469.46,-100.24 1458.94,-101.52 1467.96,-107.08 1469.46,-100.24"/>
</g>
<!-- j2524938020&#45;&gt;Chat ends. -->
<g id="edge39" class="edge">
<title>j2524938020&#45;&gt;Chat ends.</title>
<path fill="none" stroke="black" d="M1503.75,-160.55C1486.58,-147.21 1463.27,-129.11 1444.92,-114.86"/>
<polygon fill="black" stroke="black" points="1447.08,-112.1 1437.03,-108.73 1442.78,-117.63 1447.08,-112.1"/>
</g>
<!-- j4029075512 -->
<g id="node30" class="node">
<title>j4029075512</title>
<ellipse fill="none" stroke="orange" cx="890.5" cy="-512" rx="116.98" ry="18"/>
<text text-anchor="middle" x="890.5" y="-508.3" font-family="Times New Roman,serif" font-size="14.00">Check boolean ReligionNone</text>
</g>
<!-- j1724044313&#45;&gt;j4029075512 -->
<g id="edge40" class="edge">
<title>j1724044313&#45;&gt;j4029075512</title>
<path fill="none" stroke="black" d="M890.5,-566.81C890.5,-559.23 890.5,-550.1 890.5,-541.54"/>
<polygon fill="black" stroke="black" points="894,-541.54 890.5,-531.54 887,-541.54 894,-541.54"/>
</g>
<!-- j2253716576 -->
<g id="node31" class="node">
<title>j2253716576</title>
<polygon fill="none" stroke="red" points="1334.5,-443 1060.5,-443 1060.5,-407 1334.5,-407 1334.5,-443"/>
<text text-anchor="middle" x="1197.5" y="-421.3" font-family="Times New Roman,serif" font-size="14.00">No tengo idea. Tiendo a ir con la corriente. lol</text>
</g>
<!-- j4029075512&#45;&gt;j2253716576 -->
<g id="edge41" class="edge">
<title>j4029075512&#45;&gt;j2253716576</title>
<path fill="none" stroke="green" d="M945.74,-495.71C995.4,-481.96 1068.74,-461.65 1123.47,-446.5"/>
<polygon fill="green" stroke="green" points="1124.34,-449.89 1133.04,-443.85 1122.47,-443.14 1124.34,-449.89"/>
<text text-anchor="middle" x="1072.5" y="-464.8" font-family="Times New Roman,serif" font-size="14.00">true</text>
</g>
<!-- j4176886207 -->
<g id="node32" class="node">
<title>j4176886207</title>
<polygon fill="none" stroke="red" points="949.5,-443 453.5,-443 453.5,-407 949.5,-407 949.5,-443"/>
<text text-anchor="middle" x="701.5" y="-421.3" font-family="Times New Roman,serif" font-size="14.00">Creo que lo puedo intentar. Como lo hice aquí. Y eso es todo lo que podemos hacer.</text>
</g>
<!-- j4029075512&#45;&gt;j4176886207 -->
<g id="edge42" class="edge">
<title>j4029075512&#45;&gt;j4176886207</title>
<path fill="none" stroke="green" d="M854.06,-494.61C824.54,-481.33 782.67,-462.51 750.27,-447.93"/>
<polygon fill="green" stroke="green" points="752.04,-444.89 741.48,-443.98 749.17,-451.28 752.04,-444.89"/>
<text text-anchor="middle" x="817.5" y="-464.8" font-family="Times New Roman,serif" font-size="14.00">true</text>
</g>
<!-- j1918441211 -->
<g id="node33" class="node">
<title>j1918441211</title>
<polygon fill="none" stroke="red" points="435.5,-443 1.5,-443 1.5,-407 435.5,-407 435.5,-443"/>
<text text-anchor="middle" x="218.5" y="-421.3" font-family="Times New Roman,serif" font-size="14.00">Ahora depende de los demás. Mi lugar es aquí en 1999 con todos ustedes.</text>
</g>
<!-- j4029075512&#45;&gt;j1918441211 -->
<g id="edge43" class="edge">
<title>j4029075512&#45;&gt;j1918441211</title>
<path fill="none" stroke="green" d="M802.3,-499.84C691.9,-485.88 501.14,-461.75 367.82,-444.89"/>
<polygon fill="green" stroke="green" points="368.58,-441.46 358.22,-443.67 367.7,-448.4 368.58,-441.46"/>
<text text-anchor="middle" x="605.5" y="-464.8" font-family="Times New Roman,serif" font-size="14.00">true</text>
</g>
<!-- j2330493231 -->
<g id="node34" class="node">
<title>j2330493231</title>
<polygon fill="none" stroke="red" points="1039,-443 968,-443 968,-407 1039,-407 1039,-443"/>
<text text-anchor="middle" x="1003.5" y="-421.3" font-family="Times New Roman,serif" font-size="14.00">Tengo fe.</text>
</g>
<!-- j4029075512&#45;&gt;j2330493231 -->
<g id="edge44" class="edge">
<title>j4029075512&#45;&gt;j2330493231</title>
<path fill="none" stroke="brown" d="M913.1,-494C929.85,-481.4 952.9,-464.06 971.54,-450.04"/>
<polygon fill="brown" stroke="brown" points="973.46,-452.98 979.35,-444.17 969.25,-447.38 973.46,-452.98"/>
<text text-anchor="middle" x="966.5" y="-464.8" font-family="Times New Roman,serif" font-size="14.00">false</text>
</g>
<!-- j1627574773 -->
<g id="node35" class="node">
<title>j1627574773</title>
<ellipse fill="none" stroke="orange" cx="1212.5" cy="-329.5" rx="64.19" ry="18"/>
<text text-anchor="middle" x="1212.5" y="-325.8" font-family="Times New Roman,serif" font-size="14.00">+20 Chemistry</text>
</g>
<!-- j2253716576&#45;&gt;j1627574773 -->
<g id="edge45" class="edge">
<title>j2253716576&#45;&gt;j1627574773</title>
<path fill="none" stroke="black" d="M1200.25,-406.85C1202.39,-393.49 1205.42,-374.65 1207.92,-359.03"/>
<polygon fill="black" stroke="black" points="1211.35,-359.78 1209.48,-349.35 1204.44,-358.67 1211.35,-359.78"/>
</g>
<!-- j698975856 -->
<g id="node36" class="node">
<title>j698975856</title>
<ellipse fill="none" stroke="orange" cx="701.5" cy="-329.5" rx="64.19" ry="18"/>
<text text-anchor="middle" x="701.5" y="-325.8" font-family="Times New Roman,serif" font-size="14.00">+20 Chemistry</text>
</g>
<!-- j4176886207&#45;&gt;j698975856 -->
<g id="edge46" class="edge">
<title>j4176886207&#45;&gt;j698975856</title>
<path fill="none" stroke="black" d="M701.5,-406.85C701.5,-393.49 701.5,-374.65 701.5,-359.03"/>
<polygon fill="black" stroke="black" points="705,-359.37 701.5,-349.37 698,-359.37 705,-359.37"/>
</g>
<!-- j2831675935 -->
<g id="node37" class="node">
<title>j2831675935</title>
<polygon fill="none" stroke="blue" points="422.5,-356 14.5,-356 14.5,-303 422.5,-303 422.5,-356"/>
<text text-anchor="middle" x="218.5" y="-340.8" font-family="Times New Roman,serif" font-size="14.00">Estás bromeando, ¿verdad? &#13;</text>
<text text-anchor="middle" x="218.5" y="-325.8" font-family="Times New Roman,serif" font-size="14.00">En el momento en el que te llamen vas a salir corriendo&#13;</text>
<text text-anchor="middle" x="218.5" y="-310.8" font-family="Times New Roman,serif" font-size="14.00">Eres un Viajero, un soldado, irás a salvar el futuro cuando te necesiten</text>
</g>
<!-- j1918441211&#45;&gt;j2831675935 -->
<g id="edge47" class="edge">
<title>j1918441211&#45;&gt;j2831675935</title>
<path fill="none" stroke="black" d="M218.5,-406.85C218.5,-395.92 218.5,-381.33 218.5,-367.83"/>
<polygon fill="black" stroke="black" points="222,-367.88 218.5,-357.88 215,-367.88 222,-367.88"/>
</g>
<!-- j4231745294 -->
<g id="node38" class="node">
<title>j4231745294</title>
<ellipse fill="none" stroke="orange" cx="977.5" cy="-329.5" rx="64.19" ry="18"/>
<text text-anchor="middle" x="977.5" y="-325.8" font-family="Times New Roman,serif" font-size="14.00">+20 Chemistry</text>
</g>
<!-- j2330493231&#45;&gt;j4231745294 -->
<g id="edge48" class="edge">
<title>j2330493231&#45;&gt;j4231745294</title>
<path fill="none" stroke="black" d="M998.73,-406.85C994.98,-393.36 989.67,-374.28 985.31,-358.57"/>
<polygon fill="black" stroke="black" points="988.78,-358.01 982.73,-349.32 982.04,-359.89 988.78,-358.01"/>
</g>
<!-- j1852966388 -->
<g id="node39" class="node">
<title>j1852966388</title>
<polygon fill="none" stroke="blue" points="1387.5,-214 1101.5,-214 1101.5,-146 1387.5,-146 1387.5,-214"/>
<text text-anchor="middle" x="1244.5" y="-198.8" font-family="Times New Roman,serif" font-size="14.00">Jaja, sí &#13;</text>
<text text-anchor="middle" x="1244.5" y="-183.8" font-family="Times New Roman,serif" font-size="14.00">Te entiendo&#13;</text>
<text text-anchor="middle" x="1244.5" y="-168.8" font-family="Times New Roman,serif" font-size="14.00">Se agradece la honestidad, babas &#13;</text>
<text text-anchor="middle" x="1244.5" y="-153.8" font-family="Times New Roman,serif" font-size="14.00">Parece ser que te funciona, así que no te juzgaré</text>
</g>
<!-- j1627574773&#45;&gt;j1852966388 -->
<g id="edge49" class="edge">
<title>j1627574773&#45;&gt;j1852966388</title>
<path fill="none" stroke="black" d="M1216.23,-311.29C1220.77,-290.36 1228.61,-254.24 1234.88,-225.34"/>
<polygon fill="black" stroke="black" points="1238.26,-226.25 1236.96,-215.74 1231.42,-224.77 1238.26,-226.25"/>
</g>
<!-- j2009602355 -->
<g id="node40" class="node">
<title>j2009602355</title>
<polygon fill="none" stroke="blue" points="835,-199 568,-199 568,-161 835,-161 835,-199"/>
<text text-anchor="middle" x="701.5" y="-183.8" font-family="Times New Roman,serif" font-size="14.00">Sí&#13;</text>
<text text-anchor="middle" x="701.5" y="-168.8" font-family="Times New Roman,serif" font-size="14.00">Eso es todo lo que podemos pedir, supongo</text>
</g>
<!-- j698975856&#45;&gt;j2009602355 -->
<g id="edge50" class="edge">
<title>j698975856&#45;&gt;j2009602355</title>
<path fill="none" stroke="black" d="M701.5,-311C701.5,-286.32 701.5,-240.94 701.5,-210.87"/>
<polygon fill="black" stroke="black" points="705,-210.91 701.5,-200.91 698,-210.91 705,-210.91"/>
</g>
<!-- j317853917 -->
<g id="node41" class="node">
<title>j317853917</title>
<polygon fill="none" stroke="blue" points="390.5,-206.5 46.5,-206.5 46.5,-153.5 390.5,-153.5 390.5,-206.5"/>
<text text-anchor="middle" x="218.5" y="-191.3" font-family="Times New Roman,serif" font-size="14.00">Estamos atrapados aquí&#13;</text>
<text text-anchor="middle" x="218.5" y="-176.3" font-family="Times New Roman,serif" font-size="14.00">No me mientas o me digas que me llevarás a pasear, babas&#13;</text>
<text text-anchor="middle" x="218.5" y="-161.3" font-family="Times New Roman,serif" font-size="14.00">Algún día escaparás y nunca regresaras</text>
</g>
<!-- j2831675935&#45;&gt;j317853917 -->
<g id="edge51" class="edge">
<title>j2831675935&#45;&gt;j317853917</title>
<path fill="none" stroke="black" d="M218.5,-302.81C218.5,-279.47 218.5,-244.77 218.5,-218.37"/>
<polygon fill="black" stroke="black" points="222,-218.41 218.5,-208.41 215,-218.41 222,-218.41"/>
</g>
<!-- j101637038 -->
<g id="node42" class="node">
<title>j101637038</title>
<polygon fill="none" stroke="blue" points="1083.5,-206.5 853.5,-206.5 853.5,-153.5 1083.5,-153.5 1083.5,-206.5"/>
<text text-anchor="middle" x="968.5" y="-191.3" font-family="Times New Roman,serif" font-size="14.00">Ay, sí &#13;</text>
<text text-anchor="middle" x="968.5" y="-176.3" font-family="Times New Roman,serif" font-size="14.00">No importa en que tengas fe, supongo&#13;</text>
<text text-anchor="middle" x="968.5" y="-161.3" font-family="Times New Roman,serif" font-size="14.00">Siempre y cuando eso te ayude</text>
</g>
<!-- j4231745294&#45;&gt;j101637038 -->
<g id="edge52" class="edge">
<title>j4231745294&#45;&gt;j101637038</title>
<path fill="none" stroke="black" d="M976.45,-311.29C975.06,-288.55 972.58,-247.88 970.76,-218.01"/>
<polygon fill="black" stroke="black" points="974.27,-218.03 970.16,-208.26 967.28,-218.46 974.27,-218.03"/>
</g>
<!-- j1852966388&#45;&gt;Chat ends. -->
<g id="edge53" class="edge">
<title>j1852966388&#45;&gt;Chat ends.</title>
<path fill="none" stroke="black" d="M1310.12,-145.61C1332.8,-134.08 1357.45,-121.54 1377.2,-111.49"/>
<polygon fill="black" stroke="black" points="1378.66,-114.67 1385.99,-107.02 1375.49,-108.43 1378.66,-114.67"/>
</g>
<!-- j2009602355&#45;&gt;Chat ends. -->
<g id="edge54" class="edge">
<title>j2009602355&#45;&gt;Chat ends.</title>
<path fill="none" stroke="black" d="M773.15,-160.51C795.84,-155.18 821.11,-149.79 844.5,-146 1029.01,-116.12 1249.94,-101.03 1354.68,-95.1"/>
<polygon fill="black" stroke="black" points="1354.65,-98.61 1364.44,-94.55 1354.27,-91.62 1354.65,-98.61"/>
</g>
<!-- j1464801759 -->
<g id="node43" class="node">
<title>j1464801759</title>
<ellipse fill="none" stroke="orange" cx="218.5" cy="-91" rx="133.78" ry="18"/>
<text text-anchor="middle" x="218.5" y="-87.3" font-family="Times New Roman,serif" font-size="14.00">Boolean LettieEscape is now true.</text>
</g>
<!-- j317853917&#45;&gt;j1464801759 -->
<g id="edge55" class="edge">
<title>j317853917&#45;&gt;j1464801759</title>
<path fill="none" stroke="black" d="M218.5,-153.37C218.5,-143.1 218.5,-131.22 218.5,-120.67"/>
<polygon fill="black" stroke="black" points="222,-120.98 218.5,-110.98 215,-120.98 222,-120.98"/>
</g>
<!-- j101637038&#45;&gt;Chat ends. -->
<g id="edge56" class="edge">
<title>j101637038&#45;&gt;Chat ends.</title>
<path fill="none" stroke="black" d="M1062.38,-153.02C1072.52,-150.51 1082.7,-148.12 1092.5,-146 1184.77,-126.06 1293.22,-109.27 1358.05,-99.93"/>
<polygon fill="black" stroke="black" points="1358.34,-103.43 1367.74,-98.55 1357.35,-96.5 1358.34,-103.43"/>
</g>
<!-- Chat ends. Next chat will be LettieEscape. -->
<g id="node44" class="node">
<title>Chat ends. Next chat will be LettieEscape.</title>
<ellipse fill="none" stroke="orange" cx="218.5" cy="-18" rx="163.57" ry="18"/>
<text text-anchor="middle" x="218.5" y="-14.3" font-family="Times New Roman,serif" font-size="14.00">Chat ends. Next chat will be LettieEscape.</text>
</g>
<!-- j1464801759&#45;&gt;Chat ends. Next chat will be LettieEscape. -->
<g id="edge57" class="edge">
<title>j1464801759&#45;&gt;Chat ends. Next chat will be LettieEscape.</title>
<path fill="none" stroke="black" d="M218.5,-72.81C218.5,-65.23 218.5,-56.1 218.5,-47.54"/>
<polygon fill="black" stroke="black" points="222,-47.54 218.5,-37.54 215,-47.54 222,-47.54"/>
</g>
</g>
</svg>
