<?xml version="1.0" encoding="UTF-8" standalone="no"?>
<!DOCTYPE svg PUBLIC "-//W3C//DTD SVG 1.1//EN"
 "http://www.w3.org/Graphics/SVG/1.1/DTD/svg11.dtd">
<!-- Generated by graphviz version 7.1.0 (20230121.1956)
 -->
<!-- Pages: 1 -->
<svg width="1942pt" height="2285pt"
 viewBox="0.00 0.00 1941.50 2285.00" xmlns="http://www.w3.org/2000/svg" xmlns:xlink="http://www.w3.org/1999/xlink">
<g id="graph0" class="graph" transform="scale(1 1) rotate(0) translate(4 2281)">
<polygon fill="white" stroke="none" points="-4,4 -4,-2281 1937.5,-2281 1937.5,4 -4,4"/>
<!-- LettieRank2Convo1 begins. -->
<g id="node1" class="node">
<title>LettieRank2Convo1 begins.</title>
<ellipse fill="none" stroke="orange" cx="586" cy="-2259" rx="111.58" ry="18"/>
<text text-anchor="middle" x="586" y="-2255.3" font-family="Times New Roman,serif" font-size="14.00">LettieRank2Convo1 begins.</text>
</g>
<!-- j2549990084 -->
<g id="node2" class="node">
<title>j2549990084</title>
<ellipse fill="none" stroke="orange" cx="586" cy="-2186" rx="109.68" ry="18"/>
<text text-anchor="middle" x="586" y="-2182.3" font-family="Times New Roman,serif" font-size="14.00">Check boolean LettieDuviri</text>
</g>
<!-- LettieRank2Convo1 begins.&#45;&gt;j2549990084 -->
<g id="edge1" class="edge">
<title>LettieRank2Convo1 begins.&#45;&gt;j2549990084</title>
<path fill="none" stroke="black" d="M586,-2240.81C586,-2233.23 586,-2224.1 586,-2215.54"/>
<polygon fill="black" stroke="black" points="589.5,-2215.54 586,-2205.54 582.5,-2215.54 589.5,-2215.54"/>
</g>
<!-- j3567790986 -->
<g id="node3" class="node">
<title>j3567790986</title>
<polygon fill="none" stroke="blue" points="570.5,-2117 403.5,-2117 403.5,-2079 570.5,-2079 570.5,-2117"/>
<text text-anchor="middle" x="487" y="-2101.8" font-family="Times New Roman,serif" font-size="14.00">Ці смерті, які в тебе були&#13;</text>
<text text-anchor="middle" x="487" y="-2086.8" font-family="Times New Roman,serif" font-size="14.00">Вони завдали болю?</text>
</g>
<!-- j2549990084&#45;&gt;j3567790986 -->
<g id="edge2" class="edge">
<title>j2549990084&#45;&gt;j3567790986</title>
<path fill="none" stroke="green" d="M566.44,-2168.01C552.27,-2155.7 532.86,-2138.84 516.77,-2124.86"/>
<polygon fill="green" stroke="green" points="519.22,-2122.35 509.37,-2118.44 514.63,-2127.64 519.22,-2122.35"/>
<text text-anchor="middle" x="557" y="-2138.8" font-family="Times New Roman,serif" font-size="14.00">true</text>
</g>
<!-- j569377948 -->
<g id="node4" class="node">
<title>j569377948</title>
<polygon fill="none" stroke="blue" points="783,-2117 589,-2117 589,-2079 783,-2079 783,-2117"/>
<text text-anchor="middle" x="686" y="-2101.8" font-family="Times New Roman,serif" font-size="14.00">Скажи мені, babas &#13;</text>
<text text-anchor="middle" x="686" y="-2086.8" font-family="Times New Roman,serif" font-size="14.00">Ти багато знаєш про смерть?</text>
</g>
<!-- j2549990084&#45;&gt;j569377948 -->
<g id="edge3" class="edge">
<title>j2549990084&#45;&gt;j569377948</title>
<path fill="none" stroke="brown" d="M605.76,-2168.01C620.07,-2155.7 639.68,-2138.84 655.93,-2124.86"/>
<polygon fill="brown" stroke="brown" points="658.11,-2127.61 663.41,-2118.43 653.54,-2122.3 658.11,-2127.61"/>
<text text-anchor="middle" x="655" y="-2138.8" font-family="Times New Roman,serif" font-size="14.00">false</text>
</g>
<!-- j1045815842 -->
<g id="node5" class="node">
<title>j1045815842</title>
<polygon fill="none" stroke="red" points="813.5,-2042 360.5,-2042 360.5,-2006 813.5,-2006 813.5,-2042"/>
<text text-anchor="middle" x="587" y="-2020.3" font-family="Times New Roman,serif" font-size="14.00">А мені здавалося, що лише у *мене* такі хворобливі думки... Ти там як?</text>
</g>
<!-- j3567790986&#45;&gt;j1045815842 -->
<g id="edge4" class="edge">
<title>j3567790986&#45;&gt;j1045815842</title>
<path fill="none" stroke="black" d="M512.49,-2078.65C525.09,-2069.57 540.45,-2058.51 553.94,-2048.8"/>
<polygon fill="black" stroke="black" points="555.63,-2051.9 561.7,-2043.21 551.54,-2046.22 555.63,-2051.9"/>
</g>
<!-- j2931272805 -->
<g id="node6" class="node">
<title>j2931272805</title>
<polygon fill="none" stroke="red" points="1124,-2042 832,-2042 832,-2006 1124,-2006 1124,-2042"/>
<text text-anchor="middle" x="978" y="-2020.3" font-family="Times New Roman,serif" font-size="14.00">ХА&#45;ХА. Панянко, ти навіть не уявляєш. А ти?</text>
</g>
<!-- j3567790986&#45;&gt;j2931272805 -->
<g id="edge5" class="edge">
<title>j3567790986&#45;&gt;j2931272805</title>
<path fill="none" stroke="black" d="M570.61,-2080.59C573.78,-2080.04 576.92,-2079.51 580,-2079 660.01,-2065.84 749.45,-2053.49 823.24,-2043.94"/>
<polygon fill="black" stroke="black" points="823.51,-2047.43 832.98,-2042.68 822.61,-2040.49 823.51,-2047.43"/>
</g>
<!-- j1181024871 -->
<g id="node7" class="node">
<title>j1181024871</title>
<polygon fill="none" stroke="red" points="342,-2042 0,-2042 0,-2006 342,-2006 342,-2042"/>
<text text-anchor="middle" x="171" y="-2020.3" font-family="Times New Roman,serif" font-size="14.00">Тобі серйозно потрібно частіше виходити на вулицю.</text>
</g>
<!-- j3567790986&#45;&gt;j1181024871 -->
<g id="edge6" class="edge">
<title>j3567790986&#45;&gt;j1181024871</title>
<path fill="none" stroke="black" d="M406.03,-2078.55C361.01,-2068.29 304.94,-2055.52 258.86,-2045.02"/>
<polygon fill="black" stroke="black" points="259.68,-2041.62 249.15,-2042.81 258.13,-2048.44 259.68,-2041.62"/>
</g>
<!-- j569377948&#45;&gt;j1045815842 -->
<g id="edge7" class="edge">
<title>j569377948&#45;&gt;j1045815842</title>
<path fill="none" stroke="black" d="M660.76,-2078.65C648.41,-2069.66 633.37,-2058.73 620.11,-2049.08"/>
<polygon fill="black" stroke="black" points="622.2,-2046.27 612.05,-2043.22 618.08,-2051.93 622.2,-2046.27"/>
</g>
<!-- j569377948&#45;&gt;j2931272805 -->
<g id="edge8" class="edge">
<title>j569377948&#45;&gt;j2931272805</title>
<path fill="none" stroke="black" d="M760.82,-2078.55C802.23,-2068.34 853.77,-2055.63 896.24,-2045.16"/>
<polygon fill="black" stroke="black" points="897.05,-2048.56 905.93,-2042.77 895.38,-2041.77 897.05,-2048.56"/>
</g>
<!-- j569377948&#45;&gt;j1181024871 -->
<g id="edge9" class="edge">
<title>j569377948&#45;&gt;j1181024871</title>
<path fill="none" stroke="black" d="M588.63,-2080.47C585.38,-2079.97 582.17,-2079.48 579,-2079 494.65,-2066.33 400.25,-2053.73 323.51,-2043.9"/>
<polygon fill="black" stroke="black" points="324.18,-2040.45 313.82,-2042.66 323.29,-2047.4 324.18,-2040.45"/>
</g>
<!-- j202442309 -->
<g id="node8" class="node">
<title>j202442309</title>
<polygon fill="none" stroke="blue" points="1110,-1969 846,-1969 846,-1933 1110,-1933 1110,-1969"/>
<text text-anchor="middle" x="978" y="-1947.3" font-family="Times New Roman,serif" font-size="14.00">Ми з La Flaca добре знаємо один одного</text>
</g>
<!-- j1045815842&#45;&gt;j202442309 -->
<g id="edge10" class="edge">
<title>j1045815842&#45;&gt;j202442309</title>
<path fill="none" stroke="black" d="M683.15,-2005.54C739.97,-1995.22 812.05,-1982.13 870.71,-1971.48"/>
<polygon fill="black" stroke="black" points="871.18,-1974.95 880.39,-1969.72 869.93,-1968.07 871.18,-1974.95"/>
</g>
<!-- j2931272805&#45;&gt;j202442309 -->
<g id="edge11" class="edge">
<title>j2931272805&#45;&gt;j202442309</title>
<path fill="none" stroke="black" d="M978,-2005.81C978,-1998.23 978,-1989.1 978,-1980.54"/>
<polygon fill="black" stroke="black" points="981.5,-1980.54 978,-1970.54 974.5,-1980.54 981.5,-1980.54"/>
</g>
<!-- j1759475013 -->
<g id="node9" class="node">
<title>j1759475013</title>
<polygon fill="none" stroke="blue" points="203,-1915 133,-1915 133,-1879 203,-1879 203,-1915"/>
<text text-anchor="middle" x="168" y="-1893.3" font-family="Times New Roman,serif" font-size="14.00">Ay, equis</text>
</g>
<!-- j1181024871&#45;&gt;j1759475013 -->
<g id="edge12" class="edge">
<title>j1181024871&#45;&gt;j1759475013</title>
<path fill="none" stroke="black" d="M170.58,-2005.62C170.09,-1985.19 169.27,-1950.99 168.69,-1926.62"/>
<polygon fill="black" stroke="black" points="172.19,-1926.66 168.45,-1916.75 165.19,-1926.83 172.19,-1926.66"/>
</g>
<!-- j1081495021 -->
<g id="node10" class="node">
<title>j1081495021</title>
<polygon fill="none" stroke="red" points="1054,-1861 902,-1861 902,-1825 1054,-1825 1054,-1861"/>
<text text-anchor="middle" x="978" y="-1839.3" font-family="Times New Roman,serif" font-size="14.00">La Flaca — це смерть?</text>
</g>
<!-- j202442309&#45;&gt;j1081495021 -->
<g id="edge13" class="edge">
<title>j202442309&#45;&gt;j1081495021</title>
<path fill="none" stroke="black" d="M978,-1932.97C978,-1916.76 978,-1892.06 978,-1872.79"/>
<polygon fill="black" stroke="black" points="981.5,-1872.85 978,-1862.85 974.5,-1872.85 981.5,-1872.85"/>
</g>
<!-- j4115294618 -->
<g id="node11" class="node">
<title>j4115294618</title>
<polygon fill="none" stroke="red" points="1275,-1861 1149,-1861 1149,-1825 1275,-1825 1275,-1861"/>
<text text-anchor="middle" x="1212" y="-1839.3" font-family="Times New Roman,serif" font-size="14.00">Хто така La Flaca?</text>
</g>
<!-- j202442309&#45;&gt;j4115294618 -->
<g id="edge14" class="edge">
<title>j202442309&#45;&gt;j4115294618</title>
<path fill="none" stroke="black" d="M1016.38,-1932.61C1056.51,-1914.44 1119.6,-1885.86 1163.23,-1866.09"/>
<polygon fill="black" stroke="black" points="1164.56,-1869.33 1172.22,-1862.02 1161.67,-1862.96 1164.56,-1869.33"/>
</g>
<!-- Chat ends. -->
<g id="node12" class="node">
<title>Chat ends.</title>
<ellipse fill="none" stroke="orange" cx="1229" cy="-18" rx="50.09" ry="18"/>
<text text-anchor="middle" x="1229" y="-14.3" font-family="Times New Roman,serif" font-size="14.00">Chat ends.</text>
</g>
<!-- j1759475013&#45;&gt;Chat ends. -->
<g id="edge15" class="edge">
<title>j1759475013&#45;&gt;Chat ends.</title>
<path fill="none" stroke="black" d="M166.45,-1878.62C164.98,-1860.69 163,-1831.92 163,-1807 163,-1807 163,-1807 163,-90 163,-39.32 940.1,-23.42 1167.31,-19.86"/>
<polygon fill="black" stroke="black" points="1167.2,-23.36 1177.15,-19.71 1167.09,-16.36 1167.2,-23.36"/>
</g>
<!-- j4048216999 -->
<g id="node13" class="node">
<title>j4048216999</title>
<polygon fill="none" stroke="blue" points="1044.5,-1788 911.5,-1788 911.5,-1750 1044.5,-1750 1044.5,-1788"/>
<text text-anchor="middle" x="978" y="-1772.8" font-family="Times New Roman,serif" font-size="14.00">Sí &#13;</text>
<text text-anchor="middle" x="978" y="-1757.8" font-family="Times New Roman,serif" font-size="14.00">Ти швидко вчишся</text>
</g>
<!-- j1081495021&#45;&gt;j4048216999 -->
<g id="edge16" class="edge">
<title>j1081495021&#45;&gt;j4048216999</title>
<path fill="none" stroke="black" d="M978,-1824.57C978,-1817.1 978,-1808.17 978,-1799.71"/>
<polygon fill="black" stroke="black" points="981.5,-1799.79 978,-1789.79 974.5,-1799.79 981.5,-1799.79"/>
</g>
<!-- j3563421922 -->
<g id="node14" class="node">
<title>j3563421922</title>
<polygon fill="none" stroke="blue" points="1297,-1788 1225,-1788 1225,-1750 1297,-1750 1297,-1788"/>
<text text-anchor="middle" x="1261" y="-1772.8" font-family="Times New Roman,serif" font-size="14.00">Кістлява &#13;</text>
<text text-anchor="middle" x="1261" y="-1757.8" font-family="Times New Roman,serif" font-size="14.00">Смерть</text>
</g>
<!-- j4115294618&#45;&gt;j3563421922 -->
<g id="edge17" class="edge">
<title>j4115294618&#45;&gt;j3563421922</title>
<path fill="none" stroke="black" d="M1223.86,-1824.57C1229.35,-1816.5 1236.01,-1806.72 1242.16,-1797.68"/>
<polygon fill="black" stroke="black" points="1244.98,-1799.76 1247.71,-1789.52 1239.19,-1795.82 1244.98,-1799.76"/>
</g>
<!-- j2504770564 -->
<g id="node15" class="node">
<title>j2504770564</title>
<ellipse fill="none" stroke="orange" cx="978" cy="-1695" rx="146.77" ry="18"/>
<text text-anchor="middle" x="978" y="-1691.3" font-family="Times New Roman,serif" font-size="14.00">Boolean LettieFantasma2 is now true.</text>
</g>
<!-- j4048216999&#45;&gt;j2504770564 -->
<g id="edge18" class="edge">
<title>j4048216999&#45;&gt;j2504770564</title>
<path fill="none" stroke="black" d="M978,-1749.83C978,-1742.24 978,-1733.24 978,-1724.79"/>
<polygon fill="black" stroke="black" points="981.5,-1724.93 978,-1714.93 974.5,-1724.93 981.5,-1724.93"/>
</g>
<!-- j1357396786 -->
<g id="node16" class="node">
<title>j1357396786</title>
<ellipse fill="none" stroke="orange" cx="1290" cy="-1695" rx="146.77" ry="18"/>
<text text-anchor="middle" x="1290" y="-1691.3" font-family="Times New Roman,serif" font-size="14.00">Boolean LettieFantasma2 is now true.</text>
</g>
<!-- j3563421922&#45;&gt;j1357396786 -->
<g id="edge19" class="edge">
<title>j3563421922&#45;&gt;j1357396786</title>
<path fill="none" stroke="black" d="M1268.32,-1749.83C1271.48,-1741.98 1275.25,-1732.62 1278.76,-1723.92"/>
<polygon fill="black" stroke="black" points="1281.93,-1725.41 1282.42,-1714.82 1275.44,-1722.79 1281.93,-1725.41"/>
</g>
<!-- j80452607 -->
<g id="node17" class="node">
<title>j80452607</title>
<ellipse fill="none" stroke="orange" cx="1290" cy="-1622" rx="59.59" ry="18"/>
<text text-anchor="middle" x="1290" y="-1618.3" font-family="Times New Roman,serif" font-size="14.00">+5 Chemistry</text>
</g>
<!-- j2504770564&#45;&gt;j80452607 -->
<g id="edge20" class="edge">
<title>j2504770564&#45;&gt;j80452607</title>
<path fill="none" stroke="black" d="M1045.7,-1678.59C1101.47,-1665.9 1179.68,-1648.1 1232.47,-1636.09"/>
<polygon fill="black" stroke="black" points="1233.2,-1639.51 1242.18,-1633.88 1231.65,-1632.69 1233.2,-1639.51"/>
</g>
<!-- j1357396786&#45;&gt;j80452607 -->
<g id="edge21" class="edge">
<title>j1357396786&#45;&gt;j80452607</title>
<path fill="none" stroke="black" d="M1290,-1676.81C1290,-1669.23 1290,-1660.1 1290,-1651.54"/>
<polygon fill="black" stroke="black" points="1293.5,-1651.54 1290,-1641.54 1286.5,-1651.54 1293.5,-1651.54"/>
</g>
<!-- j1748723159 -->
<g id="node18" class="node">
<title>j1748723159</title>
<polygon fill="none" stroke="blue" points="1439.5,-1567 1140.5,-1567 1140.5,-1514 1439.5,-1514 1439.5,-1567"/>
<text text-anchor="middle" x="1290" y="-1551.8" font-family="Times New Roman,serif" font-size="14.00">Я її поважаю&#13;</text>
<text text-anchor="middle" x="1290" y="-1536.8" font-family="Times New Roman,serif" font-size="14.00">Навіть якщо вона мені не завжди подобається &#13;</text>
<text text-anchor="middle" x="1290" y="-1521.8" font-family="Times New Roman,serif" font-size="14.00">Але веде тих, про кого я піклуюся</text>
</g>
<!-- j80452607&#45;&gt;j1748723159 -->
<g id="edge22" class="edge">
<title>j80452607&#45;&gt;j1748723159</title>
<path fill="none" stroke="black" d="M1290,-1603.75C1290,-1596.38 1290,-1587.48 1290,-1578.74"/>
<polygon fill="black" stroke="black" points="1293.5,-1579 1290,-1569 1286.5,-1579 1293.5,-1579"/>
</g>
<!-- j4268386380 -->
<g id="node19" class="node">
<title>j4268386380</title>
<ellipse fill="none" stroke="orange" cx="1291" cy="-1459" rx="141.88" ry="18"/>
<text text-anchor="middle" x="1291" y="-1455.3" font-family="Times New Roman,serif" font-size="14.00">Boolean LettieReligion1 is now true.</text>
</g>
<!-- j1748723159&#45;&gt;j4268386380 -->
<g id="edge23" class="edge">
<title>j1748723159&#45;&gt;j4268386380</title>
<path fill="none" stroke="black" d="M1290.32,-1513.91C1290.42,-1505.86 1290.54,-1496.91 1290.64,-1488.66"/>
<polygon fill="black" stroke="black" points="1294.14,-1488.81 1290.76,-1478.77 1287.14,-1488.73 1294.14,-1488.81"/>
</g>
<!-- j3592646991 -->
<g id="node20" class="node">
<title>j3592646991</title>
<polygon fill="none" stroke="red" points="1532.5,-1404 1049.5,-1404 1049.5,-1368 1532.5,-1368 1532.5,-1404"/>
<text text-anchor="middle" x="1291" y="-1382.3" font-family="Times New Roman,serif" font-size="14.00">Але ти ж медикиня. Хіба ти не лікуєш людей? Як можна «поважати» смерть?</text>
</g>
<!-- j4268386380&#45;&gt;j3592646991 -->
<g id="edge24" class="edge">
<title>j4268386380&#45;&gt;j3592646991</title>
<path fill="none" stroke="black" d="M1291,-1440.81C1291,-1433.23 1291,-1424.1 1291,-1415.54"/>
<polygon fill="black" stroke="black" points="1294.5,-1415.54 1291,-1405.54 1287.5,-1415.54 1294.5,-1415.54"/>
</g>
<!-- j2796627633 -->
<g id="node21" class="node">
<title>j2796627633</title>
<polygon fill="none" stroke="red" points="1933.5,-1404 1550.5,-1404 1550.5,-1368 1933.5,-1368 1933.5,-1404"/>
<text text-anchor="middle" x="1742" y="-1382.3" font-family="Times New Roman,serif" font-size="14.00">Смерть — це не людина, це те, що «трапляється» з людьми.</text>
</g>
<!-- j4268386380&#45;&gt;j2796627633 -->
<g id="edge25" class="edge">
<title>j4268386380&#45;&gt;j2796627633</title>
<path fill="none" stroke="black" d="M1377.69,-1444.35C1446.46,-1433.53 1543.43,-1418.26 1620.03,-1406.2"/>
<polygon fill="black" stroke="black" points="1620.35,-1409.69 1629.69,-1404.68 1619.26,-1402.78 1620.35,-1409.69"/>
</g>
<!-- j3041285352 -->
<g id="node22" class="node">
<title>j3041285352</title>
<polygon fill="none" stroke="blue" points="1394.5,-1331 1187.5,-1331 1187.5,-1295 1394.5,-1295 1394.5,-1331"/>
<text text-anchor="middle" x="1291" y="-1309.3" font-family="Times New Roman,serif" font-size="14.00">Ти думаєш про це неправильно</text>
</g>
<!-- j3592646991&#45;&gt;j3041285352 -->
<g id="edge26" class="edge">
<title>j3592646991&#45;&gt;j3041285352</title>
<path fill="none" stroke="black" d="M1291,-1367.81C1291,-1360.23 1291,-1351.1 1291,-1342.54"/>
<polygon fill="black" stroke="black" points="1294.5,-1342.54 1291,-1332.54 1287.5,-1342.54 1294.5,-1342.54"/>
</g>
<!-- j2547240352 -->
<g id="node23" class="node">
<title>j2547240352</title>
<polygon fill="none" stroke="blue" points="1769,-1277 1715,-1277 1715,-1241 1769,-1241 1769,-1277"/>
<text text-anchor="middle" x="1742" y="-1255.3" font-family="Times New Roman,serif" font-size="14.00">Va</text>
</g>
<!-- j2796627633&#45;&gt;j2547240352 -->
<g id="edge27" class="edge">
<title>j2796627633&#45;&gt;j2547240352</title>
<path fill="none" stroke="black" d="M1742,-1367.62C1742,-1347.19 1742,-1312.99 1742,-1288.62"/>
<polygon fill="black" stroke="black" points="1745.5,-1288.75 1742,-1278.75 1738.5,-1288.75 1745.5,-1288.75"/>
</g>
<!-- j4087927951 -->
<g id="node24" class="node">
<title>j4087927951</title>
<ellipse fill="none" stroke="orange" cx="1291" cy="-1205" rx="109.68" ry="18"/>
<text text-anchor="middle" x="1291" y="-1201.3" font-family="Times New Roman,serif" font-size="14.00">Check boolean LettieDuviri</text>
</g>
<!-- j3041285352&#45;&gt;j4087927951 -->
<g id="edge28" class="edge">
<title>j3041285352&#45;&gt;j4087927951</title>
<path fill="none" stroke="black" d="M1291,-1294.97C1291,-1278.76 1291,-1254.06 1291,-1234.79"/>
<polygon fill="black" stroke="black" points="1294.5,-1234.85 1291,-1224.85 1287.5,-1234.85 1294.5,-1234.85"/>
</g>
<!-- j2547240352&#45;&gt;Chat ends. -->
<g id="edge29" class="edge">
<title>j2547240352&#45;&gt;Chat ends.</title>
<path fill="none" stroke="black" d="M1742.29,-1240.75C1742.58,-1221.62 1743,-1189.86 1743,-1162.5 1743,-1162.5 1743,-1162.5 1743,-90 1743,-44.76 1426.47,-26.8 1290.19,-21.16"/>
<polygon fill="black" stroke="black" points="1290.4,-17.67 1280.26,-20.76 1290.11,-24.66 1290.4,-17.67"/>
</g>
<!-- j2268212948 -->
<g id="node25" class="node">
<title>j2268212948</title>
<polygon fill="none" stroke="blue" points="1073.5,-1136 520.5,-1136 520.5,-1083 1073.5,-1083 1073.5,-1136"/>
<text text-anchor="middle" x="797" y="-1120.8" font-family="Times New Roman,serif" font-size="14.00">Усі рази, коли ти до тебе приходить смерть&#13;</text>
<text text-anchor="middle" x="797" y="-1105.8" font-family="Times New Roman,serif" font-size="14.00">Ти звинувачуєш її в тому, що вона припинила твій біль?&#13;</text>
<text text-anchor="middle" x="797" y="-1090.8" font-family="Times New Roman,serif" font-size="14.00">Це вона винна у твоїх стражданнях, чи варто звинувачувати тих, хто завдавав тобі болю</text>
</g>
<!-- j4087927951&#45;&gt;j2268212948 -->
<g id="edge30" class="edge">
<title>j4087927951&#45;&gt;j2268212948</title>
<path fill="none" stroke="green" d="M1221.01,-1190.75C1149.58,-1177.23 1036.56,-1155.84 945.16,-1138.54"/>
<polygon fill="green" stroke="green" points="946.09,-1135.16 935.61,-1136.73 944.78,-1142.03 946.09,-1135.16"/>
<text text-anchor="middle" x="1113" y="-1157.8" font-family="Times New Roman,serif" font-size="14.00">true</text>
</g>
<!-- j127628116 -->
<g id="node26" class="node">
<title>j127628116</title>
<polygon fill="none" stroke="blue" points="1670,-1136 1092,-1136 1092,-1083 1670,-1083 1670,-1136"/>
<text text-anchor="middle" x="1381" y="-1120.8" font-family="Times New Roman,serif" font-size="14.00">Моя робота полягає в тому, щоби переконатися, що вона бере людей, коли прийде їхній час&#13;</text>
<text text-anchor="middle" x="1381" y="-1105.8" font-family="Times New Roman,serif" font-size="14.00">Доки вона не вирве їх з моїх рук&#13;</text>
<text text-anchor="middle" x="1381" y="-1090.8" font-family="Times New Roman,serif" font-size="14.00">І ні на секунду раніше</text>
</g>
<!-- j4087927951&#45;&gt;j127628116 -->
<g id="edge31" class="edge">
<title>j4087927951&#45;&gt;j127628116</title>
<path fill="none" stroke="brown" d="M1307.51,-1186.85C1318.88,-1175.04 1334.37,-1158.95 1348.2,-1144.58"/>
<polygon fill="brown" stroke="brown" points="1350.64,-1147.09 1355.05,-1137.46 1345.6,-1142.23 1350.64,-1147.09"/>
<text text-anchor="middle" x="1351" y="-1157.8" font-family="Times New Roman,serif" font-size="14.00">false</text>
</g>
<!-- j2557718439 -->
<g id="node27" class="node">
<title>j2557718439</title>
<polygon fill="none" stroke="blue" points="1217,-1046 917,-1046 917,-978 1217,-978 1217,-1046"/>
<text text-anchor="middle" x="1067" y="-1030.8" font-family="Times New Roman,serif" font-size="14.00">Але коли вона приходить &#13;</text>
<text text-anchor="middle" x="1067" y="-1015.8" font-family="Times New Roman,serif" font-size="14.00">Я маю переконатися, що вона знає, що їй раді &#13;</text>
<text text-anchor="middle" x="1067" y="-1000.8" font-family="Times New Roman,serif" font-size="14.00">Вона знімає біль, babas &#13;</text>
<text text-anchor="middle" x="1067" y="-985.8" font-family="Times New Roman,serif" font-size="14.00">Її потрібно не боятися, а поважати</text>
</g>
<!-- j2268212948&#45;&gt;j2557718439 -->
<g id="edge32" class="edge">
<title>j2268212948&#45;&gt;j2557718439</title>
<path fill="none" stroke="black" d="M870.42,-1082.53C898.64,-1072.55 931.42,-1060.95 962.04,-1050.13"/>
<polygon fill="black" stroke="black" points="963.08,-1053.47 971.34,-1046.84 960.74,-1046.87 963.08,-1053.47"/>
</g>
<!-- j127628116&#45;&gt;j2557718439 -->
<g id="edge33" class="edge">
<title>j127628116&#45;&gt;j2557718439</title>
<path fill="none" stroke="black" d="M1295.61,-1082.53C1262.31,-1072.4 1223.53,-1060.61 1187.47,-1049.64"/>
<polygon fill="black" stroke="black" points="1188.92,-1046.42 1178.33,-1046.86 1186.88,-1053.12 1188.92,-1046.42"/>
</g>
<!-- j791242081 -->
<g id="node28" class="node">
<title>j791242081</title>
<polygon fill="none" stroke="red" points="1437,-941 697,-941 697,-905 1437,-905 1437,-941"/>
<text text-anchor="middle" x="1067" y="-919.3" font-family="Times New Roman,serif" font-size="14.00">У Дувірі, коли до мене приходило розуміння, що я ось&#45;ось помру, інколи було полегшенням знати, що кінець близько.</text>
</g>
<!-- j2557718439&#45;&gt;j791242081 -->
<g id="edge34" class="edge">
<title>j2557718439&#45;&gt;j791242081</title>
<path fill="none" stroke="black" d="M1067,-977.61C1067,-969.34 1067,-960.55 1067,-952.53"/>
<polygon fill="black" stroke="black" points="1070.5,-952.64 1067,-942.64 1063.5,-952.64 1070.5,-952.64"/>
</g>
<!-- j1701161612 -->
<g id="node29" class="node">
<title>j1701161612</title>
<polygon fill="none" stroke="red" points="679,-941 191,-941 191,-905 679,-905 679,-941"/>
<text text-anchor="middle" x="435" y="-919.3" font-family="Times New Roman,serif" font-size="14.00">Гадаю, частина мене це розуміє. Навіть якщо мені не подобається ідея смерті.</text>
</g>
<!-- j2557718439&#45;&gt;j1701161612 -->
<g id="edge35" class="edge">
<title>j2557718439&#45;&gt;j1701161612</title>
<path fill="none" stroke="black" d="M916.82,-990.33C812.58,-975.98 674.75,-957 573.21,-943.03"/>
<polygon fill="black" stroke="black" points="573.84,-939.58 563.45,-941.68 572.88,-946.51 573.84,-939.58"/>
</g>
<!-- j3841117552 -->
<g id="node30" class="node">
<title>j3841117552</title>
<polygon fill="none" stroke="red" points="1715,-941 1455,-941 1455,-905 1715,-905 1715,-941"/>
<text text-anchor="middle" x="1585" y="-919.3" font-family="Times New Roman,serif" font-size="14.00">Я… хочу на цьому припинити розмову.</text>
</g>
<!-- j2557718439&#45;&gt;j3841117552 -->
<g id="edge36" class="edge">
<title>j2557718439&#45;&gt;j3841117552</title>
<path fill="none" stroke="black" d="M1217.17,-985.78C1297.59,-972.27 1395.12,-955.89 1469.54,-943.39"/>
<polygon fill="black" stroke="black" points="1470.04,-946.86 1479.32,-941.75 1468.88,-939.95 1470.04,-946.86"/>
</g>
<!-- j56496640 -->
<g id="node31" class="node">
<title>j56496640</title>
<polygon fill="none" stroke="red" points="1305.5,-868 828.5,-868 828.5,-832 1305.5,-832 1305.5,-868"/>
<text text-anchor="middle" x="1067" y="-846.3" font-family="Times New Roman,serif" font-size="14.00">Яким би сильним не був біль, незабаром настане темрява, і все закінчиться.</text>
</g>
<!-- j791242081&#45;&gt;j56496640 -->
<g id="edge37" class="edge">
<title>j791242081&#45;&gt;j56496640</title>
<path fill="none" stroke="black" d="M1067,-904.81C1067,-897.23 1067,-888.1 1067,-879.54"/>
<polygon fill="black" stroke="black" points="1070.5,-879.54 1067,-869.54 1063.5,-879.54 1070.5,-879.54"/>
</g>
<!-- j4100942341 -->
<g id="node32" class="node">
<title>j4100942341</title>
<polygon fill="none" stroke="blue" points="613,-868 559,-868 559,-832 613,-832 613,-868"/>
<text text-anchor="middle" x="586" y="-846.3" font-family="Times New Roman,serif" font-size="14.00">Гм, sí</text>
</g>
<!-- j1701161612&#45;&gt;j4100942341 -->
<g id="edge38" class="edge">
<title>j1701161612&#45;&gt;j4100942341</title>
<path fill="none" stroke="black" d="M471.94,-904.63C495.26,-893.67 525.29,-879.55 548.68,-868.55"/>
<polygon fill="black" stroke="black" points="549.98,-871.8 557.54,-864.38 547.01,-865.47 549.98,-871.8"/>
</g>
<!-- j2893778673 -->
<g id="node33" class="node">
<title>j2893778673</title>
<polygon fill="none" stroke="blue" points="1524,-814 1414,-814 1414,-778 1524,-778 1524,-814"/>
<text text-anchor="middle" x="1469" y="-792.3" font-family="Times New Roman,serif" font-size="14.00">Ay, equis, pansy</text>
</g>
<!-- j3841117552&#45;&gt;j2893778673 -->
<g id="edge39" class="edge">
<title>j3841117552&#45;&gt;j2893778673</title>
<path fill="none" stroke="black" d="M1568.87,-904.62C1549.13,-883.35 1515.54,-847.15 1492.82,-822.67"/>
<polygon fill="black" stroke="black" points="1495.39,-820.29 1486.02,-815.34 1490.26,-825.05 1495.39,-820.29"/>
</g>
<!-- j1175286997 -->
<g id="node34" class="node">
<title>j1175286997</title>
<ellipse fill="none" stroke="orange" cx="1067" cy="-742" rx="64.19" ry="18"/>
<text text-anchor="middle" x="1067" y="-738.3" font-family="Times New Roman,serif" font-size="14.00">+10 Chemistry</text>
</g>
<!-- j56496640&#45;&gt;j1175286997 -->
<g id="edge40" class="edge">
<title>j56496640&#45;&gt;j1175286997</title>
<path fill="none" stroke="black" d="M1067,-831.97C1067,-815.76 1067,-791.06 1067,-771.79"/>
<polygon fill="black" stroke="black" points="1070.5,-771.85 1067,-761.85 1063.5,-771.85 1070.5,-771.85"/>
</g>
<!-- j908701494 -->
<g id="node35" class="node">
<title>j908701494</title>
<ellipse fill="none" stroke="orange" cx="688" cy="-688" rx="59.59" ry="18"/>
<text text-anchor="middle" x="688" y="-684.3" font-family="Times New Roman,serif" font-size="14.00">+5 Chemistry</text>
</g>
<!-- j4100942341&#45;&gt;j908701494 -->
<g id="edge41" class="edge">
<title>j4100942341&#45;&gt;j908701494</title>
<path fill="none" stroke="black" d="M597.11,-831.57C614.98,-803.53 650.24,-748.23 671.2,-715.35"/>
<polygon fill="black" stroke="black" points="673.97,-717.51 676.4,-707.2 668.07,-713.75 673.97,-717.51"/>
</g>
<!-- j2893778673&#45;&gt;Chat ends. -->
<g id="edge42" class="edge">
<title>j2893778673&#45;&gt;Chat ends.</title>
<path fill="none" stroke="black" d="M1463.1,-777.6C1456.59,-756.78 1447,-720.76 1447,-689 1447,-689 1447,-689 1447,-90 1447,-56.35 1351.88,-36.17 1287.31,-26.36"/>
<polygon fill="black" stroke="black" points="1287.93,-22.91 1277.53,-24.92 1286.92,-29.84 1287.93,-22.91"/>
</g>
<!-- j4070026508 -->
<g id="node36" class="node">
<title>j4070026508</title>
<polygon fill="none" stroke="blue" points="1113.5,-652 1020.5,-652 1020.5,-614 1113.5,-614 1113.5,-652"/>
<text text-anchor="middle" x="1067" y="-636.8" font-family="Times New Roman,serif" font-size="14.00">¿Sí, бачиш? &#13;</text>
<text text-anchor="middle" x="1067" y="-621.8" font-family="Times New Roman,serif" font-size="14.00">Ти розумієш</text>
</g>
<!-- j1175286997&#45;&gt;j4070026508 -->
<g id="edge43" class="edge">
<title>j1175286997&#45;&gt;j4070026508</title>
<path fill="none" stroke="black" d="M1067,-723.81C1067,-707.57 1067,-682.87 1067,-663.48"/>
<polygon fill="black" stroke="black" points="1070.5,-663.74 1067,-653.74 1063.5,-663.74 1070.5,-663.74"/>
</g>
<!-- j2534582046 -->
<g id="node37" class="node">
<title>j2534582046</title>
<polygon fill="none" stroke="blue" points="1124,-504 706,-504 706,-436 1124,-436 1124,-504"/>
<text text-anchor="middle" x="915" y="-488.8" font-family="Times New Roman,serif" font-size="14.00">Ось чому я лікую &#13;</text>
<text text-anchor="middle" x="915" y="-473.8" font-family="Times New Roman,serif" font-size="14.00">Щоби переконатися, що La Flaca впевнена в тому, кого вона бере &#13;</text>
<text text-anchor="middle" x="915" y="-458.8" font-family="Times New Roman,serif" font-size="14.00">І що вона отримує ЛИШЕ того, кого їй потрібно &#13;</text>
<text text-anchor="middle" x="915" y="-443.8" font-family="Times New Roman,serif" font-size="14.00">І більше нікого</text>
</g>
<!-- j908701494&#45;&gt;j2534582046 -->
<g id="edge44" class="edge">
<title>j908701494&#45;&gt;j2534582046</title>
<path fill="none" stroke="black" d="M690.27,-669.77C695.07,-639.79 708.97,-577.7 745,-541 757.31,-528.46 772.2,-518.07 787.97,-509.5"/>
<polygon fill="black" stroke="black" points="789.26,-512.77 796.55,-505.08 786.06,-506.54 789.26,-512.77"/>
</g>
<!-- j883992025 -->
<g id="node38" class="node">
<title>j883992025</title>
<polygon fill="none" stroke="red" points="1411,-577 1119,-577 1119,-541 1411,-541 1411,-577"/>
<text text-anchor="middle" x="1265" y="-555.3" font-family="Times New Roman,serif" font-size="14.00">Але мені також було відомо, що я повернуся.</text>
</g>
<!-- j4070026508&#45;&gt;j883992025 -->
<g id="edge45" class="edge">
<title>j4070026508&#45;&gt;j883992025</title>
<path fill="none" stroke="black" d="M1113.92,-614.94C1141.63,-604.86 1176.94,-592.02 1206.45,-581.29"/>
<polygon fill="black" stroke="black" points="1207.41,-584.66 1215.62,-577.96 1205.02,-578.09 1207.41,-584.66"/>
</g>
<!-- j1513478226 -->
<g id="node39" class="node">
<title>j1513478226</title>
<polygon fill="none" stroke="red" points="1095.5,-577 754.5,-577 754.5,-541 1095.5,-541 1095.5,-577"/>
<text text-anchor="middle" x="925" y="-555.3" font-family="Times New Roman,serif" font-size="14.00">Але я не думаю, що всі мають просто померти, ха&#45;ха.</text>
</g>
<!-- j4070026508&#45;&gt;j1513478226 -->
<g id="edge46" class="edge">
<title>j4070026508&#45;&gt;j1513478226</title>
<path fill="none" stroke="black" d="M1030.8,-613.65C1012.05,-604.14 988.99,-592.45 969.19,-582.41"/>
<polygon fill="black" stroke="black" points="971.03,-579.42 960.53,-578.01 967.87,-585.66 971.03,-579.42"/>
</g>
<!-- j839352420 -->
<g id="node40" class="node">
<title>j839352420</title>
<polygon fill="none" stroke="blue" points="1140.5,-383 689.5,-383 689.5,-347 1140.5,-347 1140.5,-383"/>
<text text-anchor="middle" x="915" y="-361.3" font-family="Times New Roman,serif" font-size="14.00">Ми всі бачили, як вона надто рано забирала близьких через дії інших…</text>
</g>
<!-- j2534582046&#45;&gt;j839352420 -->
<g id="edge47" class="edge">
<title>j2534582046&#45;&gt;j839352420</title>
<path fill="none" stroke="black" d="M915,-435.56C915,-422.38 915,-407.4 915,-394.72"/>
<polygon fill="black" stroke="black" points="918.5,-394.92 915,-384.92 911.5,-394.92 918.5,-394.92"/>
</g>
<!-- j1240910771 -->
<g id="node41" class="node">
<title>j1240910771</title>
<ellipse fill="none" stroke="orange" cx="1280" cy="-470" rx="59.59" ry="18"/>
<text text-anchor="middle" x="1280" y="-466.3" font-family="Times New Roman,serif" font-size="14.00">+5 Chemistry</text>
</g>
<!-- j883992025&#45;&gt;j1240910771 -->
<g id="edge48" class="edge">
<title>j883992025&#45;&gt;j1240910771</title>
<path fill="none" stroke="black" d="M1267.96,-540.81C1269.98,-529.09 1272.71,-513.29 1275.05,-499.68"/>
<polygon fill="black" stroke="black" points="1278.48,-500.39 1276.73,-489.94 1271.59,-499.2 1278.48,-500.39"/>
</g>
<!-- j1513478226&#45;&gt;j2534582046 -->
<g id="edge49" class="edge">
<title>j1513478226&#45;&gt;j2534582046</title>
<path fill="none" stroke="black" d="M923.02,-540.81C922.18,-533.5 921.16,-524.6 920.13,-515.63"/>
<polygon fill="black" stroke="black" points="923.63,-515.4 919.01,-505.86 916.67,-516.2 923.63,-515.4"/>
</g>
<!-- j1522489796 -->
<g id="node42" class="node">
<title>j1522489796</title>
<polygon fill="none" stroke="red" points="965,-293 911,-293 911,-257 965,-257 965,-293"/>
<text text-anchor="middle" x="938" y="-271.3" font-family="Times New Roman,serif" font-size="14.00">Так.</text>
</g>
<!-- j839352420&#45;&gt;j1522489796 -->
<g id="edge50" class="edge">
<title>j839352420&#45;&gt;j1522489796</title>
<path fill="none" stroke="black" d="M919.54,-346.61C922.69,-334.56 926.96,-318.24 930.6,-304.33"/>
<polygon fill="black" stroke="black" points="933.94,-305.37 933.08,-294.81 927.17,-303.6 933.94,-305.37"/>
</g>
<!-- j1280005100 -->
<g id="node43" class="node">
<title>j1280005100</title>
<polygon fill="none" stroke="red" points="1109,-293 993,-293 993,-257 1109,-257 1109,-293"/>
<text text-anchor="middle" x="1051" y="-271.3" font-family="Times New Roman,serif" font-size="14.00">Я за таке вип’ю.</text>
</g>
<!-- j839352420&#45;&gt;j1280005100 -->
<g id="edge51" class="edge">
<title>j839352420&#45;&gt;j1280005100</title>
<path fill="none" stroke="black" d="M941.87,-346.61C962.73,-333.11 991.87,-314.26 1014.79,-299.43"/>
<polygon fill="black" stroke="black" points="1016.42,-302.54 1022.92,-294.17 1012.62,-296.67 1016.42,-302.54"/>
</g>
<!-- j1164591729 -->
<g id="node44" class="node">
<title>j1164591729</title>
<polygon fill="none" stroke="blue" points="1411.5,-399 1158.5,-399 1158.5,-331 1411.5,-331 1411.5,-399"/>
<text text-anchor="middle" x="1285" y="-383.8" font-family="Times New Roman,serif" font-size="14.00">Ті, хто має віру&#13;</text>
<text text-anchor="middle" x="1285" y="-368.8" font-family="Times New Roman,serif" font-size="14.00">Ми теж у це віримо&#13;</text>
<text text-anchor="middle" x="1285" y="-353.8" font-family="Times New Roman,serif" font-size="14.00">Можливо, не так буквально, як ти jajaja&#13;</text>
<text text-anchor="middle" x="1285" y="-338.8" font-family="Times New Roman,serif" font-size="14.00">Але… тепер ми всі теж fantasmas</text>
</g>
<!-- j1240910771&#45;&gt;j1164591729 -->
<g id="edge52" class="edge">
<title>j1240910771&#45;&gt;j1164591729</title>
<path fill="none" stroke="black" d="M1280.85,-451.53C1281.39,-440.3 1282.13,-425.16 1282.83,-410.74"/>
<polygon fill="black" stroke="black" points="1286.32,-411.08 1283.3,-400.93 1279.32,-410.74 1286.32,-411.08"/>
</g>
<!-- j2528388970 -->
<g id="node45" class="node">
<title>j2528388970</title>
<polygon fill="none" stroke="blue" points="1095,-165 913,-165 913,-127 1095,-127 1095,-165"/>
<text text-anchor="middle" x="1004" y="-149.8" font-family="Times New Roman,serif" font-size="14.00">Було весело &#13;</text>
<text text-anchor="middle" x="1004" y="-134.8" font-family="Times New Roman,serif" font-size="14.00">Треба вертатися до роботи</text>
</g>
<!-- j1522489796&#45;&gt;j2528388970 -->
<g id="edge53" class="edge">
<title>j1522489796&#45;&gt;j2528388970</title>
<path fill="none" stroke="black" d="M947.04,-256.61C957.91,-235.68 976.32,-200.27 989.26,-175.37"/>
<polygon fill="black" stroke="black" points="992.23,-177.25 993.73,-166.76 986.01,-174.02 992.23,-177.25"/>
</g>
<!-- j3843951455 -->
<g id="node46" class="node">
<title>j3843951455</title>
<ellipse fill="none" stroke="orange" cx="1076" cy="-201" rx="59.59" ry="18"/>
<text text-anchor="middle" x="1076" y="-197.3" font-family="Times New Roman,serif" font-size="14.00">+5 Chemistry</text>
</g>
<!-- j1280005100&#45;&gt;j3843951455 -->
<g id="edge54" class="edge">
<title>j1280005100&#45;&gt;j3843951455</title>
<path fill="none" stroke="black" d="M1057.05,-256.57C1059.82,-248.61 1063.16,-238.98 1066.26,-230.05"/>
<polygon fill="black" stroke="black" points="1069.53,-231.29 1069.51,-220.7 1062.92,-229 1069.53,-231.29"/>
</g>
<!-- j2056531305 -->
<g id="node47" class="node">
<title>j2056531305</title>
<polygon fill="none" stroke="blue" points="1416,-294 1132,-294 1132,-256 1416,-256 1416,-294"/>
<text text-anchor="middle" x="1274" y="-278.8" font-family="Times New Roman,serif" font-size="14.00">Застрягли у нескінченному циклі, що й ти…&#13;</text>
<text text-anchor="middle" x="1274" y="-263.8" font-family="Times New Roman,serif" font-size="14.00">Outside Mictlán embrace</text>
</g>
<!-- j1164591729&#45;&gt;j2056531305 -->
<g id="edge55" class="edge">
<title>j1164591729&#45;&gt;j2056531305</title>
<path fill="none" stroke="black" d="M1280.84,-330.73C1279.8,-322.42 1278.7,-313.58 1277.68,-305.47"/>
<polygon fill="black" stroke="black" points="1281.18,-305.26 1276.47,-295.77 1274.24,-306.13 1281.18,-305.26"/>
</g>
<!-- j2528388970&#45;&gt;Chat ends. -->
<g id="edge56" class="edge">
<title>j2528388970&#45;&gt;Chat ends.</title>
<path fill="none" stroke="black" d="M1022.11,-126.77C1038.64,-110.92 1064.35,-88.16 1090,-73 1118.21,-56.33 1152.5,-42.94 1179.96,-33.67"/>
<polygon fill="black" stroke="black" points="1181.05,-37 1189.45,-30.55 1178.86,-30.35 1181.05,-37"/>
</g>
<!-- j792958072 -->
<g id="node48" class="node">
<title>j792958072</title>
<polygon fill="none" stroke="blue" points="1153,-109 1099,-109 1099,-73 1153,-73 1153,-109"/>
<text text-anchor="middle" x="1126" y="-87.3" font-family="Times New Roman,serif" font-size="14.00">Sí</text>
</g>
<!-- j3843951455&#45;&gt;j792958072 -->
<g id="edge57" class="edge">
<title>j3843951455&#45;&gt;j792958072</title>
<path fill="none" stroke="black" d="M1091.36,-183.47C1095.92,-177.91 1100.6,-171.48 1104,-165 1111.36,-150.99 1116.64,-134.15 1120.18,-120.18"/>
<polygon fill="black" stroke="black" points="1123.53,-121.24 1122.41,-110.71 1116.71,-119.64 1123.53,-121.24"/>
</g>
<!-- j289678872 -->
<g id="node49" class="node">
<title>j289678872</title>
<polygon fill="none" stroke="blue" points="1350.5,-164 1139.5,-164 1139.5,-128 1350.5,-128 1350.5,-164"/>
<text text-anchor="middle" x="1245" y="-142.3" font-family="Times New Roman,serif" font-size="14.00">Мені треба вертатися до роботи</text>
</g>
<!-- j2056531305&#45;&gt;j289678872 -->
<g id="edge58" class="edge">
<title>j2056531305&#45;&gt;j289678872</title>
<path fill="none" stroke="black" d="M1269.78,-255.53C1264.98,-234.49 1257.07,-199.84 1251.48,-175.36"/>
<polygon fill="black" stroke="black" points="1254.92,-174.71 1249.28,-165.74 1248.09,-176.27 1254.92,-174.71"/>
</g>
<!-- j792958072&#45;&gt;Chat ends. -->
<g id="edge59" class="edge">
<title>j792958072&#45;&gt;Chat ends.</title>
<path fill="none" stroke="black" d="M1151.2,-72.63C1165.07,-63.07 1182.43,-51.1 1197.23,-40.9"/>
<polygon fill="black" stroke="black" points="1199.02,-43.91 1205.27,-35.36 1195.05,-38.15 1199.02,-43.91"/>
</g>
<!-- j289678872&#45;&gt;Chat ends. -->
<g id="edge60" class="edge">
<title>j289678872&#45;&gt;Chat ends.</title>
<path fill="none" stroke="black" d="M1242.81,-127.74C1240.19,-107.12 1235.77,-72.32 1232.64,-47.64"/>
<polygon fill="black" stroke="black" points="1236.14,-47.43 1231.41,-37.95 1229.19,-48.31 1236.14,-47.43"/>
</g>
</g>
</svg>
