<?xml version="1.0" encoding="UTF-8" standalone="no"?>
<!DOCTYPE svg PUBLIC "-//W3C//DTD SVG 1.1//EN"
 "http://www.w3.org/Graphics/SVG/1.1/DTD/svg11.dtd">
<!-- Generated by graphviz version 7.1.0 (20230121.1956)
 -->
<!-- Pages: 1 -->
<svg width="2333pt" height="1916pt"
 viewBox="0.00 0.00 2332.50 1916.00" xmlns="http://www.w3.org/2000/svg" xmlns:xlink="http://www.w3.org/1999/xlink">
<g id="graph0" class="graph" transform="scale(1 1) rotate(0) translate(4 1912)">
<polygon fill="white" stroke="none" points="-4,4 -4,-1912 2328.5,-1912 2328.5,4 -4,4"/>
<!-- EleanorRank3Convo6 begins. -->
<g id="node1" class="node">
<title>EleanorRank3Convo6 begins.</title>
<ellipse fill="none" stroke="orange" cx="1468.5" cy="-1890" rx="118.88" ry="18"/>
<text text-anchor="middle" x="1468.5" y="-1886.3" font-family="Times New Roman,serif" font-size="14.00">EleanorRank3Convo6 begins.</text>
</g>
<!-- j2177044498 -->
<g id="node2" class="node">
<title>j2177044498</title>
<polygon fill="none" stroke="blue" points="1718.5,-1836 1218.5,-1836 1218.5,-1800 1718.5,-1800 1718.5,-1836"/>
<text text-anchor="middle" x="1468.5" y="-1814.3" font-family="Times New Roman,serif" font-size="14.00">Você sabe qual era a melhor coisa de Holvânia, antes de a Scaldra assumir o controle?</text>
</g>
<!-- EleanorRank3Convo6 begins.&#45;&gt;j2177044498 -->
<g id="edge1" class="edge">
<title>EleanorRank3Convo6 begins.&#45;&gt;j2177044498</title>
<path fill="none" stroke="black" d="M1468.5,-1871.7C1468.5,-1864.41 1468.5,-1855.73 1468.5,-1847.54"/>
<polygon fill="black" stroke="black" points="1472,-1847.62 1468.5,-1837.62 1465,-1847.62 1472,-1847.62"/>
</g>
<!-- j861193032 -->
<g id="node3" class="node">
<title>j861193032</title>
<polygon fill="none" stroke="red" points="534,-1764 429,-1764 429,-1728 534,-1728 534,-1764"/>
<text text-anchor="middle" x="481.5" y="-1742.3" font-family="Times New Roman,serif" font-size="14.00">A vida noturna?</text>
</g>
<!-- j2177044498&#45;&gt;j861193032 -->
<g id="edge2" class="edge">
<title>j2177044498&#45;&gt;j861193032</title>
<path fill="none" stroke="black" d="M1221.98,-1799.52C997.01,-1783.56 679.76,-1761.06 545.5,-1751.54"/>
<polygon fill="black" stroke="black" points="545.97,-1748.06 535.74,-1750.85 545.47,-1755.05 545.97,-1748.06"/>
</g>
<!-- j1054051375 -->
<g id="node4" class="node">
<title>j1054051375</title>
<polygon fill="none" stroke="red" points="1181.5,-1764 999.5,-1764 999.5,-1728 1181.5,-1728 1181.5,-1764"/>
<text text-anchor="middle" x="1090.5" y="-1742.3" font-family="Times New Roman,serif" font-size="14.00">O torneio de luta clandestina?</text>
</g>
<!-- j2177044498&#45;&gt;j1054051375 -->
<g id="edge3" class="edge">
<title>j2177044498&#45;&gt;j1054051375</title>
<path fill="none" stroke="black" d="M1374.09,-1799.52C1318.94,-1789.3 1249.32,-1776.41 1192.86,-1765.96"/>
<polygon fill="black" stroke="black" points="1193.71,-1762.55 1183.24,-1764.17 1192.44,-1769.44 1193.71,-1762.55"/>
</g>
<!-- j3609717062 -->
<g id="node5" class="node">
<title>j3609717062</title>
<polygon fill="none" stroke="red" points="1513,-1764 1424,-1764 1424,-1728 1513,-1728 1513,-1764"/>
<text text-anchor="middle" x="1468.5" y="-1742.3" font-family="Times New Roman,serif" font-size="14.00">O shopping?</text>
</g>
<!-- j2177044498&#45;&gt;j3609717062 -->
<g id="edge4" class="edge">
<title>j2177044498&#45;&gt;j3609717062</title>
<path fill="none" stroke="black" d="M1468.5,-1799.7C1468.5,-1792.41 1468.5,-1783.73 1468.5,-1775.54"/>
<polygon fill="black" stroke="black" points="1472,-1775.62 1468.5,-1765.62 1465,-1775.62 1472,-1775.62"/>
</g>
<!-- j4214000908 -->
<g id="node6" class="node">
<title>j4214000908</title>
<polygon fill="none" stroke="red" points="1880,-1764 1779,-1764 1779,-1728 1880,-1728 1880,-1764"/>
<text text-anchor="middle" x="1829.5" y="-1742.3" font-family="Times New Roman,serif" font-size="14.00">Não faço ideia </text>
</g>
<!-- j2177044498&#45;&gt;j4214000908 -->
<g id="edge5" class="edge">
<title>j2177044498&#45;&gt;j4214000908</title>
<path fill="none" stroke="black" d="M1558.66,-1799.52C1623.76,-1786.89 1709.98,-1770.17 1767.48,-1759.03"/>
<polygon fill="black" stroke="black" points="1767.94,-1762.5 1777.09,-1757.16 1766.61,-1755.63 1767.94,-1762.5"/>
</g>
<!-- j1104442839 -->
<g id="node7" class="node">
<title>j1104442839</title>
<polygon fill="none" stroke="red" points="2290,-1764 2033,-1764 2033,-1728 2290,-1728 2290,-1764"/>
<text text-anchor="middle" x="2161.5" y="-1742.3" font-family="Times New Roman,serif" font-size="14.00">Não, nem quero saber [Encerrar Conversa]</text>
</g>
<!-- j2177044498&#45;&gt;j1104442839 -->
<g id="edge6" class="edge">
<title>j2177044498&#45;&gt;j1104442839</title>
<path fill="none" stroke="black" d="M1641.59,-1799.52C1758.83,-1787.67 1911.77,-1772.23 2021.37,-1761.15"/>
<polygon fill="black" stroke="black" points="2021.4,-1764.67 2031,-1760.18 2020.7,-1757.7 2021.4,-1764.67"/>
</g>
<!-- j3029584649 -->
<g id="node8" class="node">
<title>j3029584649</title>
<polygon fill="none" stroke="blue" points="515,-1692 0,-1692 0,-1656 515,-1656 515,-1692"/>
<text text-anchor="middle" x="257.5" y="-1670.3" font-family="Times New Roman,serif" font-size="14.00">Ah, Deuses… pessoas cirurgicamente bonitas ficando malucas com drogas ilícitas? Não </text>
</g>
<!-- j861193032&#45;&gt;j3029584649 -->
<g id="edge7" class="edge">
<title>j861193032&#45;&gt;j3029584649</title>
<path fill="none" stroke="black" d="M428.7,-1728.5C397.42,-1718.72 357.5,-1706.25 324.07,-1695.8"/>
<polygon fill="black" stroke="black" points="325.5,-1692.58 314.91,-1692.94 323.41,-1699.26 325.5,-1692.58"/>
</g>
<!-- j3750619120 -->
<g id="node9" class="node">
<title>j3750619120</title>
<polygon fill="none" stroke="blue" points="1049.5,-1692 533.5,-1692 533.5,-1656 1049.5,-1656 1049.5,-1692"/>
<text text-anchor="middle" x="791.5" y="-1670.3" font-family="Times New Roman,serif" font-size="14.00">Olha, não tenho nada contra assistir a um par de caras suados se enfrentando… mas não </text>
</g>
<!-- j1054051375&#45;&gt;j3750619120 -->
<g id="edge8" class="edge">
<title>j1054051375&#45;&gt;j3750619120</title>
<path fill="none" stroke="black" d="M1015.82,-1727.52C973.64,-1717.64 920.76,-1705.26 876.94,-1695"/>
<polygon fill="black" stroke="black" points="878.01,-1691.66 867.48,-1692.79 876.42,-1698.47 878.01,-1691.66"/>
</g>
<!-- j638650616 -->
<g id="node10" class="node">
<title>j638650616</title>
<polygon fill="none" stroke="blue" points="1869,-1692 1068,-1692 1068,-1656 1869,-1656 1869,-1692"/>
<text text-anchor="middle" x="1468.5" y="-1670.3" font-family="Times New Roman,serif" font-size="14.00">Bom palpite. Você poderia obter qualquer coisa, desde um combo de bolsa e luva Bresslin até um globo ocular humano no gelo… mas não </text>
</g>
<!-- j3609717062&#45;&gt;j638650616 -->
<g id="edge9" class="edge">
<title>j3609717062&#45;&gt;j638650616</title>
<path fill="none" stroke="black" d="M1468.5,-1727.7C1468.5,-1720.41 1468.5,-1711.73 1468.5,-1703.54"/>
<polygon fill="black" stroke="black" points="1472,-1703.62 1468.5,-1693.62 1465,-1703.62 1472,-1703.62"/>
</g>
<!-- j567934836 -->
<g id="node11" class="node">
<title>j567934836</title>
<polygon fill="none" stroke="blue" points="2269.5,-1692 1887.5,-1692 1887.5,-1656 2269.5,-1656 2269.5,-1692"/>
<text text-anchor="middle" x="2078.5" y="-1670.3" font-family="Times New Roman,serif" font-size="14.00">Bem, é claro que você não faz ideia. Você acabou de chegar aqui</text>
</g>
<!-- j4214000908&#45;&gt;j567934836 -->
<g id="edge10" class="edge">
<title>j4214000908&#45;&gt;j567934836</title>
<path fill="none" stroke="black" d="M1880.49,-1730.67C1916.51,-1720.54 1965.33,-1706.81 2005.48,-1695.53"/>
<polygon fill="black" stroke="black" points="2006.42,-1698.9 2015.1,-1692.82 2004.53,-1692.16 2006.42,-1698.9"/>
</g>
<!-- j826146988 -->
<g id="node12" class="node">
<title>j826146988</title>
<polygon fill="none" stroke="blue" points="2324.5,-1620 2270.5,-1620 2270.5,-1584 2324.5,-1584 2324.5,-1620"/>
<text text-anchor="middle" x="2297.5" y="-1598.3" font-family="Times New Roman,serif" font-size="14.00">Aff </text>
</g>
<!-- j1104442839&#45;&gt;j826146988 -->
<g id="edge11" class="edge">
<title>j1104442839&#45;&gt;j826146988</title>
<path fill="none" stroke="black" d="M2227.58,-1727.55C2246.5,-1719.56 2265.49,-1708.15 2278.5,-1692 2292.14,-1675.06 2296.6,-1650.61 2297.82,-1631.62"/>
<polygon fill="black" stroke="black" points="2301.31,-1631.97 2298.16,-1621.85 2294.31,-1631.73 2301.31,-1631.97"/>
</g>
<!-- j1958589004 -->
<g id="node13" class="node">
<title>j1958589004</title>
<polygon fill="none" stroke="blue" points="1044,-1620 917,-1620 917,-1584 1044,-1584 1044,-1620"/>
<text text-anchor="middle" x="980.5" y="-1598.3" font-family="Times New Roman,serif" font-size="14.00">As casas de banho!</text>
</g>
<!-- j3029584649&#45;&gt;j1958589004 -->
<g id="edge12" class="edge">
<title>j3029584649&#45;&gt;j1958589004</title>
<path fill="none" stroke="black" d="M438.08,-1655.52C588.76,-1640.93 795.93,-1620.87 905.51,-1610.26"/>
<polygon fill="black" stroke="black" points="905.64,-1613.76 915.26,-1609.32 904.97,-1606.8 905.64,-1613.76"/>
</g>
<!-- j3750619120&#45;&gt;j1958589004 -->
<g id="edge13" class="edge">
<title>j3750619120&#45;&gt;j1958589004</title>
<path fill="none" stroke="black" d="M838.71,-1655.52C864.28,-1646.04 896.09,-1634.26 923.1,-1624.26"/>
<polygon fill="black" stroke="black" points="923.99,-1627.66 932.15,-1620.91 921.56,-1621.1 923.99,-1627.66"/>
</g>
<!-- j638650616&#45;&gt;j1958589004 -->
<g id="edge14" class="edge">
<title>j638650616&#45;&gt;j1958589004</title>
<path fill="none" stroke="black" d="M1346.62,-1655.52C1255.13,-1642.39 1132.79,-1624.84 1055.29,-1613.73"/>
<polygon fill="black" stroke="black" points="1056.09,-1610.31 1045.69,-1612.35 1055.1,-1617.24 1056.09,-1610.31"/>
</g>
<!-- j567934836&#45;&gt;j1958589004 -->
<g id="edge15" class="edge">
<title>j567934836&#45;&gt;j1958589004</title>
<path fill="none" stroke="black" d="M1887.17,-1656.63C1884.26,-1656.42 1881.37,-1656.21 1878.5,-1656 1573.42,-1634.04 1209.56,-1614.66 1055.41,-1606.77"/>
<polygon fill="black" stroke="black" points="1055.91,-1603.29 1045.74,-1606.27 1055.55,-1610.28 1055.91,-1603.29"/>
</g>
<!-- Chat ends. -->
<g id="node14" class="node">
<title>Chat ends.</title>
<ellipse fill="none" stroke="orange" cx="1355.5" cy="-18" rx="50.09" ry="18"/>
<text text-anchor="middle" x="1355.5" y="-14.3" font-family="Times New Roman,serif" font-size="14.00">Chat ends.</text>
</g>
<!-- j826146988&#45;&gt;Chat ends. -->
<g id="edge16" class="edge">
<title>j826146988&#45;&gt;Chat ends.</title>
<path fill="none" stroke="black" d="M2297.5,-1583.51C2297.5,-1556.71 2297.5,-1503.87 2297.5,-1459 2297.5,-1459 2297.5,-1459 2297.5,-161 2297.5,-55.52 2180.23,-95.93 2077.5,-72 1952.46,-42.87 1567.16,-26.48 1416.64,-21.05"/>
<polygon fill="black" stroke="black" points="1417,-17.56 1406.88,-20.7 1416.75,-24.55 1417,-17.56"/>
</g>
<!-- j474753894 -->
<g id="node15" class="node">
<title>j474753894</title>
<polygon fill="none" stroke="blue" points="1883.5,-1548 77.5,-1548 77.5,-1512 1883.5,-1512 1883.5,-1548"/>
<text text-anchor="middle" x="980.5" y="-1526.3" font-family="Times New Roman,serif" font-size="14.00">Não sei se tem algo assim onde você está. São esses templos (suponho que você os chamaria assim), geralmente com um conjunto de salas do Sol e um conjunto da Lua. Você pode ficar de molho em uma piscina pública ou particular. Tudo tem cheiro de ervas e vapor, e é TÃO BOM para colocar sua cabeça no lugar </text>
</g>
<!-- j1958589004&#45;&gt;j474753894 -->
<g id="edge17" class="edge">
<title>j1958589004&#45;&gt;j474753894</title>
<path fill="none" stroke="black" d="M980.5,-1583.7C980.5,-1576.41 980.5,-1567.73 980.5,-1559.54"/>
<polygon fill="black" stroke="black" points="984,-1559.62 980.5,-1549.62 977,-1559.62 984,-1559.62"/>
</g>
<!-- j3955023119 -->
<g id="node16" class="node">
<title>j3955023119</title>
<polygon fill="none" stroke="blue" points="1449,-1476 512,-1476 512,-1440 1449,-1440 1449,-1476"/>
<text text-anchor="middle" x="980.5" y="-1454.3" font-family="Times New Roman,serif" font-size="14.00">Holvânia sempre teve essa tradição extremamente importante de ritual de limpeza. Acho que isso vem desde as fontes termais sobre as quais a cidade foi construída </text>
</g>
<!-- j474753894&#45;&gt;j3955023119 -->
<g id="edge18" class="edge">
<title>j474753894&#45;&gt;j3955023119</title>
<path fill="none" stroke="black" d="M980.5,-1511.7C980.5,-1504.41 980.5,-1495.73 980.5,-1487.54"/>
<polygon fill="black" stroke="black" points="984,-1487.62 980.5,-1477.62 977,-1487.62 984,-1487.62"/>
</g>
<!-- j1179651399 -->
<g id="node17" class="node">
<title>j1179651399</title>
<polygon fill="none" stroke="blue" points="1371.5,-1404 589.5,-1404 589.5,-1368 1371.5,-1368 1371.5,-1404"/>
<text text-anchor="middle" x="980.5" y="-1382.3" font-family="Times New Roman,serif" font-size="14.00">Toda essa besteira de &quot;pureza&quot; que o Vitor fala? Ele está cantando uma música antiga. Todos os cidadãos sabem do que ele está falando</text>
</g>
<!-- j3955023119&#45;&gt;j1179651399 -->
<g id="edge19" class="edge">
<title>j3955023119&#45;&gt;j1179651399</title>
<path fill="none" stroke="black" d="M980.5,-1439.7C980.5,-1432.41 980.5,-1423.73 980.5,-1415.54"/>
<polygon fill="black" stroke="black" points="984,-1415.62 980.5,-1405.62 977,-1415.62 984,-1415.62"/>
</g>
<!-- j4293422225 -->
<g id="node18" class="node">
<title>j4293422225</title>
<polygon fill="none" stroke="blue" points="1451,-1332 510,-1332 510,-1296 1451,-1296 1451,-1332"/>
<text text-anchor="middle" x="980.5" y="-1310.3" font-family="Times New Roman,serif" font-size="14.00">Eu adorava pagar Hólares extras para que um profissional musculoso massageasse toda a tensão dos meus músculos. Você teria adorado. Tenho certeza de que sim </text>
</g>
<!-- j1179651399&#45;&gt;j4293422225 -->
<g id="edge20" class="edge">
<title>j1179651399&#45;&gt;j4293422225</title>
<path fill="none" stroke="black" d="M980.5,-1367.7C980.5,-1360.41 980.5,-1351.73 980.5,-1343.54"/>
<polygon fill="black" stroke="black" points="984,-1343.62 980.5,-1333.62 977,-1343.62 984,-1343.62"/>
</g>
<!-- j1148913824 -->
<g id="node19" class="node">
<title>j1148913824</title>
<polygon fill="none" stroke="red" points="797,-1260 480,-1260 480,-1224 797,-1224 797,-1260"/>
<text text-anchor="middle" x="638.5" y="-1238.3" font-family="Times New Roman,serif" font-size="14.00">Não tenho tanta certeza disso… parece meio estranho</text>
</g>
<!-- j4293422225&#45;&gt;j1148913824 -->
<g id="edge21" class="edge">
<title>j4293422225&#45;&gt;j1148913824</title>
<path fill="none" stroke="black" d="M895.08,-1295.52C846.43,-1285.56 785.33,-1273.05 734.95,-1262.74"/>
<polygon fill="black" stroke="black" points="735.7,-1259.32 725.2,-1260.75 734.3,-1266.18 735.7,-1259.32"/>
</g>
<!-- j3837027898 -->
<g id="node20" class="node">
<title>j3837027898</title>
<polygon fill="none" stroke="red" points="1073,-1260 888,-1260 888,-1224 1073,-1224 1073,-1260"/>
<text text-anchor="middle" x="980.5" y="-1238.3" font-family="Times New Roman,serif" font-size="14.00">Acho que eu ia adorar mesmo</text>
</g>
<!-- j4293422225&#45;&gt;j3837027898 -->
<g id="edge22" class="edge">
<title>j4293422225&#45;&gt;j3837027898</title>
<path fill="none" stroke="black" d="M980.5,-1295.7C980.5,-1288.41 980.5,-1279.73 980.5,-1271.54"/>
<polygon fill="black" stroke="black" points="984,-1271.62 980.5,-1261.62 977,-1271.62 984,-1271.62"/>
</g>
<!-- j2016082877 -->
<g id="node21" class="node">
<title>j2016082877</title>
<polygon fill="none" stroke="red" points="1429.5,-1260 1259.5,-1260 1259.5,-1224 1429.5,-1224 1429.5,-1260"/>
<text text-anchor="middle" x="1344.5" y="-1238.3" font-family="Times New Roman,serif" font-size="14.00">O que aconteceu com elas?</text>
</g>
<!-- j4293422225&#45;&gt;j2016082877 -->
<g id="edge23" class="edge">
<title>j4293422225&#45;&gt;j2016082877</title>
<path fill="none" stroke="black" d="M1071.41,-1295.52C1125.2,-1285.17 1193.27,-1272.08 1248,-1261.56"/>
<polygon fill="black" stroke="black" points="1248.47,-1265.03 1257.63,-1259.71 1247.15,-1258.16 1248.47,-1265.03"/>
</g>
<!-- j1156972543 -->
<g id="node22" class="node">
<title>j1156972543</title>
<polygon fill="none" stroke="blue" points="849.5,-1188 241.5,-1188 241.5,-1152 849.5,-1152 849.5,-1188"/>
<text text-anchor="middle" x="545.5" y="-1166.3" font-family="Times New Roman,serif" font-size="14.00">Você anda por aí em um traje feito de um corpo humano infestado, mas traça seu limite em &quot;massagens&quot;?</text>
</g>
<!-- j1148913824&#45;&gt;j1156972543 -->
<g id="edge24" class="edge">
<title>j1148913824&#45;&gt;j1156972543</title>
<path fill="none" stroke="black" d="M615.51,-1223.7C604.11,-1215.11 590.15,-1204.61 577.7,-1195.24"/>
<polygon fill="black" stroke="black" points="579.85,-1192.47 569.76,-1189.26 575.64,-1198.07 579.85,-1192.47"/>
</g>
<!-- j2583714407 -->
<g id="node23" class="node">
<title>j2583714407</title>
<polygon fill="none" stroke="blue" points="1073.5,-1188 887.5,-1188 887.5,-1152 1073.5,-1152 1073.5,-1188"/>
<text text-anchor="middle" x="980.5" y="-1166.3" font-family="Times New Roman,serif" font-size="14.00">Sabia que você era o meu tipo</text>
</g>
<!-- j3837027898&#45;&gt;j2583714407 -->
<g id="edge25" class="edge">
<title>j3837027898&#45;&gt;j2583714407</title>
<path fill="none" stroke="black" d="M980.5,-1223.7C980.5,-1216.41 980.5,-1207.73 980.5,-1199.54"/>
<polygon fill="black" stroke="black" points="984,-1199.62 980.5,-1189.62 977,-1199.62 984,-1199.62"/>
</g>
<!-- j2357439638 -->
<g id="node24" class="node">
<title>j2357439638</title>
<polygon fill="none" stroke="blue" points="2269,-1116 1426,-1116 1426,-1080 2269,-1080 2269,-1116"/>
<text text-anchor="middle" x="1847.5" y="-1094.3" font-family="Times New Roman,serif" font-size="14.00">Certeza que você pode imaginar. O Tecnovírus destruiu muita coisa. Não tinha como as casas de banho permanecerem abertas depois da epidemia </text>
</g>
<!-- j2016082877&#45;&gt;j2357439638 -->
<g id="edge26" class="edge">
<title>j2016082877&#45;&gt;j2357439638</title>
<path fill="none" stroke="black" d="M1406.43,-1223.52C1499.7,-1197.19 1675.83,-1147.46 1774.97,-1119.48"/>
<polygon fill="black" stroke="black" points="1775.65,-1122.92 1784.33,-1116.83 1773.75,-1116.18 1775.65,-1122.92"/>
</g>
<!-- j1128371571 -->
<g id="node25" class="node">
<title>j1128371571</title>
<polygon fill="none" stroke="blue" points="576.5,-1044 490.5,-1044 490.5,-1008 576.5,-1008 576.5,-1044"/>
<text text-anchor="middle" x="533.5" y="-1022.3" font-family="Times New Roman,serif" font-size="14.00">Vai entender</text>
</g>
<!-- j1156972543&#45;&gt;j1128371571 -->
<g id="edge27" class="edge">
<title>j1156972543&#45;&gt;j1128371571</title>
<path fill="none" stroke="black" d="M544.03,-1151.59C542,-1127.61 538.33,-1084.14 535.9,-1055.42"/>
<polygon fill="black" stroke="black" points="539.4,-1055.29 535.07,-1045.62 532.43,-1055.88 539.4,-1055.29"/>
</g>
<!-- j1076085537 -->
<g id="node26" class="node">
<title>j1076085537</title>
<polygon fill="none" stroke="blue" points="1407.5,-1116 553.5,-1116 553.5,-1080 1407.5,-1080 1407.5,-1116"/>
<text text-anchor="middle" x="980.5" y="-1094.3" font-family="Times New Roman,serif" font-size="14.00">Gostaria que os outros fossem um pouco mais relaxados. Infelizmente, não tinha como as casas de banho permanecerem abertas depois da epidemia </text>
</g>
<!-- j2583714407&#45;&gt;j1076085537 -->
<g id="edge28" class="edge">
<title>j2583714407&#45;&gt;j1076085537</title>
<path fill="none" stroke="black" d="M980.5,-1151.7C980.5,-1144.41 980.5,-1135.73 980.5,-1127.54"/>
<polygon fill="black" stroke="black" points="984,-1127.62 980.5,-1117.62 977,-1127.62 984,-1127.62"/>
</g>
<!-- j481290063 -->
<g id="node27" class="node">
<title>j481290063</title>
<polygon fill="none" stroke="blue" points="2025,-1044 836,-1044 836,-1008 2025,-1008 2025,-1044"/>
<text text-anchor="middle" x="1430.5" y="-1022.3" font-family="Times New Roman,serif" font-size="14.00">Pelo que vi, algumas delas são basicamente poços de desova agora. Para dizer a verdade, isso parte meu coração. Lembro de encontrar pisos de mármore e mosaico de 1000 anos cobertos por carne rastejante </text>
</g>
<!-- j2357439638&#45;&gt;j481290063 -->
<g id="edge29" class="edge">
<title>j2357439638&#45;&gt;j481290063</title>
<path fill="none" stroke="black" d="M1743.35,-1079.52C1683.16,-1069.41 1607.33,-1056.68 1545.4,-1046.29"/>
<polygon fill="black" stroke="black" points="1546.34,-1042.9 1535.9,-1044.69 1545.18,-1049.8 1546.34,-1042.9"/>
</g>
<!-- j1128371571&#45;&gt;Chat ends. -->
<g id="edge30" class="edge">
<title>j1128371571&#45;&gt;Chat ends.</title>
<path fill="none" stroke="black" d="M539.98,-1007.79C549.33,-981.36 565.5,-928.99 565.5,-883 565.5,-883 565.5,-883 565.5,-161 565.5,-86.9 1110.8,-37.91 1295.31,-23.46"/>
<polygon fill="black" stroke="black" points="1295.47,-26.95 1305.17,-22.69 1294.93,-19.98 1295.47,-26.95"/>
</g>
<!-- j1076085537&#45;&gt;j481290063 -->
<g id="edge31" class="edge">
<title>j1076085537&#45;&gt;j481290063</title>
<path fill="none" stroke="black" d="M1092.89,-1079.52C1158.12,-1069.37 1240.35,-1056.58 1307.33,-1046.16"/>
<polygon fill="black" stroke="black" points="1307.53,-1049.67 1316.87,-1044.68 1306.46,-1042.75 1307.53,-1049.67"/>
</g>
<!-- j4140220628 -->
<g id="node28" class="node">
<title>j4140220628</title>
<polygon fill="none" stroke="blue" points="1577,-972 1284,-972 1284,-936 1577,-936 1577,-972"/>
<text text-anchor="middle" x="1430.5" y="-950.3" font-family="Times New Roman,serif" font-size="14.00">Você tem algo parecido com isso em seu tempo?</text>
</g>
<!-- j481290063&#45;&gt;j4140220628 -->
<g id="edge32" class="edge">
<title>j481290063&#45;&gt;j4140220628</title>
<path fill="none" stroke="black" d="M1430.5,-1007.7C1430.5,-1000.41 1430.5,-991.73 1430.5,-983.54"/>
<polygon fill="black" stroke="black" points="1434,-983.62 1430.5,-973.62 1427,-983.62 1434,-983.62"/>
</g>
<!-- j2351217547 -->
<g id="node29" class="node">
<title>j2351217547</title>
<polygon fill="none" stroke="red" points="1599.5,-900 1261.5,-900 1261.5,-864 1599.5,-864 1599.5,-900"/>
<text text-anchor="middle" x="1430.5" y="-878.3" font-family="Times New Roman,serif" font-size="14.00">Casas de banho públicas e sagradas? Definitivamente não</text>
</g>
<!-- j4140220628&#45;&gt;j2351217547 -->
<g id="edge33" class="edge">
<title>j4140220628&#45;&gt;j2351217547</title>
<path fill="none" stroke="black" d="M1430.5,-935.7C1430.5,-928.41 1430.5,-919.73 1430.5,-911.54"/>
<polygon fill="black" stroke="black" points="1434,-911.62 1430.5,-901.62 1427,-911.62 1434,-911.62"/>
</g>
<!-- j1782870653 -->
<g id="node30" class="node">
<title>j1782870653</title>
<polygon fill="none" stroke="blue" points="1562,-828 1299,-828 1299,-792 1562,-792 1562,-828"/>
<text text-anchor="middle" x="1430.5" y="-806.3" font-family="Times New Roman,serif" font-size="14.00">Então, o que as pessoas fazem para relaxar?</text>
</g>
<!-- j2351217547&#45;&gt;j1782870653 -->
<g id="edge34" class="edge">
<title>j2351217547&#45;&gt;j1782870653</title>
<path fill="none" stroke="black" d="M1430.5,-863.7C1430.5,-856.41 1430.5,-847.73 1430.5,-839.54"/>
<polygon fill="black" stroke="black" points="1434,-839.62 1430.5,-829.62 1427,-839.62 1434,-839.62"/>
</g>
<!-- j860344641 -->
<g id="node31" class="node">
<title>j860344641</title>
<polygon fill="none" stroke="red" points="1210.5,-756 1058.5,-756 1058.5,-720 1210.5,-720 1210.5,-756"/>
<text text-anchor="middle" x="1134.5" y="-734.3" font-family="Times New Roman,serif" font-size="14.00">A gente tem o Rathuum </text>
</g>
<!-- j1782870653&#45;&gt;j860344641 -->
<g id="edge35" class="edge">
<title>j1782870653&#45;&gt;j860344641</title>
<path fill="none" stroke="black" d="M1356.57,-791.52C1314.91,-781.66 1262.69,-769.31 1219.36,-759.07"/>
<polygon fill="black" stroke="black" points="1220.27,-755.69 1209.73,-756.79 1218.66,-762.5 1220.27,-755.69"/>
</g>
<!-- j493161311 -->
<g id="node32" class="node">
<title>j493161311</title>
<polygon fill="none" stroke="red" points="1527,-756 1334,-756 1334,-720 1527,-720 1527,-756"/>
<text text-anchor="middle" x="1430.5" y="-734.3" font-family="Times New Roman,serif" font-size="14.00">Tem gente que aposta no Index</text>
</g>
<!-- j1782870653&#45;&gt;j493161311 -->
<g id="edge36" class="edge">
<title>j1782870653&#45;&gt;j493161311</title>
<path fill="none" stroke="black" d="M1430.5,-791.7C1430.5,-784.41 1430.5,-775.73 1430.5,-767.54"/>
<polygon fill="black" stroke="black" points="1434,-767.62 1430.5,-757.62 1427,-767.62 1434,-767.62"/>
</g>
<!-- j325069974 -->
<g id="node33" class="node">
<title>j325069974</title>
<polygon fill="none" stroke="red" points="1804.5,-756 1644.5,-756 1644.5,-720 1804.5,-720 1804.5,-756"/>
<text text-anchor="middle" x="1724.5" y="-734.3" font-family="Times New Roman,serif" font-size="14.00">O Komi existe faz tempo </text>
</g>
<!-- j1782870653&#45;&gt;j325069974 -->
<g id="edge37" class="edge">
<title>j1782870653&#45;&gt;j325069974</title>
<path fill="none" stroke="black" d="M1503.93,-791.52C1545.31,-781.66 1597.18,-769.31 1640.22,-759.07"/>
<polygon fill="black" stroke="black" points="1640.85,-762.51 1649.77,-756.79 1639.23,-755.7 1640.85,-762.51"/>
</g>
<!-- j3101914141 -->
<g id="node34" class="node">
<title>j3101914141</title>
<polygon fill="none" stroke="blue" points="1154,-684 905,-684 905,-648 1154,-648 1154,-684"/>
<text text-anchor="middle" x="1029.5" y="-662.3" font-family="Times New Roman,serif" font-size="14.00">Parece o Amir fazendo efeitos sonoros…</text>
</g>
<!-- j860344641&#45;&gt;j3101914141 -->
<g id="edge38" class="edge">
<title>j860344641&#45;&gt;j3101914141</title>
<path fill="none" stroke="black" d="M1108.27,-719.52C1095.15,-710.76 1079.07,-700.04 1064.86,-690.58"/>
<polygon fill="black" stroke="black" points="1066.91,-687.73 1056.65,-685.1 1063.03,-693.56 1066.91,-687.73"/>
</g>
<!-- j30994737 -->
<g id="node35" class="node">
<title>j30994737</title>
<polygon fill="none" stroke="blue" points="1517,-684 1344,-684 1344,-648 1517,-648 1517,-684"/>
<text text-anchor="middle" x="1430.5" y="-662.3" font-family="Times New Roman,serif" font-size="14.00">Corretores de investimento?</text>
</g>
<!-- j493161311&#45;&gt;j30994737 -->
<g id="edge39" class="edge">
<title>j493161311&#45;&gt;j30994737</title>
<path fill="none" stroke="black" d="M1430.5,-719.7C1430.5,-712.41 1430.5,-703.73 1430.5,-695.54"/>
<polygon fill="black" stroke="black" points="1434,-695.62 1430.5,-685.62 1427,-695.62 1434,-695.62"/>
</g>
<!-- j336401035 -->
<g id="node36" class="node">
<title>j336401035</title>
<polygon fill="none" stroke="blue" points="2025.5,-684 1621.5,-684 1621.5,-648 2025.5,-648 2025.5,-684"/>
<text text-anchor="middle" x="1823.5" y="-662.3" font-family="Times New Roman,serif" font-size="14.00">Komi? Peças pretas e brancas? A guerra nupcial entre o Sol e a Lua? </text>
</g>
<!-- j325069974&#45;&gt;j336401035 -->
<g id="edge40" class="edge">
<title>j325069974&#45;&gt;j336401035</title>
<path fill="none" stroke="black" d="M1749.23,-719.52C1761.49,-710.85 1776.48,-700.25 1789.77,-690.85"/>
<polygon fill="black" stroke="black" points="1791.71,-693.77 1797.85,-685.13 1787.67,-688.05 1791.71,-693.77"/>
</g>
<!-- j2761898303 -->
<g id="node37" class="node">
<title>j2761898303</title>
<polygon fill="none" stroke="red" points="1113.5,-612 601.5,-612 601.5,-576 1113.5,-576 1113.5,-612"/>
<text text-anchor="middle" x="857.5" y="-590.3" font-family="Times New Roman,serif" font-size="14.00">É coisa dos Grineer. É uma arena de combate ritualístico transmitido pra todo o sistema </text>
</g>
<!-- j3101914141&#45;&gt;j2761898303 -->
<g id="edge41" class="edge">
<title>j3101914141&#45;&gt;j2761898303</title>
<path fill="none" stroke="black" d="M986.54,-647.52C963.57,-638.17 935.08,-626.57 910.72,-616.66"/>
<polygon fill="black" stroke="black" points="912.19,-613.48 901.61,-612.95 909.55,-619.96 912.19,-613.48"/>
</g>
<!-- j1412627363 -->
<g id="node38" class="node">
<title>j1412627363</title>
<polygon fill="none" stroke="red" points="1729,-612 1132,-612 1132,-576 1729,-576 1729,-612"/>
<text text-anchor="middle" x="1430.5" y="-590.3" font-family="Times New Roman,serif" font-size="14.00">Mais ou menos… é tipo uma combinação de investimento de ações e violência. Eu sei, parece estranho </text>
</g>
<!-- j30994737&#45;&gt;j1412627363 -->
<g id="edge42" class="edge">
<title>j30994737&#45;&gt;j1412627363</title>
<path fill="none" stroke="black" d="M1430.5,-647.7C1430.5,-640.41 1430.5,-631.73 1430.5,-623.54"/>
<polygon fill="black" stroke="black" points="1434,-623.62 1430.5,-613.62 1427,-623.62 1434,-623.62"/>
</g>
<!-- j3267407810 -->
<g id="node39" class="node">
<title>j3267407810</title>
<polygon fill="none" stroke="red" points="2074,-612 1747,-612 1747,-576 2074,-576 2074,-612"/>
<text text-anchor="middle" x="1910.5" y="-590.3" font-family="Times New Roman,serif" font-size="14.00">Uh… na real, sim. Peraí, é isso que o Komi representa?</text>
</g>
<!-- j336401035&#45;&gt;j3267407810 -->
<g id="edge43" class="edge">
<title>j336401035&#45;&gt;j3267407810</title>
<path fill="none" stroke="black" d="M1845.01,-647.7C1855.57,-639.2 1868.48,-628.81 1880.03,-619.51"/>
<polygon fill="black" stroke="black" points="1882.16,-622.29 1887.76,-613.3 1877.78,-616.84 1882.16,-622.29"/>
</g>
<!-- j2585630054 -->
<g id="node40" class="node">
<title>j2585630054</title>
<polygon fill="none" stroke="red" points="1024.5,-540 692.5,-540 692.5,-504 1024.5,-504 1024.5,-540"/>
<text text-anchor="middle" x="858.5" y="-518.3" font-family="Times New Roman,serif" font-size="14.00">É um treco importante pra eles. Mortalmente importante </text>
</g>
<!-- j2761898303&#45;&gt;j2585630054 -->
<g id="edge44" class="edge">
<title>j2761898303&#45;&gt;j2585630054</title>
<path fill="none" stroke="black" d="M857.75,-575.7C857.85,-568.41 857.98,-559.73 858.09,-551.54"/>
<polygon fill="black" stroke="black" points="861.59,-551.67 858.23,-541.62 854.59,-551.57 861.59,-551.67"/>
</g>
<!-- j2172459578 -->
<g id="node41" class="node">
<title>j2172459578</title>
<polygon fill="none" stroke="red" points="1583,-540 1278,-540 1278,-504 1583,-504 1583,-540"/>
<text text-anchor="middle" x="1430.5" y="-518.3" font-family="Times New Roman,serif" font-size="14.00">Os Corpus ficam completamente pirados com isso </text>
</g>
<!-- j1412627363&#45;&gt;j2172459578 -->
<g id="edge45" class="edge">
<title>j1412627363&#45;&gt;j2172459578</title>
<path fill="none" stroke="black" d="M1430.5,-575.7C1430.5,-568.41 1430.5,-559.73 1430.5,-551.54"/>
<polygon fill="black" stroke="black" points="1434,-551.62 1430.5,-541.62 1427,-551.62 1434,-551.62"/>
</g>
<!-- j2532486074 -->
<g id="node42" class="node">
<title>j2532486074</title>
<polygon fill="none" stroke="red" points="2066.5,-540 1754.5,-540 1754.5,-504 2066.5,-504 2066.5,-540"/>
<text text-anchor="middle" x="1910.5" y="-518.3" font-family="Times New Roman,serif" font-size="14.00">A gente só conhece isso como um jogo de tabuleiro!</text>
</g>
<!-- j3267407810&#45;&gt;j2532486074 -->
<g id="edge46" class="edge">
<title>j3267407810&#45;&gt;j2532486074</title>
<path fill="none" stroke="black" d="M1910.5,-575.7C1910.5,-568.41 1910.5,-559.73 1910.5,-551.54"/>
<polygon fill="black" stroke="black" points="1914,-551.62 1910.5,-541.62 1907,-551.62 1914,-551.62"/>
</g>
<!-- j3125760595 -->
<g id="node43" class="node">
<title>j3125760595</title>
<polygon fill="none" stroke="blue" points="1101,-468 618,-468 618,-432 1101,-432 1101,-468"/>
<text text-anchor="middle" x="859.5" y="-446.3" font-family="Times New Roman,serif" font-size="14.00">O papai e o Arthur costumavam assistir à luta livre juntos todos os sábados à noite </text>
</g>
<!-- j2585630054&#45;&gt;j3125760595 -->
<g id="edge47" class="edge">
<title>j2585630054&#45;&gt;j3125760595</title>
<path fill="none" stroke="black" d="M858.75,-503.7C858.85,-496.41 858.98,-487.73 859.09,-479.54"/>
<polygon fill="black" stroke="black" points="862.59,-479.67 859.23,-469.62 855.59,-479.57 862.59,-479.67"/>
</g>
<!-- j2590090064 -->
<g id="node44" class="node">
<title>j2590090064</title>
<polygon fill="none" stroke="blue" points="1737,-468 1122,-468 1122,-432 1737,-432 1737,-468"/>
<text text-anchor="middle" x="1429.5" y="-446.3" font-family="Times New Roman,serif" font-size="14.00">Mas eles são seus inimigos, não são? Ou existe algum tipo de trégua quando se trata de esportes coletivos?</text>
</g>
<!-- j2172459578&#45;&gt;j2590090064 -->
<g id="edge48" class="edge">
<title>j2172459578&#45;&gt;j2590090064</title>
<path fill="none" stroke="black" d="M1430.25,-503.7C1430.15,-496.41 1430.02,-487.73 1429.91,-479.54"/>
<polygon fill="black" stroke="black" points="1433.41,-479.57 1429.77,-469.62 1426.41,-479.67 1433.41,-479.57"/>
</g>
<!-- j4006705953 -->
<g id="node45" class="node">
<title>j4006705953</title>
<polygon fill="none" stroke="red" points="2034.5,-468 1786.5,-468 1786.5,-432 2034.5,-432 2034.5,-468"/>
<text text-anchor="middle" x="1910.5" y="-446.3" font-family="Times New Roman,serif" font-size="14.00">Os Orokin adoravam. Tem até em Duviri </text>
</g>
<!-- j2532486074&#45;&gt;j4006705953 -->
<g id="edge49" class="edge">
<title>j2532486074&#45;&gt;j4006705953</title>
<path fill="none" stroke="black" d="M1910.5,-503.7C1910.5,-496.41 1910.5,-487.73 1910.5,-479.54"/>
<polygon fill="black" stroke="black" points="1914,-479.62 1910.5,-469.62 1907,-479.62 1914,-479.62"/>
</g>
<!-- j1921743824 -->
<g id="node46" class="node">
<title>j1921743824</title>
<ellipse fill="none" stroke="orange" cx="889.5" cy="-378" rx="64.19" ry="18"/>
<text text-anchor="middle" x="889.5" y="-374.3" font-family="Times New Roman,serif" font-size="14.00">+10 Chemistry</text>
</g>
<!-- j3125760595&#45;&gt;j1921743824 -->
<g id="edge50" class="edge">
<title>j3125760595&#45;&gt;j1921743824</title>
<path fill="none" stroke="black" d="M866.92,-431.7C870.15,-424.15 874.02,-415.12 877.64,-406.68"/>
<polygon fill="black" stroke="black" points="880.85,-408.07 881.57,-397.5 874.42,-405.31 880.85,-408.07"/>
</g>
<!-- j1562922265 -->
<g id="node47" class="node">
<title>j1562922265</title>
<ellipse fill="none" stroke="orange" cx="1392.5" cy="-378" rx="64.19" ry="18"/>
<text text-anchor="middle" x="1392.5" y="-374.3" font-family="Times New Roman,serif" font-size="14.00">+10 Chemistry</text>
</g>
<!-- j2590090064&#45;&gt;j1562922265 -->
<g id="edge51" class="edge">
<title>j2590090064&#45;&gt;j1562922265</title>
<path fill="none" stroke="black" d="M1420.35,-431.7C1416.28,-423.98 1411.38,-414.71 1406.83,-406.11"/>
<polygon fill="black" stroke="black" points="1410.02,-404.65 1402.25,-397.44 1403.83,-407.92 1410.02,-404.65"/>
</g>
<!-- j3598233211 -->
<g id="node48" class="node">
<title>j3598233211</title>
<polygon fill="none" stroke="red" points="2052.5,-396 1768.5,-396 1768.5,-360 2052.5,-360 2052.5,-396"/>
<text text-anchor="middle" x="1910.5" y="-374.3" font-family="Times New Roman,serif" font-size="14.00">Mas eu não fazia ideia que isso era TÃO antigo </text>
</g>
<!-- j4006705953&#45;&gt;j3598233211 -->
<g id="edge52" class="edge">
<title>j4006705953&#45;&gt;j3598233211</title>
<path fill="none" stroke="black" d="M1910.5,-431.7C1910.5,-424.41 1910.5,-415.73 1910.5,-407.54"/>
<polygon fill="black" stroke="black" points="1914,-407.62 1910.5,-397.62 1907,-407.62 1914,-407.62"/>
</g>
<!-- j311147201 -->
<g id="node49" class="node">
<title>j311147201</title>
<polygon fill="none" stroke="blue" points="1212,-180 745,-180 745,-144 1212,-144 1212,-180"/>
<text text-anchor="middle" x="978.5" y="-158.3" font-family="Times New Roman,serif" font-size="14.00">Se tiver a chance, mostre a ele algumas fitas do Rathuum. Acho que ele adoraria </text>
</g>
<!-- j1921743824&#45;&gt;j311147201 -->
<g id="edge53" class="edge">
<title>j1921743824&#45;&gt;j311147201</title>
<path fill="none" stroke="black" d="M896.63,-359.85C912,-322.91 948.33,-235.55 966.99,-190.67"/>
<polygon fill="black" stroke="black" points="970.14,-192.21 970.75,-181.63 963.68,-189.52 970.14,-192.21"/>
</g>
<!-- j3929990469 -->
<g id="node50" class="node">
<title>j3929990469</title>
<polygon fill="none" stroke="blue" points="1549,-252 1162,-252 1162,-216 1549,-216 1549,-252"/>
<text text-anchor="middle" x="1355.5" y="-230.3" font-family="Times New Roman,serif" font-size="14.00">O que estou dizendo? Claro que sim. É assim que as pessoas são </text>
</g>
<!-- j1562922265&#45;&gt;j3929990469 -->
<g id="edge54" class="edge">
<title>j1562922265&#45;&gt;j3929990469</title>
<path fill="none" stroke="black" d="M1387.96,-359.59C1381.69,-335.5 1370.29,-291.75 1362.8,-263.03"/>
<polygon fill="black" stroke="black" points="1366.25,-262.37 1360.34,-253.58 1359.47,-264.13 1366.25,-262.37"/>
</g>
<!-- j1202316627 -->
<g id="node51" class="node">
<title>j1202316627</title>
<polygon fill="none" stroke="blue" points="2139,-324 1682,-324 1682,-288 2139,-288 2139,-324"/>
<text text-anchor="middle" x="1910.5" y="-302.3" font-family="Times New Roman,serif" font-size="14.00">Antigo? É SAGRADO! Mas também divertido. Uma combinação maravilhosa </text>
</g>
<!-- j3598233211&#45;&gt;j1202316627 -->
<g id="edge55" class="edge">
<title>j3598233211&#45;&gt;j1202316627</title>
<path fill="none" stroke="black" d="M1910.5,-359.7C1910.5,-352.41 1910.5,-343.73 1910.5,-335.54"/>
<polygon fill="black" stroke="black" points="1914,-335.62 1910.5,-325.62 1907,-335.62 1914,-335.62"/>
</g>
<!-- j311147201&#45;&gt;Chat ends. -->
<g id="edge56" class="edge">
<title>j311147201&#45;&gt;Chat ends.</title>
<path fill="none" stroke="black" d="M1024.73,-143.59C1097.85,-116.04 1239.27,-62.78 1311.18,-35.69"/>
<polygon fill="black" stroke="black" points="1312.15,-39.07 1320.27,-32.27 1309.68,-32.52 1312.15,-39.07"/>
</g>
<!-- j3929990469&#45;&gt;Chat ends. -->
<g id="edge57" class="edge">
<title>j3929990469&#45;&gt;Chat ends.</title>
<path fill="none" stroke="black" d="M1355.5,-215.85C1355.5,-179.14 1355.5,-92.66 1355.5,-47.53"/>
<polygon fill="black" stroke="black" points="1359,-47.75 1355.5,-37.75 1352,-47.75 1359,-47.75"/>
</g>
<!-- j737980755 -->
<g id="node52" class="node">
<title>j737980755</title>
<polygon fill="none" stroke="blue" points="2253.5,-252 1567.5,-252 1567.5,-216 2253.5,-216 2253.5,-252"/>
<text text-anchor="middle" x="1910.5" y="-230.3" font-family="Times New Roman,serif" font-size="14.00">Tudo gira em torno dos mesmos dois princípios essenciais, sabe? Mente e corpo. Simbolismo e significado. Sol e Lua </text>
</g>
<!-- j1202316627&#45;&gt;j737980755 -->
<g id="edge58" class="edge">
<title>j1202316627&#45;&gt;j737980755</title>
<path fill="none" stroke="black" d="M1910.5,-287.7C1910.5,-280.41 1910.5,-271.73 1910.5,-263.54"/>
<polygon fill="black" stroke="black" points="1914,-263.62 1910.5,-253.62 1907,-263.62 1914,-263.62"/>
</g>
<!-- j743506075 -->
<g id="node53" class="node">
<title>j743506075</title>
<ellipse fill="none" stroke="orange" cx="1849.5" cy="-162" rx="64.19" ry="18"/>
<text text-anchor="middle" x="1849.5" y="-158.3" font-family="Times New Roman,serif" font-size="14.00">+20 Chemistry</text>
</g>
<!-- j737980755&#45;&gt;j743506075 -->
<g id="edge59" class="edge">
<title>j737980755&#45;&gt;j743506075</title>
<path fill="none" stroke="black" d="M1895.42,-215.7C1888.22,-207.44 1879.47,-197.39 1871.55,-188.3"/>
<polygon fill="black" stroke="black" points="1874.19,-186 1864.98,-180.76 1868.91,-190.6 1874.19,-186"/>
</g>
<!-- j2504064014 -->
<g id="node54" class="node">
<title>j2504064014</title>
<polygon fill="none" stroke="blue" points="2068.5,-108 1506.5,-108 1506.5,-72 2068.5,-72 2068.5,-108"/>
<text text-anchor="middle" x="1787.5" y="-86.3" font-family="Times New Roman,serif" font-size="14.00">O Arthur e eu costumávamos jogar Komi todos os anos no Solstício. Por que será que paramos?</text>
</g>
<!-- j743506075&#45;&gt;j2504064014 -->
<g id="edge60" class="edge">
<title>j743506075&#45;&gt;j2504064014</title>
<path fill="none" stroke="black" d="M1834.49,-144.05C1827.21,-135.84 1818.31,-125.79 1810.23,-116.66"/>
<polygon fill="black" stroke="black" points="1813.05,-114.57 1803.8,-109.41 1807.81,-119.21 1813.05,-114.57"/>
</g>
<!-- j2504064014&#45;&gt;Chat ends. -->
<g id="edge61" class="edge">
<title>j2504064014&#45;&gt;Chat ends.</title>
<path fill="none" stroke="black" d="M1679.6,-71.52C1594.55,-57.74 1479.38,-39.07 1411.7,-28.11"/>
<polygon fill="black" stroke="black" points="1412.37,-24.67 1401.94,-26.52 1411.25,-31.58 1412.37,-24.67"/>
</g>
</g>
</svg>
