<?xml version="1.0" encoding="UTF-8" standalone="no"?>
<!DOCTYPE svg PUBLIC "-//W3C//DTD SVG 1.1//EN"
 "http://www.w3.org/Graphics/SVG/1.1/DTD/svg11.dtd">
<!-- Generated by graphviz version 7.1.0 (20230121.1956)
 -->
<!-- Pages: 1 -->
<svg width="3290pt" height="1484pt"
 viewBox="0.00 0.00 3289.50 1484.00" xmlns="http://www.w3.org/2000/svg" xmlns:xlink="http://www.w3.org/1999/xlink">
<g id="graph0" class="graph" transform="scale(1 1) rotate(0) translate(4 1480)">
<polygon fill="white" stroke="none" points="-4,4 -4,-1480 3285.5,-1480 3285.5,4 -4,4"/>
<!-- EleanorRank4Convo6 begins. -->
<g id="node1" class="node">
<title>EleanorRank4Convo6 begins.</title>
<ellipse fill="none" stroke="orange" cx="2247" cy="-1458" rx="118.88" ry="18"/>
<text text-anchor="middle" x="2247" y="-1454.3" font-family="Times New Roman,serif" font-size="14.00">EleanorRank4Convo6 begins.</text>
</g>
<!-- j3457880450 -->
<g id="node2" class="node">
<title>j3457880450</title>
<polygon fill="none" stroke="red" points="2177.5,-1404 2018.5,-1404 2018.5,-1368 2177.5,-1368 2177.5,-1404"/>
<text text-anchor="middle" x="2098" y="-1382.3" font-family="Times New Roman,serif" font-size="14.00">Então… por que cristais?</text>
</g>
<!-- EleanorRank4Convo6 begins.&#45;&gt;j3457880450 -->
<g id="edge1" class="edge">
<title>EleanorRank4Convo6 begins.&#45;&gt;j3457880450</title>
<path fill="none" stroke="black" d="M2211.69,-1440.41C2191.87,-1431.1 2166.88,-1419.36 2145.37,-1409.26"/>
<polygon fill="black" stroke="black" points="2147.05,-1406.17 2136.51,-1405.09 2144.07,-1412.51 2147.05,-1406.17"/>
</g>
<!-- j782029731 -->
<g id="node3" class="node">
<title>j782029731</title>
<polygon fill="none" stroke="red" points="2840,-1404 2438,-1404 2438,-1368 2840,-1368 2840,-1404"/>
<text text-anchor="middle" x="2639" y="-1382.3" font-family="Times New Roman,serif" font-size="14.00">Então… você e o Quincy… alguma vez vocês já… fizeram &quot;aquilo&quot;?</text>
</g>
<!-- EleanorRank4Convo6 begins.&#45;&gt;j782029731 -->
<g id="edge2" class="edge">
<title>EleanorRank4Convo6 begins.&#45;&gt;j782029731</title>
<path fill="none" stroke="black" d="M2321.65,-1443.67C2380.68,-1433.13 2463.91,-1418.27 2530.32,-1406.41"/>
<polygon fill="black" stroke="black" points="2530.53,-1409.92 2539.76,-1404.72 2529.3,-1403.03 2530.53,-1409.92"/>
</g>
<!-- j2891378599 -->
<g id="node4" class="node">
<title>j2891378599</title>
<polygon fill="none" stroke="blue" points="2661.5,-1332 568.5,-1332 568.5,-1296 2661.5,-1296 2661.5,-1332"/>
<text text-anchor="middle" x="1615" y="-1310.3" font-family="Times New Roman,serif" font-size="14.00">Ah, eu sempre gostei deles. Quando eu era pequena, meu pai nos levou ao Museu da Inovação em Ludston e o Arthur e eu ganhamos esses kits de cultivo de cristais. O do Arthur ficou uma merda, literalmente como um pequeno cocô de pedra. Foi para o lixo. O meu era um lindo diamante azul. Desde aquele dia, sinto que os cristais estão do meu lado, de alguma forma </text>
</g>
<!-- j3457880450&#45;&gt;j2891378599 -->
<g id="edge3" class="edge">
<title>j3457880450&#45;&gt;j2891378599</title>
<path fill="none" stroke="black" d="M2018.24,-1373.44C1944.57,-1362.76 1833.74,-1346.7 1746.9,-1334.12"/>
<polygon fill="black" stroke="black" points="1747.52,-1330.67 1737.12,-1332.7 1746.52,-1337.6 1747.52,-1330.67"/>
</g>
<!-- j3895435173 -->
<g id="node5" class="node">
<title>j3895435173</title>
<polygon fill="none" stroke="blue" points="3082.5,-1332 2679.5,-1332 2679.5,-1296 3082.5,-1296 3082.5,-1332"/>
<text text-anchor="middle" x="2881" y="-1310.3" font-family="Times New Roman,serif" font-size="14.00">Ok, estou me sentindo generosa hoje, então vou te dar essa de graça </text>
</g>
<!-- j782029731&#45;&gt;j3895435173 -->
<g id="edge4" class="edge">
<title>j782029731&#45;&gt;j3895435173</title>
<path fill="none" stroke="black" d="M2699.44,-1367.52C2733.06,-1357.79 2775.09,-1345.64 2810.24,-1335.47"/>
<polygon fill="black" stroke="black" points="2810.82,-1338.94 2819.46,-1332.8 2808.88,-1332.22 2810.82,-1338.94"/>
</g>
<!-- j3328659816 -->
<g id="node6" class="node">
<title>j3328659816</title>
<polygon fill="none" stroke="red" points="1726,-1260 1508,-1260 1508,-1224 1726,-1224 1726,-1260"/>
<text text-anchor="middle" x="1617" y="-1238.3" font-family="Times New Roman,serif" font-size="14.00">Então… eles são só pra decoração?</text>
</g>
<!-- j2891378599&#45;&gt;j3328659816 -->
<g id="edge5" class="edge">
<title>j2891378599&#45;&gt;j3328659816</title>
<path fill="none" stroke="black" d="M1615.49,-1295.7C1615.7,-1288.41 1615.95,-1279.73 1616.18,-1271.54"/>
<polygon fill="black" stroke="black" points="1619.68,-1271.71 1616.47,-1261.62 1612.68,-1271.51 1619.68,-1271.71"/>
</g>
<!-- j4190336399 -->
<g id="node7" class="node">
<title>j4190336399</title>
<polygon fill="none" stroke="blue" points="2976.5,-1260 2783.5,-1260 2783.5,-1224 2976.5,-1224 2976.5,-1260"/>
<text text-anchor="middle" x="2880" y="-1238.3" font-family="Times New Roman,serif" font-size="14.00">Nunca fizemos isso. Nem perto</text>
</g>
<!-- j3895435173&#45;&gt;j4190336399 -->
<g id="edge6" class="edge">
<title>j3895435173&#45;&gt;j4190336399</title>
<path fill="none" stroke="black" d="M2880.75,-1295.7C2880.65,-1288.41 2880.52,-1279.73 2880.41,-1271.54"/>
<polygon fill="black" stroke="black" points="2883.91,-1271.57 2880.27,-1261.62 2876.91,-1271.67 2883.91,-1271.57"/>
</g>
<!-- j238229593 -->
<g id="node8" class="node">
<title>j238229593</title>
<polygon fill="none" stroke="blue" points="1657.5,-1188 1586.5,-1188 1586.5,-1152 1657.5,-1152 1657.5,-1188"/>
<text text-anchor="middle" x="1622" y="-1166.3" font-family="Times New Roman,serif" font-size="14.00">Ah… não</text>
</g>
<!-- j3328659816&#45;&gt;j238229593 -->
<g id="edge7" class="edge">
<title>j3328659816&#45;&gt;j238229593</title>
<path fill="none" stroke="black" d="M1618.24,-1223.7C1618.76,-1216.41 1619.38,-1207.73 1619.96,-1199.54"/>
<polygon fill="black" stroke="black" points="1623.45,-1199.84 1620.67,-1189.61 1616.47,-1199.34 1623.45,-1199.84"/>
</g>
<!-- j1966178210 -->
<g id="node9" class="node">
<title>j1966178210</title>
<polygon fill="none" stroke="blue" points="3281.5,-1188 2478.5,-1188 2478.5,-1152 3281.5,-1152 3281.5,-1188"/>
<text text-anchor="middle" x="2880" y="-1166.3" font-family="Times New Roman,serif" font-size="14.00">Imagino que a posição preferida do Quincy seria &quot;em cima segurando um espelho, para ele imaginar que está fazendo sexo com ele mesmo&quot; </text>
</g>
<!-- j4190336399&#45;&gt;j1966178210 -->
<g id="edge8" class="edge">
<title>j4190336399&#45;&gt;j1966178210</title>
<path fill="none" stroke="black" d="M2880,-1223.7C2880,-1216.41 2880,-1207.73 2880,-1199.54"/>
<polygon fill="black" stroke="black" points="2883.5,-1199.62 2880,-1189.62 2876.5,-1199.62 2883.5,-1199.62"/>
</g>
<!-- j2590966979 -->
<g id="node10" class="node">
<title>j2590966979</title>
<polygon fill="none" stroke="blue" points="2038,-1116 1224,-1116 1224,-1080 2038,-1080 2038,-1116"/>
<text text-anchor="middle" x="1631" y="-1094.3" font-family="Times New Roman,serif" font-size="14.00">Sei que há muitas bobagens escritas sobre cristais. Não é minha praia. Não acredito que eles purifiquem minha aura ou iluminem meus chacras </text>
</g>
<!-- j238229593&#45;&gt;j2590966979 -->
<g id="edge9" class="edge">
<title>j238229593&#45;&gt;j2590966979</title>
<path fill="none" stroke="black" d="M1624.22,-1151.7C1625.17,-1144.32 1626.3,-1135.52 1627.37,-1127.25"/>
<polygon fill="black" stroke="black" points="1630.8,-1127.97 1628.61,-1117.61 1623.86,-1127.08 1630.8,-1127.97"/>
</g>
<!-- j769221931 -->
<g id="node11" class="node">
<title>j769221931</title>
<polygon fill="none" stroke="blue" points="3054.5,-1044 2701.5,-1044 2701.5,-1008 3054.5,-1008 3054.5,-1044"/>
<text text-anchor="middle" x="2878" y="-1022.3" font-family="Times New Roman,serif" font-size="14.00">Vou passar, obrigada. Eu me contento em admirar de longe </text>
</g>
<!-- j1966178210&#45;&gt;j769221931 -->
<g id="edge10" class="edge">
<title>j1966178210&#45;&gt;j769221931</title>
<path fill="none" stroke="black" d="M2879.75,-1151.59C2879.42,-1127.61 2878.8,-1084.14 2878.4,-1055.42"/>
<polygon fill="black" stroke="black" points="2881.9,-1055.57 2878.26,-1045.62 2874.9,-1055.67 2881.9,-1055.57"/>
</g>
<!-- j2938567003 -->
<g id="node12" class="node">
<title>j2938567003</title>
<polygon fill="none" stroke="blue" points="1734,-1044 1564,-1044 1564,-1008 1734,-1008 1734,-1044"/>
<text text-anchor="middle" x="1649" y="-1022.3" font-family="Times New Roman,serif" font-size="14.00">Mas eles têm uma presença</text>
</g>
<!-- j2590966979&#45;&gt;j2938567003 -->
<g id="edge11" class="edge">
<title>j2590966979&#45;&gt;j2938567003</title>
<path fill="none" stroke="black" d="M1635.45,-1079.7C1637.35,-1072.32 1639.61,-1063.52 1641.74,-1055.25"/>
<polygon fill="black" stroke="black" points="1645.12,-1056.13 1644.22,-1045.57 1638.34,-1054.38 1645.12,-1056.13"/>
</g>
<!-- Chat ends. -->
<g id="node13" class="node">
<title>Chat ends.</title>
<ellipse fill="none" stroke="orange" cx="2444" cy="-18" rx="50.09" ry="18"/>
<text text-anchor="middle" x="2444" y="-14.3" font-family="Times New Roman,serif" font-size="14.00">Chat ends.</text>
</g>
<!-- j769221931&#45;&gt;Chat ends. -->
<g id="edge12" class="edge">
<title>j769221931&#45;&gt;Chat ends.</title>
<path fill="none" stroke="black" d="M2878,-1007.51C2878,-980.71 2878,-927.87 2878,-883 2878,-883 2878,-883 2878,-161 2878,-82.93 2621.15,-40.94 2502.64,-25.72"/>
<polygon fill="black" stroke="black" points="2503.13,-22.26 2492.77,-24.48 2502.26,-29.2 2503.13,-22.26"/>
</g>
<!-- j2129432244 -->
<g id="node14" class="node">
<title>j2129432244</title>
<polygon fill="none" stroke="blue" points="1859,-972 1513,-972 1513,-936 1859,-936 1859,-972"/>
<text text-anchor="middle" x="1686" y="-950.3" font-family="Times New Roman,serif" font-size="14.00">Desculpa… sei que estou parecendo uma completa maluca</text>
</g>
<!-- j2938567003&#45;&gt;j2129432244 -->
<g id="edge13" class="edge">
<title>j2938567003&#45;&gt;j2129432244</title>
<path fill="none" stroke="black" d="M1658.15,-1007.7C1662.22,-999.98 1667.12,-990.71 1671.67,-982.11"/>
<polygon fill="black" stroke="black" points="1674.67,-983.92 1676.25,-973.44 1668.48,-980.65 1674.67,-983.92"/>
</g>
<!-- j3434264808 -->
<g id="node15" class="node">
<title>j3434264808</title>
<polygon fill="none" stroke="red" points="2788.5,-900 2313.5,-900 2313.5,-864 2788.5,-864 2788.5,-900"/>
<text text-anchor="middle" x="2551" y="-878.3" font-family="Times New Roman,serif" font-size="14.00">Fico feliz que você falou isso antes de mim. Eu acho que são só pedras elegantes </text>
</g>
<!-- j2129432244&#45;&gt;j3434264808 -->
<g id="edge14" class="edge">
<title>j2129432244&#45;&gt;j3434264808</title>
<path fill="none" stroke="black" d="M1859.49,-938.96C1992.87,-928.17 2178.29,-913.16 2323.56,-901.41"/>
<polygon fill="black" stroke="black" points="2323.63,-904.91 2333.32,-900.62 2323.07,-897.93 2323.63,-904.91"/>
</g>
<!-- j338199714 -->
<g id="node16" class="node">
<title>j338199714</title>
<polygon fill="none" stroke="red" points="1206,-900 156,-900 156,-864 1206,-864 1206,-900"/>
<text text-anchor="middle" x="681" y="-878.3" font-family="Times New Roman,serif" font-size="14.00">Tenho amigos que são Cephalons. Eles são literalmente inteligências na forma de cubos de vidro. Por que você acha que eu zombaria de você por achar que os cristais são importantes?</text>
</g>
<!-- j2129432244&#45;&gt;j338199714 -->
<g id="edge15" class="edge">
<title>j2129432244&#45;&gt;j338199714</title>
<path fill="none" stroke="black" d="M1512.66,-940.93C1355.99,-930.01 1123.09,-913.79 943.58,-901.29"/>
<polygon fill="black" stroke="black" points="943.83,-897.8 933.61,-900.59 943.35,-904.78 943.83,-897.8"/>
</g>
<!-- j4124014103 -->
<g id="node17" class="node">
<title>j4124014103</title>
<polygon fill="none" stroke="red" points="2295.5,-900 1224.5,-900 1224.5,-864 2295.5,-864 2295.5,-900"/>
<text text-anchor="middle" x="1760" y="-878.3" font-family="Times New Roman,serif" font-size="14.00">Passo muito tempo escavando cristais pra eles não serem importantes. Você ficaria surpresa com a quantidade de Warframes que foram feitos em parte por cristais de um tipo ou de vários </text>
</g>
<!-- j2129432244&#45;&gt;j4124014103 -->
<g id="edge16" class="edge">
<title>j2129432244&#45;&gt;j4124014103</title>
<path fill="none" stroke="black" d="M1704.29,-935.7C1713.1,-927.37 1723.82,-917.22 1733.5,-908.07"/>
<polygon fill="black" stroke="black" points="1735.7,-910.8 1740.56,-901.39 1730.89,-905.72 1735.7,-910.8"/>
</g>
<!-- j615937094 -->
<g id="node18" class="node">
<title>j615937094</title>
<polygon fill="none" stroke="blue" points="2654,-828 2448,-828 2448,-792 2654,-792 2654,-828"/>
<text text-anchor="middle" x="2551" y="-806.3" font-family="Times New Roman,serif" font-size="14.00">Ah você é IRRITANTE às vezes </text>
</g>
<!-- j3434264808&#45;&gt;j615937094 -->
<g id="edge17" class="edge">
<title>j3434264808&#45;&gt;j615937094</title>
<path fill="none" stroke="black" d="M2551,-863.7C2551,-856.41 2551,-847.73 2551,-839.54"/>
<polygon fill="black" stroke="black" points="2554.5,-839.62 2551,-829.62 2547.5,-839.62 2554.5,-839.62"/>
</g>
<!-- j1541115130 -->
<g id="node19" class="node">
<title>j1541115130</title>
<polygon fill="none" stroke="blue" points="1169.5,-828 856.5,-828 856.5,-792 1169.5,-792 1169.5,-828"/>
<text text-anchor="middle" x="1013" y="-806.3" font-family="Times New Roman,serif" font-size="14.00">Bem, agora me sinto estúpida por me sentir estúpida </text>
</g>
<!-- j338199714&#45;&gt;j1541115130 -->
<g id="edge18" class="edge">
<title>j338199714&#45;&gt;j1541115130</title>
<path fill="none" stroke="black" d="M763.92,-863.52C811.05,-853.58 870.22,-841.1 919.06,-830.81"/>
<polygon fill="black" stroke="black" points="919.73,-834.24 928.79,-828.75 918.29,-827.39 919.73,-834.24"/>
</g>
<!-- j1358773085 -->
<g id="node20" class="node">
<title>j1358773085</title>
<polygon fill="none" stroke="blue" points="1842,-828 1678,-828 1678,-792 1842,-792 1842,-828"/>
<text text-anchor="middle" x="1760" y="-806.3" font-family="Times New Roman,serif" font-size="14.00">Impressionada e intrigada!</text>
</g>
<!-- j4124014103&#45;&gt;j1358773085 -->
<g id="edge19" class="edge">
<title>j4124014103&#45;&gt;j1358773085</title>
<path fill="none" stroke="black" d="M1760,-863.7C1760,-856.41 1760,-847.73 1760,-839.54"/>
<polygon fill="black" stroke="black" points="1763.5,-839.62 1760,-829.62 1756.5,-839.62 1763.5,-839.62"/>
</g>
<!-- j400351326 -->
<g id="node21" class="node">
<title>j400351326</title>
<polygon fill="none" stroke="blue" points="2849.5,-756 2252.5,-756 2252.5,-720 2849.5,-720 2849.5,-756"/>
<text text-anchor="middle" x="2551" y="-734.3" font-family="Times New Roman,serif" font-size="14.00">Eu pensava que você, de todas as pessoas, poderia elevar sua perspectiva acima do puramente material </text>
</g>
<!-- j615937094&#45;&gt;j400351326 -->
<g id="edge20" class="edge">
<title>j615937094&#45;&gt;j400351326</title>
<path fill="none" stroke="black" d="M2551,-791.7C2551,-784.41 2551,-775.73 2551,-767.54"/>
<polygon fill="black" stroke="black" points="2554.5,-767.62 2551,-757.62 2547.5,-767.62 2554.5,-767.62"/>
</g>
<!-- j3580144732 -->
<g id="node22" class="node">
<title>j3580144732</title>
<polygon fill="none" stroke="blue" points="1376.5,-756 981.5,-756 981.5,-720 1376.5,-720 1376.5,-756"/>
<text text-anchor="middle" x="1179" y="-734.3" font-family="Times New Roman,serif" font-size="14.00">Imagino que você tenha cristais com os quais eu só poderia sonhar </text>
</g>
<!-- j1541115130&#45;&gt;j3580144732 -->
<g id="edge21" class="edge">
<title>j1541115130&#45;&gt;j3580144732</title>
<path fill="none" stroke="black" d="M1054.46,-791.52C1076.53,-782.21 1103.88,-770.68 1127.32,-760.79"/>
<polygon fill="black" stroke="black" points="1128.53,-764.08 1136.39,-756.97 1125.81,-757.63 1128.53,-764.08"/>
</g>
<!-- j1104058613 -->
<g id="node23" class="node">
<title>j1104058613</title>
<polygon fill="none" stroke="blue" points="1910,-756 1610,-756 1610,-720 1910,-720 1910,-756"/>
<text text-anchor="middle" x="1760" y="-734.3" font-family="Times New Roman,serif" font-size="14.00">Conte&#45;me, viajante, sobre os cristais de sua época </text>
</g>
<!-- j1358773085&#45;&gt;j1104058613 -->
<g id="edge22" class="edge">
<title>j1358773085&#45;&gt;j1104058613</title>
<path fill="none" stroke="black" d="M1760,-791.7C1760,-784.41 1760,-775.73 1760,-767.54"/>
<polygon fill="black" stroke="black" points="1763.5,-767.62 1760,-757.62 1756.5,-767.62 1763.5,-767.62"/>
</g>
<!-- j1482601783 -->
<g id="node24" class="node">
<title>j1482601783</title>
<polygon fill="none" stroke="blue" points="2707,-324 2395,-324 2395,-288 2707,-288 2707,-324"/>
<text text-anchor="middle" x="2551" y="-302.3" font-family="Times New Roman,serif" font-size="14.00">Some daqui. Me deixa com minhas pedras elegantes </text>
</g>
<!-- j400351326&#45;&gt;j1482601783 -->
<g id="edge23" class="edge">
<title>j400351326&#45;&gt;j1482601783</title>
<path fill="none" stroke="black" d="M2551,-719.51C2551,-692.71 2551,-639.87 2551,-595 2551,-595 2551,-595 2551,-449 2551,-409.74 2551,-364.38 2551,-335.69"/>
<polygon fill="black" stroke="black" points="2554.5,-336 2551,-326 2547.5,-336 2554.5,-336"/>
</g>
<!-- j3415410199 -->
<g id="node25" class="node">
<title>j3415410199</title>
<polygon fill="none" stroke="red" points="1534,-684 1088,-684 1088,-648 1534,-648 1534,-684"/>
<text text-anchor="middle" x="1311" y="-662.3" font-family="Times New Roman,serif" font-size="14.00">Argônio. Você só acha no Void e ele se desintegra quando você tira ele de lá</text>
</g>
<!-- j3580144732&#45;&gt;j3415410199 -->
<g id="edge24" class="edge">
<title>j3580144732&#45;&gt;j3415410199</title>
<path fill="none" stroke="black" d="M1211.97,-719.52C1229.03,-710.47 1250.05,-699.32 1268.34,-689.62"/>
<polygon fill="black" stroke="black" points="1269.92,-692.75 1277.11,-684.97 1266.64,-686.56 1269.92,-692.75"/>
</g>
<!-- j895371919 -->
<g id="node26" class="node">
<title>j895371919</title>
<polygon fill="none" stroke="red" points="1910.5,-684 1609.5,-684 1609.5,-648 1910.5,-648 1910.5,-684"/>
<text text-anchor="middle" x="1760" y="-662.3" font-family="Times New Roman,serif" font-size="14.00">Tem um Warframe inteiro feito de cristal, a Citrine </text>
</g>
<!-- j3580144732&#45;&gt;j895371919 -->
<g id="edge25" class="edge">
<title>j3580144732&#45;&gt;j895371919</title>
<path fill="none" stroke="black" d="M1324.11,-719.52C1409.2,-709.27 1516.71,-696.31 1603.66,-685.84"/>
<polygon fill="black" stroke="black" points="1603.96,-689.32 1613.47,-684.65 1603.13,-682.38 1603.96,-689.32"/>
</g>
<!-- j2764093111 -->
<g id="node27" class="node">
<title>j2764093111</title>
<polygon fill="none" stroke="red" points="1069,-684 617,-684 617,-648 1069,-648 1069,-684"/>
<text text-anchor="middle" x="843" y="-662.3" font-family="Times New Roman,serif" font-size="14.00">Temos um casal de amantes condenados que foram transformados em cristal </text>
</g>
<!-- j3580144732&#45;&gt;j2764093111 -->
<g id="edge26" class="edge">
<title>j3580144732&#45;&gt;j2764093111</title>
<path fill="none" stroke="black" d="M1095.08,-719.52C1047.28,-709.56 987.25,-697.05 937.76,-686.74"/>
<polygon fill="black" stroke="black" points="938.71,-683.36 928.21,-684.75 937.28,-690.22 938.71,-683.36"/>
</g>
<!-- j1104058613&#45;&gt;j895371919 -->
<g id="edge27" class="edge">
<title>j1104058613&#45;&gt;j895371919</title>
<path fill="none" stroke="black" d="M1760,-719.7C1760,-712.41 1760,-703.73 1760,-695.54"/>
<polygon fill="black" stroke="black" points="1763.5,-695.62 1760,-685.62 1756.5,-695.62 1763.5,-695.62"/>
</g>
<!-- j1482601783&#45;&gt;Chat ends. -->
<g id="edge28" class="edge">
<title>j1482601783&#45;&gt;Chat ends.</title>
<path fill="none" stroke="black" d="M2548.41,-287.66C2545.44,-269.51 2539.94,-240.33 2532,-216 2511.55,-153.28 2477.59,-83.62 2458.38,-46.25"/>
<polygon fill="black" stroke="black" points="2461.56,-44.78 2453.85,-37.51 2455.35,-48 2461.56,-44.78"/>
</g>
<!-- j4022486528 -->
<g id="node28" class="node">
<title>j4022486528</title>
<polygon fill="none" stroke="blue" points="1807,-612 833,-612 833,-576 1807,-576 1807,-612"/>
<text text-anchor="middle" x="1320" y="-590.3" font-family="Times New Roman,serif" font-size="14.00">Você diz &quot;só acha no Void&quot; como se as pessoas estivessem entrando e saindo do Void o tempo todo. Eu achava que era uma dimensão insana, não um resort à beira&#45;mar </text>
</g>
<!-- j3415410199&#45;&gt;j4022486528 -->
<g id="edge29" class="edge">
<title>j3415410199&#45;&gt;j4022486528</title>
<path fill="none" stroke="black" d="M1313.22,-647.7C1314.17,-640.32 1315.3,-631.52 1316.37,-623.25"/>
<polygon fill="black" stroke="black" points="1319.8,-623.97 1317.61,-613.61 1312.86,-623.08 1319.8,-623.97"/>
</g>
<!-- j396860025 -->
<g id="node29" class="node">
<title>j396860025</title>
<ellipse fill="none" stroke="orange" cx="1977" cy="-594" rx="64.19" ry="18"/>
<text text-anchor="middle" x="1977" y="-590.3" font-family="Times New Roman,serif" font-size="14.00">+10 Chemistry</text>
</g>
<!-- j895371919&#45;&gt;j396860025 -->
<g id="edge30" class="edge">
<title>j895371919&#45;&gt;j396860025</title>
<path fill="none" stroke="black" d="M1814.2,-647.52C1848.15,-636.57 1891.65,-622.53 1925.15,-611.73"/>
<polygon fill="black" stroke="black" points="1926.21,-615.06 1934.65,-608.66 1924.06,-608.4 1926.21,-615.06"/>
</g>
<!-- j109475687 -->
<g id="node30" class="node">
<title>j109475687</title>
<ellipse fill="none" stroke="orange" cx="562" cy="-594" rx="64.19" ry="18"/>
<text text-anchor="middle" x="562" y="-590.3" font-family="Times New Roman,serif" font-size="14.00">+10 Chemistry</text>
</g>
<!-- j2764093111&#45;&gt;j109475687 -->
<g id="edge31" class="edge">
<title>j2764093111&#45;&gt;j109475687</title>
<path fill="none" stroke="black" d="M772.82,-647.52C725.61,-635.76 664.14,-620.44 619.76,-609.39"/>
<polygon fill="black" stroke="black" points="620.89,-606.06 610.34,-607.04 619.2,-612.86 620.89,-606.06"/>
</g>
<!-- j3817176041 -->
<g id="node31" class="node">
<title>j3817176041</title>
<polygon fill="none" stroke="red" points="1724.5,-540 917.5,-540 917.5,-504 1724.5,-504 1724.5,-540"/>
<text text-anchor="middle" x="1321" y="-518.3" font-family="Times New Roman,serif" font-size="14.00">Acho que ainda não te contei sobre as Torres Orokin. Elas são como fortalezas no Void, criadas para o caso de os Sentients tentarem atacar </text>
</g>
<!-- j4022486528&#45;&gt;j3817176041 -->
<g id="edge32" class="edge">
<title>j4022486528&#45;&gt;j3817176041</title>
<path fill="none" stroke="black" d="M1320.25,-575.7C1320.35,-568.41 1320.48,-559.73 1320.59,-551.54"/>
<polygon fill="black" stroke="black" points="1324.09,-551.67 1320.73,-541.62 1317.09,-551.57 1324.09,-551.67"/>
</g>
<!-- j2139504112 -->
<g id="node32" class="node">
<title>j2139504112</title>
<polygon fill="none" stroke="blue" points="2234,-540 1898,-540 1898,-504 2234,-504 2234,-540"/>
<text text-anchor="middle" x="2066" y="-518.3" font-family="Times New Roman,serif" font-size="14.00">Esse é o nome dela? Acho que a visualizei em sua mente!</text>
</g>
<!-- j396860025&#45;&gt;j2139504112 -->
<g id="edge33" class="edge">
<title>j396860025&#45;&gt;j2139504112</title>
<path fill="none" stroke="black" d="M1997.64,-576.76C2008.8,-567.99 2022.8,-556.98 2035.21,-547.21"/>
<polygon fill="black" stroke="black" points="2037.03,-550.24 2042.72,-541.31 2032.7,-544.74 2037.03,-550.24"/>
</g>
<!-- j1064247972 -->
<g id="node33" class="node">
<title>j1064247972</title>
<polygon fill="none" stroke="blue" points="637,-540 207,-540 207,-504 637,-504 637,-540"/>
<text text-anchor="middle" x="422" y="-518.3" font-family="Times New Roman,serif" font-size="14.00">Que lindo e triste. Como deve ser, se tornar um monumento ao seu amor?</text>
</g>
<!-- j109475687&#45;&gt;j1064247972 -->
<g id="edge34" class="edge">
<title>j109475687&#45;&gt;j1064247972</title>
<path fill="none" stroke="black" d="M531.62,-577.81C512.69,-568.34 487.98,-555.99 466.82,-545.41"/>
<polygon fill="black" stroke="black" points="468.62,-542.4 458.11,-541.05 465.49,-548.66 468.62,-542.4"/>
</g>
<!-- j2504624844 -->
<g id="node34" class="node">
<title>j2504624844</title>
<ellipse fill="none" stroke="orange" cx="1325" cy="-450" rx="64.19" ry="18"/>
<text text-anchor="middle" x="1325" y="-446.3" font-family="Times New Roman,serif" font-size="14.00">+20 Chemistry</text>
</g>
<!-- j3817176041&#45;&gt;j2504624844 -->
<g id="edge35" class="edge">
<title>j3817176041&#45;&gt;j2504624844</title>
<path fill="none" stroke="black" d="M1321.99,-503.7C1322.41,-496.41 1322.9,-487.73 1323.37,-479.54"/>
<polygon fill="black" stroke="black" points="1326.86,-479.8 1323.94,-469.62 1319.87,-479.4 1326.86,-479.8"/>
</g>
<!-- j1320233744 -->
<g id="node35" class="node">
<title>j1320233744</title>
<polygon fill="none" stroke="blue" points="2443.5,-468 1844.5,-468 1844.5,-432 2443.5,-432 2443.5,-468"/>
<text text-anchor="middle" x="2144" y="-446.3" font-family="Times New Roman,serif" font-size="14.00">A linda moça do geodo. Acho que ela e eu somos parentes agora. Esse é um pensamento reconfortante </text>
</g>
<!-- j2139504112&#45;&gt;j1320233744 -->
<g id="edge36" class="edge">
<title>j2139504112&#45;&gt;j1320233744</title>
<path fill="none" stroke="black" d="M2085.28,-503.7C2094.66,-495.28 2106.09,-485.02 2116.38,-475.79"/>
<polygon fill="black" stroke="black" points="2118.44,-478.64 2123.54,-469.36 2113.76,-473.43 2118.44,-478.64"/>
</g>
<!-- j568024012 -->
<g id="node36" class="node">
<title>j568024012</title>
<polygon fill="none" stroke="blue" points="704,-468 0,-468 0,-432 704,-432 704,-468"/>
<text text-anchor="middle" x="352" y="-446.3" font-family="Times New Roman,serif" font-size="14.00">Espero que ninguém lasque pequenos pedaços deles como lembrancinha. Isso definitivamente aconteceria na minha época </text>
</g>
<!-- j1064247972&#45;&gt;j568024012 -->
<g id="edge37" class="edge">
<title>j1064247972&#45;&gt;j568024012</title>
<path fill="none" stroke="black" d="M404.7,-503.7C396.39,-495.39 386.28,-485.28 377.14,-476.14"/>
<polygon fill="black" stroke="black" points="379.72,-473.77 370.17,-469.17 374.77,-478.72 379.72,-473.77"/>
</g>
<!-- j3927207793 -->
<g id="node37" class="node">
<title>j3927207793</title>
<polygon fill="none" stroke="blue" points="2177.5,-396 476.5,-396 476.5,-360 2177.5,-360 2177.5,-396"/>
<text text-anchor="middle" x="1327" y="-374.3" font-family="Times New Roman,serif" font-size="14.00">Isso é familiar. Existem esses abrigos de segurança máxima sob Ludston e Mancunia. A ideia é que, se houver uma Guerra Radiológica, os magnatas e os figurões poderão se esconder em seus luxuosos esconderijos e tomar mimosas, enquanto o resto de nós será queimado até virar cinzas lá em cima </text>
</g>
<!-- j2504624844&#45;&gt;j3927207793 -->
<g id="edge38" class="edge">
<title>j2504624844&#45;&gt;j3927207793</title>
<path fill="none" stroke="black" d="M1325.49,-431.7C1325.7,-424.41 1325.95,-415.73 1326.18,-407.54"/>
<polygon fill="black" stroke="black" points="1329.68,-407.71 1326.47,-397.62 1322.68,-407.51 1329.68,-407.71"/>
</g>
<!-- j472853437 -->
<g id="node38" class="node">
<title>j472853437</title>
<polygon fill="none" stroke="red" points="2523,-252 2365,-252 2365,-216 2523,-216 2523,-252"/>
<text text-anchor="middle" x="2444" y="-230.3" font-family="Times New Roman,serif" font-size="14.00">É… bem&#45;vinda à família?</text>
</g>
<!-- j1320233744&#45;&gt;j472853437 -->
<g id="edge39" class="edge">
<title>j1320233744&#45;&gt;j472853437</title>
<path fill="none" stroke="black" d="M2168.3,-431.67C2221.66,-393.6 2349.18,-302.64 2410.27,-259.06"/>
<polygon fill="black" stroke="black" points="2412.14,-262.03 2418.24,-253.37 2408.07,-256.33 2412.14,-262.03"/>
</g>
<!-- j1687437874 -->
<g id="node39" class="node">
<title>j1687437874</title>
<polygon fill="none" stroke="red" points="726,-180 258,-180 258,-144 726,-144 726,-180"/>
<text text-anchor="middle" x="492" y="-158.3" font-family="Times New Roman,serif" font-size="14.00">As pessoas tentam, mas a gente protege eles. É o mínimo que a gente pode fazer</text>
</g>
<!-- j568024012&#45;&gt;j1687437874 -->
<g id="edge40" class="edge">
<title>j568024012&#45;&gt;j1687437874</title>
<path fill="none" stroke="black" d="M344.06,-431.78C326.21,-390.22 288.07,-282.91 336,-216 345.54,-202.68 358.62,-192.67 373.18,-185.15"/>
<polygon fill="black" stroke="black" points="374.53,-188.38 382.1,-180.97 371.56,-182.04 374.53,-188.38"/>
</g>
<!-- j937887868 -->
<g id="node40" class="node">
<title>j937887868</title>
<polygon fill="none" stroke="blue" points="1492,-324 1164,-324 1164,-288 1492,-288 1492,-324"/>
<text text-anchor="middle" x="1328" y="-302.3" font-family="Times New Roman,serif" font-size="14.00">A mesma história de sempre, disse ela com um suspiro </text>
</g>
<!-- j3927207793&#45;&gt;j937887868 -->
<g id="edge41" class="edge">
<title>j3927207793&#45;&gt;j937887868</title>
<path fill="none" stroke="black" d="M1327.25,-359.7C1327.35,-352.41 1327.48,-343.73 1327.59,-335.54"/>
<polygon fill="black" stroke="black" points="1331.09,-335.67 1327.73,-325.62 1324.09,-335.57 1331.09,-335.67"/>
</g>
<!-- j472853437&#45;&gt;Chat ends. -->
<g id="edge42" class="edge">
<title>j472853437&#45;&gt;Chat ends.</title>
<path fill="none" stroke="black" d="M2444,-215.85C2444,-179.14 2444,-92.66 2444,-47.53"/>
<polygon fill="black" stroke="black" points="2447.5,-47.75 2444,-37.75 2440.5,-47.75 2447.5,-47.75"/>
</g>
<!-- j1687437874&#45;&gt;Chat ends. -->
<g id="edge43" class="edge">
<title>j1687437874&#45;&gt;Chat ends.</title>
<path fill="none" stroke="black" d="M618.62,-143.52C770.47,-123.21 1032.84,-90.16 1259,-72 1688.38,-37.53 2207.23,-24.01 2382.66,-20.21"/>
<polygon fill="black" stroke="black" points="2382.53,-23.71 2392.45,-20 2382.38,-16.72 2382.53,-23.71"/>
</g>
<!-- j3297595240 -->
<g id="node41" class="node">
<title>j3297595240</title>
<polygon fill="none" stroke="blue" points="2346.5,-252 345.5,-252 345.5,-216 2346.5,-216 2346.5,-252"/>
<text text-anchor="middle" x="1346" y="-230.3" font-family="Times New Roman,serif" font-size="14.00">É engraçado. Todo mundo tinha muito medo de uma guerra nuclear quando eu estava crescendo. Me lembro das transmissões de serviço público que costumavam ser feitas. Conselhos sombrios sobre como estocar suprimentos, como preparar uma sala de refúgio e como você realmente precisa enterrar todos os parentes mortos, mesmo que não queira </text>
</g>
<!-- j937887868&#45;&gt;j3297595240 -->
<g id="edge44" class="edge">
<title>j937887868&#45;&gt;j3297595240</title>
<path fill="none" stroke="black" d="M1332.45,-287.7C1334.35,-280.32 1336.61,-271.52 1338.74,-263.25"/>
<polygon fill="black" stroke="black" points="1342.12,-264.13 1341.22,-253.57 1335.34,-262.38 1342.12,-264.13"/>
</g>
<!-- j4127333370 -->
<g id="node42" class="node">
<title>j4127333370</title>
<polygon fill="none" stroke="blue" points="2241.5,-180 1092.5,-180 1092.5,-144 2241.5,-144 2241.5,-180"/>
<text text-anchor="middle" x="1667" y="-158.3" font-family="Times New Roman,serif" font-size="14.00">Quando vi o reator explodindo em sua mente, me lembrei de todos aqueles pesadelos. Eu sabia que tínhamos de impedir isso, custasse o que custasse. Eu faria com que os outros acreditassem em você </text>
</g>
<!-- j3297595240&#45;&gt;j4127333370 -->
<g id="edge45" class="edge">
<title>j3297595240&#45;&gt;j4127333370</title>
<path fill="none" stroke="black" d="M1426.17,-215.52C1471.65,-205.6 1528.71,-193.16 1575.87,-182.87"/>
<polygon fill="black" stroke="black" points="1576.51,-186.32 1585.54,-180.76 1575.02,-179.48 1576.51,-186.32"/>
</g>
<!-- j1353274294 -->
<g id="node43" class="node">
<title>j1353274294</title>
<polygon fill="none" stroke="blue" points="2416,-108 1268,-108 1268,-72 2416,-72 2416,-108"/>
<text text-anchor="middle" x="1842" y="-86.3" font-family="Times New Roman,serif" font-size="14.00">Mas não é uma guerra nuclear que vai acontecer, não é mesmo? É o Tecnovírus. De uma forma ou de outra, esse ciclo vai se resolver sozinho e, quando isso acontecer, o resto do mundo será infectado </text>
</g>
<!-- j4127333370&#45;&gt;j1353274294 -->
<g id="edge46" class="edge">
<title>j4127333370&#45;&gt;j1353274294</title>
<path fill="none" stroke="black" d="M1710.71,-143.52C1734.18,-134.13 1763.32,-122.47 1788.18,-112.53"/>
<polygon fill="black" stroke="black" points="1789.16,-115.91 1797.14,-108.94 1786.56,-109.41 1789.16,-115.91"/>
</g>
<!-- j1353274294&#45;&gt;Chat ends. -->
<g id="edge47" class="edge">
<title>j1353274294&#45;&gt;Chat ends.</title>
<path fill="none" stroke="black" d="M1992.36,-71.52C2119.64,-56.72 2295.34,-36.29 2385.48,-25.8"/>
<polygon fill="black" stroke="black" points="2385.8,-29.29 2395.32,-24.66 2384.99,-22.34 2385.8,-29.29"/>
</g>
</g>
</svg>
