<?xml version="1.0" encoding="UTF-8" standalone="no"?>
<!DOCTYPE svg PUBLIC "-//W3C//DTD SVG 1.1//EN"
 "http://www.w3.org/Graphics/SVG/1.1/DTD/svg11.dtd">
<!-- Generated by graphviz version 7.1.0 (20230121.1956)
 -->
<!-- Pages: 1 -->
<svg width="1560pt" height="2348pt"
 viewBox="0.00 0.00 1559.50 2348.00" xmlns="http://www.w3.org/2000/svg" xmlns:xlink="http://www.w3.org/1999/xlink">
<g id="graph0" class="graph" transform="scale(1 1) rotate(0) translate(4 2344)">
<polygon fill="white" stroke="none" points="-4,4 -4,-2344 1555.5,-2344 1555.5,4 -4,4"/>
<!-- AoiRank5Convo3 begins. -->
<g id="node1" class="node">
<title>AoiRank5Convo3 begins.</title>
<ellipse fill="none" stroke="orange" cx="795" cy="-2322" rx="104.78" ry="18"/>
<text text-anchor="middle" x="795" y="-2318.3" font-family="Times New Roman,serif" font-size="14.00">AoiRank5Convo3 begins.</text>
</g>
<!-- j965688470 -->
<g id="node2" class="node">
<title>j965688470</title>
<polygon fill="none" stroke="red" points="806,-2268 0,-2268 0,-2232 806,-2232 806,-2268"/>
<text text-anchor="middle" x="403" y="-2246.3" font-family="Times New Roman,serif" font-size="14.00">You’ve got to be the strongest hero in the Hex. I mean, considering everyone here is partly metal, you&#39;re definitely not one to be messed with.</text>
</g>
<!-- AoiRank5Convo3 begins.&#45;&gt;j965688470 -->
<g id="edge1" class="edge">
<title>AoiRank5Convo3 begins.&#45;&gt;j965688470</title>
<path fill="none" stroke="black" d="M724.47,-2308.4C665.37,-2297.85 580.03,-2282.61 512.13,-2270.49"/>
<polygon fill="black" stroke="black" points="512.91,-2267.07 502.45,-2268.76 511.68,-2273.96 512.91,-2267.07"/>
</g>
<!-- j3629018710 -->
<g id="node3" class="node">
<title>j3629018710</title>
<polygon fill="none" stroke="red" points="1551.5,-2268 824.5,-2268 824.5,-2232 1551.5,-2232 1551.5,-2268"/>
<text text-anchor="middle" x="1188" y="-2246.3" font-family="Times New Roman,serif" font-size="14.00">I’ve been thinking, out of everyone on the team, your instinct to always look out for others makes you the most heroic of us all.</text>
</g>
<!-- AoiRank5Convo3 begins.&#45;&gt;j3629018710 -->
<g id="edge2" class="edge">
<title>AoiRank5Convo3 begins.&#45;&gt;j3629018710</title>
<path fill="none" stroke="black" d="M865.71,-2308.4C924.96,-2297.85 1010.51,-2282.61 1078.59,-2270.49"/>
<polygon fill="black" stroke="black" points="1079.07,-2273.96 1088.3,-2268.76 1077.84,-2267.07 1079.07,-2273.96"/>
</g>
<!-- j3525232421 -->
<g id="node4" class="node">
<title>j3525232421</title>
<polygon fill="none" stroke="blue" points="786,-2124 732,-2124 732,-2088 786,-2088 786,-2124"/>
<text text-anchor="middle" x="759" y="-2102.3" font-family="Times New Roman,serif" font-size="14.00">haha</text>
</g>
<!-- j965688470&#45;&gt;j3525232421 -->
<g id="edge3" class="edge">
<title>j965688470&#45;&gt;j3525232421</title>
<path fill="none" stroke="black" d="M446.65,-2231.59C517.18,-2203.46 654.98,-2148.49 721.41,-2121.99"/>
<polygon fill="black" stroke="black" points="722.42,-2125.36 730.42,-2118.4 719.83,-2118.86 722.42,-2125.36"/>
</g>
<!-- j628552749 -->
<g id="node5" class="node">
<title>j628552749</title>
<ellipse fill="none" stroke="orange" cx="1013" cy="-2178" rx="59.59" ry="18"/>
<text text-anchor="middle" x="1013" y="-2174.3" font-family="Times New Roman,serif" font-size="14.00">+5 Chemistry</text>
</g>
<!-- j3629018710&#45;&gt;j628552749 -->
<g id="edge4" class="edge">
<title>j3629018710&#45;&gt;j628552749</title>
<path fill="none" stroke="black" d="M1144.29,-2231.52C1118.13,-2221.05 1084.94,-2207.77 1058.47,-2197.19"/>
<polygon fill="black" stroke="black" points="1059.94,-2194.01 1049.35,-2193.54 1057.34,-2200.51 1059.94,-2194.01"/>
</g>
<!-- j2589769811 -->
<g id="node6" class="node">
<title>j2589769811</title>
<polygon fill="none" stroke="blue" points="864.5,-2052 725.5,-2052 725.5,-2016 864.5,-2016 864.5,-2052"/>
<text text-anchor="middle" x="795" y="-2030.3" font-family="Times New Roman,serif" font-size="14.00">u sound just like Amir</text>
</g>
<!-- j3525232421&#45;&gt;j2589769811 -->
<g id="edge5" class="edge">
<title>j3525232421&#45;&gt;j2589769811</title>
<path fill="none" stroke="black" d="M767.9,-2087.7C771.87,-2079.98 776.63,-2070.71 781.06,-2062.11"/>
<polygon fill="black" stroke="black" points="784.05,-2063.94 785.51,-2053.45 777.83,-2060.74 784.05,-2063.94"/>
</g>
<!-- j889488409 -->
<g id="node7" class="node">
<title>j889488409</title>
<polygon fill="none" stroke="blue" points="949,-2124 895,-2124 895,-2088 949,-2088 949,-2124"/>
<text text-anchor="middle" x="922" y="-2102.3" font-family="Times New Roman,serif" font-size="14.00">&lt;3</text>
</g>
<!-- j628552749&#45;&gt;j889488409 -->
<g id="edge6" class="edge">
<title>j628552749&#45;&gt;j889488409</title>
<path fill="none" stroke="black" d="M991.89,-2160.76C980.49,-2151.99 966.17,-2140.98 953.48,-2131.21"/>
<polygon fill="black" stroke="black" points="955.84,-2128.62 945.78,-2125.29 951.57,-2134.16 955.84,-2128.62"/>
</g>
<!-- j3166130348 -->
<g id="node8" class="node">
<title>j3166130348</title>
<polygon fill="none" stroke="red" points="633.5,-1980 402.5,-1980 402.5,-1944 633.5,-1944 633.5,-1980"/>
<text text-anchor="middle" x="518" y="-1958.3" font-family="Times New Roman,serif" font-size="14.00">First time in my life I&#39;ve been told that.</text>
</g>
<!-- j2589769811&#45;&gt;j3166130348 -->
<g id="edge7" class="edge">
<title>j2589769811&#45;&gt;j3166130348</title>
<path fill="none" stroke="black" d="M725.82,-2015.52C686.92,-2005.69 638.19,-1993.37 597.7,-1983.14"/>
<polygon fill="black" stroke="black" points="598.8,-1979.81 588.25,-1980.75 597.09,-1986.6 598.8,-1979.81"/>
</g>
<!-- j3488308925 -->
<g id="node9" class="node">
<title>j3488308925</title>
<polygon fill="none" stroke="red" points="819,-1980 659,-1980 659,-1944 819,-1944 819,-1980"/>
<text text-anchor="middle" x="739" y="-1958.3" font-family="Times New Roman,serif" font-size="14.00">Why thank you. How so?</text>
</g>
<!-- j2589769811&#45;&gt;j3488308925 -->
<g id="edge8" class="edge">
<title>j2589769811&#45;&gt;j3488308925</title>
<path fill="none" stroke="black" d="M781.16,-2015.7C774.71,-2007.64 766.92,-1997.89 759.79,-1988.98"/>
<polygon fill="black" stroke="black" points="762.61,-1986.91 753.63,-1981.29 757.14,-1991.28 762.61,-1986.91"/>
</g>
<!-- j3726556306 -->
<g id="node10" class="node">
<title>j3726556306</title>
<polygon fill="none" stroke="red" points="958.5,-1908 751.5,-1908 751.5,-1872 958.5,-1872 958.5,-1908"/>
<text text-anchor="middle" x="855" y="-1886.3" font-family="Times New Roman,serif" font-size="14.00">Really? What makes you say that?</text>
</g>
<!-- j2589769811&#45;&gt;j3726556306 -->
<g id="edge9" class="edge">
<title>j2589769811&#45;&gt;j3726556306</title>
<path fill="none" stroke="black" d="M807.52,-2015.5C814.28,-2005.47 822.36,-1992.44 828,-1980 836.87,-1960.43 843.82,-1937.16 848.44,-1919.32"/>
<polygon fill="black" stroke="black" points="851.82,-1920.23 850.84,-1909.68 845.03,-1918.54 851.82,-1920.23"/>
</g>
<!-- j4229706097 -->
<g id="node11" class="node">
<title>j4229706097</title>
<polygon fill="none" stroke="red" points="1054,-1980 918,-1980 918,-1944 1054,-1944 1054,-1980"/>
<text text-anchor="middle" x="986" y="-1958.3" font-family="Times New Roman,serif" font-size="14.00">Is that a compliment?</text>
</g>
<!-- j2589769811&#45;&gt;j4229706097 -->
<g id="edge10" class="edge">
<title>j2589769811&#45;&gt;j4229706097</title>
<path fill="none" stroke="black" d="M842.7,-2015.52C868.55,-2006.04 900.7,-1994.26 927.99,-1984.26"/>
<polygon fill="black" stroke="black" points="928.97,-1987.63 937.15,-1980.9 926.56,-1981.06 928.97,-1987.63"/>
</g>
<!-- j889488409&#45;&gt;j2589769811 -->
<g id="edge11" class="edge">
<title>j889488409&#45;&gt;j2589769811</title>
<path fill="none" stroke="black" d="M894.76,-2089.98C877.83,-2080.65 855.73,-2068.47 836.64,-2057.95"/>
<polygon fill="black" stroke="black" points="838.45,-2054.95 828.01,-2053.19 835.07,-2061.08 838.45,-2054.95"/>
</g>
<!-- j2025084818 -->
<g id="node12" class="node">
<title>j2025084818</title>
<polygon fill="none" stroke="blue" points="596.5,-1908 409.5,-1908 409.5,-1872 596.5,-1872 596.5,-1908"/>
<text text-anchor="middle" x="503" y="-1886.3" font-family="Times New Roman,serif" font-size="14.00">really? but u two are so alike ;)</text>
</g>
<!-- j3166130348&#45;&gt;j2025084818 -->
<g id="edge12" class="edge">
<title>j3166130348&#45;&gt;j2025084818</title>
<path fill="none" stroke="black" d="M514.29,-1943.7C512.71,-1936.32 510.83,-1927.52 509.05,-1919.25"/>
<polygon fill="black" stroke="black" points="512.5,-1918.63 506.98,-1909.58 505.66,-1920.1 512.5,-1918.63"/>
</g>
<!-- j3836546268 -->
<g id="node13" class="node">
<title>j3836546268</title>
<ellipse fill="none" stroke="orange" cx="674" cy="-1890" rx="59.59" ry="18"/>
<text text-anchor="middle" x="674" y="-1886.3" font-family="Times New Roman,serif" font-size="14.00">+5 Chemistry</text>
</g>
<!-- j3488308925&#45;&gt;j3836546268 -->
<g id="edge13" class="edge">
<title>j3488308925&#45;&gt;j3836546268</title>
<path fill="none" stroke="black" d="M722.93,-1943.7C715.18,-1935.35 705.74,-1925.18 697.23,-1916.02"/>
<polygon fill="black" stroke="black" points="699.83,-1913.68 690.46,-1908.73 694.7,-1918.44 699.83,-1913.68"/>
</g>
<!-- j2974385321 -->
<g id="node14" class="node">
<title>j2974385321</title>
<polygon fill="none" stroke="blue" points="1006.5,-1836 521.5,-1836 521.5,-1800 1006.5,-1800 1006.5,-1836"/>
<text text-anchor="middle" x="764" y="-1814.3" font-family="Times New Roman,serif" font-size="14.00">it&#39;s just that when Amir first joined the Hex, he’d joke about me being this superhero</text>
</g>
<!-- j3726556306&#45;&gt;j2974385321 -->
<g id="edge14" class="edge">
<title>j3726556306&#45;&gt;j2974385321</title>
<path fill="none" stroke="black" d="M832.51,-1871.7C821.35,-1863.11 807.69,-1852.61 795.51,-1843.24"/>
<polygon fill="black" stroke="black" points="797.81,-1840.59 787.75,-1837.27 793.54,-1846.14 797.81,-1840.59"/>
</g>
<!-- j222021714 -->
<g id="node15" class="node">
<title>j222021714</title>
<polygon fill="none" stroke="blue" points="1075,-1908 977,-1908 977,-1872 1075,-1872 1075,-1908"/>
<text text-anchor="middle" x="1026" y="-1886.3" font-family="Times New Roman,serif" font-size="14.00">of course it is!</text>
</g>
<!-- j4229706097&#45;&gt;j222021714 -->
<g id="edge15" class="edge">
<title>j4229706097&#45;&gt;j222021714</title>
<path fill="none" stroke="black" d="M995.89,-1943.7C1000.34,-1935.9 1005.71,-1926.51 1010.67,-1917.83"/>
<polygon fill="black" stroke="black" points="1013.55,-1919.84 1015.48,-1909.42 1007.47,-1916.36 1013.55,-1919.84"/>
</g>
<!-- j2025084818&#45;&gt;j2974385321 -->
<g id="edge16" class="edge">
<title>j2025084818&#45;&gt;j2974385321</title>
<path fill="none" stroke="black" d="M568.19,-1871.52C604.61,-1861.75 650.17,-1849.53 688.17,-1839.34"/>
<polygon fill="black" stroke="black" points="688.98,-1842.74 697.73,-1836.77 687.16,-1835.98 688.98,-1842.74"/>
</g>
<!-- j3836546268&#45;&gt;j2974385321 -->
<g id="edge17" class="edge">
<title>j3836546268&#45;&gt;j2974385321</title>
<path fill="none" stroke="black" d="M694.87,-1872.76C706.16,-1863.99 720.31,-1852.98 732.87,-1843.21"/>
<polygon fill="black" stroke="black" points="734.73,-1846.2 740.47,-1837.3 730.43,-1840.68 734.73,-1846.2"/>
</g>
<!-- j2792325082 -->
<g id="node16" class="node">
<title>j2792325082</title>
<polygon fill="none" stroke="blue" points="854,-1764 674,-1764 674,-1728 854,-1728 854,-1764"/>
<text text-anchor="middle" x="764" y="-1742.3" font-family="Times New Roman,serif" font-size="14.00">... and him being my sidekick</text>
</g>
<!-- j2974385321&#45;&gt;j2792325082 -->
<g id="edge18" class="edge">
<title>j2974385321&#45;&gt;j2792325082</title>
<path fill="none" stroke="black" d="M764,-1799.7C764,-1792.41 764,-1783.73 764,-1775.54"/>
<polygon fill="black" stroke="black" points="767.5,-1775.62 764,-1765.62 760.5,-1775.62 767.5,-1775.62"/>
</g>
<!-- j222021714&#45;&gt;j2974385321 -->
<g id="edge19" class="edge">
<title>j222021714&#45;&gt;j2974385321</title>
<path fill="none" stroke="black" d="M976.77,-1874.72C973.47,-1873.79 970.19,-1872.87 967,-1872 926.4,-1860.85 881.08,-1848.97 843.57,-1839.28"/>
<polygon fill="black" stroke="black" points="844.73,-1835.97 834.17,-1836.86 842.98,-1842.74 844.73,-1835.97"/>
</g>
<!-- j1830400460 -->
<g id="node17" class="node">
<title>j1830400460</title>
<polygon fill="none" stroke="blue" points="859.5,-1692 668.5,-1692 668.5,-1656 859.5,-1656 859.5,-1692"/>
<text text-anchor="middle" x="764" y="-1670.3" font-family="Times New Roman,serif" font-size="14.00">it was sweet but also a little sad</text>
</g>
<!-- j2792325082&#45;&gt;j1830400460 -->
<g id="edge20" class="edge">
<title>j2792325082&#45;&gt;j1830400460</title>
<path fill="none" stroke="black" d="M764,-1727.7C764,-1720.41 764,-1711.73 764,-1703.54"/>
<polygon fill="black" stroke="black" points="767.5,-1703.62 764,-1693.62 760.5,-1703.62 767.5,-1703.62"/>
</g>
<!-- j3550396890 -->
<g id="node18" class="node">
<title>j3550396890</title>
<polygon fill="none" stroke="red" points="515,-1620 211,-1620 211,-1584 515,-1584 515,-1620"/>
<text text-anchor="middle" x="363" y="-1598.3" font-family="Times New Roman,serif" font-size="14.00">That’s surprising. Amir always seems so confident.</text>
</g>
<!-- j1830400460&#45;&gt;j3550396890 -->
<g id="edge21" class="edge">
<title>j1830400460&#45;&gt;j3550396890</title>
<path fill="none" stroke="black" d="M668.21,-1656.28C609.86,-1646.09 535.08,-1633.04 474.14,-1622.4"/>
<polygon fill="black" stroke="black" points="474.87,-1618.98 464.42,-1620.7 473.67,-1625.87 474.87,-1618.98"/>
</g>
<!-- j465071244 -->
<g id="node19" class="node">
<title>j465071244</title>
<polygon fill="none" stroke="red" points="995,-1620 533,-1620 533,-1584 995,-1584 995,-1620"/>
<text text-anchor="middle" x="764" y="-1598.3" font-family="Times New Roman,serif" font-size="14.00">A sidekick, huh? That doesn’t sound like the Amir I know now. What changed?</text>
</g>
<!-- j1830400460&#45;&gt;j465071244 -->
<g id="edge22" class="edge">
<title>j1830400460&#45;&gt;j465071244</title>
<path fill="none" stroke="black" d="M764,-1655.7C764,-1648.41 764,-1639.73 764,-1631.54"/>
<polygon fill="black" stroke="black" points="767.5,-1631.62 764,-1621.62 760.5,-1631.62 767.5,-1631.62"/>
</g>
<!-- j3736644971 -->
<g id="node20" class="node">
<title>j3736644971</title>
<polygon fill="none" stroke="red" points="1228.5,-1620 1013.5,-1620 1013.5,-1584 1228.5,-1584 1228.5,-1620"/>
<text text-anchor="middle" x="1121" y="-1598.3" font-family="Times New Roman,serif" font-size="14.00">Sad? I thought you two were close.</text>
</g>
<!-- j1830400460&#45;&gt;j3736644971 -->
<g id="edge23" class="edge">
<title>j1830400460&#45;&gt;j3736644971</title>
<path fill="none" stroke="black" d="M853.17,-1655.52C904.16,-1645.52 968.27,-1632.95 1020.98,-1622.61"/>
<polygon fill="black" stroke="black" points="1021.42,-1626.09 1030.56,-1620.73 1020.07,-1619.22 1021.42,-1626.09"/>
</g>
<!-- j3412320022 -->
<g id="node21" class="node">
<title>j3412320022</title>
<polygon fill="none" stroke="blue" points="754.5,-1548 173.5,-1548 173.5,-1512 754.5,-1512 754.5,-1548"/>
<text text-anchor="middle" x="464" y="-1526.3" font-family="Times New Roman,serif" font-size="14.00">it took time. Amir joined us without any military experience, so the fighting was overwhelming for him</text>
</g>
<!-- j3550396890&#45;&gt;j3412320022 -->
<g id="edge24" class="edge">
<title>j3550396890&#45;&gt;j3412320022</title>
<path fill="none" stroke="black" d="M388.23,-1583.52C400.85,-1574.76 416.32,-1564.04 429.98,-1554.58"/>
<polygon fill="black" stroke="black" points="431.63,-1557.7 437.85,-1549.12 427.64,-1551.94 431.63,-1557.7"/>
</g>
<!-- j465071244&#45;&gt;j3412320022 -->
<g id="edge25" class="edge">
<title>j465071244&#45;&gt;j3412320022</title>
<path fill="none" stroke="black" d="M689.07,-1583.52C646.75,-1573.64 593.69,-1561.26 549.72,-1551"/>
<polygon fill="black" stroke="black" points="550.76,-1547.65 540.23,-1548.79 549.17,-1554.47 550.76,-1547.65"/>
</g>
<!-- j771700366 -->
<g id="node22" class="node">
<title>j771700366</title>
<polygon fill="none" stroke="blue" points="1469,-1548 773,-1548 773,-1512 1469,-1512 1469,-1548"/>
<text text-anchor="middle" x="1121" y="-1526.3" font-family="Times New Roman,serif" font-size="14.00">oh, we are! Amir’s my best friend. some of my favorite memories are us in the arcade, gaming and rocking out to On&#45;lyne</text>
</g>
<!-- j3736644971&#45;&gt;j771700366 -->
<g id="edge26" class="edge">
<title>j3736644971&#45;&gt;j771700366</title>
<path fill="none" stroke="black" d="M1121,-1583.7C1121,-1576.41 1121,-1567.73 1121,-1559.54"/>
<polygon fill="black" stroke="black" points="1124.5,-1559.62 1121,-1549.62 1117.5,-1559.62 1124.5,-1559.62"/>
</g>
<!-- j655601368 -->
<g id="node23" class="node">
<title>j655601368</title>
<polygon fill="none" stroke="blue" points="793.5,-1476 426.5,-1476 426.5,-1440 793.5,-1440 793.5,-1476"/>
<text text-anchor="middle" x="610" y="-1454.3" font-family="Times New Roman,serif" font-size="14.00">he just needed to see that being a hero wasn’t all about combat</text>
</g>
<!-- j3412320022&#45;&gt;j655601368 -->
<g id="edge27" class="edge">
<title>j3412320022&#45;&gt;j655601368</title>
<path fill="none" stroke="black" d="M500.47,-1511.52C519.53,-1502.38 543.06,-1491.09 563.43,-1481.33"/>
<polygon fill="black" stroke="black" points="564.88,-1484.52 572.38,-1477.04 561.85,-1478.2 564.88,-1484.52"/>
</g>
<!-- j775914152 -->
<g id="node24" class="node">
<title>j775914152</title>
<polygon fill="none" stroke="blue" points="1211,-1476 885,-1476 885,-1440 1211,-1440 1211,-1476"/>
<text text-anchor="middle" x="1048" y="-1454.3" font-family="Times New Roman,serif" font-size="14.00">but the whole sidekick thing? I could tell he felt... small.</text>
</g>
<!-- j771700366&#45;&gt;j775914152 -->
<g id="edge28" class="edge">
<title>j771700366&#45;&gt;j775914152</title>
<path fill="none" stroke="black" d="M1102.96,-1511.7C1094.27,-1503.37 1083.69,-1493.22 1074.14,-1484.07"/>
<polygon fill="black" stroke="black" points="1076.82,-1481.79 1067.18,-1477.39 1071.98,-1486.84 1076.82,-1481.79"/>
</g>
<!-- j992747334 -->
<g id="node25" class="node">
<title>j992747334</title>
<polygon fill="none" stroke="blue" points="1009,-1404 575,-1404 575,-1368 1009,-1368 1009,-1404"/>
<text text-anchor="middle" x="792" y="-1382.3" font-family="Times New Roman,serif" font-size="14.00">I always knew that a hacker as great as him could be a hero in his own way</text>
</g>
<!-- j655601368&#45;&gt;j992747334 -->
<g id="edge29" class="edge">
<title>j655601368&#45;&gt;j992747334</title>
<path fill="none" stroke="black" d="M655.46,-1439.52C679.98,-1430.08 710.45,-1418.37 736.38,-1408.39"/>
<polygon fill="black" stroke="black" points="737.32,-1411.78 745.39,-1404.93 734.8,-1405.25 737.32,-1411.78"/>
</g>
<!-- j775914152&#45;&gt;j992747334 -->
<g id="edge30" class="edge">
<title>j775914152&#45;&gt;j992747334</title>
<path fill="none" stroke="black" d="M984.06,-1439.52C948.34,-1429.75 903.65,-1417.53 866.37,-1407.34"/>
<polygon fill="black" stroke="black" points="867.6,-1404.04 857.03,-1404.78 865.75,-1410.79 867.6,-1404.04"/>
</g>
<!-- j2283608699 -->
<g id="node26" class="node">
<title>j2283608699</title>
<polygon fill="none" stroke="red" points="793.5,-1332 376.5,-1332 376.5,-1296 793.5,-1296 793.5,-1332"/>
<text text-anchor="middle" x="585" y="-1310.3" font-family="Times New Roman,serif" font-size="14.00">So what changed for him? He doesn’t seem like anyone&#39;s sidekick now.</text>
</g>
<!-- j992747334&#45;&gt;j2283608699 -->
<g id="edge31" class="edge">
<title>j992747334&#45;&gt;j2283608699</title>
<path fill="none" stroke="black" d="M740.3,-1367.52C712.04,-1357.96 676.83,-1346.05 647.09,-1336"/>
<polygon fill="black" stroke="black" points="648.43,-1332.75 637.83,-1332.87 646.19,-1339.39 648.43,-1332.75"/>
</g>
<!-- j1713652990 -->
<g id="node27" class="node">
<title>j1713652990</title>
<polygon fill="none" stroke="red" points="1188.5,-1332 811.5,-1332 811.5,-1296 1188.5,-1296 1188.5,-1332"/>
<text text-anchor="middle" x="1000" y="-1310.3" font-family="Times New Roman,serif" font-size="14.00">And you played a big part in helping him realize that, didn’t you?</text>
</g>
<!-- j992747334&#45;&gt;j1713652990 -->
<g id="edge32" class="edge">
<title>j992747334&#45;&gt;j1713652990</title>
<path fill="none" stroke="black" d="M843.95,-1367.52C872.35,-1357.96 907.73,-1346.05 937.61,-1336"/>
<polygon fill="black" stroke="black" points="938.56,-1339.37 946.92,-1332.86 936.32,-1332.74 938.56,-1339.37"/>
</g>
<!-- j3421401661 -->
<g id="node28" class="node">
<title>j3421401661</title>
<polygon fill="none" stroke="blue" points="999.5,-1260 584.5,-1260 584.5,-1224 999.5,-1224 999.5,-1260"/>
<text text-anchor="middle" x="792" y="-1238.3" font-family="Times New Roman,serif" font-size="14.00">I can’t take all the credit, but I was there when he had his breakthrough.</text>
</g>
<!-- j2283608699&#45;&gt;j3421401661 -->
<g id="edge33" class="edge">
<title>j2283608699&#45;&gt;j3421401661</title>
<path fill="none" stroke="black" d="M636.7,-1295.52C664.96,-1285.96 700.17,-1274.05 729.91,-1264"/>
<polygon fill="black" stroke="black" points="730.81,-1267.39 739.17,-1260.87 728.57,-1260.75 730.81,-1267.39"/>
</g>
<!-- j1713652990&#45;&gt;j3421401661 -->
<g id="edge34" class="edge">
<title>j1713652990&#45;&gt;j3421401661</title>
<path fill="none" stroke="black" d="M948.05,-1295.52C919.65,-1285.96 884.27,-1274.05 854.39,-1264"/>
<polygon fill="black" stroke="black" points="855.68,-1260.74 845.08,-1260.86 853.44,-1267.37 855.68,-1260.74"/>
</g>
<!-- j3722077777 -->
<g id="node29" class="node">
<title>j3722077777</title>
<polygon fill="none" stroke="blue" points="1189.5,-1188 394.5,-1188 394.5,-1152 1189.5,-1152 1189.5,-1188"/>
<text text-anchor="middle" x="792" y="-1166.3" font-family="Times New Roman,serif" font-size="14.00">one day, I caught this wild broadcast from an On&#45;lyne fan who&#39;d pieced together some shady details about HitMaker (that&#39;s On&#45;lyne&#39;s label)</text>
</g>
<!-- j3421401661&#45;&gt;j3722077777 -->
<g id="edge35" class="edge">
<title>j3421401661&#45;&gt;j3722077777</title>
<path fill="none" stroke="black" d="M792,-1223.7C792,-1216.41 792,-1207.73 792,-1199.54"/>
<polygon fill="black" stroke="black" points="795.5,-1199.62 792,-1189.62 788.5,-1199.62 795.5,-1199.62"/>
</g>
<!-- j1831602665 -->
<g id="node30" class="node">
<title>j1831602665</title>
<polygon fill="none" stroke="blue" points="1055,-1116 529,-1116 529,-1080 1055,-1080 1055,-1116"/>
<text text-anchor="middle" x="792" y="-1094.3" font-family="Times New Roman,serif" font-size="14.00">she was basically begging for someone to help them, and Amir jumped in without hesitation</text>
</g>
<!-- j3722077777&#45;&gt;j1831602665 -->
<g id="edge36" class="edge">
<title>j3722077777&#45;&gt;j1831602665</title>
<path fill="none" stroke="black" d="M792,-1151.7C792,-1144.41 792,-1135.73 792,-1127.54"/>
<polygon fill="black" stroke="black" points="795.5,-1127.62 792,-1117.62 788.5,-1127.62 795.5,-1127.62"/>
</g>
<!-- j2637751262 -->
<g id="node31" class="node">
<title>j2637751262</title>
<polygon fill="none" stroke="red" points="575,-1044 291,-1044 291,-1008 575,-1008 575,-1044"/>
<text text-anchor="middle" x="433" y="-1022.3" font-family="Times New Roman,serif" font-size="14.00">How&#39;d Amir get involved in something like that?</text>
</g>
<!-- j1831602665&#45;&gt;j2637751262 -->
<g id="edge37" class="edge">
<title>j1831602665&#45;&gt;j2637751262</title>
<path fill="none" stroke="black" d="M702.34,-1079.52C651.05,-1069.52 586.59,-1056.95 533.58,-1046.61"/>
<polygon fill="black" stroke="black" points="534.43,-1043.21 523.94,-1044.73 533.09,-1050.08 534.43,-1043.21"/>
</g>
<!-- j3328634491 -->
<g id="node32" class="node">
<title>j3328634491</title>
<polygon fill="none" stroke="red" points="991,-1044 593,-1044 593,-1008 991,-1008 991,-1044"/>
<text text-anchor="middle" x="792" y="-1022.3" font-family="Times New Roman,serif" font-size="14.00">Amir? I thought it would have been you running to On&#45;lyne&#39;s rescue.</text>
</g>
<!-- j1831602665&#45;&gt;j3328634491 -->
<g id="edge38" class="edge">
<title>j1831602665&#45;&gt;j3328634491</title>
<path fill="none" stroke="black" d="M792,-1079.7C792,-1072.41 792,-1063.73 792,-1055.54"/>
<polygon fill="black" stroke="black" points="795.5,-1055.62 792,-1045.62 788.5,-1055.62 795.5,-1055.62"/>
</g>
<!-- j3441516015 -->
<g id="node33" class="node">
<title>j3441516015</title>
<polygon fill="none" stroke="red" points="1328.5,-1044 1009.5,-1044 1009.5,-1008 1328.5,-1008 1328.5,-1044"/>
<text text-anchor="middle" x="1169" y="-1022.3" font-family="Times New Roman,serif" font-size="14.00">This sounds like a legendary Aoi&#45;Amir team&#45;up to me.</text>
</g>
<!-- j1831602665&#45;&gt;j3441516015 -->
<g id="edge39" class="edge">
<title>j1831602665&#45;&gt;j3441516015</title>
<path fill="none" stroke="black" d="M886.16,-1079.52C940.24,-1069.48 1008.28,-1056.84 1064.07,-1046.48"/>
<polygon fill="black" stroke="black" points="1064.38,-1049.99 1073.57,-1044.72 1063.1,-1043.1 1064.38,-1049.99"/>
</g>
<!-- j3558840642 -->
<g id="node34" class="node">
<title>j3558840642</title>
<polygon fill="none" stroke="blue" points="756,-900 428,-900 428,-864 756,-864 756,-900"/>
<text text-anchor="middle" x="592" y="-878.3" font-family="Times New Roman,serif" font-size="14.00">I showed him the broadcast. Amir took care of the rest!</text>
</g>
<!-- j2637751262&#45;&gt;j3558840642 -->
<g id="edge40" class="edge">
<title>j2637751262&#45;&gt;j3558840642</title>
<path fill="none" stroke="black" d="M452.5,-1007.59C480.54,-982.54 532.41,-936.22 564.38,-907.66"/>
<polygon fill="black" stroke="black" points="566.58,-910.39 571.71,-901.12 561.92,-905.17 566.58,-910.39"/>
</g>
<!-- j2381662337 -->
<g id="node35" class="node">
<title>j2381662337</title>
<polygon fill="none" stroke="blue" points="971.5,-972 612.5,-972 612.5,-936 971.5,-936 971.5,-972"/>
<text text-anchor="middle" x="792" y="-950.3" font-family="Times New Roman,serif" font-size="14.00">weeell it was a team effort. u could say I was his sidekick ^_^</text>
</g>
<!-- j3328634491&#45;&gt;j2381662337 -->
<g id="edge41" class="edge">
<title>j3328634491&#45;&gt;j2381662337</title>
<path fill="none" stroke="black" d="M792,-1007.7C792,-1000.41 792,-991.73 792,-983.54"/>
<polygon fill="black" stroke="black" points="795.5,-983.62 792,-973.62 788.5,-983.62 795.5,-983.62"/>
</g>
<!-- j3361196540 -->
<g id="node36" class="node">
<title>j3361196540</title>
<ellipse fill="none" stroke="orange" cx="1109" cy="-954" rx="59.59" ry="18"/>
<text text-anchor="middle" x="1109" y="-950.3" font-family="Times New Roman,serif" font-size="14.00">+5 Chemistry</text>
</g>
<!-- j3441516015&#45;&gt;j3361196540 -->
<g id="edge42" class="edge">
<title>j3441516015&#45;&gt;j3361196540</title>
<path fill="none" stroke="black" d="M1154.17,-1007.7C1147.09,-999.44 1138.48,-989.39 1130.69,-980.3"/>
<polygon fill="black" stroke="black" points="1133.4,-978.09 1124.23,-972.77 1128.08,-982.64 1133.4,-978.09"/>
</g>
<!-- j715493801 -->
<g id="node37" class="node">
<title>j715493801</title>
<polygon fill="none" stroke="blue" points="1301,-828 283,-828 283,-792 1301,-792 1301,-828"/>
<text text-anchor="middle" x="792" y="-806.3" font-family="Times New Roman,serif" font-size="14.00">he hacked into their manager&#39;s emails and uncovered a mess of deals with the Scaldra. they’d been cloning the band and putting them in danger, all covered up by their management</text>
</g>
<!-- j3558840642&#45;&gt;j715493801 -->
<g id="edge43" class="edge">
<title>j3558840642&#45;&gt;j715493801</title>
<path fill="none" stroke="black" d="M641.95,-863.52C669.14,-854 702.98,-842.16 731.63,-832.13"/>
<polygon fill="black" stroke="black" points="732.63,-835.49 740.91,-828.88 730.31,-828.88 732.63,-835.49"/>
</g>
<!-- j2381662337&#45;&gt;j715493801 -->
<g id="edge44" class="edge">
<title>j2381662337&#45;&gt;j715493801</title>
<path fill="none" stroke="black" d="M792,-935.59C792,-911.61 792,-868.14 792,-839.42"/>
<polygon fill="black" stroke="black" points="795.5,-839.62 792,-829.62 788.5,-839.62 795.5,-839.62"/>
</g>
<!-- j2928016515 -->
<g id="node38" class="node">
<title>j2928016515</title>
<polygon fill="none" stroke="blue" points="1239.5,-900 832.5,-900 832.5,-864 1239.5,-864 1239.5,-900"/>
<text text-anchor="middle" x="1036" y="-878.3" font-family="Times New Roman,serif" font-size="14.00">a super&#45;fan joining forces with a super&#45;hacker? nothing could stop us!</text>
</g>
<!-- j3361196540&#45;&gt;j2928016515 -->
<g id="edge45" class="edge">
<title>j3361196540&#45;&gt;j2928016515</title>
<path fill="none" stroke="black" d="M1091.7,-936.41C1082.96,-928.03 1072.17,-917.68 1062.42,-908.33"/>
<polygon fill="black" stroke="black" points="1064.93,-905.89 1055.29,-901.49 1060.08,-910.94 1064.93,-905.89"/>
</g>
<!-- j1628639506 -->
<g id="node39" class="node">
<title>j1628639506</title>
<polygon fill="none" stroke="blue" points="819,-756 765,-756 765,-720 819,-720 819,-756"/>
<text text-anchor="middle" x="792" y="-734.3" font-family="Times New Roman,serif" font-size="14.00">bleh!</text>
</g>
<!-- j715493801&#45;&gt;j1628639506 -->
<g id="edge46" class="edge">
<title>j715493801&#45;&gt;j1628639506</title>
<path fill="none" stroke="black" d="M792,-791.7C792,-784.41 792,-775.73 792,-767.54"/>
<polygon fill="black" stroke="black" points="795.5,-767.62 792,-757.62 788.5,-767.62 795.5,-767.62"/>
</g>
<!-- j2928016515&#45;&gt;j715493801 -->
<g id="edge47" class="edge">
<title>j2928016515&#45;&gt;j715493801</title>
<path fill="none" stroke="black" d="M975.06,-863.52C941.16,-853.79 898.79,-841.64 863.35,-831.47"/>
<polygon fill="black" stroke="black" points="864.62,-828.19 854.04,-828.8 862.69,-834.92 864.62,-828.19"/>
</g>
<!-- j494083308 -->
<g id="node40" class="node">
<title>j494083308</title>
<polygon fill="none" stroke="blue" points="961.5,-684 622.5,-684 622.5,-648 961.5,-648 961.5,-684"/>
<text text-anchor="middle" x="792" y="-662.3" font-family="Times New Roman,serif" font-size="14.00">without Amir’s skills, none of that would’ve come to light</text>
</g>
<!-- j1628639506&#45;&gt;j494083308 -->
<g id="edge48" class="edge">
<title>j1628639506&#45;&gt;j494083308</title>
<path fill="none" stroke="black" d="M792,-719.7C792,-712.41 792,-703.73 792,-695.54"/>
<polygon fill="black" stroke="black" points="795.5,-695.62 792,-685.62 788.5,-695.62 795.5,-695.62"/>
</g>
<!-- j2367635175 -->
<g id="node41" class="node">
<title>j2367635175</title>
<polygon fill="none" stroke="red" points="756,-612 430,-612 430,-576 756,-576 756,-612"/>
<text text-anchor="middle" x="593" y="-590.3" font-family="Times New Roman,serif" font-size="14.00">Wow. That’s incredible. Amir really uncovered all that?</text>
</g>
<!-- j494083308&#45;&gt;j2367635175 -->
<g id="edge49" class="edge">
<title>j494083308&#45;&gt;j2367635175</title>
<path fill="none" stroke="black" d="M742.3,-647.52C715.25,-638 681.58,-626.16 653.06,-616.13"/>
<polygon fill="black" stroke="black" points="654.44,-612.9 643.84,-612.88 652.11,-619.5 654.44,-612.9"/>
</g>
<!-- j776105632 -->
<g id="node42" class="node">
<title>j776105632</title>
<polygon fill="none" stroke="red" points="1208,-612 774,-612 774,-576 1208,-576 1208,-612"/>
<text text-anchor="middle" x="991" y="-590.3" font-family="Times New Roman,serif" font-size="14.00">You know, if it&#39;s true that knowledge is power, hackers really are powerful.</text>
</g>
<!-- j494083308&#45;&gt;j776105632 -->
<g id="edge50" class="edge">
<title>j494083308&#45;&gt;j776105632</title>
<path fill="none" stroke="black" d="M841.7,-647.52C868.75,-638 902.42,-626.16 930.94,-616.13"/>
<polygon fill="black" stroke="black" points="931.89,-619.5 940.16,-612.88 929.56,-612.9 931.89,-619.5"/>
</g>
<!-- j2850431813 -->
<g id="node43" class="node">
<title>j2850431813</title>
<polygon fill="none" stroke="blue" points="1106,-540 478,-540 478,-504 1106,-504 1106,-540"/>
<text text-anchor="middle" x="792" y="-518.3" font-family="Times New Roman,serif" font-size="14.00">u bet. the whole ordeal totally helped him realized he wasn’t just a sidekick. he was a hero in his own right ^_^</text>
</g>
<!-- j2367635175&#45;&gt;j2850431813 -->
<g id="edge51" class="edge">
<title>j2367635175&#45;&gt;j2850431813</title>
<path fill="none" stroke="black" d="M642.7,-575.52C669.75,-566 703.42,-554.16 731.94,-544.13"/>
<polygon fill="black" stroke="black" points="732.89,-547.5 741.16,-540.88 730.56,-540.9 732.89,-547.5"/>
</g>
<!-- j776105632&#45;&gt;j2850431813 -->
<g id="edge52" class="edge">
<title>j776105632&#45;&gt;j2850431813</title>
<path fill="none" stroke="black" d="M941.3,-575.52C914.25,-566 880.58,-554.16 852.06,-544.13"/>
<polygon fill="black" stroke="black" points="853.44,-540.9 842.84,-540.88 851.11,-547.5 853.44,-540.9"/>
</g>
<!-- j1036547895 -->
<g id="node44" class="node">
<title>j1036547895</title>
<polygon fill="none" stroke="red" points="792.5,-468 495.5,-468 495.5,-432 792.5,-432 792.5,-468"/>
<text text-anchor="middle" x="644" y="-446.3" font-family="Times New Roman,serif" font-size="14.00">And you still get to rock out in the arcade together</text>
</g>
<!-- j2850431813&#45;&gt;j1036547895 -->
<g id="edge53" class="edge">
<title>j2850431813&#45;&gt;j1036547895</title>
<path fill="none" stroke="black" d="M755.04,-503.52C735.63,-494.34 711.64,-482.99 690.93,-473.2"/>
<polygon fill="black" stroke="black" points="692.65,-470.14 682.12,-469.03 689.66,-476.47 692.65,-470.14"/>
</g>
<!-- j1936058977 -->
<g id="node45" class="node">
<title>j1936058977</title>
<polygon fill="none" stroke="red" points="1071,-468 811,-468 811,-432 1071,-432 1071,-468"/>
<text text-anchor="middle" x="941" y="-446.3" font-family="Times New Roman,serif" font-size="14.00">As if there could ever have been any doubt.</text>
</g>
<!-- j2850431813&#45;&gt;j1936058977 -->
<g id="edge54" class="edge">
<title>j2850431813&#45;&gt;j1936058977</title>
<path fill="none" stroke="black" d="M829.21,-503.52C848.76,-494.34 872.91,-482.99 893.76,-473.2"/>
<polygon fill="black" stroke="black" points="895.07,-476.45 902.63,-469.03 892.09,-470.11 895.07,-476.45"/>
</g>
<!-- j3520780607 -->
<g id="node46" class="node">
<title>j3520780607</title>
<polygon fill="none" stroke="blue" points="816.5,-396 629.5,-396 629.5,-360 816.5,-360 816.5,-396"/>
<text text-anchor="middle" x="723" y="-374.3" font-family="Times New Roman,serif" font-size="14.00">just two heroes taking a break!</text>
</g>
<!-- j1036547895&#45;&gt;j3520780607 -->
<g id="edge55" class="edge">
<title>j1036547895&#45;&gt;j3520780607</title>
<path fill="none" stroke="black" d="M663.53,-431.7C673.02,-423.28 684.61,-413.02 695.02,-403.79"/>
<polygon fill="black" stroke="black" points="697.13,-406.6 702.29,-397.35 692.48,-401.36 697.13,-406.6"/>
</g>
<!-- j389414293 -->
<g id="node47" class="node">
<title>j389414293</title>
<polygon fill="none" stroke="blue" points="928,-396 874,-396 874,-360 928,-360 928,-396"/>
<text text-anchor="middle" x="901" y="-374.3" font-family="Times New Roman,serif" font-size="14.00">right?</text>
</g>
<!-- j1936058977&#45;&gt;j389414293 -->
<g id="edge56" class="edge">
<title>j1936058977&#45;&gt;j389414293</title>
<path fill="none" stroke="black" d="M931.11,-431.7C926.66,-423.9 921.29,-414.51 916.33,-405.83"/>
<polygon fill="black" stroke="black" points="919.53,-404.36 911.52,-397.42 913.45,-407.84 919.53,-404.36"/>
</g>
<!-- j1661879123 -->
<g id="node48" class="node">
<title>j1661879123</title>
<polygon fill="none" stroke="blue" points="870,-324 714,-324 714,-288 870,-288 870,-324"/>
<text text-anchor="middle" x="792" y="-302.3" font-family="Times New Roman,serif" font-size="14.00">ur a hero too, u know &lt;3</text>
</g>
<!-- j3520780607&#45;&gt;j1661879123 -->
<g id="edge57" class="edge">
<title>j3520780607&#45;&gt;j1661879123</title>
<path fill="none" stroke="black" d="M740.06,-359.7C748.24,-351.39 758.21,-341.28 767.22,-332.14"/>
<polygon fill="black" stroke="black" points="769.55,-334.76 774.08,-325.18 764.56,-329.85 769.55,-334.76"/>
</g>
<!-- j389414293&#45;&gt;j1661879123 -->
<g id="edge58" class="edge">
<title>j389414293&#45;&gt;j1661879123</title>
<path fill="none" stroke="black" d="M873.78,-359.52C860.02,-350.68 843.13,-339.84 828.29,-330.3"/>
<polygon fill="black" stroke="black" points="830.46,-327.54 820.15,-325.08 826.67,-333.43 830.46,-327.54"/>
</g>
<!-- j2081366980 -->
<g id="node49" class="node">
<title>j2081366980</title>
<polygon fill="none" stroke="red" points="651.5,-252 438.5,-252 438.5,-216 651.5,-216 651.5,-252"/>
<text text-anchor="middle" x="545" y="-230.3" font-family="Times New Roman,serif" font-size="14.00">That means a lot coming from you.</text>
</g>
<!-- j1661879123&#45;&gt;j2081366980 -->
<g id="edge59" class="edge">
<title>j1661879123&#45;&gt;j2081366980</title>
<path fill="none" stroke="black" d="M730.31,-287.52C695.99,-277.79 653.1,-265.64 617.22,-255.47"/>
<polygon fill="black" stroke="black" points="618.36,-252.15 607.79,-252.79 616.46,-258.89 618.36,-252.15"/>
</g>
<!-- j4210823682 -->
<g id="node50" class="node">
<title>j4210823682</title>
<polygon fill="none" stroke="red" points="914.5,-252 669.5,-252 669.5,-216 914.5,-216 914.5,-252"/>
<text text-anchor="middle" x="792" y="-230.3" font-family="Times New Roman,serif" font-size="14.00">Makes me feel awfully good hearing that.</text>
</g>
<!-- j1661879123&#45;&gt;j4210823682 -->
<g id="edge60" class="edge">
<title>j1661879123&#45;&gt;j4210823682</title>
<path fill="none" stroke="black" d="M792,-287.7C792,-280.41 792,-271.73 792,-263.54"/>
<polygon fill="black" stroke="black" points="795.5,-263.62 792,-253.62 788.5,-263.62 795.5,-263.62"/>
</g>
<!-- j1918035761 -->
<g id="node51" class="node">
<title>j1918035761</title>
<polygon fill="none" stroke="red" points="1025.5,-252 932.5,-252 932.5,-216 1025.5,-216 1025.5,-252"/>
<text text-anchor="middle" x="979" y="-230.3" font-family="Times New Roman,serif" font-size="14.00">You charmer.</text>
</g>
<!-- j1661879123&#45;&gt;j1918035761 -->
<g id="edge61" class="edge">
<title>j1661879123&#45;&gt;j1918035761</title>
<path fill="none" stroke="black" d="M838.71,-287.52C863.9,-278.08 895.21,-266.37 921.85,-256.39"/>
<polygon fill="black" stroke="black" points="923.01,-259.7 931.15,-252.91 920.56,-253.14 923.01,-259.7"/>
</g>
<!-- j1862994046 -->
<g id="node52" class="node">
<title>j1862994046</title>
<ellipse fill="none" stroke="orange" cx="600" cy="-162" rx="59.59" ry="18"/>
<text text-anchor="middle" x="600" y="-158.3" font-family="Times New Roman,serif" font-size="14.00">+5 Chemistry</text>
</g>
<!-- j2081366980&#45;&gt;j1862994046 -->
<g id="edge62" class="edge">
<title>j2081366980&#45;&gt;j1862994046</title>
<path fill="none" stroke="black" d="M558.6,-215.7C565.02,-207.52 572.81,-197.6 579.9,-188.58"/>
<polygon fill="black" stroke="black" points="582.58,-190.84 586,-180.81 577.07,-186.51 582.58,-190.84"/>
</g>
<!-- j129878171 -->
<g id="node53" class="node">
<title>j129878171</title>
<ellipse fill="none" stroke="orange" cx="792" cy="-162" rx="59.59" ry="18"/>
<text text-anchor="middle" x="792" y="-158.3" font-family="Times New Roman,serif" font-size="14.00">+5 Chemistry</text>
</g>
<!-- j4210823682&#45;&gt;j129878171 -->
<g id="edge63" class="edge">
<title>j4210823682&#45;&gt;j129878171</title>
<path fill="none" stroke="black" d="M792,-215.7C792,-208.41 792,-199.73 792,-191.54"/>
<polygon fill="black" stroke="black" points="795.5,-191.62 792,-181.62 788.5,-191.62 795.5,-191.62"/>
</g>
<!-- j78538873 -->
<g id="node54" class="node">
<title>j78538873</title>
<polygon fill="none" stroke="blue" points="906.5,-108 847.5,-108 847.5,-72 906.5,-72 906.5,-108"/>
<text text-anchor="middle" x="877" y="-86.3" font-family="Times New Roman,serif" font-size="14.00">guilty ;)</text>
</g>
<!-- j1918035761&#45;&gt;j78538873 -->
<g id="edge64" class="edge">
<title>j1918035761&#45;&gt;j78538873</title>
<path fill="none" stroke="black" d="M966.49,-215.59C948.81,-190.97 916.36,-145.8 895.78,-117.14"/>
<polygon fill="black" stroke="black" points="898.85,-115.42 890.17,-109.34 893.17,-119.5 898.85,-115.42"/>
</g>
<!-- j3068778640 -->
<g id="node55" class="node">
<title>j3068778640</title>
<polygon fill="none" stroke="blue" points="712,-108 652,-108 652,-72 712,-72 712,-108"/>
<text text-anchor="middle" x="682" y="-86.3" font-family="Times New Roman,serif" font-size="14.00">oh u &lt;3</text>
</g>
<!-- j1862994046&#45;&gt;j3068778640 -->
<g id="edge65" class="edge">
<title>j1862994046&#45;&gt;j3068778640</title>
<path fill="none" stroke="black" d="M619.02,-144.76C629.1,-136.16 641.69,-125.41 652.97,-115.78"/>
<polygon fill="black" stroke="black" points="655.17,-118.51 660.5,-109.35 650.62,-113.18 655.17,-118.51"/>
</g>
<!-- j2631221178 -->
<g id="node56" class="node">
<title>j2631221178</title>
<polygon fill="none" stroke="blue" points="826.5,-108 757.5,-108 757.5,-72 826.5,-72 826.5,-108"/>
<text text-anchor="middle" x="792" y="-86.3" font-family="Times New Roman,serif" font-size="14.00">good! &lt;3</text>
</g>
<!-- j129878171&#45;&gt;j2631221178 -->
<g id="edge66" class="edge">
<title>j129878171&#45;&gt;j2631221178</title>
<path fill="none" stroke="black" d="M792,-143.7C792,-136.41 792,-127.73 792,-119.54"/>
<polygon fill="black" stroke="black" points="795.5,-119.62 792,-109.62 788.5,-119.62 795.5,-119.62"/>
</g>
<!-- Chat ends. -->
<g id="node57" class="node">
<title>Chat ends.</title>
<ellipse fill="none" stroke="orange" cx="792" cy="-18" rx="50.09" ry="18"/>
<text text-anchor="middle" x="792" y="-14.3" font-family="Times New Roman,serif" font-size="14.00">Chat ends.</text>
</g>
<!-- j78538873&#45;&gt;Chat ends. -->
<g id="edge67" class="edge">
<title>j78538873&#45;&gt;Chat ends.</title>
<path fill="none" stroke="black" d="M855.99,-71.7C845.1,-62.73 831.65,-51.65 819.9,-41.98"/>
<polygon fill="black" stroke="black" points="822.43,-39.52 812.48,-35.87 817.98,-44.93 822.43,-39.52"/>
</g>
<!-- j3068778640&#45;&gt;Chat ends. -->
<g id="edge68" class="edge">
<title>j3068778640&#45;&gt;Chat ends.</title>
<path fill="none" stroke="black" d="M709.47,-71.52C724.44,-61.99 743.07,-50.14 758.84,-40.1"/>
<polygon fill="black" stroke="black" points="760.4,-43.26 766.95,-34.94 756.64,-37.35 760.4,-43.26"/>
</g>
<!-- j2631221178&#45;&gt;Chat ends. -->
<g id="edge69" class="edge">
<title>j2631221178&#45;&gt;Chat ends.</title>
<path fill="none" stroke="black" d="M792,-71.7C792,-64.41 792,-55.73 792,-47.54"/>
<polygon fill="black" stroke="black" points="795.5,-47.62 792,-37.62 788.5,-47.62 795.5,-47.62"/>
</g>
</g>
</svg>
