<?xml version="1.0" encoding="UTF-8" standalone="no"?>
<!DOCTYPE svg PUBLIC "-//W3C//DTD SVG 1.1//EN"
 "http://www.w3.org/Graphics/SVG/1.1/DTD/svg11.dtd">
<!-- Generated by graphviz version 7.1.0 (20230121.1956)
 -->
<!-- Pages: 1 -->
<svg width="1772pt" height="1453pt"
 viewBox="0.00 0.00 1771.84 1453.00" xmlns="http://www.w3.org/2000/svg" xmlns:xlink="http://www.w3.org/1999/xlink">
<g id="graph0" class="graph" transform="scale(1 1) rotate(0) translate(4 1449)">
<polygon fill="white" stroke="none" points="-4,4 -4,-1449 1767.84,-1449 1767.84,4 -4,4"/>
<!-- AmirRank5Convo7 begins. -->
<g id="node1" class="node">
<title>AmirRank5Convo7 begins.</title>
<ellipse fill="none" stroke="orange" cx="1654" cy="-1427" rx="109.68" ry="18"/>
<text text-anchor="middle" x="1654" y="-1423.3" font-family="Times New Roman,serif" font-size="14.00">AmirRank5Convo7 begins.</text>
</g>
<!-- j3511724134 -->
<g id="node2" class="node">
<title>j3511724134</title>
<ellipse fill="none" stroke="orange" cx="1654" cy="-1354" rx="109.38" ry="18"/>
<text text-anchor="middle" x="1654" y="-1350.3" font-family="Times New Roman,serif" font-size="14.00">Check boolean AmirDating</text>
</g>
<!-- AmirRank5Convo7 begins.&#45;&gt;j3511724134 -->
<g id="edge1" class="edge">
<title>AmirRank5Convo7 begins.&#45;&gt;j3511724134</title>
<path fill="none" stroke="black" d="M1654,-1408.81C1654,-1401.23 1654,-1392.1 1654,-1383.54"/>
<polygon fill="black" stroke="black" points="1657.5,-1383.54 1654,-1373.54 1650.5,-1383.54 1657.5,-1383.54"/>
</g>
<!-- j1886611731 -->
<g id="node3" class="node">
<title>j1886611731</title>
<polygon fill="none" stroke="blue" points="1688,-1285 1464,-1285 1464,-1249 1688,-1249 1688,-1285"/>
<text text-anchor="middle" x="1576" y="-1263.3" font-family="Times New Roman,serif" font-size="14.00">안녕 자기야 나 부탁할 게 있어</text>
</g>
<!-- j3511724134&#45;&gt;j1886611731 -->
<g id="edge2" class="edge">
<title>j3511724134&#45;&gt;j1886611731</title>
<path fill="none" stroke="green" d="M1638.22,-1335.8C1627.19,-1323.78 1612.27,-1307.52 1599.8,-1293.94"/>
<polygon fill="green" stroke="green" points="1602.39,-1291.58 1593.05,-1286.58 1597.23,-1296.32 1602.39,-1291.58"/>
<text text-anchor="middle" x="1630" y="-1306.8" font-family="Times New Roman,serif" font-size="14.00">true</text>
</g>
<!-- Chat ends. -->
<g id="node4" class="node">
<title>Chat ends.</title>
<ellipse fill="none" stroke="orange" cx="1652" cy="-18" rx="50.09" ry="18"/>
<text text-anchor="middle" x="1652" y="-14.3" font-family="Times New Roman,serif" font-size="14.00">Chat ends.</text>
</g>
<!-- j3511724134&#45;&gt;Chat ends. -->
<g id="edge3" class="edge">
<title>j3511724134&#45;&gt;Chat ends.</title>
<path fill="none" stroke="brown" d="M1684.32,-1336.3C1706.6,-1321.57 1733,-1297.82 1733,-1268 1733,-1268 1733,-1268 1733,-90 1733,-66.8 1713.98,-49.42 1694.38,-37.66"/>
<polygon fill="brown" stroke="brown" points="1696.25,-34.69 1685.8,-32.91 1692.86,-40.81 1696.25,-34.69"/>
<text text-anchor="middle" x="1746" y="-668.3" font-family="Times New Roman,serif" font-size="14.00">false</text>
</g>
<!-- j3454090571 -->
<g id="node5" class="node">
<title>j3454090571</title>
<polygon fill="none" stroke="red" points="1520,-1212 1376,-1212 1376,-1176 1520,-1176 1520,-1212"/>
<text text-anchor="middle" x="1448" y="-1190.3" font-family="Times New Roman,serif" font-size="14.00">무슨 일이야, 자기?</text>
</g>
<!-- j1886611731&#45;&gt;j3454090571 -->
<g id="edge4" class="edge">
<title>j1886611731&#45;&gt;j3454090571</title>
<path fill="none" stroke="black" d="M1544.69,-1248.63C1528.03,-1239.39 1507.33,-1227.91 1489.37,-1217.95"/>
<polygon fill="black" stroke="black" points="1491.2,-1214.96 1480.76,-1213.17 1487.8,-1221.08 1491.2,-1214.96"/>
</g>
<!-- j4210176109 -->
<g id="node6" class="node">
<title>j4210176109</title>
<polygon fill="none" stroke="red" points="1718,-1158 1434,-1158 1434,-1122 1718,-1122 1718,-1158"/>
<text text-anchor="middle" x="1576" y="-1136.3" font-family="Times New Roman,serif" font-size="14.00">안녕, 미안, 지금은 못할 것 같아. [종료.]</text>
</g>
<!-- j1886611731&#45;&gt;j4210176109 -->
<g id="edge5" class="edge">
<title>j1886611731&#45;&gt;j4210176109</title>
<path fill="none" stroke="black" d="M1576,-1248.62C1576,-1228.19 1576,-1193.99 1576,-1169.62"/>
<polygon fill="black" stroke="black" points="1579.5,-1169.75 1576,-1159.75 1572.5,-1169.75 1579.5,-1169.75"/>
</g>
<!-- j230005975 -->
<g id="node7" class="node">
<title>j230005975</title>
<polygon fill="none" stroke="blue" points="1629.5,-1104 940.5,-1104 940.5,-1068 1629.5,-1068 1629.5,-1104"/>
<text text-anchor="middle" x="1285" y="-1082.3" font-family="Times New Roman,serif" font-size="14.00">그으으래서 내 생각에에에에 K.O.L 해킹하는 방법에 대해 알아낸 것 같아 ㅋㅋㅋㅋㅋㅋㅋㅋㅋㅋㅋ</text>
</g>
<!-- j3454090571&#45;&gt;j230005975 -->
<g id="edge6" class="edge">
<title>j3454090571&#45;&gt;j230005975</title>
<path fill="none" stroke="black" d="M1421.45,-1175.73C1394.18,-1158 1351.55,-1130.28 1321.2,-1110.54"/>
<polygon fill="black" stroke="black" points="1323.37,-1107.78 1313.08,-1105.26 1319.56,-1113.65 1323.37,-1107.78"/>
</g>
<!-- j4210176109&#45;&gt;Chat ends. -->
<g id="edge7" class="edge">
<title>j4210176109&#45;&gt;Chat ends.</title>
<path fill="none" stroke="black" d="M1624.69,-1121.58C1654.51,-1107.45 1687,-1084.21 1687,-1050 1687,-1050 1687,-1050 1687,-90 1687,-74.06 1679.81,-57.99 1671.96,-45.18"/>
<polygon fill="black" stroke="black" points="1674.92,-43.32 1666.47,-36.93 1669.09,-47.19 1674.92,-43.32"/>
</g>
<!-- j1558316837 -->
<g id="node8" class="node">
<title>j1558316837</title>
<polygon fill="none" stroke="blue" points="1368.5,-1031 849.5,-1031 849.5,-995 1368.5,-995 1368.5,-1031"/>
<text text-anchor="middle" x="1109" y="-1009.3" font-family="Times New Roman,serif" font-size="14.00">그리고 내가 올바르게 했는지 실험하기 위해서 아서의 유저명을 바꿀거야</text>
</g>
<!-- j230005975&#45;&gt;j1558316837 -->
<g id="edge8" class="edge">
<title>j230005975&#45;&gt;j1558316837</title>
<path fill="none" stroke="black" d="M1241.95,-1067.63C1218.08,-1058 1188.19,-1045.95 1162.8,-1035.7"/>
<polygon fill="black" stroke="black" points="1164.21,-1032.5 1153.62,-1032 1161.59,-1038.99 1164.21,-1032.5"/>
</g>
<!-- j415471592 -->
<g id="node9" class="node">
<title>j415471592</title>
<ellipse fill="none" stroke="orange" cx="849" cy="-940" rx="131.08" ry="18"/>
<text text-anchor="middle" x="849" y="-936.3" font-family="Times New Roman,serif" font-size="14.00">Check boolean AmirQuincyHack</text>
</g>
<!-- j1558316837&#45;&gt;j415471592 -->
<g id="edge9" class="edge">
<title>j1558316837&#45;&gt;j415471592</title>
<path fill="none" stroke="black" d="M1045.06,-994.54C1006.17,-983.92 956.53,-970.36 916.93,-959.55"/>
<polygon fill="black" stroke="black" points="918.07,-956.23 907.5,-956.98 916.23,-962.99 918.07,-956.23"/>
</g>
<!-- j2563548444 -->
<g id="node10" class="node">
<title>j2563548444</title>
<polygon fill="none" stroke="red" points="498,-871 226,-871 226,-835 498,-835 498,-871"/>
<text text-anchor="middle" x="362" y="-849.3" font-family="Times New Roman,serif" font-size="14.00">근데 그거 이미 퀸시한테 써먹었잖아.</text>
</g>
<!-- j415471592&#45;&gt;j2563548444 -->
<g id="edge10" class="edge">
<title>j415471592&#45;&gt;j2563548444</title>
<path fill="none" stroke="green" d="M770.21,-925.25C689.71,-911.2 564,-889.26 473.35,-873.43"/>
<polygon fill="green" stroke="green" points="474.14,-870.02 463.68,-871.75 472.93,-876.92 474.14,-870.02"/>
<text text-anchor="middle" x="646" y="-892.8" font-family="Times New Roman,serif" font-size="14.00">true</text>
</g>
<!-- j2184639377 -->
<g id="node11" class="node">
<title>j2184639377</title>
<polygon fill="none" stroke="red" points="787,-871 531,-871 531,-835 787,-835 787,-871"/>
<text text-anchor="middle" x="659" y="-849.3" font-family="Times New Roman,serif" font-size="14.00">ㅋㅋㅋㅋㅋㅋㅋㅋ 좋아, 나도 낄래.</text>
</g>
<!-- j415471592&#45;&gt;j2184639377 -->
<g id="edge11" class="edge">
<title>j415471592&#45;&gt;j2184639377</title>
<path fill="none" stroke="green" d="M773.42,-924.88C754.69,-919.76 735.1,-912.95 718,-904 705.49,-897.45 693.3,-887.84 683.27,-878.8"/>
<polygon fill="green" stroke="green" points="685.86,-876.42 676.18,-872.12 681.06,-881.52 685.86,-876.42"/>
<text text-anchor="middle" x="729" y="-892.8" font-family="Times New Roman,serif" font-size="14.00">true</text>
</g>
<!-- j415471592&#45;&gt;j2184639377 -->
<g id="edge14" class="edge">
<title>j415471592&#45;&gt;j2184639377</title>
<path fill="none" stroke="brown" d="M813.25,-922.36C792.02,-912.54 764.53,-899.93 740,-889 730.44,-884.74 720.22,-880.27 710.37,-875.99"/>
<polygon fill="brown" stroke="brown" points="711.83,-872.81 701.26,-872.05 709.05,-879.23 711.83,-872.81"/>
<text text-anchor="middle" x="787" y="-892.8" font-family="Times New Roman,serif" font-size="14.00">false</text>
</g>
<!-- j2365179495 -->
<g id="node12" class="node">
<title>j2365179495</title>
<polygon fill="none" stroke="red" points="884.5,-871 805.5,-871 805.5,-835 884.5,-835 884.5,-871"/>
<text text-anchor="middle" x="845" y="-849.3" font-family="Times New Roman,serif" font-size="14.00">어 이런...</text>
</g>
<!-- j415471592&#45;&gt;j2365179495 -->
<g id="edge12" class="edge">
<title>j415471592&#45;&gt;j2365179495</title>
<path fill="none" stroke="green" d="M840.53,-921.59C838.27,-916.1 836.14,-909.91 835,-904 833.63,-896.9 834.16,-889.24 835.5,-882.1"/>
<polygon fill="green" stroke="green" points="838.85,-883.13 837.88,-872.58 832.06,-881.43 838.85,-883.13"/>
<text text-anchor="middle" x="846" y="-892.8" font-family="Times New Roman,serif" font-size="14.00">true</text>
</g>
<!-- j415471592&#45;&gt;j2365179495 -->
<g id="edge15" class="edge">
<title>j415471592&#45;&gt;j2365179495</title>
<path fill="none" stroke="brown" d="M854.5,-921.87C856.91,-912.21 858.82,-899.93 857,-889 856.61,-886.67 856.09,-884.29 855.48,-881.93"/>
<polygon fill="brown" stroke="brown" points="858.89,-881.12 852.59,-872.6 852.2,-883.19 858.89,-881.12"/>
<text text-anchor="middle" x="870" y="-892.8" font-family="Times New Roman,serif" font-size="14.00">false</text>
</g>
<!-- j2876441356 -->
<g id="node13" class="node">
<title>j2876441356</title>
<polygon fill="none" stroke="red" points="1087.5,-871 902.5,-871 902.5,-835 1087.5,-835 1087.5,-871"/>
<text text-anchor="middle" x="995" y="-849.3" font-family="Times New Roman,serif" font-size="14.00">안돼애애애애 나 빠질래.</text>
</g>
<!-- j415471592&#45;&gt;j2876441356 -->
<g id="edge13" class="edge">
<title>j415471592&#45;&gt;j2876441356</title>
<path fill="none" stroke="green" d="M878.19,-922C900.36,-909.1 931.06,-891.22 955.43,-877.04"/>
<polygon fill="green" stroke="green" points="956.92,-880.22 963.8,-872.17 953.39,-874.17 956.92,-880.22"/>
<text text-anchor="middle" x="941" y="-892.8" font-family="Times New Roman,serif" font-size="14.00">true</text>
</g>
<!-- j415471592&#45;&gt;j2876441356 -->
<g id="edge16" class="edge">
<title>j415471592&#45;&gt;j2876441356</title>
<path fill="none" stroke="brown" d="M915.28,-924.08C929.48,-919.09 943.84,-912.54 956,-904 964.77,-897.84 972.51,-889.13 978.74,-880.71"/>
<polygon fill="brown" stroke="brown" points="981.45,-882.94 984.24,-872.71 975.69,-878.97 981.45,-882.94"/>
<text text-anchor="middle" x="984" y="-892.8" font-family="Times New Roman,serif" font-size="14.00">false</text>
</g>
<!-- j897201244 -->
<g id="node14" class="node">
<title>j897201244</title>
<polygon fill="none" stroke="blue" points="632,-636 0,-636 0,-600 632,-600 632,-636"/>
<text text-anchor="middle" x="316" y="-614.3" font-family="Times New Roman,serif" font-size="14.00">아니야 전혀 다른 거야 그건 내가 퀸시 비밀번호를 해독해서 걔 계정에 들어간 것일 뿐이고</text>
</g>
<!-- j2563548444&#45;&gt;j897201244 -->
<g id="edge17" class="edge">
<title>j2563548444&#45;&gt;j897201244</title>
<path fill="none" stroke="black" d="M358.62,-834.87C350.78,-795.16 331.3,-696.49 321.63,-647.52"/>
<polygon fill="black" stroke="black" points="325.11,-647.09 319.74,-637.96 318.25,-648.45 325.11,-647.09"/>
</g>
<!-- j1908455508 -->
<g id="node15" class="node">
<title>j1908455508</title>
<polygon fill="none" stroke="blue" points="720,-744 574,-744 574,-708 720,-708 720,-744"/>
<text text-anchor="middle" x="647" y="-722.3" font-family="Times New Roman,serif" font-size="14.00">아주 좋아아아아아</text>
</g>
<!-- j2184639377&#45;&gt;j1908455508 -->
<g id="edge18" class="edge">
<title>j2184639377&#45;&gt;j1908455508</title>
<path fill="none" stroke="black" d="M657.33,-834.62C655.37,-814.19 652.09,-779.99 649.75,-755.62"/>
<polygon fill="black" stroke="black" points="653.24,-755.36 648.8,-745.74 646.27,-756.03 653.24,-755.36"/>
</g>
<!-- j3770098879 -->
<g id="node16" class="node">
<title>j3770098879</title>
<polygon fill="none" stroke="blue" points="965,-744 725,-744 725,-708 965,-708 965,-744"/>
<text text-anchor="middle" x="845" y="-722.3" font-family="Times New Roman,serif" font-size="14.00">아니야 이거 괜찮을 거야 날 믿어</text>
</g>
<!-- j2365179495&#45;&gt;j3770098879 -->
<g id="edge19" class="edge">
<title>j2365179495&#45;&gt;j3770098879</title>
<path fill="none" stroke="black" d="M845,-834.62C845,-814.19 845,-779.99 845,-755.62"/>
<polygon fill="black" stroke="black" points="848.5,-755.75 845,-745.75 841.5,-755.75 848.5,-755.75"/>
</g>
<!-- j729443616 -->
<g id="node17" class="node">
<title>j729443616</title>
<polygon fill="none" stroke="blue" points="1241.5,-798 906.5,-798 906.5,-762 1241.5,-762 1241.5,-798"/>
<text text-anchor="middle" x="1074" y="-776.3" font-family="Times New Roman,serif" font-size="14.00">오 제바아아아아아아아알 너무 착하게 굴지 마</text>
</g>
<!-- j2876441356&#45;&gt;j729443616 -->
<g id="edge20" class="edge">
<title>j2876441356&#45;&gt;j729443616</title>
<path fill="none" stroke="black" d="M1014.12,-834.81C1023.76,-826.16 1035.61,-815.5 1046.23,-805.96"/>
<polygon fill="black" stroke="black" points="1048.55,-808.57 1053.65,-799.29 1043.88,-803.37 1048.55,-808.57"/>
</g>
<!-- j3550230480 -->
<g id="node18" class="node">
<title>j3550230480</title>
<polygon fill="none" stroke="blue" points="1066.5,-509 303.5,-509 303.5,-473 1066.5,-473 1066.5,-509"/>
<text text-anchor="middle" x="685" y="-487.3" font-family="Times New Roman,serif" font-size="14.00">그래서 난 우리와 K.O.L 사이의 트래픽을 중간에 수정하고 사람들의 요청을 엉망으로 만드는 방법을 알아냈어</text>
</g>
<!-- j897201244&#45;&gt;j3550230480 -->
<g id="edge21" class="edge">
<title>j897201244&#45;&gt;j3550230480</title>
<path fill="none" stroke="black" d="M367.31,-599.62C434.18,-576.97 551.02,-537.39 622.84,-513.06"/>
<polygon fill="black" stroke="black" points="623.75,-516.44 632.1,-509.92 621.51,-509.81 623.75,-516.44"/>
</g>
<!-- j1908455508&#45;&gt;j3550230480 -->
<g id="edge22" class="edge">
<title>j1908455508&#45;&gt;j3550230480</title>
<path fill="none" stroke="black" d="M647.6,-707.51C649.12,-672.64 654.3,-592.25 671,-527 671.6,-524.67 672.31,-522.29 673.09,-519.92"/>
<polygon fill="black" stroke="black" points="676.37,-521.16 676.58,-510.57 669.81,-518.71 676.37,-521.16"/>
</g>
<!-- j3770098879&#45;&gt;j3550230480 -->
<g id="edge23" class="edge">
<title>j3770098879&#45;&gt;j3550230480</title>
<path fill="none" stroke="black" d="M740.72,-707.5C723.87,-702.73 709.97,-696.92 704,-690 663.07,-642.53 670.63,-562.84 678.49,-520.48"/>
<polygon fill="black" stroke="black" points="681.9,-521.31 680.43,-510.82 675.03,-519.93 681.9,-521.31"/>
</g>
<!-- j3868902502 -->
<g id="node19" class="node">
<title>j3868902502</title>
<polygon fill="none" stroke="blue" points="1530.5,-690 713.5,-690 713.5,-654 1530.5,-654 1530.5,-690"/>
<text text-anchor="middle" x="1122" y="-668.3" font-family="Times New Roman,serif" font-size="14.00">최악이라고 할 만한게 있겠어?! 지금 이상으로 스칼드라들이 쳐들어오기야 더하겠냐고 ㅋㅋㅋㅋㅋㅋㅋㅋㅋㅋㅋㅋㅋ</text>
</g>
<!-- j729443616&#45;&gt;j3868902502 -->
<g id="edge24" class="edge">
<title>j729443616&#45;&gt;j3868902502</title>
<path fill="none" stroke="black" d="M1081.71,-761.97C1089.19,-745.45 1100.66,-720.12 1109.46,-700.7"/>
<polygon fill="black" stroke="black" points="1112.59,-702.27 1113.52,-691.72 1106.21,-699.39 1112.59,-702.27"/>
</g>
<!-- j2794776749 -->
<g id="node20" class="node">
<title>j2794776749</title>
<polygon fill="none" stroke="blue" points="1236,-401 706,-401 706,-365 1236,-365 1236,-401"/>
<text text-anchor="middle" x="971" y="-379.3" font-family="Times New Roman,serif" font-size="14.00">하지만 뭔가 더 흥미로운 일을 하기 전에 작은 것으로 실험을 하고 싶어졌어</text>
</g>
<!-- j3550230480&#45;&gt;j2794776749 -->
<g id="edge25" class="edge">
<title>j3550230480&#45;&gt;j2794776749</title>
<path fill="none" stroke="black" d="M731.91,-472.61C781.57,-454.21 860.02,-425.13 913.41,-405.35"/>
<polygon fill="black" stroke="black" points="914.49,-408.68 922.65,-401.92 912.06,-402.11 914.49,-408.68"/>
</g>
<!-- j2369428374 -->
<g id="node21" class="node">
<title>j2369428374</title>
<polygon fill="none" stroke="red" points="835,-582 713,-582 713,-546 835,-546 835,-582"/>
<text text-anchor="middle" x="774" y="-560.3" font-family="Times New Roman,serif" font-size="14.00">알았어, 알았어.</text>
</g>
<!-- j3868902502&#45;&gt;j2369428374 -->
<g id="edge26" class="edge">
<title>j3868902502&#45;&gt;j2369428374</title>
<path fill="none" stroke="black" d="M1064.92,-653.61C1003.95,-635.04 907.33,-605.61 842.34,-585.82"/>
<polygon fill="black" stroke="black" points="843.43,-582.49 832.84,-582.92 841.39,-589.19 843.43,-582.49"/>
</g>
<!-- j2187350365 -->
<g id="node22" class="node">
<title>j2187350365</title>
<polygon fill="none" stroke="red" points="1658.5,-582 853.5,-582 853.5,-546 1658.5,-546 1658.5,-582"/>
<text text-anchor="middle" x="1256" y="-560.3" font-family="Times New Roman,serif" font-size="14.00">미디어 대기업이랑은 절대 엮이지 말라고. 그들은 스칼드라보다 더 나쁜 걸 가지고 있어. 변호사라는 존재들 말이야.</text>
</g>
<!-- j3868902502&#45;&gt;j2187350365 -->
<g id="edge27" class="edge">
<title>j3868902502&#45;&gt;j2187350365</title>
<path fill="none" stroke="black" d="M1143.83,-653.73C1165.92,-636.25 1200.29,-609.07 1225.16,-589.4"/>
<polygon fill="black" stroke="black" points="1227.32,-592.15 1232.99,-583.2 1222.98,-586.66 1227.32,-592.15"/>
</g>
<!-- j725147518 -->
<g id="node23" class="node">
<title>j725147518</title>
<polygon fill="none" stroke="blue" points="1579.5,-328 752.5,-328 752.5,-292 1579.5,-292 1579.5,-328"/>
<text text-anchor="middle" x="1166" y="-306.3" font-family="Times New Roman,serif" font-size="14.00">그래서 내일 아서랑 얘기해서 그의 유저명이 변경되었는 지 확인해 볼거야. 시스템이 업데이트되려면 약 24시간이 걸려</text>
</g>
<!-- j2794776749&#45;&gt;j725147518 -->
<g id="edge28" class="edge">
<title>j2794776749&#45;&gt;j725147518</title>
<path fill="none" stroke="black" d="M1018.7,-364.63C1045.5,-354.88 1079.15,-342.62 1107.52,-332.29"/>
<polygon fill="black" stroke="black" points="1108.49,-335.66 1116.69,-328.95 1106.1,-329.09 1108.49,-335.66"/>
</g>
<!-- j2369428374&#45;&gt;j3550230480 -->
<g id="edge29" class="edge">
<title>j2369428374&#45;&gt;j3550230480</title>
<path fill="none" stroke="black" d="M752.46,-545.81C741.39,-536.98 727.71,-526.07 715.57,-516.39"/>
<polygon fill="black" stroke="black" points="717.84,-513.72 707.84,-510.22 713.47,-519.19 717.84,-513.72"/>
</g>
<!-- j2548315104 -->
<g id="node24" class="node">
<title>j2548315104</title>
<polygon fill="none" stroke="blue" points="1491.5,-455 1380.5,-455 1380.5,-419 1491.5,-419 1491.5,-455"/>
<text text-anchor="middle" x="1436" y="-433.3" font-family="Times New Roman,serif" font-size="14.00">잼없어ㅓㅓㅓ</text>
</g>
<!-- j2187350365&#45;&gt;j2548315104 -->
<g id="edge30" class="edge">
<title>j2187350365&#45;&gt;j2548315104</title>
<path fill="none" stroke="black" d="M1281.03,-545.62C1312.37,-523.85 1366.23,-486.45 1401.48,-461.97"/>
<polygon fill="black" stroke="black" points="1403.43,-464.88 1409.65,-456.3 1399.44,-459.13 1403.43,-464.88"/>
</g>
<!-- j3432476515 -->
<g id="node25" class="node">
<title>j3432476515</title>
<ellipse fill="none" stroke="orange" cx="1277" cy="-237" rx="64.19" ry="18"/>
<text text-anchor="middle" x="1277" y="-233.3" font-family="Times New Roman,serif" font-size="14.00">+20 Chemistry</text>
</g>
<!-- j725147518&#45;&gt;j3432476515 -->
<g id="edge31" class="edge">
<title>j725147518&#45;&gt;j3432476515</title>
<path fill="none" stroke="black" d="M1193.15,-291.63C1208.04,-282.11 1226.64,-270.22 1242.53,-260.05"/>
<polygon fill="black" stroke="black" points="1244.21,-263.13 1250.75,-254.79 1240.44,-257.23 1244.21,-263.13"/>
</g>
<!-- j2548315104&#45;&gt;Chat ends. -->
<g id="edge32" class="edge">
<title>j2548315104&#45;&gt;Chat ends.</title>
<path fill="none" stroke="black" d="M1491.93,-433.83C1550.17,-428.23 1633,-409.3 1633,-347 1633,-347 1633,-347 1633,-90 1633,-75.39 1636.8,-59.65 1641,-46.71"/>
<polygon fill="black" stroke="black" points="1644.19,-48.19 1644.21,-37.59 1637.59,-45.87 1644.19,-48.19"/>
</g>
<!-- j3206073880 -->
<g id="node26" class="node">
<title>j3206073880</title>
<polygon fill="none" stroke="blue" points="1546.5,-182 1101.5,-182 1101.5,-146 1546.5,-146 1546.5,-182"/>
<text text-anchor="middle" x="1324" y="-160.3" font-family="Times New Roman,serif" font-size="14.00">그럼 돌아와서 보고해줘 비밀요원 자기야 무하하하하하하하하</text>
</g>
<!-- j3432476515&#45;&gt;j3206073880 -->
<g id="edge33" class="edge">
<title>j3432476515&#45;&gt;j3206073880</title>
<path fill="none" stroke="black" d="M1288.38,-218.81C1293.8,-210.62 1300.42,-200.62 1306.47,-191.48"/>
<polygon fill="black" stroke="black" points="1309.29,-193.56 1311.89,-183.29 1303.45,-189.7 1309.29,-193.56"/>
</g>
<!-- Initiate conversation ArthurAmirHack in ArthurDialogue_rom.dialogue -->
<g id="node27" class="node">
<title>Initiate conversation ArthurAmirHack in ArthurDialogue_rom.dialogue</title>
<ellipse fill="none" stroke="orange" cx="1338" cy="-91" rx="264.55" ry="18"/>
<text text-anchor="middle" x="1338" y="-87.3" font-family="Times New Roman,serif" font-size="14.00">Initiate conversation ArthurAmirHack in ArthurDialogue_rom.dialogue</text>
</g>
<!-- j3206073880&#45;&gt;Initiate conversation ArthurAmirHack in ArthurDialogue_rom.dialogue -->
<g id="edge34" class="edge">
<title>j3206073880&#45;&gt;Initiate conversation ArthurAmirHack in ArthurDialogue_rom.dialogue</title>
<path fill="none" stroke="black" d="M1327.39,-145.81C1328.9,-138.14 1330.73,-128.89 1332.43,-120.24"/>
<polygon fill="black" stroke="black" points="1335.85,-121 1334.35,-110.51 1328.98,-119.65 1335.85,-121"/>
</g>
<!-- Initiate conversation ArthurAmirHack in ArthurDialogue_rom.dialogue&#45;&gt;Chat ends. -->
<g id="edge35" class="edge">
<title>Initiate conversation ArthurAmirHack in ArthurDialogue_rom.dialogue&#45;&gt;Chat ends.</title>
<path fill="none" stroke="black" d="M1412.02,-73.26C1469.5,-60.27 1547.8,-42.56 1599.11,-30.96"/>
<polygon fill="black" stroke="black" points="1599.81,-34.39 1608.79,-28.77 1598.26,-27.56 1599.81,-34.39"/>
</g>
</g>
</svg>
