<?xml version="1.0" encoding="UTF-8" standalone="no"?>
<!DOCTYPE svg PUBLIC "-//W3C//DTD SVG 1.1//EN"
 "http://www.w3.org/Graphics/SVG/1.1/DTD/svg11.dtd">
<!-- Generated by graphviz version 7.1.0 (20230121.1956)
 -->
<!-- Pages: 1 -->
<svg width="2818pt" height="1488pt"
 viewBox="0.00 0.00 2818.49 1488.00" xmlns="http://www.w3.org/2000/svg" xmlns:xlink="http://www.w3.org/1999/xlink">
<g id="graph0" class="graph" transform="scale(1 1) rotate(0) translate(4 1484)">
<polygon fill="white" stroke="none" points="-4,4 -4,-1484 2814.49,-1484 2814.49,4 -4,4"/>
<!-- ArthurQuincyWingman begins. -->
<g id="node1" class="node">
<title>ArthurQuincyWingman begins.</title>
<ellipse fill="none" stroke="orange" cx="123.49" cy="-1462" rx="123.48" ry="18"/>
<text text-anchor="middle" x="123.49" y="-1458.3" font-family="Times New Roman,serif" font-size="14.00">ArthurQuincyWingman begins.</text>
</g>
<!-- j316261002 -->
<g id="node2" class="node">
<title>j316261002</title>
<ellipse fill="none" stroke="orange" cx="123.49" cy="-1389" rx="98.28" ry="18"/>
<text text-anchor="middle" x="123.49" y="-1385.3" font-family="Times New Roman,serif" font-size="14.00">Check boolean IsDating</text>
</g>
<!-- ArthurQuincyWingman begins.&#45;&gt;j316261002 -->
<g id="edge1" class="edge">
<title>ArthurQuincyWingman begins.&#45;&gt;j316261002</title>
<path fill="none" stroke="black" d="M123.49,-1443.81C123.49,-1436.23 123.49,-1427.1 123.49,-1418.54"/>
<polygon fill="black" stroke="black" points="126.99,-1418.54 123.49,-1408.54 119.99,-1418.54 126.99,-1418.54"/>
</g>
<!-- Chat ends. -->
<g id="node3" class="node">
<title>Chat ends.</title>
<ellipse fill="none" stroke="orange" cx="1084.49" cy="-18" rx="50.09" ry="18"/>
<text text-anchor="middle" x="1084.49" y="-14.3" font-family="Times New Roman,serif" font-size="14.00">Chat ends.</text>
</g>
<!-- j316261002&#45;&gt;Chat ends. -->
<g id="edge2" class="edge">
<title>j316261002&#45;&gt;Chat ends.</title>
<path fill="none" stroke="green" d="M118.25,-1370.6C113.58,-1353.54 107.49,-1326.73 107.49,-1303 107.49,-1303 107.49,-1303 107.49,-90 107.49,-43.89 808.74,-24.95 1023.03,-20.24"/>
<polygon fill="green" stroke="green" points="1022.92,-23.74 1032.84,-20.02 1022.77,-16.74 1022.92,-23.74"/>
<text text-anchor="middle" x="118.49" y="-633.3" font-family="Times New Roman,serif" font-size="14.00">true</text>
</g>
<!-- j2095282550 -->
<g id="node4" class="node">
<title>j2095282550</title>
<polygon fill="none" stroke="blue" points="1200.99,-1320 509.99,-1320 509.99,-1284 1200.99,-1284 1200.99,-1320"/>
<text text-anchor="middle" x="855.49" y="-1298.3" font-family="Times New Roman,serif" font-size="14.00">도대체 어떤 미친 짓으로 설득을 했길래 다른 사람도 아닌 *퀸시*가 너 대신 내게 말을 하게 된거냐?</text>
</g>
<!-- j316261002&#45;&gt;j2095282550 -->
<g id="edge3" class="edge">
<title>j316261002&#45;&gt;j2095282550</title>
<path fill="none" stroke="brown" d="M204.62,-1378.58C322.19,-1364.93 542.39,-1339.36 693.86,-1321.77"/>
<polygon fill="brown" stroke="brown" points="694.07,-1325.27 703.6,-1320.64 693.26,-1318.31 694.07,-1325.27"/>
<text text-anchor="middle" x="545.49" y="-1341.8" font-family="Times New Roman,serif" font-size="14.00">false</text>
</g>
<!-- j3314994792 -->
<g id="node5" class="node">
<title>j3314994792</title>
<ellipse fill="none" stroke="orange" cx="1096.49" cy="-1229" rx="118.88" ry="18"/>
<text text-anchor="middle" x="1096.49" y="-1225.3" font-family="Times New Roman,serif" font-size="14.00">Check boolean ArthurNoDate</text>
</g>
<!-- j2095282550&#45;&gt;j3314994792 -->
<g id="edge4" class="edge">
<title>j2095282550&#45;&gt;j3314994792</title>
<path fill="none" stroke="black" d="M914.75,-1283.54C950.5,-1273.01 996.03,-1259.6 1032.58,-1248.83"/>
<polygon fill="black" stroke="black" points="1033.56,-1252.19 1042.16,-1246.01 1031.58,-1245.47 1033.56,-1252.19"/>
</g>
<!-- j3627156175 -->
<g id="node6" class="node">
<title>j3627156175</title>
<polygon fill="none" stroke="red" points="963.49,-1106 511.49,-1106 511.49,-1070 963.49,-1070 963.49,-1106"/>
<text text-anchor="middle" x="737.49" y="-1084.3" font-family="Times New Roman,serif" font-size="14.00">단지 너한테 사과를 하고 싶었을 뿐인데, 달리 할 방법을 몰랐어.</text>
</g>
<!-- j3314994792&#45;&gt;j3627156175 -->
<g id="edge5" class="edge">
<title>j3314994792&#45;&gt;j3627156175</title>
<path fill="none" stroke="green" d="M1025.7,-1214.19C975.5,-1203.02 907.25,-1185.03 850.49,-1160 821.68,-1147.3 791.62,-1128.07 769.75,-1112.83"/>
<polygon fill="green" stroke="green" points="772.03,-1110.16 761.84,-1107.24 767.98,-1115.87 772.03,-1110.16"/>
<text text-anchor="middle" x="950.49" y="-1181.8" font-family="Times New Roman,serif" font-size="14.00">true</text>
</g>
<!-- j2084070591 -->
<g id="node7" class="node">
<title>j2084070591</title>
<polygon fill="none" stroke="red" points="1726.49,-1160 1352.49,-1160 1352.49,-1124 1726.49,-1124 1726.49,-1160"/>
<text text-anchor="middle" x="1539.49" y="-1138.3" font-family="Times New Roman,serif" font-size="14.00">네가 무슨 소릴 하는 건지 하나도 모르겠는데. [종료.]</text>
</g>
<!-- j3314994792&#45;&gt;j2084070591 -->
<g id="edge6" class="edge">
<title>j3314994792&#45;&gt;j2084070591</title>
<path fill="none" stroke="green" d="M1168.16,-1214.25C1241.08,-1200.26 1354.81,-1178.44 1437.19,-1162.63"/>
<polygon fill="green" stroke="green" points="1437.7,-1166.09 1446.86,-1160.77 1436.38,-1159.22 1437.7,-1166.09"/>
<text text-anchor="middle" x="1355.49" y="-1181.8" font-family="Times New Roman,serif" font-size="14.00">true</text>
</g>
<!-- j3314994792&#45;&gt;j2084070591 -->
<g id="edge8" class="edge">
<title>j3314994792&#45;&gt;j2084070591</title>
<path fill="none" stroke="brown" d="M1197.02,-1219.07C1249.12,-1213.45 1313.59,-1204.97 1370.49,-1193 1406.38,-1185.45 1445.71,-1174.01 1477.39,-1163.97"/>
<polygon fill="brown" stroke="brown" points="1478.37,-1167.34 1486.82,-1160.95 1476.23,-1160.67 1478.37,-1167.34"/>
<text text-anchor="middle" x="1439.49" y="-1181.8" font-family="Times New Roman,serif" font-size="14.00">false</text>
</g>
<!-- j444223528 -->
<g id="node8" class="node">
<title>j444223528</title>
<polygon fill="none" stroke="red" points="1333.99,-1160 858.99,-1160 858.99,-1124 1333.99,-1124 1333.99,-1160"/>
<text text-anchor="middle" x="1096.49" y="-1138.3" font-family="Times New Roman,serif" font-size="14.00">난... 너한테 좋아하는 마음이 있다는 걸 어떻게 전해야 할지 몰랐어.</text>
</g>
<!-- j3314994792&#45;&gt;j444223528 -->
<g id="edge7" class="edge">
<title>j3314994792&#45;&gt;j444223528</title>
<path fill="none" stroke="brown" d="M1096.49,-1210.8C1096.49,-1199.58 1096.49,-1184.67 1096.49,-1171.69"/>
<polygon fill="brown" stroke="brown" points="1099.99,-1171.98 1096.49,-1161.98 1092.99,-1171.98 1099.99,-1171.98"/>
<text text-anchor="middle" x="1109.49" y="-1181.8" font-family="Times New Roman,serif" font-size="14.00">false</text>
</g>
<!-- j2833782111 -->
<g id="node9" class="node">
<title>j2833782111</title>
<polygon fill="none" stroke="blue" points="1022.99,-890 359.99,-890 359.99,-854 1022.99,-854 1022.99,-890"/>
<text text-anchor="middle" x="691.49" y="-868.3" font-family="Times New Roman,serif" font-size="14.00">기습 요소만큼은 훌륭하군. 확실히 기대하지 않은 일이었다. 그리고... 알았다, 사과를 받아주지.</text>
</g>
<!-- j3627156175&#45;&gt;j2833782111 -->
<g id="edge9" class="edge">
<title>j3627156175&#45;&gt;j2833782111</title>
<path fill="none" stroke="black" d="M733.8,-1069.85C725.9,-1033.07 707.24,-946.29 697.56,-901.24"/>
<polygon fill="black" stroke="black" points="701.03,-900.75 695.51,-891.71 694.19,-902.22 701.03,-900.75"/>
</g>
<!-- j1310724523 -->
<g id="node10" class="node">
<title>j1310724523</title>
<polygon fill="none" stroke="blue" points="2275.99,-998 2212.99,-998 2212.99,-962 2275.99,-962 2275.99,-998"/>
<text text-anchor="middle" x="2244.49" y="-976.3" font-family="Times New Roman,serif" font-size="14.00">음...흠.</text>
</g>
<!-- j2084070591&#45;&gt;j1310724523 -->
<g id="edge10" class="edge">
<title>j2084070591&#45;&gt;j1310724523</title>
<path fill="none" stroke="black" d="M1616.28,-1123.57C1764.47,-1089.94 2085.49,-1017.08 2201.54,-990.75"/>
<polygon fill="black" stroke="black" points="2202.3,-994.16 2211.28,-988.54 2200.75,-987.34 2202.3,-994.16"/>
</g>
<!-- j4286701419 -->
<g id="node11" class="node">
<title>j4286701419</title>
<ellipse fill="none" stroke="orange" cx="1160.49" cy="-1034" rx="126.98" ry="18"/>
<text text-anchor="middle" x="1160.49" y="-1030.3" font-family="Times New Roman,serif" font-size="14.00">Check boolean ArthurHasDated</text>
</g>
<!-- j444223528&#45;&gt;j4286701419 -->
<g id="edge11" class="edge">
<title>j444223528&#45;&gt;j4286701419</title>
<path fill="none" stroke="black" d="M1106.77,-1123.97C1116.84,-1107.3 1132.33,-1081.65 1144.09,-1062.16"/>
<polygon fill="black" stroke="black" points="1147.06,-1064.01 1149.24,-1053.64 1141.07,-1060.39 1147.06,-1064.01"/>
</g>
<!-- j2523026573 -->
<g id="node12" class="node">
<title>j2523026573</title>
<polygon fill="none" stroke="blue" points="551.99,-782 186.99,-782 186.99,-746 551.99,-746 551.99,-782"/>
<text text-anchor="middle" x="369.49" y="-760.3" font-family="Times New Roman,serif" font-size="14.00">솔직히 인정하자면, 최근 네 생각을 많이 하긴 했다.</text>
</g>
<!-- j2833782111&#45;&gt;j2523026573 -->
<g id="edge12" class="edge">
<title>j2833782111&#45;&gt;j2523026573</title>
<path fill="none" stroke="black" d="M638.68,-853.61C582.49,-835.12 493.59,-805.85 433.47,-786.06"/>
<polygon fill="black" stroke="black" points="434.63,-782.76 424.03,-782.96 432.44,-789.41 434.63,-782.76"/>
</g>
<!-- j1310724523&#45;&gt;Chat ends. -->
<g id="edge13" class="edge">
<title>j1310724523&#45;&gt;Chat ends.</title>
<path fill="none" stroke="black" d="M2276.13,-976.46C2395.33,-966.48 2810.49,-927.8 2810.49,-873 2810.49,-873 2810.49,-873 2810.49,-90 2810.49,-47.46 1453.9,-24.54 1146.09,-19.89"/>
<polygon fill="black" stroke="black" points="1146.31,-16.39 1136.26,-19.74 1146.21,-23.39 1146.31,-16.39"/>
</g>
<!-- j961390782 -->
<g id="node13" class="node">
<title>j961390782</title>
<polygon fill="none" stroke="blue" points="2781.99,-655 1672.99,-655 1672.99,-619 2781.99,-619 2781.99,-655"/>
<text text-anchor="middle" x="2227.49" y="-633.3" font-family="Times New Roman,serif" font-size="14.00">넌 이미 나와 한 번 함께해 본 뒤, 갈라서기를 선택했지. 하지만... 퀸시가 제법 설득력 있는 소리를 하더군. 다시 한 번 나와 해보고 싶다면, 나도 해 볼 생각이 있다.</text>
</g>
<!-- j4286701419&#45;&gt;j961390782 -->
<g id="edge14" class="edge">
<title>j4286701419&#45;&gt;j961390782</title>
<path fill="none" stroke="green" d="M1281.92,-1028.51C1498.61,-1018.86 1929.49,-991.56 1929.49,-927 1929.49,-927 1929.49,-927 1929.49,-709 1929.49,-684.35 1968.56,-668.24 2018.41,-657.72"/>
<polygon fill="green" stroke="green" points="2018.94,-661.18 2028.06,-655.79 2017.57,-654.32 2018.94,-661.18"/>
<text text-anchor="middle" x="1940.49" y="-814.3" font-family="Times New Roman,serif" font-size="14.00">true</text>
</g>
<!-- j3150570004 -->
<g id="node14" class="node">
<title>j3150570004</title>
<polygon fill="none" stroke="blue" points="1533.49,-944 787.49,-944 787.49,-908 1533.49,-908 1533.49,-944"/>
<text text-anchor="middle" x="1160.49" y="-922.3" font-family="Times New Roman,serif" font-size="14.00">그냥 다들 모인 데서 직접 내게 와 &quot;있잖아, 나 널 좋아해&quot; 라고 말해 보는 건 어땠나? 그런 생각은 못 해봤나?</text>
</g>
<!-- j4286701419&#45;&gt;j3150570004 -->
<g id="edge15" class="edge">
<title>j4286701419&#45;&gt;j3150570004</title>
<path fill="none" stroke="brown" d="M1160.49,-1015.97C1160.49,-999.76 1160.49,-975.06 1160.49,-955.79"/>
<polygon fill="brown" stroke="brown" points="1163.99,-955.85 1160.49,-945.85 1156.99,-955.85 1163.99,-955.85"/>
<text text-anchor="middle" x="1173.49" y="-976.3" font-family="Times New Roman,serif" font-size="14.00">false</text>
</g>
<!-- j2336569925 -->
<g id="node15" class="node">
<title>j2336569925</title>
<polygon fill="none" stroke="blue" points="539.49,-655 147.49,-655 147.49,-619 539.49,-619 539.49,-655"/>
<text text-anchor="middle" x="343.49" y="-633.3" font-family="Times New Roman,serif" font-size="14.00">다시 한 번 나와 해보고 싶다면, 나도 해 볼 생각이 있어.</text>
</g>
<!-- j2523026573&#45;&gt;j2336569925 -->
<g id="edge16" class="edge">
<title>j2523026573&#45;&gt;j2336569925</title>
<path fill="none" stroke="black" d="M365.87,-745.62C361.61,-725.1 354.45,-690.67 349.37,-666.29"/>
<polygon fill="black" stroke="black" points="352.84,-665.79 347.38,-656.71 345.99,-667.22 352.84,-665.79"/>
</g>
<!-- j1467271300 -->
<g id="node16" class="node">
<title>j1467271300</title>
<polygon fill="none" stroke="red" points="1265.49,-582 1167.49,-582 1167.49,-546 1265.49,-546 1265.49,-582"/>
<text text-anchor="middle" x="1216.49" y="-560.3" font-family="Times New Roman,serif" font-size="14.00">좋아 :) 할래.</text>
</g>
<!-- j961390782&#45;&gt;j1467271300 -->
<g id="edge17" class="edge">
<title>j961390782&#45;&gt;j1467271300</title>
<path fill="none" stroke="black" d="M2024.38,-618.51C1949.9,-612.33 1864.89,-605.54 1787.49,-600 1601.53,-586.69 1381.28,-574.08 1277.01,-568.3"/>
<polygon fill="black" stroke="black" points="1277.46,-564.82 1267.29,-567.76 1277.08,-571.81 1277.46,-564.82"/>
</g>
<!-- j4069757127 -->
<g id="node17" class="node">
<title>j4069757127</title>
<polygon fill="none" stroke="red" points="1052.99,-582 891.99,-582 891.99,-546 1052.99,-546 1052.99,-582"/>
<text text-anchor="middle" x="972.49" y="-560.3" font-family="Times New Roman,serif" font-size="14.00">사실, 나 맘 바뀌었어.</text>
</g>
<!-- j961390782&#45;&gt;j4069757127 -->
<g id="edge18" class="edge">
<title>j961390782&#45;&gt;j4069757127</title>
<path fill="none" stroke="black" d="M1802.63,-618.51C1606.45,-609.42 1370.5,-597.04 1158.49,-582 1127.94,-579.83 1094.62,-576.95 1064.73,-574.18"/>
<polygon fill="black" stroke="black" points="1065.25,-570.71 1054.96,-573.26 1064.59,-577.68 1065.25,-570.71"/>
</g>
<!-- j3438390891 -->
<g id="node18" class="node">
<title>j3438390891</title>
<polygon fill="none" stroke="red" points="1254.99,-836 1101.99,-836 1101.99,-800 1254.99,-800 1254.99,-836"/>
<text text-anchor="middle" x="1178.49" y="-814.3" font-family="Times New Roman,serif" font-size="14.00">...솔직히, 못 해봤어.</text>
</g>
<!-- j3150570004&#45;&gt;j3438390891 -->
<g id="edge19" class="edge">
<title>j3150570004&#45;&gt;j3438390891</title>
<path fill="none" stroke="black" d="M1163.38,-907.97C1166.15,-891.69 1170.37,-866.82 1173.65,-847.52"/>
<polygon fill="black" stroke="black" points="1177.07,-848.28 1175.29,-837.83 1170.17,-847.11 1177.07,-848.28"/>
</g>
<!-- j1137106232 -->
<g id="node19" class="node">
<title>j1137106232</title>
<polygon fill="none" stroke="red" points="1083.99,-836 1024.99,-836 1024.99,-800 1083.99,-800 1083.99,-836"/>
<text text-anchor="middle" x="1054.49" y="-814.3" font-family="Times New Roman,serif" font-size="14.00">....허...</text>
</g>
<!-- j3150570004&#45;&gt;j1137106232 -->
<g id="edge20" class="edge">
<title>j3150570004&#45;&gt;j1137106232</title>
<path fill="none" stroke="black" d="M1143.46,-907.97C1126.25,-890.76 1099.47,-863.98 1079.78,-844.29"/>
<polygon fill="black" stroke="black" points="1082.45,-842.01 1072.9,-837.41 1077.5,-846.96 1082.45,-842.01"/>
</g>
<!-- j2336569925&#45;&gt;j1467271300 -->
<g id="edge21" class="edge">
<title>j2336569925&#45;&gt;j1467271300</title>
<path fill="none" stroke="black" d="M539.75,-619.76C543.02,-619.5 546.27,-619.25 549.49,-619 777.4,-601.38 834.84,-602.77 1062.49,-582 1093.33,-579.19 1127.58,-575.47 1155.94,-572.22"/>
<polygon fill="black" stroke="black" points="1156.26,-575.71 1165.79,-571.08 1155.46,-568.75 1156.26,-575.71"/>
</g>
<!-- j2336569925&#45;&gt;j4069757127 -->
<g id="edge22" class="edge">
<title>j2336569925&#45;&gt;j4069757127</title>
<path fill="none" stroke="black" d="M498.17,-618.54C618.13,-605 780.34,-586.69 880.61,-575.37"/>
<polygon fill="black" stroke="black" points="880.87,-578.86 890.41,-574.26 880.08,-571.91 880.87,-578.86"/>
</g>
<!-- j1038578878 -->
<g id="node20" class="node">
<title>j1038578878</title>
<ellipse fill="none" stroke="orange" cx="1250.49" cy="-491" rx="64.19" ry="18"/>
<text text-anchor="middle" x="1250.49" y="-487.3" font-family="Times New Roman,serif" font-size="14.00">+20 Chemistry</text>
</g>
<!-- j1467271300&#45;&gt;j1038578878 -->
<g id="edge23" class="edge">
<title>j1467271300&#45;&gt;j1038578878</title>
<path fill="none" stroke="black" d="M1224.72,-545.81C1228.52,-537.88 1233.13,-528.26 1237.39,-519.36"/>
<polygon fill="black" stroke="black" points="1240.52,-520.92 1241.68,-510.39 1234.2,-517.9 1240.52,-520.92"/>
</g>
<!-- j2480806584 -->
<g id="node21" class="node">
<title>j2480806584</title>
<polygon fill="none" stroke="blue" points="1168.49,-509 744.49,-509 744.49,-473 1168.49,-473 1168.49,-509"/>
<text text-anchor="middle" x="956.49" y="-487.3" font-family="Times New Roman,serif" font-size="14.00">...지금껏 너더러 *제대로* 미쳤단 소릴 해 준 사람이 없었나?</text>
</g>
<!-- j4069757127&#45;&gt;j2480806584 -->
<g id="edge24" class="edge">
<title>j4069757127&#45;&gt;j2480806584</title>
<path fill="none" stroke="black" d="M968.62,-545.81C966.89,-538.14 964.8,-528.89 962.85,-520.24"/>
<polygon fill="black" stroke="black" points="966.27,-519.49 960.66,-510.51 959.44,-521.03 966.27,-519.49"/>
</g>
<!-- j4038772945 -->
<g id="node22" class="node">
<title>j4038772945</title>
<polygon fill="none" stroke="blue" points="1243.99,-728 968.99,-728 968.99,-692 1243.99,-692 1243.99,-728"/>
<text text-anchor="middle" x="1106.49" y="-706.3" font-family="Times New Roman,serif" font-size="14.00">가끔은 널 어찌 대해야 할지 모르겠다.</text>
</g>
<!-- j3438390891&#45;&gt;j4038772945 -->
<g id="edge25" class="edge">
<title>j3438390891&#45;&gt;j4038772945</title>
<path fill="none" stroke="black" d="M1166.92,-799.97C1155.49,-783.15 1137.85,-757.17 1124.57,-737.62"/>
<polygon fill="black" stroke="black" points="1127.63,-735.9 1119.12,-729.59 1121.84,-739.83 1127.63,-735.9"/>
</g>
<!-- j1137106232&#45;&gt;j4038772945 -->
<g id="edge26" class="edge">
<title>j1137106232&#45;&gt;j4038772945</title>
<path fill="none" stroke="black" d="M1062.84,-799.97C1070.98,-783.38 1083.49,-757.88 1093.03,-738.43"/>
<polygon fill="black" stroke="black" points="1096.05,-740.22 1097.32,-729.7 1089.77,-737.14 1096.05,-740.22"/>
</g>
<!-- j3452809869 -->
<g id="node23" class="node">
<title>j3452809869</title>
<polygon fill="none" stroke="blue" points="1397.99,-436 1038.99,-436 1038.99,-400 1397.99,-400 1397.99,-436"/>
<text text-anchor="middle" x="1218.49" y="-414.3" font-family="Times New Roman,serif" font-size="14.00">좋아. 다 정리가 된 것 같아 다행이군. 그럼 해볼까?</text>
</g>
<!-- j1038578878&#45;&gt;j3452809869 -->
<g id="edge27" class="edge">
<title>j1038578878&#45;&gt;j3452809869</title>
<path fill="none" stroke="black" d="M1242.74,-472.81C1239.17,-464.88 1234.83,-455.26 1230.82,-446.36"/>
<polygon fill="black" stroke="black" points="1234.09,-445.09 1226.79,-437.41 1227.7,-447.96 1234.09,-445.09"/>
</g>
<!-- j1099259750 -->
<g id="node24" class="node">
<title>j1099259750</title>
<ellipse fill="none" stroke="orange" cx="997.49" cy="-364" rx="139.18" ry="18"/>
<text text-anchor="middle" x="997.49" y="-360.3" font-family="Times New Roman,serif" font-size="14.00">Boolean ArthurNoDate is now true.</text>
</g>
<!-- j2480806584&#45;&gt;j1099259750 -->
<g id="edge28" class="edge">
<title>j2480806584&#45;&gt;j1099259750</title>
<path fill="none" stroke="black" d="M962.19,-472.62C968.95,-452 980.31,-417.36 988.32,-392.96"/>
<polygon fill="black" stroke="black" points="991.57,-394.26 991.36,-383.67 984.92,-392.08 991.57,-394.26"/>
</g>
<!-- j1774087818 -->
<g id="node25" class="node">
<title>j1774087818</title>
<polygon fill="none" stroke="blue" points="1654.99,-655 557.99,-655 557.99,-619 1654.99,-619 1654.99,-655"/>
<text text-anchor="middle" x="1106.49" y="-633.3" font-family="Times New Roman,serif" font-size="14.00">뭐, 지금 와서 잡고 늘어져봤자 소용 없는 얘긴가. 나도... 네가 마음에 들어와 있었다는 점은 인정해야겠지. 나와 교제를 해 보고 싶다면, 나도 해 볼 생각이 있다.</text>
</g>
<!-- j4038772945&#45;&gt;j1774087818 -->
<g id="edge29" class="edge">
<title>j4038772945&#45;&gt;j1774087818</title>
<path fill="none" stroke="black" d="M1106.49,-691.81C1106.49,-684.23 1106.49,-675.1 1106.49,-666.54"/>
<polygon fill="black" stroke="black" points="1109.99,-666.54 1106.49,-656.54 1102.99,-666.54 1109.99,-666.54"/>
</g>
<!-- j1546675480 -->
<g id="node26" class="node">
<title>j1546675480</title>
<ellipse fill="none" stroke="orange" cx="1200.49" cy="-310" rx="141.88" ry="18"/>
<text text-anchor="middle" x="1200.49" y="-306.3" font-family="Times New Roman,serif" font-size="14.00">Boolean ArthurNoDate is now false.</text>
</g>
<!-- j3452809869&#45;&gt;j1546675480 -->
<g id="edge30" class="edge">
<title>j3452809869&#45;&gt;j1546675480</title>
<path fill="none" stroke="black" d="M1215.6,-399.97C1212.83,-383.69 1208.61,-358.82 1205.33,-339.52"/>
<polygon fill="black" stroke="black" points="1208.81,-339.11 1203.69,-329.83 1201.91,-340.28 1208.81,-339.11"/>
</g>
<!-- j1099259750&#45;&gt;Chat ends. -->
<g id="edge31" class="edge">
<title>j1099259750&#45;&gt;Chat ends.</title>
<path fill="none" stroke="black" d="M997.49,-345.61C997.49,-327.66 997.49,-298.88 997.49,-274 997.49,-274 997.49,-274 997.49,-90 997.49,-65.51 1018.43,-47.96 1039.77,-36.44"/>
<polygon fill="black" stroke="black" points="1041.11,-39.68 1048.5,-32.09 1037.99,-33.41 1041.11,-39.68"/>
</g>
<!-- j1774087818&#45;&gt;j1467271300 -->
<g id="edge32" class="edge">
<title>j1774087818&#45;&gt;j1467271300</title>
<path fill="none" stroke="black" d="M1133.4,-618.63C1147.38,-609.61 1164.68,-598.44 1179.86,-588.64"/>
<polygon fill="black" stroke="black" points="1181.7,-591.62 1188.2,-583.26 1177.9,-585.74 1181.7,-591.62"/>
</g>
<!-- j1774087818&#45;&gt;j4069757127 -->
<g id="edge33" class="edge">
<title>j1774087818&#45;&gt;j4069757127</title>
<path fill="none" stroke="black" d="M1073.71,-618.63C1056.19,-609.35 1034.4,-597.8 1015.53,-587.81"/>
<polygon fill="black" stroke="black" points="1017.21,-584.73 1006.73,-583.14 1013.93,-590.92 1017.21,-584.73"/>
</g>
<!-- j2063127943 -->
<g id="node27" class="node">
<title>j2063127943</title>
<ellipse fill="none" stroke="orange" cx="1184.49" cy="-237" rx="118.08" ry="18"/>
<text text-anchor="middle" x="1184.49" y="-233.3" font-family="Times New Roman,serif" font-size="14.00">Boolean IsDating is now true.</text>
</g>
<!-- j1546675480&#45;&gt;j2063127943 -->
<g id="edge34" class="edge">
<title>j1546675480&#45;&gt;j2063127943</title>
<path fill="none" stroke="black" d="M1196.62,-291.81C1194.89,-284.14 1192.8,-274.89 1190.85,-266.24"/>
<polygon fill="black" stroke="black" points="1194.27,-265.49 1188.66,-256.51 1187.44,-267.03 1194.27,-265.49"/>
</g>
<!-- j1782828748 -->
<g id="node28" class="node">
<title>j1782828748</title>
<ellipse fill="none" stroke="orange" cx="1183.49" cy="-164" rx="134.58" ry="18"/>
<text text-anchor="middle" x="1183.49" y="-160.3" font-family="Times New Roman,serif" font-size="14.00">Boolean ArthurDating is now true.</text>
</g>
<!-- j2063127943&#45;&gt;j1782828748 -->
<g id="edge35" class="edge">
<title>j2063127943&#45;&gt;j1782828748</title>
<path fill="none" stroke="black" d="M1184.25,-218.81C1184.14,-211.23 1184.01,-202.1 1183.89,-193.54"/>
<polygon fill="black" stroke="black" points="1187.39,-193.49 1183.75,-183.54 1180.39,-193.59 1187.39,-193.49"/>
</g>
<!-- j998298662 -->
<g id="node29" class="node">
<title>j998298662</title>
<ellipse fill="none" stroke="orange" cx="1176.49" cy="-91" rx="146.77" ry="18"/>
<text text-anchor="middle" x="1176.49" y="-87.3" font-family="Times New Roman,serif" font-size="14.00">Boolean ArthurHasDated is now true.</text>
</g>
<!-- j1782828748&#45;&gt;j998298662 -->
<g id="edge36" class="edge">
<title>j1782828748&#45;&gt;j998298662</title>
<path fill="none" stroke="black" d="M1181.79,-145.81C1181.04,-138.14 1180.13,-128.89 1179.27,-120.24"/>
<polygon fill="black" stroke="black" points="1182.78,-120.14 1178.32,-110.54 1175.81,-120.83 1182.78,-120.14"/>
</g>
<!-- j998298662&#45;&gt;Chat ends. -->
<g id="edge37" class="edge">
<title>j998298662&#45;&gt;Chat ends.</title>
<path fill="none" stroke="black" d="M1154.22,-72.81C1142.15,-63.5 1127.08,-51.87 1114.04,-41.81"/>
<polygon fill="black" stroke="black" points="1116.24,-39.08 1106.18,-35.74 1111.96,-44.62 1116.24,-39.08"/>
</g>
</g>
</svg>
