<?xml version="1.0" encoding="UTF-8" standalone="no"?>
<!DOCTYPE svg PUBLIC "-//W3C//DTD SVG 1.1//EN"
 "http://www.w3.org/Graphics/SVG/1.1/DTD/svg11.dtd">
<!-- Generated by graphviz version 7.1.0 (20230121.1956)
 -->
<!-- Pages: 1 -->
<svg width="564pt" height="836pt"
 viewBox="0.00 0.00 564.00 836.00" xmlns="http://www.w3.org/2000/svg" xmlns:xlink="http://www.w3.org/1999/xlink">
<g id="graph0" class="graph" transform="scale(1 1) rotate(0) translate(4 832)">
<polygon fill="white" stroke="none" points="-4,4 -4,-832 560,-832 560,4 -4,4"/>
<!-- ArthurSpaghetti begins. -->
<g id="node1" class="node">
<title>ArthurSpaghetti begins.</title>
<ellipse fill="none" stroke="orange" cx="278" cy="-810" rx="96.38" ry="18"/>
<text text-anchor="middle" x="278" y="-806.3" font-family="Times New Roman,serif" font-size="14.00">ArthurSpaghetti begins.</text>
</g>
<!-- j116490925 -->
<g id="node2" class="node">
<title>j116490925</title>
<polygon fill="none" stroke="blue" points="313,-756 243,-756 243,-720 313,-720 313,-756"/>
<text text-anchor="middle" x="278" y="-734.3" font-family="Times New Roman,serif" font-size="14.00">괜찮나?</text>
</g>
<!-- ArthurSpaghetti begins.&#45;&gt;j116490925 -->
<g id="edge1" class="edge">
<title>ArthurSpaghetti begins.&#45;&gt;j116490925</title>
<path fill="none" stroke="black" d="M278,-791.7C278,-784.41 278,-775.73 278,-767.54"/>
<polygon fill="black" stroke="black" points="281.5,-767.62 278,-757.62 274.5,-767.62 281.5,-767.62"/>
</g>
<!-- j3213714143 -->
<g id="node3" class="node">
<title>j3213714143</title>
<polygon fill="none" stroke="red" points="244.5,-684 125.5,-684 125.5,-648 244.5,-648 244.5,-684"/>
<text text-anchor="middle" x="185" y="-662.3" font-family="Times New Roman,serif" font-size="14.00">아서 도대체 왜</text>
</g>
<!-- j116490925&#45;&gt;j3213714143 -->
<g id="edge2" class="edge">
<title>j116490925&#45;&gt;j3213714143</title>
<path fill="none" stroke="black" d="M255.01,-719.7C243.61,-711.11 229.65,-700.61 217.2,-691.24"/>
<polygon fill="black" stroke="black" points="219.35,-688.47 209.26,-685.26 215.14,-694.07 219.35,-688.47"/>
</g>
<!-- j3649169175 -->
<g id="node4" class="node">
<title>j3649169175</title>
<polygon fill="none" stroke="red" points="481.5,-684 262.5,-684 262.5,-648 481.5,-648 481.5,-684"/>
<text text-anchor="middle" x="372" y="-662.3" font-family="Times New Roman,serif" font-size="14.00">식감이... 솔 맙소사... 식감이...</text>
</g>
<!-- j116490925&#45;&gt;j3649169175 -->
<g id="edge3" class="edge">
<title>j116490925&#45;&gt;j3649169175</title>
<path fill="none" stroke="black" d="M301.24,-719.7C312.87,-711.03 327.15,-700.4 339.82,-690.96"/>
<polygon fill="black" stroke="black" points="341.56,-694.03 347.49,-685.25 337.38,-688.42 341.56,-694.03"/>
</g>
<!-- j2570928691 -->
<g id="node5" class="node">
<title>j2570928691</title>
<polygon fill="none" stroke="blue" points="448.5,-612 107.5,-612 107.5,-576 448.5,-576 448.5,-612"/>
<text text-anchor="middle" x="278" y="-590.3" font-family="Times New Roman,serif" font-size="14.00">그 정사각형 스파게티... 영 아니었던 거군. 알아.</text>
</g>
<!-- j3213714143&#45;&gt;j2570928691 -->
<g id="edge4" class="edge">
<title>j3213714143&#45;&gt;j2570928691</title>
<path fill="none" stroke="black" d="M207.99,-647.7C219.39,-639.11 233.35,-628.61 245.8,-619.24"/>
<polygon fill="black" stroke="black" points="247.86,-622.07 253.74,-613.26 243.65,-616.47 247.86,-622.07"/>
</g>
<!-- j3649169175&#45;&gt;j2570928691 -->
<g id="edge5" class="edge">
<title>j3649169175&#45;&gt;j2570928691</title>
<path fill="none" stroke="black" d="M348.76,-647.7C337.13,-639.03 322.85,-628.4 310.18,-618.96"/>
<polygon fill="black" stroke="black" points="312.62,-616.42 302.51,-613.25 308.44,-622.03 312.62,-616.42"/>
</g>
<!-- j3278946109 -->
<g id="node6" class="node">
<title>j3278946109</title>
<polygon fill="none" stroke="red" points="269,-540 77,-540 77,-504 269,-504 269,-540"/>
<text text-anchor="middle" x="173" y="-518.3" font-family="Times New Roman,serif" font-size="14.00">왜 식감이 탱글탱글한데?!</text>
</g>
<!-- j2570928691&#45;&gt;j3278946109 -->
<g id="edge6" class="edge">
<title>j2570928691&#45;&gt;j3278946109</title>
<path fill="none" stroke="black" d="M251.77,-575.52C238.65,-566.76 222.57,-556.04 208.36,-546.58"/>
<polygon fill="black" stroke="black" points="210.41,-543.73 200.15,-541.1 206.53,-549.56 210.41,-543.73"/>
</g>
<!-- j1701169069 -->
<g id="node7" class="node">
<title>j1701169069</title>
<polygon fill="none" stroke="red" points="478.5,-540 287.5,-540 287.5,-504 478.5,-504 478.5,-540"/>
<text text-anchor="middle" x="383" y="-518.3" font-family="Times New Roman,serif" font-size="14.00">너 나 왜 이렇게 싫어해...?</text>
</g>
<!-- j2570928691&#45;&gt;j1701169069 -->
<g id="edge7" class="edge">
<title>j2570928691&#45;&gt;j1701169069</title>
<path fill="none" stroke="black" d="M304.23,-575.52C317.35,-566.76 333.43,-556.04 347.64,-546.58"/>
<polygon fill="black" stroke="black" points="349.47,-549.56 355.85,-541.1 345.59,-543.73 349.47,-549.56"/>
</g>
<!-- j3838323496 -->
<g id="node8" class="node">
<title>j3838323496</title>
<polygon fill="none" stroke="blue" points="453,-468 103,-468 103,-432 453,-432 453,-468"/>
<text text-anchor="middle" x="278" y="-446.3" font-family="Times New Roman,serif" font-size="14.00">젤라틴 양이 알맞지 않았다. 다음엔 더 잘 해보지.</text>
</g>
<!-- j3278946109&#45;&gt;j3838323496 -->
<g id="edge8" class="edge">
<title>j3278946109&#45;&gt;j3838323496</title>
<path fill="none" stroke="black" d="M199.23,-503.52C212.35,-494.76 228.43,-484.04 242.64,-474.58"/>
<polygon fill="black" stroke="black" points="244.47,-477.56 250.85,-469.1 240.59,-471.73 244.47,-477.56"/>
</g>
<!-- j1701169069&#45;&gt;j3838323496 -->
<g id="edge9" class="edge">
<title>j1701169069&#45;&gt;j3838323496</title>
<path fill="none" stroke="black" d="M356.77,-503.52C343.65,-494.76 327.57,-484.04 313.36,-474.58"/>
<polygon fill="black" stroke="black" points="315.41,-471.73 305.15,-469.1 311.53,-477.56 315.41,-471.73"/>
</g>
<!-- j3145049500 -->
<g id="node9" class="node">
<title>j3145049500</title>
<polygon fill="none" stroke="red" points="276,-396 138,-396 138,-360 276,-360 276,-396"/>
<text text-anchor="middle" x="207" y="-374.3" font-family="Times New Roman,serif" font-size="14.00">다음 같은 거 없어</text>
</g>
<!-- j3838323496&#45;&gt;j3145049500 -->
<g id="edge10" class="edge">
<title>j3838323496&#45;&gt;j3145049500</title>
<path fill="none" stroke="black" d="M260.45,-431.7C252.02,-423.39 241.77,-413.28 232.5,-404.14"/>
<polygon fill="black" stroke="black" points="235,-401.7 225.43,-397.17 230.09,-406.68 235,-401.7"/>
</g>
<!-- j4223807235 -->
<g id="node10" class="node">
<title>j4223807235</title>
<polygon fill="none" stroke="red" points="404,-396 294,-396 294,-360 404,-360 404,-396"/>
<text text-anchor="middle" x="349" y="-374.3" font-family="Times New Roman,serif" font-size="14.00">제발 자비좀...</text>
</g>
<!-- j3838323496&#45;&gt;j4223807235 -->
<g id="edge11" class="edge">
<title>j3838323496&#45;&gt;j4223807235</title>
<path fill="none" stroke="black" d="M295.55,-431.7C303.98,-423.39 314.23,-413.28 323.5,-404.14"/>
<polygon fill="black" stroke="black" points="325.91,-406.68 330.57,-397.17 321,-401.7 325.91,-406.68"/>
</g>
<!-- j2697428141 -->
<g id="node11" class="node">
<title>j2697428141</title>
<polygon fill="none" stroke="blue" points="556,-324 0,-324 0,-288 556,-288 556,-324"/>
<text text-anchor="middle" x="278" y="-302.3" font-family="Times New Roman,serif" font-size="14.00">그럼 이번엔 수프를 만들어주지. 지극히 평범한, 정사각형도 아닌 수프. 어떤가?</text>
</g>
<!-- j3145049500&#45;&gt;j2697428141 -->
<g id="edge12" class="edge">
<title>j3145049500&#45;&gt;j2697428141</title>
<path fill="none" stroke="black" d="M224.55,-359.7C232.98,-351.39 243.23,-341.28 252.5,-332.14"/>
<polygon fill="black" stroke="black" points="254.91,-334.68 259.57,-325.17 250,-329.7 254.91,-334.68"/>
</g>
<!-- j4223807235&#45;&gt;j2697428141 -->
<g id="edge13" class="edge">
<title>j4223807235&#45;&gt;j2697428141</title>
<path fill="none" stroke="black" d="M331.45,-359.7C323.02,-351.39 312.77,-341.28 303.5,-332.14"/>
<polygon fill="black" stroke="black" points="306,-329.7 296.43,-325.17 301.09,-334.68 306,-329.7"/>
</g>
<!-- j3930829993 -->
<g id="node12" class="node">
<title>j3930829993</title>
<polygon fill="none" stroke="red" points="268.5,-252 87.5,-252 87.5,-216 268.5,-216 268.5,-252"/>
<text text-anchor="middle" x="178" y="-230.3" font-family="Times New Roman,serif" font-size="14.00">더 이상 독 타는 건 안 돼</text>
</g>
<!-- j2697428141&#45;&gt;j3930829993 -->
<g id="edge14" class="edge">
<title>j2697428141&#45;&gt;j3930829993</title>
<path fill="none" stroke="black" d="M253.02,-287.52C240.64,-278.85 225.5,-268.25 212.07,-258.85"/>
<polygon fill="black" stroke="black" points="214.1,-256 203.9,-253.13 210.08,-261.73 214.1,-256"/>
</g>
<!-- j1391504049 -->
<g id="node13" class="node">
<title>j1391504049</title>
<polygon fill="none" stroke="red" points="471.5,-252 286.5,-252 286.5,-216 471.5,-216 471.5,-252"/>
<text text-anchor="middle" x="379" y="-230.3" font-family="Times New Roman,serif" font-size="14.00">그냥... 젤라틴만 넣지 마.</text>
</g>
<!-- j2697428141&#45;&gt;j1391504049 -->
<g id="edge15" class="edge">
<title>j2697428141&#45;&gt;j1391504049</title>
<path fill="none" stroke="black" d="M303.23,-287.52C315.85,-278.76 331.32,-268.04 344.98,-258.58"/>
<polygon fill="black" stroke="black" points="346.63,-261.7 352.85,-253.12 342.64,-255.94 346.63,-261.7"/>
</g>
<!-- j2679335796 -->
<g id="node14" class="node">
<title>j2679335796</title>
<ellipse fill="none" stroke="orange" cx="181" cy="-162" rx="64.19" ry="18"/>
<text text-anchor="middle" x="181" y="-158.3" font-family="Times New Roman,serif" font-size="14.00">+20 Chemistry</text>
</g>
<!-- j3930829993&#45;&gt;j2679335796 -->
<g id="edge16" class="edge">
<title>j3930829993&#45;&gt;j2679335796</title>
<path fill="none" stroke="black" d="M178.74,-215.7C179.05,-208.41 179.43,-199.73 179.78,-191.54"/>
<polygon fill="black" stroke="black" points="183.27,-191.76 180.2,-181.62 176.28,-191.46 183.27,-191.76"/>
</g>
<!-- j1231410823 -->
<g id="node15" class="node">
<title>j1231410823</title>
<ellipse fill="none" stroke="orange" cx="378" cy="-162" rx="64.19" ry="18"/>
<text text-anchor="middle" x="378" y="-158.3" font-family="Times New Roman,serif" font-size="14.00">+20 Chemistry</text>
</g>
<!-- j1391504049&#45;&gt;j1231410823 -->
<g id="edge17" class="edge">
<title>j1391504049&#45;&gt;j1231410823</title>
<path fill="none" stroke="black" d="M378.75,-215.7C378.65,-208.41 378.52,-199.73 378.41,-191.54"/>
<polygon fill="black" stroke="black" points="381.91,-191.57 378.27,-181.62 374.91,-191.67 381.91,-191.57"/>
</g>
<!-- j799902347 -->
<g id="node16" class="node">
<title>j799902347</title>
<polygon fill="none" stroke="blue" points="317.5,-108 46.5,-108 46.5,-72 317.5,-72 317.5,-108"/>
<text text-anchor="middle" x="182" y="-86.3" font-family="Times New Roman,serif" font-size="14.00">안 해. 독은 내 취향도 아니고. 진짜야.</text>
</g>
<!-- j2679335796&#45;&gt;j799902347 -->
<g id="edge18" class="edge">
<title>j2679335796&#45;&gt;j799902347</title>
<path fill="none" stroke="black" d="M181.25,-143.7C181.35,-136.41 181.48,-127.73 181.59,-119.54"/>
<polygon fill="black" stroke="black" points="185.09,-119.67 181.73,-109.62 178.09,-119.57 185.09,-119.67"/>
</g>
<!-- j584741914 -->
<g id="node17" class="node">
<title>j584741914</title>
<polygon fill="none" stroke="blue" points="419.5,-108 336.5,-108 336.5,-72 419.5,-72 419.5,-108"/>
<text text-anchor="middle" x="378" y="-86.3" font-family="Times New Roman,serif" font-size="14.00">약속하지.</text>
</g>
<!-- j1231410823&#45;&gt;j584741914 -->
<g id="edge19" class="edge">
<title>j1231410823&#45;&gt;j584741914</title>
<path fill="none" stroke="black" d="M378,-143.7C378,-136.41 378,-127.73 378,-119.54"/>
<polygon fill="black" stroke="black" points="381.5,-119.62 378,-109.62 374.5,-119.62 381.5,-119.62"/>
</g>
<!-- Chat ends. -->
<g id="node18" class="node">
<title>Chat ends.</title>
<ellipse fill="none" stroke="orange" cx="279" cy="-18" rx="50.09" ry="18"/>
<text text-anchor="middle" x="279" y="-14.3" font-family="Times New Roman,serif" font-size="14.00">Chat ends.</text>
</g>
<!-- j799902347&#45;&gt;Chat ends. -->
<g id="edge20" class="edge">
<title>j799902347&#45;&gt;Chat ends.</title>
<path fill="none" stroke="black" d="M205.98,-71.7C218.74,-62.49 234.58,-51.06 248.24,-41.2"/>
<polygon fill="black" stroke="black" points="250,-44.25 256.06,-35.56 245.9,-38.57 250,-44.25"/>
</g>
<!-- j584741914&#45;&gt;Chat ends. -->
<g id="edge21" class="edge">
<title>j584741914&#45;&gt;Chat ends.</title>
<path fill="none" stroke="black" d="M353.27,-71.52C340.24,-62.3 324.13,-50.91 310.24,-41.09"/>
<polygon fill="black" stroke="black" points="312.47,-38.38 302.29,-35.47 308.43,-44.1 312.47,-38.38"/>
</g>
</g>
</svg>
