<?xml version="1.0" encoding="UTF-8" standalone="no"?>
<!DOCTYPE svg PUBLIC "-//W3C//DTD SVG 1.1//EN"
 "http://www.w3.org/Graphics/SVG/1.1/DTD/svg11.dtd">
<!-- Generated by graphviz version 7.1.0 (20230121.1956)
 -->
<!-- Pages: 1 -->
<svg width="1680pt" height="1484pt"
 viewBox="0.00 0.00 1680.00 1484.00" xmlns="http://www.w3.org/2000/svg" xmlns:xlink="http://www.w3.org/1999/xlink">
<g id="graph0" class="graph" transform="scale(1 1) rotate(0) translate(4 1480)">
<polygon fill="white" stroke="none" points="-4,4 -4,-1480 1676,-1480 1676,4 -4,4"/>
<!-- QuincyAmirTrick2 begins. -->
<g id="node1" class="node">
<title>QuincyAmirTrick2 begins.</title>
<ellipse fill="none" stroke="orange" cx="1173" cy="-1458" rx="107.48" ry="18"/>
<text text-anchor="middle" x="1173" y="-1454.3" font-family="Times New Roman,serif" font-size="14.00">QuincyAmirTrick2 begins.</text>
</g>
<!-- j180989406 -->
<g id="node2" class="node">
<title>j180989406</title>
<polygon fill="none" stroke="blue" points="1514.5,-1404 831.5,-1404 831.5,-1368 1514.5,-1368 1514.5,-1404"/>
<text text-anchor="middle" x="1173" y="-1382.3" font-family="Times New Roman,serif" font-size="14.00">그거 알아 그 작은 속도광 자식에 대해 다 알았다고 생각한 순간, 놀라움이 발생한다니깐 ㅋㅋㅋㅋ</text>
</g>
<!-- QuincyAmirTrick2 begins.&#45;&gt;j180989406 -->
<g id="edge1" class="edge">
<title>QuincyAmirTrick2 begins.&#45;&gt;j180989406</title>
<path fill="none" stroke="black" d="M1173,-1439.7C1173,-1432.41 1173,-1423.73 1173,-1415.54"/>
<polygon fill="black" stroke="black" points="1176.5,-1415.62 1173,-1405.62 1169.5,-1415.62 1176.5,-1415.62"/>
</g>
<!-- j784856929 -->
<g id="node3" class="node">
<title>j784856929</title>
<polygon fill="none" stroke="red" points="1076.5,-1260 955.5,-1260 955.5,-1224 1076.5,-1224 1076.5,-1260"/>
<text text-anchor="middle" x="1016" y="-1238.3" font-family="Times New Roman,serif" font-size="14.00">어떻게 그런데?</text>
</g>
<!-- j180989406&#45;&gt;j784856929 -->
<g id="edge2" class="edge">
<title>j180989406&#45;&gt;j784856929</title>
<path fill="none" stroke="black" d="M1088.79,-1367.57C1068.68,-1359.73 1049.01,-1348.39 1035,-1332 1020.79,-1315.37 1016.39,-1290.69 1015.35,-1271.54"/>
<polygon fill="black" stroke="black" points="1018.85,-1271.59 1015.11,-1261.68 1011.85,-1271.76 1018.85,-1271.59"/>
</g>
<!-- j4047182251 -->
<g id="node4" class="node">
<title>j4047182251</title>
<polygon fill="none" stroke="red" points="1302,-1332 1044,-1332 1044,-1296 1302,-1296 1302,-1332"/>
<text text-anchor="middle" x="1173" y="-1310.3" font-family="Times New Roman,serif" font-size="14.00">포장용 땅콩 때문에 화내진 않았어?</text>
</g>
<!-- j180989406&#45;&gt;j4047182251 -->
<g id="edge3" class="edge">
<title>j180989406&#45;&gt;j4047182251</title>
<path fill="none" stroke="black" d="M1173,-1367.7C1173,-1360.41 1173,-1351.73 1173,-1343.54"/>
<polygon fill="black" stroke="black" points="1176.5,-1343.62 1173,-1333.62 1169.5,-1343.62 1176.5,-1343.62"/>
</g>
<!-- j3220779863 -->
<g id="node5" class="node">
<title>j3220779863</title>
<polygon fill="none" stroke="red" points="1672,-1188 1580,-1188 1580,-1152 1672,-1152 1672,-1188"/>
<text text-anchor="middle" x="1626" y="-1166.3" font-family="Times New Roman,serif" font-size="14.00">[무시한다.]</text>
</g>
<!-- j180989406&#45;&gt;j3220779863 -->
<g id="edge4" class="edge">
<title>j180989406&#45;&gt;j3220779863</title>
<path fill="none" stroke="black" d="M1222.05,-1367.6C1248.65,-1357.8 1281.94,-1344.96 1311,-1332 1411.48,-1287.18 1525.58,-1226.25 1585.04,-1193.7"/>
<polygon fill="black" stroke="black" points="1586.38,-1196.96 1593.47,-1189.08 1583.02,-1190.82 1586.38,-1196.96"/>
</g>
<!-- j2463265634 -->
<g id="node6" class="node">
<title>j2463265634</title>
<polygon fill="none" stroke="blue" points="1561,-1188 471,-1188 471,-1152 1561,-1152 1561,-1188"/>
<text text-anchor="middle" x="1016" y="-1166.3" font-family="Times New Roman,serif" font-size="14.00">그래서 방을 골판지로 막아버리고 구멍을 뚫어서 샵백 청소기를 역방향으로 돌려서 방 하나 전체를 포장용 땅콩으로 가득 채워놨지, 응? 천장까지 다해야했어</text>
</g>
<!-- j784856929&#45;&gt;j2463265634 -->
<g id="edge5" class="edge">
<title>j784856929&#45;&gt;j2463265634</title>
<path fill="none" stroke="black" d="M1016,-1223.7C1016,-1216.41 1016,-1207.73 1016,-1199.54"/>
<polygon fill="black" stroke="black" points="1019.5,-1199.62 1016,-1189.62 1012.5,-1199.62 1019.5,-1199.62"/>
</g>
<!-- j3290653544 -->
<g id="node7" class="node">
<title>j3290653544</title>
<polygon fill="none" stroke="blue" points="1247,-1260 1097,-1260 1097,-1224 1247,-1224 1247,-1260"/>
<text text-anchor="middle" x="1172" y="-1238.3" font-family="Times New Roman,serif" font-size="14.00">결코 그렇지 않았어</text>
</g>
<!-- j4047182251&#45;&gt;j3290653544 -->
<g id="edge6" class="edge">
<title>j4047182251&#45;&gt;j3290653544</title>
<path fill="none" stroke="black" d="M1172.75,-1295.7C1172.65,-1288.41 1172.52,-1279.73 1172.41,-1271.54"/>
<polygon fill="black" stroke="black" points="1175.91,-1271.57 1172.27,-1261.62 1168.91,-1271.67 1175.91,-1271.57"/>
</g>
<!-- Chat ends. -->
<g id="node8" class="node">
<title>Chat ends.</title>
<ellipse fill="none" stroke="orange" cx="1482" cy="-18" rx="50.09" ry="18"/>
<text text-anchor="middle" x="1482" y="-14.3" font-family="Times New Roman,serif" font-size="14.00">Chat ends.</text>
</g>
<!-- j3220779863&#45;&gt;Chat ends. -->
<g id="edge7" class="edge">
<title>j3220779863&#45;&gt;Chat ends.</title>
<path fill="none" stroke="black" d="M1626,-1151.51C1626,-1124.71 1626,-1071.87 1626,-1027 1626,-1027 1626,-1027 1626,-161 1626,-102.78 1565.58,-60.4 1523.01,-37.77"/>
<polygon fill="black" stroke="black" points="1524.73,-34.72 1514.24,-33.27 1521.54,-40.95 1524.73,-34.72"/>
</g>
<!-- j4250068454 -->
<g id="node9" class="node">
<title>j4250068454</title>
<polygon fill="none" stroke="red" points="901,-1116 751,-1116 751,-1080 901,-1080 901,-1116"/>
<text text-anchor="middle" x="826" y="-1094.3" font-family="Times New Roman,serif" font-size="14.00">정말로 감명받았어.</text>
</g>
<!-- j2463265634&#45;&gt;j4250068454 -->
<g id="edge8" class="edge">
<title>j2463265634&#45;&gt;j4250068454</title>
<path fill="none" stroke="black" d="M968.55,-1151.52C942.83,-1142.04 910.86,-1130.26 883.71,-1120.26"/>
<polygon fill="black" stroke="black" points="885.19,-1117.08 874.6,-1116.9 882.77,-1123.65 885.19,-1117.08"/>
</g>
<!-- j85643207 -->
<g id="node10" class="node">
<title>j85643207</title>
<polygon fill="none" stroke="red" points="1112.5,-1116 919.5,-1116 919.5,-1080 1112.5,-1080 1112.5,-1116"/>
<text text-anchor="middle" x="1016" y="-1094.3" font-family="Times New Roman,serif" font-size="14.00">이거 전에도 해본 적 있지.</text>
</g>
<!-- j2463265634&#45;&gt;j85643207 -->
<g id="edge9" class="edge">
<title>j2463265634&#45;&gt;j85643207</title>
<path fill="none" stroke="black" d="M1016,-1151.7C1016,-1144.41 1016,-1135.73 1016,-1127.54"/>
<polygon fill="black" stroke="black" points="1019.5,-1127.62 1016,-1117.62 1012.5,-1127.62 1019.5,-1127.62"/>
</g>
<!-- j3290653544&#45;&gt;j2463265634 -->
<g id="edge10" class="edge">
<title>j3290653544&#45;&gt;j2463265634</title>
<path fill="none" stroke="black" d="M1133.04,-1223.52C1112.48,-1214.29 1087.06,-1202.89 1065.17,-1193.06"/>
<polygon fill="black" stroke="black" points="1066.67,-1189.9 1056.12,-1189 1063.81,-1196.29 1066.67,-1189.9"/>
</g>
<!-- j1744632766 -->
<g id="node11" class="node">
<title>j1744632766</title>
<polygon fill="none" stroke="blue" points="1172,-1044 480,-1044 480,-1008 1172,-1008 1172,-1044"/>
<text text-anchor="middle" x="826" y="-1022.3" font-family="Times New Roman,serif" font-size="14.00">가끔 군부대에서의 생활은 놀라울 정도로 지루하단 말이야, 뭐라고 말해야 할지도 모르겠다 ㅋㅋㅋ</text>
</g>
<!-- j4250068454&#45;&gt;j1744632766 -->
<g id="edge11" class="edge">
<title>j4250068454&#45;&gt;j1744632766</title>
<path fill="none" stroke="black" d="M826,-1079.7C826,-1072.41 826,-1063.73 826,-1055.54"/>
<polygon fill="black" stroke="black" points="829.5,-1055.62 826,-1045.62 822.5,-1055.62 829.5,-1055.62"/>
</g>
<!-- j85643207&#45;&gt;j1744632766 -->
<g id="edge12" class="edge">
<title>j85643207&#45;&gt;j1744632766</title>
<path fill="none" stroke="black" d="M968.55,-1079.52C942.83,-1070.04 910.86,-1058.26 883.71,-1048.26"/>
<polygon fill="black" stroke="black" points="885.19,-1045.08 874.6,-1044.9 882.77,-1051.65 885.19,-1045.08"/>
</g>
<!-- j3647100678 -->
<g id="node12" class="node">
<title>j3647100678</title>
<polygon fill="none" stroke="blue" points="1223.5,-972 426.5,-972 426.5,-936 1223.5,-936 1223.5,-972"/>
<text text-anchor="middle" x="825" y="-950.3" font-family="Times New Roman,serif" font-size="14.00">그래서 문 닫고 문 밑의 골판지 빼서는 문을 열 때 모든 빌어먹을 것들이 쏟아져 나오게 만드는 거지. 아주 쉬운거야</text>
</g>
<!-- j1744632766&#45;&gt;j3647100678 -->
<g id="edge13" class="edge">
<title>j1744632766&#45;&gt;j3647100678</title>
<path fill="none" stroke="black" d="M825.75,-1007.7C825.65,-1000.41 825.52,-991.73 825.41,-983.54"/>
<polygon fill="black" stroke="black" points="828.91,-983.57 825.27,-973.62 821.91,-983.67 828.91,-983.57"/>
</g>
<!-- j3391267433 -->
<g id="node13" class="node">
<title>j3391267433</title>
<polygon fill="none" stroke="blue" points="1198.5,-900 423.5,-900 423.5,-864 1198.5,-864 1198.5,-900"/>
<text text-anchor="middle" x="811" y="-878.3" font-family="Times New Roman,serif" font-size="14.00">그 자식이 계획대로 다가와서는 &#39;허. 문이 닫혔네. 이상하네.&#39; 라고 말하며 문을 여는 순간, 쾅 하고 쓰러지는 거지</text>
</g>
<!-- j3647100678&#45;&gt;j3391267433 -->
<g id="edge14" class="edge">
<title>j3647100678&#45;&gt;j3391267433</title>
<path fill="none" stroke="black" d="M821.54,-935.7C820.06,-928.32 818.3,-919.52 816.65,-911.25"/>
<polygon fill="black" stroke="black" points="820.11,-910.71 814.72,-901.59 813.25,-912.08 820.11,-910.71"/>
</g>
<!-- j3653453075 -->
<g id="node14" class="node">
<title>j3653453075</title>
<polygon fill="none" stroke="blue" points="1198.5,-828 409.5,-828 409.5,-792 1198.5,-792 1198.5,-828"/>
<text text-anchor="middle" x="804" y="-806.3" font-family="Times New Roman,serif" font-size="14.00">그 자식이 마치 쥐를 본 어린 여자애마냥 비명 지르고, 그게 뭐든 한쪽 다리로 일어나더라구. 저어어엉말 재밌었어</text>
</g>
<!-- j3391267433&#45;&gt;j3653453075 -->
<g id="edge15" class="edge">
<title>j3391267433&#45;&gt;j3653453075</title>
<path fill="none" stroke="black" d="M809.27,-863.7C808.54,-856.41 807.67,-847.73 806.85,-839.54"/>
<polygon fill="black" stroke="black" points="810.34,-839.21 805.86,-829.61 803.37,-839.91 810.34,-839.21"/>
</g>
<!-- j1045103280 -->
<g id="node15" class="node">
<title>j1045103280</title>
<polygon fill="none" stroke="blue" points="1205,-756 397,-756 397,-720 1205,-720 1205,-756"/>
<text text-anchor="middle" x="801" y="-734.3" font-family="Times New Roman,serif" font-size="14.00">그리고 그 자식은 내가 웃는 것을 들었는데, 솔직히 그 때 난 그 자식이 화낼 줄 알았어. 근데 오히려 엄청 크게 웃더라</text>
</g>
<!-- j3653453075&#45;&gt;j1045103280 -->
<g id="edge16" class="edge">
<title>j3653453075&#45;&gt;j1045103280</title>
<path fill="none" stroke="black" d="M803.26,-791.7C802.95,-784.41 802.57,-775.73 802.22,-767.54"/>
<polygon fill="black" stroke="black" points="805.72,-767.46 801.8,-757.62 798.73,-767.76 805.72,-767.46"/>
</g>
<!-- j2192330250 -->
<g id="node16" class="node">
<title>j2192330250</title>
<polygon fill="none" stroke="blue" points="1598,-684 0,-684 0,-648 1598,-648 1598,-684"/>
<text text-anchor="middle" x="799" y="-662.3" font-family="Times New Roman,serif" font-size="14.00">그리고 나한테 어떻게 했는지를 물어봤어! 그래서 내가 그 자식한테 알려줬었지. 그리고 그 작은 속도광은... 감명받았더라? 내가 사용한 골판지에 대해서 질문하더라고. 그 자식의 문 아랫부분을 테이프로 막았거든, 마치 볼펜처럼. 응?</text>
</g>
<!-- j1045103280&#45;&gt;j2192330250 -->
<g id="edge17" class="edge">
<title>j1045103280&#45;&gt;j2192330250</title>
<path fill="none" stroke="black" d="M800.51,-719.7C800.3,-712.41 800.05,-703.73 799.82,-695.54"/>
<polygon fill="black" stroke="black" points="803.32,-695.51 799.53,-685.62 796.32,-695.71 803.32,-695.51"/>
</g>
<!-- j2836777509 -->
<g id="node17" class="node">
<title>j2836777509</title>
<polygon fill="none" stroke="blue" points="1544.5,-612 159.5,-612 159.5,-576 1544.5,-576 1544.5,-612"/>
<text text-anchor="middle" x="852" y="-590.3" font-family="Times New Roman,serif" font-size="14.00">작은 자식이 자기 방을 햄버거 가게에서 볼 수 있는 포장용 땅콩 볼풀로 바꿔버렸어. 그리고 그 녀석이 거기서 아오이랑 같이 놀고 있는 걸 발견했는데, 눈 내리는 날 눈덩이 던지듯이 땅콩 던지고 놀더라.</text>
</g>
<!-- j2192330250&#45;&gt;j2836777509 -->
<g id="edge18" class="edge">
<title>j2192330250&#45;&gt;j2836777509</title>
<path fill="none" stroke="black" d="M812.1,-647.7C818.13,-639.73 825.42,-630.1 832.11,-621.26"/>
<polygon fill="black" stroke="black" points="834.89,-623.4 838.14,-613.31 829.31,-619.17 834.89,-623.4"/>
</g>
<!-- j2391028693 -->
<g id="node18" class="node">
<title>j2391028693</title>
<polygon fill="none" stroke="blue" points="1112,-540 828,-540 828,-504 1112,-504 1112,-540"/>
<text text-anchor="middle" x="970" y="-518.3" font-family="Times New Roman,serif" font-size="14.00">걔들이 나한테도 같이 놀자고 권하더라</text>
</g>
<!-- j2836777509&#45;&gt;j2391028693 -->
<g id="edge19" class="edge">
<title>j2836777509&#45;&gt;j2391028693</title>
<path fill="none" stroke="black" d="M881.47,-575.52C896.51,-566.6 914.99,-555.63 931.18,-546.03"/>
<polygon fill="black" stroke="black" points="932.79,-549.15 939.6,-541.03 929.22,-543.12 932.79,-549.15"/>
</g>
<!-- j982174422 -->
<g id="node19" class="node">
<title>j982174422</title>
<polygon fill="none" stroke="red" points="1048,-468 892,-468 892,-432 1048,-432 1048,-468"/>
<text text-anchor="middle" x="970" y="-446.3" font-family="Times New Roman,serif" font-size="14.00">그래서 어떻게 했어?</text>
</g>
<!-- j2391028693&#45;&gt;j982174422 -->
<g id="edge20" class="edge">
<title>j2391028693&#45;&gt;j982174422</title>
<path fill="none" stroke="black" d="M970,-503.7C970,-496.41 970,-487.73 970,-479.54"/>
<polygon fill="black" stroke="black" points="973.5,-479.62 970,-469.62 966.5,-479.62 973.5,-479.62"/>
</g>
<!-- j3626517774 -->
<g id="node20" class="node">
<title>j3626517774</title>
<polygon fill="none" stroke="red" points="1136,-468 1066,-468 1066,-432 1136,-432 1136,-468"/>
<text text-anchor="middle" x="1101" y="-446.3" font-family="Times New Roman,serif" font-size="14.00">그래서?</text>
</g>
<!-- j2391028693&#45;&gt;j3626517774 -->
<g id="edge21" class="edge">
<title>j2391028693&#45;&gt;j3626517774</title>
<path fill="none" stroke="black" d="M1002.72,-503.52C1019.65,-494.47 1040.52,-483.32 1058.66,-473.62"/>
<polygon fill="black" stroke="black" points="1060.19,-476.77 1067.36,-468.97 1056.89,-470.6 1060.19,-476.77"/>
</g>
<!-- j1712158070 -->
<g id="node21" class="node">
<title>j1712158070</title>
<polygon fill="none" stroke="blue" points="1533,-396 669,-396 669,-360 1533,-360 1533,-396"/>
<text text-anchor="middle" x="1101" y="-374.3" font-family="Times New Roman,serif" font-size="14.00">허. 나? 퀸시&#45;K님?! 이 몸?! 왕 그 자체인 이 몸 말이야?! 이 교활한 범죄자님께서? 그 어린 애들과 함께 있는 걸 볼 수 있겠냐고?!</text>
</g>
<!-- j982174422&#45;&gt;j1712158070 -->
<g id="edge22" class="edge">
<title>j982174422&#45;&gt;j1712158070</title>
<path fill="none" stroke="black" d="M1002.72,-431.52C1019.65,-422.47 1040.52,-411.32 1058.66,-401.62"/>
<polygon fill="black" stroke="black" points="1060.19,-404.77 1067.36,-396.97 1056.89,-398.6 1060.19,-404.77"/>
</g>
<!-- j3626517774&#45;&gt;j1712158070 -->
<g id="edge23" class="edge">
<title>j3626517774&#45;&gt;j1712158070</title>
<path fill="none" stroke="black" d="M1101,-431.7C1101,-424.41 1101,-415.73 1101,-407.54"/>
<polygon fill="black" stroke="black" points="1104.5,-407.62 1101,-397.62 1097.5,-407.62 1104.5,-407.62"/>
</g>
<!-- j1483014868 -->
<g id="node22" class="node">
<title>j1483014868</title>
<polygon fill="none" stroke="blue" points="1312,-324 1024,-324 1024,-288 1312,-288 1312,-324"/>
<text text-anchor="middle" x="1168" y="-302.3" font-family="Times New Roman,serif" font-size="14.00">당연히 그 빌어먹을 볼풀에 뛰어들었지!</text>
</g>
<!-- j1712158070&#45;&gt;j1483014868 -->
<g id="edge24" class="edge">
<title>j1712158070&#45;&gt;j1483014868</title>
<path fill="none" stroke="black" d="M1117.56,-359.7C1125.43,-351.47 1134.99,-341.48 1143.67,-332.42"/>
<polygon fill="black" stroke="black" points="1146.2,-334.84 1150.58,-325.2 1141.14,-330 1146.2,-334.84"/>
</g>
<!-- j3896468328 -->
<g id="node23" class="node">
<title>j3896468328</title>
<polygon fill="none" stroke="blue" points="1595.5,-252 748.5,-252 748.5,-216 1595.5,-216 1595.5,-252"/>
<text text-anchor="middle" x="1172" y="-230.3" font-family="Times New Roman,serif" font-size="14.00">네가 나타나기 전에는 그런 짓 안 했을 거야. 이거 전부 말이야. 그러니까...그래. 내가 폼 잡는 거 멈추도록 도와줘서 고마워</text>
</g>
<!-- j1483014868&#45;&gt;j3896468328 -->
<g id="edge25" class="edge">
<title>j1483014868&#45;&gt;j3896468328</title>
<path fill="none" stroke="black" d="M1168.99,-287.7C1169.41,-280.41 1169.9,-271.73 1170.37,-263.54"/>
<polygon fill="black" stroke="black" points="1173.86,-263.8 1170.94,-253.62 1166.87,-263.4 1173.86,-263.8"/>
</g>
<!-- j2025409916 -->
<g id="node24" class="node">
<title>j2025409916</title>
<ellipse fill="none" stroke="orange" cx="1256" cy="-162" rx="64.19" ry="18"/>
<text text-anchor="middle" x="1256" y="-158.3" font-family="Times New Roman,serif" font-size="14.00">+20 Chemistry</text>
</g>
<!-- j3896468328&#45;&gt;j2025409916 -->
<g id="edge26" class="edge">
<title>j3896468328&#45;&gt;j2025409916</title>
<path fill="none" stroke="black" d="M1192.76,-215.7C1203.27,-206.94 1216.18,-196.19 1227.59,-186.68"/>
<polygon fill="black" stroke="black" points="1229.74,-189.44 1235.18,-180.35 1225.25,-184.06 1229.74,-189.44"/>
</g>
<!-- j3423909415 -->
<g id="node25" class="node">
<title>j3423909415</title>
<polygon fill="none" stroke="blue" points="1515.5,-108 1324.5,-108 1324.5,-72 1515.5,-72 1515.5,-108"/>
<text text-anchor="middle" x="1420" y="-86.3" font-family="Times New Roman,serif" font-size="14.00">다음 장난 목표물? 아서. ;)</text>
</g>
<!-- j2025409916&#45;&gt;j3423909415 -->
<g id="edge27" class="edge">
<title>j2025409916&#45;&gt;j3423909415</title>
<path fill="none" stroke="black" d="M1289.98,-146.5C1312.74,-136.78 1343.12,-123.82 1368.79,-112.86"/>
<polygon fill="black" stroke="black" points="1369.88,-116.2 1377.71,-109.05 1367.14,-109.76 1369.88,-116.2"/>
</g>
<!-- j3423909415&#45;&gt;Chat ends. -->
<g id="edge28" class="edge">
<title>j3423909415&#45;&gt;Chat ends.</title>
<path fill="none" stroke="black" d="M1435.33,-71.7C1442.72,-63.35 1451.72,-53.18 1459.84,-44.02"/>
<polygon fill="black" stroke="black" points="1462.26,-46.56 1466.27,-36.76 1457.02,-41.92 1462.26,-46.56"/>
</g>
</g>
</svg>
