<?xml version="1.0" encoding="UTF-8" standalone="no"?>
<!DOCTYPE svg PUBLIC "-//W3C//DTD SVG 1.1//EN"
 "http://www.w3.org/Graphics/SVG/1.1/DTD/svg11.dtd">
<!-- Generated by graphviz version 7.1.0 (20230121.1956)
 -->
<!-- Pages: 1 -->
<svg width="1543pt" height="3198pt"
 viewBox="0.00 0.00 1542.59 3198.00" xmlns="http://www.w3.org/2000/svg" xmlns:xlink="http://www.w3.org/1999/xlink">
<g id="graph0" class="graph" transform="scale(1 1) rotate(0) translate(4 3194)">
<polygon fill="white" stroke="none" points="-4,4 -4,-3194 1538.59,-3194 1538.59,4 -4,4"/>
<!-- QuincyRank6Convo1 begins. -->
<g id="node1" class="node">
<title>QuincyRank6Convo1 begins.</title>
<ellipse fill="none" stroke="orange" cx="126.09" cy="-3172" rx="118.08" ry="18"/>
<text text-anchor="middle" x="126.09" y="-3168.3" font-family="Times New Roman,serif" font-size="14.00">QuincyRank6Convo1 begins.</text>
</g>
<!-- j431139663 -->
<g id="node2" class="node">
<title>j431139663</title>
<ellipse fill="none" stroke="orange" cx="126.09" cy="-3099" rx="126.18" ry="18"/>
<text text-anchor="middle" x="126.09" y="-3095.3" font-family="Times New Roman,serif" font-size="14.00">Check boolean QuincyForgiven</text>
</g>
<!-- QuincyRank6Convo1 begins.&#45;&gt;j431139663 -->
<g id="edge1" class="edge">
<title>QuincyRank6Convo1 begins.&#45;&gt;j431139663</title>
<path fill="none" stroke="black" d="M126.09,-3153.81C126.09,-3146.23 126.09,-3137.1 126.09,-3128.54"/>
<polygon fill="black" stroke="black" points="129.59,-3128.54 126.09,-3118.54 122.59,-3128.54 129.59,-3128.54"/>
</g>
<!-- j3559869546 -->
<g id="node3" class="node">
<title>j3559869546</title>
<ellipse fill="none" stroke="orange" cx="701.09" cy="-3012" rx="117.78" ry="18"/>
<text text-anchor="middle" x="701.09" y="-3008.3" font-family="Times New Roman,serif" font-size="14.00">Check boolean QuincyDating</text>
</g>
<!-- j431139663&#45;&gt;j3559869546 -->
<g id="edge2" class="edge">
<title>j431139663&#45;&gt;j3559869546</title>
<path fill="none" stroke="green" d="M211.55,-3085.37C317.46,-3069.71 497.32,-3043.12 607.05,-3026.9"/>
<polygon fill="green" stroke="green" points="607.55,-3030.37 616.93,-3025.44 606.52,-3023.44 607.55,-3030.37"/>
<text text-anchor="middle" x="459.09" y="-3051.8" font-family="Times New Roman,serif" font-size="14.00">true</text>
</g>
<!-- Chat ends. -->
<g id="node4" class="node">
<title>Chat ends.</title>
<ellipse fill="none" stroke="orange" cx="700.09" cy="-18" rx="50.09" ry="18"/>
<text text-anchor="middle" x="700.09" y="-14.3" font-family="Times New Roman,serif" font-size="14.00">Chat ends.</text>
</g>
<!-- j431139663&#45;&gt;Chat ends. -->
<g id="edge3" class="edge">
<title>j431139663&#45;&gt;Chat ends.</title>
<path fill="none" stroke="brown" d="M120.85,-3080.6C116.18,-3063.54 110.09,-3036.73 110.09,-3013 110.09,-3013 110.09,-3013 110.09,-90 110.09,-37.21 487.2,-23.45 638.44,-20.05"/>
<polygon fill="brown" stroke="brown" points="638.35,-23.55 648.27,-19.84 638.2,-16.56 638.35,-23.55"/>
<text text-anchor="middle" x="123.09" y="-1572.3" font-family="Times New Roman,serif" font-size="14.00">false</text>
</g>
<!-- j3588483133 -->
<g id="node5" class="node">
<title>j3588483133</title>
<polygon fill="none" stroke="blue" points="835.59,-2943 566.59,-2943 566.59,-2907 835.59,-2907 835.59,-2943"/>
<text text-anchor="middle" x="701.09" y="-2921.3" font-family="Times New Roman,serif" font-size="14.00">안녕 자기야, 거기 있어? 할 말이 있어</text>
</g>
<!-- j3559869546&#45;&gt;j3588483133 -->
<g id="edge4" class="edge">
<title>j3559869546&#45;&gt;j3588483133</title>
<path fill="none" stroke="green" d="M701.09,-2993.8C701.09,-2982.58 701.09,-2967.67 701.09,-2954.69"/>
<polygon fill="green" stroke="green" points="704.59,-2954.98 701.09,-2944.98 697.59,-2954.98 704.59,-2954.98"/>
<text text-anchor="middle" x="712.09" y="-2964.8" font-family="Times New Roman,serif" font-size="14.00">true</text>
</g>
<!-- j1623018490 -->
<g id="node6" class="node">
<title>j1623018490</title>
<polygon fill="none" stroke="blue" points="1108.09,-2943 854.09,-2943 854.09,-2907 1108.09,-2907 1108.09,-2943"/>
<text text-anchor="middle" x="981.09" y="-2921.3" font-family="Times New Roman,serif" font-size="14.00">안녕 사촌, 거기 있냐? 할 말이 있다</text>
</g>
<!-- j3559869546&#45;&gt;j1623018490 -->
<g id="edge5" class="edge">
<title>j3559869546&#45;&gt;j1623018490</title>
<path fill="none" stroke="brown" d="M752.45,-2995.41C797.51,-2981.73 863.38,-2961.73 912.86,-2946.71"/>
<polygon fill="brown" stroke="brown" points="913.79,-2950.09 922.34,-2943.83 911.75,-2943.39 913.79,-2950.09"/>
<text text-anchor="middle" x="870.09" y="-2964.8" font-family="Times New Roman,serif" font-size="14.00">false</text>
</g>
<!-- j3582436467 -->
<g id="node7" class="node">
<title>j3582436467</title>
<polygon fill="none" stroke="red" points="819.09,-2870 677.09,-2870 677.09,-2834 819.09,-2834 819.09,-2870"/>
<text text-anchor="middle" x="748.09" y="-2848.3" font-family="Times New Roman,serif" font-size="14.00">응? 무슨 일이야? :)</text>
</g>
<!-- j3588483133&#45;&gt;j3582436467 -->
<g id="edge6" class="edge">
<title>j3588483133&#45;&gt;j3582436467</title>
<path fill="none" stroke="black" d="M712.47,-2906.81C717.89,-2898.62 724.51,-2888.62 730.56,-2879.48"/>
<polygon fill="black" stroke="black" points="733.38,-2881.56 735.98,-2871.29 727.54,-2877.7 733.38,-2881.56"/>
</g>
<!-- j65723685 -->
<g id="node8" class="node">
<title>j65723685</title>
<polygon fill="none" stroke="red" points="1078.09,-2870 884.09,-2870 884.09,-2834 1078.09,-2834 1078.09,-2870"/>
<text text-anchor="middle" x="981.09" y="-2848.3" font-family="Times New Roman,serif" font-size="14.00">지금 안 돼, 미안해. [종료.]</text>
</g>
<!-- j3588483133&#45;&gt;j65723685 -->
<g id="edge7" class="edge">
<title>j3588483133&#45;&gt;j65723685</title>
<path fill="none" stroke="black" d="M769.94,-2906.54C809.78,-2896.44 860.08,-2883.68 901.6,-2873.16"/>
<polygon fill="black" stroke="black" points="902.2,-2876.61 911.03,-2870.76 900.48,-2869.83 902.2,-2876.61"/>
</g>
<!-- j1623018490&#45;&gt;j3582436467 -->
<g id="edge8" class="edge">
<title>j1623018490&#45;&gt;j3582436467</title>
<path fill="none" stroke="black" d="M923.79,-2906.54C891.21,-2896.61 850.21,-2884.12 816.01,-2873.7"/>
<polygon fill="black" stroke="black" points="817.2,-2870.4 806.61,-2870.83 815.16,-2877.1 817.2,-2870.4"/>
</g>
<!-- j1623018490&#45;&gt;j65723685 -->
<g id="edge9" class="edge">
<title>j1623018490&#45;&gt;j65723685</title>
<path fill="none" stroke="black" d="M981.09,-2906.81C981.09,-2899.23 981.09,-2890.1 981.09,-2881.54"/>
<polygon fill="black" stroke="black" points="984.59,-2881.54 981.09,-2871.54 977.59,-2881.54 984.59,-2881.54"/>
</g>
<!-- j2111165502 -->
<g id="node9" class="node">
<title>j2111165502</title>
<polygon fill="none" stroke="blue" points="1199.09,-2797 297.09,-2797 297.09,-2761 1199.09,-2761 1199.09,-2797"/>
<text text-anchor="middle" x="748.09" y="-2775.3" font-family="Times New Roman,serif" font-size="14.00">그래서 이거에 관해서 오랫동안 생각해왔어... 뭐, 사실 전부 다. 너에 관해서, 나랑 팀, 네가 나타난 이후의 모든 것에 대해서 말이야</text>
</g>
<!-- j3582436467&#45;&gt;j2111165502 -->
<g id="edge10" class="edge">
<title>j3582436467&#45;&gt;j2111165502</title>
<path fill="none" stroke="black" d="M748.09,-2833.81C748.09,-2826.23 748.09,-2817.1 748.09,-2808.54"/>
<polygon fill="black" stroke="black" points="751.59,-2808.54 748.09,-2798.54 744.59,-2808.54 751.59,-2808.54"/>
</g>
<!-- j449867728 -->
<g id="node10" class="node">
<title>j449867728</title>
<polygon fill="none" stroke="blue" points="1534.59,-2743 1157.59,-2743 1157.59,-2707 1534.59,-2707 1534.59,-2743"/>
<text text-anchor="middle" x="1346.09" y="-2721.3" font-family="Times New Roman,serif" font-size="14.00">어. 알았어. 친구야. 하려던 말 다시 집어넣지 뭐, 젠장</text>
</g>
<!-- j65723685&#45;&gt;j449867728 -->
<g id="edge11" class="edge">
<title>j65723685&#45;&gt;j449867728</title>
<path fill="none" stroke="black" d="M1077.04,-2833.55C1118.07,-2824.72 1166.11,-2812.53 1208.09,-2797 1243.04,-2784.07 1280.52,-2764.38 1307.58,-2749.02"/>
<polygon fill="black" stroke="black" points="1309.18,-2752.13 1316.1,-2744.12 1305.69,-2746.07 1309.18,-2752.13"/>
</g>
<!-- j2690548096 -->
<g id="node11" class="node">
<title>j2690548096</title>
<polygon fill="none" stroke="blue" points="1174.59,-2689 321.59,-2689 321.59,-2653 1174.59,-2653 1174.59,-2689"/>
<text text-anchor="middle" x="748.09" y="-2667.3" font-family="Times New Roman,serif" font-size="14.00">내가 이 모든 것들에 얼마나 화가 나 있었는지와 내 미래, 내 꿈을 나에게서 빼앗아간 모든 사람들, 응? 특히 아서에 대해서...</text>
</g>
<!-- j2111165502&#45;&gt;j2690548096 -->
<g id="edge12" class="edge">
<title>j2111165502&#45;&gt;j2690548096</title>
<path fill="none" stroke="black" d="M748.09,-2760.97C748.09,-2744.76 748.09,-2720.06 748.09,-2700.79"/>
<polygon fill="black" stroke="black" points="751.59,-2700.85 748.09,-2690.85 744.59,-2700.85 751.59,-2700.85"/>
</g>
<!-- j449867728&#45;&gt;Chat ends. -->
<g id="edge13" class="edge">
<title>j449867728&#45;&gt;Chat ends.</title>
<path fill="none" stroke="black" d="M1359.19,-2706.63C1370.85,-2689.39 1386.09,-2661.77 1386.09,-2635 1386.09,-2635 1386.09,-2635 1386.09,-90 1386.09,-27.56 930.6,-19.74 761.93,-18.98"/>
<polygon fill="black" stroke="black" points="762.06,-15.48 752.05,-18.94 762.03,-22.48 762.06,-15.48"/>
</g>
<!-- j2929330707 -->
<g id="node12" class="node">
<title>j2929330707</title>
<polygon fill="none" stroke="blue" points="1038.59,-2616 457.59,-2616 457.59,-2580 1038.59,-2580 1038.59,-2616"/>
<text text-anchor="middle" x="748.09" y="-2594.3" font-family="Times New Roman,serif" font-size="14.00">앞으로 나아갈 길은 없고, 내가 원하던 것에 대한 그 어떤... 희망도 없다고 생각했어</text>
</g>
<!-- j2690548096&#45;&gt;j2929330707 -->
<g id="edge14" class="edge">
<title>j2690548096&#45;&gt;j2929330707</title>
<path fill="none" stroke="black" d="M748.09,-2652.81C748.09,-2645.23 748.09,-2636.1 748.09,-2627.54"/>
<polygon fill="black" stroke="black" points="751.59,-2627.54 748.09,-2617.54 744.59,-2627.54 751.59,-2627.54"/>
</g>
<!-- j4126227865 -->
<g id="node13" class="node">
<title>j4126227865</title>
<polygon fill="none" stroke="blue" points="1355.09,-2543 141.09,-2543 141.09,-2507 1355.09,-2507 1355.09,-2543"/>
<text text-anchor="middle" x="748.09" y="-2521.3" font-family="Times New Roman,serif" font-size="14.00">그리고 난 생각하는 걸 멈추지 않았어. 어쩌면 어쩌면 하고 말이야. &#39;야... 멍청아? 네가 원하는 건 바뀔 수 있어 그리고 어쩌면 *네가 손에 넣은 게 이제까지 꿈꿔오던 거야&#39;라는 걸.</text>
</g>
<!-- j2929330707&#45;&gt;j4126227865 -->
<g id="edge15" class="edge">
<title>j2929330707&#45;&gt;j4126227865</title>
<path fill="none" stroke="black" d="M748.09,-2579.81C748.09,-2572.23 748.09,-2563.1 748.09,-2554.54"/>
<polygon fill="black" stroke="black" points="751.59,-2554.54 748.09,-2544.54 744.59,-2554.54 751.59,-2554.54"/>
</g>
<!-- j2080187898 -->
<g id="node14" class="node">
<title>j2080187898</title>
<polygon fill="none" stroke="blue" points="1354.09,-2470 142.09,-2470 142.09,-2434 1354.09,-2434 1354.09,-2470"/>
<text text-anchor="middle" x="748.09" y="-2448.3" font-family="Times New Roman,serif" font-size="14.00">지금 주변을 둘러보니... 커뮤니티가 보여. 그리고 응. 물론 다 좋지 좋아. 여전히 테크병이 파리들 마냥 윙윙거리면서 귀찮게 굴고, 거기에 제대로된 돌대가리인 빅토르까지 있어</text>
</g>
<!-- j4126227865&#45;&gt;j2080187898 -->
<g id="edge16" class="edge">
<title>j4126227865&#45;&gt;j2080187898</title>
<path fill="none" stroke="black" d="M748.09,-2506.81C748.09,-2499.23 748.09,-2490.1 748.09,-2481.54"/>
<polygon fill="black" stroke="black" points="751.59,-2481.54 748.09,-2471.54 744.59,-2481.54 751.59,-2481.54"/>
</g>
<!-- j3102426760 -->
<g id="node15" class="node">
<title>j3102426760</title>
<polygon fill="none" stroke="blue" points="1136.59,-2397 359.59,-2397 359.59,-2361 1136.59,-2361 1136.59,-2397"/>
<text text-anchor="middle" x="748.09" y="-2375.3" font-family="Times New Roman,serif" font-size="14.00">하지만 이제 이런 일들은 우리가 처리할 수 있게 되었어. 너 덕분이다. 너 덕분에 우리가 진짜로 존재하게 되었어</text>
</g>
<!-- j2080187898&#45;&gt;j3102426760 -->
<g id="edge17" class="edge">
<title>j2080187898&#45;&gt;j3102426760</title>
<path fill="none" stroke="black" d="M748.09,-2433.81C748.09,-2426.23 748.09,-2417.1 748.09,-2408.54"/>
<polygon fill="black" stroke="black" points="751.59,-2408.54 748.09,-2398.54 744.59,-2408.54 751.59,-2408.54"/>
</g>
<!-- j2020910173 -->
<g id="node16" class="node">
<title>j2020910173</title>
<polygon fill="none" stroke="blue" points="1334.59,-2324 161.59,-2324 161.59,-2288 1334.59,-2288 1334.59,-2324"/>
<text text-anchor="middle" x="748.09" y="-2302.3" font-family="Times New Roman,serif" font-size="14.00">난 꼬꼬마 애들 돌보는 일을 맡게 됐고, 엘레노어는 이야기를 들려주고, 아오이는 장난감을 주고, 아이들은 속도광한테 가서 작은 기계들 만들어 달라고 부탁하고 말이야...</text>
</g>
<!-- j3102426760&#45;&gt;j2020910173 -->
<g id="edge18" class="edge">
<title>j3102426760&#45;&gt;j2020910173</title>
<path fill="none" stroke="black" d="M748.09,-2360.81C748.09,-2353.23 748.09,-2344.1 748.09,-2335.54"/>
<polygon fill="black" stroke="black" points="751.59,-2335.54 748.09,-2325.54 744.59,-2335.54 751.59,-2335.54"/>
</g>
<!-- j90655889 -->
<g id="node17" class="node">
<title>j90655889</title>
<polygon fill="none" stroke="blue" points="964.09,-2251 532.09,-2251 532.09,-2215 964.09,-2215 964.09,-2251"/>
<text text-anchor="middle" x="748.09" y="-2229.3" font-family="Times New Roman,serif" font-size="14.00">심지어 전하도 처음으로 행복해 보였어... 정말 오랫만에 봤어</text>
</g>
<!-- j2020910173&#45;&gt;j90655889 -->
<g id="edge19" class="edge">
<title>j2020910173&#45;&gt;j90655889</title>
<path fill="none" stroke="black" d="M748.09,-2287.81C748.09,-2280.23 748.09,-2271.1 748.09,-2262.54"/>
<polygon fill="black" stroke="black" points="751.59,-2262.54 748.09,-2252.54 744.59,-2262.54 751.59,-2262.54"/>
</g>
<!-- j3165880937 -->
<g id="node18" class="node">
<title>j3165880937</title>
<polygon fill="none" stroke="blue" points="1209.59,-2178 286.59,-2178 286.59,-2142 1209.59,-2142 1209.59,-2178"/>
<text text-anchor="middle" x="748.09" y="-2156.3" font-family="Times New Roman,serif" font-size="14.00">그 날 그 자식이랑 함께 그 텐트에서 뛰쳐나와서 여기까지 따라오지 않았다면 이런 일은 결코 일어나지 않았을 거라는 걸 깨닫게 됐어</text>
</g>
<!-- j90655889&#45;&gt;j3165880937 -->
<g id="edge20" class="edge">
<title>j90655889&#45;&gt;j3165880937</title>
<path fill="none" stroke="black" d="M748.09,-2214.81C748.09,-2207.23 748.09,-2198.1 748.09,-2189.54"/>
<polygon fill="black" stroke="black" points="751.59,-2189.54 748.09,-2179.54 744.59,-2189.54 751.59,-2189.54"/>
</g>
<!-- j2560732776 -->
<g id="node19" class="node">
<title>j2560732776</title>
<polygon fill="none" stroke="blue" points="787.59,-2105 708.59,-2105 708.59,-2069 787.59,-2069 787.59,-2105"/>
<text text-anchor="middle" x="748.09" y="-2083.3" font-family="Times New Roman,serif" font-size="14.00">이... 사랑</text>
</g>
<!-- j3165880937&#45;&gt;j2560732776 -->
<g id="edge21" class="edge">
<title>j3165880937&#45;&gt;j2560732776</title>
<path fill="none" stroke="black" d="M748.09,-2141.81C748.09,-2134.23 748.09,-2125.1 748.09,-2116.54"/>
<polygon fill="black" stroke="black" points="751.59,-2116.54 748.09,-2106.54 744.59,-2116.54 751.59,-2116.54"/>
</g>
<!-- j1791584084 -->
<g id="node20" class="node">
<title>j1791584084</title>
<polygon fill="none" stroke="blue" points="843.59,-2032 652.59,-2032 652.59,-1996 843.59,-1996 843.59,-2032"/>
<text text-anchor="middle" x="748.09" y="-2010.3" font-family="Times New Roman,serif" font-size="14.00">이게 바로 그거 아니겠어?</text>
</g>
<!-- j2560732776&#45;&gt;j1791584084 -->
<g id="edge22" class="edge">
<title>j2560732776&#45;&gt;j1791584084</title>
<path fill="none" stroke="black" d="M748.09,-2068.81C748.09,-2061.23 748.09,-2052.1 748.09,-2043.54"/>
<polygon fill="black" stroke="black" points="751.59,-2043.54 748.09,-2033.54 744.59,-2043.54 751.59,-2043.54"/>
</g>
<!-- j4249616372 -->
<g id="node21" class="node">
<title>j4249616372</title>
<polygon fill="none" stroke="blue" points="775.09,-1959 721.09,-1959 721.09,-1923 775.09,-1923 775.09,-1959"/>
<text text-anchor="middle" x="748.09" y="-1937.3" font-family="Times New Roman,serif" font-size="14.00">사랑</text>
</g>
<!-- j1791584084&#45;&gt;j4249616372 -->
<g id="edge23" class="edge">
<title>j1791584084&#45;&gt;j4249616372</title>
<path fill="none" stroke="black" d="M748.09,-1995.81C748.09,-1988.23 748.09,-1979.1 748.09,-1970.54"/>
<polygon fill="black" stroke="black" points="751.59,-1970.54 748.09,-1960.54 744.59,-1970.54 751.59,-1970.54"/>
</g>
<!-- j2988068681 -->
<g id="node22" class="node">
<title>j2988068681</title>
<polygon fill="none" stroke="blue" points="1152.09,-1886 344.09,-1886 344.09,-1850 1152.09,-1850 1152.09,-1886"/>
<text text-anchor="middle" x="748.09" y="-1864.3" font-family="Times New Roman,serif" font-size="14.00">그래서 내가 어... 아서한테 가서... 미안하다고 전했어. 지랄맞게 군거 미안하다고. 그리고 그냥 화가 나고 무서웠다고</text>
</g>
<!-- j4249616372&#45;&gt;j2988068681 -->
<g id="edge24" class="edge">
<title>j4249616372&#45;&gt;j2988068681</title>
<path fill="none" stroke="black" d="M748.09,-1922.81C748.09,-1915.23 748.09,-1906.1 748.09,-1897.54"/>
<polygon fill="black" stroke="black" points="751.59,-1897.54 748.09,-1887.54 744.59,-1897.54 751.59,-1897.54"/>
</g>
<!-- j2402343255 -->
<g id="node23" class="node">
<title>j2402343255</title>
<polygon fill="none" stroke="blue" points="1358.09,-1813 138.09,-1813 138.09,-1777 1358.09,-1777 1358.09,-1813"/>
<text text-anchor="middle" x="748.09" y="-1791.3" font-family="Times New Roman,serif" font-size="14.00">난 그 자식이 나와 다른 모든 사람을 위해서 옳은 일을 하려고 노력했다는 걸 알고 있었어. 그리고 그 점에 대한 내 마음을 어떻게 표현할지 몰랐을 때도, 항상 그 점을 존중해왔고.</text>
</g>
<!-- j2988068681&#45;&gt;j2402343255 -->
<g id="edge25" class="edge">
<title>j2988068681&#45;&gt;j2402343255</title>
<path fill="none" stroke="black" d="M748.09,-1849.81C748.09,-1842.23 748.09,-1833.1 748.09,-1824.54"/>
<polygon fill="black" stroke="black" points="751.59,-1824.54 748.09,-1814.54 744.59,-1824.54 751.59,-1824.54"/>
</g>
<!-- j3399361488 -->
<g id="node24" class="node">
<title>j3399361488</title>
<polygon fill="none" stroke="blue" points="1260.09,-1740 236.09,-1740 236.09,-1704 1260.09,-1704 1260.09,-1740"/>
<text text-anchor="middle" x="748.09" y="-1718.3" font-family="Times New Roman,serif" font-size="14.00">아서랑 난 절대 포옹 같은 거 못할 거다, 친구야. 넌 우리가 포옹하는 꼬라지 절대 볼 수 없을꺼니까 말이야. 하지만 우린 악수했고 나한테 웃어주더라</text>
</g>
<!-- j2402343255&#45;&gt;j3399361488 -->
<g id="edge26" class="edge">
<title>j2402343255&#45;&gt;j3399361488</title>
<path fill="none" stroke="black" d="M748.09,-1776.81C748.09,-1769.23 748.09,-1760.1 748.09,-1751.54"/>
<polygon fill="black" stroke="black" points="751.59,-1751.54 748.09,-1741.54 744.59,-1751.54 751.59,-1751.54"/>
</g>
<!-- j1430302587 -->
<g id="node25" class="node">
<title>j1430302587</title>
<polygon fill="none" stroke="blue" points="864.59,-1667 631.59,-1667 631.59,-1631 864.59,-1631 864.59,-1667"/>
<text text-anchor="middle" x="748.09" y="-1645.3" font-family="Times New Roman,serif" font-size="14.00">그리고 나도 웃으면서 말해줬어</text>
</g>
<!-- j3399361488&#45;&gt;j1430302587 -->
<g id="edge27" class="edge">
<title>j3399361488&#45;&gt;j1430302587</title>
<path fill="none" stroke="black" d="M748.09,-1703.81C748.09,-1696.23 748.09,-1687.1 748.09,-1678.54"/>
<polygon fill="black" stroke="black" points="751.59,-1678.54 748.09,-1668.54 744.59,-1678.54 751.59,-1678.54"/>
</g>
<!-- j1598694856 -->
<g id="node26" class="node">
<title>j1598694856</title>
<ellipse fill="none" stroke="orange" cx="748.09" cy="-1576" rx="122.38" ry="18"/>
<text text-anchor="middle" x="748.09" y="-1572.3" font-family="Times New Roman,serif" font-size="14.00">Check boolean QuincyArthur2</text>
</g>
<!-- j1430302587&#45;&gt;j1598694856 -->
<g id="edge28" class="edge">
<title>j1430302587&#45;&gt;j1598694856</title>
<path fill="none" stroke="black" d="M748.09,-1630.81C748.09,-1623.23 748.09,-1614.1 748.09,-1605.54"/>
<polygon fill="black" stroke="black" points="751.59,-1605.54 748.09,-1595.54 744.59,-1605.54 751.59,-1605.54"/>
</g>
<!-- j2192037856 -->
<g id="node27" class="node">
<title>j2192037856</title>
<polygon fill="none" stroke="blue" points="817.09,-1507 543.09,-1507 543.09,-1471 817.09,-1471 817.09,-1507"/>
<text text-anchor="middle" x="680.09" y="-1485.3" font-family="Times New Roman,serif" font-size="14.00">&#39;여전히 기분 잡치는데 뭐가 있다니까&#39;</text>
</g>
<!-- j1598694856&#45;&gt;j2192037856 -->
<g id="edge29" class="edge">
<title>j1598694856&#45;&gt;j2192037856</title>
<path fill="none" stroke="green" d="M734.33,-1557.8C724.81,-1545.9 711.95,-1529.83 701.15,-1516.32"/>
<polygon fill="green" stroke="green" points="703.99,-1514.27 695.01,-1508.65 698.52,-1518.64 703.99,-1514.27"/>
<text text-anchor="middle" x="730.09" y="-1528.8" font-family="Times New Roman,serif" font-size="14.00">true</text>
</g>
<!-- j3942710080 -->
<g id="node28" class="node">
<title>j3942710080</title>
<polygon fill="none" stroke="blue" points="987.09,-1507 835.09,-1507 835.09,-1471 987.09,-1471 987.09,-1507"/>
<text text-anchor="middle" x="911.09" y="-1485.3" font-family="Times New Roman,serif" font-size="14.00">&#39;여전히 바보라니까&#39;</text>
</g>
<!-- j1598694856&#45;&gt;j3942710080 -->
<g id="edge30" class="edge">
<title>j1598694856&#45;&gt;j3942710080</title>
<path fill="none" stroke="brown" d="M780.29,-1558.21C805.22,-1545.21 840,-1527.07 867.43,-1512.76"/>
<polygon fill="brown" stroke="brown" points="868.96,-1515.92 876.21,-1508.19 865.72,-1509.71 868.96,-1515.92"/>
<text text-anchor="middle" x="852.09" y="-1528.8" font-family="Times New Roman,serif" font-size="14.00">false</text>
</g>
<!-- j1665791775 -->
<g id="node29" class="node">
<title>j1665791775</title>
<polygon fill="none" stroke="blue" points="904.59,-1434 777.59,-1434 777.59,-1398 904.59,-1398 904.59,-1434"/>
<text text-anchor="middle" x="841.09" y="-1412.3" font-family="Times New Roman,serif" font-size="14.00">ㅋㅋㅋㅋㅋㅋㅋ</text>
</g>
<!-- j2192037856&#45;&gt;j1665791775 -->
<g id="edge31" class="edge">
<title>j2192037856&#45;&gt;j1665791775</title>
<path fill="none" stroke="black" d="M719.47,-1470.63C741.11,-1461.09 768.16,-1449.16 791.25,-1438.98"/>
<polygon fill="black" stroke="black" points="792.43,-1442.28 800.17,-1435.05 789.61,-1435.88 792.43,-1442.28"/>
</g>
<!-- j3942710080&#45;&gt;j1665791775 -->
<g id="edge32" class="edge">
<title>j3942710080&#45;&gt;j1665791775</title>
<path fill="none" stroke="black" d="M894.14,-1470.81C885.63,-1462.18 875.16,-1451.56 865.77,-1442.03"/>
<polygon fill="black" stroke="black" points="868.45,-1439.77 858.94,-1435.11 863.47,-1444.68 868.45,-1439.77"/>
</g>
<!-- j377624740 -->
<g id="node30" class="node">
<title>j377624740</title>
<polygon fill="none" stroke="red" points="791.09,-1361 665.09,-1361 665.09,-1325 791.09,-1325 791.09,-1361"/>
<text text-anchor="middle" x="728.09" y="-1339.3" font-family="Times New Roman,serif" font-size="14.00">오, 퀸시. ㅋㅋㅋ</text>
</g>
<!-- j1665791775&#45;&gt;j377624740 -->
<g id="edge33" class="edge">
<title>j1665791775&#45;&gt;j377624740</title>
<path fill="none" stroke="black" d="M813.45,-1397.63C798.94,-1388.52 780.98,-1377.23 765.27,-1367.36"/>
<polygon fill="black" stroke="black" points="767.45,-1364.6 757.12,-1362.24 763.72,-1370.52 767.45,-1364.6"/>
</g>
<!-- j2500256020 -->
<g id="node31" class="node">
<title>j2500256020</title>
<polygon fill="none" stroke="red" points="1018.59,-1361 809.59,-1361 809.59,-1325 1018.59,-1325 1018.59,-1361"/>
<text text-anchor="middle" x="914.09" y="-1339.3" font-family="Times New Roman,serif" font-size="14.00">그거 듣고 기분 좋았을 거야.</text>
</g>
<!-- j1665791775&#45;&gt;j2500256020 -->
<g id="edge34" class="edge">
<title>j1665791775&#45;&gt;j2500256020</title>
<path fill="none" stroke="black" d="M858.76,-1397.81C867.57,-1389.24 878.4,-1378.71 888.13,-1369.24"/>
<polygon fill="black" stroke="black" points="890.51,-1371.81 895.24,-1362.33 885.63,-1366.79 890.51,-1371.81"/>
</g>
<!-- j4012179148 -->
<g id="node32" class="node">
<title>j4012179148</title>
<polygon fill="none" stroke="blue" points="1027.09,-1288 671.09,-1288 671.09,-1252 1027.09,-1252 1027.09,-1288"/>
<text text-anchor="middle" x="849.09" y="-1266.3" font-family="Times New Roman,serif" font-size="14.00">아서가 웃었어! 마침내 내 유머를 이해한 거야, 응?</text>
</g>
<!-- j377624740&#45;&gt;j4012179148 -->
<g id="edge35" class="edge">
<title>j377624740&#45;&gt;j4012179148</title>
<path fill="none" stroke="black" d="M757.69,-1324.63C773.36,-1315.43 792.82,-1304.02 809.75,-1294.08"/>
<polygon fill="black" stroke="black" points="811.22,-1297.28 818.07,-1289.2 807.67,-1291.24 811.22,-1297.28"/>
</g>
<!-- j2500256020&#45;&gt;j4012179148 -->
<g id="edge36" class="edge">
<title>j2500256020&#45;&gt;j4012179148</title>
<path fill="none" stroke="black" d="M898.35,-1324.81C890.53,-1316.27 880.92,-1305.77 872.27,-1296.32"/>
<polygon fill="black" stroke="black" points="875.03,-1294.16 865.7,-1289.15 869.87,-1298.88 875.03,-1294.16"/>
</g>
<!-- j44665531 -->
<g id="node33" class="node">
<title>j44665531</title>
<polygon fill="none" stroke="blue" points="975.09,-1215 723.09,-1215 723.09,-1179 975.09,-1179 975.09,-1215"/>
<text text-anchor="middle" x="849.09" y="-1193.3" font-family="Times New Roman,serif" font-size="14.00">내 어깨를 두드리고 대화는 끝났어</text>
</g>
<!-- j4012179148&#45;&gt;j44665531 -->
<g id="edge37" class="edge">
<title>j4012179148&#45;&gt;j44665531</title>
<path fill="none" stroke="black" d="M849.09,-1251.81C849.09,-1244.23 849.09,-1235.1 849.09,-1226.54"/>
<polygon fill="black" stroke="black" points="852.59,-1226.54 849.09,-1216.54 845.59,-1226.54 852.59,-1226.54"/>
</g>
<!-- j1490139518 -->
<g id="node34" class="node">
<title>j1490139518</title>
<polygon fill="none" stroke="blue" points="1280.59,-1142 417.59,-1142 417.59,-1106 1280.59,-1106 1280.59,-1142"/>
<text text-anchor="middle" x="849.09" y="-1120.3" font-family="Times New Roman,serif" font-size="14.00">그리고... 그거 꽤 괜찮은 기분이었어. 진짜로 좋았어. 더이상 매달려서 질질끌게 만드는 마음 속 응어리들이 느껴지지 않았어</text>
</g>
<!-- j44665531&#45;&gt;j1490139518 -->
<g id="edge38" class="edge">
<title>j44665531&#45;&gt;j1490139518</title>
<path fill="none" stroke="black" d="M849.09,-1178.81C849.09,-1171.23 849.09,-1162.1 849.09,-1153.54"/>
<polygon fill="black" stroke="black" points="852.59,-1153.54 849.09,-1143.54 845.59,-1153.54 852.59,-1153.54"/>
</g>
<!-- j2818285471 -->
<g id="node35" class="node">
<title>j2818285471</title>
<polygon fill="none" stroke="blue" points="951.59,-1069 746.59,-1069 746.59,-1033 951.59,-1033 951.59,-1069"/>
<text text-anchor="middle" x="849.09" y="-1047.3" font-family="Times New Roman,serif" font-size="14.00">그리고 그게 다 네 덕분이야</text>
</g>
<!-- j1490139518&#45;&gt;j2818285471 -->
<g id="edge39" class="edge">
<title>j1490139518&#45;&gt;j2818285471</title>
<path fill="none" stroke="black" d="M849.09,-1105.81C849.09,-1098.23 849.09,-1089.1 849.09,-1080.54"/>
<polygon fill="black" stroke="black" points="852.59,-1080.54 849.09,-1070.54 845.59,-1080.54 852.59,-1080.54"/>
</g>
<!-- j2532970724 -->
<g id="node36" class="node">
<title>j2532970724</title>
<ellipse fill="none" stroke="orange" cx="849.09" cy="-978" rx="117.78" ry="18"/>
<text text-anchor="middle" x="849.09" y="-974.3" font-family="Times New Roman,serif" font-size="14.00">Check boolean QuincyDating</text>
</g>
<!-- j2818285471&#45;&gt;j2532970724 -->
<g id="edge40" class="edge">
<title>j2818285471&#45;&gt;j2532970724</title>
<path fill="none" stroke="black" d="M849.09,-1032.81C849.09,-1025.23 849.09,-1016.1 849.09,-1007.54"/>
<polygon fill="black" stroke="black" points="852.59,-1007.54 849.09,-997.54 845.59,-1007.54 852.59,-1007.54"/>
</g>
<!-- j3798197579 -->
<g id="node37" class="node">
<title>j3798197579</title>
<polygon fill="none" stroke="blue" points="1132.59,-909 719.59,-909 719.59,-873 1132.59,-873 1132.59,-909"/>
<text text-anchor="middle" x="926.09" y="-887.3" font-family="Times New Roman,serif" font-size="14.00">그래서, 자기야? 그냥.. 고맙다고... 말하고 싶었어.. 그리고..</text>
</g>
<!-- j2532970724&#45;&gt;j3798197579 -->
<g id="edge41" class="edge">
<title>j2532970724&#45;&gt;j3798197579</title>
<path fill="none" stroke="green" d="M864.67,-959.8C875.56,-947.78 890.29,-931.52 902.59,-917.94"/>
<polygon fill="green" stroke="green" points="905.13,-920.35 909.25,-910.59 899.94,-915.65 905.13,-920.35"/>
<text text-anchor="middle" x="903.09" y="-930.8" font-family="Times New Roman,serif" font-size="14.00">true</text>
</g>
<!-- j2269909470 -->
<g id="node38" class="node">
<title>j2269909470</title>
<polygon fill="none" stroke="blue" points="701.09,-909 169.09,-909 169.09,-873 701.09,-873 701.09,-909"/>
<text text-anchor="middle" x="435.09" y="-887.3" font-family="Times New Roman,serif" font-size="14.00">그래서, 사촌? 그냥 말하고 싶었어... 이제 평생의 친구를 갖게 되었다는 점을</text>
</g>
<!-- j2532970724&#45;&gt;j2269909470 -->
<g id="edge42" class="edge">
<title>j2532970724&#45;&gt;j2269909470</title>
<path fill="none" stroke="brown" d="M780.73,-962.96C712.65,-948.99 607.55,-927.41 531.11,-911.71"/>
<polygon fill="brown" stroke="brown" points="532.03,-908.33 521.53,-909.75 530.62,-915.19 532.03,-908.33"/>
<text text-anchor="middle" x="680.09" y="-930.8" font-family="Times New Roman,serif" font-size="14.00">false</text>
</g>
<!-- j1119726332 -->
<g id="node39" class="node">
<title>j1119726332</title>
<polygon fill="none" stroke="blue" points="958.09,-836 894.09,-836 894.09,-800 958.09,-800 958.09,-836"/>
<text text-anchor="middle" x="926.09" y="-814.3" font-family="Times New Roman,serif" font-size="14.00">사랑해</text>
</g>
<!-- j3798197579&#45;&gt;j1119726332 -->
<g id="edge43" class="edge">
<title>j3798197579&#45;&gt;j1119726332</title>
<path fill="none" stroke="black" d="M926.09,-872.81C926.09,-865.23 926.09,-856.1 926.09,-847.54"/>
<polygon fill="black" stroke="black" points="929.59,-847.54 926.09,-837.54 922.59,-847.54 929.59,-847.54"/>
</g>
<!-- j3761001765 -->
<g id="node40" class="node">
<title>j3761001765</title>
<polygon fill="none" stroke="blue" points="731.59,-836 138.59,-836 138.59,-800 731.59,-800 731.59,-836"/>
<text text-anchor="middle" x="435.09" y="-814.3" font-family="Times New Roman,serif" font-size="14.00">우린 그냥 절친이 아니라, 가족이라고. 고맙다. 여기 있어줘서. 해준 모든 일에 대해서</text>
</g>
<!-- j2269909470&#45;&gt;j3761001765 -->
<g id="edge44" class="edge">
<title>j2269909470&#45;&gt;j3761001765</title>
<path fill="none" stroke="black" d="M435.09,-872.81C435.09,-865.23 435.09,-856.1 435.09,-847.54"/>
<polygon fill="black" stroke="black" points="438.59,-847.54 435.09,-837.54 431.59,-847.54 438.59,-847.54"/>
</g>
<!-- j3265942054 -->
<g id="node41" class="node">
<title>j3265942054</title>
<polygon fill="none" stroke="red" points="825.59,-763 664.59,-763 664.59,-727 825.59,-727 825.59,-763"/>
<text text-anchor="middle" x="745.09" y="-741.3" font-family="Times New Roman,serif" font-size="14.00">나도 사랑해, 퀸시. &lt;3</text>
</g>
<!-- j1119726332&#45;&gt;j3265942054 -->
<g id="edge45" class="edge">
<title>j1119726332&#45;&gt;j3265942054</title>
<path fill="none" stroke="black" d="M893.73,-804.31C867.72,-794.1 830.59,-779.54 799.94,-767.52"/>
<polygon fill="black" stroke="black" points="801.4,-764.33 790.82,-763.94 798.85,-770.85 801.4,-764.33"/>
</g>
<!-- j3455403172 -->
<g id="node42" class="node">
<title>j3455403172</title>
<polygon fill="none" stroke="red" points="1333.59,-763 890.59,-763 890.59,-727 1333.59,-727 1333.59,-763"/>
<text text-anchor="middle" x="1112.09" y="-741.3" font-family="Times New Roman,serif" font-size="14.00">난... 오. 미안해. 난 아직 그 헌신에 마주할 준비가 안된 것 같아.</text>
</g>
<!-- j1119726332&#45;&gt;j3455403172 -->
<g id="edge46" class="edge">
<title>j1119726332&#45;&gt;j3455403172</title>
<path fill="none" stroke="black" d="M958.49,-804.63C985.33,-794.39 1024.09,-779.59 1055.96,-767.43"/>
<polygon fill="black" stroke="black" points="1056.97,-770.79 1065.06,-763.95 1054.47,-764.25 1056.97,-770.79"/>
</g>
<!-- j99546442 -->
<g id="node43" class="node">
<title>j99546442</title>
<polygon fill="none" stroke="blue" points="470.09,-709 258.09,-709 258.09,-673 470.09,-673 470.09,-709"/>
<text text-anchor="middle" x="364.09" y="-687.3" font-family="Times New Roman,serif" font-size="14.00">내가 너한테 빚 1개 진거다. ;)</text>
</g>
<!-- j3761001765&#45;&gt;j99546442 -->
<g id="edge47" class="edge">
<title>j3761001765&#45;&gt;j99546442</title>
<path fill="none" stroke="black" d="M425.22,-799.62C413.35,-778.72 393.29,-743.42 379.41,-718.97"/>
<polygon fill="black" stroke="black" points="382.61,-717.52 374.62,-710.55 376.52,-720.97 382.61,-717.52"/>
</g>
<!-- j869558103 -->
<g id="node44" class="node">
<title>j869558103</title>
<polygon fill="none" stroke="blue" points="1089.59,-655 332.59,-655 332.59,-619 1089.59,-619 1089.59,-655"/>
<text text-anchor="middle" x="711.09" y="-633.3" font-family="Times New Roman,serif" font-size="14.00">모든 시간과 장소와 사람들 속에서... 너와 나. 꿈에도 생각 못했어. 하지만 이 관계는 세상과 바꾸고 싶지 않아</text>
</g>
<!-- j3265942054&#45;&gt;j869558103 -->
<g id="edge48" class="edge">
<title>j3265942054&#45;&gt;j869558103</title>
<path fill="none" stroke="black" d="M739.63,-726.97C734.38,-710.61 726.35,-685.59 720.15,-666.24"/>
<polygon fill="black" stroke="black" points="723.5,-665.23 717.11,-656.78 716.83,-667.37 723.5,-665.23"/>
</g>
<!-- j4239915153 -->
<g id="node45" class="node">
<title>j4239915153</title>
<polygon fill="none" stroke="blue" points="1348.09,-655 1108.09,-655 1108.09,-619 1348.09,-619 1348.09,-655"/>
<text text-anchor="middle" x="1228.09" y="-633.3" font-family="Times New Roman,serif" font-size="14.00">내 거시기가 문 틈에 낀 기분이야</text>
</g>
<!-- j3455403172&#45;&gt;j4239915153 -->
<g id="edge49" class="edge">
<title>j3455403172&#45;&gt;j4239915153</title>
<path fill="none" stroke="black" d="M1130.98,-726.73C1149.94,-709.41 1179.34,-682.55 1200.82,-662.92"/>
<polygon fill="black" stroke="black" points="1203.06,-665.61 1208.08,-656.28 1198.34,-660.44 1203.06,-665.61"/>
</g>
<!-- j99546442&#45;&gt;Chat ends. -->
<g id="edge50" class="edge">
<title>j99546442&#45;&gt;Chat ends.</title>
<path fill="none" stroke="black" d="M339.46,-672.61C333.48,-667.48 327.54,-661.48 323.09,-655 308.7,-634.02 304.09,-626.44 304.09,-601 304.09,-601 304.09,-601 304.09,-90 304.09,-56.27 529.55,-33.02 640.23,-23.64"/>
<polygon fill="black" stroke="black" points="640.35,-27.14 650.02,-22.82 639.77,-20.16 640.35,-27.14"/>
</g>
<!-- j2965097667 -->
<g id="node46" class="node">
<title>j2965097667</title>
<polygon fill="none" stroke="blue" points="794.09,-582 612.09,-582 612.09,-546 794.09,-546 794.09,-582"/>
<text text-anchor="middle" x="703.09" y="-560.3" font-family="Times New Roman,serif" font-size="14.00">미래와도 말이야 ㅋㅋㅋ</text>
</g>
<!-- j869558103&#45;&gt;j2965097667 -->
<g id="edge51" class="edge">
<title>j869558103&#45;&gt;j2965097667</title>
<path fill="none" stroke="black" d="M709.15,-618.81C708.29,-611.14 707.25,-601.89 706.27,-593.24"/>
<polygon fill="black" stroke="black" points="709.77,-593.08 705.18,-583.53 702.82,-593.86 709.77,-593.08"/>
</g>
<!-- j161570093 -->
<g id="node47" class="node">
<title>j161570093</title>
<polygon fill="none" stroke="blue" points="1255.59,-582 1126.59,-582 1126.59,-546 1255.59,-546 1255.59,-582"/>
<text text-anchor="middle" x="1191.09" y="-560.3" font-family="Times New Roman,serif" font-size="14.00">젠장, 진심이야?!</text>
</g>
<!-- j4239915153&#45;&gt;j161570093 -->
<g id="edge52" class="edge">
<title>j4239915153&#45;&gt;j161570093</title>
<path fill="none" stroke="black" d="M1219.13,-618.81C1214.95,-610.79 1209.87,-601.05 1205.2,-592.07"/>
<polygon fill="black" stroke="black" points="1208.39,-590.62 1200.66,-583.37 1202.18,-593.86 1208.39,-590.62"/>
</g>
<!-- j471011587 -->
<g id="node48" class="node">
<title>j471011587</title>
<polygon fill="none" stroke="blue" points="942.09,-509 460.09,-509 460.09,-473 942.09,-473 942.09,-509"/>
<text text-anchor="middle" x="701.09" y="-487.3" font-family="Times New Roman,serif" font-size="14.00">그래서... 고마워, 자기야. 너로 있어줘서. 너가 해준 모든 일에 대해서</text>
</g>
<!-- j2965097667&#45;&gt;j471011587 -->
<g id="edge53" class="edge">
<title>j2965097667&#45;&gt;j471011587</title>
<path fill="none" stroke="black" d="M702.6,-545.81C702.39,-538.14 702.13,-528.89 701.88,-520.24"/>
<polygon fill="black" stroke="black" points="705.39,-520.44 701.61,-510.54 698.39,-520.64 705.39,-520.44"/>
</g>
<!-- j2126863506 -->
<g id="node49" class="node">
<title>j2126863506</title>
<polygon fill="none" stroke="blue" points="1248.09,-509 1086.09,-509 1086.09,-473 1248.09,-473 1248.09,-509"/>
<text text-anchor="middle" x="1167.09" y="-487.3" font-family="Times New Roman,serif" font-size="14.00">이 모든 걸 같이 해놓&#45;</text>
</g>
<!-- j161570093&#45;&gt;j2126863506 -->
<g id="edge54" class="edge">
<title>j161570093&#45;&gt;j2126863506</title>
<path fill="none" stroke="black" d="M1185.28,-545.81C1182.63,-537.96 1179.42,-528.47 1176.44,-519.66"/>
<polygon fill="black" stroke="black" points="1179.85,-518.82 1173.33,-510.46 1173.22,-521.06 1179.85,-518.82"/>
</g>
<!-- j4240951141 -->
<g id="node50" class="node">
<title>j4240951141</title>
<polygon fill="none" stroke="blue" points="806.09,-382 594.09,-382 594.09,-346 806.09,-346 806.09,-382"/>
<text text-anchor="middle" x="700.09" y="-360.3" font-family="Times New Roman,serif" font-size="14.00">내가 너한테 빚 1개 진거야. ;)</text>
</g>
<!-- j471011587&#45;&gt;j4240951141 -->
<g id="edge55" class="edge">
<title>j471011587&#45;&gt;j4240951141</title>
<path fill="none" stroke="black" d="M700.95,-472.62C700.79,-452.19 700.51,-417.99 700.32,-393.62"/>
<polygon fill="black" stroke="black" points="703.82,-393.72 700.24,-383.75 696.82,-393.77 703.82,-393.72"/>
</g>
<!-- j518305081 -->
<g id="node51" class="node">
<title>j518305081</title>
<polygon fill="none" stroke="blue" points="1299.09,-436 907.09,-436 907.09,-400 1299.09,-400 1299.09,-436"/>
<text text-anchor="middle" x="1103.09" y="-414.3" font-family="Times New Roman,serif" font-size="14.00">그래. 신경 쓰지말라고. 그러던가. 그러던가. 신경 안 써.</text>
</g>
<!-- j2126863506&#45;&gt;j518305081 -->
<g id="edge56" class="edge">
<title>j2126863506&#45;&gt;j518305081</title>
<path fill="none" stroke="black" d="M1151.6,-472.81C1143.89,-464.27 1134.43,-453.77 1125.92,-444.32"/>
<polygon fill="black" stroke="black" points="1128.75,-442.24 1119.45,-437.15 1123.55,-446.92 1128.75,-442.24"/>
</g>
<!-- j4240951141&#45;&gt;Chat ends. -->
<g id="edge57" class="edge">
<title>j4240951141&#45;&gt;Chat ends.</title>
<path fill="none" stroke="black" d="M700.09,-345.61C700.09,-327.66 700.09,-298.88 700.09,-274 700.09,-274 700.09,-274 700.09,-90 700.09,-76.08 700.09,-60.63 700.09,-47.7"/>
<polygon fill="black" stroke="black" points="703.59,-47.73 700.09,-37.73 696.59,-47.73 703.59,-47.73"/>
</g>
<!-- j2178525386 -->
<g id="node52" class="node">
<title>j2178525386</title>
<polygon fill="none" stroke="blue" points="1357.59,-328 728.59,-328 728.59,-292 1357.59,-292 1357.59,-328"/>
<text text-anchor="middle" x="1043.09" y="-306.3" font-family="Times New Roman,serif" font-size="14.00">하지만 이게 바로 내가 지금까지 말해왔던 바로 빌어먹을 헛소리라고. 그냥 말해두는 거야</text>
</g>
<!-- j518305081&#45;&gt;j2178525386 -->
<g id="edge58" class="edge">
<title>j518305081&#45;&gt;j2178525386</title>
<path fill="none" stroke="black" d="M1093.45,-399.97C1084.01,-383.3 1069.49,-357.65 1058.46,-338.16"/>
<polygon fill="black" stroke="black" points="1061.62,-336.64 1053.65,-329.66 1055.53,-340.08 1061.62,-336.64"/>
</g>
<!-- j2319655028 -->
<g id="node53" class="node">
<title>j2319655028</title>
<ellipse fill="none" stroke="orange" cx="935.09" cy="-237" rx="141.88" ry="18"/>
<text text-anchor="middle" x="935.09" y="-233.3" font-family="Times New Roman,serif" font-size="14.00">Boolean QuincyNoDate is now true.</text>
</g>
<!-- j2178525386&#45;&gt;j2319655028 -->
<g id="edge59" class="edge">
<title>j2178525386&#45;&gt;j2319655028</title>
<path fill="none" stroke="black" d="M1016.67,-291.63C1002.74,-282.47 985.45,-271.11 970.39,-261.2"/>
<polygon fill="black" stroke="black" points="972.41,-258.34 962.13,-255.78 968.56,-264.19 972.41,-258.34"/>
</g>
<!-- j1884175600 -->
<g id="node54" class="node">
<title>j1884175600</title>
<ellipse fill="none" stroke="orange" cx="886.09" cy="-164" rx="140.28" ry="18"/>
<text text-anchor="middle" x="886.09" y="-160.3" font-family="Times New Roman,serif" font-size="14.00">Boolean QuincyDating is now false.</text>
</g>
<!-- j2319655028&#45;&gt;j1884175600 -->
<g id="edge60" class="edge">
<title>j2319655028&#45;&gt;j1884175600</title>
<path fill="none" stroke="black" d="M923.23,-218.81C917.57,-210.62 910.67,-200.62 904.37,-191.48"/>
<polygon fill="black" stroke="black" points="907.26,-189.52 898.7,-183.27 901.5,-193.49 907.26,-189.52"/>
</g>
<!-- j1242024027 -->
<g id="node55" class="node">
<title>j1242024027</title>
<ellipse fill="none" stroke="orange" cx="855.09" cy="-91" rx="120.78" ry="18"/>
<text text-anchor="middle" x="855.09" y="-87.3" font-family="Times New Roman,serif" font-size="14.00">Boolean IsDating is now false.</text>
</g>
<!-- j1884175600&#45;&gt;j1242024027 -->
<g id="edge61" class="edge">
<title>j1884175600&#45;&gt;j1242024027</title>
<path fill="none" stroke="black" d="M878.58,-145.81C875.12,-137.88 870.92,-128.26 867.04,-119.36"/>
<polygon fill="black" stroke="black" points="870.34,-118.18 863.13,-110.42 863.92,-120.98 870.34,-118.18"/>
</g>
<!-- j1242024027&#45;&gt;Chat ends. -->
<g id="edge62" class="edge">
<title>j1242024027&#45;&gt;Chat ends.</title>
<path fill="none" stroke="black" d="M818.75,-73.35C795.29,-62.61 764.74,-48.61 740.51,-37.52"/>
<polygon fill="black" stroke="black" points="742.14,-34.41 731.59,-33.43 739.22,-40.78 742.14,-34.41"/>
</g>
</g>
</svg>
