<?xml version="1.0" encoding="UTF-8" standalone="no"?>
<!DOCTYPE svg PUBLIC "-//W3C//DTD SVG 1.1//EN"
 "http://www.w3.org/Graphics/SVG/1.1/DTD/svg11.dtd">
<!-- Generated by graphviz version 7.1.0 (20230121.1956)
 -->
<!-- Pages: 1 -->
<svg width="1272pt" height="332pt"
 viewBox="0.00 0.00 1272.00 332.00" xmlns="http://www.w3.org/2000/svg" xmlns:xlink="http://www.w3.org/1999/xlink">
<g id="graph0" class="graph" transform="scale(1 1) rotate(0) translate(4 328)">
<polygon fill="white" stroke="none" points="-4,4 -4,-328 1268,-328 1268,4 -4,4"/>
<!-- AmirBirthdayConvo1 begins. -->
<g id="node1" class="node">
<title>AmirBirthdayConvo1 begins.</title>
<ellipse fill="none" stroke="orange" cx="655" cy="-306" rx="116.98" ry="18"/>
<text text-anchor="middle" x="655" y="-302.3" font-family="Times New Roman,serif" font-size="14.00">AmirBirthdayConvo1 begins.</text>
</g>
<!-- j1663303309 -->
<g id="node2" class="node">
<title>j1663303309</title>
<polygon fill="none" stroke="red" points="626,-252 310,-252 310,-216 626,-216 626,-252"/>
<text text-anchor="middle" x="468" y="-230.3" font-family="Times New Roman,serif" font-size="14.00">阿米爾！你成功繞完太陽又一圈了！恭喜！</text>
</g>
<!-- AmirBirthdayConvo1 begins.&#45;&gt;j1663303309 -->
<g id="edge1" class="edge">
<title>AmirBirthdayConvo1 begins.&#45;&gt;j1663303309</title>
<path fill="none" stroke="black" d="M612.1,-288.94C586.28,-279.28 553.1,-266.86 525.09,-256.37"/>
<polygon fill="black" stroke="black" points="526.64,-253.21 516.05,-252.99 524.19,-259.77 526.64,-253.21"/>
</g>
<!-- j1359725271 -->
<g id="node3" class="node">
<title>j1359725271</title>
<polygon fill="none" stroke="red" points="1072.5,-252 677.5,-252 677.5,-216 1072.5,-216 1072.5,-252"/>
<text text-anchor="middle" x="875" y="-230.3" font-family="Times New Roman,serif" font-size="14.00">今天是你生日，阿米爾！也許是再成長一點的好時機？</text>
</g>
<!-- AmirBirthdayConvo1 begins.&#45;&gt;j1359725271 -->
<g id="edge2" class="edge">
<title>AmirBirthdayConvo1 begins.&#45;&gt;j1359725271</title>
<path fill="none" stroke="black" d="M704.37,-289.29C735.47,-279.4 775.96,-266.51 809.69,-255.78"/>
<polygon fill="black" stroke="black" points="810.48,-259.2 818.95,-252.84 808.36,-252.53 810.48,-259.2"/>
</g>
<!-- j4259200333 -->
<g id="node4" class="node">
<title>j4259200333</title>
<ellipse fill="none" stroke="orange" cx="401" cy="-162" rx="64.19" ry="18"/>
<text text-anchor="middle" x="401" y="-158.3" font-family="Times New Roman,serif" font-size="14.00">+20 Chemistry</text>
</g>
<!-- j1663303309&#45;&gt;j4259200333 -->
<g id="edge3" class="edge">
<title>j1663303309&#45;&gt;j4259200333</title>
<path fill="none" stroke="black" d="M451.44,-215.7C443.37,-207.27 433.52,-196.97 424.67,-187.73"/>
<polygon fill="black" stroke="black" points="427.4,-185.52 417.96,-180.72 422.34,-190.36 427.4,-185.52"/>
</g>
<!-- j593342407 -->
<g id="node5" class="node">
<title>j593342407</title>
<polygon fill="none" stroke="blue" points="1264,-108 554,-108 554,-72 1264,-72 1264,-108"/>
<text text-anchor="middle" x="909" y="-86.3" font-family="Times New Roman,serif" font-size="14.00">唉！我簡直不敢相信你居然把這種對話留在我內心小孩可以看到的地方！難道沒有人關心小孩了嗎？</text>
</g>
<!-- j1359725271&#45;&gt;j593342407 -->
<g id="edge4" class="edge">
<title>j1359725271&#45;&gt;j593342407</title>
<path fill="none" stroke="black" d="M879.17,-215.59C884.94,-191.5 895.41,-147.75 902.29,-119.03"/>
<polygon fill="black" stroke="black" points="905.63,-120.12 904.55,-109.58 898.82,-118.49 905.63,-120.12"/>
</g>
<!-- j836109137 -->
<g id="node6" class="node">
<title>j836109137</title>
<polygon fill="none" stroke="blue" points="536,-108 0,-108 0,-72 536,-72 536,-108"/>
<text text-anchor="middle" x="268" y="-86.3" font-family="Times New Roman,serif" font-size="14.00">哦，哪有！謝謝，但這沒什麼！這個星球付出了最大努力，我只是順路而行</text>
</g>
<!-- j4259200333&#45;&gt;j836109137 -->
<g id="edge5" class="edge">
<title>j4259200333&#45;&gt;j836109137</title>
<path fill="none" stroke="black" d="M371.81,-145.64C353.97,-136.25 330.83,-124.07 310.93,-113.59"/>
<polygon fill="black" stroke="black" points="312.68,-110.56 302.2,-109 309.42,-116.75 312.68,-110.56"/>
</g>
<!-- Chat ends. -->
<g id="node7" class="node">
<title>Chat ends.</title>
<ellipse fill="none" stroke="orange" cx="588" cy="-18" rx="50.09" ry="18"/>
<text text-anchor="middle" x="588" y="-14.3" font-family="Times New Roman,serif" font-size="14.00">Chat ends.</text>
</g>
<!-- j593342407&#45;&gt;Chat ends. -->
<g id="edge6" class="edge">
<title>j593342407&#45;&gt;Chat ends.</title>
<path fill="none" stroke="black" d="M828.83,-71.52C770.13,-58.72 692.12,-41.7 641.01,-30.56"/>
<polygon fill="black" stroke="black" points="641.89,-27.17 631.38,-28.46 640.4,-34.01 641.89,-27.17"/>
</g>
<!-- j836109137&#45;&gt;Chat ends. -->
<g id="edge7" class="edge">
<title>j836109137&#45;&gt;Chat ends.</title>
<path fill="none" stroke="black" d="M347.92,-71.52C406.44,-58.72 484.21,-41.7 535.15,-30.56"/>
<polygon fill="black" stroke="black" points="535.73,-34.02 544.75,-28.46 534.24,-27.18 535.73,-34.02"/>
</g>
</g>
</svg>
