<?xml version="1.0" encoding="UTF-8" standalone="no"?>
<!DOCTYPE svg PUBLIC "-//W3C//DTD SVG 1.1//EN"
 "http://www.w3.org/Graphics/SVG/1.1/DTD/svg11.dtd">
<!-- Generated by graphviz version 7.1.0 (20230121.1956)
 -->
<!-- Pages: 1 -->
<svg width="2722pt" height="1268pt"
 viewBox="0.00 0.00 2722.00 1268.00" xmlns="http://www.w3.org/2000/svg" xmlns:xlink="http://www.w3.org/1999/xlink">
<g id="graph0" class="graph" transform="scale(1 1) rotate(0) translate(4 1264)">
<polygon fill="white" stroke="none" points="-4,4 -4,-1264 2718,-1264 2718,4 -4,4"/>
<!-- AmirQuincyTrick1 begins. -->
<g id="node1" class="node">
<title>AmirQuincyTrick1 begins.</title>
<ellipse fill="none" stroke="orange" cx="2015" cy="-1242" rx="107.48" ry="18"/>
<text text-anchor="middle" x="2015" y="-1238.3" font-family="Times New Roman,serif" font-size="14.00">AmirQuincyTrick1 begins.</text>
</g>
<!-- j63349521 -->
<g id="node2" class="node">
<title>j63349521</title>
<polygon fill="none" stroke="red" points="2035.5,-1188 1896.5,-1188 1896.5,-1152 2035.5,-1152 2035.5,-1188"/>
<text text-anchor="middle" x="1966" y="-1166.3" font-family="Times New Roman,serif" font-size="14.00">Агов, Аміре, ти тут?</text>
</g>
<!-- AmirQuincyTrick1 begins.&#45;&gt;j63349521 -->
<g id="edge1" class="edge">
<title>AmirQuincyTrick1 begins.&#45;&gt;j63349521</title>
<path fill="none" stroke="black" d="M2002.89,-1223.7C1997.31,-1215.73 1990.57,-1206.1 1984.38,-1197.26"/>
<polygon fill="black" stroke="black" points="1987.44,-1195.53 1978.84,-1189.34 1981.71,-1199.54 1987.44,-1195.53"/>
</g>
<!-- j704229613 -->
<g id="node3" class="node">
<title>j704229613</title>
<polygon fill="none" stroke="red" points="2408.5,-1116 2311.5,-1116 2311.5,-1080 2408.5,-1080 2408.5,-1116"/>
<text text-anchor="middle" x="2360" y="-1094.3" font-family="Times New Roman,serif" font-size="14.00">[Не зважати.]</text>
</g>
<!-- AmirQuincyTrick1 begins.&#45;&gt;j704229613 -->
<g id="edge2" class="edge">
<title>AmirQuincyTrick1 begins.&#45;&gt;j704229613</title>
<path fill="none" stroke="black" d="M2054.24,-1224.85C2116.39,-1199.27 2237.57,-1149.39 2307.26,-1120.71"/>
<polygon fill="black" stroke="black" points="2308.25,-1124.08 2316.17,-1117.04 2305.59,-1117.61 2308.25,-1124.08"/>
</g>
<!-- j735858306 -->
<g id="node4" class="node">
<title>j735858306</title>
<polygon fill="none" stroke="blue" points="2020,-1116 1868,-1116 1868,-1080 2020,-1080 2020,-1116"/>
<text text-anchor="middle" x="1944" y="-1094.3" font-family="Times New Roman,serif" font-size="14.00">яквоно, дружаньо?!?!!</text>
</g>
<!-- j63349521&#45;&gt;j735858306 -->
<g id="edge3" class="edge">
<title>j63349521&#45;&gt;j735858306</title>
<path fill="none" stroke="black" d="M1960.56,-1151.7C1958.22,-1144.24 1955.42,-1135.32 1952.79,-1126.97"/>
<polygon fill="black" stroke="black" points="1956.17,-1126.04 1949.83,-1117.55 1949.49,-1128.14 1956.17,-1126.04"/>
</g>
<!-- Chat ends. -->
<g id="node5" class="node">
<title>Chat ends.</title>
<ellipse fill="none" stroke="orange" cx="2490" cy="-18" rx="50.09" ry="18"/>
<text text-anchor="middle" x="2490" y="-14.3" font-family="Times New Roman,serif" font-size="14.00">Chat ends.</text>
</g>
<!-- j704229613&#45;&gt;Chat ends. -->
<g id="edge4" class="edge">
<title>j704229613&#45;&gt;Chat ends.</title>
<path fill="none" stroke="black" d="M2408.85,-1088.02C2505.96,-1068.78 2714,-1019.98 2714,-955 2714,-955 2714,-955 2714,-161 2714,-81.46 2611.99,-44.6 2545.65,-29.05"/>
<polygon fill="black" stroke="black" points="2546.52,-25.66 2536,-26.89 2544.99,-32.49 2546.52,-25.66"/>
</g>
<!-- j318727657 -->
<g id="node6" class="node">
<title>j318727657</title>
<polygon fill="none" stroke="red" points="1625.5,-1044 1562.5,-1044 1562.5,-1008 1625.5,-1008 1625.5,-1044"/>
<text text-anchor="middle" x="1594" y="-1022.3" font-family="Times New Roman,serif" font-size="14.00">Рототи.</text>
</g>
<!-- j735858306&#45;&gt;j318727657 -->
<g id="edge5" class="edge">
<title>j735858306&#45;&gt;j318727657</title>
<path fill="none" stroke="black" d="M1867.62,-1081.72C1796.87,-1067.57 1694.18,-1047.04 1636.83,-1035.57"/>
<polygon fill="black" stroke="black" points="1637.63,-1032.16 1627.14,-1033.63 1636.26,-1039.02 1637.63,-1032.16"/>
</g>
<!-- j2344613322 -->
<g id="node7" class="node">
<title>j2344613322</title>
<polygon fill="none" stroke="red" points="2098,-1044 1790,-1044 1790,-1008 2098,-1008 2098,-1044"/>
<text text-anchor="middle" x="1944" y="-1022.3" font-family="Times New Roman,serif" font-size="14.00">Значить… Квінсі хоче тебе розіграти, а я вабик.</text>
</g>
<!-- j735858306&#45;&gt;j2344613322 -->
<g id="edge6" class="edge">
<title>j735858306&#45;&gt;j2344613322</title>
<path fill="none" stroke="black" d="M1944,-1079.7C1944,-1072.41 1944,-1063.73 1944,-1055.54"/>
<polygon fill="black" stroke="black" points="1947.5,-1055.62 1944,-1045.62 1940.5,-1055.62 1947.5,-1055.62"/>
</g>
<!-- j3004829611 -->
<g id="node8" class="node">
<title>j3004829611</title>
<polygon fill="none" stroke="blue" points="1632,-972 940,-972 940,-936 1632,-936 1632,-972"/>
<text text-anchor="middle" x="1286" y="-950.3" font-family="Times New Roman,serif" font-size="14.00">РОБОТИРОБОТИРОБОТИРОБОТИРОБОТИРОБОТИРОБОТИРОБОТИРОБОТИРОБОТИРОБОТИРОБОТИ</text>
</g>
<!-- j318727657&#45;&gt;j3004829611 -->
<g id="edge7" class="edge">
<title>j318727657&#45;&gt;j3004829611</title>
<path fill="none" stroke="black" d="M1562.2,-1017.77C1518.19,-1007.77 1437.04,-989.33 1374.04,-975.01"/>
<polygon fill="black" stroke="black" points="1374.9,-971.62 1364.37,-972.81 1373.35,-978.44 1374.9,-971.62"/>
</g>
<!-- j2548748761 -->
<g id="node9" class="node">
<title>j2548748761</title>
<polygon fill="none" stroke="blue" points="2076.5,-972 1811.5,-972 1811.5,-936 2076.5,-936 2076.5,-972"/>
<text text-anchor="middle" x="1944" y="-950.3" font-family="Times New Roman,serif" font-size="14.00">га?!?! розіграш? це як?.. який розіграш?..</text>
</g>
<!-- j2344613322&#45;&gt;j2548748761 -->
<g id="edge8" class="edge">
<title>j2344613322&#45;&gt;j2548748761</title>
<path fill="none" stroke="black" d="M1944,-1007.7C1944,-1000.41 1944,-991.73 1944,-983.54"/>
<polygon fill="black" stroke="black" points="1947.5,-983.62 1944,-973.62 1940.5,-983.62 1947.5,-983.62"/>
</g>
<!-- j1756818445 -->
<g id="node10" class="node">
<title>j1756818445</title>
<polygon fill="none" stroke="blue" points="1455.5,-900 954.5,-900 954.5,-864 1455.5,-864 1455.5,-900"/>
<text text-anchor="middle" x="1205" y="-878.3" font-family="Times New Roman,serif" font-size="14.00">::cough:: тобто… таак??? що там з тими роботами про які ти хочеш поговорити?</text>
</g>
<!-- j3004829611&#45;&gt;j1756818445 -->
<g id="edge9" class="edge">
<title>j3004829611&#45;&gt;j1756818445</title>
<path fill="none" stroke="black" d="M1265.98,-935.7C1256.24,-927.28 1244.36,-917.02 1233.69,-907.79"/>
<polygon fill="black" stroke="black" points="1236.07,-905.23 1226.22,-901.34 1231.5,-910.52 1236.07,-905.23"/>
</g>
<!-- j2679383110 -->
<g id="node11" class="node">
<title>j2679383110</title>
<polygon fill="none" stroke="red" points="1943.5,-900 1632.5,-900 1632.5,-864 1943.5,-864 1943.5,-900"/>
<text text-anchor="middle" x="1788" y="-878.3" font-family="Times New Roman,serif" font-size="14.00">Він наповнює твою кімнату пакетами з арахісом.</text>
</g>
<!-- j2548748761&#45;&gt;j2679383110 -->
<g id="edge10" class="edge">
<title>j2548748761&#45;&gt;j2679383110</title>
<path fill="none" stroke="black" d="M1905.04,-935.52C1884.48,-926.29 1859.06,-914.89 1837.17,-905.06"/>
<polygon fill="black" stroke="black" points="1838.67,-901.9 1828.12,-901 1835.81,-908.29 1838.67,-901.9"/>
</g>
<!-- j2169237674 -->
<g id="node12" class="node">
<title>j2169237674</title>
<polygon fill="none" stroke="red" points="2438,-900 2094,-900 2094,-864 2438,-864 2438,-900"/>
<text text-anchor="middle" x="2266" y="-878.3" font-family="Times New Roman,serif" font-size="14.00">Чесно? Я думаю, що це він так виявляє свою турботу.</text>
</g>
<!-- j2548748761&#45;&gt;j2169237674 -->
<g id="edge11" class="edge">
<title>j2548748761&#45;&gt;j2169237674</title>
<path fill="none" stroke="black" d="M2024.42,-935.52C2070.04,-925.6 2127.28,-913.16 2174.59,-902.87"/>
<polygon fill="black" stroke="black" points="2175.26,-906.31 2184.29,-900.76 2173.77,-899.47 2175.26,-906.31"/>
</g>
<!-- j2954183950 -->
<g id="node13" class="node">
<title>j2954183950</title>
<polygon fill="none" stroke="red" points="1051.5,-828 694.5,-828 694.5,-792 1051.5,-792 1051.5,-828"/>
<text text-anchor="middle" x="873" y="-806.3" font-family="Times New Roman,serif" font-size="14.00">Ти вже чув про велетенських роботів&#45;павуків на Венері?</text>
</g>
<!-- j1756818445&#45;&gt;j2954183950 -->
<g id="edge12" class="edge">
<title>j1756818445&#45;&gt;j2954183950</title>
<path fill="none" stroke="black" d="M1122.08,-863.52C1074.95,-853.58 1015.78,-841.1 966.94,-830.81"/>
<polygon fill="black" stroke="black" points="967.71,-827.39 957.21,-828.75 966.27,-834.24 967.71,-827.39"/>
</g>
<!-- j4188461717 -->
<g id="node14" class="node">
<title>j4188461717</title>
<polygon fill="none" stroke="red" points="1305.5,-828 1104.5,-828 1104.5,-792 1305.5,-792 1305.5,-828"/>
<text text-anchor="middle" x="1205" y="-806.3" font-family="Times New Roman,serif" font-size="14.00">Ти вже чув про робогончаків?</text>
</g>
<!-- j1756818445&#45;&gt;j4188461717 -->
<g id="edge13" class="edge">
<title>j1756818445&#45;&gt;j4188461717</title>
<path fill="none" stroke="black" d="M1205,-863.7C1205,-856.41 1205,-847.73 1205,-839.54"/>
<polygon fill="black" stroke="black" points="1208.5,-839.62 1205,-829.62 1201.5,-839.62 1208.5,-839.62"/>
</g>
<!-- j2963308860 -->
<g id="node15" class="node">
<title>j2963308860</title>
<polygon fill="none" stroke="blue" points="1990,-828 1324,-828 1324,-792 1990,-792 1990,-828"/>
<text text-anchor="middle" x="1657" y="-806.3" font-family="Times New Roman,serif" font-size="14.00">ваааааааааууууу!! ніхто про мене ніколи так не турбувався й не заповнював кімнату пакунками з арахісом!!!</text>
</g>
<!-- j2679383110&#45;&gt;j2963308860 -->
<g id="edge14" class="edge">
<title>j2679383110&#45;&gt;j2963308860</title>
<path fill="none" stroke="black" d="M1755.28,-863.52C1738.35,-854.47 1717.48,-843.32 1699.34,-833.62"/>
<polygon fill="black" stroke="black" points="1701.11,-830.6 1690.64,-828.97 1697.81,-836.77 1701.11,-830.6"/>
</g>
<!-- j1175956611 -->
<g id="node16" class="node">
<title>j1175956611</title>
<polygon fill="none" stroke="blue" points="2685.5,-828 2008.5,-828 2008.5,-792 2685.5,-792 2685.5,-828"/>
<text text-anchor="middle" x="2347" y="-806.3" font-family="Times New Roman,serif" font-size="14.00">ооооооооооо… це так мило з його боку!!! я нікому раніше не подобався настільки щоби мене розігрували!!!</text>
</g>
<!-- j2169237674&#45;&gt;j1175956611 -->
<g id="edge15" class="edge">
<title>j2169237674&#45;&gt;j1175956611</title>
<path fill="none" stroke="black" d="M2286.02,-863.7C2295.76,-855.28 2307.64,-845.02 2318.31,-835.79"/>
<polygon fill="black" stroke="black" points="2320.5,-838.52 2325.78,-829.34 2315.93,-833.23 2320.5,-838.52"/>
</g>
<!-- j2962093627 -->
<g id="node17" class="node">
<title>j2962093627</title>
<polygon fill="none" stroke="blue" points="957,-756 649,-756 649,-720 957,-720 957,-756"/>
<text text-anchor="middle" x="803" y="-734.3" font-family="Times New Roman,serif" font-size="14.00">ГАДАЮ ЩО БАЧИВ ЦЕ В ЯКОМУСЬ ФІЛЬМІ</text>
</g>
<!-- j2954183950&#45;&gt;j2962093627 -->
<g id="edge16" class="edge">
<title>j2954183950&#45;&gt;j2962093627</title>
<path fill="none" stroke="black" d="M855.7,-791.7C847.39,-783.39 837.28,-773.28 828.14,-764.14"/>
<polygon fill="black" stroke="black" points="830.72,-761.77 821.17,-757.17 825.77,-766.72 830.72,-761.77"/>
</g>
<!-- j3703129977 -->
<g id="node18" class="node">
<title>j3703129977</title>
<polygon fill="none" stroke="blue" points="1543,-756 1317,-756 1317,-720 1543,-720 1543,-756"/>
<text text-anchor="middle" x="1430" y="-734.3" font-family="Times New Roman,serif" font-size="14.00">у. вас. є. РОБОТИЗОВАНІ. ПСИ?!</text>
</g>
<!-- j4188461717&#45;&gt;j3703129977 -->
<g id="edge17" class="edge">
<title>j4188461717&#45;&gt;j3703129977</title>
<path fill="none" stroke="black" d="M1261.2,-791.52C1292.19,-781.88 1330.86,-769.84 1363.36,-759.73"/>
<polygon fill="black" stroke="black" points="1364.18,-763.14 1372.69,-756.83 1362.1,-756.46 1364.18,-763.14"/>
</g>
<!-- j4057889058 -->
<g id="node19" class="node">
<title>j4057889058</title>
<polygon fill="none" stroke="blue" points="2685.5,-756 1846.5,-756 1846.5,-720 2685.5,-720 2685.5,-756"/>
<text text-anchor="middle" x="2266" y="-734.3" font-family="Times New Roman,serif" font-size="14.00">нууу я не видам те що я від тебе дізнався про те що він робить просто сидітиму й тут і вдаватиму що дуже зайнятий і пишу свою гру ха</text>
</g>
<!-- j2963308860&#45;&gt;j4057889058 -->
<g id="edge18" class="edge">
<title>j2963308860&#45;&gt;j4057889058</title>
<path fill="none" stroke="black" d="M1809.11,-791.52C1898.48,-781.24 2011.44,-768.26 2102.69,-757.77"/>
<polygon fill="black" stroke="black" points="2102.95,-761.26 2112.48,-756.65 2102.15,-754.31 2102.95,-761.26"/>
</g>
<!-- j1175956611&#45;&gt;j4057889058 -->
<g id="edge19" class="edge">
<title>j1175956611&#45;&gt;j4057889058</title>
<path fill="none" stroke="black" d="M2326.98,-791.7C2317.24,-783.28 2305.36,-773.02 2294.69,-763.79"/>
<polygon fill="black" stroke="black" points="2297.07,-761.23 2287.22,-757.34 2292.5,-766.52 2297.07,-761.23"/>
</g>
<!-- j3537532923 -->
<g id="node20" class="node">
<title>j3537532923</title>
<polygon fill="none" stroke="blue" points="1036,-684 356,-684 356,-648 1036,-648 1036,-684"/>
<text text-anchor="middle" x="696" y="-662.3" font-family="Times New Roman,serif" font-size="14.00">але це був не науковофантастичний фільм а про ковбоїв і трохи такийсобі але чесно мені наче й сподобалося</text>
</g>
<!-- j2962093627&#45;&gt;j3537532923 -->
<g id="edge20" class="edge">
<title>j2962093627&#45;&gt;j3537532923</title>
<path fill="none" stroke="black" d="M776.28,-719.52C762.77,-710.68 746.19,-699.84 731.62,-690.3"/>
<polygon fill="black" stroke="black" points="733.94,-687.63 723.65,-685.09 730.1,-693.49 733.94,-687.63"/>
</g>
<!-- j549532275 -->
<g id="node21" class="node">
<title>j549532275</title>
<polygon fill="none" stroke="blue" points="2255.5,-684 1054.5,-684 1054.5,-648 2255.5,-648 2255.5,-684"/>
<text text-anchor="middle" x="1655" y="-662.3" font-family="Times New Roman,serif" font-size="14.00">я несподівано усвідомив що в моєму житті з’явилася нова мета. я хочу мати робопса. і назву його тягай. або мотлох. або чип. ЧИП!! ЧИП НАЙЛІПШЕ ІМ’Я ДЛЯ РОБОТИЗОВАНОГО СОБАКИ</text>
</g>
<!-- j3703129977&#45;&gt;j549532275 -->
<g id="edge21" class="edge">
<title>j3703129977&#45;&gt;j549532275</title>
<path fill="none" stroke="black" d="M1486.2,-719.52C1517.19,-709.88 1555.86,-697.84 1588.36,-687.73"/>
<polygon fill="black" stroke="black" points="1589.18,-691.14 1597.69,-684.83 1587.1,-684.46 1589.18,-691.14"/>
</g>
<!-- j155460745 -->
<g id="node22" class="node">
<title>j155460745</title>
<ellipse fill="none" stroke="orange" cx="2338" cy="-666" rx="64.19" ry="18"/>
<text text-anchor="middle" x="2338" y="-662.3" font-family="Times New Roman,serif" font-size="14.00">+20 Chemistry</text>
</g>
<!-- j4057889058&#45;&gt;j155460745 -->
<g id="edge22" class="edge">
<title>j4057889058&#45;&gt;j155460745</title>
<path fill="none" stroke="black" d="M2283.8,-719.7C2292.56,-711.18 2303.27,-700.76 2312.85,-691.45"/>
<polygon fill="black" stroke="black" points="2315.09,-694.16 2319.82,-684.68 2310.21,-689.14 2315.09,-694.16"/>
</g>
<!-- j483614600 -->
<g id="node23" class="node">
<title>j483614600</title>
<polygon fill="none" stroke="blue" points="1418,-612 0,-612 0,-576 1418,-576 1418,-612"/>
<text text-anchor="middle" x="709" y="-590.3" font-family="Times New Roman,serif" font-size="14.00">ну тобто я знаю чим те кіно намагалося *бути*. воно не сприймалося занадто серйозно розумієш? ну чим могло зачепити кіно про ковбоїв в якому є велетенський робопавук і яке намагається подати себе як високе мистецтто хаха</text>
</g>
<!-- j3537532923&#45;&gt;j483614600 -->
<g id="edge23" class="edge">
<title>j3537532923&#45;&gt;j483614600</title>
<path fill="none" stroke="black" d="M699.21,-647.7C700.58,-640.32 702.22,-631.52 703.75,-623.25"/>
<polygon fill="black" stroke="black" points="707.16,-624.06 705.55,-613.59 700.28,-622.79 707.16,-624.06"/>
</g>
<!-- j2361376865 -->
<g id="node24" class="node">
<title>j2361376865</title>
<polygon fill="none" stroke="blue" points="1860,-612 1450,-612 1450,-576 1860,-576 1860,-612"/>
<text text-anchor="middle" x="1655" y="-590.3" font-family="Times New Roman,serif" font-size="14.00">І Я ТЕБЕ БЛЯХА КОПНУ ЯКЩО ТИ СКАЖЕШ ЩОСЬ ПРОТИ</text>
</g>
<!-- j549532275&#45;&gt;j2361376865 -->
<g id="edge24" class="edge">
<title>j549532275&#45;&gt;j2361376865</title>
<path fill="none" stroke="black" d="M1655,-647.7C1655,-640.41 1655,-631.73 1655,-623.54"/>
<polygon fill="black" stroke="black" points="1658.5,-623.62 1655,-613.62 1651.5,-623.62 1658.5,-623.62"/>
</g>
<!-- j3159576813 -->
<g id="node25" class="node">
<title>j3159576813</title>
<polygon fill="none" stroke="blue" points="2607.5,-396 2068.5,-396 2068.5,-360 2607.5,-360 2607.5,-396"/>
<text text-anchor="middle" x="2338" y="-374.3" font-family="Times New Roman,serif" font-size="14.00">хіхіхі сподіваюся він усвідомлює звичайно… ЩО ЦЕЕЕЕ ! значить… ВІЙНААААА!!!!</text>
</g>
<!-- j155460745&#45;&gt;j3159576813 -->
<g id="edge25" class="edge">
<title>j155460745&#45;&gt;j3159576813</title>
<path fill="none" stroke="black" d="M2338,-647.54C2338,-599.76 2338,-466.51 2338,-407.61"/>
<polygon fill="black" stroke="black" points="2341.5,-407.75 2338,-397.75 2334.5,-407.75 2341.5,-407.75"/>
</g>
<!-- j1725613724 -->
<g id="node26" class="node">
<title>j1725613724</title>
<polygon fill="none" stroke="blue" points="1269,-540 213,-540 213,-504 1269,-504 1269,-540"/>
<text text-anchor="middle" x="741" y="-518.3" font-family="Times New Roman,serif" font-size="14.00">не те щоби цей фільм стосувався тебе ні якраз ні але точно там був велетенський роботичний павук а ще я впевнений що ті про які ти говориш набагааааато технологічніші</text>
</g>
<!-- j483614600&#45;&gt;j1725613724 -->
<g id="edge26" class="edge">
<title>j483614600&#45;&gt;j1725613724</title>
<path fill="none" stroke="black" d="M716.91,-575.7C720.4,-568.07 724.58,-558.92 728.48,-550.4"/>
<polygon fill="black" stroke="black" points="731.58,-552.03 732.55,-541.48 725.21,-549.12 731.58,-552.03"/>
</g>
<!-- j3473501049 -->
<g id="node27" class="node">
<title>j3473501049</title>
<polygon fill="none" stroke="blue" points="1991,-540 1319,-540 1319,-504 1991,-504 1991,-540"/>
<text text-anchor="middle" x="1655" y="-518.3" font-family="Times New Roman,serif" font-size="14.00">розумієш… «чип» робопес… ну як комп’ютер у них є чипи всередині… у ваші часи є чипи в комп’ютерах?</text>
</g>
<!-- j2361376865&#45;&gt;j3473501049 -->
<g id="edge27" class="edge">
<title>j2361376865&#45;&gt;j3473501049</title>
<path fill="none" stroke="black" d="M1655,-575.7C1655,-568.41 1655,-559.73 1655,-551.54"/>
<polygon fill="black" stroke="black" points="1658.5,-551.62 1655,-541.62 1651.5,-551.62 1658.5,-551.62"/>
</g>
<!-- Initiate conversation QuincyAmirTrick2 in QuincyDialogue_rom.dialogue -->
<g id="node28" class="node">
<title>Initiate conversation QuincyAmirTrick2 in QuincyDialogue_rom.dialogue</title>
<ellipse fill="none" stroke="orange" cx="2338" cy="-90" rx="275.65" ry="18"/>
<text text-anchor="middle" x="2338" y="-86.3" font-family="Times New Roman,serif" font-size="14.00">Initiate conversation QuincyAmirTrick2 in QuincyDialogue_rom.dialogue</text>
</g>
<!-- j3159576813&#45;&gt;Initiate conversation QuincyAmirTrick2 in QuincyDialogue_rom.dialogue -->
<g id="edge28" class="edge">
<title>j3159576813&#45;&gt;Initiate conversation QuincyAmirTrick2 in QuincyDialogue_rom.dialogue</title>
<path fill="none" stroke="black" d="M2338,-359.54C2338,-311.76 2338,-178.51 2338,-119.61"/>
<polygon fill="black" stroke="black" points="2341.5,-119.75 2338,-109.75 2334.5,-119.75 2341.5,-119.75"/>
</g>
<!-- j2624053571 -->
<g id="node29" class="node">
<title>j2624053571</title>
<polygon fill="none" stroke="blue" points="1109,-468 923,-468 923,-432 1109,-432 1109,-468"/>
<text text-anchor="middle" x="1016" y="-446.3" font-family="Times New Roman,serif" font-size="14.00">перепрошую. то про що ти?</text>
</g>
<!-- j1725613724&#45;&gt;j2624053571 -->
<g id="edge29" class="edge">
<title>j1725613724&#45;&gt;j2624053571</title>
<path fill="none" stroke="black" d="M809.68,-503.52C848.22,-493.71 896.47,-481.43 936.62,-471.21"/>
<polygon fill="black" stroke="black" points="937.42,-474.61 946.25,-468.76 935.69,-467.83 937.42,-474.61"/>
</g>
<!-- j3019119751 -->
<g id="node30" class="node">
<title>j3019119751</title>
<polygon fill="none" stroke="blue" points="1909,-468 1401,-468 1401,-432 1909,-432 1909,-468"/>
<text text-anchor="middle" x="1655" y="-446.3" font-family="Times New Roman,serif" font-size="14.00">чи вони збудовані на дивній органіці й прото&#45;м’ясній&#45;порожнечно&#45;хтойогозна…</text>
</g>
<!-- j3473501049&#45;&gt;j3019119751 -->
<g id="edge30" class="edge">
<title>j3473501049&#45;&gt;j3019119751</title>
<path fill="none" stroke="black" d="M1655,-503.7C1655,-496.41 1655,-487.73 1655,-479.54"/>
<polygon fill="black" stroke="black" points="1658.5,-479.62 1655,-469.62 1651.5,-479.62 1658.5,-479.62"/>
</g>
<!-- Initiate conversation QuincyAmirTrick2 in QuincyDialogue_rom.dialogue&#45;&gt;Chat ends. -->
<g id="edge31" class="edge">
<title>Initiate conversation QuincyAmirTrick2 in QuincyDialogue_rom.dialogue&#45;&gt;Chat ends.</title>
<path fill="none" stroke="black" d="M2375.57,-71.7C2398.04,-61.35 2426.58,-48.21 2449.54,-37.63"/>
<polygon fill="black" stroke="black" points="2450.99,-40.82 2458.61,-33.46 2448.06,-34.46 2450.99,-40.82"/>
</g>
<!-- j2506877775 -->
<g id="node31" class="node">
<title>j2506877775</title>
<polygon fill="none" stroke="blue" points="1682,-396 1628,-396 1628,-360 1682,-360 1682,-396"/>
<text text-anchor="middle" x="1655" y="-374.3" font-family="Times New Roman,serif" font-size="14.00">зажди</text>
</g>
<!-- j2624053571&#45;&gt;j2506877775 -->
<g id="edge32" class="edge">
<title>j2624053571&#45;&gt;j2506877775</title>
<path fill="none" stroke="black" d="M1109.26,-438.78C1251.73,-423.18 1517.46,-394.07 1616.49,-383.22"/>
<polygon fill="black" stroke="black" points="1616.66,-386.72 1626.22,-382.15 1615.9,-379.76 1616.66,-386.72"/>
</g>
<!-- j3019119751&#45;&gt;j2506877775 -->
<g id="edge33" class="edge">
<title>j3019119751&#45;&gt;j2506877775</title>
<path fill="none" stroke="black" d="M1655,-431.7C1655,-424.41 1655,-415.73 1655,-407.54"/>
<polygon fill="black" stroke="black" points="1658.5,-407.62 1655,-397.62 1651.5,-407.62 1658.5,-407.62"/>
</g>
<!-- j1126261257 -->
<g id="node32" class="node">
<title>j1126261257</title>
<polygon fill="none" stroke="blue" points="2021,-324 1869,-324 1869,-288 2021,-288 2021,-324"/>
<text text-anchor="middle" x="1945" y="-302.3" font-family="Times New Roman,serif" font-size="14.00">пилосмок працює ні?..</text>
</g>
<!-- j2506877775&#45;&gt;j1126261257 -->
<g id="edge34" class="edge">
<title>j2506877775&#45;&gt;j1126261257</title>
<path fill="none" stroke="black" d="M1682.28,-370.41C1722.9,-360.61 1800.98,-341.76 1861.5,-327.15"/>
<polygon fill="black" stroke="black" points="1862.22,-330.58 1871.12,-324.83 1860.58,-323.78 1862.22,-330.58"/>
</g>
<!-- j498338970 -->
<g id="node33" class="node">
<title>j498338970</title>
<ellipse fill="none" stroke="orange" cx="2240" cy="-234" rx="64.19" ry="18"/>
<text text-anchor="middle" x="2240" y="-230.3" font-family="Times New Roman,serif" font-size="14.00">+20 Chemistry</text>
</g>
<!-- j1126261257&#45;&gt;j498338970 -->
<g id="edge35" class="edge">
<title>j1126261257&#45;&gt;j498338970</title>
<path fill="none" stroke="black" d="M2018.68,-287.52C2068.82,-275.62 2134.28,-260.09 2180.98,-249"/>
<polygon fill="black" stroke="black" points="2181.73,-252.42 2190.66,-246.71 2180.12,-245.61 2181.73,-252.42"/>
</g>
<!-- j2129055117 -->
<g id="node34" class="node">
<title>j2129055117</title>
<polygon fill="none" stroke="blue" points="2294.5,-180 2217.5,-180 2217.5,-144 2294.5,-144 2294.5,-180"/>
<text text-anchor="middle" x="2256" y="-158.3" font-family="Times New Roman,serif" font-size="14.00">заразбуду</text>
</g>
<!-- j498338970&#45;&gt;j2129055117 -->
<g id="edge36" class="edge">
<title>j498338970&#45;&gt;j2129055117</title>
<path fill="none" stroke="black" d="M2243.96,-215.7C2245.64,-208.32 2247.65,-199.52 2249.54,-191.25"/>
<polygon fill="black" stroke="black" points="2252.94,-192.11 2251.75,-181.58 2246.11,-190.55 2252.94,-192.11"/>
</g>
<!-- j2129055117&#45;&gt;Initiate conversation QuincyAmirTrick2 in QuincyDialogue_rom.dialogue -->
<g id="edge37" class="edge">
<title>j2129055117&#45;&gt;Initiate conversation QuincyAmirTrick2 in QuincyDialogue_rom.dialogue</title>
<path fill="none" stroke="black" d="M2276.27,-143.7C2286.13,-135.28 2298.15,-125.02 2308.96,-115.79"/>
<polygon fill="black" stroke="black" points="2311.19,-118.48 2316.53,-109.33 2306.65,-113.16 2311.19,-118.48"/>
</g>
</g>
</svg>
