<?xml version="1.0" encoding="UTF-8" standalone="no"?>
<!DOCTYPE svg PUBLIC "-//W3C//DTD SVG 1.1//EN"
 "http://www.w3.org/Graphics/SVG/1.1/DTD/svg11.dtd">
<!-- Generated by graphviz version 7.1.0 (20230121.1956)
 -->
<!-- Pages: 1 -->
<svg width="2721pt" height="1268pt"
 viewBox="0.00 0.00 2721.00 1268.00" xmlns="http://www.w3.org/2000/svg" xmlns:xlink="http://www.w3.org/1999/xlink">
<g id="graph0" class="graph" transform="scale(1 1) rotate(0) translate(4 1264)">
<polygon fill="white" stroke="none" points="-4,4 -4,-1264 2717,-1264 2717,4 -4,4"/>
<!-- AmirQuincyTrick1 begins. -->
<g id="node1" class="node">
<title>AmirQuincyTrick1 begins.</title>
<ellipse fill="none" stroke="orange" cx="2135" cy="-1242" rx="107.48" ry="18"/>
<text text-anchor="middle" x="2135" y="-1238.3" font-family="Times New Roman,serif" font-size="14.00">AmirQuincyTrick1 begins.</text>
</g>
<!-- j3098988932 -->
<g id="node2" class="node">
<title>j3098988932</title>
<polygon fill="none" stroke="red" points="2155.5,-1188 2016.5,-1188 2016.5,-1152 2155.5,-1152 2155.5,-1188"/>
<text text-anchor="middle" x="2086" y="-1166.3" font-family="Times New Roman,serif" font-size="14.00">Агов, Аміре, ти тут?</text>
</g>
<!-- AmirQuincyTrick1 begins.&#45;&gt;j3098988932 -->
<g id="edge1" class="edge">
<title>AmirQuincyTrick1 begins.&#45;&gt;j3098988932</title>
<path fill="none" stroke="black" d="M2122.89,-1223.7C2117.31,-1215.73 2110.57,-1206.1 2104.38,-1197.26"/>
<polygon fill="black" stroke="black" points="2107.44,-1195.53 2098.84,-1189.34 2101.71,-1199.54 2107.44,-1195.53"/>
</g>
<!-- j2787749540 -->
<g id="node3" class="node">
<title>j2787749540</title>
<polygon fill="none" stroke="red" points="2461.5,-1116 2364.5,-1116 2364.5,-1080 2461.5,-1080 2461.5,-1116"/>
<text text-anchor="middle" x="2413" y="-1094.3" font-family="Times New Roman,serif" font-size="14.00">[Не зважати.]</text>
</g>
<!-- AmirQuincyTrick1 begins.&#45;&gt;j2787749540 -->
<g id="edge2" class="edge">
<title>AmirQuincyTrick1 begins.&#45;&gt;j2787749540</title>
<path fill="none" stroke="black" d="M2167.43,-1224.43C2217.32,-1198.95 2312.99,-1150.09 2369.05,-1121.45"/>
<polygon fill="black" stroke="black" points="2370.38,-1124.7 2377.69,-1117.03 2367.19,-1118.47 2370.38,-1124.7"/>
</g>
<!-- j925028478 -->
<g id="node4" class="node">
<title>j925028478</title>
<polygon fill="none" stroke="blue" points="2140,-1116 1988,-1116 1988,-1080 2140,-1080 2140,-1116"/>
<text text-anchor="middle" x="2064" y="-1094.3" font-family="Times New Roman,serif" font-size="14.00">яквоно, дружаньо?!?!!</text>
</g>
<!-- j3098988932&#45;&gt;j925028478 -->
<g id="edge3" class="edge">
<title>j3098988932&#45;&gt;j925028478</title>
<path fill="none" stroke="black" d="M2080.56,-1151.7C2078.22,-1144.24 2075.42,-1135.32 2072.79,-1126.97"/>
<polygon fill="black" stroke="black" points="2076.17,-1126.04 2069.83,-1117.55 2069.49,-1128.14 2076.17,-1126.04"/>
</g>
<!-- Chat ends. -->
<g id="node5" class="node">
<title>Chat ends.</title>
<ellipse fill="none" stroke="orange" cx="2489" cy="-18" rx="50.09" ry="18"/>
<text text-anchor="middle" x="2489" y="-14.3" font-family="Times New Roman,serif" font-size="14.00">Chat ends.</text>
</g>
<!-- j2787749540&#45;&gt;Chat ends. -->
<g id="edge4" class="edge">
<title>j2787749540&#45;&gt;Chat ends.</title>
<path fill="none" stroke="black" d="M2461.87,-1095.43C2546.88,-1089.8 2713,-1064.77 2713,-955 2713,-955 2713,-955 2713,-161 2713,-81.46 2610.99,-44.6 2544.65,-29.05"/>
<polygon fill="black" stroke="black" points="2545.52,-25.66 2535,-26.89 2543.99,-32.49 2545.52,-25.66"/>
</g>
<!-- j1551518154 -->
<g id="node6" class="node">
<title>j1551518154</title>
<polygon fill="none" stroke="red" points="1745.5,-1044 1682.5,-1044 1682.5,-1008 1745.5,-1008 1745.5,-1044"/>
<text text-anchor="middle" x="1714" y="-1022.3" font-family="Times New Roman,serif" font-size="14.00">Рототи.</text>
</g>
<!-- j925028478&#45;&gt;j1551518154 -->
<g id="edge5" class="edge">
<title>j925028478&#45;&gt;j1551518154</title>
<path fill="none" stroke="black" d="M1987.62,-1081.72C1916.87,-1067.57 1814.18,-1047.04 1756.83,-1035.57"/>
<polygon fill="black" stroke="black" points="1757.63,-1032.16 1747.14,-1033.63 1756.26,-1039.02 1757.63,-1032.16"/>
</g>
<!-- j3380936415 -->
<g id="node7" class="node">
<title>j3380936415</title>
<polygon fill="none" stroke="red" points="2218,-1044 1910,-1044 1910,-1008 2218,-1008 2218,-1044"/>
<text text-anchor="middle" x="2064" y="-1022.3" font-family="Times New Roman,serif" font-size="14.00">Значить… Квінсі хоче тебе розіграти, а я вабик.</text>
</g>
<!-- j925028478&#45;&gt;j3380936415 -->
<g id="edge6" class="edge">
<title>j925028478&#45;&gt;j3380936415</title>
<path fill="none" stroke="black" d="M2064,-1079.7C2064,-1072.41 2064,-1063.73 2064,-1055.54"/>
<polygon fill="black" stroke="black" points="2067.5,-1055.62 2064,-1045.62 2060.5,-1055.62 2067.5,-1055.62"/>
</g>
<!-- j3908180550 -->
<g id="node8" class="node">
<title>j3908180550</title>
<polygon fill="none" stroke="blue" points="1725,-972 1033,-972 1033,-936 1725,-936 1725,-972"/>
<text text-anchor="middle" x="1379" y="-950.3" font-family="Times New Roman,serif" font-size="14.00">РОБОТИРОБОТИРОБОТИРОБОТИРОБОТИРОБОТИРОБОТИРОБОТИРОБОТИРОБОТИРОБОТИРОБОТИ</text>
</g>
<!-- j1551518154&#45;&gt;j3908180550 -->
<g id="edge7" class="edge">
<title>j1551518154&#45;&gt;j3908180550</title>
<path fill="none" stroke="black" d="M1682.18,-1018.35C1634.74,-1008.44 1543.55,-989.38 1473.52,-974.75"/>
<polygon fill="black" stroke="black" points="1474.46,-971.37 1463.95,-972.75 1473.03,-978.22 1474.46,-971.37"/>
</g>
<!-- j2718104006 -->
<g id="node9" class="node">
<title>j2718104006</title>
<polygon fill="none" stroke="blue" points="2196.5,-972 1931.5,-972 1931.5,-936 2196.5,-936 2196.5,-972"/>
<text text-anchor="middle" x="2064" y="-950.3" font-family="Times New Roman,serif" font-size="14.00">га?!?! розіграш? це як?.. який розіграш?..</text>
</g>
<!-- j3380936415&#45;&gt;j2718104006 -->
<g id="edge8" class="edge">
<title>j3380936415&#45;&gt;j2718104006</title>
<path fill="none" stroke="black" d="M2064,-1007.7C2064,-1000.41 2064,-991.73 2064,-983.54"/>
<polygon fill="black" stroke="black" points="2067.5,-983.62 2064,-973.62 2060.5,-983.62 2067.5,-983.62"/>
</g>
<!-- j1090670043 -->
<g id="node10" class="node">
<title>j1090670043</title>
<polygon fill="none" stroke="blue" points="1534.5,-900 1033.5,-900 1033.5,-864 1534.5,-864 1534.5,-900"/>
<text text-anchor="middle" x="1284" y="-878.3" font-family="Times New Roman,serif" font-size="14.00">::cough:: тобто… таак??? що там з тими роботами про які ти хочеш поговорити?</text>
</g>
<!-- j3908180550&#45;&gt;j1090670043 -->
<g id="edge9" class="edge">
<title>j3908180550&#45;&gt;j1090670043</title>
<path fill="none" stroke="black" d="M1355.52,-935.7C1343.76,-927.03 1329.33,-916.4 1316.52,-906.96"/>
<polygon fill="black" stroke="black" points="1318.89,-904.36 1308.76,-901.24 1314.74,-909.99 1318.89,-904.36"/>
</g>
<!-- j740049765 -->
<g id="node11" class="node">
<title>j740049765</title>
<polygon fill="none" stroke="red" points="1992.5,-900 1621.5,-900 1621.5,-864 1992.5,-864 1992.5,-900"/>
<text text-anchor="middle" x="1807" y="-878.3" font-family="Times New Roman,serif" font-size="14.00">Він заповнює твою кімнату біорозкладним наповнювачем.</text>
</g>
<!-- j2718104006&#45;&gt;j740049765 -->
<g id="edge10" class="edge">
<title>j2718104006&#45;&gt;j740049765</title>
<path fill="none" stroke="black" d="M1999.81,-935.52C1963.95,-925.75 1919.09,-913.53 1881.67,-903.34"/>
<polygon fill="black" stroke="black" points="1882.84,-900.03 1872.28,-900.78 1881,-906.78 1882.84,-900.03"/>
</g>
<!-- j566196300 -->
<g id="node12" class="node">
<title>j566196300</title>
<polygon fill="none" stroke="red" points="2424,-900 2080,-900 2080,-864 2424,-864 2424,-900"/>
<text text-anchor="middle" x="2252" y="-878.3" font-family="Times New Roman,serif" font-size="14.00">Чесно? Я думаю, що це він так виявляє свою турботу.</text>
</g>
<!-- j2718104006&#45;&gt;j566196300 -->
<g id="edge11" class="edge">
<title>j2718104006&#45;&gt;j566196300</title>
<path fill="none" stroke="black" d="M2110.96,-935.52C2136.29,-926.08 2167.76,-914.37 2194.54,-904.39"/>
<polygon fill="black" stroke="black" points="2195.75,-907.68 2203.9,-900.91 2193.31,-901.12 2195.75,-907.68"/>
</g>
<!-- j1014334802 -->
<g id="node13" class="node">
<title>j1014334802</title>
<polygon fill="none" stroke="red" points="1110.5,-828 753.5,-828 753.5,-792 1110.5,-792 1110.5,-828"/>
<text text-anchor="middle" x="932" y="-806.3" font-family="Times New Roman,serif" font-size="14.00">Ти вже чув про велетенських роботів&#45;павуків на Венері?</text>
</g>
<!-- j1090670043&#45;&gt;j1014334802 -->
<g id="edge12" class="edge">
<title>j1090670043&#45;&gt;j1014334802</title>
<path fill="none" stroke="black" d="M1196.08,-863.52C1145.9,-853.54 1082.86,-841 1030.95,-830.68"/>
<polygon fill="black" stroke="black" points="1031.69,-827.26 1021.19,-828.74 1030.32,-834.12 1031.69,-827.26"/>
</g>
<!-- j2513903691 -->
<g id="node14" class="node">
<title>j2513903691</title>
<polygon fill="none" stroke="red" points="1384.5,-828 1183.5,-828 1183.5,-792 1384.5,-792 1384.5,-828"/>
<text text-anchor="middle" x="1284" y="-806.3" font-family="Times New Roman,serif" font-size="14.00">Ти вже чув про робогончаків?</text>
</g>
<!-- j1090670043&#45;&gt;j2513903691 -->
<g id="edge13" class="edge">
<title>j1090670043&#45;&gt;j2513903691</title>
<path fill="none" stroke="black" d="M1284,-863.7C1284,-856.41 1284,-847.73 1284,-839.54"/>
<polygon fill="black" stroke="black" points="1287.5,-839.62 1284,-829.62 1280.5,-839.62 1287.5,-839.62"/>
</g>
<!-- j2239247746 -->
<g id="node15" class="node">
<title>j2239247746</title>
<polygon fill="none" stroke="blue" points="1989.5,-828 1402.5,-828 1402.5,-792 1989.5,-792 1989.5,-828"/>
<text text-anchor="middle" x="1696" y="-806.3" font-family="Times New Roman,serif" font-size="14.00">ваааааааааууууу!! ніхто про мене ніколи так не турбувався й не підкладав наповнювач раніше!!</text>
</g>
<!-- j740049765&#45;&gt;j2239247746 -->
<g id="edge14" class="edge">
<title>j740049765&#45;&gt;j2239247746</title>
<path fill="none" stroke="black" d="M1779.28,-863.52C1765.26,-854.68 1748.07,-843.84 1732.95,-834.3"/>
<polygon fill="black" stroke="black" points="1734.98,-831.44 1724.65,-829.07 1731.24,-837.36 1734.98,-831.44"/>
</g>
<!-- j1915096973 -->
<g id="node16" class="node">
<title>j1915096973</title>
<polygon fill="none" stroke="blue" points="2684.5,-828 2007.5,-828 2007.5,-792 2684.5,-792 2684.5,-828"/>
<text text-anchor="middle" x="2346" y="-806.3" font-family="Times New Roman,serif" font-size="14.00">ооооооооооо… це так мило з його боку!!! я нікому раніше не подобався настільки щоби мене розігрували!!!</text>
</g>
<!-- j566196300&#45;&gt;j1915096973 -->
<g id="edge15" class="edge">
<title>j566196300&#45;&gt;j1915096973</title>
<path fill="none" stroke="black" d="M2275.24,-863.7C2286.87,-855.03 2301.15,-844.4 2313.82,-834.96"/>
<polygon fill="black" stroke="black" points="2315.56,-838.03 2321.49,-829.25 2311.38,-832.42 2315.56,-838.03"/>
</g>
<!-- j399792355 -->
<g id="node17" class="node">
<title>j399792355</title>
<polygon fill="none" stroke="blue" points="977,-756 669,-756 669,-720 977,-720 977,-756"/>
<text text-anchor="middle" x="823" y="-734.3" font-family="Times New Roman,serif" font-size="14.00">ГАДАЮ ЩО БАЧИВ ЦЕ В ЯКОМУСЬ ФІЛЬМІ</text>
</g>
<!-- j1014334802&#45;&gt;j399792355 -->
<g id="edge16" class="edge">
<title>j1014334802&#45;&gt;j399792355</title>
<path fill="none" stroke="black" d="M904.78,-791.52C891.02,-782.68 874.13,-771.84 859.29,-762.3"/>
<polygon fill="black" stroke="black" points="861.46,-759.54 851.15,-757.08 857.67,-765.43 861.46,-759.54"/>
</g>
<!-- j4125648760 -->
<g id="node18" class="node">
<title>j4125648760</title>
<polygon fill="none" stroke="blue" points="1582,-756 1356,-756 1356,-720 1582,-720 1582,-756"/>
<text text-anchor="middle" x="1469" y="-734.3" font-family="Times New Roman,serif" font-size="14.00">у. вас. є. РОБОТИЗОВАНІ. ПСИ?!</text>
</g>
<!-- j2513903691&#45;&gt;j4125648760 -->
<g id="edge17" class="edge">
<title>j2513903691&#45;&gt;j4125648760</title>
<path fill="none" stroke="black" d="M1330.21,-791.52C1355.13,-782.08 1386.1,-770.37 1412.46,-760.39"/>
<polygon fill="black" stroke="black" points="1413.53,-763.73 1421.65,-756.92 1411.06,-757.18 1413.53,-763.73"/>
</g>
<!-- j1784124124 -->
<g id="node19" class="node">
<title>j1784124124</title>
<polygon fill="none" stroke="blue" points="2684.5,-756 1845.5,-756 1845.5,-720 2684.5,-720 2684.5,-756"/>
<text text-anchor="middle" x="2265" y="-734.3" font-family="Times New Roman,serif" font-size="14.00">нууу я не видам те що я від тебе дізнався про те що він робить просто сидітиму й тут і вдаватиму що дуже зайнятий і пишу свою гру ха</text>
</g>
<!-- j2239247746&#45;&gt;j1784124124 -->
<g id="edge18" class="edge">
<title>j2239247746&#45;&gt;j1784124124</title>
<path fill="none" stroke="black" d="M1838.11,-791.52C1921.44,-781.27 2026.72,-768.31 2111.87,-757.84"/>
<polygon fill="black" stroke="black" points="2112.22,-761.32 2121.72,-756.63 2111.36,-754.37 2112.22,-761.32"/>
</g>
<!-- j1915096973&#45;&gt;j1784124124 -->
<g id="edge19" class="edge">
<title>j1915096973&#45;&gt;j1784124124</title>
<path fill="none" stroke="black" d="M2325.98,-791.7C2316.24,-783.28 2304.36,-773.02 2293.69,-763.79"/>
<polygon fill="black" stroke="black" points="2296.07,-761.23 2286.22,-757.34 2291.5,-766.52 2296.07,-761.23"/>
</g>
<!-- j1718586305 -->
<g id="node20" class="node">
<title>j1718586305</title>
<polygon fill="none" stroke="blue" points="1036,-684 356,-684 356,-648 1036,-648 1036,-684"/>
<text text-anchor="middle" x="696" y="-662.3" font-family="Times New Roman,serif" font-size="14.00">але це був не науковофантастичний фільм а про ковбоїв і трохи такийсобі але чесно мені наче й сподобалося</text>
</g>
<!-- j399792355&#45;&gt;j1718586305 -->
<g id="edge20" class="edge">
<title>j399792355&#45;&gt;j1718586305</title>
<path fill="none" stroke="black" d="M791.28,-719.52C774.94,-710.51 754.83,-699.42 737.29,-689.76"/>
<polygon fill="black" stroke="black" points="739.09,-686.75 728.64,-684.99 735.71,-692.88 739.09,-686.75"/>
</g>
<!-- j2496652287 -->
<g id="node21" class="node">
<title>j2496652287</title>
<polygon fill="none" stroke="blue" points="2255.5,-684 1054.5,-684 1054.5,-648 2255.5,-648 2255.5,-684"/>
<text text-anchor="middle" x="1655" y="-662.3" font-family="Times New Roman,serif" font-size="14.00">я несподівано усвідомив що в моєму житті з’явилася нова мета. я хочу мати робопса. і назву його тягай. або мотлох. або чип. ЧИП!! ЧИП НАЙЛІПШЕ ІМ’Я ДЛЯ РОБОТИЗОВАНОГО СОБАКИ</text>
</g>
<!-- j4125648760&#45;&gt;j2496652287 -->
<g id="edge21" class="edge">
<title>j4125648760&#45;&gt;j2496652287</title>
<path fill="none" stroke="black" d="M1515.46,-719.52C1540.52,-710.08 1571.65,-698.37 1598.15,-688.39"/>
<polygon fill="black" stroke="black" points="1599.27,-691.71 1607.4,-684.91 1596.81,-685.16 1599.27,-691.71"/>
</g>
<!-- j2325658264 -->
<g id="node22" class="node">
<title>j2325658264</title>
<ellipse fill="none" stroke="orange" cx="2338" cy="-666" rx="64.19" ry="18"/>
<text text-anchor="middle" x="2338" y="-662.3" font-family="Times New Roman,serif" font-size="14.00">+20 Chemistry</text>
</g>
<!-- j1784124124&#45;&gt;j2325658264 -->
<g id="edge22" class="edge">
<title>j1784124124&#45;&gt;j2325658264</title>
<path fill="none" stroke="black" d="M2283.04,-719.7C2291.93,-711.18 2302.79,-700.76 2312.5,-691.45"/>
<polygon fill="black" stroke="black" points="2314.78,-694.12 2319.57,-684.67 2309.93,-689.06 2314.78,-694.12"/>
</g>
<!-- j3764056479 -->
<g id="node23" class="node">
<title>j3764056479</title>
<polygon fill="none" stroke="blue" points="1418,-612 0,-612 0,-576 1418,-576 1418,-612"/>
<text text-anchor="middle" x="709" y="-590.3" font-family="Times New Roman,serif" font-size="14.00">ну тобто я знаю чим те кіно намагалося *бути*. воно не сприймалося занадто серйозно розумієш? ну чим могло зачепити кіно про ковбоїв в якому є велетенський робопавук і яке намагається подати себе як високе мистецтто хаха</text>
</g>
<!-- j1718586305&#45;&gt;j3764056479 -->
<g id="edge23" class="edge">
<title>j1718586305&#45;&gt;j3764056479</title>
<path fill="none" stroke="black" d="M699.21,-647.7C700.58,-640.32 702.22,-631.52 703.75,-623.25"/>
<polygon fill="black" stroke="black" points="707.16,-624.06 705.55,-613.59 700.28,-622.79 707.16,-624.06"/>
</g>
<!-- j281969969 -->
<g id="node24" class="node">
<title>j281969969</title>
<polygon fill="none" stroke="blue" points="1860,-612 1450,-612 1450,-576 1860,-576 1860,-612"/>
<text text-anchor="middle" x="1655" y="-590.3" font-family="Times New Roman,serif" font-size="14.00">І Я ТЕБЕ БЛЯХА КОПНУ ЯКЩО ТИ СКАЖЕШ ЩОСЬ ПРОТИ</text>
</g>
<!-- j2496652287&#45;&gt;j281969969 -->
<g id="edge24" class="edge">
<title>j2496652287&#45;&gt;j281969969</title>
<path fill="none" stroke="black" d="M1655,-647.7C1655,-640.41 1655,-631.73 1655,-623.54"/>
<polygon fill="black" stroke="black" points="1658.5,-623.62 1655,-613.62 1651.5,-623.62 1658.5,-623.62"/>
</g>
<!-- j3447139595 -->
<g id="node25" class="node">
<title>j3447139595</title>
<polygon fill="none" stroke="blue" points="2607.5,-396 2068.5,-396 2068.5,-360 2607.5,-360 2607.5,-396"/>
<text text-anchor="middle" x="2338" y="-374.3" font-family="Times New Roman,serif" font-size="14.00">хіхіхі сподіваюся він усвідомлює звичайно… ЩО ЦЕЕЕЕ ! значить… ВІЙНААААА!!!!</text>
</g>
<!-- j2325658264&#45;&gt;j3447139595 -->
<g id="edge25" class="edge">
<title>j2325658264&#45;&gt;j3447139595</title>
<path fill="none" stroke="black" d="M2338,-647.54C2338,-599.76 2338,-466.51 2338,-407.61"/>
<polygon fill="black" stroke="black" points="2341.5,-407.75 2338,-397.75 2334.5,-407.75 2341.5,-407.75"/>
</g>
<!-- j300207978 -->
<g id="node26" class="node">
<title>j300207978</title>
<polygon fill="none" stroke="blue" points="1269,-540 213,-540 213,-504 1269,-504 1269,-540"/>
<text text-anchor="middle" x="741" y="-518.3" font-family="Times New Roman,serif" font-size="14.00">не те щоби цей фільм стосувався тебе ні якраз ні але точно там був велетенський роботичний павук а ще я впевнений що ті про які ти говориш набагааааато технологічніші</text>
</g>
<!-- j3764056479&#45;&gt;j300207978 -->
<g id="edge26" class="edge">
<title>j3764056479&#45;&gt;j300207978</title>
<path fill="none" stroke="black" d="M716.91,-575.7C720.4,-568.07 724.58,-558.92 728.48,-550.4"/>
<polygon fill="black" stroke="black" points="731.58,-552.03 732.55,-541.48 725.21,-549.12 731.58,-552.03"/>
</g>
<!-- j2272985959 -->
<g id="node27" class="node">
<title>j2272985959</title>
<polygon fill="none" stroke="blue" points="1991,-540 1319,-540 1319,-504 1991,-504 1991,-540"/>
<text text-anchor="middle" x="1655" y="-518.3" font-family="Times New Roman,serif" font-size="14.00">розумієш… «чип» робопес… ну як комп’ютер у них є чипи всередині… у ваші часи є чипи в комп’ютерах?</text>
</g>
<!-- j281969969&#45;&gt;j2272985959 -->
<g id="edge27" class="edge">
<title>j281969969&#45;&gt;j2272985959</title>
<path fill="none" stroke="black" d="M1655,-575.7C1655,-568.41 1655,-559.73 1655,-551.54"/>
<polygon fill="black" stroke="black" points="1658.5,-551.62 1655,-541.62 1651.5,-551.62 1658.5,-551.62"/>
</g>
<!-- Initiate conversation QuincyAmirTrick2 in QuincyDialogue_rom.dialogue -->
<g id="node28" class="node">
<title>Initiate conversation QuincyAmirTrick2 in QuincyDialogue_rom.dialogue</title>
<ellipse fill="none" stroke="orange" cx="2338" cy="-90" rx="274.85" ry="18"/>
<text text-anchor="middle" x="2338" y="-86.3" font-family="Times New Roman,serif" font-size="14.00">Queue conversation QuincyAmirTrick2 in QuincyDialogue_rom.dialogue</text>
</g>
<!-- j3447139595&#45;&gt;Initiate conversation QuincyAmirTrick2 in QuincyDialogue_rom.dialogue -->
<g id="edge28" class="edge">
<title>j3447139595&#45;&gt;Initiate conversation QuincyAmirTrick2 in QuincyDialogue_rom.dialogue</title>
<path fill="none" stroke="black" d="M2338,-359.54C2338,-311.76 2338,-178.51 2338,-119.61"/>
<polygon fill="black" stroke="black" points="2341.5,-119.75 2338,-109.75 2334.5,-119.75 2341.5,-119.75"/>
</g>
<!-- j505630104 -->
<g id="node29" class="node">
<title>j505630104</title>
<polygon fill="none" stroke="blue" points="1109,-468 923,-468 923,-432 1109,-432 1109,-468"/>
<text text-anchor="middle" x="1016" y="-446.3" font-family="Times New Roman,serif" font-size="14.00">перепрошую. то про що ти?</text>
</g>
<!-- j300207978&#45;&gt;j505630104 -->
<g id="edge29" class="edge">
<title>j300207978&#45;&gt;j505630104</title>
<path fill="none" stroke="black" d="M809.68,-503.52C848.22,-493.71 896.47,-481.43 936.62,-471.21"/>
<polygon fill="black" stroke="black" points="937.42,-474.61 946.25,-468.76 935.69,-467.83 937.42,-474.61"/>
</g>
<!-- j3162958161 -->
<g id="node30" class="node">
<title>j3162958161</title>
<polygon fill="none" stroke="blue" points="1909,-468 1401,-468 1401,-432 1909,-432 1909,-468"/>
<text text-anchor="middle" x="1655" y="-446.3" font-family="Times New Roman,serif" font-size="14.00">чи вони збудовані на дивній органіці й прото&#45;м’ясній&#45;порожнечно&#45;хтойогозна…</text>
</g>
<!-- j2272985959&#45;&gt;j3162958161 -->
<g id="edge30" class="edge">
<title>j2272985959&#45;&gt;j3162958161</title>
<path fill="none" stroke="black" d="M1655,-503.7C1655,-496.41 1655,-487.73 1655,-479.54"/>
<polygon fill="black" stroke="black" points="1658.5,-479.62 1655,-469.62 1651.5,-479.62 1658.5,-479.62"/>
</g>
<!-- Initiate conversation QuincyAmirTrick2 in QuincyDialogue_rom.dialogue&#45;&gt;Chat ends. -->
<g id="edge31" class="edge">
<title>Initiate conversation QuincyAmirTrick2 in QuincyDialogue_rom.dialogue&#45;&gt;Chat ends.</title>
<path fill="none" stroke="black" d="M2375.33,-71.7C2397.64,-61.35 2426,-48.21 2448.81,-37.63"/>
<polygon fill="black" stroke="black" points="2450.2,-40.84 2457.81,-33.46 2447.26,-34.49 2450.2,-40.84"/>
</g>
<!-- j3350026894 -->
<g id="node31" class="node">
<title>j3350026894</title>
<polygon fill="none" stroke="blue" points="1682,-396 1628,-396 1628,-360 1682,-360 1682,-396"/>
<text text-anchor="middle" x="1655" y="-374.3" font-family="Times New Roman,serif" font-size="14.00">зажди</text>
</g>
<!-- j505630104&#45;&gt;j3350026894 -->
<g id="edge32" class="edge">
<title>j505630104&#45;&gt;j3350026894</title>
<path fill="none" stroke="black" d="M1109.26,-438.78C1251.73,-423.18 1517.46,-394.07 1616.49,-383.22"/>
<polygon fill="black" stroke="black" points="1616.66,-386.72 1626.22,-382.15 1615.9,-379.76 1616.66,-386.72"/>
</g>
<!-- j3162958161&#45;&gt;j3350026894 -->
<g id="edge33" class="edge">
<title>j3162958161&#45;&gt;j3350026894</title>
<path fill="none" stroke="black" d="M1655,-431.7C1655,-424.41 1655,-415.73 1655,-407.54"/>
<polygon fill="black" stroke="black" points="1658.5,-407.62 1655,-397.62 1651.5,-407.62 1658.5,-407.62"/>
</g>
<!-- j3498790811 -->
<g id="node32" class="node">
<title>j3498790811</title>
<polygon fill="none" stroke="blue" points="2021,-324 1869,-324 1869,-288 2021,-288 2021,-324"/>
<text text-anchor="middle" x="1945" y="-302.3" font-family="Times New Roman,serif" font-size="14.00">пилосмок працює ні?..</text>
</g>
<!-- j3350026894&#45;&gt;j3498790811 -->
<g id="edge34" class="edge">
<title>j3350026894&#45;&gt;j3498790811</title>
<path fill="none" stroke="black" d="M1682.28,-370.41C1722.9,-360.61 1800.98,-341.76 1861.5,-327.15"/>
<polygon fill="black" stroke="black" points="1862.22,-330.58 1871.12,-324.83 1860.58,-323.78 1862.22,-330.58"/>
</g>
<!-- j3374171386 -->
<g id="node33" class="node">
<title>j3374171386</title>
<ellipse fill="none" stroke="orange" cx="2240" cy="-234" rx="64.19" ry="18"/>
<text text-anchor="middle" x="2240" y="-230.3" font-family="Times New Roman,serif" font-size="14.00">+20 Chemistry</text>
</g>
<!-- j3498790811&#45;&gt;j3374171386 -->
<g id="edge35" class="edge">
<title>j3498790811&#45;&gt;j3374171386</title>
<path fill="none" stroke="black" d="M2018.68,-287.52C2068.82,-275.62 2134.28,-260.09 2180.98,-249"/>
<polygon fill="black" stroke="black" points="2181.73,-252.42 2190.66,-246.71 2180.12,-245.61 2181.73,-252.42"/>
</g>
<!-- j3393487389 -->
<g id="node34" class="node">
<title>j3393487389</title>
<polygon fill="none" stroke="blue" points="2294.5,-180 2217.5,-180 2217.5,-144 2294.5,-144 2294.5,-180"/>
<text text-anchor="middle" x="2256" y="-158.3" font-family="Times New Roman,serif" font-size="14.00">заразбуду</text>
</g>
<!-- j3374171386&#45;&gt;j3393487389 -->
<g id="edge36" class="edge">
<title>j3374171386&#45;&gt;j3393487389</title>
<path fill="none" stroke="black" d="M2243.96,-215.7C2245.64,-208.32 2247.65,-199.52 2249.54,-191.25"/>
<polygon fill="black" stroke="black" points="2252.94,-192.11 2251.75,-181.58 2246.11,-190.55 2252.94,-192.11"/>
</g>
<!-- j3393487389&#45;&gt;Initiate conversation QuincyAmirTrick2 in QuincyDialogue_rom.dialogue -->
<g id="edge37" class="edge">
<title>j3393487389&#45;&gt;Initiate conversation QuincyAmirTrick2 in QuincyDialogue_rom.dialogue</title>
<path fill="none" stroke="black" d="M2276.27,-143.7C2286.13,-135.28 2298.15,-125.02 2308.96,-115.79"/>
<polygon fill="black" stroke="black" points="2311.19,-118.48 2316.53,-109.33 2306.65,-113.16 2311.19,-118.48"/>
</g>
</g>
</svg>
