<?xml version="1.0" encoding="UTF-8" standalone="no"?>
<!DOCTYPE svg PUBLIC "-//W3C//DTD SVG 1.1//EN"
 "http://www.w3.org/Graphics/SVG/1.1/DTD/svg11.dtd">
<!-- Generated by graphviz version 7.1.0 (20230121.1956)
 -->
<!-- Pages: 1 -->
<svg width="1725pt" height="2347pt"
 viewBox="0.00 0.00 1724.50 2347.00" xmlns="http://www.w3.org/2000/svg" xmlns:xlink="http://www.w3.org/1999/xlink">
<g id="graph0" class="graph" transform="scale(1 1) rotate(0) translate(4 2343)">
<polygon fill="white" stroke="none" points="-4,4 -4,-2343 1720.5,-2343 1720.5,4 -4,4"/>
<!-- AmirRank3Convo5 begins. -->
<g id="node1" class="node">
<title>AmirRank3Convo5 begins.</title>
<ellipse fill="none" stroke="orange" cx="402" cy="-2321" rx="109.68" ry="18"/>
<text text-anchor="middle" x="402" y="-2317.3" font-family="Times New Roman,serif" font-size="14.00">AmirRank3Convo5 begins.</text>
</g>
<!-- j271998474 -->
<g id="node2" class="node">
<title>j271998474</title>
<ellipse fill="none" stroke="orange" cx="402" cy="-2248" rx="118.08" ry="18"/>
<text text-anchor="middle" x="402" y="-2244.3" font-family="Times New Roman,serif" font-size="14.00">Check boolean AmirShoulder</text>
</g>
<!-- AmirRank3Convo5 begins.&#45;&gt;j271998474 -->
<g id="edge1" class="edge">
<title>AmirRank3Convo5 begins.&#45;&gt;j271998474</title>
<path fill="none" stroke="black" d="M402,-2302.81C402,-2295.23 402,-2286.1 402,-2277.54"/>
<polygon fill="black" stroke="black" points="405.5,-2277.54 402,-2267.54 398.5,-2277.54 405.5,-2277.54"/>
</g>
<!-- j535870980 -->
<g id="node3" class="node">
<title>j535870980</title>
<polygon fill="none" stroke="blue" points="429,-2179 375,-2179 375,-2143 429,-2143 429,-2179"/>
<text text-anchor="middle" x="402" y="-2157.3" font-family="Times New Roman,serif" font-size="14.00">гей…</text>
</g>
<!-- j271998474&#45;&gt;j535870980 -->
<g id="edge2" class="edge">
<title>j271998474&#45;&gt;j535870980</title>
<path fill="none" stroke="green" d="M402,-2229.8C402,-2218.58 402,-2203.67 402,-2190.69"/>
<polygon fill="green" stroke="green" points="405.5,-2190.98 402,-2180.98 398.5,-2190.98 405.5,-2190.98"/>
<text text-anchor="middle" x="413" y="-2200.8" font-family="Times New Roman,serif" font-size="14.00">true</text>
</g>
<!-- j3434648800 -->
<g id="node4" class="node">
<title>j3434648800</title>
<polygon fill="none" stroke="red" points="777,-2125 607,-2125 607,-2089 777,-2089 777,-2125"/>
<text text-anchor="middle" x="692" y="-2103.3" font-family="Times New Roman,serif" font-size="14.00">Агов, Аміре, ти десь тут?</text>
</g>
<!-- j271998474&#45;&gt;j3434648800 -->
<g id="edge3" class="edge">
<title>j271998474&#45;&gt;j3434648800</title>
<path fill="none" stroke="brown" d="M436.69,-2230.37C488.89,-2205.36 587.67,-2158 645.88,-2130.11"/>
<polygon fill="brown" stroke="brown" points="647.03,-2133.43 654.54,-2125.96 644.01,-2127.12 647.03,-2133.43"/>
<text text-anchor="middle" x="517" y="-2200.8" font-family="Times New Roman,serif" font-size="14.00">false</text>
</g>
<!-- j704229613 -->
<g id="node5" class="node">
<title>j704229613</title>
<polygon fill="none" stroke="red" points="357.5,-1925 260.5,-1925 260.5,-1889 357.5,-1889 357.5,-1925"/>
<text text-anchor="middle" x="309" y="-1903.3" font-family="Times New Roman,serif" font-size="14.00">[Не зважати.]</text>
</g>
<!-- j271998474&#45;&gt;j704229613 -->
<g id="edge4" class="edge">
<title>j271998474&#45;&gt;j704229613</title>
<path fill="none" stroke="brown" d="M368.41,-2230.28C344.65,-2215.83 317,-2192.47 317,-2162 317,-2162 317,-2162 317,-1979 317,-1964.94 315.43,-1949.42 313.69,-1936.48"/>
<polygon fill="brown" stroke="brown" points="317.2,-1936.33 312.29,-1926.94 310.27,-1937.34 317.2,-1936.33"/>
<text text-anchor="middle" x="330" y="-2049.3" font-family="Times New Roman,serif" font-size="14.00">false</text>
</g>
<!-- j2826081364 -->
<g id="node6" class="node">
<title>j2826081364</title>
<polygon fill="none" stroke="blue" points="429,-2071 375,-2071 375,-2035 429,-2035 429,-2071"/>
<text text-anchor="middle" x="402" y="-2049.3" font-family="Times New Roman,serif" font-size="14.00">ем…</text>
</g>
<!-- j535870980&#45;&gt;j2826081364 -->
<g id="edge5" class="edge">
<title>j535870980&#45;&gt;j2826081364</title>
<path fill="none" stroke="black" d="M402,-2142.97C402,-2126.76 402,-2102.06 402,-2082.79"/>
<polygon fill="black" stroke="black" points="405.5,-2082.85 402,-2072.85 398.5,-2082.85 405.5,-2082.85"/>
</g>
<!-- j3035751251 -->
<g id="node7" class="node">
<title>j3035751251</title>
<polygon fill="none" stroke="blue" points="968.5,-1452 809.5,-1452 809.5,-1416 968.5,-1416 968.5,-1452"/>
<text text-anchor="middle" x="889" y="-1430.3" font-family="Times New Roman,serif" font-size="14.00">не дуже слушний час…</text>
</g>
<!-- j3434648800&#45;&gt;j3035751251 -->
<g id="edge6" class="edge">
<title>j3434648800&#45;&gt;j3035751251</title>
<path fill="none" stroke="black" d="M777.26,-2100.01C830.5,-2091.08 889,-2069.35 889,-2017 889,-2017 889,-2017 889,-1541 889,-1514.85 889,-1485.07 889,-1463.74"/>
<polygon fill="black" stroke="black" points="892.5,-1463.77 889,-1453.77 885.5,-1463.77 892.5,-1463.77"/>
</g>
<!-- Chat ends. -->
<g id="node8" class="node">
<title>Chat ends.</title>
<ellipse fill="none" stroke="orange" cx="815" cy="-18" rx="50.09" ry="18"/>
<text text-anchor="middle" x="815" y="-14.3" font-family="Times New Roman,serif" font-size="14.00">Chat ends.</text>
</g>
<!-- j704229613&#45;&gt;Chat ends. -->
<g id="edge7" class="edge">
<title>j704229613&#45;&gt;Chat ends.</title>
<path fill="none" stroke="black" d="M260.04,-1904.79C172.91,-1901.29 0,-1887.7 0,-1835 0,-1835 0,-1835 0,-90 0,-52.18 564.41,-28.14 753.85,-21.13"/>
<polygon fill="black" stroke="black" points="753.87,-24.63 763.73,-20.77 753.61,-17.64 753.87,-24.63"/>
</g>
<!-- j795472118 -->
<g id="node9" class="node">
<title>j795472118</title>
<polygon fill="none" stroke="blue" points="431.5,-1998 372.5,-1998 372.5,-1962 431.5,-1962 431.5,-1998"/>
<text text-anchor="middle" x="402" y="-1976.3" font-family="Times New Roman,serif" font-size="14.00">ти тут?</text>
</g>
<!-- j2826081364&#45;&gt;j795472118 -->
<g id="edge8" class="edge">
<title>j2826081364&#45;&gt;j795472118</title>
<path fill="none" stroke="black" d="M402,-2034.81C402,-2027.23 402,-2018.1 402,-2009.54"/>
<polygon fill="black" stroke="black" points="405.5,-2009.54 402,-1999.54 398.5,-2009.54 405.5,-2009.54"/>
</g>
<!-- j880508275 -->
<g id="node10" class="node">
<title>j880508275</title>
<polygon fill="none" stroke="red" points="1039,-1344 929,-1344 929,-1308 1039,-1308 1039,-1344"/>
<text text-anchor="middle" x="984" y="-1322.3" font-family="Times New Roman,serif" font-size="14.00">Що трапилося?</text>
</g>
<!-- j3035751251&#45;&gt;j880508275 -->
<g id="edge9" class="edge">
<title>j3035751251&#45;&gt;j880508275</title>
<path fill="none" stroke="black" d="M904.26,-1415.97C919.55,-1398.92 943.26,-1372.46 960.86,-1352.82"/>
<polygon fill="black" stroke="black" points="963.38,-1355.25 967.45,-1345.47 958.17,-1350.58 963.38,-1355.25"/>
</g>
<!-- j3343927616 -->
<g id="node11" class="node">
<title>j3343927616</title>
<polygon fill="none" stroke="red" points="948,-1290 766,-1290 766,-1254 948,-1254 948,-1290"/>
<text text-anchor="middle" x="857" y="-1268.3" font-family="Times New Roman,serif" font-size="14.00">Ох. Перепрошую. [Кінець.]</text>
</g>
<!-- j3035751251&#45;&gt;j3343927616 -->
<g id="edge10" class="edge">
<title>j3035751251&#45;&gt;j3343927616</title>
<path fill="none" stroke="black" d="M885.51,-1415.57C880.03,-1388.16 869.34,-1334.69 862.72,-1301.59"/>
<polygon fill="black" stroke="black" points="866.17,-1301.01 860.78,-1291.89 859.31,-1302.38 866.17,-1301.01"/>
</g>
<!-- j795472118&#45;&gt;j704229613 -->
<g id="edge12" class="edge">
<title>j795472118&#45;&gt;j704229613</title>
<path fill="none" stroke="black" d="M379.49,-1961.81C367.81,-1952.9 353.35,-1941.86 340.57,-1932.1"/>
<polygon fill="black" stroke="black" points="342.9,-1929.48 332.83,-1926.19 338.66,-1935.04 342.9,-1929.48"/>
</g>
<!-- j2685733004 -->
<g id="node12" class="node">
<title>j2685733004</title>
<polygon fill="none" stroke="red" points="498.5,-1925 375.5,-1925 375.5,-1889 498.5,-1889 498.5,-1925"/>
<text text-anchor="middle" x="437" y="-1903.3" font-family="Times New Roman,serif" font-size="14.00">Так. Що сталося?</text>
</g>
<!-- j795472118&#45;&gt;j2685733004 -->
<g id="edge11" class="edge">
<title>j795472118&#45;&gt;j2685733004</title>
<path fill="none" stroke="black" d="M410.47,-1961.81C414.43,-1953.79 419.23,-1944.05 423.66,-1935.07"/>
<polygon fill="black" stroke="black" points="426.65,-1936.9 427.94,-1926.39 420.38,-1933.81 426.65,-1936.9"/>
</g>
<!-- j2680008266 -->
<g id="node13" class="node">
<title>j2680008266</title>
<polygon fill="none" stroke="blue" points="1298,-1236 1242,-1236 1242,-1200 1298,-1200 1298,-1236"/>
<text text-anchor="middle" x="1270" y="-1214.3" font-family="Times New Roman,serif" font-size="14.00">нічого</text>
</g>
<!-- j880508275&#45;&gt;j2680008266 -->
<g id="edge13" class="edge">
<title>j880508275&#45;&gt;j2680008266</title>
<path fill="none" stroke="black" d="M1030.91,-1307.61C1086.71,-1286.93 1178.86,-1252.78 1230.96,-1233.47"/>
<polygon fill="black" stroke="black" points="1232.17,-1236.75 1240.33,-1230 1229.74,-1230.19 1232.17,-1236.75"/>
</g>
<!-- j3343927616&#45;&gt;Chat ends. -->
<g id="edge14" class="edge">
<title>j3343927616&#45;&gt;Chat ends.</title>
<path fill="none" stroke="black" d="M770.33,-1253.53C734.43,-1240.76 701,-1218.95 701,-1182 701,-1182 701,-1182 701,-1000 701,-887.5 693,-859.5 693,-747 693,-747 693,-747 693,-90 693,-56.75 727.26,-38.81 759.47,-29.28"/>
<polygon fill="black" stroke="black" points="760.06,-32.74 768.8,-26.75 758.24,-25.99 760.06,-32.74"/>
</g>
<!-- j1912746117 -->
<g id="node14" class="node">
<title>j1912746117</title>
<polygon fill="none" stroke="blue" points="548.5,-1852 325.5,-1852 325.5,-1816 548.5,-1816 548.5,-1852"/>
<text text-anchor="middle" x="437" y="-1830.3" font-family="Times New Roman,serif" font-size="14.00">тооооож якось від тебе я почув…</text>
</g>
<!-- j2685733004&#45;&gt;j1912746117 -->
<g id="edge15" class="edge">
<title>j2685733004&#45;&gt;j1912746117</title>
<path fill="none" stroke="black" d="M437,-1888.81C437,-1881.23 437,-1872.1 437,-1863.54"/>
<polygon fill="black" stroke="black" points="440.5,-1863.54 437,-1853.54 433.5,-1863.54 440.5,-1863.54"/>
</g>
<!-- j3183440356 -->
<g id="node15" class="node">
<title>j3183440356</title>
<polygon fill="none" stroke="red" points="1386.5,-1163 1153.5,-1163 1153.5,-1127 1386.5,-1127 1386.5,-1163"/>
<text text-anchor="middle" x="1270" y="-1141.3" font-family="Times New Roman,serif" font-size="14.00">Ну я ж точно бачу, що щось не так.</text>
</g>
<!-- j2680008266&#45;&gt;j3183440356 -->
<g id="edge16" class="edge">
<title>j2680008266&#45;&gt;j3183440356</title>
<path fill="none" stroke="black" d="M1270,-1199.81C1270,-1192.23 1270,-1183.1 1270,-1174.54"/>
<polygon fill="black" stroke="black" points="1273.5,-1174.54 1270,-1164.54 1266.5,-1174.54 1273.5,-1174.54"/>
</g>
<!-- j3677542888 -->
<g id="node16" class="node">
<title>j3677542888</title>
<polygon fill="none" stroke="red" points="1716.5,-1109 1463.5,-1109 1463.5,-1073 1716.5,-1073 1716.5,-1109"/>
<text text-anchor="middle" x="1590" y="-1087.3" font-family="Times New Roman,serif" font-size="14.00">Вибач, облишу тебе в спокої. [Кінець.]</text>
</g>
<!-- j2680008266&#45;&gt;j3677542888 -->
<g id="edge17" class="edge">
<title>j2680008266&#45;&gt;j3677542888</title>
<path fill="none" stroke="black" d="M1298.4,-1205.91C1351.32,-1185.23 1465.88,-1140.48 1534.6,-1113.64"/>
<polygon fill="black" stroke="black" points="1535.77,-1116.94 1543.81,-1110.04 1533.22,-1110.42 1535.77,-1116.94"/>
</g>
<!-- j145169255 -->
<g id="node17" class="node">
<title>j145169255</title>
<polygon fill="none" stroke="blue" points="705.5,-1779 168.5,-1779 168.5,-1743 705.5,-1743 705.5,-1779"/>
<text text-anchor="middle" x="437" y="-1757.3" font-family="Times New Roman,serif" font-size="14.00">що якщо з кимось треба буде поговорити то ти послухаєш… ем… пропозиція в силі?</text>
</g>
<!-- j1912746117&#45;&gt;j145169255 -->
<g id="edge18" class="edge">
<title>j1912746117&#45;&gt;j145169255</title>
<path fill="none" stroke="black" d="M437,-1815.81C437,-1808.23 437,-1799.1 437,-1790.54"/>
<polygon fill="black" stroke="black" points="440.5,-1790.54 437,-1780.54 433.5,-1790.54 440.5,-1790.54"/>
</g>
<!-- j346546977 -->
<g id="node18" class="node">
<title>j346546977</title>
<polygon fill="none" stroke="blue" points="1347,-1055 1193,-1055 1193,-1019 1347,-1019 1347,-1055"/>
<text text-anchor="middle" x="1270" y="-1033.3" font-family="Times New Roman,serif" font-size="14.00">та яка в нахрін різниця</text>
</g>
<!-- j3183440356&#45;&gt;j346546977 -->
<g id="edge19" class="edge">
<title>j3183440356&#45;&gt;j346546977</title>
<path fill="none" stroke="black" d="M1270,-1126.97C1270,-1110.76 1270,-1086.06 1270,-1066.79"/>
<polygon fill="black" stroke="black" points="1273.5,-1066.85 1270,-1056.85 1266.5,-1066.85 1273.5,-1066.85"/>
</g>
<!-- j3677542888&#45;&gt;Chat ends. -->
<g id="edge20" class="edge">
<title>j3677542888&#45;&gt;Chat ends.</title>
<path fill="none" stroke="black" d="M1610.3,-1072.79C1627.37,-1056.3 1649,-1029.73 1649,-1001 1649,-1001 1649,-1001 1649,-90 1649,-53.02 1615,-64.64 1527,-54 1287.76,-25.08 1000.54,-19.9 876.74,-19.08"/>
<polygon fill="black" stroke="black" points="876.81,-15.58 866.79,-19.03 876.77,-22.58 876.81,-15.58"/>
</g>
<!-- j3708623609 -->
<g id="node19" class="node">
<title>j3708623609</title>
<polygon fill="none" stroke="blue" points="846,-1706 28,-1706 28,-1670 846,-1670 846,-1706"/>
<text text-anchor="middle" x="437" y="-1684.3" font-family="Times New Roman,serif" font-size="14.00">повністю зрозумію якщо ні ХА_ХА хто захоче марнувати свій час на бідолашного плаксивого амірчика та його пхохочуття 0й г0й!!</text>
</g>
<!-- j145169255&#45;&gt;j3708623609 -->
<g id="edge21" class="edge">
<title>j145169255&#45;&gt;j3708623609</title>
<path fill="none" stroke="black" d="M437,-1742.81C437,-1735.23 437,-1726.1 437,-1717.54"/>
<polygon fill="black" stroke="black" points="440.5,-1717.54 437,-1707.54 433.5,-1717.54 440.5,-1717.54"/>
</g>
<!-- j1842036943 -->
<g id="node20" class="node">
<title>j1842036943</title>
<polygon fill="none" stroke="blue" points="1325,-982 1215,-982 1215,-946 1325,-946 1325,-982"/>
<text text-anchor="middle" x="1270" y="-960.3" font-family="Times New Roman,serif" font-size="14.00">облиш цю тему</text>
</g>
<!-- j346546977&#45;&gt;j1842036943 -->
<g id="edge22" class="edge">
<title>j346546977&#45;&gt;j1842036943</title>
<path fill="none" stroke="black" d="M1270,-1018.81C1270,-1011.23 1270,-1002.1 1270,-993.54"/>
<polygon fill="black" stroke="black" points="1273.5,-993.54 1270,-983.54 1266.5,-993.54 1273.5,-993.54"/>
</g>
<!-- j3565512459 -->
<g id="node21" class="node">
<title>j3565512459</title>
<polygon fill="none" stroke="red" points="306,-1633 28,-1633 28,-1597 306,-1597 306,-1633"/>
<text text-anchor="middle" x="167" y="-1611.3" font-family="Times New Roman,serif" font-size="14.00">Чуваче, зривай сам свої пластирі. [Кінець.]</text>
</g>
<!-- j3708623609&#45;&gt;j3565512459 -->
<g id="edge23" class="edge">
<title>j3708623609&#45;&gt;j3565512459</title>
<path fill="none" stroke="black" d="M370.6,-1669.54C332.35,-1659.48 284.1,-1646.79 244.17,-1636.29"/>
<polygon fill="black" stroke="black" points="245.16,-1632.94 234.6,-1633.78 243.38,-1639.71 245.16,-1632.94"/>
</g>
<!-- j3335484672 -->
<g id="node22" class="node">
<title>j3335484672</title>
<polygon fill="none" stroke="red" points="530,-1633 324,-1633 324,-1597 530,-1597 530,-1633"/>
<text text-anchor="middle" x="427" y="-1611.3" font-family="Times New Roman,serif" font-size="14.00">*Звичайно*, пропозиція в силі.</text>
</g>
<!-- j3708623609&#45;&gt;j3335484672 -->
<g id="edge24" class="edge">
<title>j3708623609&#45;&gt;j3335484672</title>
<path fill="none" stroke="black" d="M434.58,-1669.81C433.5,-1662.14 432.2,-1652.89 430.98,-1644.24"/>
<polygon fill="black" stroke="black" points="434.47,-1643.94 429.61,-1634.53 427.54,-1644.92 434.47,-1643.94"/>
</g>
<!-- j2287752715 -->
<g id="node23" class="node">
<title>j2287752715</title>
<polygon fill="none" stroke="red" points="658,-1633 548,-1633 548,-1597 658,-1597 658,-1633"/>
<text text-anchor="middle" x="603" y="-1611.3" font-family="Times New Roman,serif" font-size="14.00">Гей&#45;гей, тихше.</text>
</g>
<!-- j3708623609&#45;&gt;j2287752715 -->
<g id="edge25" class="edge">
<title>j3708623609&#45;&gt;j2287752715</title>
<path fill="none" stroke="black" d="M477.61,-1669.63C500.02,-1660.05 528.06,-1648.05 551.94,-1637.84"/>
<polygon fill="black" stroke="black" points="553.03,-1641.18 560.84,-1634.03 550.27,-1634.75 553.03,-1641.18"/>
</g>
<!-- j3929002514 -->
<g id="node24" class="node">
<title>j3929002514</title>
<polygon fill="none" stroke="red" points="1447.5,-909 1092.5,-909 1092.5,-873 1447.5,-873 1447.5,-909"/>
<text text-anchor="middle" x="1270" y="-887.3" font-family="Times New Roman,serif" font-size="14.00">Амріе, зі мною можна поговорити. З тобою все гаразд?</text>
</g>
<!-- j1842036943&#45;&gt;j3929002514 -->
<g id="edge26" class="edge">
<title>j1842036943&#45;&gt;j3929002514</title>
<path fill="none" stroke="black" d="M1270,-945.81C1270,-938.23 1270,-929.1 1270,-920.54"/>
<polygon fill="black" stroke="black" points="1273.5,-920.54 1270,-910.54 1266.5,-920.54 1273.5,-920.54"/>
</g>
<!-- j3415139904 -->
<g id="node25" class="node">
<title>j3415139904</title>
<polygon fill="none" stroke="red" points="945.5,-909 730.5,-909 730.5,-873 945.5,-873 945.5,-909"/>
<text text-anchor="middle" x="838" y="-887.3" font-family="Times New Roman,serif" font-size="14.00">Я просто намагаюся допомогти.</text>
</g>
<!-- j1842036943&#45;&gt;j3415139904 -->
<g id="edge27" class="edge">
<title>j1842036943&#45;&gt;j3415139904</title>
<path fill="none" stroke="black" d="M1214.85,-953.94C1149.76,-943.24 1039.71,-925.15 955.29,-911.28"/>
<polygon fill="black" stroke="black" points="956.01,-907.85 945.58,-909.68 954.88,-914.76 956.01,-907.85"/>
</g>
<!-- j8436954 -->
<g id="node26" class="node">
<title>j8436954</title>
<polygon fill="none" stroke="red" points="1584,-855 1468,-855 1468,-819 1584,-819 1584,-855"/>
<text text-anchor="middle" x="1526" y="-833.3" font-family="Times New Roman,serif" font-size="14.00">Добре. [Кінець.]</text>
</g>
<!-- j1842036943&#45;&gt;j8436954 -->
<g id="edge28" class="edge">
<title>j1842036943&#45;&gt;j8436954</title>
<path fill="none" stroke="black" d="M1325.4,-954.78C1364.31,-947.21 1416.43,-933.34 1457,-909 1476.16,-897.5 1493.66,-879.37 1506.24,-864.31"/>
<polygon fill="black" stroke="black" points="1508.91,-866.57 1512.46,-856.59 1503.46,-862.18 1508.91,-866.57"/>
</g>
<!-- j3204486950 -->
<g id="node27" class="node">
<title>j3204486950</title>
<polygon fill="none" stroke="blue" points="272.5,-1560 39.5,-1560 39.5,-1524 272.5,-1524 272.5,-1560"/>
<text text-anchor="middle" x="156" y="-1538.3" font-family="Times New Roman,serif" font-size="14.00">завжди потрапляв на гачок шахраїв</text>
</g>
<!-- j3565512459&#45;&gt;j3204486950 -->
<g id="edge29" class="edge">
<title>j3565512459&#45;&gt;j3204486950</title>
<path fill="none" stroke="black" d="M164.34,-1596.81C163.15,-1589.14 161.72,-1579.89 160.38,-1571.24"/>
<polygon fill="black" stroke="black" points="163.86,-1570.87 158.87,-1561.52 156.94,-1571.94 163.86,-1570.87"/>
</g>
<!-- j1589595688 -->
<g id="node28" class="node">
<title>j1589595688</title>
<polygon fill="none" stroke="red" points="524,-1506 204,-1506 204,-1470 524,-1470 524,-1506"/>
<text text-anchor="middle" x="364" y="-1484.3" font-family="Times New Roman,serif" font-size="14.00">Може ти хоча би поясниш мені що трапилося, га?</text>
</g>
<!-- j3335484672&#45;&gt;j1589595688 -->
<g id="edge30" class="edge">
<title>j3335484672&#45;&gt;j1589595688</title>
<path fill="none" stroke="black" d="M377.89,-1596.56C361.6,-1588.16 345.27,-1576.28 336,-1560 328.08,-1546.1 330.7,-1539.1 336,-1524 336.97,-1521.24 338.26,-1518.53 339.75,-1515.92"/>
<polygon fill="black" stroke="black" points="342.63,-1517.91 345.43,-1507.7 336.87,-1513.94 342.63,-1517.91"/>
</g>
<!-- j2347861930 -->
<g id="node29" class="node">
<title>j2347861930</title>
<polygon fill="none" stroke="blue" points="861,-1560 345,-1560 345,-1524 861,-1524 861,-1560"/>
<text text-anchor="middle" x="603" y="-1538.3" font-family="Times New Roman,serif" font-size="14.00">МИ РАНІШЕ НЕ ЗУСТРІЧАЛИСЯ ПРИВІТ Я АМІР РАДИЙ ПОЗНАЙОМИТИСЯ</text>
</g>
<!-- j2287752715&#45;&gt;j2347861930 -->
<g id="edge31" class="edge">
<title>j2287752715&#45;&gt;j2347861930</title>
<path fill="none" stroke="black" d="M603,-1596.81C603,-1589.23 603,-1580.1 603,-1571.54"/>
<polygon fill="black" stroke="black" points="606.5,-1571.54 603,-1561.54 599.5,-1571.54 606.5,-1571.54"/>
</g>
<!-- j1564413533 -->
<g id="node30" class="node">
<title>j1564413533</title>
<polygon fill="none" stroke="blue" points="1583,-801 957,-801 957,-765 1583,-765 1583,-801"/>
<text text-anchor="middle" x="1270" y="-779.3" font-family="Times New Roman,serif" font-size="14.00">НЕМАЄ НІЯКОГО БІСОВОГО ЗНАЧЕННЯ ГАРАЗД ЗІ МНОЮ ЧИ НІ ТИ ПОДИВИСЯ ДОВКОЛА</text>
</g>
<!-- j3929002514&#45;&gt;j1564413533 -->
<g id="edge32" class="edge">
<title>j3929002514&#45;&gt;j1564413533</title>
<path fill="none" stroke="black" d="M1270,-872.97C1270,-856.76 1270,-832.06 1270,-812.79"/>
<polygon fill="black" stroke="black" points="1273.5,-812.85 1270,-802.85 1266.5,-812.85 1273.5,-812.85"/>
</g>
<!-- j1193388788 -->
<g id="node31" class="node">
<title>j1193388788</title>
<polygon fill="none" stroke="blue" points="939,-801 721,-801 721,-765 939,-765 939,-801"/>
<text text-anchor="middle" x="830" y="-779.3" font-family="Times New Roman,serif" font-size="14.00">ТА НЕ ТРЕБА МЕНІ ЦЕ ЛАЙНО</text>
</g>
<!-- j3415139904&#45;&gt;j1193388788 -->
<g id="edge33" class="edge">
<title>j3415139904&#45;&gt;j1193388788</title>
<path fill="none" stroke="black" d="M836.71,-872.97C835.49,-856.76 833.63,-832.06 832.17,-812.79"/>
<polygon fill="black" stroke="black" points="835.67,-812.56 831.42,-802.85 828.69,-813.08 835.67,-812.56"/>
</g>
<!-- j8436954&#45;&gt;Chat ends. -->
<g id="edge34" class="edge">
<title>j8436954&#45;&gt;Chat ends.</title>
<path fill="none" stroke="black" d="M1570.17,-818.52C1578.24,-813.78 1585.99,-807.98 1592,-801 1608.6,-781.72 1611,-772.44 1611,-747 1611,-747 1611,-747 1611,-90 1611,-77.98 1530.54,-57.3 1512,-54 1390.92,-32.46 1023.59,-23.07 876.68,-20.11"/>
<polygon fill="black" stroke="black" points="876.82,-16.61 866.75,-19.91 876.68,-23.61 876.82,-16.61"/>
</g>
<!-- j2322051913 -->
<g id="node32" class="node">
<title>j2322051913</title>
<ellipse fill="none" stroke="orange" cx="151" cy="-1380" rx="133.78" ry="18"/>
<text text-anchor="middle" x="151" y="-1376.3" font-family="Times New Roman,serif" font-size="14.00">Boolean AmirNoDate is now true.</text>
</g>
<!-- j3204486950&#45;&gt;j2322051913 -->
<g id="edge35" class="edge">
<title>j3204486950&#45;&gt;j2322051913</title>
<path fill="none" stroke="black" d="M155.46,-1523.57C154.6,-1496.16 152.93,-1442.69 151.89,-1409.59"/>
<polygon fill="black" stroke="black" points="155.4,-1409.8 151.59,-1399.92 148.41,-1410.02 155.4,-1409.8"/>
</g>
<!-- j3658653780 -->
<g id="node33" class="node">
<title>j3658653780</title>
<polygon fill="none" stroke="blue" points="477,-1344 359,-1344 359,-1308 477,-1308 477,-1344"/>
<text text-anchor="middle" x="418" y="-1322.3" font-family="Times New Roman,serif" font-size="14.00">::глибокий вдих::</text>
</g>
<!-- j1589595688&#45;&gt;j3658653780 -->
<g id="edge36" class="edge">
<title>j1589595688&#45;&gt;j3658653780</title>
<path fill="none" stroke="black" d="M369.88,-1469.57C379.17,-1442.04 397.34,-1388.22 408.5,-1355.16"/>
<polygon fill="black" stroke="black" points="411.76,-1356.43 411.64,-1345.84 405.13,-1354.2 411.76,-1356.43"/>
</g>
<!-- j915116274 -->
<g id="node34" class="node">
<title>j915116274</title>
<polygon fill="none" stroke="blue" points="569.5,-1452 458.5,-1452 458.5,-1416 569.5,-1416 569.5,-1452"/>
<text text-anchor="middle" x="514" y="-1430.3" font-family="Times New Roman,serif" font-size="14.00">але суть уловив</text>
</g>
<!-- j2347861930&#45;&gt;j915116274 -->
<g id="edge37" class="edge">
<title>j2347861930&#45;&gt;j915116274</title>
<path fill="none" stroke="black" d="M588.7,-1523.97C574.45,-1506.99 552.37,-1480.7 535.91,-1461.09"/>
<polygon fill="black" stroke="black" points="538.64,-1458.91 529.53,-1453.5 533.28,-1463.41 538.64,-1458.91"/>
</g>
<!-- j2335367258 -->
<g id="node35" class="node">
<title>j2335367258</title>
<polygon fill="none" stroke="blue" points="1392.5,-728 993.5,-728 993.5,-692 1392.5,-692 1392.5,-728"/>
<text text-anchor="middle" x="1193" y="-706.3" font-family="Times New Roman,serif" font-size="14.00">БУБУБУ АМІРЧИК БІДОЛАШНИЙ МАЛЕНЬКИЙ ХЛОПЧИК</text>
</g>
<!-- j1564413533&#45;&gt;j2335367258 -->
<g id="edge38" class="edge">
<title>j1564413533&#45;&gt;j2335367258</title>
<path fill="none" stroke="black" d="M1251.36,-764.81C1241.97,-756.16 1230.41,-745.5 1220.07,-735.96"/>
<polygon fill="black" stroke="black" points="1222.57,-733.51 1212.85,-729.3 1217.83,-738.65 1222.57,-733.51"/>
</g>
<!-- j1193388788&#45;&gt;j2335367258 -->
<g id="edge39" class="edge">
<title>j1193388788&#45;&gt;j2335367258</title>
<path fill="none" stroke="black" d="M919.26,-764.54C971.8,-754.27 1038.38,-741.24 1092.72,-730.61"/>
<polygon fill="black" stroke="black" points="1093.14,-734.1 1102.28,-728.74 1091.79,-727.23 1093.14,-734.1"/>
</g>
<!-- j2322051913&#45;&gt;Chat ends. -->
<g id="edge40" class="edge">
<title>j2322051913&#45;&gt;Chat ends.</title>
<path fill="none" stroke="black" d="M146.8,-1361.86C142.06,-1341 135,-1304.64 135,-1273 135,-1273 135,-1273 135,-90 135,-28.14 585.97,-19.95 753.4,-19.04"/>
<polygon fill="black" stroke="black" points="753.22,-22.54 763.21,-18.99 753.19,-15.54 753.22,-22.54"/>
</g>
<!-- j552252265 -->
<g id="node36" class="node">
<title>j552252265</title>
<polygon fill="none" stroke="blue" points="480.5,-1236 355.5,-1236 355.5,-1200 480.5,-1200 480.5,-1236"/>
<text text-anchor="middle" x="418" y="-1214.3" font-family="Times New Roman,serif" font-size="14.00">::глибокий видих::</text>
</g>
<!-- j3658653780&#45;&gt;j552252265 -->
<g id="edge41" class="edge">
<title>j3658653780&#45;&gt;j552252265</title>
<path fill="none" stroke="black" d="M418,-1307.97C418,-1291.76 418,-1267.06 418,-1247.79"/>
<polygon fill="black" stroke="black" points="421.5,-1247.85 418,-1237.85 414.5,-1247.85 421.5,-1247.85"/>
</g>
<!-- j915116274&#45;&gt;j3658653780 -->
<g id="edge42" class="edge">
<title>j915116274&#45;&gt;j3658653780</title>
<path fill="none" stroke="black" d="M498.58,-1415.97C483.13,-1398.92 459.17,-1372.46 441.39,-1352.82"/>
<polygon fill="black" stroke="black" points="444.03,-1350.53 434.72,-1345.46 438.84,-1355.22 444.03,-1350.53"/>
</g>
<!-- j316604580 -->
<g id="node37" class="node">
<title>j316604580</title>
<polygon fill="none" stroke="blue" points="1316.5,-655 1069.5,-655 1069.5,-619 1316.5,-619 1316.5,-655"/>
<text text-anchor="middle" x="1193" y="-633.3" font-family="Times New Roman,serif" font-size="14.00">ЗАГУБИВСЯ У ЗОНІ БОЙОВИХ ДІЙ</text>
</g>
<!-- j2335367258&#45;&gt;j316604580 -->
<g id="edge43" class="edge">
<title>j2335367258&#45;&gt;j316604580</title>
<path fill="none" stroke="black" d="M1193,-691.81C1193,-684.23 1193,-675.1 1193,-666.54"/>
<polygon fill="black" stroke="black" points="1196.5,-666.54 1193,-656.54 1189.5,-666.54 1196.5,-666.54"/>
</g>
<!-- j1536207912 -->
<g id="node38" class="node">
<title>j1536207912</title>
<polygon fill="none" stroke="blue" points="477,-1163 359,-1163 359,-1127 477,-1127 477,-1163"/>
<text text-anchor="middle" x="418" y="-1141.3" font-family="Times New Roman,serif" font-size="14.00">мені тут не місце</text>
</g>
<!-- j552252265&#45;&gt;j1536207912 -->
<g id="edge44" class="edge">
<title>j552252265&#45;&gt;j1536207912</title>
<path fill="none" stroke="black" d="M418,-1199.81C418,-1192.23 418,-1183.1 418,-1174.54"/>
<polygon fill="black" stroke="black" points="421.5,-1174.54 418,-1164.54 414.5,-1174.54 421.5,-1174.54"/>
</g>
<!-- j1192680548 -->
<g id="node39" class="node">
<title>j1192680548</title>
<polygon fill="none" stroke="blue" points="1333.5,-582 1052.5,-582 1052.5,-546 1333.5,-546 1333.5,-582"/>
<text text-anchor="middle" x="1193" y="-560.3" font-family="Times New Roman,serif" font-size="14.00">НЕ ТРЕБА МЕНІ ТВОЯ СРАНА ЖАЛІСТЬ</text>
</g>
<!-- j316604580&#45;&gt;j1192680548 -->
<g id="edge45" class="edge">
<title>j316604580&#45;&gt;j1192680548</title>
<path fill="none" stroke="black" d="M1193,-618.81C1193,-611.23 1193,-602.1 1193,-593.54"/>
<polygon fill="black" stroke="black" points="1196.5,-593.54 1193,-583.54 1189.5,-593.54 1196.5,-593.54"/>
</g>
<!-- j266877905 -->
<g id="node40" class="node">
<title>j266877905</title>
<polygon fill="none" stroke="blue" points="572,-1055 264,-1055 264,-1019 572,-1019 572,-1055"/>
<text text-anchor="middle" x="418" y="-1033.3" font-family="Times New Roman,serif" font-size="14.00">а всім іншим за відчуттям ТУТ ЯКРАЗ І МІСЦЕ</text>
</g>
<!-- j1536207912&#45;&gt;j266877905 -->
<g id="edge46" class="edge">
<title>j1536207912&#45;&gt;j266877905</title>
<path fill="none" stroke="black" d="M418,-1126.97C418,-1110.76 418,-1086.06 418,-1066.79"/>
<polygon fill="black" stroke="black" points="421.5,-1066.85 418,-1056.85 414.5,-1066.85 421.5,-1066.85"/>
</g>
<!-- j2244044036 -->
<g id="node41" class="node">
<title>j2244044036</title>
<polygon fill="none" stroke="red" points="1426,-509 900,-509 900,-473 1426,-473 1426,-509"/>
<text text-anchor="middle" x="1163" y="-487.3" font-family="Times New Roman,serif" font-size="14.00">А хто взагалі казав про жалість? Ти дорослий чолов’яга, здатний подбати про себе.</text>
</g>
<!-- j1192680548&#45;&gt;j2244044036 -->
<g id="edge47" class="edge">
<title>j1192680548&#45;&gt;j2244044036</title>
<path fill="none" stroke="black" d="M1185.74,-545.81C1182.38,-537.88 1178.32,-528.26 1174.56,-519.36"/>
<polygon fill="black" stroke="black" points="1177.9,-518.27 1170.78,-510.42 1171.45,-521 1177.9,-518.27"/>
</g>
<!-- j3723149042 -->
<g id="node42" class="node">
<title>j3723149042</title>
<polygon fill="none" stroke="red" points="1580,-455 1352,-455 1352,-419 1580,-419 1580,-455"/>
<text text-anchor="middle" x="1466" y="-433.3" font-family="Times New Roman,serif" font-size="14.00">Трясця, ну добре. Вибач. [Кінець.]</text>
</g>
<!-- j1192680548&#45;&gt;j3723149042 -->
<g id="edge48" class="edge">
<title>j1192680548&#45;&gt;j3723149042</title>
<path fill="none" stroke="black" d="M1318.91,-545.52C1367.75,-536.58 1416.4,-524.33 1435,-509 1448.07,-498.23 1455.78,-480.88 1460.24,-466.03"/>
<polygon fill="black" stroke="black" points="1463.52,-467.33 1462.67,-456.77 1456.75,-465.55 1463.52,-467.33"/>
</g>
<!-- j1390134170 -->
<g id="node43" class="node">
<title>j1390134170</title>
<polygon fill="none" stroke="blue" points="673,-982 163,-982 163,-946 673,-946 673,-982"/>
<text text-anchor="middle" x="418" y="-960.3" font-family="Times New Roman,serif" font-size="14.00">поглянь на них. круті вояки бійці матирідна які СЕКСІ впевнені РЯТУЮТЬ СВІТ</text>
</g>
<!-- j266877905&#45;&gt;j1390134170 -->
<g id="edge49" class="edge">
<title>j266877905&#45;&gt;j1390134170</title>
<path fill="none" stroke="black" d="M418,-1018.81C418,-1011.23 418,-1002.1 418,-993.54"/>
<polygon fill="black" stroke="black" points="421.5,-993.54 418,-983.54 414.5,-993.54 421.5,-993.54"/>
</g>
<!-- j3621958311 -->
<g id="node44" class="node">
<title>j3621958311</title>
<polygon fill="none" stroke="red" points="1530.5,-401 721.5,-401 721.5,-365 1530.5,-365 1530.5,-401"/>
<text text-anchor="middle" x="1126" y="-379.3" font-family="Times New Roman,serif" font-size="14.00">Але ти ще й мій друг, тож у випадку якоїсь біли я намагатимусь просто ДОПОМОГТИ своєму КЛЯТОМУ другу, ти це розумієш?</text>
</g>
<!-- j2244044036&#45;&gt;j3621958311 -->
<g id="edge50" class="edge">
<title>j2244044036&#45;&gt;j3621958311</title>
<path fill="none" stroke="black" d="M1157.06,-472.97C1151.32,-456.53 1142.53,-431.35 1135.76,-411.97"/>
<polygon fill="black" stroke="black" points="1139.15,-411.06 1132.55,-402.77 1132.54,-413.36 1139.15,-411.06"/>
</g>
<!-- j3723149042&#45;&gt;Chat ends. -->
<g id="edge51" class="edge">
<title>j3723149042&#45;&gt;Chat ends.</title>
<path fill="none" stroke="black" d="M1517.02,-418.5C1525.52,-413.84 1533.62,-408.07 1540,-401 1557.04,-382.1 1559,-372.44 1559,-347 1559,-347 1559,-347 1559,-90 1559,-21.68 1055.37,-17.72 876.83,-18.46"/>
<polygon fill="black" stroke="black" points="877.05,-14.96 867.07,-18.51 877.08,-21.96 877.05,-14.96"/>
</g>
<!-- j2131680112 -->
<g id="node45" class="node">
<title>j2131680112</title>
<polygon fill="none" stroke="blue" points="495,-909 349,-909 349,-873 495,-873 495,-909"/>
<text text-anchor="middle" x="422" y="-887.3" font-family="Times New Roman,serif" font-size="14.00">а тепер глянь на мене</text>
</g>
<!-- j1390134170&#45;&gt;j2131680112 -->
<g id="edge52" class="edge">
<title>j1390134170&#45;&gt;j2131680112</title>
<path fill="none" stroke="black" d="M418.97,-945.81C419.4,-938.14 419.92,-928.89 420.41,-920.24"/>
<polygon fill="black" stroke="black" points="423.89,-920.72 420.96,-910.54 416.9,-920.33 423.89,-920.72"/>
</g>
<!-- j1395252995 -->
<g id="node46" class="node">
<title>j1395252995</title>
<polygon fill="none" stroke="blue" points="1108,-328 1038,-328 1038,-292 1108,-292 1108,-328"/>
<text text-anchor="middle" x="1073" y="-306.3" font-family="Times New Roman,serif" font-size="14.00">усе одно</text>
</g>
<!-- j3621958311&#45;&gt;j1395252995 -->
<g id="edge53" class="edge">
<title>j3621958311&#45;&gt;j1395252995</title>
<path fill="none" stroke="black" d="M1113.17,-364.81C1106.99,-356.53 1099.43,-346.41 1092.55,-337.19"/>
<polygon fill="black" stroke="black" points="1095.4,-335.16 1086.62,-329.24 1089.79,-339.35 1095.4,-335.16"/>
</g>
<!-- j837876286 -->
<g id="node47" class="node">
<title>j837876286</title>
<polygon fill="none" stroke="blue" points="602.5,-801 249.5,-801 249.5,-765 602.5,-765 602.5,-801"/>
<text text-anchor="middle" x="426" y="-779.3" font-family="Times New Roman,serif" font-size="14.00">простий ботан який прокидається від жахіть серед ночі</text>
</g>
<!-- j2131680112&#45;&gt;j837876286 -->
<g id="edge54" class="edge">
<title>j2131680112&#45;&gt;j837876286</title>
<path fill="none" stroke="black" d="M422.64,-872.97C423.25,-856.76 424.19,-832.06 424.91,-812.79"/>
<polygon fill="black" stroke="black" points="428.41,-812.98 425.29,-802.85 421.41,-812.71 428.41,-812.98"/>
</g>
<!-- j1744908671 -->
<g id="node48" class="node">
<title>j1744908671</title>
<polygon fill="none" stroke="blue" points="1166,-255 952,-255 952,-219 1166,-219 1166,-255"/>
<text text-anchor="middle" x="1059" y="-233.3" font-family="Times New Roman,serif" font-size="14.00">язанадтовразливийдоцьогозараз</text>
</g>
<!-- j1395252995&#45;&gt;j1744908671 -->
<g id="edge55" class="edge">
<title>j1395252995&#45;&gt;j1744908671</title>
<path fill="none" stroke="black" d="M1069.61,-291.81C1068.1,-284.14 1066.27,-274.89 1064.57,-266.24"/>
<polygon fill="black" stroke="black" points="1068.02,-265.65 1062.65,-256.51 1061.15,-267 1068.02,-265.65"/>
</g>
<!-- j3752119938 -->
<g id="node49" class="node">
<title>j3752119938</title>
<polygon fill="none" stroke="blue" points="633.5,-728 252.5,-728 252.5,-692 633.5,-692 633.5,-728"/>
<text text-anchor="middle" x="443" y="-706.3" font-family="Times New Roman,serif" font-size="14.00">у холодному поту й тремтінні наче йому трясця вісім рочків</text>
</g>
<!-- j837876286&#45;&gt;j3752119938 -->
<g id="edge56" class="edge">
<title>j837876286&#45;&gt;j3752119938</title>
<path fill="none" stroke="black" d="M430.12,-764.81C431.97,-757.05 434.22,-747.68 436.31,-738.95"/>
<polygon fill="black" stroke="black" points="439.65,-740.04 438.57,-729.5 432.84,-738.41 439.65,-740.04"/>
</g>
<!-- j1958041516 -->
<g id="node50" class="node">
<title>j1958041516</title>
<ellipse fill="none" stroke="orange" cx="915" cy="-164" rx="124.28" ry="18"/>
<text text-anchor="middle" x="915" y="-160.3" font-family="Times New Roman,serif" font-size="14.00">Boolean AmirFight is now true.</text>
</g>
<!-- j1744908671&#45;&gt;j1958041516 -->
<g id="edge57" class="edge">
<title>j1744908671&#45;&gt;j1958041516</title>
<path fill="none" stroke="black" d="M1023.77,-218.63C1004.26,-209.01 979.81,-196.96 959.04,-186.72"/>
<polygon fill="black" stroke="black" points="960.75,-183.65 950.23,-182.37 957.65,-189.93 960.75,-183.65"/>
</g>
<!-- j1745469561 -->
<g id="node51" class="node">
<title>j1745469561</title>
<polygon fill="none" stroke="blue" points="477.5,-655 416.5,-655 416.5,-619 477.5,-619 477.5,-655"/>
<text text-anchor="middle" x="447" y="-633.3" font-family="Times New Roman,serif" font-size="14.00">паінкер</text>
</g>
<!-- j3752119938&#45;&gt;j1745469561 -->
<g id="edge58" class="edge">
<title>j3752119938&#45;&gt;j1745469561</title>
<path fill="none" stroke="black" d="M443.97,-691.81C444.4,-684.14 444.92,-674.89 445.41,-666.24"/>
<polygon fill="black" stroke="black" points="448.89,-666.72 445.96,-656.54 441.9,-666.33 448.89,-666.72"/>
</g>
<!-- j2895199346 -->
<g id="node52" class="node">
<title>j2895199346</title>
<ellipse fill="none" stroke="orange" cx="815" cy="-91" rx="64.19" ry="18"/>
<text text-anchor="middle" x="815" y="-87.3" font-family="Times New Roman,serif" font-size="14.00">+20 Chemistry</text>
</g>
<!-- j1958041516&#45;&gt;j2895199346 -->
<g id="edge59" class="edge">
<title>j1958041516&#45;&gt;j2895199346</title>
<path fill="none" stroke="black" d="M891.05,-145.99C877.78,-136.57 861.11,-124.74 846.76,-114.55"/>
<polygon fill="black" stroke="black" points="849.14,-111.95 838.96,-109.01 845.09,-117.66 849.14,-111.95"/>
</g>
<!-- j3223131463 -->
<g id="node53" class="node">
<title>j3223131463</title>
<polygon fill="none" stroke="blue" points="510.5,-582 391.5,-582 391.5,-546 510.5,-546 510.5,-582"/>
<text text-anchor="middle" x="451" y="-560.3" font-family="Times New Roman,serif" font-size="14.00">бо все що я бачу</text>
</g>
<!-- j1745469561&#45;&gt;j3223131463 -->
<g id="edge60" class="edge">
<title>j1745469561&#45;&gt;j3223131463</title>
<path fill="none" stroke="black" d="M447.97,-618.81C448.4,-611.14 448.92,-601.89 449.41,-593.24"/>
<polygon fill="black" stroke="black" points="452.89,-593.72 449.96,-583.54 445.9,-593.33 452.89,-593.72"/>
</g>
<!-- j2895199346&#45;&gt;Chat ends. -->
<g id="edge61" class="edge">
<title>j2895199346&#45;&gt;Chat ends.</title>
<path fill="none" stroke="black" d="M815,-72.81C815,-65.23 815,-56.1 815,-47.54"/>
<polygon fill="black" stroke="black" points="818.5,-47.54 815,-37.54 811.5,-47.54 818.5,-47.54"/>
</g>
<!-- j3778807952 -->
<g id="node54" class="node">
<title>j3778807952</title>
<polygon fill="none" stroke="blue" points="507,-509 397,-509 397,-473 507,-473 507,-509"/>
<text text-anchor="middle" x="452" y="-487.3" font-family="Times New Roman,serif" font-size="14.00">це їхні обличчя</text>
</g>
<!-- j3223131463&#45;&gt;j3778807952 -->
<g id="edge62" class="edge">
<title>j3223131463&#45;&gt;j3778807952</title>
<path fill="none" stroke="black" d="M451.24,-545.81C451.35,-538.23 451.48,-529.1 451.6,-520.54"/>
<polygon fill="black" stroke="black" points="455.1,-520.59 451.74,-510.54 448.1,-520.49 455.1,-520.59"/>
</g>
<!-- j2820133563 -->
<g id="node55" class="node">
<title>j2820133563</title>
<polygon fill="none" stroke="blue" points="536,-401 384,-401 384,-365 536,-365 536,-401"/>
<text text-anchor="middle" x="460" y="-379.3" font-family="Times New Roman,serif" font-size="14.00">обличчя людей яких я</text>
</g>
<!-- j3778807952&#45;&gt;j2820133563 -->
<g id="edge63" class="edge">
<title>j3778807952&#45;&gt;j2820133563</title>
<path fill="none" stroke="black" d="M453.29,-472.97C454.51,-456.76 456.37,-432.06 457.83,-412.79"/>
<polygon fill="black" stroke="black" points="461.31,-413.08 458.58,-402.85 454.33,-412.56 461.31,-413.08"/>
</g>
<!-- j4113500189 -->
<g id="node56" class="node">
<title>j4113500189</title>
<polygon fill="none" stroke="blue" points="508.5,-328 423.5,-328 423.5,-292 508.5,-292 508.5,-328"/>
<text text-anchor="middle" x="466" y="-306.3" font-family="Times New Roman,serif" font-size="14.00">яких мусив</text>
</g>
<!-- j2820133563&#45;&gt;j4113500189 -->
<g id="edge64" class="edge">
<title>j2820133563&#45;&gt;j4113500189</title>
<path fill="none" stroke="black" d="M461.45,-364.81C462.1,-357.14 462.88,-347.89 463.61,-339.24"/>
<polygon fill="black" stroke="black" points="467.08,-339.8 464.43,-329.54 460.1,-339.21 467.08,-339.8"/>
</g>
<!-- j2819835600 -->
<g id="node57" class="node">
<title>j2819835600</title>
<polygon fill="none" stroke="blue" points="650.5,-255 327.5,-255 327.5,-219 650.5,-219 650.5,-255"/>
<text text-anchor="middle" x="489" y="-233.3" font-family="Times New Roman,serif" font-size="14.00">пробачянеможуцьогозаразробитименідужеприкро</text>
</g>
<!-- j4113500189&#45;&gt;j2819835600 -->
<g id="edge65" class="edge">
<title>j4113500189&#45;&gt;j2819835600</title>
<path fill="none" stroke="black" d="M471.57,-291.81C474.08,-284.05 477.12,-274.68 479.95,-265.95"/>
<polygon fill="black" stroke="black" points="483.26,-267.06 483.02,-256.47 476.61,-264.9 483.26,-267.06"/>
</g>
<!-- j1396294820 -->
<g id="node58" class="node">
<title>j1396294820</title>
<ellipse fill="none" stroke="orange" cx="510" cy="-164" rx="147.57" ry="18"/>
<text text-anchor="middle" x="510" y="-160.3" font-family="Times New Roman,serif" font-size="14.00">Boolean AmirNightmare1 is now true.</text>
</g>
<!-- j2819835600&#45;&gt;j1396294820 -->
<g id="edge66" class="edge">
<title>j2819835600&#45;&gt;j1396294820</title>
<path fill="none" stroke="black" d="M494.08,-218.81C496.38,-211.05 499.15,-201.68 501.73,-192.95"/>
<polygon fill="black" stroke="black" points="505.05,-194.06 504.53,-183.48 498.34,-192.08 505.05,-194.06"/>
</g>
<!-- j1396294820&#45;&gt;j2895199346 -->
<g id="edge67" class="edge">
<title>j1396294820&#45;&gt;j2895199346</title>
<path fill="none" stroke="black" d="M576.56,-147.51C630.12,-135.04 704.68,-117.68 756.1,-105.71"/>
<polygon fill="black" stroke="black" points="756.6,-109.19 765.55,-103.51 755.02,-102.37 756.6,-109.19"/>
</g>
</g>
</svg>
