<?xml version="1.0" encoding="UTF-8" standalone="no"?>
<!DOCTYPE svg PUBLIC "-//W3C//DTD SVG 1.1//EN"
 "http://www.w3.org/Graphics/SVG/1.1/DTD/svg11.dtd">
<!-- Generated by graphviz version 7.1.0 (20230121.1956)
 -->
<!-- Pages: 1 -->
<svg width="1702pt" height="2764pt"
 viewBox="0.00 0.00 1702.00 2764.00" xmlns="http://www.w3.org/2000/svg" xmlns:xlink="http://www.w3.org/1999/xlink">
<g id="graph0" class="graph" transform="scale(1 1) rotate(0) translate(4 2760)">
<polygon fill="white" stroke="none" points="-4,4 -4,-2760 1698,-2760 1698,4 -4,4"/>
<!-- AmirRank2Convo4 begins. -->
<g id="node1" class="node">
<title>AmirRank2Convo4 begins.</title>
<ellipse fill="none" stroke="orange" cx="532" cy="-2738" rx="109.68" ry="18"/>
<text text-anchor="middle" x="532" y="-2734.3" font-family="Times New Roman,serif" font-size="14.00">AmirRank2Convo4 begins.</text>
</g>
<!-- j2426787944 -->
<g id="node2" class="node">
<title>j2426787944</title>
<ellipse fill="none" stroke="orange" cx="532" cy="-2665" rx="112.38" ry="18"/>
<text text-anchor="middle" x="532" y="-2661.3" font-family="Times New Roman,serif" font-size="14.00">Check boolean NameFuture</text>
</g>
<!-- AmirRank2Convo4 begins.&#45;&gt;j2426787944 -->
<g id="edge1" class="edge">
<title>AmirRank2Convo4 begins.&#45;&gt;j2426787944</title>
<path fill="none" stroke="black" d="M532,-2719.81C532,-2712.23 532,-2703.1 532,-2694.54"/>
<polygon fill="black" stroke="black" points="535.5,-2694.54 532,-2684.54 528.5,-2694.54 535.5,-2694.54"/>
</g>
<!-- j2614069625 -->
<g id="node3" class="node">
<title>j2614069625</title>
<polygon fill="none" stroke="blue" points="525,-2596 409,-2596 409,-2560 525,-2560 525,-2596"/>
<text text-anchor="middle" x="467" y="-2574.3" font-family="Times New Roman,serif" font-size="14.00">cześć, przyszłość</text>
</g>
<!-- j2426787944&#45;&gt;j2614069625 -->
<g id="edge2" class="edge">
<title>j2426787944&#45;&gt;j2614069625</title>
<path fill="none" stroke="green" d="M518.85,-2646.8C509.74,-2634.9 497.46,-2618.83 487.13,-2605.32"/>
<polygon fill="green" stroke="green" points="490.13,-2603.49 481.28,-2597.67 484.57,-2607.74 490.13,-2603.49"/>
<text text-anchor="middle" x="515" y="-2617.8" font-family="Times New Roman,serif" font-size="14.00">true</text>
</g>
<!-- j3948329248 -->
<g id="node4" class="node">
<title>j3948329248</title>
<polygon fill="none" stroke="blue" points="652.5,-2596 543.5,-2596 543.5,-2560 652.5,-2560 652.5,-2596"/>
<text text-anchor="middle" x="598" y="-2574.3" font-family="Times New Roman,serif" font-size="14.00">cześć, włóczęgo</text>
</g>
<!-- j2426787944&#45;&gt;j3948329248 -->
<g id="edge3" class="edge">
<title>j2426787944&#45;&gt;j3948329248</title>
<path fill="none" stroke="brown" d="M545.36,-2646.8C554.6,-2634.9 567.07,-2618.83 577.56,-2605.32"/>
<polygon fill="brown" stroke="brown" points="580.14,-2607.71 583.51,-2597.66 574.61,-2603.41 580.14,-2607.71"/>
<text text-anchor="middle" x="581" y="-2617.8" font-family="Times New Roman,serif" font-size="14.00">false</text>
</g>
<!-- j783759783 -->
<g id="node5" class="node">
<title>j783759783</title>
<ellipse fill="none" stroke="orange" cx="532" cy="-2505" rx="126.18" ry="18"/>
<text text-anchor="middle" x="532" y="-2501.3" font-family="Times New Roman,serif" font-size="14.00">Check boolean AmirGameDev1</text>
</g>
<!-- j2614069625&#45;&gt;j783759783 -->
<g id="edge4" class="edge">
<title>j2614069625&#45;&gt;j783759783</title>
<path fill="none" stroke="black" d="M482.73,-2559.81C490.56,-2551.27 500.17,-2540.77 508.82,-2531.32"/>
<polygon fill="black" stroke="black" points="511.22,-2533.88 515.39,-2524.15 506.05,-2529.16 511.22,-2533.88"/>
</g>
<!-- j3948329248&#45;&gt;j783759783 -->
<g id="edge5" class="edge">
<title>j3948329248&#45;&gt;j783759783</title>
<path fill="none" stroke="black" d="M582.02,-2559.81C574.08,-2551.27 564.32,-2540.77 555.54,-2531.32"/>
<polygon fill="black" stroke="black" points="558.23,-2529.08 548.86,-2524.14 553.11,-2533.84 558.23,-2529.08"/>
</g>
<!-- j2871059273 -->
<g id="node6" class="node">
<title>j2871059273</title>
<polygon fill="none" stroke="blue" points="738,-2436 526,-2436 526,-2400 738,-2400 738,-2436"/>
<text text-anchor="middle" x="632" y="-2414.3" font-family="Times New Roman,serif" font-size="14.00">pamiętasz tę grę nad którą pracuję?</text>
</g>
<!-- j783759783&#45;&gt;j2871059273 -->
<g id="edge6" class="edge">
<title>j783759783&#45;&gt;j2871059273</title>
<path fill="none" stroke="green" d="M552.24,-2486.8C566.78,-2474.44 586.6,-2457.59 602.85,-2443.78"/>
<polygon fill="green" stroke="green" points="604.94,-2446.59 610.3,-2437.45 600.41,-2441.26 604.94,-2446.59"/>
<text text-anchor="middle" x="598" y="-2457.8" font-family="Times New Roman,serif" font-size="14.00">true</text>
</g>
<!-- j357127737 -->
<g id="node7" class="node">
<title>j357127737</title>
<polygon fill="none" stroke="blue" points="495.5,-2436 394.5,-2436 394.5,-2400 495.5,-2400 495.5,-2436"/>
<text text-anchor="middle" x="445" y="-2414.3" font-family="Times New Roman,serif" font-size="14.00">masz sekundę?</text>
</g>
<!-- j783759783&#45;&gt;j357127737 -->
<g id="edge7" class="edge">
<title>j783759783&#45;&gt;j357127737</title>
<path fill="none" stroke="brown" d="M514.39,-2486.8C501.86,-2474.55 484.81,-2457.9 470.75,-2444.16"/>
<polygon fill="brown" stroke="brown" points="473.56,-2442.01 463.96,-2437.52 468.67,-2447.02 473.56,-2442.01"/>
<text text-anchor="middle" x="507" y="-2457.8" font-family="Times New Roman,serif" font-size="14.00">false</text>
</g>
<!-- j4291829651 -->
<g id="node8" class="node">
<title>j4291829651</title>
<polygon fill="none" stroke="red" points="817,-2363 763,-2363 763,-2327 817,-2327 817,-2363"/>
<text text-anchor="middle" x="790" y="-2341.3" font-family="Times New Roman,serif" font-size="14.00">Tak?</text>
</g>
<!-- j2871059273&#45;&gt;j4291829651 -->
<g id="edge8" class="edge">
<title>j2871059273&#45;&gt;j4291829651</title>
<path fill="none" stroke="black" d="M670.65,-2399.63C695.48,-2388.47 727.58,-2374.05 752.23,-2362.97"/>
<polygon fill="black" stroke="black" points="753.57,-2366.21 761.26,-2358.91 750.71,-2359.82 753.57,-2366.21"/>
</g>
<!-- j3899013418 -->
<g id="node9" class="node">
<title>j3899013418</title>
<polygon fill="none" stroke="red" points="696.5,-2363 627.5,-2363 627.5,-2327 696.5,-2327 696.5,-2363"/>
<text text-anchor="middle" x="662" y="-2341.3" font-family="Times New Roman,serif" font-size="14.00">Co z nią?</text>
</g>
<!-- j2871059273&#45;&gt;j3899013418 -->
<g id="edge9" class="edge">
<title>j2871059273&#45;&gt;j3899013418</title>
<path fill="none" stroke="black" d="M639.26,-2399.81C642.62,-2391.88 646.68,-2382.26 650.44,-2373.36"/>
<polygon fill="black" stroke="black" points="653.55,-2375 654.22,-2364.42 647.1,-2372.27 653.55,-2375"/>
</g>
<!-- j775596922 -->
<g id="node10" class="node">
<title>j775596922</title>
<polygon fill="none" stroke="red" points="400,-2363 186,-2363 186,-2327 400,-2327 400,-2363"/>
<text text-anchor="middle" x="293" y="-2341.3" font-family="Times New Roman,serif" font-size="14.00">Sorry, pogadamy później. [Koniec]</text>
</g>
<!-- j2871059273&#45;&gt;j775596922 -->
<g id="edge10" class="edge">
<title>j2871059273&#45;&gt;j775596922</title>
<path fill="none" stroke="black" d="M548.64,-2399.54C499.78,-2389.31 437.92,-2376.35 387.29,-2365.75"/>
<polygon fill="black" stroke="black" points="388.32,-2362.39 377.82,-2363.76 386.89,-2369.24 388.32,-2362.39"/>
</g>
<!-- j357127737&#45;&gt;j775596922 -->
<g id="edge12" class="edge">
<title>j357127737&#45;&gt;j775596922</title>
<path fill="none" stroke="black" d="M407.82,-2399.63C387.57,-2390.18 362.31,-2378.38 340.64,-2368.25"/>
<polygon fill="black" stroke="black" points="342.24,-2365.14 331.7,-2364.08 339.28,-2371.48 342.24,-2365.14"/>
</g>
<!-- j4138282713 -->
<g id="node11" class="node">
<title>j4138282713</title>
<polygon fill="none" stroke="red" points="472,-2363 418,-2363 418,-2327 472,-2327 472,-2363"/>
<text text-anchor="middle" x="445" y="-2341.3" font-family="Times New Roman,serif" font-size="14.00">Tak?</text>
</g>
<!-- j357127737&#45;&gt;j4138282713 -->
<g id="edge11" class="edge">
<title>j357127737&#45;&gt;j4138282713</title>
<path fill="none" stroke="black" d="M445,-2399.81C445,-2392.23 445,-2383.1 445,-2374.54"/>
<polygon fill="black" stroke="black" points="448.5,-2374.54 445,-2364.54 441.5,-2374.54 448.5,-2374.54"/>
</g>
<!-- j2969054273 -->
<g id="node12" class="node">
<title>j2969054273</title>
<polygon fill="none" stroke="blue" points="1043.5,-2290 546.5,-2290 546.5,-2254 1043.5,-2254 1043.5,-2290"/>
<text text-anchor="middle" x="795" y="-2268.3" font-family="Times New Roman,serif" font-size="14.00">miałbyś coś przeciw gdybym pogadał z tobą o kilku pomysłach? muszę je przemyśleć</text>
</g>
<!-- j4291829651&#45;&gt;j2969054273 -->
<g id="edge13" class="edge">
<title>j4291829651&#45;&gt;j2969054273</title>
<path fill="none" stroke="black" d="M791.21,-2326.81C791.75,-2319.14 792.4,-2309.89 793.01,-2301.24"/>
<polygon fill="black" stroke="black" points="796.48,-2301.76 793.69,-2291.54 789.5,-2301.27 796.48,-2301.76"/>
</g>
<!-- j3899013418&#45;&gt;j2969054273 -->
<g id="edge14" class="edge">
<title>j3899013418&#45;&gt;j2969054273</title>
<path fill="none" stroke="black" d="M694.54,-2326.63C711.93,-2317.35 733.55,-2305.8 752.28,-2295.81"/>
<polygon fill="black" stroke="black" points="753.83,-2298.95 761,-2291.15 750.53,-2292.77 753.83,-2298.95"/>
</g>
<!-- Chat ends. -->
<g id="node13" class="node">
<title>Chat ends.</title>
<ellipse fill="none" stroke="orange" cx="98" cy="-18" rx="50.09" ry="18"/>
<text text-anchor="middle" x="98" y="-14.3" font-family="Times New Roman,serif" font-size="14.00">Chat ends.</text>
</g>
<!-- j775596922&#45;&gt;Chat ends. -->
<g id="edge15" class="edge">
<title>j775596922&#45;&gt;Chat ends.</title>
<path fill="none" stroke="black" d="M185.56,-2337.91C101.94,-2330.12 0,-2312.52 0,-2273 0,-2273 0,-2273 0,-90 0,-63.07 24.57,-45.31 49.11,-34.28"/>
<polygon fill="black" stroke="black" points="50.25,-37.6 58.15,-30.54 47.57,-31.13 50.25,-37.6"/>
</g>
<!-- j673074307 -->
<g id="node14" class="node">
<title>j673074307</title>
<polygon fill="none" stroke="blue" points="528.5,-2290 163.5,-2290 163.5,-2254 528.5,-2254 528.5,-2290"/>
<text text-anchor="middle" x="346" y="-2268.3" font-family="Times New Roman,serif" font-size="14.00">ok ale się nie śmiej, w wolnym czasie tworzę grę komputerową</text>
</g>
<!-- j4138282713&#45;&gt;j673074307 -->
<g id="edge16" class="edge">
<title>j4138282713&#45;&gt;j673074307</title>
<path fill="none" stroke="black" d="M420.78,-2326.63C408.32,-2317.69 392.93,-2306.66 379.36,-2296.92"/>
<polygon fill="black" stroke="black" points="381.71,-2294.3 371.54,-2291.32 377.63,-2299.99 381.71,-2294.3"/>
</g>
<!-- j2282032663 -->
<g id="node15" class="node">
<title>j2282032663</title>
<polygon fill="none" stroke="blue" points="1290.5,-2163 591.5,-2163 591.5,-2127 1290.5,-2127 1290.5,-2163"/>
<text text-anchor="middle" x="941" y="-2141.3" font-family="Times New Roman,serif" font-size="14.00">OMÓWIŁBYM to z kimś ale jeśli obrzucę kogokolwiek z hex kolejnymi pomysłami to chyba zamkną mnie w śmietniku lol</text>
</g>
<!-- j2969054273&#45;&gt;j2282032663 -->
<g id="edge17" class="edge">
<title>j2969054273&#45;&gt;j2282032663</title>
<path fill="none" stroke="black" d="M815.3,-2253.62C840.47,-2232.07 883.54,-2195.2 912.14,-2170.71"/>
<polygon fill="black" stroke="black" points="914.4,-2173.38 919.72,-2164.22 909.85,-2168.06 914.4,-2173.38"/>
</g>
<!-- j2736811346 -->
<g id="node16" class="node">
<title>j2736811346</title>
<ellipse fill="none" stroke="orange" cx="346" cy="-2199" rx="146.47" ry="18"/>
<text text-anchor="middle" x="346" y="-2195.3" font-family="Times New Roman,serif" font-size="14.00">Boolean AmirGameDev1 is now true.</text>
</g>
<!-- j673074307&#45;&gt;j2736811346 -->
<g id="edge18" class="edge">
<title>j673074307&#45;&gt;j2736811346</title>
<path fill="none" stroke="black" d="M346,-2253.81C346,-2246.23 346,-2237.1 346,-2228.54"/>
<polygon fill="black" stroke="black" points="349.5,-2228.54 346,-2218.54 342.5,-2228.54 349.5,-2228.54"/>
</g>
<!-- j571424740 -->
<g id="node17" class="node">
<title>j571424740</title>
<ellipse fill="none" stroke="orange" cx="683" cy="-1402" rx="146.47" ry="18"/>
<text text-anchor="middle" x="683" y="-1398.3" font-family="Times New Roman,serif" font-size="14.00">Boolean AmirGameDev2 is now true.</text>
</g>
<!-- j2282032663&#45;&gt;j571424740 -->
<g id="edge19" class="edge">
<title>j2282032663&#45;&gt;j571424740</title>
<path fill="none" stroke="black" d="M1000.4,-2126.5C1040.44,-2110.64 1086,-2082.75 1086,-2038 1086,-2038 1086,-2038 1086,-1474 1086,-1445.85 931.49,-1425.34 813.82,-1413.8"/>
<polygon fill="black" stroke="black" points="814.35,-1410.33 804.06,-1412.86 813.67,-1417.3 814.35,-1410.33"/>
</g>
<!-- j1134960990 -->
<g id="node18" class="node">
<title>j1134960990</title>
<polygon fill="none" stroke="red" points="388.5,-2055 293.5,-2055 293.5,-2019 388.5,-2019 388.5,-2055"/>
<text text-anchor="middle" x="341" y="-2033.3" font-family="Times New Roman,serif" font-size="14.00">To zajebiście!</text>
</g>
<!-- j2736811346&#45;&gt;j1134960990 -->
<g id="edge20" class="edge">
<title>j2736811346&#45;&gt;j1134960990</title>
<path fill="none" stroke="black" d="M345.46,-2180.57C344.6,-2153.16 342.93,-2099.69 341.89,-2066.59"/>
<polygon fill="black" stroke="black" points="345.4,-2066.8 341.59,-2056.92 338.41,-2067.02 345.4,-2066.8"/>
</g>
<!-- j3503755853 -->
<g id="node19" class="node">
<title>j3503755853</title>
<polygon fill="none" stroke="red" points="520.5,-2109 377.5,-2109 377.5,-2073 520.5,-2073 520.5,-2109"/>
<text text-anchor="middle" x="449" y="-2087.3" font-family="Times New Roman,serif" font-size="14.00">Dlaczego się śmiejesz?</text>
</g>
<!-- j2736811346&#45;&gt;j3503755853 -->
<g id="edge21" class="edge">
<title>j2736811346&#45;&gt;j3503755853</title>
<path fill="none" stroke="black" d="M362.55,-2180.97C379.19,-2163.84 405.06,-2137.22 424.16,-2117.56"/>
<polygon fill="black" stroke="black" points="426.64,-2120.04 431.1,-2110.43 421.62,-2115.16 426.64,-2120.04"/>
</g>
<!-- j3424890730 -->
<g id="node20" class="node">
<title>j3424890730</title>
<polygon fill="none" stroke="red" points="317.5,-2109 28.5,-2109 28.5,-2073 317.5,-2073 317.5,-2109"/>
<text text-anchor="middle" x="173" y="-2087.3" font-family="Times New Roman,serif" font-size="14.00">Potrzebujesz lepszych zainteresowań, człowieku.</text>
</g>
<!-- j2736811346&#45;&gt;j3424890730 -->
<g id="edge22" class="edge">
<title>j2736811346&#45;&gt;j3424890730</title>
<path fill="none" stroke="black" d="M318.2,-2180.97C289.12,-2163.15 243.27,-2135.06 210.89,-2115.21"/>
<polygon fill="black" stroke="black" points="212.95,-2112.37 202.59,-2110.13 209.29,-2118.34 212.95,-2112.37"/>
</g>
<!-- j2459391881 -->
<g id="node21" class="node">
<title>j2459391881</title>
<polygon fill="none" stroke="red" points="671.5,-1347 554.5,-1347 554.5,-1311 671.5,-1311 671.5,-1347"/>
<text text-anchor="middle" x="613" y="-1325.3" font-family="Times New Roman,serif" font-size="14.00">Z chęcią pomogę.</text>
</g>
<!-- j571424740&#45;&gt;j2459391881 -->
<g id="edge23" class="edge">
<title>j571424740&#45;&gt;j2459391881</title>
<path fill="none" stroke="black" d="M666.05,-1383.81C657.54,-1375.18 647.07,-1364.56 637.68,-1355.03"/>
<polygon fill="black" stroke="black" points="640.36,-1352.77 630.85,-1348.11 635.38,-1357.68 640.36,-1352.77"/>
</g>
<!-- j982910161 -->
<g id="node22" class="node">
<title>j982910161</title>
<polygon fill="none" stroke="red" points="746.5,-1347 689.5,-1347 689.5,-1311 746.5,-1311 746.5,-1347"/>
<text text-anchor="middle" x="718" y="-1325.3" font-family="Times New Roman,serif" font-size="14.00">Dajesz.</text>
</g>
<!-- j571424740&#45;&gt;j982910161 -->
<g id="edge24" class="edge">
<title>j571424740&#45;&gt;j982910161</title>
<path fill="none" stroke="black" d="M691.47,-1383.81C695.43,-1375.79 700.23,-1366.05 704.66,-1357.07"/>
<polygon fill="black" stroke="black" points="707.65,-1358.9 708.94,-1348.39 701.38,-1355.81 707.65,-1358.9"/>
</g>
<!-- j2057550693 -->
<g id="node23" class="node">
<title>j2057550693</title>
<polygon fill="none" stroke="red" points="462.5,-1347 235.5,-1347 235.5,-1311 462.5,-1311 462.5,-1347"/>
<text text-anchor="middle" x="349" y="-1325.3" font-family="Times New Roman,serif" font-size="14.00">Wolałbym zjeść swoje stare skarpety.</text>
</g>
<!-- j571424740&#45;&gt;j2057550693 -->
<g id="edge25" class="edge">
<title>j571424740&#45;&gt;j2057550693</title>
<path fill="none" stroke="black" d="M611.76,-1385.86C562.39,-1375.36 496.16,-1361.28 442.55,-1349.89"/>
<polygon fill="black" stroke="black" points="443.3,-1346.47 432.79,-1347.81 441.84,-1353.31 443.3,-1346.47"/>
</g>
<!-- j2040538526 -->
<g id="node24" class="node">
<title>j2040538526</title>
<polygon fill="none" stroke="blue" points="400.5,-1893 247.5,-1893 247.5,-1857 400.5,-1857 400.5,-1893"/>
<text text-anchor="middle" x="324" y="-1871.3" font-family="Times New Roman,serif" font-size="14.00">naprawdę... tak myślisz?</text>
</g>
<!-- j1134960990&#45;&gt;j2040538526 -->
<g id="edge26" class="edge">
<title>j1134960990&#45;&gt;j2040538526</title>
<path fill="none" stroke="black" d="M339.15,-2018.57C336.24,-1991.16 330.55,-1937.69 327.04,-1904.59"/>
<polygon fill="black" stroke="black" points="330.55,-1904.49 326.01,-1894.91 323.59,-1905.22 330.55,-1904.49"/>
</g>
<!-- j1144085448 -->
<g id="node25" class="node">
<title>j1144085448</title>
<polygon fill="none" stroke="blue" points="555.5,-2001 372.5,-2001 372.5,-1965 555.5,-1965 555.5,-2001"/>
<text text-anchor="middle" x="464" y="-1979.3" font-family="Times New Roman,serif" font-size="14.00">nie próbuję się na sobą użalać</text>
</g>
<!-- j3503755853&#45;&gt;j1144085448 -->
<g id="edge27" class="edge">
<title>j3503755853&#45;&gt;j1144085448</title>
<path fill="none" stroke="black" d="M451.41,-2072.97C453.71,-2056.69 457.23,-2031.82 459.96,-2012.52"/>
<polygon fill="black" stroke="black" points="463.4,-2013.23 461.33,-2002.84 456.47,-2012.25 463.4,-2013.23"/>
</g>
<!-- j1552927143 -->
<g id="node26" class="node">
<title>j1552927143</title>
<polygon fill="none" stroke="blue" points="227.5,-1947 30.5,-1947 30.5,-1911 227.5,-1911 227.5,-1947"/>
<text text-anchor="middle" x="129" y="-1925.3" font-family="Times New Roman,serif" font-size="14.00">przynajmniej mnie nie wyśmiałeś</text>
</g>
<!-- j3424890730&#45;&gt;j1552927143 -->
<g id="edge28" class="edge">
<title>j3424890730&#45;&gt;j1552927143</title>
<path fill="none" stroke="black" d="M168.21,-2072.57C160.64,-2045.04 145.84,-1991.22 136.74,-1958.16"/>
<polygon fill="black" stroke="black" points="140.21,-1957.58 134.19,-1948.87 133.46,-1959.44 140.21,-1957.58"/>
</g>
<!-- j1172230651 -->
<g id="node27" class="node">
<title>j1172230651</title>
<polygon fill="none" stroke="blue" points="681,-1274 627,-1274 627,-1238 681,-1238 681,-1274"/>
<text text-anchor="middle" x="654" y="-1252.3" font-family="Times New Roman,serif" font-size="14.00">sł0dk0</text>
</g>
<!-- j2459391881&#45;&gt;j1172230651 -->
<g id="edge29" class="edge">
<title>j2459391881&#45;&gt;j1172230651</title>
<path fill="none" stroke="black" d="M622.92,-1310.81C627.61,-1302.7 633.31,-1292.84 638.54,-1283.78"/>
<polygon fill="black" stroke="black" points="641.44,-1285.75 643.41,-1275.34 635.38,-1282.25 641.44,-1285.75"/>
</g>
<!-- j982910161&#45;&gt;j1172230651 -->
<g id="edge30" class="edge">
<title>j982910161&#45;&gt;j1172230651</title>
<path fill="none" stroke="black" d="M702.51,-1310.81C694.8,-1302.27 685.34,-1291.77 676.83,-1282.32"/>
<polygon fill="black" stroke="black" points="679.66,-1280.24 670.36,-1275.15 674.46,-1284.92 679.66,-1280.24"/>
</g>
<!-- j2736099161 -->
<g id="node28" class="node">
<title>j2736099161</title>
<polygon fill="none" stroke="blue" points="308.5,-1220 241.5,-1220 241.5,-1184 308.5,-1184 308.5,-1220"/>
<text text-anchor="middle" x="275" y="-1198.3" font-family="Times New Roman,serif" font-size="14.00">nieważne</text>
</g>
<!-- j2057550693&#45;&gt;j2736099161 -->
<g id="edge31" class="edge">
<title>j2057550693&#45;&gt;j2736099161</title>
<path fill="none" stroke="black" d="M338.71,-1310.62C326.34,-1289.72 305.44,-1254.42 290.97,-1229.97"/>
<polygon fill="black" stroke="black" points="294.08,-1228.36 285.97,-1221.54 288.06,-1231.92 294.08,-1228.36"/>
</g>
<!-- j2027725350 -->
<g id="node29" class="node">
<title>j2027725350</title>
<polygon fill="none" stroke="red" points="376,-1820 272,-1820 272,-1784 376,-1784 376,-1820"/>
<text text-anchor="middle" x="324" y="-1798.3" font-family="Times New Roman,serif" font-size="14.00">Tak, naprawdę.</text>
</g>
<!-- j2040538526&#45;&gt;j2027725350 -->
<g id="edge32" class="edge">
<title>j2040538526&#45;&gt;j2027725350</title>
<path fill="none" stroke="black" d="M324,-1856.81C324,-1849.23 324,-1840.1 324,-1831.54"/>
<polygon fill="black" stroke="black" points="327.5,-1831.54 324,-1821.54 320.5,-1831.54 327.5,-1831.54"/>
</g>
<!-- j1324990557 -->
<g id="node30" class="node">
<title>j1324990557</title>
<polygon fill="none" stroke="red" points="254,-1820 66,-1820 66,-1784 254,-1784 254,-1820"/>
<text text-anchor="middle" x="160" y="-1798.3" font-family="Times New Roman,serif" font-size="14.00">Nie. Po prostu z ciebie żartuję.</text>
</g>
<!-- j2040538526&#45;&gt;j1324990557 -->
<g id="edge33" class="edge">
<title>j2040538526&#45;&gt;j1324990557</title>
<path fill="none" stroke="black" d="M283.88,-1856.63C261.84,-1847.09 234.29,-1835.16 210.76,-1824.98"/>
<polygon fill="black" stroke="black" points="212.23,-1821.8 201.66,-1821.04 209.45,-1828.22 212.23,-1821.8"/>
</g>
<!-- j2458699183 -->
<g id="node31" class="node">
<title>j2458699183</title>
<polygon fill="none" stroke="blue" points="885.5,-1893 494.5,-1893 494.5,-1857 885.5,-1857 885.5,-1893"/>
<text text-anchor="middle" x="690" y="-1871.3" font-family="Times New Roman,serif" font-size="14.00">ale wszyscy inni się śmieją, więc dlaczego ty miałbyś się nie śmiać?</text>
</g>
<!-- j1144085448&#45;&gt;j2458699183 -->
<g id="edge34" class="edge">
<title>j1144085448&#45;&gt;j2458699183</title>
<path fill="none" stroke="black" d="M501.07,-1964.61C539.74,-1946.48 600.5,-1917.98 642.63,-1898.22"/>
<polygon fill="black" stroke="black" points="643.98,-1901.45 651.54,-1894.04 641,-1895.11 643.98,-1901.45"/>
</g>
<!-- j1552927143&#45;&gt;Chat ends. -->
<g id="edge35" class="edge">
<title>j1552927143&#45;&gt;Chat ends.</title>
<path fill="none" stroke="black" d="M92.77,-1910.54C67.4,-1895.51 38,-1871.15 38,-1839 38,-1839 38,-1839 38,-90 38,-70.62 51.2,-53.8 65.22,-41.4"/>
<polygon fill="black" stroke="black" points="67.24,-44.27 72.77,-35.23 62.81,-38.85 67.24,-44.27"/>
</g>
<!-- j1710651237 -->
<g id="node32" class="node">
<title>j1710651237</title>
<polygon fill="none" stroke="blue" points="805,-1166 503,-1166 503,-1130 805,-1130 805,-1166"/>
<text text-anchor="middle" x="654" y="-1144.3" font-family="Times New Roman,serif" font-size="14.00">no więęęc mam pewien problem z *drzwiami*, nie?</text>
</g>
<!-- j1172230651&#45;&gt;j1710651237 -->
<g id="edge36" class="edge">
<title>j1172230651&#45;&gt;j1710651237</title>
<path fill="none" stroke="black" d="M654,-1237.97C654,-1221.76 654,-1197.06 654,-1177.79"/>
<polygon fill="black" stroke="black" points="657.5,-1177.85 654,-1167.85 650.5,-1177.85 657.5,-1177.85"/>
</g>
<!-- j2736099161&#45;&gt;Chat ends. -->
<g id="edge37" class="edge">
<title>j2736099161&#45;&gt;Chat ends.</title>
<path fill="none" stroke="black" d="M241.11,-1197.05C194.68,-1189.53 117,-1168.51 117,-1112 117,-1112 117,-1112 117,-90 117,-75.39 113.2,-59.65 109,-46.71"/>
<polygon fill="black" stroke="black" points="112.41,-45.87 105.79,-37.59 105.81,-48.19 112.41,-45.87"/>
</g>
<!-- j1017975130 -->
<g id="node33" class="node">
<title>j1017975130</title>
<polygon fill="none" stroke="blue" points="475.5,-1747 390.5,-1747 390.5,-1711 475.5,-1711 475.5,-1747"/>
<text text-anchor="middle" x="433" y="-1725.3" font-family="Times New Roman,serif" font-size="14.00">... zajebiście</text>
</g>
<!-- j2027725350&#45;&gt;j1017975130 -->
<g id="edge38" class="edge">
<title>j2027725350&#45;&gt;j1017975130</title>
<path fill="none" stroke="black" d="M350.66,-1783.63C364.52,-1774.61 381.66,-1763.44 396.7,-1753.64"/>
<polygon fill="black" stroke="black" points="398.5,-1756.65 404.96,-1748.26 394.68,-1750.79 398.5,-1756.65"/>
</g>
<!-- j1442579397 -->
<g id="node34" class="node">
<title>j1442579397</title>
<polygon fill="none" stroke="blue" points="227.5,-1693 66.5,-1693 66.5,-1657 227.5,-1657 227.5,-1693"/>
<text text-anchor="middle" x="147" y="-1671.3" font-family="Times New Roman,serif" font-size="14.00">znowu dałem się nabrać...</text>
</g>
<!-- j1324990557&#45;&gt;j1442579397 -->
<g id="edge39" class="edge">
<title>j1324990557&#45;&gt;j1442579397</title>
<path fill="none" stroke="black" d="M158.19,-1783.62C156.07,-1763.19 152.51,-1728.99 149.98,-1704.62"/>
<polygon fill="black" stroke="black" points="153.46,-1704.32 148.95,-1694.74 146.5,-1705.05 153.46,-1704.32"/>
</g>
<!-- j3253619348 -->
<g id="node35" class="node">
<title>j3253619348</title>
<polygon fill="none" stroke="red" points="985.5,-1820 394.5,-1820 394.5,-1784 985.5,-1784 985.5,-1820"/>
<text text-anchor="middle" x="690" y="-1798.3" font-family="Times New Roman,serif" font-size="14.00">Nie będę oceniać ludzi po tym, co robią ze swoim wolnym czasem, uwierz mi. ...Nie zaczynaj o Duviri.</text>
</g>
<!-- j2458699183&#45;&gt;j3253619348 -->
<g id="edge40" class="edge">
<title>j2458699183&#45;&gt;j3253619348</title>
<path fill="none" stroke="black" d="M690,-1856.81C690,-1849.23 690,-1840.1 690,-1831.54"/>
<polygon fill="black" stroke="black" points="693.5,-1831.54 690,-1821.54 686.5,-1831.54 693.5,-1831.54"/>
</g>
<!-- j719238833 -->
<g id="node36" class="node">
<title>j719238833</title>
<polygon fill="none" stroke="red" points="1058,-1820 1004,-1820 1004,-1784 1058,-1784 1058,-1820"/>
<text text-anchor="middle" x="1031" y="-1798.3" font-family="Times New Roman,serif" font-size="14.00">Ojej.</text>
</g>
<!-- j2458699183&#45;&gt;j719238833 -->
<g id="edge41" class="edge">
<title>j2458699183&#45;&gt;j719238833</title>
<path fill="none" stroke="black" d="M834.27,-1856.52C882.61,-1848.68 936.64,-1837.77 992.89,-1820.24"/>
<polygon fill="black" stroke="black" points="993.88,-1823.6 1002.34,-1817.23 991.75,-1816.93 993.88,-1823.6"/>
</g>
<!-- j647655506 -->
<g id="node37" class="node">
<title>j647655506</title>
<polygon fill="none" stroke="red" points="670,-1039 592,-1039 592,-1003 670,-1003 670,-1039"/>
<text text-anchor="middle" x="631" y="-1017.3" font-family="Times New Roman,serif" font-size="14.00">Kontynuuj.</text>
</g>
<!-- j1710651237&#45;&gt;j647655506 -->
<g id="edge42" class="edge">
<title>j1710651237&#45;&gt;j647655506</title>
<path fill="none" stroke="black" d="M650.8,-1129.62C647.03,-1109.1 640.69,-1074.67 636.21,-1050.29"/>
<polygon fill="black" stroke="black" points="639.7,-1049.92 634.44,-1040.72 632.81,-1051.19 639.7,-1049.92"/>
</g>
<!-- j532338926 -->
<g id="node38" class="node">
<title>j532338926</title>
<polygon fill="none" stroke="red" points="744.5,-1093 677.5,-1093 677.5,-1057 744.5,-1057 744.5,-1093"/>
<text text-anchor="middle" x="711" y="-1071.3" font-family="Times New Roman,serif" font-size="14.00">Drzwi...?</text>
</g>
<!-- j1710651237&#45;&gt;j532338926 -->
<g id="edge43" class="edge">
<title>j1710651237&#45;&gt;j532338926</title>
<path fill="none" stroke="black" d="M667.8,-1129.81C674.52,-1121.44 682.74,-1111.2 690.2,-1101.9"/>
<polygon fill="black" stroke="black" points="692.85,-1104.2 696.38,-1094.21 687.39,-1099.82 692.85,-1104.2"/>
</g>
<!-- j2099721824 -->
<g id="node39" class="node">
<title>j2099721824</title>
<polygon fill="none" stroke="blue" points="821.5,-1639 544.5,-1639 544.5,-1603 821.5,-1603 821.5,-1639"/>
<text text-anchor="middle" x="683" y="-1617.3" font-family="Times New Roman,serif" font-size="14.00">mam kawałek do którego nie wiem jak podejść</text>
</g>
<!-- j1017975130&#45;&gt;j2099721824 -->
<g id="edge44" class="edge">
<title>j1017975130&#45;&gt;j2099721824</title>
<path fill="none" stroke="black" d="M474,-1710.61C517.05,-1692.36 584.85,-1663.62 631.48,-1643.84"/>
<polygon fill="black" stroke="black" points="632.74,-1647.11 640.58,-1639.99 630.01,-1640.67 632.74,-1647.11"/>
</g>
<!-- j1442579397&#45;&gt;Chat ends. -->
<g id="edge45" class="edge">
<title>j1442579397&#45;&gt;Chat ends.</title>
<path fill="none" stroke="black" d="M122.45,-1656.5C102.97,-1640.39 79,-1614.56 79,-1585 79,-1585 79,-1585 79,-90 79,-75.39 82.8,-59.65 87,-46.71"/>
<polygon fill="black" stroke="black" points="90.19,-48.19 90.21,-37.59 83.59,-45.87 90.19,-48.19"/>
</g>
<!-- j86897820 -->
<g id="node40" class="node">
<title>j86897820</title>
<polygon fill="none" stroke="red" points="778,-1747 602,-1747 602,-1711 778,-1711 778,-1747"/>
<text text-anchor="middle" x="690" y="-1725.3" font-family="Times New Roman,serif" font-size="14.00">W każdym razie. Twoja gra?</text>
</g>
<!-- j3253619348&#45;&gt;j86897820 -->
<g id="edge46" class="edge">
<title>j3253619348&#45;&gt;j86897820</title>
<path fill="none" stroke="black" d="M690,-1783.81C690,-1776.23 690,-1767.1 690,-1758.54"/>
<polygon fill="black" stroke="black" points="693.5,-1758.54 690,-1748.54 686.5,-1758.54 693.5,-1758.54"/>
</g>
<!-- j719238833&#45;&gt;j86897820 -->
<g id="edge47" class="edge">
<title>j719238833&#45;&gt;j86897820</title>
<path fill="none" stroke="black" d="M1003.79,-1787.23C1000.86,-1786.03 997.9,-1784.92 995,-1784 927.95,-1762.65 849.75,-1749.02 789.33,-1740.79"/>
<polygon fill="black" stroke="black" points="790.13,-1737.37 779.76,-1739.52 789.21,-1744.31 790.13,-1737.37"/>
</g>
<!-- j418403373 -->
<g id="node41" class="node">
<title>j418403373</title>
<polygon fill="none" stroke="blue" points="1303,-912 215,-912 215,-876 1303,-876 1303,-912"/>
<text text-anchor="middle" x="759" y="-890.3" font-family="Times New Roman,serif" font-size="14.00">OKEJ więc chcę stworzyć grę wieloosobową ale także platformówkę polegającą na eksploracji więc niektóre drzwi się otwierają i inne nie a niektóre są ZAMKNIĘTE i wymagają KLUCZA nie?</text>
</g>
<!-- j647655506&#45;&gt;j418403373 -->
<g id="edge48" class="edge">
<title>j647655506&#45;&gt;j418403373</title>
<path fill="none" stroke="black" d="M631.98,-1002.71C633.69,-987.1 638.35,-964.3 651,-949 662.07,-935.61 677.28,-925.24 692.8,-917.32"/>
<polygon fill="black" stroke="black" points="694.11,-920.58 701.64,-913.12 691.1,-914.25 694.11,-920.58"/>
</g>
<!-- j2657829583 -->
<g id="node42" class="node">
<title>j2657829583</title>
<polygon fill="none" stroke="blue" points="868.5,-985 659.5,-985 659.5,-949 868.5,-949 868.5,-985"/>
<text text-anchor="middle" x="764" y="-963.3" font-family="Times New Roman,serif" font-size="14.00">SĄ SUPER SKOMPLIKOWANE</text>
</g>
<!-- j532338926&#45;&gt;j2657829583 -->
<g id="edge49" class="edge">
<title>j532338926&#45;&gt;j2657829583</title>
<path fill="none" stroke="black" d="M719.52,-1056.97C727.81,-1040.38 740.56,-1014.88 750.28,-995.43"/>
<polygon fill="black" stroke="black" points="753.31,-997.2 754.65,-986.69 747.05,-994.07 753.31,-997.2"/>
</g>
<!-- j1788958894 -->
<g id="node43" class="node">
<title>j1788958894</title>
<polygon fill="none" stroke="blue" points="933.5,-1566 432.5,-1566 432.5,-1530 933.5,-1530 933.5,-1566"/>
<text text-anchor="middle" x="683" y="-1544.3" font-family="Times New Roman,serif" font-size="14.00">zastanawiałem się czy jak ci o tym opowiem to może pomożesz mi znaleźć rozwiązanie</text>
</g>
<!-- j2099721824&#45;&gt;j1788958894 -->
<g id="edge50" class="edge">
<title>j2099721824&#45;&gt;j1788958894</title>
<path fill="none" stroke="black" d="M683,-1602.81C683,-1595.23 683,-1586.1 683,-1577.54"/>
<polygon fill="black" stroke="black" points="686.5,-1577.54 683,-1567.54 679.5,-1577.54 686.5,-1577.54"/>
</g>
<!-- j86897820&#45;&gt;j2099721824 -->
<g id="edge51" class="edge">
<title>j86897820&#45;&gt;j2099721824</title>
<path fill="none" stroke="black" d="M688.88,-1710.97C687.81,-1694.76 686.17,-1670.06 684.9,-1650.79"/>
<polygon fill="black" stroke="black" points="688.4,-1650.6 684.24,-1640.85 681.41,-1651.06 688.4,-1650.6"/>
</g>
<!-- j2081242620 -->
<g id="node44" class="node">
<title>j2081242620</title>
<polygon fill="none" stroke="red" points="775,-839 721,-839 721,-803 775,-803 775,-839"/>
<text text-anchor="middle" x="748" y="-817.3" font-family="Times New Roman,serif" font-size="14.00">No...?</text>
</g>
<!-- j418403373&#45;&gt;j2081242620 -->
<g id="edge52" class="edge">
<title>j418403373&#45;&gt;j2081242620</title>
<path fill="none" stroke="black" d="M756.34,-875.81C755.15,-868.14 753.72,-858.89 752.38,-850.24"/>
<polygon fill="black" stroke="black" points="755.86,-849.87 750.87,-840.52 748.94,-850.94 755.86,-849.87"/>
</g>
<!-- j1717092153 -->
<g id="node45" class="node">
<title>j1717092153</title>
<polygon fill="none" stroke="red" points="934.5,-839 793.5,-839 793.5,-803 934.5,-803 934.5,-839"/>
<text text-anchor="middle" x="864" y="-817.3" font-family="Times New Roman,serif" font-size="14.00">Mógłbyś spróbować &#45;</text>
</g>
<!-- j418403373&#45;&gt;j1717092153 -->
<g id="edge53" class="edge">
<title>j418403373&#45;&gt;j1717092153</title>
<path fill="none" stroke="black" d="M784.69,-875.63C798.03,-866.61 814.54,-855.44 829.04,-845.64"/>
<polygon fill="black" stroke="black" points="830.64,-848.78 836.96,-840.28 826.72,-842.99 830.64,-848.78"/>
</g>
<!-- j2657829583&#45;&gt;j418403373 -->
<g id="edge54" class="edge">
<title>j2657829583&#45;&gt;j418403373</title>
<path fill="none" stroke="black" d="M762.79,-948.81C762.25,-941.14 761.6,-931.89 760.99,-923.24"/>
<polygon fill="black" stroke="black" points="764.5,-923.27 760.31,-913.54 757.52,-923.76 764.5,-923.27"/>
</g>
<!-- j2814618389 -->
<g id="node46" class="node">
<title>j2814618389</title>
<polygon fill="none" stroke="blue" points="948.5,-1493 417.5,-1493 417.5,-1457 948.5,-1457 948.5,-1493"/>
<text text-anchor="middle" x="683" y="-1471.3" font-family="Times New Roman,serif" font-size="14.00">jeśli obrzucę kogokolwiek z hex kolejnymi pomysłami to chyba zamkną mnie w śmietniku lol</text>
</g>
<!-- j1788958894&#45;&gt;j2814618389 -->
<g id="edge55" class="edge">
<title>j1788958894&#45;&gt;j2814618389</title>
<path fill="none" stroke="black" d="M683,-1529.81C683,-1522.23 683,-1513.1 683,-1504.54"/>
<polygon fill="black" stroke="black" points="686.5,-1504.54 683,-1494.54 679.5,-1504.54 686.5,-1504.54"/>
</g>
<!-- j793799853 -->
<g id="node47" class="node">
<title>j793799853</title>
<polygon fill="none" stroke="blue" points="1548,-766 176,-766 176,-730 1548,-730 1548,-766"/>
<text text-anchor="middle" x="862" y="-744.3" font-family="Times New Roman,serif" font-size="14.00">ok więc jak przekazać graczom które drzwi to tylko dekoracja a które są zamknięte i co zrobić jeśli jeden z graczy ma klucz a inny nie albo co zrobić kiedy gracz przejdzie przez drzwi a inny nie czy po prostu teleportować go do tego gracza?!?!</text>
</g>
<!-- j2081242620&#45;&gt;j793799853 -->
<g id="edge56" class="edge">
<title>j2081242620&#45;&gt;j793799853</title>
<path fill="none" stroke="black" d="M775.31,-802.99C790.03,-793.82 808.43,-782.36 824.49,-772.36"/>
<polygon fill="black" stroke="black" points="826.2,-775.42 832.84,-767.16 822.5,-769.48 826.2,-775.42"/>
</g>
<!-- j1717092153&#45;&gt;j793799853 -->
<g id="edge57" class="edge">
<title>j1717092153&#45;&gt;j793799853</title>
<path fill="none" stroke="black" d="M863.52,-802.81C863.3,-795.14 863.04,-785.89 862.8,-777.24"/>
<polygon fill="black" stroke="black" points="866.3,-777.44 862.52,-767.54 859.31,-777.64 866.3,-777.44"/>
</g>
<!-- j2814618389&#45;&gt;j571424740 -->
<g id="edge58" class="edge">
<title>j2814618389&#45;&gt;j571424740</title>
<path fill="none" stroke="black" d="M683,-1456.81C683,-1449.23 683,-1440.1 683,-1431.54"/>
<polygon fill="black" stroke="black" points="686.5,-1431.54 683,-1421.54 679.5,-1431.54 686.5,-1431.54"/>
</g>
<!-- j1191175374 -->
<g id="node48" class="node">
<title>j1191175374</title>
<polygon fill="none" stroke="red" points="880,-693 794,-693 794,-657 880,-657 880,-693"/>
<text text-anchor="middle" x="837" y="-671.3" font-family="Times New Roman,serif" font-size="14.00">To znaczy...</text>
</g>
<!-- j793799853&#45;&gt;j1191175374 -->
<g id="edge59" class="edge">
<title>j793799853&#45;&gt;j1191175374</title>
<path fill="none" stroke="black" d="M855.95,-729.81C853.18,-721.96 849.84,-712.47 846.74,-703.66"/>
<polygon fill="black" stroke="black" points="850.12,-702.73 843.5,-694.46 843.52,-705.05 850.12,-702.73"/>
</g>
<!-- j2212335179 -->
<g id="node49" class="node">
<title>j2212335179</title>
<polygon fill="none" stroke="red" points="952,-693 898,-693 898,-657 952,-657 952,-693"/>
<text text-anchor="middle" x="925" y="-671.3" font-family="Times New Roman,serif" font-size="14.00">Cóż,</text>
</g>
<!-- j793799853&#45;&gt;j2212335179 -->
<g id="edge60" class="edge">
<title>j793799853&#45;&gt;j2212335179</title>
<path fill="none" stroke="black" d="M877.25,-729.81C884.76,-721.35 893.96,-710.98 902.27,-701.61"/>
<polygon fill="black" stroke="black" points="904.87,-703.96 908.89,-694.16 899.63,-699.32 904.87,-703.96"/>
</g>
<!-- j3243094345 -->
<g id="node50" class="node">
<title>j3243094345</title>
<polygon fill="none" stroke="blue" points="1694,-620 148,-620 148,-584 1694,-584 1694,-620"/>
<text text-anchor="middle" x="921" y="-598.3" font-family="Times New Roman,serif" font-size="14.00">myślę że KLUCZE mogłyby być śledzone globalnie i najlepszy klucz ma najwyższy priorytet, nie? np jakby ktoś w grupie miał klucz każdy może go użyć, to trochę exploit ale najważniejsze że starsi gracze mogą pomóc nowicjuszom i to nie byłoby złe, taka fantazja potęgi nie</text>
</g>
<!-- j1191175374&#45;&gt;j3243094345 -->
<g id="edge61" class="edge">
<title>j1191175374&#45;&gt;j3243094345</title>
<path fill="none" stroke="black" d="M857.33,-656.81C867.68,-648.07 880.44,-637.28 891.81,-627.67"/>
<polygon fill="black" stroke="black" points="894.03,-630.38 899.41,-621.25 889.51,-625.03 894.03,-630.38"/>
</g>
<!-- j2212335179&#45;&gt;j3243094345 -->
<g id="edge62" class="edge">
<title>j2212335179&#45;&gt;j3243094345</title>
<path fill="none" stroke="black" d="M924.03,-656.81C923.6,-649.14 923.08,-639.89 922.59,-631.24"/>
<polygon fill="black" stroke="black" points="926.1,-631.33 922.04,-621.54 919.11,-631.72 926.1,-631.33"/>
</g>
<!-- j2821005080 -->
<g id="node51" class="node">
<title>j2821005080</title>
<polygon fill="none" stroke="red" points="894.5,-547 823.5,-547 823.5,-511 894.5,-511 894.5,-547"/>
<text text-anchor="middle" x="859" y="-525.3" font-family="Times New Roman,serif" font-size="14.00">Racja, ale</text>
</g>
<!-- j3243094345&#45;&gt;j2821005080 -->
<g id="edge63" class="edge">
<title>j3243094345&#45;&gt;j2821005080</title>
<path fill="none" stroke="black" d="M905.99,-583.81C898.6,-575.35 889.55,-564.98 881.37,-555.61"/>
<polygon fill="black" stroke="black" points="884.08,-553.4 874.87,-548.17 878.81,-558 884.08,-553.4"/>
</g>
<!-- j1549910648 -->
<g id="node52" class="node">
<title>j1549910648</title>
<polygon fill="none" stroke="red" points="977.5,-547 912.5,-547 912.5,-511 977.5,-511 977.5,-547"/>
<text text-anchor="middle" x="945" y="-525.3" font-family="Times New Roman,serif" font-size="14.00">Okej, ale</text>
</g>
<!-- j3243094345&#45;&gt;j1549910648 -->
<g id="edge64" class="edge">
<title>j3243094345&#45;&gt;j1549910648</title>
<path fill="none" stroke="black" d="M926.81,-583.81C929.46,-575.96 932.67,-566.47 935.65,-557.66"/>
<polygon fill="black" stroke="black" points="938.87,-559.06 938.76,-548.46 932.24,-556.82 938.87,-559.06"/>
</g>
<!-- j4183742313 -->
<g id="node53" class="node">
<title>j4183742313</title>
<polygon fill="none" stroke="blue" points="1472,-474 270,-474 270,-438 1472,-438 1472,-474"/>
<text text-anchor="middle" x="871" y="-452.3" font-family="Times New Roman,serif" font-size="14.00">jeśli chodzi o przedstawienie zamkniętych drzwi mogłyby pokazywać kłódkę i odtwarzać dźwięk PUKPUK jeśli są zamknięte, a jeśli to tylko dekoracja to nie można ich w ogóle użyć, nie? ŚWIETNIE, to zadziała!!</text>
</g>
<!-- j2821005080&#45;&gt;j4183742313 -->
<g id="edge65" class="edge">
<title>j2821005080&#45;&gt;j4183742313</title>
<path fill="none" stroke="black" d="M861.9,-510.81C863.2,-503.14 864.76,-493.89 866.23,-485.24"/>
<polygon fill="black" stroke="black" points="869.65,-485.96 867.87,-475.52 862.75,-484.8 869.65,-485.96"/>
</g>
<!-- j1549910648&#45;&gt;j4183742313 -->
<g id="edge66" class="edge">
<title>j1549910648&#45;&gt;j4183742313</title>
<path fill="none" stroke="black" d="M927.09,-510.81C918.15,-502.24 907.18,-491.71 897.31,-482.24"/>
<polygon fill="black" stroke="black" points="899.74,-479.72 890.1,-475.32 894.89,-484.77 899.74,-479.72"/>
</g>
<!-- j3091445085 -->
<g id="node54" class="node">
<title>j3091445085</title>
<polygon fill="none" stroke="red" points="835,-401 781,-401 781,-365 835,-365 835,-401"/>
<text text-anchor="middle" x="808" y="-379.3" font-family="Times New Roman,serif" font-size="14.00">...</text>
</g>
<!-- j4183742313&#45;&gt;j3091445085 -->
<g id="edge67" class="edge">
<title>j4183742313&#45;&gt;j3091445085</title>
<path fill="none" stroke="black" d="M855.75,-437.81C848.24,-429.35 839.04,-418.98 830.73,-409.61"/>
<polygon fill="black" stroke="black" points="833.37,-407.32 824.11,-402.16 828.13,-411.96 833.37,-407.32"/>
</g>
<!-- j378241420 -->
<g id="node55" class="node">
<title>j378241420</title>
<polygon fill="none" stroke="red" points="907,-401 853,-401 853,-365 907,-365 907,-401"/>
<text text-anchor="middle" x="880" y="-379.3" font-family="Times New Roman,serif" font-size="14.00">..........</text>
</g>
<!-- j4183742313&#45;&gt;j378241420 -->
<g id="edge68" class="edge">
<title>j4183742313&#45;&gt;j378241420</title>
<path fill="none" stroke="black" d="M873.18,-437.81C874.15,-430.14 875.32,-420.89 876.42,-412.24"/>
<polygon fill="black" stroke="black" points="879.87,-412.89 877.65,-402.53 872.92,-412.01 879.87,-412.89"/>
</g>
<!-- j665668310 -->
<g id="node56" class="node">
<title>j665668310</title>
<polygon fill="none" stroke="blue" points="1475,-328 145,-328 145,-292 1475,-292 1475,-328"/>
<text text-anchor="middle" x="810" y="-306.3" font-family="Times New Roman,serif" font-size="14.00">O I WIEM, jeśli ktoś jest gotowy, aby ruszyć dalej, ale ktoś inny pozostaje w tyle, mogę po prostu wyświetlić tekst w stylu &quot;x graczy czeka na ciebie...&quot; i po prostu delikatnie szturchnąć maruderów, aby się pospieszyli. DOSKONAŁE!!</text>
</g>
<!-- j3091445085&#45;&gt;j665668310 -->
<g id="edge69" class="edge">
<title>j3091445085&#45;&gt;j665668310</title>
<path fill="none" stroke="black" d="M808.48,-364.81C808.7,-357.14 808.96,-347.89 809.2,-339.24"/>
<polygon fill="black" stroke="black" points="812.69,-339.64 809.48,-329.54 805.7,-339.44 812.69,-339.64"/>
</g>
<!-- j378241420&#45;&gt;j665668310 -->
<g id="edge70" class="edge">
<title>j378241420&#45;&gt;j665668310</title>
<path fill="none" stroke="black" d="M863.05,-364.81C854.54,-356.18 844.07,-345.56 834.68,-336.03"/>
<polygon fill="black" stroke="black" points="837.36,-333.77 827.85,-329.11 832.38,-338.68 837.36,-333.77"/>
</g>
<!-- j128291314 -->
<g id="node57" class="node">
<title>j128291314</title>
<ellipse fill="none" stroke="orange" cx="639" cy="-237" rx="64.19" ry="18"/>
<text text-anchor="middle" x="639" y="-233.3" font-family="Times New Roman,serif" font-size="14.00">+20 Chemistry</text>
</g>
<!-- j665668310&#45;&gt;j128291314 -->
<g id="edge71" class="edge">
<title>j665668310&#45;&gt;j128291314</title>
<path fill="none" stroke="black" d="M768.17,-291.63C742.71,-281.06 710.18,-267.55 684.14,-256.74"/>
<polygon fill="black" stroke="black" points="685.75,-253.62 675.18,-253.02 683.07,-260.09 685.75,-253.62"/>
</g>
<!-- j229375135 -->
<g id="node58" class="node">
<title>j229375135</title>
<polygon fill="none" stroke="blue" points="562.5,-182 145.5,-182 145.5,-146 562.5,-146 562.5,-182"/>
<text text-anchor="middle" x="354" y="-160.3" font-family="Times New Roman,serif" font-size="14.00">TO BYŁO BARDZO POMOCNE, DZIĘKI!!! JESTEŚ NAJLEPSZY!!</text>
</g>
<!-- j128291314&#45;&gt;j229375135 -->
<g id="edge72" class="edge">
<title>j128291314&#45;&gt;j229375135</title>
<path fill="none" stroke="black" d="M592.26,-224.36C549.67,-213.74 485.83,-197.84 434.95,-185.17"/>
<polygon fill="black" stroke="black" points="436,-181.82 425.45,-182.8 434.3,-188.61 436,-181.82"/>
</g>
<!-- j720057388 -->
<g id="node59" class="node">
<title>j720057388</title>
<polygon fill="none" stroke="red" points="270.5,-109 163.5,-109 163.5,-73 270.5,-73 270.5,-109"/>
<text text-anchor="middle" x="217" y="-87.3" font-family="Times New Roman,serif" font-size="14.00">Nie ma za co...?</text>
</g>
<!-- j229375135&#45;&gt;j720057388 -->
<g id="edge73" class="edge">
<title>j229375135&#45;&gt;j720057388</title>
<path fill="none" stroke="black" d="M320.49,-145.63C302.49,-136.31 280.09,-124.7 260.74,-114.67"/>
<polygon fill="black" stroke="black" points="262.48,-111.63 251.99,-110.13 259.25,-117.84 262.48,-111.63"/>
</g>
<!-- j1989422747 -->
<g id="node60" class="node">
<title>j1989422747</title>
<polygon fill="none" stroke="red" points="390,-109 298,-109 298,-73 390,-73 390,-109"/>
<text text-anchor="middle" x="344" y="-87.3" font-family="Times New Roman,serif" font-size="14.00">Tak. Zawsze.</text>
</g>
<!-- j229375135&#45;&gt;j1989422747 -->
<g id="edge74" class="edge">
<title>j229375135&#45;&gt;j1989422747</title>
<path fill="none" stroke="black" d="M351.58,-145.81C350.5,-138.14 349.2,-128.89 347.98,-120.24"/>
<polygon fill="black" stroke="black" points="351.47,-119.94 346.61,-110.53 344.54,-120.92 351.47,-119.94"/>
</g>
<!-- j720057388&#45;&gt;Chat ends. -->
<g id="edge75" class="edge">
<title>j720057388&#45;&gt;Chat ends.</title>
<path fill="none" stroke="black" d="M187.89,-72.63C171.32,-62.75 150.46,-50.3 133.01,-39.89"/>
<polygon fill="black" stroke="black" points="134.86,-36.92 124.48,-34.8 131.28,-42.93 134.86,-36.92"/>
</g>
<!-- j1989422747&#45;&gt;Chat ends. -->
<g id="edge76" class="edge">
<title>j1989422747&#45;&gt;Chat ends.</title>
<path fill="none" stroke="black" d="M297.73,-76.65C254.71,-64.23 190.84,-45.8 146.97,-33.13"/>
<polygon fill="black" stroke="black" points="148.03,-29.8 137.45,-30.39 146.09,-36.52 148.03,-29.8"/>
</g>
</g>
</svg>
