<?xml version="1.0" encoding="UTF-8" standalone="no"?>
<!DOCTYPE svg PUBLIC "-//W3C//DTD SVG 1.1//EN"
 "http://www.w3.org/Graphics/SVG/1.1/DTD/svg11.dtd">
<!-- Generated by graphviz version 7.1.0 (20230121.1956)
 -->
<!-- Pages: 1 -->
<svg width="1676pt" height="332pt"
 viewBox="0.00 0.00 1675.50 332.00" xmlns="http://www.w3.org/2000/svg" xmlns:xlink="http://www.w3.org/1999/xlink">
<g id="graph0" class="graph" transform="scale(1 1) rotate(0) translate(4 328)">
<polygon fill="white" stroke="none" points="-4,4 -4,-328 1671.5,-328 1671.5,4 -4,4"/>
<!-- AmirBirthdayConvo1 begins. -->
<g id="node1" class="node">
<title>AmirBirthdayConvo1 begins.</title>
<ellipse fill="none" stroke="orange" cx="876.5" cy="-306" rx="116.98" ry="18"/>
<text text-anchor="middle" x="876.5" y="-302.3" font-family="Times New Roman,serif" font-size="14.00">AmirBirthdayConvo1 begins.</text>
</g>
<!-- j1762562162 -->
<g id="node2" class="node">
<title>j1762562162</title>
<polygon fill="none" stroke="red" points="872.5,-252 432.5,-252 432.5,-216 872.5,-216 872.5,-252"/>
<text text-anchor="middle" x="652.5" y="-230.3" font-family="Times New Roman,serif" font-size="14.00">Amirze! Udało ci się pomyślnie ukończyć kolejne okrążenie Sol! Gratulacje!</text>
</g>
<!-- AmirBirthdayConvo1 begins.&#45;&gt;j1762562162 -->
<g id="edge1" class="edge">
<title>AmirBirthdayConvo1 begins.&#45;&gt;j1762562162</title>
<path fill="none" stroke="black" d="M826.23,-289.29C794.57,-279.4 753.34,-266.51 718.99,-255.78"/>
<polygon fill="black" stroke="black" points="720.14,-252.47 709.55,-252.83 718.05,-259.15 720.14,-252.47"/>
</g>
<!-- j216081717 -->
<g id="node3" class="node">
<title>j216081717</title>
<polygon fill="none" stroke="red" points="1359.5,-252 939.5,-252 939.5,-216 1359.5,-216 1359.5,-252"/>
<text text-anchor="middle" x="1149.5" y="-230.3" font-family="Times New Roman,serif" font-size="14.00">To twoje urodziny, Amir! Może to dobra okazja, żeby trochę dorosnąć?</text>
</g>
<!-- AmirBirthdayConvo1 begins.&#45;&gt;j216081717 -->
<g id="edge2" class="edge">
<title>AmirBirthdayConvo1 begins.&#45;&gt;j216081717</title>
<path fill="none" stroke="black" d="M935.07,-289.98C974.56,-279.86 1027.13,-266.38 1070.34,-255.3"/>
<polygon fill="black" stroke="black" points="1071.12,-258.71 1079.93,-252.84 1069.38,-251.93 1071.12,-258.71"/>
</g>
<!-- j417572285 -->
<g id="node4" class="node">
<title>j417572285</title>
<ellipse fill="none" stroke="orange" cx="553.5" cy="-162" rx="64.19" ry="18"/>
<text text-anchor="middle" x="553.5" y="-158.3" font-family="Times New Roman,serif" font-size="14.00">+20 Chemistry</text>
</g>
<!-- j1762562162&#45;&gt;j417572285 -->
<g id="edge3" class="edge">
<title>j1762562162&#45;&gt;j417572285</title>
<path fill="none" stroke="black" d="M627.77,-215.52C614.93,-206.44 599.09,-195.23 585.34,-185.51"/>
<polygon fill="black" stroke="black" points="587.64,-182.85 577.45,-179.94 583.6,-188.57 587.64,-182.85"/>
</g>
<!-- j1721497037 -->
<g id="node5" class="node">
<title>j1721497037</title>
<polygon fill="none" stroke="blue" points="1667.5,-108 731.5,-108 731.5,-72 1667.5,-72 1667.5,-108"/>
<text text-anchor="middle" x="1199.5" y="-86.3" font-family="Times New Roman,serif" font-size="14.00">O LITOŚCI!! Nie wierzę, że po prostu zostawiłeś coś takiego, by moje wewnętrzne dziecko mogłoby to przeczytać!! CZEMU NIKT NIE MYŚLI O DZIECIACH?!</text>
</g>
<!-- j216081717&#45;&gt;j1721497037 -->
<g id="edge4" class="edge">
<title>j216081717&#45;&gt;j1721497037</title>
<path fill="none" stroke="black" d="M1155.63,-215.59C1164.15,-191.4 1179.65,-147.36 1189.76,-118.65"/>
<polygon fill="black" stroke="black" points="1192.95,-120.13 1192.97,-109.54 1186.35,-117.81 1192.95,-120.13"/>
</g>
<!-- j756015153 -->
<g id="node6" class="node">
<title>j756015153</title>
<polygon fill="none" stroke="blue" points="713,-108 0,-108 0,-72 713,-72 713,-108"/>
<text text-anchor="middle" x="356.5" y="-86.3" font-family="Times New Roman,serif" font-size="14.00">Och, PFFFF! Dzięki, ale to nic takiego!! Planeta wykonała większość ciężkiej pracy, ja po prostu załapałem się na wycieczkę</text>
</g>
<!-- j417572285&#45;&gt;j756015153 -->
<g id="edge5" class="edge">
<title>j417572285&#45;&gt;j756015153</title>
<path fill="none" stroke="black" d="M515.05,-147.34C486.98,-137.36 448.39,-123.65 416.32,-112.25"/>
<polygon fill="black" stroke="black" points="417.73,-109.04 407.14,-108.99 415.39,-115.64 417.73,-109.04"/>
</g>
<!-- Chat ends. -->
<g id="node7" class="node">
<title>Chat ends.</title>
<ellipse fill="none" stroke="orange" cx="777.5" cy="-18" rx="50.09" ry="18"/>
<text text-anchor="middle" x="777.5" y="-14.3" font-family="Times New Roman,serif" font-size="14.00">Chat ends.</text>
</g>
<!-- j1721497037&#45;&gt;Chat ends. -->
<g id="edge6" class="edge">
<title>j1721497037&#45;&gt;Chat ends.</title>
<path fill="none" stroke="black" d="M1094.1,-71.52C1011.48,-57.81 899.76,-39.28 833.51,-28.29"/>
<polygon fill="black" stroke="black" points="834.41,-24.89 823.97,-26.71 833.26,-31.8 834.41,-24.89"/>
</g>
<!-- j756015153&#45;&gt;Chat ends. -->
<g id="edge7" class="edge">
<title>j756015153&#45;&gt;Chat ends.</title>
<path fill="none" stroke="black" d="M461.65,-71.52C544.07,-57.81 655.53,-39.28 721.63,-28.29"/>
<polygon fill="black" stroke="black" points="721.85,-31.8 731.14,-26.71 720.7,-24.9 721.85,-31.8"/>
</g>
</g>
</svg>
