<?xml version="1.0" encoding="UTF-8" standalone="no"?>
<!DOCTYPE svg PUBLIC "-//W3C//DTD SVG 1.1//EN"
 "http://www.w3.org/Graphics/SVG/1.1/DTD/svg11.dtd">
<!-- Generated by graphviz version 7.1.0 (20230121.1956)
 -->
<!-- Pages: 1 -->
<svg width="1118pt" height="332pt"
 viewBox="0.00 0.00 1118.00 332.00" xmlns="http://www.w3.org/2000/svg" xmlns:xlink="http://www.w3.org/1999/xlink">
<g id="graph0" class="graph" transform="scale(1 1) rotate(0) translate(4 328)">
<polygon fill="white" stroke="none" points="-4,4 -4,-328 1114,-328 1114,4 -4,4"/>
<!-- ArthurBirthdayConvo3 begins. -->
<g id="node1" class="node">
<title>ArthurBirthdayConvo3 begins.</title>
<ellipse fill="none" stroke="orange" cx="548.5" cy="-306" rx="122.38" ry="18"/>
<text text-anchor="middle" x="548.5" y="-302.3" font-family="Times New Roman,serif" font-size="14.00">ArthurBirthdayConvo3 begins.</text>
</g>
<!-- j2606320824 -->
<g id="node2" class="node">
<title>j2606320824</title>
<polygon fill="none" stroke="red" points="533,-252 0,-252 0,-216 533,-216 533,-252"/>
<text text-anchor="middle" x="266.5" y="-230.3" font-family="Times New Roman,serif" font-size="14.00">Cześć. Chciałem tylko złożyć życzenia urodzinowe. Cieszę się, że byłem tu, by to zobaczyć.</text>
</g>
<!-- ArthurBirthdayConvo3 begins.&#45;&gt;j2606320824 -->
<g id="edge1" class="edge">
<title>ArthurBirthdayConvo3 begins.&#45;&gt;j2606320824</title>
<path fill="none" stroke="black" d="M488,-289.98C447.12,-279.84 392.67,-266.32 347.98,-255.23"/>
<polygon fill="black" stroke="black" points="348.86,-251.84 338.31,-252.83 347.18,-258.63 348.86,-251.84"/>
</g>
<!-- j1934280150 -->
<g id="node3" class="node">
<title>j1934280150</title>
<polygon fill="none" stroke="red" points="1110,-252 551,-252 551,-216 1110,-216 1110,-252"/>
<text text-anchor="middle" x="830.5" y="-230.3" font-family="Times New Roman,serif" font-size="14.00">Wszystkiego najlepszego z okazji urodzin. Postaraj się dzisiaj nie umrzeć. Zniszczyłoby to klimat.</text>
</g>
<!-- ArthurBirthdayConvo3 begins.&#45;&gt;j1934280150 -->
<g id="edge2" class="edge">
<title>ArthurBirthdayConvo3 begins.&#45;&gt;j1934280150</title>
<path fill="none" stroke="black" d="M609,-289.98C649.88,-279.84 704.33,-266.32 749.02,-255.23"/>
<polygon fill="black" stroke="black" points="749.82,-258.63 758.69,-252.83 748.14,-251.84 749.82,-258.63"/>
</g>
<!-- j3404777266 -->
<g id="node4" class="node">
<title>j3404777266</title>
<ellipse fill="none" stroke="orange" cx="278.5" cy="-162" rx="64.19" ry="18"/>
<text text-anchor="middle" x="278.5" y="-158.3" font-family="Times New Roman,serif" font-size="14.00">+20 Chemistry</text>
</g>
<!-- j2606320824&#45;&gt;j3404777266 -->
<g id="edge3" class="edge">
<title>j2606320824&#45;&gt;j3404777266</title>
<path fill="none" stroke="black" d="M269.47,-215.7C270.73,-208.32 272.24,-199.52 273.66,-191.25"/>
<polygon fill="black" stroke="black" points="277.07,-192.04 275.31,-181.6 270.17,-190.86 277.07,-192.04"/>
</g>
<!-- j781320448 -->
<g id="node5" class="node">
<title>j781320448</title>
<polygon fill="none" stroke="blue" points="1057,-108 592,-108 592,-72 1057,-72 1057,-108"/>
<text text-anchor="middle" x="824.5" y="-86.3" font-family="Times New Roman,serif" font-size="14.00">Słuchaj, wiem, że sam wiele przeszedłeś, ale na czarny humor jest czas i miejsce.</text>
</g>
<!-- j1934280150&#45;&gt;j781320448 -->
<g id="edge4" class="edge">
<title>j1934280150&#45;&gt;j781320448</title>
<path fill="none" stroke="black" d="M829.76,-215.59C828.75,-191.61 826.91,-148.14 825.7,-119.42"/>
<polygon fill="black" stroke="black" points="829.21,-119.47 825.29,-109.62 822.21,-119.76 829.21,-119.47"/>
</g>
<!-- j430639114 -->
<g id="node6" class="node">
<title>j430639114</title>
<polygon fill="none" stroke="blue" points="567.5,-108 37.5,-108 37.5,-72 567.5,-72 567.5,-108"/>
<text text-anchor="middle" x="302.5" y="-86.3" font-family="Times New Roman,serif" font-size="14.00">Kilka razy otwarliśmy się o tragedię, prawda? Dzięki za wsparcie dziś i każdego innego dnia.</text>
</g>
<!-- j3404777266&#45;&gt;j430639114 -->
<g id="edge5" class="edge">
<title>j3404777266&#45;&gt;j430639114</title>
<path fill="none" stroke="black" d="M284.43,-143.7C286.99,-136.24 290.05,-127.32 292.91,-118.97"/>
<polygon fill="black" stroke="black" points="296.21,-120.13 296.14,-109.54 289.59,-117.86 296.21,-120.13"/>
</g>
<!-- Chat ends. -->
<g id="node7" class="node">
<title>Chat ends.</title>
<ellipse fill="none" stroke="orange" cx="560.5" cy="-18" rx="50.09" ry="18"/>
<text text-anchor="middle" x="560.5" y="-14.3" font-family="Times New Roman,serif" font-size="14.00">Chat ends.</text>
</g>
<!-- j781320448&#45;&gt;Chat ends. -->
<g id="edge6" class="edge">
<title>j781320448&#45;&gt;Chat ends.</title>
<path fill="none" stroke="black" d="M758.56,-71.52C712.82,-59.39 652.81,-43.48 610.88,-32.36"/>
<polygon fill="black" stroke="black" points="611.85,-29 601.29,-29.82 610.06,-35.76 611.85,-29"/>
</g>
<!-- j430639114&#45;&gt;Chat ends. -->
<g id="edge7" class="edge">
<title>j430639114&#45;&gt;Chat ends.</title>
<path fill="none" stroke="black" d="M366.94,-71.52C411.28,-59.49 469.33,-43.74 510.25,-32.63"/>
<polygon fill="black" stroke="black" points="511.12,-36.03 519.85,-30.03 509.28,-29.27 511.12,-36.03"/>
</g>
</g>
</svg>
