<?xml version="1.0" encoding="UTF-8" standalone="no"?>
<!DOCTYPE svg PUBLIC "-//W3C//DTD SVG 1.1//EN"
 "http://www.w3.org/Graphics/SVG/1.1/DTD/svg11.dtd">
<!-- Generated by graphviz version 7.1.0 (20230121.1956)
 -->
<!-- Pages: 1 -->
<svg width="1492pt" height="1340pt"
 viewBox="0.00 0.00 1491.50 1340.00" xmlns="http://www.w3.org/2000/svg" xmlns:xlink="http://www.w3.org/1999/xlink">
<g id="graph0" class="graph" transform="scale(1 1) rotate(0) translate(4 1336)">
<polygon fill="white" stroke="none" points="-4,4 -4,-1336 1487.5,-1336 1487.5,4 -4,4"/>
<!-- ArthurRank3Convo2 begins. -->
<g id="node1" class="node">
<title>ArthurRank3Convo2 begins.</title>
<ellipse fill="none" stroke="orange" cx="394.5" cy="-1314" rx="115.08" ry="18"/>
<text text-anchor="middle" x="394.5" y="-1310.3" font-family="Times New Roman,serif" font-size="14.00">ArthurRank3Convo2 begins.</text>
</g>
<!-- j4248338150 -->
<g id="node2" class="node">
<title>j4248338150</title>
<polygon fill="none" stroke="blue" points="526,-1260 263,-1260 263,-1224 526,-1224 526,-1260"/>
<text text-anchor="middle" x="394.5" y="-1238.3" font-family="Times New Roman,serif" font-size="14.00">Myślisz czasem o ludziach, których zabiłeś?</text>
</g>
<!-- ArthurRank3Convo2 begins.&#45;&gt;j4248338150 -->
<g id="edge1" class="edge">
<title>ArthurRank3Convo2 begins.&#45;&gt;j4248338150</title>
<path fill="none" stroke="black" d="M394.5,-1295.7C394.5,-1288.41 394.5,-1279.73 394.5,-1271.54"/>
<polygon fill="black" stroke="black" points="398,-1271.62 394.5,-1261.62 391,-1271.62 398,-1271.62"/>
</g>
<!-- j2876554719 -->
<g id="node3" class="node">
<title>j2876554719</title>
<polygon fill="none" stroke="red" points="368.5,-1188 270.5,-1188 270.5,-1152 368.5,-1152 368.5,-1188"/>
<text text-anchor="middle" x="319.5" y="-1166.3" font-family="Times New Roman,serif" font-size="14.00">Staram się nie.</text>
</g>
<!-- j4248338150&#45;&gt;j2876554719 -->
<g id="edge2" class="edge">
<title>j4248338150&#45;&gt;j2876554719</title>
<path fill="none" stroke="black" d="M375.96,-1223.7C367.04,-1215.37 356.17,-1205.22 346.36,-1196.07"/>
<polygon fill="black" stroke="black" points="348.89,-1193.64 339.19,-1189.38 344.11,-1198.76 348.89,-1193.64"/>
</g>
<!-- j4189594225 -->
<g id="node4" class="node">
<title>j4189594225</title>
<polygon fill="none" stroke="red" points="564,-1188 399,-1188 399,-1152 564,-1152 564,-1188"/>
<text text-anchor="middle" x="481.5" y="-1166.3" font-family="Times New Roman,serif" font-size="14.00">Niezły początek rozmowy.</text>
</g>
<!-- j4248338150&#45;&gt;j4189594225 -->
<g id="edge3" class="edge">
<title>j4248338150&#45;&gt;j4189594225</title>
<path fill="none" stroke="black" d="M416.01,-1223.7C426.57,-1215.2 439.48,-1204.81 451.03,-1195.51"/>
<polygon fill="black" stroke="black" points="453.16,-1198.29 458.76,-1189.3 448.78,-1192.84 453.16,-1198.29"/>
</g>
<!-- j1161626820 -->
<g id="node5" class="node">
<title>j1161626820</title>
<polygon fill="none" stroke="red" points="1342,-972 1083,-972 1083,-936 1342,-936 1342,-972"/>
<text text-anchor="middle" x="1212.5" y="-950.3" font-family="Times New Roman,serif" font-size="14.00">Czasami. Zazwyczaj, kiedy próbuję zasnąć.</text>
</g>
<!-- j4248338150&#45;&gt;j1161626820 -->
<g id="edge4" class="edge">
<title>j4248338150&#45;&gt;j1161626820</title>
<path fill="none" stroke="black" d="M456.57,-1223.51C490.9,-1213.58 534.23,-1200.65 572.5,-1188 790.62,-1115.89 1046.28,-1019.04 1156.87,-976.53"/>
<polygon fill="black" stroke="black" points="1157.94,-979.86 1166.02,-973.01 1155.43,-973.33 1157.94,-979.86"/>
</g>
<!-- j1787846867 -->
<g id="node6" class="node">
<title>j1787846867</title>
<polygon fill="none" stroke="red" points="229.5,-1188 51.5,-1188 51.5,-1152 229.5,-1152 229.5,-1188"/>
<text text-anchor="middle" x="140.5" y="-1166.3" font-family="Times New Roman,serif" font-size="14.00">Myślę o nich jak o punktach.</text>
</g>
<!-- j4248338150&#45;&gt;j1787846867 -->
<g id="edge5" class="edge">
<title>j4248338150&#45;&gt;j1787846867</title>
<path fill="none" stroke="black" d="M331.06,-1223.52C295.62,-1213.75 251.28,-1201.53 214.29,-1191.34"/>
<polygon fill="black" stroke="black" points="215.6,-1188.07 205.03,-1188.78 213.74,-1194.81 215.6,-1188.07"/>
</g>
<!-- j3021973115 -->
<g id="node7" class="node">
<title>j3021973115</title>
<polygon fill="none" stroke="blue" points="384.5,-1116 156.5,-1116 156.5,-1080 384.5,-1080 384.5,-1116"/>
<text text-anchor="middle" x="270.5" y="-1094.3" font-family="Times New Roman,serif" font-size="14.00">Też się starałem, ale mimo to wracają.</text>
</g>
<!-- j2876554719&#45;&gt;j3021973115 -->
<g id="edge6" class="edge">
<title>j2876554719&#45;&gt;j3021973115</title>
<path fill="none" stroke="black" d="M307.39,-1151.7C301.81,-1143.73 295.07,-1134.1 288.88,-1125.26"/>
<polygon fill="black" stroke="black" points="291.94,-1123.53 283.34,-1117.34 286.21,-1127.54 291.94,-1123.53"/>
</g>
<!-- j4167062812 -->
<g id="node8" class="node">
<title>j4167062812</title>
<polygon fill="none" stroke="blue" points="652,-1116 403,-1116 403,-1080 652,-1080 652,-1116"/>
<text text-anchor="middle" x="527.5" y="-1094.3" font-family="Times New Roman,serif" font-size="14.00">Heh. Nie awansują żołnierzy za charyzmę.</text>
</g>
<!-- j4189594225&#45;&gt;j4167062812 -->
<g id="edge7" class="edge">
<title>j4189594225&#45;&gt;j4167062812</title>
<path fill="none" stroke="black" d="M492.87,-1151.7C498.05,-1143.81 504.3,-1134.3 510.06,-1125.55"/>
<polygon fill="black" stroke="black" points="512.86,-1127.65 515.43,-1117.37 507.01,-1123.8 512.86,-1127.65"/>
</g>
<!-- j1873225473 -->
<g id="node9" class="node">
<title>j1873225473</title>
<polygon fill="none" stroke="blue" points="1411,-324 1248,-324 1248,-288 1411,-288 1411,-324"/>
<text text-anchor="middle" x="1329.5" y="-302.3" font-family="Times New Roman,serif" font-size="14.00">Jak liczenie owiec, co nie?</text>
</g>
<!-- j1161626820&#45;&gt;j1873225473 -->
<g id="edge8" class="edge">
<title>j1161626820&#45;&gt;j1873225473</title>
<path fill="none" stroke="black" d="M1266.09,-935.63C1318.18,-914.98 1389.5,-875.02 1389.5,-811 1389.5,-811 1389.5,-811 1389.5,-449 1389.5,-406.1 1365.97,-361.24 1348.38,-333.7"/>
<polygon fill="black" stroke="black" points="1351.49,-332.06 1343.06,-325.64 1345.65,-335.91 1351.49,-332.06"/>
</g>
<!-- j2465178716 -->
<g id="node10" class="node">
<title>j2465178716</title>
<polygon fill="none" stroke="blue" points="157,-828 0,-828 0,-792 157,-792 157,-828"/>
<text text-anchor="middle" x="78.5" y="-806.3" font-family="Times New Roman,serif" font-size="14.00">Byle spać spokojnie, co?</text>
</g>
<!-- j1787846867&#45;&gt;j2465178716 -->
<g id="edge9" class="edge">
<title>j1787846867&#45;&gt;j2465178716</title>
<path fill="none" stroke="black" d="M132.81,-1151.91C121.71,-1125.62 102.5,-1073.45 102.5,-1027 102.5,-1027 102.5,-1027 102.5,-953 102.5,-913.18 93.21,-867.95 86.19,-839.45"/>
<polygon fill="black" stroke="black" points="89.59,-838.62 83.73,-829.8 82.81,-840.35 89.59,-838.62"/>
</g>
<!-- j2947908920 -->
<g id="node11" class="node">
<title>j2947908920</title>
<polygon fill="none" stroke="red" points="515,-1044 336,-1044 336,-1008 515,-1008 515,-1044"/>
<text text-anchor="middle" x="425.5" y="-1022.3" font-family="Times New Roman,serif" font-size="14.00">Chcesz o tym porozmawiać?</text>
</g>
<!-- j3021973115&#45;&gt;j2947908920 -->
<g id="edge10" class="edge">
<title>j3021973115&#45;&gt;j2947908920</title>
<path fill="none" stroke="black" d="M309.21,-1079.52C329.63,-1070.29 354.89,-1058.89 376.65,-1049.06"/>
<polygon fill="black" stroke="black" points="377.96,-1052.31 385.63,-1045 375.08,-1045.93 377.96,-1052.31"/>
</g>
<!-- j3768804164 -->
<g id="node12" class="node">
<title>j3768804164</title>
<polygon fill="none" stroke="red" points="598,-1044 533,-1044 533,-1008 598,-1008 598,-1044"/>
<text text-anchor="middle" x="565.5" y="-1022.3" font-family="Times New Roman,serif" font-size="14.00">Tak jest.</text>
</g>
<!-- j3021973115&#45;&gt;j3768804164 -->
<g id="edge11" class="edge">
<title>j3021973115&#45;&gt;j3768804164</title>
<path fill="none" stroke="black" d="M374.65,-1079.51C417.86,-1071.22 468.52,-1060.16 521.96,-1044.19"/>
<polygon fill="black" stroke="black" points="522.69,-1047.63 531.24,-1041.37 520.65,-1040.93 522.69,-1047.63"/>
</g>
<!-- j3565441784 -->
<g id="node13" class="node">
<title>j3565441784</title>
<polygon fill="none" stroke="red" points="318,-1044 143,-1044 143,-1008 318,-1008 318,-1044"/>
<text text-anchor="middle" x="230.5" y="-1022.3" font-family="Times New Roman,serif" font-size="14.00">Ech, nieźle sobie poradziłeś.</text>
</g>
<!-- j3021973115&#45;&gt;j3565441784 -->
<g id="edge12" class="edge">
<title>j3021973115&#45;&gt;j3565441784</title>
<path fill="none" stroke="black" d="M260.61,-1079.7C256.16,-1071.9 250.79,-1062.51 245.83,-1053.83"/>
<polygon fill="black" stroke="black" points="249.03,-1052.36 241.02,-1045.42 242.95,-1055.84 249.03,-1052.36"/>
</g>
<!-- j4167062812&#45;&gt;j2947908920 -->
<g id="edge13" class="edge">
<title>j4167062812&#45;&gt;j2947908920</title>
<path fill="none" stroke="black" d="M502.02,-1079.52C489.27,-1070.76 473.65,-1060.04 459.85,-1050.58"/>
<polygon fill="black" stroke="black" points="462.12,-1047.89 451.9,-1045.12 458.16,-1053.66 462.12,-1047.89"/>
</g>
<!-- j4167062812&#45;&gt;j3768804164 -->
<g id="edge14" class="edge">
<title>j4167062812&#45;&gt;j3768804164</title>
<path fill="none" stroke="black" d="M536.89,-1079.7C541.08,-1071.98 546.11,-1062.71 550.78,-1054.11"/>
<polygon fill="black" stroke="black" points="553.8,-1055.89 555.49,-1045.43 547.65,-1052.55 553.8,-1055.89"/>
</g>
<!-- j4167062812&#45;&gt;j3565441784 -->
<g id="edge15" class="edge">
<title>j4167062812&#45;&gt;j3565441784</title>
<path fill="none" stroke="black" d="M453.32,-1079.52C411.51,-1069.66 359.12,-1057.31 315.64,-1047.07"/>
<polygon fill="black" stroke="black" points="316.51,-1043.68 305.98,-1044.79 314.91,-1050.49 316.51,-1043.68"/>
</g>
<!-- j1319148858 -->
<g id="node14" class="node">
<title>j1319148858</title>
<polygon fill="none" stroke="red" points="1242,-252 1031,-252 1031,-216 1242,-216 1242,-252"/>
<text text-anchor="middle" x="1136.5" y="-230.3" font-family="Times New Roman,serif" font-size="14.00">Najgorsze. Owce. Wszechczasów.</text>
</g>
<!-- j1873225473&#45;&gt;j1319148858 -->
<g id="edge16" class="edge">
<title>j1873225473&#45;&gt;j1319148858</title>
<path fill="none" stroke="black" d="M1281.3,-287.52C1255.18,-278.04 1222.69,-266.26 1195.12,-256.26"/>
<polygon fill="black" stroke="black" points="1196.44,-253.02 1185.85,-252.9 1194.05,-259.6 1196.44,-253.02"/>
</g>
<!-- j1572276304 -->
<g id="node15" class="node">
<title>j1572276304</title>
<polygon fill="none" stroke="red" points="1391,-252 1268,-252 1268,-216 1391,-216 1391,-252"/>
<text text-anchor="middle" x="1329.5" y="-230.3" font-family="Times New Roman,serif" font-size="14.00">Co to jest &quot;owca&quot;?</text>
</g>
<!-- j1873225473&#45;&gt;j1572276304 -->
<g id="edge17" class="edge">
<title>j1873225473&#45;&gt;j1572276304</title>
<path fill="none" stroke="black" d="M1329.5,-287.7C1329.5,-280.41 1329.5,-271.73 1329.5,-263.54"/>
<polygon fill="black" stroke="black" points="1333,-263.62 1329.5,-253.62 1326,-263.62 1333,-263.62"/>
</g>
<!-- Chat ends. -->
<g id="node16" class="node">
<title>Chat ends.</title>
<ellipse fill="none" stroke="orange" cx="777.5" cy="-18" rx="50.09" ry="18"/>
<text text-anchor="middle" x="777.5" y="-14.3" font-family="Times New Roman,serif" font-size="14.00">Chat ends.</text>
</g>
<!-- j2465178716&#45;&gt;Chat ends. -->
<g id="edge18" class="edge">
<title>j2465178716&#45;&gt;Chat ends.</title>
<path fill="none" stroke="black" d="M78.3,-791.51C78.01,-764.71 77.5,-711.87 77.5,-667 77.5,-667 77.5,-667 77.5,-161 77.5,-31.3 544.93,-18.75 715.85,-18.5"/>
<polygon fill="black" stroke="black" points="715.64,-22 725.64,-18.5 715.64,-15 715.64,-22"/>
</g>
<!-- j370323178 -->
<g id="node17" class="node">
<title>j370323178</title>
<polygon fill="none" stroke="blue" points="546.5,-972 304.5,-972 304.5,-936 546.5,-936 546.5,-972"/>
<text text-anchor="middle" x="425.5" y="-950.3" font-family="Times New Roman,serif" font-size="14.00">Myślałem o tym, ale chyba się rozmyślę.</text>
</g>
<!-- j2947908920&#45;&gt;j370323178 -->
<g id="edge19" class="edge">
<title>j2947908920&#45;&gt;j370323178</title>
<path fill="none" stroke="black" d="M425.5,-1007.7C425.5,-1000.41 425.5,-991.73 425.5,-983.54"/>
<polygon fill="black" stroke="black" points="429,-983.62 425.5,-973.62 422,-983.62 429,-983.62"/>
</g>
<!-- j3299945750 -->
<g id="node18" class="node">
<title>j3299945750</title>
<polygon fill="none" stroke="blue" points="793,-828 380,-828 380,-792 793,-792 793,-828"/>
<text text-anchor="middle" x="586.5" y="-806.3" font-family="Times New Roman,serif" font-size="14.00">Tej części nigdy nie zrozumiałem. Jak zacząć rozmowę o czymś takim?</text>
</g>
<!-- j3768804164&#45;&gt;j3299945750 -->
<g id="edge20" class="edge">
<title>j3768804164&#45;&gt;j3299945750</title>
<path fill="none" stroke="black" d="M567.18,-1007.85C570.78,-971.14 579.27,-884.66 583.7,-839.53"/>
<polygon fill="black" stroke="black" points="587.17,-840.03 584.66,-829.74 580.2,-839.35 587.17,-840.03"/>
</g>
<!-- j1847770254 -->
<g id="node19" class="node">
<title>j1847770254</title>
<polygon fill="none" stroke="blue" points="213.5,-540 105.5,-540 105.5,-504 213.5,-504 213.5,-540"/>
<text text-anchor="middle" x="159.5" y="-518.3" font-family="Times New Roman,serif" font-size="14.00">Jesteś zbyt miły.</text>
</g>
<!-- j3565441784&#45;&gt;j1847770254 -->
<g id="edge21" class="edge">
<title>j3565441784&#45;&gt;j1847770254</title>
<path fill="none" stroke="black" d="M221.18,-1007.63C208,-981.41 185.5,-929.81 185.5,-883 185.5,-883 185.5,-883 185.5,-665 185.5,-624.91 175.35,-579.48 167.73,-551.03"/>
<polygon fill="black" stroke="black" points="171.21,-550.46 165.17,-541.76 164.46,-552.33 171.21,-550.46"/>
</g>
<!-- j1645781718 -->
<g id="node20" class="node">
<title>j1645781718</title>
<ellipse fill="none" stroke="orange" cx="1113.5" cy="-162" rx="64.19" ry="18"/>
<text text-anchor="middle" x="1113.5" y="-158.3" font-family="Times New Roman,serif" font-size="14.00">+10 Chemistry</text>
</g>
<!-- j1319148858&#45;&gt;j1645781718 -->
<g id="edge22" class="edge">
<title>j1319148858&#45;&gt;j1645781718</title>
<path fill="none" stroke="black" d="M1130.81,-215.7C1128.36,-208.24 1125.43,-199.32 1122.69,-190.97"/>
<polygon fill="black" stroke="black" points="1126.04,-189.95 1119.59,-181.54 1119.39,-192.14 1126.04,-189.95"/>
</g>
<!-- j3761723928 -->
<g id="node21" class="node">
<title>j3761723928</title>
<ellipse fill="none" stroke="orange" cx="1329.5" cy="-162" rx="64.19" ry="18"/>
<text text-anchor="middle" x="1329.5" y="-158.3" font-family="Times New Roman,serif" font-size="14.00">+10 Chemistry</text>
</g>
<!-- j1572276304&#45;&gt;j3761723928 -->
<g id="edge23" class="edge">
<title>j1572276304&#45;&gt;j3761723928</title>
<path fill="none" stroke="black" d="M1329.5,-215.7C1329.5,-208.41 1329.5,-199.73 1329.5,-191.54"/>
<polygon fill="black" stroke="black" points="1333,-191.62 1329.5,-181.62 1326,-191.62 1333,-191.62"/>
</g>
<!-- j2336163012 -->
<g id="node22" class="node">
<title>j2336163012</title>
<polygon fill="none" stroke="red" points="507.5,-900 433.5,-900 433.5,-864 507.5,-864 507.5,-900"/>
<text text-anchor="middle" x="470.5" y="-878.3" font-family="Times New Roman,serif" font-size="14.00">Dlaczego?</text>
</g>
<!-- j370323178&#45;&gt;j2336163012 -->
<g id="edge24" class="edge">
<title>j370323178&#45;&gt;j2336163012</title>
<path fill="none" stroke="black" d="M436.62,-935.7C441.69,-927.81 447.8,-918.3 453.43,-909.55"/>
<polygon fill="black" stroke="black" points="456.22,-911.68 458.69,-901.38 450.33,-907.9 456.22,-911.68"/>
</g>
<!-- j2778740694 -->
<g id="node23" class="node">
<title>j2778740694</title>
<polygon fill="none" stroke="red" points="355,-468 188,-468 188,-432 355,-432 355,-468"/>
<text text-anchor="middle" x="271.5" y="-446.3" font-family="Times New Roman,serif" font-size="14.00">Tak będzie lepiej. [Koniec]</text>
</g>
<!-- j370323178&#45;&gt;j2778740694 -->
<g id="edge25" class="edge">
<title>j370323178&#45;&gt;j2778740694</title>
<path fill="none" stroke="black" d="M357.11,-935.54C298.51,-915.97 223.5,-877.87 223.5,-811 223.5,-811 223.5,-811 223.5,-737 223.5,-641.45 249.88,-530.39 263.53,-479.33"/>
<polygon fill="black" stroke="black" points="266.9,-480.27 266.15,-469.7 260.14,-478.43 266.9,-480.27"/>
</g>
<!-- j3936109186 -->
<g id="node24" class="node">
<title>j3936109186</title>
<polygon fill="none" stroke="red" points="943,-756 764,-756 764,-720 943,-720 943,-756"/>
<text text-anchor="middle" x="853.5" y="-734.3" font-family="Times New Roman,serif" font-size="14.00">Do niczego cię nie zmuszam.</text>
</g>
<!-- j3299945750&#45;&gt;j3936109186 -->
<g id="edge26" class="edge">
<title>j3299945750&#45;&gt;j3936109186</title>
<path fill="none" stroke="black" d="M653.19,-791.52C690.52,-781.73 737.25,-769.48 776.18,-759.27"/>
<polygon fill="black" stroke="black" points="776.95,-762.69 785.74,-756.77 775.18,-755.92 776.95,-762.69"/>
</g>
<!-- j1799993246 -->
<g id="node25" class="node">
<title>j1799993246</title>
<polygon fill="none" stroke="red" points="650,-756 523,-756 523,-720 650,-720 650,-756"/>
<text text-anchor="middle" x="586.5" y="-734.3" font-family="Times New Roman,serif" font-size="14.00">To może ja zacznę?</text>
</g>
<!-- j3299945750&#45;&gt;j1799993246 -->
<g id="edge27" class="edge">
<title>j3299945750&#45;&gt;j1799993246</title>
<path fill="none" stroke="black" d="M586.5,-791.7C586.5,-784.41 586.5,-775.73 586.5,-767.54"/>
<polygon fill="black" stroke="black" points="590,-767.62 586.5,-757.62 583,-767.62 590,-767.62"/>
</g>
<!-- j1301306379 -->
<g id="node26" class="node">
<title>j1301306379</title>
<polygon fill="none" stroke="red" points="1361.5,-684 1161.5,-684 1161.5,-648 1361.5,-648 1361.5,-684"/>
<text text-anchor="middle" x="1261.5" y="-662.3" font-family="Times New Roman,serif" font-size="14.00">Raczej kiepski ze mnie terapeuta.</text>
</g>
<!-- j3299945750&#45;&gt;j1301306379 -->
<g id="edge28" class="edge">
<title>j3299945750&#45;&gt;j1301306379</title>
<path fill="none" stroke="black" d="M740.03,-791.52C805.82,-782.8 883.3,-770.9 952.5,-756 1038.74,-737.43 1136.24,-707.88 1198.25,-687.97"/>
<polygon fill="black" stroke="black" points="1199.14,-691.36 1207.58,-684.96 1196.99,-684.7 1199.14,-691.36"/>
</g>
<!-- j1847770254&#45;&gt;Chat ends. -->
<g id="edge29" class="edge">
<title>j1847770254&#45;&gt;Chat ends.</title>
<path fill="none" stroke="black" d="M159.5,-503.51C159.5,-476.71 159.5,-423.87 159.5,-379 159.5,-379 159.5,-379 159.5,-161 159.5,-47.63 559.55,-24.77 715.92,-20.16"/>
<polygon fill="black" stroke="black" points="715.78,-23.67 725.68,-19.89 715.58,-16.67 715.78,-23.67"/>
</g>
<!-- j3627612622 -->
<g id="node27" class="node">
<title>j3627612622</title>
<polygon fill="none" stroke="blue" points="1157,-108 1022,-108 1022,-72 1157,-72 1157,-108"/>
<text text-anchor="middle" x="1089.5" y="-86.3" font-family="Times New Roman,serif" font-size="14.00">Na Sol, poczułem to.</text>
</g>
<!-- j1645781718&#45;&gt;j3627612622 -->
<g id="edge30" class="edge">
<title>j1645781718&#45;&gt;j3627612622</title>
<path fill="none" stroke="black" d="M1107.57,-143.7C1105.01,-136.24 1101.95,-127.32 1099.09,-118.97"/>
<polygon fill="black" stroke="black" points="1102.41,-117.86 1095.86,-109.54 1095.79,-120.13 1102.41,-117.86"/>
</g>
<!-- j2457399566 -->
<g id="node28" class="node">
<title>j2457399566</title>
<polygon fill="none" stroke="blue" points="1483.5,-108 1175.5,-108 1175.5,-72 1483.5,-72 1483.5,-108"/>
<text text-anchor="middle" x="1329.5" y="-86.3" font-family="Times New Roman,serif" font-size="14.00">Na Sol, rozwaliłeś mnie. Dzięki za poprawę humoru.</text>
</g>
<!-- j3761723928&#45;&gt;j2457399566 -->
<g id="edge31" class="edge">
<title>j3761723928&#45;&gt;j2457399566</title>
<path fill="none" stroke="black" d="M1329.5,-143.7C1329.5,-136.41 1329.5,-127.73 1329.5,-119.54"/>
<polygon fill="black" stroke="black" points="1333,-119.62 1329.5,-109.62 1326,-119.62 1333,-119.62"/>
</g>
<!-- j2336163012&#45;&gt;j3299945750 -->
<g id="edge32" class="edge">
<title>j2336163012&#45;&gt;j3299945750</title>
<path fill="none" stroke="black" d="M499.47,-863.52C514.25,-854.6 532.43,-843.63 548.33,-834.03"/>
<polygon fill="black" stroke="black" points="549.85,-837.21 556.6,-829.04 546.23,-831.21 549.85,-837.21"/>
</g>
<!-- j2778740694&#45;&gt;Chat ends. -->
<g id="edge33" class="edge">
<title>j2778740694&#45;&gt;Chat ends.</title>
<path fill="none" stroke="black" d="M271.5,-431.51C271.5,-404.71 271.5,-351.87 271.5,-307 271.5,-307 271.5,-307 271.5,-161 271.5,-69.35 583.11,-34.1 717.26,-23.17"/>
<polygon fill="black" stroke="black" points="717.32,-26.67 727.01,-22.39 716.77,-19.69 717.32,-26.67"/>
</g>
<!-- j1369461525 -->
<g id="node29" class="node">
<title>j1369461525</title>
<polygon fill="none" stroke="blue" points="1143,-684 940,-684 940,-648 1143,-648 1143,-684"/>
<text text-anchor="middle" x="1041.5" y="-662.3" font-family="Times New Roman,serif" font-size="14.00">Dzięki, spróbujemy innym razem.</text>
</g>
<!-- j3936109186&#45;&gt;j1369461525 -->
<g id="edge34" class="edge">
<title>j3936109186&#45;&gt;j1369461525</title>
<path fill="none" stroke="black" d="M900.46,-719.52C925.79,-710.08 957.26,-698.37 984.04,-688.39"/>
<polygon fill="black" stroke="black" points="985.25,-691.68 993.4,-684.91 982.81,-685.12 985.25,-691.68"/>
</g>
<!-- j3923956499 -->
<g id="node30" class="node">
<title>j3923956499</title>
<polygon fill="none" stroke="red" points="921.5,-684 251.5,-684 251.5,-648 921.5,-648 921.5,-684"/>
<text text-anchor="middle" x="586.5" y="-662.3" font-family="Times New Roman,serif" font-size="14.00">Staram się nie myśleć o tym, jak musiałem sobie radzić. Przede wszystkim dlatego, że nie mam z kim o tym pogadać.</text>
</g>
<!-- j1799993246&#45;&gt;j3923956499 -->
<g id="edge35" class="edge">
<title>j1799993246&#45;&gt;j3923956499</title>
<path fill="none" stroke="black" d="M586.5,-719.7C586.5,-712.41 586.5,-703.73 586.5,-695.54"/>
<polygon fill="black" stroke="black" points="590,-695.62 586.5,-685.62 583,-695.62 590,-695.62"/>
</g>
<!-- j1301306379&#45;&gt;Chat ends. -->
<g id="edge36" class="edge">
<title>j1301306379&#45;&gt;Chat ends.</title>
<path fill="none" stroke="black" d="M1204.99,-647.52C1126.36,-621.48 993.5,-570.46 993.5,-523 993.5,-523 993.5,-523 993.5,-161 993.5,-83.95 896.34,-46.38 832.35,-29.99"/>
<polygon fill="black" stroke="black" points="833.23,-26.6 822.68,-27.62 831.56,-33.4 833.23,-26.6"/>
</g>
<!-- j3627612622&#45;&gt;Chat ends. -->
<g id="edge37" class="edge">
<title>j3627612622&#45;&gt;Chat ends.</title>
<path fill="none" stroke="black" d="M1021.8,-73.81C964.36,-60.92 883.11,-42.69 830.36,-30.86"/>
<polygon fill="black" stroke="black" points="831.23,-27.47 820.71,-28.69 829.7,-34.3 831.23,-27.47"/>
</g>
<!-- j2457399566&#45;&gt;Chat ends. -->
<g id="edge38" class="edge">
<title>j2457399566&#45;&gt;Chat ends.</title>
<path fill="none" stroke="black" d="M1191.63,-71.52C1076.96,-56.97 919.42,-37 835.55,-26.36"/>
<polygon fill="black" stroke="black" points="836.08,-22.9 825.72,-25.12 835.2,-29.85 836.08,-22.9"/>
</g>
<!-- j1108783823 -->
<g id="node31" class="node">
<title>j1108783823</title>
<ellipse fill="none" stroke="orange" cx="901.5" cy="-594" rx="64.19" ry="18"/>
<text text-anchor="middle" x="901.5" y="-590.3" font-family="Times New Roman,serif" font-size="14.00">+10 Chemistry</text>
</g>
<!-- j1369461525&#45;&gt;j1108783823 -->
<g id="edge39" class="edge">
<title>j1369461525&#45;&gt;j1108783823</title>
<path fill="none" stroke="black" d="M1006.53,-647.52C986.95,-637.72 962.43,-625.46 942.01,-615.25"/>
<polygon fill="black" stroke="black" points="943.61,-612.14 933.11,-610.8 940.48,-618.41 943.61,-612.14"/>
</g>
<!-- j4077146453 -->
<g id="node32" class="node">
<title>j4077146453</title>
<polygon fill="none" stroke="red" points="692.5,-612 480.5,-612 480.5,-576 692.5,-576 692.5,-612"/>
<text text-anchor="middle" x="586.5" y="-590.3" font-family="Times New Roman,serif" font-size="14.00">Rozmawiać mogłem tylko ze sobą.</text>
</g>
<!-- j3923956499&#45;&gt;j4077146453 -->
<g id="edge40" class="edge">
<title>j3923956499&#45;&gt;j4077146453</title>
<path fill="none" stroke="black" d="M586.5,-647.7C586.5,-640.41 586.5,-631.73 586.5,-623.54"/>
<polygon fill="black" stroke="black" points="590,-623.62 586.5,-613.62 583,-623.62 590,-623.62"/>
</g>
<!-- j1435393400 -->
<g id="node33" class="node">
<title>j1435393400</title>
<ellipse fill="none" stroke="orange" cx="777.5" cy="-90" rx="137.28" ry="18"/>
<text text-anchor="middle" x="777.5" y="-86.3" font-family="Times New Roman,serif" font-size="14.00">Boolean ArthurSoldier is now true.</text>
</g>
<!-- j1108783823&#45;&gt;j1435393400 -->
<g id="edge41" class="edge">
<title>j1108783823&#45;&gt;j1435393400</title>
<path fill="none" stroke="black" d="M901.5,-575.51C901.5,-548.71 901.5,-495.87 901.5,-451 901.5,-451 901.5,-451 901.5,-233 901.5,-190.81 895.65,-176.29 868.5,-144 857.79,-131.27 843.2,-120.89 828.83,-112.8"/>
<polygon fill="black" stroke="black" points="830.79,-109.88 820.31,-108.28 827.5,-116.06 830.79,-109.88"/>
</g>
<!-- j1141301861 -->
<g id="node34" class="node">
<title>j1141301861</title>
<polygon fill="none" stroke="red" points="849.5,-540 323.5,-540 323.5,-504 849.5,-504 849.5,-540"/>
<text text-anchor="middle" x="586.5" y="-518.3" font-family="Times New Roman,serif" font-size="14.00">Nie miałem przyjaciół. A ty i reszta ekipy, to najbliższe co miałem do... rodziny czy czegoś.</text>
</g>
<!-- j4077146453&#45;&gt;j1141301861 -->
<g id="edge42" class="edge">
<title>j4077146453&#45;&gt;j1141301861</title>
<path fill="none" stroke="black" d="M586.5,-575.7C586.5,-568.41 586.5,-559.73 586.5,-551.54"/>
<polygon fill="black" stroke="black" points="590,-551.62 586.5,-541.62 583,-551.62 590,-551.62"/>
</g>
<!-- j1435393400&#45;&gt;Chat ends. -->
<g id="edge43" class="edge">
<title>j1435393400&#45;&gt;Chat ends.</title>
<path fill="none" stroke="black" d="M777.5,-71.7C777.5,-64.41 777.5,-55.73 777.5,-47.54"/>
<polygon fill="black" stroke="black" points="781,-47.62 777.5,-37.62 774,-47.62 781,-47.62"/>
</g>
<!-- j316297607 -->
<g id="node35" class="node">
<title>j316297607</title>
<polygon fill="none" stroke="red" points="630.5,-468 542.5,-468 542.5,-432 630.5,-432 630.5,-468"/>
<text text-anchor="middle" x="586.5" y="-446.3" font-family="Times New Roman,serif" font-size="14.00">Smutne, nie?</text>
</g>
<!-- j1141301861&#45;&gt;j316297607 -->
<g id="edge44" class="edge">
<title>j1141301861&#45;&gt;j316297607</title>
<path fill="none" stroke="black" d="M586.5,-503.7C586.5,-496.41 586.5,-487.73 586.5,-479.54"/>
<polygon fill="black" stroke="black" points="590,-479.62 586.5,-469.62 583,-479.62 590,-479.62"/>
</g>
<!-- j1567428047 -->
<g id="node36" class="node">
<title>j1567428047</title>
<polygon fill="none" stroke="red" points="873.5,-396 299.5,-396 299.5,-360 873.5,-360 873.5,-396"/>
<text text-anchor="middle" x="586.5" y="-374.3" font-family="Times New Roman,serif" font-size="14.00">Ty przynajmniej miałeś z kim pogadać, jak naszła cię ochota. Jakbyś potrzebował, to służę pomocą.</text>
</g>
<!-- j316297607&#45;&gt;j1567428047 -->
<g id="edge45" class="edge">
<title>j316297607&#45;&gt;j1567428047</title>
<path fill="none" stroke="black" d="M586.5,-431.7C586.5,-424.41 586.5,-415.73 586.5,-407.54"/>
<polygon fill="black" stroke="black" points="590,-407.62 586.5,-397.62 583,-407.62 590,-407.62"/>
</g>
<!-- j710877832 -->
<g id="node37" class="node">
<title>j710877832</title>
<polygon fill="none" stroke="blue" points="759,-324 442,-324 442,-288 759,-288 759,-324"/>
<text text-anchor="middle" x="600.5" y="-302.3" font-family="Times New Roman,serif" font-size="14.00">Nie do końca mi się podoba, kiedy mówisz z sensem.</text>
</g>
<!-- j1567428047&#45;&gt;j710877832 -->
<g id="edge46" class="edge">
<title>j1567428047&#45;&gt;j710877832</title>
<path fill="none" stroke="black" d="M589.96,-359.7C591.44,-352.32 593.2,-343.52 594.85,-335.25"/>
<polygon fill="black" stroke="black" points="598.25,-336.08 596.78,-325.59 591.39,-334.71 598.25,-336.08"/>
</g>
<!-- j1685548756 -->
<g id="node38" class="node">
<title>j1685548756</title>
<ellipse fill="none" stroke="orange" cx="628.5" cy="-234" rx="64.19" ry="18"/>
<text text-anchor="middle" x="628.5" y="-230.3" font-family="Times New Roman,serif" font-size="14.00">+20 Chemistry</text>
</g>
<!-- j710877832&#45;&gt;j1685548756 -->
<g id="edge47" class="edge">
<title>j710877832&#45;&gt;j1685548756</title>
<path fill="none" stroke="black" d="M607.42,-287.7C610.44,-280.15 614.05,-271.12 617.43,-262.68"/>
<polygon fill="black" stroke="black" points="620.63,-264.09 621.1,-253.51 614.13,-261.49 620.63,-264.09"/>
</g>
<!-- j324541426 -->
<g id="node39" class="node">
<title>j324541426</title>
<polygon fill="none" stroke="blue" points="859.5,-180 509.5,-180 509.5,-144 859.5,-144 859.5,-180"/>
<text text-anchor="middle" x="684.5" y="-158.3" font-family="Times New Roman,serif" font-size="14.00">Dzisiaj nie dam rady, ale dzięki. To... wiele dla mnie znaczy.</text>
</g>
<!-- j1685548756&#45;&gt;j324541426 -->
<g id="edge48" class="edge">
<title>j1685548756&#45;&gt;j324541426</title>
<path fill="none" stroke="black" d="M642.06,-216.05C648.49,-208.01 656.34,-198.2 663.52,-189.23"/>
<polygon fill="black" stroke="black" points="666.22,-191.45 669.73,-181.46 660.75,-187.08 666.22,-191.45"/>
</g>
<!-- j324541426&#45;&gt;j1435393400 -->
<g id="edge49" class="edge">
<title>j324541426&#45;&gt;j1435393400</title>
<path fill="none" stroke="black" d="M707.49,-143.7C718.98,-135.05 733.06,-124.45 745.58,-115.03"/>
<polygon fill="black" stroke="black" points="747.68,-117.82 753.57,-109.01 743.47,-112.23 747.68,-117.82"/>
</g>
</g>
</svg>
