<?xml version="1.0" encoding="UTF-8" standalone="no"?>
<!DOCTYPE svg PUBLIC "-//W3C//DTD SVG 1.1//EN"
 "http://www.w3.org/Graphics/SVG/1.1/DTD/svg11.dtd">
<!-- Generated by graphviz version 7.1.0 (20230121.1956)
 -->
<!-- Pages: 1 -->
<svg width="678pt" height="349pt"
 viewBox="0.00 0.00 677.50 349.00" xmlns="http://www.w3.org/2000/svg" xmlns:xlink="http://www.w3.org/1999/xlink">
<g id="graph0" class="graph" transform="scale(1 1) rotate(0) translate(4 345)">
<polygon fill="white" stroke="none" points="-4,4 -4,-345 673.5,-345 673.5,4 -4,4"/>
<!-- LettieBirthdayConvo3 begins. -->
<g id="node1" class="node">
<title>LettieBirthdayConvo3 begins.</title>
<ellipse fill="none" stroke="orange" cx="370.5" cy="-323" rx="118.88" ry="18"/>
<text text-anchor="middle" x="370.5" y="-319.3" font-family="Times New Roman,serif" font-size="14.00">LettieBirthdayConvo3 begins.</text>
</g>
<!-- j3970989044 -->
<g id="node2" class="node">
<title>j3970989044</title>
<polygon fill="none" stroke="red" points="397,-269 0,-269 0,-233 397,-233 397,-269"/>
<text text-anchor="middle" x="198.5" y="-247.3" font-family="Times New Roman,serif" font-size="14.00">Hey! Have any fun plans for your birthday? Like going to bed early?</text>
</g>
<!-- LettieBirthdayConvo3 begins.&#45;&gt;j3970989044 -->
<g id="edge1" class="edge">
<title>LettieBirthdayConvo3 begins.&#45;&gt;j3970989044</title>
<path fill="none" stroke="black" d="M330.17,-305.59C306.8,-296.08 277.09,-283.99 251.81,-273.7"/>
<polygon fill="black" stroke="black" points="253.26,-270.51 242.68,-269.98 250.62,-276.99 253.26,-270.51"/>
</g>
<!-- j3690999762 -->
<g id="node3" class="node">
<title>j3690999762</title>
<polygon fill="none" stroke="red" points="669.5,-269 415.5,-269 415.5,-233 669.5,-233 669.5,-269"/>
<text text-anchor="middle" x="542.5" y="-247.3" font-family="Times New Roman,serif" font-size="14.00">Happy Birthday! Let&#39;s go out to the clubs!</text>
</g>
<!-- LettieBirthdayConvo3 begins.&#45;&gt;j3690999762 -->
<g id="edge2" class="edge">
<title>LettieBirthdayConvo3 begins.&#45;&gt;j3690999762</title>
<path fill="none" stroke="black" d="M410.83,-305.59C434.2,-296.08 463.91,-283.99 489.19,-273.7"/>
<polygon fill="black" stroke="black" points="490.38,-276.99 498.32,-269.98 487.74,-270.51 490.38,-276.99"/>
</g>
<!-- j995163708 -->
<g id="node4" class="node">
<title>j995163708</title>
<ellipse fill="none" stroke="orange" cx="238.5" cy="-179" rx="64.19" ry="18"/>
<text text-anchor="middle" x="238.5" y="-175.3" font-family="Times New Roman,serif" font-size="14.00">+20 Chemistry</text>
</g>
<!-- j3970989044&#45;&gt;j995163708 -->
<g id="edge3" class="edge">
<title>j3970989044&#45;&gt;j995163708</title>
<path fill="none" stroke="black" d="M208.39,-232.7C212.84,-224.9 218.21,-215.51 223.17,-206.83"/>
<polygon fill="black" stroke="black" points="226.05,-208.84 227.98,-198.42 219.97,-205.36 226.05,-208.84"/>
</g>
<!-- j225679094 -->
<g id="node5" class="node">
<title>j225679094</title>
<polygon fill="none" stroke="blue" points="550,-117.5 495,-117.5 495,-79.5 550,-79.5 550,-117.5"/>
<text text-anchor="middle" x="522.5" y="-102.3" font-family="Times New Roman,serif" font-size="14.00">Jajajaja&#13;</text>
<text text-anchor="middle" x="522.5" y="-87.3" font-family="Times New Roman,serif" font-size="14.00">*No*</text>
</g>
<!-- j3690999762&#45;&gt;j225679094 -->
<g id="edge4" class="edge">
<title>j3690999762&#45;&gt;j225679094</title>
<path fill="none" stroke="black" d="M540.21,-232.74C536.85,-207.52 530.57,-160.25 526.46,-129.33"/>
<polygon fill="black" stroke="black" points="529.94,-128.92 525.15,-119.47 523,-129.84 529.94,-128.92"/>
</g>
<!-- j1116879698 -->
<g id="node6" class="node">
<title>j1116879698</title>
<polygon fill="none" stroke="blue" points="456.5,-125 178.5,-125 178.5,-72 456.5,-72 456.5,-125"/>
<text text-anchor="middle" x="317.5" y="-109.8" font-family="Times New Roman,serif" font-size="14.00">Jajajajaja&#13;</text>
<text text-anchor="middle" x="317.5" y="-94.8" font-family="Times New Roman,serif" font-size="14.00">Aaayyy, sí&#13;</text>
<text text-anchor="middle" x="317.5" y="-79.8" font-family="Times New Roman,serif" font-size="14.00">Hot bath and a nap, the birthday of my dreams</text>
</g>
<!-- j995163708&#45;&gt;j1116879698 -->
<g id="edge5" class="edge">
<title>j995163708&#45;&gt;j1116879698</title>
<path fill="none" stroke="black" d="M255.25,-161.35C263.46,-153.19 273.66,-143.06 283.41,-133.37"/>
<polygon fill="black" stroke="black" points="285.74,-135.99 290.37,-126.46 280.81,-131.03 285.74,-135.99"/>
</g>
<!-- Chat ends. -->
<g id="node7" class="node">
<title>Chat ends.</title>
<ellipse fill="none" stroke="orange" cx="409.5" cy="-18" rx="50.09" ry="18"/>
<text text-anchor="middle" x="409.5" y="-14.3" font-family="Times New Roman,serif" font-size="14.00">Chat ends.</text>
</g>
<!-- j225679094&#45;&gt;Chat ends. -->
<g id="edge6" class="edge">
<title>j225679094&#45;&gt;Chat ends.</title>
<path fill="none" stroke="black" d="M496.01,-79.1C479.49,-67.62 458.17,-52.81 440.82,-40.76"/>
<polygon fill="black" stroke="black" points="443.1,-38.08 432.89,-35.25 439.11,-43.83 443.1,-38.08"/>
</g>
<!-- j1116879698&#45;&gt;Chat ends. -->
<g id="edge7" class="edge">
<title>j1116879698&#45;&gt;Chat ends.</title>
<path fill="none" stroke="black" d="M347.88,-71.58C358.92,-62.16 371.32,-51.58 382.09,-42.39"/>
<polygon fill="black" stroke="black" points="384.2,-45.19 389.53,-36.04 379.66,-39.86 384.2,-45.19"/>
</g>
</g>
</svg>
