<?xml version="1.0" encoding="UTF-8" standalone="no"?>
<!DOCTYPE svg PUBLIC "-//W3C//DTD SVG 1.1//EN"
 "http://www.w3.org/Graphics/SVG/1.1/DTD/svg11.dtd">
<!-- Generated by graphviz version 7.1.0 (20230121.1956)
 -->
<!-- Pages: 1 -->
<svg width="1096pt" height="1395pt"
 viewBox="0.00 0.00 1095.50 1395.00" xmlns="http://www.w3.org/2000/svg" xmlns:xlink="http://www.w3.org/1999/xlink">
<g id="graph0" class="graph" transform="scale(1 1) rotate(0) translate(4 1391)">
<polygon fill="white" stroke="none" points="-4,4 -4,-1391 1091.5,-1391 1091.5,4 -4,4"/>
<!-- LettieRank4Convo1 begins. -->
<g id="node1" class="node">
<title>LettieRank4Convo1 begins.</title>
<ellipse fill="none" stroke="orange" cx="867.5" cy="-1369" rx="111.58" ry="18"/>
<text text-anchor="middle" x="867.5" y="-1365.3" font-family="Times New Roman,serif" font-size="14.00">LettieRank4Convo1 begins.</text>
</g>
<!-- j2062916361 -->
<g id="node2" class="node">
<title>j2062916361</title>
<polygon fill="none" stroke="red" points="831,-1243 506,-1243 506,-1207 831,-1207 831,-1243"/>
<text text-anchor="middle" x="668.5" y="-1221.3" font-family="Times New Roman,serif" font-size="14.00">So, I never got the whole story of how you met Arthur.</text>
</g>
<!-- LettieRank4Convo1 begins.&#45;&gt;j2062916361 -->
<g id="edge1" class="edge">
<title>LettieRank4Convo1 begins.&#45;&gt;j2062916361</title>
<path fill="none" stroke="black" d="M777.01,-1358.09C746.97,-1350.6 715.58,-1337.57 693.5,-1315 677.88,-1299.04 671.86,-1274.14 669.61,-1254.73"/>
<polygon fill="black" stroke="black" points="673.12,-1254.66 668.78,-1245 666.14,-1255.26 673.12,-1254.66"/>
</g>
<!-- j1158056539 -->
<g id="node3" class="node">
<title>j1158056539</title>
<polygon fill="none" stroke="red" points="1032,-1315 703,-1315 703,-1279 1032,-1279 1032,-1315"/>
<text text-anchor="middle" x="867.5" y="-1293.3" font-family="Times New Roman,serif" font-size="14.00">Do you have a second to chat, Lettie? Or are you busy?</text>
</g>
<!-- LettieRank4Convo1 begins.&#45;&gt;j1158056539 -->
<g id="edge2" class="edge">
<title>LettieRank4Convo1 begins.&#45;&gt;j1158056539</title>
<path fill="none" stroke="black" d="M867.5,-1350.7C867.5,-1343.41 867.5,-1334.73 867.5,-1326.54"/>
<polygon fill="black" stroke="black" points="871,-1326.62 867.5,-1316.62 864,-1326.62 871,-1326.62"/>
</g>
<!-- j336102610 -->
<g id="node4" class="node">
<title>j336102610</title>
<polygon fill="none" stroke="red" points="1087.5,-1162.5 1033.5,-1162.5 1033.5,-1126.5 1087.5,-1126.5 1087.5,-1162.5"/>
<text text-anchor="middle" x="1060.5" y="-1140.8" font-family="Times New Roman,serif" font-size="14.00">[End.]</text>
</g>
<!-- LettieRank4Convo1 begins.&#45;&gt;j336102610 -->
<g id="edge3" class="edge">
<title>LettieRank4Convo1 begins.&#45;&gt;j336102610</title>
<path fill="none" stroke="black" d="M962.83,-1359.32C992.2,-1351.87 1021.92,-1338.56 1041.5,-1315 1074.55,-1275.24 1071.35,-1210.86 1065.98,-1173.95"/>
<polygon fill="black" stroke="black" points="1069.5,-1173.8 1064.45,-1164.49 1062.59,-1174.92 1069.5,-1173.8"/>
</g>
<!-- j3098175998 -->
<g id="node5" class="node">
<title>j3098175998</title>
<polygon fill="none" stroke="blue" points="824.5,-1010 582.5,-1010 582.5,-942 824.5,-942 824.5,-1010"/>
<text text-anchor="middle" x="703.5" y="-994.8" font-family="Times New Roman,serif" font-size="14.00">Eh, it was messy &#13;</text>
<text text-anchor="middle" x="703.5" y="-979.8" font-family="Times New Roman,serif" font-size="14.00">Figured you didn&#39;t want the gory details &#13;</text>
<text text-anchor="middle" x="703.5" y="-964.8" font-family="Times New Roman,serif" font-size="14.00">But, sí, if you want to know &#13;</text>
<text text-anchor="middle" x="703.5" y="-949.8" font-family="Times New Roman,serif" font-size="14.00">I&#39;ll tell you</text>
</g>
<!-- j2062916361&#45;&gt;j3098175998 -->
<g id="edge4" class="edge">
<title>j2062916361&#45;&gt;j3098175998</title>
<path fill="none" stroke="black" d="M670.96,-1206.63C676.35,-1168.6 689.34,-1076.93 697.18,-1021.61"/>
<polygon fill="black" stroke="black" points="700.62,-1022.28 698.56,-1011.88 693.69,-1021.29 700.62,-1022.28"/>
</g>
<!-- j2181332548 -->
<g id="node6" class="node">
<title>j2181332548</title>
<ellipse fill="none" stroke="orange" cx="908.5" cy="-1225" rx="59.59" ry="18"/>
<text text-anchor="middle" x="908.5" y="-1221.3" font-family="Times New Roman,serif" font-size="14.00">+5 Chemistry</text>
</g>
<!-- j1158056539&#45;&gt;j2181332548 -->
<g id="edge5" class="edge">
<title>j1158056539&#45;&gt;j2181332548</title>
<path fill="none" stroke="black" d="M877.63,-1278.7C882.2,-1270.9 887.7,-1261.51 892.79,-1252.83"/>
<polygon fill="black" stroke="black" points="895.68,-1254.81 897.72,-1244.41 889.64,-1251.27 895.68,-1254.81"/>
</g>
<!-- Chat ends. -->
<g id="node7" class="node">
<title>Chat ends.</title>
<ellipse fill="none" stroke="orange" cx="761.5" cy="-18" rx="50.09" ry="18"/>
<text text-anchor="middle" x="761.5" y="-14.3" font-family="Times New Roman,serif" font-size="14.00">Chat ends.</text>
</g>
<!-- j336102610&#45;&gt;Chat ends. -->
<g id="edge6" class="edge">
<title>j336102610&#45;&gt;Chat ends.</title>
<path fill="none" stroke="black" d="M1060.5,-1126C1060.5,-1095.66 1060.5,-1031.34 1060.5,-977 1060.5,-977 1060.5,-977 1060.5,-208 1060.5,-146.97 1083.6,-116.18 1041.5,-72 1012.1,-41.15 895.46,-27.82 822.31,-22.4"/>
<polygon fill="black" stroke="black" points="822.7,-18.92 812.48,-21.7 822.21,-25.9 822.7,-18.92"/>
</g>
<!-- j2245602453 -->
<g id="node8" class="node">
<title>j2245602453</title>
<polygon fill="none" stroke="blue" points="863.5,-906 543.5,-906 543.5,-853 863.5,-853 863.5,-906"/>
<text text-anchor="middle" x="703.5" y="-890.8" font-family="Times New Roman,serif" font-size="14.00">We were stationed together in the same base &#13;</text>
<text text-anchor="middle" x="703.5" y="-875.8" font-family="Times New Roman,serif" font-size="14.00">Him in the Britannic and me with the Libertatian Army &#13;</text>
<text text-anchor="middle" x="703.5" y="-860.8" font-family="Times New Roman,serif" font-size="14.00">Different countries, same enemies</text>
</g>
<!-- j3098175998&#45;&gt;j2245602453 -->
<g id="edge7" class="edge">
<title>j3098175998&#45;&gt;j2245602453</title>
<path fill="none" stroke="black" d="M703.5,-941.68C703.5,-933.99 703.5,-925.76 703.5,-917.9"/>
<polygon fill="black" stroke="black" points="707,-917.91 703.5,-907.91 700,-917.91 707,-917.91"/>
</g>
<!-- j237012619 -->
<g id="node9" class="node">
<title>j237012619</title>
<polygon fill="none" stroke="blue" points="960.5,-1171 818.5,-1171 818.5,-1118 960.5,-1118 960.5,-1171"/>
<text text-anchor="middle" x="889.5" y="-1155.8" font-family="Times New Roman,serif" font-size="14.00">Always busy &#13;</text>
<text text-anchor="middle" x="889.5" y="-1140.8" font-family="Times New Roman,serif" font-size="14.00">But I can take a break &#13;</text>
<text text-anchor="middle" x="889.5" y="-1125.8" font-family="Times New Roman,serif" font-size="14.00">¿Qué onda?</text>
</g>
<!-- j2181332548&#45;&gt;j237012619 -->
<g id="edge8" class="edge">
<title>j2181332548&#45;&gt;j237012619</title>
<path fill="none" stroke="black" d="M904.28,-1206.58C902.53,-1199.35 900.44,-1190.68 898.38,-1182.18"/>
<polygon fill="black" stroke="black" points="901.84,-1181.59 896.08,-1172.69 895.03,-1183.23 901.84,-1181.59"/>
</g>
<!-- j1944743439 -->
<g id="node10" class="node">
<title>j1944743439</title>
<polygon fill="none" stroke="blue" points="817.5,-817 589.5,-817 589.5,-749 817.5,-749 817.5,-817"/>
<text text-anchor="middle" x="703.5" y="-801.8" font-family="Times New Roman,serif" font-size="14.00">I was the field medic for my regiment &#13;</text>
<text text-anchor="middle" x="703.5" y="-786.8" font-family="Times New Roman,serif" font-size="14.00">We were deployed in next to his &#13;</text>
<text text-anchor="middle" x="703.5" y="-771.8" font-family="Times New Roman,serif" font-size="14.00">The place went real cagadero &#13;</text>
<text text-anchor="middle" x="703.5" y="-756.8" font-family="Times New Roman,serif" font-size="14.00">Real fast</text>
</g>
<!-- j2245602453&#45;&gt;j1944743439 -->
<g id="edge9" class="edge">
<title>j2245602453&#45;&gt;j1944743439</title>
<path fill="none" stroke="black" d="M703.5,-852.68C703.5,-845.25 703.5,-836.92 703.5,-828.7"/>
<polygon fill="black" stroke="black" points="707,-828.76 703.5,-818.76 700,-828.76 707,-828.76"/>
</g>
<!-- j2725581914 -->
<g id="node11" class="node">
<title>j2725581914</title>
<polygon fill="none" stroke="red" points="998,-1082 745,-1082 745,-1046 998,-1046 998,-1082"/>
<text text-anchor="middle" x="871.5" y="-1060.3" font-family="Times New Roman,serif" font-size="14.00">I was wondering how you and Arthur met.</text>
</g>
<!-- j237012619&#45;&gt;j2725581914 -->
<g id="edge10" class="edge">
<title>j237012619&#45;&gt;j2725581914</title>
<path fill="none" stroke="black" d="M883.61,-1117.8C881.82,-1109.99 879.84,-1101.36 878.01,-1093.38"/>
<polygon fill="black" stroke="black" points="881.46,-1092.77 875.81,-1083.81 874.64,-1094.33 881.46,-1092.77"/>
</g>
<!-- j1860089526 -->
<g id="node12" class="node">
<title>j1860089526</title>
<polygon fill="none" stroke="blue" points="876.5,-713 530.5,-713 530.5,-585 876.5,-585 876.5,-713"/>
<text text-anchor="middle" x="703.5" y="-697.8" font-family="Times New Roman,serif" font-size="14.00">Most of my crew didn&#39;t make it &#13;</text>
<text text-anchor="middle" x="703.5" y="-682.8" font-family="Times New Roman,serif" font-size="14.00">Most of his didn&#39;t either &#13;</text>
<text text-anchor="middle" x="703.5" y="-667.8" font-family="Times New Roman,serif" font-size="14.00">We held each other together &#13;</text>
<text text-anchor="middle" x="703.5" y="-652.8" font-family="Times New Roman,serif" font-size="14.00">Literally &#13;</text>
<text text-anchor="middle" x="703.5" y="-637.8" font-family="Times New Roman,serif" font-size="14.00">I stitched his arm up good jaja &#13;</text>
<text text-anchor="middle" x="703.5" y="-622.8" font-family="Times New Roman,serif" font-size="14.00">When he retired and went into the ICR &#13;</text>
<text text-anchor="middle" x="703.5" y="-607.8" font-family="Times New Roman,serif" font-size="14.00">I followed him without question &#13;</text>
<text text-anchor="middle" x="703.5" y="-592.8" font-family="Times New Roman,serif" font-size="14.00">I was sick of all the drama that goes on in the army anyway</text>
</g>
<!-- j1944743439&#45;&gt;j1860089526 -->
<g id="edge11" class="edge">
<title>j1944743439&#45;&gt;j1860089526</title>
<path fill="none" stroke="black" d="M703.5,-748.69C703.5,-741.29 703.5,-733.15 703.5,-724.82"/>
<polygon fill="black" stroke="black" points="707,-724.91 703.5,-714.91 700,-724.91 707,-724.91"/>
</g>
<!-- j2725581914&#45;&gt;j3098175998 -->
<g id="edge12" class="edge">
<title>j2725581914&#45;&gt;j3098175998</title>
<path fill="none" stroke="black" d="M837.5,-1045.6C820.53,-1036.91 799.27,-1026.03 778.72,-1015.51"/>
<polygon fill="black" stroke="black" points="780.56,-1012.52 770.06,-1011.07 777.37,-1018.75 780.56,-1012.52"/>
</g>
<!-- j508766606 -->
<g id="node13" class="node">
<title>j508766606</title>
<polygon fill="none" stroke="blue" points="851.5,-549 555.5,-549 555.5,-511 851.5,-511 851.5,-549"/>
<text text-anchor="middle" x="703.5" y="-533.8" font-family="Times New Roman,serif" font-size="14.00">I told him I&#39;d follow him to the ends of the earth &#13;</text>
<text text-anchor="middle" x="703.5" y="-518.8" font-family="Times New Roman,serif" font-size="14.00">Didn&#39;t realize I&#39;d follow him to the edge of Mictlán</text>
</g>
<!-- j1860089526&#45;&gt;j508766606 -->
<g id="edge13" class="edge">
<title>j1860089526&#45;&gt;j508766606</title>
<path fill="none" stroke="black" d="M703.5,-584.71C703.5,-576.43 703.5,-568.28 703.5,-560.93"/>
<polygon fill="black" stroke="black" points="707,-560.94 703.5,-550.94 700,-560.94 707,-560.94"/>
</g>
<!-- j232559744 -->
<g id="node14" class="node">
<title>j232559744</title>
<polygon fill="none" stroke="blue" points="842,-475 565,-475 565,-407 842,-407 842,-475"/>
<text text-anchor="middle" x="703.5" y="-459.8" font-family="Times New Roman,serif" font-size="14.00">It must seem so small to you &#13;</text>
<text text-anchor="middle" x="703.5" y="-444.8" font-family="Times New Roman,serif" font-size="14.00">A story like that &#13;</text>
<text text-anchor="middle" x="703.5" y="-429.8" font-family="Times New Roman,serif" font-size="14.00">You fight monsters and gods &#13;</text>
<text text-anchor="middle" x="703.5" y="-414.8" font-family="Times New Roman,serif" font-size="14.00">You have danced with La Flaca so many times</text>
</g>
<!-- j508766606&#45;&gt;j232559744 -->
<g id="edge14" class="edge">
<title>j508766606&#45;&gt;j232559744</title>
<path fill="none" stroke="black" d="M703.5,-510.55C703.5,-503.49 703.5,-495.08 703.5,-486.63"/>
<polygon fill="black" stroke="black" points="707,-486.69 703.5,-476.69 700,-486.69 707,-486.69"/>
</g>
<!-- j884186611 -->
<g id="node15" class="node">
<title>j884186611</title>
<ellipse fill="none" stroke="orange" cx="703.5" cy="-353" rx="135.68" ry="18"/>
<text text-anchor="middle" x="703.5" y="-349.3" font-family="Times New Roman,serif" font-size="14.00">Boolean LettieArthur1 is now true.</text>
</g>
<!-- j232559744&#45;&gt;j884186611 -->
<g id="edge15" class="edge">
<title>j232559744&#45;&gt;j884186611</title>
<path fill="none" stroke="black" d="M703.5,-406.5C703.5,-398.58 703.5,-390.2 703.5,-382.52"/>
<polygon fill="black" stroke="black" points="707,-382.71 703.5,-372.71 700,-382.71 707,-382.71"/>
</g>
<!-- j198369590 -->
<g id="node16" class="node">
<title>j198369590</title>
<polygon fill="none" stroke="red" points="599,-299 0,-299 0,-263 599,-263 599,-299"/>
<text text-anchor="middle" x="299.5" y="-277.3" font-family="Times New Roman,serif" font-size="14.00">Just because my fights are a bit spectacular doesn&#39;t mean I can&#39;t appreciate how horrible it must&#39;ve been.</text>
</g>
<!-- j884186611&#45;&gt;j198369590 -->
<g id="edge16" class="edge">
<title>j884186611&#45;&gt;j198369590</title>
<path fill="none" stroke="black" d="M623.2,-338.09C562.6,-327.59 478.71,-313.05 411.51,-301.41"/>
<polygon fill="black" stroke="black" points="412.39,-298.01 401.94,-299.75 411.2,-304.91 412.39,-298.01"/>
</g>
<!-- j2940409536 -->
<g id="node17" class="node">
<title>j2940409536</title>
<polygon fill="none" stroke="red" points="789.5,-299 617.5,-299 617.5,-263 789.5,-263 789.5,-299"/>
<text text-anchor="middle" x="703.5" y="-277.3" font-family="Times New Roman,serif" font-size="14.00">All war is shit, end of story.</text>
</g>
<!-- j884186611&#45;&gt;j2940409536 -->
<g id="edge17" class="edge">
<title>j884186611&#45;&gt;j2940409536</title>
<path fill="none" stroke="black" d="M703.5,-334.7C703.5,-327.41 703.5,-318.73 703.5,-310.54"/>
<polygon fill="black" stroke="black" points="707,-310.62 703.5,-300.62 700,-310.62 707,-310.62"/>
</g>
<!-- j3218395424 -->
<g id="node18" class="node">
<title>j3218395424</title>
<polygon fill="none" stroke="red" points="985,-299 808,-299 808,-263 985,-263 985,-299"/>
<text text-anchor="middle" x="896.5" y="-277.3" font-family="Times New Roman,serif" font-size="14.00">Eh, little people, little stories.</text>
</g>
<!-- j884186611&#45;&gt;j3218395424 -->
<g id="edge18" class="edge">
<title>j884186611&#45;&gt;j3218395424</title>
<path fill="none" stroke="black" d="M748.75,-335.59C775.33,-325.95 809.21,-313.66 837.82,-303.28"/>
<polygon fill="black" stroke="black" points="838.87,-306.63 847.08,-299.93 836.48,-300.04 838.87,-306.63"/>
</g>
<!-- j3158777872 -->
<g id="node19" class="node">
<title>j3158777872</title>
<ellipse fill="none" stroke="orange" cx="318.5" cy="-209" rx="64.19" ry="18"/>
<text text-anchor="middle" x="318.5" y="-205.3" font-family="Times New Roman,serif" font-size="14.00">+10 Chemistry</text>
</g>
<!-- j198369590&#45;&gt;j3158777872 -->
<g id="edge19" class="edge">
<title>j198369590&#45;&gt;j3158777872</title>
<path fill="none" stroke="black" d="M304.2,-262.7C306.22,-255.24 308.64,-246.32 310.91,-237.97"/>
<polygon fill="black" stroke="black" points="314.22,-239.13 313.46,-228.57 307.46,-237.3 314.22,-239.13"/>
</g>
<!-- j191479716 -->
<g id="node20" class="node">
<title>j191479716</title>
<ellipse fill="none" stroke="orange" cx="664.5" cy="-209" rx="64.19" ry="18"/>
<text text-anchor="middle" x="664.5" y="-205.3" font-family="Times New Roman,serif" font-size="14.00">+15 Chemistry</text>
</g>
<!-- j2940409536&#45;&gt;j191479716 -->
<g id="edge20" class="edge">
<title>j2940409536&#45;&gt;j191479716</title>
<path fill="none" stroke="black" d="M693.86,-262.7C689.56,-254.98 684.4,-245.71 679.61,-237.11"/>
<polygon fill="black" stroke="black" points="682.69,-235.46 674.77,-228.43 676.58,-238.87 682.69,-235.46"/>
</g>
<!-- j2603294825 -->
<g id="node21" class="node">
<title>j2603294825</title>
<polygon fill="none" stroke="blue" points="924.5,-227 868.5,-227 868.5,-191 924.5,-191 924.5,-227"/>
<text text-anchor="middle" x="896.5" y="-205.3" font-family="Times New Roman,serif" font-size="14.00">Seguro</text>
</g>
<!-- j3218395424&#45;&gt;j2603294825 -->
<g id="edge21" class="edge">
<title>j3218395424&#45;&gt;j2603294825</title>
<path fill="none" stroke="black" d="M896.5,-262.7C896.5,-255.41 896.5,-246.73 896.5,-238.54"/>
<polygon fill="black" stroke="black" points="900,-238.62 896.5,-228.62 893,-238.62 900,-238.62"/>
</g>
<!-- j1603024259 -->
<g id="node22" class="node">
<title>j1603024259</title>
<polygon fill="none" stroke="blue" points="473.5,-155 235.5,-155 235.5,-72 473.5,-72 473.5,-155"/>
<text text-anchor="middle" x="354.5" y="-139.8" font-family="Times New Roman,serif" font-size="14.00">Ay, sí &#13;</text>
<text text-anchor="middle" x="354.5" y="-124.8" font-family="Times New Roman,serif" font-size="14.00">Bright and flashy or small and personal &#13;</text>
<text text-anchor="middle" x="354.5" y="-109.8" font-family="Times New Roman,serif" font-size="14.00">La Flaca is all the same in the end &#13;</text>
<text text-anchor="middle" x="354.5" y="-94.8" font-family="Times New Roman,serif" font-size="14.00">At least... she should be &#13;</text>
<text text-anchor="middle" x="354.5" y="-79.8" font-family="Times New Roman,serif" font-size="14.00">But not for los fantasmas</text>
</g>
<!-- j3158777872&#45;&gt;j1603024259 -->
<g id="edge22" class="edge">
<title>j3158777872&#45;&gt;j1603024259</title>
<path fill="none" stroke="black" d="M325.1,-190.85C327.87,-183.65 331.26,-174.86 334.73,-165.84"/>
<polygon fill="black" stroke="black" points="337.95,-167.23 338.28,-156.64 331.42,-164.71 337.95,-167.23"/>
</g>
<!-- j660193965 -->
<g id="node23" class="node">
<title>j660193965</title>
<polygon fill="none" stroke="blue" points="743,-132.5 510,-132.5 510,-94.5 743,-94.5 743,-132.5"/>
<text text-anchor="middle" x="626.5" y="-117.3" font-family="Times New Roman,serif" font-size="14.00">Sí, It&#39;s all the same &#13;</text>
<text text-anchor="middle" x="626.5" y="-102.3" font-family="Times New Roman,serif" font-size="14.00">No matter how big and stupid the guns</text>
</g>
<!-- j191479716&#45;&gt;j660193965 -->
<g id="edge23" class="edge">
<title>j191479716&#45;&gt;j660193965</title>
<path fill="none" stroke="black" d="M657.53,-190.85C652.15,-177.61 644.59,-159 638.27,-143.47"/>
<polygon fill="black" stroke="black" points="641.52,-142.17 634.52,-134.22 635.04,-144.8 641.52,-142.17"/>
</g>
<!-- j3065772033 -->
<g id="node24" class="node">
<title>j3065772033</title>
<ellipse fill="none" stroke="orange" cx="896.5" cy="-113.5" rx="135.68" ry="18"/>
<text text-anchor="middle" x="896.5" y="-109.8" font-family="Times New Roman,serif" font-size="14.00">Boolean LettieNoDate is now true.</text>
</g>
<!-- j2603294825&#45;&gt;j3065772033 -->
<g id="edge24" class="edge">
<title>j2603294825&#45;&gt;j3065772033</title>
<path fill="none" stroke="black" d="M896.5,-190.85C896.5,-177.49 896.5,-158.65 896.5,-143.03"/>
<polygon fill="black" stroke="black" points="900,-143.37 896.5,-133.37 893,-143.37 900,-143.37"/>
</g>
<!-- j1603024259&#45;&gt;Chat ends. -->
<g id="edge25" class="edge">
<title>j1603024259&#45;&gt;Chat ends.</title>
<path fill="none" stroke="black" d="M473.84,-78.66C482.84,-76.33 491.8,-74.09 500.5,-72 571.08,-55.07 653.24,-38.97 706.24,-29.05"/>
<polygon fill="black" stroke="black" points="706.74,-32.52 715.93,-27.25 705.46,-25.64 706.74,-32.52"/>
</g>
<!-- j660193965&#45;&gt;Chat ends. -->
<g id="edge26" class="edge">
<title>j660193965&#45;&gt;Chat ends.</title>
<path fill="none" stroke="black" d="M653.17,-94.03C675.23,-78.75 706.59,-57.03 729.9,-40.88"/>
<polygon fill="black" stroke="black" points="731.88,-43.77 738.1,-35.2 727.89,-38.02 731.88,-43.77"/>
</g>
<!-- j3065772033&#45;&gt;Chat ends. -->
<g id="edge27" class="edge">
<title>j3065772033&#45;&gt;Chat ends.</title>
<path fill="none" stroke="black" d="M871.74,-95.35C849.66,-80.06 817.22,-57.59 793.24,-40.99"/>
<polygon fill="black" stroke="black" points="795.32,-38.17 785.11,-35.35 791.34,-43.92 795.32,-38.17"/>
</g>
</g>
</svg>
