<?xml version="1.0" encoding="UTF-8" standalone="no"?>
<!DOCTYPE svg PUBLIC "-//W3C//DTD SVG 1.1//EN"
 "http://www.w3.org/Graphics/SVG/1.1/DTD/svg11.dtd">
<!-- Generated by graphviz version 7.1.0 (20230121.1956)
 -->
<!-- Pages: 1 -->
<svg width="1062pt" height="1586pt"
 viewBox="0.00 0.00 1062.24 1586.00" xmlns="http://www.w3.org/2000/svg" xmlns:xlink="http://www.w3.org/1999/xlink">
<g id="graph0" class="graph" transform="scale(1 1) rotate(0) translate(4 1582)">
<polygon fill="white" stroke="none" points="-4,4 -4,-1582 1058.24,-1582 1058.24,4 -4,4"/>
<!-- LettieRank4Convo4 begins. -->
<g id="node1" class="node">
<title>LettieRank4Convo4 begins.</title>
<ellipse fill="none" stroke="orange" cx="113.74" cy="-1560" rx="111.58" ry="18"/>
<text text-anchor="middle" x="113.74" y="-1556.3" font-family="Times New Roman,serif" font-size="14.00">LettieRank4Convo4 begins.</text>
</g>
<!-- j1158339480 -->
<g id="node2" class="node">
<title>j1158339480</title>
<ellipse fill="none" stroke="orange" cx="113.74" cy="-1487" rx="113.98" ry="18"/>
<text text-anchor="middle" x="113.74" y="-1483.3" font-family="Times New Roman,serif" font-size="14.00">Check boolean LettieNoFlirt</text>
</g>
<!-- LettieRank4Convo4 begins.&#45;&gt;j1158339480 -->
<g id="edge1" class="edge">
<title>LettieRank4Convo4 begins.&#45;&gt;j1158339480</title>
<path fill="none" stroke="black" d="M113.74,-1541.81C113.74,-1534.23 113.74,-1525.1 113.74,-1516.54"/>
<polygon fill="black" stroke="black" points="117.24,-1516.54 113.74,-1506.54 110.24,-1516.54 117.24,-1516.54"/>
</g>
<!-- Chat ends. -->
<g id="node3" class="node">
<title>Chat ends.</title>
<ellipse fill="none" stroke="orange" cx="394.74" cy="-18" rx="50.09" ry="18"/>
<text text-anchor="middle" x="394.74" y="-14.3" font-family="Times New Roman,serif" font-size="14.00">Chat ends.</text>
</g>
<!-- j1158339480&#45;&gt;Chat ends. -->
<g id="edge2" class="edge">
<title>j1158339480&#45;&gt;Chat ends.</title>
<path fill="none" stroke="green" d="M108.5,-1468.6C103.83,-1451.54 97.74,-1424.73 97.74,-1401 97.74,-1401 97.74,-1401 97.74,-91 97.74,-42.89 246.8,-26.81 333.72,-21.52"/>
<polygon fill="green" stroke="green" points="333.73,-25.03 343.52,-20.96 333.33,-18.04 333.73,-25.03"/>
<text text-anchor="middle" x="108.74" y="-749.3" font-family="Times New Roman,serif" font-size="14.00">true</text>
</g>
<!-- j927399648 -->
<g id="node4" class="node">
<title>j927399648</title>
<polygon fill="none" stroke="red" points="718.24,-1418 199.24,-1418 199.24,-1382 718.24,-1382 718.24,-1418"/>
<text text-anchor="middle" x="458.74" y="-1396.3" font-family="Times New Roman,serif" font-size="14.00">Hypothetical question: If I wanted to ask you out for drinks, would I end up with stitches?</text>
</g>
<!-- j1158339480&#45;&gt;j927399648 -->
<g id="edge3" class="edge">
<title>j1158339480&#45;&gt;j927399648</title>
<path fill="none" stroke="brown" d="M173.44,-1471.29C229.66,-1457.44 314.34,-1436.58 376.85,-1421.18"/>
<polygon fill="brown" stroke="brown" points="377.52,-1424.62 386.39,-1418.83 375.84,-1417.82 377.52,-1424.62"/>
<text text-anchor="middle" x="319.74" y="-1439.8" font-family="Times New Roman,serif" font-size="14.00">false</text>
</g>
<!-- j3741727461 -->
<g id="node5" class="node">
<title>j3741727461</title>
<ellipse fill="none" stroke="orange" cx="707.74" cy="-1327" rx="115.88" ry="18"/>
<text text-anchor="middle" x="707.74" y="-1323.3" font-family="Times New Roman,serif" font-size="14.00">Check boolean LettieNoDate</text>
</g>
<!-- j927399648&#45;&gt;j3741727461 -->
<g id="edge4" class="edge">
<title>j927399648&#45;&gt;j3741727461</title>
<path fill="none" stroke="black" d="M519.97,-1381.54C557.32,-1370.89 605.02,-1357.29 643,-1346.46"/>
<polygon fill="black" stroke="black" points="643.83,-1349.86 652.49,-1343.76 641.91,-1343.13 643.83,-1349.86"/>
</g>
<!-- j3884914732 -->
<g id="node6" class="node">
<title>j3884914732</title>
<polygon fill="none" stroke="blue" points="1054.24,-1202 975.24,-1202 975.24,-1164 1054.24,-1164 1054.24,-1202"/>
<text text-anchor="middle" x="1014.74" y="-1186.8" font-family="Times New Roman,serif" font-size="14.00">Sí &#13;</text>
<text text-anchor="middle" x="1014.74" y="-1171.8" font-family="Times New Roman,serif" font-size="14.00">You would</text>
</g>
<!-- j3741727461&#45;&gt;j3884914732 -->
<g id="edge5" class="edge">
<title>j3741727461&#45;&gt;j3884914732</title>
<path fill="none" stroke="green" d="M743.56,-1309.43C798.13,-1284.19 902.31,-1236 964.45,-1207.26"/>
<polygon fill="green" stroke="green" points="965.81,-1210.49 973.42,-1203.11 962.87,-1204.13 965.81,-1210.49"/>
<text text-anchor="middle" x="826.74" y="-1279.8" font-family="Times New Roman,serif" font-size="14.00">true</text>
</g>
<!-- j2259369198 -->
<g id="node7" class="node">
<title>j2259369198</title>
<polygon fill="none" stroke="blue" points="741.74,-1258 673.74,-1258 673.74,-1220 741.74,-1220 741.74,-1258"/>
<text text-anchor="middle" x="707.74" y="-1242.8" font-family="Times New Roman,serif" font-size="14.00">Mm? &#13;</text>
<text text-anchor="middle" x="707.74" y="-1227.8" font-family="Times New Roman,serif" font-size="14.00">Jajaja, no</text>
</g>
<!-- j3741727461&#45;&gt;j2259369198 -->
<g id="edge6" class="edge">
<title>j3741727461&#45;&gt;j2259369198</title>
<path fill="none" stroke="brown" d="M707.74,-1308.6C707.74,-1297.4 707.74,-1282.56 707.74,-1269.55"/>
<polygon fill="brown" stroke="brown" points="711.24,-1269.78 707.74,-1259.78 704.24,-1269.78 711.24,-1269.78"/>
<text text-anchor="middle" x="720.74" y="-1279.8" font-family="Times New Roman,serif" font-size="14.00">false</text>
</g>
<!-- j3884914732&#45;&gt;Chat ends. -->
<g id="edge7" class="edge">
<title>j3884914732&#45;&gt;Chat ends.</title>
<path fill="none" stroke="black" d="M1017.64,-1163.87C1021.2,-1140.08 1026.74,-1097.03 1026.74,-1060 1026.74,-1060 1026.74,-1060 1026.74,-91 1026.74,-34 615.68,-22.11 456.59,-19.64"/>
<polygon fill="black" stroke="black" points="456.69,-16.14 446.64,-19.5 456.59,-23.14 456.69,-16.14"/>
</g>
<!-- j3801373262 -->
<g id="node8" class="node">
<title>j3801373262</title>
<polygon fill="none" stroke="blue" points="861.74,-1146 553.74,-1146 553.74,-1078 861.74,-1078 861.74,-1146"/>
<text text-anchor="middle" x="707.74" y="-1130.8" font-family="Times New Roman,serif" font-size="14.00">But I don&#39;t drink, never have &#13;</text>
<text text-anchor="middle" x="707.74" y="-1115.8" font-family="Times New Roman,serif" font-size="14.00">Don&#39;t do drugs, either &#13;</text>
<text text-anchor="middle" x="707.74" y="-1100.8" font-family="Times New Roman,serif" font-size="14.00">You&#39;ll have to be more creative to get into my pants &#13;</text>
<text text-anchor="middle" x="707.74" y="-1085.8" font-family="Times New Roman,serif" font-size="14.00">Or whatever it is I have to wear now</text>
</g>
<!-- j2259369198&#45;&gt;j3801373262 -->
<g id="edge8" class="edge">
<title>j2259369198&#45;&gt;j3801373262</title>
<path fill="none" stroke="black" d="M707.74,-1219.56C707.74,-1203.28 707.74,-1178.9 707.74,-1157.57"/>
<polygon fill="black" stroke="black" points="711.24,-1157.61 707.74,-1147.61 704.24,-1157.61 711.24,-1157.61"/>
</g>
<!-- j79841389 -->
<g id="node9" class="node">
<title>j79841389</title>
<polygon fill="none" stroke="red" points="986.74,-987 588.74,-987 588.74,-951 986.74,-951 986.74,-987"/>
<text text-anchor="middle" x="787.74" y="-965.3" font-family="Times New Roman,serif" font-size="14.00">Good to know. :) Any hints on what I can do to win you over, then?</text>
</g>
<!-- j3801373262&#45;&gt;j79841389 -->
<g id="edge9" class="edge">
<title>j3801373262&#45;&gt;j79841389</title>
<path fill="none" stroke="black" d="M727.53,-1077.64C734.32,-1066.08 741.93,-1053 748.74,-1041 756.9,-1026.62 765.79,-1010.47 773.02,-997.21"/>
<polygon fill="black" stroke="black" points="775.99,-999.08 777.69,-988.62 769.84,-995.73 775.99,-999.08"/>
</g>
<!-- j597667419 -->
<g id="node10" class="node">
<title>j597667419</title>
<polygon fill="none" stroke="red" points="739.24,-1041 438.24,-1041 438.24,-1005 739.24,-1005 739.24,-1041"/>
<text text-anchor="middle" x="588.74" y="-1019.3" font-family="Times New Roman,serif" font-size="14.00">On that topic, do you... I&#39;ve been meaning to ask...</text>
</g>
<!-- j3801373262&#45;&gt;j597667419 -->
<g id="edge10" class="edge">
<title>j3801373262&#45;&gt;j597667419</title>
<path fill="none" stroke="black" d="M662.07,-1077.61C648.6,-1067.76 634.12,-1057.18 621.62,-1048.04"/>
<polygon fill="black" stroke="black" points="623.85,-1045.33 613.71,-1042.26 619.72,-1050.98 623.85,-1045.33"/>
</g>
<!-- j369287667 -->
<g id="node11" class="node">
<title>j369287667</title>
<polygon fill="none" stroke="blue" points="998.74,-549.5 596.74,-549.5 596.74,-496.5 998.74,-496.5 998.74,-549.5"/>
<text text-anchor="middle" x="797.74" y="-534.3" font-family="Times New Roman,serif" font-size="14.00">You just should be real certain that you know what you&#39;re for, babas &#13;</text>
<text text-anchor="middle" x="797.74" y="-519.3" font-family="Times New Roman,serif" font-size="14.00">If you like it sweet and gentle go talk to Aoi or Amir &#13;</text>
<text text-anchor="middle" x="797.74" y="-504.3" font-family="Times New Roman,serif" font-size="14.00">I am too used to pain and like it too much for that kind of thing</text>
</g>
<!-- j79841389&#45;&gt;j369287667 -->
<g id="edge11" class="edge">
<title>j79841389&#45;&gt;j369287667</title>
<path fill="none" stroke="black" d="M803.06,-950.62C816.44,-933.59 833.74,-906.31 833.74,-879 833.74,-879 833.74,-879 833.74,-626 833.74,-603.29 825.71,-579.27 817.23,-560.25"/>
<polygon fill="black" stroke="black" points="820.45,-558.89 813.03,-551.33 814.12,-561.87 820.45,-558.89"/>
</g>
<!-- j557481327 -->
<g id="node12" class="node">
<title>j557481327</title>
<polygon fill="none" stroke="blue" points="558.74,-933 504.74,-933 504.74,-897 558.74,-897 558.74,-933"/>
<text text-anchor="middle" x="531.74" y="-911.3" font-family="Times New Roman,serif" font-size="14.00">¿Qué?</text>
</g>
<!-- j597667419&#45;&gt;j557481327 -->
<g id="edge12" class="edge">
<title>j597667419&#45;&gt;j557481327</title>
<path fill="none" stroke="black" d="M579.58,-1004.97C570.66,-988.38 556.95,-962.88 546.49,-943.43"/>
<polygon fill="black" stroke="black" points="549.6,-941.82 541.78,-934.67 543.43,-945.14 549.6,-941.82"/>
</g>
<!-- j4013424908 -->
<g id="node13" class="node">
<title>j4013424908</title>
<polygon fill="none" stroke="red" points="497.24,-437 292.24,-437 292.24,-401 497.24,-401 497.24,-437"/>
<text text-anchor="middle" x="394.74" y="-415.3" font-family="Times New Roman,serif" font-size="14.00">Yes ma&#39;am. Consider me warned.</text>
</g>
<!-- j369287667&#45;&gt;j4013424908 -->
<g id="edge13" class="edge">
<title>j369287667&#45;&gt;j4013424908</title>
<path fill="none" stroke="black" d="M695.26,-496.06C626.85,-478.75 538.16,-456.3 474.9,-440.29"/>
<polygon fill="black" stroke="black" points="475.81,-436.91 465.26,-437.85 474.09,-443.7 475.81,-436.91"/>
</g>
<!-- j3928054913 -->
<g id="node14" class="node">
<title>j3928054913</title>
<polygon fill="none" stroke="red" points="815.74,-437 515.74,-437 515.74,-401 815.74,-401 815.74,-437"/>
<text text-anchor="middle" x="665.74" y="-415.3" font-family="Times New Roman,serif" font-size="14.00">Um... Yeah, never mind. Pain&#39;s not really my thing.</text>
</g>
<!-- j369287667&#45;&gt;j3928054913 -->
<g id="edge14" class="edge">
<title>j369287667&#45;&gt;j3928054913</title>
<path fill="none" stroke="black" d="M772.63,-496.03C759.32,-482.96 742.33,-467.32 725.74,-455 720.21,-450.9 714.17,-446.88 708.11,-443.12"/>
<polygon fill="black" stroke="black" points="710.32,-440.37 699.95,-438.22 706.72,-446.37 710.32,-440.37"/>
</g>
<!-- j3977279939 -->
<g id="node15" class="node">
<title>j3977279939</title>
<polygon fill="none" stroke="red" points="805.74,-860 257.74,-860 257.74,-824 805.74,-824 805.74,-860"/>
<text text-anchor="middle" x="531.74" y="-838.3" font-family="Times New Roman,serif" font-size="14.00">I&#39;ve been curious if you and the other protoframes still had... y&#39;know... your... y&#39;know... parts...</text>
</g>
<!-- j557481327&#45;&gt;j3977279939 -->
<g id="edge15" class="edge">
<title>j557481327&#45;&gt;j3977279939</title>
<path fill="none" stroke="black" d="M531.74,-896.81C531.74,-889.23 531.74,-880.1 531.74,-871.54"/>
<polygon fill="black" stroke="black" points="535.24,-871.54 531.74,-861.54 528.24,-871.54 535.24,-871.54"/>
</g>
<!-- j289160360 -->
<g id="node16" class="node">
<title>j289160360</title>
<polygon fill="none" stroke="red" points="239.24,-860 126.24,-860 126.24,-824 239.24,-824 239.24,-860"/>
<text text-anchor="middle" x="182.74" y="-838.3" font-family="Times New Roman,serif" font-size="14.00">Uh &#45; Never mind.</text>
</g>
<!-- j557481327&#45;&gt;j289160360 -->
<g id="edge16" class="edge">
<title>j557481327&#45;&gt;j289160360</title>
<path fill="none" stroke="black" d="M504.3,-909.36C455.45,-900.98 349.95,-882.29 250.7,-860.36"/>
<polygon fill="black" stroke="black" points="251.57,-856.97 241.04,-858.21 250.04,-863.8 251.57,-856.97"/>
</g>
<!-- j237416197 -->
<g id="node17" class="node">
<title>j237416197</title>
<ellipse fill="none" stroke="orange" cx="394.74" cy="-346" rx="123.48" ry="18"/>
<text text-anchor="middle" x="394.74" y="-342.3" font-family="Times New Roman,serif" font-size="14.00">Boolean LettiePain is now true.</text>
</g>
<!-- j4013424908&#45;&gt;j237416197 -->
<g id="edge17" class="edge">
<title>j4013424908&#45;&gt;j237416197</title>
<path fill="none" stroke="black" d="M394.74,-400.81C394.74,-393.23 394.74,-384.1 394.74,-375.54"/>
<polygon fill="black" stroke="black" points="398.24,-375.54 394.74,-365.54 391.24,-375.54 398.24,-375.54"/>
</g>
<!-- j2790197377 -->
<g id="node18" class="node">
<title>j2790197377</title>
<ellipse fill="none" stroke="orange" cx="663.74" cy="-346" rx="64.19" ry="18"/>
<text text-anchor="middle" x="663.74" y="-342.3" font-family="Times New Roman,serif" font-size="14.00">+15 Chemistry</text>
</g>
<!-- j3928054913&#45;&gt;j2790197377 -->
<g id="edge18" class="edge">
<title>j3928054913&#45;&gt;j2790197377</title>
<path fill="none" stroke="black" d="M665.26,-400.81C665.04,-393.14 664.78,-383.89 664.54,-375.24"/>
<polygon fill="black" stroke="black" points="668.04,-375.44 664.26,-365.54 661.05,-375.64 668.04,-375.44"/>
</g>
<!-- j2247822972 -->
<g id="node19" class="node">
<title>j2247822972</title>
<polygon fill="none" stroke="blue" points="700.24,-787 311.24,-787 311.24,-719 700.24,-719 700.24,-787"/>
<text text-anchor="middle" x="505.74" y="-771.8" font-family="Times New Roman,serif" font-size="14.00">JAJAJAJAJA &#13;</text>
<text text-anchor="middle" x="505.74" y="-756.8" font-family="Times New Roman,serif" font-size="14.00">Are you serious?! &#13;</text>
<text text-anchor="middle" x="505.74" y="-741.8" font-family="Times New Roman,serif" font-size="14.00">You can&#39;t just ASK people what they &#45; &#13;</text>
<text text-anchor="middle" x="505.74" y="-726.8" font-family="Times New Roman,serif" font-size="14.00">Aaaay babaaaaassss I have not laughed so hard in a looooong time</text>
</g>
<!-- j3977279939&#45;&gt;j2247822972 -->
<g id="edge19" class="edge">
<title>j3977279939&#45;&gt;j2247822972</title>
<path fill="none" stroke="black" d="M526.6,-823.81C524.39,-816.42 521.7,-807.4 518.99,-798.33"/>
<polygon fill="black" stroke="black" points="522.36,-797.39 516.14,-788.81 515.65,-799.39 522.36,-797.39"/>
</g>
<!-- j463742044 -->
<g id="node20" class="node">
<title>j463742044</title>
<polygon fill="none" stroke="blue" points="228.24,-701 137.24,-701 137.24,-663 228.24,-663 228.24,-701"/>
<text text-anchor="middle" x="182.74" y="-685.8" font-family="Times New Roman,serif" font-size="14.00">Va &#13;</text>
<text text-anchor="middle" x="182.74" y="-670.8" font-family="Times New Roman,serif" font-size="14.00">Busy anyway</text>
</g>
<!-- j289160360&#45;&gt;j463742044 -->
<g id="edge20" class="edge">
<title>j289160360&#45;&gt;j463742044</title>
<path fill="none" stroke="black" d="M182.74,-823.79C182.74,-797.01 182.74,-745.03 182.74,-712.27"/>
<polygon fill="black" stroke="black" points="186.24,-712.67 182.74,-702.67 179.24,-712.67 186.24,-712.67"/>
</g>
<!-- j1071048924 -->
<g id="node21" class="node">
<title>j1071048924</title>
<ellipse fill="none" stroke="orange" cx="394.74" cy="-264.5" rx="64.19" ry="18"/>
<text text-anchor="middle" x="394.74" y="-260.8" font-family="Times New Roman,serif" font-size="14.00">+20 Chemistry</text>
</g>
<!-- j237416197&#45;&gt;j1071048924 -->
<g id="edge21" class="edge">
<title>j237416197&#45;&gt;j1071048924</title>
<path fill="none" stroke="black" d="M394.74,-327.75C394.74,-318.02 394.74,-305.62 394.74,-294.45"/>
<polygon fill="black" stroke="black" points="398.24,-294.5 394.74,-284.5 391.24,-294.5 398.24,-294.5"/>
</g>
<!-- j994907621 -->
<g id="node22" class="node">
<title>j994907621</title>
<polygon fill="none" stroke="blue" points="794.24,-291 519.24,-291 519.24,-238 794.24,-238 794.24,-291"/>
<text text-anchor="middle" x="656.74" y="-275.8" font-family="Times New Roman,serif" font-size="14.00">Bueno &#13;</text>
<text text-anchor="middle" x="656.74" y="-260.8" font-family="Times New Roman,serif" font-size="14.00">You&#39;re better off that way &#13;</text>
<text text-anchor="middle" x="656.74" y="-245.8" font-family="Times New Roman,serif" font-size="14.00">You can let me know if you change your mind</text>
</g>
<!-- j2790197377&#45;&gt;j994907621 -->
<g id="edge22" class="edge">
<title>j2790197377&#45;&gt;j994907621</title>
<path fill="none" stroke="black" d="M662.22,-327.75C661.57,-320.38 660.79,-311.48 660.02,-302.74"/>
<polygon fill="black" stroke="black" points="663.52,-302.65 659.16,-292.99 656.55,-303.26 663.52,-302.65"/>
</g>
<!-- j469447403 -->
<g id="node23" class="node">
<title>j469447403</title>
<polygon fill="none" stroke="red" points="421.74,-645 367.74,-645 367.74,-609 421.74,-609 421.74,-645"/>
<text text-anchor="middle" x="394.74" y="-623.3" font-family="Times New Roman,serif" font-size="14.00">Sorry.</text>
</g>
<!-- j2247822972&#45;&gt;j469447403 -->
<g id="edge23" class="edge">
<title>j2247822972&#45;&gt;j469447403</title>
<path fill="none" stroke="black" d="M475.99,-718.77C457.7,-698.33 434.61,-672.54 417.72,-653.67"/>
<polygon fill="black" stroke="black" points="420.5,-651.52 411.22,-646.41 415.28,-656.19 420.5,-651.52"/>
</g>
<!-- j933062727 -->
<g id="node24" class="node">
<title>j933062727</title>
<polygon fill="none" stroke="red" points="571.24,-645 440.24,-645 440.24,-609 571.24,-609 571.24,-645"/>
<text text-anchor="middle" x="505.74" y="-623.3" font-family="Times New Roman,serif" font-size="14.00">Um... well? Do you?</text>
</g>
<!-- j2247822972&#45;&gt;j933062727 -->
<g id="edge24" class="edge">
<title>j2247822972&#45;&gt;j933062727</title>
<path fill="none" stroke="black" d="M505.74,-718.77C505.74,-699.35 505.74,-675.09 505.74,-656.54"/>
<polygon fill="black" stroke="black" points="509.24,-656.79 505.74,-646.79 502.24,-656.79 509.24,-656.79"/>
</g>
<!-- j463742044&#45;&gt;Chat ends. -->
<g id="edge25" class="edge">
<title>j463742044&#45;&gt;Chat ends.</title>
<path fill="none" stroke="black" d="M182.74,-662.73C182.74,-644.55 182.74,-615.84 182.74,-591 182.74,-591 182.74,-591 182.74,-91 182.74,-58.34 274.09,-37.53 336.86,-27.09"/>
<polygon fill="black" stroke="black" points="337.41,-30.55 346.72,-25.5 336.29,-23.64 337.41,-30.55"/>
</g>
<!-- j2691616004 -->
<g id="node25" class="node">
<title>j2691616004</title>
<polygon fill="none" stroke="blue" points="490.24,-201 299.24,-201 299.24,-148 490.24,-148 490.24,-201"/>
<text text-anchor="middle" x="394.74" y="-185.8" font-family="Times New Roman,serif" font-size="14.00">Mm, yeah? &#13;</text>
<text text-anchor="middle" x="394.74" y="-170.8" font-family="Times New Roman,serif" font-size="14.00">Think you can take it, do you? &#13;</text>
<text text-anchor="middle" x="394.74" y="-155.8" font-family="Times New Roman,serif" font-size="14.00">We&#39;ll see</text>
</g>
<!-- j1071048924&#45;&gt;j2691616004 -->
<g id="edge26" class="edge">
<title>j1071048924&#45;&gt;j2691616004</title>
<path fill="none" stroke="black" d="M394.74,-246.11C394.74,-236.5 394.74,-224.16 394.74,-212.5"/>
<polygon fill="black" stroke="black" points="398.24,-212.7 394.74,-202.7 391.24,-212.7 398.24,-212.7"/>
</g>
<!-- j1133440060 -->
<g id="node26" class="node">
<title>j1133440060</title>
<ellipse fill="none" stroke="orange" cx="653.74" cy="-174.5" rx="134.58" ry="18"/>
<text text-anchor="middle" x="653.74" y="-170.8" font-family="Times New Roman,serif" font-size="14.00">Boolean LettieNoPain is now true.</text>
</g>
<!-- j994907621&#45;&gt;j1133440060 -->
<g id="edge27" class="edge">
<title>j994907621&#45;&gt;j1133440060</title>
<path fill="none" stroke="black" d="M655.86,-237.57C655.5,-227.11 655.09,-215 654.72,-204.27"/>
<polygon fill="black" stroke="black" points="658.22,-204.29 654.38,-194.41 651.23,-204.53 658.22,-204.29"/>
</g>
<!-- j1504995206 -->
<g id="node27" class="node">
<title>j1504995206</title>
<polygon fill="none" stroke="blue" points="578.74,-572 210.74,-572 210.74,-474 578.74,-474 578.74,-572"/>
<text text-anchor="middle" x="394.74" y="-556.8" font-family="Times New Roman,serif" font-size="14.00">I tell you what &#13;</text>
<text text-anchor="middle" x="394.74" y="-541.8" font-family="Times New Roman,serif" font-size="14.00">Maybe if you are a good little babas &#13;</text>
<text text-anchor="middle" x="394.74" y="-526.8" font-family="Times New Roman,serif" font-size="14.00">You just might find out, mm? &#13;</text>
<text text-anchor="middle" x="394.74" y="-511.8" font-family="Times New Roman,serif" font-size="14.00">Just warning you &#13;</text>
<text text-anchor="middle" x="394.74" y="-496.8" font-family="Times New Roman,serif" font-size="14.00">If you like it sweet and gentle go talk to Aoi or Amir &#13;</text>
<text text-anchor="middle" x="394.74" y="-481.8" font-family="Times New Roman,serif" font-size="14.00">I am too used to pain and like it too much for that kind of thing</text>
</g>
<!-- j469447403&#45;&gt;j1504995206 -->
<g id="edge28" class="edge">
<title>j469447403&#45;&gt;j1504995206</title>
<path fill="none" stroke="black" d="M394.74,-608.7C394.74,-601.5 394.74,-592.69 394.74,-583.5"/>
<polygon fill="black" stroke="black" points="398.24,-583.7 394.74,-573.7 391.24,-583.7 398.24,-583.7"/>
</g>
<!-- j933062727&#45;&gt;j1504995206 -->
<g id="edge29" class="edge">
<title>j933062727&#45;&gt;j1504995206</title>
<path fill="none" stroke="black" d="M486.91,-608.7C478.05,-600.56 466.93,-590.34 455.52,-579.85"/>
<polygon fill="black" stroke="black" points="458.03,-577.4 448.29,-573.21 453.29,-582.56 458.03,-577.4"/>
</g>
<!-- j2985394125 -->
<g id="node28" class="node">
<title>j2985394125</title>
<polygon fill="none" stroke="blue" points="536.24,-111 253.24,-111 253.24,-73 536.24,-73 536.24,-111"/>
<text text-anchor="middle" x="394.74" y="-95.8" font-family="Times New Roman,serif" font-size="14.00">Now vete &#13;</text>
<text text-anchor="middle" x="394.74" y="-80.8" font-family="Times New Roman,serif" font-size="14.00">Can&#39;t be daydreaming when I&#39;ve got work to do</text>
</g>
<!-- j2691616004&#45;&gt;j2985394125 -->
<g id="edge30" class="edge">
<title>j2691616004&#45;&gt;j2985394125</title>
<path fill="none" stroke="black" d="M394.74,-147.59C394.74,-139.68 394.74,-130.93 394.74,-122.79"/>
<polygon fill="black" stroke="black" points="398.24,-122.98 394.74,-112.98 391.24,-122.98 398.24,-122.98"/>
</g>
<!-- j699860038 -->
<g id="node29" class="node">
<title>j699860038</title>
<polygon fill="none" stroke="blue" points="697.24,-111 572.24,-111 572.24,-73 697.24,-73 697.24,-111"/>
<text text-anchor="middle" x="634.74" y="-95.8" font-family="Times New Roman,serif" font-size="14.00">Now vete &#13;</text>
<text text-anchor="middle" x="634.74" y="-80.8" font-family="Times New Roman,serif" font-size="14.00">I&#39;ve got work to do</text>
</g>
<!-- j1133440060&#45;&gt;j699860038 -->
<g id="edge31" class="edge">
<title>j1133440060&#45;&gt;j699860038</title>
<path fill="none" stroke="black" d="M649.62,-156.03C647.3,-146.22 644.35,-133.71 641.68,-122.42"/>
<polygon fill="black" stroke="black" points="645.1,-121.67 639.4,-112.74 638.29,-123.28 645.1,-121.67"/>
</g>
<!-- j1504995206&#45;&gt;j4013424908 -->
<g id="edge32" class="edge">
<title>j1504995206&#45;&gt;j4013424908</title>
<path fill="none" stroke="black" d="M394.74,-473.69C394.74,-465.17 394.74,-456.56 394.74,-448.79"/>
<polygon fill="black" stroke="black" points="398.24,-448.95 394.74,-438.95 391.24,-448.95 398.24,-448.95"/>
</g>
<!-- j1504995206&#45;&gt;j3928054913 -->
<g id="edge33" class="edge">
<title>j1504995206&#45;&gt;j3928054913</title>
<path fill="none" stroke="black" d="M523.49,-473.54C553.35,-462.3 583.65,-450.9 608.57,-441.52"/>
<polygon fill="black" stroke="black" points="609.71,-444.83 617.84,-438.03 607.25,-438.28 609.71,-444.83"/>
</g>
<!-- j2985394125&#45;&gt;Chat ends. -->
<g id="edge34" class="edge">
<title>j2985394125&#45;&gt;Chat ends.</title>
<path fill="none" stroke="black" d="M394.74,-72.83C394.74,-65.24 394.74,-56.24 394.74,-47.79"/>
<polygon fill="black" stroke="black" points="398.24,-47.93 394.74,-37.93 391.24,-47.93 398.24,-47.93"/>
</g>
<!-- j699860038&#45;&gt;Chat ends. -->
<g id="edge35" class="edge">
<title>j699860038&#45;&gt;Chat ends.</title>
<path fill="none" stroke="black" d="M573.25,-72.55C532.8,-60.42 480.6,-44.76 443.12,-33.51"/>
<polygon fill="black" stroke="black" points="444.5,-30.28 433.92,-30.75 442.49,-36.98 444.5,-30.28"/>
</g>
</g>
</svg>
