<?xml version="1.0" encoding="UTF-8" standalone="no"?>
<!DOCTYPE svg PUBLIC "-//W3C//DTD SVG 1.1//EN"
 "http://www.w3.org/Graphics/SVG/1.1/DTD/svg11.dtd">
<!-- Generated by graphviz version 7.1.0 (20230121.1956)
 -->
<!-- Pages: 1 -->
<svg width="2554pt" height="1756pt"
 viewBox="0.00 0.00 2553.94 1756.00" xmlns="http://www.w3.org/2000/svg" xmlns:xlink="http://www.w3.org/1999/xlink">
<g id="graph0" class="graph" transform="scale(1 1) rotate(0) translate(4 1752)">
<polygon fill="white" stroke="none" points="-4,4 -4,-1752 2549.94,-1752 2549.94,4 -4,4"/>
<!-- EleanorRank4Convo8 begins. -->
<g id="node1" class="node">
<title>EleanorRank4Convo8 begins.</title>
<ellipse fill="none" stroke="orange" cx="131.94" cy="-1730" rx="118.88" ry="18"/>
<text text-anchor="middle" x="131.94" y="-1726.3" font-family="Times New Roman,serif" font-size="14.00">EleanorRank4Convo8 begins.</text>
</g>
<!-- j1650638022 -->
<g id="node2" class="node">
<title>j1650638022</title>
<ellipse fill="none" stroke="orange" cx="131.94" cy="-1657" rx="131.88" ry="18"/>
<text text-anchor="middle" x="131.94" y="-1653.3" font-family="Times New Roman,serif" font-size="14.00">Check boolean AmirRPGEleanor</text>
</g>
<!-- EleanorRank4Convo8 begins.&#45;&gt;j1650638022 -->
<g id="edge1" class="edge">
<title>EleanorRank4Convo8 begins.&#45;&gt;j1650638022</title>
<path fill="none" stroke="black" d="M131.94,-1711.81C131.94,-1704.23 131.94,-1695.1 131.94,-1686.54"/>
<polygon fill="black" stroke="black" points="135.44,-1686.54 131.94,-1676.54 128.44,-1686.54 135.44,-1686.54"/>
</g>
<!-- Chat ends. -->
<g id="node3" class="node">
<title>Chat ends.</title>
<ellipse fill="none" stroke="orange" cx="1179.94" cy="-18" rx="50.09" ry="18"/>
<text text-anchor="middle" x="1179.94" y="-14.3" font-family="Times New Roman,serif" font-size="14.00">Chat ends.</text>
</g>
<!-- j1650638022&#45;&gt;Chat ends. -->
<g id="edge2" class="edge">
<title>j1650638022&#45;&gt;Chat ends.</title>
<path fill="none" stroke="green" d="M126.7,-1638.6C122.03,-1621.54 115.94,-1594.73 115.94,-1571 115.94,-1571 115.94,-1571 115.94,-90 115.94,-39.42 891.58,-23.45 1118.37,-19.87"/>
<polygon fill="green" stroke="green" points="1118.23,-23.37 1128.18,-19.71 1118.12,-16.37 1118.23,-23.37"/>
<text text-anchor="middle" x="126.94" y="-770.8" font-family="Times New Roman,serif" font-size="14.00">true</text>
</g>
<!-- j3079612182 -->
<g id="node4" class="node">
<title>j3079612182</title>
<ellipse fill="none" stroke="orange" cx="1091.94" cy="-1570" rx="104.78" ry="18"/>
<text text-anchor="middle" x="1091.94" y="-1566.3" font-family="Times New Roman,serif" font-size="14.00">Check boolean AmirRPG</text>
</g>
<!-- j1650638022&#45;&gt;j3079612182 -->
<g id="edge3" class="edge">
<title>j1650638022&#45;&gt;j3079612182</title>
<path fill="none" stroke="brown" d="M240.2,-1646.41C426.79,-1629.89 806.51,-1596.27 989.21,-1580.1"/>
<polygon fill="brown" stroke="brown" points="989.27,-1583.6 998.92,-1579.24 988.65,-1576.63 989.27,-1583.6"/>
<text text-anchor="middle" x="682.94" y="-1609.8" font-family="Times New Roman,serif" font-size="14.00">false</text>
</g>
<!-- j3079612182&#45;&gt;Chat ends. -->
<g id="edge5" class="edge">
<title>j3079612182&#45;&gt;Chat ends.</title>
<path fill="none" stroke="brown" d="M1196.65,-1568.23C1526.14,-1565.14 2519.94,-1550.3 2519.94,-1484 2519.94,-1484 2519.94,-1484 2519.94,-90 2519.94,-25.12 1504.85,-19.39 1241.66,-19"/>
<polygon fill="brown" stroke="brown" points="1241.94,-15.5 1231.94,-18.99 1241.94,-22.5 1241.94,-15.5"/>
<text text-anchor="middle" x="2532.94" y="-727.3" font-family="Times New Roman,serif" font-size="14.00">false</text>
</g>
<!-- j1871124460 -->
<g id="node5" class="node">
<title>j1871124460</title>
<ellipse fill="none" stroke="orange" cx="1091.94" cy="-1483" rx="155.17" ry="18"/>
<text text-anchor="middle" x="1091.94" y="-1479.3" font-family="Times New Roman,serif" font-size="14.00">Check boolean AmirRPGEleanorAsked</text>
</g>
<!-- j3079612182&#45;&gt;j1871124460 -->
<g id="edge4" class="edge">
<title>j3079612182&#45;&gt;j1871124460</title>
<path fill="none" stroke="green" d="M1091.94,-1551.8C1091.94,-1540.58 1091.94,-1525.67 1091.94,-1512.69"/>
<polygon fill="green" stroke="green" points="1095.44,-1512.98 1091.94,-1502.98 1088.44,-1512.98 1095.44,-1512.98"/>
<text text-anchor="middle" x="1102.94" y="-1522.8" font-family="Times New Roman,serif" font-size="14.00">true</text>
</g>
<!-- j1155873758 -->
<g id="node6" class="node">
<title>j1155873758</title>
<polygon fill="none" stroke="red" points="1990.44,-1414 1325.44,-1414 1325.44,-1378 1990.44,-1378 1990.44,-1414"/>
<text text-anchor="middle" x="1657.94" y="-1392.3" font-family="Times New Roman,serif" font-size="14.00">ねぇEleanor？　Amirが遊びたいって言ってたボードゲーム覚えている？「Fables &amp; Frontiers」？</text>
</g>
<!-- j1871124460&#45;&gt;j1155873758 -->
<g id="edge6" class="edge">
<title>j1871124460&#45;&gt;j1155873758</title>
<path fill="none" stroke="green" d="M1184.14,-1468.15C1278.21,-1454.03 1424.93,-1431.99 1530.17,-1416.19"/>
<polygon fill="green" stroke="green" points="1530.64,-1419.66 1540.01,-1414.71 1529.6,-1412.73 1530.64,-1419.66"/>
<text text-anchor="middle" x="1418.94" y="-1435.8" font-family="Times New Roman,serif" font-size="14.00">true</text>
</g>
<!-- j268727370 -->
<g id="node7" class="node">
<title>j268727370</title>
<polygon fill="none" stroke="red" points="1221.94,-1414 961.94,-1414 961.94,-1378 1221.94,-1378 1221.94,-1414"/>
<text text-anchor="middle" x="1091.94" y="-1392.3" font-family="Times New Roman,serif" font-size="14.00">Eleanor？　Amirとは仲がいいよね？</text>
</g>
<!-- j1871124460&#45;&gt;j268727370 -->
<g id="edge7" class="edge">
<title>j1871124460&#45;&gt;j268727370</title>
<path fill="none" stroke="brown" d="M1091.94,-1464.8C1091.94,-1453.58 1091.94,-1438.67 1091.94,-1425.69"/>
<polygon fill="brown" stroke="brown" points="1095.44,-1425.98 1091.94,-1415.98 1088.44,-1425.98 1095.44,-1425.98"/>
<text text-anchor="middle" x="1104.94" y="-1435.8" font-family="Times New Roman,serif" font-size="14.00">false</text>
</g>
<!-- j4204042854 -->
<g id="node8" class="node">
<title>j4204042854</title>
<polygon fill="none" stroke="red" points="898.94,-1414 724.94,-1414 724.94,-1378 898.94,-1378 898.94,-1414"/>
<text text-anchor="middle" x="811.94" y="-1392.3" font-family="Times New Roman,serif" font-size="14.00">ボードゲームは好き？</text>
</g>
<!-- j1871124460&#45;&gt;j4204042854 -->
<g id="edge8" class="edge">
<title>j1871124460&#45;&gt;j4204042854</title>
<path fill="none" stroke="brown" d="M1038.28,-1465.71C993.26,-1452.04 928.68,-1432.44 880.02,-1417.67"/>
<polygon fill="brown" stroke="brown" points="881.3,-1414.4 870.71,-1414.84 879.27,-1421.1 881.3,-1414.4"/>
<text text-anchor="middle" x="980.94" y="-1435.8" font-family="Times New Roman,serif" font-size="14.00">false</text>
</g>
<!-- j2382553417 -->
<g id="node9" class="node">
<title>j2382553417</title>
<polygon fill="none" stroke="blue" points="2252.44,-1341 1637.44,-1341 1637.44,-1305 2252.44,-1305 2252.44,-1341"/>
<text text-anchor="middle" x="1944.94" y="-1319.3" font-family="Times New Roman,serif" font-size="14.00">ええ。あなたが時間の無駄で、同情心で付き合っていると言った、あれのことよね？</text>
</g>
<!-- j1155873758&#45;&gt;j2382553417 -->
<g id="edge9" class="edge">
<title>j1155873758&#45;&gt;j2382553417</title>
<path fill="none" stroke="black" d="M1728.51,-1377.54C1769.43,-1367.42 1821.13,-1354.63 1863.73,-1344.09"/>
<polygon fill="black" stroke="black" points="1864.3,-1347.55 1873.17,-1341.76 1862.62,-1340.76 1864.3,-1347.55"/>
</g>
<!-- j2976228776 -->
<g id="node10" class="node">
<title>j2976228776</title>
<polygon fill="none" stroke="blue" points="1265.44,-1341 918.44,-1341 918.44,-1305 1265.44,-1305 1265.44,-1341"/>
<text text-anchor="middle" x="1091.94" y="-1319.3" font-family="Times New Roman,serif" font-size="14.00">可愛らしい小悪魔みたいなものね。どうして？</text>
</g>
<!-- j268727370&#45;&gt;j2976228776 -->
<g id="edge10" class="edge">
<title>j268727370&#45;&gt;j2976228776</title>
<path fill="none" stroke="black" d="M1091.94,-1377.81C1091.94,-1370.23 1091.94,-1361.1 1091.94,-1352.54"/>
<polygon fill="black" stroke="black" points="1095.44,-1352.54 1091.94,-1342.54 1088.44,-1352.54 1095.44,-1352.54"/>
</g>
<!-- j3207131521 -->
<g id="node11" class="node">
<title>j3207131521</title>
<polygon fill="none" stroke="blue" points="900.44,-1341 631.44,-1341 631.44,-1305 900.44,-1305 900.44,-1341"/>
<text text-anchor="middle" x="765.94" y="-1319.3" font-family="Times New Roman,serif" font-size="14.00">まぁ人並には、かしら。どうして？</text>
</g>
<!-- j4204042854&#45;&gt;j3207131521 -->
<g id="edge11" class="edge">
<title>j4204042854&#45;&gt;j3207131521</title>
<path fill="none" stroke="black" d="M800.8,-1377.81C795.49,-1369.62 789.02,-1359.62 783.1,-1350.48"/>
<polygon fill="black" stroke="black" points="786.17,-1348.79 777.79,-1342.3 780.29,-1352.59 786.17,-1348.79"/>
</g>
<!-- j4666026 -->
<g id="node12" class="node">
<title>j4666026</title>
<polygon fill="none" stroke="red" points="2400.44,-1214 2179.44,-1214 2179.44,-1178 2400.44,-1178 2400.44,-1214"/>
<text text-anchor="middle" x="2289.94" y="-1192.3" font-family="Times New Roman,serif" font-size="14.00">うわ。まだ怒ってる。了解。</text>
</g>
<!-- j2382553417&#45;&gt;j4666026 -->
<g id="edge12" class="edge">
<title>j2382553417&#45;&gt;j4666026</title>
<path fill="none" stroke="black" d="M2015.74,-1304.57C2034.79,-1299.39 2055.28,-1293.39 2073.94,-1287 2132.88,-1266.82 2198.72,-1238.52 2242.04,-1219.07"/>
<polygon fill="black" stroke="black" points="2243.22,-1222.38 2250.9,-1215.07 2240.34,-1216 2243.22,-1222.38"/>
</g>
<!-- j648984589 -->
<g id="node13" class="node">
<title>j648984589</title>
<polygon fill="none" stroke="red" points="2031.44,-1268 1390.44,-1268 1390.44,-1232 2031.44,-1232 2031.44,-1268"/>
<text text-anchor="middle" x="1710.94" y="-1246.3" font-family="Times New Roman,serif" font-size="14.00">あの時はEleanorにメンツがあると思って、自分もそのフリをしていた。今は反省したよ。</text>
</g>
<!-- j2382553417&#45;&gt;j648984589 -->
<g id="edge13" class="edge">
<title>j2382553417&#45;&gt;j648984589</title>
<path fill="none" stroke="black" d="M1887.4,-1304.54C1854.67,-1294.61 1813.49,-1282.12 1779.15,-1271.7"/>
<polygon fill="black" stroke="black" points="1780.29,-1268.39 1769.71,-1268.83 1778.26,-1275.08 1780.29,-1268.39"/>
</g>
<!-- j2689046153 -->
<g id="node14" class="node">
<title>j2689046153</title>
<polygon fill="none" stroke="red" points="2458.44,-1106 1661.44,-1106 1661.44,-1070 2458.44,-1070 2458.44,-1106"/>
<text text-anchor="middle" x="2059.94" y="-1084.3" font-family="Times New Roman,serif" font-size="14.00">うん、それで…　謝りたかったんだ。意図して言ったわけじゃないんだ。Eleanorに断られるのが怖かったんだ。</text>
</g>
<!-- j2382553417&#45;&gt;j2689046153 -->
<g id="edge14" class="edge">
<title>j2382553417&#45;&gt;j2689046153</title>
<path fill="none" stroke="black" d="M1995.72,-1304.57C2012.8,-1296.18 2030.22,-1284.29 2040.94,-1268 2071.09,-1222.18 2068.83,-1155.06 2064.43,-1117.37"/>
<polygon fill="black" stroke="black" points="2067.93,-1117.2 2063.16,-1107.74 2060.99,-1118.11 2067.93,-1117.2"/>
</g>
<!-- j2798843157 -->
<g id="node15" class="node">
<title>j2798843157</title>
<polygon fill="none" stroke="red" points="1371.94,-1268 811.94,-1268 811.94,-1232 1371.94,-1232 1371.94,-1268"/>
<text text-anchor="middle" x="1091.94" y="-1246.3" font-family="Times New Roman,serif" font-size="14.00">Amirが「Fables &amp; Frontiers」をプレイするメンバー探していて、それの手伝い。</text>
</g>
<!-- j2976228776&#45;&gt;j2798843157 -->
<g id="edge15" class="edge">
<title>j2976228776&#45;&gt;j2798843157</title>
<path fill="none" stroke="black" d="M1091.94,-1304.81C1091.94,-1297.23 1091.94,-1288.1 1091.94,-1279.54"/>
<polygon fill="black" stroke="black" points="1095.44,-1279.54 1091.94,-1269.54 1088.44,-1279.54 1095.44,-1279.54"/>
</g>
<!-- j3365475617 -->
<g id="node16" class="node">
<title>j3365475617</title>
<polygon fill="none" stroke="red" points="793.44,-1268 296.44,-1268 296.44,-1232 793.44,-1232 793.44,-1268"/>
<text text-anchor="middle" x="544.94" y="-1246.3" font-family="Times New Roman,serif" font-size="14.00">Amirがみんなと「Fables &amp; Frontiers」を遊びたいんだって。どうする？</text>
</g>
<!-- j2976228776&#45;&gt;j3365475617 -->
<g id="edge16" class="edge">
<title>j2976228776&#45;&gt;j3365475617</title>
<path fill="none" stroke="black" d="M957.43,-1304.54C876.53,-1294.04 773.53,-1280.67 690.69,-1269.92"/>
<polygon fill="black" stroke="black" points="691.27,-1266.46 680.91,-1268.65 690.37,-1273.41 691.27,-1266.46"/>
</g>
<!-- j3207131521&#45;&gt;j2798843157 -->
<g id="edge17" class="edge">
<title>j3207131521&#45;&gt;j2798843157</title>
<path fill="none" stroke="black" d="M846.1,-1304.54C892.89,-1294.35 952.08,-1281.46 1000.65,-1270.88"/>
<polygon fill="black" stroke="black" points="1001.29,-1274.32 1010.32,-1268.78 999.8,-1267.48 1001.29,-1274.32"/>
</g>
<!-- j3207131521&#45;&gt;j3365475617 -->
<g id="edge18" class="edge">
<title>j3207131521&#45;&gt;j3365475617</title>
<path fill="none" stroke="black" d="M711.59,-1304.54C680.82,-1294.65 642.13,-1282.23 609.78,-1271.83"/>
<polygon fill="black" stroke="black" points="611.11,-1268.58 600.51,-1268.85 608.97,-1275.25 611.11,-1268.58"/>
</g>
<!-- j4666026&#45;&gt;Chat ends. -->
<g id="edge19" class="edge">
<title>j4666026&#45;&gt;Chat ends.</title>
<path fill="none" stroke="black" d="M2381.4,-1177.56C2427.58,-1162.9 2473.94,-1136.37 2473.94,-1089 2473.94,-1089 2473.94,-1089 2473.94,-90 2473.94,-27.51 1498.99,-20.01 1241.62,-19.12"/>
<polygon fill="black" stroke="black" points="1241.79,-15.62 1231.78,-19.09 1241.77,-22.62 1241.79,-15.62"/>
</g>
<!-- j3159032147 -->
<g id="node17" class="node">
<title>j3159032147</title>
<polygon fill="none" stroke="blue" points="1870.94,-1160 1412.94,-1160 1412.94,-1124 1870.94,-1124 1870.94,-1160"/>
<text text-anchor="middle" x="1641.94" y="-1138.3" font-family="Times New Roman,serif" font-size="14.00">その「メンツ」はどちらが失ったの？　あなた、それとも私？</text>
</g>
<!-- j648984589&#45;&gt;j3159032147 -->
<g id="edge20" class="edge">
<title>j648984589&#45;&gt;j3159032147</title>
<path fill="none" stroke="black" d="M1699.85,-1231.97C1688.95,-1215.22 1672.15,-1189.41 1659.44,-1169.89"/>
<polygon fill="black" stroke="black" points="1662.44,-1168.08 1654.05,-1161.61 1656.57,-1171.9 1662.44,-1168.08"/>
</g>
<!-- j3375199714 -->
<g id="node18" class="node">
<title>j3375199714</title>
<polygon fill="none" stroke="blue" points="2445.44,-944 1044.44,-944 1044.44,-908 2445.44,-908 2445.44,-944"/>
<text text-anchor="middle" x="1744.94" y="-922.3" font-family="Times New Roman,serif" font-size="14.00">誰もが人生で一度は経験することね…　誰かに感銘を与えるために仮面を被ろうとして、前が見えなくて地面に転ぶ時が。あの時は、私たちもまだ通じ合えてなかったしね。分かったわ。許すわ。</text>
</g>
<!-- j2689046153&#45;&gt;j3375199714 -->
<g id="edge21" class="edge">
<title>j2689046153&#45;&gt;j3375199714</title>
<path fill="none" stroke="black" d="M2138.54,-1069.55C2146.1,-1064.98 2152.84,-1059.24 2157.94,-1052 2167.16,-1038.92 2167.99,-1028.45 2157.94,-1016 2129.88,-981.25 2035.03,-959.42 1943.3,-946.08"/>
<polygon fill="black" stroke="black" points="1944.02,-942.65 1933.63,-944.71 1943.04,-949.58 1944.02,-942.65"/>
</g>
<!-- j2983433640 -->
<g id="node19" class="node">
<title>j2983433640</title>
<polygon fill="none" stroke="blue" points="1390.94,-1160 150.94,-1160 150.94,-1124 1390.94,-1124 1390.94,-1160"/>
<text text-anchor="middle" x="770.94" y="-1138.3" font-family="Times New Roman,serif" font-size="14.00">あぁ、そうなのね。あなたは雷王から美しきEleanorを招待するため選ばれた使者なのね。摩訶不思議な冒険が待ち構えているでしょうね。とんでもアドベンチャーみたいな。</text>
</g>
<!-- j2798843157&#45;&gt;j2983433640 -->
<g id="edge22" class="edge">
<title>j2798843157&#45;&gt;j2983433640</title>
<path fill="none" stroke="black" d="M1039.29,-1231.61C983.28,-1213.12 894.66,-1183.85 834.72,-1164.06"/>
<polygon fill="black" stroke="black" points="835.91,-1160.77 825.32,-1160.96 833.72,-1167.42 835.91,-1160.77"/>
</g>
<!-- j3365475617&#45;&gt;j2983433640 -->
<g id="edge23" class="edge">
<title>j3365475617&#45;&gt;j2983433640</title>
<path fill="none" stroke="black" d="M582,-1231.61C620.68,-1213.48 681.44,-1184.98 723.57,-1165.22"/>
<polygon fill="black" stroke="black" points="724.91,-1168.45 732.48,-1161.04 721.94,-1162.11 724.91,-1168.45"/>
</g>
<!-- j2477670767 -->
<g id="node20" class="node">
<title>j2477670767</title>
<polygon fill="none" stroke="red" points="1444.94,-998 992.94,-998 992.94,-962 1444.94,-962 1444.94,-998"/>
<text text-anchor="middle" x="1218.94" y="-976.3" font-family="Times New Roman,serif" font-size="14.00">Eleanorの方。まだダサいゲームだと思ってるし、まぁいいや。</text>
</g>
<!-- j3159032147&#45;&gt;j2477670767 -->
<g id="edge24" class="edge">
<title>j3159032147&#45;&gt;j2477670767</title>
<path fill="none" stroke="black" d="M1476,-1123.52C1379.82,-1109.84 1271.45,-1087.14 1238.94,-1052 1228.34,-1040.54 1223.3,-1023.9 1220.93,-1009.61"/>
<polygon fill="black" stroke="black" points="1224.42,-1009.31 1219.69,-999.83 1217.47,-1010.19 1224.42,-1009.31"/>
</g>
<!-- j2310864320 -->
<g id="node21" class="node">
<title>j2310864320</title>
<polygon fill="none" stroke="red" points="2148.94,-1052 1340.94,-1052 1340.94,-1016 2148.94,-1016 2148.94,-1052"/>
<text text-anchor="middle" x="1744.94" y="-1030.3" font-family="Times New Roman,serif" font-size="14.00">間違いなく自分だ。Eleanorはこのゲームをプレイするにはクールすぎる。でも自分はマヌケだから、Quincy曰く。</text>
</g>
<!-- j3159032147&#45;&gt;j2310864320 -->
<g id="edge25" class="edge">
<title>j3159032147&#45;&gt;j2310864320</title>
<path fill="none" stroke="black" d="M1641.52,-1123.53C1642.06,-1107.8 1645.25,-1084.92 1657.94,-1070 1661.73,-1065.54 1666.18,-1061.65 1671.01,-1058.24"/>
<polygon fill="black" stroke="black" points="1672.74,-1061.29 1679.44,-1053.07 1669.08,-1055.32 1672.74,-1061.29"/>
</g>
<!-- j1413906155 -->
<g id="node22" class="node">
<title>j1413906155</title>
<polygon fill="none" stroke="red" points="1322.44,-1052 1247.44,-1052 1247.44,-1016 1322.44,-1016 1322.44,-1052"/>
<text text-anchor="middle" x="1284.94" y="-1030.3" font-family="Times New Roman,serif" font-size="14.00">...両方？</text>
</g>
<!-- j3159032147&#45;&gt;j1413906155 -->
<g id="edge26" class="edge">
<title>j3159032147&#45;&gt;j1413906155</title>
<path fill="none" stroke="black" d="M1576.23,-1123.52C1515.68,-1107.1 1423.14,-1081.22 1333.72,-1052.47"/>
<polygon fill="black" stroke="black" points="1334.86,-1049.16 1324.27,-1049.42 1332.71,-1055.82 1334.86,-1049.16"/>
</g>
<!-- j4036644382 -->
<g id="node23" class="node">
<title>j4036644382</title>
<polygon fill="none" stroke="blue" points="1816.94,-836 1264.94,-836 1264.94,-800 1816.94,-800 1816.94,-836"/>
<text text-anchor="middle" x="1540.94" y="-814.3" font-family="Times New Roman,serif" font-size="14.00">正直、声作って数時間役を演じるのはいいかもしれないわね。参加するわ。</text>
</g>
<!-- j3375199714&#45;&gt;j4036644382 -->
<g id="edge27" class="edge">
<title>j3375199714&#45;&gt;j4036644382</title>
<path fill="none" stroke="black" d="M1711.71,-907.73C1676.99,-889.69 1622.37,-861.31 1584.28,-841.52"/>
<polygon fill="black" stroke="black" points="1586.32,-838.64 1575.84,-837.13 1583.1,-844.85 1586.32,-838.64"/>
</g>
<!-- j3917807769 -->
<g id="node24" class="node">
<title>j3917807769</title>
<polygon fill="none" stroke="red" points="987.94,-998 655.94,-998 655.94,-962 987.94,-962 987.94,-998"/>
<text text-anchor="middle" x="821.94" y="-976.3" font-family="Times New Roman,serif" font-size="14.00">以外と楽しそうかも。彼結構真剣らしいし。</text>
</g>
<!-- j2983433640&#45;&gt;j3917807769 -->
<g id="edge28" class="edge">
<title>j2983433640&#45;&gt;j3917807769</title>
<path fill="none" stroke="black" d="M777.63,-1123.75C784.42,-1105.93 795.04,-1077.23 802.94,-1052 807.29,-1038.11 811.53,-1022.5 814.9,-1009.46"/>
<polygon fill="black" stroke="black" points="818.29,-1010.35 817.36,-999.8 811.5,-1008.63 818.29,-1010.35"/>
</g>
<!-- j1315918773 -->
<g id="node25" class="node">
<title>j1315918773</title>
<polygon fill="none" stroke="red" points="793.44,-1052 304.44,-1052 304.44,-1016 793.44,-1016 793.44,-1052"/>
<text text-anchor="middle" x="548.94" y="-1030.3" font-family="Times New Roman,serif" font-size="14.00">そうだね、正直時間の無駄だと思うけど、親切にしようと思って。</text>
</g>
<!-- j2983433640&#45;&gt;j1315918773 -->
<g id="edge29" class="edge">
<title>j2983433640&#45;&gt;j1315918773</title>
<path fill="none" stroke="black" d="M734.78,-1123.73C696.91,-1105.65 637.3,-1077.19 595.84,-1057.4"/>
<polygon fill="black" stroke="black" points="597.35,-1054.24 586.82,-1053.09 594.34,-1060.55 597.35,-1054.24"/>
</g>
<!-- j2477670767&#45;&gt;Chat ends. -->
<g id="edge30" class="edge">
<title>j2477670767&#45;&gt;Chat ends.</title>
<path fill="none" stroke="black" d="M1078.71,-961.6C1059.53,-956.95 1043.74,-951.16 1035.94,-944 1011.79,-921.83 1015.94,-905.78 1015.94,-873 1015.94,-873 1015.94,-873 1015.94,-90 1015.94,-43.57 1071.99,-27.16 1118.55,-21.54"/>
<polygon fill="black" stroke="black" points="1118.75,-25.04 1128.34,-20.52 1118.03,-18.08 1118.75,-25.04"/>
</g>
<!-- j2310864320&#45;&gt;j3375199714 -->
<g id="edge31" class="edge">
<title>j2310864320&#45;&gt;j3375199714</title>
<path fill="none" stroke="black" d="M1744.94,-1015.97C1744.94,-999.76 1744.94,-975.06 1744.94,-955.79"/>
<polygon fill="black" stroke="black" points="1748.44,-955.85 1744.94,-945.85 1741.44,-955.85 1748.44,-955.85"/>
</g>
<!-- j1413906155&#45;&gt;j3375199714 -->
<g id="edge32" class="edge">
<title>j1413906155&#45;&gt;j3375199714</title>
<path fill="none" stroke="black" d="M1322.7,-1018.6C1325.8,-1017.65 1328.91,-1016.76 1331.94,-1016 1385.09,-1002.61 1400.15,-1008.51 1453.94,-998 1527.9,-983.55 1611.37,-962.71 1669.89,-947.34"/>
<polygon fill="black" stroke="black" points="1670.64,-950.77 1679.42,-944.83 1668.85,-944 1670.64,-950.77"/>
</g>
<!-- j3035778744 -->
<g id="node26" class="node">
<title>j3035778744</title>
<polygon fill="none" stroke="blue" points="1903.44,-749 1178.44,-749 1178.44,-713 1903.44,-713 1903.44,-749"/>
<text text-anchor="middle" x="1540.94" y="-727.3" font-family="Times New Roman,serif" font-size="14.00">そうそう！　魔法使いになりたいわ。吟遊詩人もいいかもね。あるいは両方？　それって可能なの？</text>
</g>
<!-- j4036644382&#45;&gt;j3035778744 -->
<g id="edge33" class="edge">
<title>j4036644382&#45;&gt;j3035778744</title>
<path fill="none" stroke="black" d="M1540.94,-799.8C1540.94,-788.58 1540.94,-773.67 1540.94,-760.69"/>
<polygon fill="black" stroke="black" points="1544.44,-760.98 1540.94,-750.98 1537.44,-760.98 1544.44,-760.98"/>
</g>
<!-- j3917807769&#45;&gt;j4036644382 -->
<g id="edge34" class="edge">
<title>j3917807769&#45;&gt;j4036644382</title>
<path fill="none" stroke="black" d="M868.12,-961.5C911.07,-945.75 977.11,-922.86 1035.94,-908 1157.61,-877.27 1298.41,-853.4 1400.38,-838.15"/>
<polygon fill="black" stroke="black" points="1400.8,-841.62 1410.18,-836.69 1399.77,-834.7 1400.8,-841.62"/>
</g>
<!-- j1068534458 -->
<g id="node27" class="node">
<title>j1068534458</title>
<polygon fill="none" stroke="blue" points="966.94,-890 130.94,-890 130.94,-854 966.94,-854 966.94,-890"/>
<text text-anchor="middle" x="548.94" y="-868.3" font-family="Times New Roman,serif" font-size="14.00">じゃあ親切心で、彼に今の発言は伝えないでおくわ。これは忠告よ、今後私の前では彼にもっと敬意を払うように。</text>
</g>
<!-- j1315918773&#45;&gt;j1068534458 -->
<g id="edge35" class="edge">
<title>j1315918773&#45;&gt;j1068534458</title>
<path fill="none" stroke="black" d="M548.94,-1015.57C548.94,-988.16 548.94,-934.69 548.94,-901.59"/>
<polygon fill="black" stroke="black" points="552.44,-901.92 548.94,-891.92 545.44,-901.92 552.44,-901.92"/>
</g>
<!-- j3285579532 -->
<g id="node28" class="node">
<title>j3285579532</title>
<polygon fill="none" stroke="blue" points="2037.44,-676 1044.44,-676 1044.44,-640 2037.44,-640 2037.44,-676"/>
<text text-anchor="middle" x="1540.94" y="-654.3" font-family="Times New Roman,serif" font-size="14.00">沼の魔女もいいかもね！　ピッチピチのボディスを着れるならね。「小さきものよ、このマザーモスパイが骨の髄まで喰らってやろう。」</text>
</g>
<!-- j3035778744&#45;&gt;j3285579532 -->
<g id="edge36" class="edge">
<title>j3035778744&#45;&gt;j3285579532</title>
<path fill="none" stroke="black" d="M1540.94,-712.81C1540.94,-705.23 1540.94,-696.1 1540.94,-687.54"/>
<polygon fill="black" stroke="black" points="1544.44,-687.54 1540.94,-677.54 1537.44,-687.54 1544.44,-687.54"/>
</g>
<!-- j1068534458&#45;&gt;Chat ends. -->
<g id="edge37" class="edge">
<title>j1068534458&#45;&gt;Chat ends.</title>
<path fill="none" stroke="black" d="M689.29,-853.56C729.63,-840.12 762.94,-816.59 762.94,-775.5 762.94,-775.5 762.94,-775.5 762.94,-90 762.94,-54.28 1003.82,-31.84 1119.42,-23.13"/>
<polygon fill="black" stroke="black" points="1119.65,-26.62 1129.37,-22.4 1119.14,-19.64 1119.65,-26.62"/>
</g>
<!-- j465888453 -->
<g id="node29" class="node">
<title>j465888453</title>
<ellipse fill="none" stroke="orange" cx="1528.94" cy="-585" rx="64.19" ry="18"/>
<text text-anchor="middle" x="1528.94" y="-581.3" font-family="Times New Roman,serif" font-size="14.00">+20 Chemistry</text>
</g>
<!-- j3285579532&#45;&gt;j465888453 -->
<g id="edge38" class="edge">
<title>j3285579532&#45;&gt;j465888453</title>
<path fill="none" stroke="black" d="M1538.03,-639.81C1536.74,-632.14 1535.17,-622.89 1533.71,-614.24"/>
<polygon fill="black" stroke="black" points="1537.19,-613.8 1532.07,-604.52 1530.28,-614.96 1537.19,-613.8"/>
</g>
<!-- j3536246707 -->
<g id="node30" class="node">
<title>j3536246707</title>
<ellipse fill="none" stroke="orange" cx="1522.94" cy="-512" rx="151.37" ry="18"/>
<text text-anchor="middle" x="1522.94" y="-508.3" font-family="Times New Roman,serif" font-size="14.00">Boolean AmirRPGEleanor is now true.</text>
</g>
<!-- j465888453&#45;&gt;j3536246707 -->
<g id="edge39" class="edge">
<title>j465888453&#45;&gt;j3536246707</title>
<path fill="none" stroke="black" d="M1527.49,-566.81C1526.84,-559.14 1526.06,-549.89 1525.33,-541.24"/>
<polygon fill="black" stroke="black" points="1528.83,-541.21 1524.5,-531.54 1521.86,-541.8 1528.83,-541.21"/>
</g>
<!-- j341292291 -->
<g id="node31" class="node">
<title>j341292291</title>
<ellipse fill="none" stroke="orange" cx="1518.94" cy="-439" rx="130.78" ry="18"/>
<text text-anchor="middle" x="1518.94" y="-435.3" font-family="Times New Roman,serif" font-size="14.00">Check boolean AmirRPGQuincy</text>
</g>
<!-- j3536246707&#45;&gt;j341292291 -->
<g id="edge40" class="edge">
<title>j3536246707&#45;&gt;j341292291</title>
<path fill="none" stroke="black" d="M1521.97,-493.81C1521.54,-486.14 1521.02,-476.89 1520.53,-468.24"/>
<polygon fill="black" stroke="black" points="1524.04,-468.33 1519.98,-458.54 1517.05,-468.72 1524.04,-468.33"/>
</g>
<!-- j3041201257 -->
<g id="node32" class="node">
<title>j3041201257</title>
<ellipse fill="none" stroke="orange" cx="1362.94" cy="-352" rx="128.08" ry="18"/>
<text text-anchor="middle" x="1362.94" y="-348.3" font-family="Times New Roman,serif" font-size="14.00">Check boolean AmirRPGArthur</text>
</g>
<!-- j341292291&#45;&gt;j3041201257 -->
<g id="edge41" class="edge">
<title>j341292291&#45;&gt;j3041201257</title>
<path fill="none" stroke="green" d="M1488.12,-421.21C1464.05,-408.09 1430.39,-389.75 1404.03,-375.39"/>
<polygon fill="green" stroke="green" points="1405.75,-372.34 1395.29,-370.63 1402.4,-378.49 1405.75,-372.34"/>
<text text-anchor="middle" x="1460.94" y="-391.8" font-family="Times New Roman,serif" font-size="14.00">true</text>
</g>
<!-- j1992773596 -->
<g id="node33" class="node">
<title>j1992773596</title>
<ellipse fill="none" stroke="orange" cx="1471.94" cy="-91" rx="139.98" ry="18"/>
<text text-anchor="middle" x="1471.94" y="-87.3" font-family="Times New Roman,serif" font-size="14.00">Boolean AmirRPGAny is now true.</text>
</g>
<!-- j341292291&#45;&gt;j1992773596 -->
<g id="edge42" class="edge">
<title>j341292291&#45;&gt;j1992773596</title>
<path fill="none" stroke="brown" d="M1518.94,-420.74C1518.94,-403.57 1518.94,-376.46 1518.94,-353 1518.94,-353 1518.94,-353 1518.94,-177 1518.94,-155.29 1507.05,-133.92 1495.24,-118.04"/>
<polygon fill="brown" stroke="brown" points="1498.26,-116.22 1489.32,-110.55 1492.77,-120.56 1498.26,-116.22"/>
<text text-anchor="middle" x="1531.94" y="-261.3" font-family="Times New Roman,serif" font-size="14.00">false</text>
</g>
<!-- j3041201257&#45;&gt;j1992773596 -->
<g id="edge44" class="edge">
<title>j3041201257&#45;&gt;j1992773596</title>
<path fill="none" stroke="brown" d="M1397.79,-334.31C1417.76,-322.81 1441.29,-305.53 1453.94,-283 1482.76,-231.65 1480.36,-160.14 1476.11,-120.79"/>
<polygon fill="brown" stroke="brown" points="1479.6,-120.46 1474.92,-110.95 1472.65,-121.3 1479.6,-120.46"/>
<text text-anchor="middle" x="1487.94" y="-217.8" font-family="Times New Roman,serif" font-size="14.00">false</text>
</g>
<!-- j3736142330 -->
<g id="node34" class="node">
<title>j3736142330</title>
<ellipse fill="none" stroke="orange" cx="1326.94" cy="-265" rx="117.78" ry="18"/>
<text text-anchor="middle" x="1326.94" y="-261.3" font-family="Times New Roman,serif" font-size="14.00">Check boolean AmirRPGAoi</text>
</g>
<!-- j3041201257&#45;&gt;j3736142330 -->
<g id="edge43" class="edge">
<title>j3041201257&#45;&gt;j3736142330</title>
<path fill="none" stroke="green" d="M1355.65,-333.8C1350.77,-322.28 1344.24,-306.86 1338.64,-293.63"/>
<polygon fill="green" stroke="green" points="1341.93,-292.41 1334.8,-284.57 1335.48,-295.14 1341.93,-292.41"/>
<text text-anchor="middle" x="1357.94" y="-304.8" font-family="Times New Roman,serif" font-size="14.00">true</text>
</g>
<!-- j1992773596&#45;&gt;Chat ends. -->
<g id="edge45" class="edge">
<title>j1992773596&#45;&gt;Chat ends.</title>
<path fill="none" stroke="black" d="M1408.58,-74.59C1355.67,-61.73 1281.17,-43.62 1231.77,-31.6"/>
<polygon fill="black" stroke="black" points="1232.72,-28.23 1222.17,-29.27 1231.06,-35.03 1232.72,-28.23"/>
</g>
<!-- j3736142330&#45;&gt;j1992773596 -->
<g id="edge47" class="edge">
<title>j3736142330&#45;&gt;j1992773596</title>
<path fill="none" stroke="brown" d="M1344.3,-246.87C1357.71,-233.4 1376.52,-213.97 1391.94,-196 1413.81,-170.52 1437.02,-139.89 1452.78,-118.5"/>
<polygon fill="brown" stroke="brown" points="1455.48,-120.73 1458.56,-110.6 1449.83,-116.6 1455.48,-120.73"/>
<text text-anchor="middle" x="1433.94" y="-174.3" font-family="Times New Roman,serif" font-size="14.00">false</text>
</g>
<!-- j3776937837 -->
<g id="node35" class="node">
<title>j3776937837</title>
<ellipse fill="none" stroke="orange" cx="1258.94" cy="-178" rx="124.28" ry="18"/>
<text text-anchor="middle" x="1258.94" y="-174.3" font-family="Times New Roman,serif" font-size="14.00">Check boolean AmirRPGLettie</text>
</g>
<!-- j3736142330&#45;&gt;j3776937837 -->
<g id="edge46" class="edge">
<title>j3736142330&#45;&gt;j3776937837</title>
<path fill="none" stroke="green" d="M1313.18,-246.8C1303.59,-234.82 1290.63,-218.62 1279.78,-205.06"/>
<polygon fill="green" stroke="green" points="1282.6,-202.98 1273.62,-197.36 1277.14,-207.35 1282.6,-202.98"/>
<text text-anchor="middle" x="1307.94" y="-217.8" font-family="Times New Roman,serif" font-size="14.00">true</text>
</g>
<!-- j3776937837&#45;&gt;j1992773596 -->
<g id="edge49" class="edge">
<title>j3776937837&#45;&gt;j1992773596</title>
<path fill="none" stroke="brown" d="M1297.71,-160.44C1321.14,-150.54 1351.66,-137.81 1378.94,-127 1391.09,-122.18 1404.2,-117.15 1416.64,-112.45"/>
<polygon fill="brown" stroke="brown" points="1417.81,-115.75 1425.93,-108.95 1415.34,-109.2 1417.81,-115.75"/>
<text text-anchor="middle" x="1391.94" y="-130.8" font-family="Times New Roman,serif" font-size="14.00">false</text>
</g>
<!-- j2677000302 -->
<g id="node36" class="node">
<title>j2677000302</title>
<ellipse fill="none" stroke="orange" cx="1179.94" cy="-91" rx="134.58" ry="18"/>
<text text-anchor="middle" x="1179.94" y="-87.3" font-family="Times New Roman,serif" font-size="14.00">Boolean AmirRPGAll is now true.</text>
</g>
<!-- j3776937837&#45;&gt;j2677000302 -->
<g id="edge48" class="edge">
<title>j3776937837&#45;&gt;j2677000302</title>
<path fill="none" stroke="green" d="M1242.95,-159.8C1231.6,-147.59 1216.18,-130.99 1203.43,-117.28"/>
<polygon fill="green" stroke="green" points="1206.3,-115.23 1196.93,-110.28 1201.18,-119.99 1206.3,-115.23"/>
<text text-anchor="middle" x="1234.94" y="-130.8" font-family="Times New Roman,serif" font-size="14.00">true</text>
</g>
<!-- j2677000302&#45;&gt;Chat ends. -->
<g id="edge50" class="edge">
<title>j2677000302&#45;&gt;Chat ends.</title>
<path fill="none" stroke="black" d="M1179.94,-72.81C1179.94,-65.23 1179.94,-56.1 1179.94,-47.54"/>
<polygon fill="black" stroke="black" points="1183.44,-47.54 1179.94,-37.54 1176.44,-47.54 1183.44,-47.54"/>
</g>
</g>
</svg>
