<?xml version="1.0" encoding="UTF-8" standalone="no"?>
<!DOCTYPE svg PUBLIC "-//W3C//DTD SVG 1.1//EN"
 "http://www.w3.org/Graphics/SVG/1.1/DTD/svg11.dtd">
<!-- Generated by graphviz version 7.1.0 (20230121.1956)
 -->
<!-- Pages: 1 -->
<svg width="2794pt" height="1916pt"
 viewBox="0.00 0.00 2794.00 1916.00" xmlns="http://www.w3.org/2000/svg" xmlns:xlink="http://www.w3.org/1999/xlink">
<g id="graph0" class="graph" transform="scale(1 1) rotate(0) translate(4 1912)">
<polygon fill="white" stroke="none" points="-4,4 -4,-1912 2790,-1912 2790,4 -4,4"/>
<!-- EleanorRank3Convo6 begins. -->
<g id="node1" class="node">
<title>EleanorRank3Convo6 begins.</title>
<ellipse fill="none" stroke="orange" cx="1856" cy="-1890" rx="118.88" ry="18"/>
<text text-anchor="middle" x="1856" y="-1886.3" font-family="Times New Roman,serif" font-size="14.00">EleanorRank3Convo6 begins.</text>
</g>
<!-- j1746768189 -->
<g id="node2" class="node">
<title>j1746768189</title>
<polygon fill="none" stroke="blue" points="2100.5,-1836 1611.5,-1836 1611.5,-1800 2100.5,-1800 2100.5,-1836"/>
<text text-anchor="middle" x="1856" y="-1814.3" font-family="Times New Roman,serif" font-size="14.00">スカルドラが占拠する前まで、ホルバニアの名産が何か知ってる？</text>
</g>
<!-- EleanorRank3Convo6 begins.&#45;&gt;j1746768189 -->
<g id="edge1" class="edge">
<title>EleanorRank3Convo6 begins.&#45;&gt;j1746768189</title>
<path fill="none" stroke="black" d="M1856,-1871.7C1856,-1864.41 1856,-1855.73 1856,-1847.54"/>
<polygon fill="black" stroke="black" points="1859.5,-1847.62 1856,-1837.62 1852.5,-1847.62 1859.5,-1847.62"/>
</g>
<!-- j374594746 -->
<g id="node3" class="node">
<title>j374594746</title>
<polygon fill="none" stroke="red" points="707,-1764 627,-1764 627,-1728 707,-1728 707,-1764"/>
<text text-anchor="middle" x="667" y="-1742.3" font-family="Times New Roman,serif" font-size="14.00">夜の街？</text>
</g>
<!-- j1746768189&#45;&gt;j374594746 -->
<g id="edge2" class="edge">
<title>j1746768189&#45;&gt;j374594746</title>
<path fill="none" stroke="black" d="M1611.08,-1802.58C1324.86,-1785.73 870.97,-1759.01 718.71,-1750.04"/>
<polygon fill="black" stroke="black" points="719.13,-1746.56 708.94,-1749.47 718.72,-1753.55 719.13,-1746.56"/>
</g>
<!-- j2812453005 -->
<g id="node4" class="node">
<title>j2812453005</title>
<polygon fill="none" stroke="red" points="1461.5,-1764 1350.5,-1764 1350.5,-1728 1461.5,-1728 1461.5,-1764"/>
<text text-anchor="middle" x="1406" y="-1742.3" font-family="Times New Roman,serif" font-size="14.00">地下闘技場？</text>
</g>
<!-- j1746768189&#45;&gt;j2812453005 -->
<g id="edge3" class="edge">
<title>j1746768189&#45;&gt;j2812453005</title>
<path fill="none" stroke="black" d="M1743.61,-1799.52C1658.48,-1786.27 1544.38,-1768.53 1473.03,-1757.43"/>
<polygon fill="black" stroke="black" points="1473.88,-1754.02 1463.46,-1755.94 1472.8,-1760.93 1473.88,-1754.02"/>
</g>
<!-- j1938925346 -->
<g id="node5" class="node">
<title>j1938925346</title>
<polygon fill="none" stroke="red" points="1919.5,-1764 1792.5,-1764 1792.5,-1728 1919.5,-1728 1919.5,-1764"/>
<text text-anchor="middle" x="1856" y="-1742.3" font-family="Times New Roman,serif" font-size="14.00">ショッピング？</text>
</g>
<!-- j1746768189&#45;&gt;j1938925346 -->
<g id="edge4" class="edge">
<title>j1746768189&#45;&gt;j1938925346</title>
<path fill="none" stroke="black" d="M1856,-1799.7C1856,-1792.41 1856,-1783.73 1856,-1775.54"/>
<polygon fill="black" stroke="black" points="1859.5,-1775.62 1856,-1765.62 1852.5,-1775.62 1859.5,-1775.62"/>
</g>
<!-- j177769614 -->
<g id="node6" class="node">
<title>j177769614</title>
<polygon fill="none" stroke="red" points="2323.5,-1764 2212.5,-1764 2212.5,-1728 2323.5,-1728 2323.5,-1764"/>
<text text-anchor="middle" x="2268" y="-1742.3" font-family="Times New Roman,serif" font-size="14.00">分からない。</text>
</g>
<!-- j1746768189&#45;&gt;j177769614 -->
<g id="edge5" class="edge">
<title>j1746768189&#45;&gt;j177769614</title>
<path fill="none" stroke="black" d="M1958.9,-1799.52C2034.72,-1786.64 2135.64,-1769.49 2201.2,-1758.35"/>
<polygon fill="black" stroke="black" points="2201.45,-1761.86 2210.72,-1756.73 2200.28,-1754.96 2201.45,-1761.86"/>
</g>
<!-- j2791212684 -->
<g id="node7" class="node">
<title>j2791212684</title>
<polygon fill="none" stroke="red" points="2680.5,-1764 2497.5,-1764 2497.5,-1728 2680.5,-1728 2680.5,-1764"/>
<text text-anchor="middle" x="2589" y="-1742.3" font-family="Times New Roman,serif" font-size="14.00">どうでもいい。[閉じる]</text>
</g>
<!-- j1746768189&#45;&gt;j2791212684 -->
<g id="edge6" class="edge">
<title>j1746768189&#45;&gt;j2791212684</title>
<path fill="none" stroke="black" d="M2039.08,-1799.52C2180.25,-1786.04 2370.33,-1767.88 2486.04,-1756.83"/>
<polygon fill="black" stroke="black" points="2486.22,-1760.33 2495.84,-1755.9 2485.55,-1753.36 2486.22,-1760.33"/>
</g>
<!-- j2163647100 -->
<g id="node8" class="node">
<title>j2163647100</title>
<polygon fill="none" stroke="blue" points="708,-1692 0,-1692 0,-1656 708,-1656 708,-1692"/>
<text text-anchor="middle" x="354" y="-1670.3" font-family="Times New Roman,serif" font-size="14.00">あースゴカッタわ。整形されて美しい人々と、その顔を台無しにする違法ドラッグ…　違うわよ。</text>
</g>
<!-- j374594746&#45;&gt;j2163647100 -->
<g id="edge7" class="edge">
<title>j374594746&#45;&gt;j2163647100</title>
<path fill="none" stroke="black" d="M626.72,-1735.99C580.56,-1725.67 503.48,-1708.43 443.03,-1694.91"/>
<polygon fill="black" stroke="black" points="443.94,-1691.53 433.42,-1692.76 442.41,-1698.36 443.94,-1691.53"/>
</g>
<!-- j3800432401 -->
<g id="node9" class="node">
<title>j3800432401</title>
<polygon fill="none" stroke="blue" points="1341.5,-1692 726.5,-1692 726.5,-1656 1341.5,-1656 1341.5,-1692"/>
<text text-anchor="middle" x="1034" y="-1670.3" font-family="Times New Roman,serif" font-size="14.00">そうね。汗まみれのペアが殴り合ってまたがるのを見るのはイイわね。でも違うわ。</text>
</g>
<!-- j2812453005&#45;&gt;j3800432401 -->
<g id="edge8" class="edge">
<title>j2812453005&#45;&gt;j3800432401</title>
<path fill="none" stroke="black" d="M1350.31,-1734.52C1294.44,-1724.01 1207.04,-1707.56 1138.26,-1694.62"/>
<polygon fill="black" stroke="black" points="1138.92,-1691.18 1128.44,-1692.77 1137.62,-1698.06 1138.92,-1691.18"/>
</g>
<!-- j3893670762 -->
<g id="node10" class="node">
<title>j3893670762</title>
<polygon fill="none" stroke="blue" points="2352.5,-1692 1359.5,-1692 1359.5,-1656 2352.5,-1656 2352.5,-1692"/>
<text text-anchor="middle" x="1856" y="-1670.3" font-family="Times New Roman,serif" font-size="14.00">悪くない解答ね。ブレスリンのブランドバッグから手袋の詰め合わせ、氷漬けにされた人の目玉まで、何でも手に入ったわ。でもハズレ。</text>
</g>
<!-- j1938925346&#45;&gt;j3893670762 -->
<g id="edge9" class="edge">
<title>j1938925346&#45;&gt;j3893670762</title>
<path fill="none" stroke="black" d="M1856,-1727.7C1856,-1720.41 1856,-1711.73 1856,-1703.54"/>
<polygon fill="black" stroke="black" points="1859.5,-1703.62 1856,-1693.62 1852.5,-1703.62 1859.5,-1703.62"/>
</g>
<!-- j4277155520 -->
<g id="node11" class="node">
<title>j4277155520</title>
<polygon fill="none" stroke="blue" points="2717.5,-1692 2370.5,-1692 2370.5,-1656 2717.5,-1656 2717.5,-1692"/>
<text text-anchor="middle" x="2544" y="-1670.3" font-family="Times New Roman,serif" font-size="14.00">そりゃそうよね。この時代の新参者だものね。</text>
</g>
<!-- j177769614&#45;&gt;j4277155520 -->
<g id="edge10" class="edge">
<title>j177769614&#45;&gt;j4277155520</title>
<path fill="none" stroke="black" d="M2323.85,-1730.83C2364.16,-1720.61 2419.17,-1706.66 2464.12,-1695.26"/>
<polygon fill="black" stroke="black" points="2464.72,-1698.72 2473.55,-1692.87 2462.99,-1691.93 2464.72,-1698.72"/>
</g>
<!-- j1316755259 -->
<g id="node12" class="node">
<title>j1316755259</title>
<polygon fill="none" stroke="blue" points="2786,-1620 2706,-1620 2706,-1584 2786,-1584 2786,-1620"/>
<text text-anchor="middle" x="2746" y="-1598.3" font-family="Times New Roman,serif" font-size="14.00">なによ。</text>
</g>
<!-- j2791212684&#45;&gt;j1316755259 -->
<g id="edge11" class="edge">
<title>j2791212684&#45;&gt;j1316755259</title>
<path fill="none" stroke="black" d="M2673.21,-1727.57C2693.32,-1719.73 2712.99,-1708.39 2727,-1692 2741.21,-1675.37 2745.61,-1650.69 2746.65,-1631.54"/>
<polygon fill="black" stroke="black" points="2750.15,-1631.76 2746.89,-1621.68 2743.15,-1631.59 2750.15,-1631.76"/>
</g>
<!-- j2944506569 -->
<g id="node13" class="node">
<title>j2944506569</title>
<polygon fill="none" stroke="blue" points="1541.5,-1620 1430.5,-1620 1430.5,-1584 1541.5,-1584 1541.5,-1620"/>
<text text-anchor="middle" x="1486" y="-1598.3" font-family="Times New Roman,serif" font-size="14.00">公衆浴場よ！</text>
</g>
<!-- j2163647100&#45;&gt;j2944506569 -->
<g id="edge12" class="edge">
<title>j2163647100&#45;&gt;j2944506569</title>
<path fill="none" stroke="black" d="M636.73,-1655.52C898.25,-1639.35 1268.47,-1616.45 1418.73,-1607.16"/>
<polygon fill="black" stroke="black" points="1418.74,-1610.67 1428.51,-1606.56 1418.31,-1603.68 1418.74,-1610.67"/>
</g>
<!-- j3800432401&#45;&gt;j2944506569 -->
<g id="edge13" class="edge">
<title>j3800432401&#45;&gt;j2944506569</title>
<path fill="none" stroke="black" d="M1146.89,-1655.52C1232.52,-1642.26 1347.34,-1624.47 1418.98,-1613.38"/>
<polygon fill="black" stroke="black" points="1419.25,-1616.88 1428.6,-1611.89 1418.18,-1609.96 1419.25,-1616.88"/>
</g>
<!-- j3893670762&#45;&gt;j2944506569 -->
<g id="edge14" class="edge">
<title>j3893670762&#45;&gt;j2944506569</title>
<path fill="none" stroke="black" d="M1763.59,-1655.52C1698.13,-1643.13 1611.85,-1626.81 1552.96,-1615.67"/>
<polygon fill="black" stroke="black" points="1553.89,-1612.28 1543.42,-1613.86 1552.59,-1619.16 1553.89,-1612.28"/>
</g>
<!-- j4277155520&#45;&gt;j2944506569 -->
<g id="edge15" class="edge">
<title>j4277155520&#45;&gt;j2944506569</title>
<path fill="none" stroke="black" d="M2370.13,-1656.64C2367.4,-1656.42 2364.69,-1656.21 2362,-1656 2060.64,-1632.82 1700.31,-1613.74 1553.36,-1606.32"/>
<polygon fill="black" stroke="black" points="1553.57,-1602.83 1543.41,-1605.82 1553.22,-1609.82 1553.57,-1602.83"/>
</g>
<!-- Chat ends. -->
<g id="node14" class="node">
<title>Chat ends.</title>
<ellipse fill="none" stroke="orange" cx="1950" cy="-18" rx="50.09" ry="18"/>
<text text-anchor="middle" x="1950" y="-14.3" font-family="Times New Roman,serif" font-size="14.00">Chat ends.</text>
</g>
<!-- j1316755259&#45;&gt;Chat ends. -->
<g id="edge16" class="edge">
<title>j1316755259&#45;&gt;Chat ends.</title>
<path fill="none" stroke="black" d="M2746,-1583.51C2746,-1556.71 2746,-1503.87 2746,-1459 2746,-1459 2746,-1459 2746,-161 2746,-103.14 2703.97,-95.28 2651,-72 2537.21,-21.98 2160.69,-18.01 2011.58,-18.47"/>
<polygon fill="black" stroke="black" points="2011.9,-14.97 2001.92,-18.51 2011.93,-21.97 2011.9,-14.97"/>
</g>
<!-- j716603569 -->
<g id="node15" class="node">
<title>j716603569</title>
<polygon fill="none" stroke="blue" points="2360.5,-1548 611.5,-1548 611.5,-1512 2360.5,-1512 2360.5,-1548"/>
<text text-anchor="middle" x="1486" y="-1526.3" font-family="Times New Roman,serif" font-size="14.00">あなたの時代にあるか分からないけど、寺院的なものがあって、ソルの間とルアの間が用意されているの。公衆の湯でも個人風呂に入ることもできたわ。辺りがハーブと蒸気の匂いで覆われて、心も体もスッキリさせるのに持ってこいだったわ。</text>
</g>
<!-- j2944506569&#45;&gt;j716603569 -->
<g id="edge17" class="edge">
<title>j2944506569&#45;&gt;j716603569</title>
<path fill="none" stroke="black" d="M1486,-1583.7C1486,-1576.41 1486,-1567.73 1486,-1559.54"/>
<polygon fill="black" stroke="black" points="1489.5,-1559.62 1486,-1549.62 1482.5,-1559.62 1489.5,-1559.62"/>
</g>
<!-- j391231821 -->
<g id="node16" class="node">
<title>j391231821</title>
<polygon fill="none" stroke="blue" points="1951,-1476 1021,-1476 1021,-1440 1951,-1440 1951,-1476"/>
<text text-anchor="middle" x="1486" y="-1454.3" font-family="Times New Roman,serif" font-size="14.00">ホルバニアは昔から、儀式的に清潔を保とうとする文化があったの。この街ももとは温泉地帯だったというのもあるだろうけど。</text>
</g>
<!-- j716603569&#45;&gt;j391231821 -->
<g id="edge18" class="edge">
<title>j716603569&#45;&gt;j391231821</title>
<path fill="none" stroke="black" d="M1486,-1511.7C1486,-1504.41 1486,-1495.73 1486,-1487.54"/>
<polygon fill="black" stroke="black" points="1489.5,-1487.62 1486,-1477.62 1482.5,-1487.62 1489.5,-1487.62"/>
</g>
<!-- j2231815663 -->
<g id="node17" class="node">
<title>j2231815663</title>
<polygon fill="none" stroke="blue" points="1811,-1404 1161,-1404 1161,-1368 1811,-1368 1811,-1404"/>
<text text-anchor="middle" x="1486" y="-1382.3" font-family="Times New Roman,serif" font-size="14.00">Viktorの粛清なんちゃらって、民謡からきているのよ。市民なら全員知っているほどのね。</text>
</g>
<!-- j391231821&#45;&gt;j2231815663 -->
<g id="edge19" class="edge">
<title>j391231821&#45;&gt;j2231815663</title>
<path fill="none" stroke="black" d="M1486,-1439.7C1486,-1432.41 1486,-1423.73 1486,-1415.54"/>
<polygon fill="black" stroke="black" points="1489.5,-1415.62 1486,-1405.62 1482.5,-1415.62 1489.5,-1415.62"/>
</g>
<!-- j3185080661 -->
<g id="node18" class="node">
<title>j3185080661</title>
<polygon fill="none" stroke="blue" points="1982.5,-1332 989.5,-1332 989.5,-1296 1982.5,-1296 1982.5,-1332"/>
<text text-anchor="middle" x="1486" y="-1310.3" font-family="Times New Roman,serif" font-size="14.00">よく追加のホラーズを払ってムキムキのマッサージ師にカチカチに固まった筋肉をほぐしてもらったわ。あなたも気に入るわよ。きっと。</text>
</g>
<!-- j2231815663&#45;&gt;j3185080661 -->
<g id="edge20" class="edge">
<title>j2231815663&#45;&gt;j3185080661</title>
<path fill="none" stroke="black" d="M1486,-1367.7C1486,-1360.41 1486,-1351.73 1486,-1343.54"/>
<polygon fill="black" stroke="black" points="1489.5,-1343.62 1486,-1333.62 1482.5,-1343.62 1489.5,-1343.62"/>
</g>
<!-- j3973252018 -->
<g id="node19" class="node">
<title>j3973252018</title>
<polygon fill="none" stroke="red" points="1285.5,-1260 1158.5,-1260 1158.5,-1224 1285.5,-1224 1285.5,-1260"/>
<text text-anchor="middle" x="1222" y="-1238.3" font-family="Times New Roman,serif" font-size="14.00">どうだろうか。</text>
</g>
<!-- j3185080661&#45;&gt;j3973252018 -->
<g id="edge21" class="edge">
<title>j3185080661&#45;&gt;j3973252018</title>
<path fill="none" stroke="black" d="M1420.06,-1295.52C1382.51,-1285.56 1335.35,-1273.05 1296.46,-1262.74"/>
<polygon fill="black" stroke="black" points="1297.76,-1259.47 1287.2,-1260.29 1295.96,-1266.23 1297.76,-1259.47"/>
</g>
<!-- j1585220739 -->
<g id="node20" class="node">
<title>j1585220739</title>
<polygon fill="none" stroke="red" points="1549.5,-1260 1422.5,-1260 1422.5,-1224 1549.5,-1224 1549.5,-1260"/>
<text text-anchor="middle" x="1486" y="-1238.3" font-family="Times New Roman,serif" font-size="14.00">楽しそうだね。</text>
</g>
<!-- j3185080661&#45;&gt;j1585220739 -->
<g id="edge22" class="edge">
<title>j3185080661&#45;&gt;j1585220739</title>
<path fill="none" stroke="black" d="M1486,-1295.7C1486,-1288.41 1486,-1279.73 1486,-1271.54"/>
<polygon fill="black" stroke="black" points="1489.5,-1271.62 1486,-1261.62 1482.5,-1271.62 1489.5,-1271.62"/>
</g>
<!-- j773106965 -->
<g id="node21" class="node">
<title>j773106965</title>
<polygon fill="none" stroke="red" points="1894,-1260 1736,-1260 1736,-1224 1894,-1224 1894,-1260"/>
<text text-anchor="middle" x="1815" y="-1238.3" font-family="Times New Roman,serif" font-size="14.00">今はどうなったの？</text>
</g>
<!-- j3185080661&#45;&gt;j773106965 -->
<g id="edge23" class="edge">
<title>j3185080661&#45;&gt;j773106965</title>
<path fill="none" stroke="black" d="M1568.17,-1295.52C1615.67,-1285.41 1675.51,-1272.68 1724.37,-1262.28"/>
<polygon fill="black" stroke="black" points="1725.04,-1265.72 1734.1,-1260.21 1723.59,-1258.87 1725.04,-1265.72"/>
</g>
<!-- j256536256 -->
<g id="node22" class="node">
<title>j256536256</title>
<polygon fill="none" stroke="blue" points="1344,-1188 808,-1188 808,-1152 1344,-1152 1344,-1188"/>
<text text-anchor="middle" x="1076" y="-1166.3" font-family="Times New Roman,serif" font-size="14.00">感染された人間から造られたスーツは大丈夫で、マッサージはダメなの？</text>
</g>
<!-- j3973252018&#45;&gt;j256536256 -->
<g id="edge24" class="edge">
<title>j3973252018&#45;&gt;j256536256</title>
<path fill="none" stroke="black" d="M1185.53,-1223.52C1166.47,-1214.38 1142.94,-1203.09 1122.57,-1193.33"/>
<polygon fill="black" stroke="black" points="1124.15,-1190.2 1113.62,-1189.04 1121.12,-1196.52 1124.15,-1190.2"/>
</g>
<!-- j1232947173 -->
<g id="node23" class="node">
<title>j1232947173</title>
<polygon fill="none" stroke="blue" points="1581,-1188 1391,-1188 1391,-1152 1581,-1152 1581,-1188"/>
<text text-anchor="middle" x="1486" y="-1166.3" font-family="Times New Roman,serif" font-size="14.00">やはり同類だったのね。</text>
</g>
<!-- j1585220739&#45;&gt;j1232947173 -->
<g id="edge25" class="edge">
<title>j1585220739&#45;&gt;j1232947173</title>
<path fill="none" stroke="black" d="M1486,-1223.7C1486,-1216.41 1486,-1207.73 1486,-1199.54"/>
<polygon fill="black" stroke="black" points="1489.5,-1199.62 1486,-1189.62 1482.5,-1199.62 1489.5,-1199.62"/>
</g>
<!-- j591752882 -->
<g id="node24" class="node">
<title>j591752882</title>
<polygon fill="none" stroke="blue" points="2718,-1116 1914,-1116 1914,-1080 2718,-1080 2718,-1116"/>
<text text-anchor="middle" x="2316" y="-1094.3" font-family="Times New Roman,serif" font-size="14.00">想像はつくでしょ。テックロットにやられたのよ。感染が拡大して公衆浴場が営業を続けられるわけもないし。</text>
</g>
<!-- j773106965&#45;&gt;j591752882 -->
<g id="edge26" class="edge">
<title>j773106965&#45;&gt;j591752882</title>
<path fill="none" stroke="black" d="M1876.68,-1223.52C1969.49,-1197.21 2144.65,-1147.57 2243.45,-1119.56"/>
<polygon fill="black" stroke="black" points="2244.41,-1122.93 2253.07,-1116.84 2242.5,-1116.2 2244.41,-1122.93"/>
</g>
<!-- j4077030655 -->
<g id="node25" class="node">
<title>j4077030655</title>
<polygon fill="none" stroke="blue" points="1089,-1044 1009,-1044 1009,-1008 1089,-1008 1089,-1044"/>
<text text-anchor="middle" x="1049" y="-1022.3" font-family="Times New Roman,serif" font-size="14.00">変なの。</text>
</g>
<!-- j256536256&#45;&gt;j4077030655 -->
<g id="edge27" class="edge">
<title>j256536256&#45;&gt;j4077030655</title>
<path fill="none" stroke="black" d="M1072.69,-1151.59C1068.13,-1127.61 1059.87,-1084.14 1054.4,-1055.42"/>
<polygon fill="black" stroke="black" points="1057.84,-1054.77 1052.54,-1045.6 1050.97,-1056.08 1057.84,-1054.77"/>
</g>
<!-- j2578975776 -->
<g id="node26" class="node">
<title>j2578975776</title>
<polygon fill="none" stroke="blue" points="1896,-1116 1076,-1116 1076,-1080 1896,-1080 1896,-1116"/>
<text text-anchor="middle" x="1486" y="-1094.3" font-family="Times New Roman,serif" font-size="14.00">他もこれくらい肩の力を抜けられたらね。でもまぁ、感染が発生して公衆浴場が営業を続けられるわけもないし。</text>
</g>
<!-- j1232947173&#45;&gt;j2578975776 -->
<g id="edge28" class="edge">
<title>j1232947173&#45;&gt;j2578975776</title>
<path fill="none" stroke="black" d="M1486,-1151.7C1486,-1144.41 1486,-1135.73 1486,-1127.54"/>
<polygon fill="black" stroke="black" points="1489.5,-1127.62 1486,-1117.62 1482.5,-1127.62 1489.5,-1127.62"/>
</g>
<!-- j4241979785 -->
<g id="node27" class="node">
<title>j4241979785</title>
<polygon fill="none" stroke="blue" points="2494,-1044 1406,-1044 1406,-1008 2494,-1008 2494,-1044"/>
<text text-anchor="middle" x="1950" y="-1022.3" font-family="Times New Roman,serif" font-size="14.00">視察に行ったら、ほとんど産卵地よ。正直、心が痛むわ。千年以上前からある大理石で出来たモザイク調のフロアに感染された肉がこびり付いていて。</text>
</g>
<!-- j591752882&#45;&gt;j4241979785 -->
<g id="edge29" class="edge">
<title>j591752882&#45;&gt;j4241979785</title>
<path fill="none" stroke="black" d="M2224.59,-1079.52C2172.19,-1069.5 2106.3,-1056.89 2052.2,-1046.55"/>
<polygon fill="black" stroke="black" points="2053.16,-1043.17 2042.69,-1044.73 2051.85,-1050.04 2053.16,-1043.17"/>
</g>
<!-- j4077030655&#45;&gt;Chat ends. -->
<g id="edge30" class="edge">
<title>j4077030655&#45;&gt;Chat ends.</title>
<path fill="none" stroke="black" d="M1049,-1007.51C1049,-980.71 1049,-927.87 1049,-883 1049,-883 1049,-883 1049,-161 1049,-75.71 1687.13,-33.4 1889.32,-22.14"/>
<polygon fill="black" stroke="black" points="1889.29,-25.65 1899.09,-21.6 1888.91,-18.66 1889.29,-25.65"/>
</g>
<!-- j2578975776&#45;&gt;j4241979785 -->
<g id="edge31" class="edge">
<title>j2578975776&#45;&gt;j4241979785</title>
<path fill="none" stroke="black" d="M1601.89,-1079.52C1669.14,-1069.37 1753.94,-1056.58 1823,-1046.16"/>
<polygon fill="black" stroke="black" points="1823.52,-1049.62 1832.89,-1044.67 1822.48,-1042.7 1823.52,-1049.62"/>
</g>
<!-- j1353628091 -->
<g id="node28" class="node">
<title>j1353628091</title>
<polygon fill="none" stroke="blue" points="2108,-972 1792,-972 1792,-936 2108,-936 2108,-972"/>
<text text-anchor="middle" x="1950" y="-950.3" font-family="Times New Roman,serif" font-size="14.00">あなたの時代には似たようなのはないの？</text>
</g>
<!-- j4241979785&#45;&gt;j1353628091 -->
<g id="edge32" class="edge">
<title>j4241979785&#45;&gt;j1353628091</title>
<path fill="none" stroke="black" d="M1950,-1007.7C1950,-1000.41 1950,-991.73 1950,-983.54"/>
<polygon fill="black" stroke="black" points="1953.5,-983.62 1950,-973.62 1946.5,-983.62 1953.5,-983.62"/>
</g>
<!-- j894688974 -->
<g id="node29" class="node">
<title>j894688974</title>
<polygon fill="none" stroke="red" points="2076.5,-900 1823.5,-900 1823.5,-864 2076.5,-864 2076.5,-900"/>
<text text-anchor="middle" x="1950" y="-878.3" font-family="Times New Roman,serif" font-size="14.00">神聖な公衆浴場？　いや、ない。</text>
</g>
<!-- j1353628091&#45;&gt;j894688974 -->
<g id="edge33" class="edge">
<title>j1353628091&#45;&gt;j894688974</title>
<path fill="none" stroke="black" d="M1950,-935.7C1950,-928.41 1950,-919.73 1950,-911.54"/>
<polygon fill="black" stroke="black" points="1953.5,-911.62 1950,-901.62 1946.5,-911.62 1953.5,-911.62"/>
</g>
<!-- j4110810096 -->
<g id="node30" class="node">
<title>j4110810096</title>
<polygon fill="none" stroke="blue" points="2108,-828 1792,-828 1792,-792 2108,-792 2108,-828"/>
<text text-anchor="middle" x="1950" y="-806.3" font-family="Times New Roman,serif" font-size="14.00">じゃあ人々は何をしてリラックスするの？</text>
</g>
<!-- j894688974&#45;&gt;j4110810096 -->
<g id="edge34" class="edge">
<title>j894688974&#45;&gt;j4110810096</title>
<path fill="none" stroke="black" d="M1950,-863.7C1950,-856.41 1950,-847.73 1950,-839.54"/>
<polygon fill="black" stroke="black" points="1953.5,-839.62 1950,-829.62 1946.5,-839.62 1953.5,-839.62"/>
</g>
<!-- j356354782 -->
<g id="node31" class="node">
<title>j356354782</title>
<polygon fill="none" stroke="red" points="1729,-756 1599,-756 1599,-720 1729,-720 1729,-756"/>
<text text-anchor="middle" x="1664" y="-734.3" font-family="Times New Roman,serif" font-size="14.00">Rathuumがある。</text>
</g>
<!-- j4110810096&#45;&gt;j356354782 -->
<g id="edge35" class="edge">
<title>j4110810096&#45;&gt;j356354782</title>
<path fill="none" stroke="black" d="M1878.57,-791.52C1836.41,-781.2 1783.07,-768.14 1740.11,-757.63"/>
<polygon fill="black" stroke="black" points="1741.16,-754.28 1730.62,-755.31 1739.5,-761.08 1741.16,-754.28"/>
</g>
<!-- j2444464256 -->
<g id="node32" class="node">
<title>j2444464256</title>
<polygon fill="none" stroke="red" points="2045,-756 1855,-756 1855,-720 2045,-720 2045,-756"/>
<text text-anchor="middle" x="1950" y="-734.3" font-family="Times New Roman,serif" font-size="14.00">インデックスで賭け事。</text>
</g>
<!-- j4110810096&#45;&gt;j2444464256 -->
<g id="edge36" class="edge">
<title>j4110810096&#45;&gt;j2444464256</title>
<path fill="none" stroke="black" d="M1950,-791.7C1950,-784.41 1950,-775.73 1950,-767.54"/>
<polygon fill="black" stroke="black" points="1953.5,-767.62 1950,-757.62 1946.5,-767.62 1953.5,-767.62"/>
</g>
<!-- j2870415752 -->
<g id="node33" class="node">
<title>j2870415752</title>
<polygon fill="none" stroke="red" points="2318,-756 2144,-756 2144,-720 2318,-720 2318,-756"/>
<text text-anchor="middle" x="2231" y="-734.3" font-family="Times New Roman,serif" font-size="14.00">たまにコミやるかな。</text>
</g>
<!-- j4110810096&#45;&gt;j2870415752 -->
<g id="edge37" class="edge">
<title>j4110810096&#45;&gt;j2870415752</title>
<path fill="none" stroke="black" d="M2020.18,-791.52C2059.64,-781.69 2109.07,-769.37 2150.15,-759.14"/>
<polygon fill="black" stroke="black" points="2150.9,-762.56 2159.76,-756.75 2149.21,-755.77 2150.9,-762.56"/>
</g>
<!-- j2224566603 -->
<g id="node34" class="node">
<title>j2224566603</title>
<polygon fill="none" stroke="blue" points="1673,-684 1441,-684 1441,-648 1673,-648 1673,-684"/>
<text text-anchor="middle" x="1557" y="-662.3" font-family="Times New Roman,serif" font-size="14.00">Amirの独り言みたいな名前ね…</text>
</g>
<!-- j356354782&#45;&gt;j2224566603 -->
<g id="edge38" class="edge">
<title>j356354782&#45;&gt;j2224566603</title>
<path fill="none" stroke="black" d="M1637.28,-719.52C1623.77,-710.68 1607.19,-699.84 1592.62,-690.3"/>
<polygon fill="black" stroke="black" points="1594.94,-687.63 1584.65,-685.09 1591.1,-693.49 1594.94,-687.63"/>
</g>
<!-- j3264591093 -->
<g id="node35" class="node">
<title>j3264591093</title>
<polygon fill="none" stroke="blue" points="2013.5,-684 1886.5,-684 1886.5,-648 2013.5,-648 2013.5,-684"/>
<text text-anchor="middle" x="1950" y="-662.3" font-family="Times New Roman,serif" font-size="14.00">株式の仲買を？</text>
</g>
<!-- j2444464256&#45;&gt;j3264591093 -->
<g id="edge39" class="edge">
<title>j2444464256&#45;&gt;j3264591093</title>
<path fill="none" stroke="black" d="M1950,-719.7C1950,-712.41 1950,-703.73 1950,-695.54"/>
<polygon fill="black" stroke="black" points="1953.5,-695.62 1950,-685.62 1946.5,-695.62 1953.5,-695.62"/>
</g>
<!-- j526622076 -->
<g id="node36" class="node">
<title>j526622076</title>
<polygon fill="none" stroke="blue" points="2604,-684 2178,-684 2178,-648 2604,-648 2604,-684"/>
<text text-anchor="middle" x="2391" y="-662.3" font-family="Times New Roman,serif" font-size="14.00">コミ？　白と黒の？　ソルとルアの婚礼と争いを表した？</text>
</g>
<!-- j2870415752&#45;&gt;j526622076 -->
<g id="edge40" class="edge">
<title>j2870415752&#45;&gt;j526622076</title>
<path fill="none" stroke="black" d="M2270.96,-719.52C2292.14,-710.25 2318.35,-698.78 2340.88,-688.93"/>
<polygon fill="black" stroke="black" points="2342.13,-692.2 2349.88,-684.99 2339.32,-685.79 2342.13,-692.2"/>
</g>
<!-- j586336779 -->
<g id="node37" class="node">
<title>j586336779</title>
<polygon fill="none" stroke="red" points="1648.5,-612 1077.5,-612 1077.5,-576 1648.5,-576 1648.5,-612"/>
<text text-anchor="middle" x="1363" y="-590.3" font-family="Times New Roman,serif" font-size="14.00">グリニアがやってる。Origin太陽系全体に定期放送されてる闘技場での戦いだ。</text>
</g>
<!-- j2224566603&#45;&gt;j586336779 -->
<g id="edge41" class="edge">
<title>j2224566603&#45;&gt;j586336779</title>
<path fill="none" stroke="black" d="M1508.55,-647.52C1482.29,-638.04 1449.64,-626.26 1421.92,-616.26"/>
<polygon fill="black" stroke="black" points="1423.19,-613 1412.6,-612.9 1420.81,-619.58 1423.19,-613"/>
</g>
<!-- j1341388506 -->
<g id="node38" class="node">
<title>j1341388506</title>
<polygon fill="none" stroke="red" points="2233,-612 1667,-612 1667,-576 2233,-576 2233,-612"/>
<text text-anchor="middle" x="1950" y="-590.3" font-family="Times New Roman,serif" font-size="14.00">…ある意味？　株取引に四対四の暴力を混ぜたようなの。変に聞こえるよね。</text>
</g>
<!-- j3264591093&#45;&gt;j1341388506 -->
<g id="edge42" class="edge">
<title>j3264591093&#45;&gt;j1341388506</title>
<path fill="none" stroke="black" d="M1950,-647.7C1950,-640.41 1950,-631.73 1950,-623.54"/>
<polygon fill="black" stroke="black" points="1953.5,-623.62 1950,-613.62 1946.5,-623.62 1953.5,-623.62"/>
</g>
<!-- j1707662132 -->
<g id="node39" class="node">
<title>j1707662132</title>
<polygon fill="none" stroke="red" points="2691,-612 2251,-612 2251,-576 2691,-576 2691,-612"/>
<text text-anchor="middle" x="2471" y="-590.3" font-family="Times New Roman,serif" font-size="14.00">えっ…　そうだけど。待って、コミにそんな意味あったの？</text>
</g>
<!-- j526622076&#45;&gt;j1707662132 -->
<g id="edge43" class="edge">
<title>j526622076&#45;&gt;j1707662132</title>
<path fill="none" stroke="black" d="M2410.78,-647.7C2420.39,-639.28 2432.12,-629.02 2442.67,-619.79"/>
<polygon fill="black" stroke="black" points="2444.81,-622.56 2450.04,-613.34 2440.21,-617.29 2444.81,-622.56"/>
</g>
<!-- j3811952188 -->
<g id="node40" class="node">
<title>j3811952188</title>
<polygon fill="none" stroke="red" points="1547.5,-540 1184.5,-540 1184.5,-504 1547.5,-504 1547.5,-540"/>
<text text-anchor="middle" x="1366" y="-518.3" font-family="Times New Roman,serif" font-size="14.00">彼らにとっては重大なことだ。命を張るほどに。</text>
</g>
<!-- j586336779&#45;&gt;j3811952188 -->
<g id="edge44" class="edge">
<title>j586336779&#45;&gt;j3811952188</title>
<path fill="none" stroke="black" d="M1363.74,-575.7C1364.05,-568.41 1364.43,-559.73 1364.78,-551.54"/>
<polygon fill="black" stroke="black" points="1368.27,-551.76 1365.2,-541.62 1361.28,-551.46 1368.27,-551.76"/>
</g>
<!-- j2615762630 -->
<g id="node41" class="node">
<title>j2615762630</title>
<polygon fill="none" stroke="red" points="2092,-540 1808,-540 1808,-504 2092,-504 2092,-540"/>
<text text-anchor="middle" x="1950" y="-518.3" font-family="Times New Roman,serif" font-size="14.00">コーパスはこれにのめり込んでるよ。</text>
</g>
<!-- j1341388506&#45;&gt;j2615762630 -->
<g id="edge45" class="edge">
<title>j1341388506&#45;&gt;j2615762630</title>
<path fill="none" stroke="black" d="M1950,-575.7C1950,-568.41 1950,-559.73 1950,-551.54"/>
<polygon fill="black" stroke="black" points="1953.5,-551.62 1950,-541.62 1946.5,-551.62 1953.5,-551.62"/>
</g>
<!-- j1168642069 -->
<g id="node42" class="node">
<title>j1168642069</title>
<polygon fill="none" stroke="red" points="2583.5,-540 2330.5,-540 2330.5,-504 2583.5,-504 2583.5,-540"/>
<text text-anchor="middle" x="2457" y="-518.3" font-family="Times New Roman,serif" font-size="14.00">ボードゲームとしか知らないよ！</text>
</g>
<!-- j1707662132&#45;&gt;j1168642069 -->
<g id="edge46" class="edge">
<title>j1707662132&#45;&gt;j1168642069</title>
<path fill="none" stroke="black" d="M2467.54,-575.7C2466.06,-568.32 2464.3,-559.52 2462.65,-551.25"/>
<polygon fill="black" stroke="black" points="2466.11,-550.71 2460.72,-541.59 2459.25,-552.08 2466.11,-550.71"/>
</g>
<!-- j4114557800 -->
<g id="node43" class="node">
<title>j4114557800</title>
<polygon fill="none" stroke="blue" points="1612,-468 1134,-468 1134,-432 1612,-432 1612,-468"/>
<text text-anchor="middle" x="1373" y="-446.3" font-family="Times New Roman,serif" font-size="14.00">父さんとArthurは毎週土曜日の夜に一緒にプロレスを見ていたわ。</text>
</g>
<!-- j3811952188&#45;&gt;j4114557800 -->
<g id="edge47" class="edge">
<title>j3811952188&#45;&gt;j4114557800</title>
<path fill="none" stroke="black" d="M1367.73,-503.7C1368.46,-496.41 1369.33,-487.73 1370.15,-479.54"/>
<polygon fill="black" stroke="black" points="1373.63,-479.91 1371.14,-469.61 1366.66,-479.21 1373.63,-479.91"/>
</g>
<!-- j4279815558 -->
<g id="node44" class="node">
<title>j4279815558</title>
<polygon fill="none" stroke="blue" points="2265.5,-468 1634.5,-468 1634.5,-432 2265.5,-432 2265.5,-468"/>
<text text-anchor="middle" x="1950" y="-446.3" font-family="Times New Roman,serif" font-size="14.00">でも、彼らは敵なんでしょう？　それとも、スポーツの試合では休戦してるってこと？</text>
</g>
<!-- j2615762630&#45;&gt;j4279815558 -->
<g id="edge48" class="edge">
<title>j2615762630&#45;&gt;j4279815558</title>
<path fill="none" stroke="black" d="M1950,-503.7C1950,-496.41 1950,-487.73 1950,-479.54"/>
<polygon fill="black" stroke="black" points="1953.5,-479.62 1950,-469.62 1946.5,-479.62 1953.5,-479.62"/>
</g>
<!-- j2060049644 -->
<g id="node45" class="node">
<title>j2060049644</title>
<polygon fill="none" stroke="red" points="2608,-468 2292,-468 2292,-432 2608,-432 2608,-468"/>
<text text-anchor="middle" x="2450" y="-446.3" font-family="Times New Roman,serif" font-size="14.00">オロキンの好みだ。デュヴィリにもある。</text>
</g>
<!-- j1168642069&#45;&gt;j2060049644 -->
<g id="edge49" class="edge">
<title>j1168642069&#45;&gt;j2060049644</title>
<path fill="none" stroke="black" d="M2455.27,-503.7C2454.54,-496.41 2453.67,-487.73 2452.85,-479.54"/>
<polygon fill="black" stroke="black" points="2456.34,-479.21 2451.86,-469.61 2449.37,-479.91 2456.34,-479.21"/>
</g>
<!-- j4292367165 -->
<g id="node46" class="node">
<title>j4292367165</title>
<ellipse fill="none" stroke="orange" cx="1409" cy="-378" rx="64.19" ry="18"/>
<text text-anchor="middle" x="1409" y="-374.3" font-family="Times New Roman,serif" font-size="14.00">+10 Chemistry</text>
</g>
<!-- j4114557800&#45;&gt;j4292367165 -->
<g id="edge50" class="edge">
<title>j4114557800&#45;&gt;j4292367165</title>
<path fill="none" stroke="black" d="M1381.9,-431.7C1385.87,-423.98 1390.63,-414.71 1395.06,-406.11"/>
<polygon fill="black" stroke="black" points="1398.05,-407.94 1399.51,-397.45 1391.83,-404.74 1398.05,-407.94"/>
</g>
<!-- j4100512501 -->
<g id="node47" class="node">
<title>j4100512501</title>
<ellipse fill="none" stroke="orange" cx="1950" cy="-378" rx="64.19" ry="18"/>
<text text-anchor="middle" x="1950" y="-374.3" font-family="Times New Roman,serif" font-size="14.00">+10 Chemistry</text>
</g>
<!-- j4279815558&#45;&gt;j4100512501 -->
<g id="edge51" class="edge">
<title>j4279815558&#45;&gt;j4100512501</title>
<path fill="none" stroke="black" d="M1950,-431.7C1950,-424.41 1950,-415.73 1950,-407.54"/>
<polygon fill="black" stroke="black" points="1953.5,-407.62 1950,-397.62 1946.5,-407.62 1953.5,-407.62"/>
</g>
<!-- j780916027 -->
<g id="node48" class="node">
<title>j780916027</title>
<polygon fill="none" stroke="red" points="2608,-396 2276,-396 2276,-360 2608,-360 2608,-396"/>
<text text-anchor="middle" x="2442" y="-374.3" font-family="Times New Roman,serif" font-size="14.00">でも、そんなに古いものとは知らなかった。</text>
</g>
<!-- j2060049644&#45;&gt;j780916027 -->
<g id="edge52" class="edge">
<title>j2060049644&#45;&gt;j780916027</title>
<path fill="none" stroke="black" d="M2448.02,-431.7C2447.19,-424.41 2446.2,-415.73 2445.26,-407.54"/>
<polygon fill="black" stroke="black" points="2448.74,-407.15 2444.13,-397.61 2441.78,-407.94 2448.74,-407.15"/>
</g>
<!-- j3826479535 -->
<g id="node49" class="node">
<title>j3826479535</title>
<polygon fill="none" stroke="blue" points="1773,-180 1253,-180 1253,-144 1773,-144 1773,-180"/>
<text text-anchor="middle" x="1513" y="-158.3" font-family="Times New Roman,serif" font-size="14.00">機会があったら、RathuumのテープをAmirに渡してみて。喜ぶと思うわ。</text>
</g>
<!-- j4292367165&#45;&gt;j3826479535 -->
<g id="edge53" class="edge">
<title>j4292367165&#45;&gt;j3826479535</title>
<path fill="none" stroke="black" d="M1417.33,-359.85C1435.32,-322.83 1477.92,-235.18 1499.69,-190.39"/>
<polygon fill="black" stroke="black" points="1502.74,-192.12 1503.96,-181.59 1496.44,-189.06 1502.74,-192.12"/>
</g>
<!-- j957935371 -->
<g id="node50" class="node">
<title>j957935371</title>
<polygon fill="none" stroke="blue" points="2171,-252 1729,-252 1729,-216 2171,-216 2171,-252"/>
<text text-anchor="middle" x="1950" y="-230.3" font-family="Times New Roman,serif" font-size="14.00">いや、当たり前よね。あって当然。それが人間の性だもの。</text>
</g>
<!-- j4100512501&#45;&gt;j957935371 -->
<g id="edge54" class="edge">
<title>j4100512501&#45;&gt;j957935371</title>
<path fill="none" stroke="black" d="M1950,-359.59C1950,-335.61 1950,-292.14 1950,-263.42"/>
<polygon fill="black" stroke="black" points="1953.5,-263.62 1950,-253.62 1946.5,-263.62 1953.5,-263.62"/>
</g>
<!-- j983504471 -->
<g id="node51" class="node">
<title>j983504471</title>
<polygon fill="none" stroke="blue" points="2718,-324 2150,-324 2150,-288 2718,-288 2718,-324"/>
<text text-anchor="middle" x="2434" y="-302.3" font-family="Times New Roman,serif" font-size="14.00">古い？　それどころか神聖なの！　それに楽しいし。二重に素晴らしいのね。</text>
</g>
<!-- j780916027&#45;&gt;j983504471 -->
<g id="edge55" class="edge">
<title>j780916027&#45;&gt;j983504471</title>
<path fill="none" stroke="black" d="M2440.02,-359.7C2439.19,-352.41 2438.2,-343.73 2437.26,-335.54"/>
<polygon fill="black" stroke="black" points="2440.74,-335.15 2436.13,-325.61 2433.78,-335.94 2440.74,-335.15"/>
</g>
<!-- j3826479535&#45;&gt;Chat ends. -->
<g id="edge56" class="edge">
<title>j3826479535&#45;&gt;Chat ends.</title>
<path fill="none" stroke="black" d="M1566.58,-143.59C1652.87,-115.55 1821.19,-60.85 1903.05,-34.26"/>
<polygon fill="black" stroke="black" points="1903.91,-37.66 1912.33,-31.24 1901.74,-31 1903.91,-37.66"/>
</g>
<!-- j957935371&#45;&gt;Chat ends. -->
<g id="edge57" class="edge">
<title>j957935371&#45;&gt;Chat ends.</title>
<path fill="none" stroke="black" d="M1950,-215.85C1950,-179.14 1950,-92.66 1950,-47.53"/>
<polygon fill="black" stroke="black" points="1953.5,-47.75 1950,-37.75 1946.5,-47.75 1953.5,-47.75"/>
</g>
<!-- j3425614315 -->
<g id="node52" class="node">
<title>j3425614315</title>
<polygon fill="none" stroke="blue" points="2678.5,-252 2189.5,-252 2189.5,-216 2678.5,-216 2678.5,-252"/>
<text text-anchor="middle" x="2434" y="-230.3" font-family="Times New Roman,serif" font-size="14.00">すべては同じ二元論に基づく。心と体。象徴と意味。ソルとルア。</text>
</g>
<!-- j983504471&#45;&gt;j3425614315 -->
<g id="edge58" class="edge">
<title>j983504471&#45;&gt;j3425614315</title>
<path fill="none" stroke="black" d="M2434,-287.7C2434,-280.41 2434,-271.73 2434,-263.54"/>
<polygon fill="black" stroke="black" points="2437.5,-263.62 2434,-253.62 2430.5,-263.62 2437.5,-263.62"/>
</g>
<!-- j725809063 -->
<g id="node53" class="node">
<title>j725809063</title>
<ellipse fill="none" stroke="orange" cx="2391" cy="-162" rx="64.19" ry="18"/>
<text text-anchor="middle" x="2391" y="-158.3" font-family="Times New Roman,serif" font-size="14.00">+20 Chemistry</text>
</g>
<!-- j3425614315&#45;&gt;j725809063 -->
<g id="edge59" class="edge">
<title>j3425614315&#45;&gt;j725809063</title>
<path fill="none" stroke="black" d="M2423.37,-215.7C2418.58,-207.9 2412.81,-198.51 2407.48,-189.83"/>
<polygon fill="black" stroke="black" points="2410.52,-188.08 2402.3,-181.39 2404.55,-191.75 2410.52,-188.08"/>
</g>
<!-- j4067933502 -->
<g id="node54" class="node">
<title>j4067933502</title>
<polygon fill="none" stroke="blue" points="2642,-108 2054,-108 2054,-72 2642,-72 2642,-108"/>
<text text-anchor="middle" x="2348" y="-86.3" font-family="Times New Roman,serif" font-size="14.00">Arthurと毎年冬至はコミを遊んでいたの。今思うと何で遊ばなくなったのかしら。</text>
</g>
<!-- j725809063&#45;&gt;j4067933502 -->
<g id="edge60" class="edge">
<title>j725809063&#45;&gt;j4067933502</title>
<path fill="none" stroke="black" d="M2380.59,-144.05C2375.8,-136.26 2370,-126.82 2364.63,-118.08"/>
<polygon fill="black" stroke="black" points="2367.62,-116.25 2359.4,-109.56 2361.66,-119.92 2367.62,-116.25"/>
</g>
<!-- j4067933502&#45;&gt;Chat ends. -->
<g id="edge61" class="edge">
<title>j4067933502&#45;&gt;Chat ends.</title>
<path fill="none" stroke="black" d="M2248.59,-71.52C2171.76,-58 2068.22,-39.79 2005.44,-28.75"/>
<polygon fill="black" stroke="black" points="2006.16,-25.32 1995.7,-27.04 2004.94,-32.22 2006.16,-25.32"/>
</g>
</g>
</svg>
