<?xml version="1.0" encoding="UTF-8" standalone="no"?>
<!DOCTYPE svg PUBLIC "-//W3C//DTD SVG 1.1//EN"
 "http://www.w3.org/Graphics/SVG/1.1/DTD/svg11.dtd">
<!-- Generated by graphviz version 7.1.0 (20230121.1956)
 -->
<!-- Pages: 1 -->
<svg width="2045pt" height="1394pt"
 viewBox="0.00 0.00 2045.39 1394.00" xmlns="http://www.w3.org/2000/svg" xmlns:xlink="http://www.w3.org/1999/xlink">
<g id="graph0" class="graph" transform="scale(1 1) rotate(0) translate(4 1390)">
<polygon fill="white" stroke="none" points="-4,4 -4,-1390 2041.39,-1390 2041.39,4 -4,4"/>
<!-- EleanorQuincyWingman begins. -->
<g id="node1" class="node">
<title>EleanorQuincyWingman begins.</title>
<ellipse fill="none" stroke="orange" cx="127.39" cy="-1368" rx="127.28" ry="18"/>
<text text-anchor="middle" x="127.39" y="-1364.3" font-family="Times New Roman,serif" font-size="14.00">EleanorQuincyWingman begins.</text>
</g>
<!-- j3858793183 -->
<g id="node2" class="node">
<title>j3858793183</title>
<ellipse fill="none" stroke="orange" cx="127.39" cy="-1295" rx="98.28" ry="18"/>
<text text-anchor="middle" x="127.39" y="-1291.3" font-family="Times New Roman,serif" font-size="14.00">Check boolean IsDating</text>
</g>
<!-- EleanorQuincyWingman begins.&#45;&gt;j3858793183 -->
<g id="edge1" class="edge">
<title>EleanorQuincyWingman begins.&#45;&gt;j3858793183</title>
<path fill="none" stroke="black" d="M127.39,-1349.81C127.39,-1342.23 127.39,-1333.1 127.39,-1324.54"/>
<polygon fill="black" stroke="black" points="130.89,-1324.54 127.39,-1314.54 123.89,-1324.54 130.89,-1324.54"/>
</g>
<!-- Chat ends. -->
<g id="node3" class="node">
<title>Chat ends.</title>
<ellipse fill="none" stroke="orange" cx="195.39" cy="-18" rx="50.09" ry="18"/>
<text text-anchor="middle" x="195.39" y="-14.3" font-family="Times New Roman,serif" font-size="14.00">Chat ends.</text>
</g>
<!-- j3858793183&#45;&gt;Chat ends. -->
<g id="edge2" class="edge">
<title>j3858793183&#45;&gt;Chat ends.</title>
<path fill="none" stroke="green" d="M122.15,-1276.6C117.48,-1259.54 111.39,-1232.73 111.39,-1209 111.39,-1209 111.39,-1209 111.39,-90 111.39,-66.04 131.57,-48.51 152.14,-36.87"/>
<polygon fill="green" stroke="green" points="153.6,-40.05 160.85,-32.32 150.36,-33.85 153.6,-40.05"/>
<text text-anchor="middle" x="122.39" y="-603.8" font-family="Times New Roman,serif" font-size="14.00">true</text>
</g>
<!-- j3813954948 -->
<g id="node4" class="node">
<title>j3813954948</title>
<polygon fill="none" stroke="blue" points="785.89,-1226 178.89,-1226 178.89,-1190 785.89,-1190 785.89,-1226"/>
<text text-anchor="middle" x="482.39" y="-1204.3" font-family="Times New Roman,serif" font-size="14.00">Quincyが私に、奇妙な事を伝えにきたわ。あなたが…　「気持ち」の話をしたいと？</text>
</g>
<!-- j3858793183&#45;&gt;j3813954948 -->
<g id="edge3" class="edge">
<title>j3858793183&#45;&gt;j3813954948</title>
<path fill="none" stroke="brown" d="M185.61,-1280.06C243.44,-1266.21 332.71,-1244.84 398.24,-1229.15"/>
<polygon fill="brown" stroke="brown" points="398.99,-1232.57 407.9,-1226.84 397.36,-1225.76 398.99,-1232.57"/>
<text text-anchor="middle" x="338.39" y="-1247.8" font-family="Times New Roman,serif" font-size="14.00">false</text>
</g>
<!-- j2931082387 -->
<g id="node5" class="node">
<title>j2931082387</title>
<ellipse fill="none" stroke="orange" cx="503.39" cy="-1135" rx="122.68" ry="18"/>
<text text-anchor="middle" x="503.39" y="-1131.3" font-family="Times New Roman,serif" font-size="14.00">Check boolean EleanorNoDate</text>
</g>
<!-- j3813954948&#45;&gt;j2931082387 -->
<g id="edge4" class="edge">
<title>j3813954948&#45;&gt;j2931082387</title>
<path fill="none" stroke="black" d="M487.47,-1189.81C489.77,-1182.05 492.54,-1172.68 495.12,-1163.95"/>
<polygon fill="black" stroke="black" points="498.44,-1165.06 497.92,-1154.48 491.73,-1163.08 498.44,-1165.06"/>
</g>
<!-- j594756655 -->
<g id="node6" class="node">
<title>j594756655</title>
<polygon fill="none" stroke="red" points="733.89,-1012 464.89,-1012 464.89,-976 733.89,-976 733.89,-1012"/>
<text text-anchor="middle" x="599.39" y="-990.3" font-family="Times New Roman,serif" font-size="14.00">今までの無礼を謝りたかったんだ。</text>
</g>
<!-- j2931082387&#45;&gt;j594756655 -->
<g id="edge5" class="edge">
<title>j2931082387&#45;&gt;j594756655</title>
<path fill="none" stroke="green" d="M522.16,-1116.84C535.66,-1103.82 553.65,-1084.97 566.39,-1066 575.33,-1052.69 583.03,-1036.57 588.75,-1023.05"/>
<polygon fill="green" stroke="green" points="591.97,-1024.42 592.49,-1013.84 585.49,-1021.78 591.97,-1024.42"/>
<text text-anchor="middle" x="562.39" y="-1087.8" font-family="Times New Roman,serif" font-size="14.00">true</text>
</g>
<!-- j2697940713 -->
<g id="node7" class="node">
<title>j2697940713</title>
<polygon fill="none" stroke="red" points="557.39,-1066 351.39,-1066 351.39,-1030 557.39,-1030 557.39,-1066"/>
<text text-anchor="middle" x="454.39" y="-1044.3" font-family="Times New Roman,serif" font-size="14.00">からかってるんじゃない？</text>
</g>
<!-- j2931082387&#45;&gt;j2697940713 -->
<g id="edge6" class="edge">
<title>j2931082387&#45;&gt;j2697940713</title>
<path fill="none" stroke="green" d="M497.04,-1116.83C493.09,-1106.94 487.59,-1094.44 481.39,-1084 479.7,-1081.15 477.81,-1078.27 475.84,-1075.45"/>
<polygon fill="green" stroke="green" points="478.66,-1073.38 469.9,-1067.43 473.04,-1077.55 478.66,-1073.38"/>
<text text-anchor="middle" x="499.39" y="-1087.8" font-family="Times New Roman,serif" font-size="14.00">true</text>
</g>
<!-- j2931082387&#45;&gt;j2697940713 -->
<g id="edge8" class="edge">
<title>j2931082387&#45;&gt;j2697940713</title>
<path fill="none" stroke="brown" d="M468.45,-1117.44C461.6,-1112.51 455.33,-1106.4 451.39,-1099 447.9,-1092.45 447.07,-1084.71 447.52,-1077.31"/>
<polygon fill="brown" stroke="brown" points="450.95,-1078.05 448.86,-1067.66 444.01,-1077.09 450.95,-1078.05"/>
<text text-anchor="middle" x="464.39" y="-1087.8" font-family="Times New Roman,serif" font-size="14.00">false</text>
</g>
<!-- j3926805022 -->
<g id="node8" class="node">
<title>j3926805022</title>
<polygon fill="none" stroke="red" points="915.39,-1066 699.39,-1066 699.39,-1030 915.39,-1030 915.39,-1066"/>
<text text-anchor="middle" x="807.39" y="-1044.3" font-family="Times New Roman,serif" font-size="14.00">Eleanorに対して好意がある。</text>
</g>
<!-- j2931082387&#45;&gt;j3926805022 -->
<g id="edge7" class="edge">
<title>j2931082387&#45;&gt;j3926805022</title>
<path fill="none" stroke="brown" d="M558.79,-1118.51C607.98,-1104.76 680.21,-1084.56 734.15,-1069.48"/>
<polygon fill="brown" stroke="brown" points="734.88,-1072.91 743.57,-1066.84 733,-1066.17 734.88,-1072.91"/>
<text text-anchor="middle" x="686.39" y="-1087.8" font-family="Times New Roman,serif" font-size="14.00">false</text>
</g>
<!-- j299886340 -->
<g id="node9" class="node">
<title>j299886340</title>
<polygon fill="none" stroke="blue" points="933.89,-904 272.89,-904 272.89,-868 933.89,-868 933.89,-904"/>
<text text-anchor="middle" x="603.39" y="-882.3" font-family="Times New Roman,serif" font-size="14.00">まぁ…　この状況下においてあなたを恨むなんて良くないわよね。もし本心なら、許すわ。</text>
</g>
<!-- j594756655&#45;&gt;j299886340 -->
<g id="edge9" class="edge">
<title>j594756655&#45;&gt;j299886340</title>
<path fill="none" stroke="black" d="M600.03,-975.97C600.64,-959.76 601.58,-935.06 602.3,-915.79"/>
<polygon fill="black" stroke="black" points="605.8,-915.98 602.68,-905.85 598.8,-915.71 605.8,-915.98"/>
</g>
<!-- j489113791 -->
<g id="node10" class="node">
<title>j489113791</title>
<polygon fill="none" stroke="blue" points="267.89,-904 126.89,-904 126.89,-868 267.89,-868 267.89,-904"/>
<text text-anchor="middle" x="197.39" y="-882.3" font-family="Times New Roman,serif" font-size="14.00">そう…　なのね。</text>
</g>
<!-- j2697940713&#45;&gt;j489113791 -->
<g id="edge10" class="edge">
<title>j2697940713&#45;&gt;j489113791</title>
<path fill="none" stroke="black" d="M426.4,-1029.57C379.95,-1000.66 286.94,-942.75 234.88,-910.34"/>
<polygon fill="black" stroke="black" points="236.97,-907.52 226.63,-905.21 233.27,-913.46 236.97,-907.52"/>
</g>
<!-- j1589553344 -->
<g id="node11" class="node">
<title>j1589553344</title>
<ellipse fill="none" stroke="orange" cx="1048.39" cy="-940" rx="130.78" ry="18"/>
<text text-anchor="middle" x="1048.39" y="-936.3" font-family="Times New Roman,serif" font-size="14.00">Check boolean EleanorHasDated</text>
</g>
<!-- j3926805022&#45;&gt;j1589553344 -->
<g id="edge11" class="edge">
<title>j3926805022&#45;&gt;j1589553344</title>
<path fill="none" stroke="black" d="M846.92,-1029.61C888.82,-1011.18 955.06,-982.05 1000.04,-962.26"/>
<polygon fill="black" stroke="black" points="1001.3,-965.53 1009.05,-958.3 998.48,-959.13 1001.3,-965.53"/>
</g>
<!-- j314889794 -->
<g id="node12" class="node">
<title>j314889794</title>
<polygon fill="none" stroke="blue" points="772.39,-796 270.39,-796 270.39,-760 772.39,-760 772.39,-796"/>
<text text-anchor="middle" x="521.39" y="-774.3" font-family="Times New Roman,serif" font-size="14.00">それに…　正直な話、私もあなたに対して好意を持ち始めているわ…</text>
</g>
<!-- j299886340&#45;&gt;j314889794 -->
<g id="edge12" class="edge">
<title>j299886340&#45;&gt;j314889794</title>
<path fill="none" stroke="black" d="M590.21,-867.97C577.14,-851.07 556.92,-824.94 541.78,-805.36"/>
<polygon fill="black" stroke="black" points="544.62,-803.31 535.73,-797.54 539.08,-807.59 544.62,-803.31"/>
</g>
<!-- j489113791&#45;&gt;Chat ends. -->
<g id="edge13" class="edge">
<title>j489113791&#45;&gt;Chat ends.</title>
<path fill="none" stroke="black" d="M190.96,-867.64C183.85,-846.87 173.39,-810.89 173.39,-779 173.39,-779 173.39,-779 173.39,-90 173.39,-75.23 177.79,-59.47 182.65,-46.56"/>
<polygon fill="black" stroke="black" points="185.83,-48.03 186.37,-37.45 179.35,-45.38 185.83,-48.03"/>
</g>
<!-- j2076461256 -->
<g id="node13" class="node">
<title>j2076461256</title>
<polygon fill="none" stroke="blue" points="1284.89,-850 811.89,-850 811.89,-814 1284.89,-814 1284.89,-850"/>
<text text-anchor="middle" x="1048.39" y="-828.3" font-family="Times New Roman,serif" font-size="14.00">なら、あなたにはチャンスがあったことを思い出してほしいわ。</text>
</g>
<!-- j1589553344&#45;&gt;j2076461256 -->
<g id="edge14" class="edge">
<title>j1589553344&#45;&gt;j2076461256</title>
<path fill="none" stroke="green" d="M1048.39,-921.97C1048.39,-905.76 1048.39,-881.06 1048.39,-861.79"/>
<polygon fill="green" stroke="green" points="1051.89,-861.85 1048.39,-851.85 1044.89,-861.85 1051.89,-861.85"/>
<text text-anchor="middle" x="1059.39" y="-882.3" font-family="Times New Roman,serif" font-size="14.00">true</text>
</g>
<!-- j3853030547 -->
<g id="node14" class="node">
<title>j3853030547</title>
<polygon fill="none" stroke="blue" points="1679.39,-850 1347.39,-850 1347.39,-814 1679.39,-814 1679.39,-850"/>
<text text-anchor="middle" x="1513.39" y="-828.3" font-family="Times New Roman,serif" font-size="14.00">なぜその気持ちを今まで内に秘めていたの？</text>
</g>
<!-- j1589553344&#45;&gt;j3853030547 -->
<g id="edge15" class="edge">
<title>j1589553344&#45;&gt;j3853030547</title>
<path fill="none" stroke="brown" d="M1114.03,-924.04C1195.62,-905.44 1335.15,-873.63 1425.8,-852.97"/>
<polygon fill="brown" stroke="brown" points="1426.43,-856.41 1435.41,-850.78 1424.88,-849.59 1426.43,-856.41"/>
<text text-anchor="middle" x="1362.39" y="-882.3" font-family="Times New Roman,serif" font-size="14.00">false</text>
</g>
<!-- j894016963 -->
<g id="node15" class="node">
<title>j894016963</title>
<polygon fill="none" stroke="blue" points="643.39,-669 201.39,-669 201.39,-633 643.39,-633 643.39,-669"/>
<text text-anchor="middle" x="422.39" y="-647.3" font-family="Times New Roman,serif" font-size="14.00">もし本気で、私たちでやっていきたいなら？　私も頷くわ。</text>
</g>
<!-- j314889794&#45;&gt;j894016963 -->
<g id="edge16" class="edge">
<title>j314889794&#45;&gt;j894016963</title>
<path fill="none" stroke="black" d="M507.62,-759.62C490.85,-738.44 462.36,-702.47 442.98,-678"/>
<polygon fill="black" stroke="black" points="445.93,-676.09 436.98,-670.42 440.44,-680.43 445.93,-676.09"/>
</g>
<!-- j3022515982 -->
<g id="node16" class="node">
<title>j3022515982</title>
<polygon fill="none" stroke="blue" points="1434.89,-669 661.89,-669 661.89,-633 1434.89,-633 1434.89,-669"/>
<text text-anchor="middle" x="1048.39" y="-647.3" font-family="Times New Roman,serif" font-size="14.00">でも、あなたが恋しくなかったと言ったら嘘になるし、やり直してみたいとも思うわ。あなたが良ければ。</text>
</g>
<!-- j2076461256&#45;&gt;j3022515982 -->
<g id="edge17" class="edge">
<title>j2076461256&#45;&gt;j3022515982</title>
<path fill="none" stroke="black" d="M1048.39,-813.51C1048.39,-782.55 1048.39,-717.85 1048.39,-680.42"/>
<polygon fill="black" stroke="black" points="1051.89,-680.81 1048.39,-670.81 1044.89,-680.81 1051.89,-680.81"/>
</g>
<!-- j4184107519 -->
<g id="node17" class="node">
<title>j4184107519</title>
<polygon fill="none" stroke="red" points="1800.89,-742 1689.89,-742 1689.89,-706 1800.89,-706 1800.89,-742"/>
<text text-anchor="middle" x="1745.39" y="-720.3" font-family="Times New Roman,serif" font-size="14.00">わからない。</text>
</g>
<!-- j3853030547&#45;&gt;j4184107519 -->
<g id="edge18" class="edge">
<title>j3853030547&#45;&gt;j4184107519</title>
<path fill="none" stroke="black" d="M1551.44,-813.61C1591.22,-795.44 1653.77,-766.86 1697.03,-747.09"/>
<polygon fill="black" stroke="black" points="1698.3,-750.36 1705.94,-743.02 1695.39,-744 1698.3,-750.36"/>
</g>
<!-- j2600056934 -->
<g id="node18" class="node">
<title>j2600056934</title>
<polygon fill="none" stroke="red" points="1671.39,-742 1355.39,-742 1355.39,-706 1671.39,-706 1671.39,-742"/>
<text text-anchor="middle" x="1513.39" y="-720.3" font-family="Times New Roman,serif" font-size="14.00">作法をよく理解していないからだと思う。</text>
</g>
<!-- j3853030547&#45;&gt;j2600056934 -->
<g id="edge19" class="edge">
<title>j3853030547&#45;&gt;j2600056934</title>
<path fill="none" stroke="black" d="M1513.39,-813.97C1513.39,-797.76 1513.39,-773.06 1513.39,-753.79"/>
<polygon fill="black" stroke="black" points="1516.89,-753.85 1513.39,-743.85 1509.89,-753.85 1516.89,-753.85"/>
</g>
<!-- j1135078245 -->
<g id="node19" class="node">
<title>j1135078245</title>
<polygon fill="none" stroke="red" points="889.89,-582 762.89,-582 762.89,-546 889.89,-546 889.89,-582"/>
<text text-anchor="middle" x="826.39" y="-560.3" font-family="Times New Roman,serif" font-size="14.00">本当に嬉しい。</text>
</g>
<!-- j894016963&#45;&gt;j1135078245 -->
<g id="edge20" class="edge">
<title>j894016963&#45;&gt;j1135078245</title>
<path fill="none" stroke="black" d="M505.12,-632.59C577.54,-617.36 681.83,-595.41 751.74,-580.71"/>
<polygon fill="black" stroke="black" points="752.11,-584.2 761.18,-578.72 750.67,-577.35 752.11,-584.2"/>
</g>
<!-- j1950859927 -->
<g id="node20" class="node">
<title>j1950859927</title>
<polygon fill="none" stroke="red" points="607.39,-582 417.39,-582 417.39,-546 607.39,-546 607.39,-582"/>
<text text-anchor="middle" x="512.39" y="-560.3" font-family="Times New Roman,serif" font-size="14.00">やっぱり、やめておく。</text>
</g>
<!-- j894016963&#45;&gt;j1950859927 -->
<g id="edge21" class="edge">
<title>j894016963&#45;&gt;j1950859927</title>
<path fill="none" stroke="black" d="M440.6,-632.8C453.57,-620.55 471.2,-603.9 485.75,-590.16"/>
<polygon fill="black" stroke="black" points="487.93,-592.92 492.79,-583.51 483.12,-587.83 487.93,-592.92"/>
</g>
<!-- j3022515982&#45;&gt;j1135078245 -->
<g id="edge22" class="edge">
<title>j3022515982&#45;&gt;j1135078245</title>
<path fill="none" stroke="black" d="M1002.93,-632.59C968.06,-619.24 919.75,-600.75 882.48,-586.48"/>
<polygon fill="black" stroke="black" points="883.79,-583.23 873.2,-582.92 881.29,-589.77 883.79,-583.23"/>
</g>
<!-- j3022515982&#45;&gt;j1950859927 -->
<g id="edge23" class="edge">
<title>j3022515982&#45;&gt;j1950859927</title>
<path fill="none" stroke="black" d="M938.3,-632.54C844.78,-617.71 711.37,-596.56 618.89,-581.89"/>
<polygon fill="black" stroke="black" points="619.45,-578.43 609.03,-580.33 618.36,-585.35 619.45,-578.43"/>
</g>
<!-- j1121567869 -->
<g id="node21" class="node">
<title>j1121567869</title>
<polygon fill="none" stroke="blue" points="2037.39,-669 1453.39,-669 1453.39,-633 2037.39,-633 2037.39,-669"/>
<text text-anchor="middle" x="1745.39" y="-647.3" font-family="Times New Roman,serif" font-size="14.00">そうみたいね。でも、もし私たちでやっていきたいなら、喜んで受け入れるわ。</text>
</g>
<!-- j4184107519&#45;&gt;j1121567869 -->
<g id="edge24" class="edge">
<title>j4184107519&#45;&gt;j1121567869</title>
<path fill="none" stroke="black" d="M1745.39,-705.81C1745.39,-698.23 1745.39,-689.1 1745.39,-680.54"/>
<polygon fill="black" stroke="black" points="1748.89,-680.54 1745.39,-670.54 1741.89,-680.54 1748.89,-680.54"/>
</g>
<!-- j2600056934&#45;&gt;j1121567869 -->
<g id="edge25" class="edge">
<title>j2600056934&#45;&gt;j1121567869</title>
<path fill="none" stroke="black" d="M1570.44,-705.54C1602.88,-695.61 1643.71,-683.12 1677.76,-672.7"/>
<polygon fill="black" stroke="black" points="1678.57,-676.11 1687.11,-669.83 1676.52,-669.41 1678.57,-676.11"/>
</g>
<!-- j797000246 -->
<g id="node22" class="node">
<title>j797000246</title>
<ellipse fill="none" stroke="orange" cx="642.39" cy="-491" rx="64.19" ry="18"/>
<text text-anchor="middle" x="642.39" y="-487.3" font-family="Times New Roman,serif" font-size="14.00">+20 Chemistry</text>
</g>
<!-- j1135078245&#45;&gt;j797000246 -->
<g id="edge26" class="edge">
<title>j1135078245&#45;&gt;j797000246</title>
<path fill="none" stroke="black" d="M781.38,-545.63C753.55,-534.89 717.87,-521.13 689.64,-510.23"/>
<polygon fill="black" stroke="black" points="691.21,-507.09 680.62,-506.75 688.69,-513.62 691.21,-507.09"/>
</g>
<!-- j2744976042 -->
<g id="node23" class="node">
<title>j2744976042</title>
<polygon fill="none" stroke="blue" points="457.39,-509 403.39,-509 403.39,-473 457.39,-473 457.39,-509"/>
<text text-anchor="middle" x="430.39" y="-487.3" font-family="Times New Roman,serif" font-size="14.00">....</text>
</g>
<!-- j1950859927&#45;&gt;j2744976042 -->
<g id="edge27" class="edge">
<title>j1950859927&#45;&gt;j2744976042</title>
<path fill="none" stroke="black" d="M492.54,-545.81C482.44,-537.07 469.99,-526.28 458.88,-516.67"/>
<polygon fill="black" stroke="black" points="461.34,-514.17 451.48,-510.27 456.75,-519.46 461.34,-514.17"/>
</g>
<!-- j1121567869&#45;&gt;j1135078245 -->
<g id="edge28" class="edge">
<title>j1121567869&#45;&gt;j1135078245</title>
<path fill="none" stroke="black" d="M1654.05,-632.56C1593.17,-621.57 1511.26,-608 1438.39,-600 1245.6,-578.85 1017.15,-570.07 901.51,-566.77"/>
<polygon fill="black" stroke="black" points="901.61,-563.28 891.52,-566.5 901.42,-570.27 901.61,-563.28"/>
</g>
<!-- j1121567869&#45;&gt;j1950859927 -->
<g id="edge29" class="edge">
<title>j1121567869&#45;&gt;j1950859927</title>
<path fill="none" stroke="black" d="M1488.72,-632.5C1288.64,-618.84 1003.85,-599.32 754.39,-582 710.13,-578.93 661.32,-575.5 619.19,-572.54"/>
<polygon fill="black" stroke="black" points="619.52,-569.05 609.29,-571.84 619.02,-576.04 619.52,-569.05"/>
</g>
<!-- j2055104574 -->
<g id="node24" class="node">
<title>j2055104574</title>
<polygon fill="none" stroke="blue" points="583.39,-436 503.39,-436 503.39,-400 583.39,-400 583.39,-436"/>
<text text-anchor="middle" x="543.39" y="-414.3" font-family="Times New Roman,serif" font-size="14.00">私もよ。</text>
</g>
<!-- j797000246&#45;&gt;j2055104574 -->
<g id="edge30" class="edge">
<title>j797000246&#45;&gt;j2055104574</title>
<path fill="none" stroke="black" d="M619.92,-473.89C607.1,-464.69 590.79,-452.99 576.52,-442.76"/>
<polygon fill="black" stroke="black" points="578.89,-440.15 568.72,-437.17 574.81,-445.84 578.89,-440.15"/>
</g>
<!-- j2864742878 -->
<g id="node25" class="node">
<title>j2864742878</title>
<ellipse fill="none" stroke="orange" cx="342.39" cy="-364" rx="142.97" ry="18"/>
<text text-anchor="middle" x="342.39" y="-360.3" font-family="Times New Roman,serif" font-size="14.00">Boolean EleanorNoDate is now true.</text>
</g>
<!-- j2744976042&#45;&gt;j2864742878 -->
<g id="edge31" class="edge">
<title>j2744976042&#45;&gt;j2864742878</title>
<path fill="none" stroke="black" d="M418.15,-472.62C403.38,-451.63 378.36,-416.1 361.15,-391.64"/>
<polygon fill="black" stroke="black" points="364.01,-389.63 355.39,-383.47 358.29,-393.66 364.01,-389.63"/>
</g>
<!-- j2373573547 -->
<g id="node26" class="node">
<title>j2373573547</title>
<ellipse fill="none" stroke="orange" cx="505.39" cy="-310" rx="145.67" ry="18"/>
<text text-anchor="middle" x="505.39" y="-306.3" font-family="Times New Roman,serif" font-size="14.00">Boolean EleanorNoDate is now false.</text>
</g>
<!-- j2055104574&#45;&gt;j2373573547 -->
<g id="edge32" class="edge">
<title>j2055104574&#45;&gt;j2373573547</title>
<path fill="none" stroke="black" d="M537.28,-399.97C531.39,-383.53 522.36,-358.35 515.42,-338.97"/>
<polygon fill="black" stroke="black" points="518.79,-338 512.12,-329.77 512.2,-340.36 518.79,-338"/>
</g>
<!-- j2864742878&#45;&gt;Chat ends. -->
<g id="edge33" class="edge">
<title>j2864742878&#45;&gt;Chat ends.</title>
<path fill="none" stroke="black" d="M287.64,-347.01C254.42,-333.57 218.39,-310.57 218.39,-274 218.39,-274 218.39,-274 218.39,-90 218.39,-75.17 213.79,-59.4 208.71,-46.51"/>
<polygon fill="black" stroke="black" points="211.96,-45.22 204.81,-37.4 205.52,-47.97 211.96,-45.22"/>
</g>
<!-- j3242565060 -->
<g id="node27" class="node">
<title>j3242565060</title>
<ellipse fill="none" stroke="orange" cx="474.39" cy="-237" rx="118.08" ry="18"/>
<text text-anchor="middle" x="474.39" y="-233.3" font-family="Times New Roman,serif" font-size="14.00">Boolean IsDating is now true.</text>
</g>
<!-- j2373573547&#45;&gt;j3242565060 -->
<g id="edge34" class="edge">
<title>j2373573547&#45;&gt;j3242565060</title>
<path fill="none" stroke="black" d="M497.88,-291.81C494.42,-283.88 490.22,-274.26 486.34,-265.36"/>
<polygon fill="black" stroke="black" points="489.64,-264.18 482.43,-256.42 483.22,-266.98 489.64,-264.18"/>
</g>
<!-- j158806250 -->
<g id="node28" class="node">
<title>j158806250</title>
<ellipse fill="none" stroke="orange" cx="415.39" cy="-164" rx="138.38" ry="18"/>
<text text-anchor="middle" x="415.39" y="-160.3" font-family="Times New Roman,serif" font-size="14.00">Boolean EleanorDating is now true.</text>
</g>
<!-- j3242565060&#45;&gt;j158806250 -->
<g id="edge35" class="edge">
<title>j3242565060&#45;&gt;j158806250</title>
<path fill="none" stroke="black" d="M460.11,-218.81C453.08,-210.35 444.46,-199.98 436.67,-190.61"/>
<polygon fill="black" stroke="black" points="439.59,-188.65 430.51,-183.19 434.21,-193.12 439.59,-188.65"/>
</g>
<!-- j1431622788 -->
<g id="node29" class="node">
<title>j1431622788</title>
<ellipse fill="none" stroke="orange" cx="401.39" cy="-91" rx="150.57" ry="18"/>
<text text-anchor="middle" x="401.39" y="-87.3" font-family="Times New Roman,serif" font-size="14.00">Boolean EleanorHasDated is now true.</text>
</g>
<!-- j158806250&#45;&gt;j1431622788 -->
<g id="edge36" class="edge">
<title>j158806250&#45;&gt;j1431622788</title>
<path fill="none" stroke="black" d="M412,-145.81C410.49,-138.14 408.66,-128.89 406.96,-120.24"/>
<polygon fill="black" stroke="black" points="410.41,-119.65 405.04,-110.51 403.54,-121 410.41,-119.65"/>
</g>
<!-- j1431622788&#45;&gt;Chat ends. -->
<g id="edge37" class="edge">
<title>j1431622788&#45;&gt;Chat ends.</title>
<path fill="none" stroke="black" d="M353.61,-73.53C319.87,-61.9 274.9,-46.4 241.52,-34.9"/>
<polygon fill="black" stroke="black" points="242.71,-31.61 232.12,-31.66 240.43,-38.23 242.71,-31.61"/>
</g>
</g>
</svg>
