<?xml version="1.0" encoding="UTF-8" standalone="no"?>
<!DOCTYPE svg PUBLIC "-//W3C//DTD SVG 1.1//EN"
 "http://www.w3.org/Graphics/SVG/1.1/DTD/svg11.dtd">
<!-- Generated by graphviz version 7.1.0 (20230121.1956)
 -->
<!-- Pages: 1 -->
<svg width="3339pt" height="1756pt"
 viewBox="0.00 0.00 3338.95 1756.00" xmlns="http://www.w3.org/2000/svg" xmlns:xlink="http://www.w3.org/1999/xlink">
<g id="graph0" class="graph" transform="scale(1 1) rotate(0) translate(4 1752)">
<polygon fill="white" stroke="none" points="-4,4 -4,-1752 3334.95,-1752 3334.95,4 -4,4"/>
<!-- EleanorRank4Convo8 begins. -->
<g id="node1" class="node">
<title>EleanorRank4Convo8 begins.</title>
<ellipse fill="none" stroke="orange" cx="131.94" cy="-1730" rx="118.88" ry="18"/>
<text text-anchor="middle" x="131.94" y="-1726.3" font-family="Times New Roman,serif" font-size="14.00">EleanorRank4Convo8 begins.</text>
</g>
<!-- j3214882603 -->
<g id="node2" class="node">
<title>j3214882603</title>
<ellipse fill="none" stroke="orange" cx="131.94" cy="-1657" rx="131.88" ry="18"/>
<text text-anchor="middle" x="131.94" y="-1653.3" font-family="Times New Roman,serif" font-size="14.00">Check boolean AmirRPGEleanor</text>
</g>
<!-- EleanorRank4Convo8 begins.&#45;&gt;j3214882603 -->
<g id="edge1" class="edge">
<title>EleanorRank4Convo8 begins.&#45;&gt;j3214882603</title>
<path fill="none" stroke="black" d="M131.94,-1711.81C131.94,-1704.23 131.94,-1695.1 131.94,-1686.54"/>
<polygon fill="black" stroke="black" points="135.44,-1686.54 131.94,-1676.54 128.44,-1686.54 135.44,-1686.54"/>
</g>
<!-- Chat ends. -->
<g id="node3" class="node">
<title>Chat ends.</title>
<ellipse fill="none" stroke="orange" cx="1276.94" cy="-18" rx="50.09" ry="18"/>
<text text-anchor="middle" x="1276.94" y="-14.3" font-family="Times New Roman,serif" font-size="14.00">Chat ends.</text>
</g>
<!-- j3214882603&#45;&gt;Chat ends. -->
<g id="edge2" class="edge">
<title>j3214882603&#45;&gt;Chat ends.</title>
<path fill="none" stroke="green" d="M126.7,-1638.6C122.03,-1621.54 115.94,-1594.73 115.94,-1571 115.94,-1571 115.94,-1571 115.94,-90 115.94,-34.4 975.45,-21.92 1215.4,-19.51"/>
<polygon fill="green" stroke="green" points="1215.2,-23.02 1225.17,-19.42 1215.13,-16.02 1215.2,-23.02"/>
<text text-anchor="middle" x="126.94" y="-770.8" font-family="Times New Roman,serif" font-size="14.00">true</text>
</g>
<!-- j4135228367 -->
<g id="node4" class="node">
<title>j4135228367</title>
<ellipse fill="none" stroke="orange" cx="1309.94" cy="-1570" rx="104.78" ry="18"/>
<text text-anchor="middle" x="1309.94" y="-1566.3" font-family="Times New Roman,serif" font-size="14.00">Check boolean AmirRPG</text>
</g>
<!-- j3214882603&#45;&gt;j4135228367 -->
<g id="edge3" class="edge">
<title>j3214882603&#45;&gt;j4135228367</title>
<path fill="none" stroke="brown" d="M246.5,-1647.73C474.52,-1631.28 982.26,-1594.64 1203.48,-1578.68"/>
<polygon fill="brown" stroke="brown" points="1203.52,-1582.19 1213.25,-1577.98 1203.02,-1575.21 1203.52,-1582.19"/>
<text text-anchor="middle" x="804.94" y="-1609.8" font-family="Times New Roman,serif" font-size="14.00">false</text>
</g>
<!-- j4135228367&#45;&gt;Chat ends. -->
<g id="edge5" class="edge">
<title>j4135228367&#45;&gt;Chat ends.</title>
<path fill="none" stroke="brown" d="M1414.95,-1569.23C1783.96,-1569.35 2998.94,-1563.68 2998.94,-1484 2998.94,-1484 2998.94,-1484 2998.94,-90 2998.94,0.52 3963.08,-107.48 2603.94,-54 2116.44,-34.82 1527.78,-23.43 1338.62,-20.06"/>
<polygon fill="brown" stroke="brown" points="1338.84,-16.56 1328.78,-19.88 1338.72,-23.56 1338.84,-16.56"/>
<text text-anchor="middle" x="3011.94" y="-727.3" font-family="Times New Roman,serif" font-size="14.00">false</text>
</g>
<!-- j1927546132 -->
<g id="node5" class="node">
<title>j1927546132</title>
<ellipse fill="none" stroke="orange" cx="1309.94" cy="-1483" rx="155.17" ry="18"/>
<text text-anchor="middle" x="1309.94" y="-1479.3" font-family="Times New Roman,serif" font-size="14.00">Check boolean AmirRPGEleanorAsked</text>
</g>
<!-- j4135228367&#45;&gt;j1927546132 -->
<g id="edge4" class="edge">
<title>j4135228367&#45;&gt;j1927546132</title>
<path fill="none" stroke="green" d="M1309.94,-1551.8C1309.94,-1540.58 1309.94,-1525.67 1309.94,-1512.69"/>
<polygon fill="green" stroke="green" points="1313.44,-1512.98 1309.94,-1502.98 1306.44,-1512.98 1313.44,-1512.98"/>
<text text-anchor="middle" x="1320.94" y="-1522.8" font-family="Times New Roman,serif" font-size="14.00">true</text>
</g>
<!-- j2024270768 -->
<g id="node6" class="node">
<title>j2024270768</title>
<polygon fill="none" stroke="red" points="2212.94,-1414 1672.94,-1414 1672.94,-1378 2212.94,-1378 2212.94,-1414"/>
<text text-anchor="middle" x="1942.94" y="-1392.3" font-family="Times New Roman,serif" font-size="14.00">안녕 엘레노어? 아미르가 맞추고 있던 보드 게임 기억나? 페이블 &amp; 프론티어?</text>
</g>
<!-- j1927546132&#45;&gt;j2024270768 -->
<g id="edge6" class="edge">
<title>j1927546132&#45;&gt;j2024270768</title>
<path fill="none" stroke="green" d="M1408.84,-1468.72C1514.19,-1454.57 1681.89,-1432.05 1801.25,-1416.03"/>
<polygon fill="green" stroke="green" points="1801.7,-1419.5 1811.14,-1414.7 1800.77,-1412.56 1801.7,-1419.5"/>
<text text-anchor="middle" x="1674.94" y="-1435.8" font-family="Times New Roman,serif" font-size="14.00">true</text>
</g>
<!-- j2992066796 -->
<g id="node7" class="node">
<title>j2992066796</title>
<polygon fill="none" stroke="red" points="1469.44,-1414 1150.44,-1414 1150.44,-1378 1469.44,-1378 1469.44,-1414"/>
<text text-anchor="middle" x="1309.94" y="-1392.3" font-family="Times New Roman,serif" font-size="14.00">안녕 엘레노어? 너하고 아미르 친한 거 맞지?</text>
</g>
<!-- j1927546132&#45;&gt;j2992066796 -->
<g id="edge7" class="edge">
<title>j1927546132&#45;&gt;j2992066796</title>
<path fill="none" stroke="brown" d="M1309.94,-1464.8C1309.94,-1453.58 1309.94,-1438.67 1309.94,-1425.69"/>
<polygon fill="brown" stroke="brown" points="1313.44,-1425.98 1309.94,-1415.98 1306.44,-1425.98 1313.44,-1425.98"/>
<text text-anchor="middle" x="1322.94" y="-1435.8" font-family="Times New Roman,serif" font-size="14.00">false</text>
</g>
<!-- j1436034780 -->
<g id="node8" class="node">
<title>j1436034780</title>
<polygon fill="none" stroke="red" points="1127.94,-1414 955.94,-1414 955.94,-1378 1127.94,-1378 1127.94,-1414"/>
<text text-anchor="middle" x="1041.94" y="-1392.3" font-family="Times New Roman,serif" font-size="14.00">너 보드게임 좋아하니?</text>
</g>
<!-- j1927546132&#45;&gt;j1436034780 -->
<g id="edge8" class="edge">
<title>j1927546132&#45;&gt;j1436034780</title>
<path fill="none" stroke="brown" d="M1258.27,-1465.61C1215.32,-1451.99 1153.95,-1432.52 1107.53,-1417.8"/>
<polygon fill="brown" stroke="brown" points="1108.71,-1414.51 1098.12,-1414.82 1106.59,-1421.18 1108.71,-1414.51"/>
<text text-anchor="middle" x="1204.94" y="-1435.8" font-family="Times New Roman,serif" font-size="14.00">false</text>
</g>
<!-- j1065130392 -->
<g id="node9" class="node">
<title>j1065130392</title>
<polygon fill="none" stroke="blue" points="2597.94,-1341 1947.94,-1341 1947.94,-1305 2597.94,-1305 2597.94,-1341"/>
<text text-anchor="middle" x="2272.94" y="-1319.3" font-family="Times New Roman,serif" font-size="14.00">응. 근데 네가 시간 낭비일 거라고, 단지 걔가 불쌍해서 같이 놀아줬다고 하지 않았었나, 맞지?</text>
</g>
<!-- j2024270768&#45;&gt;j1065130392 -->
<g id="edge9" class="edge">
<title>j2024270768&#45;&gt;j1065130392</title>
<path fill="none" stroke="black" d="M2024.09,-1377.54C2071.55,-1367.33 2131.61,-1354.41 2180.84,-1343.81"/>
<polygon fill="black" stroke="black" points="2181.3,-1347.3 2190.34,-1341.77 2179.82,-1340.45 2181.3,-1347.3"/>
</g>
<!-- j1135866521 -->
<g id="node10" class="node">
<title>j1135866521</title>
<polygon fill="none" stroke="blue" points="1448.94,-1341 1170.94,-1341 1170.94,-1305 1448.94,-1305 1448.94,-1341"/>
<text text-anchor="middle" x="1309.94" y="-1319.3" font-family="Times New Roman,serif" font-size="14.00">걔는 매력적인 익살꾸러기야. 근데 왜?</text>
</g>
<!-- j2992066796&#45;&gt;j1135866521 -->
<g id="edge10" class="edge">
<title>j2992066796&#45;&gt;j1135866521</title>
<path fill="none" stroke="black" d="M1309.94,-1377.81C1309.94,-1370.23 1309.94,-1361.1 1309.94,-1352.54"/>
<polygon fill="black" stroke="black" points="1313.44,-1352.54 1309.94,-1342.54 1306.44,-1352.54 1313.44,-1352.54"/>
</g>
<!-- j930867442 -->
<g id="node11" class="node">
<title>j930867442</title>
<polygon fill="none" stroke="blue" points="1152.94,-1341 922.94,-1341 922.94,-1305 1152.94,-1305 1152.94,-1341"/>
<text text-anchor="middle" x="1037.94" y="-1319.3" font-family="Times New Roman,serif" font-size="14.00">그냥 다른 사람만큼만. 근데 왜?</text>
</g>
<!-- j1436034780&#45;&gt;j930867442 -->
<g id="edge11" class="edge">
<title>j1436034780&#45;&gt;j930867442</title>
<path fill="none" stroke="black" d="M1040.97,-1377.81C1040.54,-1370.14 1040.02,-1360.89 1039.53,-1352.24"/>
<polygon fill="black" stroke="black" points="1043.04,-1352.33 1038.98,-1342.54 1036.05,-1352.72 1043.04,-1352.33"/>
</g>
<!-- j3408831466 -->
<g id="node12" class="node">
<title>j3408831466</title>
<polygon fill="none" stroke="red" points="2808.94,-1214 2560.94,-1214 2560.94,-1178 2808.94,-1178 2808.94,-1214"/>
<text text-anchor="middle" x="2684.94" y="-1192.3" font-family="Times New Roman,serif" font-size="14.00">아이고. 너 아직 화났구나. 알았어.</text>
</g>
<!-- j1065130392&#45;&gt;j3408831466 -->
<g id="edge12" class="edge">
<title>j1065130392&#45;&gt;j3408831466</title>
<path fill="none" stroke="black" d="M2330.23,-1304.62C2405.19,-1281.87 2536.42,-1242.06 2616.52,-1217.76"/>
<polygon fill="black" stroke="black" points="2617.47,-1221.13 2626.03,-1214.87 2615.44,-1214.43 2617.47,-1221.13"/>
</g>
<!-- j2448053478 -->
<g id="node13" class="node">
<title>j2448053478</title>
<polygon fill="none" stroke="red" points="2342.44,-1268 1659.44,-1268 1659.44,-1232 2342.44,-1232 2342.44,-1268"/>
<text text-anchor="middle" x="2000.94" y="-1246.3" font-family="Times New Roman,serif" font-size="14.00">그때는 네가 &quot;너무 쿨하군&quot;이라고 생각했고, 나도 그런척하려고 했었어. 지금은 내가 더 잘 알지만.</text>
</g>
<!-- j1065130392&#45;&gt;j2448053478 -->
<g id="edge13" class="edge">
<title>j1065130392&#45;&gt;j2448053478</title>
<path fill="none" stroke="black" d="M2206.05,-1304.54C2167.52,-1294.48 2118.9,-1281.79 2078.68,-1271.29"/>
<polygon fill="black" stroke="black" points="2079.59,-1267.91 2069.03,-1268.77 2077.82,-1274.69 2079.59,-1267.91"/>
</g>
<!-- j2193014537 -->
<g id="node14" class="node">
<title>j2193014537</title>
<polygon fill="none" stroke="red" points="2695.94,-1106 2045.94,-1106 2045.94,-1070 2695.94,-1070 2695.94,-1106"/>
<text text-anchor="middle" x="2370.94" y="-1084.3" font-family="Times New Roman,serif" font-size="14.00">그래 난... 그냥 사과하고 싶었어. 내가... 한 말은 진심이 아니었어. 네가 거절할까 봐 두려웠어.</text>
</g>
<!-- j1065130392&#45;&gt;j2193014537 -->
<g id="edge14" class="edge">
<title>j1065130392&#45;&gt;j2193014537</title>
<path fill="none" stroke="black" d="M2311.57,-1304.65C2326.66,-1295.86 2342.57,-1283.69 2351.94,-1268 2379.99,-1221.04 2378.56,-1154.6 2374.86,-1117.28"/>
<polygon fill="black" stroke="black" points="2378.38,-1117.3 2373.78,-1107.76 2371.42,-1118.09 2378.38,-1117.3"/>
</g>
<!-- j2363178009 -->
<g id="node15" class="node">
<title>j2363178009</title>
<polygon fill="none" stroke="red" points="1641.44,-1268 978.44,-1268 978.44,-1232 1641.44,-1232 1641.44,-1268"/>
<text text-anchor="middle" x="1309.94" y="-1246.3" font-family="Times New Roman,serif" font-size="14.00">아미르가 페이블 &amp; 프론티어 게임을 하기 위해 팀을 모으고 있는데, 내가 도와주겠다고 했거든.</text>
</g>
<!-- j1135866521&#45;&gt;j2363178009 -->
<g id="edge15" class="edge">
<title>j1135866521&#45;&gt;j2363178009</title>
<path fill="none" stroke="black" d="M1309.94,-1304.81C1309.94,-1297.23 1309.94,-1288.1 1309.94,-1279.54"/>
<polygon fill="black" stroke="black" points="1313.44,-1279.54 1309.94,-1269.54 1306.44,-1279.54 1313.44,-1279.54"/>
</g>
<!-- j903536275 -->
<g id="node16" class="node">
<title>j903536275</title>
<polygon fill="none" stroke="red" points="959.94,-1268 439.94,-1268 439.94,-1232 959.94,-1232 959.94,-1268"/>
<text text-anchor="middle" x="699.94" y="-1246.3" font-family="Times New Roman,serif" font-size="14.00">아미르는 정말 모든 사람과 페이블 &amp; 프론티어를 하고 싶어 해. 너도 할래?</text>
</g>
<!-- j1135866521&#45;&gt;j903536275 -->
<g id="edge16" class="edge">
<title>j1135866521&#45;&gt;j903536275</title>
<path fill="none" stroke="black" d="M1170.76,-1305.8C1078.76,-1295.09 957.83,-1281.02 861.57,-1269.81"/>
<polygon fill="black" stroke="black" points="862.1,-1266.35 851.76,-1268.67 861.29,-1273.3 862.1,-1266.35"/>
</g>
<!-- j930867442&#45;&gt;j2363178009 -->
<g id="edge17" class="edge">
<title>j930867442&#45;&gt;j2363178009</title>
<path fill="none" stroke="black" d="M1104.83,-1304.54C1143.36,-1294.48 1191.97,-1281.79 1232.2,-1271.29"/>
<polygon fill="black" stroke="black" points="1233.05,-1274.69 1241.85,-1268.77 1231.29,-1267.91 1233.05,-1274.69"/>
</g>
<!-- j930867442&#45;&gt;j903536275 -->
<g id="edge18" class="edge">
<title>j930867442&#45;&gt;j903536275</title>
<path fill="none" stroke="black" d="M954.82,-1304.54C906.21,-1294.33 844.69,-1281.41 794.27,-1270.81"/>
<polygon fill="black" stroke="black" points="795.01,-1267.4 784.51,-1268.76 793.58,-1274.25 795.01,-1267.4"/>
</g>
<!-- j3408831466&#45;&gt;Chat ends. -->
<g id="edge19" class="edge">
<title>j3408831466&#45;&gt;Chat ends.</title>
<path fill="none" stroke="black" d="M2773.06,-1177.58C2851.17,-1159.54 2952.94,-1128.47 2952.94,-1089 2952.94,-1089 2952.94,-1089 2952.94,-90 2952.94,-48.76 1639.95,-24.9 1338.23,-19.96"/>
<polygon fill="black" stroke="black" points="1338.67,-16.47 1328.61,-19.81 1338.55,-23.47 1338.67,-16.47"/>
</g>
<!-- j170016630 -->
<g id="node17" class="node">
<title>j170016630</title>
<polygon fill="none" stroke="blue" points="2034.44,-1160 1549.44,-1160 1549.44,-1124 2034.44,-1124 2034.44,-1160"/>
<text text-anchor="middle" x="1791.94" y="-1138.3" font-family="Times New Roman,serif" font-size="14.00">우리 중 더 이상 게임에 &quot;너무 쿨하지&quot; 못한 건 너일까 아니면 나일까?</text>
</g>
<!-- j2448053478&#45;&gt;j170016630 -->
<g id="edge20" class="edge">
<title>j2448053478&#45;&gt;j170016630</title>
<path fill="none" stroke="black" d="M1966.89,-1231.73C1931.32,-1213.69 1875.37,-1185.31 1836.34,-1165.52"/>
<polygon fill="black" stroke="black" points="1838.17,-1162.52 1827.67,-1161.12 1835,-1168.76 1838.17,-1162.52"/>
</g>
<!-- j3835869702 -->
<g id="node18" class="node">
<title>j3835869702</title>
<polygon fill="none" stroke="blue" points="2924.94,-944 1140.94,-944 1140.94,-908 2924.94,-908 2924.94,-944"/>
<text text-anchor="middle" x="2032.94" y="-922.3" font-family="Times New Roman,serif" font-size="14.00">우리 모두 인생에서 한 번쯤은 그런 적 있잖아... 누군가에서 좋은 인상을 주기 위해 가면을 쓰려고 하다가 어디로 가는지 보이지가 않아서 얼굴을 땅에 박고 쓰러지는 일 같은 거 말이야. 그리고 네가 물었을 때 너와 나는 거의 만나지 못했어. 좋아. 널 용서해 줄게.</text>
</g>
<!-- j2193014537&#45;&gt;j3835869702 -->
<g id="edge21" class="edge">
<title>j2193014537&#45;&gt;j3835869702</title>
<path fill="none" stroke="black" d="M2370.93,-1069.75C2369.98,-1053.72 2366.03,-1030.24 2351.94,-1016 2318.34,-982.04 2272.94,-960.75 2226.95,-947.48"/>
<polygon fill="black" stroke="black" points="2227.91,-944.12 2217.34,-944.84 2226.06,-950.87 2227.91,-944.12"/>
</g>
<!-- j4098065895 -->
<g id="node19" class="node">
<title>j4098065895</title>
<polygon fill="none" stroke="blue" points="1522.94,-1160 400.94,-1160 400.94,-1124 1522.94,-1124 1522.94,-1160"/>
<text text-anchor="middle" x="961.94" y="-1138.3" font-family="Times New Roman,serif" font-size="14.00">아 그렇군. 너는 썬더볼트 왕이 공정한 엘레노어를 영입하기 위해 보내진 선택받은 사자로군. 의심할 여지없이 온갖 속임수가 나를 기다리고 있겠네. Fol de rol 등등.</text>
</g>
<!-- j2363178009&#45;&gt;j4098065895 -->
<g id="edge22" class="edge">
<title>j2363178009&#45;&gt;j4098065895</title>
<path fill="none" stroke="black" d="M1252.86,-1231.61C1191.89,-1213.04 1095.27,-1183.61 1030.28,-1163.82"/>
<polygon fill="black" stroke="black" points="1031.37,-1160.49 1020.78,-1160.92 1029.33,-1167.19 1031.37,-1160.49"/>
</g>
<!-- j903536275&#45;&gt;j4098065895 -->
<g id="edge23" class="edge">
<title>j903536275&#45;&gt;j4098065895</title>
<path fill="none" stroke="black" d="M742.91,-1231.61C788.22,-1213.28 859.67,-1184.37 908.57,-1164.59"/>
<polygon fill="black" stroke="black" points="909.58,-1167.96 917.54,-1160.96 906.96,-1161.47 909.58,-1167.96"/>
</g>
<!-- j1472737509 -->
<g id="node20" class="node">
<title>j1472737509</title>
<polygon fill="none" stroke="red" points="1741.44,-998 1242.44,-998 1242.44,-962 1741.44,-962 1741.44,-998"/>
<text text-anchor="middle" x="1491.94" y="-976.3" font-family="Times New Roman,serif" font-size="14.00">너지. 난 아직도 그게 멍청한 게임이라고 생각하지만, 그러든지 말든지.</text>
</g>
<!-- j170016630&#45;&gt;j1472737509 -->
<g id="edge24" class="edge">
<title>j170016630&#45;&gt;j1472737509</title>
<path fill="none" stroke="black" d="M1746.99,-1123.53C1734.22,-1118.23 1720.4,-1112.17 1707.94,-1106 1643.23,-1073.97 1571.24,-1030.67 1528.87,-1004.35"/>
<polygon fill="black" stroke="black" points="1530.89,-1001.48 1520.55,-999.16 1527.18,-1007.42 1530.89,-1001.48"/>
</g>
<!-- j1721786254 -->
<g id="node21" class="node">
<title>j1721786254</title>
<polygon fill="none" stroke="red" points="2342.94,-1052 1722.94,-1052 1722.94,-1016 2342.94,-1016 2342.94,-1052"/>
<text text-anchor="middle" x="2032.94" y="-1030.3" font-family="Times New Roman,serif" font-size="14.00">나. 확실히 나야. 넌 여전히 게임에 너무 쿨해. 하지만 나는 바보 멍청이지. 퀸시도 그랬어.</text>
</g>
<!-- j170016630&#45;&gt;j1721786254 -->
<g id="edge25" class="edge">
<title>j170016630&#45;&gt;j1721786254</title>
<path fill="none" stroke="black" d="M1831.46,-1123.61C1872.88,-1105.4 1938.05,-1076.74 1982.99,-1056.97"/>
<polygon fill="black" stroke="black" points="1984.26,-1060.23 1992,-1053 1981.44,-1053.83 1984.26,-1060.23"/>
</g>
<!-- j637664501 -->
<g id="node22" class="node">
<title>j637664501</title>
<polygon fill="none" stroke="red" points="1704.44,-1052 1635.44,-1052 1635.44,-1016 1704.44,-1016 1704.44,-1052"/>
<text text-anchor="middle" x="1669.94" y="-1030.3" font-family="Times New Roman,serif" font-size="14.00">...둘 다?</text>
</g>
<!-- j170016630&#45;&gt;j637664501 -->
<g id="edge26" class="edge">
<title>j170016630&#45;&gt;j637664501</title>
<path fill="none" stroke="black" d="M1772.07,-1123.73C1752.04,-1106.33 1720.94,-1079.31 1698.32,-1059.66"/>
<polygon fill="black" stroke="black" points="1700.79,-1057.17 1690.95,-1053.25 1696.2,-1062.45 1700.79,-1057.17"/>
</g>
<!-- j1768841740 -->
<g id="node23" class="node">
<title>j1768841740</title>
<polygon fill="none" stroke="blue" points="1955.94,-836 1311.94,-836 1311.94,-800 1955.94,-800 1955.94,-836"/>
<text text-anchor="middle" x="1633.94" y="-814.3" font-family="Times New Roman,serif" font-size="14.00">솔직히, 얼간이 같은 목소리로 몇 시간 동안 연기하는 게 나쁘게 들리지는 않네. 나도 끼워줘.</text>
</g>
<!-- j3835869702&#45;&gt;j1768841740 -->
<g id="edge27" class="edge">
<title>j3835869702&#45;&gt;j1768841740</title>
<path fill="none" stroke="black" d="M1967.5,-907.61C1897.01,-888.89 1784.97,-859.12 1710.46,-839.33"/>
<polygon fill="black" stroke="black" points="1711.77,-836.06 1701.21,-836.87 1709.97,-842.82 1711.77,-836.06"/>
</g>
<!-- j2095399563 -->
<g id="node24" class="node">
<title>j2095399563</title>
<polygon fill="none" stroke="red" points="1218.44,-998 817.44,-998 817.44,-962 1218.44,-962 1218.44,-998"/>
<text text-anchor="middle" x="1017.94" y="-976.3" font-family="Times New Roman,serif" font-size="14.00">솔직히 재밌을 거 같은데. 그에게 큰 의미가 있어 보이네.</text>
</g>
<!-- j4098065895&#45;&gt;j2095399563 -->
<g id="edge28" class="edge">
<title>j4098065895&#45;&gt;j2095399563</title>
<path fill="none" stroke="black" d="M968.04,-1123.57C977.67,-1096.04 996.51,-1042.22 1008.08,-1009.16"/>
<polygon fill="black" stroke="black" points="1011.35,-1010.43 1011.35,-999.83 1004.74,-1008.12 1011.35,-1010.43"/>
</g>
<!-- j4038391 -->
<g id="node25" class="node">
<title>j4038391</title>
<polygon fill="none" stroke="red" points="846.94,-1052 414.94,-1052 414.94,-1016 846.94,-1016 846.94,-1052"/>
<text text-anchor="middle" x="630.94" y="-1030.3" font-family="Times New Roman,serif" font-size="14.00">어, 시간 낭비 같아 보이지만 친절하게 굴려고 애쓰는 중이야.</text>
</g>
<!-- j4098065895&#45;&gt;j4038391 -->
<g id="edge29" class="edge">
<title>j4098065895&#45;&gt;j4038391</title>
<path fill="none" stroke="black" d="M907.65,-1123.61C849.78,-1105.08 758.13,-1075.73 696.33,-1055.94"/>
<polygon fill="black" stroke="black" points="697.56,-1052.66 686.97,-1052.94 695.43,-1059.33 697.56,-1052.66"/>
</g>
<!-- j1472737509&#45;&gt;Chat ends. -->
<g id="edge30" class="edge">
<title>j1472737509&#45;&gt;Chat ends.</title>
<path fill="none" stroke="black" d="M1260.49,-961.5C1194.17,-955.53 1137.93,-949.08 1131.94,-944 1107.02,-922.88 1112.94,-905.67 1112.94,-873 1112.94,-873 1112.94,-873 1112.94,-90 1112.94,-43.57 1168.99,-27.16 1215.55,-21.54"/>
<polygon fill="black" stroke="black" points="1215.75,-25.04 1225.34,-20.52 1215.03,-18.08 1215.75,-25.04"/>
</g>
<!-- j1721786254&#45;&gt;j3835869702 -->
<g id="edge31" class="edge">
<title>j1721786254&#45;&gt;j3835869702</title>
<path fill="none" stroke="black" d="M2032.94,-1015.97C2032.94,-999.76 2032.94,-975.06 2032.94,-955.79"/>
<polygon fill="black" stroke="black" points="2036.44,-955.85 2032.94,-945.85 2029.44,-955.85 2036.44,-955.85"/>
</g>
<!-- j637664501&#45;&gt;j3835869702 -->
<g id="edge32" class="edge">
<title>j637664501&#45;&gt;j3835869702</title>
<path fill="none" stroke="black" d="M1704.89,-1019.14C1707.94,-1018.04 1710.98,-1016.98 1713.94,-1016 1794.03,-989.43 1887.13,-964.07 1952,-947.27"/>
<polygon fill="black" stroke="black" points="1952.69,-950.71 1961.5,-944.82 1950.95,-943.93 1952.69,-950.71"/>
</g>
<!-- j3307095433 -->
<g id="node26" class="node">
<title>j3307095433</title>
<polygon fill="none" stroke="blue" points="1916.94,-749 1350.94,-749 1350.94,-713 1916.94,-713 1916.94,-749"/>
<text text-anchor="middle" x="1633.94" y="-727.3" font-family="Times New Roman,serif" font-size="14.00">오! 난 마법사가 되고 싶은데. 아니면 시인할까. 아니면 둘 다? 둘 다 할 수 있을까?</text>
</g>
<!-- j1768841740&#45;&gt;j3307095433 -->
<g id="edge33" class="edge">
<title>j1768841740&#45;&gt;j3307095433</title>
<path fill="none" stroke="black" d="M1633.94,-799.8C1633.94,-788.58 1633.94,-773.67 1633.94,-760.69"/>
<polygon fill="black" stroke="black" points="1637.44,-760.98 1633.94,-750.98 1630.44,-760.98 1637.44,-760.98"/>
</g>
<!-- j2095399563&#45;&gt;j1768841740 -->
<g id="edge34" class="edge">
<title>j2095399563&#45;&gt;j1768841740</title>
<path fill="none" stroke="black" d="M1040.14,-961.55C1062.18,-945.15 1097.54,-921.19 1131.94,-908 1224.75,-872.4 1332.75,-850.91 1424.74,-838"/>
<polygon fill="black" stroke="black" points="1424.95,-841.5 1434.38,-836.67 1423.99,-834.57 1424.95,-841.5"/>
</g>
<!-- j2548718658 -->
<g id="node27" class="node">
<title>j2548718658</title>
<polygon fill="none" stroke="blue" points="1072.44,-890 131.44,-890 131.44,-854 1072.44,-854 1072.44,-890"/>
<text text-anchor="middle" x="601.94" y="-868.3" font-family="Times New Roman,serif" font-size="14.00">내가 너에게 호의를 베풀 예정이므로 이 말은 그에게 전하지 않을게. 대신 조언 하나 하지. 앞으로 내 앞에서는 그를 더 존중해 주길 바래.</text>
</g>
<!-- j4038391&#45;&gt;j2548718658 -->
<g id="edge35" class="edge">
<title>j4038391&#45;&gt;j2548718658</title>
<path fill="none" stroke="black" d="M627.78,-1015.57C622.81,-988.16 613.12,-934.69 607.12,-901.59"/>
<polygon fill="black" stroke="black" points="610.59,-901.11 605.36,-891.9 603.7,-902.36 610.59,-901.11"/>
</g>
<!-- j2019709794 -->
<g id="node28" class="node">
<title>j2019709794</title>
<polygon fill="none" stroke="blue" points="2126.44,-676 1141.44,-676 1141.44,-640 2126.44,-640 2126.44,-676"/>
<text text-anchor="middle" x="1633.94" y="-654.3" font-family="Times New Roman,serif" font-size="14.00">아니면 늪에 빠진 마녀가 될 수도 있겠어! 꽉 끼는 바디스만 입을 수 있다면 말이야. 엄마 모씨티츠가 네 뼈를 먹어 치울 거야, 이 작은 난쟁이야.</text>
</g>
<!-- j3307095433&#45;&gt;j2019709794 -->
<g id="edge36" class="edge">
<title>j3307095433&#45;&gt;j2019709794</title>
<path fill="none" stroke="black" d="M1633.94,-712.81C1633.94,-705.23 1633.94,-696.1 1633.94,-687.54"/>
<polygon fill="black" stroke="black" points="1637.44,-687.54 1633.94,-677.54 1630.44,-687.54 1637.44,-687.54"/>
</g>
<!-- j2548718658&#45;&gt;Chat ends. -->
<g id="edge37" class="edge">
<title>j2548718658&#45;&gt;Chat ends.</title>
<path fill="none" stroke="black" d="M768.73,-853.59C807.62,-839.8 837.94,-816.05 837.94,-775.5 837.94,-775.5 837.94,-775.5 837.94,-90 837.94,-52.09 1096.36,-30.56 1216.66,-22.59"/>
<polygon fill="black" stroke="black" points="1216.6,-26.1 1226.35,-21.96 1216.14,-19.11 1216.6,-26.1"/>
</g>
<!-- j3350828690 -->
<g id="node29" class="node">
<title>j3350828690</title>
<ellipse fill="none" stroke="orange" cx="1632.94" cy="-585" rx="64.19" ry="18"/>
<text text-anchor="middle" x="1632.94" y="-581.3" font-family="Times New Roman,serif" font-size="14.00">+20 Chemistry</text>
</g>
<!-- j2019709794&#45;&gt;j3350828690 -->
<g id="edge38" class="edge">
<title>j2019709794&#45;&gt;j3350828690</title>
<path fill="none" stroke="black" d="M1633.7,-639.81C1633.59,-632.23 1633.46,-623.1 1633.34,-614.54"/>
<polygon fill="black" stroke="black" points="1636.84,-614.49 1633.2,-604.54 1629.84,-614.59 1636.84,-614.49"/>
</g>
<!-- j3547512552 -->
<g id="node30" class="node">
<title>j3547512552</title>
<ellipse fill="none" stroke="orange" cx="1617.94" cy="-512" rx="151.37" ry="18"/>
<text text-anchor="middle" x="1617.94" y="-508.3" font-family="Times New Roman,serif" font-size="14.00">Boolean AmirRPGEleanor is now true.</text>
</g>
<!-- j3350828690&#45;&gt;j3547512552 -->
<g id="edge39" class="edge">
<title>j3350828690&#45;&gt;j3547512552</title>
<path fill="none" stroke="black" d="M1629.31,-566.81C1627.69,-559.14 1625.73,-549.89 1623.91,-541.24"/>
<polygon fill="black" stroke="black" points="1627.34,-540.57 1621.85,-531.51 1620.49,-542.02 1627.34,-540.57"/>
</g>
<!-- j2681138614 -->
<g id="node31" class="node">
<title>j2681138614</title>
<ellipse fill="none" stroke="orange" cx="1616.94" cy="-439" rx="130.78" ry="18"/>
<text text-anchor="middle" x="1616.94" y="-435.3" font-family="Times New Roman,serif" font-size="14.00">Check boolean AmirRPGQuincy</text>
</g>
<!-- j3547512552&#45;&gt;j2681138614 -->
<g id="edge40" class="edge">
<title>j3547512552&#45;&gt;j2681138614</title>
<path fill="none" stroke="black" d="M1617.7,-493.81C1617.59,-486.23 1617.46,-477.1 1617.34,-468.54"/>
<polygon fill="black" stroke="black" points="1620.84,-468.49 1617.2,-458.54 1613.84,-468.59 1620.84,-468.49"/>
</g>
<!-- j3106430708 -->
<g id="node32" class="node">
<title>j3106430708</title>
<ellipse fill="none" stroke="orange" cx="1460.94" cy="-352" rx="128.08" ry="18"/>
<text text-anchor="middle" x="1460.94" y="-348.3" font-family="Times New Roman,serif" font-size="14.00">Check boolean AmirRPGArthur</text>
</g>
<!-- j2681138614&#45;&gt;j3106430708 -->
<g id="edge41" class="edge">
<title>j2681138614&#45;&gt;j3106430708</title>
<path fill="none" stroke="green" d="M1586.12,-421.21C1562.05,-408.09 1528.39,-389.75 1502.03,-375.39"/>
<polygon fill="green" stroke="green" points="1503.75,-372.34 1493.29,-370.63 1500.4,-378.49 1503.75,-372.34"/>
<text text-anchor="middle" x="1558.94" y="-391.8" font-family="Times New Roman,serif" font-size="14.00">true</text>
</g>
<!-- j1692268193 -->
<g id="node33" class="node">
<title>j1692268193</title>
<ellipse fill="none" stroke="orange" cx="1568.94" cy="-91" rx="139.98" ry="18"/>
<text text-anchor="middle" x="1568.94" y="-87.3" font-family="Times New Roman,serif" font-size="14.00">Boolean AmirRPGAny is now true.</text>
</g>
<!-- j2681138614&#45;&gt;j1692268193 -->
<g id="edge42" class="edge">
<title>j2681138614&#45;&gt;j1692268193</title>
<path fill="none" stroke="brown" d="M1616.94,-420.74C1616.94,-403.57 1616.94,-376.46 1616.94,-353 1616.94,-353 1616.94,-353 1616.94,-177 1616.94,-155.18 1604.8,-133.81 1592.73,-117.96"/>
<polygon fill="brown" stroke="brown" points="1595.69,-116.05 1586.68,-110.48 1590.25,-120.45 1595.69,-116.05"/>
<text text-anchor="middle" x="1629.94" y="-261.3" font-family="Times New Roman,serif" font-size="14.00">false</text>
</g>
<!-- j3106430708&#45;&gt;j1692268193 -->
<g id="edge44" class="edge">
<title>j3106430708&#45;&gt;j1692268193</title>
<path fill="none" stroke="brown" d="M1494.55,-334.37C1514.16,-322.8 1537.44,-305.42 1549.94,-283 1578.63,-231.55 1576.76,-160.07 1572.85,-120.76"/>
<polygon fill="brown" stroke="brown" points="1576.34,-120.48 1571.74,-110.93 1569.38,-121.26 1576.34,-120.48"/>
<text text-anchor="middle" x="1583.94" y="-217.8" font-family="Times New Roman,serif" font-size="14.00">false</text>
</g>
<!-- j2925122696 -->
<g id="node34" class="node">
<title>j2925122696</title>
<ellipse fill="none" stroke="orange" cx="1422.94" cy="-265" rx="117.78" ry="18"/>
<text text-anchor="middle" x="1422.94" y="-261.3" font-family="Times New Roman,serif" font-size="14.00">Check boolean AmirRPGAoi</text>
</g>
<!-- j3106430708&#45;&gt;j2925122696 -->
<g id="edge43" class="edge">
<title>j3106430708&#45;&gt;j2925122696</title>
<path fill="none" stroke="green" d="M1453.25,-333.8C1448.1,-322.28 1441.2,-306.86 1435.29,-293.63"/>
<polygon fill="green" stroke="green" points="1438.51,-292.26 1431.23,-284.56 1432.12,-295.11 1438.51,-292.26"/>
<text text-anchor="middle" x="1454.94" y="-304.8" font-family="Times New Roman,serif" font-size="14.00">true</text>
</g>
<!-- j1692268193&#45;&gt;Chat ends. -->
<g id="edge45" class="edge">
<title>j1692268193&#45;&gt;Chat ends.</title>
<path fill="none" stroke="black" d="M1505.58,-74.59C1452.67,-61.73 1378.17,-43.62 1328.77,-31.6"/>
<polygon fill="black" stroke="black" points="1329.72,-28.23 1319.17,-29.27 1328.06,-35.03 1329.72,-28.23"/>
</g>
<!-- j2925122696&#45;&gt;j1692268193 -->
<g id="edge47" class="edge">
<title>j2925122696&#45;&gt;j1692268193</title>
<path fill="none" stroke="brown" d="M1440.27,-246.84C1453.66,-233.36 1472.46,-213.92 1487.94,-196 1509.99,-170.46 1533.5,-139.85 1549.49,-118.47"/>
<polygon fill="brown" stroke="brown" points="1552.2,-120.68 1555.36,-110.57 1546.59,-116.51 1552.2,-120.68"/>
<text text-anchor="middle" x="1529.94" y="-174.3" font-family="Times New Roman,serif" font-size="14.00">false</text>
</g>
<!-- j3259534993 -->
<g id="node35" class="node">
<title>j3259534993</title>
<ellipse fill="none" stroke="orange" cx="1354.94" cy="-178" rx="124.28" ry="18"/>
<text text-anchor="middle" x="1354.94" y="-174.3" font-family="Times New Roman,serif" font-size="14.00">Check boolean AmirRPGLettie</text>
</g>
<!-- j2925122696&#45;&gt;j3259534993 -->
<g id="edge46" class="edge">
<title>j2925122696&#45;&gt;j3259534993</title>
<path fill="none" stroke="green" d="M1409.18,-246.8C1399.59,-234.82 1386.63,-218.62 1375.78,-205.06"/>
<polygon fill="green" stroke="green" points="1378.6,-202.98 1369.62,-197.36 1373.14,-207.35 1378.6,-202.98"/>
<text text-anchor="middle" x="1403.94" y="-217.8" font-family="Times New Roman,serif" font-size="14.00">true</text>
</g>
<!-- j3259534993&#45;&gt;j1692268193 -->
<g id="edge49" class="edge">
<title>j3259534993&#45;&gt;j1692268193</title>
<path fill="none" stroke="brown" d="M1393.43,-160.52C1416.89,-150.59 1447.54,-137.8 1474.94,-127 1487.34,-122.11 1500.73,-117.01 1513.41,-112.27"/>
<polygon fill="brown" stroke="brown" points="1514.29,-115.68 1522.44,-108.91 1511.85,-109.12 1514.29,-115.68"/>
<text text-anchor="middle" x="1487.94" y="-130.8" font-family="Times New Roman,serif" font-size="14.00">false</text>
</g>
<!-- j3798570005 -->
<g id="node36" class="node">
<title>j3798570005</title>
<ellipse fill="none" stroke="orange" cx="1276.94" cy="-91" rx="134.58" ry="18"/>
<text text-anchor="middle" x="1276.94" y="-87.3" font-family="Times New Roman,serif" font-size="14.00">Boolean AmirRPGAll is now true.</text>
</g>
<!-- j3259534993&#45;&gt;j3798570005 -->
<g id="edge48" class="edge">
<title>j3259534993&#45;&gt;j3798570005</title>
<path fill="none" stroke="green" d="M1339.15,-159.8C1327.95,-147.59 1312.72,-130.99 1300.13,-117.28"/>
<polygon fill="green" stroke="green" points="1303.06,-115.29 1293.72,-110.29 1297.91,-120.02 1303.06,-115.29"/>
<text text-anchor="middle" x="1330.94" y="-130.8" font-family="Times New Roman,serif" font-size="14.00">true</text>
</g>
<!-- j3798570005&#45;&gt;Chat ends. -->
<g id="edge50" class="edge">
<title>j3798570005&#45;&gt;Chat ends.</title>
<path fill="none" stroke="black" d="M1276.94,-72.81C1276.94,-65.23 1276.94,-56.1 1276.94,-47.54"/>
<polygon fill="black" stroke="black" points="1280.44,-47.54 1276.94,-37.54 1273.44,-47.54 1280.44,-47.54"/>
</g>
</g>
</svg>
