<?xml version="1.0" encoding="UTF-8" standalone="no"?>
<!DOCTYPE svg PUBLIC "-//W3C//DTD SVG 1.1//EN"
 "http://www.w3.org/Graphics/SVG/1.1/DTD/svg11.dtd">
<!-- Generated by graphviz version 7.1.0 (20230121.1956)
 -->
<!-- Pages: 1 -->
<svg width="915pt" height="1220pt"
 viewBox="0.00 0.00 915.00 1220.00" xmlns="http://www.w3.org/2000/svg" xmlns:xlink="http://www.w3.org/1999/xlink">
<g id="graph0" class="graph" transform="scale(1 1) rotate(0) translate(4 1216)">
<polygon fill="white" stroke="none" points="-4,4 -4,-1216 911,-1216 911,4 -4,4"/>
<!-- LettieRank2Convo4 begins. -->
<g id="node1" class="node">
<title>LettieRank2Convo4 begins.</title>
<ellipse fill="none" stroke="orange" cx="319" cy="-1194" rx="111.58" ry="18"/>
<text text-anchor="middle" x="319" y="-1190.3" font-family="Times New Roman,serif" font-size="14.00">LettieRank2Convo4 begins.</text>
</g>
<!-- j3639082738 -->
<g id="node2" class="node">
<title>j3639082738</title>
<ellipse fill="none" stroke="orange" cx="319" cy="-1121" rx="129.18" ry="18"/>
<text text-anchor="middle" x="319" y="-1117.3" font-family="Times New Roman,serif" font-size="14.00">Check boolean LettieSmallFavor</text>
</g>
<!-- LettieRank2Convo4 begins.&#45;&gt;j3639082738 -->
<g id="edge1" class="edge">
<title>LettieRank2Convo4 begins.&#45;&gt;j3639082738</title>
<path fill="none" stroke="black" d="M319,-1175.81C319,-1168.23 319,-1159.1 319,-1150.54"/>
<polygon fill="black" stroke="black" points="322.5,-1150.54 319,-1140.54 315.5,-1150.54 322.5,-1150.54"/>
</g>
<!-- j2219716465 -->
<g id="node3" class="node">
<title>j2219716465</title>
<polygon fill="none" stroke="blue" points="313.5,-1052 74.5,-1052 74.5,-1014 313.5,-1014 313.5,-1052"/>
<text text-anchor="middle" x="194" y="-1036.8" font-family="Times New Roman,serif" font-size="14.00">Ei, babas &#13;</text>
<text text-anchor="middle" x="194" y="-1021.8" font-family="Times New Roman,serif" font-size="14.00">Tenho outro pequeno favor pra te pedir</text>
</g>
<!-- j3639082738&#45;&gt;j2219716465 -->
<g id="edge2" class="edge">
<title>j3639082738&#45;&gt;j2219716465</title>
<path fill="none" stroke="green" d="M294.3,-1103.01C276,-1090.42 250.77,-1073.06 230.19,-1058.9"/>
<polygon fill="green" stroke="green" points="232.28,-1056.09 222.06,-1053.3 228.31,-1061.85 232.28,-1056.09"/>
<text text-anchor="middle" x="279" y="-1073.8" font-family="Times New Roman,serif" font-size="14.00">true</text>
</g>
<!-- j1764945795 -->
<g id="node4" class="node">
<title>j1764945795</title>
<polygon fill="none" stroke="blue" points="558,-1052 332,-1052 332,-1014 558,-1014 558,-1052"/>
<text text-anchor="middle" x="445" y="-1036.8" font-family="Times New Roman,serif" font-size="14.00">Ei, babas &#13;</text>
<text text-anchor="middle" x="445" y="-1021.8" font-family="Times New Roman,serif" font-size="14.00">Tenho um pequeno favor pra te pedir</text>
</g>
<!-- j3639082738&#45;&gt;j1764945795 -->
<g id="edge3" class="edge">
<title>j3639082738&#45;&gt;j1764945795</title>
<path fill="none" stroke="brown" d="M343.89,-1103.01C362.34,-1090.42 387.78,-1073.06 408.52,-1058.9"/>
<polygon fill="brown" stroke="brown" points="410.44,-1061.83 416.73,-1053.3 406.49,-1056.04 410.44,-1061.83"/>
<text text-anchor="middle" x="402" y="-1073.8" font-family="Times New Roman,serif" font-size="14.00">false</text>
</g>
<!-- j1806846215 -->
<g id="node5" class="node">
<title>j1806846215</title>
<polygon fill="none" stroke="red" points="478,-977 374,-977 374,-941 478,-941 478,-977"/>
<text text-anchor="middle" x="426" y="-955.3" font-family="Times New Roman,serif" font-size="14.00">Opa, pode falar</text>
</g>
<!-- j2219716465&#45;&gt;j1806846215 -->
<g id="edge4" class="edge">
<title>j2219716465&#45;&gt;j1806846215</title>
<path fill="none" stroke="black" d="M253.44,-1013.55C287,-1003.14 328.92,-990.13 363.04,-979.54"/>
<polygon fill="black" stroke="black" points="363.86,-982.95 372.37,-976.64 361.78,-976.26 363.86,-982.95"/>
</g>
<!-- j956317270 -->
<g id="node6" class="node">
<title>j956317270</title>
<polygon fill="none" stroke="red" points="887.5,-977 496.5,-977 496.5,-941 887.5,-941 887.5,-977"/>
<text text-anchor="middle" x="692" y="-955.3" font-family="Times New Roman,serif" font-size="14.00">Só pra avisar, eu não sou mais um dos seus animaizinhos não, viu?</text>
</g>
<!-- j2219716465&#45;&gt;j956317270 -->
<g id="edge5" class="edge">
<title>j2219716465&#45;&gt;j956317270</title>
<path fill="none" stroke="black" d="M313.92,-1014.66C388.12,-1003.93 483.46,-990.15 559.84,-979.11"/>
<polygon fill="black" stroke="black" points="560.07,-982.61 569.47,-977.72 559.07,-975.68 560.07,-982.61"/>
</g>
<!-- j1125233748 -->
<g id="node7" class="node">
<title>j1125233748</title>
<polygon fill="none" stroke="red" points="356,-977 0,-977 0,-941 356,-941 356,-977"/>
<text text-anchor="middle" x="178" y="-955.3" font-family="Times New Roman,serif" font-size="14.00">Vê se toma conta do que é seu e se vira [Encerrar Conversa]</text>
</g>
<!-- j2219716465&#45;&gt;j1125233748 -->
<g id="edge6" class="edge">
<title>j2219716465&#45;&gt;j1125233748</title>
<path fill="none" stroke="black" d="M189.96,-1013.83C188.26,-1006.16 186.23,-997.03 184.33,-988.5"/>
<polygon fill="black" stroke="black" points="187.78,-987.9 182.2,-978.9 180.95,-989.42 187.78,-987.9"/>
</g>
<!-- j1764945795&#45;&gt;j1806846215 -->
<g id="edge9" class="edge">
<title>j1764945795&#45;&gt;j1806846215</title>
<path fill="none" stroke="black" d="M440.21,-1013.83C438.18,-1006.16 435.77,-997.03 433.52,-988.5"/>
<polygon fill="black" stroke="black" points="436.92,-987.66 430.98,-978.88 430.15,-989.44 436.92,-987.66"/>
</g>
<!-- j1764945795&#45;&gt;j956317270 -->
<g id="edge8" class="edge">
<title>j1764945795&#45;&gt;j956317270</title>
<path fill="none" stroke="black" d="M508.29,-1013.55C542.87,-1003.47 585.8,-990.96 621.46,-980.56"/>
<polygon fill="black" stroke="black" points="622.2,-983.99 630.82,-977.83 620.24,-977.27 622.2,-983.99"/>
</g>
<!-- j1764945795&#45;&gt;j1125233748 -->
<g id="edge7" class="edge">
<title>j1764945795&#45;&gt;j1125233748</title>
<path fill="none" stroke="black" d="M376.59,-1013.55C338.88,-1003.38 292,-990.74 253.26,-980.29"/>
<polygon fill="black" stroke="black" points="254.59,-977.03 244.02,-977.8 252.76,-983.79 254.59,-977.03"/>
</g>
<!-- j669733144 -->
<g id="node8" class="node">
<title>j669733144</title>
<ellipse fill="none" stroke="orange" cx="393" cy="-877.5" rx="64.19" ry="18"/>
<text text-anchor="middle" x="393" y="-873.8" font-family="Times New Roman,serif" font-size="14.00">+10 Chemistry</text>
</g>
<!-- j1806846215&#45;&gt;j669733144 -->
<g id="edge10" class="edge">
<title>j1806846215&#45;&gt;j669733144</title>
<path fill="none" stroke="black" d="M418.84,-940.75C414.64,-930.64 409.25,-917.65 404.47,-906.14"/>
<polygon fill="black" stroke="black" points="407.79,-905.01 400.73,-897.11 401.33,-907.69 407.79,-905.01"/>
</g>
<!-- j2069804316 -->
<g id="node9" class="node">
<title>j2069804316</title>
<polygon fill="none" stroke="blue" points="885,-904 499,-904 499,-851 885,-851 885,-904"/>
<text text-anchor="middle" x="692" y="-888.8" font-family="Times New Roman,serif" font-size="14.00">Sí &#13;</text>
<text text-anchor="middle" x="692" y="-873.8" font-family="Times New Roman,serif" font-size="14.00">Mas eu aposto que consigo fazer você implorar pelo meu carinho &#13;</text>
<text text-anchor="middle" x="692" y="-858.8" font-family="Times New Roman,serif" font-size="14.00">Bah, você deve ser muito mole pra isso</text>
</g>
<!-- j956317270&#45;&gt;j2069804316 -->
<g id="edge11" class="edge">
<title>j956317270&#45;&gt;j2069804316</title>
<path fill="none" stroke="black" d="M692,-940.75C692,-933.38 692,-924.48 692,-915.74"/>
<polygon fill="black" stroke="black" points="695.5,-916 692,-906 688.5,-916 695.5,-916"/>
</g>
<!-- Chat ends. -->
<g id="node10" class="node">
<title>Chat ends.</title>
<ellipse fill="none" stroke="orange" cx="412" cy="-18" rx="50.09" ry="18"/>
<text text-anchor="middle" x="412" y="-14.3" font-family="Times New Roman,serif" font-size="14.00">Chat ends.</text>
</g>
<!-- j1125233748&#45;&gt;Chat ends. -->
<g id="edge12" class="edge">
<title>j1125233748&#45;&gt;Chat ends.</title>
<path fill="none" stroke="black" d="M196.52,-940.61C210.4,-925.63 227,-902.66 227,-878.5 227,-878.5 227,-878.5 227,-90 227,-61.92 302.23,-40.78 356.75,-29.15"/>
<polygon fill="black" stroke="black" points="357.12,-32.64 366.21,-27.19 355.7,-25.79 357.12,-32.64"/>
</g>
<!-- j3204936510 -->
<g id="node11" class="node">
<title>j3204936510</title>
<polygon fill="none" stroke="blue" points="407,-760 353,-760 353,-724 407,-724 407,-760"/>
<text text-anchor="middle" x="380" y="-738.3" font-family="Times New Roman,serif" font-size="14.00">Bueno</text>
</g>
<!-- j669733144&#45;&gt;j3204936510 -->
<g id="edge13" class="edge">
<title>j669733144&#45;&gt;j3204936510</title>
<path fill="none" stroke="black" d="M391.3,-859.05C389.14,-836.86 385.38,-798.25 382.8,-771.71"/>
<polygon fill="black" stroke="black" points="386.3,-771.58 381.85,-761.96 379.33,-772.26 386.3,-771.58"/>
</g>
<!-- j674223139 -->
<g id="node12" class="node">
<title>j674223139</title>
<polygon fill="none" stroke="red" points="907,-814 587,-814 587,-778 907,-778 907,-814"/>
<text text-anchor="middle" x="747" y="-792.3" font-family="Times New Roman,serif" font-size="14.00">Você tá… me ameaçando ou dando em cima de mim?</text>
</g>
<!-- j2069804316&#45;&gt;j674223139 -->
<g id="edge14" class="edge">
<title>j2069804316&#45;&gt;j674223139</title>
<path fill="none" stroke="black" d="M709.71,-850.91C715.73,-842.2 722.47,-832.45 728.55,-823.66"/>
<polygon fill="black" stroke="black" points="731.39,-825.72 734.2,-815.5 725.63,-821.73 731.39,-825.72"/>
</g>
<!-- j784060848 -->
<g id="node13" class="node">
<title>j784060848</title>
<polygon fill="none" stroke="red" points="569,-814 417,-814 417,-778 569,-778 569,-814"/>
<text text-anchor="middle" x="493" y="-792.3" font-family="Times New Roman,serif" font-size="14.00">Ah, essa eu quero ver…</text>
</g>
<!-- j2069804316&#45;&gt;j784060848 -->
<g id="edge15" class="edge">
<title>j2069804316&#45;&gt;j784060848</title>
<path fill="none" stroke="black" d="M627.12,-850.58C601.33,-840.28 572,-828.56 547.36,-818.71"/>
<polygon fill="black" stroke="black" points="548.74,-815.5 538.16,-815.04 546.14,-822 548.74,-815.5"/>
</g>
<!-- j3098536746 -->
<g id="node14" class="node">
<title>j3098536746</title>
<polygon fill="none" stroke="blue" points="721,-558 299,-558 299,-520 721,-520 721,-558"/>
<text text-anchor="middle" x="510" y="-542.8" font-family="Times New Roman,serif" font-size="14.00">Tenho muito trabalho pra fazer, não dá pra ficar por aí perdendo tempo &#13;</text>
<text text-anchor="middle" x="510" y="-527.8" font-family="Times New Roman,serif" font-size="14.00">Esses civis levam mais chumbo do que o Amir tem de computadores</text>
</g>
<!-- j3204936510&#45;&gt;j3098536746 -->
<g id="edge16" class="edge">
<title>j3204936510&#45;&gt;j3098536746</title>
<path fill="none" stroke="black" d="M376.46,-723.87C371.43,-694.57 365.59,-634.21 393,-595 402.46,-581.47 416.13,-571.18 430.82,-563.38"/>
<polygon fill="black" stroke="black" points="432.3,-566.55 439.76,-559.03 429.24,-560.26 432.3,-566.55"/>
</g>
<!-- j2852829660 -->
<g id="node15" class="node">
<title>j2852829660</title>
<ellipse fill="none" stroke="orange" cx="745" cy="-688" rx="64.19" ry="18"/>
<text text-anchor="middle" x="745" y="-684.3" font-family="Times New Roman,serif" font-size="14.00">+10 Chemistry</text>
</g>
<!-- j674223139&#45;&gt;j2852829660 -->
<g id="edge17" class="edge">
<title>j674223139&#45;&gt;j2852829660</title>
<path fill="none" stroke="black" d="M746.68,-777.97C746.37,-761.76 745.91,-737.06 745.54,-717.79"/>
<polygon fill="black" stroke="black" points="749.04,-717.79 745.36,-707.85 742.05,-717.92 749.04,-717.79"/>
</g>
<!-- j1712009832 -->
<g id="node16" class="node">
<title>j1712009832</title>
<ellipse fill="none" stroke="orange" cx="499" cy="-688" rx="64.19" ry="18"/>
<text text-anchor="middle" x="499" y="-684.3" font-family="Times New Roman,serif" font-size="14.00">+10 Chemistry</text>
</g>
<!-- j784060848&#45;&gt;j1712009832 -->
<g id="edge18" class="edge">
<title>j784060848&#45;&gt;j1712009832</title>
<path fill="none" stroke="black" d="M493.96,-777.97C494.88,-761.76 496.28,-737.06 497.37,-717.79"/>
<polygon fill="black" stroke="black" points="500.86,-718.03 497.93,-707.85 493.87,-717.64 500.86,-718.03"/>
</g>
<!-- j2666182784 -->
<g id="node17" class="node">
<title>j2666182784</title>
<polygon fill="none" stroke="blue" points="633.5,-483 380.5,-483 380.5,-400 633.5,-400 633.5,-483"/>
<text text-anchor="middle" x="507" y="-467.8" font-family="Times New Roman,serif" font-size="14.00">Dito isso, kits médicos &#13;</text>
<text text-anchor="middle" x="507" y="-452.8" font-family="Times New Roman,serif" font-size="14.00">Preciso de mais deles &#13;</text>
<text text-anchor="middle" x="507" y="-437.8" font-family="Times New Roman,serif" font-size="14.00">Se você achar ou comprar mais, tanto faz &#13;</text>
<text text-anchor="middle" x="507" y="-422.8" font-family="Times New Roman,serif" font-size="14.00">Consegue me arrumar alguns? &#13;</text>
<text text-anchor="middle" x="507" y="-407.8" font-family="Times New Roman,serif" font-size="14.00">Te lo agradecería mucho</text>
</g>
<!-- j3098536746&#45;&gt;j2666182784 -->
<g id="edge19" class="edge">
<title>j3098536746&#45;&gt;j2666182784</title>
<path fill="none" stroke="black" d="M509.42,-519.59C509.19,-512.35 508.92,-503.64 508.64,-494.72"/>
<polygon fill="black" stroke="black" points="512.14,-494.8 508.33,-484.91 505.15,-495.02 512.14,-494.8"/>
</g>
<!-- j148778757 -->
<g id="node18" class="node">
<title>j148778757</title>
<polygon fill="none" stroke="blue" points="843.5,-633 640.5,-633 640.5,-595 843.5,-595 843.5,-633"/>
<text text-anchor="middle" x="742" y="-617.8" font-family="Times New Roman,serif" font-size="14.00">E se for os 2? &#13;</text>
<text text-anchor="middle" x="742" y="-602.8" font-family="Times New Roman,serif" font-size="14.00">Mas não muda de assunto, babas</text>
</g>
<!-- j2852829660&#45;&gt;j148778757 -->
<g id="edge20" class="edge">
<title>j2852829660&#45;&gt;j148778757</title>
<path fill="none" stroke="black" d="M744.27,-669.57C743.96,-662.1 743.59,-653.17 743.24,-644.71"/>
<polygon fill="black" stroke="black" points="746.74,-644.63 742.82,-634.79 739.74,-644.92 746.74,-644.63"/>
</g>
<!-- j1560686513 -->
<g id="node19" class="node">
<title>j1560686513</title>
<polygon fill="none" stroke="blue" points="620,-633 402,-633 402,-595 620,-595 620,-633"/>
<text text-anchor="middle" x="511" y="-617.8" font-family="Times New Roman,serif" font-size="14.00">Cuidadito, babas, olha que eu tento &#13;</text>
<text text-anchor="middle" x="511" y="-602.8" font-family="Times New Roman,serif" font-size="14.00">Mas não muda de assunto</text>
</g>
<!-- j1712009832&#45;&gt;j1560686513 -->
<g id="edge21" class="edge">
<title>j1712009832&#45;&gt;j1560686513</title>
<path fill="none" stroke="black" d="M501.9,-669.57C503.16,-662.02 504.67,-652.96 506.1,-644.42"/>
<polygon fill="black" stroke="black" points="509.51,-645.21 507.71,-634.77 502.61,-644.05 509.51,-645.21"/>
</g>
<!-- j814642768 -->
<g id="node20" class="node">
<title>j814642768</title>
<polygon fill="none" stroke="red" points="570.5,-363 441.5,-363 441.5,-327 570.5,-327 570.5,-363"/>
<text text-anchor="middle" x="506" y="-341.3" font-family="Times New Roman,serif" font-size="14.00">Pode deixar comigo</text>
</g>
<!-- j2666182784&#45;&gt;j814642768 -->
<g id="edge22" class="edge">
<title>j2666182784&#45;&gt;j814642768</title>
<path fill="none" stroke="black" d="M506.57,-399.6C506.48,-391.22 506.39,-382.57 506.3,-374.73"/>
<polygon fill="black" stroke="black" points="509.8,-374.7 506.2,-364.74 502.8,-374.77 509.8,-374.7"/>
</g>
<!-- j3833186139 -->
<g id="node21" class="node">
<title>j3833186139</title>
<polygon fill="none" stroke="red" points="423.5,-363 256.5,-363 256.5,-327 423.5,-327 423.5,-363"/>
<text text-anchor="middle" x="340" y="-341.3" font-family="Times New Roman,serif" font-size="14.00">Tá, mas não prometo nada</text>
</g>
<!-- j2666182784&#45;&gt;j3833186139 -->
<g id="edge23" class="edge">
<title>j2666182784&#45;&gt;j3833186139</title>
<path fill="none" stroke="black" d="M434.72,-399.6C416.18,-389.11 396.89,-378.19 380.59,-368.97"/>
<polygon fill="black" stroke="black" points="382.6,-366.09 372.18,-364.21 379.16,-372.18 382.6,-366.09"/>
</g>
<!-- j2655753669 -->
<g id="node22" class="node">
<title>j2655753669</title>
<polygon fill="none" stroke="red" points="637.5,-309 554.5,-309 554.5,-273 637.5,-273 637.5,-309"/>
<text text-anchor="middle" x="596" y="-287.3" font-family="Times New Roman,serif" font-size="14.00">Não, se vira</text>
</g>
<!-- j2666182784&#45;&gt;j2655753669 -->
<g id="edge24" class="edge">
<title>j2666182784&#45;&gt;j2655753669</title>
<path fill="none" stroke="black" d="M552.85,-399.9C563.08,-388.83 572.97,-376.22 580,-363 586.97,-349.88 590.92,-333.84 593.14,-320.33"/>
<polygon fill="black" stroke="black" points="596.56,-321.12 594.48,-310.74 589.63,-320.16 596.56,-321.12"/>
</g>
<!-- j148778757&#45;&gt;j3098536746 -->
<g id="edge25" class="edge">
<title>j148778757&#45;&gt;j3098536746</title>
<path fill="none" stroke="black" d="M683.46,-594.58C651.72,-584.59 612.31,-572.19 579.08,-561.74"/>
<polygon fill="black" stroke="black" points="580.56,-558.53 569.97,-558.87 578.46,-565.21 580.56,-558.53"/>
</g>
<!-- j1560686513&#45;&gt;j3098536746 -->
<g id="edge26" class="edge">
<title>j1560686513&#45;&gt;j3098536746</title>
<path fill="none" stroke="black" d="M510.75,-594.58C510.64,-587.06 510.52,-578.17 510.41,-569.77"/>
<polygon fill="black" stroke="black" points="513.91,-569.88 510.27,-559.93 506.91,-569.98 513.91,-569.88"/>
</g>
<!-- j1350425999 -->
<g id="node23" class="node">
<title>j1350425999</title>
<ellipse fill="none" stroke="orange" cx="501" cy="-237" rx="64.19" ry="18"/>
<text text-anchor="middle" x="501" y="-233.3" font-family="Times New Roman,serif" font-size="14.00">+10 Chemistry</text>
</g>
<!-- j814642768&#45;&gt;j1350425999 -->
<g id="edge27" class="edge">
<title>j814642768&#45;&gt;j1350425999</title>
<path fill="none" stroke="black" d="M505.2,-326.97C504.43,-310.76 503.27,-286.06 502.36,-266.79"/>
<polygon fill="black" stroke="black" points="505.86,-266.68 501.89,-256.85 498.86,-267.01 505.86,-266.68"/>
</g>
<!-- j147192728 -->
<g id="node24" class="node">
<title>j147192728</title>
<ellipse fill="none" stroke="orange" cx="354" cy="-237" rx="64.19" ry="18"/>
<text text-anchor="middle" x="354" y="-233.3" font-family="Times New Roman,serif" font-size="14.00">+10 Chemistry</text>
</g>
<!-- j3833186139&#45;&gt;j147192728 -->
<g id="edge28" class="edge">
<title>j3833186139&#45;&gt;j147192728</title>
<path fill="none" stroke="black" d="M342.25,-326.97C344.4,-310.69 347.68,-285.82 350.23,-266.52"/>
<polygon fill="black" stroke="black" points="353.67,-267.21 351.51,-256.84 346.73,-266.3 353.67,-267.21"/>
</g>
<!-- j2655753669&#45;&gt;Chat ends. -->
<g id="edge29" class="edge">
<title>j2655753669&#45;&gt;Chat ends.</title>
<path fill="none" stroke="black" d="M595.07,-272.61C594.19,-254.68 593,-225.89 593,-201 593,-201 593,-201 593,-90 593,-62.58 520.12,-41.37 466.85,-29.53"/>
<polygon fill="black" stroke="black" points="467.81,-26.16 457.29,-27.47 466.33,-33 467.81,-26.16"/>
</g>
<!-- j2922128226 -->
<g id="node25" class="node">
<title>j2922128226</title>
<polygon fill="none" stroke="blue" points="502.5,-182 443.5,-182 443.5,-146 502.5,-146 502.5,-182"/>
<text text-anchor="middle" x="473" y="-160.3" font-family="Times New Roman,serif" font-size="14.00">Gracias</text>
</g>
<!-- j1350425999&#45;&gt;j2922128226 -->
<g id="edge30" class="edge">
<title>j1350425999&#45;&gt;j2922128226</title>
<path fill="none" stroke="black" d="M494.22,-218.81C491.13,-210.96 487.38,-201.47 483.91,-192.66"/>
<polygon fill="black" stroke="black" points="487.2,-191.46 480.27,-183.44 480.68,-194.02 487.2,-191.46"/>
</g>
<!-- j229484579 -->
<g id="node26" class="node">
<title>j229484579</title>
<polygon fill="none" stroke="blue" points="406,-182 324,-182 324,-146 406,-146 406,-182"/>
<text text-anchor="middle" x="365" y="-160.3" font-family="Times New Roman,serif" font-size="14.00">E nem deve</text>
</g>
<!-- j147192728&#45;&gt;j229484579 -->
<g id="edge31" class="edge">
<title>j147192728&#45;&gt;j229484579</title>
<path fill="none" stroke="black" d="M356.66,-218.81C357.85,-211.14 359.28,-201.89 360.62,-193.24"/>
<polygon fill="black" stroke="black" points="364.06,-193.94 362.13,-183.52 357.14,-192.87 364.06,-193.94"/>
</g>
<!-- j3889308430 -->
<g id="node27" class="node">
<title>j3889308430</title>
<ellipse fill="none" stroke="orange" cx="412" cy="-91" rx="149.47" ry="18"/>
<text text-anchor="middle" x="412" y="-87.3" font-family="Times New Roman,serif" font-size="14.00">Boolean LettieSmallFavor is now true.</text>
</g>
<!-- j2922128226&#45;&gt;j3889308430 -->
<g id="edge32" class="edge">
<title>j2922128226&#45;&gt;j3889308430</title>
<path fill="none" stroke="black" d="M458.23,-145.81C450.97,-137.35 442.06,-126.98 434.01,-117.61"/>
<polygon fill="black" stroke="black" points="436.79,-115.48 427.62,-110.18 431.48,-120.04 436.79,-115.48"/>
</g>
<!-- j229484579&#45;&gt;j3889308430 -->
<g id="edge33" class="edge">
<title>j229484579&#45;&gt;j3889308430</title>
<path fill="none" stroke="black" d="M376.38,-145.81C381.8,-137.62 388.42,-127.62 394.47,-118.48"/>
<polygon fill="black" stroke="black" points="397.29,-120.56 399.89,-110.29 391.45,-116.7 397.29,-120.56"/>
</g>
<!-- j3889308430&#45;&gt;Chat ends. -->
<g id="edge34" class="edge">
<title>j3889308430&#45;&gt;Chat ends.</title>
<path fill="none" stroke="black" d="M412,-72.81C412,-65.23 412,-56.1 412,-47.54"/>
<polygon fill="black" stroke="black" points="415.5,-47.54 412,-37.54 408.5,-47.54 415.5,-47.54"/>
</g>
</g>
</svg>
