<?xml version="1.0" encoding="UTF-8" standalone="no"?>
<!DOCTYPE svg PUBLIC "-//W3C//DTD SVG 1.1//EN"
 "http://www.w3.org/Graphics/SVG/1.1/DTD/svg11.dtd">
<!-- Generated by graphviz version 7.1.0 (20230121.1956)
 -->
<!-- Pages: 1 -->
<svg width="1008pt" height="847pt"
 viewBox="0.00 0.00 1007.50 847.00" xmlns="http://www.w3.org/2000/svg" xmlns:xlink="http://www.w3.org/1999/xlink">
<g id="graph0" class="graph" transform="scale(1 1) rotate(0) translate(4 843)">
<polygon fill="white" stroke="none" points="-4,4 -4,-843 1003.5,-843 1003.5,4 -4,4"/>
<!-- LettieAmirHack begins. -->
<g id="node1" class="node">
<title>LettieAmirHack begins.</title>
<ellipse fill="none" stroke="orange" cx="536" cy="-821" rx="96.38" ry="18"/>
<text text-anchor="middle" x="536" y="-817.3" font-family="Times New Roman,serif" font-size="14.00">LettieAmirHack begins.</text>
</g>
<!-- j2316161106 -->
<g id="node2" class="node">
<title>j2316161106</title>
<polygon fill="none" stroke="blue" points="673.5,-767 398.5,-767 398.5,-731 673.5,-731 673.5,-767"/>
<text text-anchor="middle" x="536" y="-745.3" font-family="Times New Roman,serif" font-size="14.00">VOY A MATAR A ESE PINCHE MOCOSO</text>
</g>
<!-- LettieAmirHack begins.&#45;&gt;j2316161106 -->
<g id="edge1" class="edge">
<title>LettieAmirHack begins.&#45;&gt;j2316161106</title>
<path fill="none" stroke="black" d="M536,-802.7C536,-795.41 536,-786.73 536,-778.54"/>
<polygon fill="black" stroke="black" points="539.5,-778.62 536,-768.62 532.5,-778.62 539.5,-778.62"/>
</g>
<!-- j634166796 -->
<g id="node3" class="node">
<title>j634166796</title>
<polygon fill="none" stroke="red" points="553,-695 287,-695 287,-659 553,-659 553,-695"/>
<text text-anchor="middle" x="420" y="-673.3" font-family="Times New Roman,serif" font-size="14.00">Tenho a leve impressão que você tá brava…</text>
</g>
<!-- j2316161106&#45;&gt;j634166796 -->
<g id="edge2" class="edge">
<title>j2316161106&#45;&gt;j634166796</title>
<path fill="none" stroke="black" d="M507.03,-730.52C492.25,-721.6 474.07,-710.63 458.17,-701.03"/>
<polygon fill="black" stroke="black" points="460.27,-698.21 449.9,-696.04 456.65,-704.21 460.27,-698.21"/>
</g>
<!-- j313579746 -->
<g id="node4" class="node">
<title>j313579746</title>
<polygon fill="none" stroke="red" points="734.5,-695 571.5,-695 571.5,-659 734.5,-659 734.5,-695"/>
<text text-anchor="middle" x="653" y="-673.3" font-family="Times New Roman,serif" font-size="14.00">Eita… acabou o café, foi?</text>
</g>
<!-- j2316161106&#45;&gt;j313579746 -->
<g id="edge3" class="edge">
<title>j2316161106&#45;&gt;j313579746</title>
<path fill="none" stroke="black" d="M565.22,-730.52C580.13,-721.6 598.46,-710.63 614.51,-701.03"/>
<polygon fill="black" stroke="black" points="616.07,-704.18 622.85,-696.04 612.47,-698.17 616.07,-704.18"/>
</g>
<!-- j2470549640 -->
<g id="node5" class="node">
<title>j2470549640</title>
<polygon fill="none" stroke="blue" points="717,-623 355,-623 355,-540 717,-540 717,-623"/>
<text text-anchor="middle" x="536" y="-607.8" font-family="Times New Roman,serif" font-size="14.00">O QUE DIABOS EU VOU FAZER &#13;</text>
<text text-anchor="middle" x="536" y="-592.8" font-family="Times New Roman,serif" font-size="14.00">COM 500 CAIXAS DE SAQUINHOS DE KETCHUP?! &#13;</text>
<text text-anchor="middle" x="536" y="-577.8" font-family="Times New Roman,serif" font-size="14.00">DILE A ESE NIÑO QUE VENGA AQUÍ AHORA MISMO! &#13;</text>
<text text-anchor="middle" x="536" y="-562.8" font-family="Times New Roman,serif" font-size="14.00">ELE É QUE VAI FICAR COM ISSO &#13;</text>
<text text-anchor="middle" x="536" y="-547.8" font-family="Times New Roman,serif" font-size="14.00">AGORA!!</text>
</g>
<!-- j634166796&#45;&gt;j2470549640 -->
<g id="edge4" class="edge">
<title>j634166796&#45;&gt;j2470549640</title>
<path fill="none" stroke="black" d="M441.55,-658.63C451.56,-650.57 464,-640.54 476.53,-630.43"/>
<polygon fill="black" stroke="black" points="478.43,-633.4 484.02,-624.4 474.04,-627.95 478.43,-633.4"/>
</g>
<!-- j313579746&#45;&gt;j2470549640 -->
<g id="edge5" class="edge">
<title>j313579746&#45;&gt;j2470549640</title>
<path fill="none" stroke="black" d="M631.27,-658.63C621.17,-650.57 608.62,-640.54 595.98,-630.43"/>
<polygon fill="black" stroke="black" points="598.42,-627.9 588.42,-624.39 594.05,-633.37 598.42,-627.9"/>
</g>
<!-- j412644345 -->
<g id="node6" class="node">
<title>j412644345</title>
<polygon fill="none" stroke="red" points="564,-504 0,-504 0,-468 564,-468 564,-504"/>
<text text-anchor="middle" x="282" y="-482.3" font-family="Times New Roman,serif" font-size="14.00">Acho que foi um engano, o Amir tava tentando te enviar manteiga de amendoim pros seus ratos…</text>
</g>
<!-- j2470549640&#45;&gt;j412644345 -->
<g id="edge6" class="edge">
<title>j2470549640&#45;&gt;j412644345</title>
<path fill="none" stroke="black" d="M424.96,-539.63C395.64,-528.83 365.17,-517.62 339.93,-508.33"/>
<polygon fill="black" stroke="black" points="341.47,-505.16 330.87,-504.99 339.05,-511.73 341.47,-505.16"/>
</g>
<!-- j3626473121 -->
<g id="node7" class="node">
<title>j3626473121</title>
<polygon fill="none" stroke="red" points="999.5,-504 582.5,-504 582.5,-468 999.5,-468 999.5,-504"/>
<text text-anchor="middle" x="791" y="-482.3" font-family="Times New Roman,serif" font-size="14.00">Não não, você não entendeu, Ele só tava tentando te enviar um presente</text>
</g>
<!-- j2470549640&#45;&gt;j3626473121 -->
<g id="edge7" class="edge">
<title>j2470549640&#45;&gt;j3626473121</title>
<path fill="none" stroke="black" d="M647.48,-539.63C676.91,-528.83 707.5,-517.62 732.84,-508.33"/>
<polygon fill="black" stroke="black" points="733.75,-511.72 741.94,-504.99 731.34,-505.15 733.75,-511.72"/>
</g>
<!-- j4053897679 -->
<g id="node8" class="node">
<title>j4053897679</title>
<polygon fill="none" stroke="red" points="612,-432 254,-432 254,-396 612,-396 612,-432"/>
<text text-anchor="middle" x="433" y="-410.3" font-family="Times New Roman,serif" font-size="14.00">Mas parece que deu merda… deixa que eu te ajudo com isso</text>
</g>
<!-- j412644345&#45;&gt;j4053897679 -->
<g id="edge8" class="edge">
<title>j412644345&#45;&gt;j4053897679</title>
<path fill="none" stroke="black" d="M319.71,-467.52C339.52,-458.34 363.99,-446.99 385.12,-437.2"/>
<polygon fill="black" stroke="black" points="386.53,-440.4 394.13,-433.02 383.59,-434.05 386.53,-440.4"/>
</g>
<!-- j578292495 -->
<g id="node9" class="node">
<title>j578292495</title>
<polygon fill="none" stroke="blue" points="704.5,-360 551.5,-360 551.5,-307 704.5,-307 704.5,-360"/>
<text text-anchor="middle" x="628" y="-344.8" font-family="Times New Roman,serif" font-size="14.00">EU NÃO LIGO &#13;</text>
<text text-anchor="middle" x="628" y="-329.8" font-family="Times New Roman,serif" font-size="14.00">SÁCALAS DE AQUÍ!! &#13;</text>
<text text-anchor="middle" x="628" y="-314.8" font-family="Times New Roman,serif" font-size="14.00">AHORA!!</text>
</g>
<!-- j3626473121&#45;&gt;j578292495 -->
<g id="edge9" class="edge">
<title>j3626473121&#45;&gt;j578292495</title>
<path fill="none" stroke="black" d="M772.3,-467.74C746.01,-443.46 697.61,-398.77 664.16,-367.88"/>
<polygon fill="black" stroke="black" points="666.83,-365.59 657.11,-361.37 662.08,-370.73 666.83,-365.59"/>
</g>
<!-- j105487200 -->
<g id="node10" class="node">
<title>j105487200</title>
<ellipse fill="none" stroke="orange" cx="457" cy="-333.5" rx="64.19" ry="18"/>
<text text-anchor="middle" x="457" y="-329.8" font-family="Times New Roman,serif" font-size="14.00">+20 Chemistry</text>
</g>
<!-- j4053897679&#45;&gt;j105487200 -->
<g id="edge10" class="edge">
<title>j4053897679&#45;&gt;j105487200</title>
<path fill="none" stroke="black" d="M438.33,-395.58C441.28,-385.92 445.02,-373.68 448.38,-362.7"/>
<polygon fill="black" stroke="black" points="451.67,-363.91 451.25,-353.32 444.98,-361.86 451.67,-363.91"/>
</g>
<!-- Initiate conversation AmirHack3 in JabirDialogue_rom.dialogue -->
<g id="node11" class="node">
<title>Initiate conversation AmirHack3 in JabirDialogue_rom.dialogue</title>
<ellipse fill="none" stroke="orange" cx="546" cy="-90" rx="239.36" ry="18"/>
<text text-anchor="middle" x="546" y="-86.3" font-family="Times New Roman,serif" font-size="14.00">Initiate conversation AmirHack3 in JabirDialogue_rom.dialogue</text>
</g>
<!-- j578292495&#45;&gt;Initiate conversation AmirHack3 in JabirDialogue_rom.dialogue -->
<g id="edge11" class="edge">
<title>j578292495&#45;&gt;Initiate conversation AmirHack3 in JabirDialogue_rom.dialogue</title>
<path fill="none" stroke="black" d="M621.51,-306.79C611.98,-270.13 592.91,-200.96 571,-144 567.79,-135.64 563.83,-126.77 560.02,-118.72"/>
<polygon fill="black" stroke="black" points="563.17,-117.21 555.66,-109.75 556.88,-120.27 563.17,-117.21"/>
</g>
<!-- j1863913507 -->
<g id="node12" class="node">
<title>j1863913507</title>
<polygon fill="none" stroke="blue" points="567.5,-271 384.5,-271 384.5,-233 567.5,-233 567.5,-271"/>
<text text-anchor="middle" x="476" y="-255.8" font-family="Times New Roman,serif" font-size="14.00">Sí? &#13;</text>
<text text-anchor="middle" x="476" y="-240.8" font-family="Times New Roman,serif" font-size="14.00">Isso era pra mis panquecitos?</text>
</g>
<!-- j105487200&#45;&gt;j1863913507 -->
<g id="edge12" class="edge">
<title>j105487200&#45;&gt;j1863913507</title>
<path fill="none" stroke="black" d="M461.12,-315.25C463.42,-305.62 466.35,-293.37 469,-282.29"/>
<polygon fill="black" stroke="black" points="472.35,-283.33 471.27,-272.8 465.54,-281.71 472.35,-283.33"/>
</g>
<!-- Chat ends. -->
<g id="node13" class="node">
<title>Chat ends.</title>
<ellipse fill="none" stroke="orange" cx="546" cy="-18" rx="50.09" ry="18"/>
<text text-anchor="middle" x="546" y="-14.3" font-family="Times New Roman,serif" font-size="14.00">Chat ends.</text>
</g>
<!-- Initiate conversation AmirHack3 in JabirDialogue_rom.dialogue&#45;&gt;Chat ends. -->
<g id="edge13" class="edge">
<title>Initiate conversation AmirHack3 in JabirDialogue_rom.dialogue&#45;&gt;Chat ends.</title>
<path fill="none" stroke="black" d="M546,-71.7C546,-64.41 546,-55.73 546,-47.54"/>
<polygon fill="black" stroke="black" points="549.5,-47.62 546,-37.62 542.5,-47.62 549.5,-47.62"/>
</g>
<!-- j3340051274 -->
<g id="node14" class="node">
<title>j3340051274</title>
<polygon fill="none" stroke="blue" points="562,-197 444,-197 444,-144 562,-144 562,-197"/>
<text text-anchor="middle" x="503" y="-181.8" font-family="Times New Roman,serif" font-size="14.00">Ay, caramba! &#13;</text>
<text text-anchor="middle" x="503" y="-166.8" font-family="Times New Roman,serif" font-size="14.00">Só tira isso daqui &#13;</text>
<text text-anchor="middle" x="503" y="-151.8" font-family="Times New Roman,serif" font-size="14.00">AHORA!!</text>
</g>
<!-- j1863913507&#45;&gt;j3340051274 -->
<g id="edge14" class="edge">
<title>j1863913507&#45;&gt;j3340051274</title>
<path fill="none" stroke="black" d="M482.26,-232.56C484.73,-225.29 487.66,-216.67 490.53,-208.23"/>
<polygon fill="black" stroke="black" points="493.83,-209.39 493.73,-198.8 487.2,-207.14 493.83,-209.39"/>
</g>
<!-- j3340051274&#45;&gt;Initiate conversation AmirHack3 in JabirDialogue_rom.dialogue -->
<g id="edge15" class="edge">
<title>j3340051274&#45;&gt;Initiate conversation AmirHack3 in JabirDialogue_rom.dialogue</title>
<path fill="none" stroke="black" d="M517.08,-143.8C521.56,-135.62 526.52,-126.55 531.06,-118.27"/>
<polygon fill="black" stroke="black" points="534.05,-120.11 535.78,-109.66 527.91,-116.75 534.05,-120.11"/>
</g>
</g>
</svg>
