<?xml version="1.0" encoding="UTF-8" standalone="no"?>
<!DOCTYPE svg PUBLIC "-//W3C//DTD SVG 1.1//EN"
 "http://www.w3.org/Graphics/SVG/1.1/DTD/svg11.dtd">
<!-- Generated by graphviz version 7.1.0 (20230121.1956)
 -->
<!-- Pages: 1 -->
<svg width="2491pt" height="1916pt"
 viewBox="0.00 0.00 2491.00 1916.00" xmlns="http://www.w3.org/2000/svg" xmlns:xlink="http://www.w3.org/1999/xlink">
<g id="graph0" class="graph" transform="scale(1 1) rotate(0) translate(4 1912)">
<polygon fill="white" stroke="none" points="-4,4 -4,-1912 2487,-1912 2487,4 -4,4"/>
<!-- EleanorRank3Convo6 begins. -->
<g id="node1" class="node">
<title>EleanorRank3Convo6 begins.</title>
<ellipse fill="none" stroke="orange" cx="1687" cy="-1890" rx="118.88" ry="18"/>
<text text-anchor="middle" x="1687" y="-1886.3" font-family="Times New Roman,serif" font-size="14.00">EleanorRank3Convo6 begins.</text>
</g>
<!-- j1188890220 -->
<g id="node2" class="node">
<title>j1188890220</title>
<polygon fill="none" stroke="blue" points="1913,-1836 1461,-1836 1461,-1800 1913,-1800 1913,-1836"/>
<text text-anchor="middle" x="1687" y="-1814.3" font-family="Times New Roman,serif" font-size="14.00">¿Sabes qué era lo mejor de Höllvania antes de que la Scaldra tomara el poder?</text>
</g>
<!-- EleanorRank3Convo6 begins.&#45;&gt;j1188890220 -->
<g id="edge1" class="edge">
<title>EleanorRank3Convo6 begins.&#45;&gt;j1188890220</title>
<path fill="none" stroke="black" d="M1687,-1871.7C1687,-1864.41 1687,-1855.73 1687,-1847.54"/>
<polygon fill="black" stroke="black" points="1690.5,-1847.62 1687,-1837.62 1683.5,-1847.62 1690.5,-1847.62"/>
</g>
<!-- j496870235 -->
<g id="node3" class="node">
<title>j496870235</title>
<polygon fill="none" stroke="red" points="635,-1764 513,-1764 513,-1728 635,-1728 635,-1764"/>
<text text-anchor="middle" x="574" y="-1742.3" font-family="Times New Roman,serif" font-size="14.00">¿La vida nocturna?</text>
</g>
<!-- j1188890220&#45;&gt;j496870235 -->
<g id="edge2" class="edge">
<title>j1188890220&#45;&gt;j496870235</title>
<path fill="none" stroke="black" d="M1460.76,-1802.77C1206.78,-1786.8 808.99,-1761.78 646.66,-1751.57"/>
<polygon fill="black" stroke="black" points="647.09,-1748.09 636.89,-1750.96 646.65,-1755.08 647.09,-1748.09"/>
</g>
<!-- j1795410813 -->
<g id="node4" class="node">
<title>j1795410813</title>
<polygon fill="none" stroke="red" points="1364.5,-1764 1161.5,-1764 1161.5,-1728 1364.5,-1728 1364.5,-1764"/>
<text text-anchor="middle" x="1263" y="-1742.3" font-family="Times New Roman,serif" font-size="14.00">¿El circuito de lucha clandestino?</text>
</g>
<!-- j1188890220&#45;&gt;j1795410813 -->
<g id="edge3" class="edge">
<title>j1188890220&#45;&gt;j1795410813</title>
<path fill="none" stroke="black" d="M1581.1,-1799.52C1518.74,-1789.22 1439.88,-1776.2 1376.28,-1765.7"/>
<polygon fill="black" stroke="black" points="1376.92,-1762.26 1366.49,-1764.09 1375.78,-1769.17 1376.92,-1762.26"/>
</g>
<!-- j1893232398 -->
<g id="node5" class="node">
<title>j1893232398</title>
<polygon fill="none" stroke="red" points="1737.5,-1764 1636.5,-1764 1636.5,-1728 1737.5,-1728 1737.5,-1764"/>
<text text-anchor="middle" x="1687" y="-1742.3" font-family="Times New Roman,serif" font-size="14.00">¿Las compras?</text>
</g>
<!-- j1188890220&#45;&gt;j1893232398 -->
<g id="edge4" class="edge">
<title>j1188890220&#45;&gt;j1893232398</title>
<path fill="none" stroke="black" d="M1687,-1799.7C1687,-1792.41 1687,-1783.73 1687,-1775.54"/>
<polygon fill="black" stroke="black" points="1690.5,-1775.62 1687,-1765.62 1683.5,-1775.62 1690.5,-1775.62"/>
</g>
<!-- j3188484422 -->
<g id="node6" class="node">
<title>j3188484422</title>
<polygon fill="none" stroke="red" points="2058.5,-1764 1999.5,-1764 1999.5,-1728 2058.5,-1728 2058.5,-1764"/>
<text text-anchor="middle" x="2029" y="-1742.3" font-family="Times New Roman,serif" font-size="14.00">Ni idea.</text>
</g>
<!-- j1188890220&#45;&gt;j3188484422 -->
<g id="edge5" class="edge">
<title>j1188890220&#45;&gt;j3188484422</title>
<path fill="none" stroke="black" d="M1772.42,-1799.52C1841.36,-1785.41 1935.29,-1766.18 1988.28,-1755.33"/>
<polygon fill="black" stroke="black" points="1988.68,-1758.83 1997.77,-1753.39 1987.27,-1751.97 1988.68,-1758.83"/>
</g>
<!-- j2558849433 -->
<g id="node7" class="node">
<title>j2558849433</title>
<polygon fill="none" stroke="red" points="2370,-1764 2232,-1764 2232,-1728 2370,-1728 2370,-1764"/>
<text text-anchor="middle" x="2301" y="-1742.3" font-family="Times New Roman,serif" font-size="14.00">No me interesa. [Fin.]</text>
</g>
<!-- j1188890220&#45;&gt;j2558849433 -->
<g id="edge6" class="edge">
<title>j1188890220&#45;&gt;j2558849433</title>
<path fill="none" stroke="black" d="M1840.35,-1799.52C1960.84,-1785.78 2123.87,-1767.19 2220.19,-1756.21"/>
<polygon fill="black" stroke="black" points="2220.55,-1759.69 2230.09,-1755.08 2219.76,-1752.74 2220.55,-1759.69"/>
</g>
<!-- j1787214969 -->
<g id="node8" class="node">
<title>j1787214969</title>
<polygon fill="none" stroke="blue" points="638,-1692 0,-1692 0,-1656 638,-1656 638,-1692"/>
<text text-anchor="middle" x="319" y="-1670.3" font-family="Times New Roman,serif" font-size="14.00">Dios mío. ¿Personas quirúrgicamente bellas llenándose sus inmaculados rostros de drogas experimentales? No.</text>
</g>
<!-- j496870235&#45;&gt;j1787214969 -->
<g id="edge7" class="edge">
<title>j496870235&#45;&gt;j1787214969</title>
<path fill="none" stroke="black" d="M512.6,-1728.14C476.78,-1718.31 431.35,-1705.84 393.5,-1695.45"/>
<polygon fill="black" stroke="black" points="394.56,-1692.11 383.99,-1692.84 392.71,-1698.86 394.56,-1692.11"/>
</g>
<!-- j2618971297 -->
<g id="node9" class="node">
<title>j2618971297</title>
<polygon fill="none" stroke="blue" points="1254,-1692 656,-1692 656,-1656 1254,-1656 1254,-1692"/>
<text text-anchor="middle" x="955" y="-1670.3" font-family="Times New Roman,serif" font-size="14.00">Mira, no tengo nada en contra de ver a un par de tipos sudorosos pelearse entre sí, con fuerza. Pero no.</text>
</g>
<!-- j1795410813&#45;&gt;j2618971297 -->
<g id="edge8" class="edge">
<title>j1795410813&#45;&gt;j2618971297</title>
<path fill="none" stroke="black" d="M1186.07,-1727.52C1142.53,-1717.62 1087.92,-1705.21 1042.72,-1694.94"/>
<polygon fill="black" stroke="black" points="1043.75,-1691.58 1033.22,-1692.78 1042.2,-1698.41 1043.75,-1691.58"/>
</g>
<!-- j2547110546 -->
<g id="node10" class="node">
<title>j2547110546</title>
<polygon fill="none" stroke="blue" points="2102,-1692 1272,-1692 1272,-1656 2102,-1656 2102,-1692"/>
<text text-anchor="middle" x="1687" y="-1670.3" font-family="Times New Roman,serif" font-size="14.00">Buena suposición. Podrías conseguir cualquier cosa, desde un bolso y unos guantes Bresslin hasta un globo ocular humano sobre hielo. Pero no.</text>
</g>
<!-- j1893232398&#45;&gt;j2547110546 -->
<g id="edge9" class="edge">
<title>j1893232398&#45;&gt;j2547110546</title>
<path fill="none" stroke="black" d="M1687,-1727.7C1687,-1720.41 1687,-1711.73 1687,-1703.54"/>
<polygon fill="black" stroke="black" points="1690.5,-1703.62 1687,-1693.62 1683.5,-1703.62 1690.5,-1703.62"/>
</g>
<!-- j1190896454 -->
<g id="node11" class="node">
<title>j1190896454</title>
<polygon fill="none" stroke="blue" points="2428,-1692 2120,-1692 2120,-1656 2428,-1656 2428,-1692"/>
<text text-anchor="middle" x="2274" y="-1670.3" font-family="Times New Roman,serif" font-size="14.00">Bueno, claro que no tienes ni idea. Acabas de llegar.</text>
</g>
<!-- j3188484422&#45;&gt;j1190896454 -->
<g id="edge10" class="edge">
<title>j3188484422&#45;&gt;j1190896454</title>
<path fill="none" stroke="black" d="M2058.55,-1736.56C2093.86,-1726.47 2154.15,-1709.24 2201.99,-1695.58"/>
<polygon fill="black" stroke="black" points="2202.81,-1698.98 2211.46,-1692.87 2200.89,-1692.25 2202.81,-1698.98"/>
</g>
<!-- j90890061 -->
<g id="node12" class="node">
<title>j90890061</title>
<polygon fill="none" stroke="blue" points="2483,-1620 2429,-1620 2429,-1584 2483,-1584 2483,-1620"/>
<text text-anchor="middle" x="2456" y="-1598.3" font-family="Times New Roman,serif" font-size="14.00">Buuu.</text>
</g>
<!-- j2558849433&#45;&gt;j90890061 -->
<g id="edge11" class="edge">
<title>j2558849433&#45;&gt;j90890061</title>
<path fill="none" stroke="black" d="M2370.2,-1732.25C2394.53,-1724.47 2420.01,-1711.98 2437,-1692 2451.17,-1675.33 2455.57,-1650.66 2456.63,-1631.51"/>
<polygon fill="black" stroke="black" points="2460.12,-1631.75 2456.87,-1621.66 2453.12,-1631.58 2460.12,-1631.75"/>
</g>
<!-- j750541717 -->
<g id="node13" class="node">
<title>j750541717</title>
<polygon fill="none" stroke="blue" points="1093.5,-1620 958.5,-1620 958.5,-1584 1093.5,-1584 1093.5,-1620"/>
<text text-anchor="middle" x="1026" y="-1598.3" font-family="Times New Roman,serif" font-size="14.00">¡Las casas de baños!</text>
</g>
<!-- j1787214969&#45;&gt;j750541717 -->
<g id="edge12" class="edge">
<title>j1787214969&#45;&gt;j750541717</title>
<path fill="none" stroke="black" d="M495.58,-1655.52C640.36,-1641.18 838.47,-1621.57 946.98,-1610.82"/>
<polygon fill="black" stroke="black" points="947.04,-1614.33 956.65,-1609.87 946.35,-1607.37 947.04,-1614.33"/>
</g>
<!-- j2618971297&#45;&gt;j750541717 -->
<g id="edge13" class="edge">
<title>j2618971297&#45;&gt;j750541717</title>
<path fill="none" stroke="black" d="M972.55,-1655.7C980.98,-1647.39 991.23,-1637.28 1000.5,-1628.14"/>
<polygon fill="black" stroke="black" points="1002.91,-1630.68 1007.57,-1621.17 998,-1625.7 1002.91,-1630.68"/>
</g>
<!-- j2547110546&#45;&gt;j750541717 -->
<g id="edge14" class="edge">
<title>j2547110546&#45;&gt;j750541717</title>
<path fill="none" stroke="black" d="M1521.91,-1655.52C1388.85,-1641.43 1207.61,-1622.23 1105.12,-1611.38"/>
<polygon fill="black" stroke="black" points="1105.76,-1607.93 1095.44,-1610.35 1105.02,-1614.89 1105.76,-1607.93"/>
</g>
<!-- j1190896454&#45;&gt;j750541717 -->
<g id="edge15" class="edge">
<title>j1190896454&#45;&gt;j750541717</title>
<path fill="none" stroke="black" d="M2119.59,-1656.68C2116.7,-1656.44 2113.84,-1656.22 2111,-1656 1734.94,-1627.23 1284.3,-1611.06 1105.1,-1605.37"/>
<polygon fill="black" stroke="black" points="1105.31,-1601.87 1095.2,-1605.06 1105.09,-1608.87 1105.31,-1601.87"/>
</g>
<!-- Chat ends. -->
<g id="node14" class="node">
<title>Chat ends.</title>
<ellipse fill="none" stroke="orange" cx="1549" cy="-18" rx="50.09" ry="18"/>
<text text-anchor="middle" x="1549" y="-14.3" font-family="Times New Roman,serif" font-size="14.00">Chat ends.</text>
</g>
<!-- j90890061&#45;&gt;Chat ends. -->
<g id="edge16" class="edge">
<title>j90890061&#45;&gt;Chat ends.</title>
<path fill="none" stroke="black" d="M2456,-1583.51C2456,-1556.71 2456,-1503.87 2456,-1459 2456,-1459 2456,-1459 2456,-161 2456,-40.96 2318.44,-96.84 2201,-72 1987.56,-26.85 1727.31,-19.62 1610.69,-18.82"/>
<polygon fill="black" stroke="black" points="1611.05,-15.32 1601.04,-18.77 1611.02,-22.32 1611.05,-15.32"/>
</g>
<!-- j2292957206 -->
<g id="node15" class="node">
<title>j2292957206</title>
<polygon fill="none" stroke="blue" points="1787.5,-1548 264.5,-1548 264.5,-1512 1787.5,-1512 1787.5,-1548"/>
<text text-anchor="middle" x="1026" y="-1526.3" font-family="Times New Roman,serif" font-size="14.00">No sé si tienen algo parecido donde vives. Supongo que son templos, normalmente con un conjunto de habitaciones Sol y un conjunto Lua. Puedes sumergirte en una piscina pública o privada. Todo huele a hierbas y vapor y son MUY BUENOS para recuperar la calma.</text>
</g>
<!-- j750541717&#45;&gt;j2292957206 -->
<g id="edge17" class="edge">
<title>j750541717&#45;&gt;j2292957206</title>
<path fill="none" stroke="black" d="M1026,-1583.7C1026,-1576.41 1026,-1567.73 1026,-1559.54"/>
<polygon fill="black" stroke="black" points="1029.5,-1559.62 1026,-1549.62 1022.5,-1559.62 1029.5,-1559.62"/>
</g>
<!-- j2049516613 -->
<g id="node16" class="node">
<title>j2049516613</title>
<polygon fill="none" stroke="blue" points="1496.5,-1476 555.5,-1476 555.5,-1440 1496.5,-1440 1496.5,-1476"/>
<text text-anchor="middle" x="1026" y="-1454.3" font-family="Times New Roman,serif" font-size="14.00">En Höllvania siempre ha existido una tradición muy importante de limpieza ritual. Supongo que se remonta a las fuentes termales sobre las que se construyó la ciudad.</text>
</g>
<!-- j2292957206&#45;&gt;j2049516613 -->
<g id="edge18" class="edge">
<title>j2292957206&#45;&gt;j2049516613</title>
<path fill="none" stroke="black" d="M1026,-1511.7C1026,-1504.41 1026,-1495.73 1026,-1487.54"/>
<polygon fill="black" stroke="black" points="1029.5,-1487.62 1026,-1477.62 1022.5,-1487.62 1029.5,-1487.62"/>
</g>
<!-- j2160753997 -->
<g id="node17" class="node">
<title>j2160753997</title>
<polygon fill="none" stroke="blue" points="1430.5,-1404 621.5,-1404 621.5,-1368 1430.5,-1368 1430.5,-1404"/>
<text text-anchor="middle" x="1026" y="-1382.3" font-family="Times New Roman,serif" font-size="14.00">¿Todas esas tonterías sobre la &quot;pureza&quot; que dice Viktor? Está cantando una melodía muy antigua. Todos los ciudadanos están familiarizados.</text>
</g>
<!-- j2049516613&#45;&gt;j2160753997 -->
<g id="edge19" class="edge">
<title>j2049516613&#45;&gt;j2160753997</title>
<path fill="none" stroke="black" d="M1026,-1439.7C1026,-1432.41 1026,-1423.73 1026,-1415.54"/>
<polygon fill="black" stroke="black" points="1029.5,-1415.62 1026,-1405.62 1022.5,-1415.62 1029.5,-1415.62"/>
</g>
<!-- j2585750559 -->
<g id="node18" class="node">
<title>j2585750559</title>
<polygon fill="none" stroke="blue" points="1488,-1332 564,-1332 564,-1296 1488,-1296 1488,-1332"/>
<text text-anchor="middle" x="1026" y="-1310.3" font-family="Times New Roman,serif" font-size="14.00">Me encantaba pagar los höllars adicionales para que un profesional musculoso me quitara toda la tensión de los músculos. A ti te hubiera encantado. Estoy segura.</text>
</g>
<!-- j2160753997&#45;&gt;j2585750559 -->
<g id="edge20" class="edge">
<title>j2160753997&#45;&gt;j2585750559</title>
<path fill="none" stroke="black" d="M1026,-1367.7C1026,-1360.41 1026,-1351.73 1026,-1343.54"/>
<polygon fill="black" stroke="black" points="1029.5,-1343.62 1026,-1333.62 1022.5,-1343.62 1029.5,-1343.62"/>
</g>
<!-- j3338543038 -->
<g id="node19" class="node">
<title>j3338543038</title>
<polygon fill="none" stroke="red" points="733,-1260 665,-1260 665,-1224 733,-1224 733,-1260"/>
<text text-anchor="middle" x="699" y="-1238.3" font-family="Times New Roman,serif" font-size="14.00">No lo sé.</text>
</g>
<!-- j2585750559&#45;&gt;j3338543038 -->
<g id="edge21" class="edge">
<title>j2585750559&#45;&gt;j3338543038</title>
<path fill="none" stroke="black" d="M944.33,-1295.52C881.19,-1282 796.12,-1263.79 744.54,-1252.75"/>
<polygon fill="black" stroke="black" points="745.43,-1249.36 734.92,-1250.69 743.96,-1256.2 745.43,-1249.36"/>
</g>
<!-- j1089656806 -->
<g id="node20" class="node">
<title>j1089656806</title>
<polygon fill="none" stroke="red" points="1128.5,-1260 923.5,-1260 923.5,-1224 1128.5,-1224 1128.5,-1260"/>
<text text-anchor="middle" x="1026" y="-1238.3" font-family="Times New Roman,serif" font-size="14.00">Suena como mi tipo de diversión.</text>
</g>
<!-- j2585750559&#45;&gt;j1089656806 -->
<g id="edge22" class="edge">
<title>j2585750559&#45;&gt;j1089656806</title>
<path fill="none" stroke="black" d="M1026,-1295.7C1026,-1288.41 1026,-1279.73 1026,-1271.54"/>
<polygon fill="black" stroke="black" points="1029.5,-1271.62 1026,-1261.62 1022.5,-1271.62 1029.5,-1271.62"/>
</g>
<!-- j775704794 -->
<g id="node21" class="node">
<title>j775704794</title>
<polygon fill="none" stroke="red" points="1440.5,-1260 1339.5,-1260 1339.5,-1224 1440.5,-1224 1440.5,-1260"/>
<text text-anchor="middle" x="1390" y="-1238.3" font-family="Times New Roman,serif" font-size="14.00">¿Qué les pasó?</text>
</g>
<!-- j2585750559&#45;&gt;j775704794 -->
<g id="edge23" class="edge">
<title>j2585750559&#45;&gt;j775704794</title>
<path fill="none" stroke="black" d="M1116.91,-1295.52C1182.75,-1282.86 1270.01,-1266.07 1327.99,-1254.93"/>
<polygon fill="black" stroke="black" points="1328.53,-1258.39 1337.69,-1253.06 1327.21,-1251.51 1328.53,-1258.39"/>
</g>
<!-- j1163827799 -->
<g id="node22" class="node">
<title>j1163827799</title>
<polygon fill="none" stroke="blue" points="863,-1188 261,-1188 261,-1152 863,-1152 863,-1188"/>
<text text-anchor="middle" x="562" y="-1166.3" font-family="Times New Roman,serif" font-size="14.00">Te paseas por ahí con un traje hecho a partir de un cuerpo humano infestado, pero ¿no aceptas masajes?</text>
</g>
<!-- j3338543038&#45;&gt;j1163827799 -->
<g id="edge24" class="edge">
<title>j3338543038&#45;&gt;j1163827799</title>
<path fill="none" stroke="black" d="M664.78,-1223.52C646.99,-1214.43 625.05,-1203.22 606.01,-1193.49"/>
<polygon fill="black" stroke="black" points="607.63,-1190.38 597.13,-1188.95 604.44,-1196.62 607.63,-1190.38"/>
</g>
<!-- j2527237226 -->
<g id="node23" class="node">
<title>j2527237226</title>
<polygon fill="none" stroke="blue" points="1136,-1188 916,-1188 916,-1152 1136,-1152 1136,-1188"/>
<text text-anchor="middle" x="1026" y="-1166.3" font-family="Times New Roman,serif" font-size="14.00">Sabía que eras mi tipo de camarada.</text>
</g>
<!-- j1089656806&#45;&gt;j2527237226 -->
<g id="edge25" class="edge">
<title>j1089656806&#45;&gt;j2527237226</title>
<path fill="none" stroke="black" d="M1026,-1223.7C1026,-1216.41 1026,-1207.73 1026,-1199.54"/>
<polygon fill="black" stroke="black" points="1029.5,-1199.62 1026,-1189.62 1022.5,-1199.62 1029.5,-1199.62"/>
</g>
<!-- j3043338838 -->
<g id="node24" class="node">
<title>j3043338838</title>
<polygon fill="none" stroke="blue" points="2427.5,-1116 1514.5,-1116 1514.5,-1080 2427.5,-1080 2427.5,-1116"/>
<text text-anchor="middle" x="1971" y="-1094.3" font-family="Times New Roman,serif" font-size="14.00">Estoy segura de que puedes adivinarlo. El Techrot causó muchos daños. No había forma de que los baños pudieran permanecer abiertos después de los brotes.</text>
</g>
<!-- j775704794&#45;&gt;j3043338838 -->
<g id="edge26" class="edge">
<title>j775704794&#45;&gt;j3043338838</title>
<path fill="none" stroke="black" d="M1440.8,-1228.58C1541.34,-1204.01 1766.53,-1148.97 1888.58,-1119.14"/>
<polygon fill="black" stroke="black" points="1889.35,-1122.56 1898.23,-1116.79 1887.69,-1115.76 1889.35,-1122.56"/>
</g>
<!-- j1289460928 -->
<g id="node25" class="node">
<title>j1289460928</title>
<polygon fill="none" stroke="blue" points="575.5,-1044 486.5,-1044 486.5,-1008 575.5,-1008 575.5,-1044"/>
<text text-anchor="middle" x="531" y="-1022.3" font-family="Times New Roman,serif" font-size="14.00">Qué extraño.</text>
</g>
<!-- j1163827799&#45;&gt;j1289460928 -->
<g id="edge27" class="edge">
<title>j1163827799&#45;&gt;j1289460928</title>
<path fill="none" stroke="black" d="M556.26,-1151.96C552.93,-1141.64 548.85,-1128.17 546,-1116 541.3,-1095.92 537.46,-1072.96 534.85,-1055.39"/>
<polygon fill="black" stroke="black" points="538.34,-1055.09 533.46,-1045.69 531.41,-1056.08 538.34,-1055.09"/>
</g>
<!-- j3053733162 -->
<g id="node26" class="node">
<title>j3053733162</title>
<polygon fill="none" stroke="blue" points="1496.5,-1116 555.5,-1116 555.5,-1080 1496.5,-1080 1496.5,-1116"/>
<text text-anchor="middle" x="1026" y="-1094.3" font-family="Times New Roman,serif" font-size="14.00">Ojalá algunos de los demás fueran un poco menos estrictos. Lamentablemente, no hubo forma de que los baños pudieran permanecer abiertos después de los brotes.</text>
</g>
<!-- j2527237226&#45;&gt;j3053733162 -->
<g id="edge28" class="edge">
<title>j2527237226&#45;&gt;j3053733162</title>
<path fill="none" stroke="black" d="M1026,-1151.7C1026,-1144.41 1026,-1135.73 1026,-1127.54"/>
<polygon fill="black" stroke="black" points="1029.5,-1127.62 1026,-1117.62 1022.5,-1127.62 1029.5,-1127.62"/>
</g>
<!-- j2088009748 -->
<g id="node27" class="node">
<title>j2088009748</title>
<polygon fill="none" stroke="blue" points="2197,-1044 901,-1044 901,-1008 2197,-1008 2197,-1044"/>
<text text-anchor="middle" x="1549" y="-1022.3" font-family="Times New Roman,serif" font-size="14.00">Por lo que he visto, algunos de ellos son básicamente estanques infestados. Me parte el corazón, para ser sincera. Recuerdo haber encontrado pisos de mármol y mosaico de mil años de antigüedad cubiertos de piel arrastrándose.</text>
</g>
<!-- j3043338838&#45;&gt;j2088009748 -->
<g id="edge29" class="edge">
<title>j3043338838&#45;&gt;j2088009748</title>
<path fill="none" stroke="black" d="M1865.6,-1079.52C1804.69,-1069.41 1727.95,-1056.68 1665.28,-1046.29"/>
<polygon fill="black" stroke="black" points="1666.08,-1042.87 1655.65,-1044.69 1664.94,-1049.78 1666.08,-1042.87"/>
</g>
<!-- j1289460928&#45;&gt;Chat ends. -->
<g id="edge30" class="edge">
<title>j1289460928&#45;&gt;Chat ends.</title>
<path fill="none" stroke="black" d="M537.07,-1007.76C545.84,-981.28 561,-928.86 561,-883 561,-883 561,-883 561,-161 561,-66.88 1272.55,-30.24 1487.95,-21.31"/>
<polygon fill="black" stroke="black" points="1487.97,-24.81 1497.82,-20.9 1487.68,-17.81 1487.97,-24.81"/>
</g>
<!-- j3053733162&#45;&gt;j2088009748 -->
<g id="edge31" class="edge">
<title>j3053733162&#45;&gt;j2088009748</title>
<path fill="none" stroke="black" d="M1156.63,-1079.52C1232.9,-1069.31 1329.19,-1056.42 1407.29,-1045.97"/>
<polygon fill="black" stroke="black" points="1407.73,-1049.44 1417.18,-1044.64 1406.8,-1042.5 1407.73,-1049.44"/>
</g>
<!-- j2749505279 -->
<g id="node28" class="node">
<title>j2749505279</title>
<polygon fill="none" stroke="blue" points="1658,-972 1440,-972 1440,-936 1658,-936 1658,-972"/>
<text text-anchor="middle" x="1549" y="-950.3" font-family="Times New Roman,serif" font-size="14.00">¿Tienen algo parecido en tu tiempo?</text>
</g>
<!-- j2088009748&#45;&gt;j2749505279 -->
<g id="edge32" class="edge">
<title>j2088009748&#45;&gt;j2749505279</title>
<path fill="none" stroke="black" d="M1549,-1007.7C1549,-1000.41 1549,-991.73 1549,-983.54"/>
<polygon fill="black" stroke="black" points="1552.5,-983.62 1549,-973.62 1545.5,-983.62 1552.5,-983.62"/>
</g>
<!-- j481445656 -->
<g id="node29" class="node">
<title>j481445656</title>
<polygon fill="none" stroke="red" points="1689,-900 1409,-900 1409,-864 1689,-864 1689,-900"/>
<text text-anchor="middle" x="1549" y="-878.3" font-family="Times New Roman,serif" font-size="14.00">¿Baños públicos sagrados? No, en realidad no.</text>
</g>
<!-- j2749505279&#45;&gt;j481445656 -->
<g id="edge33" class="edge">
<title>j2749505279&#45;&gt;j481445656</title>
<path fill="none" stroke="black" d="M1549,-935.7C1549,-928.41 1549,-919.73 1549,-911.54"/>
<polygon fill="black" stroke="black" points="1552.5,-911.62 1549,-901.62 1545.5,-911.62 1552.5,-911.62"/>
</g>
<!-- j1380161765 -->
<g id="node30" class="node">
<title>j1380161765</title>
<polygon fill="none" stroke="blue" points="1679,-828 1419,-828 1419,-792 1679,-792 1679,-828"/>
<text text-anchor="middle" x="1549" y="-806.3" font-family="Times New Roman,serif" font-size="14.00">Entonces, ¿qué hace la gente para relajarse?</text>
</g>
<!-- j481445656&#45;&gt;j1380161765 -->
<g id="edge34" class="edge">
<title>j481445656&#45;&gt;j1380161765</title>
<path fill="none" stroke="black" d="M1549,-863.7C1549,-856.41 1549,-847.73 1549,-839.54"/>
<polygon fill="black" stroke="black" points="1552.5,-839.62 1549,-829.62 1545.5,-839.62 1552.5,-839.62"/>
</g>
<!-- j3981436438 -->
<g id="node31" class="node">
<title>j3981436438</title>
<polygon fill="none" stroke="red" points="1253.5,-756 1142.5,-756 1142.5,-720 1253.5,-720 1253.5,-756"/>
<text text-anchor="middle" x="1198" y="-734.3" font-family="Times New Roman,serif" font-size="14.00">Está el Rathuum.</text>
</g>
<!-- j1380161765&#45;&gt;j3981436438 -->
<g id="edge35" class="edge">
<title>j1380161765&#45;&gt;j3981436438</title>
<path fill="none" stroke="black" d="M1461.33,-791.52C1400.54,-779.39 1320.81,-763.49 1265.07,-752.38"/>
<polygon fill="black" stroke="black" points="1265.88,-748.97 1255.39,-750.45 1264.51,-755.83 1265.88,-748.97"/>
</g>
<!-- j1642179989 -->
<g id="node32" class="node">
<title>j1642179989</title>
<polygon fill="none" stroke="red" points="1668.5,-756 1429.5,-756 1429.5,-720 1668.5,-720 1668.5,-756"/>
<text text-anchor="middle" x="1549" y="-734.3" font-family="Times New Roman,serif" font-size="14.00">Algunas personas apuestan en el Índice.</text>
</g>
<!-- j1380161765&#45;&gt;j1642179989 -->
<g id="edge36" class="edge">
<title>j1380161765&#45;&gt;j1642179989</title>
<path fill="none" stroke="black" d="M1549,-791.7C1549,-784.41 1549,-775.73 1549,-767.54"/>
<polygon fill="black" stroke="black" points="1552.5,-767.62 1549,-757.62 1545.5,-767.62 1552.5,-767.62"/>
</g>
<!-- j1132600967 -->
<g id="node33" class="node">
<title>j1132600967</title>
<polygon fill="none" stroke="red" points="2015,-756 1787,-756 1787,-720 2015,-720 2015,-756"/>
<text text-anchor="middle" x="1901" y="-734.3" font-family="Times New Roman,serif" font-size="14.00">El Komi ha existido por algún tiempo.</text>
</g>
<!-- j1380161765&#45;&gt;j1132600967 -->
<g id="edge37" class="edge">
<title>j1380161765&#45;&gt;j1132600967</title>
<path fill="none" stroke="black" d="M1636.92,-791.52C1687.1,-781.54 1750.14,-769 1802.05,-758.68"/>
<polygon fill="black" stroke="black" points="1802.68,-762.12 1811.81,-756.74 1801.31,-755.26 1802.68,-762.12"/>
</g>
<!-- j2322774391 -->
<g id="node34" class="node">
<title>j2322774391</title>
<polygon fill="none" stroke="blue" points="1285.5,-684 794.5,-684 794.5,-648 1285.5,-648 1285.5,-684"/>
<text text-anchor="middle" x="1040" y="-662.3" font-family="Times New Roman,serif" font-size="14.00">Suena como si Amir estuviera haciendo ruidos de efectos de sonido para sí mismo...</text>
</g>
<!-- j3981436438&#45;&gt;j2322774391 -->
<g id="edge38" class="edge">
<title>j3981436438&#45;&gt;j2322774391</title>
<path fill="none" stroke="black" d="M1158.54,-719.52C1137.63,-710.25 1111.74,-698.78 1089.49,-688.93"/>
<polygon fill="black" stroke="black" points="1091.18,-685.85 1080.62,-684.99 1088.34,-692.25 1091.18,-685.85"/>
</g>
<!-- j3435297974 -->
<g id="node35" class="node">
<title>j3435297974</title>
<polygon fill="none" stroke="blue" points="1620.5,-684 1477.5,-684 1477.5,-648 1620.5,-648 1620.5,-684"/>
<text text-anchor="middle" x="1549" y="-662.3" font-family="Times New Roman,serif" font-size="14.00">¿Corredores de bolsa?</text>
</g>
<!-- j1642179989&#45;&gt;j3435297974 -->
<g id="edge39" class="edge">
<title>j1642179989&#45;&gt;j3435297974</title>
<path fill="none" stroke="black" d="M1549,-719.7C1549,-712.41 1549,-703.73 1549,-695.54"/>
<polygon fill="black" stroke="black" points="1552.5,-695.62 1549,-685.62 1545.5,-695.62 1552.5,-695.62"/>
</g>
<!-- j1567236308 -->
<g id="node36" class="node">
<title>j1567236308</title>
<polygon fill="none" stroke="blue" points="2202,-684 1800,-684 1800,-648 2202,-648 2202,-684"/>
<text text-anchor="middle" x="2001" y="-662.3" font-family="Times New Roman,serif" font-size="14.00">¿Komi? ¿Fichas en blanco y negro? ¿La guerra nupcial de Sol y Lua?</text>
</g>
<!-- j1132600967&#45;&gt;j1567236308 -->
<g id="edge40" class="edge">
<title>j1132600967&#45;&gt;j1567236308</title>
<path fill="none" stroke="black" d="M1925.98,-719.52C1938.36,-710.85 1953.5,-700.25 1966.93,-690.85"/>
<polygon fill="black" stroke="black" points="1968.92,-693.73 1975.1,-685.13 1964.9,-688 1968.92,-693.73"/>
</g>
<!-- j2821855045 -->
<g id="node37" class="node">
<title>j2821855045</title>
<polygon fill="none" stroke="red" points="1137,-612 593,-612 593,-576 1137,-576 1137,-612"/>
<text text-anchor="middle" x="865" y="-590.3" font-family="Times New Roman,serif" font-size="14.00">Es una cosa de los grineer. Es un combate ritual en la arena que se transmite a todo el Sistema.</text>
</g>
<!-- j2322774391&#45;&gt;j2821855045 -->
<g id="edge41" class="edge">
<title>j2322774391&#45;&gt;j2821855045</title>
<path fill="none" stroke="black" d="M996.29,-647.52C972.82,-638.13 943.68,-626.47 918.82,-616.53"/>
<polygon fill="black" stroke="black" points="920.44,-613.41 909.86,-612.94 917.84,-619.91 920.44,-613.41"/>
</g>
<!-- j1621095251 -->
<g id="node38" class="node">
<title>j1621095251</title>
<polygon fill="none" stroke="red" points="1943,-612 1155,-612 1155,-576 1943,-576 1943,-612"/>
<text text-anchor="middle" x="1549" y="-590.3" font-family="Times New Roman,serif" font-size="14.00">... ¿algo así? Es como una combinación de compraventa de acciones y violencia en un partido de cuatro contra cuatro. Sé que suena raro.</text>
</g>
<!-- j3435297974&#45;&gt;j1621095251 -->
<g id="edge42" class="edge">
<title>j3435297974&#45;&gt;j1621095251</title>
<path fill="none" stroke="black" d="M1549,-647.7C1549,-640.41 1549,-631.73 1549,-623.54"/>
<polygon fill="black" stroke="black" points="1552.5,-623.62 1549,-613.62 1545.5,-623.62 1552.5,-623.62"/>
</g>
<!-- j125192801 -->
<g id="node39" class="node">
<title>j125192801</title>
<polygon fill="none" stroke="red" points="2362.5,-612 1961.5,-612 1961.5,-576 2362.5,-576 2362.5,-612"/>
<text text-anchor="middle" x="2162" y="-590.3" font-family="Times New Roman,serif" font-size="14.00">Um... ¿sí? Espera, ¿eso es lo que se supone que representa el Komi?</text>
</g>
<!-- j1567236308&#45;&gt;j125192801 -->
<g id="edge43" class="edge">
<title>j1567236308&#45;&gt;j125192801</title>
<path fill="none" stroke="black" d="M2041.21,-647.52C2062.52,-638.25 2088.9,-626.78 2111.57,-616.93"/>
<polygon fill="black" stroke="black" points="2112.86,-620.18 2120.63,-612.99 2110.07,-613.76 2112.86,-620.18"/>
</g>
<!-- j2825290324 -->
<g id="node40" class="node">
<title>j2825290324</title>
<polygon fill="none" stroke="red" points="1030,-540 728,-540 728,-504 1030,-504 1030,-540"/>
<text text-anchor="middle" x="879" y="-518.3" font-family="Times New Roman,serif" font-size="14.00">Para ellos es un asunto muy importante. Muy serio.</text>
</g>
<!-- j2821855045&#45;&gt;j2825290324 -->
<g id="edge44" class="edge">
<title>j2821855045&#45;&gt;j2825290324</title>
<path fill="none" stroke="black" d="M868.46,-575.7C869.94,-568.32 871.7,-559.52 873.35,-551.25"/>
<polygon fill="black" stroke="black" points="876.75,-552.08 875.28,-541.59 869.89,-550.71 876.75,-552.08"/>
</g>
<!-- j685590003 -->
<g id="node41" class="node">
<title>j685590003</title>
<polygon fill="none" stroke="red" points="1694,-540 1404,-540 1404,-504 1694,-504 1694,-540"/>
<text text-anchor="middle" x="1549" y="-518.3" font-family="Times New Roman,serif" font-size="14.00">El Corpus se vuelve absolutamente loco por eso.</text>
</g>
<!-- j1621095251&#45;&gt;j685590003 -->
<g id="edge45" class="edge">
<title>j1621095251&#45;&gt;j685590003</title>
<path fill="none" stroke="black" d="M1549,-575.7C1549,-568.41 1549,-559.73 1549,-551.54"/>
<polygon fill="black" stroke="black" points="1552.5,-551.62 1549,-541.62 1545.5,-551.62 1552.5,-551.62"/>
</g>
<!-- j477084668 -->
<g id="node42" class="node">
<title>j477084668</title>
<polygon fill="none" stroke="red" points="2272,-540 2018,-540 2018,-504 2272,-504 2272,-540"/>
<text text-anchor="middle" x="2145" y="-518.3" font-family="Times New Roman,serif" font-size="14.00">¡Sólo lo conocemos como juego de mesa!</text>
</g>
<!-- j125192801&#45;&gt;j477084668 -->
<g id="edge46" class="edge">
<title>j125192801&#45;&gt;j477084668</title>
<path fill="none" stroke="black" d="M2157.8,-575.7C2156.01,-568.32 2153.87,-559.52 2151.86,-551.25"/>
<polygon fill="black" stroke="black" points="2155.27,-550.47 2149.51,-541.58 2148.47,-552.12 2155.27,-550.47"/>
</g>
<!-- j1434807261 -->
<g id="node43" class="node">
<title>j1434807261</title>
<polygon fill="none" stroke="blue" points="1184,-468 736,-468 736,-432 1184,-432 1184,-468"/>
<text text-anchor="middle" x="960" y="-446.3" font-family="Times New Roman,serif" font-size="14.00">Papá y Arthur solían ver la lucha libre juntos todos los sábados por la noche.</text>
</g>
<!-- j2825290324&#45;&gt;j1434807261 -->
<g id="edge47" class="edge">
<title>j2825290324&#45;&gt;j1434807261</title>
<path fill="none" stroke="black" d="M899.02,-503.7C908.76,-495.28 920.64,-485.02 931.31,-475.79"/>
<polygon fill="black" stroke="black" points="933.5,-478.52 938.78,-469.34 928.93,-473.23 933.5,-478.52"/>
</g>
<!-- j752820649 -->
<g id="node44" class="node">
<title>j752820649</title>
<polygon fill="none" stroke="blue" points="1827.5,-468 1270.5,-468 1270.5,-432 1827.5,-432 1827.5,-468"/>
<text text-anchor="middle" x="1549" y="-446.3" font-family="Times New Roman,serif" font-size="14.00">Pero son tus enemigos, ¿no? ¿O hay algún tipo de tregua cuando se trata de deportes de equipo?</text>
</g>
<!-- j685590003&#45;&gt;j752820649 -->
<g id="edge48" class="edge">
<title>j685590003&#45;&gt;j752820649</title>
<path fill="none" stroke="black" d="M1549,-503.7C1549,-496.41 1549,-487.73 1549,-479.54"/>
<polygon fill="black" stroke="black" points="1552.5,-479.62 1549,-469.62 1545.5,-479.62 1552.5,-479.62"/>
</g>
<!-- j76570387 -->
<g id="node45" class="node">
<title>j76570387</title>
<polygon fill="none" stroke="red" points="2286.5,-468 1987.5,-468 1987.5,-432 2286.5,-432 2286.5,-468"/>
<text text-anchor="middle" x="2137" y="-446.3" font-family="Times New Roman,serif" font-size="14.00">A los Orokin les encantaba. Incluso está en Duviri.</text>
</g>
<!-- j477084668&#45;&gt;j76570387 -->
<g id="edge49" class="edge">
<title>j477084668&#45;&gt;j76570387</title>
<path fill="none" stroke="black" d="M2143.02,-503.7C2142.19,-496.41 2141.2,-487.73 2140.26,-479.54"/>
<polygon fill="black" stroke="black" points="2143.74,-479.15 2139.13,-469.61 2136.78,-479.94 2143.74,-479.15"/>
</g>
<!-- j1114861822 -->
<g id="node46" class="node">
<title>j1114861822</title>
<ellipse fill="none" stroke="orange" cx="988" cy="-378" rx="64.19" ry="18"/>
<text text-anchor="middle" x="988" y="-374.3" font-family="Times New Roman,serif" font-size="14.00">+10 Chemistry</text>
</g>
<!-- j1434807261&#45;&gt;j1114861822 -->
<g id="edge50" class="edge">
<title>j1434807261&#45;&gt;j1114861822</title>
<path fill="none" stroke="black" d="M966.92,-431.7C969.94,-424.15 973.55,-415.12 976.93,-406.68"/>
<polygon fill="black" stroke="black" points="980.13,-408.09 980.6,-397.51 973.63,-405.49 980.13,-408.09"/>
</g>
<!-- j3185193461 -->
<g id="node47" class="node">
<title>j3185193461</title>
<ellipse fill="none" stroke="orange" cx="1549" cy="-378" rx="64.19" ry="18"/>
<text text-anchor="middle" x="1549" y="-374.3" font-family="Times New Roman,serif" font-size="14.00">+10 Chemistry</text>
</g>
<!-- j752820649&#45;&gt;j3185193461 -->
<g id="edge51" class="edge">
<title>j752820649&#45;&gt;j3185193461</title>
<path fill="none" stroke="black" d="M1549,-431.7C1549,-424.41 1549,-415.73 1549,-407.54"/>
<polygon fill="black" stroke="black" points="1552.5,-407.62 1549,-397.62 1545.5,-407.62 1552.5,-407.62"/>
</g>
<!-- j1808457756 -->
<g id="node48" class="node">
<title>j1808457756</title>
<polygon fill="none" stroke="red" points="2216.5,-396 1959.5,-396 1959.5,-360 2216.5,-360 2216.5,-396"/>
<text text-anchor="middle" x="2088" y="-374.3" font-family="Times New Roman,serif" font-size="14.00">Pero no tenía idea de que fuera TAN viejo.</text>
</g>
<!-- j76570387&#45;&gt;j1808457756 -->
<g id="edge52" class="edge">
<title>j76570387&#45;&gt;j1808457756</title>
<path fill="none" stroke="black" d="M2124.89,-431.7C2119.31,-423.73 2112.57,-414.1 2106.38,-405.26"/>
<polygon fill="black" stroke="black" points="2109.44,-403.53 2100.84,-397.34 2103.71,-407.54 2109.44,-403.53"/>
</g>
<!-- j233919425 -->
<g id="node49" class="node">
<title>j233919425</title>
<polygon fill="none" stroke="blue" points="1326.5,-180 793.5,-180 793.5,-144 1326.5,-144 1326.5,-180"/>
<text text-anchor="middle" x="1060" y="-158.3" font-family="Times New Roman,serif" font-size="14.00">Si tienes la oportunidad, muéstrale algunas grabaciones de Rathuum. Creo que le encantarán.</text>
</g>
<!-- j1114861822&#45;&gt;j233919425 -->
<g id="edge53" class="edge">
<title>j1114861822&#45;&gt;j233919425</title>
<path fill="none" stroke="black" d="M993.77,-359.85C1006.17,-322.99 1035.47,-235.92 1050.59,-190.96"/>
<polygon fill="black" stroke="black" points="1053.85,-192.26 1053.72,-181.67 1047.21,-190.03 1053.85,-192.26"/>
</g>
<!-- j320304289 -->
<g id="node50" class="node">
<title>j320304289</title>
<polygon fill="none" stroke="blue" points="1704.5,-252 1393.5,-252 1393.5,-216 1704.5,-216 1704.5,-252"/>
<text text-anchor="middle" x="1549" y="-230.3" font-family="Times New Roman,serif" font-size="14.00">¿Qué digo? Por supuesto que la hay. Así es la gente.</text>
</g>
<!-- j3185193461&#45;&gt;j320304289 -->
<g id="edge54" class="edge">
<title>j3185193461&#45;&gt;j320304289</title>
<path fill="none" stroke="black" d="M1549,-359.59C1549,-335.61 1549,-292.14 1549,-263.42"/>
<polygon fill="black" stroke="black" points="1552.5,-263.62 1549,-253.62 1545.5,-263.62 1552.5,-263.62"/>
</g>
<!-- j2868081771 -->
<g id="node51" class="node">
<title>j2868081771</title>
<polygon fill="none" stroke="blue" points="2314.5,-324 1851.5,-324 1851.5,-288 2314.5,-288 2314.5,-324"/>
<text text-anchor="middle" x="2083" y="-302.3" font-family="Times New Roman,serif" font-size="14.00">¿Viejo? ¡Es SAGRADO! Pero también divertido. Una combinación maravillosa.</text>
</g>
<!-- j1808457756&#45;&gt;j2868081771 -->
<g id="edge55" class="edge">
<title>j1808457756&#45;&gt;j2868081771</title>
<path fill="none" stroke="black" d="M2086.76,-359.7C2086.24,-352.41 2085.62,-343.73 2085.04,-335.54"/>
<polygon fill="black" stroke="black" points="2088.53,-335.34 2084.33,-325.61 2081.55,-335.84 2088.53,-335.34"/>
</g>
<!-- j233919425&#45;&gt;Chat ends. -->
<g id="edge56" class="edge">
<title>j233919425&#45;&gt;Chat ends.</title>
<path fill="none" stroke="black" d="M1119.96,-143.59C1217.79,-115.18 1409.85,-59.41 1500.04,-33.22"/>
<polygon fill="black" stroke="black" points="1500.96,-36.6 1509.58,-30.45 1499,-29.87 1500.96,-36.6"/>
</g>
<!-- j320304289&#45;&gt;Chat ends. -->
<g id="edge57" class="edge">
<title>j320304289&#45;&gt;Chat ends.</title>
<path fill="none" stroke="black" d="M1549,-215.85C1549,-179.14 1549,-92.66 1549,-47.53"/>
<polygon fill="black" stroke="black" points="1552.5,-47.75 1549,-37.75 1545.5,-47.75 1552.5,-47.75"/>
</g>
<!-- j668674394 -->
<g id="node52" class="node">
<title>j668674394</title>
<polygon fill="none" stroke="blue" points="2420,-252 1738,-252 1738,-216 2420,-216 2420,-252"/>
<text text-anchor="middle" x="2079" y="-230.3" font-family="Times New Roman,serif" font-size="14.00">Todo gira en torno a los mismos dos principios esenciales, ¿sabes? Mente y cuerpo. Símbolo y significado. Sol y Lua.</text>
</g>
<!-- j2868081771&#45;&gt;j668674394 -->
<g id="edge58" class="edge">
<title>j2868081771&#45;&gt;j668674394</title>
<path fill="none" stroke="black" d="M2082.01,-287.7C2081.59,-280.41 2081.1,-271.73 2080.63,-263.54"/>
<polygon fill="black" stroke="black" points="2084.13,-263.4 2080.06,-253.62 2077.14,-263.8 2084.13,-263.4"/>
</g>
<!-- j1054530203 -->
<g id="node53" class="node">
<title>j1054530203</title>
<ellipse fill="none" stroke="orange" cx="1972" cy="-162" rx="64.19" ry="18"/>
<text text-anchor="middle" x="1972" y="-158.3" font-family="Times New Roman,serif" font-size="14.00">+20 Chemistry</text>
</g>
<!-- j668674394&#45;&gt;j1054530203 -->
<g id="edge59" class="edge">
<title>j668674394&#45;&gt;j1054530203</title>
<path fill="none" stroke="black" d="M2052.28,-215.52C2038.26,-206.35 2020.94,-195.02 2005.99,-185.23"/>
<polygon fill="black" stroke="black" points="2008.11,-182.44 1997.82,-179.89 2004.27,-188.3 2008.11,-182.44"/>
</g>
<!-- j92882938 -->
<g id="node54" class="node">
<title>j92882938</title>
<polygon fill="none" stroke="blue" points="2191.5,-108 1646.5,-108 1646.5,-72 2191.5,-72 2191.5,-108"/>
<text text-anchor="middle" x="1919" y="-86.3" font-family="Times New Roman,serif" font-size="14.00">Arthur y yo solíamos jugar Komi todos los años en el Solsticio. ¿Por qué dejamos de hacerlo?</text>
</g>
<!-- j1054530203&#45;&gt;j92882938 -->
<g id="edge60" class="edge">
<title>j1054530203&#45;&gt;j92882938</title>
<path fill="none" stroke="black" d="M1959.17,-144.05C1953.08,-136.01 1945.65,-126.2 1938.86,-117.23"/>
<polygon fill="black" stroke="black" points="1941.82,-115.34 1932.99,-109.48 1936.24,-119.57 1941.82,-115.34"/>
</g>
<!-- j92882938&#45;&gt;Chat ends. -->
<g id="edge61" class="edge">
<title>j92882938&#45;&gt;Chat ends.</title>
<path fill="none" stroke="black" d="M1826.59,-71.52C1756.35,-58.23 1662.13,-40.4 1603.52,-29.31"/>
<polygon fill="black" stroke="black" points="1604.25,-25.89 1593.77,-27.47 1602.95,-32.77 1604.25,-25.89"/>
</g>
</g>
</svg>
