<?xml version="1.0" encoding="UTF-8" standalone="no"?>
<!DOCTYPE svg PUBLIC "-//W3C//DTD SVG 1.1//EN"
 "http://www.w3.org/Graphics/SVG/1.1/DTD/svg11.dtd">
<!-- Generated by graphviz version 7.1.0 (20230121.1956)
 -->
<!-- Pages: 1 -->
<svg width="1788pt" height="1394pt"
 viewBox="0.00 0.00 1788.39 1394.00" xmlns="http://www.w3.org/2000/svg" xmlns:xlink="http://www.w3.org/1999/xlink">
<g id="graph0" class="graph" transform="scale(1 1) rotate(0) translate(4 1390)">
<polygon fill="white" stroke="none" points="-4,4 -4,-1390 1784.39,-1390 1784.39,4 -4,4"/>
<!-- EleanorQuincyWingman begins. -->
<g id="node1" class="node">
<title>EleanorQuincyWingman begins.</title>
<ellipse fill="none" stroke="orange" cx="127.39" cy="-1368" rx="127.28" ry="18"/>
<text text-anchor="middle" x="127.39" y="-1364.3" font-family="Times New Roman,serif" font-size="14.00">EleanorQuincyWingman begins.</text>
</g>
<!-- j3858793183 -->
<g id="node2" class="node">
<title>j3858793183</title>
<ellipse fill="none" stroke="orange" cx="127.39" cy="-1295" rx="98.28" ry="18"/>
<text text-anchor="middle" x="127.39" y="-1291.3" font-family="Times New Roman,serif" font-size="14.00">Check boolean IsDating</text>
</g>
<!-- EleanorQuincyWingman begins.&#45;&gt;j3858793183 -->
<g id="edge1" class="edge">
<title>EleanorQuincyWingman begins.&#45;&gt;j3858793183</title>
<path fill="none" stroke="black" d="M127.39,-1349.81C127.39,-1342.23 127.39,-1333.1 127.39,-1324.54"/>
<polygon fill="black" stroke="black" points="130.89,-1324.54 127.39,-1314.54 123.89,-1324.54 130.89,-1324.54"/>
</g>
<!-- Chat ends. -->
<g id="node3" class="node">
<title>Chat ends.</title>
<ellipse fill="none" stroke="orange" cx="178.39" cy="-18" rx="50.09" ry="18"/>
<text text-anchor="middle" x="178.39" y="-14.3" font-family="Times New Roman,serif" font-size="14.00">Chat ends.</text>
</g>
<!-- j3858793183&#45;&gt;Chat ends. -->
<g id="edge2" class="edge">
<title>j3858793183&#45;&gt;Chat ends.</title>
<path fill="none" stroke="green" d="M122.15,-1276.6C117.48,-1259.54 111.39,-1232.73 111.39,-1209 111.39,-1209 111.39,-1209 111.39,-90 111.39,-69.46 126.41,-52.45 142.23,-40.24"/>
<polygon fill="green" stroke="green" points="144.18,-43.14 150.29,-34.49 140.12,-37.44 144.18,-43.14"/>
<text text-anchor="middle" x="122.39" y="-603.8" font-family="Times New Roman,serif" font-size="14.00">true</text>
</g>
<!-- j3645102033 -->
<g id="node4" class="node">
<title>j3645102033</title>
<polygon fill="none" stroke="blue" points="799.39,-1226 139.39,-1226 139.39,-1190 799.39,-1190 799.39,-1226"/>
<text text-anchor="middle" x="469.39" y="-1204.3" font-family="Times New Roman,serif" font-size="14.00">Quincy vino a verme y me dijo algo absolutamente extraño: que querías hablar conmigo... sobre tus &quot;sentimientos&quot;.</text>
</g>
<!-- j3858793183&#45;&gt;j3645102033 -->
<g id="edge3" class="edge">
<title>j3858793183&#45;&gt;j3645102033</title>
<path fill="none" stroke="brown" d="M183.86,-1279.96C239.52,-1266.13 325.15,-1244.85 388.12,-1229.2"/>
<polygon fill="brown" stroke="brown" points="388.88,-1232.62 397.74,-1226.81 387.19,-1225.82 388.88,-1232.62"/>
<text text-anchor="middle" x="331.39" y="-1247.8" font-family="Times New Roman,serif" font-size="14.00">false</text>
</g>
<!-- j2931082387 -->
<g id="node5" class="node">
<title>j2931082387</title>
<ellipse fill="none" stroke="orange" cx="469.39" cy="-1135" rx="122.68" ry="18"/>
<text text-anchor="middle" x="469.39" y="-1131.3" font-family="Times New Roman,serif" font-size="14.00">Check boolean EleanorNoDate</text>
</g>
<!-- j3645102033&#45;&gt;j2931082387 -->
<g id="edge4" class="edge">
<title>j3645102033&#45;&gt;j2931082387</title>
<path fill="none" stroke="black" d="M469.39,-1189.81C469.39,-1182.23 469.39,-1173.1 469.39,-1164.54"/>
<polygon fill="black" stroke="black" points="472.89,-1164.54 469.39,-1154.54 465.89,-1164.54 472.89,-1164.54"/>
</g>
<!-- j1085786931 -->
<g id="node6" class="node">
<title>j1085786931</title>
<polygon fill="none" stroke="red" points="732.89,-1012 343.89,-1012 343.89,-976 732.89,-976 732.89,-1012"/>
<text text-anchor="middle" x="538.39" y="-990.3" font-family="Times New Roman,serif" font-size="14.00">Realmente sólo quería disculparme por las cosas terribles que dije.</text>
</g>
<!-- j2931082387&#45;&gt;j1085786931 -->
<g id="edge5" class="edge">
<title>j2931082387&#45;&gt;j1085786931</title>
<path fill="none" stroke="green" d="M484.94,-1116.71C495.98,-1103.63 510.38,-1084.76 519.39,-1066 525.84,-1052.57 530.36,-1036.61 533.37,-1023.23"/>
<polygon fill="green" stroke="green" points="536.73,-1024.25 535.33,-1013.75 529.88,-1022.84 536.73,-1024.25"/>
<text text-anchor="middle" x="519.39" y="-1087.8" font-family="Times New Roman,serif" font-size="14.00">true</text>
</g>
<!-- j4006496436 -->
<g id="node7" class="node">
<title>j4006496436</title>
<polygon fill="none" stroke="red" points="510.39,-1066 292.39,-1066 292.39,-1030 510.39,-1030 510.39,-1066"/>
<text text-anchor="middle" x="401.39" y="-1044.3" font-family="Times New Roman,serif" font-size="14.00">Creo que te estaba tomando el pelo.</text>
</g>
<!-- j2931082387&#45;&gt;j4006496436 -->
<g id="edge6" class="edge">
<title>j2931082387&#45;&gt;j4006496436</title>
<path fill="none" stroke="green" d="M459.2,-1116.74C453.06,-1106.81 444.81,-1094.31 436.39,-1084 433.73,-1080.75 430.82,-1077.46 427.83,-1074.27"/>
<polygon fill="green" stroke="green" points="430.46,-1071.95 420.98,-1067.23 425.45,-1076.84 430.46,-1071.95"/>
<text text-anchor="middle" x="457.39" y="-1087.8" font-family="Times New Roman,serif" font-size="14.00">true</text>
</g>
<!-- j2931082387&#45;&gt;j4006496436 -->
<g id="edge8" class="edge">
<title>j2931082387&#45;&gt;j4006496436</title>
<path fill="none" stroke="brown" d="M426.85,-1117.81C418.89,-1112.92 411.48,-1106.74 406.39,-1099 402.24,-1092.69 400.32,-1084.92 399.61,-1077.41"/>
<polygon fill="brown" stroke="brown" points="403.11,-1077.48 399.36,-1067.57 396.11,-1077.65 403.11,-1077.48"/>
<text text-anchor="middle" x="419.39" y="-1087.8" font-family="Times New Roman,serif" font-size="14.00">false</text>
</g>
<!-- j3276849316 -->
<g id="node8" class="node">
<title>j3276849316</title>
<polygon fill="none" stroke="red" points="876.39,-1066 584.39,-1066 584.39,-1030 876.39,-1030 876.39,-1066"/>
<text text-anchor="middle" x="730.39" y="-1044.3" font-family="Times New Roman,serif" font-size="14.00">Sólo quería decirte que tengo sentimientos por ti.</text>
</g>
<!-- j2931082387&#45;&gt;j3276849316 -->
<g id="edge7" class="edge">
<title>j2931082387&#45;&gt;j3276849316</title>
<path fill="none" stroke="brown" d="M518.17,-1118.11C559.97,-1104.5 620.48,-1084.79 666.2,-1069.9"/>
<polygon fill="brown" stroke="brown" points="667.03,-1073.31 675.46,-1066.89 664.87,-1066.66 667.03,-1073.31"/>
<text text-anchor="middle" x="628.39" y="-1087.8" font-family="Times New Roman,serif" font-size="14.00">false</text>
</g>
<!-- j1414828988 -->
<g id="node9" class="node">
<title>j1414828988</title>
<polygon fill="none" stroke="blue" points="876.89,-904 199.89,-904 199.89,-868 876.89,-868 876.89,-904"/>
<text text-anchor="middle" x="538.39" y="-882.3" font-family="Times New Roman,serif" font-size="14.00">Bueno... parece una mala decisión por mi parte guardar rencor dada nuestra situación. Si lo dices en serio, te perdono.</text>
</g>
<!-- j1085786931&#45;&gt;j1414828988 -->
<g id="edge9" class="edge">
<title>j1085786931&#45;&gt;j1414828988</title>
<path fill="none" stroke="black" d="M538.39,-975.97C538.39,-959.76 538.39,-935.06 538.39,-915.79"/>
<polygon fill="black" stroke="black" points="541.89,-915.85 538.39,-905.85 534.89,-915.85 541.89,-915.85"/>
</g>
<!-- j3972206320 -->
<g id="node10" class="node">
<title>j3972206320</title>
<polygon fill="none" stroke="blue" points="194.39,-904 126.39,-904 126.39,-868 194.39,-868 194.39,-904"/>
<text text-anchor="middle" x="160.39" y="-882.3" font-family="Times New Roman,serif" font-size="14.00">Ya veo...</text>
</g>
<!-- j4006496436&#45;&gt;j3972206320 -->
<g id="edge10" class="edge">
<title>j4006496436&#45;&gt;j3972206320</title>
<path fill="none" stroke="black" d="M366.31,-1029.5C356.17,-1024.15 345.21,-1018.07 335.39,-1012 283.29,-979.78 226.09,-937.51 191.72,-911.31"/>
<polygon fill="black" stroke="black" points="193.93,-908.59 183.86,-905.29 189.67,-914.15 193.93,-908.59"/>
</g>
<!-- j1589553344 -->
<g id="node11" class="node">
<title>j1589553344</title>
<ellipse fill="none" stroke="orange" cx="1014.39" cy="-940" rx="130.78" ry="18"/>
<text text-anchor="middle" x="1014.39" y="-936.3" font-family="Times New Roman,serif" font-size="14.00">Check boolean EleanorHasDated</text>
</g>
<!-- j3276849316&#45;&gt;j1589553344 -->
<g id="edge11" class="edge">
<title>j3276849316&#45;&gt;j1589553344</title>
<path fill="none" stroke="black" d="M776.97,-1029.61C827.17,-1010.88 906.99,-981.09 960.02,-961.29"/>
<polygon fill="black" stroke="black" points="961.02,-964.65 969.17,-957.88 958.58,-958.1 961.02,-964.65"/>
</g>
<!-- j2800876282 -->
<g id="node12" class="node">
<title>j2800876282</title>
<polygon fill="none" stroke="blue" points="768.89,-796 189.89,-796 189.89,-760 768.89,-760 768.89,-796"/>
<text text-anchor="middle" x="479.39" y="-774.3" font-family="Times New Roman,serif" font-size="14.00">Y... ¿a decir verdad? No puedo evitar admitir que he estado albergando algunos sentimientos por ti...</text>
</g>
<!-- j1414828988&#45;&gt;j2800876282 -->
<g id="edge12" class="edge">
<title>j1414828988&#45;&gt;j2800876282</title>
<path fill="none" stroke="black" d="M528.91,-867.97C519.63,-851.3 505.35,-825.65 494.51,-806.16"/>
<polygon fill="black" stroke="black" points="497.7,-804.7 489.78,-797.66 491.58,-808.1 497.7,-804.7"/>
</g>
<!-- j3972206320&#45;&gt;Chat ends. -->
<g id="edge13" class="edge">
<title>j3972206320&#45;&gt;Chat ends.</title>
<path fill="none" stroke="black" d="M158.81,-867.76C157.03,-846.8 154.39,-810.33 154.39,-779 154.39,-779 154.39,-779 154.39,-90 154.39,-75.11 159.19,-59.34 164.49,-46.45"/>
<polygon fill="black" stroke="black" points="167.68,-47.91 168.56,-37.35 161.29,-45.05 167.68,-47.91"/>
</g>
<!-- j487945858 -->
<g id="node13" class="node">
<title>j487945858</title>
<polygon fill="none" stroke="blue" points="1168.89,-850 859.89,-850 859.89,-814 1168.89,-814 1168.89,-850"/>
<text text-anchor="middle" x="1014.39" y="-828.3" font-family="Times New Roman,serif" font-size="14.00">Y me gustaría recordarte que tuviste tu oportunidad.</text>
</g>
<!-- j1589553344&#45;&gt;j487945858 -->
<g id="edge14" class="edge">
<title>j1589553344&#45;&gt;j487945858</title>
<path fill="none" stroke="green" d="M1014.39,-921.97C1014.39,-905.76 1014.39,-881.06 1014.39,-861.79"/>
<polygon fill="green" stroke="green" points="1017.89,-861.85 1014.39,-851.85 1010.89,-861.85 1017.89,-861.85"/>
<text text-anchor="middle" x="1025.39" y="-882.3" font-family="Times New Roman,serif" font-size="14.00">true</text>
</g>
<!-- j2018060516 -->
<g id="node14" class="node">
<title>j2018060516</title>
<polygon fill="none" stroke="blue" points="1466.39,-850 1190.39,-850 1190.39,-814 1466.39,-814 1466.39,-850"/>
<text text-anchor="middle" x="1328.39" y="-828.3" font-family="Times New Roman,serif" font-size="14.00">¿Y por qué no habías dicho nada hasta ahora?</text>
</g>
<!-- j1589553344&#45;&gt;j2018060516 -->
<g id="edge15" class="edge">
<title>j1589553344&#45;&gt;j2018060516</title>
<path fill="none" stroke="brown" d="M1062.42,-922.79C1116.92,-904.39 1206,-874.32 1265.88,-854.1"/>
<polygon fill="brown" stroke="brown" points="1266.92,-857.45 1275.27,-850.93 1264.68,-850.81 1266.92,-857.45"/>
<text text-anchor="middle" x="1230.39" y="-882.3" font-family="Times New Roman,serif" font-size="14.00">false</text>
</g>
<!-- j4188055883 -->
<g id="node15" class="node">
<title>j4188055883</title>
<polygon fill="none" stroke="blue" points="674.39,-669 182.39,-669 182.39,-633 674.39,-633 674.39,-669"/>
<text text-anchor="middle" x="428.39" y="-647.3" font-family="Times New Roman,serif" font-size="14.00">Si lo dices en serio, ¿qué tal si lo intentamos? Yo también estaría dispuesta a hacerlo.</text>
</g>
<!-- j2800876282&#45;&gt;j4188055883 -->
<g id="edge16" class="edge">
<title>j2800876282&#45;&gt;j4188055883</title>
<path fill="none" stroke="black" d="M472.3,-759.62C463.85,-738.91 449.62,-704.05 439.66,-679.63"/>
<polygon fill="black" stroke="black" points="443.01,-678.57 435.99,-670.63 436.53,-681.22 443.01,-678.57"/>
</g>
<!-- j949111522 -->
<g id="node16" class="node">
<title>j949111522</title>
<polygon fill="none" stroke="blue" points="1336.39,-669 692.39,-669 692.39,-633 1336.39,-633 1336.39,-669"/>
<text text-anchor="middle" x="1014.39" y="-647.3" font-family="Times New Roman,serif" font-size="14.00">Pero también mentiría si no admitiera que te extraño y que me gustaría intentarlo de nuevo, si tú también quieres.</text>
</g>
<!-- j487945858&#45;&gt;j949111522 -->
<g id="edge17" class="edge">
<title>j487945858&#45;&gt;j949111522</title>
<path fill="none" stroke="black" d="M1014.39,-813.51C1014.39,-782.55 1014.39,-717.85 1014.39,-680.42"/>
<polygon fill="black" stroke="black" points="1017.89,-680.81 1014.39,-670.81 1010.89,-680.81 1017.89,-680.81"/>
</g>
<!-- j548117281 -->
<g id="node17" class="node">
<title>j548117281</title>
<polygon fill="none" stroke="red" points="1616.39,-742 1518.39,-742 1518.39,-706 1616.39,-706 1616.39,-742"/>
<text text-anchor="middle" x="1567.39" y="-720.3" font-family="Times New Roman,serif" font-size="14.00">No tengo idea.</text>
</g>
<!-- j2018060516&#45;&gt;j548117281 -->
<g id="edge18" class="edge">
<title>j2018060516&#45;&gt;j548117281</title>
<path fill="none" stroke="black" d="M1367.59,-813.61C1408.66,-795.4 1473.28,-766.74 1517.86,-746.97"/>
<polygon fill="black" stroke="black" points="1519.06,-750.26 1526.79,-743.01 1516.23,-743.86 1519.06,-750.26"/>
</g>
<!-- j2483224767 -->
<g id="node18" class="node">
<title>j2483224767</title>
<polygon fill="none" stroke="red" points="1500.39,-742 1156.39,-742 1156.39,-706 1500.39,-706 1500.39,-742"/>
<text text-anchor="middle" x="1328.39" y="-720.3" font-family="Times New Roman,serif" font-size="14.00">Quizás me he confundido sobre cómo funciona todo esto.</text>
</g>
<!-- j2018060516&#45;&gt;j2483224767 -->
<g id="edge19" class="edge">
<title>j2018060516&#45;&gt;j2483224767</title>
<path fill="none" stroke="black" d="M1328.39,-813.97C1328.39,-797.76 1328.39,-773.06 1328.39,-753.79"/>
<polygon fill="black" stroke="black" points="1331.89,-753.85 1328.39,-743.85 1324.89,-753.85 1331.89,-753.85"/>
</g>
<!-- j958777517 -->
<g id="node19" class="node">
<title>j958777517</title>
<polygon fill="none" stroke="red" points="894.39,-582 772.39,-582 772.39,-546 894.39,-546 894.39,-582"/>
<text text-anchor="middle" x="833.39" y="-560.3" font-family="Times New Roman,serif" font-size="14.00">Me encantaría eso.</text>
</g>
<!-- j4188055883&#45;&gt;j958777517 -->
<g id="edge20" class="edge">
<title>j4188055883&#45;&gt;j958777517</title>
<path fill="none" stroke="black" d="M511.32,-632.59C584.8,-617.17 691.01,-594.88 761.09,-580.17"/>
<polygon fill="black" stroke="black" points="761.47,-583.67 770.53,-578.19 760.03,-576.82 761.47,-583.67"/>
</g>
<!-- j3068997345 -->
<g id="node20" class="node">
<title>j3068997345</title>
<polygon fill="none" stroke="red" points="640.89,-582 527.89,-582 527.89,-546 640.89,-546 640.89,-582"/>
<text text-anchor="middle" x="584.39" y="-560.3" font-family="Times New Roman,serif" font-size="14.00">Eh, no. Olvídalo.</text>
</g>
<!-- j4188055883&#45;&gt;j3068997345 -->
<g id="edge21" class="edge">
<title>j4188055883&#45;&gt;j3068997345</title>
<path fill="none" stroke="black" d="M460.33,-632.59C484.1,-619.64 516.75,-601.85 542.59,-587.77"/>
<polygon fill="black" stroke="black" points="544.05,-590.97 551.16,-583.11 540.7,-584.82 544.05,-590.97"/>
</g>
<!-- j949111522&#45;&gt;j958777517 -->
<g id="edge22" class="edge">
<title>j949111522&#45;&gt;j958777517</title>
<path fill="none" stroke="black" d="M977.32,-632.59C949.38,-619.47 910.86,-601.38 880.69,-587.21"/>
<polygon fill="black" stroke="black" points="882.31,-584.11 871.77,-583.03 879.34,-590.45 882.31,-584.11"/>
</g>
<!-- j949111522&#45;&gt;j3068997345 -->
<g id="edge23" class="edge">
<title>j949111522&#45;&gt;j3068997345</title>
<path fill="none" stroke="black" d="M926.07,-632.54C844.84,-616.48 726.09,-593.01 652.11,-578.39"/>
<polygon fill="black" stroke="black" points="653.06,-575.01 642.57,-576.5 651.7,-581.87 653.06,-575.01"/>
</g>
<!-- j1338759698 -->
<g id="node21" class="node">
<title>j1338759698</title>
<polygon fill="none" stroke="blue" points="1780.39,-669 1354.39,-669 1354.39,-633 1780.39,-633 1780.39,-669"/>
<text text-anchor="middle" x="1567.39" y="-647.3" font-family="Times New Roman,serif" font-size="14.00">Eso parece. Pero bueno si quieres intentarlo, estaré encantada de hacerlo.</text>
</g>
<!-- j548117281&#45;&gt;j1338759698 -->
<g id="edge24" class="edge">
<title>j548117281&#45;&gt;j1338759698</title>
<path fill="none" stroke="black" d="M1567.39,-705.81C1567.39,-698.23 1567.39,-689.1 1567.39,-680.54"/>
<polygon fill="black" stroke="black" points="1570.89,-680.54 1567.39,-670.54 1563.89,-680.54 1570.89,-680.54"/>
</g>
<!-- j2483224767&#45;&gt;j1338759698 -->
<g id="edge25" class="edge">
<title>j2483224767&#45;&gt;j1338759698</title>
<path fill="none" stroke="black" d="M1387.16,-705.54C1420.73,-695.57 1463.01,-683.01 1498.17,-672.56"/>
<polygon fill="black" stroke="black" points="1498.8,-676.03 1507.39,-669.82 1496.81,-669.32 1498.8,-676.03"/>
</g>
<!-- j1881918950 -->
<g id="node22" class="node">
<title>j1881918950</title>
<ellipse fill="none" stroke="orange" cx="622.39" cy="-491" rx="64.19" ry="18"/>
<text text-anchor="middle" x="622.39" y="-487.3" font-family="Times New Roman,serif" font-size="14.00">+20 Chemistry</text>
</g>
<!-- j958777517&#45;&gt;j1881918950 -->
<g id="edge26" class="edge">
<title>j958777517&#45;&gt;j1881918950</title>
<path fill="none" stroke="black" d="M781.5,-545.54C748.5,-534.44 705.97,-520.13 673.19,-509.09"/>
<polygon fill="black" stroke="black" points="674.5,-505.84 663.91,-505.97 672.27,-512.48 674.5,-505.84"/>
</g>
<!-- j2744976042 -->
<g id="node23" class="node">
<title>j2744976042</title>
<polygon fill="none" stroke="blue" points="472.39,-509 418.39,-509 418.39,-473 472.39,-473 472.39,-509"/>
<text text-anchor="middle" x="445.39" y="-487.3" font-family="Times New Roman,serif" font-size="14.00">....</text>
</g>
<!-- j3068997345&#45;&gt;j2744976042 -->
<g id="edge27" class="edge">
<title>j3068997345&#45;&gt;j2744976042</title>
<path fill="none" stroke="black" d="M550.39,-545.63C529.9,-535.17 503.78,-521.83 482.72,-511.07"/>
<polygon fill="black" stroke="black" points="484.38,-507.98 473.88,-506.55 481.19,-514.22 484.38,-507.98"/>
</g>
<!-- j1338759698&#45;&gt;j958777517 -->
<g id="edge28" class="edge">
<title>j1338759698&#45;&gt;j958777517</title>
<path fill="none" stroke="black" d="M1496.15,-632.53C1448.64,-621.53 1384.62,-607.95 1327.39,-600 1178.45,-579.31 1002.45,-570.55 905.88,-567.08"/>
<polygon fill="black" stroke="black" points="906.13,-563.59 896.02,-566.74 905.89,-570.58 906.13,-563.59"/>
</g>
<!-- j1338759698&#45;&gt;j3068997345 -->
<g id="edge29" class="edge">
<title>j1338759698&#45;&gt;j3068997345</title>
<path fill="none" stroke="black" d="M1354.05,-632.56C1191.98,-619.16 963.6,-599.97 763.39,-582 726.66,-578.7 685.7,-574.83 652.25,-571.61"/>
<polygon fill="black" stroke="black" points="653.01,-568.17 642.72,-570.69 652.33,-575.14 653.01,-568.17"/>
</g>
<!-- j2628582525 -->
<g id="node24" class="node">
<title>j2628582525</title>
<polygon fill="none" stroke="blue" points="582.39,-436 478.39,-436 478.39,-400 582.39,-400 582.39,-436"/>
<text text-anchor="middle" x="530.39" y="-414.3" font-family="Times New Roman,serif" font-size="14.00">Y a mi también.</text>
</g>
<!-- j1881918950&#45;&gt;j2628582525 -->
<g id="edge30" class="edge">
<title>j1881918950&#45;&gt;j2628582525</title>
<path fill="none" stroke="black" d="M601.51,-473.89C589.71,-464.78 574.72,-453.22 561.56,-443.05"/>
<polygon fill="black" stroke="black" points="564.04,-440.55 553.99,-437.21 559.77,-446.09 564.04,-440.55"/>
</g>
<!-- j2864742878 -->
<g id="node25" class="node">
<title>j2864742878</title>
<ellipse fill="none" stroke="orange" cx="349.39" cy="-364" rx="142.97" ry="18"/>
<text text-anchor="middle" x="349.39" y="-360.3" font-family="Times New Roman,serif" font-size="14.00">Boolean EleanorNoDate is now true.</text>
</g>
<!-- j2744976042&#45;&gt;j2864742878 -->
<g id="edge31" class="edge">
<title>j2744976042&#45;&gt;j2864742878</title>
<path fill="none" stroke="black" d="M432.04,-472.62C415.85,-451.54 388.39,-415.79 369.6,-391.32"/>
<polygon fill="black" stroke="black" points="372.41,-389.23 363.55,-383.43 366.86,-393.5 372.41,-389.23"/>
</g>
<!-- j2373573547 -->
<g id="node26" class="node">
<title>j2373573547</title>
<ellipse fill="none" stroke="orange" cx="524.39" cy="-310" rx="145.67" ry="18"/>
<text text-anchor="middle" x="524.39" y="-306.3" font-family="Times New Roman,serif" font-size="14.00">Boolean EleanorNoDate is now false.</text>
</g>
<!-- j2628582525&#45;&gt;j2373573547 -->
<g id="edge32" class="edge">
<title>j2628582525&#45;&gt;j2373573547</title>
<path fill="none" stroke="black" d="M529.42,-399.97C528.51,-383.76 527.11,-359.06 526.02,-339.79"/>
<polygon fill="black" stroke="black" points="529.52,-339.64 525.46,-329.85 522.53,-340.03 529.52,-339.64"/>
</g>
<!-- j2864742878&#45;&gt;Chat ends. -->
<g id="edge33" class="edge">
<title>j2864742878&#45;&gt;Chat ends.</title>
<path fill="none" stroke="black" d="M278.47,-348.02C240.88,-335.47 202.39,-313.08 202.39,-274 202.39,-274 202.39,-274 202.39,-90 202.39,-75.11 197.59,-59.34 192.28,-46.45"/>
<polygon fill="black" stroke="black" points="195.49,-45.05 188.22,-37.35 189.1,-47.91 195.49,-45.05"/>
</g>
<!-- j3242565060 -->
<g id="node27" class="node">
<title>j3242565060</title>
<ellipse fill="none" stroke="orange" cx="484.39" cy="-237" rx="118.08" ry="18"/>
<text text-anchor="middle" x="484.39" y="-233.3" font-family="Times New Roman,serif" font-size="14.00">Boolean IsDating is now true.</text>
</g>
<!-- j2373573547&#45;&gt;j3242565060 -->
<g id="edge34" class="edge">
<title>j2373573547&#45;&gt;j3242565060</title>
<path fill="none" stroke="black" d="M514.71,-291.81C510.14,-283.7 504.58,-273.84 499.47,-264.78"/>
<polygon fill="black" stroke="black" points="502.68,-263.34 494.73,-256.35 496.58,-266.78 502.68,-263.34"/>
</g>
<!-- j158806250 -->
<g id="node28" class="node">
<title>j158806250</title>
<ellipse fill="none" stroke="orange" cx="406.39" cy="-164" rx="138.38" ry="18"/>
<text text-anchor="middle" x="406.39" y="-160.3" font-family="Times New Roman,serif" font-size="14.00">Boolean EleanorDating is now true.</text>
</g>
<!-- j3242565060&#45;&gt;j158806250 -->
<g id="edge35" class="edge">
<title>j3242565060&#45;&gt;j158806250</title>
<path fill="none" stroke="black" d="M465.51,-218.81C456,-210.16 444.29,-199.5 433.81,-189.96"/>
<polygon fill="black" stroke="black" points="436.24,-187.44 426.49,-183.29 431.53,-192.61 436.24,-187.44"/>
</g>
<!-- j1431622788 -->
<g id="node29" class="node">
<title>j1431622788</title>
<ellipse fill="none" stroke="orange" cx="386.39" cy="-91" rx="150.57" ry="18"/>
<text text-anchor="middle" x="386.39" y="-87.3" font-family="Times New Roman,serif" font-size="14.00">Boolean EleanorHasDated is now true.</text>
</g>
<!-- j158806250&#45;&gt;j1431622788 -->
<g id="edge36" class="edge">
<title>j158806250&#45;&gt;j1431622788</title>
<path fill="none" stroke="black" d="M401.55,-145.81C399.36,-138.05 396.72,-128.68 394.26,-119.95"/>
<polygon fill="black" stroke="black" points="397.68,-119.16 391.6,-110.49 390.94,-121.06 397.68,-119.16"/>
</g>
<!-- j1431622788&#45;&gt;Chat ends. -->
<g id="edge37" class="edge">
<title>j1431622788&#45;&gt;Chat ends.</title>
<path fill="none" stroke="black" d="M338.15,-73.53C303.82,-61.81 257.98,-46.17 224.21,-34.64"/>
<polygon fill="black" stroke="black" points="225.73,-31.46 215.13,-31.54 223.47,-38.09 225.73,-31.46"/>
</g>
</g>
</svg>
