<?xml version="1.0" encoding="UTF-8" standalone="no"?>
<!DOCTYPE svg PUBLIC "-//W3C//DTD SVG 1.1//EN"
 "http://www.w3.org/Graphics/SVG/1.1/DTD/svg11.dtd">
<!-- Generated by graphviz version 7.1.0 (20230121.1956)
 -->
<!-- Pages: 1 -->
<svg width="2259pt" height="1484pt"
 viewBox="0.00 0.00 2258.50 1484.00" xmlns="http://www.w3.org/2000/svg" xmlns:xlink="http://www.w3.org/1999/xlink">
<g id="graph0" class="graph" transform="scale(1 1) rotate(0) translate(4 1480)">
<polygon fill="white" stroke="none" points="-4,4 -4,-1480 2254.5,-1480 2254.5,4 -4,4"/>
<!-- EleanorRank1Convo1 begins. -->
<g id="node1" class="node">
<title>EleanorRank1Convo1 begins.</title>
<ellipse fill="none" stroke="orange" cx="1889.5" cy="-1458" rx="118.88" ry="18"/>
<text text-anchor="middle" x="1889.5" y="-1454.3" font-family="Times New Roman,serif" font-size="14.00">EleanorRank1Convo1 begins.</text>
</g>
<!-- j2176422613 -->
<g id="node2" class="node">
<title>j2176422613</title>
<polygon fill="none" stroke="red" points="1925,-1404 1854,-1404 1854,-1368 1925,-1368 1925,-1404"/>
<text text-anchor="middle" x="1889.5" y="-1382.3" font-family="Times New Roman,serif" font-size="14.00">¿Eleanor?</text>
</g>
<!-- EleanorRank1Convo1 begins.&#45;&gt;j2176422613 -->
<g id="edge1" class="edge">
<title>EleanorRank1Convo1 begins.&#45;&gt;j2176422613</title>
<path fill="none" stroke="black" d="M1889.5,-1439.7C1889.5,-1432.41 1889.5,-1423.73 1889.5,-1415.54"/>
<polygon fill="black" stroke="black" points="1893,-1415.62 1889.5,-1405.62 1886,-1415.62 1893,-1415.62"/>
</g>
<!-- j4065702917 -->
<g id="node3" class="node">
<title>j4065702917</title>
<polygon fill="none" stroke="blue" points="1920.5,-1332 1858.5,-1332 1858.5,-1296 1920.5,-1296 1920.5,-1332"/>
<text text-anchor="middle" x="1889.5" y="-1310.3" font-family="Times New Roman,serif" font-size="14.00">¿Mmm?</text>
</g>
<!-- j2176422613&#45;&gt;j4065702917 -->
<g id="edge2" class="edge">
<title>j2176422613&#45;&gt;j4065702917</title>
<path fill="none" stroke="black" d="M1889.5,-1367.7C1889.5,-1360.41 1889.5,-1351.73 1889.5,-1343.54"/>
<polygon fill="black" stroke="black" points="1893,-1343.62 1889.5,-1333.62 1886,-1343.62 1893,-1343.62"/>
</g>
<!-- j3885267624 -->
<g id="node4" class="node">
<title>j3885267624</title>
<polygon fill="none" stroke="red" points="1690.5,-1260 1358.5,-1260 1358.5,-1224 1690.5,-1224 1690.5,-1260"/>
<text text-anchor="middle" x="1524.5" y="-1238.3" font-family="Times New Roman,serif" font-size="14.00">¿Por qué usas esto? Puedes hablar telepáticamente, ¿no?</text>
</g>
<!-- j4065702917&#45;&gt;j3885267624 -->
<g id="edge3" class="edge">
<title>j4065702917&#45;&gt;j3885267624</title>
<path fill="none" stroke="black" d="M1858.06,-1306.97C1807.11,-1297.2 1704.34,-1277.49 1626.26,-1262.52"/>
<polygon fill="black" stroke="black" points="1627.38,-1259.17 1616.9,-1260.72 1626.06,-1266.04 1627.38,-1259.17"/>
</g>
<!-- j3572927585 -->
<g id="node5" class="node">
<title>j3572927585</title>
<polygon fill="none" stroke="red" points="1974,-1116 1805,-1116 1805,-1080 1974,-1080 1974,-1116"/>
<text text-anchor="middle" x="1889.5" y="-1094.3" font-family="Times New Roman,serif" font-size="14.00">¿Qué TAN infestada estás?</text>
</g>
<!-- j4065702917&#45;&gt;j3572927585 -->
<g id="edge4" class="edge">
<title>j4065702917&#45;&gt;j3572927585</title>
<path fill="none" stroke="black" d="M1889.5,-1295.85C1889.5,-1259.14 1889.5,-1172.66 1889.5,-1127.53"/>
<polygon fill="black" stroke="black" points="1893,-1127.75 1889.5,-1117.75 1886,-1127.75 1893,-1127.75"/>
</g>
<!-- j3277309254 -->
<g id="node6" class="node">
<title>j3277309254</title>
<polygon fill="none" stroke="red" points="2240.5,-1260 1932.5,-1260 1932.5,-1224 2240.5,-1224 2240.5,-1260"/>
<text text-anchor="middle" x="2086.5" y="-1238.3" font-family="Times New Roman,serif" font-size="14.00">Sólo estaba comprobando que estuvieras viva. [Fin]</text>
</g>
<!-- j4065702917&#45;&gt;j3277309254 -->
<g id="edge5" class="edge">
<title>j4065702917&#45;&gt;j3277309254</title>
<path fill="none" stroke="black" d="M1920.72,-1301.91C1949.13,-1291.81 1991.86,-1276.63 2026.82,-1264.21"/>
<polygon fill="black" stroke="black" points="2027.71,-1267.6 2035.96,-1260.96 2025.37,-1261.01 2027.71,-1267.6"/>
</g>
<!-- j2267693737 -->
<g id="node7" class="node">
<title>j2267693737</title>
<polygon fill="none" stroke="blue" points="1234,-1188 1129,-1188 1129,-1152 1234,-1152 1234,-1188"/>
<text text-anchor="middle" x="1181.5" y="-1166.3" font-family="Times New Roman,serif" font-size="14.00">Pregunta astuta.</text>
</g>
<!-- j3885267624&#45;&gt;j2267693737 -->
<g id="edge6" class="edge">
<title>j3885267624&#45;&gt;j2267693737</title>
<path fill="none" stroke="black" d="M1438.83,-1223.52C1378.9,-1211.29 1300.14,-1195.21 1245.61,-1184.08"/>
<polygon fill="black" stroke="black" points="1246.34,-1180.66 1235.84,-1182.09 1244.94,-1187.52 1246.34,-1180.66"/>
</g>
<!-- j3852721240 -->
<g id="node8" class="node">
<title>j3852721240</title>
<polygon fill="none" stroke="blue" points="2071,-684 1708,-684 1708,-648 2071,-648 2071,-684"/>
<text text-anchor="middle" x="1889.5" y="-662.3" font-family="Times New Roman,serif" font-size="14.00">¿Estás preguntando por preocupación o por mera curiosidad?</text>
</g>
<!-- j3572927585&#45;&gt;j3852721240 -->
<g id="edge7" class="edge">
<title>j3572927585&#45;&gt;j3852721240</title>
<path fill="none" stroke="black" d="M1889.5,-1079.51C1889.5,-1052.71 1889.5,-999.87 1889.5,-955 1889.5,-955 1889.5,-955 1889.5,-809 1889.5,-769.74 1889.5,-724.38 1889.5,-695.69"/>
<polygon fill="black" stroke="black" points="1893,-696 1889.5,-686 1886,-696 1893,-696"/>
</g>
<!-- j2822268829 -->
<g id="node9" class="node">
<title>j2822268829</title>
<polygon fill="none" stroke="blue" points="2227.5,-1188 2039.5,-1188 2039.5,-1152 2227.5,-1152 2227.5,-1188"/>
<text text-anchor="middle" x="2133.5" y="-1166.3" font-family="Times New Roman,serif" font-size="14.00">Viva y ahora un poco molesta.</text>
</g>
<!-- j3277309254&#45;&gt;j2822268829 -->
<g id="edge8" class="edge">
<title>j3277309254&#45;&gt;j2822268829</title>
<path fill="none" stroke="black" d="M2098.12,-1223.7C2103.41,-1215.81 2109.8,-1206.3 2115.68,-1197.55"/>
<polygon fill="black" stroke="black" points="2118.5,-1199.61 2121.17,-1189.36 2112.69,-1195.71 2118.5,-1199.61"/>
</g>
<!-- j1785597903 -->
<g id="node10" class="node">
<title>j1785597903</title>
<polygon fill="none" stroke="blue" points="1281,-1116 976,-1116 976,-1080 1281,-1080 1281,-1116"/>
<text text-anchor="middle" x="1128.5" y="-1094.3" font-family="Times New Roman,serif" font-size="14.00">Honestamente, se trata de dos cosas: control y arte.</text>
</g>
<!-- j2267693737&#45;&gt;j1785597903 -->
<g id="edge9" class="edge">
<title>j2267693737&#45;&gt;j1785597903</title>
<path fill="none" stroke="black" d="M1168.4,-1151.7C1162.37,-1143.73 1155.08,-1134.1 1148.39,-1125.26"/>
<polygon fill="black" stroke="black" points="1151.19,-1123.17 1142.36,-1117.31 1145.61,-1127.4 1151.19,-1123.17"/>
</g>
<!-- j1108694146 -->
<g id="node11" class="node">
<title>j1108694146</title>
<polygon fill="none" stroke="red" points="2024.5,-612 1926.5,-612 1926.5,-576 2024.5,-576 2024.5,-612"/>
<text text-anchor="middle" x="1975.5" y="-590.3" font-family="Times New Roman,serif" font-size="14.00">Preocupación.</text>
</g>
<!-- j3852721240&#45;&gt;j1108694146 -->
<g id="edge10" class="edge">
<title>j3852721240&#45;&gt;j1108694146</title>
<path fill="none" stroke="black" d="M1910.76,-647.7C1921.2,-639.2 1933.96,-628.81 1945.38,-619.51"/>
<polygon fill="black" stroke="black" points="1947.47,-622.33 1953.01,-613.3 1943.05,-616.9 1947.47,-622.33"/>
</g>
<!-- j1946727447 -->
<g id="node12" class="node">
<title>j1946727447</title>
<polygon fill="none" stroke="red" points="1842.5,-612 1680.5,-612 1680.5,-576 1842.5,-576 1842.5,-612"/>
<text text-anchor="middle" x="1761.5" y="-590.3" font-family="Times New Roman,serif" font-size="14.00">Por pura curiosidad. [Fin]</text>
</g>
<!-- j3852721240&#45;&gt;j1946727447 -->
<g id="edge11" class="edge">
<title>j3852721240&#45;&gt;j1946727447</title>
<path fill="none" stroke="black" d="M1857.53,-647.52C1841.07,-638.51 1820.79,-627.42 1803.12,-617.76"/>
<polygon fill="black" stroke="black" points="1804.84,-614.71 1794.39,-612.99 1801.48,-620.86 1804.84,-614.71"/>
</g>
<!-- j2176921702 -->
<g id="node13" class="node">
<title>j2176921702</title>
<polygon fill="none" stroke="blue" points="2197.5,-1044 2143.5,-1044 2143.5,-1008 2197.5,-1008 2197.5,-1044"/>
<text text-anchor="middle" x="2170.5" y="-1022.3" font-family="Times New Roman,serif" font-size="14.00">Chao.</text>
</g>
<!-- j2822268829&#45;&gt;j2176921702 -->
<g id="edge12" class="edge">
<title>j2822268829&#45;&gt;j2176921702</title>
<path fill="none" stroke="black" d="M2138.04,-1151.59C2144.31,-1127.5 2155.71,-1083.75 2163.2,-1055.03"/>
<polygon fill="black" stroke="black" points="2166.53,-1056.13 2165.66,-1045.58 2159.75,-1054.37 2166.53,-1056.13"/>
</g>
<!-- j698344105 -->
<g id="node14" class="node">
<title>j698344105</title>
<polygon fill="none" stroke="red" points="823,-972 638,-972 638,-936 823,-936 823,-972"/>
<text text-anchor="middle" x="730.5" y="-950.3" font-family="Times New Roman,serif" font-size="14.00">¿La telepatía no te da control?</text>
</g>
<!-- j1785597903&#45;&gt;j698344105 -->
<g id="edge13" class="edge">
<title>j1785597903&#45;&gt;j698344105</title>
<path fill="none" stroke="black" d="M1079.7,-1079.59C1006.64,-1053.52 869.02,-1004.42 790.12,-976.27"/>
<polygon fill="black" stroke="black" points="791.41,-973.02 780.82,-972.95 789.06,-979.61 791.41,-973.02"/>
</g>
<!-- j1661221914 -->
<g id="node15" class="node">
<title>j1661221914</title>
<polygon fill="none" stroke="red" points="1262.5,-1044 994.5,-1044 994.5,-1008 1262.5,-1008 1262.5,-1044"/>
<text text-anchor="middle" x="1128.5" y="-1022.3" font-family="Times New Roman,serif" font-size="14.00">¿Cómo un mensaje de chat puede ser “arte”?</text>
</g>
<!-- j1785597903&#45;&gt;j1661221914 -->
<g id="edge14" class="edge">
<title>j1785597903&#45;&gt;j1661221914</title>
<path fill="none" stroke="black" d="M1128.5,-1079.7C1128.5,-1072.41 1128.5,-1063.73 1128.5,-1055.54"/>
<polygon fill="black" stroke="black" points="1132,-1055.62 1128.5,-1045.62 1125,-1055.62 1132,-1055.62"/>
</g>
<!-- j1986766662 -->
<g id="node16" class="node">
<title>j1986766662</title>
<polygon fill="none" stroke="blue" points="2057.5,-540 1959.5,-540 1959.5,-504 2057.5,-504 2057.5,-540"/>
<text text-anchor="middle" x="2008.5" y="-518.3" font-family="Times New Roman,serif" font-size="14.00">Ah, qué dulce.</text>
</g>
<!-- j1108694146&#45;&gt;j1986766662 -->
<g id="edge15" class="edge">
<title>j1108694146&#45;&gt;j1986766662</title>
<path fill="none" stroke="black" d="M1983.66,-575.7C1987.25,-568.07 1991.57,-558.92 1995.58,-550.4"/>
<polygon fill="black" stroke="black" points="1998.69,-552.01 1999.79,-541.47 1992.36,-549.03 1998.69,-552.01"/>
</g>
<!-- j3828303107 -->
<g id="node17" class="node">
<title>j3828303107</title>
<polygon fill="none" stroke="blue" points="1941,-540 1514,-540 1514,-504 1941,-504 1941,-540"/>
<text text-anchor="middle" x="1727.5" y="-518.3" font-family="Times New Roman,serif" font-size="14.00">¿Puedo sugerirte que encuentres algo mejor con lo que ocupar tu tiempo?</text>
</g>
<!-- j1946727447&#45;&gt;j3828303107 -->
<g id="edge16" class="edge">
<title>j1946727447&#45;&gt;j3828303107</title>
<path fill="none" stroke="black" d="M1753.1,-575.7C1749.39,-568.07 1744.94,-558.92 1740.81,-550.4"/>
<polygon fill="black" stroke="black" points="1743.99,-548.93 1736.47,-541.47 1737.69,-551.99 1743.99,-548.93"/>
</g>
<!-- Chat ends. -->
<g id="node18" class="node">
<title>Chat ends.</title>
<ellipse fill="none" stroke="orange" cx="1620.5" cy="-18" rx="50.09" ry="18"/>
<text text-anchor="middle" x="1620.5" y="-14.3" font-family="Times New Roman,serif" font-size="14.00">Chat ends.</text>
</g>
<!-- j2176921702&#45;&gt;Chat ends. -->
<g id="edge17" class="edge">
<title>j2176921702&#45;&gt;Chat ends.</title>
<path fill="none" stroke="black" d="M2188.25,-1007.51C2211.82,-982.34 2250.5,-933.37 2250.5,-883 2250.5,-883 2250.5,-883 2250.5,-161 2250.5,-45.26 1840.74,-23.85 1682.15,-19.89"/>
<polygon fill="black" stroke="black" points="1682.32,-16.4 1672.24,-19.66 1682.15,-23.39 1682.32,-16.4"/>
</g>
<!-- j213897787 -->
<g id="node19" class="node">
<title>j213897787</title>
<polygon fill="none" stroke="blue" points="893.5,-900 555.5,-900 555.5,-864 893.5,-864 893.5,-900"/>
<text text-anchor="middle" x="724.5" y="-878.3" font-family="Times New Roman,serif" font-size="14.00">Mira, me educaron para ser cortés. Es una cosa británica.</text>
</g>
<!-- j698344105&#45;&gt;j213897787 -->
<g id="edge18" class="edge">
<title>j698344105&#45;&gt;j213897787</title>
<path fill="none" stroke="black" d="M729.02,-935.7C728.39,-928.41 727.65,-919.73 726.95,-911.54"/>
<polygon fill="black" stroke="black" points="730.44,-911.28 726.1,-901.61 723.46,-911.87 730.44,-911.28"/>
</g>
<!-- j1196284436 -->
<g id="node20" class="node">
<title>j1196284436</title>
<polygon fill="none" stroke="blue" points="1413,-972 844,-972 844,-936 1413,-936 1413,-972"/>
<text text-anchor="middle" x="1128.5" y="-950.3" font-family="Times New Roman,serif" font-size="14.00">Porque tengo que componer cada frase. No puedo simplemente vaciar un significado en tu cabeza.</text>
</g>
<!-- j1661221914&#45;&gt;j1196284436 -->
<g id="edge19" class="edge">
<title>j1661221914&#45;&gt;j1196284436</title>
<path fill="none" stroke="black" d="M1128.5,-1007.7C1128.5,-1000.41 1128.5,-991.73 1128.5,-983.54"/>
<polygon fill="black" stroke="black" points="1132,-983.62 1128.5,-973.62 1125,-983.62 1132,-983.62"/>
</g>
<!-- j1664527587 -->
<g id="node21" class="node">
<title>j1664527587</title>
<polygon fill="none" stroke="blue" points="2165.5,-468 1851.5,-468 1851.5,-432 2165.5,-432 2165.5,-468"/>
<text text-anchor="middle" x="2008.5" y="-446.3" font-family="Times New Roman,serif" font-size="14.00">Soy, después de todo, la viva imagen de la fragilidad.</text>
</g>
<!-- j1986766662&#45;&gt;j1664527587 -->
<g id="edge20" class="edge">
<title>j1986766662&#45;&gt;j1664527587</title>
<path fill="none" stroke="black" d="M2008.5,-503.7C2008.5,-496.41 2008.5,-487.73 2008.5,-479.54"/>
<polygon fill="black" stroke="black" points="2012,-479.62 2008.5,-469.62 2005,-479.62 2012,-479.62"/>
</g>
<!-- j266448117 -->
<g id="node22" class="node">
<title>j266448117</title>
<polygon fill="none" stroke="blue" points="1819.5,-468 1451.5,-468 1451.5,-432 1819.5,-432 1819.5,-468"/>
<text text-anchor="middle" x="1635.5" y="-446.3" font-family="Times New Roman,serif" font-size="14.00">Intenta acercarte a Arthur y preguntarle sobre sus hemorroides.</text>
</g>
<!-- j3828303107&#45;&gt;j266448117 -->
<g id="edge21" class="edge">
<title>j3828303107&#45;&gt;j266448117</title>
<path fill="none" stroke="black" d="M1704.76,-503.7C1693.48,-495.11 1679.67,-484.61 1667.36,-475.24"/>
<polygon fill="black" stroke="black" points="1669.58,-472.53 1659.5,-469.26 1665.34,-478.1 1669.58,-472.53"/>
</g>
<!-- j2355766184 -->
<g id="node23" class="node">
<title>j2355766184</title>
<polygon fill="none" stroke="blue" points="949.5,-828 487.5,-828 487.5,-792 949.5,-792 949.5,-828"/>
<text text-anchor="middle" x="718.5" y="-806.3" font-family="Times New Roman,serif" font-size="14.00">La cortesía consiste en no dejar que la otra persona sepa lo que sientes por ella.</text>
</g>
<!-- j213897787&#45;&gt;j2355766184 -->
<g id="edge22" class="edge">
<title>j213897787&#45;&gt;j2355766184</title>
<path fill="none" stroke="black" d="M723.02,-863.7C722.39,-856.41 721.65,-847.73 720.95,-839.54"/>
<polygon fill="black" stroke="black" points="724.44,-839.28 720.1,-829.61 717.46,-839.87 724.44,-839.28"/>
</g>
<!-- j3358035063 -->
<g id="node24" class="node">
<title>j3358035063</title>
<polygon fill="none" stroke="blue" points="1237.5,-900 1019.5,-900 1019.5,-864 1237.5,-864 1237.5,-900"/>
<text text-anchor="middle" x="1128.5" y="-878.3" font-family="Times New Roman,serif" font-size="14.00">Eso sería fácil. Perezoso. Aburrido.</text>
</g>
<!-- j1196284436&#45;&gt;j3358035063 -->
<g id="edge23" class="edge">
<title>j1196284436&#45;&gt;j3358035063</title>
<path fill="none" stroke="black" d="M1128.5,-935.7C1128.5,-928.41 1128.5,-919.73 1128.5,-911.54"/>
<polygon fill="black" stroke="black" points="1132,-911.62 1128.5,-901.62 1125,-911.62 1132,-911.62"/>
</g>
<!-- j1275762840 -->
<g id="node25" class="node">
<title>j1275762840</title>
<polygon fill="none" stroke="blue" points="2213,-396 1804,-396 1804,-360 2213,-360 2213,-396"/>
<text text-anchor="middle" x="2008.5" y="-374.3" font-family="Times New Roman,serif" font-size="14.00">¿Quizás te gustaría secarme la frente mientras me recuesto en mi sofá?</text>
</g>
<!-- j1664527587&#45;&gt;j1275762840 -->
<g id="edge24" class="edge">
<title>j1664527587&#45;&gt;j1275762840</title>
<path fill="none" stroke="black" d="M2008.5,-431.7C2008.5,-424.41 2008.5,-415.73 2008.5,-407.54"/>
<polygon fill="black" stroke="black" points="2012,-407.62 2008.5,-397.62 2005,-407.62 2012,-407.62"/>
</g>
<!-- j2200897694 -->
<g id="node26" class="node">
<title>j2200897694</title>
<polygon fill="none" stroke="blue" points="1827,-108 1414,-108 1414,-72 1827,-72 1827,-108"/>
<text text-anchor="middle" x="1620.5" y="-86.3" font-family="Times New Roman,serif" font-size="14.00">Esta es tu primera y única advertencia. No soy un objeto de exhibición.</text>
</g>
<!-- j266448117&#45;&gt;j2200897694 -->
<g id="edge25" class="edge">
<title>j266448117&#45;&gt;j2200897694</title>
<path fill="none" stroke="black" d="M1632.46,-431.57C1628.08,-404.86 1620.5,-352.12 1620.5,-307 1620.5,-307 1620.5,-307 1620.5,-233 1620.5,-193.74 1620.5,-148.38 1620.5,-119.69"/>
<polygon fill="black" stroke="black" points="1624,-120 1620.5,-110 1617,-120 1624,-120"/>
</g>
<!-- j3812339073 -->
<g id="node27" class="node">
<title>j3812339073</title>
<polygon fill="none" stroke="blue" points="928.5,-756 500.5,-756 500.5,-720 928.5,-720 928.5,-756"/>
<text text-anchor="middle" x="714.5" y="-734.3" font-family="Times New Roman,serif" font-size="14.00">Lo cual es difícil cuando tu mente está efectivamente conectada a la suya.</text>
</g>
<!-- j2355766184&#45;&gt;j3812339073 -->
<g id="edge26" class="edge">
<title>j2355766184&#45;&gt;j3812339073</title>
<path fill="none" stroke="black" d="M717.51,-791.7C717.09,-784.41 716.6,-775.73 716.13,-767.54"/>
<polygon fill="black" stroke="black" points="719.63,-767.4 715.56,-757.62 712.64,-767.8 719.63,-767.4"/>
</g>
<!-- j250335538 -->
<g id="node28" class="node">
<title>j250335538</title>
<polygon fill="none" stroke="blue" points="1287.5,-828 969.5,-828 969.5,-792 1287.5,-792 1287.5,-828"/>
<text text-anchor="middle" x="1128.5" y="-806.3" font-family="Times New Roman,serif" font-size="14.00">La telepatía es tan sutil como una patada en el trasero.</text>
</g>
<!-- j3358035063&#45;&gt;j250335538 -->
<g id="edge27" class="edge">
<title>j3358035063&#45;&gt;j250335538</title>
<path fill="none" stroke="black" d="M1128.5,-863.7C1128.5,-856.41 1128.5,-847.73 1128.5,-839.54"/>
<polygon fill="black" stroke="black" points="1132,-839.62 1128.5,-829.62 1125,-839.62 1132,-839.62"/>
</g>
<!-- j4280621166 -->
<g id="node29" class="node">
<title>j4280621166</title>
<polygon fill="none" stroke="red" points="1799,-324 1740,-324 1740,-288 1799,-288 1799,-324"/>
<text text-anchor="middle" x="1769.5" y="-302.3" font-family="Times New Roman,serif" font-size="14.00">Quizás.</text>
</g>
<!-- j1275762840&#45;&gt;j4280621166 -->
<g id="edge28" class="edge">
<title>j1275762840&#45;&gt;j4280621166</title>
<path fill="none" stroke="black" d="M1948.81,-359.52C1905.52,-346.84 1848.12,-330.03 1810.06,-318.88"/>
<polygon fill="black" stroke="black" points="1811.42,-315.63 1800.84,-316.18 1809.45,-322.35 1811.42,-315.63"/>
</g>
<!-- j3491238751 -->
<g id="node30" class="node">
<title>j3491238751</title>
<polygon fill="none" stroke="red" points="2142.5,-324 1874.5,-324 1874.5,-288 2142.5,-288 2142.5,-324"/>
<text text-anchor="middle" x="2008.5" y="-302.3" font-family="Times New Roman,serif" font-size="14.00">No dije que fuera preocupación por TI. [Fin]</text>
</g>
<!-- j1275762840&#45;&gt;j3491238751 -->
<g id="edge29" class="edge">
<title>j1275762840&#45;&gt;j3491238751</title>
<path fill="none" stroke="black" d="M2008.5,-359.7C2008.5,-352.41 2008.5,-343.73 2008.5,-335.54"/>
<polygon fill="black" stroke="black" points="2012,-335.62 2008.5,-325.62 2005,-335.62 2012,-335.62"/>
</g>
<!-- j2200897694&#45;&gt;Chat ends. -->
<g id="edge30" class="edge">
<title>j2200897694&#45;&gt;Chat ends.</title>
<path fill="none" stroke="black" d="M1620.5,-71.7C1620.5,-64.41 1620.5,-55.73 1620.5,-47.54"/>
<polygon fill="black" stroke="black" points="1624,-47.62 1620.5,-37.62 1617,-47.62 1624,-47.62"/>
</g>
<!-- j2386121666 -->
<g id="node31" class="node">
<title>j2386121666</title>
<polygon fill="none" stroke="blue" points="942.5,-684 472.5,-684 472.5,-648 942.5,-648 942.5,-684"/>
<text text-anchor="middle" x="707.5" y="-662.3" font-family="Times New Roman,serif" font-size="14.00">Por ejemplo, ahora mismo podría sentirme con ganas de arrancarte las entrañas...</text>
</g>
<!-- j3812339073&#45;&gt;j2386121666 -->
<g id="edge31" class="edge">
<title>j3812339073&#45;&gt;j2386121666</title>
<path fill="none" stroke="black" d="M712.77,-719.7C712.04,-712.41 711.17,-703.73 710.35,-695.54"/>
<polygon fill="black" stroke="black" points="713.84,-695.21 709.36,-685.61 706.87,-695.91 713.84,-695.21"/>
</g>
<!-- j1411607345 -->
<g id="node32" class="node">
<title>j1411607345</title>
<polygon fill="none" stroke="blue" points="1278.5,-756 978.5,-756 978.5,-720 1278.5,-720 1278.5,-756"/>
<text text-anchor="middle" x="1128.5" y="-734.3" font-family="Times New Roman,serif" font-size="14.00">En comparación, el mensaje de texto es fascinante.</text>
</g>
<!-- j250335538&#45;&gt;j1411607345 -->
<g id="edge32" class="edge">
<title>j250335538&#45;&gt;j1411607345</title>
<path fill="none" stroke="black" d="M1128.5,-791.7C1128.5,-784.41 1128.5,-775.73 1128.5,-767.54"/>
<polygon fill="black" stroke="black" points="1132,-767.62 1128.5,-757.62 1125,-767.62 1132,-767.62"/>
</g>
<!-- j606177751 -->
<g id="node33" class="node">
<title>j606177751</title>
<ellipse fill="none" stroke="orange" cx="1712.5" cy="-234" rx="64.19" ry="18"/>
<text text-anchor="middle" x="1712.5" y="-230.3" font-family="Times New Roman,serif" font-size="14.00">+10 Chemistry</text>
</g>
<!-- j4280621166&#45;&gt;j606177751 -->
<g id="edge33" class="edge">
<title>j4280621166&#45;&gt;j606177751</title>
<path fill="none" stroke="black" d="M1755.41,-287.7C1748.68,-279.44 1740.51,-269.39 1733.1,-260.3"/>
<polygon fill="black" stroke="black" points="1736.02,-258.34 1726.99,-252.8 1730.59,-262.76 1736.02,-258.34"/>
</g>
<!-- j407822878 -->
<g id="node34" class="node">
<title>j407822878</title>
<polygon fill="none" stroke="blue" points="2222.5,-252 1794.5,-252 1794.5,-216 2222.5,-216 2222.5,-252"/>
<text text-anchor="middle" x="2008.5" y="-230.3" font-family="Times New Roman,serif" font-size="14.00">¡Ah! Estás teniendo precaución. Me tratas como la temible lamia que soy.</text>
</g>
<!-- j3491238751&#45;&gt;j407822878 -->
<g id="edge34" class="edge">
<title>j3491238751&#45;&gt;j407822878</title>
<path fill="none" stroke="black" d="M2008.5,-287.7C2008.5,-280.41 2008.5,-271.73 2008.5,-263.54"/>
<polygon fill="black" stroke="black" points="2012,-263.62 2008.5,-253.62 2005,-263.62 2012,-263.62"/>
</g>
<!-- j1859265436 -->
<g id="node35" class="node">
<title>j1859265436</title>
<polygon fill="none" stroke="blue" points="952.5,-612 434.5,-612 434.5,-576 952.5,-576 952.5,-612"/>
<text text-anchor="middle" x="693.5" y="-590.3" font-family="Times New Roman,serif" font-size="14.00">... o sentirme emocionada como una colegiala porque finalmente estás hablando conmigo.</text>
</g>
<!-- j2386121666&#45;&gt;j1859265436 -->
<g id="edge35" class="edge">
<title>j2386121666&#45;&gt;j1859265436</title>
<path fill="none" stroke="black" d="M704.04,-647.7C702.56,-640.32 700.8,-631.52 699.15,-623.25"/>
<polygon fill="black" stroke="black" points="702.61,-622.71 697.22,-613.59 695.75,-624.08 702.61,-622.71"/>
</g>
<!-- j2327206939 -->
<g id="node36" class="node">
<title>j2327206939</title>
<polygon fill="none" stroke="blue" points="1229,-684 1028,-684 1028,-648 1229,-648 1229,-684"/>
<text text-anchor="middle" x="1128.5" y="-662.3" font-family="Times New Roman,serif" font-size="14.00">En gran parte por lo que no dice.</text>
</g>
<!-- j1411607345&#45;&gt;j2327206939 -->
<g id="edge36" class="edge">
<title>j1411607345&#45;&gt;j2327206939</title>
<path fill="none" stroke="black" d="M1128.5,-719.7C1128.5,-712.41 1128.5,-703.73 1128.5,-695.54"/>
<polygon fill="black" stroke="black" points="1132,-695.62 1128.5,-685.62 1125,-695.62 1132,-695.62"/>
</g>
<!-- j3065979412 -->
<g id="node37" class="node">
<title>j3065979412</title>
<polygon fill="none" stroke="blue" points="1779,-180 1688,-180 1688,-144 1779,-144 1779,-180"/>
<text text-anchor="middle" x="1733.5" y="-158.3" font-family="Times New Roman,serif" font-size="14.00">Ten cuidado.</text>
</g>
<!-- j606177751&#45;&gt;j3065979412 -->
<g id="edge37" class="edge">
<title>j606177751&#45;&gt;j3065979412</title>
<path fill="none" stroke="black" d="M1717.69,-215.7C1719.93,-208.24 1722.6,-199.32 1725.11,-190.97"/>
<polygon fill="black" stroke="black" points="1728.41,-192.14 1727.93,-181.55 1721.71,-190.13 1728.41,-192.14"/>
</g>
<!-- j3777849919 -->
<g id="node38" class="node">
<title>j3777849919</title>
<polygon fill="none" stroke="blue" points="2159.5,-180 1831.5,-180 1831.5,-144 2159.5,-144 2159.5,-180"/>
<text text-anchor="middle" x="1995.5" y="-158.3" font-family="Times New Roman,serif" font-size="14.00">Deberías haberme conocido ANTES de estar infestada.</text>
</g>
<!-- j407822878&#45;&gt;j3777849919 -->
<g id="edge38" class="edge">
<title>j407822878&#45;&gt;j3777849919</title>
<path fill="none" stroke="black" d="M2005.29,-215.7C2003.92,-208.32 2002.28,-199.52 2000.75,-191.25"/>
<polygon fill="black" stroke="black" points="2004.22,-190.79 1998.95,-181.59 1997.34,-192.06 2004.22,-190.79"/>
</g>
<!-- j2366180538 -->
<g id="node39" class="node">
<title>j2366180538</title>
<polygon fill="none" stroke="blue" points="855,-396 472,-396 472,-360 855,-360 855,-396"/>
<text text-anchor="middle" x="663.5" y="-374.3" font-family="Times New Roman,serif" font-size="14.00">No lo sabes, pero si fuera una conversación telepática, lo sabrías.</text>
</g>
<!-- j1859265436&#45;&gt;j2366180538 -->
<g id="edge39" class="edge">
<title>j1859265436&#45;&gt;j2366180538</title>
<path fill="none" stroke="black" d="M691.1,-575.85C685.95,-539.14 673.83,-452.66 667.5,-407.53"/>
<polygon fill="black" stroke="black" points="670.98,-407.15 666.13,-397.73 664.05,-408.12 670.98,-407.15"/>
</g>
<!-- j2223531357 -->
<g id="node40" class="node">
<title>j2223531357</title>
<polygon fill="none" stroke="red" points="1194.5,-612 1062.5,-612 1062.5,-576 1194.5,-576 1194.5,-612"/>
<text text-anchor="middle" x="1128.5" y="-590.3" font-family="Times New Roman,serif" font-size="14.00">¿&quot;Leer entre líneas&quot;?</text>
</g>
<!-- j2327206939&#45;&gt;j2223531357 -->
<g id="edge40" class="edge">
<title>j2327206939&#45;&gt;j2223531357</title>
<path fill="none" stroke="black" d="M1128.5,-647.7C1128.5,-640.41 1128.5,-631.73 1128.5,-623.54"/>
<polygon fill="black" stroke="black" points="1132,-623.62 1128.5,-613.62 1125,-623.62 1132,-623.62"/>
</g>
<!-- j3760719303 -->
<g id="node41" class="node">
<title>j3760719303</title>
<polygon fill="none" stroke="blue" points="1929.5,-108 1845.5,-108 1845.5,-72 1929.5,-72 1929.5,-108"/>
<text text-anchor="middle" x="1887.5" y="-86.3" font-family="Times New Roman,serif" font-size="14.00">Yo muerdo.</text>
</g>
<!-- j3065979412&#45;&gt;j3760719303 -->
<g id="edge41" class="edge">
<title>j3065979412&#45;&gt;j3760719303</title>
<path fill="none" stroke="black" d="M1771.96,-143.52C1792.25,-134.29 1817.35,-122.89 1838.97,-113.06"/>
<polygon fill="black" stroke="black" points="1840.23,-116.33 1847.88,-109.01 1837.33,-109.96 1840.23,-116.33"/>
</g>
<!-- j3777849919&#45;&gt;Chat ends. -->
<g id="edge42" class="edge">
<title>j3777849919&#45;&gt;Chat ends.</title>
<path fill="none" stroke="black" d="M1989.48,-143.79C1981.32,-123.18 1964.69,-89.28 1938.5,-72 1897.14,-44.72 1760.9,-29.82 1680.79,-23.23"/>
<polygon fill="black" stroke="black" points="1681.15,-19.75 1670.9,-22.44 1680.59,-26.72 1681.15,-19.75"/>
</g>
<!-- j1773144116 -->
<g id="node42" class="node">
<title>j1773144116</title>
<polygon fill="none" stroke="red" points="880,-324 581,-324 581,-288 880,-288 880,-324"/>
<text text-anchor="middle" x="730.5" y="-302.3" font-family="Times New Roman,serif" font-size="14.00">¿Entonces se trata de no mostrar tus sentimientos?</text>
</g>
<!-- j2366180538&#45;&gt;j1773144116 -->
<g id="edge43" class="edge">
<title>j2366180538&#45;&gt;j1773144116</title>
<path fill="none" stroke="black" d="M680.06,-359.7C687.93,-351.47 697.49,-341.48 706.17,-332.42"/>
<polygon fill="black" stroke="black" points="708.7,-334.84 713.08,-325.2 703.64,-330 708.7,-334.84"/>
</g>
<!-- j3037079421 -->
<g id="node43" class="node">
<title>j3037079421</title>
<polygon fill="none" stroke="red" points="498,-324 139,-324 139,-288 498,-288 498,-324"/>
<text text-anchor="middle" x="318.5" y="-302.3" font-family="Times New Roman,serif" font-size="14.00">Suena a que prefieres esconderte detrás de una pantalla. [Fin]</text>
</g>
<!-- j2366180538&#45;&gt;j3037079421 -->
<g id="edge44" class="edge">
<title>j2366180538&#45;&gt;j3037079421</title>
<path fill="none" stroke="black" d="M577.33,-359.52C528.15,-349.54 466.36,-337 415.48,-326.68"/>
<polygon fill="black" stroke="black" points="416.45,-323.3 405.95,-324.74 415.05,-330.16 416.45,-323.3"/>
</g>
<!-- j2635422591 -->
<g id="node44" class="node">
<title>j2635422591</title>
<polygon fill="none" stroke="blue" points="1495.5,-540 761.5,-540 761.5,-504 1495.5,-504 1495.5,-540"/>
<text text-anchor="middle" x="1128.5" y="-518.3" font-family="Times New Roman,serif" font-size="14.00">Exactamente. Antes de Höllvania, antes del techrot, dependía del texto para ganarme la vida. Ahora es solo un lujo. Un capricho.</text>
</g>
<!-- j2223531357&#45;&gt;j2635422591 -->
<g id="edge45" class="edge">
<title>j2223531357&#45;&gt;j2635422591</title>
<path fill="none" stroke="black" d="M1128.5,-575.7C1128.5,-568.41 1128.5,-559.73 1128.5,-551.54"/>
<polygon fill="black" stroke="black" points="1132,-551.62 1128.5,-541.62 1125,-551.62 1132,-551.62"/>
</g>
<!-- j3760719303&#45;&gt;Chat ends. -->
<g id="edge46" class="edge">
<title>j3760719303&#45;&gt;Chat ends.</title>
<path fill="none" stroke="black" d="M1845,-74.55C1842.13,-73.66 1839.28,-72.8 1836.5,-72 1781.39,-56.08 1717.5,-40.79 1673.58,-30.76"/>
<polygon fill="black" stroke="black" points="1674.58,-27.4 1664.05,-28.6 1673.03,-34.22 1674.58,-27.4"/>
</g>
<!-- j3910513675 -->
<g id="node45" class="node">
<title>j3910513675</title>
<polygon fill="none" stroke="blue" points="1070,-252 525,-252 525,-216 1070,-216 1070,-252"/>
<text text-anchor="middle" x="797.5" y="-230.3" font-family="Times New Roman,serif" font-size="14.00">Hasta que yo lo decida, sí. Quizá sea una tontería intentar ser civilizada en este agujero. Pero...</text>
</g>
<!-- j1773144116&#45;&gt;j3910513675 -->
<g id="edge47" class="edge">
<title>j1773144116&#45;&gt;j3910513675</title>
<path fill="none" stroke="black" d="M747.06,-287.7C754.93,-279.47 764.49,-269.48 773.17,-260.42"/>
<polygon fill="black" stroke="black" points="775.7,-262.84 780.08,-253.2 770.64,-258 775.7,-262.84"/>
</g>
<!-- j548304839 -->
<g id="node46" class="node">
<title>j548304839</title>
<polygon fill="none" stroke="blue" points="507,-252 0,-252 0,-216 507,-216 507,-252"/>
<text text-anchor="middle" x="253.5" y="-230.3" font-family="Times New Roman,serif" font-size="14.00">¿Puedes culparme por aprovechar cada centímetro de privacidad que puedo conseguir?</text>
</g>
<!-- j3037079421&#45;&gt;j548304839 -->
<g id="edge48" class="edge">
<title>j3037079421&#45;&gt;j548304839</title>
<path fill="none" stroke="black" d="M302.43,-287.7C294.8,-279.47 285.52,-269.48 277.1,-260.42"/>
<polygon fill="black" stroke="black" points="279.78,-258.16 270.41,-253.21 274.65,-262.92 279.78,-258.16"/>
</g>
<!-- j381368093 -->
<g id="node47" class="node">
<title>j381368093</title>
<polygon fill="none" stroke="blue" points="1214,-468 1087,-468 1087,-432 1214,-432 1214,-468"/>
<text text-anchor="middle" x="1150.5" y="-446.3" font-family="Times New Roman,serif" font-size="14.00">Algo con qué jugar.</text>
</g>
<!-- j2635422591&#45;&gt;j381368093 -->
<g id="edge49" class="edge">
<title>j2635422591&#45;&gt;j381368093</title>
<path fill="none" stroke="black" d="M1133.94,-503.7C1136.28,-496.24 1139.08,-487.32 1141.71,-478.97"/>
<polygon fill="black" stroke="black" points="1145.01,-480.14 1144.67,-469.55 1138.33,-478.04 1145.01,-480.14"/>
</g>
<!-- j2710982673 -->
<g id="node48" class="node">
<title>j2710982673</title>
<ellipse fill="none" stroke="orange" cx="930.5" cy="-162" rx="64.19" ry="18"/>
<text text-anchor="middle" x="930.5" y="-158.3" font-family="Times New Roman,serif" font-size="14.00">+20 Chemistry</text>
</g>
<!-- j3910513675&#45;&gt;j2710982673 -->
<g id="edge50" class="edge">
<title>j3910513675&#45;&gt;j2710982673</title>
<path fill="none" stroke="black" d="M830.72,-215.52C849.11,-205.84 872.08,-193.75 891.34,-183.61"/>
<polygon fill="black" stroke="black" points="892.76,-186.82 899.98,-179.06 889.5,-180.62 892.76,-186.82"/>
</g>
<!-- j1687397079 -->
<g id="node49" class="node">
<title>j1687397079</title>
<polygon fill="none" stroke="blue" points="561.5,-180 317.5,-180 317.5,-144 561.5,-144 561.5,-180"/>
<text text-anchor="middle" x="439.5" y="-158.3" font-family="Times New Roman,serif" font-size="14.00">Está claro que tomé la decisión correcta.</text>
</g>
<!-- j548304839&#45;&gt;j1687397079 -->
<g id="edge51" class="edge">
<title>j548304839&#45;&gt;j1687397079</title>
<path fill="none" stroke="black" d="M299.96,-215.52C325.02,-206.08 356.15,-194.37 382.65,-184.39"/>
<polygon fill="black" stroke="black" points="383.77,-187.71 391.9,-180.91 381.31,-181.16 383.77,-187.71"/>
</g>
<!-- j2075539997 -->
<g id="node50" class="node">
<title>j2075539997</title>
<polygon fill="none" stroke="blue" points="1469.5,-396 873.5,-396 873.5,-360 1469.5,-360 1469.5,-396"/>
<text text-anchor="middle" x="1171.5" y="-374.3" font-family="Times New Roman,serif" font-size="14.00">Para pasar el tiempo mientras espero que mi cuerpo se convierta en una quimera que apenas reconozco.</text>
</g>
<!-- j381368093&#45;&gt;j2075539997 -->
<g id="edge52" class="edge">
<title>j381368093&#45;&gt;j2075539997</title>
<path fill="none" stroke="black" d="M1155.69,-431.7C1157.93,-424.24 1160.6,-415.32 1163.11,-406.97"/>
<polygon fill="black" stroke="black" points="1166.41,-408.14 1165.93,-397.55 1159.71,-406.13 1166.41,-408.14"/>
</g>
<!-- j364606324 -->
<g id="node51" class="node">
<title>j364606324</title>
<polygon fill="none" stroke="blue" points="1149,-108 712,-108 712,-72 1149,-72 1149,-108"/>
<text text-anchor="middle" x="930.5" y="-86.3" font-family="Times New Roman,serif" font-size="14.00">... todos tenemos nuestras pequeñas formas de mantenernos cuerdos, ¿no?</text>
</g>
<!-- j2710982673&#45;&gt;j364606324 -->
<g id="edge53" class="edge">
<title>j2710982673&#45;&gt;j364606324</title>
<path fill="none" stroke="black" d="M930.5,-143.7C930.5,-136.41 930.5,-127.73 930.5,-119.54"/>
<polygon fill="black" stroke="black" points="934,-119.62 930.5,-109.62 927,-119.62 934,-119.62"/>
</g>
<!-- j1687397079&#45;&gt;Chat ends. -->
<g id="edge54" class="edge">
<title>j1687397079&#45;&gt;Chat ends.</title>
<path fill="none" stroke="black" d="M479.58,-143.65C530.37,-122.56 621.11,-87.82 702.5,-72 867.26,-39.97 1380.71,-24.8 1558.87,-20.4"/>
<polygon fill="black" stroke="black" points="1558.94,-23.9 1568.85,-20.16 1558.77,-16.9 1558.94,-23.9"/>
</g>
<!-- j100410925 -->
<g id="node52" class="node">
<title>j100410925</title>
<polygon fill="none" stroke="red" points="1211.5,-324 1131.5,-324 1131.5,-288 1211.5,-288 1211.5,-324"/>
<text text-anchor="middle" x="1171.5" y="-302.3" font-family="Times New Roman,serif" font-size="14.00">¿Te ayuda?</text>
</g>
<!-- j2075539997&#45;&gt;j100410925 -->
<g id="edge55" class="edge">
<title>j2075539997&#45;&gt;j100410925</title>
<path fill="none" stroke="black" d="M1171.5,-359.7C1171.5,-352.41 1171.5,-343.73 1171.5,-335.54"/>
<polygon fill="black" stroke="black" points="1175,-335.62 1171.5,-325.62 1168,-335.62 1175,-335.62"/>
</g>
<!-- j1787661070 -->
<g id="node53" class="node">
<title>j1787661070</title>
<polygon fill="none" stroke="red" points="1396,-108 1167,-108 1167,-72 1396,-72 1396,-108"/>
<text text-anchor="middle" x="1281.5" y="-86.3" font-family="Times New Roman,serif" font-size="14.00">Umm... que te diviertas con eso. [Fin]</text>
</g>
<!-- j2075539997&#45;&gt;j1787661070 -->
<g id="edge56" class="edge">
<title>j2075539997&#45;&gt;j1787661070</title>
<path fill="none" stroke="black" d="M1189.94,-359.64C1212.26,-337.25 1248.71,-295.92 1263.5,-252 1278.46,-207.57 1281.57,-152.73 1281.92,-119.88"/>
<polygon fill="black" stroke="black" points="1285.42,-119.96 1281.93,-109.95 1278.42,-119.95 1285.42,-119.96"/>
</g>
<!-- j364606324&#45;&gt;Chat ends. -->
<g id="edge57" class="edge">
<title>j364606324&#45;&gt;Chat ends.</title>
<path fill="none" stroke="black" d="M1102.84,-71.52C1252.58,-56.33 1460.8,-35.2 1561.41,-24.99"/>
<polygon fill="black" stroke="black" points="1561.75,-28.48 1571.34,-23.99 1561.04,-21.51 1561.75,-28.48"/>
</g>
<!-- j2817449330 -->
<g id="node54" class="node">
<title>j2817449330</title>
<polygon fill="none" stroke="blue" points="1254.5,-252 1088.5,-252 1088.5,-216 1254.5,-216 1254.5,-252"/>
<text text-anchor="middle" x="1171.5" y="-230.3" font-family="Times New Roman,serif" font-size="14.00">Oh, sí. Después de todo...</text>
</g>
<!-- j100410925&#45;&gt;j2817449330 -->
<g id="edge58" class="edge">
<title>j100410925&#45;&gt;j2817449330</title>
<path fill="none" stroke="black" d="M1171.5,-287.7C1171.5,-280.41 1171.5,-271.73 1171.5,-263.54"/>
<polygon fill="black" stroke="black" points="1175,-263.62 1171.5,-253.62 1168,-263.62 1175,-263.62"/>
</g>
<!-- j1787661070&#45;&gt;Chat ends. -->
<g id="edge59" class="edge">
<title>j1787661070&#45;&gt;Chat ends.</title>
<path fill="none" stroke="black" d="M1366.17,-71.52C1429.15,-58.51 1513.19,-41.16 1567.09,-30.03"/>
<polygon fill="black" stroke="black" points="1567.54,-33.51 1576.63,-28.06 1566.13,-26.65 1567.54,-33.51"/>
</g>
<!-- j2817449330&#45;&gt;j2710982673 -->
<g id="edge60" class="edge">
<title>j2817449330&#45;&gt;j2710982673</title>
<path fill="none" stroke="black" d="M1111.31,-215.52C1072.48,-204.24 1022.39,-189.69 984.79,-178.77"/>
<polygon fill="black" stroke="black" points="986.07,-175.5 975.49,-176.07 984.12,-182.22 986.07,-175.5"/>
</g>
</g>
</svg>
