<?xml version="1.0" encoding="UTF-8" standalone="no"?>
<!DOCTYPE svg PUBLIC "-//W3C//DTD SVG 1.1//EN"
 "http://www.w3.org/Graphics/SVG/1.1/DTD/svg11.dtd">
<!-- Generated by graphviz version 7.1.0 (20230121.1956)
 -->
<!-- Pages: 1 -->
<svg width="4739pt" height="1556pt"
 viewBox="0.00 0.00 4739.00 1556.00" xmlns="http://www.w3.org/2000/svg" xmlns:xlink="http://www.w3.org/1999/xlink">
<g id="graph0" class="graph" transform="scale(1 1) rotate(0) translate(4 1552)">
<polygon fill="white" stroke="none" points="-4,4 -4,-1552 4735,-1552 4735,4 -4,4"/>
<!-- EleanorRank4Convo1 begins. -->
<g id="node1" class="node">
<title>EleanorRank4Convo1 begins.</title>
<ellipse fill="none" stroke="orange" cx="3226.5" cy="-1530" rx="118.88" ry="18"/>
<text text-anchor="middle" x="3226.5" y="-1526.3" font-family="Times New Roman,serif" font-size="14.00">EleanorRank4Convo1 begins.</text>
</g>
<!-- j3512845906 -->
<g id="node2" class="node">
<title>j3512845906</title>
<polygon fill="none" stroke="blue" points="3637,-1476 2816,-1476 2816,-1440 3637,-1440 3637,-1476"/>
<text text-anchor="middle" x="3226.5" y="-1454.3" font-family="Times New Roman,serif" font-size="14.00">Tengo que preguntarte algo y no creo que te guste. Creo que en el fondo ya sabías que esta conversación pasaría algún día, dada mi condición.</text>
</g>
<!-- EleanorRank4Convo1 begins.&#45;&gt;j3512845906 -->
<g id="edge1" class="edge">
<title>EleanorRank4Convo1 begins.&#45;&gt;j3512845906</title>
<path fill="none" stroke="black" d="M3226.5,-1511.7C3226.5,-1504.41 3226.5,-1495.73 3226.5,-1487.54"/>
<polygon fill="black" stroke="black" points="3230,-1487.62 3226.5,-1477.62 3223,-1487.62 3230,-1487.62"/>
</g>
<!-- j1746539623 -->
<g id="node3" class="node">
<title>j1746539623</title>
<polygon fill="none" stroke="blue" points="3429.5,-1404 3023.5,-1404 3023.5,-1368 3429.5,-1368 3429.5,-1404"/>
<text text-anchor="middle" x="3226.5" y="-1382.3" font-family="Times New Roman,serif" font-size="14.00">Confío en ti y me gustas, así que voy a decirlo sin más, ¿de acuerdo?</text>
</g>
<!-- j3512845906&#45;&gt;j1746539623 -->
<g id="edge2" class="edge">
<title>j3512845906&#45;&gt;j1746539623</title>
<path fill="none" stroke="black" d="M3226.5,-1439.7C3226.5,-1432.41 3226.5,-1423.73 3226.5,-1415.54"/>
<polygon fill="black" stroke="black" points="3230,-1415.62 3226.5,-1405.62 3223,-1415.62 3230,-1415.62"/>
</g>
<!-- j208403725 -->
<g id="node4" class="node">
<title>j208403725</title>
<polygon fill="none" stroke="blue" points="3412.5,-1332 3040.5,-1332 3040.5,-1296 3412.5,-1296 3412.5,-1332"/>
<text text-anchor="middle" x="3226.5" y="-1310.3" font-family="Times New Roman,serif" font-size="14.00">Realmente no tengo derecho a preguntar, pero necesito saberlo.</text>
</g>
<!-- j1746539623&#45;&gt;j208403725 -->
<g id="edge3" class="edge">
<title>j1746539623&#45;&gt;j208403725</title>
<path fill="none" stroke="black" d="M3226.5,-1367.7C3226.5,-1360.41 3226.5,-1351.73 3226.5,-1343.54"/>
<polygon fill="black" stroke="black" points="3230,-1343.62 3226.5,-1333.62 3223,-1343.62 3230,-1343.62"/>
</g>
<!-- j3700788491 -->
<g id="node5" class="node">
<title>j3700788491</title>
<polygon fill="none" stroke="blue" points="3545.5,-1260 2907.5,-1260 2907.5,-1224 3545.5,-1224 3545.5,-1260"/>
<text text-anchor="middle" x="3226.5" y="-1238.3" font-family="Times New Roman,serif" font-size="14.00">Si me transformara por completo, si el Techrot me tomara y ya no fuera la Eleanor que conoces, ¿me matarías?</text>
</g>
<!-- j208403725&#45;&gt;j3700788491 -->
<g id="edge4" class="edge">
<title>j208403725&#45;&gt;j3700788491</title>
<path fill="none" stroke="black" d="M3226.5,-1295.7C3226.5,-1288.41 3226.5,-1279.73 3226.5,-1271.54"/>
<polygon fill="black" stroke="black" points="3230,-1271.62 3226.5,-1261.62 3223,-1271.62 3230,-1271.62"/>
</g>
<!-- j2595257313 -->
<g id="node6" class="node">
<title>j2595257313</title>
<polygon fill="none" stroke="red" points="2893,-1188 2738,-1188 2738,-1152 2893,-1152 2893,-1188"/>
<text text-anchor="middle" x="2815.5" y="-1166.3" font-family="Times New Roman,serif" font-size="14.00">¿Querrías que lo hiciera?</text>
</g>
<!-- j3700788491&#45;&gt;j2595257313 -->
<g id="edge5" class="edge">
<title>j3700788491&#45;&gt;j2595257313</title>
<path fill="none" stroke="black" d="M3123.85,-1223.52C3056.31,-1212.01 2968.8,-1197.11 2904.26,-1186.12"/>
<polygon fill="black" stroke="black" points="2905.24,-1182.73 2894.8,-1184.51 2904.07,-1189.63 2905.24,-1182.73"/>
</g>
<!-- j483699277 -->
<g id="node7" class="node">
<title>j483699277</title>
<polygon fill="none" stroke="red" points="3303.5,-1188 3249.5,-1188 3249.5,-1152 3303.5,-1152 3303.5,-1188"/>
<text text-anchor="middle" x="3276.5" y="-1166.3" font-family="Times New Roman,serif" font-size="14.00">Claro.</text>
</g>
<!-- j3700788491&#45;&gt;j483699277 -->
<g id="edge6" class="edge">
<title>j3700788491&#45;&gt;j483699277</title>
<path fill="none" stroke="black" d="M3238.86,-1223.7C3244.55,-1215.73 3251.43,-1206.1 3257.74,-1197.26"/>
<polygon fill="black" stroke="black" points="3260.44,-1199.51 3263.4,-1189.34 3254.74,-1195.44 3260.44,-1199.51"/>
</g>
<!-- j3938515354 -->
<g id="node8" class="node">
<title>j3938515354</title>
<polygon fill="none" stroke="red" points="3218.5,-1188 3162.5,-1188 3162.5,-1152 3218.5,-1152 3218.5,-1188"/>
<text text-anchor="middle" x="3190.5" y="-1166.3" font-family="Times New Roman,serif" font-size="14.00">Nunca.</text>
</g>
<!-- j3700788491&#45;&gt;j3938515354 -->
<g id="edge7" class="edge">
<title>j3700788491&#45;&gt;j3938515354</title>
<path fill="none" stroke="black" d="M3217.6,-1223.7C3213.63,-1215.98 3208.87,-1206.71 3204.44,-1198.11"/>
<polygon fill="black" stroke="black" points="3207.67,-1196.74 3199.99,-1189.45 3201.45,-1199.94 3207.67,-1196.74"/>
</g>
<!-- j1448622285 -->
<g id="node9" class="node">
<title>j1448622285</title>
<polygon fill="none" stroke="red" points="3483,-1188 3328,-1188 3328,-1152 3483,-1152 3483,-1188"/>
<text text-anchor="middle" x="3405.5" y="-1166.3" font-family="Times New Roman,serif" font-size="14.00">No voy a responder eso.</text>
</g>
<!-- j3700788491&#45;&gt;j1448622285 -->
<g id="edge8" class="edge">
<title>j3700788491&#45;&gt;j1448622285</title>
<path fill="none" stroke="black" d="M3271.21,-1223.52C3295.22,-1214.13 3325.02,-1202.47 3350.45,-1192.53"/>
<polygon fill="black" stroke="black" points="3351.6,-1195.83 3359.64,-1188.93 3349.05,-1189.32 3351.6,-1195.83"/>
</g>
<!-- j2210671987 -->
<g id="node10" class="node">
<title>j2210671987</title>
<polygon fill="none" stroke="blue" points="3098,-1116 1981,-1116 1981,-1080 3098,-1080 3098,-1116"/>
<text text-anchor="middle" x="2539.5" y="-1094.3" font-family="Times New Roman,serif" font-size="14.00">Mmm. Buen comienzo. Has hecho que todo se centre en lo que yo quiero en lugar de ver mi vida como una oportunidad para demostrar tu moral personal. Me haces saber que esto no se trata de ti.</text>
</g>
<!-- j2595257313&#45;&gt;j2210671987 -->
<g id="edge9" class="edge">
<title>j2595257313&#45;&gt;j2210671987</title>
<path fill="none" stroke="black" d="M2746.57,-1151.52C2707.89,-1141.71 2659.46,-1129.43 2619.17,-1119.21"/>
<polygon fill="black" stroke="black" points="2620.05,-1115.82 2609.5,-1116.75 2618.33,-1122.6 2620.05,-1115.82"/>
</g>
<!-- j331164183 -->
<g id="node11" class="node">
<title>j331164183</title>
<polygon fill="none" stroke="blue" points="3336.5,-1116 3248.5,-1116 3248.5,-1080 3336.5,-1080 3336.5,-1116"/>
<text text-anchor="middle" x="3292.5" y="-1094.3" font-family="Times New Roman,serif" font-size="14.00">Guau. Okay.</text>
</g>
<!-- j483699277&#45;&gt;j331164183 -->
<g id="edge10" class="edge">
<title>j483699277&#45;&gt;j331164183</title>
<path fill="none" stroke="black" d="M3280.46,-1151.7C3282.14,-1144.32 3284.15,-1135.52 3286.04,-1127.25"/>
<polygon fill="black" stroke="black" points="3289.44,-1128.11 3288.25,-1117.58 3282.61,-1126.55 3289.44,-1128.11"/>
</g>
<!-- j1686179802 -->
<g id="node12" class="node">
<title>j1686179802</title>
<polygon fill="none" stroke="blue" points="3225,-1116 3126,-1116 3126,-1080 3225,-1080 3225,-1116"/>
<text text-anchor="middle" x="3175.5" y="-1094.3" font-family="Times New Roman,serif" font-size="14.00">Está bien. Um.</text>
</g>
<!-- j3938515354&#45;&gt;j1686179802 -->
<g id="edge11" class="edge">
<title>j3938515354&#45;&gt;j1686179802</title>
<path fill="none" stroke="black" d="M3186.79,-1151.7C3185.21,-1144.32 3183.33,-1135.52 3181.55,-1127.25"/>
<polygon fill="black" stroke="black" points="3185,-1126.63 3179.48,-1117.58 3178.16,-1128.1 3185,-1126.63"/>
</g>
<!-- j747475463 -->
<g id="node13" class="node">
<title>j747475463</title>
<polygon fill="none" stroke="blue" points="3519,-1116 3424,-1116 3424,-1080 3519,-1080 3519,-1116"/>
<text text-anchor="middle" x="3471.5" y="-1094.3" font-family="Times New Roman,serif" font-size="14.00">Como gustes.</text>
</g>
<!-- j1448622285&#45;&gt;j747475463 -->
<g id="edge12" class="edge">
<title>j1448622285&#45;&gt;j747475463</title>
<path fill="none" stroke="black" d="M3421.81,-1151.7C3429.57,-1143.47 3438.99,-1133.48 3447.53,-1124.42"/>
<polygon fill="black" stroke="black" points="3450.02,-1126.88 3454.33,-1117.21 3444.93,-1122.08 3450.02,-1126.88"/>
</g>
<!-- j2527299592 -->
<g id="node14" class="node">
<title>j2527299592</title>
<polygon fill="none" stroke="blue" points="2560.5,-1044 2476.5,-1044 2476.5,-1008 2560.5,-1008 2560.5,-1044"/>
<text text-anchor="middle" x="2518.5" y="-1022.3" font-family="Times New Roman,serif" font-size="14.00">Eso es raro.</text>
</g>
<!-- j2210671987&#45;&gt;j2527299592 -->
<g id="edge13" class="edge">
<title>j2210671987&#45;&gt;j2527299592</title>
<path fill="none" stroke="black" d="M2534.31,-1079.7C2532.07,-1072.24 2529.4,-1063.32 2526.89,-1054.97"/>
<polygon fill="black" stroke="black" points="2530.29,-1054.13 2524.07,-1045.55 2523.59,-1056.14 2530.29,-1054.13"/>
</g>
<!-- j950823477 -->
<g id="node15" class="node">
<title>j950823477</title>
<polygon fill="none" stroke="blue" points="3763.5,-1044 3463.5,-1044 3463.5,-1008 3763.5,-1008 3763.5,-1044"/>
<text text-anchor="middle" x="3613.5" y="-1022.3" font-family="Times New Roman,serif" font-size="14.00">Sin vacilaciones, sin lucha, solamente un simple sí.</text>
</g>
<!-- j331164183&#45;&gt;j950823477 -->
<g id="edge14" class="edge">
<title>j331164183&#45;&gt;j950823477</title>
<path fill="none" stroke="black" d="M3336.8,-1087.34C3384.48,-1076.94 3461.66,-1060.11 3522.4,-1046.87"/>
<polygon fill="black" stroke="black" points="3523.04,-1050.31 3532.07,-1044.76 3521.55,-1043.47 3523.04,-1050.31"/>
</g>
<!-- j3216740308 -->
<g id="node16" class="node">
<title>j3216740308</title>
<polygon fill="none" stroke="blue" points="3338.5,-1044 2856.5,-1044 2856.5,-1008 3338.5,-1008 3338.5,-1044"/>
<text text-anchor="middle" x="3097.5" y="-1022.3" font-family="Times New Roman,serif" font-size="14.00">Lo siento, la verdad es que estoy un poco abrumada. No esperaba tanta sinceridad.</text>
</g>
<!-- j1686179802&#45;&gt;j3216740308 -->
<g id="edge15" class="edge">
<title>j1686179802&#45;&gt;j3216740308</title>
<path fill="none" stroke="black" d="M3156.22,-1079.7C3146.84,-1071.28 3135.41,-1061.02 3125.12,-1051.79"/>
<polygon fill="black" stroke="black" points="3127.74,-1049.43 3117.96,-1045.36 3123.06,-1054.64 3127.74,-1049.43"/>
</g>
<!-- j192956538 -->
<g id="node17" class="node">
<title>j192956538</title>
<polygon fill="none" stroke="blue" points="4255.5,-1044 4107.5,-1044 4107.5,-1008 4255.5,-1008 4255.5,-1044"/>
<text text-anchor="middle" x="4181.5" y="-1022.3" font-family="Times New Roman,serif" font-size="14.00">No volveré a preguntar.</text>
</g>
<!-- j747475463&#45;&gt;j192956538 -->
<g id="edge16" class="edge">
<title>j747475463&#45;&gt;j192956538</title>
<path fill="none" stroke="black" d="M3519.46,-1092.27C3637.8,-1080.6 3944.94,-1050.32 4095.61,-1035.47"/>
<polygon fill="black" stroke="black" points="4095.95,-1038.95 4105.55,-1034.49 4095.26,-1031.99 4095.95,-1038.95"/>
</g>
<!-- j1264290854 -->
<g id="node18" class="node">
<title>j1264290854</title>
<polygon fill="none" stroke="blue" points="2785.5,-972 2167.5,-972 2167.5,-936 2785.5,-936 2785.5,-972"/>
<text text-anchor="middle" x="2476.5" y="-950.3" font-family="Times New Roman,serif" font-size="14.00">Lamentablemente eso no nos saca de nuestro dilema, porque significa que nunca podré cambiar de opinión.</text>
</g>
<!-- j2527299592&#45;&gt;j1264290854 -->
<g id="edge17" class="edge">
<title>j2527299592&#45;&gt;j1264290854</title>
<path fill="none" stroke="black" d="M2508.12,-1007.7C2503.44,-999.9 2497.81,-990.51 2492.6,-981.83"/>
<polygon fill="black" stroke="black" points="2495.69,-980.18 2487.54,-973.4 2489.69,-983.78 2495.69,-980.18"/>
</g>
<!-- j4093447842 -->
<g id="node19" class="node">
<title>j4093447842</title>
<polygon fill="none" stroke="blue" points="4198,-972 3161,-972 3161,-936 4198,-936 4198,-972"/>
<text text-anchor="middle" x="3679.5" y="-950.3" font-family="Times New Roman,serif" font-size="14.00">Gracias. Eres un enigma para mí en muchos sentidos, pero ahora sé que estarías dispuesto a meterme una bala en la cabeza, y ese tipo de cosas son importantes en el lugar de trabajo.</text>
</g>
<!-- j950823477&#45;&gt;j4093447842 -->
<g id="edge18" class="edge">
<title>j950823477&#45;&gt;j4093447842</title>
<path fill="none" stroke="black" d="M3629.81,-1007.7C3637.57,-999.47 3646.99,-989.48 3655.53,-980.42"/>
<polygon fill="black" stroke="black" points="3658.02,-982.88 3662.33,-973.21 3652.93,-978.08 3658.02,-982.88"/>
</g>
<!-- j2255854477 -->
<g id="node20" class="node">
<title>j2255854477</title>
<polygon fill="none" stroke="blue" points="3118.5,-972 2946.5,-972 2946.5,-936 3118.5,-936 3118.5,-972"/>
<text text-anchor="middle" x="3032.5" y="-950.3" font-family="Times New Roman,serif" font-size="14.00">¿Dejarías vivir al monstruo?</text>
</g>
<!-- j3216740308&#45;&gt;j2255854477 -->
<g id="edge19" class="edge">
<title>j3216740308&#45;&gt;j2255854477</title>
<path fill="none" stroke="black" d="M3081.43,-1007.7C3073.8,-999.47 3064.52,-989.48 3056.1,-980.42"/>
<polygon fill="black" stroke="black" points="3058.78,-978.16 3049.41,-973.21 3053.65,-982.92 3058.78,-978.16"/>
</g>
<!-- j4058524590 -->
<g id="node21" class="node">
<title>j4058524590</title>
<polygon fill="none" stroke="blue" points="4731,-972 4228,-972 4228,-936 4731,-936 4731,-972"/>
<text text-anchor="middle" x="4479.5" y="-950.3" font-family="Times New Roman,serif" font-size="14.00">Supongo que tendremos que esperar hasta que suceda para ver cómo reaccionas, ¿no?</text>
</g>
<!-- j192956538&#45;&gt;j4058524590 -->
<g id="edge20" class="edge">
<title>j192956538&#45;&gt;j4058524590</title>
<path fill="none" stroke="black" d="M4255.93,-1007.52C4297.88,-997.66 4350.45,-985.31 4394.07,-975.07"/>
<polygon fill="black" stroke="black" points="4394.84,-978.48 4403.77,-972.79 4393.24,-971.67 4394.84,-978.48"/>
</g>
<!-- j189131259 -->
<g id="node22" class="node">
<title>j189131259</title>
<polygon fill="none" stroke="blue" points="2160,-900 1047,-900 1047,-864 2160,-864 2160,-900"/>
<text text-anchor="middle" x="1603.5" y="-878.3" font-family="Times New Roman,serif" font-size="14.00">Digamos que digo que sí, que quiero que acabes conmigo de una forma rápida y limpia en lugar de que siga viviendo como un monstruo voraz. Digamos que eso es lo que Eleanor quiere AHORA.</text>
</g>
<!-- j1264290854&#45;&gt;j189131259 -->
<g id="edge21" class="edge">
<title>j1264290854&#45;&gt;j189131259</title>
<path fill="none" stroke="black" d="M2258.46,-935.52C2128.78,-925.12 1964.45,-911.94 1832.83,-901.39"/>
<polygon fill="black" stroke="black" points="1833.17,-897.9 1822.92,-900.59 1832.61,-904.88 1833.17,-897.9"/>
</g>
<!-- j2630479924 -->
<g id="node23" class="node">
<title>j2630479924</title>
<polygon fill="none" stroke="blue" points="4376,-900 3893,-900 3893,-864 4376,-864 4376,-900"/>
<text text-anchor="middle" x="4134.5" y="-878.3" font-family="Times New Roman,serif" font-size="14.00">Y acabo de sentir que el Techrot en mis células temblaba con un poco de ansiedad.</text>
</g>
<!-- j4093447842&#45;&gt;j2630479924 -->
<g id="edge22" class="edge">
<title>j4093447842&#45;&gt;j2630479924</title>
<path fill="none" stroke="black" d="M3793.14,-935.52C3859.09,-925.37 3942.24,-912.58 4009.96,-902.16"/>
<polygon fill="black" stroke="black" points="4010.28,-905.65 4019.63,-900.67 4009.21,-898.73 4010.28,-905.65"/>
</g>
<!-- j1303240313 -->
<g id="node24" class="node">
<title>j1303240313</title>
<polygon fill="none" stroke="blue" points="3875,-900 2178,-900 2178,-864 3875,-864 3875,-900"/>
<text text-anchor="middle" x="3026.5" y="-878.3" font-family="Times New Roman,serif" font-size="14.00">Lo siento, lo siento, es solo que he estado viviendo cada día con Lettie en mi oído cacareando sobre cómo no merezco estar aquí y Arthur mirándome como si fuera una causa perdida y estuviera contando los días hasta que tenga que hacerlo, y simplemente no esperaba que dijeras eso, ¿de acuerdo?</text>
</g>
<!-- j2255854477&#45;&gt;j1303240313 -->
<g id="edge23" class="edge">
<title>j2255854477&#45;&gt;j1303240313</title>
<path fill="none" stroke="black" d="M3031.02,-935.7C3030.39,-928.41 3029.65,-919.73 3028.95,-911.54"/>
<polygon fill="black" stroke="black" points="3032.44,-911.28 3028.1,-901.61 3025.46,-911.87 3032.44,-911.28"/>
</g>
<!-- j2190214087 -->
<g id="node25" class="node">
<title>j2190214087</title>
<polygon fill="none" stroke="blue" points="4576.5,-900 4394.5,-900 4394.5,-864 4576.5,-864 4576.5,-900"/>
<text text-anchor="middle" x="4485.5" y="-878.3" font-family="Times New Roman,serif" font-size="14.00">Eres un pequeño enigma letal.</text>
</g>
<!-- j4058524590&#45;&gt;j2190214087 -->
<g id="edge24" class="edge">
<title>j4058524590&#45;&gt;j2190214087</title>
<path fill="none" stroke="black" d="M4480.98,-935.7C4481.61,-928.41 4482.35,-919.73 4483.05,-911.54"/>
<polygon fill="black" stroke="black" points="4486.54,-911.87 4483.9,-901.61 4479.56,-911.28 4486.54,-911.87"/>
</g>
<!-- j1161586514 -->
<g id="node26" class="node">
<title>j1161586514</title>
<polygon fill="none" stroke="blue" points="2078,-828 1287,-828 1287,-792 2078,-792 2078,-828"/>
<text text-anchor="middle" x="1682.5" y="-806.3" font-family="Times New Roman,serif" font-size="14.00">Pero ¿y si el monstruo voraz soy yo, pero más? ¿Y si, una vez que mi humanidad se consuma en el crisol del Techrot, no QUIERO morir?</text>
</g>
<!-- j189131259&#45;&gt;j1161586514 -->
<g id="edge25" class="edge">
<title>j189131259&#45;&gt;j1161586514</title>
<path fill="none" stroke="black" d="M1623.03,-863.7C1632.52,-855.28 1644.11,-845.02 1654.52,-835.79"/>
<polygon fill="black" stroke="black" points="1656.63,-838.6 1661.79,-829.35 1651.98,-833.36 1656.63,-838.6"/>
</g>
<!-- j1394032803 -->
<g id="node27" class="node">
<title>j1394032803</title>
<polygon fill="none" stroke="blue" points="4400.5,-828 3618.5,-828 3618.5,-792 4400.5,-792 4400.5,-828"/>
<text text-anchor="middle" x="4009.5" y="-806.3" font-family="Times New Roman,serif" font-size="14.00">Creo que se comportará un poco mejor a partir de ahora. Nada como amenazar al anfitrión para infundirle el miedo a Sol al parásito, ¿eh?</text>
</g>
<!-- j2630479924&#45;&gt;j1394032803 -->
<g id="edge26" class="edge">
<title>j2630479924&#45;&gt;j1394032803</title>
<path fill="none" stroke="black" d="M4103.28,-863.52C4087.2,-854.51 4067.4,-843.42 4050.14,-833.76"/>
<polygon fill="black" stroke="black" points="4052.08,-830.83 4041.64,-829 4048.66,-836.94 4052.08,-830.83"/>
</g>
<!-- j513049482 -->
<g id="node28" class="node">
<title>j513049482</title>
<ellipse fill="none" stroke="orange" cx="3026.5" cy="-810" rx="64.19" ry="18"/>
<text text-anchor="middle" x="3026.5" y="-806.3" font-family="Times New Roman,serif" font-size="14.00">+20 Chemistry</text>
</g>
<!-- j1303240313&#45;&gt;j513049482 -->
<g id="edge27" class="edge">
<title>j1303240313&#45;&gt;j513049482</title>
<path fill="none" stroke="black" d="M3026.5,-863.7C3026.5,-856.41 3026.5,-847.73 3026.5,-839.54"/>
<polygon fill="black" stroke="black" points="3030,-839.62 3026.5,-829.62 3023,-839.62 3030,-839.62"/>
</g>
<!-- j3159970971 -->
<g id="node29" class="node">
<title>j3159970971</title>
<polygon fill="none" stroke="blue" points="4552.5,-828 4418.5,-828 4418.5,-792 4552.5,-792 4552.5,-828"/>
<text text-anchor="middle" x="4485.5" y="-806.3" font-family="Times New Roman,serif" font-size="14.00">Y yo también lo soy.</text>
</g>
<!-- j2190214087&#45;&gt;j3159970971 -->
<g id="edge28" class="edge">
<title>j2190214087&#45;&gt;j3159970971</title>
<path fill="none" stroke="black" d="M4485.5,-863.7C4485.5,-856.41 4485.5,-847.73 4485.5,-839.54"/>
<polygon fill="black" stroke="black" points="4489,-839.62 4485.5,-829.62 4482,-839.62 4489,-839.62"/>
</g>
<!-- j3028083649 -->
<g id="node30" class="node">
<title>j3028083649</title>
<polygon fill="none" stroke="blue" points="2009.5,-756 1671.5,-756 1671.5,-720 2009.5,-720 2009.5,-756"/>
<text text-anchor="middle" x="1840.5" y="-734.3" font-family="Times New Roman,serif" font-size="14.00">Porque me hace sentir viva, Viajero. Poderosamente viva.</text>
</g>
<!-- j1161586514&#45;&gt;j3028083649 -->
<g id="edge29" class="edge">
<title>j1161586514&#45;&gt;j3028083649</title>
<path fill="none" stroke="black" d="M1721.96,-791.52C1742.87,-782.25 1768.76,-770.78 1791.01,-760.93"/>
<polygon fill="black" stroke="black" points="1792.16,-764.25 1799.88,-756.99 1789.32,-757.85 1792.16,-764.25"/>
</g>
<!-- j2864742878 -->
<g id="node31" class="node">
<title>j2864742878</title>
<ellipse fill="none" stroke="orange" cx="4009.5" cy="-738" rx="142.97" ry="18"/>
<text text-anchor="middle" x="4009.5" y="-734.3" font-family="Times New Roman,serif" font-size="14.00">Boolean EleanorNoDate is now true.</text>
</g>
<!-- j1394032803&#45;&gt;j2864742878 -->
<g id="edge30" class="edge">
<title>j1394032803&#45;&gt;j2864742878</title>
<path fill="none" stroke="black" d="M4009.5,-791.7C4009.5,-784.41 4009.5,-775.73 4009.5,-767.54"/>
<polygon fill="black" stroke="black" points="4013,-767.62 4009.5,-757.62 4006,-767.62 4013,-767.62"/>
</g>
<!-- j868600969 -->
<g id="node32" class="node">
<title>j868600969</title>
<polygon fill="none" stroke="blue" points="3222,-756 2831,-756 2831,-720 3222,-720 3222,-756"/>
<text text-anchor="middle" x="3026.5" y="-734.3" font-family="Times New Roman,serif" font-size="14.00">Estoy llorando. Lágrimas de felicidad. Hablamos pronto. Por favor</text>
</g>
<!-- j513049482&#45;&gt;j868600969 -->
<g id="edge31" class="edge">
<title>j513049482&#45;&gt;j868600969</title>
<path fill="none" stroke="black" d="M3026.5,-791.7C3026.5,-784.41 3026.5,-775.73 3026.5,-767.54"/>
<polygon fill="black" stroke="black" points="3030,-767.62 3026.5,-757.62 3023,-767.62 3030,-767.62"/>
</g>
<!-- j3159970971&#45;&gt;j2864742878 -->
<g id="edge32" class="edge">
<title>j3159970971&#45;&gt;j2864742878</title>
<path fill="none" stroke="black" d="M4418.02,-793.58C4415.14,-793.03 4412.3,-792.5 4409.5,-792 4314.64,-775.14 4206.26,-761.1 4126.26,-751.71"/>
<polygon fill="black" stroke="black" points="4127.01,-748.28 4116.67,-750.6 4126.2,-755.23 4127.01,-748.28"/>
</g>
<!-- j428048680 -->
<g id="node33" class="node">
<title>j428048680</title>
<polygon fill="none" stroke="red" points="2311.5,-684 2201.5,-684 2201.5,-648 2311.5,-648 2311.5,-684"/>
<text text-anchor="middle" x="2256.5" y="-662.3" font-family="Times New Roman,serif" font-size="14.00">Aún así lo haría.</text>
</g>
<!-- j3028083649&#45;&gt;j428048680 -->
<g id="edge33" class="edge">
<title>j3028083649&#45;&gt;j428048680</title>
<path fill="none" stroke="black" d="M1944.4,-719.52C2021.29,-706.58 2123.76,-689.34 2189.94,-678.2"/>
<polygon fill="black" stroke="black" points="2190.27,-681.69 2199.55,-676.58 2189.11,-674.79 2190.27,-681.69"/>
</g>
<!-- j3019529013 -->
<g id="node34" class="node">
<title>j3019529013</title>
<polygon fill="none" stroke="red" points="2678.5,-684 2530.5,-684 2530.5,-648 2678.5,-648 2678.5,-684"/>
<text text-anchor="middle" x="2604.5" y="-662.3" font-family="Times New Roman,serif" font-size="14.00">Entendido. No lo haría.</text>
</g>
<!-- j3028083649&#45;&gt;j3019529013 -->
<g id="edge34" class="edge">
<title>j3028083649&#45;&gt;j3019529013</title>
<path fill="none" stroke="black" d="M2009.58,-721.51C2167.28,-707.06 2396.12,-686.09 2518.94,-674.84"/>
<polygon fill="black" stroke="black" points="2518.98,-678.35 2528.62,-673.95 2518.34,-671.38 2518.98,-678.35"/>
</g>
<!-- j4012584325 -->
<g id="node35" class="node">
<title>j4012584325</title>
<polygon fill="none" stroke="red" points="1311,-684 960,-684 960,-648 1311,-648 1311,-684"/>
<text text-anchor="middle" x="1135.5" y="-662.3" font-family="Times New Roman,serif" font-size="14.00">Dependería de cuántas otras personas estuvieran en peligro.</text>
</g>
<!-- j3028083649&#45;&gt;j4012584325 -->
<g id="edge35" class="edge">
<title>j3028083649&#45;&gt;j4012584325</title>
<path fill="none" stroke="black" d="M1671.19,-720.19C1566.13,-709.76 1431.01,-696.34 1322.76,-685.59"/>
<polygon fill="black" stroke="black" points="1323.17,-682.12 1312.88,-684.61 1322.48,-689.08 1323.17,-682.12"/>
</g>
<!-- j4013925693 -->
<g id="node36" class="node">
<title>j4013925693</title>
<polygon fill="none" stroke="red" points="1999.5,-684 1681.5,-684 1681.5,-648 1999.5,-648 1999.5,-684"/>
<text text-anchor="middle" x="1840.5" y="-662.3" font-family="Times New Roman,serif" font-size="14.00">No has respondido la pregunta. ¿Quieres que lo haga?</text>
</g>
<!-- j3028083649&#45;&gt;j4013925693 -->
<g id="edge36" class="edge">
<title>j3028083649&#45;&gt;j4013925693</title>
<path fill="none" stroke="black" d="M1840.5,-719.7C1840.5,-712.41 1840.5,-703.73 1840.5,-695.54"/>
<polygon fill="black" stroke="black" points="1844,-695.62 1840.5,-685.62 1837,-695.62 1844,-695.62"/>
</g>
<!-- Chat ends. -->
<g id="node37" class="node">
<title>Chat ends.</title>
<ellipse fill="none" stroke="orange" cx="2938.5" cy="-18" rx="50.09" ry="18"/>
<text text-anchor="middle" x="2938.5" y="-14.3" font-family="Times New Roman,serif" font-size="14.00">Chat ends.</text>
</g>
<!-- j2864742878&#45;&gt;Chat ends. -->
<g id="edge37" class="edge">
<title>j2864742878&#45;&gt;Chat ends.</title>
<path fill="none" stroke="black" d="M3999.97,-719.66C3986.5,-693.47 3963.5,-641.9 3963.5,-595 3963.5,-595 3963.5,-595 3963.5,-161 3963.5,-63.1 3220.38,-28.97 2999.63,-20.99"/>
<polygon fill="black" stroke="black" points="2999.92,-17.5 2989.8,-20.64 2999.67,-24.49 2999.92,-17.5"/>
</g>
<!-- Chat ends. Next chat will be EleanorMonster. -->
<g id="node38" class="node">
<title>Chat ends. Next chat will be EleanorMonster.</title>
<ellipse fill="none" stroke="orange" cx="3026.5" cy="-666" rx="174.67" ry="18"/>
<text text-anchor="middle" x="3026.5" y="-662.3" font-family="Times New Roman,serif" font-size="14.00">Chat ends. Next chat will be EleanorMonster.</text>
</g>
<!-- j868600969&#45;&gt;Chat ends. Next chat will be EleanorMonster. -->
<g id="edge38" class="edge">
<title>j868600969&#45;&gt;Chat ends. Next chat will be EleanorMonster.</title>
<path fill="none" stroke="black" d="M3026.5,-719.7C3026.5,-712.41 3026.5,-703.73 3026.5,-695.54"/>
<polygon fill="black" stroke="black" points="3030,-695.62 3026.5,-685.62 3023,-695.62 3030,-695.62"/>
</g>
<!-- j254960855 -->
<g id="node39" class="node">
<title>j254960855</title>
<polygon fill="none" stroke="blue" points="2790.5,-612 2182.5,-612 2182.5,-576 2790.5,-576 2790.5,-612"/>
<text text-anchor="middle" x="2486.5" y="-590.3" font-family="Times New Roman,serif" font-size="14.00">Está bien. ¿Entonces sacrificaremos a la feliz y empoderada Eleanor en el altar de la Eleanor que solía ser?</text>
</g>
<!-- j428048680&#45;&gt;j254960855 -->
<g id="edge39" class="edge">
<title>j428048680&#45;&gt;j254960855</title>
<path fill="none" stroke="black" d="M2311.88,-648.14C2343.91,-638.4 2384.46,-626.06 2418.42,-615.72"/>
<polygon fill="black" stroke="black" points="2419.2,-619.14 2427.75,-612.88 2417.16,-612.44 2419.2,-619.14"/>
</g>
<!-- j3359100499 -->
<g id="node40" class="node">
<title>j3359100499</title>
<polygon fill="none" stroke="blue" points="3676.5,-612 2966.5,-612 2966.5,-576 3676.5,-576 3676.5,-612"/>
<text text-anchor="middle" x="3321.5" y="-590.3" font-family="Times New Roman,serif" font-size="14.00">Oh, ¿entonces todo lo que tendría que hacer sería mirarte con mis grandes y hermosos ojos y tu resolución se derrumbaría?</text>
</g>
<!-- j3019529013&#45;&gt;j3359100499 -->
<g id="edge40" class="edge">
<title>j3019529013&#45;&gt;j3359100499</title>
<path fill="none" stroke="black" d="M2678.87,-657.74C2784.85,-647.39 2982.92,-628.06 3131.27,-613.57"/>
<polygon fill="black" stroke="black" points="3131.19,-617.1 3140.8,-612.64 3130.51,-610.13 3131.19,-617.1"/>
</g>
<!-- j62026264 -->
<g id="node41" class="node">
<title>j62026264</title>
<polygon fill="none" stroke="blue" points="1565,-612 0,-612 0,-576 1565,-576 1565,-612"/>
<text text-anchor="middle" x="782.5" y="-590.3" font-family="Times New Roman,serif" font-size="14.00">Ah, cierto. En este escenario, soy un monstruo inhumano que presumiblemente está masacrando gente a su antojo. Puedes ponerme en la categoría de &quot;animal depredador&quot;, junto con perros rabiosos y osos hambrientos y demás, lo que significa que no hay ningún dilema moral.</text>
</g>
<!-- j4012584325&#45;&gt;j62026264 -->
<g id="edge41" class="edge">
<title>j4012584325&#45;&gt;j62026264</title>
<path fill="none" stroke="black" d="M1047.33,-647.52C997.01,-637.54 933.78,-625 881.73,-614.68"/>
<polygon fill="black" stroke="black" points="882.43,-611.25 871.94,-612.74 881.07,-618.12 882.43,-611.25"/>
</g>
<!-- j1243548371 -->
<g id="node42" class="node">
<title>j1243548371</title>
<polygon fill="none" stroke="blue" points="2098,-612 1583,-612 1583,-576 2098,-576 2098,-612"/>
<text text-anchor="middle" x="1840.5" y="-590.3" font-family="Times New Roman,serif" font-size="14.00">… No lo sé. Algunos días lo creo. Me siento como el típico personaje de un melodrama.</text>
</g>
<!-- j4013925693&#45;&gt;j1243548371 -->
<g id="edge42" class="edge">
<title>j4013925693&#45;&gt;j1243548371</title>
<path fill="none" stroke="black" d="M1840.5,-647.7C1840.5,-640.41 1840.5,-631.73 1840.5,-623.54"/>
<polygon fill="black" stroke="black" points="1844,-623.62 1840.5,-613.62 1837,-623.62 1844,-623.62"/>
</g>
<!-- j3179384954 -->
<g id="node43" class="node">
<title>j3179384954</title>
<polygon fill="none" stroke="blue" points="2788,-540 2315,-540 2315,-504 2788,-504 2788,-540"/>
<text text-anchor="middle" x="2551.5" y="-518.3" font-family="Times New Roman,serif" font-size="14.00">Yo puedo cambiar de opinión y decidir vivir, ¿pero tú no puedes cambiar la tuya?</text>
</g>
<!-- j254960855&#45;&gt;j3179384954 -->
<g id="edge43" class="edge">
<title>j254960855&#45;&gt;j3179384954</title>
<path fill="none" stroke="black" d="M2502.57,-575.7C2510.2,-567.47 2519.48,-557.48 2527.9,-548.42"/>
<polygon fill="black" stroke="black" points="2530.35,-550.92 2534.59,-541.21 2525.22,-546.16 2530.35,-550.92"/>
</g>
<!-- j919899749 -->
<g id="node44" class="node">
<title>j919899749</title>
<polygon fill="none" stroke="blue" points="3592.5,-540 3230.5,-540 3230.5,-504 3592.5,-504 3592.5,-540"/>
<text text-anchor="middle" x="3411.5" y="-518.3" font-family="Times New Roman,serif" font-size="14.00">¿Qué clase de intrépido asesino de vampiros serías entonces?</text>
</g>
<!-- j3359100499&#45;&gt;j919899749 -->
<g id="edge44" class="edge">
<title>j3359100499&#45;&gt;j919899749</title>
<path fill="none" stroke="black" d="M3343.75,-575.7C3354.78,-567.11 3368.29,-556.61 3380.34,-547.24"/>
<polygon fill="black" stroke="black" points="3382.26,-550.18 3388,-541.28 3377.96,-544.65 3382.26,-550.18"/>
</g>
<!-- j3775530090 -->
<g id="node45" class="node">
<title>j3775530090</title>
<polygon fill="none" stroke="blue" points="836,-540 729,-540 729,-504 836,-504 836,-540"/>
<text text-anchor="middle" x="782.5" y="-518.3" font-family="Times New Roman,serif" font-size="14.00">Entonces, dime.</text>
</g>
<!-- j62026264&#45;&gt;j3775530090 -->
<g id="edge45" class="edge">
<title>j62026264&#45;&gt;j3775530090</title>
<path fill="none" stroke="black" d="M782.5,-575.7C782.5,-568.41 782.5,-559.73 782.5,-551.54"/>
<polygon fill="black" stroke="black" points="786,-551.62 782.5,-541.62 779,-551.62 786,-551.62"/>
</g>
<!-- j1913216533 -->
<g id="node46" class="node">
<title>j1913216533</title>
<polygon fill="none" stroke="blue" points="2220,-540 1345,-540 1345,-504 2220,-504 2220,-540"/>
<text text-anchor="middle" x="1782.5" y="-518.3" font-family="Times New Roman,serif" font-size="14.00">“Oh, no, la desventurada chica que una vez amamos se ha convertido en una vampiresa sexy. Matémosla para que, al morir, vuelva a ser pura e inocente”.</text>
</g>
<!-- j1243548371&#45;&gt;j1913216533 -->
<g id="edge46" class="edge">
<title>j1243548371&#45;&gt;j1913216533</title>
<path fill="none" stroke="black" d="M1826.16,-575.7C1819.42,-567.56 1811.24,-557.69 1803.8,-548.7"/>
<polygon fill="black" stroke="black" points="1806.71,-546.74 1797.64,-541.27 1801.32,-551.2 1806.71,-546.74"/>
</g>
<!-- j270707777 -->
<g id="node47" class="node">
<title>j270707777</title>
<polygon fill="none" stroke="blue" points="2930,-468 2505,-468 2505,-432 2930,-432 2930,-468"/>
<text text-anchor="middle" x="2717.5" y="-446.3" font-family="Times New Roman,serif" font-size="14.00">No debería sorprenderme. Es el final para el que te preparan las historias.</text>
</g>
<!-- j3179384954&#45;&gt;j270707777 -->
<g id="edge47" class="edge">
<title>j3179384954&#45;&gt;j270707777</title>
<path fill="none" stroke="black" d="M2592.96,-503.52C2615.03,-494.21 2642.38,-482.68 2665.82,-472.79"/>
<polygon fill="black" stroke="black" points="2667.03,-476.08 2674.89,-468.97 2664.31,-469.63 2667.03,-476.08"/>
</g>
<!-- j3239201711 -->
<g id="node48" class="node">
<title>j3239201711</title>
<polygon fill="none" stroke="blue" points="3866,-468 3137,-468 3137,-432 3866,-432 3866,-468"/>
<text text-anchor="middle" x="3501.5" y="-446.3" font-family="Times New Roman,serif" font-size="14.00">Te lo digo, serás de los que mueren a mitad de la película, porque no tuvieron el corazón para hacer &quot;lo que tenía que hacerse&quot;.</text>
</g>
<!-- j919899749&#45;&gt;j3239201711 -->
<g id="edge48" class="edge">
<title>j919899749&#45;&gt;j3239201711</title>
<path fill="none" stroke="black" d="M3433.75,-503.7C3444.78,-495.11 3458.29,-484.61 3470.34,-475.24"/>
<polygon fill="black" stroke="black" points="3472.26,-478.18 3478,-469.28 3467.96,-472.65 3472.26,-478.18"/>
</g>
<!-- j3868733926 -->
<g id="node49" class="node">
<title>j3868733926</title>
<polygon fill="none" stroke="blue" points="1047,-468 518,-468 518,-432 1047,-432 1047,-468"/>
<text text-anchor="middle" x="782.5" y="-446.3" font-family="Times New Roman,serif" font-size="14.00">¿Esperarás hasta que reclame mi primera víctima antes de dispararme una bala en el cráneo?</text>
</g>
<!-- j3775530090&#45;&gt;j3868733926 -->
<g id="edge49" class="edge">
<title>j3775530090&#45;&gt;j3868733926</title>
<path fill="none" stroke="black" d="M782.5,-503.7C782.5,-496.41 782.5,-487.73 782.5,-479.54"/>
<polygon fill="black" stroke="black" points="786,-479.62 782.5,-469.62 779,-479.62 786,-479.62"/>
</g>
<!-- j2030919141 -->
<g id="node50" class="node">
<title>j2030919141</title>
<ellipse fill="none" stroke="orange" cx="1753.5" cy="-450" rx="175.47" ry="18"/>
<text text-anchor="middle" x="1753.5" y="-446.3" font-family="Times New Roman,serif" font-size="14.00">Boolean EleanorArthurNightmare is now true.</text>
</g>
<!-- j1913216533&#45;&gt;j2030919141 -->
<g id="edge50" class="edge">
<title>j1913216533&#45;&gt;j2030919141</title>
<path fill="none" stroke="black" d="M1775.33,-503.7C1772.21,-496.15 1768.46,-487.12 1764.97,-478.68"/>
<polygon fill="black" stroke="black" points="1768.23,-477.4 1761.17,-469.5 1761.76,-480.08 1768.23,-477.4"/>
</g>
<!-- j456966019 -->
<g id="node51" class="node">
<title>j456966019</title>
<polygon fill="none" stroke="blue" points="3532,-396 2657,-396 2657,-360 3532,-360 3532,-396"/>
<text text-anchor="middle" x="3094.5" y="-374.3" font-family="Times New Roman,serif" font-size="14.00">“Oh, no, la desventurada chica que una vez amamos se ha convertido en una vampiresa sexy. Matémosla para que, al morir, vuelva a ser pura e inocente”.</text>
</g>
<!-- j270707777&#45;&gt;j456966019 -->
<g id="edge51" class="edge">
<title>j270707777&#45;&gt;j456966019</title>
<path fill="none" stroke="black" d="M2811.66,-431.52C2865.74,-421.48 2933.78,-408.84 2989.57,-398.48"/>
<polygon fill="black" stroke="black" points="2989.88,-401.99 2999.07,-396.72 2988.6,-395.1 2989.88,-401.99"/>
</g>
<!-- j1661511154 -->
<g id="node52" class="node">
<title>j1661511154</title>
<polygon fill="none" stroke="blue" points="3907.5,-396 3623.5,-396 3623.5,-360 3907.5,-360 3907.5,-396"/>
<text text-anchor="middle" x="3765.5" y="-374.3" font-family="Times New Roman,serif" font-size="14.00">¡Serás una advertencia para los demás, lo serás!</text>
</g>
<!-- j3239201711&#45;&gt;j1661511154 -->
<g id="edge52" class="edge">
<title>j3239201711&#45;&gt;j1661511154</title>
<path fill="none" stroke="black" d="M3567.44,-431.52C3604.43,-421.71 3650.75,-409.43 3689.3,-399.21"/>
<polygon fill="black" stroke="black" points="3689.71,-402.72 3698.48,-396.77 3687.92,-395.95 3689.71,-402.72"/>
</g>
<!-- j2411374601 -->
<g id="node53" class="node">
<title>j2411374601</title>
<polygon fill="none" stroke="blue" points="1208,-252 791,-252 791,-216 1208,-216 1208,-252"/>
<text text-anchor="middle" x="999.5" y="-230.3" font-family="Times New Roman,serif" font-size="14.00">Porque si no lo haces, ¿cómo puedes asegurarte de que soy un peligro?</text>
</g>
<!-- j3868733926&#45;&gt;j2411374601 -->
<g id="edge53" class="edge">
<title>j3868733926&#45;&gt;j2411374601</title>
<path fill="none" stroke="black" d="M782.33,-431.71C782.96,-412.55 786.5,-381.51 801.5,-360 835.73,-310.92 896.06,-276.95 941.16,-256.95"/>
<polygon fill="black" stroke="black" points="942.5,-260.18 950.3,-253 939.73,-253.75 942.5,-260.18"/>
</g>
<!-- j4110863859 -->
<g id="node54" class="node">
<title>j4110863859</title>
<polygon fill="none" stroke="blue" points="2638.5,-396 810.5,-396 810.5,-360 2638.5,-360 2638.5,-396"/>
<text text-anchor="middle" x="1724.5" y="-374.3" font-family="Times New Roman,serif" font-size="14.00">En realidad, me obsesioné con eso. Tenía pesadillas en las que me despertaba en mi sofá y Arthur estaba de pie junto a mí, con lágrimas en los ojos y una espada en la mano, y soltaba una frase sobre cómo Eleanor era su hermana, pero ahora Eleanor se había IDO, y él tenía que hacer esto aunque lo estuviera matando, buu.</text>
</g>
<!-- j2030919141&#45;&gt;j4110863859 -->
<g id="edge54" class="edge">
<title>j2030919141&#45;&gt;j4110863859</title>
<path fill="none" stroke="black" d="M1746.33,-431.7C1743.21,-424.15 1739.46,-415.12 1735.97,-406.68"/>
<polygon fill="black" stroke="black" points="1739.23,-405.4 1732.17,-397.5 1732.76,-408.08 1739.23,-405.4"/>
</g>
<!-- j1718187977 -->
<g id="node55" class="node">
<title>j1718187977</title>
<ellipse fill="none" stroke="orange" cx="3016.5" cy="-306" rx="175.47" ry="18"/>
<text text-anchor="middle" x="3016.5" y="-302.3" font-family="Times New Roman,serif" font-size="14.00">Boolean EleanorArthurNightmare is now true.</text>
</g>
<!-- j456966019&#45;&gt;j1718187977 -->
<g id="edge55" class="edge">
<title>j456966019&#45;&gt;j1718187977</title>
<path fill="none" stroke="black" d="M3075.22,-359.7C3065.84,-351.28 3054.41,-341.02 3044.12,-331.79"/>
<polygon fill="black" stroke="black" points="3046.74,-329.43 3036.96,-325.36 3042.06,-334.64 3046.74,-329.43"/>
</g>
<!-- j3099382183 -->
<g id="node56" class="node">
<title>j3099382183</title>
<polygon fill="none" stroke="blue" points="3822,-180 3445,-180 3445,-144 3822,-144 3822,-180"/>
<text text-anchor="middle" x="3633.5" y="-158.3" font-family="Times New Roman,serif" font-size="14.00">Lo siento, no estoy siendo muy justa contigo. Hablamos pronto.</text>
</g>
<!-- j1661511154&#45;&gt;j3099382183 -->
<g id="edge56" class="edge">
<title>j1661511154&#45;&gt;j3099382183</title>
<path fill="none" stroke="black" d="M3789.65,-359.59C3829.2,-328.97 3899.75,-264.16 3861.5,-216 3850.06,-201.59 3818.18,-190.74 3781.75,-182.74"/>
<polygon fill="black" stroke="black" points="3782.83,-179.39 3772.33,-180.76 3781.4,-186.24 3782.83,-179.39"/>
</g>
<!-- j2411374601&#45;&gt;Chat ends. -->
<g id="edge57" class="edge">
<title>j2411374601&#45;&gt;Chat ends.</title>
<path fill="none" stroke="black" d="M1133.63,-215.52C1375,-184.37 1898.64,-118.21 2341.5,-72 2537.71,-51.53 2770.74,-32.31 2878.43,-23.72"/>
<polygon fill="black" stroke="black" points="2878.5,-27.22 2888.19,-22.94 2877.94,-20.24 2878.5,-27.22"/>
</g>
<!-- j1652190297 -->
<g id="node57" class="node">
<title>j1652190297</title>
<polygon fill="none" stroke="blue" points="2109,-324 1340,-324 1340,-288 2109,-288 2109,-324"/>
<text text-anchor="middle" x="1724.5" y="-302.3" font-family="Times New Roman,serif" font-size="14.00">Y mientras clava la espada entre mis costillas, yo grito: &quot;¡Eleanor está AQUÍ MISMO, estúpido bastardo!&quot;, pero él ya no puede oírme.</text>
</g>
<!-- j4110863859&#45;&gt;j1652190297 -->
<g id="edge58" class="edge">
<title>j4110863859&#45;&gt;j1652190297</title>
<path fill="none" stroke="black" d="M1724.5,-359.7C1724.5,-352.41 1724.5,-343.73 1724.5,-335.54"/>
<polygon fill="black" stroke="black" points="1728,-335.62 1724.5,-325.62 1721,-335.62 1728,-335.62"/>
</g>
<!-- j351538248 -->
<g id="node58" class="node">
<title>j351538248</title>
<polygon fill="none" stroke="blue" points="3852.5,-252 2024.5,-252 2024.5,-216 3852.5,-216 3852.5,-252"/>
<text text-anchor="middle" x="2938.5" y="-230.3" font-family="Times New Roman,serif" font-size="14.00">En realidad, me obsesioné con eso. Tenía pesadillas en las que me despertaba en mi sofá y Arthur estaba de pie junto a mí, con lágrimas en los ojos y una espada en la mano, y soltaba una frase sobre cómo Eleanor era su hermana, pero ahora Eleanor se había IDO, y él tenía que hacer esto aunque lo estuviera matando, buu.</text>
</g>
<!-- j1718187977&#45;&gt;j351538248 -->
<g id="edge59" class="edge">
<title>j1718187977&#45;&gt;j351538248</title>
<path fill="none" stroke="black" d="M2997.22,-287.7C2987.84,-279.28 2976.41,-269.02 2966.12,-259.79"/>
<polygon fill="black" stroke="black" points="2968.74,-257.43 2958.96,-253.36 2964.06,-262.64 2968.74,-257.43"/>
</g>
<!-- j3099382183&#45;&gt;Chat ends. -->
<g id="edge60" class="edge">
<title>j3099382183&#45;&gt;Chat ends.</title>
<path fill="none" stroke="black" d="M3547.93,-143.52C3402.77,-113.86 3112.33,-54.52 2992.31,-29.99"/>
<polygon fill="black" stroke="black" points="2993.22,-26.61 2982.72,-28.03 2991.82,-33.47 2993.22,-26.61"/>
</g>
<!-- j2886936851 -->
<g id="node59" class="node">
<title>j2886936851</title>
<polygon fill="none" stroke="red" points="2006,-252 1443,-252 1443,-216 2006,-216 2006,-252"/>
<text text-anchor="middle" x="1724.5" y="-230.3" font-family="Times New Roman,serif" font-size="14.00">Entonces lo que estoy escuchando es que no estás dispuesto a decidir esta cuestión de antemano.</text>
</g>
<!-- j1652190297&#45;&gt;j2886936851 -->
<g id="edge61" class="edge">
<title>j1652190297&#45;&gt;j2886936851</title>
<path fill="none" stroke="black" d="M1724.5,-287.7C1724.5,-280.41 1724.5,-271.73 1724.5,-263.54"/>
<polygon fill="black" stroke="black" points="1728,-263.62 1724.5,-253.62 1721,-263.62 1728,-263.62"/>
</g>
<!-- j3344311787 -->
<g id="node60" class="node">
<title>j3344311787</title>
<polygon fill="none" stroke="blue" points="3313,-180 2564,-180 2564,-144 3313,-144 3313,-180"/>
<text text-anchor="middle" x="2938.5" y="-158.3" font-family="Times New Roman,serif" font-size="14.00">Y mientras mete la espada entre mis costillas, grito: &quot;¡Eleanor está AQUÍ MISMO, estúpido bastardo!&quot;, pero él ya no puede oírme.</text>
</g>
<!-- j351538248&#45;&gt;j3344311787 -->
<g id="edge62" class="edge">
<title>j351538248&#45;&gt;j3344311787</title>
<path fill="none" stroke="black" d="M2938.5,-215.7C2938.5,-208.41 2938.5,-199.73 2938.5,-191.54"/>
<polygon fill="black" stroke="black" points="2942,-191.62 2938.5,-181.62 2935,-191.62 2942,-191.62"/>
</g>
<!-- j3170575954 -->
<g id="node61" class="node">
<title>j3170575954</title>
<polygon fill="none" stroke="red" points="2248,-180 1921,-180 1921,-144 2248,-144 2248,-180"/>
<text text-anchor="middle" x="2084.5" y="-158.3" font-family="Times New Roman,serif" font-size="14.00">En cuyo caso, tampoco puedes esperar que yo lo haga.</text>
</g>
<!-- j2886936851&#45;&gt;j3170575954 -->
<g id="edge63" class="edge">
<title>j2886936851&#45;&gt;j3170575954</title>
<path fill="none" stroke="black" d="M1814.41,-215.52C1865.84,-205.52 1930.49,-192.95 1983.64,-182.61"/>
<polygon fill="black" stroke="black" points="1984.16,-186.08 1993.31,-180.73 1982.83,-179.2 1984.16,-186.08"/>
</g>
<!-- j279894434 -->
<g id="node62" class="node">
<title>j279894434</title>
<polygon fill="none" stroke="blue" points="3050.5,-108 2826.5,-108 2826.5,-72 3050.5,-72 3050.5,-108"/>
<text text-anchor="middle" x="2938.5" y="-86.3" font-family="Times New Roman,serif" font-size="14.00">Quizás sueñe contigo la próxima vez.</text>
</g>
<!-- j3344311787&#45;&gt;j279894434 -->
<g id="edge64" class="edge">
<title>j3344311787&#45;&gt;j279894434</title>
<path fill="none" stroke="black" d="M2938.5,-143.7C2938.5,-136.41 2938.5,-127.73 2938.5,-119.54"/>
<polygon fill="black" stroke="black" points="2942,-119.62 2938.5,-109.62 2935,-119.62 2942,-119.62"/>
</g>
<!-- j2895199346 -->
<g id="node63" class="node">
<title>j2895199346</title>
<ellipse fill="none" stroke="orange" cx="2414.5" cy="-90" rx="64.19" ry="18"/>
<text text-anchor="middle" x="2414.5" y="-86.3" font-family="Times New Roman,serif" font-size="14.00">+20 Chemistry</text>
</g>
<!-- j3170575954&#45;&gt;j2895199346 -->
<g id="edge65" class="edge">
<title>j3170575954&#45;&gt;j2895199346</title>
<path fill="none" stroke="black" d="M2166.92,-143.52C2224.72,-131.26 2300.75,-115.13 2353.22,-104"/>
<polygon fill="black" stroke="black" points="2353.84,-107.45 2362.9,-101.95 2352.39,-100.6 2353.84,-107.45"/>
</g>
<!-- j279894434&#45;&gt;Chat ends. -->
<g id="edge66" class="edge">
<title>j279894434&#45;&gt;Chat ends.</title>
<path fill="none" stroke="black" d="M2938.5,-71.7C2938.5,-64.41 2938.5,-55.73 2938.5,-47.54"/>
<polygon fill="black" stroke="black" points="2942,-47.62 2938.5,-37.62 2935,-47.62 2942,-47.62"/>
</g>
<!-- j2895199346&#45;&gt;Chat ends. -->
<g id="edge67" class="edge">
<title>j2895199346&#45;&gt;Chat ends.</title>
<path fill="none" stroke="black" d="M2471.57,-81.38C2572.21,-67.93 2780.07,-40.16 2881,-26.68"/>
<polygon fill="black" stroke="black" points="2881.23,-30.18 2890.68,-25.39 2880.31,-23.24 2881.23,-30.18"/>
</g>
</g>
</svg>
