<?xml version="1.0" encoding="UTF-8" standalone="no"?>
<!DOCTYPE svg PUBLIC "-//W3C//DTD SVG 1.1//EN"
 "http://www.w3.org/Graphics/SVG/1.1/DTD/svg11.dtd">
<!-- Generated by graphviz version 7.1.0 (20230121.1956)
 -->
<!-- Pages: 1 -->
<svg width="2179pt" height="1516pt"
 viewBox="0.00 0.00 2178.54 1516.00" xmlns="http://www.w3.org/2000/svg" xmlns:xlink="http://www.w3.org/1999/xlink">
<g id="graph0" class="graph" transform="scale(1 1) rotate(0) translate(4 1512)">
<polygon fill="white" stroke="none" points="-4,4 -4,-1512 2174.54,-1512 2174.54,4 -4,4"/>
<!-- ArthurRank4Convo6 begins. -->
<g id="node1" class="node">
<title>ArthurRank4Convo6 begins.</title>
<ellipse fill="none" stroke="orange" cx="128.04" cy="-1490" rx="115.08" ry="18"/>
<text text-anchor="middle" x="128.04" y="-1486.3" font-family="Times New Roman,serif" font-size="14.00">ArthurRank4Convo6 begins.</text>
</g>
<!-- j3247802305 -->
<g id="node2" class="node">
<title>j3247802305</title>
<ellipse fill="none" stroke="orange" cx="128.04" cy="-1417" rx="128.08" ry="18"/>
<text text-anchor="middle" x="128.04" y="-1413.3" font-family="Times New Roman,serif" font-size="14.00">Check boolean AmirRPGArthur</text>
</g>
<!-- ArthurRank4Convo6 begins.&#45;&gt;j3247802305 -->
<g id="edge1" class="edge">
<title>ArthurRank4Convo6 begins.&#45;&gt;j3247802305</title>
<path fill="none" stroke="black" d="M128.04,-1471.81C128.04,-1464.23 128.04,-1455.1 128.04,-1446.54"/>
<polygon fill="black" stroke="black" points="131.54,-1446.54 128.04,-1436.54 124.54,-1446.54 131.54,-1446.54"/>
</g>
<!-- Chat ends. -->
<g id="node3" class="node">
<title>Chat ends.</title>
<ellipse fill="none" stroke="orange" cx="244.04" cy="-18" rx="50.09" ry="18"/>
<text text-anchor="middle" x="244.04" y="-14.3" font-family="Times New Roman,serif" font-size="14.00">Chat ends.</text>
</g>
<!-- j3247802305&#45;&gt;Chat ends. -->
<g id="edge2" class="edge">
<title>j3247802305&#45;&gt;Chat ends.</title>
<path fill="none" stroke="green" d="M122.8,-1398.6C118.13,-1381.54 112.04,-1354.73 112.04,-1331 112.04,-1331 112.04,-1331 112.04,-90 112.04,-53.92 150.76,-36.09 186.26,-27.33"/>
<polygon fill="green" stroke="green" points="186.66,-30.83 195.65,-25.23 185.13,-24 186.66,-30.83"/>
<text text-anchor="middle" x="123.04" y="-682.3" font-family="Times New Roman,serif" font-size="14.00">true</text>
</g>
<!-- j3003866173 -->
<g id="node4" class="node">
<title>j3003866173</title>
<ellipse fill="none" stroke="orange" cx="245.04" cy="-1330" rx="104.78" ry="18"/>
<text text-anchor="middle" x="245.04" y="-1326.3" font-family="Times New Roman,serif" font-size="14.00">Check boolean AmirRPG</text>
</g>
<!-- j3247802305&#45;&gt;j3003866173 -->
<g id="edge3" class="edge">
<title>j3247802305&#45;&gt;j3003866173</title>
<path fill="none" stroke="brown" d="M151.43,-1399C168.97,-1386.26 193.19,-1368.67 212.59,-1354.57"/>
<polygon fill="brown" stroke="brown" points="214.43,-1357.57 220.46,-1348.86 210.31,-1351.9 214.43,-1357.57"/>
<text text-anchor="middle" x="207.04" y="-1369.8" font-family="Times New Roman,serif" font-size="14.00">false</text>
</g>
<!-- j3003866173&#45;&gt;Chat ends. -->
<g id="edge5" class="edge">
<title>j3003866173&#45;&gt;Chat ends.</title>
<path fill="none" stroke="brown" d="M213.19,-1312.68C189.78,-1298.17 162.04,-1274.53 162.04,-1244 162.04,-1244 162.04,-1244 162.04,-90 162.04,-66.48 181.56,-49.01 201.55,-37.29"/>
<polygon fill="brown" stroke="brown" points="203.17,-40.39 210.3,-32.55 199.84,-34.23 203.17,-40.39"/>
<text text-anchor="middle" x="175.04" y="-638.8" font-family="Times New Roman,serif" font-size="14.00">false</text>
</g>
<!-- j1923088054 -->
<g id="node5" class="node">
<title>j1923088054</title>
<ellipse fill="none" stroke="orange" cx="555.04" cy="-1243" rx="151.37" ry="18"/>
<text text-anchor="middle" x="555.04" y="-1239.3" font-family="Times New Roman,serif" font-size="14.00">Check boolean AmirRPGArthurAsked</text>
</g>
<!-- j3003866173&#45;&gt;j1923088054 -->
<g id="edge4" class="edge">
<title>j3003866173&#45;&gt;j1923088054</title>
<path fill="none" stroke="green" d="M299.04,-1314.19C350.83,-1299.99 429.28,-1278.48 485.68,-1263.02"/>
<polygon fill="green" stroke="green" points="486.48,-1266.43 495.2,-1260.41 484.63,-1259.68 486.48,-1266.43"/>
<text text-anchor="middle" x="429.04" y="-1282.8" font-family="Times New Roman,serif" font-size="14.00">true</text>
</g>
<!-- j3472867779 -->
<g id="node6" class="node">
<title>j3472867779</title>
<polygon fill="none" stroke="red" points="1250.54,-1174 583.54,-1174 583.54,-1138 1250.54,-1138 1250.54,-1174"/>
<text text-anchor="middle" x="917.04" y="-1152.3" font-family="Times New Roman,serif" font-size="14.00">Arthur, Masallar &amp; Mesafeler oyununa gelirsek; eğer oynarsan bu hem Amir hem de benim için çok şey ifade edecek.</text>
</g>
<!-- j1923088054&#45;&gt;j3472867779 -->
<g id="edge6" class="edge">
<title>j1923088054&#45;&gt;j3472867779</title>
<path fill="none" stroke="green" d="M621.44,-1226.41C680.57,-1212.52 767.44,-1192.13 831.72,-1177.03"/>
<polygon fill="green" stroke="green" points="832.23,-1180.51 841.17,-1174.82 830.63,-1173.69 832.23,-1180.51"/>
<text text-anchor="middle" x="768.04" y="-1195.8" font-family="Times New Roman,serif" font-size="14.00">true</text>
</g>
<!-- j653018743 -->
<g id="node7" class="node">
<title>j653018743</title>
<polygon fill="none" stroke="red" points="833.04,-1012 177.04,-1012 177.04,-976 833.04,-976 833.04,-1012"/>
<text text-anchor="middle" x="505.04" y="-990.3" font-family="Times New Roman,serif" font-size="14.00">Hey, Arthur &#45; Masallar &amp; Mesafeler oyununa hayır dediğini biliyorum ama bunun eğlenceli olacağını düşünüyorum.</text>
</g>
<!-- j1923088054&#45;&gt;j653018743 -->
<g id="edge7" class="edge">
<title>j1923088054&#45;&gt;j653018743</title>
<path fill="none" stroke="green" d="M547.51,-1224.71C541.9,-1211.16 534.47,-1191.69 530.04,-1174 516.97,-1121.86 510.2,-1059.35 507.15,-1023.69"/>
<polygon fill="green" stroke="green" points="510.64,-1023.46 506.34,-1013.77 503.66,-1024.02 510.64,-1023.46"/>
<text text-anchor="middle" x="541.04" y="-1152.3" font-family="Times New Roman,serif" font-size="14.00">true</text>
</g>
<!-- j2030299552 -->
<g id="node8" class="node">
<title>j2030299552</title>
<polygon fill="none" stroke="red" points="1142.54,-1120 531.54,-1120 531.54,-1084 1142.54,-1084 1142.54,-1120"/>
<text text-anchor="middle" x="837.04" y="-1098.3" font-family="Times New Roman,serif" font-size="14.00">Hey, Amir ve benimle Masallar &amp; Mesafeler oynamak ister misin? Bunun eğlenceli olacağını düşünüyorum.</text>
</g>
<!-- j1923088054&#45;&gt;j2030299552 -->
<g id="edge8" class="edge">
<title>j1923088054&#45;&gt;j2030299552</title>
<path fill="none" stroke="brown" d="M552.82,-1224.78C550.87,-1201.51 551.38,-1160.34 575.04,-1138 580.94,-1132.43 590.22,-1127.72 601.82,-1123.76"/>
<polygon fill="brown" stroke="brown" points="602.61,-1127.18 611.15,-1120.9 600.56,-1120.48 602.61,-1127.18"/>
<text text-anchor="middle" x="565.04" y="-1195.8" font-family="Times New Roman,serif" font-size="14.00">false</text>
</g>
<!-- j727189231 -->
<g id="node9" class="node">
<title>j727189231</title>
<polygon fill="none" stroke="red" points="1957.54,-1174 1268.54,-1174 1268.54,-1138 1957.54,-1138 1957.54,-1174"/>
<text text-anchor="middle" x="1613.04" y="-1152.3" font-family="Times New Roman,serif" font-size="14.00">Hey Arthur. Amir Masallar &amp; Mesafeler adlı bir oyun düzenliyor ve sen de katılırsan bu ikimiz için de çok şey ifade eder.</text>
</g>
<!-- j1923088054&#45;&gt;j727189231 -->
<g id="edge9" class="edge">
<title>j1923088054&#45;&gt;j727189231</title>
<path fill="none" stroke="brown" d="M677.7,-1232.15C850.15,-1218.29 1167.39,-1192.8 1384.16,-1175.39"/>
<polygon fill="brown" stroke="brown" points="1384.18,-1178.9 1393.86,-1174.61 1383.62,-1171.92 1384.18,-1178.9"/>
<text text-anchor="middle" x="1160.04" y="-1195.8" font-family="Times New Roman,serif" font-size="14.00">false</text>
</g>
<!-- j4069280588 -->
<g id="node10" class="node">
<title>j4069280588</title>
<polygon fill="none" stroke="blue" points="1557.04,-1066 1321.04,-1066 1321.04,-1030 1557.04,-1030 1557.04,-1066"/>
<text text-anchor="middle" x="1439.04" y="-1044.3" font-family="Times New Roman,serif" font-size="14.00">Gerçekten mi? Neden bu kadar önemli?</text>
</g>
<!-- j3472867779&#45;&gt;j4069280588 -->
<g id="edge10" class="edge">
<title>j3472867779&#45;&gt;j4069280588</title>
<path fill="none" stroke="black" d="M1049.47,-1137.52C1083.04,-1132.47 1118.96,-1126.54 1152.04,-1120 1225.01,-1105.57 1307.33,-1084.73 1365.03,-1069.36"/>
<polygon fill="black" stroke="black" points="1365.66,-1072.81 1374.41,-1066.85 1363.85,-1066.05 1365.66,-1072.81"/>
</g>
<!-- j1203829255 -->
<g id="node11" class="node">
<title>j1203829255</title>
<polygon fill="none" stroke="blue" points="942.54,-885 561.54,-885 561.54,-849 942.54,-849 942.54,-885"/>
<text text-anchor="middle" x="752.04" y="-863.3" font-family="Times New Roman,serif" font-size="14.00">Pek çok insan için &quot;eğlence&quot; farklıdır. Üzgünüm ama ben yokum.</text>
</g>
<!-- j653018743&#45;&gt;j1203829255 -->
<g id="edge11" class="edge">
<title>j653018743&#45;&gt;j1203829255</title>
<path fill="none" stroke="black" d="M539.38,-975.62C583.22,-953.43 659.16,-915 707.43,-890.57"/>
<polygon fill="black" stroke="black" points="708.9,-893.76 716.24,-886.12 705.74,-887.51 708.9,-893.76"/>
</g>
<!-- j2030299552&#45;&gt;j1203829255 -->
<g id="edge12" class="edge">
<title>j2030299552&#45;&gt;j1203829255</title>
<path fill="none" stroke="black" d="M839.87,-1083.83C843.23,-1059.18 846.88,-1012.67 834.04,-976 822.81,-943.92 798.17,-913.67 778.81,-893.4"/>
<polygon fill="black" stroke="black" points="781.46,-891.1 771.95,-886.42 776.47,-896.01 781.46,-891.1"/>
</g>
<!-- j727189231&#45;&gt;j4069280588 -->
<g id="edge13" class="edge">
<title>j727189231&#45;&gt;j4069280588</title>
<path fill="none" stroke="black" d="M1584.7,-1137.73C1555.46,-1119.92 1509.68,-1092.04 1477.26,-1072.28"/>
<polygon fill="black" stroke="black" points="1479.31,-1069.44 1468.95,-1067.22 1475.67,-1075.41 1479.31,-1069.44"/>
</g>
<!-- j3711560339 -->
<g id="node12" class="node">
<title>j3711560339</title>
<polygon fill="none" stroke="red" points="1295.54,-958 876.54,-958 876.54,-922 1295.54,-922 1295.54,-958"/>
<text text-anchor="middle" x="1086.04" y="-936.3" font-family="Times New Roman,serif" font-size="14.00">Bence çok eğlenceli olur ve hepimiz için iyi bir bağ kurma deneyimi olur.</text>
</g>
<!-- j4069280588&#45;&gt;j3711560339 -->
<g id="edge14" class="edge">
<title>j4069280588&#45;&gt;j3711560339</title>
<path fill="none" stroke="black" d="M1381.14,-1029.61C1319.17,-1011 1220.88,-981.49 1154.96,-961.69"/>
<polygon fill="black" stroke="black" points="1156.29,-958.44 1145.71,-958.92 1154.28,-965.15 1156.29,-958.44"/>
</g>
<!-- j1869298601 -->
<g id="node13" class="node">
<title>j1869298601</title>
<polygon fill="none" stroke="red" points="2170.54,-958 1313.54,-958 1313.54,-922 2170.54,-922 2170.54,-958"/>
<text text-anchor="middle" x="1742.04" y="-936.3" font-family="Times New Roman,serif" font-size="14.00">Kendini dışlanmış hissediyor &#45; asker olmayan, inek, biraz da izole. Hepimiz oturup onun oyunlarından birini oynasak bu onun için çok şey ifade ederdi.</text>
</g>
<!-- j4069280588&#45;&gt;j1869298601 -->
<g id="edge15" class="edge">
<title>j4069280588&#45;&gt;j1869298601</title>
<path fill="none" stroke="black" d="M1488.73,-1029.61C1541.49,-1011.16 1624.91,-981.98 1681.48,-962.19"/>
<polygon fill="black" stroke="black" points="1682.35,-965.59 1690.64,-958.98 1680.04,-958.98 1682.35,-965.59"/>
</g>
<!-- j3571706762 -->
<g id="node14" class="node">
<title>j3571706762</title>
<polygon fill="none" stroke="blue" points="393.04,-758 179.04,-758 179.04,-722 393.04,-722 393.04,-758"/>
<text text-anchor="middle" x="286.04" y="-736.3" font-family="Times New Roman,serif" font-size="14.00">Siz gençlere iyi eğlenceler bu arada.</text>
</g>
<!-- j1203829255&#45;&gt;j3571706762 -->
<g id="edge16" class="edge">
<title>j1203829255&#45;&gt;j3571706762</title>
<path fill="none" stroke="black" d="M687.24,-848.62C602.02,-825.76 452.5,-785.65 362.04,-761.39"/>
<polygon fill="black" stroke="black" points="363.06,-758.04 352.49,-758.83 361.25,-764.8 363.06,-758.04"/>
</g>
<!-- j3711560339&#45;&gt;j1203829255 -->
<g id="edge17" class="edge">
<title>j3711560339&#45;&gt;j1203829255</title>
<path fill="none" stroke="black" d="M1003.91,-921.54C955.87,-911.33 895.08,-898.41 845.25,-887.81"/>
<polygon fill="black" stroke="black" points="846.13,-884.42 835.62,-885.77 844.68,-891.27 846.13,-884.42"/>
</g>
<!-- j2843579358 -->
<g id="node15" class="node">
<title>j2843579358</title>
<ellipse fill="none" stroke="orange" cx="1276.04" cy="-867" rx="64.19" ry="18"/>
<text text-anchor="middle" x="1276.04" y="-863.3" font-family="Times New Roman,serif" font-size="14.00">+20 Chemistry</text>
</g>
<!-- j1869298601&#45;&gt;j2843579358 -->
<g id="edge18" class="edge">
<title>j1869298601&#45;&gt;j2843579358</title>
<path fill="none" stroke="black" d="M1627.45,-921.54C1537.99,-907.91 1416.81,-889.45 1342.65,-878.15"/>
<polygon fill="black" stroke="black" points="1343.52,-874.74 1333.11,-876.7 1342.47,-881.66 1343.52,-874.74"/>
</g>
<!-- j3571706762&#45;&gt;Chat ends. -->
<g id="edge19" class="edge">
<title>j3571706762&#45;&gt;Chat ends.</title>
<path fill="none" stroke="black" d="M273.21,-721.7C260.86,-703.29 244.04,-672.84 244.04,-643.5 244.04,-643.5 244.04,-643.5 244.04,-90 244.04,-76.08 244.04,-60.63 244.04,-47.7"/>
<polygon fill="black" stroke="black" points="247.54,-47.73 244.04,-37.73 240.54,-47.73 247.54,-47.73"/>
</g>
<!-- j4221844418 -->
<g id="node16" class="node">
<title>j4221844418</title>
<polygon fill="none" stroke="blue" points="1388.04,-812 1058.04,-812 1058.04,-776 1388.04,-776 1388.04,-812"/>
<text text-anchor="middle" x="1223.04" y="-790.3" font-family="Times New Roman,serif" font-size="14.00">Evet... anlıyorum. Tamam, varım. Ben de oynayacağım.</text>
</g>
<!-- j2843579358&#45;&gt;j4221844418 -->
<g id="edge20" class="edge">
<title>j2843579358&#45;&gt;j4221844418</title>
<path fill="none" stroke="black" d="M1263.48,-849.17C1257.34,-840.96 1249.82,-830.87 1242.93,-821.64"/>
<polygon fill="black" stroke="black" points="1245.75,-819.58 1236.97,-813.66 1240.14,-823.77 1245.75,-819.58"/>
</g>
<!-- j3017298794 -->
<g id="node17" class="node">
<title>j3017298794</title>
<polygon fill="none" stroke="blue" points="1322.04,-704 1070.04,-704 1070.04,-668 1322.04,-668 1322.04,-704"/>
<text text-anchor="middle" x="1196.04" y="-682.3" font-family="Times New Roman,serif" font-size="14.00">En azından bir gece, bakalım nasıl olacak.</text>
</g>
<!-- j4221844418&#45;&gt;j3017298794 -->
<g id="edge21" class="edge">
<title>j4221844418&#45;&gt;j3017298794</title>
<path fill="none" stroke="black" d="M1218.7,-775.97C1214.53,-759.61 1208.16,-734.59 1203.23,-715.24"/>
<polygon fill="black" stroke="black" points="1206.69,-714.63 1200.83,-705.81 1199.91,-716.36 1206.69,-714.63"/>
</g>
<!-- j243672508 -->
<g id="node18" class="node">
<title>j243672508</title>
<ellipse fill="none" stroke="orange" cx="759.04" cy="-599" rx="147.57" ry="18"/>
<text text-anchor="middle" x="759.04" y="-595.3" font-family="Times New Roman,serif" font-size="14.00">Boolean AmirRPGArthur is now true.</text>
</g>
<!-- j3017298794&#45;&gt;j243672508 -->
<g id="edge22" class="edge">
<title>j3017298794&#45;&gt;j243672508</title>
<path fill="none" stroke="black" d="M1106.29,-667.54C1030.1,-652.72 921.46,-631.59 846.06,-616.93"/>
<polygon fill="black" stroke="black" points="847.16,-613.57 836.68,-615.1 845.82,-620.45 847.16,-613.57"/>
</g>
<!-- j216831259 -->
<g id="node19" class="node">
<title>j216831259</title>
<ellipse fill="none" stroke="orange" cx="540.04" cy="-526" rx="130.78" ry="18"/>
<text text-anchor="middle" x="540.04" y="-522.3" font-family="Times New Roman,serif" font-size="14.00">Check boolean AmirRPGQuincy</text>
</g>
<!-- j243672508&#45;&gt;j216831259 -->
<g id="edge23" class="edge">
<title>j243672508&#45;&gt;j216831259</title>
<path fill="none" stroke="black" d="M708.52,-581.62C676.26,-571.16 634.27,-557.55 600.28,-546.53"/>
<polygon fill="black" stroke="black" points="601.58,-543.27 590.99,-543.52 599.42,-549.93 601.58,-543.27"/>
</g>
<!-- j1819150890 -->
<g id="node20" class="node">
<title>j1819150890</title>
<ellipse fill="none" stroke="orange" cx="540.04" cy="-439" rx="128.08" ry="18"/>
<text text-anchor="middle" x="540.04" y="-435.3" font-family="Times New Roman,serif" font-size="14.00">Check boolean AmirRPGArthur</text>
</g>
<!-- j216831259&#45;&gt;j1819150890 -->
<g id="edge24" class="edge">
<title>j216831259&#45;&gt;j1819150890</title>
<path fill="none" stroke="green" d="M540.04,-507.8C540.04,-496.58 540.04,-481.67 540.04,-468.69"/>
<polygon fill="green" stroke="green" points="543.54,-468.98 540.04,-458.98 536.54,-468.98 543.54,-468.98"/>
<text text-anchor="middle" x="551.04" y="-478.8" font-family="Times New Roman,serif" font-size="14.00">true</text>
</g>
<!-- j1692268193 -->
<g id="node21" class="node">
<title>j1692268193</title>
<ellipse fill="none" stroke="orange" cx="412.04" cy="-91" rx="139.98" ry="18"/>
<text text-anchor="middle" x="412.04" y="-87.3" font-family="Times New Roman,serif" font-size="14.00">Boolean AmirRPGAny is now true.</text>
</g>
<!-- j216831259&#45;&gt;j1692268193 -->
<g id="edge25" class="edge">
<title>j216831259&#45;&gt;j1692268193</title>
<path fill="none" stroke="brown" d="M446.42,-513.09C405.23,-502.07 366.04,-480.85 366.04,-440 366.04,-440 366.04,-440 366.04,-177 366.04,-155.26 377.82,-133.75 389.46,-117.81"/>
<polygon fill="brown" stroke="brown" points="391.92,-120.35 395.28,-110.3 386.39,-116.06 391.92,-120.35"/>
<text text-anchor="middle" x="379.04" y="-304.8" font-family="Times New Roman,serif" font-size="14.00">false</text>
</g>
<!-- j1819150890&#45;&gt;j1692268193 -->
<g id="edge27" class="edge">
<title>j1819150890&#45;&gt;j1692268193</title>
<path fill="none" stroke="brown" d="M480.16,-422.7C446.85,-410.2 412.04,-388.61 412.04,-353 412.04,-353 412.04,-353 412.04,-177 412.04,-158.12 412.04,-136.88 412.04,-120.35"/>
<polygon fill="brown" stroke="brown" points="415.54,-120.77 412.04,-110.77 408.54,-120.77 415.54,-120.77"/>
<text text-anchor="middle" x="425.04" y="-261.3" font-family="Times New Roman,serif" font-size="14.00">false</text>
</g>
<!-- j2586998905 -->
<g id="node22" class="node">
<title>j2586998905</title>
<ellipse fill="none" stroke="orange" cx="558.04" cy="-352" rx="117.78" ry="18"/>
<text text-anchor="middle" x="558.04" y="-348.3" font-family="Times New Roman,serif" font-size="14.00">Check boolean AmirRPGAoi</text>
</g>
<!-- j1819150890&#45;&gt;j2586998905 -->
<g id="edge26" class="edge">
<title>j1819150890&#45;&gt;j2586998905</title>
<path fill="none" stroke="green" d="M543.68,-420.8C546.06,-409.58 549.21,-394.67 551.96,-381.69"/>
<polygon fill="green" stroke="green" points="555.38,-382.46 554.03,-371.95 548.53,-381.01 555.38,-382.46"/>
<text text-anchor="middle" x="561.04" y="-391.8" font-family="Times New Roman,serif" font-size="14.00">true</text>
</g>
<!-- j1692268193&#45;&gt;Chat ends. -->
<g id="edge28" class="edge">
<title>j1692268193&#45;&gt;Chat ends.</title>
<path fill="none" stroke="black" d="M372.65,-73.35C346.65,-62.37 312.62,-47.98 286.1,-36.77"/>
<polygon fill="black" stroke="black" points="287.57,-33.6 277,-32.93 284.84,-40.05 287.57,-33.6"/>
</g>
<!-- j2586998905&#45;&gt;j1692268193 -->
<g id="edge30" class="edge">
<title>j2586998905&#45;&gt;j1692268193</title>
<path fill="none" stroke="brown" d="M534.64,-333.9C518.83,-321.32 498.46,-302.99 485.04,-283 443.72,-221.46 452.92,-196.08 426.04,-127 425.17,-124.76 424.26,-122.44 423.34,-120.12"/>
<polygon fill="brown" stroke="brown" points="426.59,-118.82 419.64,-110.83 420.09,-121.41 426.59,-118.82"/>
<text text-anchor="middle" x="469.04" y="-217.8" font-family="Times New Roman,serif" font-size="14.00">false</text>
</g>
<!-- j206518691 -->
<g id="node23" class="node">
<title>j206518691</title>
<ellipse fill="none" stroke="orange" cx="626.04" cy="-265" rx="131.88" ry="18"/>
<text text-anchor="middle" x="626.04" y="-261.3" font-family="Times New Roman,serif" font-size="14.00">Check boolean AmirRPGEleanor</text>
</g>
<!-- j2586998905&#45;&gt;j206518691 -->
<g id="edge29" class="edge">
<title>j2586998905&#45;&gt;j206518691</title>
<path fill="none" stroke="green" d="M571.8,-333.8C581.39,-321.82 594.35,-305.62 605.19,-292.06"/>
<polygon fill="green" stroke="green" points="607.84,-294.35 611.35,-284.36 602.37,-289.98 607.84,-294.35"/>
<text text-anchor="middle" x="607.04" y="-304.8" font-family="Times New Roman,serif" font-size="14.00">true</text>
</g>
<!-- j206518691&#45;&gt;j1692268193 -->
<g id="edge32" class="edge">
<title>j206518691&#45;&gt;j1692268193</title>
<path fill="none" stroke="brown" d="M591.95,-247.21C569.87,-235.15 541.52,-217.28 521.04,-196 496.31,-170.29 506.02,-151.45 480.04,-127 474.96,-122.22 469.11,-117.93 463.01,-114.13"/>
<polygon fill="brown" stroke="brown" points="465.03,-111.25 454.61,-109.31 461.54,-117.33 465.03,-111.25"/>
<text text-anchor="middle" x="534.04" y="-174.3" font-family="Times New Roman,serif" font-size="14.00">false</text>
</g>
<!-- j126081337 -->
<g id="node24" class="node">
<title>j126081337</title>
<ellipse fill="none" stroke="orange" cx="680.04" cy="-178" rx="124.28" ry="18"/>
<text text-anchor="middle" x="680.04" y="-174.3" font-family="Times New Roman,serif" font-size="14.00">Check boolean AmirRPGLettie</text>
</g>
<!-- j206518691&#45;&gt;j126081337 -->
<g id="edge31" class="edge">
<title>j206518691&#45;&gt;j126081337</title>
<path fill="none" stroke="green" d="M636.97,-246.8C644.43,-235.05 654.48,-219.24 662.99,-205.84"/>
<polygon fill="green" stroke="green" points="665.91,-207.77 668.32,-197.45 660,-204.02 665.91,-207.77"/>
<text text-anchor="middle" x="667.04" y="-217.8" font-family="Times New Roman,serif" font-size="14.00">true</text>
</g>
<!-- j126081337&#45;&gt;j1692268193 -->
<g id="edge34" class="edge">
<title>j126081337&#45;&gt;j1692268193</title>
<path fill="none" stroke="brown" d="M631.55,-161.04C601.26,-151.12 561.42,-138.17 526.04,-127 509.76,-121.86 492.15,-116.4 475.74,-111.36"/>
<polygon fill="brown" stroke="brown" points="477.2,-108.15 466.61,-108.56 475.15,-114.84 477.2,-108.15"/>
<text text-anchor="middle" x="585.04" y="-130.8" font-family="Times New Roman,serif" font-size="14.00">false</text>
</g>
<!-- j3798570005 -->
<g id="node25" class="node">
<title>j3798570005</title>
<ellipse fill="none" stroke="orange" cx="704.04" cy="-91" rx="134.58" ry="18"/>
<text text-anchor="middle" x="704.04" y="-87.3" font-family="Times New Roman,serif" font-size="14.00">Boolean AmirRPGAll is now true.</text>
</g>
<!-- j126081337&#45;&gt;j3798570005 -->
<g id="edge33" class="edge">
<title>j126081337&#45;&gt;j3798570005</title>
<path fill="none" stroke="green" d="M684.9,-159.8C688.09,-148.47 692.36,-133.36 696.05,-120.29"/>
<polygon fill="green" stroke="green" points="699.35,-121.5 698.7,-110.92 692.61,-119.6 699.35,-121.5"/>
<text text-anchor="middle" x="704.04" y="-130.8" font-family="Times New Roman,serif" font-size="14.00">true</text>
</g>
<!-- j3798570005&#45;&gt;Chat ends. -->
<g id="edge35" class="edge">
<title>j3798570005&#45;&gt;Chat ends.</title>
<path fill="none" stroke="black" d="M618.33,-76.77C525.54,-62.45 380.21,-40.02 300.7,-27.75"/>
<polygon fill="black" stroke="black" points="301.37,-24.31 290.96,-26.24 300.31,-31.23 301.37,-24.31"/>
</g>
</g>
</svg>
