<?xml version="1.0" encoding="UTF-8" standalone="no"?>
<!DOCTYPE svg PUBLIC "-//W3C//DTD SVG 1.1//EN"
 "http://www.w3.org/Graphics/SVG/1.1/DTD/svg11.dtd">
<!-- Generated by graphviz version 7.1.0 (20230121.1956)
 -->
<!-- Pages: 1 -->
<svg width="2377pt" height="1860pt"
 viewBox="0.00 0.00 2377.14 1860.00" xmlns="http://www.w3.org/2000/svg" xmlns:xlink="http://www.w3.org/1999/xlink">
<g id="graph0" class="graph" transform="scale(1 1) rotate(0) translate(4 1856)">
<polygon fill="white" stroke="none" points="-4,4 -4,-1856 2373.14,-1856 2373.14,4 -4,4"/>
<!-- AoiRank2Convo6 begins. -->
<g id="node1" class="node">
<title>AoiRank2Convo6 begins.</title>
<ellipse fill="none" stroke="orange" cx="104.64" cy="-1834" rx="104.78" ry="18"/>
<text text-anchor="middle" x="104.64" y="-1830.3" font-family="Times New Roman,serif" font-size="14.00">AoiRank2Convo6 begins.</text>
</g>
<!-- j746431032 -->
<g id="node2" class="node">
<title>j746431032</title>
<ellipse fill="none" stroke="orange" cx="104.64" cy="-1761" rx="104.78" ry="18"/>
<text text-anchor="middle" x="104.64" y="-1757.3" font-family="Times New Roman,serif" font-size="14.00">Check boolean AmirRPG</text>
</g>
<!-- AoiRank2Convo6 begins.&#45;&gt;j746431032 -->
<g id="edge1" class="edge">
<title>AoiRank2Convo6 begins.&#45;&gt;j746431032</title>
<path fill="none" stroke="black" d="M104.64,-1815.81C104.64,-1808.23 104.64,-1799.1 104.64,-1790.54"/>
<polygon fill="black" stroke="black" points="108.14,-1790.54 104.64,-1780.54 101.14,-1790.54 108.14,-1790.54"/>
</g>
<!-- j683070349 -->
<g id="node3" class="node">
<title>j683070349</title>
<ellipse fill="none" stroke="orange" cx="623.64" cy="-1674" rx="161.37" ry="18"/>
<text text-anchor="middle" x="623.64" y="-1670.3" font-family="Times New Roman,serif" font-size="14.00">Boolean AmirRPGAoiAsked is now true.</text>
</g>
<!-- j746431032&#45;&gt;j683070349 -->
<g id="edge2" class="edge">
<title>j746431032&#45;&gt;j683070349</title>
<path fill="none" stroke="green" d="M178.72,-1747.87C269.43,-1733.01 423.4,-1707.79 524.31,-1691.27"/>
<polygon fill="green" stroke="green" points="524.63,-1694.76 533.93,-1689.69 523.5,-1687.85 524.63,-1694.76"/>
<text text-anchor="middle" x="406.64" y="-1713.8" font-family="Times New Roman,serif" font-size="14.00">true</text>
</g>
<!-- Chat ends. -->
<g id="node4" class="node">
<title>Chat ends.</title>
<ellipse fill="none" stroke="orange" cx="1360.64" cy="-18" rx="50.09" ry="18"/>
<text text-anchor="middle" x="1360.64" y="-14.3" font-family="Times New Roman,serif" font-size="14.00">Chat ends.</text>
</g>
<!-- j746431032&#45;&gt;Chat ends. -->
<g id="edge3" class="edge">
<title>j746431032&#45;&gt;Chat ends.</title>
<path fill="none" stroke="brown" d="M99.4,-1742.6C94.74,-1725.54 88.64,-1698.73 88.64,-1675 88.64,-1675 88.64,-1675 88.64,-90 88.64,-28.63 1044.89,-20.31 1299.16,-19.18"/>
<polygon fill="brown" stroke="brown" points="1298.89,-22.68 1308.87,-19.14 1298.86,-15.68 1298.89,-22.68"/>
<text text-anchor="middle" x="101.64" y="-854.3" font-family="Times New Roman,serif" font-size="14.00">false</text>
</g>
<!-- j2229291101 -->
<g id="node5" class="node">
<title>j2229291101</title>
<polygon fill="none" stroke="red" points="1330.14,-1619 1099.14,-1619 1099.14,-1583 1330.14,-1583 1330.14,-1619"/>
<text text-anchor="middle" x="1214.64" y="-1597.3" font-family="Times New Roman,serif" font-size="14.00">안녕 아오이! 너 아미르 좋아해?</text>
</g>
<!-- j683070349&#45;&gt;j2229291101 -->
<g id="edge4" class="edge">
<title>j683070349&#45;&gt;j2229291101</title>
<path fill="none" stroke="black" d="M730.67,-1660.14C831.06,-1648.08 981.27,-1630.04 1087.68,-1617.25"/>
<polygon fill="black" stroke="black" points="1087.8,-1620.76 1097.31,-1616.1 1086.96,-1613.81 1087.8,-1620.76"/>
</g>
<!-- j2129369706 -->
<g id="node6" class="node">
<title>j2129369706</title>
<polygon fill="none" stroke="red" points="738.64,-1619 508.64,-1619 508.64,-1583 738.64,-1583 738.64,-1619"/>
<text text-anchor="middle" x="623.64" y="-1597.3" font-family="Times New Roman,serif" font-size="14.00">너 게임 좋아하지, 그치 아오이?</text>
</g>
<!-- j683070349&#45;&gt;j2129369706 -->
<g id="edge5" class="edge">
<title>j683070349&#45;&gt;j2129369706</title>
<path fill="none" stroke="black" d="M623.64,-1655.81C623.64,-1648.23 623.64,-1639.1 623.64,-1630.54"/>
<polygon fill="black" stroke="black" points="627.14,-1630.54 623.64,-1620.54 620.14,-1630.54 627.14,-1630.54"/>
</g>
<!-- j2565005916 -->
<g id="node7" class="node">
<title>j2565005916</title>
<polygon fill="none" stroke="blue" points="1504.14,-1546 1437.14,-1546 1437.14,-1510 1504.14,-1510 1504.14,-1546"/>
<text text-anchor="middle" x="1470.64" y="-1524.3" font-family="Times New Roman,serif" font-size="14.00">응!! 왜?</text>
</g>
<!-- j2229291101&#45;&gt;j2565005916 -->
<g id="edge6" class="edge">
<title>j2229291101&#45;&gt;j2565005916</title>
<path fill="none" stroke="black" d="M1277.59,-1582.54C1323.6,-1569.78 1384.88,-1552.78 1425.95,-1541.4"/>
<polygon fill="black" stroke="black" points="1426.8,-1544.79 1435.5,-1538.75 1424.93,-1538.05 1426.8,-1544.79"/>
</g>
<!-- j494920046 -->
<g id="node8" class="node">
<title>j494920046</title>
<polygon fill="none" stroke="blue" points="668.14,-1546 579.14,-1546 579.14,-1510 668.14,-1510 668.14,-1546"/>
<text text-anchor="middle" x="623.64" y="-1524.3" font-family="Times New Roman,serif" font-size="14.00">어떤 종류?</text>
</g>
<!-- j2129369706&#45;&gt;j494920046 -->
<g id="edge7" class="edge">
<title>j2129369706&#45;&gt;j494920046</title>
<path fill="none" stroke="black" d="M623.64,-1582.81C623.64,-1575.23 623.64,-1566.1 623.64,-1557.54"/>
<polygon fill="black" stroke="black" points="627.14,-1557.54 623.64,-1547.54 620.14,-1557.54 627.14,-1557.54"/>
</g>
<!-- j1751092870 -->
<g id="node9" class="node">
<title>j1751092870</title>
<polygon fill="none" stroke="red" points="1965.14,-1473 1148.14,-1473 1148.14,-1437 1965.14,-1437 1965.14,-1473"/>
<text text-anchor="middle" x="1556.64" y="-1451.3" font-family="Times New Roman,serif" font-size="14.00">아미르가 &quot;페이블스 &amp; 프론티어&quot; 게임을 하려고 하던데. 모두가 캐릭터를 만들고 가상으로 플레이하는 보드게임이야.</text>
</g>
<!-- j2565005916&#45;&gt;j1751092870 -->
<g id="edge8" class="edge">
<title>j2565005916&#45;&gt;j1751092870</title>
<path fill="none" stroke="black" d="M1491.46,-1509.81C1502.15,-1500.98 1515.37,-1490.07 1527.1,-1480.39"/>
<polygon fill="black" stroke="black" points="1529.07,-1483.3 1534.55,-1474.24 1524.61,-1477.91 1529.07,-1483.3"/>
</g>
<!-- j2554236158 -->
<g id="node10" class="node">
<title>j2554236158</title>
<polygon fill="none" stroke="red" points="1130.14,-1473 117.14,-1473 117.14,-1437 1130.14,-1437 1130.14,-1473"/>
<text text-anchor="middle" x="623.64" y="-1451.3" font-family="Times New Roman,serif" font-size="14.00">아미르가 &quot;페이블스 &amp; 프론티어&quot; 게임을 하려고 하던데. 우리 모두 함께 이야기를 만들고 기회를 이용해서 재밌는 사건들을 펼쳐 나가는 게임이야.</text>
</g>
<!-- j494920046&#45;&gt;j2554236158 -->
<g id="edge9" class="edge">
<title>j494920046&#45;&gt;j2554236158</title>
<path fill="none" stroke="black" d="M623.64,-1509.81C623.64,-1502.23 623.64,-1493.1 623.64,-1484.54"/>
<polygon fill="black" stroke="black" points="627.14,-1484.54 623.64,-1474.54 620.14,-1484.54 627.14,-1484.54"/>
</g>
<!-- j1402996000 -->
<g id="node11" class="node">
<title>j1402996000</title>
<polygon fill="none" stroke="blue" points="1635.14,-1400 1454.14,-1400 1454.14,-1364 1635.14,-1364 1635.14,-1400"/>
<text text-anchor="middle" x="1544.64" y="-1378.3" font-family="Times New Roman,serif" font-size="14.00">&lt;RETRO_EMOJI_STARE&gt;</text>
</g>
<!-- j1751092870&#45;&gt;j1402996000 -->
<g id="edge10" class="edge">
<title>j1751092870&#45;&gt;j1402996000</title>
<path fill="none" stroke="black" d="M1553.74,-1436.81C1552.44,-1429.14 1550.88,-1419.89 1549.41,-1411.24"/>
<polygon fill="black" stroke="black" points="1552.89,-1410.8 1547.77,-1401.52 1545.99,-1411.96 1552.89,-1410.8"/>
</g>
<!-- j19798183 -->
<g id="node12" class="node">
<title>j19798183</title>
<polygon fill="none" stroke="blue" points="724.64,-1346 522.64,-1346 522.64,-1310 724.64,-1310 724.64,-1346"/>
<text text-anchor="middle" x="623.64" y="-1324.3" font-family="Times New Roman,serif" font-size="14.00">오오오오오 그거 재밌겠다!</text>
</g>
<!-- j2554236158&#45;&gt;j19798183 -->
<g id="edge11" class="edge">
<title>j2554236158&#45;&gt;j19798183</title>
<path fill="none" stroke="black" d="M623.64,-1436.62C623.64,-1416.19 623.64,-1381.99 623.64,-1357.62"/>
<polygon fill="black" stroke="black" points="627.14,-1357.75 623.64,-1347.75 620.14,-1357.75 627.14,-1357.75"/>
</g>
<!-- j3680885314 -->
<g id="node13" class="node">
<title>j3680885314</title>
<polygon fill="none" stroke="blue" points="1808.64,-1292 1262.64,-1292 1262.64,-1256 1808.64,-1256 1808.64,-1292"/>
<text text-anchor="middle" x="1535.64" y="-1270.3" font-family="Times New Roman,serif" font-size="14.00">어떤 역을 연기하면 되는거야? ... 이런거 연기한다고 사람들이 놀리진 않을까?</text>
</g>
<!-- j1402996000&#45;&gt;j3680885314 -->
<g id="edge12" class="edge">
<title>j1402996000&#45;&gt;j3680885314</title>
<path fill="none" stroke="black" d="M1543.19,-1363.97C1541.82,-1347.76 1539.72,-1323.06 1538.09,-1303.79"/>
<polygon fill="black" stroke="black" points="1541.57,-1303.52 1537.24,-1293.85 1534.6,-1304.11 1541.57,-1303.52"/>
</g>
<!-- j2241386917 -->
<g id="node14" class="node">
<title>j2241386917</title>
<polygon fill="none" stroke="blue" points="1039.64,-1038 545.64,-1038 545.64,-1002 1039.64,-1002 1039.64,-1038"/>
<text text-anchor="middle" x="792.64" y="-1016.3" font-family="Times New Roman,serif" font-size="14.00">나도 넣어줘!! 오 오 오 반려동물 키우는 캐릭터를 내가 하게끔 해줄까?</text>
</g>
<!-- j19798183&#45;&gt;j2241386917 -->
<g id="edge13" class="edge">
<title>j19798183&#45;&gt;j2241386917</title>
<path fill="none" stroke="black" d="M623.64,-1309.61C623.64,-1291.66 623.64,-1262.88 623.64,-1238 623.64,-1238 623.64,-1238 623.64,-1127 623.64,-1084.15 663.12,-1057.96 703.91,-1042.33"/>
<polygon fill="black" stroke="black" points="704.93,-1045.69 713.15,-1039 702.55,-1039.1 704.93,-1045.69"/>
</g>
<!-- j3092184743 -->
<g id="node15" class="node">
<title>j3092184743</title>
<polygon fill="none" stroke="red" points="1837.64,-1219 1229.64,-1219 1229.64,-1183 1837.64,-1183 1837.64,-1219"/>
<text text-anchor="middle" x="1533.64" y="-1197.3" font-family="Times New Roman,serif" font-size="14.00">어, 그냥 바보 같은 게임이야. 시간 낭비 같아 보이지만 친절하게 굴려고 애쓰는 중이야.</text>
</g>
<!-- j3680885314&#45;&gt;j3092184743 -->
<g id="edge14" class="edge">
<title>j3680885314&#45;&gt;j3092184743</title>
<path fill="none" stroke="black" d="M1535.16,-1255.81C1534.94,-1248.14 1534.68,-1238.89 1534.44,-1230.24"/>
<polygon fill="black" stroke="black" points="1537.94,-1230.44 1534.16,-1220.54 1530.95,-1230.64 1537.94,-1230.44"/>
</g>
<!-- j2761535104 -->
<g id="node16" class="node">
<title>j2761535104</title>
<polygon fill="none" stroke="red" points="2369.14,-1219 1856.14,-1219 1856.14,-1183 2369.14,-1183 2369.14,-1219"/>
<text text-anchor="middle" x="2112.64" y="-1197.3" font-family="Times New Roman,serif" font-size="14.00">그런 사람들이 있다면, 다들 날 거쳐가야 할 거야. &lt;RETRO_EMOJI_KNIFE&gt;</text>
</g>
<!-- j3680885314&#45;&gt;j2761535104 -->
<g id="edge15" class="edge">
<title>j3680885314&#45;&gt;j2761535104</title>
<path fill="none" stroke="black" d="M1677.53,-1255.54C1762.96,-1245.03 1871.75,-1231.64 1959.18,-1220.88"/>
<polygon fill="black" stroke="black" points="1959.55,-1224.36 1969.05,-1219.67 1958.69,-1217.42 1959.55,-1224.36"/>
</g>
<!-- j126966640 -->
<g id="node17" class="node">
<title>j126966640</title>
<polygon fill="none" stroke="red" points="1211.64,-1219 651.64,-1219 651.64,-1183 1211.64,-1183 1211.64,-1219"/>
<text text-anchor="middle" x="931.64" y="-1197.3" font-family="Times New Roman,serif" font-size="14.00">누가 신경 쓰겠어? 재밌을 거야! 그리고 이거 아미르에게 많은 의미가 있어 보여.</text>
</g>
<!-- j3680885314&#45;&gt;j126966640 -->
<g id="edge16" class="edge">
<title>j3680885314&#45;&gt;j126966640</title>
<path fill="none" stroke="black" d="M1387.11,-1255.54C1297.5,-1245.01 1183.34,-1231.59 1091.72,-1220.82"/>
<polygon fill="black" stroke="black" points="1092.22,-1217.35 1081.88,-1219.66 1091.41,-1224.3 1092.22,-1217.35"/>
</g>
<!-- j819198917 -->
<g id="node18" class="node">
<title>j819198917</title>
<polygon fill="none" stroke="red" points="1042.64,-930 434.64,-930 434.64,-894 1042.64,-894 1042.64,-930"/>
<text text-anchor="middle" x="738.64" y="-908.3" font-family="Times New Roman,serif" font-size="14.00">ㅋㅋㅋ 드루이드로 플레이할 수 있을 것 같아, 걔네들은 사역마가 있어. 고양이 같은 거.</text>
</g>
<!-- j2241386917&#45;&gt;j819198917 -->
<g id="edge17" class="edge">
<title>j2241386917&#45;&gt;j819198917</title>
<path fill="none" stroke="black" d="M783.96,-1001.97C775.51,-985.38 762.52,-959.88 752.61,-940.43"/>
<polygon fill="black" stroke="black" points="755.82,-939.01 748.16,-931.69 749.58,-942.19 755.82,-939.01"/>
</g>
<!-- j104402519 -->
<g id="node19" class="node">
<title>j104402519</title>
<polygon fill="none" stroke="red" points="1141.14,-876 980.14,-876 980.14,-840 1141.14,-840 1141.14,-876"/>
<text text-anchor="middle" x="1060.64" y="-854.3" font-family="Times New Roman,serif" font-size="14.00">물론 할 수 있을 거야.</text>
</g>
<!-- j2241386917&#45;&gt;j104402519 -->
<g id="edge18" class="edge">
<title>j2241386917&#45;&gt;j104402519</title>
<path fill="none" stroke="black" d="M929.52,-1001.5C974.86,-988.85 1021.41,-967.16 1051.64,-930 1061.14,-918.33 1063.66,-901.81 1063.69,-887.65"/>
<polygon fill="black" stroke="black" points="1067.2,-887.81 1063.28,-877.97 1060.2,-888.11 1067.2,-887.81"/>
</g>
<!-- j1160114699 -->
<g id="node20" class="node">
<title>j1160114699</title>
<polygon fill="none" stroke="blue" points="1639.14,-1092 1428.14,-1092 1428.14,-1056 1639.14,-1056 1639.14,-1092"/>
<text text-anchor="middle" x="1533.64" y="-1070.3" font-family="Times New Roman,serif" font-size="14.00">&lt;RETRO_EMOJI_HORRIFIED&gt;</text>
</g>
<!-- j3092184743&#45;&gt;j1160114699 -->
<g id="edge19" class="edge">
<title>j3092184743&#45;&gt;j1160114699</title>
<path fill="none" stroke="black" d="M1533.64,-1182.62C1533.64,-1162.19 1533.64,-1127.99 1533.64,-1103.62"/>
<polygon fill="black" stroke="black" points="1537.14,-1103.75 1533.64,-1093.75 1530.14,-1103.75 1537.14,-1103.75"/>
</g>
<!-- j4284239505 -->
<g id="node21" class="node">
<title>j4284239505</title>
<polygon fill="none" stroke="blue" points="2117.64,-1146 1941.64,-1146 1941.64,-1110 2117.64,-1110 2117.64,-1146"/>
<text text-anchor="middle" x="2029.64" y="-1124.3" font-family="Times New Roman,serif" font-size="14.00">&lt;RETRO_EMOJI_OHNO&gt;</text>
</g>
<!-- j2761535104&#45;&gt;j4284239505 -->
<g id="edge20" class="edge">
<title>j2761535104&#45;&gt;j4284239505</title>
<path fill="none" stroke="black" d="M2092.55,-1182.81C2082.33,-1174.07 2069.72,-1163.28 2058.48,-1153.67"/>
<polygon fill="black" stroke="black" points="2060.86,-1151.1 2050.99,-1147.26 2056.31,-1156.42 2060.86,-1151.1"/>
</g>
<!-- j275787530 -->
<g id="node22" class="node">
<title>j275787530</title>
<polygon fill="none" stroke="blue" points="937.64,-1146 731.64,-1146 731.64,-1110 937.64,-1110 937.64,-1146"/>
<text text-anchor="middle" x="834.64" y="-1124.3" font-family="Times New Roman,serif" font-size="14.00">&lt;RETRO_EMOJI_GIVELOVE&gt;</text>
</g>
<!-- j126966640&#45;&gt;j275787530 -->
<g id="edge21" class="edge">
<title>j126966640&#45;&gt;j275787530</title>
<path fill="none" stroke="black" d="M908.16,-1182.81C895.86,-1173.81 880.6,-1162.64 867.18,-1152.82"/>
<polygon fill="black" stroke="black" points="869.6,-1150.25 859.46,-1147.17 865.47,-1155.9 869.6,-1150.25"/>
</g>
<!-- j3628137180 -->
<g id="node23" class="node">
<title>j3628137180</title>
<ellipse fill="none" stroke="orange" cx="817.64" cy="-804" rx="64.19" ry="18"/>
<text text-anchor="middle" x="817.64" y="-800.3" font-family="Times New Roman,serif" font-size="14.00">+10 Chemistry</text>
</g>
<!-- j819198917&#45;&gt;j3628137180 -->
<g id="edge22" class="edge">
<title>j819198917&#45;&gt;j3628137180</title>
<path fill="none" stroke="black" d="M751.33,-893.97C764,-876.97 783.64,-850.62 798.26,-831.01"/>
<polygon fill="black" stroke="black" points="800.91,-833.31 804.08,-823.2 795.29,-829.13 800.91,-833.31"/>
</g>
<!-- j2489927680 -->
<g id="node24" class="node">
<title>j2489927680</title>
<polygon fill="none" stroke="blue" points="1505.64,-603 517.64,-603 517.64,-567 1505.64,-567 1505.64,-603"/>
<text text-anchor="middle" x="1011.64" y="-581.3" font-family="Times New Roman,serif" font-size="14.00">아미르에게 있어서 모두가 테이블에 둘러앉아서 다 같이 게임을 하는 게 세상에서 가장 행복한 일이라고 생각해... 나랑 비슷해. 마음이 넓어. &lt;3</text>
</g>
<!-- j104402519&#45;&gt;j2489927680 -->
<g id="edge23" class="edge">
<title>j104402519&#45;&gt;j2489927680</title>
<path fill="none" stroke="black" d="M1055.04,-839.81C1049.76,-822.04 1042.64,-793.38 1042.64,-768 1042.64,-768 1042.64,-768 1042.64,-657 1042.64,-641.76 1036.57,-626.11 1029.8,-613.39"/>
<polygon fill="black" stroke="black" points="1032.86,-611.69 1024.83,-604.78 1026.8,-615.19 1032.86,-611.69"/>
</g>
<!-- j1160114699&#45;&gt;Chat ends. -->
<g id="edge24" class="edge">
<title>j1160114699&#45;&gt;Chat ends.</title>
<path fill="none" stroke="black" d="M1533.64,-1055.74C1533.64,-1034.76 1533.64,-998.28 1533.64,-967 1533.64,-967 1533.64,-967 1533.64,-90 1533.64,-40.3 1471.78,-24.65 1422.05,-20.1"/>
<polygon fill="black" stroke="black" points="1422.43,-16.62 1412.19,-19.35 1421.89,-23.6 1422.43,-16.62"/>
</g>
<!-- j3530938653 -->
<g id="node25" class="node">
<title>j3530938653</title>
<polygon fill="none" stroke="blue" points="2013.14,-984 1770.14,-984 1770.14,-948 2013.14,-948 2013.14,-984"/>
<text text-anchor="middle" x="1891.64" y="-962.3" font-family="Times New Roman,serif" font-size="14.00">... 내 생각엔 사양하는게 좋겠어...</text>
</g>
<!-- j4284239505&#45;&gt;j3530938653 -->
<g id="edge25" class="edge">
<title>j4284239505&#45;&gt;j3530938653</title>
<path fill="none" stroke="black" d="M2014.61,-1109.57C1990.35,-1081.44 1942.41,-1025.86 1914.09,-993.02"/>
<polygon fill="black" stroke="black" points="1916.82,-990.84 1907.64,-985.55 1911.52,-995.41 1916.82,-990.84"/>
</g>
<!-- j275787530&#45;&gt;j2241386917 -->
<g id="edge26" class="edge">
<title>j275787530&#45;&gt;j2241386917</title>
<path fill="none" stroke="black" d="M827.89,-1109.97C821.38,-1093.53 811.4,-1068.35 803.72,-1048.97"/>
<polygon fill="black" stroke="black" points="807.01,-1047.76 800.07,-1039.75 800.5,-1050.33 807.01,-1047.76"/>
</g>
<!-- j3008015532 -->
<g id="node26" class="node">
<title>j3008015532</title>
<polygon fill="none" stroke="blue" points="979.14,-749 790.14,-749 790.14,-713 979.14,-713 979.14,-749"/>
<text text-anchor="middle" x="884.64" y="-727.3" font-family="Times New Roman,serif" font-size="14.00">&lt;RETRO_EMOJI_AOICAT&gt;</text>
</g>
<!-- j3628137180&#45;&gt;j3008015532 -->
<g id="edge27" class="edge">
<title>j3628137180&#45;&gt;j3008015532</title>
<path fill="none" stroke="black" d="M833.52,-786.17C841.52,-777.7 851.39,-767.23 860.32,-757.77"/>
<polygon fill="black" stroke="black" points="862.82,-760.22 867.14,-750.55 857.73,-755.42 862.82,-760.22"/>
</g>
<!-- j2733582503 -->
<g id="node27" class="node">
<title>j2733582503</title>
<ellipse fill="none" stroke="orange" cx="1143.64" cy="-512" rx="137.58" ry="18"/>
<text text-anchor="middle" x="1143.64" y="-508.3" font-family="Times New Roman,serif" font-size="14.00">Boolean AmirRPGAoi is now true.</text>
</g>
<!-- j2489927680&#45;&gt;j2733582503 -->
<g id="edge28" class="edge">
<title>j2489927680&#45;&gt;j2733582503</title>
<path fill="none" stroke="black" d="M1043.93,-566.63C1061.45,-557.21 1083.3,-545.46 1102.07,-535.36"/>
<polygon fill="black" stroke="black" points="1103.66,-538.48 1110.81,-530.66 1100.34,-532.32 1103.66,-538.48"/>
</g>
<!-- j3530938653&#45;&gt;Chat ends. -->
<g id="edge29" class="edge">
<title>j3530938653&#45;&gt;Chat ends.</title>
<path fill="none" stroke="black" d="M1821,-947.51C1778.13,-932.19 1731.64,-904.98 1731.64,-859 1731.64,-859 1731.64,-859 1731.64,-90 1731.64,-27.82 1528.05,-18.8 1422.5,-18.3"/>
<polygon fill="black" stroke="black" points="1422.58,-14.8 1412.58,-18.28 1422.57,-21.8 1422.58,-14.8"/>
</g>
<!-- j300195750 -->
<g id="node28" class="node">
<title>j300195750</title>
<ellipse fill="none" stroke="orange" cx="945.64" cy="-658" rx="64.19" ry="18"/>
<text text-anchor="middle" x="945.64" y="-654.3" font-family="Times New Roman,serif" font-size="14.00">+10 Chemistry</text>
</g>
<!-- j3008015532&#45;&gt;j300195750 -->
<g id="edge30" class="edge">
<title>j3008015532&#45;&gt;j300195750</title>
<path fill="none" stroke="black" d="M899.41,-712.81C906.78,-704.23 915.85,-693.68 923.99,-684.2"/>
<polygon fill="black" stroke="black" points="926.58,-686.55 930.44,-676.69 921.27,-681.99 926.58,-686.55"/>
</g>
<!-- j235759563 -->
<g id="node29" class="node">
<title>j235759563</title>
<ellipse fill="none" stroke="orange" cx="1209.64" cy="-439" rx="130.78" ry="18"/>
<text text-anchor="middle" x="1209.64" y="-435.3" font-family="Times New Roman,serif" font-size="14.00">Check boolean AmirRPGQuincy</text>
</g>
<!-- j2733582503&#45;&gt;j235759563 -->
<g id="edge31" class="edge">
<title>j2733582503&#45;&gt;j235759563</title>
<path fill="none" stroke="black" d="M1159.62,-493.81C1167.56,-485.27 1177.32,-474.77 1186.1,-465.32"/>
<polygon fill="black" stroke="black" points="1188.54,-467.84 1192.78,-458.14 1183.41,-463.08 1188.54,-467.84"/>
</g>
<!-- j300195750&#45;&gt;j2489927680 -->
<g id="edge32" class="edge">
<title>j300195750&#45;&gt;j2489927680</title>
<path fill="none" stroke="black" d="M961.28,-640.17C969.16,-631.7 978.89,-621.23 987.68,-611.77"/>
<polygon fill="black" stroke="black" points="990.15,-614.26 994.39,-604.56 985.02,-609.5 990.15,-614.26"/>
</g>
<!-- j4092888925 -->
<g id="node30" class="node">
<title>j4092888925</title>
<ellipse fill="none" stroke="orange" cx="1209.64" cy="-352" rx="128.08" ry="18"/>
<text text-anchor="middle" x="1209.64" y="-348.3" font-family="Times New Roman,serif" font-size="14.00">Check boolean AmirRPGArthur</text>
</g>
<!-- j235759563&#45;&gt;j4092888925 -->
<g id="edge33" class="edge">
<title>j235759563&#45;&gt;j4092888925</title>
<path fill="none" stroke="green" d="M1209.64,-420.8C1209.64,-409.58 1209.64,-394.67 1209.64,-381.69"/>
<polygon fill="green" stroke="green" points="1213.14,-381.98 1209.64,-371.98 1206.14,-381.98 1213.14,-381.98"/>
<text text-anchor="middle" x="1220.64" y="-391.8" font-family="Times New Roman,serif" font-size="14.00">true</text>
</g>
<!-- j1992773596 -->
<g id="node31" class="node">
<title>j1992773596</title>
<ellipse fill="none" stroke="orange" cx="1360.64" cy="-91" rx="139.98" ry="18"/>
<text text-anchor="middle" x="1360.64" y="-87.3" font-family="Times New Roman,serif" font-size="14.00">Boolean AmirRPGAny is now true.</text>
</g>
<!-- j235759563&#45;&gt;j1992773596 -->
<g id="edge34" class="edge">
<title>j235759563&#45;&gt;j1992773596</title>
<path fill="none" stroke="brown" d="M1308.35,-426.86C1350.7,-416.03 1390.64,-394.75 1390.64,-353 1390.64,-353 1390.64,-353 1390.64,-177 1390.64,-156.85 1383.05,-135.46 1375.5,-119.18"/>
<polygon fill="brown" stroke="brown" points="1378.86,-118.06 1371.3,-110.64 1372.58,-121.16 1378.86,-118.06"/>
<text text-anchor="middle" x="1403.64" y="-261.3" font-family="Times New Roman,serif" font-size="14.00">false</text>
</g>
<!-- j4092888925&#45;&gt;j1992773596 -->
<g id="edge36" class="edge">
<title>j4092888925&#45;&gt;j1992773596</title>
<path fill="none" stroke="brown" d="M1255.95,-334.84C1280.4,-323.94 1308.77,-307.09 1325.64,-283 1343.7,-257.21 1354.04,-167.35 1358.31,-120.66"/>
<polygon fill="brown" stroke="brown" points="1361.79,-121.03 1359.18,-110.77 1354.82,-120.42 1361.79,-121.03"/>
<text text-anchor="middle" x="1358.64" y="-217.8" font-family="Times New Roman,serif" font-size="14.00">false</text>
</g>
<!-- j3988635441 -->
<g id="node32" class="node">
<title>j3988635441</title>
<ellipse fill="none" stroke="orange" cx="1184.64" cy="-265" rx="131.88" ry="18"/>
<text text-anchor="middle" x="1184.64" y="-261.3" font-family="Times New Roman,serif" font-size="14.00">Check boolean AmirRPGEleanor</text>
</g>
<!-- j4092888925&#45;&gt;j3988635441 -->
<g id="edge35" class="edge">
<title>j4092888925&#45;&gt;j3988635441</title>
<path fill="none" stroke="green" d="M1204.58,-333.8C1201.25,-322.47 1196.81,-307.36 1192.96,-294.29"/>
<polygon fill="green" stroke="green" points="1196.38,-293.53 1190.21,-284.92 1189.67,-295.5 1196.38,-293.53"/>
<text text-anchor="middle" x="1208.64" y="-304.8" font-family="Times New Roman,serif" font-size="14.00">true</text>
</g>
<!-- j1992773596&#45;&gt;Chat ends. -->
<g id="edge37" class="edge">
<title>j1992773596&#45;&gt;Chat ends.</title>
<path fill="none" stroke="black" d="M1360.64,-72.81C1360.64,-65.23 1360.64,-56.1 1360.64,-47.54"/>
<polygon fill="black" stroke="black" points="1364.14,-47.54 1360.64,-37.54 1357.14,-47.54 1364.14,-47.54"/>
</g>
<!-- j3988635441&#45;&gt;j1992773596 -->
<g id="edge39" class="edge">
<title>j3988635441&#45;&gt;j1992773596</title>
<path fill="none" stroke="brown" d="M1205.65,-246.99C1221.89,-233.58 1244.72,-214.18 1263.64,-196 1290.28,-170.4 1318.91,-139.2 1338.11,-117.69"/>
<polygon fill="brown" stroke="brown" points="1340.7,-120.04 1344.72,-110.24 1335.47,-115.4 1340.7,-120.04"/>
<text text-anchor="middle" x="1311.64" y="-174.3" font-family="Times New Roman,serif" font-size="14.00">false</text>
</g>
<!-- j1570524431 -->
<g id="node33" class="node">
<title>j1570524431</title>
<ellipse fill="none" stroke="orange" cx="1130.64" cy="-178" rx="124.28" ry="18"/>
<text text-anchor="middle" x="1130.64" y="-174.3" font-family="Times New Roman,serif" font-size="14.00">Check boolean AmirRPGLettie</text>
</g>
<!-- j3988635441&#45;&gt;j1570524431 -->
<g id="edge38" class="edge">
<title>j3988635441&#45;&gt;j1570524431</title>
<path fill="none" stroke="green" d="M1173.71,-246.8C1166.25,-235.05 1156.2,-219.24 1147.69,-205.84"/>
<polygon fill="green" stroke="green" points="1150.68,-204.02 1142.36,-197.45 1144.77,-207.77 1150.68,-204.02"/>
<text text-anchor="middle" x="1171.64" y="-217.8" font-family="Times New Roman,serif" font-size="14.00">true</text>
</g>
<!-- j1570524431&#45;&gt;j1992773596 -->
<g id="edge41" class="edge">
<title>j1570524431&#45;&gt;j1992773596</title>
<path fill="none" stroke="brown" d="M1168.14,-160.39C1191.64,-150.23 1222.67,-137.26 1250.64,-127 1265.25,-121.64 1281.12,-116.32 1296.14,-111.49"/>
<polygon fill="brown" stroke="brown" points="1296.98,-114.9 1305.45,-108.53 1294.86,-108.23 1296.98,-114.9"/>
<text text-anchor="middle" x="1263.64" y="-130.8" font-family="Times New Roman,serif" font-size="14.00">false</text>
</g>
<!-- j2677000302 -->
<g id="node34" class="node">
<title>j2677000302</title>
<ellipse fill="none" stroke="orange" cx="1068.64" cy="-91" rx="134.58" ry="18"/>
<text text-anchor="middle" x="1068.64" y="-87.3" font-family="Times New Roman,serif" font-size="14.00">Boolean AmirRPGAll is now true.</text>
</g>
<!-- j1570524431&#45;&gt;j2677000302 -->
<g id="edge40" class="edge">
<title>j1570524431&#45;&gt;j2677000302</title>
<path fill="none" stroke="green" d="M1118.09,-159.8C1109.44,-147.93 1097.76,-131.93 1087.93,-118.45"/>
<polygon fill="green" stroke="green" points="1090.78,-116.41 1082.06,-110.4 1085.13,-120.54 1090.78,-116.41"/>
<text text-anchor="middle" x="1113.64" y="-130.8" font-family="Times New Roman,serif" font-size="14.00">true</text>
</g>
<!-- j2677000302&#45;&gt;Chat ends. -->
<g id="edge42" class="edge">
<title>j2677000302&#45;&gt;Chat ends.</title>
<path fill="none" stroke="black" d="M1131.64,-74.68C1184.68,-61.78 1259.6,-43.57 1309.12,-31.53"/>
<polygon fill="black" stroke="black" points="1309.84,-34.95 1318.73,-29.19 1308.19,-28.15 1309.84,-34.95"/>
</g>
</g>
</svg>
