<?xml version="1.0" encoding="UTF-8" standalone="no"?>
<!DOCTYPE svg PUBLIC "-//W3C//DTD SVG 1.1//EN"
 "http://www.w3.org/Graphics/SVG/1.1/DTD/svg11.dtd">
<!-- Generated by graphviz version 7.1.0 (20230121.1956)
 -->
<!-- Pages: 1 -->
<svg width="1505pt" height="332pt"
 viewBox="0.00 0.00 1504.50 332.00" xmlns="http://www.w3.org/2000/svg" xmlns:xlink="http://www.w3.org/1999/xlink">
<g id="graph0" class="graph" transform="scale(1 1) rotate(0) translate(4 328)">
<polygon fill="white" stroke="none" points="-4,4 -4,-328 1500.5,-328 1500.5,4 -4,4"/>
<!-- QuincyBirthdayConvo2 begins. -->
<g id="node1" class="node">
<title>QuincyBirthdayConvo2 begins.</title>
<ellipse fill="none" stroke="orange" cx="747.5" cy="-306" rx="125.38" ry="18"/>
<text text-anchor="middle" x="747.5" y="-302.3" font-family="Times New Roman,serif" font-size="14.00">QuincyBirthdayConvo2 begins.</text>
</g>
<!-- j3835695543 -->
<g id="node2" class="node">
<title>j3835695543</title>
<polygon fill="none" stroke="red" points="817,-252 0,-252 0,-216 817,-216 817,-252"/>
<text text-anchor="middle" x="408.5" y="-230.3" font-family="Times New Roman,serif" font-size="14.00">เฮ้ Quincy ข้าขอ Arthur ให้เอ็งหยุดงานในวันเกิดหนึ่งคืนแล้วนะ</text>
</g>
<!-- QuincyBirthdayConvo2 begins.&#45;&gt;j3835695543 -->
<g id="edge1" class="edge">
<title>QuincyBirthdayConvo2 begins.&#45;&gt;j3835695543</title>
<path fill="none" stroke="black" d="M678.08,-290.67C627.97,-280.32 559.68,-266.22 504.38,-254.8"/>
<polygon fill="black" stroke="black" points="505.12,-251.38 494.62,-252.78 503.71,-258.23 505.12,-251.38"/>
</g>
<!-- j24244604 -->
<g id="node3" class="node">
<title>j24244604</title>
<polygon fill="none" stroke="red" points="1339.5,-252 837.5,-252 837.5,-216 1339.5,-216 1339.5,-252"/>
<text text-anchor="middle" x="1088.5" y="-230.3" font-family="Times New Roman,serif" font-size="14.00">ขอให้เป็นคืนที่ดีในวันเกิดนะ Quincy</text>
</g>
<!-- QuincyBirthdayConvo2 begins.&#45;&gt;j24244604 -->
<g id="edge2" class="edge">
<title>QuincyBirthdayConvo2 begins.&#45;&gt;j24244604</title>
<path fill="none" stroke="black" d="M817.33,-290.67C867.84,-280.3 936.71,-266.16 992.41,-254.73"/>
<polygon fill="black" stroke="black" points="992.79,-258.22 1001.88,-252.78 991.38,-251.36 992.79,-258.22"/>
</g>
<!-- j1635112427 -->
<g id="node4" class="node">
<title>j1635112427</title>
<ellipse fill="none" stroke="orange" cx="404.5" cy="-162" rx="64.19" ry="18"/>
<text text-anchor="middle" x="404.5" y="-158.3" font-family="Times New Roman,serif" font-size="14.00">+20 Chemistry</text>
</g>
<!-- j3835695543&#45;&gt;j1635112427 -->
<g id="edge3" class="edge">
<title>j3835695543&#45;&gt;j1635112427</title>
<path fill="none" stroke="black" d="M407.51,-215.7C407.09,-208.41 406.6,-199.73 406.13,-191.54"/>
<polygon fill="black" stroke="black" points="409.63,-191.4 405.56,-181.62 402.64,-191.8 409.63,-191.4"/>
</g>
<!-- j1737249568 -->
<g id="node5" class="node">
<title>j1737249568</title>
<polygon fill="none" stroke="blue" points="1496.5,-108 684.5,-108 684.5,-72 1496.5,-72 1496.5,-108"/>
<text text-anchor="middle" x="1090.5" y="-86.3" font-family="Times New Roman,serif" font-size="14.00">อือ ข้าชอบแช่แข็งลูกพลัมไว้บนหลังคาในวันเกิด ขอบใจนะ</text>
</g>
<!-- j24244604&#45;&gt;j1737249568 -->
<g id="edge4" class="edge">
<title>j24244604&#45;&gt;j1737249568</title>
<path fill="none" stroke="black" d="M1088.75,-215.59C1089.08,-191.61 1089.7,-148.14 1090.1,-119.42"/>
<polygon fill="black" stroke="black" points="1093.6,-119.67 1090.24,-109.62 1086.6,-119.57 1093.6,-119.67"/>
</g>
<!-- j175126307 -->
<g id="node6" class="node">
<title>j175126307</title>
<polygon fill="none" stroke="blue" points="666.5,-108 126.5,-108 126.5,-72 666.5,-72 666.5,-108"/>
<text text-anchor="middle" x="396.5" y="-86.3" font-family="Times New Roman,serif" font-size="14.00">น่ารักกกกกกก เอ็งดีที่สุดเลยเพื่อน</text>
</g>
<!-- j1635112427&#45;&gt;j175126307 -->
<g id="edge5" class="edge">
<title>j1635112427&#45;&gt;j175126307</title>
<path fill="none" stroke="black" d="M402.52,-143.7C401.69,-136.41 400.7,-127.73 399.76,-119.54"/>
<polygon fill="black" stroke="black" points="403.24,-119.15 398.63,-109.61 396.28,-119.94 403.24,-119.15"/>
</g>
<!-- Chat ends. -->
<g id="node7" class="node">
<title>Chat ends.</title>
<ellipse fill="none" stroke="orange" cx="743.5" cy="-18" rx="50.09" ry="18"/>
<text text-anchor="middle" x="743.5" y="-14.3" font-family="Times New Roman,serif" font-size="14.00">Chat ends.</text>
</g>
<!-- j1737249568&#45;&gt;Chat ends. -->
<g id="edge6" class="edge">
<title>j1737249568&#45;&gt;Chat ends.</title>
<path fill="none" stroke="black" d="M1003.83,-71.52C939.18,-58.47 852.84,-41.06 797.69,-29.93"/>
<polygon fill="black" stroke="black" points="798.4,-26.5 787.9,-27.96 797.01,-33.37 798.4,-26.5"/>
</g>
<!-- j175126307&#45;&gt;Chat ends. -->
<g id="edge7" class="edge">
<title>j175126307&#45;&gt;Chat ends.</title>
<path fill="none" stroke="black" d="M483.17,-71.52C547.82,-58.47 634.16,-41.06 689.31,-29.93"/>
<polygon fill="black" stroke="black" points="689.99,-33.37 699.1,-27.96 688.6,-26.5 689.99,-33.37"/>
</g>
</g>
</svg>
