<?xml version="1.0" encoding="UTF-8" standalone="no"?>
<!DOCTYPE svg PUBLIC "-//W3C//DTD SVG 1.1//EN"
 "http://www.w3.org/Graphics/SVG/1.1/DTD/svg11.dtd">
<!-- Generated by graphviz version 7.1.0 (20230121.1956)
 -->
<!-- Pages: 1 -->
<svg width="1006pt" height="332pt"
 viewBox="0.00 0.00 1006.00 332.00" xmlns="http://www.w3.org/2000/svg" xmlns:xlink="http://www.w3.org/1999/xlink">
<g id="graph0" class="graph" transform="scale(1 1) rotate(0) translate(4 328)">
<polygon fill="white" stroke="none" points="-4,4 -4,-328 1002,-328 1002,4 -4,4"/>
<!-- ArthurBirthdayConvo2 begins. -->
<g id="node1" class="node">
<title>ArthurBirthdayConvo2 begins.</title>
<ellipse fill="none" stroke="orange" cx="407.5" cy="-306" rx="122.38" ry="18"/>
<text text-anchor="middle" x="407.5" y="-302.3" font-family="Times New Roman,serif" font-size="14.00">ArthurBirthdayConvo2 begins.</text>
</g>
<!-- j372439316 -->
<g id="node2" class="node">
<title>j372439316</title>
<polygon fill="none" stroke="red" points="398,-252 93,-252 93,-216 398,-216 398,-252"/>
<text text-anchor="middle" x="245.5" y="-230.3" font-family="Times New Roman,serif" font-size="14.00">З днем народження менший братику Елеонори!</text>
</g>
<!-- ArthurBirthdayConvo2 begins.&#45;&gt;j372439316 -->
<g id="edge1" class="edge">
<title>ArthurBirthdayConvo2 begins.&#45;&gt;j372439316</title>
<path fill="none" stroke="black" d="M369.52,-288.59C347.7,-279.16 320.02,-267.2 296.35,-256.97"/>
<polygon fill="black" stroke="black" points="297.75,-253.76 287.18,-253.01 294.97,-260.19 297.75,-253.76"/>
</g>
<!-- j1764270893 -->
<g id="node3" class="node">
<title>j1764270893</title>
<polygon fill="none" stroke="red" points="746,-252 439,-252 439,-216 746,-216 746,-252"/>
<text text-anchor="middle" x="592.5" y="-230.3" font-family="Times New Roman,serif" font-size="14.00">З днем народження, Артуре. Маєш якісь плани?</text>
</g>
<!-- ArthurBirthdayConvo2 begins.&#45;&gt;j1764270893 -->
<g id="edge2" class="edge">
<title>ArthurBirthdayConvo2 begins.&#45;&gt;j1764270893</title>
<path fill="none" stroke="black" d="M450.41,-288.76C475.76,-279.17 508.16,-266.91 535.62,-256.52"/>
<polygon fill="black" stroke="black" points="536.73,-259.84 544.85,-253.03 534.26,-253.3 536.73,-259.84"/>
</g>
<!-- j238149210 -->
<g id="node4" class="node">
<title>j238149210</title>
<polygon fill="none" stroke="blue" points="377,-108 0,-108 0,-72 377,-72 377,-108"/>
<text text-anchor="middle" x="188.5" y="-86.3" font-family="Times New Roman,serif" font-size="14.00">Прекрасно. Тепер вас таких двоє, що не забудуть нагадати.</text>
</g>
<!-- j372439316&#45;&gt;j238149210 -->
<g id="edge3" class="edge">
<title>j372439316&#45;&gt;j238149210</title>
<path fill="none" stroke="black" d="M238.51,-215.59C228.8,-191.4 211.13,-147.36 199.6,-118.65"/>
<polygon fill="black" stroke="black" points="202.91,-117.49 195.93,-109.52 196.41,-120.1 202.91,-117.49"/>
</g>
<!-- j1996390759 -->
<g id="node5" class="node">
<title>j1996390759</title>
<ellipse fill="none" stroke="orange" cx="684.5" cy="-162" rx="64.19" ry="18"/>
<text text-anchor="middle" x="684.5" y="-158.3" font-family="Times New Roman,serif" font-size="14.00">+20 Chemistry</text>
</g>
<!-- j1764270893&#45;&gt;j1996390759 -->
<g id="edge4" class="edge">
<title>j1764270893&#45;&gt;j1996390759</title>
<path fill="none" stroke="black" d="M615.24,-215.7C626.97,-206.77 641.44,-195.76 654.12,-186.11"/>
<polygon fill="black" stroke="black" points="655.92,-189.14 661.76,-180.3 651.69,-183.57 655.92,-189.14"/>
</g>
<!-- Chat ends. -->
<g id="node6" class="node">
<title>Chat ends.</title>
<ellipse fill="none" stroke="orange" cx="442.5" cy="-18" rx="50.09" ry="18"/>
<text text-anchor="middle" x="442.5" y="-14.3" font-family="Times New Roman,serif" font-size="14.00">Chat ends.</text>
</g>
<!-- j238149210&#45;&gt;Chat ends. -->
<g id="edge5" class="edge">
<title>j238149210&#45;&gt;Chat ends.</title>
<path fill="none" stroke="black" d="M251.94,-71.52C295.46,-59.52 352.39,-43.83 392.66,-32.74"/>
<polygon fill="black" stroke="black" points="393.38,-36.17 402.09,-30.14 391.52,-29.42 393.38,-36.17"/>
</g>
<!-- j3436996720 -->
<g id="node7" class="node">
<title>j3436996720</title>
<polygon fill="none" stroke="blue" points="998,-108 395,-108 395,-72 998,-72 998,-108"/>
<text text-anchor="middle" x="696.5" y="-86.3" font-family="Times New Roman,serif" font-size="14.00">Дякую! Приємно, що ти пам’ятаєш. Може завершу роботу на пів години раніше. Ще не вирішив.</text>
</g>
<!-- j1996390759&#45;&gt;j3436996720 -->
<g id="edge6" class="edge">
<title>j1996390759&#45;&gt;j3436996720</title>
<path fill="none" stroke="black" d="M687.47,-143.7C688.73,-136.32 690.24,-127.52 691.66,-119.25"/>
<polygon fill="black" stroke="black" points="695.07,-120.04 693.31,-109.6 688.17,-118.86 695.07,-120.04"/>
</g>
<!-- j3436996720&#45;&gt;Chat ends. -->
<g id="edge7" class="edge">
<title>j3436996720&#45;&gt;Chat ends.</title>
<path fill="none" stroke="black" d="M633.06,-71.52C589.54,-59.52 532.61,-43.83 492.34,-32.74"/>
<polygon fill="black" stroke="black" points="493.48,-29.42 482.91,-30.14 491.62,-36.17 493.48,-29.42"/>
</g>
</g>
</svg>
