<?xml version="1.0" encoding="UTF-8" standalone="no"?>
<!DOCTYPE svg PUBLIC "-//W3C//DTD SVG 1.1//EN"
 "http://www.w3.org/Graphics/SVG/1.1/DTD/svg11.dtd">
<!-- Generated by graphviz version 7.1.0 (20230121.1956)
 -->
<!-- Pages: 1 -->
<svg width="1507pt" height="2828pt"
 viewBox="0.00 0.00 1506.74 2828.00" xmlns="http://www.w3.org/2000/svg" xmlns:xlink="http://www.w3.org/1999/xlink">
<g id="graph0" class="graph" transform="scale(1 1) rotate(0) translate(4 2824)">
<polygon fill="white" stroke="none" points="-4,4 -4,-2824 1502.74,-2824 1502.74,4 -4,4"/>
<!-- LettieConfession begins. -->
<g id="node1" class="node">
<title>LettieConfession begins.</title>
<ellipse fill="none" stroke="orange" cx="100.74" cy="-2802" rx="100.98" ry="18"/>
<text text-anchor="middle" x="100.74" y="-2798.3" font-family="Times New Roman,serif" font-size="14.00">LettieConfession begins.</text>
</g>
<!-- j3507132931 -->
<g id="node2" class="node">
<title>j3507132931</title>
<ellipse fill="none" stroke="orange" cx="100.74" cy="-2729" rx="98.28" ry="18"/>
<text text-anchor="middle" x="100.74" y="-2725.3" font-family="Times New Roman,serif" font-size="14.00">Check boolean IsDating</text>
</g>
<!-- LettieConfession begins.&#45;&gt;j3507132931 -->
<g id="edge1" class="edge">
<title>LettieConfession begins.&#45;&gt;j3507132931</title>
<path fill="none" stroke="black" d="M100.74,-2783.81C100.74,-2776.23 100.74,-2767.1 100.74,-2758.54"/>
<polygon fill="black" stroke="black" points="104.24,-2758.54 100.74,-2748.54 97.24,-2758.54 104.24,-2758.54"/>
</g>
<!-- Chat ends. -->
<g id="node3" class="node">
<title>Chat ends.</title>
<ellipse fill="none" stroke="orange" cx="1201.74" cy="-18" rx="50.09" ry="18"/>
<text text-anchor="middle" x="1201.74" y="-14.3" font-family="Times New Roman,serif" font-size="14.00">Chat ends.</text>
</g>
<!-- j3507132931&#45;&gt;Chat ends. -->
<g id="edge2" class="edge">
<title>j3507132931&#45;&gt;Chat ends.</title>
<path fill="none" stroke="green" d="M95.59,-2710.72C90.91,-2693.47 84.74,-2666.15 84.74,-2642 84.74,-2642 84.74,-2642 84.74,-90 84.74,-36.67 906.26,-22.59 1140.24,-19.67"/>
<polygon fill="green" stroke="green" points="1140.11,-23.17 1150.06,-19.54 1140.02,-16.17 1140.11,-23.17"/>
<text text-anchor="middle" x="95.74" y="-1320.8" font-family="Times New Roman,serif" font-size="14.00">true</text>
</g>
<!-- j4235669445 -->
<g id="node4" class="node">
<title>j4235669445</title>
<polygon fill="none" stroke="blue" points="1240.74,-2660 1174.74,-2660 1174.74,-2622 1240.74,-2622 1240.74,-2660"/>
<text text-anchor="middle" x="1207.74" y="-2644.8" font-family="Times New Roman,serif" font-size="14.00">Solecito &#13;</text>
<text text-anchor="middle" x="1207.74" y="-2629.8" font-family="Times New Roman,serif" font-size="14.00">Tu es là</text>
</g>
<!-- j3507132931&#45;&gt;j4235669445 -->
<g id="edge3" class="edge">
<title>j3507132931&#45;&gt;j4235669445</title>
<path fill="none" stroke="brown" d="M189.93,-2721.07C414.39,-2703.63 996.63,-2658.4 1162.84,-2645.49"/>
<polygon fill="brown" stroke="brown" points="1163.09,-2648.98 1172.79,-2644.72 1162.55,-2642 1163.09,-2648.98"/>
<text text-anchor="middle" x="732.74" y="-2681.8" font-family="Times New Roman,serif" font-size="14.00">false</text>
</g>
<!-- j492213516 -->
<g id="node5" class="node">
<title>j492213516</title>
<polygon fill="none" stroke="red" points="1238.74,-2585 1176.74,-2585 1176.74,-2549 1238.74,-2549 1238.74,-2585"/>
<text text-anchor="middle" x="1207.74" y="-2563.3" font-family="Times New Roman,serif" font-size="14.00">Ouais..?</text>
</g>
<!-- j4235669445&#45;&gt;j492213516 -->
<g id="edge4" class="edge">
<title>j4235669445&#45;&gt;j492213516</title>
<path fill="none" stroke="black" d="M1207.74,-2621.83C1207.74,-2614.24 1207.74,-2605.24 1207.74,-2596.79"/>
<polygon fill="black" stroke="black" points="1211.24,-2596.93 1207.74,-2586.93 1204.24,-2596.93 1211.24,-2596.93"/>
</g>
<!-- j4177999804 -->
<g id="node6" class="node">
<title>j4177999804</title>
<polygon fill="none" stroke="red" points="1498.74,-2531 1428.74,-2531 1428.74,-2495 1498.74,-2495 1498.74,-2531"/>
<text text-anchor="middle" x="1463.74" y="-2509.3" font-family="Times New Roman,serif" font-size="14.00">[Ignorer.]</text>
</g>
<!-- j4235669445&#45;&gt;j4177999804 -->
<g id="edge5" class="edge">
<title>j4235669445&#45;&gt;j4177999804</title>
<path fill="none" stroke="black" d="M1241.21,-2623.53C1286.6,-2601.19 1367.83,-2561.21 1418.59,-2536.22"/>
<polygon fill="black" stroke="black" points="1419.84,-2539.51 1427.27,-2531.95 1416.75,-2533.23 1419.84,-2539.51"/>
</g>
<!-- j3735235222 -->
<g id="node7" class="node">
<title>j3735235222</title>
<polygon fill="none" stroke="blue" points="1333.24,-2477 1082.24,-2477 1082.24,-2394 1333.24,-2394 1333.24,-2477"/>
<text text-anchor="middle" x="1207.74" y="-2461.8" font-family="Times New Roman,serif" font-size="14.00">Je... &#13;</text>
<text text-anchor="middle" x="1207.74" y="-2446.8" font-family="Times New Roman,serif" font-size="14.00">Je voulais dire &#13;</text>
<text text-anchor="middle" x="1207.74" y="-2431.8" font-family="Times New Roman,serif" font-size="14.00">Primero, lo siento&#13;</text>
<text text-anchor="middle" x="1207.74" y="-2416.8" font-family="Times New Roman,serif" font-size="14.00">Je n&#39;aurais pas dû réagir comme je l&#39;ai fait &#13;</text>
<text text-anchor="middle" x="1207.74" y="-2401.8" font-family="Times New Roman,serif" font-size="14.00">Segundo, tu penses ce que tu as dit?</text>
</g>
<!-- j492213516&#45;&gt;j3735235222 -->
<g id="edge6" class="edge">
<title>j492213516&#45;&gt;j3735235222</title>
<path fill="none" stroke="black" d="M1207.74,-2548.54C1207.74,-2533.14 1207.74,-2509.92 1207.74,-2488.59"/>
<polygon fill="black" stroke="black" points="1211.24,-2488.85 1207.74,-2478.85 1204.24,-2488.85 1211.24,-2488.85"/>
</g>
<!-- j4177999804&#45;&gt;Chat ends. -->
<g id="edge7" class="edge">
<title>j4177999804&#45;&gt;Chat ends.</title>
<path fill="none" stroke="black" d="M1466.43,-2494.88C1470.24,-2469.14 1476.74,-2418.93 1476.74,-2376 1476.74,-2376 1476.74,-2376 1476.74,-90 1476.74,-46.03 1343.25,-28.86 1262.28,-22.5"/>
<polygon fill="black" stroke="black" points="1262.97,-19.04 1252.73,-21.78 1262.44,-26.02 1262.97,-19.04"/>
</g>
<!-- j3244850376 -->
<g id="node8" class="node">
<title>j3244850376</title>
<polygon fill="none" stroke="red" points="1202.74,-2357 1056.74,-2357 1056.74,-2321 1202.74,-2321 1202.74,-2357"/>
<text text-anchor="middle" x="1129.74" y="-2335.3" font-family="Times New Roman,serif" font-size="14.00">Je pensais chaque mot.</text>
</g>
<!-- j3735235222&#45;&gt;j3244850376 -->
<g id="edge8" class="edge">
<title>j3735235222&#45;&gt;j3244850376</title>
<path fill="none" stroke="black" d="M1173.98,-2393.6C1166.24,-2384.22 1158.22,-2374.5 1151.17,-2365.96"/>
<polygon fill="black" stroke="black" points="1153.99,-2363.87 1144.92,-2358.39 1148.59,-2368.33 1153.99,-2363.87"/>
</g>
<!-- j3987278909 -->
<g id="node9" class="node">
<title>j3987278909</title>
<polygon fill="none" stroke="red" points="1330.74,-2357 1224.74,-2357 1224.74,-2321 1330.74,-2321 1330.74,-2357"/>
<text text-anchor="middle" x="1277.74" y="-2335.3" font-family="Times New Roman,serif" font-size="14.00">J&#39;ai tout inventé.</text>
</g>
<!-- j3735235222&#45;&gt;j3987278909 -->
<g id="edge9" class="edge">
<title>j3735235222&#45;&gt;j3987278909</title>
<path fill="none" stroke="black" d="M1238.04,-2393.6C1244.91,-2384.32 1252.03,-2374.71 1258.31,-2366.23"/>
<polygon fill="black" stroke="black" points="1260.94,-2368.56 1264.08,-2358.44 1255.32,-2364.39 1260.94,-2368.56"/>
</g>
<!-- j3748077816 -->
<g id="node10" class="node">
<title>j3748077816</title>
<polygon fill="none" stroke="blue" points="1158.74,-2284 1054.74,-2284 1054.74,-2246 1158.74,-2246 1158.74,-2284"/>
<text text-anchor="middle" x="1106.74" y="-2268.8" font-family="Times New Roman,serif" font-size="14.00">Aayyyy... ok... &#13;</text>
<text text-anchor="middle" x="1106.74" y="-2253.8" font-family="Times New Roman,serif" font-size="14.00">Mierda</text>
</g>
<!-- j3244850376&#45;&gt;j3748077816 -->
<g id="edge10" class="edge">
<title>j3244850376&#45;&gt;j3748077816</title>
<path fill="none" stroke="black" d="M1124.17,-2320.57C1121.73,-2312.93 1118.8,-2303.76 1116.05,-2295.13"/>
<polygon fill="black" stroke="black" points="1119.42,-2294.18 1113.04,-2285.72 1112.75,-2296.31 1119.42,-2294.18"/>
</g>
<!-- j4289954250 -->
<g id="node11" class="node">
<title>j4289954250</title>
<ellipse fill="none" stroke="orange" cx="1312.74" cy="-2265" rx="135.68" ry="18"/>
<text text-anchor="middle" x="1312.74" y="-2261.3" font-family="Times New Roman,serif" font-size="14.00">Boolean LettieNoDate is now true.</text>
</g>
<!-- j3987278909&#45;&gt;j4289954250 -->
<g id="edge11" class="edge">
<title>j3987278909&#45;&gt;j4289954250</title>
<path fill="none" stroke="black" d="M1286.21,-2320.57C1290.17,-2312.43 1294.97,-2302.56 1299.4,-2293.45"/>
<polygon fill="black" stroke="black" points="1302.46,-2295.15 1303.68,-2284.63 1296.17,-2292.09 1302.46,-2295.15"/>
</g>
<!-- j638669898 -->
<g id="node12" class="node">
<title>j638669898</title>
<polygon fill="none" stroke="red" points="1110.74,-2155 670.74,-2155 670.74,-2119 1110.74,-2119 1110.74,-2155"/>
<text text-anchor="middle" x="890.74" y="-2133.3" font-family="Times New Roman,serif" font-size="14.00">Si ce n&#39;est pas réciproque, tu peux simplement me le dire, je peux encaisser.</text>
</g>
<!-- j3748077816&#45;&gt;j638669898 -->
<g id="edge12" class="edge">
<title>j3748077816&#45;&gt;j638669898</title>
<path fill="none" stroke="black" d="M1054.53,-2255.05C1020.26,-2247.22 975.84,-2233.19 942.74,-2209 927.01,-2197.5 914.04,-2179.83 904.99,-2165"/>
<polygon fill="black" stroke="black" points="908.17,-2163.5 900.13,-2156.6 902.11,-2167.01 908.17,-2163.5"/>
</g>
<!-- j241855420 -->
<g id="node13" class="node">
<title>j241855420</title>
<polygon fill="none" stroke="red" points="1280.24,-2209 951.24,-2209 951.24,-2173 1280.24,-2173 1280.24,-2209"/>
<text text-anchor="middle" x="1115.74" y="-2187.3" font-family="Times New Roman,serif" font-size="14.00">Je ne sais toujours pas si &quot;mierda&quot; c&#39;est positif ou pas...</text>
</g>
<!-- j3748077816&#45;&gt;j241855420 -->
<g id="edge13" class="edge">
<title>j3748077816&#45;&gt;j241855420</title>
<path fill="none" stroke="black" d="M1109.01,-2245.83C1109.96,-2238.24 1111.09,-2229.24 1112.14,-2220.79"/>
<polygon fill="black" stroke="black" points="1115.61,-2221.28 1113.38,-2210.92 1108.66,-2220.41 1115.61,-2221.28"/>
</g>
<!-- j2805292740 -->
<g id="node14" class="node">
<title>j2805292740</title>
<polygon fill="none" stroke="blue" points="1451.24,-2030 1196.24,-2030 1196.24,-1962 1451.24,-1962 1451.24,-2030"/>
<text text-anchor="middle" x="1323.74" y="-2014.8" font-family="Times New Roman,serif" font-size="14.00">Mm &#13;</text>
<text text-anchor="middle" x="1323.74" y="-1999.8" font-family="Times New Roman,serif" font-size="14.00">J&#39;aurais dû le savoir &#13;</text>
<text text-anchor="middle" x="1323.74" y="-1984.8" font-family="Times New Roman,serif" font-size="14.00">Va jouer avec Quincy &#13;</text>
<text text-anchor="middle" x="1323.74" y="-1969.8" font-family="Times New Roman,serif" font-size="14.00">Un escuincle comme lui te conviendra bien</text>
</g>
<!-- j4289954250&#45;&gt;j2805292740 -->
<g id="edge14" class="edge">
<title>j4289954250&#45;&gt;j2805292740</title>
<path fill="none" stroke="black" d="M1313.45,-2246.89C1315.13,-2206.1 1319.41,-2102.07 1321.89,-2041.87"/>
<polygon fill="black" stroke="black" points="1325.39,-2042.1 1322.3,-2031.96 1318.39,-2041.81 1325.39,-2042.1"/>
</g>
<!-- j2720179985 -->
<g id="node15" class="node">
<title>j2720179985</title>
<ellipse fill="none" stroke="orange" cx="1007.74" cy="-1926" rx="111.58" ry="18"/>
<text text-anchor="middle" x="1007.74" y="-1922.3" font-family="Times New Roman,serif" font-size="14.00">Check boolean LettieTrust1</text>
</g>
<!-- j638669898&#45;&gt;j2720179985 -->
<g id="edge15" class="edge">
<title>j638669898&#45;&gt;j2720179985</title>
<path fill="none" stroke="black" d="M900.52,-2118.54C920.91,-2082.11 968.13,-1997.75 992.53,-1954.16"/>
<polygon fill="black" stroke="black" points="995.51,-1956.02 997.34,-1945.58 989.4,-1952.6 995.51,-1956.02"/>
</g>
<!-- j578867226 -->
<g id="node16" class="node">
<title>j578867226</title>
<polygon fill="none" stroke="blue" points="1193.74,-2101 1001.74,-2101 1001.74,-2048 1193.74,-2048 1193.74,-2101"/>
<text text-anchor="middle" x="1097.74" y="-2085.8" font-family="Times New Roman,serif" font-size="14.00">Jajaja ça veut dire &quot;merde&quot; &#13;</text>
<text text-anchor="middle" x="1097.74" y="-2070.8" font-family="Times New Roman,serif" font-size="14.00">Mais non, ce n&#39;était pas négatif &#13;</text>
<text text-anchor="middle" x="1097.74" y="-2055.8" font-family="Times New Roman,serif" font-size="14.00">C&#39;est juste&#45;&#45;</text>
</g>
<!-- j241855420&#45;&gt;j578867226 -->
<g id="edge16" class="edge">
<title>j241855420&#45;&gt;j578867226</title>
<path fill="none" stroke="black" d="M1115.99,-2172.64C1115.91,-2158.17 1115.1,-2137.09 1111.74,-2119 1111.34,-2116.84 1110.86,-2114.63 1110.32,-2112.42"/>
<polygon fill="black" stroke="black" points="1113.73,-2111.6 1107.69,-2102.9 1106.99,-2113.48 1113.73,-2111.6"/>
</g>
<!-- j2805292740&#45;&gt;Chat ends. -->
<g id="edge17" class="edge">
<title>j2805292740&#45;&gt;Chat ends.</title>
<path fill="none" stroke="black" d="M1387.63,-1961.57C1414.1,-1942.79 1438.74,-1916.45 1438.74,-1883.5 1438.74,-1883.5 1438.74,-1883.5 1438.74,-90 1438.74,-52.97 1331.25,-33.62 1261.05,-24.92"/>
<polygon fill="black" stroke="black" points="1261.55,-21.46 1251.2,-23.75 1260.72,-28.41 1261.55,-21.46"/>
</g>
<!-- j675720518 -->
<g id="node17" class="node">
<title>j675720518</title>
<ellipse fill="none" stroke="orange" cx="663.74" cy="-1823" rx="111.58" ry="18"/>
<text text-anchor="middle" x="663.74" y="-1819.3" font-family="Times New Roman,serif" font-size="14.00">Check boolean LettieTrust2</text>
</g>
<!-- j2720179985&#45;&gt;j675720518 -->
<g id="edge18" class="edge">
<title>j2720179985&#45;&gt;j675720518</title>
<path fill="none" stroke="green" d="M955.49,-1909.66C894.2,-1891.66 792.61,-1861.84 726.94,-1842.55"/>
<polygon fill="green" stroke="green" points="727.95,-1839.2 717.37,-1839.74 725.98,-1845.92 727.95,-1839.2"/>
<text text-anchor="middle" x="896.74" y="-1878.8" font-family="Times New Roman,serif" font-size="14.00">true</text>
</g>
<!-- j2130018669 -->
<g id="node18" class="node">
<title>j2130018669</title>
<polygon fill="none" stroke="blue" points="1410.24,-1857 793.24,-1857 793.24,-1789 1410.24,-1789 1410.24,-1857"/>
<text text-anchor="middle" x="1101.74" y="-1841.8" font-family="Times New Roman,serif" font-size="14.00">Écoute &#13;</text>
<text text-anchor="middle" x="1101.74" y="-1826.8" font-family="Times New Roman,serif" font-size="14.00">J&#39;ai vraiment beaucoup de difficulté pour faire confiance&#13;</text>
<text text-anchor="middle" x="1101.74" y="-1811.8" font-family="Times New Roman,serif" font-size="14.00">Et c&#39;est la chose la plus importante dans une relation, pour moi &#13;</text>
<text text-anchor="middle" x="1101.74" y="-1796.8" font-family="Times New Roman,serif" font-size="14.00">La confiance brisée est quelque chose qui ne peut pas être réparé, surtout dans une situation comme celle&#45;ci</text>
</g>
<!-- j2720179985&#45;&gt;j2130018669 -->
<g id="edge19" class="edge">
<title>j2720179985&#45;&gt;j2130018669</title>
<path fill="none" stroke="brown" d="M1023.69,-1907.87C1034.56,-1896.18 1049.44,-1880.19 1063.3,-1865.3"/>
<polygon fill="brown" stroke="brown" points="1065.58,-1867.99 1069.83,-1858.29 1060.46,-1863.22 1065.58,-1867.99"/>
<text text-anchor="middle" x="1064.74" y="-1878.8" font-family="Times New Roman,serif" font-size="14.00">false</text>
</g>
<!-- j578867226&#45;&gt;j2720179985 -->
<g id="edge20" class="edge">
<title>j578867226&#45;&gt;j2720179985</title>
<path fill="none" stroke="black" d="M1081.86,-2047.65C1065.66,-2021.28 1040.64,-1980.55 1024.23,-1953.84"/>
<polygon fill="black" stroke="black" points="1027.4,-1952.32 1019.19,-1945.63 1021.44,-1955.98 1027.4,-1952.32"/>
</g>
<!-- j1990441092 -->
<g id="node19" class="node">
<title>j1990441092</title>
<polygon fill="none" stroke="blue" points="676.24,-1667 161.24,-1667 161.24,-1614 676.24,-1614 676.24,-1667"/>
<text text-anchor="middle" x="418.74" y="-1651.8" font-family="Times New Roman,serif" font-size="14.00">Tu sais combien il m&#39;est difficile de faire confiance aux gens &#13;</text>
<text text-anchor="middle" x="418.74" y="-1636.8" font-family="Times New Roman,serif" font-size="14.00">Et combien la confiance est importante pour moi ¿no? &#13;</text>
<text text-anchor="middle" x="418.74" y="-1621.8" font-family="Times New Roman,serif" font-size="14.00">Eh bien... c&#39;est encore plus important quand je m&#39;engage dans une relation avec quelqu&#39;un</text>
</g>
<!-- j675720518&#45;&gt;j1990441092 -->
<g id="edge21" class="edge">
<title>j675720518&#45;&gt;j1990441092</title>
<path fill="none" stroke="green" d="M574.39,-1811.84C525.19,-1801.45 467.28,-1780.45 432.74,-1738 419.41,-1721.61 415.75,-1698.27 415.5,-1678.64"/>
<polygon fill="green" stroke="green" points="418.99,-1678.88 415.68,-1668.82 411.99,-1678.75 418.99,-1678.88"/>
<text text-anchor="middle" x="478.74" y="-1759.8" font-family="Times New Roman,serif" font-size="14.00">true</text>
</g>
<!-- j1669026811 -->
<g id="node20" class="node">
<title>j1669026811</title>
<polygon fill="none" stroke="blue" points="1059.24,-1738 442.24,-1738 442.24,-1685 1059.24,-1685 1059.24,-1738"/>
<text text-anchor="middle" x="750.74" y="-1722.8" font-family="Times New Roman,serif" font-size="14.00">Tu sais que j&#39;ai vraiment beaucoup de difficulté pour faire confiance&#13;</text>
<text text-anchor="middle" x="750.74" y="-1707.8" font-family="Times New Roman,serif" font-size="14.00">Et c&#39;est la chose la plus importante dans une relation, pour moi &#13;</text>
<text text-anchor="middle" x="750.74" y="-1692.8" font-family="Times New Roman,serif" font-size="14.00">La confiance brisée est quelque chose qui ne peut pas être réparé, surtout dans une situation comme celle&#45;ci</text>
</g>
<!-- j675720518&#45;&gt;j1669026811 -->
<g id="edge22" class="edge">
<title>j675720518&#45;&gt;j1669026811</title>
<path fill="none" stroke="brown" d="M677.33,-1804.89C689.55,-1789.52 707.85,-1766.48 723.13,-1747.25"/>
<polygon fill="brown" stroke="brown" points="725.7,-1749.64 729.18,-1739.64 720.22,-1745.29 725.7,-1749.64"/>
<text text-anchor="middle" x="727.74" y="-1759.8" font-family="Times New Roman,serif" font-size="14.00">false</text>
</g>
<!-- j403278064 -->
<g id="node21" class="node">
<title>j403278064</title>
<ellipse fill="none" stroke="orange" cx="1208.74" cy="-1711.5" rx="131.88" ry="18"/>
<text text-anchor="middle" x="1208.74" y="-1707.8" font-family="Times New Roman,serif" font-size="14.00">Boolean LettieTrust1 is now true.</text>
</g>
<!-- j2130018669&#45;&gt;j403278064 -->
<g id="edge23" class="edge">
<title>j2130018669&#45;&gt;j403278064</title>
<path fill="none" stroke="black" d="M1134.43,-1788.55C1150.5,-1772.1 1169.55,-1752.61 1184.33,-1737.48"/>
<polygon fill="black" stroke="black" points="1186.52,-1740.25 1191,-1730.65 1181.51,-1735.36 1186.52,-1740.25"/>
</g>
<!-- j2250029968 -->
<g id="node22" class="node">
<title>j2250029968</title>
<polygon fill="none" stroke="blue" points="969.24,-1523 604.24,-1523 604.24,-1440 969.24,-1440 969.24,-1523"/>
<text text-anchor="middle" x="786.74" y="-1507.8" font-family="Times New Roman,serif" font-size="14.00">Parce qu&#39;une relation avec moi a tendance à faire mal, solecito &#13;</text>
<text text-anchor="middle" x="786.74" y="-1492.8" font-family="Times New Roman,serif" font-size="14.00">Si tu vois ce que je veux dire &#13;</text>
<text text-anchor="middle" x="786.74" y="-1477.8" font-family="Times New Roman,serif" font-size="14.00">Autant que nous le souhaitons&#13;</text>
<text text-anchor="middle" x="786.74" y="-1462.8" font-family="Times New Roman,serif" font-size="14.00">Et aussi loin que tu veux aller&#13;</text>
<text text-anchor="middle" x="786.74" y="-1447.8" font-family="Times New Roman,serif" font-size="14.00">Parce que ce genre de chose demande de la confiance</text>
</g>
<!-- j1990441092&#45;&gt;j2250029968 -->
<g id="edge24" class="edge">
<title>j1990441092&#45;&gt;j2250029968</title>
<path fill="none" stroke="black" d="M479.51,-1613.57C534.06,-1590.3 615.35,-1555.62 680.61,-1527.78"/>
<polygon fill="black" stroke="black" points="681.73,-1531.11 689.55,-1523.96 678.98,-1524.67 681.73,-1531.11"/>
</g>
<!-- j3996626639 -->
<g id="node23" class="node">
<title>j3996626639</title>
<ellipse fill="none" stroke="orange" cx="786.74" cy="-1578" rx="131.88" ry="18"/>
<text text-anchor="middle" x="786.74" y="-1574.3" font-family="Times New Roman,serif" font-size="14.00">Boolean LettieTrust2 is now true.</text>
</g>
<!-- j1669026811&#45;&gt;j3996626639 -->
<g id="edge25" class="edge">
<title>j1669026811&#45;&gt;j3996626639</title>
<path fill="none" stroke="black" d="M757.85,-1684.52C763.96,-1662.21 772.75,-1630.12 779.02,-1607.19"/>
<polygon fill="black" stroke="black" points="782.38,-1608.17 781.65,-1597.6 775.63,-1606.32 782.38,-1608.17"/>
</g>
<!-- j403278064&#45;&gt;j3996626639 -->
<g id="edge26" class="edge">
<title>j403278064&#45;&gt;j3996626639</title>
<path fill="none" stroke="black" d="M1157.42,-1694.51C1079.74,-1670.3 932.54,-1624.43 848.91,-1598.37"/>
<polygon fill="black" stroke="black" points="850.07,-1595.07 839.48,-1595.43 847.99,-1601.75 850.07,-1595.07"/>
</g>
<!-- j1817776812 -->
<g id="node24" class="node">
<title>j1817776812</title>
<polygon fill="none" stroke="blue" points="978.24,-1403 647.24,-1403 647.24,-1350 978.24,-1350 978.24,-1403"/>
<text text-anchor="middle" x="812.74" y="-1387.8" font-family="Times New Roman,serif" font-size="14.00">Et la confiance brisée dans une situation comme celle&#45;ci &#13;</text>
<text text-anchor="middle" x="812.74" y="-1372.8" font-family="Times New Roman,serif" font-size="14.00">Ne peut pas être réparée &#13;</text>
<text text-anchor="middle" x="812.74" y="-1357.8" font-family="Times New Roman,serif" font-size="14.00">¿Me explico?</text>
</g>
<!-- j2250029968&#45;&gt;j1817776812 -->
<g id="edge27" class="edge">
<title>j2250029968&#45;&gt;j1817776812</title>
<path fill="none" stroke="black" d="M797.02,-1439.79C799.12,-1431.46 801.32,-1422.73 803.39,-1414.54"/>
<polygon fill="black" stroke="black" points="806.78,-1415.42 805.83,-1404.87 799.99,-1413.71 806.78,-1415.42"/>
</g>
<!-- j3996626639&#45;&gt;j2250029968 -->
<g id="edge28" class="edge">
<title>j3996626639&#45;&gt;j2250029968</title>
<path fill="none" stroke="black" d="M786.74,-1559.67C786.74,-1552.47 786.74,-1543.71 786.74,-1534.7"/>
<polygon fill="black" stroke="black" points="790.24,-1534.78 786.74,-1524.78 783.24,-1534.78 790.24,-1534.78"/>
</g>
<!-- j3013717982 -->
<g id="node25" class="node">
<title>j3013717982</title>
<polygon fill="none" stroke="red" points="632.24,-1299 113.24,-1299 113.24,-1263 632.24,-1263 632.24,-1299"/>
<text text-anchor="middle" x="372.74" y="-1277.3" font-family="Times New Roman,serif" font-size="14.00">Je ne dis pas non, mais est&#45;ce que je peux demander... pourquoi c&#39;est ton truc, la douleur?</text>
</g>
<!-- j1817776812&#45;&gt;j3013717982 -->
<g id="edge29" class="edge">
<title>j1817776812&#45;&gt;j3013717982</title>
<path fill="none" stroke="black" d="M690.47,-1349.52C619.43,-1334.42 531.33,-1315.7 465.93,-1301.8"/>
<polygon fill="black" stroke="black" points="466.81,-1298.41 456.3,-1299.76 465.35,-1305.26 466.81,-1298.41"/>
</g>
<!-- j690980137 -->
<g id="node26" class="node">
<title>j690980137</title>
<polygon fill="none" stroke="red" points="1001.24,-1299 650.24,-1299 650.24,-1263 1001.24,-1263 1001.24,-1299"/>
<text text-anchor="middle" x="825.74" y="-1277.3" font-family="Times New Roman,serif" font-size="14.00">Uniquement si on peut changer de rôle de temps en temps...</text>
</g>
<!-- j1817776812&#45;&gt;j690980137 -->
<g id="edge30" class="edge">
<title>j1817776812&#45;&gt;j690980137</title>
<path fill="none" stroke="black" d="M816.29,-1349.95C817.99,-1337.74 820.03,-1323.08 821.78,-1310.51"/>
<polygon fill="black" stroke="black" points="825.22,-1311.13 823.13,-1300.74 818.29,-1310.17 825.22,-1311.13"/>
</g>
<!-- j3050577490 -->
<g id="node27" class="node">
<title>j3050577490</title>
<polygon fill="none" stroke="red" points="1410.24,-1299 1019.24,-1299 1019.24,-1263 1410.24,-1263 1410.24,-1299"/>
<text text-anchor="middle" x="1214.74" y="-1277.3" font-family="Times New Roman,serif" font-size="14.00">Je n&#39;aime pas vraiment mélanger la douleur et le plaisir, excuse&#45;moi.</text>
</g>
<!-- j1817776812&#45;&gt;j3050577490 -->
<g id="edge31" class="edge">
<title>j1817776812&#45;&gt;j3050577490</title>
<path fill="none" stroke="black" d="M924.45,-1349.52C989.09,-1334.48 1069.18,-1315.86 1128.86,-1301.98"/>
<polygon fill="black" stroke="black" points="1129.33,-1305.46 1138.28,-1299.78 1127.74,-1298.64 1129.33,-1305.46"/>
</g>
<!-- j460062879 -->
<g id="node28" class="node">
<title>j460062879</title>
<polygon fill="none" stroke="blue" points="591.74,-1226 243.74,-1226 243.74,-1173 591.74,-1173 591.74,-1226"/>
<text text-anchor="middle" x="417.74" y="-1210.8" font-family="Times New Roman,serif" font-size="14.00">Mmm, je ne sais pas &#13;</text>
<text text-anchor="middle" x="417.74" y="-1195.8" font-family="Times New Roman,serif" font-size="14.00">Peut&#45;être parce que c&#39;est une douleur que je peux contrôler &#13;</text>
<text text-anchor="middle" x="417.74" y="-1180.8" font-family="Times New Roman,serif" font-size="14.00">Et non une douleur hors de mon contrôle</text>
</g>
<!-- j3013717982&#45;&gt;j460062879 -->
<g id="edge32" class="edge">
<title>j3013717982&#45;&gt;j460062879</title>
<path fill="none" stroke="black" d="M382.51,-1262.75C386.91,-1254.97 392.28,-1245.47 397.5,-1236.27"/>
<polygon fill="black" stroke="black" points="400.41,-1238.23 402.29,-1227.8 394.32,-1234.78 400.41,-1238.23"/>
</g>
<!-- j1930241246 -->
<g id="node29" class="node">
<title>j1930241246</title>
<polygon fill="none" stroke="blue" points="975.24,-968 676.24,-968 676.24,-900 975.24,-900 975.24,-968"/>
<text text-anchor="middle" x="825.74" y="-952.8" font-family="Times New Roman,serif" font-size="14.00">Jajaja bien sûr &#13;</text>
<text text-anchor="middle" x="825.74" y="-937.8" font-family="Times New Roman,serif" font-size="14.00">Mais une fois que tu l&#39;auras mérité &#13;</text>
<text text-anchor="middle" x="825.74" y="-922.8" font-family="Times New Roman,serif" font-size="14.00">Je dois d&#39;abord savoir si je peux te faire confiance &#13;</text>
<text text-anchor="middle" x="825.74" y="-907.8" font-family="Times New Roman,serif" font-size="14.00">Alors... qu&#39;est&#45;ce que tu en dis?</text>
</g>
<!-- j690980137&#45;&gt;j1930241246 -->
<g id="edge33" class="edge">
<title>j690980137&#45;&gt;j1930241246</title>
<path fill="none" stroke="black" d="M825.74,-1262.89C825.74,-1211.42 825.74,-1056.81 825.74,-979.71"/>
<polygon fill="black" stroke="black" points="829.24,-979.99 825.74,-969.99 822.24,-979.99 829.24,-979.99"/>
</g>
<!-- j3060928489 -->
<g id="node30" class="node">
<title>j3060928489</title>
<polygon fill="none" stroke="blue" points="1313.24,-1155 1114.24,-1155 1114.24,-1102 1313.24,-1102 1313.24,-1155"/>
<text text-anchor="middle" x="1213.74" y="-1139.8" font-family="Times New Roman,serif" font-size="14.00">Ay, sí &#13;</text>
<text text-anchor="middle" x="1213.74" y="-1124.8" font-family="Times New Roman,serif" font-size="14.00">Ce n&#39;est pas pour tout le monde &#13;</text>
<text text-anchor="middle" x="1213.74" y="-1109.8" font-family="Times New Roman,serif" font-size="14.00">Entiendo, pas de problème</text>
</g>
<!-- j3050577490&#45;&gt;j3060928489 -->
<g id="edge34" class="edge">
<title>j3050577490&#45;&gt;j3060928489</title>
<path fill="none" stroke="black" d="M1214.63,-1262.74C1214.47,-1239.39 1214.19,-1197.15 1213.99,-1166.47"/>
<polygon fill="black" stroke="black" points="1217.49,-1166.84 1213.92,-1156.86 1210.49,-1166.88 1217.49,-1166.84"/>
</g>
<!-- j1213384887 -->
<g id="node31" class="node">
<title>j1213384887</title>
<polygon fill="none" stroke="blue" points="749.74,-1084 159.74,-1084 159.74,-986 749.74,-986 749.74,-1084"/>
<text text-anchor="middle" x="454.74" y="-1068.8" font-family="Times New Roman,serif" font-size="14.00">Ou peut&#45;être parce que c&#39;est quelque chose d&#39;intense &#13;</text>
<text text-anchor="middle" x="454.74" y="-1053.8" font-family="Times New Roman,serif" font-size="14.00">Quelque chose de tranchant qui coupe toutes les conneries auxquelles je dois faire face jour après jour &#13;</text>
<text text-anchor="middle" x="454.74" y="-1038.8" font-family="Times New Roman,serif" font-size="14.00">C&#39;est RÉEL &#13;</text>
<text text-anchor="middle" x="454.74" y="-1023.8" font-family="Times New Roman,serif" font-size="14.00">Je peux y enfoncer mes dents &#13;</text>
<text text-anchor="middle" x="454.74" y="-1008.8" font-family="Times New Roman,serif" font-size="14.00">La faire chanter &#13;</text>
<text text-anchor="middle" x="454.74" y="-993.8" font-family="Times New Roman,serif" font-size="14.00">La sentir vibrer</text>
</g>
<!-- j460062879&#45;&gt;j1213384887 -->
<g id="edge35" class="edge">
<title>j460062879&#45;&gt;j1213384887</title>
<path fill="none" stroke="black" d="M423.6,-1172.75C428.33,-1152 435.16,-1122 441.22,-1095.38"/>
<polygon fill="black" stroke="black" points="444.62,-1096.22 443.43,-1085.69 437.79,-1094.66 444.62,-1096.22"/>
</g>
<!-- j985510395 -->
<g id="node32" class="node">
<title>j985510395</title>
<polygon fill="none" stroke="blue" points="964.24,-792 713.24,-792 713.24,-756 964.24,-756 964.24,-792"/>
<text text-anchor="middle" x="838.74" y="-770.3" font-family="Times New Roman,serif" font-size="14.00">Tu veux faire une terrible erreur avec moi?</text>
</g>
<!-- j1930241246&#45;&gt;j985510395 -->
<g id="edge36" class="edge">
<title>j1930241246&#45;&gt;j985510395</title>
<path fill="none" stroke="black" d="M828.47,-899.88C830.8,-871.47 834.14,-830.95 836.37,-803.85"/>
<polygon fill="black" stroke="black" points="839.85,-804.2 837.18,-793.95 832.87,-803.63 839.85,-804.2"/>
</g>
<!-- j1910957613 -->
<g id="node33" class="node">
<title>j1910957613</title>
<ellipse fill="none" stroke="orange" cx="1201.74" cy="-628" rx="64.19" ry="18"/>
<text text-anchor="middle" x="1201.74" y="-624.3" font-family="Times New Roman,serif" font-size="14.00">+10 Chemistry</text>
</g>
<!-- j3060928489&#45;&gt;j1910957613 -->
<g id="edge37" class="edge">
<title>j3060928489&#45;&gt;j1910957613</title>
<path fill="none" stroke="black" d="M1213.74,-1101.66C1213.74,-1064.71 1213.74,-994.65 1213.74,-935 1213.74,-935 1213.74,-935 1213.74,-700 1213.74,-685.83 1211.39,-670.3 1208.77,-657.38"/>
<polygon fill="black" stroke="black" points="1212.24,-656.86 1206.67,-647.85 1205.4,-658.37 1212.24,-656.86"/>
</g>
<!-- j1713199703 -->
<g id="node34" class="node">
<title>j1713199703</title>
<polygon fill="none" stroke="blue" points="738.74,-882 522.74,-882 522.74,-829 738.74,-829 738.74,-882"/>
<text text-anchor="middle" x="630.74" y="-866.8" font-family="Times New Roman,serif" font-size="14.00">Et cela EXIGE de la confiance &#13;</text>
<text text-anchor="middle" x="630.74" y="-851.8" font-family="Times New Roman,serif" font-size="14.00">Ça ne marche pas sans ça, solecito &#13;</text>
<text text-anchor="middle" x="630.74" y="-836.8" font-family="Times New Roman,serif" font-size="14.00">Alors... qu&#39;en dis&#45;tu?</text>
</g>
<!-- j1213384887&#45;&gt;j1713199703 -->
<g id="edge38" class="edge">
<title>j1213384887&#45;&gt;j1713199703</title>
<path fill="none" stroke="black" d="M502.37,-985.97C532.35,-955.73 570.32,-917.43 597.16,-890.36"/>
<polygon fill="black" stroke="black" points="599.5,-892.98 604.05,-883.42 594.53,-888.05 599.5,-892.98"/>
</g>
<!-- j1116892648 -->
<g id="node35" class="node">
<title>j1116892648</title>
<polygon fill="none" stroke="red" points="957.74,-719 723.74,-719 723.74,-683 957.74,-683 957.74,-719"/>
<text text-anchor="middle" x="840.74" y="-697.3" font-family="Times New Roman,serif" font-size="14.00">Ouais, carrément :) [Sortir avec Lettie.]</text>
</g>
<!-- j985510395&#45;&gt;j1116892648 -->
<g id="edge39" class="edge">
<title>j985510395&#45;&gt;j1116892648</title>
<path fill="none" stroke="black" d="M839.23,-755.81C839.44,-748.14 839.7,-738.89 839.95,-730.24"/>
<polygon fill="black" stroke="black" points="843.44,-730.64 840.22,-720.54 836.44,-730.44 843.44,-730.64"/>
</g>
<!-- j3992905902 -->
<g id="node36" class="node">
<title>j3992905902</title>
<polygon fill="none" stroke="red" points="1184.74,-719 976.74,-719 976.74,-683 1184.74,-683 1184.74,-719"/>
<text text-anchor="middle" x="1080.74" y="-697.3" font-family="Times New Roman,serif" font-size="14.00">En fait, je dois y réfléchir. Pardon.</text>
</g>
<!-- j985510395&#45;&gt;j3992905902 -->
<g id="edge40" class="edge">
<title>j985510395&#45;&gt;j3992905902</title>
<path fill="none" stroke="black" d="M898.25,-755.54C932.24,-745.57 975.05,-733.01 1010.66,-722.56"/>
<polygon fill="black" stroke="black" points="1011.4,-725.99 1020.01,-719.82 1009.43,-719.27 1011.4,-725.99"/>
</g>
<!-- j3579852686 -->
<g id="node37" class="node">
<title>j3579852686</title>
<polygon fill="none" stroke="blue" points="1289.24,-549.5 1114.24,-549.5 1114.24,-513.5 1289.24,-513.5 1289.24,-549.5"/>
<text text-anchor="middle" x="1201.74" y="-527.8" font-family="Times New Roman,serif" font-size="14.00">Dis&#45;moi si tu changes d’avis</text>
</g>
<!-- j1910957613&#45;&gt;j3579852686 -->
<g id="edge41" class="edge">
<title>j1910957613&#45;&gt;j3579852686</title>
<path fill="none" stroke="black" d="M1201.74,-609.67C1201.74,-596.08 1201.74,-576.89 1201.74,-561.04"/>
<polygon fill="black" stroke="black" points="1205.24,-561.24 1201.74,-551.24 1198.24,-561.24 1205.24,-561.24"/>
</g>
<!-- j1713199703&#45;&gt;j985510395 -->
<g id="edge42" class="edge">
<title>j1713199703&#45;&gt;j985510395</title>
<path fill="none" stroke="black" d="M698.56,-828.58C725.63,-818.23 756.45,-806.45 782.27,-796.58"/>
<polygon fill="black" stroke="black" points="783.51,-799.86 791.6,-793.02 781.01,-793.32 783.51,-799.86"/>
</g>
<!-- j1157191292 -->
<g id="node38" class="node">
<title>j1157191292</title>
<ellipse fill="none" stroke="orange" cx="895.74" cy="-628" rx="64.19" ry="18"/>
<text text-anchor="middle" x="895.74" y="-624.3" font-family="Times New Roman,serif" font-size="14.00">+20 Chemistry</text>
</g>
<!-- j1116892648&#45;&gt;j1157191292 -->
<g id="edge43" class="edge">
<title>j1116892648&#45;&gt;j1157191292</title>
<path fill="none" stroke="black" d="M854.06,-682.81C860.54,-674.44 868.48,-664.2 875.68,-654.9"/>
<polygon fill="black" stroke="black" points="878.27,-657.27 881.62,-647.23 872.73,-652.99 878.27,-657.27"/>
</g>
<!-- j3992905902&#45;&gt;j1910957613 -->
<g id="edge44" class="edge">
<title>j3992905902&#45;&gt;j1910957613</title>
<path fill="none" stroke="black" d="M1110.34,-682.63C1126.83,-672.95 1147.52,-660.82 1165.03,-650.54"/>
<polygon fill="black" stroke="black" points="1166.76,-653.58 1173.62,-645.5 1163.22,-647.54 1166.76,-653.58"/>
</g>
<!-- j2129367046 -->
<g id="node39" class="node">
<title>j2129367046</title>
<ellipse fill="none" stroke="orange" cx="1201.74" cy="-364" rx="139.18" ry="18"/>
<text text-anchor="middle" x="1201.74" y="-360.3" font-family="Times New Roman,serif" font-size="14.00">Boolean LettieWillDate is now true.</text>
</g>
<!-- j3579852686&#45;&gt;j2129367046 -->
<g id="edge45" class="edge">
<title>j3579852686&#45;&gt;j2129367046</title>
<path fill="none" stroke="black" d="M1201.74,-513.1C1201.74,-484.67 1201.74,-427.97 1201.74,-393.57"/>
<polygon fill="black" stroke="black" points="1205.24,-393.93 1201.74,-383.93 1198.24,-393.93 1205.24,-393.93"/>
</g>
<!-- j1416692478 -->
<g id="node40" class="node">
<title>j1416692478</title>
<polygon fill="none" stroke="blue" points="1022.74,-573 804.74,-573 804.74,-490 1022.74,-490 1022.74,-573"/>
<text text-anchor="middle" x="913.74" y="-557.8" font-family="Times New Roman,serif" font-size="14.00">Très bien &#13;</text>
<text text-anchor="middle" x="913.74" y="-542.8" font-family="Times New Roman,serif" font-size="14.00">Prépare&#45;toi, solecito &#13;</text>
<text text-anchor="middle" x="913.74" y="-527.8" font-family="Times New Roman,serif" font-size="14.00">Je ne serai pas indulgente avec toi &#13;</text>
<text text-anchor="middle" x="913.74" y="-512.8" font-family="Times New Roman,serif" font-size="14.00">Parce que j&#39;ai vu comment tu te bats&#13;</text>
<text text-anchor="middle" x="913.74" y="-497.8" font-family="Times New Roman,serif" font-size="14.00">Je sais ce que tu peux supporter</text>
</g>
<!-- j1157191292&#45;&gt;j1416692478 -->
<g id="edge46" class="edge">
<title>j1157191292&#45;&gt;j1416692478</title>
<path fill="none" stroke="black" d="M899.04,-609.67C900.43,-602.39 902.12,-593.51 903.86,-584.4"/>
<polygon fill="black" stroke="black" points="907.26,-585.23 905.69,-574.75 900.38,-583.92 907.26,-585.23"/>
</g>
<!-- j2129367046&#45;&gt;Chat ends. -->
<g id="edge47" class="edge">
<title>j2129367046&#45;&gt;Chat ends.</title>
<path fill="none" stroke="black" d="M1201.74,-345.61C1201.74,-327.66 1201.74,-298.88 1201.74,-274 1201.74,-274 1201.74,-274 1201.74,-90 1201.74,-76.08 1201.74,-60.63 1201.74,-47.7"/>
<polygon fill="black" stroke="black" points="1205.24,-47.73 1201.74,-37.73 1198.24,-47.73 1205.24,-47.73"/>
</g>
<!-- j2746564911 -->
<g id="node41" class="node">
<title>j2746564911</title>
<polygon fill="none" stroke="blue" points="1027.74,-453 807.74,-453 807.74,-400 1027.74,-400 1027.74,-453"/>
<text text-anchor="middle" x="917.74" y="-437.8" font-family="Times New Roman,serif" font-size="14.00">Mais ne t&#39;inquiète pas &#13;</text>
<text text-anchor="middle" x="917.74" y="-422.8" font-family="Times New Roman,serif" font-size="14.00">Je t&#39;embrasserai encore mieux après &#13;</text>
<text text-anchor="middle" x="917.74" y="-407.8" font-family="Times New Roman,serif" font-size="14.00">Tu peux compter là&#45;dessus</text>
</g>
<!-- j1416692478&#45;&gt;j2746564911 -->
<g id="edge48" class="edge">
<title>j1416692478&#45;&gt;j2746564911</title>
<path fill="none" stroke="black" d="M915.32,-489.79C915.64,-481.56 915.98,-472.93 916.29,-464.82"/>
<polygon fill="black" stroke="black" points="919.79,-465.04 916.68,-454.92 912.79,-464.77 919.79,-465.04"/>
</g>
<!-- j1300785588 -->
<g id="node42" class="node">
<title>j1300785588</title>
<ellipse fill="none" stroke="orange" cx="939.74" cy="-310" rx="139.18" ry="18"/>
<text text-anchor="middle" x="939.74" y="-306.3" font-family="Times New Roman,serif" font-size="14.00">Boolean LettieWillDate is now true.</text>
</g>
<!-- j2746564911&#45;&gt;j1300785588 -->
<g id="edge49" class="edge">
<title>j2746564911&#45;&gt;j1300785588</title>
<path fill="none" stroke="black" d="M922.73,-399.52C926.17,-381.66 930.72,-357.94 934.26,-339.55"/>
<polygon fill="black" stroke="black" points="937.67,-340.32 936.12,-329.84 930.8,-339 937.67,-340.32"/>
</g>
<!-- j702074970 -->
<g id="node43" class="node">
<title>j702074970</title>
<ellipse fill="none" stroke="orange" cx="1010.74" cy="-237" rx="131.08" ry="18"/>
<text text-anchor="middle" x="1010.74" y="-233.3" font-family="Times New Roman,serif" font-size="14.00">Boolean LettieDating is now true.</text>
</g>
<!-- j1300785588&#45;&gt;j702074970 -->
<g id="edge50" class="edge">
<title>j1300785588&#45;&gt;j702074970</title>
<path fill="none" stroke="black" d="M956.93,-291.81C965.56,-283.18 976.19,-272.56 985.71,-263.03"/>
<polygon fill="black" stroke="black" points="988.05,-265.65 992.64,-256.1 983.1,-260.7 988.05,-265.65"/>
</g>
<!-- j938814249 -->
<g id="node44" class="node">
<title>j938814249</title>
<ellipse fill="none" stroke="orange" cx="1022.74" cy="-164" rx="118.08" ry="18"/>
<text text-anchor="middle" x="1022.74" y="-160.3" font-family="Times New Roman,serif" font-size="14.00">Boolean IsDating is now true.</text>
</g>
<!-- j702074970&#45;&gt;j938814249 -->
<g id="edge51" class="edge">
<title>j702074970&#45;&gt;j938814249</title>
<path fill="none" stroke="black" d="M1013.65,-218.81C1014.94,-211.14 1016.51,-201.89 1017.97,-193.24"/>
<polygon fill="black" stroke="black" points="1021.4,-193.96 1019.61,-183.52 1014.49,-192.8 1021.4,-193.96"/>
</g>
<!-- j3003494003 -->
<g id="node45" class="node">
<title>j3003494003</title>
<ellipse fill="none" stroke="orange" cx="1023.74" cy="-91" rx="143.77" ry="18"/>
<text text-anchor="middle" x="1023.74" y="-87.3" font-family="Times New Roman,serif" font-size="14.00">Boolean LettieHasDated is now true.</text>
</g>
<!-- j938814249&#45;&gt;j3003494003 -->
<g id="edge52" class="edge">
<title>j938814249&#45;&gt;j3003494003</title>
<path fill="none" stroke="black" d="M1022.98,-145.81C1023.09,-138.23 1023.22,-129.1 1023.34,-120.54"/>
<polygon fill="black" stroke="black" points="1026.84,-120.59 1023.48,-110.54 1019.84,-120.49 1026.84,-120.59"/>
</g>
<!-- j3003494003&#45;&gt;Chat ends. -->
<g id="edge53" class="edge">
<title>j3003494003&#45;&gt;Chat ends.</title>
<path fill="none" stroke="black" d="M1065.47,-73.35C1093.54,-62.16 1130.43,-47.44 1158.76,-36.15"/>
<polygon fill="black" stroke="black" points="1159.76,-39.51 1167.75,-32.56 1157.16,-33.01 1159.76,-39.51"/>
</g>
</g>
</svg>
