<?xml version="1.0" encoding="UTF-8" standalone="no"?>
<!DOCTYPE svg PUBLIC "-//W3C//DTD SVG 1.1//EN"
 "http://www.w3.org/Graphics/SVG/1.1/DTD/svg11.dtd">
<!-- Generated by graphviz version 7.1.0 (20230121.1956)
 -->
<!-- Pages: 1 -->
<svg width="1617pt" height="1414pt"
 viewBox="0.00 0.00 1617.00 1414.00" xmlns="http://www.w3.org/2000/svg" xmlns:xlink="http://www.w3.org/1999/xlink">
<g id="graph0" class="graph" transform="scale(1 1) rotate(0) translate(4 1410)">
<polygon fill="white" stroke="none" points="-4,4 -4,-1410 1613,-1410 1613,4 -4,4"/>
<!-- LettieRank3Convo5 begins. -->
<g id="node1" class="node">
<title>LettieRank3Convo5 begins.</title>
<ellipse fill="none" stroke="orange" cx="289" cy="-1388" rx="111.58" ry="18"/>
<text text-anchor="middle" x="289" y="-1384.3" font-family="Times New Roman,serif" font-size="14.00">LettieRank3Convo5 begins.</text>
</g>
<!-- j2968491836 -->
<g id="node2" class="node">
<title>j2968491836</title>
<polygon fill="none" stroke="red" points="345.5,-1333 232.5,-1333 232.5,-1297 345.5,-1297 345.5,-1333"/>
<text text-anchor="middle" x="289" y="-1311.3" font-family="Times New Roman,serif" font-size="14.00">Tu tiens le coup?</text>
</g>
<!-- LettieRank3Convo5 begins.&#45;&gt;j2968491836 -->
<g id="edge1" class="edge">
<title>LettieRank3Convo5 begins.&#45;&gt;j2968491836</title>
<path fill="none" stroke="black" d="M289,-1369.81C289,-1362.23 289,-1353.1 289,-1344.54"/>
<polygon fill="black" stroke="black" points="292.5,-1344.54 289,-1334.54 285.5,-1344.54 292.5,-1344.54"/>
</g>
<!-- j2529609686 -->
<g id="node3" class="node">
<title>j2529609686</title>
<polygon fill="none" stroke="red" points="678.5,-1333 453.5,-1333 453.5,-1297 678.5,-1297 678.5,-1333"/>
<text text-anchor="middle" x="566" y="-1311.3" font-family="Times New Roman,serif" font-size="14.00">Comment ça se passe avec les civils?</text>
</g>
<!-- LettieRank3Convo5 begins.&#45;&gt;j2529609686 -->
<g id="edge2" class="edge">
<title>LettieRank3Convo5 begins.&#45;&gt;j2529609686</title>
<path fill="none" stroke="black" d="M346.73,-1372.2C387.29,-1361.81 442.06,-1347.77 486.71,-1336.32"/>
<polygon fill="black" stroke="black" points="487.55,-1339.72 496.37,-1333.85 485.81,-1332.94 487.55,-1339.72"/>
</g>
<!-- j3055069876 -->
<g id="node4" class="node">
<title>j3055069876</title>
<polygon fill="none" stroke="red" points="89,-1279 19,-1279 19,-1243 89,-1243 89,-1279"/>
<text text-anchor="middle" x="54" y="-1257.3" font-family="Times New Roman,serif" font-size="14.00">[Ignorer.]</text>
</g>
<!-- LettieRank3Convo5 begins.&#45;&gt;j3055069876 -->
<g id="edge3" class="edge">
<title>LettieRank3Convo5 begins.&#45;&gt;j3055069876</title>
<path fill="none" stroke="black" d="M257.79,-1370.4C216.47,-1348.42 143.41,-1309.56 96.92,-1284.83"/>
<polygon fill="black" stroke="black" points="98.66,-1281.79 88.19,-1280.18 95.37,-1287.97 98.66,-1281.79"/>
</g>
<!-- j2996018077 -->
<g id="node5" class="node">
<title>j2996018077</title>
<polygon fill="none" stroke="blue" points="393.5,-1217.5 184.5,-1217.5 184.5,-1179.5 393.5,-1179.5 393.5,-1217.5"/>
<text text-anchor="middle" x="289" y="-1202.3" font-family="Times New Roman,serif" font-size="14.00">Mm ? &#13;</text>
<text text-anchor="middle" x="289" y="-1187.3" font-family="Times New Roman,serif" font-size="14.00">Je me sens comme une porte jajaja</text>
</g>
<!-- j2968491836&#45;&gt;j2996018077 -->
<g id="edge4" class="edge">
<title>j2968491836&#45;&gt;j2996018077</title>
<path fill="none" stroke="black" d="M289,-1296.61C289,-1278.75 289,-1250.6 289,-1229.2"/>
<polygon fill="black" stroke="black" points="292.5,-1229.33 289,-1219.33 285.5,-1229.33 292.5,-1229.33"/>
</g>
<!-- j765962645 -->
<g id="node6" class="node">
<title>j765962645</title>
<polygon fill="none" stroke="blue" points="843,-1225 477,-1225 477,-1172 843,-1172 843,-1225"/>
<text text-anchor="middle" x="660" y="-1209.8" font-family="Times New Roman,serif" font-size="14.00">Hein? &#13;</text>
<text text-anchor="middle" x="660" y="-1194.8" font-family="Times New Roman,serif" font-size="14.00">Bien, j&#39;imagine. &#13;</text>
<text text-anchor="middle" x="660" y="-1179.8" font-family="Times New Roman,serif" font-size="14.00">Les civils sont les mêmes partout, on s&#39;y habitue avec le temps</text>
</g>
<!-- j2529609686&#45;&gt;j765962645 -->
<g id="edge5" class="edge">
<title>j2529609686&#45;&gt;j765962645</title>
<path fill="none" stroke="black" d="M580.28,-1296.61C593.88,-1280.04 614.74,-1254.64 631.71,-1233.96"/>
<polygon fill="black" stroke="black" points="634.35,-1236.26 637.99,-1226.31 628.94,-1231.82 634.35,-1236.26"/>
</g>
<!-- Chat ends. -->
<g id="node7" class="node">
<title>Chat ends.</title>
<ellipse fill="none" stroke="orange" cx="752" cy="-18" rx="50.09" ry="18"/>
<text text-anchor="middle" x="752" y="-14.3" font-family="Times New Roman,serif" font-size="14.00">Chat ends.</text>
</g>
<!-- j3055069876&#45;&gt;Chat ends. -->
<g id="edge6" class="edge">
<title>j3055069876&#45;&gt;Chat ends.</title>
<path fill="none" stroke="black" d="M38.67,-1242.62C22.71,-1222.68 0,-1188.28 0,-1154 0,-1154 0,-1154 0,-91 0,-21.86 510.23,-17.77 690.13,-18.48"/>
<polygon fill="black" stroke="black" points="689.96,-21.98 699.98,-18.52 689.99,-14.98 689.96,-21.98"/>
</g>
<!-- j4281152690 -->
<g id="node8" class="node">
<title>j4281152690</title>
<polygon fill="none" stroke="blue" points="500.5,-1135 77.5,-1135 77.5,-1082 500.5,-1082 500.5,-1135"/>
<text text-anchor="middle" x="289" y="-1119.8" font-family="Times New Roman,serif" font-size="14.00">Même avant toi, parfois, j&#39;avais l&#39;impression que les gens me traversaient &#13;</text>
<text text-anchor="middle" x="289" y="-1104.8" font-family="Times New Roman,serif" font-size="14.00">Juste un visage, dans une tente RCI, en soignant des blessures &#13;</text>
<text text-anchor="middle" x="289" y="-1089.8" font-family="Times New Roman,serif" font-size="14.00">Mais je fais partie des meubles</text>
</g>
<!-- j2996018077&#45;&gt;j4281152690 -->
<g id="edge7" class="edge">
<title>j2996018077&#45;&gt;j4281152690</title>
<path fill="none" stroke="black" d="M289,-1179.27C289,-1169.85 289,-1158 289,-1146.76"/>
<polygon fill="black" stroke="black" points="292.5,-1146.9 289,-1136.9 285.5,-1146.9 292.5,-1146.9"/>
</g>
<!-- j2575859763 -->
<g id="node9" class="node">
<title>j2575859763</title>
<polygon fill="none" stroke="red" points="798,-1126.5 522,-1126.5 522,-1090.5 798,-1090.5 798,-1126.5"/>
<text text-anchor="middle" x="660" y="-1104.8" font-family="Times New Roman,serif" font-size="14.00">Ouais, mais ça doit quand même être épuisant.</text>
</g>
<!-- j765962645&#45;&gt;j2575859763 -->
<g id="edge8" class="edge">
<title>j765962645&#45;&gt;j2575859763</title>
<path fill="none" stroke="black" d="M660,-1171.57C660,-1161.11 660,-1149 660,-1138.27"/>
<polygon fill="black" stroke="black" points="663.5,-1138.41 660,-1128.41 656.5,-1138.41 663.5,-1138.41"/>
</g>
<!-- j3434024055 -->
<g id="node10" class="node">
<title>j3434024055</title>
<polygon fill="none" stroke="red" points="949.5,-1064 818.5,-1064 818.5,-1028 949.5,-1028 949.5,-1064"/>
<text text-anchor="middle" x="884" y="-1042.3" font-family="Times New Roman,serif" font-size="14.00">On s&#39;habitue à quoi?</text>
</g>
<!-- j765962645&#45;&gt;j3434024055 -->
<g id="edge9" class="edge">
<title>j765962645&#45;&gt;j3434024055</title>
<path fill="none" stroke="black" d="M739.01,-1171.53C762.08,-1161.98 786.56,-1149.81 807,-1135 830.49,-1117.98 851.74,-1092.55 865.94,-1073.4"/>
<polygon fill="black" stroke="black" points="868.6,-1075.68 871.62,-1065.53 862.93,-1071.59 868.6,-1075.68"/>
</g>
<!-- j3287604881 -->
<g id="node11" class="node">
<title>j3287604881</title>
<polygon fill="none" stroke="blue" points="446,-1010 132,-1010 132,-942 446,-942 446,-1010"/>
<text text-anchor="middle" x="289" y="-994.8" font-family="Times New Roman,serif" font-size="14.00">Je suis solide&#13;</text>
<text text-anchor="middle" x="289" y="-979.8" font-family="Times New Roman,serif" font-size="14.00">Je ne vais nulle part &#13;</text>
<text text-anchor="middle" x="289" y="-964.8" font-family="Times New Roman,serif" font-size="14.00">Pero... Estoy muerta &#13;</text>
<text text-anchor="middle" x="289" y="-949.8" font-family="Times New Roman,serif" font-size="14.00">Parfois, il n&#39;y a pas assez de café dans l&#39;univers, ¿no?</text>
</g>
<!-- j4281152690&#45;&gt;j3287604881 -->
<g id="edge10" class="edge">
<title>j4281152690&#45;&gt;j3287604881</title>
<path fill="none" stroke="black" d="M289,-1081.72C289,-1064.58 289,-1041.62 289,-1021.57"/>
<polygon fill="black" stroke="black" points="292.5,-1021.68 289,-1011.68 285.5,-1021.68 292.5,-1021.68"/>
</g>
<!-- j3888424399 -->
<g id="node12" class="node">
<title>j3888424399</title>
<polygon fill="none" stroke="blue" points="817,-1010 503,-1010 503,-942 817,-942 817,-1010"/>
<text text-anchor="middle" x="660" y="-994.8" font-family="Times New Roman,serif" font-size="14.00">Sí, tu n&#39;as pas idée &#13;</text>
<text text-anchor="middle" x="660" y="-979.8" font-family="Times New Roman,serif" font-size="14.00">Parfois, il n&#39;y a pas assez de café dans l&#39;univers, ¿no?&#13;</text>
<text text-anchor="middle" x="660" y="-964.8" font-family="Times New Roman,serif" font-size="14.00">Pero, soy dura de roer&#13;</text>
<text text-anchor="middle" x="660" y="-949.8" font-family="Times New Roman,serif" font-size="14.00">Je ne vais nulle part</text>
</g>
<!-- j2575859763&#45;&gt;j3888424399 -->
<g id="edge11" class="edge">
<title>j2575859763&#45;&gt;j3888424399</title>
<path fill="none" stroke="black" d="M660,-1090.17C660,-1072.71 660,-1045.05 660,-1021.45"/>
<polygon fill="black" stroke="black" points="663.5,-1021.77 660,-1011.77 656.5,-1021.77 663.5,-1021.77"/>
</g>
<!-- j1105101679 -->
<g id="node13" class="node">
<title>j1105101679</title>
<polygon fill="none" stroke="blue" points="1161.5,-924 676.5,-924 676.5,-856 1161.5,-856 1161.5,-924"/>
<text text-anchor="middle" x="919" y="-908.8" font-family="Times New Roman,serif" font-size="14.00">Leurs regards vides et leur douleur sourde&#13;</text>
<text text-anchor="middle" x="919" y="-893.8" font-family="Times New Roman,serif" font-size="14.00">Pour eux, je suis un visage dans une tente RCI qui panse des blessures &#13;</text>
<text text-anchor="middle" x="919" y="-878.8" font-family="Times New Roman,serif" font-size="14.00">J&#39;ai l&#39;impression que les gens passent à TRAVERS moi comme une porte tournante &#13;</text>
<text text-anchor="middle" x="919" y="-863.8" font-family="Times New Roman,serif" font-size="14.00">Et c&#39;était avant que tu ne débarques jajaja</text>
</g>
<!-- j3434024055&#45;&gt;j1105101679 -->
<g id="edge12" class="edge">
<title>j3434024055&#45;&gt;j1105101679</title>
<path fill="none" stroke="black" d="M887.95,-1027.63C893.01,-1005.36 901.97,-965.92 908.97,-935.12"/>
<polygon fill="black" stroke="black" points="912.31,-936.21 911.12,-925.69 905.49,-934.66 912.31,-936.21"/>
</g>
<!-- j1134376107 -->
<g id="node14" class="node">
<title>j1134376107</title>
<polygon fill="none" stroke="red" points="544,-838 28,-838 28,-802 544,-802 544,-838"/>
<text text-anchor="middle" x="286" y="-816.3" font-family="Times New Roman,serif" font-size="14.00">Ce n’est pas parce que tu es une vraie dure que je ne peux pas me faire du souci pour toi.</text>
</g>
<!-- j3287604881&#45;&gt;j1134376107 -->
<g id="edge13" class="edge">
<title>j3287604881&#45;&gt;j1134376107</title>
<path fill="none" stroke="black" d="M288.35,-941.58C287.81,-914.09 287.06,-875.55 286.56,-849.5"/>
<polygon fill="black" stroke="black" points="290.06,-849.6 286.36,-839.67 283.06,-849.73 290.06,-849.6"/>
</g>
<!-- j1809982114 -->
<g id="node15" class="node">
<title>j1809982114</title>
<polygon fill="none" stroke="red" points="890,-838 562,-838 562,-802 890,-802 890,-838"/>
<text text-anchor="middle" x="726" y="-816.3" font-family="Times New Roman,serif" font-size="14.00">Ouais, un apport constant de café ne fait pas de mal. lol</text>
</g>
<!-- j3287604881&#45;&gt;j1809982114 -->
<g id="edge14" class="edge">
<title>j3287604881&#45;&gt;j1809982114</title>
<path fill="none" stroke="black" d="M383.82,-941.58C469.42,-911.42 592.78,-867.95 665.63,-842.27"/>
<polygon fill="black" stroke="black" points="666.74,-845.59 675.01,-838.97 664.42,-838.99 666.74,-845.59"/>
</g>
<!-- j3888424399&#45;&gt;j1134376107 -->
<g id="edge15" class="edge">
<title>j3888424399&#45;&gt;j1134376107</title>
<path fill="none" stroke="black" d="M578.85,-941.58C506.04,-911.6 401.31,-868.48 338.82,-842.75"/>
<polygon fill="black" stroke="black" points="340.39,-839.61 329.81,-839.04 337.73,-846.09 340.39,-839.61"/>
</g>
<!-- j3888424399&#45;&gt;j1809982114 -->
<g id="edge16" class="edge">
<title>j3888424399&#45;&gt;j1809982114</title>
<path fill="none" stroke="black" d="M656.75,-941.55C655.9,-916.27 658.35,-881.66 674,-856 676.23,-852.35 679,-848.99 682.09,-845.93"/>
<polygon fill="black" stroke="black" points="684.35,-848.6 689.73,-839.47 679.83,-843.26 684.35,-848.6"/>
</g>
<!-- j3843131114 -->
<g id="node16" class="node">
<title>j3843131114</title>
<ellipse fill="none" stroke="orange" cx="925" cy="-627" rx="113.98" ry="18"/>
<text text-anchor="middle" x="925" y="-623.3" font-family="Times New Roman,serif" font-size="14.00">Check boolean LettieNoFlirt</text>
</g>
<!-- j1105101679&#45;&gt;j3843131114 -->
<g id="edge17" class="edge">
<title>j1105101679&#45;&gt;j3843131114</title>
<path fill="none" stroke="black" d="M919.77,-855.68C920.95,-803.99 923.22,-705.37 924.34,-656.67"/>
<polygon fill="black" stroke="black" points="927.83,-657.02 924.56,-646.94 920.84,-656.86 927.83,-657.02"/>
</g>
<!-- j34290542 -->
<g id="node17" class="node">
<title>j34290542</title>
<polygon fill="none" stroke="blue" points="449,-765 123,-765 123,-682 449,-682 449,-765"/>
<text text-anchor="middle" x="286" y="-749.8" font-family="Times New Roman,serif" font-size="14.00">Sí, &#13;</text>
<text text-anchor="middle" x="286" y="-734.8" font-family="Times New Roman,serif" font-size="14.00">Ça me suffit de savoir que quelqu&#39;un me soutient &#13;</text>
<text text-anchor="middle" x="286" y="-719.8" font-family="Times New Roman,serif" font-size="14.00">Arthur est comme ça &#13;</text>
<text text-anchor="middle" x="286" y="-704.8" font-family="Times New Roman,serif" font-size="14.00">Il ne plane pas comme Aoi, quise prend pour mi mamá &#13;</text>
<text text-anchor="middle" x="286" y="-689.8" font-family="Times New Roman,serif" font-size="14.00">Il me tend juste une tasse et demande &quot;ça va?&quot;</text>
</g>
<!-- j1134376107&#45;&gt;j34290542 -->
<g id="edge18" class="edge">
<title>j1134376107&#45;&gt;j34290542</title>
<path fill="none" stroke="black" d="M286,-801.67C286,-794.47 286,-785.71 286,-776.7"/>
<polygon fill="black" stroke="black" points="289.5,-776.78 286,-766.78 282.5,-776.78 289.5,-776.78"/>
</g>
<!-- j2447625201 -->
<g id="node18" class="node">
<title>j2447625201</title>
<polygon fill="none" stroke="blue" points="847.5,-757.5 512.5,-757.5 512.5,-689.5 847.5,-689.5 847.5,-757.5"/>
<text text-anchor="middle" x="680" y="-742.3" font-family="Times New Roman,serif" font-size="14.00">Jajaja non, en effet&#13;</text>
<text text-anchor="middle" x="680" y="-727.3" font-family="Times New Roman,serif" font-size="14.00">Arthur est comme ça &#13;</text>
<text text-anchor="middle" x="680" y="-712.3" font-family="Times New Roman,serif" font-size="14.00">Il ne plane pas comme Aoi, en se prenant pour mi mamá &#13;</text>
<text text-anchor="middle" x="680" y="-697.3" font-family="Times New Roman,serif" font-size="14.00">Il me tend juste une tasse et demande, ça va ?</text>
</g>
<!-- j1809982114&#45;&gt;j2447625201 -->
<g id="edge19" class="edge">
<title>j1809982114&#45;&gt;j2447625201</title>
<path fill="none" stroke="black" d="M717.56,-801.67C712.95,-792.19 707.01,-779.98 701.22,-768.09"/>
<polygon fill="black" stroke="black" points="704.39,-766.61 696.87,-759.15 698.1,-769.67 704.39,-766.61"/>
</g>
<!-- j2594239961 -->
<g id="node19" class="node">
<title>j2594239961</title>
<polygon fill="none" stroke="red" points="1609,-558 1181,-558 1181,-522 1609,-522 1609,-558"/>
<text text-anchor="middle" x="1395" y="-536.3" font-family="Times New Roman,serif" font-size="14.00">Je veux dire, qu&#39;est&#45;ce que tu attends de gens qui viennent de tout perdre?</text>
</g>
<!-- j3843131114&#45;&gt;j2594239961 -->
<g id="edge20" class="edge">
<title>j3843131114&#45;&gt;j2594239961</title>
<path fill="none" stroke="green" d="M997.92,-612.81C1075.32,-598.82 1198.44,-576.55 1287.07,-560.52"/>
<polygon fill="green" stroke="green" points="1287.54,-563.99 1296.76,-558.77 1286.3,-557.1 1287.54,-563.99"/>
<text text-anchor="middle" x="1199" y="-579.8" font-family="Times New Roman,serif" font-size="14.00">true</text>
</g>
<!-- j3843131114&#45;&gt;j2594239961 -->
<g id="edge22" class="edge">
<title>j3843131114&#45;&gt;j2594239961</title>
<path fill="none" stroke="brown" d="M1023.89,-617.7C1079.98,-612.08 1151.28,-603.39 1214,-591 1252.67,-583.36 1295.19,-571.78 1329.3,-561.69"/>
<polygon fill="brown" stroke="brown" points="1330.03,-565.13 1338.61,-558.91 1328.02,-558.42 1330.03,-565.13"/>
<text text-anchor="middle" x="1287" y="-579.8" font-family="Times New Roman,serif" font-size="14.00">false</text>
</g>
<!-- j2794493798 -->
<g id="node20" class="node">
<title>j2794493798</title>
<polygon fill="none" stroke="red" points="1162.5,-558 627.5,-558 627.5,-522 1162.5,-522 1162.5,-558"/>
<text text-anchor="middle" x="895" y="-536.3" font-family="Times New Roman,serif" font-size="14.00">Je peux comprendre pourquoi toutes les personnes deviennent floues après un certain temps.</text>
</g>
<!-- j3843131114&#45;&gt;j2794493798 -->
<g id="edge21" class="edge">
<title>j3843131114&#45;&gt;j2794493798</title>
<path fill="none" stroke="green" d="M903.56,-609.13C898.47,-603.92 893.74,-597.75 891,-591 888.28,-584.3 887.75,-576.69 888.27,-569.46"/>
<polygon fill="green" stroke="green" points="891.7,-570.14 889.64,-559.75 884.77,-569.16 891.7,-570.14"/>
<text text-anchor="middle" x="902" y="-579.8" font-family="Times New Roman,serif" font-size="14.00">true</text>
</g>
<!-- j3843131114&#45;&gt;j2794493798 -->
<g id="edge23" class="edge">
<title>j3843131114&#45;&gt;j2794493798</title>
<path fill="none" stroke="brown" d="M921.89,-608.57C919.88,-598.82 916.91,-586.55 913,-576 912.11,-573.61 911.1,-571.16 910.02,-568.74"/>
<polygon fill="brown" stroke="brown" points="913.19,-567.26 905.67,-559.79 906.89,-570.32 913.19,-567.26"/>
<text text-anchor="middle" x="930" y="-579.8" font-family="Times New Roman,serif" font-size="14.00">false</text>
</g>
<!-- j3021891256 -->
<g id="node21" class="node">
<title>j3021891256</title>
<polygon fill="none" stroke="red" points="609,-558 349,-558 349,-522 609,-522 609,-558"/>
<text text-anchor="middle" x="479" y="-536.3" font-family="Times New Roman,serif" font-size="14.00">Au moins, tu es une porte vraiment sexy. :P</text>
</g>
<!-- j3843131114&#45;&gt;j3021891256 -->
<g id="edge24" class="edge">
<title>j3843131114&#45;&gt;j3021891256</title>
<path fill="none" stroke="brown" d="M854.33,-612.53C780.95,-598.55 665.4,-576.53 581.89,-560.61"/>
<polygon fill="brown" stroke="brown" points="582.55,-557.17 572.07,-558.74 581.24,-564.05 582.55,-557.17"/>
<text text-anchor="middle" x="741" y="-579.8" font-family="Times New Roman,serif" font-size="14.00">false</text>
</g>
<!-- j3839424436 -->
<g id="node22" class="node">
<title>j3839424436</title>
<ellipse fill="none" stroke="orange" cx="286" cy="-627" rx="140.28" ry="18"/>
<text text-anchor="middle" x="286" y="-623.3" font-family="Times New Roman,serif" font-size="14.00">Boolean LettieShoulder is now true.</text>
</g>
<!-- j34290542&#45;&gt;j3839424436 -->
<g id="edge25" class="edge">
<title>j34290542&#45;&gt;j3839424436</title>
<path fill="none" stroke="black" d="M286,-681.6C286,-673.22 286,-664.57 286,-656.73"/>
<polygon fill="black" stroke="black" points="289.5,-656.74 286,-646.74 282.5,-656.74 289.5,-656.74"/>
</g>
<!-- j2447625201&#45;&gt;j3839424436 -->
<g id="edge26" class="edge">
<title>j2447625201&#45;&gt;j3839424436</title>
<path fill="none" stroke="black" d="M540.54,-689.05C480.23,-674.59 412.05,-658.23 361.44,-646.09"/>
<polygon fill="black" stroke="black" points="362.28,-642.7 351.74,-643.77 360.65,-649.5 362.28,-642.7"/>
</g>
<!-- j1964779319 -->
<g id="node23" class="node">
<title>j1964779319</title>
<polygon fill="none" stroke="blue" points="1220,-477.5 984,-477.5 984,-424.5 1220,-424.5 1220,-477.5"/>
<text text-anchor="middle" x="1102" y="-462.3" font-family="Times New Roman,serif" font-size="14.00">Ce n&#39;est pas leur faute &#13;</text>
<text text-anchor="middle" x="1102" y="-447.3" font-family="Times New Roman,serif" font-size="14.00">Ce n&#39;est pas la mienne non plus, babas &#13;</text>
<text text-anchor="middle" x="1102" y="-432.3" font-family="Times New Roman,serif" font-size="14.00">J&#39;en ai juste marre de tout ça</text>
</g>
<!-- j2594239961&#45;&gt;j1964779319 -->
<g id="edge27" class="edge">
<title>j2594239961&#45;&gt;j1964779319</title>
<path fill="none" stroke="black" d="M1336.41,-521.6C1297.53,-510.06 1245.55,-494.62 1200.41,-481.22"/>
<polygon fill="black" stroke="black" points="1201.43,-477.87 1190.85,-478.38 1199.44,-484.58 1201.43,-477.87"/>
</g>
<!-- j2172623273 -->
<g id="node24" class="node">
<title>j2172623273</title>
<ellipse fill="none" stroke="orange" cx="900" cy="-451" rx="64.19" ry="18"/>
<text text-anchor="middle" x="900" y="-447.3" font-family="Times New Roman,serif" font-size="14.00">+10 Chemistry</text>
</g>
<!-- j2794493798&#45;&gt;j2172623273 -->
<g id="edge28" class="edge">
<title>j2794493798&#45;&gt;j2172623273</title>
<path fill="none" stroke="black" d="M895.99,-521.81C896.66,-510.09 897.57,-494.29 898.35,-480.68"/>
<polygon fill="black" stroke="black" points="901.83,-481.15 898.91,-470.96 894.84,-480.74 901.83,-481.15"/>
</g>
<!-- j144931967 -->
<g id="node25" class="node">
<title>j144931967</title>
<ellipse fill="none" stroke="orange" cx="512" cy="-451" rx="64.19" ry="18"/>
<text text-anchor="middle" x="512" y="-447.3" font-family="Times New Roman,serif" font-size="14.00">+20 Chemistry</text>
</g>
<!-- j3021891256&#45;&gt;j144931967 -->
<g id="edge29" class="edge">
<title>j3021891256&#45;&gt;j144931967</title>
<path fill="none" stroke="black" d="M485.52,-521.81C490.08,-509.78 496.28,-493.44 501.53,-479.59"/>
<polygon fill="black" stroke="black" points="504.68,-481.16 504.96,-470.57 498.14,-478.68 504.68,-481.16"/>
</g>
<!-- j3847205183 -->
<g id="node26" class="node">
<title>j3847205183</title>
<ellipse fill="none" stroke="orange" cx="253" cy="-540" rx="64.19" ry="18"/>
<text text-anchor="middle" x="253" y="-536.3" font-family="Times New Roman,serif" font-size="14.00">+20 Chemistry</text>
</g>
<!-- j3839424436&#45;&gt;j3847205183 -->
<g id="edge30" class="edge">
<title>j3839424436&#45;&gt;j3847205183</title>
<path fill="none" stroke="black" d="M279.32,-608.8C274.85,-597.28 268.86,-581.86 263.73,-568.63"/>
<polygon fill="black" stroke="black" points="267.1,-567.64 260.22,-559.59 260.57,-570.18 267.1,-567.64"/>
</g>
<!-- j3843068777 -->
<g id="node27" class="node">
<title>j3843068777</title>
<polygon fill="none" stroke="blue" points="1089,-294 981,-294 981,-256 1089,-256 1089,-294"/>
<text text-anchor="middle" x="1035" y="-278.8" font-family="Times New Roman,serif" font-size="14.00">Hablando de... &#13;</text>
<text text-anchor="middle" x="1035" y="-263.8" font-family="Times New Roman,serif" font-size="14.00">Retour au travail</text>
</g>
<!-- j1964779319&#45;&gt;j3843068777 -->
<g id="edge31" class="edge">
<title>j1964779319&#45;&gt;j3843068777</title>
<path fill="none" stroke="black" d="M1102.67,-424.05C1102.29,-394.9 1098.22,-347.08 1078,-312 1076.04,-308.61 1073.64,-305.39 1070.98,-302.38"/>
<polygon fill="black" stroke="black" points="1073.61,-300.06 1064.03,-295.53 1068.7,-305.04 1073.61,-300.06"/>
</g>
<!-- j3513322171 -->
<g id="node28" class="node">
<title>j3513322171</title>
<polygon fill="none" stroke="blue" points="1069,-380 735,-380 735,-312 1069,-312 1069,-380"/>
<text text-anchor="middle" x="902" y="-364.8" font-family="Times New Roman,serif" font-size="14.00">Sí, ce n&#39;est pas de leur faute, mais il y en a toujours plus &#13;</text>
<text text-anchor="middle" x="902" y="-349.8" font-family="Times New Roman,serif" font-size="14.00">J&#39;ai toujours pensé que ça ne finirait jamais &#13;</text>
<text text-anchor="middle" x="902" y="-334.8" font-family="Times New Roman,serif" font-size="14.00">Maintenant je sais que ça ne finira vraiment jamais &#13;</text>
<text text-anchor="middle" x="902" y="-319.8" font-family="Times New Roman,serif" font-size="14.00">Lua, sálvame</text>
</g>
<!-- j2172623273&#45;&gt;j3513322171 -->
<g id="edge32" class="edge">
<title>j2172623273&#45;&gt;j3513322171</title>
<path fill="none" stroke="black" d="M900.34,-432.53C900.56,-421.3 900.85,-406.16 901.13,-391.74"/>
<polygon fill="black" stroke="black" points="904.63,-391.99 901.32,-381.93 897.63,-391.86 904.63,-391.99"/>
</g>
<!-- j979531125 -->
<g id="node29" class="node">
<title>j979531125</title>
<polygon fill="none" stroke="blue" points="716.5,-380 371.5,-380 371.5,-312 716.5,-312 716.5,-380"/>
<text text-anchor="middle" x="544" y="-364.8" font-family="Times New Roman,serif" font-size="14.00">JAJA &#13;</text>
<text text-anchor="middle" x="544" y="-349.8" font-family="Times New Roman,serif" font-size="14.00">Oh, babas, tu sais comment remonter le moral d&#39;une dame &#13;</text>
<text text-anchor="middle" x="544" y="-334.8" font-family="Times New Roman,serif" font-size="14.00">Mets ça sur ma tombe &#13;</text>
<text text-anchor="middle" x="544" y="-319.8" font-family="Times New Roman,serif" font-size="14.00">&quot;Aquí yace la puerta más sexy que hayas visto.&quot;</text>
</g>
<!-- j144931967&#45;&gt;j979531125 -->
<g id="edge33" class="edge">
<title>j144931967&#45;&gt;j979531125</title>
<path fill="none" stroke="black" d="M517.28,-432.99C520.86,-421.5 525.74,-405.76 530.36,-390.89"/>
<polygon fill="black" stroke="black" points="533.59,-392.32 533.21,-381.73 526.9,-390.24 533.59,-392.32"/>
</g>
<!-- j3199927531 -->
<g id="node30" class="node">
<title>j3199927531</title>
<polygon fill="none" stroke="blue" points="415.5,-485 70.5,-485 70.5,-417 415.5,-417 415.5,-485"/>
<text text-anchor="middle" x="243" y="-469.8" font-family="Times New Roman,serif" font-size="14.00">J&#39;aime cette question, babas &#13;</text>
<text text-anchor="middle" x="243" y="-454.8" font-family="Times New Roman,serif" font-size="14.00">Continue à la poser &#13;</text>
<text text-anchor="middle" x="243" y="-439.8" font-family="Times New Roman,serif" font-size="14.00">J&#39;en aurai peut&#45;être besoin de temps en temps &#13;</text>
<text text-anchor="middle" x="243" y="-424.8" font-family="Times New Roman,serif" font-size="14.00">Et une tasse ou deux de café ne feront pas de mal non plus</text>
</g>
<!-- j3847205183&#45;&gt;j3199927531 -->
<g id="edge34" class="edge">
<title>j3847205183&#45;&gt;j3199927531</title>
<path fill="none" stroke="black" d="M251.02,-521.81C250.18,-514.5 249.16,-505.6 248.13,-496.63"/>
<polygon fill="black" stroke="black" points="251.63,-496.4 247.01,-486.86 244.67,-497.2 251.63,-496.4"/>
</g>
<!-- j3843068777&#45;&gt;Chat ends. -->
<g id="edge35" class="edge">
<title>j3843068777&#45;&gt;Chat ends.</title>
<path fill="none" stroke="black" d="M1028.84,-255.85C1017.99,-226.15 992.96,-166.67 955,-129 909.79,-84.13 842.5,-52.58 797.95,-35.11"/>
<polygon fill="black" stroke="black" points="799.42,-31.92 788.83,-31.61 796.92,-38.46 799.42,-31.92"/>
</g>
<!-- j3925505706 -->
<g id="node31" class="node">
<title>j3925505706</title>
<polygon fill="none" stroke="blue" points="945.5,-182 744.5,-182 744.5,-129 945.5,-129 945.5,-182"/>
<text text-anchor="middle" x="845" y="-166.8" font-family="Times New Roman,serif" font-size="14.00">Hablando de... &#13;</text>
<text text-anchor="middle" x="845" y="-151.8" font-family="Times New Roman,serif" font-size="14.00">Retour au travail &#13;</text>
<text text-anchor="middle" x="845" y="-136.8" font-family="Times New Roman,serif" font-size="14.00">Merci pour le moment de détente</text>
</g>
<!-- j3513322171&#45;&gt;j3925505706 -->
<g id="edge36" class="edge">
<title>j3513322171&#45;&gt;j3925505706</title>
<path fill="none" stroke="black" d="M903.02,-311.55C902.72,-281.16 899.14,-235.75 883,-200 881.73,-197.18 880.21,-194.42 878.53,-191.72"/>
<polygon fill="black" stroke="black" points="881.38,-189.7 872.72,-183.6 875.69,-193.77 881.38,-189.7"/>
</g>
<!-- j145318543 -->
<g id="node32" class="node">
<title>j145318543</title>
<polygon fill="none" stroke="blue" points="874,-238 674,-238 674,-200 874,-200 874,-238"/>
<text text-anchor="middle" x="774" y="-222.8" font-family="Times New Roman,serif" font-size="14.00">Gracias por hacerme reír, babas &#13;</text>
<text text-anchor="middle" x="774" y="-207.8" font-family="Times New Roman,serif" font-size="14.00">J&#39;avais besoin de ça</text>
</g>
<!-- j979531125&#45;&gt;j145318543 -->
<g id="edge37" class="edge">
<title>j979531125&#45;&gt;j145318543</title>
<path fill="none" stroke="black" d="M605.64,-311.5C644.88,-290.18 694.77,-263.06 730.02,-243.9"/>
<polygon fill="black" stroke="black" points="731.56,-247.05 738.68,-239.2 728.22,-240.9 731.56,-247.05"/>
</g>
<!-- j3234296588 -->
<g id="node33" class="node">
<title>j3234296588</title>
<ellipse fill="none" stroke="orange" cx="240" cy="-346" rx="113.98" ry="18"/>
<text text-anchor="middle" x="240" y="-342.3" font-family="Times New Roman,serif" font-size="14.00">Check boolean LettieNoFlirt</text>
</g>
<!-- j3199927531&#45;&gt;j3234296588 -->
<g id="edge38" class="edge">
<title>j3199927531&#45;&gt;j3234296588</title>
<path fill="none" stroke="black" d="M242.03,-416.56C241.64,-403.38 241.21,-388.4 240.84,-375.72"/>
<polygon fill="black" stroke="black" points="244.34,-375.82 240.55,-365.92 237.34,-376.02 244.34,-375.82"/>
</g>
<!-- j3925505706&#45;&gt;Chat ends. -->
<g id="edge39" class="edge">
<title>j3925505706&#45;&gt;Chat ends.</title>
<path fill="none" stroke="black" d="M827.29,-128.69C810.8,-104.67 786.35,-69.04 769.82,-44.97"/>
<polygon fill="black" stroke="black" points="772.88,-43.24 764.34,-36.98 767.11,-47.21 772.88,-43.24"/>
</g>
<!-- j1774146670 -->
<g id="node34" class="node">
<title>j1774146670</title>
<polygon fill="none" stroke="blue" points="742,-111 456,-111 456,-73 742,-73 742,-111"/>
<text text-anchor="middle" x="599" y="-95.8" font-family="Times New Roman,serif" font-size="14.00">Retour au travail, ¿no?&#13;</text>
<text text-anchor="middle" x="599" y="-80.8" font-family="Times New Roman,serif" font-size="14.00">Nous avons tous les deux du pain sur la planche</text>
</g>
<!-- j145318543&#45;&gt;j1774146670 -->
<g id="edge40" class="edge">
<title>j145318543&#45;&gt;j1774146670</title>
<path fill="none" stroke="black" d="M748.18,-199.56C717.85,-177.89 667.4,-141.86 633.68,-117.77"/>
<polygon fill="black" stroke="black" points="636.05,-115.16 625.87,-112.2 631.98,-120.86 636.05,-115.16"/>
</g>
<!-- j558625474 -->
<g id="node35" class="node">
<title>j558625474</title>
<polygon fill="none" stroke="red" points="656,-237 542,-237 542,-201 656,-201 656,-237"/>
<text text-anchor="middle" x="599" y="-215.3" font-family="Times New Roman,serif" font-size="14.00">Pas de problème.</text>
</g>
<!-- j3234296588&#45;&gt;j558625474 -->
<g id="edge41" class="edge">
<title>j3234296588&#45;&gt;j558625474</title>
<path fill="none" stroke="green" d="M285.47,-329.17C349.63,-306.83 466.86,-266.01 538.37,-241.11"/>
<polygon fill="green" stroke="green" points="539.29,-244.5 547.58,-237.9 536.98,-237.89 539.29,-244.5"/>
<text text-anchor="middle" x="503" y="-271.3" font-family="Times New Roman,serif" font-size="14.00">true</text>
</g>
<!-- j1001682494 -->
<g id="node36" class="node">
<title>j1001682494</title>
<polygon fill="none" stroke="red" points="222,-237 28,-237 28,-201 222,-201 222,-237"/>
<text text-anchor="middle" x="125" y="-215.3" font-family="Times New Roman,serif" font-size="14.00">Je vais voir ce que je peux faire.</text>
</g>
<!-- j3234296588&#45;&gt;j1001682494 -->
<g id="edge42" class="edge">
<title>j3234296588&#45;&gt;j1001682494</title>
<path fill="none" stroke="green" d="M217.11,-328.04C205.14,-318.65 190.6,-306.4 179,-294 165.4,-279.47 152.19,-261.47 142.25,-246.86"/>
<polygon fill="green" stroke="green" points="145.22,-245 136.75,-238.63 139.39,-248.89 145.22,-245"/>
<text text-anchor="middle" x="190" y="-271.3" font-family="Times New Roman,serif" font-size="14.00">true</text>
</g>
<!-- j3234296588&#45;&gt;j1001682494 -->
<g id="edge44" class="edge">
<title>j3234296588&#45;&gt;j1001682494</title>
<path fill="none" stroke="brown" d="M236.25,-327.54C231.24,-307.93 220.63,-276.21 201,-256 196.19,-251.05 190.57,-246.7 184.6,-242.9"/>
<polygon fill="brown" stroke="brown" points="186.72,-240.08 176.31,-238.13 183.23,-246.15 186.72,-240.08"/>
<text text-anchor="middle" x="238" y="-271.3" font-family="Times New Roman,serif" font-size="14.00">false</text>
</g>
<!-- j3639194077 -->
<g id="node37" class="node">
<title>j3639194077</title>
<polygon fill="none" stroke="red" points="524,-237 240,-237 240,-201 524,-201 524,-237"/>
<text text-anchor="middle" x="382" y="-215.3" font-family="Times New Roman,serif" font-size="14.00">Pas de problème. &lt;RETRO_EMOJI_HEART&gt;</text>
</g>
<!-- j3234296588&#45;&gt;j3639194077 -->
<g id="edge43" class="edge">
<title>j3234296588&#45;&gt;j3639194077</title>
<path fill="none" stroke="brown" d="M259.45,-327.88C283.85,-306.4 325.87,-269.41 353.8,-244.82"/>
<polygon fill="brown" stroke="brown" points="356,-247.55 361.2,-238.31 351.38,-242.29 356,-247.55"/>
<text text-anchor="middle" x="353" y="-271.3" font-family="Times New Roman,serif" font-size="14.00">false</text>
</g>
<!-- j1774146670&#45;&gt;Chat ends. -->
<g id="edge45" class="edge">
<title>j1774146670&#45;&gt;Chat ends.</title>
<path fill="none" stroke="black" d="M638,-72.65C660.78,-61.93 689.45,-48.44 712.34,-37.66"/>
<polygon fill="black" stroke="black" points="713.8,-40.84 721.36,-33.42 710.82,-34.51 713.8,-40.84"/>
</g>
<!-- j558625474&#45;&gt;j1774146670 -->
<g id="edge46" class="edge">
<title>j558625474&#45;&gt;j1774146670</title>
<path fill="none" stroke="black" d="M599,-200.62C599,-180.53 599,-147.14 599,-122.86"/>
<polygon fill="black" stroke="black" points="602.5,-122.97 599,-112.97 595.5,-122.97 602.5,-122.97"/>
</g>
<!-- j1001682494&#45;&gt;j1774146670 -->
<g id="edge47" class="edge">
<title>j1001682494&#45;&gt;j1774146670</title>
<path fill="none" stroke="black" d="M183.78,-200.58C247.25,-181.98 351.43,-152.08 442,-129 461.89,-123.93 483.28,-118.81 503.68,-114.08"/>
<polygon fill="black" stroke="black" points="504.46,-117.49 513.42,-111.84 502.89,-110.67 504.46,-117.49"/>
</g>
<!-- j3639194077&#45;&gt;j1774146670 -->
<g id="edge48" class="edge">
<title>j3639194077&#45;&gt;j1774146670</title>
<path fill="none" stroke="black" d="M412.17,-200.62C449.91,-178.88 514.71,-141.56 557.2,-117.08"/>
<polygon fill="black" stroke="black" points="558.74,-120.23 565.65,-112.21 555.24,-114.17 558.74,-120.23"/>
</g>
</g>
</svg>
