<?xml version="1.0" encoding="UTF-8" standalone="no"?>
<!DOCTYPE svg PUBLIC "-//W3C//DTD SVG 1.1//EN"
 "http://www.w3.org/Graphics/SVG/1.1/DTD/svg11.dtd">
<!-- Generated by graphviz version 7.1.0 (20230121.1956)
 -->
<!-- Pages: 1 -->
<svg width="2295pt" height="1762pt"
 viewBox="0.00 0.00 2295.00 1762.00" xmlns="http://www.w3.org/2000/svg" xmlns:xlink="http://www.w3.org/1999/xlink">
<g id="graph0" class="graph" transform="scale(1 1) rotate(0) translate(4 1758)">
<polygon fill="white" stroke="none" points="-4,4 -4,-1758 2291,-1758 2291,4 -4,4"/>
<!-- LettieRank4Convo2 begins. -->
<g id="node1" class="node">
<title>LettieRank4Convo2 begins.</title>
<ellipse fill="none" stroke="orange" cx="2150.5" cy="-1736" rx="111.58" ry="18"/>
<text text-anchor="middle" x="2150.5" y="-1732.3" font-family="Times New Roman,serif" font-size="14.00">LettieRank4Convo2 begins.</text>
</g>
<!-- j1970139256 -->
<g id="node2" class="node">
<title>j1970139256</title>
<polygon fill="none" stroke="blue" points="2285,-1681 2016,-1681 2016,-1628 2285,-1628 2285,-1681"/>
<text text-anchor="middle" x="2150.5" y="-1665.8" font-family="Times New Roman,serif" font-size="14.00">Parle&#45;moi de ce dieu terrible que tu as réveillé&#13;</text>
<text text-anchor="middle" x="2150.5" y="-1650.8" font-family="Times New Roman,serif" font-size="14.00">Ton Xipe Totec, ton Écorché &#13;</text>
<text text-anchor="middle" x="2150.5" y="-1635.8" font-family="Times New Roman,serif" font-size="14.00">Que veut&#45;il?</text>
</g>
<!-- LettieRank4Convo2 begins.&#45;&gt;j1970139256 -->
<g id="edge1" class="edge">
<title>LettieRank4Convo2 begins.&#45;&gt;j1970139256</title>
<path fill="none" stroke="black" d="M2150.5,-1717.75C2150.5,-1710.38 2150.5,-1701.48 2150.5,-1692.74"/>
<polygon fill="black" stroke="black" points="2154,-1693 2150.5,-1683 2147,-1693 2154,-1693"/>
</g>
<!-- j864292509 -->
<g id="node3" class="node">
<title>j864292509</title>
<ellipse fill="none" stroke="orange" cx="2150.5" cy="-1573" rx="122.38" ry="18"/>
<text text-anchor="middle" x="2150.5" y="-1569.3" font-family="Times New Roman,serif" font-size="14.00">Check boolean LettieReligion2</text>
</g>
<!-- j1970139256&#45;&gt;j864292509 -->
<g id="edge2" class="edge">
<title>j1970139256&#45;&gt;j864292509</title>
<path fill="none" stroke="black" d="M2150.5,-1627.91C2150.5,-1619.86 2150.5,-1610.91 2150.5,-1602.66"/>
<polygon fill="black" stroke="black" points="2154,-1602.77 2150.5,-1592.77 2147,-1602.77 2154,-1602.77"/>
</g>
<!-- j3104078971 -->
<g id="node4" class="node">
<title>j3104078971</title>
<polygon fill="none" stroke="red" points="1806.5,-1198 1732.5,-1198 1732.5,-1162 1806.5,-1162 1806.5,-1198"/>
<text text-anchor="middle" x="1769.5" y="-1176.3" font-family="Times New Roman,serif" font-size="14.00">La liberté?</text>
</g>
<!-- j864292509&#45;&gt;j3104078971 -->
<g id="edge3" class="edge">
<title>j864292509&#45;&gt;j3104078971</title>
<path fill="none" stroke="green" d="M2151.06,-1554.66C2151.3,-1520.82 2147.54,-1444.9 2112.5,-1395 2073.62,-1339.64 1898.83,-1246.32 1814.84,-1203.59"/>
<polygon fill="green" stroke="green" points="1816.43,-1200.48 1805.93,-1199.08 1813.27,-1206.72 1816.43,-1200.48"/>
<text text-anchor="middle" x="2106.5" y="-1365.8" font-family="Times New Roman,serif" font-size="14.00">true</text>
</g>
<!-- j1317332976 -->
<g id="node5" class="node">
<title>j1317332976</title>
<polygon fill="none" stroke="red" points="1954.5,-1198 1824.5,-1198 1824.5,-1162 1954.5,-1162 1954.5,-1198"/>
<text text-anchor="middle" x="1889.5" y="-1176.3" font-family="Times New Roman,serif" font-size="14.00">Nos connaissances?</text>
</g>
<!-- j864292509&#45;&gt;j1317332976 -->
<g id="edge4" class="edge">
<title>j864292509&#45;&gt;j1317332976</title>
<path fill="none" stroke="green" d="M2157.05,-1554.7C2162.88,-1537.72 2170.5,-1510.95 2170.5,-1487 2170.5,-1487 2170.5,-1487 2170.5,-1252 2170.5,-1230.89 2158.03,-1226.11 2139.5,-1216 2110.39,-1200.12 2028.34,-1190.78 1966.1,-1185.8"/>
<polygon fill="green" stroke="green" points="1966.48,-1182.32 1956.24,-1185.04 1965.94,-1189.3 1966.48,-1182.32"/>
<text text-anchor="middle" x="2181.5" y="-1365.8" font-family="Times New Roman,serif" font-size="14.00">true</text>
</g>
<!-- j1592169286 -->
<g id="node6" class="node">
<title>j1592169286</title>
<polygon fill="none" stroke="red" points="1491.5,-1198 1395.5,-1198 1395.5,-1162 1491.5,-1162 1491.5,-1198"/>
<text text-anchor="middle" x="1443.5" y="-1176.3" font-family="Times New Roman,serif" font-size="14.00">Je ne sais pas.</text>
</g>
<!-- j864292509&#45;&gt;j1592169286 -->
<g id="edge5" class="edge">
<title>j864292509&#45;&gt;j1592169286</title>
<path fill="none" stroke="green" d="M2029.06,-1570.29C1818.39,-1565.69 1407.5,-1548.79 1407.5,-1487 1407.5,-1487 1407.5,-1487 1407.5,-1252 1407.5,-1236.3 1414.59,-1220.55 1422.48,-1207.88"/>
<polygon fill="green" stroke="green" points="1425.31,-1209.95 1428.01,-1199.7 1419.51,-1206.03 1425.31,-1209.95"/>
<text text-anchor="middle" x="1418.5" y="-1365.8" font-family="Times New Roman,serif" font-size="14.00">true</text>
</g>
<!-- j2766991930 -->
<g id="node7" class="node">
<title>j2766991930</title>
<polygon fill="none" stroke="red" points="2287,-1504 2210,-1504 2210,-1468 2287,-1468 2287,-1504"/>
<text text-anchor="middle" x="2248.5" y="-1482.3" font-family="Times New Roman,serif" font-size="14.00">Je re [Fin.]</text>
</g>
<!-- j864292509&#45;&gt;j2766991930 -->
<g id="edge6" class="edge">
<title>j864292509&#45;&gt;j2766991930</title>
<path fill="none" stroke="green" d="M2168.19,-1554.99C2178.59,-1545.15 2192.09,-1532.65 2204.5,-1522 2208.55,-1518.53 2212.87,-1514.94 2217.16,-1511.45"/>
<polygon fill="green" stroke="green" points="2219.06,-1514.42 2224.67,-1505.43 2214.68,-1508.96 2219.06,-1514.42"/>
<text text-anchor="middle" x="2215.5" y="-1525.8" font-family="Times New Roman,serif" font-size="14.00">true</text>
</g>
<!-- j864292509&#45;&gt;j2766991930 -->
<g id="edge8" class="edge">
<title>j864292509&#45;&gt;j2766991930</title>
<path fill="none" stroke="brown" d="M2198.9,-1556.1C2208.92,-1551.16 2218.76,-1544.87 2226.5,-1537 2232.56,-1530.84 2237.09,-1522.73 2240.41,-1514.85"/>
<polygon fill="brown" stroke="brown" points="2243.69,-1516.08 2243.82,-1505.49 2237.11,-1513.69 2243.69,-1516.08"/>
<text text-anchor="middle" x="2249.5" y="-1525.8" font-family="Times New Roman,serif" font-size="14.00">false</text>
</g>
<!-- j615974993 -->
<g id="node8" class="node">
<title>j615974993</title>
<polygon fill="none" stroke="red" points="1975.5,-1504 1821.5,-1504 1821.5,-1468 1975.5,-1468 1975.5,-1504"/>
<text text-anchor="middle" x="1898.5" y="-1482.3" font-family="Times New Roman,serif" font-size="14.00">Hein? De quoi parles&#45;tu?</text>
</g>
<!-- j864292509&#45;&gt;j615974993 -->
<g id="edge7" class="edge">
<title>j864292509&#45;&gt;j615974993</title>
<path fill="none" stroke="brown" d="M2103.1,-1556.01C2062.88,-1542.45 2004.87,-1522.88 1960.88,-1508.04"/>
<polygon fill="brown" stroke="brown" points="1962.05,-1504.74 1951.46,-1504.86 1959.81,-1511.38 1962.05,-1504.74"/>
<text text-anchor="middle" x="2052.5" y="-1525.8" font-family="Times New Roman,serif" font-size="14.00">false</text>
</g>
<!-- j3591139671 -->
<g id="node9" class="node">
<title>j3591139671</title>
<polygon fill="none" stroke="blue" points="1935,-1125 1604,-1125 1604,-1072 1935,-1072 1935,-1125"/>
<text text-anchor="middle" x="1769.5" y="-1109.8" font-family="Times New Roman,serif" font-size="14.00">Tu penses mais tu ne sais pas &#13;</text>
<text text-anchor="middle" x="1769.5" y="-1094.8" font-family="Times New Roman,serif" font-size="14.00">Ses motivations ne sont pas claires &#13;</text>
<text text-anchor="middle" x="1769.5" y="-1079.8" font-family="Times New Roman,serif" font-size="14.00">Mais pourtant, tu penses que c&#39;est un ennemi. ¿Por qué?</text>
</g>
<!-- j3104078971&#45;&gt;j3591139671 -->
<g id="edge9" class="edge">
<title>j3104078971&#45;&gt;j3591139671</title>
<path fill="none" stroke="black" d="M1769.5,-1161.75C1769.5,-1154.38 1769.5,-1145.48 1769.5,-1136.74"/>
<polygon fill="black" stroke="black" points="1773,-1137 1769.5,-1127 1766,-1137 1773,-1137"/>
</g>
<!-- j1317332976&#45;&gt;j3591139671 -->
<g id="edge10" class="edge">
<title>j1317332976&#45;&gt;j3591139671</title>
<path fill="none" stroke="black" d="M1863.17,-1161.55C1849.91,-1152.77 1833.41,-1141.84 1817.98,-1131.62"/>
<polygon fill="black" stroke="black" points="1820.07,-1128.8 1809.8,-1126.2 1816.2,-1134.64 1820.07,-1128.8"/>
</g>
<!-- j615834835 -->
<g id="node10" class="node">
<title>j615834835</title>
<polygon fill="none" stroke="blue" points="1549.5,-1125 1337.5,-1125 1337.5,-1072 1549.5,-1072 1549.5,-1125"/>
<text text-anchor="middle" x="1443.5" y="-1109.8" font-family="Times New Roman,serif" font-size="14.00">Tu le traites comme un ennemi &#13;</text>
<text text-anchor="middle" x="1443.5" y="-1094.8" font-family="Times New Roman,serif" font-size="14.00">Si tu ne sais pas ce qu&#39;il recherche &#13;</text>
<text text-anchor="middle" x="1443.5" y="-1079.8" font-family="Times New Roman,serif" font-size="14.00">¿Por qué?</text>
</g>
<!-- j1592169286&#45;&gt;j615834835 -->
<g id="edge11" class="edge">
<title>j1592169286&#45;&gt;j615834835</title>
<path fill="none" stroke="black" d="M1443.5,-1161.75C1443.5,-1154.38 1443.5,-1145.48 1443.5,-1136.74"/>
<polygon fill="black" stroke="black" points="1447,-1137 1443.5,-1127 1440,-1137 1447,-1137"/>
</g>
<!-- Chat ends. -->
<g id="node11" class="node">
<title>Chat ends.</title>
<ellipse fill="none" stroke="orange" cx="1591.5" cy="-91" rx="50.09" ry="18"/>
<text text-anchor="middle" x="1591.5" y="-87.3" font-family="Times New Roman,serif" font-size="14.00">Chat ends.</text>
</g>
<!-- j2766991930&#45;&gt;Chat ends. -->
<g id="edge12" class="edge">
<title>j2766991930&#45;&gt;Chat ends.</title>
<path fill="none" stroke="black" d="M2248.88,-1467.78C2249.16,-1453.41 2249.5,-1432.37 2249.5,-1414 2249.5,-1414 2249.5,-1414 2249.5,-179 2249.5,-162.08 2244.78,-155.08 2230.5,-146 2182.46,-115.45 1803.24,-99.25 1652.74,-93.97"/>
<polygon fill="black" stroke="black" points="1653.08,-90.48 1642.97,-93.63 1652.84,-97.47 1653.08,-90.48"/>
</g>
<!-- j3647086228 -->
<g id="node12" class="node">
<title>j3647086228</title>
<polygon fill="none" stroke="blue" points="2103.5,-1431 1435.5,-1431 1435.5,-1395 2103.5,-1395 2103.5,-1431"/>
<text text-anchor="middle" x="1769.5" y="-1409.3" font-family="Times New Roman,serif" font-size="14.00">Cette créature du Néant qui sacrifie les autres et porte leur peau comme l&#39;ancien dieu Écorché d&#39;autrefois, Xipe Totec</text>
</g>
<!-- j615974993&#45;&gt;j3647086228 -->
<g id="edge13" class="edge">
<title>j615974993&#45;&gt;j3647086228</title>
<path fill="none" stroke="black" d="M1866.94,-1467.63C1850.15,-1458.39 1829.3,-1446.91 1811.19,-1436.95"/>
<polygon fill="black" stroke="black" points="1812.95,-1433.92 1802.5,-1432.17 1809.58,-1440.05 1812.95,-1433.92"/>
</g>
<!-- j3482097452 -->
<g id="node13" class="node">
<title>j3482097452</title>
<polygon fill="none" stroke="red" points="1400,-1035 717,-1035 717,-999 1400,-999 1400,-1035"/>
<text text-anchor="middle" x="1058.5" y="-1013.3" font-family="Times New Roman,serif" font-size="14.00">Cette CHOSE a décidé que ce serait une expérience amusante de retourner les parents du Zariman contre leurs enfants &#45;</text>
</g>
<!-- j3591139671&#45;&gt;j3482097452 -->
<g id="edge14" class="edge">
<title>j3591139671&#45;&gt;j3482097452</title>
<path fill="none" stroke="black" d="M1603.66,-1077.26C1588.4,-1075.45 1573.16,-1073.68 1558.5,-1072 1451.7,-1059.78 1331.97,-1046.82 1236.45,-1036.66"/>
<polygon fill="black" stroke="black" points="1237.04,-1033.21 1226.73,-1035.63 1236.3,-1040.17 1237.04,-1033.21"/>
</g>
<!-- j800368413 -->
<g id="node14" class="node">
<title>j800368413</title>
<polygon fill="none" stroke="red" points="2121,-1035 1418,-1035 1418,-999 2121,-999 2121,-1035"/>
<text text-anchor="middle" x="1769.5" y="-1013.3" font-family="Times New Roman,serif" font-size="14.00">Tout ce qu&#39;il fait, c&#39;est semer la mort et la destruction. Peu importe ses motivations, cela n&#39;a aucune importance. Crois&#45;moi.</text>
</g>
<!-- j3591139671&#45;&gt;j800368413 -->
<g id="edge15" class="edge">
<title>j3591139671&#45;&gt;j800368413</title>
<path fill="none" stroke="black" d="M1769.5,-1071.91C1769.5,-1063.86 1769.5,-1054.91 1769.5,-1046.66"/>
<polygon fill="black" stroke="black" points="1773,-1046.77 1769.5,-1036.77 1766,-1046.77 1773,-1046.77"/>
</g>
<!-- j615834835&#45;&gt;j3482097452 -->
<g id="edge16" class="edge">
<title>j615834835&#45;&gt;j3482097452</title>
<path fill="none" stroke="black" d="M1337.02,-1075.51C1279.76,-1063.69 1209.72,-1049.23 1154.2,-1037.76"/>
<polygon fill="black" stroke="black" points="1154.93,-1034.34 1144.43,-1035.74 1153.51,-1041.19 1154.93,-1034.34"/>
</g>
<!-- j615834835&#45;&gt;j800368413 -->
<g id="edge17" class="edge">
<title>j615834835&#45;&gt;j800368413</title>
<path fill="none" stroke="black" d="M1549.79,-1071.58C1594.31,-1060.72 1645.28,-1048.29 1686.9,-1038.14"/>
<polygon fill="black" stroke="black" points="1687.47,-1041.61 1696.36,-1035.84 1685.81,-1034.81 1687.47,-1041.61"/>
</g>
<!-- j86016663 -->
<g id="node15" class="node">
<title>j86016663</title>
<ellipse fill="none" stroke="orange" cx="1769.5" cy="-1326" rx="141.88" ry="18"/>
<text text-anchor="middle" x="1769.5" y="-1322.3" font-family="Times New Roman,serif" font-size="14.00">Boolean LettieReligion2 is now true.</text>
</g>
<!-- j3647086228&#45;&gt;j86016663 -->
<g id="edge18" class="edge">
<title>j3647086228&#45;&gt;j86016663</title>
<path fill="none" stroke="black" d="M1769.5,-1394.8C1769.5,-1383.58 1769.5,-1368.67 1769.5,-1355.69"/>
<polygon fill="black" stroke="black" points="1773,-1355.98 1769.5,-1345.98 1766,-1355.98 1773,-1355.98"/>
</g>
<!-- j3968906339 -->
<g id="node16" class="node">
<title>j3968906339</title>
<polygon fill="none" stroke="red" points="1525.5,-962 591.5,-962 591.5,-926 1525.5,-926 1525.5,-962"/>
<text text-anchor="middle" x="1058.5" y="-940.3" font-family="Times New Roman,serif" font-size="14.00">Et puis, il a donné aux enfants des pouvoirs magiques du Néant pour qu&#39;ils puissent assassiner leurs propres parents afin qu&#39;ils puissent APPRENDRE du massacre.</text>
</g>
<!-- j3482097452&#45;&gt;j3968906339 -->
<g id="edge19" class="edge">
<title>j3482097452&#45;&gt;j3968906339</title>
<path fill="none" stroke="black" d="M1058.5,-998.81C1058.5,-991.23 1058.5,-982.1 1058.5,-973.54"/>
<polygon fill="black" stroke="black" points="1062,-973.54 1058.5,-963.54 1055,-973.54 1062,-973.54"/>
</g>
<!-- j478702934 -->
<g id="node17" class="node">
<title>j478702934</title>
<polygon fill="none" stroke="blue" points="1898.5,-908 1640.5,-908 1640.5,-840 1898.5,-840 1898.5,-908"/>
<text text-anchor="middle" x="1769.5" y="-892.8" font-family="Times New Roman,serif" font-size="14.00">Non &#13;</text>
<text text-anchor="middle" x="1769.5" y="-877.8" font-family="Times New Roman,serif" font-size="14.00">Croire que tu comprends l&#39;esprit d&#39;un dieu?&#13;</text>
<text text-anchor="middle" x="1769.5" y="-862.8" font-family="Times New Roman,serif" font-size="14.00">Peu importe ton âge &#13;</text>
<text text-anchor="middle" x="1769.5" y="-847.8" font-family="Times New Roman,serif" font-size="14.00">Tout ce que tu as vu</text>
</g>
<!-- j800368413&#45;&gt;j478702934 -->
<g id="edge20" class="edge">
<title>j800368413&#45;&gt;j478702934</title>
<path fill="none" stroke="black" d="M1769.5,-998.71C1769.5,-979.17 1769.5,-946.6 1769.5,-919.78"/>
<polygon fill="black" stroke="black" points="1773,-919.83 1769.5,-909.83 1766,-919.83 1773,-919.83"/>
</g>
<!-- j2137255320 -->
<g id="node18" class="node">
<title>j2137255320</title>
<polygon fill="none" stroke="blue" points="1831.5,-1271 1707.5,-1271 1707.5,-1235 1831.5,-1235 1831.5,-1271"/>
<text text-anchor="middle" x="1769.5" y="-1249.3" font-family="Times New Roman,serif" font-size="14.00">Qu&#39;est&#45;ce qu&#39;il veut</text>
</g>
<!-- j86016663&#45;&gt;j2137255320 -->
<g id="edge21" class="edge">
<title>j86016663&#45;&gt;j2137255320</title>
<path fill="none" stroke="black" d="M1769.5,-1307.81C1769.5,-1300.23 1769.5,-1291.1 1769.5,-1282.54"/>
<polygon fill="black" stroke="black" points="1773,-1282.54 1769.5,-1272.54 1766,-1282.54 1773,-1282.54"/>
</g>
<!-- j3362483466 -->
<g id="node19" class="node">
<title>j3362483466</title>
<polygon fill="none" stroke="red" points="1716,-822 1081,-822 1081,-786 1716,-786 1716,-822"/>
<text text-anchor="middle" x="1398.5" y="-800.3" font-family="Times New Roman,serif" font-size="14.00">Il a eu l&#39;occasion d&#39;apprendre l&#39;amour, le sacrifice, la bonté. Mais il continue à CHOISIR le chaos et le meurtre.</text>
</g>
<!-- j3968906339&#45;&gt;j3362483466 -->
<g id="edge22" class="edge">
<title>j3968906339&#45;&gt;j3362483466</title>
<path fill="none" stroke="black" d="M1101.56,-925.52C1163.56,-900.36 1277.88,-853.96 1345.14,-826.66"/>
<polygon fill="black" stroke="black" points="1346.17,-830.02 1354.12,-823.01 1343.54,-823.53 1346.17,-830.02"/>
</g>
<!-- j1763578371 -->
<g id="node20" class="node">
<title>j1763578371</title>
<polygon fill="none" stroke="red" points="1062.5,-822 222.5,-822 222.5,-786 1062.5,-786 1062.5,-822"/>
<text text-anchor="middle" x="642.5" y="-800.3" font-family="Times New Roman,serif" font-size="14.00">Même s&#39;il s&#39;agit simplement d&#39;un enfant qui casse des jouets pour comprendre le monde qui l&#39;entoure, nous sommes ces jouets. Il faut que ça cesse.</text>
</g>
<!-- j3968906339&#45;&gt;j1763578371 -->
<g id="edge23" class="edge">
<title>j3968906339&#45;&gt;j1763578371</title>
<path fill="none" stroke="black" d="M1005.81,-925.52C929.41,-900.18 788.07,-853.29 706.01,-826.07"/>
<polygon fill="black" stroke="black" points="707.12,-822.75 696.52,-822.92 704.91,-829.39 707.12,-822.75"/>
</g>
<!-- j1467973773 -->
<g id="node21" class="node">
<title>j1467973773</title>
<ellipse fill="none" stroke="orange" cx="1769.5" cy="-425" rx="111.28" ry="18"/>
<text text-anchor="middle" x="1769.5" y="-421.3" font-family="Times New Roman,serif" font-size="14.00">Check boolean LettieEntrati</text>
</g>
<!-- j478702934&#45;&gt;j1467973773 -->
<g id="edge24" class="edge">
<title>j478702934&#45;&gt;j1467973773</title>
<path fill="none" stroke="black" d="M1769.5,-839.9C1769.5,-819.23 1769.5,-792.06 1769.5,-768 1769.5,-768 1769.5,-768 1769.5,-511 1769.5,-492.12 1769.5,-470.88 1769.5,-454.35"/>
<polygon fill="black" stroke="black" points="1773,-454.77 1769.5,-444.77 1766,-454.77 1773,-454.77"/>
</g>
<!-- j2137255320&#45;&gt;j3104078971 -->
<g id="edge25" class="edge">
<title>j2137255320&#45;&gt;j3104078971</title>
<path fill="none" stroke="black" d="M1769.5,-1234.81C1769.5,-1227.23 1769.5,-1218.1 1769.5,-1209.54"/>
<polygon fill="black" stroke="black" points="1773,-1209.54 1769.5,-1199.54 1766,-1209.54 1773,-1209.54"/>
</g>
<!-- j2137255320&#45;&gt;j1317332976 -->
<g id="edge26" class="edge">
<title>j2137255320&#45;&gt;j1317332976</title>
<path fill="none" stroke="black" d="M1798.86,-1234.63C1814.4,-1225.43 1833.7,-1214.02 1850.48,-1204.08"/>
<polygon fill="black" stroke="black" points="1851.91,-1207.31 1858.73,-1199.21 1848.34,-1201.29 1851.91,-1207.31"/>
</g>
<!-- j2137255320&#45;&gt;j1592169286 -->
<g id="edge27" class="edge">
<title>j2137255320&#45;&gt;j1592169286</title>
<path fill="none" stroke="black" d="M1707.03,-1238.39C1648.27,-1225.6 1560.92,-1206.57 1503.11,-1193.98"/>
<polygon fill="black" stroke="black" points="1503.96,-1190.59 1493.44,-1191.88 1502.47,-1197.42 1503.96,-1190.59"/>
</g>
<!-- j1785830938 -->
<g id="node22" class="node">
<title>j1785830938</title>
<polygon fill="none" stroke="red" points="1731,-749 1014,-749 1014,-713 1731,-713 1731,-749"/>
<text text-anchor="middle" x="1372.5" y="-727.3" font-family="Times New Roman,serif" font-size="14.00">Je continuerai à espérer que ce n’est pas un ennemi, mais… je n&#39;ai pas beaucoup de raisons de penser que ce n’en est pas un.</text>
</g>
<!-- j3362483466&#45;&gt;j1785830938 -->
<g id="edge28" class="edge">
<title>j3362483466&#45;&gt;j1785830938</title>
<path fill="none" stroke="black" d="M1392.21,-785.81C1389.33,-777.96 1385.86,-768.47 1382.63,-759.66"/>
<polygon fill="black" stroke="black" points="1385.98,-758.64 1379.26,-750.45 1379.41,-761.04 1385.98,-758.64"/>
</g>
<!-- j787507124 -->
<g id="node23" class="node">
<title>j787507124</title>
<polygon fill="none" stroke="red" points="989.5,-749 489.5,-749 489.5,-713 989.5,-713 989.5,-749"/>
<text text-anchor="middle" x="739.5" y="-727.3" font-family="Times New Roman,serif" font-size="14.00">Je refuse de croire que c&#39;est bénin après tout ce que j&#39;ai vu. Après tout ce qu&#39;il m&#39;a fait.</text>
</g>
<!-- j1763578371&#45;&gt;j787507124 -->
<g id="edge29" class="edge">
<title>j1763578371&#45;&gt;j787507124</title>
<path fill="none" stroke="black" d="M665.98,-785.81C678.28,-776.81 693.54,-765.64 706.96,-755.82"/>
<polygon fill="black" stroke="black" points="708.68,-758.9 714.68,-750.17 704.54,-753.25 708.68,-758.9"/>
</g>
<!-- j3237416238 -->
<g id="node24" class="node">
<title>j3237416238</title>
<polygon fill="none" stroke="blue" points="1745,-285 1438,-285 1438,-232 1745,-232 1745,-285"/>
<text text-anchor="middle" x="1591.5" y="-269.8" font-family="Times New Roman,serif" font-size="14.00">Tu n&#39;es pas un dieu, babas &#13;</text>
<text text-anchor="middle" x="1591.5" y="-254.8" font-family="Times New Roman,serif" font-size="14.00">Ne prétends pas pouvoir penser comme eux&#13;</text>
<text text-anchor="middle" x="1591.5" y="-239.8" font-family="Times New Roman,serif" font-size="14.00">Sinon, tu ne vaux pas mieux que ce cabrón d&#39;Entrati</text>
</g>
<!-- j1467973773&#45;&gt;j3237416238 -->
<g id="edge30" class="edge">
<title>j1467973773&#45;&gt;j3237416238</title>
<path fill="none" stroke="green" d="M1728.58,-407.91C1703.01,-396.34 1670.67,-378.78 1647.5,-356 1630.13,-338.93 1616.32,-315.35 1606.75,-295.78"/>
<polygon fill="green" stroke="green" points="1609.94,-294.32 1602.53,-286.75 1603.6,-297.29 1609.94,-294.32"/>
<text text-anchor="middle" x="1701.5" y="-377.8" font-family="Times New Roman,serif" font-size="14.00">true</text>
</g>
<!-- j2106554779 -->
<g id="node25" class="node">
<title>j2106554779</title>
<ellipse fill="none" stroke="orange" cx="1769.5" cy="-329.5" rx="113.18" ry="18"/>
<text text-anchor="middle" x="1769.5" y="-325.8" font-family="Times New Roman,serif" font-size="14.00">Check boolean LettieOrokin</text>
</g>
<!-- j1467973773&#45;&gt;j2106554779 -->
<g id="edge31" class="edge">
<title>j1467973773&#45;&gt;j2106554779</title>
<path fill="none" stroke="brown" d="M1769.5,-406.85C1769.5,-393.49 1769.5,-374.65 1769.5,-359.03"/>
<polygon fill="brown" stroke="brown" points="1773,-359.37 1769.5,-349.37 1766,-359.37 1773,-359.37"/>
<text text-anchor="middle" x="1782.5" y="-377.8" font-family="Times New Roman,serif" font-size="14.00">false</text>
</g>
<!-- j3660115427 -->
<g id="node26" class="node">
<title>j3660115427</title>
<polygon fill="none" stroke="blue" points="885,-676 648,-676 648,-640 885,-640 885,-676"/>
<text text-anchor="middle" x="766.5" y="-654.3" font-family="Times New Roman,serif" font-size="14.00">Et tu penses que tu peux arrêter un dieu</text>
</g>
<!-- j1785830938&#45;&gt;j3660115427 -->
<g id="edge32" class="edge">
<title>j1785830938&#45;&gt;j3660115427</title>
<path fill="none" stroke="black" d="M1223.48,-712.54C1123.19,-700.79 992.25,-685.45 896.25,-674.2"/>
<polygon fill="black" stroke="black" points="896.86,-670.75 886.52,-673.06 896.05,-677.7 896.86,-670.75"/>
</g>
<!-- j787507124&#45;&gt;j3660115427 -->
<g id="edge33" class="edge">
<title>j787507124&#45;&gt;j3660115427</title>
<path fill="none" stroke="black" d="M746.04,-712.81C749.02,-704.96 752.63,-695.47 755.98,-686.66"/>
<polygon fill="black" stroke="black" points="759.2,-688.03 759.49,-677.44 752.66,-685.55 759.2,-688.03"/>
</g>
<!-- j3237416238&#45;&gt;Chat ends. -->
<g id="edge34" class="edge">
<title>j3237416238&#45;&gt;Chat ends.</title>
<path fill="none" stroke="black" d="M1591.5,-231.64C1591.5,-201.46 1591.5,-151.72 1591.5,-120.47"/>
<polygon fill="black" stroke="black" points="1595,-120.6 1591.5,-110.6 1588,-120.6 1595,-120.6"/>
</g>
<!-- j102940062 -->
<g id="node27" class="node">
<title>j102940062</title>
<polygon fill="none" stroke="blue" points="2221.5,-206.5 1901.5,-206.5 1901.5,-153.5 2221.5,-153.5 2221.5,-206.5"/>
<text text-anchor="middle" x="2061.5" y="-191.3" font-family="Times New Roman,serif" font-size="14.00">Tu n&#39;es pas un dieu, babas &#13;</text>
<text text-anchor="middle" x="2061.5" y="-176.3" font-family="Times New Roman,serif" font-size="14.00">Ne prétends pas pouvoir penser comme eux &#13;</text>
<text text-anchor="middle" x="2061.5" y="-161.3" font-family="Times New Roman,serif" font-size="14.00">Sinon, tu ne vaux pas mieux que ces cabrones orokins</text>
</g>
<!-- j2106554779&#45;&gt;j102940062 -->
<g id="edge35" class="edge">
<title>j2106554779&#45;&gt;j102940062</title>
<path fill="none" stroke="green" d="M1802.43,-311.87C1850.23,-287.72 1939.68,-242.53 1999.92,-212.1"/>
<polygon fill="green" stroke="green" points="2001.37,-215.29 2008.72,-207.66 1998.22,-209.05 2001.37,-215.29"/>
<text text-anchor="middle" x="1969.5" y="-254.8" font-family="Times New Roman,serif" font-size="14.00">true</text>
</g>
<!-- j546727970 -->
<g id="node28" class="node">
<title>j546727970</title>
<polygon fill="none" stroke="blue" points="1883,-199 1620,-199 1620,-161 1883,-161 1883,-199"/>
<text text-anchor="middle" x="1751.5" y="-183.8" font-family="Times New Roman,serif" font-size="14.00">Tu n&#39;es pas un dieu, babas &#13;</text>
<text text-anchor="middle" x="1751.5" y="-168.8" font-family="Times New Roman,serif" font-size="14.00">Ne prétends pas pouvoir penser comme eux</text>
</g>
<!-- j2106554779&#45;&gt;j546727970 -->
<g id="edge36" class="edge">
<title>j2106554779&#45;&gt;j546727970</title>
<path fill="none" stroke="brown" d="M1767.4,-311.29C1764.39,-286.6 1758.8,-240.79 1755.11,-210.6"/>
<polygon fill="brown" stroke="brown" points="1758.62,-210.49 1753.94,-200.99 1751.68,-211.34 1758.62,-210.49"/>
<text text-anchor="middle" x="1776.5" y="-254.8" font-family="Times New Roman,serif" font-size="14.00">false</text>
</g>
<!-- j61093793 -->
<g id="node29" class="node">
<title>j61093793</title>
<ellipse fill="none" stroke="orange" cx="766.5" cy="-585" rx="141.88" ry="18"/>
<text text-anchor="middle" x="766.5" y="-581.3" font-family="Times New Roman,serif" font-size="14.00">Boolean LettieReligion4 is now true.</text>
</g>
<!-- j3660115427&#45;&gt;j61093793 -->
<g id="edge37" class="edge">
<title>j3660115427&#45;&gt;j61093793</title>
<path fill="none" stroke="black" d="M766.5,-639.81C766.5,-632.23 766.5,-623.1 766.5,-614.54"/>
<polygon fill="black" stroke="black" points="770,-614.54 766.5,-604.54 763,-614.54 770,-614.54"/>
</g>
<!-- j102940062&#45;&gt;Chat ends. -->
<g id="edge38" class="edge">
<title>j102940062&#45;&gt;Chat ends.</title>
<path fill="none" stroke="black" d="M1929.61,-153.04C1917.07,-150.64 1904.55,-148.26 1892.5,-146 1806.95,-129.98 1707.54,-112.33 1647.1,-101.71"/>
<polygon fill="black" stroke="black" points="1647.85,-98.29 1637.4,-100.01 1646.64,-105.19 1647.85,-98.29"/>
</g>
<!-- j546727970&#45;&gt;Chat ends. -->
<g id="edge39" class="edge">
<title>j546727970&#45;&gt;Chat ends.</title>
<path fill="none" stroke="black" d="M1717.57,-160.55C1691.3,-146.26 1654.97,-126.51 1628.05,-111.88"/>
<polygon fill="black" stroke="black" points="1630.03,-108.97 1619.57,-107.26 1626.68,-115.12 1630.03,-108.97"/>
</g>
<!-- j74624568 -->
<g id="node30" class="node">
<title>j74624568</title>
<ellipse fill="none" stroke="orange" cx="766.5" cy="-512" rx="116.98" ry="18"/>
<text text-anchor="middle" x="766.5" y="-508.3" font-family="Times New Roman,serif" font-size="14.00">Check boolean ReligionNone</text>
</g>
<!-- j61093793&#45;&gt;j74624568 -->
<g id="edge40" class="edge">
<title>j61093793&#45;&gt;j74624568</title>
<path fill="none" stroke="black" d="M766.5,-566.81C766.5,-559.23 766.5,-550.1 766.5,-541.54"/>
<polygon fill="black" stroke="black" points="770,-541.54 766.5,-531.54 763,-541.54 770,-541.54"/>
</g>
<!-- j58413461 -->
<g id="node31" class="node">
<title>j58413461</title>
<polygon fill="none" stroke="red" points="1520.5,-443 1160.5,-443 1160.5,-407 1520.5,-407 1520.5,-443"/>
<text text-anchor="middle" x="1340.5" y="-421.3" font-family="Times New Roman,serif" font-size="14.00">Aucune idée. J&#39;ai tendance à improviser au fur et à mesure. lol</text>
</g>
<!-- j74624568&#45;&gt;j58413461 -->
<g id="edge41" class="edge">
<title>j74624568&#45;&gt;j58413461</title>
<path fill="none" stroke="green" d="M848.74,-498.82C943.45,-484.8 1100.22,-461.58 1211.27,-445.14"/>
<polygon fill="green" stroke="green" points="1211.67,-448.62 1221.05,-443.69 1210.64,-441.69 1211.67,-448.62"/>
<text text-anchor="middle" x="1098.5" y="-464.8" font-family="Times New Roman,serif" font-size="14.00">true</text>
</g>
<!-- j195952661 -->
<g id="node32" class="node">
<title>j195952661</title>
<polygon fill="none" stroke="red" points="1004,-443 477,-443 477,-407 1004,-407 1004,-443"/>
<text text-anchor="middle" x="740.5" y="-421.3" font-family="Times New Roman,serif" font-size="14.00">Je pense que je peux essayer. Comme je l&#39;ai fait ici. Et c&#39;est tout ce que nous pouvons faire.</text>
</g>
<!-- j74624568&#45;&gt;j195952661 -->
<g id="edge42" class="edge">
<title>j74624568&#45;&gt;j195952661</title>
<path fill="none" stroke="green" d="M761.24,-493.8C757.77,-482.47 753.15,-467.36 749.15,-454.29"/>
<polygon fill="green" stroke="green" points="752.56,-453.45 746.29,-444.91 745.86,-455.5 752.56,-453.45"/>
<text text-anchor="middle" x="765.5" y="-464.8" font-family="Times New Roman,serif" font-size="14.00">true</text>
</g>
<!-- j1641741013 -->
<g id="node33" class="node">
<title>j1641741013</title>
<polygon fill="none" stroke="red" points="459,-443 12,-443 12,-407 459,-407 459,-443"/>
<text text-anchor="middle" x="235.5" y="-421.3" font-family="Times New Roman,serif" font-size="14.00">C&#39;est aux autres d&#39;agir, maintenant. Ma place est ici, en 1999, avec vous tous.</text>
</g>
<!-- j74624568&#45;&gt;j1641741013 -->
<g id="edge43" class="edge">
<title>j74624568&#45;&gt;j1641741013</title>
<path fill="none" stroke="green" d="M687.58,-498.37C599.86,-484.33 457.2,-461.49 355.61,-445.23"/>
<polygon fill="green" stroke="green" points="356.28,-441.79 345.86,-443.67 355.18,-448.7 356.28,-441.79"/>
<text text-anchor="middle" x="544.5" y="-464.8" font-family="Times New Roman,serif" font-size="14.00">true</text>
</g>
<!-- j868497661 -->
<g id="node34" class="node">
<title>j868497661</title>
<polygon fill="none" stroke="red" points="1091,-443 1022,-443 1022,-407 1091,-407 1091,-443"/>
<text text-anchor="middle" x="1056.5" y="-421.3" font-family="Times New Roman,serif" font-size="14.00">J&#39;ai la foi.</text>
</g>
<!-- j74624568&#45;&gt;j868497661 -->
<g id="edge44" class="edge">
<title>j74624568&#45;&gt;j868497661</title>
<path fill="none" stroke="brown" d="M827.19,-496.24C874.97,-484.18 943.37,-465.94 1011.04,-443.67"/>
<polygon fill="brown" stroke="brown" points="1012.06,-447.01 1020.45,-440.53 1009.85,-440.37 1012.06,-447.01"/>
<text text-anchor="middle" x="965.5" y="-464.8" font-family="Times New Roman,serif" font-size="14.00">false</text>
</g>
<!-- j2409882359 -->
<g id="node35" class="node">
<title>j2409882359</title>
<ellipse fill="none" stroke="orange" cx="1353.5" cy="-329.5" rx="64.19" ry="18"/>
<text text-anchor="middle" x="1353.5" y="-325.8" font-family="Times New Roman,serif" font-size="14.00">+20 Chemistry</text>
</g>
<!-- j58413461&#45;&gt;j2409882359 -->
<g id="edge45" class="edge">
<title>j58413461&#45;&gt;j2409882359</title>
<path fill="none" stroke="black" d="M1342.88,-406.85C1344.74,-393.49 1347.36,-374.65 1349.53,-359.03"/>
<polygon fill="black" stroke="black" points="1352.97,-359.74 1350.88,-349.36 1346.03,-358.78 1352.97,-359.74"/>
</g>
<!-- j3886542855 -->
<g id="node36" class="node">
<title>j3886542855</title>
<ellipse fill="none" stroke="orange" cx="737.5" cy="-329.5" rx="64.19" ry="18"/>
<text text-anchor="middle" x="737.5" y="-325.8" font-family="Times New Roman,serif" font-size="14.00">+20 Chemistry</text>
</g>
<!-- j195952661&#45;&gt;j3886542855 -->
<g id="edge46" class="edge">
<title>j195952661&#45;&gt;j3886542855</title>
<path fill="none" stroke="black" d="M739.95,-406.85C739.52,-393.49 738.92,-374.65 738.42,-359.03"/>
<polygon fill="black" stroke="black" points="741.92,-359.25 738.11,-349.37 734.93,-359.48 741.92,-359.25"/>
</g>
<!-- j620266737 -->
<g id="node37" class="node">
<title>j620266737</title>
<polygon fill="none" stroke="blue" points="471,-356 0,-356 0,-303 471,-303 471,-356"/>
<text text-anchor="middle" x="235.5" y="-340.8" font-family="Times New Roman,serif" font-size="14.00">Estás bromeando, ¿verdad? &#13;</text>
<text text-anchor="middle" x="235.5" y="-325.8" font-family="Times New Roman,serif" font-size="14.00">Au moment où ils appelleront, tu courras&#13;</text>
<text text-anchor="middle" x="235.5" y="-310.8" font-family="Times New Roman,serif" font-size="14.00">Tu es un voyageur, un soldat, tu iras sauver l&#39;avenir quand ils auront besoin de toi</text>
</g>
<!-- j1641741013&#45;&gt;j620266737 -->
<g id="edge47" class="edge">
<title>j1641741013&#45;&gt;j620266737</title>
<path fill="none" stroke="black" d="M235.5,-406.85C235.5,-395.92 235.5,-381.33 235.5,-367.83"/>
<polygon fill="black" stroke="black" points="239,-367.88 235.5,-357.88 232,-367.88 239,-367.88"/>
</g>
<!-- j4099089503 -->
<g id="node38" class="node">
<title>j4099089503</title>
<ellipse fill="none" stroke="orange" cx="1056.5" cy="-329.5" rx="64.19" ry="18"/>
<text text-anchor="middle" x="1056.5" y="-325.8" font-family="Times New Roman,serif" font-size="14.00">+20 Chemistry</text>
</g>
<!-- j868497661&#45;&gt;j4099089503 -->
<g id="edge48" class="edge">
<title>j868497661&#45;&gt;j4099089503</title>
<path fill="none" stroke="black" d="M1056.5,-406.85C1056.5,-393.49 1056.5,-374.65 1056.5,-359.03"/>
<polygon fill="black" stroke="black" points="1060,-359.37 1056.5,-349.37 1053,-359.37 1060,-359.37"/>
</g>
<!-- j2872557731 -->
<g id="node39" class="node">
<title>j2872557731</title>
<polygon fill="none" stroke="blue" points="1563,-214 1222,-214 1222,-146 1563,-146 1563,-214"/>
<text text-anchor="middle" x="1392.5" y="-198.8" font-family="Times New Roman,serif" font-size="14.00">Jaja, sí&#13;</text>
<text text-anchor="middle" x="1392.5" y="-183.8" font-family="Times New Roman,serif" font-size="14.00">J&#39;ai ce sentiment &#13;</text>
<text text-anchor="middle" x="1392.5" y="-168.8" font-family="Times New Roman,serif" font-size="14.00">J&#39;apprécie ton honnêteté, babas&#13;</text>
<text text-anchor="middle" x="1392.5" y="-153.8" font-family="Times New Roman,serif" font-size="14.00">Cela semble fonctionner pour toi, donc je ne te jugerai pas</text>
</g>
<!-- j2409882359&#45;&gt;j2872557731 -->
<g id="edge49" class="edge">
<title>j2409882359&#45;&gt;j2872557731</title>
<path fill="none" stroke="black" d="M1358.05,-311.29C1363.58,-290.36 1373.13,-254.24 1380.78,-225.34"/>
<polygon fill="black" stroke="black" points="1384.15,-226.28 1383.32,-215.72 1377.38,-224.49 1384.15,-226.28"/>
</g>
<!-- j316389403 -->
<g id="node40" class="node">
<title>j316389403</title>
<polygon fill="none" stroke="blue" points="891.5,-199 571.5,-199 571.5,-161 891.5,-161 891.5,-199"/>
<text text-anchor="middle" x="731.5" y="-183.8" font-family="Times New Roman,serif" font-size="14.00">Sí&#13;</text>
<text text-anchor="middle" x="731.5" y="-168.8" font-family="Times New Roman,serif" font-size="14.00">C&#39;est tout ce que nous pouvons demander, je suppose</text>
</g>
<!-- j3886542855&#45;&gt;j316389403 -->
<g id="edge50" class="edge">
<title>j3886542855&#45;&gt;j316389403</title>
<path fill="none" stroke="black" d="M736.8,-311.29C735.8,-286.6 733.93,-240.79 732.7,-210.6"/>
<polygon fill="black" stroke="black" points="736.22,-210.85 732.31,-201 729.22,-211.13 736.22,-210.85"/>
</g>
<!-- j1798410879 -->
<g id="node41" class="node">
<title>j1798410879</title>
<polygon fill="none" stroke="blue" points="459,-206.5 12,-206.5 12,-153.5 459,-153.5 459,-206.5"/>
<text text-anchor="middle" x="235.5" y="-191.3" font-family="Times New Roman,serif" font-size="14.00">Nous sommes coincés ici &#13;</text>
<text text-anchor="middle" x="235.5" y="-176.3" font-family="Times New Roman,serif" font-size="14.00">Ne me mens pas et ne me dis pas que tu m&#39;emmèneras en promenade, babas &#13;</text>
<text text-anchor="middle" x="235.5" y="-161.3" font-family="Times New Roman,serif" font-size="14.00">Un jour, tu partiras et tu ne reviendras jamais</text>
</g>
<!-- j620266737&#45;&gt;j1798410879 -->
<g id="edge51" class="edge">
<title>j620266737&#45;&gt;j1798410879</title>
<path fill="none" stroke="black" d="M235.5,-302.81C235.5,-279.47 235.5,-244.77 235.5,-218.37"/>
<polygon fill="black" stroke="black" points="239,-218.41 235.5,-208.41 232,-218.41 239,-218.41"/>
</g>
<!-- j2046747756 -->
<g id="node42" class="node">
<title>j2046747756</title>
<polygon fill="none" stroke="blue" points="1203.5,-206.5 909.5,-206.5 909.5,-153.5 1203.5,-153.5 1203.5,-206.5"/>
<text text-anchor="middle" x="1056.5" y="-191.3" font-family="Times New Roman,serif" font-size="14.00">Ay, sí&#13;</text>
<text text-anchor="middle" x="1056.5" y="-176.3" font-family="Times New Roman,serif" font-size="14.00">La foi en ce qui n&#39;a pas d&#39;importance, je suppose &#13;</text>
<text text-anchor="middle" x="1056.5" y="-161.3" font-family="Times New Roman,serif" font-size="14.00">Tant que ça t&#39;aide à t&#39;en sortir</text>
</g>
<!-- j4099089503&#45;&gt;j2046747756 -->
<g id="edge52" class="edge">
<title>j4099089503&#45;&gt;j2046747756</title>
<path fill="none" stroke="black" d="M1056.5,-311C1056.5,-288.23 1056.5,-247.85 1056.5,-218.11"/>
<polygon fill="black" stroke="black" points="1060,-218.41 1056.5,-208.41 1053,-218.41 1060,-218.41"/>
</g>
<!-- j2872557731&#45;&gt;Chat ends. -->
<g id="edge53" class="edge">
<title>j2872557731&#45;&gt;Chat ends.</title>
<path fill="none" stroke="black" d="M1468.87,-145.61C1496.53,-133.52 1526.71,-120.32 1550.21,-110.05"/>
<polygon fill="black" stroke="black" points="1551.36,-113.37 1559.12,-106.16 1548.56,-106.95 1551.36,-113.37"/>
</g>
<!-- j316389403&#45;&gt;Chat ends. -->
<g id="edge54" class="edge">
<title>j316389403&#45;&gt;Chat ends.</title>
<path fill="none" stroke="black" d="M815.86,-160.55C842.8,-155.19 872.8,-149.77 900.5,-146 1132.08,-114.45 1410.04,-99.69 1530.68,-94.4"/>
<polygon fill="black" stroke="black" points="1530.5,-97.91 1540.34,-93.99 1530.2,-90.92 1530.5,-97.91"/>
</g>
<!-- j1682647635 -->
<g id="node43" class="node">
<title>j1682647635</title>
<ellipse fill="none" stroke="orange" cx="235.5" cy="-91" rx="133.78" ry="18"/>
<text text-anchor="middle" x="235.5" y="-87.3" font-family="Times New Roman,serif" font-size="14.00">Boolean LettieEscape is now true.</text>
</g>
<!-- j1798410879&#45;&gt;j1682647635 -->
<g id="edge55" class="edge">
<title>j1798410879&#45;&gt;j1682647635</title>
<path fill="none" stroke="black" d="M235.5,-153.37C235.5,-143.1 235.5,-131.22 235.5,-120.67"/>
<polygon fill="black" stroke="black" points="239,-120.98 235.5,-110.98 232,-120.98 239,-120.98"/>
</g>
<!-- j2046747756&#45;&gt;Chat ends. -->
<g id="edge56" class="edge">
<title>j2046747756&#45;&gt;Chat ends.</title>
<path fill="none" stroke="black" d="M1175.92,-153.05C1188.59,-150.55 1201.29,-148.15 1213.5,-146 1326.36,-126.1 1459.17,-108.45 1533.52,-99.09"/>
<polygon fill="black" stroke="black" points="1533.51,-102.62 1542.99,-97.9 1532.64,-95.67 1533.51,-102.62"/>
</g>
<!-- Chat ends. Next chat will be LettieEscape. -->
<g id="node44" class="node">
<title>Chat ends. Next chat will be LettieEscape.</title>
<ellipse fill="none" stroke="orange" cx="235.5" cy="-18" rx="163.57" ry="18"/>
<text text-anchor="middle" x="235.5" y="-14.3" font-family="Times New Roman,serif" font-size="14.00">Chat ends. Next chat will be LettieEscape.</text>
</g>
<!-- j1682647635&#45;&gt;Chat ends. Next chat will be LettieEscape. -->
<g id="edge57" class="edge">
<title>j1682647635&#45;&gt;Chat ends. Next chat will be LettieEscape.</title>
<path fill="none" stroke="black" d="M235.5,-72.81C235.5,-65.23 235.5,-56.1 235.5,-47.54"/>
<polygon fill="black" stroke="black" points="239,-47.54 235.5,-37.54 232,-47.54 239,-47.54"/>
</g>
</g>
</svg>
