<?xml version="1.0" encoding="UTF-8" standalone="no"?>
<!DOCTYPE svg PUBLIC "-//W3C//DTD SVG 1.1//EN"
 "http://www.w3.org/Graphics/SVG/1.1/DTD/svg11.dtd">
<!-- Generated by graphviz version 7.1.0 (20230121.1956)
 -->
<!-- Pages: 1 -->
<svg width="931pt" height="349pt"
 viewBox="0.00 0.00 930.50 349.00" xmlns="http://www.w3.org/2000/svg" xmlns:xlink="http://www.w3.org/1999/xlink">
<g id="graph0" class="graph" transform="scale(1 1) rotate(0) translate(4 345)">
<polygon fill="white" stroke="none" points="-4,4 -4,-345 926.5,-345 926.5,4 -4,4"/>
<!-- LettieBirthdayConvo1 begins. -->
<g id="node1" class="node">
<title>LettieBirthdayConvo1 begins.</title>
<ellipse fill="none" stroke="orange" cx="455" cy="-323" rx="118.88" ry="18"/>
<text text-anchor="middle" x="455" y="-319.3" font-family="Times New Roman,serif" font-size="14.00">LettieBirthdayConvo1 begins.</text>
</g>
<!-- j160519543 -->
<g id="node2" class="node">
<title>j160519543</title>
<polygon fill="none" stroke="red" points="411.5,-269 56.5,-269 56.5,-233 411.5,-233 411.5,-269"/>
<text text-anchor="middle" x="234" y="-247.3" font-family="Times New Roman,serif" font-size="14.00">Hé! Joyeux anniversaire! Tes rats t&#39;ont offert quelque chose?</text>
</g>
<!-- LettieBirthdayConvo1 begins.&#45;&gt;j160519543 -->
<g id="edge1" class="edge">
<title>LettieBirthdayConvo1 begins.&#45;&gt;j160519543</title>
<path fill="none" stroke="black" d="M405.13,-306.2C374,-296.34 333.57,-283.54 299.82,-272.85"/>
<polygon fill="black" stroke="black" points="301.15,-269.6 290.56,-269.92 299.04,-276.27 301.15,-269.6"/>
</g>
<!-- j937982844 -->
<g id="node3" class="node">
<title>j937982844</title>
<polygon fill="none" stroke="red" points="922.5,-269 429.5,-269 429.5,-233 922.5,-233 922.5,-269"/>
<text text-anchor="middle" x="676" y="-247.3" font-family="Times New Roman,serif" font-size="14.00">Joyeux anniversaire! Pendant les Jours Stellaires, en plus. Comme c&#39;est romantique. :)</text>
</g>
<!-- LettieBirthdayConvo1 begins.&#45;&gt;j937982844 -->
<g id="edge2" class="edge">
<title>LettieBirthdayConvo1 begins.&#45;&gt;j937982844</title>
<path fill="none" stroke="black" d="M504.87,-306.2C536,-296.34 576.43,-283.54 610.18,-272.85"/>
<polygon fill="black" stroke="black" points="610.96,-276.27 619.44,-269.92 608.85,-269.6 610.96,-276.27"/>
</g>
<!-- j3700527408 -->
<g id="node4" class="node">
<title>j3700527408</title>
<ellipse fill="none" stroke="orange" cx="245" cy="-179" rx="64.19" ry="18"/>
<text text-anchor="middle" x="245" y="-175.3" font-family="Times New Roman,serif" font-size="14.00">+20 Chemistry</text>
</g>
<!-- j160519543&#45;&gt;j3700527408 -->
<g id="edge3" class="edge">
<title>j160519543&#45;&gt;j3700527408</title>
<path fill="none" stroke="black" d="M236.72,-232.7C237.88,-225.32 239.26,-216.52 240.56,-208.25"/>
<polygon fill="black" stroke="black" points="243.98,-209.02 242.08,-198.6 237.07,-207.93 243.98,-209.02"/>
</g>
<!-- j3273921638 -->
<g id="node5" class="node">
<title>j3273921638</title>
<polygon fill="none" stroke="blue" points="782.5,-125 557.5,-125 557.5,-72 782.5,-72 782.5,-125"/>
<text text-anchor="middle" x="670" y="-109.8" font-family="Times New Roman,serif" font-size="14.00">C&#39;est quoi, les Jours Stellaires?&#13;</text>
<text text-anchor="middle" x="670" y="-94.8" font-family="Times New Roman,serif" font-size="14.00">Peu importe. Trop occupée pour ça. &#13;</text>
<text text-anchor="middle" x="670" y="-79.8" font-family="Times New Roman,serif" font-size="14.00">Adiós</text>
</g>
<!-- j937982844&#45;&gt;j3273921638 -->
<g id="edge4" class="edge">
<title>j937982844&#45;&gt;j3273921638</title>
<path fill="none" stroke="black" d="M675.31,-232.74C674.38,-209.39 672.7,-167.15 671.47,-136.47"/>
<polygon fill="black" stroke="black" points="674.99,-136.71 671.09,-126.86 667.99,-136.99 674.99,-136.71"/>
</g>
<!-- j3161108015 -->
<g id="node6" class="node">
<title>j3161108015</title>
<polygon fill="none" stroke="blue" points="534,-125 0,-125 0,-72 534,-72 534,-125"/>
<text text-anchor="middle" x="267" y="-109.8" font-family="Times New Roman,serif" font-size="14.00">Jajaja no&#13;</text>
<text text-anchor="middle" x="267" y="-94.8" font-family="Times New Roman,serif" font-size="14.00">Tout ce que je veux, c&#39;est dormir une heure ou une tasse de café frais. C&#39;est trop demander? &#13;</text>
<text text-anchor="middle" x="267" y="-79.8" font-family="Times New Roman,serif" font-size="14.00">Pero, gracias</text>
</g>
<!-- j3700527408&#45;&gt;j3161108015 -->
<g id="edge5" class="edge">
<title>j3700527408&#45;&gt;j3161108015</title>
<path fill="none" stroke="black" d="M249.88,-160.58C251.91,-153.35 254.34,-144.68 256.72,-136.18"/>
<polygon fill="black" stroke="black" points="260.05,-137.25 259.38,-126.68 253.31,-135.36 260.05,-137.25"/>
</g>
<!-- Chat ends. -->
<g id="node7" class="node">
<title>Chat ends.</title>
<ellipse fill="none" stroke="orange" cx="466" cy="-18" rx="50.09" ry="18"/>
<text text-anchor="middle" x="466" y="-14.3" font-family="Times New Roman,serif" font-size="14.00">Chat ends.</text>
</g>
<!-- j3273921638&#45;&gt;Chat ends. -->
<g id="edge6" class="edge">
<title>j3273921638&#45;&gt;Chat ends.</title>
<path fill="none" stroke="black" d="M602.64,-71.58C572.14,-59.84 536.95,-46.3 509.92,-35.9"/>
<polygon fill="black" stroke="black" points="511.25,-32.66 500.66,-32.34 508.74,-39.2 511.25,-32.66"/>
</g>
<!-- j3161108015&#45;&gt;Chat ends. -->
<g id="edge7" class="edge">
<title>j3161108015&#45;&gt;Chat ends.</title>
<path fill="none" stroke="black" d="M332.71,-71.58C362.26,-59.92 396.33,-46.48 422.62,-36.11"/>
<polygon fill="black" stroke="black" points="423.59,-39.49 431.61,-32.57 421.02,-32.98 423.59,-39.49"/>
</g>
</g>
</svg>
